<?xml version="1.0" standalone="no"?>
<!DOCTYPE svg PUBLIC "-//W3C//DTD SVG 1.1//EN" "http://www.w3.org/Graphics/SVG/1.1/DTD/svg11.dtd">
<svg width="43mm" height="55mm" viewBox="-3 -22 43 55" xmlns="http://www.w3.org/2000/svg" version="1.1">
<title>OpenSCAD Model</title>
<path d="
M -2.05,30 L -2.03383,30.2569 L -1.98559,30.5098 L -1.90604,30.7547 L -1.79643,30.9876 L -1.65848,31.205
 L -1.49438,31.4033 L -1.30672,31.5796 L -1.09844,31.7309 L -0.872847,31.8549 L -0.633484,31.9497 L -0.384131,32.0137
 L -0.12872,32.046 L 37.9287,32.046 L 38.1841,32.0137 L 38.4335,31.9497 L 38.6728,31.8549 L 38.8984,31.7309
 L 39.1067,31.5796 L 39.2944,31.4033 L 39.4585,31.205 L 39.5964,30.9876 L 39.706,30.7547 L 39.7856,30.5098
 L 39.8338,30.2569 L 39.85,30 L 39.85,10.7 L 39.8338,10.4431 L 39.7856,10.1902 L 39.706,9.94535
 L 39.5964,9.71241 L 39.4585,9.49504 L 39.2944,9.29668 L 39.1067,9.12045 L 38.8984,8.96913 L 38.6728,8.84511
 L 38.4335,8.75034 L 38.1841,8.68631 L 37.9287,8.65405 L -0.12872,8.65405 L -0.384131,8.68631 L -0.633484,8.75034
 L -0.872847,8.84511 L -1.09844,8.96913 L -1.30672,9.12045 L -1.49438,9.29668 L -1.65848,9.49504 L -1.79643,9.71241
 L -1.90604,9.94535 L -1.98559,10.1902 L -2.03383,10.4431 L -2.05,10.7 z
M 18.49,20.35 L 18.516,19.9364 L 18.5937,19.5293 L 18.7217,19.1352 L 18.8982,18.7602 L 19.1202,18.4103
 L 19.3844,18.091 L 19.6865,17.8073 L 20.0218,17.5637 L 20.3849,17.3641 L 20.7702,17.2115 L 21.1716,17.1085
 L 21.5828,17.0565 L 21.9972,17.0565 L 22.4084,17.1085 L 22.8098,17.2115 L 23.1951,17.3641 L 23.5582,17.5637
 L 23.8935,17.8073 L 24.1956,18.091 L 24.4598,18.4103 L 24.6818,18.7602 L 24.8583,19.1352 L 24.9863,19.5293
 L 25.064,19.9364 L 25.09,20.35 L 25.064,20.7636 L 24.9863,21.1707 L 24.8583,21.5648 L 24.6818,21.9398
 L 24.4598,22.2897 L 24.1956,22.609 L 23.8935,22.8927 L 23.5582,23.1363 L 23.1951,23.3359 L 22.8098,23.4885
 L 22.4084,23.5915 L 21.9972,23.6435 L 21.5828,23.6435 L 21.1716,23.5915 L 20.7702,23.4885 L 20.3849,23.3359
 L 20.0218,23.1363 L 19.6865,22.8927 L 19.3844,22.609 L 19.1202,22.2897 L 18.8982,21.9398 L 18.7217,21.5648
 L 18.5937,21.1707 L 18.516,20.7636 z
M -2.05,-0 L -2.03383,0.256932 L -1.98559,0.509814 L -1.90604,0.754655 L -1.79643,0.987595 L -1.65848,1.20496
 L -1.49438,1.40332 L -1.30672,1.57955 L -1.09844,1.73087 L -0.872847,1.85489 L -0.633484,1.94967 L -0.384131,2.01369
 L -0.12872,2.04595 L 37.9287,2.04595 L 38.1841,2.01369 L 38.4335,1.94967 L 38.6728,1.85489 L 38.8984,1.73087
 L 39.1067,1.57955 L 39.2944,1.40332 L 39.4585,1.20496 L 39.5964,0.987595 L 39.706,0.754655 L 39.7856,0.509814
 L 39.8338,0.256932 L 39.85,-0 L 39.85,-19.3 L 39.8338,-19.5569 L 39.7856,-19.8098 L 39.706,-20.0547
 L 39.5964,-20.2876 L 39.4585,-20.505 L 39.2944,-20.7033 L 39.1067,-20.8796 L 38.8984,-21.0309 L 38.6728,-21.1549
 L 38.4335,-21.2497 L 38.1841,-21.3137 L 37.9287,-21.346 L -0.12872,-21.346 L -0.384131,-21.3137 L -0.633484,-21.2497
 L -0.872847,-21.1549 L -1.09844,-21.0309 L -1.30672,-20.8796 L -1.49438,-20.7033 L -1.65848,-20.505 L -1.79643,-20.2876
 L -1.90604,-20.0547 L -1.98559,-19.8098 L -2.03383,-19.5569 L -2.05,-19.3 z
M 10.385,-16.65 L 10.3925,-16.7684 L 10.3958,-16.8211 L 10.4056,-16.8729 L 10.4279,-16.9895 L 10.4646,-17.1023
 L 10.4809,-17.1525 L 10.5314,-17.2599 L 10.5538,-17.3076 L 10.5821,-17.3521 L 10.6457,-17.4523 L 10.6793,-17.493
 L 10.755,-17.5844 L 10.8415,-17.6656 L 10.8799,-17.7017 L 10.9226,-17.7328 L 11.0186,-17.8025 L 11.1226,-17.8597
 L 11.1688,-17.8851 L 11.2179,-17.9045 L 11.3282,-17.9482 L 11.4431,-17.9777 L 11.4942,-17.9908 L 11.5466,-17.9974
 L 11.6643,-18.0123 L 11.8357,-18.0123 L 11.9534,-17.9974 L 12.0058,-17.9908 L 12.0569,-17.9777 L 12.1718,-17.9482
 L 12.2821,-17.9045 L 12.3312,-17.8851 L 12.3774,-17.8597 L 12.4814,-17.8025 L 12.5774,-17.7328 L 12.6201,-17.7017
 L 12.6585,-17.6656 L 12.745,-17.5844 L 12.8207,-17.493 L 12.8543,-17.4523 L 12.9179,-17.3521 L 12.9462,-17.3076
 L 12.9686,-17.2599 L 13.0191,-17.1525 L 13.0354,-17.1023 L 13.0721,-16.9895 L 13.0944,-16.8729 L 13.1042,-16.8211
 L 13.1075,-16.7684 L 13.115,-16.65 L 13.1075,-16.5316 L 13.1042,-16.4789 L 13.0944,-16.4271 L 13.0721,-16.3105
 L 13.0354,-16.1977 L 13.0191,-16.1475 L 12.9686,-16.0401 L 12.9462,-15.9924 L 12.9179,-15.9479 L 12.8543,-15.8477
 L 12.7787,-15.7562 L 12.745,-15.7156 L 12.6585,-15.6344 L 12.6201,-15.5982 L 12.5774,-15.5672 L 12.4814,-15.4975
 L 12.3774,-15.4403 L 12.3312,-15.4149 L 12.2821,-15.3955 L 12.1718,-15.3518 L 12.0569,-15.3223 L 12.0058,-15.3092
 L 11.9534,-15.3026 L 11.8357,-15.2877 L 11.6643,-15.2877 L 11.5466,-15.3026 L 11.4942,-15.3092 L 11.4431,-15.3223
 L 11.3282,-15.3518 L 11.2179,-15.3955 L 11.1688,-15.4149 L 11.1226,-15.4403 L 11.0186,-15.4975 L 10.9226,-15.5672
 L 10.8799,-15.5982 L 10.8415,-15.6344 L 10.755,-15.7156 L 10.7213,-15.7562 L 10.6457,-15.8477 L 10.5821,-15.9479
 L 10.5538,-15.9924 L 10.5314,-16.0401 L 10.4809,-16.1475 L 10.4646,-16.1977 L 10.4279,-16.3105 L 10.4056,-16.4271
 L 10.3958,-16.4789 L 10.3925,-16.5316 z
M 18.8921,-8 L 18.8921,-11.3 L 21.75,-12.95 L 24.6079,-11.3 L 24.6079,-8 L 21.75,-6.35
 z
M 20.385,-16.65 L 20.3925,-16.7684 L 20.3958,-16.8211 L 20.4056,-16.8729 L 20.4279,-16.9895 L 20.4646,-17.1023
 L 20.4809,-17.1525 L 20.5314,-17.2599 L 20.5538,-17.3076 L 20.5821,-17.3521 L 20.6457,-17.4523 L 20.6793,-17.493
 L 20.755,-17.5844 L 20.8415,-17.6656 L 20.8799,-17.7017 L 20.9226,-17.7328 L 21.0186,-17.8025 L 21.1226,-17.8597
 L 21.1688,-17.8851 L 21.2179,-17.9045 L 21.3282,-17.9482 L 21.4431,-17.9777 L 21.4942,-17.9908 L 21.5466,-17.9974
 L 21.6643,-18.0123 L 21.8357,-18.0123 L 21.9534,-17.9974 L 22.0058,-17.9908 L 22.0569,-17.9777 L 22.1718,-17.9482
 L 22.2821,-17.9045 L 22.3312,-17.8851 L 22.3774,-17.8597 L 22.4814,-17.8025 L 22.5774,-17.7328 L 22.6201,-17.7017
 L 22.6585,-17.6656 L 22.745,-17.5844 L 22.8207,-17.493 L 22.8543,-17.4523 L 22.9179,-17.3521 L 22.9462,-17.3076
 L 22.9686,-17.2599 L 23.0191,-17.1525 L 23.0354,-17.1023 L 23.0721,-16.9895 L 23.0944,-16.8729 L 23.1042,-16.8211
 L 23.1075,-16.7684 L 23.115,-16.65 L 23.1075,-16.5316 L 23.1042,-16.4789 L 23.0944,-16.4271 L 23.0721,-16.3105
 L 23.0354,-16.1977 L 23.0191,-16.1475 L 22.9686,-16.0401 L 22.9462,-15.9924 L 22.9179,-15.9479 L 22.8543,-15.8477
 L 22.7787,-15.7562 L 22.745,-15.7156 L 22.6585,-15.6344 L 22.6201,-15.5982 L 22.5774,-15.5672 L 22.4814,-15.4975
 L 22.3774,-15.4403 L 22.3312,-15.4149 L 22.2821,-15.3955 L 22.1718,-15.3518 L 22.0569,-15.3223 L 22.0058,-15.3092
 L 21.9534,-15.3026 L 21.8357,-15.2877 L 21.6643,-15.2877 L 21.5466,-15.3026 L 21.4942,-15.3092 L 21.4431,-15.3223
 L 21.3282,-15.3518 L 21.2179,-15.3955 L 21.1688,-15.4149 L 21.1226,-15.4403 L 21.0186,-15.4975 L 20.9226,-15.5672
 L 20.8799,-15.5982 L 20.8415,-15.6344 L 20.755,-15.7156 L 20.7213,-15.7562 L 20.6457,-15.8477 L 20.5821,-15.9479
 L 20.5538,-15.9924 L 20.5314,-16.0401 L 20.4809,-16.1475 L 20.4646,-16.1977 L 20.4279,-16.3105 L 20.4056,-16.4271
 L 20.3958,-16.4789 L 20.3925,-16.5316 z
" stroke="black" fill="lightgray" stroke-width="0.5"/>
</svg>
