<?xml version="1.0" encoding="UTF-8" standalone="no"?>
<svg
   width="40mm"
   height="52mm"
   viewBox="-1 -21 40 52"
   version="1.1"
   id="svg6"
   sodipodi:docname="RPM_case.svg"
   inkscape:version="1.1.2 (0a00cf5339, 2022-02-04)"
   xmlns:inkscape="http://www.inkscape.org/namespaces/inkscape"
   xmlns:sodipodi="http://sodipodi.sourceforge.net/DTD/sodipodi-0.dtd"
   xmlns="http://www.w3.org/2000/svg"
   xmlns:svg="http://www.w3.org/2000/svg"
   xmlns:rdf="http://www.w3.org/1999/02/22-rdf-syntax-ns#"
   xmlns:cc="http://creativecommons.org/ns#"
   xmlns:dc="http://purl.org/dc/elements/1.1/">
  <defs
     id="defs10" />
  <sodipodi:namedview
     id="namedview8"
     pagecolor="#ffffff"
     bordercolor="#666666"
     borderopacity="1.0"
     inkscape:pageshadow="2"
     inkscape:pageopacity="0.0"
     inkscape:pagecheckerboard="0"
     inkscape:document-units="mm"
     showgrid="false"
     inkscape:zoom="5.8069445"
     inkscape:cx="70.260703"
     inkscape:cy="86.189906"
     inkscape:window-width="1846"
     inkscape:window-height="1016"
     inkscape:window-x="74"
     inkscape:window-y="27"
     inkscape:window-maximized="1"
     inkscape:current-layer="svg6" />
  <title
     id="title2">OpenSCAD Model</title>
  <path
     d=" M -0.871249,30 L -0.870576,30.0107 L -0.864379,30.1092 L -0.845888,30.2061 L -0.843878,30.2167 L -0.840563,30.2269  L -0.810067,30.3207 L -0.8055,30.3304 L -0.763481,30.4197 L -0.757734,30.4288 L -0.704855,30.5121 L -0.64195,30.5881  L -0.635113,30.5964 L -0.563174,30.664 L -0.555355,30.6713 L -0.475517,30.7293 L -0.466839,30.7356 L -0.457439,30.7408  L -0.370959,30.7883 L -0.279204,30.8247 L -0.26923,30.8286 L -0.258841,30.8313 L -0.163255,30.8558 L -0.152613,30.8572  L -0.0547059,30.8695 L 37.8547,30.8695 L 37.9526,30.8572 L 37.9633,30.8558 L 38.0588,30.8313 L 38.0692,30.8286  L 38.0792,30.8247 L 38.171,30.7883 L 38.2574,30.7408 L 38.2668,30.7356 L 38.2755,30.7293 L 38.3554,30.6713  L 38.3632,30.664 L 38.4351,30.5964 L 38.4419,30.5881 L 38.5049,30.5121 L 38.5577,30.4288 L 38.5635,30.4197  L 38.6055,30.3304 L 38.6101,30.3207 L 38.6406,30.2269 L 38.6439,30.2167 L 38.6459,30.2061 L 38.6644,30.1092  L 38.6706,30.0107 L 38.6712,30 L 38.6712,10.7 L 38.6706,10.6893 L 38.6644,10.5908 L 38.6459,10.4939  L 38.6439,10.4833 L 38.6406,10.4731 L 38.6101,10.3793 L 38.6055,10.3696 L 38.5635,10.2803 L 38.5577,10.2712  L 38.5049,10.1879 L 38.4419,10.1119 L 38.4351,10.1036 L 38.3632,10.036 L 38.3554,10.0287 L 38.2755,9.97069  L 38.2668,9.96438 L 38.2574,9.95921 L 38.171,9.91167 L 38.0792,9.87534 L 38.0692,9.87139 L 38.0588,9.86873  L 37.9633,9.84418 L 37.9526,9.84284 L 37.8547,9.83047 L -0.0547059,9.83047 L -0.152613,9.84284 L -0.163255,9.84418  L -0.258841,9.86873 L -0.26923,9.87139 L -0.279204,9.87534 L -0.370959,9.91167 L -0.457439,9.95921 L -0.466839,9.96438  L -0.475517,9.97069 L -0.555355,10.0287 L -0.563174,10.036 L -0.635113,10.1036 L -0.64195,10.1119 L -0.704855,10.1879  L -0.757734,10.2712 L -0.763481,10.2803 L -0.8055,10.3696 L -0.810067,10.3793 L -0.840563,10.4731 L -0.843878,10.4833  L -0.845888,10.4939 L -0.864379,10.5908 L -0.870576,10.6893 L -0.871249,10.7 z M 18.0733,20.35 L 18.0983,19.9531 L 18.1026,19.8842 L 18.1156,19.8163 L 18.1901,19.4257 L 18.2114,19.36  L 18.3343,18.9818 L 18.5037,18.622 L 18.5331,18.5595 L 18.7461,18.2237 L 18.7832,18.1654 L 19.0366,17.859  L 19.0807,17.8058 L 19.131,17.7585 L 19.4209,17.4863 L 19.7426,17.2525 L 19.7985,17.2119 L 19.859,17.1786  L 20.2075,16.9871 L 20.5773,16.8407 L 20.6415,16.8152 L 20.7084,16.7981 L 21.0936,16.6992 L 21.4881,16.6493  L 21.5566,16.6407 L 22.0234,16.6407 L 22.0919,16.6493 L 22.4864,16.6992 L 22.8716,16.7981 L 22.9385,16.8152  L 23.0027,16.8407 L 23.3725,16.9871 L 23.721,17.1786 L 23.7815,17.2119 L 23.8374,17.2525 L 24.1591,17.4863  L 24.449,17.7585 L 24.4993,17.8058 L 24.5434,17.859 L 24.7968,18.1654 L 24.8339,18.2237 L 25.0469,18.5595  L 25.0763,18.622 L 25.2457,18.9818 L 25.3686,19.36 L 25.3899,19.4257 L 25.4644,19.8163 L 25.4774,19.8842  L 25.4817,19.9531 L 25.5067,20.35 L 25.4817,20.7469 L 25.4774,20.8158 L 25.4644,20.8837 L 25.3899,21.2743  L 25.3686,21.34 L 25.2457,21.7182 L 25.0763,22.078 L 25.0469,22.1405 L 24.8339,22.4763 L 24.7968,22.5346  L 24.5434,22.841 L 24.4993,22.8942 L 24.449,22.9415 L 24.1591,23.2137 L 23.8374,23.4475 L 23.7815,23.4881  L 23.721,23.5214 L 23.3725,23.7129 L 23.0027,23.8593 L 22.9385,23.8848 L 22.8716,23.9019 L 22.4864,24.0008  L 22.0919,24.0507 L 22.0234,24.0593 L 21.5566,24.0593 L 21.4881,24.0507 L 21.0936,24.0008 L 20.7084,23.9019  L 20.6415,23.8848 L 20.5773,23.8593 L 20.2075,23.7129 L 19.859,23.5214 L 19.7985,23.4881 L 19.7426,23.4475  L 19.4209,23.2137 L 19.131,22.9415 L 19.0807,22.8942 L 19.0366,22.841 L 18.7832,22.5346 L 18.7461,22.4763  L 18.5331,22.1405 L 18.5037,22.078 L 18.3343,21.7182 L 18.2114,21.34 L 18.1901,21.2743 L 18.1156,20.8837  L 18.1026,20.8158 L 18.0983,20.7469 z M -0.871249,-0 L -0.870576,0.0107055 L -0.864379,0.109196 L -0.845888,0.206134 L -0.843878,0.21667 L -0.840563,0.226872  L -0.810067,0.320728 L -0.8055,0.330434 L -0.763481,0.419727 L -0.757734,0.428784 L -0.704855,0.512107 L -0.64195,0.588146  L -0.635113,0.596411 L -0.563174,0.663966 L -0.555355,0.671309 L -0.475517,0.729315 L -0.466839,0.73562 L -0.457439,0.740788  L -0.370959,0.78833 L -0.279204,0.824659 L -0.26923,0.828608 L -0.258841,0.831275 L -0.163255,0.855817 L -0.152613,0.857162  L -0.0547059,0.86953 L 37.8547,0.86953 L 37.9526,0.857162 L 37.9633,0.855817 L 38.0588,0.831275 L 38.0692,0.828608  L 38.0792,0.824659 L 38.171,0.78833 L 38.2574,0.740788 L 38.2668,0.73562 L 38.2755,0.729315 L 38.3554,0.671309  L 38.3632,0.663966 L 38.4351,0.596411 L 38.4419,0.588146 L 38.5049,0.512107 L 38.5577,0.428784 L 38.5635,0.419727  L 38.6055,0.330434 L 38.6101,0.320728 L 38.6406,0.226872 L 38.6439,0.21667 L 38.6459,0.206134 L 38.6644,0.109196  L 38.6706,0.0107055 L 38.6712,-0 L 38.6712,-19.3 L 38.6706,-19.3107 L 38.6644,-19.4092 L 38.6459,-19.5061  L 38.6439,-19.5167 L 38.6406,-19.5269 L 38.6101,-19.6207 L 38.6055,-19.6304 L 38.5635,-19.7197 L 38.5577,-19.7288  L 38.5049,-19.8121 L 38.4419,-19.8881 L 38.4351,-19.8964 L 38.3632,-19.964 L 38.3554,-19.9713 L 38.2755,-20.0293  L 38.2668,-20.0356 L 38.2574,-20.0408 L 38.171,-20.0883 L 38.0792,-20.1247 L 38.0692,-20.1286 L 38.0588,-20.1313  L 37.9633,-20.1558 L 37.9526,-20.1572 L 37.8547,-20.1695 L -0.0547059,-20.1695 L -0.152613,-20.1572 L -0.163255,-20.1558  L -0.258841,-20.1313 L -0.26923,-20.1286 L -0.279204,-20.1247 L -0.370959,-20.0883 L -0.457439,-20.0408 L -0.466839,-20.0356  L -0.475517,-20.0293 L -0.555355,-19.9713 L -0.563174,-19.964 L -0.635113,-19.8964 L -0.64195,-19.8881 L -0.704855,-19.8121  L -0.757734,-19.7288 L -0.763481,-19.7197 L -0.8055,-19.6304 L -0.810067,-19.6207 L -0.840563,-19.5269 L -0.843878,-19.5167  L -0.845888,-19.5061 L -0.864379,-19.4092 L -0.870576,-19.3107 L -0.871249,-19.3 z M 10.2333,-16.65 L 10.2391,-16.7414 L 10.2453,-16.8401 L 10.2625,-16.93 L 10.281,-17.0272 L 10.3093,-17.1143  L 10.3398,-17.2083 L 10.3819,-17.2978 L 10.4209,-17.3807 L 10.47,-17.458 L 10.523,-17.5415 L 10.5814,-17.612  L 10.6444,-17.6882 L 10.7165,-17.7559 L 10.7832,-17.8186 L 10.8632,-17.8767 L 10.9373,-17.9306 L 11.0176,-17.9747  L 11.1042,-18.0223 L 11.1962,-18.0587 L 11.2813,-18.0924 L 11.3771,-18.117 L 11.4658,-18.1398 L 11.5567,-18.1513  L 11.6548,-18.1637 L 11.8452,-18.1637 L 11.9433,-18.1513 L 12.0342,-18.1398 L 12.1229,-18.117 L 12.2187,-18.0924  L 12.3038,-18.0587 L 12.3958,-18.0223 L 12.4824,-17.9747 L 12.5627,-17.9306 L 12.6368,-17.8767 L 12.7168,-17.8186  L 12.7835,-17.7559 L 12.8556,-17.6882 L 12.9186,-17.612 L 12.977,-17.5415 L 13.03,-17.458 L 13.0791,-17.3807  L 13.1181,-17.2978 L 13.1602,-17.2083 L 13.1907,-17.1143 L 13.219,-17.0272 L 13.2375,-16.93 L 13.2547,-16.8401  L 13.2605,-16.7487 L 13.2667,-16.65 L 13.2605,-16.5513 L 13.2547,-16.4599 L 13.2362,-16.3628 L 13.219,-16.2728  L 13.1907,-16.1857 L 13.1602,-16.0917 L 13.1181,-16.0022 L 13.0791,-15.9193 L 13.03,-15.842 L 12.977,-15.7585  L 12.9186,-15.688 L 12.8556,-15.6118 L 12.7835,-15.5441 L 12.7168,-15.4814 L 12.6368,-15.4233 L 12.5627,-15.3694  L 12.4824,-15.3253 L 12.3958,-15.2777 L 12.3038,-15.2413 L 12.2187,-15.2076 L 12.1229,-15.183 L 12.0342,-15.1602  L 11.9433,-15.1487 L 11.8452,-15.1363 L 11.6548,-15.1363 L 11.5567,-15.1487 L 11.4658,-15.1602 L 11.3771,-15.183  L 11.2813,-15.2076 L 11.1962,-15.2413 L 11.1042,-15.2777 L 11.0176,-15.3253 L 10.9373,-15.3694 L 10.8632,-15.4233  L 10.7832,-15.4814 L 10.7165,-15.5441 L 10.6444,-15.6118 L 10.5814,-15.688 L 10.523,-15.7585 L 10.47,-15.842  L 10.4209,-15.9193 L 10.3819,-16.0022 L 10.3398,-16.0917 L 10.3093,-16.1857 L 10.281,-16.2728 L 10.2638,-16.3628  L 10.2453,-16.4599 L 10.2391,-16.5586 z M 18.7156,-7.875 L 18.7156,-11.425 L 20.1445,-12.25 L 21.79,-13.2 L 23.4355,-12.25 L 24.8644,-11.425  L 24.8644,-7.875 L 23.4355,-7.05 L 21.79,-6.1 L 20.1445,-7.05 z M 20.2333,-16.65 L 20.2391,-16.7414 L 20.2453,-16.8401 L 20.2625,-16.93 L 20.281,-17.0272 L 20.3093,-17.1143  L 20.3398,-17.2083 L 20.3819,-17.2978 L 20.4209,-17.3807 L 20.47,-17.458 L 20.523,-17.5415 L 20.5814,-17.612  L 20.6444,-17.6882 L 20.7165,-17.7559 L 20.7832,-17.8186 L 20.8632,-17.8767 L 20.9373,-17.9306 L 21.0176,-17.9747  L 21.1042,-18.0223 L 21.1962,-18.0587 L 21.2813,-18.0924 L 21.3771,-18.117 L 21.4658,-18.1398 L 21.5567,-18.1513  L 21.6548,-18.1637 L 21.8452,-18.1637 L 21.9433,-18.1513 L 22.0342,-18.1398 L 22.1229,-18.117 L 22.2187,-18.0924  L 22.3038,-18.0587 L 22.3958,-18.0223 L 22.4824,-17.9747 L 22.5627,-17.9306 L 22.6368,-17.8767 L 22.7168,-17.8186  L 22.7835,-17.7559 L 22.8556,-17.6882 L 22.9186,-17.612 L 22.977,-17.5415 L 23.03,-17.458 L 23.0791,-17.3807  L 23.1181,-17.2978 L 23.1602,-17.2083 L 23.1907,-17.1143 L 23.219,-17.0272 L 23.2375,-16.93 L 23.2547,-16.8401  L 23.2605,-16.7487 L 23.2667,-16.65 L 23.2605,-16.5513 L 23.2547,-16.4599 L 23.2362,-16.3628 L 23.219,-16.2728  L 23.1907,-16.1857 L 23.1602,-16.0917 L 23.1181,-16.0022 L 23.0791,-15.9193 L 23.03,-15.842 L 22.977,-15.7585  L 22.9186,-15.688 L 22.8556,-15.6118 L 22.7835,-15.5441 L 22.7168,-15.4814 L 22.6368,-15.4233 L 22.5627,-15.3694  L 22.4824,-15.3253 L 22.3958,-15.2777 L 22.3038,-15.2413 L 22.2187,-15.2076 L 22.1229,-15.183 L 22.0342,-15.1602  L 21.9433,-15.1487 L 21.8452,-15.1363 L 21.6548,-15.1363 L 21.5567,-15.1487 L 21.4658,-15.1602 L 21.3771,-15.183  L 21.2813,-15.2076 L 21.1962,-15.2413 L 21.1042,-15.2777 L 21.0176,-15.3253 L 20.9373,-15.3694 L 20.8632,-15.4233  L 20.7832,-15.4814 L 20.7165,-15.5441 L 20.6444,-15.6118 L 20.5814,-15.688 L 20.523,-15.7585 L 20.47,-15.842  L 20.4209,-15.9193 L 20.3819,-16.0022 L 20.3398,-16.0917 L 20.3093,-16.1857 L 20.281,-16.2728 L 20.2638,-16.3628  L 20.2453,-16.4599 L 20.2391,-16.5586 z "
     stroke="black"
     fill="lightgray"
     stroke-width="0.5"
     id="path4"
     style="stroke-width:0.02645833;stroke-miterlimit:4;stroke-dasharray:none" />
  <metadata
     id="metadata827">
    <rdf:RDF>
      <cc:Work
         rdf:about="">
        <dc:title>OpenSCAD Model</dc:title>
      </cc:Work>
    </rdf:RDF>
  </metadata>
</svg>
