<?xml version="1.0" encoding="UTF-8" standalone="no"?>
<svg
   width="47.906998mm"
   height="29.398951mm"
   viewBox="0 0 47.906998 29.398951"
   version="1.1"
   id="svg8"
   inkscape:version="1.1.2 (0a00cf5339, 2022-02-04)"
   sodipodi:docname="Sticker.svg"
   xmlns:inkscape="http://www.inkscape.org/namespaces/inkscape"
   xmlns:sodipodi="http://sodipodi.sourceforge.net/DTD/sodipodi-0.dtd"
   xmlns="http://www.w3.org/2000/svg"
   xmlns:svg="http://www.w3.org/2000/svg"
   xmlns:rdf="http://www.w3.org/1999/02/22-rdf-syntax-ns#"
   xmlns:cc="http://creativecommons.org/ns#"
   xmlns:dc="http://purl.org/dc/elements/1.1/">
  <defs
     id="defs2" />
  <sodipodi:namedview
     id="base"
     pagecolor="#ffffff"
     bordercolor="#666666"
     borderopacity="1.0"
     inkscape:pageopacity="0.0"
     inkscape:pageshadow="2"
     inkscape:zoom="1.5380055"
     inkscape:cx="-78.023126"
     inkscape:cy="102.40535"
     inkscape:document-units="mm"
     inkscape:current-layer="g10957"
     inkscape:document-rotation="0"
     showgrid="false"
     lock-margins="true"
     fit-margin-top="3"
     fit-margin-left="3"
     fit-margin-right="3"
     fit-margin-bottom="3"
     inkscape:window-width="1846"
     inkscape:window-height="1016"
     inkscape:window-x="74"
     inkscape:window-y="27"
     inkscape:window-maximized="1"
     inkscape:pagecheckerboard="true" />
  <metadata
     id="metadata5">
    <rdf:RDF>
      <cc:Work
         rdf:about="">
        <dc:format>image/svg+xml</dc:format>
        <dc:type
           rdf:resource="http://purl.org/dc/dcmitype/StillImage" />
      </cc:Work>
    </rdf:RDF>
  </metadata>
  <g
     inkscape:label="podtisk"
     inkscape:groupmode="layer"
     id="g10957"
     transform="translate(-27.702604,-49.41022)"
     style="display:inline"
     sodipodi:insensitive="true">
    <path
       id="path10791"
       style="fill:#ffffff;fill-opacity:1;stroke:none;stroke-width:0;stroke-miterlimit:4;stroke-dasharray:none"
       d="m 18.677734,15.337891 c -2.093858,0 -3.779297,1.685438 -3.779296,3.779297 v 79.371093 c 0,2.093859 1.685438,3.779299 3.779296,3.779299 H 166.07812 c 2.09386,0 3.7793,-1.68544 3.7793,-3.779299 V 19.117188 c 0,-2.093859 -1.68544,-3.779297 -3.7793,-3.779297 z m 84.705076,64.535156 c 2.84025,-1.96e-4 5.14277,2.302329 5.14258,5.142578 1.9e-4,2.840249 -2.30233,5.142774 -5.14258,5.142578 -2.84025,1.94e-4 -5.142771,-2.302331 -5.142576,-5.142578 -1.95e-4,-2.840247 2.302326,-5.142772 5.142576,-5.142578 z m -37.863279,0.0078 a 5.1422256,5.1422256 0 0 1 5.142578,5.142579 5.1422256,5.1422256 0 0 1 -5.142578,5.142578 5.1422256,5.1422256 0 0 1 -5.142578,-5.142578 5.1422256,5.1422256 0 0 1 5.142578,-5.142579 z"
       transform="matrix(0.26458333,0,0,0.26458333,27.155895,48.609699)" />
  </g>
  <g
     inkscape:label="motiv"
     inkscape:groupmode="layer"
     id="layer1"
     transform="translate(-27.702604,-49.41022)"
     style="display:inline"
     sodipodi:insensitive="true">
    <path
       id="rect833-0"
       style="fill:#404040;fill-opacity:1;stroke:none;stroke-width:0;stroke-miterlimit:4;stroke-dasharray:none"
       d="m 18.677734,15.337891 c -2.093858,0 -3.779297,1.685438 -3.779296,3.779297 v 79.371093 c 0,2.093859 1.685438,3.779299 3.779296,3.779299 H 166.07812 c 2.09386,0 3.7793,-1.68544 3.7793,-3.779299 V 19.117188 c 0,-2.093859 -1.68544,-3.779297 -3.7793,-3.779297 z m 84.705076,64.535156 c 2.84025,-1.96e-4 5.14277,2.302329 5.14258,5.142578 1.9e-4,2.840249 -2.30233,5.142774 -5.14258,5.142578 -2.84025,1.94e-4 -5.142771,-2.302331 -5.142576,-5.142578 -1.95e-4,-2.840247 2.302326,-5.142772 5.142576,-5.142578 z m -37.863279,0.0078 a 5.1422256,5.1422256 0 0 1 5.142578,5.142579 5.1422256,5.1422256 0 0 1 -5.142578,5.142578 5.1422256,5.1422256 0 0 1 -5.142578,-5.142578 5.1422256,5.1422256 0 0 1 5.142578,-5.142579 z"
       transform="matrix(0.26458333,0,0,0.26458333,27.155895,48.609699)" />
    <g
       id="g932"
       transform="matrix(1.3730368,0,0,1.3730368,-19.096117,-24.457332)"
       style="stroke-width:0.828443">
      <g
         id="g12"
         transform="matrix(0.00554209,0,0,-0.00554209,41.283573,68.12625)"
         style="stroke-width:0.828443">
        <path
           d="M 311.844,989.344 H 204.266 v 67.376 H 488.973 V 989.344 H 381.391 V 676.391 h -69.547 v 312.953"
           style="fill:#ffffff;fill-opacity:1;fill-rule:nonzero;stroke:none;stroke-width:0.828443"
           id="path14"
           inkscape:connector-curvature="0" />
        <path
           d="m 527.977,1056.72 h 69.539 V 906.219 h 173.855 v 150.501 h 69.555 V 676.391 H 771.371 V 841.016 H 597.516 V 676.391 h -69.539 v 380.329"
           style="fill:#ffffff;fill-opacity:1;fill-rule:nonzero;stroke:none;stroke-width:0.828443"
           id="path16"
           inkscape:connector-curvature="0" />
        <path
           d="m 952.953,714.148 c -26.441,30.247 -39.656,71.993 -39.656,125.235 V 1056.72 H 982.84 V 857.313 c 0,-26.446 2.351,-48.446 7.058,-66.004 4.707,-17.579 13.492,-31.243 26.362,-41.028 12.85,-9.773 31.05,-14.668 54.61,-14.668 23.52,0 41.73,4.895 54.58,14.668 12.86,9.785 21.66,23.449 26.36,41.028 4.71,17.558 7.06,39.558 7.06,66.004 v 199.407 h 69.54 V 839.383 c 0,-53.242 -13.22,-94.988 -39.64,-125.235 -26.46,-30.238 -65.76,-45.359 -117.9,-45.359 -52.17,0 -91.479,15.121 -117.917,45.359"
           style="fill:#ffffff;fill-opacity:1;fill-rule:nonzero;stroke:none;stroke-width:0.828443"
           id="path18"
           inkscape:connector-curvature="0" />
        <path
           d="m 1300.79,1056.72 h 68.45 L 1531.7,811.133 v 245.587 h 69.54 V 676.391 h -57.05 L 1370.33,937.176 V 676.391 h -69.54 v 380.329"
           style="fill:#ffffff;fill-opacity:1;fill-rule:nonzero;stroke:none;stroke-width:0.828443"
           id="path20"
           inkscape:connector-curvature="0" />
        <path
           d="m 1819.42,738.328 c 36.22,0 63.84,11.309 82.86,33.965 19.01,22.629 28.53,54.062 28.53,94.258 0,40.207 -9.52,71.633 -28.53,94.269 -19.02,22.625 -46.64,33.953 -82.86,33.953 h -72.8 V 738.328 Z m -142.34,318.392 h 142.34 c 36.22,0 68.54,-7.61 96.99,-22.83 28.43,-15.21 50.61,-37.132 66.55,-65.738 15.94,-28.621 23.91,-62.48 23.91,-101.601 0,-39.11 -7.97,-72.988 -23.91,-101.602 -15.94,-28.621 -38.12,-50.527 -66.55,-65.738 -28.45,-15.223 -60.77,-22.82 -96.99,-22.82 h -142.34 v 380.329"
           style="fill:#ffffff;fill-opacity:1;fill-rule:nonzero;stroke:none;stroke-width:0.828443"
           id="path22"
           inkscape:connector-curvature="0" />
        <path
           d="m 2061.58,1056.72 h 243.4 v -67.376 h -172.23 v -80.957 h 133.66 v -67.371 h -133.66 v -97.258 h 177.68 v -67.367 h -248.85 v 380.329"
           style="fill:#ffffff;fill-opacity:1;fill-rule:nonzero;stroke:none;stroke-width:0.828443"
           id="path24"
           inkscape:connector-curvature="0" />
        <path
           d="m 2486.01,875.789 c 51.08,0 76.61,20.656 76.61,61.934 0,19.922 -5.8,35.05 -17.38,45.371 -11.59,10.324 -30.43,15.488 -56.51,15.488 h -53.78 V 875.789 Z M 2365.4,1056.72 h 139.09 c 40.55,0 72.54,-9.7 95.9,-29.08 23.37,-19.37 35.05,-48.081 35.05,-86.109 0,-26.445 -5.63,-48.086 -16.85,-64.929 -11.24,-16.836 -27.17,-30.332 -47.81,-40.469 l 85.85,-159.742 h -77.71 l -73.35,141.265 h -2.71 -67.91 V 676.391 h -69.55 v 380.329"
           style="fill:#ffffff;fill-opacity:1;fill-rule:nonzero;stroke:none;stroke-width:0.828443"
           id="path26"
           inkscape:connector-curvature="0" />
        <path
           d="m 2748.99,1056.72 h 225.47 l -11.95,-67.376 h -155.4 l -14.66,-80.957 h 120.62 l -11.96,-67.371 H 2780.49 L 2751.7,676.391 h -69.55 l 66.84,380.329"
           style="fill:#ffffff;fill-opacity:1;fill-rule:nonzero;stroke:none;stroke-width:0.828443"
           id="path28"
           inkscape:connector-curvature="0" />
        <path
           d="m 3020.79,1056.72 h 69.54 l -54.89,-312.962 h 131.26 l -11.95,-67.367 h -200.8 l 66.84,380.329"
           style="fill:#ffffff;fill-opacity:1;fill-rule:nonzero;stroke:none;stroke-width:0.828443"
           id="path30"
           inkscape:connector-curvature="0" />
        <path
           d="m 3259.63,844.813 -89.11,211.907 h 73.9 l 61.93,-152.13 113.02,152.13 h 73.89 l -164.08,-211.907 -29.9,-168.422 h -68.99 l 29.34,168.422"
           style="fill:#ffffff;fill-opacity:1;fill-rule:nonzero;stroke:none;stroke-width:0.828443"
           id="path32"
           inkscape:connector-curvature="0" />
        <path
           d="m 2667.32,586.172 h 69.54 L 2670.03,205.84 h -69.54 l 66.83,380.332"
           style="fill:#fab20b;fill-opacity:1;fill-rule:nonzero;stroke:none;stroke-width:0.828443"
           id="path34"
           inkscape:connector-curvature="0" />
        <path
           d="m 2939.83,586.172 h 69.55 L 2942.54,205.84 H 2873 l 66.83,380.332"
           style="fill:#fab20b;fill-opacity:1;fill-rule:nonzero;stroke:none;stroke-width:0.828443"
           id="path36"
           inkscape:connector-curvature="0" />
        <path
           d="m 3214.91,586.172 h 69.55 L 3217.62,205.84 h -69.54 l 66.83,380.332"
           style="fill:#fab20b;fill-opacity:1;fill-rule:nonzero;stroke:none;stroke-width:0.828443"
           id="path38"
           inkscape:connector-curvature="0" />
        <path
           d="m 2831.31,1528.05 h 69.55 l -66.83,-380.33 h -69.54 l 66.82,380.33"
           style="fill:#fab20b;fill-opacity:1;fill-rule:nonzero;stroke:none;stroke-width:0.828443"
           id="path40"
           inkscape:connector-curvature="0" />
        <path
           d="m 3103.78,1528.05 h 69.54 l -66.83,-380.33 h -69.55 l 66.84,380.33"
           style="fill:#fab20b;fill-opacity:1;fill-rule:nonzero;stroke:none;stroke-width:0.828443"
           id="path42"
           inkscape:connector-curvature="0" />
        <path
           d="m 3379.19,1528.05 h 69.56 l -66.84,-380.33 h -69.54 l 66.82,380.33"
           style="fill:#fab20b;fill-opacity:1;fill-rule:nonzero;stroke:none;stroke-width:0.828443"
           id="path44"
           inkscape:connector-curvature="0" />
      </g>
      <text
         xml:space="preserve"
         style="font-style:normal;font-weight:normal;font-size:2.82223px;line-height:1.25;font-family:sans-serif;letter-spacing:0px;fill:#000000;fill-opacity:1;stroke:none;stroke-width:0.219192"
         x="42.373299"
         y="66.945953"
         id="text893"><tspan
           sodipodi:role="line"
           id="tspan891"
           x="42.373299"
           y="66.945953"
           style="font-style:normal;font-variant:normal;font-weight:bold;font-stretch:normal;font-size:2.82223px;font-family:Cabin;-inkscape-font-specification:'Cabin Bold';fill:#a6a6a6;fill-opacity:1;stroke-width:0.219192">TFRPM01</tspan></text>
    </g>
    <text
       xml:space="preserve"
       style="font-style:normal;font-weight:normal;font-size:2.82222px;line-height:1.25;font-family:sans-serif;fill:#000000;fill-opacity:1;stroke:none;stroke-width:0.264583"
       x="62.074459"
       y="-34.769009"
       id="text936"
       transform="rotate(90)"><tspan
         sodipodi:role="line"
         id="tspan934"
         x="62.074459"
         y="-34.769009"
         style="font-style:normal;font-variant:normal;font-weight:normal;font-stretch:normal;font-size:2.82222px;font-family:Cabin;-inkscape-font-specification:Cabin;fill:#a6a6a6;fill-opacity:1;stroke-width:0.264583">I2C</tspan></text>
    <g
       id="g1068"
       transform="translate(1.5826335,-0.86927785)">
      <text
         xml:space="preserve"
         style="font-style:normal;font-weight:normal;font-size:2.82222px;line-height:1.25;font-family:sans-serif;fill:#000000;fill-opacity:1;stroke:none;stroke-width:0.264583"
         x="62.142624"
         y="-65.225433"
         id="text936-6"
         transform="rotate(90)"><tspan
           sodipodi:role="line"
           id="tspan934-7"
           x="62.142624"
           y="-65.225433"
           style="font-style:normal;font-variant:normal;font-weight:normal;font-stretch:normal;font-size:2.82222px;font-family:Cabin;-inkscape-font-specification:Cabin;fill:#a6a6a6;fill-opacity:1;stroke-width:0.264583">RPM</tspan></text>
      <g
         id="g1060"
         transform="matrix(1.1625313,0,0,1.1625313,-10.434998,-9.7442544)"
         style="stroke-width:0.860192">
        <path
           d="m 67.768778,62.605186 v 0.371381 h -0.112999 v -0.371381 z"
           style="font-style:normal;font-weight:normal;font-size:1.41111px;line-height:1.25;font-family:sans-serif;fill:#808080;fill-opacity:1;stroke:none;stroke-width:0.227592"
           id="path994"
           inkscape:connector-curvature="0" />
        <path
           d="m 68.154628,64.148506 h -0.383783 v 0.383784 h -0.117133 v -0.383784 h -0.383784 v -0.115755 h 0.383784 v -0.383783 h 0.117133 v 0.383783 h 0.383783 z"
           style="font-style:normal;font-weight:normal;font-size:1.41111px;line-height:1.25;font-family:sans-serif;fill:#808080;fill-opacity:1;stroke:none;stroke-width:0.227592"
           id="path996"
           inkscape:connector-curvature="0" />
        <path
           id="path994-6"
           style="font-style:normal;font-weight:normal;font-size:1.41111px;line-height:1.25;font-family:sans-serif;fill:#808080;fill-opacity:1;stroke:none;stroke-width:0.227592"
           d="m 67.481214,65.94745 v -0.264583 h 0.5753 v -0.106971 -0.371037 -0.113173 h -0.5753 v -0.258381 h -0.113171 v 0.371554 h 0.113171 0.462646 v 0.371037 h -0.462646 -0.113171 v 0.371554 z"
           sodipodi:nodetypes="ccccccccccccccccc"
           inkscape:connector-curvature="0" />
      </g>
    </g>
    <text
       xml:space="preserve"
       style="font-style:normal;font-weight:normal;font-size:2.11667px;line-height:1.25;font-family:sans-serif;fill:#000000;fill-opacity:1;stroke:none;stroke-width:0.264583"
       x="58.650066"
       y="-33.00053"
       id="text936-0"
       transform="rotate(90)"><tspan
         sodipodi:role="line"
         id="tspan934-9"
         x="58.650066"
         y="-33.00053"
         style="font-style:normal;font-variant:normal;font-weight:normal;font-stretch:normal;font-size:2.11667px;font-family:Cabin;-inkscape-font-specification:Cabin;fill:#808080;fill-opacity:1;stroke-width:0.264583"><tspan
           style="font-size:2.46944px"
           id="tspan2981">-</tspan><tspan
           style="font-size:1.76389px"
           id="tspan2977">  SDA  SCL  </tspan><tspan
           style="font-size:2.46944px"
           id="tspan2983">+</tspan></tspan></text>
    <text
       xml:space="preserve"
       style="font-style:normal;font-weight:normal;font-size:2.11667px;line-height:1.25;font-family:sans-serif;fill:#000000;fill-opacity:1;stroke:none;stroke-width:0.264583"
       x="56.944492"
       y="71.889359"
       id="text936-6-6-3-3"><tspan
         sodipodi:role="line"
         id="tspan934-7-3-6-6"
         x="56.944492"
         y="71.889359"
         style="font-style:normal;font-variant:normal;font-weight:normal;font-stretch:normal;font-size:2.11667px;font-family:Cabin;-inkscape-font-specification:Cabin;fill:#a6a6a6;fill-opacity:1;stroke-width:0.264583">Pulse</tspan></text>
    <g
       id="g922"
       transform="matrix(1.0698618,0,0,1,-3.0731198,-0.38176125)"
       style="stroke-width:0.966799">
      <path
         id="rect1092"
         style="fill:none;fill-opacity:1;stroke:#808080;stroke-width:0.14502;stroke-miterlimit:4;stroke-dasharray:none;stroke-opacity:1"
         d="M 36.266828,62.167004 V 59.19535 c 0,-0.687038 -0.553302,-1.24006 -1.240682,-1.24006 h -3.090089"
         inkscape:connector-curvature="0"
         sodipodi:nodetypes="cssc" />
      <path
         id="rect1092-3"
         style="fill:none;fill-opacity:1;stroke:#808080;stroke-width:0.14502;stroke-miterlimit:4;stroke-dasharray:none;stroke-opacity:1"
         d="m 36.266828,66.815917 v 2.971654 c 0,0.687038 -0.553302,1.24006 -1.240682,1.24006 h -3.090089"
         inkscape:connector-curvature="0"
         sodipodi:nodetypes="cssc" />
    </g>
    <text
       xml:space="preserve"
       style="font-style:normal;font-weight:normal;font-size:2.11667px;line-height:1.25;font-family:sans-serif;fill:#000000;fill-opacity:1;stroke:none;stroke-width:0.264583"
       x="46.945915"
       y="71.865562"
       id="text6357"><tspan
         sodipodi:role="line"
         id="tspan6355"
         x="46.945915"
         y="71.865562"
         style="font-style:normal;font-variant:normal;font-weight:normal;font-stretch:normal;font-size:2.11667px;font-family:Cabin;-inkscape-font-specification:Cabin;fill:#a6a6a6;fill-opacity:1;stroke-width:0.264583">PWR</tspan></text>
  </g>
  <g
     inkscape:groupmode="layer"
     id="layer2"
     inkscape:label="Obrys - orez"
     style="display:inline"
     transform="translate(-27.702604,-49.41022)"
     sodipodi:insensitive="true">
    <rect
       style="display:inline;fill:none;fill-opacity:1;stroke:#000000;stroke-width:0.0969978;stroke-miterlimit:4;stroke-dasharray:none;stroke-opacity:1"
       id="rect833-3-7"
       width="38.403004"
       height="19.903004"
       x="32.454391"
       y="54.158195"
       ry="0.48038733"
       rx="0.48963442" />
  </g>
  <g
     inkscape:groupmode="layer"
     id="layer3"
     inkscape:label="Obrys internal"
     style="display:none;mix-blend-mode:normal"
     transform="translate(-0.54670878,-0.80052178)"
     sodipodi:insensitive="true">
    <path
       d="m 4.7289868,5.8500072 6.73e-4,-0.0107 0.0062,-0.09849 0.018491,-0.09694 0.00201,-0.01054 0.00331,-0.0102 0.030496,-0.09386 0.00457,-0.0097 0.042019,-0.08929 0.00575,-0.0091 0.052879,-0.08332 0.062905,-0.07604 0.00684,-0.0083 0.071939,-0.06755 0.00782,-0.0073 0.079838,-0.05801 0.00868,-0.0063 0.0094,-0.0052 0.08648,-0.04754 0.091755,-0.03633 0.00997,-0.0039 0.010389,-0.0027 0.095586,-0.02454 0.010642,-0.0013 0.097907,-0.01237 H 43.454935 l 0.0979,0.01237 0.0107,0.0013 0.0955,0.02454 0.0104,0.0027 0.01,0.0039 0.0918,0.03633 0.0864,0.04754 0.0094,0.0052 0.0087,0.0063 0.0799,0.05801 0.0078,0.0073 0.0719,0.06755 0.0068,0.0083 0.063,0.07604 0.0528,0.08332 0.0058,0.0091 0.042,0.08929 0.0046,0.0097 0.0305,0.09386 0.0033,0.0102 0.002,0.01054 0.0185,0.09694 0.0062,0.09849 6e-4,0.0107 V 25.150008 l -6e-4,0.0107 -0.0062,0.0985 -0.0185,0.0969 -0.002,0.0106 -0.0033,0.0102 -0.0305,0.0938 -0.0046,0.0097 -0.042,0.0893 -0.0058,0.0091 -0.0528,0.0833 -0.063,0.076 -0.0068,0.0083 -0.0719,0.0676 -0.0078,0.0073 -0.0799,0.058 -0.0087,0.0063 -0.0094,0.0052 -0.0864,0.0475 -0.0918,0.0364 -0.01,0.0039 -0.0104,0.0027 -0.0955,0.0245 -0.0107,0.0014 -0.0979,0.0123 H 5.5455299 l -0.097907,-0.0123 -0.010642,-0.0014 -0.095586,-0.0245 -0.010389,-0.0027 -0.00997,-0.0039 -0.091755,-0.0364 -0.08648,-0.0475 -0.0094,-0.0052 -0.00868,-0.0063 -0.079838,-0.058 -0.00782,-0.0073 -0.071939,-0.0676 -0.00684,-0.0083 -0.062905,-0.076 -0.052879,-0.0833 -0.00575,-0.0091 -0.042019,-0.0893 -0.00457,-0.0097 -0.030496,-0.0938 -0.00331,-0.0102 -0.00201,-0.0106 -0.018491,-0.0969 -0.0062,-0.0985 -6.73e-4,-0.0107 z m 11.1045482,16.6500008 0.0058,0.0914 0.0062,0.0987 0.0172,0.0899 0.0185,0.0972 0.0283,0.0871 0.0305,0.094 0.0421,0.0895 0.039,0.0829 0.0491,0.0773 0.053,0.0835 0.0584,0.0705 0.063,0.0762 0.0721,0.0677 0.0667,0.0627 0.08,0.0581 0.0741,0.0539 0.0803,0.0441 0.0866,0.0476 0.092,0.0364 0.0851,0.0337 0.0958,0.0246 0.0887,0.0228 0.0909,0.0115 0.0981,0.0124 h 0.1904 l 0.0981,-0.0124 0.0909,-0.0115 0.0887,-0.0228 0.0958,-0.0246 0.0851,-0.0337 0.092,-0.0364 0.0866,-0.0476 0.0803,-0.0441 0.0741,-0.0539 0.08,-0.0581 0.0667,-0.0627 0.0721,-0.0677 0.063,-0.0762 0.0584,-0.0705 0.053,-0.0835 0.0491,-0.0773 0.039,-0.0829 0.0421,-0.0895 0.0305,-0.094 0.0283,-0.0871 0.0185,-0.0972 0.0172,-0.0899 0.0058,-0.0914 0.0062,-0.0987 -0.0062,-0.0987 -0.0058,-0.0914 -0.0185,-0.0971 -0.0172,-0.09 -0.0283,-0.0871 -0.0305,-0.094 -0.0421,-0.0895 -0.039,-0.0829 -0.0491,-0.0773 -0.053,-0.0835 -0.0584,-0.0705 -0.063,-0.0762 -0.0721,-0.0677 -0.0667,-0.0627 -0.08,-0.0581 -0.0741,-0.0539 -0.0803,-0.0441 -0.0866,-0.0476 -0.092,-0.0364 -0.0851,-0.0337 -0.0958,-0.0246 -0.0887,-0.0228 -0.0909,-0.0115 -0.0981,-0.0124 h -0.1904 l -0.0981,0.0124 -0.0909,0.0115 -0.0887,0.0228 -0.0958,0.0246 -0.0851,0.0337 -0.092,0.0364 -0.0866,0.0476 -0.0803,0.0441 -0.0741,0.0539 -0.08,0.0581 -0.0667,0.0627 -0.0721,0.0677 -0.063,0.0762 -0.0584,0.0705 -0.053,0.0835 -0.0491,0.0773 -0.039,0.0829 -0.0421,0.0895 -0.0305,0.094 -0.0283,0.0871 -0.0172,0.09 -0.0185,0.0971 -0.0062,0.0987 z m 8.4823,-8.775001 v 3.55 l 1.4289,0.825 1.6455,0.95 1.6455,-0.95 1.4289,-0.825 v -3.55 l -1.4289,-0.825 -1.6455,-0.95 -1.6455,0.95 z m 1.5177,8.775001 0.0058,0.0914 0.0062,0.0987 0.0172,0.0899 0.0185,0.0972 0.0283,0.0871 0.0305,0.094 0.0421,0.0895 0.039,0.0829 0.0491,0.0773 0.053,0.0835 0.0584,0.0705 0.063,0.0762 0.0721,0.0677 0.0667,0.0627 0.08,0.0581 0.0741,0.0539 0.0803,0.0441 0.0866,0.0476 0.092,0.0364 0.0851,0.0337 0.0958,0.0246 0.0887,0.0228 0.0909,0.0115 0.0981,0.0124 h 0.1904 l 0.0981,-0.0124 0.0909,-0.0115 0.0887,-0.0228 0.0958,-0.0246 0.0851,-0.0337 0.092,-0.0364 0.0866,-0.0476 0.0803,-0.0441 0.0741,-0.0539 0.08,-0.0581 0.0667,-0.0627 0.0721,-0.0677 0.063,-0.0762 0.0584,-0.0705 0.053,-0.0835 0.0491,-0.0773 0.039,-0.0829 0.0421,-0.0895 0.0305,-0.094 0.0283,-0.0871 0.0185,-0.0972 0.0172,-0.0899 0.0058,-0.0914 0.0062,-0.0987 -0.0062,-0.0987 -0.0058,-0.0914 -0.0185,-0.0971 -0.0172,-0.09 -0.0283,-0.0871 -0.0305,-0.094 -0.0421,-0.0895 -0.039,-0.0829 -0.0491,-0.0773 -0.053,-0.0835 -0.0584,-0.0705 -0.063,-0.0762 -0.0721,-0.0677 -0.0667,-0.0627 -0.08,-0.0581 -0.0741,-0.0539 -0.0803,-0.0441 -0.0866,-0.0476 -0.092,-0.0364 -0.0851,-0.0337 -0.0958,-0.0246 -0.0887,-0.0228 -0.0909,-0.0115 -0.0981,-0.0124 h -0.1904 l -0.0981,0.0124 -0.0909,0.0115 -0.0887,0.0228 -0.0958,0.0246 -0.0851,0.0337 -0.092,0.0364 -0.0866,0.0476 -0.0803,0.0441 -0.0741,0.0539 -0.08,0.0581 -0.0667,0.0627 -0.0721,0.0677 -0.063,0.0762 -0.0584,0.0705 -0.053,0.0835 -0.0491,0.0773 -0.039,0.0829 -0.0421,0.0895 -0.0305,0.094 -0.0283,0.0871 -0.0172,0.09 -0.0185,0.0971 -0.0062,0.0987 z"
       stroke="#000000"
       fill="#d3d3d3"
       stroke-width="0.5"
       id="path4"
       style="fill:#d3d3d3;fill-opacity:0.242306;stroke-width:0.0264583;stroke-miterlimit:4;stroke-dasharray:none"
       sodipodi:nodetypes="cccccccccccccccccccccccccccccccccccccccccccccccccccccccccccccccccccccccccccccccccccccccccccccccccccccccccccccccccccccccccccccccccccccccccccccccccccccccccccccccccccccccccccccccccccccccccccccccccccccccccccccccccccccccccccccccccccccccccccccccccccccccccccccccccccccccccccccccccccccccccccccccccccccccccccccccccccccc" />
    <path
       d="m 30.706103,54.459672 0.01617,-0.256932 0.04824,-0.252882 0.07955,-0.244841 0.109609,-0.232941 0.137951,-0.217363 0.1641,-0.198361 0.187661,-0.176231 0.20828,-0.151318 0.225592,-0.124021 0.239363,-0.09478 0.249354,-0.06402 0.25541,-0.03226 h 38.057409 l 0.2554,0.03226 0.24941,0.06402 0.2393,0.09478 0.22559,0.124021 0.20831,0.151318 0.18769,0.176231 0.1641,0.198361 0.1379,0.217363 0.10961,0.232941 0.0796,0.244841 0.0482,0.252882 0.0162,0.256932 v 19.3 l -0.0162,0.2569 -0.0482,0.2529 -0.0796,0.2449 -0.10961,0.2329 -0.1379,0.2174 -0.1641,0.1983 -0.18769,0.1763 -0.20831,0.1513 -0.22559,0.124 -0.2393,0.0948 -0.24941,0.064 -0.2554,0.0323 H 32.627383 l -0.25541,-0.0323 -0.249354,-0.064 -0.239363,-0.0948 -0.225592,-0.124 -0.20828,-0.1513 -0.187661,-0.1763 -0.1641,-0.1983 -0.137951,-0.2174 -0.109609,-0.2329 -0.07955,-0.2449 -0.04824,-0.2529 -0.01617,-0.2569 z m 12.434999,16.65 0.0075,0.1184 0.0033,0.0527 0.0098,0.0518 0.0223,0.1166 0.0367,0.1128 0.0163,0.0502 0.0505,0.1074 0.02241,0.0477 0.0283,0.0445 0.0636,0.1002 0.0336,0.0407 0.0757,0.0914 0.0865,0.0812 0.0384,0.0361 0.0427,0.0311 0.096,0.0697 0.104,0.0572 0.0462,0.0254 0.0491,0.0194 0.1103,0.0437 0.1149,0.0295 0.0511,0.0131 0.0524,0.0066 0.1177,0.0149 h 0.1714 l 0.117702,-0.0149 0.0524,-0.0066 0.0511,-0.0131 0.114898,-0.0295 0.110302,-0.0437 0.0491,-0.0194 0.0462,-0.0254 0.104002,-0.0572 0.096,-0.0697 0.0427,-0.0311 0.0384,-0.0361 0.0865,-0.0812 0.0757,-0.0914 0.0336,-0.0407 0.0636,-0.1002 0.0283,-0.0445 0.02241,-0.0477 0.0505,-0.1074 0.0163,-0.0502 0.0367,-0.1128 0.0223,-0.1166 0.0098,-0.0518 0.0033,-0.0527 0.0075,-0.1184 -0.0075,-0.1184 -0.0033,-0.0527 -0.0098,-0.0518 -0.0223,-0.1166 -0.0367,-0.1128 -0.0163,-0.0502 -0.0505,-0.1074 -0.02241,-0.0477 -0.0283,-0.0445 -0.0636,-0.1002 -0.0756,-0.0915 -0.0337,-0.0406 -0.0865,-0.0812 -0.0384,-0.0362 -0.0427,-0.031 -0.096,-0.0697 -0.104002,-0.0572 -0.0462,-0.0254 -0.0491,-0.0194 -0.110302,-0.0437 -0.114898,-0.0295 -0.0511,-0.0131 -0.0524,-0.0066 -0.117702,-0.0149 h -0.1714 l -0.1177,0.0149 -0.0524,0.0066 -0.0511,0.0131 -0.1149,0.0295 -0.1103,0.0437 -0.0491,0.0194 -0.0462,0.0254 -0.104,0.0572 -0.096,0.0697 -0.0427,0.031 -0.0384,0.0362 -0.0865,0.0812 -0.0337,0.0406 -0.0756,0.0915 -0.0636,0.1002 -0.0283,0.0445 -0.02241,0.0477 -0.0505,0.1074 -0.0163,0.0502 -0.0367,0.1128 -0.0223,0.1166 -0.0098,0.0518 -0.0033,0.0527 z m 10,0 0.007,0.1184 0.003,0.0527 0.01,0.0518 0.0223,0.1166 0.0367,0.1128 0.0163,0.0502 0.0505,0.1074 0.0224,0.0477 0.0283,0.0445 0.0636,0.1002 0.0336,0.0407 0.0757,0.0914 0.0865,0.0812 0.0384,0.0361 0.0427,0.0311 0.096,0.0697 0.104,0.0572 0.0462,0.0254 0.0491,0.0194 0.11029,0.0437 0.1149,0.0295 0.0511,0.0131 0.0524,0.0066 0.1177,0.0149 h 0.1714 l 0.1177,-0.0149 0.0524,-0.0066 0.0511,-0.0131 0.1149,-0.0295 0.1103,-0.0437 0.0491,-0.0194 0.0462,-0.0254 0.104,-0.0572 0.096,-0.0697 0.0427,-0.0311 0.0384,-0.0361 0.0865,-0.0812 0.0757,-0.0914 0.0336,-0.0407 0.0636,-0.1002 0.0283,-0.0445 0.0224,-0.0477 0.0505,-0.1074 0.0163,-0.0502 0.0367,-0.1128 0.0223,-0.1166 0.01,-0.0518 0.003,-0.0527 0.008,-0.1184 -0.008,-0.1184 -0.003,-0.0527 -0.01,-0.0518 -0.0223,-0.1166 -0.0367,-0.1128 -0.0163,-0.0502 -0.0505,-0.1074 -0.0224,-0.0477 -0.0283,-0.0445 -0.0636,-0.1002 -0.0756,-0.0915 -0.0337,-0.0406 -0.0865,-0.0812 -0.0384,-0.0362 -0.0427,-0.031 -0.096,-0.0697 -0.104,-0.0572 -0.0462,-0.0254 -0.0491,-0.0194 -0.1103,-0.0437 -0.1149,-0.0295 -0.0511,-0.0131 -0.0524,-0.0066 -0.1177,-0.0149 h -0.1714 l -0.1177,0.0149 -0.0524,0.0066 -0.0511,0.0131 -0.1149,0.0295 -0.11029,0.0437 -0.0491,0.0194 -0.0462,0.0254 -0.104,0.0572 -0.096,0.0697 -0.0427,0.031 -0.0384,0.0362 -0.0865,0.0812 -0.0337,0.0406 -0.0756,0.0915 -0.0636,0.1002 -0.0283,0.0445 -0.0224,0.0477 -0.0505,0.1074 -0.0163,0.0502 -0.0367,0.1128 -0.0223,0.1166 -0.01,0.0518 -0.003,0.0527 z"
       style="display:inline;fill:#d3d3d3;fill-opacity:0.202866;stroke:#000000;stroke-width:0.00700043;stroke-miterlimit:4;stroke-dasharray:none"
       id="path2498"
       sodipodi:nodetypes="ccccccccccccccccccccccccccccccccccccccccccccccccccccccccccccccccccccccccccccccccccccccccccccccccccccccccccccccccccccccccccccccccccccccccccccccccccccccccccccccccccccccccccccccccccccccccccccccccccccccccccccccccccccccccccccccccccccccccccccccccccccccccccc"
       transform="translate(-27.155894,-48.6097)" />
    <path
       d="m 4.7289868,5.8500072 6.73e-4,-0.0107 0.0062,-0.09849 0.018491,-0.09694 0.00201,-0.01054 0.00331,-0.0102 0.030496,-0.09386 0.00457,-0.0097 0.042019,-0.08929 0.00575,-0.0091 0.052879,-0.08332 0.062905,-0.07604 0.00684,-0.0083 0.071939,-0.06755 0.00782,-0.0073 0.079838,-0.05801 0.00868,-0.0063 0.0094,-0.0052 0.08648,-0.04754 0.091755,-0.03633 0.00997,-0.0039 0.010389,-0.0027 0.095586,-0.02454 0.010642,-0.0013 0.097907,-0.01237 H 43.454935 l 0.0979,0.01237 0.0107,0.0013 0.0955,0.02454 0.0104,0.0027 0.01,0.0039 0.0918,0.03633 0.0864,0.04754 0.0094,0.0052 0.0087,0.0063 0.0799,0.05801 0.0078,0.0073 0.0719,0.06755 0.0068,0.0083 0.063,0.07604 0.0528,0.08332 0.0058,0.0091 0.042,0.08929 0.0046,0.0097 0.0305,0.09386 0.0033,0.0102 0.002,0.01054 0.0185,0.09694 0.0062,0.09849 6e-4,0.0107 V 25.150008 l -6e-4,0.0107 -0.0062,0.0985 -0.0185,0.0969 -0.002,0.0106 -0.0033,0.0102 -0.0305,0.0938 -0.0046,0.0097 -0.042,0.0893 -0.0058,0.0091 -0.0528,0.0833 -0.063,0.076 -0.0068,0.0083 -0.0719,0.0676 -0.0078,0.0073 -0.0799,0.058 -0.0087,0.0063 -0.0094,0.0052 -0.0864,0.0475 -0.0918,0.0364 -0.01,0.0039 -0.0104,0.0027 -0.0955,0.0245 -0.0107,0.0014 -0.0979,0.0123 H 5.5455299 l -0.097907,-0.0123 -0.010642,-0.0014 -0.095586,-0.0245 -0.010389,-0.0027 -0.00997,-0.0039 -0.091755,-0.0364 -0.08648,-0.0475 -0.0094,-0.0052 -0.00868,-0.0063 -0.079838,-0.058 -0.00782,-0.0073 -0.071939,-0.0676 -0.00684,-0.0083 -0.062905,-0.076 -0.052879,-0.0833 -0.00575,-0.0091 -0.042019,-0.0893 -0.00457,-0.0097 -0.030496,-0.0938 -0.00331,-0.0102 -0.00201,-0.0106 -0.018491,-0.0969 -0.0062,-0.0985 -6.73e-4,-0.0107 z m 11.1045482,16.6500008 0.0058,0.0914 0.0062,0.0987 0.0172,0.0899 0.0185,0.0972 0.0283,0.0871 0.0305,0.094 0.0421,0.0895 0.039,0.0829 0.0491,0.0773 0.053,0.0835 0.0584,0.0705 0.063,0.0762 0.0721,0.0677 0.0667,0.0627 0.08,0.0581 0.0741,0.0539 0.0803,0.0441 0.0866,0.0476 0.092,0.0364 0.0851,0.0337 0.0958,0.0246 0.0887,0.0228 0.0909,0.0115 0.0981,0.0124 h 0.1904 l 0.0981,-0.0124 0.0909,-0.0115 0.0887,-0.0228 0.0958,-0.0246 0.0851,-0.0337 0.092,-0.0364 0.0866,-0.0476 0.0803,-0.0441 0.0741,-0.0539 0.08,-0.0581 0.0667,-0.0627 0.0721,-0.0677 0.063,-0.0762 0.0584,-0.0705 0.053,-0.0835 0.0491,-0.0773 0.039,-0.0829 0.0421,-0.0895 0.0305,-0.094 0.0283,-0.0871 0.0185,-0.0972 0.0172,-0.0899 0.0058,-0.0914 0.0062,-0.0987 -0.0062,-0.0987 -0.0058,-0.0914 -0.0185,-0.0971 -0.0172,-0.09 -0.0283,-0.0871 -0.0305,-0.094 -0.0421,-0.0895 -0.039,-0.0829 -0.0491,-0.0773 -0.053,-0.0835 -0.0584,-0.0705 -0.063,-0.0762 -0.0721,-0.0677 -0.0667,-0.0627 -0.08,-0.0581 -0.0741,-0.0539 -0.0803,-0.0441 -0.0866,-0.0476 -0.092,-0.0364 -0.0851,-0.0337 -0.0958,-0.0246 -0.0887,-0.0228 -0.0909,-0.0115 -0.0981,-0.0124 h -0.1904 l -0.0981,0.0124 -0.0909,0.0115 -0.0887,0.0228 -0.0958,0.0246 -0.0851,0.0337 -0.092,0.0364 -0.0866,0.0476 -0.0803,0.0441 -0.0741,0.0539 -0.08,0.0581 -0.0667,0.0627 -0.0721,0.0677 -0.063,0.0762 -0.0584,0.0705 -0.053,0.0835 -0.0491,0.0773 -0.039,0.0829 -0.0421,0.0895 -0.0305,0.094 -0.0283,0.0871 -0.0172,0.09 -0.0185,0.0971 -0.0062,0.0987 z m 10,0 0.0058,0.0914 0.0062,0.0987 0.0172,0.0899 0.0185,0.0972 0.0283,0.0871 0.0305,0.094 0.0421,0.0895 0.039,0.0829 0.0491,0.0773 0.053,0.0835 0.0584,0.0705 0.063,0.0762 0.0721,0.0677 0.0667,0.0627 0.08,0.0581 0.0741,0.0539 0.0803,0.0441 0.0866,0.0476 0.092,0.0364 0.0851,0.0337 0.0958,0.0246 0.0887,0.0228 0.0909,0.0115 0.0981,0.0124 h 0.1904 l 0.0981,-0.0124 0.0909,-0.0115 0.0887,-0.0228 0.0958,-0.0246 0.0851,-0.0337 0.092,-0.0364 0.0866,-0.0476 0.0803,-0.0441 0.0741,-0.0539 0.08,-0.0581 0.0667,-0.0627 0.0721,-0.0677 0.063,-0.0762 0.0584,-0.0705 0.053,-0.0835 0.0491,-0.0773 0.039,-0.0829 0.0421,-0.0895 0.0305,-0.094 0.0283,-0.0871 0.0185,-0.0972 0.0172,-0.0899 0.0058,-0.0914 0.0062,-0.0987 -0.0062,-0.0987 -0.0058,-0.0914 -0.0185,-0.0971 -0.0172,-0.09 -0.0283,-0.0871 -0.0305,-0.094 -0.0421,-0.0895 -0.039,-0.0829 -0.0491,-0.0773 -0.053,-0.0835 -0.0584,-0.0705 -0.063,-0.0762 -0.0721,-0.0677 -0.0667,-0.0627 -0.08,-0.0581 -0.0741,-0.0539 -0.0803,-0.0441 -0.0866,-0.0476 -0.092,-0.0364 -0.0851,-0.0337 -0.0958,-0.0246 -0.0887,-0.0228 -0.0909,-0.0115 -0.0981,-0.0124 h -0.1904 l -0.0981,0.0124 -0.0909,0.0115 -0.0887,0.0228 -0.0958,0.0246 -0.0851,0.0337 -0.092,0.0364 -0.0866,0.0476 -0.0803,0.0441 -0.0741,0.0539 -0.08,0.0581 -0.0667,0.0627 -0.0721,0.0677 -0.063,0.0762 -0.0584,0.0705 -0.053,0.0835 -0.0491,0.0773 -0.039,0.0829 -0.0421,0.0895 -0.0305,0.094 -0.0283,0.0871 -0.0172,0.09 -0.0185,0.0971 -0.0062,0.0987 z"
       stroke="#000000"
       fill="#d3d3d3"
       stroke-width="0.5"
       id="path1710"
       style="fill:#d3d3d3;fill-opacity:0.242306;stroke-width:0.0264583;stroke-miterlimit:4;stroke-dasharray:none"
       sodipodi:nodetypes="ccccccccccccccccccccccccccccccccccccccccccccccccccccccccccccccccccccccccccccccccccccccccccccccccccccccccccccccccccccccccccccccccccccccccccccccccccccccccccccccccccccccccccccccccccccccccccccccccccccccccccccccccccccccccccccccccccccccccccccccccccccccccccccccccccccccccccccccccccccccccccccccccccccccccccc" />
    <circle
       style="fill:#d3d3d3;fill-opacity:0.650728;stroke-width:0.0355461;stroke-linecap:round;stroke-linejoin:round;stroke-miterlimit:4;stroke-dasharray:none;stroke-dashoffset:0.302362"
       id="path8565"
       cx="17.349375"
       cy="22.502401"
       r="1.3605472" />
  </g>
  <g
     inkscape:groupmode="layer"
     id="layer4"
     inkscape:label="Overeni"
     style="display:none"
     transform="translate(-0.54670878,-0.80052178)"
     sodipodi:insensitive="true" />
</svg>
