G04 #@! TF.GenerationSoftware,KiCad,Pcbnew,(5.99.0-494-g9b7d4e274)*
G04 #@! TF.CreationDate,2020-06-15T11:42:29+02:00*
G04 #@! TF.ProjectId,TFRPM01B,54465250-4d30-4314-922e-6b696361645f,REV*
G04 #@! TF.SameCoordinates,Original*
G04 #@! TF.FileFunction,Soldermask,Bot*
G04 #@! TF.FilePolarity,Negative*
%FSLAX46Y46*%
G04 Gerber Fmt 4.6, Leading zero omitted, Abs format (unit mm)*
G04 Created by KiCad (PCBNEW (5.99.0-494-g9b7d4e274)) date 2020-06-15 11:42:29*
%MOMM*%
%LPD*%
G04 APERTURE LIST*
%ADD10C,3.100000*%
%ADD11R,1.450000X1.900000*%
%ADD12O,1.009600X3.900000*%
%ADD13R,0.800000X1.050000*%
%ADD14O,2.100000X2.100000*%
%ADD15R,2.100000X2.100000*%
%ADD16R,1.460000X1.050000*%
%ADD17C,6.400000*%
%ADD18R,2.100000X1.700000*%
%ADD19R,1.797000X1.289000*%
%ADD20R,1.289000X1.797000*%
G04 APERTURE END LIST*
D10*
G04 #@! TO.C,D2*
X132874000Y-139697096D03*
D11*
X134874000Y-139697096D03*
X130874000Y-139697096D03*
G04 #@! TD*
D12*
G04 #@! TO.C,U1*
X126238000Y-139236000D03*
X124968000Y-139236000D03*
X123698000Y-139236000D03*
X122423000Y-139236000D03*
X122428000Y-131568000D03*
X123698000Y-131568000D03*
X124968000Y-131568000D03*
X126238000Y-131568000D03*
G04 #@! TD*
D13*
G04 #@! TO.C,U2*
X139050000Y-140650000D03*
X140350000Y-140650000D03*
X139700000Y-138750000D03*
X140350000Y-138750000D03*
X139050000Y-138750000D03*
G04 #@! TD*
D14*
G04 #@! TO.C,J1*
X138303000Y-129791096D03*
X138303000Y-132331096D03*
D15*
X138303000Y-134871096D03*
G04 #@! TD*
G04 #@! TO.C,C6*
G36*
X137371269Y-138773819D02*
G01*
X137467139Y-138829169D01*
X137538296Y-138913971D01*
X137581000Y-139073346D01*
X137581000Y-139710846D01*
X137561777Y-139819865D01*
X137506427Y-139915735D01*
X137421625Y-139986892D01*
X137262250Y-140029596D01*
X136549750Y-140029596D01*
X136440731Y-140010373D01*
X136344861Y-139955023D01*
X136273704Y-139870221D01*
X136231000Y-139710846D01*
X136231000Y-139073346D01*
X136250223Y-138964327D01*
X136305573Y-138868457D01*
X136390375Y-138797300D01*
X136549750Y-138754596D01*
X137262250Y-138754596D01*
X137371269Y-138773819D01*
G37*
G36*
X137371269Y-140348819D02*
G01*
X137467139Y-140404169D01*
X137538296Y-140488971D01*
X137581000Y-140648346D01*
X137581000Y-141285846D01*
X137561777Y-141394865D01*
X137506427Y-141490735D01*
X137421625Y-141561892D01*
X137262250Y-141604596D01*
X136549750Y-141604596D01*
X136440731Y-141585373D01*
X136344861Y-141530023D01*
X136273704Y-141445221D01*
X136231000Y-141285846D01*
X136231000Y-140648346D01*
X136250223Y-140539327D01*
X136305573Y-140443457D01*
X136390375Y-140372300D01*
X136549750Y-140329596D01*
X137262250Y-140329596D01*
X137371269Y-140348819D01*
G37*
G04 #@! TD*
G04 #@! TO.C,C5*
G36*
X128735269Y-128388223D02*
G01*
X128831139Y-128443573D01*
X128902296Y-128528375D01*
X128945000Y-128687750D01*
X128945000Y-129325250D01*
X128925777Y-129434269D01*
X128870427Y-129530139D01*
X128785625Y-129601296D01*
X128626250Y-129644000D01*
X127913750Y-129644000D01*
X127804731Y-129624777D01*
X127708861Y-129569427D01*
X127637704Y-129484625D01*
X127595000Y-129325250D01*
X127595000Y-128687750D01*
X127614223Y-128578731D01*
X127669573Y-128482861D01*
X127754375Y-128411704D01*
X127913750Y-128369000D01*
X128626250Y-128369000D01*
X128735269Y-128388223D01*
G37*
G36*
X128735269Y-129963223D02*
G01*
X128831139Y-130018573D01*
X128902296Y-130103375D01*
X128945000Y-130262750D01*
X128945000Y-130900250D01*
X128925777Y-131009269D01*
X128870427Y-131105139D01*
X128785625Y-131176296D01*
X128626250Y-131219000D01*
X127913750Y-131219000D01*
X127804731Y-131199777D01*
X127708861Y-131144427D01*
X127637704Y-131059625D01*
X127595000Y-130900250D01*
X127595000Y-130262750D01*
X127614223Y-130153731D01*
X127669573Y-130057861D01*
X127754375Y-129986704D01*
X127913750Y-129944000D01*
X128626250Y-129944000D01*
X128735269Y-129963223D01*
G37*
G04 #@! TD*
G04 #@! TO.C,J3*
G36*
X113507707Y-133007204D02*
G01*
X113612976Y-133067980D01*
X113691109Y-133161096D01*
X113738000Y-133336096D01*
X113738000Y-134036096D01*
X113716892Y-134155803D01*
X113656116Y-134261072D01*
X113563000Y-134339205D01*
X113388000Y-134386096D01*
X110988000Y-134386096D01*
X110868293Y-134364988D01*
X110763024Y-134304212D01*
X110684891Y-134211096D01*
X110638000Y-134036096D01*
X110638000Y-133336096D01*
X110659108Y-133216389D01*
X110719884Y-133111120D01*
X110813000Y-133032987D01*
X110988000Y-132986096D01*
X113388000Y-132986096D01*
X113507707Y-133007204D01*
G37*
G36*
X113507707Y-140457204D02*
G01*
X113612976Y-140517980D01*
X113691109Y-140611096D01*
X113738000Y-140786096D01*
X113738000Y-141486096D01*
X113716892Y-141605803D01*
X113656116Y-141711072D01*
X113563000Y-141789205D01*
X113388000Y-141836096D01*
X110988000Y-141836096D01*
X110868293Y-141814988D01*
X110763024Y-141754212D01*
X110684891Y-141661096D01*
X110638000Y-141486096D01*
X110638000Y-140786096D01*
X110659108Y-140666389D01*
X110719884Y-140561120D01*
X110813000Y-140482987D01*
X110988000Y-140436096D01*
X113388000Y-140436096D01*
X113507707Y-140457204D01*
G37*
G36*
X116283671Y-135055126D02*
G01*
X116364777Y-135109319D01*
X116418970Y-135190425D01*
X116438000Y-135286096D01*
X116438000Y-135786096D01*
X116418970Y-135881767D01*
X116364777Y-135962873D01*
X116283671Y-136017066D01*
X116188000Y-136036096D01*
X114588000Y-136036096D01*
X114492329Y-136017066D01*
X114411223Y-135962873D01*
X114357030Y-135881767D01*
X114338000Y-135786096D01*
X114338000Y-135286096D01*
X114357030Y-135190425D01*
X114411223Y-135109319D01*
X114492329Y-135055126D01*
X114588000Y-135036096D01*
X116188000Y-135036096D01*
X116283671Y-135055126D01*
G37*
G36*
X116283671Y-136305126D02*
G01*
X116364777Y-136359319D01*
X116418970Y-136440425D01*
X116438000Y-136536096D01*
X116438000Y-137036096D01*
X116418970Y-137131767D01*
X116364777Y-137212873D01*
X116283671Y-137267066D01*
X116188000Y-137286096D01*
X114588000Y-137286096D01*
X114492329Y-137267066D01*
X114411223Y-137212873D01*
X114357030Y-137131767D01*
X114338000Y-137036096D01*
X114338000Y-136536096D01*
X114357030Y-136440425D01*
X114411223Y-136359319D01*
X114492329Y-136305126D01*
X114588000Y-136286096D01*
X116188000Y-136286096D01*
X116283671Y-136305126D01*
G37*
G36*
X116283671Y-137555126D02*
G01*
X116364777Y-137609319D01*
X116418970Y-137690425D01*
X116438000Y-137786096D01*
X116438000Y-138286096D01*
X116418970Y-138381767D01*
X116364777Y-138462873D01*
X116283671Y-138517066D01*
X116188000Y-138536096D01*
X114588000Y-138536096D01*
X114492329Y-138517066D01*
X114411223Y-138462873D01*
X114357030Y-138381767D01*
X114338000Y-138286096D01*
X114338000Y-137786096D01*
X114357030Y-137690425D01*
X114411223Y-137609319D01*
X114492329Y-137555126D01*
X114588000Y-137536096D01*
X116188000Y-137536096D01*
X116283671Y-137555126D01*
G37*
G36*
X116283671Y-138805126D02*
G01*
X116364777Y-138859319D01*
X116418970Y-138940425D01*
X116438000Y-139036096D01*
X116438000Y-139536096D01*
X116418970Y-139631767D01*
X116364777Y-139712873D01*
X116283671Y-139767066D01*
X116188000Y-139786096D01*
X114588000Y-139786096D01*
X114492329Y-139767066D01*
X114411223Y-139712873D01*
X114357030Y-139631767D01*
X114338000Y-139536096D01*
X114338000Y-139036096D01*
X114357030Y-138940425D01*
X114411223Y-138859319D01*
X114492329Y-138805126D01*
X114588000Y-138786096D01*
X116188000Y-138786096D01*
X116283671Y-138805126D01*
G37*
G04 #@! TD*
D16*
G04 #@! TO.C,U3*
X126873000Y-126296096D03*
X126873000Y-124396096D03*
X124673000Y-124396096D03*
X124673000Y-125346096D03*
X124673000Y-126296096D03*
G04 #@! TD*
G04 #@! TO.C,R10*
G36*
X136520769Y-125325319D02*
G01*
X136616639Y-125380669D01*
X136687796Y-125465471D01*
X136730500Y-125624846D01*
X136730500Y-126337346D01*
X136711277Y-126446365D01*
X136655927Y-126542235D01*
X136571125Y-126613392D01*
X136411750Y-126656096D01*
X135774250Y-126656096D01*
X135665231Y-126636873D01*
X135569361Y-126581523D01*
X135498204Y-126496721D01*
X135455500Y-126337346D01*
X135455500Y-125624846D01*
X135474723Y-125515827D01*
X135530073Y-125419957D01*
X135614875Y-125348800D01*
X135774250Y-125306096D01*
X136411750Y-125306096D01*
X136520769Y-125325319D01*
G37*
G36*
X138095769Y-125325319D02*
G01*
X138191639Y-125380669D01*
X138262796Y-125465471D01*
X138305500Y-125624846D01*
X138305500Y-126337346D01*
X138286277Y-126446365D01*
X138230927Y-126542235D01*
X138146125Y-126613392D01*
X137986750Y-126656096D01*
X137349250Y-126656096D01*
X137240231Y-126636873D01*
X137144361Y-126581523D01*
X137073204Y-126496721D01*
X137030500Y-126337346D01*
X137030500Y-125624846D01*
X137049723Y-125515827D01*
X137105073Y-125419957D01*
X137189875Y-125348800D01*
X137349250Y-125306096D01*
X137986750Y-125306096D01*
X138095769Y-125325319D01*
G37*
G04 #@! TD*
G04 #@! TO.C,R8*
G36*
X133015769Y-125325319D02*
G01*
X133111639Y-125380669D01*
X133182796Y-125465471D01*
X133225500Y-125624846D01*
X133225500Y-126337346D01*
X133206277Y-126446365D01*
X133150927Y-126542235D01*
X133066125Y-126613392D01*
X132906750Y-126656096D01*
X132269250Y-126656096D01*
X132160231Y-126636873D01*
X132064361Y-126581523D01*
X131993204Y-126496721D01*
X131950500Y-126337346D01*
X131950500Y-125624846D01*
X131969723Y-125515827D01*
X132025073Y-125419957D01*
X132109875Y-125348800D01*
X132269250Y-125306096D01*
X132906750Y-125306096D01*
X133015769Y-125325319D01*
G37*
G36*
X131440769Y-125325319D02*
G01*
X131536639Y-125380669D01*
X131607796Y-125465471D01*
X131650500Y-125624846D01*
X131650500Y-126337346D01*
X131631277Y-126446365D01*
X131575927Y-126542235D01*
X131491125Y-126613392D01*
X131331750Y-126656096D01*
X130694250Y-126656096D01*
X130585231Y-126636873D01*
X130489361Y-126581523D01*
X130418204Y-126496721D01*
X130375500Y-126337346D01*
X130375500Y-125624846D01*
X130394723Y-125515827D01*
X130450073Y-125419957D01*
X130534875Y-125348800D01*
X130694250Y-125306096D01*
X131331750Y-125306096D01*
X131440769Y-125325319D01*
G37*
G04 #@! TD*
G04 #@! TO.C,R7*
G36*
X129434269Y-136250223D02*
G01*
X129530139Y-136305573D01*
X129601296Y-136390375D01*
X129644000Y-136549750D01*
X129644000Y-137262250D01*
X129624777Y-137371269D01*
X129569427Y-137467139D01*
X129484625Y-137538296D01*
X129325250Y-137581000D01*
X128687750Y-137581000D01*
X128578731Y-137561777D01*
X128482861Y-137506427D01*
X128411704Y-137421625D01*
X128369000Y-137262250D01*
X128369000Y-136549750D01*
X128388223Y-136440731D01*
X128443573Y-136344861D01*
X128528375Y-136273704D01*
X128687750Y-136231000D01*
X129325250Y-136231000D01*
X129434269Y-136250223D01*
G37*
G36*
X131009269Y-136250223D02*
G01*
X131105139Y-136305573D01*
X131176296Y-136390375D01*
X131219000Y-136549750D01*
X131219000Y-137262250D01*
X131199777Y-137371269D01*
X131144427Y-137467139D01*
X131059625Y-137538296D01*
X130900250Y-137581000D01*
X130262750Y-137581000D01*
X130153731Y-137561777D01*
X130057861Y-137506427D01*
X129986704Y-137421625D01*
X129944000Y-137262250D01*
X129944000Y-136549750D01*
X129963223Y-136440731D01*
X130018573Y-136344861D01*
X130103375Y-136273704D01*
X130262750Y-136231000D01*
X130900250Y-136231000D01*
X131009269Y-136250223D01*
G37*
G04 #@! TD*
G04 #@! TO.C,R6*
G36*
X133015769Y-123420319D02*
G01*
X133111639Y-123475669D01*
X133182796Y-123560471D01*
X133225500Y-123719846D01*
X133225500Y-124432346D01*
X133206277Y-124541365D01*
X133150927Y-124637235D01*
X133066125Y-124708392D01*
X132906750Y-124751096D01*
X132269250Y-124751096D01*
X132160231Y-124731873D01*
X132064361Y-124676523D01*
X131993204Y-124591721D01*
X131950500Y-124432346D01*
X131950500Y-123719846D01*
X131969723Y-123610827D01*
X132025073Y-123514957D01*
X132109875Y-123443800D01*
X132269250Y-123401096D01*
X132906750Y-123401096D01*
X133015769Y-123420319D01*
G37*
G36*
X131440769Y-123420319D02*
G01*
X131536639Y-123475669D01*
X131607796Y-123560471D01*
X131650500Y-123719846D01*
X131650500Y-124432346D01*
X131631277Y-124541365D01*
X131575927Y-124637235D01*
X131491125Y-124708392D01*
X131331750Y-124751096D01*
X130694250Y-124751096D01*
X130585231Y-124731873D01*
X130489361Y-124676523D01*
X130418204Y-124591721D01*
X130375500Y-124432346D01*
X130375500Y-123719846D01*
X130394723Y-123610827D01*
X130450073Y-123514957D01*
X130534875Y-123443800D01*
X130694250Y-123401096D01*
X131331750Y-123401096D01*
X131440769Y-123420319D01*
G37*
G04 #@! TD*
G04 #@! TO.C,R5*
G36*
X119591269Y-140097723D02*
G01*
X119687139Y-140153073D01*
X119758296Y-140237875D01*
X119801000Y-140397250D01*
X119801000Y-141034750D01*
X119781777Y-141143769D01*
X119726427Y-141239639D01*
X119641625Y-141310796D01*
X119482250Y-141353500D01*
X118769750Y-141353500D01*
X118660731Y-141334277D01*
X118564861Y-141278927D01*
X118493704Y-141194125D01*
X118451000Y-141034750D01*
X118451000Y-140397250D01*
X118470223Y-140288231D01*
X118525573Y-140192361D01*
X118610375Y-140121204D01*
X118769750Y-140078500D01*
X119482250Y-140078500D01*
X119591269Y-140097723D01*
G37*
G36*
X119591269Y-138522723D02*
G01*
X119687139Y-138578073D01*
X119758296Y-138662875D01*
X119801000Y-138822250D01*
X119801000Y-139459750D01*
X119781777Y-139568769D01*
X119726427Y-139664639D01*
X119641625Y-139735796D01*
X119482250Y-139778500D01*
X118769750Y-139778500D01*
X118660731Y-139759277D01*
X118564861Y-139703927D01*
X118493704Y-139619125D01*
X118451000Y-139459750D01*
X118451000Y-138822250D01*
X118470223Y-138713231D01*
X118525573Y-138617361D01*
X118610375Y-138546204D01*
X118769750Y-138503500D01*
X119482250Y-138503500D01*
X119591269Y-138522723D01*
G37*
G04 #@! TD*
G04 #@! TO.C,R4*
G36*
X129751269Y-139335723D02*
G01*
X129847139Y-139391073D01*
X129918296Y-139475875D01*
X129961000Y-139635250D01*
X129961000Y-140272750D01*
X129941777Y-140381769D01*
X129886427Y-140477639D01*
X129801625Y-140548796D01*
X129642250Y-140591500D01*
X128929750Y-140591500D01*
X128820731Y-140572277D01*
X128724861Y-140516927D01*
X128653704Y-140432125D01*
X128611000Y-140272750D01*
X128611000Y-139635250D01*
X128630223Y-139526231D01*
X128685573Y-139430361D01*
X128770375Y-139359204D01*
X128929750Y-139316500D01*
X129642250Y-139316500D01*
X129751269Y-139335723D01*
G37*
G36*
X129751269Y-137760723D02*
G01*
X129847139Y-137816073D01*
X129918296Y-137900875D01*
X129961000Y-138060250D01*
X129961000Y-138697750D01*
X129941777Y-138806769D01*
X129886427Y-138902639D01*
X129801625Y-138973796D01*
X129642250Y-139016500D01*
X128929750Y-139016500D01*
X128820731Y-138997277D01*
X128724861Y-138941927D01*
X128653704Y-138857125D01*
X128611000Y-138697750D01*
X128611000Y-138060250D01*
X128630223Y-137951231D01*
X128685573Y-137855361D01*
X128770375Y-137784204D01*
X128929750Y-137741500D01*
X129642250Y-137741500D01*
X129751269Y-137760723D01*
G37*
G04 #@! TD*
G04 #@! TO.C,R3*
G36*
X122258269Y-129172819D02*
G01*
X122354139Y-129228169D01*
X122425296Y-129312971D01*
X122468000Y-129472346D01*
X122468000Y-130109846D01*
X122448777Y-130218865D01*
X122393427Y-130314735D01*
X122308625Y-130385892D01*
X122149250Y-130428596D01*
X121436750Y-130428596D01*
X121327731Y-130409373D01*
X121231861Y-130354023D01*
X121160704Y-130269221D01*
X121118000Y-130109846D01*
X121118000Y-129472346D01*
X121137223Y-129363327D01*
X121192573Y-129267457D01*
X121277375Y-129196300D01*
X121436750Y-129153596D01*
X122149250Y-129153596D01*
X122258269Y-129172819D01*
G37*
G36*
X122258269Y-127597819D02*
G01*
X122354139Y-127653169D01*
X122425296Y-127737971D01*
X122468000Y-127897346D01*
X122468000Y-128534846D01*
X122448777Y-128643865D01*
X122393427Y-128739735D01*
X122308625Y-128810892D01*
X122149250Y-128853596D01*
X121436750Y-128853596D01*
X121327731Y-128834373D01*
X121231861Y-128779023D01*
X121160704Y-128694221D01*
X121118000Y-128534846D01*
X121118000Y-127897346D01*
X121137223Y-127788327D01*
X121192573Y-127692457D01*
X121277375Y-127621300D01*
X121436750Y-127578596D01*
X122149250Y-127578596D01*
X122258269Y-127597819D01*
G37*
G04 #@! TD*
G04 #@! TO.C,R2*
G36*
X124163269Y-129172819D02*
G01*
X124259139Y-129228169D01*
X124330296Y-129312971D01*
X124373000Y-129472346D01*
X124373000Y-130109846D01*
X124353777Y-130218865D01*
X124298427Y-130314735D01*
X124213625Y-130385892D01*
X124054250Y-130428596D01*
X123341750Y-130428596D01*
X123232731Y-130409373D01*
X123136861Y-130354023D01*
X123065704Y-130269221D01*
X123023000Y-130109846D01*
X123023000Y-129472346D01*
X123042223Y-129363327D01*
X123097573Y-129267457D01*
X123182375Y-129196300D01*
X123341750Y-129153596D01*
X124054250Y-129153596D01*
X124163269Y-129172819D01*
G37*
G36*
X124163269Y-127597819D02*
G01*
X124259139Y-127653169D01*
X124330296Y-127737971D01*
X124373000Y-127897346D01*
X124373000Y-128534846D01*
X124353777Y-128643865D01*
X124298427Y-128739735D01*
X124213625Y-128810892D01*
X124054250Y-128853596D01*
X123341750Y-128853596D01*
X123232731Y-128834373D01*
X123136861Y-128779023D01*
X123065704Y-128694221D01*
X123023000Y-128534846D01*
X123023000Y-127897346D01*
X123042223Y-127788327D01*
X123097573Y-127692457D01*
X123182375Y-127621300D01*
X123341750Y-127578596D01*
X124054250Y-127578596D01*
X124163269Y-127597819D01*
G37*
G04 #@! TD*
G04 #@! TO.C,R1*
G36*
X138095769Y-123293319D02*
G01*
X138191639Y-123348669D01*
X138262796Y-123433471D01*
X138305500Y-123592846D01*
X138305500Y-124305346D01*
X138286277Y-124414365D01*
X138230927Y-124510235D01*
X138146125Y-124581392D01*
X137986750Y-124624096D01*
X137349250Y-124624096D01*
X137240231Y-124604873D01*
X137144361Y-124549523D01*
X137073204Y-124464721D01*
X137030500Y-124305346D01*
X137030500Y-123592846D01*
X137049723Y-123483827D01*
X137105073Y-123387957D01*
X137189875Y-123316800D01*
X137349250Y-123274096D01*
X137986750Y-123274096D01*
X138095769Y-123293319D01*
G37*
G36*
X136520769Y-123293319D02*
G01*
X136616639Y-123348669D01*
X136687796Y-123433471D01*
X136730500Y-123592846D01*
X136730500Y-124305346D01*
X136711277Y-124414365D01*
X136655927Y-124510235D01*
X136571125Y-124581392D01*
X136411750Y-124624096D01*
X135774250Y-124624096D01*
X135665231Y-124604873D01*
X135569361Y-124549523D01*
X135498204Y-124464721D01*
X135455500Y-124305346D01*
X135455500Y-123592846D01*
X135474723Y-123483827D01*
X135530073Y-123387957D01*
X135614875Y-123316800D01*
X135774250Y-123274096D01*
X136411750Y-123274096D01*
X136520769Y-123293319D01*
G37*
G04 #@! TD*
D17*
G04 #@! TO.C,M2*
X132588000Y-132331096D03*
G04 #@! TD*
G04 #@! TO.C,J2*
G36*
X113507707Y-122847204D02*
G01*
X113612976Y-122907980D01*
X113691109Y-123001096D01*
X113738000Y-123176096D01*
X113738000Y-123876096D01*
X113716892Y-123995803D01*
X113656116Y-124101072D01*
X113563000Y-124179205D01*
X113388000Y-124226096D01*
X110988000Y-124226096D01*
X110868293Y-124204988D01*
X110763024Y-124144212D01*
X110684891Y-124051096D01*
X110638000Y-123876096D01*
X110638000Y-123176096D01*
X110659108Y-123056389D01*
X110719884Y-122951120D01*
X110813000Y-122872987D01*
X110988000Y-122826096D01*
X113388000Y-122826096D01*
X113507707Y-122847204D01*
G37*
G36*
X113507707Y-130297204D02*
G01*
X113612976Y-130357980D01*
X113691109Y-130451096D01*
X113738000Y-130626096D01*
X113738000Y-131326096D01*
X113716892Y-131445803D01*
X113656116Y-131551072D01*
X113563000Y-131629205D01*
X113388000Y-131676096D01*
X110988000Y-131676096D01*
X110868293Y-131654988D01*
X110763024Y-131594212D01*
X110684891Y-131501096D01*
X110638000Y-131326096D01*
X110638000Y-130626096D01*
X110659108Y-130506389D01*
X110719884Y-130401120D01*
X110813000Y-130322987D01*
X110988000Y-130276096D01*
X113388000Y-130276096D01*
X113507707Y-130297204D01*
G37*
G36*
X116283671Y-124895126D02*
G01*
X116364777Y-124949319D01*
X116418970Y-125030425D01*
X116438000Y-125126096D01*
X116438000Y-125626096D01*
X116418970Y-125721767D01*
X116364777Y-125802873D01*
X116283671Y-125857066D01*
X116188000Y-125876096D01*
X114588000Y-125876096D01*
X114492329Y-125857066D01*
X114411223Y-125802873D01*
X114357030Y-125721767D01*
X114338000Y-125626096D01*
X114338000Y-125126096D01*
X114357030Y-125030425D01*
X114411223Y-124949319D01*
X114492329Y-124895126D01*
X114588000Y-124876096D01*
X116188000Y-124876096D01*
X116283671Y-124895126D01*
G37*
G36*
X116283671Y-126145126D02*
G01*
X116364777Y-126199319D01*
X116418970Y-126280425D01*
X116438000Y-126376096D01*
X116438000Y-126876096D01*
X116418970Y-126971767D01*
X116364777Y-127052873D01*
X116283671Y-127107066D01*
X116188000Y-127126096D01*
X114588000Y-127126096D01*
X114492329Y-127107066D01*
X114411223Y-127052873D01*
X114357030Y-126971767D01*
X114338000Y-126876096D01*
X114338000Y-126376096D01*
X114357030Y-126280425D01*
X114411223Y-126199319D01*
X114492329Y-126145126D01*
X114588000Y-126126096D01*
X116188000Y-126126096D01*
X116283671Y-126145126D01*
G37*
G36*
X116283671Y-127395126D02*
G01*
X116364777Y-127449319D01*
X116418970Y-127530425D01*
X116438000Y-127626096D01*
X116438000Y-128126096D01*
X116418970Y-128221767D01*
X116364777Y-128302873D01*
X116283671Y-128357066D01*
X116188000Y-128376096D01*
X114588000Y-128376096D01*
X114492329Y-128357066D01*
X114411223Y-128302873D01*
X114357030Y-128221767D01*
X114338000Y-128126096D01*
X114338000Y-127626096D01*
X114357030Y-127530425D01*
X114411223Y-127449319D01*
X114492329Y-127395126D01*
X114588000Y-127376096D01*
X116188000Y-127376096D01*
X116283671Y-127395126D01*
G37*
G36*
X116283671Y-128645126D02*
G01*
X116364777Y-128699319D01*
X116418970Y-128780425D01*
X116438000Y-128876096D01*
X116438000Y-129376096D01*
X116418970Y-129471767D01*
X116364777Y-129552873D01*
X116283671Y-129607066D01*
X116188000Y-129626096D01*
X114588000Y-129626096D01*
X114492329Y-129607066D01*
X114411223Y-129552873D01*
X114357030Y-129471767D01*
X114338000Y-129376096D01*
X114338000Y-128876096D01*
X114357030Y-128780425D01*
X114411223Y-128699319D01*
X114492329Y-128645126D01*
X114588000Y-128626096D01*
X116188000Y-128626096D01*
X116283671Y-128645126D01*
G37*
G04 #@! TD*
D18*
G04 #@! TO.C,D1*
X118110000Y-134338000D03*
X118110000Y-130838000D03*
G04 #@! TD*
G04 #@! TO.C,C4*
G36*
X122258269Y-123940319D02*
G01*
X122354139Y-123995669D01*
X122425296Y-124080471D01*
X122468000Y-124239846D01*
X122468000Y-124877346D01*
X122448777Y-124986365D01*
X122393427Y-125082235D01*
X122308625Y-125153392D01*
X122149250Y-125196096D01*
X121436750Y-125196096D01*
X121327731Y-125176873D01*
X121231861Y-125121523D01*
X121160704Y-125036721D01*
X121118000Y-124877346D01*
X121118000Y-124239846D01*
X121137223Y-124130827D01*
X121192573Y-124034957D01*
X121277375Y-123963800D01*
X121436750Y-123921096D01*
X122149250Y-123921096D01*
X122258269Y-123940319D01*
G37*
G36*
X122258269Y-125515319D02*
G01*
X122354139Y-125570669D01*
X122425296Y-125655471D01*
X122468000Y-125814846D01*
X122468000Y-126452346D01*
X122448777Y-126561365D01*
X122393427Y-126657235D01*
X122308625Y-126728392D01*
X122149250Y-126771096D01*
X121436750Y-126771096D01*
X121327731Y-126751873D01*
X121231861Y-126696523D01*
X121160704Y-126611721D01*
X121118000Y-126452346D01*
X121118000Y-125814846D01*
X121137223Y-125705827D01*
X121192573Y-125609957D01*
X121277375Y-125538800D01*
X121436750Y-125496096D01*
X122149250Y-125496096D01*
X122258269Y-125515319D01*
G37*
G04 #@! TD*
D19*
G04 #@! TO.C,C3*
X119253000Y-126616096D03*
X119253000Y-124711096D03*
G04 #@! TD*
D20*
G04 #@! TO.C,C2*
X141224000Y-127251096D03*
X139319000Y-127251096D03*
G04 #@! TD*
G04 #@! TO.C,C1*
G36*
X129243269Y-125057819D02*
G01*
X129339139Y-125113169D01*
X129410296Y-125197971D01*
X129453000Y-125357346D01*
X129453000Y-125994846D01*
X129433777Y-126103865D01*
X129378427Y-126199735D01*
X129293625Y-126270892D01*
X129134250Y-126313596D01*
X128421750Y-126313596D01*
X128312731Y-126294373D01*
X128216861Y-126239023D01*
X128145704Y-126154221D01*
X128103000Y-125994846D01*
X128103000Y-125357346D01*
X128122223Y-125248327D01*
X128177573Y-125152457D01*
X128262375Y-125081300D01*
X128421750Y-125038596D01*
X129134250Y-125038596D01*
X129243269Y-125057819D01*
G37*
G36*
X129243269Y-126632819D02*
G01*
X129339139Y-126688169D01*
X129410296Y-126772971D01*
X129453000Y-126932346D01*
X129453000Y-127569846D01*
X129433777Y-127678865D01*
X129378427Y-127774735D01*
X129293625Y-127845892D01*
X129134250Y-127888596D01*
X128421750Y-127888596D01*
X128312731Y-127869373D01*
X128216861Y-127814023D01*
X128145704Y-127729221D01*
X128103000Y-127569846D01*
X128103000Y-126932346D01*
X128122223Y-126823327D01*
X128177573Y-126727457D01*
X128262375Y-126656300D01*
X128421750Y-126613596D01*
X129134250Y-126613596D01*
X129243269Y-126632819D01*
G37*
G04 #@! TD*
M02*
