G04 #@! TF.GenerationSoftware,KiCad,Pcbnew,(5.99.0-9154-g0d2ee266a1)*
G04 #@! TF.CreationDate,2021-02-19T07:59:59+01:00*
G04 #@! TF.ProjectId,TFRPM01C,54465250-4d30-4314-932e-6b696361645f,REV*
G04 #@! TF.SameCoordinates,Original*
G04 #@! TF.FileFunction,Legend,Bot*
G04 #@! TF.FilePolarity,Positive*
%FSLAX46Y46*%
G04 Gerber Fmt 4.6, Leading zero omitted, Abs format (unit mm)*
G04 Created by KiCad (PCBNEW (5.99.0-9154-g0d2ee266a1)) date 2021-02-19 07:59:59*
%MOMM*%
%LPD*%
G01*
G04 APERTURE LIST*
%ADD10C,0.300000*%
%ADD11C,0.120000*%
%ADD12C,0.150000*%
G04 APERTURE END LIST*
D10*
G04 #@! TO.C,J1*
X145467333Y-135940095D02*
X145467333Y-136868666D01*
X145529238Y-137054380D01*
X145653047Y-137178190D01*
X145838761Y-137240095D01*
X145962571Y-137240095D01*
X144167333Y-137240095D02*
X144910190Y-137240095D01*
X144538761Y-137240095D02*
X144538761Y-135940095D01*
X144662571Y-136125809D01*
X144786380Y-136249619D01*
X144910190Y-136311523D01*
G04 #@! TO.C,J2*
X115493095Y-130376666D02*
X116421666Y-130376666D01*
X116607380Y-130314761D01*
X116731190Y-130190952D01*
X116793095Y-130005238D01*
X116793095Y-129881428D01*
X115616904Y-130933809D02*
X115555000Y-130995714D01*
X115493095Y-131119523D01*
X115493095Y-131429047D01*
X115555000Y-131552857D01*
X115616904Y-131614761D01*
X115740714Y-131676666D01*
X115864523Y-131676666D01*
X116050238Y-131614761D01*
X116793095Y-130871904D01*
X116793095Y-131676666D01*
G04 #@! TO.C,R1*
X141694666Y-124413095D02*
X142128000Y-123794047D01*
X142437523Y-124413095D02*
X142437523Y-123113095D01*
X141942285Y-123113095D01*
X141818476Y-123175000D01*
X141756571Y-123236904D01*
X141694666Y-123360714D01*
X141694666Y-123546428D01*
X141756571Y-123670238D01*
X141818476Y-123732142D01*
X141942285Y-123794047D01*
X142437523Y-123794047D01*
X140456571Y-124413095D02*
X141199428Y-124413095D01*
X140828000Y-124413095D02*
X140828000Y-123113095D01*
X140951809Y-123298809D01*
X141075619Y-123422619D01*
X141199428Y-123484523D01*
G04 #@! TO.C,R2*
X137376666Y-124413095D02*
X137810000Y-123794047D01*
X138119523Y-124413095D02*
X138119523Y-123113095D01*
X137624285Y-123113095D01*
X137500476Y-123175000D01*
X137438571Y-123236904D01*
X137376666Y-123360714D01*
X137376666Y-123546428D01*
X137438571Y-123670238D01*
X137500476Y-123732142D01*
X137624285Y-123794047D01*
X138119523Y-123794047D01*
X136881428Y-123236904D02*
X136819523Y-123175000D01*
X136695714Y-123113095D01*
X136386190Y-123113095D01*
X136262380Y-123175000D01*
X136200476Y-123236904D01*
X136138571Y-123360714D01*
X136138571Y-123484523D01*
X136200476Y-123670238D01*
X136943333Y-124413095D01*
X136138571Y-124413095D01*
G04 #@! TO.C,J3*
X115950295Y-140231866D02*
X116878866Y-140231866D01*
X117064580Y-140169961D01*
X117188390Y-140046152D01*
X117250295Y-139860438D01*
X117250295Y-139736628D01*
X115950295Y-140727104D02*
X115950295Y-141531866D01*
X116445533Y-141098533D01*
X116445533Y-141284247D01*
X116507438Y-141408057D01*
X116569342Y-141469961D01*
X116693152Y-141531866D01*
X117002676Y-141531866D01*
X117126485Y-141469961D01*
X117188390Y-141408057D01*
X117250295Y-141284247D01*
X117250295Y-140912819D01*
X117188390Y-140789009D01*
X117126485Y-140727104D01*
G04 #@! TO.C,JP1*
X134941333Y-136194095D02*
X134941333Y-137122666D01*
X135003238Y-137308380D01*
X135127047Y-137432190D01*
X135312761Y-137494095D01*
X135436571Y-137494095D01*
X134322285Y-137494095D02*
X134322285Y-136194095D01*
X133827047Y-136194095D01*
X133703238Y-136256000D01*
X133641333Y-136317904D01*
X133579428Y-136441714D01*
X133579428Y-136627428D01*
X133641333Y-136751238D01*
X133703238Y-136813142D01*
X133827047Y-136875047D01*
X134322285Y-136875047D01*
X132341333Y-137494095D02*
X133084190Y-137494095D01*
X132712761Y-137494095D02*
X132712761Y-136194095D01*
X132836571Y-136379809D01*
X132960380Y-136503619D01*
X133084190Y-136565523D01*
G04 #@! TO.C,JP2*
X134687333Y-123240095D02*
X134687333Y-124168666D01*
X134749238Y-124354380D01*
X134873047Y-124478190D01*
X135058761Y-124540095D01*
X135182571Y-124540095D01*
X134068285Y-124540095D02*
X134068285Y-123240095D01*
X133573047Y-123240095D01*
X133449238Y-123302000D01*
X133387333Y-123363904D01*
X133325428Y-123487714D01*
X133325428Y-123673428D01*
X133387333Y-123797238D01*
X133449238Y-123859142D01*
X133573047Y-123921047D01*
X134068285Y-123921047D01*
X132830190Y-123363904D02*
X132768285Y-123302000D01*
X132644476Y-123240095D01*
X132334952Y-123240095D01*
X132211142Y-123302000D01*
X132149238Y-123363904D01*
X132087333Y-123487714D01*
X132087333Y-123611523D01*
X132149238Y-123797238D01*
X132892095Y-124540095D01*
X132087333Y-124540095D01*
D11*
G04 #@! TO.C,D1*
X117110000Y-130038000D02*
X119110000Y-130038000D01*
X119110000Y-130038000D02*
X119110000Y-134338000D01*
X117110000Y-134338000D02*
X117110000Y-130038000D01*
G04 #@! TO.C,R10*
X123954000Y-127218221D02*
X123954000Y-127543779D01*
X122934000Y-127218221D02*
X122934000Y-127543779D01*
G04 #@! TO.C,J1*
X139345929Y-132711096D02*
X139743000Y-132711096D01*
X142403000Y-134831096D02*
X148403000Y-134831096D01*
X148403000Y-129411096D02*
X142403000Y-129411096D01*
X142403000Y-130171096D02*
X148403000Y-130171096D01*
X139345929Y-130171096D02*
X139743000Y-130171096D01*
X139743000Y-136201096D02*
X139743000Y-128461096D01*
X139743000Y-133601096D02*
X142403000Y-133601096D01*
X139413000Y-135251096D02*
X139743000Y-135251096D01*
X137033000Y-134871096D02*
X137033000Y-136141096D01*
X139743000Y-128461096D02*
X142403000Y-128461096D01*
X137033000Y-136141096D02*
X138303000Y-136141096D01*
X142403000Y-134591096D02*
X148403000Y-134591096D01*
X139413000Y-134491096D02*
X139743000Y-134491096D01*
X148403000Y-130171096D02*
X148403000Y-129411096D01*
X139345929Y-131951096D02*
X139743000Y-131951096D01*
X139743000Y-131061096D02*
X142403000Y-131061096D01*
X142403000Y-132711096D02*
X148403000Y-132711096D01*
X148403000Y-135251096D02*
X148403000Y-134491096D01*
X142403000Y-135071096D02*
X148403000Y-135071096D01*
X142403000Y-134951096D02*
X148403000Y-134951096D01*
X148403000Y-131951096D02*
X142403000Y-131951096D01*
X148403000Y-132711096D02*
X148403000Y-131951096D01*
X139345929Y-129411096D02*
X139743000Y-129411096D01*
X142403000Y-135191096D02*
X148403000Y-135191096D01*
X142403000Y-134711096D02*
X148403000Y-134711096D01*
X142403000Y-128461096D02*
X142403000Y-136201096D01*
X148403000Y-134491096D02*
X142403000Y-134491096D01*
X142403000Y-135251096D02*
X148403000Y-135251096D01*
X142403000Y-136201096D02*
X139743000Y-136201096D01*
G04 #@! TO.C,U3*
X126016000Y-123866000D02*
X127816000Y-123866000D01*
X127816000Y-127086000D02*
X125366000Y-127086000D01*
D12*
G04 #@! TO.C,C3*
X120015000Y-124904500D02*
X118491000Y-124904500D01*
X118491000Y-127952500D02*
X120015000Y-127952500D01*
D11*
X118491000Y-126809500D02*
X118491000Y-126047500D01*
X120015000Y-126809500D02*
X120015000Y-126047500D01*
G04 #@! TO.C,C4*
X122946279Y-124716000D02*
X122620721Y-124716000D01*
X122946279Y-123696000D02*
X122620721Y-123696000D01*
G04 #@! TO.C,J2*
X113798000Y-123016096D02*
X115248000Y-123016096D01*
X115248000Y-123016096D02*
X115248000Y-124816096D01*
X113798000Y-131486096D02*
X115248000Y-131486096D01*
X115248000Y-129686096D02*
X116238000Y-129686096D01*
X110978000Y-130216096D02*
X110978000Y-124286096D01*
X115248000Y-131486096D02*
X115248000Y-129686096D01*
G04 #@! TO.C,R4*
X129542000Y-139511721D02*
X129542000Y-139837279D01*
X128522000Y-139511721D02*
X128522000Y-139837279D01*
G04 #@! TO.C,R1*
X142240000Y-125920500D02*
X142240000Y-126682500D01*
D12*
X142240000Y-124777500D02*
X140716000Y-124777500D01*
D11*
X140716000Y-125920500D02*
X140716000Y-126682500D01*
D12*
X140716000Y-127825500D02*
X142240000Y-127825500D01*
D11*
G04 #@! TO.C,R2*
X136398000Y-126682500D02*
X136398000Y-125920500D01*
D12*
X136398000Y-127825500D02*
X137922000Y-127825500D01*
D11*
X137922000Y-126682500D02*
X137922000Y-125920500D01*
D12*
X137922000Y-124777500D02*
X136398000Y-124777500D01*
D11*
G04 #@! TO.C,R3*
X121156000Y-127218221D02*
X121156000Y-127543779D01*
X122176000Y-127218221D02*
X122176000Y-127543779D01*
G04 #@! TO.C,C6*
X137162000Y-139283221D02*
X137162000Y-139608779D01*
X136142000Y-139283221D02*
X136142000Y-139608779D01*
G04 #@! TO.C,J3*
X115248000Y-133176096D02*
X115248000Y-134976096D01*
X115248000Y-141646096D02*
X115248000Y-139846096D01*
X113798000Y-141646096D02*
X115248000Y-141646096D01*
X110978000Y-140376096D02*
X110978000Y-134446096D01*
X115248000Y-139846096D02*
X116238000Y-139846096D01*
X113798000Y-133176096D02*
X115248000Y-133176096D01*
G04 #@! TO.C,C5*
X128005721Y-129796000D02*
X128331279Y-129796000D01*
X128005721Y-128776000D02*
X128331279Y-128776000D01*
D12*
G04 #@! TO.C,U1*
X127421000Y-139232000D02*
X127421000Y-131532000D01*
X119721000Y-139232000D02*
X119721000Y-131532000D01*
X127421000Y-138582000D02*
X126111000Y-138582000D01*
X127421000Y-131532000D02*
X126111000Y-131532000D01*
X121031000Y-138582000D02*
X119721000Y-138582000D01*
X121031000Y-139232000D02*
X119721000Y-139232000D01*
X121031000Y-131532000D02*
X119721000Y-131532000D01*
X127421000Y-139232000D02*
X126111000Y-139232000D01*
X126238000Y-137922000D02*
G75*
G03*
X126238000Y-137922000I-127000J0D01*
G01*
D11*
G04 #@! TO.C,C1*
X129792000Y-125791279D02*
X129792000Y-125465721D01*
X130812000Y-125791279D02*
X130812000Y-125465721D01*
G04 #@! TO.C,C2*
X138430000Y-125793500D02*
X138430000Y-125031500D01*
D12*
X138430000Y-126936500D02*
X139954000Y-126936500D01*
X139954000Y-123888500D02*
X138430000Y-123888500D01*
D11*
X139954000Y-125793500D02*
X139954000Y-125031500D01*
G04 #@! TO.C,U2*
X138540000Y-139892000D02*
X138540000Y-137992000D01*
X140860000Y-138492000D02*
X140860000Y-139892000D01*
G04 #@! TO.C,JP1*
X128294000Y-135406000D02*
X128894000Y-135406000D01*
X128594000Y-135706000D02*
X128294000Y-135406000D01*
X131194000Y-135906000D02*
X128394000Y-135906000D01*
X128394000Y-137906000D02*
X131194000Y-137906000D01*
X131844000Y-137206000D02*
X131844000Y-136606000D01*
X127744000Y-136606000D02*
X127744000Y-137206000D01*
X128594000Y-135706000D02*
X128894000Y-135406000D01*
X131844000Y-136606000D02*
G75*
G03*
X131144000Y-135906000I-700000J0D01*
G01*
X131144000Y-137906000D02*
G75*
G03*
X131844000Y-137206000I0J700000D01*
G01*
X127744000Y-137206000D02*
G75*
G03*
X128444000Y-137906000I700000J0D01*
G01*
X128444000Y-135906000D02*
G75*
G03*
X127744000Y-136606000I0J-700000D01*
G01*
G04 #@! TO.C,JP2*
X135004000Y-124984000D02*
X132204000Y-124984000D01*
X131554000Y-125684000D02*
X131554000Y-126284000D01*
X134804000Y-127184000D02*
X135104000Y-127484000D01*
X132204000Y-126984000D02*
X135004000Y-126984000D01*
X135654000Y-126284000D02*
X135654000Y-125684000D01*
X134804000Y-127184000D02*
X134504000Y-127484000D01*
X135104000Y-127484000D02*
X134504000Y-127484000D01*
X132254000Y-124984000D02*
G75*
G03*
X131554000Y-125684000I0J-700000D01*
G01*
X135654000Y-125684000D02*
G75*
G03*
X134954000Y-124984000I-700000J0D01*
G01*
X131554000Y-126284000D02*
G75*
G03*
X132254000Y-126984000I700000J0D01*
G01*
X134954000Y-126984000D02*
G75*
G03*
X135654000Y-126284000I0J700000D01*
G01*
G04 #@! TD*
M02*
