G04 #@! TF.GenerationSoftware,KiCad,Pcbnew,(5.99.0-9154-g0d2ee266a1)*
G04 #@! TF.CreationDate,2021-02-19T07:59:59+01:00*
G04 #@! TF.ProjectId,TFRPM01C,54465250-4d30-4314-932e-6b696361645f,REV*
G04 #@! TF.SameCoordinates,Original*
G04 #@! TF.FileFunction,Copper,L1,Top*
G04 #@! TF.FilePolarity,Positive*
%FSLAX46Y46*%
G04 Gerber Fmt 4.6, Leading zero omitted, Abs format (unit mm)*
G04 Created by KiCad (PCBNEW (5.99.0-9154-g0d2ee266a1)) date 2021-02-19 07:59:59*
%MOMM*%
%LPD*%
G01*
G04 APERTURE LIST*
%ADD10C,0.300000*%
G04 #@! TA.AperFunction,ComponentPad*
%ADD11C,6.000000*%
G04 #@! TD*
G04 #@! TA.AperFunction,ComponentPad*
%ADD12R,1.700000X1.700000*%
G04 #@! TD*
G04 #@! TA.AperFunction,ComponentPad*
%ADD13O,1.700000X1.700000*%
G04 #@! TD*
G04 #@! TA.AperFunction,ViaPad*
%ADD14C,0.800000*%
G04 #@! TD*
G04 #@! TA.AperFunction,Conductor*
%ADD15C,0.500000*%
G04 #@! TD*
G04 APERTURE END LIST*
D10*
X145736571Y-139798285D02*
X145736571Y-138941142D01*
X147236571Y-139369714D02*
X145736571Y-139369714D01*
X147236571Y-138441142D02*
X145736571Y-138441142D01*
X147236571Y-137798285D02*
X146450857Y-137798285D01*
X146308000Y-137869714D01*
X146236571Y-138012571D01*
X146236571Y-138226857D01*
X146308000Y-138369714D01*
X146379428Y-138441142D01*
X146236571Y-136441142D02*
X147236571Y-136441142D01*
X146236571Y-137084000D02*
X147022285Y-137084000D01*
X147165142Y-137012571D01*
X147236571Y-136869714D01*
X147236571Y-136655428D01*
X147165142Y-136512571D01*
X147093714Y-136441142D01*
X146236571Y-135726857D02*
X147236571Y-135726857D01*
X146379428Y-135726857D02*
X146308000Y-135655428D01*
X146236571Y-135512571D01*
X146236571Y-135298285D01*
X146308000Y-135155428D01*
X146450857Y-135084000D01*
X147236571Y-135084000D01*
X147236571Y-133726857D02*
X145736571Y-133726857D01*
X147165142Y-133726857D02*
X147236571Y-133869714D01*
X147236571Y-134155428D01*
X147165142Y-134298285D01*
X147093714Y-134369714D01*
X146950857Y-134441142D01*
X146522285Y-134441142D01*
X146379428Y-134369714D01*
X146308000Y-134298285D01*
X146236571Y-134155428D01*
X146236571Y-133869714D01*
X146308000Y-133726857D01*
X147165142Y-132441142D02*
X147236571Y-132584000D01*
X147236571Y-132869714D01*
X147165142Y-133012571D01*
X147022285Y-133084000D01*
X146450857Y-133084000D01*
X146308000Y-133012571D01*
X146236571Y-132869714D01*
X146236571Y-132584000D01*
X146308000Y-132441142D01*
X146450857Y-132369714D01*
X146593714Y-132369714D01*
X146736571Y-133084000D01*
X147236571Y-131726857D02*
X146236571Y-131726857D01*
X146522285Y-131726857D02*
X146379428Y-131655428D01*
X146308000Y-131584000D01*
X146236571Y-131441142D01*
X146236571Y-131298285D01*
X146450857Y-130298285D02*
X146450857Y-130798285D01*
X147236571Y-130798285D02*
X145736571Y-130798285D01*
X145736571Y-130084000D01*
X147236571Y-129298285D02*
X147165142Y-129441142D01*
X147022285Y-129512571D01*
X145736571Y-129512571D01*
X146236571Y-128869714D02*
X147236571Y-128512571D01*
X146236571Y-128155428D02*
X147236571Y-128512571D01*
X147593714Y-128655428D01*
X147665142Y-128726857D01*
X147736571Y-128869714D01*
X147093714Y-127584000D02*
X147165142Y-127512571D01*
X147236571Y-127584000D01*
X147165142Y-127655428D01*
X147093714Y-127584000D01*
X147236571Y-127584000D01*
X147165142Y-126226857D02*
X147236571Y-126369714D01*
X147236571Y-126655428D01*
X147165142Y-126798285D01*
X147093714Y-126869714D01*
X146950857Y-126941142D01*
X146522285Y-126941142D01*
X146379428Y-126869714D01*
X146308000Y-126798285D01*
X146236571Y-126655428D01*
X146236571Y-126369714D01*
X146308000Y-126226857D01*
X146236571Y-125726857D02*
X146236571Y-124941142D01*
X147236571Y-125726857D01*
X147236571Y-124941142D01*
D11*
G04 #@! TO.P,M2,1*
G04 #@! TO.N,GND*
X132588000Y-132331096D03*
G04 #@! TD*
D12*
G04 #@! TO.P,J1,1*
G04 #@! TO.N,/COUNT*
X138303000Y-134871096D03*
D13*
G04 #@! TO.P,J1,2*
G04 #@! TO.N,Net-(C2-Pad1)*
X138303000Y-132331096D03*
G04 #@! TO.P,J1,3*
G04 #@! TO.N,GND*
X138303000Y-129791096D03*
G04 #@! TD*
D14*
G04 #@! TO.N,GND*
X131064000Y-123444000D03*
X135382000Y-123444000D03*
X115316000Y-130807096D03*
X115316000Y-132331096D03*
X120142000Y-134363096D03*
X115316000Y-133855096D03*
X141986000Y-138938000D03*
X120396000Y-130048000D03*
X120396000Y-128524000D03*
X119634000Y-129286000D03*
X115316000Y-140713096D03*
X117856000Y-140716000D03*
X127000000Y-138173096D03*
X124206000Y-134874000D03*
X127000000Y-136906000D03*
X124206000Y-133858000D03*
X112268000Y-129029096D03*
X112268000Y-138681096D03*
X112268000Y-135633096D03*
X112268000Y-137665096D03*
X112268000Y-125981096D03*
X112268000Y-136649096D03*
X112268000Y-126997096D03*
X112268000Y-128013096D03*
X117094000Y-123695096D03*
X138176000Y-136903096D03*
X139192000Y-128016000D03*
X136906000Y-128524000D03*
X143002000Y-135382000D03*
X143764000Y-138935096D03*
X129540000Y-127762000D03*
X124206000Y-133096000D03*
X143002000Y-136652000D03*
X138938000Y-123444000D03*
X130302000Y-128524000D03*
X134493000Y-128270000D03*
X143764000Y-140967096D03*
X143764000Y-139951096D03*
X135636000Y-128778000D03*
X136525000Y-129794000D03*
X136906000Y-130937000D03*
X143002000Y-134109096D03*
X140208000Y-123444000D03*
X128270000Y-134112000D03*
X127762000Y-130810000D03*
X135636000Y-141224000D03*
X140970000Y-136906000D03*
X119888000Y-132842000D03*
X127762000Y-132842000D03*
X141986000Y-137922000D03*
X127762000Y-140970000D03*
X119888000Y-131064000D03*
X120396000Y-139954000D03*
X136906000Y-136652000D03*
X120065800Y-123695096D03*
X135636000Y-136144000D03*
X117094000Y-125222000D03*
X115824000Y-123698000D03*
X120396000Y-138938000D03*
X118491000Y-123695096D03*
X134620000Y-141224000D03*
X120396000Y-140970000D03*
X125476000Y-137414000D03*
G04 #@! TO.N,+3V3*
X131094000Y-136906000D03*
X125476000Y-133096000D03*
X137922000Y-140208000D03*
G04 #@! TO.N,+5V*
X118618000Y-132331096D03*
X118618000Y-139446000D03*
X124206000Y-125476000D03*
X135001000Y-126111000D03*
G04 #@! TO.N,/SDA*
X117221000Y-136776096D03*
X117221000Y-126616096D03*
G04 #@! TD*
D15*
G04 #@! TO.N,+3V3*
X129286000Y-136906000D02*
X131094000Y-136906000D01*
X133604000Y-136906000D02*
X134620000Y-136906000D01*
X125476000Y-133096000D02*
X129286000Y-136906000D01*
X133604000Y-136906000D02*
X131094000Y-136906000D01*
X134620000Y-136906000D02*
X137922000Y-140208000D01*
G04 #@! TO.N,+5V*
X118618000Y-139446000D02*
X118618000Y-138684000D01*
X135001000Y-126111000D02*
X124841000Y-126111000D01*
X118618000Y-138684000D02*
X118618000Y-137919096D01*
X124841000Y-126111000D02*
X124206000Y-125476000D01*
X118618000Y-138684000D02*
X118618000Y-132331096D01*
G04 #@! TO.N,/SDA*
X117221000Y-126616096D02*
X117221000Y-136776096D01*
G04 #@! TD*
G04 #@! TA.AperFunction,Conductor*
G04 #@! TO.N,GND*
G36*
X148257191Y-123025003D02*
G01*
X148293155Y-123074503D01*
X148298000Y-123105096D01*
X148298000Y-124132998D01*
X148279093Y-124191189D01*
X148229593Y-124227153D01*
X148183634Y-124227153D01*
X148183107Y-124230483D01*
X148168000Y-124228091D01*
X148168000Y-124226857D01*
X145053000Y-124226857D01*
X145053000Y-140441143D01*
X148168000Y-140441143D01*
X148168000Y-140436049D01*
X148168409Y-140435916D01*
X148229594Y-140435917D01*
X148279094Y-140471881D01*
X148298000Y-140530071D01*
X148298000Y-141507096D01*
X148279093Y-141565287D01*
X148229593Y-141601251D01*
X148199000Y-141606096D01*
X111297000Y-141606096D01*
X111238809Y-141587189D01*
X111202845Y-141537689D01*
X111198000Y-141507096D01*
X111198000Y-126616096D01*
X116615500Y-126616096D01*
X116636132Y-126772811D01*
X116696622Y-126918846D01*
X116700573Y-126923995D01*
X116750042Y-126988465D01*
X116770500Y-127048732D01*
X116770500Y-136343460D01*
X116750042Y-136403727D01*
X116706179Y-136460891D01*
X116696622Y-136473346D01*
X116636132Y-136619381D01*
X116615500Y-136776096D01*
X116636132Y-136932811D01*
X116696622Y-137078846D01*
X116792847Y-137204249D01*
X116918250Y-137300474D01*
X117064285Y-137360964D01*
X117221000Y-137381596D01*
X117377715Y-137360964D01*
X117523750Y-137300474D01*
X117649153Y-137204249D01*
X117745378Y-137078846D01*
X117805868Y-136932811D01*
X117826500Y-136776096D01*
X117805868Y-136619381D01*
X117745378Y-136473346D01*
X117735821Y-136460891D01*
X117691958Y-136403727D01*
X117671500Y-136343460D01*
X117671500Y-132331096D01*
X118012500Y-132331096D01*
X118033132Y-132487811D01*
X118093622Y-132633846D01*
X118097573Y-132638995D01*
X118147042Y-132703465D01*
X118167500Y-132763732D01*
X118167500Y-139013364D01*
X118147042Y-139073631D01*
X118093622Y-139143250D01*
X118033132Y-139289285D01*
X118012500Y-139446000D01*
X118033132Y-139602715D01*
X118093622Y-139748750D01*
X118189847Y-139874153D01*
X118315250Y-139970378D01*
X118461285Y-140030868D01*
X118618000Y-140051500D01*
X118774715Y-140030868D01*
X118920750Y-139970378D01*
X119046153Y-139874153D01*
X119140358Y-139751382D01*
X131319448Y-139751382D01*
X131319905Y-139755330D01*
X131319905Y-139755335D01*
X131344329Y-139966427D01*
X131348124Y-139999228D01*
X131416058Y-140239300D01*
X131417738Y-140242903D01*
X131417740Y-140242908D01*
X131465149Y-140344575D01*
X131521501Y-140465423D01*
X131661740Y-140671778D01*
X131833167Y-140853058D01*
X131836321Y-140855469D01*
X131836325Y-140855473D01*
X132028212Y-141002181D01*
X132028218Y-141002185D01*
X132031373Y-141004597D01*
X132034875Y-141006475D01*
X132034877Y-141006476D01*
X132247758Y-141120622D01*
X132251257Y-141122498D01*
X132487163Y-141203727D01*
X132648745Y-141231637D01*
X132729946Y-141245663D01*
X132729948Y-141245663D01*
X132733021Y-141246194D01*
X132756743Y-141247271D01*
X132762791Y-141247546D01*
X132762797Y-141247546D01*
X132763895Y-141247596D01*
X132936143Y-141247596D01*
X132938118Y-141247437D01*
X132938120Y-141247437D01*
X133118732Y-141232905D01*
X133118734Y-141232905D01*
X133122695Y-141232586D01*
X133364992Y-141173073D01*
X133594657Y-141075586D01*
X133598021Y-141073468D01*
X133598024Y-141073466D01*
X133704402Y-141006476D01*
X133805781Y-140942634D01*
X133928206Y-140834702D01*
X133989950Y-140780267D01*
X133989951Y-140780266D01*
X133992933Y-140777637D01*
X133995453Y-140774570D01*
X133995458Y-140774564D01*
X134148774Y-140587914D01*
X134148775Y-140587912D01*
X134151298Y-140584841D01*
X134218887Y-140468711D01*
X134274800Y-140372642D01*
X134274802Y-140372638D01*
X134276800Y-140369205D01*
X134366213Y-140136278D01*
X134394844Y-139999228D01*
X134416420Y-139895950D01*
X134416421Y-139895946D01*
X134417234Y-139892052D01*
X134417868Y-139878107D01*
X134423802Y-139747406D01*
X134428552Y-139642810D01*
X134426563Y-139625616D01*
X134400333Y-139398910D01*
X134400332Y-139398905D01*
X134399876Y-139394964D01*
X134331942Y-139154892D01*
X134326514Y-139143250D01*
X134271366Y-139024987D01*
X134226499Y-138928769D01*
X134086260Y-138722414D01*
X133914833Y-138541134D01*
X133911679Y-138538723D01*
X133911675Y-138538719D01*
X133719788Y-138392011D01*
X133719782Y-138392007D01*
X133716627Y-138389595D01*
X133584234Y-138318606D01*
X133500242Y-138273570D01*
X133500240Y-138273569D01*
X133496743Y-138271694D01*
X133260837Y-138190465D01*
X133072973Y-138158015D01*
X133018054Y-138148529D01*
X133018052Y-138148529D01*
X133014979Y-138147998D01*
X132991257Y-138146921D01*
X132985209Y-138146646D01*
X132985203Y-138146646D01*
X132984105Y-138146596D01*
X132811857Y-138146596D01*
X132809882Y-138146755D01*
X132809880Y-138146755D01*
X132629268Y-138161287D01*
X132629266Y-138161287D01*
X132625305Y-138161606D01*
X132383008Y-138221119D01*
X132153343Y-138318606D01*
X132149979Y-138320724D01*
X132149976Y-138320726D01*
X132047781Y-138385082D01*
X131942219Y-138451558D01*
X131755067Y-138616555D01*
X131752547Y-138619622D01*
X131752542Y-138619628D01*
X131599226Y-138806278D01*
X131596702Y-138809351D01*
X131594701Y-138812789D01*
X131477965Y-139013364D01*
X131471200Y-139024987D01*
X131381787Y-139257914D01*
X131380975Y-139261801D01*
X131352332Y-139398910D01*
X131330766Y-139502140D01*
X131319448Y-139751382D01*
X119140358Y-139751382D01*
X119142378Y-139748750D01*
X119202868Y-139602715D01*
X119223500Y-139446000D01*
X119202868Y-139289285D01*
X119142378Y-139143250D01*
X119088958Y-139073631D01*
X119068500Y-139013364D01*
X119068500Y-133096000D01*
X124870500Y-133096000D01*
X124891132Y-133252715D01*
X124951622Y-133398750D01*
X125047847Y-133524153D01*
X125173250Y-133620378D01*
X125319285Y-133680868D01*
X125406287Y-133692322D01*
X125463368Y-133720471D01*
X128944915Y-137202018D01*
X128952651Y-137210724D01*
X128974189Y-137238045D01*
X128980276Y-137242252D01*
X128980277Y-137242253D01*
X129022807Y-137271648D01*
X129025322Y-137273445D01*
X129072858Y-137308555D01*
X129079668Y-137310946D01*
X129085608Y-137315052D01*
X129092661Y-137317283D01*
X129092666Y-137317285D01*
X129130441Y-137329231D01*
X129141971Y-137332878D01*
X129144856Y-137333840D01*
X129200648Y-137353432D01*
X129206688Y-137353669D01*
X129209367Y-137354191D01*
X129214744Y-137355892D01*
X129220365Y-137356334D01*
X129220368Y-137356335D01*
X129220454Y-137356341D01*
X129222469Y-137356500D01*
X129276787Y-137356500D01*
X129280673Y-137356576D01*
X129328590Y-137358459D01*
X129328593Y-137358459D01*
X129335984Y-137358749D01*
X129342551Y-137357008D01*
X129351776Y-137356500D01*
X130661364Y-137356500D01*
X130721631Y-137376958D01*
X130732758Y-137385496D01*
X130791250Y-137430378D01*
X130937285Y-137490868D01*
X131094000Y-137511500D01*
X131250715Y-137490868D01*
X131396750Y-137430378D01*
X131455242Y-137385496D01*
X131466369Y-137376958D01*
X131526636Y-137356500D01*
X134392389Y-137356500D01*
X134450580Y-137375407D01*
X134462393Y-137385496D01*
X137297529Y-140220632D01*
X137325678Y-140277713D01*
X137337132Y-140364715D01*
X137397622Y-140510750D01*
X137493847Y-140636153D01*
X137619250Y-140732378D01*
X137765285Y-140792868D01*
X137922000Y-140813500D01*
X138078715Y-140792868D01*
X138224750Y-140732378D01*
X138350153Y-140636153D01*
X138446378Y-140510750D01*
X138506868Y-140364715D01*
X138527500Y-140208000D01*
X138506868Y-140051285D01*
X138446378Y-139905250D01*
X138350153Y-139779847D01*
X138224750Y-139683622D01*
X138078715Y-139623132D01*
X137991716Y-139611679D01*
X137934634Y-139583530D01*
X134961081Y-136609977D01*
X134953339Y-136601263D01*
X134936394Y-136579768D01*
X134936393Y-136579767D01*
X134931811Y-136573955D01*
X134905544Y-136555800D01*
X134883217Y-136540369D01*
X134880688Y-136538562D01*
X134839097Y-136507843D01*
X134839095Y-136507842D01*
X134833142Y-136503445D01*
X134826332Y-136501054D01*
X134820392Y-136496948D01*
X134813339Y-136494717D01*
X134813334Y-136494715D01*
X134764720Y-136479341D01*
X134764029Y-136479122D01*
X134761144Y-136478160D01*
X134705352Y-136458568D01*
X134699312Y-136458331D01*
X134696633Y-136457809D01*
X134691256Y-136456108D01*
X134685635Y-136455666D01*
X134685632Y-136455665D01*
X134685546Y-136455659D01*
X134683531Y-136455500D01*
X134629213Y-136455500D01*
X134625327Y-136455424D01*
X134577410Y-136453541D01*
X134577407Y-136453541D01*
X134570016Y-136453251D01*
X134563449Y-136454992D01*
X134554224Y-136455500D01*
X131526636Y-136455500D01*
X131466369Y-136435042D01*
X131401899Y-136385573D01*
X131396750Y-136381622D01*
X131250715Y-136321132D01*
X131094000Y-136300500D01*
X130937285Y-136321132D01*
X130791250Y-136381622D01*
X130786101Y-136385573D01*
X130721631Y-136435042D01*
X130661364Y-136455500D01*
X129513611Y-136455500D01*
X129455420Y-136436593D01*
X129443607Y-136426504D01*
X127038199Y-134021096D01*
X137247500Y-134021096D01*
X137247500Y-135721096D01*
X137263143Y-135799737D01*
X137307690Y-135866406D01*
X137374359Y-135910953D01*
X137383922Y-135912855D01*
X137383924Y-135912856D01*
X137409200Y-135917883D01*
X137453000Y-135926596D01*
X139153000Y-135926596D01*
X139196800Y-135917883D01*
X139222076Y-135912856D01*
X139222078Y-135912855D01*
X139231641Y-135910953D01*
X139298310Y-135866406D01*
X139342857Y-135799737D01*
X139358500Y-135721096D01*
X139358500Y-134021096D01*
X139342857Y-133942455D01*
X139298310Y-133875786D01*
X139231641Y-133831239D01*
X139222078Y-133829337D01*
X139222076Y-133829336D01*
X139196800Y-133824309D01*
X139153000Y-133815596D01*
X137453000Y-133815596D01*
X137409200Y-133824309D01*
X137383924Y-133829336D01*
X137383922Y-133829337D01*
X137374359Y-133831239D01*
X137307690Y-133875786D01*
X137263143Y-133942455D01*
X137247500Y-134021096D01*
X127038199Y-134021096D01*
X126100471Y-133083368D01*
X126072322Y-133026286D01*
X126061715Y-132945721D01*
X126060868Y-132939285D01*
X126000378Y-132793250D01*
X125904153Y-132667847D01*
X125778750Y-132571622D01*
X125632715Y-132511132D01*
X125476000Y-132490500D01*
X125319285Y-132511132D01*
X125173250Y-132571622D01*
X125047847Y-132667847D01*
X124951622Y-132793250D01*
X124891132Y-132939285D01*
X124870500Y-133096000D01*
X119068500Y-133096000D01*
X119068500Y-132763732D01*
X119088958Y-132703465D01*
X119138427Y-132638995D01*
X119142378Y-132633846D01*
X119202868Y-132487811D01*
X119223500Y-132331096D01*
X119202868Y-132174381D01*
X119142378Y-132028346D01*
X119046153Y-131902943D01*
X118920750Y-131806718D01*
X118774715Y-131746228D01*
X118618000Y-131725596D01*
X118461285Y-131746228D01*
X118315250Y-131806718D01*
X118189847Y-131902943D01*
X118093622Y-132028346D01*
X118033132Y-132174381D01*
X118012500Y-132331096D01*
X117671500Y-132331096D01*
X117671500Y-130056730D01*
X136970162Y-130056730D01*
X136979820Y-130116695D01*
X136981842Y-130124805D01*
X137053596Y-130334978D01*
X137056956Y-130342634D01*
X137163100Y-130537721D01*
X137167699Y-130544695D01*
X137305191Y-130719102D01*
X137310905Y-130725209D01*
X137475813Y-130873954D01*
X137482475Y-130879010D01*
X137670095Y-130997848D01*
X137677506Y-131001706D01*
X137882468Y-131087234D01*
X137890425Y-131089788D01*
X138032662Y-131122495D01*
X138085135Y-131153962D01*
X138109092Y-131210262D01*
X138095380Y-131269892D01*
X138049238Y-131310073D01*
X138038428Y-131313949D01*
X137912250Y-131351085D01*
X137912247Y-131351086D01*
X137907603Y-131352453D01*
X137903309Y-131354698D01*
X137729344Y-131445644D01*
X137729340Y-131445647D01*
X137725047Y-131447891D01*
X137721271Y-131450927D01*
X137721268Y-131450929D01*
X137714903Y-131456047D01*
X137564505Y-131576970D01*
X137552643Y-131591107D01*
X137435202Y-131731067D01*
X137435199Y-131731071D01*
X137432093Y-131734773D01*
X137332853Y-131915290D01*
X137331389Y-131919904D01*
X137331388Y-131919907D01*
X137296989Y-132028346D01*
X137270565Y-132111645D01*
X137247603Y-132316359D01*
X137255092Y-132405541D01*
X137264167Y-132513616D01*
X137264840Y-132521634D01*
X137266173Y-132526282D01*
X137266173Y-132526283D01*
X137316980Y-132703465D01*
X137321621Y-132719651D01*
X137415782Y-132902869D01*
X137543737Y-133064308D01*
X137700612Y-133197819D01*
X137704835Y-133200179D01*
X137704839Y-133200182D01*
X137787321Y-133246279D01*
X137880432Y-133298317D01*
X137885030Y-133299811D01*
X138071742Y-133360478D01*
X138071745Y-133360479D01*
X138076347Y-133361974D01*
X138280895Y-133386365D01*
X138285717Y-133385994D01*
X138285720Y-133385994D01*
X138481458Y-133370933D01*
X138481463Y-133370932D01*
X138486286Y-133370561D01*
X138684695Y-133315164D01*
X138715089Y-133299811D01*
X138864244Y-133224467D01*
X138864246Y-133224466D01*
X138868565Y-133222284D01*
X139030893Y-133095459D01*
X139034055Y-133091796D01*
X139034060Y-133091791D01*
X139162332Y-132943185D01*
X139165496Y-132939520D01*
X139169037Y-132933288D01*
X139264858Y-132764613D01*
X139264859Y-132764610D01*
X139267247Y-132760407D01*
X139277321Y-132730126D01*
X139330743Y-132569531D01*
X139330743Y-132569529D01*
X139332270Y-132564940D01*
X139337154Y-132526283D01*
X139357740Y-132363321D01*
X139358088Y-132360567D01*
X139358500Y-132331096D01*
X139338398Y-132126082D01*
X139335493Y-132116458D01*
X139280256Y-131933508D01*
X139278858Y-131928876D01*
X139182148Y-131746991D01*
X139051952Y-131587355D01*
X138893228Y-131456047D01*
X138712023Y-131358069D01*
X138574595Y-131315528D01*
X138524598Y-131280258D01*
X138504880Y-131222337D01*
X138522973Y-131163888D01*
X138576333Y-131125862D01*
X138787432Y-131064731D01*
X138795224Y-131061740D01*
X138995099Y-130964902D01*
X139002281Y-130960637D01*
X139182970Y-130831515D01*
X139189346Y-130826088D01*
X139345691Y-130668373D01*
X139351055Y-130661957D01*
X139478596Y-130480149D01*
X139482805Y-130472917D01*
X139577887Y-130272221D01*
X139580815Y-130264393D01*
X139639299Y-130055631D01*
X139637595Y-130047648D01*
X139635724Y-130045966D01*
X139631621Y-130045096D01*
X136983968Y-130045096D01*
X136971283Y-130049218D01*
X136970679Y-130050049D01*
X136970162Y-130056730D01*
X117671500Y-130056730D01*
X117671500Y-129521665D01*
X136971575Y-129521665D01*
X136973374Y-129534884D01*
X136973728Y-129535253D01*
X136981051Y-129537096D01*
X138033320Y-129537096D01*
X138046005Y-129532974D01*
X138049000Y-129528853D01*
X138049000Y-128472378D01*
X138046878Y-128465846D01*
X138557000Y-128465846D01*
X138557000Y-129521416D01*
X138561122Y-129534101D01*
X138565243Y-129537096D01*
X139624514Y-129537096D01*
X139636341Y-129533253D01*
X139636638Y-129523395D01*
X139589665Y-129342416D01*
X139586892Y-129334542D01*
X139495673Y-129132042D01*
X139491610Y-129124742D01*
X139367585Y-128940521D01*
X139362337Y-128933994D01*
X139209046Y-128773303D01*
X139202787Y-128767766D01*
X139024609Y-128635198D01*
X139017500Y-128630790D01*
X138819529Y-128530136D01*
X138811791Y-128526994D01*
X138599686Y-128461135D01*
X138591532Y-128459342D01*
X138572544Y-128456825D01*
X138559427Y-128459245D01*
X138558205Y-128460529D01*
X138557000Y-128465846D01*
X138046878Y-128465846D01*
X138044921Y-128459824D01*
X138036307Y-128459361D01*
X137915438Y-128484722D01*
X137907425Y-128487125D01*
X137700855Y-128568704D01*
X137693382Y-128572413D01*
X137503508Y-128687632D01*
X137496761Y-128692552D01*
X137329019Y-128838111D01*
X137323190Y-128844105D01*
X137182380Y-129015835D01*
X137177637Y-129022737D01*
X137067775Y-129215736D01*
X137064268Y-129223326D01*
X136988492Y-129432087D01*
X136986315Y-129440154D01*
X136971575Y-129521665D01*
X117671500Y-129521665D01*
X117671500Y-127048732D01*
X117691958Y-126988465D01*
X117741427Y-126923995D01*
X117745378Y-126918846D01*
X117805868Y-126772811D01*
X117826500Y-126616096D01*
X117805868Y-126459381D01*
X117745378Y-126313346D01*
X117649153Y-126187943D01*
X117523750Y-126091718D01*
X117377715Y-126031228D01*
X117221000Y-126010596D01*
X117064285Y-126031228D01*
X116918250Y-126091718D01*
X116792847Y-126187943D01*
X116696622Y-126313346D01*
X116636132Y-126459381D01*
X116615500Y-126616096D01*
X111198000Y-126616096D01*
X111198000Y-125476000D01*
X123600500Y-125476000D01*
X123621132Y-125632715D01*
X123681622Y-125778750D01*
X123777847Y-125904153D01*
X123903250Y-126000378D01*
X124049285Y-126060868D01*
X124136287Y-126072322D01*
X124193368Y-126100471D01*
X124499915Y-126407018D01*
X124507651Y-126415724D01*
X124529189Y-126443045D01*
X124535276Y-126447252D01*
X124535277Y-126447253D01*
X124577807Y-126476648D01*
X124580322Y-126478445D01*
X124627858Y-126513555D01*
X124634668Y-126515946D01*
X124640608Y-126520052D01*
X124647661Y-126522283D01*
X124647666Y-126522285D01*
X124684710Y-126534000D01*
X124696971Y-126537878D01*
X124699856Y-126538840D01*
X124755648Y-126558432D01*
X124761688Y-126558669D01*
X124764367Y-126559191D01*
X124769744Y-126560892D01*
X124775365Y-126561334D01*
X124775368Y-126561335D01*
X124775454Y-126561341D01*
X124777469Y-126561500D01*
X124831787Y-126561500D01*
X124835673Y-126561576D01*
X124883590Y-126563459D01*
X124883593Y-126563459D01*
X124890984Y-126563749D01*
X124897551Y-126562008D01*
X124906776Y-126561500D01*
X134568364Y-126561500D01*
X134628632Y-126581958D01*
X134698250Y-126635378D01*
X134844285Y-126695868D01*
X135001000Y-126716500D01*
X135157715Y-126695868D01*
X135303750Y-126635378D01*
X135429153Y-126539153D01*
X135525378Y-126413750D01*
X135585868Y-126267715D01*
X135606500Y-126111000D01*
X135585868Y-125954285D01*
X135525378Y-125808250D01*
X135429153Y-125682847D01*
X135303750Y-125586622D01*
X135157715Y-125526132D01*
X135001000Y-125505500D01*
X134844285Y-125526132D01*
X134698250Y-125586622D01*
X134693101Y-125590573D01*
X134628631Y-125640042D01*
X134568364Y-125660500D01*
X125068611Y-125660500D01*
X125010420Y-125641593D01*
X124998607Y-125631504D01*
X124830471Y-125463368D01*
X124802322Y-125406286D01*
X124791715Y-125325721D01*
X124790868Y-125319285D01*
X124730378Y-125173250D01*
X124634153Y-125047847D01*
X124508750Y-124951622D01*
X124362715Y-124891132D01*
X124206000Y-124870500D01*
X124049285Y-124891132D01*
X123903250Y-124951622D01*
X123777847Y-125047847D01*
X123681622Y-125173250D01*
X123621132Y-125319285D01*
X123600500Y-125476000D01*
X111198000Y-125476000D01*
X111198000Y-123105096D01*
X111216907Y-123046905D01*
X111266407Y-123010941D01*
X111297000Y-123006096D01*
X148199000Y-123006096D01*
X148257191Y-123025003D01*
G37*
G04 #@! TD.AperFunction*
G04 #@! TD*
M02*
