%TF.GenerationSoftware,KiCad,Pcbnew,6.0.4-6f826c9f35~116~ubuntu20.04.1*%
%TF.CreationDate,2022-09-27T14:31:38+00:00*%
%TF.ProjectId,TFRPM01D,54465250-4d30-4314-942e-6b696361645f,rev?*%
%TF.SameCoordinates,PX7e721e0PY7e33658*%
%TF.FileFunction,Copper,L2,Bot*%
%TF.FilePolarity,Positive*%
%FSLAX46Y46*%
G04 Gerber Fmt 4.6, Leading zero omitted, Abs format (unit mm)*
G04 Created by KiCad (PCBNEW 6.0.4-6f826c9f35~116~ubuntu20.04.1) date 2022-09-27 14:31:38*
%MOMM*%
%LPD*%
G01*
G04 APERTURE LIST*
G04 Aperture macros list*
%AMRoundRect*
0 Rectangle with rounded corners*
0 $1 Rounding radius*
0 $2 $3 $4 $5 $6 $7 $8 $9 X,Y pos of 4 corners*
0 Add a 4 corners polygon primitive as box body*
4,1,4,$2,$3,$4,$5,$6,$7,$8,$9,$2,$3,0*
0 Add four circle primitives for the rounded corners*
1,1,$1+$1,$2,$3*
1,1,$1+$1,$4,$5*
1,1,$1+$1,$6,$7*
1,1,$1+$1,$8,$9*
0 Add four rect primitives between the rounded corners*
20,1,$1+$1,$2,$3,$4,$5,0*
20,1,$1+$1,$4,$5,$6,$7,0*
20,1,$1+$1,$6,$7,$8,$9,0*
20,1,$1+$1,$8,$9,$2,$3,0*%
%AMFreePoly0*
4,1,22,0.550000,-0.750000,0.000000,-0.750000,0.000000,-0.745033,-0.079941,-0.743568,-0.215256,-0.701293,-0.333266,-0.622738,-0.424486,-0.514219,-0.481581,-0.384460,-0.499164,-0.250000,-0.500000,-0.250000,-0.500000,0.250000,-0.499164,0.250000,-0.499963,0.256109,-0.478152,0.396186,-0.417904,0.524511,-0.324060,0.630769,-0.204165,0.706417,-0.067858,0.745374,0.000000,0.744959,0.000000,0.750000,
0.550000,0.750000,0.550000,-0.750000,0.550000,-0.750000,$1*%
%AMFreePoly1*
4,1,20,0.000000,0.744959,0.073905,0.744508,0.209726,0.703889,0.328688,0.626782,0.421226,0.519385,0.479903,0.390333,0.500000,0.250000,0.500000,-0.250000,0.499851,-0.262216,0.476331,-0.402017,0.414519,-0.529596,0.319384,-0.634700,0.198574,-0.708877,0.061801,-0.746166,0.000000,-0.745033,0.000000,-0.750000,-0.550000,-0.750000,-0.550000,0.750000,0.000000,0.750000,0.000000,0.744959,
0.000000,0.744959,$1*%
G04 Aperture macros list end*
%TA.AperFunction,SMDPad,CuDef*%
%ADD10R,0.600000X0.700000*%
%TD*%
%TA.AperFunction,ComponentPad*%
%ADD11C,6.000000*%
%TD*%
%TA.AperFunction,SMDPad,CuDef*%
%ADD12RoundRect,0.200000X0.200000X0.275000X-0.200000X0.275000X-0.200000X-0.275000X0.200000X-0.275000X0*%
%TD*%
%TA.AperFunction,ComponentPad*%
%ADD13R,1.700000X1.700000*%
%TD*%
%TA.AperFunction,ComponentPad*%
%ADD14O,1.700000X1.700000*%
%TD*%
%TA.AperFunction,SMDPad,CuDef*%
%ADD15RoundRect,0.150000X-0.512500X-0.150000X0.512500X-0.150000X0.512500X0.150000X-0.512500X0.150000X0*%
%TD*%
%TA.AperFunction,SMDPad,CuDef*%
%ADD16RoundRect,0.225000X0.225000X0.250000X-0.225000X0.250000X-0.225000X-0.250000X0.225000X-0.250000X0*%
%TD*%
%TA.AperFunction,SMDPad,CuDef*%
%ADD17RoundRect,0.150000X0.700000X-0.150000X0.700000X0.150000X-0.700000X0.150000X-0.700000X-0.150000X0*%
%TD*%
%TA.AperFunction,SMDPad,CuDef*%
%ADD18RoundRect,0.250000X1.100000X-0.250000X1.100000X0.250000X-1.100000X0.250000X-1.100000X-0.250000X0*%
%TD*%
%TA.AperFunction,SMDPad,CuDef*%
%ADD19RoundRect,0.200000X-0.275000X0.200000X-0.275000X-0.200000X0.275000X-0.200000X0.275000X0.200000X0*%
%TD*%
%TA.AperFunction,SMDPad,CuDef*%
%ADD20RoundRect,0.250000X-0.450000X0.262500X-0.450000X-0.262500X0.450000X-0.262500X0.450000X0.262500X0*%
%TD*%
%TA.AperFunction,SMDPad,CuDef*%
%ADD21RoundRect,0.250000X0.450000X-0.262500X0.450000X0.262500X-0.450000X0.262500X-0.450000X-0.262500X0*%
%TD*%
%TA.AperFunction,SMDPad,CuDef*%
%ADD22RoundRect,0.225000X-0.250000X0.225000X-0.250000X-0.225000X0.250000X-0.225000X0.250000X0.225000X0*%
%TD*%
%TA.AperFunction,SMDPad,CuDef*%
%ADD23O,0.700000X2.600000*%
%TD*%
%TA.AperFunction,SMDPad,CuDef*%
%ADD24RoundRect,0.225000X0.250000X-0.225000X0.250000X0.225000X-0.250000X0.225000X-0.250000X-0.225000X0*%
%TD*%
%TA.AperFunction,SMDPad,CuDef*%
%ADD25R,1.500000X1.500000*%
%TD*%
%TA.AperFunction,SMDPad,CuDef*%
%ADD26C,0.500000*%
%TD*%
%TA.AperFunction,SMDPad,CuDef*%
%ADD27R,0.400000X0.650000*%
%TD*%
%TA.AperFunction,SMDPad,CuDef*%
%ADD28RoundRect,0.200000X0.275000X-0.200000X0.275000X0.200000X-0.275000X0.200000X-0.275000X-0.200000X0*%
%TD*%
%TA.AperFunction,SMDPad,CuDef*%
%ADD29FreePoly0,270.000000*%
%TD*%
%TA.AperFunction,SMDPad,CuDef*%
%ADD30R,1.500000X1.000000*%
%TD*%
%TA.AperFunction,SMDPad,CuDef*%
%ADD31FreePoly1,270.000000*%
%TD*%
%TA.AperFunction,ViaPad*%
%ADD32C,0.800000*%
%TD*%
%TA.AperFunction,Conductor*%
%ADD33C,0.400000*%
%TD*%
%TA.AperFunction,Conductor*%
%ADD34C,0.500000*%
%TD*%
G04 APERTURE END LIST*
%TO.C,JP2*%
G36*
X2258000Y6825096D02*
G01*
X1658000Y6825096D01*
X1658000Y7325096D01*
X2258000Y7325096D01*
X2258000Y6825096D01*
G37*
%TD*%
D10*
%TO.P,D1,1,K*%
%TO.N,+5V*%
X-14286000Y-1016000D03*
%TO.P,D1,2,A*%
%TO.N,GND*%
X-15686000Y-1016000D03*
%TD*%
D11*
%TO.P,M2,1*%
%TO.N,GND*%
X0Y0D03*
%TD*%
D12*
%TO.P,R10,1*%
%TO.N,+3V3*%
X-6617000Y7425096D03*
%TO.P,R10,2*%
%TO.N,/SCL*%
X-8267000Y7425096D03*
%TD*%
D13*
%TO.P,J1,1*%
%TO.N,/COUNT*%
X5715000Y-2540000D03*
D14*
%TO.P,J1,2*%
%TO.N,Net-(C2-Pad1)*%
X5715000Y0D03*
%TO.P,J1,3*%
%TO.N,GND*%
X5715000Y2540000D03*
%TD*%
D15*
%TO.P,U3,1,VIN*%
%TO.N,+5V*%
X-4679500Y5725096D03*
%TO.P,U3,2,GND*%
%TO.N,GND*%
X-4679500Y6675096D03*
%TO.P,U3,3,EN*%
%TO.N,+5V*%
X-4679500Y7625096D03*
%TO.P,U3,4,NC*%
%TO.N,unconnected-(U3-Pad4)*%
X-2404500Y7625096D03*
%TO.P,U3,5,VOUT*%
%TO.N,+3V3*%
X-2404500Y5725096D03*
%TD*%
D16*
%TO.P,C3,1*%
%TO.N,+5V*%
X-14211000Y1270000D03*
%TO.P,C3,2*%
%TO.N,GND*%
X-15761000Y1270000D03*
%TD*%
%TO.P,C4,1*%
%TO.N,+5V*%
X-13267000Y7425096D03*
%TO.P,C4,2*%
%TO.N,GND*%
X-14817000Y7425096D03*
%TD*%
D17*
%TO.P,J2,1*%
%TO.N,+5V*%
X-16588000Y2931096D03*
%TO.P,J2,2*%
%TO.N,/SCL*%
X-16588000Y4181096D03*
%TO.P,J2,3*%
%TO.N,/SDA*%
X-16588000Y5431096D03*
%TO.P,J2,4*%
%TO.N,GND*%
X-16588000Y6681096D03*
D18*
%TO.P,J2,MP*%
X-19788000Y8531096D03*
X-19788000Y1081096D03*
%TD*%
D19*
%TO.P,R4,1*%
%TO.N,Net-(R4-Pad1)*%
X-4064000Y-6287000D03*
%TO.P,R4,2*%
%TO.N,Net-(D2-Pad2)*%
X-4064000Y-7937000D03*
%TD*%
D20*
%TO.P,R1,1*%
%TO.N,Net-(JP2-Pad2)*%
X9008000Y7437596D03*
%TO.P,R1,2*%
%TO.N,/COUNT*%
X9008000Y5612596D03*
%TD*%
D21*
%TO.P,R2,1*%
%TO.N,Net-(C2-Pad1)*%
X4608000Y5612596D03*
%TO.P,R2,2*%
%TO.N,Net-(JP2-Pad2)*%
X4608000Y7437596D03*
%TD*%
D12*
%TO.P,R3,1*%
%TO.N,+3V3*%
X-9967000Y7425096D03*
%TO.P,R3,2*%
%TO.N,/SDA*%
X-11617000Y7425096D03*
%TD*%
D22*
%TO.P,C6,1*%
%TO.N,+3V3*%
X3810000Y-6591000D03*
%TO.P,C6,2*%
%TO.N,GND*%
X3810000Y-8141000D03*
%TD*%
D17*
%TO.P,J3,1*%
%TO.N,+5V*%
X-16588000Y-6643904D03*
%TO.P,J3,2*%
%TO.N,/SCL*%
X-16588000Y-5393904D03*
%TO.P,J3,3*%
%TO.N,/SDA*%
X-16588000Y-4143904D03*
%TO.P,J3,4*%
%TO.N,GND*%
X-16588000Y-2893904D03*
D18*
%TO.P,J3,MP*%
X-19788000Y-8493904D03*
X-19788000Y-1043904D03*
%TD*%
D22*
%TO.P,C5,1*%
%TO.N,+3V3*%
X-4419500Y3820096D03*
%TO.P,C5,2*%
%TO.N,GND*%
X-4419500Y2270096D03*
%TD*%
D23*
%TO.P,U1,1,OSCI*%
%TO.N,Net-(R4-Pad1)*%
X-7387000Y-3638000D03*
%TO.P,U1,2,OSCO*%
%TO.N,unconnected-(U1-Pad2)*%
X-8657000Y-3638000D03*
%TO.P,U1,3,A0*%
%TO.N,Net-(JP1-Pad2)*%
X-9927000Y-3638000D03*
%TO.P,U1,4,VSS*%
%TO.N,GND*%
X-11202000Y-3638000D03*
%TO.P,U1,5,SDA*%
%TO.N,/SDA*%
X-11197000Y5162000D03*
%TO.P,U1,6,SCL*%
%TO.N,/SCL*%
X-9927000Y5162000D03*
%TO.P,U1,7,#INT*%
%TO.N,unconnected-(U1-Pad7)*%
X-8592000Y5162000D03*
%TO.P,U1,8,VDD*%
%TO.N,+3V3*%
X-7387000Y5162000D03*
%TD*%
D24*
%TO.P,C1,1*%
%TO.N,+3V3*%
X-292000Y6000096D03*
%TO.P,C1,2*%
%TO.N,GND*%
X-292000Y7550096D03*
%TD*%
%TO.P,C2,1*%
%TO.N,Net-(C2-Pad1)*%
X6808000Y5750096D03*
%TO.P,C2,2*%
%TO.N,GND*%
X6808000Y7300096D03*
%TD*%
D25*
%TO.P,D2,1,K*%
%TO.N,GND*%
X1880000Y-7000000D03*
%TO.P,D2,2,A*%
%TO.N,Net-(D2-Pad2)*%
X-1880000Y-7000000D03*
%TD*%
D26*
%TO.P,FID3,*%
%TO.N,*%
X-14000000Y-8000000D03*
%TD*%
D27*
%TO.P,U2,1*%
%TO.N,N/C*%
X6462000Y-5910904D03*
%TO.P,U2,2*%
%TO.N,/COUNT*%
X7112000Y-5910904D03*
%TO.P,U2,3,GND*%
%TO.N,GND*%
X7762000Y-5910904D03*
%TO.P,U2,4*%
%TO.N,Net-(R4-Pad1)*%
X7762000Y-7810904D03*
%TO.P,U2,5,VCC*%
%TO.N,+3V3*%
X6462000Y-7810904D03*
%TD*%
D28*
%TO.P,R5,1*%
%TO.N,Net-(D3-Pad1)*%
X-6096000Y-7937000D03*
%TO.P,R5,2*%
%TO.N,GND*%
X-6096000Y-6287000D03*
%TD*%
D26*
%TO.P,FID1,*%
%TO.N,*%
X13500000Y6500000D03*
%TD*%
D25*
%TO.P,D3,1,K*%
%TO.N,Net-(D3-Pad1)*%
X-8120000Y-7000000D03*
%TO.P,D3,2,A*%
%TO.N,+5V*%
X-11880000Y-7000000D03*
%TD*%
D26*
%TO.P,FID2,*%
%TO.N,*%
X13500000Y-7000000D03*
%TD*%
D29*
%TO.P,JP2,1,A*%
%TO.N,+5V*%
X1958000Y7725096D03*
D30*
%TO.P,JP2,2,C*%
%TO.N,Net-(JP2-Pad2)*%
X1958000Y6425096D03*
D31*
%TO.P,JP2,3,B*%
%TO.N,+3V3*%
X1958000Y5125096D03*
%TD*%
D32*
%TO.N,GND*%
X-1270000Y8382000D03*
X9398000Y-6606904D03*
X-12192000Y3807096D03*
X-17272000Y-8382000D03*
X-12192000Y-8384904D03*
X-20320000Y3302000D03*
X-20320000Y-6350000D03*
X-20320000Y-3302000D03*
X-20320000Y-5334000D03*
X-20320000Y6350000D03*
X-20320000Y-4318000D03*
X-20320000Y5334000D03*
X-20320000Y4318000D03*
X-16256000Y8506096D03*
X6096000Y-4572000D03*
X6858000Y4572000D03*
X10414000Y-3050904D03*
X11176000Y-6352904D03*
X10414000Y-4320904D03*
X10541000Y8252096D03*
X-2286000Y3807096D03*
X11176000Y-8384904D03*
X11176000Y-7368904D03*
X3048000Y3553096D03*
X3937000Y2537096D03*
X4318000Y1394096D03*
X10414000Y-1778000D03*
X10541000Y7109096D03*
X-2540000Y-8384904D03*
X-14478000Y-2286000D03*
X-17018000Y0D03*
X-508000Y4572000D03*
X2286000Y-8382000D03*
X8382000Y-4574904D03*
X-11176000Y1270000D03*
X-12700000Y-510904D03*
X-2286000Y-5588000D03*
X9398000Y-5590904D03*
X-6604000Y-5334000D03*
X-5942000Y-3624904D03*
X-4826000Y-1270000D03*
X-12700000Y1267096D03*
X-4826000Y508000D03*
X3008000Y-2374904D03*
X-8636000Y2794000D03*
X10541000Y5080000D03*
X10541000Y6096000D03*
X5842000Y4572000D03*
X-7620000Y-8384904D03*
X-17018000Y-1270000D03*
X-12522200Y8506096D03*
X3810000Y-3302000D03*
X-18642000Y6975096D03*
X-17018000Y1270000D03*
X-17526000Y8506096D03*
X-3556000Y-3048000D03*
X-14097000Y8506096D03*
X-5080000Y-5334000D03*
%TO.N,+3V3*%
X-7038000Y2581096D03*
X3048000Y-5588000D03*
%TO.N,+5V*%
X-14224000Y254000D03*
X-12792000Y6325096D03*
X-13716000Y-5842000D03*
X3212000Y7731096D03*
X-3638000Y8128000D03*
%TO.N,/SDA*%
X-15079236Y-3208764D03*
X-18542000Y5842000D03*
X-11688000Y2481096D03*
%TO.N,Net-(JP1-Pad2)*%
X-8636000Y0D03*
%TD*%
D33*
%TO.N,Net-(D2-Pad2)*%
X-3127000Y-7000000D02*
X-4064000Y-7937000D01*
X-1880000Y-7000000D02*
X-3127000Y-7000000D01*
D34*
%TO.N,/COUNT*%
X8890000Y5454596D02*
X9008000Y5572596D01*
X5715000Y-2540000D02*
X8890000Y635000D01*
D33*
X7112000Y-4066904D02*
X5715000Y-2669904D01*
X5715000Y-2669904D02*
X5715000Y-2540000D01*
X7112000Y-4066904D02*
X7112000Y-5910904D01*
D34*
X8890000Y635000D02*
X8890000Y5454596D01*
D33*
%TO.N,+3V3*%
X-7387000Y4375096D02*
X-7387000Y6655096D01*
X1958000Y5125096D02*
X583000Y5125096D01*
D34*
X6462000Y-7810904D02*
X5029904Y-7810904D01*
D33*
X583000Y5125096D02*
X-292000Y6000096D01*
D34*
X-2032000Y5915096D02*
X-589000Y5915096D01*
X3810000Y-6350000D02*
X3048000Y-5588000D01*
D33*
X-6617000Y7600096D02*
X-7316520Y8299616D01*
X-2442000Y5725096D02*
X-2514500Y5725096D01*
D34*
X-7337000Y2880096D02*
X-7387000Y2880096D01*
D33*
X-7316520Y8299616D02*
X-9092480Y8299616D01*
X-7387000Y6655096D02*
X-6617000Y7425096D01*
D34*
X-7038000Y2581096D02*
X-7337000Y2880096D01*
D33*
X-2514500Y5725096D02*
X-4419500Y3820096D01*
X-4419500Y3820096D02*
X-5799000Y3820096D01*
D34*
X3810000Y-6591000D02*
X3810000Y-6350000D01*
X3876404Y-6524596D02*
X3810000Y-6591000D01*
X5029904Y-7810904D02*
X3810000Y-6591000D01*
D33*
X-5799000Y3820096D02*
X-7038000Y2581096D01*
X-9092480Y8299616D02*
X-9967000Y7425096D01*
X-6617000Y7425096D02*
X-6617000Y7600096D01*
D34*
X-7387000Y2880096D02*
X-7387000Y4375096D01*
%TO.N,+5V*%
X-13676096Y-6643904D02*
X-13676096Y-5881904D01*
X-3567480Y5995594D02*
X-3837978Y5725096D01*
X-16088000Y2931096D02*
X-17088000Y2931096D01*
X-16588000Y2931096D02*
X-14340904Y2931096D01*
D33*
X3206000Y7725096D02*
X3212000Y7731096D01*
D34*
X-12792000Y6325096D02*
X-13232904Y6325096D01*
X-3638000Y8081096D02*
X-4094000Y7625096D01*
X-13267000Y7425096D02*
X-13267000Y6800096D01*
X-4094000Y7625096D02*
X-4642000Y7625096D01*
D33*
X1958000Y7725096D02*
X3206000Y7725096D01*
D34*
X-13676096Y-6643904D02*
X-12236096Y-6643904D01*
X-14211000Y1270000D02*
X-14211000Y-941000D01*
X-14224000Y5334000D02*
X-14224000Y3048000D01*
X-14224000Y3048000D02*
X-14224000Y1283000D01*
X-3638000Y8128000D02*
X-3567480Y8057480D01*
X-3837978Y5725096D02*
X-4679500Y5725096D01*
X-14211000Y-941000D02*
X-14286000Y-1016000D01*
X-3638000Y8128000D02*
X-3638000Y8081096D01*
X-3567480Y8057480D02*
X-3567480Y5995594D01*
X-16588000Y-6643904D02*
X-13676096Y-6643904D01*
X-13676096Y-5881904D02*
X-13716000Y-5842000D01*
X-13232904Y6325096D02*
X-14224000Y5334000D01*
X-14340904Y2931096D02*
X-14224000Y3048000D01*
X-12236096Y-6643904D02*
X-11880000Y-7000000D01*
X-14224000Y1283000D02*
X-14211000Y1270000D01*
X-13267000Y6800096D02*
X-12792000Y6325096D01*
D33*
%TO.N,/SDA*%
X-11197000Y2972096D02*
X-11688000Y2481096D01*
D34*
X-15573904Y-4143904D02*
X-15079236Y-3649236D01*
X-18131096Y5431096D02*
X-18542000Y5842000D01*
X-16588000Y5431096D02*
X-18131096Y5431096D01*
X-16588000Y-4143904D02*
X-15573904Y-4143904D01*
D33*
X-11197000Y4375096D02*
X-11197000Y7005096D01*
D34*
X-15079236Y-3649236D02*
X-15079236Y-3208764D01*
D33*
X-11197000Y7005096D02*
X-11617000Y7425096D01*
X-11197000Y4375096D02*
X-11197000Y2972096D01*
D34*
%TO.N,/SCL*%
X-15299904Y-5393904D02*
X-16588000Y-5393904D01*
X-17913000Y-5201000D02*
X-17913000Y3931000D01*
X-16588000Y-5393904D02*
X-17720096Y-5393904D01*
X-8409596Y7425096D02*
X-8267000Y7425096D01*
D33*
X-8267000Y7425096D02*
X-8292000Y7425096D01*
D34*
X-17913000Y3931000D02*
X-17662904Y4181096D01*
X-13716000Y-3302000D02*
X-13716000Y-3810000D01*
D33*
X-9927000Y5790096D02*
X-9927000Y4375096D01*
D34*
X-9927000Y487000D02*
X-13716000Y-3302000D01*
X-17662904Y4181096D02*
X-16588000Y4181096D01*
X-9927000Y5162000D02*
X-9927000Y5907692D01*
X-17720096Y-5393904D02*
X-17913000Y-5201000D01*
X-13716000Y-3810000D02*
X-15299904Y-5393904D01*
X-9927000Y5907692D02*
X-8409596Y7425096D01*
X-9927000Y4375096D02*
X-9927000Y487000D01*
D33*
%TO.N,Net-(R4-Pad1)*%
X5842000Y-6858000D02*
X5334000Y-6350000D01*
X-4064000Y-6287000D02*
X-4064000Y-4531808D01*
X6858000Y-6858000D02*
X5842000Y-6858000D01*
X-4170904Y-4424904D02*
X3195096Y-4424904D01*
X-5649500Y-4424904D02*
X-4170904Y-4424904D01*
X7762000Y-7762000D02*
X6858000Y-6858000D01*
X5334000Y-6350000D02*
X3408904Y-4424904D01*
X3408904Y-4424904D02*
X3195096Y-4424904D01*
X-7387000Y-4424904D02*
X-5649500Y-4424904D01*
X-4064000Y-4531808D02*
X-4170904Y-4424904D01*
X7762000Y-7810904D02*
X7762000Y-7762000D01*
%TO.N,Net-(JP1-Pad2)*%
X-9927000Y-1291000D02*
X-8636000Y0D01*
X-9927000Y-3638000D02*
X-9927000Y-1291000D01*
%TO.N,Net-(JP2-Pad2)*%
X1958000Y6425096D02*
X3595500Y6425096D01*
X3595500Y6425096D02*
X4608000Y7437596D01*
X5470020Y6575576D02*
X8145980Y6575576D01*
X8145980Y6575576D02*
X9008000Y7437596D01*
X4608000Y7437596D02*
X5470020Y6575576D01*
D34*
X2443000Y6347096D02*
X2443000Y6250096D01*
X2443000Y6250096D02*
X2413000Y6220096D01*
%TO.N,Net-(C2-Pad1)*%
X7741489Y5191607D02*
X7360500Y5572596D01*
X7360500Y5572596D02*
X6808000Y5572596D01*
X5715000Y0D02*
X7741489Y2026489D01*
X6808000Y5572596D02*
X4608000Y5572596D01*
X7741489Y2026489D02*
X7741489Y5191607D01*
D33*
%TO.N,Net-(D3-Pad1)*%
X-6970000Y-7000000D02*
X-8120000Y-7000000D01*
X-6096000Y-7874000D02*
X-6970000Y-7000000D01*
X-6096000Y-7937000D02*
X-6096000Y-7874000D01*
%TD*%
%TA.AperFunction,Conductor*%
%TO.N,GND*%
G36*
X15383566Y9007687D02*
G01*
X15408876Y8963850D01*
X15410000Y8951000D01*
X15410000Y-8901000D01*
X15392687Y-8948566D01*
X15348850Y-8973876D01*
X15336000Y-8975000D01*
X-21016000Y-8975000D01*
X-21063566Y-8957687D01*
X-21088876Y-8913850D01*
X-21090000Y-8901000D01*
X-21090000Y-7989455D01*
X-14755175Y-7989455D01*
X-14747960Y-8063044D01*
X-14743305Y-8110513D01*
X-14738745Y-8157025D01*
X-14737441Y-8160946D01*
X-14737440Y-8160949D01*
X-14704920Y-8258708D01*
X-14685598Y-8316791D01*
X-14598376Y-8460812D01*
X-14577895Y-8482021D01*
X-14541218Y-8520000D01*
X-14481414Y-8581929D01*
X-14477955Y-8584193D01*
X-14477952Y-8584195D01*
X-14343990Y-8671858D01*
X-14343987Y-8671860D01*
X-14340525Y-8674125D01*
X-14336645Y-8675568D01*
X-14186589Y-8731373D01*
X-14186587Y-8731373D01*
X-14182711Y-8732815D01*
X-14139781Y-8738543D01*
X-14019920Y-8754536D01*
X-14019916Y-8754536D01*
X-14015817Y-8755083D01*
X-14011696Y-8754708D01*
X-14011692Y-8754708D01*
X-13940113Y-8748193D01*
X-13848136Y-8739823D01*
X-13688003Y-8687793D01*
X-13667495Y-8675568D01*
X-13546930Y-8603696D01*
X-13543377Y-8601578D01*
X-13421446Y-8485465D01*
X-13328269Y-8345223D01*
X-13317469Y-8316791D01*
X-13269948Y-8191692D01*
X-13269947Y-8191686D01*
X-13268479Y-8187823D01*
X-13266933Y-8176824D01*
X-13245368Y-8023389D01*
X-13245368Y-8023383D01*
X-13245045Y-8021088D01*
X-13244907Y-8011205D01*
X-13244783Y-8002329D01*
X-13244783Y-8002322D01*
X-13244751Y-8000000D01*
X-13263519Y-7832676D01*
X-13265067Y-7828231D01*
X-13317532Y-7677572D01*
X-13317534Y-7677568D01*
X-13318892Y-7673668D01*
X-13354020Y-7617451D01*
X-13405923Y-7534388D01*
X-13405925Y-7534386D01*
X-13408116Y-7530879D01*
X-13526758Y-7411406D01*
X-13668921Y-7321187D01*
X-13705842Y-7308040D01*
X-13823636Y-7266095D01*
X-13823640Y-7266094D01*
X-13827538Y-7264706D01*
X-13831646Y-7264216D01*
X-13831651Y-7264215D01*
X-13990618Y-7245259D01*
X-13994727Y-7244769D01*
X-13998837Y-7245201D01*
X-13998838Y-7245201D01*
X-14158070Y-7261937D01*
X-14158071Y-7261937D01*
X-14162179Y-7262369D01*
X-14178987Y-7268091D01*
X-14317658Y-7315298D01*
X-14317662Y-7315300D01*
X-14321569Y-7316630D01*
X-14464978Y-7404856D01*
X-14585276Y-7522661D01*
X-14676485Y-7664190D01*
X-14687661Y-7694896D01*
X-14732657Y-7818517D01*
X-14732658Y-7818522D01*
X-14734073Y-7822409D01*
X-14734592Y-7826514D01*
X-14734592Y-7826516D01*
X-14754410Y-7983402D01*
X-14755175Y-7989455D01*
X-21090000Y-7989455D01*
X-21090000Y-6827122D01*
X-17638500Y-6827122D01*
X-17638105Y-6829805D01*
X-17629196Y-6890327D01*
X-17629195Y-6890330D01*
X-17628358Y-6896016D01*
X-17625825Y-6901176D01*
X-17625824Y-6901178D01*
X-17605108Y-6943371D01*
X-17576932Y-7000759D01*
X-17572603Y-7005080D01*
X-17572602Y-7005082D01*
X-17498679Y-7078876D01*
X-17494350Y-7083197D01*
X-17488853Y-7085884D01*
X-17395066Y-7131728D01*
X-17389518Y-7134440D01*
X-17321218Y-7144404D01*
X-15854782Y-7144404D01*
X-15848637Y-7143499D01*
X-15791577Y-7135100D01*
X-15791574Y-7135099D01*
X-15785888Y-7134262D01*
X-15780728Y-7131729D01*
X-15780726Y-7131728D01*
X-15720133Y-7101978D01*
X-15687520Y-7094404D01*
X-13736203Y-7094404D01*
X-13719496Y-7096315D01*
X-13711841Y-7098089D01*
X-13662410Y-7094589D01*
X-13657184Y-7094404D01*
X-12904500Y-7094404D01*
X-12856934Y-7111717D01*
X-12831624Y-7155554D01*
X-12830500Y-7168404D01*
X-12830500Y-7769748D01*
X-12818867Y-7828231D01*
X-12814816Y-7834293D01*
X-12814816Y-7834294D01*
X-12778602Y-7888491D01*
X-12774552Y-7894552D01*
X-12768491Y-7898602D01*
X-12724654Y-7927893D01*
X-12708231Y-7938867D01*
X-12663705Y-7947724D01*
X-12653318Y-7949790D01*
X-12653317Y-7949790D01*
X-12649748Y-7950500D01*
X-11624937Y-7950500D01*
X-11577371Y-7967813D01*
X-11553459Y-8005347D01*
X-11543282Y-8043327D01*
X-11541915Y-8046258D01*
X-11470699Y-8198982D01*
X-11470696Y-8198988D01*
X-11469333Y-8201910D01*
X-11467480Y-8204557D01*
X-11467479Y-8204558D01*
X-11459514Y-8215933D01*
X-11368970Y-8345243D01*
X-11245243Y-8468970D01*
X-11101910Y-8569333D01*
X-11098988Y-8570696D01*
X-11098982Y-8570699D01*
X-10946248Y-8641920D01*
X-10943327Y-8643282D01*
X-10940213Y-8644116D01*
X-10940214Y-8644116D01*
X-10777426Y-8687735D01*
X-10777422Y-8687736D01*
X-10774312Y-8688569D01*
X-10704489Y-8694678D01*
X-10643147Y-8700045D01*
X-10637320Y-8700789D01*
X-10615167Y-8704516D01*
X-10615165Y-8704516D01*
X-10612343Y-8704991D01*
X-10606172Y-8705067D01*
X-10602863Y-8705107D01*
X-10600001Y-8705142D01*
X-10569312Y-8700747D01*
X-10558821Y-8700000D01*
X-9448186Y-8700000D01*
X-9435909Y-8701026D01*
X-9415165Y-8704516D01*
X-9415164Y-8704516D01*
X-9412341Y-8704991D01*
X-9405236Y-8705078D01*
X-9402861Y-8705107D01*
X-9399999Y-8705142D01*
X-9397167Y-8704736D01*
X-9397161Y-8704736D01*
X-9378273Y-8702031D01*
X-9374246Y-8701567D01*
X-9225688Y-8688569D01*
X-9222578Y-8687736D01*
X-9222574Y-8687735D01*
X-9059786Y-8644116D01*
X-9059787Y-8644116D01*
X-9056673Y-8643282D01*
X-9053752Y-8641920D01*
X-8901018Y-8570699D01*
X-8901012Y-8570696D01*
X-8898090Y-8569333D01*
X-8754757Y-8468970D01*
X-8631030Y-8345243D01*
X-8540486Y-8215933D01*
X-8532521Y-8204558D01*
X-8532520Y-8204557D01*
X-8530667Y-8201910D01*
X-8529304Y-8198988D01*
X-8529301Y-8198982D01*
X-8458085Y-8046258D01*
X-8456718Y-8043327D01*
X-8446541Y-8005347D01*
X-8417507Y-7963882D01*
X-8375063Y-7950500D01*
X-7350252Y-7950500D01*
X-7346683Y-7949790D01*
X-7346682Y-7949790D01*
X-7336295Y-7947724D01*
X-7291769Y-7938867D01*
X-7275345Y-7927893D01*
X-7231509Y-7898602D01*
X-7225448Y-7894552D01*
X-7221398Y-7888491D01*
X-7185184Y-7834294D01*
X-7185184Y-7834293D01*
X-7181133Y-7828231D01*
X-7169500Y-7769748D01*
X-7169500Y-7545545D01*
X-7152187Y-7497979D01*
X-7108350Y-7472669D01*
X-7058500Y-7481459D01*
X-7043174Y-7493219D01*
X-6793174Y-7743219D01*
X-6771782Y-7789095D01*
X-6771500Y-7795545D01*
X-6771499Y-7983402D01*
X-6771499Y-8168518D01*
X-6771044Y-8171390D01*
X-6771044Y-8171392D01*
X-6768442Y-8187823D01*
X-6756646Y-8262304D01*
X-6750485Y-8274395D01*
X-6701696Y-8370150D01*
X-6701694Y-8370152D01*
X-6699050Y-8375342D01*
X-6609342Y-8465050D01*
X-6604152Y-8467694D01*
X-6604150Y-8467696D01*
X-6501498Y-8520000D01*
X-6501495Y-8520001D01*
X-6496304Y-8522646D01*
X-6490552Y-8523557D01*
X-6490549Y-8523558D01*
X-6405398Y-8537044D01*
X-6402519Y-8537500D01*
X-6096000Y-8537500D01*
X-5789482Y-8537499D01*
X-5786610Y-8537044D01*
X-5786608Y-8537044D01*
X-5754910Y-8532024D01*
X-5695696Y-8522646D01*
X-5628318Y-8488315D01*
X-5587850Y-8467696D01*
X-5587848Y-8467694D01*
X-5582658Y-8465050D01*
X-5492950Y-8375342D01*
X-5490306Y-8370152D01*
X-5490304Y-8370150D01*
X-5438000Y-8267498D01*
X-5437999Y-8267495D01*
X-5435354Y-8262304D01*
X-5434443Y-8256552D01*
X-5434442Y-8256549D01*
X-5420955Y-8171392D01*
X-5420500Y-8168519D01*
X-5420501Y-7705482D01*
X-5422177Y-7694896D01*
X-5434443Y-7617450D01*
X-5435354Y-7611696D01*
X-5469060Y-7545545D01*
X-5490304Y-7503850D01*
X-5490306Y-7503848D01*
X-5492950Y-7498658D01*
X-5582658Y-7408950D01*
X-5587848Y-7406306D01*
X-5587850Y-7406304D01*
X-5690502Y-7354000D01*
X-5690505Y-7353999D01*
X-5695696Y-7351354D01*
X-5701448Y-7350443D01*
X-5701451Y-7350442D01*
X-5786608Y-7336955D01*
X-5789481Y-7336500D01*
X-6036455Y-7336500D01*
X-6084021Y-7319187D01*
X-6088781Y-7314826D01*
X-6709091Y-6694516D01*
X-6709095Y-6694513D01*
X-6731658Y-6671950D01*
X-6739267Y-6668073D01*
X-6754902Y-6660106D01*
X-6764802Y-6654039D01*
X-6781196Y-6642128D01*
X-6781201Y-6642126D01*
X-6785910Y-6638704D01*
X-6791448Y-6636905D01*
X-6791449Y-6636904D01*
X-6810722Y-6630642D01*
X-6821450Y-6626198D01*
X-6839503Y-6617000D01*
X-6844696Y-6614354D01*
X-6866448Y-6610909D01*
X-6870463Y-6610273D01*
X-6881754Y-6607562D01*
X-6901026Y-6601300D01*
X-6901029Y-6601300D01*
X-6906567Y-6599500D01*
X-7095500Y-6599500D01*
X-7143066Y-6582187D01*
X-7168376Y-6538350D01*
X-7169500Y-6525500D01*
X-7169500Y-6230252D01*
X-7181133Y-6171769D01*
X-7199827Y-6143791D01*
X-7221398Y-6111509D01*
X-7225448Y-6105448D01*
X-7291769Y-6061133D01*
X-7336295Y-6052276D01*
X-7346682Y-6050210D01*
X-7346683Y-6050210D01*
X-7350252Y-6049500D01*
X-8375063Y-6049500D01*
X-8422629Y-6032187D01*
X-8446541Y-5994653D01*
X-8455880Y-5959801D01*
X-8456718Y-5956673D01*
X-8506802Y-5849268D01*
X-8529301Y-5801018D01*
X-8529304Y-5801012D01*
X-8530667Y-5798090D01*
X-8534054Y-5793252D01*
X-8596779Y-5703673D01*
X-8631030Y-5654757D01*
X-8754757Y-5531030D01*
X-8898090Y-5430667D01*
X-8901012Y-5429304D01*
X-8901018Y-5429301D01*
X-9053752Y-5358080D01*
X-9053753Y-5358080D01*
X-9056673Y-5356718D01*
X-9108071Y-5342946D01*
X-9222574Y-5312265D01*
X-9222578Y-5312264D01*
X-9225688Y-5311431D01*
X-9300770Y-5304862D01*
X-9356853Y-5299955D01*
X-9362680Y-5299211D01*
X-9384833Y-5295484D01*
X-9384835Y-5295484D01*
X-9387657Y-5295009D01*
X-9393828Y-5294933D01*
X-9397137Y-5294893D01*
X-9399999Y-5294858D01*
X-9402827Y-5295263D01*
X-9430688Y-5299253D01*
X-9441179Y-5300000D01*
X-10551814Y-5300000D01*
X-10564091Y-5298974D01*
X-10584835Y-5295484D01*
X-10584836Y-5295484D01*
X-10587659Y-5295009D01*
X-10594764Y-5294922D01*
X-10597139Y-5294893D01*
X-10600001Y-5294858D01*
X-10602833Y-5295264D01*
X-10602839Y-5295264D01*
X-10621727Y-5297969D01*
X-10625754Y-5298433D01*
X-10774312Y-5311431D01*
X-10777422Y-5312264D01*
X-10777426Y-5312265D01*
X-10891929Y-5342946D01*
X-10943327Y-5356718D01*
X-10946247Y-5358080D01*
X-10946248Y-5358080D01*
X-11098982Y-5429301D01*
X-11098988Y-5429304D01*
X-11101910Y-5430667D01*
X-11245243Y-5531030D01*
X-11368970Y-5654757D01*
X-11403221Y-5703673D01*
X-11465945Y-5793252D01*
X-11469333Y-5798090D01*
X-11470696Y-5801012D01*
X-11470699Y-5801018D01*
X-11493198Y-5849268D01*
X-11543282Y-5956673D01*
X-11544120Y-5959801D01*
X-11553459Y-5994653D01*
X-11582493Y-6036118D01*
X-11624937Y-6049500D01*
X-12649748Y-6049500D01*
X-12653317Y-6050210D01*
X-12653318Y-6050210D01*
X-12663705Y-6052276D01*
X-12708231Y-6061133D01*
X-12774552Y-6105448D01*
X-12778602Y-6111509D01*
X-12811349Y-6160517D01*
X-12852171Y-6190448D01*
X-12872877Y-6193404D01*
X-13100831Y-6193404D01*
X-13148397Y-6176091D01*
X-13173707Y-6132254D01*
X-13169198Y-6091085D01*
X-13155655Y-6058391D01*
X-13130956Y-5998762D01*
X-13126833Y-5967450D01*
X-13110951Y-5846808D01*
X-13110318Y-5842000D01*
X-13119703Y-5770713D01*
X-13130323Y-5690043D01*
X-13130324Y-5690040D01*
X-13130956Y-5685238D01*
X-13191464Y-5539159D01*
X-13194414Y-5535315D01*
X-13194416Y-5535311D01*
X-13284763Y-5417569D01*
X-13287718Y-5413718D01*
X-13323692Y-5386114D01*
X-13409311Y-5320416D01*
X-13409315Y-5320414D01*
X-13413159Y-5317464D01*
X-13559238Y-5256956D01*
X-13564040Y-5256324D01*
X-13564043Y-5256323D01*
X-13711192Y-5236951D01*
X-13716000Y-5236318D01*
X-13720808Y-5236951D01*
X-13867957Y-5256323D01*
X-13867960Y-5256324D01*
X-13872762Y-5256956D01*
X-14018841Y-5317464D01*
X-14022685Y-5320414D01*
X-14022689Y-5320416D01*
X-14108308Y-5386114D01*
X-14144282Y-5413718D01*
X-14147237Y-5417569D01*
X-14237584Y-5535311D01*
X-14237586Y-5535315D01*
X-14240536Y-5539159D01*
X-14301044Y-5685238D01*
X-14301676Y-5690040D01*
X-14301677Y-5690043D01*
X-14312297Y-5770713D01*
X-14321682Y-5842000D01*
X-14321049Y-5846808D01*
X-14305166Y-5967450D01*
X-14301044Y-5998762D01*
X-14276344Y-6058391D01*
X-14262802Y-6091085D01*
X-14260594Y-6141656D01*
X-14291409Y-6181815D01*
X-14331169Y-6193404D01*
X-15687458Y-6193404D01*
X-15719955Y-6185887D01*
X-15781322Y-6155890D01*
X-15781323Y-6155890D01*
X-15786482Y-6153368D01*
X-15854782Y-6143404D01*
X-17321218Y-6143404D01*
X-17323901Y-6143799D01*
X-17384423Y-6152708D01*
X-17384426Y-6152709D01*
X-17390112Y-6153546D01*
X-17395272Y-6156079D01*
X-17395274Y-6156080D01*
X-17426047Y-6171189D01*
X-17494855Y-6204972D01*
X-17499176Y-6209301D01*
X-17499178Y-6209302D01*
X-17572972Y-6283225D01*
X-17577293Y-6287554D01*
X-17579980Y-6293051D01*
X-17622704Y-6380456D01*
X-17628536Y-6392386D01*
X-17638500Y-6460686D01*
X-17638500Y-6827122D01*
X-21090000Y-6827122D01*
X-21090000Y-5215310D01*
X-18368364Y-5215310D01*
X-18367370Y-5220752D01*
X-18367370Y-5220755D01*
X-18357682Y-5273800D01*
X-18357300Y-5276093D01*
X-18351359Y-5315609D01*
X-18348449Y-5334962D01*
X-18346126Y-5339798D01*
X-18346044Y-5340136D01*
X-18345953Y-5340400D01*
X-18345227Y-5342637D01*
X-18345132Y-5342946D01*
X-18344988Y-5343296D01*
X-18344025Y-5348573D01*
X-18341475Y-5353482D01*
X-18316618Y-5401334D01*
X-18315583Y-5403405D01*
X-18306934Y-5421417D01*
X-18299910Y-5436043D01*
X-18289809Y-5457079D01*
X-18286163Y-5461023D01*
X-18285621Y-5461931D01*
X-18283525Y-5465042D01*
X-18281579Y-5468788D01*
X-18277275Y-5473828D01*
X-18239305Y-5511798D01*
X-18237291Y-5513893D01*
X-18197854Y-5556556D01*
X-18193072Y-5559334D01*
X-18189705Y-5562031D01*
X-18183646Y-5567457D01*
X-18060673Y-5690430D01*
X-18054886Y-5696943D01*
X-18036544Y-5720209D01*
X-18031968Y-5726014D01*
X-18027419Y-5729158D01*
X-18027418Y-5729159D01*
X-17983040Y-5759830D01*
X-17981148Y-5761182D01*
X-17937730Y-5793252D01*
X-17937726Y-5793254D01*
X-17933280Y-5796538D01*
X-17928214Y-5798316D01*
X-17927911Y-5798501D01*
X-17927651Y-5798628D01*
X-17925590Y-5799678D01*
X-17925285Y-5799840D01*
X-17924941Y-5799984D01*
X-17920527Y-5803035D01*
X-17880172Y-5815798D01*
X-17863828Y-5820967D01*
X-17861625Y-5821702D01*
X-17814145Y-5838375D01*
X-17805465Y-5841423D01*
X-17800102Y-5841633D01*
X-17799083Y-5841891D01*
X-17795393Y-5842610D01*
X-17791366Y-5843884D01*
X-17784759Y-5844404D01*
X-17731057Y-5844404D01*
X-17728151Y-5844461D01*
X-17675630Y-5846525D01*
X-17675629Y-5846525D01*
X-17670102Y-5846742D01*
X-17664755Y-5845324D01*
X-17660470Y-5844851D01*
X-17652349Y-5844404D01*
X-17488542Y-5844404D01*
X-17456045Y-5851921D01*
X-17394678Y-5881918D01*
X-17394677Y-5881918D01*
X-17389518Y-5884440D01*
X-17321218Y-5894404D01*
X-15854782Y-5894404D01*
X-15848637Y-5893499D01*
X-15791577Y-5885100D01*
X-15791574Y-5885099D01*
X-15785888Y-5884262D01*
X-15780728Y-5881729D01*
X-15780726Y-5881728D01*
X-15741155Y-5862299D01*
X-15720132Y-5851978D01*
X-15687520Y-5844404D01*
X-15331055Y-5844404D01*
X-15322358Y-5844917D01*
X-15310712Y-5846295D01*
X-15285594Y-5849268D01*
X-15280152Y-5848274D01*
X-15280149Y-5848274D01*
X-15227104Y-5838586D01*
X-15224811Y-5838204D01*
X-15171408Y-5830175D01*
X-15171407Y-5830175D01*
X-15165942Y-5829353D01*
X-15161106Y-5827030D01*
X-15160768Y-5826948D01*
X-15160504Y-5826857D01*
X-15158267Y-5826131D01*
X-15157958Y-5826036D01*
X-15157608Y-5825892D01*
X-15152331Y-5824929D01*
X-15099562Y-5797518D01*
X-15097491Y-5796483D01*
X-15048812Y-5773108D01*
X-15048811Y-5773107D01*
X-15043825Y-5770713D01*
X-15039881Y-5767067D01*
X-15038973Y-5766525D01*
X-15035862Y-5764429D01*
X-15032116Y-5762483D01*
X-15027076Y-5758179D01*
X-14989106Y-5720209D01*
X-14987011Y-5718195D01*
X-14948411Y-5682514D01*
X-14948410Y-5682513D01*
X-14944348Y-5678758D01*
X-14941570Y-5673975D01*
X-14938871Y-5670606D01*
X-14933445Y-5664548D01*
X-13894681Y-4625785D01*
X-10477500Y-4625785D01*
X-10462206Y-4737432D01*
X-10402305Y-4875855D01*
X-10380025Y-4903368D01*
X-10315580Y-4982951D01*
X-10307386Y-4993070D01*
X-10303274Y-4995992D01*
X-10188553Y-5077521D01*
X-10188550Y-5077523D01*
X-10184442Y-5080442D01*
X-10042532Y-5131533D01*
X-10037503Y-5131902D01*
X-10037500Y-5131903D01*
X-9961117Y-5137512D01*
X-9892109Y-5142580D01*
X-9887165Y-5141583D01*
X-9887163Y-5141583D01*
X-9749200Y-5113764D01*
X-9749198Y-5113763D01*
X-9744257Y-5112767D01*
X-9609868Y-5044293D01*
X-9557341Y-4995992D01*
X-9502559Y-4945618D01*
X-9502556Y-4945614D01*
X-9498844Y-4942201D01*
X-9496187Y-4937915D01*
X-9496184Y-4937912D01*
X-9442817Y-4851838D01*
X-9419365Y-4814014D01*
X-9377285Y-4669175D01*
X-9376744Y-4661806D01*
X-9376599Y-4659840D01*
X-9376599Y-4659826D01*
X-9376500Y-4658485D01*
X-9376500Y-4625785D01*
X-9207500Y-4625785D01*
X-9192206Y-4737432D01*
X-9132305Y-4875855D01*
X-9110025Y-4903368D01*
X-9045580Y-4982951D01*
X-9037386Y-4993070D01*
X-9033274Y-4995992D01*
X-8918553Y-5077521D01*
X-8918550Y-5077523D01*
X-8914442Y-5080442D01*
X-8772532Y-5131533D01*
X-8767503Y-5131902D01*
X-8767500Y-5131903D01*
X-8691117Y-5137512D01*
X-8622109Y-5142580D01*
X-8617165Y-5141583D01*
X-8617163Y-5141583D01*
X-8479200Y-5113764D01*
X-8479198Y-5113763D01*
X-8474257Y-5112767D01*
X-8339868Y-5044293D01*
X-8287341Y-4995992D01*
X-8232559Y-4945618D01*
X-8232556Y-4945614D01*
X-8228844Y-4942201D01*
X-8226187Y-4937915D01*
X-8226184Y-4937912D01*
X-8172817Y-4851838D01*
X-8149365Y-4814014D01*
X-8107285Y-4669175D01*
X-8106744Y-4661806D01*
X-8106599Y-4659840D01*
X-8106599Y-4659826D01*
X-8106500Y-4658485D01*
X-8106500Y-2650215D01*
X-8121794Y-2538568D01*
X-8181695Y-2400145D01*
X-8238189Y-2330381D01*
X-8273440Y-2286849D01*
X-8273442Y-2286847D01*
X-8276614Y-2282930D01*
X-8317301Y-2254015D01*
X-8395447Y-2198479D01*
X-8395450Y-2198477D01*
X-8399558Y-2195558D01*
X-8541468Y-2144467D01*
X-8546497Y-2144098D01*
X-8546500Y-2144097D01*
X-8622883Y-2138488D01*
X-8691891Y-2133420D01*
X-8696835Y-2134417D01*
X-8696837Y-2134417D01*
X-8834800Y-2162236D01*
X-8834802Y-2162237D01*
X-8839743Y-2163233D01*
X-8974132Y-2231707D01*
X-9021364Y-2275139D01*
X-9081441Y-2330382D01*
X-9081444Y-2330386D01*
X-9085156Y-2333799D01*
X-9087813Y-2338085D01*
X-9087816Y-2338088D01*
X-9123862Y-2396226D01*
X-9164635Y-2461986D01*
X-9206715Y-2606825D01*
X-9206999Y-2610694D01*
X-9207401Y-2616160D01*
X-9207401Y-2616174D01*
X-9207500Y-2617515D01*
X-9207500Y-4625785D01*
X-9376500Y-4625785D01*
X-9376500Y-2650215D01*
X-9391794Y-2538568D01*
X-9451695Y-2400145D01*
X-9510009Y-2328133D01*
X-9526500Y-2281564D01*
X-9526500Y-1487545D01*
X-9509187Y-1439979D01*
X-9504826Y-1435219D01*
X-8696330Y-626723D01*
X-8650454Y-605331D01*
X-8644004Y-605049D01*
X-8640808Y-605049D01*
X-8636000Y-605682D01*
X-8631192Y-605049D01*
X-8484043Y-585677D01*
X-8484040Y-585676D01*
X-8479238Y-585044D01*
X-8333159Y-524536D01*
X-8329315Y-521586D01*
X-8329311Y-521584D01*
X-8211569Y-431237D01*
X-8207718Y-428282D01*
X-8174589Y-385107D01*
X-8114416Y-306689D01*
X-8114414Y-306685D01*
X-8111464Y-302841D01*
X-8050956Y-156762D01*
X-8038260Y-60330D01*
X-8030951Y-4808D01*
X-8030318Y0D01*
X-8042530Y92760D01*
X-8050323Y151957D01*
X-8050324Y151960D01*
X-8050956Y156762D01*
X-8111464Y302841D01*
X-8114414Y306685D01*
X-8114416Y306689D01*
X-8204763Y424431D01*
X-8207718Y428282D01*
X-8269956Y476039D01*
X-8329311Y521584D01*
X-8329315Y521586D01*
X-8333159Y524536D01*
X-8479238Y585044D01*
X-8484040Y585676D01*
X-8484043Y585677D01*
X-8631192Y605049D01*
X-8636000Y605682D01*
X-8640808Y605049D01*
X-8787957Y585677D01*
X-8787960Y585676D01*
X-8792762Y585044D01*
X-8938841Y524536D01*
X-8942685Y521586D01*
X-8942689Y521584D01*
X-9002044Y476039D01*
X-9064282Y428282D01*
X-9067237Y424431D01*
X-9157584Y306689D01*
X-9157586Y306685D01*
X-9160536Y302841D01*
X-9221044Y156762D01*
X-9221676Y151960D01*
X-9221677Y151957D01*
X-9229470Y92760D01*
X-9241682Y0D01*
X-9241049Y-4808D01*
X-9241049Y-8004D01*
X-9258362Y-55570D01*
X-9262723Y-60330D01*
X-10232484Y-1030091D01*
X-10232487Y-1030095D01*
X-10255050Y-1052658D01*
X-10257694Y-1057846D01*
X-10257694Y-1057847D01*
X-10266894Y-1075902D01*
X-10272961Y-1085802D01*
X-10284872Y-1102196D01*
X-10284874Y-1102201D01*
X-10288296Y-1106910D01*
X-10290095Y-1112448D01*
X-10290096Y-1112449D01*
X-10296358Y-1131722D01*
X-10300802Y-1142450D01*
X-10309896Y-1160299D01*
X-10312646Y-1165696D01*
X-10313557Y-1171449D01*
X-10316727Y-1191463D01*
X-10319438Y-1202754D01*
X-10325700Y-1222026D01*
X-10327500Y-1227567D01*
X-10327500Y-2275884D01*
X-10344813Y-2323450D01*
X-10351409Y-2330353D01*
X-10355156Y-2333799D01*
X-10357813Y-2338085D01*
X-10357816Y-2338088D01*
X-10393862Y-2396226D01*
X-10434635Y-2461986D01*
X-10476715Y-2606825D01*
X-10476999Y-2610694D01*
X-10477401Y-2616160D01*
X-10477401Y-2616174D01*
X-10477500Y-2617515D01*
X-10477500Y-4625785D01*
X-13894681Y-4625785D01*
X-13419469Y-4150573D01*
X-13412956Y-4144786D01*
X-13388235Y-4125297D01*
X-13383890Y-4121872D01*
X-13380745Y-4117322D01*
X-13350087Y-4072964D01*
X-13348736Y-4071074D01*
X-13316651Y-4027633D01*
X-13316649Y-4027629D01*
X-13313365Y-4023183D01*
X-13311587Y-4018119D01*
X-13311403Y-4017817D01*
X-13311283Y-4017571D01*
X-13310227Y-4015500D01*
X-13310068Y-4015200D01*
X-13309919Y-4014843D01*
X-13306869Y-4010431D01*
X-13305202Y-4005160D01*
X-13305198Y-4005152D01*
X-13288935Y-3953729D01*
X-13288200Y-3951524D01*
X-13270313Y-3900588D01*
X-13268480Y-3895369D01*
X-13268269Y-3890001D01*
X-13268010Y-3888975D01*
X-13267293Y-3885298D01*
X-13266020Y-3881270D01*
X-13265500Y-3874663D01*
X-13265500Y-3820986D01*
X-13265443Y-3818080D01*
X-13263378Y-3765534D01*
X-13263378Y-3765533D01*
X-13263161Y-3760006D01*
X-13264579Y-3754659D01*
X-13265053Y-3750365D01*
X-13265500Y-3742244D01*
X-13265500Y-3519255D01*
X-13248187Y-3471689D01*
X-13243826Y-3466929D01*
X-9630474Y146423D01*
X-9623961Y152210D01*
X-9599234Y171703D01*
X-9599232Y171705D01*
X-9594890Y175128D01*
X-9574223Y205030D01*
X-9561074Y224056D01*
X-9559722Y225948D01*
X-9527652Y269366D01*
X-9527650Y269370D01*
X-9524366Y273816D01*
X-9522588Y278882D01*
X-9522403Y279185D01*
X-9522276Y279445D01*
X-9521226Y281506D01*
X-9521064Y281811D01*
X-9520920Y282155D01*
X-9517869Y286569D01*
X-9499937Y343268D01*
X-9499202Y345471D01*
X-9481315Y396408D01*
X-9481315Y396409D01*
X-9479481Y401631D01*
X-9479271Y406994D01*
X-9479013Y408013D01*
X-9478294Y411703D01*
X-9477020Y415730D01*
X-9476500Y422337D01*
X-9476500Y476039D01*
X-9476443Y478945D01*
X-9474379Y531466D01*
X-9474379Y531467D01*
X-9474162Y536994D01*
X-9475580Y542341D01*
X-9476053Y546626D01*
X-9476500Y554747D01*
X-9476500Y3872757D01*
X-9465392Y3911752D01*
X-9454572Y3929203D01*
X-9419365Y3985986D01*
X-9378811Y4125572D01*
X-9378366Y4127103D01*
X-9378365Y4127106D01*
X-9377285Y4130825D01*
X-9376869Y4136494D01*
X-9376599Y4140160D01*
X-9376599Y4140174D01*
X-9376500Y4141515D01*
X-9376500Y5790437D01*
X-9359187Y5838003D01*
X-9354826Y5842763D01*
X-9268826Y5928763D01*
X-9222950Y5950155D01*
X-9174055Y5937054D01*
X-9145021Y5895590D01*
X-9142500Y5876437D01*
X-9142500Y4174215D01*
X-9127206Y4062568D01*
X-9067305Y3924145D01*
X-9024564Y3871364D01*
X-8992500Y3831769D01*
X-8972386Y3806930D01*
X-8955289Y3794780D01*
X-8853553Y3722479D01*
X-8853550Y3722477D01*
X-8849442Y3719558D01*
X-8844698Y3717850D01*
X-8729703Y3676449D01*
X-8707532Y3668467D01*
X-8702503Y3668098D01*
X-8702500Y3668097D01*
X-8626117Y3662488D01*
X-8557109Y3657420D01*
X-8552165Y3658417D01*
X-8552163Y3658417D01*
X-8414200Y3686236D01*
X-8414198Y3686237D01*
X-8409257Y3687233D01*
X-8274868Y3755707D01*
X-8220649Y3805564D01*
X-8167559Y3854382D01*
X-8167556Y3854386D01*
X-8163844Y3857799D01*
X-8161187Y3862085D01*
X-8161184Y3862088D01*
X-8087024Y3981698D01*
X-8084365Y3985986D01*
X-8062884Y4059922D01*
X-8032987Y4100769D01*
X-7983829Y4112843D01*
X-7938411Y4090494D01*
X-7922428Y4062472D01*
X-7922206Y4062568D01*
X-7862305Y3924145D01*
X-7853990Y3913877D01*
X-7837500Y3867309D01*
X-7837500Y2940203D01*
X-7839411Y2923496D01*
X-7841185Y2915841D01*
X-7840794Y2910322D01*
X-7837685Y2866411D01*
X-7837500Y2861184D01*
X-7837500Y2846246D01*
X-7837091Y2843524D01*
X-7837090Y2843513D01*
X-7835583Y2833492D01*
X-7834946Y2827721D01*
X-7833890Y2812816D01*
X-7832745Y2796648D01*
X-7831617Y2780712D01*
X-7829622Y2775556D01*
X-7829621Y2775551D01*
X-7828073Y2771551D01*
X-7823909Y2755847D01*
X-7822449Y2746134D01*
X-7820055Y2741149D01*
X-7820055Y2741148D01*
X-7802048Y2703648D01*
X-7799741Y2698317D01*
X-7782739Y2654370D01*
X-7779316Y2650028D01*
X-7776656Y2646654D01*
X-7768061Y2632872D01*
X-7763809Y2624017D01*
X-7760056Y2619957D01*
X-7760052Y2619951D01*
X-7731815Y2589404D01*
X-7728043Y2584988D01*
X-7698872Y2547986D01*
X-7694317Y2544838D01*
X-7690793Y2542402D01*
X-7678523Y2531755D01*
X-7671854Y2524540D01*
X-7667069Y2521761D01*
X-7664740Y2520408D01*
X-7663447Y2518859D01*
X-7662753Y2518303D01*
X-7662866Y2518162D01*
X-7632304Y2481547D01*
X-7628540Y2466078D01*
X-7623868Y2430596D01*
X-7623044Y2424334D01*
X-7562536Y2278255D01*
X-7559586Y2274411D01*
X-7559584Y2274407D01*
X-7485804Y2178255D01*
X-7466282Y2152814D01*
X-7462431Y2149859D01*
X-7344689Y2059512D01*
X-7344685Y2059510D01*
X-7340841Y2056560D01*
X-7194762Y1996052D01*
X-7189960Y1995420D01*
X-7189957Y1995419D01*
X-7042808Y1976047D01*
X-7038000Y1975414D01*
X-7033192Y1976047D01*
X-6886043Y1995419D01*
X-6886040Y1995420D01*
X-6881238Y1996052D01*
X-6735159Y2056560D01*
X-6731315Y2059510D01*
X-6731311Y2059512D01*
X-6613569Y2149859D01*
X-6609718Y2152814D01*
X-6590196Y2178255D01*
X-6516416Y2274407D01*
X-6516414Y2274411D01*
X-6513464Y2278255D01*
X-6452956Y2424334D01*
X-6452131Y2430596D01*
X-6432951Y2576288D01*
X-6432318Y2581096D01*
X-6432951Y2585904D01*
X-6432951Y2589100D01*
X-6415638Y2636666D01*
X-6411277Y2641426D01*
X-6249507Y2803196D01*
X4378662Y2803196D01*
X4380281Y2796648D01*
X4383911Y2794000D01*
X5447952Y2794000D01*
X5457948Y2797638D01*
X5461000Y2802925D01*
X5461000Y2807048D01*
X5969000Y2807048D01*
X5972638Y2797052D01*
X5977925Y2794000D01*
X7038411Y2794000D01*
X7048407Y2797638D01*
X7049621Y2799742D01*
X7049555Y2801578D01*
X7005694Y2976197D01*
X7003748Y2981913D01*
X6917120Y3181144D01*
X6914266Y3186468D01*
X6796265Y3368869D01*
X6792575Y3373661D01*
X6646370Y3534337D01*
X6641945Y3538464D01*
X6471460Y3673104D01*
X6466425Y3676449D01*
X6276245Y3781435D01*
X6270717Y3783919D01*
X6065954Y3856430D01*
X6060087Y3857980D01*
X5981847Y3871917D01*
X5971368Y3870088D01*
X5969000Y3867276D01*
X5969000Y2807048D01*
X5461000Y2807048D01*
X5461000Y3861965D01*
X5457362Y3871961D01*
X5453945Y3873933D01*
X5402217Y3866017D01*
X5396316Y3864612D01*
X5189834Y3797124D01*
X5184260Y3794780D01*
X4991563Y3694469D01*
X4986451Y3691250D01*
X4812728Y3560814D01*
X4808199Y3556793D01*
X4658115Y3399740D01*
X4654308Y3395038D01*
X4531895Y3215587D01*
X4528896Y3210309D01*
X4437440Y3013283D01*
X4435347Y3007594D01*
X4378662Y2803196D01*
X-6249507Y2803196D01*
X-5654781Y3397922D01*
X-5608905Y3419314D01*
X-5602455Y3419596D01*
X-5102976Y3419596D01*
X-5055410Y3402283D01*
X-5037042Y3379191D01*
X-5020674Y3347067D01*
X-5020670Y3347062D01*
X-5018028Y3341876D01*
X-4922720Y3246568D01*
X-4917530Y3243924D01*
X-4917528Y3243922D01*
X-4807820Y3188023D01*
X-4807817Y3188022D01*
X-4802626Y3185377D01*
X-4796874Y3184466D01*
X-4796871Y3184465D01*
X-4705861Y3170051D01*
X-4702988Y3169596D01*
X-4136012Y3169596D01*
X-4133139Y3170051D01*
X-4042129Y3184465D01*
X-4042126Y3184466D01*
X-4036374Y3185377D01*
X-4031183Y3188022D01*
X-4031180Y3188023D01*
X-3921472Y3243922D01*
X-3921470Y3243924D01*
X-3916280Y3246568D01*
X-3820972Y3341876D01*
X-3818327Y3347067D01*
X-3818326Y3347068D01*
X-3762427Y3456776D01*
X-3762426Y3456779D01*
X-3759781Y3461970D01*
X-3758870Y3467722D01*
X-3758869Y3467725D01*
X-3744455Y3558735D01*
X-3744000Y3561608D01*
X-3744000Y3898551D01*
X-3726687Y3946117D01*
X-3722326Y3950877D01*
X-2470281Y5202922D01*
X-2424405Y5224314D01*
X-2417955Y5224596D01*
X-1858782Y5224596D01*
X-1852637Y5225501D01*
X-1795577Y5233900D01*
X-1795574Y5233901D01*
X-1789888Y5234738D01*
X-1784728Y5237271D01*
X-1784726Y5237272D01*
X-1728807Y5264727D01*
X-1685145Y5286164D01*
X-1680824Y5290493D01*
X-1680822Y5290494D01*
X-1607026Y5364419D01*
X-1607025Y5364421D01*
X-1602707Y5368746D01*
X-1578841Y5417569D01*
X-1576141Y5423093D01*
X-1539699Y5458225D01*
X-1509659Y5464596D01*
X-863900Y5464596D01*
X-816334Y5447283D01*
X-811574Y5442922D01*
X-795220Y5426568D01*
X-790030Y5423924D01*
X-790028Y5423922D01*
X-680320Y5368023D01*
X-680317Y5368022D01*
X-675126Y5365377D01*
X-669374Y5364466D01*
X-669371Y5364465D01*
X-578361Y5350051D01*
X-575488Y5349596D01*
X-238545Y5349596D01*
X-190979Y5332283D01*
X-186219Y5327922D01*
X322091Y4819612D01*
X322095Y4819609D01*
X344658Y4797046D01*
X349844Y4794404D01*
X349849Y4794400D01*
X367907Y4785199D01*
X377802Y4779137D01*
X398911Y4763800D01*
X404448Y4762001D01*
X423720Y4755739D01*
X434448Y4751295D01*
X452191Y4742255D01*
X457696Y4739450D01*
X473456Y4736954D01*
X483463Y4735369D01*
X494754Y4732658D01*
X514026Y4726396D01*
X514029Y4726396D01*
X519567Y4724596D01*
X1086478Y4724596D01*
X1134044Y4707283D01*
X1145055Y4695397D01*
X1145134Y4695463D01*
X1182157Y4650868D01*
X1184108Y4649102D01*
X1222538Y4614317D01*
X1288341Y4554754D01*
X1336395Y4522341D01*
X1465287Y4459894D01*
X1520504Y4442272D01*
X1562904Y4435139D01*
X1660332Y4418747D01*
X1660338Y4418746D01*
X1661742Y4418510D01*
X1693157Y4415692D01*
X1694599Y4415674D01*
X1694606Y4415674D01*
X1699225Y4415618D01*
X1705499Y4415541D01*
X1706923Y4415634D01*
X1706934Y4415634D01*
X1720881Y4416543D01*
X1736981Y4417591D01*
X1753251Y4419921D01*
X1763741Y4420668D01*
X2142736Y4420668D01*
X2155003Y4419644D01*
X2161742Y4418510D01*
X2193157Y4415692D01*
X2194599Y4415674D01*
X2194606Y4415674D01*
X2199225Y4415618D01*
X2205499Y4415541D01*
X2206923Y4415634D01*
X2206934Y4415634D01*
X2231423Y4417229D01*
X2236981Y4417591D01*
X2289924Y4425173D01*
X2376156Y4437522D01*
X2376161Y4437523D01*
X2378758Y4437895D01*
X2434390Y4454163D01*
X2442392Y4457801D01*
X2471153Y4470878D01*
X2564769Y4513443D01*
X2613598Y4544670D01*
X2693163Y4613227D01*
X2720108Y4636444D01*
X2720111Y4636447D01*
X2722099Y4638160D01*
X2760202Y4681838D01*
X2838102Y4802023D01*
X2862414Y4854641D01*
X2864546Y4861768D01*
X2902696Y4989337D01*
X2902697Y4989340D01*
X2903450Y4991859D01*
X2905217Y5003677D01*
X2911628Y5046580D01*
X2912017Y5049182D01*
X2912720Y5164311D01*
X2912876Y5189772D01*
X2912876Y5189773D01*
X2912892Y5192403D01*
X2912567Y5194775D01*
X2912428Y5199064D01*
X2912428Y5675096D01*
X2910815Y5683208D01*
X2908848Y5693094D01*
X2896867Y5753327D01*
X2892816Y5759390D01*
X2890028Y5766120D01*
X2891220Y5766614D01*
X2881056Y5808154D01*
X2890429Y5833906D01*
X2890028Y5834072D01*
X2892816Y5840802D01*
X2896867Y5846865D01*
X2906701Y5896304D01*
X2907790Y5901778D01*
X2907790Y5901779D01*
X2908500Y5905348D01*
X2908500Y5950596D01*
X2925813Y5998162D01*
X2969650Y6023472D01*
X2982500Y6024596D01*
X3635218Y6024596D01*
X3682784Y6007283D01*
X3708094Y5963446D01*
X3708889Y5943631D01*
X3707664Y5930676D01*
X3707663Y5930658D01*
X3707500Y5928930D01*
X3707500Y5296262D01*
X3707663Y5294541D01*
X3707663Y5294534D01*
X3709914Y5270726D01*
X3710481Y5264727D01*
X3755366Y5136912D01*
X3758650Y5132466D01*
X3758651Y5132464D01*
X3801283Y5074746D01*
X3835850Y5027946D01*
X3840299Y5024660D01*
X3910134Y4973079D01*
X3944816Y4947462D01*
X4072631Y4902577D01*
X4077114Y4902153D01*
X4077115Y4902153D01*
X4102438Y4899759D01*
X4102445Y4899759D01*
X4104166Y4899596D01*
X5111834Y4899596D01*
X5113555Y4899759D01*
X5113562Y4899759D01*
X5138885Y4902153D01*
X5138886Y4902153D01*
X5143369Y4902577D01*
X5271184Y4947462D01*
X5305867Y4973079D01*
X5375701Y5024660D01*
X5380150Y5027946D01*
X5383438Y5032397D01*
X5427508Y5092062D01*
X5469694Y5120036D01*
X5487031Y5122096D01*
X6395422Y5122096D01*
X6418288Y5118474D01*
X6419689Y5118019D01*
X6424874Y5115377D01*
X6524512Y5099596D01*
X7091488Y5099596D01*
X7144812Y5108042D01*
X7194500Y5098384D01*
X7208714Y5087279D01*
X7269315Y5026678D01*
X7290707Y4980802D01*
X7290989Y4974352D01*
X7290989Y2243744D01*
X7273676Y2196178D01*
X7269315Y2191418D01*
X7132440Y2054543D01*
X7086564Y2033151D01*
X7037669Y2046252D01*
X7008635Y2087716D01*
X7009310Y2128381D01*
X7045996Y2249127D01*
X7047277Y2255052D01*
X7049648Y2273063D01*
X7047346Y2283449D01*
X7044021Y2286000D01*
X4393158Y2286000D01*
X4383162Y2282362D01*
X4381703Y2279834D01*
X4381727Y2278827D01*
X4414033Y2135477D01*
X4415845Y2129695D01*
X4497569Y1928429D01*
X4500304Y1923016D01*
X4613802Y1737803D01*
X4617383Y1732910D01*
X4759614Y1568715D01*
X4763934Y1564484D01*
X4931079Y1425718D01*
X4936038Y1422245D01*
X5123591Y1312648D01*
X5129056Y1310030D01*
X5331987Y1232538D01*
X5337819Y1230844D01*
X5550680Y1187537D01*
X5553619Y1187187D01*
X5598801Y1164364D01*
X5618742Y1117838D01*
X5604111Y1069380D01*
X5561755Y1041663D01*
X5551564Y1040013D01*
X5517203Y1036886D01*
X5468247Y1022478D01*
X5323043Y979742D01*
X5323039Y979740D01*
X5319572Y978720D01*
X5223633Y928564D01*
X5140209Y884951D01*
X5140206Y884949D01*
X5137002Y883274D01*
X5134184Y881008D01*
X5134182Y881007D01*
X4979266Y756452D01*
X4979263Y756449D01*
X4976447Y754185D01*
X4974121Y751413D01*
X4974119Y751411D01*
X4846351Y599144D01*
X4846348Y599140D01*
X4844024Y596370D01*
X4744776Y415838D01*
X4734948Y384856D01*
X4684540Y225948D01*
X4682484Y219468D01*
X4682081Y215877D01*
X4682081Y215876D01*
X4680461Y201430D01*
X4659520Y14738D01*
X4659823Y11129D01*
X4659823Y11127D01*
X4672710Y-142340D01*
X4676759Y-190553D01*
X4733544Y-388586D01*
X4735196Y-391800D01*
X4735197Y-391803D01*
X4801825Y-521448D01*
X4827712Y-571818D01*
X4955677Y-733270D01*
X4958430Y-735613D01*
X4958433Y-735616D01*
X4989062Y-761683D01*
X5112564Y-866791D01*
X5159266Y-892892D01*
X5289239Y-965532D01*
X5289243Y-965534D01*
X5292398Y-967297D01*
X5295834Y-968414D01*
X5295840Y-968416D01*
X5406007Y-1004211D01*
X5488329Y-1030959D01*
X5552176Y-1038572D01*
X5689294Y-1054922D01*
X5689297Y-1054922D01*
X5692894Y-1055351D01*
X5781386Y-1048542D01*
X5894689Y-1039824D01*
X5894691Y-1039824D01*
X5898300Y-1039546D01*
X6096725Y-984145D01*
X6127863Y-968416D01*
X6277376Y-892892D01*
X6277379Y-892890D01*
X6280610Y-891258D01*
X6442951Y-764424D01*
X6541812Y-649892D01*
X6575201Y-611210D01*
X6575203Y-611208D01*
X6577564Y-608472D01*
X6579347Y-605333D01*
X6579350Y-605329D01*
X6652175Y-477133D01*
X6679323Y-429344D01*
X6680958Y-424431D01*
X6743208Y-237299D01*
X6744351Y-233863D01*
X6749823Y-190553D01*
X6769913Y-31519D01*
X6769913Y-31513D01*
X6770171Y-29474D01*
X6770583Y0D01*
X6750480Y205030D01*
X6727654Y280632D01*
X6718443Y311142D01*
X6721269Y361682D01*
X6736959Y384856D01*
X8038015Y1685912D01*
X8044528Y1691699D01*
X8069255Y1711192D01*
X8069257Y1711194D01*
X8073599Y1714617D01*
X8107415Y1763545D01*
X8108767Y1765437D01*
X8140837Y1808855D01*
X8140839Y1808859D01*
X8144123Y1813305D01*
X8145901Y1818371D01*
X8146086Y1818674D01*
X8146213Y1818934D01*
X8147263Y1820995D01*
X8147425Y1821300D01*
X8147569Y1821644D01*
X8150620Y1826058D01*
X8168552Y1882757D01*
X8169287Y1884960D01*
X8187174Y1935897D01*
X8187174Y1935898D01*
X8189008Y1941120D01*
X8189218Y1946483D01*
X8189476Y1947502D01*
X8190195Y1951192D01*
X8191469Y1955219D01*
X8191989Y1961826D01*
X8191989Y2015528D01*
X8192046Y2018434D01*
X8194110Y2070955D01*
X8194110Y2070956D01*
X8194327Y2076483D01*
X8192909Y2081830D01*
X8192436Y2086115D01*
X8191989Y2094236D01*
X8191989Y4913688D01*
X8209302Y4961254D01*
X8253139Y4986564D01*
X8302989Y4977774D01*
X8309954Y4973212D01*
X8344816Y4947462D01*
X8379093Y4935425D01*
X8390019Y4931588D01*
X8429162Y4899493D01*
X8439500Y4861768D01*
X8439500Y852255D01*
X8422187Y804689D01*
X8417826Y799929D01*
X6150071Y-1467826D01*
X6104195Y-1489218D01*
X6097745Y-1489500D01*
X4845252Y-1489500D01*
X4841683Y-1490210D01*
X4841682Y-1490210D01*
X4831295Y-1492276D01*
X4786769Y-1501133D01*
X4780707Y-1505184D01*
X4780706Y-1505184D01*
X4726509Y-1541398D01*
X4720448Y-1545448D01*
X4676133Y-1611769D01*
X4664500Y-1670252D01*
X4664500Y-3409748D01*
X4676133Y-3468231D01*
X4720448Y-3534552D01*
X4786769Y-3578867D01*
X4831295Y-3587724D01*
X4841682Y-3589790D01*
X4841683Y-3589790D01*
X4845252Y-3590500D01*
X6038551Y-3590500D01*
X6086117Y-3607813D01*
X6090877Y-3612174D01*
X6689826Y-4211122D01*
X6711218Y-4256998D01*
X6711500Y-4263448D01*
X6711500Y-5311404D01*
X6694187Y-5358970D01*
X6650350Y-5384280D01*
X6637500Y-5385404D01*
X6242252Y-5385404D01*
X6238683Y-5386114D01*
X6238682Y-5386114D01*
X6228295Y-5388180D01*
X6183769Y-5397037D01*
X6177707Y-5401088D01*
X6177706Y-5401088D01*
X6153041Y-5417569D01*
X6117448Y-5441352D01*
X6113398Y-5447413D01*
X6099116Y-5468788D01*
X6073133Y-5507673D01*
X6066870Y-5539159D01*
X6062321Y-5562031D01*
X6061500Y-5566156D01*
X6061500Y-6255652D01*
X6073133Y-6314135D01*
X6077184Y-6320198D01*
X6079972Y-6326928D01*
X6078127Y-6327692D01*
X6087809Y-6367261D01*
X6065421Y-6412660D01*
X6019089Y-6433047D01*
X5970492Y-6418882D01*
X5961923Y-6411531D01*
X5795652Y-6245259D01*
X3669813Y-4119420D01*
X3669809Y-4119417D01*
X3647246Y-4096854D01*
X3642057Y-4094210D01*
X3624002Y-4085010D01*
X3614102Y-4078943D01*
X3597708Y-4067032D01*
X3597703Y-4067030D01*
X3592994Y-4063608D01*
X3587456Y-4061809D01*
X3587455Y-4061808D01*
X3568182Y-4055546D01*
X3557454Y-4051102D01*
X3539401Y-4041904D01*
X3534208Y-4039258D01*
X3518448Y-4036762D01*
X3508441Y-4035177D01*
X3497150Y-4032466D01*
X3477878Y-4026204D01*
X3477875Y-4026204D01*
X3472337Y-4024404D01*
X-6762500Y-4024404D01*
X-6810066Y-4007091D01*
X-6835376Y-3963254D01*
X-6836500Y-3950404D01*
X-6836500Y-2650215D01*
X-6851794Y-2538568D01*
X-6911695Y-2400145D01*
X-6968189Y-2330381D01*
X-7003440Y-2286849D01*
X-7003442Y-2286847D01*
X-7006614Y-2282930D01*
X-7047301Y-2254015D01*
X-7125447Y-2198479D01*
X-7125450Y-2198477D01*
X-7129558Y-2195558D01*
X-7271468Y-2144467D01*
X-7276497Y-2144098D01*
X-7276500Y-2144097D01*
X-7352883Y-2138488D01*
X-7421891Y-2133420D01*
X-7426835Y-2134417D01*
X-7426837Y-2134417D01*
X-7564800Y-2162236D01*
X-7564802Y-2162237D01*
X-7569743Y-2163233D01*
X-7704132Y-2231707D01*
X-7751364Y-2275139D01*
X-7811441Y-2330382D01*
X-7811444Y-2330386D01*
X-7815156Y-2333799D01*
X-7817813Y-2338085D01*
X-7817816Y-2338088D01*
X-7853862Y-2396226D01*
X-7894635Y-2461986D01*
X-7936715Y-2606825D01*
X-7936999Y-2610694D01*
X-7937401Y-2616160D01*
X-7937401Y-2616174D01*
X-7937500Y-2617515D01*
X-7937500Y-4625785D01*
X-7922206Y-4737432D01*
X-7862305Y-4875855D01*
X-7840025Y-4903368D01*
X-7775580Y-4982951D01*
X-7767386Y-4993070D01*
X-7763274Y-4995992D01*
X-7648553Y-5077521D01*
X-7648550Y-5077523D01*
X-7644442Y-5080442D01*
X-7502532Y-5131533D01*
X-7497503Y-5131902D01*
X-7497500Y-5131903D01*
X-7421117Y-5137512D01*
X-7352109Y-5142580D01*
X-7347165Y-5141583D01*
X-7347163Y-5141583D01*
X-7209200Y-5113764D01*
X-7209198Y-5113763D01*
X-7204257Y-5112767D01*
X-7069868Y-5044293D01*
X-7017341Y-4995992D01*
X-6962559Y-4945618D01*
X-6962556Y-4945614D01*
X-6958844Y-4942201D01*
X-6956187Y-4937915D01*
X-6956184Y-4937912D01*
X-6908131Y-4860409D01*
X-6868352Y-4829106D01*
X-6845239Y-4825404D01*
X-4538500Y-4825404D01*
X-4490934Y-4842717D01*
X-4465624Y-4886554D01*
X-4464500Y-4899404D01*
X-4464500Y-5656107D01*
X-4481813Y-5703673D01*
X-4504904Y-5722041D01*
X-4577342Y-5758950D01*
X-4667050Y-5848658D01*
X-4669694Y-5853848D01*
X-4669696Y-5853850D01*
X-4721067Y-5954671D01*
X-4724646Y-5961696D01*
X-4725557Y-5967448D01*
X-4725558Y-5967451D01*
X-4729756Y-5993957D01*
X-4739500Y-6055481D01*
X-4739499Y-6518518D01*
X-4724646Y-6612304D01*
X-4699979Y-6660716D01*
X-4669696Y-6720150D01*
X-4669694Y-6720152D01*
X-4667050Y-6725342D01*
X-4577342Y-6815050D01*
X-4572152Y-6817694D01*
X-4572150Y-6817696D01*
X-4469498Y-6870000D01*
X-4469495Y-6870001D01*
X-4464304Y-6872646D01*
X-4458552Y-6873557D01*
X-4458549Y-6873558D01*
X-4373392Y-6887045D01*
X-4370519Y-6887500D01*
X-4367610Y-6887500D01*
X-4011773Y-6887499D01*
X-3759544Y-6887499D01*
X-3711978Y-6904812D01*
X-3686668Y-6948649D01*
X-3695458Y-6998499D01*
X-3707218Y-7013825D01*
X-4008219Y-7314826D01*
X-4054095Y-7336218D01*
X-4060545Y-7336500D01*
X-4340993Y-7336501D01*
X-4370518Y-7336501D01*
X-4373390Y-7336956D01*
X-4373392Y-7336956D01*
X-4384593Y-7338730D01*
X-4464304Y-7351354D01*
X-4520823Y-7380152D01*
X-4572150Y-7406304D01*
X-4572152Y-7406306D01*
X-4577342Y-7408950D01*
X-4667050Y-7498658D01*
X-4669694Y-7503848D01*
X-4669696Y-7503850D01*
X-4717405Y-7597484D01*
X-4724646Y-7611696D01*
X-4725557Y-7617448D01*
X-4725558Y-7617451D01*
X-4734534Y-7674125D01*
X-4739500Y-7705481D01*
X-4739499Y-8168518D01*
X-4739044Y-8171390D01*
X-4739044Y-8171392D01*
X-4736442Y-8187823D01*
X-4724646Y-8262304D01*
X-4718485Y-8274395D01*
X-4669696Y-8370150D01*
X-4669694Y-8370152D01*
X-4667050Y-8375342D01*
X-4577342Y-8465050D01*
X-4572152Y-8467694D01*
X-4572150Y-8467696D01*
X-4469498Y-8520000D01*
X-4469495Y-8520001D01*
X-4464304Y-8522646D01*
X-4458552Y-8523557D01*
X-4458549Y-8523558D01*
X-4373398Y-8537044D01*
X-4370519Y-8537500D01*
X-4064000Y-8537500D01*
X-3757482Y-8537499D01*
X-3754610Y-8537044D01*
X-3754608Y-8537044D01*
X-3722910Y-8532024D01*
X-3663696Y-8522646D01*
X-3596318Y-8488315D01*
X-3555850Y-8467696D01*
X-3555848Y-8467694D01*
X-3550658Y-8465050D01*
X-3460950Y-8375342D01*
X-3458306Y-8370152D01*
X-3458304Y-8370150D01*
X-3406000Y-8267498D01*
X-3405999Y-8267495D01*
X-3403354Y-8262304D01*
X-3402443Y-8256552D01*
X-3402442Y-8256549D01*
X-3388955Y-8171392D01*
X-3388500Y-8168519D01*
X-3388501Y-7858545D01*
X-3371188Y-7810979D01*
X-3366827Y-7806219D01*
X-2982782Y-7422174D01*
X-2936906Y-7400782D01*
X-2930456Y-7400500D01*
X-2904500Y-7400500D01*
X-2856934Y-7417813D01*
X-2831624Y-7461650D01*
X-2830500Y-7474500D01*
X-2830500Y-7769748D01*
X-2818867Y-7828231D01*
X-2814816Y-7834293D01*
X-2814816Y-7834294D01*
X-2778602Y-7888491D01*
X-2774552Y-7894552D01*
X-2768491Y-7898602D01*
X-2724654Y-7927893D01*
X-2708231Y-7938867D01*
X-2663705Y-7947724D01*
X-2653318Y-7949790D01*
X-2653317Y-7949790D01*
X-2649748Y-7950500D01*
X-1624937Y-7950500D01*
X-1577371Y-7967813D01*
X-1553459Y-8005347D01*
X-1543282Y-8043327D01*
X-1541915Y-8046258D01*
X-1470699Y-8198982D01*
X-1470696Y-8198988D01*
X-1469333Y-8201910D01*
X-1467480Y-8204557D01*
X-1467479Y-8204558D01*
X-1459514Y-8215933D01*
X-1368970Y-8345243D01*
X-1245243Y-8468970D01*
X-1101910Y-8569333D01*
X-1098988Y-8570696D01*
X-1098982Y-8570699D01*
X-946248Y-8641920D01*
X-943327Y-8643282D01*
X-940213Y-8644116D01*
X-940214Y-8644116D01*
X-777426Y-8687735D01*
X-777422Y-8687736D01*
X-774312Y-8688569D01*
X-704489Y-8694678D01*
X-643147Y-8700045D01*
X-637320Y-8700789D01*
X-615167Y-8704516D01*
X-615165Y-8704516D01*
X-612343Y-8704991D01*
X-606172Y-8705067D01*
X-602863Y-8705107D01*
X-600001Y-8705142D01*
X-569312Y-8700747D01*
X-558821Y-8700000D01*
X551814Y-8700000D01*
X564091Y-8701026D01*
X584835Y-8704516D01*
X584836Y-8704516D01*
X587659Y-8704991D01*
X594764Y-8705078D01*
X597139Y-8705107D01*
X600001Y-8705142D01*
X602833Y-8704736D01*
X602839Y-8704736D01*
X621727Y-8702031D01*
X625754Y-8701567D01*
X774312Y-8688569D01*
X777422Y-8687736D01*
X777426Y-8687735D01*
X940214Y-8644116D01*
X940213Y-8644116D01*
X943327Y-8643282D01*
X946248Y-8641920D01*
X1098982Y-8570699D01*
X1098988Y-8570696D01*
X1101910Y-8569333D01*
X1245243Y-8468970D01*
X1368970Y-8345243D01*
X1459514Y-8215933D01*
X1467479Y-8204558D01*
X1467480Y-8204557D01*
X1469333Y-8201910D01*
X1470696Y-8198988D01*
X1470699Y-8198982D01*
X1541920Y-8046248D01*
X1541920Y-8046247D01*
X1543282Y-8043327D01*
X1588569Y-7874312D01*
X1597405Y-7773318D01*
X1600045Y-7743147D01*
X1600789Y-7737320D01*
X1604516Y-7715167D01*
X1604516Y-7715165D01*
X1604991Y-7712343D01*
X1605142Y-7700001D01*
X1600747Y-7669312D01*
X1600000Y-7658821D01*
X1600000Y-6348186D01*
X1601026Y-6335909D01*
X1604516Y-6315165D01*
X1604516Y-6315164D01*
X1604991Y-6312341D01*
X1605142Y-6299999D01*
X1602031Y-6278273D01*
X1601565Y-6274231D01*
X1600854Y-6266095D01*
X1588569Y-6125688D01*
X1585111Y-6112780D01*
X1544116Y-5959786D01*
X1543282Y-5956673D01*
X1514378Y-5894689D01*
X1470699Y-5801018D01*
X1470696Y-5801012D01*
X1469333Y-5798090D01*
X1465946Y-5793252D01*
X1403221Y-5703673D01*
X1368970Y-5654757D01*
X1245243Y-5531030D01*
X1101910Y-5430667D01*
X1098988Y-5429304D01*
X1098982Y-5429301D01*
X946248Y-5358080D01*
X946247Y-5358080D01*
X943327Y-5356718D01*
X891929Y-5342946D01*
X777426Y-5312265D01*
X777422Y-5312264D01*
X774312Y-5311431D01*
X699230Y-5304862D01*
X643147Y-5299955D01*
X637320Y-5299211D01*
X615167Y-5295484D01*
X615165Y-5295484D01*
X612343Y-5295009D01*
X606172Y-5294933D01*
X602863Y-5294893D01*
X600001Y-5294858D01*
X597173Y-5295263D01*
X569312Y-5299253D01*
X558821Y-5300000D01*
X-551814Y-5300000D01*
X-564091Y-5298974D01*
X-584835Y-5295484D01*
X-584836Y-5295484D01*
X-587659Y-5295009D01*
X-594764Y-5294922D01*
X-597139Y-5294893D01*
X-600001Y-5294858D01*
X-602833Y-5295264D01*
X-602839Y-5295264D01*
X-621727Y-5297969D01*
X-625754Y-5298433D01*
X-774312Y-5311431D01*
X-777422Y-5312264D01*
X-777426Y-5312265D01*
X-891929Y-5342946D01*
X-943327Y-5356718D01*
X-946247Y-5358080D01*
X-946248Y-5358080D01*
X-1098982Y-5429301D01*
X-1098988Y-5429304D01*
X-1101910Y-5430667D01*
X-1245243Y-5531030D01*
X-1368970Y-5654757D01*
X-1403221Y-5703673D01*
X-1465945Y-5793252D01*
X-1469333Y-5798090D01*
X-1470696Y-5801012D01*
X-1470699Y-5801018D01*
X-1493198Y-5849268D01*
X-1543282Y-5956673D01*
X-1544120Y-5959801D01*
X-1553459Y-5994653D01*
X-1582493Y-6036118D01*
X-1624937Y-6049500D01*
X-2649748Y-6049500D01*
X-2653317Y-6050210D01*
X-2653318Y-6050210D01*
X-2663705Y-6052276D01*
X-2708231Y-6061133D01*
X-2774552Y-6105448D01*
X-2778602Y-6111509D01*
X-2800172Y-6143791D01*
X-2818867Y-6171769D01*
X-2830500Y-6230252D01*
X-2830500Y-6525500D01*
X-2847813Y-6573066D01*
X-2891650Y-6598376D01*
X-2904500Y-6599500D01*
X-3190433Y-6599500D01*
X-3195971Y-6601300D01*
X-3195974Y-6601300D01*
X-3215246Y-6607562D01*
X-3226537Y-6610273D01*
X-3230552Y-6610909D01*
X-3252304Y-6614354D01*
X-3257497Y-6617000D01*
X-3275550Y-6626198D01*
X-3286278Y-6630642D01*
X-3292485Y-6632659D01*
X-3297921Y-6634425D01*
X-3348509Y-6632659D01*
X-3386126Y-6598788D01*
X-3393877Y-6552472D01*
X-3388955Y-6521394D01*
X-3388955Y-6521390D01*
X-3388500Y-6518519D01*
X-3388501Y-6055482D01*
X-3403354Y-5961696D01*
X-3437842Y-5894009D01*
X-3458304Y-5853850D01*
X-3458306Y-5853848D01*
X-3460950Y-5848658D01*
X-3550658Y-5758950D01*
X-3623096Y-5722041D01*
X-3657618Y-5685021D01*
X-3663500Y-5656107D01*
X-3663500Y-4899404D01*
X-3646187Y-4851838D01*
X-3602350Y-4826528D01*
X-3589500Y-4825404D01*
X3212359Y-4825404D01*
X3259925Y-4842717D01*
X3264685Y-4847078D01*
X3310097Y-4892490D01*
X3331489Y-4938366D01*
X3318388Y-4987261D01*
X3276924Y-5016295D01*
X3229452Y-5013183D01*
X3209240Y-5004811D01*
X3209241Y-5004811D01*
X3204762Y-5002956D01*
X3199960Y-5002324D01*
X3199957Y-5002323D01*
X3052808Y-4982951D01*
X3048000Y-4982318D01*
X3043192Y-4982951D01*
X2896043Y-5002323D01*
X2896040Y-5002324D01*
X2891238Y-5002956D01*
X2745159Y-5063464D01*
X2741315Y-5066414D01*
X2741311Y-5066416D01*
X2655967Y-5131903D01*
X2619718Y-5159718D01*
X2616763Y-5163569D01*
X2526416Y-5281311D01*
X2526414Y-5281315D01*
X2523464Y-5285159D01*
X2462956Y-5431238D01*
X2462324Y-5436040D01*
X2462323Y-5436043D01*
X2444743Y-5569577D01*
X2442318Y-5588000D01*
X2442951Y-5592808D01*
X2460902Y-5729159D01*
X2462956Y-5744762D01*
X2523464Y-5890841D01*
X2526414Y-5894685D01*
X2526416Y-5894689D01*
X2616763Y-6012431D01*
X2619718Y-6016282D01*
X2623569Y-6019237D01*
X2741311Y-6109584D01*
X2741315Y-6109586D01*
X2745159Y-6112536D01*
X2891238Y-6173044D01*
X2896040Y-6173676D01*
X2896043Y-6173677D01*
X2953109Y-6181189D01*
X2986911Y-6185639D01*
X3029577Y-6206680D01*
X3112826Y-6289929D01*
X3134218Y-6335805D01*
X3134500Y-6342255D01*
X3134500Y-6849488D01*
X3134955Y-6852361D01*
X3149369Y-6943371D01*
X3149370Y-6943374D01*
X3150281Y-6949126D01*
X3152926Y-6954317D01*
X3152927Y-6954320D01*
X3208826Y-7064028D01*
X3208828Y-7064030D01*
X3211472Y-7069220D01*
X3306780Y-7164528D01*
X3311970Y-7167172D01*
X3311972Y-7167174D01*
X3421680Y-7223073D01*
X3421683Y-7223074D01*
X3426874Y-7225719D01*
X3432626Y-7226630D01*
X3432629Y-7226631D01*
X3523639Y-7241045D01*
X3526512Y-7241500D01*
X3792745Y-7241500D01*
X3840311Y-7258813D01*
X3845071Y-7263174D01*
X4689327Y-8107430D01*
X4695114Y-8113943D01*
X4718032Y-8143014D01*
X4766983Y-8176846D01*
X4768826Y-8178163D01*
X4816721Y-8213539D01*
X4821785Y-8215317D01*
X4822087Y-8215501D01*
X4822333Y-8215621D01*
X4824404Y-8216677D01*
X4824704Y-8216836D01*
X4825061Y-8216985D01*
X4829473Y-8220035D01*
X4834744Y-8221702D01*
X4834752Y-8221706D01*
X4886175Y-8237969D01*
X4888380Y-8238704D01*
X4915646Y-8248279D01*
X4944535Y-8258424D01*
X4949903Y-8258635D01*
X4950929Y-8258894D01*
X4954606Y-8259611D01*
X4958634Y-8260884D01*
X4965241Y-8261404D01*
X5018933Y-8261404D01*
X5021838Y-8261461D01*
X5074374Y-8263525D01*
X5079898Y-8263742D01*
X5085240Y-8262325D01*
X5089539Y-8261851D01*
X5097658Y-8261404D01*
X6069755Y-8261404D01*
X6115953Y-8278219D01*
X6117448Y-8280456D01*
X6183769Y-8324771D01*
X6228295Y-8333628D01*
X6238682Y-8335694D01*
X6238683Y-8335694D01*
X6242252Y-8336404D01*
X6681748Y-8336404D01*
X6685317Y-8335694D01*
X6685318Y-8335694D01*
X6695705Y-8333628D01*
X6740231Y-8324771D01*
X6806552Y-8280456D01*
X6810602Y-8274395D01*
X6846816Y-8220198D01*
X6846816Y-8220197D01*
X6850867Y-8214135D01*
X6862500Y-8155652D01*
X6862500Y-8038312D01*
X6872511Y-8001145D01*
X6882817Y-7983402D01*
X6882818Y-7983400D01*
X6885596Y-7978617D01*
X6889012Y-7963882D01*
X6904143Y-7898602D01*
X6916185Y-7846649D01*
X6909663Y-7754536D01*
X6907008Y-7717040D01*
X6907008Y-7717039D01*
X6906617Y-7711520D01*
X6889809Y-7668073D01*
X6882550Y-7649310D01*
X6881534Y-7598701D01*
X6913286Y-7559279D01*
X6962950Y-7549491D01*
X7003891Y-7570284D01*
X7339826Y-7906219D01*
X7361218Y-7952095D01*
X7361500Y-7958545D01*
X7361500Y-8155652D01*
X7373133Y-8214135D01*
X7377184Y-8220197D01*
X7377184Y-8220198D01*
X7413398Y-8274395D01*
X7417448Y-8280456D01*
X7483769Y-8324771D01*
X7528295Y-8333628D01*
X7538682Y-8335694D01*
X7538683Y-8335694D01*
X7542252Y-8336404D01*
X7981748Y-8336404D01*
X7985317Y-8335694D01*
X7985318Y-8335694D01*
X7995705Y-8333628D01*
X8040231Y-8324771D01*
X8106552Y-8280456D01*
X8110602Y-8274395D01*
X8146816Y-8220198D01*
X8146816Y-8220197D01*
X8150867Y-8214135D01*
X8162500Y-8155652D01*
X8162500Y-7466156D01*
X8160734Y-7457275D01*
X8152289Y-7414824D01*
X8150867Y-7407673D01*
X8111445Y-7348674D01*
X8110602Y-7347413D01*
X8106552Y-7341352D01*
X8098869Y-7336218D01*
X8046294Y-7301088D01*
X8046293Y-7301088D01*
X8040231Y-7297037D01*
X7995705Y-7288180D01*
X7985318Y-7286114D01*
X7985317Y-7286114D01*
X7981748Y-7285404D01*
X7882449Y-7285404D01*
X7834883Y-7268091D01*
X7830123Y-7263730D01*
X7555848Y-6989455D01*
X12744825Y-6989455D01*
X12747699Y-7018764D01*
X12760018Y-7144404D01*
X12761255Y-7157025D01*
X12762559Y-7160946D01*
X12762560Y-7160949D01*
X12796298Y-7262369D01*
X12814402Y-7316791D01*
X12901624Y-7460812D01*
X13018586Y-7581929D01*
X13022045Y-7584193D01*
X13022048Y-7584195D01*
X13156010Y-7671858D01*
X13156013Y-7671860D01*
X13159475Y-7674125D01*
X13163355Y-7675568D01*
X13313411Y-7731373D01*
X13313413Y-7731373D01*
X13317289Y-7732815D01*
X13360219Y-7738543D01*
X13480080Y-7754536D01*
X13480084Y-7754536D01*
X13484183Y-7755083D01*
X13488304Y-7754708D01*
X13488308Y-7754708D01*
X13559887Y-7748193D01*
X13651864Y-7739823D01*
X13811997Y-7687793D01*
X13832505Y-7675568D01*
X13953070Y-7603696D01*
X13956623Y-7601578D01*
X14078554Y-7485465D01*
X14171731Y-7345223D01*
X14173202Y-7341351D01*
X14230052Y-7191692D01*
X14230053Y-7191686D01*
X14231521Y-7187823D01*
X14235850Y-7157025D01*
X14254632Y-7023389D01*
X14254632Y-7023383D01*
X14254955Y-7021088D01*
X14255249Y-7000000D01*
X14236481Y-6832676D01*
X14234336Y-6826516D01*
X14182468Y-6677572D01*
X14182466Y-6677568D01*
X14181108Y-6673668D01*
X14170982Y-6657463D01*
X14094077Y-6534388D01*
X14094075Y-6534386D01*
X14091884Y-6530879D01*
X13973242Y-6411406D01*
X13831079Y-6321187D01*
X13785913Y-6305104D01*
X13676364Y-6266095D01*
X13676360Y-6266094D01*
X13672462Y-6264706D01*
X13668354Y-6264216D01*
X13668349Y-6264215D01*
X13509382Y-6245259D01*
X13505273Y-6244769D01*
X13501163Y-6245201D01*
X13501162Y-6245201D01*
X13341930Y-6261937D01*
X13341929Y-6261937D01*
X13337821Y-6262369D01*
X13289478Y-6278826D01*
X13182342Y-6315298D01*
X13182338Y-6315300D01*
X13178431Y-6316630D01*
X13035022Y-6404856D01*
X13000232Y-6438925D01*
X12918954Y-6518519D01*
X12914724Y-6522661D01*
X12823515Y-6664190D01*
X12812480Y-6694509D01*
X12767343Y-6818517D01*
X12767342Y-6818522D01*
X12765927Y-6822409D01*
X12765408Y-6826514D01*
X12765408Y-6826516D01*
X12749920Y-6949126D01*
X12744825Y-6989455D01*
X7555848Y-6989455D01*
X7129123Y-6562730D01*
X7107731Y-6516854D01*
X7120832Y-6467959D01*
X7162296Y-6438925D01*
X7181449Y-6436404D01*
X7331748Y-6436404D01*
X7335317Y-6435694D01*
X7335318Y-6435694D01*
X7348625Y-6433047D01*
X7390231Y-6424771D01*
X7399045Y-6418882D01*
X7450491Y-6384506D01*
X7456552Y-6380456D01*
X7465369Y-6367261D01*
X7496816Y-6320198D01*
X7496816Y-6320197D01*
X7500867Y-6314135D01*
X7512500Y-6255652D01*
X7512500Y-4035385D01*
X7512499Y-4035379D01*
X7512499Y-4003471D01*
X7504438Y-3978661D01*
X7501728Y-3967374D01*
X7501076Y-3963254D01*
X7497646Y-3941600D01*
X7494841Y-3936095D01*
X7485801Y-3918352D01*
X7481357Y-3907624D01*
X7477375Y-3895369D01*
X7473296Y-3882814D01*
X7457961Y-3861707D01*
X7451895Y-3851809D01*
X7442692Y-3833748D01*
X7440050Y-3828562D01*
X6787174Y-3175686D01*
X6765782Y-3129810D01*
X6765500Y-3123360D01*
X6765500Y-2157255D01*
X6782813Y-2109689D01*
X6787174Y-2104929D01*
X9186526Y294423D01*
X9193039Y300210D01*
X9217766Y319703D01*
X9217768Y319705D01*
X9222110Y323128D01*
X9236030Y343268D01*
X9255926Y372056D01*
X9257278Y373948D01*
X9289348Y417366D01*
X9289350Y417370D01*
X9292634Y421816D01*
X9294412Y426882D01*
X9294597Y427185D01*
X9294724Y427445D01*
X9295774Y429506D01*
X9295936Y429811D01*
X9296080Y430155D01*
X9299131Y434569D01*
X9311894Y474924D01*
X9317063Y491268D01*
X9317798Y493471D01*
X9335685Y544408D01*
X9335685Y544409D01*
X9337519Y549631D01*
X9337729Y554994D01*
X9337987Y556013D01*
X9338706Y559703D01*
X9339980Y563730D01*
X9340500Y570337D01*
X9340500Y624039D01*
X9340557Y626945D01*
X9342621Y679470D01*
X9342838Y684994D01*
X9341422Y690336D01*
X9340947Y694636D01*
X9340500Y702754D01*
X9340500Y4825596D01*
X9357813Y4873162D01*
X9401650Y4898472D01*
X9414500Y4899596D01*
X9511834Y4899596D01*
X9513555Y4899759D01*
X9513562Y4899759D01*
X9538885Y4902153D01*
X9538886Y4902153D01*
X9543369Y4902577D01*
X9671184Y4947462D01*
X9705867Y4973079D01*
X9775701Y5024660D01*
X9780150Y5027946D01*
X9814717Y5074746D01*
X9857349Y5132464D01*
X9857350Y5132466D01*
X9860634Y5136912D01*
X9905519Y5264727D01*
X9906086Y5270726D01*
X9908337Y5294534D01*
X9908337Y5294541D01*
X9908500Y5296262D01*
X9908500Y5928930D01*
X9908286Y5931201D01*
X9905943Y5955981D01*
X9905943Y5955982D01*
X9905519Y5960465D01*
X9860634Y6088280D01*
X9841692Y6113926D01*
X9783436Y6192797D01*
X9780150Y6197246D01*
X9700022Y6256430D01*
X9675632Y6274445D01*
X9675630Y6274446D01*
X9671184Y6277730D01*
X9543369Y6322615D01*
X9538886Y6323039D01*
X9538885Y6323039D01*
X9513562Y6325433D01*
X9513555Y6325433D01*
X9511834Y6325596D01*
X8641045Y6325596D01*
X8593479Y6342909D01*
X8568169Y6386746D01*
X8576959Y6436596D01*
X8588719Y6451922D01*
X8647342Y6510545D01*
X12744825Y6510545D01*
X12750573Y6451922D01*
X12760748Y6348151D01*
X12761255Y6342975D01*
X12762559Y6339054D01*
X12762560Y6339051D01*
X12811340Y6192413D01*
X12814402Y6183209D01*
X12901624Y6039188D01*
X12904496Y6036214D01*
X13008100Y5928930D01*
X13018586Y5918071D01*
X13022045Y5915807D01*
X13022048Y5915805D01*
X13156010Y5828142D01*
X13156013Y5828140D01*
X13159475Y5825875D01*
X13163355Y5824432D01*
X13313411Y5768627D01*
X13313413Y5768627D01*
X13317289Y5767185D01*
X13360219Y5761457D01*
X13480080Y5745464D01*
X13480084Y5745464D01*
X13484183Y5744917D01*
X13488304Y5745292D01*
X13488308Y5745292D01*
X13559887Y5751807D01*
X13651864Y5760177D01*
X13811997Y5812207D01*
X13832505Y5824432D01*
X13953070Y5896304D01*
X13956623Y5898422D01*
X13966525Y5907851D01*
X14033829Y5971944D01*
X14078554Y6014535D01*
X14171731Y6154777D01*
X14181076Y6179378D01*
X14230052Y6308308D01*
X14230053Y6308314D01*
X14231521Y6312177D01*
X14233407Y6325596D01*
X14254632Y6476611D01*
X14254632Y6476617D01*
X14254955Y6478912D01*
X14255249Y6500000D01*
X14237300Y6660020D01*
X14236942Y6663215D01*
X14236942Y6663216D01*
X14236481Y6667324D01*
X14232906Y6677591D01*
X14182468Y6822428D01*
X14182466Y6822432D01*
X14181108Y6826332D01*
X14156943Y6865005D01*
X14094077Y6965612D01*
X14094075Y6965614D01*
X14091884Y6969121D01*
X13973242Y7088594D01*
X13947969Y7104633D01*
X13925996Y7118577D01*
X13831079Y7178813D01*
X13788735Y7193891D01*
X13676364Y7233905D01*
X13676360Y7233906D01*
X13672462Y7235294D01*
X13668354Y7235784D01*
X13668349Y7235785D01*
X13509382Y7254741D01*
X13505273Y7255231D01*
X13501163Y7254799D01*
X13501162Y7254799D01*
X13341930Y7238063D01*
X13341929Y7238063D01*
X13337821Y7237631D01*
X13320167Y7231621D01*
X13182342Y7184702D01*
X13182338Y7184700D01*
X13178431Y7183370D01*
X13035022Y7095144D01*
X13023716Y7084072D01*
X12931114Y6993389D01*
X12914724Y6977339D01*
X12823515Y6835810D01*
X12808549Y6794691D01*
X12767343Y6681483D01*
X12767342Y6681478D01*
X12765927Y6677591D01*
X12765408Y6673486D01*
X12765408Y6673484D01*
X12751689Y6564879D01*
X12744825Y6510545D01*
X8647342Y6510545D01*
X8839718Y6702922D01*
X8885594Y6724314D01*
X8892044Y6724596D01*
X9511834Y6724596D01*
X9513555Y6724759D01*
X9513562Y6724759D01*
X9538885Y6727153D01*
X9538886Y6727153D01*
X9543369Y6727577D01*
X9671184Y6772462D01*
X9681932Y6780400D01*
X9766561Y6842909D01*
X9780150Y6852946D01*
X9810058Y6893438D01*
X9857349Y6957464D01*
X9857350Y6957466D01*
X9860634Y6961912D01*
X9905519Y7089727D01*
X9906631Y7101489D01*
X9908337Y7119534D01*
X9908337Y7119541D01*
X9908500Y7121262D01*
X9908500Y7753930D01*
X9905519Y7785465D01*
X9860634Y7913280D01*
X9840678Y7940299D01*
X9783436Y8017797D01*
X9780150Y8022246D01*
X9729444Y8059698D01*
X9675632Y8099445D01*
X9675630Y8099446D01*
X9671184Y8102730D01*
X9543369Y8147615D01*
X9538886Y8148039D01*
X9538885Y8148039D01*
X9513562Y8150433D01*
X9513555Y8150433D01*
X9511834Y8150596D01*
X8504166Y8150596D01*
X8502445Y8150433D01*
X8502438Y8150433D01*
X8477115Y8148039D01*
X8477114Y8148039D01*
X8472631Y8147615D01*
X8344816Y8102730D01*
X8340370Y8099446D01*
X8340368Y8099445D01*
X8286556Y8059698D01*
X8235850Y8022246D01*
X8232564Y8017797D01*
X8175323Y7940299D01*
X8155366Y7913280D01*
X8110481Y7785465D01*
X8107500Y7753930D01*
X8107500Y7134141D01*
X8090187Y7086575D01*
X8085826Y7081815D01*
X8001761Y6997750D01*
X7955885Y6976358D01*
X7949435Y6976076D01*
X5666564Y6976076D01*
X5618998Y6993389D01*
X5614238Y6997750D01*
X5530174Y7081814D01*
X5508782Y7127690D01*
X5508500Y7134140D01*
X5508500Y7753930D01*
X5505519Y7785465D01*
X5460634Y7913280D01*
X5440678Y7940299D01*
X5383436Y8017797D01*
X5380150Y8022246D01*
X5329444Y8059698D01*
X5275632Y8099445D01*
X5275630Y8099446D01*
X5271184Y8102730D01*
X5143369Y8147615D01*
X5138886Y8148039D01*
X5138885Y8148039D01*
X5113562Y8150433D01*
X5113555Y8150433D01*
X5111834Y8150596D01*
X4104166Y8150596D01*
X4102445Y8150433D01*
X4102438Y8150433D01*
X4077115Y8148039D01*
X4077114Y8148039D01*
X4072631Y8147615D01*
X3944816Y8102730D01*
X3940370Y8099446D01*
X3940368Y8099445D01*
X3836630Y8022822D01*
X3788083Y8008488D01*
X3741680Y8028713D01*
X3733957Y8037298D01*
X3643237Y8155527D01*
X3640282Y8159378D01*
X3622699Y8172870D01*
X3518689Y8252680D01*
X3518685Y8252682D01*
X3514841Y8255632D01*
X3368762Y8316140D01*
X3363960Y8316772D01*
X3363957Y8316773D01*
X3216808Y8336145D01*
X3212000Y8336778D01*
X3207192Y8336145D01*
X3060043Y8316773D01*
X3060040Y8316772D01*
X3055238Y8316140D01*
X2909159Y8255632D01*
X2905315Y8252682D01*
X2905311Y8252680D01*
X2829683Y8194648D01*
X2781407Y8179426D01*
X2734641Y8198798D01*
X2731641Y8201911D01*
X2731560Y8201832D01*
X2729710Y8203716D01*
X2728008Y8205716D01*
X2643945Y8279957D01*
X2622631Y8298781D01*
X2622628Y8298783D01*
X2620657Y8300524D01*
X2618460Y8301967D01*
X2618455Y8301971D01*
X2574419Y8330896D01*
X2572215Y8332344D01*
X2442570Y8393213D01*
X2387139Y8410160D01*
X2328887Y8419230D01*
X2248219Y8431790D01*
X2248212Y8431791D01*
X2245621Y8432194D01*
X2224166Y8432456D01*
X2190307Y8432870D01*
X2190303Y8432870D01*
X2187665Y8432902D01*
X2185053Y8432560D01*
X2185046Y8432560D01*
X2166612Y8430149D01*
X2157017Y8429524D01*
X1768495Y8429524D01*
X1757113Y8430405D01*
X1752155Y8431177D01*
X1748217Y8431790D01*
X1748214Y8431790D01*
X1745621Y8432194D01*
X1724166Y8432456D01*
X1690307Y8432870D01*
X1690303Y8432870D01*
X1687665Y8432902D01*
X1685052Y8432560D01*
X1685046Y8432560D01*
X1582853Y8419197D01*
X1545651Y8414332D01*
X1543121Y8413626D01*
X1543118Y8413625D01*
X1492355Y8399452D01*
X1489823Y8398745D01*
X1358730Y8341062D01*
X1309524Y8310434D01*
X1307513Y8308744D01*
X1307508Y8308740D01*
X1201903Y8219970D01*
X1199889Y8218277D01*
X1161255Y8175067D01*
X1159796Y8172875D01*
X1159792Y8172870D01*
X1111683Y8100596D01*
X1081892Y8055842D01*
X1056939Y8003527D01*
X1014229Y7866821D01*
X1004962Y7809606D01*
X1002337Y7666407D01*
X1002662Y7663801D01*
X1003005Y7661045D01*
X1003572Y7651898D01*
X1003572Y7175096D01*
X1004282Y7171527D01*
X1004282Y7171526D01*
X1005704Y7164376D01*
X1019133Y7096865D01*
X1023184Y7090802D01*
X1025972Y7084072D01*
X1024780Y7083578D01*
X1034944Y7042038D01*
X1025571Y7016286D01*
X1025972Y7016120D01*
X1023184Y7009390D01*
X1019133Y7003327D01*
X1007500Y6944844D01*
X1007500Y5905348D01*
X1008210Y5901779D01*
X1008210Y5901778D01*
X1009299Y5896304D01*
X1019133Y5846865D01*
X1023184Y5840802D01*
X1025972Y5834072D01*
X1024780Y5833578D01*
X1034944Y5792038D01*
X1025571Y5766286D01*
X1025972Y5766120D01*
X1023184Y5759390D01*
X1019133Y5753327D01*
X1007152Y5693094D01*
X1005186Y5683208D01*
X1003572Y5675096D01*
X1003572Y5599596D01*
X986259Y5552030D01*
X942422Y5526720D01*
X929572Y5525596D01*
X779545Y5525596D01*
X731979Y5542909D01*
X727219Y5547270D01*
X405174Y5869315D01*
X383782Y5915191D01*
X383500Y5921641D01*
X383500Y6258584D01*
X382511Y6264827D01*
X368631Y6352467D01*
X368630Y6352470D01*
X367719Y6358222D01*
X364987Y6363584D01*
X309174Y6473124D01*
X309172Y6473126D01*
X306528Y6478316D01*
X211220Y6573624D01*
X206030Y6576268D01*
X206028Y6576270D01*
X96320Y6632169D01*
X96317Y6632170D01*
X91126Y6634815D01*
X85374Y6635726D01*
X85371Y6635727D01*
X-5639Y6650141D01*
X-8512Y6650596D01*
X-575488Y6650596D01*
X-578361Y6650141D01*
X-669371Y6635727D01*
X-669374Y6635726D01*
X-675126Y6634815D01*
X-680317Y6632170D01*
X-680320Y6632169D01*
X-790028Y6576270D01*
X-790030Y6576268D01*
X-795220Y6573624D01*
X-890528Y6478316D01*
X-917598Y6425189D01*
X-927375Y6406000D01*
X-964395Y6371478D01*
X-993309Y6365596D01*
X-2065850Y6365596D01*
X-2068569Y6365187D01*
X-2068572Y6365187D01*
X-2114898Y6358222D01*
X-2165962Y6350545D01*
X-2170947Y6348151D01*
X-2170948Y6348151D01*
X-2181864Y6342909D01*
X-2288079Y6291905D01*
X-2303413Y6277730D01*
X-2338544Y6245256D01*
X-2388775Y6225596D01*
X-2950218Y6225596D01*
X-3019112Y6215454D01*
X-3022108Y6213983D01*
X-3071580Y6216347D01*
X-3108759Y6250699D01*
X-3116980Y6284597D01*
X-3116980Y7065594D01*
X-3099667Y7113160D01*
X-3055830Y7138470D01*
X-3022203Y7136361D01*
X-3018518Y7134560D01*
X-3012838Y7133731D01*
X-3012837Y7133731D01*
X-2972796Y7127890D01*
X-2950218Y7124596D01*
X-1858782Y7124596D01*
X-1848925Y7126047D01*
X-1795577Y7133900D01*
X-1795574Y7133901D01*
X-1789888Y7134738D01*
X-1784728Y7137271D01*
X-1784726Y7137272D01*
X-1721312Y7168407D01*
X-1685145Y7186164D01*
X-1680824Y7190493D01*
X-1680822Y7190494D01*
X-1607028Y7264417D01*
X-1607027Y7264419D01*
X-1602707Y7268746D01*
X-1586054Y7302814D01*
X-1553988Y7368414D01*
X-1553988Y7368415D01*
X-1551464Y7373578D01*
X-1541500Y7441878D01*
X-1541500Y7808314D01*
X-1544015Y7825400D01*
X-1550804Y7871519D01*
X-1550805Y7871522D01*
X-1551642Y7877208D01*
X-1574185Y7923124D01*
X-1583727Y7942557D01*
X-1603068Y7981951D01*
X-1607397Y7986272D01*
X-1607398Y7986274D01*
X-1681321Y8060068D01*
X-1681323Y8060069D01*
X-1685650Y8064389D01*
X-1729303Y8085727D01*
X-1785318Y8113108D01*
X-1785319Y8113108D01*
X-1790482Y8115632D01*
X-1858782Y8125596D01*
X-2950218Y8125596D01*
X-2952895Y8125202D01*
X-2952908Y8125201D01*
X-2956112Y8124729D01*
X-3005692Y8134931D01*
X-3037115Y8174616D01*
X-3040254Y8188281D01*
X-3052323Y8279957D01*
X-3052324Y8279960D01*
X-3052956Y8284762D01*
X-3113464Y8430841D01*
X-3116414Y8434685D01*
X-3116416Y8434689D01*
X-3206763Y8552431D01*
X-3209718Y8556282D01*
X-3213569Y8559237D01*
X-3331311Y8649584D01*
X-3331315Y8649586D01*
X-3335159Y8652536D01*
X-3481238Y8713044D01*
X-3486040Y8713676D01*
X-3486043Y8713677D01*
X-3633192Y8733049D01*
X-3638000Y8733682D01*
X-3642808Y8733049D01*
X-3789957Y8713677D01*
X-3789960Y8713676D01*
X-3794762Y8713044D01*
X-3940841Y8652536D01*
X-3944685Y8649586D01*
X-3944689Y8649584D01*
X-4062431Y8559237D01*
X-4066282Y8556282D01*
X-4069237Y8552431D01*
X-4159584Y8434689D01*
X-4159586Y8434685D01*
X-4162536Y8430841D01*
X-4223044Y8284762D01*
X-4223676Y8279960D01*
X-4223677Y8279957D01*
X-4235528Y8189937D01*
X-4258901Y8145037D01*
X-4308895Y8125596D01*
X-5225218Y8125596D01*
X-5227901Y8125201D01*
X-5288423Y8116292D01*
X-5288426Y8116291D01*
X-5294112Y8115454D01*
X-5299272Y8112921D01*
X-5299274Y8112920D01*
X-5325301Y8100141D01*
X-5398855Y8064028D01*
X-5403176Y8059699D01*
X-5403178Y8059698D01*
X-5476972Y7985775D01*
X-5481293Y7981446D01*
X-5483980Y7975949D01*
X-5529722Y7882370D01*
X-5532536Y7876614D01*
X-5542500Y7808314D01*
X-5542500Y7441878D01*
X-5542105Y7439195D01*
X-5533196Y7378673D01*
X-5533195Y7378670D01*
X-5532358Y7372984D01*
X-5480932Y7268241D01*
X-5476603Y7263920D01*
X-5476602Y7263918D01*
X-5402679Y7190124D01*
X-5398350Y7185803D01*
X-5392853Y7183116D01*
X-5299066Y7137272D01*
X-5293518Y7134560D01*
X-5225218Y7124596D01*
X-4133782Y7124596D01*
X-4131101Y7124991D01*
X-4131097Y7124991D01*
X-4102757Y7129163D01*
X-4053177Y7118962D01*
X-4021753Y7079279D01*
X-4017980Y7055952D01*
X-4017980Y6294281D01*
X-4035293Y6246715D01*
X-4079130Y6221405D01*
X-4102662Y6221056D01*
X-4133782Y6225596D01*
X-5225218Y6225596D01*
X-5227901Y6225201D01*
X-5288423Y6216292D01*
X-5288426Y6216291D01*
X-5294112Y6215454D01*
X-5299272Y6212921D01*
X-5299274Y6212920D01*
X-5339489Y6193175D01*
X-5398855Y6164028D01*
X-5403176Y6159699D01*
X-5403178Y6159698D01*
X-5473264Y6089489D01*
X-5481293Y6081446D01*
X-5483980Y6075949D01*
X-5529220Y5983397D01*
X-5532536Y5976614D01*
X-5542500Y5908314D01*
X-5542500Y5541878D01*
X-5542105Y5539195D01*
X-5533196Y5478673D01*
X-5533195Y5478670D01*
X-5532358Y5472984D01*
X-5529825Y5467824D01*
X-5529824Y5467822D01*
X-5516283Y5440242D01*
X-5480932Y5368241D01*
X-5476603Y5363920D01*
X-5476602Y5363918D01*
X-5402679Y5290124D01*
X-5398350Y5285803D01*
X-5392853Y5283116D01*
X-5299066Y5237272D01*
X-5293518Y5234560D01*
X-5225218Y5224596D01*
X-4133782Y5224596D01*
X-4127637Y5225501D01*
X-4070577Y5233900D01*
X-4070574Y5233901D01*
X-4064888Y5234738D01*
X-4059728Y5237271D01*
X-4059726Y5237272D01*
X-4003807Y5264727D01*
X-3999132Y5267022D01*
X-3966520Y5274596D01*
X-3869129Y5274596D01*
X-3860432Y5274083D01*
X-3848786Y5272705D01*
X-3823668Y5269732D01*
X-3818226Y5270726D01*
X-3818223Y5270726D01*
X-3765178Y5280414D01*
X-3762885Y5280796D01*
X-3705379Y5289442D01*
X-3655768Y5279393D01*
X-3624222Y5239806D01*
X-3625502Y5189203D01*
X-3642051Y5163938D01*
X-4313719Y4492270D01*
X-4359595Y4470878D01*
X-4366045Y4470596D01*
X-4702988Y4470596D01*
X-4705861Y4470141D01*
X-4796871Y4455727D01*
X-4796874Y4455726D01*
X-4802626Y4454815D01*
X-4807817Y4452170D01*
X-4807820Y4452169D01*
X-4917528Y4396270D01*
X-4917530Y4396268D01*
X-4922720Y4393624D01*
X-5018028Y4298316D01*
X-5020670Y4293130D01*
X-5020674Y4293125D01*
X-5037042Y4261001D01*
X-5074062Y4226479D01*
X-5102976Y4220596D01*
X-5862433Y4220596D01*
X-5867971Y4218796D01*
X-5867974Y4218796D01*
X-5887246Y4212534D01*
X-5898537Y4209823D01*
X-5908544Y4208238D01*
X-5924304Y4205742D01*
X-5929497Y4203096D01*
X-5947552Y4193897D01*
X-5958281Y4189453D01*
X-5983089Y4181392D01*
X-6004198Y4166055D01*
X-6014093Y4159993D01*
X-6032151Y4150792D01*
X-6032156Y4150788D01*
X-6037342Y4148146D01*
X-6059905Y4125583D01*
X-6059909Y4125580D01*
X-6810174Y3375315D01*
X-6856050Y3353923D01*
X-6904945Y3367024D01*
X-6933979Y3408488D01*
X-6936500Y3427641D01*
X-6936500Y3872757D01*
X-6925392Y3911752D01*
X-6914572Y3929203D01*
X-6879365Y3985986D01*
X-6838811Y4125572D01*
X-6838366Y4127103D01*
X-6838365Y4127106D01*
X-6837285Y4130825D01*
X-6836869Y4136494D01*
X-6836599Y4140160D01*
X-6836599Y4140174D01*
X-6836500Y4141515D01*
X-6836500Y6149785D01*
X-6851794Y6261432D01*
X-6911695Y6399855D01*
X-6914869Y6403774D01*
X-6914871Y6403778D01*
X-6943213Y6438778D01*
X-6959693Y6486639D01*
X-6938030Y6537673D01*
X-6747781Y6727922D01*
X-6701905Y6749314D01*
X-6695455Y6749596D01*
X-6415007Y6749597D01*
X-6385482Y6749597D01*
X-6382610Y6750052D01*
X-6382608Y6750052D01*
X-6342949Y6756333D01*
X-6291696Y6764450D01*
X-6232345Y6794691D01*
X-6183850Y6819400D01*
X-6183848Y6819402D01*
X-6178658Y6822046D01*
X-6088950Y6911754D01*
X-6086306Y6916944D01*
X-6086304Y6916946D01*
X-6034000Y7019598D01*
X-6033999Y7019601D01*
X-6031354Y7024792D01*
X-6030443Y7030544D01*
X-6030442Y7030547D01*
X-6016955Y7115704D01*
X-6016500Y7118577D01*
X-6016501Y7731614D01*
X-6031354Y7825400D01*
X-6068914Y7899116D01*
X-6086304Y7933246D01*
X-6086306Y7933248D01*
X-6088950Y7938438D01*
X-6178658Y8028146D01*
X-6183848Y8030790D01*
X-6183850Y8030792D01*
X-6286502Y8083096D01*
X-6286505Y8083097D01*
X-6291696Y8085742D01*
X-6297448Y8086653D01*
X-6297451Y8086654D01*
X-6382608Y8100141D01*
X-6385481Y8100596D01*
X-6520455Y8100596D01*
X-6568021Y8117909D01*
X-6572781Y8122270D01*
X-7055611Y8605100D01*
X-7055615Y8605103D01*
X-7078178Y8627666D01*
X-7083367Y8630310D01*
X-7101422Y8639510D01*
X-7111322Y8645577D01*
X-7127716Y8657488D01*
X-7127721Y8657490D01*
X-7132430Y8660912D01*
X-7137968Y8662711D01*
X-7137969Y8662712D01*
X-7157242Y8668974D01*
X-7167970Y8673418D01*
X-7186023Y8682616D01*
X-7191216Y8685262D01*
X-7206976Y8687758D01*
X-7216983Y8689343D01*
X-7228274Y8692054D01*
X-7247546Y8698316D01*
X-7247549Y8698316D01*
X-7253087Y8700116D01*
X-9155913Y8700116D01*
X-9161451Y8698316D01*
X-9161454Y8698316D01*
X-9180726Y8692054D01*
X-9192017Y8689343D01*
X-9202024Y8687758D01*
X-9217784Y8685262D01*
X-9222977Y8682616D01*
X-9241030Y8673418D01*
X-9251758Y8668974D01*
X-9271031Y8662712D01*
X-9271032Y8662711D01*
X-9276570Y8660912D01*
X-9281279Y8657490D01*
X-9281284Y8657488D01*
X-9297678Y8645577D01*
X-9307578Y8639510D01*
X-9325633Y8630310D01*
X-9330822Y8627666D01*
X-9353385Y8605103D01*
X-9353389Y8605100D01*
X-9836219Y8122270D01*
X-9882095Y8100878D01*
X-9888545Y8100596D01*
X-10168993Y8100595D01*
X-10198518Y8100595D01*
X-10201390Y8100140D01*
X-10201392Y8100140D01*
X-10233090Y8095120D01*
X-10292304Y8085742D01*
X-10334211Y8064389D01*
X-10400150Y8030792D01*
X-10400152Y8030790D01*
X-10405342Y8028146D01*
X-10495050Y7938438D01*
X-10497694Y7933248D01*
X-10497696Y7933246D01*
X-10545308Y7839802D01*
X-10552646Y7825400D01*
X-10553557Y7819648D01*
X-10553558Y7819645D01*
X-10560486Y7775900D01*
X-10567500Y7731615D01*
X-10567499Y7118578D01*
X-10567044Y7115706D01*
X-10567044Y7115704D01*
X-10564793Y7101489D01*
X-10552646Y7024792D01*
X-10527824Y6976076D01*
X-10497696Y6916946D01*
X-10497694Y6916944D01*
X-10495050Y6911754D01*
X-10405342Y6822046D01*
X-10400152Y6819402D01*
X-10400150Y6819400D01*
X-10297498Y6767096D01*
X-10297495Y6767095D01*
X-10292304Y6764450D01*
X-10286552Y6763539D01*
X-10286549Y6763538D01*
X-10214310Y6752097D01*
X-10198519Y6749596D01*
X-10195610Y6749596D01*
X-10192713Y6749368D01*
X-10192802Y6748237D01*
X-10148971Y6732283D01*
X-10123661Y6688446D01*
X-10132451Y6638596D01*
X-10162942Y6609661D01*
X-10244132Y6568293D01*
X-10268556Y6545834D01*
X-10351441Y6469618D01*
X-10351444Y6469614D01*
X-10355156Y6466201D01*
X-10357813Y6461915D01*
X-10357816Y6461912D01*
X-10392454Y6406046D01*
X-10434635Y6338014D01*
X-10442141Y6312177D01*
X-10475532Y6197246D01*
X-10476715Y6193175D01*
X-10476999Y6189306D01*
X-10477401Y6183840D01*
X-10477401Y6183826D01*
X-10477500Y6182485D01*
X-10477500Y4174215D01*
X-10462206Y4062568D01*
X-10402305Y3924145D01*
X-10393990Y3913877D01*
X-10377500Y3867309D01*
X-10377500Y704255D01*
X-10394813Y656689D01*
X-10399174Y651929D01*
X-14012526Y-2961423D01*
X-14019039Y-2967210D01*
X-14043766Y-2986703D01*
X-14043768Y-2986705D01*
X-14048110Y-2990128D01*
X-14051254Y-2994677D01*
X-14051255Y-2994678D01*
X-14081926Y-3039056D01*
X-14083278Y-3040948D01*
X-14115348Y-3084366D01*
X-14115350Y-3084370D01*
X-14118634Y-3088816D01*
X-14120412Y-3093882D01*
X-14120597Y-3094185D01*
X-14120724Y-3094445D01*
X-14121774Y-3096506D01*
X-14121936Y-3096811D01*
X-14122080Y-3097155D01*
X-14125131Y-3101569D01*
X-14126800Y-3106847D01*
X-14143063Y-3158268D01*
X-14143798Y-3160471D01*
X-14161685Y-3211408D01*
X-14163519Y-3216631D01*
X-14163729Y-3221994D01*
X-14163987Y-3223013D01*
X-14164706Y-3226703D01*
X-14165980Y-3230730D01*
X-14166500Y-3237337D01*
X-14166500Y-3291039D01*
X-14166557Y-3293944D01*
X-14168838Y-3351994D01*
X-14167422Y-3357336D01*
X-14166947Y-3361636D01*
X-14166500Y-3369754D01*
X-14166500Y-3592744D01*
X-14183813Y-3640310D01*
X-14188174Y-3645070D01*
X-15464833Y-4921730D01*
X-15510709Y-4943122D01*
X-15517159Y-4943404D01*
X-15687458Y-4943404D01*
X-15719955Y-4935887D01*
X-15781322Y-4905890D01*
X-15781323Y-4905890D01*
X-15786482Y-4903368D01*
X-15854782Y-4893404D01*
X-17321218Y-4893404D01*
X-17323899Y-4893799D01*
X-17323903Y-4893799D01*
X-17377723Y-4901722D01*
X-17427303Y-4891521D01*
X-17458727Y-4851838D01*
X-17462500Y-4828511D01*
X-17462500Y-4709372D01*
X-17445187Y-4661806D01*
X-17401350Y-4636496D01*
X-17377818Y-4636147D01*
X-17323926Y-4644009D01*
X-17321218Y-4644404D01*
X-15854782Y-4644404D01*
X-15848637Y-4643499D01*
X-15791577Y-4635100D01*
X-15791574Y-4635099D01*
X-15785888Y-4634262D01*
X-15780728Y-4631729D01*
X-15780726Y-4631728D01*
X-15720133Y-4601978D01*
X-15687520Y-4594404D01*
X-15605055Y-4594404D01*
X-15596358Y-4594917D01*
X-15584712Y-4596295D01*
X-15559594Y-4599268D01*
X-15554152Y-4598274D01*
X-15554149Y-4598274D01*
X-15501104Y-4588586D01*
X-15498811Y-4588204D01*
X-15445408Y-4580175D01*
X-15445407Y-4580175D01*
X-15439942Y-4579353D01*
X-15435106Y-4577030D01*
X-15434768Y-4576948D01*
X-15434504Y-4576857D01*
X-15432267Y-4576131D01*
X-15431958Y-4576036D01*
X-15431608Y-4575892D01*
X-15426331Y-4574929D01*
X-15373562Y-4547518D01*
X-15371491Y-4546483D01*
X-15322812Y-4523108D01*
X-15322811Y-4523107D01*
X-15317825Y-4520713D01*
X-15313881Y-4517067D01*
X-15312973Y-4516525D01*
X-15309862Y-4514429D01*
X-15306116Y-4512483D01*
X-15301076Y-4508179D01*
X-15263106Y-4470209D01*
X-15261011Y-4468195D01*
X-15222408Y-4432511D01*
X-15218348Y-4428758D01*
X-15215570Y-4423976D01*
X-15212873Y-4420609D01*
X-15207447Y-4414550D01*
X-14782710Y-3989813D01*
X-14776197Y-3984026D01*
X-14751470Y-3964533D01*
X-14751468Y-3964531D01*
X-14747126Y-3961108D01*
X-14713310Y-3912180D01*
X-14711958Y-3910288D01*
X-14679888Y-3866870D01*
X-14679886Y-3866866D01*
X-14676602Y-3862420D01*
X-14674824Y-3857354D01*
X-14674639Y-3857051D01*
X-14674512Y-3856791D01*
X-14673462Y-3854730D01*
X-14673300Y-3854425D01*
X-14673156Y-3854081D01*
X-14670105Y-3849667D01*
X-14652173Y-3792968D01*
X-14651438Y-3790765D01*
X-14633551Y-3739828D01*
X-14633551Y-3739827D01*
X-14631717Y-3734605D01*
X-14631507Y-3729242D01*
X-14631249Y-3728223D01*
X-14630530Y-3724533D01*
X-14629256Y-3720506D01*
X-14628736Y-3713899D01*
X-14628736Y-3660198D01*
X-14628679Y-3657292D01*
X-14627561Y-3628847D01*
X-14612326Y-3586705D01*
X-14557652Y-3515453D01*
X-14557650Y-3515450D01*
X-14554700Y-3511605D01*
X-14494192Y-3365526D01*
X-14484385Y-3291039D01*
X-14474187Y-3213572D01*
X-14473554Y-3208764D01*
X-14483948Y-3129810D01*
X-14493559Y-3056807D01*
X-14493560Y-3056804D01*
X-14494192Y-3052002D01*
X-14554700Y-2905923D01*
X-14557650Y-2902079D01*
X-14557652Y-2902075D01*
X-14647999Y-2784333D01*
X-14650954Y-2780482D01*
X-14654805Y-2777527D01*
X-14772547Y-2687180D01*
X-14772551Y-2687178D01*
X-14776395Y-2684228D01*
X-14922474Y-2623720D01*
X-14927276Y-2623088D01*
X-14927279Y-2623087D01*
X-15074428Y-2603715D01*
X-15079236Y-2603082D01*
X-15084044Y-2603715D01*
X-15231193Y-2623087D01*
X-15231196Y-2623088D01*
X-15235998Y-2623720D01*
X-15382077Y-2684228D01*
X-15385921Y-2687178D01*
X-15385925Y-2687180D01*
X-15503667Y-2777527D01*
X-15507518Y-2780482D01*
X-15510473Y-2784333D01*
X-15600820Y-2902075D01*
X-15600822Y-2902079D01*
X-15603772Y-2905923D01*
X-15664280Y-3052002D01*
X-15664912Y-3056804D01*
X-15664913Y-3056807D01*
X-15674524Y-3129810D01*
X-15684918Y-3208764D01*
X-15684285Y-3213572D01*
X-15674086Y-3291039D01*
X-15664280Y-3365526D01*
X-15662425Y-3370004D01*
X-15615353Y-3483646D01*
X-15613145Y-3534217D01*
X-15631394Y-3564291D01*
X-15705216Y-3638113D01*
X-15751092Y-3659505D01*
X-15779397Y-3656486D01*
X-15781318Y-3655892D01*
X-15786482Y-3653368D01*
X-15854782Y-3643404D01*
X-17321218Y-3643404D01*
X-17323899Y-3643799D01*
X-17323903Y-3643799D01*
X-17377723Y-3651722D01*
X-17427303Y-3641521D01*
X-17458727Y-3601838D01*
X-17462500Y-3578511D01*
X-17462500Y2365628D01*
X-17445187Y2413194D01*
X-17401350Y2438504D01*
X-17377818Y2438853D01*
X-17323926Y2430991D01*
X-17321218Y2430596D01*
X-15854782Y2430596D01*
X-15848637Y2431501D01*
X-15791577Y2439900D01*
X-15791574Y2439901D01*
X-15785888Y2440738D01*
X-15780728Y2443271D01*
X-15780726Y2443272D01*
X-15720133Y2473022D01*
X-15687520Y2480596D01*
X-14748500Y2480596D01*
X-14700934Y2463283D01*
X-14675624Y2419446D01*
X-14674500Y2406596D01*
X-14674500Y1913900D01*
X-14691813Y1866334D01*
X-14696174Y1861574D01*
X-14784528Y1773220D01*
X-14787172Y1768030D01*
X-14787174Y1768028D01*
X-14827443Y1688995D01*
X-14845719Y1653126D01*
X-14846630Y1647374D01*
X-14846631Y1647371D01*
X-14859088Y1568715D01*
X-14861500Y1553488D01*
X-14861500Y986512D01*
X-14861045Y983639D01*
X-14846631Y892629D01*
X-14846630Y892626D01*
X-14845719Y886874D01*
X-14843074Y881683D01*
X-14843073Y881680D01*
X-14787174Y771972D01*
X-14787172Y771970D01*
X-14784528Y766780D01*
X-14718901Y701153D01*
X-14697509Y655277D01*
X-14712518Y603781D01*
X-14748536Y556841D01*
X-14809044Y410762D01*
X-14809676Y405960D01*
X-14809677Y405957D01*
X-14823252Y302841D01*
X-14829682Y254000D01*
X-14829049Y249192D01*
X-14815519Y146423D01*
X-14809044Y97238D01*
X-14748536Y-48841D01*
X-14745586Y-52686D01*
X-14745584Y-52689D01*
X-14676792Y-142340D01*
X-14661500Y-187388D01*
X-14661500Y-435755D01*
X-14678813Y-483321D01*
X-14694382Y-497280D01*
X-14730552Y-521448D01*
X-14774867Y-587769D01*
X-14786500Y-646252D01*
X-14786500Y-1385748D01*
X-14774867Y-1444231D01*
X-14770816Y-1450293D01*
X-14770816Y-1450294D01*
X-14759101Y-1467826D01*
X-14730552Y-1510552D01*
X-14724491Y-1514602D01*
X-14678327Y-1545448D01*
X-14664231Y-1554867D01*
X-14619705Y-1563724D01*
X-14609318Y-1565790D01*
X-14609317Y-1565790D01*
X-14605748Y-1566500D01*
X-13966252Y-1566500D01*
X-13962683Y-1565790D01*
X-13962682Y-1565790D01*
X-13952295Y-1563724D01*
X-13907769Y-1554867D01*
X-13893672Y-1545448D01*
X-13847509Y-1514602D01*
X-13841448Y-1510552D01*
X-13812899Y-1467826D01*
X-13801184Y-1450294D01*
X-13801184Y-1450293D01*
X-13797133Y-1444231D01*
X-13785500Y-1385748D01*
X-13785500Y-1101687D01*
X-13781320Y-1077168D01*
X-13765314Y-1031589D01*
X-13765314Y-1031588D01*
X-13763481Y-1026369D01*
X-13763271Y-1021006D01*
X-13763013Y-1019987D01*
X-13762294Y-1016297D01*
X-13761020Y-1012270D01*
X-13760500Y-1005663D01*
X-13760500Y-951961D01*
X-13760443Y-949055D01*
X-13758379Y-896530D01*
X-13758162Y-891006D01*
X-13759578Y-885664D01*
X-13760053Y-881364D01*
X-13760500Y-873246D01*
X-13760500Y-153504D01*
X-13745208Y-108456D01*
X-13702416Y-52689D01*
X-13702414Y-52686D01*
X-13699464Y-48841D01*
X-13638956Y97238D01*
X-13632480Y146423D01*
X-13618951Y249192D01*
X-13618318Y254000D01*
X-13624748Y302841D01*
X-13638323Y405957D01*
X-13638324Y405960D01*
X-13638956Y410762D01*
X-13699464Y556841D01*
X-13724193Y589069D01*
X-13739414Y637345D01*
X-13717810Y686442D01*
X-13637472Y766780D01*
X-13634828Y771970D01*
X-13634826Y771972D01*
X-13578927Y881680D01*
X-13578926Y881683D01*
X-13576281Y886874D01*
X-13575370Y892626D01*
X-13575369Y892629D01*
X-13560955Y983639D01*
X-13560500Y986512D01*
X-13560500Y1553488D01*
X-13562912Y1568715D01*
X-13575369Y1647371D01*
X-13575370Y1647374D01*
X-13576281Y1653126D01*
X-13594557Y1688995D01*
X-13634826Y1768028D01*
X-13634828Y1768030D01*
X-13637472Y1773220D01*
X-13732780Y1868528D01*
X-13737972Y1871174D01*
X-13742679Y1874593D01*
X-13740904Y1877037D01*
X-13767654Y1905795D01*
X-13773500Y1934623D01*
X-13773500Y2481096D01*
X-12293682Y2481096D01*
X-12293049Y2476288D01*
X-12278480Y2365628D01*
X-12273044Y2324334D01*
X-12212536Y2178255D01*
X-12209586Y2174411D01*
X-12209584Y2174407D01*
X-12134444Y2076483D01*
X-12116282Y2052814D01*
X-12112431Y2049859D01*
X-11994689Y1959512D01*
X-11994685Y1959510D01*
X-11990841Y1956560D01*
X-11844762Y1896052D01*
X-11839960Y1895420D01*
X-11839957Y1895419D01*
X-11692808Y1876047D01*
X-11688000Y1875414D01*
X-11683192Y1876047D01*
X-11536043Y1895419D01*
X-11536040Y1895420D01*
X-11531238Y1896052D01*
X-11385159Y1956560D01*
X-11381315Y1959510D01*
X-11381311Y1959512D01*
X-11263569Y2049859D01*
X-11259718Y2052814D01*
X-11241556Y2076483D01*
X-11166416Y2174407D01*
X-11166414Y2174411D01*
X-11163464Y2178255D01*
X-11102956Y2324334D01*
X-11097519Y2365628D01*
X-11082951Y2476288D01*
X-11082318Y2481096D01*
X-11082951Y2485904D01*
X-11082951Y2489100D01*
X-11065638Y2536666D01*
X-11061277Y2541426D01*
X-10891516Y2711187D01*
X-10891513Y2711191D01*
X-10868950Y2733754D01*
X-10866308Y2738940D01*
X-10866304Y2738945D01*
X-10857103Y2757003D01*
X-10851041Y2766898D01*
X-10835704Y2788007D01*
X-10827643Y2812816D01*
X-10823199Y2823544D01*
X-10814000Y2841599D01*
X-10811354Y2846792D01*
X-10807273Y2872559D01*
X-10804562Y2883850D01*
X-10798300Y2903122D01*
X-10798300Y2903125D01*
X-10796500Y2908663D01*
X-10796500Y3799884D01*
X-10779187Y3847450D01*
X-10772591Y3854353D01*
X-10772561Y3854381D01*
X-10772560Y3854382D01*
X-10768844Y3857799D01*
X-10766187Y3862085D01*
X-10766184Y3862088D01*
X-10692024Y3981698D01*
X-10689365Y3985986D01*
X-10648811Y4125572D01*
X-10648366Y4127103D01*
X-10648365Y4127106D01*
X-10647285Y4130825D01*
X-10646869Y4136494D01*
X-10646599Y4140160D01*
X-10646599Y4140174D01*
X-10646500Y4141515D01*
X-10646500Y6149785D01*
X-10661794Y6261432D01*
X-10721695Y6399855D01*
X-10780009Y6471867D01*
X-10796500Y6518436D01*
X-10796500Y7068529D01*
X-10799993Y7079279D01*
X-10804562Y7093342D01*
X-10807273Y7104633D01*
X-10809482Y7118578D01*
X-10811354Y7130400D01*
X-10818547Y7144517D01*
X-10823199Y7153648D01*
X-10827643Y7164376D01*
X-10833815Y7183370D01*
X-10835704Y7189185D01*
X-10851041Y7210294D01*
X-10857103Y7220189D01*
X-10866304Y7238247D01*
X-10866308Y7238252D01*
X-10868950Y7243438D01*
X-10891513Y7266001D01*
X-10891516Y7266005D01*
X-10994826Y7369315D01*
X-11016218Y7415191D01*
X-11016500Y7421641D01*
X-11016501Y7728705D01*
X-11016501Y7731614D01*
X-11031354Y7825400D01*
X-11068914Y7899116D01*
X-11086304Y7933246D01*
X-11086306Y7933248D01*
X-11088950Y7938438D01*
X-11178658Y8028146D01*
X-11183848Y8030790D01*
X-11183850Y8030792D01*
X-11286502Y8083096D01*
X-11286505Y8083097D01*
X-11291696Y8085742D01*
X-11297448Y8086653D01*
X-11297451Y8086654D01*
X-11382608Y8100141D01*
X-11385481Y8100596D01*
X-11388390Y8100596D01*
X-11616999Y8100595D01*
X-11848518Y8100595D01*
X-11851390Y8100140D01*
X-11851392Y8100140D01*
X-11883090Y8095120D01*
X-11942304Y8085742D01*
X-11984211Y8064389D01*
X-12050150Y8030792D01*
X-12050152Y8030790D01*
X-12055342Y8028146D01*
X-12145050Y7938438D01*
X-12147694Y7933248D01*
X-12147696Y7933246D01*
X-12195308Y7839802D01*
X-12202646Y7825400D01*
X-12203557Y7819648D01*
X-12203558Y7819645D01*
X-12210486Y7775900D01*
X-12217500Y7731615D01*
X-12217499Y7118578D01*
X-12217044Y7115706D01*
X-12217044Y7115704D01*
X-12214793Y7101489D01*
X-12202646Y7024792D01*
X-12177824Y6976076D01*
X-12147696Y6916946D01*
X-12147694Y6916944D01*
X-12145050Y6911754D01*
X-12055342Y6822046D01*
X-12050152Y6819402D01*
X-12050150Y6819400D01*
X-11947498Y6767096D01*
X-11947495Y6767095D01*
X-11942304Y6764450D01*
X-11936552Y6763539D01*
X-11936549Y6763538D01*
X-11864310Y6752097D01*
X-11848519Y6749596D01*
X-11839024Y6749596D01*
X-11671499Y6749597D01*
X-11623934Y6732285D01*
X-11598624Y6688447D01*
X-11597500Y6675597D01*
X-11597500Y6524116D01*
X-11614813Y6476550D01*
X-11621409Y6469647D01*
X-11625156Y6466201D01*
X-11627813Y6461915D01*
X-11627816Y6461912D01*
X-11662454Y6406046D01*
X-11704635Y6338014D01*
X-11712141Y6312177D01*
X-11745532Y6197246D01*
X-11746715Y6193175D01*
X-11746999Y6189306D01*
X-11747401Y6183840D01*
X-11747401Y6183826D01*
X-11747500Y6182485D01*
X-11747500Y4174215D01*
X-11732206Y4062568D01*
X-11672305Y3924145D01*
X-11615811Y3854381D01*
X-11613991Y3852134D01*
X-11597500Y3805564D01*
X-11597500Y3168641D01*
X-11614813Y3121075D01*
X-11619174Y3116315D01*
X-11627670Y3107819D01*
X-11673546Y3086427D01*
X-11679996Y3086145D01*
X-11683192Y3086145D01*
X-11688000Y3086778D01*
X-11692808Y3086145D01*
X-11839957Y3066773D01*
X-11839960Y3066772D01*
X-11844762Y3066140D01*
X-11990841Y3005632D01*
X-11994685Y3002682D01*
X-11994689Y3002680D01*
X-12097887Y2923493D01*
X-12116282Y2909378D01*
X-12119237Y2905527D01*
X-12209584Y2787785D01*
X-12209586Y2787781D01*
X-12212536Y2783937D01*
X-12273044Y2637858D01*
X-12273676Y2633056D01*
X-12273677Y2633053D01*
X-12288784Y2518303D01*
X-12293682Y2481096D01*
X-13773500Y2481096D01*
X-13773500Y3037039D01*
X-13773443Y3039945D01*
X-13771379Y3092466D01*
X-13771379Y3092467D01*
X-13771162Y3097994D01*
X-13772580Y3103341D01*
X-13773053Y3107626D01*
X-13773500Y3115747D01*
X-13773500Y5116745D01*
X-13756187Y5164311D01*
X-13751826Y5169071D01*
X-13147832Y5773065D01*
X-13101956Y5794457D01*
X-13067190Y5789106D01*
X-12948762Y5740052D01*
X-12943960Y5739420D01*
X-12943957Y5739419D01*
X-12796808Y5720047D01*
X-12792000Y5719414D01*
X-12787192Y5720047D01*
X-12640043Y5739419D01*
X-12640040Y5739420D01*
X-12635238Y5740052D01*
X-12489159Y5800560D01*
X-12485315Y5803510D01*
X-12485311Y5803512D01*
X-12367569Y5893859D01*
X-12363718Y5896814D01*
X-12347407Y5918071D01*
X-12270416Y6018407D01*
X-12270414Y6018411D01*
X-12267464Y6022255D01*
X-12206956Y6168334D01*
X-12204997Y6183209D01*
X-12186951Y6320288D01*
X-12186318Y6325096D01*
X-12196676Y6403774D01*
X-12206323Y6477053D01*
X-12206324Y6477056D01*
X-12206956Y6481858D01*
X-12267464Y6627937D01*
X-12270414Y6631781D01*
X-12270416Y6631785D01*
X-12360763Y6749527D01*
X-12363718Y6753378D01*
X-12381596Y6767096D01*
X-12485311Y6846680D01*
X-12485315Y6846682D01*
X-12489159Y6849632D01*
X-12493634Y6851486D01*
X-12493640Y6851489D01*
X-12614302Y6901468D01*
X-12651623Y6935665D01*
X-12658230Y6985851D01*
X-12651921Y7003424D01*
X-12632281Y7041970D01*
X-12631370Y7047722D01*
X-12631369Y7047725D01*
X-12616955Y7138735D01*
X-12616500Y7141608D01*
X-12616500Y7708584D01*
X-12619687Y7728706D01*
X-12631369Y7802467D01*
X-12631370Y7802470D01*
X-12632281Y7808222D01*
X-12638101Y7819645D01*
X-12690826Y7923124D01*
X-12690828Y7923126D01*
X-12693472Y7928316D01*
X-12788780Y8023624D01*
X-12793970Y8026268D01*
X-12793972Y8026270D01*
X-12903680Y8082169D01*
X-12903683Y8082170D01*
X-12908874Y8084815D01*
X-12914626Y8085726D01*
X-12914629Y8085727D01*
X-13005639Y8100141D01*
X-13008512Y8100596D01*
X-13525488Y8100596D01*
X-13528361Y8100141D01*
X-13619371Y8085727D01*
X-13619374Y8085726D01*
X-13625126Y8084815D01*
X-13630317Y8082170D01*
X-13630320Y8082169D01*
X-13740028Y8026270D01*
X-13740030Y8026268D01*
X-13745220Y8023624D01*
X-13840528Y7928316D01*
X-13843172Y7923126D01*
X-13843174Y7923124D01*
X-13895899Y7819645D01*
X-13901719Y7808222D01*
X-13902630Y7802470D01*
X-13902631Y7802467D01*
X-13914313Y7728706D01*
X-13917500Y7708584D01*
X-13917500Y7141608D01*
X-13917045Y7138735D01*
X-13902631Y7047725D01*
X-13902630Y7047722D01*
X-13901719Y7041970D01*
X-13899074Y7036779D01*
X-13899073Y7036776D01*
X-13843174Y6927068D01*
X-13843172Y6927066D01*
X-13840528Y6921876D01*
X-13745220Y6826568D01*
X-13746729Y6825059D01*
X-13723358Y6790407D01*
X-13722652Y6785733D01*
X-13722364Y6785786D01*
X-13711682Y6727296D01*
X-13711300Y6725003D01*
X-13704757Y6681483D01*
X-13702449Y6666134D01*
X-13700126Y6661298D01*
X-13700044Y6660960D01*
X-13699953Y6660696D01*
X-13699227Y6658459D01*
X-13699132Y6658150D01*
X-13698988Y6657800D01*
X-13698025Y6652523D01*
X-13695476Y6647616D01*
X-13695475Y6647613D01*
X-13670612Y6599750D01*
X-13669573Y6597669D01*
X-13668871Y6596207D01*
X-13663888Y6545834D01*
X-13683253Y6511850D01*
X-14520526Y5674577D01*
X-14527039Y5668790D01*
X-14551766Y5649297D01*
X-14551768Y5649295D01*
X-14556110Y5645872D01*
X-14559254Y5641323D01*
X-14559255Y5641322D01*
X-14589926Y5596944D01*
X-14591278Y5595052D01*
X-14623348Y5551634D01*
X-14623350Y5551630D01*
X-14626634Y5547184D01*
X-14628412Y5542118D01*
X-14628597Y5541815D01*
X-14628724Y5541555D01*
X-14629774Y5539494D01*
X-14629936Y5539189D01*
X-14630080Y5538845D01*
X-14633131Y5534431D01*
X-14635925Y5525596D01*
X-14651063Y5477732D01*
X-14651798Y5475529D01*
X-14668991Y5426568D01*
X-14671519Y5419369D01*
X-14671729Y5414006D01*
X-14671987Y5412987D01*
X-14672706Y5409297D01*
X-14673980Y5405270D01*
X-14674500Y5398663D01*
X-14674500Y5344961D01*
X-14674557Y5342056D01*
X-14676838Y5284006D01*
X-14675422Y5278664D01*
X-14674947Y5274364D01*
X-14674500Y5266246D01*
X-14674500Y3455596D01*
X-14691813Y3408030D01*
X-14735650Y3382720D01*
X-14748500Y3381596D01*
X-15687458Y3381596D01*
X-15719955Y3389113D01*
X-15781322Y3419110D01*
X-15781323Y3419110D01*
X-15786482Y3421632D01*
X-15854782Y3431596D01*
X-17321218Y3431596D01*
X-17323899Y3431201D01*
X-17323903Y3431201D01*
X-17377723Y3423278D01*
X-17427303Y3433479D01*
X-17458727Y3473162D01*
X-17462500Y3496489D01*
X-17462500Y3615628D01*
X-17445187Y3663194D01*
X-17401350Y3688504D01*
X-17377818Y3688853D01*
X-17323926Y3680991D01*
X-17321218Y3680596D01*
X-15854782Y3680596D01*
X-15848637Y3681501D01*
X-15791577Y3689900D01*
X-15791574Y3689901D01*
X-15785888Y3690738D01*
X-15780728Y3693271D01*
X-15780726Y3693272D01*
X-15713591Y3726234D01*
X-15681145Y3742164D01*
X-15676824Y3746493D01*
X-15676822Y3746494D01*
X-15603028Y3820417D01*
X-15603027Y3820419D01*
X-15598707Y3824746D01*
X-15584221Y3854382D01*
X-15549988Y3924414D01*
X-15549988Y3924415D01*
X-15547464Y3929578D01*
X-15537500Y3997878D01*
X-15537500Y4364314D01*
X-15545041Y4415541D01*
X-15546804Y4427519D01*
X-15546805Y4427522D01*
X-15547642Y4433208D01*
X-15550305Y4438633D01*
X-15596372Y4532459D01*
X-15599068Y4537951D01*
X-15603397Y4542272D01*
X-15603398Y4542274D01*
X-15677321Y4616068D01*
X-15677323Y4616069D01*
X-15681650Y4620389D01*
X-15704577Y4631596D01*
X-15781318Y4669108D01*
X-15781319Y4669108D01*
X-15786482Y4671632D01*
X-15854782Y4681596D01*
X-17321218Y4681596D01*
X-17323901Y4681201D01*
X-17384423Y4672292D01*
X-17384426Y4672291D01*
X-17390112Y4671454D01*
X-17395272Y4668921D01*
X-17395274Y4668920D01*
X-17427911Y4652896D01*
X-17453893Y4640139D01*
X-17455867Y4639170D01*
X-17488480Y4631596D01*
X-17631754Y4631596D01*
X-17640451Y4632109D01*
X-17652097Y4633487D01*
X-17677215Y4636460D01*
X-17682657Y4635466D01*
X-17682659Y4635466D01*
X-17720426Y4628568D01*
X-17735724Y4625774D01*
X-17738004Y4625394D01*
X-17796866Y4616545D01*
X-17801706Y4614220D01*
X-17802051Y4614136D01*
X-17802314Y4614046D01*
X-17804534Y4613325D01*
X-17804852Y4613227D01*
X-17805200Y4613085D01*
X-17810477Y4612121D01*
X-17815386Y4609571D01*
X-17863244Y4584711D01*
X-17865324Y4583672D01*
X-17913999Y4560299D01*
X-17914003Y4560297D01*
X-17918983Y4557905D01*
X-17922924Y4554262D01*
X-17923831Y4553721D01*
X-17926948Y4551621D01*
X-17930693Y4549675D01*
X-17935732Y4545371D01*
X-17973702Y4507401D01*
X-17975797Y4505387D01*
X-18018460Y4465950D01*
X-18021238Y4461168D01*
X-18023935Y4457801D01*
X-18029361Y4451742D01*
X-18209526Y4271577D01*
X-18216039Y4265790D01*
X-18240766Y4246297D01*
X-18240768Y4246295D01*
X-18245110Y4242872D01*
X-18248254Y4238323D01*
X-18248255Y4238322D01*
X-18278926Y4193944D01*
X-18280278Y4192052D01*
X-18312348Y4148634D01*
X-18312350Y4148630D01*
X-18315634Y4144184D01*
X-18317412Y4139118D01*
X-18317597Y4138815D01*
X-18317724Y4138555D01*
X-18318774Y4136494D01*
X-18318936Y4136189D01*
X-18319080Y4135845D01*
X-18322131Y4131431D01*
X-18323981Y4125580D01*
X-18340063Y4074732D01*
X-18340798Y4072529D01*
X-18345922Y4057937D01*
X-18360519Y4016369D01*
X-18360729Y4011006D01*
X-18360987Y4009987D01*
X-18361706Y4006297D01*
X-18362980Y4002270D01*
X-18363500Y3995663D01*
X-18363500Y3941961D01*
X-18363557Y3939056D01*
X-18365838Y3881006D01*
X-18364422Y3875664D01*
X-18363947Y3871364D01*
X-18363500Y3863246D01*
X-18363500Y-5169849D01*
X-18364013Y-5178546D01*
X-18368364Y-5215310D01*
X-21090000Y-5215310D01*
X-21090000Y5842000D01*
X-19147682Y5842000D01*
X-19147049Y5837192D01*
X-19131543Y5719414D01*
X-19127044Y5685238D01*
X-19066536Y5539159D01*
X-19063586Y5535315D01*
X-19063584Y5535311D01*
X-18996689Y5448132D01*
X-18970282Y5413718D01*
X-18966431Y5410763D01*
X-18848689Y5320416D01*
X-18848685Y5320414D01*
X-18844841Y5317464D01*
X-18698762Y5256956D01*
X-18693960Y5256324D01*
X-18693957Y5256323D01*
X-18636891Y5248811D01*
X-18603089Y5244361D01*
X-18560423Y5223320D01*
X-18471673Y5134570D01*
X-18465886Y5128057D01*
X-18450107Y5108042D01*
X-18442968Y5098986D01*
X-18438419Y5095842D01*
X-18438418Y5095841D01*
X-18394040Y5065170D01*
X-18392148Y5063818D01*
X-18348730Y5031748D01*
X-18348726Y5031746D01*
X-18344280Y5028462D01*
X-18339214Y5026684D01*
X-18338911Y5026499D01*
X-18338651Y5026372D01*
X-18336590Y5025322D01*
X-18336285Y5025160D01*
X-18335941Y5025016D01*
X-18331527Y5021965D01*
X-18291172Y5009202D01*
X-18274828Y5004033D01*
X-18272625Y5003298D01*
X-18224971Y4986564D01*
X-18216465Y4983577D01*
X-18211102Y4983367D01*
X-18210083Y4983109D01*
X-18206393Y4982390D01*
X-18202366Y4981116D01*
X-18195759Y4980596D01*
X-18142057Y4980596D01*
X-18139151Y4980539D01*
X-18086626Y4978475D01*
X-18081102Y4978258D01*
X-18075760Y4979674D01*
X-18071460Y4980149D01*
X-18063342Y4980596D01*
X-17488542Y4980596D01*
X-17456045Y4973079D01*
X-17394678Y4943082D01*
X-17394677Y4943082D01*
X-17389518Y4940560D01*
X-17321218Y4930596D01*
X-15854782Y4930596D01*
X-15848043Y4931588D01*
X-15791577Y4939900D01*
X-15791574Y4939901D01*
X-15785888Y4940738D01*
X-15780728Y4943271D01*
X-15780726Y4943272D01*
X-15717424Y4974352D01*
X-15681145Y4992164D01*
X-15676824Y4996493D01*
X-15676822Y4996494D01*
X-15603028Y5070417D01*
X-15603027Y5070419D01*
X-15598707Y5074746D01*
X-15590243Y5092062D01*
X-15549988Y5174414D01*
X-15549988Y5174415D01*
X-15547464Y5179578D01*
X-15537500Y5247878D01*
X-15537500Y5614314D01*
X-15541480Y5641351D01*
X-15546804Y5677519D01*
X-15546805Y5677522D01*
X-15547642Y5683208D01*
X-15550997Y5690043D01*
X-15576462Y5741907D01*
X-15599068Y5787951D01*
X-15603397Y5792272D01*
X-15603398Y5792274D01*
X-15677321Y5866068D01*
X-15677323Y5866069D01*
X-15681650Y5870389D01*
X-15723793Y5890989D01*
X-15781318Y5919108D01*
X-15781319Y5919108D01*
X-15786482Y5921632D01*
X-15854782Y5931596D01*
X-17321218Y5931596D01*
X-17323901Y5931201D01*
X-17384423Y5922292D01*
X-17384426Y5922291D01*
X-17390112Y5921454D01*
X-17395272Y5918921D01*
X-17395274Y5918920D01*
X-17424224Y5904706D01*
X-17452162Y5890989D01*
X-17455867Y5889170D01*
X-17488480Y5881596D01*
X-17876635Y5881596D01*
X-17924201Y5898909D01*
X-17950002Y5945938D01*
X-17956323Y5993956D01*
X-17956324Y5993958D01*
X-17956956Y5998762D01*
X-18017464Y6144841D01*
X-18020414Y6148685D01*
X-18020416Y6148689D01*
X-18110763Y6266431D01*
X-18113718Y6270282D01*
X-18144994Y6294281D01*
X-18235311Y6363584D01*
X-18235315Y6363586D01*
X-18239159Y6366536D01*
X-18385238Y6427044D01*
X-18390040Y6427676D01*
X-18390043Y6427677D01*
X-18537192Y6447049D01*
X-18542000Y6447682D01*
X-18546808Y6447049D01*
X-18693957Y6427677D01*
X-18693960Y6427676D01*
X-18698762Y6427044D01*
X-18844841Y6366536D01*
X-18848685Y6363586D01*
X-18848689Y6363584D01*
X-18939006Y6294281D01*
X-18970282Y6270282D01*
X-18973237Y6266431D01*
X-19063584Y6148689D01*
X-19063586Y6148685D01*
X-19066536Y6144841D01*
X-19127044Y5998762D01*
X-19127676Y5993960D01*
X-19127677Y5993957D01*
X-19143945Y5870389D01*
X-19147682Y5842000D01*
X-21090000Y5842000D01*
X-21090000Y8951000D01*
X-21072687Y8998566D01*
X-21028850Y9023876D01*
X-21016000Y9025000D01*
X15336000Y9025000D01*
X15383566Y9007687D01*
G37*
%TD.AperFunction*%
%TD*%
M02*
