%TF.GenerationSoftware,KiCad,Pcbnew,6.0.4-6f826c9f35~116~ubuntu20.04.1*%
%TF.CreationDate,2022-09-26T12:11:21+00:00*%
%TF.ProjectId,TFRPM01D,54465250-4d30-4314-942e-6b696361645f,rev?*%
%TF.SameCoordinates,PX7e721e0PY7e33658*%
%TF.FileFunction,Legend,Top*%
%TF.FilePolarity,Positive*%
%FSLAX46Y46*%
G04 Gerber Fmt 4.6, Leading zero omitted, Abs format (unit mm)*
G04 Created by KiCad (PCBNEW 6.0.4-6f826c9f35~116~ubuntu20.04.1) date 2022-09-26 12:11:21*
%MOMM*%
%LPD*%
G01*
G04 APERTURE LIST*
%ADD10C,0.150000*%
%ADD11C,0.200000*%
%ADD12C,0.300000*%
%ADD13C,0.250000*%
G04 APERTURE END LIST*
D10*
X11684000Y-3050904D02*
X11684000Y-2161904D01*
X12446000Y-2161904D02*
X12446000Y-3050904D01*
X11049000Y-3050904D02*
X11684000Y-3050904D01*
X12446000Y-3050904D02*
X13208000Y-3050904D01*
X11684000Y-2161904D02*
X12446000Y-2161904D01*
D11*
X7805523Y-95761D02*
X8796000Y-95761D01*
X8300761Y-590999D02*
X8300761Y399477D01*
X10034095Y709001D02*
X9415047Y709001D01*
X9353142Y89954D01*
X9415047Y151858D01*
X9538857Y213763D01*
X9848380Y213763D01*
X9972190Y151858D01*
X10034095Y89954D01*
X10096000Y-33856D01*
X10096000Y-343380D01*
X10034095Y-467189D01*
X9972190Y-529094D01*
X9848380Y-590999D01*
X9538857Y-590999D01*
X9415047Y-529094D01*
X9353142Y-467189D01*
X10467428Y709001D02*
X10900761Y-590999D01*
X11334095Y709001D01*
D12*
X-19049143Y-3903475D02*
X-18192000Y-3903475D01*
X-18620572Y-5403475D02*
X-18620572Y-3903475D01*
X-17192000Y-4617761D02*
X-17692000Y-4617761D01*
X-17692000Y-5403475D02*
X-17692000Y-3903475D01*
X-16977715Y-3903475D01*
X-15549143Y-5403475D02*
X-16049143Y-4689189D01*
X-16406286Y-5403475D02*
X-16406286Y-3903475D01*
X-15834858Y-3903475D01*
X-15692000Y-3974904D01*
X-15620572Y-4046332D01*
X-15549143Y-4189189D01*
X-15549143Y-4403475D01*
X-15620572Y-4546332D01*
X-15692000Y-4617761D01*
X-15834858Y-4689189D01*
X-16406286Y-4689189D01*
X-14906286Y-5403475D02*
X-14906286Y-3903475D01*
X-14334858Y-3903475D01*
X-14192000Y-3974904D01*
X-14120572Y-4046332D01*
X-14049143Y-4189189D01*
X-14049143Y-4403475D01*
X-14120572Y-4546332D01*
X-14192000Y-4617761D01*
X-14334858Y-4689189D01*
X-14906286Y-4689189D01*
X-13406286Y-5403475D02*
X-13406286Y-3903475D01*
X-12906286Y-4974904D01*
X-12406286Y-3903475D01*
X-12406286Y-5403475D01*
X-11406286Y-3903475D02*
X-11263429Y-3903475D01*
X-11120572Y-3974904D01*
X-11049143Y-4046332D01*
X-10977715Y-4189189D01*
X-10906286Y-4474904D01*
X-10906286Y-4832046D01*
X-10977715Y-5117761D01*
X-11049143Y-5260618D01*
X-11120572Y-5332046D01*
X-11263429Y-5403475D01*
X-11406286Y-5403475D01*
X-11549143Y-5332046D01*
X-11620572Y-5260618D01*
X-11692000Y-5117761D01*
X-11763429Y-4832046D01*
X-11763429Y-4474904D01*
X-11692000Y-4189189D01*
X-11620572Y-4046332D01*
X-11549143Y-3974904D01*
X-11406286Y-3903475D01*
X-9477715Y-5403475D02*
X-10334858Y-5403475D01*
X-9906286Y-5403475D02*
X-9906286Y-3903475D01*
X-10049143Y-4117761D01*
X-10192000Y-4260618D01*
X-10334858Y-4332046D01*
X-8834858Y-5403475D02*
X-8834858Y-3903475D01*
X-8477715Y-3903475D01*
X-8263429Y-3974904D01*
X-8120572Y-4117761D01*
X-8049143Y-4260618D01*
X-7977715Y-4546332D01*
X-7977715Y-4760618D01*
X-8049143Y-5046332D01*
X-8120572Y-5189189D01*
X-8263429Y-5332046D01*
X-8477715Y-5403475D01*
X-8834858Y-5403475D01*
D11*
X8486476Y3187096D02*
X8362666Y3249001D01*
X8176952Y3249001D01*
X7991238Y3187096D01*
X7867428Y3063287D01*
X7805523Y2939477D01*
X7743619Y2691858D01*
X7743619Y2506144D01*
X7805523Y2258525D01*
X7867428Y2134716D01*
X7991238Y2010906D01*
X8176952Y1949001D01*
X8300761Y1949001D01*
X8486476Y2010906D01*
X8548380Y2072811D01*
X8548380Y2506144D01*
X8300761Y2506144D01*
X9105523Y1949001D02*
X9105523Y3249001D01*
X9848380Y1949001D01*
X9848380Y3249001D01*
X10467428Y1949001D02*
X10467428Y3249001D01*
X10776952Y3249001D01*
X10962666Y3187096D01*
X11086476Y3063287D01*
X11148380Y2939477D01*
X11210285Y2691858D01*
X11210285Y2506144D01*
X11148380Y2258525D01*
X11086476Y2134716D01*
X10962666Y2010906D01*
X10776952Y1949001D01*
X10467428Y1949001D01*
X6451857Y-7588046D02*
X6509000Y-7530904D01*
X6623285Y-7473761D01*
X6909000Y-7473761D01*
X7023285Y-7530904D01*
X7080428Y-7588046D01*
X7137571Y-7702332D01*
X7137571Y-7816618D01*
X7080428Y-7988046D01*
X6394714Y-8673761D01*
X7137571Y-8673761D01*
X7880428Y-7473761D02*
X7994714Y-7473761D01*
X8109000Y-7530904D01*
X8166142Y-7588046D01*
X8223285Y-7702332D01*
X8280428Y-7930904D01*
X8280428Y-8216618D01*
X8223285Y-8445189D01*
X8166142Y-8559475D01*
X8109000Y-8616618D01*
X7994714Y-8673761D01*
X7880428Y-8673761D01*
X7766142Y-8616618D01*
X7709000Y-8559475D01*
X7651857Y-8445189D01*
X7594714Y-8216618D01*
X7594714Y-7930904D01*
X7651857Y-7702332D01*
X7709000Y-7588046D01*
X7766142Y-7530904D01*
X7880428Y-7473761D01*
X8737571Y-7588046D02*
X8794714Y-7530904D01*
X8909000Y-7473761D01*
X9194714Y-7473761D01*
X9309000Y-7530904D01*
X9366142Y-7588046D01*
X9423285Y-7702332D01*
X9423285Y-7816618D01*
X9366142Y-7988046D01*
X8680428Y-8673761D01*
X9423285Y-8673761D01*
X9880428Y-7588046D02*
X9937571Y-7530904D01*
X10051857Y-7473761D01*
X10337571Y-7473761D01*
X10451857Y-7530904D01*
X10509000Y-7588046D01*
X10566142Y-7702332D01*
X10566142Y-7816618D01*
X10509000Y-7988046D01*
X9823285Y-8673761D01*
X10566142Y-8673761D01*
X7805523Y-3130999D02*
X7805523Y-1830999D01*
X8424571Y-3130999D02*
X8424571Y-1830999D01*
X9167428Y-3130999D01*
X9167428Y-1830999D01*
D13*
X-19130096Y1217335D02*
X-17830096Y1217335D01*
X-17953905Y681620D02*
X-17892000Y622096D01*
X-17830096Y503049D01*
X-17830096Y205430D01*
X-17892000Y86382D01*
X-17953905Y26858D01*
X-18077715Y-32665D01*
X-18201524Y-32665D01*
X-18387239Y26858D01*
X-19130096Y741144D01*
X-19130096Y-32665D01*
X-19006286Y-1282665D02*
X-19068191Y-1223142D01*
X-19130096Y-1044570D01*
X-19130096Y-925523D01*
X-19068191Y-746951D01*
X-18944381Y-627904D01*
X-18820572Y-568380D01*
X-18572953Y-508856D01*
X-18387239Y-508856D01*
X-18139620Y-568380D01*
X-18015810Y-627904D01*
X-17892000Y-746951D01*
X-17830096Y-925523D01*
X-17830096Y-1044570D01*
X-17892000Y-1223142D01*
X-17953905Y-1282665D01*
D11*
X-7307477Y-8083999D02*
X-7307477Y-6783999D01*
X-6812239Y-6783999D01*
X-6688429Y-6845904D01*
X-6626524Y-6907808D01*
X-6564620Y-7031618D01*
X-6564620Y-7217332D01*
X-6626524Y-7341142D01*
X-6688429Y-7403046D01*
X-6812239Y-7464951D01*
X-7307477Y-7464951D01*
X-6007477Y-6783999D02*
X-6007477Y-7836380D01*
X-5945572Y-7960189D01*
X-5883667Y-8022094D01*
X-5759858Y-8083999D01*
X-5512239Y-8083999D01*
X-5388429Y-8022094D01*
X-5326524Y-7960189D01*
X-5264620Y-7836380D01*
X-5264620Y-6783999D01*
X-4026524Y-8083999D02*
X-4645572Y-8083999D01*
X-4645572Y-6783999D01*
X-3655096Y-8022094D02*
X-3469381Y-8083999D01*
X-3159858Y-8083999D01*
X-3036048Y-8022094D01*
X-2974143Y-7960189D01*
X-2912239Y-7836380D01*
X-2912239Y-7712570D01*
X-2974143Y-7588761D01*
X-3036048Y-7526856D01*
X-3159858Y-7464951D01*
X-3407477Y-7403046D01*
X-3531286Y-7341142D01*
X-3593191Y-7279237D01*
X-3655096Y-7155427D01*
X-3655096Y-7031618D01*
X-3593191Y-6907808D01*
X-3531286Y-6845904D01*
X-3407477Y-6783999D01*
X-3097953Y-6783999D01*
X-2912239Y-6845904D01*
X-2355096Y-7403046D02*
X-1921762Y-7403046D01*
X-1736048Y-8083999D02*
X-2355096Y-8083999D01*
X-2355096Y-6783999D01*
X-1736048Y-6783999D01*
X-19662858Y1768525D02*
X-19662858Y1654239D01*
X-19720000Y1539954D01*
X-19777143Y1482811D01*
X-19891429Y1425668D01*
X-20120000Y1368525D01*
X-20405715Y1368525D01*
X-20634286Y1425668D01*
X-20748572Y1482811D01*
X-20805715Y1539954D01*
X-20862858Y1654239D01*
X-20862858Y1768525D01*
X-20805715Y1882811D01*
X-20748572Y1939954D01*
X-20634286Y1997096D01*
X-20405715Y2054239D01*
X-20120000Y2054239D01*
X-19891429Y1997096D01*
X-19777143Y1939954D01*
X-19720000Y1882811D01*
X-19662858Y1768525D01*
X-19662858Y968525D02*
X-20862858Y168525D01*
X-19662858Y168525D02*
X-20862858Y968525D01*
X-19662858Y-860046D02*
X-19662858Y-288618D01*
X-20234286Y-231475D01*
X-20177143Y-288618D01*
X-20120000Y-402904D01*
X-20120000Y-688618D01*
X-20177143Y-802904D01*
X-20234286Y-860046D01*
X-20348572Y-917189D01*
X-20634286Y-917189D01*
X-20748572Y-860046D01*
X-20805715Y-802904D01*
X-20862858Y-688618D01*
X-20862858Y-402904D01*
X-20805715Y-288618D01*
X-20748572Y-231475D01*
X-19662858Y-1660046D02*
X-19662858Y-1774332D01*
X-19720000Y-1888618D01*
X-19777143Y-1945761D01*
X-19891429Y-2002904D01*
X-20120000Y-2060046D01*
X-20405715Y-2060046D01*
X-20634286Y-2002904D01*
X-20748572Y-1945761D01*
X-20805715Y-1888618D01*
X-20862858Y-1774332D01*
X-20862858Y-1660046D01*
X-20805715Y-1545761D01*
X-20748572Y-1488618D01*
X-20634286Y-1431475D01*
X-20405715Y-1374332D01*
X-20120000Y-1374332D01*
X-19891429Y-1431475D01*
X-19777143Y-1488618D01*
X-19720000Y-1545761D01*
X-19662858Y-1660046D01*
X-16070477Y-7954095D02*
X-16070477Y-6654095D01*
X-15575239Y-6654095D01*
X-15451429Y-6716000D01*
X-15389524Y-6777904D01*
X-15327620Y-6901714D01*
X-15327620Y-7087428D01*
X-15389524Y-7211238D01*
X-15451429Y-7273142D01*
X-15575239Y-7335047D01*
X-16070477Y-7335047D01*
X-14894286Y-6654095D02*
X-14584762Y-7954095D01*
X-14337143Y-7025523D01*
X-14089524Y-7954095D01*
X-13780000Y-6654095D01*
X-12541905Y-7954095D02*
X-12975239Y-7335047D01*
X-13284762Y-7954095D02*
X-13284762Y-6654095D01*
X-12789524Y-6654095D01*
X-12665715Y-6716000D01*
X-12603810Y-6777904D01*
X-12541905Y-6901714D01*
X-12541905Y-7087428D01*
X-12603810Y-7211238D01*
X-12665715Y-7273142D01*
X-12789524Y-7335047D01*
X-13284762Y-7335047D01*
M02*
