%TF.GenerationSoftware,KiCad,Pcbnew,6.0.4-6f826c9f35~116~ubuntu20.04.1*%
%TF.CreationDate,2022-07-20T10:00:27+00:00*%
%TF.ProjectId,TFRPM01D,54465250-4d30-4314-942e-6b696361645f,rev?*%
%TF.SameCoordinates,PX7e721e0PY7e33658*%
%TF.FileFunction,Copper,L2,Bot*%
%TF.FilePolarity,Positive*%
%FSLAX46Y46*%
G04 Gerber Fmt 4.6, Leading zero omitted, Abs format (unit mm)*
G04 Created by KiCad (PCBNEW 6.0.4-6f826c9f35~116~ubuntu20.04.1) date 2022-07-20 10:00:27*
%MOMM*%
%LPD*%
G01*
G04 APERTURE LIST*
G04 Aperture macros list*
%AMRoundRect*
0 Rectangle with rounded corners*
0 $1 Rounding radius*
0 $2 $3 $4 $5 $6 $7 $8 $9 X,Y pos of 4 corners*
0 Add a 4 corners polygon primitive as box body*
4,1,4,$2,$3,$4,$5,$6,$7,$8,$9,$2,$3,0*
0 Add four circle primitives for the rounded corners*
1,1,$1+$1,$2,$3*
1,1,$1+$1,$4,$5*
1,1,$1+$1,$6,$7*
1,1,$1+$1,$8,$9*
0 Add four rect primitives between the rounded corners*
20,1,$1+$1,$2,$3,$4,$5,0*
20,1,$1+$1,$4,$5,$6,$7,0*
20,1,$1+$1,$6,$7,$8,$9,0*
20,1,$1+$1,$8,$9,$2,$3,0*%
%AMFreePoly0*
4,1,23,0.405000,0.745859,0.430881,0.748312,0.514323,0.717469,0.576135,0.653491,0.604089,0.569038,0.592652,0.480816,0.586330,0.471113,0.535039,0.293596,0.507441,0.099101,0.507318,-0.097342,0.534670,-0.291871,0.585847,-0.469829,0.592288,-0.479819,0.603305,-0.568094,0.574951,-0.652415,0.512835,-0.716097,0.429248,-0.746543,0.405000,-0.744129,0.405000,-0.750000,-0.645000,-0.750000,
-0.645000,0.750000,0.405000,0.750000,0.405000,0.745859,0.405000,0.745859,$1*%
%AMFreePoly1*
4,1,22,0.550000,-0.750000,0.000000,-0.750000,0.000000,-0.745033,-0.079941,-0.743568,-0.215256,-0.701293,-0.333266,-0.622738,-0.424486,-0.514219,-0.481581,-0.384460,-0.499164,-0.250000,-0.500000,-0.250000,-0.500000,0.250000,-0.499164,0.250000,-0.499963,0.256109,-0.478152,0.396186,-0.417904,0.524511,-0.324060,0.630769,-0.204165,0.706417,-0.067858,0.745374,0.000000,0.744959,0.000000,0.750000,
0.550000,0.750000,0.550000,-0.750000,0.550000,-0.750000,$1*%
%AMFreePoly2*
4,1,20,0.000000,0.744959,0.073905,0.744508,0.209726,0.703889,0.328688,0.626782,0.421226,0.519385,0.479903,0.390333,0.500000,0.250000,0.500000,-0.250000,0.499851,-0.262216,0.476331,-0.402017,0.414519,-0.529596,0.319384,-0.634700,0.198574,-0.708877,0.061801,-0.746166,0.000000,-0.745033,0.000000,-0.750000,-0.550000,-0.750000,-0.550000,0.750000,0.000000,0.750000,0.000000,0.744959,
0.000000,0.744959,$1*%
G04 Aperture macros list end*
%TA.AperFunction,SMDPad,CuDef*%
%ADD10R,1.700000X1.300000*%
%TD*%
%TA.AperFunction,ComponentPad*%
%ADD11C,6.000000*%
%TD*%
%TA.AperFunction,SMDPad,CuDef*%
%ADD12RoundRect,0.200000X0.200000X0.275000X-0.200000X0.275000X-0.200000X-0.275000X0.200000X-0.275000X0*%
%TD*%
%TA.AperFunction,ComponentPad*%
%ADD13R,1.700000X1.700000*%
%TD*%
%TA.AperFunction,ComponentPad*%
%ADD14O,1.700000X1.700000*%
%TD*%
%TA.AperFunction,SMDPad,CuDef*%
%ADD15R,1.060000X0.650000*%
%TD*%
%TA.AperFunction,SMDPad,CuDef*%
%ADD16RoundRect,0.250000X0.475000X-0.250000X0.475000X0.250000X-0.475000X0.250000X-0.475000X-0.250000X0*%
%TD*%
%TA.AperFunction,SMDPad,CuDef*%
%ADD17RoundRect,0.225000X0.225000X0.250000X-0.225000X0.250000X-0.225000X-0.250000X0.225000X-0.250000X0*%
%TD*%
%TA.AperFunction,SMDPad,CuDef*%
%ADD18RoundRect,0.150000X0.700000X-0.150000X0.700000X0.150000X-0.700000X0.150000X-0.700000X-0.150000X0*%
%TD*%
%TA.AperFunction,SMDPad,CuDef*%
%ADD19RoundRect,0.250000X1.100000X-0.250000X1.100000X0.250000X-1.100000X0.250000X-1.100000X-0.250000X0*%
%TD*%
%TA.AperFunction,SMDPad,CuDef*%
%ADD20RoundRect,0.200000X-0.275000X0.200000X-0.275000X-0.200000X0.275000X-0.200000X0.275000X0.200000X0*%
%TD*%
%TA.AperFunction,SMDPad,CuDef*%
%ADD21RoundRect,0.250000X-0.450000X0.262500X-0.450000X-0.262500X0.450000X-0.262500X0.450000X0.262500X0*%
%TD*%
%TA.AperFunction,SMDPad,CuDef*%
%ADD22RoundRect,0.250000X0.450000X-0.262500X0.450000X0.262500X-0.450000X0.262500X-0.450000X-0.262500X0*%
%TD*%
%TA.AperFunction,SMDPad,CuDef*%
%ADD23RoundRect,0.225000X-0.250000X0.225000X-0.250000X-0.225000X0.250000X-0.225000X0.250000X0.225000X0*%
%TD*%
%TA.AperFunction,SMDPad,CuDef*%
%ADD24O,0.700000X2.600000*%
%TD*%
%TA.AperFunction,SMDPad,CuDef*%
%ADD25RoundRect,0.225000X0.250000X-0.225000X0.250000X0.225000X-0.250000X0.225000X-0.250000X-0.225000X0*%
%TD*%
%TA.AperFunction,SMDPad,CuDef*%
%ADD26FreePoly0,180.000000*%
%TD*%
%TA.AperFunction,SMDPad,CuDef*%
%ADD27FreePoly0,0.000000*%
%TD*%
%TA.AperFunction,SMDPad,CuDef*%
%ADD28R,0.400000X0.650000*%
%TD*%
%TA.AperFunction,SMDPad,CuDef*%
%ADD29RoundRect,0.200000X0.275000X-0.200000X0.275000X0.200000X-0.275000X0.200000X-0.275000X-0.200000X0*%
%TD*%
%TA.AperFunction,SMDPad,CuDef*%
%ADD30FreePoly1,0.000000*%
%TD*%
%TA.AperFunction,SMDPad,CuDef*%
%ADD31R,1.000000X1.500000*%
%TD*%
%TA.AperFunction,SMDPad,CuDef*%
%ADD32FreePoly2,0.000000*%
%TD*%
%TA.AperFunction,SMDPad,CuDef*%
%ADD33FreePoly1,270.000000*%
%TD*%
%TA.AperFunction,SMDPad,CuDef*%
%ADD34R,1.500000X1.000000*%
%TD*%
%TA.AperFunction,SMDPad,CuDef*%
%ADD35FreePoly2,270.000000*%
%TD*%
%TA.AperFunction,ViaPad*%
%ADD36C,0.800000*%
%TD*%
%TA.AperFunction,Conductor*%
%ADD37C,0.400000*%
%TD*%
%TA.AperFunction,Conductor*%
%ADD38C,0.500000*%
%TD*%
G04 APERTURE END LIST*
%TO.C,JP1*%
G36*
X-3142000Y-4517404D02*
G01*
X-3642000Y-4517404D01*
X-3642000Y-3917404D01*
X-3142000Y-3917404D01*
X-3142000Y-4517404D01*
G37*
%TO.C,JP2*%
G36*
X2258000Y6825096D02*
G01*
X1658000Y6825096D01*
X1658000Y7325096D01*
X2258000Y7325096D01*
X2258000Y6825096D01*
G37*
%TD*%
D10*
%TO.P,D1,1,K*%
%TO.N,+5V*%
X-14692000Y1493096D03*
%TO.P,D1,2,A*%
%TO.N,GND*%
X-14692000Y-2006904D03*
%TD*%
D11*
%TO.P,M2,1*%
%TO.N,GND*%
X0Y0D03*
%TD*%
D12*
%TO.P,R10,1*%
%TO.N,+3V3*%
X-6617000Y7425096D03*
%TO.P,R10,2*%
%TO.N,/SCL*%
X-8267000Y7425096D03*
%TD*%
D13*
%TO.P,J1,1*%
%TO.N,/COUNT*%
X5715000Y-2540000D03*
D14*
%TO.P,J1,2*%
%TO.N,Net-(C2-Pad1)*%
X5715000Y0D03*
%TO.P,J1,3*%
%TO.N,GND*%
X5715000Y2540000D03*
%TD*%
D15*
%TO.P,U3,1,VIN*%
%TO.N,+5V*%
X-4642000Y5725096D03*
%TO.P,U3,2,GND*%
%TO.N,GND*%
X-4642000Y6675096D03*
%TO.P,U3,3,EN*%
%TO.N,+5V*%
X-4642000Y7625096D03*
%TO.P,U3,4,NC*%
%TO.N,unconnected-(U3-Pad4)*%
X-2442000Y7625096D03*
%TO.P,U3,5,VOUT*%
%TO.N,+3V3*%
X-2442000Y5725096D03*
%TD*%
D16*
%TO.P,C3,1*%
%TO.N,+5V*%
X-14542000Y3375096D03*
%TO.P,C3,2*%
%TO.N,GND*%
X-14542000Y5275096D03*
%TD*%
D17*
%TO.P,C4,1*%
%TO.N,+5V*%
X-13267000Y7425096D03*
%TO.P,C4,2*%
%TO.N,GND*%
X-14817000Y7425096D03*
%TD*%
D18*
%TO.P,J2,1*%
%TO.N,+5V*%
X-17088000Y2931096D03*
%TO.P,J2,2*%
%TO.N,/SCL*%
X-17088000Y4181096D03*
%TO.P,J2,3*%
%TO.N,/SDA*%
X-17088000Y5431096D03*
%TO.P,J2,4*%
%TO.N,GND*%
X-17088000Y6681096D03*
D19*
%TO.P,J2,MP*%
X-20288000Y1081096D03*
X-20288000Y8531096D03*
%TD*%
D20*
%TO.P,R4,1*%
%TO.N,Net-(R4-Pad1)*%
X-3556000Y-6518404D03*
%TO.P,R4,2*%
%TO.N,Net-(D2-Pad2)*%
X-3556000Y-8168404D03*
%TD*%
D21*
%TO.P,R1,1*%
%TO.N,Net-(JP2-Pad2)*%
X9008000Y7437596D03*
%TO.P,R1,2*%
%TO.N,/COUNT*%
X9008000Y5612596D03*
%TD*%
D22*
%TO.P,R2,1*%
%TO.N,Net-(C2-Pad1)*%
X4608000Y5612596D03*
%TO.P,R2,2*%
%TO.N,Net-(JP2-Pad2)*%
X4608000Y7437596D03*
%TD*%
D12*
%TO.P,R3,1*%
%TO.N,+3V3*%
X-9967000Y7425096D03*
%TO.P,R3,2*%
%TO.N,/SDA*%
X-11617000Y7425096D03*
%TD*%
D23*
%TO.P,C6,1*%
%TO.N,+3V3*%
X4064000Y-6162404D03*
%TO.P,C6,2*%
%TO.N,GND*%
X4064000Y-7712404D03*
%TD*%
D18*
%TO.P,J3,1*%
%TO.N,+5V*%
X-17088000Y-6643904D03*
%TO.P,J3,2*%
%TO.N,/SCL*%
X-17088000Y-5393904D03*
%TO.P,J3,3*%
%TO.N,/SDA*%
X-17088000Y-4143904D03*
%TO.P,J3,4*%
%TO.N,GND*%
X-17088000Y-2893904D03*
D19*
%TO.P,J3,MP*%
X-20288000Y-8493904D03*
X-20288000Y-1043904D03*
%TD*%
D23*
%TO.P,C5,1*%
%TO.N,+3V3*%
X-4419500Y3820096D03*
%TO.P,C5,2*%
%TO.N,GND*%
X-4419500Y2270096D03*
%TD*%
D24*
%TO.P,U1,1,OSCI*%
%TO.N,Net-(R4-Pad1)*%
X-7387000Y-4424904D03*
%TO.P,U1,2,OSCO*%
%TO.N,unconnected-(U1-Pad2)*%
X-8657000Y-4424904D03*
%TO.P,U1,3,A0*%
%TO.N,Net-(JP1-Pad2)*%
X-9927000Y-4424904D03*
%TO.P,U1,4,VSS*%
%TO.N,GND*%
X-11202000Y-4424904D03*
%TO.P,U1,5,SDA*%
%TO.N,/SDA*%
X-11197000Y4375096D03*
%TO.P,U1,6,SCL*%
%TO.N,/SCL*%
X-9927000Y4375096D03*
%TO.P,U1,7,#INT*%
%TO.N,unconnected-(U1-Pad7)*%
X-8592000Y4375096D03*
%TO.P,U1,8,VDD*%
%TO.N,+3V3*%
X-7387000Y4375096D03*
%TD*%
D25*
%TO.P,C1,1*%
%TO.N,+3V3*%
X-292000Y6000096D03*
%TO.P,C1,2*%
%TO.N,GND*%
X-292000Y7550096D03*
%TD*%
D16*
%TO.P,C2,1*%
%TO.N,Net-(C2-Pad1)*%
X6808000Y5575096D03*
%TO.P,C2,2*%
%TO.N,GND*%
X6808000Y7475096D03*
%TD*%
D26*
%TO.P,D2,1,K*%
%TO.N,GND*%
X1615000Y-7200000D03*
D27*
%TO.P,D2,2,A*%
%TO.N,Net-(D2-Pad2)*%
X-2195000Y-7200000D03*
%TD*%
D28*
%TO.P,U2,1*%
%TO.N,N/C*%
X6462000Y-5910904D03*
%TO.P,U2,2*%
%TO.N,/COUNT*%
X7112000Y-5910904D03*
%TO.P,U2,3,GND*%
%TO.N,GND*%
X7762000Y-5910904D03*
%TO.P,U2,4*%
%TO.N,Net-(R4-Pad1)*%
X7762000Y-7810904D03*
%TO.P,U2,5,VCC*%
%TO.N,+3V3*%
X6462000Y-7810904D03*
%TD*%
D29*
%TO.P,R5,1*%
%TO.N,Net-(D3-Pad1)*%
X-5292000Y-8174904D03*
%TO.P,R5,2*%
%TO.N,GND*%
X-5292000Y-6524904D03*
%TD*%
D30*
%TO.P,JP1,1,A*%
%TO.N,GND*%
X-4042000Y-4217404D03*
D31*
%TO.P,JP1,2,C*%
%TO.N,Net-(JP1-Pad2)*%
X-2742000Y-4217404D03*
D32*
%TO.P,JP1,3,B*%
%TO.N,+3V3*%
X-1442000Y-4217404D03*
%TD*%
D26*
%TO.P,D3,1,K*%
%TO.N,Net-(D3-Pad1)*%
X-8385000Y-7366000D03*
D27*
%TO.P,D3,2,A*%
%TO.N,+5V*%
X-12195000Y-7366000D03*
%TD*%
D33*
%TO.P,JP2,1,A*%
%TO.N,+5V*%
X1958000Y7725096D03*
D34*
%TO.P,JP2,2,C*%
%TO.N,Net-(JP2-Pad2)*%
X1958000Y6425096D03*
D35*
%TO.P,JP2,3,B*%
%TO.N,+3V3*%
X1958000Y5125096D03*
%TD*%
D36*
%TO.N,GND*%
X-942000Y8775096D03*
X-17272000Y1524000D03*
X-17272000Y0D03*
X-17272000Y-1524000D03*
X9398000Y-6606904D03*
X-12192000Y3807096D03*
X-17272000Y-8382000D03*
X-14732000Y-8384904D03*
X-20320000Y3302000D03*
X-20320000Y-6350000D03*
X-20320000Y-3302000D03*
X-20320000Y-5334000D03*
X-20320000Y6350000D03*
X-20320000Y-4318000D03*
X-20320000Y5334000D03*
X-20320000Y4318000D03*
X-15494000Y8506096D03*
X5158000Y-4274904D03*
X6958000Y3525096D03*
X10414000Y-3050904D03*
X11176000Y-6352904D03*
X10414000Y-4320904D03*
X10541000Y8252096D03*
X-2286000Y3807096D03*
X1905000Y4061096D03*
X11176000Y-8384904D03*
X11176000Y-7368904D03*
X3048000Y3553096D03*
X3937000Y2537096D03*
X4318000Y1394096D03*
X10414000Y-1778000D03*
X10541000Y7109096D03*
X3158000Y-7574904D03*
X8382000Y-4574904D03*
X-12700000Y-510904D03*
X9398000Y-5590904D03*
X-5942000Y-3624904D03*
X-12700000Y1267096D03*
X3008000Y-2374904D03*
X-12522200Y8506096D03*
X3048000Y-3812904D03*
X-18642000Y6975096D03*
X-16764000Y8506096D03*
X-14097000Y8506096D03*
%TO.N,+3V3*%
X-7038000Y2581096D03*
X1108000Y-4324904D03*
X5358000Y-7674904D03*
%TO.N,+5V*%
X-13970000Y0D03*
X-12792000Y6325096D03*
X-13988000Y-6018904D03*
X3212000Y7731096D03*
X-3638000Y8381096D03*
%TO.N,/SDA*%
X-15392000Y-3424904D03*
X-18642000Y5725096D03*
X-11688000Y2481096D03*
%TD*%
D37*
%TO.N,Net-(D2-Pad2)*%
X-3556000Y-8130904D02*
X-2770904Y-8130904D01*
X-2770904Y-8130904D02*
X-1840000Y-7200000D01*
D38*
%TO.N,/COUNT*%
X8890000Y5454596D02*
X9008000Y5572596D01*
X5715000Y-2540000D02*
X8890000Y635000D01*
D37*
X7112000Y-4066904D02*
X5715000Y-2669904D01*
X5715000Y-2669904D02*
X5715000Y-2540000D01*
X7112000Y-4066904D02*
X7112000Y-5910904D01*
D38*
X5715000Y-2540000D02*
X5842000Y-2540000D01*
X8890000Y635000D02*
X8890000Y5454596D01*
D37*
%TO.N,+3V3*%
X-7387000Y4375096D02*
X-7387000Y6655096D01*
X1958000Y5125096D02*
X583000Y5125096D01*
X583000Y5125096D02*
X-292000Y6000096D01*
X1108000Y-4324904D02*
X-1334500Y-4324904D01*
D38*
X-2032000Y5915096D02*
X-589000Y5915096D01*
D37*
X-1334500Y-4324904D02*
X-1442000Y-4217404D01*
X-6617000Y7600096D02*
X-7316520Y8299616D01*
X-2442000Y5725096D02*
X-2514500Y5725096D01*
D38*
X4064000Y-6327404D02*
X5334000Y-7597404D01*
X-7337000Y2880096D02*
X-7387000Y2880096D01*
D37*
X-7316520Y8299616D02*
X-9092480Y8299616D01*
X-7387000Y6655096D02*
X-6617000Y7425096D01*
D38*
X-7038000Y2581096D02*
X-7337000Y2880096D01*
D37*
X-2514500Y5725096D02*
X-4419500Y3820096D01*
D38*
X5400000Y-7810904D02*
X5334000Y-7876904D01*
D37*
X-4419500Y3820096D02*
X-5799000Y3820096D01*
X-5799000Y3820096D02*
X-7038000Y2581096D01*
X-9092480Y8299616D02*
X-9967000Y7425096D01*
D38*
X5334000Y-7597404D02*
X5334000Y-7876904D01*
D37*
X-6617000Y7425096D02*
X-6617000Y7600096D01*
D38*
X-7387000Y2880096D02*
X-7387000Y4375096D01*
X6462000Y-7810904D02*
X5400000Y-7810904D01*
%TO.N,+5V*%
X-3638000Y8381096D02*
X-3638000Y5925074D01*
D37*
X-14588000Y-6618904D02*
X-13988000Y-6018904D01*
X3206000Y7725096D02*
X3212000Y7731096D01*
X-14466000Y-6618904D02*
X-16088000Y-6618904D01*
X-17063000Y-6618904D02*
X-17088000Y-6643904D01*
X-13988000Y-6018904D02*
X-13021096Y-6018904D01*
D38*
X-14478000Y508000D02*
X-14478000Y2643096D01*
X-3837978Y5725096D02*
X-4642000Y5725096D01*
X-12792000Y6950096D02*
X-13267000Y7425096D01*
X-15814096Y3205000D02*
X-16088000Y2931096D01*
D37*
X1958000Y7725096D02*
X3206000Y7725096D01*
D38*
X-3638000Y8081096D02*
X-4094000Y7625096D01*
X-15039904Y3205000D02*
X-15814096Y3205000D01*
D37*
X-13021096Y-6018904D02*
X-13021096Y-6539904D01*
X-13021096Y-6539904D02*
X-12195000Y-7366000D01*
X-16088000Y-6618904D02*
X-17063000Y-6618904D01*
D38*
X-3638000Y8381096D02*
X-3638000Y8081096D01*
X-4094000Y7625096D02*
X-4642000Y7625096D01*
X-12792000Y4875096D02*
X-14292000Y3375096D01*
X-14478000Y2643096D02*
X-15039904Y3205000D01*
X-14292000Y3375096D02*
X-14542000Y3375096D01*
X-3638000Y5925074D02*
X-3837978Y5725096D01*
D37*
X-16088000Y-6618904D02*
X-14588000Y-6618904D01*
D38*
X-12792000Y6325096D02*
X-12792000Y6950096D01*
X-16088000Y2931096D02*
X-17088000Y2931096D01*
X-12792000Y6325096D02*
X-12792000Y4875096D01*
X-13970000Y0D02*
X-14478000Y508000D01*
D37*
%TO.N,/SDA*%
X-17200000Y5705000D02*
X-18621904Y5705000D01*
D38*
X-15812000Y-3844904D02*
X-15392000Y-3424904D01*
D37*
X-11197000Y2972096D02*
X-11688000Y2481096D01*
X-18621904Y5705000D02*
X-18642000Y5725096D01*
X-11197000Y4375096D02*
X-11197000Y7005096D01*
X-11197000Y7005096D02*
X-11617000Y7425096D01*
D38*
X-16111000Y-4143904D02*
X-17088000Y-4143904D01*
X-15812000Y-3844904D02*
X-16111000Y-4143904D01*
D37*
X-11197000Y4375096D02*
X-11197000Y2972096D01*
D38*
%TO.N,/SCL*%
X-17088000Y-5393904D02*
X-17913000Y-5393904D01*
X-16063000Y-5393904D02*
X-17088000Y-5393904D01*
D37*
X-8292000Y7425096D02*
X-9927000Y5790096D01*
D38*
X-15763000Y-5093904D02*
X-16063000Y-5393904D01*
D37*
X-8267000Y7425096D02*
X-8292000Y7425096D01*
D38*
X-15763000Y-5093904D02*
X-14113000Y-3443904D01*
X-14113000Y-3443904D02*
X-12913000Y-3443904D01*
X-18500010Y-4806894D02*
X-18500010Y3519086D01*
D37*
X-9927000Y5790096D02*
X-9927000Y4375096D01*
D38*
X-9927000Y-457904D02*
X-9927000Y4375096D01*
X-18500010Y3519086D02*
X-17838000Y4181096D01*
X-17838000Y4181096D02*
X-17088000Y4181096D01*
X-12913000Y-3443904D02*
X-9927000Y-457904D01*
X-17913000Y-5393904D02*
X-18500010Y-4806894D01*
D37*
%TO.N,Net-(R4-Pad1)*%
X-5649500Y-4424904D02*
X-3556000Y-6518404D01*
X-392000Y-5224904D02*
X-1242000Y-5674904D01*
X4488365Y-5224904D02*
X4508000Y-5224904D01*
X5944000Y-6680539D02*
X4488365Y-5224904D01*
X-1242000Y-5674904D02*
X-2675000Y-5674904D01*
X4488365Y-5224904D02*
X-392000Y-5224904D01*
X-3556000Y-6555904D02*
X-3537000Y-6574904D01*
X6631635Y-6680539D02*
X7762000Y-7810904D01*
X-7387000Y-4424904D02*
X-5649500Y-4424904D01*
X5944000Y-6680539D02*
X6631635Y-6680539D01*
X-3556000Y-6488904D02*
X-3556000Y-6555904D01*
X-3556000Y-6555904D02*
X-3373000Y-6555904D01*
X-2675000Y-5674904D02*
X-3556000Y-6555904D01*
%TO.N,Net-(JP1-Pad2)*%
X-2742000Y-3197006D02*
X-3213622Y-2725384D01*
X-9342000Y-2424904D02*
X-9927000Y-3009904D01*
X-6742000Y-2424904D02*
X-9342000Y-2424904D01*
X-9927000Y-3009904D02*
X-9927000Y-4424904D01*
X-6441520Y-2725384D02*
X-6742000Y-2424904D01*
X-2742000Y-4217404D02*
X-2742000Y-3197006D01*
X-3213622Y-2725384D02*
X-6441520Y-2725384D01*
%TO.N,Net-(JP2-Pad2)*%
X1958000Y6425096D02*
X3595500Y6425096D01*
X3595500Y6425096D02*
X4608000Y7437596D01*
X5470020Y6575576D02*
X8145980Y6575576D01*
X8145980Y6575576D02*
X9008000Y7437596D01*
X4608000Y7437596D02*
X5470020Y6575576D01*
D38*
X2443000Y6347096D02*
X2443000Y6250096D01*
X2443000Y6250096D02*
X2413000Y6220096D01*
%TO.N,Net-(C2-Pad1)*%
X7741489Y5191607D02*
X7360500Y5572596D01*
X7360500Y5572596D02*
X6808000Y5572596D01*
X5715000Y0D02*
X7741489Y2026489D01*
X6808000Y5572596D02*
X4608000Y5572596D01*
X7741489Y2026489D02*
X7741489Y5191607D01*
D37*
%TO.N,Net-(D3-Pad1)*%
X-5292000Y-8174904D02*
X-7915096Y-8174904D01*
%TD*%
%TA.AperFunction,Conductor*%
%TO.N,GND*%
G36*
X-4018731Y9006093D02*
G01*
X-3982767Y8956593D01*
X-3982767Y8895407D01*
X-4016655Y8847458D01*
X-4066282Y8809378D01*
X-4162536Y8683937D01*
X-4223044Y8537858D01*
X-4243682Y8381096D01*
X-4242835Y8374662D01*
X-4228071Y8262518D01*
X-4239221Y8202357D01*
X-4283603Y8160240D01*
X-4326224Y8150596D01*
X-5191748Y8150596D01*
X-5216789Y8145615D01*
X-5240666Y8140866D01*
X-5240668Y8140865D01*
X-5250231Y8138963D01*
X-5316552Y8094648D01*
X-5360867Y8028327D01*
X-5372500Y7969844D01*
X-5372500Y7280348D01*
X-5371552Y7275584D01*
X-5362919Y7232183D01*
X-5360867Y7221865D01*
X-5316552Y7155544D01*
X-5250231Y7111229D01*
X-5240668Y7109327D01*
X-5240666Y7109326D01*
X-5226080Y7106425D01*
X-5191748Y7099596D01*
X-4187500Y7099596D01*
X-4129309Y7080689D01*
X-4093345Y7031189D01*
X-4088500Y7000596D01*
X-4088500Y6349596D01*
X-4107407Y6291405D01*
X-4156907Y6255441D01*
X-4187500Y6250596D01*
X-5191748Y6250596D01*
X-5216457Y6245681D01*
X-5240666Y6240866D01*
X-5240668Y6240865D01*
X-5250231Y6238963D01*
X-5316552Y6194648D01*
X-5360867Y6128327D01*
X-5372500Y6069844D01*
X-5372500Y5380348D01*
X-5360867Y5321865D01*
X-5316552Y5255544D01*
X-5250231Y5211229D01*
X-5240668Y5209327D01*
X-5240666Y5209326D01*
X-5217995Y5204817D01*
X-5191748Y5199596D01*
X-4092252Y5199596D01*
X-4066005Y5204817D01*
X-4043334Y5209326D01*
X-4043332Y5209327D01*
X-4033769Y5211229D01*
X-3967448Y5255544D01*
X-3965700Y5252928D01*
X-3925566Y5273377D01*
X-3910079Y5274596D01*
X-3870605Y5274596D01*
X-3858969Y5273910D01*
X-3823668Y5269732D01*
X-3816392Y5271061D01*
X-3816389Y5271061D01*
X-3791869Y5275540D01*
X-3784240Y5276933D01*
X-3723599Y5268788D01*
X-3679327Y5226555D01*
X-3668334Y5166365D01*
X-3696449Y5109540D01*
X-4306397Y4499592D01*
X-4360914Y4471815D01*
X-4376401Y4470596D01*
X-4702988Y4470596D01*
X-4706832Y4469987D01*
X-4706834Y4469987D01*
X-4794931Y4456034D01*
X-4794932Y4456034D01*
X-4802626Y4454815D01*
X-4809565Y4451279D01*
X-4809566Y4451279D01*
X-4915781Y4397160D01*
X-4915783Y4397159D01*
X-4922720Y4393624D01*
X-5018028Y4298316D01*
X-5021563Y4291379D01*
X-5021564Y4291377D01*
X-5030086Y4274651D01*
X-5073351Y4231386D01*
X-5118296Y4220596D01*
X-5862433Y4220596D01*
X-5885380Y4213140D01*
X-5900481Y4209515D01*
X-5916609Y4206961D01*
X-5916611Y4206960D01*
X-5924304Y4205742D01*
X-5945799Y4194790D01*
X-5960145Y4188847D01*
X-5975680Y4183800D01*
X-5975684Y4183798D01*
X-5983089Y4181392D01*
X-6002610Y4167209D01*
X-6015849Y4159097D01*
X-6030403Y4151682D01*
X-6030405Y4151680D01*
X-6037342Y4148146D01*
X-6059905Y4125583D01*
X-6059909Y4125580D01*
X-6667496Y3517993D01*
X-6722013Y3490216D01*
X-6782445Y3499787D01*
X-6825710Y3543052D01*
X-6836500Y3587997D01*
X-6836500Y5362881D01*
X-6844633Y5422255D01*
X-6850878Y5467845D01*
X-6850879Y5467849D01*
X-6851794Y5474528D01*
X-6854472Y5480717D01*
X-6854472Y5480718D01*
X-6909014Y5606757D01*
X-6909016Y5606761D01*
X-6911695Y5612951D01*
X-6958085Y5670238D01*
X-6964437Y5678082D01*
X-6986500Y5740385D01*
X-6986500Y6448195D01*
X-6967593Y6506386D01*
X-6957504Y6518199D01*
X-6755103Y6720600D01*
X-6700586Y6748377D01*
X-6685099Y6749596D01*
X-6415022Y6749597D01*
X-6385482Y6749597D01*
X-6381639Y6750206D01*
X-6381634Y6750206D01*
X-6344783Y6756043D01*
X-6291696Y6764450D01*
X-6235177Y6793248D01*
X-6185597Y6818510D01*
X-6185595Y6818511D01*
X-6178658Y6822046D01*
X-6088950Y6911754D01*
X-6085412Y6918696D01*
X-6034890Y7017852D01*
X-6034890Y7017853D01*
X-6031354Y7024792D01*
X-6027414Y7049665D01*
X-6017109Y7114731D01*
X-6017109Y7114733D01*
X-6016500Y7118577D01*
X-6016501Y7731614D01*
X-6017110Y7735465D01*
X-6024078Y7779457D01*
X-6031354Y7825400D01*
X-6060152Y7881919D01*
X-6085414Y7931499D01*
X-6085415Y7931501D01*
X-6088950Y7938438D01*
X-6178658Y8028146D01*
X-6185595Y8031681D01*
X-6185597Y8031682D01*
X-6284756Y8082206D01*
X-6284757Y8082206D01*
X-6291696Y8085742D01*
X-6299390Y8086961D01*
X-6299391Y8086961D01*
X-6381635Y8099987D01*
X-6381637Y8099987D01*
X-6385481Y8100596D01*
X-6510099Y8100596D01*
X-6568290Y8119503D01*
X-6580103Y8129592D01*
X-7055611Y8605100D01*
X-7055615Y8605103D01*
X-7078178Y8627666D01*
X-7099674Y8638618D01*
X-7112915Y8646733D01*
X-7126125Y8656331D01*
X-7132430Y8660912D01*
X-7155377Y8668368D01*
X-7169723Y8674311D01*
X-7191216Y8685262D01*
X-7198909Y8686480D01*
X-7198911Y8686481D01*
X-7215039Y8689035D01*
X-7230140Y8692660D01*
X-7253087Y8700116D01*
X-9155913Y8700116D01*
X-9178860Y8692660D01*
X-9193961Y8689035D01*
X-9210089Y8686481D01*
X-9210091Y8686480D01*
X-9217784Y8685262D01*
X-9239277Y8674311D01*
X-9253623Y8668368D01*
X-9276570Y8660912D01*
X-9282875Y8656331D01*
X-9296085Y8646733D01*
X-9309326Y8638618D01*
X-9330822Y8627666D01*
X-9353385Y8605103D01*
X-9353389Y8605100D01*
X-9828897Y8129592D01*
X-9883414Y8101815D01*
X-9898901Y8100596D01*
X-10168978Y8100595D01*
X-10198518Y8100595D01*
X-10202361Y8099986D01*
X-10202366Y8099986D01*
X-10236069Y8094648D01*
X-10292304Y8085742D01*
X-10345229Y8058775D01*
X-10398403Y8031682D01*
X-10398405Y8031681D01*
X-10405342Y8028146D01*
X-10495050Y7938438D01*
X-10498585Y7931501D01*
X-10498586Y7931499D01*
X-10529830Y7870179D01*
X-10552646Y7825400D01*
X-10553865Y7817706D01*
X-10553865Y7817705D01*
X-10558069Y7791159D01*
X-10567500Y7731615D01*
X-10567499Y7118578D01*
X-10566890Y7114735D01*
X-10566890Y7114730D01*
X-10561417Y7080174D01*
X-10552646Y7024792D01*
X-10542598Y7005072D01*
X-10498587Y6918696D01*
X-10495050Y6911754D01*
X-10405342Y6822046D01*
X-10398405Y6818511D01*
X-10398403Y6818510D01*
X-10303695Y6770254D01*
X-10292304Y6764450D01*
X-10284610Y6763231D01*
X-10284609Y6763231D01*
X-10202365Y6750205D01*
X-10202363Y6750205D01*
X-10198519Y6749596D01*
X-10154884Y6749596D01*
X-9772900Y6749597D01*
X-9714709Y6730690D01*
X-9678745Y6681190D01*
X-9678745Y6620005D01*
X-9702896Y6580593D01*
X-10232484Y6051005D01*
X-10232487Y6051001D01*
X-10255050Y6028438D01*
X-10266002Y6006942D01*
X-10274116Y5993703D01*
X-10288296Y5974186D01*
X-10290704Y5966775D01*
X-10295752Y5951239D01*
X-10301695Y5936893D01*
X-10312646Y5915400D01*
X-10313864Y5907707D01*
X-10313865Y5907705D01*
X-10316419Y5891577D01*
X-10320044Y5876476D01*
X-10327500Y5853529D01*
X-10327500Y5746933D01*
X-10350212Y5683843D01*
X-10355156Y5679297D01*
X-10358713Y5673560D01*
X-10358714Y5673559D01*
X-10419965Y5574770D01*
X-10434635Y5551110D01*
X-10460438Y5462294D01*
X-10466194Y5442483D01*
X-10500585Y5391878D01*
X-10558153Y5371152D01*
X-10616909Y5388222D01*
X-10654410Y5436568D01*
X-10659347Y5456665D01*
X-10660133Y5462403D01*
X-10661794Y5474528D01*
X-10664472Y5480717D01*
X-10664472Y5480718D01*
X-10719014Y5606757D01*
X-10719016Y5606761D01*
X-10721695Y5612951D01*
X-10768085Y5670238D01*
X-10774437Y5678082D01*
X-10796500Y5740385D01*
X-10796500Y7068529D01*
X-10803956Y7091476D01*
X-10807581Y7106577D01*
X-10810135Y7122705D01*
X-10810136Y7122707D01*
X-10811354Y7130400D01*
X-10822306Y7151895D01*
X-10828249Y7166241D01*
X-10833296Y7181776D01*
X-10833298Y7181780D01*
X-10835704Y7189185D01*
X-10849887Y7208706D01*
X-10857999Y7221945D01*
X-10865414Y7236499D01*
X-10865416Y7236501D01*
X-10868950Y7243438D01*
X-10891513Y7266001D01*
X-10891516Y7266005D01*
X-10987504Y7361993D01*
X-11015281Y7416510D01*
X-11016500Y7431997D01*
X-11016501Y7727720D01*
X-11016501Y7731614D01*
X-11017110Y7735465D01*
X-11024078Y7779457D01*
X-11031354Y7825400D01*
X-11060152Y7881919D01*
X-11085414Y7931499D01*
X-11085415Y7931501D01*
X-11088950Y7938438D01*
X-11178658Y8028146D01*
X-11185595Y8031681D01*
X-11185597Y8031682D01*
X-11284756Y8082206D01*
X-11284757Y8082206D01*
X-11291696Y8085742D01*
X-11299390Y8086961D01*
X-11299391Y8086961D01*
X-11381635Y8099987D01*
X-11381637Y8099987D01*
X-11385481Y8100596D01*
X-11616970Y8100596D01*
X-11848518Y8100595D01*
X-11852361Y8099986D01*
X-11852366Y8099986D01*
X-11886069Y8094648D01*
X-11942304Y8085742D01*
X-11995229Y8058775D01*
X-12048403Y8031682D01*
X-12048405Y8031681D01*
X-12055342Y8028146D01*
X-12145050Y7938438D01*
X-12148585Y7931501D01*
X-12148586Y7931499D01*
X-12179830Y7870179D01*
X-12202646Y7825400D01*
X-12203865Y7817706D01*
X-12203865Y7817705D01*
X-12208069Y7791159D01*
X-12217500Y7731615D01*
X-12217499Y7431997D01*
X-12217499Y7229354D01*
X-12236406Y7171163D01*
X-12285906Y7135199D01*
X-12347091Y7135199D01*
X-12396592Y7171163D01*
X-12405743Y7186499D01*
X-12407033Y7189185D01*
X-12415191Y7206175D01*
X-12419295Y7210615D01*
X-12420820Y7212878D01*
X-12423421Y7217885D01*
X-12427725Y7222924D01*
X-12465357Y7260556D01*
X-12468051Y7263359D01*
X-12502124Y7300220D01*
X-12502127Y7300222D01*
X-12507146Y7305652D01*
X-12513210Y7309174D01*
X-12520535Y7315734D01*
X-12587504Y7382703D01*
X-12615281Y7437220D01*
X-12616500Y7452707D01*
X-12616500Y7708584D01*
X-12617109Y7712430D01*
X-12631062Y7800527D01*
X-12631062Y7800528D01*
X-12632281Y7808222D01*
X-12637113Y7817706D01*
X-12689936Y7921377D01*
X-12689937Y7921379D01*
X-12693472Y7928316D01*
X-12788780Y8023624D01*
X-12795717Y8027159D01*
X-12795719Y8027160D01*
X-12901934Y8081279D01*
X-12901935Y8081279D01*
X-12908874Y8084815D01*
X-12916568Y8086034D01*
X-12916569Y8086034D01*
X-13004666Y8099987D01*
X-13004668Y8099987D01*
X-13008512Y8100596D01*
X-13525488Y8100596D01*
X-13529332Y8099987D01*
X-13529334Y8099987D01*
X-13617431Y8086034D01*
X-13617432Y8086034D01*
X-13625126Y8084815D01*
X-13632065Y8081279D01*
X-13632066Y8081279D01*
X-13738281Y8027160D01*
X-13738283Y8027159D01*
X-13745220Y8023624D01*
X-13840528Y7928316D01*
X-13844063Y7921379D01*
X-13844064Y7921377D01*
X-13896887Y7817706D01*
X-13901719Y7808222D01*
X-13902938Y7800528D01*
X-13902938Y7800527D01*
X-13916891Y7712430D01*
X-13917500Y7708584D01*
X-13917500Y7141608D01*
X-13916891Y7137764D01*
X-13916891Y7137762D01*
X-13904691Y7060737D01*
X-13901719Y7041970D01*
X-13898183Y7035031D01*
X-13898183Y7035030D01*
X-13854658Y6949608D01*
X-13840528Y6921876D01*
X-13745220Y6826568D01*
X-13738283Y6823033D01*
X-13738281Y6823032D01*
X-13632066Y6768913D01*
X-13625126Y6765377D01*
X-13617432Y6764158D01*
X-13617431Y6764158D01*
X-13529334Y6750205D01*
X-13529332Y6750205D01*
X-13525488Y6749596D01*
X-13414307Y6749596D01*
X-13356116Y6730689D01*
X-13320152Y6681189D01*
X-13320152Y6620003D01*
X-13322841Y6612715D01*
X-13339033Y6573624D01*
X-13371766Y6494599D01*
X-13377044Y6481858D01*
X-13397682Y6325096D01*
X-13377044Y6168334D01*
X-13316536Y6022255D01*
X-13312585Y6017106D01*
X-13262958Y5952430D01*
X-13242500Y5892163D01*
X-13242500Y5102707D01*
X-13261407Y5044516D01*
X-13271496Y5032703D01*
X-14199607Y4104592D01*
X-14254124Y4076815D01*
X-14269611Y4075596D01*
X-15070834Y4075596D01*
X-15073135Y4075378D01*
X-15073145Y4075378D01*
X-15096361Y4073183D01*
X-15096362Y4073183D01*
X-15102369Y4072615D01*
X-15230184Y4027730D01*
X-15339150Y3947246D01*
X-15343550Y3941289D01*
X-15403073Y3860701D01*
X-15419634Y3838280D01*
X-15460574Y3721698D01*
X-15497694Y3673059D01*
X-15553982Y3655500D01*
X-15781469Y3655500D01*
X-15793105Y3656186D01*
X-15794642Y3656368D01*
X-15828406Y3660364D01*
X-15886529Y3649749D01*
X-15889576Y3649242D01*
X-15912968Y3645725D01*
X-15940743Y3641549D01*
X-15940744Y3641549D01*
X-15948058Y3640449D01*
X-15954568Y3637323D01*
X-15961669Y3636026D01*
X-15995285Y3618565D01*
X-16014091Y3608796D01*
X-16016870Y3607407D01*
X-16069212Y3582272D01*
X-16077531Y3581155D01*
X-16083080Y3574980D01*
X-16081884Y3573580D01*
X-16086924Y3569275D01*
X-16124556Y3531643D01*
X-16127359Y3528949D01*
X-16164220Y3494876D01*
X-16164222Y3494873D01*
X-16169652Y3489854D01*
X-16173174Y3483790D01*
X-16179734Y3476465D01*
X-16206045Y3450154D01*
X-16260562Y3422377D01*
X-16290340Y3422195D01*
X-16351237Y3431079D01*
X-16351239Y3431079D01*
X-16354782Y3431596D01*
X-17711389Y3431596D01*
X-17769580Y3450503D01*
X-17805544Y3500003D01*
X-17805544Y3561189D01*
X-17781394Y3600598D01*
X-17730391Y3651601D01*
X-17675876Y3679377D01*
X-17660389Y3680596D01*
X-16354782Y3680596D01*
X-16351199Y3681124D01*
X-16351192Y3681124D01*
X-16293501Y3689617D01*
X-16293499Y3689618D01*
X-16285888Y3690738D01*
X-16277317Y3694946D01*
X-16188809Y3738401D01*
X-16180650Y3739569D01*
X-16179666Y3740687D01*
X-16181145Y3742164D01*
X-16104487Y3818956D01*
X-16098707Y3824746D01*
X-16047464Y3929578D01*
X-16046355Y3937180D01*
X-16046354Y3937183D01*
X-16038017Y3994333D01*
X-16038017Y3994335D01*
X-16037500Y3997878D01*
X-16037500Y4364314D01*
X-16041814Y4393624D01*
X-16046521Y4425595D01*
X-16046522Y4425597D01*
X-16047642Y4433208D01*
X-16052618Y4443344D01*
X-16095462Y4530606D01*
X-16099068Y4537951D01*
X-16105131Y4544004D01*
X-16175488Y4614238D01*
X-16181650Y4620389D01*
X-16286482Y4671632D01*
X-16294084Y4672741D01*
X-16294087Y4672742D01*
X-16351237Y4681079D01*
X-16351239Y4681079D01*
X-16354782Y4681596D01*
X-17821218Y4681596D01*
X-17824801Y4681068D01*
X-17824808Y4681068D01*
X-17882499Y4672575D01*
X-17882501Y4672574D01*
X-17890112Y4671454D01*
X-17897018Y4668063D01*
X-17897019Y4668063D01*
X-17987513Y4623633D01*
X-17987514Y4623632D01*
X-17994855Y4620028D01*
X-18000632Y4614241D01*
X-18000636Y4614238D01*
X-18010419Y4604438D01*
X-18034845Y4586528D01*
X-18038002Y4584888D01*
X-18040785Y4583497D01*
X-18083002Y4563224D01*
X-18094079Y4557905D01*
X-18098518Y4553801D01*
X-18100779Y4552277D01*
X-18105788Y4549676D01*
X-18110828Y4545372D01*
X-18148473Y4507727D01*
X-18151275Y4505034D01*
X-18193556Y4465950D01*
X-18197077Y4459888D01*
X-18203632Y4452568D01*
X-18795498Y3860701D01*
X-18804212Y3852959D01*
X-18822832Y3838280D01*
X-18832120Y3830958D01*
X-18855284Y3797442D01*
X-18865718Y3782345D01*
X-18867527Y3779814D01*
X-18895336Y3742164D01*
X-18902644Y3732270D01*
X-18905037Y3725454D01*
X-18909141Y3719517D01*
X-18924021Y3672466D01*
X-18926961Y3663171D01*
X-18927928Y3660272D01*
X-18947529Y3604455D01*
X-18947766Y3598413D01*
X-18948287Y3595739D01*
X-18949990Y3590356D01*
X-18950510Y3583749D01*
X-18950510Y3530545D01*
X-18950586Y3526658D01*
X-18952342Y3481964D01*
X-18952848Y3469092D01*
X-18951051Y3462314D01*
X-18950510Y3452489D01*
X-18950510Y-4774267D01*
X-18951196Y-4785903D01*
X-18955374Y-4821204D01*
X-18954045Y-4828480D01*
X-18954045Y-4828483D01*
X-18944762Y-4879308D01*
X-18944252Y-4882370D01*
X-18935459Y-4940856D01*
X-18932331Y-4947369D01*
X-18931035Y-4954467D01*
X-18903812Y-5006874D01*
X-18902422Y-5009656D01*
X-18880023Y-5056302D01*
X-18880021Y-5056305D01*
X-18876819Y-5062973D01*
X-18872713Y-5067415D01*
X-18871190Y-5069675D01*
X-18868589Y-5074682D01*
X-18864285Y-5079722D01*
X-18826653Y-5117354D01*
X-18823959Y-5120157D01*
X-18784864Y-5162450D01*
X-18778798Y-5165973D01*
X-18771476Y-5172531D01*
X-18254615Y-5689393D01*
X-18246873Y-5698107D01*
X-18229456Y-5720200D01*
X-18229454Y-5720202D01*
X-18224872Y-5726014D01*
X-18218785Y-5730221D01*
X-18218784Y-5730222D01*
X-18176285Y-5759595D01*
X-18173756Y-5761402D01*
X-18162996Y-5769349D01*
X-18126183Y-5796539D01*
X-18119366Y-5798933D01*
X-18113431Y-5803035D01*
X-18106378Y-5805266D01*
X-18106375Y-5805267D01*
X-18086182Y-5811653D01*
X-18057096Y-5820852D01*
X-18054159Y-5821832D01*
X-18005352Y-5838972D01*
X-18005350Y-5838972D01*
X-17998369Y-5841424D01*
X-17992328Y-5841662D01*
X-17989646Y-5842184D01*
X-17984270Y-5843884D01*
X-17979232Y-5844280D01*
X-17955170Y-5852349D01*
X-17935135Y-5862142D01*
X-17889518Y-5884440D01*
X-17881916Y-5885549D01*
X-17881913Y-5885550D01*
X-17824763Y-5893887D01*
X-17824761Y-5893887D01*
X-17821218Y-5894404D01*
X-16354782Y-5894404D01*
X-16351199Y-5893876D01*
X-16351192Y-5893876D01*
X-16293501Y-5885383D01*
X-16293499Y-5885382D01*
X-16285888Y-5884262D01*
X-16225344Y-5854537D01*
X-16181714Y-5844404D01*
X-16095627Y-5844404D01*
X-16083991Y-5845090D01*
X-16048690Y-5849268D01*
X-16041414Y-5847939D01*
X-16041411Y-5847939D01*
X-16000939Y-5840547D01*
X-15990570Y-5838653D01*
X-15987524Y-5838146D01*
X-15929038Y-5829353D01*
X-15922525Y-5826225D01*
X-15915427Y-5824929D01*
X-15863018Y-5797705D01*
X-15860238Y-5796316D01*
X-15813592Y-5773917D01*
X-15813589Y-5773915D01*
X-15806921Y-5770713D01*
X-15802479Y-5766607D01*
X-15800219Y-5765084D01*
X-15795212Y-5762483D01*
X-15790172Y-5758179D01*
X-15752540Y-5720547D01*
X-15749737Y-5717853D01*
X-15712876Y-5683780D01*
X-15712874Y-5683777D01*
X-15707444Y-5678758D01*
X-15703922Y-5672694D01*
X-15697362Y-5665369D01*
X-13955393Y-3923400D01*
X-13900876Y-3895623D01*
X-13885389Y-3894404D01*
X-12945627Y-3894404D01*
X-12933991Y-3895090D01*
X-12898690Y-3899268D01*
X-12891414Y-3897939D01*
X-12891411Y-3897939D01*
X-12849176Y-3890225D01*
X-12840570Y-3888653D01*
X-12837524Y-3888146D01*
X-12779038Y-3879353D01*
X-12772525Y-3876225D01*
X-12765427Y-3874929D01*
X-12713018Y-3847705D01*
X-12710238Y-3846316D01*
X-12663592Y-3823917D01*
X-12663589Y-3823915D01*
X-12656921Y-3820713D01*
X-12652479Y-3816607D01*
X-12650219Y-3815084D01*
X-12645212Y-3812483D01*
X-12640172Y-3808179D01*
X-12602540Y-3770547D01*
X-12599737Y-3767853D01*
X-12562876Y-3733780D01*
X-12562874Y-3733777D01*
X-12557444Y-3728758D01*
X-12553922Y-3722694D01*
X-12547362Y-3715369D01*
X-9631516Y-799523D01*
X-9622803Y-791781D01*
X-9600701Y-774357D01*
X-9594890Y-769776D01*
X-9561296Y-721170D01*
X-9559489Y-718641D01*
X-9528761Y-677039D01*
X-9528760Y-677038D01*
X-9524365Y-671087D01*
X-9521971Y-664270D01*
X-9517869Y-658335D01*
X-9500052Y-602000D01*
X-9499072Y-599063D01*
X-9481932Y-550256D01*
X-9481932Y-550254D01*
X-9479480Y-543273D01*
X-9479242Y-537231D01*
X-9478720Y-534551D01*
X-9477020Y-529174D01*
X-9476500Y-522567D01*
X-9476500Y-469373D01*
X-9476424Y-465487D01*
X-9474452Y-415300D01*
X-9474452Y-415298D01*
X-9474162Y-407910D01*
X-9475959Y-401132D01*
X-9476500Y-391306D01*
X-9476500Y3078731D01*
X-9461640Y3130899D01*
X-9422921Y3193346D01*
X-9422920Y3193349D01*
X-9419365Y3199082D01*
X-9377285Y3343921D01*
X-9376500Y3354611D01*
X-9376500Y5362881D01*
X-9384633Y5422255D01*
X-9390878Y5467845D01*
X-9390879Y5467849D01*
X-9391794Y5474528D01*
X-9394472Y5480718D01*
X-9426441Y5554592D01*
X-9450967Y5611269D01*
X-9456725Y5672182D01*
X-9430113Y5720590D01*
X-8430104Y6720600D01*
X-8375587Y6748377D01*
X-8360100Y6749596D01*
X-8067190Y6749597D01*
X-8035482Y6749597D01*
X-8031639Y6750206D01*
X-8031634Y6750206D01*
X-7994783Y6756043D01*
X-7941696Y6764450D01*
X-7934754Y6767987D01*
X-7931444Y6769673D01*
X-7927774Y6770254D01*
X-7927341Y6770395D01*
X-7927319Y6770326D01*
X-7871012Y6779244D01*
X-7816496Y6751466D01*
X-7788719Y6696949D01*
X-7787500Y6681463D01*
X-7787500Y5746933D01*
X-7810212Y5683843D01*
X-7815156Y5679297D01*
X-7818713Y5673560D01*
X-7818714Y5673559D01*
X-7879965Y5574770D01*
X-7894635Y5551110D01*
X-7896518Y5544628D01*
X-7899264Y5538461D01*
X-7900531Y5539025D01*
X-7930754Y5494548D01*
X-7988322Y5473820D01*
X-8047078Y5490888D01*
X-8082293Y5533453D01*
X-8114014Y5606757D01*
X-8114016Y5606761D01*
X-8116695Y5612951D01*
X-8211614Y5730166D01*
X-8235207Y5746933D01*
X-8329060Y5813631D01*
X-8329061Y5813632D01*
X-8334558Y5817538D01*
X-8340903Y5819822D01*
X-8340906Y5819824D01*
X-8470120Y5866344D01*
X-8470123Y5866345D01*
X-8476468Y5868629D01*
X-8520414Y5871856D01*
X-8620158Y5879182D01*
X-8620161Y5879182D01*
X-8626891Y5879676D01*
X-8633506Y5878342D01*
X-8633508Y5878342D01*
X-8679227Y5869123D01*
X-8774743Y5849863D01*
X-8780752Y5846801D01*
X-8780753Y5846801D01*
X-8798063Y5837981D01*
X-8909132Y5781389D01*
X-8914095Y5776826D01*
X-8914097Y5776824D01*
X-8970843Y5724643D01*
X-9020156Y5679297D01*
X-9023716Y5673555D01*
X-9061136Y5613202D01*
X-9099635Y5551110D01*
X-9141715Y5406271D01*
X-9142500Y5395581D01*
X-9142500Y3387311D01*
X-9142042Y3383968D01*
X-9142042Y3383967D01*
X-9128122Y3282347D01*
X-9128121Y3282343D01*
X-9127206Y3275664D01*
X-9124529Y3269478D01*
X-9124528Y3269474D01*
X-9069986Y3143435D01*
X-9069984Y3143431D01*
X-9067305Y3137241D01*
X-8972386Y3020026D01*
X-8966887Y3016118D01*
X-8864087Y2943062D01*
X-8849442Y2932654D01*
X-8843097Y2930370D01*
X-8843094Y2930368D01*
X-8713880Y2883848D01*
X-8713877Y2883847D01*
X-8707532Y2881563D01*
X-8663586Y2878336D01*
X-8563842Y2871010D01*
X-8563839Y2871010D01*
X-8557109Y2870516D01*
X-8550494Y2871850D01*
X-8550492Y2871850D01*
X-8481703Y2885721D01*
X-8409257Y2900329D01*
X-8401610Y2904225D01*
X-8280878Y2965741D01*
X-8274868Y2968803D01*
X-8269905Y2973366D01*
X-8269903Y2973368D01*
X-8168814Y3066325D01*
X-8163844Y3070895D01*
X-8102269Y3170205D01*
X-8087923Y3193343D01*
X-8087922Y3193345D01*
X-8084365Y3199082D01*
X-8082482Y3205564D01*
X-8079736Y3211731D01*
X-8078469Y3211167D01*
X-8048246Y3255644D01*
X-7990678Y3276372D01*
X-7931922Y3259304D01*
X-7896707Y3216739D01*
X-7864985Y3143435D01*
X-7862305Y3137241D01*
X-7858060Y3131999D01*
X-7854563Y3126225D01*
X-7856456Y3125079D01*
X-7837500Y3071552D01*
X-7837500Y2943062D01*
X-7838945Y2930428D01*
X-7838933Y2930427D01*
X-7839513Y2923053D01*
X-7841185Y2915841D01*
X-7839992Y2898996D01*
X-7837747Y2867286D01*
X-7837500Y2860294D01*
X-7837500Y2846246D01*
X-7836950Y2842590D01*
X-7836950Y2842585D01*
X-7835730Y2834473D01*
X-7834877Y2826753D01*
X-7831617Y2780712D01*
X-7828946Y2773809D01*
X-7828740Y2772887D01*
X-7823827Y2754358D01*
X-7823550Y2753457D01*
X-7822449Y2746134D01*
X-7819244Y2739460D01*
X-7802476Y2704540D01*
X-7799389Y2697407D01*
X-7785409Y2661270D01*
X-7785407Y2661267D01*
X-7782739Y2654370D01*
X-7778158Y2648559D01*
X-7777690Y2647739D01*
X-7767546Y2631473D01*
X-7767012Y2630687D01*
X-7763809Y2624017D01*
X-7758786Y2618583D01*
X-7732486Y2590131D01*
X-7727440Y2584222D01*
X-7703458Y2553802D01*
X-7703454Y2553799D01*
X-7698872Y2547986D01*
X-7692783Y2543778D01*
X-7692092Y2543129D01*
X-7677603Y2530557D01*
X-7676881Y2529979D01*
X-7671854Y2524540D01*
X-7665450Y2520820D01*
X-7663304Y2519101D01*
X-7629712Y2467962D01*
X-7627050Y2454761D01*
X-7626307Y2449122D01*
X-7623044Y2424334D01*
X-7562536Y2278255D01*
X-7466282Y2152814D01*
X-7340841Y2056560D01*
X-7194762Y1996052D01*
X-7038000Y1975414D01*
X-6881238Y1996052D01*
X-6735159Y2056560D01*
X-6609718Y2152814D01*
X-6513464Y2278255D01*
X-6452956Y2424334D01*
X-6432318Y2581096D01*
X-6432322Y2581125D01*
X-6414258Y2636721D01*
X-6404169Y2648534D01*
X-6248087Y2804616D01*
X4379056Y2804616D01*
X4380756Y2796538D01*
X4382566Y2794902D01*
X4386792Y2794000D01*
X5445320Y2794000D01*
X5458005Y2798122D01*
X5461000Y2802243D01*
X5461000Y2809680D01*
X5969000Y2809680D01*
X5973122Y2796995D01*
X5977243Y2794000D01*
X7035779Y2794000D01*
X7047730Y2797883D01*
X7048058Y2807538D01*
X7005946Y2975191D01*
X7003333Y2982867D01*
X6917534Y3180193D01*
X6913701Y3187340D01*
X6796826Y3368003D01*
X6791880Y3374425D01*
X6647065Y3533574D01*
X6641139Y3539101D01*
X6472269Y3672466D01*
X6465525Y3676946D01*
X6277141Y3780940D01*
X6269749Y3784262D01*
X6066920Y3856088D01*
X6059081Y3858159D01*
X5984436Y3871455D01*
X5971226Y3869622D01*
X5970805Y3869218D01*
X5969000Y3862004D01*
X5969000Y2809680D01*
X5461000Y2809680D01*
X5461000Y3859333D01*
X5456878Y3872018D01*
X5455877Y3872746D01*
X5449549Y3873261D01*
X5403220Y3866171D01*
X5395348Y3864295D01*
X5190807Y3797442D01*
X5183350Y3794307D01*
X4992479Y3694946D01*
X4985627Y3690631D01*
X4813544Y3561427D01*
X4807491Y3556053D01*
X4658830Y3400487D01*
X4653727Y3394186D01*
X4532466Y3216425D01*
X4528468Y3209387D01*
X4437871Y3014210D01*
X4435073Y3006606D01*
X4379056Y2804616D01*
X-6248087Y2804616D01*
X-5662103Y3390600D01*
X-5607586Y3418377D01*
X-5592099Y3419596D01*
X-5118296Y3419596D01*
X-5060105Y3400689D01*
X-5030086Y3365541D01*
X-5021705Y3349093D01*
X-5018028Y3341876D01*
X-4922720Y3246568D01*
X-4915783Y3243033D01*
X-4915781Y3243032D01*
X-4829524Y3199082D01*
X-4802626Y3185377D01*
X-4794932Y3184158D01*
X-4794931Y3184158D01*
X-4706834Y3170205D01*
X-4706832Y3170205D01*
X-4702988Y3169596D01*
X-4136012Y3169596D01*
X-4132168Y3170205D01*
X-4132166Y3170205D01*
X-4044069Y3184158D01*
X-4044068Y3184158D01*
X-4036374Y3185377D01*
X-4009476Y3199082D01*
X-3923219Y3243032D01*
X-3923217Y3243033D01*
X-3916280Y3246568D01*
X-3820972Y3341876D01*
X-3817294Y3349093D01*
X-3763317Y3455030D01*
X-3763317Y3455031D01*
X-3759781Y3461970D01*
X-3756201Y3484570D01*
X-3744609Y3557762D01*
X-3744609Y3557764D01*
X-3744000Y3561608D01*
X-3744000Y3888195D01*
X-3725093Y3946386D01*
X-3715004Y3958199D01*
X-2502603Y5170600D01*
X-2448086Y5198377D01*
X-2432599Y5199596D01*
X-1892252Y5199596D01*
X-1866005Y5204817D01*
X-1843334Y5209326D01*
X-1843332Y5209327D01*
X-1833769Y5211229D01*
X-1767448Y5255544D01*
X-1723133Y5321865D01*
X-1713774Y5368913D01*
X-1711500Y5380348D01*
X-1710365Y5380122D01*
X-1687961Y5431352D01*
X-1635176Y5462294D01*
X-1613953Y5464596D01*
X-874256Y5464596D01*
X-816065Y5445689D01*
X-804252Y5435600D01*
X-795220Y5426568D01*
X-788283Y5423033D01*
X-788281Y5423032D01*
X-686460Y5371152D01*
X-675126Y5365377D01*
X-667432Y5364158D01*
X-667431Y5364158D01*
X-579334Y5350205D01*
X-579332Y5350205D01*
X-575488Y5349596D01*
X-248901Y5349596D01*
X-190710Y5330689D01*
X-178897Y5320600D01*
X322091Y4819612D01*
X322095Y4819609D01*
X344658Y4797046D01*
X351595Y4793512D01*
X351597Y4793510D01*
X366151Y4786095D01*
X379390Y4777983D01*
X398911Y4763800D01*
X406316Y4761394D01*
X406320Y4761392D01*
X421855Y4756345D01*
X436201Y4750402D01*
X457696Y4739450D01*
X465389Y4738232D01*
X465391Y4738231D01*
X481519Y4735677D01*
X496620Y4732052D01*
X519567Y4724596D01*
X1074466Y4724596D01*
X1132657Y4705689D01*
X1150637Y4688834D01*
X1157085Y4681068D01*
X1182157Y4650868D01*
X1233452Y4604438D01*
X1284860Y4557905D01*
X1288341Y4554754D01*
X1308407Y4541219D01*
X1324142Y4530606D01*
X1336395Y4522341D01*
X1400841Y4491117D01*
X1462114Y4461431D01*
X1462117Y4461430D01*
X1465287Y4459894D01*
X1468643Y4458823D01*
X1468648Y4458821D01*
X1517144Y4443344D01*
X1517148Y4443343D01*
X1520504Y4442272D01*
X1523971Y4441689D01*
X1523978Y4441687D01*
X1659867Y4418825D01*
X1659878Y4418824D01*
X1661742Y4418510D01*
X1663637Y4418340D01*
X1691247Y4415863D01*
X1691256Y4415863D01*
X1693157Y4415692D01*
X1701362Y4415592D01*
X1703608Y4415564D01*
X1703612Y4415564D01*
X1705499Y4415541D01*
X1736981Y4417591D01*
X1751484Y4419668D01*
X1765519Y4420668D01*
X2140645Y4420668D01*
X2157070Y4419296D01*
X2159867Y4418825D01*
X2159878Y4418824D01*
X2161742Y4418510D01*
X2163637Y4418340D01*
X2191247Y4415863D01*
X2191256Y4415863D01*
X2193157Y4415692D01*
X2201362Y4415592D01*
X2203608Y4415564D01*
X2203612Y4415564D01*
X2205499Y4415541D01*
X2236981Y4417591D01*
X2378758Y4437895D01*
X2424528Y4451279D01*
X2431016Y4453176D01*
X2431021Y4453178D01*
X2434390Y4454163D01*
X2564769Y4513443D01*
X2613598Y4544670D01*
X2616261Y4546964D01*
X2616267Y4546969D01*
X2701475Y4620389D01*
X2722099Y4638160D01*
X2760202Y4681838D01*
X2838102Y4802023D01*
X2857521Y4844051D01*
X2860936Y4851441D01*
X2860938Y4851448D01*
X2862414Y4854641D01*
X2903450Y4991859D01*
X2904306Y4997583D01*
X2909733Y5033900D01*
X2912017Y5049182D01*
X2912892Y5192403D01*
X2912560Y5194826D01*
X2912428Y5198894D01*
X2912428Y5675096D01*
X2902517Y5724921D01*
X2898769Y5743767D01*
X2898768Y5743769D01*
X2896867Y5753327D01*
X2891452Y5761430D01*
X2891129Y5762211D01*
X2886329Y5823208D01*
X2891129Y5837981D01*
X2891452Y5838762D01*
X2896867Y5846865D01*
X2899562Y5860411D01*
X2903705Y5881241D01*
X2908500Y5905348D01*
X2908500Y5925596D01*
X2927407Y5983787D01*
X2976907Y6019751D01*
X3007500Y6024596D01*
X3608500Y6024596D01*
X3666691Y6005689D01*
X3702655Y5956189D01*
X3707500Y5925596D01*
X3707500Y5296262D01*
X3707718Y5293961D01*
X3707718Y5293951D01*
X3708125Y5289647D01*
X3710481Y5264727D01*
X3755366Y5136912D01*
X3759761Y5130961D01*
X3759762Y5130960D01*
X3820165Y5049182D01*
X3835850Y5027946D01*
X3841807Y5023546D01*
X3937753Y4952679D01*
X3944816Y4947462D01*
X4072631Y4902577D01*
X4078638Y4902009D01*
X4078639Y4902009D01*
X4101855Y4899814D01*
X4101865Y4899814D01*
X4104166Y4899596D01*
X5111834Y4899596D01*
X5114135Y4899814D01*
X5114145Y4899814D01*
X5137361Y4902009D01*
X5137362Y4902009D01*
X5143369Y4902577D01*
X5271184Y4947462D01*
X5278248Y4952679D01*
X5374193Y5023546D01*
X5380150Y5027946D01*
X5420013Y5081916D01*
X5469793Y5117488D01*
X5499645Y5122096D01*
X5872890Y5122096D01*
X5931081Y5103189D01*
X5952523Y5081914D01*
X5995635Y5023546D01*
X6010850Y5002946D01*
X6016807Y4998546D01*
X6108804Y4930596D01*
X6119816Y4922462D01*
X6247631Y4877577D01*
X6253638Y4877009D01*
X6253639Y4877009D01*
X6276855Y4874814D01*
X6276865Y4874814D01*
X6279166Y4874596D01*
X7191989Y4874596D01*
X7250180Y4855689D01*
X7286144Y4806189D01*
X7290989Y4775596D01*
X7290989Y2254100D01*
X7272082Y2195909D01*
X7261993Y2184096D01*
X7203081Y2125184D01*
X7148564Y2097407D01*
X7088132Y2106978D01*
X7044867Y2150243D01*
X7035296Y2210675D01*
X7038352Y2223967D01*
X7045700Y2248153D01*
X7047410Y2256062D01*
X7049304Y2270453D01*
X7046873Y2283569D01*
X7045571Y2284805D01*
X7040290Y2286000D01*
X4395790Y2286000D01*
X4383460Y2281994D01*
X4383043Y2272986D01*
X4413807Y2136476D01*
X4416231Y2128742D01*
X4497183Y1929380D01*
X4500840Y1922140D01*
X4613266Y1738678D01*
X4618056Y1732133D01*
X4758935Y1569498D01*
X4764729Y1563824D01*
X4930292Y1426371D01*
X4936921Y1421730D01*
X5122713Y1313162D01*
X5130008Y1309666D01*
X5331038Y1232901D01*
X5338808Y1230643D01*
X5442991Y1209447D01*
X5496244Y1179318D01*
X5521618Y1123641D01*
X5509419Y1063684D01*
X5464309Y1022348D01*
X5451206Y1017462D01*
X5319572Y978720D01*
X5137002Y883274D01*
X5133231Y880242D01*
X4980220Y757219D01*
X4980217Y757217D01*
X4976447Y754185D01*
X4973333Y750474D01*
X4973332Y750473D01*
X4892574Y654229D01*
X4844024Y596370D01*
X4744776Y415838D01*
X4743313Y411225D01*
X4743311Y411221D01*
X4710574Y308020D01*
X4682484Y219468D01*
X4681944Y214656D01*
X4681944Y214655D01*
X4674729Y150326D01*
X4659520Y14738D01*
X4676759Y-190553D01*
X4678092Y-195201D01*
X4678092Y-195202D01*
X4708228Y-300297D01*
X4733544Y-388586D01*
X4827712Y-571818D01*
X4955677Y-733270D01*
X4959357Y-736402D01*
X4959359Y-736404D01*
X5003954Y-774357D01*
X5112564Y-866791D01*
X5116787Y-869151D01*
X5116791Y-869154D01*
X5156342Y-891258D01*
X5292398Y-967297D01*
X5296996Y-968791D01*
X5483724Y-1029463D01*
X5483726Y-1029464D01*
X5488329Y-1030959D01*
X5692894Y-1055351D01*
X5697716Y-1054980D01*
X5697719Y-1054980D01*
X5765541Y-1049761D01*
X5898300Y-1039546D01*
X6096725Y-984145D01*
X6101038Y-981966D01*
X6101044Y-981964D01*
X6276289Y-893441D01*
X6276291Y-893440D01*
X6280610Y-891258D01*
X6315943Y-863653D01*
X6439135Y-767406D01*
X6439139Y-767402D01*
X6442951Y-764424D01*
X6482470Y-718641D01*
X6518379Y-677039D01*
X6577564Y-608472D01*
X6596231Y-575613D01*
X6676934Y-433550D01*
X6676935Y-433547D01*
X6679323Y-429344D01*
X6681391Y-423129D01*
X6742824Y-238454D01*
X6742824Y-238452D01*
X6744351Y-233863D01*
X6753334Y-162759D01*
X6769823Y-32228D01*
X6770171Y-29474D01*
X6770583Y0D01*
X6756625Y142362D01*
X6750952Y200220D01*
X6750951Y200224D01*
X6750480Y205030D01*
X6749084Y209653D01*
X6749082Y209664D01*
X6722768Y296816D01*
X6724048Y357988D01*
X6747538Y395435D01*
X8036973Y1684870D01*
X8045686Y1692612D01*
X8067788Y1710036D01*
X8073599Y1714617D01*
X8107203Y1763238D01*
X8109006Y1765761D01*
X8139725Y1807350D01*
X8139726Y1807352D01*
X8144123Y1813305D01*
X8146516Y1820121D01*
X8150620Y1826058D01*
X8168445Y1882418D01*
X8169407Y1885303D01*
X8189008Y1941120D01*
X8189245Y1947162D01*
X8189766Y1949836D01*
X8191469Y1955219D01*
X8191989Y1961826D01*
X8191989Y2015030D01*
X8192065Y2018917D01*
X8192085Y2019433D01*
X8194327Y2076483D01*
X8192530Y2083262D01*
X8191989Y2093082D01*
X8191989Y4865186D01*
X8210896Y4923377D01*
X8260396Y4959341D01*
X8321582Y4959341D01*
X8337314Y4952679D01*
X8338864Y4951858D01*
X8344816Y4947462D01*
X8351796Y4945011D01*
X8351800Y4945009D01*
X8373301Y4937459D01*
X8421940Y4900340D01*
X8439500Y4844051D01*
X8439500Y862611D01*
X8420593Y804420D01*
X8410504Y792607D01*
X6157393Y-1460504D01*
X6102876Y-1488281D01*
X6087389Y-1489500D01*
X4845252Y-1489500D01*
X4819005Y-1494721D01*
X4796334Y-1499230D01*
X4796332Y-1499231D01*
X4786769Y-1501133D01*
X4720448Y-1545448D01*
X4676133Y-1611769D01*
X4664500Y-1670252D01*
X4664500Y-3409748D01*
X4665448Y-3414512D01*
X4673696Y-3455978D01*
X4676133Y-3468231D01*
X4720448Y-3534552D01*
X4786769Y-3578867D01*
X4796332Y-3580769D01*
X4796334Y-3580770D01*
X4819005Y-3585279D01*
X4845252Y-3590500D01*
X6028195Y-3590500D01*
X6086386Y-3609407D01*
X6098199Y-3619496D01*
X6682504Y-4203800D01*
X6710281Y-4258317D01*
X6711500Y-4273804D01*
X6711500Y-5286404D01*
X6692593Y-5344595D01*
X6643093Y-5380559D01*
X6612500Y-5385404D01*
X6242252Y-5385404D01*
X6216005Y-5390625D01*
X6193334Y-5395134D01*
X6193332Y-5395135D01*
X6183769Y-5397037D01*
X6117448Y-5441352D01*
X6073133Y-5507673D01*
X6071231Y-5517236D01*
X6071230Y-5517238D01*
X6068587Y-5530526D01*
X6061500Y-5566156D01*
X6061500Y-5992638D01*
X6042593Y-6050829D01*
X5993093Y-6086793D01*
X5931907Y-6086793D01*
X5892496Y-6062642D01*
X4867532Y-5037678D01*
X4849327Y-5012620D01*
X4847817Y-5009656D01*
X4836050Y-4986562D01*
X4746342Y-4896854D01*
X4739405Y-4893319D01*
X4739403Y-4893318D01*
X4640244Y-4842794D01*
X4640243Y-4842794D01*
X4633304Y-4839258D01*
X4625612Y-4838040D01*
X4625610Y-4838039D01*
X4571173Y-4829417D01*
X4562470Y-4827328D01*
X4559208Y-4826811D01*
X4551798Y-4824404D01*
X1682386Y-4824404D01*
X1624195Y-4805497D01*
X1588231Y-4755997D01*
X1588231Y-4694811D01*
X1603842Y-4665140D01*
X1632536Y-4627745D01*
X1693044Y-4481666D01*
X1713682Y-4324904D01*
X1693044Y-4168142D01*
X1632536Y-4022063D01*
X1536282Y-3896622D01*
X1410841Y-3800368D01*
X1264762Y-3739860D01*
X1108000Y-3719222D01*
X951238Y-3739860D01*
X805159Y-3800368D01*
X679718Y-3896622D01*
X679699Y-3896647D01*
X627614Y-3923185D01*
X612127Y-3924404D01*
X-650671Y-3924404D01*
X-708862Y-3905497D01*
X-744826Y-3855997D01*
X-748671Y-3839438D01*
X-754299Y-3800137D01*
X-754299Y-3800136D01*
X-754799Y-3796646D01*
X-763675Y-3766293D01*
X-770080Y-3744388D01*
X-770082Y-3744383D01*
X-771067Y-3741014D01*
X-830347Y-3610635D01*
X-861574Y-3561806D01*
X-863868Y-3559143D01*
X-863873Y-3559137D01*
X-952761Y-3455978D01*
X-955064Y-3453305D01*
X-961539Y-3447656D01*
X-967001Y-3442892D01*
X-998742Y-3415202D01*
X-1004024Y-3411778D01*
X-1115968Y-3339220D01*
X-1115967Y-3339220D01*
X-1118927Y-3337302D01*
X-1130960Y-3331742D01*
X-1168345Y-3314468D01*
X-1168352Y-3314466D01*
X-1171545Y-3312990D01*
X-1308763Y-3271954D01*
X-1312240Y-3271434D01*
X-1312246Y-3271433D01*
X-1336227Y-3267849D01*
X-1366086Y-3263387D01*
X-1509307Y-3262512D01*
X-1511730Y-3262844D01*
X-1515798Y-3262976D01*
X-1992000Y-3262976D01*
X-2016513Y-3267852D01*
X-2060671Y-3276635D01*
X-2060673Y-3276636D01*
X-2070231Y-3278537D01*
X-2078334Y-3283952D01*
X-2079115Y-3284275D01*
X-2140112Y-3289075D01*
X-2154885Y-3284275D01*
X-2155666Y-3283952D01*
X-2163769Y-3278537D01*
X-2173327Y-3276636D01*
X-2173329Y-3276635D01*
X-2196864Y-3271954D01*
X-2222252Y-3266904D01*
X-2242500Y-3266904D01*
X-2300691Y-3247997D01*
X-2336655Y-3198497D01*
X-2340687Y-3173040D01*
X-2341208Y-3173080D01*
X-2341209Y-3173067D01*
X-2341378Y-3168675D01*
X-2341500Y-3167904D01*
X-2341500Y-3165487D01*
X-2341501Y-3165481D01*
X-2341501Y-3133573D01*
X-2343907Y-3126166D01*
X-2343908Y-3126163D01*
X-2348954Y-3110633D01*
X-2352580Y-3095530D01*
X-2355135Y-3079398D01*
X-2356354Y-3071702D01*
X-2367305Y-3050210D01*
X-2373249Y-3035861D01*
X-2378296Y-3020327D01*
X-2378296Y-3020326D01*
X-2380704Y-3012916D01*
X-2394889Y-2993392D01*
X-2402996Y-2980162D01*
X-2413950Y-2958664D01*
X-2503658Y-2868956D01*
X-2952713Y-2419900D01*
X-2952717Y-2419897D01*
X-2975280Y-2397334D01*
X-2996776Y-2386382D01*
X-3010017Y-2378267D01*
X-3023227Y-2368669D01*
X-3029532Y-2364088D01*
X-3052479Y-2356632D01*
X-3066825Y-2350689D01*
X-3088318Y-2339738D01*
X-3096011Y-2338520D01*
X-3096013Y-2338519D01*
X-3112141Y-2335965D01*
X-3127242Y-2332340D01*
X-3150189Y-2324884D01*
X-6234619Y-2324884D01*
X-6292810Y-2305977D01*
X-6304623Y-2295888D01*
X-6481091Y-2119420D01*
X-6481095Y-2119417D01*
X-6503658Y-2096854D01*
X-6525154Y-2085902D01*
X-6538395Y-2077787D01*
X-6551605Y-2068189D01*
X-6557910Y-2063608D01*
X-6580857Y-2056152D01*
X-6595203Y-2050209D01*
X-6616696Y-2039258D01*
X-6624389Y-2038040D01*
X-6624391Y-2038039D01*
X-6640519Y-2035485D01*
X-6655620Y-2031860D01*
X-6678567Y-2024404D01*
X-9405433Y-2024404D01*
X-9428380Y-2031860D01*
X-9443481Y-2035485D01*
X-9459609Y-2038039D01*
X-9459611Y-2038040D01*
X-9467304Y-2039258D01*
X-9488797Y-2050209D01*
X-9503143Y-2056152D01*
X-9526090Y-2063608D01*
X-9532395Y-2068189D01*
X-9545605Y-2077787D01*
X-9558846Y-2085902D01*
X-9580342Y-2096854D01*
X-9602905Y-2119417D01*
X-9602909Y-2119420D01*
X-10232484Y-2748995D01*
X-10232487Y-2748999D01*
X-10255050Y-2771562D01*
X-10266002Y-2793058D01*
X-10274116Y-2806297D01*
X-10288296Y-2825814D01*
X-10290704Y-2833225D01*
X-10295752Y-2848761D01*
X-10301695Y-2863107D01*
X-10312646Y-2884600D01*
X-10313864Y-2892293D01*
X-10313865Y-2892295D01*
X-10316419Y-2908423D01*
X-10320044Y-2923524D01*
X-10327500Y-2946471D01*
X-10327500Y-3053067D01*
X-10350212Y-3116157D01*
X-10355156Y-3120703D01*
X-10358713Y-3126440D01*
X-10358714Y-3126441D01*
X-10382931Y-3165500D01*
X-10434635Y-3248890D01*
X-10476715Y-3393729D01*
X-10477500Y-3404419D01*
X-10477500Y-5412689D01*
X-10477042Y-5416032D01*
X-10477042Y-5416033D01*
X-10463122Y-5517653D01*
X-10463121Y-5517657D01*
X-10462206Y-5524336D01*
X-10459529Y-5530522D01*
X-10459528Y-5530526D01*
X-10404986Y-5656565D01*
X-10404984Y-5656569D01*
X-10402305Y-5662759D01*
X-10398057Y-5668005D01*
X-10394562Y-5673775D01*
X-10396986Y-5675243D01*
X-10379388Y-5721138D01*
X-10395246Y-5780233D01*
X-10442810Y-5818721D01*
X-10470313Y-5824964D01*
X-10492056Y-5826713D01*
X-10534741Y-5830147D01*
X-10534745Y-5830148D01*
X-10538702Y-5830466D01*
X-10542561Y-5831414D01*
X-10542562Y-5831414D01*
X-10777140Y-5889032D01*
X-10777145Y-5889034D01*
X-10781006Y-5889982D01*
X-10784667Y-5891536D01*
X-10784670Y-5891537D01*
X-11006121Y-5985537D01*
X-11010677Y-5987471D01*
X-11014041Y-5989589D01*
X-11014044Y-5989591D01*
X-11060592Y-6018904D01*
X-11221808Y-6120427D01*
X-11224788Y-6123054D01*
X-11224793Y-6123058D01*
X-11404809Y-6281764D01*
X-11408965Y-6285428D01*
X-11411490Y-6288502D01*
X-11411491Y-6288503D01*
X-11515612Y-6415261D01*
X-11567157Y-6448225D01*
X-11626437Y-6445281D01*
X-11691911Y-6421079D01*
X-11692571Y-6420835D01*
X-11696802Y-6419404D01*
X-11698123Y-6418957D01*
X-11698124Y-6418957D01*
X-11703389Y-6417176D01*
X-11753502Y-6412054D01*
X-11777904Y-6409560D01*
X-11777906Y-6409560D01*
X-11782739Y-6409066D01*
X-11798027Y-6410515D01*
X-11804516Y-6411130D01*
X-11813857Y-6411572D01*
X-12612378Y-6411572D01*
X-12670569Y-6392665D01*
X-12706533Y-6343165D01*
X-12706533Y-6281979D01*
X-12694851Y-6259051D01*
X-12693046Y-6257246D01*
X-12635450Y-6144208D01*
X-12625138Y-6079104D01*
X-12616823Y-6026601D01*
X-12615604Y-6018904D01*
X-12628013Y-5940557D01*
X-12634231Y-5901295D01*
X-12634231Y-5901294D01*
X-12635450Y-5893600D01*
X-12654534Y-5856145D01*
X-12689510Y-5787501D01*
X-12689511Y-5787499D01*
X-12693046Y-5780562D01*
X-12782754Y-5690854D01*
X-12789691Y-5687319D01*
X-12789693Y-5687318D01*
X-12888852Y-5636794D01*
X-12888853Y-5636794D01*
X-12895792Y-5633258D01*
X-12903486Y-5632039D01*
X-12903487Y-5632039D01*
X-12985731Y-5619013D01*
X-12985733Y-5619013D01*
X-12989577Y-5618404D01*
X-13492127Y-5618404D01*
X-13550318Y-5599497D01*
X-13557833Y-5593079D01*
X-13559718Y-5590622D01*
X-13685159Y-5494368D01*
X-13831238Y-5433860D01*
X-13988000Y-5413222D01*
X-14144762Y-5433860D01*
X-14290841Y-5494368D01*
X-14416282Y-5590622D01*
X-14512536Y-5716063D01*
X-14573044Y-5862142D01*
X-14593682Y-6018904D01*
X-14593678Y-6018934D01*
X-14611742Y-6074531D01*
X-14621831Y-6086343D01*
X-14676475Y-6140986D01*
X-14724897Y-6189408D01*
X-14779413Y-6217185D01*
X-14794900Y-6218404D01*
X-16132936Y-6218404D01*
X-16180889Y-6203055D01*
X-16181650Y-6204611D01*
X-16286482Y-6153368D01*
X-16294084Y-6152259D01*
X-16294087Y-6152258D01*
X-16351237Y-6143921D01*
X-16351239Y-6143921D01*
X-16354782Y-6143404D01*
X-17821218Y-6143404D01*
X-17824801Y-6143932D01*
X-17824808Y-6143932D01*
X-17882499Y-6152425D01*
X-17882501Y-6152426D01*
X-17890112Y-6153546D01*
X-17994855Y-6204972D01*
X-18000636Y-6210763D01*
X-18027070Y-6237243D01*
X-18077293Y-6287554D01*
X-18128536Y-6392386D01*
X-18129645Y-6399988D01*
X-18129646Y-6399991D01*
X-18137302Y-6452472D01*
X-18138500Y-6460686D01*
X-18138500Y-6827122D01*
X-18137972Y-6830705D01*
X-18137972Y-6830712D01*
X-18133255Y-6862752D01*
X-18128358Y-6896016D01*
X-18076932Y-7000759D01*
X-18071141Y-7006540D01*
X-18058254Y-7019404D01*
X-17994350Y-7083197D01*
X-17889518Y-7134440D01*
X-17881916Y-7135549D01*
X-17881913Y-7135550D01*
X-17824763Y-7143887D01*
X-17824761Y-7143887D01*
X-17821218Y-7144404D01*
X-16354782Y-7144404D01*
X-16351199Y-7143876D01*
X-16351192Y-7143876D01*
X-16293501Y-7135383D01*
X-16293499Y-7135382D01*
X-16285888Y-7134262D01*
X-16181145Y-7082836D01*
X-16146831Y-7048462D01*
X-16092338Y-7020636D01*
X-16076766Y-7019404D01*
X-14434481Y-7019404D01*
X-14430637Y-7018795D01*
X-14430635Y-7018795D01*
X-14348391Y-7005769D01*
X-14348390Y-7005769D01*
X-14340696Y-7004550D01*
X-14318840Y-6993414D01*
X-14234597Y-6950490D01*
X-14234595Y-6950489D01*
X-14227658Y-6946954D01*
X-14137950Y-6857246D01*
X-14130130Y-6841900D01*
X-14083890Y-6751147D01*
X-14080354Y-6744208D01*
X-14074501Y-6707252D01*
X-14046724Y-6652736D01*
X-13992207Y-6624958D01*
X-13987995Y-6624626D01*
X-13988000Y-6624586D01*
X-13831238Y-6603948D01*
X-13685159Y-6543440D01*
X-13559718Y-6447186D01*
X-13559699Y-6447161D01*
X-13507614Y-6420623D01*
X-13492127Y-6419404D01*
X-13125944Y-6419404D01*
X-13067753Y-6438311D01*
X-13031789Y-6487811D01*
X-13031789Y-6537188D01*
X-13028867Y-6537769D01*
X-13044428Y-6616000D01*
X-13044428Y-8116000D01*
X-13038765Y-8144469D01*
X-13032168Y-8177634D01*
X-13028867Y-8194231D01*
X-12984552Y-8260552D01*
X-12918231Y-8304867D01*
X-12908668Y-8306769D01*
X-12908666Y-8306770D01*
X-12880129Y-8312446D01*
X-12840000Y-8320428D01*
X-11796709Y-8320428D01*
X-11786903Y-8320915D01*
X-11786062Y-8320999D01*
X-11786027Y-8321002D01*
X-11785364Y-8321068D01*
X-11784693Y-8321116D01*
X-11784681Y-8321117D01*
X-11783230Y-8321221D01*
X-11773978Y-8321882D01*
X-11768485Y-8321035D01*
X-11768482Y-8321035D01*
X-11728199Y-8314824D01*
X-11695146Y-8309728D01*
X-11690577Y-8308064D01*
X-11690574Y-8308063D01*
X-11642775Y-8290652D01*
X-11629871Y-8285952D01*
X-11568724Y-8283801D01*
X-11517991Y-8318003D01*
X-11514108Y-8323327D01*
X-11504533Y-8337416D01*
X-11502294Y-8340710D01*
X-11330862Y-8521994D01*
X-11132651Y-8673538D01*
X-11129148Y-8675416D01*
X-11129147Y-8675417D01*
X-10917782Y-8788751D01*
X-10875433Y-8832913D01*
X-10867130Y-8893532D01*
X-10896043Y-8947455D01*
X-10951130Y-8974084D01*
X-10964565Y-8975000D01*
X-20991000Y-8975000D01*
X-21049191Y-8956093D01*
X-21085155Y-8906593D01*
X-21090000Y-8876000D01*
X-21090000Y5725096D01*
X-19247682Y5725096D01*
X-19227044Y5568334D01*
X-19166536Y5422255D01*
X-19070282Y5296814D01*
X-18944841Y5200560D01*
X-18798762Y5140052D01*
X-18642000Y5119414D01*
X-18485238Y5140052D01*
X-18339159Y5200560D01*
X-18286017Y5241337D01*
X-18228344Y5261760D01*
X-18169678Y5244383D01*
X-18131211Y5192172D01*
X-18129479Y5186598D01*
X-18128358Y5178984D01*
X-18076932Y5074241D01*
X-17994350Y4991803D01*
X-17889518Y4940560D01*
X-17881916Y4939451D01*
X-17881913Y4939450D01*
X-17824763Y4931113D01*
X-17824761Y4931113D01*
X-17821218Y4930596D01*
X-16354782Y4930596D01*
X-16351199Y4931124D01*
X-16351192Y4931124D01*
X-16293501Y4939617D01*
X-16293499Y4939618D01*
X-16285888Y4940738D01*
X-16272192Y4947462D01*
X-16239726Y4963402D01*
X-16181145Y4992164D01*
X-16098707Y5074746D01*
X-16047464Y5179578D01*
X-16046355Y5187180D01*
X-16046354Y5187183D01*
X-16038017Y5244333D01*
X-16038017Y5244335D01*
X-16037500Y5247878D01*
X-16037500Y5614314D01*
X-16038071Y5618198D01*
X-16046521Y5675595D01*
X-16046522Y5675597D01*
X-16047642Y5683208D01*
X-16056724Y5701707D01*
X-16093605Y5776824D01*
X-16099068Y5787951D01*
X-16118854Y5807703D01*
X-16161088Y5849863D01*
X-16181650Y5870389D01*
X-16286482Y5921632D01*
X-16294084Y5922741D01*
X-16294087Y5922742D01*
X-16351237Y5931079D01*
X-16351239Y5931079D01*
X-16354782Y5931596D01*
X-16819196Y5931596D01*
X-16877387Y5950503D01*
X-16889200Y5960592D01*
X-16961658Y6033050D01*
X-16968595Y6036585D01*
X-16968597Y6036586D01*
X-17067756Y6087110D01*
X-17067757Y6087110D01*
X-17074696Y6090646D01*
X-17082390Y6091865D01*
X-17082391Y6091865D01*
X-17164635Y6104891D01*
X-17164637Y6104891D01*
X-17168481Y6105500D01*
X-18128159Y6105500D01*
X-18186350Y6124407D01*
X-18206702Y6144234D01*
X-18209765Y6148226D01*
X-18213718Y6153378D01*
X-18339159Y6249632D01*
X-18485238Y6310140D01*
X-18642000Y6330778D01*
X-18798762Y6310140D01*
X-18944841Y6249632D01*
X-19070282Y6153378D01*
X-19166536Y6027937D01*
X-19227044Y5881858D01*
X-19247682Y5725096D01*
X-21090000Y5725096D01*
X-21090000Y8926000D01*
X-21071093Y8984191D01*
X-21021593Y9020155D01*
X-20991000Y9025000D01*
X-4076922Y9025000D01*
X-4018731Y9006093D01*
G37*
%TD.AperFunction*%
%TA.AperFunction,Conductor*%
G36*
X15369191Y9006093D02*
G01*
X15405155Y8956593D01*
X15410000Y8926000D01*
X15410000Y-8876000D01*
X15391093Y-8934191D01*
X15341593Y-8970155D01*
X15311000Y-8975000D01*
X-9625679Y-8975000D01*
X-9683870Y-8956093D01*
X-9719834Y-8906593D01*
X-9719834Y-8845407D01*
X-9683870Y-8795907D01*
X-9664361Y-8784870D01*
X-9572986Y-8746084D01*
X-9572984Y-8746083D01*
X-9569323Y-8744529D01*
X-9555545Y-8735853D01*
X-9382272Y-8626737D01*
X-9358192Y-8611573D01*
X-9355212Y-8608946D01*
X-9355207Y-8608942D01*
X-9174018Y-8449202D01*
X-9174017Y-8449201D01*
X-9171035Y-8446572D01*
X-9148183Y-8418752D01*
X-9064388Y-8316739D01*
X-9012843Y-8283775D01*
X-8953563Y-8286719D01*
X-8919127Y-8299448D01*
X-8887429Y-8311165D01*
X-8876611Y-8314824D01*
X-8826498Y-8319946D01*
X-8802096Y-8322440D01*
X-8802094Y-8322440D01*
X-8797261Y-8322934D01*
X-8775485Y-8320870D01*
X-8766143Y-8320428D01*
X-8351107Y-8320428D01*
X-8292916Y-8339335D01*
X-8262898Y-8374482D01*
X-8246684Y-8406304D01*
X-8246681Y-8406308D01*
X-8243146Y-8413246D01*
X-8153438Y-8502954D01*
X-8146501Y-8506489D01*
X-8146499Y-8506490D01*
X-8102328Y-8528996D01*
X-8040400Y-8560550D01*
X-8032706Y-8561769D01*
X-8032705Y-8561769D01*
X-7950461Y-8574795D01*
X-7950459Y-8574795D01*
X-7946615Y-8575404D01*
X-5971481Y-8575404D01*
X-5913290Y-8594311D01*
X-5895772Y-8611829D01*
X-5895050Y-8613246D01*
X-5805342Y-8702954D01*
X-5798405Y-8706489D01*
X-5798403Y-8706490D01*
X-5699244Y-8757014D01*
X-5692304Y-8760550D01*
X-5684610Y-8761769D01*
X-5684609Y-8761769D01*
X-5602365Y-8774795D01*
X-5602363Y-8774795D01*
X-5598519Y-8775404D01*
X-5292040Y-8775404D01*
X-4985482Y-8775403D01*
X-4981639Y-8774794D01*
X-4981634Y-8774794D01*
X-4944783Y-8768957D01*
X-4891696Y-8760550D01*
X-4835177Y-8731752D01*
X-4785597Y-8706490D01*
X-4785595Y-8706489D01*
X-4778658Y-8702954D01*
X-4688950Y-8613246D01*
X-4671260Y-8578529D01*
X-4634890Y-8507148D01*
X-4634890Y-8507147D01*
X-4631354Y-8500208D01*
X-4630085Y-8492200D01*
X-4617109Y-8410269D01*
X-4617109Y-8410267D01*
X-4616500Y-8406423D01*
X-4616501Y-7943386D01*
X-4617530Y-7936885D01*
X-4627242Y-7875565D01*
X-4631354Y-7849600D01*
X-4688950Y-7736562D01*
X-4778658Y-7646854D01*
X-4785595Y-7643319D01*
X-4785597Y-7643318D01*
X-4884756Y-7592794D01*
X-4884757Y-7592794D01*
X-4891696Y-7589258D01*
X-4899390Y-7588039D01*
X-4899391Y-7588039D01*
X-4981635Y-7575013D01*
X-4981637Y-7575013D01*
X-4985481Y-7574404D01*
X-5291960Y-7574404D01*
X-5598518Y-7574405D01*
X-5602361Y-7575014D01*
X-5602366Y-7575014D01*
X-5639217Y-7580851D01*
X-5692304Y-7589258D01*
X-5708448Y-7597484D01*
X-5798403Y-7643318D01*
X-5798405Y-7643319D01*
X-5805342Y-7646854D01*
X-5895050Y-7736562D01*
X-5895227Y-7736385D01*
X-5940888Y-7769559D01*
X-5971481Y-7774404D01*
X-7436572Y-7774404D01*
X-7494763Y-7755497D01*
X-7530727Y-7705997D01*
X-7535572Y-7675404D01*
X-7535572Y-6616000D01*
X-7551133Y-6537769D01*
X-7595448Y-6471448D01*
X-7661769Y-6427133D01*
X-7671332Y-6425231D01*
X-7671334Y-6425230D01*
X-7711827Y-6417176D01*
X-7740000Y-6411572D01*
X-8783291Y-6411572D01*
X-8793097Y-6411085D01*
X-8793938Y-6411001D01*
X-8793973Y-6410998D01*
X-8794636Y-6410932D01*
X-8795307Y-6410884D01*
X-8795319Y-6410883D01*
X-8796770Y-6410779D01*
X-8806022Y-6410118D01*
X-8811515Y-6410965D01*
X-8811518Y-6410965D01*
X-8848136Y-6416611D01*
X-8884854Y-6422272D01*
X-8889423Y-6423936D01*
X-8889426Y-6423937D01*
X-8910606Y-6431652D01*
X-8950129Y-6446048D01*
X-9011276Y-6448199D01*
X-9062009Y-6413997D01*
X-9065892Y-6408673D01*
X-9075467Y-6394584D01*
X-9075469Y-6394581D01*
X-9077706Y-6391290D01*
X-9249138Y-6210006D01*
X-9447349Y-6058462D01*
X-9450853Y-6056583D01*
X-9583352Y-5985537D01*
X-9625701Y-5941375D01*
X-9634004Y-5880756D01*
X-9603579Y-5825414D01*
X-9503817Y-5733679D01*
X-9503813Y-5733674D01*
X-9498844Y-5729105D01*
X-9441609Y-5636794D01*
X-9422923Y-5606657D01*
X-9422922Y-5606655D01*
X-9419365Y-5600918D01*
X-9387805Y-5492290D01*
X-9353415Y-5441686D01*
X-9295847Y-5420960D01*
X-9237091Y-5438030D01*
X-9199590Y-5486376D01*
X-9194653Y-5506473D01*
X-9192206Y-5524336D01*
X-9189529Y-5530522D01*
X-9189528Y-5530526D01*
X-9134986Y-5656565D01*
X-9134984Y-5656569D01*
X-9132305Y-5662759D01*
X-9037386Y-5779974D01*
X-9031887Y-5783882D01*
X-8930203Y-5856145D01*
X-8914442Y-5867346D01*
X-8908097Y-5869630D01*
X-8908094Y-5869632D01*
X-8778880Y-5916152D01*
X-8778877Y-5916153D01*
X-8772532Y-5918437D01*
X-8728586Y-5921664D01*
X-8628842Y-5928990D01*
X-8628839Y-5928990D01*
X-8622109Y-5929484D01*
X-8615494Y-5928150D01*
X-8615492Y-5928150D01*
X-8514616Y-5907809D01*
X-8474257Y-5899671D01*
X-8463919Y-5894404D01*
X-8373627Y-5848398D01*
X-8339868Y-5831197D01*
X-8334905Y-5826634D01*
X-8334903Y-5826632D01*
X-8233814Y-5733675D01*
X-8228844Y-5729105D01*
X-8171609Y-5636794D01*
X-8152923Y-5606657D01*
X-8152922Y-5606655D01*
X-8149365Y-5600918D01*
X-8117805Y-5492290D01*
X-8083415Y-5441686D01*
X-8025847Y-5420960D01*
X-7967091Y-5438030D01*
X-7929590Y-5486376D01*
X-7924653Y-5506473D01*
X-7922206Y-5524336D01*
X-7919529Y-5530522D01*
X-7919528Y-5530526D01*
X-7864986Y-5656565D01*
X-7864984Y-5656569D01*
X-7862305Y-5662759D01*
X-7767386Y-5779974D01*
X-7761887Y-5783882D01*
X-7660203Y-5856145D01*
X-7644442Y-5867346D01*
X-7638097Y-5869630D01*
X-7638094Y-5869632D01*
X-7508880Y-5916152D01*
X-7508877Y-5916153D01*
X-7502532Y-5918437D01*
X-7458586Y-5921664D01*
X-7358842Y-5928990D01*
X-7358839Y-5928990D01*
X-7352109Y-5929484D01*
X-7345494Y-5928150D01*
X-7345492Y-5928150D01*
X-7244616Y-5907809D01*
X-7204257Y-5899671D01*
X-7193919Y-5894404D01*
X-7103627Y-5848398D01*
X-7069868Y-5831197D01*
X-7064905Y-5826634D01*
X-7064903Y-5826632D01*
X-6963814Y-5733675D01*
X-6958844Y-5729105D01*
X-6901609Y-5636794D01*
X-6882923Y-5606657D01*
X-6882922Y-5606655D01*
X-6879365Y-5600918D01*
X-6837285Y-5456079D01*
X-6836500Y-5445389D01*
X-6836500Y-4924404D01*
X-6817593Y-4866213D01*
X-6768093Y-4830249D01*
X-6737500Y-4825404D01*
X-5856401Y-4825404D01*
X-5798210Y-4844311D01*
X-5786397Y-4854400D01*
X-4260496Y-6380300D01*
X-4232719Y-6434817D01*
X-4231500Y-6450304D01*
X-4231499Y-6749922D01*
X-4216646Y-6843708D01*
X-4193873Y-6888403D01*
X-4164039Y-6946954D01*
X-4159050Y-6956746D01*
X-4069342Y-7046454D01*
X-4062405Y-7049989D01*
X-4062403Y-7049990D01*
X-3976113Y-7093957D01*
X-3956304Y-7104050D01*
X-3948610Y-7105269D01*
X-3948609Y-7105269D01*
X-3866365Y-7118295D01*
X-3866363Y-7118295D01*
X-3862519Y-7118904D01*
X-3556040Y-7118904D01*
X-3249482Y-7118903D01*
X-3230197Y-7115849D01*
X-3158913Y-7104560D01*
X-3098481Y-7114132D01*
X-3055218Y-7157397D01*
X-3044428Y-7202341D01*
X-3044428Y-7484467D01*
X-3063335Y-7542658D01*
X-3112835Y-7578622D01*
X-3158915Y-7582248D01*
X-3245635Y-7568513D01*
X-3245637Y-7568513D01*
X-3249481Y-7567904D01*
X-3555960Y-7567904D01*
X-3862518Y-7567905D01*
X-3866361Y-7568514D01*
X-3866366Y-7568514D01*
X-3903217Y-7574351D01*
X-3956304Y-7582758D01*
X-3985205Y-7597484D01*
X-4062403Y-7636818D01*
X-4062405Y-7636819D01*
X-4069342Y-7640354D01*
X-4159050Y-7730062D01*
X-4162585Y-7736999D01*
X-4162586Y-7737001D01*
X-4207541Y-7825230D01*
X-4216646Y-7843100D01*
X-4231500Y-7936885D01*
X-4231499Y-8399922D01*
X-4230890Y-8403765D01*
X-4230890Y-8403770D01*
X-4229389Y-8413246D01*
X-4216646Y-8493708D01*
X-4187848Y-8550227D01*
X-4173427Y-8578529D01*
X-4159050Y-8606746D01*
X-4069342Y-8696454D01*
X-4062405Y-8699989D01*
X-4062403Y-8699990D01*
X-3963271Y-8750500D01*
X-3956304Y-8754050D01*
X-3948610Y-8755269D01*
X-3948609Y-8755269D01*
X-3866365Y-8768295D01*
X-3866363Y-8768295D01*
X-3862519Y-8768904D01*
X-3556040Y-8768904D01*
X-3249482Y-8768903D01*
X-3245639Y-8768294D01*
X-3245634Y-8768294D01*
X-3204430Y-8761768D01*
X-3155696Y-8754050D01*
X-3064046Y-8707352D01*
X-3049597Y-8699990D01*
X-3049595Y-8699989D01*
X-3042658Y-8696454D01*
X-2952950Y-8606746D01*
X-2942103Y-8585458D01*
X-2898841Y-8542195D01*
X-2853895Y-8531404D01*
X-2707471Y-8531404D01*
X-2684524Y-8523948D01*
X-2669423Y-8520323D01*
X-2653295Y-8517769D01*
X-2653293Y-8517768D01*
X-2645600Y-8516550D01*
X-2624107Y-8505599D01*
X-2609761Y-8499656D01*
X-2594225Y-8494608D01*
X-2586814Y-8492200D01*
X-2567297Y-8478020D01*
X-2554058Y-8469906D01*
X-2532562Y-8458954D01*
X-2509999Y-8436391D01*
X-2509995Y-8436388D01*
X-2257031Y-8183424D01*
X-2202514Y-8155647D01*
X-2187027Y-8154428D01*
X-1796709Y-8154428D01*
X-1786903Y-8154915D01*
X-1786062Y-8154999D01*
X-1786027Y-8155002D01*
X-1785364Y-8155068D01*
X-1784693Y-8155116D01*
X-1784681Y-8155117D01*
X-1783230Y-8155221D01*
X-1773978Y-8155882D01*
X-1768485Y-8155035D01*
X-1768482Y-8155035D01*
X-1730239Y-8149138D01*
X-1695146Y-8143728D01*
X-1690577Y-8142064D01*
X-1690574Y-8142063D01*
X-1632101Y-8120764D01*
X-1629871Y-8119952D01*
X-1568724Y-8117801D01*
X-1517991Y-8152003D01*
X-1514108Y-8157327D01*
X-1507866Y-8166511D01*
X-1502294Y-8174710D01*
X-1330862Y-8355994D01*
X-1132651Y-8507538D01*
X-1129148Y-8509416D01*
X-1129147Y-8509417D01*
X-934674Y-8613693D01*
X-912761Y-8625443D01*
X-676848Y-8706674D01*
X-488500Y-8739207D01*
X-434058Y-8748611D01*
X-434056Y-8748611D01*
X-430983Y-8749142D01*
X-408011Y-8750185D01*
X-402182Y-8750450D01*
X-402176Y-8750450D01*
X-401078Y-8750500D01*
X-227309Y-8750500D01*
X-225335Y-8750341D01*
X-225331Y-8750341D01*
X-45258Y-8735853D01*
X-45253Y-8735852D01*
X-41298Y-8735534D01*
X-37438Y-8734586D01*
X197140Y-8676968D01*
X197145Y-8676966D01*
X201006Y-8676018D01*
X204667Y-8674464D01*
X204670Y-8674463D01*
X427014Y-8580084D01*
X427016Y-8580083D01*
X430677Y-8578529D01*
X435640Y-8575404D01*
X559432Y-8497448D01*
X641808Y-8445573D01*
X644788Y-8442946D01*
X644793Y-8442942D01*
X825982Y-8283202D01*
X825983Y-8283201D01*
X828965Y-8280572D01*
X942737Y-8142063D01*
X984810Y-8090843D01*
X984811Y-8090842D01*
X987334Y-8087770D01*
X1027720Y-8018380D01*
X1110840Y-7875565D01*
X1110842Y-7875561D01*
X1112840Y-7872128D01*
X1119853Y-7853860D01*
X1176612Y-7705997D01*
X1202255Y-7639195D01*
X1248624Y-7417238D01*
X1252464Y-7398859D01*
X1252465Y-7398855D01*
X1253278Y-7394961D01*
X1255959Y-7335933D01*
X1260707Y-7231349D01*
X1264596Y-7145712D01*
X1263421Y-7135550D01*
X1236376Y-6901807D01*
X1236375Y-6901803D01*
X1235919Y-6897860D01*
X1225985Y-6862752D01*
X1169065Y-6661604D01*
X1169064Y-6661602D01*
X1167983Y-6657781D01*
X1166304Y-6654180D01*
X1064220Y-6435258D01*
X1064217Y-6435253D01*
X1062538Y-6431652D01*
X1060303Y-6428363D01*
X1060300Y-6428358D01*
X924530Y-6228580D01*
X924529Y-6228579D01*
X922294Y-6225290D01*
X914630Y-6217185D01*
X790899Y-6086344D01*
X750862Y-6044006D01*
X552651Y-5892462D01*
X541831Y-5886660D01*
X426769Y-5824964D01*
X401944Y-5811653D01*
X359595Y-5767492D01*
X351292Y-5706872D01*
X380205Y-5652950D01*
X435291Y-5626320D01*
X448727Y-5625404D01*
X3333868Y-5625404D01*
X3392059Y-5644311D01*
X3428023Y-5693811D01*
X3428023Y-5754997D01*
X3422078Y-5769349D01*
X3407817Y-5797337D01*
X3407816Y-5797340D01*
X3404281Y-5804278D01*
X3403062Y-5811972D01*
X3403062Y-5811973D01*
X3389172Y-5899671D01*
X3388500Y-5903916D01*
X3388500Y-6420892D01*
X3389109Y-6424736D01*
X3389109Y-6424738D01*
X3392665Y-6447186D01*
X3404281Y-6520530D01*
X3407817Y-6527469D01*
X3407817Y-6527470D01*
X3457490Y-6624958D01*
X3465472Y-6640624D01*
X3560780Y-6735932D01*
X3567717Y-6739467D01*
X3567719Y-6739468D01*
X3673934Y-6793587D01*
X3680874Y-6797123D01*
X3688568Y-6798342D01*
X3688569Y-6798342D01*
X3776666Y-6812295D01*
X3776668Y-6812295D01*
X3780512Y-6812904D01*
X3871389Y-6812904D01*
X3929580Y-6831811D01*
X3941393Y-6841900D01*
X4725208Y-7625715D01*
X4753357Y-7682797D01*
X4772956Y-7831666D01*
X4775440Y-7837663D01*
X4782149Y-7853860D01*
X4833464Y-7977745D01*
X4929718Y-8103186D01*
X4934940Y-8107193D01*
X4935240Y-8107510D01*
X4939455Y-8111726D01*
X4939334Y-8111847D01*
X4955022Y-8128466D01*
X4957191Y-8132983D01*
X4967911Y-8144579D01*
X4979209Y-8159384D01*
X4987567Y-8172786D01*
X4993154Y-8177634D01*
X5015888Y-8197362D01*
X5023695Y-8204927D01*
X5049146Y-8232460D01*
X5055542Y-8236175D01*
X5055543Y-8236176D01*
X5062800Y-8240391D01*
X5077959Y-8251224D01*
X5089883Y-8261571D01*
X5124190Y-8276738D01*
X5133865Y-8281668D01*
X5159887Y-8296783D01*
X5159889Y-8296784D01*
X5166287Y-8300500D01*
X5181673Y-8304066D01*
X5199341Y-8309961D01*
X5213783Y-8316346D01*
X5251019Y-8320753D01*
X5261728Y-8322623D01*
X5283439Y-8327655D01*
X5291045Y-8329418D01*
X5291046Y-8329418D01*
X5298255Y-8331089D01*
X5309170Y-8330316D01*
X5314009Y-8329974D01*
X5332633Y-8330413D01*
X5337080Y-8330939D01*
X5348310Y-8332268D01*
X5355586Y-8330939D01*
X5355588Y-8330939D01*
X5374691Y-8327450D01*
X5385187Y-8325533D01*
X5395979Y-8324169D01*
X5402265Y-8323724D01*
X5426004Y-8322044D01*
X5426007Y-8322043D01*
X5433384Y-8321521D01*
X5448116Y-8315822D01*
X5466052Y-8310764D01*
X5474292Y-8309259D01*
X5474293Y-8309259D01*
X5481573Y-8307929D01*
X5514834Y-8290652D01*
X5524749Y-8286175D01*
X5552824Y-8275314D01*
X5552828Y-8275312D01*
X5556790Y-8273779D01*
X5556797Y-8273777D01*
X5559727Y-8272643D01*
X5559852Y-8272966D01*
X5603459Y-8261404D01*
X6060079Y-8261404D01*
X6117096Y-8279930D01*
X6117448Y-8280456D01*
X6183769Y-8324771D01*
X6193332Y-8326673D01*
X6193334Y-8326674D01*
X6215532Y-8331089D01*
X6242252Y-8336404D01*
X6681748Y-8336404D01*
X6708468Y-8331089D01*
X6730666Y-8326674D01*
X6730668Y-8326673D01*
X6740231Y-8324771D01*
X6806552Y-8280456D01*
X6850867Y-8214135D01*
X6853214Y-8202340D01*
X6857279Y-8181899D01*
X6862500Y-8155652D01*
X6862500Y-8045046D01*
X6875893Y-7995322D01*
X6881880Y-7985015D01*
X6881880Y-7985014D01*
X6885596Y-7978617D01*
X6916185Y-7846649D01*
X6910896Y-7771946D01*
X6925647Y-7712565D01*
X6972483Y-7673195D01*
X7033516Y-7668874D01*
X7079653Y-7694950D01*
X7332504Y-7947801D01*
X7360281Y-8002318D01*
X7361500Y-8017805D01*
X7361500Y-8155652D01*
X7366721Y-8181899D01*
X7370787Y-8202340D01*
X7373133Y-8214135D01*
X7417448Y-8280456D01*
X7483769Y-8324771D01*
X7493332Y-8326673D01*
X7493334Y-8326674D01*
X7515532Y-8331089D01*
X7542252Y-8336404D01*
X7981748Y-8336404D01*
X8008468Y-8331089D01*
X8030666Y-8326674D01*
X8030668Y-8326673D01*
X8040231Y-8324771D01*
X8106552Y-8280456D01*
X8150867Y-8214135D01*
X8153214Y-8202340D01*
X8157279Y-8181899D01*
X8162500Y-8155652D01*
X8162500Y-7466156D01*
X8150867Y-7407673D01*
X8106552Y-7341352D01*
X8040231Y-7297037D01*
X8030668Y-7295135D01*
X8030666Y-7295134D01*
X8007995Y-7290625D01*
X7981748Y-7285404D01*
X7843901Y-7285404D01*
X7785710Y-7266497D01*
X7773897Y-7256408D01*
X7122897Y-6605408D01*
X7095120Y-6550891D01*
X7104691Y-6490459D01*
X7147956Y-6447194D01*
X7192901Y-6436404D01*
X7331748Y-6436404D01*
X7357995Y-6431183D01*
X7380666Y-6426674D01*
X7380668Y-6426673D01*
X7390231Y-6424771D01*
X7456552Y-6380456D01*
X7500867Y-6314135D01*
X7512500Y-6255652D01*
X7512500Y-4035385D01*
X7512499Y-4035379D01*
X7512499Y-4003471D01*
X7510093Y-3996064D01*
X7510092Y-3996061D01*
X7505046Y-3980531D01*
X7501420Y-3965428D01*
X7498865Y-3949296D01*
X7497646Y-3941600D01*
X7486695Y-3920108D01*
X7480751Y-3905759D01*
X7475704Y-3890225D01*
X7475704Y-3890224D01*
X7473296Y-3882814D01*
X7459111Y-3863290D01*
X7451004Y-3850060D01*
X7440050Y-3828562D01*
X6794496Y-3183008D01*
X6766719Y-3128491D01*
X6765500Y-3113004D01*
X6765500Y-2167611D01*
X6784407Y-2109420D01*
X6794496Y-2097607D01*
X9185484Y293381D01*
X9194197Y301123D01*
X9216299Y318547D01*
X9222110Y323128D01*
X9255714Y371749D01*
X9257517Y374272D01*
X9288236Y415861D01*
X9288237Y415863D01*
X9292634Y421816D01*
X9295027Y428632D01*
X9299131Y434569D01*
X9316956Y490929D01*
X9317918Y493814D01*
X9337519Y549631D01*
X9337756Y555673D01*
X9338277Y558347D01*
X9339980Y563730D01*
X9340500Y570337D01*
X9340500Y623541D01*
X9340576Y627428D01*
X9342548Y677603D01*
X9342548Y677606D01*
X9342838Y684994D01*
X9341041Y691772D01*
X9340500Y701597D01*
X9340500Y4800596D01*
X9359407Y4858787D01*
X9408907Y4894751D01*
X9439500Y4899596D01*
X9511834Y4899596D01*
X9514135Y4899814D01*
X9514145Y4899814D01*
X9537361Y4902009D01*
X9537362Y4902009D01*
X9543369Y4902577D01*
X9671184Y4947462D01*
X9678248Y4952679D01*
X9774193Y5023546D01*
X9780150Y5027946D01*
X9795835Y5049182D01*
X9856238Y5130960D01*
X9856239Y5130961D01*
X9860634Y5136912D01*
X9905519Y5264727D01*
X9907875Y5289647D01*
X9908282Y5293951D01*
X9908282Y5293961D01*
X9908500Y5296262D01*
X9908500Y5928930D01*
X9908211Y5931997D01*
X9906087Y5954457D01*
X9906087Y5954458D01*
X9905519Y5960465D01*
X9860634Y6088280D01*
X9819306Y6144234D01*
X9784550Y6191289D01*
X9780150Y6197246D01*
X9714575Y6245681D01*
X9677136Y6273334D01*
X9677135Y6273335D01*
X9671184Y6277730D01*
X9543369Y6322615D01*
X9537362Y6323183D01*
X9537361Y6323183D01*
X9514145Y6325378D01*
X9514135Y6325378D01*
X9511834Y6325596D01*
X8701400Y6325596D01*
X8643209Y6344503D01*
X8607245Y6394003D01*
X8607245Y6455189D01*
X8631396Y6494599D01*
X8832395Y6695599D01*
X8886912Y6723377D01*
X8902399Y6724596D01*
X9511834Y6724596D01*
X9514135Y6724814D01*
X9514145Y6724814D01*
X9537361Y6727009D01*
X9537362Y6727009D01*
X9543369Y6727577D01*
X9671184Y6772462D01*
X9720428Y6808834D01*
X9774193Y6848546D01*
X9780150Y6852946D01*
X9789057Y6865005D01*
X9856238Y6955960D01*
X9856239Y6955961D01*
X9860634Y6961912D01*
X9905519Y7089727D01*
X9906452Y7099596D01*
X9908282Y7118951D01*
X9908282Y7118961D01*
X9908500Y7121262D01*
X9908500Y7753930D01*
X9905519Y7785465D01*
X9860634Y7913280D01*
X9854654Y7921377D01*
X9784550Y8016289D01*
X9780150Y8022246D01*
X9764322Y8033937D01*
X9677136Y8098334D01*
X9677135Y8098335D01*
X9671184Y8102730D01*
X9543369Y8147615D01*
X9537362Y8148183D01*
X9537361Y8148183D01*
X9514145Y8150378D01*
X9514135Y8150378D01*
X9511834Y8150596D01*
X8504166Y8150596D01*
X8501865Y8150378D01*
X8501855Y8150378D01*
X8478639Y8148183D01*
X8478638Y8148183D01*
X8472631Y8147615D01*
X8344816Y8102730D01*
X8338865Y8098335D01*
X8338864Y8098334D01*
X8251678Y8033937D01*
X8235850Y8022246D01*
X8231450Y8016289D01*
X8161347Y7921377D01*
X8155366Y7913280D01*
X8110481Y7785465D01*
X8107500Y7753930D01*
X8107500Y7144497D01*
X8088593Y7086306D01*
X8078504Y7074493D01*
X8009083Y7005072D01*
X7954566Y6977295D01*
X7939079Y6976076D01*
X5676920Y6976076D01*
X5618729Y6994983D01*
X5606916Y7005072D01*
X5537496Y7074492D01*
X5509719Y7129009D01*
X5508500Y7144496D01*
X5508500Y7753930D01*
X5505519Y7785465D01*
X5460634Y7913280D01*
X5454654Y7921377D01*
X5384550Y8016289D01*
X5380150Y8022246D01*
X5364322Y8033937D01*
X5277136Y8098334D01*
X5277135Y8098335D01*
X5271184Y8102730D01*
X5143369Y8147615D01*
X5137362Y8148183D01*
X5137361Y8148183D01*
X5114145Y8150378D01*
X5114135Y8150378D01*
X5111834Y8150596D01*
X4104166Y8150596D01*
X4101865Y8150378D01*
X4101855Y8150378D01*
X4078639Y8148183D01*
X4078638Y8148183D01*
X4072631Y8147615D01*
X3944816Y8102730D01*
X3938865Y8098335D01*
X3938864Y8098334D01*
X3856374Y8037406D01*
X3798333Y8018042D01*
X3739996Y8036492D01*
X3719014Y8056772D01*
X3687123Y8098334D01*
X3640282Y8159378D01*
X3514841Y8255632D01*
X3388008Y8308168D01*
X3374759Y8313656D01*
X3368762Y8316140D01*
X3237569Y8333412D01*
X3218434Y8335931D01*
X3212000Y8336778D01*
X3205566Y8335931D01*
X3186431Y8333412D01*
X3055238Y8316140D01*
X3049241Y8313656D01*
X3035992Y8308168D01*
X2909159Y8255632D01*
X2904010Y8251681D01*
X2846670Y8207683D01*
X2788994Y8187259D01*
X2730328Y8204637D01*
X2720869Y8212021D01*
X2623304Y8298186D01*
X2620657Y8300524D01*
X2572215Y8332344D01*
X2569024Y8333842D01*
X2569019Y8333845D01*
X2445769Y8391711D01*
X2445770Y8391711D01*
X2442570Y8393213D01*
X2387139Y8410160D01*
X2340564Y8417412D01*
X2249104Y8431652D01*
X2249100Y8431652D01*
X2245621Y8432194D01*
X2242102Y8432237D01*
X2225074Y8432445D01*
X2187665Y8432902D01*
X2182251Y8432194D01*
X2168225Y8430360D01*
X2155389Y8429524D01*
X1770427Y8429524D01*
X1755199Y8430703D01*
X1752478Y8431126D01*
X1749104Y8431652D01*
X1749100Y8431652D01*
X1745621Y8432194D01*
X1687665Y8432902D01*
X1545651Y8414332D01*
X1542257Y8413384D01*
X1542255Y8413384D01*
X1493225Y8399695D01*
X1493223Y8399694D01*
X1489823Y8398745D01*
X1486596Y8397325D01*
X1486593Y8397324D01*
X1361959Y8342483D01*
X1358730Y8341062D01*
X1309524Y8310434D01*
X1306830Y8308169D01*
X1306828Y8308168D01*
X1239628Y8251681D01*
X1199889Y8218277D01*
X1197542Y8215652D01*
X1197541Y8215651D01*
X1190417Y8207683D01*
X1161255Y8175067D01*
X1114735Y8105181D01*
X1101990Y8086034D01*
X1081892Y8055842D01*
X1056939Y8003527D01*
X1014229Y7866821D01*
X1004962Y7809606D01*
X1004897Y7806086D01*
X1004897Y7806081D01*
X1003984Y7756241D01*
X1002337Y7666407D01*
X1002772Y7662915D01*
X1002772Y7662913D01*
X1002813Y7662584D01*
X1003572Y7650349D01*
X1003572Y7175096D01*
X1009659Y7144496D01*
X1016276Y7111229D01*
X1019133Y7096865D01*
X1024548Y7088762D01*
X1024871Y7087981D01*
X1029671Y7026984D01*
X1024871Y7012211D01*
X1024548Y7011430D01*
X1019133Y7003327D01*
X1017232Y6993769D01*
X1017231Y6993767D01*
X1013955Y6977295D01*
X1007500Y6944844D01*
X1007500Y5905348D01*
X1012295Y5881241D01*
X1016439Y5860411D01*
X1019133Y5846865D01*
X1024548Y5838762D01*
X1024871Y5837981D01*
X1029671Y5776984D01*
X1024871Y5762211D01*
X1024548Y5761430D01*
X1019133Y5753327D01*
X1017232Y5743769D01*
X1017231Y5743767D01*
X1013483Y5724921D01*
X1003572Y5675096D01*
X1003572Y5624596D01*
X984665Y5566405D01*
X935165Y5530441D01*
X904572Y5525596D01*
X789901Y5525596D01*
X731710Y5544503D01*
X719897Y5554592D01*
X412496Y5861993D01*
X384719Y5916510D01*
X383500Y5931997D01*
X383500Y6258584D01*
X380468Y6277730D01*
X368938Y6350527D01*
X368938Y6350528D01*
X367719Y6358222D01*
X363962Y6365596D01*
X310064Y6471377D01*
X310063Y6471379D01*
X306528Y6478316D01*
X211220Y6573624D01*
X204283Y6577159D01*
X204281Y6577160D01*
X98066Y6631279D01*
X98065Y6631279D01*
X91126Y6634815D01*
X83432Y6636034D01*
X83431Y6636034D01*
X-4666Y6649987D01*
X-4668Y6649987D01*
X-8512Y6650596D01*
X-575488Y6650596D01*
X-579332Y6649987D01*
X-579334Y6649987D01*
X-667431Y6636034D01*
X-667432Y6636034D01*
X-675126Y6634815D01*
X-682065Y6631279D01*
X-682066Y6631279D01*
X-788281Y6577160D01*
X-788283Y6577159D01*
X-795220Y6573624D01*
X-890528Y6478316D01*
X-894063Y6471379D01*
X-894064Y6471377D01*
X-920419Y6419651D01*
X-963684Y6376387D01*
X-1008629Y6365596D01*
X-2065850Y6365596D01*
X-2102050Y6360154D01*
X-2158641Y6351646D01*
X-2158643Y6351645D01*
X-2165962Y6350545D01*
X-2172633Y6347342D01*
X-2172635Y6347341D01*
X-2232358Y6318662D01*
X-2288079Y6291905D01*
X-2293511Y6286884D01*
X-2293512Y6286883D01*
X-2304315Y6276897D01*
X-2359880Y6251282D01*
X-2371515Y6250596D01*
X-2991748Y6250596D01*
X-3050231Y6238963D01*
X-3053941Y6236484D01*
X-3111609Y6231944D01*
X-3163779Y6263912D01*
X-3187195Y6320439D01*
X-3187500Y6328209D01*
X-3187500Y7021983D01*
X-3168593Y7080174D01*
X-3119093Y7116138D01*
X-3057907Y7116138D01*
X-3057172Y7115867D01*
X-3050231Y7111229D01*
X-2991748Y7099596D01*
X-1892252Y7099596D01*
X-1857920Y7106425D01*
X-1843334Y7109326D01*
X-1843332Y7109327D01*
X-1833769Y7111229D01*
X-1767448Y7155544D01*
X-1723133Y7221865D01*
X-1721080Y7232183D01*
X-1712448Y7275584D01*
X-1711500Y7280348D01*
X-1711500Y7969844D01*
X-1723133Y8028327D01*
X-1767448Y8094648D01*
X-1833769Y8138963D01*
X-1843332Y8140865D01*
X-1843334Y8140866D01*
X-1867211Y8145615D01*
X-1892252Y8150596D01*
X-2949776Y8150596D01*
X-3007967Y8169503D01*
X-3043931Y8219003D01*
X-3047929Y8262518D01*
X-3033165Y8374662D01*
X-3032318Y8381096D01*
X-3052956Y8537858D01*
X-3113464Y8683937D01*
X-3209718Y8809378D01*
X-3259345Y8847458D01*
X-3294001Y8897882D01*
X-3292400Y8959047D01*
X-3255152Y9007588D01*
X-3199078Y9025000D01*
X15311000Y9025000D01*
X15369191Y9006093D01*
G37*
%TD.AperFunction*%
%TA.AperFunction,Conductor*%
G36*
X-6890710Y-2844311D02*
G01*
X-6878897Y-2854400D01*
X-6702429Y-3030868D01*
X-6702425Y-3030871D01*
X-6679862Y-3053434D01*
X-6658366Y-3064386D01*
X-6645127Y-3072500D01*
X-6625610Y-3086680D01*
X-6618199Y-3089088D01*
X-6602663Y-3094136D01*
X-6588317Y-3100079D01*
X-6566824Y-3111030D01*
X-6559131Y-3112248D01*
X-6559129Y-3112249D01*
X-6543001Y-3114803D01*
X-6527900Y-3118428D01*
X-6504953Y-3125884D01*
X-3420522Y-3125884D01*
X-3362331Y-3144791D01*
X-3350523Y-3154875D01*
X-3349558Y-3155841D01*
X-3321782Y-3210356D01*
X-3331353Y-3270788D01*
X-3364561Y-3308158D01*
X-3386552Y-3322852D01*
X-3430867Y-3389173D01*
X-3432769Y-3398736D01*
X-3432770Y-3398738D01*
X-3436505Y-3417519D01*
X-3442500Y-3447656D01*
X-3442500Y-3618404D01*
X-3461407Y-3676595D01*
X-3510907Y-3712559D01*
X-3541500Y-3717404D01*
X-3636123Y-3717404D01*
X-3687449Y-3717359D01*
X-3697498Y-3722185D01*
X-3697500Y-3722185D01*
X-3698341Y-3722589D01*
X-3719183Y-3729867D01*
X-3720093Y-3730074D01*
X-3720096Y-3730076D01*
X-3730962Y-3732554D01*
X-3739680Y-3739501D01*
X-3740211Y-3739924D01*
X-3759046Y-3751738D01*
X-3759653Y-3752029D01*
X-3759657Y-3752032D01*
X-3769705Y-3756857D01*
X-3777254Y-3766297D01*
X-3792872Y-3781888D01*
X-3802323Y-3789419D01*
X-3807167Y-3799462D01*
X-3807459Y-3800067D01*
X-3819308Y-3818882D01*
X-3819730Y-3819409D01*
X-3819732Y-3819414D01*
X-3826694Y-3828119D01*
X-3829382Y-3839809D01*
X-3829402Y-3839896D01*
X-3836715Y-3860722D01*
X-3841965Y-3871606D01*
X-3841975Y-3882751D01*
X-3841975Y-3882752D01*
X-3841980Y-3888375D01*
X-3841985Y-3894617D01*
X-3843730Y-3894615D01*
X-3843724Y-3894681D01*
X-3842000Y-3894681D01*
X-3842000Y-3911527D01*
X-3842026Y-3941600D01*
X-3842045Y-3962853D01*
X-3842003Y-3962941D01*
X-3842000Y-3962965D01*
X-3842000Y-4511527D01*
X-3842045Y-4562853D01*
X-3837219Y-4572902D01*
X-3837219Y-4572904D01*
X-3836815Y-4573745D01*
X-3829537Y-4594587D01*
X-3829330Y-4595497D01*
X-3829328Y-4595500D01*
X-3826850Y-4606366D01*
X-3819903Y-4615084D01*
X-3819480Y-4615615D01*
X-3807666Y-4634450D01*
X-3807375Y-4635057D01*
X-3807372Y-4635061D01*
X-3802547Y-4645109D01*
X-3793107Y-4652658D01*
X-3777516Y-4668276D01*
X-3769985Y-4677727D01*
X-3759942Y-4682571D01*
X-3759337Y-4682863D01*
X-3740522Y-4694712D01*
X-3739995Y-4695134D01*
X-3739990Y-4695136D01*
X-3731285Y-4702098D01*
X-3719595Y-4704786D01*
X-3719508Y-4704806D01*
X-3698682Y-4712119D01*
X-3687798Y-4717369D01*
X-3676653Y-4717379D01*
X-3676652Y-4717379D01*
X-3664787Y-4717389D01*
X-3664789Y-4719134D01*
X-3664723Y-4719128D01*
X-3664723Y-4717404D01*
X-3647877Y-4717404D01*
X-3596840Y-4717449D01*
X-3596551Y-4717449D01*
X-3596463Y-4717407D01*
X-3596439Y-4717404D01*
X-3541500Y-4717404D01*
X-3483309Y-4736311D01*
X-3447345Y-4785811D01*
X-3442500Y-4816404D01*
X-3442500Y-4987152D01*
X-3438024Y-5009656D01*
X-3433923Y-5030270D01*
X-3430867Y-5045635D01*
X-3386552Y-5111956D01*
X-3320231Y-5156271D01*
X-3310668Y-5158173D01*
X-3310666Y-5158174D01*
X-3289167Y-5162450D01*
X-3261748Y-5167904D01*
X-2969655Y-5167904D01*
X-2911464Y-5186811D01*
X-2875500Y-5236311D01*
X-2875500Y-5297497D01*
X-2910198Y-5345252D01*
X-2913342Y-5346854D01*
X-2935909Y-5369421D01*
X-3455397Y-5888908D01*
X-3509914Y-5916685D01*
X-3525397Y-5917904D01*
X-3537245Y-5917904D01*
X-3549096Y-5917905D01*
X-3607286Y-5899000D01*
X-3619103Y-5888909D01*
X-4495391Y-5012620D01*
X-5388591Y-4119420D01*
X-5388595Y-4119417D01*
X-5411158Y-4096854D01*
X-5432654Y-4085902D01*
X-5445895Y-4077787D01*
X-5459105Y-4068189D01*
X-5465410Y-4063608D01*
X-5488357Y-4056152D01*
X-5502703Y-4050209D01*
X-5524196Y-4039258D01*
X-5531889Y-4038040D01*
X-5531891Y-4038039D01*
X-5548019Y-4035485D01*
X-5563120Y-4031860D01*
X-5586067Y-4024404D01*
X-6737500Y-4024404D01*
X-6795691Y-4005497D01*
X-6831655Y-3955997D01*
X-6836500Y-3925404D01*
X-6836500Y-3437119D01*
X-6841735Y-3398901D01*
X-6850878Y-3332155D01*
X-6850879Y-3332151D01*
X-6851794Y-3325472D01*
X-6854472Y-3319283D01*
X-6854472Y-3319282D01*
X-6909014Y-3193243D01*
X-6909016Y-3193239D01*
X-6911695Y-3187049D01*
X-7006614Y-3069834D01*
X-7097702Y-3005101D01*
X-7134181Y-2955981D01*
X-7134822Y-2894799D01*
X-7099378Y-2844925D01*
X-7040352Y-2825404D01*
X-6948901Y-2825404D01*
X-6890710Y-2844311D01*
G37*
%TD.AperFunction*%
%TA.AperFunction,Conductor*%
G36*
X-12162407Y6943134D02*
G01*
X-12154291Y6929889D01*
X-12148588Y6918696D01*
X-12148586Y6918693D01*
X-12145050Y6911754D01*
X-12055342Y6822046D01*
X-12048405Y6818511D01*
X-12048403Y6818510D01*
X-11953695Y6770254D01*
X-11942304Y6764450D01*
X-11934610Y6763231D01*
X-11934609Y6763231D01*
X-11852365Y6750205D01*
X-11852363Y6750205D01*
X-11848519Y6749596D01*
X-11839022Y6749596D01*
X-11696500Y6749597D01*
X-11638310Y6730690D01*
X-11602346Y6681190D01*
X-11597500Y6650597D01*
X-11597500Y5746933D01*
X-11620212Y5683843D01*
X-11625156Y5679297D01*
X-11628713Y5673560D01*
X-11628714Y5673559D01*
X-11689965Y5574770D01*
X-11704635Y5551110D01*
X-11746715Y5406271D01*
X-11747500Y5395581D01*
X-11747500Y3387311D01*
X-11747042Y3383968D01*
X-11747042Y3383967D01*
X-11733122Y3282347D01*
X-11733121Y3282343D01*
X-11732206Y3275664D01*
X-11729529Y3269477D01*
X-11729527Y3269471D01*
X-11704573Y3211806D01*
X-11698815Y3150892D01*
X-11729962Y3098228D01*
X-11782509Y3074336D01*
X-11808644Y3070895D01*
X-11844762Y3066140D01*
X-11990841Y3005632D01*
X-12116282Y2909378D01*
X-12212536Y2783937D01*
X-12235603Y2728249D01*
X-12266204Y2654370D01*
X-12273044Y2637858D01*
X-12293682Y2481096D01*
X-12273044Y2324334D01*
X-12212536Y2178255D01*
X-12116282Y2052814D01*
X-11990841Y1956560D01*
X-11844762Y1896052D01*
X-11688000Y1875414D01*
X-11531238Y1896052D01*
X-11385159Y1956560D01*
X-11259718Y2052814D01*
X-11163464Y2178255D01*
X-11102956Y2324334D01*
X-11082318Y2481096D01*
X-11082322Y2481125D01*
X-11064258Y2536721D01*
X-11054169Y2548534D01*
X-10891516Y2711187D01*
X-10891513Y2711191D01*
X-10868950Y2733754D01*
X-10857999Y2755247D01*
X-10849887Y2768486D01*
X-10835704Y2788007D01*
X-10833298Y2795412D01*
X-10833296Y2795416D01*
X-10828249Y2810951D01*
X-10822306Y2825297D01*
X-10811354Y2846792D01*
X-10809215Y2860294D01*
X-10807581Y2870615D01*
X-10803955Y2885721D01*
X-10796500Y2908663D01*
X-10796500Y3003259D01*
X-10773788Y3066349D01*
X-10768844Y3070895D01*
X-10746500Y3106932D01*
X-10692923Y3193343D01*
X-10692922Y3193345D01*
X-10689365Y3199082D01*
X-10657805Y3307710D01*
X-10623415Y3358314D01*
X-10565847Y3379040D01*
X-10507091Y3361970D01*
X-10469590Y3313624D01*
X-10464653Y3293527D01*
X-10462206Y3275664D01*
X-10459529Y3269478D01*
X-10459528Y3269474D01*
X-10404984Y3143431D01*
X-10402305Y3137241D01*
X-10398060Y3131999D01*
X-10394563Y3126225D01*
X-10396456Y3125079D01*
X-10377500Y3071552D01*
X-10377500Y-230293D01*
X-10396407Y-288484D01*
X-10406496Y-300297D01*
X-13070607Y-2964408D01*
X-13125124Y-2992185D01*
X-13140611Y-2993404D01*
X-14080374Y-2993404D01*
X-14092010Y-2992718D01*
X-14096514Y-2992185D01*
X-14127311Y-2988540D01*
X-14134587Y-2989869D01*
X-14134591Y-2989869D01*
X-14185427Y-2999154D01*
X-14188495Y-2999665D01*
X-14220635Y-3004497D01*
X-14246962Y-3008455D01*
X-14253475Y-3011583D01*
X-14260573Y-3012879D01*
X-14274911Y-3020327D01*
X-14312998Y-3040111D01*
X-14315764Y-3041494D01*
X-14369079Y-3067095D01*
X-14373519Y-3071199D01*
X-14375782Y-3072724D01*
X-14380789Y-3075325D01*
X-14385828Y-3079629D01*
X-14423460Y-3117261D01*
X-14426263Y-3119955D01*
X-14463124Y-3154028D01*
X-14463126Y-3154031D01*
X-14468556Y-3159050D01*
X-14472078Y-3165114D01*
X-14478638Y-3172439D01*
X-14637941Y-3331742D01*
X-14692458Y-3359519D01*
X-14752890Y-3349948D01*
X-14796155Y-3306683D01*
X-14804197Y-3280781D01*
X-14804430Y-3280843D01*
X-14806019Y-3274911D01*
X-14806098Y-3274658D01*
X-14806108Y-3274579D01*
X-14806109Y-3274575D01*
X-14806956Y-3268142D01*
X-14812245Y-3255372D01*
X-14846332Y-3173080D01*
X-14867464Y-3122063D01*
X-14963718Y-2996622D01*
X-15089159Y-2900368D01*
X-15235238Y-2839860D01*
X-15392000Y-2819222D01*
X-15548762Y-2839860D01*
X-15694841Y-2900368D01*
X-15820282Y-2996622D01*
X-15916536Y-3122063D01*
X-15937668Y-3173080D01*
X-15971754Y-3255372D01*
X-15977044Y-3268142D01*
X-15988531Y-3355398D01*
X-16016680Y-3412481D01*
X-16226117Y-3621918D01*
X-16280634Y-3649695D01*
X-16310412Y-3649877D01*
X-16354782Y-3643404D01*
X-17821218Y-3643404D01*
X-17824801Y-3643932D01*
X-17824808Y-3643932D01*
X-17882499Y-3652425D01*
X-17882501Y-3652426D01*
X-17890112Y-3653546D01*
X-17897018Y-3656937D01*
X-17897019Y-3656937D01*
X-17906879Y-3661778D01*
X-17967447Y-3670451D01*
X-18021545Y-3641868D01*
X-18048510Y-3586945D01*
X-18049510Y-3572911D01*
X-18049510Y2360179D01*
X-18030603Y2418370D01*
X-17981103Y2454334D01*
X-17919917Y2454334D01*
X-17907034Y2449122D01*
X-17889518Y2440560D01*
X-17881916Y2439451D01*
X-17881913Y2439450D01*
X-17824763Y2431113D01*
X-17824761Y2431113D01*
X-17821218Y2430596D01*
X-16354782Y2430596D01*
X-16351199Y2431124D01*
X-16351192Y2431124D01*
X-16293501Y2439617D01*
X-16293499Y2439618D01*
X-16285888Y2440738D01*
X-16268811Y2449122D01*
X-16225345Y2470463D01*
X-16181714Y2480596D01*
X-16120627Y2480596D01*
X-16108991Y2479910D01*
X-16073690Y2475732D01*
X-16066414Y2477061D01*
X-16066411Y2477061D01*
X-16035712Y2482668D01*
X-16015570Y2486347D01*
X-16012524Y2486854D01*
X-15954038Y2495647D01*
X-15947525Y2498775D01*
X-15940427Y2500071D01*
X-15888018Y2527295D01*
X-15885238Y2528684D01*
X-15838592Y2551083D01*
X-15838589Y2551085D01*
X-15831921Y2554287D01*
X-15827479Y2558393D01*
X-15825219Y2559916D01*
X-15820212Y2562517D01*
X-15815172Y2566821D01*
X-15777540Y2604453D01*
X-15774737Y2607147D01*
X-15737876Y2641220D01*
X-15737874Y2641223D01*
X-15732444Y2646242D01*
X-15728922Y2652306D01*
X-15722362Y2659631D01*
X-15656489Y2725504D01*
X-15601972Y2753281D01*
X-15586485Y2754500D01*
X-15306157Y2754500D01*
X-15247339Y2735133D01*
X-15230184Y2722462D01*
X-15223203Y2720011D01*
X-15223204Y2720011D01*
X-15196405Y2710600D01*
X-15159203Y2687196D01*
X-14984607Y2512600D01*
X-14956830Y2458083D01*
X-14966401Y2397651D01*
X-15009666Y2354386D01*
X-15054611Y2343596D01*
X-15561748Y2343596D01*
X-15587995Y2338375D01*
X-15610666Y2333866D01*
X-15610668Y2333865D01*
X-15620231Y2331963D01*
X-15686552Y2287648D01*
X-15730867Y2221327D01*
X-15742500Y2162844D01*
X-15742500Y823348D01*
X-15730867Y764865D01*
X-15686552Y698544D01*
X-15620231Y654229D01*
X-15610668Y652327D01*
X-15610666Y652326D01*
X-15587995Y647817D01*
X-15561748Y642596D01*
X-15027500Y642596D01*
X-14969309Y623689D01*
X-14933345Y574189D01*
X-14928500Y543596D01*
X-14928500Y540627D01*
X-14929186Y528991D01*
X-14933364Y493690D01*
X-14932035Y486414D01*
X-14932035Y486411D01*
X-14922752Y435586D01*
X-14922242Y432524D01*
X-14913449Y374038D01*
X-14910321Y367525D01*
X-14909025Y360427D01*
X-14905614Y353861D01*
X-14881802Y308020D01*
X-14880412Y305238D01*
X-14858013Y258592D01*
X-14858011Y258589D01*
X-14854809Y251921D01*
X-14850703Y247479D01*
X-14849180Y245219D01*
X-14846579Y240212D01*
X-14842275Y235172D01*
X-14804643Y197540D01*
X-14801949Y194737D01*
X-14767876Y157876D01*
X-14767873Y157874D01*
X-14762854Y152444D01*
X-14756790Y148922D01*
X-14749465Y142362D01*
X-14594680Y-12423D01*
X-14566531Y-69505D01*
X-14555044Y-156762D01*
X-14494536Y-302841D01*
X-14398282Y-428282D01*
X-14272841Y-524536D01*
X-14126762Y-585044D01*
X-13970000Y-605682D01*
X-13813238Y-585044D01*
X-13667159Y-524536D01*
X-13541718Y-428282D01*
X-13445464Y-302841D01*
X-13384956Y-156762D01*
X-13367684Y-25569D01*
X-13365165Y-6434D01*
X-13364318Y0D01*
X-13384956Y156762D01*
X-13445464Y302841D01*
X-13541718Y428282D01*
X-13667159Y524536D01*
X-13676634Y528461D01*
X-13678686Y530213D01*
X-13678774Y530264D01*
X-13678765Y530280D01*
X-13723159Y568194D01*
X-13737445Y627688D01*
X-13714033Y684217D01*
X-13708754Y689929D01*
X-13705558Y693125D01*
X-13697448Y698544D01*
X-13653133Y764865D01*
X-13641500Y823348D01*
X-13641500Y2162844D01*
X-13653133Y2221327D01*
X-13697448Y2287648D01*
X-13763769Y2331963D01*
X-13773332Y2333865D01*
X-13773334Y2333866D01*
X-13796005Y2338375D01*
X-13822252Y2343596D01*
X-13928500Y2343596D01*
X-13986691Y2362503D01*
X-14022655Y2412003D01*
X-14027500Y2442596D01*
X-14027500Y2591308D01*
X-14008593Y2649499D01*
X-13961302Y2684716D01*
X-13925163Y2697407D01*
X-13853816Y2722462D01*
X-13830802Y2739460D01*
X-13750807Y2798546D01*
X-13744850Y2802946D01*
X-13694942Y2870516D01*
X-13668762Y2905960D01*
X-13668761Y2905961D01*
X-13664366Y2911912D01*
X-13619481Y3039727D01*
X-13616984Y3066140D01*
X-13616718Y3068951D01*
X-13616718Y3068961D01*
X-13616500Y3071262D01*
X-13616500Y3372485D01*
X-13597593Y3430676D01*
X-13587504Y3442489D01*
X-12496516Y4533477D01*
X-12487803Y4541219D01*
X-12465701Y4558643D01*
X-12459890Y4563224D01*
X-12426286Y4611845D01*
X-12424483Y4614368D01*
X-12393764Y4655957D01*
X-12393763Y4655959D01*
X-12389366Y4661912D01*
X-12386973Y4668728D01*
X-12382869Y4674665D01*
X-12379664Y4684797D01*
X-12365049Y4731011D01*
X-12364082Y4733910D01*
X-12344481Y4789727D01*
X-12344244Y4795769D01*
X-12343723Y4798443D01*
X-12342020Y4803826D01*
X-12341500Y4810433D01*
X-12341500Y4863637D01*
X-12341424Y4867524D01*
X-12341029Y4877577D01*
X-12339162Y4925090D01*
X-12340959Y4931869D01*
X-12341500Y4941689D01*
X-12341500Y5892163D01*
X-12321042Y5952430D01*
X-12271415Y6017106D01*
X-12267464Y6022255D01*
X-12206956Y6168334D01*
X-12186318Y6325096D01*
X-12206956Y6481858D01*
X-12212233Y6494599D01*
X-12244967Y6573624D01*
X-12267464Y6627937D01*
X-12284851Y6650596D01*
X-12321042Y6697762D01*
X-12341500Y6758029D01*
X-12341500Y6884943D01*
X-12322593Y6943134D01*
X-12273093Y6979098D01*
X-12211907Y6979098D01*
X-12162407Y6943134D01*
G37*
%TD.AperFunction*%
%TD*%
M02*
