M48
; DRILL file {KiCad 6.0.4-6f826c9f35~116~ubuntu20.04.1} date Thu Sep 29 13:52:15 2022
; FORMAT={-:-/ absolute / metric / decimal}
; #@! TF.CreationDate,2022-09-29T13:52:15+00:00
; #@! TF.GenerationSoftware,Kicad,Pcbnew,6.0.4-6f826c9f35~116~ubuntu20.04.1
; #@! TF.FileFunction,Plated,1,2,PTH
FMAT,2
METRIC
; #@! TA.AperFunction,Plated,PTH,ViaDrill
T1C0.400
; #@! TA.AperFunction,Plated,PTH,ComponentDrill
T2C1.000
; #@! TA.AperFunction,Plated,PTH,ComponentDrill
T3C3.000
%
G90
G05
T1
X-20.32Y6.35
X-20.32Y5.334
X-20.32Y4.318
X-20.32Y3.302
X-20.32Y-3.302
X-20.32Y-4.318
X-20.32Y-5.334
X-20.32Y-6.35
X-18.642Y6.975
X-18.542Y5.842
X-17.526Y8.506
X-17.272Y-8.382
X-17.018Y1.27
X-17.018Y0.0
X-17.018Y-1.27
X-16.256Y8.506
X-15.079Y-3.209
X-14.478Y-2.286
X-14.224Y0.254
X-14.097Y8.506
X-13.716Y-5.842
X-12.792Y6.325
X-12.7Y1.267
X-12.7Y-0.511
X-12.522Y8.506
X-12.192Y3.807
X-12.192Y-8.385
X-11.688Y2.481
X-11.176Y1.27
X-8.636Y2.794
X-8.636Y0.0
X-7.62Y-8.385
X-7.366Y2.54
X-6.604Y-5.334
X-5.942Y-3.625
X-5.08Y-5.334
X-4.826Y0.508
X-4.826Y-1.27
X-3.556Y-3.048
X-3.404Y6.706
X-2.54Y-8.385
X-2.286Y3.807
X-2.286Y-5.588
X-1.27Y8.382
X-0.508Y4.572
X1.778Y7.731
X2.286Y-8.382
X3.008Y-2.375
X3.048Y-5.588
X3.454Y3.581
X3.81Y-3.302
X3.937Y2.537
X4.318Y1.394
X5.842Y4.318
X6.096Y-4.572
X6.833Y4.013
X8.382Y-4.575
X9.398Y-5.591
X9.398Y-6.607
X10.414Y-1.778
X10.414Y-3.051
X10.414Y-4.321
X10.541Y8.252
X10.541Y7.109
X10.541Y6.096
X10.541Y5.08
X11.176Y-6.353
X11.176Y-7.369
X11.176Y-8.385
T2
X5.715Y2.54
X5.715Y0.0
X5.715Y-2.54
T3
X0.0Y0.0
T0
M30
