M48
; DRILL file {KiCad (5.99.0-9154-g0d2ee266a1)} date 02/19/21 08:00:04
; FORMAT={3:3/ absolute / metric / suppress leading zeros}
; #@! TF.CreationDate,2021-02-19T08:00:04+01:00
; #@! TF.GenerationSoftware,Kicad,Pcbnew,(5.99.0-9154-g0d2ee266a1)
; #@! TF.FileFunction,Plated,1,2,PTH
FMAT,2
METRIC,TZ
T1C0.400
T2C1.000
T3C3.000
%
G90
G05
T1
X-14478Y10925
X-14478Y9909
X-14478Y8893
X-14478Y7877
X-14478Y1273
X-14478Y257
X-14478Y-759
X-14478Y-1775
X-11430Y6099
X-11430Y4575
X-11430Y3051
X-11430Y-3807
X-10922Y13208
X-9652Y13211
X-9652Y11684
X-9525Y10290
X-9525Y130
X-8890Y-3810
X-8255Y13211
X-8128Y4575
X-8128Y-2540
X-7112Y7620
X-6858Y5842
X-6858Y4064
X-6680Y13211
X-6604Y2543
X-6350Y8382
X-6350Y6858
X-6350Y-2032
X-6350Y-3048
X-6350Y-4064
X-2540Y11430
X-2540Y3810
X-2540Y3048
X-2540Y2032
X-1270Y3810
X-1270Y-508
X254Y0
X254Y-1267
X1016Y6096
X1016Y4064
X1016Y-4064
X1524Y2794
X2794Y9144
X3556Y8382
X4318Y13462
X4348Y0
X7747Y8636
X7874Y-4318
X8255Y10795
X8636Y13462
X8890Y8128
X8890Y762
X8890Y-4318
X9779Y7112
X10160Y8382
X10160Y5969
X10160Y254
X11176Y-3302
X11430Y3
X12192Y13462
X12446Y8890
X13462Y13462
X14224Y0
X15240Y-1016
X15240Y-2032
X16256Y2797
X16256Y1524
X16256Y254
X17018Y-2029
X17018Y-3045
X17018Y-4061
T2
X11557Y7115
X11557Y4575
X11557Y2035
T3
X5842Y4575
T0
M30
