%TF.GenerationSoftware,KiCad,Pcbnew,6.0.4-6f826c9f35~116~ubuntu20.04.1*%
%TF.CreationDate,2022-09-30T06:43:46+00:00*%
%TF.ProjectId,TFRPM01D,54465250-4d30-4314-942e-6b696361645f,rev?*%
%TF.SameCoordinates,PX7e721e0PY7e33658*%
%TF.FileFunction,Copper,L1,Top*%
%TF.FilePolarity,Positive*%
%FSLAX46Y46*%
G04 Gerber Fmt 4.6, Leading zero omitted, Abs format (unit mm)*
G04 Created by KiCad (PCBNEW 6.0.4-6f826c9f35~116~ubuntu20.04.1) date 2022-09-30 06:43:46*
%MOMM*%
%LPD*%
G01*
G04 APERTURE LIST*
G04 Aperture macros list*
%AMFreePoly0*
4,1,22,0.550000,-0.750000,0.000000,-0.750000,0.000000,-0.745033,-0.079941,-0.743568,-0.215256,-0.701293,-0.333266,-0.622738,-0.424486,-0.514219,-0.481581,-0.384460,-0.499164,-0.250000,-0.500000,-0.250000,-0.500000,0.250000,-0.499164,0.250000,-0.499963,0.256109,-0.478152,0.396186,-0.417904,0.524511,-0.324060,0.630769,-0.204165,0.706417,-0.067858,0.745374,0.000000,0.744959,0.000000,0.750000,
0.550000,0.750000,0.550000,-0.750000,0.550000,-0.750000,$1*%
%AMFreePoly1*
4,1,20,0.000000,0.744959,0.073905,0.744508,0.209726,0.703889,0.328688,0.626782,0.421226,0.519385,0.479903,0.390333,0.500000,0.250000,0.500000,-0.250000,0.499851,-0.262216,0.476331,-0.402017,0.414519,-0.529596,0.319384,-0.634700,0.198574,-0.708877,0.061801,-0.746166,0.000000,-0.745033,0.000000,-0.750000,-0.550000,-0.750000,-0.550000,0.750000,0.000000,0.750000,0.000000,0.744959,
0.000000,0.744959,$1*%
G04 Aperture macros list end*
%ADD10C,0.300000*%
%TA.AperFunction,NonConductor*%
%ADD11C,0.300000*%
%TD*%
%TA.AperFunction,SMDPad,CuDef*%
%ADD12FreePoly0,0.000000*%
%TD*%
%TA.AperFunction,SMDPad,CuDef*%
%ADD13R,1.000000X1.500000*%
%TD*%
%TA.AperFunction,SMDPad,CuDef*%
%ADD14FreePoly1,0.000000*%
%TD*%
%TA.AperFunction,ComponentPad*%
%ADD15C,6.000000*%
%TD*%
%TA.AperFunction,ComponentPad*%
%ADD16R,1.700000X1.700000*%
%TD*%
%TA.AperFunction,ComponentPad*%
%ADD17O,1.700000X1.700000*%
%TD*%
%TA.AperFunction,ViaPad*%
%ADD18C,0.800000*%
%TD*%
%TA.AperFunction,Conductor*%
%ADD19C,0.500000*%
%TD*%
%TA.AperFunction,Conductor*%
%ADD20C,0.400000*%
%TD*%
G04 APERTURE END LIST*
D10*
D11*
X13148571Y-7467189D02*
X13148571Y-6610046D01*
X14648571Y-7038618D02*
X13148571Y-7038618D01*
X14648571Y-6110046D02*
X13148571Y-6110046D01*
X14648571Y-5467189D02*
X13862857Y-5467189D01*
X13720000Y-5538618D01*
X13648571Y-5681475D01*
X13648571Y-5895761D01*
X13720000Y-6038618D01*
X13791428Y-6110046D01*
X13648571Y-4110046D02*
X14648571Y-4110046D01*
X13648571Y-4752904D02*
X14434285Y-4752904D01*
X14577142Y-4681475D01*
X14648571Y-4538618D01*
X14648571Y-4324332D01*
X14577142Y-4181475D01*
X14505714Y-4110046D01*
X13648571Y-3395761D02*
X14648571Y-3395761D01*
X13791428Y-3395761D02*
X13720000Y-3324332D01*
X13648571Y-3181475D01*
X13648571Y-2967189D01*
X13720000Y-2824332D01*
X13862857Y-2752904D01*
X14648571Y-2752904D01*
X14648571Y-1395761D02*
X13148571Y-1395761D01*
X14577142Y-1395761D02*
X14648571Y-1538618D01*
X14648571Y-1824332D01*
X14577142Y-1967189D01*
X14505714Y-2038618D01*
X14362857Y-2110046D01*
X13934285Y-2110046D01*
X13791428Y-2038618D01*
X13720000Y-1967189D01*
X13648571Y-1824332D01*
X13648571Y-1538618D01*
X13720000Y-1395761D01*
X14577142Y-110046D02*
X14648571Y-252904D01*
X14648571Y-538618D01*
X14577142Y-681475D01*
X14434285Y-752904D01*
X13862857Y-752904D01*
X13720000Y-681475D01*
X13648571Y-538618D01*
X13648571Y-252904D01*
X13720000Y-110046D01*
X13862857Y-38618D01*
X14005714Y-38618D01*
X14148571Y-752904D01*
X14648571Y604239D02*
X13648571Y604239D01*
X13934285Y604239D02*
X13791428Y675668D01*
X13720000Y747096D01*
X13648571Y889954D01*
X13648571Y1032811D01*
X13862857Y2032811D02*
X13862857Y1532811D01*
X14648571Y1532811D02*
X13148571Y1532811D01*
X13148571Y2247096D01*
X14648571Y3032811D02*
X14577142Y2889954D01*
X14434285Y2818525D01*
X13148571Y2818525D01*
X13648571Y3461382D02*
X14648571Y3818525D01*
X13648571Y4175668D02*
X14648571Y3818525D01*
X15005714Y3675668D01*
X15077142Y3604239D01*
X15148571Y3461382D01*
X14505714Y4747096D02*
X14577142Y4818525D01*
X14648571Y4747096D01*
X14577142Y4675668D01*
X14505714Y4747096D01*
X14648571Y4747096D01*
X14577142Y6104239D02*
X14648571Y5961382D01*
X14648571Y5675668D01*
X14577142Y5532811D01*
X14505714Y5461382D01*
X14362857Y5389954D01*
X13934285Y5389954D01*
X13791428Y5461382D01*
X13720000Y5532811D01*
X13648571Y5675668D01*
X13648571Y5961382D01*
X13720000Y6104239D01*
X13648571Y6604239D02*
X13648571Y7389954D01*
X14648571Y6604239D01*
X14648571Y7389954D01*
%TO.C,JP1*%
G36*
X-9036000Y131096D02*
G01*
X-9536000Y131096D01*
X-9536000Y731096D01*
X-9036000Y731096D01*
X-9036000Y131096D01*
G37*
%TD*%
D12*
%TO.P,JP1,1,A*%
%TO.N,GND*%
X-9936000Y431096D03*
D13*
%TO.P,JP1,2,C*%
%TO.N,Net-(JP1-Pad2)*%
X-8636000Y431096D03*
D14*
%TO.P,JP1,3,B*%
%TO.N,+3V3*%
X-7336000Y431096D03*
%TD*%
D15*
%TO.P,M2,1*%
%TO.N,GND*%
X0Y0D03*
%TD*%
D16*
%TO.P,J1,1*%
%TO.N,/COUNT*%
X5715000Y-2540000D03*
D17*
%TO.P,J1,2*%
%TO.N,Net-(C2-Pad1)*%
X5715000Y0D03*
%TO.P,J1,3*%
%TO.N,GND*%
X5715000Y2540000D03*
%TD*%
D18*
%TO.N,GND*%
X-1270000Y8382000D03*
X10312000Y-6168904D03*
X-12192000Y3807096D03*
X-17272000Y-8382000D03*
X-12192000Y-8384904D03*
X-20320000Y3302000D03*
X-20320000Y-6350000D03*
X-20320000Y-3302000D03*
X-20320000Y-5334000D03*
X-20320000Y6350000D03*
X-20320000Y-4318000D03*
X-20320000Y5334000D03*
X-20320000Y4318000D03*
X-16256000Y8506096D03*
X6096000Y-4572000D03*
X11412000Y-5056904D03*
X11412000Y-6160904D03*
X11412000Y-3952904D03*
X11412000Y8268096D03*
X-2286000Y3807096D03*
X11412000Y-8368904D03*
X11412000Y-7264904D03*
X3812000Y3131096D03*
X3812000Y1431096D03*
X11412000Y7125096D03*
X-2540000Y-8384904D03*
X-17018000Y0D03*
X-400000Y3700000D03*
X2286000Y-8382000D03*
X-11176000Y1270000D03*
X-12700000Y-510904D03*
X-2286000Y-5588000D03*
X10312000Y-5068904D03*
X-7900000Y-5600000D03*
X-5942000Y-3624904D03*
X-4188000Y-1368904D03*
X-12700000Y1267096D03*
X-4188000Y331096D03*
X3008000Y-2374904D03*
X-8636000Y2794000D03*
X11412000Y5096000D03*
X11412000Y6112000D03*
X5842000Y4318000D03*
X-7620000Y-8384904D03*
X-17018000Y-1270000D03*
X-12522200Y8506096D03*
X3810000Y-3302000D03*
X-18642000Y6975096D03*
X-17018000Y1270000D03*
X-17526000Y8506096D03*
X-3556000Y-3048000D03*
X-5080000Y-7100000D03*
%TO.N,+3V3*%
X-7366000Y2540000D03*
X3048000Y-5588000D03*
%TO.N,+5V*%
X-14224000Y254000D03*
X-12792000Y6325096D03*
X-13716000Y-5842000D03*
X3100000Y7600000D03*
X-3403600Y6705600D03*
%TO.N,/SDA*%
X-15100000Y-2600000D03*
X-18542000Y5842000D03*
X-11688000Y2481096D03*
%TO.N,Net-(JP1-Pad2)*%
X-8636000Y-968904D03*
%TD*%
D19*
%TO.N,+3V3*%
X-7336000Y0D02*
X-7336000Y2510000D01*
X-7336000Y-792000D02*
X-7336000Y0D01*
X3048000Y-5588000D02*
X2032000Y-4572000D01*
X-7336000Y2510000D02*
X-7366000Y2540000D01*
X2032000Y-4572000D02*
X-3556000Y-4572000D01*
X-3556000Y-4572000D02*
X-7336000Y-792000D01*
%TO.N,+5V*%
X-12792000Y6325096D02*
X-12687000Y6220096D01*
X-13628489Y-341511D02*
X-14224000Y254000D01*
X-12687000Y6220096D02*
X-3889104Y6220096D01*
X-13716000Y-5842000D02*
X-13628489Y-5754489D01*
D20*
X752504Y6705600D02*
X2205600Y6705600D01*
X2205600Y6705600D02*
X3100000Y7600000D01*
D19*
X752504Y6705600D02*
X-3403600Y6705600D01*
X-3889104Y6220096D02*
X-3403600Y6705600D01*
X-13628489Y-5754489D02*
X-13628489Y-341511D01*
%TO.N,/SDA*%
X-15494000Y2794000D02*
X-18542000Y5842000D01*
X-15494000Y-2206000D02*
X-15100000Y-2600000D01*
X-15494000Y2794000D02*
X-15494000Y-2206000D01*
D20*
X-11688000Y2481096D02*
X-15348000Y2481096D01*
%TO.N,Net-(JP1-Pad2)*%
X-8636000Y-968904D02*
X-8636000Y431096D01*
%TD*%
%TA.AperFunction,Conductor*%
%TO.N,GND*%
G36*
X15383066Y9007187D02*
G01*
X15408376Y8963350D01*
X15409500Y8950500D01*
X15409500Y8028739D01*
X15392187Y7981173D01*
X15348350Y7955863D01*
X15335500Y7954739D01*
X12337000Y7954739D01*
X12337000Y-7960547D01*
X15335500Y-7960547D01*
X15383066Y-7977860D01*
X15408376Y-8021697D01*
X15409500Y-8034547D01*
X15409500Y-8900500D01*
X15392187Y-8948066D01*
X15348350Y-8973376D01*
X15335500Y-8974500D01*
X-21015500Y-8974500D01*
X-21063066Y-8957187D01*
X-21088376Y-8913350D01*
X-21089500Y-8900500D01*
X-21089500Y-7699996D01*
X-11605647Y-7699996D01*
X-11605241Y-7702828D01*
X-11605241Y-7702834D01*
X-11602518Y-7721848D01*
X-11602053Y-7725881D01*
X-11589061Y-7874395D01*
X-11543752Y-8043495D01*
X-11469768Y-8202158D01*
X-11369355Y-8345564D01*
X-11245566Y-8469354D01*
X-11102161Y-8569768D01*
X-11099239Y-8571131D01*
X-11099233Y-8571134D01*
X-10967953Y-8632351D01*
X-10943499Y-8643754D01*
X-10774399Y-8689064D01*
X-10771178Y-8689346D01*
X-10771177Y-8689346D01*
X-10643206Y-8700542D01*
X-10637379Y-8701286D01*
X-10615178Y-8705021D01*
X-10615176Y-8705021D01*
X-10612354Y-8705496D01*
X-10609492Y-8705531D01*
X-10607001Y-8705561D01*
X-10600000Y-8705647D01*
X-10569276Y-8701247D01*
X-10558785Y-8700500D01*
X-9448228Y-8700500D01*
X-9435950Y-8701526D01*
X-9412354Y-8705496D01*
X-9409491Y-8705531D01*
X-9407817Y-8705551D01*
X-9400000Y-8705647D01*
X-9397174Y-8705242D01*
X-9397169Y-8705242D01*
X-9378294Y-8702539D01*
X-9374255Y-8702074D01*
X-9304377Y-8695960D01*
X-9225600Y-8689068D01*
X-9056500Y-8643757D01*
X-9011221Y-8622643D01*
X-8900765Y-8571137D01*
X-8900759Y-8571134D01*
X-8897837Y-8569771D01*
X-8754432Y-8469357D01*
X-8630642Y-8345566D01*
X-8530229Y-8202160D01*
X-8456244Y-8043496D01*
X-8410935Y-7874396D01*
X-8399458Y-7743210D01*
X-8398715Y-7737383D01*
X-8394979Y-7715171D01*
X-8394504Y-7712350D01*
X-8394353Y-7699996D01*
X-1605647Y-7699996D01*
X-1605241Y-7702828D01*
X-1605241Y-7702834D01*
X-1602518Y-7721848D01*
X-1602053Y-7725881D01*
X-1589061Y-7874395D01*
X-1543752Y-8043495D01*
X-1469768Y-8202158D01*
X-1369355Y-8345564D01*
X-1245566Y-8469354D01*
X-1102161Y-8569768D01*
X-1099239Y-8571131D01*
X-1099233Y-8571134D01*
X-967953Y-8632351D01*
X-943499Y-8643754D01*
X-774399Y-8689064D01*
X-771178Y-8689346D01*
X-771177Y-8689346D01*
X-643206Y-8700542D01*
X-637379Y-8701286D01*
X-615178Y-8705021D01*
X-615176Y-8705021D01*
X-612354Y-8705496D01*
X-609492Y-8705531D01*
X-607001Y-8705561D01*
X-600000Y-8705647D01*
X-569276Y-8701247D01*
X-558785Y-8700500D01*
X551772Y-8700500D01*
X564050Y-8701526D01*
X587646Y-8705496D01*
X590509Y-8705531D01*
X592183Y-8705551D01*
X600000Y-8705647D01*
X602826Y-8705242D01*
X602831Y-8705242D01*
X621706Y-8702539D01*
X625745Y-8702074D01*
X695623Y-8695960D01*
X774400Y-8689068D01*
X943500Y-8643757D01*
X988779Y-8622643D01*
X1099235Y-8571137D01*
X1099241Y-8571134D01*
X1102163Y-8569771D01*
X1245568Y-8469357D01*
X1369358Y-8345566D01*
X1469771Y-8202160D01*
X1543756Y-8043496D01*
X1589065Y-7874396D01*
X1600542Y-7743210D01*
X1601285Y-7737383D01*
X1605021Y-7715171D01*
X1605496Y-7712350D01*
X1605647Y-7699996D01*
X1601247Y-7669273D01*
X1600500Y-7658782D01*
X1600500Y-6348225D01*
X1601524Y-6335959D01*
X1605496Y-6312350D01*
X1605647Y-6299996D01*
X1605242Y-6297165D01*
X1602539Y-6278290D01*
X1602074Y-6274251D01*
X1591087Y-6148689D01*
X1589067Y-6125598D01*
X1543756Y-5956498D01*
X1492606Y-5846808D01*
X1471135Y-5800765D01*
X1471134Y-5800764D01*
X1469769Y-5797836D01*
X1369355Y-5654432D01*
X1245566Y-5530643D01*
X1102161Y-5430231D01*
X943498Y-5356246D01*
X774399Y-5310936D01*
X771178Y-5310654D01*
X771177Y-5310654D01*
X643206Y-5299458D01*
X637379Y-5298714D01*
X615178Y-5294979D01*
X615176Y-5294979D01*
X612354Y-5294504D01*
X609492Y-5294469D01*
X607001Y-5294439D01*
X600000Y-5294353D01*
X578151Y-5297482D01*
X569276Y-5298753D01*
X558785Y-5299500D01*
X-551772Y-5299500D01*
X-564049Y-5298474D01*
X-584823Y-5294979D01*
X-584822Y-5294979D01*
X-587646Y-5294504D01*
X-590509Y-5294469D01*
X-591629Y-5294455D01*
X-600000Y-5294353D01*
X-602832Y-5294759D01*
X-602838Y-5294759D01*
X-621852Y-5297482D01*
X-625889Y-5297947D01*
X-774398Y-5310940D01*
X-943497Y-5356249D01*
X-946417Y-5357611D01*
X-946418Y-5357611D01*
X-1099237Y-5428871D01*
X-1099241Y-5428873D01*
X-1102159Y-5430234D01*
X-1104804Y-5432086D01*
X-1242913Y-5528790D01*
X-1242916Y-5528793D01*
X-1245563Y-5530646D01*
X-1369352Y-5654435D01*
X-1429236Y-5739957D01*
X-1467910Y-5795188D01*
X-1469766Y-5797838D01*
X-1471129Y-5800760D01*
X-1471132Y-5800766D01*
X-1514929Y-5894689D01*
X-1543752Y-5956500D01*
X-1589063Y-6125598D01*
X-1591083Y-6148689D01*
X-1600542Y-6256790D01*
X-1601286Y-6262617D01*
X-1603243Y-6274251D01*
X-1605496Y-6287642D01*
X-1605647Y-6299996D01*
X-1605242Y-6302824D01*
X-1601247Y-6330722D01*
X-1600500Y-6341212D01*
X-1600500Y-7651768D01*
X-1601526Y-7664046D01*
X-1605496Y-7687642D01*
X-1605647Y-7699996D01*
X-8394353Y-7699996D01*
X-8398753Y-7669273D01*
X-8399500Y-7658782D01*
X-8399500Y-6348225D01*
X-8398476Y-6335959D01*
X-8394504Y-6312350D01*
X-8394353Y-6299996D01*
X-8394758Y-6297165D01*
X-8397461Y-6278290D01*
X-8397926Y-6274251D01*
X-8408913Y-6148689D01*
X-8410933Y-6125598D01*
X-8456244Y-5956498D01*
X-8507394Y-5846808D01*
X-8528865Y-5800765D01*
X-8528866Y-5800764D01*
X-8530231Y-5797836D01*
X-8630645Y-5654432D01*
X-8754434Y-5530643D01*
X-8897839Y-5430231D01*
X-9056502Y-5356246D01*
X-9225601Y-5310936D01*
X-9228822Y-5310654D01*
X-9228823Y-5310654D01*
X-9356794Y-5299458D01*
X-9362621Y-5298714D01*
X-9384822Y-5294979D01*
X-9384824Y-5294979D01*
X-9387646Y-5294504D01*
X-9390508Y-5294469D01*
X-9392999Y-5294439D01*
X-9400000Y-5294353D01*
X-9421849Y-5297482D01*
X-9430724Y-5298753D01*
X-9441215Y-5299500D01*
X-10551772Y-5299500D01*
X-10564049Y-5298474D01*
X-10584823Y-5294979D01*
X-10584822Y-5294979D01*
X-10587646Y-5294504D01*
X-10590509Y-5294469D01*
X-10591629Y-5294455D01*
X-10600000Y-5294353D01*
X-10602832Y-5294759D01*
X-10602838Y-5294759D01*
X-10621852Y-5297482D01*
X-10625889Y-5297947D01*
X-10774398Y-5310940D01*
X-10943497Y-5356249D01*
X-10946417Y-5357611D01*
X-10946418Y-5357611D01*
X-11099237Y-5428871D01*
X-11099241Y-5428873D01*
X-11102159Y-5430234D01*
X-11104804Y-5432086D01*
X-11242913Y-5528790D01*
X-11242916Y-5528793D01*
X-11245563Y-5530646D01*
X-11369352Y-5654435D01*
X-11429236Y-5739957D01*
X-11467910Y-5795188D01*
X-11469766Y-5797838D01*
X-11471129Y-5800760D01*
X-11471132Y-5800766D01*
X-11514929Y-5894689D01*
X-11543752Y-5956500D01*
X-11589063Y-6125598D01*
X-11591083Y-6148689D01*
X-11600542Y-6256790D01*
X-11601286Y-6262617D01*
X-11603243Y-6274251D01*
X-11605496Y-6287642D01*
X-11605647Y-6299996D01*
X-11605242Y-6302824D01*
X-11601247Y-6330722D01*
X-11600500Y-6341212D01*
X-11600500Y-7651768D01*
X-11601526Y-7664046D01*
X-11605496Y-7687642D01*
X-11605647Y-7699996D01*
X-21089500Y-7699996D01*
X-21089500Y5842000D01*
X-19147682Y5842000D01*
X-19147049Y5837192D01*
X-19131543Y5719414D01*
X-19127044Y5685238D01*
X-19066536Y5539159D01*
X-19063586Y5535315D01*
X-19063584Y5535311D01*
X-18973237Y5417569D01*
X-18970282Y5413718D01*
X-18966431Y5410763D01*
X-18848689Y5320416D01*
X-18848685Y5320414D01*
X-18844841Y5317464D01*
X-18698762Y5256956D01*
X-18693960Y5256324D01*
X-18693957Y5256323D01*
X-18636891Y5248811D01*
X-18603089Y5244361D01*
X-18560423Y5223320D01*
X-15966174Y2629071D01*
X-15944782Y2583195D01*
X-15944500Y2576745D01*
X-15944500Y-2174849D01*
X-15945013Y-2183546D01*
X-15949364Y-2220310D01*
X-15948370Y-2225752D01*
X-15948370Y-2225755D01*
X-15938682Y-2278800D01*
X-15938300Y-2281093D01*
X-15935211Y-2301638D01*
X-15929449Y-2339962D01*
X-15927126Y-2344798D01*
X-15927044Y-2345136D01*
X-15926953Y-2345400D01*
X-15926227Y-2347637D01*
X-15926132Y-2347946D01*
X-15925988Y-2348296D01*
X-15925025Y-2353573D01*
X-15922475Y-2358482D01*
X-15897618Y-2406334D01*
X-15896579Y-2408413D01*
X-15879856Y-2443238D01*
X-15870809Y-2462079D01*
X-15867163Y-2466023D01*
X-15866621Y-2466931D01*
X-15864525Y-2470042D01*
X-15862579Y-2473788D01*
X-15858275Y-2478828D01*
X-15820305Y-2516798D01*
X-15818291Y-2518893D01*
X-15778854Y-2561556D01*
X-15774072Y-2564334D01*
X-15770705Y-2567031D01*
X-15764646Y-2572457D01*
X-15718680Y-2618423D01*
X-15697639Y-2661089D01*
X-15685044Y-2756762D01*
X-15624536Y-2902841D01*
X-15621586Y-2906685D01*
X-15621584Y-2906689D01*
X-15531237Y-3024431D01*
X-15528282Y-3028282D01*
X-15524431Y-3031237D01*
X-15406689Y-3121584D01*
X-15406685Y-3121586D01*
X-15402841Y-3124536D01*
X-15256762Y-3185044D01*
X-15251960Y-3185676D01*
X-15251957Y-3185677D01*
X-15104808Y-3205049D01*
X-15100000Y-3205682D01*
X-15095192Y-3205049D01*
X-14948043Y-3185677D01*
X-14948040Y-3185676D01*
X-14943238Y-3185044D01*
X-14797159Y-3124536D01*
X-14793315Y-3121586D01*
X-14793311Y-3121584D01*
X-14675569Y-3031237D01*
X-14671718Y-3028282D01*
X-14668763Y-3024431D01*
X-14578416Y-2906689D01*
X-14578414Y-2906685D01*
X-14575464Y-2902841D01*
X-14514956Y-2756762D01*
X-14502360Y-2661090D01*
X-14494951Y-2604808D01*
X-14494318Y-2600000D01*
X-14505137Y-2517822D01*
X-14514323Y-2448043D01*
X-14514324Y-2448040D01*
X-14514956Y-2443238D01*
X-14575464Y-2297159D01*
X-14578414Y-2293315D01*
X-14578416Y-2293311D01*
X-14668763Y-2175569D01*
X-14671718Y-2171718D01*
X-14675569Y-2168763D01*
X-14793311Y-2078416D01*
X-14793315Y-2078414D01*
X-14797159Y-2075464D01*
X-14943238Y-2014956D01*
X-14948040Y-2014324D01*
X-14948043Y-2014323D01*
X-14969402Y-2011511D01*
X-14979159Y-2010227D01*
X-15024058Y-1986854D01*
X-15043500Y-1936860D01*
X-15043500Y254000D01*
X-14829682Y254000D01*
X-14829049Y249192D01*
X-14813808Y133428D01*
X-14809044Y97238D01*
X-14748536Y-48841D01*
X-14745586Y-52685D01*
X-14745584Y-52689D01*
X-14655237Y-170431D01*
X-14652282Y-174282D01*
X-14648431Y-177237D01*
X-14530689Y-267584D01*
X-14530685Y-267586D01*
X-14526841Y-270536D01*
X-14380762Y-331044D01*
X-14375960Y-331676D01*
X-14375957Y-331677D01*
X-14322973Y-338652D01*
X-14285089Y-343639D01*
X-14242423Y-364680D01*
X-14100663Y-506440D01*
X-14079271Y-552316D01*
X-14078989Y-558766D01*
X-14078989Y-5327125D01*
X-14096302Y-5374691D01*
X-14107939Y-5385831D01*
X-14144282Y-5413718D01*
X-14147237Y-5417569D01*
X-14237584Y-5535311D01*
X-14237586Y-5535315D01*
X-14240536Y-5539159D01*
X-14301044Y-5685238D01*
X-14301676Y-5690040D01*
X-14301677Y-5690043D01*
X-14320235Y-5831005D01*
X-14321682Y-5842000D01*
X-14321049Y-5846808D01*
X-14306196Y-5959626D01*
X-14301044Y-5998762D01*
X-14240536Y-6144841D01*
X-14237586Y-6148685D01*
X-14237584Y-6148689D01*
X-14154635Y-6256790D01*
X-14144282Y-6270282D01*
X-14140431Y-6273237D01*
X-14022689Y-6363584D01*
X-14022685Y-6363586D01*
X-14018841Y-6366536D01*
X-13872762Y-6427044D01*
X-13867960Y-6427676D01*
X-13867957Y-6427677D01*
X-13720808Y-6447049D01*
X-13716000Y-6447682D01*
X-13711192Y-6447049D01*
X-13564043Y-6427677D01*
X-13564040Y-6427676D01*
X-13559238Y-6427044D01*
X-13413159Y-6366536D01*
X-13409315Y-6363586D01*
X-13409311Y-6363584D01*
X-13291569Y-6273237D01*
X-13287718Y-6270282D01*
X-13277365Y-6256790D01*
X-13194416Y-6148689D01*
X-13194414Y-6148685D01*
X-13191464Y-6144841D01*
X-13130956Y-5998762D01*
X-13125803Y-5959626D01*
X-13110951Y-5846808D01*
X-13110318Y-5842000D01*
X-13111765Y-5831005D01*
X-13130323Y-5690043D01*
X-13130324Y-5690040D01*
X-13130956Y-5685238D01*
X-13142617Y-5657085D01*
X-13172356Y-5585288D01*
X-13177989Y-5556970D01*
X-13177989Y-372662D01*
X-13177476Y-363965D01*
X-13174480Y-338652D01*
X-13173125Y-327201D01*
X-13174118Y-321762D01*
X-13183808Y-268702D01*
X-13184189Y-266411D01*
X-13192217Y-213020D01*
X-13192218Y-213017D01*
X-13193040Y-207549D01*
X-13195363Y-202710D01*
X-13195451Y-202353D01*
X-13195547Y-202071D01*
X-13196265Y-199861D01*
X-13196355Y-199568D01*
X-13196499Y-199217D01*
X-13197463Y-193938D01*
X-13224913Y-141093D01*
X-13225894Y-139131D01*
X-13251680Y-85432D01*
X-13255324Y-81491D01*
X-13255863Y-80588D01*
X-13257961Y-77474D01*
X-13259909Y-73723D01*
X-13262648Y-70516D01*
X-13262651Y-70512D01*
X-13263279Y-69778D01*
X-13264214Y-68683D01*
X-13302184Y-30713D01*
X-13304198Y-28618D01*
X-13339882Y9985D01*
X-13343635Y14045D01*
X-13348417Y16823D01*
X-13351784Y19520D01*
X-13357843Y24946D01*
X-13418430Y85533D01*
X-9736545Y85533D01*
X-9730073Y72055D01*
X-9724639Y56494D01*
X-9721312Y41911D01*
X-9716118Y35393D01*
X-9712148Y30411D01*
X-9703315Y16331D01*
X-9696948Y3072D01*
X-9690445Y-2129D01*
X-9690443Y-2131D01*
X-9685273Y-6265D01*
X-9673619Y-17940D01*
X-9664305Y-29628D01*
X-9651062Y-36015D01*
X-9636994Y-44874D01*
X-9625508Y-54060D01*
X-9610931Y-57412D01*
X-9595373Y-62877D01*
X-9581913Y-69369D01*
X-9558959Y-69389D01*
X-9558844Y-69389D01*
X-9558781Y-69404D01*
X-9541892Y-69404D01*
X-9490704Y-69449D01*
X-9490437Y-69449D01*
X-9490355Y-69410D01*
X-9490303Y-69404D01*
X-9410500Y-69404D01*
X-9362934Y-86717D01*
X-9337624Y-130554D01*
X-9336500Y-143404D01*
X-9336500Y-338652D01*
X-9324867Y-397135D01*
X-9280552Y-463456D01*
X-9274491Y-467506D01*
X-9222682Y-502124D01*
X-9214231Y-507771D01*
X-9207081Y-509193D01*
X-9207079Y-509194D01*
X-9178984Y-514782D01*
X-9135709Y-541041D01*
X-9119438Y-588974D01*
X-9134712Y-632408D01*
X-9157584Y-662215D01*
X-9157586Y-662219D01*
X-9160536Y-666063D01*
X-9221044Y-812142D01*
X-9221676Y-816944D01*
X-9221677Y-816947D01*
X-9231166Y-889028D01*
X-9241682Y-968904D01*
X-9241049Y-973712D01*
X-9228917Y-1065862D01*
X-9221044Y-1125666D01*
X-9160536Y-1271745D01*
X-9157586Y-1275589D01*
X-9157584Y-1275593D01*
X-9067237Y-1393335D01*
X-9064282Y-1397186D01*
X-9060431Y-1400141D01*
X-8942689Y-1490488D01*
X-8942685Y-1490490D01*
X-8938841Y-1493440D01*
X-8792762Y-1553948D01*
X-8787960Y-1554580D01*
X-8787957Y-1554581D01*
X-8640808Y-1573953D01*
X-8636000Y-1574586D01*
X-8631192Y-1573953D01*
X-8484043Y-1554581D01*
X-8484040Y-1554580D01*
X-8479238Y-1553948D01*
X-8333159Y-1493440D01*
X-8329315Y-1490490D01*
X-8329311Y-1490488D01*
X-8211569Y-1400141D01*
X-8207718Y-1397186D01*
X-8204763Y-1393335D01*
X-8114416Y-1275593D01*
X-8114414Y-1275589D01*
X-8111464Y-1271745D01*
X-8050956Y-1125666D01*
X-8043082Y-1065862D01*
X-8030951Y-973712D01*
X-8030318Y-968904D01*
X-8040834Y-889028D01*
X-8050323Y-816947D01*
X-8050324Y-816944D01*
X-8050956Y-812142D01*
X-8111464Y-666063D01*
X-8114414Y-662219D01*
X-8114416Y-662215D01*
X-8137288Y-632408D01*
X-8152510Y-584132D01*
X-8133138Y-537366D01*
X-8093016Y-514782D01*
X-8064921Y-509194D01*
X-8064919Y-509193D01*
X-8057769Y-507771D01*
X-8051706Y-503720D01*
X-8044976Y-500932D01*
X-8044482Y-502124D01*
X-8002942Y-491960D01*
X-7977190Y-501333D01*
X-7977024Y-500932D01*
X-7970294Y-503720D01*
X-7964231Y-507771D01*
X-7903998Y-519752D01*
X-7889570Y-522622D01*
X-7889569Y-522622D01*
X-7886000Y-523332D01*
X-7860500Y-523332D01*
X-7812934Y-540645D01*
X-7787624Y-584482D01*
X-7786500Y-597332D01*
X-7786500Y-760849D01*
X-7787013Y-769546D01*
X-7791364Y-806310D01*
X-7790370Y-811752D01*
X-7790370Y-811755D01*
X-7780682Y-864800D01*
X-7780300Y-867093D01*
X-7777002Y-889028D01*
X-7771449Y-925962D01*
X-7769126Y-930798D01*
X-7769044Y-931136D01*
X-7768953Y-931400D01*
X-7768227Y-933637D01*
X-7768132Y-933946D01*
X-7767988Y-934296D01*
X-7767025Y-939573D01*
X-7753540Y-965532D01*
X-7739618Y-992334D01*
X-7738583Y-994405D01*
X-7712809Y-1048079D01*
X-7709163Y-1052023D01*
X-7708621Y-1052931D01*
X-7706525Y-1056042D01*
X-7704579Y-1059788D01*
X-7700275Y-1064828D01*
X-7662305Y-1102798D01*
X-7660291Y-1104893D01*
X-7620854Y-1147556D01*
X-7616072Y-1150334D01*
X-7612705Y-1153031D01*
X-7606646Y-1158457D01*
X-3896577Y-4868526D01*
X-3890790Y-4875039D01*
X-3867872Y-4904110D01*
X-3863323Y-4907254D01*
X-3863322Y-4907255D01*
X-3818944Y-4937926D01*
X-3817052Y-4939278D01*
X-3773634Y-4971348D01*
X-3773630Y-4971350D01*
X-3769184Y-4974634D01*
X-3764118Y-4976412D01*
X-3763815Y-4976597D01*
X-3763555Y-4976724D01*
X-3761494Y-4977774D01*
X-3761189Y-4977936D01*
X-3760845Y-4978080D01*
X-3756431Y-4981131D01*
X-3716076Y-4993894D01*
X-3699732Y-4999063D01*
X-3697529Y-4999798D01*
X-3646592Y-5017685D01*
X-3641369Y-5019519D01*
X-3636006Y-5019729D01*
X-3634987Y-5019987D01*
X-3631297Y-5020706D01*
X-3627270Y-5021980D01*
X-3620663Y-5022500D01*
X-3566961Y-5022500D01*
X-3564055Y-5022557D01*
X-3511534Y-5024621D01*
X-3511533Y-5024621D01*
X-3506006Y-5024838D01*
X-3500659Y-5023420D01*
X-3496374Y-5022947D01*
X-3488253Y-5022500D01*
X1814745Y-5022500D01*
X1862311Y-5039813D01*
X1867071Y-5044174D01*
X2429320Y-5606423D01*
X2450361Y-5649089D01*
X2462956Y-5744762D01*
X2523464Y-5890841D01*
X2526414Y-5894685D01*
X2526416Y-5894689D01*
X2616763Y-6012431D01*
X2619718Y-6016282D01*
X2623569Y-6019237D01*
X2741311Y-6109584D01*
X2741315Y-6109586D01*
X2745159Y-6112536D01*
X2891238Y-6173044D01*
X2896040Y-6173676D01*
X2896043Y-6173677D01*
X3043192Y-6193049D01*
X3048000Y-6193682D01*
X3052808Y-6193049D01*
X3199957Y-6173677D01*
X3199960Y-6173676D01*
X3204762Y-6173044D01*
X3350841Y-6112536D01*
X3354685Y-6109586D01*
X3354689Y-6109584D01*
X3472431Y-6019237D01*
X3476282Y-6016282D01*
X3479237Y-6012431D01*
X3569584Y-5894689D01*
X3569586Y-5894685D01*
X3572536Y-5890841D01*
X3633044Y-5744762D01*
X3640881Y-5685238D01*
X3653049Y-5592808D01*
X3653682Y-5588000D01*
X3647252Y-5539159D01*
X3633677Y-5436043D01*
X3633676Y-5436040D01*
X3633044Y-5431238D01*
X3572536Y-5285159D01*
X3569586Y-5281315D01*
X3569584Y-5281311D01*
X3479237Y-5163569D01*
X3476282Y-5159718D01*
X3472431Y-5156763D01*
X3354689Y-5066416D01*
X3354685Y-5066414D01*
X3350841Y-5063464D01*
X3204762Y-5002956D01*
X3199960Y-5002324D01*
X3199957Y-5002323D01*
X3142891Y-4994811D01*
X3109089Y-4990361D01*
X3066423Y-4969320D01*
X2372577Y-4275474D01*
X2366790Y-4268961D01*
X2347297Y-4244234D01*
X2347295Y-4244232D01*
X2343872Y-4239890D01*
X2294944Y-4206074D01*
X2293052Y-4204722D01*
X2249634Y-4172652D01*
X2249630Y-4172650D01*
X2245184Y-4169366D01*
X2240118Y-4167588D01*
X2239815Y-4167403D01*
X2239555Y-4167276D01*
X2237494Y-4166226D01*
X2237189Y-4166064D01*
X2236845Y-4165920D01*
X2232431Y-4162869D01*
X2175732Y-4144937D01*
X2173529Y-4144202D01*
X2122592Y-4126315D01*
X2122591Y-4126315D01*
X2117369Y-4124481D01*
X2112006Y-4124271D01*
X2110987Y-4124013D01*
X2107297Y-4123294D01*
X2103270Y-4122020D01*
X2096663Y-4121500D01*
X2042961Y-4121500D01*
X2040055Y-4121443D01*
X1987530Y-4119379D01*
X1982006Y-4119162D01*
X1976664Y-4120578D01*
X1972364Y-4121053D01*
X1964246Y-4121500D01*
X-3338745Y-4121500D01*
X-3386311Y-4104187D01*
X-3391071Y-4099826D01*
X-4081149Y-3409748D01*
X4664500Y-3409748D01*
X4676133Y-3468231D01*
X4720448Y-3534552D01*
X4786769Y-3578867D01*
X4831295Y-3587724D01*
X4841682Y-3589790D01*
X4841683Y-3589790D01*
X4845252Y-3590500D01*
X6584748Y-3590500D01*
X6588317Y-3589790D01*
X6588318Y-3589790D01*
X6598705Y-3587724D01*
X6643231Y-3578867D01*
X6709552Y-3534552D01*
X6753867Y-3468231D01*
X6765500Y-3409748D01*
X6765500Y-1670252D01*
X6753867Y-1611769D01*
X6709552Y-1545448D01*
X6643231Y-1501133D01*
X6598705Y-1492276D01*
X6588318Y-1490210D01*
X6588317Y-1490210D01*
X6584748Y-1489500D01*
X4845252Y-1489500D01*
X4841683Y-1490210D01*
X4841682Y-1490210D01*
X4831295Y-1492276D01*
X4786769Y-1501133D01*
X4720448Y-1545448D01*
X4676133Y-1611769D01*
X4664500Y-1670252D01*
X4664500Y-3409748D01*
X-4081149Y-3409748D01*
X-6863826Y-627071D01*
X-6885218Y-581195D01*
X-6885500Y-574745D01*
X-6885500Y-398805D01*
X-6868187Y-351239D01*
X-6863287Y-346005D01*
X-6861772Y-344747D01*
X-6849368Y-331044D01*
X-6767423Y-240513D01*
X-6767423Y-240512D01*
X-6765658Y-238563D01*
X-6733245Y-190509D01*
X-6670798Y-61617D01*
X-6653176Y-6400D01*
X-6629414Y134838D01*
X-6626596Y166253D01*
X-6626445Y178595D01*
X-6628495Y210077D01*
X-6630825Y226347D01*
X-6631572Y236837D01*
X-6631572Y615832D01*
X-6630548Y628099D01*
X-6629414Y634838D01*
X-6626596Y666253D01*
X-6626445Y678595D01*
X-6626877Y685237D01*
X-6628403Y708663D01*
X-6628495Y710077D01*
X-6643161Y812486D01*
X-6648426Y849252D01*
X-6648427Y849257D01*
X-6648799Y851854D01*
X-6665067Y907486D01*
X-6724347Y1037865D01*
X-6755574Y1086694D01*
X-6782504Y1117948D01*
X-6847348Y1193204D01*
X-6847351Y1193207D01*
X-6849064Y1195195D01*
X-6851367Y1197204D01*
X-6860144Y1204861D01*
X-6884609Y1249176D01*
X-6885500Y1260626D01*
X-6885500Y2154651D01*
X-6870208Y2199699D01*
X-6844416Y2233311D01*
X-6844414Y2233315D01*
X-6841464Y2237159D01*
X-6823787Y2279834D01*
X4381703Y2279834D01*
X4381727Y2278827D01*
X4414033Y2135477D01*
X4415845Y2129695D01*
X4497569Y1928429D01*
X4500304Y1923016D01*
X4613802Y1737803D01*
X4617383Y1732910D01*
X4759614Y1568715D01*
X4763934Y1564484D01*
X4931079Y1425718D01*
X4936038Y1422245D01*
X5123591Y1312648D01*
X5129056Y1310030D01*
X5331987Y1232538D01*
X5337819Y1230844D01*
X5550680Y1187537D01*
X5553619Y1187187D01*
X5598801Y1164364D01*
X5618742Y1117838D01*
X5604111Y1069380D01*
X5561755Y1041663D01*
X5551564Y1040013D01*
X5517203Y1036886D01*
X5468247Y1022478D01*
X5323043Y979742D01*
X5323039Y979740D01*
X5319572Y978720D01*
X5229433Y931596D01*
X5140209Y884951D01*
X5140206Y884949D01*
X5137002Y883274D01*
X5134184Y881008D01*
X5134182Y881007D01*
X4979266Y756452D01*
X4979263Y756449D01*
X4976447Y754185D01*
X4974121Y751413D01*
X4974119Y751411D01*
X4846351Y599144D01*
X4846348Y599140D01*
X4844024Y596370D01*
X4744776Y415838D01*
X4743682Y412389D01*
X4686321Y231563D01*
X4682484Y219468D01*
X4682081Y215877D01*
X4682081Y215876D01*
X4680461Y201430D01*
X4659520Y14738D01*
X4659823Y11129D01*
X4659823Y11127D01*
X4672800Y-143404D01*
X4676759Y-190553D01*
X4733544Y-388586D01*
X4735196Y-391800D01*
X4735197Y-391803D01*
X4811691Y-540645D01*
X4827712Y-571818D01*
X4955677Y-733270D01*
X4958430Y-735613D01*
X4958433Y-735616D01*
X4988082Y-760849D01*
X5112564Y-866791D01*
X5159266Y-892892D01*
X5289239Y-965532D01*
X5289243Y-965534D01*
X5292398Y-967297D01*
X5295834Y-968414D01*
X5295840Y-968416D01*
X5372642Y-993370D01*
X5488329Y-1030959D01*
X5552176Y-1038572D01*
X5689294Y-1054922D01*
X5689297Y-1054922D01*
X5692894Y-1055351D01*
X5787403Y-1048079D01*
X5894689Y-1039824D01*
X5894691Y-1039824D01*
X5898300Y-1039546D01*
X6096725Y-984145D01*
X6127863Y-968416D01*
X6277376Y-892892D01*
X6277379Y-892890D01*
X6280610Y-891258D01*
X6442951Y-764424D01*
X6577564Y-608472D01*
X6579347Y-605333D01*
X6579350Y-605329D01*
X6637978Y-502124D01*
X6679323Y-429344D01*
X6691812Y-391803D01*
X6743208Y-237299D01*
X6744351Y-233863D01*
X6747676Y-207549D01*
X6769913Y-31519D01*
X6769913Y-31513D01*
X6770171Y-29474D01*
X6770583Y0D01*
X6765678Y50033D01*
X6750833Y201430D01*
X6750480Y205030D01*
X6690935Y402251D01*
X6594218Y584151D01*
X6464011Y743800D01*
X6333396Y851854D01*
X6308070Y872806D01*
X6308069Y872807D01*
X6305275Y875118D01*
X6295564Y880369D01*
X6127238Y971382D01*
X6124055Y973103D01*
X6120605Y974171D01*
X6120600Y974173D01*
X5995996Y1012744D01*
X5927254Y1034023D01*
X5887929Y1038156D01*
X5855262Y1041590D01*
X5809766Y1063781D01*
X5789177Y1110023D01*
X5803130Y1158681D01*
X5845095Y1186987D01*
X5853595Y1188585D01*
X5995303Y1206737D01*
X6001214Y1207994D01*
X6209296Y1270421D01*
X6214925Y1272628D01*
X6410010Y1368199D01*
X6415208Y1371298D01*
X6592073Y1497453D01*
X6596680Y1501346D01*
X6750560Y1654691D01*
X6754489Y1659308D01*
X6881250Y1835715D01*
X6884367Y1840903D01*
X6980616Y2035646D01*
X6982849Y2041286D01*
X7045996Y2249127D01*
X7047277Y2255052D01*
X7049648Y2273063D01*
X7047346Y2283449D01*
X7044021Y2286000D01*
X4393158Y2286000D01*
X4383162Y2282362D01*
X4381703Y2279834D01*
X-6823787Y2279834D01*
X-6780956Y2383238D01*
X-6760318Y2540000D01*
X-6761765Y2550995D01*
X-6780323Y2691957D01*
X-6780324Y2691960D01*
X-6780956Y2696762D01*
X-6825042Y2803196D01*
X4378662Y2803196D01*
X4380281Y2796648D01*
X4383911Y2794000D01*
X5447952Y2794000D01*
X5457948Y2797638D01*
X5461000Y2802925D01*
X5461000Y2807048D01*
X5969000Y2807048D01*
X5972638Y2797052D01*
X5977925Y2794000D01*
X7038411Y2794000D01*
X7048407Y2797638D01*
X7049621Y2799742D01*
X7049555Y2801578D01*
X7005694Y2976197D01*
X7003748Y2981913D01*
X6917120Y3181144D01*
X6914266Y3186468D01*
X6796265Y3368869D01*
X6792575Y3373661D01*
X6646370Y3534337D01*
X6641945Y3538464D01*
X6471460Y3673104D01*
X6466425Y3676449D01*
X6276245Y3781435D01*
X6270717Y3783919D01*
X6065954Y3856430D01*
X6060087Y3857980D01*
X5981847Y3871917D01*
X5971368Y3870088D01*
X5969000Y3867276D01*
X5969000Y2807048D01*
X5461000Y2807048D01*
X5461000Y3861965D01*
X5457362Y3871961D01*
X5453945Y3873933D01*
X5402217Y3866017D01*
X5396316Y3864612D01*
X5189834Y3797124D01*
X5184260Y3794780D01*
X4991563Y3694469D01*
X4986451Y3691250D01*
X4812728Y3560814D01*
X4808199Y3556793D01*
X4658115Y3399740D01*
X4654308Y3395038D01*
X4531895Y3215587D01*
X4528896Y3210309D01*
X4437440Y3013283D01*
X4435347Y3007594D01*
X4378662Y2803196D01*
X-6825042Y2803196D01*
X-6841464Y2842841D01*
X-6844414Y2846685D01*
X-6844416Y2846689D01*
X-6934763Y2964431D01*
X-6937718Y2968282D01*
X-6955482Y2981913D01*
X-7059311Y3061584D01*
X-7059315Y3061586D01*
X-7063159Y3064536D01*
X-7209238Y3125044D01*
X-7214040Y3125676D01*
X-7214043Y3125677D01*
X-7361192Y3145049D01*
X-7366000Y3145682D01*
X-7370808Y3145049D01*
X-7517957Y3125677D01*
X-7517960Y3125676D01*
X-7522762Y3125044D01*
X-7668841Y3064536D01*
X-7672685Y3061586D01*
X-7672689Y3061584D01*
X-7776518Y2981913D01*
X-7794282Y2968282D01*
X-7797237Y2964431D01*
X-7887584Y2846689D01*
X-7887586Y2846685D01*
X-7890536Y2842841D01*
X-7951044Y2696762D01*
X-7951676Y2691960D01*
X-7951677Y2691957D01*
X-7970235Y2550995D01*
X-7971682Y2540000D01*
X-7951044Y2383238D01*
X-7890536Y2237159D01*
X-7887586Y2233315D01*
X-7887584Y2233311D01*
X-7801792Y2121505D01*
X-7786500Y2076457D01*
X-7786500Y1459524D01*
X-7803813Y1411958D01*
X-7847650Y1386648D01*
X-7860500Y1385524D01*
X-7886000Y1385524D01*
X-7889569Y1384814D01*
X-7889570Y1384814D01*
X-7903998Y1381944D01*
X-7964231Y1369963D01*
X-7970294Y1365912D01*
X-7977024Y1363124D01*
X-7977518Y1364316D01*
X-8019058Y1354152D01*
X-8044810Y1363525D01*
X-8044976Y1363124D01*
X-8051706Y1365912D01*
X-8057769Y1369963D01*
X-8102295Y1378820D01*
X-8112682Y1380886D01*
X-8112683Y1380886D01*
X-8116252Y1381596D01*
X-9155748Y1381596D01*
X-9159317Y1380886D01*
X-9159318Y1380886D01*
X-9169705Y1378820D01*
X-9214231Y1369963D01*
X-9220293Y1365912D01*
X-9220294Y1365912D01*
X-9261001Y1338712D01*
X-9280552Y1325648D01*
X-9284602Y1319587D01*
X-9315979Y1272628D01*
X-9324867Y1259327D01*
X-9336500Y1200844D01*
X-9336500Y1005596D01*
X-9353813Y958030D01*
X-9397650Y932720D01*
X-9410500Y931596D01*
X-9530108Y931596D01*
X-9573230Y931634D01*
X-9573231Y931634D01*
X-9581563Y931641D01*
X-9595041Y925169D01*
X-9610602Y919735D01*
X-9625185Y916408D01*
X-9631703Y911214D01*
X-9636685Y907244D01*
X-9650765Y898411D01*
X-9664024Y892044D01*
X-9669225Y885541D01*
X-9669227Y885539D01*
X-9673361Y880369D01*
X-9685036Y868715D01*
X-9696724Y859401D01*
X-9703110Y846160D01*
X-9711970Y832090D01*
X-9721156Y820604D01*
X-9724508Y806027D01*
X-9729973Y790469D01*
X-9736465Y777009D01*
X-9736485Y753941D01*
X-9736500Y753877D01*
X-9736500Y736988D01*
X-9736545Y685533D01*
X-9736506Y685451D01*
X-9736500Y685399D01*
X-9736500Y136988D01*
X-9736545Y85533D01*
X-13418430Y85533D01*
X-13605320Y272423D01*
X-13626361Y315090D01*
X-13638323Y405957D01*
X-13638324Y405960D01*
X-13638956Y410762D01*
X-13699464Y556841D01*
X-13702414Y560685D01*
X-13702416Y560689D01*
X-13792763Y678431D01*
X-13795718Y682282D01*
X-13872234Y740995D01*
X-13917311Y775584D01*
X-13917315Y775586D01*
X-13921159Y778536D01*
X-14067238Y839044D01*
X-14072040Y839676D01*
X-14072043Y839677D01*
X-14219192Y859049D01*
X-14224000Y859682D01*
X-14228808Y859049D01*
X-14375957Y839677D01*
X-14375960Y839676D01*
X-14380762Y839044D01*
X-14526841Y778536D01*
X-14530685Y775586D01*
X-14530689Y775584D01*
X-14575766Y740995D01*
X-14652282Y682282D01*
X-14655237Y678431D01*
X-14745584Y560689D01*
X-14745586Y560685D01*
X-14748536Y556841D01*
X-14809044Y410762D01*
X-14809676Y405960D01*
X-14809677Y405957D01*
X-14824918Y290185D01*
X-14829682Y254000D01*
X-15043500Y254000D01*
X-15043500Y2006596D01*
X-15026187Y2054162D01*
X-14982350Y2079472D01*
X-14969500Y2080596D01*
X-12173821Y2080596D01*
X-12126255Y2063283D01*
X-12121497Y2058924D01*
X-12119234Y2056662D01*
X-12116282Y2052814D01*
X-12112432Y2049860D01*
X-11994689Y1959512D01*
X-11994685Y1959510D01*
X-11990841Y1956560D01*
X-11844762Y1896052D01*
X-11839960Y1895420D01*
X-11839957Y1895419D01*
X-11692808Y1876047D01*
X-11688000Y1875414D01*
X-11683192Y1876047D01*
X-11536043Y1895419D01*
X-11536040Y1895420D01*
X-11531238Y1896052D01*
X-11385159Y1956560D01*
X-11381315Y1959510D01*
X-11381311Y1959512D01*
X-11263569Y2049859D01*
X-11263568Y2049860D01*
X-11259718Y2052814D01*
X-11241576Y2076457D01*
X-11166416Y2174407D01*
X-11166414Y2174411D01*
X-11163464Y2178255D01*
X-11102956Y2324334D01*
X-11095790Y2378760D01*
X-11082951Y2476288D01*
X-11082318Y2481096D01*
X-11094910Y2576745D01*
X-11102323Y2633053D01*
X-11102324Y2633056D01*
X-11102956Y2637858D01*
X-11163464Y2783937D01*
X-11166414Y2787781D01*
X-11166416Y2787785D01*
X-11256763Y2905527D01*
X-11259718Y2909378D01*
X-11288674Y2931597D01*
X-11381311Y3002680D01*
X-11381315Y3002682D01*
X-11385159Y3005632D01*
X-11531238Y3066140D01*
X-11536040Y3066772D01*
X-11536043Y3066773D01*
X-11683192Y3086145D01*
X-11688000Y3086778D01*
X-11692808Y3086145D01*
X-11839957Y3066773D01*
X-11839960Y3066772D01*
X-11844762Y3066140D01*
X-11990841Y3005632D01*
X-11994685Y3002682D01*
X-11994689Y3002680D01*
X-12067927Y2946482D01*
X-12116282Y2909378D01*
X-12119234Y2905530D01*
X-12121497Y2903268D01*
X-12167374Y2881877D01*
X-12173821Y2881596D01*
X-14990428Y2881596D01*
X-15037994Y2898909D01*
X-15058087Y2928187D01*
X-15058551Y2927964D01*
X-15058867Y2928622D01*
X-15059579Y2930360D01*
X-15059991Y2930960D01*
X-15060755Y2932552D01*
X-15061041Y2933385D01*
X-15061773Y2935637D01*
X-15061868Y2935946D01*
X-15062012Y2936296D01*
X-15062975Y2941573D01*
X-15090386Y2994342D01*
X-15091421Y2996413D01*
X-15114796Y3045092D01*
X-15114797Y3045093D01*
X-15117191Y3050079D01*
X-15120837Y3054023D01*
X-15121379Y3054931D01*
X-15123475Y3058042D01*
X-15125421Y3061788D01*
X-15129725Y3066828D01*
X-15167695Y3104798D01*
X-15169709Y3106893D01*
X-15205393Y3145496D01*
X-15209146Y3149556D01*
X-15213928Y3152334D01*
X-15217295Y3155031D01*
X-15223354Y3160457D01*
X-17923320Y5860423D01*
X-17944361Y5903090D01*
X-17948099Y5931489D01*
X-17956956Y5998762D01*
X-18017464Y6144841D01*
X-18020414Y6148685D01*
X-18020416Y6148689D01*
X-18110763Y6266431D01*
X-18113718Y6270282D01*
X-18117569Y6273237D01*
X-18185153Y6325096D01*
X-13397682Y6325096D01*
X-13397049Y6320288D01*
X-13390448Y6270151D01*
X-13377044Y6168334D01*
X-13316536Y6022255D01*
X-13313586Y6018411D01*
X-13313584Y6018407D01*
X-13260671Y5949450D01*
X-13220282Y5896814D01*
X-13216431Y5893859D01*
X-13098689Y5803512D01*
X-13098685Y5803510D01*
X-13094841Y5800560D01*
X-12948762Y5740052D01*
X-12943960Y5739420D01*
X-12943957Y5739419D01*
X-12796808Y5720047D01*
X-12792000Y5719414D01*
X-12787192Y5720047D01*
X-12640043Y5739419D01*
X-12640040Y5739420D01*
X-12635238Y5740052D01*
X-12577512Y5763963D01*
X-12549193Y5769596D01*
X-3920255Y5769596D01*
X-3911558Y5769083D01*
X-3899912Y5767705D01*
X-3874794Y5764732D01*
X-3869352Y5765726D01*
X-3869349Y5765726D01*
X-3816304Y5775414D01*
X-3814011Y5775796D01*
X-3760608Y5783825D01*
X-3760607Y5783825D01*
X-3755142Y5784647D01*
X-3750306Y5786970D01*
X-3749968Y5787052D01*
X-3749704Y5787143D01*
X-3747467Y5787869D01*
X-3747158Y5787964D01*
X-3746808Y5788108D01*
X-3741531Y5789071D01*
X-3688762Y5816482D01*
X-3686691Y5817517D01*
X-3638012Y5840892D01*
X-3638011Y5840893D01*
X-3633025Y5843287D01*
X-3629081Y5846933D01*
X-3628173Y5847475D01*
X-3625062Y5849571D01*
X-3621316Y5851517D01*
X-3616276Y5855821D01*
X-3578306Y5893791D01*
X-3576211Y5895805D01*
X-3537608Y5931489D01*
X-3533548Y5935242D01*
X-3530770Y5940024D01*
X-3528073Y5943391D01*
X-3522647Y5949450D01*
X-3385177Y6086920D01*
X-3342511Y6107961D01*
X-3308709Y6112411D01*
X-3251643Y6119923D01*
X-3251640Y6119924D01*
X-3246838Y6120556D01*
X-3100759Y6181064D01*
X-3096914Y6184014D01*
X-3096911Y6184016D01*
X-3024202Y6239808D01*
X-2979154Y6255100D01*
X786354Y6255100D01*
X789073Y6255509D01*
X789076Y6255509D01*
X861722Y6266431D01*
X886466Y6270151D01*
X891451Y6272545D01*
X891452Y6272545D01*
X944061Y6297808D01*
X976094Y6305100D01*
X2269033Y6305100D01*
X2274571Y6306900D01*
X2274574Y6306900D01*
X2293846Y6313162D01*
X2305137Y6315873D01*
X2315144Y6317458D01*
X2330904Y6319954D01*
X2340996Y6325096D01*
X2354150Y6331798D01*
X2364878Y6336242D01*
X2384151Y6342504D01*
X2384152Y6342505D01*
X2389690Y6344304D01*
X2394399Y6347726D01*
X2394404Y6347728D01*
X2410798Y6359639D01*
X2420698Y6365706D01*
X2438753Y6374906D01*
X2438754Y6374906D01*
X2443942Y6377550D01*
X2466505Y6400113D01*
X2466509Y6400116D01*
X3039670Y6973277D01*
X3085546Y6994669D01*
X3091996Y6994951D01*
X3095192Y6994951D01*
X3100000Y6994318D01*
X3104808Y6994951D01*
X3251957Y7014323D01*
X3251960Y7014324D01*
X3256762Y7014956D01*
X3402841Y7075464D01*
X3406685Y7078414D01*
X3406689Y7078416D01*
X3524431Y7168763D01*
X3528282Y7171718D01*
X3531237Y7175569D01*
X3621584Y7293311D01*
X3621586Y7293315D01*
X3624536Y7297159D01*
X3685044Y7443238D01*
X3697740Y7539670D01*
X3705049Y7595192D01*
X3705682Y7600000D01*
X3685044Y7756762D01*
X3624536Y7902841D01*
X3621586Y7906685D01*
X3621584Y7906689D01*
X3531237Y8024431D01*
X3528282Y8028282D01*
X3524431Y8031237D01*
X3406689Y8121584D01*
X3406685Y8121586D01*
X3402841Y8124536D01*
X3256762Y8185044D01*
X3251960Y8185676D01*
X3251957Y8185677D01*
X3104808Y8205049D01*
X3100000Y8205682D01*
X3095192Y8205049D01*
X2948043Y8185677D01*
X2948040Y8185676D01*
X2943238Y8185044D01*
X2797159Y8124536D01*
X2793315Y8121586D01*
X2793311Y8121584D01*
X2675569Y8031237D01*
X2671718Y8028282D01*
X2668763Y8024431D01*
X2578416Y7906689D01*
X2578414Y7906685D01*
X2575464Y7902841D01*
X2514956Y7756762D01*
X2494318Y7600000D01*
X2494951Y7595192D01*
X2494951Y7591996D01*
X2477638Y7544430D01*
X2473277Y7539670D01*
X2061381Y7127774D01*
X2015505Y7106382D01*
X2009055Y7106100D01*
X985835Y7106100D01*
X955123Y7113219D01*
X952935Y7114731D01*
X823774Y7155580D01*
X817167Y7156100D01*
X-2979154Y7156100D01*
X-3024202Y7171392D01*
X-3096911Y7227184D01*
X-3096914Y7227186D01*
X-3100759Y7230136D01*
X-3246838Y7290644D01*
X-3251640Y7291276D01*
X-3251643Y7291277D01*
X-3398792Y7310649D01*
X-3403600Y7311282D01*
X-3408408Y7310649D01*
X-3555557Y7291277D01*
X-3555560Y7291276D01*
X-3560362Y7290644D01*
X-3706441Y7230136D01*
X-3710285Y7227186D01*
X-3710289Y7227184D01*
X-3803173Y7155911D01*
X-3831882Y7133882D01*
X-3834837Y7130031D01*
X-3925184Y7012289D01*
X-3925186Y7012285D01*
X-3928136Y7008441D01*
X-3988644Y6862362D01*
X-3989276Y6857560D01*
X-3989277Y6857557D01*
X-4001239Y6766690D01*
X-4022280Y6724023D01*
X-4054033Y6692270D01*
X-4099909Y6670878D01*
X-4106359Y6670596D01*
X-12263705Y6670596D01*
X-12311271Y6687909D01*
X-12322413Y6699548D01*
X-12360763Y6749527D01*
X-12363718Y6753378D01*
X-12367569Y6756333D01*
X-12485311Y6846680D01*
X-12485315Y6846682D01*
X-12489159Y6849632D01*
X-12635238Y6910140D01*
X-12640040Y6910772D01*
X-12640043Y6910773D01*
X-12787192Y6930145D01*
X-12792000Y6930778D01*
X-12796808Y6930145D01*
X-12943957Y6910773D01*
X-12943960Y6910772D01*
X-12948762Y6910140D01*
X-13094841Y6849632D01*
X-13098685Y6846682D01*
X-13098689Y6846680D01*
X-13216431Y6756333D01*
X-13220282Y6753378D01*
X-13223237Y6749527D01*
X-13313584Y6631785D01*
X-13313586Y6631781D01*
X-13316536Y6627937D01*
X-13377044Y6481858D01*
X-13377676Y6477056D01*
X-13377677Y6477053D01*
X-13391982Y6368391D01*
X-13397682Y6325096D01*
X-18185153Y6325096D01*
X-18235311Y6363584D01*
X-18235315Y6363586D01*
X-18239159Y6366536D01*
X-18385238Y6427044D01*
X-18390040Y6427676D01*
X-18390043Y6427677D01*
X-18537192Y6447049D01*
X-18542000Y6447682D01*
X-18546808Y6447049D01*
X-18693957Y6427677D01*
X-18693960Y6427676D01*
X-18698762Y6427044D01*
X-18844841Y6366536D01*
X-18848685Y6363586D01*
X-18848689Y6363584D01*
X-18966431Y6273237D01*
X-18970282Y6270282D01*
X-18973237Y6266431D01*
X-19063584Y6148689D01*
X-19063586Y6148685D01*
X-19066536Y6144841D01*
X-19127044Y5998762D01*
X-19127676Y5993960D01*
X-19127677Y5993957D01*
X-19140729Y5894815D01*
X-19147682Y5842000D01*
X-21089500Y5842000D01*
X-21089500Y8950500D01*
X-21072187Y8998066D01*
X-21028350Y9023376D01*
X-21015500Y9024500D01*
X15335500Y9024500D01*
X15383066Y9007187D01*
G37*
%TD.AperFunction*%
%TD*%
M02*
