G04 #@! TF.GenerationSoftware,KiCad,Pcbnew,5.99.0-unknown-80cb1db2e6~119~ubuntu20.04.1*
G04 #@! TF.CreationDate,2021-03-23T08:35:34+01:00*
G04 #@! TF.ProjectId,TFRPM01C,54465250-4d30-4314-932e-6b696361645f,REV*
G04 #@! TF.SameCoordinates,PX78dfd90PY8290510*
G04 #@! TF.FileFunction,Copper,L2,Bot*
G04 #@! TF.FilePolarity,Positive*
%FSLAX46Y46*%
G04 Gerber Fmt 4.6, Leading zero omitted, Abs format (unit mm)*
G04 Created by KiCad (PCBNEW 5.99.0-unknown-80cb1db2e6~119~ubuntu20.04.1) date 2021-03-23 08:35:34*
%MOMM*%
%LPD*%
G01*
G04 APERTURE LIST*
G04 Aperture macros list*
%AMRoundRect*
0 Rectangle with rounded corners*
0 $1 Rounding radius*
0 $2 $3 $4 $5 $6 $7 $8 $9 X,Y pos of 4 corners*
0 Add a 4 corners polygon primitive as box body*
4,1,4,$2,$3,$4,$5,$6,$7,$8,$9,$2,$3,0*
0 Add four circle primitives for the rounded corners*
1,1,$1+$1,$2,$3*
1,1,$1+$1,$4,$5*
1,1,$1+$1,$6,$7*
1,1,$1+$1,$8,$9*
0 Add four rect primitives between the rounded corners*
20,1,$1+$1,$2,$3,$4,$5,0*
20,1,$1+$1,$4,$5,$6,$7,0*
20,1,$1+$1,$6,$7,$8,$9,0*
20,1,$1+$1,$8,$9,$2,$3,0*%
%AMFreePoly0*
4,1,22,0.550000,-0.750000,0.000000,-0.750000,0.000000,-0.745033,-0.079941,-0.743568,-0.215256,-0.701293,-0.333266,-0.622738,-0.424486,-0.514219,-0.481581,-0.384460,-0.499164,-0.250000,-0.500000,-0.250000,-0.500000,0.250000,-0.499164,0.250000,-0.499963,0.256109,-0.478152,0.396186,-0.417904,0.524511,-0.324060,0.630769,-0.204165,0.706417,-0.067858,0.745374,0.000000,0.744959,0.000000,0.750000,
0.550000,0.750000,0.550000,-0.750000,0.550000,-0.750000,$1*%
%AMFreePoly1*
4,1,20,0.000000,0.744959,0.073905,0.744508,0.209726,0.703889,0.328688,0.626782,0.421226,0.519385,0.479903,0.390333,0.500000,0.250000,0.500000,-0.250000,0.499851,-0.262216,0.476331,-0.402017,0.414519,-0.529596,0.319384,-0.634700,0.198574,-0.708877,0.061801,-0.746166,0.000000,-0.745033,0.000000,-0.750000,-0.550000,-0.750000,-0.550000,0.750000,0.000000,0.750000,0.000000,0.744959,
0.000000,0.744959,$1*%
G04 Aperture macros list end*
G04 #@! TA.AperFunction,SMDPad,CuDef*
%ADD10R,1.700000X1.300000*%
G04 #@! TD*
G04 #@! TA.AperFunction,ComponentPad*
%ADD11C,6.000000*%
G04 #@! TD*
G04 #@! TA.AperFunction,SMDPad,CuDef*
%ADD12RoundRect,0.218750X-0.256250X0.218750X-0.256250X-0.218750X0.256250X-0.218750X0.256250X0.218750X0*%
G04 #@! TD*
G04 #@! TA.AperFunction,ComponentPad*
%ADD13R,1.700000X1.700000*%
G04 #@! TD*
G04 #@! TA.AperFunction,ComponentPad*
%ADD14O,1.700000X1.700000*%
G04 #@! TD*
G04 #@! TA.AperFunction,SMDPad,CuDef*
%ADD15R,1.060000X0.650000*%
G04 #@! TD*
G04 #@! TA.AperFunction,SMDPad,CuDef*
%ADD16R,1.397000X0.889000*%
G04 #@! TD*
G04 #@! TA.AperFunction,SMDPad,CuDef*
%ADD17RoundRect,0.218750X0.218750X0.256250X-0.218750X0.256250X-0.218750X-0.256250X0.218750X-0.256250X0*%
G04 #@! TD*
G04 #@! TA.AperFunction,SMDPad,CuDef*
%ADD18RoundRect,0.150000X0.700000X-0.150000X0.700000X0.150000X-0.700000X0.150000X-0.700000X-0.150000X0*%
G04 #@! TD*
G04 #@! TA.AperFunction,SMDPad,CuDef*
%ADD19RoundRect,0.250000X1.100000X-0.250000X1.100000X0.250000X-1.100000X0.250000X-1.100000X-0.250000X0*%
G04 #@! TD*
G04 #@! TA.AperFunction,SMDPad,CuDef*
%ADD20RoundRect,0.218750X-0.218750X-0.256250X0.218750X-0.256250X0.218750X0.256250X-0.218750X0.256250X0*%
G04 #@! TD*
G04 #@! TA.AperFunction,SMDPad,CuDef*
%ADD21O,0.700000X2.600000*%
G04 #@! TD*
G04 #@! TA.AperFunction,SMDPad,CuDef*
%ADD22RoundRect,0.218750X0.256250X-0.218750X0.256250X0.218750X-0.256250X0.218750X-0.256250X-0.218750X0*%
G04 #@! TD*
G04 #@! TA.AperFunction,SMDPad,CuDef*
%ADD23R,0.950000X1.500000*%
G04 #@! TD*
G04 #@! TA.AperFunction,SMDPad,CuDef*
%ADD24R,0.400000X0.650000*%
G04 #@! TD*
G04 #@! TA.AperFunction,SMDPad,CuDef*
%ADD25FreePoly0,0.000000*%
G04 #@! TD*
G04 #@! TA.AperFunction,SMDPad,CuDef*
%ADD26R,1.000000X1.500000*%
G04 #@! TD*
G04 #@! TA.AperFunction,SMDPad,CuDef*
%ADD27FreePoly1,0.000000*%
G04 #@! TD*
G04 #@! TA.AperFunction,SMDPad,CuDef*
%ADD28FreePoly0,180.000000*%
G04 #@! TD*
G04 #@! TA.AperFunction,SMDPad,CuDef*
%ADD29FreePoly1,180.000000*%
G04 #@! TD*
G04 #@! TA.AperFunction,ViaPad*
%ADD30C,0.800000*%
G04 #@! TD*
G04 #@! TA.AperFunction,Conductor*
%ADD31C,0.400000*%
G04 #@! TD*
G04 #@! TA.AperFunction,Conductor*
%ADD32C,0.500000*%
G04 #@! TD*
G04 APERTURE END LIST*
G04 #@! TO.C,JP1*
G36*
X2648000Y-300000D02*
G01*
X2148000Y-300000D01*
X2148000Y300000D01*
X2648000Y300000D01*
X2648000Y-300000D01*
G37*
G04 #@! TO.C,JP2*
G36*
X7758000Y10622000D02*
G01*
X7258000Y10622000D01*
X7258000Y11222000D01*
X7758000Y11222000D01*
X7758000Y10622000D01*
G37*
G04 #@! TD*
D10*
G04 #@! TO.P,D1,1,K*
G04 #@! TO.N,+5V*
X-8636000Y6068000D03*
G04 #@! TO.P,D1,2,A*
G04 #@! TO.N,GND*
X-8636000Y2568000D03*
G04 #@! TD*
D11*
G04 #@! TO.P,M2,1*
G04 #@! TO.N,GND*
X5842000Y4574904D03*
G04 #@! TD*
D12*
G04 #@! TO.P,R10,1*
G04 #@! TO.N,+3V3*
X-3302000Y10312500D03*
G04 #@! TO.P,R10,2*
G04 #@! TO.N,/SCL*
X-3302000Y8737500D03*
G04 #@! TD*
D13*
G04 #@! TO.P,J1,1*
G04 #@! TO.N,/COUNT*
X11557000Y2034904D03*
D14*
G04 #@! TO.P,J1,2*
G04 #@! TO.N,Net-(C2-Pad1)*
X11557000Y4574904D03*
G04 #@! TO.P,J1,3*
G04 #@! TO.N,GND*
X11557000Y7114904D03*
G04 #@! TD*
D15*
G04 #@! TO.P,U3,1,VIN*
G04 #@! TO.N,+5V*
X-930000Y10480000D03*
G04 #@! TO.P,U3,2,GND*
G04 #@! TO.N,GND*
X-930000Y11430000D03*
G04 #@! TO.P,U3,3,EN*
G04 #@! TO.N,+5V*
X-930000Y12380000D03*
G04 #@! TO.P,U3,4,NC*
G04 #@! TO.N,N/C*
X1270000Y12380000D03*
G04 #@! TO.P,U3,5,VOUT*
G04 #@! TO.N,+3V3*
X1270000Y10480000D03*
G04 #@! TD*
D16*
G04 #@! TO.P,C3,1*
G04 #@! TO.N,+5V*
X-7493000Y9525000D03*
G04 #@! TO.P,C3,2*
G04 #@! TO.N,GND*
X-7493000Y11430000D03*
G04 #@! TD*
D17*
G04 #@! TO.P,C4,1*
G04 #@! TO.N,+5V*
X-3175000Y12700000D03*
G04 #@! TO.P,C4,2*
G04 #@! TO.N,GND*
X-4750000Y12700000D03*
G04 #@! TD*
D18*
G04 #@! TO.P,J2,1*
G04 #@! TO.N,+5V*
X-11358000Y7779904D03*
G04 #@! TO.P,J2,2*
G04 #@! TO.N,/SCL*
X-11358000Y9029904D03*
G04 #@! TO.P,J2,3*
G04 #@! TO.N,/SDA*
X-11358000Y10279904D03*
G04 #@! TO.P,J2,4*
G04 #@! TO.N,GND*
X-11358000Y11529904D03*
D19*
G04 #@! TO.P,J2,MP*
X-14558000Y5929904D03*
X-14558000Y13379904D03*
G04 #@! TD*
D12*
G04 #@! TO.P,R4,1*
G04 #@! TO.N,Net-(R4-Pad1)*
X2286000Y-1981000D03*
G04 #@! TO.P,R4,2*
G04 #@! TO.N,Net-(D2-Pad2)*
X2286000Y-3556000D03*
G04 #@! TD*
D16*
G04 #@! TO.P,R1,1*
G04 #@! TO.N,Net-(JP2-Pad2)*
X14732000Y11112500D03*
G04 #@! TO.P,R1,2*
G04 #@! TO.N,/COUNT*
X14732000Y9207500D03*
G04 #@! TD*
G04 #@! TO.P,R2,1*
G04 #@! TO.N,Net-(C2-Pad1)*
X10414000Y9207500D03*
G04 #@! TO.P,R2,2*
G04 #@! TO.N,Net-(JP2-Pad2)*
X10414000Y11112500D03*
G04 #@! TD*
D12*
G04 #@! TO.P,R3,1*
G04 #@! TO.N,+3V3*
X-5080000Y10312500D03*
G04 #@! TO.P,R3,2*
G04 #@! TO.N,/SDA*
X-5080000Y8737500D03*
G04 #@! TD*
G04 #@! TO.P,C6,1*
G04 #@! TO.N,+3V3*
X9906000Y-1752500D03*
G04 #@! TO.P,C6,2*
G04 #@! TO.N,GND*
X9906000Y-3327500D03*
G04 #@! TD*
D18*
G04 #@! TO.P,J3,1*
G04 #@! TO.N,+5V*
X-11358000Y-2380096D03*
G04 #@! TO.P,J3,2*
G04 #@! TO.N,/SCL*
X-11358000Y-1130096D03*
G04 #@! TO.P,J3,3*
G04 #@! TO.N,/SDA*
X-11358000Y119904D03*
G04 #@! TO.P,J3,4*
G04 #@! TO.N,GND*
X-11358000Y1369904D03*
D19*
G04 #@! TO.P,J3,MP*
X-14558000Y-4230096D03*
X-14558000Y3219904D03*
G04 #@! TD*
D20*
G04 #@! TO.P,C5,1*
G04 #@! TO.N,+3V3*
X635000Y7620000D03*
G04 #@! TO.P,C5,2*
G04 #@! TO.N,GND*
X2210000Y7620000D03*
G04 #@! TD*
D21*
G04 #@! TO.P,U1,1,OSCI*
G04 #@! TO.N,Net-(R4-Pad1)*
X-1270000Y-2876000D03*
G04 #@! TO.P,U1,2,OSCO*
G04 #@! TO.N,N/C*
X-2540000Y-2876000D03*
G04 #@! TO.P,U1,3,A0*
G04 #@! TO.N,Net-(JP1-Pad2)*
X-3810000Y-2876000D03*
G04 #@! TO.P,U1,4,VSS*
G04 #@! TO.N,GND*
X-5085000Y-2876000D03*
G04 #@! TO.P,U1,5,SDA*
G04 #@! TO.N,/SDA*
X-5080000Y5924000D03*
G04 #@! TO.P,U1,6,SCL*
G04 #@! TO.N,/SCL*
X-3810000Y5924000D03*
G04 #@! TO.P,U1,7,#INT*
G04 #@! TO.N,N/C*
X-2475000Y5924000D03*
G04 #@! TO.P,U1,8,VDD*
G04 #@! TO.N,+3V3*
X-1270000Y5924000D03*
G04 #@! TD*
D22*
G04 #@! TO.P,C1,1*
G04 #@! TO.N,+3V3*
X3556000Y10490000D03*
G04 #@! TO.P,C1,2*
G04 #@! TO.N,GND*
X3556000Y12065000D03*
G04 #@! TD*
D16*
G04 #@! TO.P,C2,1*
G04 #@! TO.N,Net-(C2-Pad1)*
X12446000Y10541000D03*
G04 #@! TO.P,C2,2*
G04 #@! TO.N,GND*
X12446000Y12446000D03*
G04 #@! TD*
D23*
G04 #@! TO.P,D2,1,K*
G04 #@! TO.N,GND*
X8203000Y-2791096D03*
G04 #@! TO.P,D2,2,A*
G04 #@! TO.N,Net-(D2-Pad2)*
X4053000Y-2791096D03*
G04 #@! TD*
D24*
G04 #@! TO.P,U2,1*
G04 #@! TO.N,N/C*
X12304000Y-1336000D03*
G04 #@! TO.P,U2,2*
G04 #@! TO.N,/COUNT*
X12954000Y-1336000D03*
G04 #@! TO.P,U2,3,GND*
G04 #@! TO.N,GND*
X13604000Y-1336000D03*
G04 #@! TO.P,U2,4*
G04 #@! TO.N,Net-(R4-Pad1)*
X13604000Y-3236000D03*
G04 #@! TO.P,U2,5,VCC*
G04 #@! TO.N,+3V3*
X12304000Y-3236000D03*
G04 #@! TD*
D25*
G04 #@! TO.P,JP1,1,A*
G04 #@! TO.N,GND*
X1748000Y0D03*
D26*
G04 #@! TO.P,JP1,2,C*
G04 #@! TO.N,Net-(JP1-Pad2)*
X3048000Y0D03*
D27*
G04 #@! TO.P,JP1,3,B*
G04 #@! TO.N,+3V3*
X4348000Y0D03*
G04 #@! TD*
D28*
G04 #@! TO.P,JP2,1,A*
G04 #@! TO.N,+5V*
X8158000Y10922000D03*
D26*
G04 #@! TO.P,JP2,2,C*
G04 #@! TO.N,Net-(JP2-Pad2)*
X6858000Y10922000D03*
D29*
G04 #@! TO.P,JP2,3,B*
G04 #@! TO.N,+3V3*
X5558000Y10922000D03*
G04 #@! TD*
D30*
G04 #@! TO.N,GND*
X4318000Y13081000D03*
X-11430000Y6098904D03*
X-11430000Y4574904D03*
X-6604000Y2542904D03*
X-11430000Y3050904D03*
X15240000Y-2032000D03*
X-6350000Y6858000D03*
X-6350000Y8382000D03*
X-7112000Y7620000D03*
X-11430000Y-3807096D03*
X-8890000Y-3810000D03*
X254000Y-1267096D03*
X-2540000Y2032000D03*
X254000Y0D03*
X-2540000Y3048000D03*
X-14478000Y7876904D03*
X-14478000Y-1775096D03*
X-14478000Y1272904D03*
X-14478000Y-759096D03*
X-14478000Y10924904D03*
X-14478000Y256904D03*
X-14478000Y9908904D03*
X-14478000Y8892904D03*
X-9652000Y13081000D03*
X11430000Y2904D03*
X12446000Y8890000D03*
X16256000Y1524000D03*
X17018000Y-1778000D03*
X2794000Y9144000D03*
X-2540000Y3810000D03*
X16256000Y254000D03*
X16383000Y12827000D03*
X3556000Y8382000D03*
X7747000Y8636000D03*
X17018000Y-3810000D03*
X17018000Y-2794000D03*
X8890000Y8128000D03*
X9779000Y7112000D03*
X10160000Y5969000D03*
X16256000Y2796904D03*
X16383000Y11684000D03*
X1524000Y2794000D03*
X1016000Y6096000D03*
X9017000Y-3937000D03*
X14224000Y0D03*
X-6858000Y4064000D03*
X1016000Y4064000D03*
X15240000Y-1016000D03*
X1016000Y-3810000D03*
X-6858000Y5842000D03*
X-6350000Y-2794000D03*
X10160000Y254000D03*
X-6680200Y13081000D03*
X8890000Y762000D03*
X-9652000Y11684000D03*
X-10922000Y13081000D03*
X-6350000Y-1778000D03*
X-8255000Y13081000D03*
X-6350000Y-3810000D03*
X-1270000Y-508000D03*
G04 #@! TO.N,+3V3*
X4348000Y0D03*
X-1270000Y3810000D03*
X11176000Y-3302000D03*
G04 #@! TO.N,+5V*
X-8128000Y4574904D03*
X-8128000Y-2540000D03*
X-2540000Y11430000D03*
X8255000Y10795000D03*
G04 #@! TO.N,/SDA*
X-9525000Y129904D03*
X-9525000Y10289904D03*
G04 #@! TD*
D31*
G04 #@! TO.N,Net-(D2-Pad2)*
X2286000Y-3556000D02*
X3363096Y-3556000D01*
X3363096Y-3556000D02*
X4128000Y-2791096D01*
D32*
G04 #@! TO.N,/COUNT*
X14732000Y5209904D02*
X14732000Y9207500D01*
D31*
X12954000Y508000D02*
X11557000Y1905000D01*
D32*
X11557000Y2034904D02*
X14732000Y5209904D01*
D31*
X11557000Y1905000D02*
X11557000Y2034904D01*
X12954000Y508000D02*
X12954000Y-1336000D01*
D32*
X11557000Y2034904D02*
X11684000Y2034904D01*
G04 #@! TO.N,+3V3*
X-5080000Y10312500D02*
X-3175000Y10312500D01*
X1270000Y8255000D02*
X635000Y7620000D01*
X3810000Y10490000D02*
X1280000Y10490000D01*
X1280000Y10490000D02*
X1270000Y10480000D01*
X-3175000Y10312500D02*
X-1270000Y8407500D01*
X3810000Y10490000D02*
X5253000Y10490000D01*
X635000Y7620000D02*
X-1270000Y7620000D01*
X9906000Y-1752500D02*
X11176000Y-3022500D01*
X-1270000Y7620000D02*
X-1270000Y5924000D01*
X11242000Y-3236000D02*
X11176000Y-3302000D01*
X5253000Y10490000D02*
X5685000Y10922000D01*
X1270000Y9525000D02*
X1270000Y10480000D01*
X-1270000Y8407500D02*
X-1270000Y7620000D01*
X1270000Y10480000D02*
X1270000Y8255000D01*
X11176000Y-3022500D02*
X11176000Y-3302000D01*
X-1270000Y5924000D02*
X-1270000Y3810000D01*
X12304000Y-3236000D02*
X11242000Y-3236000D01*
G04 #@! TO.N,+5V*
X-11358000Y-2380096D02*
X-8287904Y-2380096D01*
X-930000Y12380000D02*
X-2098000Y12380000D01*
X-2540000Y11430000D02*
X-3175000Y11430000D01*
X-11358000Y7779904D02*
X-9365096Y7779904D01*
X-2855000Y12380000D02*
X-3175000Y12700000D01*
X-8636000Y7218000D02*
X-9197904Y7779904D01*
X-7444980Y9525000D02*
X-7493000Y9525000D01*
X-1844000Y10480000D02*
X-2540000Y11176000D01*
X-7620000Y9525000D02*
X-9197904Y7947096D01*
X-3175000Y12700000D02*
X-3175000Y11430000D01*
X-5539980Y11430000D02*
X-7444980Y9525000D01*
X-11358000Y7779904D02*
X-9492096Y7779904D01*
X-8636000Y6068000D02*
X-8636000Y5082904D01*
X-930000Y12380000D02*
X-2855000Y12380000D01*
X-8636000Y6068000D02*
X-8636000Y7218000D01*
X-9365096Y7779904D02*
X-9197904Y7947096D01*
X-8287904Y-2380096D02*
X-8128000Y-2540000D01*
X-2540000Y11176000D02*
X-2540000Y11430000D01*
X-3175000Y11430000D02*
X-5539980Y11430000D01*
X-7493000Y9525000D02*
X-7620000Y9525000D01*
X-8636000Y5082904D02*
X-8128000Y4574904D01*
X-9197904Y7947096D02*
X-9197904Y7779904D01*
X-930000Y10480000D02*
X-1844000Y10480000D01*
X8285000Y10922000D02*
X8285000Y10825000D01*
X-7493000Y9345404D02*
X-7493000Y9525000D01*
X8285000Y10825000D02*
X8255000Y10795000D01*
X-9197904Y7779904D02*
X-9492096Y7779904D01*
G04 #@! TO.N,/SDA*
X-9535000Y10279904D02*
X-9525000Y10289904D01*
X-11358000Y10279904D02*
X-9535000Y10279904D01*
X-11358000Y119904D02*
X-9535000Y119904D01*
X-7276096Y129904D02*
X-5080000Y2326000D01*
X-5080000Y2326000D02*
X-5080000Y5924000D01*
X-9525000Y129904D02*
X-7276096Y129904D01*
X-5080000Y5924000D02*
X-5080000Y8737500D01*
X-9535000Y119904D02*
X-9525000Y129904D01*
G04 #@! TO.N,/SCL*
X-12208000Y9029904D02*
X-11358000Y9029904D01*
X-12658010Y8579894D02*
X-12208000Y9029904D01*
X-12658010Y-680086D02*
X-12658010Y8579894D01*
X-12208000Y-1130096D02*
X-12658010Y-680086D01*
X-11358000Y-1130096D02*
X-12208000Y-1130096D01*
X-3810000Y2326000D02*
X-3810000Y5924000D01*
X-11358000Y-1130096D02*
X-7266096Y-1130096D01*
X-3810000Y5924000D02*
X-3810000Y8102500D01*
X-7266096Y-1130096D02*
X-3810000Y2326000D01*
X-3810000Y8102500D02*
X-3175000Y8737500D01*
D31*
G04 #@! TO.N,Net-(R4-Pad1)*
X2743000Y-1524000D02*
X4572000Y-1524000D01*
X13604000Y-2428000D02*
X13462000Y-2286000D01*
X13604000Y-3236000D02*
X13604000Y-2428000D01*
D32*
X-1270000Y-2876000D02*
X1391000Y-2876000D01*
D31*
X4572000Y-1524000D02*
X4945980Y-1150020D01*
D32*
X1391000Y-2876000D02*
X2286000Y-1981000D01*
D31*
X2286000Y-1981000D02*
X2743000Y-1524000D01*
X11938000Y-2286000D02*
X11176000Y-1524000D01*
X13462000Y-2286000D02*
X11938000Y-2286000D01*
X5334000Y-762000D02*
X4572000Y-1524000D01*
X10414000Y-762000D02*
X5334000Y-762000D01*
X11938000Y-2286000D02*
X10414000Y-762000D01*
D32*
G04 #@! TO.N,Net-(JP1-Pad2)*
X3048000Y0D02*
X3048000Y636424D01*
X-3810000Y-762000D02*
X-3810000Y-2876000D01*
X-1866011Y1181989D02*
X-2286000Y762000D01*
X2540000Y1778000D02*
X1524000Y1778000D01*
X1524000Y1778000D02*
X1016000Y1778000D01*
X-1270000Y1778000D02*
X1524000Y1778000D01*
X3048000Y1270000D02*
X2540000Y1778000D01*
X-1905000Y1143000D02*
X-1270000Y1778000D01*
X3048000Y0D02*
X3048000Y1270000D01*
X2540000Y1778000D02*
X1906424Y1778000D01*
X-1905000Y1143000D02*
X-3810000Y-762000D01*
X-1866011Y1181989D02*
X-1905000Y1143000D01*
G04 #@! TO.N,Net-(JP2-Pad2)*
X7023989Y12611989D02*
X6858000Y12446000D01*
X6858000Y12446000D02*
X6858000Y10922000D01*
X14293011Y11551489D02*
X14732000Y11112500D01*
X10852989Y11551489D02*
X14293011Y11551489D01*
X8914511Y12611989D02*
X10414000Y11112500D01*
X7023989Y12611989D02*
X8914511Y12611989D01*
X10414000Y11112500D02*
X10852989Y11551489D01*
G04 #@! TO.N,Net-(C2-Pad1)*
X13583489Y9403511D02*
X12446000Y10541000D01*
X11811000Y10541000D02*
X12446000Y10541000D01*
X10477500Y9207500D02*
X11811000Y10541000D01*
X10414000Y9207500D02*
X10477500Y9207500D01*
X11557000Y4574904D02*
X13583489Y6601393D01*
X13583489Y6601393D02*
X13583489Y9403511D01*
G04 #@! TD*
G04 #@! TA.AperFunction,Conductor*
G04 #@! TO.N,GND*
G36*
X21511191Y13880997D02*
G01*
X21547155Y13831497D01*
X21552000Y13800904D01*
X21552000Y-4601096D01*
X21533093Y-4659287D01*
X21483593Y-4695251D01*
X21453000Y-4700096D01*
X-15449000Y-4700096D01*
X-15507191Y-4681189D01*
X-15543155Y-4631689D01*
X-15548000Y-4601096D01*
X-15548000Y-2190518D01*
X-12408500Y-2190518D01*
X-12408500Y-2560135D01*
X-12394333Y-2645249D01*
X-12338900Y-2747984D01*
X-12253178Y-2827226D01*
X-12245695Y-2830534D01*
X-12245692Y-2830536D01*
X-12202584Y-2849593D01*
X-12146409Y-2874427D01*
X-12097578Y-2880596D01*
X-10627961Y-2880596D01*
X-10542847Y-2866429D01*
X-10535643Y-2862542D01*
X-10498443Y-2842470D01*
X-10451432Y-2830596D01*
X-8710525Y-2830596D01*
X-8652334Y-2849503D01*
X-8631984Y-2869328D01*
X-8556153Y-2968153D01*
X-8430750Y-3064378D01*
X-8284715Y-3124868D01*
X-8128000Y-3145500D01*
X-7971285Y-3124868D01*
X-7825250Y-3064378D01*
X-7699847Y-2968153D01*
X-7603622Y-2842750D01*
X-7543132Y-2696715D01*
X-7522500Y-2540000D01*
X-7524565Y-2524311D01*
X-7534465Y-2449118D01*
X-7543132Y-2383285D01*
X-7603622Y-2237250D01*
X-7699847Y-2111847D01*
X-7825250Y-2015622D01*
X-7971285Y-1955132D01*
X-8128000Y-1934500D01*
X-8154993Y-1938054D01*
X-8187941Y-1934633D01*
X-8188298Y-1936503D01*
X-8195569Y-1935116D01*
X-8202552Y-1932664D01*
X-8208592Y-1932427D01*
X-8211271Y-1931905D01*
X-8216648Y-1930204D01*
X-8222269Y-1929762D01*
X-8222272Y-1929761D01*
X-8222358Y-1929755D01*
X-8224373Y-1929596D01*
X-8278691Y-1929596D01*
X-8282577Y-1929520D01*
X-8330494Y-1927637D01*
X-8330497Y-1927637D01*
X-8337888Y-1927347D01*
X-8344455Y-1929088D01*
X-8353680Y-1929596D01*
X-10449539Y-1929596D01*
X-10489568Y-1921142D01*
X-10498392Y-1917241D01*
X-10569591Y-1885765D01*
X-10618422Y-1879596D01*
X-12088039Y-1879596D01*
X-12173153Y-1893763D01*
X-12275888Y-1949196D01*
X-12355130Y-2034918D01*
X-12358438Y-2042401D01*
X-12358440Y-2042404D01*
X-12360760Y-2047653D01*
X-12402331Y-2141687D01*
X-12408500Y-2190518D01*
X-15548000Y-2190518D01*
X-15548000Y-694394D01*
X-13113285Y-694394D01*
X-13111956Y-701671D01*
X-13111956Y-701674D01*
X-13102673Y-752500D01*
X-13102164Y-755557D01*
X-13093374Y-814021D01*
X-13090249Y-820529D01*
X-13088952Y-827631D01*
X-13085541Y-834197D01*
X-13085541Y-834198D01*
X-13061717Y-880061D01*
X-13060328Y-882840D01*
X-13034745Y-936115D01*
X-13030642Y-940554D01*
X-13029118Y-942815D01*
X-13026517Y-947822D01*
X-13021485Y-953714D01*
X-12983059Y-992140D01*
X-12980366Y-994942D01*
X-12942808Y-1035572D01*
X-12936933Y-1038985D01*
X-12930052Y-1045147D01*
X-12549085Y-1426114D01*
X-12541349Y-1434820D01*
X-12519811Y-1462141D01*
X-12471181Y-1495751D01*
X-12468690Y-1497532D01*
X-12427097Y-1528254D01*
X-12427093Y-1528256D01*
X-12421143Y-1532651D01*
X-12414331Y-1535043D01*
X-12408392Y-1539148D01*
X-12401331Y-1541381D01*
X-12352067Y-1556961D01*
X-12349115Y-1557946D01*
X-12300339Y-1575075D01*
X-12300335Y-1575076D01*
X-12293352Y-1577528D01*
X-12287311Y-1577765D01*
X-12284635Y-1578287D01*
X-12279256Y-1579988D01*
X-12273635Y-1580430D01*
X-12273632Y-1580431D01*
X-12273546Y-1580437D01*
X-12271531Y-1580596D01*
X-12266461Y-1580596D01*
X-12226432Y-1589050D01*
X-12146409Y-1624427D01*
X-12097578Y-1630596D01*
X-10627961Y-1630596D01*
X-10542847Y-1616429D01*
X-10498444Y-1592470D01*
X-10451432Y-1580596D01*
X-7297973Y-1580596D01*
X-7286337Y-1581282D01*
X-7251788Y-1585371D01*
X-7244511Y-1584042D01*
X-7244508Y-1584042D01*
X-7209505Y-1577649D01*
X-7193661Y-1574755D01*
X-7190625Y-1574250D01*
X-7132161Y-1565460D01*
X-7125653Y-1562335D01*
X-7118551Y-1561038D01*
X-7111614Y-1557435D01*
X-7066121Y-1533803D01*
X-7063340Y-1532413D01*
X-7054679Y-1528254D01*
X-7010067Y-1506831D01*
X-7005628Y-1502728D01*
X-7003367Y-1501204D01*
X-6998360Y-1498603D01*
X-6992468Y-1493571D01*
X-6954042Y-1455145D01*
X-6951239Y-1452451D01*
X-6916045Y-1419918D01*
X-6910610Y-1414894D01*
X-6907197Y-1409019D01*
X-6901035Y-1402138D01*
X-3513977Y1984919D01*
X-3505263Y1992661D01*
X-3483768Y2009606D01*
X-3483767Y2009607D01*
X-3477955Y2014189D01*
X-3444369Y2062783D01*
X-3442562Y2065312D01*
X-3411843Y2106903D01*
X-3411842Y2106905D01*
X-3407445Y2112858D01*
X-3405054Y2119668D01*
X-3400948Y2125608D01*
X-3398717Y2132661D01*
X-3398715Y2132666D01*
X-3384961Y2176157D01*
X-3383122Y2181971D01*
X-3382160Y2184856D01*
X-3362568Y2240648D01*
X-3362331Y2246688D01*
X-3361809Y2249367D01*
X-3360108Y2254744D01*
X-3359500Y2262469D01*
X-3359500Y2316787D01*
X-3359424Y2320673D01*
X-3357541Y2368590D01*
X-3357541Y2368593D01*
X-3357251Y2375984D01*
X-3358992Y2382551D01*
X-3359500Y2391776D01*
X-3359500Y4627966D01*
X-3344639Y4680135D01*
X-3306082Y4742321D01*
X-3306082Y4742322D01*
X-3302525Y4748058D01*
X-3260459Y4892851D01*
X-3259500Y4905911D01*
X-3259500Y6910501D01*
X-3274963Y7023385D01*
X-3277640Y7029571D01*
X-3277641Y7029575D01*
X-3332164Y7155570D01*
X-3332166Y7155574D01*
X-3334845Y7161764D01*
X-3339094Y7167011D01*
X-3342588Y7172780D01*
X-3340626Y7173968D01*
X-3359500Y7227268D01*
X-3359500Y7874889D01*
X-3340593Y7933080D01*
X-3330504Y7944893D01*
X-3204893Y8070504D01*
X-3150376Y8098281D01*
X-3134889Y8099500D01*
X-3014181Y8099500D01*
X-3010337Y8100109D01*
X-3010335Y8100109D01*
X-2922345Y8114045D01*
X-2922344Y8114045D01*
X-2914650Y8115264D01*
X-2883523Y8131124D01*
X-2803321Y8171989D01*
X-2803319Y8171990D01*
X-2796382Y8175525D01*
X-2702525Y8269382D01*
X-2697107Y8280014D01*
X-2645800Y8380710D01*
X-2645800Y8380711D01*
X-2642264Y8387650D01*
X-2638724Y8409997D01*
X-2627109Y8483335D01*
X-2627109Y8483337D01*
X-2626500Y8487181D01*
X-2626500Y8887888D01*
X-2607593Y8946079D01*
X-2558093Y8982043D01*
X-2496907Y8982043D01*
X-2457496Y8957892D01*
X-1749496Y8249892D01*
X-1721719Y8195375D01*
X-1720500Y8179888D01*
X-1720500Y7682575D01*
X-1721901Y7670328D01*
X-1721844Y7670324D01*
X-1722424Y7662950D01*
X-1724096Y7655738D01*
X-1723573Y7648355D01*
X-1720747Y7608439D01*
X-1720500Y7601447D01*
X-1720500Y7220034D01*
X-1735361Y7167865D01*
X-1768522Y7114382D01*
X-1777475Y7099942D01*
X-1779358Y7093460D01*
X-1782103Y7087295D01*
X-1783237Y7087800D01*
X-1813724Y7042938D01*
X-1871292Y7022212D01*
X-1930048Y7039281D01*
X-1965261Y7081845D01*
X-1969697Y7092097D01*
X-1999845Y7161764D01*
X-2094734Y7278942D01*
X-2115319Y7293571D01*
X-2212141Y7362379D01*
X-2212142Y7362380D01*
X-2217639Y7366286D01*
X-2223983Y7368570D01*
X-2223987Y7368572D01*
X-2353157Y7415076D01*
X-2353160Y7415077D01*
X-2359505Y7417361D01*
X-2386794Y7419365D01*
X-2503146Y7427910D01*
X-2503150Y7427910D01*
X-2509880Y7428404D01*
X-2516495Y7427070D01*
X-2516497Y7427070D01*
X-2561602Y7417975D01*
X-2657685Y7398601D01*
X-2663691Y7395541D01*
X-2663693Y7395540D01*
X-2711627Y7371116D01*
X-2792031Y7330148D01*
X-2796994Y7325585D01*
X-2796996Y7325583D01*
X-2851736Y7275247D01*
X-2903020Y7228089D01*
X-2982475Y7099942D01*
X-3024541Y6955149D01*
X-3025500Y6942089D01*
X-3025500Y4937499D01*
X-3010037Y4824615D01*
X-3007360Y4818429D01*
X-3007359Y4818425D01*
X-2952836Y4692430D01*
X-2952834Y4692426D01*
X-2950155Y4686236D01*
X-2855266Y4569058D01*
X-2849767Y4565150D01*
X-2778903Y4514790D01*
X-2732361Y4481714D01*
X-2726017Y4479430D01*
X-2726013Y4479428D01*
X-2596843Y4432924D01*
X-2596840Y4432923D01*
X-2590495Y4430639D01*
X-2565504Y4428804D01*
X-2446854Y4420090D01*
X-2446850Y4420090D01*
X-2440120Y4419596D01*
X-2433505Y4420930D01*
X-2433503Y4420930D01*
X-2298926Y4448066D01*
X-2292315Y4449399D01*
X-2157969Y4517852D01*
X-2153006Y4522415D01*
X-2153004Y4522417D01*
X-2051948Y4615343D01*
X-2046980Y4619911D01*
X-1967525Y4748058D01*
X-1965642Y4754540D01*
X-1962897Y4760705D01*
X-1961763Y4760200D01*
X-1931276Y4805062D01*
X-1873708Y4825788D01*
X-1814952Y4808719D01*
X-1779739Y4766155D01*
X-1745155Y4686236D01*
X-1740906Y4680989D01*
X-1737412Y4675220D01*
X-1739374Y4674032D01*
X-1720500Y4620732D01*
X-1720500Y4242636D01*
X-1740958Y4182369D01*
X-1794378Y4112750D01*
X-1854868Y3966715D01*
X-1875500Y3810000D01*
X-1854868Y3653285D01*
X-1794378Y3507250D01*
X-1698153Y3381847D01*
X-1572750Y3285622D01*
X-1426715Y3225132D01*
X-1270000Y3204500D01*
X-1113285Y3225132D01*
X-967250Y3285622D01*
X-841847Y3381847D01*
X-745622Y3507250D01*
X-685132Y3653285D01*
X-664500Y3810000D01*
X-685132Y3966715D01*
X-745622Y4112750D01*
X-799042Y4182369D01*
X-819500Y4242636D01*
X-819500Y4627966D01*
X-804639Y4680135D01*
X-766082Y4742321D01*
X-766082Y4742322D01*
X-762525Y4748058D01*
X-720459Y4892851D01*
X-719500Y4905911D01*
X-719500Y6910501D01*
X-734963Y7023385D01*
X-737640Y7029572D01*
X-737642Y7029578D01*
X-738337Y7031183D01*
X-738463Y7032518D01*
X-739458Y7036081D01*
X-738817Y7036260D01*
X-744095Y7092097D01*
X-712948Y7144761D01*
X-656795Y7169061D01*
X-647479Y7169500D01*
X-15727Y7169500D01*
X42464Y7150593D01*
X63166Y7126361D01*
X64908Y7127627D01*
X69489Y7121321D01*
X73025Y7114382D01*
X166882Y7020525D01*
X173819Y7016990D01*
X173821Y7016989D01*
X278210Y6963800D01*
X285150Y6960264D01*
X292844Y6959045D01*
X292845Y6959045D01*
X380835Y6945109D01*
X380837Y6945109D01*
X384681Y6944500D01*
X885319Y6944500D01*
X889163Y6945109D01*
X889165Y6945109D01*
X977155Y6959045D01*
X977156Y6959045D01*
X984850Y6960264D01*
X991790Y6963800D01*
X1096179Y7016989D01*
X1096181Y7016990D01*
X1103118Y7020525D01*
X1196975Y7114382D01*
X1217962Y7155570D01*
X1253700Y7225710D01*
X1253700Y7225711D01*
X1257236Y7232650D01*
X1264748Y7280075D01*
X1272391Y7328335D01*
X1272391Y7328337D01*
X1273000Y7332181D01*
X1273000Y7579889D01*
X1291907Y7638080D01*
X1301996Y7649893D01*
X1566018Y7913915D01*
X1574724Y7921651D01*
X1602045Y7943189D01*
X1635648Y7991807D01*
X1637456Y7994337D01*
X1668156Y8035902D01*
X1672555Y8041858D01*
X1674946Y8048668D01*
X1679052Y8054608D01*
X1681283Y8061661D01*
X1681285Y8061666D01*
X1696873Y8110957D01*
X1697840Y8113856D01*
X1717432Y8169648D01*
X1717669Y8175688D01*
X1718191Y8178367D01*
X1719892Y8183744D01*
X1720500Y8191469D01*
X1720500Y8245787D01*
X1720576Y8249673D01*
X1722459Y8297590D01*
X1722459Y8297593D01*
X1722749Y8304984D01*
X1721008Y8311551D01*
X1720500Y8320776D01*
X1720500Y9852439D01*
X1739407Y9910630D01*
X1788907Y9946594D01*
X1800186Y9949537D01*
X1869076Y9963240D01*
X1869078Y9963241D01*
X1878641Y9965143D01*
X1945310Y10009690D01*
X1947103Y10012374D01*
X1997950Y10038281D01*
X2013437Y10039500D01*
X2897899Y10039500D01*
X2956090Y10020593D01*
X2967903Y10010504D01*
X3050382Y9928025D01*
X3057319Y9924490D01*
X3057321Y9924489D01*
X3160154Y9872093D01*
X3168650Y9867764D01*
X3176344Y9866545D01*
X3176345Y9866545D01*
X3264335Y9852609D01*
X3264337Y9852609D01*
X3268181Y9852000D01*
X3843819Y9852000D01*
X3847663Y9852609D01*
X3847665Y9852609D01*
X3935655Y9866545D01*
X3935656Y9866545D01*
X3943350Y9867764D01*
X3951846Y9872093D01*
X4054679Y9924489D01*
X4054681Y9924490D01*
X4061618Y9928025D01*
X4144097Y10010504D01*
X4198614Y10038281D01*
X4214101Y10039500D01*
X5221123Y10039500D01*
X5232762Y10038813D01*
X5242113Y10037706D01*
X5271997Y10029264D01*
X5286191Y10022706D01*
X5286197Y10022704D01*
X5289393Y10021227D01*
X5425214Y9980608D01*
X5482841Y9971996D01*
X5522434Y9971755D01*
X5541134Y9969855D01*
X5558000Y9966500D01*
X6108000Y9966500D01*
X6186641Y9982143D01*
X6194747Y9987559D01*
X6195116Y9987712D01*
X6256112Y9992511D01*
X6270884Y9987712D01*
X6271253Y9987559D01*
X6279359Y9982143D01*
X6358000Y9966500D01*
X7358000Y9966500D01*
X7436641Y9982143D01*
X7444747Y9987559D01*
X7445116Y9987712D01*
X7506112Y9992511D01*
X7520884Y9987712D01*
X7521253Y9987559D01*
X7529359Y9982143D01*
X7608000Y9966500D01*
X8158000Y9966500D01*
X8172706Y9969425D01*
X8192623Y9971326D01*
X8224601Y9971130D01*
X8228088Y9971608D01*
X8228094Y9971608D01*
X8278841Y9978559D01*
X8278844Y9978560D01*
X8282329Y9979037D01*
X8418636Y10017994D01*
X8471823Y10041786D01*
X8591718Y10117434D01*
X8636089Y10155197D01*
X8729933Y10261455D01*
X8761922Y10310154D01*
X8822170Y10438479D01*
X8830700Y10466377D01*
X8838175Y10490828D01*
X8839205Y10494197D01*
X8853602Y10586659D01*
X8860474Y10630791D01*
X8860474Y10630796D01*
X8861016Y10634274D01*
X8861233Y10652034D01*
X8862316Y10662370D01*
X8862075Y10662394D01*
X8862551Y10667230D01*
X8863500Y10672000D01*
X8863500Y11172000D01*
X8861696Y11181070D01*
X8860212Y11198552D01*
X8860929Y11198646D01*
X8858111Y11220202D01*
X8843804Y11329606D01*
X8843803Y11329610D01*
X8843346Y11333106D01*
X8842398Y11336500D01*
X8842397Y11336507D01*
X8828628Y11385821D01*
X8827678Y11389224D01*
X8819244Y11408393D01*
X8772000Y11515762D01*
X8770583Y11518983D01*
X8749943Y11552142D01*
X8741652Y11565463D01*
X8741649Y11565467D01*
X8739793Y11568449D01*
X8648573Y11676968D01*
X8605138Y11715803D01*
X8599101Y11719822D01*
X8534987Y11762500D01*
X8487128Y11794358D01*
X8454464Y11809938D01*
X8437716Y11817927D01*
X8437712Y11817929D01*
X8434537Y11819443D01*
X8299222Y11861718D01*
X8295744Y11862281D01*
X8295737Y11862283D01*
X8267445Y11866865D01*
X8241706Y11871034D01*
X8238187Y11871099D01*
X8238182Y11871099D01*
X8195624Y11871879D01*
X8194145Y11871906D01*
X8176647Y11873791D01*
X8173390Y11874439D01*
X8158000Y11877500D01*
X7608000Y11877500D01*
X7529359Y11861857D01*
X7521253Y11856441D01*
X7520884Y11856288D01*
X7459888Y11851489D01*
X7445116Y11856288D01*
X7444747Y11856441D01*
X7436641Y11861857D01*
X7427078Y11863759D01*
X7427074Y11863761D01*
X7388185Y11871497D01*
X7334801Y11901394D01*
X7309186Y11956959D01*
X7308500Y11968594D01*
X7308500Y12062489D01*
X7327407Y12120680D01*
X7376907Y12156644D01*
X7407500Y12161489D01*
X8686900Y12161489D01*
X8745091Y12142582D01*
X8756904Y12132493D01*
X9481004Y11408393D01*
X9508781Y11353876D01*
X9510000Y11338389D01*
X9510000Y10668000D01*
X9525643Y10589359D01*
X9570190Y10522690D01*
X9636859Y10478143D01*
X9646422Y10476241D01*
X9646424Y10476240D01*
X9671700Y10471213D01*
X9715500Y10462500D01*
X10856389Y10462500D01*
X10914580Y10443593D01*
X10950544Y10394093D01*
X10950544Y10332907D01*
X10926392Y10293496D01*
X10519391Y9886496D01*
X10464875Y9858719D01*
X10449388Y9857500D01*
X9715500Y9857500D01*
X9671700Y9848787D01*
X9646424Y9843760D01*
X9646422Y9843759D01*
X9636859Y9841857D01*
X9570190Y9797310D01*
X9564771Y9789200D01*
X9548953Y9765526D01*
X9525643Y9730641D01*
X9510000Y9652000D01*
X9510000Y8763000D01*
X9525643Y8684359D01*
X9570190Y8617690D01*
X9636859Y8573143D01*
X9646422Y8571241D01*
X9646424Y8571240D01*
X9671700Y8566213D01*
X9715500Y8557500D01*
X10992237Y8557500D01*
X11050428Y8538593D01*
X11086392Y8489093D01*
X11086392Y8427907D01*
X11050428Y8378407D01*
X11028601Y8366420D01*
X10954855Y8337296D01*
X10947382Y8333587D01*
X10757508Y8218368D01*
X10750761Y8213448D01*
X10583019Y8067889D01*
X10577190Y8061895D01*
X10436380Y7890165D01*
X10431637Y7883263D01*
X10321775Y7690264D01*
X10318268Y7682674D01*
X10242492Y7473913D01*
X10240315Y7465846D01*
X10225575Y7384335D01*
X10227374Y7371116D01*
X10227728Y7370747D01*
X10235051Y7368904D01*
X11287320Y7368904D01*
X11300005Y7373026D01*
X11303000Y7377147D01*
X11303000Y8433622D01*
X11300877Y8440154D01*
X11811000Y8440154D01*
X11811000Y7384584D01*
X11815122Y7371899D01*
X11819243Y7368904D01*
X12878514Y7368904D01*
X12890341Y7372747D01*
X12890638Y7382605D01*
X12843665Y7563584D01*
X12840892Y7571458D01*
X12749673Y7773958D01*
X12745610Y7781258D01*
X12621585Y7965479D01*
X12616337Y7972006D01*
X12463046Y8132697D01*
X12456787Y8138234D01*
X12278609Y8270802D01*
X12271500Y8275210D01*
X12073529Y8375864D01*
X12065791Y8379006D01*
X11853686Y8444865D01*
X11845532Y8446658D01*
X11826544Y8449175D01*
X11813427Y8446755D01*
X11812205Y8445471D01*
X11811000Y8440154D01*
X11300877Y8440154D01*
X11298878Y8446307D01*
X11282389Y8458287D01*
X11259140Y8467246D01*
X11225882Y8518603D01*
X11229162Y8579700D01*
X11250836Y8613030D01*
X11257810Y8617690D01*
X11302357Y8684359D01*
X11318000Y8763000D01*
X11318000Y9369889D01*
X11336907Y9428080D01*
X11346996Y9439893D01*
X11769107Y9862004D01*
X11823624Y9889781D01*
X11839111Y9891000D01*
X12417889Y9891000D01*
X12476080Y9872093D01*
X12487893Y9862004D01*
X13103993Y9245904D01*
X13131770Y9191387D01*
X13132989Y9175900D01*
X13132989Y6829005D01*
X13114082Y6770814D01*
X13103993Y6759001D01*
X13043060Y6698068D01*
X12988543Y6670291D01*
X12928111Y6679862D01*
X12884846Y6723127D01*
X12875275Y6783559D01*
X12877726Y6794778D01*
X12893299Y6850368D01*
X12891595Y6858352D01*
X12889724Y6860034D01*
X12885621Y6860904D01*
X10237968Y6860904D01*
X10225283Y6856782D01*
X10224679Y6855951D01*
X10224162Y6849270D01*
X10233820Y6789305D01*
X10235842Y6781195D01*
X10307596Y6571022D01*
X10310956Y6563366D01*
X10417100Y6368279D01*
X10421699Y6361305D01*
X10559191Y6186898D01*
X10564905Y6180791D01*
X10729813Y6032046D01*
X10736475Y6026990D01*
X10924095Y5908152D01*
X10931506Y5904294D01*
X11136468Y5818766D01*
X11144425Y5816212D01*
X11286662Y5783505D01*
X11339135Y5752038D01*
X11363092Y5695738D01*
X11349380Y5636108D01*
X11303238Y5595927D01*
X11292428Y5592051D01*
X11166250Y5554915D01*
X11166247Y5554914D01*
X11161603Y5553547D01*
X11157309Y5551302D01*
X10983344Y5460356D01*
X10983340Y5460353D01*
X10979047Y5458109D01*
X10975271Y5455073D01*
X10975268Y5455071D01*
X10881058Y5379324D01*
X10818505Y5329030D01*
X10766683Y5267271D01*
X10689202Y5174933D01*
X10689199Y5174929D01*
X10686093Y5171227D01*
X10586853Y4990710D01*
X10585389Y4986096D01*
X10585388Y4986093D01*
X10531167Y4815168D01*
X10524565Y4794355D01*
X10524025Y4789543D01*
X10524025Y4789542D01*
X10509023Y4655790D01*
X10501603Y4589641D01*
X10507248Y4522417D01*
X10515882Y4419596D01*
X10518840Y4384366D01*
X10520173Y4379718D01*
X10520173Y4379717D01*
X10551017Y4272154D01*
X10575621Y4186349D01*
X10669782Y4003131D01*
X10797737Y3841692D01*
X10954612Y3708181D01*
X10958835Y3705821D01*
X10958839Y3705818D01*
X11041321Y3659721D01*
X11134432Y3607683D01*
X11139030Y3606189D01*
X11325742Y3545522D01*
X11325745Y3545521D01*
X11330347Y3544026D01*
X11534895Y3519635D01*
X11539717Y3520006D01*
X11539720Y3520006D01*
X11735458Y3535067D01*
X11735463Y3535068D01*
X11740286Y3535439D01*
X11938695Y3590836D01*
X11969089Y3606189D01*
X12118244Y3681533D01*
X12118246Y3681534D01*
X12122565Y3683716D01*
X12284893Y3810541D01*
X12288055Y3814204D01*
X12288060Y3814209D01*
X12416332Y3962815D01*
X12419496Y3966480D01*
X12423037Y3972712D01*
X12518858Y4141387D01*
X12518859Y4141390D01*
X12521247Y4145593D01*
X12523347Y4151904D01*
X12584743Y4336469D01*
X12584743Y4336471D01*
X12586270Y4341060D01*
X12591154Y4379717D01*
X12611740Y4542679D01*
X12612088Y4545433D01*
X12612500Y4574904D01*
X12608087Y4619911D01*
X12592870Y4775108D01*
X12592869Y4775112D01*
X12592398Y4779918D01*
X12589493Y4789542D01*
X12573272Y4843266D01*
X12564701Y4871656D01*
X12565983Y4932827D01*
X12589472Y4970273D01*
X13879507Y6260308D01*
X13888213Y6268044D01*
X13915534Y6289582D01*
X13949144Y6338212D01*
X13950925Y6340703D01*
X13981647Y6382296D01*
X13981649Y6382300D01*
X13986044Y6388250D01*
X13988436Y6395062D01*
X13992541Y6401001D01*
X14010354Y6457326D01*
X14011339Y6460278D01*
X14028468Y6509054D01*
X14028469Y6509058D01*
X14030921Y6516041D01*
X14031158Y6522082D01*
X14031680Y6524758D01*
X14033381Y6530137D01*
X14033989Y6537862D01*
X14033989Y6592180D01*
X14034065Y6596066D01*
X14035948Y6643983D01*
X14035948Y6643986D01*
X14036238Y6651377D01*
X14034497Y6657944D01*
X14033989Y6667169D01*
X14033989Y8458500D01*
X14052896Y8516691D01*
X14102396Y8552655D01*
X14132989Y8557500D01*
X14182500Y8557500D01*
X14240691Y8538593D01*
X14276655Y8489093D01*
X14281500Y8458500D01*
X14281500Y5437515D01*
X14262593Y5379324D01*
X14252504Y5367511D01*
X12004392Y3119400D01*
X11949875Y3091623D01*
X11934388Y3090404D01*
X10707000Y3090404D01*
X10663200Y3081691D01*
X10637924Y3076664D01*
X10637922Y3076663D01*
X10628359Y3074761D01*
X10561690Y3030214D01*
X10517143Y2963545D01*
X10501500Y2884904D01*
X10501500Y1184904D01*
X10517143Y1106263D01*
X10561690Y1039594D01*
X10628359Y995047D01*
X10637922Y993145D01*
X10637924Y993144D01*
X10663200Y988117D01*
X10707000Y979404D01*
X11875196Y979404D01*
X11933387Y960497D01*
X11945200Y950408D01*
X12524504Y371103D01*
X12552281Y316586D01*
X12553500Y301099D01*
X12553500Y-706500D01*
X12534593Y-764691D01*
X12485093Y-800655D01*
X12454500Y-805500D01*
X12104000Y-805500D01*
X12061163Y-814021D01*
X12034924Y-819240D01*
X12034922Y-819241D01*
X12025359Y-821143D01*
X11958690Y-865690D01*
X11914143Y-932359D01*
X11898500Y-1011000D01*
X11898500Y-1441099D01*
X11879593Y-1499290D01*
X11830093Y-1535254D01*
X11768907Y-1535254D01*
X11729496Y-1511103D01*
X10742084Y-523692D01*
X10742063Y-523668D01*
X10742056Y-523653D01*
X10652347Y-433944D01*
X10630849Y-422991D01*
X10617608Y-414876D01*
X10604398Y-405278D01*
X10598093Y-400697D01*
X10575145Y-393241D01*
X10560794Y-387296D01*
X10539306Y-376347D01*
X10522199Y-373637D01*
X10515476Y-372572D01*
X10500377Y-368947D01*
X10484842Y-363900D01*
X10484843Y-363900D01*
X10477434Y-361493D01*
X10350566Y-361493D01*
X10350551Y-361498D01*
X10350521Y-361500D01*
X5397485Y-361500D01*
X5397451Y-361497D01*
X5397434Y-361492D01*
X5270566Y-361492D01*
X5263159Y-363899D01*
X5263157Y-363899D01*
X5247617Y-368948D01*
X5232514Y-372574D01*
X5227985Y-373292D01*
X5208694Y-376347D01*
X5201756Y-379882D01*
X5194948Y-383351D01*
X5134516Y-392921D01*
X5080000Y-365142D01*
X5052223Y-310625D01*
X5051401Y-286296D01*
X5053165Y-266633D01*
X5053166Y-266623D01*
X5053336Y-264722D01*
X5053485Y-252506D01*
X5053500Y-250000D01*
X5053500Y250000D01*
X5051425Y279132D01*
X5035659Y389222D01*
X5031828Y415976D01*
X5031827Y415981D01*
X5031328Y419465D01*
X5028863Y427895D01*
X5015963Y472010D01*
X5015960Y472018D01*
X5014974Y475390D01*
X4956297Y604442D01*
X4953127Y609400D01*
X4926802Y650561D01*
X4924906Y653526D01*
X4909233Y671716D01*
X4834663Y758260D01*
X4834660Y758263D01*
X4832368Y760923D01*
X4829727Y763227D01*
X4829723Y763231D01*
X4810415Y780075D01*
X4788461Y799227D01*
X4713261Y847969D01*
X4672448Y874423D01*
X4672443Y874425D01*
X4669499Y876334D01*
X4616607Y900773D01*
X4480786Y941392D01*
X4423159Y950004D01*
X4383566Y950245D01*
X4364866Y952145D01*
X4348000Y955500D01*
X3798000Y955500D01*
X3719359Y939857D01*
X3711253Y934441D01*
X3710884Y934288D01*
X3649888Y929489D01*
X3635116Y934288D01*
X3634747Y934441D01*
X3626641Y939857D01*
X3617078Y941759D01*
X3617074Y941761D01*
X3578185Y949497D01*
X3524801Y979394D01*
X3499186Y1034959D01*
X3498500Y1046594D01*
X3498500Y1238123D01*
X3499186Y1249759D01*
X3502405Y1276960D01*
X3503275Y1284308D01*
X3501946Y1291585D01*
X3501946Y1291588D01*
X3492663Y1342414D01*
X3492152Y1345482D01*
X3484464Y1396619D01*
X3483364Y1403935D01*
X3480239Y1410443D01*
X3478942Y1417545D01*
X3451706Y1469977D01*
X3450317Y1472756D01*
X3427938Y1519358D01*
X3424735Y1526029D01*
X3420631Y1530469D01*
X3419109Y1532728D01*
X3416507Y1537736D01*
X3411474Y1543629D01*
X3373048Y1582055D01*
X3370354Y1584858D01*
X3337822Y1620051D01*
X3332798Y1625486D01*
X3326923Y1628899D01*
X3320042Y1635061D01*
X2881082Y2074021D01*
X2873339Y2082736D01*
X2851811Y2110045D01*
X2825544Y2128200D01*
X2803217Y2143631D01*
X2800688Y2145438D01*
X2759097Y2176157D01*
X2759095Y2176158D01*
X2753142Y2180555D01*
X2746332Y2182946D01*
X2740392Y2187052D01*
X2733339Y2189283D01*
X2733334Y2189285D01*
X2695559Y2201231D01*
X2684029Y2204878D01*
X2681144Y2205840D01*
X2625352Y2225432D01*
X2619312Y2225669D01*
X2616633Y2226191D01*
X2611256Y2227892D01*
X2605635Y2228334D01*
X2605632Y2228335D01*
X2605546Y2228341D01*
X2603531Y2228500D01*
X2549213Y2228500D01*
X2545327Y2228576D01*
X2497410Y2230459D01*
X2497407Y2230459D01*
X2490016Y2230749D01*
X2483449Y2229008D01*
X2474224Y2228500D01*
X-1238122Y2228500D01*
X-1249758Y2229186D01*
X-1251231Y2229360D01*
X-1284307Y2233275D01*
X-1291584Y2231946D01*
X-1291585Y2231946D01*
X-1299726Y2230459D01*
X-1342453Y2222656D01*
X-1345467Y2222154D01*
X-1403935Y2213364D01*
X-1410443Y2210239D01*
X-1417545Y2208942D01*
X-1424110Y2205532D01*
X-1424112Y2205531D01*
X-1439307Y2197638D01*
X-1470039Y2181673D01*
X-1472764Y2180313D01*
X-1526029Y2154735D01*
X-1530466Y2150634D01*
X-1532726Y2149111D01*
X-1537736Y2146508D01*
X-1543628Y2141475D01*
X-1582055Y2103048D01*
X-1584857Y2100355D01*
X-1625486Y2062798D01*
X-1628899Y2056923D01*
X-1635061Y2050042D01*
X-2139639Y1545465D01*
X-2628069Y1057035D01*
X-2628071Y1057032D01*
X-4106023Y-420919D01*
X-4114737Y-428661D01*
X-4131771Y-442090D01*
X-4142045Y-450189D01*
X-4159020Y-474749D01*
X-4175631Y-498783D01*
X-4177438Y-501312D01*
X-4208157Y-542903D01*
X-4212555Y-548858D01*
X-4214946Y-555668D01*
X-4219052Y-561608D01*
X-4221283Y-568661D01*
X-4221285Y-568666D01*
X-4236873Y-617957D01*
X-4237840Y-620856D01*
X-4257432Y-676648D01*
X-4257669Y-682688D01*
X-4258191Y-685367D01*
X-4259892Y-690744D01*
X-4260500Y-698469D01*
X-4260500Y-752787D01*
X-4260576Y-756673D01*
X-4262749Y-811984D01*
X-4261008Y-818551D01*
X-4260500Y-827776D01*
X-4260500Y-1579966D01*
X-4275361Y-1632135D01*
X-4277220Y-1635134D01*
X-4317475Y-1700058D01*
X-4359541Y-1844851D01*
X-4360500Y-1857911D01*
X-4360500Y-3862501D01*
X-4360042Y-3865844D01*
X-4360042Y-3865845D01*
X-4359306Y-3871221D01*
X-4345037Y-3975385D01*
X-4342360Y-3981571D01*
X-4342359Y-3981575D01*
X-4287836Y-4107570D01*
X-4287834Y-4107574D01*
X-4285155Y-4113764D01*
X-4190266Y-4230942D01*
X-4184767Y-4234850D01*
X-4095336Y-4298405D01*
X-4067361Y-4318286D01*
X-4061017Y-4320570D01*
X-4061013Y-4320572D01*
X-3931843Y-4367076D01*
X-3931840Y-4367077D01*
X-3925495Y-4369361D01*
X-3900504Y-4371196D01*
X-3781854Y-4379910D01*
X-3781850Y-4379910D01*
X-3775120Y-4380404D01*
X-3768505Y-4379070D01*
X-3768503Y-4379070D01*
X-3633926Y-4351934D01*
X-3627315Y-4350601D01*
X-3609641Y-4341596D01*
X-3524875Y-4298405D01*
X-3492969Y-4282148D01*
X-3488006Y-4277585D01*
X-3488004Y-4277583D01*
X-3386948Y-4184657D01*
X-3381980Y-4180089D01*
X-3302525Y-4051942D01*
X-3270744Y-3942551D01*
X-3236354Y-3891947D01*
X-3178786Y-3871221D01*
X-3120030Y-3888291D01*
X-3082529Y-3936636D01*
X-3077592Y-3956734D01*
X-3075037Y-3975385D01*
X-3072360Y-3981571D01*
X-3072359Y-3981575D01*
X-3017836Y-4107570D01*
X-3017834Y-4107574D01*
X-3015155Y-4113764D01*
X-2920266Y-4230942D01*
X-2914767Y-4234850D01*
X-2825336Y-4298405D01*
X-2797361Y-4318286D01*
X-2791017Y-4320570D01*
X-2791013Y-4320572D01*
X-2661843Y-4367076D01*
X-2661840Y-4367077D01*
X-2655495Y-4369361D01*
X-2630504Y-4371196D01*
X-2511854Y-4379910D01*
X-2511850Y-4379910D01*
X-2505120Y-4380404D01*
X-2498505Y-4379070D01*
X-2498503Y-4379070D01*
X-2363926Y-4351934D01*
X-2357315Y-4350601D01*
X-2339641Y-4341596D01*
X-2254875Y-4298405D01*
X-2222969Y-4282148D01*
X-2218006Y-4277585D01*
X-2218004Y-4277583D01*
X-2116948Y-4184657D01*
X-2111980Y-4180089D01*
X-2032525Y-4051942D01*
X-2000744Y-3942551D01*
X-1966354Y-3891947D01*
X-1908786Y-3871221D01*
X-1850030Y-3888291D01*
X-1812529Y-3936636D01*
X-1807592Y-3956734D01*
X-1805037Y-3975385D01*
X-1802360Y-3981571D01*
X-1802359Y-3981575D01*
X-1747836Y-4107570D01*
X-1747834Y-4107574D01*
X-1745155Y-4113764D01*
X-1650266Y-4230942D01*
X-1644767Y-4234850D01*
X-1555336Y-4298405D01*
X-1527361Y-4318286D01*
X-1521017Y-4320570D01*
X-1521013Y-4320572D01*
X-1391843Y-4367076D01*
X-1391840Y-4367077D01*
X-1385495Y-4369361D01*
X-1360504Y-4371196D01*
X-1241854Y-4379910D01*
X-1241850Y-4379910D01*
X-1235120Y-4380404D01*
X-1228505Y-4379070D01*
X-1228503Y-4379070D01*
X-1093926Y-4351934D01*
X-1087315Y-4350601D01*
X-1069641Y-4341596D01*
X-984875Y-4298405D01*
X-952969Y-4282148D01*
X-948006Y-4277585D01*
X-948004Y-4277583D01*
X-846948Y-4184657D01*
X-841980Y-4180089D01*
X-762525Y-4051942D01*
X-720459Y-3907149D01*
X-719827Y-3898544D01*
X-719632Y-3895890D01*
X-719632Y-3895883D01*
X-719500Y-3894089D01*
X-719500Y-3425500D01*
X-700593Y-3367309D01*
X-651093Y-3331345D01*
X-620500Y-3326500D01*
X1359123Y-3326500D01*
X1370759Y-3327186D01*
X1405308Y-3331275D01*
X1412585Y-3329946D01*
X1412588Y-3329946D01*
X1443252Y-3324346D01*
X1463435Y-3320659D01*
X1466483Y-3320152D01*
X1496783Y-3315597D01*
X1557138Y-3325644D01*
X1600060Y-3369247D01*
X1610500Y-3413497D01*
X1610500Y-3806319D01*
X1611109Y-3810163D01*
X1611109Y-3810165D01*
X1624687Y-3895890D01*
X1626264Y-3905850D01*
X1629800Y-3912789D01*
X1629800Y-3912790D01*
X1682989Y-4017178D01*
X1686525Y-4024118D01*
X1780382Y-4117975D01*
X1787319Y-4121510D01*
X1787321Y-4121511D01*
X1884725Y-4171141D01*
X1898650Y-4178236D01*
X1906344Y-4179455D01*
X1906345Y-4179455D01*
X1994335Y-4193391D01*
X1994337Y-4193391D01*
X1998181Y-4194000D01*
X2573819Y-4194000D01*
X2577663Y-4193391D01*
X2577665Y-4193391D01*
X2665655Y-4179455D01*
X2665656Y-4179455D01*
X2673350Y-4178236D01*
X2687275Y-4171141D01*
X2784679Y-4121511D01*
X2784681Y-4121510D01*
X2791618Y-4117975D01*
X2885475Y-4024118D01*
X2892387Y-4010553D01*
X2935653Y-3967290D01*
X2980596Y-3956500D01*
X3299617Y-3956500D01*
X3299647Y-3956502D01*
X3299662Y-3956507D01*
X3426530Y-3956507D01*
X3449471Y-3949053D01*
X3464572Y-3945428D01*
X3471295Y-3944363D01*
X3488402Y-3941653D01*
X3509892Y-3930703D01*
X3524241Y-3924759D01*
X3547189Y-3917303D01*
X3566706Y-3903123D01*
X3579945Y-3895009D01*
X3601443Y-3884056D01*
X3691152Y-3794347D01*
X3691159Y-3794332D01*
X3691180Y-3794308D01*
X3709896Y-3775592D01*
X3764413Y-3747815D01*
X3779900Y-3746596D01*
X4528000Y-3746596D01*
X4571800Y-3737883D01*
X4597076Y-3732856D01*
X4597078Y-3732855D01*
X4606641Y-3730953D01*
X4673310Y-3686406D01*
X4685136Y-3668707D01*
X4733185Y-3630828D01*
X4794323Y-3628426D01*
X4845197Y-3662418D01*
X4849332Y-3668062D01*
X4915740Y-3765778D01*
X5030931Y-3887590D01*
X5083209Y-3942872D01*
X5087167Y-3947058D01*
X5090321Y-3949469D01*
X5090325Y-3949473D01*
X5282212Y-4096181D01*
X5282218Y-4096185D01*
X5285373Y-4098597D01*
X5288875Y-4100475D01*
X5288877Y-4100476D01*
X5463298Y-4194000D01*
X5505257Y-4216498D01*
X5741163Y-4297727D01*
X5873422Y-4320572D01*
X5983946Y-4339663D01*
X5983948Y-4339663D01*
X5987021Y-4340194D01*
X6010743Y-4341271D01*
X6016791Y-4341546D01*
X6016797Y-4341546D01*
X6017895Y-4341596D01*
X6190143Y-4341596D01*
X6192118Y-4341437D01*
X6192120Y-4341437D01*
X6372732Y-4326905D01*
X6372734Y-4326905D01*
X6376695Y-4326586D01*
X6618992Y-4267073D01*
X6813152Y-4184657D01*
X6844994Y-4171141D01*
X6844996Y-4171140D01*
X6848657Y-4169586D01*
X6852021Y-4167468D01*
X6852024Y-4167466D01*
X6958402Y-4100476D01*
X7059781Y-4036634D01*
X7201004Y-3912129D01*
X7243950Y-3874267D01*
X7243951Y-3874266D01*
X7246933Y-3871637D01*
X7249453Y-3868570D01*
X7249458Y-3868564D01*
X7402774Y-3681914D01*
X7402775Y-3681912D01*
X7405298Y-3678841D01*
X7407299Y-3675403D01*
X7528800Y-3466642D01*
X7528802Y-3466638D01*
X7530800Y-3463205D01*
X7549724Y-3413908D01*
X7581417Y-3331345D01*
X7620213Y-3230278D01*
X7635835Y-3155500D01*
X7670420Y-2989950D01*
X7670421Y-2989946D01*
X7671234Y-2986052D01*
X7671868Y-2972107D01*
X7676666Y-2866429D01*
X7682552Y-2736810D01*
X7682095Y-2732857D01*
X7654333Y-2492910D01*
X7654332Y-2492905D01*
X7653876Y-2488964D01*
X7585942Y-2248892D01*
X7583618Y-2243907D01*
X7492447Y-2048392D01*
X7480499Y-2022769D01*
X7340260Y-1816414D01*
X7168833Y-1635134D01*
X7165679Y-1632723D01*
X7165675Y-1632719D01*
X6973788Y-1486011D01*
X6973782Y-1486007D01*
X6970627Y-1483595D01*
X6944997Y-1469852D01*
X6754242Y-1367570D01*
X6754240Y-1367569D01*
X6750743Y-1365694D01*
X6719993Y-1355106D01*
X6671128Y-1318284D01*
X6653239Y-1259772D01*
X6673159Y-1201920D01*
X6723279Y-1166826D01*
X6752224Y-1162500D01*
X9207073Y-1162500D01*
X9265264Y-1181407D01*
X9301228Y-1230907D01*
X9301228Y-1292093D01*
X9295283Y-1306445D01*
X9265753Y-1364400D01*
X9246264Y-1402650D01*
X9245045Y-1410344D01*
X9245045Y-1410345D01*
X9236175Y-1466347D01*
X9230500Y-1502181D01*
X9230500Y-2002819D01*
X9231109Y-2006663D01*
X9231109Y-2006665D01*
X9236770Y-2042404D01*
X9246264Y-2102350D01*
X9249800Y-2109289D01*
X9249800Y-2109290D01*
X9294284Y-2196593D01*
X9306525Y-2220618D01*
X9400382Y-2314475D01*
X9407319Y-2318010D01*
X9407321Y-2318011D01*
X9498690Y-2364566D01*
X9518650Y-2374736D01*
X9526344Y-2375955D01*
X9526345Y-2375955D01*
X9614335Y-2389891D01*
X9614337Y-2389891D01*
X9618181Y-2390500D01*
X9865889Y-2390500D01*
X9924080Y-2409407D01*
X9935893Y-2419496D01*
X10566316Y-3049919D01*
X10594093Y-3104436D01*
X10592071Y-3143017D01*
X10591132Y-3145285D01*
X10590286Y-3151714D01*
X10590285Y-3151716D01*
X10589787Y-3155500D01*
X10570500Y-3302000D01*
X10591132Y-3458715D01*
X10651622Y-3604750D01*
X10747847Y-3730153D01*
X10873250Y-3826378D01*
X11019285Y-3886868D01*
X11176000Y-3907500D01*
X11332715Y-3886868D01*
X11478750Y-3826378D01*
X11604153Y-3730153D01*
X11608107Y-3725000D01*
X11612691Y-3720416D01*
X11613606Y-3721331D01*
X11658349Y-3690578D01*
X11686470Y-3686500D01*
X11900563Y-3686500D01*
X11957902Y-3705130D01*
X11958690Y-3706310D01*
X11963839Y-3709751D01*
X11963842Y-3709753D01*
X12000291Y-3734107D01*
X12025359Y-3750857D01*
X12034922Y-3752759D01*
X12034924Y-3752760D01*
X12060200Y-3757787D01*
X12104000Y-3766500D01*
X12504000Y-3766500D01*
X12547800Y-3757787D01*
X12573076Y-3752760D01*
X12573078Y-3752759D01*
X12582641Y-3750857D01*
X12649310Y-3706310D01*
X12662610Y-3686406D01*
X12688438Y-3647751D01*
X12693857Y-3639641D01*
X12709500Y-3561000D01*
X12709500Y-3461359D01*
X12721421Y-3417099D01*
X12721072Y-3416961D01*
X12722281Y-3413908D01*
X12722893Y-3411635D01*
X12723797Y-3410079D01*
X12723797Y-3410078D01*
X12727513Y-3403681D01*
X12735495Y-3369247D01*
X12744296Y-3331275D01*
X12758096Y-3271738D01*
X12748530Y-3136636D01*
X12716169Y-3052987D01*
X12709500Y-3017267D01*
X12709500Y-2911000D01*
X12695924Y-2842750D01*
X12695760Y-2841924D01*
X12695759Y-2841922D01*
X12693857Y-2832359D01*
X12688438Y-2824249D01*
X12688081Y-2823387D01*
X12683280Y-2762390D01*
X12715249Y-2710221D01*
X12771776Y-2686805D01*
X12779545Y-2686500D01*
X13104500Y-2686500D01*
X13162691Y-2705407D01*
X13198655Y-2754907D01*
X13203500Y-2785500D01*
X13203500Y-2876112D01*
X13201598Y-2895424D01*
X13198500Y-2911000D01*
X13198500Y-3561000D01*
X13214143Y-3639641D01*
X13219562Y-3647751D01*
X13245391Y-3686406D01*
X13258690Y-3706310D01*
X13325359Y-3750857D01*
X13334922Y-3752759D01*
X13334924Y-3752760D01*
X13360200Y-3757787D01*
X13404000Y-3766500D01*
X13804000Y-3766500D01*
X13847800Y-3757787D01*
X13873076Y-3752760D01*
X13873078Y-3752759D01*
X13882641Y-3750857D01*
X13949310Y-3706310D01*
X13962610Y-3686406D01*
X13988438Y-3647751D01*
X13993857Y-3639641D01*
X14009500Y-3561000D01*
X14009500Y-2911000D01*
X14006402Y-2895424D01*
X14004500Y-2876112D01*
X14004500Y-2491479D01*
X14004502Y-2491449D01*
X14004507Y-2491434D01*
X14004507Y-2364566D01*
X14002079Y-2357093D01*
X13997053Y-2341623D01*
X13993427Y-2326520D01*
X13990872Y-2310389D01*
X13990872Y-2310388D01*
X13989653Y-2302694D01*
X13986116Y-2295753D01*
X13986115Y-2295749D01*
X13978701Y-2281198D01*
X13972757Y-2266848D01*
X13967712Y-2251321D01*
X13967709Y-2251315D01*
X13965302Y-2243907D01*
X13960722Y-2237603D01*
X13951124Y-2224392D01*
X13943009Y-2211149D01*
X13935592Y-2196593D01*
X13932056Y-2189653D01*
X13842347Y-2099944D01*
X13842334Y-2099937D01*
X13842306Y-2099913D01*
X13790088Y-2047696D01*
X13790063Y-2047666D01*
X13790056Y-2047653D01*
X13700347Y-1957944D01*
X13678849Y-1946991D01*
X13665608Y-1938876D01*
X13653673Y-1930204D01*
X13646093Y-1924697D01*
X13623145Y-1917241D01*
X13608794Y-1911296D01*
X13587306Y-1900347D01*
X13570199Y-1897637D01*
X13563476Y-1896572D01*
X13548377Y-1892947D01*
X13532842Y-1887900D01*
X13532843Y-1887900D01*
X13525434Y-1885493D01*
X13429548Y-1885493D01*
X13371357Y-1866586D01*
X13335393Y-1817086D01*
X13335393Y-1755900D01*
X13338084Y-1748606D01*
X13338438Y-1747750D01*
X13343857Y-1739641D01*
X13346405Y-1726835D01*
X13356375Y-1676709D01*
X13359500Y-1661000D01*
X13359500Y-1011000D01*
X13356402Y-995424D01*
X13354500Y-976112D01*
X13354500Y444521D01*
X13354502Y444551D01*
X13354507Y444566D01*
X13354507Y571434D01*
X13352095Y578858D01*
X13347053Y594377D01*
X13343427Y609480D01*
X13340872Y625611D01*
X13340872Y625612D01*
X13339653Y633306D01*
X13336116Y640247D01*
X13336115Y640251D01*
X13328701Y654802D01*
X13322757Y669152D01*
X13317712Y684679D01*
X13317709Y684685D01*
X13315302Y692093D01*
X13301124Y711608D01*
X13293009Y724851D01*
X13285592Y739407D01*
X13282056Y746347D01*
X13192347Y836056D01*
X13192334Y836063D01*
X13192311Y836082D01*
X12641496Y1386897D01*
X12613719Y1441414D01*
X12612500Y1456901D01*
X12612500Y2412293D01*
X12631407Y2470484D01*
X12641496Y2482297D01*
X15028023Y4868823D01*
X15036737Y4876565D01*
X15058232Y4893510D01*
X15058233Y4893511D01*
X15064045Y4898093D01*
X15097660Y4946729D01*
X15099416Y4949186D01*
X15134555Y4996761D01*
X15136947Y5003573D01*
X15141052Y5009512D01*
X15158865Y5065837D01*
X15159850Y5068789D01*
X15176979Y5117565D01*
X15176980Y5117569D01*
X15179432Y5124552D01*
X15179669Y5130593D01*
X15180191Y5133269D01*
X15181892Y5138648D01*
X15182500Y5146373D01*
X15182500Y5200691D01*
X15182576Y5204577D01*
X15184459Y5252494D01*
X15184459Y5252497D01*
X15184749Y5259888D01*
X15183008Y5266455D01*
X15182500Y5275680D01*
X15182500Y8458500D01*
X15201407Y8516691D01*
X15250907Y8552655D01*
X15281500Y8557500D01*
X15430500Y8557500D01*
X15474300Y8566213D01*
X15499576Y8571240D01*
X15499578Y8571241D01*
X15509141Y8573143D01*
X15575810Y8617690D01*
X15620357Y8684359D01*
X15636000Y8763000D01*
X15636000Y9652000D01*
X15620357Y9730641D01*
X15597047Y9765526D01*
X15581229Y9789200D01*
X15575810Y9797310D01*
X15509141Y9841857D01*
X15499578Y9843759D01*
X15499576Y9843760D01*
X15474300Y9848787D01*
X15430500Y9857500D01*
X14033500Y9857500D01*
X13989700Y9848787D01*
X13964424Y9843760D01*
X13964422Y9843759D01*
X13954859Y9841857D01*
X13946749Y9836438D01*
X13946747Y9836437D01*
X13918939Y9817857D01*
X13860051Y9801249D01*
X13802648Y9822427D01*
X13793935Y9830169D01*
X13378996Y10245108D01*
X13351219Y10299625D01*
X13350000Y10315112D01*
X13350000Y10985500D01*
X13349052Y10990267D01*
X13348853Y10992285D01*
X13361965Y11052049D01*
X13407702Y11092692D01*
X13447376Y11100989D01*
X13729000Y11100989D01*
X13787191Y11082082D01*
X13823155Y11032582D01*
X13828000Y11001989D01*
X13828000Y10668000D01*
X13843643Y10589359D01*
X13888190Y10522690D01*
X13954859Y10478143D01*
X13964422Y10476241D01*
X13964424Y10476240D01*
X13989700Y10471213D01*
X14033500Y10462500D01*
X15430500Y10462500D01*
X15474300Y10471213D01*
X15499576Y10476240D01*
X15499578Y10476241D01*
X15509141Y10478143D01*
X15575810Y10522690D01*
X15620357Y10589359D01*
X15636000Y10668000D01*
X15636000Y11557000D01*
X15620357Y11635641D01*
X15592743Y11676968D01*
X15581229Y11694200D01*
X15575810Y11702310D01*
X15557121Y11714798D01*
X15531639Y11731824D01*
X15509141Y11746857D01*
X15499578Y11748759D01*
X15499576Y11748760D01*
X15474300Y11753787D01*
X15430500Y11762500D01*
X14760112Y11762500D01*
X14701921Y11781407D01*
X14690108Y11791496D01*
X14634092Y11847512D01*
X14626350Y11856226D01*
X14609405Y11877721D01*
X14609404Y11877722D01*
X14604822Y11883534D01*
X14565671Y11910593D01*
X14556228Y11917120D01*
X14553699Y11918927D01*
X14512108Y11949646D01*
X14512106Y11949647D01*
X14506153Y11954044D01*
X14499343Y11956435D01*
X14493403Y11960541D01*
X14486350Y11962772D01*
X14486345Y11962774D01*
X14443388Y11976359D01*
X14437040Y11978367D01*
X14434155Y11979329D01*
X14378363Y11998921D01*
X14372323Y11999158D01*
X14369644Y11999680D01*
X14364267Y12001381D01*
X14358646Y12001823D01*
X14358643Y12001824D01*
X14358557Y12001830D01*
X14356542Y12001989D01*
X14302224Y12001989D01*
X14298338Y12002065D01*
X14250421Y12003948D01*
X14250418Y12003948D01*
X14243027Y12004238D01*
X14236460Y12002497D01*
X14227235Y12001989D01*
X10884866Y12001989D01*
X10873230Y12002675D01*
X10871757Y12002849D01*
X10838681Y12006764D01*
X10831404Y12005435D01*
X10831401Y12005435D01*
X10809205Y12001381D01*
X10780554Y11996148D01*
X10777518Y11995643D01*
X10719054Y11986853D01*
X10712546Y11983728D01*
X10705444Y11982431D01*
X10698878Y11979020D01*
X10698877Y11979020D01*
X10653014Y11955196D01*
X10650235Y11953807D01*
X10596960Y11928224D01*
X10592522Y11924122D01*
X10590257Y11922596D01*
X10585253Y11919996D01*
X10580968Y11916337D01*
X10580965Y11916335D01*
X10580837Y11916226D01*
X10580826Y11916216D01*
X10579360Y11914964D01*
X10540922Y11876526D01*
X10538120Y11873833D01*
X10497503Y11836287D01*
X10494091Y11830412D01*
X10487933Y11823537D01*
X10484004Y11819608D01*
X10429487Y11791831D01*
X10369055Y11801402D01*
X10343996Y11819608D01*
X9255592Y12908012D01*
X9247850Y12916726D01*
X9230905Y12938221D01*
X9230904Y12938222D01*
X9226322Y12944034D01*
X9200055Y12962189D01*
X9177728Y12977620D01*
X9175199Y12979427D01*
X9133608Y13010146D01*
X9133606Y13010147D01*
X9127653Y13014544D01*
X9120843Y13016935D01*
X9114903Y13021041D01*
X9107850Y13023272D01*
X9107845Y13023274D01*
X9070070Y13035220D01*
X9058540Y13038867D01*
X9055655Y13039829D01*
X8999863Y13059421D01*
X8993823Y13059658D01*
X8991144Y13060180D01*
X8985767Y13061881D01*
X8980146Y13062323D01*
X8980143Y13062324D01*
X8980057Y13062330D01*
X8978042Y13062489D01*
X8923724Y13062489D01*
X8919838Y13062565D01*
X8871921Y13064448D01*
X8871918Y13064448D01*
X8864527Y13064738D01*
X8857960Y13062997D01*
X8848735Y13062489D01*
X7055866Y13062489D01*
X7044230Y13063175D01*
X7042757Y13063349D01*
X7009681Y13067264D01*
X7002404Y13065935D01*
X7002401Y13065935D01*
X6980205Y13061881D01*
X6951554Y13056648D01*
X6948518Y13056143D01*
X6890054Y13047353D01*
X6883546Y13044228D01*
X6876444Y13042931D01*
X6869878Y13039520D01*
X6869877Y13039520D01*
X6824014Y13015696D01*
X6821235Y13014307D01*
X6767960Y12988724D01*
X6763521Y12984621D01*
X6761260Y12983097D01*
X6756253Y12980496D01*
X6750361Y12975464D01*
X6711933Y12937036D01*
X6709131Y12934343D01*
X6668503Y12896787D01*
X6665089Y12890911D01*
X6658929Y12884033D01*
X6561981Y12787085D01*
X6553269Y12779344D01*
X6525955Y12757811D01*
X6521748Y12751724D01*
X6521747Y12751723D01*
X6492369Y12709217D01*
X6490562Y12706688D01*
X6459843Y12665097D01*
X6455445Y12659142D01*
X6453054Y12652332D01*
X6448948Y12646392D01*
X6446717Y12639339D01*
X6446715Y12639334D01*
X6431127Y12590043D01*
X6430160Y12587144D01*
X6410568Y12531352D01*
X6410331Y12525312D01*
X6409809Y12522633D01*
X6408108Y12517256D01*
X6407500Y12509531D01*
X6407500Y12455213D01*
X6407424Y12451327D01*
X6405251Y12396016D01*
X6406992Y12389449D01*
X6407500Y12380224D01*
X6407500Y11968594D01*
X6388593Y11910403D01*
X6339093Y11874439D01*
X6327815Y11871497D01*
X6288926Y11863761D01*
X6288922Y11863759D01*
X6279359Y11861857D01*
X6271253Y11856441D01*
X6270884Y11856288D01*
X6209888Y11851489D01*
X6195116Y11856288D01*
X6194747Y11856441D01*
X6186641Y11861857D01*
X6108000Y11877500D01*
X5558000Y11877500D01*
X5545755Y11875064D01*
X5524628Y11873179D01*
X5514340Y11873367D01*
X5499966Y11873631D01*
X5496474Y11873196D01*
X5496472Y11873196D01*
X5445638Y11866865D01*
X5445637Y11866865D01*
X5442146Y11866430D01*
X5438756Y11865506D01*
X5438752Y11865505D01*
X5383525Y11850448D01*
X5305373Y11829141D01*
X5302148Y11827745D01*
X5302144Y11827744D01*
X5282962Y11819443D01*
X5251900Y11806001D01*
X5248901Y11804159D01*
X5248896Y11804157D01*
X5134098Y11733671D01*
X5131090Y11731824D01*
X5086260Y11694605D01*
X4991125Y11589501D01*
X4984905Y11580279D01*
X4960511Y11544115D01*
X4960508Y11544109D01*
X4958544Y11541198D01*
X4957010Y11538033D01*
X4957010Y11538032D01*
X4947781Y11518983D01*
X4896732Y11413619D01*
X4879017Y11358111D01*
X4878434Y11354644D01*
X4878432Y11354637D01*
X4855815Y11220202D01*
X4855497Y11218310D01*
X4852664Y11186722D01*
X4852641Y11184809D01*
X4852543Y11176766D01*
X4852515Y11174506D01*
X4852514Y11174293D01*
X4852500Y11172000D01*
X4852500Y11039500D01*
X4833593Y10981309D01*
X4784093Y10945345D01*
X4753500Y10940500D01*
X4214101Y10940500D01*
X4155910Y10959407D01*
X4144097Y10969496D01*
X4061618Y11051975D01*
X4054681Y11055510D01*
X4054679Y11055511D01*
X3950290Y11108700D01*
X3950289Y11108700D01*
X3943350Y11112236D01*
X3935656Y11113455D01*
X3935655Y11113455D01*
X3847665Y11127391D01*
X3847663Y11127391D01*
X3843819Y11128000D01*
X3268181Y11128000D01*
X3264337Y11127391D01*
X3264335Y11127391D01*
X3176345Y11113455D01*
X3176344Y11113455D01*
X3168650Y11112236D01*
X3161711Y11108700D01*
X3161710Y11108700D01*
X3057321Y11055511D01*
X3057319Y11055510D01*
X3050382Y11051975D01*
X2967903Y10969496D01*
X2913386Y10941719D01*
X2897899Y10940500D01*
X1990023Y10940500D01*
X1935021Y10957185D01*
X1886751Y10989438D01*
X1878641Y10994857D01*
X1869078Y10996759D01*
X1869076Y10996760D01*
X1842787Y11001989D01*
X1800000Y11010500D01*
X740000Y11010500D01*
X697213Y11001989D01*
X670924Y10996760D01*
X670922Y10996759D01*
X661359Y10994857D01*
X653249Y10989438D01*
X610080Y10960593D01*
X594690Y10950310D01*
X550143Y10883641D01*
X548241Y10874078D01*
X548240Y10874076D01*
X543912Y10852316D01*
X534500Y10805000D01*
X534500Y10155000D01*
X542760Y10113475D01*
X546269Y10095836D01*
X550143Y10076359D01*
X561691Y10059076D01*
X586544Y10021882D01*
X594690Y10009690D01*
X661359Y9965143D01*
X670922Y9963241D01*
X670924Y9963240D01*
X739814Y9949537D01*
X793198Y9919640D01*
X818814Y9864075D01*
X819500Y9852439D01*
X819500Y8482611D01*
X800593Y8424420D01*
X790504Y8412607D01*
X702393Y8324496D01*
X647876Y8296719D01*
X632389Y8295500D01*
X384681Y8295500D01*
X380837Y8294891D01*
X380835Y8294891D01*
X292845Y8280955D01*
X292844Y8280955D01*
X285150Y8279736D01*
X278211Y8276200D01*
X278210Y8276200D01*
X173821Y8223011D01*
X173819Y8223010D01*
X166882Y8219475D01*
X73025Y8125618D01*
X69489Y8118679D01*
X64908Y8112373D01*
X62243Y8114309D01*
X29193Y8081278D01*
X-15727Y8070500D01*
X-720500Y8070500D01*
X-778691Y8089407D01*
X-814655Y8138907D01*
X-819500Y8169500D01*
X-819500Y8375622D01*
X-818814Y8387258D01*
X-815814Y8412607D01*
X-814725Y8421807D01*
X-825344Y8479953D01*
X-825849Y8482985D01*
X-825901Y8483335D01*
X-834636Y8541435D01*
X-837761Y8547943D01*
X-839058Y8555045D01*
X-847470Y8571240D01*
X-866293Y8607475D01*
X-867683Y8610256D01*
X-875147Y8625800D01*
X-893265Y8663529D01*
X-897368Y8667968D01*
X-898892Y8670229D01*
X-901493Y8675236D01*
X-906525Y8681128D01*
X-944951Y8719554D01*
X-947645Y8722357D01*
X-980178Y8757551D01*
X-985202Y8762986D01*
X-991077Y8766399D01*
X-997958Y8772561D01*
X-2126260Y9900863D01*
X-2154036Y9955379D01*
X-2144465Y10015811D01*
X-2101200Y10059076D01*
X-2040768Y10068647D01*
X-2026404Y10065258D01*
X-1988044Y10053127D01*
X-1985144Y10052160D01*
X-1929352Y10032568D01*
X-1923312Y10032331D01*
X-1920633Y10031809D01*
X-1915256Y10030108D01*
X-1909635Y10029666D01*
X-1909632Y10029665D01*
X-1909546Y10029659D01*
X-1907531Y10029500D01*
X-1853213Y10029500D01*
X-1849327Y10029424D01*
X-1801410Y10027541D01*
X-1801407Y10027541D01*
X-1794016Y10027251D01*
X-1787449Y10028992D01*
X-1778224Y10029500D01*
X-1663437Y10029500D01*
X-1606098Y10010870D01*
X-1605310Y10009690D01*
X-1600161Y10006249D01*
X-1600158Y10006247D01*
X-1561786Y9980608D01*
X-1538641Y9965143D01*
X-1529078Y9963241D01*
X-1529076Y9963240D01*
X-1503800Y9958213D01*
X-1460000Y9949500D01*
X-400000Y9949500D01*
X-356200Y9958213D01*
X-330924Y9963240D01*
X-330922Y9963241D01*
X-321359Y9965143D01*
X-254690Y10009690D01*
X-246543Y10021882D01*
X-221691Y10059076D01*
X-210143Y10076359D01*
X-206268Y10095836D01*
X-202760Y10113475D01*
X-194500Y10155000D01*
X-194500Y10805000D01*
X-203912Y10852316D01*
X-208240Y10874076D01*
X-208241Y10874078D01*
X-210143Y10883641D01*
X-254690Y10950310D01*
X-270079Y10960593D01*
X-313249Y10989438D01*
X-321359Y10994857D01*
X-330922Y10996759D01*
X-330924Y10996760D01*
X-357213Y11001989D01*
X-400000Y11010500D01*
X-1460000Y11010500D01*
X-1502787Y11001989D01*
X-1529076Y10996760D01*
X-1529078Y10996759D01*
X-1538641Y10994857D01*
X-1580856Y10966650D01*
X-1639740Y10950042D01*
X-1697144Y10971219D01*
X-1705859Y10978962D01*
X-1925851Y11198954D01*
X-1953628Y11253471D01*
X-1954000Y11281880D01*
X-1935347Y11423566D01*
X-1934500Y11430000D01*
X-1955132Y11586715D01*
X-2015622Y11732750D01*
X-2044385Y11770235D01*
X-2064808Y11827908D01*
X-2047431Y11886574D01*
X-1998889Y11923821D01*
X-1965842Y11929500D01*
X-1663437Y11929500D01*
X-1606098Y11910870D01*
X-1605310Y11909690D01*
X-1600161Y11906249D01*
X-1600158Y11906247D01*
X-1555716Y11876552D01*
X-1538641Y11865143D01*
X-1529078Y11863241D01*
X-1529076Y11863240D01*
X-1514028Y11860247D01*
X-1460000Y11849500D01*
X-400000Y11849500D01*
X-345972Y11860247D01*
X-330924Y11863240D01*
X-330922Y11863241D01*
X-321359Y11865143D01*
X-254690Y11909690D01*
X-210143Y11976359D01*
X-208055Y11986853D01*
X-197106Y12041899D01*
X-194500Y12055000D01*
X-194500Y12705000D01*
X534500Y12705000D01*
X534500Y12055000D01*
X537106Y12041899D01*
X548056Y11986853D01*
X550143Y11976359D01*
X594690Y11909690D01*
X661359Y11865143D01*
X670922Y11863241D01*
X670924Y11863240D01*
X685972Y11860247D01*
X740000Y11849500D01*
X1800000Y11849500D01*
X1854028Y11860247D01*
X1869076Y11863240D01*
X1869078Y11863241D01*
X1878641Y11865143D01*
X1945310Y11909690D01*
X1989857Y11976359D01*
X1991945Y11986853D01*
X2002894Y12041899D01*
X2005500Y12055000D01*
X2005500Y12705000D01*
X1989857Y12783641D01*
X1945310Y12850310D01*
X1878641Y12894857D01*
X1869078Y12896759D01*
X1869076Y12896760D01*
X1843672Y12901813D01*
X1800000Y12910500D01*
X740000Y12910500D01*
X696328Y12901813D01*
X670924Y12896760D01*
X670922Y12896759D01*
X661359Y12894857D01*
X594690Y12850310D01*
X550143Y12783641D01*
X534500Y12705000D01*
X-194500Y12705000D01*
X-210143Y12783641D01*
X-254690Y12850310D01*
X-321359Y12894857D01*
X-330922Y12896759D01*
X-330924Y12896760D01*
X-356328Y12901813D01*
X-400000Y12910500D01*
X-1460000Y12910500D01*
X-1503672Y12901813D01*
X-1529076Y12896760D01*
X-1529078Y12896759D01*
X-1538641Y12894857D01*
X-1605310Y12850310D01*
X-1606873Y12852648D01*
X-1647950Y12831719D01*
X-1663437Y12830500D01*
X-2438000Y12830500D01*
X-2496191Y12849407D01*
X-2532155Y12898907D01*
X-2537000Y12929500D01*
X-2537000Y12987819D01*
X-2537609Y12991665D01*
X-2551545Y13079655D01*
X-2551545Y13079656D01*
X-2552764Y13087350D01*
X-2613025Y13205618D01*
X-2706882Y13299475D01*
X-2713819Y13303010D01*
X-2713821Y13303011D01*
X-2818210Y13356200D01*
X-2818211Y13356200D01*
X-2825150Y13359736D01*
X-2832844Y13360955D01*
X-2832845Y13360955D01*
X-2920835Y13374891D01*
X-2920837Y13374891D01*
X-2924681Y13375500D01*
X-3425319Y13375500D01*
X-3429163Y13374891D01*
X-3429165Y13374891D01*
X-3517155Y13360955D01*
X-3517156Y13360955D01*
X-3524850Y13359736D01*
X-3531789Y13356200D01*
X-3531790Y13356200D01*
X-3636179Y13303011D01*
X-3636181Y13303010D01*
X-3643118Y13299475D01*
X-3736975Y13205618D01*
X-3797236Y13087350D01*
X-3798455Y13079656D01*
X-3798455Y13079655D01*
X-3812391Y12991665D01*
X-3813000Y12987819D01*
X-3813000Y12412181D01*
X-3812391Y12408337D01*
X-3812391Y12408335D01*
X-3809096Y12387534D01*
X-3797236Y12312650D01*
X-3736975Y12194382D01*
X-3654496Y12111903D01*
X-3626719Y12057386D01*
X-3625500Y12041899D01*
X-3625500Y11979500D01*
X-3644407Y11921309D01*
X-3693907Y11885345D01*
X-3724500Y11880500D01*
X-5508102Y11880500D01*
X-5519738Y11881186D01*
X-5521211Y11881360D01*
X-5554287Y11885275D01*
X-5561564Y11883946D01*
X-5561565Y11883946D01*
X-5573788Y11881713D01*
X-5612433Y11874656D01*
X-5615447Y11874154D01*
X-5673915Y11865364D01*
X-5680423Y11862239D01*
X-5687525Y11860942D01*
X-5694091Y11857531D01*
X-5694092Y11857531D01*
X-5739955Y11833707D01*
X-5742734Y11832318D01*
X-5796009Y11806735D01*
X-5800448Y11802632D01*
X-5802709Y11801108D01*
X-5807716Y11798507D01*
X-5813608Y11793475D01*
X-5852034Y11755049D01*
X-5854836Y11752356D01*
X-5895466Y11714798D01*
X-5898879Y11708923D01*
X-5905041Y11702042D01*
X-7403088Y10203996D01*
X-7457605Y10176219D01*
X-7473092Y10175000D01*
X-8191500Y10175000D01*
X-8235300Y10166287D01*
X-8260576Y10161260D01*
X-8260578Y10161259D01*
X-8270141Y10159357D01*
X-8336810Y10114810D01*
X-8381357Y10048141D01*
X-8383259Y10038578D01*
X-8383260Y10038576D01*
X-8387354Y10017994D01*
X-8397000Y9969500D01*
X-8397000Y9426112D01*
X-8415907Y9367921D01*
X-8425996Y9356108D01*
X-9493927Y8288177D01*
X-9502642Y8280435D01*
X-9529949Y8258907D01*
X-9530218Y8259248D01*
X-9579493Y8232158D01*
X-9598046Y8230404D01*
X-10449539Y8230404D01*
X-10489568Y8238858D01*
X-10503606Y8245064D01*
X-10569591Y8274235D01*
X-10618422Y8280404D01*
X-12081389Y8280404D01*
X-12139580Y8299311D01*
X-12175544Y8348811D01*
X-12175544Y8409997D01*
X-12151393Y8449408D01*
X-12100393Y8500408D01*
X-12045876Y8528185D01*
X-12030389Y8529404D01*
X-10627961Y8529404D01*
X-10542847Y8543571D01*
X-10524115Y8553678D01*
X-10491568Y8571240D01*
X-10440112Y8599004D01*
X-10429710Y8610256D01*
X-10391908Y8651150D01*
X-10360870Y8684726D01*
X-10357562Y8692209D01*
X-10357560Y8692212D01*
X-10328372Y8758237D01*
X-10313669Y8791495D01*
X-10307500Y8840326D01*
X-10307500Y9209943D01*
X-10321667Y9295057D01*
X-10377100Y9397792D01*
X-10462822Y9477034D01*
X-10470305Y9480342D01*
X-10470308Y9480344D01*
X-10542712Y9512352D01*
X-10569591Y9524235D01*
X-10618422Y9530404D01*
X-12088039Y9530404D01*
X-12125102Y9524235D01*
X-12165081Y9517581D01*
X-12165083Y9517580D01*
X-12173153Y9516237D01*
X-12221218Y9490303D01*
X-12250436Y9480042D01*
X-12280421Y9474566D01*
X-12283482Y9474056D01*
X-12341935Y9465268D01*
X-12348443Y9462143D01*
X-12355545Y9460846D01*
X-12362111Y9457435D01*
X-12362112Y9457435D01*
X-12407975Y9433611D01*
X-12410754Y9432222D01*
X-12464029Y9406639D01*
X-12468467Y9402537D01*
X-12470732Y9401011D01*
X-12475736Y9398411D01*
X-12480021Y9394752D01*
X-12480024Y9394750D01*
X-12480152Y9394641D01*
X-12480163Y9394631D01*
X-12481629Y9393379D01*
X-12520067Y9354941D01*
X-12522869Y9352248D01*
X-12563486Y9314702D01*
X-12566898Y9308827D01*
X-12573056Y9301952D01*
X-12954033Y8920975D01*
X-12962748Y8913233D01*
X-12990055Y8891705D01*
X-13002443Y8873781D01*
X-13023641Y8843111D01*
X-13025448Y8840582D01*
X-13060565Y8793036D01*
X-13062956Y8786226D01*
X-13067062Y8780286D01*
X-13069293Y8773233D01*
X-13069295Y8773228D01*
X-13084883Y8723937D01*
X-13085850Y8721038D01*
X-13105442Y8665246D01*
X-13105679Y8659206D01*
X-13106201Y8656527D01*
X-13107902Y8651150D01*
X-13108510Y8643425D01*
X-13108510Y8589107D01*
X-13108586Y8585221D01*
X-13110306Y8541435D01*
X-13110759Y8529910D01*
X-13109018Y8523343D01*
X-13108510Y8514118D01*
X-13108510Y-648209D01*
X-13109196Y-659845D01*
X-13113285Y-694394D01*
X-15548000Y-694394D01*
X-15548000Y10469482D01*
X-12408500Y10469482D01*
X-12408500Y10099865D01*
X-12394333Y10014751D01*
X-12390446Y10007547D01*
X-12388678Y10004271D01*
X-12338900Y9912016D01*
X-12253178Y9832774D01*
X-12245695Y9829466D01*
X-12245692Y9829464D01*
X-12199279Y9808946D01*
X-12146409Y9785573D01*
X-12097578Y9779404D01*
X-10627961Y9779404D01*
X-10542847Y9793571D01*
X-10498444Y9817530D01*
X-10451432Y9829404D01*
X-9944603Y9829404D01*
X-9884337Y9808946D01*
X-9827750Y9765526D01*
X-9681715Y9705036D01*
X-9525000Y9684404D01*
X-9368285Y9705036D01*
X-9222250Y9765526D01*
X-9096847Y9861751D01*
X-9000622Y9987154D01*
X-8940132Y10133189D01*
X-8919500Y10289904D01*
X-8940132Y10446619D01*
X-9000622Y10592654D01*
X-9096847Y10718057D01*
X-9222250Y10814282D01*
X-9344725Y10865013D01*
X-9362288Y10872288D01*
X-9368285Y10874772D01*
X-9525000Y10895404D01*
X-9681715Y10874772D01*
X-9687712Y10872288D01*
X-9705275Y10865013D01*
X-9827750Y10814282D01*
X-9832899Y10810331D01*
X-9910401Y10750862D01*
X-9970668Y10730404D01*
X-10449539Y10730404D01*
X-10489568Y10738858D01*
X-10516721Y10750862D01*
X-10569591Y10774235D01*
X-10618422Y10780404D01*
X-12088039Y10780404D01*
X-12173153Y10766237D01*
X-12275888Y10710804D01*
X-12355130Y10625082D01*
X-12358438Y10617599D01*
X-12358440Y10617596D01*
X-12366694Y10598924D01*
X-12402331Y10518313D01*
X-12408500Y10469482D01*
X-15548000Y10469482D01*
X-15548000Y13800904D01*
X-15529093Y13859095D01*
X-15479593Y13895059D01*
X-15449000Y13899904D01*
X21453000Y13899904D01*
X21511191Y13880997D01*
G37*
G04 #@! TD.AperFunction*
G04 #@! TA.AperFunction,Conductor*
G36*
X2370580Y1308593D02*
G01*
X2382393Y1298504D01*
X2564997Y1115900D01*
X2592774Y1061383D01*
X2583203Y1000951D01*
X2539938Y957686D01*
X2514309Y948798D01*
X2469359Y939857D01*
X2402690Y895310D01*
X2358143Y828641D01*
X2342500Y750000D01*
X2342500Y599000D01*
X2323593Y540809D01*
X2274093Y504845D01*
X2243500Y500000D01*
X2126081Y500000D01*
X2125776Y499931D01*
X2124987Y499887D01*
X2113732Y499897D01*
X2113729Y499896D01*
X2102583Y499906D01*
X2091697Y494679D01*
X2070869Y487406D01*
X2069970Y487201D01*
X2069969Y487201D01*
X2059100Y484721D01*
X2050381Y477773D01*
X2049874Y477369D01*
X2031024Y465544D01*
X2020384Y460435D01*
X2013423Y451731D01*
X2013421Y451729D01*
X2012846Y451009D01*
X1997231Y435420D01*
X1987788Y427895D01*
X1982945Y417855D01*
X1982943Y417852D01*
X1982659Y417262D01*
X1970809Y398443D01*
X1963435Y389222D01*
X1960936Y378356D01*
X1960935Y378353D01*
X1960729Y377457D01*
X1953419Y356641D01*
X1953017Y355808D01*
X1953016Y355805D01*
X1948174Y345766D01*
X1948155Y323377D01*
X1948109Y322575D01*
X1948000Y322101D01*
X1948000Y-321919D01*
X1948069Y-322224D01*
X1948113Y-323013D01*
X1948103Y-334268D01*
X1948104Y-334271D01*
X1948094Y-345417D01*
X1952919Y-355466D01*
X1953320Y-356300D01*
X1960594Y-377131D01*
X1963279Y-388900D01*
X1970227Y-397619D01*
X1970631Y-398126D01*
X1982456Y-416976D01*
X1987565Y-427616D01*
X1996269Y-434577D01*
X1996271Y-434579D01*
X1996991Y-435154D01*
X2012580Y-450769D01*
X2020105Y-460212D01*
X2030145Y-465055D01*
X2030148Y-465057D01*
X2030738Y-465341D01*
X2049557Y-477191D01*
X2058778Y-484565D01*
X2069644Y-487064D01*
X2069647Y-487065D01*
X2070543Y-487271D01*
X2091359Y-494581D01*
X2092192Y-494983D01*
X2092195Y-494984D01*
X2102234Y-499826D01*
X2124631Y-499845D01*
X2125425Y-499891D01*
X2125899Y-500000D01*
X2243500Y-500000D01*
X2301691Y-518907D01*
X2337655Y-568407D01*
X2342500Y-599000D01*
X2342500Y-750000D01*
X2351213Y-793800D01*
X2355810Y-816910D01*
X2358143Y-828641D01*
X2402690Y-895310D01*
X2469359Y-939857D01*
X2478922Y-941759D01*
X2478924Y-941760D01*
X2504200Y-946787D01*
X2548000Y-955500D01*
X2564187Y-955500D01*
X2622378Y-974407D01*
X2658342Y-1023907D01*
X2658342Y-1085093D01*
X2622378Y-1134593D01*
X2609129Y-1142711D01*
X2596200Y-1149298D01*
X2581852Y-1155241D01*
X2558907Y-1162697D01*
X2539392Y-1176876D01*
X2526151Y-1184991D01*
X2504653Y-1195944D01*
X2414944Y-1285653D01*
X2414937Y-1285668D01*
X2414916Y-1285692D01*
X2386604Y-1314004D01*
X2332087Y-1341781D01*
X2316600Y-1343000D01*
X1998181Y-1343000D01*
X1994337Y-1343609D01*
X1994335Y-1343609D01*
X1906345Y-1357545D01*
X1906344Y-1357545D01*
X1898650Y-1358764D01*
X1891711Y-1362300D01*
X1891710Y-1362300D01*
X1787321Y-1415489D01*
X1787319Y-1415490D01*
X1780382Y-1419025D01*
X1686525Y-1512882D01*
X1682990Y-1519819D01*
X1682989Y-1519821D01*
X1635745Y-1612542D01*
X1626264Y-1631150D01*
X1625045Y-1638844D01*
X1625045Y-1638845D01*
X1611109Y-1726835D01*
X1610500Y-1730681D01*
X1610500Y-1978388D01*
X1591593Y-2036579D01*
X1581504Y-2048392D01*
X1233392Y-2396504D01*
X1178875Y-2424281D01*
X1163388Y-2425500D01*
X-620500Y-2425500D01*
X-678691Y-2406593D01*
X-714655Y-2357093D01*
X-719500Y-2326500D01*
X-719500Y-1889499D01*
X-720856Y-1879596D01*
X-724793Y-1850857D01*
X-734963Y-1776615D01*
X-737640Y-1770429D01*
X-737641Y-1770425D01*
X-792164Y-1644430D01*
X-792166Y-1644426D01*
X-794845Y-1638236D01*
X-889734Y-1521058D01*
X-909753Y-1506831D01*
X-1007141Y-1437621D01*
X-1007142Y-1437620D01*
X-1012639Y-1433714D01*
X-1018983Y-1431430D01*
X-1018987Y-1431428D01*
X-1148157Y-1384924D01*
X-1148160Y-1384923D01*
X-1154505Y-1382639D01*
X-1179496Y-1380804D01*
X-1298146Y-1372090D01*
X-1298150Y-1372090D01*
X-1304880Y-1371596D01*
X-1311495Y-1372930D01*
X-1311497Y-1372930D01*
X-1357197Y-1382145D01*
X-1452685Y-1401399D01*
X-1458691Y-1404459D01*
X-1458693Y-1404460D01*
X-1498084Y-1424531D01*
X-1587031Y-1469852D01*
X-1591994Y-1474415D01*
X-1591996Y-1474417D01*
X-1648421Y-1526303D01*
X-1698020Y-1571911D01*
X-1777475Y-1700058D01*
X-1809256Y-1809449D01*
X-1843646Y-1860053D01*
X-1901214Y-1880779D01*
X-1959970Y-1863709D01*
X-1997471Y-1815364D01*
X-2002408Y-1795266D01*
X-2004048Y-1783297D01*
X-2004963Y-1776615D01*
X-2007640Y-1770429D01*
X-2007641Y-1770425D01*
X-2062164Y-1644430D01*
X-2062166Y-1644426D01*
X-2064845Y-1638236D01*
X-2159734Y-1521058D01*
X-2179753Y-1506831D01*
X-2277141Y-1437621D01*
X-2277142Y-1437620D01*
X-2282639Y-1433714D01*
X-2288983Y-1431430D01*
X-2288987Y-1431428D01*
X-2418157Y-1384924D01*
X-2418160Y-1384923D01*
X-2424505Y-1382639D01*
X-2449496Y-1380804D01*
X-2568146Y-1372090D01*
X-2568150Y-1372090D01*
X-2574880Y-1371596D01*
X-2581495Y-1372930D01*
X-2581497Y-1372930D01*
X-2627197Y-1382145D01*
X-2722685Y-1401399D01*
X-2728691Y-1404459D01*
X-2728693Y-1404460D01*
X-2768084Y-1424531D01*
X-2857031Y-1469852D01*
X-2861994Y-1474415D01*
X-2861996Y-1474417D01*
X-2918421Y-1526303D01*
X-2968020Y-1571911D01*
X-3047475Y-1700058D01*
X-3079256Y-1809449D01*
X-3113646Y-1860053D01*
X-3171214Y-1880779D01*
X-3229970Y-1863709D01*
X-3267471Y-1815364D01*
X-3272408Y-1795266D01*
X-3274048Y-1783297D01*
X-3274963Y-1776615D01*
X-3277640Y-1770429D01*
X-3277641Y-1770425D01*
X-3332164Y-1644430D01*
X-3332166Y-1644426D01*
X-3334845Y-1638236D01*
X-3339094Y-1632989D01*
X-3342588Y-1627220D01*
X-3340626Y-1626032D01*
X-3359500Y-1572732D01*
X-3359500Y-989611D01*
X-3340593Y-931420D01*
X-3330504Y-919607D01*
X-1562931Y847965D01*
X-1562928Y847969D01*
X-1112393Y1298504D01*
X-1057876Y1326281D01*
X-1042389Y1327500D01*
X2312389Y1327500D01*
X2370580Y1308593D01*
G37*
G04 #@! TD.AperFunction*
G04 #@! TA.AperFunction,Conductor*
G36*
X-5809555Y10426578D02*
G01*
X-5766290Y10383313D01*
X-5755500Y10338368D01*
X-5755500Y10062181D01*
X-5754891Y10058337D01*
X-5754891Y10058335D01*
X-5741575Y9974263D01*
X-5739736Y9962650D01*
X-5736200Y9955711D01*
X-5736200Y9955710D01*
X-5683580Y9852439D01*
X-5679475Y9844382D01*
X-5585618Y9750525D01*
X-5578681Y9746990D01*
X-5578679Y9746989D01*
X-5492089Y9702869D01*
X-5467350Y9690264D01*
X-5459656Y9689045D01*
X-5459655Y9689045D01*
X-5371665Y9675109D01*
X-5371663Y9675109D01*
X-5367819Y9674500D01*
X-4792181Y9674500D01*
X-4788337Y9675109D01*
X-4788335Y9675109D01*
X-4700345Y9689045D01*
X-4700344Y9689045D01*
X-4692650Y9690264D01*
X-4667911Y9702869D01*
X-4581321Y9746989D01*
X-4581319Y9746990D01*
X-4574382Y9750525D01*
X-4491903Y9833004D01*
X-4437386Y9860781D01*
X-4421899Y9862000D01*
X-3960101Y9862000D01*
X-3901910Y9843093D01*
X-3890097Y9833004D01*
X-3807618Y9750525D01*
X-3800681Y9746990D01*
X-3800679Y9746989D01*
X-3714089Y9702869D01*
X-3689350Y9690264D01*
X-3681656Y9689045D01*
X-3681655Y9689045D01*
X-3593665Y9675109D01*
X-3593663Y9675109D01*
X-3589819Y9674500D01*
X-3215110Y9674500D01*
X-3156919Y9655593D01*
X-3145113Y9645510D01*
X-3044105Y9544501D01*
X-3016329Y9489987D01*
X-3025900Y9429555D01*
X-3069165Y9386290D01*
X-3114110Y9375500D01*
X-3589819Y9375500D01*
X-3593663Y9374891D01*
X-3593665Y9374891D01*
X-3681655Y9360955D01*
X-3681656Y9360955D01*
X-3689350Y9359736D01*
X-3696289Y9356200D01*
X-3696290Y9356200D01*
X-3800679Y9303011D01*
X-3800681Y9303010D01*
X-3807618Y9299475D01*
X-3901475Y9205618D01*
X-3905010Y9198681D01*
X-3905011Y9198679D01*
X-3958200Y9094290D01*
X-3961736Y9087350D01*
X-3962955Y9079656D01*
X-3962955Y9079655D01*
X-3975276Y9001859D01*
X-3977500Y8987819D01*
X-3977500Y8613111D01*
X-3996407Y8554920D01*
X-4006496Y8543108D01*
X-4106016Y8443587D01*
X-4114731Y8435843D01*
X-4142045Y8414311D01*
X-4146253Y8408222D01*
X-4175631Y8365717D01*
X-4177438Y8363188D01*
X-4208157Y8321597D01*
X-4212555Y8315642D01*
X-4214946Y8308832D01*
X-4219052Y8302892D01*
X-4221283Y8295839D01*
X-4221285Y8295834D01*
X-4231513Y8263491D01*
X-4236507Y8247699D01*
X-4236873Y8246543D01*
X-4237840Y8243644D01*
X-4257432Y8187852D01*
X-4257669Y8181812D01*
X-4258191Y8179133D01*
X-4259892Y8173756D01*
X-4260500Y8166031D01*
X-4260500Y8111713D01*
X-4260576Y8107827D01*
X-4262042Y8070500D01*
X-4262749Y8052516D01*
X-4261008Y8045949D01*
X-4260500Y8036724D01*
X-4260500Y7220034D01*
X-4275361Y7167865D01*
X-4308522Y7114382D01*
X-4317475Y7099942D01*
X-4349256Y6990551D01*
X-4383646Y6939947D01*
X-4441214Y6919221D01*
X-4499970Y6936291D01*
X-4537471Y6984636D01*
X-4542408Y7004734D01*
X-4544048Y7016703D01*
X-4544963Y7023385D01*
X-4547640Y7029571D01*
X-4547641Y7029575D01*
X-4602164Y7155570D01*
X-4602166Y7155574D01*
X-4604845Y7161764D01*
X-4609094Y7167011D01*
X-4612588Y7172780D01*
X-4610626Y7173968D01*
X-4629500Y7227268D01*
X-4629500Y8086773D01*
X-4610593Y8144964D01*
X-4586361Y8165666D01*
X-4587627Y8167408D01*
X-4581321Y8171989D01*
X-4574382Y8175525D01*
X-4480525Y8269382D01*
X-4475107Y8280014D01*
X-4423800Y8380710D01*
X-4423800Y8380711D01*
X-4420264Y8387650D01*
X-4416724Y8409997D01*
X-4405109Y8483335D01*
X-4405109Y8483337D01*
X-4404500Y8487181D01*
X-4404500Y8987819D01*
X-4406724Y9001859D01*
X-4419045Y9079655D01*
X-4419045Y9079656D01*
X-4420264Y9087350D01*
X-4423800Y9094290D01*
X-4476989Y9198679D01*
X-4476990Y9198681D01*
X-4480525Y9205618D01*
X-4574382Y9299475D01*
X-4581319Y9303010D01*
X-4581321Y9303011D01*
X-4685710Y9356200D01*
X-4685711Y9356200D01*
X-4692650Y9359736D01*
X-4700344Y9360955D01*
X-4700345Y9360955D01*
X-4788335Y9374891D01*
X-4788337Y9374891D01*
X-4792181Y9375500D01*
X-5367819Y9375500D01*
X-5371663Y9374891D01*
X-5371665Y9374891D01*
X-5459655Y9360955D01*
X-5459656Y9360955D01*
X-5467350Y9359736D01*
X-5474289Y9356200D01*
X-5474290Y9356200D01*
X-5578679Y9303011D01*
X-5578681Y9303010D01*
X-5585618Y9299475D01*
X-5679475Y9205618D01*
X-5683010Y9198681D01*
X-5683011Y9198679D01*
X-5736200Y9094290D01*
X-5739736Y9087350D01*
X-5740955Y9079656D01*
X-5740955Y9079655D01*
X-5753276Y9001859D01*
X-5755500Y8987819D01*
X-5755500Y8487181D01*
X-5754891Y8483337D01*
X-5754891Y8483335D01*
X-5743275Y8409997D01*
X-5739736Y8387650D01*
X-5736200Y8380711D01*
X-5736200Y8380710D01*
X-5684892Y8280014D01*
X-5679475Y8269382D01*
X-5585618Y8175525D01*
X-5578679Y8171989D01*
X-5572373Y8167408D01*
X-5574309Y8164743D01*
X-5541278Y8131693D01*
X-5530500Y8086773D01*
X-5530500Y7220034D01*
X-5545361Y7167865D01*
X-5578522Y7114382D01*
X-5587475Y7099942D01*
X-5629541Y6955149D01*
X-5630500Y6942089D01*
X-5630500Y4937499D01*
X-5615037Y4824615D01*
X-5612360Y4818429D01*
X-5612359Y4818425D01*
X-5557836Y4692430D01*
X-5557834Y4692426D01*
X-5555155Y4686236D01*
X-5550907Y4680990D01*
X-5547412Y4675220D01*
X-5549374Y4674032D01*
X-5530500Y4620732D01*
X-5530500Y2553611D01*
X-5549407Y2495420D01*
X-5559496Y2483607D01*
X-7433704Y609400D01*
X-7488221Y581623D01*
X-7503708Y580404D01*
X-9092364Y580404D01*
X-9152631Y600862D01*
X-9217101Y650331D01*
X-9222250Y654282D01*
X-9368285Y714772D01*
X-9525000Y735404D01*
X-9681715Y714772D01*
X-9827750Y654282D01*
X-9832899Y650331D01*
X-9910401Y590862D01*
X-9970668Y570404D01*
X-10449539Y570404D01*
X-10489568Y578858D01*
X-10493065Y580404D01*
X-10569591Y614235D01*
X-10618422Y620404D01*
X-12088039Y620404D01*
X-12092253Y619703D01*
X-12092320Y619713D01*
X-12096136Y619397D01*
X-12096210Y620297D01*
X-12152755Y628795D01*
X-12196361Y671716D01*
X-12207510Y717358D01*
X-12207510Y7181092D01*
X-12188603Y7239283D01*
X-12139103Y7275247D01*
X-12102292Y7279897D01*
X-12100675Y7279795D01*
X-12097578Y7279404D01*
X-10627961Y7279404D01*
X-10542847Y7293571D01*
X-10530176Y7300408D01*
X-10498443Y7317530D01*
X-10451432Y7329404D01*
X-9425515Y7329404D01*
X-9367324Y7310497D01*
X-9355511Y7300408D01*
X-9147607Y7092504D01*
X-9119830Y7037987D01*
X-9129401Y6977555D01*
X-9172666Y6934290D01*
X-9217611Y6923500D01*
X-9486000Y6923500D01*
X-9529800Y6914787D01*
X-9555076Y6909760D01*
X-9555078Y6909759D01*
X-9564641Y6907857D01*
X-9631310Y6863310D01*
X-9675857Y6796641D01*
X-9677759Y6787078D01*
X-9677760Y6787076D01*
X-9682787Y6761800D01*
X-9691500Y6718000D01*
X-9691500Y5418000D01*
X-9675857Y5339359D01*
X-9631310Y5272690D01*
X-9564641Y5228143D01*
X-9555078Y5226241D01*
X-9555076Y5226240D01*
X-9529800Y5221213D01*
X-9486000Y5212500D01*
X-9185652Y5212500D01*
X-9127461Y5193593D01*
X-9091497Y5144093D01*
X-9087338Y5101865D01*
X-9089515Y5083469D01*
X-9091275Y5068596D01*
X-9089946Y5061319D01*
X-9089946Y5061316D01*
X-9080663Y5010490D01*
X-9080154Y5007433D01*
X-9071364Y4948969D01*
X-9068239Y4942461D01*
X-9066942Y4935359D01*
X-9063531Y4928793D01*
X-9063531Y4928792D01*
X-9039707Y4882929D01*
X-9038318Y4880150D01*
X-9012735Y4826875D01*
X-9008632Y4822436D01*
X-9007108Y4820175D01*
X-9004507Y4815168D01*
X-8999475Y4809276D01*
X-8961049Y4770850D01*
X-8958356Y4768048D01*
X-8920798Y4727418D01*
X-8914923Y4724005D01*
X-8908042Y4717843D01*
X-8752471Y4562272D01*
X-8724322Y4505191D01*
X-8712868Y4418189D01*
X-8652378Y4272154D01*
X-8556153Y4146751D01*
X-8430750Y4050526D01*
X-8284715Y3990036D01*
X-8128000Y3969404D01*
X-7971285Y3990036D01*
X-7825250Y4050526D01*
X-7699847Y4146751D01*
X-7603622Y4272154D01*
X-7543132Y4418189D01*
X-7522500Y4574904D01*
X-7543132Y4731619D01*
X-7603622Y4877654D01*
X-7699847Y5003057D01*
X-7761000Y5049981D01*
X-7795654Y5100405D01*
X-7794052Y5161569D01*
X-7756805Y5210111D01*
X-7720042Y5225620D01*
X-7716925Y5226240D01*
X-7716924Y5226240D01*
X-7707359Y5228143D01*
X-7640690Y5272690D01*
X-7596143Y5339359D01*
X-7580500Y5418000D01*
X-7580500Y6718000D01*
X-7589213Y6761800D01*
X-7594240Y6787076D01*
X-7594241Y6787078D01*
X-7596143Y6796641D01*
X-7640690Y6863310D01*
X-7707359Y6907857D01*
X-7716922Y6909759D01*
X-7716924Y6909760D01*
X-7742200Y6914787D01*
X-7786000Y6923500D01*
X-8086500Y6923500D01*
X-8144691Y6942407D01*
X-8180655Y6991907D01*
X-8185500Y7022500D01*
X-8185500Y7186123D01*
X-8184814Y7197759D01*
X-8182178Y7220034D01*
X-8180725Y7232308D01*
X-8182054Y7239585D01*
X-8182054Y7239588D01*
X-8189416Y7279897D01*
X-8191341Y7290435D01*
X-8191848Y7293482D01*
X-8199536Y7344619D01*
X-8200636Y7351935D01*
X-8203761Y7358443D01*
X-8205058Y7365545D01*
X-8211084Y7377147D01*
X-8232293Y7417975D01*
X-8233683Y7420756D01*
X-8237356Y7428404D01*
X-8259265Y7474029D01*
X-8263367Y7478467D01*
X-8264893Y7480732D01*
X-8267493Y7485736D01*
X-8271154Y7490024D01*
X-8271263Y7490152D01*
X-8271273Y7490163D01*
X-8272525Y7491629D01*
X-8310963Y7530067D01*
X-8313657Y7532870D01*
X-8342049Y7563584D01*
X-8351202Y7573486D01*
X-8357077Y7576898D01*
X-8363952Y7583056D01*
X-8574392Y7793496D01*
X-8602169Y7848013D01*
X-8592598Y7908445D01*
X-8574392Y7933504D01*
X-7661893Y8846004D01*
X-7607376Y8873781D01*
X-7591889Y8875000D01*
X-6794500Y8875000D01*
X-6750700Y8883713D01*
X-6725424Y8888740D01*
X-6725422Y8888741D01*
X-6715859Y8890643D01*
X-6649190Y8935190D01*
X-6604643Y9001859D01*
X-6589000Y9080500D01*
X-6589000Y9702869D01*
X-6570093Y9761060D01*
X-6560004Y9772873D01*
X-5924504Y10408372D01*
X-5869987Y10436149D01*
X-5809555Y10426578D01*
G37*
G04 #@! TD.AperFunction*
G04 #@! TD*
M02*
