%TF.GenerationSoftware,KiCad,Pcbnew,6.0.4-6f826c9f35~116~ubuntu20.04.1*%
%TF.CreationDate,2022-09-29T13:52:15+00:00*%
%TF.ProjectId,TFRPM01D,54465250-4d30-4314-942e-6b696361645f,rev?*%
%TF.SameCoordinates,PX7e721e0PY7e33658*%
%TF.FileFunction,Legend,Bot*%
%TF.FilePolarity,Positive*%
%FSLAX46Y46*%
G04 Gerber Fmt 4.6, Leading zero omitted, Abs format (unit mm)*
G04 Created by KiCad (PCBNEW 6.0.4-6f826c9f35~116~ubuntu20.04.1) date 2022-09-29 13:52:15*
%MOMM*%
%LPD*%
G01*
G04 APERTURE LIST*
%ADD10C,0.150000*%
%ADD11C,0.300000*%
%ADD12C,0.100000*%
%ADD13C,0.120000*%
G04 APERTURE END LIST*
D10*
X12833000Y-1874904D02*
X12833000Y-974904D01*
X6428711Y-6474904D02*
G75*
G03*
X6428711Y-6474904I-70711J0D01*
G01*
X13583000Y-1874904D02*
X12833000Y-1874904D01*
X12083000Y-1874904D02*
X11433000Y-1874904D01*
X12833000Y-974904D02*
X12083000Y-974904D01*
X12083000Y-974904D02*
X12083000Y-1874904D01*
X14931809Y-1927284D02*
X14931809Y-927284D01*
X14455619Y-1927284D02*
X14455619Y-927284D01*
X13884190Y-1927284D01*
X13884190Y-927284D01*
X14519904Y4125096D02*
X14615142Y4172716D01*
X14758000Y4172716D01*
X14900857Y4125096D01*
X14996095Y4029858D01*
X15043714Y3934620D01*
X15091333Y3744144D01*
X15091333Y3601287D01*
X15043714Y3410811D01*
X14996095Y3315573D01*
X14900857Y3220335D01*
X14758000Y3172716D01*
X14662761Y3172716D01*
X14519904Y3220335D01*
X14472285Y3267954D01*
X14472285Y3601287D01*
X14662761Y3601287D01*
X14043714Y3172716D02*
X14043714Y4172716D01*
X13472285Y3172716D01*
X13472285Y4172716D01*
X12996095Y3172716D02*
X12996095Y4172716D01*
X12758000Y4172716D01*
X12615142Y4125096D01*
X12519904Y4029858D01*
X12472285Y3934620D01*
X12424666Y3744144D01*
X12424666Y3601287D01*
X12472285Y3410811D01*
X12519904Y3315573D01*
X12615142Y3220335D01*
X12758000Y3172716D01*
X12996095Y3172716D01*
X14448476Y1672716D02*
X14924666Y1672716D01*
X14972285Y1196525D01*
X14924666Y1244144D01*
X14829428Y1291763D01*
X14591333Y1291763D01*
X14496095Y1244144D01*
X14448476Y1196525D01*
X14400857Y1101287D01*
X14400857Y863192D01*
X14448476Y767954D01*
X14496095Y720335D01*
X14591333Y672716D01*
X14829428Y672716D01*
X14924666Y720335D01*
X14972285Y767954D01*
X14115142Y1672716D02*
X13781809Y672716D01*
X13448476Y1672716D01*
D11*
%TO.C,J1*%
X8841333Y-1762999D02*
X8841333Y-2691570D01*
X8903238Y-2877284D01*
X9027047Y-3001094D01*
X9212761Y-3062999D01*
X9336571Y-3062999D01*
X7541333Y-3062999D02*
X8284190Y-3062999D01*
X7912761Y-3062999D02*
X7912761Y-1762999D01*
X8036571Y-1948713D01*
X8160380Y-2072523D01*
X8284190Y-2134427D01*
D12*
%TO.C,U3*%
X-1727277Y4781496D02*
X-1727277Y4133877D01*
X-1765372Y4057686D01*
X-1803467Y4019591D01*
X-1879658Y3981496D01*
X-2032039Y3981496D01*
X-2108229Y4019591D01*
X-2146324Y4057686D01*
X-2184420Y4133877D01*
X-2184420Y4781496D01*
X-2489181Y4781496D02*
X-2984420Y4781496D01*
X-2717753Y4476734D01*
X-2832039Y4476734D01*
X-2908229Y4438639D01*
X-2946324Y4400543D01*
X-2984420Y4324353D01*
X-2984420Y4133877D01*
X-2946324Y4057686D01*
X-2908229Y4019591D01*
X-2832039Y3981496D01*
X-2603467Y3981496D01*
X-2527277Y4019591D01*
X-2489181Y4057686D01*
%TO.C,R1*%
X9041333Y4063192D02*
X9308000Y4444144D01*
X9498476Y4063192D02*
X9498476Y4863192D01*
X9193714Y4863192D01*
X9117523Y4825096D01*
X9079428Y4787001D01*
X9041333Y4710811D01*
X9041333Y4596525D01*
X9079428Y4520335D01*
X9117523Y4482239D01*
X9193714Y4444144D01*
X9498476Y4444144D01*
X8279428Y4063192D02*
X8736571Y4063192D01*
X8508000Y4063192D02*
X8508000Y4863192D01*
X8584190Y4748906D01*
X8660380Y4672716D01*
X8736571Y4634620D01*
%TO.C,R2*%
X4705333Y4063192D02*
X4972000Y4444144D01*
X5162476Y4063192D02*
X5162476Y4863192D01*
X4857714Y4863192D01*
X4781523Y4825096D01*
X4743428Y4787001D01*
X4705333Y4710811D01*
X4705333Y4596525D01*
X4743428Y4520335D01*
X4781523Y4482239D01*
X4857714Y4444144D01*
X5162476Y4444144D01*
X4400571Y4787001D02*
X4362476Y4825096D01*
X4286285Y4863192D01*
X4095809Y4863192D01*
X4019619Y4825096D01*
X3981523Y4787001D01*
X3943428Y4710811D01*
X3943428Y4634620D01*
X3981523Y4520335D01*
X4438666Y4063192D01*
X3943428Y4063192D01*
%TO.C,U1*%
X-12014286Y-3319142D02*
X-12014286Y-4047714D01*
X-12057143Y-4133428D01*
X-12100000Y-4176285D01*
X-12185715Y-4219142D01*
X-12357143Y-4219142D01*
X-12442858Y-4176285D01*
X-12485715Y-4133428D01*
X-12528572Y-4047714D01*
X-12528572Y-3319142D01*
X-13428572Y-4219142D02*
X-12914286Y-4219142D01*
X-13171429Y-4219142D02*
X-13171429Y-3319142D01*
X-13085715Y-3447714D01*
X-13000000Y-3533428D01*
X-12914286Y-3576285D01*
%TO.C,U2*%
X7717523Y-4336808D02*
X7717523Y-4984427D01*
X7679428Y-5060618D01*
X7641333Y-5098713D01*
X7565142Y-5136808D01*
X7412761Y-5136808D01*
X7336571Y-5098713D01*
X7298476Y-5060618D01*
X7260380Y-4984427D01*
X7260380Y-4336808D01*
X6917523Y-4412999D02*
X6879428Y-4374904D01*
X6803238Y-4336808D01*
X6612761Y-4336808D01*
X6536571Y-4374904D01*
X6498476Y-4412999D01*
X6460380Y-4489189D01*
X6460380Y-4565380D01*
X6498476Y-4679665D01*
X6955619Y-5136808D01*
X6460380Y-5136808D01*
%TO.C,JP2*%
X2901866Y3968696D02*
X2901866Y3397267D01*
X2939961Y3282981D01*
X3016152Y3206791D01*
X3130438Y3168696D01*
X3206628Y3168696D01*
X2520914Y3168696D02*
X2520914Y3968696D01*
X2216152Y3968696D01*
X2139961Y3930600D01*
X2101866Y3892505D01*
X2063771Y3816315D01*
X2063771Y3702029D01*
X2101866Y3625839D01*
X2139961Y3587743D01*
X2216152Y3549648D01*
X2520914Y3549648D01*
X1759009Y3892505D02*
X1720914Y3930600D01*
X1644723Y3968696D01*
X1454247Y3968696D01*
X1378057Y3930600D01*
X1339961Y3892505D01*
X1301866Y3816315D01*
X1301866Y3740124D01*
X1339961Y3625839D01*
X1797104Y3168696D01*
X1301866Y3168696D01*
D13*
%TO.C,D1*%
X-15686000Y-1616000D02*
X-13836000Y-1616000D01*
X-15686000Y-416000D02*
X-13836000Y-416000D01*
X-13836000Y-416000D02*
X-13836000Y-1616000D01*
%TO.C,R10*%
X-7204742Y6902596D02*
X-7679258Y6902596D01*
X-7204742Y7947596D02*
X-7679258Y7947596D01*
%TO.C,J1*%
X15815000Y2920000D02*
X9815000Y2920000D01*
X9815000Y-2500000D02*
X15815000Y-2500000D01*
X6825000Y-2160000D02*
X7155000Y-2160000D01*
X9815000Y3870000D02*
X9815000Y-3870000D01*
X7155000Y-1270000D02*
X9815000Y-1270000D01*
X7155000Y-3870000D02*
X7155000Y3870000D01*
X9815000Y-2740000D02*
X15815000Y-2740000D01*
X15815000Y380000D02*
X9815000Y380000D01*
X9815000Y-2260000D02*
X15815000Y-2260000D01*
X6825000Y-2920000D02*
X7155000Y-2920000D01*
X6757929Y2160000D02*
X7155000Y2160000D01*
X15815000Y-2160000D02*
X9815000Y-2160000D01*
X7155000Y1270000D02*
X9815000Y1270000D01*
X15815000Y-2920000D02*
X15815000Y-2160000D01*
X4445000Y-3810000D02*
X5715000Y-3810000D01*
X9815000Y-380000D02*
X15815000Y-380000D01*
X9815000Y-3870000D02*
X7155000Y-3870000D01*
X9815000Y-2920000D02*
X15815000Y-2920000D01*
X4445000Y-2540000D02*
X4445000Y-3810000D01*
X6757929Y2920000D02*
X7155000Y2920000D01*
X9815000Y-2620000D02*
X15815000Y-2620000D01*
X9815000Y-2860000D02*
X15815000Y-2860000D01*
X15815000Y2160000D02*
X15815000Y2920000D01*
X7155000Y3870000D02*
X9815000Y3870000D01*
X9815000Y-2380000D02*
X15815000Y-2380000D01*
X6757929Y-380000D02*
X7155000Y-380000D01*
X9815000Y2160000D02*
X15815000Y2160000D01*
X15815000Y-380000D02*
X15815000Y380000D01*
X6757929Y380000D02*
X7155000Y380000D01*
%TO.C,U3*%
X-3542000Y5115096D02*
X-2742000Y5115096D01*
X-3542000Y5115096D02*
X-5342000Y5115096D01*
X-3542000Y8235096D02*
X-2742000Y8235096D01*
X-3542000Y8235096D02*
X-4342000Y8235096D01*
%TO.C,C3*%
X-14845420Y760000D02*
X-15126580Y760000D01*
X-14845420Y1780000D02*
X-15126580Y1780000D01*
%TO.C,C4*%
X-13901420Y6915096D02*
X-14182580Y6915096D01*
X-13901420Y7935096D02*
X-14182580Y7935096D01*
%TO.C,J2*%
X-18178000Y9041096D02*
X-16728000Y9041096D01*
X-20998000Y1841096D02*
X-20998000Y7771096D01*
X-16728000Y2371096D02*
X-15738000Y2371096D01*
X-16728000Y9041096D02*
X-16728000Y7241096D01*
X-18178000Y571096D02*
X-16728000Y571096D01*
X-16728000Y571096D02*
X-16728000Y2371096D01*
%TO.C,R4*%
X-3541500Y-6874742D02*
X-3541500Y-7349258D01*
X-4586500Y-6874742D02*
X-4586500Y-7349258D01*
%TO.C,R1*%
X8273000Y6752160D02*
X8273000Y6298032D01*
X9743000Y6752160D02*
X9743000Y6298032D01*
%TO.C,R2*%
X3837000Y6298032D02*
X3837000Y6752160D01*
X5307000Y6298032D02*
X5307000Y6752160D01*
%TO.C,R3*%
X-10554742Y7947596D02*
X-11029258Y7947596D01*
X-10554742Y6902596D02*
X-11029258Y6902596D01*
%TO.C,C6*%
X3300000Y-7225420D02*
X3300000Y-7506580D01*
X4320000Y-7225420D02*
X4320000Y-7506580D01*
%TO.C,J3*%
X-20998000Y-7733904D02*
X-20998000Y-1803904D01*
X-16728000Y-7203904D02*
X-15738000Y-7203904D01*
X-16728000Y-9003904D02*
X-16728000Y-7203904D01*
X-16728000Y-533904D02*
X-16728000Y-2333904D01*
X-18178000Y-9003904D02*
X-16728000Y-9003904D01*
X-18178000Y-533904D02*
X-16728000Y-533904D01*
%TO.C,C5*%
X-4929500Y3185676D02*
X-4929500Y2904516D01*
X-3909500Y3185676D02*
X-3909500Y2904516D01*
D10*
%TO.C,U1*%
X-13142000Y-3088000D02*
X-13142000Y4612000D01*
X-5442000Y4612000D02*
X-6752000Y4612000D01*
X-11832000Y4612000D02*
X-13142000Y4612000D01*
X-5442000Y-2438000D02*
X-6752000Y-2438000D01*
X-5442000Y-3088000D02*
X-6752000Y-3088000D01*
X-11832000Y-3088000D02*
X-13142000Y-3088000D01*
X-5442000Y-3088000D02*
X-5442000Y4612000D01*
X-11832000Y-2438000D02*
X-13142000Y-2438000D01*
X-6625000Y-1778000D02*
G75*
G03*
X-6625000Y-1778000I-127000J0D01*
G01*
D13*
%TO.C,C1*%
X-802000Y6634516D02*
X-802000Y6915676D01*
X218000Y6634516D02*
X218000Y6915676D01*
%TO.C,C2*%
X7114000Y6209420D02*
X7114000Y6490580D01*
X6094000Y6209420D02*
X6094000Y6490580D01*
%TO.C,U2*%
X5952000Y-7560904D02*
X5952000Y-5660904D01*
X8272000Y-6160904D02*
X8272000Y-7560904D01*
%TO.C,R5*%
X-6618500Y-7349258D02*
X-6618500Y-6874742D01*
X-5573500Y-7349258D02*
X-5573500Y-6874742D01*
%TO.C,JP2*%
X958000Y7825096D02*
X958000Y5025096D01*
X1658000Y4375096D02*
X2258000Y4375096D01*
X3158000Y7625096D02*
X3458000Y7925096D01*
X2958000Y5025096D02*
X2958000Y7825096D01*
X2258000Y8475096D02*
X1658000Y8475096D01*
X3158000Y7625096D02*
X3458000Y7325096D01*
X3458000Y7925096D02*
X3458000Y7325096D01*
X958000Y5075096D02*
G75*
G03*
X1658000Y4375096I700000J0D01*
G01*
X1658000Y8475096D02*
G75*
G03*
X958000Y7775096I-1J-699999D01*
G01*
X2258000Y4375096D02*
G75*
G03*
X2958000Y5075096I0J700000D01*
G01*
X2958000Y7775096D02*
G75*
G03*
X2258000Y8475096I-699999J1D01*
G01*
%TD*%
M02*
