%TF.GenerationSoftware,KiCad,Pcbnew,6.0.4-6f826c9f35~116~ubuntu20.04.1*%
%TF.CreationDate,2022-09-28T22:23:09+00:00*%
%TF.ProjectId,TFRPM01D,54465250-4d30-4314-942e-6b696361645f,rev?*%
%TF.SameCoordinates,PX7e721e0PY7e33658*%
%TF.FileFunction,Legend,Top*%
%TF.FilePolarity,Positive*%
%FSLAX46Y46*%
G04 Gerber Fmt 4.6, Leading zero omitted, Abs format (unit mm)*
G04 Created by KiCad (PCBNEW 6.0.4-6f826c9f35~116~ubuntu20.04.1) date 2022-09-28 22:23:09*
%MOMM*%
%LPD*%
G01*
G04 APERTURE LIST*
%ADD10C,0.150000*%
%ADD11C,0.200000*%
%ADD12C,0.300000*%
%ADD13C,0.250000*%
%ADD14C,0.100000*%
%ADD15C,0.120000*%
G04 APERTURE END LIST*
D10*
X11684000Y-3050904D02*
X11684000Y-2161904D01*
X12446000Y-2161904D02*
X12446000Y-3050904D01*
X11049000Y-3050904D02*
X11684000Y-3050904D01*
X12446000Y-3050904D02*
X13208000Y-3050904D01*
X11684000Y-2161904D02*
X12446000Y-2161904D01*
D11*
X7805523Y-95761D02*
X8796000Y-95761D01*
X8300761Y-590999D02*
X8300761Y399477D01*
X10034095Y709001D02*
X9415047Y709001D01*
X9353142Y89954D01*
X9415047Y151858D01*
X9538857Y213763D01*
X9848380Y213763D01*
X9972190Y151858D01*
X10034095Y89954D01*
X10096000Y-33856D01*
X10096000Y-343380D01*
X10034095Y-467189D01*
X9972190Y-529094D01*
X9848380Y-590999D01*
X9538857Y-590999D01*
X9415047Y-529094D01*
X9353142Y-467189D01*
X10467428Y709001D02*
X10900761Y-590999D01*
X11334095Y709001D01*
D12*
X-18815143Y-3496571D02*
X-17958000Y-3496571D01*
X-18386572Y-4996571D02*
X-18386572Y-3496571D01*
X-16958000Y-4210857D02*
X-17458000Y-4210857D01*
X-17458000Y-4996571D02*
X-17458000Y-3496571D01*
X-16743715Y-3496571D01*
X-15315143Y-4996571D02*
X-15815143Y-4282285D01*
X-16172286Y-4996571D02*
X-16172286Y-3496571D01*
X-15600858Y-3496571D01*
X-15458000Y-3568000D01*
X-15386572Y-3639428D01*
X-15315143Y-3782285D01*
X-15315143Y-3996571D01*
X-15386572Y-4139428D01*
X-15458000Y-4210857D01*
X-15600858Y-4282285D01*
X-16172286Y-4282285D01*
X-14672286Y-4996571D02*
X-14672286Y-3496571D01*
X-14100858Y-3496571D01*
X-13958000Y-3568000D01*
X-13886572Y-3639428D01*
X-13815143Y-3782285D01*
X-13815143Y-3996571D01*
X-13886572Y-4139428D01*
X-13958000Y-4210857D01*
X-14100858Y-4282285D01*
X-14672286Y-4282285D01*
X-13172286Y-4996571D02*
X-13172286Y-3496571D01*
X-12672286Y-4568000D01*
X-12172286Y-3496571D01*
X-12172286Y-4996571D01*
X-11172286Y-3496571D02*
X-11029429Y-3496571D01*
X-10886572Y-3568000D01*
X-10815143Y-3639428D01*
X-10743715Y-3782285D01*
X-10672286Y-4068000D01*
X-10672286Y-4425142D01*
X-10743715Y-4710857D01*
X-10815143Y-4853714D01*
X-10886572Y-4925142D01*
X-11029429Y-4996571D01*
X-11172286Y-4996571D01*
X-11315143Y-4925142D01*
X-11386572Y-4853714D01*
X-11458000Y-4710857D01*
X-11529429Y-4425142D01*
X-11529429Y-4068000D01*
X-11458000Y-3782285D01*
X-11386572Y-3639428D01*
X-11315143Y-3568000D01*
X-11172286Y-3496571D01*
X-9243715Y-4996571D02*
X-10100858Y-4996571D01*
X-9672286Y-4996571D02*
X-9672286Y-3496571D01*
X-9815143Y-3710857D01*
X-9958000Y-3853714D01*
X-10100858Y-3925142D01*
X-8600858Y-4996571D02*
X-8600858Y-3496571D01*
X-8243715Y-3496571D01*
X-8029429Y-3568000D01*
X-7886572Y-3710857D01*
X-7815143Y-3853714D01*
X-7743715Y-4139428D01*
X-7743715Y-4353714D01*
X-7815143Y-4639428D01*
X-7886572Y-4782285D01*
X-8029429Y-4925142D01*
X-8243715Y-4996571D01*
X-8600858Y-4996571D01*
D11*
X8486476Y3187096D02*
X8362666Y3249001D01*
X8176952Y3249001D01*
X7991238Y3187096D01*
X7867428Y3063287D01*
X7805523Y2939477D01*
X7743619Y2691858D01*
X7743619Y2506144D01*
X7805523Y2258525D01*
X7867428Y2134716D01*
X7991238Y2010906D01*
X8176952Y1949001D01*
X8300761Y1949001D01*
X8486476Y2010906D01*
X8548380Y2072811D01*
X8548380Y2506144D01*
X8300761Y2506144D01*
X9105523Y1949001D02*
X9105523Y3249001D01*
X9848380Y1949001D01*
X9848380Y3249001D01*
X10467428Y1949001D02*
X10467428Y3249001D01*
X10776952Y3249001D01*
X10962666Y3187096D01*
X11086476Y3063287D01*
X11148380Y2939477D01*
X11210285Y2691858D01*
X11210285Y2506144D01*
X11148380Y2258525D01*
X11086476Y2134716D01*
X10962666Y2010906D01*
X10776952Y1949001D01*
X10467428Y1949001D01*
X6451857Y-7588046D02*
X6509000Y-7530904D01*
X6623285Y-7473761D01*
X6909000Y-7473761D01*
X7023285Y-7530904D01*
X7080428Y-7588046D01*
X7137571Y-7702332D01*
X7137571Y-7816618D01*
X7080428Y-7988046D01*
X6394714Y-8673761D01*
X7137571Y-8673761D01*
X7880428Y-7473761D02*
X7994714Y-7473761D01*
X8109000Y-7530904D01*
X8166142Y-7588046D01*
X8223285Y-7702332D01*
X8280428Y-7930904D01*
X8280428Y-8216618D01*
X8223285Y-8445189D01*
X8166142Y-8559475D01*
X8109000Y-8616618D01*
X7994714Y-8673761D01*
X7880428Y-8673761D01*
X7766142Y-8616618D01*
X7709000Y-8559475D01*
X7651857Y-8445189D01*
X7594714Y-8216618D01*
X7594714Y-7930904D01*
X7651857Y-7702332D01*
X7709000Y-7588046D01*
X7766142Y-7530904D01*
X7880428Y-7473761D01*
X8737571Y-7588046D02*
X8794714Y-7530904D01*
X8909000Y-7473761D01*
X9194714Y-7473761D01*
X9309000Y-7530904D01*
X9366142Y-7588046D01*
X9423285Y-7702332D01*
X9423285Y-7816618D01*
X9366142Y-7988046D01*
X8680428Y-8673761D01*
X9423285Y-8673761D01*
X9880428Y-7588046D02*
X9937571Y-7530904D01*
X10051857Y-7473761D01*
X10337571Y-7473761D01*
X10451857Y-7530904D01*
X10509000Y-7588046D01*
X10566142Y-7702332D01*
X10566142Y-7816618D01*
X10509000Y-7988046D01*
X9823285Y-8673761D01*
X10566142Y-8673761D01*
X7805523Y-3130999D02*
X7805523Y-1830999D01*
X8424571Y-3130999D02*
X8424571Y-1830999D01*
X9167428Y-3130999D01*
X9167428Y-1830999D01*
D13*
X-20654096Y1220239D02*
X-19354096Y1220239D01*
X-19477905Y684524D02*
X-19416000Y625000D01*
X-19354096Y505953D01*
X-19354096Y208334D01*
X-19416000Y89286D01*
X-19477905Y29762D01*
X-19601715Y-29761D01*
X-19725524Y-29761D01*
X-19911239Y29762D01*
X-20654096Y744048D01*
X-20654096Y-29761D01*
X-20530286Y-1279761D02*
X-20592191Y-1220238D01*
X-20654096Y-1041666D01*
X-20654096Y-922619D01*
X-20592191Y-744047D01*
X-20468381Y-625000D01*
X-20344572Y-565476D01*
X-20096953Y-505952D01*
X-19911239Y-505952D01*
X-19663620Y-565476D01*
X-19539810Y-625000D01*
X-19416000Y-744047D01*
X-19354096Y-922619D01*
X-19354096Y-1041666D01*
X-19416000Y-1220238D01*
X-19477905Y-1279761D01*
D11*
X-7307477Y-7700095D02*
X-7307477Y-6400095D01*
X-6812239Y-6400095D01*
X-6688429Y-6462000D01*
X-6626524Y-6523904D01*
X-6564620Y-6647714D01*
X-6564620Y-6833428D01*
X-6626524Y-6957238D01*
X-6688429Y-7019142D01*
X-6812239Y-7081047D01*
X-7307477Y-7081047D01*
X-6007477Y-6400095D02*
X-6007477Y-7452476D01*
X-5945572Y-7576285D01*
X-5883667Y-7638190D01*
X-5759858Y-7700095D01*
X-5512239Y-7700095D01*
X-5388429Y-7638190D01*
X-5326524Y-7576285D01*
X-5264620Y-7452476D01*
X-5264620Y-6400095D01*
X-4026524Y-7700095D02*
X-4645572Y-7700095D01*
X-4645572Y-6400095D01*
X-3655096Y-7638190D02*
X-3469381Y-7700095D01*
X-3159858Y-7700095D01*
X-3036048Y-7638190D01*
X-2974143Y-7576285D01*
X-2912239Y-7452476D01*
X-2912239Y-7328666D01*
X-2974143Y-7204857D01*
X-3036048Y-7142952D01*
X-3159858Y-7081047D01*
X-3407477Y-7019142D01*
X-3531286Y-6957238D01*
X-3593191Y-6895333D01*
X-3655096Y-6771523D01*
X-3655096Y-6647714D01*
X-3593191Y-6523904D01*
X-3531286Y-6462000D01*
X-3407477Y-6400095D01*
X-3097953Y-6400095D01*
X-2912239Y-6462000D01*
X-2355096Y-7019142D02*
X-1921762Y-7019142D01*
X-1736048Y-7700095D02*
X-2355096Y-7700095D01*
X-2355096Y-6400095D01*
X-1736048Y-6400095D01*
D14*
X-11850620Y-1480961D02*
X-11850620Y-1385723D01*
X-11803000Y-1290485D01*
X-11755381Y-1242866D01*
X-11660143Y-1195247D01*
X-11469667Y-1147628D01*
X-11231572Y-1147628D01*
X-11041096Y-1195247D01*
X-10945858Y-1242866D01*
X-10898239Y-1290485D01*
X-10850620Y-1385723D01*
X-10850620Y-1480961D01*
X-10898239Y-1576200D01*
X-10945858Y-1623819D01*
X-11041096Y-1671438D01*
X-11231572Y-1719057D01*
X-11469667Y-1719057D01*
X-11660143Y-1671438D01*
X-11755381Y-1623819D01*
X-11803000Y-1576200D01*
X-11850620Y-1480961D01*
X-10850620Y-814295D02*
X-11517286Y-290485D01*
X-11517286Y-814295D02*
X-10850620Y-290485D01*
X-11850620Y566658D02*
X-11850620Y90467D01*
X-11374429Y42848D01*
X-11422048Y90467D01*
X-11469667Y185705D01*
X-11469667Y423800D01*
X-11422048Y519039D01*
X-11374429Y566658D01*
X-11279191Y614277D01*
X-11041096Y614277D01*
X-10945858Y566658D01*
X-10898239Y519039D01*
X-10850620Y423800D01*
X-10850620Y185705D01*
X-10898239Y90467D01*
X-10945858Y42848D01*
X-11850620Y1233324D02*
X-11850620Y1328562D01*
X-11803000Y1423800D01*
X-11755381Y1471420D01*
X-11660143Y1519039D01*
X-11469667Y1566658D01*
X-11231572Y1566658D01*
X-11041096Y1519039D01*
X-10945858Y1471420D01*
X-10898239Y1423800D01*
X-10850620Y1328562D01*
X-10850620Y1233324D01*
X-10898239Y1138086D01*
X-10945858Y1090467D01*
X-11041096Y1042848D01*
X-11231572Y995229D01*
X-11469667Y995229D01*
X-11660143Y1042848D01*
X-11755381Y1090467D01*
X-11803000Y1138086D01*
X-11850620Y1233324D01*
X-6364220Y-2039761D02*
X-6364220Y-1944523D01*
X-6316600Y-1849285D01*
X-6268981Y-1801666D01*
X-6173743Y-1754047D01*
X-5983267Y-1706428D01*
X-5745172Y-1706428D01*
X-5554696Y-1754047D01*
X-5459458Y-1801666D01*
X-5411839Y-1849285D01*
X-5364220Y-1944523D01*
X-5364220Y-2039761D01*
X-5411839Y-2135000D01*
X-5459458Y-2182619D01*
X-5554696Y-2230238D01*
X-5745172Y-2277857D01*
X-5983267Y-2277857D01*
X-6173743Y-2230238D01*
X-6268981Y-2182619D01*
X-6316600Y-2135000D01*
X-6364220Y-2039761D01*
X-5364220Y-1373095D02*
X-6030886Y-849285D01*
X-6030886Y-1373095D02*
X-5364220Y-849285D01*
X-6364220Y7858D02*
X-6364220Y-468333D01*
X-5888029Y-515952D01*
X-5935648Y-468333D01*
X-5983267Y-373095D01*
X-5983267Y-135000D01*
X-5935648Y-39761D01*
X-5888029Y7858D01*
X-5792791Y55477D01*
X-5554696Y55477D01*
X-5459458Y7858D01*
X-5411839Y-39761D01*
X-5364220Y-135000D01*
X-5364220Y-373095D01*
X-5411839Y-468333D01*
X-5459458Y-515952D01*
X-5364220Y1007858D02*
X-5364220Y436429D01*
X-5364220Y722143D02*
X-6364220Y722143D01*
X-6221362Y626905D01*
X-6126124Y531667D01*
X-6078505Y436429D01*
D11*
X-16070477Y-7700095D02*
X-16070477Y-6400095D01*
X-15575239Y-6400095D01*
X-15451429Y-6462000D01*
X-15389524Y-6523904D01*
X-15327620Y-6647714D01*
X-15327620Y-6833428D01*
X-15389524Y-6957238D01*
X-15451429Y-7019142D01*
X-15575239Y-7081047D01*
X-16070477Y-7081047D01*
X-14894286Y-6400095D02*
X-14584762Y-7700095D01*
X-14337143Y-6771523D01*
X-14089524Y-7700095D01*
X-13780000Y-6400095D01*
X-12541905Y-7700095D02*
X-12975239Y-7081047D01*
X-13284762Y-7700095D02*
X-13284762Y-6400095D01*
X-12789524Y-6400095D01*
X-12665715Y-6462000D01*
X-12603810Y-6523904D01*
X-12541905Y-6647714D01*
X-12541905Y-6833428D01*
X-12603810Y-6957238D01*
X-12665715Y-7019142D01*
X-12789524Y-7081047D01*
X-13284762Y-7081047D01*
D14*
%TO.C,JP1*%
X-9302667Y2038296D02*
X-9302667Y1466867D01*
X-9340762Y1352581D01*
X-9416953Y1276391D01*
X-9531239Y1238296D01*
X-9607429Y1238296D01*
X-8921715Y1238296D02*
X-8921715Y2038296D01*
X-8616953Y2038296D01*
X-8540762Y2000200D01*
X-8502667Y1962105D01*
X-8464572Y1885915D01*
X-8464572Y1771629D01*
X-8502667Y1695439D01*
X-8540762Y1657343D01*
X-8616953Y1619248D01*
X-8921715Y1619248D01*
X-7702667Y1238296D02*
X-8159810Y1238296D01*
X-7931239Y1238296D02*
X-7931239Y2038296D01*
X-8007429Y1924010D01*
X-8083620Y1847820D01*
X-8159810Y1809724D01*
D15*
X-10136000Y-1500000D02*
X-9536000Y-1500000D01*
X-9836000Y-1200000D02*
X-10136000Y-1500000D01*
X-7236000Y-1000000D02*
X-10036000Y-1000000D01*
X-10036000Y1000000D02*
X-7236000Y1000000D01*
X-6586000Y300000D02*
X-6586000Y-300000D01*
X-10686000Y-300000D02*
X-10686000Y300000D01*
X-9836000Y-1200000D02*
X-9536000Y-1500000D01*
X-7286000Y-1000000D02*
G75*
G03*
X-6586000Y-300000I0J700000D01*
G01*
X-6586000Y300000D02*
G75*
G03*
X-7286000Y1000000I-700000J0D01*
G01*
X-9986000Y1000000D02*
G75*
G03*
X-10686000Y300000I-1J-699999D01*
G01*
X-10686000Y-300000D02*
G75*
G03*
X-9986000Y-1000000I699999J-1D01*
G01*
%TO.C,G1*%
G36*
X-16243083Y5613511D02*
G01*
X-16741122Y5613511D01*
X-16741122Y4174731D01*
X-17062081Y4174731D01*
X-17062081Y5613511D01*
X-17560120Y5613511D01*
X-17560120Y5923402D01*
X-16243083Y5923402D01*
X-16243083Y5613511D01*
G37*
G36*
X-5974563Y3753582D02*
G01*
X-5927561Y3751767D01*
X-5898480Y3748517D01*
X-5885226Y3743658D01*
X-5883867Y3740863D01*
X-5885741Y3728103D01*
X-5891166Y3695230D01*
X-5899853Y3643933D01*
X-5911508Y3575897D01*
X-5925840Y3492811D01*
X-5942557Y3396359D01*
X-5961367Y3288230D01*
X-5981978Y3170111D01*
X-6004098Y3043687D01*
X-6027436Y2910646D01*
X-6033279Y2877388D01*
X-6056862Y2743061D01*
X-6079300Y2614993D01*
X-6100300Y2494865D01*
X-6119572Y2384357D01*
X-6136824Y2285150D01*
X-6151764Y2198925D01*
X-6164101Y2127361D01*
X-6173542Y2072140D01*
X-6179797Y2034941D01*
X-6182574Y2017446D01*
X-6182691Y2016353D01*
X-6193353Y2012011D01*
X-6223752Y2008650D01*
X-6271504Y2006429D01*
X-6334226Y2005509D01*
X-6344553Y2005493D01*
X-6506416Y2005493D01*
X-6500670Y2035929D01*
X-6497882Y2051473D01*
X-6491582Y2087081D01*
X-6482076Y2141014D01*
X-6469671Y2211531D01*
X-6454670Y2296893D01*
X-6437381Y2395360D01*
X-6418108Y2505194D01*
X-6397157Y2624653D01*
X-6374834Y2751999D01*
X-6351443Y2885492D01*
X-6347108Y2910240D01*
X-6199292Y3754116D01*
X-6041579Y3754140D01*
X-5974563Y3753582D01*
G37*
G36*
X-2699549Y8103406D02*
G01*
X-2651866Y8102577D01*
X-2616915Y8101335D01*
X-2598601Y8099791D01*
X-2596808Y8099102D01*
X-2598676Y8087323D01*
X-2604045Y8055761D01*
X-2612560Y8006427D01*
X-2623867Y7941334D01*
X-2637612Y7862496D01*
X-2653441Y7771924D01*
X-2671000Y7671632D01*
X-2689935Y7563633D01*
X-2709892Y7449939D01*
X-2730516Y7332563D01*
X-2751453Y7213517D01*
X-2772351Y7094815D01*
X-2792853Y6978470D01*
X-2812606Y6866493D01*
X-2831257Y6760898D01*
X-2848451Y6663698D01*
X-2863834Y6576905D01*
X-2877051Y6502532D01*
X-2887749Y6442592D01*
X-2895574Y6399098D01*
X-2900171Y6374061D01*
X-2901200Y6368870D01*
X-2904311Y6359136D01*
X-2910563Y6352340D01*
X-2923454Y6347953D01*
X-2946479Y6345450D01*
X-2983134Y6344302D01*
X-3036916Y6343982D01*
X-3066353Y6343968D01*
X-3128728Y6344169D01*
X-3172182Y6345040D01*
X-3199930Y6346983D01*
X-3215184Y6350400D01*
X-3221158Y6355694D01*
X-3221065Y6363268D01*
X-3221049Y6363336D01*
X-3218454Y6377122D01*
X-3212359Y6410981D01*
X-3203068Y6463183D01*
X-3190887Y6531996D01*
X-3176121Y6615688D01*
X-3159074Y6712529D01*
X-3140053Y6820787D01*
X-3119361Y6938730D01*
X-3097305Y7064626D01*
X-3074188Y7196745D01*
X-3072354Y7207236D01*
X-3049093Y7340273D01*
X-3026825Y7467599D01*
X-3005864Y7587439D01*
X-2986518Y7698014D01*
X-2969101Y7797547D01*
X-2953922Y7884261D01*
X-2941293Y7956379D01*
X-2931524Y8012122D01*
X-2924928Y8049714D01*
X-2921814Y8067377D01*
X-2921750Y8067737D01*
X-2915303Y8103707D01*
X-2756056Y8103707D01*
X-2699549Y8103406D01*
G37*
G36*
X-3871631Y8073271D02*
G01*
X-3874231Y8057743D01*
X-3880355Y8022146D01*
X-3889699Y7968214D01*
X-3901962Y7897679D01*
X-3916842Y7812275D01*
X-3934035Y7713736D01*
X-3953241Y7603794D01*
X-3974156Y7484183D01*
X-3996478Y7356635D01*
X-4019906Y7222885D01*
X-4025066Y7193441D01*
X-4173932Y6344048D01*
X-4331645Y6344008D01*
X-4396334Y6344428D01*
X-4441675Y6345899D01*
X-4470439Y6348676D01*
X-4485401Y6353016D01*
X-4489357Y6358619D01*
X-4487481Y6371886D01*
X-4482089Y6404911D01*
X-4473539Y6455665D01*
X-4462187Y6522116D01*
X-4448389Y6602234D01*
X-4432503Y6693990D01*
X-4414885Y6795354D01*
X-4395892Y6904294D01*
X-4375879Y7018780D01*
X-4355205Y7136784D01*
X-4334225Y7256274D01*
X-4313297Y7375219D01*
X-4292776Y7491591D01*
X-4273020Y7603359D01*
X-4254385Y7708492D01*
X-4237227Y7804960D01*
X-4221904Y7890733D01*
X-4208772Y7963781D01*
X-4198187Y8022074D01*
X-4190507Y8063582D01*
X-4186088Y8086274D01*
X-4185235Y8089872D01*
X-4176373Y8095796D01*
X-4153303Y8099928D01*
X-4113725Y8102463D01*
X-4055339Y8103599D01*
X-4023612Y8103707D01*
X-3867063Y8103707D01*
X-3871631Y8073271D01*
G37*
G36*
X-4625770Y3729262D02*
G01*
X-4628601Y3714583D01*
X-4634929Y3679839D01*
X-4644444Y3626769D01*
X-4656841Y3557116D01*
X-4671810Y3472618D01*
X-4689045Y3375017D01*
X-4708238Y3266054D01*
X-4729080Y3147467D01*
X-4751264Y3020999D01*
X-4774482Y2888390D01*
X-4776948Y2874295D01*
X-4800236Y2741312D01*
X-4822516Y2614415D01*
X-4843483Y2495328D01*
X-4862829Y2385777D01*
X-4880247Y2287487D01*
X-4895433Y2202184D01*
X-4908078Y2131593D01*
X-4917877Y2077440D01*
X-4924523Y2041450D01*
X-4927709Y2025349D01*
X-4927836Y2024861D01*
X-4932176Y2017205D01*
X-4942202Y2011860D01*
X-4961345Y2008420D01*
X-4993034Y2006483D01*
X-5040700Y2005645D01*
X-5092248Y2005493D01*
X-5154501Y2005695D01*
X-5197839Y2006570D01*
X-5225480Y2008523D01*
X-5240642Y2011957D01*
X-5246543Y2017278D01*
X-5246409Y2024861D01*
X-5243816Y2038647D01*
X-5237724Y2072507D01*
X-5228440Y2124710D01*
X-5216267Y2193524D01*
X-5201510Y2277218D01*
X-5184475Y2374061D01*
X-5165467Y2482320D01*
X-5144790Y2600265D01*
X-5122748Y2726164D01*
X-5099648Y2858285D01*
X-5097818Y2868761D01*
X-5074592Y3001631D01*
X-5052365Y3128665D01*
X-5031446Y3248100D01*
X-5012143Y3358175D01*
X-4994768Y3457127D01*
X-4979630Y3543194D01*
X-4967038Y3614614D01*
X-4957301Y3669626D01*
X-4950731Y3706466D01*
X-4947636Y3723373D01*
X-4947565Y3723729D01*
X-4941368Y3754164D01*
X-4619768Y3754164D01*
X-4625770Y3729262D01*
G37*
G36*
X-5125582Y8078805D02*
G01*
X-5128381Y8064113D01*
X-5134674Y8029361D01*
X-5144152Y7976297D01*
X-5156507Y7906667D01*
X-5171431Y7822219D01*
X-5188616Y7724698D01*
X-5207754Y7615852D01*
X-5228536Y7497428D01*
X-5250654Y7371172D01*
X-5273800Y7238831D01*
X-5275453Y7229371D01*
X-5298681Y7096502D01*
X-5320910Y6969468D01*
X-5341830Y6850033D01*
X-5361132Y6739959D01*
X-5378506Y6641007D01*
X-5393643Y6554940D01*
X-5406233Y6483519D01*
X-5415965Y6428508D01*
X-5422531Y6391667D01*
X-5425621Y6374759D01*
X-5425692Y6374404D01*
X-5431857Y6343968D01*
X-5753456Y6343968D01*
X-5747456Y6368870D01*
X-5744607Y6383628D01*
X-5738272Y6418412D01*
X-5728764Y6471444D01*
X-5716398Y6540944D01*
X-5701489Y6625133D01*
X-5684352Y6722231D01*
X-5665300Y6830460D01*
X-5644649Y6948040D01*
X-5622713Y7073191D01*
X-5602166Y7190635D01*
X-5579163Y7322121D01*
X-5557028Y7448420D01*
X-5536093Y7567654D01*
X-5516690Y7677948D01*
X-5499150Y7777422D01*
X-5483803Y7864200D01*
X-5470983Y7936404D01*
X-5461020Y7992157D01*
X-5454245Y8029582D01*
X-5451237Y8045602D01*
X-5439596Y8103707D01*
X-5119785Y8103707D01*
X-5125582Y8078805D01*
G37*
G36*
X-11811751Y5361724D02*
G01*
X-11439844Y4800047D01*
X-11439808Y5361724D01*
X-11439771Y5923402D01*
X-11118813Y5923402D01*
X-11118813Y4174731D01*
X-11380844Y4174731D01*
X-12181272Y5375559D01*
X-12181296Y4174731D01*
X-12502255Y4174731D01*
X-12502255Y5923402D01*
X-12183658Y5923402D01*
X-11811751Y5361724D01*
G37*
G36*
X-4423166Y5921273D02*
G01*
X-4404614Y5920948D01*
X-4250403Y5917868D01*
X-4368842Y5242748D01*
X-4389982Y5122194D01*
X-4410129Y5007203D01*
X-4428931Y4899784D01*
X-4446039Y4801946D01*
X-4461101Y4715699D01*
X-4473766Y4643052D01*
X-4483684Y4586015D01*
X-4490503Y4546598D01*
X-4493872Y4526809D01*
X-4493983Y4526125D01*
X-4500686Y4484622D01*
X-4201732Y4484622D01*
X-4112152Y4484514D01*
X-4042301Y4484094D01*
X-3989773Y4483217D01*
X-3952162Y4481737D01*
X-3927063Y4479509D01*
X-3912071Y4476387D01*
X-3904779Y4472226D01*
X-3902782Y4466881D01*
X-3902778Y4466558D01*
X-3904629Y4449136D01*
X-3909677Y4414803D01*
X-3917165Y4368424D01*
X-3926333Y4314869D01*
X-3926906Y4311613D01*
X-3951035Y4174731D01*
X-4413878Y4174731D01*
X-4512660Y4174795D01*
X-4604218Y4174977D01*
X-4686264Y4175264D01*
X-4756509Y4175643D01*
X-4812663Y4176099D01*
X-4852438Y4176619D01*
X-4873544Y4177189D01*
X-4876382Y4177498D01*
X-4873492Y4196201D01*
X-4867148Y4233965D01*
X-4857705Y4288790D01*
X-4845523Y4358679D01*
X-4830958Y4441634D01*
X-4814368Y4535656D01*
X-4796110Y4638748D01*
X-4776542Y4748912D01*
X-4756022Y4864150D01*
X-4734906Y4982463D01*
X-4713554Y5101853D01*
X-4692321Y5220324D01*
X-4671565Y5335875D01*
X-4651645Y5446511D01*
X-4632917Y5550231D01*
X-4615739Y5645040D01*
X-4600469Y5728937D01*
X-4587463Y5799926D01*
X-4577081Y5856008D01*
X-4569678Y5895186D01*
X-4565613Y5915461D01*
X-4564969Y5917884D01*
X-4552256Y5919897D01*
X-4521597Y5921185D01*
X-4477173Y5921671D01*
X-4423166Y5921273D01*
G37*
G36*
X-5200937Y5923205D02*
G01*
X-5103365Y5922719D01*
X-5015039Y5921947D01*
X-4938128Y5920923D01*
X-4874800Y5919682D01*
X-4827224Y5918259D01*
X-4797568Y5916688D01*
X-4787968Y5915101D01*
X-4789648Y5901672D01*
X-4794400Y5870720D01*
X-4801541Y5826536D01*
X-4810387Y5773410D01*
X-4812603Y5760304D01*
X-4837451Y5613807D01*
X-5196827Y5610892D01*
X-5556202Y5607977D01*
X-5586689Y5441964D01*
X-5597376Y5382720D01*
X-5606500Y5330164D01*
X-5613336Y5288624D01*
X-5617159Y5262432D01*
X-5617710Y5256583D01*
X-5616502Y5250605D01*
X-5610824Y5245996D01*
X-5598157Y5242579D01*
X-5575982Y5240179D01*
X-5541777Y5238619D01*
X-5493023Y5237722D01*
X-5427200Y5237313D01*
X-5341788Y5237214D01*
X-5340812Y5237214D01*
X-5255322Y5237126D01*
X-5189494Y5236743D01*
X-5140853Y5235889D01*
X-5106927Y5234389D01*
X-5085242Y5232064D01*
X-5073324Y5228741D01*
X-5068700Y5224241D01*
X-5068896Y5218390D01*
X-5069049Y5217846D01*
X-5072735Y5201192D01*
X-5079082Y5168672D01*
X-5087144Y5125536D01*
X-5095979Y5077035D01*
X-5104641Y5028419D01*
X-5112187Y4984939D01*
X-5117672Y4951846D01*
X-5120152Y4934388D01*
X-5120207Y4933377D01*
X-5130783Y4931729D01*
X-5160545Y4930251D01*
X-5206544Y4929006D01*
X-5265833Y4928058D01*
X-5335461Y4927472D01*
X-5399662Y4927306D01*
X-5679118Y4927288D01*
X-5721690Y4681053D01*
X-5735736Y4599885D01*
X-5750135Y4516820D01*
X-5763901Y4437522D01*
X-5776053Y4367652D01*
X-5785608Y4312874D01*
X-5787024Y4304774D01*
X-5809787Y4174731D01*
X-5969860Y4174731D01*
X-6032239Y4174819D01*
X-6075745Y4175431D01*
X-6103642Y4177090D01*
X-6119192Y4180319D01*
X-6125657Y4185641D01*
X-6126300Y4193578D01*
X-6125283Y4199633D01*
X-6122674Y4214267D01*
X-6116547Y4248986D01*
X-6107206Y4302071D01*
X-6094952Y4371803D01*
X-6080086Y4456463D01*
X-6062910Y4554333D01*
X-6043726Y4663694D01*
X-6022835Y4782827D01*
X-6000540Y4910014D01*
X-5977141Y5043535D01*
X-5971814Y5073937D01*
X-5822996Y5923340D01*
X-5305588Y5923371D01*
X-5200937Y5923205D01*
G37*
G36*
X-2497681Y5922732D02*
G01*
X-2449682Y5921374D01*
X-2419644Y5918800D01*
X-2405491Y5914848D01*
X-2404280Y5910467D01*
X-2412410Y5899478D01*
X-2432828Y5872663D01*
X-2464253Y5831684D01*
X-2505404Y5778204D01*
X-2555000Y5713885D01*
X-2611760Y5640388D01*
X-2674402Y5559378D01*
X-2741645Y5472515D01*
X-2773889Y5430896D01*
X-2842755Y5341992D01*
X-2907561Y5258256D01*
X-2967032Y5181339D01*
X-3019897Y5112892D01*
X-3064881Y5054563D01*
X-3100712Y5008004D01*
X-3126116Y4974865D01*
X-3139821Y4956795D01*
X-3141854Y4953984D01*
X-3144779Y4941842D01*
X-3151019Y4910943D01*
X-3160020Y4864321D01*
X-3171230Y4805013D01*
X-3184093Y4736054D01*
X-3198056Y4660482D01*
X-3212564Y4581331D01*
X-3227065Y4501639D01*
X-3241004Y4424440D01*
X-3253826Y4352771D01*
X-3264979Y4289668D01*
X-3273907Y4238167D01*
X-3280058Y4201304D01*
X-3282876Y4182115D01*
X-3282996Y4180456D01*
X-3293415Y4178433D01*
X-3322080Y4176724D01*
X-3365102Y4175467D01*
X-3418593Y4174801D01*
X-3443686Y4174731D01*
X-3604376Y4174731D01*
X-3598587Y4199633D01*
X-3594511Y4219950D01*
X-3587500Y4257911D01*
X-3578095Y4310361D01*
X-3566838Y4374143D01*
X-3554272Y4446101D01*
X-3540938Y4523080D01*
X-3527377Y4601924D01*
X-3514132Y4679477D01*
X-3501745Y4752582D01*
X-3490757Y4818084D01*
X-3481711Y4872826D01*
X-3475147Y4913654D01*
X-3471609Y4937410D01*
X-3471144Y4941894D01*
X-3475325Y4955243D01*
X-3487296Y4986846D01*
X-3506192Y5034581D01*
X-3531153Y5096329D01*
X-3561314Y5169967D01*
X-3595815Y5253376D01*
X-3633793Y5344434D01*
X-3666195Y5421591D01*
X-3706500Y5517421D01*
X-3744235Y5607410D01*
X-3778509Y5689415D01*
X-3808434Y5761297D01*
X-3833119Y5820912D01*
X-3851674Y5866121D01*
X-3863209Y5894781D01*
X-3866778Y5904329D01*
X-3867477Y5911811D01*
X-3862577Y5917009D01*
X-3848958Y5920239D01*
X-3823497Y5921821D01*
X-3783072Y5922069D01*
X-3724562Y5921303D01*
X-3703429Y5920931D01*
X-3534548Y5917868D01*
X-3396290Y5577541D01*
X-3363054Y5496262D01*
X-3332246Y5421936D01*
X-3304887Y5356953D01*
X-3282002Y5303702D01*
X-3264612Y5264571D01*
X-3253741Y5241949D01*
X-3250579Y5237214D01*
X-3242555Y5245806D01*
X-3222875Y5270299D01*
X-3193007Y5308768D01*
X-3154419Y5359290D01*
X-3108579Y5419941D01*
X-3056954Y5488795D01*
X-3001013Y5563929D01*
X-2989139Y5579941D01*
X-2735152Y5922667D01*
X-2565719Y5923034D01*
X-2497681Y5922732D01*
G37*
G36*
X-3412306Y3752623D02*
G01*
X-3384485Y3751135D01*
X-3368794Y3747891D01*
X-3361902Y3742549D01*
X-3360468Y3735549D01*
X-3362347Y3721834D01*
X-3367787Y3688025D01*
X-3376495Y3635826D01*
X-3388178Y3566940D01*
X-3402544Y3483070D01*
X-3419299Y3385918D01*
X-3438151Y3277190D01*
X-3458805Y3158586D01*
X-3480970Y3031812D01*
X-3504352Y2898570D01*
X-3509880Y2867135D01*
X-3533463Y2733025D01*
X-3555900Y2605276D01*
X-3576900Y2485558D01*
X-3596172Y2375541D01*
X-3613423Y2276893D01*
X-3628363Y2191284D01*
X-3640700Y2120384D01*
X-3650142Y2065862D01*
X-3656398Y2029387D01*
X-3659175Y2012630D01*
X-3659292Y2011719D01*
X-3669710Y2009518D01*
X-3698372Y2007658D01*
X-3741387Y2006292D01*
X-3794862Y2005569D01*
X-3819771Y2005493D01*
X-3876455Y2006032D01*
X-3924275Y2007513D01*
X-3959359Y2009737D01*
X-3977834Y2012501D01*
X-3979708Y2013794D01*
X-3977746Y2025742D01*
X-3972228Y2057828D01*
X-3963444Y2108390D01*
X-3951687Y2175769D01*
X-3937245Y2258304D01*
X-3920412Y2354333D01*
X-3901476Y2462196D01*
X-3880730Y2580233D01*
X-3858465Y2706783D01*
X-3834971Y2840185D01*
X-3827009Y2885363D01*
X-3674853Y3748631D01*
X-3517661Y3751701D01*
X-3455587Y3752698D01*
X-3412306Y3752623D01*
G37*
G36*
X-10341318Y5920477D02*
G01*
X-10225895Y5919175D01*
X-10129919Y5917726D01*
X-10050701Y5915751D01*
X-9985555Y5912873D01*
X-9931793Y5908712D01*
X-9886727Y5902889D01*
X-9847671Y5895026D01*
X-9811935Y5884745D01*
X-9776834Y5871666D01*
X-9739679Y5855411D01*
X-9697783Y5835602D01*
X-9680780Y5827410D01*
X-9626977Y5799796D01*
X-9583429Y5772581D01*
X-9542600Y5740317D01*
X-9496953Y5697554D01*
X-9485560Y5686240D01*
X-9439745Y5638504D01*
X-9405623Y5597227D01*
X-9377739Y5554869D01*
X-9350640Y5503889D01*
X-9344365Y5491021D01*
X-9313858Y5425300D01*
X-9291045Y5368482D01*
X-9274844Y5315249D01*
X-9264174Y5260284D01*
X-9257955Y5198269D01*
X-9255105Y5123887D01*
X-9254524Y5049066D01*
X-9255414Y4960029D01*
X-9258807Y4887816D01*
X-9265783Y4827160D01*
X-9277424Y4772795D01*
X-9294812Y4719456D01*
X-9319027Y4661877D01*
X-9345444Y4606365D01*
X-9410613Y4498309D01*
X-9492791Y4403414D01*
X-9590062Y4323361D01*
X-9700508Y4259831D01*
X-9775217Y4229320D01*
X-9817144Y4215381D01*
X-9857278Y4204002D01*
X-9898436Y4194930D01*
X-9943440Y4187913D01*
X-9995109Y4182696D01*
X-10056262Y4179028D01*
X-10129720Y4176656D01*
X-10218302Y4175325D01*
X-10324828Y4174784D01*
X-10383795Y4174731D01*
X-10764651Y4174731D01*
X-10764651Y4460646D01*
X-10443693Y4460646D01*
X-9951187Y4468020D01*
X-9877027Y4503153D01*
X-9792030Y4554616D01*
X-9722633Y4621196D01*
X-9668718Y4703121D01*
X-9630169Y4800619D01*
X-9606871Y4913917D01*
X-9598708Y5043243D01*
X-9598694Y5049066D01*
X-9606221Y5179075D01*
X-9628876Y5293046D01*
X-9666778Y5391207D01*
X-9720041Y5473786D01*
X-9788782Y5541010D01*
X-9873117Y5593107D01*
X-9877027Y5594979D01*
X-9951187Y5630112D01*
X-10197440Y5633640D01*
X-10443693Y5637167D01*
X-10443693Y4460646D01*
X-10764651Y4460646D01*
X-10764651Y5925028D01*
X-10341318Y5920477D01*
G37*
G36*
X-7208208Y5923402D02*
G01*
X-7104375Y5923304D01*
X-7019935Y5922922D01*
X-6952146Y5922127D01*
X-6898268Y5920787D01*
X-6855557Y5918771D01*
X-6821273Y5915949D01*
X-6792674Y5912190D01*
X-6767018Y5907362D01*
X-6741564Y5901336D01*
X-6740605Y5901092D01*
X-6632093Y5864669D01*
X-6541392Y5815130D01*
X-6468335Y5752262D01*
X-6412758Y5675853D01*
X-6374496Y5585688D01*
X-6353383Y5481555D01*
X-6348704Y5394876D01*
X-6356732Y5283451D01*
X-6381306Y5185998D01*
X-6423161Y5100997D01*
X-6483033Y5026931D01*
X-6556199Y4966060D01*
X-6591765Y4940331D01*
X-6619180Y4918936D01*
X-6634227Y4905232D01*
X-6635841Y4902617D01*
X-6630952Y4891517D01*
X-6616940Y4863572D01*
X-6595201Y4821416D01*
X-6567133Y4767678D01*
X-6534131Y4704992D01*
X-6497593Y4635989D01*
X-6458915Y4563300D01*
X-6419493Y4489557D01*
X-6380723Y4417393D01*
X-6344003Y4349438D01*
X-6310729Y4288324D01*
X-6286298Y4243903D01*
X-6248012Y4174731D01*
X-6428402Y4174964D01*
X-6608791Y4175198D01*
X-6776593Y4498690D01*
X-6944394Y4822182D01*
X-7105852Y4825244D01*
X-7267309Y4828307D01*
X-7267309Y4174731D01*
X-7588268Y4174731D01*
X-7588268Y5091105D01*
X-7267309Y5091105D01*
X-7081928Y5094987D01*
X-7013391Y5096569D01*
X-6962692Y5098432D01*
X-6925540Y5101209D01*
X-6897641Y5105535D01*
X-6874701Y5112043D01*
X-6852428Y5121365D01*
X-6830622Y5132073D01*
X-6767131Y5172650D01*
X-6722805Y5221811D01*
X-6695487Y5282195D01*
X-6690024Y5304133D01*
X-6681570Y5386999D01*
X-6691384Y5462577D01*
X-6718472Y5528473D01*
X-6761842Y5582293D01*
X-6820499Y5621644D01*
X-6822045Y5622371D01*
X-6846581Y5633232D01*
X-6869367Y5641172D01*
X-6894616Y5646748D01*
X-6926545Y5650516D01*
X-6969367Y5653034D01*
X-7027299Y5654858D01*
X-7076394Y5655963D01*
X-7267309Y5659971D01*
X-7267309Y5091105D01*
X-7588268Y5091105D01*
X-7588268Y5923402D01*
X-7208208Y5923402D01*
G37*
G36*
X-15745044Y5237214D02*
G01*
X-14937113Y5237214D01*
X-14937113Y5923402D01*
X-14616155Y5923402D01*
X-14616155Y4174731D01*
X-14937113Y4174731D01*
X-14937113Y4927323D01*
X-15745044Y4927323D01*
X-15745044Y4174731D01*
X-16066002Y4174731D01*
X-16066002Y5923402D01*
X-15745044Y5923402D01*
X-15745044Y5237214D01*
G37*
G36*
X-7864956Y5613511D02*
G01*
X-8661819Y5613511D01*
X-8661819Y5237214D01*
X-8053105Y5237214D01*
X-8053105Y4927323D01*
X-8661819Y4927323D01*
X-8661819Y4484622D01*
X-7842821Y4484622D01*
X-7842821Y4174731D01*
X-8993845Y4174731D01*
X-8993845Y5923402D01*
X-7864956Y5923402D01*
X-7864956Y5613511D01*
G37*
G36*
X-13960701Y5345123D02*
G01*
X-13959848Y5216980D01*
X-13959025Y5108972D01*
X-13958145Y5019100D01*
X-13957120Y4945363D01*
X-13955864Y4885762D01*
X-13954291Y4838297D01*
X-13952314Y4800969D01*
X-13949846Y4771778D01*
X-13946801Y4748724D01*
X-13943091Y4729807D01*
X-13938631Y4713027D01*
X-13933334Y4696386D01*
X-13932480Y4693833D01*
X-13894534Y4609941D01*
X-13842790Y4543353D01*
X-13777267Y4494079D01*
X-13697986Y4462131D01*
X-13604965Y4447518D01*
X-13498225Y4450252D01*
X-13490605Y4451053D01*
X-13402769Y4469016D01*
X-13329404Y4502461D01*
X-13269869Y4552100D01*
X-13223522Y4618644D01*
X-13189723Y4702805D01*
X-13167830Y4805294D01*
X-13167153Y4810070D01*
X-13164330Y4842101D01*
X-13161813Y4894228D01*
X-13159644Y4964414D01*
X-13157863Y5050621D01*
X-13156509Y5150811D01*
X-13155625Y5262948D01*
X-13155250Y5384994D01*
X-13155240Y5409562D01*
X-13155240Y5923402D01*
X-12834281Y5923402D01*
X-12834281Y5381893D01*
X-12834427Y5242976D01*
X-12834956Y5124066D01*
X-12836007Y5023034D01*
X-12837715Y4937752D01*
X-12840218Y4866095D01*
X-12843654Y4805933D01*
X-12848159Y4755139D01*
X-12853871Y4711586D01*
X-12860928Y4673146D01*
X-12869465Y4637691D01*
X-12879621Y4603095D01*
X-12885721Y4584336D01*
X-12933590Y4470882D01*
X-12996026Y4374064D01*
X-13073247Y4293661D01*
X-13165470Y4229457D01*
X-13272912Y4181234D01*
X-13293584Y4174330D01*
X-13354178Y4160208D01*
X-13429967Y4150293D01*
X-13514380Y4144748D01*
X-13600848Y4143738D01*
X-13682802Y4147424D01*
X-13753674Y4155972D01*
X-13782988Y4162142D01*
X-13897966Y4201220D01*
X-13998141Y4256469D01*
X-14083844Y4328221D01*
X-14155406Y4416804D01*
X-14213161Y4522548D01*
X-14252409Y4628681D01*
X-14257857Y4647171D01*
X-14262470Y4665109D01*
X-14266332Y4684465D01*
X-14269526Y4707211D01*
X-14272135Y4735317D01*
X-14274241Y4770754D01*
X-14275928Y4815494D01*
X-14277280Y4871507D01*
X-14278378Y4940765D01*
X-14279306Y5025237D01*
X-14280148Y5126895D01*
X-14280986Y5247711D01*
X-14281439Y5317454D01*
X-14285340Y5923402D01*
X-13964431Y5923402D01*
X-13960701Y5345123D01*
G37*
%TD*%
M02*
