%TF.GenerationSoftware,KiCad,Pcbnew,6.0.4-6f826c9f35~116~ubuntu20.04.1*%
%TF.CreationDate,2022-09-30T06:43:46+00:00*%
%TF.ProjectId,TFRPM01D,54465250-4d30-4314-942e-6b696361645f,rev?*%
%TF.SameCoordinates,PX7e721e0PY7e33658*%
%TF.FileFunction,Legend,Bot*%
%TF.FilePolarity,Positive*%
%FSLAX46Y46*%
G04 Gerber Fmt 4.6, Leading zero omitted, Abs format (unit mm)*
G04 Created by KiCad (PCBNEW 6.0.4-6f826c9f35~116~ubuntu20.04.1) date 2022-09-30 06:43:46*
%MOMM*%
%LPD*%
G01*
G04 APERTURE LIST*
%ADD10C,0.150000*%
%ADD11C,0.100000*%
%ADD12C,0.300000*%
%ADD13C,0.120000*%
G04 APERTURE END LIST*
D10*
X12833000Y-1874904D02*
X12833000Y-974904D01*
X6428711Y-6474904D02*
G75*
G03*
X6428711Y-6474904I-70711J0D01*
G01*
X13583000Y-1874904D02*
X12833000Y-1874904D01*
X12083000Y-1874904D02*
X11433000Y-1874904D01*
X12833000Y-974904D02*
X12083000Y-974904D01*
X12083000Y-974904D02*
X12083000Y-1874904D01*
X14931809Y-1927284D02*
X14931809Y-927284D01*
X14455619Y-1927284D02*
X14455619Y-927284D01*
X13884190Y-1927284D01*
X13884190Y-927284D01*
X14519904Y4125096D02*
X14615142Y4172716D01*
X14758000Y4172716D01*
X14900857Y4125096D01*
X14996095Y4029858D01*
X15043714Y3934620D01*
X15091333Y3744144D01*
X15091333Y3601287D01*
X15043714Y3410811D01*
X14996095Y3315573D01*
X14900857Y3220335D01*
X14758000Y3172716D01*
X14662761Y3172716D01*
X14519904Y3220335D01*
X14472285Y3267954D01*
X14472285Y3601287D01*
X14662761Y3601287D01*
X14043714Y3172716D02*
X14043714Y4172716D01*
X13472285Y3172716D01*
X13472285Y4172716D01*
X12996095Y3172716D02*
X12996095Y4172716D01*
X12758000Y4172716D01*
X12615142Y4125096D01*
X12519904Y4029858D01*
X12472285Y3934620D01*
X12424666Y3744144D01*
X12424666Y3601287D01*
X12472285Y3410811D01*
X12519904Y3315573D01*
X12615142Y3220335D01*
X12758000Y3172716D01*
X12996095Y3172716D01*
X14448476Y1672716D02*
X14924666Y1672716D01*
X14972285Y1196525D01*
X14924666Y1244144D01*
X14829428Y1291763D01*
X14591333Y1291763D01*
X14496095Y1244144D01*
X14448476Y1196525D01*
X14400857Y1101287D01*
X14400857Y863192D01*
X14448476Y767954D01*
X14496095Y720335D01*
X14591333Y672716D01*
X14829428Y672716D01*
X14924666Y720335D01*
X14972285Y767954D01*
X14115142Y1672716D02*
X13781809Y672716D01*
X13448476Y1672716D01*
D11*
%TO.C,D1*%
X-13709524Y-2661904D02*
X-13709524Y-1861904D01*
X-13900000Y-1861904D01*
X-14014286Y-1900000D01*
X-14090477Y-1976190D01*
X-14128572Y-2052380D01*
X-14166667Y-2204761D01*
X-14166667Y-2319047D01*
X-14128572Y-2471428D01*
X-14090477Y-2547619D01*
X-14014286Y-2623809D01*
X-13900000Y-2661904D01*
X-13709524Y-2661904D01*
X-14928572Y-2661904D02*
X-14471429Y-2661904D01*
X-14700000Y-2661904D02*
X-14700000Y-1861904D01*
X-14623810Y-1976190D01*
X-14547620Y-2052380D01*
X-14471429Y-2090476D01*
%TO.C,R10*%
X-6927715Y8238096D02*
X-6661048Y8619048D01*
X-6470572Y8238096D02*
X-6470572Y9038096D01*
X-6775334Y9038096D01*
X-6851524Y9000000D01*
X-6889620Y8961905D01*
X-6927715Y8885715D01*
X-6927715Y8771429D01*
X-6889620Y8695239D01*
X-6851524Y8657143D01*
X-6775334Y8619048D01*
X-6470572Y8619048D01*
X-7689620Y8238096D02*
X-7232477Y8238096D01*
X-7461048Y8238096D02*
X-7461048Y9038096D01*
X-7384858Y8923810D01*
X-7308667Y8847620D01*
X-7232477Y8809524D01*
X-8184858Y9038096D02*
X-8261048Y9038096D01*
X-8337239Y9000000D01*
X-8375334Y8961905D01*
X-8413429Y8885715D01*
X-8451524Y8733334D01*
X-8451524Y8542858D01*
X-8413429Y8390477D01*
X-8375334Y8314286D01*
X-8337239Y8276191D01*
X-8261048Y8238096D01*
X-8184858Y8238096D01*
X-8108667Y8276191D01*
X-8070572Y8314286D01*
X-8032477Y8390477D01*
X-7994381Y8542858D01*
X-7994381Y8733334D01*
X-8032477Y8885715D01*
X-8070572Y8961905D01*
X-8108667Y9000000D01*
X-8184858Y9038096D01*
D12*
%TO.C,J1*%
X8841333Y-1762999D02*
X8841333Y-2691570D01*
X8903238Y-2877284D01*
X9027047Y-3001094D01*
X9212761Y-3062999D01*
X9336571Y-3062999D01*
X7541333Y-3062999D02*
X8284190Y-3062999D01*
X7912761Y-3062999D02*
X7912761Y-1762999D01*
X8036571Y-1948713D01*
X8160380Y-2072523D01*
X8284190Y-2134427D01*
D11*
%TO.C,U3*%
X-1727277Y4781496D02*
X-1727277Y4133877D01*
X-1765372Y4057686D01*
X-1803467Y4019591D01*
X-1879658Y3981496D01*
X-2032039Y3981496D01*
X-2108229Y4019591D01*
X-2146324Y4057686D01*
X-2184420Y4133877D01*
X-2184420Y4781496D01*
X-2489181Y4781496D02*
X-2984420Y4781496D01*
X-2717753Y4476734D01*
X-2832039Y4476734D01*
X-2908229Y4438639D01*
X-2946324Y4400543D01*
X-2984420Y4324353D01*
X-2984420Y4133877D01*
X-2946324Y4057686D01*
X-2908229Y4019591D01*
X-2832039Y3981496D01*
X-2603467Y3981496D01*
X-2527277Y4019591D01*
X-2489181Y4057686D01*
%TO.C,C3*%
X-14066667Y2214286D02*
X-14028572Y2176191D01*
X-13914286Y2138096D01*
X-13838096Y2138096D01*
X-13723810Y2176191D01*
X-13647620Y2252381D01*
X-13609524Y2328572D01*
X-13571429Y2480953D01*
X-13571429Y2595239D01*
X-13609524Y2747620D01*
X-13647620Y2823810D01*
X-13723810Y2900000D01*
X-13838096Y2938096D01*
X-13914286Y2938096D01*
X-14028572Y2900000D01*
X-14066667Y2861905D01*
X-14333334Y2938096D02*
X-14828572Y2938096D01*
X-14561905Y2633334D01*
X-14676191Y2633334D01*
X-14752381Y2595239D01*
X-14790477Y2557143D01*
X-14828572Y2480953D01*
X-14828572Y2290477D01*
X-14790477Y2214286D01*
X-14752381Y2176191D01*
X-14676191Y2138096D01*
X-14447620Y2138096D01*
X-14371429Y2176191D01*
X-14333334Y2214286D01*
%TO.C,C4*%
X-13908667Y8314286D02*
X-13870572Y8276191D01*
X-13756286Y8238096D01*
X-13680096Y8238096D01*
X-13565810Y8276191D01*
X-13489620Y8352381D01*
X-13451524Y8428572D01*
X-13413429Y8580953D01*
X-13413429Y8695239D01*
X-13451524Y8847620D01*
X-13489620Y8923810D01*
X-13565810Y9000000D01*
X-13680096Y9038096D01*
X-13756286Y9038096D01*
X-13870572Y9000000D01*
X-13908667Y8961905D01*
X-14594381Y8771429D02*
X-14594381Y8238096D01*
X-14403905Y9076191D02*
X-14213429Y8504762D01*
X-14708667Y8504762D01*
%TO.C,R4*%
X-3866667Y-5461904D02*
X-3600000Y-5080952D01*
X-3409524Y-5461904D02*
X-3409524Y-4661904D01*
X-3714286Y-4661904D01*
X-3790477Y-4700000D01*
X-3828572Y-4738095D01*
X-3866667Y-4814285D01*
X-3866667Y-4928571D01*
X-3828572Y-5004761D01*
X-3790477Y-5042857D01*
X-3714286Y-5080952D01*
X-3409524Y-5080952D01*
X-4552381Y-4928571D02*
X-4552381Y-5461904D01*
X-4361905Y-4623809D02*
X-4171429Y-5195238D01*
X-4666667Y-5195238D01*
%TO.C,R1*%
X9033333Y3938096D02*
X9300000Y4319048D01*
X9490476Y3938096D02*
X9490476Y4738096D01*
X9185714Y4738096D01*
X9109523Y4700000D01*
X9071428Y4661905D01*
X9033333Y4585715D01*
X9033333Y4471429D01*
X9071428Y4395239D01*
X9109523Y4357143D01*
X9185714Y4319048D01*
X9490476Y4319048D01*
X8271428Y3938096D02*
X8728571Y3938096D01*
X8500000Y3938096D02*
X8500000Y4738096D01*
X8576190Y4623810D01*
X8652380Y4547620D01*
X8728571Y4509524D01*
%TO.C,R2*%
X4633333Y3938096D02*
X4900000Y4319048D01*
X5090476Y3938096D02*
X5090476Y4738096D01*
X4785714Y4738096D01*
X4709523Y4700000D01*
X4671428Y4661905D01*
X4633333Y4585715D01*
X4633333Y4471429D01*
X4671428Y4395239D01*
X4709523Y4357143D01*
X4785714Y4319048D01*
X5090476Y4319048D01*
X4328571Y4661905D02*
X4290476Y4700000D01*
X4214285Y4738096D01*
X4023809Y4738096D01*
X3947619Y4700000D01*
X3909523Y4661905D01*
X3871428Y4585715D01*
X3871428Y4509524D01*
X3909523Y4395239D01*
X4366666Y3938096D01*
X3871428Y3938096D01*
%TO.C,R3*%
X-10608667Y8238096D02*
X-10342000Y8619048D01*
X-10151524Y8238096D02*
X-10151524Y9038096D01*
X-10456286Y9038096D01*
X-10532477Y9000000D01*
X-10570572Y8961905D01*
X-10608667Y8885715D01*
X-10608667Y8771429D01*
X-10570572Y8695239D01*
X-10532477Y8657143D01*
X-10456286Y8619048D01*
X-10151524Y8619048D01*
X-10875334Y9038096D02*
X-11370572Y9038096D01*
X-11103905Y8733334D01*
X-11218191Y8733334D01*
X-11294381Y8695239D01*
X-11332477Y8657143D01*
X-11370572Y8580953D01*
X-11370572Y8390477D01*
X-11332477Y8314286D01*
X-11294381Y8276191D01*
X-11218191Y8238096D01*
X-10989620Y8238096D01*
X-10913429Y8276191D01*
X-10875334Y8314286D01*
%TO.C,C6*%
X4433333Y-5285714D02*
X4471428Y-5323809D01*
X4585714Y-5361904D01*
X4661904Y-5361904D01*
X4776190Y-5323809D01*
X4852380Y-5247619D01*
X4890476Y-5171428D01*
X4928571Y-5019047D01*
X4928571Y-4904761D01*
X4890476Y-4752380D01*
X4852380Y-4676190D01*
X4776190Y-4600000D01*
X4661904Y-4561904D01*
X4585714Y-4561904D01*
X4471428Y-4600000D01*
X4433333Y-4638095D01*
X3747619Y-4561904D02*
X3900000Y-4561904D01*
X3976190Y-4600000D01*
X4014285Y-4638095D01*
X4090476Y-4752380D01*
X4128571Y-4904761D01*
X4128571Y-5209523D01*
X4090476Y-5285714D01*
X4052380Y-5323809D01*
X3976190Y-5361904D01*
X3823809Y-5361904D01*
X3747619Y-5323809D01*
X3709523Y-5285714D01*
X3671428Y-5209523D01*
X3671428Y-5019047D01*
X3709523Y-4942857D01*
X3747619Y-4904761D01*
X3823809Y-4866666D01*
X3976190Y-4866666D01*
X4052380Y-4904761D01*
X4090476Y-4942857D01*
X4128571Y-5019047D01*
%TO.C,C5*%
X-4266667Y714286D02*
X-4228572Y676191D01*
X-4114286Y638096D01*
X-4038096Y638096D01*
X-3923810Y676191D01*
X-3847620Y752381D01*
X-3809524Y828572D01*
X-3771429Y980953D01*
X-3771429Y1095239D01*
X-3809524Y1247620D01*
X-3847620Y1323810D01*
X-3923810Y1400000D01*
X-4038096Y1438096D01*
X-4114286Y1438096D01*
X-4228572Y1400000D01*
X-4266667Y1361905D01*
X-4990477Y1438096D02*
X-4609524Y1438096D01*
X-4571429Y1057143D01*
X-4609524Y1095239D01*
X-4685715Y1133334D01*
X-4876191Y1133334D01*
X-4952381Y1095239D01*
X-4990477Y1057143D01*
X-5028572Y980953D01*
X-5028572Y790477D01*
X-4990477Y714286D01*
X-4952381Y676191D01*
X-4876191Y638096D01*
X-4685715Y638096D01*
X-4609524Y676191D01*
X-4571429Y714286D01*
%TO.C,U1*%
X-12014286Y-3319142D02*
X-12014286Y-4047714D01*
X-12057143Y-4133428D01*
X-12100000Y-4176285D01*
X-12185715Y-4219142D01*
X-12357143Y-4219142D01*
X-12442858Y-4176285D01*
X-12485715Y-4133428D01*
X-12528572Y-4047714D01*
X-12528572Y-3319142D01*
X-13428572Y-4219142D02*
X-12914286Y-4219142D01*
X-13171429Y-4219142D02*
X-13171429Y-3319142D01*
X-13085715Y-3447714D01*
X-13000000Y-3533428D01*
X-12914286Y-3576285D01*
%TO.C,C1*%
X-266667Y4414286D02*
X-228572Y4376191D01*
X-114286Y4338096D01*
X-38096Y4338096D01*
X76190Y4376191D01*
X152380Y4452381D01*
X190476Y4528572D01*
X228571Y4680953D01*
X228571Y4795239D01*
X190476Y4947620D01*
X152380Y5023810D01*
X76190Y5100000D01*
X-38096Y5138096D01*
X-114286Y5138096D01*
X-228572Y5100000D01*
X-266667Y5061905D01*
X-1028572Y4338096D02*
X-571429Y4338096D01*
X-800000Y4338096D02*
X-800000Y5138096D01*
X-723810Y5023810D01*
X-647620Y4947620D01*
X-571429Y4909524D01*
%TO.C,C2*%
X7033333Y4114286D02*
X7071428Y4076191D01*
X7185714Y4038096D01*
X7261904Y4038096D01*
X7376190Y4076191D01*
X7452380Y4152381D01*
X7490476Y4228572D01*
X7528571Y4380953D01*
X7528571Y4495239D01*
X7490476Y4647620D01*
X7452380Y4723810D01*
X7376190Y4800000D01*
X7261904Y4838096D01*
X7185714Y4838096D01*
X7071428Y4800000D01*
X7033333Y4761905D01*
X6728571Y4761905D02*
X6690476Y4800000D01*
X6614285Y4838096D01*
X6423809Y4838096D01*
X6347619Y4800000D01*
X6309523Y4761905D01*
X6271428Y4685715D01*
X6271428Y4609524D01*
X6309523Y4495239D01*
X6766666Y4038096D01*
X6271428Y4038096D01*
%TO.C,U2*%
X7717523Y-4336808D02*
X7717523Y-4984427D01*
X7679428Y-5060618D01*
X7641333Y-5098713D01*
X7565142Y-5136808D01*
X7412761Y-5136808D01*
X7336571Y-5098713D01*
X7298476Y-5060618D01*
X7260380Y-4984427D01*
X7260380Y-4336808D01*
X6917523Y-4412999D02*
X6879428Y-4374904D01*
X6803238Y-4336808D01*
X6612761Y-4336808D01*
X6536571Y-4374904D01*
X6498476Y-4412999D01*
X6460380Y-4489189D01*
X6460380Y-4565380D01*
X6498476Y-4679665D01*
X6955619Y-5136808D01*
X6460380Y-5136808D01*
%TO.C,R5*%
X-5966667Y-5461904D02*
X-5700000Y-5080952D01*
X-5509524Y-5461904D02*
X-5509524Y-4661904D01*
X-5814286Y-4661904D01*
X-5890477Y-4700000D01*
X-5928572Y-4738095D01*
X-5966667Y-4814285D01*
X-5966667Y-4928571D01*
X-5928572Y-5004761D01*
X-5890477Y-5042857D01*
X-5814286Y-5080952D01*
X-5509524Y-5080952D01*
X-6690477Y-4661904D02*
X-6309524Y-4661904D01*
X-6271429Y-5042857D01*
X-6309524Y-5004761D01*
X-6385715Y-4966666D01*
X-6576191Y-4966666D01*
X-6652381Y-5004761D01*
X-6690477Y-5042857D01*
X-6728572Y-5119047D01*
X-6728572Y-5309523D01*
X-6690477Y-5385714D01*
X-6652381Y-5423809D01*
X-6576191Y-5461904D01*
X-6385715Y-5461904D01*
X-6309524Y-5423809D01*
X-6271429Y-5385714D01*
%TO.C,JP2*%
X2666666Y3968696D02*
X2666666Y3397267D01*
X2704761Y3282981D01*
X2780952Y3206791D01*
X2895238Y3168696D01*
X2971428Y3168696D01*
X2285714Y3168696D02*
X2285714Y3968696D01*
X1980952Y3968696D01*
X1904761Y3930600D01*
X1866666Y3892505D01*
X1828571Y3816315D01*
X1828571Y3702029D01*
X1866666Y3625839D01*
X1904761Y3587743D01*
X1980952Y3549648D01*
X2285714Y3549648D01*
X1523809Y3892505D02*
X1485714Y3930600D01*
X1409523Y3968696D01*
X1219047Y3968696D01*
X1142857Y3930600D01*
X1104761Y3892505D01*
X1066666Y3816315D01*
X1066666Y3740124D01*
X1104761Y3625839D01*
X1561904Y3168696D01*
X1066666Y3168696D01*
D13*
%TO.C,D1*%
X-15686000Y-1616000D02*
X-13836000Y-1616000D01*
X-15686000Y-416000D02*
X-13836000Y-416000D01*
X-13836000Y-416000D02*
X-13836000Y-1616000D01*
%TO.C,R10*%
X-7204742Y6902596D02*
X-7679258Y6902596D01*
X-7204742Y7947596D02*
X-7679258Y7947596D01*
%TO.C,J1*%
X15815000Y2920000D02*
X9815000Y2920000D01*
X9815000Y-2500000D02*
X15815000Y-2500000D01*
X6825000Y-2160000D02*
X7155000Y-2160000D01*
X9815000Y3870000D02*
X9815000Y-3870000D01*
X7155000Y-1270000D02*
X9815000Y-1270000D01*
X7155000Y-3870000D02*
X7155000Y3870000D01*
X9815000Y-2740000D02*
X15815000Y-2740000D01*
X15815000Y380000D02*
X9815000Y380000D01*
X9815000Y-2260000D02*
X15815000Y-2260000D01*
X6825000Y-2920000D02*
X7155000Y-2920000D01*
X6757929Y2160000D02*
X7155000Y2160000D01*
X15815000Y-2160000D02*
X9815000Y-2160000D01*
X7155000Y1270000D02*
X9815000Y1270000D01*
X15815000Y-2920000D02*
X15815000Y-2160000D01*
X4445000Y-3810000D02*
X5715000Y-3810000D01*
X9815000Y-380000D02*
X15815000Y-380000D01*
X9815000Y-3870000D02*
X7155000Y-3870000D01*
X9815000Y-2920000D02*
X15815000Y-2920000D01*
X4445000Y-2540000D02*
X4445000Y-3810000D01*
X6757929Y2920000D02*
X7155000Y2920000D01*
X9815000Y-2620000D02*
X15815000Y-2620000D01*
X9815000Y-2860000D02*
X15815000Y-2860000D01*
X15815000Y2160000D02*
X15815000Y2920000D01*
X7155000Y3870000D02*
X9815000Y3870000D01*
X9815000Y-2380000D02*
X15815000Y-2380000D01*
X6757929Y-380000D02*
X7155000Y-380000D01*
X9815000Y2160000D02*
X15815000Y2160000D01*
X15815000Y-380000D02*
X15815000Y380000D01*
X6757929Y380000D02*
X7155000Y380000D01*
%TO.C,U3*%
X-3542000Y5115096D02*
X-2742000Y5115096D01*
X-3542000Y5115096D02*
X-5342000Y5115096D01*
X-3542000Y8235096D02*
X-2742000Y8235096D01*
X-3542000Y8235096D02*
X-4342000Y8235096D01*
%TO.C,C3*%
X-14845420Y760000D02*
X-15126580Y760000D01*
X-14845420Y1780000D02*
X-15126580Y1780000D01*
%TO.C,C4*%
X-13901420Y6915096D02*
X-14182580Y6915096D01*
X-13901420Y7935096D02*
X-14182580Y7935096D01*
%TO.C,J2*%
X-18178000Y9041096D02*
X-16728000Y9041096D01*
X-20998000Y1841096D02*
X-20998000Y7771096D01*
X-16728000Y2371096D02*
X-15738000Y2371096D01*
X-16728000Y9041096D02*
X-16728000Y7241096D01*
X-18178000Y571096D02*
X-16728000Y571096D01*
X-16728000Y571096D02*
X-16728000Y2371096D01*
%TO.C,R4*%
X-3541500Y-6874742D02*
X-3541500Y-7349258D01*
X-4586500Y-6874742D02*
X-4586500Y-7349258D01*
%TO.C,R1*%
X8273000Y6752160D02*
X8273000Y6298032D01*
X9743000Y6752160D02*
X9743000Y6298032D01*
%TO.C,R2*%
X3837000Y6298032D02*
X3837000Y6752160D01*
X5307000Y6298032D02*
X5307000Y6752160D01*
%TO.C,R3*%
X-10504742Y7947596D02*
X-10979258Y7947596D01*
X-10504742Y6902596D02*
X-10979258Y6902596D01*
%TO.C,C6*%
X3790000Y-6859420D02*
X3790000Y-7140580D01*
X4810000Y-6859420D02*
X4810000Y-7140580D01*
%TO.C,J3*%
X-20998000Y-7733904D02*
X-20998000Y-1803904D01*
X-16728000Y-7203904D02*
X-15738000Y-7203904D01*
X-16728000Y-9003904D02*
X-16728000Y-7203904D01*
X-16728000Y-533904D02*
X-16728000Y-2333904D01*
X-18178000Y-9003904D02*
X-16728000Y-9003904D01*
X-18178000Y-533904D02*
X-16728000Y-533904D01*
%TO.C,C5*%
X-4929500Y3185676D02*
X-4929500Y2904516D01*
X-3909500Y3185676D02*
X-3909500Y2904516D01*
D10*
%TO.C,U1*%
X-13142000Y-3088000D02*
X-13142000Y4612000D01*
X-5442000Y4612000D02*
X-6752000Y4612000D01*
X-11832000Y4612000D02*
X-13142000Y4612000D01*
X-5442000Y-2438000D02*
X-6752000Y-2438000D01*
X-5442000Y-3088000D02*
X-6752000Y-3088000D01*
X-11832000Y-3088000D02*
X-13142000Y-3088000D01*
X-5442000Y-3088000D02*
X-5442000Y4612000D01*
X-11832000Y-2438000D02*
X-13142000Y-2438000D01*
X-6625000Y-1778000D02*
G75*
G03*
X-6625000Y-1778000I-127000J0D01*
G01*
D13*
%TO.C,C1*%
X-802000Y6634516D02*
X-802000Y6915676D01*
X218000Y6634516D02*
X218000Y6915676D01*
%TO.C,C2*%
X7300000Y6384516D02*
X7300000Y6665676D01*
X6280000Y6384516D02*
X6280000Y6665676D01*
%TO.C,U2*%
X5952000Y-7560904D02*
X5952000Y-5660904D01*
X8272000Y-6160904D02*
X8272000Y-7560904D01*
%TO.C,R5*%
X-6618500Y-7349258D02*
X-6618500Y-6874742D01*
X-5573500Y-7349258D02*
X-5573500Y-6874742D01*
%TO.C,JP2*%
X887500Y7825096D02*
X887500Y5025096D01*
X1587500Y4375096D02*
X2187500Y4375096D01*
X3087500Y7625096D02*
X3387500Y7925096D01*
X2887500Y5025096D02*
X2887500Y7825096D01*
X2187500Y8475096D02*
X1587500Y8475096D01*
X3087500Y7625096D02*
X3387500Y7325096D01*
X3387500Y7925096D02*
X3387500Y7325096D01*
X887500Y5075096D02*
G75*
G03*
X1587500Y4375096I700000J0D01*
G01*
X1587500Y8475096D02*
G75*
G03*
X887500Y7775096I-1J-699999D01*
G01*
X2187500Y4375096D02*
G75*
G03*
X2887500Y5075096I0J700000D01*
G01*
X2887500Y7775096D02*
G75*
G03*
X2187500Y8475096I-699999J1D01*
G01*
%TD*%
M02*
