G04 #@! TF.GenerationSoftware,KiCad,Pcbnew,(5.99.0-494-g9b7d4e274)*
G04 #@! TF.CreationDate,2020-06-15T11:42:29+02:00*
G04 #@! TF.ProjectId,TFRPM01B,54465250-4d30-4314-922e-6b696361645f,REV*
G04 #@! TF.SameCoordinates,Original*
G04 #@! TF.FileFunction,Legend,Top*
G04 #@! TF.FilePolarity,Positive*
%FSLAX46Y46*%
G04 Gerber Fmt 4.6, Leading zero omitted, Abs format (unit mm)*
G04 Created by KiCad (PCBNEW (5.99.0-494-g9b7d4e274)) date 2020-06-15 11:42:29*
%MOMM*%
%LPD*%
G04 APERTURE LIST*
%ADD10C,0.300000*%
%ADD11C,0.150000*%
%ADD12C,0.200000*%
%ADD13C,0.250000*%
G04 APERTURE END LIST*
D10*
X114026857Y-136338571D02*
X114884000Y-136338571D01*
X114455428Y-137838571D02*
X114455428Y-136338571D01*
X115884000Y-137052857D02*
X115384000Y-137052857D01*
X115384000Y-137838571D02*
X115384000Y-136338571D01*
X116098285Y-136338571D01*
X117526857Y-137838571D02*
X117026857Y-137124285D01*
X116669714Y-137838571D02*
X116669714Y-136338571D01*
X117241142Y-136338571D01*
X117384000Y-136410000D01*
X117455428Y-136481428D01*
X117526857Y-136624285D01*
X117526857Y-136838571D01*
X117455428Y-136981428D01*
X117384000Y-137052857D01*
X117241142Y-137124285D01*
X116669714Y-137124285D01*
X118169714Y-137838571D02*
X118169714Y-136338571D01*
X118741142Y-136338571D01*
X118884000Y-136410000D01*
X118955428Y-136481428D01*
X119026857Y-136624285D01*
X119026857Y-136838571D01*
X118955428Y-136981428D01*
X118884000Y-137052857D01*
X118741142Y-137124285D01*
X118169714Y-137124285D01*
X119669714Y-137838571D02*
X119669714Y-136338571D01*
X120169714Y-137410000D01*
X120669714Y-136338571D01*
X120669714Y-137838571D01*
X121669714Y-136338571D02*
X121812571Y-136338571D01*
X121955428Y-136410000D01*
X122026857Y-136481428D01*
X122098285Y-136624285D01*
X122169714Y-136910000D01*
X122169714Y-137267142D01*
X122098285Y-137552857D01*
X122026857Y-137695714D01*
X121955428Y-137767142D01*
X121812571Y-137838571D01*
X121669714Y-137838571D01*
X121526857Y-137767142D01*
X121455428Y-137695714D01*
X121384000Y-137552857D01*
X121312571Y-137267142D01*
X121312571Y-136910000D01*
X121384000Y-136624285D01*
X121455428Y-136481428D01*
X121526857Y-136410000D01*
X121669714Y-136338571D01*
X123598285Y-137838571D02*
X122741142Y-137838571D01*
X123169714Y-137838571D02*
X123169714Y-136338571D01*
X123026857Y-136552857D01*
X122884000Y-136695714D01*
X122741142Y-136767142D01*
X124741142Y-137052857D02*
X124955428Y-137124285D01*
X125026857Y-137195714D01*
X125098285Y-137338571D01*
X125098285Y-137552857D01*
X125026857Y-137695714D01*
X124955428Y-137767142D01*
X124812571Y-137838571D01*
X124241142Y-137838571D01*
X124241142Y-136338571D01*
X124741142Y-136338571D01*
X124884000Y-136410000D01*
X124955428Y-136481428D01*
X125026857Y-136624285D01*
X125026857Y-136767142D01*
X124955428Y-136910000D01*
X124884000Y-136981428D01*
X124741142Y-137052857D01*
X124241142Y-137052857D01*
D11*
X145034000Y-135382000D02*
X145796000Y-135382000D01*
X145034000Y-134493000D02*
X145034000Y-135382000D01*
X144272000Y-134493000D02*
X145034000Y-134493000D01*
X144272000Y-135382000D02*
X144272000Y-134493000D01*
X143637000Y-135382000D02*
X144272000Y-135382000D01*
D12*
X125280523Y-140415095D02*
X125280523Y-139115095D01*
X125775761Y-139115095D01*
X125899571Y-139177000D01*
X125961476Y-139238904D01*
X126023380Y-139362714D01*
X126023380Y-139548428D01*
X125961476Y-139672238D01*
X125899571Y-139734142D01*
X125775761Y-139796047D01*
X125280523Y-139796047D01*
X126580523Y-139115095D02*
X126580523Y-140167476D01*
X126642428Y-140291285D01*
X126704333Y-140353190D01*
X126828142Y-140415095D01*
X127075761Y-140415095D01*
X127199571Y-140353190D01*
X127261476Y-140291285D01*
X127323380Y-140167476D01*
X127323380Y-139115095D01*
X128561476Y-140415095D02*
X127942428Y-140415095D01*
X127942428Y-139115095D01*
X128932904Y-140353190D02*
X129118619Y-140415095D01*
X129428142Y-140415095D01*
X129551952Y-140353190D01*
X129613857Y-140291285D01*
X129675761Y-140167476D01*
X129675761Y-140043666D01*
X129613857Y-139919857D01*
X129551952Y-139857952D01*
X129428142Y-139796047D01*
X129180523Y-139734142D01*
X129056714Y-139672238D01*
X128994809Y-139610333D01*
X128932904Y-139486523D01*
X128932904Y-139362714D01*
X128994809Y-139238904D01*
X129056714Y-139177000D01*
X129180523Y-139115095D01*
X129490047Y-139115095D01*
X129675761Y-139177000D01*
X130232904Y-139734142D02*
X130666238Y-139734142D01*
X130851952Y-140415095D02*
X130232904Y-140415095D01*
X130232904Y-139115095D01*
X130851952Y-139115095D01*
D13*
X112441904Y-131113761D02*
X113741904Y-131113761D01*
X113618095Y-131649476D02*
X113680000Y-131709000D01*
X113741904Y-131828047D01*
X113741904Y-132125666D01*
X113680000Y-132244714D01*
X113618095Y-132304238D01*
X113494285Y-132363761D01*
X113370476Y-132363761D01*
X113184761Y-132304238D01*
X112441904Y-131589952D01*
X112441904Y-132363761D01*
X112565714Y-133613761D02*
X112503809Y-133554238D01*
X112441904Y-133375666D01*
X112441904Y-133256619D01*
X112503809Y-133078047D01*
X112627619Y-132959000D01*
X112751428Y-132899476D01*
X112999047Y-132839952D01*
X113184761Y-132839952D01*
X113432380Y-132899476D01*
X113556190Y-132959000D01*
X113680000Y-133078047D01*
X113741904Y-133256619D01*
X113741904Y-133375666D01*
X113680000Y-133554238D01*
X113618095Y-133613761D01*
D12*
X140393523Y-132426857D02*
X141384000Y-132426857D01*
X140888761Y-132922095D02*
X140888761Y-131931619D01*
X142622095Y-131622095D02*
X142003047Y-131622095D01*
X141941142Y-132241142D01*
X142003047Y-132179238D01*
X142126857Y-132117333D01*
X142436380Y-132117333D01*
X142560190Y-132179238D01*
X142622095Y-132241142D01*
X142684000Y-132364952D01*
X142684000Y-132674476D01*
X142622095Y-132798285D01*
X142560190Y-132860190D01*
X142436380Y-132922095D01*
X142126857Y-132922095D01*
X142003047Y-132860190D01*
X141941142Y-132798285D01*
X143055428Y-131622095D02*
X143488761Y-132922095D01*
X143922095Y-131622095D01*
X139039857Y-139919142D02*
X139097000Y-139862000D01*
X139211285Y-139804857D01*
X139497000Y-139804857D01*
X139611285Y-139862000D01*
X139668428Y-139919142D01*
X139725571Y-140033428D01*
X139725571Y-140147714D01*
X139668428Y-140319142D01*
X138982714Y-141004857D01*
X139725571Y-141004857D01*
X140468428Y-139804857D02*
X140582714Y-139804857D01*
X140697000Y-139862000D01*
X140754142Y-139919142D01*
X140811285Y-140033428D01*
X140868428Y-140262000D01*
X140868428Y-140547714D01*
X140811285Y-140776285D01*
X140754142Y-140890571D01*
X140697000Y-140947714D01*
X140582714Y-141004857D01*
X140468428Y-141004857D01*
X140354142Y-140947714D01*
X140297000Y-140890571D01*
X140239857Y-140776285D01*
X140182714Y-140547714D01*
X140182714Y-140262000D01*
X140239857Y-140033428D01*
X140297000Y-139919142D01*
X140354142Y-139862000D01*
X140468428Y-139804857D01*
X141325571Y-139919142D02*
X141382714Y-139862000D01*
X141497000Y-139804857D01*
X141782714Y-139804857D01*
X141897000Y-139862000D01*
X141954142Y-139919142D01*
X142011285Y-140033428D01*
X142011285Y-140147714D01*
X141954142Y-140319142D01*
X141268428Y-141004857D01*
X142011285Y-141004857D01*
X142754142Y-139804857D02*
X142868428Y-139804857D01*
X142982714Y-139862000D01*
X143039857Y-139919142D01*
X143097000Y-140033428D01*
X143154142Y-140262000D01*
X143154142Y-140547714D01*
X143097000Y-140776285D01*
X143039857Y-140890571D01*
X142982714Y-140947714D01*
X142868428Y-141004857D01*
X142754142Y-141004857D01*
X142639857Y-140947714D01*
X142582714Y-140890571D01*
X142525571Y-140776285D01*
X142468428Y-140547714D01*
X142468428Y-140262000D01*
X142525571Y-140033428D01*
X142582714Y-139919142D01*
X142639857Y-139862000D01*
X142754142Y-139804857D01*
X141074476Y-129144000D02*
X140950666Y-129082095D01*
X140764952Y-129082095D01*
X140579238Y-129144000D01*
X140455428Y-129267809D01*
X140393523Y-129391619D01*
X140331619Y-129639238D01*
X140331619Y-129824952D01*
X140393523Y-130072571D01*
X140455428Y-130196380D01*
X140579238Y-130320190D01*
X140764952Y-130382095D01*
X140888761Y-130382095D01*
X141074476Y-130320190D01*
X141136380Y-130258285D01*
X141136380Y-129824952D01*
X140888761Y-129824952D01*
X141693523Y-130382095D02*
X141693523Y-129082095D01*
X142436380Y-130382095D01*
X142436380Y-129082095D01*
X143055428Y-130382095D02*
X143055428Y-129082095D01*
X143364952Y-129082095D01*
X143550666Y-129144000D01*
X143674476Y-129267809D01*
X143736380Y-129391619D01*
X143798285Y-129639238D01*
X143798285Y-129824952D01*
X143736380Y-130072571D01*
X143674476Y-130196380D01*
X143550666Y-130320190D01*
X143364952Y-130382095D01*
X143055428Y-130382095D01*
X140393523Y-135462095D02*
X140393523Y-134162095D01*
X141012571Y-135462095D02*
X141012571Y-134162095D01*
X141755428Y-135462095D01*
X141755428Y-134162095D01*
G04 #@! TO.C,G\002A\002A\002A*
G36*
X129414847Y-124580660D02*
G01*
X129462530Y-124581489D01*
X129497481Y-124582731D01*
X129515795Y-124584275D01*
X129517588Y-124584964D01*
X129515720Y-124596743D01*
X129510351Y-124628305D01*
X129501836Y-124677639D01*
X129490529Y-124742732D01*
X129476784Y-124821570D01*
X129460955Y-124912142D01*
X129443396Y-125012434D01*
X129424461Y-125120433D01*
X129404504Y-125234127D01*
X129383880Y-125351503D01*
X129362943Y-125470549D01*
X129342045Y-125589251D01*
X129321543Y-125705596D01*
X129301790Y-125817573D01*
X129283139Y-125923168D01*
X129265945Y-126020368D01*
X129250562Y-126107161D01*
X129237345Y-126181534D01*
X129226647Y-126241474D01*
X129218822Y-126284968D01*
X129214225Y-126310005D01*
X129213196Y-126315196D01*
X129210085Y-126324930D01*
X129203833Y-126331726D01*
X129190942Y-126336113D01*
X129167917Y-126338616D01*
X129131262Y-126339764D01*
X129077480Y-126340084D01*
X129048043Y-126340098D01*
X128985668Y-126339897D01*
X128942214Y-126339026D01*
X128914466Y-126337083D01*
X128899212Y-126333666D01*
X128893238Y-126328372D01*
X128893331Y-126320798D01*
X128893347Y-126320730D01*
X128895942Y-126306944D01*
X128902037Y-126273085D01*
X128911328Y-126220883D01*
X128923509Y-126152070D01*
X128938275Y-126068378D01*
X128955322Y-125971537D01*
X128974343Y-125863279D01*
X128995035Y-125745336D01*
X129017091Y-125619440D01*
X129040208Y-125487321D01*
X129042042Y-125476830D01*
X129065303Y-125343793D01*
X129087571Y-125216467D01*
X129108532Y-125096627D01*
X129127878Y-124986052D01*
X129145295Y-124886519D01*
X129160474Y-124799805D01*
X129173103Y-124727687D01*
X129182872Y-124671944D01*
X129189468Y-124634352D01*
X129192582Y-124616689D01*
X129192646Y-124616329D01*
X129199093Y-124580359D01*
X129358340Y-124580359D01*
X129414847Y-124580660D01*
G37*
G36*
X128242765Y-124610795D02*
G01*
X128240165Y-124626323D01*
X128234041Y-124661920D01*
X128224697Y-124715852D01*
X128212434Y-124786387D01*
X128197554Y-124871791D01*
X128180361Y-124970330D01*
X128161155Y-125080272D01*
X128140240Y-125199883D01*
X128117918Y-125327431D01*
X128094490Y-125461181D01*
X128089330Y-125490625D01*
X127940464Y-126340018D01*
X127782751Y-126340058D01*
X127718062Y-126339638D01*
X127672721Y-126338167D01*
X127643957Y-126335390D01*
X127628995Y-126331050D01*
X127625039Y-126325447D01*
X127626915Y-126312180D01*
X127632307Y-126279155D01*
X127640857Y-126228401D01*
X127652209Y-126161950D01*
X127666007Y-126081832D01*
X127681893Y-125990076D01*
X127699511Y-125888712D01*
X127718504Y-125779772D01*
X127738517Y-125665286D01*
X127759191Y-125547282D01*
X127780171Y-125427792D01*
X127801099Y-125308847D01*
X127821620Y-125192475D01*
X127841376Y-125080707D01*
X127860011Y-124975574D01*
X127877169Y-124879106D01*
X127892492Y-124793333D01*
X127905624Y-124720285D01*
X127916209Y-124661992D01*
X127923889Y-124620484D01*
X127928308Y-124597792D01*
X127929161Y-124594194D01*
X127938023Y-124588270D01*
X127961093Y-124584138D01*
X128000671Y-124581603D01*
X128059057Y-124580467D01*
X128090784Y-124580359D01*
X128247333Y-124580359D01*
X128242765Y-124610795D01*
G37*
G36*
X126988814Y-124605261D02*
G01*
X126986015Y-124619953D01*
X126979722Y-124654705D01*
X126970244Y-124707769D01*
X126957889Y-124777399D01*
X126942965Y-124861847D01*
X126925780Y-124959368D01*
X126906642Y-125068214D01*
X126885860Y-125186638D01*
X126863742Y-125312894D01*
X126840596Y-125445235D01*
X126838943Y-125454695D01*
X126815715Y-125587564D01*
X126793486Y-125714598D01*
X126772566Y-125834033D01*
X126753264Y-125944107D01*
X126735890Y-126043059D01*
X126720753Y-126129126D01*
X126708163Y-126200547D01*
X126698431Y-126255558D01*
X126691865Y-126292399D01*
X126688775Y-126309307D01*
X126688704Y-126309662D01*
X126682539Y-126340098D01*
X126360940Y-126340098D01*
X126366940Y-126315196D01*
X126369789Y-126300438D01*
X126376124Y-126265654D01*
X126385632Y-126212622D01*
X126397998Y-126143122D01*
X126412907Y-126058933D01*
X126430044Y-125961835D01*
X126449096Y-125853606D01*
X126469747Y-125736026D01*
X126491683Y-125610875D01*
X126512230Y-125493431D01*
X126535233Y-125361945D01*
X126557368Y-125235646D01*
X126578303Y-125116412D01*
X126597706Y-125006118D01*
X126615246Y-124906644D01*
X126630593Y-124819866D01*
X126643413Y-124747662D01*
X126653376Y-124691909D01*
X126660151Y-124654484D01*
X126663159Y-124638464D01*
X126674800Y-124580359D01*
X126994611Y-124580359D01*
X126988814Y-124605261D01*
G37*
G36*
X129616715Y-126761334D02*
G01*
X129664714Y-126762692D01*
X129694752Y-126765266D01*
X129708905Y-126769218D01*
X129710116Y-126773599D01*
X129701986Y-126784588D01*
X129681568Y-126811403D01*
X129650143Y-126852382D01*
X129608992Y-126905862D01*
X129559396Y-126970181D01*
X129502636Y-127043678D01*
X129439994Y-127124688D01*
X129372751Y-127211551D01*
X129340507Y-127253170D01*
X129271641Y-127342074D01*
X129206835Y-127425810D01*
X129147364Y-127502727D01*
X129094499Y-127571174D01*
X129049515Y-127629503D01*
X129013684Y-127676062D01*
X128988280Y-127709201D01*
X128974575Y-127727271D01*
X128972542Y-127730082D01*
X128969617Y-127742224D01*
X128963377Y-127773123D01*
X128954376Y-127819745D01*
X128943166Y-127879053D01*
X128930303Y-127948012D01*
X128916340Y-128023584D01*
X128901832Y-128102735D01*
X128887331Y-128182427D01*
X128873392Y-128259626D01*
X128860570Y-128331295D01*
X128849417Y-128394398D01*
X128840489Y-128445899D01*
X128834338Y-128482762D01*
X128831520Y-128501951D01*
X128831400Y-128503610D01*
X128820981Y-128505633D01*
X128792316Y-128507342D01*
X128749294Y-128508599D01*
X128695803Y-128509265D01*
X128670710Y-128509335D01*
X128510020Y-128509335D01*
X128515809Y-128484433D01*
X128519885Y-128464116D01*
X128526896Y-128426155D01*
X128536301Y-128373705D01*
X128547558Y-128309923D01*
X128560124Y-128237965D01*
X128573458Y-128160986D01*
X128587019Y-128082142D01*
X128600264Y-128004589D01*
X128612651Y-127931484D01*
X128623639Y-127865982D01*
X128632685Y-127811240D01*
X128639249Y-127770412D01*
X128642787Y-127746656D01*
X128643252Y-127742172D01*
X128639071Y-127728823D01*
X128627100Y-127697220D01*
X128608204Y-127649485D01*
X128583243Y-127587737D01*
X128553082Y-127514099D01*
X128518581Y-127430690D01*
X128480603Y-127339632D01*
X128448201Y-127262475D01*
X128407896Y-127166645D01*
X128370161Y-127076656D01*
X128335887Y-126994651D01*
X128305962Y-126922769D01*
X128281277Y-126863154D01*
X128262722Y-126817945D01*
X128251187Y-126789285D01*
X128247618Y-126779737D01*
X128246919Y-126772255D01*
X128251819Y-126767057D01*
X128265438Y-126763827D01*
X128290899Y-126762245D01*
X128331324Y-126761997D01*
X128389834Y-126762763D01*
X128410967Y-126763135D01*
X128579848Y-126766198D01*
X128718106Y-127106525D01*
X128751342Y-127187804D01*
X128782150Y-127262130D01*
X128809509Y-127327113D01*
X128832394Y-127380364D01*
X128849784Y-127419495D01*
X128860655Y-127442117D01*
X128863817Y-127446852D01*
X128871841Y-127438260D01*
X128891521Y-127413767D01*
X128921389Y-127375298D01*
X128959977Y-127324776D01*
X129005817Y-127264125D01*
X129057442Y-127195271D01*
X129113383Y-127120137D01*
X129125257Y-127104125D01*
X129379244Y-126761399D01*
X129548677Y-126761032D01*
X129616715Y-126761334D01*
G37*
G36*
X127691230Y-126762793D02*
G01*
X127709782Y-126763118D01*
X127863993Y-126766198D01*
X127745554Y-127441318D01*
X127724414Y-127561872D01*
X127704267Y-127676863D01*
X127685465Y-127784282D01*
X127668357Y-127882120D01*
X127653295Y-127968367D01*
X127640630Y-128041014D01*
X127630712Y-128098051D01*
X127623893Y-128137468D01*
X127620524Y-128157257D01*
X127620413Y-128157941D01*
X127613710Y-128199444D01*
X127912664Y-128199444D01*
X128002244Y-128199552D01*
X128072095Y-128199972D01*
X128124623Y-128200849D01*
X128162234Y-128202329D01*
X128187333Y-128204557D01*
X128202325Y-128207679D01*
X128209617Y-128211840D01*
X128211614Y-128217185D01*
X128211618Y-128217508D01*
X128209767Y-128234930D01*
X128204719Y-128269263D01*
X128197231Y-128315642D01*
X128188063Y-128369197D01*
X128187490Y-128372453D01*
X128163361Y-128509335D01*
X127700518Y-128509335D01*
X127601736Y-128509271D01*
X127510178Y-128509089D01*
X127428132Y-128508802D01*
X127357887Y-128508423D01*
X127301733Y-128507967D01*
X127261958Y-128507447D01*
X127240852Y-128506877D01*
X127238014Y-128506568D01*
X127240904Y-128487865D01*
X127247248Y-128450101D01*
X127256691Y-128395276D01*
X127268873Y-128325387D01*
X127283438Y-128242432D01*
X127300028Y-128148410D01*
X127318286Y-128045318D01*
X127337854Y-127935154D01*
X127358374Y-127819916D01*
X127379490Y-127701603D01*
X127400842Y-127582213D01*
X127422075Y-127463742D01*
X127442831Y-127348191D01*
X127462751Y-127237555D01*
X127481479Y-127133835D01*
X127498657Y-127039026D01*
X127513927Y-126955129D01*
X127526933Y-126884140D01*
X127537315Y-126828058D01*
X127544718Y-126788880D01*
X127548783Y-126768605D01*
X127549427Y-126766182D01*
X127562140Y-126764169D01*
X127592799Y-126762881D01*
X127637223Y-126762395D01*
X127691230Y-126762793D01*
G37*
G36*
X126913459Y-126760861D02*
G01*
X127011031Y-126761347D01*
X127099357Y-126762119D01*
X127176268Y-126763143D01*
X127239596Y-126764384D01*
X127287172Y-126765807D01*
X127316828Y-126767378D01*
X127326428Y-126768965D01*
X127324748Y-126782394D01*
X127319996Y-126813346D01*
X127312855Y-126857530D01*
X127304009Y-126910656D01*
X127301793Y-126923762D01*
X127276945Y-127070259D01*
X126917569Y-127073174D01*
X126558194Y-127076089D01*
X126527707Y-127242102D01*
X126517020Y-127301346D01*
X126507896Y-127353902D01*
X126501060Y-127395442D01*
X126497237Y-127421634D01*
X126496686Y-127427483D01*
X126497894Y-127433461D01*
X126503572Y-127438070D01*
X126516239Y-127441487D01*
X126538414Y-127443887D01*
X126572619Y-127445447D01*
X126621373Y-127446344D01*
X126687196Y-127446753D01*
X126772608Y-127446852D01*
X126773584Y-127446852D01*
X126859074Y-127446940D01*
X126924902Y-127447323D01*
X126973543Y-127448177D01*
X127007469Y-127449677D01*
X127029154Y-127452002D01*
X127041072Y-127455325D01*
X127045696Y-127459825D01*
X127045500Y-127465676D01*
X127045347Y-127466220D01*
X127041661Y-127482874D01*
X127035314Y-127515394D01*
X127027252Y-127558530D01*
X127018417Y-127607031D01*
X127009755Y-127655647D01*
X127002209Y-127699127D01*
X126996724Y-127732220D01*
X126994244Y-127749678D01*
X126994189Y-127750689D01*
X126983613Y-127752337D01*
X126953851Y-127753815D01*
X126907852Y-127755060D01*
X126848563Y-127756008D01*
X126778935Y-127756594D01*
X126714734Y-127756760D01*
X126435278Y-127756778D01*
X126392706Y-128003013D01*
X126378660Y-128084181D01*
X126364261Y-128167246D01*
X126350495Y-128246544D01*
X126338343Y-128316414D01*
X126328788Y-128371192D01*
X126327372Y-128379292D01*
X126304609Y-128509335D01*
X126144536Y-128509335D01*
X126082157Y-128509247D01*
X126038651Y-128508635D01*
X126010754Y-128506976D01*
X125995204Y-128503747D01*
X125988739Y-128498425D01*
X125988096Y-128490488D01*
X125989113Y-128484433D01*
X125991722Y-128469799D01*
X125997849Y-128435080D01*
X126007190Y-128381995D01*
X126019444Y-128312263D01*
X126034310Y-128227603D01*
X126051486Y-128129733D01*
X126070670Y-128020372D01*
X126091561Y-127901239D01*
X126113856Y-127774052D01*
X126137255Y-127640531D01*
X126142582Y-127610129D01*
X126291400Y-126760726D01*
X126808808Y-126760695D01*
X126913459Y-126760861D01*
G37*
G36*
X124906188Y-126760664D02*
G01*
X125010021Y-126760762D01*
X125094461Y-126761144D01*
X125162250Y-126761939D01*
X125216128Y-126763279D01*
X125258839Y-126765295D01*
X125293123Y-126768117D01*
X125321722Y-126771876D01*
X125347378Y-126776704D01*
X125372832Y-126782730D01*
X125373791Y-126782974D01*
X125482303Y-126819397D01*
X125573004Y-126868936D01*
X125646061Y-126931804D01*
X125701638Y-127008213D01*
X125739900Y-127098378D01*
X125761013Y-127202511D01*
X125765692Y-127289190D01*
X125757664Y-127400615D01*
X125733090Y-127498068D01*
X125691235Y-127583069D01*
X125631363Y-127657135D01*
X125558197Y-127718006D01*
X125522631Y-127743735D01*
X125495216Y-127765130D01*
X125480169Y-127778834D01*
X125478555Y-127781449D01*
X125483444Y-127792549D01*
X125497456Y-127820494D01*
X125519195Y-127862650D01*
X125547263Y-127916388D01*
X125580265Y-127979074D01*
X125616803Y-128048077D01*
X125655481Y-128120766D01*
X125694903Y-128194509D01*
X125733673Y-128266673D01*
X125770393Y-128334628D01*
X125803667Y-128395742D01*
X125828098Y-128440163D01*
X125866384Y-128509335D01*
X125685994Y-128509102D01*
X125505605Y-128508868D01*
X125337803Y-128185376D01*
X125170002Y-127861884D01*
X125008544Y-127858822D01*
X124847087Y-127855759D01*
X124847087Y-128509335D01*
X124526128Y-128509335D01*
X124526128Y-127024095D01*
X124847087Y-127024095D01*
X124847087Y-127592961D01*
X125032468Y-127589079D01*
X125101005Y-127587497D01*
X125151704Y-127585634D01*
X125188856Y-127582857D01*
X125216755Y-127578531D01*
X125239695Y-127572023D01*
X125261968Y-127562701D01*
X125283774Y-127551993D01*
X125347265Y-127511416D01*
X125391591Y-127462255D01*
X125418909Y-127401871D01*
X125424372Y-127379933D01*
X125432826Y-127297067D01*
X125423012Y-127221489D01*
X125395924Y-127155593D01*
X125352554Y-127101773D01*
X125293897Y-127062422D01*
X125292351Y-127061695D01*
X125267815Y-127050834D01*
X125245029Y-127042894D01*
X125219780Y-127037318D01*
X125187851Y-127033550D01*
X125145029Y-127031032D01*
X125087097Y-127029208D01*
X125038002Y-127028103D01*
X124847087Y-127024095D01*
X124526128Y-127024095D01*
X124526128Y-126760664D01*
X124906188Y-126760664D01*
G37*
G36*
X124249440Y-127070555D02*
G01*
X123452577Y-127070555D01*
X123452577Y-127446852D01*
X124061291Y-127446852D01*
X124061291Y-127756743D01*
X123452577Y-127756743D01*
X123452577Y-128199444D01*
X124271575Y-128199444D01*
X124271575Y-128509335D01*
X123120551Y-128509335D01*
X123120551Y-126760664D01*
X124249440Y-126760664D01*
X124249440Y-127070555D01*
G37*
G36*
X121773078Y-126763589D02*
G01*
X121888501Y-126764891D01*
X121984477Y-126766340D01*
X122063695Y-126768315D01*
X122128841Y-126771193D01*
X122182603Y-126775354D01*
X122227669Y-126781177D01*
X122266725Y-126789040D01*
X122302461Y-126799321D01*
X122337562Y-126812400D01*
X122374717Y-126828655D01*
X122416613Y-126848464D01*
X122433616Y-126856656D01*
X122487419Y-126884270D01*
X122530967Y-126911485D01*
X122571796Y-126943749D01*
X122617443Y-126986512D01*
X122628836Y-126997826D01*
X122674651Y-127045562D01*
X122708773Y-127086839D01*
X122736657Y-127129197D01*
X122763756Y-127180177D01*
X122770031Y-127193045D01*
X122800538Y-127258766D01*
X122823351Y-127315584D01*
X122839552Y-127368817D01*
X122850222Y-127423782D01*
X122856441Y-127485797D01*
X122859291Y-127560179D01*
X122859872Y-127635000D01*
X122858982Y-127724037D01*
X122855589Y-127796250D01*
X122848613Y-127856906D01*
X122836972Y-127911271D01*
X122819584Y-127964610D01*
X122795369Y-128022189D01*
X122768952Y-128077701D01*
X122703783Y-128185757D01*
X122621605Y-128280652D01*
X122524334Y-128360705D01*
X122413888Y-128424235D01*
X122339179Y-128454746D01*
X122297252Y-128468685D01*
X122257118Y-128480064D01*
X122215960Y-128489136D01*
X122170956Y-128496153D01*
X122119287Y-128501370D01*
X122058134Y-128505038D01*
X121984676Y-128507410D01*
X121896094Y-128508741D01*
X121789568Y-128509282D01*
X121730601Y-128509335D01*
X121349745Y-128509335D01*
X121349745Y-127046899D01*
X121670703Y-127046899D01*
X121670703Y-128223420D01*
X122163209Y-128216046D01*
X122237369Y-128180913D01*
X122322366Y-128129450D01*
X122391763Y-128062870D01*
X122445678Y-127980945D01*
X122484227Y-127883447D01*
X122507525Y-127770149D01*
X122515688Y-127640823D01*
X122515702Y-127635000D01*
X122508175Y-127504991D01*
X122485520Y-127391020D01*
X122447618Y-127292859D01*
X122394355Y-127210280D01*
X122325614Y-127143056D01*
X122241279Y-127090959D01*
X122237369Y-127089087D01*
X122163209Y-127053954D01*
X121916956Y-127050426D01*
X121670703Y-127046899D01*
X121349745Y-127046899D01*
X121349745Y-126759038D01*
X121773078Y-126763589D01*
G37*
G36*
X120302645Y-127322342D02*
G01*
X120674552Y-127884019D01*
X120674588Y-127322342D01*
X120674625Y-126760664D01*
X120995583Y-126760664D01*
X120995583Y-128509335D01*
X120733552Y-128509335D01*
X119933124Y-127308507D01*
X119933100Y-128509335D01*
X119612141Y-128509335D01*
X119612141Y-126760664D01*
X119930738Y-126760664D01*
X120302645Y-127322342D01*
G37*
G36*
X116369352Y-127446852D02*
G01*
X117177283Y-127446852D01*
X117177283Y-126760664D01*
X117498241Y-126760664D01*
X117498241Y-128509335D01*
X117177283Y-128509335D01*
X117177283Y-127756743D01*
X116369352Y-127756743D01*
X116369352Y-128509335D01*
X116048394Y-128509335D01*
X116048394Y-126760664D01*
X116369352Y-126760664D01*
X116369352Y-127446852D01*
G37*
G36*
X115871313Y-127070555D02*
G01*
X115373274Y-127070555D01*
X115373274Y-128509335D01*
X115052315Y-128509335D01*
X115052315Y-127070555D01*
X114554276Y-127070555D01*
X114554276Y-126760664D01*
X115871313Y-126760664D01*
X115871313Y-127070555D01*
G37*
G36*
X118153695Y-127338943D02*
G01*
X118154548Y-127467086D01*
X118155371Y-127575094D01*
X118156251Y-127664966D01*
X118157276Y-127738703D01*
X118158532Y-127798304D01*
X118160105Y-127845769D01*
X118162082Y-127883097D01*
X118164550Y-127912288D01*
X118167595Y-127935342D01*
X118171305Y-127954259D01*
X118175765Y-127971039D01*
X118181062Y-127987680D01*
X118181916Y-127990233D01*
X118219862Y-128074125D01*
X118271606Y-128140713D01*
X118337129Y-128189987D01*
X118416410Y-128221935D01*
X118509431Y-128236548D01*
X118616171Y-128233814D01*
X118623791Y-128233013D01*
X118711627Y-128215050D01*
X118784992Y-128181605D01*
X118844527Y-128131966D01*
X118890874Y-128065422D01*
X118924673Y-127981261D01*
X118946566Y-127878772D01*
X118947243Y-127873996D01*
X118950066Y-127841965D01*
X118952583Y-127789838D01*
X118954752Y-127719652D01*
X118956533Y-127633445D01*
X118957887Y-127533255D01*
X118958771Y-127421118D01*
X118959146Y-127299072D01*
X118959156Y-127274504D01*
X118959156Y-126760664D01*
X119280115Y-126760664D01*
X119280115Y-127302173D01*
X119279969Y-127441090D01*
X119279440Y-127560000D01*
X119278389Y-127661032D01*
X119276681Y-127746314D01*
X119274178Y-127817971D01*
X119270742Y-127878133D01*
X119266237Y-127928927D01*
X119260525Y-127972480D01*
X119253468Y-128010920D01*
X119244931Y-128046375D01*
X119234775Y-128080971D01*
X119228675Y-128099730D01*
X119180806Y-128213184D01*
X119118370Y-128310002D01*
X119041149Y-128390405D01*
X118948926Y-128454609D01*
X118841484Y-128502832D01*
X118820812Y-128509736D01*
X118760218Y-128523858D01*
X118684429Y-128533773D01*
X118600016Y-128539318D01*
X118513548Y-128540328D01*
X118431594Y-128536642D01*
X118360722Y-128528094D01*
X118331408Y-128521924D01*
X118216430Y-128482846D01*
X118116255Y-128427597D01*
X118030552Y-128355845D01*
X117958990Y-128267262D01*
X117901235Y-128161518D01*
X117861987Y-128055385D01*
X117856539Y-128036895D01*
X117851926Y-128018957D01*
X117848064Y-127999601D01*
X117844870Y-127976855D01*
X117842261Y-127948749D01*
X117840155Y-127913312D01*
X117838468Y-127868572D01*
X117837116Y-127812559D01*
X117836018Y-127743301D01*
X117835090Y-127658829D01*
X117834248Y-127557171D01*
X117833410Y-127436355D01*
X117832957Y-127366612D01*
X117829056Y-126760664D01*
X118149965Y-126760664D01*
X118153695Y-127338943D01*
G37*
G36*
X128702090Y-128931443D02*
G01*
X128729911Y-128932931D01*
X128745602Y-128936175D01*
X128752494Y-128941517D01*
X128753928Y-128948517D01*
X128752049Y-128962232D01*
X128746609Y-128996041D01*
X128737901Y-129048240D01*
X128726218Y-129117126D01*
X128711852Y-129200996D01*
X128695097Y-129298148D01*
X128676245Y-129406876D01*
X128655591Y-129525480D01*
X128633426Y-129652254D01*
X128610044Y-129785496D01*
X128604516Y-129816931D01*
X128580933Y-129951041D01*
X128558496Y-130078790D01*
X128537496Y-130198508D01*
X128518224Y-130308525D01*
X128500973Y-130407173D01*
X128486033Y-130492782D01*
X128473696Y-130563682D01*
X128464254Y-130618204D01*
X128457998Y-130654679D01*
X128455221Y-130671436D01*
X128455104Y-130672347D01*
X128444686Y-130674548D01*
X128416024Y-130676408D01*
X128373009Y-130677774D01*
X128319534Y-130678497D01*
X128294625Y-130678573D01*
X128237941Y-130678034D01*
X128190121Y-130676553D01*
X128155037Y-130674329D01*
X128136562Y-130671565D01*
X128134688Y-130670272D01*
X128136650Y-130658324D01*
X128142168Y-130626238D01*
X128150952Y-130575676D01*
X128162709Y-130508297D01*
X128177151Y-130425762D01*
X128193984Y-130329733D01*
X128212920Y-130221870D01*
X128233666Y-130103833D01*
X128255931Y-129977283D01*
X128279425Y-129843881D01*
X128287387Y-129798703D01*
X128439543Y-128935435D01*
X128596735Y-128932365D01*
X128658809Y-128931368D01*
X128702090Y-128931443D01*
G37*
G36*
X127488626Y-128954804D02*
G01*
X127485795Y-128969483D01*
X127479467Y-129004227D01*
X127469952Y-129057297D01*
X127457555Y-129126950D01*
X127442586Y-129211448D01*
X127425351Y-129309049D01*
X127406158Y-129418012D01*
X127385316Y-129536599D01*
X127363132Y-129663067D01*
X127339914Y-129795676D01*
X127337448Y-129809771D01*
X127314160Y-129942754D01*
X127291880Y-130069651D01*
X127270913Y-130188738D01*
X127251567Y-130298289D01*
X127234149Y-130396579D01*
X127218963Y-130481882D01*
X127206318Y-130552473D01*
X127196519Y-130606626D01*
X127189873Y-130642616D01*
X127186687Y-130658717D01*
X127186560Y-130659205D01*
X127182220Y-130666861D01*
X127172194Y-130672206D01*
X127153051Y-130675646D01*
X127121362Y-130677583D01*
X127073696Y-130678421D01*
X127022148Y-130678573D01*
X126959895Y-130678371D01*
X126916557Y-130677496D01*
X126888916Y-130675543D01*
X126873754Y-130672109D01*
X126867853Y-130666788D01*
X126867987Y-130659205D01*
X126870580Y-130645419D01*
X126876672Y-130611559D01*
X126885956Y-130559356D01*
X126898129Y-130490542D01*
X126912886Y-130406848D01*
X126929921Y-130310005D01*
X126948929Y-130201746D01*
X126969606Y-130083801D01*
X126991648Y-129957902D01*
X127014748Y-129825781D01*
X127016578Y-129815305D01*
X127039804Y-129682435D01*
X127062031Y-129555401D01*
X127082950Y-129435966D01*
X127102253Y-129325891D01*
X127119628Y-129226939D01*
X127134766Y-129140872D01*
X127147358Y-129069452D01*
X127157095Y-129014440D01*
X127163665Y-128977600D01*
X127166760Y-128960693D01*
X127166831Y-128960337D01*
X127173028Y-128929902D01*
X127494628Y-128929902D01*
X127488626Y-128954804D01*
G37*
G36*
X126139833Y-128930484D02*
G01*
X126186835Y-128932299D01*
X126215916Y-128935549D01*
X126229170Y-128940408D01*
X126230529Y-128943203D01*
X126228655Y-128955963D01*
X126223230Y-128988836D01*
X126214543Y-129040133D01*
X126202888Y-129108169D01*
X126188556Y-129191255D01*
X126171839Y-129287707D01*
X126153029Y-129395836D01*
X126132418Y-129513955D01*
X126110298Y-129640379D01*
X126086960Y-129773420D01*
X126081117Y-129806678D01*
X126057534Y-129941005D01*
X126035096Y-130069073D01*
X126014096Y-130189201D01*
X125994824Y-130299709D01*
X125977572Y-130398916D01*
X125962632Y-130485141D01*
X125950295Y-130556705D01*
X125940854Y-130611926D01*
X125934599Y-130649125D01*
X125931822Y-130666620D01*
X125931705Y-130667713D01*
X125921043Y-130672055D01*
X125890644Y-130675416D01*
X125842892Y-130677637D01*
X125780170Y-130678557D01*
X125769843Y-130678573D01*
X125607980Y-130678573D01*
X125613726Y-130648137D01*
X125616514Y-130632593D01*
X125622814Y-130596985D01*
X125632320Y-130543052D01*
X125644725Y-130472535D01*
X125659726Y-130387173D01*
X125677015Y-130288706D01*
X125696288Y-130178872D01*
X125717239Y-130059413D01*
X125739562Y-129932067D01*
X125762953Y-129798574D01*
X125767288Y-129773826D01*
X125915104Y-128929950D01*
X126072817Y-128929926D01*
X126139833Y-128930484D01*
G37*
G04 #@! TD*
M02*
