M48
; DRILL file {KiCad 6.0.4-6f826c9f35~116~ubuntu20.04.1} date Wed Jul 20 10:00:27 2022
; FORMAT={-:-/ absolute / metric / decimal}
; #@! TF.CreationDate,2022-07-20T10:00:27+00:00
; #@! TF.GenerationSoftware,Kicad,Pcbnew,6.0.4-6f826c9f35~116~ubuntu20.04.1
; #@! TF.FileFunction,Plated,1,2,PTH
FMAT,2
METRIC
; #@! TA.AperFunction,Plated,PTH,ViaDrill
T1C0.400
; #@! TA.AperFunction,Plated,PTH,ComponentDrill
T2C1.000
; #@! TA.AperFunction,Plated,PTH,ComponentDrill
T3C3.000
%
G90
G05
T1
X-20.32Y6.35
X-20.32Y5.334
X-20.32Y4.318
X-20.32Y3.302
X-20.32Y-3.302
X-20.32Y-4.318
X-20.32Y-5.334
X-20.32Y-6.35
X-18.642Y6.975
X-18.642Y5.725
X-17.272Y1.524
X-17.272Y0.0
X-17.272Y-1.524
X-17.272Y-8.382
X-16.764Y8.506
X-15.494Y8.506
X-15.392Y-3.425
X-14.732Y-8.385
X-14.097Y8.506
X-13.988Y-6.019
X-13.97Y0.0
X-12.792Y6.325
X-12.7Y1.267
X-12.7Y-0.511
X-12.522Y8.506
X-12.192Y3.807
X-11.688Y2.481
X-7.038Y2.581
X-5.942Y-3.625
X-3.638Y8.381
X-2.286Y3.807
X-0.942Y8.775
X1.108Y-4.325
X1.905Y4.061
X3.008Y-2.375
X3.048Y3.553
X3.048Y-3.813
X3.158Y-7.575
X3.212Y7.731
X3.937Y2.537
X4.318Y1.394
X5.158Y-4.275
X5.358Y-7.675
X6.958Y3.525
X8.382Y-4.575
X9.398Y-5.591
X9.398Y-6.607
X10.414Y-1.778
X10.414Y-3.051
X10.414Y-4.321
X10.541Y8.252
X10.541Y7.109
X11.176Y-6.353
X11.176Y-7.369
X11.176Y-8.385
T2
X5.715Y2.54
X5.715Y0.0
X5.715Y-2.54
T3
X0.0Y0.0
T0
M30
