M48
; DRILL file {KiCad 6.0.4-6f826c9f35~116~ubuntu20.04.1} date Wed Mar 15 06:08:15 2023
; FORMAT={-:-/ absolute / metric / decimal}
; #@! TF.CreationDate,2023-03-15T06:08:15+00:00
; #@! TF.GenerationSoftware,Kicad,Pcbnew,6.0.4-6f826c9f35~116~ubuntu20.04.1
; #@! TF.FileFunction,Plated,1,2,PTH
FMAT,2
METRIC
; #@! TA.AperFunction,Plated,PTH,ViaDrill
T1C0.400
; #@! TA.AperFunction,Plated,PTH,ComponentDrill
T2C1.000
; #@! TA.AperFunction,Plated,PTH,ComponentDrill
T3C3.000
%
G90
G05
T1
X-20.32Y6.35
X-20.32Y5.334
X-20.32Y4.318
X-20.32Y3.302
X-20.32Y-3.302
X-20.32Y-4.318
X-20.32Y-5.334
X-20.32Y-6.35
X-18.642Y6.975
X-18.085Y5.407
X-17.526Y8.506
X-17.272Y-8.382
X-17.018Y1.27
X-17.018Y0.0
X-17.018Y-1.27
X-16.256Y8.506
X-15.1Y-2.6
X-14.224Y0.254
X-13.716Y-5.842
X-12.792Y6.325
X-12.7Y1.267
X-12.7Y-0.511
X-12.522Y8.506
X-12.192Y3.807
X-12.192Y-8.385
X-11.688Y2.481
X-11.176Y1.27
X-8.636Y2.794
X-8.534Y-1.705
X-7.9Y-5.6
X-7.62Y-8.385
X-7.366Y2.54
X-5.867Y-4.042
X-5.08Y-7.1
X-4.188Y0.331
X-4.188Y-1.369
X-3.541Y-3.033
X-3.404Y6.706
X-2.54Y-8.385
X-2.286Y3.807
X-1.923Y-5.419
X-1.27Y8.382
X-0.4Y3.7
X2.286Y-8.382
X2.87Y-5.337
X3.008Y-2.375
X3.1Y7.6
X3.81Y-3.302
X3.812Y3.131
X3.812Y1.431
X5.842Y4.318
X6.096Y-4.572
X10.312Y-5.069
X11.412Y8.268
X11.412Y7.125
X11.412Y6.112
X11.412Y5.096
X11.412Y-1.171
X11.412Y-3.953
X11.412Y-5.057
X11.412Y-6.161
X11.412Y-7.265
X11.412Y-8.369
T2
X5.715Y2.54
X5.715Y0.0
X5.715Y-2.54
T3
X0.0Y0.0
T0
M30
