%TF.GenerationSoftware,KiCad,Pcbnew,6.0.4-6f826c9f35~116~ubuntu20.04.1*%
%TF.CreationDate,2022-09-26T14:43:46+00:00*%
%TF.ProjectId,TFRPM01D,54465250-4d30-4314-942e-6b696361645f,rev?*%
%TF.SameCoordinates,PX7e721e0PY7e33658*%
%TF.FileFunction,Soldermask,Bot*%
%TF.FilePolarity,Negative*%
%FSLAX46Y46*%
G04 Gerber Fmt 4.6, Leading zero omitted, Abs format (unit mm)*
G04 Created by KiCad (PCBNEW 6.0.4-6f826c9f35~116~ubuntu20.04.1) date 2022-09-26 14:43:46*
%MOMM*%
%LPD*%
G01*
G04 APERTURE LIST*
G04 Aperture macros list*
%AMRoundRect*
0 Rectangle with rounded corners*
0 $1 Rounding radius*
0 $2 $3 $4 $5 $6 $7 $8 $9 X,Y pos of 4 corners*
0 Add a 4 corners polygon primitive as box body*
4,1,4,$2,$3,$4,$5,$6,$7,$8,$9,$2,$3,0*
0 Add four circle primitives for the rounded corners*
1,1,$1+$1,$2,$3*
1,1,$1+$1,$4,$5*
1,1,$1+$1,$6,$7*
1,1,$1+$1,$8,$9*
0 Add four rect primitives between the rounded corners*
20,1,$1+$1,$2,$3,$4,$5,0*
20,1,$1+$1,$4,$5,$6,$7,0*
20,1,$1+$1,$6,$7,$8,$9,0*
20,1,$1+$1,$8,$9,$2,$3,0*%
%AMFreePoly0*
4,1,22,0.550000,-0.750000,0.000000,-0.750000,0.000000,-0.745033,-0.079941,-0.743568,-0.215256,-0.701293,-0.333266,-0.622738,-0.424486,-0.514219,-0.481581,-0.384460,-0.499164,-0.250000,-0.500000,-0.250000,-0.500000,0.250000,-0.499164,0.250000,-0.499963,0.256109,-0.478152,0.396186,-0.417904,0.524511,-0.324060,0.630769,-0.204165,0.706417,-0.067858,0.745374,0.000000,0.744959,0.000000,0.750000,
0.550000,0.750000,0.550000,-0.750000,0.550000,-0.750000,$1*%
%AMFreePoly1*
4,1,20,0.000000,0.744959,0.073905,0.744508,0.209726,0.703889,0.328688,0.626782,0.421226,0.519385,0.479903,0.390333,0.500000,0.250000,0.500000,-0.250000,0.499851,-0.262216,0.476331,-0.402017,0.414519,-0.529596,0.319384,-0.634700,0.198574,-0.708877,0.061801,-0.746166,0.000000,-0.745033,0.000000,-0.750000,-0.550000,-0.750000,-0.550000,0.750000,0.000000,0.750000,0.000000,0.744959,
0.000000,0.744959,$1*%
G04 Aperture macros list end*
%ADD10R,0.700000X0.600000*%
%ADD11C,6.000000*%
%ADD12RoundRect,0.200000X0.200000X0.275000X-0.200000X0.275000X-0.200000X-0.275000X0.200000X-0.275000X0*%
%ADD13R,1.700000X1.700000*%
%ADD14O,1.700000X1.700000*%
%ADD15R,1.060000X0.650000*%
%ADD16RoundRect,0.225000X0.250000X-0.225000X0.250000X0.225000X-0.250000X0.225000X-0.250000X-0.225000X0*%
%ADD17RoundRect,0.225000X0.225000X0.250000X-0.225000X0.250000X-0.225000X-0.250000X0.225000X-0.250000X0*%
%ADD18RoundRect,0.150000X0.700000X-0.150000X0.700000X0.150000X-0.700000X0.150000X-0.700000X-0.150000X0*%
%ADD19RoundRect,0.250000X1.100000X-0.250000X1.100000X0.250000X-1.100000X0.250000X-1.100000X-0.250000X0*%
%ADD20RoundRect,0.200000X-0.275000X0.200000X-0.275000X-0.200000X0.275000X-0.200000X0.275000X0.200000X0*%
%ADD21RoundRect,0.250000X-0.450000X0.262500X-0.450000X-0.262500X0.450000X-0.262500X0.450000X0.262500X0*%
%ADD22RoundRect,0.250000X0.450000X-0.262500X0.450000X0.262500X-0.450000X0.262500X-0.450000X-0.262500X0*%
%ADD23RoundRect,0.225000X-0.250000X0.225000X-0.250000X-0.225000X0.250000X-0.225000X0.250000X0.225000X0*%
%ADD24O,0.700000X2.600000*%
%ADD25R,1.500000X1.500000*%
%ADD26R,0.400000X0.650000*%
%ADD27RoundRect,0.200000X0.275000X-0.200000X0.275000X0.200000X-0.275000X0.200000X-0.275000X-0.200000X0*%
%ADD28FreePoly0,0.000000*%
%ADD29R,1.000000X1.500000*%
%ADD30FreePoly1,0.000000*%
%ADD31FreePoly0,270.000000*%
%ADD32R,1.500000X1.000000*%
%ADD33FreePoly1,270.000000*%
G04 APERTURE END LIST*
D10*
%TO.C,D1*%
X-14692000Y443096D03*
X-14692000Y-956904D03*
%TD*%
D11*
%TO.C,M2*%
X0Y0D03*
%TD*%
D12*
%TO.C,R10*%
X-6617000Y7425096D03*
X-8267000Y7425096D03*
%TD*%
D13*
%TO.C,J1*%
X5715000Y-2540000D03*
D14*
X5715000Y0D03*
X5715000Y2540000D03*
%TD*%
D15*
%TO.C,U3*%
X-4642000Y5725096D03*
X-4642000Y6675096D03*
X-4642000Y7625096D03*
X-2442000Y7625096D03*
X-2442000Y5725096D03*
%TD*%
D16*
%TO.C,C3*%
X-14542000Y3550096D03*
X-14542000Y5100096D03*
%TD*%
D17*
%TO.C,C4*%
X-13267000Y7425096D03*
X-14817000Y7425096D03*
%TD*%
D18*
%TO.C,J2*%
X-16588000Y2931096D03*
X-16588000Y4181096D03*
X-16588000Y5431096D03*
X-16588000Y6681096D03*
D19*
X-19788000Y1081096D03*
X-19788000Y8531096D03*
%TD*%
D20*
%TO.C,R4*%
X-3556000Y-6518404D03*
X-3556000Y-8168404D03*
%TD*%
D21*
%TO.C,R1*%
X9008000Y7437596D03*
X9008000Y5612596D03*
%TD*%
D22*
%TO.C,R2*%
X4608000Y5612596D03*
X4608000Y7437596D03*
%TD*%
D12*
%TO.C,R3*%
X-9967000Y7425096D03*
X-11617000Y7425096D03*
%TD*%
D23*
%TO.C,C6*%
X4064000Y-6162404D03*
X4064000Y-7712404D03*
%TD*%
D18*
%TO.C,J3*%
X-16588000Y-6643904D03*
X-16588000Y-5393904D03*
X-16588000Y-4143904D03*
X-16588000Y-2893904D03*
D19*
X-19788000Y-8493904D03*
X-19788000Y-1043904D03*
%TD*%
D23*
%TO.C,C5*%
X-4419500Y3820096D03*
X-4419500Y2270096D03*
%TD*%
D24*
%TO.C,U1*%
X-7387000Y-4424904D03*
X-8657000Y-4424904D03*
X-9927000Y-4424904D03*
X-11202000Y-4424904D03*
X-11197000Y4375096D03*
X-9927000Y4375096D03*
X-8592000Y4375096D03*
X-7387000Y4375096D03*
%TD*%
D16*
%TO.C,C1*%
X-292000Y6000096D03*
X-292000Y7550096D03*
%TD*%
%TO.C,C2*%
X6808000Y5750096D03*
X6808000Y7300096D03*
%TD*%
D25*
%TO.C,D2*%
X1880000Y-7200000D03*
X-1880000Y-7200000D03*
%TD*%
D26*
%TO.C,U2*%
X6462000Y-5910904D03*
X7112000Y-5910904D03*
X7762000Y-5910904D03*
X7762000Y-7810904D03*
X6462000Y-7810904D03*
%TD*%
D27*
%TO.C,R5*%
X-5292000Y-8174904D03*
X-5292000Y-6524904D03*
%TD*%
D28*
%TO.C,JP1*%
X-4042000Y-4217404D03*
D29*
X-2742000Y-4217404D03*
D30*
X-1442000Y-4217404D03*
%TD*%
D25*
%TO.C,D3*%
X-8410000Y-7366000D03*
X-12170000Y-7366000D03*
%TD*%
D31*
%TO.C,JP2*%
X1958000Y7725096D03*
D32*
X1958000Y6425096D03*
D33*
X1958000Y5125096D03*
%TD*%
M02*
