%TF.GenerationSoftware,KiCad,Pcbnew,6.0.4-6f826c9f35~116~ubuntu20.04.1*%
%TF.CreationDate,2022-09-27T14:31:38+00:00*%
%TF.ProjectId,TFRPM01D,54465250-4d30-4314-942e-6b696361645f,rev?*%
%TF.SameCoordinates,PX7e721e0PY7e33658*%
%TF.FileFunction,Legend,Top*%
%TF.FilePolarity,Positive*%
%FSLAX46Y46*%
G04 Gerber Fmt 4.6, Leading zero omitted, Abs format (unit mm)*
G04 Created by KiCad (PCBNEW 6.0.4-6f826c9f35~116~ubuntu20.04.1) date 2022-09-27 14:31:38*
%MOMM*%
%LPD*%
G01*
G04 APERTURE LIST*
%ADD10C,0.150000*%
%ADD11C,0.200000*%
%ADD12C,0.300000*%
%ADD13C,0.250000*%
%ADD14C,0.100000*%
%ADD15C,0.120000*%
G04 APERTURE END LIST*
D10*
X11684000Y-3050904D02*
X11684000Y-2161904D01*
X12446000Y-2161904D02*
X12446000Y-3050904D01*
X11049000Y-3050904D02*
X11684000Y-3050904D01*
X12446000Y-3050904D02*
X13208000Y-3050904D01*
X11684000Y-2161904D02*
X12446000Y-2161904D01*
D11*
X7805523Y-95761D02*
X8796000Y-95761D01*
X8300761Y-590999D02*
X8300761Y399477D01*
X10034095Y709001D02*
X9415047Y709001D01*
X9353142Y89954D01*
X9415047Y151858D01*
X9538857Y213763D01*
X9848380Y213763D01*
X9972190Y151858D01*
X10034095Y89954D01*
X10096000Y-33856D01*
X10096000Y-343380D01*
X10034095Y-467189D01*
X9972190Y-529094D01*
X9848380Y-590999D01*
X9538857Y-590999D01*
X9415047Y-529094D01*
X9353142Y-467189D01*
X10467428Y709001D02*
X10900761Y-590999D01*
X11334095Y709001D01*
D12*
X-18815143Y-3496571D02*
X-17958000Y-3496571D01*
X-18386572Y-4996571D02*
X-18386572Y-3496571D01*
X-16958000Y-4210857D02*
X-17458000Y-4210857D01*
X-17458000Y-4996571D02*
X-17458000Y-3496571D01*
X-16743715Y-3496571D01*
X-15315143Y-4996571D02*
X-15815143Y-4282285D01*
X-16172286Y-4996571D02*
X-16172286Y-3496571D01*
X-15600858Y-3496571D01*
X-15458000Y-3568000D01*
X-15386572Y-3639428D01*
X-15315143Y-3782285D01*
X-15315143Y-3996571D01*
X-15386572Y-4139428D01*
X-15458000Y-4210857D01*
X-15600858Y-4282285D01*
X-16172286Y-4282285D01*
X-14672286Y-4996571D02*
X-14672286Y-3496571D01*
X-14100858Y-3496571D01*
X-13958000Y-3568000D01*
X-13886572Y-3639428D01*
X-13815143Y-3782285D01*
X-13815143Y-3996571D01*
X-13886572Y-4139428D01*
X-13958000Y-4210857D01*
X-14100858Y-4282285D01*
X-14672286Y-4282285D01*
X-13172286Y-4996571D02*
X-13172286Y-3496571D01*
X-12672286Y-4568000D01*
X-12172286Y-3496571D01*
X-12172286Y-4996571D01*
X-11172286Y-3496571D02*
X-11029429Y-3496571D01*
X-10886572Y-3568000D01*
X-10815143Y-3639428D01*
X-10743715Y-3782285D01*
X-10672286Y-4068000D01*
X-10672286Y-4425142D01*
X-10743715Y-4710857D01*
X-10815143Y-4853714D01*
X-10886572Y-4925142D01*
X-11029429Y-4996571D01*
X-11172286Y-4996571D01*
X-11315143Y-4925142D01*
X-11386572Y-4853714D01*
X-11458000Y-4710857D01*
X-11529429Y-4425142D01*
X-11529429Y-4068000D01*
X-11458000Y-3782285D01*
X-11386572Y-3639428D01*
X-11315143Y-3568000D01*
X-11172286Y-3496571D01*
X-9243715Y-4996571D02*
X-10100858Y-4996571D01*
X-9672286Y-4996571D02*
X-9672286Y-3496571D01*
X-9815143Y-3710857D01*
X-9958000Y-3853714D01*
X-10100858Y-3925142D01*
X-8600858Y-4996571D02*
X-8600858Y-3496571D01*
X-8243715Y-3496571D01*
X-8029429Y-3568000D01*
X-7886572Y-3710857D01*
X-7815143Y-3853714D01*
X-7743715Y-4139428D01*
X-7743715Y-4353714D01*
X-7815143Y-4639428D01*
X-7886572Y-4782285D01*
X-8029429Y-4925142D01*
X-8243715Y-4996571D01*
X-8600858Y-4996571D01*
D11*
X8486476Y3187096D02*
X8362666Y3249001D01*
X8176952Y3249001D01*
X7991238Y3187096D01*
X7867428Y3063287D01*
X7805523Y2939477D01*
X7743619Y2691858D01*
X7743619Y2506144D01*
X7805523Y2258525D01*
X7867428Y2134716D01*
X7991238Y2010906D01*
X8176952Y1949001D01*
X8300761Y1949001D01*
X8486476Y2010906D01*
X8548380Y2072811D01*
X8548380Y2506144D01*
X8300761Y2506144D01*
X9105523Y1949001D02*
X9105523Y3249001D01*
X9848380Y1949001D01*
X9848380Y3249001D01*
X10467428Y1949001D02*
X10467428Y3249001D01*
X10776952Y3249001D01*
X10962666Y3187096D01*
X11086476Y3063287D01*
X11148380Y2939477D01*
X11210285Y2691858D01*
X11210285Y2506144D01*
X11148380Y2258525D01*
X11086476Y2134716D01*
X10962666Y2010906D01*
X10776952Y1949001D01*
X10467428Y1949001D01*
X6451857Y-7588046D02*
X6509000Y-7530904D01*
X6623285Y-7473761D01*
X6909000Y-7473761D01*
X7023285Y-7530904D01*
X7080428Y-7588046D01*
X7137571Y-7702332D01*
X7137571Y-7816618D01*
X7080428Y-7988046D01*
X6394714Y-8673761D01*
X7137571Y-8673761D01*
X7880428Y-7473761D02*
X7994714Y-7473761D01*
X8109000Y-7530904D01*
X8166142Y-7588046D01*
X8223285Y-7702332D01*
X8280428Y-7930904D01*
X8280428Y-8216618D01*
X8223285Y-8445189D01*
X8166142Y-8559475D01*
X8109000Y-8616618D01*
X7994714Y-8673761D01*
X7880428Y-8673761D01*
X7766142Y-8616618D01*
X7709000Y-8559475D01*
X7651857Y-8445189D01*
X7594714Y-8216618D01*
X7594714Y-7930904D01*
X7651857Y-7702332D01*
X7709000Y-7588046D01*
X7766142Y-7530904D01*
X7880428Y-7473761D01*
X8737571Y-7588046D02*
X8794714Y-7530904D01*
X8909000Y-7473761D01*
X9194714Y-7473761D01*
X9309000Y-7530904D01*
X9366142Y-7588046D01*
X9423285Y-7702332D01*
X9423285Y-7816618D01*
X9366142Y-7988046D01*
X8680428Y-8673761D01*
X9423285Y-8673761D01*
X9880428Y-7588046D02*
X9937571Y-7530904D01*
X10051857Y-7473761D01*
X10337571Y-7473761D01*
X10451857Y-7530904D01*
X10509000Y-7588046D01*
X10566142Y-7702332D01*
X10566142Y-7816618D01*
X10509000Y-7988046D01*
X9823285Y-8673761D01*
X10566142Y-8673761D01*
X7805523Y-3130999D02*
X7805523Y-1830999D01*
X8424571Y-3130999D02*
X8424571Y-1830999D01*
X9167428Y-3130999D01*
X9167428Y-1830999D01*
D13*
X-20654096Y1220239D02*
X-19354096Y1220239D01*
X-19477905Y684524D02*
X-19416000Y625000D01*
X-19354096Y505953D01*
X-19354096Y208334D01*
X-19416000Y89286D01*
X-19477905Y29762D01*
X-19601715Y-29761D01*
X-19725524Y-29761D01*
X-19911239Y29762D01*
X-20654096Y744048D01*
X-20654096Y-29761D01*
X-20530286Y-1279761D02*
X-20592191Y-1220238D01*
X-20654096Y-1041666D01*
X-20654096Y-922619D01*
X-20592191Y-744047D01*
X-20468381Y-625000D01*
X-20344572Y-565476D01*
X-20096953Y-505952D01*
X-19911239Y-505952D01*
X-19663620Y-565476D01*
X-19539810Y-625000D01*
X-19416000Y-744047D01*
X-19354096Y-922619D01*
X-19354096Y-1041666D01*
X-19416000Y-1220238D01*
X-19477905Y-1279761D01*
D11*
X-7307477Y-7700095D02*
X-7307477Y-6400095D01*
X-6812239Y-6400095D01*
X-6688429Y-6462000D01*
X-6626524Y-6523904D01*
X-6564620Y-6647714D01*
X-6564620Y-6833428D01*
X-6626524Y-6957238D01*
X-6688429Y-7019142D01*
X-6812239Y-7081047D01*
X-7307477Y-7081047D01*
X-6007477Y-6400095D02*
X-6007477Y-7452476D01*
X-5945572Y-7576285D01*
X-5883667Y-7638190D01*
X-5759858Y-7700095D01*
X-5512239Y-7700095D01*
X-5388429Y-7638190D01*
X-5326524Y-7576285D01*
X-5264620Y-7452476D01*
X-5264620Y-6400095D01*
X-4026524Y-7700095D02*
X-4645572Y-7700095D01*
X-4645572Y-6400095D01*
X-3655096Y-7638190D02*
X-3469381Y-7700095D01*
X-3159858Y-7700095D01*
X-3036048Y-7638190D01*
X-2974143Y-7576285D01*
X-2912239Y-7452476D01*
X-2912239Y-7328666D01*
X-2974143Y-7204857D01*
X-3036048Y-7142952D01*
X-3159858Y-7081047D01*
X-3407477Y-7019142D01*
X-3531286Y-6957238D01*
X-3593191Y-6895333D01*
X-3655096Y-6771523D01*
X-3655096Y-6647714D01*
X-3593191Y-6523904D01*
X-3531286Y-6462000D01*
X-3407477Y-6400095D01*
X-3097953Y-6400095D01*
X-2912239Y-6462000D01*
X-2355096Y-7019142D02*
X-1921762Y-7019142D01*
X-1736048Y-7700095D02*
X-2355096Y-7700095D01*
X-2355096Y-6400095D01*
X-1736048Y-6400095D01*
D14*
X-12397905Y-1738380D02*
X-12302667Y-1738380D01*
X-12207429Y-1786000D01*
X-12159810Y-1833619D01*
X-12112191Y-1928857D01*
X-12064572Y-2119333D01*
X-12064572Y-2357428D01*
X-12112191Y-2547904D01*
X-12159810Y-2643142D01*
X-12207429Y-2690761D01*
X-12302667Y-2738380D01*
X-12397905Y-2738380D01*
X-12493143Y-2690761D01*
X-12540762Y-2643142D01*
X-12588381Y-2547904D01*
X-12636000Y-2357428D01*
X-12636000Y-2119333D01*
X-12588381Y-1928857D01*
X-12540762Y-1833619D01*
X-12493143Y-1786000D01*
X-12397905Y-1738380D01*
X-11731239Y-1738380D02*
X-11064572Y-2738380D01*
X-11064572Y-1738380D02*
X-11731239Y-2738380D01*
X-10207429Y-1738380D02*
X-10683620Y-1738380D01*
X-10731239Y-2214571D01*
X-10683620Y-2166952D01*
X-10588381Y-2119333D01*
X-10350286Y-2119333D01*
X-10255048Y-2166952D01*
X-10207429Y-2214571D01*
X-10159810Y-2309809D01*
X-10159810Y-2547904D01*
X-10207429Y-2643142D01*
X-10255048Y-2690761D01*
X-10350286Y-2738380D01*
X-10588381Y-2738380D01*
X-10683620Y-2690761D01*
X-10731239Y-2643142D01*
X-9540762Y-1738380D02*
X-9445524Y-1738380D01*
X-9350286Y-1786000D01*
X-9302667Y-1833619D01*
X-9255048Y-1928857D01*
X-9207429Y-2119333D01*
X-9207429Y-2357428D01*
X-9255048Y-2547904D01*
X-9302667Y-2643142D01*
X-9350286Y-2690761D01*
X-9445524Y-2738380D01*
X-9540762Y-2738380D01*
X-9636000Y-2690761D01*
X-9683620Y-2643142D01*
X-9731239Y-2547904D01*
X-9778858Y-2357428D01*
X-9778858Y-2119333D01*
X-9731239Y-1928857D01*
X-9683620Y-1833619D01*
X-9636000Y-1786000D01*
X-9540762Y-1738380D01*
X-7826477Y-1738380D02*
X-7731239Y-1738380D01*
X-7636000Y-1786000D01*
X-7588381Y-1833619D01*
X-7540762Y-1928857D01*
X-7493143Y-2119333D01*
X-7493143Y-2357428D01*
X-7540762Y-2547904D01*
X-7588381Y-2643142D01*
X-7636000Y-2690761D01*
X-7731239Y-2738380D01*
X-7826477Y-2738380D01*
X-7921715Y-2690761D01*
X-7969334Y-2643142D01*
X-8016953Y-2547904D01*
X-8064572Y-2357428D01*
X-8064572Y-2119333D01*
X-8016953Y-1928857D01*
X-7969334Y-1833619D01*
X-7921715Y-1786000D01*
X-7826477Y-1738380D01*
X-7159810Y-1738380D02*
X-6493143Y-2738380D01*
X-6493143Y-1738380D02*
X-7159810Y-2738380D01*
X-5636000Y-1738380D02*
X-6112191Y-1738380D01*
X-6159810Y-2214571D01*
X-6112191Y-2166952D01*
X-6016953Y-2119333D01*
X-5778858Y-2119333D01*
X-5683620Y-2166952D01*
X-5636000Y-2214571D01*
X-5588381Y-2309809D01*
X-5588381Y-2547904D01*
X-5636000Y-2643142D01*
X-5683620Y-2690761D01*
X-5778858Y-2738380D01*
X-6016953Y-2738380D01*
X-6112191Y-2690761D01*
X-6159810Y-2643142D01*
X-4636000Y-2738380D02*
X-5207429Y-2738380D01*
X-4921715Y-2738380D02*
X-4921715Y-1738380D01*
X-5016953Y-1881238D01*
X-5112191Y-1976476D01*
X-5207429Y-2024095D01*
D11*
X-16070477Y-7700095D02*
X-16070477Y-6400095D01*
X-15575239Y-6400095D01*
X-15451429Y-6462000D01*
X-15389524Y-6523904D01*
X-15327620Y-6647714D01*
X-15327620Y-6833428D01*
X-15389524Y-6957238D01*
X-15451429Y-7019142D01*
X-15575239Y-7081047D01*
X-16070477Y-7081047D01*
X-14894286Y-6400095D02*
X-14584762Y-7700095D01*
X-14337143Y-6771523D01*
X-14089524Y-7700095D01*
X-13780000Y-6400095D01*
X-12541905Y-7700095D02*
X-12975239Y-7081047D01*
X-13284762Y-7700095D02*
X-13284762Y-6400095D01*
X-12789524Y-6400095D01*
X-12665715Y-6462000D01*
X-12603810Y-6523904D01*
X-12541905Y-6647714D01*
X-12541905Y-6833428D01*
X-12603810Y-6957238D01*
X-12665715Y-7019142D01*
X-12789524Y-7081047D01*
X-13284762Y-7081047D01*
D14*
%TO.C,JP1*%
X-10572667Y2216096D02*
X-10572667Y1644667D01*
X-10610762Y1530381D01*
X-10686953Y1454191D01*
X-10801239Y1416096D01*
X-10877429Y1416096D01*
X-10191715Y1416096D02*
X-10191715Y2216096D01*
X-9886953Y2216096D01*
X-9810762Y2178000D01*
X-9772667Y2139905D01*
X-9734572Y2063715D01*
X-9734572Y1949429D01*
X-9772667Y1873239D01*
X-9810762Y1835143D01*
X-9886953Y1797048D01*
X-10191715Y1797048D01*
X-8972667Y1416096D02*
X-9429810Y1416096D01*
X-9201239Y1416096D02*
X-9201239Y2216096D01*
X-9277429Y2101810D01*
X-9353620Y2025620D01*
X-9429810Y1987524D01*
D15*
X-10136000Y-1500000D02*
X-9536000Y-1500000D01*
X-9836000Y-1200000D02*
X-10136000Y-1500000D01*
X-7236000Y-1000000D02*
X-10036000Y-1000000D01*
X-10036000Y1000000D02*
X-7236000Y1000000D01*
X-6586000Y300000D02*
X-6586000Y-300000D01*
X-10686000Y-300000D02*
X-10686000Y300000D01*
X-9836000Y-1200000D02*
X-9536000Y-1500000D01*
X-7286000Y-1000000D02*
G75*
G03*
X-6586000Y-300000I0J700000D01*
G01*
X-6586000Y300000D02*
G75*
G03*
X-7286000Y1000000I-700000J0D01*
G01*
X-9986000Y1000000D02*
G75*
G03*
X-10686000Y300000I-1J-699999D01*
G01*
X-10686000Y-300000D02*
G75*
G03*
X-9986000Y-1000000I699999J-1D01*
G01*
%TO.C,G1*%
G36*
X-16589687Y5644445D02*
G01*
X-17087726Y5644445D01*
X-17087726Y4205665D01*
X-17408685Y4205665D01*
X-17408685Y5644445D01*
X-17906724Y5644445D01*
X-17906724Y5954336D01*
X-16589687Y5954336D01*
X-16589687Y5644445D01*
G37*
G36*
X-6321167Y3784516D02*
G01*
X-6274165Y3782701D01*
X-6245084Y3779451D01*
X-6231830Y3774592D01*
X-6230471Y3771797D01*
X-6232345Y3759037D01*
X-6237770Y3726164D01*
X-6246457Y3674867D01*
X-6258112Y3606831D01*
X-6272444Y3523745D01*
X-6289161Y3427293D01*
X-6307971Y3319164D01*
X-6328582Y3201045D01*
X-6350702Y3074621D01*
X-6374040Y2941580D01*
X-6379883Y2908322D01*
X-6403466Y2773995D01*
X-6425904Y2645927D01*
X-6446904Y2525799D01*
X-6466176Y2415291D01*
X-6483428Y2316084D01*
X-6498368Y2229859D01*
X-6510705Y2158295D01*
X-6520146Y2103074D01*
X-6526401Y2065875D01*
X-6529178Y2048380D01*
X-6529295Y2047287D01*
X-6539957Y2042945D01*
X-6570356Y2039584D01*
X-6618108Y2037363D01*
X-6680830Y2036443D01*
X-6691157Y2036427D01*
X-6853020Y2036427D01*
X-6847274Y2066863D01*
X-6844486Y2082407D01*
X-6838186Y2118015D01*
X-6828680Y2171948D01*
X-6816275Y2242465D01*
X-6801274Y2327827D01*
X-6783985Y2426294D01*
X-6764712Y2536128D01*
X-6743761Y2655587D01*
X-6721438Y2782933D01*
X-6698047Y2916426D01*
X-6693712Y2941174D01*
X-6545896Y3785050D01*
X-6388183Y3785074D01*
X-6321167Y3784516D01*
G37*
G36*
X-3046153Y8134340D02*
G01*
X-2998470Y8133511D01*
X-2963519Y8132269D01*
X-2945205Y8130725D01*
X-2943412Y8130036D01*
X-2945280Y8118257D01*
X-2950649Y8086695D01*
X-2959164Y8037361D01*
X-2970471Y7972268D01*
X-2984216Y7893430D01*
X-3000045Y7802858D01*
X-3017604Y7702566D01*
X-3036539Y7594567D01*
X-3056496Y7480873D01*
X-3077120Y7363497D01*
X-3098057Y7244451D01*
X-3118955Y7125749D01*
X-3139457Y7009404D01*
X-3159210Y6897427D01*
X-3177861Y6791832D01*
X-3195055Y6694632D01*
X-3210438Y6607839D01*
X-3223655Y6533466D01*
X-3234353Y6473526D01*
X-3242178Y6430032D01*
X-3246775Y6404995D01*
X-3247804Y6399804D01*
X-3250915Y6390070D01*
X-3257167Y6383274D01*
X-3270058Y6378887D01*
X-3293083Y6376384D01*
X-3329738Y6375236D01*
X-3383520Y6374916D01*
X-3412957Y6374902D01*
X-3475332Y6375103D01*
X-3518786Y6375974D01*
X-3546534Y6377917D01*
X-3561788Y6381334D01*
X-3567762Y6386628D01*
X-3567669Y6394202D01*
X-3567653Y6394270D01*
X-3565058Y6408056D01*
X-3558963Y6441915D01*
X-3549672Y6494117D01*
X-3537491Y6562930D01*
X-3522725Y6646622D01*
X-3505678Y6743463D01*
X-3486657Y6851721D01*
X-3465965Y6969664D01*
X-3443909Y7095560D01*
X-3420792Y7227679D01*
X-3418958Y7238170D01*
X-3395697Y7371207D01*
X-3373429Y7498533D01*
X-3352468Y7618373D01*
X-3333122Y7728948D01*
X-3315705Y7828481D01*
X-3300526Y7915195D01*
X-3287897Y7987313D01*
X-3278128Y8043056D01*
X-3271532Y8080648D01*
X-3268418Y8098311D01*
X-3268354Y8098671D01*
X-3261907Y8134641D01*
X-3102660Y8134641D01*
X-3046153Y8134340D01*
G37*
G36*
X-4218235Y8104205D02*
G01*
X-4220835Y8088677D01*
X-4226959Y8053080D01*
X-4236303Y7999148D01*
X-4248566Y7928613D01*
X-4263446Y7843209D01*
X-4280639Y7744670D01*
X-4299845Y7634728D01*
X-4320760Y7515117D01*
X-4343082Y7387569D01*
X-4366510Y7253819D01*
X-4371670Y7224375D01*
X-4520536Y6374982D01*
X-4678249Y6374942D01*
X-4742938Y6375362D01*
X-4788279Y6376833D01*
X-4817043Y6379610D01*
X-4832005Y6383950D01*
X-4835961Y6389553D01*
X-4834085Y6402820D01*
X-4828693Y6435845D01*
X-4820143Y6486599D01*
X-4808791Y6553050D01*
X-4794993Y6633168D01*
X-4779107Y6724924D01*
X-4761489Y6826288D01*
X-4742496Y6935228D01*
X-4722483Y7049714D01*
X-4701809Y7167718D01*
X-4680829Y7287208D01*
X-4659901Y7406153D01*
X-4639380Y7522525D01*
X-4619624Y7634293D01*
X-4600989Y7739426D01*
X-4583831Y7835894D01*
X-4568508Y7921667D01*
X-4555376Y7994715D01*
X-4544791Y8053008D01*
X-4537111Y8094516D01*
X-4532692Y8117208D01*
X-4531839Y8120806D01*
X-4522977Y8126730D01*
X-4499907Y8130862D01*
X-4460329Y8133397D01*
X-4401943Y8134533D01*
X-4370216Y8134641D01*
X-4213667Y8134641D01*
X-4218235Y8104205D01*
G37*
G36*
X-4972374Y3760196D02*
G01*
X-4975205Y3745517D01*
X-4981533Y3710773D01*
X-4991048Y3657703D01*
X-5003445Y3588050D01*
X-5018414Y3503552D01*
X-5035649Y3405951D01*
X-5054842Y3296988D01*
X-5075684Y3178401D01*
X-5097868Y3051933D01*
X-5121086Y2919324D01*
X-5123552Y2905229D01*
X-5146840Y2772246D01*
X-5169120Y2645349D01*
X-5190087Y2526262D01*
X-5209433Y2416711D01*
X-5226851Y2318421D01*
X-5242037Y2233118D01*
X-5254682Y2162527D01*
X-5264481Y2108374D01*
X-5271127Y2072384D01*
X-5274313Y2056283D01*
X-5274440Y2055795D01*
X-5278780Y2048139D01*
X-5288806Y2042794D01*
X-5307949Y2039354D01*
X-5339638Y2037417D01*
X-5387304Y2036579D01*
X-5438852Y2036427D01*
X-5501105Y2036629D01*
X-5544443Y2037504D01*
X-5572084Y2039457D01*
X-5587246Y2042891D01*
X-5593147Y2048212D01*
X-5593013Y2055795D01*
X-5590420Y2069581D01*
X-5584328Y2103441D01*
X-5575044Y2155644D01*
X-5562871Y2224458D01*
X-5548114Y2308152D01*
X-5531079Y2404995D01*
X-5512071Y2513254D01*
X-5491394Y2631199D01*
X-5469352Y2757098D01*
X-5446252Y2889219D01*
X-5444422Y2899695D01*
X-5421196Y3032565D01*
X-5398969Y3159599D01*
X-5378050Y3279034D01*
X-5358747Y3389109D01*
X-5341372Y3488061D01*
X-5326234Y3574128D01*
X-5313642Y3645548D01*
X-5303905Y3700560D01*
X-5297335Y3737400D01*
X-5294240Y3754307D01*
X-5294169Y3754663D01*
X-5287972Y3785098D01*
X-4966372Y3785098D01*
X-4972374Y3760196D01*
G37*
G36*
X-5472186Y8109739D02*
G01*
X-5474985Y8095047D01*
X-5481278Y8060295D01*
X-5490756Y8007231D01*
X-5503111Y7937601D01*
X-5518035Y7853153D01*
X-5535220Y7755632D01*
X-5554358Y7646786D01*
X-5575140Y7528362D01*
X-5597258Y7402106D01*
X-5620404Y7269765D01*
X-5622057Y7260305D01*
X-5645285Y7127436D01*
X-5667514Y7000402D01*
X-5688434Y6880967D01*
X-5707736Y6770893D01*
X-5725110Y6671941D01*
X-5740247Y6585874D01*
X-5752837Y6514453D01*
X-5762569Y6459442D01*
X-5769135Y6422601D01*
X-5772225Y6405693D01*
X-5772296Y6405338D01*
X-5778461Y6374902D01*
X-6100060Y6374902D01*
X-6094060Y6399804D01*
X-6091211Y6414562D01*
X-6084876Y6449346D01*
X-6075368Y6502378D01*
X-6063002Y6571878D01*
X-6048093Y6656067D01*
X-6030956Y6753165D01*
X-6011904Y6861394D01*
X-5991253Y6978974D01*
X-5969317Y7104125D01*
X-5948770Y7221569D01*
X-5925767Y7353055D01*
X-5903632Y7479354D01*
X-5882697Y7598588D01*
X-5863294Y7708882D01*
X-5845754Y7808356D01*
X-5830407Y7895134D01*
X-5817587Y7967338D01*
X-5807624Y8023091D01*
X-5800849Y8060516D01*
X-5797841Y8076536D01*
X-5786200Y8134641D01*
X-5466389Y8134641D01*
X-5472186Y8109739D01*
G37*
G36*
X-12158355Y5392658D02*
G01*
X-11786448Y4830981D01*
X-11786412Y5392658D01*
X-11786375Y5954336D01*
X-11465417Y5954336D01*
X-11465417Y4205665D01*
X-11727448Y4205665D01*
X-12527876Y5406493D01*
X-12527900Y4205665D01*
X-12848859Y4205665D01*
X-12848859Y5954336D01*
X-12530262Y5954336D01*
X-12158355Y5392658D01*
G37*
G36*
X-4769770Y5952207D02*
G01*
X-4751218Y5951882D01*
X-4597007Y5948802D01*
X-4715446Y5273682D01*
X-4736586Y5153128D01*
X-4756733Y5038137D01*
X-4775535Y4930718D01*
X-4792643Y4832880D01*
X-4807705Y4746633D01*
X-4820370Y4673986D01*
X-4830288Y4616949D01*
X-4837107Y4577532D01*
X-4840476Y4557743D01*
X-4840587Y4557059D01*
X-4847290Y4515556D01*
X-4548336Y4515556D01*
X-4458756Y4515448D01*
X-4388905Y4515028D01*
X-4336377Y4514151D01*
X-4298766Y4512671D01*
X-4273667Y4510443D01*
X-4258675Y4507321D01*
X-4251383Y4503160D01*
X-4249386Y4497815D01*
X-4249382Y4497492D01*
X-4251233Y4480070D01*
X-4256281Y4445737D01*
X-4263769Y4399358D01*
X-4272937Y4345803D01*
X-4273510Y4342547D01*
X-4297639Y4205665D01*
X-4760482Y4205665D01*
X-4859264Y4205729D01*
X-4950822Y4205911D01*
X-5032868Y4206198D01*
X-5103113Y4206577D01*
X-5159267Y4207033D01*
X-5199042Y4207553D01*
X-5220148Y4208123D01*
X-5222986Y4208432D01*
X-5220096Y4227135D01*
X-5213752Y4264899D01*
X-5204309Y4319724D01*
X-5192127Y4389613D01*
X-5177562Y4472568D01*
X-5160972Y4566590D01*
X-5142714Y4669682D01*
X-5123146Y4779846D01*
X-5102626Y4895084D01*
X-5081510Y5013397D01*
X-5060158Y5132787D01*
X-5038925Y5251258D01*
X-5018169Y5366809D01*
X-4998249Y5477445D01*
X-4979521Y5581165D01*
X-4962343Y5675974D01*
X-4947073Y5759871D01*
X-4934067Y5830860D01*
X-4923685Y5886942D01*
X-4916282Y5926120D01*
X-4912217Y5946395D01*
X-4911573Y5948818D01*
X-4898860Y5950831D01*
X-4868201Y5952119D01*
X-4823777Y5952605D01*
X-4769770Y5952207D01*
G37*
G36*
X-5547541Y5954139D02*
G01*
X-5449969Y5953653D01*
X-5361643Y5952881D01*
X-5284732Y5951857D01*
X-5221404Y5950616D01*
X-5173828Y5949193D01*
X-5144172Y5947622D01*
X-5134572Y5946035D01*
X-5136252Y5932606D01*
X-5141004Y5901654D01*
X-5148145Y5857470D01*
X-5156991Y5804344D01*
X-5159207Y5791238D01*
X-5184055Y5644741D01*
X-5543431Y5641826D01*
X-5902806Y5638911D01*
X-5933293Y5472898D01*
X-5943980Y5413654D01*
X-5953104Y5361098D01*
X-5959940Y5319558D01*
X-5963763Y5293366D01*
X-5964314Y5287517D01*
X-5963106Y5281539D01*
X-5957428Y5276930D01*
X-5944761Y5273513D01*
X-5922586Y5271113D01*
X-5888381Y5269553D01*
X-5839627Y5268656D01*
X-5773804Y5268247D01*
X-5688392Y5268148D01*
X-5687416Y5268148D01*
X-5601926Y5268060D01*
X-5536098Y5267677D01*
X-5487457Y5266823D01*
X-5453531Y5265323D01*
X-5431846Y5262998D01*
X-5419928Y5259675D01*
X-5415304Y5255175D01*
X-5415500Y5249324D01*
X-5415653Y5248780D01*
X-5419339Y5232126D01*
X-5425686Y5199606D01*
X-5433748Y5156470D01*
X-5442583Y5107969D01*
X-5451245Y5059353D01*
X-5458791Y5015873D01*
X-5464276Y4982780D01*
X-5466756Y4965322D01*
X-5466811Y4964311D01*
X-5477387Y4962663D01*
X-5507149Y4961185D01*
X-5553148Y4959940D01*
X-5612437Y4958992D01*
X-5682065Y4958406D01*
X-5746266Y4958240D01*
X-6025722Y4958222D01*
X-6068294Y4711987D01*
X-6082340Y4630819D01*
X-6096739Y4547754D01*
X-6110505Y4468456D01*
X-6122657Y4398586D01*
X-6132212Y4343808D01*
X-6133628Y4335708D01*
X-6156391Y4205665D01*
X-6316464Y4205665D01*
X-6378843Y4205753D01*
X-6422349Y4206365D01*
X-6450246Y4208024D01*
X-6465796Y4211253D01*
X-6472261Y4216575D01*
X-6472904Y4224512D01*
X-6471887Y4230567D01*
X-6469278Y4245201D01*
X-6463151Y4279920D01*
X-6453810Y4333005D01*
X-6441556Y4402737D01*
X-6426690Y4487397D01*
X-6409514Y4585267D01*
X-6390330Y4694628D01*
X-6369439Y4813761D01*
X-6347144Y4940948D01*
X-6323745Y5074469D01*
X-6318418Y5104871D01*
X-6169600Y5954274D01*
X-5652192Y5954305D01*
X-5547541Y5954139D01*
G37*
G36*
X-2844285Y5953666D02*
G01*
X-2796286Y5952308D01*
X-2766248Y5949734D01*
X-2752095Y5945782D01*
X-2750884Y5941401D01*
X-2759014Y5930412D01*
X-2779432Y5903597D01*
X-2810857Y5862618D01*
X-2852008Y5809138D01*
X-2901604Y5744819D01*
X-2958364Y5671322D01*
X-3021006Y5590312D01*
X-3088249Y5503449D01*
X-3120493Y5461830D01*
X-3189359Y5372926D01*
X-3254165Y5289190D01*
X-3313636Y5212273D01*
X-3366501Y5143826D01*
X-3411485Y5085497D01*
X-3447316Y5038938D01*
X-3472720Y5005799D01*
X-3486425Y4987729D01*
X-3488458Y4984918D01*
X-3491383Y4972776D01*
X-3497623Y4941877D01*
X-3506624Y4895255D01*
X-3517834Y4835947D01*
X-3530697Y4766988D01*
X-3544660Y4691416D01*
X-3559168Y4612265D01*
X-3573669Y4532573D01*
X-3587608Y4455374D01*
X-3600430Y4383705D01*
X-3611583Y4320602D01*
X-3620511Y4269101D01*
X-3626662Y4232238D01*
X-3629480Y4213049D01*
X-3629600Y4211390D01*
X-3640019Y4209367D01*
X-3668684Y4207658D01*
X-3711706Y4206401D01*
X-3765197Y4205735D01*
X-3790290Y4205665D01*
X-3950980Y4205665D01*
X-3945191Y4230567D01*
X-3941115Y4250884D01*
X-3934104Y4288845D01*
X-3924699Y4341295D01*
X-3913442Y4405077D01*
X-3900876Y4477035D01*
X-3887542Y4554014D01*
X-3873981Y4632858D01*
X-3860736Y4710411D01*
X-3848349Y4783516D01*
X-3837361Y4849018D01*
X-3828315Y4903760D01*
X-3821751Y4944588D01*
X-3818213Y4968344D01*
X-3817748Y4972828D01*
X-3821929Y4986177D01*
X-3833900Y5017780D01*
X-3852796Y5065515D01*
X-3877757Y5127263D01*
X-3907918Y5200901D01*
X-3942419Y5284310D01*
X-3980397Y5375368D01*
X-4012799Y5452525D01*
X-4053104Y5548355D01*
X-4090839Y5638344D01*
X-4125113Y5720349D01*
X-4155038Y5792231D01*
X-4179723Y5851846D01*
X-4198278Y5897055D01*
X-4209813Y5925715D01*
X-4213382Y5935263D01*
X-4214081Y5942745D01*
X-4209181Y5947943D01*
X-4195562Y5951173D01*
X-4170101Y5952755D01*
X-4129676Y5953003D01*
X-4071166Y5952237D01*
X-4050033Y5951865D01*
X-3881152Y5948802D01*
X-3742894Y5608475D01*
X-3709658Y5527196D01*
X-3678850Y5452870D01*
X-3651491Y5387887D01*
X-3628606Y5334636D01*
X-3611216Y5295505D01*
X-3600345Y5272883D01*
X-3597183Y5268148D01*
X-3589159Y5276740D01*
X-3569479Y5301233D01*
X-3539611Y5339702D01*
X-3501023Y5390224D01*
X-3455183Y5450875D01*
X-3403558Y5519729D01*
X-3347617Y5594863D01*
X-3335743Y5610875D01*
X-3081756Y5953601D01*
X-2912323Y5953968D01*
X-2844285Y5953666D01*
G37*
G36*
X-3758910Y3783557D02*
G01*
X-3731089Y3782069D01*
X-3715398Y3778825D01*
X-3708506Y3773483D01*
X-3707072Y3766483D01*
X-3708951Y3752768D01*
X-3714391Y3718959D01*
X-3723099Y3666760D01*
X-3734782Y3597874D01*
X-3749148Y3514004D01*
X-3765903Y3416852D01*
X-3784755Y3308124D01*
X-3805409Y3189520D01*
X-3827574Y3062746D01*
X-3850956Y2929504D01*
X-3856484Y2898069D01*
X-3880067Y2763959D01*
X-3902504Y2636210D01*
X-3923504Y2516492D01*
X-3942776Y2406475D01*
X-3960027Y2307827D01*
X-3974967Y2222218D01*
X-3987304Y2151318D01*
X-3996746Y2096796D01*
X-4003002Y2060321D01*
X-4005779Y2043564D01*
X-4005896Y2042653D01*
X-4016314Y2040452D01*
X-4044976Y2038592D01*
X-4087991Y2037226D01*
X-4141466Y2036503D01*
X-4166375Y2036427D01*
X-4223059Y2036966D01*
X-4270879Y2038447D01*
X-4305963Y2040671D01*
X-4324438Y2043435D01*
X-4326312Y2044728D01*
X-4324350Y2056676D01*
X-4318832Y2088762D01*
X-4310048Y2139324D01*
X-4298291Y2206703D01*
X-4283849Y2289238D01*
X-4267016Y2385267D01*
X-4248080Y2493130D01*
X-4227334Y2611167D01*
X-4205069Y2737717D01*
X-4181575Y2871119D01*
X-4173613Y2916297D01*
X-4021457Y3779565D01*
X-3864265Y3782635D01*
X-3802191Y3783632D01*
X-3758910Y3783557D01*
G37*
G36*
X-10687922Y5951411D02*
G01*
X-10572499Y5950109D01*
X-10476523Y5948660D01*
X-10397305Y5946685D01*
X-10332159Y5943807D01*
X-10278397Y5939646D01*
X-10233331Y5933823D01*
X-10194275Y5925960D01*
X-10158539Y5915679D01*
X-10123438Y5902600D01*
X-10086283Y5886345D01*
X-10044387Y5866536D01*
X-10027384Y5858344D01*
X-9973581Y5830730D01*
X-9930033Y5803515D01*
X-9889204Y5771251D01*
X-9843557Y5728488D01*
X-9832164Y5717174D01*
X-9786349Y5669438D01*
X-9752227Y5628161D01*
X-9724343Y5585803D01*
X-9697244Y5534823D01*
X-9690969Y5521955D01*
X-9660462Y5456234D01*
X-9637649Y5399416D01*
X-9621448Y5346183D01*
X-9610778Y5291218D01*
X-9604559Y5229203D01*
X-9601709Y5154821D01*
X-9601128Y5080000D01*
X-9602018Y4990963D01*
X-9605411Y4918750D01*
X-9612387Y4858094D01*
X-9624028Y4803729D01*
X-9641416Y4750390D01*
X-9665631Y4692811D01*
X-9692048Y4637299D01*
X-9757217Y4529243D01*
X-9839395Y4434348D01*
X-9936666Y4354295D01*
X-10047112Y4290765D01*
X-10121821Y4260254D01*
X-10163748Y4246315D01*
X-10203882Y4234936D01*
X-10245040Y4225864D01*
X-10290044Y4218847D01*
X-10341713Y4213630D01*
X-10402866Y4209962D01*
X-10476324Y4207590D01*
X-10564906Y4206259D01*
X-10671432Y4205718D01*
X-10730399Y4205665D01*
X-11111255Y4205665D01*
X-11111255Y4491580D01*
X-10790297Y4491580D01*
X-10297791Y4498954D01*
X-10223631Y4534087D01*
X-10138634Y4585550D01*
X-10069237Y4652130D01*
X-10015322Y4734055D01*
X-9976773Y4831553D01*
X-9953475Y4944851D01*
X-9945312Y5074177D01*
X-9945298Y5080000D01*
X-9952825Y5210009D01*
X-9975480Y5323980D01*
X-10013382Y5422141D01*
X-10066645Y5504720D01*
X-10135386Y5571944D01*
X-10219721Y5624041D01*
X-10223631Y5625913D01*
X-10297791Y5661046D01*
X-10544044Y5664574D01*
X-10790297Y5668101D01*
X-10790297Y4491580D01*
X-11111255Y4491580D01*
X-11111255Y5955962D01*
X-10687922Y5951411D01*
G37*
G36*
X-7554812Y5954336D02*
G01*
X-7450979Y5954238D01*
X-7366539Y5953856D01*
X-7298750Y5953061D01*
X-7244872Y5951721D01*
X-7202161Y5949705D01*
X-7167877Y5946883D01*
X-7139278Y5943124D01*
X-7113622Y5938296D01*
X-7088168Y5932270D01*
X-7087209Y5932026D01*
X-6978697Y5895603D01*
X-6887996Y5846064D01*
X-6814939Y5783196D01*
X-6759362Y5706787D01*
X-6721100Y5616622D01*
X-6699987Y5512489D01*
X-6695308Y5425810D01*
X-6703336Y5314385D01*
X-6727910Y5216932D01*
X-6769765Y5131931D01*
X-6829637Y5057865D01*
X-6902803Y4996994D01*
X-6938369Y4971265D01*
X-6965784Y4949870D01*
X-6980831Y4936166D01*
X-6982445Y4933551D01*
X-6977556Y4922451D01*
X-6963544Y4894506D01*
X-6941805Y4852350D01*
X-6913737Y4798612D01*
X-6880735Y4735926D01*
X-6844197Y4666923D01*
X-6805519Y4594234D01*
X-6766097Y4520491D01*
X-6727327Y4448327D01*
X-6690607Y4380372D01*
X-6657333Y4319258D01*
X-6632902Y4274837D01*
X-6594616Y4205665D01*
X-6775006Y4205898D01*
X-6955395Y4206132D01*
X-7123197Y4529624D01*
X-7290998Y4853116D01*
X-7452456Y4856178D01*
X-7613913Y4859241D01*
X-7613913Y4205665D01*
X-7934872Y4205665D01*
X-7934872Y5122039D01*
X-7613913Y5122039D01*
X-7428532Y5125921D01*
X-7359995Y5127503D01*
X-7309296Y5129366D01*
X-7272144Y5132143D01*
X-7244245Y5136469D01*
X-7221305Y5142977D01*
X-7199032Y5152299D01*
X-7177226Y5163007D01*
X-7113735Y5203584D01*
X-7069409Y5252745D01*
X-7042091Y5313129D01*
X-7036628Y5335067D01*
X-7028174Y5417933D01*
X-7037988Y5493511D01*
X-7065076Y5559407D01*
X-7108446Y5613227D01*
X-7167103Y5652578D01*
X-7168649Y5653305D01*
X-7193185Y5664166D01*
X-7215971Y5672106D01*
X-7241220Y5677682D01*
X-7273149Y5681450D01*
X-7315971Y5683968D01*
X-7373903Y5685792D01*
X-7422998Y5686897D01*
X-7613913Y5690905D01*
X-7613913Y5122039D01*
X-7934872Y5122039D01*
X-7934872Y5954336D01*
X-7554812Y5954336D01*
G37*
G36*
X-16091648Y5268148D02*
G01*
X-15283717Y5268148D01*
X-15283717Y5954336D01*
X-14962759Y5954336D01*
X-14962759Y4205665D01*
X-15283717Y4205665D01*
X-15283717Y4958257D01*
X-16091648Y4958257D01*
X-16091648Y4205665D01*
X-16412606Y4205665D01*
X-16412606Y5954336D01*
X-16091648Y5954336D01*
X-16091648Y5268148D01*
G37*
G36*
X-8211560Y5644445D02*
G01*
X-9008423Y5644445D01*
X-9008423Y5268148D01*
X-8399709Y5268148D01*
X-8399709Y4958257D01*
X-9008423Y4958257D01*
X-9008423Y4515556D01*
X-8189425Y4515556D01*
X-8189425Y4205665D01*
X-9340449Y4205665D01*
X-9340449Y5954336D01*
X-8211560Y5954336D01*
X-8211560Y5644445D01*
G37*
G36*
X-14307305Y5376057D02*
G01*
X-14306452Y5247914D01*
X-14305629Y5139906D01*
X-14304749Y5050034D01*
X-14303724Y4976297D01*
X-14302468Y4916696D01*
X-14300895Y4869231D01*
X-14298918Y4831903D01*
X-14296450Y4802712D01*
X-14293405Y4779658D01*
X-14289695Y4760741D01*
X-14285235Y4743961D01*
X-14279938Y4727320D01*
X-14279084Y4724767D01*
X-14241138Y4640875D01*
X-14189394Y4574287D01*
X-14123871Y4525013D01*
X-14044590Y4493065D01*
X-13951569Y4478452D01*
X-13844829Y4481186D01*
X-13837209Y4481987D01*
X-13749373Y4499950D01*
X-13676008Y4533395D01*
X-13616473Y4583034D01*
X-13570126Y4649578D01*
X-13536327Y4733739D01*
X-13514434Y4836228D01*
X-13513757Y4841004D01*
X-13510934Y4873035D01*
X-13508417Y4925162D01*
X-13506248Y4995348D01*
X-13504467Y5081555D01*
X-13503113Y5181745D01*
X-13502229Y5293882D01*
X-13501854Y5415928D01*
X-13501844Y5440496D01*
X-13501844Y5954336D01*
X-13180885Y5954336D01*
X-13180885Y5412827D01*
X-13181031Y5273910D01*
X-13181560Y5155000D01*
X-13182611Y5053968D01*
X-13184319Y4968686D01*
X-13186822Y4897029D01*
X-13190258Y4836867D01*
X-13194763Y4786073D01*
X-13200475Y4742520D01*
X-13207532Y4704080D01*
X-13216069Y4668625D01*
X-13226225Y4634029D01*
X-13232325Y4615270D01*
X-13280194Y4501816D01*
X-13342630Y4404998D01*
X-13419851Y4324595D01*
X-13512074Y4260391D01*
X-13619516Y4212168D01*
X-13640188Y4205264D01*
X-13700782Y4191142D01*
X-13776571Y4181227D01*
X-13860984Y4175682D01*
X-13947452Y4174672D01*
X-14029406Y4178358D01*
X-14100278Y4186906D01*
X-14129592Y4193076D01*
X-14244570Y4232154D01*
X-14344745Y4287403D01*
X-14430448Y4359155D01*
X-14502010Y4447738D01*
X-14559765Y4553482D01*
X-14599013Y4659615D01*
X-14604461Y4678105D01*
X-14609074Y4696043D01*
X-14612936Y4715399D01*
X-14616130Y4738145D01*
X-14618739Y4766251D01*
X-14620845Y4801688D01*
X-14622532Y4846428D01*
X-14623884Y4902441D01*
X-14624982Y4971699D01*
X-14625910Y5056171D01*
X-14626752Y5157829D01*
X-14627590Y5278645D01*
X-14628043Y5348388D01*
X-14631944Y5954336D01*
X-14311035Y5954336D01*
X-14307305Y5376057D01*
G37*
%TD*%
M02*
