%TF.GenerationSoftware,KiCad,Pcbnew,6.0.4-6f826c9f35~116~ubuntu20.04.1*%
%TF.CreationDate,2022-09-28T22:23:09+00:00*%
%TF.ProjectId,TFRPM01D,54465250-4d30-4314-942e-6b696361645f,rev?*%
%TF.SameCoordinates,PX7e721e0PY7e33658*%
%TF.FileFunction,Profile,NP*%
%FSLAX46Y46*%
G04 Gerber Fmt 4.6, Leading zero omitted, Abs format (unit mm)*
G04 Created by KiCad (PCBNEW 6.0.4-6f826c9f35~116~ubuntu20.04.1) date 2022-09-28 22:23:09*
%MOMM*%
%LPD*%
G01*
G04 APERTURE LIST*
%TA.AperFunction,Profile*%
%ADD10C,0.150000*%
%TD*%
%TA.AperFunction,Profile*%
%ADD11C,0.050000*%
%TD*%
G04 APERTURE END LIST*
D10*
X15910000Y9525000D02*
X15910000Y-9475000D01*
X-21590000Y-9475000D02*
X-21590000Y9525000D01*
X-21590000Y-9475000D02*
X15910000Y-9475000D01*
X-21590000Y9525000D02*
X15910000Y9525000D01*
D11*
%TO.C,D2*%
X1100000Y-6300000D02*
X1100000Y-7700000D01*
X-600000Y-8200000D02*
X600000Y-8200000D01*
X-600000Y-5800000D02*
X600000Y-5800000D01*
X-1100000Y-6300000D02*
X-1100000Y-7700000D01*
X-1100000Y-7700000D02*
G75*
G03*
X-600000Y-8200000I500001J1D01*
G01*
X600000Y-8200000D02*
G75*
G03*
X1100000Y-7700000I0J500000D01*
G01*
X1100000Y-6300000D02*
G75*
G03*
X600000Y-5800000I-500000J0D01*
G01*
X-600000Y-5800000D02*
G75*
G03*
X-1100000Y-6300000I1J-500001D01*
G01*
%TO.C,D3*%
X-10600000Y-5800000D02*
X-9400000Y-5800000D01*
X-11100000Y-6300000D02*
X-11100000Y-7700000D01*
X-10600000Y-8200000D02*
X-9400000Y-8200000D01*
X-8900000Y-6300000D02*
X-8900000Y-7700000D01*
X-9400000Y-8200000D02*
G75*
G03*
X-8900000Y-7700000I0J500000D01*
G01*
X-8900000Y-6300000D02*
G75*
G03*
X-9400000Y-5800000I-500000J0D01*
G01*
X-10600000Y-5800000D02*
G75*
G03*
X-11100000Y-6300000I1J-500001D01*
G01*
X-11100000Y-7700000D02*
G75*
G03*
X-10600000Y-8200000I500001J1D01*
G01*
%TD*%
M02*
