%TF.GenerationSoftware,KiCad,Pcbnew,6.0.4-6f826c9f35~116~ubuntu20.04.1*%
%TF.CreationDate,2022-09-19T09:17:23+00:00*%
%TF.ProjectId,TFRPM01D,54465250-4d30-4314-942e-6b696361645f,rev?*%
%TF.SameCoordinates,PX7e721e0PY7e33658*%
%TF.FileFunction,Copper,L1,Top*%
%TF.FilePolarity,Positive*%
%FSLAX46Y46*%
G04 Gerber Fmt 4.6, Leading zero omitted, Abs format (unit mm)*
G04 Created by KiCad (PCBNEW 6.0.4-6f826c9f35~116~ubuntu20.04.1) date 2022-09-19 09:17:23*
%MOMM*%
%LPD*%
G01*
G04 APERTURE LIST*
%ADD10C,0.300000*%
%TA.AperFunction,NonConductor*%
%ADD11C,0.300000*%
%TD*%
%TA.AperFunction,ComponentPad*%
%ADD12C,6.000000*%
%TD*%
%TA.AperFunction,ComponentPad*%
%ADD13R,1.700000X1.700000*%
%TD*%
%TA.AperFunction,ComponentPad*%
%ADD14O,1.700000X1.700000*%
%TD*%
%TA.AperFunction,ViaPad*%
%ADD15C,0.800000*%
%TD*%
%TA.AperFunction,Conductor*%
%ADD16C,0.500000*%
%TD*%
%TA.AperFunction,Conductor*%
%ADD17C,0.400000*%
%TD*%
G04 APERTURE END LIST*
D10*
D11*
X13148571Y-7467189D02*
X13148571Y-6610046D01*
X14648571Y-7038618D02*
X13148571Y-7038618D01*
X14648571Y-6110046D02*
X13148571Y-6110046D01*
X14648571Y-5467189D02*
X13862857Y-5467189D01*
X13720000Y-5538618D01*
X13648571Y-5681475D01*
X13648571Y-5895761D01*
X13720000Y-6038618D01*
X13791428Y-6110046D01*
X13648571Y-4110046D02*
X14648571Y-4110046D01*
X13648571Y-4752904D02*
X14434285Y-4752904D01*
X14577142Y-4681475D01*
X14648571Y-4538618D01*
X14648571Y-4324332D01*
X14577142Y-4181475D01*
X14505714Y-4110046D01*
X13648571Y-3395761D02*
X14648571Y-3395761D01*
X13791428Y-3395761D02*
X13720000Y-3324332D01*
X13648571Y-3181475D01*
X13648571Y-2967189D01*
X13720000Y-2824332D01*
X13862857Y-2752904D01*
X14648571Y-2752904D01*
X14648571Y-1395761D02*
X13148571Y-1395761D01*
X14577142Y-1395761D02*
X14648571Y-1538618D01*
X14648571Y-1824332D01*
X14577142Y-1967189D01*
X14505714Y-2038618D01*
X14362857Y-2110046D01*
X13934285Y-2110046D01*
X13791428Y-2038618D01*
X13720000Y-1967189D01*
X13648571Y-1824332D01*
X13648571Y-1538618D01*
X13720000Y-1395761D01*
X14577142Y-110046D02*
X14648571Y-252904D01*
X14648571Y-538618D01*
X14577142Y-681475D01*
X14434285Y-752904D01*
X13862857Y-752904D01*
X13720000Y-681475D01*
X13648571Y-538618D01*
X13648571Y-252904D01*
X13720000Y-110046D01*
X13862857Y-38618D01*
X14005714Y-38618D01*
X14148571Y-752904D01*
X14648571Y604239D02*
X13648571Y604239D01*
X13934285Y604239D02*
X13791428Y675668D01*
X13720000Y747096D01*
X13648571Y889954D01*
X13648571Y1032811D01*
X13862857Y2032811D02*
X13862857Y1532811D01*
X14648571Y1532811D02*
X13148571Y1532811D01*
X13148571Y2247096D01*
X14648571Y3032811D02*
X14577142Y2889954D01*
X14434285Y2818525D01*
X13148571Y2818525D01*
X13648571Y3461382D02*
X14648571Y3818525D01*
X13648571Y4175668D02*
X14648571Y3818525D01*
X15005714Y3675668D01*
X15077142Y3604239D01*
X15148571Y3461382D01*
X14505714Y4747096D02*
X14577142Y4818525D01*
X14648571Y4747096D01*
X14577142Y4675668D01*
X14505714Y4747096D01*
X14648571Y4747096D01*
X14577142Y6104239D02*
X14648571Y5961382D01*
X14648571Y5675668D01*
X14577142Y5532811D01*
X14505714Y5461382D01*
X14362857Y5389954D01*
X13934285Y5389954D01*
X13791428Y5461382D01*
X13720000Y5532811D01*
X13648571Y5675668D01*
X13648571Y5961382D01*
X13720000Y6104239D01*
X13648571Y6604239D02*
X13648571Y7389954D01*
X14648571Y6604239D01*
X14648571Y7389954D01*
D12*
%TO.P,M2,1*%
%TO.N,GND*%
X0Y0D03*
%TD*%
D13*
%TO.P,J1,1*%
%TO.N,/COUNT*%
X5715000Y-2540000D03*
D14*
%TO.P,J1,2*%
%TO.N,Net-(C2-Pad1)*%
X5715000Y0D03*
%TO.P,J1,3*%
%TO.N,GND*%
X5715000Y2540000D03*
%TD*%
D15*
%TO.N,GND*%
X-942000Y8775096D03*
X-17272000Y1524000D03*
X-17272000Y0D03*
X-17272000Y-1524000D03*
X9398000Y-6606904D03*
X-12192000Y3807096D03*
X-17272000Y-8382000D03*
X-14732000Y-8384904D03*
X-20320000Y3302000D03*
X-20320000Y-6350000D03*
X-20320000Y-3302000D03*
X-20320000Y-5334000D03*
X-20320000Y6350000D03*
X-20320000Y-4318000D03*
X-20320000Y5334000D03*
X-20320000Y4318000D03*
X-15494000Y8506096D03*
X5158000Y-4274904D03*
X6958000Y3525096D03*
X10414000Y-3050904D03*
X11176000Y-6352904D03*
X10414000Y-4320904D03*
X10541000Y8252096D03*
X-2286000Y3807096D03*
X1905000Y4061096D03*
X11176000Y-8384904D03*
X11176000Y-7368904D03*
X3048000Y3553096D03*
X3937000Y2537096D03*
X4318000Y1394096D03*
X10414000Y-1778000D03*
X10541000Y7109096D03*
X3158000Y-7574904D03*
X8382000Y-4574904D03*
X-12700000Y-510904D03*
X9398000Y-5590904D03*
X-5942000Y-3624904D03*
X-12700000Y1267096D03*
X3008000Y-2374904D03*
X-12522200Y8506096D03*
X3048000Y-3812904D03*
X-18642000Y6975096D03*
X-16764000Y8506096D03*
X-14097000Y8506096D03*
%TO.N,+3V3*%
X-7038000Y2581096D03*
X1108000Y-4324904D03*
X5358000Y-7674904D03*
%TO.N,+5V*%
X-13970000Y0D03*
X-12792000Y6325096D03*
X-13988000Y-6018904D03*
X3212000Y7731096D03*
X-3638000Y8381096D03*
%TO.N,/SDA*%
X-15392000Y-3424904D03*
X-18642000Y5725096D03*
X-11688000Y2481096D03*
%TD*%
D16*
%TO.N,+3V3*%
X-7112000Y-764904D02*
X-7112000Y2507096D01*
X-7112000Y-764904D02*
X-3552000Y-4324904D01*
D17*
X1108000Y-4324904D02*
X2008000Y-4324904D01*
X2008000Y-4324904D02*
X5358000Y-7674904D01*
D16*
X-7112000Y2507096D02*
X-7038000Y2581096D01*
X-3552000Y-4324904D02*
X1108000Y-4324904D01*
%TO.N,+5V*%
X-3649000Y6220096D02*
X1263000Y6220096D01*
X-13970000Y-7114904D02*
X-13970000Y-6352904D01*
X-12687000Y6220096D02*
X-12792000Y6325096D01*
X-7747000Y6220096D02*
X-12687000Y6220096D01*
X-3649000Y8370096D02*
X-3638000Y8381096D01*
X-13970000Y-6352904D02*
X-13970000Y-5588000D01*
X-7747000Y6220096D02*
X-3649000Y6220096D01*
X-13970000Y-6352904D02*
X-13970000Y0D01*
X1701000Y6220096D02*
X3212000Y7731096D01*
X-3649000Y6220096D02*
X-3649000Y8370096D01*
X1263000Y6220096D02*
X1701000Y6220096D01*
%TO.N,/SDA*%
X-15392000Y-3424904D02*
X-15392000Y2475096D01*
X-15392000Y2475096D02*
X-18642000Y5725096D01*
D17*
X-11688000Y2481096D02*
X-15348000Y2481096D01*
D16*
X-15367000Y-3399904D02*
X-15392000Y-3424904D01*
%TD*%
%TA.AperFunction,Conductor*%
%TO.N,GND*%
G36*
X-4018731Y9006093D02*
G01*
X-3982767Y8956593D01*
X-3982767Y8895407D01*
X-4016655Y8847458D01*
X-4066282Y8809378D01*
X-4162536Y8683937D01*
X-4223044Y8537858D01*
X-4243682Y8381096D01*
X-4223044Y8224334D01*
X-4162536Y8078255D01*
X-4158585Y8073106D01*
X-4119958Y8022766D01*
X-4099500Y7962499D01*
X-4099500Y6769596D01*
X-4118407Y6711405D01*
X-4167907Y6675441D01*
X-4198500Y6670596D01*
X-12251376Y6670596D01*
X-12309567Y6689503D01*
X-12329918Y6709329D01*
X-12359764Y6748225D01*
X-12363718Y6753378D01*
X-12489159Y6849632D01*
X-12635238Y6910140D01*
X-12792000Y6930778D01*
X-12948762Y6910140D01*
X-13094841Y6849632D01*
X-13220282Y6753378D01*
X-13316536Y6627937D01*
X-13377044Y6481858D01*
X-13397682Y6325096D01*
X-13377044Y6168334D01*
X-13316536Y6022255D01*
X-13220282Y5896814D01*
X-13094841Y5800560D01*
X-12948762Y5740052D01*
X-12792000Y5719414D01*
X-12635238Y5740052D01*
X-12582107Y5762060D01*
X-12544220Y5769596D01*
X-3711966Y5769596D01*
X-3699332Y5768151D01*
X-3699331Y5768163D01*
X-3691957Y5767583D01*
X-3684745Y5765911D01*
X-3636191Y5769349D01*
X-3629198Y5769596D01*
X1668373Y5769596D01*
X1680009Y5768910D01*
X1715310Y5764732D01*
X1722586Y5766061D01*
X1722589Y5766061D01*
X1753288Y5771668D01*
X1773430Y5775347D01*
X1776476Y5775854D01*
X1834962Y5784647D01*
X1841475Y5787775D01*
X1848573Y5789071D01*
X1900982Y5816295D01*
X1903762Y5817684D01*
X1950408Y5840083D01*
X1950411Y5840085D01*
X1957079Y5843287D01*
X1961521Y5847393D01*
X1963781Y5848916D01*
X1968788Y5851517D01*
X1973828Y5855821D01*
X2011460Y5893453D01*
X2014263Y5896147D01*
X2051124Y5930220D01*
X2051126Y5930223D01*
X2056556Y5935242D01*
X2060078Y5941306D01*
X2066638Y5948631D01*
X3224423Y7106416D01*
X3281505Y7134565D01*
X3368762Y7146052D01*
X3514841Y7206560D01*
X3640282Y7302814D01*
X3736536Y7428255D01*
X3797044Y7574334D01*
X3817682Y7731096D01*
X3816047Y7743519D01*
X3797891Y7881422D01*
X3797044Y7887858D01*
X3736536Y8033937D01*
X3640282Y8159378D01*
X3514841Y8255632D01*
X3368762Y8316140D01*
X3212000Y8336778D01*
X3055238Y8316140D01*
X2909159Y8255632D01*
X2783718Y8159378D01*
X2687464Y8033937D01*
X2626956Y7887858D01*
X2626109Y7881422D01*
X2626109Y7881421D01*
X2615469Y7800602D01*
X2587320Y7743519D01*
X1543393Y6699592D01*
X1488876Y6671815D01*
X1473389Y6670596D01*
X-3099500Y6670596D01*
X-3157691Y6689503D01*
X-3193655Y6739003D01*
X-3198500Y6769596D01*
X-3198500Y7933828D01*
X-3178042Y7994095D01*
X-3117415Y8073106D01*
X-3113464Y8078255D01*
X-3052956Y8224334D01*
X-3032318Y8381096D01*
X-3052956Y8537858D01*
X-3113464Y8683937D01*
X-3209718Y8809378D01*
X-3259345Y8847458D01*
X-3294001Y8897882D01*
X-3292400Y8959047D01*
X-3255152Y9007588D01*
X-3199078Y9025000D01*
X15311000Y9025000D01*
X15369191Y9006093D01*
X15405155Y8956593D01*
X15410000Y8926000D01*
X15410000Y8203239D01*
X15391093Y8145048D01*
X15341593Y8109084D01*
X15311000Y8104239D01*
X11962500Y8104239D01*
X11962500Y-8110047D01*
X15311000Y-8110047D01*
X15369191Y-8128954D01*
X15405155Y-8178454D01*
X15410000Y-8209047D01*
X15410000Y-8876000D01*
X15391093Y-8934191D01*
X15341593Y-8970155D01*
X15311000Y-8975000D01*
X-9625679Y-8975000D01*
X-9683870Y-8956093D01*
X-9719834Y-8906593D01*
X-9719834Y-8845407D01*
X-9683870Y-8795907D01*
X-9664361Y-8784870D01*
X-9572986Y-8746084D01*
X-9572984Y-8746083D01*
X-9569323Y-8744529D01*
X-9555545Y-8735853D01*
X-9382272Y-8626737D01*
X-9358192Y-8611573D01*
X-9355212Y-8608946D01*
X-9355207Y-8608942D01*
X-9174018Y-8449202D01*
X-9174017Y-8449201D01*
X-9171035Y-8446572D01*
X-9018436Y-8260795D01*
X-9015190Y-8256843D01*
X-9015189Y-8256842D01*
X-9012666Y-8253770D01*
X-8941062Y-8130742D01*
X-8889160Y-8041565D01*
X-8889158Y-8041561D01*
X-8887160Y-8038128D01*
X-8797745Y-7805195D01*
X-8763841Y-7642904D01*
X-8747536Y-7564859D01*
X-8747535Y-7564855D01*
X-8746722Y-7560961D01*
X-8744777Y-7518142D01*
X-8740514Y-7424241D01*
X-8735404Y-7311712D01*
X-8741590Y-7258241D01*
X-8742047Y-7254288D01*
X-1844596Y-7254288D01*
X-1844139Y-7258236D01*
X-1844139Y-7258241D01*
X-1816376Y-7498193D01*
X-1815919Y-7502140D01*
X-1814839Y-7505958D01*
X-1814838Y-7505961D01*
X-1766306Y-7677469D01*
X-1747983Y-7742219D01*
X-1746305Y-7745818D01*
X-1746304Y-7745820D01*
X-1644220Y-7964742D01*
X-1644217Y-7964747D01*
X-1642538Y-7968348D01*
X-1640303Y-7971637D01*
X-1640300Y-7971642D01*
X-1504530Y-8171420D01*
X-1502294Y-8174710D01*
X-1499563Y-8177598D01*
X-1482644Y-8195489D01*
X-1330862Y-8355994D01*
X-1132651Y-8507538D01*
X-1129148Y-8509416D01*
X-1129147Y-8509417D01*
X-934674Y-8613693D01*
X-912761Y-8625443D01*
X-676848Y-8706674D01*
X-488500Y-8739207D01*
X-434058Y-8748611D01*
X-434056Y-8748611D01*
X-430983Y-8749142D01*
X-408011Y-8750185D01*
X-402182Y-8750450D01*
X-402176Y-8750450D01*
X-401078Y-8750500D01*
X-227309Y-8750500D01*
X-225335Y-8750341D01*
X-225331Y-8750341D01*
X-45258Y-8735853D01*
X-45253Y-8735852D01*
X-41298Y-8735534D01*
X-37438Y-8734586D01*
X197140Y-8676968D01*
X197145Y-8676966D01*
X201006Y-8676018D01*
X204667Y-8674464D01*
X204670Y-8674463D01*
X427014Y-8580084D01*
X427016Y-8580083D01*
X430677Y-8578529D01*
X641808Y-8445573D01*
X644788Y-8442946D01*
X644793Y-8442942D01*
X825982Y-8283202D01*
X825983Y-8283201D01*
X828965Y-8280572D01*
X946369Y-8137642D01*
X984810Y-8090843D01*
X984811Y-8090842D01*
X987334Y-8087770D01*
X1112840Y-7872128D01*
X1202255Y-7639195D01*
X1236729Y-7474177D01*
X1252464Y-7398859D01*
X1252465Y-7398855D01*
X1253278Y-7394961D01*
X1264596Y-7145712D01*
X1258422Y-7092344D01*
X1236376Y-6901807D01*
X1236375Y-6901803D01*
X1235919Y-6897860D01*
X1216039Y-6827604D01*
X1169065Y-6661604D01*
X1169064Y-6661602D01*
X1167983Y-6657781D01*
X1107406Y-6527872D01*
X1064220Y-6435258D01*
X1064217Y-6435253D01*
X1062538Y-6431652D01*
X1060303Y-6428363D01*
X1060300Y-6428358D01*
X924530Y-6228580D01*
X924529Y-6228579D01*
X922294Y-6225290D01*
X750862Y-6044006D01*
X552651Y-5892462D01*
X436435Y-5830147D01*
X336260Y-5776433D01*
X336258Y-5776432D01*
X332761Y-5774557D01*
X96848Y-5693326D01*
X-91500Y-5660793D01*
X-145942Y-5651389D01*
X-145944Y-5651389D01*
X-149017Y-5650858D01*
X-171989Y-5649815D01*
X-177818Y-5649550D01*
X-177824Y-5649550D01*
X-178922Y-5649500D01*
X-352691Y-5649500D01*
X-354665Y-5649659D01*
X-354669Y-5649659D01*
X-534742Y-5664147D01*
X-534747Y-5664148D01*
X-538702Y-5664466D01*
X-542561Y-5665414D01*
X-542562Y-5665414D01*
X-777140Y-5723032D01*
X-777145Y-5723034D01*
X-781006Y-5723982D01*
X-784667Y-5725536D01*
X-784670Y-5725537D01*
X-1007014Y-5819916D01*
X-1010677Y-5821471D01*
X-1014041Y-5823589D01*
X-1014044Y-5823591D01*
X-1069713Y-5858648D01*
X-1221808Y-5954427D01*
X-1224788Y-5957054D01*
X-1224793Y-5957058D01*
X-1339813Y-6058462D01*
X-1408965Y-6119428D01*
X-1567334Y-6312230D01*
X-1569335Y-6315668D01*
X-1662159Y-6475157D01*
X-1692840Y-6527872D01*
X-1782255Y-6760805D01*
X-1833278Y-7005039D01*
X-1833459Y-7009014D01*
X-1833459Y-7009018D01*
X-1836231Y-7070069D01*
X-1844596Y-7254288D01*
X-8742047Y-7254288D01*
X-8763624Y-7067807D01*
X-8763625Y-7067803D01*
X-8764081Y-7063860D01*
X-8809937Y-6901807D01*
X-8830935Y-6827604D01*
X-8830936Y-6827602D01*
X-8832017Y-6823781D01*
X-8861383Y-6760805D01*
X-8935780Y-6601258D01*
X-8935783Y-6601253D01*
X-8937462Y-6597652D01*
X-8939697Y-6594363D01*
X-8939700Y-6594358D01*
X-9075470Y-6394580D01*
X-9075471Y-6394579D01*
X-9077706Y-6391290D01*
X-9249138Y-6210006D01*
X-9447349Y-6058462D01*
X-9509124Y-6025338D01*
X-9663740Y-5942433D01*
X-9663742Y-5942432D01*
X-9667239Y-5940557D01*
X-9903152Y-5859326D01*
X-10122310Y-5821471D01*
X-10145942Y-5817389D01*
X-10145944Y-5817389D01*
X-10149017Y-5816858D01*
X-10171989Y-5815815D01*
X-10177818Y-5815550D01*
X-10177824Y-5815550D01*
X-10178922Y-5815500D01*
X-10352691Y-5815500D01*
X-10354665Y-5815659D01*
X-10354669Y-5815659D01*
X-10534742Y-5830147D01*
X-10534747Y-5830148D01*
X-10538702Y-5830466D01*
X-10542561Y-5831414D01*
X-10542562Y-5831414D01*
X-10777140Y-5889032D01*
X-10777145Y-5889034D01*
X-10781006Y-5889982D01*
X-10784667Y-5891536D01*
X-10784670Y-5891537D01*
X-11007014Y-5985916D01*
X-11010677Y-5987471D01*
X-11221808Y-6120427D01*
X-11224788Y-6123054D01*
X-11224793Y-6123058D01*
X-11337476Y-6222402D01*
X-11408965Y-6285428D01*
X-11411489Y-6288501D01*
X-11532036Y-6435258D01*
X-11567334Y-6478230D01*
X-11692840Y-6693872D01*
X-11782255Y-6926805D01*
X-11783067Y-6930692D01*
X-11829386Y-7152411D01*
X-11833278Y-7171039D01*
X-11844596Y-7420288D01*
X-11844139Y-7424236D01*
X-11844139Y-7424241D01*
X-11816376Y-7664193D01*
X-11815919Y-7668140D01*
X-11814839Y-7671958D01*
X-11814838Y-7671961D01*
X-11759246Y-7868416D01*
X-11747983Y-7908219D01*
X-11746305Y-7911818D01*
X-11746304Y-7911820D01*
X-11644220Y-8130742D01*
X-11644217Y-8130747D01*
X-11642538Y-8134348D01*
X-11640303Y-8137637D01*
X-11640300Y-8137642D01*
X-11541377Y-8283202D01*
X-11502294Y-8340710D01*
X-11330862Y-8521994D01*
X-11132651Y-8673538D01*
X-11129148Y-8675416D01*
X-11129147Y-8675417D01*
X-10917782Y-8788751D01*
X-10875433Y-8832913D01*
X-10867130Y-8893532D01*
X-10896043Y-8947455D01*
X-10951130Y-8974084D01*
X-10964565Y-8975000D01*
X-20991000Y-8975000D01*
X-21049191Y-8956093D01*
X-21085155Y-8906593D01*
X-21090000Y-8876000D01*
X-21090000Y-6018904D01*
X-14593682Y-6018904D01*
X-14573044Y-6175666D01*
X-14512536Y-6321745D01*
X-14508585Y-6326894D01*
X-14440958Y-6415028D01*
X-14420500Y-6475295D01*
X-14420500Y-7148754D01*
X-14405449Y-7248866D01*
X-14402246Y-7255537D01*
X-14402245Y-7255539D01*
X-14350011Y-7364315D01*
X-14346809Y-7370983D01*
X-14254854Y-7470460D01*
X-14137713Y-7538500D01*
X-14005745Y-7569089D01*
X-13870616Y-7559521D01*
X-13744274Y-7510643D01*
X-13637890Y-7426776D01*
X-13560869Y-7315335D01*
X-13520020Y-7186174D01*
X-13519500Y-7179567D01*
X-13519500Y-6428378D01*
X-13499043Y-6368113D01*
X-13463464Y-6321745D01*
X-13402956Y-6175666D01*
X-13382318Y-6018904D01*
X-13402956Y-5862142D01*
X-13463464Y-5716063D01*
X-13499043Y-5669695D01*
X-13519500Y-5609430D01*
X-13519500Y-432933D01*
X-13499042Y-372666D01*
X-13449415Y-307990D01*
X-13445464Y-302841D01*
X-13384956Y-156762D01*
X-13364318Y0D01*
X-13384956Y156762D01*
X-13445464Y302841D01*
X-13541718Y428282D01*
X-13667159Y524536D01*
X-13784954Y573329D01*
X-13807241Y582560D01*
X-13813238Y585044D01*
X-13970000Y605682D01*
X-14126762Y585044D01*
X-14132759Y582560D01*
X-14155046Y573329D01*
X-14272841Y524536D01*
X-14398282Y428282D01*
X-14494536Y302841D01*
X-14555044Y156762D01*
X-14575682Y0D01*
X-14555044Y-156762D01*
X-14494536Y-302841D01*
X-14490585Y-307990D01*
X-14440958Y-372666D01*
X-14420500Y-432933D01*
X-14420500Y-5562513D01*
X-14440958Y-5622780D01*
X-14473672Y-5665414D01*
X-14512536Y-5716063D01*
X-14573044Y-5862142D01*
X-14593682Y-6018904D01*
X-21090000Y-6018904D01*
X-21090000Y5725096D01*
X-19247682Y5725096D01*
X-19227044Y5568334D01*
X-19166536Y5422255D01*
X-19070282Y5296814D01*
X-18944841Y5200560D01*
X-18798762Y5140052D01*
X-18711505Y5128565D01*
X-18654423Y5100416D01*
X-15871496Y2317489D01*
X-15843719Y2262972D01*
X-15842500Y2247485D01*
X-15842500Y-2991971D01*
X-15862958Y-3052238D01*
X-15916536Y-3122063D01*
X-15977044Y-3268142D01*
X-15997682Y-3424904D01*
X-15977044Y-3581666D01*
X-15916536Y-3727745D01*
X-15820282Y-3853186D01*
X-15694841Y-3949440D01*
X-15548762Y-4009948D01*
X-15392000Y-4030586D01*
X-15235238Y-4009948D01*
X-15089159Y-3949440D01*
X-14963718Y-3853186D01*
X-14867464Y-3727745D01*
X-14806956Y-3581666D01*
X-14786318Y-3424904D01*
X-14806956Y-3268142D01*
X-14867464Y-3122063D01*
X-14921042Y-3052238D01*
X-14941500Y-2991971D01*
X-14941500Y1981596D01*
X-14922593Y2039787D01*
X-14873093Y2075751D01*
X-14842500Y2080596D01*
X-12183873Y2080596D01*
X-12125682Y2061689D01*
X-12118167Y2055271D01*
X-12116282Y2052814D01*
X-11990841Y1956560D01*
X-11844762Y1896052D01*
X-11688000Y1875414D01*
X-11531238Y1896052D01*
X-11385159Y1956560D01*
X-11259718Y2052814D01*
X-11163464Y2178255D01*
X-11102956Y2324334D01*
X-11082318Y2481096D01*
X-11095483Y2581096D01*
X-7643682Y2581096D01*
X-7623044Y2424334D01*
X-7579138Y2318337D01*
X-7570036Y2296362D01*
X-7562500Y2258476D01*
X-7562500Y-732277D01*
X-7563186Y-743913D01*
X-7567364Y-779214D01*
X-7566035Y-786490D01*
X-7566035Y-786493D01*
X-7556752Y-837318D01*
X-7556242Y-840380D01*
X-7547449Y-898866D01*
X-7544321Y-905379D01*
X-7543025Y-912477D01*
X-7539614Y-919043D01*
X-7515802Y-964884D01*
X-7514412Y-967666D01*
X-7492013Y-1014312D01*
X-7492011Y-1014315D01*
X-7488809Y-1020983D01*
X-7484703Y-1025425D01*
X-7483180Y-1027685D01*
X-7480579Y-1032692D01*
X-7476275Y-1037732D01*
X-7438643Y-1075364D01*
X-7435949Y-1078167D01*
X-7401876Y-1115028D01*
X-7401873Y-1115030D01*
X-7396854Y-1120460D01*
X-7390790Y-1123982D01*
X-7383465Y-1130542D01*
X-3893619Y-4620388D01*
X-3885878Y-4629100D01*
X-3863872Y-4657014D01*
X-3857785Y-4661221D01*
X-3815259Y-4690612D01*
X-3812728Y-4692421D01*
X-3771139Y-4723140D01*
X-3771137Y-4723141D01*
X-3765184Y-4727538D01*
X-3758368Y-4729931D01*
X-3752431Y-4734035D01*
X-3745372Y-4736268D01*
X-3745371Y-4736268D01*
X-3725027Y-4742702D01*
X-3696071Y-4751860D01*
X-3693186Y-4752822D01*
X-3637369Y-4772423D01*
X-3631327Y-4772660D01*
X-3628653Y-4773181D01*
X-3623270Y-4774884D01*
X-3616663Y-4775404D01*
X-3563459Y-4775404D01*
X-3559572Y-4775480D01*
X-3502006Y-4777742D01*
X-3495227Y-4775945D01*
X-3485407Y-4775404D01*
X675067Y-4775404D01*
X735335Y-4795862D01*
X805159Y-4849440D01*
X951238Y-4909948D01*
X1108000Y-4930586D01*
X1264762Y-4909948D01*
X1410841Y-4849440D01*
X1536282Y-4753186D01*
X1536301Y-4753161D01*
X1588386Y-4726623D01*
X1603873Y-4725404D01*
X1801099Y-4725404D01*
X1859290Y-4744311D01*
X1871103Y-4754400D01*
X3298367Y-6181663D01*
X4724169Y-7607465D01*
X4751946Y-7661982D01*
X4752722Y-7671837D01*
X4752318Y-7674904D01*
X4772956Y-7831666D01*
X4833464Y-7977745D01*
X4929718Y-8103186D01*
X5055159Y-8199440D01*
X5201238Y-8259948D01*
X5358000Y-8280586D01*
X5514762Y-8259948D01*
X5660841Y-8199440D01*
X5786282Y-8103186D01*
X5882536Y-7977745D01*
X5943044Y-7831666D01*
X5963682Y-7674904D01*
X5943044Y-7518142D01*
X5882536Y-7372063D01*
X5786282Y-7246622D01*
X5660841Y-7150368D01*
X5514762Y-7089860D01*
X5358000Y-7069222D01*
X5357970Y-7069226D01*
X5302374Y-7051162D01*
X5290561Y-7041073D01*
X2268916Y-4019427D01*
X2268909Y-4019420D01*
X2268905Y-4019417D01*
X2246342Y-3996854D01*
X2224846Y-3985902D01*
X2211605Y-3977787D01*
X2198395Y-3968189D01*
X2192090Y-3963608D01*
X2169143Y-3956152D01*
X2154797Y-3950209D01*
X2133304Y-3939258D01*
X2125611Y-3938040D01*
X2125609Y-3938039D01*
X2109481Y-3935485D01*
X2094380Y-3931860D01*
X2071433Y-3924404D01*
X1603873Y-3924404D01*
X1545682Y-3905497D01*
X1538167Y-3899079D01*
X1536282Y-3896622D01*
X1410841Y-3800368D01*
X1264762Y-3739860D01*
X1108000Y-3719222D01*
X951238Y-3739860D01*
X805159Y-3800368D01*
X800010Y-3804319D01*
X735334Y-3853946D01*
X675067Y-3874404D01*
X-3324389Y-3874404D01*
X-3382580Y-3855497D01*
X-3394393Y-3845408D01*
X-3830053Y-3409748D01*
X4664500Y-3409748D01*
X4676133Y-3468231D01*
X4720448Y-3534552D01*
X4786769Y-3578867D01*
X4796332Y-3580769D01*
X4796334Y-3580770D01*
X4819005Y-3585279D01*
X4845252Y-3590500D01*
X6584748Y-3590500D01*
X6610995Y-3585279D01*
X6633666Y-3580770D01*
X6633668Y-3580769D01*
X6643231Y-3578867D01*
X6709552Y-3534552D01*
X6753867Y-3468231D01*
X6765500Y-3409748D01*
X6765500Y-1670252D01*
X6753867Y-1611769D01*
X6709552Y-1545448D01*
X6643231Y-1501133D01*
X6633668Y-1499231D01*
X6633666Y-1499230D01*
X6610995Y-1494721D01*
X6584748Y-1489500D01*
X4845252Y-1489500D01*
X4819005Y-1494721D01*
X4796334Y-1499230D01*
X4796332Y-1499231D01*
X4786769Y-1501133D01*
X4720448Y-1545448D01*
X4676133Y-1611769D01*
X4664500Y-1670252D01*
X4664500Y-3409748D01*
X-3830053Y-3409748D01*
X-6632504Y-607297D01*
X-6660281Y-552780D01*
X-6661500Y-537293D01*
X-6661500Y2064258D01*
X-6642593Y2122449D01*
X-6622769Y2142799D01*
X-6614865Y2148864D01*
X-6614863Y2148866D01*
X-6609718Y2152814D01*
X-6517507Y2272986D01*
X4383043Y2272986D01*
X4413807Y2136476D01*
X4416231Y2128742D01*
X4497183Y1929380D01*
X4500840Y1922140D01*
X4613266Y1738678D01*
X4618056Y1732133D01*
X4758935Y1569498D01*
X4764729Y1563824D01*
X4930292Y1426371D01*
X4936921Y1421730D01*
X5122713Y1313162D01*
X5130008Y1309666D01*
X5331038Y1232901D01*
X5338808Y1230643D01*
X5442991Y1209447D01*
X5496244Y1179318D01*
X5521618Y1123641D01*
X5509419Y1063684D01*
X5464309Y1022348D01*
X5451206Y1017462D01*
X5319572Y978720D01*
X5315288Y976481D01*
X5315287Y976480D01*
X5304428Y970803D01*
X5137002Y883274D01*
X5133231Y880242D01*
X4980220Y757219D01*
X4980217Y757217D01*
X4976447Y754185D01*
X4973333Y750474D01*
X4973332Y750473D01*
X4851838Y605682D01*
X4844024Y596370D01*
X4841689Y592122D01*
X4841688Y592121D01*
X4836432Y582560D01*
X4744776Y415838D01*
X4682484Y219468D01*
X4681944Y214656D01*
X4681944Y214655D01*
X4674729Y150326D01*
X4659520Y14738D01*
X4676759Y-190553D01*
X4733544Y-388586D01*
X4827712Y-571818D01*
X4955677Y-733270D01*
X4959357Y-736402D01*
X4959359Y-736404D01*
X5001027Y-771866D01*
X5112564Y-866791D01*
X5116787Y-869151D01*
X5116791Y-869154D01*
X5194309Y-912477D01*
X5292398Y-967297D01*
X5296996Y-968791D01*
X5483724Y-1029463D01*
X5483726Y-1029464D01*
X5488329Y-1030959D01*
X5692894Y-1055351D01*
X5697716Y-1054980D01*
X5697719Y-1054980D01*
X5765541Y-1049761D01*
X5898300Y-1039546D01*
X6096725Y-984145D01*
X6101038Y-981966D01*
X6101044Y-981964D01*
X6276289Y-893441D01*
X6276291Y-893440D01*
X6280610Y-891258D01*
X6315943Y-863653D01*
X6439135Y-767406D01*
X6439139Y-767402D01*
X6442951Y-764424D01*
X6460656Y-743913D01*
X6502313Y-695651D01*
X6577564Y-608472D01*
X6596231Y-575613D01*
X6676934Y-433550D01*
X6676935Y-433547D01*
X6679323Y-429344D01*
X6689309Y-399327D01*
X6742824Y-238454D01*
X6742824Y-238452D01*
X6744351Y-233863D01*
X6753334Y-162759D01*
X6769823Y-32228D01*
X6770171Y-29474D01*
X6770583Y0D01*
X6750480Y205030D01*
X6690935Y402251D01*
X6594218Y584151D01*
X6464011Y743800D01*
X6305275Y875118D01*
X6124055Y973103D01*
X6070038Y989824D01*
X5987061Y1015510D01*
X5937063Y1050780D01*
X5917346Y1108701D01*
X5935439Y1167150D01*
X5984432Y1203801D01*
X5995752Y1206919D01*
X6002202Y1208290D01*
X6208304Y1270124D01*
X6215852Y1273082D01*
X6409087Y1367747D01*
X6416046Y1371896D01*
X6591231Y1496852D01*
X6597412Y1502076D01*
X6749831Y1653965D01*
X6755088Y1660142D01*
X6880651Y1834881D01*
X6884823Y1841824D01*
X6980164Y2034732D01*
X6983144Y2042256D01*
X7045701Y2248157D01*
X7047410Y2256062D01*
X7049304Y2270453D01*
X7046873Y2283569D01*
X7045571Y2284805D01*
X7040290Y2286000D01*
X4395790Y2286000D01*
X4383460Y2281994D01*
X4383043Y2272986D01*
X-6517507Y2272986D01*
X-6513464Y2278255D01*
X-6452956Y2424334D01*
X-6432318Y2581096D01*
X-6452956Y2737858D01*
X-6480608Y2804616D01*
X4379056Y2804616D01*
X4380756Y2796538D01*
X4382566Y2794902D01*
X4386792Y2794000D01*
X5445320Y2794000D01*
X5458005Y2798122D01*
X5461000Y2802243D01*
X5461000Y2809680D01*
X5969000Y2809680D01*
X5973122Y2796995D01*
X5977243Y2794000D01*
X7035779Y2794000D01*
X7047730Y2797883D01*
X7048058Y2807538D01*
X7005946Y2975191D01*
X7003333Y2982867D01*
X6917534Y3180193D01*
X6913701Y3187340D01*
X6796826Y3368003D01*
X6791880Y3374425D01*
X6647065Y3533574D01*
X6641139Y3539101D01*
X6472269Y3672466D01*
X6465525Y3676946D01*
X6277141Y3780940D01*
X6269749Y3784262D01*
X6066920Y3856088D01*
X6059081Y3858159D01*
X5984436Y3871455D01*
X5971226Y3869622D01*
X5970805Y3869218D01*
X5969000Y3862004D01*
X5969000Y2809680D01*
X5461000Y2809680D01*
X5461000Y3859333D01*
X5456878Y3872018D01*
X5455877Y3872746D01*
X5449549Y3873261D01*
X5403220Y3866171D01*
X5395348Y3864295D01*
X5190807Y3797442D01*
X5183350Y3794307D01*
X4992479Y3694946D01*
X4985627Y3690631D01*
X4813544Y3561427D01*
X4807491Y3556053D01*
X4658830Y3400487D01*
X4653727Y3394186D01*
X4532466Y3216425D01*
X4528468Y3209387D01*
X4437871Y3014210D01*
X4435073Y3006606D01*
X4379056Y2804616D01*
X-6480608Y2804616D01*
X-6513464Y2883937D01*
X-6609718Y3009378D01*
X-6735159Y3105632D01*
X-6881238Y3166140D01*
X-7038000Y3186778D01*
X-7194762Y3166140D01*
X-7340841Y3105632D01*
X-7466282Y3009378D01*
X-7562536Y2883937D01*
X-7623044Y2737858D01*
X-7643682Y2581096D01*
X-11095483Y2581096D01*
X-11102956Y2637858D01*
X-11163464Y2783937D01*
X-11259718Y2909378D01*
X-11385159Y3005632D01*
X-11531238Y3066140D01*
X-11688000Y3086778D01*
X-11844762Y3066140D01*
X-11990841Y3005632D01*
X-12116282Y2909378D01*
X-12116301Y2909353D01*
X-12168386Y2882815D01*
X-12183873Y2881596D01*
X-15120389Y2881596D01*
X-15178580Y2900503D01*
X-15190393Y2910592D01*
X-18017320Y5737519D01*
X-18045469Y5794602D01*
X-18046253Y5800560D01*
X-18056956Y5881858D01*
X-18117464Y6027937D01*
X-18213718Y6153378D01*
X-18339159Y6249632D01*
X-18485238Y6310140D01*
X-18642000Y6330778D01*
X-18798762Y6310140D01*
X-18944841Y6249632D01*
X-19070282Y6153378D01*
X-19166536Y6027937D01*
X-19227044Y5881858D01*
X-19239274Y5788963D01*
X-19246046Y5737519D01*
X-19247682Y5725096D01*
X-21090000Y5725096D01*
X-21090000Y8926000D01*
X-21071093Y8984191D01*
X-21021593Y9020155D01*
X-20991000Y9025000D01*
X-4076922Y9025000D01*
X-4018731Y9006093D01*
G37*
%TD.AperFunction*%
%TD*%
M02*
