%TF.GenerationSoftware,KiCad,Pcbnew,6.0.4-6f826c9f35~116~ubuntu20.04.1*%
%TF.CreationDate,2022-09-29T13:52:15+00:00*%
%TF.ProjectId,TFRPM01D,54465250-4d30-4314-942e-6b696361645f,rev?*%
%TF.SameCoordinates,PX7e721e0PY7e33658*%
%TF.FileFunction,Copper,L1,Top*%
%TF.FilePolarity,Positive*%
%FSLAX46Y46*%
G04 Gerber Fmt 4.6, Leading zero omitted, Abs format (unit mm)*
G04 Created by KiCad (PCBNEW 6.0.4-6f826c9f35~116~ubuntu20.04.1) date 2022-09-29 13:52:15*
%MOMM*%
%LPD*%
G01*
G04 APERTURE LIST*
G04 Aperture macros list*
%AMFreePoly0*
4,1,22,0.550000,-0.750000,0.000000,-0.750000,0.000000,-0.745033,-0.079941,-0.743568,-0.215256,-0.701293,-0.333266,-0.622738,-0.424486,-0.514219,-0.481581,-0.384460,-0.499164,-0.250000,-0.500000,-0.250000,-0.500000,0.250000,-0.499164,0.250000,-0.499963,0.256109,-0.478152,0.396186,-0.417904,0.524511,-0.324060,0.630769,-0.204165,0.706417,-0.067858,0.745374,0.000000,0.744959,0.000000,0.750000,
0.550000,0.750000,0.550000,-0.750000,0.550000,-0.750000,$1*%
%AMFreePoly1*
4,1,20,0.000000,0.744959,0.073905,0.744508,0.209726,0.703889,0.328688,0.626782,0.421226,0.519385,0.479903,0.390333,0.500000,0.250000,0.500000,-0.250000,0.499851,-0.262216,0.476331,-0.402017,0.414519,-0.529596,0.319384,-0.634700,0.198574,-0.708877,0.061801,-0.746166,0.000000,-0.745033,0.000000,-0.750000,-0.550000,-0.750000,-0.550000,0.750000,0.000000,0.750000,0.000000,0.744959,
0.000000,0.744959,$1*%
G04 Aperture macros list end*
%ADD10C,0.300000*%
%TA.AperFunction,NonConductor*%
%ADD11C,0.300000*%
%TD*%
%TA.AperFunction,SMDPad,CuDef*%
%ADD12FreePoly0,0.000000*%
%TD*%
%TA.AperFunction,SMDPad,CuDef*%
%ADD13R,1.000000X1.500000*%
%TD*%
%TA.AperFunction,SMDPad,CuDef*%
%ADD14FreePoly1,0.000000*%
%TD*%
%TA.AperFunction,ComponentPad*%
%ADD15C,6.000000*%
%TD*%
%TA.AperFunction,ComponentPad*%
%ADD16R,1.700000X1.700000*%
%TD*%
%TA.AperFunction,ComponentPad*%
%ADD17O,1.700000X1.700000*%
%TD*%
%TA.AperFunction,ViaPad*%
%ADD18C,0.800000*%
%TD*%
%TA.AperFunction,Conductor*%
%ADD19C,0.500000*%
%TD*%
%TA.AperFunction,Conductor*%
%ADD20C,0.400000*%
%TD*%
G04 APERTURE END LIST*
D10*
D11*
X13148571Y-7467189D02*
X13148571Y-6610046D01*
X14648571Y-7038618D02*
X13148571Y-7038618D01*
X14648571Y-6110046D02*
X13148571Y-6110046D01*
X14648571Y-5467189D02*
X13862857Y-5467189D01*
X13720000Y-5538618D01*
X13648571Y-5681475D01*
X13648571Y-5895761D01*
X13720000Y-6038618D01*
X13791428Y-6110046D01*
X13648571Y-4110046D02*
X14648571Y-4110046D01*
X13648571Y-4752904D02*
X14434285Y-4752904D01*
X14577142Y-4681475D01*
X14648571Y-4538618D01*
X14648571Y-4324332D01*
X14577142Y-4181475D01*
X14505714Y-4110046D01*
X13648571Y-3395761D02*
X14648571Y-3395761D01*
X13791428Y-3395761D02*
X13720000Y-3324332D01*
X13648571Y-3181475D01*
X13648571Y-2967189D01*
X13720000Y-2824332D01*
X13862857Y-2752904D01*
X14648571Y-2752904D01*
X14648571Y-1395761D02*
X13148571Y-1395761D01*
X14577142Y-1395761D02*
X14648571Y-1538618D01*
X14648571Y-1824332D01*
X14577142Y-1967189D01*
X14505714Y-2038618D01*
X14362857Y-2110046D01*
X13934285Y-2110046D01*
X13791428Y-2038618D01*
X13720000Y-1967189D01*
X13648571Y-1824332D01*
X13648571Y-1538618D01*
X13720000Y-1395761D01*
X14577142Y-110046D02*
X14648571Y-252904D01*
X14648571Y-538618D01*
X14577142Y-681475D01*
X14434285Y-752904D01*
X13862857Y-752904D01*
X13720000Y-681475D01*
X13648571Y-538618D01*
X13648571Y-252904D01*
X13720000Y-110046D01*
X13862857Y-38618D01*
X14005714Y-38618D01*
X14148571Y-752904D01*
X14648571Y604239D02*
X13648571Y604239D01*
X13934285Y604239D02*
X13791428Y675668D01*
X13720000Y747096D01*
X13648571Y889954D01*
X13648571Y1032811D01*
X13862857Y2032811D02*
X13862857Y1532811D01*
X14648571Y1532811D02*
X13148571Y1532811D01*
X13148571Y2247096D01*
X14648571Y3032811D02*
X14577142Y2889954D01*
X14434285Y2818525D01*
X13148571Y2818525D01*
X13648571Y3461382D02*
X14648571Y3818525D01*
X13648571Y4175668D02*
X14648571Y3818525D01*
X15005714Y3675668D01*
X15077142Y3604239D01*
X15148571Y3461382D01*
X14505714Y4747096D02*
X14577142Y4818525D01*
X14648571Y4747096D01*
X14577142Y4675668D01*
X14505714Y4747096D01*
X14648571Y4747096D01*
X14577142Y6104239D02*
X14648571Y5961382D01*
X14648571Y5675668D01*
X14577142Y5532811D01*
X14505714Y5461382D01*
X14362857Y5389954D01*
X13934285Y5389954D01*
X13791428Y5461382D01*
X13720000Y5532811D01*
X13648571Y5675668D01*
X13648571Y5961382D01*
X13720000Y6104239D01*
X13648571Y6604239D02*
X13648571Y7389954D01*
X14648571Y6604239D01*
X14648571Y7389954D01*
%TO.C,JP1*%
G36*
X-9036000Y-300000D02*
G01*
X-9536000Y-300000D01*
X-9536000Y300000D01*
X-9036000Y300000D01*
X-9036000Y-300000D01*
G37*
%TD*%
D12*
%TO.P,JP1,1,A*%
%TO.N,GND*%
X-9936000Y0D03*
D13*
%TO.P,JP1,2,C*%
%TO.N,Net-(JP1-Pad2)*%
X-8636000Y0D03*
D14*
%TO.P,JP1,3,B*%
%TO.N,+3V3*%
X-7336000Y0D03*
%TD*%
D15*
%TO.P,M2,1*%
%TO.N,GND*%
X0Y0D03*
%TD*%
D16*
%TO.P,J1,1*%
%TO.N,/COUNT*%
X5715000Y-2540000D03*
D17*
%TO.P,J1,2*%
%TO.N,Net-(C2-Pad1)*%
X5715000Y0D03*
%TO.P,J1,3*%
%TO.N,GND*%
X5715000Y2540000D03*
%TD*%
D18*
%TO.N,GND*%
X-1270000Y8382000D03*
X9398000Y-6606904D03*
X-12192000Y3807096D03*
X-17272000Y-8382000D03*
X-12192000Y-8384904D03*
X-20320000Y3302000D03*
X-20320000Y-6350000D03*
X-20320000Y-3302000D03*
X-20320000Y-5334000D03*
X-20320000Y6350000D03*
X-20320000Y-4318000D03*
X-20320000Y5334000D03*
X-20320000Y4318000D03*
X-16256000Y8506096D03*
X6096000Y-4572000D03*
X6832600Y4013200D03*
X10414000Y-3050904D03*
X11176000Y-6352904D03*
X10414000Y-4320904D03*
X10541000Y8252096D03*
X-2286000Y3807096D03*
X11176000Y-8384904D03*
X11176000Y-7368904D03*
X3454400Y3581400D03*
X3937000Y2537096D03*
X4318000Y1394096D03*
X10414000Y-1778000D03*
X10541000Y7109096D03*
X-2540000Y-8384904D03*
X-14478000Y-2286000D03*
X-17018000Y0D03*
X-508000Y4572000D03*
X2286000Y-8382000D03*
X8382000Y-4574904D03*
X-11176000Y1270000D03*
X-12700000Y-510904D03*
X-2286000Y-5588000D03*
X9398000Y-5590904D03*
X-6604000Y-5334000D03*
X-5942000Y-3624904D03*
X-4826000Y-1270000D03*
X-12700000Y1267096D03*
X-4826000Y508000D03*
X3008000Y-2374904D03*
X-8636000Y2794000D03*
X10541000Y5080000D03*
X10541000Y6096000D03*
X5842000Y4318000D03*
X-7620000Y-8384904D03*
X-17018000Y-1270000D03*
X-12522200Y8506096D03*
X3810000Y-3302000D03*
X-18642000Y6975096D03*
X-17018000Y1270000D03*
X-17526000Y8506096D03*
X-3556000Y-3048000D03*
X-14097000Y8506096D03*
X-5080000Y-5334000D03*
%TO.N,+3V3*%
X-7366000Y2540000D03*
X3048000Y-5588000D03*
%TO.N,+5V*%
X-14224000Y254000D03*
X-12792000Y6325096D03*
X-13716000Y-5842000D03*
X1778000Y7731096D03*
X-3403600Y6705600D03*
%TO.N,/SDA*%
X-15079236Y-3208764D03*
X-18542000Y5842000D03*
X-11688000Y2481096D03*
%TO.N,Net-(JP1-Pad2)*%
X-8636000Y0D03*
%TD*%
D19*
%TO.N,+3V3*%
X-7336000Y0D02*
X-7336000Y2510000D01*
X-7336000Y-792000D02*
X-7336000Y0D01*
X3048000Y-5588000D02*
X2032000Y-4572000D01*
X-7336000Y2510000D02*
X-7366000Y2540000D01*
X2032000Y-4572000D02*
X-3556000Y-4572000D01*
X-3556000Y-4572000D02*
X-7336000Y-792000D01*
%TO.N,+5V*%
X-12792000Y6325096D02*
X-12687000Y6220096D01*
X-13628489Y-341511D02*
X-14224000Y254000D01*
X-12687000Y6220096D02*
X-3889104Y6220096D01*
X-13716000Y-5842000D02*
X-13628489Y-5754489D01*
X752504Y6705600D02*
X-3403600Y6705600D01*
X1778000Y7731096D02*
X752504Y6705600D01*
X-3889104Y6220096D02*
X-3403600Y6705600D01*
X-13628489Y-5754489D02*
X-13628489Y-341511D01*
%TO.N,/SDA*%
X-15079236Y-3208764D02*
X-15494000Y-2794000D01*
X-15494000Y-2794000D02*
X-15494000Y2794000D01*
D20*
X-11688000Y2481096D02*
X-15348000Y2481096D01*
D19*
X-15494000Y2794000D02*
X-18542000Y5842000D01*
%TD*%
%TA.AperFunction,Conductor*%
%TO.N,GND*%
G36*
X15383566Y9007687D02*
G01*
X15408876Y8963850D01*
X15410000Y8951000D01*
X15410000Y8178239D01*
X15392687Y8130673D01*
X15348850Y8105363D01*
X15336000Y8104239D01*
X11962500Y8104239D01*
X11962500Y-8110047D01*
X15336000Y-8110047D01*
X15383566Y-8127360D01*
X15408876Y-8171197D01*
X15410000Y-8184047D01*
X15410000Y-8901000D01*
X15392687Y-8948566D01*
X15348850Y-8973876D01*
X15336000Y-8975000D01*
X-21016000Y-8975000D01*
X-21063566Y-8957687D01*
X-21088876Y-8913850D01*
X-21090000Y-8901000D01*
X-21090000Y-7700001D01*
X-11605142Y-7700001D01*
X-11604736Y-7702833D01*
X-11604736Y-7702839D01*
X-11602031Y-7721727D01*
X-11601567Y-7725754D01*
X-11588569Y-7874312D01*
X-11543282Y-8043327D01*
X-11541920Y-8046247D01*
X-11541920Y-8046248D01*
X-11470699Y-8198982D01*
X-11470696Y-8198988D01*
X-11469333Y-8201910D01*
X-11368970Y-8345243D01*
X-11245243Y-8468970D01*
X-11101910Y-8569333D01*
X-11098988Y-8570696D01*
X-11098982Y-8570699D01*
X-10946248Y-8641920D01*
X-10943327Y-8643282D01*
X-10940213Y-8644116D01*
X-10940214Y-8644116D01*
X-10777426Y-8687735D01*
X-10777422Y-8687736D01*
X-10774312Y-8688569D01*
X-10704489Y-8694678D01*
X-10643147Y-8700045D01*
X-10637320Y-8700789D01*
X-10615167Y-8704516D01*
X-10615165Y-8704516D01*
X-10612343Y-8704991D01*
X-10606172Y-8705067D01*
X-10602863Y-8705107D01*
X-10600001Y-8705142D01*
X-10569312Y-8700747D01*
X-10558821Y-8700000D01*
X-9448186Y-8700000D01*
X-9435909Y-8701026D01*
X-9415165Y-8704516D01*
X-9415164Y-8704516D01*
X-9412341Y-8704991D01*
X-9405236Y-8705078D01*
X-9402861Y-8705107D01*
X-9399999Y-8705142D01*
X-9397167Y-8704736D01*
X-9397161Y-8704736D01*
X-9378273Y-8702031D01*
X-9374246Y-8701567D01*
X-9225688Y-8688569D01*
X-9222578Y-8687736D01*
X-9222574Y-8687735D01*
X-9059786Y-8644116D01*
X-9059787Y-8644116D01*
X-9056673Y-8643282D01*
X-9053752Y-8641920D01*
X-8901018Y-8570699D01*
X-8901012Y-8570696D01*
X-8898090Y-8569333D01*
X-8754757Y-8468970D01*
X-8631030Y-8345243D01*
X-8530667Y-8201910D01*
X-8529304Y-8198988D01*
X-8529301Y-8198982D01*
X-8458080Y-8046248D01*
X-8458080Y-8046247D01*
X-8456718Y-8043327D01*
X-8411431Y-7874312D01*
X-8399955Y-7743147D01*
X-8399211Y-7737320D01*
X-8395484Y-7715167D01*
X-8395484Y-7715165D01*
X-8395009Y-7712343D01*
X-8394858Y-7700001D01*
X-1605142Y-7700001D01*
X-1604736Y-7702833D01*
X-1604736Y-7702839D01*
X-1602031Y-7721727D01*
X-1601567Y-7725754D01*
X-1588569Y-7874312D01*
X-1543282Y-8043327D01*
X-1541920Y-8046247D01*
X-1541920Y-8046248D01*
X-1470699Y-8198982D01*
X-1470696Y-8198988D01*
X-1469333Y-8201910D01*
X-1368970Y-8345243D01*
X-1245243Y-8468970D01*
X-1101910Y-8569333D01*
X-1098988Y-8570696D01*
X-1098982Y-8570699D01*
X-946248Y-8641920D01*
X-943327Y-8643282D01*
X-940213Y-8644116D01*
X-940214Y-8644116D01*
X-777426Y-8687735D01*
X-777422Y-8687736D01*
X-774312Y-8688569D01*
X-704489Y-8694678D01*
X-643147Y-8700045D01*
X-637320Y-8700789D01*
X-615167Y-8704516D01*
X-615165Y-8704516D01*
X-612343Y-8704991D01*
X-606172Y-8705067D01*
X-602863Y-8705107D01*
X-600001Y-8705142D01*
X-569312Y-8700747D01*
X-558821Y-8700000D01*
X551814Y-8700000D01*
X564091Y-8701026D01*
X584835Y-8704516D01*
X584836Y-8704516D01*
X587659Y-8704991D01*
X594764Y-8705078D01*
X597139Y-8705107D01*
X600001Y-8705142D01*
X602833Y-8704736D01*
X602839Y-8704736D01*
X621727Y-8702031D01*
X625754Y-8701567D01*
X774312Y-8688569D01*
X777422Y-8687736D01*
X777426Y-8687735D01*
X940214Y-8644116D01*
X940213Y-8644116D01*
X943327Y-8643282D01*
X946248Y-8641920D01*
X1098982Y-8570699D01*
X1098988Y-8570696D01*
X1101910Y-8569333D01*
X1245243Y-8468970D01*
X1368970Y-8345243D01*
X1469333Y-8201910D01*
X1470696Y-8198988D01*
X1470699Y-8198982D01*
X1541920Y-8046248D01*
X1541920Y-8046247D01*
X1543282Y-8043327D01*
X1588569Y-7874312D01*
X1600045Y-7743147D01*
X1600789Y-7737320D01*
X1604516Y-7715167D01*
X1604516Y-7715165D01*
X1604991Y-7712343D01*
X1605142Y-7700001D01*
X1600747Y-7669312D01*
X1600000Y-7658821D01*
X1600000Y-6348186D01*
X1601026Y-6335909D01*
X1604516Y-6315165D01*
X1604516Y-6315164D01*
X1604991Y-6312341D01*
X1605142Y-6299999D01*
X1604733Y-6297137D01*
X1602031Y-6278273D01*
X1601565Y-6274231D01*
X1601220Y-6270282D01*
X1588569Y-6125688D01*
X1543282Y-5956673D01*
X1512584Y-5890841D01*
X1470699Y-5801018D01*
X1470696Y-5801012D01*
X1469333Y-5798090D01*
X1368970Y-5654757D01*
X1245243Y-5531030D01*
X1101910Y-5430667D01*
X1098988Y-5429304D01*
X1098982Y-5429301D01*
X946248Y-5358080D01*
X946247Y-5358080D01*
X943327Y-5356718D01*
X902120Y-5345677D01*
X777426Y-5312265D01*
X777422Y-5312264D01*
X774312Y-5311431D01*
X704489Y-5305322D01*
X643147Y-5299955D01*
X637320Y-5299211D01*
X615167Y-5295484D01*
X615165Y-5295484D01*
X612343Y-5295009D01*
X606172Y-5294933D01*
X602863Y-5294893D01*
X600001Y-5294858D01*
X597173Y-5295263D01*
X569312Y-5299253D01*
X558821Y-5300000D01*
X-551814Y-5300000D01*
X-564091Y-5298974D01*
X-584835Y-5295484D01*
X-584836Y-5295484D01*
X-587659Y-5295009D01*
X-594764Y-5294922D01*
X-597139Y-5294893D01*
X-600001Y-5294858D01*
X-602833Y-5295264D01*
X-602839Y-5295264D01*
X-621727Y-5297969D01*
X-625754Y-5298433D01*
X-774312Y-5311431D01*
X-777422Y-5312264D01*
X-777426Y-5312265D01*
X-902120Y-5345677D01*
X-943327Y-5356718D01*
X-946247Y-5358080D01*
X-946248Y-5358080D01*
X-1098982Y-5429301D01*
X-1098988Y-5429304D01*
X-1101910Y-5430667D01*
X-1245243Y-5531030D01*
X-1368970Y-5654757D01*
X-1469333Y-5798090D01*
X-1470696Y-5801012D01*
X-1470699Y-5801018D01*
X-1512584Y-5890841D01*
X-1543282Y-5956673D01*
X-1588569Y-6125688D01*
X-1590581Y-6148689D01*
X-1600045Y-6256853D01*
X-1600789Y-6262680D01*
X-1603412Y-6278273D01*
X-1604991Y-6287657D01*
X-1605142Y-6299999D01*
X-1604737Y-6302827D01*
X-1600747Y-6330688D01*
X-1600000Y-6341179D01*
X-1600000Y-7651814D01*
X-1601026Y-7664091D01*
X-1604991Y-7687659D01*
X-1605142Y-7700001D01*
X-8394858Y-7700001D01*
X-8399253Y-7669312D01*
X-8400000Y-7658821D01*
X-8400000Y-6348186D01*
X-8398974Y-6335909D01*
X-8395484Y-6315165D01*
X-8395484Y-6315164D01*
X-8395009Y-6312341D01*
X-8394858Y-6299999D01*
X-8395267Y-6297137D01*
X-8397969Y-6278273D01*
X-8398435Y-6274231D01*
X-8398780Y-6270282D01*
X-8411431Y-6125688D01*
X-8456718Y-5956673D01*
X-8487416Y-5890841D01*
X-8529301Y-5801018D01*
X-8529304Y-5801012D01*
X-8530667Y-5798090D01*
X-8631030Y-5654757D01*
X-8754757Y-5531030D01*
X-8898090Y-5430667D01*
X-8901012Y-5429304D01*
X-8901018Y-5429301D01*
X-9053752Y-5358080D01*
X-9053753Y-5358080D01*
X-9056673Y-5356718D01*
X-9097880Y-5345677D01*
X-9222574Y-5312265D01*
X-9222578Y-5312264D01*
X-9225688Y-5311431D01*
X-9295511Y-5305322D01*
X-9356853Y-5299955D01*
X-9362680Y-5299211D01*
X-9384833Y-5295484D01*
X-9384835Y-5295484D01*
X-9387657Y-5295009D01*
X-9393828Y-5294933D01*
X-9397137Y-5294893D01*
X-9399999Y-5294858D01*
X-9402827Y-5295263D01*
X-9430688Y-5299253D01*
X-9441179Y-5300000D01*
X-10551814Y-5300000D01*
X-10564091Y-5298974D01*
X-10584835Y-5295484D01*
X-10584836Y-5295484D01*
X-10587659Y-5295009D01*
X-10594764Y-5294922D01*
X-10597139Y-5294893D01*
X-10600001Y-5294858D01*
X-10602833Y-5295264D01*
X-10602839Y-5295264D01*
X-10621727Y-5297969D01*
X-10625754Y-5298433D01*
X-10774312Y-5311431D01*
X-10777422Y-5312264D01*
X-10777426Y-5312265D01*
X-10902120Y-5345677D01*
X-10943327Y-5356718D01*
X-10946247Y-5358080D01*
X-10946248Y-5358080D01*
X-11098982Y-5429301D01*
X-11098988Y-5429304D01*
X-11101910Y-5430667D01*
X-11245243Y-5531030D01*
X-11368970Y-5654757D01*
X-11469333Y-5798090D01*
X-11470696Y-5801012D01*
X-11470699Y-5801018D01*
X-11512584Y-5890841D01*
X-11543282Y-5956673D01*
X-11588569Y-6125688D01*
X-11590581Y-6148689D01*
X-11600045Y-6256853D01*
X-11600789Y-6262680D01*
X-11603412Y-6278273D01*
X-11604991Y-6287657D01*
X-11605142Y-6299999D01*
X-11604737Y-6302827D01*
X-11600747Y-6330688D01*
X-11600000Y-6341179D01*
X-11600000Y-7651814D01*
X-11601026Y-7664091D01*
X-11604991Y-7687659D01*
X-11605142Y-7700001D01*
X-21090000Y-7700001D01*
X-21090000Y5842000D01*
X-19147682Y5842000D01*
X-19147049Y5837192D01*
X-19131543Y5719414D01*
X-19127044Y5685238D01*
X-19066536Y5539159D01*
X-19063586Y5535315D01*
X-19063584Y5535311D01*
X-18973237Y5417569D01*
X-18970282Y5413718D01*
X-18966431Y5410763D01*
X-18848689Y5320416D01*
X-18848685Y5320414D01*
X-18844841Y5317464D01*
X-18698762Y5256956D01*
X-18693960Y5256324D01*
X-18693957Y5256323D01*
X-18636891Y5248811D01*
X-18603089Y5244361D01*
X-18560423Y5223320D01*
X-15966174Y2629071D01*
X-15944782Y2583195D01*
X-15944500Y2576745D01*
X-15944500Y-2762849D01*
X-15945013Y-2771546D01*
X-15949364Y-2808310D01*
X-15948370Y-2813752D01*
X-15948370Y-2813755D01*
X-15938682Y-2866800D01*
X-15938300Y-2869093D01*
X-15932089Y-2910402D01*
X-15929449Y-2927962D01*
X-15927126Y-2932798D01*
X-15927044Y-2933136D01*
X-15926953Y-2933400D01*
X-15926227Y-2935637D01*
X-15926132Y-2935946D01*
X-15925988Y-2936296D01*
X-15925025Y-2941573D01*
X-15922475Y-2946482D01*
X-15897618Y-2994334D01*
X-15896583Y-2996405D01*
X-15870809Y-3050079D01*
X-15867163Y-3054023D01*
X-15866621Y-3054931D01*
X-15864525Y-3058042D01*
X-15862579Y-3061788D01*
X-15858275Y-3066828D01*
X-15820305Y-3104798D01*
X-15818291Y-3106893D01*
X-15778854Y-3149556D01*
X-15774072Y-3152334D01*
X-15770705Y-3155031D01*
X-15764646Y-3160457D01*
X-15697916Y-3227187D01*
X-15676875Y-3269853D01*
X-15664280Y-3365526D01*
X-15603772Y-3511605D01*
X-15600822Y-3515449D01*
X-15600820Y-3515453D01*
X-15551069Y-3580289D01*
X-15507518Y-3637046D01*
X-15503667Y-3640001D01*
X-15385925Y-3730348D01*
X-15385921Y-3730350D01*
X-15382077Y-3733300D01*
X-15235998Y-3793808D01*
X-15231196Y-3794440D01*
X-15231193Y-3794441D01*
X-15084044Y-3813813D01*
X-15079236Y-3814446D01*
X-15074428Y-3813813D01*
X-14927279Y-3794441D01*
X-14927276Y-3794440D01*
X-14922474Y-3793808D01*
X-14776395Y-3733300D01*
X-14772551Y-3730350D01*
X-14772547Y-3730348D01*
X-14654805Y-3640001D01*
X-14650954Y-3637046D01*
X-14607403Y-3580289D01*
X-14557652Y-3515453D01*
X-14557650Y-3515449D01*
X-14554700Y-3511605D01*
X-14494192Y-3365526D01*
X-14481596Y-3269854D01*
X-14474187Y-3213572D01*
X-14473554Y-3208764D01*
X-14481883Y-3145496D01*
X-14493559Y-3056807D01*
X-14493560Y-3056804D01*
X-14494192Y-3052002D01*
X-14554700Y-2905923D01*
X-14557650Y-2902079D01*
X-14557652Y-2902075D01*
X-14647999Y-2784333D01*
X-14650954Y-2780482D01*
X-14662600Y-2771546D01*
X-14772547Y-2687180D01*
X-14772551Y-2687178D01*
X-14776395Y-2684228D01*
X-14922474Y-2623720D01*
X-14927276Y-2623088D01*
X-14927279Y-2623087D01*
X-14979159Y-2616257D01*
X-15024059Y-2592883D01*
X-15043500Y-2542890D01*
X-15043500Y254000D01*
X-14829682Y254000D01*
X-14829049Y249192D01*
X-14822179Y197012D01*
X-14809044Y97238D01*
X-14748536Y-48841D01*
X-14745586Y-52685D01*
X-14745584Y-52689D01*
X-14655237Y-170431D01*
X-14652282Y-174282D01*
X-14648431Y-177237D01*
X-14530689Y-267584D01*
X-14530685Y-267586D01*
X-14526841Y-270536D01*
X-14380762Y-331044D01*
X-14375960Y-331676D01*
X-14375957Y-331677D01*
X-14318891Y-339189D01*
X-14285089Y-343639D01*
X-14242423Y-364680D01*
X-14100663Y-506440D01*
X-14079271Y-552316D01*
X-14078989Y-558766D01*
X-14078989Y-5327125D01*
X-14096302Y-5374691D01*
X-14107939Y-5385831D01*
X-14144282Y-5413718D01*
X-14147237Y-5417569D01*
X-14237584Y-5535311D01*
X-14237586Y-5535315D01*
X-14240536Y-5539159D01*
X-14301044Y-5685238D01*
X-14301676Y-5690040D01*
X-14301677Y-5690043D01*
X-14309470Y-5749240D01*
X-14321682Y-5842000D01*
X-14321049Y-5846808D01*
X-14306175Y-5959786D01*
X-14301044Y-5998762D01*
X-14240536Y-6144841D01*
X-14237586Y-6148685D01*
X-14237584Y-6148689D01*
X-14154586Y-6256853D01*
X-14144282Y-6270282D01*
X-14140431Y-6273237D01*
X-14022689Y-6363584D01*
X-14022685Y-6363586D01*
X-14018841Y-6366536D01*
X-13872762Y-6427044D01*
X-13867960Y-6427676D01*
X-13867957Y-6427677D01*
X-13720808Y-6447049D01*
X-13716000Y-6447682D01*
X-13711192Y-6447049D01*
X-13564043Y-6427677D01*
X-13564040Y-6427676D01*
X-13559238Y-6427044D01*
X-13413159Y-6366536D01*
X-13409315Y-6363586D01*
X-13409311Y-6363584D01*
X-13291569Y-6273237D01*
X-13287718Y-6270282D01*
X-13277414Y-6256853D01*
X-13194416Y-6148689D01*
X-13194414Y-6148685D01*
X-13191464Y-6144841D01*
X-13130956Y-5998762D01*
X-13125824Y-5959786D01*
X-13110951Y-5846808D01*
X-13110318Y-5842000D01*
X-13122530Y-5749240D01*
X-13130323Y-5690043D01*
X-13130324Y-5690040D01*
X-13130956Y-5685238D01*
X-13142484Y-5657407D01*
X-13172356Y-5585288D01*
X-13177989Y-5556970D01*
X-13177989Y-372662D01*
X-13177476Y-363965D01*
X-13175285Y-345449D01*
X-9736045Y-345449D01*
X-9732438Y-352960D01*
X-9729600Y-358871D01*
X-9724160Y-374449D01*
X-9720850Y-388962D01*
X-9715656Y-395480D01*
X-9711723Y-400416D01*
X-9702890Y-414496D01*
X-9696547Y-427705D01*
X-9684915Y-437007D01*
X-9673261Y-448682D01*
X-9663985Y-460323D01*
X-9650791Y-466687D01*
X-9636728Y-475543D01*
X-9625285Y-484694D01*
X-9617165Y-486561D01*
X-9617163Y-486562D01*
X-9610773Y-488031D01*
X-9595205Y-493498D01*
X-9589304Y-496345D01*
X-9589302Y-496346D01*
X-9581798Y-499965D01*
X-9558893Y-499985D01*
X-9558786Y-499985D01*
X-9558723Y-500000D01*
X-9541877Y-500000D01*
X-9490818Y-500045D01*
X-9490551Y-500045D01*
X-9490469Y-500006D01*
X-9490417Y-500000D01*
X-9410500Y-500000D01*
X-9362934Y-517313D01*
X-9337624Y-561150D01*
X-9336500Y-574000D01*
X-9336500Y-769748D01*
X-9324867Y-828231D01*
X-9280552Y-894552D01*
X-9274491Y-898602D01*
X-9222682Y-933220D01*
X-9214231Y-938867D01*
X-9169705Y-947724D01*
X-9159318Y-949790D01*
X-9159317Y-949790D01*
X-9155748Y-950500D01*
X-8116252Y-950500D01*
X-8112683Y-949790D01*
X-8112682Y-949790D01*
X-8102295Y-947724D01*
X-8057769Y-938867D01*
X-8051706Y-934816D01*
X-8044976Y-932028D01*
X-8044482Y-933220D01*
X-8002942Y-923056D01*
X-7977190Y-932429D01*
X-7977024Y-932028D01*
X-7970294Y-934816D01*
X-7964231Y-938867D01*
X-7903998Y-950848D01*
X-7889570Y-953718D01*
X-7889569Y-953718D01*
X-7886000Y-954428D01*
X-7804335Y-954428D01*
X-7756769Y-971741D01*
X-7737627Y-996396D01*
X-7712809Y-1048079D01*
X-7709163Y-1052023D01*
X-7708621Y-1052931D01*
X-7706525Y-1056042D01*
X-7704579Y-1059788D01*
X-7700275Y-1064828D01*
X-7662305Y-1102798D01*
X-7660291Y-1104893D01*
X-7620854Y-1147556D01*
X-7616072Y-1150334D01*
X-7612705Y-1153031D01*
X-7606646Y-1158457D01*
X-3896577Y-4868526D01*
X-3890790Y-4875039D01*
X-3867872Y-4904110D01*
X-3863323Y-4907254D01*
X-3863322Y-4907255D01*
X-3818944Y-4937926D01*
X-3817052Y-4939278D01*
X-3773634Y-4971348D01*
X-3773630Y-4971350D01*
X-3769184Y-4974634D01*
X-3764118Y-4976412D01*
X-3763815Y-4976597D01*
X-3763555Y-4976724D01*
X-3761494Y-4977774D01*
X-3761189Y-4977936D01*
X-3760845Y-4978080D01*
X-3756431Y-4981131D01*
X-3716076Y-4993894D01*
X-3699732Y-4999063D01*
X-3697529Y-4999798D01*
X-3646592Y-5017685D01*
X-3641369Y-5019519D01*
X-3636006Y-5019729D01*
X-3634987Y-5019987D01*
X-3631297Y-5020706D01*
X-3627270Y-5021980D01*
X-3620663Y-5022500D01*
X-3566961Y-5022500D01*
X-3564055Y-5022557D01*
X-3511534Y-5024621D01*
X-3511533Y-5024621D01*
X-3506006Y-5024838D01*
X-3500659Y-5023420D01*
X-3496374Y-5022947D01*
X-3488253Y-5022500D01*
X1814745Y-5022500D01*
X1862311Y-5039813D01*
X1867071Y-5044174D01*
X2429320Y-5606423D01*
X2450361Y-5649089D01*
X2462956Y-5744762D01*
X2523464Y-5890841D01*
X2526414Y-5894685D01*
X2526416Y-5894689D01*
X2616763Y-6012431D01*
X2619718Y-6016282D01*
X2623569Y-6019237D01*
X2741311Y-6109584D01*
X2741315Y-6109586D01*
X2745159Y-6112536D01*
X2891238Y-6173044D01*
X2896040Y-6173676D01*
X2896043Y-6173677D01*
X3043192Y-6193049D01*
X3048000Y-6193682D01*
X3052808Y-6193049D01*
X3199957Y-6173677D01*
X3199960Y-6173676D01*
X3204762Y-6173044D01*
X3350841Y-6112536D01*
X3354685Y-6109586D01*
X3354689Y-6109584D01*
X3472431Y-6019237D01*
X3476282Y-6016282D01*
X3479237Y-6012431D01*
X3569584Y-5894689D01*
X3569586Y-5894685D01*
X3572536Y-5890841D01*
X3633044Y-5744762D01*
X3640881Y-5685238D01*
X3653049Y-5592808D01*
X3653682Y-5588000D01*
X3647252Y-5539159D01*
X3633677Y-5436043D01*
X3633676Y-5436040D01*
X3633044Y-5431238D01*
X3572536Y-5285159D01*
X3569586Y-5281315D01*
X3569584Y-5281311D01*
X3479237Y-5163569D01*
X3476282Y-5159718D01*
X3472431Y-5156763D01*
X3354689Y-5066416D01*
X3354685Y-5066414D01*
X3350841Y-5063464D01*
X3204762Y-5002956D01*
X3199960Y-5002324D01*
X3199957Y-5002323D01*
X3142891Y-4994811D01*
X3109089Y-4990361D01*
X3066423Y-4969320D01*
X2372577Y-4275474D01*
X2366790Y-4268961D01*
X2347297Y-4244234D01*
X2347295Y-4244232D01*
X2343872Y-4239890D01*
X2294944Y-4206074D01*
X2293052Y-4204722D01*
X2249634Y-4172652D01*
X2249630Y-4172650D01*
X2245184Y-4169366D01*
X2240118Y-4167588D01*
X2239815Y-4167403D01*
X2239555Y-4167276D01*
X2237494Y-4166226D01*
X2237189Y-4166064D01*
X2236845Y-4165920D01*
X2232431Y-4162869D01*
X2175732Y-4144937D01*
X2173529Y-4144202D01*
X2122592Y-4126315D01*
X2122591Y-4126315D01*
X2117369Y-4124481D01*
X2112006Y-4124271D01*
X2110987Y-4124013D01*
X2107297Y-4123294D01*
X2103270Y-4122020D01*
X2096663Y-4121500D01*
X2042961Y-4121500D01*
X2040055Y-4121443D01*
X1987530Y-4119379D01*
X1982006Y-4119162D01*
X1976664Y-4120578D01*
X1972364Y-4121053D01*
X1964246Y-4121500D01*
X-3338745Y-4121500D01*
X-3386311Y-4104187D01*
X-3391071Y-4099826D01*
X-4081149Y-3409748D01*
X4664500Y-3409748D01*
X4676133Y-3468231D01*
X4720448Y-3534552D01*
X4786769Y-3578867D01*
X4831295Y-3587724D01*
X4841682Y-3589790D01*
X4841683Y-3589790D01*
X4845252Y-3590500D01*
X6584748Y-3590500D01*
X6588317Y-3589790D01*
X6588318Y-3589790D01*
X6598705Y-3587724D01*
X6643231Y-3578867D01*
X6709552Y-3534552D01*
X6753867Y-3468231D01*
X6765500Y-3409748D01*
X6765500Y-1670252D01*
X6753867Y-1611769D01*
X6709552Y-1545448D01*
X6643231Y-1501133D01*
X6598705Y-1492276D01*
X6588318Y-1490210D01*
X6588317Y-1490210D01*
X6584748Y-1489500D01*
X4845252Y-1489500D01*
X4841683Y-1490210D01*
X4841682Y-1490210D01*
X4831295Y-1492276D01*
X4786769Y-1501133D01*
X4720448Y-1545448D01*
X4676133Y-1611769D01*
X4664500Y-1670252D01*
X4664500Y-3409748D01*
X-4081149Y-3409748D01*
X-6744912Y-745985D01*
X-6766304Y-700109D01*
X-6753935Y-652279D01*
X-6734715Y-623784D01*
X-6733245Y-621605D01*
X-6670798Y-492713D01*
X-6653176Y-437496D01*
X-6639948Y-358871D01*
X-6629651Y-297668D01*
X-6629650Y-297662D01*
X-6629414Y-296258D01*
X-6626596Y-264843D01*
X-6626445Y-252501D01*
X-6628495Y-221019D01*
X-6630825Y-204749D01*
X-6631572Y-194259D01*
X-6631572Y184736D01*
X-6630548Y197003D01*
X-6629414Y203742D01*
X-6626596Y235157D01*
X-6626445Y247499D01*
X-6626921Y254818D01*
X-6628403Y277567D01*
X-6628495Y278981D01*
X-6642213Y374773D01*
X-6648426Y418156D01*
X-6648427Y418161D01*
X-6648799Y420758D01*
X-6665067Y476390D01*
X-6668913Y484850D01*
X-6709448Y574000D01*
X-6724347Y606769D01*
X-6755574Y655598D01*
X-6838131Y751411D01*
X-6847348Y762108D01*
X-6847351Y762111D01*
X-6849064Y764099D01*
X-6851367Y766108D01*
X-6860144Y773765D01*
X-6884609Y818080D01*
X-6885500Y829530D01*
X-6885500Y2154651D01*
X-6870208Y2199699D01*
X-6844416Y2233311D01*
X-6844414Y2233315D01*
X-6841464Y2237159D01*
X-6823787Y2279834D01*
X4381703Y2279834D01*
X4381727Y2278827D01*
X4414033Y2135477D01*
X4415845Y2129695D01*
X4497569Y1928429D01*
X4500304Y1923016D01*
X4613802Y1737803D01*
X4617383Y1732910D01*
X4759614Y1568715D01*
X4763934Y1564484D01*
X4931079Y1425718D01*
X4936038Y1422245D01*
X5123591Y1312648D01*
X5129056Y1310030D01*
X5331987Y1232538D01*
X5337819Y1230844D01*
X5550680Y1187537D01*
X5553619Y1187187D01*
X5598801Y1164364D01*
X5618742Y1117838D01*
X5604111Y1069380D01*
X5561755Y1041663D01*
X5551564Y1040013D01*
X5517203Y1036886D01*
X5488465Y1028428D01*
X5323043Y979742D01*
X5323039Y979740D01*
X5319572Y978720D01*
X5246061Y940289D01*
X5140209Y884951D01*
X5140206Y884949D01*
X5137002Y883274D01*
X5134184Y881008D01*
X5134182Y881007D01*
X4979266Y756452D01*
X4979263Y756449D01*
X4976447Y754185D01*
X4974121Y751413D01*
X4974119Y751411D01*
X4846351Y599144D01*
X4846348Y599140D01*
X4844024Y596370D01*
X4744776Y415838D01*
X4743682Y412389D01*
X4687005Y233719D01*
X4682484Y219468D01*
X4682081Y215877D01*
X4682081Y215876D01*
X4680720Y203742D01*
X4659520Y14738D01*
X4659823Y11129D01*
X4659823Y11127D01*
X4675069Y-170431D01*
X4676759Y-190553D01*
X4733544Y-388586D01*
X4735196Y-391800D01*
X4735197Y-391803D01*
X4785607Y-489891D01*
X4827712Y-571818D01*
X4955677Y-733270D01*
X4958430Y-735613D01*
X4958433Y-735616D01*
X5002733Y-773318D01*
X5112564Y-866791D01*
X5159266Y-892892D01*
X5289239Y-965532D01*
X5289243Y-965534D01*
X5292398Y-967297D01*
X5295834Y-968414D01*
X5295840Y-968416D01*
X5372642Y-993370D01*
X5488329Y-1030959D01*
X5552176Y-1038572D01*
X5689294Y-1054922D01*
X5689297Y-1054922D01*
X5692894Y-1055351D01*
X5787403Y-1048079D01*
X5894689Y-1039824D01*
X5894691Y-1039824D01*
X5898300Y-1039546D01*
X6096725Y-984145D01*
X6127863Y-968416D01*
X6277376Y-892892D01*
X6277379Y-892890D01*
X6280610Y-891258D01*
X6442951Y-764424D01*
X6577564Y-608472D01*
X6579347Y-605333D01*
X6579350Y-605329D01*
X6645984Y-488031D01*
X6679323Y-429344D01*
X6684262Y-414499D01*
X6743208Y-237299D01*
X6744351Y-233863D01*
X6745795Y-222439D01*
X6769913Y-31519D01*
X6769913Y-31513D01*
X6770171Y-29474D01*
X6770583Y0D01*
X6750480Y205030D01*
X6690935Y402251D01*
X6606693Y560689D01*
X6595917Y580956D01*
X6595916Y580958D01*
X6594218Y584151D01*
X6464011Y743800D01*
X6305275Y875118D01*
X6294384Y881007D01*
X6127238Y971382D01*
X6124055Y973103D01*
X6120605Y974171D01*
X6120600Y974173D01*
X5995996Y1012744D01*
X5927254Y1034023D01*
X5887929Y1038156D01*
X5855262Y1041590D01*
X5809766Y1063781D01*
X5789177Y1110023D01*
X5803130Y1158681D01*
X5845095Y1186987D01*
X5853595Y1188585D01*
X5995303Y1206737D01*
X6001214Y1207994D01*
X6209296Y1270421D01*
X6214925Y1272628D01*
X6410010Y1368199D01*
X6415208Y1371298D01*
X6592073Y1497453D01*
X6596680Y1501346D01*
X6750560Y1654691D01*
X6754489Y1659308D01*
X6881250Y1835715D01*
X6884367Y1840903D01*
X6980616Y2035646D01*
X6982849Y2041286D01*
X7045996Y2249127D01*
X7047277Y2255052D01*
X7049648Y2273063D01*
X7047346Y2283449D01*
X7044021Y2286000D01*
X4393158Y2286000D01*
X4383162Y2282362D01*
X4381703Y2279834D01*
X-6823787Y2279834D01*
X-6780956Y2383238D01*
X-6760318Y2540000D01*
X-6761765Y2550995D01*
X-6780323Y2691957D01*
X-6780324Y2691960D01*
X-6780956Y2696762D01*
X-6825042Y2803196D01*
X4378662Y2803196D01*
X4380281Y2796648D01*
X4383911Y2794000D01*
X5447952Y2794000D01*
X5457948Y2797638D01*
X5461000Y2802925D01*
X5461000Y2807048D01*
X5969000Y2807048D01*
X5972638Y2797052D01*
X5977925Y2794000D01*
X7038411Y2794000D01*
X7048407Y2797638D01*
X7049621Y2799742D01*
X7049555Y2801578D01*
X7005694Y2976197D01*
X7003748Y2981913D01*
X6917120Y3181144D01*
X6914266Y3186468D01*
X6796265Y3368869D01*
X6792575Y3373661D01*
X6646370Y3534337D01*
X6641945Y3538464D01*
X6471460Y3673104D01*
X6466425Y3676449D01*
X6276245Y3781435D01*
X6270717Y3783919D01*
X6065954Y3856430D01*
X6060087Y3857980D01*
X5981847Y3871917D01*
X5971368Y3870088D01*
X5969000Y3867276D01*
X5969000Y2807048D01*
X5461000Y2807048D01*
X5461000Y3861965D01*
X5457362Y3871961D01*
X5453945Y3873933D01*
X5402217Y3866017D01*
X5396316Y3864612D01*
X5189834Y3797124D01*
X5184260Y3794780D01*
X4991563Y3694469D01*
X4986451Y3691250D01*
X4812728Y3560814D01*
X4808199Y3556793D01*
X4658115Y3399740D01*
X4654308Y3395038D01*
X4531895Y3215587D01*
X4528896Y3210309D01*
X4437440Y3013283D01*
X4435347Y3007594D01*
X4378662Y2803196D01*
X-6825042Y2803196D01*
X-6841464Y2842841D01*
X-6844414Y2846685D01*
X-6844416Y2846689D01*
X-6934763Y2964431D01*
X-6937718Y2968282D01*
X-6955482Y2981913D01*
X-7059311Y3061584D01*
X-7059315Y3061586D01*
X-7063159Y3064536D01*
X-7209238Y3125044D01*
X-7214040Y3125676D01*
X-7214043Y3125677D01*
X-7361192Y3145049D01*
X-7366000Y3145682D01*
X-7370808Y3145049D01*
X-7517957Y3125677D01*
X-7517960Y3125676D01*
X-7522762Y3125044D01*
X-7668841Y3064536D01*
X-7672685Y3061586D01*
X-7672689Y3061584D01*
X-7776518Y2981913D01*
X-7794282Y2968282D01*
X-7797237Y2964431D01*
X-7887584Y2846689D01*
X-7887586Y2846685D01*
X-7890536Y2842841D01*
X-7951044Y2696762D01*
X-7951676Y2691960D01*
X-7951677Y2691957D01*
X-7970235Y2550995D01*
X-7971682Y2540000D01*
X-7951044Y2383238D01*
X-7890536Y2237159D01*
X-7887586Y2233315D01*
X-7887584Y2233311D01*
X-7801792Y2121505D01*
X-7786500Y2076457D01*
X-7786500Y1028428D01*
X-7803813Y980862D01*
X-7847650Y955552D01*
X-7860500Y954428D01*
X-7886000Y954428D01*
X-7889569Y953718D01*
X-7889570Y953718D01*
X-7903998Y950848D01*
X-7964231Y938867D01*
X-7970294Y934816D01*
X-7977024Y932028D01*
X-7977518Y933220D01*
X-8019058Y923056D01*
X-8044810Y932429D01*
X-8044976Y932028D01*
X-8051706Y934816D01*
X-8057769Y938867D01*
X-8102295Y947724D01*
X-8112682Y949790D01*
X-8112683Y949790D01*
X-8116252Y950500D01*
X-9155748Y950500D01*
X-9159317Y949790D01*
X-9159318Y949790D01*
X-9169705Y947724D01*
X-9214231Y938867D01*
X-9220293Y934816D01*
X-9220294Y934816D01*
X-9261001Y907616D01*
X-9280552Y894552D01*
X-9284602Y888491D01*
X-9318881Y837189D01*
X-9324867Y828231D01*
X-9336500Y769748D01*
X-9336500Y574000D01*
X-9353813Y526434D01*
X-9397650Y501124D01*
X-9410500Y500000D01*
X-9530123Y500000D01*
X-9573117Y500038D01*
X-9573118Y500038D01*
X-9581449Y500045D01*
X-9592422Y494776D01*
X-9594871Y493600D01*
X-9610449Y488160D01*
X-9624962Y484850D01*
X-9631480Y479656D01*
X-9636416Y475723D01*
X-9650496Y466890D01*
X-9663705Y460547D01*
X-9673005Y448917D01*
X-9684682Y437261D01*
X-9696323Y427985D01*
X-9699943Y420479D01*
X-9702687Y414791D01*
X-9711543Y400728D01*
X-9720694Y389285D01*
X-9722561Y381165D01*
X-9722562Y381163D01*
X-9724031Y374773D01*
X-9729498Y359205D01*
X-9732345Y353304D01*
X-9732346Y353302D01*
X-9735965Y345798D01*
X-9735985Y322787D01*
X-9736000Y322723D01*
X-9736000Y305877D01*
X-9736045Y254551D01*
X-9736006Y254469D01*
X-9736000Y254417D01*
X-9736000Y-294123D01*
X-9736032Y-331044D01*
X-9736045Y-345449D01*
X-13175285Y-345449D01*
X-13173775Y-332692D01*
X-13173125Y-327201D01*
X-13179166Y-294123D01*
X-13183808Y-268702D01*
X-13184189Y-266411D01*
X-13192217Y-213020D01*
X-13192218Y-213017D01*
X-13193040Y-207549D01*
X-13195363Y-202710D01*
X-13195451Y-202353D01*
X-13195547Y-202071D01*
X-13196265Y-199861D01*
X-13196355Y-199568D01*
X-13196499Y-199217D01*
X-13197463Y-193938D01*
X-13224913Y-141093D01*
X-13225894Y-139131D01*
X-13251680Y-85432D01*
X-13255324Y-81491D01*
X-13255863Y-80588D01*
X-13257961Y-77474D01*
X-13259909Y-73723D01*
X-13262648Y-70516D01*
X-13262651Y-70512D01*
X-13263279Y-69778D01*
X-13264214Y-68683D01*
X-13302184Y-30713D01*
X-13304198Y-28618D01*
X-13339882Y9985D01*
X-13343635Y14045D01*
X-13348417Y16823D01*
X-13351784Y19520D01*
X-13357843Y24946D01*
X-13605320Y272423D01*
X-13626361Y315090D01*
X-13627374Y322789D01*
X-13631392Y353304D01*
X-13638323Y405957D01*
X-13638324Y405960D01*
X-13638956Y410762D01*
X-13699464Y556841D01*
X-13702414Y560685D01*
X-13702416Y560689D01*
X-13792763Y678431D01*
X-13795718Y682282D01*
X-13872234Y740995D01*
X-13917311Y775584D01*
X-13917315Y775586D01*
X-13921159Y778536D01*
X-14067238Y839044D01*
X-14072040Y839676D01*
X-14072043Y839677D01*
X-14219192Y859049D01*
X-14224000Y859682D01*
X-14228808Y859049D01*
X-14375957Y839677D01*
X-14375960Y839676D01*
X-14380762Y839044D01*
X-14526841Y778536D01*
X-14530685Y775586D01*
X-14530689Y775584D01*
X-14575766Y740995D01*
X-14652282Y682282D01*
X-14655237Y678431D01*
X-14745584Y560689D01*
X-14745586Y560685D01*
X-14748536Y556841D01*
X-14809044Y410762D01*
X-14809676Y405960D01*
X-14809677Y405957D01*
X-14822852Y305877D01*
X-14829682Y254000D01*
X-15043500Y254000D01*
X-15043500Y2006596D01*
X-15026187Y2054162D01*
X-14982350Y2079472D01*
X-14969500Y2080596D01*
X-12173821Y2080596D01*
X-12126255Y2063283D01*
X-12121497Y2058924D01*
X-12119234Y2056662D01*
X-12116282Y2052814D01*
X-12112432Y2049860D01*
X-11994689Y1959512D01*
X-11994685Y1959510D01*
X-11990841Y1956560D01*
X-11844762Y1896052D01*
X-11839960Y1895420D01*
X-11839957Y1895419D01*
X-11692808Y1876047D01*
X-11688000Y1875414D01*
X-11683192Y1876047D01*
X-11536043Y1895419D01*
X-11536040Y1895420D01*
X-11531238Y1896052D01*
X-11385159Y1956560D01*
X-11381315Y1959510D01*
X-11381311Y1959512D01*
X-11263569Y2049859D01*
X-11263568Y2049860D01*
X-11259718Y2052814D01*
X-11241576Y2076457D01*
X-11166416Y2174407D01*
X-11166414Y2174411D01*
X-11163464Y2178255D01*
X-11102956Y2324334D01*
X-11095790Y2378760D01*
X-11082951Y2476288D01*
X-11082318Y2481096D01*
X-11094910Y2576745D01*
X-11102323Y2633053D01*
X-11102324Y2633056D01*
X-11102956Y2637858D01*
X-11163464Y2783937D01*
X-11166414Y2787781D01*
X-11166416Y2787785D01*
X-11256763Y2905527D01*
X-11259718Y2909378D01*
X-11288674Y2931597D01*
X-11381311Y3002680D01*
X-11381315Y3002682D01*
X-11385159Y3005632D01*
X-11531238Y3066140D01*
X-11536040Y3066772D01*
X-11536043Y3066773D01*
X-11683192Y3086145D01*
X-11688000Y3086778D01*
X-11692808Y3086145D01*
X-11839957Y3066773D01*
X-11839960Y3066772D01*
X-11844762Y3066140D01*
X-11990841Y3005632D01*
X-11994685Y3002682D01*
X-11994689Y3002680D01*
X-12067927Y2946482D01*
X-12116282Y2909378D01*
X-12119234Y2905530D01*
X-12121497Y2903268D01*
X-12167374Y2881877D01*
X-12173821Y2881596D01*
X-14990428Y2881596D01*
X-15037994Y2898909D01*
X-15058087Y2928187D01*
X-15058551Y2927964D01*
X-15058867Y2928622D01*
X-15059579Y2930360D01*
X-15059991Y2930960D01*
X-15060755Y2932552D01*
X-15061041Y2933385D01*
X-15061773Y2935637D01*
X-15061868Y2935946D01*
X-15062012Y2936296D01*
X-15062975Y2941573D01*
X-15090386Y2994342D01*
X-15091421Y2996413D01*
X-15114796Y3045092D01*
X-15114797Y3045093D01*
X-15117191Y3050079D01*
X-15120837Y3054023D01*
X-15121379Y3054931D01*
X-15123475Y3058042D01*
X-15125421Y3061788D01*
X-15129725Y3066828D01*
X-15167695Y3104798D01*
X-15169709Y3106893D01*
X-15205393Y3145496D01*
X-15209146Y3149556D01*
X-15213928Y3152334D01*
X-15217295Y3155031D01*
X-15223354Y3160457D01*
X-17923320Y5860423D01*
X-17944361Y5903090D01*
X-17948099Y5931489D01*
X-17956956Y5998762D01*
X-18017464Y6144841D01*
X-18020414Y6148685D01*
X-18020416Y6148689D01*
X-18110763Y6266431D01*
X-18113718Y6270282D01*
X-18185153Y6325096D01*
X-13397682Y6325096D01*
X-13397049Y6320288D01*
X-13387957Y6251230D01*
X-13377044Y6168334D01*
X-13316536Y6022255D01*
X-13313586Y6018411D01*
X-13313584Y6018407D01*
X-13260671Y5949450D01*
X-13220282Y5896814D01*
X-13216431Y5893859D01*
X-13098689Y5803512D01*
X-13098685Y5803510D01*
X-13094841Y5800560D01*
X-12948762Y5740052D01*
X-12943960Y5739420D01*
X-12943957Y5739419D01*
X-12796808Y5720047D01*
X-12792000Y5719414D01*
X-12787192Y5720047D01*
X-12640043Y5739419D01*
X-12640040Y5739420D01*
X-12635238Y5740052D01*
X-12577512Y5763963D01*
X-12549193Y5769596D01*
X-3920255Y5769596D01*
X-3911558Y5769083D01*
X-3899912Y5767705D01*
X-3874794Y5764732D01*
X-3869352Y5765726D01*
X-3869349Y5765726D01*
X-3816304Y5775414D01*
X-3814011Y5775796D01*
X-3760608Y5783825D01*
X-3760607Y5783825D01*
X-3755142Y5784647D01*
X-3750306Y5786970D01*
X-3749968Y5787052D01*
X-3749704Y5787143D01*
X-3747467Y5787869D01*
X-3747158Y5787964D01*
X-3746808Y5788108D01*
X-3741531Y5789071D01*
X-3688762Y5816482D01*
X-3686691Y5817517D01*
X-3638012Y5840892D01*
X-3638011Y5840893D01*
X-3633025Y5843287D01*
X-3629081Y5846933D01*
X-3628173Y5847475D01*
X-3625062Y5849571D01*
X-3621316Y5851517D01*
X-3616276Y5855821D01*
X-3578306Y5893791D01*
X-3576211Y5895805D01*
X-3537608Y5931489D01*
X-3533548Y5935242D01*
X-3530770Y5940024D01*
X-3528073Y5943391D01*
X-3522647Y5949450D01*
X-3385177Y6086920D01*
X-3342511Y6107961D01*
X-3308709Y6112411D01*
X-3251643Y6119923D01*
X-3251640Y6119924D01*
X-3246838Y6120556D01*
X-3100759Y6181064D01*
X-3096914Y6184014D01*
X-3096911Y6184016D01*
X-3024202Y6239808D01*
X-2979154Y6255100D01*
X721353Y6255100D01*
X730050Y6254587D01*
X741696Y6253209D01*
X766814Y6250236D01*
X772256Y6251230D01*
X772259Y6251230D01*
X825304Y6260918D01*
X827597Y6261300D01*
X881000Y6269329D01*
X881001Y6269329D01*
X886466Y6270151D01*
X891302Y6272474D01*
X891640Y6272556D01*
X891904Y6272647D01*
X894141Y6273373D01*
X894450Y6273468D01*
X894800Y6273612D01*
X900077Y6274575D01*
X952846Y6301986D01*
X954917Y6303021D01*
X1003596Y6326396D01*
X1003597Y6326397D01*
X1008583Y6328791D01*
X1012527Y6332437D01*
X1013435Y6332979D01*
X1016546Y6335075D01*
X1020292Y6337021D01*
X1025332Y6341325D01*
X1063302Y6379295D01*
X1065397Y6381309D01*
X1104000Y6416993D01*
X1108060Y6420746D01*
X1110838Y6425528D01*
X1113535Y6428895D01*
X1118961Y6434954D01*
X1796423Y7112416D01*
X1839089Y7133457D01*
X1872891Y7137907D01*
X1929957Y7145419D01*
X1929960Y7145420D01*
X1934762Y7146052D01*
X2080841Y7206560D01*
X2084685Y7209510D01*
X2084689Y7209512D01*
X2202431Y7299859D01*
X2206282Y7302814D01*
X2212780Y7311282D01*
X2299584Y7424407D01*
X2299586Y7424411D01*
X2302536Y7428255D01*
X2363044Y7574334D01*
X2383682Y7731096D01*
X2378918Y7767281D01*
X2363677Y7883053D01*
X2363676Y7883056D01*
X2363044Y7887858D01*
X2302536Y8033937D01*
X2299586Y8037781D01*
X2299584Y8037785D01*
X2209237Y8155527D01*
X2206282Y8159378D01*
X2181702Y8178239D01*
X2084689Y8252680D01*
X2084685Y8252682D01*
X2080841Y8255632D01*
X1934762Y8316140D01*
X1929960Y8316772D01*
X1929957Y8316773D01*
X1782808Y8336145D01*
X1778000Y8336778D01*
X1773192Y8336145D01*
X1626043Y8316773D01*
X1626040Y8316772D01*
X1621238Y8316140D01*
X1475159Y8255632D01*
X1471315Y8252682D01*
X1471311Y8252680D01*
X1374298Y8178239D01*
X1349718Y8159378D01*
X1346763Y8155527D01*
X1256416Y8037785D01*
X1256414Y8037781D01*
X1253464Y8033937D01*
X1192956Y7887858D01*
X1192324Y7883056D01*
X1192323Y7883053D01*
X1180361Y7792186D01*
X1159320Y7749519D01*
X587575Y7177774D01*
X541699Y7156382D01*
X535249Y7156100D01*
X-2979154Y7156100D01*
X-3024202Y7171392D01*
X-3096911Y7227184D01*
X-3096914Y7227186D01*
X-3100759Y7230136D01*
X-3246838Y7290644D01*
X-3251640Y7291276D01*
X-3251643Y7291277D01*
X-3398792Y7310649D01*
X-3403600Y7311282D01*
X-3408408Y7310649D01*
X-3555557Y7291277D01*
X-3555560Y7291276D01*
X-3560362Y7290644D01*
X-3706441Y7230136D01*
X-3710285Y7227186D01*
X-3710289Y7227184D01*
X-3802927Y7156100D01*
X-3831882Y7133882D01*
X-3834837Y7130031D01*
X-3925184Y7012289D01*
X-3925186Y7012285D01*
X-3928136Y7008441D01*
X-3988644Y6862362D01*
X-3989276Y6857560D01*
X-3989277Y6857557D01*
X-4001239Y6766690D01*
X-4022280Y6724023D01*
X-4054033Y6692270D01*
X-4099909Y6670878D01*
X-4106359Y6670596D01*
X-12263705Y6670596D01*
X-12311271Y6687909D01*
X-12322413Y6699548D01*
X-12360763Y6749527D01*
X-12363718Y6753378D01*
X-12367569Y6756333D01*
X-12485311Y6846680D01*
X-12485315Y6846682D01*
X-12489159Y6849632D01*
X-12635238Y6910140D01*
X-12640040Y6910772D01*
X-12640043Y6910773D01*
X-12787192Y6930145D01*
X-12792000Y6930778D01*
X-12796808Y6930145D01*
X-12943957Y6910773D01*
X-12943960Y6910772D01*
X-12948762Y6910140D01*
X-13094841Y6849632D01*
X-13098685Y6846682D01*
X-13098689Y6846680D01*
X-13216431Y6756333D01*
X-13220282Y6753378D01*
X-13223237Y6749527D01*
X-13313584Y6631785D01*
X-13313586Y6631781D01*
X-13316536Y6627937D01*
X-13377044Y6481858D01*
X-13377676Y6477056D01*
X-13377677Y6477053D01*
X-13390412Y6380319D01*
X-13397682Y6325096D01*
X-18185153Y6325096D01*
X-18186847Y6326396D01*
X-18235311Y6363584D01*
X-18235315Y6363586D01*
X-18239159Y6366536D01*
X-18385238Y6427044D01*
X-18390040Y6427676D01*
X-18390043Y6427677D01*
X-18537192Y6447049D01*
X-18542000Y6447682D01*
X-18546808Y6447049D01*
X-18693957Y6427677D01*
X-18693960Y6427676D01*
X-18698762Y6427044D01*
X-18844841Y6366536D01*
X-18848685Y6363586D01*
X-18848689Y6363584D01*
X-18897153Y6326396D01*
X-18970282Y6270282D01*
X-18973237Y6266431D01*
X-19063584Y6148689D01*
X-19063586Y6148685D01*
X-19066536Y6144841D01*
X-19127044Y5998762D01*
X-19127676Y5993960D01*
X-19127677Y5993957D01*
X-19140729Y5894815D01*
X-19147682Y5842000D01*
X-21090000Y5842000D01*
X-21090000Y8951000D01*
X-21072687Y8998566D01*
X-21028850Y9023876D01*
X-21016000Y9025000D01*
X15336000Y9025000D01*
X15383566Y9007687D01*
G37*
%TD.AperFunction*%
%TD*%
M02*
