%TF.GenerationSoftware,KiCad,Pcbnew,6.0.11+dfsg-1~bpo11+1*%
%TF.CreationDate,2023-05-22T21:27:55+00:00*%
%TF.ProjectId,TFRPM01,54465250-4d30-4312-9e6b-696361645f70,rev?*%
%TF.SameCoordinates,PX7e721e0PY7e33658*%
%TF.FileFunction,Legend,Bot*%
%TF.FilePolarity,Positive*%
%FSLAX46Y46*%
G04 Gerber Fmt 4.6, Leading zero omitted, Abs format (unit mm)*
G04 Created by KiCad (PCBNEW 6.0.11+dfsg-1~bpo11+1) date 2023-05-22 21:27:55*
%MOMM*%
%LPD*%
G01*
G04 APERTURE LIST*
%ADD10C,0.150000*%
%ADD11C,0.100000*%
%ADD12C,0.120000*%
G04 APERTURE END LIST*
D10*
X12833000Y-1874904D02*
X12833000Y-974904D01*
X6428711Y-6474904D02*
G75*
G03*
X6428711Y-6474904I-70711J0D01*
G01*
X13462000Y-1874904D02*
X12833000Y-1874904D01*
X12083000Y-1874904D02*
X11433000Y-1874904D01*
X12833000Y-974904D02*
X12083000Y-974904D01*
X12083000Y-974904D02*
X12083000Y-1874904D01*
X14931809Y-1927284D02*
X14931809Y-927284D01*
X14455619Y-1927284D02*
X14455619Y-927284D01*
X13884190Y-1927284D01*
X13884190Y-927284D01*
X14519904Y4125096D02*
X14615142Y4172716D01*
X14758000Y4172716D01*
X14900857Y4125096D01*
X14996095Y4029858D01*
X15043714Y3934620D01*
X15091333Y3744144D01*
X15091333Y3601287D01*
X15043714Y3410811D01*
X14996095Y3315573D01*
X14900857Y3220335D01*
X14758000Y3172716D01*
X14662761Y3172716D01*
X14519904Y3220335D01*
X14472285Y3267954D01*
X14472285Y3601287D01*
X14662761Y3601287D01*
X14043714Y3172716D02*
X14043714Y4172716D01*
X13472285Y3172716D01*
X13472285Y4172716D01*
X12996095Y3172716D02*
X12996095Y4172716D01*
X12758000Y4172716D01*
X12615142Y4125096D01*
X12519904Y4029858D01*
X12472285Y3934620D01*
X12424666Y3744144D01*
X12424666Y3601287D01*
X12472285Y3410811D01*
X12519904Y3315573D01*
X12615142Y3220335D01*
X12758000Y3172716D01*
X12996095Y3172716D01*
X14448476Y1672716D02*
X14924666Y1672716D01*
X14972285Y1196525D01*
X14924666Y1244144D01*
X14829428Y1291763D01*
X14591333Y1291763D01*
X14496095Y1244144D01*
X14448476Y1196525D01*
X14400857Y1101287D01*
X14400857Y863192D01*
X14448476Y767954D01*
X14496095Y720335D01*
X14591333Y672716D01*
X14829428Y672716D01*
X14924666Y720335D01*
X14972285Y767954D01*
X14115142Y1672716D02*
X13781809Y672716D01*
X13448476Y1672716D01*
D11*
%TO.C,D1*%
X-13709524Y-2661904D02*
X-13709524Y-1861904D01*
X-13900000Y-1861904D01*
X-14014286Y-1900000D01*
X-14090477Y-1976190D01*
X-14128572Y-2052380D01*
X-14166667Y-2204761D01*
X-14166667Y-2319047D01*
X-14128572Y-2471428D01*
X-14090477Y-2547619D01*
X-14014286Y-2623809D01*
X-13900000Y-2661904D01*
X-13709524Y-2661904D01*
X-14928572Y-2661904D02*
X-14471429Y-2661904D01*
X-14700000Y-2661904D02*
X-14700000Y-1861904D01*
X-14623810Y-1976190D01*
X-14547620Y-2052380D01*
X-14471429Y-2090476D01*
%TO.C,R10*%
X-6927715Y8238096D02*
X-6661048Y8619048D01*
X-6470572Y8238096D02*
X-6470572Y9038096D01*
X-6775334Y9038096D01*
X-6851524Y9000000D01*
X-6889620Y8961905D01*
X-6927715Y8885715D01*
X-6927715Y8771429D01*
X-6889620Y8695239D01*
X-6851524Y8657143D01*
X-6775334Y8619048D01*
X-6470572Y8619048D01*
X-7689620Y8238096D02*
X-7232477Y8238096D01*
X-7461048Y8238096D02*
X-7461048Y9038096D01*
X-7384858Y8923810D01*
X-7308667Y8847620D01*
X-7232477Y8809524D01*
X-8184858Y9038096D02*
X-8261048Y9038096D01*
X-8337239Y9000000D01*
X-8375334Y8961905D01*
X-8413429Y8885715D01*
X-8451524Y8733334D01*
X-8451524Y8542858D01*
X-8413429Y8390477D01*
X-8375334Y8314286D01*
X-8337239Y8276191D01*
X-8261048Y8238096D01*
X-8184858Y8238096D01*
X-8108667Y8276191D01*
X-8070572Y8314286D01*
X-8032477Y8390477D01*
X-7994381Y8542858D01*
X-7994381Y8733334D01*
X-8032477Y8885715D01*
X-8070572Y8961905D01*
X-8108667Y9000000D01*
X-8184858Y9038096D01*
%TO.C,J1*%
X9258266Y-4238408D02*
X9258266Y-4809837D01*
X9296361Y-4924123D01*
X9372552Y-5000313D01*
X9486838Y-5038408D01*
X9563028Y-5038408D01*
X8458266Y-5038408D02*
X8915409Y-5038408D01*
X8686838Y-5038408D02*
X8686838Y-4238408D01*
X8763028Y-4352694D01*
X8839219Y-4428884D01*
X8915409Y-4466980D01*
%TO.C,U3*%
X-1727277Y4781496D02*
X-1727277Y4133877D01*
X-1765372Y4057686D01*
X-1803467Y4019591D01*
X-1879658Y3981496D01*
X-2032039Y3981496D01*
X-2108229Y4019591D01*
X-2146324Y4057686D01*
X-2184420Y4133877D01*
X-2184420Y4781496D01*
X-2489181Y4781496D02*
X-2984420Y4781496D01*
X-2717753Y4476734D01*
X-2832039Y4476734D01*
X-2908229Y4438639D01*
X-2946324Y4400543D01*
X-2984420Y4324353D01*
X-2984420Y4133877D01*
X-2946324Y4057686D01*
X-2908229Y4019591D01*
X-2832039Y3981496D01*
X-2603467Y3981496D01*
X-2527277Y4019591D01*
X-2489181Y4057686D01*
%TO.C,C3*%
X-14066667Y2214286D02*
X-14028572Y2176191D01*
X-13914286Y2138096D01*
X-13838096Y2138096D01*
X-13723810Y2176191D01*
X-13647620Y2252381D01*
X-13609524Y2328572D01*
X-13571429Y2480953D01*
X-13571429Y2595239D01*
X-13609524Y2747620D01*
X-13647620Y2823810D01*
X-13723810Y2900000D01*
X-13838096Y2938096D01*
X-13914286Y2938096D01*
X-14028572Y2900000D01*
X-14066667Y2861905D01*
X-14333334Y2938096D02*
X-14828572Y2938096D01*
X-14561905Y2633334D01*
X-14676191Y2633334D01*
X-14752381Y2595239D01*
X-14790477Y2557143D01*
X-14828572Y2480953D01*
X-14828572Y2290477D01*
X-14790477Y2214286D01*
X-14752381Y2176191D01*
X-14676191Y2138096D01*
X-14447620Y2138096D01*
X-14371429Y2176191D01*
X-14333334Y2214286D01*
%TO.C,C4*%
X-13908667Y8314286D02*
X-13870572Y8276191D01*
X-13756286Y8238096D01*
X-13680096Y8238096D01*
X-13565810Y8276191D01*
X-13489620Y8352381D01*
X-13451524Y8428572D01*
X-13413429Y8580953D01*
X-13413429Y8695239D01*
X-13451524Y8847620D01*
X-13489620Y8923810D01*
X-13565810Y9000000D01*
X-13680096Y9038096D01*
X-13756286Y9038096D01*
X-13870572Y9000000D01*
X-13908667Y8961905D01*
X-14594381Y8771429D02*
X-14594381Y8238096D01*
X-14403905Y9076191D02*
X-14213429Y8504762D01*
X-14708667Y8504762D01*
%TO.C,J2*%
X-19419820Y4064230D02*
X-18705534Y4064230D01*
X-18562677Y4111849D01*
X-18467439Y4207087D01*
X-18419820Y4349944D01*
X-18419820Y4445182D01*
X-19324581Y3635658D02*
X-19372200Y3588039D01*
X-19419820Y3492801D01*
X-19419820Y3254706D01*
X-19372200Y3159468D01*
X-19324581Y3111849D01*
X-19229343Y3064230D01*
X-19134105Y3064230D01*
X-18991248Y3111849D01*
X-18419820Y3683277D01*
X-18419820Y3064230D01*
%TO.C,R4*%
X-3866667Y-5461904D02*
X-3600000Y-5080952D01*
X-3409524Y-5461904D02*
X-3409524Y-4661904D01*
X-3714286Y-4661904D01*
X-3790477Y-4700000D01*
X-3828572Y-4738095D01*
X-3866667Y-4814285D01*
X-3866667Y-4928571D01*
X-3828572Y-5004761D01*
X-3790477Y-5042857D01*
X-3714286Y-5080952D01*
X-3409524Y-5080952D01*
X-4552381Y-4928571D02*
X-4552381Y-5461904D01*
X-4361905Y-4623809D02*
X-4171429Y-5195238D01*
X-4666667Y-5195238D01*
%TO.C,R1*%
X10852104Y6505830D02*
X10471152Y6772496D01*
X10852104Y6962973D02*
X10052104Y6962973D01*
X10052104Y6658211D01*
X10090200Y6582020D01*
X10128295Y6543925D01*
X10204485Y6505830D01*
X10318771Y6505830D01*
X10394961Y6543925D01*
X10433057Y6582020D01*
X10471152Y6658211D01*
X10471152Y6962973D01*
X10852104Y5743925D02*
X10852104Y6201068D01*
X10852104Y5972496D02*
X10052104Y5972496D01*
X10166390Y6048687D01*
X10242580Y6124877D01*
X10280676Y6201068D01*
%TO.C,R2*%
X4633333Y3938096D02*
X4900000Y4319048D01*
X5090476Y3938096D02*
X5090476Y4738096D01*
X4785714Y4738096D01*
X4709523Y4700000D01*
X4671428Y4661905D01*
X4633333Y4585715D01*
X4633333Y4471429D01*
X4671428Y4395239D01*
X4709523Y4357143D01*
X4785714Y4319048D01*
X5090476Y4319048D01*
X4328571Y4661905D02*
X4290476Y4700000D01*
X4214285Y4738096D01*
X4023809Y4738096D01*
X3947619Y4700000D01*
X3909523Y4661905D01*
X3871428Y4585715D01*
X3871428Y4509524D01*
X3909523Y4395239D01*
X4366666Y3938096D01*
X3871428Y3938096D01*
%TO.C,R3*%
X-10608667Y8238096D02*
X-10342000Y8619048D01*
X-10151524Y8238096D02*
X-10151524Y9038096D01*
X-10456286Y9038096D01*
X-10532477Y9000000D01*
X-10570572Y8961905D01*
X-10608667Y8885715D01*
X-10608667Y8771429D01*
X-10570572Y8695239D01*
X-10532477Y8657143D01*
X-10456286Y8619048D01*
X-10151524Y8619048D01*
X-10875334Y9038096D02*
X-11370572Y9038096D01*
X-11103905Y8733334D01*
X-11218191Y8733334D01*
X-11294381Y8695239D01*
X-11332477Y8657143D01*
X-11370572Y8580953D01*
X-11370572Y8390477D01*
X-11332477Y8314286D01*
X-11294381Y8276191D01*
X-11218191Y8238096D01*
X-10989620Y8238096D01*
X-10913429Y8276191D01*
X-10875334Y8314286D01*
%TO.C,C6*%
X4433333Y-5285714D02*
X4471428Y-5323809D01*
X4585714Y-5361904D01*
X4661904Y-5361904D01*
X4776190Y-5323809D01*
X4852380Y-5247619D01*
X4890476Y-5171428D01*
X4928571Y-5019047D01*
X4928571Y-4904761D01*
X4890476Y-4752380D01*
X4852380Y-4676190D01*
X4776190Y-4600000D01*
X4661904Y-4561904D01*
X4585714Y-4561904D01*
X4471428Y-4600000D01*
X4433333Y-4638095D01*
X3747619Y-4561904D02*
X3900000Y-4561904D01*
X3976190Y-4600000D01*
X4014285Y-4638095D01*
X4090476Y-4752380D01*
X4128571Y-4904761D01*
X4128571Y-5209523D01*
X4090476Y-5285714D01*
X4052380Y-5323809D01*
X3976190Y-5361904D01*
X3823809Y-5361904D01*
X3747619Y-5323809D01*
X3709523Y-5285714D01*
X3671428Y-5209523D01*
X3671428Y-5019047D01*
X3709523Y-4942857D01*
X3747619Y-4904761D01*
X3823809Y-4866666D01*
X3976190Y-4866666D01*
X4052380Y-4904761D01*
X4090476Y-4942857D01*
X4128571Y-5019047D01*
%TO.C,J3*%
X-19546820Y-4292370D02*
X-18832534Y-4292370D01*
X-18689677Y-4244751D01*
X-18594439Y-4149513D01*
X-18546820Y-4006656D01*
X-18546820Y-3911418D01*
X-19546820Y-4673323D02*
X-19546820Y-5292370D01*
X-19165867Y-4959037D01*
X-19165867Y-5101894D01*
X-19118248Y-5197132D01*
X-19070629Y-5244751D01*
X-18975391Y-5292370D01*
X-18737296Y-5292370D01*
X-18642058Y-5244751D01*
X-18594439Y-5197132D01*
X-18546820Y-5101894D01*
X-18546820Y-4816180D01*
X-18594439Y-4720942D01*
X-18642058Y-4673323D01*
%TO.C,C5*%
X-4190567Y1044486D02*
X-4152472Y1006391D01*
X-4038186Y968296D01*
X-3961996Y968296D01*
X-3847710Y1006391D01*
X-3771520Y1082581D01*
X-3733424Y1158772D01*
X-3695329Y1311153D01*
X-3695329Y1425439D01*
X-3733424Y1577820D01*
X-3771520Y1654010D01*
X-3847710Y1730200D01*
X-3961996Y1768296D01*
X-4038186Y1768296D01*
X-4152472Y1730200D01*
X-4190567Y1692105D01*
X-4914377Y1768296D02*
X-4533424Y1768296D01*
X-4495329Y1387343D01*
X-4533424Y1425439D01*
X-4609615Y1463534D01*
X-4800091Y1463534D01*
X-4876281Y1425439D01*
X-4914377Y1387343D01*
X-4952472Y1311153D01*
X-4952472Y1120677D01*
X-4914377Y1044486D01*
X-4876281Y1006391D01*
X-4800091Y968296D01*
X-4609615Y968296D01*
X-4533424Y1006391D01*
X-4495329Y1044486D01*
%TO.C,U1*%
X-12014286Y-3319142D02*
X-12014286Y-4047714D01*
X-12057143Y-4133428D01*
X-12100000Y-4176285D01*
X-12185715Y-4219142D01*
X-12357143Y-4219142D01*
X-12442858Y-4176285D01*
X-12485715Y-4133428D01*
X-12528572Y-4047714D01*
X-12528572Y-3319142D01*
X-13428572Y-4219142D02*
X-12914286Y-4219142D01*
X-13171429Y-4219142D02*
X-13171429Y-3319142D01*
X-13085715Y-3447714D01*
X-13000000Y-3533428D01*
X-12914286Y-3576285D01*
%TO.C,C1*%
X-266667Y4414286D02*
X-228572Y4376191D01*
X-114286Y4338096D01*
X-38096Y4338096D01*
X76190Y4376191D01*
X152380Y4452381D01*
X190476Y4528572D01*
X228571Y4680953D01*
X228571Y4795239D01*
X190476Y4947620D01*
X152380Y5023810D01*
X76190Y5100000D01*
X-38096Y5138096D01*
X-114286Y5138096D01*
X-228572Y5100000D01*
X-266667Y5061905D01*
X-1028572Y4338096D02*
X-571429Y4338096D01*
X-800000Y4338096D02*
X-800000Y5138096D01*
X-723810Y5023810D01*
X-647620Y4947620D01*
X-571429Y4909524D01*
%TO.C,C2*%
X7143733Y4207182D02*
X7181828Y4169087D01*
X7296114Y4130992D01*
X7372304Y4130992D01*
X7486590Y4169087D01*
X7562780Y4245277D01*
X7600876Y4321468D01*
X7638971Y4473849D01*
X7638971Y4588135D01*
X7600876Y4740516D01*
X7562780Y4816706D01*
X7486590Y4892896D01*
X7372304Y4930992D01*
X7296114Y4930992D01*
X7181828Y4892896D01*
X7143733Y4854801D01*
X6838971Y4854801D02*
X6800876Y4892896D01*
X6724685Y4930992D01*
X6534209Y4930992D01*
X6458019Y4892896D01*
X6419923Y4854801D01*
X6381828Y4778611D01*
X6381828Y4702420D01*
X6419923Y4588135D01*
X6877066Y4130992D01*
X6381828Y4130992D01*
%TO.C,D2*%
X2393876Y-5571808D02*
X2393876Y-4771808D01*
X2203400Y-4771808D01*
X2089114Y-4809904D01*
X2012923Y-4886094D01*
X1974828Y-4962284D01*
X1936733Y-5114665D01*
X1936733Y-5228951D01*
X1974828Y-5381332D01*
X2012923Y-5457523D01*
X2089114Y-5533713D01*
X2203400Y-5571808D01*
X2393876Y-5571808D01*
X1631971Y-4847999D02*
X1593876Y-4809904D01*
X1517685Y-4771808D01*
X1327209Y-4771808D01*
X1251019Y-4809904D01*
X1212923Y-4847999D01*
X1174828Y-4924189D01*
X1174828Y-5000380D01*
X1212923Y-5114665D01*
X1670066Y-5571808D01*
X1174828Y-5571808D01*
%TO.C,U2*%
X7717523Y-4336808D02*
X7717523Y-4984427D01*
X7679428Y-5060618D01*
X7641333Y-5098713D01*
X7565142Y-5136808D01*
X7412761Y-5136808D01*
X7336571Y-5098713D01*
X7298476Y-5060618D01*
X7260380Y-4984427D01*
X7260380Y-4336808D01*
X6917523Y-4412999D02*
X6879428Y-4374904D01*
X6803238Y-4336808D01*
X6612761Y-4336808D01*
X6536571Y-4374904D01*
X6498476Y-4412999D01*
X6460380Y-4489189D01*
X6460380Y-4565380D01*
X6498476Y-4679665D01*
X6955619Y-5136808D01*
X6460380Y-5136808D01*
%TO.C,R5*%
X-5966667Y-5461904D02*
X-5700000Y-5080952D01*
X-5509524Y-5461904D02*
X-5509524Y-4661904D01*
X-5814286Y-4661904D01*
X-5890477Y-4700000D01*
X-5928572Y-4738095D01*
X-5966667Y-4814285D01*
X-5966667Y-4928571D01*
X-5928572Y-5004761D01*
X-5890477Y-5042857D01*
X-5814286Y-5080952D01*
X-5509524Y-5080952D01*
X-6690477Y-4661904D02*
X-6309524Y-4661904D01*
X-6271429Y-5042857D01*
X-6309524Y-5004761D01*
X-6385715Y-4966666D01*
X-6576191Y-4966666D01*
X-6652381Y-5004761D01*
X-6690477Y-5042857D01*
X-6728572Y-5119047D01*
X-6728572Y-5309523D01*
X-6690477Y-5385714D01*
X-6652381Y-5423809D01*
X-6576191Y-5461904D01*
X-6385715Y-5461904D01*
X-6309524Y-5423809D01*
X-6271429Y-5385714D01*
%TO.C,D3*%
X-11982524Y-5724208D02*
X-11982524Y-4924208D01*
X-12173000Y-4924208D01*
X-12287286Y-4962304D01*
X-12363477Y-5038494D01*
X-12401572Y-5114684D01*
X-12439667Y-5267065D01*
X-12439667Y-5381351D01*
X-12401572Y-5533732D01*
X-12363477Y-5609923D01*
X-12287286Y-5686113D01*
X-12173000Y-5724208D01*
X-11982524Y-5724208D01*
X-12706334Y-4924208D02*
X-13201572Y-4924208D01*
X-12934905Y-5228970D01*
X-13049191Y-5228970D01*
X-13125381Y-5267065D01*
X-13163477Y-5305161D01*
X-13201572Y-5381351D01*
X-13201572Y-5571827D01*
X-13163477Y-5648018D01*
X-13125381Y-5686113D01*
X-13049191Y-5724208D01*
X-12820620Y-5724208D01*
X-12744429Y-5686113D01*
X-12706334Y-5648018D01*
%TO.C,JP2*%
X2749466Y4041992D02*
X2749466Y3470563D01*
X2787561Y3356277D01*
X2863752Y3280087D01*
X2978038Y3241992D01*
X3054228Y3241992D01*
X2368514Y3241992D02*
X2368514Y4041992D01*
X2063752Y4041992D01*
X1987561Y4003896D01*
X1949466Y3965801D01*
X1911371Y3889611D01*
X1911371Y3775325D01*
X1949466Y3699135D01*
X1987561Y3661039D01*
X2063752Y3622944D01*
X2368514Y3622944D01*
X1606609Y3965801D02*
X1568514Y4003896D01*
X1492323Y4041992D01*
X1301847Y4041992D01*
X1225657Y4003896D01*
X1187561Y3965801D01*
X1149466Y3889611D01*
X1149466Y3813420D01*
X1187561Y3699135D01*
X1644704Y3241992D01*
X1149466Y3241992D01*
D12*
%TO.C,D1*%
X-15686000Y-1616000D02*
X-13836000Y-1616000D01*
X-15686000Y-416000D02*
X-13836000Y-416000D01*
X-13836000Y-416000D02*
X-13836000Y-1616000D01*
%TO.C,R10*%
X-7204742Y6902596D02*
X-7679258Y6902596D01*
X-7204742Y7947596D02*
X-7679258Y7947596D01*
%TO.C,J1*%
X15815000Y2920000D02*
X9815000Y2920000D01*
X9815000Y-2500000D02*
X15815000Y-2500000D01*
X6825000Y-2160000D02*
X7155000Y-2160000D01*
X9815000Y3870000D02*
X9815000Y-3870000D01*
X7155000Y-1270000D02*
X9815000Y-1270000D01*
X7155000Y-3870000D02*
X7155000Y3870000D01*
X9815000Y-2740000D02*
X15815000Y-2740000D01*
X15815000Y380000D02*
X9815000Y380000D01*
X9815000Y-2260000D02*
X15815000Y-2260000D01*
X6825000Y-2920000D02*
X7155000Y-2920000D01*
X6757929Y2160000D02*
X7155000Y2160000D01*
X15815000Y-2160000D02*
X9815000Y-2160000D01*
X7155000Y1270000D02*
X9815000Y1270000D01*
X15815000Y-2920000D02*
X15815000Y-2160000D01*
X4445000Y-3810000D02*
X5715000Y-3810000D01*
X9815000Y-380000D02*
X15815000Y-380000D01*
X9815000Y-3870000D02*
X7155000Y-3870000D01*
X9815000Y-2920000D02*
X15815000Y-2920000D01*
X4445000Y-2540000D02*
X4445000Y-3810000D01*
X6757929Y2920000D02*
X7155000Y2920000D01*
X9815000Y-2620000D02*
X15815000Y-2620000D01*
X9815000Y-2860000D02*
X15815000Y-2860000D01*
X15815000Y2160000D02*
X15815000Y2920000D01*
X7155000Y3870000D02*
X9815000Y3870000D01*
X9815000Y-2380000D02*
X15815000Y-2380000D01*
X6757929Y-380000D02*
X7155000Y-380000D01*
X9815000Y2160000D02*
X15815000Y2160000D01*
X15815000Y-380000D02*
X15815000Y380000D01*
X6757929Y380000D02*
X7155000Y380000D01*
%TO.C,U3*%
X-3542000Y5115096D02*
X-2742000Y5115096D01*
X-3542000Y5115096D02*
X-5342000Y5115096D01*
X-3542000Y8235096D02*
X-2742000Y8235096D01*
X-3542000Y8235096D02*
X-4342000Y8235096D01*
%TO.C,C3*%
X-14845420Y760000D02*
X-15126580Y760000D01*
X-14845420Y1780000D02*
X-15126580Y1780000D01*
%TO.C,C4*%
X-13901420Y6915096D02*
X-14182580Y6915096D01*
X-13901420Y7935096D02*
X-14182580Y7935096D01*
%TO.C,J2*%
X-18178000Y9041096D02*
X-16728000Y9041096D01*
X-20998000Y1841096D02*
X-20998000Y7771096D01*
X-16728000Y2371096D02*
X-15738000Y2371096D01*
X-16728000Y9041096D02*
X-16728000Y7241096D01*
X-18178000Y571096D02*
X-16728000Y571096D01*
X-16728000Y571096D02*
X-16728000Y2371096D01*
%TO.C,R4*%
X-3541500Y-6874742D02*
X-3541500Y-7349258D01*
X-4586500Y-6874742D02*
X-4586500Y-7349258D01*
%TO.C,R1*%
X8273000Y6752160D02*
X8273000Y6298032D01*
X9743000Y6752160D02*
X9743000Y6298032D01*
%TO.C,R2*%
X3837000Y6298032D02*
X3837000Y6752160D01*
X5307000Y6298032D02*
X5307000Y6752160D01*
%TO.C,R3*%
X-10504742Y7947596D02*
X-10979258Y7947596D01*
X-10504742Y6902596D02*
X-10979258Y6902596D01*
%TO.C,C6*%
X3790000Y-6859420D02*
X3790000Y-7140580D01*
X4810000Y-6859420D02*
X4810000Y-7140580D01*
%TO.C,J3*%
X-20998000Y-7733904D02*
X-20998000Y-1803904D01*
X-16728000Y-7203904D02*
X-15738000Y-7203904D01*
X-16728000Y-9003904D02*
X-16728000Y-7203904D01*
X-16728000Y-533904D02*
X-16728000Y-2333904D01*
X-18178000Y-9003904D02*
X-16728000Y-9003904D01*
X-18178000Y-533904D02*
X-16728000Y-533904D01*
%TO.C,C5*%
X-4853400Y3515876D02*
X-4853400Y3234716D01*
X-3833400Y3515876D02*
X-3833400Y3234716D01*
D10*
%TO.C,U1*%
X-13142000Y-3088000D02*
X-13142000Y4612000D01*
X-5442000Y4612000D02*
X-6752000Y4612000D01*
X-11832000Y4612000D02*
X-13142000Y4612000D01*
X-5442000Y-2438000D02*
X-6752000Y-2438000D01*
X-5442000Y-3088000D02*
X-6752000Y-3088000D01*
X-11832000Y-3088000D02*
X-13142000Y-3088000D01*
X-5442000Y-3088000D02*
X-5442000Y4612000D01*
X-11832000Y-2438000D02*
X-13142000Y-2438000D01*
X-6625000Y-1778000D02*
G75*
G03*
X-6625000Y-1778000I-127000J0D01*
G01*
D12*
%TO.C,C1*%
X-802000Y6634516D02*
X-802000Y6915676D01*
X218000Y6634516D02*
X218000Y6915676D01*
%TO.C,C2*%
X7300000Y6384516D02*
X7300000Y6665676D01*
X6280000Y6384516D02*
X6280000Y6665676D01*
%TO.C,U2*%
X5952000Y-7560904D02*
X5952000Y-5660904D01*
X8272000Y-6160904D02*
X8272000Y-7560904D01*
%TO.C,R5*%
X-6618500Y-7349258D02*
X-6618500Y-6874742D01*
X-5573500Y-7349258D02*
X-5573500Y-6874742D01*
%TO.C,JP2*%
X887500Y7825096D02*
X887500Y5025096D01*
X1587500Y4375096D02*
X2187500Y4375096D01*
X3087500Y7625096D02*
X3387500Y7925096D01*
X2887500Y5025096D02*
X2887500Y7825096D01*
X2187500Y8475096D02*
X1587500Y8475096D01*
X3087500Y7625096D02*
X3387500Y7325096D01*
X3387500Y7925096D02*
X3387500Y7325096D01*
X887500Y5075096D02*
G75*
G03*
X1587500Y4375096I700000J0D01*
G01*
X1587500Y8475096D02*
G75*
G03*
X887500Y7775096I-1J-699999D01*
G01*
X2187500Y4375096D02*
G75*
G03*
X2887500Y5075096I0J700000D01*
G01*
X2887500Y7775096D02*
G75*
G03*
X2187500Y8475096I-699999J1D01*
G01*
%TD*%
M02*
