%TF.GenerationSoftware,KiCad,Pcbnew,6.0.4-6f826c9f35~116~ubuntu20.04.1*%
%TF.CreationDate,2022-09-26T12:11:21+00:00*%
%TF.ProjectId,TFRPM01D,54465250-4d30-4314-942e-6b696361645f,rev?*%
%TF.SameCoordinates,PX7e721e0PY7e33658*%
%TF.FileFunction,Profile,NP*%
%FSLAX46Y46*%
G04 Gerber Fmt 4.6, Leading zero omitted, Abs format (unit mm)*
G04 Created by KiCad (PCBNEW 6.0.4-6f826c9f35~116~ubuntu20.04.1) date 2022-09-26 12:11:21*
%MOMM*%
%LPD*%
G01*
G04 APERTURE LIST*
%TA.AperFunction,Profile*%
%ADD10C,0.150000*%
%TD*%
%TA.AperFunction,Profile*%
%ADD11C,0.050000*%
%TD*%
G04 APERTURE END LIST*
D10*
X15910000Y9525000D02*
X15910000Y-9475000D01*
X-21590000Y-9475000D02*
X-21590000Y9525000D01*
X-21590000Y-9475000D02*
X15910000Y-9475000D01*
X-21590000Y9525000D02*
X15910000Y9525000D01*
D11*
%TO.C,D2*%
X-890000Y-8500000D02*
X310000Y-8500000D01*
X-1390000Y-6400000D02*
X-1390000Y-8000000D01*
X-890000Y-5900000D02*
X310000Y-5900000D01*
X810000Y-6400000D02*
X810000Y-8000000D01*
X-890000Y-5900000D02*
G75*
G03*
X-1390000Y-6400000I1J-500001D01*
G01*
X-1390000Y-8000000D02*
G75*
G03*
X-890000Y-8500000I500001J1D01*
G01*
X310000Y-8500000D02*
G75*
G03*
X810000Y-8000000I0J500000D01*
G01*
X810000Y-6400000D02*
G75*
G03*
X310000Y-5900000I-500000J0D01*
G01*
%TO.C,D3*%
X-10890000Y-6066000D02*
X-9690000Y-6066000D01*
X-9190000Y-6566000D02*
X-9190000Y-8166000D01*
X-11390000Y-6566000D02*
X-11390000Y-8166000D01*
X-10890000Y-8666000D02*
X-9690000Y-8666000D01*
X-9690000Y-8666000D02*
G75*
G03*
X-9190000Y-8166000I0J500000D01*
G01*
X-10890000Y-6066000D02*
G75*
G03*
X-11390000Y-6566000I1J-500001D01*
G01*
X-9190000Y-6566000D02*
G75*
G03*
X-9690000Y-6066000I-500000J0D01*
G01*
X-11390000Y-8166000D02*
G75*
G03*
X-10890000Y-8666000I500001J1D01*
G01*
%TD*%
M02*
