G04 #@! TF.GenerationSoftware,KiCad,Pcbnew,(5.99.0-397-g773f45aae)*
G04 #@! TF.CreationDate,2019-12-11T08:39:11+01:00*
G04 #@! TF.ProjectId,TFRPM01A,54465250-4d30-4314-912e-6b696361645f,REV*
G04 #@! TF.SameCoordinates,Original*
G04 #@! TF.FileFunction,Soldermask,Bot*
G04 #@! TF.FilePolarity,Negative*
%FSLAX46Y46*%
G04 Gerber Fmt 4.6, Leading zero omitted, Abs format (unit mm)*
G04 Created by KiCad (PCBNEW (5.99.0-397-g773f45aae)) date 2019-12-11 08:39:11*
%MOMM*%
%LPD*%
G04 APERTURE LIST*
%ADD10O,2.100000X2.100000*%
%ADD11R,2.100000X2.100000*%
%ADD12O,1.009600X3.400000*%
%ADD13R,1.460000X1.050000*%
%ADD14R,0.910000X1.100000*%
%ADD15C,6.400000*%
%ADD16C,3.100000*%
%ADD17R,1.450000X1.900000*%
%ADD18R,1.700000X2.100000*%
%ADD19R,1.797000X1.289000*%
%ADD20R,1.289000X1.797000*%
G04 APERTURE END LIST*
D10*
G04 #@! TO.C,J1*
X138303000Y-129791096D03*
X138303000Y-132331096D03*
D11*
X138303000Y-134871096D03*
G04 #@! TD*
G04 #@! TO.C,C6*
G36*
X137371269Y-138773819D02*
G01*
X137467139Y-138829169D01*
X137538296Y-138913971D01*
X137581000Y-139073346D01*
X137581000Y-139710846D01*
X137561777Y-139819865D01*
X137506427Y-139915735D01*
X137421625Y-139986892D01*
X137262250Y-140029596D01*
X136549750Y-140029596D01*
X136440731Y-140010373D01*
X136344861Y-139955023D01*
X136273704Y-139870221D01*
X136231000Y-139710846D01*
X136231000Y-139073346D01*
X136250223Y-138964327D01*
X136305573Y-138868457D01*
X136390375Y-138797300D01*
X136549750Y-138754596D01*
X137262250Y-138754596D01*
X137371269Y-138773819D01*
G37*
G36*
X137371269Y-140348819D02*
G01*
X137467139Y-140404169D01*
X137538296Y-140488971D01*
X137581000Y-140648346D01*
X137581000Y-141285846D01*
X137561777Y-141394865D01*
X137506427Y-141490735D01*
X137421625Y-141561892D01*
X137262250Y-141604596D01*
X136549750Y-141604596D01*
X136440731Y-141585373D01*
X136344861Y-141530023D01*
X136273704Y-141445221D01*
X136231000Y-141285846D01*
X136231000Y-140648346D01*
X136250223Y-140539327D01*
X136305573Y-140443457D01*
X136390375Y-140372300D01*
X136549750Y-140329596D01*
X137262250Y-140329596D01*
X137371269Y-140348819D01*
G37*
G04 #@! TD*
G04 #@! TO.C,C5*
G36*
X128227269Y-132754319D02*
G01*
X128323139Y-132809669D01*
X128394296Y-132894471D01*
X128437000Y-133053846D01*
X128437000Y-133691346D01*
X128417777Y-133800365D01*
X128362427Y-133896235D01*
X128277625Y-133967392D01*
X128118250Y-134010096D01*
X127405750Y-134010096D01*
X127296731Y-133990873D01*
X127200861Y-133935523D01*
X127129704Y-133850721D01*
X127087000Y-133691346D01*
X127087000Y-133053846D01*
X127106223Y-132944827D01*
X127161573Y-132848957D01*
X127246375Y-132777800D01*
X127405750Y-132735096D01*
X128118250Y-132735096D01*
X128227269Y-132754319D01*
G37*
G36*
X128227269Y-131179319D02*
G01*
X128323139Y-131234669D01*
X128394296Y-131319471D01*
X128437000Y-131478846D01*
X128437000Y-132116346D01*
X128417777Y-132225365D01*
X128362427Y-132321235D01*
X128277625Y-132392392D01*
X128118250Y-132435096D01*
X127405750Y-132435096D01*
X127296731Y-132415873D01*
X127200861Y-132360523D01*
X127129704Y-132275721D01*
X127087000Y-132116346D01*
X127087000Y-131478846D01*
X127106223Y-131369827D01*
X127161573Y-131273957D01*
X127246375Y-131202800D01*
X127405750Y-131160096D01*
X128118250Y-131160096D01*
X128227269Y-131179319D01*
G37*
G04 #@! TD*
G04 #@! TO.C,J3*
G36*
X113507707Y-133007204D02*
G01*
X113612976Y-133067980D01*
X113691109Y-133161096D01*
X113738000Y-133336096D01*
X113738000Y-134036096D01*
X113716892Y-134155803D01*
X113656116Y-134261072D01*
X113563000Y-134339205D01*
X113388000Y-134386096D01*
X110988000Y-134386096D01*
X110868293Y-134364988D01*
X110763024Y-134304212D01*
X110684891Y-134211096D01*
X110638000Y-134036096D01*
X110638000Y-133336096D01*
X110659108Y-133216389D01*
X110719884Y-133111120D01*
X110813000Y-133032987D01*
X110988000Y-132986096D01*
X113388000Y-132986096D01*
X113507707Y-133007204D01*
G37*
G36*
X113507707Y-140457204D02*
G01*
X113612976Y-140517980D01*
X113691109Y-140611096D01*
X113738000Y-140786096D01*
X113738000Y-141486096D01*
X113716892Y-141605803D01*
X113656116Y-141711072D01*
X113563000Y-141789205D01*
X113388000Y-141836096D01*
X110988000Y-141836096D01*
X110868293Y-141814988D01*
X110763024Y-141754212D01*
X110684891Y-141661096D01*
X110638000Y-141486096D01*
X110638000Y-140786096D01*
X110659108Y-140666389D01*
X110719884Y-140561120D01*
X110813000Y-140482987D01*
X110988000Y-140436096D01*
X113388000Y-140436096D01*
X113507707Y-140457204D01*
G37*
G36*
X116283671Y-135055126D02*
G01*
X116364777Y-135109319D01*
X116418970Y-135190425D01*
X116438000Y-135286096D01*
X116438000Y-135786096D01*
X116418970Y-135881767D01*
X116364777Y-135962873D01*
X116283671Y-136017066D01*
X116188000Y-136036096D01*
X114588000Y-136036096D01*
X114492329Y-136017066D01*
X114411223Y-135962873D01*
X114357030Y-135881767D01*
X114338000Y-135786096D01*
X114338000Y-135286096D01*
X114357030Y-135190425D01*
X114411223Y-135109319D01*
X114492329Y-135055126D01*
X114588000Y-135036096D01*
X116188000Y-135036096D01*
X116283671Y-135055126D01*
G37*
G36*
X116283671Y-136305126D02*
G01*
X116364777Y-136359319D01*
X116418970Y-136440425D01*
X116438000Y-136536096D01*
X116438000Y-137036096D01*
X116418970Y-137131767D01*
X116364777Y-137212873D01*
X116283671Y-137267066D01*
X116188000Y-137286096D01*
X114588000Y-137286096D01*
X114492329Y-137267066D01*
X114411223Y-137212873D01*
X114357030Y-137131767D01*
X114338000Y-137036096D01*
X114338000Y-136536096D01*
X114357030Y-136440425D01*
X114411223Y-136359319D01*
X114492329Y-136305126D01*
X114588000Y-136286096D01*
X116188000Y-136286096D01*
X116283671Y-136305126D01*
G37*
G36*
X116283671Y-137555126D02*
G01*
X116364777Y-137609319D01*
X116418970Y-137690425D01*
X116438000Y-137786096D01*
X116438000Y-138286096D01*
X116418970Y-138381767D01*
X116364777Y-138462873D01*
X116283671Y-138517066D01*
X116188000Y-138536096D01*
X114588000Y-138536096D01*
X114492329Y-138517066D01*
X114411223Y-138462873D01*
X114357030Y-138381767D01*
X114338000Y-138286096D01*
X114338000Y-137786096D01*
X114357030Y-137690425D01*
X114411223Y-137609319D01*
X114492329Y-137555126D01*
X114588000Y-137536096D01*
X116188000Y-137536096D01*
X116283671Y-137555126D01*
G37*
G36*
X116283671Y-138805126D02*
G01*
X116364777Y-138859319D01*
X116418970Y-138940425D01*
X116438000Y-139036096D01*
X116438000Y-139536096D01*
X116418970Y-139631767D01*
X116364777Y-139712873D01*
X116283671Y-139767066D01*
X116188000Y-139786096D01*
X114588000Y-139786096D01*
X114492329Y-139767066D01*
X114411223Y-139712873D01*
X114357030Y-139631767D01*
X114338000Y-139536096D01*
X114338000Y-139036096D01*
X114357030Y-138940425D01*
X114411223Y-138859319D01*
X114492329Y-138805126D01*
X114588000Y-138786096D01*
X116188000Y-138786096D01*
X116283671Y-138805126D01*
G37*
G04 #@! TD*
D12*
G04 #@! TO.C,U1*
X126238000Y-139745096D03*
X124968000Y-139745096D03*
X123698000Y-139745096D03*
X122423000Y-139721096D03*
X122428000Y-132577096D03*
X123698000Y-132577096D03*
X124968000Y-132577096D03*
X126238000Y-132577096D03*
G04 #@! TD*
D13*
G04 #@! TO.C,U3*
X126873000Y-126296096D03*
X126873000Y-124396096D03*
X124673000Y-124396096D03*
X124673000Y-125346096D03*
X124673000Y-126296096D03*
G04 #@! TD*
D14*
G04 #@! TO.C,U2*
X138750000Y-140857096D03*
X140650000Y-140857096D03*
X140650000Y-138537096D03*
X139700000Y-138537096D03*
X138750000Y-138537096D03*
G04 #@! TD*
G04 #@! TO.C,R10*
G36*
X136520769Y-125325319D02*
G01*
X136616639Y-125380669D01*
X136687796Y-125465471D01*
X136730500Y-125624846D01*
X136730500Y-126337346D01*
X136711277Y-126446365D01*
X136655927Y-126542235D01*
X136571125Y-126613392D01*
X136411750Y-126656096D01*
X135774250Y-126656096D01*
X135665231Y-126636873D01*
X135569361Y-126581523D01*
X135498204Y-126496721D01*
X135455500Y-126337346D01*
X135455500Y-125624846D01*
X135474723Y-125515827D01*
X135530073Y-125419957D01*
X135614875Y-125348800D01*
X135774250Y-125306096D01*
X136411750Y-125306096D01*
X136520769Y-125325319D01*
G37*
G36*
X138095769Y-125325319D02*
G01*
X138191639Y-125380669D01*
X138262796Y-125465471D01*
X138305500Y-125624846D01*
X138305500Y-126337346D01*
X138286277Y-126446365D01*
X138230927Y-126542235D01*
X138146125Y-126613392D01*
X137986750Y-126656096D01*
X137349250Y-126656096D01*
X137240231Y-126636873D01*
X137144361Y-126581523D01*
X137073204Y-126496721D01*
X137030500Y-126337346D01*
X137030500Y-125624846D01*
X137049723Y-125515827D01*
X137105073Y-125419957D01*
X137189875Y-125348800D01*
X137349250Y-125306096D01*
X137986750Y-125306096D01*
X138095769Y-125325319D01*
G37*
G04 #@! TD*
G04 #@! TO.C,R8*
G36*
X133015769Y-125325319D02*
G01*
X133111639Y-125380669D01*
X133182796Y-125465471D01*
X133225500Y-125624846D01*
X133225500Y-126337346D01*
X133206277Y-126446365D01*
X133150927Y-126542235D01*
X133066125Y-126613392D01*
X132906750Y-126656096D01*
X132269250Y-126656096D01*
X132160231Y-126636873D01*
X132064361Y-126581523D01*
X131993204Y-126496721D01*
X131950500Y-126337346D01*
X131950500Y-125624846D01*
X131969723Y-125515827D01*
X132025073Y-125419957D01*
X132109875Y-125348800D01*
X132269250Y-125306096D01*
X132906750Y-125306096D01*
X133015769Y-125325319D01*
G37*
G36*
X131440769Y-125325319D02*
G01*
X131536639Y-125380669D01*
X131607796Y-125465471D01*
X131650500Y-125624846D01*
X131650500Y-126337346D01*
X131631277Y-126446365D01*
X131575927Y-126542235D01*
X131491125Y-126613392D01*
X131331750Y-126656096D01*
X130694250Y-126656096D01*
X130585231Y-126636873D01*
X130489361Y-126581523D01*
X130418204Y-126496721D01*
X130375500Y-126337346D01*
X130375500Y-125624846D01*
X130394723Y-125515827D01*
X130450073Y-125419957D01*
X130534875Y-125348800D01*
X130694250Y-125306096D01*
X131331750Y-125306096D01*
X131440769Y-125325319D01*
G37*
G04 #@! TD*
G04 #@! TO.C,R7*
G36*
X128164269Y-135485319D02*
G01*
X128260139Y-135540669D01*
X128331296Y-135625471D01*
X128374000Y-135784846D01*
X128374000Y-136497346D01*
X128354777Y-136606365D01*
X128299427Y-136702235D01*
X128214625Y-136773392D01*
X128055250Y-136816096D01*
X127417750Y-136816096D01*
X127308731Y-136796873D01*
X127212861Y-136741523D01*
X127141704Y-136656721D01*
X127099000Y-136497346D01*
X127099000Y-135784846D01*
X127118223Y-135675827D01*
X127173573Y-135579957D01*
X127258375Y-135508800D01*
X127417750Y-135466096D01*
X128055250Y-135466096D01*
X128164269Y-135485319D01*
G37*
G36*
X129739269Y-135485319D02*
G01*
X129835139Y-135540669D01*
X129906296Y-135625471D01*
X129949000Y-135784846D01*
X129949000Y-136497346D01*
X129929777Y-136606365D01*
X129874427Y-136702235D01*
X129789625Y-136773392D01*
X129630250Y-136816096D01*
X128992750Y-136816096D01*
X128883731Y-136796873D01*
X128787861Y-136741523D01*
X128716704Y-136656721D01*
X128674000Y-136497346D01*
X128674000Y-135784846D01*
X128693223Y-135675827D01*
X128748573Y-135579957D01*
X128833375Y-135508800D01*
X128992750Y-135466096D01*
X129630250Y-135466096D01*
X129739269Y-135485319D01*
G37*
G04 #@! TD*
G04 #@! TO.C,R6*
G36*
X133015769Y-123420319D02*
G01*
X133111639Y-123475669D01*
X133182796Y-123560471D01*
X133225500Y-123719846D01*
X133225500Y-124432346D01*
X133206277Y-124541365D01*
X133150927Y-124637235D01*
X133066125Y-124708392D01*
X132906750Y-124751096D01*
X132269250Y-124751096D01*
X132160231Y-124731873D01*
X132064361Y-124676523D01*
X131993204Y-124591721D01*
X131950500Y-124432346D01*
X131950500Y-123719846D01*
X131969723Y-123610827D01*
X132025073Y-123514957D01*
X132109875Y-123443800D01*
X132269250Y-123401096D01*
X132906750Y-123401096D01*
X133015769Y-123420319D01*
G37*
G36*
X131440769Y-123420319D02*
G01*
X131536639Y-123475669D01*
X131607796Y-123560471D01*
X131650500Y-123719846D01*
X131650500Y-124432346D01*
X131631277Y-124541365D01*
X131575927Y-124637235D01*
X131491125Y-124708392D01*
X131331750Y-124751096D01*
X130694250Y-124751096D01*
X130585231Y-124731873D01*
X130489361Y-124676523D01*
X130418204Y-124591721D01*
X130375500Y-124432346D01*
X130375500Y-123719846D01*
X130394723Y-123610827D01*
X130450073Y-123514957D01*
X130534875Y-123443800D01*
X130694250Y-123401096D01*
X131331750Y-123401096D01*
X131440769Y-123420319D01*
G37*
G04 #@! TD*
G04 #@! TO.C,R5*
G36*
X121115269Y-140348819D02*
G01*
X121211139Y-140404169D01*
X121282296Y-140488971D01*
X121325000Y-140648346D01*
X121325000Y-141285846D01*
X121305777Y-141394865D01*
X121250427Y-141490735D01*
X121165625Y-141561892D01*
X121006250Y-141604596D01*
X120293750Y-141604596D01*
X120184731Y-141585373D01*
X120088861Y-141530023D01*
X120017704Y-141445221D01*
X119975000Y-141285846D01*
X119975000Y-140648346D01*
X119994223Y-140539327D01*
X120049573Y-140443457D01*
X120134375Y-140372300D01*
X120293750Y-140329596D01*
X121006250Y-140329596D01*
X121115269Y-140348819D01*
G37*
G36*
X121115269Y-138773819D02*
G01*
X121211139Y-138829169D01*
X121282296Y-138913971D01*
X121325000Y-139073346D01*
X121325000Y-139710846D01*
X121305777Y-139819865D01*
X121250427Y-139915735D01*
X121165625Y-139986892D01*
X121006250Y-140029596D01*
X120293750Y-140029596D01*
X120184731Y-140010373D01*
X120088861Y-139955023D01*
X120017704Y-139870221D01*
X119975000Y-139710846D01*
X119975000Y-139073346D01*
X119994223Y-138964327D01*
X120049573Y-138868457D01*
X120134375Y-138797300D01*
X120293750Y-138754596D01*
X121006250Y-138754596D01*
X121115269Y-138773819D01*
G37*
G04 #@! TD*
G04 #@! TO.C,R4*
G36*
X129764769Y-139041319D02*
G01*
X129860639Y-139096669D01*
X129931796Y-139181471D01*
X129974500Y-139340846D01*
X129974500Y-140053346D01*
X129955277Y-140162365D01*
X129899927Y-140258235D01*
X129815125Y-140329392D01*
X129655750Y-140372096D01*
X129018250Y-140372096D01*
X128909231Y-140352873D01*
X128813361Y-140297523D01*
X128742204Y-140212721D01*
X128699500Y-140053346D01*
X128699500Y-139340846D01*
X128718723Y-139231827D01*
X128774073Y-139135957D01*
X128858875Y-139064800D01*
X129018250Y-139022096D01*
X129655750Y-139022096D01*
X129764769Y-139041319D01*
G37*
G36*
X128189769Y-139041319D02*
G01*
X128285639Y-139096669D01*
X128356796Y-139181471D01*
X128399500Y-139340846D01*
X128399500Y-140053346D01*
X128380277Y-140162365D01*
X128324927Y-140258235D01*
X128240125Y-140329392D01*
X128080750Y-140372096D01*
X127443250Y-140372096D01*
X127334231Y-140352873D01*
X127238361Y-140297523D01*
X127167204Y-140212721D01*
X127124500Y-140053346D01*
X127124500Y-139340846D01*
X127143723Y-139231827D01*
X127199073Y-139135957D01*
X127283875Y-139064800D01*
X127443250Y-139022096D01*
X128080750Y-139022096D01*
X128189769Y-139041319D01*
G37*
G04 #@! TD*
G04 #@! TO.C,R3*
G36*
X122258269Y-129172819D02*
G01*
X122354139Y-129228169D01*
X122425296Y-129312971D01*
X122468000Y-129472346D01*
X122468000Y-130109846D01*
X122448777Y-130218865D01*
X122393427Y-130314735D01*
X122308625Y-130385892D01*
X122149250Y-130428596D01*
X121436750Y-130428596D01*
X121327731Y-130409373D01*
X121231861Y-130354023D01*
X121160704Y-130269221D01*
X121118000Y-130109846D01*
X121118000Y-129472346D01*
X121137223Y-129363327D01*
X121192573Y-129267457D01*
X121277375Y-129196300D01*
X121436750Y-129153596D01*
X122149250Y-129153596D01*
X122258269Y-129172819D01*
G37*
G36*
X122258269Y-127597819D02*
G01*
X122354139Y-127653169D01*
X122425296Y-127737971D01*
X122468000Y-127897346D01*
X122468000Y-128534846D01*
X122448777Y-128643865D01*
X122393427Y-128739735D01*
X122308625Y-128810892D01*
X122149250Y-128853596D01*
X121436750Y-128853596D01*
X121327731Y-128834373D01*
X121231861Y-128779023D01*
X121160704Y-128694221D01*
X121118000Y-128534846D01*
X121118000Y-127897346D01*
X121137223Y-127788327D01*
X121192573Y-127692457D01*
X121277375Y-127621300D01*
X121436750Y-127578596D01*
X122149250Y-127578596D01*
X122258269Y-127597819D01*
G37*
G04 #@! TD*
G04 #@! TO.C,R2*
G36*
X124163269Y-129172819D02*
G01*
X124259139Y-129228169D01*
X124330296Y-129312971D01*
X124373000Y-129472346D01*
X124373000Y-130109846D01*
X124353777Y-130218865D01*
X124298427Y-130314735D01*
X124213625Y-130385892D01*
X124054250Y-130428596D01*
X123341750Y-130428596D01*
X123232731Y-130409373D01*
X123136861Y-130354023D01*
X123065704Y-130269221D01*
X123023000Y-130109846D01*
X123023000Y-129472346D01*
X123042223Y-129363327D01*
X123097573Y-129267457D01*
X123182375Y-129196300D01*
X123341750Y-129153596D01*
X124054250Y-129153596D01*
X124163269Y-129172819D01*
G37*
G36*
X124163269Y-127597819D02*
G01*
X124259139Y-127653169D01*
X124330296Y-127737971D01*
X124373000Y-127897346D01*
X124373000Y-128534846D01*
X124353777Y-128643865D01*
X124298427Y-128739735D01*
X124213625Y-128810892D01*
X124054250Y-128853596D01*
X123341750Y-128853596D01*
X123232731Y-128834373D01*
X123136861Y-128779023D01*
X123065704Y-128694221D01*
X123023000Y-128534846D01*
X123023000Y-127897346D01*
X123042223Y-127788327D01*
X123097573Y-127692457D01*
X123182375Y-127621300D01*
X123341750Y-127578596D01*
X124054250Y-127578596D01*
X124163269Y-127597819D01*
G37*
G04 #@! TD*
G04 #@! TO.C,R1*
G36*
X138095769Y-123293319D02*
G01*
X138191639Y-123348669D01*
X138262796Y-123433471D01*
X138305500Y-123592846D01*
X138305500Y-124305346D01*
X138286277Y-124414365D01*
X138230927Y-124510235D01*
X138146125Y-124581392D01*
X137986750Y-124624096D01*
X137349250Y-124624096D01*
X137240231Y-124604873D01*
X137144361Y-124549523D01*
X137073204Y-124464721D01*
X137030500Y-124305346D01*
X137030500Y-123592846D01*
X137049723Y-123483827D01*
X137105073Y-123387957D01*
X137189875Y-123316800D01*
X137349250Y-123274096D01*
X137986750Y-123274096D01*
X138095769Y-123293319D01*
G37*
G36*
X136520769Y-123293319D02*
G01*
X136616639Y-123348669D01*
X136687796Y-123433471D01*
X136730500Y-123592846D01*
X136730500Y-124305346D01*
X136711277Y-124414365D01*
X136655927Y-124510235D01*
X136571125Y-124581392D01*
X136411750Y-124624096D01*
X135774250Y-124624096D01*
X135665231Y-124604873D01*
X135569361Y-124549523D01*
X135498204Y-124464721D01*
X135455500Y-124305346D01*
X135455500Y-123592846D01*
X135474723Y-123483827D01*
X135530073Y-123387957D01*
X135614875Y-123316800D01*
X135774250Y-123274096D01*
X136411750Y-123274096D01*
X136520769Y-123293319D01*
G37*
G04 #@! TD*
D15*
G04 #@! TO.C,Me*
X132588000Y-132331096D03*
G04 #@! TD*
G04 #@! TO.C,J2*
G36*
X113507707Y-122847204D02*
G01*
X113612976Y-122907980D01*
X113691109Y-123001096D01*
X113738000Y-123176096D01*
X113738000Y-123876096D01*
X113716892Y-123995803D01*
X113656116Y-124101072D01*
X113563000Y-124179205D01*
X113388000Y-124226096D01*
X110988000Y-124226096D01*
X110868293Y-124204988D01*
X110763024Y-124144212D01*
X110684891Y-124051096D01*
X110638000Y-123876096D01*
X110638000Y-123176096D01*
X110659108Y-123056389D01*
X110719884Y-122951120D01*
X110813000Y-122872987D01*
X110988000Y-122826096D01*
X113388000Y-122826096D01*
X113507707Y-122847204D01*
G37*
G36*
X113507707Y-130297204D02*
G01*
X113612976Y-130357980D01*
X113691109Y-130451096D01*
X113738000Y-130626096D01*
X113738000Y-131326096D01*
X113716892Y-131445803D01*
X113656116Y-131551072D01*
X113563000Y-131629205D01*
X113388000Y-131676096D01*
X110988000Y-131676096D01*
X110868293Y-131654988D01*
X110763024Y-131594212D01*
X110684891Y-131501096D01*
X110638000Y-131326096D01*
X110638000Y-130626096D01*
X110659108Y-130506389D01*
X110719884Y-130401120D01*
X110813000Y-130322987D01*
X110988000Y-130276096D01*
X113388000Y-130276096D01*
X113507707Y-130297204D01*
G37*
G36*
X116283671Y-124895126D02*
G01*
X116364777Y-124949319D01*
X116418970Y-125030425D01*
X116438000Y-125126096D01*
X116438000Y-125626096D01*
X116418970Y-125721767D01*
X116364777Y-125802873D01*
X116283671Y-125857066D01*
X116188000Y-125876096D01*
X114588000Y-125876096D01*
X114492329Y-125857066D01*
X114411223Y-125802873D01*
X114357030Y-125721767D01*
X114338000Y-125626096D01*
X114338000Y-125126096D01*
X114357030Y-125030425D01*
X114411223Y-124949319D01*
X114492329Y-124895126D01*
X114588000Y-124876096D01*
X116188000Y-124876096D01*
X116283671Y-124895126D01*
G37*
G36*
X116283671Y-126145126D02*
G01*
X116364777Y-126199319D01*
X116418970Y-126280425D01*
X116438000Y-126376096D01*
X116438000Y-126876096D01*
X116418970Y-126971767D01*
X116364777Y-127052873D01*
X116283671Y-127107066D01*
X116188000Y-127126096D01*
X114588000Y-127126096D01*
X114492329Y-127107066D01*
X114411223Y-127052873D01*
X114357030Y-126971767D01*
X114338000Y-126876096D01*
X114338000Y-126376096D01*
X114357030Y-126280425D01*
X114411223Y-126199319D01*
X114492329Y-126145126D01*
X114588000Y-126126096D01*
X116188000Y-126126096D01*
X116283671Y-126145126D01*
G37*
G36*
X116283671Y-127395126D02*
G01*
X116364777Y-127449319D01*
X116418970Y-127530425D01*
X116438000Y-127626096D01*
X116438000Y-128126096D01*
X116418970Y-128221767D01*
X116364777Y-128302873D01*
X116283671Y-128357066D01*
X116188000Y-128376096D01*
X114588000Y-128376096D01*
X114492329Y-128357066D01*
X114411223Y-128302873D01*
X114357030Y-128221767D01*
X114338000Y-128126096D01*
X114338000Y-127626096D01*
X114357030Y-127530425D01*
X114411223Y-127449319D01*
X114492329Y-127395126D01*
X114588000Y-127376096D01*
X116188000Y-127376096D01*
X116283671Y-127395126D01*
G37*
G36*
X116283671Y-128645126D02*
G01*
X116364777Y-128699319D01*
X116418970Y-128780425D01*
X116438000Y-128876096D01*
X116438000Y-129376096D01*
X116418970Y-129471767D01*
X116364777Y-129552873D01*
X116283671Y-129607066D01*
X116188000Y-129626096D01*
X114588000Y-129626096D01*
X114492329Y-129607066D01*
X114411223Y-129552873D01*
X114357030Y-129471767D01*
X114338000Y-129376096D01*
X114338000Y-128876096D01*
X114357030Y-128780425D01*
X114411223Y-128699319D01*
X114492329Y-128645126D01*
X114588000Y-128626096D01*
X116188000Y-128626096D01*
X116283671Y-128645126D01*
G37*
G04 #@! TD*
D16*
G04 #@! TO.C,D2*
X132874000Y-139697096D03*
D17*
X134874000Y-139697096D03*
X130874000Y-139697096D03*
G04 #@! TD*
D18*
G04 #@! TO.C,D1*
X116868000Y-132331096D03*
X120368000Y-132331096D03*
G04 #@! TD*
G04 #@! TO.C,C4*
G36*
X122258269Y-123940319D02*
G01*
X122354139Y-123995669D01*
X122425296Y-124080471D01*
X122468000Y-124239846D01*
X122468000Y-124877346D01*
X122448777Y-124986365D01*
X122393427Y-125082235D01*
X122308625Y-125153392D01*
X122149250Y-125196096D01*
X121436750Y-125196096D01*
X121327731Y-125176873D01*
X121231861Y-125121523D01*
X121160704Y-125036721D01*
X121118000Y-124877346D01*
X121118000Y-124239846D01*
X121137223Y-124130827D01*
X121192573Y-124034957D01*
X121277375Y-123963800D01*
X121436750Y-123921096D01*
X122149250Y-123921096D01*
X122258269Y-123940319D01*
G37*
G36*
X122258269Y-125515319D02*
G01*
X122354139Y-125570669D01*
X122425296Y-125655471D01*
X122468000Y-125814846D01*
X122468000Y-126452346D01*
X122448777Y-126561365D01*
X122393427Y-126657235D01*
X122308625Y-126728392D01*
X122149250Y-126771096D01*
X121436750Y-126771096D01*
X121327731Y-126751873D01*
X121231861Y-126696523D01*
X121160704Y-126611721D01*
X121118000Y-126452346D01*
X121118000Y-125814846D01*
X121137223Y-125705827D01*
X121192573Y-125609957D01*
X121277375Y-125538800D01*
X121436750Y-125496096D01*
X122149250Y-125496096D01*
X122258269Y-125515319D01*
G37*
G04 #@! TD*
D19*
G04 #@! TO.C,C3*
X119253000Y-126616096D03*
X119253000Y-124711096D03*
G04 #@! TD*
D20*
G04 #@! TO.C,C2*
X141224000Y-127251096D03*
X139319000Y-127251096D03*
G04 #@! TD*
G04 #@! TO.C,C1*
G36*
X129243269Y-125057819D02*
G01*
X129339139Y-125113169D01*
X129410296Y-125197971D01*
X129453000Y-125357346D01*
X129453000Y-125994846D01*
X129433777Y-126103865D01*
X129378427Y-126199735D01*
X129293625Y-126270892D01*
X129134250Y-126313596D01*
X128421750Y-126313596D01*
X128312731Y-126294373D01*
X128216861Y-126239023D01*
X128145704Y-126154221D01*
X128103000Y-125994846D01*
X128103000Y-125357346D01*
X128122223Y-125248327D01*
X128177573Y-125152457D01*
X128262375Y-125081300D01*
X128421750Y-125038596D01*
X129134250Y-125038596D01*
X129243269Y-125057819D01*
G37*
G36*
X129243269Y-126632819D02*
G01*
X129339139Y-126688169D01*
X129410296Y-126772971D01*
X129453000Y-126932346D01*
X129453000Y-127569846D01*
X129433777Y-127678865D01*
X129378427Y-127774735D01*
X129293625Y-127845892D01*
X129134250Y-127888596D01*
X128421750Y-127888596D01*
X128312731Y-127869373D01*
X128216861Y-127814023D01*
X128145704Y-127729221D01*
X128103000Y-127569846D01*
X128103000Y-126932346D01*
X128122223Y-126823327D01*
X128177573Y-126727457D01*
X128262375Y-126656300D01*
X128421750Y-126613596D01*
X129134250Y-126613596D01*
X129243269Y-126632819D01*
G37*
G04 #@! TD*
M02*
