M48
; DRILL file {KiCad 6.0.11+dfsg-1~bpo11+1} date Sun May  7 20:12:30 2023
; FORMAT={3:3/ absolute / metric / suppress leading zeros}
; #@! TF.CreationDate,2023-05-07T20:12:30+00:00
; #@! TF.GenerationSoftware,Kicad,Pcbnew,6.0.11+dfsg-1~bpo11+1
; #@! TF.FileFunction,Plated,1,2,PTH
FMAT,2
METRIC,TZ
; #@! TA.AperFunction,Plated,PTH,ViaDrill
T1C0.400
; #@! TA.AperFunction,Plated,PTH,ComponentDrill
T2C1.000
; #@! TA.AperFunction,Plated,PTH,ComponentDrill
T3C3.000
%
G90
G05
T1
X-20320Y6350
X-20320Y5334
X-20320Y4318
X-20320Y3302
X-20320Y-3302
X-20320Y-4318
X-20320Y-5334
X-20320Y-6350
X-18642Y6975
X-18085Y5407
X-17526Y8506
X-17272Y-8382
X-17018Y1270
X-17018Y0
X-17018Y-1270
X-16256Y8506
X-15100Y-2600
X-14224Y254
X-13716Y-5842
X-12792Y6325
X-12700Y1267
X-12700Y-511
X-12522Y8506
X-12192Y3807
X-12192Y-8385
X-11688Y2481
X-11176Y1270
X-8636Y2794
X-8534Y-1705
X-7900Y-5600
X-7620Y-8385
X-7366Y2540
X-5867Y-4042
X-5080Y-7100
X-4188Y331
X-4188Y-1369
X-3541Y-3033
X-3404Y6706
X-2540Y-8385
X-2286Y3807
X-1923Y-5419
X-1270Y8382
X-400Y3700
X2286Y-8382
X2870Y-5337
X3008Y-2375
X3100Y7600
X3810Y-3302
X3812Y3131
X3812Y1431
X5842Y4318
X6096Y-4572
X10312Y-5069
X11412Y8268
X11412Y7125
X11412Y6112
X11412Y5096
X11412Y-1171
X11412Y-3953
X11412Y-5057
X11412Y-6161
X11412Y-7265
X11412Y-8369
T2
X5715Y2540
X5715Y0
X5715Y-2540
T3
X0Y0
T0
M30
