G04 #@! TF.GenerationSoftware,KiCad,Pcbnew,(5.99.0-397-g773f45aae)*
G04 #@! TF.CreationDate,2019-12-11T08:39:11+01:00*
G04 #@! TF.ProjectId,TFRPM01A,54465250-4d30-4314-912e-6b696361645f,REV*
G04 #@! TF.SameCoordinates,Original*
G04 #@! TF.FileFunction,Copper,L1,Top*
G04 #@! TF.FilePolarity,Positive*
%FSLAX46Y46*%
G04 Gerber Fmt 4.6, Leading zero omitted, Abs format (unit mm)*
G04 Created by KiCad (PCBNEW (5.99.0-397-g773f45aae)) date 2019-12-11 08:39:11*
%MOMM*%
%LPD*%
G04 APERTURE LIST*
G04 #@! TA.AperFunction,NonConductor*
%ADD10C,0.300000*%
G04 #@! TD*
G04 #@! TA.AperFunction,ComponentPad*
%ADD11O,1.700000X1.700000*%
G04 #@! TD*
G04 #@! TA.AperFunction,ComponentPad*
%ADD12R,1.700000X1.700000*%
G04 #@! TD*
G04 #@! TA.AperFunction,ComponentPad*
%ADD13C,6.000000*%
G04 #@! TD*
G04 #@! TA.AperFunction,ViaPad*
%ADD14C,0.800000*%
G04 #@! TD*
G04 #@! TA.AperFunction,Conductor*
%ADD15C,0.500000*%
G04 #@! TD*
G04 #@! TA.AperFunction,Conductor*
%ADD16C,0.254000*%
G04 #@! TD*
G04 APERTURE END LIST*
D10*
X145736571Y-139798285D02*
X145736571Y-138941142D01*
X147236571Y-139369714D02*
X145736571Y-139369714D01*
X147236571Y-138441142D02*
X145736571Y-138441142D01*
X147236571Y-137798285D02*
X146450857Y-137798285D01*
X146308000Y-137869714D01*
X146236571Y-138012571D01*
X146236571Y-138226857D01*
X146308000Y-138369714D01*
X146379428Y-138441142D01*
X146236571Y-136441142D02*
X147236571Y-136441142D01*
X146236571Y-137084000D02*
X147022285Y-137084000D01*
X147165142Y-137012571D01*
X147236571Y-136869714D01*
X147236571Y-136655428D01*
X147165142Y-136512571D01*
X147093714Y-136441142D01*
X146236571Y-135726857D02*
X147236571Y-135726857D01*
X146379428Y-135726857D02*
X146308000Y-135655428D01*
X146236571Y-135512571D01*
X146236571Y-135298285D01*
X146308000Y-135155428D01*
X146450857Y-135084000D01*
X147236571Y-135084000D01*
X147236571Y-133726857D02*
X145736571Y-133726857D01*
X147165142Y-133726857D02*
X147236571Y-133869714D01*
X147236571Y-134155428D01*
X147165142Y-134298285D01*
X147093714Y-134369714D01*
X146950857Y-134441142D01*
X146522285Y-134441142D01*
X146379428Y-134369714D01*
X146308000Y-134298285D01*
X146236571Y-134155428D01*
X146236571Y-133869714D01*
X146308000Y-133726857D01*
X147165142Y-132441142D02*
X147236571Y-132584000D01*
X147236571Y-132869714D01*
X147165142Y-133012571D01*
X147022285Y-133084000D01*
X146450857Y-133084000D01*
X146308000Y-133012571D01*
X146236571Y-132869714D01*
X146236571Y-132584000D01*
X146308000Y-132441142D01*
X146450857Y-132369714D01*
X146593714Y-132369714D01*
X146736571Y-133084000D01*
X147236571Y-131726857D02*
X146236571Y-131726857D01*
X146522285Y-131726857D02*
X146379428Y-131655428D01*
X146308000Y-131584000D01*
X146236571Y-131441142D01*
X146236571Y-131298285D01*
X146450857Y-130298285D02*
X146450857Y-130798285D01*
X147236571Y-130798285D02*
X145736571Y-130798285D01*
X145736571Y-130084000D01*
X147236571Y-129298285D02*
X147165142Y-129441142D01*
X147022285Y-129512571D01*
X145736571Y-129512571D01*
X146236571Y-128869714D02*
X147236571Y-128512571D01*
X146236571Y-128155428D02*
X147236571Y-128512571D01*
X147593714Y-128655428D01*
X147665142Y-128726857D01*
X147736571Y-128869714D01*
X147093714Y-127584000D02*
X147165142Y-127512571D01*
X147236571Y-127584000D01*
X147165142Y-127655428D01*
X147093714Y-127584000D01*
X147236571Y-127584000D01*
X147165142Y-126226857D02*
X147236571Y-126369714D01*
X147236571Y-126655428D01*
X147165142Y-126798285D01*
X147093714Y-126869714D01*
X146950857Y-126941142D01*
X146522285Y-126941142D01*
X146379428Y-126869714D01*
X146308000Y-126798285D01*
X146236571Y-126655428D01*
X146236571Y-126369714D01*
X146308000Y-126226857D01*
X146236571Y-125726857D02*
X146236571Y-124941142D01*
X147236571Y-125726857D01*
X147236571Y-124941142D01*
D11*
G04 #@! TO.P,J1,3*
G04 #@! TO.N,GND*
X138303000Y-129791096D03*
G04 #@! TO.P,J1,2*
G04 #@! TO.N,Net-(C2-Pad1)*
X138303000Y-132331096D03*
D12*
G04 #@! TO.P,J1,1*
G04 #@! TO.N,/COUNT*
X138303000Y-134871096D03*
G04 #@! TD*
D13*
G04 #@! TO.P,Me,1*
G04 #@! TO.N,GND*
X132588000Y-132331096D03*
G04 #@! TD*
D14*
G04 #@! TO.N,/SDA*
X117221000Y-126616096D03*
X117221000Y-136776096D03*
G04 #@! TO.N,Net-(R5-Pad1)*
X123698000Y-137411096D03*
X119380000Y-139443096D03*
G04 #@! TO.N,+5V*
X117094000Y-139443096D03*
X118618000Y-132331096D03*
G04 #@! TO.N,+3V3*
X135890000Y-140967096D03*
X135636000Y-136141096D03*
G04 #@! TO.N,GND*
X118618000Y-140713096D03*
X117094000Y-140713096D03*
X115316000Y-140713096D03*
X124968000Y-135633096D03*
X126238000Y-135633096D03*
X127508000Y-138173096D03*
X128270000Y-137411096D03*
X112268000Y-135633096D03*
X112268000Y-136649096D03*
X112268000Y-137665096D03*
X112268000Y-138681096D03*
X112268000Y-129029096D03*
X112268000Y-128013096D03*
X112268000Y-126997096D03*
X112268000Y-125981096D03*
X120142000Y-134363096D03*
X117094000Y-123695096D03*
X126746000Y-128267096D03*
X127762000Y-129029096D03*
X127762000Y-130299096D03*
G04 #@! TO.N,+5V*
X123383000Y-126296096D03*
X130048000Y-124965096D03*
G04 #@! TO.N,GND*
X133858000Y-124965096D03*
X134874000Y-124965096D03*
X138938000Y-124965096D03*
X140208000Y-124965096D03*
X134620000Y-127759096D03*
X135636000Y-127759096D03*
X136652000Y-127759096D03*
X137668000Y-127759096D03*
X136652000Y-128775096D03*
X135636000Y-128775096D03*
X138176000Y-136903096D03*
X143764000Y-140967096D03*
X143764000Y-139951096D03*
X143764000Y-138935096D03*
X143002000Y-134109096D03*
X143002000Y-135382000D03*
X143002000Y-136652000D03*
X121666000Y-140967096D03*
X137806906Y-140061793D03*
X119634000Y-129286000D03*
X120396000Y-128524000D03*
X120396000Y-130048000D03*
X141986000Y-138938000D03*
X115316000Y-130807096D03*
X115316000Y-132331096D03*
X115316000Y-133855096D03*
G04 #@! TD*
D15*
G04 #@! TO.N,/SDA*
X117221000Y-126616096D02*
X117221000Y-136776096D01*
G04 #@! TO.N,Net-(R5-Pad1)*
X123698000Y-137411096D02*
X121412000Y-137411096D01*
X121412000Y-137411096D02*
X119380000Y-139443096D01*
G04 #@! TO.N,+5V*
X117094000Y-139443096D02*
X118618000Y-137919096D01*
X118618000Y-137919096D02*
X118618000Y-132331096D01*
G04 #@! TO.N,+3V3*
X135890000Y-140967096D02*
X135890000Y-136395096D01*
X135890000Y-136395096D02*
X135636000Y-136141096D01*
G04 #@! TO.N,+5V*
X123383000Y-126296096D02*
X128717000Y-126296096D01*
X128717000Y-126296096D02*
X130048000Y-124965096D01*
G04 #@! TD*
G04 #@! TO.N,GND*
G36*
X148072000Y-124150857D02*
G01*
X144977000Y-124150857D01*
X144977000Y-140517143D01*
X148072001Y-140517143D01*
X148072001Y-141380096D01*
X136609462Y-141380096D01*
X136636907Y-141341118D01*
X136714022Y-141104482D01*
X136716295Y-140844112D01*
X136643321Y-140606165D01*
X136566000Y-140492178D01*
X136566000Y-136467218D01*
X136574577Y-136427379D01*
X136566000Y-136354912D01*
X136566000Y-136338990D01*
X136559477Y-136299803D01*
X136547463Y-136198294D01*
X136540669Y-136186806D01*
X136538388Y-136173102D01*
X136462175Y-136031855D01*
X136462295Y-136018112D01*
X136389321Y-135780165D01*
X136249890Y-135574615D01*
X136056184Y-135419149D01*
X135825327Y-135327513D01*
X135577731Y-135307808D01*
X135335287Y-135361780D01*
X135119430Y-135484652D01*
X134949245Y-135665565D01*
X134839779Y-135888520D01*
X134800710Y-136133806D01*
X134835492Y-136379738D01*
X134941051Y-136604570D01*
X135108053Y-136788425D01*
X135214001Y-136851207D01*
X135214000Y-140480132D01*
X135203245Y-140491565D01*
X135093779Y-140714520D01*
X135054710Y-140959806D01*
X135089492Y-141205738D01*
X135171353Y-141380096D01*
X133441514Y-141380096D01*
X133555747Y-141342980D01*
X133804826Y-141216067D01*
X134030986Y-141051752D01*
X134228656Y-140854082D01*
X134392971Y-140627922D01*
X134519884Y-140378843D01*
X134606268Y-140112977D01*
X134650000Y-139836871D01*
X134650000Y-139557321D01*
X134606268Y-139281215D01*
X134519884Y-139015349D01*
X134392971Y-138766270D01*
X134228656Y-138540110D01*
X134030986Y-138342440D01*
X133804826Y-138178125D01*
X133555747Y-138051212D01*
X133289881Y-137964828D01*
X133013775Y-137921096D01*
X132734225Y-137921096D01*
X132458119Y-137964828D01*
X132192253Y-138051212D01*
X131943174Y-138178125D01*
X131717014Y-138342440D01*
X131519344Y-138540110D01*
X131355029Y-138766270D01*
X131228116Y-139015349D01*
X131141732Y-139281215D01*
X131098000Y-139557321D01*
X131098000Y-139836871D01*
X131141732Y-140112977D01*
X131228116Y-140378843D01*
X131355029Y-140627922D01*
X131519344Y-140854082D01*
X131717014Y-141051752D01*
X131943174Y-141216067D01*
X132192253Y-141342980D01*
X132306486Y-141380096D01*
X111424000Y-141380096D01*
X111424000Y-139435806D01*
X116258710Y-139435806D01*
X116293492Y-139681738D01*
X116399051Y-139906570D01*
X116566052Y-140090424D01*
X116779732Y-140217046D01*
X117021197Y-140275239D01*
X117269099Y-140259860D01*
X117501520Y-140172267D01*
X117697911Y-140020205D01*
X117840907Y-139817118D01*
X117918022Y-139580483D01*
X117918070Y-139575033D01*
X118057296Y-139435806D01*
X118544710Y-139435806D01*
X118579492Y-139681738D01*
X118685051Y-139906570D01*
X118852052Y-140090424D01*
X119065732Y-140217046D01*
X119307197Y-140275239D01*
X119555099Y-140259860D01*
X119787520Y-140172267D01*
X119983911Y-140020205D01*
X120126907Y-139817118D01*
X120204022Y-139580483D01*
X120204070Y-139575033D01*
X121692008Y-138087096D01*
X123218436Y-138087096D01*
X123383732Y-138185046D01*
X123625197Y-138243239D01*
X123873099Y-138227860D01*
X124105520Y-138140267D01*
X124301911Y-137988205D01*
X124444907Y-137785118D01*
X124522022Y-137548482D01*
X124524295Y-137288112D01*
X124451321Y-137050165D01*
X124311890Y-136844615D01*
X124118184Y-136689149D01*
X123887327Y-136597513D01*
X123639731Y-136577808D01*
X123397287Y-136631780D01*
X123215785Y-136735096D01*
X121484122Y-136735096D01*
X121444283Y-136726519D01*
X121371816Y-136735096D01*
X121355894Y-136735096D01*
X121316709Y-136741618D01*
X121215198Y-136753633D01*
X121203712Y-136760426D01*
X121190006Y-136762707D01*
X120991951Y-136869573D01*
X120923908Y-136943181D01*
X119238824Y-138628265D01*
X119079287Y-138663780D01*
X118863430Y-138786652D01*
X118693245Y-138967565D01*
X118583779Y-139190520D01*
X118544710Y-139435806D01*
X118057296Y-139435806D01*
X119044998Y-138448104D01*
X119079240Y-138425995D01*
X119124426Y-138368678D01*
X119135675Y-138357429D01*
X119158767Y-138325116D01*
X119222056Y-138244834D01*
X119225375Y-138231907D01*
X119233453Y-138220603D01*
X119297933Y-138004992D01*
X119294000Y-137904876D01*
X119294000Y-134008686D01*
X137021123Y-134008686D01*
X137021123Y-135733506D01*
X137051718Y-135887313D01*
X137145871Y-136028225D01*
X137286783Y-136122378D01*
X137440590Y-136152973D01*
X139165410Y-136152973D01*
X139319217Y-136122378D01*
X139460129Y-136028225D01*
X139554282Y-135887313D01*
X139584877Y-135733506D01*
X139584877Y-134008686D01*
X139554282Y-133854879D01*
X139460129Y-133713967D01*
X139319217Y-133619814D01*
X139165410Y-133589219D01*
X138528557Y-133589219D01*
X138713851Y-133544905D01*
X138928171Y-133449708D01*
X139121554Y-133317049D01*
X139287523Y-133151368D01*
X139420519Y-132958219D01*
X139516090Y-132744066D01*
X139571425Y-132514464D01*
X139579485Y-132216592D01*
X139536648Y-131984334D01*
X139452798Y-131765325D01*
X139330441Y-131565265D01*
X139173674Y-131390852D01*
X138987749Y-131247929D01*
X138778891Y-131141282D01*
X138554096Y-131074481D01*
X138320892Y-131049765D01*
X138087088Y-131067959D01*
X137860515Y-131128458D01*
X137648762Y-131229232D01*
X137458918Y-131366908D01*
X137297343Y-131536876D01*
X137169447Y-131733442D01*
X137079515Y-131950023D01*
X137030557Y-132179366D01*
X137024214Y-132413791D01*
X137060697Y-132645447D01*
X137138786Y-132866575D01*
X137255864Y-133069770D01*
X137408011Y-133248225D01*
X137590131Y-133395967D01*
X137796125Y-133508046D01*
X138019095Y-133580707D01*
X138083314Y-133589219D01*
X137440590Y-133589219D01*
X137286783Y-133619814D01*
X137145871Y-133713967D01*
X137051718Y-133854879D01*
X137021123Y-134008686D01*
X119294000Y-134008686D01*
X119294000Y-132805822D01*
X119364907Y-132705119D01*
X119442022Y-132468482D01*
X119444295Y-132208112D01*
X119371321Y-131970165D01*
X119231890Y-131764615D01*
X119038184Y-131609149D01*
X118807327Y-131517513D01*
X118559731Y-131497808D01*
X118317287Y-131551780D01*
X118101430Y-131674652D01*
X117931245Y-131855565D01*
X117897000Y-131925314D01*
X117897000Y-127090822D01*
X117967907Y-126990119D01*
X118045022Y-126753482D01*
X118047295Y-126493112D01*
X117984639Y-126288806D01*
X122547710Y-126288806D01*
X122582492Y-126534738D01*
X122688051Y-126759570D01*
X122855052Y-126943424D01*
X123068732Y-127070046D01*
X123310197Y-127128239D01*
X123558099Y-127112860D01*
X123790520Y-127025267D01*
X123859192Y-126972096D01*
X128644878Y-126972096D01*
X128684717Y-126980673D01*
X128757184Y-126972096D01*
X128773106Y-126972096D01*
X128812291Y-126965574D01*
X128913802Y-126953559D01*
X128925288Y-126946766D01*
X128938994Y-126944485D01*
X129137049Y-126837619D01*
X129205104Y-126763998D01*
X130184871Y-125784231D01*
X130223098Y-125781860D01*
X130455520Y-125694267D01*
X130651911Y-125542205D01*
X130794907Y-125339118D01*
X130872022Y-125102482D01*
X130874295Y-124842112D01*
X130801321Y-124604165D01*
X130661890Y-124398615D01*
X130468184Y-124243149D01*
X130237327Y-124151513D01*
X129989731Y-124131808D01*
X129747287Y-124185780D01*
X129531430Y-124308652D01*
X129361245Y-124489565D01*
X129251779Y-124712520D01*
X129234200Y-124822887D01*
X128436992Y-125620096D01*
X123860433Y-125620096D01*
X123803184Y-125574149D01*
X123572327Y-125482513D01*
X123324731Y-125462808D01*
X123082287Y-125516780D01*
X122866430Y-125639652D01*
X122696245Y-125820565D01*
X122586779Y-126043520D01*
X122547710Y-126288806D01*
X117984639Y-126288806D01*
X117974321Y-126255165D01*
X117834890Y-126049615D01*
X117641184Y-125894149D01*
X117410327Y-125802513D01*
X117162731Y-125782808D01*
X116920287Y-125836780D01*
X116704430Y-125959652D01*
X116534245Y-126140565D01*
X116424779Y-126363520D01*
X116385710Y-126608806D01*
X116420492Y-126854738D01*
X116526051Y-127079570D01*
X116545000Y-127100431D01*
X116545001Y-136289131D01*
X116534245Y-136300565D01*
X116424779Y-136523520D01*
X116385710Y-136768806D01*
X116420492Y-137014738D01*
X116526051Y-137239570D01*
X116693052Y-137423424D01*
X116906732Y-137550046D01*
X117148197Y-137608239D01*
X117396099Y-137592860D01*
X117628520Y-137505267D01*
X117824911Y-137353205D01*
X117942000Y-137186912D01*
X117942000Y-137639088D01*
X116952824Y-138628265D01*
X116793287Y-138663780D01*
X116577430Y-138786652D01*
X116407245Y-138967565D01*
X116297779Y-139190520D01*
X116258710Y-139435806D01*
X111424000Y-139435806D01*
X111424000Y-123232096D01*
X148072000Y-123232096D01*
X148072000Y-124150857D01*
G37*
D16*
X148072000Y-124150857D02*
X144977000Y-124150857D01*
X144977000Y-140517143D01*
X148072001Y-140517143D01*
X148072001Y-141380096D01*
X136609462Y-141380096D01*
X136636907Y-141341118D01*
X136714022Y-141104482D01*
X136716295Y-140844112D01*
X136643321Y-140606165D01*
X136566000Y-140492178D01*
X136566000Y-136467218D01*
X136574577Y-136427379D01*
X136566000Y-136354912D01*
X136566000Y-136338990D01*
X136559477Y-136299803D01*
X136547463Y-136198294D01*
X136540669Y-136186806D01*
X136538388Y-136173102D01*
X136462175Y-136031855D01*
X136462295Y-136018112D01*
X136389321Y-135780165D01*
X136249890Y-135574615D01*
X136056184Y-135419149D01*
X135825327Y-135327513D01*
X135577731Y-135307808D01*
X135335287Y-135361780D01*
X135119430Y-135484652D01*
X134949245Y-135665565D01*
X134839779Y-135888520D01*
X134800710Y-136133806D01*
X134835492Y-136379738D01*
X134941051Y-136604570D01*
X135108053Y-136788425D01*
X135214001Y-136851207D01*
X135214000Y-140480132D01*
X135203245Y-140491565D01*
X135093779Y-140714520D01*
X135054710Y-140959806D01*
X135089492Y-141205738D01*
X135171353Y-141380096D01*
X133441514Y-141380096D01*
X133555747Y-141342980D01*
X133804826Y-141216067D01*
X134030986Y-141051752D01*
X134228656Y-140854082D01*
X134392971Y-140627922D01*
X134519884Y-140378843D01*
X134606268Y-140112977D01*
X134650000Y-139836871D01*
X134650000Y-139557321D01*
X134606268Y-139281215D01*
X134519884Y-139015349D01*
X134392971Y-138766270D01*
X134228656Y-138540110D01*
X134030986Y-138342440D01*
X133804826Y-138178125D01*
X133555747Y-138051212D01*
X133289881Y-137964828D01*
X133013775Y-137921096D01*
X132734225Y-137921096D01*
X132458119Y-137964828D01*
X132192253Y-138051212D01*
X131943174Y-138178125D01*
X131717014Y-138342440D01*
X131519344Y-138540110D01*
X131355029Y-138766270D01*
X131228116Y-139015349D01*
X131141732Y-139281215D01*
X131098000Y-139557321D01*
X131098000Y-139836871D01*
X131141732Y-140112977D01*
X131228116Y-140378843D01*
X131355029Y-140627922D01*
X131519344Y-140854082D01*
X131717014Y-141051752D01*
X131943174Y-141216067D01*
X132192253Y-141342980D01*
X132306486Y-141380096D01*
X111424000Y-141380096D01*
X111424000Y-139435806D01*
X116258710Y-139435806D01*
X116293492Y-139681738D01*
X116399051Y-139906570D01*
X116566052Y-140090424D01*
X116779732Y-140217046D01*
X117021197Y-140275239D01*
X117269099Y-140259860D01*
X117501520Y-140172267D01*
X117697911Y-140020205D01*
X117840907Y-139817118D01*
X117918022Y-139580483D01*
X117918070Y-139575033D01*
X118057296Y-139435806D01*
X118544710Y-139435806D01*
X118579492Y-139681738D01*
X118685051Y-139906570D01*
X118852052Y-140090424D01*
X119065732Y-140217046D01*
X119307197Y-140275239D01*
X119555099Y-140259860D01*
X119787520Y-140172267D01*
X119983911Y-140020205D01*
X120126907Y-139817118D01*
X120204022Y-139580483D01*
X120204070Y-139575033D01*
X121692008Y-138087096D01*
X123218436Y-138087096D01*
X123383732Y-138185046D01*
X123625197Y-138243239D01*
X123873099Y-138227860D01*
X124105520Y-138140267D01*
X124301911Y-137988205D01*
X124444907Y-137785118D01*
X124522022Y-137548482D01*
X124524295Y-137288112D01*
X124451321Y-137050165D01*
X124311890Y-136844615D01*
X124118184Y-136689149D01*
X123887327Y-136597513D01*
X123639731Y-136577808D01*
X123397287Y-136631780D01*
X123215785Y-136735096D01*
X121484122Y-136735096D01*
X121444283Y-136726519D01*
X121371816Y-136735096D01*
X121355894Y-136735096D01*
X121316709Y-136741618D01*
X121215198Y-136753633D01*
X121203712Y-136760426D01*
X121190006Y-136762707D01*
X120991951Y-136869573D01*
X120923908Y-136943181D01*
X119238824Y-138628265D01*
X119079287Y-138663780D01*
X118863430Y-138786652D01*
X118693245Y-138967565D01*
X118583779Y-139190520D01*
X118544710Y-139435806D01*
X118057296Y-139435806D01*
X119044998Y-138448104D01*
X119079240Y-138425995D01*
X119124426Y-138368678D01*
X119135675Y-138357429D01*
X119158767Y-138325116D01*
X119222056Y-138244834D01*
X119225375Y-138231907D01*
X119233453Y-138220603D01*
X119297933Y-138004992D01*
X119294000Y-137904876D01*
X119294000Y-134008686D01*
X137021123Y-134008686D01*
X137021123Y-135733506D01*
X137051718Y-135887313D01*
X137145871Y-136028225D01*
X137286783Y-136122378D01*
X137440590Y-136152973D01*
X139165410Y-136152973D01*
X139319217Y-136122378D01*
X139460129Y-136028225D01*
X139554282Y-135887313D01*
X139584877Y-135733506D01*
X139584877Y-134008686D01*
X139554282Y-133854879D01*
X139460129Y-133713967D01*
X139319217Y-133619814D01*
X139165410Y-133589219D01*
X138528557Y-133589219D01*
X138713851Y-133544905D01*
X138928171Y-133449708D01*
X139121554Y-133317049D01*
X139287523Y-133151368D01*
X139420519Y-132958219D01*
X139516090Y-132744066D01*
X139571425Y-132514464D01*
X139579485Y-132216592D01*
X139536648Y-131984334D01*
X139452798Y-131765325D01*
X139330441Y-131565265D01*
X139173674Y-131390852D01*
X138987749Y-131247929D01*
X138778891Y-131141282D01*
X138554096Y-131074481D01*
X138320892Y-131049765D01*
X138087088Y-131067959D01*
X137860515Y-131128458D01*
X137648762Y-131229232D01*
X137458918Y-131366908D01*
X137297343Y-131536876D01*
X137169447Y-131733442D01*
X137079515Y-131950023D01*
X137030557Y-132179366D01*
X137024214Y-132413791D01*
X137060697Y-132645447D01*
X137138786Y-132866575D01*
X137255864Y-133069770D01*
X137408011Y-133248225D01*
X137590131Y-133395967D01*
X137796125Y-133508046D01*
X138019095Y-133580707D01*
X138083314Y-133589219D01*
X137440590Y-133589219D01*
X137286783Y-133619814D01*
X137145871Y-133713967D01*
X137051718Y-133854879D01*
X137021123Y-134008686D01*
X119294000Y-134008686D01*
X119294000Y-132805822D01*
X119364907Y-132705119D01*
X119442022Y-132468482D01*
X119444295Y-132208112D01*
X119371321Y-131970165D01*
X119231890Y-131764615D01*
X119038184Y-131609149D01*
X118807327Y-131517513D01*
X118559731Y-131497808D01*
X118317287Y-131551780D01*
X118101430Y-131674652D01*
X117931245Y-131855565D01*
X117897000Y-131925314D01*
X117897000Y-127090822D01*
X117967907Y-126990119D01*
X118045022Y-126753482D01*
X118047295Y-126493112D01*
X117984639Y-126288806D01*
X122547710Y-126288806D01*
X122582492Y-126534738D01*
X122688051Y-126759570D01*
X122855052Y-126943424D01*
X123068732Y-127070046D01*
X123310197Y-127128239D01*
X123558099Y-127112860D01*
X123790520Y-127025267D01*
X123859192Y-126972096D01*
X128644878Y-126972096D01*
X128684717Y-126980673D01*
X128757184Y-126972096D01*
X128773106Y-126972096D01*
X128812291Y-126965574D01*
X128913802Y-126953559D01*
X128925288Y-126946766D01*
X128938994Y-126944485D01*
X129137049Y-126837619D01*
X129205104Y-126763998D01*
X130184871Y-125784231D01*
X130223098Y-125781860D01*
X130455520Y-125694267D01*
X130651911Y-125542205D01*
X130794907Y-125339118D01*
X130872022Y-125102482D01*
X130874295Y-124842112D01*
X130801321Y-124604165D01*
X130661890Y-124398615D01*
X130468184Y-124243149D01*
X130237327Y-124151513D01*
X129989731Y-124131808D01*
X129747287Y-124185780D01*
X129531430Y-124308652D01*
X129361245Y-124489565D01*
X129251779Y-124712520D01*
X129234200Y-124822887D01*
X128436992Y-125620096D01*
X123860433Y-125620096D01*
X123803184Y-125574149D01*
X123572327Y-125482513D01*
X123324731Y-125462808D01*
X123082287Y-125516780D01*
X122866430Y-125639652D01*
X122696245Y-125820565D01*
X122586779Y-126043520D01*
X122547710Y-126288806D01*
X117984639Y-126288806D01*
X117974321Y-126255165D01*
X117834890Y-126049615D01*
X117641184Y-125894149D01*
X117410327Y-125802513D01*
X117162731Y-125782808D01*
X116920287Y-125836780D01*
X116704430Y-125959652D01*
X116534245Y-126140565D01*
X116424779Y-126363520D01*
X116385710Y-126608806D01*
X116420492Y-126854738D01*
X116526051Y-127079570D01*
X116545000Y-127100431D01*
X116545001Y-136289131D01*
X116534245Y-136300565D01*
X116424779Y-136523520D01*
X116385710Y-136768806D01*
X116420492Y-137014738D01*
X116526051Y-137239570D01*
X116693052Y-137423424D01*
X116906732Y-137550046D01*
X117148197Y-137608239D01*
X117396099Y-137592860D01*
X117628520Y-137505267D01*
X117824911Y-137353205D01*
X117942000Y-137186912D01*
X117942000Y-137639088D01*
X116952824Y-138628265D01*
X116793287Y-138663780D01*
X116577430Y-138786652D01*
X116407245Y-138967565D01*
X116297779Y-139190520D01*
X116258710Y-139435806D01*
X111424000Y-139435806D01*
X111424000Y-123232096D01*
X148072000Y-123232096D01*
X148072000Y-124150857D01*
G04 #@! TD*
M02*
