%TF.GenerationSoftware,KiCad,Pcbnew,6.0.11+dfsg-1~bpo11+1*%
%TF.CreationDate,2023-05-07T20:12:30+00:00*%
%TF.ProjectId,TFRPM01,54465250-4d30-4312-9e6b-696361645f70,rev?*%
%TF.SameCoordinates,PX7e721e0PY7e33658*%
%TF.FileFunction,Paste,Bot*%
%TF.FilePolarity,Positive*%
%FSLAX46Y46*%
G04 Gerber Fmt 4.6, Leading zero omitted, Abs format (unit mm)*
G04 Created by KiCad (PCBNEW 6.0.11+dfsg-1~bpo11+1) date 2023-05-07 20:12:30*
%MOMM*%
%LPD*%
G01*
G04 APERTURE LIST*
G04 Aperture macros list*
%AMRoundRect*
0 Rectangle with rounded corners*
0 $1 Rounding radius*
0 $2 $3 $4 $5 $6 $7 $8 $9 X,Y pos of 4 corners*
0 Add a 4 corners polygon primitive as box body*
4,1,4,$2,$3,$4,$5,$6,$7,$8,$9,$2,$3,0*
0 Add four circle primitives for the rounded corners*
1,1,$1+$1,$2,$3*
1,1,$1+$1,$4,$5*
1,1,$1+$1,$6,$7*
1,1,$1+$1,$8,$9*
0 Add four rect primitives between the rounded corners*
20,1,$1+$1,$2,$3,$4,$5,0*
20,1,$1+$1,$4,$5,$6,$7,0*
20,1,$1+$1,$6,$7,$8,$9,0*
20,1,$1+$1,$8,$9,$2,$3,0*%
G04 Aperture macros list end*
%ADD10R,0.600000X0.700000*%
%ADD11RoundRect,0.200000X0.200000X0.275000X-0.200000X0.275000X-0.200000X-0.275000X0.200000X-0.275000X0*%
%ADD12RoundRect,0.150000X-0.512500X-0.150000X0.512500X-0.150000X0.512500X0.150000X-0.512500X0.150000X0*%
%ADD13RoundRect,0.225000X0.225000X0.250000X-0.225000X0.250000X-0.225000X-0.250000X0.225000X-0.250000X0*%
%ADD14RoundRect,0.150000X0.700000X-0.150000X0.700000X0.150000X-0.700000X0.150000X-0.700000X-0.150000X0*%
%ADD15RoundRect,0.250000X1.100000X-0.250000X1.100000X0.250000X-1.100000X0.250000X-1.100000X-0.250000X0*%
%ADD16RoundRect,0.200000X-0.275000X0.200000X-0.275000X-0.200000X0.275000X-0.200000X0.275000X0.200000X0*%
%ADD17RoundRect,0.250000X-0.450000X0.262500X-0.450000X-0.262500X0.450000X-0.262500X0.450000X0.262500X0*%
%ADD18RoundRect,0.250000X0.450000X-0.262500X0.450000X0.262500X-0.450000X0.262500X-0.450000X-0.262500X0*%
%ADD19RoundRect,0.225000X-0.250000X0.225000X-0.250000X-0.225000X0.250000X-0.225000X0.250000X0.225000X0*%
%ADD20O,0.700000X2.600000*%
%ADD21RoundRect,0.225000X0.250000X-0.225000X0.250000X0.225000X-0.250000X0.225000X-0.250000X-0.225000X0*%
%ADD22R,1.500000X1.500000*%
%ADD23R,0.400000X0.650000*%
%ADD24RoundRect,0.200000X0.275000X-0.200000X0.275000X0.200000X-0.275000X0.200000X-0.275000X-0.200000X0*%
G04 APERTURE END LIST*
D10*
%TO.C,D1*%
X-14286000Y-1016000D03*
X-15686000Y-1016000D03*
%TD*%
D11*
%TO.C,R10*%
X-6617000Y7425096D03*
X-8267000Y7425096D03*
%TD*%
D12*
%TO.C,U3*%
X-4679500Y5725096D03*
X-4679500Y6675096D03*
X-4679500Y7625096D03*
X-2404500Y7625096D03*
X-2404500Y5725096D03*
%TD*%
D13*
%TO.C,C3*%
X-14211000Y1270000D03*
X-15761000Y1270000D03*
%TD*%
%TO.C,C4*%
X-13267000Y7425096D03*
X-14817000Y7425096D03*
%TD*%
D14*
%TO.C,J2*%
X-16588000Y2931096D03*
X-16588000Y4181096D03*
X-16588000Y5431096D03*
X-16588000Y6681096D03*
D15*
X-19788000Y8531096D03*
X-19788000Y1081096D03*
%TD*%
D16*
%TO.C,R4*%
X-4064000Y-6287000D03*
X-4064000Y-7937000D03*
%TD*%
D17*
%TO.C,R1*%
X9008000Y7437596D03*
X9008000Y5612596D03*
%TD*%
D18*
%TO.C,R2*%
X4572000Y5612596D03*
X4572000Y7437596D03*
%TD*%
D11*
%TO.C,R3*%
X-9917000Y7425096D03*
X-11567000Y7425096D03*
%TD*%
D19*
%TO.C,C6*%
X4300000Y-6225000D03*
X4300000Y-7775000D03*
%TD*%
D14*
%TO.C,J3*%
X-16588000Y-6643904D03*
X-16588000Y-5393904D03*
X-16588000Y-4143904D03*
X-16588000Y-2893904D03*
D15*
X-19788000Y-8493904D03*
X-19788000Y-1043904D03*
%TD*%
D19*
%TO.C,C5*%
X-4343400Y4150296D03*
X-4343400Y2600296D03*
%TD*%
D20*
%TO.C,U1*%
X-7387000Y-3638000D03*
X-8657000Y-3638000D03*
X-9927000Y-3638000D03*
X-11202000Y-3638000D03*
X-11197000Y5162000D03*
X-9927000Y5162000D03*
X-8592000Y5162000D03*
X-7387000Y5162000D03*
%TD*%
D21*
%TO.C,C1*%
X-292000Y6000096D03*
X-292000Y7550096D03*
%TD*%
%TO.C,C2*%
X6790000Y5750096D03*
X6790000Y7300096D03*
%TD*%
D22*
%TO.C,D2*%
X1880000Y-7000000D03*
X-1880000Y-7000000D03*
%TD*%
D23*
%TO.C,U2*%
X6462000Y-5910904D03*
X7112000Y-5910904D03*
X7762000Y-5910904D03*
X7762000Y-7810904D03*
X6462000Y-7810904D03*
%TD*%
D24*
%TO.C,R5*%
X-6096000Y-7937000D03*
X-6096000Y-6287000D03*
%TD*%
D22*
%TO.C,D3*%
X-8120000Y-7000000D03*
X-11880000Y-7000000D03*
%TD*%
M02*
