M48
; DRILL file {KiCad (5.99.0-397-g773f45aae)} date 11.12.2019 8:53:02
; FORMAT={3:3/ absolute / metric / suppress leading zeros}
; #@! TF.CreationDate,2019-12-11T08:53:02+01:00
; #@! TF.GenerationSoftware,Kicad,Pcbnew,(5.99.0-397-g773f45aae)
; #@! TF.FileFunction,Plated,1,2,PTH
FMAT,2
METRIC,TZ
T1C0.400
T2C1.000
T3C3.000
%
G90
G05
T1
X112268Y-125981
X112268Y-126997
X112268Y-128013
X112268Y-129029
X112268Y-135633
X112268Y-136649
X112268Y-137665
X112268Y-138681
X115316Y-130807
X115316Y-132331
X115316Y-133855
X115316Y-140713
X117094Y-123695
X117094Y-139443
X117094Y-140713
X117221Y-126616
X117221Y-136776
X118618Y-132331
X118618Y-140713
X119380Y-139443
X119634Y-129286
X120142Y-134363
X120396Y-128524
X120396Y-130048
X121666Y-140967
X123383Y-126296
X123698Y-137411
X124968Y-135633
X126238Y-135633
X126746Y-128267
X127508Y-138173
X127762Y-129029
X127762Y-130299
X128270Y-137411
X130048Y-124965
X133858Y-124965
X134620Y-127759
X134874Y-124965
X135636Y-127759
X135636Y-128775
X135636Y-136141
X135890Y-140967
X136652Y-127759
X136652Y-128775
X137668Y-127759
X137807Y-140062
X138176Y-136903
X138938Y-124965
X140208Y-124965
X141986Y-138938
X143002Y-134109
X143002Y-135382
X143002Y-136652
X143764Y-138935
X143764Y-139951
X143764Y-140967
T2
X138303Y-129791
X138303Y-132331
X138303Y-134871
T3
X132588Y-132331
T0
M30
