G04 #@! TF.GenerationSoftware,KiCad,Pcbnew,5.99.0-unknown-80cb1db2e6~119~ubuntu20.04.1*
G04 #@! TF.CreationDate,2021-03-23T08:35:34+01:00*
G04 #@! TF.ProjectId,TFRPM01C,54465250-4d30-4314-932e-6b696361645f,REV*
G04 #@! TF.SameCoordinates,PX78dfd90PY8290510*
G04 #@! TF.FileFunction,OtherDrawing,Comment*
%FSLAX46Y46*%
G04 Gerber Fmt 4.6, Leading zero omitted, Abs format (unit mm)*
G04 Created by KiCad (PCBNEW 5.99.0-unknown-80cb1db2e6~119~ubuntu20.04.1) date 2021-03-23 08:35:34*
%MOMM*%
%LPD*%
G01*
G04 APERTURE LIST*
%ADD10C,0.150000*%
%ADD11C,0.100000*%
G04 APERTURE END LIST*
D10*
X24194380Y552285D02*
X24194380Y-19143D01*
X24194380Y266571D02*
X23194380Y266571D01*
X23337238Y171333D01*
X23432476Y76095D01*
X23480095Y-19143D01*
X24194380Y1028476D02*
X24194380Y1218952D01*
X24146761Y1314190D01*
X24099142Y1361809D01*
X23956285Y1457047D01*
X23765809Y1504666D01*
X23384857Y1504666D01*
X23289619Y1457047D01*
X23242000Y1409428D01*
X23194380Y1314190D01*
X23194380Y1123714D01*
X23242000Y1028476D01*
X23289619Y980857D01*
X23384857Y933238D01*
X23622952Y933238D01*
X23718190Y980857D01*
X23765809Y1028476D01*
X23813428Y1123714D01*
X23813428Y1314190D01*
X23765809Y1409428D01*
X23718190Y1457047D01*
X23622952Y1504666D01*
X24099142Y1933238D02*
X24146761Y1980857D01*
X24194380Y1933238D01*
X24146761Y1885619D01*
X24099142Y1933238D01*
X24194380Y1933238D01*
X23194380Y2599904D02*
X23194380Y2695143D01*
X23242000Y2790381D01*
X23289619Y2838000D01*
X23384857Y2885619D01*
X23575333Y2933238D01*
X23813428Y2933238D01*
X24003904Y2885619D01*
X24099142Y2838000D01*
X24146761Y2790381D01*
X24194380Y2695143D01*
X24194380Y2599904D01*
X24146761Y2504666D01*
X24099142Y2457047D01*
X24003904Y2409428D01*
X23813428Y2361809D01*
X23575333Y2361809D01*
X23384857Y2409428D01*
X23289619Y2457047D01*
X23242000Y2504666D01*
X23194380Y2599904D01*
X23194380Y3552285D02*
X23194380Y3647524D01*
X23242000Y3742762D01*
X23289619Y3790381D01*
X23384857Y3838000D01*
X23575333Y3885619D01*
X23813428Y3885619D01*
X24003904Y3838000D01*
X24099142Y3790381D01*
X24146761Y3742762D01*
X24194380Y3647524D01*
X24194380Y3552285D01*
X24146761Y3457047D01*
X24099142Y3409428D01*
X24003904Y3361809D01*
X23813428Y3314190D01*
X23575333Y3314190D01*
X23384857Y3361809D01*
X23289619Y3409428D01*
X23242000Y3457047D01*
X23194380Y3552285D01*
X23194380Y4504666D02*
X23194380Y4599904D01*
X23242000Y4695143D01*
X23289619Y4742762D01*
X23384857Y4790381D01*
X23575333Y4838000D01*
X23813428Y4838000D01*
X24003904Y4790381D01*
X24099142Y4742762D01*
X24146761Y4695143D01*
X24194380Y4599904D01*
X24194380Y4504666D01*
X24146761Y4409428D01*
X24099142Y4361809D01*
X24003904Y4314190D01*
X23813428Y4266571D01*
X23575333Y4266571D01*
X23384857Y4314190D01*
X23289619Y4361809D01*
X23242000Y4409428D01*
X23194380Y4504666D01*
X23194380Y5457047D02*
X23194380Y5552285D01*
X23242000Y5647524D01*
X23289619Y5695143D01*
X23384857Y5742762D01*
X23575333Y5790381D01*
X23813428Y5790381D01*
X24003904Y5742762D01*
X24099142Y5695143D01*
X24146761Y5647524D01*
X24194380Y5552285D01*
X24194380Y5457047D01*
X24146761Y5361809D01*
X24099142Y5314190D01*
X24003904Y5266571D01*
X23813428Y5218952D01*
X23575333Y5218952D01*
X23384857Y5266571D01*
X23289619Y5314190D01*
X23242000Y5361809D01*
X23194380Y5457047D01*
X24194380Y6980857D02*
X23527714Y6980857D01*
X23622952Y6980857D02*
X23575333Y7028476D01*
X23527714Y7123714D01*
X23527714Y7266571D01*
X23575333Y7361809D01*
X23670571Y7409428D01*
X24194380Y7409428D01*
X23670571Y7409428D02*
X23575333Y7457047D01*
X23527714Y7552285D01*
X23527714Y7695143D01*
X23575333Y7790381D01*
X23670571Y7838000D01*
X24194380Y7838000D01*
X24194380Y8314190D02*
X23527714Y8314190D01*
X23622952Y8314190D02*
X23575333Y8361809D01*
X23527714Y8457047D01*
X23527714Y8599904D01*
X23575333Y8695143D01*
X23670571Y8742762D01*
X24194380Y8742762D01*
X23670571Y8742762D02*
X23575333Y8790381D01*
X23527714Y8885619D01*
X23527714Y9028476D01*
X23575333Y9123714D01*
X23670571Y9171333D01*
X24194380Y9171333D01*
D11*
X21752000Y-4900096D02*
X25478420Y-4900096D01*
X21752000Y14099904D02*
X25478420Y14099904D01*
X24892000Y-4900096D02*
X24892000Y14099904D01*
X24892000Y-4900096D02*
X24892000Y14099904D01*
X24892000Y-4900096D02*
X25478421Y-3773592D01*
X24892000Y-4900096D02*
X24305579Y-3773592D01*
X24892000Y14099904D02*
X24305579Y12973400D01*
X24892000Y14099904D02*
X25478421Y12973400D01*
D10*
X-1664667Y17953620D02*
X-1045620Y17953620D01*
X-1378953Y17572667D01*
X-1236096Y17572667D01*
X-1140858Y17525048D01*
X-1093239Y17477429D01*
X-1045620Y17382191D01*
X-1045620Y17144096D01*
X-1093239Y17048858D01*
X-1140858Y17001239D01*
X-1236096Y16953620D01*
X-1521810Y16953620D01*
X-1617048Y17001239D01*
X-1664667Y17048858D01*
X-712286Y17953620D02*
X-45620Y17953620D01*
X-474191Y16953620D01*
X335333Y17048858D02*
X382952Y17001239D01*
X335333Y16953620D01*
X287714Y17001239D01*
X335333Y17048858D01*
X335333Y16953620D01*
X1287714Y17953620D02*
X811523Y17953620D01*
X763904Y17477429D01*
X811523Y17525048D01*
X906761Y17572667D01*
X1144857Y17572667D01*
X1240095Y17525048D01*
X1287714Y17477429D01*
X1335333Y17382191D01*
X1335333Y17144096D01*
X1287714Y17048858D01*
X1240095Y17001239D01*
X1144857Y16953620D01*
X906761Y16953620D01*
X811523Y17001239D01*
X763904Y17048858D01*
X1954380Y17953620D02*
X2049619Y17953620D01*
X2144857Y17906000D01*
X2192476Y17858381D01*
X2240095Y17763143D01*
X2287714Y17572667D01*
X2287714Y17334572D01*
X2240095Y17144096D01*
X2192476Y17048858D01*
X2144857Y17001239D01*
X2049619Y16953620D01*
X1954380Y16953620D01*
X1859142Y17001239D01*
X1811523Y17048858D01*
X1763904Y17144096D01*
X1716285Y17334572D01*
X1716285Y17572667D01*
X1763904Y17763143D01*
X1811523Y17858381D01*
X1859142Y17906000D01*
X1954380Y17953620D01*
X2906761Y17953620D02*
X3002000Y17953620D01*
X3097238Y17906000D01*
X3144857Y17858381D01*
X3192476Y17763143D01*
X3240095Y17572667D01*
X3240095Y17334572D01*
X3192476Y17144096D01*
X3144857Y17048858D01*
X3097238Y17001239D01*
X3002000Y16953620D01*
X2906761Y16953620D01*
X2811523Y17001239D01*
X2763904Y17048858D01*
X2716285Y17144096D01*
X2668666Y17334572D01*
X2668666Y17572667D01*
X2716285Y17763143D01*
X2763904Y17858381D01*
X2811523Y17906000D01*
X2906761Y17953620D01*
X3859142Y17953620D02*
X3954380Y17953620D01*
X4049619Y17906000D01*
X4097238Y17858381D01*
X4144857Y17763143D01*
X4192476Y17572667D01*
X4192476Y17334572D01*
X4144857Y17144096D01*
X4097238Y17048858D01*
X4049619Y17001239D01*
X3954380Y16953620D01*
X3859142Y16953620D01*
X3763904Y17001239D01*
X3716285Y17048858D01*
X3668666Y17144096D01*
X3621047Y17334572D01*
X3621047Y17572667D01*
X3668666Y17763143D01*
X3716285Y17858381D01*
X3763904Y17906000D01*
X3859142Y17953620D01*
X5382952Y16953620D02*
X5382952Y17620286D01*
X5382952Y17525048D02*
X5430571Y17572667D01*
X5525809Y17620286D01*
X5668666Y17620286D01*
X5763904Y17572667D01*
X5811523Y17477429D01*
X5811523Y16953620D01*
X5811523Y17477429D02*
X5859142Y17572667D01*
X5954380Y17620286D01*
X6097238Y17620286D01*
X6192476Y17572667D01*
X6240095Y17477429D01*
X6240095Y16953620D01*
X6716285Y16953620D02*
X6716285Y17620286D01*
X6716285Y17525048D02*
X6763904Y17572667D01*
X6859142Y17620286D01*
X7002000Y17620286D01*
X7097238Y17572667D01*
X7144857Y17477429D01*
X7144857Y16953620D01*
X7144857Y17477429D02*
X7192476Y17572667D01*
X7287714Y17620286D01*
X7430571Y17620286D01*
X7525809Y17572667D01*
X7573428Y17477429D01*
X7573428Y16953620D01*
X21752000Y14099904D02*
X21752000Y16842420D01*
X-15748000Y14099904D02*
X-15748000Y16842420D01*
X21752000Y16256000D02*
X-15748000Y16256000D01*
X21752000Y16256000D02*
X-15748000Y16256000D01*
X21752000Y16256000D02*
X20625496Y16842421D01*
X21752000Y16256000D02*
X20625496Y15669579D01*
X-15748000Y16256000D02*
X-14621496Y15669579D01*
X-15748000Y16256000D02*
X-14621496Y16842421D01*
X-19303633Y6739527D02*
X-19303473Y6930003D01*
X-19351012Y7025281D01*
X-19398592Y7072940D01*
X-19541369Y7168298D01*
X-19731805Y7216077D01*
X-20112757Y7216397D01*
X-20208035Y7168858D01*
X-20255694Y7121279D01*
X-20303393Y7026081D01*
X-20303553Y6835605D01*
X-20256014Y6740327D01*
X-20208435Y6692668D01*
X-20113237Y6644969D01*
X-19875142Y6644769D01*
X-19779864Y6692308D01*
X-19732205Y6739887D01*
X-19684506Y6835085D01*
X-19684346Y7025561D01*
X-19731885Y7120839D01*
X-19779464Y7168498D01*
X-19874662Y7216197D01*
X-19398112Y7644368D02*
X-19350453Y7691947D01*
X-19302874Y7644288D01*
X-19350533Y7596709D01*
X-19398112Y7644368D01*
X-19302874Y7644288D01*
X-20302073Y8597509D02*
X-20302473Y8121319D01*
X-19826323Y8073300D01*
X-19873902Y8120959D01*
X-19921441Y8216237D01*
X-19921241Y8454332D01*
X-19873542Y8549530D01*
X-19825883Y8597109D01*
X-19730605Y8644648D01*
X-19492510Y8644448D01*
X-19397312Y8596749D01*
X-19349733Y8549090D01*
X-19302194Y8453812D01*
X-19302394Y8215717D01*
X-19350093Y8120519D01*
X-19397752Y8072940D01*
X-19301034Y9834764D02*
X-19967700Y9835324D01*
X-19872462Y9835244D02*
X-19920041Y9882903D01*
X-19967580Y9978181D01*
X-19967460Y10121038D01*
X-19919761Y10216236D01*
X-19824483Y10263775D01*
X-19300674Y10263335D01*
X-19824483Y10263775D02*
X-19919681Y10311474D01*
X-19967220Y10406752D01*
X-19967100Y10549609D01*
X-19919401Y10644807D01*
X-19824123Y10692346D01*
X-19300314Y10691906D01*
X-19299914Y11168097D02*
X-19966580Y11168657D01*
X-19871342Y11168577D02*
X-19918921Y11216236D01*
X-19966460Y11311514D01*
X-19966340Y11454371D01*
X-19918641Y11549569D01*
X-19823363Y11597108D01*
X-19299554Y11596668D01*
X-19823363Y11597108D02*
X-19918561Y11644807D01*
X-19966100Y11740085D01*
X-19965980Y11882942D01*
X-19918281Y11978140D01*
X-19823003Y12025679D01*
X-19299194Y12025239D01*
D11*
X5342000Y4575324D02*
X-19194234Y4595932D01*
X5350000Y14100420D02*
X-19186234Y14121028D01*
X-18607814Y4595439D02*
X-18599814Y14120535D01*
X-18607814Y4595439D02*
X-18599814Y14120535D01*
X-18607814Y4595439D02*
X-18020447Y5721450D01*
X-18607814Y4595439D02*
X-19193288Y5722435D01*
X-18599814Y14120535D02*
X-19187181Y12994524D01*
X-18599814Y14120535D02*
X-18014340Y12993539D01*
D10*
X-8155857Y-6102474D02*
X-8108183Y-6054911D01*
X-8012889Y-6007402D01*
X-7774794Y-6007678D01*
X-7679611Y-6055407D01*
X-7632048Y-6103081D01*
X-7584539Y-6198374D01*
X-7584649Y-6293612D01*
X-7632434Y-6436414D01*
X-8204523Y-7007181D01*
X-7585476Y-7007897D01*
X-6633096Y-7009000D02*
X-7204524Y-7008339D01*
X-6918810Y-7008669D02*
X-6917652Y-6008670D01*
X-7013055Y-6151417D01*
X-7108404Y-6246545D01*
X-7203697Y-6294053D01*
X-6204414Y-6914258D02*
X-6156851Y-6961933D01*
X-6204525Y-7009497D01*
X-6252089Y-6961822D01*
X-6204414Y-6914258D01*
X-6204525Y-7009497D01*
X-5298605Y-6010545D02*
X-5489082Y-6010324D01*
X-5584375Y-6057833D01*
X-5632049Y-6105397D01*
X-5727452Y-6248144D01*
X-5775292Y-6438565D01*
X-5775733Y-6819517D01*
X-5728224Y-6914810D01*
X-5680660Y-6962484D01*
X-5585478Y-7010213D01*
X-5395001Y-7010434D01*
X-5299708Y-6962925D01*
X-5252034Y-6915361D01*
X-5204305Y-6820178D01*
X-5204029Y-6582083D01*
X-5251538Y-6486790D01*
X-5299102Y-6439116D01*
X-5394285Y-6391387D01*
X-5584761Y-6391166D01*
X-5680054Y-6438675D01*
X-5727728Y-6486239D01*
X-5775457Y-6581422D01*
X-4014050Y-7012033D02*
X-4013278Y-6345367D01*
X-4013388Y-6440605D02*
X-3965714Y-6393041D01*
X-3870421Y-6345532D01*
X-3727564Y-6345698D01*
X-3632381Y-6393427D01*
X-3584872Y-6488720D01*
X-3585479Y-7012529D01*
X-3584872Y-6488720D02*
X-3537143Y-6393537D01*
X-3441850Y-6346028D01*
X-3298993Y-6346194D01*
X-3203810Y-6393923D01*
X-3156301Y-6489216D01*
X-3156908Y-7013025D01*
X-2680718Y-7013577D02*
X-2679946Y-6346911D01*
X-2680056Y-6442149D02*
X-2632382Y-6394585D01*
X-2537089Y-6347076D01*
X-2394232Y-6347241D01*
X-2299049Y-6394971D01*
X-2251540Y-6490264D01*
X-2252146Y-7014073D01*
X-2251540Y-6490264D02*
X-2203811Y-6395081D01*
X-2108517Y-6347572D01*
X-1965660Y-6347738D01*
X-1870477Y-6395467D01*
X-1822969Y-6490760D01*
X-1823575Y-7014569D01*
D11*
X5841421Y4074904D02*
X5827083Y-8307469D01*
X-15748579Y4099904D02*
X-15762917Y-8282469D01*
X5827762Y-7721049D02*
X-15762238Y-7696049D01*
X5827762Y-7721049D02*
X-15762238Y-7696049D01*
X5827762Y-7721049D02*
X4701938Y-7133324D01*
X5827762Y-7721049D02*
X4700580Y-8306165D01*
X-15762238Y-7696049D02*
X-14636414Y-8283774D01*
X-15762238Y-7696049D02*
X-14635056Y-7110933D01*
M02*
