G04 #@! TF.GenerationSoftware,KiCad,Pcbnew,(5.99.0-494-g9b7d4e274)*
G04 #@! TF.CreationDate,2020-06-15T11:42:29+02:00*
G04 #@! TF.ProjectId,TFRPM01B,54465250-4d30-4314-922e-6b696361645f,REV*
G04 #@! TF.SameCoordinates,Original*
G04 #@! TF.FileFunction,Copper,L2,Bot*
G04 #@! TF.FilePolarity,Positive*
%FSLAX46Y46*%
G04 Gerber Fmt 4.6, Leading zero omitted, Abs format (unit mm)*
G04 Created by KiCad (PCBNEW (5.99.0-494-g9b7d4e274)) date 2020-06-15 11:42:29*
%MOMM*%
%LPD*%
G04 APERTURE LIST*
G04 #@! TA.AperFunction,SMDPad,CuDef*
%ADD10R,1.050000X1.500000*%
G04 #@! TD*
G04 #@! TA.AperFunction,SMDPad,CuDef*
%ADD11O,0.609600X3.500000*%
G04 #@! TD*
G04 #@! TA.AperFunction,SMDPad,CuDef*
%ADD12R,0.400000X0.650000*%
G04 #@! TD*
G04 #@! TA.AperFunction,ComponentPad*
%ADD13O,1.700000X1.700000*%
G04 #@! TD*
G04 #@! TA.AperFunction,ComponentPad*
%ADD14R,1.700000X1.700000*%
G04 #@! TD*
G04 #@! TA.AperFunction,SMDPad,CuDef*
%ADD15R,1.060000X0.650000*%
G04 #@! TD*
G04 #@! TA.AperFunction,ComponentPad*
%ADD16C,6.000000*%
G04 #@! TD*
G04 #@! TA.AperFunction,SMDPad,CuDef*
%ADD17R,1.700000X1.300000*%
G04 #@! TD*
G04 #@! TA.AperFunction,SMDPad,CuDef*
%ADD18R,1.397000X0.889000*%
G04 #@! TD*
G04 #@! TA.AperFunction,SMDPad,CuDef*
%ADD19R,0.889000X1.397000*%
G04 #@! TD*
G04 #@! TA.AperFunction,ViaPad*
%ADD20C,0.800000*%
G04 #@! TD*
G04 #@! TA.AperFunction,Conductor*
%ADD21C,0.500000*%
G04 #@! TD*
G04 #@! TA.AperFunction,Conductor*
%ADD22C,0.400000*%
G04 #@! TD*
G04 #@! TA.AperFunction,Conductor*
%ADD23C,0.300000*%
G04 #@! TD*
G04 #@! TA.AperFunction,Conductor*
%ADD24C,0.254000*%
G04 #@! TD*
G04 APERTURE END LIST*
D10*
G04 #@! TO.P,D2,1*
G04 #@! TO.N,GND*
X134874000Y-139697096D03*
G04 #@! TO.P,D2,2*
G04 #@! TO.N,Net-(D2-Pad2)*
X130874000Y-139697096D03*
G04 #@! TD*
D11*
G04 #@! TO.P,U1,1*
G04 #@! TO.N,Net-(R4-Pad1)*
X126238000Y-139236000D03*
G04 #@! TO.P,U1,2*
G04 #@! TO.N,Net-(U1-Pad2)*
X124968000Y-139236000D03*
G04 #@! TO.P,U1,3*
G04 #@! TO.N,Net-(R5-Pad1)*
X123698000Y-139236000D03*
G04 #@! TO.P,U1,4*
G04 #@! TO.N,GND*
X122423000Y-139236000D03*
G04 #@! TO.P,U1,5*
G04 #@! TO.N,/SDA*
X122428000Y-131568000D03*
G04 #@! TO.P,U1,6*
G04 #@! TO.N,/SCL*
X123698000Y-131568000D03*
G04 #@! TO.P,U1,7*
G04 #@! TO.N,Net-(U1-Pad7)*
X124968000Y-131568000D03*
G04 #@! TO.P,U1,8*
G04 #@! TO.N,+3V3*
X126238000Y-131568000D03*
G04 #@! TD*
D12*
G04 #@! TO.P,U2,5*
G04 #@! TO.N,+3V3*
X139050000Y-140650000D03*
G04 #@! TO.P,U2,4*
G04 #@! TO.N,Net-(R4-Pad1)*
X140350000Y-140650000D03*
G04 #@! TO.P,U2,2*
G04 #@! TO.N,/COUNT*
X139700000Y-138750000D03*
G04 #@! TO.P,U2,3*
G04 #@! TO.N,GND*
X140350000Y-138750000D03*
G04 #@! TO.P,U2,1*
G04 #@! TO.N,N/C*
X139050000Y-138750000D03*
G04 #@! TD*
D13*
G04 #@! TO.P,J1,3*
G04 #@! TO.N,GND*
X138303000Y-129791096D03*
G04 #@! TO.P,J1,2*
G04 #@! TO.N,Net-(C2-Pad1)*
X138303000Y-132331096D03*
D14*
G04 #@! TO.P,J1,1*
G04 #@! TO.N,/COUNT*
X138303000Y-134871096D03*
G04 #@! TD*
G04 #@! TA.AperFunction,SMDPad,CuDef*
G04 #@! TO.P,C6,2*
G04 #@! TO.N,GND*
G36*
X137245962Y-138971247D02*
G01*
X137316930Y-139018666D01*
X137364349Y-139089634D01*
X137381000Y-139173346D01*
X137381000Y-139610846D01*
X137364349Y-139694558D01*
X137316930Y-139765526D01*
X137245962Y-139812945D01*
X137162250Y-139829596D01*
X136649750Y-139829596D01*
X136566038Y-139812945D01*
X136495070Y-139765526D01*
X136447651Y-139694558D01*
X136431000Y-139610846D01*
X136431000Y-139173346D01*
X136447651Y-139089634D01*
X136495070Y-139018666D01*
X136566038Y-138971247D01*
X136649750Y-138954596D01*
X137162250Y-138954596D01*
X137245962Y-138971247D01*
G37*
G04 #@! TD.AperFunction*
G04 #@! TA.AperFunction,SMDPad,CuDef*
G04 #@! TO.P,C6,1*
G04 #@! TO.N,+3V3*
G36*
X137245962Y-140546247D02*
G01*
X137316930Y-140593666D01*
X137364349Y-140664634D01*
X137381000Y-140748346D01*
X137381000Y-141185846D01*
X137364349Y-141269558D01*
X137316930Y-141340526D01*
X137245962Y-141387945D01*
X137162250Y-141404596D01*
X136649750Y-141404596D01*
X136566038Y-141387945D01*
X136495070Y-141340526D01*
X136447651Y-141269558D01*
X136431000Y-141185846D01*
X136431000Y-140748346D01*
X136447651Y-140664634D01*
X136495070Y-140593666D01*
X136566038Y-140546247D01*
X136649750Y-140529596D01*
X137162250Y-140529596D01*
X137245962Y-140546247D01*
G37*
G04 #@! TD.AperFunction*
G04 #@! TD*
G04 #@! TA.AperFunction,SMDPad,CuDef*
G04 #@! TO.P,C5,2*
G04 #@! TO.N,GND*
G36*
X128609962Y-128585651D02*
G01*
X128680930Y-128633070D01*
X128728349Y-128704038D01*
X128745000Y-128787750D01*
X128745000Y-129225250D01*
X128728349Y-129308962D01*
X128680930Y-129379930D01*
X128609962Y-129427349D01*
X128526250Y-129444000D01*
X128013750Y-129444000D01*
X127930038Y-129427349D01*
X127859070Y-129379930D01*
X127811651Y-129308962D01*
X127795000Y-129225250D01*
X127795000Y-128787750D01*
X127811651Y-128704038D01*
X127859070Y-128633070D01*
X127930038Y-128585651D01*
X128013750Y-128569000D01*
X128526250Y-128569000D01*
X128609962Y-128585651D01*
G37*
G04 #@! TD.AperFunction*
G04 #@! TA.AperFunction,SMDPad,CuDef*
G04 #@! TO.P,C5,1*
G04 #@! TO.N,+3V3*
G36*
X128609962Y-130160651D02*
G01*
X128680930Y-130208070D01*
X128728349Y-130279038D01*
X128745000Y-130362750D01*
X128745000Y-130800250D01*
X128728349Y-130883962D01*
X128680930Y-130954930D01*
X128609962Y-131002349D01*
X128526250Y-131019000D01*
X128013750Y-131019000D01*
X127930038Y-131002349D01*
X127859070Y-130954930D01*
X127811651Y-130883962D01*
X127795000Y-130800250D01*
X127795000Y-130362750D01*
X127811651Y-130279038D01*
X127859070Y-130208070D01*
X127930038Y-130160651D01*
X128013750Y-130144000D01*
X128526250Y-130144000D01*
X128609962Y-130160651D01*
G37*
G04 #@! TD.AperFunction*
G04 #@! TD*
G04 #@! TA.AperFunction,SMDPad,CuDef*
G04 #@! TO.P,J3,MP*
G04 #@! TO.N,GND*
G36*
X113383671Y-133205126D02*
G01*
X113464777Y-133259319D01*
X113518970Y-133340425D01*
X113538000Y-133436096D01*
X113538000Y-133936096D01*
X113518970Y-134031767D01*
X113464777Y-134112873D01*
X113383671Y-134167066D01*
X113288000Y-134186096D01*
X111088000Y-134186096D01*
X110992329Y-134167066D01*
X110911223Y-134112873D01*
X110857030Y-134031767D01*
X110838000Y-133936096D01*
X110838000Y-133436096D01*
X110857030Y-133340425D01*
X110911223Y-133259319D01*
X110992329Y-133205126D01*
X111088000Y-133186096D01*
X113288000Y-133186096D01*
X113383671Y-133205126D01*
G37*
G04 #@! TD.AperFunction*
G04 #@! TA.AperFunction,SMDPad,CuDef*
G36*
X113383671Y-140655126D02*
G01*
X113464777Y-140709319D01*
X113518970Y-140790425D01*
X113538000Y-140886096D01*
X113538000Y-141386096D01*
X113518970Y-141481767D01*
X113464777Y-141562873D01*
X113383671Y-141617066D01*
X113288000Y-141636096D01*
X111088000Y-141636096D01*
X110992329Y-141617066D01*
X110911223Y-141562873D01*
X110857030Y-141481767D01*
X110838000Y-141386096D01*
X110838000Y-140886096D01*
X110857030Y-140790425D01*
X110911223Y-140709319D01*
X110992329Y-140655126D01*
X111088000Y-140636096D01*
X113288000Y-140636096D01*
X113383671Y-140655126D01*
G37*
G04 #@! TD.AperFunction*
G04 #@! TA.AperFunction,SMDPad,CuDef*
G04 #@! TO.P,J3,4*
G36*
X116145403Y-135247514D02*
G01*
X116194066Y-135280030D01*
X116226582Y-135328693D01*
X116238000Y-135386096D01*
X116238000Y-135686096D01*
X116226582Y-135743499D01*
X116194066Y-135792162D01*
X116145403Y-135824678D01*
X116088000Y-135836096D01*
X114688000Y-135836096D01*
X114630597Y-135824678D01*
X114581934Y-135792162D01*
X114549418Y-135743499D01*
X114538000Y-135686096D01*
X114538000Y-135386096D01*
X114549418Y-135328693D01*
X114581934Y-135280030D01*
X114630597Y-135247514D01*
X114688000Y-135236096D01*
X116088000Y-135236096D01*
X116145403Y-135247514D01*
G37*
G04 #@! TD.AperFunction*
G04 #@! TA.AperFunction,SMDPad,CuDef*
G04 #@! TO.P,J3,3*
G04 #@! TO.N,/SDA*
G36*
X116145403Y-136497514D02*
G01*
X116194066Y-136530030D01*
X116226582Y-136578693D01*
X116238000Y-136636096D01*
X116238000Y-136936096D01*
X116226582Y-136993499D01*
X116194066Y-137042162D01*
X116145403Y-137074678D01*
X116088000Y-137086096D01*
X114688000Y-137086096D01*
X114630597Y-137074678D01*
X114581934Y-137042162D01*
X114549418Y-136993499D01*
X114538000Y-136936096D01*
X114538000Y-136636096D01*
X114549418Y-136578693D01*
X114581934Y-136530030D01*
X114630597Y-136497514D01*
X114688000Y-136486096D01*
X116088000Y-136486096D01*
X116145403Y-136497514D01*
G37*
G04 #@! TD.AperFunction*
G04 #@! TA.AperFunction,SMDPad,CuDef*
G04 #@! TO.P,J3,2*
G04 #@! TO.N,/SCL*
G36*
X116145403Y-137747514D02*
G01*
X116194066Y-137780030D01*
X116226582Y-137828693D01*
X116238000Y-137886096D01*
X116238000Y-138186096D01*
X116226582Y-138243499D01*
X116194066Y-138292162D01*
X116145403Y-138324678D01*
X116088000Y-138336096D01*
X114688000Y-138336096D01*
X114630597Y-138324678D01*
X114581934Y-138292162D01*
X114549418Y-138243499D01*
X114538000Y-138186096D01*
X114538000Y-137886096D01*
X114549418Y-137828693D01*
X114581934Y-137780030D01*
X114630597Y-137747514D01*
X114688000Y-137736096D01*
X116088000Y-137736096D01*
X116145403Y-137747514D01*
G37*
G04 #@! TD.AperFunction*
G04 #@! TA.AperFunction,SMDPad,CuDef*
G04 #@! TO.P,J3,1*
G04 #@! TO.N,+5V*
G36*
X116145403Y-138997514D02*
G01*
X116194066Y-139030030D01*
X116226582Y-139078693D01*
X116238000Y-139136096D01*
X116238000Y-139436096D01*
X116226582Y-139493499D01*
X116194066Y-139542162D01*
X116145403Y-139574678D01*
X116088000Y-139586096D01*
X114688000Y-139586096D01*
X114630597Y-139574678D01*
X114581934Y-139542162D01*
X114549418Y-139493499D01*
X114538000Y-139436096D01*
X114538000Y-139136096D01*
X114549418Y-139078693D01*
X114581934Y-139030030D01*
X114630597Y-138997514D01*
X114688000Y-138986096D01*
X116088000Y-138986096D01*
X116145403Y-138997514D01*
G37*
G04 #@! TD.AperFunction*
G04 #@! TD*
D15*
G04 #@! TO.P,U3,5*
G04 #@! TO.N,+3V3*
X126873000Y-126296096D03*
G04 #@! TO.P,U3,4*
G04 #@! TO.N,Net-(U3-Pad4)*
X126873000Y-124396096D03*
G04 #@! TO.P,U3,3*
G04 #@! TO.N,+5V*
X124673000Y-124396096D03*
G04 #@! TO.P,U3,2*
G04 #@! TO.N,GND*
X124673000Y-125346096D03*
G04 #@! TO.P,U3,1*
G04 #@! TO.N,+5V*
X124673000Y-126296096D03*
G04 #@! TD*
G04 #@! TA.AperFunction,SMDPad,CuDef*
G04 #@! TO.P,R10,2*
G04 #@! TO.N,Net-(R1-Pad1)*
G36*
X136395462Y-125522747D02*
G01*
X136466430Y-125570166D01*
X136513849Y-125641134D01*
X136530500Y-125724846D01*
X136530500Y-126237346D01*
X136513849Y-126321058D01*
X136466430Y-126392026D01*
X136395462Y-126439445D01*
X136311750Y-126456096D01*
X135874250Y-126456096D01*
X135790538Y-126439445D01*
X135719570Y-126392026D01*
X135672151Y-126321058D01*
X135655500Y-126237346D01*
X135655500Y-125724846D01*
X135672151Y-125641134D01*
X135719570Y-125570166D01*
X135790538Y-125522747D01*
X135874250Y-125506096D01*
X136311750Y-125506096D01*
X136395462Y-125522747D01*
G37*
G04 #@! TD.AperFunction*
G04 #@! TA.AperFunction,SMDPad,CuDef*
G04 #@! TO.P,R10,1*
G04 #@! TO.N,Net-(C2-Pad1)*
G36*
X137970462Y-125522747D02*
G01*
X138041430Y-125570166D01*
X138088849Y-125641134D01*
X138105500Y-125724846D01*
X138105500Y-126237346D01*
X138088849Y-126321058D01*
X138041430Y-126392026D01*
X137970462Y-126439445D01*
X137886750Y-126456096D01*
X137449250Y-126456096D01*
X137365538Y-126439445D01*
X137294570Y-126392026D01*
X137247151Y-126321058D01*
X137230500Y-126237346D01*
X137230500Y-125724846D01*
X137247151Y-125641134D01*
X137294570Y-125570166D01*
X137365538Y-125522747D01*
X137449250Y-125506096D01*
X137886750Y-125506096D01*
X137970462Y-125522747D01*
G37*
G04 #@! TD.AperFunction*
G04 #@! TD*
G04 #@! TA.AperFunction,SMDPad,CuDef*
G04 #@! TO.P,R8,2*
G04 #@! TO.N,Net-(R1-Pad1)*
G36*
X132890462Y-125522747D02*
G01*
X132961430Y-125570166D01*
X133008849Y-125641134D01*
X133025500Y-125724846D01*
X133025500Y-126237346D01*
X133008849Y-126321058D01*
X132961430Y-126392026D01*
X132890462Y-126439445D01*
X132806750Y-126456096D01*
X132369250Y-126456096D01*
X132285538Y-126439445D01*
X132214570Y-126392026D01*
X132167151Y-126321058D01*
X132150500Y-126237346D01*
X132150500Y-125724846D01*
X132167151Y-125641134D01*
X132214570Y-125570166D01*
X132285538Y-125522747D01*
X132369250Y-125506096D01*
X132806750Y-125506096D01*
X132890462Y-125522747D01*
G37*
G04 #@! TD.AperFunction*
G04 #@! TA.AperFunction,SMDPad,CuDef*
G04 #@! TO.P,R8,1*
G04 #@! TO.N,+3V3*
G36*
X131315462Y-125522747D02*
G01*
X131386430Y-125570166D01*
X131433849Y-125641134D01*
X131450500Y-125724846D01*
X131450500Y-126237346D01*
X131433849Y-126321058D01*
X131386430Y-126392026D01*
X131315462Y-126439445D01*
X131231750Y-126456096D01*
X130794250Y-126456096D01*
X130710538Y-126439445D01*
X130639570Y-126392026D01*
X130592151Y-126321058D01*
X130575500Y-126237346D01*
X130575500Y-125724846D01*
X130592151Y-125641134D01*
X130639570Y-125570166D01*
X130710538Y-125522747D01*
X130794250Y-125506096D01*
X131231750Y-125506096D01*
X131315462Y-125522747D01*
G37*
G04 #@! TD.AperFunction*
G04 #@! TD*
G04 #@! TA.AperFunction,SMDPad,CuDef*
G04 #@! TO.P,R7,2*
G04 #@! TO.N,Net-(R5-Pad1)*
G36*
X129308962Y-136447651D02*
G01*
X129379930Y-136495070D01*
X129427349Y-136566038D01*
X129444000Y-136649750D01*
X129444000Y-137162250D01*
X129427349Y-137245962D01*
X129379930Y-137316930D01*
X129308962Y-137364349D01*
X129225250Y-137381000D01*
X128787750Y-137381000D01*
X128704038Y-137364349D01*
X128633070Y-137316930D01*
X128585651Y-137245962D01*
X128569000Y-137162250D01*
X128569000Y-136649750D01*
X128585651Y-136566038D01*
X128633070Y-136495070D01*
X128704038Y-136447651D01*
X128787750Y-136431000D01*
X129225250Y-136431000D01*
X129308962Y-136447651D01*
G37*
G04 #@! TD.AperFunction*
G04 #@! TA.AperFunction,SMDPad,CuDef*
G04 #@! TO.P,R7,1*
G04 #@! TO.N,+3V3*
G36*
X130883962Y-136447651D02*
G01*
X130954930Y-136495070D01*
X131002349Y-136566038D01*
X131019000Y-136649750D01*
X131019000Y-137162250D01*
X131002349Y-137245962D01*
X130954930Y-137316930D01*
X130883962Y-137364349D01*
X130800250Y-137381000D01*
X130362750Y-137381000D01*
X130279038Y-137364349D01*
X130208070Y-137316930D01*
X130160651Y-137245962D01*
X130144000Y-137162250D01*
X130144000Y-136649750D01*
X130160651Y-136566038D01*
X130208070Y-136495070D01*
X130279038Y-136447651D01*
X130362750Y-136431000D01*
X130800250Y-136431000D01*
X130883962Y-136447651D01*
G37*
G04 #@! TD.AperFunction*
G04 #@! TD*
G04 #@! TA.AperFunction,SMDPad,CuDef*
G04 #@! TO.P,R6,2*
G04 #@! TO.N,Net-(R1-Pad1)*
G36*
X132890462Y-123617747D02*
G01*
X132961430Y-123665166D01*
X133008849Y-123736134D01*
X133025500Y-123819846D01*
X133025500Y-124332346D01*
X133008849Y-124416058D01*
X132961430Y-124487026D01*
X132890462Y-124534445D01*
X132806750Y-124551096D01*
X132369250Y-124551096D01*
X132285538Y-124534445D01*
X132214570Y-124487026D01*
X132167151Y-124416058D01*
X132150500Y-124332346D01*
X132150500Y-123819846D01*
X132167151Y-123736134D01*
X132214570Y-123665166D01*
X132285538Y-123617747D01*
X132369250Y-123601096D01*
X132806750Y-123601096D01*
X132890462Y-123617747D01*
G37*
G04 #@! TD.AperFunction*
G04 #@! TA.AperFunction,SMDPad,CuDef*
G04 #@! TO.P,R6,1*
G04 #@! TO.N,+5V*
G36*
X131315462Y-123617747D02*
G01*
X131386430Y-123665166D01*
X131433849Y-123736134D01*
X131450500Y-123819846D01*
X131450500Y-124332346D01*
X131433849Y-124416058D01*
X131386430Y-124487026D01*
X131315462Y-124534445D01*
X131231750Y-124551096D01*
X130794250Y-124551096D01*
X130710538Y-124534445D01*
X130639570Y-124487026D01*
X130592151Y-124416058D01*
X130575500Y-124332346D01*
X130575500Y-123819846D01*
X130592151Y-123736134D01*
X130639570Y-123665166D01*
X130710538Y-123617747D01*
X130794250Y-123601096D01*
X131231750Y-123601096D01*
X131315462Y-123617747D01*
G37*
G04 #@! TD.AperFunction*
G04 #@! TD*
G04 #@! TA.AperFunction,SMDPad,CuDef*
G04 #@! TO.P,R5,2*
G04 #@! TO.N,GND*
G36*
X119465962Y-140295151D02*
G01*
X119536930Y-140342570D01*
X119584349Y-140413538D01*
X119601000Y-140497250D01*
X119601000Y-140934750D01*
X119584349Y-141018462D01*
X119536930Y-141089430D01*
X119465962Y-141136849D01*
X119382250Y-141153500D01*
X118869750Y-141153500D01*
X118786038Y-141136849D01*
X118715070Y-141089430D01*
X118667651Y-141018462D01*
X118651000Y-140934750D01*
X118651000Y-140497250D01*
X118667651Y-140413538D01*
X118715070Y-140342570D01*
X118786038Y-140295151D01*
X118869750Y-140278500D01*
X119382250Y-140278500D01*
X119465962Y-140295151D01*
G37*
G04 #@! TD.AperFunction*
G04 #@! TA.AperFunction,SMDPad,CuDef*
G04 #@! TO.P,R5,1*
G04 #@! TO.N,Net-(R5-Pad1)*
G36*
X119465962Y-138720151D02*
G01*
X119536930Y-138767570D01*
X119584349Y-138838538D01*
X119601000Y-138922250D01*
X119601000Y-139359750D01*
X119584349Y-139443462D01*
X119536930Y-139514430D01*
X119465962Y-139561849D01*
X119382250Y-139578500D01*
X118869750Y-139578500D01*
X118786038Y-139561849D01*
X118715070Y-139514430D01*
X118667651Y-139443462D01*
X118651000Y-139359750D01*
X118651000Y-138922250D01*
X118667651Y-138838538D01*
X118715070Y-138767570D01*
X118786038Y-138720151D01*
X118869750Y-138703500D01*
X119382250Y-138703500D01*
X119465962Y-138720151D01*
G37*
G04 #@! TD.AperFunction*
G04 #@! TD*
G04 #@! TA.AperFunction,SMDPad,CuDef*
G04 #@! TO.P,R4,2*
G04 #@! TO.N,Net-(D2-Pad2)*
G36*
X129625962Y-139533151D02*
G01*
X129696930Y-139580570D01*
X129744349Y-139651538D01*
X129761000Y-139735250D01*
X129761000Y-140172750D01*
X129744349Y-140256462D01*
X129696930Y-140327430D01*
X129625962Y-140374849D01*
X129542250Y-140391500D01*
X129029750Y-140391500D01*
X128946038Y-140374849D01*
X128875070Y-140327430D01*
X128827651Y-140256462D01*
X128811000Y-140172750D01*
X128811000Y-139735250D01*
X128827651Y-139651538D01*
X128875070Y-139580570D01*
X128946038Y-139533151D01*
X129029750Y-139516500D01*
X129542250Y-139516500D01*
X129625962Y-139533151D01*
G37*
G04 #@! TD.AperFunction*
G04 #@! TA.AperFunction,SMDPad,CuDef*
G04 #@! TO.P,R4,1*
G04 #@! TO.N,Net-(R4-Pad1)*
G36*
X129625962Y-137958151D02*
G01*
X129696930Y-138005570D01*
X129744349Y-138076538D01*
X129761000Y-138160250D01*
X129761000Y-138597750D01*
X129744349Y-138681462D01*
X129696930Y-138752430D01*
X129625962Y-138799849D01*
X129542250Y-138816500D01*
X129029750Y-138816500D01*
X128946038Y-138799849D01*
X128875070Y-138752430D01*
X128827651Y-138681462D01*
X128811000Y-138597750D01*
X128811000Y-138160250D01*
X128827651Y-138076538D01*
X128875070Y-138005570D01*
X128946038Y-137958151D01*
X129029750Y-137941500D01*
X129542250Y-137941500D01*
X129625962Y-137958151D01*
G37*
G04 #@! TD.AperFunction*
G04 #@! TD*
G04 #@! TA.AperFunction,SMDPad,CuDef*
G04 #@! TO.P,R3,2*
G04 #@! TO.N,/SDA*
G36*
X122132962Y-129370247D02*
G01*
X122203930Y-129417666D01*
X122251349Y-129488634D01*
X122268000Y-129572346D01*
X122268000Y-130009846D01*
X122251349Y-130093558D01*
X122203930Y-130164526D01*
X122132962Y-130211945D01*
X122049250Y-130228596D01*
X121536750Y-130228596D01*
X121453038Y-130211945D01*
X121382070Y-130164526D01*
X121334651Y-130093558D01*
X121318000Y-130009846D01*
X121318000Y-129572346D01*
X121334651Y-129488634D01*
X121382070Y-129417666D01*
X121453038Y-129370247D01*
X121536750Y-129353596D01*
X122049250Y-129353596D01*
X122132962Y-129370247D01*
G37*
G04 #@! TD.AperFunction*
G04 #@! TA.AperFunction,SMDPad,CuDef*
G04 #@! TO.P,R3,1*
G04 #@! TO.N,+3V3*
G36*
X122132962Y-127795247D02*
G01*
X122203930Y-127842666D01*
X122251349Y-127913634D01*
X122268000Y-127997346D01*
X122268000Y-128434846D01*
X122251349Y-128518558D01*
X122203930Y-128589526D01*
X122132962Y-128636945D01*
X122049250Y-128653596D01*
X121536750Y-128653596D01*
X121453038Y-128636945D01*
X121382070Y-128589526D01*
X121334651Y-128518558D01*
X121318000Y-128434846D01*
X121318000Y-127997346D01*
X121334651Y-127913634D01*
X121382070Y-127842666D01*
X121453038Y-127795247D01*
X121536750Y-127778596D01*
X122049250Y-127778596D01*
X122132962Y-127795247D01*
G37*
G04 #@! TD.AperFunction*
G04 #@! TD*
G04 #@! TA.AperFunction,SMDPad,CuDef*
G04 #@! TO.P,R2,2*
G04 #@! TO.N,/SCL*
G36*
X124037962Y-129370247D02*
G01*
X124108930Y-129417666D01*
X124156349Y-129488634D01*
X124173000Y-129572346D01*
X124173000Y-130009846D01*
X124156349Y-130093558D01*
X124108930Y-130164526D01*
X124037962Y-130211945D01*
X123954250Y-130228596D01*
X123441750Y-130228596D01*
X123358038Y-130211945D01*
X123287070Y-130164526D01*
X123239651Y-130093558D01*
X123223000Y-130009846D01*
X123223000Y-129572346D01*
X123239651Y-129488634D01*
X123287070Y-129417666D01*
X123358038Y-129370247D01*
X123441750Y-129353596D01*
X123954250Y-129353596D01*
X124037962Y-129370247D01*
G37*
G04 #@! TD.AperFunction*
G04 #@! TA.AperFunction,SMDPad,CuDef*
G04 #@! TO.P,R2,1*
G04 #@! TO.N,+3V3*
G36*
X124037962Y-127795247D02*
G01*
X124108930Y-127842666D01*
X124156349Y-127913634D01*
X124173000Y-127997346D01*
X124173000Y-128434846D01*
X124156349Y-128518558D01*
X124108930Y-128589526D01*
X124037962Y-128636945D01*
X123954250Y-128653596D01*
X123441750Y-128653596D01*
X123358038Y-128636945D01*
X123287070Y-128589526D01*
X123239651Y-128518558D01*
X123223000Y-128434846D01*
X123223000Y-127997346D01*
X123239651Y-127913634D01*
X123287070Y-127842666D01*
X123358038Y-127795247D01*
X123441750Y-127778596D01*
X123954250Y-127778596D01*
X124037962Y-127795247D01*
G37*
G04 #@! TD.AperFunction*
G04 #@! TD*
G04 #@! TA.AperFunction,SMDPad,CuDef*
G04 #@! TO.P,R1,2*
G04 #@! TO.N,/COUNT*
G36*
X137970462Y-123490747D02*
G01*
X138041430Y-123538166D01*
X138088849Y-123609134D01*
X138105500Y-123692846D01*
X138105500Y-124205346D01*
X138088849Y-124289058D01*
X138041430Y-124360026D01*
X137970462Y-124407445D01*
X137886750Y-124424096D01*
X137449250Y-124424096D01*
X137365538Y-124407445D01*
X137294570Y-124360026D01*
X137247151Y-124289058D01*
X137230500Y-124205346D01*
X137230500Y-123692846D01*
X137247151Y-123609134D01*
X137294570Y-123538166D01*
X137365538Y-123490747D01*
X137449250Y-123474096D01*
X137886750Y-123474096D01*
X137970462Y-123490747D01*
G37*
G04 #@! TD.AperFunction*
G04 #@! TA.AperFunction,SMDPad,CuDef*
G04 #@! TO.P,R1,1*
G04 #@! TO.N,Net-(R1-Pad1)*
G36*
X136395462Y-123490747D02*
G01*
X136466430Y-123538166D01*
X136513849Y-123609134D01*
X136530500Y-123692846D01*
X136530500Y-124205346D01*
X136513849Y-124289058D01*
X136466430Y-124360026D01*
X136395462Y-124407445D01*
X136311750Y-124424096D01*
X135874250Y-124424096D01*
X135790538Y-124407445D01*
X135719570Y-124360026D01*
X135672151Y-124289058D01*
X135655500Y-124205346D01*
X135655500Y-123692846D01*
X135672151Y-123609134D01*
X135719570Y-123538166D01*
X135790538Y-123490747D01*
X135874250Y-123474096D01*
X136311750Y-123474096D01*
X136395462Y-123490747D01*
G37*
G04 #@! TD.AperFunction*
G04 #@! TD*
D16*
G04 #@! TO.P,M2,1*
G04 #@! TO.N,GND*
X132588000Y-132331096D03*
G04 #@! TD*
G04 #@! TA.AperFunction,SMDPad,CuDef*
G04 #@! TO.P,J2,MP*
G04 #@! TO.N,GND*
G36*
X113383671Y-123045126D02*
G01*
X113464777Y-123099319D01*
X113518970Y-123180425D01*
X113538000Y-123276096D01*
X113538000Y-123776096D01*
X113518970Y-123871767D01*
X113464777Y-123952873D01*
X113383671Y-124007066D01*
X113288000Y-124026096D01*
X111088000Y-124026096D01*
X110992329Y-124007066D01*
X110911223Y-123952873D01*
X110857030Y-123871767D01*
X110838000Y-123776096D01*
X110838000Y-123276096D01*
X110857030Y-123180425D01*
X110911223Y-123099319D01*
X110992329Y-123045126D01*
X111088000Y-123026096D01*
X113288000Y-123026096D01*
X113383671Y-123045126D01*
G37*
G04 #@! TD.AperFunction*
G04 #@! TA.AperFunction,SMDPad,CuDef*
G36*
X113383671Y-130495126D02*
G01*
X113464777Y-130549319D01*
X113518970Y-130630425D01*
X113538000Y-130726096D01*
X113538000Y-131226096D01*
X113518970Y-131321767D01*
X113464777Y-131402873D01*
X113383671Y-131457066D01*
X113288000Y-131476096D01*
X111088000Y-131476096D01*
X110992329Y-131457066D01*
X110911223Y-131402873D01*
X110857030Y-131321767D01*
X110838000Y-131226096D01*
X110838000Y-130726096D01*
X110857030Y-130630425D01*
X110911223Y-130549319D01*
X110992329Y-130495126D01*
X111088000Y-130476096D01*
X113288000Y-130476096D01*
X113383671Y-130495126D01*
G37*
G04 #@! TD.AperFunction*
G04 #@! TA.AperFunction,SMDPad,CuDef*
G04 #@! TO.P,J2,4*
G36*
X116145403Y-125087514D02*
G01*
X116194066Y-125120030D01*
X116226582Y-125168693D01*
X116238000Y-125226096D01*
X116238000Y-125526096D01*
X116226582Y-125583499D01*
X116194066Y-125632162D01*
X116145403Y-125664678D01*
X116088000Y-125676096D01*
X114688000Y-125676096D01*
X114630597Y-125664678D01*
X114581934Y-125632162D01*
X114549418Y-125583499D01*
X114538000Y-125526096D01*
X114538000Y-125226096D01*
X114549418Y-125168693D01*
X114581934Y-125120030D01*
X114630597Y-125087514D01*
X114688000Y-125076096D01*
X116088000Y-125076096D01*
X116145403Y-125087514D01*
G37*
G04 #@! TD.AperFunction*
G04 #@! TA.AperFunction,SMDPad,CuDef*
G04 #@! TO.P,J2,3*
G04 #@! TO.N,/SDA*
G36*
X116145403Y-126337514D02*
G01*
X116194066Y-126370030D01*
X116226582Y-126418693D01*
X116238000Y-126476096D01*
X116238000Y-126776096D01*
X116226582Y-126833499D01*
X116194066Y-126882162D01*
X116145403Y-126914678D01*
X116088000Y-126926096D01*
X114688000Y-126926096D01*
X114630597Y-126914678D01*
X114581934Y-126882162D01*
X114549418Y-126833499D01*
X114538000Y-126776096D01*
X114538000Y-126476096D01*
X114549418Y-126418693D01*
X114581934Y-126370030D01*
X114630597Y-126337514D01*
X114688000Y-126326096D01*
X116088000Y-126326096D01*
X116145403Y-126337514D01*
G37*
G04 #@! TD.AperFunction*
G04 #@! TA.AperFunction,SMDPad,CuDef*
G04 #@! TO.P,J2,2*
G04 #@! TO.N,/SCL*
G36*
X116145403Y-127587514D02*
G01*
X116194066Y-127620030D01*
X116226582Y-127668693D01*
X116238000Y-127726096D01*
X116238000Y-128026096D01*
X116226582Y-128083499D01*
X116194066Y-128132162D01*
X116145403Y-128164678D01*
X116088000Y-128176096D01*
X114688000Y-128176096D01*
X114630597Y-128164678D01*
X114581934Y-128132162D01*
X114549418Y-128083499D01*
X114538000Y-128026096D01*
X114538000Y-127726096D01*
X114549418Y-127668693D01*
X114581934Y-127620030D01*
X114630597Y-127587514D01*
X114688000Y-127576096D01*
X116088000Y-127576096D01*
X116145403Y-127587514D01*
G37*
G04 #@! TD.AperFunction*
G04 #@! TA.AperFunction,SMDPad,CuDef*
G04 #@! TO.P,J2,1*
G04 #@! TO.N,+5V*
G36*
X116145403Y-128837514D02*
G01*
X116194066Y-128870030D01*
X116226582Y-128918693D01*
X116238000Y-128976096D01*
X116238000Y-129276096D01*
X116226582Y-129333499D01*
X116194066Y-129382162D01*
X116145403Y-129414678D01*
X116088000Y-129426096D01*
X114688000Y-129426096D01*
X114630597Y-129414678D01*
X114581934Y-129382162D01*
X114549418Y-129333499D01*
X114538000Y-129276096D01*
X114538000Y-128976096D01*
X114549418Y-128918693D01*
X114581934Y-128870030D01*
X114630597Y-128837514D01*
X114688000Y-128826096D01*
X116088000Y-128826096D01*
X116145403Y-128837514D01*
G37*
G04 #@! TD.AperFunction*
G04 #@! TD*
D17*
G04 #@! TO.P,D1,2*
G04 #@! TO.N,GND*
X118110000Y-134338000D03*
G04 #@! TO.P,D1,1*
G04 #@! TO.N,+5V*
X118110000Y-130838000D03*
G04 #@! TD*
G04 #@! TA.AperFunction,SMDPad,CuDef*
G04 #@! TO.P,C4,2*
G04 #@! TO.N,GND*
G36*
X122132962Y-124137747D02*
G01*
X122203930Y-124185166D01*
X122251349Y-124256134D01*
X122268000Y-124339846D01*
X122268000Y-124777346D01*
X122251349Y-124861058D01*
X122203930Y-124932026D01*
X122132962Y-124979445D01*
X122049250Y-124996096D01*
X121536750Y-124996096D01*
X121453038Y-124979445D01*
X121382070Y-124932026D01*
X121334651Y-124861058D01*
X121318000Y-124777346D01*
X121318000Y-124339846D01*
X121334651Y-124256134D01*
X121382070Y-124185166D01*
X121453038Y-124137747D01*
X121536750Y-124121096D01*
X122049250Y-124121096D01*
X122132962Y-124137747D01*
G37*
G04 #@! TD.AperFunction*
G04 #@! TA.AperFunction,SMDPad,CuDef*
G04 #@! TO.P,C4,1*
G04 #@! TO.N,+5V*
G36*
X122132962Y-125712747D02*
G01*
X122203930Y-125760166D01*
X122251349Y-125831134D01*
X122268000Y-125914846D01*
X122268000Y-126352346D01*
X122251349Y-126436058D01*
X122203930Y-126507026D01*
X122132962Y-126554445D01*
X122049250Y-126571096D01*
X121536750Y-126571096D01*
X121453038Y-126554445D01*
X121382070Y-126507026D01*
X121334651Y-126436058D01*
X121318000Y-126352346D01*
X121318000Y-125914846D01*
X121334651Y-125831134D01*
X121382070Y-125760166D01*
X121453038Y-125712747D01*
X121536750Y-125696096D01*
X122049250Y-125696096D01*
X122132962Y-125712747D01*
G37*
G04 #@! TD.AperFunction*
G04 #@! TD*
D18*
G04 #@! TO.P,C3,1*
G04 #@! TO.N,+5V*
X119253000Y-126616096D03*
G04 #@! TO.P,C3,2*
G04 #@! TO.N,GND*
X119253000Y-124711096D03*
G04 #@! TD*
D19*
G04 #@! TO.P,C2,1*
G04 #@! TO.N,Net-(C2-Pad1)*
X141224000Y-127251096D03*
G04 #@! TO.P,C2,2*
G04 #@! TO.N,GND*
X139319000Y-127251096D03*
G04 #@! TD*
G04 #@! TA.AperFunction,SMDPad,CuDef*
G04 #@! TO.P,C1,2*
G04 #@! TO.N,GND*
G36*
X129117962Y-125255247D02*
G01*
X129188930Y-125302666D01*
X129236349Y-125373634D01*
X129253000Y-125457346D01*
X129253000Y-125894846D01*
X129236349Y-125978558D01*
X129188930Y-126049526D01*
X129117962Y-126096945D01*
X129034250Y-126113596D01*
X128521750Y-126113596D01*
X128438038Y-126096945D01*
X128367070Y-126049526D01*
X128319651Y-125978558D01*
X128303000Y-125894846D01*
X128303000Y-125457346D01*
X128319651Y-125373634D01*
X128367070Y-125302666D01*
X128438038Y-125255247D01*
X128521750Y-125238596D01*
X129034250Y-125238596D01*
X129117962Y-125255247D01*
G37*
G04 #@! TD.AperFunction*
G04 #@! TA.AperFunction,SMDPad,CuDef*
G04 #@! TO.P,C1,1*
G04 #@! TO.N,+3V3*
G36*
X129117962Y-126830247D02*
G01*
X129188930Y-126877666D01*
X129236349Y-126948634D01*
X129253000Y-127032346D01*
X129253000Y-127469846D01*
X129236349Y-127553558D01*
X129188930Y-127624526D01*
X129117962Y-127671945D01*
X129034250Y-127688596D01*
X128521750Y-127688596D01*
X128438038Y-127671945D01*
X128367070Y-127624526D01*
X128319651Y-127553558D01*
X128303000Y-127469846D01*
X128303000Y-127032346D01*
X128319651Y-126948634D01*
X128367070Y-126877666D01*
X128438038Y-126830247D01*
X128521750Y-126813596D01*
X129034250Y-126813596D01*
X129117962Y-126830247D01*
G37*
G04 #@! TD.AperFunction*
G04 #@! TD*
D20*
G04 #@! TO.N,GND*
X120904000Y-140970000D03*
X120904000Y-139954000D03*
X120904000Y-138938000D03*
X115316000Y-133855096D03*
X115316000Y-132331096D03*
X115316000Y-130807096D03*
X141986000Y-138938000D03*
X120396000Y-130048000D03*
X120396000Y-128524000D03*
X119634000Y-129286000D03*
X137806906Y-140061793D03*
X143002000Y-136652000D03*
X143002000Y-135382000D03*
X143002000Y-134109096D03*
X143764000Y-138935096D03*
X143764000Y-139951096D03*
X143764000Y-140967096D03*
X138176000Y-136903096D03*
X135636000Y-128775096D03*
X136652000Y-128775096D03*
X137668000Y-127759096D03*
X136652000Y-127759096D03*
X135636000Y-127759096D03*
X134620000Y-127759096D03*
X140208000Y-124965096D03*
X138938000Y-124965096D03*
X134874000Y-124965096D03*
X133858000Y-124965096D03*
G04 #@! TO.N,+5V*
X130048000Y-124965096D03*
X123383000Y-126296096D03*
G04 #@! TO.N,GND*
X129540000Y-128270000D03*
X130810000Y-129032000D03*
X126746000Y-128778000D03*
X117094000Y-123695096D03*
X120142000Y-134363096D03*
X112268000Y-125981096D03*
X112268000Y-126997096D03*
X112268000Y-128013096D03*
X112268000Y-129029096D03*
X112268000Y-138681096D03*
X112268000Y-137665096D03*
X112268000Y-136649096D03*
X112268000Y-135633096D03*
X127508000Y-137160000D03*
X127508000Y-138173096D03*
X125476000Y-134874000D03*
X124206000Y-134874000D03*
X115316000Y-140713096D03*
X117094000Y-140713096D03*
G04 #@! TO.N,+3V3*
X135636000Y-136141096D03*
X135890000Y-140967096D03*
G04 #@! TO.N,+5V*
X118618000Y-132331096D03*
X117094000Y-139443096D03*
G04 #@! TO.N,/SDA*
X117221000Y-136776096D03*
X117221000Y-126616096D03*
G04 #@! TO.N,GND*
X126746000Y-134874000D03*
X127762000Y-132842000D03*
X119888000Y-131064000D03*
X119888000Y-132842000D03*
X127762000Y-140970000D03*
X120650000Y-123698000D03*
X117094000Y-125222000D03*
X115824000Y-123698000D03*
G04 #@! TD*
D21*
G04 #@! TO.N,+3V3*
X126238000Y-131568000D02*
X127283500Y-131568000D01*
X127283500Y-131568000D02*
X128270000Y-130581500D01*
G04 #@! TO.N,Net-(R4-Pad1)*
X126238000Y-139236000D02*
X128429000Y-139236000D01*
X128429000Y-139236000D02*
X129286000Y-138379000D01*
G04 #@! TO.N,Net-(R5-Pad1)*
X123192904Y-136141096D02*
X123700904Y-136141096D01*
X119769856Y-138736106D02*
X122364866Y-136141096D01*
X122364866Y-136141096D02*
X123192904Y-136141096D01*
X119126000Y-138938000D02*
X119327894Y-138736106D01*
X119126000Y-139141000D02*
X119126000Y-138938000D01*
X119327894Y-138736106D02*
X119769856Y-138736106D01*
X123700904Y-136141096D02*
X127736500Y-136141096D01*
X123698000Y-138549896D02*
X123698000Y-136144000D01*
X123698000Y-136144000D02*
X123700904Y-136141096D01*
G04 #@! TO.N,+5V*
X118110000Y-130838000D02*
X118110000Y-131823096D01*
X118110000Y-131823096D02*
X118618000Y-132331096D01*
X117253904Y-129126096D02*
X117687500Y-129126096D01*
X115388000Y-129126096D02*
X117253904Y-129126096D01*
X118110000Y-130838000D02*
X118110000Y-129688000D01*
X118110000Y-129688000D02*
X117548096Y-129126096D01*
X117548096Y-129126096D02*
X117253904Y-129126096D01*
G04 #@! TO.N,/SDA*
X115388000Y-136786096D02*
X117211000Y-136786096D01*
X117211000Y-136786096D02*
X117221000Y-136776096D01*
X117221000Y-136776096D02*
X119469904Y-136776096D01*
X122428000Y-133818000D02*
X122428000Y-131568000D01*
X119469904Y-136776096D02*
X122428000Y-133818000D01*
G04 #@! TO.N,/SCL*
X115388000Y-138036096D02*
X119479904Y-138036096D01*
X119479904Y-138036096D02*
X123698000Y-133818000D01*
X123698000Y-133818000D02*
X123698000Y-131568000D01*
D22*
G04 #@! TO.N,Net-(R4-Pad1)*
X138684000Y-139700000D02*
X139525000Y-139700000D01*
X139525000Y-139700000D02*
X140350000Y-140525000D01*
X140350000Y-140525000D02*
X140350000Y-140650000D01*
X137414000Y-138427096D02*
X137414000Y-138430000D01*
X137414000Y-138430000D02*
X138684000Y-139700000D01*
G04 #@! TO.N,+3V3*
X136906000Y-140967096D02*
X138732904Y-140967096D01*
X138732904Y-140967096D02*
X139050000Y-140650000D01*
G04 #@! TO.N,/COUNT*
X139700000Y-136398000D02*
X138303000Y-135001000D01*
X139700000Y-138750000D02*
X139700000Y-136398000D01*
X138303000Y-135001000D02*
X138303000Y-134871096D01*
D21*
G04 #@! TO.N,GND*
X137137209Y-139392096D02*
X137806906Y-140061793D01*
X136906000Y-139392096D02*
X137137209Y-139392096D01*
X122423000Y-139721096D02*
X122423000Y-140210096D01*
G04 #@! TO.N,+5V*
X130048000Y-124965096D02*
X130124000Y-124965096D01*
X130124000Y-124965096D02*
X131013000Y-124076096D01*
X124673000Y-126296096D02*
X123383000Y-126296096D01*
G04 #@! TO.N,Net-(R1-Pad1)*
X136093000Y-125981096D02*
X136093000Y-123949096D01*
X132588000Y-125981096D02*
X136093000Y-125981096D01*
X132588000Y-124076096D02*
X132588000Y-125981096D01*
G04 #@! TO.N,+3V3*
X124917000Y-128216096D02*
X124917000Y-128047096D01*
X124917000Y-128047096D02*
X126668000Y-126296096D01*
X126668000Y-126296096D02*
X126873000Y-126296096D01*
X136906000Y-140967096D02*
X135890000Y-140967096D01*
X128778000Y-127251096D02*
X129743000Y-127251096D01*
X129743000Y-127251096D02*
X131013000Y-125981096D01*
X128778000Y-127251096D02*
X127828000Y-127251096D01*
X127828000Y-127251096D02*
X126873000Y-126296096D01*
G04 #@! TO.N,/COUNT*
X142494000Y-125981096D02*
X142494000Y-130045096D01*
X142494000Y-130807096D02*
X142494000Y-130045096D01*
X138430000Y-134871096D02*
X142494000Y-130807096D01*
X140462000Y-123949096D02*
X142494000Y-125981096D01*
X137668000Y-123949096D02*
X140462000Y-123949096D01*
G04 #@! TO.N,Net-(C2-Pad1)*
X137668000Y-125981096D02*
X139954000Y-125981096D01*
X139954000Y-125981096D02*
X141224000Y-127251096D01*
X138303000Y-132331096D02*
X139505081Y-132331096D01*
X139505081Y-132331096D02*
X141224000Y-130612177D01*
X141224000Y-130612177D02*
X141224000Y-128449596D01*
X141224000Y-128449596D02*
X141224000Y-127251096D01*
G04 #@! TO.N,+5V*
X116937000Y-139286096D02*
X117094000Y-139443096D01*
X115388000Y-139286096D02*
X116937000Y-139286096D01*
G04 #@! TO.N,/COUNT*
X138303000Y-134871096D02*
X138430000Y-134871096D01*
G04 #@! TO.N,Net-(D2-Pad2)*
X129337000Y-139697096D02*
X130874000Y-139697096D01*
G04 #@! TO.N,/SDA*
X117211000Y-126626096D02*
X117221000Y-126616096D01*
X115388000Y-126626096D02*
X117211000Y-126626096D01*
G04 #@! TO.N,/SCL*
X115388000Y-138036096D02*
X114538000Y-138036096D01*
X114538000Y-138036096D02*
X114087990Y-137586086D01*
X114087990Y-128326106D02*
X114538000Y-127876096D01*
X114087990Y-137586086D02*
X114087990Y-128326106D01*
X114538000Y-127876096D02*
X115388000Y-127876096D01*
G04 #@! TO.N,+5V*
X123383000Y-126296096D02*
X122743000Y-126296096D01*
X123643000Y-124396096D02*
X124673000Y-124396096D01*
X122743000Y-126296096D02*
X121955500Y-126296096D01*
X122743000Y-126296096D02*
X122743000Y-125296096D01*
X122743000Y-125296096D02*
X123643000Y-124396096D01*
X121955500Y-126296096D02*
X121793000Y-126133596D01*
X117687500Y-129126096D02*
X119253000Y-127560596D01*
X119253000Y-127560596D02*
X119253000Y-126616096D01*
X121793000Y-126133596D02*
X119735500Y-126133596D01*
X119735500Y-126133596D02*
X119253000Y-126616096D01*
G04 #@! TO.N,/SDA*
X122428000Y-130426096D02*
X121793000Y-129791096D01*
X122428000Y-132577096D02*
X122428000Y-130426096D01*
G04 #@! TO.N,/SCL*
X123698000Y-132577096D02*
X123698000Y-129791096D01*
G04 #@! TO.N,+3V3*
X121793000Y-128216096D02*
X123698000Y-128216096D01*
X126238000Y-132577096D02*
X126238000Y-129537096D01*
X124917000Y-128216096D02*
X123698000Y-128216096D01*
X126238000Y-129537096D02*
X124917000Y-128216096D01*
G04 #@! TO.N,Net-(R4-Pad1)*
X136398000Y-137411096D02*
X137414000Y-138427096D01*
X131828904Y-137411096D02*
X136398000Y-137411096D01*
X130861000Y-138379000D02*
X131828904Y-137411096D01*
X129286000Y-138379000D02*
X130861000Y-138379000D01*
G04 #@! TO.N,+3V3*
X135066010Y-136711086D02*
X135195999Y-136581097D01*
X131213914Y-136711086D02*
X135066010Y-136711086D01*
X135195999Y-136581097D02*
X135636000Y-136141096D01*
X131019000Y-136906000D02*
X131213914Y-136711086D01*
X130581500Y-136906000D02*
X131019000Y-136906000D01*
X126238000Y-133013200D02*
X126238000Y-131568000D01*
X127844800Y-134620000D02*
X126238000Y-133013200D01*
X128270000Y-134620000D02*
X127844800Y-134620000D01*
X130581500Y-136906000D02*
X130556000Y-136906000D01*
X130556000Y-136906000D02*
X128270000Y-134620000D01*
G04 #@! TO.N,Net-(R5-Pad1)*
X128501404Y-136906000D02*
X129006500Y-136906000D01*
X127736500Y-136141096D02*
X128501404Y-136906000D01*
D23*
G04 #@! TO.N,GND*
X127196315Y-141224000D02*
X127762000Y-141224000D01*
X122286010Y-141336010D02*
X127084305Y-141336010D01*
X127084305Y-141336010D02*
X127196315Y-141224000D01*
X120904000Y-139954000D02*
X122286010Y-141336010D01*
G04 #@! TD*
G04 #@! TO.N,GND*
G36*
X148072001Y-141380096D02*
G01*
X140697043Y-141380096D01*
X140716217Y-141376282D01*
X140857129Y-141282129D01*
X140951282Y-141141217D01*
X140981877Y-140987410D01*
X140981877Y-140312590D01*
X140951282Y-140158783D01*
X140857129Y-140017871D01*
X140716217Y-139923718D01*
X140613604Y-139903306D01*
X140138369Y-139428072D01*
X140207129Y-139382129D01*
X140301282Y-139241217D01*
X140331877Y-139087410D01*
X140331877Y-138412590D01*
X140326000Y-138383044D01*
X140326000Y-136425317D01*
X140333238Y-136342598D01*
X140311745Y-136262389D01*
X140297322Y-136180594D01*
X140283337Y-136156369D01*
X140276099Y-136129359D01*
X140228474Y-136061343D01*
X140186942Y-135989408D01*
X140123317Y-135936020D01*
X139584877Y-135397580D01*
X139584877Y-134672225D01*
X142921004Y-131336100D01*
X142955241Y-131313993D01*
X143000421Y-131256683D01*
X143011677Y-131245428D01*
X143034774Y-131213108D01*
X143098056Y-131132834D01*
X143101375Y-131119907D01*
X143109453Y-131108603D01*
X143173933Y-130892992D01*
X143170000Y-130792876D01*
X143170000Y-126053218D01*
X143178577Y-126013379D01*
X143170000Y-125940912D01*
X143170000Y-125924990D01*
X143163478Y-125885805D01*
X143151463Y-125784294D01*
X143144670Y-125772808D01*
X143142389Y-125759102D01*
X143035523Y-125561047D01*
X142961915Y-125493004D01*
X140991005Y-123522094D01*
X140968897Y-123487855D01*
X140911582Y-123442671D01*
X140900331Y-123431419D01*
X140868030Y-123408337D01*
X140787737Y-123345040D01*
X140774809Y-123341720D01*
X140763506Y-123333643D01*
X140547895Y-123269163D01*
X140447780Y-123273096D01*
X138371322Y-123273096D01*
X138333579Y-123232096D01*
X148072000Y-123232096D01*
X148072001Y-141380096D01*
G37*
D24*
X148072001Y-141380096D02*
X140697043Y-141380096D01*
X140716217Y-141376282D01*
X140857129Y-141282129D01*
X140951282Y-141141217D01*
X140981877Y-140987410D01*
X140981877Y-140312590D01*
X140951282Y-140158783D01*
X140857129Y-140017871D01*
X140716217Y-139923718D01*
X140613604Y-139903306D01*
X140138369Y-139428072D01*
X140207129Y-139382129D01*
X140301282Y-139241217D01*
X140331877Y-139087410D01*
X140331877Y-138412590D01*
X140326000Y-138383044D01*
X140326000Y-136425317D01*
X140333238Y-136342598D01*
X140311745Y-136262389D01*
X140297322Y-136180594D01*
X140283337Y-136156369D01*
X140276099Y-136129359D01*
X140228474Y-136061343D01*
X140186942Y-135989408D01*
X140123317Y-135936020D01*
X139584877Y-135397580D01*
X139584877Y-134672225D01*
X142921004Y-131336100D01*
X142955241Y-131313993D01*
X143000421Y-131256683D01*
X143011677Y-131245428D01*
X143034774Y-131213108D01*
X143098056Y-131132834D01*
X143101375Y-131119907D01*
X143109453Y-131108603D01*
X143173933Y-130892992D01*
X143170000Y-130792876D01*
X143170000Y-126053218D01*
X143178577Y-126013379D01*
X143170000Y-125940912D01*
X143170000Y-125924990D01*
X143163478Y-125885805D01*
X143151463Y-125784294D01*
X143144670Y-125772808D01*
X143142389Y-125759102D01*
X143035523Y-125561047D01*
X142961915Y-125493004D01*
X140991005Y-123522094D01*
X140968897Y-123487855D01*
X140911582Y-123442671D01*
X140900331Y-123431419D01*
X140868030Y-123408337D01*
X140787737Y-123345040D01*
X140774809Y-123341720D01*
X140763506Y-123333643D01*
X140547895Y-123269163D01*
X140447780Y-123273096D01*
X138371322Y-123273096D01*
X138333579Y-123232096D01*
X148072000Y-123232096D01*
X148072001Y-141380096D01*
G36*
X130439650Y-123275299D02*
G01*
X130281136Y-123421222D01*
X130178592Y-123610707D01*
X130144872Y-123812780D01*
X130144872Y-123988217D01*
X130000430Y-124132659D01*
X129989731Y-124131808D01*
X129747287Y-124185780D01*
X129531430Y-124308652D01*
X129361245Y-124489565D01*
X129251779Y-124712520D01*
X129212710Y-124957806D01*
X129247492Y-125203738D01*
X129353051Y-125428570D01*
X129520052Y-125612424D01*
X129733732Y-125739046D01*
X129975197Y-125797239D01*
X130144872Y-125786713D01*
X130144872Y-125893215D01*
X129474087Y-126564001D01*
X129432874Y-126519232D01*
X129243389Y-126416688D01*
X129041316Y-126382968D01*
X128517302Y-126382968D01*
X128362013Y-126402325D01*
X128167149Y-126487799D01*
X128090902Y-126557991D01*
X127834877Y-126301966D01*
X127834877Y-125958686D01*
X127804282Y-125804879D01*
X127710129Y-125663967D01*
X127569217Y-125569814D01*
X127415410Y-125539219D01*
X126330590Y-125539219D01*
X126176783Y-125569814D01*
X126035871Y-125663967D01*
X125941718Y-125804879D01*
X125911123Y-125958686D01*
X125911123Y-126096966D01*
X125634877Y-126373212D01*
X125634877Y-125958686D01*
X125604282Y-125804879D01*
X125510129Y-125663967D01*
X125369217Y-125569814D01*
X125215410Y-125539219D01*
X124130590Y-125539219D01*
X123976783Y-125569814D01*
X123901529Y-125620096D01*
X123860433Y-125620096D01*
X123803184Y-125574149D01*
X123572327Y-125482513D01*
X123516994Y-125478109D01*
X123914405Y-125080699D01*
X123976783Y-125122378D01*
X124130590Y-125152973D01*
X125215410Y-125152973D01*
X125369217Y-125122378D01*
X125510129Y-125028225D01*
X125604282Y-124887313D01*
X125634877Y-124733506D01*
X125634877Y-124058686D01*
X125911123Y-124058686D01*
X125911123Y-124733506D01*
X125941718Y-124887313D01*
X126035871Y-125028225D01*
X126176783Y-125122378D01*
X126330590Y-125152973D01*
X127415410Y-125152973D01*
X127569217Y-125122378D01*
X127710129Y-125028225D01*
X127804282Y-124887313D01*
X127834877Y-124733506D01*
X127834877Y-124058686D01*
X127804282Y-123904879D01*
X127710129Y-123763967D01*
X127569217Y-123669814D01*
X127415410Y-123639219D01*
X126330590Y-123639219D01*
X126176783Y-123669814D01*
X126035871Y-123763967D01*
X125941718Y-123904879D01*
X125911123Y-124058686D01*
X125634877Y-124058686D01*
X125604282Y-123904879D01*
X125510129Y-123763967D01*
X125369217Y-123669814D01*
X125215410Y-123639219D01*
X124130590Y-123639219D01*
X123976783Y-123669814D01*
X123901529Y-123720096D01*
X123715122Y-123720096D01*
X123675283Y-123711519D01*
X123602816Y-123720096D01*
X123586894Y-123720096D01*
X123547707Y-123726619D01*
X123446198Y-123738633D01*
X123434710Y-123745427D01*
X123421006Y-123747708D01*
X123222951Y-123854573D01*
X123154932Y-123928155D01*
X122315994Y-124767094D01*
X122281760Y-124789199D01*
X122236580Y-124846509D01*
X122225323Y-124857765D01*
X122202231Y-124890080D01*
X122138943Y-124970361D01*
X122135624Y-124983287D01*
X122127548Y-124994589D01*
X122063067Y-125210201D01*
X122065297Y-125266967D01*
X122056316Y-125265468D01*
X121532302Y-125265468D01*
X121377013Y-125284825D01*
X121182149Y-125370299D01*
X121087321Y-125457596D01*
X119807622Y-125457596D01*
X119767783Y-125449019D01*
X119695316Y-125457596D01*
X119679394Y-125457596D01*
X119640207Y-125464119D01*
X119538698Y-125476133D01*
X119527210Y-125482927D01*
X119513506Y-125485208D01*
X119315451Y-125592073D01*
X119247408Y-125665681D01*
X119173370Y-125739719D01*
X118542090Y-125739719D01*
X118388283Y-125770314D01*
X118247371Y-125864467D01*
X118153218Y-126005379D01*
X118122623Y-126159186D01*
X118122623Y-127073006D01*
X118153218Y-127226813D01*
X118247371Y-127367725D01*
X118388283Y-127461878D01*
X118394478Y-127463110D01*
X117407493Y-128450096D01*
X116476298Y-128450096D01*
X116518445Y-128418268D01*
X116631810Y-128235178D01*
X116669197Y-128035174D01*
X116669197Y-127714076D01*
X116611771Y-127469916D01*
X116485039Y-127302096D01*
X116758311Y-127302096D01*
X116906732Y-127390046D01*
X117148197Y-127448239D01*
X117396099Y-127432860D01*
X117628520Y-127345267D01*
X117824911Y-127193205D01*
X117967907Y-126990118D01*
X118045022Y-126753482D01*
X118047295Y-126493112D01*
X117974321Y-126255165D01*
X117834890Y-126049615D01*
X117641184Y-125894149D01*
X117410327Y-125802513D01*
X117162731Y-125782808D01*
X116920287Y-125836780D01*
X116721218Y-125950096D01*
X116325846Y-125950096D01*
X116297082Y-125932286D01*
X116097078Y-125894899D01*
X114675980Y-125894899D01*
X114431820Y-125952325D01*
X114257555Y-126083924D01*
X114144190Y-126267014D01*
X114106803Y-126467018D01*
X114106803Y-126788116D01*
X114164229Y-127032276D01*
X114295828Y-127206541D01*
X114327046Y-127225870D01*
X114316006Y-127227708D01*
X114117951Y-127334573D01*
X114049920Y-127408168D01*
X113660986Y-127797102D01*
X113626749Y-127819209D01*
X113581569Y-127876520D01*
X113570313Y-127887775D01*
X113547225Y-127920085D01*
X113483933Y-128000371D01*
X113480614Y-128013297D01*
X113472538Y-128024599D01*
X113408057Y-128240211D01*
X113411991Y-128340352D01*
X113411990Y-137513964D01*
X113403413Y-137553803D01*
X113411990Y-137626270D01*
X113411990Y-137642190D01*
X113418510Y-137681364D01*
X113430527Y-137782888D01*
X113437321Y-137794376D01*
X113439602Y-137808079D01*
X113546467Y-138006135D01*
X113620074Y-138074177D01*
X114008996Y-138463100D01*
X114031103Y-138497337D01*
X114088418Y-138542521D01*
X114099667Y-138553771D01*
X114131980Y-138576863D01*
X114212262Y-138640152D01*
X114225189Y-138643471D01*
X114236493Y-138651549D01*
X114339204Y-138682266D01*
X114257555Y-138743924D01*
X114144190Y-138927014D01*
X114106803Y-139127018D01*
X114106803Y-139448116D01*
X114164229Y-139692276D01*
X114295828Y-139866541D01*
X114478918Y-139979906D01*
X114678922Y-140017293D01*
X116100020Y-140017293D01*
X116334704Y-139962096D01*
X116449487Y-139962096D01*
X116566052Y-140090424D01*
X116779732Y-140217046D01*
X117021197Y-140275239D01*
X117269099Y-140259860D01*
X117501520Y-140172267D01*
X117697911Y-140020205D01*
X117840907Y-139817118D01*
X117918022Y-139580482D01*
X117920295Y-139320112D01*
X117847321Y-139082165D01*
X117707890Y-138876615D01*
X117514184Y-138721149D01*
X117491377Y-138712096D01*
X118254641Y-138712096D01*
X118254092Y-138713111D01*
X118220372Y-138915184D01*
X118220372Y-139364198D01*
X118239729Y-139519487D01*
X118325203Y-139714350D01*
X118471126Y-139872864D01*
X118660611Y-139975408D01*
X118862684Y-140009128D01*
X119386698Y-140009128D01*
X119541987Y-139989771D01*
X119736850Y-139904297D01*
X119895364Y-139758374D01*
X119997908Y-139568889D01*
X120031628Y-139366816D01*
X120031628Y-139363032D01*
X120189905Y-139277629D01*
X120257960Y-139204008D01*
X122644873Y-136817096D01*
X123022001Y-136817096D01*
X123022000Y-137513140D01*
X122986012Y-137600024D01*
X122967201Y-137742907D01*
X122967200Y-140729092D01*
X122986011Y-140871976D01*
X123059648Y-141049751D01*
X123176788Y-141202412D01*
X123329448Y-141319552D01*
X123475614Y-141380096D01*
X111424000Y-141380096D01*
X111424000Y-123232096D01*
X130538144Y-123232096D01*
X130439650Y-123275299D01*
G37*
X130439650Y-123275299D02*
X130281136Y-123421222D01*
X130178592Y-123610707D01*
X130144872Y-123812780D01*
X130144872Y-123988217D01*
X130000430Y-124132659D01*
X129989731Y-124131808D01*
X129747287Y-124185780D01*
X129531430Y-124308652D01*
X129361245Y-124489565D01*
X129251779Y-124712520D01*
X129212710Y-124957806D01*
X129247492Y-125203738D01*
X129353051Y-125428570D01*
X129520052Y-125612424D01*
X129733732Y-125739046D01*
X129975197Y-125797239D01*
X130144872Y-125786713D01*
X130144872Y-125893215D01*
X129474087Y-126564001D01*
X129432874Y-126519232D01*
X129243389Y-126416688D01*
X129041316Y-126382968D01*
X128517302Y-126382968D01*
X128362013Y-126402325D01*
X128167149Y-126487799D01*
X128090902Y-126557991D01*
X127834877Y-126301966D01*
X127834877Y-125958686D01*
X127804282Y-125804879D01*
X127710129Y-125663967D01*
X127569217Y-125569814D01*
X127415410Y-125539219D01*
X126330590Y-125539219D01*
X126176783Y-125569814D01*
X126035871Y-125663967D01*
X125941718Y-125804879D01*
X125911123Y-125958686D01*
X125911123Y-126096966D01*
X125634877Y-126373212D01*
X125634877Y-125958686D01*
X125604282Y-125804879D01*
X125510129Y-125663967D01*
X125369217Y-125569814D01*
X125215410Y-125539219D01*
X124130590Y-125539219D01*
X123976783Y-125569814D01*
X123901529Y-125620096D01*
X123860433Y-125620096D01*
X123803184Y-125574149D01*
X123572327Y-125482513D01*
X123516994Y-125478109D01*
X123914405Y-125080699D01*
X123976783Y-125122378D01*
X124130590Y-125152973D01*
X125215410Y-125152973D01*
X125369217Y-125122378D01*
X125510129Y-125028225D01*
X125604282Y-124887313D01*
X125634877Y-124733506D01*
X125634877Y-124058686D01*
X125911123Y-124058686D01*
X125911123Y-124733506D01*
X125941718Y-124887313D01*
X126035871Y-125028225D01*
X126176783Y-125122378D01*
X126330590Y-125152973D01*
X127415410Y-125152973D01*
X127569217Y-125122378D01*
X127710129Y-125028225D01*
X127804282Y-124887313D01*
X127834877Y-124733506D01*
X127834877Y-124058686D01*
X127804282Y-123904879D01*
X127710129Y-123763967D01*
X127569217Y-123669814D01*
X127415410Y-123639219D01*
X126330590Y-123639219D01*
X126176783Y-123669814D01*
X126035871Y-123763967D01*
X125941718Y-123904879D01*
X125911123Y-124058686D01*
X125634877Y-124058686D01*
X125604282Y-123904879D01*
X125510129Y-123763967D01*
X125369217Y-123669814D01*
X125215410Y-123639219D01*
X124130590Y-123639219D01*
X123976783Y-123669814D01*
X123901529Y-123720096D01*
X123715122Y-123720096D01*
X123675283Y-123711519D01*
X123602816Y-123720096D01*
X123586894Y-123720096D01*
X123547707Y-123726619D01*
X123446198Y-123738633D01*
X123434710Y-123745427D01*
X123421006Y-123747708D01*
X123222951Y-123854573D01*
X123154932Y-123928155D01*
X122315994Y-124767094D01*
X122281760Y-124789199D01*
X122236580Y-124846509D01*
X122225323Y-124857765D01*
X122202231Y-124890080D01*
X122138943Y-124970361D01*
X122135624Y-124983287D01*
X122127548Y-124994589D01*
X122063067Y-125210201D01*
X122065297Y-125266967D01*
X122056316Y-125265468D01*
X121532302Y-125265468D01*
X121377013Y-125284825D01*
X121182149Y-125370299D01*
X121087321Y-125457596D01*
X119807622Y-125457596D01*
X119767783Y-125449019D01*
X119695316Y-125457596D01*
X119679394Y-125457596D01*
X119640207Y-125464119D01*
X119538698Y-125476133D01*
X119527210Y-125482927D01*
X119513506Y-125485208D01*
X119315451Y-125592073D01*
X119247408Y-125665681D01*
X119173370Y-125739719D01*
X118542090Y-125739719D01*
X118388283Y-125770314D01*
X118247371Y-125864467D01*
X118153218Y-126005379D01*
X118122623Y-126159186D01*
X118122623Y-127073006D01*
X118153218Y-127226813D01*
X118247371Y-127367725D01*
X118388283Y-127461878D01*
X118394478Y-127463110D01*
X117407493Y-128450096D01*
X116476298Y-128450096D01*
X116518445Y-128418268D01*
X116631810Y-128235178D01*
X116669197Y-128035174D01*
X116669197Y-127714076D01*
X116611771Y-127469916D01*
X116485039Y-127302096D01*
X116758311Y-127302096D01*
X116906732Y-127390046D01*
X117148197Y-127448239D01*
X117396099Y-127432860D01*
X117628520Y-127345267D01*
X117824911Y-127193205D01*
X117967907Y-126990118D01*
X118045022Y-126753482D01*
X118047295Y-126493112D01*
X117974321Y-126255165D01*
X117834890Y-126049615D01*
X117641184Y-125894149D01*
X117410327Y-125802513D01*
X117162731Y-125782808D01*
X116920287Y-125836780D01*
X116721218Y-125950096D01*
X116325846Y-125950096D01*
X116297082Y-125932286D01*
X116097078Y-125894899D01*
X114675980Y-125894899D01*
X114431820Y-125952325D01*
X114257555Y-126083924D01*
X114144190Y-126267014D01*
X114106803Y-126467018D01*
X114106803Y-126788116D01*
X114164229Y-127032276D01*
X114295828Y-127206541D01*
X114327046Y-127225870D01*
X114316006Y-127227708D01*
X114117951Y-127334573D01*
X114049920Y-127408168D01*
X113660986Y-127797102D01*
X113626749Y-127819209D01*
X113581569Y-127876520D01*
X113570313Y-127887775D01*
X113547225Y-127920085D01*
X113483933Y-128000371D01*
X113480614Y-128013297D01*
X113472538Y-128024599D01*
X113408057Y-128240211D01*
X113411991Y-128340352D01*
X113411990Y-137513964D01*
X113403413Y-137553803D01*
X113411990Y-137626270D01*
X113411990Y-137642190D01*
X113418510Y-137681364D01*
X113430527Y-137782888D01*
X113437321Y-137794376D01*
X113439602Y-137808079D01*
X113546467Y-138006135D01*
X113620074Y-138074177D01*
X114008996Y-138463100D01*
X114031103Y-138497337D01*
X114088418Y-138542521D01*
X114099667Y-138553771D01*
X114131980Y-138576863D01*
X114212262Y-138640152D01*
X114225189Y-138643471D01*
X114236493Y-138651549D01*
X114339204Y-138682266D01*
X114257555Y-138743924D01*
X114144190Y-138927014D01*
X114106803Y-139127018D01*
X114106803Y-139448116D01*
X114164229Y-139692276D01*
X114295828Y-139866541D01*
X114478918Y-139979906D01*
X114678922Y-140017293D01*
X116100020Y-140017293D01*
X116334704Y-139962096D01*
X116449487Y-139962096D01*
X116566052Y-140090424D01*
X116779732Y-140217046D01*
X117021197Y-140275239D01*
X117269099Y-140259860D01*
X117501520Y-140172267D01*
X117697911Y-140020205D01*
X117840907Y-139817118D01*
X117918022Y-139580482D01*
X117920295Y-139320112D01*
X117847321Y-139082165D01*
X117707890Y-138876615D01*
X117514184Y-138721149D01*
X117491377Y-138712096D01*
X118254641Y-138712096D01*
X118254092Y-138713111D01*
X118220372Y-138915184D01*
X118220372Y-139364198D01*
X118239729Y-139519487D01*
X118325203Y-139714350D01*
X118471126Y-139872864D01*
X118660611Y-139975408D01*
X118862684Y-140009128D01*
X119386698Y-140009128D01*
X119541987Y-139989771D01*
X119736850Y-139904297D01*
X119895364Y-139758374D01*
X119997908Y-139568889D01*
X120031628Y-139366816D01*
X120031628Y-139363032D01*
X120189905Y-139277629D01*
X120257960Y-139204008D01*
X122644873Y-136817096D01*
X123022001Y-136817096D01*
X123022000Y-137513140D01*
X122986012Y-137600024D01*
X122967201Y-137742907D01*
X122967200Y-140729092D01*
X122986011Y-140871976D01*
X123059648Y-141049751D01*
X123176788Y-141202412D01*
X123329448Y-141319552D01*
X123475614Y-141380096D01*
X111424000Y-141380096D01*
X111424000Y-123232096D01*
X130538144Y-123232096D01*
X130439650Y-123275299D01*
G36*
X136975668Y-138944773D02*
G01*
X137112492Y-139042548D01*
X137153522Y-139054819D01*
X138222021Y-140123318D01*
X138275407Y-140186942D01*
X138347344Y-140228474D01*
X138415359Y-140276099D01*
X138424875Y-140278649D01*
X138418123Y-140312590D01*
X138418123Y-140341096D01*
X137658329Y-140341096D01*
X137560874Y-140235232D01*
X137371389Y-140132688D01*
X137169316Y-140098968D01*
X136645302Y-140098968D01*
X136490013Y-140118325D01*
X136295149Y-140203799D01*
X136268294Y-140228521D01*
X136079327Y-140153513D01*
X135831731Y-140133808D01*
X135589287Y-140187780D01*
X135373430Y-140310652D01*
X135203245Y-140491565D01*
X135093779Y-140714520D01*
X135054710Y-140959806D01*
X135089492Y-141205738D01*
X135171353Y-141380096D01*
X133441514Y-141380096D01*
X133555747Y-141342980D01*
X133804826Y-141216067D01*
X134030986Y-141051752D01*
X134228656Y-140854082D01*
X134392971Y-140627922D01*
X134519884Y-140378843D01*
X134606268Y-140112977D01*
X134650000Y-139836871D01*
X134650000Y-139557321D01*
X134606268Y-139281215D01*
X134519884Y-139015349D01*
X134392971Y-138766270D01*
X134228656Y-138540110D01*
X134030986Y-138342440D01*
X133804826Y-138178125D01*
X133626173Y-138087096D01*
X136117993Y-138087096D01*
X136975668Y-138944773D01*
G37*
X136975668Y-138944773D02*
X137112492Y-139042548D01*
X137153522Y-139054819D01*
X138222021Y-140123318D01*
X138275407Y-140186942D01*
X138347344Y-140228474D01*
X138415359Y-140276099D01*
X138424875Y-140278649D01*
X138418123Y-140312590D01*
X138418123Y-140341096D01*
X137658329Y-140341096D01*
X137560874Y-140235232D01*
X137371389Y-140132688D01*
X137169316Y-140098968D01*
X136645302Y-140098968D01*
X136490013Y-140118325D01*
X136295149Y-140203799D01*
X136268294Y-140228521D01*
X136079327Y-140153513D01*
X135831731Y-140133808D01*
X135589287Y-140187780D01*
X135373430Y-140310652D01*
X135203245Y-140491565D01*
X135093779Y-140714520D01*
X135054710Y-140959806D01*
X135089492Y-141205738D01*
X135171353Y-141380096D01*
X133441514Y-141380096D01*
X133555747Y-141342980D01*
X133804826Y-141216067D01*
X134030986Y-141051752D01*
X134228656Y-140854082D01*
X134392971Y-140627922D01*
X134519884Y-140378843D01*
X134606268Y-140112977D01*
X134650000Y-139836871D01*
X134650000Y-139557321D01*
X134606268Y-139281215D01*
X134519884Y-139015349D01*
X134392971Y-138766270D01*
X134228656Y-138540110D01*
X134030986Y-138342440D01*
X133804826Y-138178125D01*
X133626173Y-138087096D01*
X136117993Y-138087096D01*
X136975668Y-138944773D01*
G36*
X128380372Y-139917058D02*
G01*
X128380372Y-140177198D01*
X128399729Y-140332487D01*
X128485203Y-140527350D01*
X128631126Y-140685864D01*
X128820611Y-140788408D01*
X129022684Y-140822128D01*
X129546698Y-140822128D01*
X129701987Y-140802771D01*
X129896850Y-140717297D01*
X129971364Y-140648702D01*
X130041871Y-140754225D01*
X130182783Y-140848378D01*
X130336590Y-140878973D01*
X131411410Y-140878973D01*
X131522197Y-140856936D01*
X131717014Y-141051752D01*
X131943174Y-141216067D01*
X132192253Y-141342980D01*
X132306486Y-141380096D01*
X126460385Y-141380096D01*
X126606551Y-141319552D01*
X126759212Y-141202412D01*
X126876352Y-141049752D01*
X126949989Y-140871977D01*
X126968800Y-140729093D01*
X126968800Y-139912000D01*
X128356878Y-139912000D01*
X128380372Y-139917058D01*
G37*
X128380372Y-139917058D02*
X128380372Y-140177198D01*
X128399729Y-140332487D01*
X128485203Y-140527350D01*
X128631126Y-140685864D01*
X128820611Y-140788408D01*
X129022684Y-140822128D01*
X129546698Y-140822128D01*
X129701987Y-140802771D01*
X129896850Y-140717297D01*
X129971364Y-140648702D01*
X130041871Y-140754225D01*
X130182783Y-140848378D01*
X130336590Y-140878973D01*
X131411410Y-140878973D01*
X131522197Y-140856936D01*
X131717014Y-141051752D01*
X131943174Y-141216067D01*
X132192253Y-141342980D01*
X132306486Y-141380096D01*
X126460385Y-141380096D01*
X126606551Y-141319552D01*
X126759212Y-141202412D01*
X126876352Y-141049752D01*
X126949989Y-140871977D01*
X126968800Y-140729093D01*
X126968800Y-139912000D01*
X128356878Y-139912000D01*
X128380372Y-139917058D01*
G36*
X127972402Y-137333007D02*
G01*
X127994507Y-137367241D01*
X128051817Y-137412421D01*
X128063072Y-137423677D01*
X128095387Y-137446769D01*
X128175668Y-137510057D01*
X128188593Y-137513375D01*
X128199896Y-137521453D01*
X128265502Y-137541073D01*
X128389126Y-137675364D01*
X128528442Y-137750758D01*
X128516636Y-137761626D01*
X128414092Y-137951111D01*
X128380372Y-138153184D01*
X128380372Y-138328621D01*
X128148993Y-138560000D01*
X126968800Y-138560000D01*
X126968800Y-137742907D01*
X126949989Y-137600023D01*
X126876352Y-137422248D01*
X126759212Y-137269588D01*
X126606552Y-137152448D01*
X126428777Y-137078811D01*
X126238000Y-137053695D01*
X126047224Y-137078811D01*
X125869449Y-137152448D01*
X125716789Y-137269588D01*
X125603001Y-137417880D01*
X125489212Y-137269588D01*
X125336552Y-137152448D01*
X125158777Y-137078811D01*
X124968000Y-137053695D01*
X124777224Y-137078811D01*
X124599449Y-137152448D01*
X124446789Y-137269588D01*
X124374000Y-137364449D01*
X124374000Y-136817096D01*
X127456493Y-136817096D01*
X127972402Y-137333007D01*
G37*
X127972402Y-137333007D02*
X127994507Y-137367241D01*
X128051817Y-137412421D01*
X128063072Y-137423677D01*
X128095387Y-137446769D01*
X128175668Y-137510057D01*
X128188593Y-137513375D01*
X128199896Y-137521453D01*
X128265502Y-137541073D01*
X128389126Y-137675364D01*
X128528442Y-137750758D01*
X128516636Y-137761626D01*
X128414092Y-137951111D01*
X128380372Y-138153184D01*
X128380372Y-138328621D01*
X128148993Y-138560000D01*
X126968800Y-138560000D01*
X126968800Y-137742907D01*
X126949989Y-137600023D01*
X126876352Y-137422248D01*
X126759212Y-137269588D01*
X126606552Y-137152448D01*
X126428777Y-137078811D01*
X126238000Y-137053695D01*
X126047224Y-137078811D01*
X125869449Y-137152448D01*
X125716789Y-137269588D01*
X125603001Y-137417880D01*
X125489212Y-137269588D01*
X125336552Y-137152448D01*
X125158777Y-137078811D01*
X124968000Y-137053695D01*
X124777224Y-137078811D01*
X124599449Y-137152448D01*
X124446789Y-137269588D01*
X124374000Y-137364449D01*
X124374000Y-136817096D01*
X127456493Y-136817096D01*
X127972402Y-137333007D01*
G36*
X136904703Y-126591946D02*
G01*
X137050626Y-126750460D01*
X137240111Y-126853004D01*
X137442184Y-126886724D01*
X137891198Y-126886724D01*
X138046487Y-126867367D01*
X138241350Y-126781893D01*
X138376915Y-126657096D01*
X139673993Y-126657096D01*
X140347623Y-127330727D01*
X140347623Y-127962006D01*
X140378218Y-128115813D01*
X140472371Y-128256725D01*
X140548000Y-128307258D01*
X140548000Y-128505714D01*
X140548001Y-128505720D01*
X140548000Y-130332170D01*
X139323087Y-131557083D01*
X139173674Y-131390852D01*
X138987749Y-131247929D01*
X138778891Y-131141282D01*
X138554096Y-131074481D01*
X138320892Y-131049765D01*
X138087088Y-131067959D01*
X137860515Y-131128458D01*
X137648762Y-131229232D01*
X137458918Y-131366908D01*
X137297343Y-131536876D01*
X137169447Y-131733442D01*
X137079515Y-131950023D01*
X137030557Y-132179366D01*
X137024214Y-132413791D01*
X137060697Y-132645447D01*
X137138786Y-132866575D01*
X137255864Y-133069770D01*
X137408011Y-133248225D01*
X137590131Y-133395967D01*
X137796125Y-133508046D01*
X138019095Y-133580707D01*
X138083314Y-133589219D01*
X137440590Y-133589219D01*
X137286783Y-133619814D01*
X137145871Y-133713967D01*
X137051718Y-133854879D01*
X137021123Y-134008686D01*
X137021123Y-135733506D01*
X137051718Y-135887313D01*
X137145871Y-136028225D01*
X137286783Y-136122378D01*
X137440590Y-136152973D01*
X138569676Y-136152973D01*
X139074001Y-136657299D01*
X139074000Y-137993123D01*
X138837590Y-137993123D01*
X138683783Y-138023718D01*
X138542871Y-138117871D01*
X138448718Y-138258783D01*
X138418123Y-138412590D01*
X138418123Y-138548826D01*
X138030754Y-138161457D01*
X137924203Y-137981291D01*
X136927005Y-136984094D01*
X136904897Y-136949855D01*
X136847582Y-136904671D01*
X136836331Y-136893419D01*
X136804030Y-136870337D01*
X136723737Y-136807040D01*
X136710809Y-136803720D01*
X136699506Y-136795643D01*
X136483895Y-136731163D01*
X136383780Y-136735096D01*
X136218096Y-136735096D01*
X136239911Y-136718205D01*
X136382907Y-136515118D01*
X136460022Y-136278482D01*
X136462295Y-136018112D01*
X136389321Y-135780165D01*
X136249890Y-135574615D01*
X136056184Y-135419149D01*
X135825327Y-135327513D01*
X135577731Y-135307808D01*
X135335287Y-135361780D01*
X135119430Y-135484652D01*
X134949245Y-135665565D01*
X134839779Y-135888520D01*
X134822200Y-135998889D01*
X134786003Y-136035086D01*
X131286036Y-136035086D01*
X131246197Y-136026509D01*
X131173730Y-136035086D01*
X131157808Y-136035086D01*
X131118621Y-136041609D01*
X131040389Y-136050868D01*
X131009389Y-136034092D01*
X130807316Y-136000372D01*
X130606380Y-136000372D01*
X128799005Y-134192998D01*
X128776897Y-134158759D01*
X128719582Y-134113575D01*
X128708331Y-134102323D01*
X128676030Y-134079241D01*
X128595737Y-134015944D01*
X128582809Y-134012624D01*
X128571506Y-134004547D01*
X128355895Y-133940067D01*
X128255780Y-133944000D01*
X128124808Y-133944000D01*
X126968800Y-132787993D01*
X126968800Y-132244000D01*
X127211378Y-132244000D01*
X127251217Y-132252577D01*
X127323684Y-132244000D01*
X127339606Y-132244000D01*
X127378791Y-132237478D01*
X127480302Y-132225463D01*
X127491788Y-132218670D01*
X127505494Y-132216389D01*
X127703549Y-132109523D01*
X127771591Y-132035916D01*
X128357880Y-131449628D01*
X128530698Y-131449628D01*
X128685987Y-131430271D01*
X128880850Y-131344797D01*
X129039364Y-131198874D01*
X129141908Y-131009389D01*
X129175628Y-130807316D01*
X129175628Y-130358302D01*
X129156271Y-130203013D01*
X129070797Y-130008150D01*
X128924874Y-129849636D01*
X128735389Y-129747092D01*
X128533316Y-129713372D01*
X128009302Y-129713372D01*
X127854013Y-129732729D01*
X127659150Y-129818203D01*
X127500636Y-129964126D01*
X127398092Y-130153611D01*
X127364372Y-130355684D01*
X127364372Y-130531121D01*
X127003493Y-130892000D01*
X126968800Y-130892000D01*
X126968800Y-130074907D01*
X126949989Y-129932023D01*
X126914000Y-129845138D01*
X126914000Y-129609218D01*
X126922577Y-129569379D01*
X126914000Y-129496912D01*
X126914000Y-129480990D01*
X126907477Y-129441803D01*
X126895463Y-129340294D01*
X126888669Y-129328806D01*
X126886388Y-129315102D01*
X126779523Y-129117047D01*
X126705928Y-129049016D01*
X125788507Y-128131596D01*
X126770500Y-127149604D01*
X127298998Y-127678103D01*
X127321103Y-127712337D01*
X127378413Y-127757517D01*
X127389668Y-127768773D01*
X127421988Y-127791870D01*
X127502262Y-127855152D01*
X127515189Y-127858471D01*
X127526493Y-127866549D01*
X127742104Y-127931029D01*
X127842220Y-127927096D01*
X128071699Y-127927096D01*
X128123126Y-127982960D01*
X128312611Y-128085504D01*
X128514684Y-128119224D01*
X129038698Y-128119224D01*
X129193987Y-128099867D01*
X129388851Y-128014393D01*
X129483679Y-127927096D01*
X129670878Y-127927096D01*
X129710717Y-127935673D01*
X129783184Y-127927096D01*
X129799106Y-127927096D01*
X129838291Y-127920574D01*
X129939802Y-127908559D01*
X129951288Y-127901766D01*
X129964994Y-127899485D01*
X130163049Y-127792619D01*
X130231092Y-127719011D01*
X131063380Y-126886724D01*
X131236198Y-126886724D01*
X131391487Y-126867367D01*
X131586350Y-126781893D01*
X131744864Y-126635970D01*
X131799627Y-126534777D01*
X131824703Y-126591946D01*
X131970626Y-126750460D01*
X132160111Y-126853004D01*
X132362184Y-126886724D01*
X132811198Y-126886724D01*
X132966487Y-126867367D01*
X133161350Y-126781893D01*
X133296915Y-126657096D01*
X135389678Y-126657096D01*
X135475626Y-126750460D01*
X135665111Y-126853004D01*
X135867184Y-126886724D01*
X136316198Y-126886724D01*
X136471487Y-126867367D01*
X136666350Y-126781893D01*
X136824864Y-126635970D01*
X136879627Y-126534777D01*
X136904703Y-126591946D01*
G37*
X136904703Y-126591946D02*
X137050626Y-126750460D01*
X137240111Y-126853004D01*
X137442184Y-126886724D01*
X137891198Y-126886724D01*
X138046487Y-126867367D01*
X138241350Y-126781893D01*
X138376915Y-126657096D01*
X139673993Y-126657096D01*
X140347623Y-127330727D01*
X140347623Y-127962006D01*
X140378218Y-128115813D01*
X140472371Y-128256725D01*
X140548000Y-128307258D01*
X140548000Y-128505714D01*
X140548001Y-128505720D01*
X140548000Y-130332170D01*
X139323087Y-131557083D01*
X139173674Y-131390852D01*
X138987749Y-131247929D01*
X138778891Y-131141282D01*
X138554096Y-131074481D01*
X138320892Y-131049765D01*
X138087088Y-131067959D01*
X137860515Y-131128458D01*
X137648762Y-131229232D01*
X137458918Y-131366908D01*
X137297343Y-131536876D01*
X137169447Y-131733442D01*
X137079515Y-131950023D01*
X137030557Y-132179366D01*
X137024214Y-132413791D01*
X137060697Y-132645447D01*
X137138786Y-132866575D01*
X137255864Y-133069770D01*
X137408011Y-133248225D01*
X137590131Y-133395967D01*
X137796125Y-133508046D01*
X138019095Y-133580707D01*
X138083314Y-133589219D01*
X137440590Y-133589219D01*
X137286783Y-133619814D01*
X137145871Y-133713967D01*
X137051718Y-133854879D01*
X137021123Y-134008686D01*
X137021123Y-135733506D01*
X137051718Y-135887313D01*
X137145871Y-136028225D01*
X137286783Y-136122378D01*
X137440590Y-136152973D01*
X138569676Y-136152973D01*
X139074001Y-136657299D01*
X139074000Y-137993123D01*
X138837590Y-137993123D01*
X138683783Y-138023718D01*
X138542871Y-138117871D01*
X138448718Y-138258783D01*
X138418123Y-138412590D01*
X138418123Y-138548826D01*
X138030754Y-138161457D01*
X137924203Y-137981291D01*
X136927005Y-136984094D01*
X136904897Y-136949855D01*
X136847582Y-136904671D01*
X136836331Y-136893419D01*
X136804030Y-136870337D01*
X136723737Y-136807040D01*
X136710809Y-136803720D01*
X136699506Y-136795643D01*
X136483895Y-136731163D01*
X136383780Y-136735096D01*
X136218096Y-136735096D01*
X136239911Y-136718205D01*
X136382907Y-136515118D01*
X136460022Y-136278482D01*
X136462295Y-136018112D01*
X136389321Y-135780165D01*
X136249890Y-135574615D01*
X136056184Y-135419149D01*
X135825327Y-135327513D01*
X135577731Y-135307808D01*
X135335287Y-135361780D01*
X135119430Y-135484652D01*
X134949245Y-135665565D01*
X134839779Y-135888520D01*
X134822200Y-135998889D01*
X134786003Y-136035086D01*
X131286036Y-136035086D01*
X131246197Y-136026509D01*
X131173730Y-136035086D01*
X131157808Y-136035086D01*
X131118621Y-136041609D01*
X131040389Y-136050868D01*
X131009389Y-136034092D01*
X130807316Y-136000372D01*
X130606380Y-136000372D01*
X128799005Y-134192998D01*
X128776897Y-134158759D01*
X128719582Y-134113575D01*
X128708331Y-134102323D01*
X128676030Y-134079241D01*
X128595737Y-134015944D01*
X128582809Y-134012624D01*
X128571506Y-134004547D01*
X128355895Y-133940067D01*
X128255780Y-133944000D01*
X128124808Y-133944000D01*
X126968800Y-132787993D01*
X126968800Y-132244000D01*
X127211378Y-132244000D01*
X127251217Y-132252577D01*
X127323684Y-132244000D01*
X127339606Y-132244000D01*
X127378791Y-132237478D01*
X127480302Y-132225463D01*
X127491788Y-132218670D01*
X127505494Y-132216389D01*
X127703549Y-132109523D01*
X127771591Y-132035916D01*
X128357880Y-131449628D01*
X128530698Y-131449628D01*
X128685987Y-131430271D01*
X128880850Y-131344797D01*
X129039364Y-131198874D01*
X129141908Y-131009389D01*
X129175628Y-130807316D01*
X129175628Y-130358302D01*
X129156271Y-130203013D01*
X129070797Y-130008150D01*
X128924874Y-129849636D01*
X128735389Y-129747092D01*
X128533316Y-129713372D01*
X128009302Y-129713372D01*
X127854013Y-129732729D01*
X127659150Y-129818203D01*
X127500636Y-129964126D01*
X127398092Y-130153611D01*
X127364372Y-130355684D01*
X127364372Y-130531121D01*
X127003493Y-130892000D01*
X126968800Y-130892000D01*
X126968800Y-130074907D01*
X126949989Y-129932023D01*
X126914000Y-129845138D01*
X126914000Y-129609218D01*
X126922577Y-129569379D01*
X126914000Y-129496912D01*
X126914000Y-129480990D01*
X126907477Y-129441803D01*
X126895463Y-129340294D01*
X126888669Y-129328806D01*
X126886388Y-129315102D01*
X126779523Y-129117047D01*
X126705928Y-129049016D01*
X125788507Y-128131596D01*
X126770500Y-127149604D01*
X127298998Y-127678103D01*
X127321103Y-127712337D01*
X127378413Y-127757517D01*
X127389668Y-127768773D01*
X127421988Y-127791870D01*
X127502262Y-127855152D01*
X127515189Y-127858471D01*
X127526493Y-127866549D01*
X127742104Y-127931029D01*
X127842220Y-127927096D01*
X128071699Y-127927096D01*
X128123126Y-127982960D01*
X128312611Y-128085504D01*
X128514684Y-128119224D01*
X129038698Y-128119224D01*
X129193987Y-128099867D01*
X129388851Y-128014393D01*
X129483679Y-127927096D01*
X129670878Y-127927096D01*
X129710717Y-127935673D01*
X129783184Y-127927096D01*
X129799106Y-127927096D01*
X129838291Y-127920574D01*
X129939802Y-127908559D01*
X129951288Y-127901766D01*
X129964994Y-127899485D01*
X130163049Y-127792619D01*
X130231092Y-127719011D01*
X131063380Y-126886724D01*
X131236198Y-126886724D01*
X131391487Y-126867367D01*
X131586350Y-126781893D01*
X131744864Y-126635970D01*
X131799627Y-126534777D01*
X131824703Y-126591946D01*
X131970626Y-126750460D01*
X132160111Y-126853004D01*
X132362184Y-126886724D01*
X132811198Y-126886724D01*
X132966487Y-126867367D01*
X133161350Y-126781893D01*
X133296915Y-126657096D01*
X135389678Y-126657096D01*
X135475626Y-126750460D01*
X135665111Y-126853004D01*
X135867184Y-126886724D01*
X136316198Y-126886724D01*
X136471487Y-126867367D01*
X136666350Y-126781893D01*
X136824864Y-126635970D01*
X136879627Y-126534777D01*
X136904703Y-126591946D01*
G36*
X121138126Y-126865460D02*
G01*
X121327611Y-126968004D01*
X121529684Y-127001724D01*
X122053698Y-127001724D01*
X122208987Y-126982367D01*
X122232403Y-126972096D01*
X122713341Y-126972096D01*
X122796770Y-126979322D01*
X122825860Y-126972096D01*
X122903436Y-126972096D01*
X123068732Y-127070046D01*
X123310197Y-127128239D01*
X123558099Y-127112860D01*
X123790520Y-127025267D01*
X123859192Y-126972096D01*
X123901529Y-126972096D01*
X123976783Y-127022378D01*
X124130590Y-127052973D01*
X124955116Y-127052973D01*
X124489997Y-127518092D01*
X124455920Y-127540096D01*
X124404301Y-127540096D01*
X124352874Y-127484232D01*
X124163389Y-127381688D01*
X123961316Y-127347968D01*
X123437302Y-127347968D01*
X123282013Y-127367325D01*
X123087149Y-127452799D01*
X122992321Y-127540096D01*
X122499301Y-127540096D01*
X122447874Y-127484232D01*
X122258389Y-127381688D01*
X122056316Y-127347968D01*
X121532302Y-127347968D01*
X121377013Y-127367325D01*
X121182150Y-127452799D01*
X121023636Y-127598722D01*
X120921092Y-127788207D01*
X120887372Y-127990280D01*
X120887372Y-128439294D01*
X120906729Y-128594583D01*
X120992203Y-128789446D01*
X121138126Y-128947960D01*
X121239319Y-129002723D01*
X121182150Y-129027799D01*
X121023636Y-129173722D01*
X120921092Y-129363207D01*
X120887372Y-129565280D01*
X120887372Y-130014294D01*
X120906729Y-130169583D01*
X120992203Y-130364446D01*
X121138126Y-130522960D01*
X121327611Y-130625504D01*
X121529684Y-130659224D01*
X121697201Y-130659224D01*
X121697200Y-133061091D01*
X121716011Y-133203976D01*
X121752000Y-133290861D01*
X121752000Y-133537992D01*
X119189897Y-136100096D01*
X117698433Y-136100096D01*
X117641184Y-136054149D01*
X117410327Y-135962513D01*
X117162731Y-135942808D01*
X116920287Y-135996780D01*
X116721218Y-136110096D01*
X116325846Y-136110096D01*
X116297082Y-136092286D01*
X116097078Y-136054899D01*
X114763990Y-136054899D01*
X114763990Y-129857293D01*
X116100020Y-129857293D01*
X116334704Y-129802096D01*
X117070768Y-129802096D01*
X116952871Y-129880871D01*
X116858718Y-130021783D01*
X116828123Y-130175590D01*
X116828123Y-131500410D01*
X116858718Y-131654217D01*
X116952871Y-131795129D01*
X117093783Y-131889282D01*
X117247590Y-131919877D01*
X117440698Y-131919877D01*
X117452537Y-132019897D01*
X117459331Y-132031386D01*
X117461613Y-132045091D01*
X117568478Y-132243145D01*
X117642072Y-132311175D01*
X117803796Y-132472900D01*
X117817492Y-132569739D01*
X117923051Y-132794570D01*
X118090052Y-132978424D01*
X118303732Y-133105046D01*
X118545197Y-133163239D01*
X118793099Y-133147860D01*
X119025520Y-133060267D01*
X119221911Y-132908205D01*
X119364907Y-132705118D01*
X119442022Y-132468482D01*
X119444295Y-132208112D01*
X119371321Y-131970165D01*
X119257124Y-131801814D01*
X119267129Y-131795129D01*
X119361282Y-131654217D01*
X119391877Y-131500410D01*
X119391877Y-130175590D01*
X119361282Y-130021783D01*
X119267129Y-129880871D01*
X119126217Y-129786718D01*
X118972410Y-129756123D01*
X118786861Y-129756123D01*
X118794577Y-129720283D01*
X118786000Y-129647816D01*
X118786000Y-129631894D01*
X118779477Y-129592707D01*
X118767463Y-129491198D01*
X118760669Y-129479710D01*
X118758388Y-129466006D01*
X118651523Y-129267951D01*
X118577928Y-129199920D01*
X118573805Y-129195797D01*
X119679998Y-128089604D01*
X119714240Y-128067495D01*
X119759426Y-128010178D01*
X119770675Y-127998929D01*
X119793767Y-127966616D01*
X119857056Y-127886334D01*
X119860375Y-127873407D01*
X119868453Y-127862103D01*
X119932933Y-127646492D01*
X119929000Y-127546376D01*
X119929000Y-127492473D01*
X119963910Y-127492473D01*
X120117717Y-127461878D01*
X120258629Y-127367725D01*
X120352782Y-127226813D01*
X120383377Y-127073006D01*
X120383377Y-126809596D01*
X121086699Y-126809596D01*
X121138126Y-126865460D01*
G37*
X121138126Y-126865460D02*
X121327611Y-126968004D01*
X121529684Y-127001724D01*
X122053698Y-127001724D01*
X122208987Y-126982367D01*
X122232403Y-126972096D01*
X122713341Y-126972096D01*
X122796770Y-126979322D01*
X122825860Y-126972096D01*
X122903436Y-126972096D01*
X123068732Y-127070046D01*
X123310197Y-127128239D01*
X123558099Y-127112860D01*
X123790520Y-127025267D01*
X123859192Y-126972096D01*
X123901529Y-126972096D01*
X123976783Y-127022378D01*
X124130590Y-127052973D01*
X124955116Y-127052973D01*
X124489997Y-127518092D01*
X124455920Y-127540096D01*
X124404301Y-127540096D01*
X124352874Y-127484232D01*
X124163389Y-127381688D01*
X123961316Y-127347968D01*
X123437302Y-127347968D01*
X123282013Y-127367325D01*
X123087149Y-127452799D01*
X122992321Y-127540096D01*
X122499301Y-127540096D01*
X122447874Y-127484232D01*
X122258389Y-127381688D01*
X122056316Y-127347968D01*
X121532302Y-127347968D01*
X121377013Y-127367325D01*
X121182150Y-127452799D01*
X121023636Y-127598722D01*
X120921092Y-127788207D01*
X120887372Y-127990280D01*
X120887372Y-128439294D01*
X120906729Y-128594583D01*
X120992203Y-128789446D01*
X121138126Y-128947960D01*
X121239319Y-129002723D01*
X121182150Y-129027799D01*
X121023636Y-129173722D01*
X120921092Y-129363207D01*
X120887372Y-129565280D01*
X120887372Y-130014294D01*
X120906729Y-130169583D01*
X120992203Y-130364446D01*
X121138126Y-130522960D01*
X121327611Y-130625504D01*
X121529684Y-130659224D01*
X121697201Y-130659224D01*
X121697200Y-133061091D01*
X121716011Y-133203976D01*
X121752000Y-133290861D01*
X121752000Y-133537992D01*
X119189897Y-136100096D01*
X117698433Y-136100096D01*
X117641184Y-136054149D01*
X117410327Y-135962513D01*
X117162731Y-135942808D01*
X116920287Y-135996780D01*
X116721218Y-136110096D01*
X116325846Y-136110096D01*
X116297082Y-136092286D01*
X116097078Y-136054899D01*
X114763990Y-136054899D01*
X114763990Y-129857293D01*
X116100020Y-129857293D01*
X116334704Y-129802096D01*
X117070768Y-129802096D01*
X116952871Y-129880871D01*
X116858718Y-130021783D01*
X116828123Y-130175590D01*
X116828123Y-131500410D01*
X116858718Y-131654217D01*
X116952871Y-131795129D01*
X117093783Y-131889282D01*
X117247590Y-131919877D01*
X117440698Y-131919877D01*
X117452537Y-132019897D01*
X117459331Y-132031386D01*
X117461613Y-132045091D01*
X117568478Y-132243145D01*
X117642072Y-132311175D01*
X117803796Y-132472900D01*
X117817492Y-132569739D01*
X117923051Y-132794570D01*
X118090052Y-132978424D01*
X118303732Y-133105046D01*
X118545197Y-133163239D01*
X118793099Y-133147860D01*
X119025520Y-133060267D01*
X119221911Y-132908205D01*
X119364907Y-132705118D01*
X119442022Y-132468482D01*
X119444295Y-132208112D01*
X119371321Y-131970165D01*
X119257124Y-131801814D01*
X119267129Y-131795129D01*
X119361282Y-131654217D01*
X119391877Y-131500410D01*
X119391877Y-130175590D01*
X119361282Y-130021783D01*
X119267129Y-129880871D01*
X119126217Y-129786718D01*
X118972410Y-129756123D01*
X118786861Y-129756123D01*
X118794577Y-129720283D01*
X118786000Y-129647816D01*
X118786000Y-129631894D01*
X118779477Y-129592707D01*
X118767463Y-129491198D01*
X118760669Y-129479710D01*
X118758388Y-129466006D01*
X118651523Y-129267951D01*
X118577928Y-129199920D01*
X118573805Y-129195797D01*
X119679998Y-128089604D01*
X119714240Y-128067495D01*
X119759426Y-128010178D01*
X119770675Y-127998929D01*
X119793767Y-127966616D01*
X119857056Y-127886334D01*
X119860375Y-127873407D01*
X119868453Y-127862103D01*
X119932933Y-127646492D01*
X119929000Y-127546376D01*
X119929000Y-127492473D01*
X119963910Y-127492473D01*
X120117717Y-127461878D01*
X120258629Y-127367725D01*
X120352782Y-127226813D01*
X120383377Y-127073006D01*
X120383377Y-126809596D01*
X121086699Y-126809596D01*
X121138126Y-126865460D01*
G36*
X125716788Y-133534412D02*
G01*
X125869448Y-133651552D01*
X125956336Y-133687542D01*
X127315794Y-135047001D01*
X127337903Y-135081241D01*
X127395218Y-135126425D01*
X127406467Y-135137675D01*
X127438780Y-135160767D01*
X127519062Y-135224056D01*
X127531989Y-135227375D01*
X127543293Y-135235453D01*
X127758904Y-135299933D01*
X127859020Y-135296000D01*
X127989993Y-135296000D01*
X128704222Y-136010229D01*
X128628013Y-136019729D01*
X128588480Y-136037069D01*
X128265505Y-135714094D01*
X128243397Y-135679855D01*
X128186082Y-135634671D01*
X128174831Y-135623419D01*
X128142530Y-135600337D01*
X128062237Y-135537040D01*
X128049309Y-135533720D01*
X128038006Y-135525643D01*
X127822395Y-135461163D01*
X127722280Y-135465096D01*
X123773025Y-135465096D01*
X123733187Y-135456520D01*
X123674836Y-135463425D01*
X123644230Y-135460775D01*
X123626833Y-135465096D01*
X123006911Y-135465096D01*
X124125004Y-134347004D01*
X124159241Y-134324897D01*
X124204421Y-134267587D01*
X124215677Y-134256332D01*
X124238769Y-134224017D01*
X124302057Y-134143736D01*
X124305375Y-134130811D01*
X124313453Y-134119508D01*
X124377934Y-133903895D01*
X124374000Y-133803764D01*
X124374000Y-133439552D01*
X124446788Y-133534412D01*
X124599448Y-133651552D01*
X124777223Y-133725189D01*
X124968000Y-133750305D01*
X125158776Y-133725189D01*
X125336551Y-133651552D01*
X125489212Y-133534412D01*
X125603000Y-133386120D01*
X125716788Y-133534412D01*
G37*
X125716788Y-133534412D02*
X125869448Y-133651552D01*
X125956336Y-133687542D01*
X127315794Y-135047001D01*
X127337903Y-135081241D01*
X127395218Y-135126425D01*
X127406467Y-135137675D01*
X127438780Y-135160767D01*
X127519062Y-135224056D01*
X127531989Y-135227375D01*
X127543293Y-135235453D01*
X127758904Y-135299933D01*
X127859020Y-135296000D01*
X127989993Y-135296000D01*
X128704222Y-136010229D01*
X128628013Y-136019729D01*
X128588480Y-136037069D01*
X128265505Y-135714094D01*
X128243397Y-135679855D01*
X128186082Y-135634671D01*
X128174831Y-135623419D01*
X128142530Y-135600337D01*
X128062237Y-135537040D01*
X128049309Y-135533720D01*
X128038006Y-135525643D01*
X127822395Y-135461163D01*
X127722280Y-135465096D01*
X123773025Y-135465096D01*
X123733187Y-135456520D01*
X123674836Y-135463425D01*
X123644230Y-135460775D01*
X123626833Y-135465096D01*
X123006911Y-135465096D01*
X124125004Y-134347004D01*
X124159241Y-134324897D01*
X124204421Y-134267587D01*
X124215677Y-134256332D01*
X124238769Y-134224017D01*
X124302057Y-134143736D01*
X124305375Y-134130811D01*
X124313453Y-134119508D01*
X124377934Y-133903895D01*
X124374000Y-133803764D01*
X124374000Y-133439552D01*
X124446788Y-133534412D01*
X124599448Y-133651552D01*
X124777223Y-133725189D01*
X124968000Y-133750305D01*
X125158776Y-133725189D01*
X125336551Y-133651552D01*
X125489212Y-133534412D01*
X125603000Y-133386120D01*
X125716788Y-133534412D01*
G36*
X136904703Y-124559946D02*
G01*
X137050626Y-124718460D01*
X137240111Y-124821004D01*
X137442184Y-124854724D01*
X137891198Y-124854724D01*
X138046487Y-124835367D01*
X138241350Y-124749893D01*
X138376915Y-124625096D01*
X140181993Y-124625096D01*
X141677614Y-126120719D01*
X141049632Y-126120719D01*
X140483004Y-125554092D01*
X140460897Y-125519855D01*
X140403582Y-125474671D01*
X140392331Y-125463419D01*
X140360030Y-125440337D01*
X140279737Y-125377040D01*
X140266809Y-125373720D01*
X140255506Y-125365643D01*
X140039895Y-125301163D01*
X139939780Y-125305096D01*
X138371322Y-125305096D01*
X138285374Y-125211732D01*
X138095889Y-125109188D01*
X137893816Y-125075468D01*
X137444802Y-125075468D01*
X137289513Y-125094825D01*
X137094650Y-125180299D01*
X136936136Y-125326222D01*
X136881373Y-125427414D01*
X136856297Y-125370245D01*
X136769000Y-125275417D01*
X136769000Y-124655397D01*
X136824864Y-124603970D01*
X136879627Y-124502777D01*
X136904703Y-124559946D01*
G37*
X136904703Y-124559946D02*
X137050626Y-124718460D01*
X137240111Y-124821004D01*
X137442184Y-124854724D01*
X137891198Y-124854724D01*
X138046487Y-124835367D01*
X138241350Y-124749893D01*
X138376915Y-124625096D01*
X140181993Y-124625096D01*
X141677614Y-126120719D01*
X141049632Y-126120719D01*
X140483004Y-125554092D01*
X140460897Y-125519855D01*
X140403582Y-125474671D01*
X140392331Y-125463419D01*
X140360030Y-125440337D01*
X140279737Y-125377040D01*
X140266809Y-125373720D01*
X140255506Y-125365643D01*
X140039895Y-125301163D01*
X139939780Y-125305096D01*
X138371322Y-125305096D01*
X138285374Y-125211732D01*
X138095889Y-125109188D01*
X137893816Y-125075468D01*
X137444802Y-125075468D01*
X137289513Y-125094825D01*
X137094650Y-125180299D01*
X136936136Y-125326222D01*
X136881373Y-125427414D01*
X136856297Y-125370245D01*
X136769000Y-125275417D01*
X136769000Y-124655397D01*
X136824864Y-124603970D01*
X136879627Y-124502777D01*
X136904703Y-124559946D01*
G36*
X135361136Y-123294222D02*
G01*
X135258592Y-123483707D01*
X135224872Y-123685780D01*
X135224872Y-124209794D01*
X135244229Y-124365083D01*
X135329703Y-124559947D01*
X135417001Y-124654776D01*
X135417000Y-125274795D01*
X135384085Y-125305096D01*
X133291322Y-125305096D01*
X133264000Y-125275417D01*
X133264000Y-124782397D01*
X133319864Y-124730970D01*
X133422408Y-124541485D01*
X133456128Y-124339412D01*
X133456128Y-123815398D01*
X133436771Y-123660109D01*
X133351297Y-123465246D01*
X133205374Y-123306732D01*
X133067459Y-123232096D01*
X135428623Y-123232096D01*
X135361136Y-123294222D01*
G37*
X135361136Y-123294222D02*
X135258592Y-123483707D01*
X135224872Y-123685780D01*
X135224872Y-124209794D01*
X135244229Y-124365083D01*
X135329703Y-124559947D01*
X135417001Y-124654776D01*
X135417000Y-125274795D01*
X135384085Y-125305096D01*
X133291322Y-125305096D01*
X133264000Y-125275417D01*
X133264000Y-124782397D01*
X133319864Y-124730970D01*
X133422408Y-124541485D01*
X133456128Y-124339412D01*
X133456128Y-123815398D01*
X133436771Y-123660109D01*
X133351297Y-123465246D01*
X133205374Y-123306732D01*
X133067459Y-123232096D01*
X135428623Y-123232096D01*
X135361136Y-123294222D01*
G04 #@! TD*
M02*
