G04 #@! TF.GenerationSoftware,KiCad,Pcbnew,(5.99.0-9154-g0d2ee266a1)*
G04 #@! TF.CreationDate,2021-02-19T07:59:59+01:00*
G04 #@! TF.ProjectId,TFRPM01C,54465250-4d30-4314-932e-6b696361645f,REV*
G04 #@! TF.SameCoordinates,Original*
G04 #@! TF.FileFunction,Copper,L2,Bot*
G04 #@! TF.FilePolarity,Positive*
%FSLAX46Y46*%
G04 Gerber Fmt 4.6, Leading zero omitted, Abs format (unit mm)*
G04 Created by KiCad (PCBNEW (5.99.0-9154-g0d2ee266a1)) date 2021-02-19 07:59:59*
%MOMM*%
%LPD*%
G01*
G04 APERTURE LIST*
G04 Aperture macros list*
%AMRoundRect*
0 Rectangle with rounded corners*
0 $1 Rounding radius*
0 $2 $3 $4 $5 $6 $7 $8 $9 X,Y pos of 4 corners*
0 Add a 4 corners polygon primitive as box body*
4,1,4,$2,$3,$4,$5,$6,$7,$8,$9,$2,$3,0*
0 Add four circle primitives for the rounded corners*
1,1,$1+$1,$2,$3*
1,1,$1+$1,$4,$5*
1,1,$1+$1,$6,$7*
1,1,$1+$1,$8,$9*
0 Add four rect primitives between the rounded corners*
20,1,$1+$1,$2,$3,$4,$5,0*
20,1,$1+$1,$4,$5,$6,$7,0*
20,1,$1+$1,$6,$7,$8,$9,0*
20,1,$1+$1,$8,$9,$2,$3,0*%
%AMFreePoly0*
4,1,22,0.550000,-0.750000,0.000000,-0.750000,0.000000,-0.745033,-0.079941,-0.743568,-0.215256,-0.701293,-0.333266,-0.622738,-0.424486,-0.514219,-0.481581,-0.384460,-0.499164,-0.250000,-0.500000,-0.250000,-0.500000,0.250000,-0.499164,0.250000,-0.499963,0.256109,-0.478152,0.396186,-0.417904,0.524511,-0.324060,0.630769,-0.204165,0.706417,-0.067858,0.745374,0.000000,0.744959,0.000000,0.750000,
0.550000,0.750000,0.550000,-0.750000,0.550000,-0.750000,$1*%
%AMFreePoly1*
4,1,20,0.000000,0.744959,0.073905,0.744508,0.209726,0.703889,0.328688,0.626782,0.421226,0.519385,0.479903,0.390333,0.500000,0.250000,0.500000,-0.250000,0.499851,-0.262216,0.476331,-0.402017,0.414519,-0.529596,0.319384,-0.634700,0.198574,-0.708877,0.061801,-0.746166,0.000000,-0.745033,0.000000,-0.750000,-0.550000,-0.750000,-0.550000,0.750000,0.000000,0.750000,0.000000,0.744959,
0.000000,0.744959,$1*%
G04 Aperture macros list end*
G04 #@! TA.AperFunction,SMDPad,CuDef*
%ADD10R,1.700000X1.300000*%
G04 #@! TD*
G04 #@! TA.AperFunction,ComponentPad*
%ADD11C,6.000000*%
G04 #@! TD*
G04 #@! TA.AperFunction,SMDPad,CuDef*
%ADD12RoundRect,0.218750X-0.256250X0.218750X-0.256250X-0.218750X0.256250X-0.218750X0.256250X0.218750X0*%
G04 #@! TD*
G04 #@! TA.AperFunction,ComponentPad*
%ADD13R,1.700000X1.700000*%
G04 #@! TD*
G04 #@! TA.AperFunction,ComponentPad*
%ADD14O,1.700000X1.700000*%
G04 #@! TD*
G04 #@! TA.AperFunction,SMDPad,CuDef*
%ADD15R,1.060000X0.650000*%
G04 #@! TD*
G04 #@! TA.AperFunction,SMDPad,CuDef*
%ADD16R,1.397000X0.889000*%
G04 #@! TD*
G04 #@! TA.AperFunction,SMDPad,CuDef*
%ADD17RoundRect,0.218750X0.218750X0.256250X-0.218750X0.256250X-0.218750X-0.256250X0.218750X-0.256250X0*%
G04 #@! TD*
G04 #@! TA.AperFunction,SMDPad,CuDef*
%ADD18RoundRect,0.150000X0.700000X-0.150000X0.700000X0.150000X-0.700000X0.150000X-0.700000X-0.150000X0*%
G04 #@! TD*
G04 #@! TA.AperFunction,SMDPad,CuDef*
%ADD19RoundRect,0.250000X1.100000X-0.250000X1.100000X0.250000X-1.100000X0.250000X-1.100000X-0.250000X0*%
G04 #@! TD*
G04 #@! TA.AperFunction,SMDPad,CuDef*
%ADD20RoundRect,0.218750X-0.218750X-0.256250X0.218750X-0.256250X0.218750X0.256250X-0.218750X0.256250X0*%
G04 #@! TD*
G04 #@! TA.AperFunction,SMDPad,CuDef*
%ADD21O,0.700000X2.600000*%
G04 #@! TD*
G04 #@! TA.AperFunction,SMDPad,CuDef*
%ADD22RoundRect,0.218750X0.256250X-0.218750X0.256250X0.218750X-0.256250X0.218750X-0.256250X-0.218750X0*%
G04 #@! TD*
G04 #@! TA.AperFunction,SMDPad,CuDef*
%ADD23R,0.950000X1.500000*%
G04 #@! TD*
G04 #@! TA.AperFunction,SMDPad,CuDef*
%ADD24R,0.400000X0.650000*%
G04 #@! TD*
G04 #@! TA.AperFunction,SMDPad,CuDef*
%ADD25FreePoly0,0.000000*%
G04 #@! TD*
G04 #@! TA.AperFunction,SMDPad,CuDef*
%ADD26R,1.000000X1.500000*%
G04 #@! TD*
G04 #@! TA.AperFunction,SMDPad,CuDef*
%ADD27FreePoly1,0.000000*%
G04 #@! TD*
G04 #@! TA.AperFunction,SMDPad,CuDef*
%ADD28FreePoly0,180.000000*%
G04 #@! TD*
G04 #@! TA.AperFunction,SMDPad,CuDef*
%ADD29FreePoly1,180.000000*%
G04 #@! TD*
G04 #@! TA.AperFunction,ViaPad*
%ADD30C,0.800000*%
G04 #@! TD*
G04 #@! TA.AperFunction,Conductor*
%ADD31C,0.400000*%
G04 #@! TD*
G04 #@! TA.AperFunction,Conductor*
%ADD32C,0.500000*%
G04 #@! TD*
G04 APERTURE END LIST*
G04 #@! TO.C,JP1*
G36*
X129394000Y-137206000D02*
G01*
X128894000Y-137206000D01*
X128894000Y-136606000D01*
X129394000Y-136606000D01*
X129394000Y-137206000D01*
G37*
G04 #@! TO.C,JP2*
G36*
X134504000Y-126284000D02*
G01*
X134004000Y-126284000D01*
X134004000Y-125684000D01*
X134504000Y-125684000D01*
X134504000Y-126284000D01*
G37*
G04 #@! TD*
D10*
G04 #@! TO.P,D1,1,K*
G04 #@! TO.N,+5V*
X118110000Y-130838000D03*
G04 #@! TO.P,D1,2,A*
G04 #@! TO.N,GND*
X118110000Y-134338000D03*
G04 #@! TD*
D11*
G04 #@! TO.P,M2,1*
G04 #@! TO.N,GND*
X132588000Y-132331096D03*
G04 #@! TD*
D12*
G04 #@! TO.P,R10,1*
G04 #@! TO.N,+3V3*
X123444000Y-126593500D03*
G04 #@! TO.P,R10,2*
G04 #@! TO.N,/SCL*
X123444000Y-128168500D03*
G04 #@! TD*
D13*
G04 #@! TO.P,J1,1*
G04 #@! TO.N,/COUNT*
X138303000Y-134871096D03*
D14*
G04 #@! TO.P,J1,2*
G04 #@! TO.N,Net-(C2-Pad1)*
X138303000Y-132331096D03*
G04 #@! TO.P,J1,3*
G04 #@! TO.N,GND*
X138303000Y-129791096D03*
G04 #@! TD*
D15*
G04 #@! TO.P,U3,1,VIN*
G04 #@! TO.N,+5V*
X125816000Y-126426000D03*
G04 #@! TO.P,U3,2,GND*
G04 #@! TO.N,GND*
X125816000Y-125476000D03*
G04 #@! TO.P,U3,3,EN*
G04 #@! TO.N,+5V*
X125816000Y-124526000D03*
G04 #@! TO.P,U3,4,NC*
G04 #@! TO.N,N/C*
X128016000Y-124526000D03*
G04 #@! TO.P,U3,5,VOUT*
G04 #@! TO.N,+3V3*
X128016000Y-126426000D03*
G04 #@! TD*
D16*
G04 #@! TO.P,C3,1*
G04 #@! TO.N,+5V*
X119253000Y-127381000D03*
G04 #@! TO.P,C3,2*
G04 #@! TO.N,GND*
X119253000Y-125476000D03*
G04 #@! TD*
D17*
G04 #@! TO.P,C4,1*
G04 #@! TO.N,+5V*
X123571000Y-124206000D03*
G04 #@! TO.P,C4,2*
G04 #@! TO.N,GND*
X121996000Y-124206000D03*
G04 #@! TD*
D18*
G04 #@! TO.P,J2,1*
G04 #@! TO.N,+5V*
X115388000Y-129126096D03*
G04 #@! TO.P,J2,2*
G04 #@! TO.N,/SCL*
X115388000Y-127876096D03*
G04 #@! TO.P,J2,3*
G04 #@! TO.N,/SDA*
X115388000Y-126626096D03*
G04 #@! TO.P,J2,4*
G04 #@! TO.N,GND*
X115388000Y-125376096D03*
D19*
G04 #@! TO.P,J2,MP*
X112188000Y-130976096D03*
X112188000Y-123526096D03*
G04 #@! TD*
D12*
G04 #@! TO.P,R4,1*
G04 #@! TO.N,Net-(R4-Pad1)*
X129032000Y-138887000D03*
G04 #@! TO.P,R4,2*
G04 #@! TO.N,Net-(D2-Pad2)*
X129032000Y-140462000D03*
G04 #@! TD*
D16*
G04 #@! TO.P,R1,1*
G04 #@! TO.N,Net-(JP2-Pad2)*
X141478000Y-125349000D03*
G04 #@! TO.P,R1,2*
G04 #@! TO.N,/COUNT*
X141478000Y-127254000D03*
G04 #@! TD*
G04 #@! TO.P,R2,1*
G04 #@! TO.N,Net-(C2-Pad1)*
X137160000Y-127254000D03*
G04 #@! TO.P,R2,2*
G04 #@! TO.N,Net-(JP2-Pad2)*
X137160000Y-125349000D03*
G04 #@! TD*
D12*
G04 #@! TO.P,R3,1*
G04 #@! TO.N,+3V3*
X121666000Y-126593500D03*
G04 #@! TO.P,R3,2*
G04 #@! TO.N,/SDA*
X121666000Y-128168500D03*
G04 #@! TD*
G04 #@! TO.P,C6,1*
G04 #@! TO.N,+3V3*
X136652000Y-138658500D03*
G04 #@! TO.P,C6,2*
G04 #@! TO.N,GND*
X136652000Y-140233500D03*
G04 #@! TD*
D18*
G04 #@! TO.P,J3,1*
G04 #@! TO.N,+5V*
X115388000Y-139286096D03*
G04 #@! TO.P,J3,2*
G04 #@! TO.N,/SCL*
X115388000Y-138036096D03*
G04 #@! TO.P,J3,3*
G04 #@! TO.N,/SDA*
X115388000Y-136786096D03*
G04 #@! TO.P,J3,4*
G04 #@! TO.N,GND*
X115388000Y-135536096D03*
D19*
G04 #@! TO.P,J3,MP*
X112188000Y-141136096D03*
X112188000Y-133686096D03*
G04 #@! TD*
D20*
G04 #@! TO.P,C5,1*
G04 #@! TO.N,+3V3*
X127381000Y-129286000D03*
G04 #@! TO.P,C5,2*
G04 #@! TO.N,GND*
X128956000Y-129286000D03*
G04 #@! TD*
D21*
G04 #@! TO.P,U1,1,OSCI*
G04 #@! TO.N,Net-(R4-Pad1)*
X125476000Y-139782000D03*
G04 #@! TO.P,U1,2,OSCO*
G04 #@! TO.N,N/C*
X124206000Y-139782000D03*
G04 #@! TO.P,U1,3,A0*
G04 #@! TO.N,Net-(JP1-Pad2)*
X122936000Y-139782000D03*
G04 #@! TO.P,U1,4,VSS*
G04 #@! TO.N,GND*
X121661000Y-139782000D03*
G04 #@! TO.P,U1,5,SDA*
G04 #@! TO.N,/SDA*
X121666000Y-130982000D03*
G04 #@! TO.P,U1,6,SCL*
G04 #@! TO.N,/SCL*
X122936000Y-130982000D03*
G04 #@! TO.P,U1,7,#INT*
G04 #@! TO.N,N/C*
X124271000Y-130982000D03*
G04 #@! TO.P,U1,8,VDD*
G04 #@! TO.N,+3V3*
X125476000Y-130982000D03*
G04 #@! TD*
D22*
G04 #@! TO.P,C1,1*
G04 #@! TO.N,+3V3*
X130302000Y-126416000D03*
G04 #@! TO.P,C1,2*
G04 #@! TO.N,GND*
X130302000Y-124841000D03*
G04 #@! TD*
D16*
G04 #@! TO.P,C2,1*
G04 #@! TO.N,Net-(C2-Pad1)*
X139192000Y-126365000D03*
G04 #@! TO.P,C2,2*
G04 #@! TO.N,GND*
X139192000Y-124460000D03*
G04 #@! TD*
D23*
G04 #@! TO.P,D2,1,K*
G04 #@! TO.N,GND*
X134949000Y-139697096D03*
G04 #@! TO.P,D2,2,A*
G04 #@! TO.N,Net-(D2-Pad2)*
X130799000Y-139697096D03*
G04 #@! TD*
D24*
G04 #@! TO.P,U2,1*
G04 #@! TO.N,N/C*
X139050000Y-138242000D03*
G04 #@! TO.P,U2,2*
G04 #@! TO.N,/COUNT*
X139700000Y-138242000D03*
G04 #@! TO.P,U2,3,GND*
G04 #@! TO.N,GND*
X140350000Y-138242000D03*
G04 #@! TO.P,U2,4*
G04 #@! TO.N,Net-(R4-Pad1)*
X140350000Y-140142000D03*
G04 #@! TO.P,U2,5,VCC*
G04 #@! TO.N,+3V3*
X139050000Y-140142000D03*
G04 #@! TD*
D25*
G04 #@! TO.P,JP1,1,A*
G04 #@! TO.N,GND*
X128494000Y-136906000D03*
D26*
G04 #@! TO.P,JP1,2,C*
G04 #@! TO.N,Net-(JP1-Pad2)*
X129794000Y-136906000D03*
D27*
G04 #@! TO.P,JP1,3,B*
G04 #@! TO.N,+3V3*
X131094000Y-136906000D03*
G04 #@! TD*
D28*
G04 #@! TO.P,JP2,1,A*
G04 #@! TO.N,+5V*
X134904000Y-125984000D03*
D26*
G04 #@! TO.P,JP2,2,C*
G04 #@! TO.N,Net-(JP2-Pad2)*
X133604000Y-125984000D03*
D29*
G04 #@! TO.P,JP2,3,B*
G04 #@! TO.N,+3V3*
X132304000Y-125984000D03*
G04 #@! TD*
D30*
G04 #@! TO.N,GND*
X131064000Y-123444000D03*
X135382000Y-123444000D03*
X115316000Y-130807096D03*
X115316000Y-132331096D03*
X120142000Y-134363096D03*
X115316000Y-133855096D03*
X141986000Y-138938000D03*
X120396000Y-130048000D03*
X120396000Y-128524000D03*
X119634000Y-129286000D03*
X115316000Y-140713096D03*
X117856000Y-140716000D03*
X127000000Y-138173096D03*
X124206000Y-134874000D03*
X127000000Y-136906000D03*
X124206000Y-133858000D03*
X112268000Y-129029096D03*
X112268000Y-138681096D03*
X112268000Y-135633096D03*
X112268000Y-137665096D03*
X112268000Y-125981096D03*
X112268000Y-136649096D03*
X112268000Y-126997096D03*
X112268000Y-128013096D03*
X117094000Y-123695096D03*
X138176000Y-136903096D03*
X139192000Y-128016000D03*
X136906000Y-128524000D03*
X143002000Y-135382000D03*
X143764000Y-138935096D03*
X129540000Y-127762000D03*
X124206000Y-133096000D03*
X143002000Y-136652000D03*
X138938000Y-123444000D03*
X130302000Y-128524000D03*
X134493000Y-128270000D03*
X143764000Y-140967096D03*
X143764000Y-139951096D03*
X135636000Y-128778000D03*
X136525000Y-129794000D03*
X136906000Y-130937000D03*
X143002000Y-134109096D03*
X140208000Y-123444000D03*
X128270000Y-134112000D03*
X127762000Y-130810000D03*
X135636000Y-141224000D03*
X140970000Y-136906000D03*
X119888000Y-132842000D03*
X127762000Y-132842000D03*
X141986000Y-137922000D03*
X127762000Y-140970000D03*
X119888000Y-131064000D03*
X120396000Y-139954000D03*
X136906000Y-136652000D03*
X120065800Y-123695096D03*
X135636000Y-136144000D03*
X117094000Y-125222000D03*
X115824000Y-123698000D03*
X120396000Y-138938000D03*
X118491000Y-123695096D03*
X134620000Y-141224000D03*
X120396000Y-140970000D03*
X125476000Y-137414000D03*
G04 #@! TO.N,+3V3*
X131094000Y-136906000D03*
X125476000Y-133096000D03*
X137922000Y-140208000D03*
G04 #@! TO.N,+5V*
X118618000Y-132331096D03*
X118618000Y-139446000D03*
X124206000Y-125476000D03*
X135001000Y-126111000D03*
G04 #@! TO.N,/SDA*
X117221000Y-136776096D03*
X117221000Y-126616096D03*
G04 #@! TD*
D31*
G04 #@! TO.N,Net-(D2-Pad2)*
X129032000Y-140462000D02*
X130109096Y-140462000D01*
X130109096Y-140462000D02*
X130874000Y-139697096D01*
D32*
G04 #@! TO.N,/COUNT*
X141478000Y-127254000D02*
X141476548Y-127255452D01*
D31*
X139700000Y-136398000D02*
X138303000Y-135001000D01*
D32*
X141476548Y-131697548D02*
X138303000Y-134871096D01*
D31*
X138303000Y-135001000D02*
X138303000Y-134871096D01*
X139700000Y-136398000D02*
X139700000Y-138242000D01*
D32*
X138303000Y-134871096D02*
X138430000Y-134871096D01*
X141476548Y-127255452D02*
X141476548Y-131697548D01*
G04 #@! TO.N,+3V3*
X121666000Y-126593500D02*
X123571000Y-126593500D01*
X128016000Y-128651000D02*
X127381000Y-129286000D01*
X130556000Y-126416000D02*
X128026000Y-126416000D01*
X128026000Y-126416000D02*
X128016000Y-126426000D01*
X123571000Y-126593500D02*
X125476000Y-128498500D01*
X130556000Y-126416000D02*
X131999000Y-126416000D01*
X127381000Y-129286000D02*
X125476000Y-129286000D01*
X136652000Y-138658500D02*
X137922000Y-139928500D01*
X125476000Y-129286000D02*
X125476000Y-130982000D01*
X137988000Y-140142000D02*
X137922000Y-140208000D01*
X131999000Y-126416000D02*
X132431000Y-125984000D01*
X128016000Y-127381000D02*
X128016000Y-126426000D01*
X125476000Y-128498500D02*
X125476000Y-129286000D01*
X128016000Y-126426000D02*
X128016000Y-128651000D01*
X137922000Y-139928500D02*
X137922000Y-140208000D01*
X125476000Y-130982000D02*
X125476000Y-133096000D01*
X139050000Y-140142000D02*
X137988000Y-140142000D01*
G04 #@! TO.N,+5V*
X115388000Y-139286096D02*
X118458096Y-139286096D01*
X125816000Y-124526000D02*
X124648000Y-124526000D01*
X124206000Y-125476000D02*
X123571000Y-125476000D01*
X115388000Y-129126096D02*
X117380904Y-129126096D01*
X123891000Y-124526000D02*
X123571000Y-124206000D01*
X118110000Y-129688000D02*
X117548096Y-129126096D01*
X119301020Y-127381000D02*
X119253000Y-127381000D01*
X124902000Y-126426000D02*
X124206000Y-125730000D01*
X119126000Y-127381000D02*
X117548096Y-128958904D01*
X123571000Y-124206000D02*
X123571000Y-125476000D01*
X121206020Y-125476000D02*
X119301020Y-127381000D01*
X115388000Y-129126096D02*
X117253904Y-129126096D01*
X118110000Y-130838000D02*
X118110000Y-131823096D01*
X125816000Y-124526000D02*
X123891000Y-124526000D01*
X118110000Y-130838000D02*
X118110000Y-129688000D01*
X117380904Y-129126096D02*
X117548096Y-128958904D01*
X118458096Y-139286096D02*
X118618000Y-139446000D01*
X124206000Y-125730000D02*
X124206000Y-125476000D01*
X123571000Y-125476000D02*
X121206020Y-125476000D01*
X119253000Y-127381000D02*
X119126000Y-127381000D01*
X118110000Y-131823096D02*
X118618000Y-132331096D01*
X117548096Y-128958904D02*
X117548096Y-129126096D01*
X125816000Y-126426000D02*
X124902000Y-126426000D01*
X135031000Y-125984000D02*
X135031000Y-126081000D01*
X119253000Y-127560596D02*
X119253000Y-127381000D01*
X135031000Y-126081000D02*
X135001000Y-126111000D01*
X117548096Y-129126096D02*
X117253904Y-129126096D01*
G04 #@! TO.N,/SDA*
X117211000Y-126626096D02*
X117221000Y-126616096D01*
X115388000Y-126626096D02*
X117211000Y-126626096D01*
X115388000Y-136786096D02*
X117211000Y-136786096D01*
X119469904Y-136776096D02*
X121666000Y-134580000D01*
X121666000Y-134580000D02*
X121666000Y-130982000D01*
X117221000Y-136776096D02*
X119469904Y-136776096D01*
X121666000Y-130982000D02*
X121666000Y-128168500D01*
X117211000Y-136786096D02*
X117221000Y-136776096D01*
G04 #@! TO.N,/SCL*
X114538000Y-127876096D02*
X115388000Y-127876096D01*
X114087990Y-128326106D02*
X114538000Y-127876096D01*
X114087990Y-137586086D02*
X114087990Y-128326106D01*
X114538000Y-138036096D02*
X114087990Y-137586086D01*
X115388000Y-138036096D02*
X114538000Y-138036096D01*
X122936000Y-134580000D02*
X122936000Y-130982000D01*
X115388000Y-138036096D02*
X119479904Y-138036096D01*
X122936000Y-130982000D02*
X122936000Y-128803500D01*
X119479904Y-138036096D02*
X122936000Y-134580000D01*
X122936000Y-128803500D02*
X123571000Y-128168500D01*
D31*
G04 #@! TO.N,Net-(R4-Pad1)*
X129489000Y-138430000D02*
X131318000Y-138430000D01*
X140350000Y-139334000D02*
X140208000Y-139192000D01*
X140350000Y-140142000D02*
X140350000Y-139334000D01*
D32*
X125476000Y-139782000D02*
X128137000Y-139782000D01*
D31*
X131318000Y-138430000D02*
X131691980Y-138056020D01*
D32*
X128137000Y-139782000D02*
X129032000Y-138887000D01*
D31*
X129032000Y-138887000D02*
X129489000Y-138430000D01*
X138684000Y-139192000D02*
X137922000Y-138430000D01*
X140208000Y-139192000D02*
X138684000Y-139192000D01*
X132080000Y-137668000D02*
X131318000Y-138430000D01*
X137160000Y-137668000D02*
X132080000Y-137668000D01*
X138684000Y-139192000D02*
X137160000Y-137668000D01*
D32*
G04 #@! TO.N,Net-(JP1-Pad2)*
X129794000Y-136906000D02*
X129794000Y-136269576D01*
X122936000Y-137668000D02*
X122936000Y-139782000D01*
X124879989Y-135724011D02*
X124460000Y-136144000D01*
X129286000Y-135128000D02*
X128270000Y-135128000D01*
X128270000Y-135128000D02*
X127762000Y-135128000D01*
X125476000Y-135128000D02*
X128270000Y-135128000D01*
X129794000Y-135636000D02*
X129286000Y-135128000D01*
X124841000Y-135763000D02*
X125476000Y-135128000D01*
X129794000Y-136906000D02*
X129794000Y-135636000D01*
X129286000Y-135128000D02*
X128652424Y-135128000D01*
X124841000Y-135763000D02*
X122936000Y-137668000D01*
X124879989Y-135724011D02*
X124841000Y-135763000D01*
G04 #@! TO.N,Net-(JP2-Pad2)*
X133769989Y-124294011D02*
X133604000Y-124460000D01*
X133604000Y-124460000D02*
X133604000Y-125984000D01*
X137160000Y-125349000D02*
X136105011Y-124294011D01*
X136105011Y-124294011D02*
X133769989Y-124294011D01*
X137165511Y-125354511D02*
X141472489Y-125354511D01*
X137160000Y-125349000D02*
X137165511Y-125354511D01*
X141472489Y-125354511D02*
X141478000Y-125349000D01*
G04 #@! TO.N,Net-(C2-Pad1)*
X138303000Y-127254000D02*
X139192000Y-126365000D01*
X137160000Y-127254000D02*
X138303000Y-127254000D01*
X138303000Y-132331096D02*
X140329489Y-130304607D01*
X140329489Y-130304607D02*
X140329489Y-127502489D01*
X139192000Y-126365000D02*
X140329489Y-127502489D01*
G04 #@! TD*
G04 #@! TA.AperFunction,Conductor*
G04 #@! TO.N,GND*
G36*
X148257191Y-123025003D02*
G01*
X148293155Y-123074503D01*
X148298000Y-123105096D01*
X148298000Y-141507096D01*
X148279093Y-141565287D01*
X148229593Y-141601251D01*
X148199000Y-141606096D01*
X111297000Y-141606096D01*
X111238809Y-141587189D01*
X111202845Y-141537689D01*
X111198000Y-141507096D01*
X111198000Y-139096518D01*
X114337500Y-139096518D01*
X114337500Y-139466135D01*
X114351667Y-139551249D01*
X114407100Y-139653984D01*
X114492822Y-139733226D01*
X114500305Y-139736534D01*
X114500308Y-139736536D01*
X114543416Y-139755593D01*
X114599591Y-139780427D01*
X114648422Y-139786596D01*
X116118039Y-139786596D01*
X116203153Y-139772429D01*
X116210357Y-139768542D01*
X116247557Y-139748470D01*
X116294568Y-139736596D01*
X118035475Y-139736596D01*
X118093666Y-139755503D01*
X118114016Y-139775328D01*
X118189847Y-139874153D01*
X118315250Y-139970378D01*
X118461285Y-140030868D01*
X118618000Y-140051500D01*
X118774715Y-140030868D01*
X118920750Y-139970378D01*
X119046153Y-139874153D01*
X119142378Y-139748750D01*
X119202868Y-139602715D01*
X119223500Y-139446000D01*
X119221435Y-139430311D01*
X119211535Y-139355118D01*
X119202868Y-139289285D01*
X119142378Y-139143250D01*
X119046153Y-139017847D01*
X118920750Y-138921622D01*
X118774715Y-138861132D01*
X118618000Y-138840500D01*
X118591007Y-138844054D01*
X118558059Y-138840633D01*
X118557702Y-138842503D01*
X118550431Y-138841116D01*
X118543448Y-138838664D01*
X118537408Y-138838427D01*
X118534729Y-138837905D01*
X118529352Y-138836204D01*
X118523731Y-138835762D01*
X118523728Y-138835761D01*
X118523642Y-138835755D01*
X118521627Y-138835596D01*
X118467309Y-138835596D01*
X118463423Y-138835520D01*
X118415506Y-138833637D01*
X118415503Y-138833637D01*
X118408112Y-138833347D01*
X118401545Y-138835088D01*
X118392320Y-138835596D01*
X116296461Y-138835596D01*
X116256432Y-138827142D01*
X116247608Y-138823241D01*
X116176409Y-138791765D01*
X116127578Y-138785596D01*
X114657961Y-138785596D01*
X114572847Y-138799763D01*
X114470112Y-138855196D01*
X114390870Y-138940918D01*
X114387562Y-138948401D01*
X114387560Y-138948404D01*
X114385240Y-138953653D01*
X114343669Y-139047687D01*
X114337500Y-139096518D01*
X111198000Y-139096518D01*
X111198000Y-137600394D01*
X113632715Y-137600394D01*
X113634044Y-137607671D01*
X113634044Y-137607674D01*
X113643327Y-137658500D01*
X113643836Y-137661557D01*
X113652626Y-137720021D01*
X113655751Y-137726529D01*
X113657048Y-137733631D01*
X113660459Y-137740197D01*
X113660459Y-137740198D01*
X113684283Y-137786061D01*
X113685672Y-137788840D01*
X113711255Y-137842115D01*
X113715358Y-137846554D01*
X113716882Y-137848815D01*
X113719483Y-137853822D01*
X113724515Y-137859714D01*
X113762941Y-137898140D01*
X113765634Y-137900942D01*
X113803192Y-137941572D01*
X113809067Y-137944985D01*
X113815948Y-137951147D01*
X114196915Y-138332114D01*
X114204651Y-138340820D01*
X114226189Y-138368141D01*
X114274819Y-138401751D01*
X114277310Y-138403532D01*
X114318903Y-138434254D01*
X114318907Y-138434256D01*
X114324857Y-138438651D01*
X114331669Y-138441043D01*
X114337608Y-138445148D01*
X114344669Y-138447381D01*
X114393933Y-138462961D01*
X114396885Y-138463946D01*
X114445661Y-138481075D01*
X114445665Y-138481076D01*
X114452648Y-138483528D01*
X114458689Y-138483765D01*
X114461365Y-138484287D01*
X114466744Y-138485988D01*
X114472365Y-138486430D01*
X114472368Y-138486431D01*
X114472454Y-138486437D01*
X114474469Y-138486596D01*
X114479539Y-138486596D01*
X114519568Y-138495050D01*
X114599591Y-138530427D01*
X114648422Y-138536596D01*
X116118039Y-138536596D01*
X116203153Y-138522429D01*
X116247556Y-138498470D01*
X116294568Y-138486596D01*
X119448027Y-138486596D01*
X119459663Y-138487282D01*
X119494212Y-138491371D01*
X119501489Y-138490042D01*
X119501492Y-138490042D01*
X119536495Y-138483649D01*
X119552339Y-138480755D01*
X119555375Y-138480250D01*
X119613839Y-138471460D01*
X119620347Y-138468335D01*
X119627449Y-138467038D01*
X119634386Y-138463435D01*
X119679879Y-138439803D01*
X119682660Y-138438413D01*
X119691321Y-138434254D01*
X119735933Y-138412831D01*
X119740372Y-138408728D01*
X119742633Y-138407204D01*
X119747640Y-138404603D01*
X119753532Y-138399571D01*
X119791958Y-138361145D01*
X119794761Y-138358451D01*
X119829955Y-138325918D01*
X119835390Y-138320894D01*
X119838803Y-138315019D01*
X119844965Y-138308138D01*
X123232023Y-134921081D01*
X123240737Y-134913339D01*
X123262232Y-134896394D01*
X123262233Y-134896393D01*
X123268045Y-134891811D01*
X123301631Y-134843217D01*
X123303438Y-134840688D01*
X123334157Y-134799097D01*
X123334158Y-134799095D01*
X123338555Y-134793142D01*
X123340946Y-134786332D01*
X123345052Y-134780392D01*
X123347283Y-134773339D01*
X123347285Y-134773334D01*
X123361039Y-134729843D01*
X123362878Y-134724029D01*
X123363840Y-134721144D01*
X123383432Y-134665352D01*
X123383669Y-134659312D01*
X123384191Y-134656633D01*
X123385892Y-134651256D01*
X123386500Y-134643531D01*
X123386500Y-134589213D01*
X123386576Y-134585327D01*
X123388459Y-134537410D01*
X123388459Y-134537407D01*
X123388749Y-134530016D01*
X123387008Y-134523449D01*
X123386500Y-134514224D01*
X123386500Y-132278034D01*
X123401361Y-132225865D01*
X123439918Y-132163679D01*
X123439918Y-132163678D01*
X123443475Y-132157942D01*
X123485541Y-132013149D01*
X123485921Y-132007977D01*
X123486368Y-132001890D01*
X123486368Y-132001883D01*
X123486500Y-132000089D01*
X123486500Y-129995499D01*
X123471037Y-129882615D01*
X123468360Y-129876429D01*
X123468359Y-129876425D01*
X123413836Y-129750430D01*
X123413834Y-129750426D01*
X123411155Y-129744236D01*
X123406906Y-129738989D01*
X123403412Y-129733220D01*
X123405374Y-129732032D01*
X123386500Y-129678732D01*
X123386500Y-129031111D01*
X123405407Y-128972920D01*
X123415496Y-128961107D01*
X123541107Y-128835496D01*
X123595624Y-128807719D01*
X123611111Y-128806500D01*
X123731819Y-128806500D01*
X123735663Y-128805891D01*
X123735665Y-128805891D01*
X123823655Y-128791955D01*
X123823656Y-128791955D01*
X123831350Y-128790736D01*
X123862477Y-128774876D01*
X123942679Y-128734011D01*
X123942681Y-128734010D01*
X123949618Y-128730475D01*
X124043475Y-128636618D01*
X124048893Y-128625986D01*
X124100200Y-128525290D01*
X124100200Y-128525289D01*
X124103736Y-128518350D01*
X124107276Y-128496003D01*
X124118891Y-128422665D01*
X124118891Y-128422663D01*
X124119500Y-128418819D01*
X124119500Y-128018112D01*
X124138407Y-127959921D01*
X124187907Y-127923957D01*
X124249093Y-127923957D01*
X124288504Y-127948108D01*
X124996504Y-128656108D01*
X125024281Y-128710625D01*
X125025500Y-128726112D01*
X125025500Y-129223425D01*
X125024099Y-129235672D01*
X125024156Y-129235676D01*
X125023576Y-129243050D01*
X125021904Y-129250262D01*
X125022427Y-129257645D01*
X125025253Y-129297561D01*
X125025500Y-129304553D01*
X125025500Y-129685966D01*
X125010639Y-129738135D01*
X124977478Y-129791618D01*
X124968525Y-129806058D01*
X124966642Y-129812540D01*
X124963897Y-129818705D01*
X124962763Y-129818200D01*
X124932276Y-129863062D01*
X124874708Y-129883788D01*
X124815952Y-129866719D01*
X124780739Y-129824155D01*
X124776303Y-129813903D01*
X124746155Y-129744236D01*
X124651266Y-129627058D01*
X124630681Y-129612429D01*
X124533859Y-129543621D01*
X124533858Y-129543620D01*
X124528361Y-129539714D01*
X124522017Y-129537430D01*
X124522013Y-129537428D01*
X124392843Y-129490924D01*
X124392840Y-129490923D01*
X124386495Y-129488639D01*
X124359206Y-129486635D01*
X124242854Y-129478090D01*
X124242850Y-129478090D01*
X124236120Y-129477596D01*
X124229505Y-129478930D01*
X124229503Y-129478930D01*
X124184398Y-129488025D01*
X124088315Y-129507399D01*
X124082309Y-129510459D01*
X124082307Y-129510460D01*
X124034373Y-129534884D01*
X123953969Y-129575852D01*
X123949006Y-129580415D01*
X123949004Y-129580417D01*
X123894264Y-129630753D01*
X123842980Y-129677911D01*
X123763525Y-129806058D01*
X123721459Y-129950851D01*
X123720500Y-129963911D01*
X123720500Y-131968501D01*
X123735963Y-132081385D01*
X123738640Y-132087571D01*
X123738641Y-132087575D01*
X123793164Y-132213570D01*
X123793166Y-132213574D01*
X123795845Y-132219764D01*
X123890734Y-132336942D01*
X123896233Y-132340850D01*
X123967097Y-132391210D01*
X124013639Y-132424286D01*
X124019983Y-132426570D01*
X124019987Y-132426572D01*
X124149157Y-132473076D01*
X124149160Y-132473077D01*
X124155505Y-132475361D01*
X124180496Y-132477196D01*
X124299146Y-132485910D01*
X124299150Y-132485910D01*
X124305880Y-132486404D01*
X124312495Y-132485070D01*
X124312497Y-132485070D01*
X124447074Y-132457934D01*
X124453685Y-132456601D01*
X124588031Y-132388148D01*
X124592994Y-132383585D01*
X124592996Y-132383583D01*
X124694052Y-132290657D01*
X124699020Y-132286089D01*
X124778475Y-132157942D01*
X124780358Y-132151460D01*
X124783103Y-132145295D01*
X124784237Y-132145800D01*
X124814724Y-132100938D01*
X124872292Y-132080212D01*
X124931048Y-132097281D01*
X124966261Y-132139845D01*
X125000845Y-132219764D01*
X125005094Y-132225011D01*
X125008588Y-132230780D01*
X125006626Y-132231968D01*
X125025500Y-132285268D01*
X125025500Y-132663364D01*
X125005042Y-132723631D01*
X124951622Y-132793250D01*
X124891132Y-132939285D01*
X124870500Y-133096000D01*
X124891132Y-133252715D01*
X124951622Y-133398750D01*
X125047847Y-133524153D01*
X125173250Y-133620378D01*
X125319285Y-133680868D01*
X125476000Y-133701500D01*
X125632715Y-133680868D01*
X125778750Y-133620378D01*
X125904153Y-133524153D01*
X126000378Y-133398750D01*
X126060868Y-133252715D01*
X126081500Y-133096000D01*
X126060868Y-132939285D01*
X126000378Y-132793250D01*
X125946958Y-132723631D01*
X125926500Y-132663364D01*
X125926500Y-132278034D01*
X125941361Y-132225865D01*
X125979918Y-132163679D01*
X125979918Y-132163678D01*
X125983475Y-132157942D01*
X126025541Y-132013149D01*
X126025921Y-132007977D01*
X126026368Y-132001890D01*
X126026368Y-132001883D01*
X126026500Y-132000089D01*
X126026500Y-129995499D01*
X126011037Y-129882615D01*
X126008360Y-129876428D01*
X126008358Y-129876422D01*
X126007663Y-129874817D01*
X126007537Y-129873482D01*
X126006542Y-129869919D01*
X126007183Y-129869740D01*
X126001905Y-129813903D01*
X126033052Y-129761239D01*
X126089205Y-129736939D01*
X126098521Y-129736500D01*
X126730273Y-129736500D01*
X126788464Y-129755407D01*
X126809166Y-129779639D01*
X126810908Y-129778373D01*
X126815489Y-129784679D01*
X126819025Y-129791618D01*
X126912882Y-129885475D01*
X126919819Y-129889010D01*
X126919821Y-129889011D01*
X127024210Y-129942200D01*
X127031150Y-129945736D01*
X127038844Y-129946955D01*
X127038845Y-129946955D01*
X127126835Y-129960891D01*
X127126837Y-129960891D01*
X127130681Y-129961500D01*
X127631319Y-129961500D01*
X127635163Y-129960891D01*
X127635165Y-129960891D01*
X127723155Y-129946955D01*
X127723156Y-129946955D01*
X127730850Y-129945736D01*
X127737790Y-129942200D01*
X127842179Y-129889011D01*
X127842181Y-129889010D01*
X127849118Y-129885475D01*
X127942975Y-129791618D01*
X127963962Y-129750430D01*
X127999700Y-129680290D01*
X127999700Y-129680289D01*
X128003236Y-129673350D01*
X128010748Y-129625925D01*
X128018391Y-129577665D01*
X128018391Y-129577663D01*
X128019000Y-129573819D01*
X128019000Y-129521665D01*
X136971575Y-129521665D01*
X136973374Y-129534884D01*
X136973728Y-129535253D01*
X136981051Y-129537096D01*
X138033320Y-129537096D01*
X138046005Y-129532974D01*
X138049000Y-129528853D01*
X138049000Y-128472378D01*
X138046878Y-128465846D01*
X138557000Y-128465846D01*
X138557000Y-129521416D01*
X138561122Y-129534101D01*
X138565243Y-129537096D01*
X139624514Y-129537096D01*
X139636341Y-129533253D01*
X139636638Y-129523395D01*
X139589665Y-129342416D01*
X139586892Y-129334542D01*
X139495673Y-129132042D01*
X139491610Y-129124742D01*
X139367585Y-128940521D01*
X139362337Y-128933994D01*
X139209046Y-128773303D01*
X139202787Y-128767766D01*
X139024609Y-128635198D01*
X139017500Y-128630790D01*
X138819529Y-128530136D01*
X138811791Y-128526994D01*
X138599686Y-128461135D01*
X138591532Y-128459342D01*
X138572544Y-128456825D01*
X138559427Y-128459245D01*
X138558205Y-128460529D01*
X138557000Y-128465846D01*
X138046878Y-128465846D01*
X138044921Y-128459824D01*
X138036307Y-128459361D01*
X137915438Y-128484722D01*
X137907425Y-128487125D01*
X137700855Y-128568704D01*
X137693382Y-128572413D01*
X137503508Y-128687632D01*
X137496761Y-128692552D01*
X137329019Y-128838111D01*
X137323190Y-128844105D01*
X137182380Y-129015835D01*
X137177637Y-129022737D01*
X137067775Y-129215736D01*
X137064268Y-129223326D01*
X136988492Y-129432087D01*
X136986315Y-129440154D01*
X136971575Y-129521665D01*
X128019000Y-129521665D01*
X128019000Y-129326111D01*
X128037907Y-129267920D01*
X128047996Y-129256107D01*
X128312018Y-128992085D01*
X128320724Y-128984349D01*
X128348045Y-128962811D01*
X128381648Y-128914193D01*
X128383456Y-128911663D01*
X128414156Y-128870098D01*
X128418555Y-128864142D01*
X128420946Y-128857332D01*
X128425052Y-128851392D01*
X128427283Y-128844339D01*
X128427285Y-128844334D01*
X128442873Y-128795043D01*
X128443840Y-128792144D01*
X128463432Y-128736352D01*
X128463669Y-128730312D01*
X128464191Y-128727633D01*
X128465892Y-128722256D01*
X128466500Y-128714531D01*
X128466500Y-128660213D01*
X128466576Y-128656327D01*
X128468459Y-128608410D01*
X128468459Y-128608407D01*
X128468749Y-128601016D01*
X128467008Y-128594449D01*
X128466500Y-128585224D01*
X128466500Y-127053561D01*
X128485407Y-126995370D01*
X128534907Y-126959406D01*
X128546186Y-126956463D01*
X128615076Y-126942760D01*
X128615078Y-126942759D01*
X128624641Y-126940857D01*
X128691310Y-126896310D01*
X128693103Y-126893626D01*
X128743950Y-126867719D01*
X128759437Y-126866500D01*
X129643899Y-126866500D01*
X129702090Y-126885407D01*
X129713903Y-126895496D01*
X129796382Y-126977975D01*
X129803319Y-126981510D01*
X129803321Y-126981511D01*
X129869047Y-127015000D01*
X129914650Y-127038236D01*
X129922344Y-127039455D01*
X129922345Y-127039455D01*
X130010335Y-127053391D01*
X130010337Y-127053391D01*
X130014181Y-127054000D01*
X130589819Y-127054000D01*
X130593663Y-127053391D01*
X130593665Y-127053391D01*
X130681655Y-127039455D01*
X130681656Y-127039455D01*
X130689350Y-127038236D01*
X130734953Y-127015000D01*
X130800679Y-126981511D01*
X130800681Y-126981510D01*
X130807618Y-126977975D01*
X130890097Y-126895496D01*
X130944614Y-126867719D01*
X130960101Y-126866500D01*
X131967123Y-126866500D01*
X131978762Y-126867187D01*
X131988113Y-126868294D01*
X132017997Y-126876736D01*
X132032191Y-126883294D01*
X132032197Y-126883296D01*
X132035393Y-126884773D01*
X132171214Y-126925392D01*
X132228841Y-126934004D01*
X132268434Y-126934245D01*
X132287134Y-126936145D01*
X132304000Y-126939500D01*
X132854000Y-126939500D01*
X132932641Y-126923857D01*
X132940747Y-126918441D01*
X132941116Y-126918288D01*
X133002112Y-126913489D01*
X133016884Y-126918288D01*
X133017253Y-126918441D01*
X133025359Y-126923857D01*
X133104000Y-126939500D01*
X134104000Y-126939500D01*
X134182641Y-126923857D01*
X134190747Y-126918441D01*
X134191116Y-126918288D01*
X134252112Y-126913489D01*
X134266884Y-126918288D01*
X134267253Y-126918441D01*
X134275359Y-126923857D01*
X134354000Y-126939500D01*
X134904000Y-126939500D01*
X134918706Y-126936575D01*
X134938623Y-126934674D01*
X134970601Y-126934870D01*
X134974088Y-126934392D01*
X134974094Y-126934392D01*
X135024841Y-126927441D01*
X135024844Y-126927440D01*
X135028329Y-126926963D01*
X135164636Y-126888006D01*
X135217823Y-126864214D01*
X135337718Y-126788566D01*
X135382089Y-126750803D01*
X135475933Y-126644545D01*
X135492291Y-126619643D01*
X135505988Y-126598790D01*
X135507922Y-126595846D01*
X135568170Y-126467521D01*
X135576700Y-126439623D01*
X135584175Y-126415172D01*
X135585205Y-126411803D01*
X135599602Y-126319341D01*
X135606474Y-126275209D01*
X135606474Y-126275204D01*
X135607016Y-126271726D01*
X135607233Y-126253966D01*
X135608316Y-126243630D01*
X135608075Y-126243606D01*
X135608551Y-126238770D01*
X135609500Y-126234000D01*
X135609500Y-125734000D01*
X135607696Y-125724930D01*
X135606212Y-125707448D01*
X135606929Y-125707354D01*
X135604111Y-125685798D01*
X135589804Y-125576394D01*
X135589803Y-125576390D01*
X135589346Y-125572894D01*
X135588398Y-125569500D01*
X135588397Y-125569493D01*
X135574628Y-125520179D01*
X135573678Y-125516776D01*
X135516583Y-125387017D01*
X135485793Y-125337551D01*
X135394573Y-125229032D01*
X135351138Y-125190197D01*
X135345101Y-125186178D01*
X135291520Y-125150511D01*
X135233128Y-125111642D01*
X135200464Y-125096062D01*
X135183716Y-125088073D01*
X135183712Y-125088071D01*
X135180537Y-125086557D01*
X135045222Y-125044282D01*
X135041744Y-125043719D01*
X135041737Y-125043717D01*
X135013445Y-125039135D01*
X134987706Y-125034966D01*
X134984187Y-125034901D01*
X134984182Y-125034901D01*
X134941624Y-125034121D01*
X134940145Y-125034094D01*
X134922647Y-125032209D01*
X134919390Y-125031561D01*
X134904000Y-125028500D01*
X134354000Y-125028500D01*
X134275359Y-125044143D01*
X134267253Y-125049559D01*
X134266884Y-125049712D01*
X134205888Y-125054511D01*
X134191116Y-125049712D01*
X134190747Y-125049559D01*
X134182641Y-125044143D01*
X134173078Y-125042241D01*
X134173074Y-125042239D01*
X134134185Y-125034503D01*
X134080801Y-125004606D01*
X134055186Y-124949041D01*
X134054500Y-124937406D01*
X134054500Y-124843511D01*
X134073407Y-124785320D01*
X134122907Y-124749356D01*
X134153500Y-124744511D01*
X135877400Y-124744511D01*
X135935591Y-124763418D01*
X135947404Y-124773507D01*
X136227004Y-125053107D01*
X136254781Y-125107624D01*
X136256000Y-125123111D01*
X136256000Y-125793500D01*
X136258290Y-125805011D01*
X136269135Y-125859531D01*
X136271643Y-125872141D01*
X136316190Y-125938810D01*
X136324300Y-125944229D01*
X136341168Y-125955500D01*
X136382859Y-125983357D01*
X136392422Y-125985259D01*
X136392424Y-125985260D01*
X136417700Y-125990287D01*
X136461500Y-125999000D01*
X137858500Y-125999000D01*
X137902300Y-125990287D01*
X137927576Y-125985260D01*
X137927578Y-125985259D01*
X137937141Y-125983357D01*
X137978832Y-125955500D01*
X137995700Y-125944229D01*
X138003810Y-125938810D01*
X138048357Y-125872141D01*
X138049785Y-125864960D01*
X138088528Y-125819599D01*
X138140254Y-125805011D01*
X138190624Y-125805011D01*
X138248815Y-125823918D01*
X138284779Y-125873418D01*
X138289147Y-125913715D01*
X138288948Y-125915733D01*
X138288000Y-125920500D01*
X138288000Y-126590888D01*
X138269093Y-126649079D01*
X138259004Y-126660892D01*
X138190005Y-126729891D01*
X138135488Y-126757668D01*
X138075056Y-126748097D01*
X138037686Y-126714888D01*
X138009231Y-126672302D01*
X138009229Y-126672300D01*
X138003810Y-126664190D01*
X137937141Y-126619643D01*
X137927578Y-126617741D01*
X137927576Y-126617740D01*
X137902300Y-126612713D01*
X137858500Y-126604000D01*
X136461500Y-126604000D01*
X136417700Y-126612713D01*
X136392424Y-126617740D01*
X136392422Y-126617741D01*
X136382859Y-126619643D01*
X136316190Y-126664190D01*
X136271643Y-126730859D01*
X136269741Y-126740422D01*
X136269740Y-126740424D01*
X136267425Y-126752062D01*
X136256000Y-126809500D01*
X136256000Y-127698500D01*
X136262286Y-127730100D01*
X136269350Y-127765612D01*
X136271643Y-127777141D01*
X136316190Y-127843810D01*
X136382859Y-127888357D01*
X136392422Y-127890259D01*
X136392424Y-127890260D01*
X136414123Y-127894576D01*
X136461500Y-127904000D01*
X137858500Y-127904000D01*
X137905877Y-127894576D01*
X137927576Y-127890260D01*
X137927578Y-127890259D01*
X137937141Y-127888357D01*
X138003810Y-127843810D01*
X138048357Y-127777141D01*
X138050260Y-127767576D01*
X138051074Y-127765612D01*
X138090811Y-127719088D01*
X138142537Y-127704500D01*
X138271123Y-127704500D01*
X138282759Y-127705186D01*
X138317308Y-127709275D01*
X138324585Y-127707946D01*
X138324588Y-127707946D01*
X138355252Y-127702346D01*
X138375435Y-127698659D01*
X138378471Y-127698154D01*
X138436935Y-127689364D01*
X138443443Y-127686239D01*
X138450545Y-127684942D01*
X138502977Y-127657706D01*
X138505756Y-127656317D01*
X138559029Y-127630735D01*
X138563468Y-127626632D01*
X138565729Y-127625108D01*
X138570736Y-127622507D01*
X138576628Y-127617475D01*
X138615055Y-127579048D01*
X138617858Y-127576354D01*
X138645222Y-127551059D01*
X138658486Y-127538798D01*
X138661899Y-127532923D01*
X138668061Y-127526042D01*
X138832607Y-127361496D01*
X139121998Y-127072106D01*
X139176513Y-127044330D01*
X139236945Y-127053901D01*
X139262004Y-127072107D01*
X139849993Y-127660096D01*
X139877770Y-127714613D01*
X139878989Y-127730100D01*
X139878989Y-130076995D01*
X139860082Y-130135186D01*
X139849993Y-130146999D01*
X139789060Y-130207932D01*
X139734543Y-130235709D01*
X139674111Y-130226138D01*
X139630846Y-130182873D01*
X139621275Y-130122441D01*
X139623726Y-130111222D01*
X139639299Y-130055632D01*
X139637595Y-130047648D01*
X139635724Y-130045966D01*
X139631621Y-130045096D01*
X136983968Y-130045096D01*
X136971283Y-130049218D01*
X136970679Y-130050049D01*
X136970162Y-130056730D01*
X136979820Y-130116695D01*
X136981842Y-130124805D01*
X137053596Y-130334978D01*
X137056956Y-130342634D01*
X137163100Y-130537721D01*
X137167699Y-130544695D01*
X137305191Y-130719102D01*
X137310905Y-130725209D01*
X137475813Y-130873954D01*
X137482475Y-130879010D01*
X137670095Y-130997848D01*
X137677506Y-131001706D01*
X137882468Y-131087234D01*
X137890425Y-131089788D01*
X138032662Y-131122495D01*
X138085135Y-131153962D01*
X138109092Y-131210262D01*
X138095380Y-131269892D01*
X138049238Y-131310073D01*
X138038428Y-131313949D01*
X137912250Y-131351085D01*
X137912247Y-131351086D01*
X137907603Y-131352453D01*
X137903309Y-131354698D01*
X137729344Y-131445644D01*
X137729340Y-131445647D01*
X137725047Y-131447891D01*
X137721271Y-131450927D01*
X137721268Y-131450929D01*
X137625252Y-131528128D01*
X137564505Y-131576970D01*
X137512683Y-131638729D01*
X137435202Y-131731067D01*
X137435199Y-131731071D01*
X137432093Y-131734773D01*
X137332853Y-131915290D01*
X137331389Y-131919904D01*
X137331388Y-131919907D01*
X137277167Y-132090832D01*
X137270565Y-132111645D01*
X137270025Y-132116457D01*
X137270025Y-132116458D01*
X137255023Y-132250210D01*
X137247603Y-132316359D01*
X137253248Y-132383583D01*
X137261882Y-132486404D01*
X137264840Y-132521634D01*
X137266173Y-132526282D01*
X137266173Y-132526283D01*
X137297017Y-132633846D01*
X137321621Y-132719651D01*
X137415782Y-132902869D01*
X137543737Y-133064308D01*
X137700612Y-133197819D01*
X137704835Y-133200179D01*
X137704839Y-133200182D01*
X137787321Y-133246279D01*
X137880432Y-133298317D01*
X137885030Y-133299811D01*
X138071742Y-133360478D01*
X138071745Y-133360479D01*
X138076347Y-133361974D01*
X138280895Y-133386365D01*
X138285717Y-133385994D01*
X138285720Y-133385994D01*
X138481458Y-133370933D01*
X138481463Y-133370932D01*
X138486286Y-133370561D01*
X138684695Y-133315164D01*
X138715089Y-133299811D01*
X138864244Y-133224467D01*
X138864246Y-133224466D01*
X138868565Y-133222284D01*
X139030893Y-133095459D01*
X139034055Y-133091796D01*
X139034060Y-133091791D01*
X139162332Y-132943185D01*
X139165496Y-132939520D01*
X139169037Y-132933288D01*
X139264858Y-132764613D01*
X139264859Y-132764610D01*
X139267247Y-132760407D01*
X139269347Y-132754096D01*
X139330743Y-132569531D01*
X139330743Y-132569529D01*
X139332270Y-132564940D01*
X139337154Y-132526283D01*
X139357740Y-132363321D01*
X139358088Y-132360567D01*
X139358500Y-132331096D01*
X139354087Y-132286089D01*
X139338870Y-132130892D01*
X139338869Y-132130888D01*
X139338398Y-132126082D01*
X139335493Y-132116458D01*
X139319272Y-132062734D01*
X139310701Y-132034344D01*
X139311983Y-131973173D01*
X139335472Y-131935727D01*
X140625507Y-130645692D01*
X140634213Y-130637956D01*
X140661534Y-130616418D01*
X140695144Y-130567788D01*
X140696925Y-130565297D01*
X140727647Y-130523704D01*
X140727649Y-130523700D01*
X140732044Y-130517750D01*
X140734436Y-130510938D01*
X140738541Y-130504999D01*
X140756354Y-130448674D01*
X140757339Y-130445722D01*
X140774468Y-130396946D01*
X140774469Y-130396942D01*
X140776921Y-130389959D01*
X140777158Y-130383918D01*
X140777680Y-130381242D01*
X140779381Y-130375863D01*
X140779989Y-130368138D01*
X140779989Y-130313820D01*
X140780065Y-130309934D01*
X140781948Y-130262017D01*
X140781948Y-130262014D01*
X140782238Y-130254623D01*
X140780497Y-130248056D01*
X140779989Y-130238831D01*
X140779989Y-128003000D01*
X140798896Y-127944809D01*
X140848396Y-127908845D01*
X140878989Y-127904000D01*
X140927048Y-127904000D01*
X140985239Y-127922907D01*
X141021203Y-127972407D01*
X141026048Y-128003000D01*
X141026048Y-131469937D01*
X141007141Y-131528128D01*
X140997052Y-131539941D01*
X138750392Y-133786600D01*
X138695875Y-133814377D01*
X138680388Y-133815596D01*
X137453000Y-133815596D01*
X137409200Y-133824309D01*
X137383924Y-133829336D01*
X137383922Y-133829337D01*
X137374359Y-133831239D01*
X137307690Y-133875786D01*
X137263143Y-133942455D01*
X137247500Y-134021096D01*
X137247500Y-135721096D01*
X137263143Y-135799737D01*
X137307690Y-135866406D01*
X137374359Y-135910953D01*
X137383922Y-135912855D01*
X137383924Y-135912856D01*
X137409200Y-135917883D01*
X137453000Y-135926596D01*
X138621196Y-135926596D01*
X138679387Y-135945503D01*
X138691200Y-135955592D01*
X139270504Y-136534897D01*
X139298281Y-136589414D01*
X139299500Y-136604901D01*
X139299500Y-137612500D01*
X139280593Y-137670691D01*
X139231093Y-137706655D01*
X139200500Y-137711500D01*
X138850000Y-137711500D01*
X138807163Y-137720021D01*
X138780924Y-137725240D01*
X138780922Y-137725241D01*
X138771359Y-137727143D01*
X138704690Y-137771690D01*
X138660143Y-137838359D01*
X138644500Y-137917000D01*
X138644500Y-138347099D01*
X138625593Y-138405290D01*
X138576093Y-138441254D01*
X138514907Y-138441254D01*
X138475496Y-138417103D01*
X137488084Y-137429692D01*
X137488063Y-137429668D01*
X137488056Y-137429653D01*
X137398347Y-137339944D01*
X137376849Y-137328991D01*
X137363608Y-137320876D01*
X137350398Y-137311278D01*
X137344093Y-137306697D01*
X137321145Y-137299241D01*
X137306794Y-137293296D01*
X137285306Y-137282347D01*
X137268199Y-137279637D01*
X137261476Y-137278572D01*
X137246377Y-137274947D01*
X137230842Y-137269900D01*
X137230843Y-137269900D01*
X137223434Y-137267493D01*
X137096566Y-137267493D01*
X137096551Y-137267498D01*
X137096521Y-137267500D01*
X132143485Y-137267500D01*
X132143451Y-137267497D01*
X132143434Y-137267492D01*
X132016566Y-137267492D01*
X132009159Y-137269899D01*
X132009157Y-137269899D01*
X131993617Y-137274948D01*
X131978514Y-137278574D01*
X131973985Y-137279292D01*
X131954694Y-137282347D01*
X131947756Y-137285882D01*
X131940948Y-137289351D01*
X131880516Y-137298921D01*
X131826000Y-137271142D01*
X131798223Y-137216625D01*
X131797401Y-137192296D01*
X131799165Y-137172633D01*
X131799166Y-137172623D01*
X131799336Y-137170722D01*
X131799485Y-137158506D01*
X131799500Y-137156000D01*
X131799500Y-136656000D01*
X131797425Y-136626868D01*
X131781659Y-136516778D01*
X131777828Y-136490024D01*
X131777827Y-136490019D01*
X131777328Y-136486535D01*
X131774863Y-136478105D01*
X131761963Y-136433990D01*
X131761960Y-136433982D01*
X131760974Y-136430610D01*
X131702297Y-136301558D01*
X131699127Y-136296600D01*
X131672802Y-136255439D01*
X131670906Y-136252474D01*
X131655233Y-136234284D01*
X131580663Y-136147740D01*
X131580660Y-136147737D01*
X131578368Y-136145077D01*
X131575727Y-136142773D01*
X131575723Y-136142769D01*
X131556415Y-136125925D01*
X131534461Y-136106773D01*
X131459261Y-136058031D01*
X131418448Y-136031577D01*
X131418443Y-136031575D01*
X131415499Y-136029666D01*
X131362607Y-136005227D01*
X131226786Y-135964608D01*
X131169159Y-135955996D01*
X131129566Y-135955755D01*
X131110866Y-135953855D01*
X131094000Y-135950500D01*
X130544000Y-135950500D01*
X130465359Y-135966143D01*
X130457253Y-135971559D01*
X130456884Y-135971712D01*
X130395888Y-135976511D01*
X130381116Y-135971712D01*
X130380747Y-135971559D01*
X130372641Y-135966143D01*
X130363078Y-135964241D01*
X130363074Y-135964239D01*
X130324185Y-135956503D01*
X130270801Y-135926606D01*
X130245186Y-135871041D01*
X130244500Y-135859406D01*
X130244500Y-135667877D01*
X130245186Y-135656241D01*
X130248405Y-135629040D01*
X130249275Y-135621692D01*
X130247946Y-135614415D01*
X130247946Y-135614412D01*
X130238663Y-135563586D01*
X130238152Y-135560518D01*
X130230464Y-135509381D01*
X130229364Y-135502065D01*
X130226239Y-135495557D01*
X130224942Y-135488455D01*
X130197706Y-135436023D01*
X130196317Y-135433244D01*
X130173938Y-135386642D01*
X130170735Y-135379971D01*
X130166631Y-135375531D01*
X130165109Y-135373272D01*
X130162507Y-135368264D01*
X130157474Y-135362371D01*
X130119048Y-135323945D01*
X130116354Y-135321142D01*
X130083822Y-135285949D01*
X130078798Y-135280514D01*
X130072923Y-135277101D01*
X130066042Y-135270939D01*
X129627082Y-134831979D01*
X129619339Y-134823264D01*
X129597811Y-134795955D01*
X129571544Y-134777800D01*
X129549217Y-134762369D01*
X129546688Y-134760562D01*
X129505097Y-134729843D01*
X129505095Y-134729842D01*
X129499142Y-134725445D01*
X129492332Y-134723054D01*
X129486392Y-134718948D01*
X129479339Y-134716717D01*
X129479334Y-134716715D01*
X129441559Y-134704769D01*
X129430029Y-134701122D01*
X129427144Y-134700160D01*
X129371352Y-134680568D01*
X129365312Y-134680331D01*
X129362633Y-134679809D01*
X129357256Y-134678108D01*
X129351635Y-134677666D01*
X129351632Y-134677665D01*
X129351546Y-134677659D01*
X129349531Y-134677500D01*
X129295213Y-134677500D01*
X129291327Y-134677424D01*
X129243410Y-134675541D01*
X129243407Y-134675541D01*
X129236016Y-134675251D01*
X129229449Y-134676992D01*
X129220224Y-134677500D01*
X125507878Y-134677500D01*
X125496242Y-134676814D01*
X125494769Y-134676640D01*
X125461693Y-134672725D01*
X125454416Y-134674054D01*
X125454415Y-134674054D01*
X125446274Y-134675541D01*
X125403547Y-134683344D01*
X125400533Y-134683846D01*
X125342065Y-134692636D01*
X125335557Y-134695761D01*
X125328455Y-134697058D01*
X125321890Y-134700468D01*
X125321888Y-134700469D01*
X125306693Y-134708362D01*
X125275961Y-134724327D01*
X125273236Y-134725687D01*
X125219971Y-134751265D01*
X125215534Y-134755366D01*
X125213274Y-134756889D01*
X125208264Y-134759492D01*
X125202372Y-134764525D01*
X125163945Y-134802952D01*
X125161143Y-134805645D01*
X125120514Y-134843202D01*
X125117101Y-134849077D01*
X125110939Y-134855958D01*
X124606361Y-135360535D01*
X124117931Y-135848965D01*
X124117929Y-135848968D01*
X122639977Y-137326919D01*
X122631263Y-137334661D01*
X122614229Y-137348090D01*
X122603955Y-137356189D01*
X122586980Y-137380749D01*
X122570369Y-137404783D01*
X122568562Y-137407312D01*
X122537843Y-137448903D01*
X122533445Y-137454858D01*
X122531054Y-137461668D01*
X122526948Y-137467608D01*
X122524717Y-137474661D01*
X122524715Y-137474666D01*
X122509127Y-137523957D01*
X122508160Y-137526856D01*
X122488568Y-137582648D01*
X122488331Y-137588688D01*
X122487809Y-137591367D01*
X122486108Y-137596744D01*
X122485500Y-137604469D01*
X122485500Y-137658787D01*
X122485424Y-137662673D01*
X122483251Y-137717984D01*
X122484992Y-137724551D01*
X122485500Y-137733776D01*
X122485500Y-138485966D01*
X122470639Y-138538135D01*
X122468780Y-138541134D01*
X122428525Y-138606058D01*
X122386459Y-138750851D01*
X122385500Y-138763911D01*
X122385500Y-140768501D01*
X122385958Y-140771844D01*
X122385958Y-140771845D01*
X122386694Y-140777221D01*
X122400963Y-140881385D01*
X122403640Y-140887571D01*
X122403641Y-140887575D01*
X122458164Y-141013570D01*
X122458166Y-141013574D01*
X122460845Y-141019764D01*
X122555734Y-141136942D01*
X122561233Y-141140850D01*
X122650664Y-141204405D01*
X122678639Y-141224286D01*
X122684983Y-141226570D01*
X122684987Y-141226572D01*
X122814157Y-141273076D01*
X122814160Y-141273077D01*
X122820505Y-141275361D01*
X122845496Y-141277196D01*
X122964146Y-141285910D01*
X122964150Y-141285910D01*
X122970880Y-141286404D01*
X122977495Y-141285070D01*
X122977497Y-141285070D01*
X123112074Y-141257934D01*
X123118685Y-141256601D01*
X123136359Y-141247596D01*
X123221125Y-141204405D01*
X123253031Y-141188148D01*
X123257994Y-141183585D01*
X123257996Y-141183583D01*
X123359052Y-141090657D01*
X123364020Y-141086089D01*
X123443475Y-140957942D01*
X123475256Y-140848551D01*
X123509646Y-140797947D01*
X123567214Y-140777221D01*
X123625970Y-140794291D01*
X123663471Y-140842636D01*
X123668408Y-140862734D01*
X123670963Y-140881385D01*
X123673640Y-140887571D01*
X123673641Y-140887575D01*
X123728164Y-141013570D01*
X123728166Y-141013574D01*
X123730845Y-141019764D01*
X123825734Y-141136942D01*
X123831233Y-141140850D01*
X123920664Y-141204405D01*
X123948639Y-141224286D01*
X123954983Y-141226570D01*
X123954987Y-141226572D01*
X124084157Y-141273076D01*
X124084160Y-141273077D01*
X124090505Y-141275361D01*
X124115496Y-141277196D01*
X124234146Y-141285910D01*
X124234150Y-141285910D01*
X124240880Y-141286404D01*
X124247495Y-141285070D01*
X124247497Y-141285070D01*
X124382074Y-141257934D01*
X124388685Y-141256601D01*
X124406359Y-141247596D01*
X124491125Y-141204405D01*
X124523031Y-141188148D01*
X124527994Y-141183585D01*
X124527996Y-141183583D01*
X124629052Y-141090657D01*
X124634020Y-141086089D01*
X124713475Y-140957942D01*
X124745256Y-140848551D01*
X124779646Y-140797947D01*
X124837214Y-140777221D01*
X124895970Y-140794291D01*
X124933471Y-140842636D01*
X124938408Y-140862734D01*
X124940963Y-140881385D01*
X124943640Y-140887571D01*
X124943641Y-140887575D01*
X124998164Y-141013570D01*
X124998166Y-141013574D01*
X125000845Y-141019764D01*
X125095734Y-141136942D01*
X125101233Y-141140850D01*
X125190664Y-141204405D01*
X125218639Y-141224286D01*
X125224983Y-141226570D01*
X125224987Y-141226572D01*
X125354157Y-141273076D01*
X125354160Y-141273077D01*
X125360505Y-141275361D01*
X125385496Y-141277196D01*
X125504146Y-141285910D01*
X125504150Y-141285910D01*
X125510880Y-141286404D01*
X125517495Y-141285070D01*
X125517497Y-141285070D01*
X125652074Y-141257934D01*
X125658685Y-141256601D01*
X125676359Y-141247596D01*
X125761125Y-141204405D01*
X125793031Y-141188148D01*
X125797994Y-141183585D01*
X125797996Y-141183583D01*
X125899052Y-141090657D01*
X125904020Y-141086089D01*
X125983475Y-140957942D01*
X126025541Y-140813149D01*
X126026173Y-140804544D01*
X126026368Y-140801890D01*
X126026368Y-140801883D01*
X126026500Y-140800089D01*
X126026500Y-140331500D01*
X126045407Y-140273309D01*
X126094907Y-140237345D01*
X126125500Y-140232500D01*
X128105123Y-140232500D01*
X128116759Y-140233186D01*
X128151308Y-140237275D01*
X128158585Y-140235946D01*
X128158588Y-140235946D01*
X128189252Y-140230346D01*
X128209435Y-140226659D01*
X128212483Y-140226152D01*
X128242783Y-140221597D01*
X128303138Y-140231644D01*
X128346060Y-140275247D01*
X128356500Y-140319497D01*
X128356500Y-140712319D01*
X128357109Y-140716163D01*
X128357109Y-140716165D01*
X128370687Y-140801890D01*
X128372264Y-140811850D01*
X128375800Y-140818789D01*
X128375800Y-140818790D01*
X128428989Y-140923178D01*
X128432525Y-140930118D01*
X128526382Y-141023975D01*
X128533319Y-141027510D01*
X128533321Y-141027511D01*
X128630725Y-141077141D01*
X128644650Y-141084236D01*
X128652344Y-141085455D01*
X128652345Y-141085455D01*
X128740335Y-141099391D01*
X128740337Y-141099391D01*
X128744181Y-141100000D01*
X129319819Y-141100000D01*
X129323663Y-141099391D01*
X129323665Y-141099391D01*
X129411655Y-141085455D01*
X129411656Y-141085455D01*
X129419350Y-141084236D01*
X129433275Y-141077141D01*
X129530679Y-141027511D01*
X129530681Y-141027510D01*
X129537618Y-141023975D01*
X129631475Y-140930118D01*
X129638387Y-140916553D01*
X129681653Y-140873290D01*
X129726596Y-140862500D01*
X130045617Y-140862500D01*
X130045647Y-140862502D01*
X130045662Y-140862507D01*
X130172530Y-140862507D01*
X130195471Y-140855053D01*
X130210572Y-140851428D01*
X130217295Y-140850363D01*
X130234402Y-140847653D01*
X130255892Y-140836703D01*
X130270241Y-140830759D01*
X130293189Y-140823303D01*
X130312706Y-140809123D01*
X130325945Y-140801009D01*
X130347443Y-140790056D01*
X130437152Y-140700347D01*
X130437159Y-140700332D01*
X130437180Y-140700308D01*
X130455896Y-140681592D01*
X130510413Y-140653815D01*
X130525900Y-140652596D01*
X131274000Y-140652596D01*
X131317800Y-140643883D01*
X131343076Y-140638856D01*
X131343078Y-140638855D01*
X131352641Y-140636953D01*
X131419310Y-140592406D01*
X131431136Y-140574707D01*
X131479185Y-140536828D01*
X131540323Y-140534426D01*
X131591197Y-140568418D01*
X131595332Y-140574062D01*
X131661740Y-140671778D01*
X131776931Y-140793590D01*
X131829209Y-140848872D01*
X131833167Y-140853058D01*
X131836321Y-140855469D01*
X131836325Y-140855473D01*
X132028212Y-141002181D01*
X132028218Y-141002185D01*
X132031373Y-141004597D01*
X132034875Y-141006475D01*
X132034877Y-141006476D01*
X132209298Y-141100000D01*
X132251257Y-141122498D01*
X132487163Y-141203727D01*
X132619422Y-141226572D01*
X132729946Y-141245663D01*
X132729948Y-141245663D01*
X132733021Y-141246194D01*
X132756743Y-141247271D01*
X132762791Y-141247546D01*
X132762797Y-141247546D01*
X132763895Y-141247596D01*
X132936143Y-141247596D01*
X132938118Y-141247437D01*
X132938120Y-141247437D01*
X133118732Y-141232905D01*
X133118734Y-141232905D01*
X133122695Y-141232586D01*
X133364992Y-141173073D01*
X133559152Y-141090657D01*
X133590994Y-141077141D01*
X133590996Y-141077140D01*
X133594657Y-141075586D01*
X133598021Y-141073468D01*
X133598024Y-141073466D01*
X133704402Y-141006476D01*
X133805781Y-140942634D01*
X133947004Y-140818129D01*
X133989950Y-140780267D01*
X133989951Y-140780266D01*
X133992933Y-140777637D01*
X133995453Y-140774570D01*
X133995458Y-140774564D01*
X134148774Y-140587914D01*
X134148775Y-140587912D01*
X134151298Y-140584841D01*
X134153299Y-140581403D01*
X134274800Y-140372642D01*
X134274802Y-140372638D01*
X134276800Y-140369205D01*
X134295724Y-140319908D01*
X134327417Y-140237345D01*
X134366213Y-140136278D01*
X134381835Y-140061500D01*
X134416420Y-139895950D01*
X134416421Y-139895946D01*
X134417234Y-139892052D01*
X134417868Y-139878107D01*
X134422666Y-139772429D01*
X134428552Y-139642810D01*
X134428095Y-139638857D01*
X134400333Y-139398910D01*
X134400332Y-139398905D01*
X134399876Y-139394964D01*
X134331942Y-139154892D01*
X134329618Y-139149907D01*
X134238447Y-138954392D01*
X134226499Y-138928769D01*
X134086260Y-138722414D01*
X133914833Y-138541134D01*
X133911679Y-138538723D01*
X133911675Y-138538719D01*
X133719788Y-138392011D01*
X133719782Y-138392007D01*
X133716627Y-138389595D01*
X133690997Y-138375852D01*
X133500242Y-138273570D01*
X133500240Y-138273569D01*
X133496743Y-138271694D01*
X133465993Y-138261106D01*
X133417128Y-138224284D01*
X133399239Y-138165772D01*
X133419159Y-138107920D01*
X133469279Y-138072826D01*
X133498224Y-138068500D01*
X135953073Y-138068500D01*
X136011264Y-138087407D01*
X136047228Y-138136907D01*
X136047228Y-138198093D01*
X136041283Y-138212445D01*
X136011753Y-138270400D01*
X135992264Y-138308650D01*
X135991045Y-138316344D01*
X135991045Y-138316345D01*
X135982175Y-138372347D01*
X135976500Y-138408181D01*
X135976500Y-138908819D01*
X135977109Y-138912663D01*
X135977109Y-138912665D01*
X135982770Y-138948404D01*
X135992264Y-139008350D01*
X135995800Y-139015289D01*
X135995800Y-139015290D01*
X136040284Y-139102593D01*
X136052525Y-139126618D01*
X136146382Y-139220475D01*
X136153319Y-139224010D01*
X136153321Y-139224011D01*
X136244690Y-139270566D01*
X136264650Y-139280736D01*
X136272344Y-139281955D01*
X136272345Y-139281955D01*
X136360335Y-139295891D01*
X136360337Y-139295891D01*
X136364181Y-139296500D01*
X136611889Y-139296500D01*
X136670080Y-139315407D01*
X136681893Y-139325496D01*
X137312316Y-139955919D01*
X137340093Y-140010436D01*
X137338071Y-140049017D01*
X137337132Y-140051285D01*
X137336286Y-140057714D01*
X137336285Y-140057716D01*
X137335787Y-140061500D01*
X137316500Y-140208000D01*
X137337132Y-140364715D01*
X137397622Y-140510750D01*
X137493847Y-140636153D01*
X137619250Y-140732378D01*
X137765285Y-140792868D01*
X137922000Y-140813500D01*
X138078715Y-140792868D01*
X138224750Y-140732378D01*
X138350153Y-140636153D01*
X138354107Y-140631000D01*
X138358691Y-140626416D01*
X138359606Y-140627331D01*
X138404349Y-140596578D01*
X138432470Y-140592500D01*
X138646563Y-140592500D01*
X138703902Y-140611130D01*
X138704690Y-140612310D01*
X138709839Y-140615751D01*
X138709842Y-140615753D01*
X138746291Y-140640107D01*
X138771359Y-140656857D01*
X138780922Y-140658759D01*
X138780924Y-140658760D01*
X138806200Y-140663787D01*
X138850000Y-140672500D01*
X139250000Y-140672500D01*
X139293800Y-140663787D01*
X139319076Y-140658760D01*
X139319078Y-140658759D01*
X139328641Y-140656857D01*
X139395310Y-140612310D01*
X139408610Y-140592406D01*
X139434438Y-140553751D01*
X139439857Y-140545641D01*
X139455500Y-140467000D01*
X139455500Y-140367359D01*
X139467421Y-140323099D01*
X139467072Y-140322961D01*
X139468281Y-140319908D01*
X139468893Y-140317635D01*
X139469797Y-140316079D01*
X139469797Y-140316078D01*
X139473513Y-140309681D01*
X139481495Y-140275247D01*
X139490296Y-140237275D01*
X139504096Y-140177738D01*
X139494530Y-140042636D01*
X139462169Y-139958987D01*
X139455500Y-139923267D01*
X139455500Y-139817000D01*
X139441924Y-139748750D01*
X139441760Y-139747924D01*
X139441759Y-139747922D01*
X139439857Y-139738359D01*
X139434438Y-139730249D01*
X139434081Y-139729387D01*
X139429280Y-139668390D01*
X139461249Y-139616221D01*
X139517776Y-139592805D01*
X139525545Y-139592500D01*
X139850500Y-139592500D01*
X139908691Y-139611407D01*
X139944655Y-139660907D01*
X139949500Y-139691500D01*
X139949500Y-139782112D01*
X139947598Y-139801424D01*
X139944500Y-139817000D01*
X139944500Y-140467000D01*
X139960143Y-140545641D01*
X139965562Y-140553751D01*
X139991391Y-140592406D01*
X140004690Y-140612310D01*
X140071359Y-140656857D01*
X140080922Y-140658759D01*
X140080924Y-140658760D01*
X140106200Y-140663787D01*
X140150000Y-140672500D01*
X140550000Y-140672500D01*
X140593800Y-140663787D01*
X140619076Y-140658760D01*
X140619078Y-140658759D01*
X140628641Y-140656857D01*
X140695310Y-140612310D01*
X140708610Y-140592406D01*
X140734438Y-140553751D01*
X140739857Y-140545641D01*
X140755500Y-140467000D01*
X140755500Y-139817000D01*
X140752402Y-139801424D01*
X140750500Y-139782112D01*
X140750500Y-139397479D01*
X140750502Y-139397449D01*
X140750507Y-139397434D01*
X140750507Y-139270566D01*
X140748079Y-139263093D01*
X140743053Y-139247623D01*
X140739427Y-139232520D01*
X140736872Y-139216389D01*
X140736872Y-139216388D01*
X140735653Y-139208694D01*
X140732116Y-139201753D01*
X140732115Y-139201749D01*
X140724701Y-139187198D01*
X140718757Y-139172848D01*
X140713712Y-139157321D01*
X140713709Y-139157315D01*
X140711302Y-139149907D01*
X140706722Y-139143603D01*
X140697124Y-139130392D01*
X140689009Y-139117149D01*
X140681592Y-139102593D01*
X140678056Y-139095653D01*
X140588347Y-139005944D01*
X140588334Y-139005937D01*
X140588306Y-139005913D01*
X140536088Y-138953696D01*
X140536063Y-138953666D01*
X140536056Y-138953653D01*
X140446347Y-138863944D01*
X140424849Y-138852991D01*
X140411608Y-138844876D01*
X140399673Y-138836204D01*
X140392093Y-138830697D01*
X140369145Y-138823241D01*
X140354794Y-138817296D01*
X140333306Y-138806347D01*
X140316199Y-138803637D01*
X140309476Y-138802572D01*
X140294377Y-138798947D01*
X140278842Y-138793900D01*
X140278843Y-138793900D01*
X140271434Y-138791493D01*
X140175548Y-138791493D01*
X140117357Y-138772586D01*
X140081393Y-138723086D01*
X140081393Y-138661900D01*
X140084084Y-138654606D01*
X140084438Y-138653750D01*
X140089857Y-138645641D01*
X140092405Y-138632835D01*
X140102375Y-138582709D01*
X140105500Y-138567000D01*
X140105500Y-137917000D01*
X140102402Y-137901424D01*
X140100500Y-137882112D01*
X140100500Y-136461479D01*
X140100502Y-136461449D01*
X140100507Y-136461434D01*
X140100507Y-136334566D01*
X140098095Y-136327142D01*
X140093053Y-136311623D01*
X140089427Y-136296520D01*
X140086872Y-136280389D01*
X140086872Y-136280388D01*
X140085653Y-136272694D01*
X140082116Y-136265753D01*
X140082115Y-136265749D01*
X140074701Y-136251198D01*
X140068757Y-136236848D01*
X140063712Y-136221321D01*
X140063709Y-136221315D01*
X140061302Y-136213907D01*
X140047124Y-136194392D01*
X140039009Y-136181149D01*
X140031592Y-136166593D01*
X140028056Y-136159653D01*
X139938347Y-136069944D01*
X139938334Y-136069937D01*
X139938311Y-136069918D01*
X139387496Y-135519103D01*
X139359719Y-135464586D01*
X139358500Y-135449099D01*
X139358500Y-134493707D01*
X139377407Y-134435516D01*
X139387496Y-134423703D01*
X141772566Y-132038633D01*
X141781272Y-132030897D01*
X141808593Y-132009359D01*
X141819008Y-131994291D01*
X141842196Y-131960741D01*
X141844004Y-131958211D01*
X141874704Y-131916646D01*
X141879103Y-131910690D01*
X141881494Y-131903880D01*
X141885600Y-131897940D01*
X141887831Y-131890887D01*
X141887833Y-131890882D01*
X141903421Y-131841591D01*
X141904388Y-131838692D01*
X141923980Y-131782900D01*
X141924217Y-131776860D01*
X141924739Y-131774181D01*
X141926440Y-131768804D01*
X141927048Y-131761079D01*
X141927048Y-131706761D01*
X141927124Y-131702875D01*
X141929007Y-131654958D01*
X141929007Y-131654955D01*
X141929297Y-131647564D01*
X141927556Y-131640997D01*
X141927048Y-131631772D01*
X141927048Y-128003000D01*
X141945955Y-127944809D01*
X141995455Y-127908845D01*
X142026048Y-127904000D01*
X142176500Y-127904000D01*
X142223877Y-127894576D01*
X142245576Y-127890260D01*
X142245578Y-127890259D01*
X142255141Y-127888357D01*
X142321810Y-127843810D01*
X142366357Y-127777141D01*
X142368651Y-127765612D01*
X142375714Y-127730100D01*
X142382000Y-127698500D01*
X142382000Y-126809500D01*
X142370575Y-126752062D01*
X142368260Y-126740424D01*
X142368259Y-126740422D01*
X142366357Y-126730859D01*
X142321810Y-126664190D01*
X142255141Y-126619643D01*
X142245578Y-126617741D01*
X142245576Y-126617740D01*
X142220300Y-126612713D01*
X142176500Y-126604000D01*
X140779500Y-126604000D01*
X140735700Y-126612713D01*
X140710424Y-126617740D01*
X140710422Y-126617741D01*
X140700859Y-126619643D01*
X140634190Y-126664190D01*
X140589643Y-126730859D01*
X140587741Y-126740422D01*
X140587740Y-126740424D01*
X140585425Y-126752062D01*
X140574000Y-126809500D01*
X140574000Y-126870888D01*
X140555093Y-126929079D01*
X140505593Y-126965043D01*
X140444407Y-126965043D01*
X140404996Y-126940892D01*
X140124996Y-126660892D01*
X140097219Y-126606375D01*
X140096000Y-126590888D01*
X140096000Y-125920500D01*
X140095052Y-125915733D01*
X140094853Y-125913715D01*
X140107965Y-125853951D01*
X140153702Y-125813308D01*
X140193376Y-125805011D01*
X140497746Y-125805011D01*
X140555937Y-125823918D01*
X140588189Y-125864830D01*
X140589643Y-125872141D01*
X140634190Y-125938810D01*
X140642300Y-125944229D01*
X140659168Y-125955500D01*
X140700859Y-125983357D01*
X140710422Y-125985259D01*
X140710424Y-125985260D01*
X140735700Y-125990287D01*
X140779500Y-125999000D01*
X142176500Y-125999000D01*
X142220300Y-125990287D01*
X142245576Y-125985260D01*
X142245578Y-125985259D01*
X142255141Y-125983357D01*
X142296832Y-125955500D01*
X142313700Y-125944229D01*
X142321810Y-125938810D01*
X142366357Y-125872141D01*
X142368866Y-125859531D01*
X142379710Y-125805011D01*
X142382000Y-125793500D01*
X142382000Y-124904500D01*
X142371358Y-124851000D01*
X142368260Y-124835424D01*
X142368259Y-124835422D01*
X142366357Y-124825859D01*
X142321810Y-124759190D01*
X142255141Y-124714643D01*
X142245578Y-124712741D01*
X142245576Y-124712740D01*
X142220300Y-124707713D01*
X142176500Y-124699000D01*
X140779500Y-124699000D01*
X140735700Y-124707713D01*
X140710424Y-124712740D01*
X140710422Y-124712741D01*
X140700859Y-124714643D01*
X140634190Y-124759190D01*
X140589643Y-124825859D01*
X140587741Y-124835420D01*
X140584643Y-124842899D01*
X140544905Y-124889424D01*
X140493180Y-124904011D01*
X138144820Y-124904011D01*
X138086629Y-124885104D01*
X138053357Y-124842899D01*
X138050259Y-124835420D01*
X138048357Y-124825859D01*
X138003810Y-124759190D01*
X137937141Y-124714643D01*
X137927578Y-124712741D01*
X137927576Y-124712740D01*
X137902300Y-124707713D01*
X137858500Y-124699000D01*
X137188111Y-124699000D01*
X137129920Y-124680093D01*
X137118107Y-124670004D01*
X136446092Y-123997988D01*
X136438350Y-123989274D01*
X136421405Y-123967779D01*
X136421404Y-123967778D01*
X136416822Y-123961966D01*
X136390555Y-123943811D01*
X136368228Y-123928380D01*
X136365699Y-123926573D01*
X136324108Y-123895854D01*
X136324106Y-123895853D01*
X136318153Y-123891456D01*
X136311343Y-123889065D01*
X136305403Y-123884959D01*
X136298350Y-123882728D01*
X136298345Y-123882726D01*
X136260570Y-123870780D01*
X136249040Y-123867133D01*
X136246155Y-123866171D01*
X136190363Y-123846579D01*
X136184323Y-123846342D01*
X136181644Y-123845820D01*
X136176267Y-123844119D01*
X136170646Y-123843677D01*
X136170643Y-123843676D01*
X136170557Y-123843670D01*
X136168542Y-123843511D01*
X136114224Y-123843511D01*
X136110338Y-123843435D01*
X136062421Y-123841552D01*
X136062418Y-123841552D01*
X136055027Y-123841262D01*
X136048460Y-123843003D01*
X136039235Y-123843511D01*
X133801866Y-123843511D01*
X133790230Y-123842825D01*
X133788757Y-123842651D01*
X133755681Y-123838736D01*
X133748404Y-123840065D01*
X133748401Y-123840065D01*
X133726205Y-123844119D01*
X133697554Y-123849352D01*
X133694518Y-123849857D01*
X133636054Y-123858647D01*
X133629546Y-123861772D01*
X133622444Y-123863069D01*
X133615878Y-123866480D01*
X133615877Y-123866480D01*
X133570014Y-123890304D01*
X133567235Y-123891693D01*
X133513960Y-123917276D01*
X133509521Y-123921379D01*
X133507260Y-123922903D01*
X133502253Y-123925504D01*
X133496361Y-123930536D01*
X133457933Y-123968964D01*
X133455131Y-123971657D01*
X133414503Y-124009213D01*
X133411089Y-124015089D01*
X133404929Y-124021967D01*
X133307981Y-124118915D01*
X133299269Y-124126656D01*
X133271955Y-124148189D01*
X133267748Y-124154276D01*
X133267747Y-124154277D01*
X133238369Y-124196783D01*
X133236562Y-124199312D01*
X133205843Y-124240903D01*
X133201445Y-124246858D01*
X133199054Y-124253668D01*
X133194948Y-124259608D01*
X133192717Y-124266661D01*
X133192715Y-124266666D01*
X133177127Y-124315957D01*
X133176160Y-124318856D01*
X133156568Y-124374648D01*
X133156331Y-124380688D01*
X133155809Y-124383367D01*
X133154108Y-124388744D01*
X133153500Y-124396469D01*
X133153500Y-124450787D01*
X133153424Y-124454673D01*
X133151251Y-124509984D01*
X133152992Y-124516551D01*
X133153500Y-124525776D01*
X133153500Y-124937406D01*
X133134593Y-124995597D01*
X133085093Y-125031561D01*
X133073815Y-125034503D01*
X133034926Y-125042239D01*
X133034922Y-125042241D01*
X133025359Y-125044143D01*
X133017253Y-125049559D01*
X133016884Y-125049712D01*
X132955888Y-125054511D01*
X132941116Y-125049712D01*
X132940747Y-125049559D01*
X132932641Y-125044143D01*
X132854000Y-125028500D01*
X132304000Y-125028500D01*
X132299229Y-125029449D01*
X132299230Y-125029449D01*
X132291755Y-125030936D01*
X132270628Y-125032821D01*
X132260340Y-125032633D01*
X132245966Y-125032369D01*
X132242474Y-125032804D01*
X132242472Y-125032804D01*
X132191638Y-125039135D01*
X132191637Y-125039135D01*
X132188146Y-125039570D01*
X132184756Y-125040494D01*
X132184752Y-125040495D01*
X132129525Y-125055552D01*
X132051373Y-125076859D01*
X132048148Y-125078255D01*
X132048144Y-125078256D01*
X132028962Y-125086557D01*
X131997900Y-125099999D01*
X131994901Y-125101841D01*
X131994896Y-125101843D01*
X131880098Y-125172329D01*
X131877090Y-125174176D01*
X131832260Y-125211395D01*
X131737125Y-125316499D01*
X131730905Y-125325721D01*
X131706511Y-125361885D01*
X131706508Y-125361891D01*
X131704544Y-125364802D01*
X131703010Y-125367967D01*
X131703010Y-125367968D01*
X131693781Y-125387017D01*
X131642732Y-125492381D01*
X131625017Y-125547889D01*
X131624434Y-125551356D01*
X131624432Y-125551363D01*
X131601815Y-125685798D01*
X131601497Y-125687690D01*
X131598664Y-125719278D01*
X131598641Y-125721191D01*
X131598543Y-125729234D01*
X131598515Y-125731494D01*
X131598514Y-125731707D01*
X131598500Y-125734000D01*
X131598500Y-125866500D01*
X131579593Y-125924691D01*
X131530093Y-125960655D01*
X131499500Y-125965500D01*
X130960101Y-125965500D01*
X130901910Y-125946593D01*
X130890097Y-125936504D01*
X130807618Y-125854025D01*
X130800681Y-125850490D01*
X130800679Y-125850489D01*
X130696290Y-125797300D01*
X130696289Y-125797300D01*
X130689350Y-125793764D01*
X130681656Y-125792545D01*
X130681655Y-125792545D01*
X130593665Y-125778609D01*
X130593663Y-125778609D01*
X130589819Y-125778000D01*
X130014181Y-125778000D01*
X130010337Y-125778609D01*
X130010335Y-125778609D01*
X129922345Y-125792545D01*
X129922344Y-125792545D01*
X129914650Y-125793764D01*
X129907711Y-125797300D01*
X129907710Y-125797300D01*
X129803321Y-125850489D01*
X129803319Y-125850490D01*
X129796382Y-125854025D01*
X129713903Y-125936504D01*
X129659386Y-125964281D01*
X129643899Y-125965500D01*
X128736023Y-125965500D01*
X128681021Y-125948815D01*
X128632751Y-125916562D01*
X128624641Y-125911143D01*
X128615078Y-125909241D01*
X128615076Y-125909240D01*
X128589800Y-125904213D01*
X128546000Y-125895500D01*
X127486000Y-125895500D01*
X127442200Y-125904213D01*
X127416924Y-125909240D01*
X127416922Y-125909241D01*
X127407359Y-125911143D01*
X127399249Y-125916562D01*
X127356080Y-125945407D01*
X127340690Y-125955690D01*
X127296143Y-126022359D01*
X127294241Y-126031922D01*
X127294240Y-126031924D01*
X127289433Y-126056093D01*
X127280500Y-126101000D01*
X127280500Y-126751000D01*
X127288760Y-126792525D01*
X127292269Y-126810164D01*
X127296143Y-126829641D01*
X127307691Y-126846924D01*
X127332544Y-126884118D01*
X127340690Y-126896310D01*
X127407359Y-126940857D01*
X127416922Y-126942759D01*
X127416924Y-126942760D01*
X127485814Y-126956463D01*
X127539198Y-126986360D01*
X127564814Y-127041925D01*
X127565500Y-127053561D01*
X127565500Y-128423389D01*
X127546593Y-128481580D01*
X127536504Y-128493393D01*
X127448393Y-128581504D01*
X127393876Y-128609281D01*
X127378389Y-128610500D01*
X127130681Y-128610500D01*
X127126837Y-128611109D01*
X127126835Y-128611109D01*
X127038845Y-128625045D01*
X127038844Y-128625045D01*
X127031150Y-128626264D01*
X127024211Y-128629800D01*
X127024210Y-128629800D01*
X126919821Y-128682989D01*
X126919819Y-128682990D01*
X126912882Y-128686525D01*
X126819025Y-128780382D01*
X126815489Y-128787321D01*
X126810908Y-128793627D01*
X126808243Y-128791691D01*
X126775193Y-128824722D01*
X126730273Y-128835500D01*
X126025500Y-128835500D01*
X125967309Y-128816593D01*
X125931345Y-128767093D01*
X125926500Y-128736500D01*
X125926500Y-128530378D01*
X125927186Y-128518742D01*
X125930186Y-128493393D01*
X125931275Y-128484193D01*
X125920656Y-128426047D01*
X125920151Y-128423015D01*
X125920099Y-128422665D01*
X125911364Y-128364565D01*
X125908239Y-128358057D01*
X125906942Y-128350955D01*
X125879706Y-128298523D01*
X125878317Y-128295744D01*
X125876946Y-128292889D01*
X125852735Y-128242471D01*
X125848632Y-128238032D01*
X125847108Y-128235771D01*
X125844507Y-128230764D01*
X125839475Y-128224872D01*
X125801049Y-128186446D01*
X125798355Y-128183643D01*
X125765822Y-128148449D01*
X125760798Y-128143014D01*
X125754923Y-128139601D01*
X125748042Y-128133439D01*
X124619740Y-127005137D01*
X124591964Y-126950621D01*
X124601535Y-126890189D01*
X124644800Y-126846924D01*
X124705232Y-126837353D01*
X124719596Y-126840742D01*
X124757956Y-126852873D01*
X124760856Y-126853840D01*
X124816648Y-126873432D01*
X124822688Y-126873669D01*
X124825367Y-126874191D01*
X124830744Y-126875892D01*
X124836365Y-126876334D01*
X124836368Y-126876335D01*
X124836454Y-126876341D01*
X124838469Y-126876500D01*
X124892787Y-126876500D01*
X124896673Y-126876576D01*
X124944590Y-126878459D01*
X124944593Y-126878459D01*
X124951984Y-126878749D01*
X124958551Y-126877008D01*
X124967776Y-126876500D01*
X125082563Y-126876500D01*
X125139902Y-126895130D01*
X125140690Y-126896310D01*
X125145839Y-126899751D01*
X125145842Y-126899753D01*
X125184214Y-126925392D01*
X125207359Y-126940857D01*
X125216922Y-126942759D01*
X125216924Y-126942760D01*
X125242200Y-126947787D01*
X125286000Y-126956500D01*
X126346000Y-126956500D01*
X126389800Y-126947787D01*
X126415076Y-126942760D01*
X126415078Y-126942759D01*
X126424641Y-126940857D01*
X126491310Y-126896310D01*
X126499457Y-126884118D01*
X126524309Y-126846924D01*
X126535857Y-126829641D01*
X126539732Y-126810164D01*
X126543240Y-126792525D01*
X126551500Y-126751000D01*
X126551500Y-126101000D01*
X126542567Y-126056093D01*
X126537760Y-126031924D01*
X126537759Y-126031922D01*
X126535857Y-126022359D01*
X126491310Y-125955690D01*
X126475921Y-125945407D01*
X126432751Y-125916562D01*
X126424641Y-125911143D01*
X126415078Y-125909241D01*
X126415076Y-125909240D01*
X126389800Y-125904213D01*
X126346000Y-125895500D01*
X125286000Y-125895500D01*
X125242200Y-125904213D01*
X125216924Y-125909240D01*
X125216922Y-125909241D01*
X125207359Y-125911143D01*
X125165144Y-125939350D01*
X125106260Y-125955958D01*
X125048856Y-125934781D01*
X125040141Y-125927038D01*
X124820149Y-125707046D01*
X124792372Y-125652529D01*
X124792000Y-125624120D01*
X124810653Y-125482434D01*
X124811500Y-125476000D01*
X124790868Y-125319285D01*
X124730378Y-125173250D01*
X124701615Y-125135765D01*
X124681192Y-125078092D01*
X124698569Y-125019426D01*
X124747111Y-124982179D01*
X124780158Y-124976500D01*
X125082563Y-124976500D01*
X125139902Y-124995130D01*
X125140690Y-124996310D01*
X125145839Y-124999751D01*
X125145842Y-124999753D01*
X125190284Y-125029448D01*
X125207359Y-125040857D01*
X125216922Y-125042759D01*
X125216924Y-125042760D01*
X125231972Y-125045753D01*
X125286000Y-125056500D01*
X126346000Y-125056500D01*
X126400028Y-125045753D01*
X126415076Y-125042760D01*
X126415078Y-125042759D01*
X126424641Y-125040857D01*
X126491310Y-124996310D01*
X126535857Y-124929641D01*
X126551500Y-124851000D01*
X126551500Y-124201000D01*
X127280500Y-124201000D01*
X127280500Y-124851000D01*
X127296143Y-124929641D01*
X127340690Y-124996310D01*
X127407359Y-125040857D01*
X127416922Y-125042759D01*
X127416924Y-125042760D01*
X127431972Y-125045753D01*
X127486000Y-125056500D01*
X128546000Y-125056500D01*
X128600028Y-125045753D01*
X128615076Y-125042760D01*
X128615078Y-125042759D01*
X128624641Y-125040857D01*
X128691310Y-124996310D01*
X128735857Y-124929641D01*
X128751500Y-124851000D01*
X128751500Y-124201000D01*
X128735857Y-124122359D01*
X128691310Y-124055690D01*
X128624641Y-124011143D01*
X128615078Y-124009241D01*
X128615076Y-124009240D01*
X128589672Y-124004187D01*
X128546000Y-123995500D01*
X127486000Y-123995500D01*
X127442328Y-124004187D01*
X127416924Y-124009240D01*
X127416922Y-124009241D01*
X127407359Y-124011143D01*
X127340690Y-124055690D01*
X127296143Y-124122359D01*
X127280500Y-124201000D01*
X126551500Y-124201000D01*
X126535857Y-124122359D01*
X126491310Y-124055690D01*
X126424641Y-124011143D01*
X126415078Y-124009241D01*
X126415076Y-124009240D01*
X126389672Y-124004187D01*
X126346000Y-123995500D01*
X125286000Y-123995500D01*
X125242328Y-124004187D01*
X125216924Y-124009240D01*
X125216922Y-124009241D01*
X125207359Y-124011143D01*
X125140690Y-124055690D01*
X125139127Y-124053352D01*
X125098050Y-124074281D01*
X125082563Y-124075500D01*
X124308000Y-124075500D01*
X124249809Y-124056593D01*
X124213845Y-124007093D01*
X124209000Y-123976500D01*
X124209000Y-123918181D01*
X124208391Y-123914335D01*
X124194455Y-123826345D01*
X124194455Y-123826344D01*
X124193236Y-123818650D01*
X124132975Y-123700382D01*
X124039118Y-123606525D01*
X124032181Y-123602990D01*
X124032179Y-123602989D01*
X123927790Y-123549800D01*
X123927789Y-123549800D01*
X123920850Y-123546264D01*
X123913156Y-123545045D01*
X123913155Y-123545045D01*
X123825165Y-123531109D01*
X123825163Y-123531109D01*
X123821319Y-123530500D01*
X123320681Y-123530500D01*
X123316837Y-123531109D01*
X123316835Y-123531109D01*
X123228845Y-123545045D01*
X123228844Y-123545045D01*
X123221150Y-123546264D01*
X123214211Y-123549800D01*
X123214210Y-123549800D01*
X123109821Y-123602989D01*
X123109819Y-123602990D01*
X123102882Y-123606525D01*
X123009025Y-123700382D01*
X122948764Y-123818650D01*
X122947545Y-123826344D01*
X122947545Y-123826345D01*
X122933609Y-123914335D01*
X122933000Y-123918181D01*
X122933000Y-124493819D01*
X122933609Y-124497663D01*
X122933609Y-124497665D01*
X122936904Y-124518466D01*
X122948764Y-124593350D01*
X122952300Y-124600289D01*
X122952300Y-124600290D01*
X123003079Y-124699948D01*
X123009025Y-124711618D01*
X123091504Y-124794097D01*
X123119281Y-124848614D01*
X123120500Y-124864101D01*
X123120500Y-124926500D01*
X123101593Y-124984691D01*
X123052093Y-125020655D01*
X123021500Y-125025500D01*
X121237898Y-125025500D01*
X121226262Y-125024814D01*
X121224789Y-125024640D01*
X121191713Y-125020725D01*
X121184436Y-125022054D01*
X121184435Y-125022054D01*
X121172212Y-125024287D01*
X121133567Y-125031344D01*
X121130553Y-125031846D01*
X121072085Y-125040636D01*
X121065577Y-125043761D01*
X121058475Y-125045058D01*
X121051909Y-125048469D01*
X121051908Y-125048469D01*
X121006045Y-125072293D01*
X121003266Y-125073682D01*
X120949991Y-125099265D01*
X120945552Y-125103368D01*
X120943291Y-125104892D01*
X120938284Y-125107493D01*
X120932392Y-125112525D01*
X120893966Y-125150951D01*
X120891164Y-125153644D01*
X120850534Y-125191202D01*
X120847121Y-125197077D01*
X120840959Y-125203958D01*
X119342912Y-126702004D01*
X119288395Y-126729781D01*
X119272908Y-126731000D01*
X118554500Y-126731000D01*
X118510700Y-126739713D01*
X118485424Y-126744740D01*
X118485422Y-126744741D01*
X118475859Y-126746643D01*
X118409190Y-126791190D01*
X118364643Y-126857859D01*
X118362741Y-126867422D01*
X118362740Y-126867424D01*
X118358646Y-126888006D01*
X118349000Y-126936500D01*
X118349000Y-127479888D01*
X118330093Y-127538079D01*
X118320004Y-127549892D01*
X117252073Y-128617823D01*
X117243358Y-128625565D01*
X117216051Y-128647093D01*
X117215782Y-128646752D01*
X117166507Y-128673842D01*
X117147954Y-128675596D01*
X116296461Y-128675596D01*
X116256432Y-128667142D01*
X116242394Y-128660936D01*
X116176409Y-128631765D01*
X116127578Y-128625596D01*
X114664611Y-128625596D01*
X114606420Y-128606689D01*
X114570456Y-128557189D01*
X114570456Y-128496003D01*
X114594607Y-128456592D01*
X114645607Y-128405592D01*
X114700124Y-128377815D01*
X114715611Y-128376596D01*
X116118039Y-128376596D01*
X116203153Y-128362429D01*
X116221885Y-128352322D01*
X116236589Y-128344388D01*
X116305888Y-128306996D01*
X116316290Y-128295744D01*
X116354092Y-128254850D01*
X116385130Y-128221274D01*
X116388438Y-128213791D01*
X116388440Y-128213788D01*
X116417325Y-128148449D01*
X116432331Y-128114505D01*
X116438500Y-128065674D01*
X116438500Y-127696057D01*
X116424333Y-127610943D01*
X116368900Y-127508208D01*
X116283178Y-127428966D01*
X116275695Y-127425658D01*
X116275692Y-127425656D01*
X116203288Y-127393648D01*
X116176409Y-127381765D01*
X116127578Y-127375596D01*
X114657961Y-127375596D01*
X114620898Y-127381765D01*
X114580919Y-127388419D01*
X114580917Y-127388420D01*
X114572847Y-127389763D01*
X114524782Y-127415697D01*
X114495564Y-127425958D01*
X114465579Y-127431434D01*
X114462518Y-127431944D01*
X114404065Y-127440732D01*
X114397557Y-127443857D01*
X114390455Y-127445154D01*
X114383889Y-127448565D01*
X114383888Y-127448565D01*
X114338025Y-127472389D01*
X114335246Y-127473778D01*
X114281971Y-127499361D01*
X114277533Y-127503463D01*
X114275268Y-127504989D01*
X114270264Y-127507589D01*
X114265979Y-127511248D01*
X114265976Y-127511250D01*
X114265848Y-127511359D01*
X114265837Y-127511369D01*
X114264371Y-127512621D01*
X114225933Y-127551059D01*
X114223131Y-127553752D01*
X114182514Y-127591298D01*
X114179102Y-127597173D01*
X114172944Y-127604048D01*
X113791967Y-127985025D01*
X113783253Y-127992767D01*
X113770273Y-128003000D01*
X113755945Y-128014295D01*
X113743557Y-128032219D01*
X113722359Y-128062889D01*
X113720552Y-128065418D01*
X113685435Y-128112964D01*
X113683044Y-128119774D01*
X113678938Y-128125714D01*
X113676707Y-128132767D01*
X113676705Y-128132772D01*
X113661117Y-128182063D01*
X113660150Y-128184962D01*
X113640558Y-128240754D01*
X113640321Y-128246794D01*
X113639799Y-128249473D01*
X113638098Y-128254850D01*
X113637490Y-128262575D01*
X113637490Y-128316893D01*
X113637414Y-128320779D01*
X113635694Y-128364565D01*
X113635241Y-128376090D01*
X113636982Y-128382657D01*
X113637490Y-128391882D01*
X113637490Y-137554209D01*
X113636804Y-137565845D01*
X113632715Y-137600394D01*
X111198000Y-137600394D01*
X111198000Y-126436518D01*
X114337500Y-126436518D01*
X114337500Y-126806135D01*
X114351667Y-126891249D01*
X114355554Y-126898453D01*
X114357322Y-126901729D01*
X114407100Y-126993984D01*
X114492822Y-127073226D01*
X114500305Y-127076534D01*
X114500308Y-127076536D01*
X114546721Y-127097054D01*
X114599591Y-127120427D01*
X114648422Y-127126596D01*
X116118039Y-127126596D01*
X116203153Y-127112429D01*
X116247556Y-127088470D01*
X116294568Y-127076596D01*
X116801397Y-127076596D01*
X116861663Y-127097054D01*
X116918250Y-127140474D01*
X117064285Y-127200964D01*
X117221000Y-127221596D01*
X117377715Y-127200964D01*
X117523750Y-127140474D01*
X117649153Y-127044249D01*
X117745378Y-126918846D01*
X117805868Y-126772811D01*
X117826500Y-126616096D01*
X117805868Y-126459381D01*
X117745378Y-126313346D01*
X117649153Y-126187943D01*
X117523750Y-126091718D01*
X117377715Y-126031228D01*
X117221000Y-126010596D01*
X117064285Y-126031228D01*
X116918250Y-126091718D01*
X116913101Y-126095669D01*
X116835599Y-126155138D01*
X116775332Y-126175596D01*
X116296461Y-126175596D01*
X116256432Y-126167142D01*
X116229279Y-126155138D01*
X116176409Y-126131765D01*
X116127578Y-126125596D01*
X114657961Y-126125596D01*
X114572847Y-126139763D01*
X114470112Y-126195196D01*
X114390870Y-126280918D01*
X114387562Y-126288401D01*
X114387560Y-126288404D01*
X114378810Y-126308197D01*
X114343669Y-126387687D01*
X114337500Y-126436518D01*
X111198000Y-126436518D01*
X111198000Y-123105096D01*
X111216907Y-123046905D01*
X111266407Y-123010941D01*
X111297000Y-123006096D01*
X148199000Y-123006096D01*
X148257191Y-123025003D01*
G37*
G04 #@! TD.AperFunction*
G04 #@! TA.AperFunction,Conductor*
G36*
X129116580Y-135597407D02*
G01*
X129128393Y-135607496D01*
X129310997Y-135790100D01*
X129338774Y-135844617D01*
X129329203Y-135905049D01*
X129285938Y-135948314D01*
X129260309Y-135957202D01*
X129215359Y-135966143D01*
X129148690Y-136010690D01*
X129104143Y-136077359D01*
X129088500Y-136156000D01*
X129088500Y-136307000D01*
X129069593Y-136365191D01*
X129020093Y-136401155D01*
X128989500Y-136406000D01*
X128872081Y-136406000D01*
X128871776Y-136406069D01*
X128870987Y-136406113D01*
X128859732Y-136406103D01*
X128859729Y-136406104D01*
X128848583Y-136406094D01*
X128837697Y-136411321D01*
X128816869Y-136418594D01*
X128815970Y-136418799D01*
X128815969Y-136418799D01*
X128805100Y-136421279D01*
X128796381Y-136428227D01*
X128795874Y-136428631D01*
X128777024Y-136440456D01*
X128766384Y-136445565D01*
X128759423Y-136454269D01*
X128759421Y-136454271D01*
X128758846Y-136454991D01*
X128743231Y-136470580D01*
X128733788Y-136478105D01*
X128728945Y-136488145D01*
X128728943Y-136488148D01*
X128728659Y-136488738D01*
X128716809Y-136507557D01*
X128709435Y-136516778D01*
X128706936Y-136527644D01*
X128706935Y-136527647D01*
X128706729Y-136528543D01*
X128699419Y-136549359D01*
X128699017Y-136550192D01*
X128699016Y-136550195D01*
X128694174Y-136560234D01*
X128694155Y-136582623D01*
X128694109Y-136583425D01*
X128694000Y-136583899D01*
X128694000Y-137227919D01*
X128694069Y-137228224D01*
X128694113Y-137229013D01*
X128694103Y-137240268D01*
X128694104Y-137240271D01*
X128694094Y-137251417D01*
X128698919Y-137261466D01*
X128699320Y-137262300D01*
X128706594Y-137283131D01*
X128709279Y-137294900D01*
X128716227Y-137303619D01*
X128716631Y-137304126D01*
X128728456Y-137322976D01*
X128733565Y-137333616D01*
X128742269Y-137340577D01*
X128742271Y-137340579D01*
X128742991Y-137341154D01*
X128758580Y-137356769D01*
X128766105Y-137366212D01*
X128776145Y-137371055D01*
X128776148Y-137371057D01*
X128776738Y-137371341D01*
X128795557Y-137383191D01*
X128804778Y-137390565D01*
X128815644Y-137393064D01*
X128815647Y-137393065D01*
X128816543Y-137393271D01*
X128837359Y-137400581D01*
X128838192Y-137400983D01*
X128838195Y-137400984D01*
X128848234Y-137405826D01*
X128870631Y-137405845D01*
X128871425Y-137405891D01*
X128871899Y-137406000D01*
X128989500Y-137406000D01*
X129047691Y-137424907D01*
X129083655Y-137474407D01*
X129088500Y-137505000D01*
X129088500Y-137656000D01*
X129097213Y-137699800D01*
X129101810Y-137722910D01*
X129104143Y-137734641D01*
X129148690Y-137801310D01*
X129215359Y-137845857D01*
X129224922Y-137847759D01*
X129224924Y-137847760D01*
X129250200Y-137852787D01*
X129294000Y-137861500D01*
X129310187Y-137861500D01*
X129368378Y-137880407D01*
X129404342Y-137929907D01*
X129404342Y-137991093D01*
X129368378Y-138040593D01*
X129355129Y-138048711D01*
X129342200Y-138055298D01*
X129327852Y-138061241D01*
X129304907Y-138068697D01*
X129285392Y-138082876D01*
X129272151Y-138090991D01*
X129250653Y-138101944D01*
X129160944Y-138191653D01*
X129160937Y-138191668D01*
X129160916Y-138191692D01*
X129132604Y-138220004D01*
X129078087Y-138247781D01*
X129062600Y-138249000D01*
X128744181Y-138249000D01*
X128740337Y-138249609D01*
X128740335Y-138249609D01*
X128652345Y-138263545D01*
X128652344Y-138263545D01*
X128644650Y-138264764D01*
X128637711Y-138268300D01*
X128637710Y-138268300D01*
X128533321Y-138321489D01*
X128533319Y-138321490D01*
X128526382Y-138325025D01*
X128432525Y-138418882D01*
X128428990Y-138425819D01*
X128428989Y-138425821D01*
X128381745Y-138518542D01*
X128372264Y-138537150D01*
X128371045Y-138544844D01*
X128371045Y-138544845D01*
X128357109Y-138632835D01*
X128356500Y-138636681D01*
X128356500Y-138884388D01*
X128337593Y-138942579D01*
X128327504Y-138954392D01*
X127979392Y-139302504D01*
X127924875Y-139330281D01*
X127909388Y-139331500D01*
X126125500Y-139331500D01*
X126067309Y-139312593D01*
X126031345Y-139263093D01*
X126026500Y-139232500D01*
X126026500Y-138795499D01*
X126025144Y-138785596D01*
X126021207Y-138756857D01*
X126011037Y-138682615D01*
X126008360Y-138676429D01*
X126008359Y-138676425D01*
X125953836Y-138550430D01*
X125953834Y-138550426D01*
X125951155Y-138544236D01*
X125856266Y-138427058D01*
X125836247Y-138412831D01*
X125738859Y-138343621D01*
X125738858Y-138343620D01*
X125733361Y-138339714D01*
X125727017Y-138337430D01*
X125727013Y-138337428D01*
X125597843Y-138290924D01*
X125597840Y-138290923D01*
X125591495Y-138288639D01*
X125566504Y-138286804D01*
X125447854Y-138278090D01*
X125447850Y-138278090D01*
X125441120Y-138277596D01*
X125434505Y-138278930D01*
X125434503Y-138278930D01*
X125388803Y-138288145D01*
X125293315Y-138307399D01*
X125287309Y-138310459D01*
X125287307Y-138310460D01*
X125247916Y-138330531D01*
X125158969Y-138375852D01*
X125154006Y-138380415D01*
X125154004Y-138380417D01*
X125097579Y-138432303D01*
X125047980Y-138477911D01*
X124968525Y-138606058D01*
X124936744Y-138715449D01*
X124902354Y-138766053D01*
X124844786Y-138786779D01*
X124786030Y-138769709D01*
X124748529Y-138721364D01*
X124743592Y-138701266D01*
X124741952Y-138689297D01*
X124741037Y-138682615D01*
X124738360Y-138676429D01*
X124738359Y-138676425D01*
X124683836Y-138550430D01*
X124683834Y-138550426D01*
X124681155Y-138544236D01*
X124586266Y-138427058D01*
X124566247Y-138412831D01*
X124468859Y-138343621D01*
X124468858Y-138343620D01*
X124463361Y-138339714D01*
X124457017Y-138337430D01*
X124457013Y-138337428D01*
X124327843Y-138290924D01*
X124327840Y-138290923D01*
X124321495Y-138288639D01*
X124296504Y-138286804D01*
X124177854Y-138278090D01*
X124177850Y-138278090D01*
X124171120Y-138277596D01*
X124164505Y-138278930D01*
X124164503Y-138278930D01*
X124118803Y-138288145D01*
X124023315Y-138307399D01*
X124017309Y-138310459D01*
X124017307Y-138310460D01*
X123977916Y-138330531D01*
X123888969Y-138375852D01*
X123884006Y-138380415D01*
X123884004Y-138380417D01*
X123827579Y-138432303D01*
X123777980Y-138477911D01*
X123698525Y-138606058D01*
X123666744Y-138715449D01*
X123632354Y-138766053D01*
X123574786Y-138786779D01*
X123516030Y-138769709D01*
X123478529Y-138721364D01*
X123473592Y-138701266D01*
X123471952Y-138689297D01*
X123471037Y-138682615D01*
X123468360Y-138676429D01*
X123468359Y-138676425D01*
X123413836Y-138550430D01*
X123413834Y-138550426D01*
X123411155Y-138544236D01*
X123406906Y-138538989D01*
X123403412Y-138533220D01*
X123405374Y-138532032D01*
X123386500Y-138478732D01*
X123386500Y-137895611D01*
X123405407Y-137837420D01*
X123415496Y-137825607D01*
X125183069Y-136058035D01*
X125183072Y-136058031D01*
X125633607Y-135607496D01*
X125688124Y-135579719D01*
X125703611Y-135578500D01*
X129058389Y-135578500D01*
X129116580Y-135597407D01*
G37*
G04 #@! TD.AperFunction*
G04 #@! TA.AperFunction,Conductor*
G36*
X120936445Y-126479422D02*
G01*
X120979710Y-126522687D01*
X120990500Y-126567632D01*
X120990500Y-126843819D01*
X120991109Y-126847663D01*
X120991109Y-126847665D01*
X121004425Y-126931737D01*
X121006264Y-126943350D01*
X121009800Y-126950289D01*
X121009800Y-126950290D01*
X121062420Y-127053561D01*
X121066525Y-127061618D01*
X121160382Y-127155475D01*
X121167319Y-127159010D01*
X121167321Y-127159011D01*
X121253911Y-127203131D01*
X121278650Y-127215736D01*
X121286344Y-127216955D01*
X121286345Y-127216955D01*
X121374335Y-127230891D01*
X121374337Y-127230891D01*
X121378181Y-127231500D01*
X121953819Y-127231500D01*
X121957663Y-127230891D01*
X121957665Y-127230891D01*
X122045655Y-127216955D01*
X122045656Y-127216955D01*
X122053350Y-127215736D01*
X122078089Y-127203131D01*
X122164679Y-127159011D01*
X122164681Y-127159010D01*
X122171618Y-127155475D01*
X122254097Y-127072996D01*
X122308614Y-127045219D01*
X122324101Y-127044000D01*
X122785899Y-127044000D01*
X122844090Y-127062907D01*
X122855903Y-127072996D01*
X122938382Y-127155475D01*
X122945319Y-127159010D01*
X122945321Y-127159011D01*
X123031911Y-127203131D01*
X123056650Y-127215736D01*
X123064344Y-127216955D01*
X123064345Y-127216955D01*
X123152335Y-127230891D01*
X123152337Y-127230891D01*
X123156181Y-127231500D01*
X123530890Y-127231500D01*
X123589081Y-127250407D01*
X123600887Y-127260490D01*
X123701895Y-127361499D01*
X123729671Y-127416013D01*
X123720100Y-127476445D01*
X123676835Y-127519710D01*
X123631890Y-127530500D01*
X123156181Y-127530500D01*
X123152337Y-127531109D01*
X123152335Y-127531109D01*
X123064345Y-127545045D01*
X123064344Y-127545045D01*
X123056650Y-127546264D01*
X123049711Y-127549800D01*
X123049710Y-127549800D01*
X122945321Y-127602989D01*
X122945319Y-127602990D01*
X122938382Y-127606525D01*
X122844525Y-127700382D01*
X122840990Y-127707319D01*
X122840989Y-127707321D01*
X122805414Y-127777141D01*
X122784264Y-127818650D01*
X122783045Y-127826344D01*
X122783045Y-127826345D01*
X122770896Y-127903052D01*
X122768500Y-127918181D01*
X122768500Y-128292889D01*
X122749593Y-128351080D01*
X122739504Y-128362892D01*
X122639984Y-128462413D01*
X122631269Y-128470157D01*
X122603955Y-128491689D01*
X122599747Y-128497778D01*
X122570369Y-128540283D01*
X122568562Y-128542812D01*
X122537843Y-128584403D01*
X122533445Y-128590358D01*
X122531054Y-128597168D01*
X122526948Y-128603108D01*
X122524717Y-128610161D01*
X122524715Y-128610166D01*
X122514487Y-128642509D01*
X122509493Y-128658301D01*
X122509127Y-128659457D01*
X122508160Y-128662356D01*
X122488568Y-128718148D01*
X122488331Y-128724188D01*
X122487809Y-128726867D01*
X122486108Y-128732244D01*
X122485500Y-128739969D01*
X122485500Y-128794287D01*
X122485424Y-128798173D01*
X122483958Y-128835500D01*
X122483251Y-128853484D01*
X122484992Y-128860051D01*
X122485500Y-128869276D01*
X122485500Y-129685966D01*
X122470639Y-129738135D01*
X122437478Y-129791618D01*
X122428525Y-129806058D01*
X122396744Y-129915449D01*
X122362354Y-129966053D01*
X122304786Y-129986779D01*
X122246030Y-129969709D01*
X122208529Y-129921364D01*
X122203592Y-129901266D01*
X122201952Y-129889297D01*
X122201037Y-129882615D01*
X122198360Y-129876429D01*
X122198359Y-129876425D01*
X122143836Y-129750430D01*
X122143834Y-129750426D01*
X122141155Y-129744236D01*
X122136906Y-129738989D01*
X122133412Y-129733220D01*
X122135374Y-129732032D01*
X122116500Y-129678732D01*
X122116500Y-128819227D01*
X122135407Y-128761036D01*
X122159639Y-128740334D01*
X122158373Y-128738592D01*
X122164679Y-128734011D01*
X122171618Y-128730475D01*
X122265475Y-128636618D01*
X122270893Y-128625986D01*
X122322200Y-128525290D01*
X122322200Y-128525289D01*
X122325736Y-128518350D01*
X122329276Y-128496003D01*
X122340891Y-128422665D01*
X122340891Y-128422663D01*
X122341500Y-128418819D01*
X122341500Y-127918181D01*
X122339104Y-127903052D01*
X122326955Y-127826345D01*
X122326955Y-127826344D01*
X122325736Y-127818650D01*
X122304586Y-127777141D01*
X122269011Y-127707321D01*
X122269010Y-127707319D01*
X122265475Y-127700382D01*
X122171618Y-127606525D01*
X122164681Y-127602990D01*
X122164679Y-127602989D01*
X122060290Y-127549800D01*
X122060289Y-127549800D01*
X122053350Y-127546264D01*
X122045656Y-127545045D01*
X122045655Y-127545045D01*
X121957665Y-127531109D01*
X121957663Y-127531109D01*
X121953819Y-127530500D01*
X121378181Y-127530500D01*
X121374337Y-127531109D01*
X121374335Y-127531109D01*
X121286345Y-127545045D01*
X121286344Y-127545045D01*
X121278650Y-127546264D01*
X121271711Y-127549800D01*
X121271710Y-127549800D01*
X121167321Y-127602989D01*
X121167319Y-127602990D01*
X121160382Y-127606525D01*
X121066525Y-127700382D01*
X121062990Y-127707319D01*
X121062989Y-127707321D01*
X121027414Y-127777141D01*
X121006264Y-127818650D01*
X121005045Y-127826344D01*
X121005045Y-127826345D01*
X120992896Y-127903052D01*
X120990500Y-127918181D01*
X120990500Y-128418819D01*
X120991109Y-128422663D01*
X120991109Y-128422665D01*
X121002725Y-128496003D01*
X121006264Y-128518350D01*
X121009800Y-128525289D01*
X121009800Y-128525290D01*
X121061108Y-128625986D01*
X121066525Y-128636618D01*
X121160382Y-128730475D01*
X121167321Y-128734011D01*
X121173627Y-128738592D01*
X121171691Y-128741257D01*
X121204722Y-128774307D01*
X121215500Y-128819227D01*
X121215500Y-129685966D01*
X121200639Y-129738135D01*
X121167478Y-129791618D01*
X121158525Y-129806058D01*
X121116459Y-129950851D01*
X121115500Y-129963911D01*
X121115500Y-131968501D01*
X121130963Y-132081385D01*
X121133640Y-132087571D01*
X121133641Y-132087575D01*
X121188164Y-132213570D01*
X121188166Y-132213574D01*
X121190845Y-132219764D01*
X121195093Y-132225010D01*
X121198588Y-132230780D01*
X121196626Y-132231968D01*
X121215500Y-132285268D01*
X121215500Y-134352389D01*
X121196593Y-134410580D01*
X121186504Y-134422393D01*
X119312296Y-136296600D01*
X119257779Y-136324377D01*
X119242292Y-136325596D01*
X117653636Y-136325596D01*
X117593369Y-136305138D01*
X117528899Y-136255669D01*
X117523750Y-136251718D01*
X117377715Y-136191228D01*
X117221000Y-136170596D01*
X117064285Y-136191228D01*
X116918250Y-136251718D01*
X116913101Y-136255669D01*
X116835599Y-136315138D01*
X116775332Y-136335596D01*
X116296461Y-136335596D01*
X116256432Y-136327142D01*
X116252935Y-136325596D01*
X116176409Y-136291765D01*
X116127578Y-136285596D01*
X114657961Y-136285596D01*
X114653747Y-136286297D01*
X114653680Y-136286287D01*
X114649864Y-136286603D01*
X114649790Y-136285703D01*
X114593245Y-136277205D01*
X114549639Y-136234284D01*
X114538490Y-136188642D01*
X114538490Y-129724908D01*
X114557397Y-129666717D01*
X114606897Y-129630753D01*
X114643708Y-129626103D01*
X114645325Y-129626205D01*
X114648422Y-129626596D01*
X116118039Y-129626596D01*
X116203153Y-129612429D01*
X116215824Y-129605592D01*
X116247557Y-129588470D01*
X116294568Y-129576596D01*
X117320485Y-129576596D01*
X117378676Y-129595503D01*
X117390489Y-129605592D01*
X117598393Y-129813496D01*
X117626170Y-129868013D01*
X117616599Y-129928445D01*
X117573334Y-129971710D01*
X117528389Y-129982500D01*
X117260000Y-129982500D01*
X117216200Y-129991213D01*
X117190924Y-129996240D01*
X117190922Y-129996241D01*
X117181359Y-129998143D01*
X117114690Y-130042690D01*
X117070143Y-130109359D01*
X117068241Y-130118922D01*
X117068240Y-130118924D01*
X117063213Y-130144200D01*
X117054500Y-130188000D01*
X117054500Y-131488000D01*
X117070143Y-131566641D01*
X117114690Y-131633310D01*
X117122800Y-131638729D01*
X117147088Y-131654958D01*
X117181359Y-131677857D01*
X117190922Y-131679759D01*
X117190924Y-131679760D01*
X117216200Y-131684787D01*
X117260000Y-131693500D01*
X117560348Y-131693500D01*
X117618539Y-131712407D01*
X117654503Y-131761907D01*
X117658662Y-131804135D01*
X117656485Y-131822531D01*
X117654725Y-131837404D01*
X117656054Y-131844681D01*
X117656054Y-131844684D01*
X117661654Y-131875348D01*
X117664492Y-131890882D01*
X117665337Y-131895510D01*
X117665846Y-131898567D01*
X117674636Y-131957031D01*
X117677761Y-131963539D01*
X117679058Y-131970641D01*
X117682469Y-131977207D01*
X117682469Y-131977208D01*
X117706293Y-132023071D01*
X117707682Y-132025850D01*
X117733265Y-132079125D01*
X117737368Y-132083564D01*
X117738892Y-132085825D01*
X117741493Y-132090832D01*
X117746525Y-132096724D01*
X117784951Y-132135150D01*
X117787644Y-132137952D01*
X117825202Y-132178582D01*
X117831077Y-132181995D01*
X117837958Y-132188157D01*
X117993529Y-132343728D01*
X118021678Y-132400809D01*
X118033132Y-132487811D01*
X118093622Y-132633846D01*
X118189847Y-132759249D01*
X118315250Y-132855474D01*
X118461285Y-132915964D01*
X118618000Y-132936596D01*
X118774715Y-132915964D01*
X118920750Y-132855474D01*
X119046153Y-132759249D01*
X119142378Y-132633846D01*
X119202868Y-132487811D01*
X119223500Y-132331096D01*
X119202868Y-132174381D01*
X119142378Y-132028346D01*
X119046153Y-131902943D01*
X118985000Y-131856019D01*
X118950346Y-131805595D01*
X118951948Y-131744431D01*
X118989195Y-131695889D01*
X119025958Y-131680380D01*
X119029075Y-131679760D01*
X119029076Y-131679760D01*
X119038641Y-131677857D01*
X119072912Y-131654958D01*
X119097200Y-131638729D01*
X119105310Y-131633310D01*
X119149857Y-131566641D01*
X119165500Y-131488000D01*
X119165500Y-130188000D01*
X119156787Y-130144200D01*
X119151760Y-130118924D01*
X119151759Y-130118922D01*
X119149857Y-130109359D01*
X119105310Y-130042690D01*
X119038641Y-129998143D01*
X119029078Y-129996241D01*
X119029076Y-129996240D01*
X119003800Y-129991213D01*
X118960000Y-129982500D01*
X118659500Y-129982500D01*
X118601309Y-129963593D01*
X118565345Y-129914093D01*
X118560500Y-129883500D01*
X118560500Y-129719877D01*
X118561186Y-129708241D01*
X118563822Y-129685966D01*
X118565275Y-129673692D01*
X118563946Y-129666415D01*
X118563946Y-129666412D01*
X118556584Y-129626103D01*
X118554659Y-129615565D01*
X118554152Y-129612518D01*
X118546464Y-129561381D01*
X118545364Y-129554065D01*
X118542239Y-129547557D01*
X118540942Y-129540455D01*
X118534916Y-129528853D01*
X118513707Y-129488025D01*
X118512317Y-129485244D01*
X118508644Y-129477596D01*
X118486735Y-129431971D01*
X118482633Y-129427533D01*
X118481107Y-129425268D01*
X118478507Y-129420264D01*
X118474846Y-129415976D01*
X118474737Y-129415848D01*
X118474727Y-129415837D01*
X118473475Y-129414371D01*
X118435037Y-129375933D01*
X118432343Y-129373130D01*
X118403951Y-129342416D01*
X118394798Y-129332514D01*
X118388923Y-129329102D01*
X118382048Y-129322944D01*
X118171608Y-129112504D01*
X118143831Y-129057987D01*
X118153402Y-128997555D01*
X118171608Y-128972496D01*
X119084107Y-128059996D01*
X119138624Y-128032219D01*
X119154111Y-128031000D01*
X119951500Y-128031000D01*
X119995300Y-128022287D01*
X120020576Y-128017260D01*
X120020578Y-128017259D01*
X120030141Y-128015357D01*
X120096810Y-127970810D01*
X120141357Y-127904141D01*
X120157000Y-127825500D01*
X120157000Y-127203131D01*
X120175907Y-127144940D01*
X120185996Y-127133127D01*
X120821496Y-126497628D01*
X120876013Y-126469851D01*
X120936445Y-126479422D01*
G37*
G04 #@! TD.AperFunction*
G04 #@! TD*
M02*
