G04 #@! TF.GenerationSoftware,KiCad,Pcbnew,(5.99.0-9154-g0d2ee266a1)*
G04 #@! TF.CreationDate,2021-02-19T12:57:40+01:00*
G04 #@! TF.ProjectId,TFRPM01C,54465250-4d30-4314-932e-6b696361645f,REV*
G04 #@! TF.SameCoordinates,PX78dfd90PY8290510*
G04 #@! TF.FileFunction,Soldermask,Bot*
G04 #@! TF.FilePolarity,Negative*
%FSLAX46Y46*%
G04 Gerber Fmt 4.6, Leading zero omitted, Abs format (unit mm)*
G04 Created by KiCad (PCBNEW (5.99.0-9154-g0d2ee266a1)) date 2021-02-19 12:57:40*
%MOMM*%
%LPD*%
G01*
G04 APERTURE LIST*
G04 Aperture macros list*
%AMRoundRect*
0 Rectangle with rounded corners*
0 $1 Rounding radius*
0 $2 $3 $4 $5 $6 $7 $8 $9 X,Y pos of 4 corners*
0 Add a 4 corners polygon primitive as box body*
4,1,4,$2,$3,$4,$5,$6,$7,$8,$9,$2,$3,0*
0 Add four circle primitives for the rounded corners*
1,1,$1+$1,$2,$3*
1,1,$1+$1,$4,$5*
1,1,$1+$1,$6,$7*
1,1,$1+$1,$8,$9*
0 Add four rect primitives between the rounded corners*
20,1,$1+$1,$2,$3,$4,$5,0*
20,1,$1+$1,$4,$5,$6,$7,0*
20,1,$1+$1,$6,$7,$8,$9,0*
20,1,$1+$1,$8,$9,$2,$3,0*%
%AMFreePoly0*
4,1,41,0.636777,0.930194,0.706366,0.874698,0.744986,0.794504,0.750000,0.750000,0.750000,-0.750000,0.730194,-0.836777,0.674698,-0.906366,0.594504,-0.944986,0.550000,-0.950000,0.000000,-0.950000,-0.023504,-0.944635,-0.083606,-0.943534,-0.139582,-0.934468,-0.274897,-0.892193,-0.326080,-0.867780,-0.444090,-0.789225,-0.486362,-0.751429,-0.577582,-0.642910,-0.607548,-0.594768,-0.664643,-0.465009,
-0.679893,-0.410393,-0.697476,-0.275933,-0.697084,-0.275882,-0.700000,-0.250000,-0.700000,0.250000,-0.697921,0.259109,-0.697582,0.286880,-0.675771,0.426957,-0.659192,0.481183,-0.598944,0.609508,-0.567811,0.656904,-0.473967,0.763162,-0.430783,0.799915,-0.310888,0.875563,-0.259125,0.898717,-0.122818,0.937674,-0.066635,0.945370,-0.042411,0.945222,0.000000,0.950000,0.550000,0.950000,
0.636777,0.930194,0.636777,0.930194,$1*%
%AMFreePoly1*
4,1,41,0.022678,0.944824,0.075125,0.944504,0.131210,0.936123,0.267031,0.895504,0.318507,0.871718,0.437469,0.794611,0.480202,0.757333,0.572740,0.649936,0.603290,0.602165,0.661967,0.473113,0.677883,0.418686,0.697980,0.278353,0.700000,0.250000,0.700000,-0.250000,0.699985,-0.252439,0.699836,-0.264655,0.697079,-0.295398,0.673559,-0.435199,0.656318,-0.489221,0.594506,-0.616800,
0.562797,-0.663810,0.467662,-0.768914,0.424032,-0.805137,0.303222,-0.879314,0.251181,-0.901834,0.114408,-0.939123,0.058135,-0.946132,0.037663,-0.945757,0.000000,-0.950000,-0.550000,-0.950000,-0.636777,-0.930194,-0.706366,-0.874698,-0.744986,-0.794504,-0.750000,-0.750000,-0.750000,0.750000,-0.730194,0.836777,-0.674698,0.906366,-0.594504,0.944986,-0.550000,0.950000,0.000000,0.950000,
0.022678,0.944824,0.022678,0.944824,$1*%
G04 Aperture macros list end*
%ADD10RoundRect,0.200000X-0.850000X0.650000X-0.850000X-0.650000X0.850000X-0.650000X0.850000X0.650000X0*%
%ADD11C,6.400000*%
%ADD12RoundRect,0.318750X-0.356250X0.318750X-0.356250X-0.318750X0.356250X-0.318750X0.356250X0.318750X0*%
%ADD13RoundRect,0.200000X-0.850000X-0.850000X0.850000X-0.850000X0.850000X0.850000X-0.850000X0.850000X0*%
%ADD14O,2.100000X2.100000*%
%ADD15RoundRect,0.200000X-0.530000X-0.325000X0.530000X-0.325000X0.530000X0.325000X-0.530000X0.325000X0*%
%ADD16RoundRect,0.200000X0.698500X-0.444500X0.698500X0.444500X-0.698500X0.444500X-0.698500X-0.444500X0*%
%ADD17RoundRect,0.318750X0.318750X0.356250X-0.318750X0.356250X-0.318750X-0.356250X0.318750X-0.356250X0*%
%ADD18RoundRect,0.250000X0.800000X-0.250000X0.800000X0.250000X-0.800000X0.250000X-0.800000X-0.250000X0*%
%ADD19RoundRect,0.350000X1.200000X-0.350000X1.200000X0.350000X-1.200000X0.350000X-1.200000X-0.350000X0*%
%ADD20RoundRect,0.200000X-0.698500X0.444500X-0.698500X-0.444500X0.698500X-0.444500X0.698500X0.444500X0*%
%ADD21RoundRect,0.318750X-0.318750X-0.356250X0.318750X-0.356250X0.318750X0.356250X-0.318750X0.356250X0*%
%ADD22O,1.100000X3.000000*%
%ADD23RoundRect,0.318750X0.356250X-0.318750X0.356250X0.318750X-0.356250X0.318750X-0.356250X-0.318750X0*%
%ADD24C,2.700000*%
%ADD25RoundRect,0.200000X-0.475000X-0.750000X0.475000X-0.750000X0.475000X0.750000X-0.475000X0.750000X0*%
%ADD26RoundRect,0.200000X-0.200000X0.325000X-0.200000X-0.325000X0.200000X-0.325000X0.200000X0.325000X0*%
%ADD27FreePoly0,0.000000*%
%ADD28RoundRect,0.200000X-0.500000X-0.750000X0.500000X-0.750000X0.500000X0.750000X-0.500000X0.750000X0*%
%ADD29FreePoly1,0.000000*%
%ADD30FreePoly0,180.000000*%
%ADD31RoundRect,0.200000X0.500000X0.750000X-0.500000X0.750000X-0.500000X-0.750000X0.500000X-0.750000X0*%
%ADD32FreePoly1,180.000000*%
G04 APERTURE END LIST*
D10*
G04 #@! TO.C,D1*
X-8636000Y6068000D03*
X-8636000Y2568000D03*
G04 #@! TD*
D11*
G04 #@! TO.C,M2*
X5842000Y4574904D03*
G04 #@! TD*
D12*
G04 #@! TO.C,R10*
X-3302000Y10312500D03*
X-3302000Y8737500D03*
G04 #@! TD*
D13*
G04 #@! TO.C,J1*
X11557000Y2034904D03*
D14*
X11557000Y4574904D03*
X11557000Y7114904D03*
G04 #@! TD*
D15*
G04 #@! TO.C,U3*
X-930000Y10480000D03*
X-930000Y11430000D03*
X-930000Y12380000D03*
X1270000Y12380000D03*
X1270000Y10480000D03*
G04 #@! TD*
D16*
G04 #@! TO.C,C3*
X-7493000Y9525000D03*
X-7493000Y11430000D03*
G04 #@! TD*
D17*
G04 #@! TO.C,C4*
X-3175000Y12700000D03*
X-4750000Y12700000D03*
G04 #@! TD*
D18*
G04 #@! TO.C,J2*
X-11358000Y7779904D03*
X-11358000Y9029904D03*
X-11358000Y10279904D03*
X-11358000Y11529904D03*
D19*
X-14558000Y5929904D03*
X-14558000Y13379904D03*
G04 #@! TD*
D12*
G04 #@! TO.C,R4*
X2286000Y-1981000D03*
X2286000Y-3556000D03*
G04 #@! TD*
D20*
G04 #@! TO.C,R1*
X14732000Y11112500D03*
X14732000Y9207500D03*
G04 #@! TD*
D16*
G04 #@! TO.C,R2*
X10414000Y9207500D03*
X10414000Y11112500D03*
G04 #@! TD*
D12*
G04 #@! TO.C,R3*
X-5080000Y10312500D03*
X-5080000Y8737500D03*
G04 #@! TD*
G04 #@! TO.C,C6*
X9906000Y-1752500D03*
X9906000Y-3327500D03*
G04 #@! TD*
D18*
G04 #@! TO.C,J3*
X-11358000Y-2380096D03*
X-11358000Y-1130096D03*
X-11358000Y119904D03*
X-11358000Y1369904D03*
D19*
X-14558000Y-4230096D03*
X-14558000Y3219904D03*
G04 #@! TD*
D21*
G04 #@! TO.C,C5*
X635000Y7620000D03*
X2210000Y7620000D03*
G04 #@! TD*
D22*
G04 #@! TO.C,U1*
X-1270000Y-2876000D03*
X-2540000Y-2876000D03*
X-3810000Y-2876000D03*
X-5085000Y-2876000D03*
X-5080000Y5924000D03*
X-3810000Y5924000D03*
X-2475000Y5924000D03*
X-1270000Y5924000D03*
G04 #@! TD*
D23*
G04 #@! TO.C,C1*
X3556000Y10490000D03*
X3556000Y12065000D03*
G04 #@! TD*
D16*
G04 #@! TO.C,C2*
X12446000Y10541000D03*
X12446000Y12446000D03*
G04 #@! TD*
D24*
G04 #@! TO.C,D2*
X6128000Y-2791096D03*
D25*
X8203000Y-2791096D03*
X4053000Y-2791096D03*
G04 #@! TD*
D26*
G04 #@! TO.C,U2*
X12304000Y-1336000D03*
X12954000Y-1336000D03*
X13604000Y-1336000D03*
X13604000Y-3236000D03*
X12304000Y-3236000D03*
G04 #@! TD*
D27*
G04 #@! TO.C,JP1*
X1748000Y0D03*
D28*
X3048000Y0D03*
D29*
X4348000Y0D03*
G04 #@! TD*
D30*
G04 #@! TO.C,JP2*
X8158000Y10922000D03*
D31*
X6858000Y10922000D03*
D32*
X5558000Y10922000D03*
G04 #@! TD*
M02*
