  0
SECTION
  2
HEADER
  9
$ANGBASE
  50
0.0
  9
$ANGDIR
  70
1
  9
$MEASUREMENT
  70
0
  0
ENDSEC
  0
SECTION
  2
TABLES
  0
TABLE
  2
LTYPE
  70
4
  0
LTYPE
  5
40F
  2
CONTINUOUS
  70
0
  3
Solid line
  72
65
  73
0
  40
0.0
  0
LTYPE
  5
410
  2
DASHDOT
 70
0
  3
Dash Dot ____ _ ____ _
 72
65
 73
4
 40
2.0
 49
1.25
 49
-0.25
 49
0.25
 49
-0.25
  0
LTYPE
  5
411
  2
DASHED
 70
0
  3
Dashed __ __ __ __ __
 72
65
 73
2
 40
0.75
 49
0.5
 49
-0.25
  0
LTYPE
  5
43B
  2
DOTTED
 70
0
  3
Dotted .  .  .  .
 72
65
 73
2
 40
0.2
 49
0.0
 49
-0.2
  0
ENDTAB
  0
TABLE
  2
STYLE
  70
4
  0
STYLE
  2
KICAD
  70
0
  40
0
  41
1
  42
1
  50
0
  71
0
  3
isocp.shx
  0
STYLE
  2
KICADB
  70
0
  40
0
  41
1
  42
1
  50
0
  71
0
  3
isocp.shx
  0
STYLE
  2
KICADI
  70
0
  40
0
  41
1
  42
1
  50
15
  71
0
  3
isocp.shx
  0
STYLE
  2
KICADBI
  70
0
  40
0
  41
1
  42
1
  50
15
  71
0
  3
isocp.shx
  0
ENDTAB
  0
TABLE
  2
LAYER
  70
1
  0
LAYER
  2
BLACK
  70
0
  62
7
  6
CONTINUOUS
  0
ENDTAB
  0
ENDSEC
  0
SECTION
  2
ENTITIES
0
LINE
8
BLACK
6
CONTINUOUS
10
-0.64668
20
-0.206408
11
-0.646969
21
-0.205712
0
LINE
8
BLACK
6
CONTINUOUS
10
-0.646969
20
-0.205712
11
-0.646969
21
0.165941
0
LINE
8
BLACK
6
CONTINUOUS
10
-0.646969
20
0.165941
11
-0.64668
21
0.166637
0
LINE
8
BLACK
6
CONTINUOUS
10
-0.64668
20
0.166637
11
-0.645984
21
0.166925
0
LINE
8
BLACK
6
CONTINUOUS
10
-0.645984
20
0.166925
11
-0.394016
21
0.166925
0
LINE
8
BLACK
6
CONTINUOUS
10
-0.394016
20
0.166925
11
-0.39332
21
0.166637
0
LINE
8
BLACK
6
CONTINUOUS
10
-0.39332
20
0.166637
11
-0.393031
21
0.165941
0
LINE
8
BLACK
6
CONTINUOUS
10
-0.393031
20
0.165941
11
-0.393031
21
-0.205712
0
LINE
8
BLACK
6
CONTINUOUS
10
-0.393031
20
-0.205712
11
-0.39332
21
-0.206408
0
LINE
8
BLACK
6
CONTINUOUS
10
-0.39332
20
-0.206408
11
-0.394016
21
-0.206697
0
LINE
8
BLACK
6
CONTINUOUS
10
-0.394016
20
-0.206697
11
-0.645984
21
-0.206697
0
LINE
8
BLACK
6
CONTINUOUS
10
-0.645984
20
-0.206697
11
-0.64668
21
-0.206408
0
LINE
8
BLACK
6
CONTINUOUS
10
-0.645
20
0.164957
11
-0.645
21
-0.204728
0
LINE
8
BLACK
6
CONTINUOUS
10
-0.645
20
-0.204728
11
-0.395
21
-0.204728
0
LINE
8
BLACK
6
CONTINUOUS
10
-0.395
20
-0.204728
11
-0.395
21
0.164957
0
LINE
8
BLACK
6
CONTINUOUS
10
-0.395
20
0.164957
11
-0.645
21
0.164957
0
LINE
8
BLACK
6
CONTINUOUS
10
0.0605639
20
-0.16796
11
0.0602756
21
-0.167264
0
LINE
8
BLACK
6
CONTINUOUS
10
0.0602756
20
-0.167264
11
0.0602756
21
-0.0507283
0
LINE
8
BLACK
6
CONTINUOUS
10
0.0602756
20
-0.0507283
11
0.0605639
21
-0.0500324
0
LINE
8
BLACK
6
CONTINUOUS
10
0.0605639
20
-0.0500324
11
0.0612598
21
-0.0497441
0
LINE
8
BLACK
6
CONTINUOUS
10
0.0612598
20
-0.0497441
11
0.11874
21
-0.0497441
0
LINE
8
BLACK
6
CONTINUOUS
10
0.11874
20
-0.0497441
11
0.119436
21
-0.0500324
0
LINE
8
BLACK
6
CONTINUOUS
10
0.119436
20
-0.0500324
11
0.119724
21
-0.0507283
0
LINE
8
BLACK
6
CONTINUOUS
10
0.119724
20
-0.0507283
11
0.119724
21
-0.167264
0
LINE
8
BLACK
6
CONTINUOUS
10
0.119724
20
-0.167264
11
0.119436
21
-0.16796
0
LINE
8
BLACK
6
CONTINUOUS
10
0.119436
20
-0.16796
11
0.11874
21
-0.168248
0
LINE
8
BLACK
6
CONTINUOUS
10
0.11874
20
-0.168248
11
0.0612598
21
-0.168248
0
LINE
8
BLACK
6
CONTINUOUS
10
0.0612598
20
-0.168248
11
0.0605639
21
-0.16796
0
LINE
8
BLACK
6
CONTINUOUS
10
0.0622441
20
-0.0517126
11
0.0622441
21
-0.16628
0
LINE
8
BLACK
6
CONTINUOUS
10
0.0622441
20
-0.16628
11
0.117756
21
-0.16628
0
LINE
8
BLACK
6
CONTINUOUS
10
0.117756
20
-0.16628
11
0.117756
21
-0.0517126
0
LINE
8
BLACK
6
CONTINUOUS
10
0.117756
20
-0.0517126
11
0.0622441
21
-0.0517126
0
LINE
8
BLACK
6
CONTINUOUS
10
0.128123
20
-0.161527
11
0.127835
21
-0.160831
0
LINE
8
BLACK
6
CONTINUOUS
10
0.127835
20
-0.160831
11
0.127835
21
-0.0458699
0
LINE
8
BLACK
6
CONTINUOUS
10
0.127835
20
-0.0458699
11
0.128123
21
-0.0451739
0
LINE
8
BLACK
6
CONTINUOUS
10
0.128123
20
-0.0451739
11
0.128819
21
-0.0448857
0
LINE
8
BLACK
6
CONTINUOUS
10
0.128819
20
-0.0448857
11
0.308346
21
-0.0448857
0
LINE
8
BLACK
6
CONTINUOUS
10
0.308346
20
-0.0448857
11
0.309042
21
-0.0451739
0
LINE
8
BLACK
6
CONTINUOUS
10
0.309042
20
-0.0451739
11
0.309331
21
-0.0458699
0
LINE
8
BLACK
6
CONTINUOUS
10
0.309331
20
-0.0458699
11
0.309331
21
-0.160831
0
LINE
8
BLACK
6
CONTINUOUS
10
0.309331
20
-0.160831
11
0.309042
21
-0.161527
0
LINE
8
BLACK
6
CONTINUOUS
10
0.309042
20
-0.161527
11
0.308346
21
-0.161815
0
LINE
8
BLACK
6
CONTINUOUS
10
0.308346
20
-0.161815
11
0.128819
21
-0.161815
0
LINE
8
BLACK
6
CONTINUOUS
10
0.128819
20
-0.161815
11
0.128123
21
-0.161527
0
LINE
8
BLACK
6
CONTINUOUS
10
0.129803
20
-0.0468542
11
0.129803
21
-0.159846
0
LINE
8
BLACK
6
CONTINUOUS
10
0.129803
20
-0.159846
11
0.307362
21
-0.159846
0
LINE
8
BLACK
6
CONTINUOUS
10
0.307362
20
-0.159846
11
0.307362
21
-0.0468542
0
LINE
8
BLACK
6
CONTINUOUS
10
0.307362
20
-0.0468542
11
0.129803
21
-0.0468542
0
LINE
8
BLACK
6
CONTINUOUS
10
0.454186
20
-0.153688
11
0.453898
21
-0.152992
0
LINE
8
BLACK
6
CONTINUOUS
10
0.453898
20
-0.152992
11
0.453898
21
-0.0270079
0
LINE
8
BLACK
6
CONTINUOUS
10
0.453898
20
-0.0270079
11
0.454186
21
-0.0263119
0
LINE
8
BLACK
6
CONTINUOUS
10
0.454186
20
-0.0263119
11
0.454882
21
-0.0260236
0
LINE
8
BLACK
6
CONTINUOUS
10
0.454882
20
-0.0260236
11
0.565118
21
-0.0260236
0
LINE
8
BLACK
6
CONTINUOUS
10
0.565118
20
-0.0260236
11
0.565814
21
-0.0263119
0
LINE
8
BLACK
6
CONTINUOUS
10
0.565814
20
-0.0263119
11
0.566102
21
-0.0270079
0
LINE
8
BLACK
6
CONTINUOUS
10
0.566102
20
-0.0270079
11
0.566102
21
-0.152992
0
LINE
8
BLACK
6
CONTINUOUS
10
0.566102
20
-0.152992
11
0.565814
21
-0.153688
0
LINE
8
BLACK
6
CONTINUOUS
10
0.565814
20
-0.153688
11
0.565118
21
-0.153976
0
LINE
8
BLACK
6
CONTINUOUS
10
0.565118
20
-0.153976
11
0.454882
21
-0.153976
0
LINE
8
BLACK
6
CONTINUOUS
10
0.454882
20
-0.153976
11
0.454186
21
-0.153688
0
LINE
8
BLACK
6
CONTINUOUS
10
0.455866
20
-0.0279921
11
0.455866
21
-0.152008
0
LINE
8
BLACK
6
CONTINUOUS
10
0.455866
20
-0.152008
11
0.564134
21
-0.152008
0
LINE
8
BLACK
6
CONTINUOUS
10
0.564134
20
-0.152008
11
0.564134
21
-0.0279921
0
LINE
8
BLACK
6
CONTINUOUS
10
0.564134
20
-0.0279921
11
0.455866
21
-0.0279921
0
LINE
8
BLACK
6
CONTINUOUS
10
0.360564
20
-0.151976
11
0.360276
21
-0.15128
0
LINE
8
BLACK
6
CONTINUOUS
10
0.360276
20
-0.15128
11
0.360276
21
-0.0347441
0
LINE
8
BLACK
6
CONTINUOUS
10
0.360276
20
-0.0347441
11
0.360564
21
-0.0340481
0
LINE
8
BLACK
6
CONTINUOUS
10
0.360564
20
-0.0340481
11
0.36126
21
-0.0337598
0
LINE
8
BLACK
6
CONTINUOUS
10
0.36126
20
-0.0337598
11
0.41874
21
-0.0337598
0
LINE
8
BLACK
6
CONTINUOUS
10
0.41874
20
-0.0337598
11
0.419436
21
-0.0340481
0
LINE
8
BLACK
6
CONTINUOUS
10
0.419436
20
-0.0340481
11
0.419724
21
-0.0347441
0
LINE
8
BLACK
6
CONTINUOUS
10
0.419724
20
-0.0347441
11
0.419724
21
-0.15128
0
LINE
8
BLACK
6
CONTINUOUS
10
0.419724
20
-0.15128
11
0.419436
21
-0.151976
0
LINE
8
BLACK
6
CONTINUOUS
10
0.419436
20
-0.151976
11
0.41874
21
-0.152264
0
LINE
8
BLACK
6
CONTINUOUS
10
0.41874
20
-0.152264
11
0.36126
21
-0.152264
0
LINE
8
BLACK
6
CONTINUOUS
10
0.36126
20
-0.152264
11
0.360564
21
-0.151976
0
LINE
8
BLACK
6
CONTINUOUS
10
0.362244
20
-0.0357283
11
0.362244
21
-0.150295
0
LINE
8
BLACK
6
CONTINUOUS
10
0.362244
20
-0.150295
11
0.417756
21
-0.150295
0
LINE
8
BLACK
6
CONTINUOUS
10
0.417756
20
-0.150295
11
0.417756
21
-0.0357283
0
LINE
8
BLACK
6
CONTINUOUS
10
0.417756
20
-0.0357283
11
0.362244
21
-0.0357283
0
LINE
8
BLACK
6
CONTINUOUS
10
0.0308001
20
-0.0358338
11
0.0305118
21
-0.0351378
0
LINE
8
BLACK
6
CONTINUOUS
10
0.0305118
20
-0.0351378
11
0.0305118
21
0.0632874
0
LINE
8
BLACK
6
CONTINUOUS
10
0.0305118
20
0.0632874
11
0.0308001
21
0.0639834
0
LINE
8
BLACK
6
CONTINUOUS
10
0.0308001
20
0.0639834
11
0.0314961
21
0.0642717
0
LINE
8
BLACK
6
CONTINUOUS
10
0.0314961
20
0.0642717
11
0.212598
21
0.0642717
0
LINE
8
BLACK
6
CONTINUOUS
10
0.212598
20
0.0642717
11
0.213294
21
0.0639834
0
LINE
8
BLACK
6
CONTINUOUS
10
0.213294
20
0.0639834
11
0.213583
21
0.0632874
0
LINE
8
BLACK
6
CONTINUOUS
10
0.213583
20
0.0632874
11
0.213583
21
-0.0351378
0
LINE
8
BLACK
6
CONTINUOUS
10
0.213583
20
-0.0351378
11
0.213294
21
-0.0358338
0
LINE
8
BLACK
6
CONTINUOUS
10
0.213294
20
-0.0358338
11
0.212598
21
-0.036122
0
LINE
8
BLACK
6
CONTINUOUS
10
0.212598
20
-0.036122
11
0.0314961
21
-0.036122
0
LINE
8
BLACK
6
CONTINUOUS
10
0.0314961
20
-0.036122
11
0.0308001
21
-0.0358338
0
LINE
8
BLACK
6
CONTINUOUS
10
0.0324803
20
0.0623031
11
0.0324803
21
-0.0341535
0
LINE
8
BLACK
6
CONTINUOUS
10
0.0324803
20
-0.0341535
11
0.211614
21
-0.0341535
0
LINE
8
BLACK
6
CONTINUOUS
10
0.211614
20
-0.0341535
11
0.211614
21
0.0623031
0
LINE
8
BLACK
6
CONTINUOUS
10
0.211614
20
0.0623031
11
0.0324803
21
0.0623031
0
LINE
8
BLACK
6
CONTINUOUS
10
0.383438
20
0.0085522
11
0.38315
21
0.00924819
0
LINE
8
BLACK
6
CONTINUOUS
10
0.38315
20
0.00924819
11
0.38315
21
0.349799
0
LINE
8
BLACK
6
CONTINUOUS
10
0.38315
20
0.349799
11
0.383438
21
0.350495
0
LINE
8
BLACK
6
CONTINUOUS
10
0.383438
20
0.350495
11
0.384134
21
0.350784
0
LINE
8
BLACK
6
CONTINUOUS
10
0.384134
20
0.350784
11
0.870354
21
0.350784
0
LINE
8
BLACK
6
CONTINUOUS
10
0.870354
20
0.350784
11
0.87105
21
0.350495
0
LINE
8
BLACK
6
CONTINUOUS
10
0.87105
20
0.350495
11
0.871339
21
0.349799
0
LINE
8
BLACK
6
CONTINUOUS
10
0.871339
20
0.349799
11
0.871339
21
0.00924819
0
LINE
8
BLACK
6
CONTINUOUS
10
0.871339
20
0.00924819
11
0.87105
21
0.0085522
0
LINE
8
BLACK
6
CONTINUOUS
10
0.87105
20
0.0085522
11
0.870354
21
0.00826394
0
LINE
8
BLACK
6
CONTINUOUS
10
0.870354
20
0.00826394
11
0.384134
21
0.00826394
0
LINE
8
BLACK
6
CONTINUOUS
10
0.384134
20
0.00826394
11
0.383438
21
0.0085522
0
LINE
8
BLACK
6
CONTINUOUS
10
0.385118
20
0.348815
11
0.385118
21
0.0102324
0
LINE
8
BLACK
6
CONTINUOUS
10
0.385118
20
0.0102324
11
0.86937
21
0.0102324
0
LINE
8
BLACK
6
CONTINUOUS
10
0.86937
20
0.0102324
11
0.86937
21
0.348815
0
LINE
8
BLACK
6
CONTINUOUS
10
0.86937
20
0.348815
11
0.385118
21
0.348815
0
LINE
8
BLACK
6
CONTINUOUS
10
-0.384003
20
0.0649733
11
-0.384291
21
0.0656693
0
LINE
8
BLACK
6
CONTINUOUS
10
-0.384291
20
0.0656693
11
-0.384291
21
0.274331
0
LINE
8
BLACK
6
CONTINUOUS
10
-0.384291
20
0.274331
11
-0.384003
21
0.275027
0
LINE
8
BLACK
6
CONTINUOUS
10
-0.384003
20
0.275027
11
-0.383307
21
0.275315
0
LINE
8
BLACK
6
CONTINUOUS
10
-0.383307
20
0.275315
11
-0.296693
21
0.275315
0
LINE
8
BLACK
6
CONTINUOUS
10
-0.296693
20
0.275315
11
-0.295997
21
0.275027
0
LINE
8
BLACK
6
CONTINUOUS
10
-0.295997
20
0.275027
11
-0.295709
21
0.274331
0
LINE
8
BLACK
6
CONTINUOUS
10
-0.295709
20
0.274331
11
-0.295709
21
0.0656693
0
LINE
8
BLACK
6
CONTINUOUS
10
-0.295709
20
0.0656693
11
-0.295997
21
0.0649733
0
LINE
8
BLACK
6
CONTINUOUS
10
-0.295997
20
0.0649733
11
-0.296693
21
0.064685
0
LINE
8
BLACK
6
CONTINUOUS
10
-0.296693
20
0.064685
11
-0.383307
21
0.064685
0
LINE
8
BLACK
6
CONTINUOUS
10
-0.383307
20
0.064685
11
-0.384003
21
0.0649733
0
LINE
8
BLACK
6
CONTINUOUS
10
-0.382323
20
0.273346
11
-0.382323
21
0.0666535
0
LINE
8
BLACK
6
CONTINUOUS
10
-0.382323
20
0.0666535
11
-0.297677
21
0.0666535
0
LINE
8
BLACK
6
CONTINUOUS
10
-0.297677
20
0.0666535
11
-0.297677
21
0.273346
0
LINE
8
BLACK
6
CONTINUOUS
10
-0.297677
20
0.273346
11
-0.382323
21
0.273346
0
LINE
8
BLACK
6
CONTINUOUS
10
-0.64668
20
0.193592
11
-0.646969
21
0.194288
0
LINE
8
BLACK
6
CONTINUOUS
10
-0.646969
20
0.194288
11
-0.646969
21
0.565941
0
LINE
8
BLACK
6
CONTINUOUS
10
-0.646969
20
0.565941
11
-0.64668
21
0.566637
0
LINE
8
BLACK
6
CONTINUOUS
10
-0.64668
20
0.566637
11
-0.645984
21
0.566925
0
LINE
8
BLACK
6
CONTINUOUS
10
-0.645984
20
0.566925
11
-0.394016
21
0.566925
0
LINE
8
BLACK
6
CONTINUOUS
10
-0.394016
20
0.566925
11
-0.39332
21
0.566637
0
LINE
8
BLACK
6
CONTINUOUS
10
-0.39332
20
0.566637
11
-0.393031
21
0.565941
0
LINE
8
BLACK
6
CONTINUOUS
10
-0.393031
20
0.565941
11
-0.393031
21
0.194288
0
LINE
8
BLACK
6
CONTINUOUS
10
-0.393031
20
0.194288
11
-0.39332
21
0.193592
0
LINE
8
BLACK
6
CONTINUOUS
10
-0.39332
20
0.193592
11
-0.394016
21
0.193303
0
LINE
8
BLACK
6
CONTINUOUS
10
-0.394016
20
0.193303
11
-0.645984
21
0.193303
0
LINE
8
BLACK
6
CONTINUOUS
10
-0.645984
20
0.193303
11
-0.64668
21
0.193592
0
LINE
8
BLACK
6
CONTINUOUS
10
-0.645
20
0.564957
11
-0.645
21
0.195272
0
LINE
8
BLACK
6
CONTINUOUS
10
-0.645
20
0.195272
11
-0.395
21
0.195272
0
LINE
8
BLACK
6
CONTINUOUS
10
-0.395
20
0.195272
11
-0.395
21
0.564957
0
LINE
8
BLACK
6
CONTINUOUS
10
-0.395
20
0.564957
11
-0.645
21
0.564957
0
LINE
8
BLACK
6
CONTINUOUS
10
-0.00295976
20
0.270564
11
-0.00324803
21
0.27126
0
LINE
8
BLACK
6
CONTINUOUS
10
-0.00324803
20
0.27126
11
-0.00324803
21
0.32874
0
LINE
8
BLACK
6
CONTINUOUS
10
-0.00324803
20
0.32874
11
-0.00295976
21
0.329436
0
LINE
8
BLACK
6
CONTINUOUS
10
-0.00295976
20
0.329436
11
-0.00226378
21
0.329724
0
LINE
8
BLACK
6
CONTINUOUS
10
-0.00226378
20
0.329724
11
0.114272
21
0.329724
0
LINE
8
BLACK
6
CONTINUOUS
10
0.114272
20
0.329724
11
0.114968
21
0.329436
0
LINE
8
BLACK
6
CONTINUOUS
10
0.114968
20
0.329436
11
0.115256
21
0.32874
0
LINE
8
BLACK
6
CONTINUOUS
10
0.115256
20
0.32874
11
0.115256
21
0.27126
0
LINE
8
BLACK
6
CONTINUOUS
10
0.115256
20
0.27126
11
0.114968
21
0.270564
0
LINE
8
BLACK
6
CONTINUOUS
10
0.114968
20
0.270564
11
0.114272
21
0.270276
0
LINE
8
BLACK
6
CONTINUOUS
10
0.114272
20
0.270276
11
-0.00226378
21
0.270276
0
LINE
8
BLACK
6
CONTINUOUS
10
-0.00226378
20
0.270276
11
-0.00295976
21
0.270564
0
LINE
8
BLACK
6
CONTINUOUS
10
-0.00127953
20
0.327756
11
-0.00127953
21
0.272244
0
LINE
8
BLACK
6
CONTINUOUS
10
-0.00127953
20
0.272244
11
0.113287
21
0.272244
0
LINE
8
BLACK
6
CONTINUOUS
10
0.113287
20
0.272244
11
0.113287
21
0.327756
0
LINE
8
BLACK
6
CONTINUOUS
10
0.113287
20
0.327756
11
-0.00127953
21
0.327756
0
LINE
8
BLACK
6
CONTINUOUS
10
-0.229436
20
0.316036
11
-0.229724
21
0.316732
0
LINE
8
BLACK
6
CONTINUOUS
10
-0.229724
20
0.316732
11
-0.229724
21
0.433268
0
LINE
8
BLACK
6
CONTINUOUS
10
-0.229724
20
0.433268
11
-0.229436
21
0.433964
0
LINE
8
BLACK
6
CONTINUOUS
10
-0.229436
20
0.433964
11
-0.22874
21
0.434252
0
LINE
8
BLACK
6
CONTINUOUS
10
-0.22874
20
0.434252
11
-0.17126
21
0.434252
0
LINE
8
BLACK
6
CONTINUOUS
10
-0.17126
20
0.434252
11
-0.170564
21
0.433964
0
LINE
8
BLACK
6
CONTINUOUS
10
-0.170564
20
0.433964
11
-0.170276
21
0.433268
0
LINE
8
BLACK
6
CONTINUOUS
10
-0.170276
20
0.433268
11
-0.170276
21
0.316732
0
LINE
8
BLACK
6
CONTINUOUS
10
-0.170276
20
0.316732
11
-0.170564
21
0.316036
0
LINE
8
BLACK
6
CONTINUOUS
10
-0.170564
20
0.316036
11
-0.17126
21
0.315748
0
LINE
8
BLACK
6
CONTINUOUS
10
-0.17126
20
0.315748
11
-0.22874
21
0.315748
0
LINE
8
BLACK
6
CONTINUOUS
10
-0.22874
20
0.315748
11
-0.229436
21
0.316036
0
LINE
8
BLACK
6
CONTINUOUS
10
-0.227756
20
0.432283
11
-0.227756
21
0.317717
0
LINE
8
BLACK
6
CONTINUOUS
10
-0.227756
20
0.317717
11
-0.172244
21
0.317717
0
LINE
8
BLACK
6
CONTINUOUS
10
-0.172244
20
0.317717
11
-0.172244
21
0.432283
0
LINE
8
BLACK
6
CONTINUOUS
10
-0.172244
20
0.432283
11
-0.227756
21
0.432283
0
LINE
8
BLACK
6
CONTINUOUS
10
-0.159436
20
0.316036
11
-0.159724
21
0.316732
0
LINE
8
BLACK
6
CONTINUOUS
10
-0.159724
20
0.316732
11
-0.159724
21
0.433268
0
LINE
8
BLACK
6
CONTINUOUS
10
-0.159724
20
0.433268
11
-0.159436
21
0.433964
0
LINE
8
BLACK
6
CONTINUOUS
10
-0.159436
20
0.433964
11
-0.15874
21
0.434252
0
LINE
8
BLACK
6
CONTINUOUS
10
-0.15874
20
0.434252
11
-0.10126
21
0.434252
0
LINE
8
BLACK
6
CONTINUOUS
10
-0.10126
20
0.434252
11
-0.100564
21
0.433964
0
LINE
8
BLACK
6
CONTINUOUS
10
-0.100564
20
0.433964
11
-0.100276
21
0.433268
0
LINE
8
BLACK
6
CONTINUOUS
10
-0.100276
20
0.433268
11
-0.100276
21
0.316732
0
LINE
8
BLACK
6
CONTINUOUS
10
-0.100276
20
0.316732
11
-0.100564
21
0.316036
0
LINE
8
BLACK
6
CONTINUOUS
10
-0.100564
20
0.316036
11
-0.10126
21
0.315748
0
LINE
8
BLACK
6
CONTINUOUS
10
-0.10126
20
0.315748
11
-0.15874
21
0.315748
0
LINE
8
BLACK
6
CONTINUOUS
10
-0.15874
20
0.315748
11
-0.159436
21
0.316036
0
LINE
8
BLACK
6
CONTINUOUS
10
-0.157756
20
0.432283
11
-0.157756
21
0.317717
0
LINE
8
BLACK
6
CONTINUOUS
10
-0.157756
20
0.317717
11
-0.102244
21
0.317717
0
LINE
8
BLACK
6
CONTINUOUS
10
-0.102244
20
0.317717
11
-0.102244
21
0.432283
0
LINE
8
BLACK
6
CONTINUOUS
10
-0.102244
20
0.432283
11
-0.157756
21
0.432283
0
LINE
8
BLACK
6
CONTINUOUS
10
-0.333098
20
0.345662
11
-0.333386
21
0.346358
0
LINE
8
BLACK
6
CONTINUOUS
10
-0.333386
20
0.346358
11
-0.333386
21
0.478642
0
LINE
8
BLACK
6
CONTINUOUS
10
-0.333386
20
0.478642
11
-0.333098
21
0.479338
0
LINE
8
BLACK
6
CONTINUOUS
10
-0.333098
20
0.479338
11
-0.332402
21
0.479626
0
LINE
8
BLACK
6
CONTINUOUS
10
-0.332402
20
0.479626
11
-0.257598
21
0.479626
0
LINE
8
BLACK
6
CONTINUOUS
10
-0.257598
20
0.479626
11
-0.256902
21
0.479338
0
LINE
8
BLACK
6
CONTINUOUS
10
-0.256902
20
0.479338
11
-0.256614
21
0.478642
0
LINE
8
BLACK
6
CONTINUOUS
10
-0.256614
20
0.478642
11
-0.256614
21
0.346358
0
LINE
8
BLACK
6
CONTINUOUS
10
-0.256614
20
0.346358
11
-0.256902
21
0.345662
0
LINE
8
BLACK
6
CONTINUOUS
10
-0.256902
20
0.345662
11
-0.257598
21
0.345374
0
LINE
8
BLACK
6
CONTINUOUS
10
-0.257598
20
0.345374
11
-0.332402
21
0.345374
0
LINE
8
BLACK
6
CONTINUOUS
10
-0.332402
20
0.345374
11
-0.333098
21
0.345662
0
LINE
8
BLACK
6
CONTINUOUS
10
-0.331417
20
0.477657
11
-0.331417
21
0.347343
0
LINE
8
BLACK
6
CONTINUOUS
10
-0.331417
20
0.347343
11
-0.258583
21
0.347343
0
LINE
8
BLACK
6
CONTINUOUS
10
-0.258583
20
0.347343
11
-0.258583
21
0.477657
0
LINE
8
BLACK
6
CONTINUOUS
10
-0.258583
20
0.477657
11
-0.331417
21
0.477657
0
LINE
8
BLACK
6
CONTINUOUS
10
0.458753
20
0.369383
11
0.458465
21
0.370079
0
LINE
8
BLACK
6
CONTINUOUS
10
0.458465
20
0.370079
11
0.458465
21
0.503937
0
LINE
8
BLACK
6
CONTINUOUS
10
0.458465
20
0.503937
11
0.458753
21
0.504633
0
LINE
8
BLACK
6
CONTINUOUS
10
0.458753
20
0.504633
11
0.459449
21
0.504921
0
LINE
8
BLACK
6
CONTINUOUS
10
0.459449
20
0.504921
11
0.536614
21
0.504921
0
LINE
8
BLACK
6
CONTINUOUS
10
0.536614
20
0.504921
11
0.53731
21
0.504633
0
LINE
8
BLACK
6
CONTINUOUS
10
0.53731
20
0.504633
11
0.537598
21
0.503937
0
LINE
8
BLACK
6
CONTINUOUS
10
0.537598
20
0.503937
11
0.537598
21
0.370079
0
LINE
8
BLACK
6
CONTINUOUS
10
0.537598
20
0.370079
11
0.53731
21
0.369383
0
LINE
8
BLACK
6
CONTINUOUS
10
0.53731
20
0.369383
11
0.536614
21
0.369094
0
LINE
8
BLACK
6
CONTINUOUS
10
0.536614
20
0.369094
11
0.459449
21
0.369094
0
LINE
8
BLACK
6
CONTINUOUS
10
0.459449
20
0.369094
11
0.458753
21
0.369383
0
LINE
8
BLACK
6
CONTINUOUS
10
0.460433
20
0.502953
11
0.460433
21
0.371063
0
LINE
8
BLACK
6
CONTINUOUS
10
0.460433
20
0.371063
11
0.53563
21
0.371063
0
LINE
8
BLACK
6
CONTINUOUS
10
0.53563
20
0.371063
11
0.53563
21
0.502953
0
LINE
8
BLACK
6
CONTINUOUS
10
0.53563
20
0.502953
11
0.460433
21
0.502953
0
LINE
8
BLACK
6
CONTINUOUS
10
0.37332
20
0.37017
11
0.373031
21
0.370866
0
LINE
8
BLACK
6
CONTINUOUS
10
0.373031
20
0.370866
11
0.373031
21
0.50315
0
LINE
8
BLACK
6
CONTINUOUS
10
0.373031
20
0.50315
11
0.37332
21
0.503846
0
LINE
8
BLACK
6
CONTINUOUS
10
0.37332
20
0.503846
11
0.374016
21
0.504134
0
LINE
8
BLACK
6
CONTINUOUS
10
0.374016
20
0.504134
11
0.448819
21
0.504134
0
LINE
8
BLACK
6
CONTINUOUS
10
0.448819
20
0.504134
11
0.449515
21
0.503846
0
LINE
8
BLACK
6
CONTINUOUS
10
0.449515
20
0.503846
11
0.449803
21
0.50315
0
LINE
8
BLACK
6
CONTINUOUS
10
0.449803
20
0.50315
11
0.449803
21
0.370866
0
LINE
8
BLACK
6
CONTINUOUS
10
0.449803
20
0.370866
11
0.449515
21
0.37017
0
LINE
8
BLACK
6
CONTINUOUS
10
0.449515
20
0.37017
11
0.448819
21
0.369882
0
LINE
8
BLACK
6
CONTINUOUS
10
0.448819
20
0.369882
11
0.374016
21
0.369882
0
LINE
8
BLACK
6
CONTINUOUS
10
0.374016
20
0.369882
11
0.37332
21
0.37017
0
LINE
8
BLACK
6
CONTINUOUS
10
0.375
20
0.502165
11
0.375
21
0.37185
0
LINE
8
BLACK
6
CONTINUOUS
10
0.375
20
0.37185
11
0.447835
21
0.37185
0
LINE
8
BLACK
6
CONTINUOUS
10
0.447835
20
0.37185
11
0.447835
21
0.502165
0
LINE
8
BLACK
6
CONTINUOUS
10
0.447835
20
0.502165
11
0.375
21
0.502165
0
LINE
8
BLACK
6
CONTINUOUS
10
0.546548
20
0.37017
11
0.54626
21
0.370866
0
LINE
8
BLACK
6
CONTINUOUS
10
0.54626
20
0.370866
11
0.54626
21
0.50315
0
LINE
8
BLACK
6
CONTINUOUS
10
0.54626
20
0.50315
11
0.546548
21
0.503846
0
LINE
8
BLACK
6
CONTINUOUS
10
0.546548
20
0.503846
11
0.547244
21
0.504134
0
LINE
8
BLACK
6
CONTINUOUS
10
0.547244
20
0.504134
11
0.622047
21
0.504134
0
LINE
8
BLACK
6
CONTINUOUS
10
0.622047
20
0.504134
11
0.622743
21
0.503846
0
LINE
8
BLACK
6
CONTINUOUS
10
0.622743
20
0.503846
11
0.623031
21
0.50315
0
LINE
8
BLACK
6
CONTINUOUS
10
0.623031
20
0.50315
11
0.623031
21
0.370866
0
LINE
8
BLACK
6
CONTINUOUS
10
0.623031
20
0.370866
11
0.622743
21
0.37017
0
LINE
8
BLACK
6
CONTINUOUS
10
0.622743
20
0.37017
11
0.622047
21
0.369882
0
LINE
8
BLACK
6
CONTINUOUS
10
0.622047
20
0.369882
11
0.547244
21
0.369882
0
LINE
8
BLACK
6
CONTINUOUS
10
0.547244
20
0.369882
11
0.546548
21
0.37017
0
LINE
8
BLACK
6
CONTINUOUS
10
0.548228
20
0.502165
11
0.548228
21
0.37185
0
LINE
8
BLACK
6
CONTINUOUS
10
0.548228
20
0.37185
11
0.621063
21
0.37185
0
LINE
8
BLACK
6
CONTINUOUS
10
0.621063
20
0.37185
11
0.621063
21
0.502165
0
LINE
8
BLACK
6
CONTINUOUS
10
0.621063
20
0.502165
11
0.548228
21
0.502165
0
LINE
8
BLACK
6
CONTINUOUS
10
-0.0688062
20
0.378438
11
-0.0690945
21
0.379134
0
LINE
8
BLACK
6
CONTINUOUS
10
-0.0690945
20
0.379134
11
-0.0690945
21
0.520866
0
LINE
8
BLACK
6
CONTINUOUS
10
-0.0690945
20
0.520866
11
-0.0688062
21
0.521562
0
LINE
8
BLACK
6
CONTINUOUS
10
-0.0688062
20
0.521562
11
-0.0681102
21
0.52185
0
LINE
8
BLACK
6
CONTINUOUS
10
-0.0681102
20
0.52185
11
0.0814961
21
0.52185
0
LINE
8
BLACK
6
CONTINUOUS
10
0.0814961
20
0.52185
11
0.082192
21
0.521562
0
LINE
8
BLACK
6
CONTINUOUS
10
0.082192
20
0.521562
11
0.0824803
21
0.520866
0
LINE
8
BLACK
6
CONTINUOUS
10
0.0824803
20
0.520866
11
0.0824803
21
0.379134
0
LINE
8
BLACK
6
CONTINUOUS
10
0.0824803
20
0.379134
11
0.082192
21
0.378438
0
LINE
8
BLACK
6
CONTINUOUS
10
0.082192
20
0.378438
11
0.0814961
21
0.37815
0
LINE
8
BLACK
6
CONTINUOUS
10
0.0814961
20
0.37815
11
-0.0681102
21
0.37815
0
LINE
8
BLACK
6
CONTINUOUS
10
-0.0681102
20
0.37815
11
-0.0688062
21
0.378438
0
LINE
8
BLACK
6
CONTINUOUS
10
-0.067126
20
0.519882
11
-0.067126
21
0.380118
0
LINE
8
BLACK
6
CONTINUOUS
10
-0.067126
20
0.380118
11
0.0805118
21
0.380118
0
LINE
8
BLACK
6
CONTINUOUS
10
0.0805118
20
0.380118
11
0.0805118
21
0.519882
0
LINE
8
BLACK
6
CONTINUOUS
10
0.0805118
20
0.519882
11
-0.067126
21
0.519882
0
LINE
8
BLACK
6
CONTINUOUS
10
0.178753
20
0.380091
11
0.178465
21
0.380787
0
LINE
8
BLACK
6
CONTINUOUS
10
0.178465
20
0.380787
11
0.178465
21
0.479213
0
LINE
8
BLACK
6
CONTINUOUS
10
0.178465
20
0.479213
11
0.178753
21
0.479909
0
LINE
8
BLACK
6
CONTINUOUS
10
0.178753
20
0.479909
11
0.179449
21
0.480197
0
LINE
8
BLACK
6
CONTINUOUS
10
0.179449
20
0.480197
11
0.360551
21
0.480197
0
LINE
8
BLACK
6
CONTINUOUS
10
0.360551
20
0.480197
11
0.361247
21
0.479909
0
LINE
8
BLACK
6
CONTINUOUS
10
0.361247
20
0.479909
11
0.361535
21
0.479213
0
LINE
8
BLACK
6
CONTINUOUS
10
0.361535
20
0.479213
11
0.361535
21
0.380787
0
LINE
8
BLACK
6
CONTINUOUS
10
0.361535
20
0.380787
11
0.361247
21
0.380091
0
LINE
8
BLACK
6
CONTINUOUS
10
0.361247
20
0.380091
11
0.360551
21
0.379803
0
LINE
8
BLACK
6
CONTINUOUS
10
0.360551
20
0.379803
11
0.179449
21
0.379803
0
LINE
8
BLACK
6
CONTINUOUS
10
0.179449
20
0.379803
11
0.178753
21
0.380091
0
LINE
8
BLACK
6
CONTINUOUS
10
0.180433
20
0.478228
11
0.180433
21
0.381772
0
LINE
8
BLACK
6
CONTINUOUS
10
0.180433
20
0.381772
11
0.359567
21
0.381772
0
LINE
8
BLACK
6
CONTINUOUS
10
0.359567
20
0.381772
11
0.359567
21
0.478228
0
LINE
8
BLACK
6
CONTINUOUS
10
0.359567
20
0.478228
11
0.180433
21
0.478228
0
LINE
8
BLACK
6
CONTINUOUS
10
0.110564
20
0.385032
11
0.110276
21
0.385728
0
LINE
8
BLACK
6
CONTINUOUS
10
0.110276
20
0.385728
11
0.110276
21
0.502264
0
LINE
8
BLACK
6
CONTINUOUS
10
0.110276
20
0.502264
11
0.110564
21
0.50296
0
LINE
8
BLACK
6
CONTINUOUS
10
0.110564
20
0.50296
11
0.11126
21
0.503248
0
LINE
8
BLACK
6
CONTINUOUS
10
0.11126
20
0.503248
11
0.16874
21
0.503248
0
LINE
8
BLACK
6
CONTINUOUS
10
0.16874
20
0.503248
11
0.169436
21
0.50296
0
LINE
8
BLACK
6
CONTINUOUS
10
0.169436
20
0.50296
11
0.169724
21
0.502264
0
LINE
8
BLACK
6
CONTINUOUS
10
0.169724
20
0.502264
11
0.169724
21
0.385728
0
LINE
8
BLACK
6
CONTINUOUS
10
0.169724
20
0.385728
11
0.169436
21
0.385032
0
LINE
8
BLACK
6
CONTINUOUS
10
0.169436
20
0.385032
11
0.16874
21
0.384744
0
LINE
8
BLACK
6
CONTINUOUS
10
0.16874
20
0.384744
11
0.11126
21
0.384744
0
LINE
8
BLACK
6
CONTINUOUS
10
0.11126
20
0.384744
11
0.110564
21
0.385032
0
LINE
8
BLACK
6
CONTINUOUS
10
0.112244
20
0.50128
11
0.112244
21
0.386713
0
LINE
8
BLACK
6
CONTINUOUS
10
0.112244
20
0.386713
11
0.167756
21
0.386713
0
LINE
8
BLACK
6
CONTINUOUS
10
0.167756
20
0.386713
11
0.167756
21
0.50128
0
LINE
8
BLACK
6
CONTINUOUS
10
0.167756
20
0.50128
11
0.112244
21
0.50128
0
LINE
8
BLACK
6
CONTINUOUS
10
-0.214968
20
0.470564
11
-0.215256
21
0.47126
0
LINE
8
BLACK
6
CONTINUOUS
10
-0.215256
20
0.47126
11
-0.215256
21
0.52874
0
LINE
8
BLACK
6
CONTINUOUS
10
-0.215256
20
0.52874
11
-0.214968
21
0.529436
0
LINE
8
BLACK
6
CONTINUOUS
10
-0.214968
20
0.529436
11
-0.214272
21
0.529724
0
LINE
8
BLACK
6
CONTINUOUS
10
-0.214272
20
0.529724
11
-0.0977362
21
0.529724
0
LINE
8
BLACK
6
CONTINUOUS
10
-0.0977362
20
0.529724
11
-0.0970402
21
0.529436
0
LINE
8
BLACK
6
CONTINUOUS
10
-0.0970402
20
0.529436
11
-0.096752
21
0.52874
0
LINE
8
BLACK
6
CONTINUOUS
10
-0.096752
20
0.52874
11
-0.096752
21
0.47126
0
LINE
8
BLACK
6
CONTINUOUS
10
-0.096752
20
0.47126
11
-0.0970402
21
0.470564
0
LINE
8
BLACK
6
CONTINUOUS
10
-0.0970402
20
0.470564
11
-0.0977362
21
0.470276
0
LINE
8
BLACK
6
CONTINUOUS
10
-0.0977362
20
0.470276
11
-0.214272
21
0.470276
0
LINE
8
BLACK
6
CONTINUOUS
10
-0.214272
20
0.470276
11
-0.214968
21
0.470564
0
LINE
8
BLACK
6
CONTINUOUS
10
-0.213287
20
0.527756
11
-0.213287
21
0.472244
0
LINE
8
BLACK
6
CONTINUOUS
10
-0.213287
20
0.472244
11
-0.0987205
21
0.472244
0
LINE
8
BLACK
6
CONTINUOUS
10
-0.0987205
20
0.472244
11
-0.0987205
21
0.527756
0
LINE
8
BLACK
6
CONTINUOUS
10
-0.0987205
20
0.527756
11
-0.213287
21
0.527756
  0
ENDSEC
  0
EOF
