  0
SECTION
  2
HEADER
  9
$ANGBASE
  50
0.0
  9
$ANGDIR
  70
1
  9
$MEASUREMENT
  70
0
  0
ENDSEC
  0
SECTION
  2
TABLES
  0
TABLE
  2
LTYPE
  70
4
  0
LTYPE
  5
40F
  2
CONTINUOUS
  70
0
  3
Solid line
  72
65
  73
0
  40
0.0
  0
LTYPE
  5
410
  2
DASHDOT
 70
0
  3
Dash Dot ____ _ ____ _
 72
65
 73
4
 40
2.0
 49
1.25
 49
-0.25
 49
0.25
 49
-0.25
  0
LTYPE
  5
411
  2
DASHED
 70
0
  3
Dashed __ __ __ __ __
 72
65
 73
2
 40
0.75
 49
0.5
 49
-0.25
  0
LTYPE
  5
43B
  2
DOTTED
 70
0
  3
Dotted .  .  .  .
 72
65
 73
2
 40
0.2
 49
0.0
 49
-0.2
  0
ENDTAB
  0
TABLE
  2
STYLE
  70
4
  0
STYLE
  2
KICAD
  70
0
  40
0
  41
1
  42
1
  50
0
  71
0
  3
isocp.shx
  0
STYLE
  2
KICADB
  70
0
  40
0
  41
1
  42
1
  50
0
  71
0
  3
isocp.shx
  0
STYLE
  2
KICADI
  70
0
  40
0
  41
1
  42
1
  50
15
  71
0
  3
isocp.shx
  0
STYLE
  2
KICADBI
  70
0
  40
0
  41
1
  42
1
  50
15
  71
0
  3
isocp.shx
  0
ENDTAB
  0
TABLE
  2
LAYER
  70
1
  0
LAYER
  2
BLACK
  70
0
  62
7
  6
CONTINUOUS
  0
ENDTAB
  0
ENDSEC
  0
SECTION
  2
ENTITIES
0
LINE
8
BLACK
6
CONTINUOUS
10
-0.526076
20
-0.147603
11
-0.522883
21
-0.149737
0
LINE
8
BLACK
6
CONTINUOUS
10
-0.522883
20
-0.149737
11
-0.520749
21
-0.15293
0
LINE
8
BLACK
6
CONTINUOUS
10
-0.520749
20
-0.15293
11
-0.52
21
-0.156697
0
LINE
8
BLACK
6
CONTINUOUS
10
-0.52
20
-0.156697
11
-0.52
21
-0.176382
0
LINE
8
BLACK
6
CONTINUOUS
10
-0.52
20
-0.176382
11
-0.520749
21
-0.180148
0
LINE
8
BLACK
6
CONTINUOUS
10
-0.520749
20
-0.180148
11
-0.522883
21
-0.183341
0
LINE
8
BLACK
6
CONTINUOUS
10
-0.522883
20
-0.183341
11
-0.526076
21
-0.185475
0
LINE
8
BLACK
6
CONTINUOUS
10
-0.526076
20
-0.185475
11
-0.529843
21
-0.186224
0
LINE
8
BLACK
6
CONTINUOUS
10
-0.529843
20
-0.186224
11
-0.616457
21
-0.186224
0
LINE
8
BLACK
6
CONTINUOUS
10
-0.616457
20
-0.186224
11
-0.620223
21
-0.185475
0
LINE
8
BLACK
6
CONTINUOUS
10
-0.620223
20
-0.185475
11
-0.623416
21
-0.183341
0
LINE
8
BLACK
6
CONTINUOUS
10
-0.623416
20
-0.183341
11
-0.62555
21
-0.180148
0
LINE
8
BLACK
6
CONTINUOUS
10
-0.62555
20
-0.180148
11
-0.626299
21
-0.176382
0
LINE
8
BLACK
6
CONTINUOUS
10
-0.626299
20
-0.176382
11
-0.626299
21
-0.156697
0
LINE
8
BLACK
6
CONTINUOUS
10
-0.626299
20
-0.156697
11
-0.62555
21
-0.15293
0
LINE
8
BLACK
6
CONTINUOUS
10
-0.62555
20
-0.15293
11
-0.623416
21
-0.149737
0
LINE
8
BLACK
6
CONTINUOUS
10
-0.623416
20
-0.149737
11
-0.620223
21
-0.147603
0
LINE
8
BLACK
6
CONTINUOUS
10
-0.620223
20
-0.147603
11
-0.616457
21
-0.146854
0
LINE
8
BLACK
6
CONTINUOUS
10
-0.616457
20
-0.146854
11
-0.529843
21
-0.146854
0
LINE
8
BLACK
6
CONTINUOUS
10
-0.529843
20
-0.146854
11
-0.526076
21
-0.147603
0
LINE
8
BLACK
6
CONTINUOUS
10
-0.0465732
20
-0.0624802
11
-0.0424347
21
-0.0643097
0
LINE
8
BLACK
6
CONTINUOUS
10
-0.0424347
20
-0.0643097
11
-0.039112
21
-0.0673812
0
LINE
8
BLACK
6
CONTINUOUS
10
-0.039112
20
-0.0673812
11
-0.0369634
21
-0.0713633
0
LINE
8
BLACK
6
CONTINUOUS
10
-0.0369634
20
-0.0713633
11
-0.0362205
21
-0.0758268
0
LINE
8
BLACK
6
CONTINUOUS
10
-0.0362205
20
-0.0758268
11
-0.0362205
21
-0.15063
0
LINE
8
BLACK
6
CONTINUOUS
10
-0.0362205
20
-0.15063
11
-0.0364257
21
-0.152999
0
LINE
8
BLACK
6
CONTINUOUS
10
-0.0364257
20
-0.152999
11
-0.0379249
21
-0.157268
0
LINE
8
BLACK
6
CONTINUOUS
10
-0.0379249
20
-0.157268
11
-0.0407262
21
-0.160822
0
LINE
8
BLACK
6
CONTINUOUS
10
-0.0407262
20
-0.160822
11
-0.0445275
21
-0.163276
0
LINE
8
BLACK
6
CONTINUOUS
10
-0.0445275
20
-0.163276
11
-0.0489189
21
-0.164367
0
LINE
8
BLACK
6
CONTINUOUS
10
-0.0489189
20
-0.164367
11
-0.0534268
21
-0.163977
0
LINE
8
BLACK
6
CONTINUOUS
10
-0.0534268
20
-0.163977
11
-0.0575653
21
-0.162147
0
LINE
8
BLACK
6
CONTINUOUS
10
-0.0575653
20
-0.162147
11
-0.060888
21
-0.159075
0
LINE
8
BLACK
6
CONTINUOUS
10
-0.060888
20
-0.159075
11
-0.0630366
21
-0.155093
0
LINE
8
BLACK
6
CONTINUOUS
10
-0.0630366
20
-0.155093
11
-0.0637795
21
-0.15063
0
LINE
8
BLACK
6
CONTINUOUS
10
-0.0637795
20
-0.15063
11
-0.0637795
21
-0.0758268
0
LINE
8
BLACK
6
CONTINUOUS
10
-0.0637795
20
-0.0758268
11
-0.0635743
21
-0.0734577
0
LINE
8
BLACK
6
CONTINUOUS
10
-0.0635743
20
-0.0734577
11
-0.0620751
21
-0.0691884
0
LINE
8
BLACK
6
CONTINUOUS
10
-0.0620751
20
-0.0691884
11
-0.0592738
21
-0.065635
0
LINE
8
BLACK
6
CONTINUOUS
10
-0.0592738
20
-0.065635
11
-0.0554725
21
-0.0631806
0
LINE
8
BLACK
6
CONTINUOUS
10
-0.0554725
20
-0.0631806
11
-0.0510811
21
-0.0620897
0
LINE
8
BLACK
6
CONTINUOUS
10
-0.0510811
20
-0.0620897
11
-0.0465732
21
-0.0624802
0
LINE
8
BLACK
6
CONTINUOUS
10
-0.0965732
20
-0.0624802
11
-0.0924347
21
-0.0643097
0
LINE
8
BLACK
6
CONTINUOUS
10
-0.0924347
20
-0.0643097
11
-0.089112
21
-0.0673812
0
LINE
8
BLACK
6
CONTINUOUS
10
-0.089112
20
-0.0673812
11
-0.0869634
21
-0.0713633
0
LINE
8
BLACK
6
CONTINUOUS
10
-0.0869634
20
-0.0713633
11
-0.0862205
21
-0.0758268
0
LINE
8
BLACK
6
CONTINUOUS
10
-0.0862205
20
-0.0758268
11
-0.0862205
21
-0.15063
0
LINE
8
BLACK
6
CONTINUOUS
10
-0.0862205
20
-0.15063
11
-0.0864257
21
-0.152999
0
LINE
8
BLACK
6
CONTINUOUS
10
-0.0864257
20
-0.152999
11
-0.0879249
21
-0.157268
0
LINE
8
BLACK
6
CONTINUOUS
10
-0.0879249
20
-0.157268
11
-0.0907262
21
-0.160822
0
LINE
8
BLACK
6
CONTINUOUS
10
-0.0907262
20
-0.160822
11
-0.0945275
21
-0.163276
0
LINE
8
BLACK
6
CONTINUOUS
10
-0.0945275
20
-0.163276
11
-0.0989189
21
-0.164367
0
LINE
8
BLACK
6
CONTINUOUS
10
-0.0989189
20
-0.164367
11
-0.103427
21
-0.163977
0
LINE
8
BLACK
6
CONTINUOUS
10
-0.103427
20
-0.163977
11
-0.107565
21
-0.162147
0
LINE
8
BLACK
6
CONTINUOUS
10
-0.107565
20
-0.162147
11
-0.110888
21
-0.159075
0
LINE
8
BLACK
6
CONTINUOUS
10
-0.110888
20
-0.159075
11
-0.113037
21
-0.155093
0
LINE
8
BLACK
6
CONTINUOUS
10
-0.113037
20
-0.155093
11
-0.11378
21
-0.15063
0
LINE
8
BLACK
6
CONTINUOUS
10
-0.11378
20
-0.15063
11
-0.11378
21
-0.0758268
0
LINE
8
BLACK
6
CONTINUOUS
10
-0.11378
20
-0.0758268
11
-0.113574
21
-0.0734577
0
LINE
8
BLACK
6
CONTINUOUS
10
-0.113574
20
-0.0734577
11
-0.112075
21
-0.0691884
0
LINE
8
BLACK
6
CONTINUOUS
10
-0.112075
20
-0.0691884
11
-0.109274
21
-0.065635
0
LINE
8
BLACK
6
CONTINUOUS
10
-0.109274
20
-0.065635
11
-0.105473
21
-0.0631806
0
LINE
8
BLACK
6
CONTINUOUS
10
-0.105473
20
-0.0631806
11
-0.101081
21
-0.0620897
0
LINE
8
BLACK
6
CONTINUOUS
10
-0.101081
20
-0.0620897
11
-0.0965732
21
-0.0624802
0
LINE
8
BLACK
6
CONTINUOUS
10
-0.146573
20
-0.0624802
11
-0.142435
21
-0.0643097
0
LINE
8
BLACK
6
CONTINUOUS
10
-0.142435
20
-0.0643097
11
-0.139112
21
-0.0673812
0
LINE
8
BLACK
6
CONTINUOUS
10
-0.139112
20
-0.0673812
11
-0.136963
21
-0.0713633
0
LINE
8
BLACK
6
CONTINUOUS
10
-0.136963
20
-0.0713633
11
-0.13622
21
-0.0758268
0
LINE
8
BLACK
6
CONTINUOUS
10
-0.13622
20
-0.0758268
11
-0.13622
21
-0.15063
0
LINE
8
BLACK
6
CONTINUOUS
10
-0.13622
20
-0.15063
11
-0.136426
21
-0.152999
0
LINE
8
BLACK
6
CONTINUOUS
10
-0.136426
20
-0.152999
11
-0.137925
21
-0.157268
0
LINE
8
BLACK
6
CONTINUOUS
10
-0.137925
20
-0.157268
11
-0.140726
21
-0.160822
0
LINE
8
BLACK
6
CONTINUOUS
10
-0.140726
20
-0.160822
11
-0.144527
21
-0.163276
0
LINE
8
BLACK
6
CONTINUOUS
10
-0.144527
20
-0.163276
11
-0.148919
21
-0.164367
0
LINE
8
BLACK
6
CONTINUOUS
10
-0.148919
20
-0.164367
11
-0.153427
21
-0.163977
0
LINE
8
BLACK
6
CONTINUOUS
10
-0.153427
20
-0.163977
11
-0.157565
21
-0.162147
0
LINE
8
BLACK
6
CONTINUOUS
10
-0.157565
20
-0.162147
11
-0.160888
21
-0.159075
0
LINE
8
BLACK
6
CONTINUOUS
10
-0.160888
20
-0.159075
11
-0.163037
21
-0.155093
0
LINE
8
BLACK
6
CONTINUOUS
10
-0.163037
20
-0.155093
11
-0.16378
21
-0.15063
0
LINE
8
BLACK
6
CONTINUOUS
10
-0.16378
20
-0.15063
11
-0.16378
21
-0.0758268
0
LINE
8
BLACK
6
CONTINUOUS
10
-0.16378
20
-0.0758268
11
-0.163574
21
-0.0734577
0
LINE
8
BLACK
6
CONTINUOUS
10
-0.163574
20
-0.0734577
11
-0.162075
21
-0.0691884
0
LINE
8
BLACK
6
CONTINUOUS
10
-0.162075
20
-0.0691884
11
-0.159274
21
-0.065635
0
LINE
8
BLACK
6
CONTINUOUS
10
-0.159274
20
-0.065635
11
-0.155473
21
-0.0631806
0
LINE
8
BLACK
6
CONTINUOUS
10
-0.155473
20
-0.0631806
11
-0.151081
21
-0.0620897
0
LINE
8
BLACK
6
CONTINUOUS
10
-0.151081
20
-0.0620897
11
-0.146573
21
-0.0624802
0
LINE
8
BLACK
6
CONTINUOUS
10
-0.19677
20
-0.0624802
11
-0.192632
21
-0.0643097
0
LINE
8
BLACK
6
CONTINUOUS
10
-0.192632
20
-0.0643097
11
-0.189309
21
-0.0673812
0
LINE
8
BLACK
6
CONTINUOUS
10
-0.189309
20
-0.0673812
11
-0.18716
21
-0.0713633
0
LINE
8
BLACK
6
CONTINUOUS
10
-0.18716
20
-0.0713633
11
-0.186417
21
-0.0758268
0
LINE
8
BLACK
6
CONTINUOUS
10
-0.186417
20
-0.0758268
11
-0.186417
21
-0.15063
0
LINE
8
BLACK
6
CONTINUOUS
10
-0.186417
20
-0.15063
11
-0.186623
21
-0.152999
0
LINE
8
BLACK
6
CONTINUOUS
10
-0.186623
20
-0.152999
11
-0.188122
21
-0.157268
0
LINE
8
BLACK
6
CONTINUOUS
10
-0.188122
20
-0.157268
11
-0.190923
21
-0.160822
0
LINE
8
BLACK
6
CONTINUOUS
10
-0.190923
20
-0.160822
11
-0.194724
21
-0.163276
0
LINE
8
BLACK
6
CONTINUOUS
10
-0.194724
20
-0.163276
11
-0.199116
21
-0.164367
0
LINE
8
BLACK
6
CONTINUOUS
10
-0.199116
20
-0.164367
11
-0.203624
21
-0.163977
0
LINE
8
BLACK
6
CONTINUOUS
10
-0.203624
20
-0.163977
11
-0.207762
21
-0.162147
0
LINE
8
BLACK
6
CONTINUOUS
10
-0.207762
20
-0.162147
11
-0.211085
21
-0.159075
0
LINE
8
BLACK
6
CONTINUOUS
10
-0.211085
20
-0.159075
11
-0.213233
21
-0.155093
0
LINE
8
BLACK
6
CONTINUOUS
10
-0.213233
20
-0.155093
11
-0.213976
21
-0.15063
0
LINE
8
BLACK
6
CONTINUOUS
10
-0.213976
20
-0.15063
11
-0.213976
21
-0.0758268
0
LINE
8
BLACK
6
CONTINUOUS
10
-0.213976
20
-0.0758268
11
-0.213771
21
-0.0734577
0
LINE
8
BLACK
6
CONTINUOUS
10
-0.213771
20
-0.0734577
11
-0.212272
21
-0.0691884
0
LINE
8
BLACK
6
CONTINUOUS
10
-0.212272
20
-0.0691884
11
-0.209471
21
-0.065635
0
LINE
8
BLACK
6
CONTINUOUS
10
-0.209471
20
-0.065635
11
-0.205669
21
-0.0631806
0
LINE
8
BLACK
6
CONTINUOUS
10
-0.205669
20
-0.0631806
11
-0.201278
21
-0.0620897
0
LINE
8
BLACK
6
CONTINUOUS
10
-0.201278
20
-0.0620897
11
-0.19677
21
-0.0624802
0
LINE
8
BLACK
6
CONTINUOUS
10
0.103384
20
-0.123431
11
0.106178
21
-0.125298
0
LINE
8
BLACK
6
CONTINUOUS
10
0.106178
20
-0.125298
11
0.108045
21
-0.128092
0
LINE
8
BLACK
6
CONTINUOUS
10
0.108045
20
-0.128092
11
0.108701
21
-0.131388
0
LINE
8
BLACK
6
CONTINUOUS
10
0.108701
20
-0.131388
11
0.108701
21
-0.148612
0
LINE
8
BLACK
6
CONTINUOUS
10
0.108701
20
-0.148612
11
0.108045
21
-0.151908
0
LINE
8
BLACK
6
CONTINUOUS
10
0.108045
20
-0.151908
11
0.106178
21
-0.154702
0
LINE
8
BLACK
6
CONTINUOUS
10
0.106178
20
-0.154702
11
0.103384
21
-0.156569
0
LINE
8
BLACK
6
CONTINUOUS
10
0.103384
20
-0.156569
11
0.100089
21
-0.157224
0
LINE
8
BLACK
6
CONTINUOUS
10
0.100089
20
-0.157224
11
0.0799114
21
-0.157224
0
LINE
8
BLACK
6
CONTINUOUS
10
0.0799114
20
-0.157224
11
0.0766157
21
-0.156569
0
LINE
8
BLACK
6
CONTINUOUS
10
0.0766157
20
-0.156569
11
0.0738217
21
-0.154702
0
LINE
8
BLACK
6
CONTINUOUS
10
0.0738217
20
-0.154702
11
0.0719548
21
-0.151908
0
LINE
8
BLACK
6
CONTINUOUS
10
0.0719548
20
-0.151908
11
0.0712992
21
-0.148612
0
LINE
8
BLACK
6
CONTINUOUS
10
0.0712992
20
-0.148612
11
0.0712992
21
-0.131388
0
LINE
8
BLACK
6
CONTINUOUS
10
0.0712992
20
-0.131388
11
0.0719548
21
-0.128092
0
LINE
8
BLACK
6
CONTINUOUS
10
0.0719548
20
-0.128092
11
0.0738217
21
-0.125298
0
LINE
8
BLACK
6
CONTINUOUS
10
0.0738217
20
-0.125298
11
0.0766157
21
-0.123431
0
LINE
8
BLACK
6
CONTINUOUS
10
0.0766157
20
-0.123431
11
0.0799114
21
-0.122776
0
LINE
8
BLACK
6
CONTINUOUS
10
0.0799114
20
-0.122776
11
0.100089
21
-0.122776
0
LINE
8
BLACK
6
CONTINUOUS
10
0.100089
20
-0.122776
11
0.103384
21
-0.123431
0
LINE
8
BLACK
6
CONTINUOUS
10
0.229532
20
-0.0578404
11
0.236299
21
-0.0608533
0
LINE
8
BLACK
6
CONTINUOUS
10
0.236299
20
-0.0608533
11
0.242292
21
-0.0652073
0
LINE
8
BLACK
6
CONTINUOUS
10
0.242292
20
-0.0652073
11
0.247249
21
-0.0707122
0
LINE
8
BLACK
6
CONTINUOUS
10
0.247249
20
-0.0707122
11
0.250952
21
-0.0771273
0
LINE
8
BLACK
6
CONTINUOUS
10
0.250952
20
-0.0771273
11
0.253241
21
-0.0841722
0
LINE
8
BLACK
6
CONTINUOUS
10
0.253241
20
-0.0841722
11
0.254016
21
-0.0915392
0
LINE
8
BLACK
6
CONTINUOUS
10
0.254016
20
-0.0915392
11
0.254016
21
-0.115161
0
LINE
8
BLACK
6
CONTINUOUS
10
0.254016
20
-0.115161
11
0.253241
21
-0.122528
0
LINE
8
BLACK
6
CONTINUOUS
10
0.253241
20
-0.122528
11
0.250952
21
-0.129573
0
LINE
8
BLACK
6
CONTINUOUS
10
0.250952
20
-0.129573
11
0.247249
21
-0.135988
0
LINE
8
BLACK
6
CONTINUOUS
10
0.247249
20
-0.135988
11
0.242292
21
-0.141493
0
LINE
8
BLACK
6
CONTINUOUS
10
0.242292
20
-0.141493
11
0.236299
21
-0.145847
0
LINE
8
BLACK
6
CONTINUOUS
10
0.236299
20
-0.145847
11
0.229532
21
-0.14886
0
LINE
8
BLACK
6
CONTINUOUS
10
0.229532
20
-0.14886
11
0.222286
21
-0.1504
0
LINE
8
BLACK
6
CONTINUOUS
10
0.222286
20
-0.1504
11
0.214879
21
-0.1504
0
LINE
8
BLACK
6
CONTINUOUS
10
0.214879
20
-0.1504
11
0.207633
21
-0.14886
0
LINE
8
BLACK
6
CONTINUOUS
10
0.207633
20
-0.14886
11
0.200866
21
-0.145847
0
LINE
8
BLACK
6
CONTINUOUS
10
0.200866
20
-0.145847
11
0.194873
21
-0.141493
0
LINE
8
BLACK
6
CONTINUOUS
10
0.194873
20
-0.141493
11
0.189917
21
-0.135988
0
LINE
8
BLACK
6
CONTINUOUS
10
0.189917
20
-0.135988
11
0.186213
21
-0.129573
0
LINE
8
BLACK
6
CONTINUOUS
10
0.186213
20
-0.129573
11
0.183924
21
-0.122528
0
LINE
8
BLACK
6
CONTINUOUS
10
0.183924
20
-0.122528
11
0.18315
21
-0.115161
0
LINE
8
BLACK
6
CONTINUOUS
10
0.18315
20
-0.115161
11
0.18315
21
-0.0915392
0
LINE
8
BLACK
6
CONTINUOUS
10
0.18315
20
-0.0915392
11
0.183924
21
-0.0841722
0
LINE
8
BLACK
6
CONTINUOUS
10
0.183924
20
-0.0841722
11
0.186213
21
-0.0771273
0
LINE
8
BLACK
6
CONTINUOUS
10
0.186213
20
-0.0771273
11
0.189917
21
-0.0707122
0
LINE
8
BLACK
6
CONTINUOUS
10
0.189917
20
-0.0707122
11
0.194873
21
-0.0652073
0
LINE
8
BLACK
6
CONTINUOUS
10
0.194873
20
-0.0652073
11
0.200866
21
-0.0608533
0
LINE
8
BLACK
6
CONTINUOUS
10
0.200866
20
-0.0608533
11
0.207633
21
-0.0578404
0
LINE
8
BLACK
6
CONTINUOUS
10
0.207633
20
-0.0578404
11
0.214879
21
-0.0563002
0
LINE
8
BLACK
6
CONTINUOUS
10
0.214879
20
-0.0563002
11
0.222286
21
-0.0563002
0
LINE
8
BLACK
6
CONTINUOUS
10
0.222286
20
-0.0563002
11
0.229532
21
-0.0578404
0
LINE
8
BLACK
6
CONTINUOUS
10
0.403384
20
-0.107447
11
0.406178
21
-0.109314
0
LINE
8
BLACK
6
CONTINUOUS
10
0.406178
20
-0.109314
11
0.408045
21
-0.112108
0
LINE
8
BLACK
6
CONTINUOUS
10
0.408045
20
-0.112108
11
0.408701
21
-0.115404
0
LINE
8
BLACK
6
CONTINUOUS
10
0.408701
20
-0.115404
11
0.408701
21
-0.132628
0
LINE
8
BLACK
6
CONTINUOUS
10
0.408701
20
-0.132628
11
0.408045
21
-0.135924
0
LINE
8
BLACK
6
CONTINUOUS
10
0.408045
20
-0.135924
11
0.406178
21
-0.138718
0
LINE
8
BLACK
6
CONTINUOUS
10
0.406178
20
-0.138718
11
0.403384
21
-0.140585
0
LINE
8
BLACK
6
CONTINUOUS
10
0.403384
20
-0.140585
11
0.400089
21
-0.14124
0
LINE
8
BLACK
6
CONTINUOUS
10
0.400089
20
-0.14124
11
0.379911
21
-0.14124
0
LINE
8
BLACK
6
CONTINUOUS
10
0.379911
20
-0.14124
11
0.376616
21
-0.140585
0
LINE
8
BLACK
6
CONTINUOUS
10
0.376616
20
-0.140585
11
0.373822
21
-0.138718
0
LINE
8
BLACK
6
CONTINUOUS
10
0.373822
20
-0.138718
11
0.371955
21
-0.135924
0
LINE
8
BLACK
6
CONTINUOUS
10
0.371955
20
-0.135924
11
0.371299
21
-0.132628
0
LINE
8
BLACK
6
CONTINUOUS
10
0.371299
20
-0.132628
11
0.371299
21
-0.115404
0
LINE
8
BLACK
6
CONTINUOUS
10
0.371299
20
-0.115404
11
0.371955
21
-0.112108
0
LINE
8
BLACK
6
CONTINUOUS
10
0.371955
20
-0.112108
11
0.373822
21
-0.109314
0
LINE
8
BLACK
6
CONTINUOUS
10
0.373822
20
-0.109314
11
0.376616
21
-0.107447
0
LINE
8
BLACK
6
CONTINUOUS
10
0.376616
20
-0.107447
11
0.379911
21
-0.106791
0
LINE
8
BLACK
6
CONTINUOUS
10
0.379911
20
-0.106791
11
0.400089
21
-0.106791
0
LINE
8
BLACK
6
CONTINUOUS
10
0.400089
20
-0.106791
11
0.403384
21
-0.107447
0
LINE
8
BLACK
6
CONTINUOUS
10
0.492283
20
-0.140197
11
0.476535
21
-0.140197
0
LINE
8
BLACK
6
CONTINUOUS
10
0.476535
20
-0.140197
11
0.476535
21
-0.114606
0
LINE
8
BLACK
6
CONTINUOUS
10
0.476535
20
-0.114606
11
0.492283
21
-0.114606
0
LINE
8
BLACK
6
CONTINUOUS
10
0.492283
20
-0.114606
11
0.492283
21
-0.140197
0
LINE
8
BLACK
6
CONTINUOUS
10
0.543465
20
-0.140197
11
0.527717
21
-0.140197
0
LINE
8
BLACK
6
CONTINUOUS
10
0.527717
20
-0.140197
11
0.527717
21
-0.114606
0
LINE
8
BLACK
6
CONTINUOUS
10
0.527717
20
-0.114606
11
0.543465
21
-0.114606
0
LINE
8
BLACK
6
CONTINUOUS
10
0.543465
20
-0.114606
11
0.543465
21
-0.140197
0
LINE
8
BLACK
6
CONTINUOUS
10
0.171642
20
-0.0694708
11
0.174069
21
-0.0710924
0
LINE
8
BLACK
6
CONTINUOUS
10
0.174069
20
-0.0710924
11
0.17569
21
-0.0735191
0
LINE
8
BLACK
6
CONTINUOUS
10
0.17569
20
-0.0735191
11
0.17626
21
-0.0763817
0
LINE
8
BLACK
6
CONTINUOUS
10
0.17626
20
-0.0763817
11
0.17626
21
-0.130319
0
LINE
8
BLACK
6
CONTINUOUS
10
0.17626
20
-0.130319
11
0.17569
21
-0.133181
0
LINE
8
BLACK
6
CONTINUOUS
10
0.17569
20
-0.133181
11
0.174069
21
-0.135608
0
LINE
8
BLACK
6
CONTINUOUS
10
0.174069
20
-0.135608
11
0.171642
21
-0.13723
0
LINE
8
BLACK
6
CONTINUOUS
10
0.171642
20
-0.13723
11
0.16878
21
-0.137799
0
LINE
8
BLACK
6
CONTINUOUS
10
0.16878
20
-0.137799
11
0.146339
21
-0.137799
0
LINE
8
BLACK
6
CONTINUOUS
10
0.146339
20
-0.137799
11
0.143476
21
-0.13723
0
LINE
8
BLACK
6
CONTINUOUS
10
0.143476
20
-0.13723
11
0.141049
21
-0.135608
0
LINE
8
BLACK
6
CONTINUOUS
10
0.141049
20
-0.135608
11
0.139428
21
-0.133181
0
LINE
8
BLACK
6
CONTINUOUS
10
0.139428
20
-0.133181
11
0.138858
21
-0.130319
0
LINE
8
BLACK
6
CONTINUOUS
10
0.138858
20
-0.130319
11
0.138858
21
-0.0763817
0
LINE
8
BLACK
6
CONTINUOUS
10
0.138858
20
-0.0763817
11
0.139428
21
-0.0735191
0
LINE
8
BLACK
6
CONTINUOUS
10
0.139428
20
-0.0735191
11
0.141049
21
-0.0710924
0
LINE
8
BLACK
6
CONTINUOUS
10
0.141049
20
-0.0710924
11
0.143476
21
-0.0694708
0
LINE
8
BLACK
6
CONTINUOUS
10
0.143476
20
-0.0694708
11
0.146339
21
-0.0689014
0
LINE
8
BLACK
6
CONTINUOUS
10
0.146339
20
-0.0689014
11
0.16878
21
-0.0689014
0
LINE
8
BLACK
6
CONTINUOUS
10
0.16878
20
-0.0689014
11
0.171642
21
-0.0694708
0
LINE
8
BLACK
6
CONTINUOUS
10
0.293689
20
-0.0694708
11
0.296116
21
-0.0710924
0
LINE
8
BLACK
6
CONTINUOUS
10
0.296116
20
-0.0710924
11
0.297738
21
-0.0735191
0
LINE
8
BLACK
6
CONTINUOUS
10
0.297738
20
-0.0735191
11
0.298307
21
-0.0763817
0
LINE
8
BLACK
6
CONTINUOUS
10
0.298307
20
-0.0763817
11
0.298307
21
-0.130319
0
LINE
8
BLACK
6
CONTINUOUS
10
0.298307
20
-0.130319
11
0.297738
21
-0.133181
0
LINE
8
BLACK
6
CONTINUOUS
10
0.297738
20
-0.133181
11
0.296116
21
-0.135608
0
LINE
8
BLACK
6
CONTINUOUS
10
0.296116
20
-0.135608
11
0.293689
21
-0.13723
0
LINE
8
BLACK
6
CONTINUOUS
10
0.293689
20
-0.13723
11
0.290827
21
-0.137799
0
LINE
8
BLACK
6
CONTINUOUS
10
0.290827
20
-0.137799
11
0.268386
21
-0.137799
0
LINE
8
BLACK
6
CONTINUOUS
10
0.268386
20
-0.137799
11
0.265523
21
-0.13723
0
LINE
8
BLACK
6
CONTINUOUS
10
0.265523
20
-0.13723
11
0.263096
21
-0.135608
0
LINE
8
BLACK
6
CONTINUOUS
10
0.263096
20
-0.135608
11
0.261475
21
-0.133181
0
LINE
8
BLACK
6
CONTINUOUS
10
0.261475
20
-0.133181
11
0.260906
21
-0.130319
0
LINE
8
BLACK
6
CONTINUOUS
10
0.260906
20
-0.130319
11
0.260906
21
-0.0763817
0
LINE
8
BLACK
6
CONTINUOUS
10
0.260906
20
-0.0763817
11
0.261475
21
-0.0735191
0
LINE
8
BLACK
6
CONTINUOUS
10
0.261475
20
-0.0735191
11
0.263096
21
-0.0710924
0
LINE
8
BLACK
6
CONTINUOUS
10
0.263096
20
-0.0710924
11
0.265523
21
-0.0694708
0
LINE
8
BLACK
6
CONTINUOUS
10
0.265523
20
-0.0694708
11
0.268386
21
-0.0689014
0
LINE
8
BLACK
6
CONTINUOUS
10
0.268386
20
-0.0689014
11
0.290827
21
-0.0689014
0
LINE
8
BLACK
6
CONTINUOUS
10
0.290827
20
-0.0689014
11
0.293689
21
-0.0694708
0
LINE
8
BLACK
6
CONTINUOUS
10
-0.417346
20
-0.0823431
11
-0.41543
21
-0.0836232
0
LINE
8
BLACK
6
CONTINUOUS
10
-0.41543
20
-0.0836232
11
-0.41415
21
-0.0855391
0
LINE
8
BLACK
6
CONTINUOUS
10
-0.41415
20
-0.0855391
11
-0.413701
21
-0.0877991
0
LINE
8
BLACK
6
CONTINUOUS
10
-0.413701
20
-0.0877991
11
-0.413701
21
-0.0996101
0
LINE
8
BLACK
6
CONTINUOUS
10
-0.413701
20
-0.0996101
11
-0.41415
21
-0.10187
0
LINE
8
BLACK
6
CONTINUOUS
10
-0.41415
20
-0.10187
11
-0.41543
21
-0.103786
0
LINE
8
BLACK
6
CONTINUOUS
10
-0.41543
20
-0.103786
11
-0.417346
21
-0.105066
0
LINE
8
BLACK
6
CONTINUOUS
10
-0.417346
20
-0.105066
11
-0.419606
21
-0.105516
0
LINE
8
BLACK
6
CONTINUOUS
10
-0.419606
20
-0.105516
11
-0.474724
21
-0.105516
0
LINE
8
BLACK
6
CONTINUOUS
10
-0.474724
20
-0.105516
11
-0.476984
21
-0.105066
0
LINE
8
BLACK
6
CONTINUOUS
10
-0.476984
20
-0.105066
11
-0.4789
21
-0.103786
0
LINE
8
BLACK
6
CONTINUOUS
10
-0.4789
20
-0.103786
11
-0.48018
21
-0.10187
0
LINE
8
BLACK
6
CONTINUOUS
10
-0.48018
20
-0.10187
11
-0.48063
21
-0.0996101
0
LINE
8
BLACK
6
CONTINUOUS
10
-0.48063
20
-0.0996101
11
-0.48063
21
-0.0877991
0
LINE
8
BLACK
6
CONTINUOUS
10
-0.48063
20
-0.0877991
11
-0.48018
21
-0.0855391
0
LINE
8
BLACK
6
CONTINUOUS
10
-0.48018
20
-0.0855391
11
-0.4789
21
-0.0836232
0
LINE
8
BLACK
6
CONTINUOUS
10
-0.4789
20
-0.0836232
11
-0.476984
21
-0.0823431
0
LINE
8
BLACK
6
CONTINUOUS
10
-0.476984
20
-0.0823431
11
-0.474724
21
-0.0818935
0
LINE
8
BLACK
6
CONTINUOUS
10
-0.474724
20
-0.0818935
11
-0.419606
21
-0.0818935
0
LINE
8
BLACK
6
CONTINUOUS
10
-0.419606
20
-0.0818935
11
-0.417346
21
-0.0823431
0
LINE
8
BLACK
6
CONTINUOUS
10
0.103384
20
-0.0614233
11
0.106178
21
-0.0632902
0
LINE
8
BLACK
6
CONTINUOUS
10
0.106178
20
-0.0632902
11
0.108045
21
-0.0660842
0
LINE
8
BLACK
6
CONTINUOUS
10
0.108045
20
-0.0660842
11
0.108701
21
-0.0693799
0
LINE
8
BLACK
6
CONTINUOUS
10
0.108701
20
-0.0693799
11
0.108701
21
-0.0866043
0
LINE
8
BLACK
6
CONTINUOUS
10
0.108701
20
-0.0866043
11
0.108045
21
-0.0899001
0
LINE
8
BLACK
6
CONTINUOUS
10
0.108045
20
-0.0899001
11
0.106178
21
-0.0926941
0
LINE
8
BLACK
6
CONTINUOUS
10
0.106178
20
-0.0926941
11
0.103384
21
-0.094561
0
LINE
8
BLACK
6
CONTINUOUS
10
0.103384
20
-0.094561
11
0.100089
21
-0.0952165
0
LINE
8
BLACK
6
CONTINUOUS
10
0.100089
20
-0.0952165
11
0.0799114
21
-0.0952165
0
LINE
8
BLACK
6
CONTINUOUS
10
0.0799114
20
-0.0952165
11
0.0766157
21
-0.094561
0
LINE
8
BLACK
6
CONTINUOUS
10
0.0766157
20
-0.094561
11
0.0738217
21
-0.0926941
0
LINE
8
BLACK
6
CONTINUOUS
10
0.0738217
20
-0.0926941
11
0.0719548
21
-0.0899001
0
LINE
8
BLACK
6
CONTINUOUS
10
0.0719548
20
-0.0899001
11
0.0712992
21
-0.0866043
0
LINE
8
BLACK
6
CONTINUOUS
10
0.0712992
20
-0.0866043
11
0.0712992
21
-0.0693799
0
LINE
8
BLACK
6
CONTINUOUS
10
0.0712992
20
-0.0693799
11
0.0719548
21
-0.0660842
0
LINE
8
BLACK
6
CONTINUOUS
10
0.0719548
20
-0.0660842
11
0.0738217
21
-0.0632902
0
LINE
8
BLACK
6
CONTINUOUS
10
0.0738217
20
-0.0632902
11
0.0766157
21
-0.0614233
0
LINE
8
BLACK
6
CONTINUOUS
10
0.0766157
20
-0.0614233
11
0.0799114
21
-0.0607677
0
LINE
8
BLACK
6
CONTINUOUS
10
0.0799114
20
-0.0607677
11
0.100089
21
-0.0607677
0
LINE
8
BLACK
6
CONTINUOUS
10
0.100089
20
-0.0607677
11
0.103384
21
-0.0614233
0
LINE
8
BLACK
6
CONTINUOUS
10
0.403384
20
-0.045439
11
0.406178
21
-0.0473059
0
LINE
8
BLACK
6
CONTINUOUS
10
0.406178
20
-0.0473059
11
0.408045
21
-0.0500999
0
LINE
8
BLACK
6
CONTINUOUS
10
0.408045
20
-0.0500999
11
0.408701
21
-0.0533957
0
LINE
8
BLACK
6
CONTINUOUS
10
0.408701
20
-0.0533957
11
0.408701
21
-0.0706201
0
LINE
8
BLACK
6
CONTINUOUS
10
0.408701
20
-0.0706201
11
0.408045
21
-0.0739158
0
LINE
8
BLACK
6
CONTINUOUS
10
0.408045
20
-0.0739158
11
0.406178
21
-0.0767098
0
LINE
8
BLACK
6
CONTINUOUS
10
0.406178
20
-0.0767098
11
0.403384
21
-0.0785767
0
LINE
8
BLACK
6
CONTINUOUS
10
0.403384
20
-0.0785767
11
0.400089
21
-0.0792323
0
LINE
8
BLACK
6
CONTINUOUS
10
0.400089
20
-0.0792323
11
0.379911
21
-0.0792323
0
LINE
8
BLACK
6
CONTINUOUS
10
0.379911
20
-0.0792323
11
0.376616
21
-0.0785767
0
LINE
8
BLACK
6
CONTINUOUS
10
0.376616
20
-0.0785767
11
0.373822
21
-0.0767098
0
LINE
8
BLACK
6
CONTINUOUS
10
0.373822
20
-0.0767098
11
0.371955
21
-0.0739158
0
LINE
8
BLACK
6
CONTINUOUS
10
0.371955
20
-0.0739158
11
0.371299
21
-0.0706201
0
LINE
8
BLACK
6
CONTINUOUS
10
0.371299
20
-0.0706201
11
0.371299
21
-0.0533957
0
LINE
8
BLACK
6
CONTINUOUS
10
0.371299
20
-0.0533957
11
0.371955
21
-0.0500999
0
LINE
8
BLACK
6
CONTINUOUS
10
0.371955
20
-0.0500999
11
0.373822
21
-0.0473059
0
LINE
8
BLACK
6
CONTINUOUS
10
0.373822
20
-0.0473059
11
0.376616
21
-0.045439
0
LINE
8
BLACK
6
CONTINUOUS
10
0.376616
20
-0.045439
11
0.379911
21
-0.0447835
0
LINE
8
BLACK
6
CONTINUOUS
10
0.379911
20
-0.0447835
11
0.400089
21
-0.0447835
0
LINE
8
BLACK
6
CONTINUOUS
10
0.400089
20
-0.0447835
11
0.403384
21
-0.045439
0
LINE
8
BLACK
6
CONTINUOUS
10
0.492283
20
-0.0653937
11
0.476535
21
-0.0653937
0
LINE
8
BLACK
6
CONTINUOUS
10
0.476535
20
-0.0653937
11
0.476535
21
-0.0398031
0
LINE
8
BLACK
6
CONTINUOUS
10
0.476535
20
-0.0398031
11
0.492283
21
-0.0398031
0
LINE
8
BLACK
6
CONTINUOUS
10
0.492283
20
-0.0398031
11
0.492283
21
-0.0653937
0
LINE
8
BLACK
6
CONTINUOUS
10
0.517874
20
-0.0653937
11
0.502126
21
-0.0653937
0
LINE
8
BLACK
6
CONTINUOUS
10
0.502126
20
-0.0653937
11
0.502126
21
-0.0398031
0
LINE
8
BLACK
6
CONTINUOUS
10
0.502126
20
-0.0398031
11
0.517874
21
-0.0398031
0
LINE
8
BLACK
6
CONTINUOUS
10
0.517874
20
-0.0398031
11
0.517874
21
-0.0653937
0
LINE
8
BLACK
6
CONTINUOUS
10
0.543465
20
-0.0653937
11
0.527717
21
-0.0653937
0
LINE
8
BLACK
6
CONTINUOUS
10
0.527717
20
-0.0653937
11
0.527717
21
-0.0398031
0
LINE
8
BLACK
6
CONTINUOUS
10
0.527717
20
-0.0398031
11
0.543465
21
-0.0398031
0
LINE
8
BLACK
6
CONTINUOUS
10
0.543465
20
-0.0398031
11
0.543465
21
-0.0653937
0
LINE
8
BLACK
6
CONTINUOUS
10
-0.417346
20
-0.0331305
11
-0.41543
21
-0.0344106
0
LINE
8
BLACK
6
CONTINUOUS
10
-0.41543
20
-0.0344106
11
-0.41415
21
-0.0363265
0
LINE
8
BLACK
6
CONTINUOUS
10
-0.41415
20
-0.0363265
11
-0.413701
21
-0.0385865
0
LINE
8
BLACK
6
CONTINUOUS
10
-0.413701
20
-0.0385865
11
-0.413701
21
-0.0503975
0
LINE
8
BLACK
6
CONTINUOUS
10
-0.413701
20
-0.0503975
11
-0.41415
21
-0.0526574
0
LINE
8
BLACK
6
CONTINUOUS
10
-0.41415
20
-0.0526574
11
-0.41543
21
-0.0545733
0
LINE
8
BLACK
6
CONTINUOUS
10
-0.41543
20
-0.0545733
11
-0.417346
21
-0.0558535
0
LINE
8
BLACK
6
CONTINUOUS
10
-0.417346
20
-0.0558535
11
-0.419606
21
-0.056303
0
LINE
8
BLACK
6
CONTINUOUS
10
-0.419606
20
-0.056303
11
-0.474724
21
-0.056303
0
LINE
8
BLACK
6
CONTINUOUS
10
-0.474724
20
-0.056303
11
-0.476984
21
-0.0558535
0
LINE
8
BLACK
6
CONTINUOUS
10
-0.476984
20
-0.0558535
11
-0.4789
21
-0.0545733
0
LINE
8
BLACK
6
CONTINUOUS
10
-0.4789
20
-0.0545733
11
-0.48018
21
-0.0526574
0
LINE
8
BLACK
6
CONTINUOUS
10
-0.48018
20
-0.0526574
11
-0.48063
21
-0.0503975
0
LINE
8
BLACK
6
CONTINUOUS
10
-0.48063
20
-0.0503975
11
-0.48063
21
-0.0385865
0
LINE
8
BLACK
6
CONTINUOUS
10
-0.48063
20
-0.0385865
11
-0.48018
21
-0.0363265
0
LINE
8
BLACK
6
CONTINUOUS
10
-0.48018
20
-0.0363265
11
-0.4789
21
-0.0344106
0
LINE
8
BLACK
6
CONTINUOUS
10
-0.4789
20
-0.0344106
11
-0.476984
21
-0.0331305
0
LINE
8
BLACK
6
CONTINUOUS
10
-0.476984
20
-0.0331305
11
-0.474724
21
-0.0326809
0
LINE
8
BLACK
6
CONTINUOUS
10
-0.474724
20
-0.0326809
11
-0.419606
21
-0.0326809
0
LINE
8
BLACK
6
CONTINUOUS
10
-0.419606
20
-0.0326809
11
-0.417346
21
-0.0331305
0
LINE
8
BLACK
6
CONTINUOUS
10
0.0925197
20
-0.0154528
11
0.0708661
21
-0.0154528
0
LINE
8
BLACK
6
CONTINUOUS
10
0.0708661
20
-0.0154528
11
0.0708661
21
-0.0152572
0
LINE
8
BLACK
6
CONTINUOUS
10
0.0708661
20
-0.0152572
11
0.0677189
21
-0.0151995
0
LINE
8
BLACK
6
CONTINUOUS
10
0.0677189
20
-0.0151995
11
0.0623915
21
-0.0135352
0
LINE
8
BLACK
6
CONTINUOUS
10
0.0623915
20
-0.0135352
11
0.0577454
21
-0.0104424
0
LINE
8
BLACK
6
CONTINUOUS
10
0.0577454
20
-0.0104424
11
0.0541541
21
-0.00617004
0
LINE
8
BLACK
6
CONTINUOUS
10
0.0541541
20
-0.00617004
11
0.0519063
21
-0.00106142
0
LINE
8
BLACK
6
CONTINUOUS
10
0.0519063
20
-0.00106142
11
0.051214
21
0.00423228
0
LINE
8
BLACK
6
CONTINUOUS
10
0.051214
20
0.00423228
11
0.0511811
21
0.00423228
0
LINE
8
BLACK
6
CONTINUOUS
10
0.0511811
20
0.00423228
11
0.0511811
21
0.0239173
0
LINE
8
BLACK
6
CONTINUOUS
10
0.0511811
20
0.0239173
11
0.051214
21
0.0239173
0
LINE
8
BLACK
6
CONTINUOUS
10
0.051214
20
0.0239173
11
0.0511826
21
0.0241578
0
LINE
8
BLACK
6
CONTINUOUS
10
0.0511826
20
0.0241578
11
0.0520413
21
0.0296727
0
LINE
8
BLACK
6
CONTINUOUS
10
0.0520413
20
0.0296727
11
0.0544132
21
0.0347248
0
LINE
8
BLACK
6
CONTINUOUS
10
0.0544132
20
0.0347248
11
0.0581079
21
0.0389082
0
LINE
8
BLACK
6
CONTINUOUS
10
0.0581079
20
0.0389082
11
0.0628281
21
0.0418865
0
LINE
8
BLACK
6
CONTINUOUS
10
0.0628281
20
0.0418865
11
0.0681946
21
0.0434202
0
LINE
8
BLACK
6
CONTINUOUS
10
0.0681946
20
0.0434202
11
0.0708661
21
0.0434039
0
LINE
8
BLACK
6
CONTINUOUS
10
0.0708661
20
0.0434039
11
0.0708661
21
0.0436024
0
LINE
8
BLACK
6
CONTINUOUS
10
0.0708661
20
0.0436024
11
0.0925197
21
0.0436024
0
LINE
8
BLACK
6
CONTINUOUS
10
0.0925197
20
0.0436024
11
0.0925197
21
-0.0154528
0
LINE
8
BLACK
6
CONTINUOUS
10
0.141732
20
-0.0154528
11
0.102362
21
-0.0154528
0
LINE
8
BLACK
6
CONTINUOUS
10
0.102362
20
-0.0154528
11
0.102362
21
0.0436024
0
LINE
8
BLACK
6
CONTINUOUS
10
0.102362
20
0.0436024
11
0.141732
21
0.0436024
0
LINE
8
BLACK
6
CONTINUOUS
10
0.141732
20
0.0436024
11
0.141732
21
-0.0154528
0
LINE
8
BLACK
6
CONTINUOUS
10
0.173228
20
0.0434039
11
0.176138
21
0.0433861
0
LINE
8
BLACK
6
CONTINUOUS
10
0.176138
20
0.0433861
11
0.181485
21
0.041787
0
LINE
8
BLACK
6
CONTINUOUS
10
0.181485
20
0.041787
11
0.186169
21
0.0387513
0
LINE
8
BLACK
6
CONTINUOUS
10
0.186169
20
0.0387513
11
0.189812
21
0.034523
0
LINE
8
BLACK
6
CONTINUOUS
10
0.189812
20
0.034523
11
0.192122
21
0.0294422
0
LINE
8
BLACK
6
CONTINUOUS
10
0.192122
20
0.0294422
11
0.192913
21
0.0239173
0
LINE
8
BLACK
6
CONTINUOUS
10
0.192913
20
0.0239173
11
0.192913
21
0.00423228
0
LINE
8
BLACK
6
CONTINUOUS
10
0.192913
20
0.00423228
11
0.192908
21
0.00375134
0
LINE
8
BLACK
6
CONTINUOUS
10
0.192908
20
0.00375134
11
0.191982
21
-0.00175264
0
LINE
8
BLACK
6
CONTINUOUS
10
0.191982
20
-0.00175264
11
0.189548
21
-0.00677543
0
LINE
8
BLACK
6
CONTINUOUS
10
0.189548
20
-0.00677543
11
0.185803
21
-0.0109134
0
LINE
8
BLACK
6
CONTINUOUS
10
0.185803
20
-0.0109134
11
0.181046
21
-0.0138337
0
LINE
8
BLACK
6
CONTINUOUS
10
0.181046
20
-0.0138337
11
0.175661
21
-0.0153018
0
LINE
8
BLACK
6
CONTINUOUS
10
0.175661
20
-0.0153018
11
0.173228
21
-0.0152572
0
LINE
8
BLACK
6
CONTINUOUS
10
0.173228
20
-0.0152572
11
0.173228
21
-0.0154528
0
LINE
8
BLACK
6
CONTINUOUS
10
0.173228
20
-0.0154528
11
0.151575
21
-0.0154528
0
LINE
8
BLACK
6
CONTINUOUS
10
0.151575
20
-0.0154528
11
0.151575
21
0.0436024
0
LINE
8
BLACK
6
CONTINUOUS
10
0.151575
20
0.0436024
11
0.173228
21
0.0436024
0
LINE
8
BLACK
6
CONTINUOUS
10
0.173228
20
0.0436024
11
0.173228
21
0.0434039
0
LINE
8
BLACK
6
CONTINUOUS
10
-0.417346
20
0.0160821
11
-0.41543
21
0.014802
0
LINE
8
BLACK
6
CONTINUOUS
10
-0.41543
20
0.014802
11
-0.41415
21
0.0128861
0
LINE
8
BLACK
6
CONTINUOUS
10
-0.41415
20
0.0128861
11
-0.413701
21
0.0106261
0
LINE
8
BLACK
6
CONTINUOUS
10
-0.413701
20
0.0106261
11
-0.413701
21
-0.00118488
0
LINE
8
BLACK
6
CONTINUOUS
10
-0.413701
20
-0.00118488
11
-0.41415
21
-0.00344484
0
LINE
8
BLACK
6
CONTINUOUS
10
-0.41415
20
-0.00344484
11
-0.41543
21
-0.00536071
0
LINE
8
BLACK
6
CONTINUOUS
10
-0.41543
20
-0.00536071
11
-0.417346
21
-0.00664087
0
LINE
8
BLACK
6
CONTINUOUS
10
-0.417346
20
-0.00664087
11
-0.419606
21
-0.00709039
0
LINE
8
BLACK
6
CONTINUOUS
10
-0.419606
20
-0.00709039
11
-0.474724
21
-0.00709039
0
LINE
8
BLACK
6
CONTINUOUS
10
-0.474724
20
-0.00709039
11
-0.476984
21
-0.00664087
0
LINE
8
BLACK
6
CONTINUOUS
10
-0.476984
20
-0.00664087
11
-0.4789
21
-0.00536071
0
LINE
8
BLACK
6
CONTINUOUS
10
-0.4789
20
-0.00536071
11
-0.48018
21
-0.00344484
0
LINE
8
BLACK
6
CONTINUOUS
10
-0.48018
20
-0.00344484
11
-0.48063
21
-0.00118488
0
LINE
8
BLACK
6
CONTINUOUS
10
-0.48063
20
-0.00118488
11
-0.48063
21
0.0106261
0
LINE
8
BLACK
6
CONTINUOUS
10
-0.48063
20
0.0106261
11
-0.48018
21
0.0128861
0
LINE
8
BLACK
6
CONTINUOUS
10
-0.48018
20
0.0128861
11
-0.4789
21
0.014802
0
LINE
8
BLACK
6
CONTINUOUS
10
-0.4789
20
0.014802
11
-0.476984
21
0.0160821
0
LINE
8
BLACK
6
CONTINUOUS
10
-0.476984
20
0.0160821
11
-0.474724
21
0.0165317
0
LINE
8
BLACK
6
CONTINUOUS
10
-0.474724
20
0.0165317
11
-0.419606
21
0.0165317
0
LINE
8
BLACK
6
CONTINUOUS
10
-0.419606
20
0.0165317
11
-0.417346
21
0.0160821
0
LINE
8
BLACK
6
CONTINUOUS
10
-0.417346
20
0.0652947
11
-0.41543
21
0.0640146
0
LINE
8
BLACK
6
CONTINUOUS
10
-0.41543
20
0.0640146
11
-0.41415
21
0.0620987
0
LINE
8
BLACK
6
CONTINUOUS
10
-0.41415
20
0.0620987
11
-0.413701
21
0.0598387
0
LINE
8
BLACK
6
CONTINUOUS
10
-0.413701
20
0.0598387
11
-0.413701
21
0.0480277
0
LINE
8
BLACK
6
CONTINUOUS
10
-0.413701
20
0.0480277
11
-0.41415
21
0.0457678
0
LINE
8
BLACK
6
CONTINUOUS
10
-0.41415
20
0.0457678
11
-0.41543
21
0.0438519
0
LINE
8
BLACK
6
CONTINUOUS
10
-0.41543
20
0.0438519
11
-0.417346
21
0.0425717
0
LINE
8
BLACK
6
CONTINUOUS
10
-0.417346
20
0.0425717
11
-0.419606
21
0.0421222
0
LINE
8
BLACK
6
CONTINUOUS
10
-0.419606
20
0.0421222
11
-0.474724
21
0.0421222
0
LINE
8
BLACK
6
CONTINUOUS
10
-0.474724
20
0.0421222
11
-0.476984
21
0.0425717
0
LINE
8
BLACK
6
CONTINUOUS
10
-0.476984
20
0.0425717
11
-0.4789
21
0.0438519
0
LINE
8
BLACK
6
CONTINUOUS
10
-0.4789
20
0.0438519
11
-0.48018
21
0.0457678
0
LINE
8
BLACK
6
CONTINUOUS
10
-0.48018
20
0.0457678
11
-0.48063
21
0.0480277
0
LINE
8
BLACK
6
CONTINUOUS
10
-0.48063
20
0.0480277
11
-0.48063
21
0.0598387
0
LINE
8
BLACK
6
CONTINUOUS
10
-0.48063
20
0.0598387
11
-0.48018
21
0.0620987
0
LINE
8
BLACK
6
CONTINUOUS
10
-0.48018
20
0.0620987
11
-0.4789
21
0.0640146
0
LINE
8
BLACK
6
CONTINUOUS
10
-0.4789
20
0.0640146
11
-0.476984
21
0.0652947
0
LINE
8
BLACK
6
CONTINUOUS
10
-0.476984
20
0.0652947
11
-0.474724
21
0.0657443
0
LINE
8
BLACK
6
CONTINUOUS
10
-0.474724
20
0.0657443
11
-0.419606
21
0.0657443
0
LINE
8
BLACK
6
CONTINUOUS
10
-0.419606
20
0.0657443
11
-0.417346
21
0.0652947
0
LINE
8
BLACK
6
CONTINUOUS
10
0.488465
20
0.0466498
11
0.421535
21
0.0466498
0
LINE
8
BLACK
6
CONTINUOUS
10
0.421535
20
0.0466498
11
0.421535
21
0.113579
0
LINE
8
BLACK
6
CONTINUOUS
10
0.421535
20
0.113579
11
0.488465
21
0.113579
0
LINE
8
BLACK
6
CONTINUOUS
10
0.488465
20
0.113579
11
0.488465
21
0.0466498
0
LINE
8
BLACK
6
CONTINUOUS
10
0.23865
20
0.297907
11
0.252132
21
0.296133
0
LINE
8
BLACK
6
CONTINUOUS
10
0.252132
20
0.296133
11
0.26532
21
0.29282
0
LINE
8
BLACK
6
CONTINUOUS
10
0.26532
20
0.29282
11
0.27804
21
0.288013
0
LINE
8
BLACK
6
CONTINUOUS
10
0.27804
20
0.288013
11
0.290123
21
0.281777
0
LINE
8
BLACK
6
CONTINUOUS
10
0.290123
20
0.281777
11
0.301409
21
0.274193
0
LINE
8
BLACK
6
CONTINUOUS
10
0.301409
20
0.274193
11
0.311749
21
0.265362
0
LINE
8
BLACK
6
CONTINUOUS
10
0.311749
20
0.265362
11
0.321006
21
0.255401
0
LINE
8
BLACK
6
CONTINUOUS
10
0.321006
20
0.255401
11
0.329056
21
0.244442
0
LINE
8
BLACK
6
CONTINUOUS
10
0.329056
20
0.244442
11
0.335793
21
0.23263
0
LINE
8
BLACK
6
CONTINUOUS
10
0.335793
20
0.23263
11
0.341128
21
0.220123
0
LINE
8
BLACK
6
CONTINUOUS
10
0.341128
20
0.220123
11
0.34499
21
0.207085
0
LINE
8
BLACK
6
CONTINUOUS
10
0.34499
20
0.207085
11
0.347327
21
0.19369
0
LINE
8
BLACK
6
CONTINUOUS
10
0.347327
20
0.19369
11
0.34811
21
0.180114
0
LINE
8
BLACK
6
CONTINUOUS
10
0.34811
20
0.180114
11
0.347877
21
0.172698
0
LINE
8
BLACK
6
CONTINUOUS
10
0.347877
20
0.172698
11
0.346244
21
0.159199
0
LINE
8
BLACK
6
CONTINUOUS
10
0.346244
20
0.159199
11
0.343069
21
0.145977
0
LINE
8
BLACK
6
CONTINUOUS
10
0.343069
20
0.145977
11
0.338396
21
0.133207
0
LINE
8
BLACK
6
CONTINUOUS
10
0.338396
20
0.133207
11
0.332286
21
0.121059
0
LINE
8
BLACK
6
CONTINUOUS
10
0.332286
20
0.121059
11
0.324821
21
0.109694
0
LINE
8
BLACK
6
CONTINUOUS
10
0.324821
20
0.109694
11
0.316099
21
0.0992623
0
LINE
8
BLACK
6
CONTINUOUS
10
0.316099
20
0.0992623
11
0.306235
21
0.0899022
0
LINE
8
BLACK
6
CONTINUOUS
10
0.306235
20
0.0899022
11
0.295361
21
0.0817378
0
LINE
8
BLACK
6
CONTINUOUS
10
0.295361
20
0.0817378
11
0.283621
21
0.0748773
0
LINE
8
BLACK
6
CONTINUOUS
10
0.283621
20
0.0748773
11
0.27117
21
0.0694117
0
LINE
8
BLACK
6
CONTINUOUS
10
0.27117
20
0.0694117
11
0.258173
21
0.0654134
0
LINE
8
BLACK
6
CONTINUOUS
10
0.258173
20
0.0654134
11
0.244803
21
0.0629354
0
LINE
8
BLACK
6
CONTINUOUS
10
0.244803
20
0.0629354
11
0.231237
21
0.0620106
0
LINE
8
BLACK
6
CONTINUOUS
10
0.231237
20
0.0620106
11
0.217654
21
0.0626511
0
LINE
8
BLACK
6
CONTINUOUS
10
0.217654
20
0.0626511
11
0.204235
21
0.0648486
0
LINE
8
BLACK
6
CONTINUOUS
10
0.204235
20
0.0648486
11
0.191157
21
0.0685738
0
LINE
8
BLACK
6
CONTINUOUS
10
0.191157
20
0.0685738
11
0.178595
21
0.0737775
0
LINE
8
BLACK
6
CONTINUOUS
10
0.178595
20
0.0737775
11
0.166713
21
0.0803906
0
LINE
8
BLACK
6
CONTINUOUS
10
0.166713
20
0.0803906
11
0.155671
21
0.0883254
0
LINE
8
BLACK
6
CONTINUOUS
10
0.155671
20
0.0883254
11
0.145613
21
0.0974769
0
LINE
8
BLACK
6
CONTINUOUS
10
0.145613
20
0.0974769
11
0.136675
21
0.107724
0
LINE
8
BLACK
6
CONTINUOUS
10
0.136675
20
0.107724
11
0.128973
21
0.11893
0
LINE
8
BLACK
6
CONTINUOUS
10
0.128973
20
0.11893
11
0.12261
21
0.130947
0
LINE
8
BLACK
6
CONTINUOUS
10
0.12261
20
0.130947
11
0.11767
21
0.143616
0
LINE
8
BLACK
6
CONTINUOUS
10
0.11767
20
0.143616
11
0.11422
21
0.156769
0
LINE
8
BLACK
6
CONTINUOUS
10
0.11422
20
0.156769
11
0.112304
21
0.170231
0
LINE
8
BLACK
6
CONTINUOUS
10
0.112304
20
0.170231
11
0.111948
21
0.183824
0
LINE
8
BLACK
6
CONTINUOUS
10
0.111948
20
0.183824
11
0.113157
21
0.197368
0
LINE
8
BLACK
6
CONTINUOUS
10
0.113157
20
0.197368
11
0.115914
21
0.210684
0
LINE
8
BLACK
6
CONTINUOUS
10
0.115914
20
0.210684
11
0.120184
21
0.223594
0
LINE
8
BLACK
6
CONTINUOUS
10
0.120184
20
0.223594
11
0.125909
21
0.235927
0
LINE
8
BLACK
6
CONTINUOUS
10
0.125909
20
0.235927
11
0.133014
21
0.247521
0
LINE
8
BLACK
6
CONTINUOUS
10
0.133014
20
0.247521
11
0.141404
21
0.258222
0
LINE
8
BLACK
6
CONTINUOUS
10
0.141404
20
0.258222
11
0.150969
21
0.267887
0
LINE
8
BLACK
6
CONTINUOUS
10
0.150969
20
0.267887
11
0.161581
21
0.276389
0
LINE
8
BLACK
6
CONTINUOUS
10
0.161581
20
0.276389
11
0.1731
21
0.283615
0
LINE
8
BLACK
6
CONTINUOUS
10
0.1731
20
0.283615
11
0.185373
21
0.289469
0
LINE
8
BLACK
6
CONTINUOUS
10
0.185373
20
0.289469
11
0.198238
21
0.293874
0
LINE
8
BLACK
6
CONTINUOUS
10
0.198238
20
0.293874
11
0.211524
21
0.29677
0
LINE
8
BLACK
6
CONTINUOUS
10
0.211524
20
0.29677
11
0.225054
21
0.298121
0
LINE
8
BLACK
6
CONTINUOUS
10
0.225054
20
0.298121
11
0.23865
21
0.297907
0
LINE
8
BLACK
6
CONTINUOUS
10
-0.306535
20
0.0755118
11
-0.373465
21
0.0755118
0
LINE
8
BLACK
6
CONTINUOUS
10
-0.373465
20
0.0755118
11
-0.373465
21
0.126693
0
LINE
8
BLACK
6
CONTINUOUS
10
-0.373465
20
0.126693
11
-0.306535
21
0.126693
0
LINE
8
BLACK
6
CONTINUOUS
10
-0.306535
20
0.126693
11
-0.306535
21
0.0755118
0
LINE
8
BLACK
6
CONTINUOUS
10
-0.526076
20
0.145704
11
-0.522883
21
0.14357
0
LINE
8
BLACK
6
CONTINUOUS
10
-0.522883
20
0.14357
11
-0.520749
21
0.140377
0
LINE
8
BLACK
6
CONTINUOUS
10
-0.520749
20
0.140377
11
-0.52
21
0.13661
0
LINE
8
BLACK
6
CONTINUOUS
10
-0.52
20
0.13661
11
-0.52
21
0.116925
0
LINE
8
BLACK
6
CONTINUOUS
10
-0.52
20
0.116925
11
-0.520749
21
0.113159
0
LINE
8
BLACK
6
CONTINUOUS
10
-0.520749
20
0.113159
11
-0.522883
21
0.109966
0
LINE
8
BLACK
6
CONTINUOUS
10
-0.522883
20
0.109966
11
-0.526076
21
0.107832
0
LINE
8
BLACK
6
CONTINUOUS
10
-0.526076
20
0.107832
11
-0.529843
21
0.107083
0
LINE
8
BLACK
6
CONTINUOUS
10
-0.529843
20
0.107083
11
-0.616457
21
0.107083
0
LINE
8
BLACK
6
CONTINUOUS
10
-0.616457
20
0.107083
11
-0.620223
21
0.107832
0
LINE
8
BLACK
6
CONTINUOUS
10
-0.620223
20
0.107832
11
-0.623416
21
0.109966
0
LINE
8
BLACK
6
CONTINUOUS
10
-0.623416
20
0.109966
11
-0.62555
21
0.113159
0
LINE
8
BLACK
6
CONTINUOUS
10
-0.62555
20
0.113159
11
-0.626299
21
0.116925
0
LINE
8
BLACK
6
CONTINUOUS
10
-0.626299
20
0.116925
11
-0.626299
21
0.13661
0
LINE
8
BLACK
6
CONTINUOUS
10
-0.626299
20
0.13661
11
-0.62555
21
0.140377
0
LINE
8
BLACK
6
CONTINUOUS
10
-0.62555
20
0.140377
11
-0.623416
21
0.14357
0
LINE
8
BLACK
6
CONTINUOUS
10
-0.623416
20
0.14357
11
-0.620223
21
0.145704
0
LINE
8
BLACK
6
CONTINUOUS
10
-0.620223
20
0.145704
11
-0.616457
21
0.146453
0
LINE
8
BLACK
6
CONTINUOUS
10
-0.616457
20
0.146453
11
-0.529843
21
0.146453
0
LINE
8
BLACK
6
CONTINUOUS
10
-0.529843
20
0.146453
11
-0.526076
21
0.145704
0
LINE
8
BLACK
6
CONTINUOUS
10
0.465341
20
0.211941
11
0.471732
21
0.209096
0
LINE
8
BLACK
6
CONTINUOUS
10
0.471732
20
0.209096
11
0.477392
21
0.204983
0
LINE
8
BLACK
6
CONTINUOUS
10
0.477392
20
0.204983
11
0.482073
21
0.199784
0
LINE
8
BLACK
6
CONTINUOUS
10
0.482073
20
0.199784
11
0.485571
21
0.193726
0
LINE
8
BLACK
6
CONTINUOUS
10
0.485571
20
0.193726
11
0.487733
21
0.187072
0
LINE
8
BLACK
6
CONTINUOUS
10
0.487733
20
0.187072
11
0.488465
21
0.180114
0
LINE
8
BLACK
6
CONTINUOUS
10
0.488465
20
0.180114
11
0.487733
21
0.173157
0
LINE
8
BLACK
6
CONTINUOUS
10
0.487733
20
0.173157
11
0.485571
21
0.166503
0
LINE
8
BLACK
6
CONTINUOUS
10
0.485571
20
0.166503
11
0.482073
21
0.160444
0
LINE
8
BLACK
6
CONTINUOUS
10
0.482073
20
0.160444
11
0.477392
21
0.155245
0
LINE
8
BLACK
6
CONTINUOUS
10
0.477392
20
0.155245
11
0.471732
21
0.151133
0
LINE
8
BLACK
6
CONTINUOUS
10
0.471732
20
0.151133
11
0.465341
21
0.148288
0
LINE
8
BLACK
6
CONTINUOUS
10
0.465341
20
0.148288
11
0.458498
21
0.146833
0
LINE
8
BLACK
6
CONTINUOUS
10
0.458498
20
0.146833
11
0.451502
21
0.146833
0
LINE
8
BLACK
6
CONTINUOUS
10
0.451502
20
0.146833
11
0.444659
21
0.148288
0
LINE
8
BLACK
6
CONTINUOUS
10
0.444659
20
0.148288
11
0.438268
21
0.151133
0
LINE
8
BLACK
6
CONTINUOUS
10
0.438268
20
0.151133
11
0.432608
21
0.155245
0
LINE
8
BLACK
6
CONTINUOUS
10
0.432608
20
0.155245
11
0.427927
21
0.160444
0
LINE
8
BLACK
6
CONTINUOUS
10
0.427927
20
0.160444
11
0.424429
21
0.166503
0
LINE
8
BLACK
6
CONTINUOUS
10
0.424429
20
0.166503
11
0.422267
21
0.173157
0
LINE
8
BLACK
6
CONTINUOUS
10
0.422267
20
0.173157
11
0.421535
21
0.180114
0
LINE
8
BLACK
6
CONTINUOUS
10
0.421535
20
0.180114
11
0.422267
21
0.187072
0
LINE
8
BLACK
6
CONTINUOUS
10
0.422267
20
0.187072
11
0.424429
21
0.193726
0
LINE
8
BLACK
6
CONTINUOUS
10
0.424429
20
0.193726
11
0.427927
21
0.199784
0
LINE
8
BLACK
6
CONTINUOUS
10
0.427927
20
0.199784
11
0.432608
21
0.204983
0
LINE
8
BLACK
6
CONTINUOUS
10
0.432608
20
0.204983
11
0.438268
21
0.209096
0
LINE
8
BLACK
6
CONTINUOUS
10
0.438268
20
0.209096
11
0.444659
21
0.211941
0
LINE
8
BLACK
6
CONTINUOUS
10
0.444659
20
0.211941
11
0.451502
21
0.213396
0
LINE
8
BLACK
6
CONTINUOUS
10
0.451502
20
0.213396
11
0.458498
21
0.213396
0
LINE
8
BLACK
6
CONTINUOUS
10
0.458498
20
0.213396
11
0.465341
21
0.211941
0
LINE
8
BLACK
6
CONTINUOUS
10
-0.0465732
20
0.283977
11
-0.0424347
21
0.282147
0
LINE
8
BLACK
6
CONTINUOUS
10
-0.0424347
20
0.282147
11
-0.039112
21
0.279075
0
LINE
8
BLACK
6
CONTINUOUS
10
-0.039112
20
0.279075
11
-0.0369634
21
0.275093
0
LINE
8
BLACK
6
CONTINUOUS
10
-0.0369634
20
0.275093
11
-0.0362205
21
0.27063
0
LINE
8
BLACK
6
CONTINUOUS
10
-0.0362205
20
0.27063
11
-0.0362205
21
0.195827
0
LINE
8
BLACK
6
CONTINUOUS
10
-0.0362205
20
0.195827
11
-0.0364257
21
0.193458
0
LINE
8
BLACK
6
CONTINUOUS
10
-0.0364257
20
0.193458
11
-0.0379249
21
0.189188
0
LINE
8
BLACK
6
CONTINUOUS
10
-0.0379249
20
0.189188
11
-0.0407262
21
0.185635
0
LINE
8
BLACK
6
CONTINUOUS
10
-0.0407262
20
0.185635
11
-0.0445275
21
0.183181
0
LINE
8
BLACK
6
CONTINUOUS
10
-0.0445275
20
0.183181
11
-0.0489189
21
0.18209
0
LINE
8
BLACK
6
CONTINUOUS
10
-0.0489189
20
0.18209
11
-0.0534268
21
0.18248
0
LINE
8
BLACK
6
CONTINUOUS
10
-0.0534268
20
0.18248
11
-0.0575653
21
0.18431
0
LINE
8
BLACK
6
CONTINUOUS
10
-0.0575653
20
0.18431
11
-0.060888
21
0.187381
0
LINE
8
BLACK
6
CONTINUOUS
10
-0.060888
20
0.187381
11
-0.0630366
21
0.191363
0
LINE
8
BLACK
6
CONTINUOUS
10
-0.0630366
20
0.191363
11
-0.0637795
21
0.195827
0
LINE
8
BLACK
6
CONTINUOUS
10
-0.0637795
20
0.195827
11
-0.0637795
21
0.27063
0
LINE
8
BLACK
6
CONTINUOUS
10
-0.0637795
20
0.27063
11
-0.0635743
21
0.272999
0
LINE
8
BLACK
6
CONTINUOUS
10
-0.0635743
20
0.272999
11
-0.0620751
21
0.277268
0
LINE
8
BLACK
6
CONTINUOUS
10
-0.0620751
20
0.277268
11
-0.0592738
21
0.280822
0
LINE
8
BLACK
6
CONTINUOUS
10
-0.0592738
20
0.280822
11
-0.0554725
21
0.283276
0
LINE
8
BLACK
6
CONTINUOUS
10
-0.0554725
20
0.283276
11
-0.0510811
21
0.284367
0
LINE
8
BLACK
6
CONTINUOUS
10
-0.0510811
20
0.284367
11
-0.0465732
21
0.283977
0
LINE
8
BLACK
6
CONTINUOUS
10
-0.0940141
20
0.283977
11
-0.0898757
21
0.282147
0
LINE
8
BLACK
6
CONTINUOUS
10
-0.0898757
20
0.282147
11
-0.086553
21
0.279075
0
LINE
8
BLACK
6
CONTINUOUS
10
-0.086553
20
0.279075
11
-0.0844043
21
0.275093
0
LINE
8
BLACK
6
CONTINUOUS
10
-0.0844043
20
0.275093
11
-0.0836614
21
0.27063
0
LINE
8
BLACK
6
CONTINUOUS
10
-0.0836614
20
0.27063
11
-0.0836614
21
0.195827
0
LINE
8
BLACK
6
CONTINUOUS
10
-0.0836614
20
0.195827
11
-0.0838666
21
0.193458
0
LINE
8
BLACK
6
CONTINUOUS
10
-0.0838666
20
0.193458
11
-0.0853659
21
0.189188
0
LINE
8
BLACK
6
CONTINUOUS
10
-0.0853659
20
0.189188
11
-0.0881672
21
0.185635
0
LINE
8
BLACK
6
CONTINUOUS
10
-0.0881672
20
0.185635
11
-0.0919684
21
0.183181
0
LINE
8
BLACK
6
CONTINUOUS
10
-0.0919684
20
0.183181
11
-0.0963598
21
0.18209
0
LINE
8
BLACK
6
CONTINUOUS
10
-0.0963598
20
0.18209
11
-0.100868
21
0.18248
0
LINE
8
BLACK
6
CONTINUOUS
10
-0.100868
20
0.18248
11
-0.105006
21
0.18431
0
LINE
8
BLACK
6
CONTINUOUS
10
-0.105006
20
0.18431
11
-0.108329
21
0.187381
0
LINE
8
BLACK
6
CONTINUOUS
10
-0.108329
20
0.187381
11
-0.110478
21
0.191363
0
LINE
8
BLACK
6
CONTINUOUS
10
-0.110478
20
0.191363
11
-0.11122
21
0.195827
0
LINE
8
BLACK
6
CONTINUOUS
10
-0.11122
20
0.195827
11
-0.11122
21
0.27063
0
LINE
8
BLACK
6
CONTINUOUS
10
-0.11122
20
0.27063
11
-0.111015
21
0.272999
0
LINE
8
BLACK
6
CONTINUOUS
10
-0.111015
20
0.272999
11
-0.109516
21
0.277268
0
LINE
8
BLACK
6
CONTINUOUS
10
-0.109516
20
0.277268
11
-0.106715
21
0.280822
0
LINE
8
BLACK
6
CONTINUOUS
10
-0.106715
20
0.280822
11
-0.102913
21
0.283276
0
LINE
8
BLACK
6
CONTINUOUS
10
-0.102913
20
0.283276
11
-0.0985221
21
0.284367
0
LINE
8
BLACK
6
CONTINUOUS
10
-0.0985221
20
0.284367
11
-0.0940141
21
0.283977
0
LINE
8
BLACK
6
CONTINUOUS
10
-0.146573
20
0.283977
11
-0.142435
21
0.282147
0
LINE
8
BLACK
6
CONTINUOUS
10
-0.142435
20
0.282147
11
-0.139112
21
0.279075
0
LINE
8
BLACK
6
CONTINUOUS
10
-0.139112
20
0.279075
11
-0.136963
21
0.275093
0
LINE
8
BLACK
6
CONTINUOUS
10
-0.136963
20
0.275093
11
-0.13622
21
0.27063
0
LINE
8
BLACK
6
CONTINUOUS
10
-0.13622
20
0.27063
11
-0.13622
21
0.195827
0
LINE
8
BLACK
6
CONTINUOUS
10
-0.13622
20
0.195827
11
-0.136426
21
0.193458
0
LINE
8
BLACK
6
CONTINUOUS
10
-0.136426
20
0.193458
11
-0.137925
21
0.189188
0
LINE
8
BLACK
6
CONTINUOUS
10
-0.137925
20
0.189188
11
-0.140726
21
0.185635
0
LINE
8
BLACK
6
CONTINUOUS
10
-0.140726
20
0.185635
11
-0.144527
21
0.183181
0
LINE
8
BLACK
6
CONTINUOUS
10
-0.144527
20
0.183181
11
-0.148919
21
0.18209
0
LINE
8
BLACK
6
CONTINUOUS
10
-0.148919
20
0.18209
11
-0.153427
21
0.18248
0
LINE
8
BLACK
6
CONTINUOUS
10
-0.153427
20
0.18248
11
-0.157565
21
0.18431
0
LINE
8
BLACK
6
CONTINUOUS
10
-0.157565
20
0.18431
11
-0.160888
21
0.187381
0
LINE
8
BLACK
6
CONTINUOUS
10
-0.160888
20
0.187381
11
-0.163037
21
0.191363
0
LINE
8
BLACK
6
CONTINUOUS
10
-0.163037
20
0.191363
11
-0.16378
21
0.195827
0
LINE
8
BLACK
6
CONTINUOUS
10
-0.16378
20
0.195827
11
-0.16378
21
0.27063
0
LINE
8
BLACK
6
CONTINUOUS
10
-0.16378
20
0.27063
11
-0.163574
21
0.272999
0
LINE
8
BLACK
6
CONTINUOUS
10
-0.163574
20
0.272999
11
-0.162075
21
0.277268
0
LINE
8
BLACK
6
CONTINUOUS
10
-0.162075
20
0.277268
11
-0.159274
21
0.280822
0
LINE
8
BLACK
6
CONTINUOUS
10
-0.159274
20
0.280822
11
-0.155473
21
0.283276
0
LINE
8
BLACK
6
CONTINUOUS
10
-0.155473
20
0.283276
11
-0.151081
21
0.284367
0
LINE
8
BLACK
6
CONTINUOUS
10
-0.151081
20
0.284367
11
-0.146573
21
0.283977
0
LINE
8
BLACK
6
CONTINUOUS
10
-0.196573
20
0.283977
11
-0.192435
21
0.282147
0
LINE
8
BLACK
6
CONTINUOUS
10
-0.192435
20
0.282147
11
-0.189112
21
0.279075
0
LINE
8
BLACK
6
CONTINUOUS
10
-0.189112
20
0.279075
11
-0.186963
21
0.275093
0
LINE
8
BLACK
6
CONTINUOUS
10
-0.186963
20
0.275093
11
-0.18622
21
0.27063
0
LINE
8
BLACK
6
CONTINUOUS
10
-0.18622
20
0.27063
11
-0.18622
21
0.195827
0
LINE
8
BLACK
6
CONTINUOUS
10
-0.18622
20
0.195827
11
-0.186426
21
0.193458
0
LINE
8
BLACK
6
CONTINUOUS
10
-0.186426
20
0.193458
11
-0.187925
21
0.189188
0
LINE
8
BLACK
6
CONTINUOUS
10
-0.187925
20
0.189188
11
-0.190726
21
0.185635
0
LINE
8
BLACK
6
CONTINUOUS
10
-0.190726
20
0.185635
11
-0.194527
21
0.183181
0
LINE
8
BLACK
6
CONTINUOUS
10
-0.194527
20
0.183181
11
-0.198919
21
0.18209
0
LINE
8
BLACK
6
CONTINUOUS
10
-0.198919
20
0.18209
11
-0.203427
21
0.18248
0
LINE
8
BLACK
6
CONTINUOUS
10
-0.203427
20
0.18248
11
-0.207565
21
0.18431
0
LINE
8
BLACK
6
CONTINUOUS
10
-0.207565
20
0.18431
11
-0.210888
21
0.187381
0
LINE
8
BLACK
6
CONTINUOUS
10
-0.210888
20
0.187381
11
-0.213037
21
0.191363
0
LINE
8
BLACK
6
CONTINUOUS
10
-0.213037
20
0.191363
11
-0.21378
21
0.195827
0
LINE
8
BLACK
6
CONTINUOUS
10
-0.21378
20
0.195827
11
-0.21378
21
0.27063
0
LINE
8
BLACK
6
CONTINUOUS
10
-0.21378
20
0.27063
11
-0.213574
21
0.272999
0
LINE
8
BLACK
6
CONTINUOUS
10
-0.213574
20
0.272999
11
-0.212075
21
0.277268
0
LINE
8
BLACK
6
CONTINUOUS
10
-0.212075
20
0.277268
11
-0.209274
21
0.280822
0
LINE
8
BLACK
6
CONTINUOUS
10
-0.209274
20
0.280822
11
-0.205473
21
0.283276
0
LINE
8
BLACK
6
CONTINUOUS
10
-0.205473
20
0.283276
11
-0.201081
21
0.284367
0
LINE
8
BLACK
6
CONTINUOUS
10
-0.201081
20
0.284367
11
-0.196573
21
0.283977
0
LINE
8
BLACK
6
CONTINUOUS
10
-0.306535
20
0.213307
11
-0.373465
21
0.213307
0
LINE
8
BLACK
6
CONTINUOUS
10
-0.373465
20
0.213307
11
-0.373465
21
0.264488
0
LINE
8
BLACK
6
CONTINUOUS
10
-0.373465
20
0.264488
11
-0.306535
21
0.264488
0
LINE
8
BLACK
6
CONTINUOUS
10
-0.306535
20
0.264488
11
-0.306535
21
0.213307
0
LINE
8
BLACK
6
CONTINUOUS
10
-0.526076
20
0.252397
11
-0.522883
21
0.250263
0
LINE
8
BLACK
6
CONTINUOUS
10
-0.522883
20
0.250263
11
-0.520749
21
0.24707
0
LINE
8
BLACK
6
CONTINUOUS
10
-0.520749
20
0.24707
11
-0.52
21
0.243303
0
LINE
8
BLACK
6
CONTINUOUS
10
-0.52
20
0.243303
11
-0.52
21
0.223618
0
LINE
8
BLACK
6
CONTINUOUS
10
-0.52
20
0.223618
11
-0.520749
21
0.219852
0
LINE
8
BLACK
6
CONTINUOUS
10
-0.520749
20
0.219852
11
-0.522883
21
0.216659
0
LINE
8
BLACK
6
CONTINUOUS
10
-0.522883
20
0.216659
11
-0.526076
21
0.214525
0
LINE
8
BLACK
6
CONTINUOUS
10
-0.526076
20
0.214525
11
-0.529843
21
0.213776
0
LINE
8
BLACK
6
CONTINUOUS
10
-0.529843
20
0.213776
11
-0.616457
21
0.213776
0
LINE
8
BLACK
6
CONTINUOUS
10
-0.616457
20
0.213776
11
-0.620223
21
0.214525
0
LINE
8
BLACK
6
CONTINUOUS
10
-0.620223
20
0.214525
11
-0.623416
21
0.216659
0
LINE
8
BLACK
6
CONTINUOUS
10
-0.623416
20
0.216659
11
-0.62555
21
0.219852
0
LINE
8
BLACK
6
CONTINUOUS
10
-0.62555
20
0.219852
11
-0.626299
21
0.223618
0
LINE
8
BLACK
6
CONTINUOUS
10
-0.626299
20
0.223618
11
-0.626299
21
0.243303
0
LINE
8
BLACK
6
CONTINUOUS
10
-0.626299
20
0.243303
11
-0.62555
21
0.24707
0
LINE
8
BLACK
6
CONTINUOUS
10
-0.62555
20
0.24707
11
-0.623416
21
0.250263
0
LINE
8
BLACK
6
CONTINUOUS
10
-0.623416
20
0.250263
11
-0.620223
21
0.252397
0
LINE
8
BLACK
6
CONTINUOUS
10
-0.620223
20
0.252397
11
-0.616457
21
0.253146
0
LINE
8
BLACK
6
CONTINUOUS
10
-0.616457
20
0.253146
11
-0.529843
21
0.253146
0
LINE
8
BLACK
6
CONTINUOUS
10
-0.529843
20
0.253146
11
-0.526076
21
0.252397
0
LINE
8
BLACK
6
CONTINUOUS
10
0.465341
20
0.311941
11
0.471732
21
0.309096
0
LINE
8
BLACK
6
CONTINUOUS
10
0.471732
20
0.309096
11
0.477392
21
0.304983
0
LINE
8
BLACK
6
CONTINUOUS
10
0.477392
20
0.304983
11
0.482073
21
0.299784
0
LINE
8
BLACK
6
CONTINUOUS
10
0.482073
20
0.299784
11
0.485571
21
0.293726
0
LINE
8
BLACK
6
CONTINUOUS
10
0.485571
20
0.293726
11
0.487733
21
0.287072
0
LINE
8
BLACK
6
CONTINUOUS
10
0.487733
20
0.287072
11
0.488465
21
0.280114
0
LINE
8
BLACK
6
CONTINUOUS
10
0.488465
20
0.280114
11
0.487733
21
0.273157
0
LINE
8
BLACK
6
CONTINUOUS
10
0.487733
20
0.273157
11
0.485571
21
0.266503
0
LINE
8
BLACK
6
CONTINUOUS
10
0.485571
20
0.266503
11
0.482073
21
0.260444
0
LINE
8
BLACK
6
CONTINUOUS
10
0.482073
20
0.260444
11
0.477392
21
0.255245
0
LINE
8
BLACK
6
CONTINUOUS
10
0.477392
20
0.255245
11
0.471732
21
0.251133
0
LINE
8
BLACK
6
CONTINUOUS
10
0.471732
20
0.251133
11
0.465341
21
0.248288
0
LINE
8
BLACK
6
CONTINUOUS
10
0.465341
20
0.248288
11
0.458498
21
0.246833
0
LINE
8
BLACK
6
CONTINUOUS
10
0.458498
20
0.246833
11
0.451502
21
0.246833
0
LINE
8
BLACK
6
CONTINUOUS
10
0.451502
20
0.246833
11
0.444659
21
0.248288
0
LINE
8
BLACK
6
CONTINUOUS
10
0.444659
20
0.248288
11
0.438268
21
0.251133
0
LINE
8
BLACK
6
CONTINUOUS
10
0.438268
20
0.251133
11
0.432608
21
0.255245
0
LINE
8
BLACK
6
CONTINUOUS
10
0.432608
20
0.255245
11
0.427927
21
0.260444
0
LINE
8
BLACK
6
CONTINUOUS
10
0.427927
20
0.260444
11
0.424429
21
0.266503
0
LINE
8
BLACK
6
CONTINUOUS
10
0.424429
20
0.266503
11
0.422267
21
0.273157
0
LINE
8
BLACK
6
CONTINUOUS
10
0.422267
20
0.273157
11
0.421535
21
0.280114
0
LINE
8
BLACK
6
CONTINUOUS
10
0.421535
20
0.280114
11
0.422267
21
0.287072
0
LINE
8
BLACK
6
CONTINUOUS
10
0.422267
20
0.287072
11
0.424429
21
0.293726
0
LINE
8
BLACK
6
CONTINUOUS
10
0.424429
20
0.293726
11
0.427927
21
0.299784
0
LINE
8
BLACK
6
CONTINUOUS
10
0.427927
20
0.299784
11
0.432608
21
0.304983
0
LINE
8
BLACK
6
CONTINUOUS
10
0.432608
20
0.304983
11
0.438268
21
0.309096
0
LINE
8
BLACK
6
CONTINUOUS
10
0.438268
20
0.309096
11
0.444659
21
0.311941
0
LINE
8
BLACK
6
CONTINUOUS
10
0.444659
20
0.311941
11
0.451502
21
0.313396
0
LINE
8
BLACK
6
CONTINUOUS
10
0.451502
20
0.313396
11
0.458498
21
0.313396
0
LINE
8
BLACK
6
CONTINUOUS
10
0.458498
20
0.313396
11
0.465341
21
0.311941
0
LINE
8
BLACK
6
CONTINUOUS
10
0.036908
20
0.318045
11
0.039702
21
0.316178
0
LINE
8
BLACK
6
CONTINUOUS
10
0.039702
20
0.316178
11
0.0415689
21
0.313384
0
LINE
8
BLACK
6
CONTINUOUS
10
0.0415689
20
0.313384
11
0.0422244
21
0.310089
0
LINE
8
BLACK
6
CONTINUOUS
10
0.0422244
20
0.310089
11
0.0422244
21
0.289911
0
LINE
8
BLACK
6
CONTINUOUS
10
0.0422244
20
0.289911
11
0.0415689
21
0.286616
0
LINE
8
BLACK
6
CONTINUOUS
10
0.0415689
20
0.286616
11
0.039702
21
0.283822
0
LINE
8
BLACK
6
CONTINUOUS
10
0.039702
20
0.283822
11
0.036908
21
0.281955
0
LINE
8
BLACK
6
CONTINUOUS
10
0.036908
20
0.281955
11
0.0336122
21
0.281299
0
LINE
8
BLACK
6
CONTINUOUS
10
0.0336122
20
0.281299
11
0.0163878
21
0.281299
0
LINE
8
BLACK
6
CONTINUOUS
10
0.0163878
20
0.281299
11
0.013092
21
0.281955
0
LINE
8
BLACK
6
CONTINUOUS
10
0.013092
20
0.281955
11
0.010298
21
0.283822
0
LINE
8
BLACK
6
CONTINUOUS
10
0.010298
20
0.283822
11
0.00843114
21
0.286616
0
LINE
8
BLACK
6
CONTINUOUS
10
0.00843114
20
0.286616
11
0.00777559
21
0.289911
0
LINE
8
BLACK
6
CONTINUOUS
10
0.00777559
20
0.289911
11
0.00777559
21
0.310089
0
LINE
8
BLACK
6
CONTINUOUS
10
0.00777559
20
0.310089
11
0.00843114
21
0.313384
0
LINE
8
BLACK
6
CONTINUOUS
10
0.00843114
20
0.313384
11
0.010298
21
0.316178
0
LINE
8
BLACK
6
CONTINUOUS
10
0.010298
20
0.316178
11
0.013092
21
0.318045
0
LINE
8
BLACK
6
CONTINUOUS
10
0.013092
20
0.318045
11
0.0163878
21
0.318701
0
LINE
8
BLACK
6
CONTINUOUS
10
0.0163878
20
0.318701
11
0.0336122
21
0.318701
0
LINE
8
BLACK
6
CONTINUOUS
10
0.0336122
20
0.318701
11
0.036908
21
0.318045
0
LINE
8
BLACK
6
CONTINUOUS
10
0.0989158
20
0.318045
11
0.10171
21
0.316178
0
LINE
8
BLACK
6
CONTINUOUS
10
0.10171
20
0.316178
11
0.103577
21
0.313384
0
LINE
8
BLACK
6
CONTINUOUS
10
0.103577
20
0.313384
11
0.104232
21
0.310089
0
LINE
8
BLACK
6
CONTINUOUS
10
0.104232
20
0.310089
11
0.104232
21
0.289911
0
LINE
8
BLACK
6
CONTINUOUS
10
0.104232
20
0.289911
11
0.103577
21
0.286616
0
LINE
8
BLACK
6
CONTINUOUS
10
0.103577
20
0.286616
11
0.10171
21
0.283822
0
LINE
8
BLACK
6
CONTINUOUS
10
0.10171
20
0.283822
11
0.0989158
21
0.281955
0
LINE
8
BLACK
6
CONTINUOUS
10
0.0989158
20
0.281955
11
0.0956201
21
0.281299
0
LINE
8
BLACK
6
CONTINUOUS
10
0.0956201
20
0.281299
11
0.0783957
21
0.281299
0
LINE
8
BLACK
6
CONTINUOUS
10
0.0783957
20
0.281299
11
0.0750999
21
0.281955
0
LINE
8
BLACK
6
CONTINUOUS
10
0.0750999
20
0.281955
11
0.0723059
21
0.283822
0
LINE
8
BLACK
6
CONTINUOUS
10
0.0723059
20
0.283822
11
0.070439
21
0.286616
0
LINE
8
BLACK
6
CONTINUOUS
10
0.070439
20
0.286616
11
0.0697835
21
0.289911
0
LINE
8
BLACK
6
CONTINUOUS
10
0.0697835
20
0.289911
11
0.0697835
21
0.310089
0
LINE
8
BLACK
6
CONTINUOUS
10
0.0697835
20
0.310089
11
0.070439
21
0.313384
0
LINE
8
BLACK
6
CONTINUOUS
10
0.070439
20
0.313384
11
0.0723059
21
0.316178
0
LINE
8
BLACK
6
CONTINUOUS
10
0.0723059
20
0.316178
11
0.0750999
21
0.318045
0
LINE
8
BLACK
6
CONTINUOUS
10
0.0750999
20
0.318045
11
0.0783957
21
0.318701
0
LINE
8
BLACK
6
CONTINUOUS
10
0.0783957
20
0.318701
11
0.0956201
21
0.318701
0
LINE
8
BLACK
6
CONTINUOUS
10
0.0956201
20
0.318701
11
0.0989158
21
0.318045
0
LINE
8
BLACK
6
CONTINUOUS
10
-0.417346
20
0.317657
11
-0.41543
21
0.316377
0
LINE
8
BLACK
6
CONTINUOUS
10
-0.41543
20
0.316377
11
-0.41415
21
0.314461
0
LINE
8
BLACK
6
CONTINUOUS
10
-0.41415
20
0.314461
11
-0.413701
21
0.312201
0
LINE
8
BLACK
6
CONTINUOUS
10
-0.413701
20
0.312201
11
-0.413701
21
0.30039
0
LINE
8
BLACK
6
CONTINUOUS
10
-0.413701
20
0.30039
11
-0.41415
21
0.29813
0
LINE
8
BLACK
6
CONTINUOUS
10
-0.41415
20
0.29813
11
-0.41543
21
0.296214
0
LINE
8
BLACK
6
CONTINUOUS
10
-0.41543
20
0.296214
11
-0.417346
21
0.294934
0
LINE
8
BLACK
6
CONTINUOUS
10
-0.417346
20
0.294934
11
-0.419606
21
0.294484
0
LINE
8
BLACK
6
CONTINUOUS
10
-0.419606
20
0.294484
11
-0.474724
21
0.294484
0
LINE
8
BLACK
6
CONTINUOUS
10
-0.474724
20
0.294484
11
-0.476984
21
0.294934
0
LINE
8
BLACK
6
CONTINUOUS
10
-0.476984
20
0.294934
11
-0.4789
21
0.296214
0
LINE
8
BLACK
6
CONTINUOUS
10
-0.4789
20
0.296214
11
-0.48018
21
0.29813
0
LINE
8
BLACK
6
CONTINUOUS
10
-0.48018
20
0.29813
11
-0.48063
21
0.30039
0
LINE
8
BLACK
6
CONTINUOUS
10
-0.48063
20
0.30039
11
-0.48063
21
0.312201
0
LINE
8
BLACK
6
CONTINUOUS
10
-0.48063
20
0.312201
11
-0.48018
21
0.314461
0
LINE
8
BLACK
6
CONTINUOUS
10
-0.48018
20
0.314461
11
-0.4789
21
0.316377
0
LINE
8
BLACK
6
CONTINUOUS
10
-0.4789
20
0.316377
11
-0.476984
21
0.317657
0
LINE
8
BLACK
6
CONTINUOUS
10
-0.476984
20
0.317657
11
-0.474724
21
0.318106
0
LINE
8
BLACK
6
CONTINUOUS
10
-0.474724
20
0.318106
11
-0.419606
21
0.318106
0
LINE
8
BLACK
6
CONTINUOUS
10
-0.419606
20
0.318106
11
-0.417346
21
0.317657
0
LINE
8
BLACK
6
CONTINUOUS
10
-0.186616
20
0.360565
11
-0.183822
21
0.358698
0
LINE
8
BLACK
6
CONTINUOUS
10
-0.183822
20
0.358698
11
-0.181955
21
0.355904
0
LINE
8
BLACK
6
CONTINUOUS
10
-0.181955
20
0.355904
11
-0.181299
21
0.352608
0
LINE
8
BLACK
6
CONTINUOUS
10
-0.181299
20
0.352608
11
-0.181299
21
0.335384
0
LINE
8
BLACK
6
CONTINUOUS
10
-0.181299
20
0.335384
11
-0.181955
21
0.332088
0
LINE
8
BLACK
6
CONTINUOUS
10
-0.181955
20
0.332088
11
-0.183822
21
0.329294
0
LINE
8
BLACK
6
CONTINUOUS
10
-0.183822
20
0.329294
11
-0.186616
21
0.327427
0
LINE
8
BLACK
6
CONTINUOUS
10
-0.186616
20
0.327427
11
-0.189911
21
0.326772
0
LINE
8
BLACK
6
CONTINUOUS
10
-0.189911
20
0.326772
11
-0.210089
21
0.326772
0
LINE
8
BLACK
6
CONTINUOUS
10
-0.210089
20
0.326772
11
-0.213384
21
0.327427
0
LINE
8
BLACK
6
CONTINUOUS
10
-0.213384
20
0.327427
11
-0.216178
21
0.329294
0
LINE
8
BLACK
6
CONTINUOUS
10
-0.216178
20
0.329294
11
-0.218045
21
0.332088
0
LINE
8
BLACK
6
CONTINUOUS
10
-0.218045
20
0.332088
11
-0.218701
21
0.335384
0
LINE
8
BLACK
6
CONTINUOUS
10
-0.218701
20
0.335384
11
-0.218701
21
0.352608
0
LINE
8
BLACK
6
CONTINUOUS
10
-0.218701
20
0.352608
11
-0.218045
21
0.355904
0
LINE
8
BLACK
6
CONTINUOUS
10
-0.218045
20
0.355904
11
-0.216178
21
0.358698
0
LINE
8
BLACK
6
CONTINUOUS
10
-0.216178
20
0.358698
11
-0.213384
21
0.360565
0
LINE
8
BLACK
6
CONTINUOUS
10
-0.213384
20
0.360565
11
-0.210089
21
0.36122
0
LINE
8
BLACK
6
CONTINUOUS
10
-0.210089
20
0.36122
11
-0.189911
21
0.36122
0
LINE
8
BLACK
6
CONTINUOUS
10
-0.189911
20
0.36122
11
-0.186616
21
0.360565
0
LINE
8
BLACK
6
CONTINUOUS
10
-0.116616
20
0.360565
11
-0.113822
21
0.358698
0
LINE
8
BLACK
6
CONTINUOUS
10
-0.113822
20
0.358698
11
-0.111955
21
0.355904
0
LINE
8
BLACK
6
CONTINUOUS
10
-0.111955
20
0.355904
11
-0.111299
21
0.352608
0
LINE
8
BLACK
6
CONTINUOUS
10
-0.111299
20
0.352608
11
-0.111299
21
0.335384
0
LINE
8
BLACK
6
CONTINUOUS
10
-0.111299
20
0.335384
11
-0.111955
21
0.332088
0
LINE
8
BLACK
6
CONTINUOUS
10
-0.111955
20
0.332088
11
-0.113822
21
0.329294
0
LINE
8
BLACK
6
CONTINUOUS
10
-0.113822
20
0.329294
11
-0.116616
21
0.327427
0
LINE
8
BLACK
6
CONTINUOUS
10
-0.116616
20
0.327427
11
-0.119911
21
0.326772
0
LINE
8
BLACK
6
CONTINUOUS
10
-0.119911
20
0.326772
11
-0.140089
21
0.326772
0
LINE
8
BLACK
6
CONTINUOUS
10
-0.140089
20
0.326772
11
-0.143384
21
0.327427
0
LINE
8
BLACK
6
CONTINUOUS
10
-0.143384
20
0.327427
11
-0.146178
21
0.329294
0
LINE
8
BLACK
6
CONTINUOUS
10
-0.146178
20
0.329294
11
-0.148045
21
0.332088
0
LINE
8
BLACK
6
CONTINUOUS
10
-0.148045
20
0.332088
11
-0.148701
21
0.335384
0
LINE
8
BLACK
6
CONTINUOUS
10
-0.148701
20
0.335384
11
-0.148701
21
0.352608
0
LINE
8
BLACK
6
CONTINUOUS
10
-0.148701
20
0.352608
11
-0.148045
21
0.355904
0
LINE
8
BLACK
6
CONTINUOUS
10
-0.148045
20
0.355904
11
-0.146178
21
0.358698
0
LINE
8
BLACK
6
CONTINUOUS
10
-0.146178
20
0.358698
11
-0.143384
21
0.360565
0
LINE
8
BLACK
6
CONTINUOUS
10
-0.143384
20
0.360565
11
-0.140089
21
0.36122
0
LINE
8
BLACK
6
CONTINUOUS
10
-0.140089
20
0.36122
11
-0.119911
21
0.36122
0
LINE
8
BLACK
6
CONTINUOUS
10
-0.119911
20
0.36122
11
-0.116616
21
0.360565
0
LINE
8
BLACK
6
CONTINUOUS
10
-0.417346
20
0.36687
11
-0.41543
21
0.365589
0
LINE
8
BLACK
6
CONTINUOUS
10
-0.41543
20
0.365589
11
-0.41415
21
0.363674
0
LINE
8
BLACK
6
CONTINUOUS
10
-0.41415
20
0.363674
11
-0.413701
21
0.361414
0
LINE
8
BLACK
6
CONTINUOUS
10
-0.413701
20
0.361414
11
-0.413701
21
0.349603
0
LINE
8
BLACK
6
CONTINUOUS
10
-0.413701
20
0.349603
11
-0.41415
21
0.347343
0
LINE
8
BLACK
6
CONTINUOUS
10
-0.41415
20
0.347343
11
-0.41543
21
0.345427
0
LINE
8
BLACK
6
CONTINUOUS
10
-0.41543
20
0.345427
11
-0.417346
21
0.344147
0
LINE
8
BLACK
6
CONTINUOUS
10
-0.417346
20
0.344147
11
-0.419606
21
0.343697
0
LINE
8
BLACK
6
CONTINUOUS
10
-0.419606
20
0.343697
11
-0.474724
21
0.343697
0
LINE
8
BLACK
6
CONTINUOUS
10
-0.474724
20
0.343697
11
-0.476984
21
0.344147
0
LINE
8
BLACK
6
CONTINUOUS
10
-0.476984
20
0.344147
11
-0.4789
21
0.345427
0
LINE
8
BLACK
6
CONTINUOUS
10
-0.4789
20
0.345427
11
-0.48018
21
0.347343
0
LINE
8
BLACK
6
CONTINUOUS
10
-0.48018
20
0.347343
11
-0.48063
21
0.349603
0
LINE
8
BLACK
6
CONTINUOUS
10
-0.48063
20
0.349603
11
-0.48063
21
0.361414
0
LINE
8
BLACK
6
CONTINUOUS
10
-0.48063
20
0.361414
11
-0.48018
21
0.363674
0
LINE
8
BLACK
6
CONTINUOUS
10
-0.48018
20
0.363674
11
-0.4789
21
0.365589
0
LINE
8
BLACK
6
CONTINUOUS
10
-0.4789
20
0.365589
11
-0.476984
21
0.36687
0
LINE
8
BLACK
6
CONTINUOUS
10
-0.476984
20
0.36687
11
-0.474724
21
0.367319
0
LINE
8
BLACK
6
CONTINUOUS
10
-0.474724
20
0.367319
11
-0.419606
21
0.367319
0
LINE
8
BLACK
6
CONTINUOUS
10
-0.419606
20
0.367319
11
-0.417346
21
0.36687
0
LINE
8
BLACK
6
CONTINUOUS
10
-0.273517
20
0.396003
11
-0.270324
21
0.393869
0
LINE
8
BLACK
6
CONTINUOUS
10
-0.270324
20
0.393869
11
-0.26819
21
0.390676
0
LINE
8
BLACK
6
CONTINUOUS
10
-0.26819
20
0.390676
11
-0.267441
21
0.386909
0
LINE
8
BLACK
6
CONTINUOUS
10
-0.267441
20
0.386909
11
-0.267441
21
0.36624
0
LINE
8
BLACK
6
CONTINUOUS
10
-0.267441
20
0.36624
11
-0.26819
21
0.362474
0
LINE
8
BLACK
6
CONTINUOUS
10
-0.26819
20
0.362474
11
-0.270324
21
0.35928
0
LINE
8
BLACK
6
CONTINUOUS
10
-0.270324
20
0.35928
11
-0.273517
21
0.357147
0
LINE
8
BLACK
6
CONTINUOUS
10
-0.273517
20
0.357147
11
-0.277283
21
0.356398
0
LINE
8
BLACK
6
CONTINUOUS
10
-0.277283
20
0.356398
11
-0.312717
21
0.356398
0
LINE
8
BLACK
6
CONTINUOUS
10
-0.312717
20
0.356398
11
-0.316483
21
0.357147
0
LINE
8
BLACK
6
CONTINUOUS
10
-0.316483
20
0.357147
11
-0.319676
21
0.35928
0
LINE
8
BLACK
6
CONTINUOUS
10
-0.319676
20
0.35928
11
-0.32181
21
0.362474
0
LINE
8
BLACK
6
CONTINUOUS
10
-0.32181
20
0.362474
11
-0.322559
21
0.36624
0
LINE
8
BLACK
6
CONTINUOUS
10
-0.322559
20
0.36624
11
-0.322559
21
0.386909
0
LINE
8
BLACK
6
CONTINUOUS
10
-0.322559
20
0.386909
11
-0.32181
21
0.390676
0
LINE
8
BLACK
6
CONTINUOUS
10
-0.32181
20
0.390676
11
-0.319676
21
0.393869
0
LINE
8
BLACK
6
CONTINUOUS
10
-0.319676
20
0.393869
11
-0.316483
21
0.396003
0
LINE
8
BLACK
6
CONTINUOUS
10
-0.316483
20
0.396003
11
-0.312717
21
0.396752
0
LINE
8
BLACK
6
CONTINUOUS
10
-0.312717
20
0.396752
11
-0.277283
21
0.396752
0
LINE
8
BLACK
6
CONTINUOUS
10
-0.277283
20
0.396752
11
-0.273517
21
0.396003
0
LINE
8
BLACK
6
CONTINUOUS
10
0.520499
20
0.418542
11
0.523692
21
0.416409
0
LINE
8
BLACK
6
CONTINUOUS
10
0.523692
20
0.416409
11
0.525826
21
0.413215
0
LINE
8
BLACK
6
CONTINUOUS
10
0.525826
20
0.413215
11
0.526575
21
0.409449
0
LINE
8
BLACK
6
CONTINUOUS
10
0.526575
20
0.409449
11
0.526575
21
0.389764
0
LINE
8
BLACK
6
CONTINUOUS
10
0.526575
20
0.389764
11
0.525826
21
0.385997
0
LINE
8
BLACK
6
CONTINUOUS
10
0.525826
20
0.385997
11
0.523692
21
0.382804
0
LINE
8
BLACK
6
CONTINUOUS
10
0.523692
20
0.382804
11
0.520499
21
0.38067
0
LINE
8
BLACK
6
CONTINUOUS
10
0.520499
20
0.38067
11
0.516732
21
0.379921
0
LINE
8
BLACK
6
CONTINUOUS
10
0.516732
20
0.379921
11
0.479331
21
0.379921
0
LINE
8
BLACK
6
CONTINUOUS
10
0.479331
20
0.379921
11
0.475564
21
0.38067
0
LINE
8
BLACK
6
CONTINUOUS
10
0.475564
20
0.38067
11
0.472371
21
0.382804
0
LINE
8
BLACK
6
CONTINUOUS
10
0.472371
20
0.382804
11
0.470237
21
0.385997
0
LINE
8
BLACK
6
CONTINUOUS
10
0.470237
20
0.385997
11
0.469488
21
0.389764
0
LINE
8
BLACK
6
CONTINUOUS
10
0.469488
20
0.389764
11
0.469488
21
0.409449
0
LINE
8
BLACK
6
CONTINUOUS
10
0.469488
20
0.409449
11
0.470237
21
0.413215
0
LINE
8
BLACK
6
CONTINUOUS
10
0.470237
20
0.413215
11
0.472371
21
0.416409
0
LINE
8
BLACK
6
CONTINUOUS
10
0.472371
20
0.416409
11
0.475564
21
0.418542
0
LINE
8
BLACK
6
CONTINUOUS
10
0.475564
20
0.418542
11
0.479331
21
0.419291
0
LINE
8
BLACK
6
CONTINUOUS
10
0.479331
20
0.419291
11
0.516732
21
0.419291
0
LINE
8
BLACK
6
CONTINUOUS
10
0.516732
20
0.419291
11
0.520499
21
0.418542
0
LINE
8
BLACK
6
CONTINUOUS
10
0.606129
20
0.420511
11
0.609322
21
0.418377
0
LINE
8
BLACK
6
CONTINUOUS
10
0.609322
20
0.418377
11
0.611456
21
0.415184
0
LINE
8
BLACK
6
CONTINUOUS
10
0.611456
20
0.415184
11
0.612205
21
0.411417
0
LINE
8
BLACK
6
CONTINUOUS
10
0.612205
20
0.411417
11
0.612205
21
0.390748
0
LINE
8
BLACK
6
CONTINUOUS
10
0.612205
20
0.390748
11
0.611456
21
0.386981
0
LINE
8
BLACK
6
CONTINUOUS
10
0.611456
20
0.386981
11
0.609322
21
0.383788
0
LINE
8
BLACK
6
CONTINUOUS
10
0.609322
20
0.383788
11
0.606129
21
0.381655
0
LINE
8
BLACK
6
CONTINUOUS
10
0.606129
20
0.381655
11
0.602362
21
0.380906
0
LINE
8
BLACK
6
CONTINUOUS
10
0.602362
20
0.380906
11
0.566929
21
0.380906
0
LINE
8
BLACK
6
CONTINUOUS
10
0.566929
20
0.380906
11
0.563163
21
0.381655
0
LINE
8
BLACK
6
CONTINUOUS
10
0.563163
20
0.381655
11
0.559969
21
0.383788
0
LINE
8
BLACK
6
CONTINUOUS
10
0.559969
20
0.383788
11
0.557836
21
0.386981
0
LINE
8
BLACK
6
CONTINUOUS
10
0.557836
20
0.386981
11
0.557087
21
0.390748
0
LINE
8
BLACK
6
CONTINUOUS
10
0.557087
20
0.390748
11
0.557087
21
0.411417
0
LINE
8
BLACK
6
CONTINUOUS
10
0.557087
20
0.411417
11
0.557836
21
0.415184
0
LINE
8
BLACK
6
CONTINUOUS
10
0.557836
20
0.415184
11
0.559969
21
0.418377
0
LINE
8
BLACK
6
CONTINUOUS
10
0.559969
20
0.418377
11
0.563163
21
0.420511
0
LINE
8
BLACK
6
CONTINUOUS
10
0.563163
20
0.420511
11
0.566929
21
0.42126
0
LINE
8
BLACK
6
CONTINUOUS
10
0.566929
20
0.42126
11
0.602362
21
0.42126
0
LINE
8
BLACK
6
CONTINUOUS
10
0.602362
20
0.42126
11
0.606129
21
0.420511
0
LINE
8
BLACK
6
CONTINUOUS
10
0.4329
20
0.420511
11
0.436094
21
0.418377
0
LINE
8
BLACK
6
CONTINUOUS
10
0.436094
20
0.418377
11
0.438227
21
0.415184
0
LINE
8
BLACK
6
CONTINUOUS
10
0.438227
20
0.415184
11
0.438976
21
0.411417
0
LINE
8
BLACK
6
CONTINUOUS
10
0.438976
20
0.411417
11
0.438976
21
0.390748
0
LINE
8
BLACK
6
CONTINUOUS
10
0.438976
20
0.390748
11
0.438227
21
0.386981
0
LINE
8
BLACK
6
CONTINUOUS
10
0.438227
20
0.386981
11
0.436094
21
0.383788
0
LINE
8
BLACK
6
CONTINUOUS
10
0.436094
20
0.383788
11
0.4329
21
0.381655
0
LINE
8
BLACK
6
CONTINUOUS
10
0.4329
20
0.381655
11
0.429134
21
0.380906
0
LINE
8
BLACK
6
CONTINUOUS
10
0.429134
20
0.380906
11
0.393701
21
0.380906
0
LINE
8
BLACK
6
CONTINUOUS
10
0.393701
20
0.380906
11
0.389934
21
0.381655
0
LINE
8
BLACK
6
CONTINUOUS
10
0.389934
20
0.381655
11
0.386741
21
0.383788
0
LINE
8
BLACK
6
CONTINUOUS
10
0.386741
20
0.383788
11
0.384607
21
0.386981
0
LINE
8
BLACK
6
CONTINUOUS
10
0.384607
20
0.386981
11
0.383858
21
0.390748
0
LINE
8
BLACK
6
CONTINUOUS
10
0.383858
20
0.390748
11
0.383858
21
0.411417
0
LINE
8
BLACK
6
CONTINUOUS
10
0.383858
20
0.411417
11
0.384607
21
0.415184
0
LINE
8
BLACK
6
CONTINUOUS
10
0.384607
20
0.415184
11
0.386741
21
0.418377
0
LINE
8
BLACK
6
CONTINUOUS
10
0.386741
20
0.418377
11
0.389934
21
0.420511
0
LINE
8
BLACK
6
CONTINUOUS
10
0.389934
20
0.420511
11
0.393701
21
0.42126
0
LINE
8
BLACK
6
CONTINUOUS
10
0.393701
20
0.42126
11
0.429134
21
0.42126
0
LINE
8
BLACK
6
CONTINUOUS
10
0.429134
20
0.42126
11
0.4329
21
0.420511
0
LINE
8
BLACK
6
CONTINUOUS
10
-0.116616
20
0.422573
11
-0.113822
21
0.420706
0
LINE
8
BLACK
6
CONTINUOUS
10
-0.113822
20
0.420706
11
-0.111955
21
0.417912
0
LINE
8
BLACK
6
CONTINUOUS
10
-0.111955
20
0.417912
11
-0.111299
21
0.414616
0
LINE
8
BLACK
6
CONTINUOUS
10
-0.111299
20
0.414616
11
-0.111299
21
0.397392
0
LINE
8
BLACK
6
CONTINUOUS
10
-0.111299
20
0.397392
11
-0.111955
21
0.394096
0
LINE
8
BLACK
6
CONTINUOUS
10
-0.111955
20
0.394096
11
-0.113822
21
0.391302
0
LINE
8
BLACK
6
CONTINUOUS
10
-0.113822
20
0.391302
11
-0.116616
21
0.389435
0
LINE
8
BLACK
6
CONTINUOUS
10
-0.116616
20
0.389435
11
-0.119911
21
0.38878
0
LINE
8
BLACK
6
CONTINUOUS
10
-0.119911
20
0.38878
11
-0.140089
21
0.38878
0
LINE
8
BLACK
6
CONTINUOUS
10
-0.140089
20
0.38878
11
-0.143384
21
0.389435
0
LINE
8
BLACK
6
CONTINUOUS
10
-0.143384
20
0.389435
11
-0.146178
21
0.391302
0
LINE
8
BLACK
6
CONTINUOUS
10
-0.146178
20
0.391302
11
-0.148045
21
0.394096
0
LINE
8
BLACK
6
CONTINUOUS
10
-0.148045
20
0.394096
11
-0.148701
21
0.397392
0
LINE
8
BLACK
6
CONTINUOUS
10
-0.148701
20
0.397392
11
-0.148701
21
0.414616
0
LINE
8
BLACK
6
CONTINUOUS
10
-0.148701
20
0.414616
11
-0.148045
21
0.417912
0
LINE
8
BLACK
6
CONTINUOUS
10
-0.148045
20
0.417912
11
-0.146178
21
0.420706
0
LINE
8
BLACK
6
CONTINUOUS
10
-0.146178
20
0.420706
11
-0.143384
21
0.422573
0
LINE
8
BLACK
6
CONTINUOUS
10
-0.143384
20
0.422573
11
-0.140089
21
0.423228
0
LINE
8
BLACK
6
CONTINUOUS
10
-0.140089
20
0.423228
11
-0.119911
21
0.423228
0
LINE
8
BLACK
6
CONTINUOUS
10
-0.119911
20
0.423228
11
-0.116616
21
0.422573
0
LINE
8
BLACK
6
CONTINUOUS
10
-0.186616
20
0.422573
11
-0.183822
21
0.420706
0
LINE
8
BLACK
6
CONTINUOUS
10
-0.183822
20
0.420706
11
-0.181955
21
0.417912
0
LINE
8
BLACK
6
CONTINUOUS
10
-0.181955
20
0.417912
11
-0.181299
21
0.414616
0
LINE
8
BLACK
6
CONTINUOUS
10
-0.181299
20
0.414616
11
-0.181299
21
0.397392
0
LINE
8
BLACK
6
CONTINUOUS
10
-0.181299
20
0.397392
11
-0.181955
21
0.394096
0
LINE
8
BLACK
6
CONTINUOUS
10
-0.181955
20
0.394096
11
-0.183822
21
0.391302
0
LINE
8
BLACK
6
CONTINUOUS
10
-0.183822
20
0.391302
11
-0.186616
21
0.389435
0
LINE
8
BLACK
6
CONTINUOUS
10
-0.186616
20
0.389435
11
-0.189911
21
0.38878
0
LINE
8
BLACK
6
CONTINUOUS
10
-0.189911
20
0.38878
11
-0.210089
21
0.38878
0
LINE
8
BLACK
6
CONTINUOUS
10
-0.210089
20
0.38878
11
-0.213384
21
0.389435
0
LINE
8
BLACK
6
CONTINUOUS
10
-0.213384
20
0.389435
11
-0.216178
21
0.391302
0
LINE
8
BLACK
6
CONTINUOUS
10
-0.216178
20
0.391302
11
-0.218045
21
0.394096
0
LINE
8
BLACK
6
CONTINUOUS
10
-0.218045
20
0.394096
11
-0.218701
21
0.397392
0
LINE
8
BLACK
6
CONTINUOUS
10
-0.218701
20
0.397392
11
-0.218701
21
0.414616
0
LINE
8
BLACK
6
CONTINUOUS
10
-0.218701
20
0.414616
11
-0.218045
21
0.417912
0
LINE
8
BLACK
6
CONTINUOUS
10
-0.218045
20
0.417912
11
-0.216178
21
0.420706
0
LINE
8
BLACK
6
CONTINUOUS
10
-0.216178
20
0.420706
11
-0.213384
21
0.422573
0
LINE
8
BLACK
6
CONTINUOUS
10
-0.213384
20
0.422573
11
-0.210089
21
0.423228
0
LINE
8
BLACK
6
CONTINUOUS
10
-0.210089
20
0.423228
11
-0.189911
21
0.423228
0
LINE
8
BLACK
6
CONTINUOUS
10
-0.189911
20
0.423228
11
-0.186616
21
0.422573
0
LINE
8
BLACK
6
CONTINUOUS
10
-0.417346
20
0.416082
11
-0.41543
21
0.414802
0
LINE
8
BLACK
6
CONTINUOUS
10
-0.41543
20
0.414802
11
-0.41415
21
0.412886
0
LINE
8
BLACK
6
CONTINUOUS
10
-0.41415
20
0.412886
11
-0.413701
21
0.410626
0
LINE
8
BLACK
6
CONTINUOUS
10
-0.413701
20
0.410626
11
-0.413701
21
0.398815
0
LINE
8
BLACK
6
CONTINUOUS
10
-0.413701
20
0.398815
11
-0.41415
21
0.396555
0
LINE
8
BLACK
6
CONTINUOUS
10
-0.41415
20
0.396555
11
-0.41543
21
0.394639
0
LINE
8
BLACK
6
CONTINUOUS
10
-0.41543
20
0.394639
11
-0.417346
21
0.393359
0
LINE
8
BLACK
6
CONTINUOUS
10
-0.417346
20
0.393359
11
-0.419606
21
0.39291
0
LINE
8
BLACK
6
CONTINUOUS
10
-0.419606
20
0.39291
11
-0.474724
21
0.39291
0
LINE
8
BLACK
6
CONTINUOUS
10
-0.474724
20
0.39291
11
-0.476984
21
0.393359
0
LINE
8
BLACK
6
CONTINUOUS
10
-0.476984
20
0.393359
11
-0.4789
21
0.394639
0
LINE
8
BLACK
6
CONTINUOUS
10
-0.4789
20
0.394639
11
-0.48018
21
0.396555
0
LINE
8
BLACK
6
CONTINUOUS
10
-0.48018
20
0.396555
11
-0.48063
21
0.398815
0
LINE
8
BLACK
6
CONTINUOUS
10
-0.48063
20
0.398815
11
-0.48063
21
0.410626
0
LINE
8
BLACK
6
CONTINUOUS
10
-0.48063
20
0.410626
11
-0.48018
21
0.412886
0
LINE
8
BLACK
6
CONTINUOUS
10
-0.48018
20
0.412886
11
-0.4789
21
0.414802
0
LINE
8
BLACK
6
CONTINUOUS
10
-0.4789
20
0.414802
11
-0.476984
21
0.416082
0
LINE
8
BLACK
6
CONTINUOUS
10
-0.476984
20
0.416082
11
-0.474724
21
0.416532
0
LINE
8
BLACK
6
CONTINUOUS
10
-0.474724
20
0.416532
11
-0.419606
21
0.416532
0
LINE
8
BLACK
6
CONTINUOUS
10
-0.419606
20
0.416532
11
-0.417346
21
0.416082
0
LINE
8
BLACK
6
CONTINUOUS
10
0.153384
20
0.429561
11
0.156178
21
0.427694
0
LINE
8
BLACK
6
CONTINUOUS
10
0.156178
20
0.427694
11
0.158045
21
0.4249
0
LINE
8
BLACK
6
CONTINUOUS
10
0.158045
20
0.4249
11
0.158701
21
0.421604
0
LINE
8
BLACK
6
CONTINUOUS
10
0.158701
20
0.421604
11
0.158701
21
0.40438
0
LINE
8
BLACK
6
CONTINUOUS
10
0.158701
20
0.40438
11
0.158045
21
0.401084
0
LINE
8
BLACK
6
CONTINUOUS
10
0.158045
20
0.401084
11
0.156178
21
0.39829
0
LINE
8
BLACK
6
CONTINUOUS
10
0.156178
20
0.39829
11
0.153384
21
0.396423
0
LINE
8
BLACK
6
CONTINUOUS
10
0.153384
20
0.396423
11
0.150089
21
0.395768
0
LINE
8
BLACK
6
CONTINUOUS
10
0.150089
20
0.395768
11
0.129911
21
0.395768
0
LINE
8
BLACK
6
CONTINUOUS
10
0.129911
20
0.395768
11
0.126616
21
0.396423
0
LINE
8
BLACK
6
CONTINUOUS
10
0.126616
20
0.396423
11
0.123822
21
0.39829
0
LINE
8
BLACK
6
CONTINUOUS
10
0.123822
20
0.39829
11
0.121955
21
0.401084
0
LINE
8
BLACK
6
CONTINUOUS
10
0.121955
20
0.401084
11
0.121299
21
0.40438
0
LINE
8
BLACK
6
CONTINUOUS
10
0.121299
20
0.40438
11
0.121299
21
0.421604
0
LINE
8
BLACK
6
CONTINUOUS
10
0.121299
20
0.421604
11
0.121955
21
0.4249
0
LINE
8
BLACK
6
CONTINUOUS
10
0.121955
20
0.4249
11
0.123822
21
0.427694
0
LINE
8
BLACK
6
CONTINUOUS
10
0.123822
20
0.427694
11
0.126616
21
0.429561
0
LINE
8
BLACK
6
CONTINUOUS
10
0.126616
20
0.429561
11
0.129911
21
0.430217
0
LINE
8
BLACK
6
CONTINUOUS
10
0.129911
20
0.430217
11
0.150089
21
0.430217
0
LINE
8
BLACK
6
CONTINUOUS
10
0.150089
20
0.430217
11
0.153384
21
0.429561
0
LINE
8
BLACK
6
CONTINUOUS
10
-0.015748
20
0.399803
11
-0.0574803
21
0.399803
0
LINE
8
BLACK
6
CONTINUOUS
10
-0.0574803
20
0.399803
11
-0.0574803
21
0.425394
0
LINE
8
BLACK
6
CONTINUOUS
10
-0.0574803
20
0.425394
11
-0.015748
21
0.425394
0
LINE
8
BLACK
6
CONTINUOUS
10
-0.015748
20
0.425394
11
-0.015748
21
0.399803
0
LINE
8
BLACK
6
CONTINUOUS
10
0.0708661
20
0.399803
11
0.0291339
21
0.399803
0
LINE
8
BLACK
6
CONTINUOUS
10
0.0291339
20
0.399803
11
0.0291339
21
0.425394
0
LINE
8
BLACK
6
CONTINUOUS
10
0.0291339
20
0.425394
11
0.0708661
21
0.425394
0
LINE
8
BLACK
6
CONTINUOUS
10
0.0708661
20
0.425394
11
0.0708661
21
0.399803
0
LINE
8
BLACK
6
CONTINUOUS
10
0.321181
20
0.459332
11
0.324328
21
0.459274
0
LINE
8
BLACK
6
CONTINUOUS
10
0.324328
20
0.459274
11
0.329656
21
0.45761
0
LINE
8
BLACK
6
CONTINUOUS
10
0.329656
20
0.45761
11
0.334302
21
0.454517
0
LINE
8
BLACK
6
CONTINUOUS
10
0.334302
20
0.454517
11
0.337893
21
0.450245
0
LINE
8
BLACK
6
CONTINUOUS
10
0.337893
20
0.450245
11
0.340141
21
0.445136
0
LINE
8
BLACK
6
CONTINUOUS
10
0.340141
20
0.445136
11
0.340833
21
0.439843
0
LINE
8
BLACK
6
CONTINUOUS
10
0.340833
20
0.439843
11
0.340866
21
0.439843
0
LINE
8
BLACK
6
CONTINUOUS
10
0.340866
20
0.439843
11
0.340866
21
0.420157
0
LINE
8
BLACK
6
CONTINUOUS
10
0.340866
20
0.420157
11
0.340833
21
0.420157
0
LINE
8
BLACK
6
CONTINUOUS
10
0.340833
20
0.420157
11
0.340865
21
0.419917
0
LINE
8
BLACK
6
CONTINUOUS
10
0.340865
20
0.419917
11
0.340006
21
0.414402
0
LINE
8
BLACK
6
CONTINUOUS
10
0.340006
20
0.414402
11
0.337634
21
0.40935
0
LINE
8
BLACK
6
CONTINUOUS
10
0.337634
20
0.40935
11
0.333939
21
0.405167
0
LINE
8
BLACK
6
CONTINUOUS
10
0.333939
20
0.405167
11
0.329219
21
0.402188
0
LINE
8
BLACK
6
CONTINUOUS
10
0.329219
20
0.402188
11
0.323853
21
0.400655
0
LINE
8
BLACK
6
CONTINUOUS
10
0.323853
20
0.400655
11
0.321181
21
0.400671
0
LINE
8
BLACK
6
CONTINUOUS
10
0.321181
20
0.400671
11
0.321181
21
0.400472
0
LINE
8
BLACK
6
CONTINUOUS
10
0.321181
20
0.400472
11
0.299528
21
0.400472
0
LINE
8
BLACK
6
CONTINUOUS
10
0.299528
20
0.400472
11
0.299528
21
0.459528
0
LINE
8
BLACK
6
CONTINUOUS
10
0.299528
20
0.459528
11
0.321181
21
0.459528
0
LINE
8
BLACK
6
CONTINUOUS
10
0.321181
20
0.459528
11
0.321181
21
0.459332
0
LINE
8
BLACK
6
CONTINUOUS
10
0.289685
20
0.400472
11
0.250315
21
0.400472
0
LINE
8
BLACK
6
CONTINUOUS
10
0.250315
20
0.400472
11
0.250315
21
0.459528
0
LINE
8
BLACK
6
CONTINUOUS
10
0.250315
20
0.459528
11
0.289685
21
0.459528
0
LINE
8
BLACK
6
CONTINUOUS
10
0.289685
20
0.459528
11
0.289685
21
0.400472
0
LINE
8
BLACK
6
CONTINUOUS
10
0.240472
20
0.400472
11
0.218819
21
0.400472
0
LINE
8
BLACK
6
CONTINUOUS
10
0.218819
20
0.400472
11
0.218819
21
0.400671
0
LINE
8
BLACK
6
CONTINUOUS
10
0.218819
20
0.400671
11
0.215909
21
0.400689
0
LINE
8
BLACK
6
CONTINUOUS
10
0.215909
20
0.400689
11
0.210562
21
0.402288
0
LINE
8
BLACK
6
CONTINUOUS
10
0.210562
20
0.402288
11
0.205878
21
0.405324
0
LINE
8
BLACK
6
CONTINUOUS
10
0.205878
20
0.405324
11
0.202235
21
0.409552
0
LINE
8
BLACK
6
CONTINUOUS
10
0.202235
20
0.409552
11
0.199925
21
0.414633
0
LINE
8
BLACK
6
CONTINUOUS
10
0.199925
20
0.414633
11
0.199134
21
0.420157
0
LINE
8
BLACK
6
CONTINUOUS
10
0.199134
20
0.420157
11
0.199134
21
0.439843
0
LINE
8
BLACK
6
CONTINUOUS
10
0.199134
20
0.439843
11
0.19914
21
0.440323
0
LINE
8
BLACK
6
CONTINUOUS
10
0.19914
20
0.440323
11
0.200066
21
0.445827
0
LINE
8
BLACK
6
CONTINUOUS
10
0.200066
20
0.445827
11
0.202499
21
0.45085
0
LINE
8
BLACK
6
CONTINUOUS
10
0.202499
20
0.45085
11
0.206245
21
0.454988
0
LINE
8
BLACK
6
CONTINUOUS
10
0.206245
20
0.454988
11
0.211001
21
0.457909
0
LINE
8
BLACK
6
CONTINUOUS
10
0.211001
20
0.457909
11
0.216386
21
0.459377
0
LINE
8
BLACK
6
CONTINUOUS
10
0.216386
20
0.459377
11
0.218819
21
0.459332
0
LINE
8
BLACK
6
CONTINUOUS
10
0.218819
20
0.459332
11
0.218819
21
0.459528
0
LINE
8
BLACK
6
CONTINUOUS
10
0.218819
20
0.459528
11
0.240472
21
0.459528
0
LINE
8
BLACK
6
CONTINUOUS
10
0.240472
20
0.459528
11
0.240472
21
0.400472
0
LINE
8
BLACK
6
CONTINUOUS
10
-0.273517
20
0.467853
11
-0.270324
21
0.46572
0
LINE
8
BLACK
6
CONTINUOUS
10
-0.270324
20
0.46572
11
-0.26819
21
0.462526
0
LINE
8
BLACK
6
CONTINUOUS
10
-0.26819
20
0.462526
11
-0.267441
21
0.45876
0
LINE
8
BLACK
6
CONTINUOUS
10
-0.267441
20
0.45876
11
-0.267441
21
0.438091
0
LINE
8
BLACK
6
CONTINUOUS
10
-0.267441
20
0.438091
11
-0.26819
21
0.434324
0
LINE
8
BLACK
6
CONTINUOUS
10
-0.26819
20
0.434324
11
-0.270324
21
0.431131
0
LINE
8
BLACK
6
CONTINUOUS
10
-0.270324
20
0.431131
11
-0.273517
21
0.428997
0
LINE
8
BLACK
6
CONTINUOUS
10
-0.273517
20
0.428997
11
-0.277283
21
0.428248
0
LINE
8
BLACK
6
CONTINUOUS
10
-0.277283
20
0.428248
11
-0.312717
21
0.428248
0
LINE
8
BLACK
6
CONTINUOUS
10
-0.312717
20
0.428248
11
-0.316483
21
0.428997
0
LINE
8
BLACK
6
CONTINUOUS
10
-0.316483
20
0.428997
11
-0.319676
21
0.431131
0
LINE
8
BLACK
6
CONTINUOUS
10
-0.319676
20
0.431131
11
-0.32181
21
0.434324
0
LINE
8
BLACK
6
CONTINUOUS
10
-0.32181
20
0.434324
11
-0.322559
21
0.438091
0
LINE
8
BLACK
6
CONTINUOUS
10
-0.322559
20
0.438091
11
-0.322559
21
0.45876
0
LINE
8
BLACK
6
CONTINUOUS
10
-0.322559
20
0.45876
11
-0.32181
21
0.462526
0
LINE
8
BLACK
6
CONTINUOUS
10
-0.32181
20
0.462526
11
-0.319676
21
0.46572
0
LINE
8
BLACK
6
CONTINUOUS
10
-0.319676
20
0.46572
11
-0.316483
21
0.467853
0
LINE
8
BLACK
6
CONTINUOUS
10
-0.316483
20
0.467853
11
-0.312717
21
0.468602
0
LINE
8
BLACK
6
CONTINUOUS
10
-0.312717
20
0.468602
11
-0.277283
21
0.468602
0
LINE
8
BLACK
6
CONTINUOUS
10
-0.277283
20
0.468602
11
-0.273517
21
0.467853
0
LINE
8
BLACK
6
CONTINUOUS
10
-0.015748
20
0.437205
11
-0.0574803
21
0.437205
0
LINE
8
BLACK
6
CONTINUOUS
10
-0.0574803
20
0.437205
11
-0.0574803
21
0.462795
0
LINE
8
BLACK
6
CONTINUOUS
10
-0.0574803
20
0.462795
11
-0.015748
21
0.462795
0
LINE
8
BLACK
6
CONTINUOUS
10
-0.015748
20
0.462795
11
-0.015748
21
0.437205
0
LINE
8
BLACK
6
CONTINUOUS
10
-0.417346
20
0.465295
11
-0.41543
21
0.464015
0
LINE
8
BLACK
6
CONTINUOUS
10
-0.41543
20
0.464015
11
-0.41415
21
0.462099
0
LINE
8
BLACK
6
CONTINUOUS
10
-0.41415
20
0.462099
11
-0.413701
21
0.459839
0
LINE
8
BLACK
6
CONTINUOUS
10
-0.413701
20
0.459839
11
-0.413701
21
0.448028
0
LINE
8
BLACK
6
CONTINUOUS
10
-0.413701
20
0.448028
11
-0.41415
21
0.445768
0
LINE
8
BLACK
6
CONTINUOUS
10
-0.41415
20
0.445768
11
-0.41543
21
0.443852
0
LINE
8
BLACK
6
CONTINUOUS
10
-0.41543
20
0.443852
11
-0.417346
21
0.442572
0
LINE
8
BLACK
6
CONTINUOUS
10
-0.417346
20
0.442572
11
-0.419606
21
0.442122
0
LINE
8
BLACK
6
CONTINUOUS
10
-0.419606
20
0.442122
11
-0.474724
21
0.442122
0
LINE
8
BLACK
6
CONTINUOUS
10
-0.474724
20
0.442122
11
-0.476984
21
0.442572
0
LINE
8
BLACK
6
CONTINUOUS
10
-0.476984
20
0.442572
11
-0.4789
21
0.443852
0
LINE
8
BLACK
6
CONTINUOUS
10
-0.4789
20
0.443852
11
-0.48018
21
0.445768
0
LINE
8
BLACK
6
CONTINUOUS
10
-0.48018
20
0.445768
11
-0.48063
21
0.448028
0
LINE
8
BLACK
6
CONTINUOUS
10
-0.48063
20
0.448028
11
-0.48063
21
0.459839
0
LINE
8
BLACK
6
CONTINUOUS
10
-0.48063
20
0.459839
11
-0.48018
21
0.462099
0
LINE
8
BLACK
6
CONTINUOUS
10
-0.48018
20
0.462099
11
-0.4789
21
0.464015
0
LINE
8
BLACK
6
CONTINUOUS
10
-0.4789
20
0.464015
11
-0.476984
21
0.465295
0
LINE
8
BLACK
6
CONTINUOUS
10
-0.476984
20
0.465295
11
-0.474724
21
0.465744
0
LINE
8
BLACK
6
CONTINUOUS
10
-0.474724
20
0.465744
11
-0.419606
21
0.465744
0
LINE
8
BLACK
6
CONTINUOUS
10
-0.419606
20
0.465744
11
-0.417346
21
0.465295
0
LINE
8
BLACK
6
CONTINUOUS
10
0.606129
20
0.492361
11
0.609322
21
0.490227
0
LINE
8
BLACK
6
CONTINUOUS
10
0.609322
20
0.490227
11
0.611456
21
0.487034
0
LINE
8
BLACK
6
CONTINUOUS
10
0.611456
20
0.487034
11
0.612205
21
0.483268
0
LINE
8
BLACK
6
CONTINUOUS
10
0.612205
20
0.483268
11
0.612205
21
0.462598
0
LINE
8
BLACK
6
CONTINUOUS
10
0.612205
20
0.462598
11
0.611456
21
0.458832
0
LINE
8
BLACK
6
CONTINUOUS
10
0.611456
20
0.458832
11
0.609322
21
0.455639
0
LINE
8
BLACK
6
CONTINUOUS
10
0.609322
20
0.455639
11
0.606129
21
0.453505
0
LINE
8
BLACK
6
CONTINUOUS
10
0.606129
20
0.453505
11
0.602362
21
0.452756
0
LINE
8
BLACK
6
CONTINUOUS
10
0.602362
20
0.452756
11
0.566929
21
0.452756
0
LINE
8
BLACK
6
CONTINUOUS
10
0.566929
20
0.452756
11
0.563163
21
0.453505
0
LINE
8
BLACK
6
CONTINUOUS
10
0.563163
20
0.453505
11
0.559969
21
0.455639
0
LINE
8
BLACK
6
CONTINUOUS
10
0.559969
20
0.455639
11
0.557836
21
0.458832
0
LINE
8
BLACK
6
CONTINUOUS
10
0.557836
20
0.458832
11
0.557087
21
0.462598
0
LINE
8
BLACK
6
CONTINUOUS
10
0.557087
20
0.462598
11
0.557087
21
0.483268
0
LINE
8
BLACK
6
CONTINUOUS
10
0.557087
20
0.483268
11
0.557836
21
0.487034
0
LINE
8
BLACK
6
CONTINUOUS
10
0.557836
20
0.487034
11
0.559969
21
0.490227
0
LINE
8
BLACK
6
CONTINUOUS
10
0.559969
20
0.490227
11
0.563163
21
0.492361
0
LINE
8
BLACK
6
CONTINUOUS
10
0.563163
20
0.492361
11
0.566929
21
0.49311
0
LINE
8
BLACK
6
CONTINUOUS
10
0.566929
20
0.49311
11
0.602362
21
0.49311
0
LINE
8
BLACK
6
CONTINUOUS
10
0.602362
20
0.49311
11
0.606129
21
0.492361
0
LINE
8
BLACK
6
CONTINUOUS
10
0.4329
20
0.492361
11
0.436094
21
0.490227
0
LINE
8
BLACK
6
CONTINUOUS
10
0.436094
20
0.490227
11
0.438227
21
0.487034
0
LINE
8
BLACK
6
CONTINUOUS
10
0.438227
20
0.487034
11
0.438976
21
0.483268
0
LINE
8
BLACK
6
CONTINUOUS
10
0.438976
20
0.483268
11
0.438976
21
0.462598
0
LINE
8
BLACK
6
CONTINUOUS
10
0.438976
20
0.462598
11
0.438227
21
0.458832
0
LINE
8
BLACK
6
CONTINUOUS
10
0.438227
20
0.458832
11
0.436094
21
0.455639
0
LINE
8
BLACK
6
CONTINUOUS
10
0.436094
20
0.455639
11
0.4329
21
0.453505
0
LINE
8
BLACK
6
CONTINUOUS
10
0.4329
20
0.453505
11
0.429134
21
0.452756
0
LINE
8
BLACK
6
CONTINUOUS
10
0.429134
20
0.452756
11
0.393701
21
0.452756
0
LINE
8
BLACK
6
CONTINUOUS
10
0.393701
20
0.452756
11
0.389934
21
0.453505
0
LINE
8
BLACK
6
CONTINUOUS
10
0.389934
20
0.453505
11
0.386741
21
0.455639
0
LINE
8
BLACK
6
CONTINUOUS
10
0.386741
20
0.455639
11
0.384607
21
0.458832
0
LINE
8
BLACK
6
CONTINUOUS
10
0.384607
20
0.458832
11
0.383858
21
0.462598
0
LINE
8
BLACK
6
CONTINUOUS
10
0.383858
20
0.462598
11
0.383858
21
0.483268
0
LINE
8
BLACK
6
CONTINUOUS
10
0.383858
20
0.483268
11
0.384607
21
0.487034
0
LINE
8
BLACK
6
CONTINUOUS
10
0.384607
20
0.487034
11
0.386741
21
0.490227
0
LINE
8
BLACK
6
CONTINUOUS
10
0.386741
20
0.490227
11
0.389934
21
0.492361
0
LINE
8
BLACK
6
CONTINUOUS
10
0.389934
20
0.492361
11
0.393701
21
0.49311
0
LINE
8
BLACK
6
CONTINUOUS
10
0.393701
20
0.49311
11
0.429134
21
0.49311
0
LINE
8
BLACK
6
CONTINUOUS
10
0.429134
20
0.49311
11
0.4329
21
0.492361
0
LINE
8
BLACK
6
CONTINUOUS
10
0.520499
20
0.493345
11
0.523692
21
0.491212
0
LINE
8
BLACK
6
CONTINUOUS
10
0.523692
20
0.491212
11
0.525826
21
0.488019
0
LINE
8
BLACK
6
CONTINUOUS
10
0.525826
20
0.488019
11
0.526575
21
0.484252
0
LINE
8
BLACK
6
CONTINUOUS
10
0.526575
20
0.484252
11
0.526575
21
0.464567
0
LINE
8
BLACK
6
CONTINUOUS
10
0.526575
20
0.464567
11
0.525826
21
0.4608
0
LINE
8
BLACK
6
CONTINUOUS
10
0.525826
20
0.4608
11
0.523692
21
0.457607
0
LINE
8
BLACK
6
CONTINUOUS
10
0.523692
20
0.457607
11
0.520499
21
0.455474
0
LINE
8
BLACK
6
CONTINUOUS
10
0.520499
20
0.455474
11
0.516732
21
0.454724
0
LINE
8
BLACK
6
CONTINUOUS
10
0.516732
20
0.454724
11
0.479331
21
0.454724
0
LINE
8
BLACK
6
CONTINUOUS
10
0.479331
20
0.454724
11
0.475564
21
0.455474
0
LINE
8
BLACK
6
CONTINUOUS
10
0.475564
20
0.455474
11
0.472371
21
0.457607
0
LINE
8
BLACK
6
CONTINUOUS
10
0.472371
20
0.457607
11
0.470237
21
0.4608
0
LINE
8
BLACK
6
CONTINUOUS
10
0.470237
20
0.4608
11
0.469488
21
0.464567
0
LINE
8
BLACK
6
CONTINUOUS
10
0.469488
20
0.464567
11
0.469488
21
0.484252
0
LINE
8
BLACK
6
CONTINUOUS
10
0.469488
20
0.484252
11
0.470237
21
0.488019
0
LINE
8
BLACK
6
CONTINUOUS
10
0.470237
20
0.488019
11
0.472371
21
0.491212
0
LINE
8
BLACK
6
CONTINUOUS
10
0.472371
20
0.491212
11
0.475564
21
0.493345
0
LINE
8
BLACK
6
CONTINUOUS
10
0.475564
20
0.493345
11
0.479331
21
0.494094
0
LINE
8
BLACK
6
CONTINUOUS
10
0.479331
20
0.494094
11
0.516732
21
0.494094
0
LINE
8
BLACK
6
CONTINUOUS
10
0.516732
20
0.494094
11
0.520499
21
0.493345
0
LINE
8
BLACK
6
CONTINUOUS
10
0.153384
20
0.491569
11
0.156178
21
0.489702
0
LINE
8
BLACK
6
CONTINUOUS
10
0.156178
20
0.489702
11
0.158045
21
0.486908
0
LINE
8
BLACK
6
CONTINUOUS
10
0.158045
20
0.486908
11
0.158701
21
0.483612
0
LINE
8
BLACK
6
CONTINUOUS
10
0.158701
20
0.483612
11
0.158701
21
0.466388
0
LINE
8
BLACK
6
CONTINUOUS
10
0.158701
20
0.466388
11
0.158045
21
0.463092
0
LINE
8
BLACK
6
CONTINUOUS
10
0.158045
20
0.463092
11
0.156178
21
0.460298
0
LINE
8
BLACK
6
CONTINUOUS
10
0.156178
20
0.460298
11
0.153384
21
0.458431
0
LINE
8
BLACK
6
CONTINUOUS
10
0.153384
20
0.458431
11
0.150089
21
0.457776
0
LINE
8
BLACK
6
CONTINUOUS
10
0.150089
20
0.457776
11
0.129911
21
0.457776
0
LINE
8
BLACK
6
CONTINUOUS
10
0.129911
20
0.457776
11
0.126616
21
0.458431
0
LINE
8
BLACK
6
CONTINUOUS
10
0.126616
20
0.458431
11
0.123822
21
0.460298
0
LINE
8
BLACK
6
CONTINUOUS
10
0.123822
20
0.460298
11
0.121955
21
0.463092
0
LINE
8
BLACK
6
CONTINUOUS
10
0.121955
20
0.463092
11
0.121299
21
0.466388
0
LINE
8
BLACK
6
CONTINUOUS
10
0.121299
20
0.466388
11
0.121299
21
0.483612
0
LINE
8
BLACK
6
CONTINUOUS
10
0.121299
20
0.483612
11
0.121955
21
0.486908
0
LINE
8
BLACK
6
CONTINUOUS
10
0.121955
20
0.486908
11
0.123822
21
0.489702
0
LINE
8
BLACK
6
CONTINUOUS
10
0.123822
20
0.489702
11
0.126616
21
0.491569
0
LINE
8
BLACK
6
CONTINUOUS
10
0.126616
20
0.491569
11
0.129911
21
0.492224
0
LINE
8
BLACK
6
CONTINUOUS
10
0.129911
20
0.492224
11
0.150089
21
0.492224
0
LINE
8
BLACK
6
CONTINUOUS
10
0.150089
20
0.492224
11
0.153384
21
0.491569
0
LINE
8
BLACK
6
CONTINUOUS
10
0.0708661
20
0.474606
11
0.0291339
21
0.474606
0
LINE
8
BLACK
6
CONTINUOUS
10
0.0291339
20
0.474606
11
0.0291339
21
0.500197
0
LINE
8
BLACK
6
CONTINUOUS
10
0.0291339
20
0.500197
11
0.0708661
21
0.500197
0
LINE
8
BLACK
6
CONTINUOUS
10
0.0708661
20
0.500197
11
0.0708661
21
0.474606
0
LINE
8
BLACK
6
CONTINUOUS
10
-0.015748
20
0.474606
11
-0.0574803
21
0.474606
0
LINE
8
BLACK
6
CONTINUOUS
10
-0.0574803
20
0.474606
11
-0.0574803
21
0.500197
0
LINE
8
BLACK
6
CONTINUOUS
10
-0.0574803
20
0.500197
11
-0.015748
21
0.500197
0
LINE
8
BLACK
6
CONTINUOUS
10
-0.015748
20
0.500197
11
-0.015748
21
0.474606
0
LINE
8
BLACK
6
CONTINUOUS
10
-0.113092
20
0.518045
11
-0.110298
21
0.516178
0
LINE
8
BLACK
6
CONTINUOUS
10
-0.110298
20
0.516178
11
-0.108431
21
0.513384
0
LINE
8
BLACK
6
CONTINUOUS
10
-0.108431
20
0.513384
11
-0.107776
21
0.510089
0
LINE
8
BLACK
6
CONTINUOUS
10
-0.107776
20
0.510089
11
-0.107776
21
0.489911
0
LINE
8
BLACK
6
CONTINUOUS
10
-0.107776
20
0.489911
11
-0.108431
21
0.486616
0
LINE
8
BLACK
6
CONTINUOUS
10
-0.108431
20
0.486616
11
-0.110298
21
0.483822
0
LINE
8
BLACK
6
CONTINUOUS
10
-0.110298
20
0.483822
11
-0.113092
21
0.481955
0
LINE
8
BLACK
6
CONTINUOUS
10
-0.113092
20
0.481955
11
-0.116388
21
0.481299
0
LINE
8
BLACK
6
CONTINUOUS
10
-0.116388
20
0.481299
11
-0.133612
21
0.481299
0
LINE
8
BLACK
6
CONTINUOUS
10
-0.133612
20
0.481299
11
-0.136908
21
0.481955
0
LINE
8
BLACK
6
CONTINUOUS
10
-0.136908
20
0.481955
11
-0.139702
21
0.483822
0
LINE
8
BLACK
6
CONTINUOUS
10
-0.139702
20
0.483822
11
-0.141569
21
0.486616
0
LINE
8
BLACK
6
CONTINUOUS
10
-0.141569
20
0.486616
11
-0.142224
21
0.489911
0
LINE
8
BLACK
6
CONTINUOUS
10
-0.142224
20
0.489911
11
-0.142224
21
0.510089
0
LINE
8
BLACK
6
CONTINUOUS
10
-0.142224
20
0.510089
11
-0.141569
21
0.513384
0
LINE
8
BLACK
6
CONTINUOUS
10
-0.141569
20
0.513384
11
-0.139702
21
0.516178
0
LINE
8
BLACK
6
CONTINUOUS
10
-0.139702
20
0.516178
11
-0.136908
21
0.518045
0
LINE
8
BLACK
6
CONTINUOUS
10
-0.136908
20
0.518045
11
-0.133612
21
0.518701
0
LINE
8
BLACK
6
CONTINUOUS
10
-0.133612
20
0.518701
11
-0.116388
21
0.518701
0
LINE
8
BLACK
6
CONTINUOUS
10
-0.116388
20
0.518701
11
-0.113092
21
0.518045
0
LINE
8
BLACK
6
CONTINUOUS
10
-0.1751
20
0.518045
11
-0.172306
21
0.516178
0
LINE
8
BLACK
6
CONTINUOUS
10
-0.172306
20
0.516178
11
-0.170439
21
0.513384
0
LINE
8
BLACK
6
CONTINUOUS
10
-0.170439
20
0.513384
11
-0.169783
21
0.510089
0
LINE
8
BLACK
6
CONTINUOUS
10
-0.169783
20
0.510089
11
-0.169783
21
0.489911
0
LINE
8
BLACK
6
CONTINUOUS
10
-0.169783
20
0.489911
11
-0.170439
21
0.486616
0
LINE
8
BLACK
6
CONTINUOUS
10
-0.170439
20
0.486616
11
-0.172306
21
0.483822
0
LINE
8
BLACK
6
CONTINUOUS
10
-0.172306
20
0.483822
11
-0.1751
21
0.481955
0
LINE
8
BLACK
6
CONTINUOUS
10
-0.1751
20
0.481955
11
-0.178396
21
0.481299
0
LINE
8
BLACK
6
CONTINUOUS
10
-0.178396
20
0.481299
11
-0.19562
21
0.481299
0
LINE
8
BLACK
6
CONTINUOUS
10
-0.19562
20
0.481299
11
-0.198916
21
0.481955
0
LINE
8
BLACK
6
CONTINUOUS
10
-0.198916
20
0.481955
11
-0.20171
21
0.483822
0
LINE
8
BLACK
6
CONTINUOUS
10
-0.20171
20
0.483822
11
-0.203577
21
0.486616
0
LINE
8
BLACK
6
CONTINUOUS
10
-0.203577
20
0.486616
11
-0.204232
21
0.489911
0
LINE
8
BLACK
6
CONTINUOUS
10
-0.204232
20
0.489911
11
-0.204232
21
0.510089
0
LINE
8
BLACK
6
CONTINUOUS
10
-0.204232
20
0.510089
11
-0.203577
21
0.513384
0
LINE
8
BLACK
6
CONTINUOUS
10
-0.203577
20
0.513384
11
-0.20171
21
0.516178
0
LINE
8
BLACK
6
CONTINUOUS
10
-0.20171
20
0.516178
11
-0.198916
21
0.518045
0
LINE
8
BLACK
6
CONTINUOUS
10
-0.198916
20
0.518045
11
-0.19562
21
0.518701
0
LINE
8
BLACK
6
CONTINUOUS
10
-0.19562
20
0.518701
11
-0.178396
21
0.518701
0
LINE
8
BLACK
6
CONTINUOUS
10
-0.178396
20
0.518701
11
-0.1751
21
0.518045
0
LINE
8
BLACK
6
CONTINUOUS
10
-0.526076
20
0.545704
11
-0.522883
21
0.54357
0
LINE
8
BLACK
6
CONTINUOUS
10
-0.522883
20
0.54357
11
-0.520749
21
0.540377
0
LINE
8
BLACK
6
CONTINUOUS
10
-0.520749
20
0.540377
11
-0.52
21
0.53661
0
LINE
8
BLACK
6
CONTINUOUS
10
-0.52
20
0.53661
11
-0.52
21
0.516925
0
LINE
8
BLACK
6
CONTINUOUS
10
-0.52
20
0.516925
11
-0.520749
21
0.513159
0
LINE
8
BLACK
6
CONTINUOUS
10
-0.520749
20
0.513159
11
-0.522883
21
0.509966
0
LINE
8
BLACK
6
CONTINUOUS
10
-0.522883
20
0.509966
11
-0.526076
21
0.507832
0
LINE
8
BLACK
6
CONTINUOUS
10
-0.526076
20
0.507832
11
-0.529843
21
0.507083
0
LINE
8
BLACK
6
CONTINUOUS
10
-0.529843
20
0.507083
11
-0.616457
21
0.507083
0
LINE
8
BLACK
6
CONTINUOUS
10
-0.616457
20
0.507083
11
-0.620223
21
0.507832
0
LINE
8
BLACK
6
CONTINUOUS
10
-0.620223
20
0.507832
11
-0.623416
21
0.509966
0
LINE
8
BLACK
6
CONTINUOUS
10
-0.623416
20
0.509966
11
-0.62555
21
0.513159
0
LINE
8
BLACK
6
CONTINUOUS
10
-0.62555
20
0.513159
11
-0.626299
21
0.516925
0
LINE
8
BLACK
6
CONTINUOUS
10
-0.626299
20
0.516925
11
-0.626299
21
0.53661
0
LINE
8
BLACK
6
CONTINUOUS
10
-0.626299
20
0.53661
11
-0.62555
21
0.540377
0
LINE
8
BLACK
6
CONTINUOUS
10
-0.62555
20
0.540377
11
-0.623416
21
0.54357
0
LINE
8
BLACK
6
CONTINUOUS
10
-0.623416
20
0.54357
11
-0.620223
21
0.545704
0
LINE
8
BLACK
6
CONTINUOUS
10
-0.620223
20
0.545704
11
-0.616457
21
0.546453
0
LINE
8
BLACK
6
CONTINUOUS
10
-0.616457
20
0.546453
11
-0.529843
21
0.546453
0
LINE
8
BLACK
6
CONTINUOUS
10
-0.529843
20
0.546453
11
-0.526076
21
0.545704
  0
ENDSEC
  0
EOF
