  0
SECTION
  2
HEADER
  9
$ANGBASE
  50
0.0
  9
$ANGDIR
  70
1
  9
$MEASUREMENT
  70
0
  0
ENDSEC
  0
SECTION
  2
TABLES
  0
TABLE
  2
LTYPE
  70
4
  0
LTYPE
  5
40F
  2
CONTINUOUS
  70
0
  3
Solid line
  72
65
  73
0
  40
0.0
  0
LTYPE
  5
410
  2
DASHDOT
 70
0
  3
Dash Dot ____ _ ____ _
 72
65
 73
4
 40
2.0
 49
1.25
 49
-0.25
 49
0.25
 49
-0.25
  0
LTYPE
  5
411
  2
DASHED
 70
0
  3
Dashed __ __ __ __ __
 72
65
 73
2
 40
0.75
 49
0.5
 49
-0.25
  0
LTYPE
  5
43B
  2
DOTTED
 70
0
  3
Dotted .  .  .  .
 72
65
 73
2
 40
0.2
 49
0.0
 49
-0.2
  0
ENDTAB
  0
TABLE
  2
STYLE
  70
4
  0
STYLE
  2
KICAD
  70
0
  40
0
  41
1
  42
1
  50
0
  71
0
  3
isocp.shx
  0
STYLE
  2
KICADB
  70
0
  40
0
  41
1
  42
1
  50
0
  71
0
  3
isocp.shx
  0
STYLE
  2
KICADI
  70
0
  40
0
  41
1
  42
1
  50
15
  71
0
  3
isocp.shx
  0
STYLE
  2
KICADBI
  70
0
  40
0
  41
1
  42
1
  50
15
  71
0
  3
isocp.shx
  0
ENDTAB
  0
TABLE
  2
LAYER
  70
1
  0
LAYER
  2
BLACK
  70
0
  62
7
  6
CONTINUOUS
  0
ENDTAB
  0
ENDSEC
  0
SECTION
  2
ENTITIES
0
LINE
8
BLACK
6
CONTINUOUS
10
-0.71734
20
-0.356155
11
-0.718031
21
-0.354484
0
LINE
8
BLACK
6
CONTINUOUS
10
-0.718031
20
-0.354484
11
-0.71734
21
-0.352814
0
LINE
8
BLACK
6
CONTINUOUS
10
-0.71734
20
-0.352814
11
-0.715669
21
-0.352122
0
LINE
8
BLACK
6
CONTINUOUS
10
-0.715669
20
-0.352122
11
-0.660945
21
-0.352122
0
LINE
8
BLACK
6
CONTINUOUS
10
-0.660945
20
-0.352122
11
-0.660945
21
-0.283618
0
LINE
8
BLACK
6
CONTINUOUS
10
-0.660945
20
-0.283618
11
-0.660253
21
-0.281948
0
LINE
8
BLACK
6
CONTINUOUS
10
-0.660253
20
-0.281948
11
-0.658583
21
-0.281256
0
LINE
8
BLACK
6
CONTINUOUS
10
-0.658583
20
-0.281256
11
-0.619606
21
-0.281256
0
LINE
8
BLACK
6
CONTINUOUS
10
-0.619606
20
-0.281256
11
-0.617936
21
-0.281948
0
LINE
8
BLACK
6
CONTINUOUS
10
-0.617936
20
-0.281948
11
-0.617244
21
-0.283618
0
LINE
8
BLACK
6
CONTINUOUS
10
-0.617244
20
-0.283618
11
-0.617936
21
-0.285289
0
LINE
8
BLACK
6
CONTINUOUS
10
-0.617936
20
-0.285289
11
-0.619606
21
-0.28598
0
LINE
8
BLACK
6
CONTINUOUS
10
-0.619606
20
-0.28598
11
-0.65622
21
-0.28598
0
LINE
8
BLACK
6
CONTINUOUS
10
-0.65622
20
-0.28598
11
-0.65622
21
-0.354484
0
LINE
8
BLACK
6
CONTINUOUS
10
-0.65622
20
-0.354484
11
-0.656912
21
-0.356155
0
LINE
8
BLACK
6
CONTINUOUS
10
-0.656912
20
-0.356155
11
-0.658583
21
-0.356847
0
LINE
8
BLACK
6
CONTINUOUS
10
-0.658583
20
-0.356847
11
-0.715669
21
-0.356847
0
LINE
8
BLACK
6
CONTINUOUS
10
-0.715669
20
-0.356847
11
-0.71734
21
-0.356155
0
LINE
8
BLACK
6
CONTINUOUS
10
-0.825023
20
-0.0693495
11
-0.824331
21
-0.0710198
0
LINE
8
BLACK
6
CONTINUOUS
10
-0.824331
20
-0.0710198
11
-0.824331
21
-0.304484
0
LINE
8
BLACK
6
CONTINUOUS
10
-0.824331
20
-0.304484
11
-0.825023
21
-0.306155
0
LINE
8
BLACK
6
CONTINUOUS
10
-0.825023
20
-0.306155
11
-0.826693
21
-0.306847
0
LINE
8
BLACK
6
CONTINUOUS
10
-0.826693
20
-0.306847
11
-0.828363
21
-0.306155
0
LINE
8
BLACK
6
CONTINUOUS
10
-0.828363
20
-0.306155
11
-0.829055
21
-0.304484
0
LINE
8
BLACK
6
CONTINUOUS
10
-0.829055
20
-0.304484
11
-0.829055
21
-0.0710198
0
LINE
8
BLACK
6
CONTINUOUS
10
-0.829055
20
-0.0710198
11
-0.828363
21
-0.0693495
0
LINE
8
BLACK
6
CONTINUOUS
10
-0.828363
20
-0.0693495
11
-0.826693
21
-0.0686576
0
LINE
8
BLACK
6
CONTINUOUS
10
-0.826693
20
-0.0686576
11
-0.825023
21
-0.0693495
0
LINE
8
BLACK
6
CONTINUOUS
10
0.32734
20
-0.240885
11
0.328031
21
-0.242555
0
LINE
8
BLACK
6
CONTINUOUS
10
0.328031
20
-0.242555
11
0.328031
21
-0.297673
0
LINE
8
BLACK
6
CONTINUOUS
10
0.328031
20
-0.297673
11
0.32734
21
-0.299344
0
LINE
8
BLACK
6
CONTINUOUS
10
0.32734
20
-0.299344
11
0.325669
21
-0.300036
0
LINE
8
BLACK
6
CONTINUOUS
10
0.325669
20
-0.300036
11
0.323999
21
-0.299344
0
LINE
8
BLACK
6
CONTINUOUS
10
0.323999
20
-0.299344
11
0.323307
21
-0.297673
0
LINE
8
BLACK
6
CONTINUOUS
10
0.323307
20
-0.297673
11
0.323307
21
-0.242555
0
LINE
8
BLACK
6
CONTINUOUS
10
0.323307
20
-0.242555
11
0.323999
21
-0.240885
0
LINE
8
BLACK
6
CONTINUOUS
10
0.323999
20
-0.240885
11
0.325669
21
-0.240193
0
LINE
8
BLACK
6
CONTINUOUS
10
0.325669
20
-0.240193
11
0.32734
21
-0.240885
0
LINE
8
BLACK
6
CONTINUOUS
10
0.236001
20
-0.2212
11
0.236693
21
-0.22287
0
LINE
8
BLACK
6
CONTINUOUS
10
0.236693
20
-0.22287
11
0.236693
21
-0.297673
0
LINE
8
BLACK
6
CONTINUOUS
10
0.236693
20
-0.297673
11
0.236001
21
-0.299344
0
LINE
8
BLACK
6
CONTINUOUS
10
0.236001
20
-0.299344
11
0.234331
21
-0.300036
0
LINE
8
BLACK
6
CONTINUOUS
10
0.234331
20
-0.300036
11
0.23266
21
-0.299344
0
LINE
8
BLACK
6
CONTINUOUS
10
0.23266
20
-0.299344
11
0.231969
21
-0.297673
0
LINE
8
BLACK
6
CONTINUOUS
10
0.231969
20
-0.297673
11
0.231969
21
-0.22287
0
LINE
8
BLACK
6
CONTINUOUS
10
0.231969
20
-0.22287
11
0.23266
21
-0.2212
0
LINE
8
BLACK
6
CONTINUOUS
10
0.23266
20
-0.2212
11
0.234331
21
-0.220508
0
LINE
8
BLACK
6
CONTINUOUS
10
0.234331
20
-0.220508
11
0.236001
21
-0.2212
0
LINE
8
BLACK
6
CONTINUOUS
10
0.131592
20
-0.282795
11
0.132283
21
-0.284465
0
LINE
8
BLACK
6
CONTINUOUS
10
0.132283
20
-0.284465
11
0.132283
21
-0.295535
0
LINE
8
BLACK
6
CONTINUOUS
10
0.132283
20
-0.295535
11
0.131592
21
-0.297205
0
LINE
8
BLACK
6
CONTINUOUS
10
0.131592
20
-0.297205
11
0.129921
21
-0.297897
0
LINE
8
BLACK
6
CONTINUOUS
10
0.129921
20
-0.297897
11
0.128251
21
-0.297205
0
LINE
8
BLACK
6
CONTINUOUS
10
0.128251
20
-0.297205
11
0.127559
21
-0.295535
0
LINE
8
BLACK
6
CONTINUOUS
10
0.127559
20
-0.295535
11
0.127559
21
-0.284465
0
LINE
8
BLACK
6
CONTINUOUS
10
0.127559
20
-0.284465
11
0.128251
21
-0.282795
0
LINE
8
BLACK
6
CONTINUOUS
10
0.128251
20
-0.282795
11
0.129921
21
-0.282103
0
LINE
8
BLACK
6
CONTINUOUS
10
0.129921
20
-0.282103
11
0.131592
21
-0.282795
0
LINE
8
BLACK
6
CONTINUOUS
10
0.171749
20
-0.282795
11
0.172441
21
-0.284465
0
LINE
8
BLACK
6
CONTINUOUS
10
0.172441
20
-0.284465
11
0.172441
21
-0.295535
0
LINE
8
BLACK
6
CONTINUOUS
10
0.172441
20
-0.295535
11
0.171749
21
-0.297205
0
LINE
8
BLACK
6
CONTINUOUS
10
0.171749
20
-0.297205
11
0.170079
21
-0.297897
0
LINE
8
BLACK
6
CONTINUOUS
10
0.170079
20
-0.297897
11
0.168408
21
-0.297205
0
LINE
8
BLACK
6
CONTINUOUS
10
0.168408
20
-0.297205
11
0.167717
21
-0.295535
0
LINE
8
BLACK
6
CONTINUOUS
10
0.167717
20
-0.295535
11
0.167717
21
-0.284465
0
LINE
8
BLACK
6
CONTINUOUS
10
0.167717
20
-0.284465
11
0.168408
21
-0.282795
0
LINE
8
BLACK
6
CONTINUOUS
10
0.168408
20
-0.282795
11
0.170079
21
-0.282103
0
LINE
8
BLACK
6
CONTINUOUS
10
0.170079
20
-0.282103
11
0.171749
21
-0.282795
0
LINE
8
BLACK
6
CONTINUOUS
10
-0.217759
20
-0.268989
11
-0.217067
21
-0.270659
0
LINE
8
BLACK
6
CONTINUOUS
10
-0.217067
20
-0.270659
11
-0.217067
21
-0.289341
0
LINE
8
BLACK
6
CONTINUOUS
10
-0.217067
20
-0.289341
11
-0.217759
21
-0.291011
0
LINE
8
BLACK
6
CONTINUOUS
10
-0.217759
20
-0.291011
11
-0.219429
21
-0.291703
0
LINE
8
BLACK
6
CONTINUOUS
10
-0.219429
20
-0.291703
11
-0.221099
21
-0.291011
0
LINE
8
BLACK
6
CONTINUOUS
10
-0.221099
20
-0.291011
11
-0.221791
21
-0.289341
0
LINE
8
BLACK
6
CONTINUOUS
10
-0.221791
20
-0.289341
11
-0.221791
21
-0.270659
0
LINE
8
BLACK
6
CONTINUOUS
10
-0.221791
20
-0.270659
11
-0.221099
21
-0.268989
0
LINE
8
BLACK
6
CONTINUOUS
10
-0.221099
20
-0.268989
11
-0.219429
21
-0.268297
0
LINE
8
BLACK
6
CONTINUOUS
10
-0.219429
20
-0.268297
11
-0.217759
21
-0.268989
0
LINE
8
BLACK
6
CONTINUOUS
10
-0.258901
20
-0.268989
11
-0.258209
21
-0.270659
0
LINE
8
BLACK
6
CONTINUOUS
10
-0.258209
20
-0.270659
11
-0.258209
21
-0.289341
0
LINE
8
BLACK
6
CONTINUOUS
10
-0.258209
20
-0.289341
11
-0.258901
21
-0.291011
0
LINE
8
BLACK
6
CONTINUOUS
10
-0.258901
20
-0.291011
11
-0.260571
21
-0.291703
0
LINE
8
BLACK
6
CONTINUOUS
10
-0.260571
20
-0.291703
11
-0.262241
21
-0.291011
0
LINE
8
BLACK
6
CONTINUOUS
10
-0.262241
20
-0.291011
11
-0.262933
21
-0.289341
0
LINE
8
BLACK
6
CONTINUOUS
10
-0.262933
20
-0.289341
11
-0.262933
21
-0.270659
0
LINE
8
BLACK
6
CONTINUOUS
10
-0.262933
20
-0.270659
11
-0.262241
21
-0.268989
0
LINE
8
BLACK
6
CONTINUOUS
10
-0.262241
20
-0.268989
11
-0.260571
21
-0.268297
0
LINE
8
BLACK
6
CONTINUOUS
10
-0.260571
20
-0.268297
11
-0.258901
21
-0.268989
0
LINE
8
BLACK
6
CONTINUOUS
10
-0.178901
20
-0.268989
11
-0.178209
21
-0.270659
0
LINE
8
BLACK
6
CONTINUOUS
10
-0.178209
20
-0.270659
11
-0.178209
21
-0.289341
0
LINE
8
BLACK
6
CONTINUOUS
10
-0.178209
20
-0.289341
11
-0.178901
21
-0.291011
0
LINE
8
BLACK
6
CONTINUOUS
10
-0.178901
20
-0.291011
11
-0.180571
21
-0.291703
0
LINE
8
BLACK
6
CONTINUOUS
10
-0.180571
20
-0.291703
11
-0.182241
21
-0.291011
0
LINE
8
BLACK
6
CONTINUOUS
10
-0.182241
20
-0.291011
11
-0.182933
21
-0.289341
0
LINE
8
BLACK
6
CONTINUOUS
10
-0.182933
20
-0.289341
11
-0.182933
21
-0.270659
0
LINE
8
BLACK
6
CONTINUOUS
10
-0.182933
20
-0.270659
11
-0.182241
21
-0.268989
0
LINE
8
BLACK
6
CONTINUOUS
10
-0.182241
20
-0.268989
11
-0.180571
21
-0.268297
0
LINE
8
BLACK
6
CONTINUOUS
10
-0.180571
20
-0.268297
11
-0.178901
21
-0.268989
0
LINE
8
BLACK
6
CONTINUOUS
10
-0.137759
20
-0.268989
11
-0.137067
21
-0.270659
0
LINE
8
BLACK
6
CONTINUOUS
10
-0.137067
20
-0.270659
11
-0.137067
21
-0.289341
0
LINE
8
BLACK
6
CONTINUOUS
10
-0.137067
20
-0.289341
11
-0.137759
21
-0.291011
0
LINE
8
BLACK
6
CONTINUOUS
10
-0.137759
20
-0.291011
11
-0.139429
21
-0.291703
0
LINE
8
BLACK
6
CONTINUOUS
10
-0.139429
20
-0.291703
11
-0.141099
21
-0.291011
0
LINE
8
BLACK
6
CONTINUOUS
10
-0.141099
20
-0.291011
11
-0.141791
21
-0.289341
0
LINE
8
BLACK
6
CONTINUOUS
10
-0.141791
20
-0.289341
11
-0.141791
21
-0.270659
0
LINE
8
BLACK
6
CONTINUOUS
10
-0.141791
20
-0.270659
11
-0.141099
21
-0.268989
0
LINE
8
BLACK
6
CONTINUOUS
10
-0.141099
20
-0.268989
11
-0.139429
21
-0.268297
0
LINE
8
BLACK
6
CONTINUOUS
10
-0.139429
20
-0.268297
11
-0.137759
21
-0.268989
0
LINE
8
BLACK
6
CONTINUOUS
10
0.253183
20
-0.249949
11
0.255283
21
-0.252049
0
LINE
8
BLACK
6
CONTINUOUS
10
0.255283
20
-0.252049
11
0.256052
21
-0.254917
0
LINE
8
BLACK
6
CONTINUOUS
10
0.256052
20
-0.254917
11
0.255283
21
-0.257786
0
LINE
8
BLACK
6
CONTINUOUS
10
0.255283
20
-0.257786
11
0.253183
21
-0.259886
0
LINE
8
BLACK
6
CONTINUOUS
10
0.253183
20
-0.259886
11
0.250315
21
-0.260654
0
LINE
8
BLACK
6
CONTINUOUS
10
0.250315
20
-0.260654
11
0.247447
21
-0.259886
0
LINE
8
BLACK
6
CONTINUOUS
10
0.247447
20
-0.259886
11
0.245347
21
-0.257786
0
LINE
8
BLACK
6
CONTINUOUS
10
0.245347
20
-0.257786
11
0.244578
21
-0.254917
0
LINE
8
BLACK
6
CONTINUOUS
10
0.244578
20
-0.254917
11
0.245347
21
-0.252049
0
LINE
8
BLACK
6
CONTINUOUS
10
0.245347
20
-0.252049
11
0.247447
21
-0.249949
0
LINE
8
BLACK
6
CONTINUOUS
10
0.247447
20
-0.249949
11
0.250315
21
-0.249181
0
LINE
8
BLACK
6
CONTINUOUS
10
0.250315
20
-0.249181
11
0.253183
21
-0.249949
0
LINE
8
BLACK
6
CONTINUOUS
10
0.252954
20
-0.203628
11
0.252377
21
-0.202237
0
LINE
8
BLACK
6
CONTINUOUS
10
0.252377
20
-0.202237
11
0.252954
21
-0.200845
0
LINE
8
BLACK
6
CONTINUOUS
10
0.252954
20
-0.200845
11
0.254346
21
-0.200268
0
LINE
8
BLACK
6
CONTINUOUS
10
0.254346
20
-0.200268
11
0.269091
21
-0.200268
0
LINE
8
BLACK
6
CONTINUOUS
10
0.269091
20
-0.200268
11
0.254454
21
-0.185631
0
LINE
8
BLACK
6
CONTINUOUS
10
0.254454
20
-0.185631
11
0.254278
21
-0.185207
0
LINE
8
BLACK
6
CONTINUOUS
10
0.254278
20
-0.185207
11
0.253978
21
-0.184861
0
LINE
8
BLACK
6
CONTINUOUS
10
0.253978
20
-0.184861
11
0.252478
21
-0.180362
0
LINE
8
BLACK
6
CONTINUOUS
10
0.252478
20
-0.180362
11
0.252501
21
-0.180039
0
LINE
8
BLACK
6
CONTINUOUS
10
0.252501
20
-0.180039
11
0.252377
21
-0.179739
0
LINE
8
BLACK
6
CONTINUOUS
10
0.252377
20
-0.179739
11
0.252377
21
-0.17674
0
LINE
8
BLACK
6
CONTINUOUS
10
0.252377
20
-0.17674
11
0.252553
21
-0.176316
0
LINE
8
BLACK
6
CONTINUOUS
10
0.252553
20
-0.176316
11
0.252585
21
-0.175859
0
LINE
8
BLACK
6
CONTINUOUS
10
0.252585
20
-0.175859
11
0.254085
21
-0.17286
0
LINE
8
BLACK
6
CONTINUOUS
10
0.254085
20
-0.17286
11
0.25433
21
-0.172647
0
LINE
8
BLACK
6
CONTINUOUS
10
0.25433
20
-0.172647
11
0.254454
21
-0.172348
0
LINE
8
BLACK
6
CONTINUOUS
10
0.254454
20
-0.172348
11
0.255953
21
-0.170848
0
LINE
8
BLACK
6
CONTINUOUS
10
0.255953
20
-0.170848
11
0.256253
21
-0.170724
0
LINE
8
BLACK
6
CONTINUOUS
10
0.256253
20
-0.170724
11
0.256465
21
-0.17048
0
LINE
8
BLACK
6
CONTINUOUS
10
0.256465
20
-0.17048
11
0.259465
21
-0.16898
0
LINE
8
BLACK
6
CONTINUOUS
10
0.259465
20
-0.16898
11
0.259922
21
-0.168947
0
LINE
8
BLACK
6
CONTINUOUS
10
0.259922
20
-0.168947
11
0.260345
21
-0.168772
0
LINE
8
BLACK
6
CONTINUOUS
10
0.260345
20
-0.168772
11
0.267844
21
-0.168772
0
LINE
8
BLACK
6
CONTINUOUS
10
0.267844
20
-0.168772
11
0.268267
21
-0.168947
0
LINE
8
BLACK
6
CONTINUOUS
10
0.268267
20
-0.168947
11
0.268724
21
-0.16898
0
LINE
8
BLACK
6
CONTINUOUS
10
0.268724
20
-0.16898
11
0.271724
21
-0.17048
0
LINE
8
BLACK
6
CONTINUOUS
10
0.271724
20
-0.17048
11
0.271936
21
-0.170724
0
LINE
8
BLACK
6
CONTINUOUS
10
0.271936
20
-0.170724
11
0.272236
21
-0.170848
0
LINE
8
BLACK
6
CONTINUOUS
10
0.272236
20
-0.170848
11
0.273735
21
-0.172348
0
LINE
8
BLACK
6
CONTINUOUS
10
0.273735
20
-0.172348
11
0.274312
21
-0.17374
0
LINE
8
BLACK
6
CONTINUOUS
10
0.274312
20
-0.17374
11
0.273735
21
-0.175132
0
LINE
8
BLACK
6
CONTINUOUS
10
0.273735
20
-0.175132
11
0.272343
21
-0.175709
0
LINE
8
BLACK
6
CONTINUOUS
10
0.272343
20
-0.175709
11
0.270951
21
-0.175132
0
LINE
8
BLACK
6
CONTINUOUS
10
0.270951
20
-0.175132
11
0.269678
21
-0.173858
0
LINE
8
BLACK
6
CONTINUOUS
10
0.269678
20
-0.173858
11
0.267379
21
-0.172709
0
LINE
8
BLACK
6
CONTINUOUS
10
0.267379
20
-0.172709
11
0.26081
21
-0.172709
0
LINE
8
BLACK
6
CONTINUOUS
10
0.26081
20
-0.172709
11
0.258511
21
-0.173858
0
LINE
8
BLACK
6
CONTINUOUS
10
0.258511
20
-0.173858
11
0.257463
21
-0.174906
0
LINE
8
BLACK
6
CONTINUOUS
10
0.257463
20
-0.174906
11
0.256314
21
-0.177204
0
LINE
8
BLACK
6
CONTINUOUS
10
0.256314
20
-0.177204
11
0.256314
21
-0.17942
0
LINE
8
BLACK
6
CONTINUOUS
10
0.256314
20
-0.17942
11
0.257566
21
-0.183175
0
LINE
8
BLACK
6
CONTINUOUS
10
0.257566
20
-0.183175
11
0.275235
21
-0.200845
0
LINE
8
BLACK
6
CONTINUOUS
10
0.275235
20
-0.200845
11
0.275812
21
-0.202237
0
LINE
8
BLACK
6
CONTINUOUS
10
0.275812
20
-0.202237
11
0.275235
21
-0.203628
0
LINE
8
BLACK
6
CONTINUOUS
10
0.275235
20
-0.203628
11
0.273843
21
-0.204205
0
LINE
8
BLACK
6
CONTINUOUS
10
0.273843
20
-0.204205
11
0.254346
21
-0.204205
0
LINE
8
BLACK
6
CONTINUOUS
10
0.254346
20
-0.204205
11
0.252954
21
-0.203628
0
LINE
8
BLACK
6
CONTINUOUS
10
0.305231
20
-0.169349
11
0.305808
21
-0.17074
0
LINE
8
BLACK
6
CONTINUOUS
10
0.305808
20
-0.17074
11
0.305808
21
-0.196237
0
LINE
8
BLACK
6
CONTINUOUS
10
0.305808
20
-0.196237
11
0.305633
21
-0.196661
0
LINE
8
BLACK
6
CONTINUOUS
10
0.305633
20
-0.196661
11
0.3056
21
-0.197118
0
LINE
8
BLACK
6
CONTINUOUS
10
0.3056
20
-0.197118
11
0.3041
21
-0.200117
0
LINE
8
BLACK
6
CONTINUOUS
10
0.3041
20
-0.200117
11
0.303856
21
-0.200329
0
LINE
8
BLACK
6
CONTINUOUS
10
0.303856
20
-0.200329
11
0.303732
21
-0.200629
0
LINE
8
BLACK
6
CONTINUOUS
10
0.303732
20
-0.200629
11
0.302232
21
-0.202129
0
LINE
8
BLACK
6
CONTINUOUS
10
0.302232
20
-0.202129
11
0.301933
21
-0.202253
0
LINE
8
BLACK
6
CONTINUOUS
10
0.301933
20
-0.202253
11
0.30172
21
-0.202497
0
LINE
8
BLACK
6
CONTINUOUS
10
0.30172
20
-0.202497
11
0.298721
21
-0.203997
0
LINE
8
BLACK
6
CONTINUOUS
10
0.298721
20
-0.203997
11
0.298264
21
-0.20403
0
LINE
8
BLACK
6
CONTINUOUS
10
0.298264
20
-0.20403
11
0.29784
21
-0.204205
0
LINE
8
BLACK
6
CONTINUOUS
10
0.29784
20
-0.204205
11
0.291841
21
-0.204205
0
LINE
8
BLACK
6
CONTINUOUS
10
0.291841
20
-0.204205
11
0.291418
21
-0.20403
0
LINE
8
BLACK
6
CONTINUOUS
10
0.291418
20
-0.20403
11
0.290961
21
-0.203997
0
LINE
8
BLACK
6
CONTINUOUS
10
0.290961
20
-0.203997
11
0.287961
21
-0.202497
0
LINE
8
BLACK
6
CONTINUOUS
10
0.287961
20
-0.202497
11
0.287749
21
-0.202253
0
LINE
8
BLACK
6
CONTINUOUS
10
0.287749
20
-0.202253
11
0.287449
21
-0.202129
0
LINE
8
BLACK
6
CONTINUOUS
10
0.287449
20
-0.202129
11
0.28595
21
-0.200629
0
LINE
8
BLACK
6
CONTINUOUS
10
0.28595
20
-0.200629
11
0.285826
21
-0.20033
0
LINE
8
BLACK
6
CONTINUOUS
10
0.285826
20
-0.20033
11
0.285581
21
-0.200117
0
LINE
8
BLACK
6
CONTINUOUS
10
0.285581
20
-0.200117
11
0.284081
21
-0.197118
0
LINE
8
BLACK
6
CONTINUOUS
10
0.284081
20
-0.197118
11
0.284049
21
-0.196661
0
LINE
8
BLACK
6
CONTINUOUS
10
0.284049
20
-0.196661
11
0.283873
21
-0.196237
0
LINE
8
BLACK
6
CONTINUOUS
10
0.283873
20
-0.196237
11
0.283873
21
-0.17074
0
LINE
8
BLACK
6
CONTINUOUS
10
0.283873
20
-0.17074
11
0.28445
21
-0.169349
0
LINE
8
BLACK
6
CONTINUOUS
10
0.28445
20
-0.169349
11
0.285842
21
-0.168772
0
LINE
8
BLACK
6
CONTINUOUS
10
0.285842
20
-0.168772
11
0.287234
21
-0.169349
0
LINE
8
BLACK
6
CONTINUOUS
10
0.287234
20
-0.169349
11
0.28781
21
-0.17074
0
LINE
8
BLACK
6
CONTINUOUS
10
0.28781
20
-0.17074
11
0.28781
21
-0.195773
0
LINE
8
BLACK
6
CONTINUOUS
10
0.28781
20
-0.195773
11
0.288959
21
-0.198071
0
LINE
8
BLACK
6
CONTINUOUS
10
0.288959
20
-0.198071
11
0.290007
21
-0.199119
0
LINE
8
BLACK
6
CONTINUOUS
10
0.290007
20
-0.199119
11
0.292306
21
-0.200268
0
LINE
8
BLACK
6
CONTINUOUS
10
0.292306
20
-0.200268
11
0.297376
21
-0.200268
0
LINE
8
BLACK
6
CONTINUOUS
10
0.297376
20
-0.200268
11
0.299674
21
-0.199119
0
LINE
8
BLACK
6
CONTINUOUS
10
0.299674
20
-0.199119
11
0.300722
21
-0.198071
0
LINE
8
BLACK
6
CONTINUOUS
10
0.300722
20
-0.198071
11
0.301871
21
-0.195773
0
LINE
8
BLACK
6
CONTINUOUS
10
0.301871
20
-0.195773
11
0.301871
21
-0.17074
0
LINE
8
BLACK
6
CONTINUOUS
10
0.301871
20
-0.17074
11
0.302448
21
-0.169349
0
LINE
8
BLACK
6
CONTINUOUS
10
0.302448
20
-0.169349
11
0.303839
21
-0.168772
0
LINE
8
BLACK
6
CONTINUOUS
10
0.303839
20
-0.168772
11
0.305231
21
-0.169349
0
LINE
8
BLACK
6
CONTINUOUS
10
-0.471611
20
-0.129283
11
-0.471035
21
-0.130675
0
LINE
8
BLACK
6
CONTINUOUS
10
-0.471035
20
-0.130675
11
-0.471035
21
-0.159359
0
LINE
8
BLACK
6
CONTINUOUS
10
-0.471035
20
-0.159359
11
-0.47121
21
-0.159782
0
LINE
8
BLACK
6
CONTINUOUS
10
-0.47121
20
-0.159782
11
-0.471243
21
-0.160239
0
LINE
8
BLACK
6
CONTINUOUS
10
-0.471243
20
-0.160239
11
-0.47293
21
-0.163614
0
LINE
8
BLACK
6
CONTINUOUS
10
-0.47293
20
-0.163614
11
-0.473175
21
-0.163826
0
LINE
8
BLACK
6
CONTINUOUS
10
-0.473175
20
-0.163826
11
-0.473299
21
-0.164125
0
LINE
8
BLACK
6
CONTINUOUS
10
-0.473299
20
-0.164125
11
-0.474986
21
-0.165813
0
LINE
8
BLACK
6
CONTINUOUS
10
-0.474986
20
-0.165813
11
-0.475285
21
-0.165937
0
LINE
8
BLACK
6
CONTINUOUS
10
-0.475285
20
-0.165937
11
-0.475498
21
-0.166181
0
LINE
8
BLACK
6
CONTINUOUS
10
-0.475498
20
-0.166181
11
-0.478872
21
-0.167869
0
LINE
8
BLACK
6
CONTINUOUS
10
-0.478872
20
-0.167869
11
-0.479329
21
-0.167901
0
LINE
8
BLACK
6
CONTINUOUS
10
-0.479329
20
-0.167901
11
-0.479753
21
-0.168076
0
LINE
8
BLACK
6
CONTINUOUS
10
-0.479753
20
-0.168076
11
-0.486502
21
-0.168076
0
LINE
8
BLACK
6
CONTINUOUS
10
-0.486502
20
-0.168076
11
-0.486925
21
-0.167901
0
LINE
8
BLACK
6
CONTINUOUS
10
-0.486925
20
-0.167901
11
-0.487382
21
-0.167869
0
LINE
8
BLACK
6
CONTINUOUS
10
-0.487382
20
-0.167869
11
-0.490757
21
-0.166181
0
LINE
8
BLACK
6
CONTINUOUS
10
-0.490757
20
-0.166181
11
-0.490969
21
-0.165937
0
LINE
8
BLACK
6
CONTINUOUS
10
-0.490969
20
-0.165937
11
-0.491268
21
-0.165813
0
LINE
8
BLACK
6
CONTINUOUS
10
-0.491268
20
-0.165813
11
-0.492956
21
-0.164125
0
LINE
8
BLACK
6
CONTINUOUS
10
-0.492956
20
-0.164125
11
-0.493079
21
-0.163826
0
LINE
8
BLACK
6
CONTINUOUS
10
-0.493079
20
-0.163826
11
-0.493324
21
-0.163614
0
LINE
8
BLACK
6
CONTINUOUS
10
-0.493324
20
-0.163614
11
-0.495012
21
-0.160239
0
LINE
8
BLACK
6
CONTINUOUS
10
-0.495012
20
-0.160239
11
-0.495044
21
-0.159782
0
LINE
8
BLACK
6
CONTINUOUS
10
-0.495044
20
-0.159782
11
-0.495219
21
-0.159359
0
LINE
8
BLACK
6
CONTINUOUS
10
-0.495219
20
-0.159359
11
-0.495219
21
-0.130675
0
LINE
8
BLACK
6
CONTINUOUS
10
-0.495219
20
-0.130675
11
-0.494643
21
-0.129283
0
LINE
8
BLACK
6
CONTINUOUS
10
-0.494643
20
-0.129283
11
-0.493251
21
-0.128706
0
LINE
8
BLACK
6
CONTINUOUS
10
-0.493251
20
-0.128706
11
-0.491859
21
-0.129283
0
LINE
8
BLACK
6
CONTINUOUS
10
-0.491859
20
-0.129283
11
-0.491282
21
-0.130675
0
LINE
8
BLACK
6
CONTINUOUS
10
-0.491282
20
-0.130675
11
-0.491282
21
-0.158894
0
LINE
8
BLACK
6
CONTINUOUS
10
-0.491282
20
-0.158894
11
-0.489946
21
-0.161567
0
LINE
8
BLACK
6
CONTINUOUS
10
-0.489946
20
-0.161567
11
-0.48871
21
-0.162803
0
LINE
8
BLACK
6
CONTINUOUS
10
-0.48871
20
-0.162803
11
-0.486037
21
-0.164139
0
LINE
8
BLACK
6
CONTINUOUS
10
-0.486037
20
-0.164139
11
-0.480217
21
-0.164139
0
LINE
8
BLACK
6
CONTINUOUS
10
-0.480217
20
-0.164139
11
-0.477544
21
-0.162803
0
LINE
8
BLACK
6
CONTINUOUS
10
-0.477544
20
-0.162803
11
-0.476309
21
-0.161567
0
LINE
8
BLACK
6
CONTINUOUS
10
-0.476309
20
-0.161567
11
-0.474972
21
-0.158894
0
LINE
8
BLACK
6
CONTINUOUS
10
-0.474972
20
-0.158894
11
-0.474972
21
-0.130675
0
LINE
8
BLACK
6
CONTINUOUS
10
-0.474972
20
-0.130675
11
-0.474395
21
-0.129283
0
LINE
8
BLACK
6
CONTINUOUS
10
-0.474395
20
-0.129283
11
-0.473003
21
-0.128706
0
LINE
8
BLACK
6
CONTINUOUS
10
-0.473003
20
-0.128706
11
-0.471611
21
-0.129283
0
LINE
8
BLACK
6
CONTINUOUS
10
-0.530076
20
-0.1675
11
-0.530652
21
-0.166108
0
LINE
8
BLACK
6
CONTINUOUS
10
-0.530652
20
-0.166108
11
-0.530076
21
-0.164716
0
LINE
8
BLACK
6
CONTINUOUS
10
-0.530076
20
-0.164716
11
-0.528684
21
-0.164139
0
LINE
8
BLACK
6
CONTINUOUS
10
-0.528684
20
-0.164139
11
-0.520529
21
-0.164139
0
LINE
8
BLACK
6
CONTINUOUS
10
-0.520529
20
-0.164139
11
-0.520529
21
-0.130675
0
LINE
8
BLACK
6
CONTINUOUS
10
-0.520529
20
-0.130675
11
-0.520451
21
-0.130488
0
LINE
8
BLACK
6
CONTINUOUS
10
-0.520451
20
-0.130488
11
-0.52049
21
-0.130289
0
LINE
8
BLACK
6
CONTINUOUS
10
-0.52049
20
-0.130289
11
-0.520171
21
-0.129812
0
LINE
8
BLACK
6
CONTINUOUS
10
-0.520171
20
-0.129812
11
-0.519952
21
-0.129283
0
LINE
8
BLACK
6
CONTINUOUS
10
-0.519952
20
-0.129283
11
-0.519765
21
-0.129205
0
LINE
8
BLACK
6
CONTINUOUS
10
-0.519765
20
-0.129205
11
-0.519652
21
-0.129037
0
LINE
8
BLACK
6
CONTINUOUS
10
-0.519652
20
-0.129037
11
-0.51909
21
-0.128926
0
LINE
8
BLACK
6
CONTINUOUS
10
-0.51909
20
-0.128926
11
-0.51856
21
-0.128706
0
LINE
8
BLACK
6
CONTINUOUS
10
-0.51856
20
-0.128706
11
-0.518373
21
-0.128784
0
LINE
8
BLACK
6
CONTINUOUS
10
-0.518373
20
-0.128784
11
-0.518174
21
-0.128745
0
LINE
8
BLACK
6
CONTINUOUS
10
-0.518174
20
-0.128745
11
-0.517698
21
-0.129064
0
LINE
8
BLACK
6
CONTINUOUS
10
-0.517698
20
-0.129064
11
-0.517168
21
-0.129283
0
LINE
8
BLACK
6
CONTINUOUS
10
-0.517168
20
-0.129283
11
-0.517091
21
-0.12947
0
LINE
8
BLACK
6
CONTINUOUS
10
-0.517091
20
-0.12947
11
-0.516922
21
-0.129583
0
LINE
8
BLACK
6
CONTINUOUS
10
-0.516922
20
-0.129583
11
-0.513656
21
-0.134483
0
LINE
8
BLACK
6
CONTINUOUS
10
-0.513656
20
-0.134483
11
-0.510645
21
-0.137494
0
LINE
8
BLACK
6
CONTINUOUS
10
-0.510645
20
-0.137494
11
-0.507556
21
-0.139038
0
LINE
8
BLACK
6
CONTINUOUS
10
-0.507556
20
-0.139038
11
-0.506569
21
-0.140176
0
LINE
8
BLACK
6
CONTINUOUS
10
-0.506569
20
-0.140176
11
-0.506676
21
-0.141679
0
LINE
8
BLACK
6
CONTINUOUS
10
-0.506676
20
-0.141679
11
-0.507814
21
-0.142666
0
LINE
8
BLACK
6
CONTINUOUS
10
-0.507814
20
-0.142666
11
-0.509317
21
-0.142559
0
LINE
8
BLACK
6
CONTINUOUS
10
-0.509317
20
-0.142559
11
-0.512691
21
-0.140872
0
LINE
8
BLACK
6
CONTINUOUS
10
-0.512691
20
-0.140872
11
-0.512904
21
-0.140627
0
LINE
8
BLACK
6
CONTINUOUS
10
-0.512904
20
-0.140627
11
-0.513203
21
-0.140503
0
LINE
8
BLACK
6
CONTINUOUS
10
-0.513203
20
-0.140503
11
-0.516578
21
-0.137129
0
LINE
8
BLACK
6
CONTINUOUS
10
-0.516578
20
-0.137129
11
-0.516592
21
-0.137095
0
LINE
8
BLACK
6
CONTINUOUS
10
-0.516592
20
-0.137095
11
-0.516592
21
-0.164139
0
LINE
8
BLACK
6
CONTINUOUS
10
-0.516592
20
-0.164139
11
-0.508436
21
-0.164139
0
LINE
8
BLACK
6
CONTINUOUS
10
-0.508436
20
-0.164139
11
-0.507045
21
-0.164716
0
LINE
8
BLACK
6
CONTINUOUS
10
-0.507045
20
-0.164716
11
-0.506468
21
-0.166108
0
LINE
8
BLACK
6
CONTINUOUS
10
-0.506468
20
-0.166108
11
-0.507045
21
-0.1675
0
LINE
8
BLACK
6
CONTINUOUS
10
-0.507045
20
-0.1675
11
-0.508436
21
-0.168076
0
LINE
8
BLACK
6
CONTINUOUS
10
-0.508436
20
-0.168076
11
-0.528684
21
-0.168076
0
LINE
8
BLACK
6
CONTINUOUS
10
-0.528684
20
-0.168076
11
-0.530076
21
-0.1675
0
LINE
8
BLACK
6
CONTINUOUS
10
0.625
20
0.114961
11
0.625
21
0.0850394
0
LINE
8
BLACK
6
CONTINUOUS
10
0.625
20
0.0850394
11
0.624308
21
0.0833691
0
LINE
8
BLACK
6
CONTINUOUS
10
0.624308
20
0.0833691
11
0.622638
21
0.0826772
0
LINE
8
BLACK
6
CONTINUOUS
10
0.622638
20
0.0826772
11
0.38878
21
0.0826772
0
LINE
8
BLACK
6
CONTINUOUS
10
0.38878
20
0.0826772
11
0.38878
21
0.0173228
0
LINE
8
BLACK
6
CONTINUOUS
10
0.38878
20
0.0173228
11
0.622638
21
0.0173228
0
LINE
8
BLACK
6
CONTINUOUS
10
0.622638
20
0.0173228
11
0.624308
21
0.0166309
0
LINE
8
BLACK
6
CONTINUOUS
10
0.624308
20
0.0166309
11
0.625
21
0.0149606
0
LINE
8
BLACK
6
CONTINUOUS
10
0.625
20
0.0149606
11
0.625
21
-0.0149606
0
LINE
8
BLACK
6
CONTINUOUS
10
0.625
20
-0.0149606
11
0.624308
21
-0.0166309
0
LINE
8
BLACK
6
CONTINUOUS
10
0.624308
20
-0.0166309
11
0.622638
21
-0.0173228
0
LINE
8
BLACK
6
CONTINUOUS
10
0.622638
20
-0.0173228
11
0.38878
21
-0.0173228
0
LINE
8
BLACK
6
CONTINUOUS
10
0.38878
20
-0.0173228
11
0.38878
21
-0.0826772
0
LINE
8
BLACK
6
CONTINUOUS
10
0.38878
20
-0.0826772
11
0.622638
21
-0.0826772
0
LINE
8
BLACK
6
CONTINUOUS
10
0.622638
20
-0.0826772
11
0.624308
21
-0.0833691
0
LINE
8
BLACK
6
CONTINUOUS
10
0.624308
20
-0.0833691
11
0.625
21
-0.0850394
0
LINE
8
BLACK
6
CONTINUOUS
10
0.625
20
-0.0850394
11
0.625
21
-0.114961
0
LINE
8
BLACK
6
CONTINUOUS
10
0.625
20
-0.114961
11
0.624308
21
-0.116631
0
LINE
8
BLACK
6
CONTINUOUS
10
0.624308
20
-0.116631
11
0.622638
21
-0.117323
0
LINE
8
BLACK
6
CONTINUOUS
10
0.622638
20
-0.117323
11
0.38878
21
-0.117323
0
LINE
8
BLACK
6
CONTINUOUS
10
0.38878
20
-0.117323
11
0.38878
21
-0.152362
0
LINE
8
BLACK
6
CONTINUOUS
10
0.38878
20
-0.152362
11
0.388088
21
-0.154033
0
LINE
8
BLACK
6
CONTINUOUS
10
0.388088
20
-0.154033
11
0.386417
21
-0.154724
0
LINE
8
BLACK
6
CONTINUOUS
10
0.386417
20
-0.154724
11
0.281693
21
-0.154724
0
LINE
8
BLACK
6
CONTINUOUS
10
0.281693
20
-0.154724
11
0.280023
21
-0.154033
0
LINE
8
BLACK
6
CONTINUOUS
10
0.280023
20
-0.154033
11
0.279331
21
-0.152362
0
LINE
8
BLACK
6
CONTINUOUS
10
0.279331
20
-0.152362
11
0.279331
21
-0.117323
0
LINE
8
BLACK
6
CONTINUOUS
10
0.279331
20
-0.117323
11
0.268701
21
-0.117323
0
LINE
8
BLACK
6
CONTINUOUS
10
0.268701
20
-0.117323
11
0.26703
21
-0.116631
0
LINE
8
BLACK
6
CONTINUOUS
10
0.26703
20
-0.116631
11
0.266339
21
-0.114961
0
LINE
8
BLACK
6
CONTINUOUS
10
0.266339
20
-0.114961
11
0.26703
21
-0.11329
0
LINE
8
BLACK
6
CONTINUOUS
10
0.26703
20
-0.11329
11
0.268701
21
-0.112598
0
LINE
8
BLACK
6
CONTINUOUS
10
0.268701
20
-0.112598
11
0.279331
21
-0.112598
0
LINE
8
BLACK
6
CONTINUOUS
10
0.279331
20
-0.112598
11
0.279331
21
-0.0874016
0
LINE
8
BLACK
6
CONTINUOUS
10
0.279331
20
-0.0874016
11
0.268701
21
-0.0874016
0
LINE
8
BLACK
6
CONTINUOUS
10
0.268701
20
-0.0874016
11
0.26703
21
-0.0867097
0
LINE
8
BLACK
6
CONTINUOUS
10
0.26703
20
-0.0867097
11
0.266339
21
-0.0850394
0
LINE
8
BLACK
6
CONTINUOUS
10
0.266339
20
-0.0850394
11
0.26703
21
-0.0833691
0
LINE
8
BLACK
6
CONTINUOUS
10
0.26703
20
-0.0833691
11
0.268701
21
-0.0826772
0
LINE
8
BLACK
6
CONTINUOUS
10
0.268701
20
-0.0826772
11
0.279331
21
-0.0826772
0
LINE
8
BLACK
6
CONTINUOUS
10
0.279331
20
-0.0826772
11
0.279331
21
-0.0173228
0
LINE
8
BLACK
6
CONTINUOUS
10
0.279331
20
-0.0173228
11
0.26606
21
-0.0173228
0
LINE
8
BLACK
6
CONTINUOUS
10
0.26606
20
-0.0173228
11
0.26439
21
-0.0166309
0
LINE
8
BLACK
6
CONTINUOUS
10
0.26439
20
-0.0166309
11
0.263698
21
-0.0149606
0
LINE
8
BLACK
6
CONTINUOUS
10
0.263698
20
-0.0149606
11
0.26439
21
-0.0132903
0
LINE
8
BLACK
6
CONTINUOUS
10
0.26439
20
-0.0132903
11
0.26606
21
-0.0125984
0
LINE
8
BLACK
6
CONTINUOUS
10
0.26606
20
-0.0125984
11
0.279331
21
-0.0125984
0
LINE
8
BLACK
6
CONTINUOUS
10
0.279331
20
-0.0125984
11
0.279331
21
0.0125984
0
LINE
8
BLACK
6
CONTINUOUS
10
0.279331
20
0.0125984
11
0.26606
21
0.0125984
0
LINE
8
BLACK
6
CONTINUOUS
10
0.26606
20
0.0125984
11
0.26439
21
0.0132903
0
LINE
8
BLACK
6
CONTINUOUS
10
0.26439
20
0.0132903
11
0.263698
21
0.0149606
0
LINE
8
BLACK
6
CONTINUOUS
10
0.263698
20
0.0149606
11
0.26439
21
0.0166309
0
LINE
8
BLACK
6
CONTINUOUS
10
0.26439
20
0.0166309
11
0.26606
21
0.0173228
0
LINE
8
BLACK
6
CONTINUOUS
10
0.26606
20
0.0173228
11
0.279331
21
0.0173228
0
LINE
8
BLACK
6
CONTINUOUS
10
0.279331
20
0.0173228
11
0.279331
21
0.0826772
0
LINE
8
BLACK
6
CONTINUOUS
10
0.279331
20
0.0826772
11
0.26606
21
0.0826772
0
LINE
8
BLACK
6
CONTINUOUS
10
0.26606
20
0.0826772
11
0.26439
21
0.0833691
0
LINE
8
BLACK
6
CONTINUOUS
10
0.26439
20
0.0833691
11
0.263698
21
0.0850394
0
LINE
8
BLACK
6
CONTINUOUS
10
0.263698
20
0.0850394
11
0.26439
21
0.0867097
0
LINE
8
BLACK
6
CONTINUOUS
10
0.26439
20
0.0867097
11
0.26606
21
0.0874016
0
LINE
8
BLACK
6
CONTINUOUS
10
0.26606
20
0.0874016
11
0.279331
21
0.0874016
0
LINE
8
BLACK
6
CONTINUOUS
10
0.279331
20
0.0874016
11
0.279331
21
0.112598
0
LINE
8
BLACK
6
CONTINUOUS
10
0.279331
20
0.112598
11
0.26606
21
0.112598
0
LINE
8
BLACK
6
CONTINUOUS
10
0.26606
20
0.112598
11
0.26439
21
0.11329
0
LINE
8
BLACK
6
CONTINUOUS
10
0.26439
20
0.11329
11
0.263698
21
0.114961
0
LINE
8
BLACK
6
CONTINUOUS
10
0.263698
20
0.114961
11
0.26439
21
0.116631
0
LINE
8
BLACK
6
CONTINUOUS
10
0.26439
20
0.116631
11
0.26606
21
0.117323
0
LINE
8
BLACK
6
CONTINUOUS
10
0.26606
20
0.117323
11
0.279331
21
0.117323
0
LINE
8
BLACK
6
CONTINUOUS
10
0.279331
20
0.117323
11
0.279331
21
0.152362
0
LINE
8
BLACK
6
CONTINUOUS
10
0.279331
20
0.152362
11
0.280023
21
0.154033
0
LINE
8
BLACK
6
CONTINUOUS
10
0.280023
20
0.154033
11
0.281693
21
0.154724
0
LINE
8
BLACK
6
CONTINUOUS
10
0.281693
20
0.154724
11
0.386417
21
0.154724
0
LINE
8
BLACK
6
CONTINUOUS
10
0.386417
20
0.154724
11
0.388088
21
0.154033
0
LINE
8
BLACK
6
CONTINUOUS
10
0.388088
20
0.154033
11
0.38878
21
0.152362
0
LINE
8
BLACK
6
CONTINUOUS
10
0.38878
20
0.152362
11
0.38878
21
0.117323
0
LINE
8
BLACK
6
CONTINUOUS
10
0.38878
20
0.117323
11
0.622638
21
0.117323
0
LINE
8
BLACK
6
CONTINUOUS
10
0.622638
20
0.117323
11
0.624308
21
0.116631
0
LINE
8
BLACK
6
CONTINUOUS
10
0.624308
20
0.116631
11
0.625
21
0.114961
0
LINE
8
BLACK
6
CONTINUOUS
10
0.284055
20
-0.0523622
11
0.284055
21
-0.15
0
LINE
8
BLACK
6
CONTINUOUS
10
0.284055
20
-0.15
11
0.384055
21
-0.15
0
LINE
8
BLACK
6
CONTINUOUS
10
0.384055
20
-0.15
11
0.384055
21
-0.0523622
0
LINE
8
BLACK
6
CONTINUOUS
10
0.384055
20
-0.0523622
11
0.284055
21
-0.0523622
0
LINE
8
BLACK
6
CONTINUOUS
10
0.284055
20
0.0476378
11
0.284055
21
-0.0476378
0
LINE
8
BLACK
6
CONTINUOUS
10
0.284055
20
-0.0476378
11
0.384055
21
-0.0476378
0
LINE
8
BLACK
6
CONTINUOUS
10
0.384055
20
-0.0476378
11
0.384055
21
0.0476378
0
LINE
8
BLACK
6
CONTINUOUS
10
0.384055
20
0.0476378
11
0.284055
21
0.0476378
0
LINE
8
BLACK
6
CONTINUOUS
10
0.38878
20
0.0125984
11
0.38878
21
-0.0125984
0
LINE
8
BLACK
6
CONTINUOUS
10
0.38878
20
-0.0125984
11
0.620276
21
-0.0125984
0
LINE
8
BLACK
6
CONTINUOUS
10
0.620276
20
-0.0125984
11
0.620276
21
0.0125984
0
LINE
8
BLACK
6
CONTINUOUS
10
0.620276
20
0.0125984
11
0.38878
21
0.0125984
0
LINE
8
BLACK
6
CONTINUOUS
10
0.284055
20
0.15
11
0.284055
21
0.0523622
0
LINE
8
BLACK
6
CONTINUOUS
10
0.284055
20
0.0523622
11
0.384055
21
0.0523622
0
LINE
8
BLACK
6
CONTINUOUS
10
0.384055
20
0.0523622
11
0.384055
21
0.15
0
LINE
8
BLACK
6
CONTINUOUS
10
0.384055
20
0.15
11
0.284055
21
0.15
0
LINE
8
BLACK
6
CONTINUOUS
10
0.38878
20
0.112598
11
0.38878
21
0.0874016
0
LINE
8
BLACK
6
CONTINUOUS
10
0.38878
20
0.0874016
11
0.620276
21
0.0874016
0
LINE
8
BLACK
6
CONTINUOUS
10
0.620276
20
0.0874016
11
0.620276
21
0.112598
0
LINE
8
BLACK
6
CONTINUOUS
10
0.620276
20
0.112598
11
0.38878
21
0.112598
0
LINE
8
BLACK
6
CONTINUOUS
10
0.29395
20
-0.125705
11
0.291789
21
-0.123543
0
LINE
8
BLACK
6
CONTINUOUS
10
0.291789
20
-0.123543
11
0.290997
21
-0.120591
0
LINE
8
BLACK
6
CONTINUOUS
10
0.290997
20
-0.120591
11
0.291789
21
-0.117638
0
LINE
8
BLACK
6
CONTINUOUS
10
0.291789
20
-0.117638
11
0.29395
21
-0.115476
0
LINE
8
BLACK
6
CONTINUOUS
10
0.29395
20
-0.115476
11
0.296903
21
-0.114685
0
LINE
8
BLACK
6
CONTINUOUS
10
0.296903
20
-0.114685
11
0.305621
21
-0.114685
0
LINE
8
BLACK
6
CONTINUOUS
10
0.305621
20
-0.114685
11
0.305621
21
-0.0694094
0
LINE
8
BLACK
6
CONTINUOUS
10
0.305621
20
-0.0694094
11
0.305969
21
-0.0681106
0
LINE
8
BLACK
6
CONTINUOUS
10
0.305969
20
-0.0681106
11
0.306232
21
-0.0667919
0
LINE
8
BLACK
6
CONTINUOUS
10
0.306232
20
-0.0667919
11
0.306361
21
-0.0666452
0
LINE
8
BLACK
6
CONTINUOUS
10
0.306361
20
-0.0666452
11
0.306412
21
-0.0664567
0
LINE
8
BLACK
6
CONTINUOUS
10
0.306412
20
-0.0664567
11
0.307363
21
-0.0655057
0
LINE
8
BLACK
6
CONTINUOUS
10
0.307363
20
-0.0655057
11
0.30825
21
-0.0644957
0
LINE
8
BLACK
6
CONTINUOUS
10
0.30825
20
-0.0644957
11
0.308435
21
-0.0644332
0
LINE
8
BLACK
6
CONTINUOUS
10
0.308435
20
-0.0644332
11
0.308573
21
-0.0642951
0
LINE
8
BLACK
6
CONTINUOUS
10
0.308573
20
-0.0642951
11
0.309872
21
-0.063947
0
LINE
8
BLACK
6
CONTINUOUS
10
0.309872
20
-0.063947
11
0.311146
21
-0.0635161
0
LINE
8
BLACK
6
CONTINUOUS
10
0.311146
20
-0.0635161
11
0.311337
21
-0.0635544
0
LINE
8
BLACK
6
CONTINUOUS
10
0.311337
20
-0.0635544
11
0.311526
21
-0.0635039
0
LINE
8
BLACK
6
CONTINUOUS
10
0.311526
20
-0.0635039
11
0.312825
21
-0.0638519
0
LINE
8
BLACK
6
CONTINUOUS
10
0.312825
20
-0.0638519
11
0.314144
21
-0.0641156
0
LINE
8
BLACK
6
CONTINUOUS
10
0.314144
20
-0.0641156
11
0.31429
21
-0.0642446
0
LINE
8
BLACK
6
CONTINUOUS
10
0.31429
20
-0.0642446
11
0.314479
21
-0.0642951
0
LINE
8
BLACK
6
CONTINUOUS
10
0.314479
20
-0.0642951
11
0.31543
21
-0.065246
0
LINE
8
BLACK
6
CONTINUOUS
10
0.31543
20
-0.065246
11
0.31644
21
-0.0661336
0
LINE
8
BLACK
6
CONTINUOUS
10
0.31644
20
-0.0661336
11
0.32099
21
-0.0729586
0
LINE
8
BLACK
6
CONTINUOUS
10
0.32099
20
-0.0729586
11
0.324773
21
-0.0767419
0
LINE
8
BLACK
6
CONTINUOUS
10
0.324773
20
-0.0767419
11
0.32879
21
-0.0787505
0
LINE
8
BLACK
6
CONTINUOUS
10
0.32879
20
-0.0787505
11
0.331077
21
-0.0807786
0
LINE
8
BLACK
6
CONTINUOUS
10
0.331077
20
-0.0807786
11
0.332044
21
-0.0836787
0
LINE
8
BLACK
6
CONTINUOUS
10
0.332044
20
-0.0836787
11
0.331431
21
-0.0866735
0
LINE
8
BLACK
6
CONTINUOUS
10
0.331431
20
-0.0866735
11
0.329403
21
-0.0889607
0
LINE
8
BLACK
6
CONTINUOUS
10
0.329403
20
-0.0889607
11
0.326503
21
-0.0899274
0
LINE
8
BLACK
6
CONTINUOUS
10
0.326503
20
-0.0899274
11
0.323508
21
-0.0893146
0
LINE
8
BLACK
6
CONTINUOUS
10
0.323508
20
-0.0893146
11
0.318634
21
-0.0868775
0
LINE
8
BLACK
6
CONTINUOUS
10
0.318634
20
-0.0868775
11
0.317922
21
-0.0862467
0
LINE
8
BLACK
6
CONTINUOUS
10
0.317922
20
-0.0862467
11
0.317432
21
-0.0859632
0
LINE
8
BLACK
6
CONTINUOUS
10
0.317432
20
-0.0859632
11
0.317432
21
-0.114685
0
LINE
8
BLACK
6
CONTINUOUS
10
0.317432
20
-0.114685
11
0.326149
21
-0.114685
0
LINE
8
BLACK
6
CONTINUOUS
10
0.326149
20
-0.114685
11
0.329102
21
-0.115476
0
LINE
8
BLACK
6
CONTINUOUS
10
0.329102
20
-0.115476
11
0.331264
21
-0.117638
0
LINE
8
BLACK
6
CONTINUOUS
10
0.331264
20
-0.117638
11
0.332055
21
-0.120591
0
LINE
8
BLACK
6
CONTINUOUS
10
0.332055
20
-0.120591
11
0.331264
21
-0.123543
0
LINE
8
BLACK
6
CONTINUOUS
10
0.331264
20
-0.123543
11
0.329102
21
-0.125705
0
LINE
8
BLACK
6
CONTINUOUS
10
0.329102
20
-0.125705
11
0.326149
21
-0.126496
0
LINE
8
BLACK
6
CONTINUOUS
10
0.326149
20
-0.126496
11
0.296903
21
-0.126496
0
LINE
8
BLACK
6
CONTINUOUS
10
0.296903
20
-0.126496
11
0.29395
21
-0.125705
0
LINE
8
BLACK
6
CONTINUOUS
10
0.351037
20
-0.0642951
11
0.353198
21
-0.0664567
0
LINE
8
BLACK
6
CONTINUOUS
10
0.353198
20
-0.0664567
11
0.353989
21
-0.0694094
0
LINE
8
BLACK
6
CONTINUOUS
10
0.353989
20
-0.0694094
11
0.353989
21
-0.105009
0
LINE
8
BLACK
6
CONTINUOUS
10
0.353989
20
-0.105009
11
0.355683
21
-0.110089
0
LINE
8
BLACK
6
CONTINUOUS
10
0.355683
20
-0.110089
11
0.358586
21
-0.112992
0
LINE
8
BLACK
6
CONTINUOUS
10
0.358586
20
-0.112992
11
0.363665
21
-0.114685
0
LINE
8
BLACK
6
CONTINUOUS
10
0.363665
20
-0.114685
11
0.367582
21
-0.114685
0
LINE
8
BLACK
6
CONTINUOUS
10
0.367582
20
-0.114685
11
0.370534
21
-0.115476
0
LINE
8
BLACK
6
CONTINUOUS
10
0.370534
20
-0.115476
11
0.372696
21
-0.117638
0
LINE
8
BLACK
6
CONTINUOUS
10
0.372696
20
-0.117638
11
0.373487
21
-0.120591
0
LINE
8
BLACK
6
CONTINUOUS
10
0.373487
20
-0.120591
11
0.372696
21
-0.123543
0
LINE
8
BLACK
6
CONTINUOUS
10
0.372696
20
-0.123543
11
0.370534
21
-0.125705
0
LINE
8
BLACK
6
CONTINUOUS
10
0.370534
20
-0.125705
11
0.367582
21
-0.126496
0
LINE
8
BLACK
6
CONTINUOUS
10
0.367582
20
-0.126496
11
0.362707
21
-0.126496
0
LINE
8
BLACK
6
CONTINUOUS
10
0.362707
20
-0.126496
11
0.361789
21
-0.12625
0
LINE
8
BLACK
6
CONTINUOUS
10
0.361789
20
-0.12625
11
0.36084
21
-0.126193
0
LINE
8
BLACK
6
CONTINUOUS
10
0.36084
20
-0.126193
11
0.353528
21
-0.123756
0
LINE
8
BLACK
6
CONTINUOUS
10
0.353528
20
-0.123756
11
0.352396
21
-0.123008
0
LINE
8
BLACK
6
CONTINUOUS
10
0.352396
20
-0.123008
11
0.35122
21
-0.122329
0
LINE
8
BLACK
6
CONTINUOUS
10
0.35122
20
-0.122329
11
0.346345
21
-0.117455
0
LINE
8
BLACK
6
CONTINUOUS
10
0.346345
20
-0.117455
11
0.345667
21
-0.116279
0
LINE
8
BLACK
6
CONTINUOUS
10
0.345667
20
-0.116279
11
0.344919
21
-0.115146
0
LINE
8
BLACK
6
CONTINUOUS
10
0.344919
20
-0.115146
11
0.342482
21
-0.107835
0
LINE
8
BLACK
6
CONTINUOUS
10
0.342482
20
-0.107835
11
0.342425
21
-0.106886
0
LINE
8
BLACK
6
CONTINUOUS
10
0.342425
20
-0.106886
11
0.342178
21
-0.105967
0
LINE
8
BLACK
6
CONTINUOUS
10
0.342178
20
-0.105967
11
0.342178
21
-0.0694094
0
LINE
8
BLACK
6
CONTINUOUS
10
0.342178
20
-0.0694094
11
0.34297
21
-0.0664567
0
LINE
8
BLACK
6
CONTINUOUS
10
0.34297
20
-0.0664567
11
0.345131
21
-0.0642951
0
LINE
8
BLACK
6
CONTINUOUS
10
0.345131
20
-0.0642951
11
0.348084
21
-0.0635039
0
LINE
8
BLACK
6
CONTINUOUS
10
0.348084
20
-0.0635039
11
0.351037
21
-0.0642951
0
LINE
8
BLACK
6
CONTINUOUS
10
0.17667
20
-0.0983297
11
0.177362
21
-0.1
0
LINE
8
BLACK
6
CONTINUOUS
10
0.177362
20
-0.1
11
0.177362
21
-0.147638
0
LINE
8
BLACK
6
CONTINUOUS
10
0.177362
20
-0.147638
11
0.225
21
-0.147638
0
LINE
8
BLACK
6
CONTINUOUS
10
0.225
20
-0.147638
11
0.22667
21
-0.14833
0
LINE
8
BLACK
6
CONTINUOUS
10
0.22667
20
-0.14833
11
0.227362
21
-0.15
0
LINE
8
BLACK
6
CONTINUOUS
10
0.227362
20
-0.15
11
0.22667
21
-0.15167
0
LINE
8
BLACK
6
CONTINUOUS
10
0.22667
20
-0.15167
11
0.225
21
-0.152362
0
LINE
8
BLACK
6
CONTINUOUS
10
0.225
20
-0.152362
11
0.175
21
-0.152362
0
LINE
8
BLACK
6
CONTINUOUS
10
0.175
20
-0.152362
11
0.17333
21
-0.15167
0
LINE
8
BLACK
6
CONTINUOUS
10
0.17333
20
-0.15167
11
0.172638
21
-0.15
0
LINE
8
BLACK
6
CONTINUOUS
10
0.172638
20
-0.15
11
0.172638
21
-0.1
0
LINE
8
BLACK
6
CONTINUOUS
10
0.172638
20
-0.1
11
0.17333
21
-0.0983297
0
LINE
8
BLACK
6
CONTINUOUS
10
0.17333
20
-0.0983297
11
0.175
21
-0.0976378
0
LINE
8
BLACK
6
CONTINUOUS
10
0.175
20
-0.0976378
11
0.17667
21
-0.0983297
0
LINE
8
BLACK
6
CONTINUOUS
10
-0.464817
20
0.184349
11
-0.46327
21
0.183051
0
LINE
8
BLACK
6
CONTINUOUS
10
-0.46327
20
0.183051
11
-0.462919
21
0.181062
0
LINE
8
BLACK
6
CONTINUOUS
10
-0.462919
20
0.181062
11
-0.463929
21
0.179313
0
LINE
8
BLACK
6
CONTINUOUS
10
-0.463929
20
0.179313
11
-0.465827
21
0.178622
0
LINE
8
BLACK
6
CONTINUOUS
10
-0.465827
20
0.178622
11
-0.514449
21
0.178622
0
LINE
8
BLACK
6
CONTINUOUS
10
-0.514449
20
0.178622
11
-0.514449
21
-0.0930315
0
LINE
8
BLACK
6
CONTINUOUS
10
-0.514449
20
-0.0930315
11
-0.465827
21
-0.0930315
0
LINE
8
BLACK
6
CONTINUOUS
10
-0.465827
20
-0.0930315
11
-0.464817
21
-0.0932096
0
LINE
8
BLACK
6
CONTINUOUS
10
-0.464817
20
-0.0932096
11
-0.46327
21
-0.0945079
0
LINE
8
BLACK
6
CONTINUOUS
10
-0.46327
20
-0.0945079
11
-0.462919
21
-0.096497
0
LINE
8
BLACK
6
CONTINUOUS
10
-0.462919
20
-0.096497
11
-0.463929
21
-0.0982462
0
LINE
8
BLACK
6
CONTINUOUS
10
-0.463929
20
-0.0982462
11
-0.465827
21
-0.098937
0
LINE
8
BLACK
6
CONTINUOUS
10
-0.465827
20
-0.098937
11
-0.514449
21
-0.098937
0
LINE
8
BLACK
6
CONTINUOUS
10
-0.514449
20
-0.098937
11
-0.514449
21
-0.118622
0
LINE
8
BLACK
6
CONTINUOUS
10
-0.514449
20
-0.118622
11
-0.465827
21
-0.118622
0
LINE
8
BLACK
6
CONTINUOUS
10
-0.465827
20
-0.118622
11
-0.464817
21
-0.1188
0
LINE
8
BLACK
6
CONTINUOUS
10
-0.464817
20
-0.1188
11
-0.46327
21
-0.120098
0
LINE
8
BLACK
6
CONTINUOUS
10
-0.46327
20
-0.120098
11
-0.462919
21
-0.122088
0
LINE
8
BLACK
6
CONTINUOUS
10
-0.462919
20
-0.122088
11
-0.463929
21
-0.123837
0
LINE
8
BLACK
6
CONTINUOUS
10
-0.463929
20
-0.123837
11
-0.465827
21
-0.124528
0
LINE
8
BLACK
6
CONTINUOUS
10
-0.465827
20
-0.124528
11
-0.517402
21
-0.124528
0
LINE
8
BLACK
6
CONTINUOUS
10
-0.517402
20
-0.124528
11
-0.517785
21
-0.12446
0
LINE
8
BLACK
6
CONTINUOUS
10
-0.517785
20
-0.12446
11
-0.517914
21
-0.124483
0
LINE
8
BLACK
6
CONTINUOUS
10
-0.517914
20
-0.124483
11
-0.518028
21
-0.124417
0
LINE
8
BLACK
6
CONTINUOUS
10
-0.518028
20
-0.124417
11
-0.518411
21
-0.124349
0
LINE
8
BLACK
6
CONTINUOUS
10
-0.518411
20
-0.124349
11
-0.518999
21
-0.123856
0
LINE
8
BLACK
6
CONTINUOUS
10
-0.518999
20
-0.123856
11
-0.519664
21
-0.123473
0
LINE
8
BLACK
6
CONTINUOUS
10
-0.519664
20
-0.123473
11
-0.519755
21
-0.123222
0
LINE
8
BLACK
6
CONTINUOUS
10
-0.519755
20
-0.123222
11
-0.519959
21
-0.123051
0
LINE
8
BLACK
6
CONTINUOUS
10
-0.519959
20
-0.123051
11
-0.520092
21
-0.122296
0
LINE
8
BLACK
6
CONTINUOUS
10
-0.520092
20
-0.122296
11
-0.520354
21
-0.121575
0
LINE
8
BLACK
6
CONTINUOUS
10
-0.520354
20
-0.121575
11
-0.520354
21
0.181575
0
LINE
8
BLACK
6
CONTINUOUS
10
-0.520354
20
0.181575
11
-0.520287
21
0.181958
0
LINE
8
BLACK
6
CONTINUOUS
10
-0.520287
20
0.181958
11
-0.520309
21
0.182088
0
LINE
8
BLACK
6
CONTINUOUS
10
-0.520309
20
0.182088
11
-0.520244
21
0.182201
0
LINE
8
BLACK
6
CONTINUOUS
10
-0.520244
20
0.182201
11
-0.520176
21
0.182585
0
LINE
8
BLACK
6
CONTINUOUS
10
-0.520176
20
0.182585
11
-0.519683
21
0.183172
0
LINE
8
BLACK
6
CONTINUOUS
10
-0.519683
20
0.183172
11
-0.5193
21
0.183837
0
LINE
8
BLACK
6
CONTINUOUS
10
-0.5193
20
0.183837
11
-0.519049
21
0.183928
0
LINE
8
BLACK
6
CONTINUOUS
10
-0.519049
20
0.183928
11
-0.518878
21
0.184132
0
LINE
8
BLACK
6
CONTINUOUS
10
-0.518878
20
0.184132
11
-0.518122
21
0.184265
0
LINE
8
BLACK
6
CONTINUOUS
10
-0.518122
20
0.184265
11
-0.517402
21
0.184528
0
LINE
8
BLACK
6
CONTINUOUS
10
-0.517402
20
0.184528
11
-0.465827
21
0.184528
0
LINE
8
BLACK
6
CONTINUOUS
10
-0.465827
20
0.184528
11
-0.464817
21
0.184349
0
LINE
8
BLACK
6
CONTINUOUS
10
-0.213868
20
0.18446
11
-0.213739
21
0.184483
0
LINE
8
BLACK
6
CONTINUOUS
10
-0.213739
20
0.184483
11
-0.213626
21
0.184417
0
LINE
8
BLACK
6
CONTINUOUS
10
-0.213626
20
0.184417
11
-0.213242
21
0.184349
0
LINE
8
BLACK
6
CONTINUOUS
10
-0.213242
20
0.184349
11
-0.212654
21
0.183856
0
LINE
8
BLACK
6
CONTINUOUS
10
-0.212654
20
0.183856
11
-0.21199
21
0.183473
0
LINE
8
BLACK
6
CONTINUOUS
10
-0.21199
20
0.183473
11
-0.211899
21
0.183222
0
LINE
8
BLACK
6
CONTINUOUS
10
-0.211899
20
0.183222
11
-0.211695
21
0.183051
0
LINE
8
BLACK
6
CONTINUOUS
10
-0.211695
20
0.183051
11
-0.211562
21
0.182296
0
LINE
8
BLACK
6
CONTINUOUS
10
-0.211562
20
0.182296
11
-0.211299
21
0.181575
0
LINE
8
BLACK
6
CONTINUOUS
10
-0.211299
20
0.181575
11
-0.211299
21
-0.121575
0
LINE
8
BLACK
6
CONTINUOUS
10
-0.211299
20
-0.121575
11
-0.211367
21
-0.121958
0
LINE
8
BLACK
6
CONTINUOUS
10
-0.211367
20
-0.121958
11
-0.211344
21
-0.122088
0
LINE
8
BLACK
6
CONTINUOUS
10
-0.211344
20
-0.122088
11
-0.21141
21
-0.122201
0
LINE
8
BLACK
6
CONTINUOUS
10
-0.21141
20
-0.122201
11
-0.211477
21
-0.122585
0
LINE
8
BLACK
6
CONTINUOUS
10
-0.211477
20
-0.122585
11
-0.21197
21
-0.123172
0
LINE
8
BLACK
6
CONTINUOUS
10
-0.21197
20
-0.123172
11
-0.212354
21
-0.123837
0
LINE
8
BLACK
6
CONTINUOUS
10
-0.212354
20
-0.123837
11
-0.212604
21
-0.123928
0
LINE
8
BLACK
6
CONTINUOUS
10
-0.212604
20
-0.123928
11
-0.212776
21
-0.124132
0
LINE
8
BLACK
6
CONTINUOUS
10
-0.212776
20
-0.124132
11
-0.213531
21
-0.124265
0
LINE
8
BLACK
6
CONTINUOUS
10
-0.213531
20
-0.124265
11
-0.214252
21
-0.124528
0
LINE
8
BLACK
6
CONTINUOUS
10
-0.214252
20
-0.124528
11
-0.265827
21
-0.124528
0
LINE
8
BLACK
6
CONTINUOUS
10
-0.265827
20
-0.124528
11
-0.266837
21
-0.124349
0
LINE
8
BLACK
6
CONTINUOUS
10
-0.266837
20
-0.124349
11
-0.268384
21
-0.123051
0
LINE
8
BLACK
6
CONTINUOUS
10
-0.268384
20
-0.123051
11
-0.268735
21
-0.121062
0
LINE
8
BLACK
6
CONTINUOUS
10
-0.268735
20
-0.121062
11
-0.267725
21
-0.119313
0
LINE
8
BLACK
6
CONTINUOUS
10
-0.267725
20
-0.119313
11
-0.265827
21
-0.118622
0
LINE
8
BLACK
6
CONTINUOUS
10
-0.265827
20
-0.118622
11
-0.217205
21
-0.118622
0
LINE
8
BLACK
6
CONTINUOUS
10
-0.217205
20
-0.118622
11
-0.217205
21
-0.098937
0
LINE
8
BLACK
6
CONTINUOUS
10
-0.217205
20
-0.098937
11
-0.265827
21
-0.098937
0
LINE
8
BLACK
6
CONTINUOUS
10
-0.265827
20
-0.098937
11
-0.266837
21
-0.0987589
0
LINE
8
BLACK
6
CONTINUOUS
10
-0.266837
20
-0.0987589
11
-0.268384
21
-0.0974606
0
LINE
8
BLACK
6
CONTINUOUS
10
-0.268384
20
-0.0974606
11
-0.268735
21
-0.0954715
0
LINE
8
BLACK
6
CONTINUOUS
10
-0.268735
20
-0.0954715
11
-0.267725
21
-0.0937223
0
LINE
8
BLACK
6
CONTINUOUS
10
-0.267725
20
-0.0937223
11
-0.265827
21
-0.0930315
0
LINE
8
BLACK
6
CONTINUOUS
10
-0.265827
20
-0.0930315
11
-0.217205
21
-0.0930315
0
LINE
8
BLACK
6
CONTINUOUS
10
-0.217205
20
-0.0930315
11
-0.217205
21
0.178622
0
LINE
8
BLACK
6
CONTINUOUS
10
-0.217205
20
0.178622
11
-0.265827
21
0.178622
0
LINE
8
BLACK
6
CONTINUOUS
10
-0.265827
20
0.178622
11
-0.266837
21
0.1788
0
LINE
8
BLACK
6
CONTINUOUS
10
-0.266837
20
0.1788
11
-0.268384
21
0.180098
0
LINE
8
BLACK
6
CONTINUOUS
10
-0.268384
20
0.180098
11
-0.268735
21
0.182088
0
LINE
8
BLACK
6
CONTINUOUS
10
-0.268735
20
0.182088
11
-0.267725
21
0.183837
0
LINE
8
BLACK
6
CONTINUOUS
10
-0.267725
20
0.183837
11
-0.265827
21
0.184528
0
LINE
8
BLACK
6
CONTINUOUS
10
-0.265827
20
0.184528
11
-0.214252
21
0.184528
0
LINE
8
BLACK
6
CONTINUOUS
10
-0.214252
20
0.184528
11
-0.213868
21
0.18446
0
LINE
8
BLACK
6
CONTINUOUS
10
-0.656912
20
-0.0193495
11
-0.65622
21
-0.0210198
0
LINE
8
BLACK
6
CONTINUOUS
10
-0.65622
20
-0.0210198
11
-0.65622
21
-0.091886
0
LINE
8
BLACK
6
CONTINUOUS
10
-0.65622
20
-0.091886
11
-0.656912
21
-0.0935563
0
LINE
8
BLACK
6
CONTINUOUS
10
-0.656912
20
-0.0935563
11
-0.658583
21
-0.0942482
0
LINE
8
BLACK
6
CONTINUOUS
10
-0.658583
20
-0.0942482
11
-0.660253
21
-0.0935563
0
LINE
8
BLACK
6
CONTINUOUS
10
-0.660253
20
-0.0935563
11
-0.660945
21
-0.091886
0
LINE
8
BLACK
6
CONTINUOUS
10
-0.660945
20
-0.091886
11
-0.660945
21
-0.023382
0
LINE
8
BLACK
6
CONTINUOUS
10
-0.660945
20
-0.023382
11
-0.715669
21
-0.023382
0
LINE
8
BLACK
6
CONTINUOUS
10
-0.715669
20
-0.023382
11
-0.71734
21
-0.0226902
0
LINE
8
BLACK
6
CONTINUOUS
10
-0.71734
20
-0.0226902
11
-0.718031
21
-0.0210198
0
LINE
8
BLACK
6
CONTINUOUS
10
-0.718031
20
-0.0210198
11
-0.71734
21
-0.0193495
0
LINE
8
BLACK
6
CONTINUOUS
10
-0.71734
20
-0.0193495
11
-0.715669
21
-0.0186576
0
LINE
8
BLACK
6
CONTINUOUS
10
-0.715669
20
-0.0186576
11
-0.658583
21
-0.0186576
0
LINE
8
BLACK
6
CONTINUOUS
10
-0.658583
20
-0.0186576
11
-0.656912
21
-0.0193495
0
LINE
8
BLACK
6
CONTINUOUS
10
0.569363
20
-0.0336468
11
0.569632
21
-0.0335993
0
LINE
8
BLACK
6
CONTINUOUS
10
0.569632
20
-0.0335993
11
0.570291
21
-0.0339798
0
LINE
8
BLACK
6
CONTINUOUS
10
0.570291
20
-0.0339798
11
0.571007
21
-0.0342369
0
LINE
8
BLACK
6
CONTINUOUS
10
0.571007
20
-0.0342369
11
0.571144
21
-0.0344727
0
LINE
8
BLACK
6
CONTINUOUS
10
0.571144
20
-0.0344727
11
0.571381
21
-0.0346093
0
LINE
8
BLACK
6
CONTINUOUS
10
0.571381
20
-0.0346093
11
0.571641
21
-0.0353244
0
LINE
8
BLACK
6
CONTINUOUS
10
0.571641
20
-0.0353244
11
0.572024
21
-0.0359816
0
LINE
8
BLACK
6
CONTINUOUS
10
0.572024
20
-0.0359816
11
0.571978
21
-0.0362506
0
LINE
8
BLACK
6
CONTINUOUS
10
0.571978
20
-0.0362506
11
0.572072
21
-0.0365072
0
LINE
8
BLACK
6
CONTINUOUS
10
0.572072
20
-0.0365072
11
0.572072
21
-0.0758773
0
LINE
8
BLACK
6
CONTINUOUS
10
0.572072
20
-0.0758773
11
0.571894
21
-0.0768872
0
LINE
8
BLACK
6
CONTINUOUS
10
0.571894
20
-0.0768872
11
0.570595
21
-0.0784345
0
LINE
8
BLACK
6
CONTINUOUS
10
0.570595
20
-0.0784345
11
0.568606
21
-0.0787852
0
LINE
8
BLACK
6
CONTINUOUS
10
0.568606
20
-0.0787852
11
0.566857
21
-0.0777753
0
LINE
8
BLACK
6
CONTINUOUS
10
0.566857
20
-0.0777753
11
0.566166
21
-0.0758773
0
LINE
8
BLACK
6
CONTINUOUS
10
0.566166
20
-0.0758773
11
0.566166
21
-0.047626
0
LINE
8
BLACK
6
CONTINUOUS
10
0.566166
20
-0.047626
11
0.549185
21
-0.0773423
0
LINE
8
BLACK
6
CONTINUOUS
10
0.549185
20
-0.0773423
11
0.54853
21
-0.0781308
0
LINE
8
BLACK
6
CONTINUOUS
10
0.54853
20
-0.0781308
11
0.548274
21
-0.0782254
0
LINE
8
BLACK
6
CONTINUOUS
10
0.548274
20
-0.0782254
11
0.548098
21
-0.0784345
0
LINE
8
BLACK
6
CONTINUOUS
10
0.548098
20
-0.0784345
11
0.547349
21
-0.0785666
0
LINE
8
BLACK
6
CONTINUOUS
10
0.547349
20
-0.0785666
11
0.546635
21
-0.07883
0
LINE
8
BLACK
6
CONTINUOUS
10
0.546635
20
-0.07883
11
0.546378
21
-0.0787378
0
LINE
8
BLACK
6
CONTINUOUS
10
0.546378
20
-0.0787378
11
0.546109
21
-0.0787852
0
LINE
8
BLACK
6
CONTINUOUS
10
0.546109
20
-0.0787852
11
0.54545
21
-0.0784048
0
LINE
8
BLACK
6
CONTINUOUS
10
0.54545
20
-0.0784048
11
0.544734
21
-0.0781477
0
LINE
8
BLACK
6
CONTINUOUS
10
0.544734
20
-0.0781477
11
0.544596
21
-0.0779118
0
LINE
8
BLACK
6
CONTINUOUS
10
0.544596
20
-0.0779118
11
0.54436
21
-0.0777753
0
LINE
8
BLACK
6
CONTINUOUS
10
0.54436
20
-0.0777753
11
0.544099
21
-0.0770604
0
LINE
8
BLACK
6
CONTINUOUS
10
0.544099
20
-0.0770604
11
0.543716
21
-0.076403
0
LINE
8
BLACK
6
CONTINUOUS
10
0.543716
20
-0.076403
11
0.543762
21
-0.0761339
0
LINE
8
BLACK
6
CONTINUOUS
10
0.543762
20
-0.0761339
11
0.543669
21
-0.0758773
0
LINE
8
BLACK
6
CONTINUOUS
10
0.543669
20
-0.0758773
11
0.543669
21
-0.0365072
0
LINE
8
BLACK
6
CONTINUOUS
10
0.543669
20
-0.0365072
11
0.543847
21
-0.0354973
0
LINE
8
BLACK
6
CONTINUOUS
10
0.543847
20
-0.0354973
11
0.545145
21
-0.0339501
0
LINE
8
BLACK
6
CONTINUOUS
10
0.545145
20
-0.0339501
11
0.547134
21
-0.0335993
0
LINE
8
BLACK
6
CONTINUOUS
10
0.547134
20
-0.0335993
11
0.548884
21
-0.0346093
0
LINE
8
BLACK
6
CONTINUOUS
10
0.548884
20
-0.0346093
11
0.549574
21
-0.0365072
0
LINE
8
BLACK
6
CONTINUOUS
10
0.549574
20
-0.0365072
11
0.549574
21
-0.0647586
0
LINE
8
BLACK
6
CONTINUOUS
10
0.549574
20
-0.0647586
11
0.566555
21
-0.0350423
0
LINE
8
BLACK
6
CONTINUOUS
10
0.566555
20
-0.0350423
11
0.567211
21
-0.0342538
0
LINE
8
BLACK
6
CONTINUOUS
10
0.567211
20
-0.0342538
11
0.567467
21
-0.0341593
0
LINE
8
BLACK
6
CONTINUOUS
10
0.567467
20
-0.0341593
11
0.567642
21
-0.0339501
0
LINE
8
BLACK
6
CONTINUOUS
10
0.567642
20
-0.0339501
11
0.568392
21
-0.0338179
0
LINE
8
BLACK
6
CONTINUOUS
10
0.568392
20
-0.0338179
11
0.569106
21
-0.0335545
0
LINE
8
BLACK
6
CONTINUOUS
10
0.569106
20
-0.0335545
11
0.569363
21
-0.0336468
0
LINE
8
BLACK
6
CONTINUOUS
10
0.590128
20
-0.0346093
11
0.590819
21
-0.0365072
0
LINE
8
BLACK
6
CONTINUOUS
10
0.590819
20
-0.0365072
11
0.590819
21
-0.0758773
0
LINE
8
BLACK
6
CONTINUOUS
10
0.590819
20
-0.0758773
11
0.590641
21
-0.0768872
0
LINE
8
BLACK
6
CONTINUOUS
10
0.590641
20
-0.0768872
11
0.589343
21
-0.0784345
0
LINE
8
BLACK
6
CONTINUOUS
10
0.589343
20
-0.0784345
11
0.587354
21
-0.0787852
0
LINE
8
BLACK
6
CONTINUOUS
10
0.587354
20
-0.0787852
11
0.585605
21
-0.0777753
0
LINE
8
BLACK
6
CONTINUOUS
10
0.585605
20
-0.0777753
11
0.584914
21
-0.0758773
0
LINE
8
BLACK
6
CONTINUOUS
10
0.584914
20
-0.0758773
11
0.584914
21
-0.0365072
0
LINE
8
BLACK
6
CONTINUOUS
10
0.584914
20
-0.0365072
11
0.585092
21
-0.0354973
0
LINE
8
BLACK
6
CONTINUOUS
10
0.585092
20
-0.0354973
11
0.58639
21
-0.0339501
0
LINE
8
BLACK
6
CONTINUOUS
10
0.58639
20
-0.0339501
11
0.588379
21
-0.0335993
0
LINE
8
BLACK
6
CONTINUOUS
10
0.588379
20
-0.0335993
11
0.590128
21
-0.0346093
0
LINE
8
BLACK
6
CONTINUOUS
10
0.50562
20
-0.0354969
11
0.505749
21
-0.0354741
0
LINE
8
BLACK
6
CONTINUOUS
10
0.505749
20
-0.0354741
11
0.505863
21
-0.0355397
0
LINE
8
BLACK
6
CONTINUOUS
10
0.505863
20
-0.0355397
11
0.506246
21
-0.0356074
0
LINE
8
BLACK
6
CONTINUOUS
10
0.506246
20
-0.0356074
11
0.506834
21
-0.0361005
0
LINE
8
BLACK
6
CONTINUOUS
10
0.506834
20
-0.0361005
11
0.507498
21
-0.0364841
0
LINE
8
BLACK
6
CONTINUOUS
10
0.507498
20
-0.0364841
11
0.507589
21
-0.0367344
0
LINE
8
BLACK
6
CONTINUOUS
10
0.507589
20
-0.0367344
11
0.507793
21
-0.0369057
0
LINE
8
BLACK
6
CONTINUOUS
10
0.507793
20
-0.0369057
11
0.507927
21
-0.0376612
0
LINE
8
BLACK
6
CONTINUOUS
10
0.507927
20
-0.0376612
11
0.508189
21
-0.038382
0
LINE
8
BLACK
6
CONTINUOUS
10
0.508189
20
-0.038382
11
0.508189
21
-0.0708624
0
LINE
8
BLACK
6
CONTINUOUS
10
0.508189
20
-0.0708624
11
0.534764
21
-0.0708624
0
LINE
8
BLACK
6
CONTINUOUS
10
0.534764
20
-0.0708624
11
0.535774
21
-0.0710404
0
LINE
8
BLACK
6
CONTINUOUS
10
0.535774
20
-0.0710404
11
0.537321
21
-0.0723387
0
LINE
8
BLACK
6
CONTINUOUS
10
0.537321
20
-0.0723387
11
0.537672
21
-0.0743279
0
LINE
8
BLACK
6
CONTINUOUS
10
0.537672
20
-0.0743279
11
0.536662
21
-0.076077
0
LINE
8
BLACK
6
CONTINUOUS
10
0.536662
20
-0.076077
11
0.534764
21
-0.0767679
0
LINE
8
BLACK
6
CONTINUOUS
10
0.534764
20
-0.0767679
11
0.505236
21
-0.0767679
0
LINE
8
BLACK
6
CONTINUOUS
10
0.505236
20
-0.0767679
11
0.504853
21
-0.0767002
0
LINE
8
BLACK
6
CONTINUOUS
10
0.504853
20
-0.0767002
11
0.504723
21
-0.076723
0
LINE
8
BLACK
6
CONTINUOUS
10
0.504723
20
-0.076723
11
0.50461
21
-0.0766574
0
LINE
8
BLACK
6
CONTINUOUS
10
0.50461
20
-0.0766574
11
0.504226
21
-0.0765898
0
LINE
8
BLACK
6
CONTINUOUS
10
0.504226
20
-0.0765898
11
0.503639
21
-0.0760967
0
LINE
8
BLACK
6
CONTINUOUS
10
0.503639
20
-0.0760967
11
0.502974
21
-0.0757131
0
LINE
8
BLACK
6
CONTINUOUS
10
0.502974
20
-0.0757131
11
0.502883
21
-0.0754628
0
LINE
8
BLACK
6
CONTINUOUS
10
0.502883
20
-0.0754628
11
0.502679
21
-0.0752915
0
LINE
8
BLACK
6
CONTINUOUS
10
0.502679
20
-0.0752915
11
0.502546
21
-0.0745359
0
LINE
8
BLACK
6
CONTINUOUS
10
0.502546
20
-0.0745359
11
0.502283
21
-0.0738151
0
LINE
8
BLACK
6
CONTINUOUS
10
0.502283
20
-0.0738151
11
0.502283
21
-0.0413348
0
LINE
8
BLACK
6
CONTINUOUS
10
0.502283
20
-0.0413348
11
0.478661
21
-0.0413348
0
LINE
8
BLACK
6
CONTINUOUS
10
0.478661
20
-0.0413348
11
0.478661
21
-0.0738151
0
LINE
8
BLACK
6
CONTINUOUS
10
0.478661
20
-0.0738151
11
0.478594
21
-0.0741987
0
LINE
8
BLACK
6
CONTINUOUS
10
0.478594
20
-0.0741987
11
0.478617
21
-0.0743279
0
LINE
8
BLACK
6
CONTINUOUS
10
0.478617
20
-0.0743279
11
0.478551
21
-0.0744415
0
LINE
8
BLACK
6
CONTINUOUS
10
0.478551
20
-0.0744415
11
0.478483
21
-0.074825
0
LINE
8
BLACK
6
CONTINUOUS
10
0.478483
20
-0.074825
11
0.47799
21
-0.0754127
0
LINE
8
BLACK
6
CONTINUOUS
10
0.47799
20
-0.0754127
11
0.477607
21
-0.076077
0
LINE
8
BLACK
6
CONTINUOUS
10
0.477607
20
-0.076077
11
0.477356
21
-0.0761681
0
LINE
8
BLACK
6
CONTINUOUS
10
0.477356
20
-0.0761681
11
0.477185
21
-0.0763723
0
LINE
8
BLACK
6
CONTINUOUS
10
0.477185
20
-0.0763723
11
0.476429
21
-0.0765055
0
LINE
8
BLACK
6
CONTINUOUS
10
0.476429
20
-0.0765055
11
0.475709
21
-0.0767679
0
LINE
8
BLACK
6
CONTINUOUS
10
0.475709
20
-0.0767679
11
0.450118
21
-0.0767679
0
LINE
8
BLACK
6
CONTINUOUS
10
0.450118
20
-0.0767679
11
0.449108
21
-0.0765898
0
LINE
8
BLACK
6
CONTINUOUS
10
0.449108
20
-0.0765898
11
0.447561
21
-0.0752915
0
LINE
8
BLACK
6
CONTINUOUS
10
0.447561
20
-0.0752915
11
0.44721
21
-0.0733024
0
LINE
8
BLACK
6
CONTINUOUS
10
0.44721
20
-0.0733024
11
0.44822
21
-0.0715532
0
LINE
8
BLACK
6
CONTINUOUS
10
0.44822
20
-0.0715532
11
0.450118
21
-0.0708624
0
LINE
8
BLACK
6
CONTINUOUS
10
0.450118
20
-0.0708624
11
0.472756
21
-0.0708624
0
LINE
8
BLACK
6
CONTINUOUS
10
0.472756
20
-0.0708624
11
0.472756
21
-0.038382
0
LINE
8
BLACK
6
CONTINUOUS
10
0.472756
20
-0.038382
11
0.472824
21
-0.0379985
0
LINE
8
BLACK
6
CONTINUOUS
10
0.472824
20
-0.0379985
11
0.472801
21
-0.0378693
0
LINE
8
BLACK
6
CONTINUOUS
10
0.472801
20
-0.0378693
11
0.472866
21
-0.0377557
0
LINE
8
BLACK
6
CONTINUOUS
10
0.472866
20
-0.0377557
11
0.472934
21
-0.0373721
0
LINE
8
BLACK
6
CONTINUOUS
10
0.472934
20
-0.0373721
11
0.473427
21
-0.0367844
0
LINE
8
BLACK
6
CONTINUOUS
10
0.473427
20
-0.0367844
11
0.473811
21
-0.0361201
0
LINE
8
BLACK
6
CONTINUOUS
10
0.473811
20
-0.0361201
11
0.474061
21
-0.036029
0
LINE
8
BLACK
6
CONTINUOUS
10
0.474061
20
-0.036029
11
0.474232
21
-0.0358249
0
LINE
8
BLACK
6
CONTINUOUS
10
0.474232
20
-0.0358249
11
0.474988
21
-0.0356917
0
LINE
8
BLACK
6
CONTINUOUS
10
0.474988
20
-0.0356917
11
0.475709
21
-0.0354293
0
LINE
8
BLACK
6
CONTINUOUS
10
0.475709
20
-0.0354293
11
0.505236
21
-0.0354293
0
LINE
8
BLACK
6
CONTINUOUS
10
0.505236
20
-0.0354293
11
0.50562
21
-0.0354969
0
LINE
8
BLACK
6
CONTINUOUS
10
-0.619229
20
-0.0652924
11
-0.619921
21
-0.063622
0
LINE
8
BLACK
6
CONTINUOUS
10
-0.619921
20
-0.063622
11
-0.619229
21
-0.0619517
0
LINE
8
BLACK
6
CONTINUOUS
10
-0.619229
20
-0.0619517
11
-0.617559
21
-0.0612598
0
LINE
8
BLACK
6
CONTINUOUS
10
-0.617559
20
-0.0612598
11
-0.547087
21
-0.0612598
0
LINE
8
BLACK
6
CONTINUOUS
10
-0.547087
20
-0.0612598
11
-0.547087
21
-0.0187402
0
LINE
8
BLACK
6
CONTINUOUS
10
-0.547087
20
-0.0187402
11
-0.617559
21
-0.0187402
0
LINE
8
BLACK
6
CONTINUOUS
10
-0.617559
20
-0.0187402
11
-0.619229
21
-0.0180483
0
LINE
8
BLACK
6
CONTINUOUS
10
-0.619229
20
-0.0180483
11
-0.619921
21
-0.016378
0
LINE
8
BLACK
6
CONTINUOUS
10
-0.619921
20
-0.016378
11
-0.619229
21
-0.0147076
0
LINE
8
BLACK
6
CONTINUOUS
10
-0.619229
20
-0.0147076
11
-0.617559
21
-0.0140157
0
LINE
8
BLACK
6
CONTINUOUS
10
-0.617559
20
-0.0140157
11
-0.544724
21
-0.0140157
0
LINE
8
BLACK
6
CONTINUOUS
10
-0.544724
20
-0.0140157
11
-0.543054
21
-0.0147076
0
LINE
8
BLACK
6
CONTINUOUS
10
-0.543054
20
-0.0147076
11
-0.542362
21
-0.016378
0
LINE
8
BLACK
6
CONTINUOUS
10
-0.542362
20
-0.016378
11
-0.542362
21
-0.063622
0
LINE
8
BLACK
6
CONTINUOUS
10
-0.542362
20
-0.063622
11
-0.543054
21
-0.0652924
0
LINE
8
BLACK
6
CONTINUOUS
10
-0.543054
20
-0.0652924
11
-0.544724
21
-0.0659843
0
LINE
8
BLACK
6
CONTINUOUS
10
-0.544724
20
-0.0659843
11
-0.617559
21
-0.0659843
0
LINE
8
BLACK
6
CONTINUOUS
10
-0.617559
20
-0.0659843
11
-0.619229
21
-0.0652924
0
LINE
8
BLACK
6
CONTINUOUS
10
-0.71734
20
0.0208138
11
-0.718031
21
0.0224841
0
LINE
8
BLACK
6
CONTINUOUS
10
-0.718031
20
0.0224841
11
-0.71734
21
0.0241544
0
LINE
8
BLACK
6
CONTINUOUS
10
-0.71734
20
0.0241544
11
-0.715669
21
0.0248463
0
LINE
8
BLACK
6
CONTINUOUS
10
-0.715669
20
0.0248463
11
-0.660945
21
0.0248463
0
LINE
8
BLACK
6
CONTINUOUS
10
-0.660945
20
0.0248463
11
-0.660945
21
0.0933502
0
LINE
8
BLACK
6
CONTINUOUS
10
-0.660945
20
0.0933502
11
-0.660253
21
0.0950206
0
LINE
8
BLACK
6
CONTINUOUS
10
-0.660253
20
0.0950206
11
-0.658583
21
0.0957124
0
LINE
8
BLACK
6
CONTINUOUS
10
-0.658583
20
0.0957124
11
-0.619606
21
0.0957124
0
LINE
8
BLACK
6
CONTINUOUS
10
-0.619606
20
0.0957124
11
-0.617936
21
0.0950206
0
LINE
8
BLACK
6
CONTINUOUS
10
-0.617936
20
0.0950206
11
-0.617244
21
0.0933502
0
LINE
8
BLACK
6
CONTINUOUS
10
-0.617244
20
0.0933502
11
-0.617936
21
0.0916799
0
LINE
8
BLACK
6
CONTINUOUS
10
-0.617936
20
0.0916799
11
-0.619606
21
0.090988
0
LINE
8
BLACK
6
CONTINUOUS
10
-0.619606
20
0.090988
11
-0.65622
21
0.090988
0
LINE
8
BLACK
6
CONTINUOUS
10
-0.65622
20
0.090988
11
-0.65622
21
0.0224841
0
LINE
8
BLACK
6
CONTINUOUS
10
-0.65622
20
0.0224841
11
-0.656912
21
0.0208138
0
LINE
8
BLACK
6
CONTINUOUS
10
-0.656912
20
0.0208138
11
-0.658583
21
0.0201219
0
LINE
8
BLACK
6
CONTINUOUS
10
-0.658583
20
0.0201219
11
-0.715669
21
0.0201219
0
LINE
8
BLACK
6
CONTINUOUS
10
-0.715669
20
0.0201219
11
-0.71734
21
0.0208138
0
LINE
8
BLACK
6
CONTINUOUS
10
0.587739
20
0.0687806
11
0.587806
21
0.0687994
0
LINE
8
BLACK
6
CONTINUOUS
10
0.587806
20
0.0687994
11
0.587918
21
0.0687491
0
LINE
8
BLACK
6
CONTINUOUS
10
0.587918
20
0.0687491
11
0.588595
21
0.0686296
0
LINE
8
BLACK
6
CONTINUOUS
10
0.588595
20
0.0686296
11
0.589076
21
0.0682266
0
LINE
8
BLACK
6
CONTINUOUS
10
0.589076
20
0.0682266
11
0.589647
21
0.0679686
0
LINE
8
BLACK
6
CONTINUOUS
10
0.589647
20
0.0679686
11
0.589826
21
0.0675967
0
LINE
8
BLACK
6
CONTINUOUS
10
0.589826
20
0.0675967
11
0.590142
21
0.0673313
0
LINE
8
BLACK
6
CONTINUOUS
10
0.590142
20
0.0673313
11
0.590251
21
0.0667138
0
LINE
8
BLACK
6
CONTINUOUS
10
0.590251
20
0.0667138
11
0.590523
21
0.0661488
0
LINE
8
BLACK
6
CONTINUOUS
10
0.590523
20
0.0661488
11
0.592398
21
0.0474011
0
LINE
8
BLACK
6
CONTINUOUS
10
0.592398
20
0.0474011
11
0.592321
21
0.0463785
0
LINE
8
BLACK
6
CONTINUOUS
10
0.592321
20
0.0463785
11
0.59231
21
0.0463624
0
LINE
8
BLACK
6
CONTINUOUS
10
0.59231
20
0.0463624
11
0.592312
21
0.0463431
0
LINE
8
BLACK
6
CONTINUOUS
10
0.592312
20
0.0463431
11
0.591744
21
0.0455313
0
LINE
8
BLACK
6
CONTINUOUS
10
0.591744
20
0.0455313
11
0.591184
21
0.0447097
0
LINE
8
BLACK
6
CONTINUOUS
10
0.591184
20
0.0447097
11
0.591165
21
0.0447044
0
LINE
8
BLACK
6
CONTINUOUS
10
0.591165
20
0.0447044
11
0.591154
21
0.0446885
0
LINE
8
BLACK
6
CONTINUOUS
10
0.591154
20
0.0446885
11
0.590195
21
0.0444316
0
LINE
8
BLACK
6
CONTINUOUS
10
0.590195
20
0.0444316
11
0.589239
21
0.0441628
0
LINE
8
BLACK
6
CONTINUOUS
10
0.589239
20
0.0441628
11
0.589221
21
0.0441708
0
LINE
8
BLACK
6
CONTINUOUS
10
0.589221
20
0.0441708
11
0.589203
21
0.0441658
0
LINE
8
BLACK
6
CONTINUOUS
10
0.589203
20
0.0441658
11
0.588304
21
0.0445847
0
LINE
8
BLACK
6
CONTINUOUS
10
0.588304
20
0.0445847
11
0.587398
21
0.0449936
0
LINE
8
BLACK
6
CONTINUOUS
10
0.587398
20
0.0449936
11
0.58739
21
0.0450111
0
LINE
8
BLACK
6
CONTINUOUS
10
0.58739
20
0.0450111
11
0.587372
21
0.0450194
0
LINE
8
BLACK
6
CONTINUOUS
10
0.587372
20
0.0450194
11
0.585836
21
0.0465553
0
LINE
8
BLACK
6
CONTINUOUS
10
0.585836
20
0.0465553
11
0.583139
21
0.0479041
0
LINE
8
BLACK
6
CONTINUOUS
10
0.583139
20
0.0479041
11
0.575159
21
0.0479041
0
LINE
8
BLACK
6
CONTINUOUS
10
0.575159
20
0.0479041
11
0.572461
21
0.0465553
0
LINE
8
BLACK
6
CONTINUOUS
10
0.572461
20
0.0465553
11
0.571264
21
0.0453582
0
LINE
8
BLACK
6
CONTINUOUS
10
0.571264
20
0.0453582
11
0.569916
21
0.0426607
0
LINE
8
BLACK
6
CONTINUOUS
10
0.569916
20
0.0426607
11
0.569916
21
0.034681
0
LINE
8
BLACK
6
CONTINUOUS
10
0.569916
20
0.034681
11
0.571264
21
0.0319835
0
LINE
8
BLACK
6
CONTINUOUS
10
0.571264
20
0.0319835
11
0.572461
21
0.0307864
0
LINE
8
BLACK
6
CONTINUOUS
10
0.572461
20
0.0307864
11
0.575159
21
0.0294376
0
LINE
8
BLACK
6
CONTINUOUS
10
0.575159
20
0.0294376
11
0.583139
21
0.0294376
0
LINE
8
BLACK
6
CONTINUOUS
10
0.583139
20
0.0294376
11
0.585836
21
0.0307864
0
LINE
8
BLACK
6
CONTINUOUS
10
0.585836
20
0.0307864
11
0.587372
21
0.0323223
0
LINE
8
BLACK
6
CONTINUOUS
10
0.587372
20
0.0323223
11
0.588212
21
0.0329105
0
LINE
8
BLACK
6
CONTINUOUS
10
0.588212
20
0.0329105
11
0.590224
21
0.0330865
0
LINE
8
BLACK
6
CONTINUOUS
10
0.590224
20
0.0330865
11
0.591879
21
0.031928
0
LINE
8
BLACK
6
CONTINUOUS
10
0.591879
20
0.031928
11
0.592402
21
0.029977
0
LINE
8
BLACK
6
CONTINUOUS
10
0.592402
20
0.029977
11
0.591548
21
0.0281465
0
LINE
8
BLACK
6
CONTINUOUS
10
0.591548
20
0.0281465
11
0.589673
21
0.0262717
0
LINE
8
BLACK
6
CONTINUOUS
10
0.589673
20
0.0262717
11
0.58895
21
0.0257654
0
LINE
8
BLACK
6
CONTINUOUS
10
0.58895
20
0.0257654
11
0.588906
21
0.0257186
0
LINE
8
BLACK
6
CONTINUOUS
10
0.588906
20
0.0257186
11
0.585156
21
0.0238439
0
LINE
8
BLACK
6
CONTINUOUS
10
0.585156
20
0.0238439
11
0.584173
21
0.0235515
0
LINE
8
BLACK
6
CONTINUOUS
10
0.584173
20
0.0235515
11
0.584002
21
0.0235925
0
LINE
8
BLACK
6
CONTINUOUS
10
0.584002
20
0.0235925
11
0.583836
21
0.0235321
0
LINE
8
BLACK
6
CONTINUOUS
10
0.583836
20
0.0235321
11
0.574462
21
0.0235321
0
LINE
8
BLACK
6
CONTINUOUS
10
0.574462
20
0.0235321
11
0.573452
21
0.0237102
0
LINE
8
BLACK
6
CONTINUOUS
10
0.573452
20
0.0237102
11
0.573317
21
0.0238237
0
LINE
8
BLACK
6
CONTINUOUS
10
0.573317
20
0.0238237
11
0.573141
21
0.0238439
0
LINE
8
BLACK
6
CONTINUOUS
10
0.573141
20
0.0238439
11
0.569392
21
0.0257186
0
LINE
8
BLACK
6
CONTINUOUS
10
0.569392
20
0.0257186
11
0.568683
21
0.0262445
0
LINE
8
BLACK
6
CONTINUOUS
10
0.568683
20
0.0262445
11
0.568624
21
0.0262717
0
LINE
8
BLACK
6
CONTINUOUS
10
0.568624
20
0.0262717
11
0.56675
21
0.0281465
0
LINE
8
BLACK
6
CONTINUOUS
10
0.56675
20
0.0281465
11
0.566243
21
0.0288696
0
LINE
8
BLACK
6
CONTINUOUS
10
0.566243
20
0.0288696
11
0.566197
21
0.0289139
0
LINE
8
BLACK
6
CONTINUOUS
10
0.566197
20
0.0289139
11
0.564322
21
0.0326634
0
LINE
8
BLACK
6
CONTINUOUS
10
0.564322
20
0.0326634
11
0.564029
21
0.0336464
0
LINE
8
BLACK
6
CONTINUOUS
10
0.564029
20
0.0336464
11
0.564071
21
0.033818
0
LINE
8
BLACK
6
CONTINUOUS
10
0.564071
20
0.033818
11
0.56401
21
0.0339839
0
LINE
8
BLACK
6
CONTINUOUS
10
0.56401
20
0.0339839
11
0.56401
21
0.0433578
0
LINE
8
BLACK
6
CONTINUOUS
10
0.56401
20
0.0433578
11
0.564188
21
0.0443677
0
LINE
8
BLACK
6
CONTINUOUS
10
0.564188
20
0.0443677
11
0.564302
21
0.0445029
0
LINE
8
BLACK
6
CONTINUOUS
10
0.564302
20
0.0445029
11
0.564322
21
0.0446783
0
LINE
8
BLACK
6
CONTINUOUS
10
0.564322
20
0.0446783
11
0.566197
21
0.0484278
0
LINE
8
BLACK
6
CONTINUOUS
10
0.566197
20
0.0484278
11
0.566723
21
0.0491369
0
LINE
8
BLACK
6
CONTINUOUS
10
0.566723
20
0.0491369
11
0.56675
21
0.0491952
0
LINE
8
BLACK
6
CONTINUOUS
10
0.56675
20
0.0491952
11
0.568624
21
0.05107
0
LINE
8
BLACK
6
CONTINUOUS
10
0.568624
20
0.05107
11
0.569348
21
0.0515763
0
LINE
8
BLACK
6
CONTINUOUS
10
0.569348
20
0.0515763
11
0.569392
21
0.0516231
0
LINE
8
BLACK
6
CONTINUOUS
10
0.569392
20
0.0516231
11
0.573141
21
0.0534978
0
LINE
8
BLACK
6
CONTINUOUS
10
0.573141
20
0.0534978
11
0.574124
21
0.0537902
0
LINE
8
BLACK
6
CONTINUOUS
10
0.574124
20
0.0537902
11
0.574296
21
0.0537492
0
LINE
8
BLACK
6
CONTINUOUS
10
0.574296
20
0.0537492
11
0.574462
21
0.0538096
0
LINE
8
BLACK
6
CONTINUOUS
10
0.574462
20
0.0538096
11
0.583836
21
0.0538096
0
LINE
8
BLACK
6
CONTINUOUS
10
0.583836
20
0.0538096
11
0.584846
21
0.0536315
0
LINE
8
BLACK
6
CONTINUOUS
10
0.584846
20
0.0536315
11
0.584981
21
0.053518
0
LINE
8
BLACK
6
CONTINUOUS
10
0.584981
20
0.053518
11
0.585156
21
0.0534978
0
LINE
8
BLACK
6
CONTINUOUS
10
0.585156
20
0.0534978
11
0.58589
21
0.0531309
0
LINE
8
BLACK
6
CONTINUOUS
10
0.58589
20
0.0531309
11
0.584913
21
0.0629022
0
LINE
8
BLACK
6
CONTINUOUS
10
0.584913
20
0.0629022
11
0.568838
21
0.0629022
0
LINE
8
BLACK
6
CONTINUOUS
10
0.568838
20
0.0629022
11
0.567828
21
0.0630803
0
LINE
8
BLACK
6
CONTINUOUS
10
0.567828
20
0.0630803
11
0.56628
21
0.0643786
0
LINE
8
BLACK
6
CONTINUOUS
10
0.56628
20
0.0643786
11
0.56593
21
0.0663677
0
LINE
8
BLACK
6
CONTINUOUS
10
0.56593
20
0.0663677
11
0.56694
21
0.0681169
0
LINE
8
BLACK
6
CONTINUOUS
10
0.56694
20
0.0681169
11
0.568838
21
0.0688077
0
LINE
8
BLACK
6
CONTINUOUS
10
0.568838
20
0.0688077
11
0.587585
21
0.0688077
0
LINE
8
BLACK
6
CONTINUOUS
10
0.587585
20
0.0688077
11
0.587739
21
0.0687806
0
LINE
8
BLACK
6
CONTINUOUS
10
0.531013
20
0.0683708
11
0.532269
21
0.0667887
0
LINE
8
BLACK
6
CONTINUOUS
10
0.532269
20
0.0667887
11
0.542591
21
0.0358223
0
LINE
8
BLACK
6
CONTINUOUS
10
0.542591
20
0.0358223
11
0.552913
21
0.0667887
0
LINE
8
BLACK
6
CONTINUOUS
10
0.552913
20
0.0667887
11
0.553401
21
0.0676905
0
LINE
8
BLACK
6
CONTINUOUS
10
0.553401
20
0.0676905
11
0.555122
21
0.0687478
0
LINE
8
BLACK
6
CONTINUOUS
10
0.555122
20
0.0687478
11
0.55712
21
0.0684515
0
LINE
8
BLACK
6
CONTINUOUS
10
0.55712
20
0.0684515
11
0.55846
21
0.0669402
0
LINE
8
BLACK
6
CONTINUOUS
10
0.55846
20
0.0669402
11
0.558515
21
0.0649212
0
LINE
8
BLACK
6
CONTINUOUS
10
0.558515
20
0.0649212
11
0.545392
21
0.0255511
0
LINE
8
BLACK
6
CONTINUOUS
10
0.545392
20
0.0255511
11
0.544904
21
0.0246494
0
LINE
8
BLACK
6
CONTINUOUS
10
0.544904
20
0.0246494
11
0.544831
21
0.0246049
0
LINE
8
BLACK
6
CONTINUOUS
10
0.544831
20
0.0246049
11
0.5448
21
0.0245258
0
LINE
8
BLACK
6
CONTINUOUS
10
0.5448
20
0.0245258
11
0.543979
21
0.024081
0
LINE
8
BLACK
6
CONTINUOUS
10
0.543979
20
0.024081
11
0.543183
21
0.0235921
0
LINE
8
BLACK
6
CONTINUOUS
10
0.543183
20
0.0235921
11
0.543099
21
0.0236046
0
LINE
8
BLACK
6
CONTINUOUS
10
0.543099
20
0.0236046
11
0.543024
21
0.0235641
0
LINE
8
BLACK
6
CONTINUOUS
10
0.543024
20
0.0235641
11
0.542109
21
0.0237513
0
LINE
8
BLACK
6
CONTINUOUS
10
0.542109
20
0.0237513
11
0.541185
21
0.0238883
0
LINE
8
BLACK
6
CONTINUOUS
10
0.541185
20
0.0238883
11
0.541128
21
0.023952
0
LINE
8
BLACK
6
CONTINUOUS
10
0.541128
20
0.023952
11
0.541045
21
0.023969
0
LINE
8
BLACK
6
CONTINUOUS
10
0.541045
20
0.023969
11
0.540465
21
0.0247003
0
LINE
8
BLACK
6
CONTINUOUS
10
0.540465
20
0.0247003
11
0.539845
21
0.0253996
0
LINE
8
BLACK
6
CONTINUOUS
10
0.539845
20
0.0253996
11
0.539843
21
0.0254846
0
LINE
8
BLACK
6
CONTINUOUS
10
0.539843
20
0.0254846
11
0.53979
21
0.0255511
0
LINE
8
BLACK
6
CONTINUOUS
10
0.53979
20
0.0255511
11
0.526666
21
0.0649212
0
LINE
8
BLACK
6
CONTINUOUS
10
0.526666
20
0.0649212
11
0.526516
21
0.0659356
0
LINE
8
BLACK
6
CONTINUOUS
10
0.526516
20
0.0659356
11
0.527258
21
0.067814
0
LINE
8
BLACK
6
CONTINUOUS
10
0.527258
20
0.067814
11
0.529034
21
0.0687758
0
LINE
8
BLACK
6
CONTINUOUS
10
0.529034
20
0.0687758
11
0.531013
21
0.0683708
0
LINE
8
BLACK
6
CONTINUOUS
10
-0.582795
20
0.0315916
11
-0.582103
21
0.0299213
0
LINE
8
BLACK
6
CONTINUOUS
10
-0.582103
20
0.0299213
11
-0.582795
21
0.0282509
0
LINE
8
BLACK
6
CONTINUOUS
10
-0.582795
20
0.0282509
11
-0.584465
21
0.0275591
0
LINE
8
BLACK
6
CONTINUOUS
10
-0.584465
20
0.0275591
11
-0.595535
21
0.0275591
0
LINE
8
BLACK
6
CONTINUOUS
10
-0.595535
20
0.0275591
11
-0.597205
21
0.0282509
0
LINE
8
BLACK
6
CONTINUOUS
10
-0.597205
20
0.0282509
11
-0.597897
21
0.0299213
0
LINE
8
BLACK
6
CONTINUOUS
10
-0.597897
20
0.0299213
11
-0.597205
21
0.0315916
0
LINE
8
BLACK
6
CONTINUOUS
10
-0.597205
20
0.0315916
11
-0.595535
21
0.0322835
0
LINE
8
BLACK
6
CONTINUOUS
10
-0.595535
20
0.0322835
11
-0.584465
21
0.0322835
0
LINE
8
BLACK
6
CONTINUOUS
10
-0.584465
20
0.0322835
11
-0.582795
21
0.0315916
0
LINE
8
BLACK
6
CONTINUOUS
10
-0.582795
20
0.0717491
11
-0.582103
21
0.0700787
0
LINE
8
BLACK
6
CONTINUOUS
10
-0.582103
20
0.0700787
11
-0.582795
21
0.0684084
0
LINE
8
BLACK
6
CONTINUOUS
10
-0.582795
20
0.0684084
11
-0.584465
21
0.0677165
0
LINE
8
BLACK
6
CONTINUOUS
10
-0.584465
20
0.0677165
11
-0.595535
21
0.0677165
0
LINE
8
BLACK
6
CONTINUOUS
10
-0.595535
20
0.0677165
11
-0.597205
21
0.0684084
0
LINE
8
BLACK
6
CONTINUOUS
10
-0.597205
20
0.0684084
11
-0.597897
21
0.0700787
0
LINE
8
BLACK
6
CONTINUOUS
10
-0.597897
20
0.0700787
11
-0.597205
21
0.0717491
0
LINE
8
BLACK
6
CONTINUOUS
10
-0.597205
20
0.0717491
11
-0.595535
21
0.0724409
0
LINE
8
BLACK
6
CONTINUOUS
10
-0.595535
20
0.0724409
11
-0.584465
21
0.0724409
0
LINE
8
BLACK
6
CONTINUOUS
10
-0.584465
20
0.0724409
11
-0.582795
21
0.0717491
0
LINE
8
BLACK
6
CONTINUOUS
10
-0.825023
20
0.307619
11
-0.824331
21
0.305949
0
LINE
8
BLACK
6
CONTINUOUS
10
-0.824331
20
0.305949
11
-0.824331
21
0.0724841
0
LINE
8
BLACK
6
CONTINUOUS
10
-0.824331
20
0.0724841
11
-0.825023
21
0.0708138
0
LINE
8
BLACK
6
CONTINUOUS
10
-0.825023
20
0.0708138
11
-0.826693
21
0.0701219
0
LINE
8
BLACK
6
CONTINUOUS
10
-0.826693
20
0.0701219
11
-0.828363
21
0.0708138
0
LINE
8
BLACK
6
CONTINUOUS
10
-0.828363
20
0.0708138
11
-0.829055
21
0.0724841
0
LINE
8
BLACK
6
CONTINUOUS
10
-0.829055
20
0.0724841
11
-0.829055
21
0.305949
0
LINE
8
BLACK
6
CONTINUOUS
10
-0.829055
20
0.305949
11
-0.828363
21
0.307619
0
LINE
8
BLACK
6
CONTINUOUS
10
-0.828363
20
0.307619
11
-0.826693
21
0.308311
0
LINE
8
BLACK
6
CONTINUOUS
10
-0.826693
20
0.308311
11
-0.825023
21
0.307619
0
LINE
8
BLACK
6
CONTINUOUS
10
-0.192404
20
0.127091
11
-0.191713
21
0.12542
0
LINE
8
BLACK
6
CONTINUOUS
10
-0.191713
20
0.12542
11
-0.191713
21
0.114351
0
LINE
8
BLACK
6
CONTINUOUS
10
-0.191713
20
0.114351
11
-0.192404
21
0.112681
0
LINE
8
BLACK
6
CONTINUOUS
10
-0.192404
20
0.112681
11
-0.194075
21
0.111989
0
LINE
8
BLACK
6
CONTINUOUS
10
-0.194075
20
0.111989
11
-0.195745
21
0.112681
0
LINE
8
BLACK
6
CONTINUOUS
10
-0.195745
20
0.112681
11
-0.196437
21
0.114351
0
LINE
8
BLACK
6
CONTINUOUS
10
-0.196437
20
0.114351
11
-0.196437
21
0.12542
0
LINE
8
BLACK
6
CONTINUOUS
10
-0.196437
20
0.12542
11
-0.195745
21
0.127091
0
LINE
8
BLACK
6
CONTINUOUS
10
-0.195745
20
0.127091
11
-0.194075
21
0.127783
0
LINE
8
BLACK
6
CONTINUOUS
10
-0.194075
20
0.127783
11
-0.192404
21
0.127091
0
LINE
8
BLACK
6
CONTINUOUS
10
-0.152247
20
0.127091
11
-0.151555
21
0.12542
0
LINE
8
BLACK
6
CONTINUOUS
10
-0.151555
20
0.12542
11
-0.151555
21
0.114351
0
LINE
8
BLACK
6
CONTINUOUS
10
-0.151555
20
0.114351
11
-0.152247
21
0.112681
0
LINE
8
BLACK
6
CONTINUOUS
10
-0.152247
20
0.112681
11
-0.153917
21
0.111989
0
LINE
8
BLACK
6
CONTINUOUS
10
-0.153917
20
0.111989
11
-0.155588
21
0.112681
0
LINE
8
BLACK
6
CONTINUOUS
10
-0.155588
20
0.112681
11
-0.15628
21
0.114351
0
LINE
8
BLACK
6
CONTINUOUS
10
-0.15628
20
0.114351
11
-0.15628
21
0.12542
0
LINE
8
BLACK
6
CONTINUOUS
10
-0.15628
20
0.12542
11
-0.155588
21
0.127091
0
LINE
8
BLACK
6
CONTINUOUS
10
-0.155588
20
0.127091
11
-0.153917
21
0.127783
0
LINE
8
BLACK
6
CONTINUOUS
10
-0.153917
20
0.127783
11
-0.152247
21
0.127091
0
LINE
8
BLACK
6
CONTINUOUS
10
0.581893
20
0.16708
11
0.581957
21
0.167081
0
LINE
8
BLACK
6
CONTINUOUS
10
0.581957
20
0.167081
11
0.587582
21
0.165207
0
LINE
8
BLACK
6
CONTINUOUS
10
0.587582
20
0.165207
11
0.588483
21
0.164718
0
LINE
8
BLACK
6
CONTINUOUS
10
0.588483
20
0.164718
11
0.588576
21
0.164568
0
LINE
8
BLACK
6
CONTINUOUS
10
0.588576
20
0.164568
11
0.588736
21
0.164493
0
LINE
8
BLACK
6
CONTINUOUS
10
0.588736
20
0.164493
11
0.592485
21
0.160744
0
LINE
8
BLACK
6
CONTINUOUS
10
0.592485
20
0.160744
11
0.592992
21
0.160021
0
LINE
8
BLACK
6
CONTINUOUS
10
0.592992
20
0.160021
11
0.593038
21
0.159976
0
LINE
8
BLACK
6
CONTINUOUS
10
0.593038
20
0.159976
11
0.594913
21
0.156227
0
LINE
8
BLACK
6
CONTINUOUS
10
0.594913
20
0.156227
11
0.595059
21
0.155738
0
LINE
8
BLACK
6
CONTINUOUS
10
0.595059
20
0.155738
11
0.595137
21
0.155622
0
LINE
8
BLACK
6
CONTINUOUS
10
0.595137
20
0.155622
11
0.597012
21
0.148123
0
LINE
8
BLACK
6
CONTINUOUS
10
0.597012
20
0.148123
11
0.597053
21
0.147535
0
LINE
8
BLACK
6
CONTINUOUS
10
0.597053
20
0.147535
11
0.5971
21
0.147407
0
LINE
8
BLACK
6
CONTINUOUS
10
0.5971
20
0.147407
11
0.5971
21
0.141783
0
LINE
8
BLACK
6
CONTINUOUS
10
0.5971
20
0.141783
11
0.596997
21
0.141203
0
LINE
8
BLACK
6
CONTINUOUS
10
0.596997
20
0.141203
11
0.597012
21
0.141067
0
LINE
8
BLACK
6
CONTINUOUS
10
0.597012
20
0.141067
11
0.595137
21
0.133568
0
LINE
8
BLACK
6
CONTINUOUS
10
0.595137
20
0.133568
11
0.594929
21
0.133102
0
LINE
8
BLACK
6
CONTINUOUS
10
0.594929
20
0.133102
11
0.594913
21
0.132963
0
LINE
8
BLACK
6
CONTINUOUS
10
0.594913
20
0.132963
11
0.593038
21
0.129214
0
LINE
8
BLACK
6
CONTINUOUS
10
0.593038
20
0.129214
11
0.592513
21
0.128505
0
LINE
8
BLACK
6
CONTINUOUS
10
0.592513
20
0.128505
11
0.592485
21
0.128446
0
LINE
8
BLACK
6
CONTINUOUS
10
0.592485
20
0.128446
11
0.588736
21
0.124697
0
LINE
8
BLACK
6
CONTINUOUS
10
0.588736
20
0.124697
11
0.587896
21
0.124109
0
LINE
8
BLACK
6
CONTINUOUS
10
0.587896
20
0.124109
11
0.58772
21
0.124093
0
LINE
8
BLACK
6
CONTINUOUS
10
0.58772
20
0.124093
11
0.587582
21
0.123984
0
LINE
8
BLACK
6
CONTINUOUS
10
0.587582
20
0.123984
11
0.581957
21
0.122109
0
LINE
8
BLACK
6
CONTINUOUS
10
0.581957
20
0.122109
11
0.581084
21
0.121979
0
LINE
8
BLACK
6
CONTINUOUS
10
0.581084
20
0.121979
11
0.581024
21
0.121957
0
LINE
8
BLACK
6
CONTINUOUS
10
0.581024
20
0.121957
11
0.577274
21
0.121957
0
LINE
8
BLACK
6
CONTINUOUS
10
0.577274
20
0.121957
11
0.576405
21
0.122111
0
LINE
8
BLACK
6
CONTINUOUS
10
0.576405
20
0.122111
11
0.57634
21
0.122109
0
LINE
8
BLACK
6
CONTINUOUS
10
0.57634
20
0.122109
11
0.570716
21
0.123984
0
LINE
8
BLACK
6
CONTINUOUS
10
0.570716
20
0.123984
11
0.569814
21
0.124472
0
LINE
8
BLACK
6
CONTINUOUS
10
0.569814
20
0.124472
11
0.569722
21
0.124622
0
LINE
8
BLACK
6
CONTINUOUS
10
0.569722
20
0.124622
11
0.569562
21
0.124697
0
LINE
8
BLACK
6
CONTINUOUS
10
0.569562
20
0.124697
11
0.567687
21
0.126572
0
LINE
8
BLACK
6
CONTINUOUS
10
0.567687
20
0.126572
11
0.567582
21
0.126722
0
LINE
8
BLACK
6
CONTINUOUS
10
0.567582
20
0.126722
11
0.567513
21
0.126762
0
LINE
8
BLACK
6
CONTINUOUS
10
0.567513
20
0.126762
11
0.567469
21
0.126884
0
LINE
8
BLACK
6
CONTINUOUS
10
0.567469
20
0.126884
11
0.567099
21
0.127412
0
LINE
8
BLACK
6
CONTINUOUS
10
0.567099
20
0.127412
11
0.567043
21
0.128054
0
LINE
8
BLACK
6
CONTINUOUS
10
0.567043
20
0.128054
11
0.566822
21
0.12866
0
LINE
8
BLACK
6
CONTINUOUS
10
0.566822
20
0.12866
11
0.566822
21
0.141783
0
LINE
8
BLACK
6
CONTINUOUS
10
0.566822
20
0.141783
11
0.56689
21
0.142166
0
LINE
8
BLACK
6
CONTINUOUS
10
0.56689
20
0.142166
11
0.566867
21
0.142296
0
LINE
8
BLACK
6
CONTINUOUS
10
0.566867
20
0.142296
11
0.566933
21
0.142409
0
LINE
8
BLACK
6
CONTINUOUS
10
0.566933
20
0.142409
11
0.567
21
0.142793
0
LINE
8
BLACK
6
CONTINUOUS
10
0.567
20
0.142793
11
0.567493
21
0.143381
0
LINE
8
BLACK
6
CONTINUOUS
10
0.567493
20
0.143381
11
0.567877
21
0.144045
0
LINE
8
BLACK
6
CONTINUOUS
10
0.567877
20
0.144045
11
0.568127
21
0.144136
0
LINE
8
BLACK
6
CONTINUOUS
10
0.568127
20
0.144136
11
0.568299
21
0.14434
0
LINE
8
BLACK
6
CONTINUOUS
10
0.568299
20
0.14434
11
0.569054
21
0.144473
0
LINE
8
BLACK
6
CONTINUOUS
10
0.569054
20
0.144473
11
0.569775
21
0.144736
0
LINE
8
BLACK
6
CONTINUOUS
10
0.569775
20
0.144736
11
0.577274
21
0.144736
0
LINE
8
BLACK
6
CONTINUOUS
10
0.577274
20
0.144736
11
0.578284
21
0.144558
0
LINE
8
BLACK
6
CONTINUOUS
10
0.578284
20
0.144558
11
0.579831
21
0.143259
0
LINE
8
BLACK
6
CONTINUOUS
10
0.579831
20
0.143259
11
0.580182
21
0.14127
0
LINE
8
BLACK
6
CONTINUOUS
10
0.580182
20
0.14127
11
0.579172
21
0.139521
0
LINE
8
BLACK
6
CONTINUOUS
10
0.579172
20
0.139521
11
0.577274
21
0.13883
0
LINE
8
BLACK
6
CONTINUOUS
10
0.577274
20
0.13883
11
0.572728
21
0.13883
0
LINE
8
BLACK
6
CONTINUOUS
10
0.572728
20
0.13883
11
0.572728
21
0.129883
0
LINE
8
BLACK
6
CONTINUOUS
10
0.572728
20
0.129883
11
0.573245
21
0.129366
0
LINE
8
BLACK
6
CONTINUOUS
10
0.573245
20
0.129366
11
0.577753
21
0.127863
0
LINE
8
BLACK
6
CONTINUOUS
10
0.577753
20
0.127863
11
0.580544
21
0.127863
0
LINE
8
BLACK
6
CONTINUOUS
10
0.580544
20
0.127863
11
0.585053
21
0.129366
0
LINE
8
BLACK
6
CONTINUOUS
10
0.585053
20
0.129366
11
0.587971
21
0.132283
0
LINE
8
BLACK
6
CONTINUOUS
10
0.587971
20
0.132283
11
0.589486
21
0.135314
0
LINE
8
BLACK
6
CONTINUOUS
10
0.589486
20
0.135314
11
0.591194
21
0.142146
0
LINE
8
BLACK
6
CONTINUOUS
10
0.591194
20
0.142146
11
0.591194
21
0.147044
0
LINE
8
BLACK
6
CONTINUOUS
10
0.591194
20
0.147044
11
0.589486
21
0.153876
0
LINE
8
BLACK
6
CONTINUOUS
10
0.589486
20
0.153876
11
0.587971
21
0.156907
0
LINE
8
BLACK
6
CONTINUOUS
10
0.587971
20
0.156907
11
0.585053
21
0.159825
0
LINE
8
BLACK
6
CONTINUOUS
10
0.585053
20
0.159825
11
0.580544
21
0.161327
0
LINE
8
BLACK
6
CONTINUOUS
10
0.580544
20
0.161327
11
0.576096
21
0.161327
0
LINE
8
BLACK
6
CONTINUOUS
10
0.576096
20
0.161327
11
0.57297
21
0.159764
0
LINE
8
BLACK
6
CONTINUOUS
10
0.57297
20
0.159764
11
0.571987
21
0.159472
0
LINE
8
BLACK
6
CONTINUOUS
10
0.571987
20
0.159472
11
0.570023
21
0.159941
0
LINE
8
BLACK
6
CONTINUOUS
10
0.570023
20
0.159941
11
0.56882
21
0.161564
0
LINE
8
BLACK
6
CONTINUOUS
10
0.56882
20
0.161564
11
0.568941
21
0.16358
0
LINE
8
BLACK
6
CONTINUOUS
10
0.568941
20
0.16358
11
0.570329
21
0.165046
0
LINE
8
BLACK
6
CONTINUOUS
10
0.570329
20
0.165046
11
0.574079
21
0.166921
0
LINE
8
BLACK
6
CONTINUOUS
10
0.574079
20
0.166921
11
0.575062
21
0.167214
0
LINE
8
BLACK
6
CONTINUOUS
10
0.575062
20
0.167214
11
0.575233
21
0.167173
0
LINE
8
BLACK
6
CONTINUOUS
10
0.575233
20
0.167173
11
0.575399
21
0.167233
0
LINE
8
BLACK
6
CONTINUOUS
10
0.575399
20
0.167233
11
0.581024
21
0.167233
0
LINE
8
BLACK
6
CONTINUOUS
10
0.581024
20
0.167233
11
0.581893
21
0.16708
0
LINE
8
BLACK
6
CONTINUOUS
10
0.512041
20
0.167165
11
0.51217
21
0.167188
0
LINE
8
BLACK
6
CONTINUOUS
10
0.51217
20
0.167188
11
0.512284
21
0.167122
0
LINE
8
BLACK
6
CONTINUOUS
10
0.512284
20
0.167122
11
0.512667
21
0.167055
0
LINE
8
BLACK
6
CONTINUOUS
10
0.512667
20
0.167055
11
0.513255
21
0.166562
0
LINE
8
BLACK
6
CONTINUOUS
10
0.513255
20
0.166562
11
0.513919
21
0.166178
0
LINE
8
BLACK
6
CONTINUOUS
10
0.513919
20
0.166178
11
0.51401
21
0.165928
0
LINE
8
BLACK
6
CONTINUOUS
10
0.51401
20
0.165928
11
0.514214
21
0.165757
0
LINE
8
BLACK
6
CONTINUOUS
10
0.514214
20
0.165757
11
0.514348
21
0.165001
0
LINE
8
BLACK
6
CONTINUOUS
10
0.514348
20
0.165001
11
0.51461
21
0.16428
0
LINE
8
BLACK
6
CONTINUOUS
10
0.51461
20
0.16428
11
0.51461
21
0.12491
0
LINE
8
BLACK
6
CONTINUOUS
10
0.51461
20
0.12491
11
0.514542
21
0.124527
0
LINE
8
BLACK
6
CONTINUOUS
10
0.514542
20
0.124527
11
0.514565
21
0.124397
0
LINE
8
BLACK
6
CONTINUOUS
10
0.514565
20
0.124397
11
0.5145
21
0.124284
0
LINE
8
BLACK
6
CONTINUOUS
10
0.5145
20
0.124284
11
0.514432
21
0.1239
0
LINE
8
BLACK
6
CONTINUOUS
10
0.514432
20
0.1239
11
0.513939
21
0.123312
0
LINE
8
BLACK
6
CONTINUOUS
10
0.513939
20
0.123312
11
0.513555
21
0.122648
0
LINE
8
BLACK
6
CONTINUOUS
10
0.513555
20
0.122648
11
0.513305
21
0.122557
0
LINE
8
BLACK
6
CONTINUOUS
10
0.513305
20
0.122557
11
0.513134
21
0.122353
0
LINE
8
BLACK
6
CONTINUOUS
10
0.513134
20
0.122353
11
0.512378
21
0.12222
0
LINE
8
BLACK
6
CONTINUOUS
10
0.512378
20
0.12222
11
0.511657
21
0.121957
0
LINE
8
BLACK
6
CONTINUOUS
10
0.511657
20
0.121957
11
0.502283
21
0.121957
0
LINE
8
BLACK
6
CONTINUOUS
10
0.502283
20
0.121957
11
0.501414
21
0.122111
0
LINE
8
BLACK
6
CONTINUOUS
10
0.501414
20
0.122111
11
0.50135
21
0.122109
0
LINE
8
BLACK
6
CONTINUOUS
10
0.50135
20
0.122109
11
0.495725
21
0.123984
0
LINE
8
BLACK
6
CONTINUOUS
10
0.495725
20
0.123984
11
0.494824
21
0.124472
0
LINE
8
BLACK
6
CONTINUOUS
10
0.494824
20
0.124472
11
0.494731
21
0.124622
0
LINE
8
BLACK
6
CONTINUOUS
10
0.494731
20
0.124622
11
0.494571
21
0.124697
0
LINE
8
BLACK
6
CONTINUOUS
10
0.494571
20
0.124697
11
0.490822
21
0.128446
0
LINE
8
BLACK
6
CONTINUOUS
10
0.490822
20
0.128446
11
0.490315
21
0.12917
0
LINE
8
BLACK
6
CONTINUOUS
10
0.490315
20
0.12917
11
0.490269
21
0.129214
0
LINE
8
BLACK
6
CONTINUOUS
10
0.490269
20
0.129214
11
0.488394
21
0.132963
0
LINE
8
BLACK
6
CONTINUOUS
10
0.488394
20
0.132963
11
0.488249
21
0.133452
0
LINE
8
BLACK
6
CONTINUOUS
10
0.488249
20
0.133452
11
0.48817
21
0.133568
0
LINE
8
BLACK
6
CONTINUOUS
10
0.48817
20
0.133568
11
0.486295
21
0.141067
0
LINE
8
BLACK
6
CONTINUOUS
10
0.486295
20
0.141067
11
0.486254
21
0.141655
0
LINE
8
BLACK
6
CONTINUOUS
10
0.486254
20
0.141655
11
0.486207
21
0.141783
0
LINE
8
BLACK
6
CONTINUOUS
10
0.486207
20
0.141783
11
0.486207
21
0.147407
0
LINE
8
BLACK
6
CONTINUOUS
10
0.486207
20
0.147407
11
0.48631
21
0.147988
0
LINE
8
BLACK
6
CONTINUOUS
10
0.48631
20
0.147988
11
0.486295
21
0.148123
0
LINE
8
BLACK
6
CONTINUOUS
10
0.486295
20
0.148123
11
0.48817
21
0.155622
0
LINE
8
BLACK
6
CONTINUOUS
10
0.48817
20
0.155622
11
0.488378
21
0.156088
0
LINE
8
BLACK
6
CONTINUOUS
10
0.488378
20
0.156088
11
0.488394
21
0.156227
0
LINE
8
BLACK
6
CONTINUOUS
10
0.488394
20
0.156227
11
0.490269
21
0.159976
0
LINE
8
BLACK
6
CONTINUOUS
10
0.490269
20
0.159976
11
0.490794
21
0.160685
0
LINE
8
BLACK
6
CONTINUOUS
10
0.490794
20
0.160685
11
0.490822
21
0.160744
0
LINE
8
BLACK
6
CONTINUOUS
10
0.490822
20
0.160744
11
0.494571
21
0.164493
0
LINE
8
BLACK
6
CONTINUOUS
10
0.494571
20
0.164493
11
0.495411
21
0.165081
0
LINE
8
BLACK
6
CONTINUOUS
10
0.495411
20
0.165081
11
0.495587
21
0.165097
0
LINE
8
BLACK
6
CONTINUOUS
10
0.495587
20
0.165097
11
0.495725
21
0.165207
0
LINE
8
BLACK
6
CONTINUOUS
10
0.495725
20
0.165207
11
0.50135
21
0.167081
0
LINE
8
BLACK
6
CONTINUOUS
10
0.50135
20
0.167081
11
0.502223
21
0.167211
0
LINE
8
BLACK
6
CONTINUOUS
10
0.502223
20
0.167211
11
0.502283
21
0.167233
0
LINE
8
BLACK
6
CONTINUOUS
10
0.502283
20
0.167233
11
0.511657
21
0.167233
0
LINE
8
BLACK
6
CONTINUOUS
10
0.511657
20
0.167233
11
0.512041
21
0.167165
0
LINE
8
BLACK
6
CONTINUOUS
10
0.502763
20
0.161327
11
0.498254
21
0.159825
0
LINE
8
BLACK
6
CONTINUOUS
10
0.498254
20
0.159825
11
0.495336
21
0.156907
0
LINE
8
BLACK
6
CONTINUOUS
10
0.495336
20
0.156907
11
0.493821
21
0.153876
0
LINE
8
BLACK
6
CONTINUOUS
10
0.493821
20
0.153876
11
0.492113
21
0.147044
0
LINE
8
BLACK
6
CONTINUOUS
10
0.492113
20
0.147044
11
0.492113
21
0.142146
0
LINE
8
BLACK
6
CONTINUOUS
10
0.492113
20
0.142146
11
0.493821
21
0.135314
0
LINE
8
BLACK
6
CONTINUOUS
10
0.493821
20
0.135314
11
0.495336
21
0.132283
0
LINE
8
BLACK
6
CONTINUOUS
10
0.495336
20
0.132283
11
0.498254
21
0.129366
0
LINE
8
BLACK
6
CONTINUOUS
10
0.498254
20
0.129366
11
0.502763
21
0.127863
0
LINE
8
BLACK
6
CONTINUOUS
10
0.502763
20
0.127863
11
0.508705
21
0.127863
0
LINE
8
BLACK
6
CONTINUOUS
10
0.508705
20
0.127863
11
0.508705
21
0.161327
0
LINE
8
BLACK
6
CONTINUOUS
10
0.508705
20
0.161327
11
0.502763
21
0.161327
0
LINE
8
BLACK
6
CONTINUOUS
10
0.553146
20
0.167141
11
0.553415
21
0.167188
0
LINE
8
BLACK
6
CONTINUOUS
10
0.553415
20
0.167188
11
0.554074
21
0.166808
0
LINE
8
BLACK
6
CONTINUOUS
10
0.554074
20
0.166808
11
0.55479
21
0.166551
0
LINE
8
BLACK
6
CONTINUOUS
10
0.55479
20
0.166551
11
0.554928
21
0.166315
0
LINE
8
BLACK
6
CONTINUOUS
10
0.554928
20
0.166315
11
0.555164
21
0.166178
0
LINE
8
BLACK
6
CONTINUOUS
10
0.555164
20
0.166178
11
0.555424
21
0.165463
0
LINE
8
BLACK
6
CONTINUOUS
10
0.555424
20
0.165463
11
0.555808
21
0.164806
0
LINE
8
BLACK
6
CONTINUOUS
10
0.555808
20
0.164806
11
0.555761
21
0.164537
0
LINE
8
BLACK
6
CONTINUOUS
10
0.555761
20
0.164537
11
0.555855
21
0.16428
0
LINE
8
BLACK
6
CONTINUOUS
10
0.555855
20
0.16428
11
0.555855
21
0.12491
0
LINE
8
BLACK
6
CONTINUOUS
10
0.555855
20
0.12491
11
0.555677
21
0.1239
0
LINE
8
BLACK
6
CONTINUOUS
10
0.555677
20
0.1239
11
0.554379
21
0.122353
0
LINE
8
BLACK
6
CONTINUOUS
10
0.554379
20
0.122353
11
0.552389
21
0.122002
0
LINE
8
BLACK
6
CONTINUOUS
10
0.552389
20
0.122002
11
0.55064
21
0.123012
0
LINE
8
BLACK
6
CONTINUOUS
10
0.55064
20
0.123012
11
0.549949
21
0.12491
0
LINE
8
BLACK
6
CONTINUOUS
10
0.549949
20
0.12491
11
0.549949
21
0.153161
0
LINE
8
BLACK
6
CONTINUOUS
10
0.549949
20
0.153161
11
0.532969
21
0.123445
0
LINE
8
BLACK
6
CONTINUOUS
10
0.532969
20
0.123445
11
0.532313
21
0.122657
0
LINE
8
BLACK
6
CONTINUOUS
10
0.532313
20
0.122657
11
0.532057
21
0.122562
0
LINE
8
BLACK
6
CONTINUOUS
10
0.532057
20
0.122562
11
0.531881
21
0.122353
0
LINE
8
BLACK
6
CONTINUOUS
10
0.531881
20
0.122353
11
0.531132
21
0.122221
0
LINE
8
BLACK
6
CONTINUOUS
10
0.531132
20
0.122221
11
0.530418
21
0.121957
0
LINE
8
BLACK
6
CONTINUOUS
10
0.530418
20
0.121957
11
0.530161
21
0.12205
0
LINE
8
BLACK
6
CONTINUOUS
10
0.530161
20
0.12205
11
0.529892
21
0.122002
0
LINE
8
BLACK
6
CONTINUOUS
10
0.529892
20
0.122002
11
0.529233
21
0.122383
0
LINE
8
BLACK
6
CONTINUOUS
10
0.529233
20
0.122383
11
0.528517
21
0.12264
0
LINE
8
BLACK
6
CONTINUOUS
10
0.528517
20
0.12264
11
0.528379
21
0.122876
0
LINE
8
BLACK
6
CONTINUOUS
10
0.528379
20
0.122876
11
0.528143
21
0.123012
0
LINE
8
BLACK
6
CONTINUOUS
10
0.528143
20
0.123012
11
0.527883
21
0.123727
0
LINE
8
BLACK
6
CONTINUOUS
10
0.527883
20
0.123727
11
0.527499
21
0.124384
0
LINE
8
BLACK
6
CONTINUOUS
10
0.527499
20
0.124384
11
0.527546
21
0.124654
0
LINE
8
BLACK
6
CONTINUOUS
10
0.527546
20
0.124654
11
0.527452
21
0.12491
0
LINE
8
BLACK
6
CONTINUOUS
10
0.527452
20
0.12491
11
0.527452
21
0.16428
0
LINE
8
BLACK
6
CONTINUOUS
10
0.527452
20
0.16428
11
0.52763
21
0.16529
0
LINE
8
BLACK
6
CONTINUOUS
10
0.52763
20
0.16529
11
0.528929
21
0.166837
0
LINE
8
BLACK
6
CONTINUOUS
10
0.528929
20
0.166837
11
0.530918
21
0.167188
0
LINE
8
BLACK
6
CONTINUOUS
10
0.530918
20
0.167188
11
0.532667
21
0.166178
0
LINE
8
BLACK
6
CONTINUOUS
10
0.532667
20
0.166178
11
0.533358
21
0.16428
0
LINE
8
BLACK
6
CONTINUOUS
10
0.533358
20
0.16428
11
0.533358
21
0.136029
0
LINE
8
BLACK
6
CONTINUOUS
10
0.533358
20
0.136029
11
0.550338
21
0.165745
0
LINE
8
BLACK
6
CONTINUOUS
10
0.550338
20
0.165745
11
0.550994
21
0.166534
0
LINE
8
BLACK
6
CONTINUOUS
10
0.550994
20
0.166534
11
0.55125
21
0.166628
0
LINE
8
BLACK
6
CONTINUOUS
10
0.55125
20
0.166628
11
0.551426
21
0.166837
0
LINE
8
BLACK
6
CONTINUOUS
10
0.551426
20
0.166837
11
0.552175
21
0.166969
0
LINE
8
BLACK
6
CONTINUOUS
10
0.552175
20
0.166969
11
0.552889
21
0.167233
0
LINE
8
BLACK
6
CONTINUOUS
10
0.552889
20
0.167233
11
0.553146
21
0.167141
0
LINE
8
BLACK
6
CONTINUOUS
10
0.0498626
20
0.12336
11
0.0492861
21
0.124752
0
LINE
8
BLACK
6
CONTINUOUS
10
0.0492861
20
0.124752
11
0.0498626
21
0.126144
0
LINE
8
BLACK
6
CONTINUOUS
10
0.0498626
20
0.126144
11
0.0512546
21
0.12672
0
LINE
8
BLACK
6
CONTINUOUS
10
0.0512546
20
0.12672
11
0.0659998
21
0.12672
0
LINE
8
BLACK
6
CONTINUOUS
10
0.0659998
20
0.12672
11
0.0513624
21
0.141358
0
LINE
8
BLACK
6
CONTINUOUS
10
0.0513624
20
0.141358
11
0.0511871
21
0.141781
0
LINE
8
BLACK
6
CONTINUOUS
10
0.0511871
20
0.141781
11
0.0508869
21
0.142127
0
LINE
8
BLACK
6
CONTINUOUS
10
0.0508869
20
0.142127
11
0.0493871
21
0.146626
0
LINE
8
BLACK
6
CONTINUOUS
10
0.0493871
20
0.146626
11
0.04941
21
0.14695
0
LINE
8
BLACK
6
CONTINUOUS
10
0.04941
20
0.14695
11
0.0492861
21
0.147249
0
LINE
8
BLACK
6
CONTINUOUS
10
0.0492861
20
0.147249
11
0.0492861
21
0.150249
0
LINE
8
BLACK
6
CONTINUOUS
10
0.0492861
20
0.150249
11
0.0494614
21
0.150672
0
LINE
8
BLACK
6
CONTINUOUS
10
0.0494614
20
0.150672
11
0.0494939
21
0.151129
0
LINE
8
BLACK
6
CONTINUOUS
10
0.0494939
20
0.151129
11
0.0509937
21
0.154129
0
LINE
8
BLACK
6
CONTINUOUS
10
0.0509937
20
0.154129
11
0.0512384
21
0.154341
0
LINE
8
BLACK
6
CONTINUOUS
10
0.0512384
20
0.154341
11
0.0513624
21
0.15464
0
LINE
8
BLACK
6
CONTINUOUS
10
0.0513624
20
0.15464
11
0.0528623
21
0.15614
0
LINE
8
BLACK
6
CONTINUOUS
10
0.0528623
20
0.15614
11
0.0531616
21
0.156264
0
LINE
8
BLACK
6
CONTINUOUS
10
0.0531616
20
0.156264
11
0.0533739
21
0.156509
0
LINE
8
BLACK
6
CONTINUOUS
10
0.0533739
20
0.156509
11
0.0563734
21
0.158009
0
LINE
8
BLACK
6
CONTINUOUS
10
0.0563734
20
0.158009
11
0.0568305
21
0.158041
0
LINE
8
BLACK
6
CONTINUOUS
10
0.0568305
20
0.158041
11
0.0572538
21
0.158216
0
LINE
8
BLACK
6
CONTINUOUS
10
0.0572538
20
0.158216
11
0.0647529
21
0.158216
0
LINE
8
BLACK
6
CONTINUOUS
10
0.0647529
20
0.158216
11
0.0651762
21
0.158041
0
LINE
8
BLACK
6
CONTINUOUS
10
0.0651762
20
0.158041
11
0.0656332
21
0.158009
0
LINE
8
BLACK
6
CONTINUOUS
10
0.0656332
20
0.158009
11
0.0686329
21
0.156509
0
LINE
8
BLACK
6
CONTINUOUS
10
0.0686329
20
0.156509
11
0.0688452
21
0.156264
0
LINE
8
BLACK
6
CONTINUOUS
10
0.0688452
20
0.156264
11
0.0691444
21
0.15614
0
LINE
8
BLACK
6
CONTINUOUS
10
0.0691444
20
0.15614
11
0.0706443
21
0.15464
0
LINE
8
BLACK
6
CONTINUOUS
10
0.0706443
20
0.15464
11
0.0712208
21
0.153248
0
LINE
8
BLACK
6
CONTINUOUS
10
0.0712208
20
0.153248
11
0.0706443
21
0.151856
0
LINE
8
BLACK
6
CONTINUOUS
10
0.0706443
20
0.151856
11
0.0692523
21
0.15128
0
LINE
8
BLACK
6
CONTINUOUS
10
0.0692523
20
0.15128
11
0.0678604
21
0.151856
0
LINE
8
BLACK
6
CONTINUOUS
10
0.0678604
20
0.151856
11
0.0665865
21
0.15313
0
LINE
8
BLACK
6
CONTINUOUS
10
0.0665865
20
0.15313
11
0.0642882
21
0.154279
0
LINE
8
BLACK
6
CONTINUOUS
10
0.0642882
20
0.154279
11
0.0577185
21
0.154279
0
LINE
8
BLACK
6
CONTINUOUS
10
0.0577185
20
0.154279
11
0.0554203
21
0.15313
0
LINE
8
BLACK
6
CONTINUOUS
10
0.0554203
20
0.15313
11
0.0543722
21
0.152082
0
LINE
8
BLACK
6
CONTINUOUS
10
0.0543722
20
0.152082
11
0.0532231
21
0.149784
0
LINE
8
BLACK
6
CONTINUOUS
10
0.0532231
20
0.149784
11
0.0532231
21
0.147568
0
LINE
8
BLACK
6
CONTINUOUS
10
0.0532231
20
0.147568
11
0.0544749
21
0.143813
0
LINE
8
BLACK
6
CONTINUOUS
10
0.0544749
20
0.143813
11
0.0721441
21
0.126144
0
LINE
8
BLACK
6
CONTINUOUS
10
0.0721441
20
0.126144
11
0.0727206
21
0.124752
0
LINE
8
BLACK
6
CONTINUOUS
10
0.0727206
20
0.124752
11
0.0721441
21
0.12336
0
LINE
8
BLACK
6
CONTINUOUS
10
0.0721441
20
0.12336
11
0.0707521
21
0.122783
0
LINE
8
BLACK
6
CONTINUOUS
10
0.0707521
20
0.122783
11
0.0512546
21
0.122783
0
LINE
8
BLACK
6
CONTINUOUS
10
0.0512546
20
0.122783
11
0.0498626
21
0.12336
0
LINE
8
BLACK
6
CONTINUOUS
10
0.115639
20
0.15764
11
0.116215
21
0.156248
0
LINE
8
BLACK
6
CONTINUOUS
10
0.116215
20
0.156248
11
0.116215
21
0.13407
0
LINE
8
BLACK
6
CONTINUOUS
10
0.116215
20
0.13407
11
0.117467
21
0.130315
0
LINE
8
BLACK
6
CONTINUOUS
10
0.117467
20
0.130315
11
0.119809
21
0.127972
0
LINE
8
BLACK
6
CONTINUOUS
10
0.119809
20
0.127972
11
0.123565
21
0.12672
0
LINE
8
BLACK
6
CONTINUOUS
10
0.123565
20
0.12672
11
0.126245
21
0.12672
0
LINE
8
BLACK
6
CONTINUOUS
10
0.126245
20
0.12672
11
0.127637
21
0.126144
0
LINE
8
BLACK
6
CONTINUOUS
10
0.127637
20
0.126144
11
0.128214
21
0.124752
0
LINE
8
BLACK
6
CONTINUOUS
10
0.128214
20
0.124752
11
0.127637
21
0.12336
0
LINE
8
BLACK
6
CONTINUOUS
10
0.127637
20
0.12336
11
0.126245
21
0.122783
0
LINE
8
BLACK
6
CONTINUOUS
10
0.126245
20
0.122783
11
0.123246
21
0.122783
0
LINE
8
BLACK
6
CONTINUOUS
10
0.123246
20
0.122783
11
0.122946
21
0.122907
0
LINE
8
BLACK
6
CONTINUOUS
10
0.122946
20
0.122907
11
0.122623
21
0.122884
0
LINE
8
BLACK
6
CONTINUOUS
10
0.122623
20
0.122884
11
0.118124
21
0.124384
0
LINE
8
BLACK
6
CONTINUOUS
10
0.118124
20
0.124384
11
0.117778
21
0.124684
0
LINE
8
BLACK
6
CONTINUOUS
10
0.117778
20
0.124684
11
0.117354
21
0.12486
0
LINE
8
BLACK
6
CONTINUOUS
10
0.117354
20
0.12486
11
0.114355
21
0.127859
0
LINE
8
BLACK
6
CONTINUOUS
10
0.114355
20
0.127859
11
0.114179
21
0.128283
0
LINE
8
BLACK
6
CONTINUOUS
10
0.114179
20
0.128283
11
0.113879
21
0.128629
0
LINE
8
BLACK
6
CONTINUOUS
10
0.113879
20
0.128629
11
0.112379
21
0.133128
0
LINE
8
BLACK
6
CONTINUOUS
10
0.112379
20
0.133128
11
0.112402
21
0.133451
0
LINE
8
BLACK
6
CONTINUOUS
10
0.112402
20
0.133451
11
0.112278
21
0.133751
0
LINE
8
BLACK
6
CONTINUOUS
10
0.112278
20
0.133751
11
0.112278
21
0.156248
0
LINE
8
BLACK
6
CONTINUOUS
10
0.112278
20
0.156248
11
0.112855
21
0.15764
0
LINE
8
BLACK
6
CONTINUOUS
10
0.112855
20
0.15764
11
0.114247
21
0.158216
0
LINE
8
BLACK
6
CONTINUOUS
10
0.114247
20
0.158216
11
0.115639
21
0.15764
0
LINE
8
BLACK
6
CONTINUOUS
10
0.100641
20
0.15764
11
0.101217
21
0.156248
0
LINE
8
BLACK
6
CONTINUOUS
10
0.101217
20
0.156248
11
0.101217
21
0.124752
0
LINE
8
BLACK
6
CONTINUOUS
10
0.101217
20
0.124752
11
0.100641
21
0.12336
0
LINE
8
BLACK
6
CONTINUOUS
10
0.100641
20
0.12336
11
0.0992486
21
0.122783
0
LINE
8
BLACK
6
CONTINUOUS
10
0.0992486
20
0.122783
11
0.0978567
21
0.12336
0
LINE
8
BLACK
6
CONTINUOUS
10
0.0978567
20
0.12336
11
0.0972801
21
0.124752
0
LINE
8
BLACK
6
CONTINUOUS
10
0.0972801
20
0.124752
11
0.0972801
21
0.137781
0
LINE
8
BLACK
6
CONTINUOUS
10
0.0972801
20
0.137781
11
0.0872501
21
0.137781
0
LINE
8
BLACK
6
CONTINUOUS
10
0.0872501
20
0.137781
11
0.0868268
21
0.137957
0
LINE
8
BLACK
6
CONTINUOUS
10
0.0868268
20
0.137957
11
0.0863698
21
0.137989
0
LINE
8
BLACK
6
CONTINUOUS
10
0.0863698
20
0.137989
11
0.0833701
21
0.139489
0
LINE
8
BLACK
6
CONTINUOUS
10
0.0833701
20
0.139489
11
0.0831579
21
0.139734
0
LINE
8
BLACK
6
CONTINUOUS
10
0.0831579
20
0.139734
11
0.0828585
21
0.139858
0
LINE
8
BLACK
6
CONTINUOUS
10
0.0828585
20
0.139858
11
0.0813587
21
0.141358
0
LINE
8
BLACK
6
CONTINUOUS
10
0.0813587
20
0.141358
11
0.0812347
21
0.141657
0
LINE
8
BLACK
6
CONTINUOUS
10
0.0812347
20
0.141657
11
0.08099
21
0.141869
0
LINE
8
BLACK
6
CONTINUOUS
10
0.08099
20
0.141869
11
0.0794902
21
0.144869
0
LINE
8
BLACK
6
CONTINUOUS
10
0.0794902
20
0.144869
11
0.0794577
21
0.145326
0
LINE
8
BLACK
6
CONTINUOUS
10
0.0794577
20
0.145326
11
0.0792823
21
0.145749
0
LINE
8
BLACK
6
CONTINUOUS
10
0.0792823
20
0.145749
11
0.0792823
21
0.150249
0
LINE
8
BLACK
6
CONTINUOUS
10
0.0792823
20
0.150249
11
0.0794577
21
0.150672
0
LINE
8
BLACK
6
CONTINUOUS
10
0.0794577
20
0.150672
11
0.0794902
21
0.151129
0
LINE
8
BLACK
6
CONTINUOUS
10
0.0794902
20
0.151129
11
0.08099
21
0.154129
0
LINE
8
BLACK
6
CONTINUOUS
10
0.08099
20
0.154129
11
0.0812347
21
0.154341
0
LINE
8
BLACK
6
CONTINUOUS
10
0.0812347
20
0.154341
11
0.0813587
21
0.15464
0
LINE
8
BLACK
6
CONTINUOUS
10
0.0813587
20
0.15464
11
0.0828585
21
0.15614
0
LINE
8
BLACK
6
CONTINUOUS
10
0.0828585
20
0.15614
11
0.0831578
21
0.156264
0
LINE
8
BLACK
6
CONTINUOUS
10
0.0831578
20
0.156264
11
0.0833701
21
0.156509
0
LINE
8
BLACK
6
CONTINUOUS
10
0.0833701
20
0.156509
11
0.0863697
21
0.158009
0
LINE
8
BLACK
6
CONTINUOUS
10
0.0863697
20
0.158009
11
0.0868268
21
0.158041
0
LINE
8
BLACK
6
CONTINUOUS
10
0.0868268
20
0.158041
11
0.0872501
21
0.158216
0
LINE
8
BLACK
6
CONTINUOUS
10
0.0872501
20
0.158216
11
0.0992486
21
0.158216
0
LINE
8
BLACK
6
CONTINUOUS
10
0.0992486
20
0.158216
11
0.100641
21
0.15764
0
LINE
8
BLACK
6
CONTINUOUS
10
0.0877148
20
0.154279
11
0.0854165
21
0.15313
0
LINE
8
BLACK
6
CONTINUOUS
10
0.0854165
20
0.15313
11
0.0843685
21
0.152082
0
LINE
8
BLACK
6
CONTINUOUS
10
0.0843685
20
0.152082
11
0.0832193
21
0.149784
0
LINE
8
BLACK
6
CONTINUOUS
10
0.0832193
20
0.149784
11
0.0832193
21
0.146214
0
LINE
8
BLACK
6
CONTINUOUS
10
0.0832193
20
0.146214
11
0.0843684
21
0.143916
0
LINE
8
BLACK
6
CONTINUOUS
10
0.0843684
20
0.143916
11
0.0854166
21
0.142867
0
LINE
8
BLACK
6
CONTINUOUS
10
0.0854166
20
0.142867
11
0.0877148
21
0.141718
0
LINE
8
BLACK
6
CONTINUOUS
10
0.0877148
20
0.141718
11
0.0972801
21
0.141718
0
LINE
8
BLACK
6
CONTINUOUS
10
0.0972801
20
0.141718
11
0.0972801
21
0.154279
0
LINE
8
BLACK
6
CONTINUOUS
10
0.0972801
20
0.154279
11
0.0877148
21
0.154279
0
LINE
8
BLACK
6
CONTINUOUS
10
-0.0666111
20
0.18964
11
-0.0660345
21
0.188248
0
LINE
8
BLACK
6
CONTINUOUS
10
-0.0660345
20
0.188248
11
-0.0660345
21
0.162751
0
LINE
8
BLACK
6
CONTINUOUS
10
-0.0660345
20
0.162751
11
-0.0662098
21
0.162328
0
LINE
8
BLACK
6
CONTINUOUS
10
-0.0662098
20
0.162328
11
-0.0662423
21
0.161871
0
LINE
8
BLACK
6
CONTINUOUS
10
-0.0662423
20
0.161871
11
-0.0677422
21
0.158871
0
LINE
8
BLACK
6
CONTINUOUS
10
-0.0677422
20
0.158871
11
-0.0679869
21
0.158659
0
LINE
8
BLACK
6
CONTINUOUS
10
-0.0679869
20
0.158659
11
-0.0681109
21
0.158359
0
LINE
8
BLACK
6
CONTINUOUS
10
-0.0681109
20
0.158359
11
-0.0696107
21
0.15686
0
LINE
8
BLACK
6
CONTINUOUS
10
-0.0696107
20
0.15686
11
-0.06991
21
0.156736
0
LINE
8
BLACK
6
CONTINUOUS
10
-0.06991
20
0.156736
11
-0.0701223
21
0.156491
0
LINE
8
BLACK
6
CONTINUOUS
10
-0.0701223
20
0.156491
11
-0.073122
21
0.154991
0
LINE
8
BLACK
6
CONTINUOUS
10
-0.073122
20
0.154991
11
-0.0735789
21
0.154959
0
LINE
8
BLACK
6
CONTINUOUS
10
-0.0735789
20
0.154959
11
-0.0740023
21
0.154783
0
LINE
8
BLACK
6
CONTINUOUS
10
-0.0740023
20
0.154783
11
-0.0800015
21
0.154783
0
LINE
8
BLACK
6
CONTINUOUS
10
-0.0800015
20
0.154783
11
-0.0804248
21
0.154959
0
LINE
8
BLACK
6
CONTINUOUS
10
-0.0804248
20
0.154959
11
-0.0808819
21
0.154991
0
LINE
8
BLACK
6
CONTINUOUS
10
-0.0808819
20
0.154991
11
-0.0838815
21
0.156491
0
LINE
8
BLACK
6
CONTINUOUS
10
-0.0838815
20
0.156491
11
-0.0840938
21
0.156736
0
LINE
8
BLACK
6
CONTINUOUS
10
-0.0840938
20
0.156736
11
-0.0843931
21
0.15686
0
LINE
8
BLACK
6
CONTINUOUS
10
-0.0843931
20
0.15686
11
-0.0858929
21
0.158359
0
LINE
8
BLACK
6
CONTINUOUS
10
-0.0858929
20
0.158359
11
-0.0860169
21
0.158659
0
LINE
8
BLACK
6
CONTINUOUS
10
-0.0860169
20
0.158659
11
-0.0862616
21
0.158871
0
LINE
8
BLACK
6
CONTINUOUS
10
-0.0862616
20
0.158871
11
-0.0877615
21
0.161871
0
LINE
8
BLACK
6
CONTINUOUS
10
-0.0877615
20
0.161871
11
-0.0877939
21
0.162328
0
LINE
8
BLACK
6
CONTINUOUS
10
-0.0877939
20
0.162328
11
-0.0879693
21
0.162751
0
LINE
8
BLACK
6
CONTINUOUS
10
-0.0879693
20
0.162751
11
-0.0879693
21
0.188248
0
LINE
8
BLACK
6
CONTINUOUS
10
-0.0879693
20
0.188248
11
-0.0873927
21
0.18964
0
LINE
8
BLACK
6
CONTINUOUS
10
-0.0873927
20
0.18964
11
-0.0860008
21
0.190216
0
LINE
8
BLACK
6
CONTINUOUS
10
-0.0860008
20
0.190216
11
-0.0846089
21
0.18964
0
LINE
8
BLACK
6
CONTINUOUS
10
-0.0846089
20
0.18964
11
-0.0840323
21
0.188248
0
LINE
8
BLACK
6
CONTINUOUS
10
-0.0840323
20
0.188248
11
-0.0840323
21
0.163216
0
LINE
8
BLACK
6
CONTINUOUS
10
-0.0840323
20
0.163216
11
-0.0828831
21
0.160917
0
LINE
8
BLACK
6
CONTINUOUS
10
-0.0828831
20
0.160917
11
-0.081835
21
0.159869
0
LINE
8
BLACK
6
CONTINUOUS
10
-0.081835
20
0.159869
11
-0.0795369
21
0.15872
0
LINE
8
BLACK
6
CONTINUOUS
10
-0.0795369
20
0.15872
11
-0.0744669
21
0.15872
0
LINE
8
BLACK
6
CONTINUOUS
10
-0.0744669
20
0.15872
11
-0.0721686
21
0.159869
0
LINE
8
BLACK
6
CONTINUOUS
10
-0.0721686
20
0.159869
11
-0.0711206
21
0.160918
0
LINE
8
BLACK
6
CONTINUOUS
10
-0.0711206
20
0.160918
11
-0.0699715
21
0.163216
0
LINE
8
BLACK
6
CONTINUOUS
10
-0.0699715
20
0.163216
11
-0.0699715
21
0.188248
0
LINE
8
BLACK
6
CONTINUOUS
10
-0.0699715
20
0.188248
11
-0.069395
21
0.18964
0
LINE
8
BLACK
6
CONTINUOUS
10
-0.069395
20
0.18964
11
-0.068003
21
0.190216
0
LINE
8
BLACK
6
CONTINUOUS
10
-0.068003
20
0.190216
11
-0.0666111
21
0.18964
0
LINE
8
BLACK
6
CONTINUOUS
10
-0.0966073
20
0.18964
11
-0.0960307
21
0.188248
0
LINE
8
BLACK
6
CONTINUOUS
10
-0.0960307
20
0.188248
11
-0.0966073
21
0.186856
0
LINE
8
BLACK
6
CONTINUOUS
10
-0.0966073
20
0.186856
11
-0.0979993
21
0.186279
0
LINE
8
BLACK
6
CONTINUOUS
10
-0.0979993
20
0.186279
11
-0.113159
21
0.186279
0
LINE
8
BLACK
6
CONTINUOUS
10
-0.113159
20
0.186279
11
-0.105517
21
0.177546
0
LINE
8
BLACK
6
CONTINUOUS
10
-0.105517
20
0.177546
11
-0.105295
21
0.176889
0
LINE
8
BLACK
6
CONTINUOUS
10
-0.105295
20
0.176889
11
-0.10503
21
0.176249
0
LINE
8
BLACK
6
CONTINUOUS
10
-0.10503
20
0.176249
11
-0.105056
21
0.176185
0
LINE
8
BLACK
6
CONTINUOUS
10
-0.105056
20
0.176185
11
-0.105034
21
0.176118
0
LINE
8
BLACK
6
CONTINUOUS
10
-0.105034
20
0.176118
11
-0.105341
21
0.175497
0
LINE
8
BLACK
6
CONTINUOUS
10
-0.105341
20
0.175497
11
-0.105606
21
0.174857
0
LINE
8
BLACK
6
CONTINUOUS
10
-0.105606
20
0.174857
11
-0.105671
21
0.174831
0
LINE
8
BLACK
6
CONTINUOUS
10
-0.105671
20
0.174831
11
-0.105702
21
0.174768
0
LINE
8
BLACK
6
CONTINUOUS
10
-0.105702
20
0.174768
11
-0.106358
21
0.174546
0
LINE
8
BLACK
6
CONTINUOUS
10
-0.106358
20
0.174546
11
-0.106998
21
0.174281
0
LINE
8
BLACK
6
CONTINUOUS
10
-0.106998
20
0.174281
11
-0.111033
21
0.174281
0
LINE
8
BLACK
6
CONTINUOUS
10
-0.111033
20
0.174281
11
-0.113331
21
0.173132
0
LINE
8
BLACK
6
CONTINUOUS
10
-0.113331
20
0.173132
11
-0.114379
21
0.172084
0
LINE
8
BLACK
6
CONTINUOUS
10
-0.114379
20
0.172084
11
-0.115528
21
0.169785
0
LINE
8
BLACK
6
CONTINUOUS
10
-0.115528
20
0.169785
11
-0.115528
21
0.163216
0
LINE
8
BLACK
6
CONTINUOUS
10
-0.115528
20
0.163216
11
-0.114379
21
0.160917
0
LINE
8
BLACK
6
CONTINUOUS
10
-0.114379
20
0.160917
11
-0.113331
21
0.159869
0
LINE
8
BLACK
6
CONTINUOUS
10
-0.113331
20
0.159869
11
-0.111033
21
0.15872
0
LINE
8
BLACK
6
CONTINUOUS
10
-0.111033
20
0.15872
11
-0.102963
21
0.15872
0
LINE
8
BLACK
6
CONTINUOUS
10
-0.102963
20
0.15872
11
-0.100665
21
0.159869
0
LINE
8
BLACK
6
CONTINUOUS
10
-0.100665
20
0.159869
11
-0.0993912
21
0.161143
0
LINE
8
BLACK
6
CONTINUOUS
10
-0.0993912
20
0.161143
11
-0.0979992
21
0.16172
0
LINE
8
BLACK
6
CONTINUOUS
10
-0.0979992
20
0.16172
11
-0.0966073
21
0.161143
0
LINE
8
BLACK
6
CONTINUOUS
10
-0.0966073
20
0.161143
11
-0.0960308
21
0.159751
0
LINE
8
BLACK
6
CONTINUOUS
10
-0.0960308
20
0.159751
11
-0.0966073
21
0.158359
0
LINE
8
BLACK
6
CONTINUOUS
10
-0.0966073
20
0.158359
11
-0.0981072
21
0.15686
0
LINE
8
BLACK
6
CONTINUOUS
10
-0.0981072
20
0.15686
11
-0.0984065
21
0.156736
0
LINE
8
BLACK
6
CONTINUOUS
10
-0.0984065
20
0.156736
11
-0.0986187
21
0.156491
0
LINE
8
BLACK
6
CONTINUOUS
10
-0.0986187
20
0.156491
11
-0.101618
21
0.154991
0
LINE
8
BLACK
6
CONTINUOUS
10
-0.101618
20
0.154991
11
-0.102075
21
0.154959
0
LINE
8
BLACK
6
CONTINUOUS
10
-0.102075
20
0.154959
11
-0.102499
21
0.154783
0
LINE
8
BLACK
6
CONTINUOUS
10
-0.102499
20
0.154783
11
-0.111498
21
0.154783
0
LINE
8
BLACK
6
CONTINUOUS
10
-0.111498
20
0.154783
11
-0.111921
21
0.154959
0
LINE
8
BLACK
6
CONTINUOUS
10
-0.111921
20
0.154959
11
-0.112378
21
0.154991
0
LINE
8
BLACK
6
CONTINUOUS
10
-0.112378
20
0.154991
11
-0.115378
21
0.156491
0
LINE
8
BLACK
6
CONTINUOUS
10
-0.115378
20
0.156491
11
-0.11559
21
0.156736
0
LINE
8
BLACK
6
CONTINUOUS
10
-0.11559
20
0.156736
11
-0.115889
21
0.15686
0
LINE
8
BLACK
6
CONTINUOUS
10
-0.115889
20
0.15686
11
-0.117389
21
0.158359
0
LINE
8
BLACK
6
CONTINUOUS
10
-0.117389
20
0.158359
11
-0.117513
21
0.158659
0
LINE
8
BLACK
6
CONTINUOUS
10
-0.117513
20
0.158659
11
-0.117758
21
0.158871
0
LINE
8
BLACK
6
CONTINUOUS
10
-0.117758
20
0.158871
11
-0.119258
21
0.161871
0
LINE
8
BLACK
6
CONTINUOUS
10
-0.119258
20
0.161871
11
-0.11929
21
0.162328
0
LINE
8
BLACK
6
CONTINUOUS
10
-0.11929
20
0.162328
11
-0.119465
21
0.162751
0
LINE
8
BLACK
6
CONTINUOUS
10
-0.119465
20
0.162751
11
-0.119465
21
0.17025
0
LINE
8
BLACK
6
CONTINUOUS
10
-0.119465
20
0.17025
11
-0.11929
21
0.170673
0
LINE
8
BLACK
6
CONTINUOUS
10
-0.11929
20
0.170673
11
-0.119258
21
0.17113
0
LINE
8
BLACK
6
CONTINUOUS
10
-0.119258
20
0.17113
11
-0.117758
21
0.17413
0
LINE
8
BLACK
6
CONTINUOUS
10
-0.117758
20
0.17413
11
-0.117513
21
0.174342
0
LINE
8
BLACK
6
CONTINUOUS
10
-0.117513
20
0.174342
11
-0.117389
21
0.174642
0
LINE
8
BLACK
6
CONTINUOUS
10
-0.117389
20
0.174642
11
-0.115889
21
0.176141
0
LINE
8
BLACK
6
CONTINUOUS
10
-0.115889
20
0.176141
11
-0.11559
21
0.176265
0
LINE
8
BLACK
6
CONTINUOUS
10
-0.11559
20
0.176265
11
-0.115378
21
0.17651
0
LINE
8
BLACK
6
CONTINUOUS
10
-0.115378
20
0.17651
11
-0.112378
21
0.17801
0
LINE
8
BLACK
6
CONTINUOUS
10
-0.112378
20
0.17801
11
-0.111921
21
0.178043
0
LINE
8
BLACK
6
CONTINUOUS
10
-0.111921
20
0.178043
11
-0.111498
21
0.178218
0
LINE
8
BLACK
6
CONTINUOUS
10
-0.111498
20
0.178218
11
-0.111336
21
0.178218
0
LINE
8
BLACK
6
CONTINUOUS
10
-0.111336
20
0.178218
11
-0.118978
21
0.186952
0
LINE
8
BLACK
6
CONTINUOUS
10
-0.118978
20
0.186952
11
-0.1192
21
0.187608
0
LINE
8
BLACK
6
CONTINUOUS
10
-0.1192
20
0.187608
11
-0.119465
21
0.188248
0
LINE
8
BLACK
6
CONTINUOUS
10
-0.119465
20
0.188248
11
-0.119439
21
0.188313
0
LINE
8
BLACK
6
CONTINUOUS
10
-0.119439
20
0.188313
11
-0.119461
21
0.188379
0
LINE
8
BLACK
6
CONTINUOUS
10
-0.119461
20
0.188379
11
-0.119154
21
0.189
0
LINE
8
BLACK
6
CONTINUOUS
10
-0.119154
20
0.189
11
-0.118889
21
0.18964
0
LINE
8
BLACK
6
CONTINUOUS
10
-0.118889
20
0.18964
11
-0.118824
21
0.189667
0
LINE
8
BLACK
6
CONTINUOUS
10
-0.118824
20
0.189667
11
-0.118793
21
0.189729
0
LINE
8
BLACK
6
CONTINUOUS
10
-0.118793
20
0.189729
11
-0.118137
21
0.189951
0
LINE
8
BLACK
6
CONTINUOUS
10
-0.118137
20
0.189951
11
-0.117497
21
0.190216
0
LINE
8
BLACK
6
CONTINUOUS
10
-0.117497
20
0.190216
11
-0.0979993
21
0.190216
0
LINE
8
BLACK
6
CONTINUOUS
10
-0.0979993
20
0.190216
11
-0.0966073
21
0.18964
0
LINE
8
BLACK
6
CONTINUOUS
10
0.204639
20
0.192856
11
0.205216
21
0.191464
0
LINE
8
BLACK
6
CONTINUOUS
10
0.205216
20
0.191464
11
0.205216
21
0.159968
0
LINE
8
BLACK
6
CONTINUOUS
10
0.205216
20
0.159968
11
0.204639
21
0.158576
0
LINE
8
BLACK
6
CONTINUOUS
10
0.204639
20
0.158576
11
0.203247
21
0.158
0
LINE
8
BLACK
6
CONTINUOUS
10
0.203247
20
0.158
11
0.201855
21
0.158576
0
LINE
8
BLACK
6
CONTINUOUS
10
0.201855
20
0.158576
11
0.201279
21
0.159968
0
LINE
8
BLACK
6
CONTINUOUS
10
0.201279
20
0.159968
11
0.201279
21
0.172998
0
LINE
8
BLACK
6
CONTINUOUS
10
0.201279
20
0.172998
11
0.196773
21
0.172998
0
LINE
8
BLACK
6
CONTINUOUS
10
0.196773
20
0.172998
11
0.186862
21
0.158839
0
LINE
8
BLACK
6
CONTINUOUS
10
0.186862
20
0.158839
11
0.185591
21
0.15803
0
LINE
8
BLACK
6
CONTINUOUS
10
0.185591
20
0.15803
11
0.18412
21
0.158356
0
LINE
8
BLACK
6
CONTINUOUS
10
0.18412
20
0.158356
11
0.183311
21
0.159626
0
LINE
8
BLACK
6
CONTINUOUS
10
0.183311
20
0.159626
11
0.183637
21
0.161097
0
LINE
8
BLACK
6
CONTINUOUS
10
0.183637
20
0.161097
11
0.191967
21
0.172998
0
LINE
8
BLACK
6
CONTINUOUS
10
0.191967
20
0.172998
11
0.191249
21
0.172998
0
LINE
8
BLACK
6
CONTINUOUS
10
0.191249
20
0.172998
11
0.190825
21
0.173173
0
LINE
8
BLACK
6
CONTINUOUS
10
0.190825
20
0.173173
11
0.190368
21
0.173206
0
LINE
8
BLACK
6
CONTINUOUS
10
0.190368
20
0.173206
11
0.187369
21
0.174705
0
LINE
8
BLACK
6
CONTINUOUS
10
0.187369
20
0.174705
11
0.187156
21
0.17495
0
LINE
8
BLACK
6
CONTINUOUS
10
0.187156
20
0.17495
11
0.186857
21
0.175074
0
LINE
8
BLACK
6
CONTINUOUS
10
0.186857
20
0.175074
11
0.185357
21
0.176574
0
LINE
8
BLACK
6
CONTINUOUS
10
0.185357
20
0.176574
11
0.185233
21
0.176873
0
LINE
8
BLACK
6
CONTINUOUS
10
0.185233
20
0.176873
11
0.184988
21
0.177086
0
LINE
8
BLACK
6
CONTINUOUS
10
0.184988
20
0.177086
11
0.183489
21
0.180085
0
LINE
8
BLACK
6
CONTINUOUS
10
0.183489
20
0.180085
11
0.183456
21
0.180542
0
LINE
8
BLACK
6
CONTINUOUS
10
0.183456
20
0.180542
11
0.183281
21
0.180966
0
LINE
8
BLACK
6
CONTINUOUS
10
0.183281
20
0.180966
11
0.183281
21
0.185465
0
LINE
8
BLACK
6
CONTINUOUS
10
0.183281
20
0.185465
11
0.183456
21
0.185888
0
LINE
8
BLACK
6
CONTINUOUS
10
0.183456
20
0.185888
11
0.183489
21
0.186345
0
LINE
8
BLACK
6
CONTINUOUS
10
0.183489
20
0.186345
11
0.184988
21
0.189345
0
LINE
8
BLACK
6
CONTINUOUS
10
0.184988
20
0.189345
11
0.185233
21
0.189557
0
LINE
8
BLACK
6
CONTINUOUS
10
0.185233
20
0.189557
11
0.185357
21
0.189857
0
LINE
8
BLACK
6
CONTINUOUS
10
0.185357
20
0.189857
11
0.186857
21
0.191356
0
LINE
8
BLACK
6
CONTINUOUS
10
0.186857
20
0.191356
11
0.187156
21
0.19148
0
LINE
8
BLACK
6
CONTINUOUS
10
0.187156
20
0.19148
11
0.187369
21
0.191725
0
LINE
8
BLACK
6
CONTINUOUS
10
0.187369
20
0.191725
11
0.190368
21
0.193225
0
LINE
8
BLACK
6
CONTINUOUS
10
0.190368
20
0.193225
11
0.190825
21
0.193257
0
LINE
8
BLACK
6
CONTINUOUS
10
0.190825
20
0.193257
11
0.191249
21
0.193433
0
LINE
8
BLACK
6
CONTINUOUS
10
0.191249
20
0.193433
11
0.203247
21
0.193433
0
LINE
8
BLACK
6
CONTINUOUS
10
0.203247
20
0.193433
11
0.204639
21
0.192856
0
LINE
8
BLACK
6
CONTINUOUS
10
0.191713
20
0.189496
11
0.189415
21
0.188347
0
LINE
8
BLACK
6
CONTINUOUS
10
0.189415
20
0.188347
11
0.188367
21
0.187299
0
LINE
8
BLACK
6
CONTINUOUS
10
0.188367
20
0.187299
11
0.187218
21
0.185
0
LINE
8
BLACK
6
CONTINUOUS
10
0.187218
20
0.185
11
0.187218
21
0.18143
0
LINE
8
BLACK
6
CONTINUOUS
10
0.187218
20
0.18143
11
0.188367
21
0.179132
0
LINE
8
BLACK
6
CONTINUOUS
10
0.188367
20
0.179132
11
0.189415
21
0.178084
0
LINE
8
BLACK
6
CONTINUOUS
10
0.189415
20
0.178084
11
0.191713
21
0.176935
0
LINE
8
BLACK
6
CONTINUOUS
10
0.191713
20
0.176935
11
0.201279
21
0.176935
0
LINE
8
BLACK
6
CONTINUOUS
10
0.201279
20
0.176935
11
0.201279
21
0.189496
0
LINE
8
BLACK
6
CONTINUOUS
10
0.201279
20
0.189496
11
0.191713
21
0.189496
0
LINE
8
BLACK
6
CONTINUOUS
10
0.153861
20
0.158576
11
0.153285
21
0.159968
0
LINE
8
BLACK
6
CONTINUOUS
10
0.153285
20
0.159968
11
0.153861
21
0.16136
0
LINE
8
BLACK
6
CONTINUOUS
10
0.153861
20
0.16136
11
0.155253
21
0.161937
0
LINE
8
BLACK
6
CONTINUOUS
10
0.155253
20
0.161937
11
0.169998
21
0.161937
0
LINE
8
BLACK
6
CONTINUOUS
10
0.169998
20
0.161937
11
0.155361
21
0.176574
0
LINE
8
BLACK
6
CONTINUOUS
10
0.155361
20
0.176574
11
0.155186
21
0.176997
0
LINE
8
BLACK
6
CONTINUOUS
10
0.155186
20
0.176997
11
0.154885
21
0.177343
0
LINE
8
BLACK
6
CONTINUOUS
10
0.154885
20
0.177343
11
0.153386
21
0.181843
0
LINE
8
BLACK
6
CONTINUOUS
10
0.153386
20
0.181843
11
0.153409
21
0.182166
0
LINE
8
BLACK
6
CONTINUOUS
10
0.153409
20
0.182166
11
0.153285
21
0.182465
0
LINE
8
BLACK
6
CONTINUOUS
10
0.153285
20
0.182465
11
0.153285
21
0.185465
0
LINE
8
BLACK
6
CONTINUOUS
10
0.153285
20
0.185465
11
0.15346
21
0.185888
0
LINE
8
BLACK
6
CONTINUOUS
10
0.15346
20
0.185888
11
0.153492
21
0.186345
0
LINE
8
BLACK
6
CONTINUOUS
10
0.153492
20
0.186345
11
0.154992
21
0.189345
0
LINE
8
BLACK
6
CONTINUOUS
10
0.154992
20
0.189345
11
0.155237
21
0.189557
0
LINE
8
BLACK
6
CONTINUOUS
10
0.155237
20
0.189557
11
0.155361
21
0.189857
0
LINE
8
BLACK
6
CONTINUOUS
10
0.155361
20
0.189857
11
0.156861
21
0.191356
0
LINE
8
BLACK
6
CONTINUOUS
10
0.156861
20
0.191356
11
0.15716
21
0.19148
0
LINE
8
BLACK
6
CONTINUOUS
10
0.15716
20
0.19148
11
0.157372
21
0.191725
0
LINE
8
BLACK
6
CONTINUOUS
10
0.157372
20
0.191725
11
0.160372
21
0.193225
0
LINE
8
BLACK
6
CONTINUOUS
10
0.160372
20
0.193225
11
0.160829
21
0.193257
0
LINE
8
BLACK
6
CONTINUOUS
10
0.160829
20
0.193257
11
0.161252
21
0.193433
0
LINE
8
BLACK
6
CONTINUOUS
10
0.161252
20
0.193433
11
0.168751
21
0.193433
0
LINE
8
BLACK
6
CONTINUOUS
10
0.168751
20
0.193433
11
0.169175
21
0.193257
0
LINE
8
BLACK
6
CONTINUOUS
10
0.169175
20
0.193257
11
0.169632
21
0.193225
0
LINE
8
BLACK
6
CONTINUOUS
10
0.169632
20
0.193225
11
0.172631
21
0.191725
0
LINE
8
BLACK
6
CONTINUOUS
10
0.172631
20
0.191725
11
0.172844
21
0.19148
0
LINE
8
BLACK
6
CONTINUOUS
10
0.172844
20
0.19148
11
0.173143
21
0.191356
0
LINE
8
BLACK
6
CONTINUOUS
10
0.173143
20
0.191356
11
0.174643
21
0.189857
0
LINE
8
BLACK
6
CONTINUOUS
10
0.174643
20
0.189857
11
0.175219
21
0.188465
0
LINE
8
BLACK
6
CONTINUOUS
10
0.175219
20
0.188465
11
0.174643
21
0.187073
0
LINE
8
BLACK
6
CONTINUOUS
10
0.174643
20
0.187073
11
0.173251
21
0.186496
0
LINE
8
BLACK
6
CONTINUOUS
10
0.173251
20
0.186496
11
0.171859
21
0.187073
0
LINE
8
BLACK
6
CONTINUOUS
10
0.171859
20
0.187073
11
0.170585
21
0.188347
0
LINE
8
BLACK
6
CONTINUOUS
10
0.170585
20
0.188347
11
0.168287
21
0.189496
0
LINE
8
BLACK
6
CONTINUOUS
10
0.168287
20
0.189496
11
0.161717
21
0.189496
0
LINE
8
BLACK
6
CONTINUOUS
10
0.161717
20
0.189496
11
0.159419
21
0.188347
0
LINE
8
BLACK
6
CONTINUOUS
10
0.159419
20
0.188347
11
0.158371
21
0.187299
0
LINE
8
BLACK
6
CONTINUOUS
10
0.158371
20
0.187299
11
0.157222
21
0.185
0
LINE
8
BLACK
6
CONTINUOUS
10
0.157222
20
0.185
11
0.157222
21
0.182785
0
LINE
8
BLACK
6
CONTINUOUS
10
0.157222
20
0.182785
11
0.158473
21
0.179029
0
LINE
8
BLACK
6
CONTINUOUS
10
0.158473
20
0.179029
11
0.176143
21
0.16136
0
LINE
8
BLACK
6
CONTINUOUS
10
0.176143
20
0.16136
11
0.176719
21
0.159968
0
LINE
8
BLACK
6
CONTINUOUS
10
0.176719
20
0.159968
11
0.176143
21
0.158576
0
LINE
8
BLACK
6
CONTINUOUS
10
0.176143
20
0.158576
11
0.174751
21
0.158
0
LINE
8
BLACK
6
CONTINUOUS
10
0.174751
20
0.158
11
0.155253
21
0.158
0
LINE
8
BLACK
6
CONTINUOUS
10
0.155253
20
0.158
11
0.153861
21
0.158576
0
LINE
8
BLACK
6
CONTINUOUS
10
0.32457
20
0.158576
11
0.323993
21
0.159968
0
LINE
8
BLACK
6
CONTINUOUS
10
0.323993
20
0.159968
11
0.32457
21
0.16136
0
LINE
8
BLACK
6
CONTINUOUS
10
0.32457
20
0.16136
11
0.325962
21
0.161937
0
LINE
8
BLACK
6
CONTINUOUS
10
0.325962
20
0.161937
11
0.332992
21
0.161937
0
LINE
8
BLACK
6
CONTINUOUS
10
0.332992
20
0.161937
11
0.332992
21
0.191464
0
LINE
8
BLACK
6
CONTINUOUS
10
0.332992
20
0.191464
11
0.33307
21
0.191651
0
LINE
8
BLACK
6
CONTINUOUS
10
0.33307
20
0.191651
11
0.33303
21
0.19185
0
LINE
8
BLACK
6
CONTINUOUS
10
0.33303
20
0.19185
11
0.333349
21
0.192327
0
LINE
8
BLACK
6
CONTINUOUS
10
0.333349
20
0.192327
11
0.333569
21
0.192856
0
LINE
8
BLACK
6
CONTINUOUS
10
0.333569
20
0.192856
11
0.333756
21
0.192934
0
LINE
8
BLACK
6
CONTINUOUS
10
0.333756
20
0.192934
11
0.333869
21
0.193102
0
LINE
8
BLACK
6
CONTINUOUS
10
0.333869
20
0.193102
11
0.334431
21
0.193213
0
LINE
8
BLACK
6
CONTINUOUS
10
0.334431
20
0.193213
11
0.334961
21
0.193433
0
LINE
8
BLACK
6
CONTINUOUS
10
0.334961
20
0.193433
11
0.335148
21
0.193355
0
LINE
8
BLACK
6
CONTINUOUS
10
0.335148
20
0.193355
11
0.335347
21
0.193395
0
LINE
8
BLACK
6
CONTINUOUS
10
0.335347
20
0.193395
11
0.335823
21
0.193076
0
LINE
8
BLACK
6
CONTINUOUS
10
0.335823
20
0.193076
11
0.336353
21
0.192856
0
LINE
8
BLACK
6
CONTINUOUS
10
0.336353
20
0.192856
11
0.33643
21
0.192669
0
LINE
8
BLACK
6
CONTINUOUS
10
0.33643
20
0.192669
11
0.336599
21
0.192556
0
LINE
8
BLACK
6
CONTINUOUS
10
0.336599
20
0.192556
11
0.33949
21
0.188219
0
LINE
8
BLACK
6
CONTINUOUS
10
0.33949
20
0.188219
11
0.342126
21
0.185583
0
LINE
8
BLACK
6
CONTINUOUS
10
0.342126
20
0.185583
11
0.34484
21
0.184226
0
LINE
8
BLACK
6
CONTINUOUS
10
0.34484
20
0.184226
11
0.345827
21
0.183088
0
LINE
8
BLACK
6
CONTINUOUS
10
0.345827
20
0.183088
11
0.34572
21
0.181585
0
LINE
8
BLACK
6
CONTINUOUS
10
0.34572
20
0.181585
11
0.344582
21
0.180598
0
LINE
8
BLACK
6
CONTINUOUS
10
0.344582
20
0.180598
11
0.343079
21
0.180705
0
LINE
8
BLACK
6
CONTINUOUS
10
0.343079
20
0.180705
11
0.340079
21
0.182205
0
LINE
8
BLACK
6
CONTINUOUS
10
0.340079
20
0.182205
11
0.339867
21
0.182449
0
LINE
8
BLACK
6
CONTINUOUS
10
0.339867
20
0.182449
11
0.339568
21
0.182573
0
LINE
8
BLACK
6
CONTINUOUS
10
0.339568
20
0.182573
11
0.336929
21
0.185212
0
LINE
8
BLACK
6
CONTINUOUS
10
0.336929
20
0.185212
11
0.336929
21
0.161937
0
LINE
8
BLACK
6
CONTINUOUS
10
0.336929
20
0.161937
11
0.343959
21
0.161937
0
LINE
8
BLACK
6
CONTINUOUS
10
0.343959
20
0.161937
11
0.345351
21
0.16136
0
LINE
8
BLACK
6
CONTINUOUS
10
0.345351
20
0.16136
11
0.345928
21
0.159968
0
LINE
8
BLACK
6
CONTINUOUS
10
0.345928
20
0.159968
11
0.345351
21
0.158576
0
LINE
8
BLACK
6
CONTINUOUS
10
0.345351
20
0.158576
11
0.343959
21
0.158
0
LINE
8
BLACK
6
CONTINUOUS
10
0.343959
20
0.158
11
0.325962
21
0.158
0
LINE
8
BLACK
6
CONTINUOUS
10
0.325962
20
0.158
11
0.32457
21
0.158576
0
LINE
8
BLACK
6
CONTINUOUS
10
0.375348
20
0.192856
11
0.375924
21
0.191464
0
LINE
8
BLACK
6
CONTINUOUS
10
0.375924
20
0.191464
11
0.375924
21
0.159968
0
LINE
8
BLACK
6
CONTINUOUS
10
0.375924
20
0.159968
11
0.375348
21
0.158576
0
LINE
8
BLACK
6
CONTINUOUS
10
0.375348
20
0.158576
11
0.373956
21
0.158
0
LINE
8
BLACK
6
CONTINUOUS
10
0.373956
20
0.158
11
0.372564
21
0.158576
0
LINE
8
BLACK
6
CONTINUOUS
10
0.372564
20
0.158576
11
0.371987
21
0.159968
0
LINE
8
BLACK
6
CONTINUOUS
10
0.371987
20
0.159968
11
0.371987
21
0.172998
0
LINE
8
BLACK
6
CONTINUOUS
10
0.371987
20
0.172998
11
0.367482
21
0.172998
0
LINE
8
BLACK
6
CONTINUOUS
10
0.367482
20
0.172998
11
0.357571
21
0.158839
0
LINE
8
BLACK
6
CONTINUOUS
10
0.357571
20
0.158839
11
0.3563
21
0.15803
0
LINE
8
BLACK
6
CONTINUOUS
10
0.3563
20
0.15803
11
0.354829
21
0.158356
0
LINE
8
BLACK
6
CONTINUOUS
10
0.354829
20
0.158356
11
0.354019
21
0.159626
0
LINE
8
BLACK
6
CONTINUOUS
10
0.354019
20
0.159626
11
0.354345
21
0.161097
0
LINE
8
BLACK
6
CONTINUOUS
10
0.354345
20
0.161097
11
0.362676
21
0.172998
0
LINE
8
BLACK
6
CONTINUOUS
10
0.362676
20
0.172998
11
0.361957
21
0.172998
0
LINE
8
BLACK
6
CONTINUOUS
10
0.361957
20
0.172998
11
0.361534
21
0.173173
0
LINE
8
BLACK
6
CONTINUOUS
10
0.361534
20
0.173173
11
0.361077
21
0.173206
0
LINE
8
BLACK
6
CONTINUOUS
10
0.361077
20
0.173206
11
0.358077
21
0.174705
0
LINE
8
BLACK
6
CONTINUOUS
10
0.358077
20
0.174705
11
0.357865
21
0.17495
0
LINE
8
BLACK
6
CONTINUOUS
10
0.357865
20
0.17495
11
0.357566
21
0.175074
0
LINE
8
BLACK
6
CONTINUOUS
10
0.357566
20
0.175074
11
0.356066
21
0.176574
0
LINE
8
BLACK
6
CONTINUOUS
10
0.356066
20
0.176574
11
0.355942
21
0.176873
0
LINE
8
BLACK
6
CONTINUOUS
10
0.355942
20
0.176873
11
0.355697
21
0.177086
0
LINE
8
BLACK
6
CONTINUOUS
10
0.355697
20
0.177086
11
0.354197
21
0.180085
0
LINE
8
BLACK
6
CONTINUOUS
10
0.354197
20
0.180085
11
0.354165
21
0.180542
0
LINE
8
BLACK
6
CONTINUOUS
10
0.354165
20
0.180542
11
0.353989
21
0.180966
0
LINE
8
BLACK
6
CONTINUOUS
10
0.353989
20
0.180966
11
0.353989
21
0.185465
0
LINE
8
BLACK
6
CONTINUOUS
10
0.353989
20
0.185465
11
0.354165
21
0.185888
0
LINE
8
BLACK
6
CONTINUOUS
10
0.354165
20
0.185888
11
0.354197
21
0.186345
0
LINE
8
BLACK
6
CONTINUOUS
10
0.354197
20
0.186345
11
0.355697
21
0.189345
0
LINE
8
BLACK
6
CONTINUOUS
10
0.355697
20
0.189345
11
0.355942
21
0.189557
0
LINE
8
BLACK
6
CONTINUOUS
10
0.355942
20
0.189557
11
0.356066
21
0.189857
0
LINE
8
BLACK
6
CONTINUOUS
10
0.356066
20
0.189857
11
0.357566
21
0.191356
0
LINE
8
BLACK
6
CONTINUOUS
10
0.357566
20
0.191356
11
0.357865
21
0.19148
0
LINE
8
BLACK
6
CONTINUOUS
10
0.357865
20
0.19148
11
0.358077
21
0.191725
0
LINE
8
BLACK
6
CONTINUOUS
10
0.358077
20
0.191725
11
0.361077
21
0.193225
0
LINE
8
BLACK
6
CONTINUOUS
10
0.361077
20
0.193225
11
0.361534
21
0.193257
0
LINE
8
BLACK
6
CONTINUOUS
10
0.361534
20
0.193257
11
0.361957
21
0.193433
0
LINE
8
BLACK
6
CONTINUOUS
10
0.361957
20
0.193433
11
0.373956
21
0.193433
0
LINE
8
BLACK
6
CONTINUOUS
10
0.373956
20
0.193433
11
0.375348
21
0.192856
0
LINE
8
BLACK
6
CONTINUOUS
10
0.362422
20
0.189496
11
0.360124
21
0.188347
0
LINE
8
BLACK
6
CONTINUOUS
10
0.360124
20
0.188347
11
0.359076
21
0.187299
0
LINE
8
BLACK
6
CONTINUOUS
10
0.359076
20
0.187299
11
0.357926
21
0.185
0
LINE
8
BLACK
6
CONTINUOUS
10
0.357926
20
0.185
11
0.357926
21
0.18143
0
LINE
8
BLACK
6
CONTINUOUS
10
0.357926
20
0.18143
11
0.359076
21
0.179132
0
LINE
8
BLACK
6
CONTINUOUS
10
0.359076
20
0.179132
11
0.360124
21
0.178084
0
LINE
8
BLACK
6
CONTINUOUS
10
0.360124
20
0.178084
11
0.362422
21
0.176935
0
LINE
8
BLACK
6
CONTINUOUS
10
0.362422
20
0.176935
11
0.371987
21
0.176935
0
LINE
8
BLACK
6
CONTINUOUS
10
0.371987
20
0.176935
11
0.371987
21
0.189496
0
LINE
8
BLACK
6
CONTINUOUS
10
0.371987
20
0.189496
11
0.362422
21
0.189496
0
LINE
8
BLACK
6
CONTINUOUS
10
0.0594382
20
0.170461
11
0.0538252
21
0.172163
0
LINE
8
BLACK
6
CONTINUOUS
10
0.0538252
20
0.172163
11
0.0486522
21
0.174928
0
LINE
8
BLACK
6
CONTINUOUS
10
0.0486522
20
0.174928
11
0.0441181
21
0.178649
0
LINE
8
BLACK
6
CONTINUOUS
10
0.0441181
20
0.178649
11
0.040397
21
0.183184
0
LINE
8
BLACK
6
CONTINUOUS
10
0.040397
20
0.183184
11
0.037632
21
0.188357
0
LINE
8
BLACK
6
CONTINUOUS
10
0.037632
20
0.188357
11
0.0359293
21
0.19397
0
LINE
8
BLACK
6
CONTINUOUS
10
0.0359293
20
0.19397
11
0.0356087
21
0.197224
0
LINE
8
BLACK
6
CONTINUOUS
10
0.0356087
20
0.197224
11
0.0353543
21
0.197838
0
LINE
8
BLACK
6
CONTINUOUS
10
0.0353543
20
0.197838
11
0.0353543
21
0.308075
0
LINE
8
BLACK
6
CONTINUOUS
10
0.0353543
20
0.308075
11
0.0356087
21
0.308689
0
LINE
8
BLACK
6
CONTINUOUS
10
0.0356087
20
0.308689
11
0.0359293
21
0.311944
0
LINE
8
BLACK
6
CONTINUOUS
10
0.0359293
20
0.311944
11
0.037632
21
0.317556
0
LINE
8
BLACK
6
CONTINUOUS
10
0.037632
20
0.317556
11
0.040397
21
0.322729
0
LINE
8
BLACK
6
CONTINUOUS
10
0.040397
20
0.322729
11
0.0441181
21
0.327264
0
LINE
8
BLACK
6
CONTINUOUS
10
0.0441181
20
0.327264
11
0.0486522
21
0.330985
0
LINE
8
BLACK
6
CONTINUOUS
10
0.0486522
20
0.330985
11
0.0538252
21
0.33375
0
LINE
8
BLACK
6
CONTINUOUS
10
0.0538252
20
0.33375
11
0.0594382
21
0.335452
0
LINE
8
BLACK
6
CONTINUOUS
10
0.0594382
20
0.335452
11
0.0652756
21
0.336027
0
LINE
8
BLACK
6
CONTINUOUS
10
0.0652756
20
0.336027
11
0.0888976
21
0.336027
0
LINE
8
BLACK
6
CONTINUOUS
10
0.0888976
20
0.336027
11
0.094735
21
0.335452
0
LINE
8
BLACK
6
CONTINUOUS
10
0.094735
20
0.335452
11
0.100348
21
0.33375
0
LINE
8
BLACK
6
CONTINUOUS
10
0.100348
20
0.33375
11
0.105521
21
0.330985
0
LINE
8
BLACK
6
CONTINUOUS
10
0.105521
20
0.330985
11
0.110055
21
0.327264
0
LINE
8
BLACK
6
CONTINUOUS
10
0.110055
20
0.327264
11
0.113776
21
0.322729
0
LINE
8
BLACK
6
CONTINUOUS
10
0.113776
20
0.322729
11
0.116541
21
0.317556
0
LINE
8
BLACK
6
CONTINUOUS
10
0.116541
20
0.317556
11
0.118244
21
0.311944
0
LINE
8
BLACK
6
CONTINUOUS
10
0.118244
20
0.311944
11
0.118565
21
0.308689
0
LINE
8
BLACK
6
CONTINUOUS
10
0.118565
20
0.308689
11
0.118819
21
0.308075
0
LINE
8
BLACK
6
CONTINUOUS
10
0.118819
20
0.308075
11
0.118819
21
0.197838
0
LINE
8
BLACK
6
CONTINUOUS
10
0.118819
20
0.197838
11
0.118565
21
0.197224
0
LINE
8
BLACK
6
CONTINUOUS
10
0.118565
20
0.197224
11
0.118244
21
0.19397
0
LINE
8
BLACK
6
CONTINUOUS
10
0.118244
20
0.19397
11
0.116541
21
0.188357
0
LINE
8
BLACK
6
CONTINUOUS
10
0.116541
20
0.188357
11
0.113776
21
0.183184
0
LINE
8
BLACK
6
CONTINUOUS
10
0.113776
20
0.183184
11
0.110055
21
0.178649
0
LINE
8
BLACK
6
CONTINUOUS
10
0.110055
20
0.178649
11
0.105521
21
0.174928
0
LINE
8
BLACK
6
CONTINUOUS
10
0.105521
20
0.174928
11
0.100348
21
0.172163
0
LINE
8
BLACK
6
CONTINUOUS
10
0.100348
20
0.172163
11
0.094735
21
0.170461
0
LINE
8
BLACK
6
CONTINUOUS
10
0.094735
20
0.170461
11
0.0888976
21
0.169886
0
LINE
8
BLACK
6
CONTINUOUS
10
0.0888976
20
0.169886
11
0.0652756
21
0.169886
0
LINE
8
BLACK
6
CONTINUOUS
10
0.0652756
20
0.169886
11
0.0594382
21
0.170461
0
LINE
8
BLACK
6
CONTINUOUS
10
0.064973
20
0.331428
11
0.0596333
21
0.330827
0
LINE
8
BLACK
6
CONTINUOUS
10
0.0596333
20
0.330827
11
0.0542739
21
0.328951
0
LINE
8
BLACK
6
CONTINUOUS
10
0.0542739
20
0.328951
11
0.0494662
21
0.325931
0
LINE
8
BLACK
6
CONTINUOUS
10
0.0494662
20
0.325931
11
0.0454512
21
0.321916
0
LINE
8
BLACK
6
CONTINUOUS
10
0.0454512
20
0.321916
11
0.0424304
21
0.317108
0
LINE
8
BLACK
6
CONTINUOUS
10
0.0424304
20
0.317108
11
0.040555
21
0.311748
0
LINE
8
BLACK
6
CONTINUOUS
10
0.040555
20
0.311748
11
0.0400787
21
0.307521
0
LINE
8
BLACK
6
CONTINUOUS
10
0.0400787
20
0.307521
11
0.0400787
21
0.198392
0
LINE
8
BLACK
6
CONTINUOUS
10
0.0400787
20
0.198392
11
0.040555
21
0.194165
0
LINE
8
BLACK
6
CONTINUOUS
10
0.040555
20
0.194165
11
0.0424304
21
0.188805
0
LINE
8
BLACK
6
CONTINUOUS
10
0.0424304
20
0.188805
11
0.0454512
21
0.183998
0
LINE
8
BLACK
6
CONTINUOUS
10
0.0454512
20
0.183998
11
0.0494662
21
0.179983
0
LINE
8
BLACK
6
CONTINUOUS
10
0.0494662
20
0.179983
11
0.0542739
21
0.176962
0
LINE
8
BLACK
6
CONTINUOUS
10
0.0542739
20
0.176962
11
0.0596333
21
0.175086
0
LINE
8
BLACK
6
CONTINUOUS
10
0.0596333
20
0.175086
11
0.064973
21
0.174485
0
LINE
8
BLACK
6
CONTINUOUS
10
0.064973
20
0.174485
11
0.0652756
21
0.17461
0
LINE
8
BLACK
6
CONTINUOUS
10
0.0652756
20
0.17461
11
0.0888976
21
0.17461
0
LINE
8
BLACK
6
CONTINUOUS
10
0.0888976
20
0.17461
11
0.0892002
21
0.174485
0
LINE
8
BLACK
6
CONTINUOUS
10
0.0892002
20
0.174485
11
0.09454
21
0.175086
0
LINE
8
BLACK
6
CONTINUOUS
10
0.09454
20
0.175086
11
0.0998993
21
0.176962
0
LINE
8
BLACK
6
CONTINUOUS
10
0.0998993
20
0.176962
11
0.104707
21
0.179983
0
LINE
8
BLACK
6
CONTINUOUS
10
0.104707
20
0.179983
11
0.108722
21
0.183998
0
LINE
8
BLACK
6
CONTINUOUS
10
0.108722
20
0.183998
11
0.111743
21
0.188805
0
LINE
8
BLACK
6
CONTINUOUS
10
0.111743
20
0.188805
11
0.113618
21
0.194165
0
LINE
8
BLACK
6
CONTINUOUS
10
0.113618
20
0.194165
11
0.114094
21
0.198392
0
LINE
8
BLACK
6
CONTINUOUS
10
0.114094
20
0.198392
11
0.114094
21
0.307521
0
LINE
8
BLACK
6
CONTINUOUS
10
0.114094
20
0.307521
11
0.113618
21
0.311748
0
LINE
8
BLACK
6
CONTINUOUS
10
0.113618
20
0.311748
11
0.111743
21
0.317108
0
LINE
8
BLACK
6
CONTINUOUS
10
0.111743
20
0.317108
11
0.108722
21
0.321916
0
LINE
8
BLACK
6
CONTINUOUS
10
0.108722
20
0.321916
11
0.104707
21
0.325931
0
LINE
8
BLACK
6
CONTINUOUS
10
0.104707
20
0.325931
11
0.0998993
21
0.328951
0
LINE
8
BLACK
6
CONTINUOUS
10
0.0998993
20
0.328951
11
0.09454
21
0.330827
0
LINE
8
BLACK
6
CONTINUOUS
10
0.09454
20
0.330827
11
0.0892002
21
0.331428
0
LINE
8
BLACK
6
CONTINUOUS
10
0.0892002
20
0.331428
11
0.0888976
21
0.331303
0
LINE
8
BLACK
6
CONTINUOUS
10
0.0888976
20
0.331303
11
0.0652756
21
0.331303
0
LINE
8
BLACK
6
CONTINUOUS
10
0.0652756
20
0.331303
11
0.064973
21
0.331428
0
LINE
8
BLACK
6
CONTINUOUS
10
-0.211985
20
0.199711
11
-0.212677
21
0.201382
0
LINE
8
BLACK
6
CONTINUOUS
10
-0.212677
20
0.201382
11
-0.211985
21
0.203052
0
LINE
8
BLACK
6
CONTINUOUS
10
-0.211985
20
0.203052
11
-0.210315
21
0.203744
0
LINE
8
BLACK
6
CONTINUOUS
10
-0.210315
20
0.203744
11
-0.107953
21
0.203744
0
LINE
8
BLACK
6
CONTINUOUS
10
-0.107953
20
0.203744
11
-0.106282
21
0.203052
0
LINE
8
BLACK
6
CONTINUOUS
10
-0.106282
20
0.203052
11
-0.105591
21
0.201382
0
LINE
8
BLACK
6
CONTINUOUS
10
-0.105591
20
0.201382
11
-0.106282
21
0.199711
0
LINE
8
BLACK
6
CONTINUOUS
10
-0.106282
20
0.199711
11
-0.107953
21
0.19902
0
LINE
8
BLACK
6
CONTINUOUS
10
-0.107953
20
0.19902
11
-0.210315
21
0.19902
0
LINE
8
BLACK
6
CONTINUOUS
10
-0.210315
20
0.19902
11
-0.211985
21
0.199711
0
LINE
8
BLACK
6
CONTINUOUS
10
0.241592
20
0.257205
11
0.242283
21
0.255535
0
LINE
8
BLACK
6
CONTINUOUS
10
0.242283
20
0.255535
11
0.242283
21
0.244465
0
LINE
8
BLACK
6
CONTINUOUS
10
0.242283
20
0.244465
11
0.241592
21
0.242795
0
LINE
8
BLACK
6
CONTINUOUS
10
0.241592
20
0.242795
11
0.239921
21
0.242103
0
LINE
8
BLACK
6
CONTINUOUS
10
0.239921
20
0.242103
11
0.238251
21
0.242795
0
LINE
8
BLACK
6
CONTINUOUS
10
0.238251
20
0.242795
11
0.237559
21
0.244465
0
LINE
8
BLACK
6
CONTINUOUS
10
0.237559
20
0.244465
11
0.237559
21
0.255535
0
LINE
8
BLACK
6
CONTINUOUS
10
0.237559
20
0.255535
11
0.238251
21
0.257205
0
LINE
8
BLACK
6
CONTINUOUS
10
0.238251
20
0.257205
11
0.239921
21
0.257897
0
LINE
8
BLACK
6
CONTINUOUS
10
0.239921
20
0.257897
11
0.241592
21
0.257205
0
LINE
8
BLACK
6
CONTINUOUS
10
0.281749
20
0.257205
11
0.282441
21
0.255535
0
LINE
8
BLACK
6
CONTINUOUS
10
0.282441
20
0.255535
11
0.282441
21
0.244465
0
LINE
8
BLACK
6
CONTINUOUS
10
0.282441
20
0.244465
11
0.281749
21
0.242795
0
LINE
8
BLACK
6
CONTINUOUS
10
0.281749
20
0.242795
11
0.280079
21
0.242103
0
LINE
8
BLACK
6
CONTINUOUS
10
0.280079
20
0.242103
11
0.278408
21
0.242795
0
LINE
8
BLACK
6
CONTINUOUS
10
0.278408
20
0.242795
11
0.277717
21
0.244465
0
LINE
8
BLACK
6
CONTINUOUS
10
0.277717
20
0.244465
11
0.277717
21
0.255535
0
LINE
8
BLACK
6
CONTINUOUS
10
0.277717
20
0.255535
11
0.278408
21
0.257205
0
LINE
8
BLACK
6
CONTINUOUS
10
0.278408
20
0.257205
11
0.280079
21
0.257897
0
LINE
8
BLACK
6
CONTINUOUS
10
0.280079
20
0.257897
11
0.281749
21
0.257205
0
LINE
8
BLACK
6
CONTINUOUS
10
0.385253
20
0.267503
11
0.385945
21
0.265833
0
LINE
8
BLACK
6
CONTINUOUS
10
0.385945
20
0.265833
11
0.385945
21
0.247954
0
LINE
8
BLACK
6
CONTINUOUS
10
0.385945
20
0.247954
11
0.385253
21
0.246284
0
LINE
8
BLACK
6
CONTINUOUS
10
0.385253
20
0.246284
11
0.383583
21
0.245592
0
LINE
8
BLACK
6
CONTINUOUS
10
0.383583
20
0.245592
11
0.381912
21
0.246284
0
LINE
8
BLACK
6
CONTINUOUS
10
0.381912
20
0.246284
11
0.38122
21
0.247954
0
LINE
8
BLACK
6
CONTINUOUS
10
0.38122
20
0.247954
11
0.38122
21
0.265833
0
LINE
8
BLACK
6
CONTINUOUS
10
0.38122
20
0.265833
11
0.381912
21
0.267503
0
LINE
8
BLACK
6
CONTINUOUS
10
0.381912
20
0.267503
11
0.383583
21
0.268195
0
LINE
8
BLACK
6
CONTINUOUS
10
0.383583
20
0.268195
11
0.385253
21
0.267503
0
LINE
8
BLACK
6
CONTINUOUS
10
0.327379
20
0.267503
11
0.328071
21
0.265833
0
LINE
8
BLACK
6
CONTINUOUS
10
0.328071
20
0.265833
11
0.328071
21
0.247954
0
LINE
8
BLACK
6
CONTINUOUS
10
0.328071
20
0.247954
11
0.327379
21
0.246284
0
LINE
8
BLACK
6
CONTINUOUS
10
0.327379
20
0.246284
11
0.325709
21
0.245592
0
LINE
8
BLACK
6
CONTINUOUS
10
0.325709
20
0.245592
11
0.324038
21
0.246284
0
LINE
8
BLACK
6
CONTINUOUS
10
0.324038
20
0.246284
11
0.323346
21
0.247954
0
LINE
8
BLACK
6
CONTINUOUS
10
0.323346
20
0.247954
11
0.323346
21
0.265833
0
LINE
8
BLACK
6
CONTINUOUS
10
0.323346
20
0.265833
11
0.324038
21
0.267503
0
LINE
8
BLACK
6
CONTINUOUS
10
0.324038
20
0.267503
11
0.325709
21
0.268195
0
LINE
8
BLACK
6
CONTINUOUS
10
0.325709
20
0.268195
11
0.327379
21
0.267503
0
LINE
8
BLACK
6
CONTINUOUS
10
0.210607
20
0.267503
11
0.211299
21
0.265833
0
LINE
8
BLACK
6
CONTINUOUS
10
0.211299
20
0.265833
11
0.211299
21
0.247954
0
LINE
8
BLACK
6
CONTINUOUS
10
0.211299
20
0.247954
11
0.210607
21
0.246284
0
LINE
8
BLACK
6
CONTINUOUS
10
0.210607
20
0.246284
11
0.208937
21
0.245592
0
LINE
8
BLACK
6
CONTINUOUS
10
0.208937
20
0.245592
11
0.207267
21
0.246284
0
LINE
8
BLACK
6
CONTINUOUS
10
0.207267
20
0.246284
11
0.206575
21
0.247954
0
LINE
8
BLACK
6
CONTINUOUS
10
0.206575
20
0.247954
11
0.206575
21
0.265833
0
LINE
8
BLACK
6
CONTINUOUS
10
0.206575
20
0.265833
11
0.207267
21
0.267503
0
LINE
8
BLACK
6
CONTINUOUS
10
0.207267
20
0.267503
11
0.208937
21
0.268195
0
LINE
8
BLACK
6
CONTINUOUS
10
0.208937
20
0.268195
11
0.210607
21
0.267503
0
LINE
8
BLACK
6
CONTINUOUS
10
0.152733
20
0.267503
11
0.153425
21
0.265833
0
LINE
8
BLACK
6
CONTINUOUS
10
0.153425
20
0.265833
11
0.153425
21
0.247954
0
LINE
8
BLACK
6
CONTINUOUS
10
0.153425
20
0.247954
11
0.152733
21
0.246284
0
LINE
8
BLACK
6
CONTINUOUS
10
0.152733
20
0.246284
11
0.151063
21
0.245592
0
LINE
8
BLACK
6
CONTINUOUS
10
0.151063
20
0.245592
11
0.149393
21
0.246284
0
LINE
8
BLACK
6
CONTINUOUS
10
0.149393
20
0.246284
11
0.148701
21
0.247954
0
LINE
8
BLACK
6
CONTINUOUS
10
0.148701
20
0.247954
11
0.148701
21
0.265833
0
LINE
8
BLACK
6
CONTINUOUS
10
0.148701
20
0.265833
11
0.149393
21
0.267503
0
LINE
8
BLACK
6
CONTINUOUS
10
0.149393
20
0.267503
11
0.151063
21
0.268195
0
LINE
8
BLACK
6
CONTINUOUS
10
0.151063
20
0.268195
11
0.152733
21
0.267503
0
LINE
8
BLACK
6
CONTINUOUS
10
-0.0299045
20
0.273941
11
-0.0292126
21
0.272271
0
LINE
8
BLACK
6
CONTINUOUS
10
-0.0292126
20
0.272271
11
-0.0292126
21
0.261201
0
LINE
8
BLACK
6
CONTINUOUS
10
-0.0292126
20
0.261201
11
-0.0299045
21
0.259531
0
LINE
8
BLACK
6
CONTINUOUS
10
-0.0299045
20
0.259531
11
-0.0315748
21
0.258839
0
LINE
8
BLACK
6
CONTINUOUS
10
-0.0315748
20
0.258839
11
-0.0332451
21
0.259531
0
LINE
8
BLACK
6
CONTINUOUS
10
-0.0332451
20
0.259531
11
-0.033937
21
0.261201
0
LINE
8
BLACK
6
CONTINUOUS
10
-0.033937
20
0.261201
11
-0.033937
21
0.272271
0
LINE
8
BLACK
6
CONTINUOUS
10
-0.033937
20
0.272271
11
-0.0332451
21
0.273941
0
LINE
8
BLACK
6
CONTINUOUS
10
-0.0332451
20
0.273941
11
-0.0315748
21
0.274633
0
LINE
8
BLACK
6
CONTINUOUS
10
-0.0315748
20
0.274633
11
-0.0299045
21
0.273941
0
LINE
8
BLACK
6
CONTINUOUS
10
0.010253
20
0.273941
11
0.0109449
21
0.272271
0
LINE
8
BLACK
6
CONTINUOUS
10
0.0109449
20
0.272271
11
0.0109449
21
0.261201
0
LINE
8
BLACK
6
CONTINUOUS
10
0.0109449
20
0.261201
11
0.010253
21
0.259531
0
LINE
8
BLACK
6
CONTINUOUS
10
0.010253
20
0.259531
11
0.00858268
21
0.258839
0
LINE
8
BLACK
6
CONTINUOUS
10
0.00858268
20
0.258839
11
0.00691236
21
0.259531
0
LINE
8
BLACK
6
CONTINUOUS
10
0.00691236
20
0.259531
11
0.00622047
21
0.261201
0
LINE
8
BLACK
6
CONTINUOUS
10
0.00622047
20
0.261201
11
0.00622047
21
0.272271
0
LINE
8
BLACK
6
CONTINUOUS
10
0.00622047
20
0.272271
11
0.00691236
21
0.273941
0
LINE
8
BLACK
6
CONTINUOUS
10
0.00691236
20
0.273941
11
0.00858268
21
0.274633
0
LINE
8
BLACK
6
CONTINUOUS
10
0.00858268
20
0.274633
11
0.010253
21
0.273941
0
LINE
8
BLACK
6
CONTINUOUS
10
-0.281981
20
0.273426
11
-0.281289
21
0.271756
0
LINE
8
BLACK
6
CONTINUOUS
10
-0.281289
20
0.271756
11
-0.281981
21
0.270085
0
LINE
8
BLACK
6
CONTINUOUS
10
-0.281981
20
0.270085
11
-0.283651
21
0.269394
0
LINE
8
BLACK
6
CONTINUOUS
10
-0.283651
20
0.269394
11
-0.302333
21
0.269394
0
LINE
8
BLACK
6
CONTINUOUS
10
-0.302333
20
0.269394
11
-0.304003
21
0.270085
0
LINE
8
BLACK
6
CONTINUOUS
10
-0.304003
20
0.270085
11
-0.304695
21
0.271756
0
LINE
8
BLACK
6
CONTINUOUS
10
-0.304695
20
0.271756
11
-0.304003
21
0.273426
0
LINE
8
BLACK
6
CONTINUOUS
10
-0.304003
20
0.273426
11
-0.302333
21
0.274118
0
LINE
8
BLACK
6
CONTINUOUS
10
-0.302333
20
0.274118
11
-0.283651
21
0.274118
0
LINE
8
BLACK
6
CONTINUOUS
10
-0.283651
20
0.274118
11
-0.281981
21
0.273426
0
LINE
8
BLACK
6
CONTINUOUS
10
-0.413871
20
0.273426
11
-0.413179
21
0.271756
0
LINE
8
BLACK
6
CONTINUOUS
10
-0.413179
20
0.271756
11
-0.413871
21
0.270085
0
LINE
8
BLACK
6
CONTINUOUS
10
-0.413871
20
0.270085
11
-0.415541
21
0.269394
0
LINE
8
BLACK
6
CONTINUOUS
10
-0.415541
20
0.269394
11
-0.434223
21
0.269394
0
LINE
8
BLACK
6
CONTINUOUS
10
-0.434223
20
0.269394
11
-0.435893
21
0.270085
0
LINE
8
BLACK
6
CONTINUOUS
10
-0.435893
20
0.270085
11
-0.436585
21
0.271756
0
LINE
8
BLACK
6
CONTINUOUS
10
-0.436585
20
0.271756
11
-0.435893
21
0.273426
0
LINE
8
BLACK
6
CONTINUOUS
10
-0.435893
20
0.273426
11
-0.434223
21
0.274118
0
LINE
8
BLACK
6
CONTINUOUS
10
-0.434223
20
0.274118
11
-0.415541
21
0.274118
0
LINE
8
BLACK
6
CONTINUOUS
10
-0.415541
20
0.274118
11
-0.413871
21
0.273426
0
LINE
8
BLACK
6
CONTINUOUS
10
-0.54563
20
0.273918
11
-0.544938
21
0.272248
0
LINE
8
BLACK
6
CONTINUOUS
10
-0.544938
20
0.272248
11
-0.54563
21
0.270578
0
LINE
8
BLACK
6
CONTINUOUS
10
-0.54563
20
0.270578
11
-0.5473
21
0.269886
0
LINE
8
BLACK
6
CONTINUOUS
10
-0.5473
20
0.269886
11
-0.558369
21
0.269886
0
LINE
8
BLACK
6
CONTINUOUS
10
-0.558369
20
0.269886
11
-0.56004
21
0.270578
0
LINE
8
BLACK
6
CONTINUOUS
10
-0.56004
20
0.270578
11
-0.560731
21
0.272248
0
LINE
8
BLACK
6
CONTINUOUS
10
-0.560731
20
0.272248
11
-0.56004
21
0.273918
0
LINE
8
BLACK
6
CONTINUOUS
10
-0.56004
20
0.273918
11
-0.558369
21
0.27461
0
LINE
8
BLACK
6
CONTINUOUS
10
-0.558369
20
0.27461
11
-0.5473
21
0.27461
0
LINE
8
BLACK
6
CONTINUOUS
10
-0.5473
20
0.27461
11
-0.54563
21
0.273918
0
LINE
8
BLACK
6
CONTINUOUS
10
-0.656912
20
0.357619
11
-0.65622
21
0.355949
0
LINE
8
BLACK
6
CONTINUOUS
10
-0.65622
20
0.355949
11
-0.65622
21
0.285083
0
LINE
8
BLACK
6
CONTINUOUS
10
-0.65622
20
0.285083
11
-0.656912
21
0.283412
0
LINE
8
BLACK
6
CONTINUOUS
10
-0.656912
20
0.283412
11
-0.658583
21
0.28272
0
LINE
8
BLACK
6
CONTINUOUS
10
-0.658583
20
0.28272
11
-0.660253
21
0.283412
0
LINE
8
BLACK
6
CONTINUOUS
10
-0.660253
20
0.283412
11
-0.660945
21
0.285083
0
LINE
8
BLACK
6
CONTINUOUS
10
-0.660945
20
0.285083
11
-0.660945
21
0.353586
0
LINE
8
BLACK
6
CONTINUOUS
10
-0.660945
20
0.353586
11
-0.715669
21
0.353586
0
LINE
8
BLACK
6
CONTINUOUS
10
-0.715669
20
0.353586
11
-0.71734
21
0.354278
0
LINE
8
BLACK
6
CONTINUOUS
10
-0.71734
20
0.354278
11
-0.718031
21
0.355949
0
LINE
8
BLACK
6
CONTINUOUS
10
-0.718031
20
0.355949
11
-0.71734
21
0.357619
0
LINE
8
BLACK
6
CONTINUOUS
10
-0.71734
20
0.357619
11
-0.715669
21
0.358311
0
LINE
8
BLACK
6
CONTINUOUS
10
-0.715669
20
0.358311
11
-0.658583
21
0.358311
0
LINE
8
BLACK
6
CONTINUOUS
10
-0.658583
20
0.358311
11
-0.656912
21
0.357619
0
LINE
8
BLACK
6
CONTINUOUS
10
0.137812
20
0.313682
11
0.138504
21
0.312012
0
LINE
8
BLACK
6
CONTINUOUS
10
0.138504
20
0.312012
11
0.138504
21
0.28839
0
LINE
8
BLACK
6
CONTINUOUS
10
0.138504
20
0.28839
11
0.137812
21
0.286719
0
LINE
8
BLACK
6
CONTINUOUS
10
0.137812
20
0.286719
11
0.136142
21
0.286027
0
LINE
8
BLACK
6
CONTINUOUS
10
0.136142
20
0.286027
11
0.134471
21
0.286719
0
LINE
8
BLACK
6
CONTINUOUS
10
0.134471
20
0.286719
11
0.12266
21
0.29853
0
LINE
8
BLACK
6
CONTINUOUS
10
0.12266
20
0.29853
11
0.121969
21
0.300201
0
LINE
8
BLACK
6
CONTINUOUS
10
0.121969
20
0.300201
11
0.12266
21
0.301871
0
LINE
8
BLACK
6
CONTINUOUS
10
0.12266
20
0.301871
11
0.134471
21
0.313682
0
LINE
8
BLACK
6
CONTINUOUS
10
0.134471
20
0.313682
11
0.136142
21
0.314374
0
LINE
8
BLACK
6
CONTINUOUS
10
0.136142
20
0.314374
11
0.137812
21
0.313682
0
LINE
8
BLACK
6
CONTINUOUS
10
0.127671
20
0.300201
11
0.13378
21
0.294092
0
LINE
8
BLACK
6
CONTINUOUS
10
0.13378
20
0.294092
11
0.13378
21
0.306309
0
LINE
8
BLACK
6
CONTINUOUS
10
0.13378
20
0.306309
11
0.127671
21
0.300201
0
LINE
8
BLACK
6
CONTINUOUS
10
-0.54563
20
0.314076
11
-0.544938
21
0.312405
0
LINE
8
BLACK
6
CONTINUOUS
10
-0.544938
20
0.312405
11
-0.54563
21
0.310735
0
LINE
8
BLACK
6
CONTINUOUS
10
-0.54563
20
0.310735
11
-0.5473
21
0.310043
0
LINE
8
BLACK
6
CONTINUOUS
10
-0.5473
20
0.310043
11
-0.558369
21
0.310043
0
LINE
8
BLACK
6
CONTINUOUS
10
-0.558369
20
0.310043
11
-0.56004
21
0.310735
0
LINE
8
BLACK
6
CONTINUOUS
10
-0.56004
20
0.310735
11
-0.560731
21
0.312405
0
LINE
8
BLACK
6
CONTINUOUS
10
-0.560731
20
0.312405
11
-0.56004
21
0.314076
0
LINE
8
BLACK
6
CONTINUOUS
10
-0.56004
20
0.314076
11
-0.558369
21
0.314768
0
LINE
8
BLACK
6
CONTINUOUS
10
-0.558369
20
0.314768
11
-0.5473
21
0.314768
0
LINE
8
BLACK
6
CONTINUOUS
10
-0.5473
20
0.314768
11
-0.54563
21
0.314076
0
LINE
8
BLACK
6
CONTINUOUS
10
-0.413871
20
0.314568
11
-0.413179
21
0.312897
0
LINE
8
BLACK
6
CONTINUOUS
10
-0.413179
20
0.312897
11
-0.413871
21
0.311227
0
LINE
8
BLACK
6
CONTINUOUS
10
-0.413871
20
0.311227
11
-0.415541
21
0.310535
0
LINE
8
BLACK
6
CONTINUOUS
10
-0.415541
20
0.310535
11
-0.434223
21
0.310535
0
LINE
8
BLACK
6
CONTINUOUS
10
-0.434223
20
0.310535
11
-0.435893
21
0.311227
0
LINE
8
BLACK
6
CONTINUOUS
10
-0.435893
20
0.311227
11
-0.436585
21
0.312897
0
LINE
8
BLACK
6
CONTINUOUS
10
-0.436585
20
0.312897
11
-0.435893
21
0.314568
0
LINE
8
BLACK
6
CONTINUOUS
10
-0.435893
20
0.314568
11
-0.434223
21
0.31526
0
LINE
8
BLACK
6
CONTINUOUS
10
-0.434223
20
0.31526
11
-0.415541
21
0.31526
0
LINE
8
BLACK
6
CONTINUOUS
10
-0.415541
20
0.31526
11
-0.413871
21
0.314568
0
LINE
8
BLACK
6
CONTINUOUS
10
-0.281981
20
0.314568
11
-0.281289
21
0.312897
0
LINE
8
BLACK
6
CONTINUOUS
10
-0.281289
20
0.312897
11
-0.281981
21
0.311227
0
LINE
8
BLACK
6
CONTINUOUS
10
-0.281981
20
0.311227
11
-0.283651
21
0.310535
0
LINE
8
BLACK
6
CONTINUOUS
10
-0.283651
20
0.310535
11
-0.302333
21
0.310535
0
LINE
8
BLACK
6
CONTINUOUS
10
-0.302333
20
0.310535
11
-0.304003
21
0.311227
0
LINE
8
BLACK
6
CONTINUOUS
10
-0.304003
20
0.311227
11
-0.304695
21
0.312897
0
LINE
8
BLACK
6
CONTINUOUS
10
-0.304695
20
0.312897
11
-0.304003
21
0.314568
0
LINE
8
BLACK
6
CONTINUOUS
10
-0.304003
20
0.314568
11
-0.302333
21
0.31526
0
LINE
8
BLACK
6
CONTINUOUS
10
-0.302333
20
0.31526
11
-0.283651
21
0.31526
0
LINE
8
BLACK
6
CONTINUOUS
10
-0.283651
20
0.31526
11
-0.281981
21
0.314568
0
LINE
8
BLACK
6
CONTINUOUS
10
-0.172615
20
0.322546
11
-0.173307
21
0.324216
0
LINE
8
BLACK
6
CONTINUOUS
10
-0.173307
20
0.324216
11
-0.172615
21
0.325887
0
LINE
8
BLACK
6
CONTINUOUS
10
-0.172615
20
0.325887
11
-0.170945
21
0.326579
0
LINE
8
BLACK
6
CONTINUOUS
10
-0.170945
20
0.326579
11
-0.107953
21
0.326579
0
LINE
8
BLACK
6
CONTINUOUS
10
-0.107953
20
0.326579
11
-0.106282
21
0.325887
0
LINE
8
BLACK
6
CONTINUOUS
10
-0.106282
20
0.325887
11
-0.105591
21
0.324216
0
LINE
8
BLACK
6
CONTINUOUS
10
-0.105591
20
0.324216
11
-0.106282
21
0.322546
0
LINE
8
BLACK
6
CONTINUOUS
10
-0.106282
20
0.322546
11
-0.107953
21
0.321854
0
LINE
8
BLACK
6
CONTINUOUS
10
-0.107953
20
0.321854
11
-0.170945
21
0.321854
0
LINE
8
BLACK
6
CONTINUOUS
10
-0.170945
20
0.321854
11
-0.172615
21
0.322546
0
LINE
8
BLACK
6
CONTINUOUS
10
-0.272987
20
-0.0665387
11
-0.270777
21
-0.0637761
0
LINE
8
BLACK
6
CONTINUOUS
10
-0.270777
20
-0.0637761
11
-0.267589
21
-0.0622449
0
LINE
8
BLACK
6
CONTINUOUS
10
-0.267589
20
-0.0622449
11
-0.264051
21
-0.062248
0
LINE
8
BLACK
6
CONTINUOUS
10
-0.264051
20
-0.062248
11
-0.260865
21
-0.0637848
0
LINE
8
BLACK
6
CONTINUOUS
10
-0.260865
20
-0.0637848
11
-0.258661
21
-0.0665512
0
LINE
8
BLACK
6
CONTINUOUS
10
-0.258661
20
-0.0665512
11
-0.257874
21
-0.07
0
LINE
8
BLACK
6
CONTINUOUS
10
-0.257874
20
-0.07
11
-0.257874
21
-0.0700278
0
LINE
8
BLACK
6
CONTINUOUS
10
-0.257874
20
-0.0700278
11
-0.258673
21
-0.0734738
0
LINE
8
BLACK
6
CONTINUOUS
10
-0.258673
20
-0.0734738
11
-0.260887
21
-0.0762325
0
LINE
8
BLACK
6
CONTINUOUS
10
-0.260887
20
-0.0762325
11
-0.264078
21
-0.0777582
0
LINE
8
BLACK
6
CONTINUOUS
10
-0.264078
20
-0.0777582
11
-0.267616
21
-0.0777489
0
LINE
8
BLACK
6
CONTINUOUS
10
-0.267616
20
-0.0777489
11
-0.270799
21
-0.0762066
0
LINE
8
BLACK
6
CONTINUOUS
10
-0.270799
20
-0.0762066
11
-0.272999
21
-0.0734363
0
LINE
8
BLACK
6
CONTINUOUS
10
-0.272999
20
-0.0734363
11
-0.273776
21
-0.07
0
LINE
8
BLACK
6
CONTINUOUS
10
-0.273776
20
-0.07
11
-0.27378
21
-0.0699861
0
LINE
8
BLACK
6
CONTINUOUS
10
-0.27378
20
-0.0699861
11
-0.272987
21
-0.0665387
0
LINE
8
BLACK
6
CONTINUOUS
10
-0.265827
20
-0.0722159
11
-0.26426
21
-0.0715669
0
LINE
8
BLACK
6
CONTINUOUS
10
-0.26426
20
-0.0715669
11
-0.263611
21
-0.07
0
LINE
8
BLACK
6
CONTINUOUS
10
-0.263611
20
-0.07
11
-0.26426
21
-0.0684331
0
LINE
8
BLACK
6
CONTINUOUS
10
-0.26426
20
-0.0684331
11
-0.265827
21
-0.0677841
0
LINE
8
BLACK
6
CONTINUOUS
10
-0.265827
20
-0.0677841
11
-0.267394
21
-0.0684331
0
LINE
8
BLACK
6
CONTINUOUS
10
-0.267394
20
-0.0684331
11
-0.268043
21
-0.07
0
LINE
8
BLACK
6
CONTINUOUS
10
-0.268043
20
-0.07
11
-0.267394
21
-0.0715669
0
LINE
8
BLACK
6
CONTINUOUS
10
-0.267394
20
-0.0715669
11
-0.265827
21
-0.0722159
  0
ENDSEC
  0
EOF
