  0
SECTION
  2
HEADER
  9
$ANGBASE
  50
0.0
  9
$ANGDIR
  70
1
  9
$MEASUREMENT
  70
0
  0
ENDSEC
  0
SECTION
  2
TABLES
  0
TABLE
  2
LTYPE
  70
4
  0
LTYPE
  5
40F
  2
CONTINUOUS
  70
0
  3
Solid line
  72
65
  73
0
  40
0.0
  0
LTYPE
  5
410
  2
DASHDOT
 70
0
  3
Dash Dot ____ _ ____ _
 72
65
 73
4
 40
2.0
 49
1.25
 49
-0.25
 49
0.25
 49
-0.25
  0
LTYPE
  5
411
  2
DASHED
 70
0
  3
Dashed __ __ __ __ __
 72
65
 73
2
 40
0.75
 49
0.5
 49
-0.25
  0
LTYPE
  5
43B
  2
DOTTED
 70
0
  3
Dotted .  .  .  .
 72
65
 73
2
 40
0.2
 49
0.0
 49
-0.2
  0
ENDTAB
  0
TABLE
  2
STYLE
  70
4
  0
STYLE
  2
KICAD
  70
0
  40
0
  41
1
  42
1
  50
0
  71
0
  3
isocp.shx
  0
STYLE
  2
KICADB
  70
0
  40
0
  41
1
  42
1
  50
0
  71
0
  3
isocp.shx
  0
STYLE
  2
KICADI
  70
0
  40
0
  41
1
  42
1
  50
15
  71
0
  3
isocp.shx
  0
STYLE
  2
KICADBI
  70
0
  40
0
  41
1
  42
1
  50
15
  71
0
  3
isocp.shx
  0
ENDTAB
  0
TABLE
  2
LAYER
  70
1
  0
LAYER
  2
BLACK
  70
0
  62
7
  6
CONTINUOUS
  0
ENDTAB
  0
ENDSEC
  0
SECTION
  2
ENTITIES
0
LINE
8
BLACK
6
CONTINUOUS
10
0.856761
20
0.557999
11
0.856891
21
0.558022
0
LINE
8
BLACK
6
CONTINUOUS
10
0.856891
20
0.558022
11
0.857004
21
0.557957
0
LINE
8
BLACK
6
CONTINUOUS
10
0.857004
20
0.557957
11
0.857388
21
0.557889
0
LINE
8
BLACK
6
CONTINUOUS
10
0.857388
20
0.557889
11
0.857976
21
0.557396
0
LINE
8
BLACK
6
CONTINUOUS
10
0.857976
20
0.557396
11
0.85864
21
0.557012
0
LINE
8
BLACK
6
CONTINUOUS
10
0.85864
20
0.557012
11
0.858731
21
0.556762
0
LINE
8
BLACK
6
CONTINUOUS
10
0.858731
20
0.556762
11
0.858935
21
0.556591
0
LINE
8
BLACK
6
CONTINUOUS
10
0.858935
20
0.556591
11
0.859068
21
0.555835
0
LINE
8
BLACK
6
CONTINUOUS
10
0.859068
20
0.555835
11
0.859331
21
0.555114
0
LINE
8
BLACK
6
CONTINUOUS
10
0.859331
20
0.555114
11
0.859331
21
-0.192917
0
LINE
8
BLACK
6
CONTINUOUS
10
0.859331
20
-0.192917
11
0.859263
21
-0.193301
0
LINE
8
BLACK
6
CONTINUOUS
10
0.859263
20
-0.193301
11
0.859286
21
-0.19343
0
LINE
8
BLACK
6
CONTINUOUS
10
0.859286
20
-0.19343
11
0.85922
21
-0.193544
0
LINE
8
BLACK
6
CONTINUOUS
10
0.85922
20
-0.193544
11
0.859153
21
-0.193927
0
LINE
8
BLACK
6
CONTINUOUS
10
0.859153
20
-0.193927
11
0.858659
21
-0.194515
0
LINE
8
BLACK
6
CONTINUOUS
10
0.858659
20
-0.194515
11
0.858276
21
-0.195179
0
LINE
8
BLACK
6
CONTINUOUS
10
0.858276
20
-0.195179
11
0.858026
21
-0.19527
0
LINE
8
BLACK
6
CONTINUOUS
10
0.858026
20
-0.19527
11
0.857854
21
-0.195474
0
LINE
8
BLACK
6
CONTINUOUS
10
0.857854
20
-0.195474
11
0.857099
21
-0.195608
0
LINE
8
BLACK
6
CONTINUOUS
10
0.857099
20
-0.195608
11
0.856378
21
-0.19587
0
LINE
8
BLACK
6
CONTINUOUS
10
0.856378
20
-0.19587
11
-0.62
21
-0.19587
0
LINE
8
BLACK
6
CONTINUOUS
10
-0.62
20
-0.19587
11
-0.620384
21
-0.195802
0
LINE
8
BLACK
6
CONTINUOUS
10
-0.620384
20
-0.195802
11
-0.620513
21
-0.195825
0
LINE
8
BLACK
6
CONTINUOUS
10
-0.620513
20
-0.195825
11
-0.620626
21
-0.195759
0
LINE
8
BLACK
6
CONTINUOUS
10
-0.620626
20
-0.195759
11
-0.62101
21
-0.195692
0
LINE
8
BLACK
6
CONTINUOUS
10
-0.62101
20
-0.195692
11
-0.621598
21
-0.195199
0
LINE
8
BLACK
6
CONTINUOUS
10
-0.621598
20
-0.195199
11
-0.622262
21
-0.194815
0
LINE
8
BLACK
6
CONTINUOUS
10
-0.622262
20
-0.194815
11
-0.622353
21
-0.194565
0
LINE
8
BLACK
6
CONTINUOUS
10
-0.622353
20
-0.194565
11
-0.622557
21
-0.194394
0
LINE
8
BLACK
6
CONTINUOUS
10
-0.622557
20
-0.194394
11
-0.62269
21
-0.193638
0
LINE
8
BLACK
6
CONTINUOUS
10
-0.62269
20
-0.193638
11
-0.622953
21
-0.192917
0
LINE
8
BLACK
6
CONTINUOUS
10
-0.622953
20
-0.192917
11
-0.622953
21
0.555114
0
LINE
8
BLACK
6
CONTINUOUS
10
-0.622953
20
0.555114
11
-0.622885
21
0.555498
0
LINE
8
BLACK
6
CONTINUOUS
10
-0.622885
20
0.555498
11
-0.622908
21
0.555627
0
LINE
8
BLACK
6
CONTINUOUS
10
-0.622908
20
0.555627
11
-0.622842
21
0.555741
0
LINE
8
BLACK
6
CONTINUOUS
10
-0.622842
20
0.555741
11
-0.622775
21
0.556124
0
LINE
8
BLACK
6
CONTINUOUS
10
-0.622775
20
0.556124
11
-0.622282
21
0.556712
0
LINE
8
BLACK
6
CONTINUOUS
10
-0.622282
20
0.556712
11
-0.621898
21
0.557376
0
LINE
8
BLACK
6
CONTINUOUS
10
-0.621898
20
0.557376
11
-0.621648
21
0.557467
0
LINE
8
BLACK
6
CONTINUOUS
10
-0.621648
20
0.557467
11
-0.621476
21
0.557671
0
LINE
8
BLACK
6
CONTINUOUS
10
-0.621476
20
0.557671
11
-0.620721
21
0.557805
0
LINE
8
BLACK
6
CONTINUOUS
10
-0.620721
20
0.557805
11
-0.62
21
0.558067
0
LINE
8
BLACK
6
CONTINUOUS
10
-0.62
20
0.558067
11
0.856378
21
0.558067
0
LINE
8
BLACK
6
CONTINUOUS
10
0.856378
20
0.558067
11
0.856761
21
0.557999
0
LINE
8
BLACK
6
CONTINUOUS
10
-0.617047
20
0.552162
11
-0.617047
21
-0.189964
0
LINE
8
BLACK
6
CONTINUOUS
10
-0.617047
20
-0.189964
11
0.853425
21
-0.189964
0
LINE
8
BLACK
6
CONTINUOUS
10
0.853425
20
-0.189964
11
0.853425
21
0.552162
0
LINE
8
BLACK
6
CONTINUOUS
10
0.853425
20
0.552162
11
-0.617047
21
0.552162
  0
ENDSEC
  0
EOF
