  0
SECTION
  2
HEADER
  9
$ANGBASE
  50
0.0
  9
$ANGDIR
  70
1
  9
$MEASUREMENT
  70
0
  0
ENDSEC
  0
SECTION
  2
TABLES
  0
TABLE
  2
LTYPE
  70
4
  0
LTYPE
  5
40F
  2
CONTINUOUS
  70
0
  3
Solid line
  72
65
  73
0
  40
0.0
  0
LTYPE
  5
410
  2
DASHDOT
 70
0
  3
Dash Dot ____ _ ____ _
 72
65
 73
4
 40
2.0
 49
1.25
 49
-0.25
 49
0.25
 49
-0.25
  0
LTYPE
  5
411
  2
DASHED
 70
0
  3
Dashed __ __ __ __ __
 72
65
 73
2
 40
0.75
 49
0.5
 49
-0.25
  0
LTYPE
  5
43B
  2
DOTTED
 70
0
  3
Dotted .  .  .  .
 72
65
 73
2
 40
0.2
 49
0.0
 49
-0.2
  0
ENDTAB
  0
TABLE
  2
STYLE
  70
4
  0
STYLE
  2
KICAD
  70
0
  40
0
  41
1
  42
1
  50
0
  71
0
  3
isocp.shx
  0
STYLE
  2
KICADB
  70
0
  40
0
  41
1
  42
1
  50
0
  71
0
  3
isocp.shx
  0
STYLE
  2
KICADI
  70
0
  40
0
  41
1
  42
1
  50
15
  71
0
  3
isocp.shx
  0
STYLE
  2
KICADBI
  70
0
  40
0
  41
1
  42
1
  50
15
  71
0
  3
isocp.shx
  0
ENDTAB
  0
TABLE
  2
LAYER
  70
1
  0
LAYER
  2
BLACK
  70
0
  62
7
  6
CONTINUOUS
  0
ENDTAB
  0
ENDSEC
  0
SECTION
  2
ENTITIES
0
LINE
8
BLACK
6
CONTINUOUS
10
-0.534134
20
0.0942164
11
-0.534134
21
-0.114445
0
LINE
8
BLACK
6
CONTINUOUS
10
-0.534134
20
-0.114445
11
-0.534422
21
-0.115141
0
LINE
8
BLACK
6
CONTINUOUS
10
-0.534422
20
-0.115141
11
-0.535118
21
-0.115429
0
LINE
8
BLACK
6
CONTINUOUS
10
-0.535118
20
-0.115429
11
-0.618622
21
-0.115429
0
LINE
8
BLACK
6
CONTINUOUS
10
-0.618622
20
-0.115429
11
-0.618622
21
-0.373579
0
LINE
8
BLACK
6
CONTINUOUS
10
-0.618622
20
-0.373579
11
-0.61891
21
-0.374275
0
LINE
8
BLACK
6
CONTINUOUS
10
-0.61891
20
-0.374275
11
-0.619606
21
-0.374563
0
LINE
8
BLACK
6
CONTINUOUS
10
-0.619606
20
-0.374563
11
-0.871575
21
-0.374563
0
LINE
8
BLACK
6
CONTINUOUS
10
-0.871575
20
-0.374563
11
-0.872271
21
-0.374275
0
LINE
8
BLACK
6
CONTINUOUS
10
-0.872271
20
-0.374275
11
-0.872559
21
-0.373579
0
LINE
8
BLACK
6
CONTINUOUS
10
-0.872559
20
-0.373579
11
-0.872559
21
-0.00192535
0
LINE
8
BLACK
6
CONTINUOUS
10
-0.872559
20
-0.00192535
11
-0.872271
21
-0.00122937
0
LINE
8
BLACK
6
CONTINUOUS
10
-0.872271
20
-0.00122937
11
-0.871575
21
-0.000941102
0
LINE
8
BLACK
6
CONTINUOUS
10
-0.871575
20
-0.000941102
11
-0.622717
21
-0.000941102
0
LINE
8
BLACK
6
CONTINUOUS
10
-0.622717
20
-0.000941102
11
-0.622717
21
0.00240535
0
LINE
8
BLACK
6
CONTINUOUS
10
-0.622717
20
0.00240535
11
-0.871575
21
0.00240535
0
LINE
8
BLACK
6
CONTINUOUS
10
-0.871575
20
0.00240535
11
-0.872271
21
0.00269362
0
LINE
8
BLACK
6
CONTINUOUS
10
-0.872271
20
0.00269362
11
-0.872559
21
0.00338961
0
LINE
8
BLACK
6
CONTINUOUS
10
-0.872559
20
0.00338961
11
-0.872559
21
0.375043
0
LINE
8
BLACK
6
CONTINUOUS
10
-0.872559
20
0.375043
11
-0.872271
21
0.375739
0
LINE
8
BLACK
6
CONTINUOUS
10
-0.872271
20
0.375739
11
-0.871575
21
0.376027
0
LINE
8
BLACK
6
CONTINUOUS
10
-0.871575
20
0.376027
11
-0.619606
21
0.376027
0
LINE
8
BLACK
6
CONTINUOUS
10
-0.619606
20
0.376027
11
-0.61891
21
0.375739
0
LINE
8
BLACK
6
CONTINUOUS
10
-0.61891
20
0.375739
11
-0.618622
21
0.375043
0
LINE
8
BLACK
6
CONTINUOUS
10
-0.618622
20
0.375043
11
-0.618622
21
0.0952006
0
LINE
8
BLACK
6
CONTINUOUS
10
-0.618622
20
0.0952006
11
-0.535118
21
0.0952006
0
LINE
8
BLACK
6
CONTINUOUS
10
-0.535118
20
0.0952006
11
-0.534422
21
0.0949124
0
LINE
8
BLACK
6
CONTINUOUS
10
-0.534422
20
0.0949124
11
-0.534134
21
0.0942164
0
LINE
8
BLACK
6
CONTINUOUS
10
-0.870591
20
-0.00290961
11
-0.870591
21
-0.372595
0
LINE
8
BLACK
6
CONTINUOUS
10
-0.870591
20
-0.372595
11
-0.620591
21
-0.372595
0
LINE
8
BLACK
6
CONTINUOUS
10
-0.620591
20
-0.372595
11
-0.620591
21
-0.115429
0
LINE
8
BLACK
6
CONTINUOUS
10
-0.620591
20
-0.115429
11
-0.621732
21
-0.115429
0
LINE
8
BLACK
6
CONTINUOUS
10
-0.621732
20
-0.115429
11
-0.622428
21
-0.115141
0
LINE
8
BLACK
6
CONTINUOUS
10
-0.622428
20
-0.115141
11
-0.622717
21
-0.114445
0
LINE
8
BLACK
6
CONTINUOUS
10
-0.622717
20
-0.114445
11
-0.622717
21
-0.00290961
0
LINE
8
BLACK
6
CONTINUOUS
10
-0.622717
20
-0.00290961
11
-0.870591
21
-0.00290961
0
LINE
8
BLACK
6
CONTINUOUS
10
-0.620748
20
-0.00290961
11
-0.620748
21
-0.113461
0
LINE
8
BLACK
6
CONTINUOUS
10
-0.620748
20
-0.113461
11
-0.620591
21
-0.113461
0
LINE
8
BLACK
6
CONTINUOUS
10
-0.620591
20
-0.113461
11
-0.620591
21
-0.00290961
0
LINE
8
BLACK
6
CONTINUOUS
10
-0.620591
20
-0.00290961
11
-0.620748
21
-0.00290961
0
LINE
8
BLACK
6
CONTINUOUS
10
-0.620748
20
-0.000941102
11
-0.619606
21
-0.000941102
0
LINE
8
BLACK
6
CONTINUOUS
10
-0.619606
20
-0.000941102
11
-0.61891
21
-0.00122937
0
LINE
8
BLACK
6
CONTINUOUS
10
-0.61891
20
-0.00122937
11
-0.618622
21
-0.00192535
0
LINE
8
BLACK
6
CONTINUOUS
10
-0.618622
20
-0.00192535
11
-0.618622
21
-0.113461
0
LINE
8
BLACK
6
CONTINUOUS
10
-0.618622
20
-0.113461
11
-0.536102
21
-0.113461
0
LINE
8
BLACK
6
CONTINUOUS
10
-0.536102
20
-0.113461
11
-0.536102
21
0.0932321
0
LINE
8
BLACK
6
CONTINUOUS
10
-0.536102
20
0.0932321
11
-0.618622
21
0.0932321
0
LINE
8
BLACK
6
CONTINUOUS
10
-0.618622
20
0.0932321
11
-0.618622
21
0.00338961
0
LINE
8
BLACK
6
CONTINUOUS
10
-0.618622
20
0.00338961
11
-0.61891
21
0.00269362
0
LINE
8
BLACK
6
CONTINUOUS
10
-0.61891
20
0.00269362
11
-0.619606
21
0.00240535
0
LINE
8
BLACK
6
CONTINUOUS
10
-0.619606
20
0.00240535
11
-0.620748
21
0.00240535
0
LINE
8
BLACK
6
CONTINUOUS
10
-0.620748
20
0.00240535
11
-0.620748
21
-0.000941102
0
LINE
8
BLACK
6
CONTINUOUS
10
-0.870591
20
0.374059
11
-0.870591
21
0.00437386
0
LINE
8
BLACK
6
CONTINUOUS
10
-0.870591
20
0.00437386
11
-0.622717
21
0.00437386
0
LINE
8
BLACK
6
CONTINUOUS
10
-0.622717
20
0.00437386
11
-0.622717
21
0.0942164
0
LINE
8
BLACK
6
CONTINUOUS
10
-0.622717
20
0.0942164
11
-0.622428
21
0.0949124
0
LINE
8
BLACK
6
CONTINUOUS
10
-0.622428
20
0.0949124
11
-0.621732
21
0.0952006
0
LINE
8
BLACK
6
CONTINUOUS
10
-0.621732
20
0.0952006
11
-0.620591
21
0.0952006
0
LINE
8
BLACK
6
CONTINUOUS
10
-0.620591
20
0.0952006
11
-0.620591
21
0.374059
0
LINE
8
BLACK
6
CONTINUOUS
10
-0.620591
20
0.374059
11
-0.870591
21
0.374059
0
LINE
8
BLACK
6
CONTINUOUS
10
-0.620748
20
0.0932321
11
-0.620748
21
0.00437386
0
LINE
8
BLACK
6
CONTINUOUS
10
-0.620748
20
0.00437386
11
-0.620591
21
0.00437386
0
LINE
8
BLACK
6
CONTINUOUS
10
-0.620591
20
0.00437386
11
-0.620591
21
0.0932321
0
LINE
8
BLACK
6
CONTINUOUS
10
-0.620591
20
0.0932321
11
-0.620748
21
0.0932321
0
LINE
8
BLACK
6
CONTINUOUS
10
-0.237783
20
-0.34833
11
-0.238071
21
-0.347634
0
LINE
8
BLACK
6
CONTINUOUS
10
-0.238071
20
-0.347634
11
-0.238071
21
-0.231099
0
LINE
8
BLACK
6
CONTINUOUS
10
-0.238071
20
-0.231099
11
-0.237783
21
-0.230403
0
LINE
8
BLACK
6
CONTINUOUS
10
-0.237783
20
-0.230403
11
-0.237087
21
-0.230114
0
LINE
8
BLACK
6
CONTINUOUS
10
-0.237087
20
-0.230114
11
-0.179606
21
-0.230114
0
LINE
8
BLACK
6
CONTINUOUS
10
-0.179606
20
-0.230114
11
-0.17891
21
-0.230403
0
LINE
8
BLACK
6
CONTINUOUS
10
-0.17891
20
-0.230403
11
-0.178622
21
-0.231099
0
LINE
8
BLACK
6
CONTINUOUS
10
-0.178622
20
-0.231099
11
-0.178622
21
-0.347634
0
LINE
8
BLACK
6
CONTINUOUS
10
-0.178622
20
-0.347634
11
-0.17891
21
-0.34833
0
LINE
8
BLACK
6
CONTINUOUS
10
-0.17891
20
-0.34833
11
-0.179606
21
-0.348618
0
LINE
8
BLACK
6
CONTINUOUS
10
-0.179606
20
-0.348618
11
-0.237087
21
-0.348618
0
LINE
8
BLACK
6
CONTINUOUS
10
-0.237087
20
-0.348618
11
-0.237783
21
-0.34833
0
LINE
8
BLACK
6
CONTINUOUS
10
-0.236102
20
-0.232083
11
-0.236102
21
-0.34665
0
LINE
8
BLACK
6
CONTINUOUS
10
-0.236102
20
-0.34665
11
-0.180591
21
-0.34665
0
LINE
8
BLACK
6
CONTINUOUS
10
-0.180591
20
-0.34665
11
-0.180591
21
-0.232083
0
LINE
8
BLACK
6
CONTINUOUS
10
-0.180591
20
-0.232083
11
-0.236102
21
-0.232083
0
LINE
8
BLACK
6
CONTINUOUS
10
-0.169436
20
-0.348074
11
-0.169724
21
-0.347378
0
LINE
8
BLACK
6
CONTINUOUS
10
-0.169724
20
-0.347378
11
-0.169724
21
-0.230843
0
LINE
8
BLACK
6
CONTINUOUS
10
-0.169724
20
-0.230843
11
-0.169436
21
-0.230147
0
LINE
8
BLACK
6
CONTINUOUS
10
-0.169436
20
-0.230147
11
-0.16874
21
-0.229858
0
LINE
8
BLACK
6
CONTINUOUS
10
-0.16874
20
-0.229858
11
-0.11126
21
-0.229858
0
LINE
8
BLACK
6
CONTINUOUS
10
-0.11126
20
-0.229858
11
-0.110564
21
-0.230147
0
LINE
8
BLACK
6
CONTINUOUS
10
-0.110564
20
-0.230147
11
-0.110276
21
-0.230843
0
LINE
8
BLACK
6
CONTINUOUS
10
-0.110276
20
-0.230843
11
-0.110276
21
-0.347378
0
LINE
8
BLACK
6
CONTINUOUS
10
-0.110276
20
-0.347378
11
-0.110564
21
-0.348074
0
LINE
8
BLACK
6
CONTINUOUS
10
-0.110564
20
-0.348074
11
-0.11126
21
-0.348362
0
LINE
8
BLACK
6
CONTINUOUS
10
-0.11126
20
-0.348362
11
-0.16874
21
-0.348362
0
LINE
8
BLACK
6
CONTINUOUS
10
-0.16874
20
-0.348362
11
-0.169436
21
-0.348074
0
LINE
8
BLACK
6
CONTINUOUS
10
-0.167756
20
-0.231827
11
-0.167756
21
-0.346394
0
LINE
8
BLACK
6
CONTINUOUS
10
-0.167756
20
-0.346394
11
-0.112244
21
-0.346394
0
LINE
8
BLACK
6
CONTINUOUS
10
-0.112244
20
-0.346394
11
-0.112244
21
-0.231827
0
LINE
8
BLACK
6
CONTINUOUS
10
-0.112244
20
-0.231827
11
-0.167756
21
-0.231827
0
LINE
8
BLACK
6
CONTINUOUS
10
0.224186
20
-0.333802
11
0.223898
21
-0.333106
0
LINE
8
BLACK
6
CONTINUOUS
10
0.223898
20
-0.333106
11
0.223898
21
-0.207122
0
LINE
8
BLACK
6
CONTINUOUS
10
0.223898
20
-0.207122
11
0.224186
21
-0.206426
0
LINE
8
BLACK
6
CONTINUOUS
10
0.224186
20
-0.206426
11
0.224882
21
-0.206138
0
LINE
8
BLACK
6
CONTINUOUS
10
0.224882
20
-0.206138
11
0.335118
21
-0.206138
0
LINE
8
BLACK
6
CONTINUOUS
10
0.335118
20
-0.206138
11
0.335814
21
-0.206426
0
LINE
8
BLACK
6
CONTINUOUS
10
0.335814
20
-0.206426
11
0.336102
21
-0.207122
0
LINE
8
BLACK
6
CONTINUOUS
10
0.336102
20
-0.207122
11
0.336102
21
-0.333106
0
LINE
8
BLACK
6
CONTINUOUS
10
0.336102
20
-0.333106
11
0.335814
21
-0.333802
0
LINE
8
BLACK
6
CONTINUOUS
10
0.335814
20
-0.333802
11
0.335118
21
-0.334091
0
LINE
8
BLACK
6
CONTINUOUS
10
0.335118
20
-0.334091
11
0.224882
21
-0.334091
0
LINE
8
BLACK
6
CONTINUOUS
10
0.224882
20
-0.334091
11
0.224186
21
-0.333802
0
LINE
8
BLACK
6
CONTINUOUS
10
0.225866
20
-0.208106
11
0.225866
21
-0.332122
0
LINE
8
BLACK
6
CONTINUOUS
10
0.225866
20
-0.332122
11
0.334134
21
-0.332122
0
LINE
8
BLACK
6
CONTINUOUS
10
0.334134
20
-0.332122
11
0.334134
21
-0.208106
0
LINE
8
BLACK
6
CONTINUOUS
10
0.334134
20
-0.208106
11
0.225866
21
-0.208106
0
LINE
8
BLACK
6
CONTINUOUS
10
0.130564
20
-0.33209
11
0.130276
21
-0.331394
0
LINE
8
BLACK
6
CONTINUOUS
10
0.130276
20
-0.331394
11
0.130276
21
-0.214858
0
LINE
8
BLACK
6
CONTINUOUS
10
0.130276
20
-0.214858
11
0.130564
21
-0.214162
0
LINE
8
BLACK
6
CONTINUOUS
10
0.130564
20
-0.214162
11
0.13126
21
-0.213874
0
LINE
8
BLACK
6
CONTINUOUS
10
0.13126
20
-0.213874
11
0.18874
21
-0.213874
0
LINE
8
BLACK
6
CONTINUOUS
10
0.18874
20
-0.213874
11
0.189436
21
-0.214162
0
LINE
8
BLACK
6
CONTINUOUS
10
0.189436
20
-0.214162
11
0.189724
21
-0.214858
0
LINE
8
BLACK
6
CONTINUOUS
10
0.189724
20
-0.214858
11
0.189724
21
-0.331394
0
LINE
8
BLACK
6
CONTINUOUS
10
0.189724
20
-0.331394
11
0.189436
21
-0.33209
0
LINE
8
BLACK
6
CONTINUOUS
10
0.189436
20
-0.33209
11
0.18874
21
-0.332378
0
LINE
8
BLACK
6
CONTINUOUS
10
0.18874
20
-0.332378
11
0.13126
21
-0.332378
0
LINE
8
BLACK
6
CONTINUOUS
10
0.13126
20
-0.332378
11
0.130564
21
-0.33209
0
LINE
8
BLACK
6
CONTINUOUS
10
0.132244
20
-0.215843
11
0.132244
21
-0.33041
0
LINE
8
BLACK
6
CONTINUOUS
10
0.132244
20
-0.33041
11
0.187756
21
-0.33041
0
LINE
8
BLACK
6
CONTINUOUS
10
0.187756
20
-0.33041
11
0.187756
21
-0.215843
0
LINE
8
BLACK
6
CONTINUOUS
10
0.187756
20
-0.215843
11
0.132244
21
-0.215843
0
LINE
8
BLACK
6
CONTINUOUS
10
-0.1992
20
-0.215948
11
-0.199488
21
-0.215252
0
LINE
8
BLACK
6
CONTINUOUS
10
-0.199488
20
-0.215252
11
-0.199488
21
-0.116827
0
LINE
8
BLACK
6
CONTINUOUS
10
-0.199488
20
-0.116827
11
-0.1992
21
-0.116131
0
LINE
8
BLACK
6
CONTINUOUS
10
-0.1992
20
-0.116131
11
-0.198504
21
-0.115843
0
LINE
8
BLACK
6
CONTINUOUS
10
-0.198504
20
-0.115843
11
-0.0174016
21
-0.115843
0
LINE
8
BLACK
6
CONTINUOUS
10
-0.0174016
20
-0.115843
11
-0.0167056
21
-0.116131
0
LINE
8
BLACK
6
CONTINUOUS
10
-0.0167056
20
-0.116131
11
-0.0164173
21
-0.116827
0
LINE
8
BLACK
6
CONTINUOUS
10
-0.0164173
20
-0.116827
11
-0.0164173
21
-0.215252
0
LINE
8
BLACK
6
CONTINUOUS
10
-0.0164173
20
-0.215252
11
-0.0167056
21
-0.215948
0
LINE
8
BLACK
6
CONTINUOUS
10
-0.0167056
20
-0.215948
11
-0.0174016
21
-0.216236
0
LINE
8
BLACK
6
CONTINUOUS
10
-0.0174016
20
-0.216236
11
-0.198504
21
-0.216236
0
LINE
8
BLACK
6
CONTINUOUS
10
-0.198504
20
-0.216236
11
-0.1992
21
-0.215948
0
LINE
8
BLACK
6
CONTINUOUS
10
-0.19752
20
-0.117811
11
-0.19752
21
-0.214268
0
LINE
8
BLACK
6
CONTINUOUS
10
-0.19752
20
-0.214268
11
-0.0183858
21
-0.214268
0
LINE
8
BLACK
6
CONTINUOUS
10
-0.0183858
20
-0.214268
11
-0.0183858
21
-0.117811
0
LINE
8
BLACK
6
CONTINUOUS
10
-0.0183858
20
-0.117811
11
-0.19752
21
-0.117811
0
LINE
8
BLACK
6
CONTINUOUS
10
0.153438
20
-0.171562
11
0.15315
21
-0.170866
0
LINE
8
BLACK
6
CONTINUOUS
10
0.15315
20
-0.170866
11
0.15315
21
0.169685
0
LINE
8
BLACK
6
CONTINUOUS
10
0.15315
20
0.169685
11
0.153438
21
0.170381
0
LINE
8
BLACK
6
CONTINUOUS
10
0.153438
20
0.170381
11
0.154134
21
0.170669
0
LINE
8
BLACK
6
CONTINUOUS
10
0.154134
20
0.170669
11
0.640354
21
0.170669
0
LINE
8
BLACK
6
CONTINUOUS
10
0.640354
20
0.170669
11
0.64105
21
0.170381
0
LINE
8
BLACK
6
CONTINUOUS
10
0.64105
20
0.170381
11
0.641339
21
0.169685
0
LINE
8
BLACK
6
CONTINUOUS
10
0.641339
20
0.169685
11
0.641339
21
-0.170866
0
LINE
8
BLACK
6
CONTINUOUS
10
0.641339
20
-0.170866
11
0.64105
21
-0.171562
0
LINE
8
BLACK
6
CONTINUOUS
10
0.64105
20
-0.171562
11
0.640354
21
-0.17185
0
LINE
8
BLACK
6
CONTINUOUS
10
0.640354
20
-0.17185
11
0.154134
21
-0.17185
0
LINE
8
BLACK
6
CONTINUOUS
10
0.154134
20
-0.17185
11
0.153438
21
-0.171562
0
LINE
8
BLACK
6
CONTINUOUS
10
0.155118
20
0.168701
11
0.155118
21
-0.169882
0
LINE
8
BLACK
6
CONTINUOUS
10
0.155118
20
-0.169882
11
0.63937
21
-0.169882
0
LINE
8
BLACK
6
CONTINUOUS
10
0.63937
20
-0.169882
11
0.63937
21
0.168701
0
LINE
8
BLACK
6
CONTINUOUS
10
0.63937
20
0.168701
11
0.155118
21
0.168701
0
LINE
8
BLACK
6
CONTINUOUS
10
-0.203432
20
0.060922
11
-0.20372
21
0.061618
0
LINE
8
BLACK
6
CONTINUOUS
10
-0.20372
20
0.061618
11
-0.20372
21
0.178153
0
LINE
8
BLACK
6
CONTINUOUS
10
-0.20372
20
0.178153
11
-0.203432
21
0.178849
0
LINE
8
BLACK
6
CONTINUOUS
10
-0.203432
20
0.178849
11
-0.202736
21
0.179138
0
LINE
8
BLACK
6
CONTINUOUS
10
-0.202736
20
0.179138
11
-0.145256
21
0.179138
0
LINE
8
BLACK
6
CONTINUOUS
10
-0.145256
20
0.179138
11
-0.14456
21
0.178849
0
LINE
8
BLACK
6
CONTINUOUS
10
-0.14456
20
0.178849
11
-0.144272
21
0.178153
0
LINE
8
BLACK
6
CONTINUOUS
10
-0.144272
20
0.178153
11
-0.144272
21
0.061618
0
LINE
8
BLACK
6
CONTINUOUS
10
-0.144272
20
0.061618
11
-0.14456
21
0.060922
0
LINE
8
BLACK
6
CONTINUOUS
10
-0.14456
20
0.060922
11
-0.145256
21
0.0606337
0
LINE
8
BLACK
6
CONTINUOUS
10
-0.145256
20
0.0606337
11
-0.202736
21
0.0606337
0
LINE
8
BLACK
6
CONTINUOUS
10
-0.202736
20
0.0606337
11
-0.203432
21
0.060922
0
LINE
8
BLACK
6
CONTINUOUS
10
-0.201752
20
0.177169
11
-0.201752
21
0.0626022
0
LINE
8
BLACK
6
CONTINUOUS
10
-0.201752
20
0.0626022
11
-0.14624
21
0.0626022
0
LINE
8
BLACK
6
CONTINUOUS
10
-0.14624
20
0.0626022
11
-0.14624
21
0.177169
0
LINE
8
BLACK
6
CONTINUOUS
10
-0.14624
20
0.177169
11
-0.201752
21
0.177169
0
LINE
8
BLACK
6
CONTINUOUS
10
-0.611798
20
0.102654
11
-0.612087
21
0.10335
0
LINE
8
BLACK
6
CONTINUOUS
10
-0.612087
20
0.10335
11
-0.612087
21
0.237209
0
LINE
8
BLACK
6
CONTINUOUS
10
-0.612087
20
0.237209
11
-0.611798
21
0.237904
0
LINE
8
BLACK
6
CONTINUOUS
10
-0.611798
20
0.237904
11
-0.611102
21
0.238193
0
LINE
8
BLACK
6
CONTINUOUS
10
-0.611102
20
0.238193
11
-0.533937
21
0.238193
0
LINE
8
BLACK
6
CONTINUOUS
10
-0.533937
20
0.238193
11
-0.533241
21
0.237904
0
LINE
8
BLACK
6
CONTINUOUS
10
-0.533241
20
0.237904
11
-0.532953
21
0.237209
0
LINE
8
BLACK
6
CONTINUOUS
10
-0.532953
20
0.237209
11
-0.532953
21
0.10335
0
LINE
8
BLACK
6
CONTINUOUS
10
-0.532953
20
0.10335
11
-0.533241
21
0.102654
0
LINE
8
BLACK
6
CONTINUOUS
10
-0.533241
20
0.102654
11
-0.533937
21
0.102366
0
LINE
8
BLACK
6
CONTINUOUS
10
-0.533937
20
0.102366
11
-0.611102
21
0.102366
0
LINE
8
BLACK
6
CONTINUOUS
10
-0.611102
20
0.102366
11
-0.611798
21
0.102654
0
LINE
8
BLACK
6
CONTINUOUS
10
-0.610118
20
0.236224
11
-0.610118
21
0.104334
0
LINE
8
BLACK
6
CONTINUOUS
10
-0.610118
20
0.104334
11
-0.534921
21
0.104334
0
LINE
8
BLACK
6
CONTINUOUS
10
-0.534921
20
0.104334
11
-0.534921
21
0.236224
0
LINE
8
BLACK
6
CONTINUOUS
10
-0.534921
20
0.236224
11
-0.610118
21
0.236224
0
LINE
8
BLACK
6
CONTINUOUS
10
0.027178
20
0.161709
11
0.0268898
21
0.162405
0
LINE
8
BLACK
6
CONTINUOUS
10
0.0268898
20
0.162405
11
0.0268898
21
0.343508
0
LINE
8
BLACK
6
CONTINUOUS
10
0.0268898
20
0.343508
11
0.027178
21
0.344204
0
LINE
8
BLACK
6
CONTINUOUS
10
0.027178
20
0.344204
11
0.027874
21
0.344492
0
LINE
8
BLACK
6
CONTINUOUS
10
0.027874
20
0.344492
11
0.126299
21
0.344492
0
LINE
8
BLACK
6
CONTINUOUS
10
0.126299
20
0.344492
11
0.126995
21
0.344204
0
LINE
8
BLACK
6
CONTINUOUS
10
0.126995
20
0.344204
11
0.127283
21
0.343508
0
LINE
8
BLACK
6
CONTINUOUS
10
0.127283
20
0.343508
11
0.127283
21
0.162405
0
LINE
8
BLACK
6
CONTINUOUS
10
0.127283
20
0.162405
11
0.126995
21
0.161709
0
LINE
8
BLACK
6
CONTINUOUS
10
0.126995
20
0.161709
11
0.126299
21
0.161421
0
LINE
8
BLACK
6
CONTINUOUS
10
0.126299
20
0.161421
11
0.027874
21
0.161421
0
LINE
8
BLACK
6
CONTINUOUS
10
0.027874
20
0.161421
11
0.027178
21
0.161709
0
LINE
8
BLACK
6
CONTINUOUS
10
0.0288583
20
0.342523
11
0.0288583
21
0.16339
0
LINE
8
BLACK
6
CONTINUOUS
10
0.0288583
20
0.16339
11
0.125315
21
0.16339
0
LINE
8
BLACK
6
CONTINUOUS
10
0.125315
20
0.16339
11
0.125315
21
0.342523
0
LINE
8
BLACK
6
CONTINUOUS
10
0.125315
20
0.342523
11
0.0288583
21
0.342523
0
LINE
8
BLACK
6
CONTINUOUS
10
0.228753
20
0.189268
11
0.228465
21
0.189964
0
LINE
8
BLACK
6
CONTINUOUS
10
0.228465
20
0.189964
11
0.228465
21
0.323823
0
LINE
8
BLACK
6
CONTINUOUS
10
0.228465
20
0.323823
11
0.228753
21
0.324519
0
LINE
8
BLACK
6
CONTINUOUS
10
0.228753
20
0.324519
11
0.229449
21
0.324807
0
LINE
8
BLACK
6
CONTINUOUS
10
0.229449
20
0.324807
11
0.306614
21
0.324807
0
LINE
8
BLACK
6
CONTINUOUS
10
0.306614
20
0.324807
11
0.30731
21
0.324519
0
LINE
8
BLACK
6
CONTINUOUS
10
0.30731
20
0.324519
11
0.307598
21
0.323823
0
LINE
8
BLACK
6
CONTINUOUS
10
0.307598
20
0.323823
11
0.307598
21
0.189964
0
LINE
8
BLACK
6
CONTINUOUS
10
0.307598
20
0.189964
11
0.30731
21
0.189268
0
LINE
8
BLACK
6
CONTINUOUS
10
0.30731
20
0.189268
11
0.306614
21
0.18898
0
LINE
8
BLACK
6
CONTINUOUS
10
0.306614
20
0.18898
11
0.229449
21
0.18898
0
LINE
8
BLACK
6
CONTINUOUS
10
0.229449
20
0.18898
11
0.228753
21
0.189268
0
LINE
8
BLACK
6
CONTINUOUS
10
0.230433
20
0.322838
11
0.230433
21
0.190949
0
LINE
8
BLACK
6
CONTINUOUS
10
0.230433
20
0.190949
11
0.30563
21
0.190949
0
LINE
8
BLACK
6
CONTINUOUS
10
0.30563
20
0.190949
11
0.30563
21
0.322838
0
LINE
8
BLACK
6
CONTINUOUS
10
0.30563
20
0.322838
11
0.230433
21
0.322838
0
LINE
8
BLACK
6
CONTINUOUS
10
0.316548
20
0.190056
11
0.31626
21
0.190752
0
LINE
8
BLACK
6
CONTINUOUS
10
0.31626
20
0.190752
11
0.31626
21
0.323035
0
LINE
8
BLACK
6
CONTINUOUS
10
0.31626
20
0.323035
11
0.316548
21
0.323731
0
LINE
8
BLACK
6
CONTINUOUS
10
0.316548
20
0.323731
11
0.317244
21
0.32402
0
LINE
8
BLACK
6
CONTINUOUS
10
0.317244
20
0.32402
11
0.392047
21
0.32402
0
LINE
8
BLACK
6
CONTINUOUS
10
0.392047
20
0.32402
11
0.392743
21
0.323731
0
LINE
8
BLACK
6
CONTINUOUS
10
0.392743
20
0.323731
11
0.393031
21
0.323035
0
LINE
8
BLACK
6
CONTINUOUS
10
0.393031
20
0.323035
11
0.393031
21
0.190752
0
LINE
8
BLACK
6
CONTINUOUS
10
0.393031
20
0.190752
11
0.392743
21
0.190056
0
LINE
8
BLACK
6
CONTINUOUS
10
0.392743
20
0.190056
11
0.392047
21
0.189768
0
LINE
8
BLACK
6
CONTINUOUS
10
0.392047
20
0.189768
11
0.317244
21
0.189768
0
LINE
8
BLACK
6
CONTINUOUS
10
0.317244
20
0.189768
11
0.316548
21
0.190056
0
LINE
8
BLACK
6
CONTINUOUS
10
0.318228
20
0.322051
11
0.318228
21
0.191736
0
LINE
8
BLACK
6
CONTINUOUS
10
0.318228
20
0.191736
11
0.391063
21
0.191736
0
LINE
8
BLACK
6
CONTINUOUS
10
0.391063
20
0.191736
11
0.391063
21
0.322051
0
LINE
8
BLACK
6
CONTINUOUS
10
0.391063
20
0.322051
11
0.318228
21
0.322051
0
LINE
8
BLACK
6
CONTINUOUS
10
0.14332
20
0.190056
11
0.143031
21
0.190752
0
LINE
8
BLACK
6
CONTINUOUS
10
0.143031
20
0.190752
11
0.143031
21
0.323035
0
LINE
8
BLACK
6
CONTINUOUS
10
0.143031
20
0.323035
11
0.14332
21
0.323731
0
LINE
8
BLACK
6
CONTINUOUS
10
0.14332
20
0.323731
11
0.144016
21
0.32402
0
LINE
8
BLACK
6
CONTINUOUS
10
0.144016
20
0.32402
11
0.218819
21
0.32402
0
LINE
8
BLACK
6
CONTINUOUS
10
0.218819
20
0.32402
11
0.219515
21
0.323731
0
LINE
8
BLACK
6
CONTINUOUS
10
0.219515
20
0.323731
11
0.219803
21
0.323035
0
LINE
8
BLACK
6
CONTINUOUS
10
0.219803
20
0.323035
11
0.219803
21
0.190752
0
LINE
8
BLACK
6
CONTINUOUS
10
0.219803
20
0.190752
11
0.219515
21
0.190056
0
LINE
8
BLACK
6
CONTINUOUS
10
0.219515
20
0.190056
11
0.218819
21
0.189768
0
LINE
8
BLACK
6
CONTINUOUS
10
0.218819
20
0.189768
11
0.144016
21
0.189768
0
LINE
8
BLACK
6
CONTINUOUS
10
0.144016
20
0.189768
11
0.14332
21
0.190056
0
LINE
8
BLACK
6
CONTINUOUS
10
0.145
20
0.322051
11
0.145
21
0.191736
0
LINE
8
BLACK
6
CONTINUOUS
10
0.145
20
0.191736
11
0.217835
21
0.191736
0
LINE
8
BLACK
6
CONTINUOUS
10
0.217835
20
0.191736
11
0.217835
21
0.322051
0
LINE
8
BLACK
6
CONTINUOUS
10
0.217835
20
0.322051
11
0.145
21
0.322051
0
LINE
8
BLACK
6
CONTINUOUS
10
-0.214948
20
0.191237
11
-0.215236
21
0.191933
0
LINE
8
BLACK
6
CONTINUOUS
10
-0.215236
20
0.191933
11
-0.215236
21
0.333665
0
LINE
8
BLACK
6
CONTINUOUS
10
-0.215236
20
0.333665
11
-0.214948
21
0.334361
0
LINE
8
BLACK
6
CONTINUOUS
10
-0.214948
20
0.334361
11
-0.214252
21
0.334649
0
LINE
8
BLACK
6
CONTINUOUS
10
-0.214252
20
0.334649
11
-0.0646457
21
0.334649
0
LINE
8
BLACK
6
CONTINUOUS
10
-0.0646457
20
0.334649
11
-0.0639497
21
0.334361
0
LINE
8
BLACK
6
CONTINUOUS
10
-0.0639497
20
0.334361
11
-0.0636614
21
0.333665
0
LINE
8
BLACK
6
CONTINUOUS
10
-0.0636614
20
0.333665
11
-0.0636614
21
0.191933
0
LINE
8
BLACK
6
CONTINUOUS
10
-0.0636614
20
0.191933
11
-0.0639497
21
0.191237
0
LINE
8
BLACK
6
CONTINUOUS
10
-0.0639497
20
0.191237
11
-0.0646457
21
0.190949
0
LINE
8
BLACK
6
CONTINUOUS
10
-0.0646457
20
0.190949
11
-0.214252
21
0.190949
0
LINE
8
BLACK
6
CONTINUOUS
10
-0.214252
20
0.190949
11
-0.214948
21
0.191237
0
LINE
8
BLACK
6
CONTINUOUS
10
-0.213268
20
0.332681
11
-0.213268
21
0.192917
0
LINE
8
BLACK
6
CONTINUOUS
10
-0.213268
20
0.192917
11
-0.0656299
21
0.192917
0
LINE
8
BLACK
6
CONTINUOUS
10
-0.0656299
20
0.192917
11
-0.0656299
21
0.332681
0
LINE
8
BLACK
6
CONTINUOUS
10
-0.0656299
20
0.332681
11
-0.213268
21
0.332681
0
LINE
8
BLACK
6
CONTINUOUS
10
-0.0409322
20
0.207772
11
-0.0412205
21
0.208468
0
LINE
8
BLACK
6
CONTINUOUS
10
-0.0412205
20
0.208468
11
-0.0412205
21
0.325004
0
LINE
8
BLACK
6
CONTINUOUS
10
-0.0412205
20
0.325004
11
-0.0409322
21
0.3257
0
LINE
8
BLACK
6
CONTINUOUS
10
-0.0409322
20
0.3257
11
-0.0402362
21
0.325988
0
LINE
8
BLACK
6
CONTINUOUS
10
-0.0402362
20
0.325988
11
0.0172441
21
0.325988
0
LINE
8
BLACK
6
CONTINUOUS
10
0.0172441
20
0.325988
11
0.0179401
21
0.3257
0
LINE
8
BLACK
6
CONTINUOUS
10
0.0179401
20
0.3257
11
0.0182283
21
0.325004
0
LINE
8
BLACK
6
CONTINUOUS
10
0.0182283
20
0.325004
11
0.0182283
21
0.208468
0
LINE
8
BLACK
6
CONTINUOUS
10
0.0182283
20
0.208468
11
0.0179401
21
0.207772
0
LINE
8
BLACK
6
CONTINUOUS
10
0.0179401
20
0.207772
11
0.0172441
21
0.207484
0
LINE
8
BLACK
6
CONTINUOUS
10
0.0172441
20
0.207484
11
-0.0402362
21
0.207484
0
LINE
8
BLACK
6
CONTINUOUS
10
-0.0402362
20
0.207484
11
-0.0409322
21
0.207772
0
LINE
8
BLACK
6
CONTINUOUS
10
-0.039252
20
0.32402
11
-0.039252
21
0.209453
0
LINE
8
BLACK
6
CONTINUOUS
10
-0.039252
20
0.209453
11
0.0162598
21
0.209453
0
LINE
8
BLACK
6
CONTINUOUS
10
0.0162598
20
0.209453
11
0.0162598
21
0.32402
0
LINE
8
BLACK
6
CONTINUOUS
10
0.0162598
20
0.32402
11
-0.039252
21
0.32402
0
LINE
8
BLACK
6
CONTINUOUS
10
-0.611798
20
0.26289
11
-0.612087
21
0.263586
0
LINE
8
BLACK
6
CONTINUOUS
10
-0.612087
20
0.263586
11
-0.612087
21
0.321067
0
LINE
8
BLACK
6
CONTINUOUS
10
-0.612087
20
0.321067
11
-0.611798
21
0.321763
0
LINE
8
BLACK
6
CONTINUOUS
10
-0.611798
20
0.321763
11
-0.611102
21
0.322051
0
LINE
8
BLACK
6
CONTINUOUS
10
-0.611102
20
0.322051
11
-0.494567
21
0.322051
0
LINE
8
BLACK
6
CONTINUOUS
10
-0.494567
20
0.322051
11
-0.493871
21
0.321763
0
LINE
8
BLACK
6
CONTINUOUS
10
-0.493871
20
0.321763
11
-0.493583
21
0.321067
0
LINE
8
BLACK
6
CONTINUOUS
10
-0.493583
20
0.321067
11
-0.493583
21
0.263586
0
LINE
8
BLACK
6
CONTINUOUS
10
-0.493583
20
0.263586
11
-0.493871
21
0.26289
0
LINE
8
BLACK
6
CONTINUOUS
10
-0.493871
20
0.26289
11
-0.494567
21
0.262602
0
LINE
8
BLACK
6
CONTINUOUS
10
-0.494567
20
0.262602
11
-0.611102
21
0.262602
0
LINE
8
BLACK
6
CONTINUOUS
10
-0.611102
20
0.262602
11
-0.611798
21
0.26289
0
LINE
8
BLACK
6
CONTINUOUS
10
-0.610118
20
0.320083
11
-0.610118
21
0.264571
0
LINE
8
BLACK
6
CONTINUOUS
10
-0.610118
20
0.264571
11
-0.495551
21
0.264571
0
LINE
8
BLACK
6
CONTINUOUS
10
-0.495551
20
0.264571
11
-0.495551
21
0.320083
0
LINE
8
BLACK
6
CONTINUOUS
10
-0.495551
20
0.320083
11
-0.610118
21
0.320083
0
LINE
8
BLACK
6
CONTINUOUS
10
-0.351956
20
0.26289
11
-0.352244
21
0.263586
0
LINE
8
BLACK
6
CONTINUOUS
10
-0.352244
20
0.263586
11
-0.352244
21
0.321067
0
LINE
8
BLACK
6
CONTINUOUS
10
-0.352244
20
0.321067
11
-0.351956
21
0.321763
0
LINE
8
BLACK
6
CONTINUOUS
10
-0.351956
20
0.321763
11
-0.35126
21
0.322051
0
LINE
8
BLACK
6
CONTINUOUS
10
-0.35126
20
0.322051
11
-0.234724
21
0.322051
0
LINE
8
BLACK
6
CONTINUOUS
10
-0.234724
20
0.322051
11
-0.234028
21
0.321763
0
LINE
8
BLACK
6
CONTINUOUS
10
-0.234028
20
0.321763
11
-0.23374
21
0.321067
0
LINE
8
BLACK
6
CONTINUOUS
10
-0.23374
20
0.321067
11
-0.23374
21
0.263586
0
LINE
8
BLACK
6
CONTINUOUS
10
-0.23374
20
0.263586
11
-0.234028
21
0.26289
0
LINE
8
BLACK
6
CONTINUOUS
10
-0.234028
20
0.26289
11
-0.234724
21
0.262602
0
LINE
8
BLACK
6
CONTINUOUS
10
-0.234724
20
0.262602
11
-0.35126
21
0.262602
0
LINE
8
BLACK
6
CONTINUOUS
10
-0.35126
20
0.262602
11
-0.351956
21
0.26289
0
LINE
8
BLACK
6
CONTINUOUS
10
-0.350276
20
0.320083
11
-0.350276
21
0.264571
0
LINE
8
BLACK
6
CONTINUOUS
10
-0.350276
20
0.264571
11
-0.235709
21
0.264571
0
LINE
8
BLACK
6
CONTINUOUS
10
-0.235709
20
0.264571
11
-0.235709
21
0.320083
0
LINE
8
BLACK
6
CONTINUOUS
10
-0.235709
20
0.320083
11
-0.350276
21
0.320083
0
LINE
8
BLACK
6
CONTINUOUS
10
-0.483846
20
0.26289
11
-0.484134
21
0.263586
0
LINE
8
BLACK
6
CONTINUOUS
10
-0.484134
20
0.263586
11
-0.484134
21
0.321067
0
LINE
8
BLACK
6
CONTINUOUS
10
-0.484134
20
0.321067
11
-0.483846
21
0.321763
0
LINE
8
BLACK
6
CONTINUOUS
10
-0.483846
20
0.321763
11
-0.48315
21
0.322051
0
LINE
8
BLACK
6
CONTINUOUS
10
-0.48315
20
0.322051
11
-0.366614
21
0.322051
0
LINE
8
BLACK
6
CONTINUOUS
10
-0.366614
20
0.322051
11
-0.365918
21
0.321763
0
LINE
8
BLACK
6
CONTINUOUS
10
-0.365918
20
0.321763
11
-0.36563
21
0.321067
0
LINE
8
BLACK
6
CONTINUOUS
10
-0.36563
20
0.321067
11
-0.36563
21
0.263586
0
LINE
8
BLACK
6
CONTINUOUS
10
-0.36563
20
0.263586
11
-0.365918
21
0.26289
0
LINE
8
BLACK
6
CONTINUOUS
10
-0.365918
20
0.26289
11
-0.366614
21
0.262602
0
LINE
8
BLACK
6
CONTINUOUS
10
-0.366614
20
0.262602
11
-0.48315
21
0.262602
0
LINE
8
BLACK
6
CONTINUOUS
10
-0.48315
20
0.262602
11
-0.483846
21
0.26289
0
LINE
8
BLACK
6
CONTINUOUS
10
-0.482165
20
0.320083
11
-0.482165
21
0.264571
0
LINE
8
BLACK
6
CONTINUOUS
10
-0.482165
20
0.264571
11
-0.367598
21
0.264571
0
LINE
8
BLACK
6
CONTINUOUS
10
-0.367598
20
0.264571
11
-0.367598
21
0.320083
0
LINE
8
BLACK
6
CONTINUOUS
10
-0.367598
20
0.320083
11
-0.482165
21
0.320083
  0
ENDSEC
  0
EOF
