  0
SECTION
  2
HEADER
  9
$ANGBASE
  50
0.0
  9
$ANGDIR
  70
1
  9
$MEASUREMENT
  70
0
  0
ENDSEC
  0
SECTION
  2
TABLES
  0
TABLE
  2
LTYPE
  70
4
  0
LTYPE
  5
40F
  2
CONTINUOUS
  70
0
  3
Solid line
  72
65
  73
0
  40
0.0
  0
LTYPE
  5
410
  2
DASHDOT
 70
0
  3
Dash Dot ____ _ ____ _
 72
65
 73
4
 40
2.0
 49
1.25
 49
-0.25
 49
0.25
 49
-0.25
  0
LTYPE
  5
411
  2
DASHED
 70
0
  3
Dashed __ __ __ __ __
 72
65
 73
2
 40
0.75
 49
0.5
 49
-0.25
  0
LTYPE
  5
43B
  2
DOTTED
 70
0
  3
Dotted .  .  .  .
 72
65
 73
2
 40
0.2
 49
0.0
 49
-0.2
  0
ENDTAB
  0
TABLE
  2
STYLE
  70
4
  0
STYLE
  2
KICAD
  70
0
  40
0
  41
1
  42
1
  50
0
  71
0
  3
isocp.shx
  0
STYLE
  2
KICADB
  70
0
  40
0
  41
1
  42
1
  50
0
  71
0
  3
isocp.shx
  0
STYLE
  2
KICADI
  70
0
  40
0
  41
1
  42
1
  50
15
  71
0
  3
isocp.shx
  0
STYLE
  2
KICADBI
  70
0
  40
0
  41
1
  42
1
  50
15
  71
0
  3
isocp.shx
  0
ENDTAB
  0
TABLE
  2
LAYER
  70
1
  0
LAYER
  2
BLACK
  70
0
  62
7
  6
CONTINUOUS
  0
ENDTAB
  0
ENDSEC
  0
SECTION
  2
ENTITIES
0
LINE
8
BLACK
6
CONTINUOUS
10
0.626761
20
0.377885
11
0.626891
21
0.377908
0
LINE
8
BLACK
6
CONTINUOUS
10
0.626891
20
0.377908
11
0.627004
21
0.377842
0
LINE
8
BLACK
6
CONTINUOUS
10
0.627004
20
0.377842
11
0.627388
21
0.377775
0
LINE
8
BLACK
6
CONTINUOUS
10
0.627388
20
0.377775
11
0.627976
21
0.377282
0
LINE
8
BLACK
6
CONTINUOUS
10
0.627976
20
0.377282
11
0.62864
21
0.376898
0
LINE
8
BLACK
6
CONTINUOUS
10
0.62864
20
0.376898
11
0.628731
21
0.376648
0
LINE
8
BLACK
6
CONTINUOUS
10
0.628731
20
0.376648
11
0.628935
21
0.376476
0
LINE
8
BLACK
6
CONTINUOUS
10
0.628935
20
0.376476
11
0.629068
21
0.375721
0
LINE
8
BLACK
6
CONTINUOUS
10
0.629068
20
0.375721
11
0.629331
21
0.375
0
LINE
8
BLACK
6
CONTINUOUS
10
0.629331
20
0.375
11
0.629331
21
-0.373031
0
LINE
8
BLACK
6
CONTINUOUS
10
0.629331
20
-0.373031
11
0.629263
21
-0.373415
0
LINE
8
BLACK
6
CONTINUOUS
10
0.629263
20
-0.373415
11
0.629286
21
-0.373544
0
LINE
8
BLACK
6
CONTINUOUS
10
0.629286
20
-0.373544
11
0.62922
21
-0.373658
0
LINE
8
BLACK
6
CONTINUOUS
10
0.62922
20
-0.373658
11
0.629153
21
-0.374041
0
LINE
8
BLACK
6
CONTINUOUS
10
0.629153
20
-0.374041
11
0.628659
21
-0.374629
0
LINE
8
BLACK
6
CONTINUOUS
10
0.628659
20
-0.374629
11
0.628276
21
-0.375293
0
LINE
8
BLACK
6
CONTINUOUS
10
0.628276
20
-0.375293
11
0.628026
21
-0.375385
0
LINE
8
BLACK
6
CONTINUOUS
10
0.628026
20
-0.375385
11
0.627854
21
-0.375589
0
LINE
8
BLACK
6
CONTINUOUS
10
0.627854
20
-0.375589
11
0.627099
21
-0.375722
0
LINE
8
BLACK
6
CONTINUOUS
10
0.627099
20
-0.375722
11
0.626378
21
-0.375984
0
LINE
8
BLACK
6
CONTINUOUS
10
0.626378
20
-0.375984
11
-0.85
21
-0.375984
0
LINE
8
BLACK
6
CONTINUOUS
10
-0.85
20
-0.375984
11
-0.850384
21
-0.375917
0
LINE
8
BLACK
6
CONTINUOUS
10
-0.850384
20
-0.375917
11
-0.850513
21
-0.375939
0
LINE
8
BLACK
6
CONTINUOUS
10
-0.850513
20
-0.375939
11
-0.850626
21
-0.375874
0
LINE
8
BLACK
6
CONTINUOUS
10
-0.850626
20
-0.375874
11
-0.85101
21
-0.375806
0
LINE
8
BLACK
6
CONTINUOUS
10
-0.85101
20
-0.375806
11
-0.851598
21
-0.375313
0
LINE
8
BLACK
6
CONTINUOUS
10
-0.851598
20
-0.375313
11
-0.852262
21
-0.374929
0
LINE
8
BLACK
6
CONTINUOUS
10
-0.852262
20
-0.374929
11
-0.852353
21
-0.374679
0
LINE
8
BLACK
6
CONTINUOUS
10
-0.852353
20
-0.374679
11
-0.852557
21
-0.374508
0
LINE
8
BLACK
6
CONTINUOUS
10
-0.852557
20
-0.374508
11
-0.85269
21
-0.373752
0
LINE
8
BLACK
6
CONTINUOUS
10
-0.85269
20
-0.373752
11
-0.852953
21
-0.373031
0
LINE
8
BLACK
6
CONTINUOUS
10
-0.852953
20
-0.373031
11
-0.852953
21
0.375
0
LINE
8
BLACK
6
CONTINUOUS
10
-0.852953
20
0.375
11
-0.852885
21
0.375384
0
LINE
8
BLACK
6
CONTINUOUS
10
-0.852885
20
0.375384
11
-0.852908
21
0.375513
0
LINE
8
BLACK
6
CONTINUOUS
10
-0.852908
20
0.375513
11
-0.852842
21
0.375626
0
LINE
8
BLACK
6
CONTINUOUS
10
-0.852842
20
0.375626
11
-0.852775
21
0.37601
0
LINE
8
BLACK
6
CONTINUOUS
10
-0.852775
20
0.37601
11
-0.852282
21
0.376598
0
LINE
8
BLACK
6
CONTINUOUS
10
-0.852282
20
0.376598
11
-0.851898
21
0.377262
0
LINE
8
BLACK
6
CONTINUOUS
10
-0.851898
20
0.377262
11
-0.851648
21
0.377353
0
LINE
8
BLACK
6
CONTINUOUS
10
-0.851648
20
0.377353
11
-0.851476
21
0.377557
0
LINE
8
BLACK
6
CONTINUOUS
10
-0.851476
20
0.377557
11
-0.850721
21
0.37769
0
LINE
8
BLACK
6
CONTINUOUS
10
-0.850721
20
0.37769
11
-0.85
21
0.377953
0
LINE
8
BLACK
6
CONTINUOUS
10
-0.85
20
0.377953
11
0.626378
21
0.377953
0
LINE
8
BLACK
6
CONTINUOUS
10
0.626378
20
0.377953
11
0.626761
21
0.377885
0
LINE
8
BLACK
6
CONTINUOUS
10
-0.847047
20
0.372047
11
-0.847047
21
-0.370079
0
LINE
8
BLACK
6
CONTINUOUS
10
-0.847047
20
-0.370079
11
0.623425
21
-0.370079
0
LINE
8
BLACK
6
CONTINUOUS
10
0.623425
20
-0.370079
11
0.623425
21
0.372047
0
LINE
8
BLACK
6
CONTINUOUS
10
0.623425
20
0.372047
11
-0.847047
21
0.372047
  0
ENDSEC
  0
EOF
