  0
SECTION
  2
HEADER
  9
$ANGBASE
  50
0.0
  9
$ANGDIR
  70
1
  9
$MEASUREMENT
  70
0
  0
ENDSEC
  0
SECTION
  2
TABLES
  0
TABLE
  2
LTYPE
  70
4
  0
LTYPE
  5
40F
  2
CONTINUOUS
  70
0
  3
Solid line
  72
65
  73
0
  40
0.0
  0
LTYPE
  5
410
  2
DASHDOT
 70
0
  3
Dash Dot ____ _ ____ _
 72
65
 73
4
 40
2.0
 49
1.25
 49
-0.25
 49
0.25
 49
-0.25
  0
LTYPE
  5
411
  2
DASHED
 70
0
  3
Dashed __ __ __ __ __
 72
65
 73
2
 40
0.75
 49
0.5
 49
-0.25
  0
LTYPE
  5
43B
  2
DOTTED
 70
0
  3
Dotted .  .  .  .
 72
65
 73
2
 40
0.2
 49
0.0
 49
-0.2
  0
ENDTAB
  0
TABLE
  2
STYLE
  70
4
  0
STYLE
  2
KICAD
  70
0
  40
0
  41
1
  42
1
  50
0
  71
0
  3
isocp.shx
  0
STYLE
  2
KICADB
  70
0
  40
0
  41
1
  42
1
  50
0
  71
0
  3
isocp.shx
  0
STYLE
  2
KICADI
  70
0
  40
0
  41
1
  42
1
  50
15
  71
0
  3
isocp.shx
  0
STYLE
  2
KICADBI
  70
0
  40
0
  41
1
  42
1
  50
15
  71
0
  3
isocp.shx
  0
ENDTAB
  0
TABLE
  2
LAYER
  70
1
  0
LAYER
  2
BLACK
  70
0
  62
7
  6
CONTINUOUS
  0
ENDTAB
  0
ENDSEC
  0
SECTION
  2
ENTITIES
0
LINE
8
BLACK
6
CONTINUOUS
10
-0.732428
20
-0.30716
11
-0.727458
21
-0.308906
0
LINE
8
BLACK
6
CONTINUOUS
10
-0.727458
20
-0.308906
11
-0.723221
21
-0.312036
0
LINE
8
BLACK
6
CONTINUOUS
10
-0.723221
20
-0.312036
11
-0.720091
21
-0.316273
0
LINE
8
BLACK
6
CONTINUOUS
10
-0.720091
20
-0.316273
11
-0.718345
21
-0.321243
0
LINE
8
BLACK
6
CONTINUOUS
10
-0.718345
20
-0.321243
11
-0.718031
21
-0.324563
0
LINE
8
BLACK
6
CONTINUOUS
10
-0.718031
20
-0.324563
11
-0.718031
21
-0.344248
0
LINE
8
BLACK
6
CONTINUOUS
10
-0.718031
20
-0.344248
11
-0.718345
21
-0.347568
0
LINE
8
BLACK
6
CONTINUOUS
10
-0.718345
20
-0.347568
11
-0.720091
21
-0.352538
0
LINE
8
BLACK
6
CONTINUOUS
10
-0.720091
20
-0.352538
11
-0.723221
21
-0.356776
0
LINE
8
BLACK
6
CONTINUOUS
10
-0.723221
20
-0.356776
11
-0.727458
21
-0.359905
0
LINE
8
BLACK
6
CONTINUOUS
10
-0.727458
20
-0.359905
11
-0.732428
21
-0.361651
0
LINE
8
BLACK
6
CONTINUOUS
10
-0.732428
20
-0.361651
11
-0.735748
21
-0.361965
0
LINE
8
BLACK
6
CONTINUOUS
10
-0.735748
20
-0.361965
11
-0.822362
21
-0.361965
0
LINE
8
BLACK
6
CONTINUOUS
10
-0.822362
20
-0.361965
11
-0.825682
21
-0.361651
0
LINE
8
BLACK
6
CONTINUOUS
10
-0.825682
20
-0.361651
11
-0.830652
21
-0.359905
0
LINE
8
BLACK
6
CONTINUOUS
10
-0.830652
20
-0.359905
11
-0.83489
21
-0.356776
0
LINE
8
BLACK
6
CONTINUOUS
10
-0.83489
20
-0.356776
11
-0.838019
21
-0.352538
0
LINE
8
BLACK
6
CONTINUOUS
10
-0.838019
20
-0.352538
11
-0.839765
21
-0.347568
0
LINE
8
BLACK
6
CONTINUOUS
10
-0.839765
20
-0.347568
11
-0.840079
21
-0.344248
0
LINE
8
BLACK
6
CONTINUOUS
10
-0.840079
20
-0.344248
11
-0.840079
21
-0.324563
0
LINE
8
BLACK
6
CONTINUOUS
10
-0.840079
20
-0.324563
11
-0.839765
21
-0.321243
0
LINE
8
BLACK
6
CONTINUOUS
10
-0.839765
20
-0.321243
11
-0.838019
21
-0.316273
0
LINE
8
BLACK
6
CONTINUOUS
10
-0.838019
20
-0.316273
11
-0.83489
21
-0.312036
0
LINE
8
BLACK
6
CONTINUOUS
10
-0.83489
20
-0.312036
11
-0.830652
21
-0.308906
0
LINE
8
BLACK
6
CONTINUOUS
10
-0.830652
20
-0.308906
11
-0.825682
21
-0.30716
0
LINE
8
BLACK
6
CONTINUOUS
10
-0.825682
20
-0.30716
11
-0.822362
21
-0.306847
0
LINE
8
BLACK
6
CONTINUOUS
10
-0.822362
20
-0.306847
11
-0.735748
21
-0.306847
0
LINE
8
BLACK
6
CONTINUOUS
10
-0.735748
20
-0.306847
11
-0.732428
21
-0.30716
0
LINE
8
BLACK
6
CONTINUOUS
10
0.165013
20
-0.29574
11
0.169678
21
-0.298117
0
LINE
8
BLACK
6
CONTINUOUS
10
0.169678
20
-0.298117
11
0.173379
21
-0.301819
0
LINE
8
BLACK
6
CONTINUOUS
10
0.173379
20
-0.301819
11
0.175756
21
-0.306483
0
LINE
8
BLACK
6
CONTINUOUS
10
0.175756
20
-0.306483
11
0.176575
21
-0.311654
0
LINE
8
BLACK
6
CONTINUOUS
10
0.176575
20
-0.311654
11
0.176575
21
-0.32937
0
LINE
8
BLACK
6
CONTINUOUS
10
0.176575
20
-0.32937
11
0.175756
21
-0.334541
0
LINE
8
BLACK
6
CONTINUOUS
10
0.175756
20
-0.334541
11
0.173379
21
-0.339205
0
LINE
8
BLACK
6
CONTINUOUS
10
0.173379
20
-0.339205
11
0.169678
21
-0.342907
0
LINE
8
BLACK
6
CONTINUOUS
10
0.169678
20
-0.342907
11
0.165013
21
-0.345283
0
LINE
8
BLACK
6
CONTINUOUS
10
0.165013
20
-0.345283
11
0.159843
21
-0.346102
0
LINE
8
BLACK
6
CONTINUOUS
10
0.159843
20
-0.346102
11
0.140157
21
-0.346102
0
LINE
8
BLACK
6
CONTINUOUS
10
0.140157
20
-0.346102
11
0.134987
21
-0.345283
0
LINE
8
BLACK
6
CONTINUOUS
10
0.134987
20
-0.345283
11
0.130322
21
-0.342907
0
LINE
8
BLACK
6
CONTINUOUS
10
0.130322
20
-0.342907
11
0.126621
21
-0.339205
0
LINE
8
BLACK
6
CONTINUOUS
10
0.126621
20
-0.339205
11
0.124244
21
-0.334541
0
LINE
8
BLACK
6
CONTINUOUS
10
0.124244
20
-0.334541
11
0.123425
21
-0.32937
0
LINE
8
BLACK
6
CONTINUOUS
10
0.123425
20
-0.32937
11
0.123425
21
-0.311654
0
LINE
8
BLACK
6
CONTINUOUS
10
0.123425
20
-0.311654
11
0.124244
21
-0.306483
0
LINE
8
BLACK
6
CONTINUOUS
10
0.124244
20
-0.306483
11
0.126621
21
-0.301819
0
LINE
8
BLACK
6
CONTINUOUS
10
0.126621
20
-0.301819
11
0.130322
21
-0.298117
0
LINE
8
BLACK
6
CONTINUOUS
10
0.130322
20
-0.298117
11
0.134987
21
-0.29574
0
LINE
8
BLACK
6
CONTINUOUS
10
0.134987
20
-0.29574
11
0.140157
21
-0.294921
0
LINE
8
BLACK
6
CONTINUOUS
10
0.140157
20
-0.294921
11
0.159843
21
-0.294921
0
LINE
8
BLACK
6
CONTINUOUS
10
0.159843
20
-0.294921
11
0.165013
21
-0.29574
0
LINE
8
BLACK
6
CONTINUOUS
10
-0.544438
20
-0.286213
11
-0.538237
21
-0.288421
0
LINE
8
BLACK
6
CONTINUOUS
10
-0.538237
20
-0.288421
11
-0.532679
21
-0.291949
0
LINE
8
BLACK
6
CONTINUOUS
10
-0.532679
20
-0.291949
11
-0.528041
21
-0.29662
0
LINE
8
BLACK
6
CONTINUOUS
10
-0.528041
20
-0.29662
11
-0.524552
21
-0.302202
0
LINE
8
BLACK
6
CONTINUOUS
10
-0.524552
20
-0.302202
11
-0.522387
21
-0.308419
0
LINE
8
BLACK
6
CONTINUOUS
10
-0.522387
20
-0.308419
11
-0.521654
21
-0.314961
0
LINE
8
BLACK
6
CONTINUOUS
10
-0.521654
20
-0.314961
11
-0.521665
21
-0.315785
0
LINE
8
BLACK
6
CONTINUOUS
10
-0.521665
20
-0.315785
11
-0.522581
21
-0.322304
0
LINE
8
BLACK
6
CONTINUOUS
10
-0.522581
20
-0.322304
11
-0.524919
21
-0.328458
0
LINE
8
BLACK
6
CONTINUOUS
10
-0.524919
20
-0.328458
11
-0.528562
21
-0.333941
0
LINE
8
BLACK
6
CONTINUOUS
10
-0.528562
20
-0.333941
11
-0.533329
21
-0.33848
0
LINE
8
BLACK
6
CONTINUOUS
10
-0.533329
20
-0.33848
11
-0.538983
21
-0.341851
0
LINE
8
BLACK
6
CONTINUOUS
10
-0.538983
20
-0.341851
11
-0.545244
21
-0.343885
0
LINE
8
BLACK
6
CONTINUOUS
10
-0.545244
20
-0.343885
11
-0.551799
21
-0.344482
0
LINE
8
BLACK
6
CONTINUOUS
10
-0.551799
20
-0.344482
11
-0.558324
21
-0.343611
0
LINE
8
BLACK
6
CONTINUOUS
10
-0.558324
20
-0.343611
11
-0.564494
21
-0.341316
0
LINE
8
BLACK
6
CONTINUOUS
10
-0.564494
20
-0.341316
11
-0.570003
21
-0.337712
0
LINE
8
BLACK
6
CONTINUOUS
10
-0.570003
20
-0.337712
11
-0.574575
21
-0.332977
0
LINE
8
BLACK
6
CONTINUOUS
10
-0.574575
20
-0.332977
11
-0.577986
21
-0.327346
0
LINE
8
BLACK
6
CONTINUOUS
10
-0.577986
20
-0.327346
11
-0.580063
21
-0.3211
0
LINE
8
BLACK
6
CONTINUOUS
10
-0.580063
20
-0.3211
11
-0.580706
21
-0.314548
0
LINE
8
BLACK
6
CONTINUOUS
10
-0.580706
20
-0.314548
11
-0.579881
21
-0.308017
0
LINE
8
BLACK
6
CONTINUOUS
10
-0.579881
20
-0.308017
11
-0.577629
21
-0.301832
0
LINE
8
BLACK
6
CONTINUOUS
10
-0.577629
20
-0.301832
11
-0.574063
21
-0.296298
0
LINE
8
BLACK
6
CONTINUOUS
10
-0.574063
20
-0.296298
11
-0.56936
21
-0.291693
0
LINE
8
BLACK
6
CONTINUOUS
10
-0.56936
20
-0.291693
11
-0.563753
21
-0.288243
0
LINE
8
BLACK
6
CONTINUOUS
10
-0.563753
20
-0.288243
11
-0.557522
21
-0.286122
0
LINE
8
BLACK
6
CONTINUOUS
10
-0.557522
20
-0.286122
11
-0.550975
21
-0.285434
0
LINE
8
BLACK
6
CONTINUOUS
10
-0.550975
20
-0.285434
11
-0.544438
21
-0.286213
0
LINE
8
BLACK
6
CONTINUOUS
10
-0.144307
20
-0.289629
11
-0.139917
21
-0.291866
0
LINE
8
BLACK
6
CONTINUOUS
10
-0.139917
20
-0.291866
11
-0.136433
21
-0.29535
0
LINE
8
BLACK
6
CONTINUOUS
10
-0.136433
20
-0.29535
11
-0.134196
21
-0.29974
0
LINE
8
BLACK
6
CONTINUOUS
10
-0.134196
20
-0.29974
11
-0.133425
21
-0.304606
0
LINE
8
BLACK
6
CONTINUOUS
10
-0.133425
20
-0.304606
11
-0.133425
21
-0.320354
0
LINE
8
BLACK
6
CONTINUOUS
10
-0.133425
20
-0.320354
11
-0.134196
21
-0.325221
0
LINE
8
BLACK
6
CONTINUOUS
10
-0.134196
20
-0.325221
11
-0.136433
21
-0.329611
0
LINE
8
BLACK
6
CONTINUOUS
10
-0.136433
20
-0.329611
11
-0.139917
21
-0.333095
0
LINE
8
BLACK
6
CONTINUOUS
10
-0.139917
20
-0.333095
11
-0.144307
21
-0.335332
0
LINE
8
BLACK
6
CONTINUOUS
10
-0.144307
20
-0.335332
11
-0.149173
21
-0.336102
0
LINE
8
BLACK
6
CONTINUOUS
10
-0.149173
20
-0.336102
11
-0.170827
21
-0.336102
0
LINE
8
BLACK
6
CONTINUOUS
10
-0.170827
20
-0.336102
11
-0.175693
21
-0.335332
0
LINE
8
BLACK
6
CONTINUOUS
10
-0.175693
20
-0.335332
11
-0.180083
21
-0.333095
0
LINE
8
BLACK
6
CONTINUOUS
10
-0.180083
20
-0.333095
11
-0.183567
21
-0.329611
0
LINE
8
BLACK
6
CONTINUOUS
10
-0.183567
20
-0.329611
11
-0.185804
21
-0.325221
0
LINE
8
BLACK
6
CONTINUOUS
10
-0.185804
20
-0.325221
11
-0.186575
21
-0.320354
0
LINE
8
BLACK
6
CONTINUOUS
10
-0.186575
20
-0.320354
11
-0.186575
21
-0.304606
0
LINE
8
BLACK
6
CONTINUOUS
10
-0.186575
20
-0.304606
11
-0.185804
21
-0.29974
0
LINE
8
BLACK
6
CONTINUOUS
10
-0.185804
20
-0.29974
11
-0.183567
21
-0.29535
0
LINE
8
BLACK
6
CONTINUOUS
10
-0.183567
20
-0.29535
11
-0.180083
21
-0.291866
0
LINE
8
BLACK
6
CONTINUOUS
10
-0.180083
20
-0.291866
11
-0.175693
21
-0.289629
0
LINE
8
BLACK
6
CONTINUOUS
10
-0.175693
20
-0.289629
11
-0.170827
21
-0.288858
0
LINE
8
BLACK
6
CONTINUOUS
10
-0.170827
20
-0.288858
11
-0.149173
21
-0.288858
0
LINE
8
BLACK
6
CONTINUOUS
10
-0.149173
20
-0.288858
11
-0.144307
21
-0.289629
0
LINE
8
BLACK
6
CONTINUOUS
10
-0.224307
20
-0.289629
11
-0.219917
21
-0.291866
0
LINE
8
BLACK
6
CONTINUOUS
10
-0.219917
20
-0.291866
11
-0.216433
21
-0.29535
0
LINE
8
BLACK
6
CONTINUOUS
10
-0.216433
20
-0.29535
11
-0.214196
21
-0.29974
0
LINE
8
BLACK
6
CONTINUOUS
10
-0.214196
20
-0.29974
11
-0.213425
21
-0.304606
0
LINE
8
BLACK
6
CONTINUOUS
10
-0.213425
20
-0.304606
11
-0.213425
21
-0.320354
0
LINE
8
BLACK
6
CONTINUOUS
10
-0.213425
20
-0.320354
11
-0.214196
21
-0.325221
0
LINE
8
BLACK
6
CONTINUOUS
10
-0.214196
20
-0.325221
11
-0.216433
21
-0.329611
0
LINE
8
BLACK
6
CONTINUOUS
10
-0.216433
20
-0.329611
11
-0.219917
21
-0.333095
0
LINE
8
BLACK
6
CONTINUOUS
10
-0.219917
20
-0.333095
11
-0.224307
21
-0.335332
0
LINE
8
BLACK
6
CONTINUOUS
10
-0.224307
20
-0.335332
11
-0.229173
21
-0.336102
0
LINE
8
BLACK
6
CONTINUOUS
10
-0.229173
20
-0.336102
11
-0.250827
21
-0.336102
0
LINE
8
BLACK
6
CONTINUOUS
10
-0.250827
20
-0.336102
11
-0.255693
21
-0.335332
0
LINE
8
BLACK
6
CONTINUOUS
10
-0.255693
20
-0.335332
11
-0.260083
21
-0.333095
0
LINE
8
BLACK
6
CONTINUOUS
10
-0.260083
20
-0.333095
11
-0.263567
21
-0.329611
0
LINE
8
BLACK
6
CONTINUOUS
10
-0.263567
20
-0.329611
11
-0.265804
21
-0.325221
0
LINE
8
BLACK
6
CONTINUOUS
10
-0.265804
20
-0.325221
11
-0.266575
21
-0.320354
0
LINE
8
BLACK
6
CONTINUOUS
10
-0.266575
20
-0.320354
11
-0.266575
21
-0.304606
0
LINE
8
BLACK
6
CONTINUOUS
10
-0.266575
20
-0.304606
11
-0.265804
21
-0.29974
0
LINE
8
BLACK
6
CONTINUOUS
10
-0.265804
20
-0.29974
11
-0.263567
21
-0.29535
0
LINE
8
BLACK
6
CONTINUOUS
10
-0.263567
20
-0.29535
11
-0.260083
21
-0.291866
0
LINE
8
BLACK
6
CONTINUOUS
10
-0.260083
20
-0.291866
11
-0.255693
21
-0.289629
0
LINE
8
BLACK
6
CONTINUOUS
10
-0.255693
20
-0.289629
11
-0.250827
21
-0.288858
0
LINE
8
BLACK
6
CONTINUOUS
10
-0.250827
20
-0.288858
11
-0.229173
21
-0.288858
0
LINE
8
BLACK
6
CONTINUOUS
10
-0.229173
20
-0.288858
11
-0.224307
21
-0.289629
0
LINE
8
BLACK
6
CONTINUOUS
10
0.265297
20
-0.287446
11
0.267851
21
-0.289153
0
LINE
8
BLACK
6
CONTINUOUS
10
0.267851
20
-0.289153
11
0.269558
21
-0.291707
0
LINE
8
BLACK
6
CONTINUOUS
10
0.269558
20
-0.291707
11
0.270157
21
-0.294721
0
LINE
8
BLACK
6
CONTINUOUS
10
0.270157
20
-0.294721
11
0.270157
21
-0.320311
0
LINE
8
BLACK
6
CONTINUOUS
10
0.270157
20
-0.320311
11
0.269558
21
-0.323324
0
LINE
8
BLACK
6
CONTINUOUS
10
0.269558
20
-0.323324
11
0.267851
21
-0.325879
0
LINE
8
BLACK
6
CONTINUOUS
10
0.267851
20
-0.325879
11
0.265297
21
-0.327586
0
LINE
8
BLACK
6
CONTINUOUS
10
0.265297
20
-0.327586
11
0.262283
21
-0.328185
0
LINE
8
BLACK
6
CONTINUOUS
10
0.262283
20
-0.328185
11
0.246535
21
-0.328185
0
LINE
8
BLACK
6
CONTINUOUS
10
0.246535
20
-0.328185
11
0.243522
21
-0.327586
0
LINE
8
BLACK
6
CONTINUOUS
10
0.243522
20
-0.327586
11
0.240968
21
-0.325879
0
LINE
8
BLACK
6
CONTINUOUS
10
0.240968
20
-0.325879
11
0.239261
21
-0.323324
0
LINE
8
BLACK
6
CONTINUOUS
10
0.239261
20
-0.323324
11
0.238661
21
-0.320311
0
LINE
8
BLACK
6
CONTINUOUS
10
0.238661
20
-0.320311
11
0.238661
21
-0.294721
0
LINE
8
BLACK
6
CONTINUOUS
10
0.238661
20
-0.294721
11
0.239261
21
-0.291707
0
LINE
8
BLACK
6
CONTINUOUS
10
0.239261
20
-0.291707
11
0.240968
21
-0.289153
0
LINE
8
BLACK
6
CONTINUOUS
10
0.240968
20
-0.289153
11
0.243522
21
-0.287446
0
LINE
8
BLACK
6
CONTINUOUS
10
0.243522
20
-0.287446
11
0.246535
21
-0.286847
0
LINE
8
BLACK
6
CONTINUOUS
10
0.246535
20
-0.286847
11
0.262283
21
-0.286847
0
LINE
8
BLACK
6
CONTINUOUS
10
0.262283
20
-0.286847
11
0.265297
21
-0.287446
0
LINE
8
BLACK
6
CONTINUOUS
10
0.316478
20
-0.287446
11
0.319032
21
-0.289153
0
LINE
8
BLACK
6
CONTINUOUS
10
0.319032
20
-0.289153
11
0.320739
21
-0.291707
0
LINE
8
BLACK
6
CONTINUOUS
10
0.320739
20
-0.291707
11
0.321339
21
-0.294721
0
LINE
8
BLACK
6
CONTINUOUS
10
0.321339
20
-0.294721
11
0.321339
21
-0.320311
0
LINE
8
BLACK
6
CONTINUOUS
10
0.321339
20
-0.320311
11
0.320739
21
-0.323324
0
LINE
8
BLACK
6
CONTINUOUS
10
0.320739
20
-0.323324
11
0.319032
21
-0.325879
0
LINE
8
BLACK
6
CONTINUOUS
10
0.319032
20
-0.325879
11
0.316478
21
-0.327586
0
LINE
8
BLACK
6
CONTINUOUS
10
0.316478
20
-0.327586
11
0.313465
21
-0.328185
0
LINE
8
BLACK
6
CONTINUOUS
10
0.313465
20
-0.328185
11
0.297717
21
-0.328185
0
LINE
8
BLACK
6
CONTINUOUS
10
0.297717
20
-0.328185
11
0.294703
21
-0.327586
0
LINE
8
BLACK
6
CONTINUOUS
10
0.294703
20
-0.327586
11
0.292149
21
-0.325879
0
LINE
8
BLACK
6
CONTINUOUS
10
0.292149
20
-0.325879
11
0.290442
21
-0.323324
0
LINE
8
BLACK
6
CONTINUOUS
10
0.290442
20
-0.323324
11
0.289843
21
-0.320311
0
LINE
8
BLACK
6
CONTINUOUS
10
0.289843
20
-0.320311
11
0.289843
21
-0.294721
0
LINE
8
BLACK
6
CONTINUOUS
10
0.289843
20
-0.294721
11
0.290442
21
-0.291707
0
LINE
8
BLACK
6
CONTINUOUS
10
0.290442
20
-0.291707
11
0.292149
21
-0.289153
0
LINE
8
BLACK
6
CONTINUOUS
10
0.292149
20
-0.289153
11
0.294703
21
-0.287446
0
LINE
8
BLACK
6
CONTINUOUS
10
0.294703
20
-0.287446
11
0.297717
21
-0.286847
0
LINE
8
BLACK
6
CONTINUOUS
10
0.297717
20
-0.286847
11
0.313465
21
-0.286847
0
LINE
8
BLACK
6
CONTINUOUS
10
0.313465
20
-0.286847
11
0.316478
21
-0.287446
0
LINE
8
BLACK
6
CONTINUOUS
10
-0.435176
20
-0.238788
11
-0.432621
21
-0.240495
0
LINE
8
BLACK
6
CONTINUOUS
10
-0.432621
20
-0.240495
11
-0.430914
21
-0.24305
0
LINE
8
BLACK
6
CONTINUOUS
10
-0.430914
20
-0.24305
11
-0.430315
21
-0.246063
0
LINE
8
BLACK
6
CONTINUOUS
10
-0.430315
20
-0.246063
11
-0.430315
21
-0.305118
0
LINE
8
BLACK
6
CONTINUOUS
10
-0.430315
20
-0.305118
11
-0.430914
21
-0.308131
0
LINE
8
BLACK
6
CONTINUOUS
10
-0.430914
20
-0.308131
11
-0.432621
21
-0.310686
0
LINE
8
BLACK
6
CONTINUOUS
10
-0.432621
20
-0.310686
11
-0.435176
21
-0.312393
0
LINE
8
BLACK
6
CONTINUOUS
10
-0.435176
20
-0.312393
11
-0.438189
21
-0.312992
0
LINE
8
BLACK
6
CONTINUOUS
10
-0.438189
20
-0.312992
11
-0.497244
21
-0.312992
0
LINE
8
BLACK
6
CONTINUOUS
10
-0.497244
20
-0.312992
11
-0.500257
21
-0.312393
0
LINE
8
BLACK
6
CONTINUOUS
10
-0.500257
20
-0.312393
11
-0.502812
21
-0.310686
0
LINE
8
BLACK
6
CONTINUOUS
10
-0.502812
20
-0.310686
11
-0.504519
21
-0.308131
0
LINE
8
BLACK
6
CONTINUOUS
10
-0.504519
20
-0.308131
11
-0.505118
21
-0.305118
0
LINE
8
BLACK
6
CONTINUOUS
10
-0.505118
20
-0.305118
11
-0.505118
21
-0.246063
0
LINE
8
BLACK
6
CONTINUOUS
10
-0.505118
20
-0.246063
11
-0.504519
21
-0.24305
0
LINE
8
BLACK
6
CONTINUOUS
10
-0.504519
20
-0.24305
11
-0.502812
21
-0.240495
0
LINE
8
BLACK
6
CONTINUOUS
10
-0.502812
20
-0.240495
11
-0.500257
21
-0.238788
0
LINE
8
BLACK
6
CONTINUOUS
10
-0.500257
20
-0.238788
11
-0.497244
21
-0.238189
0
LINE
8
BLACK
6
CONTINUOUS
10
-0.497244
20
-0.238189
11
-0.438189
21
-0.238189
0
LINE
8
BLACK
6
CONTINUOUS
10
-0.438189
20
-0.238189
11
-0.435176
21
-0.238788
0
LINE
8
BLACK
6
CONTINUOUS
10
-0.287144
20
-0.238788
11
-0.28459
21
-0.240495
0
LINE
8
BLACK
6
CONTINUOUS
10
-0.28459
20
-0.240495
11
-0.282883
21
-0.24305
0
LINE
8
BLACK
6
CONTINUOUS
10
-0.282883
20
-0.24305
11
-0.282283
21
-0.246063
0
LINE
8
BLACK
6
CONTINUOUS
10
-0.282283
20
-0.246063
11
-0.282283
21
-0.305118
0
LINE
8
BLACK
6
CONTINUOUS
10
-0.282283
20
-0.305118
11
-0.282883
21
-0.308131
0
LINE
8
BLACK
6
CONTINUOUS
10
-0.282883
20
-0.308131
11
-0.28459
21
-0.310686
0
LINE
8
BLACK
6
CONTINUOUS
10
-0.28459
20
-0.310686
11
-0.287144
21
-0.312393
0
LINE
8
BLACK
6
CONTINUOUS
10
-0.287144
20
-0.312393
11
-0.290157
21
-0.312992
0
LINE
8
BLACK
6
CONTINUOUS
10
-0.290157
20
-0.312992
11
-0.349213
21
-0.312992
0
LINE
8
BLACK
6
CONTINUOUS
10
-0.349213
20
-0.312992
11
-0.352226
21
-0.312393
0
LINE
8
BLACK
6
CONTINUOUS
10
-0.352226
20
-0.312393
11
-0.35478
21
-0.310686
0
LINE
8
BLACK
6
CONTINUOUS
10
-0.35478
20
-0.310686
11
-0.356487
21
-0.308131
0
LINE
8
BLACK
6
CONTINUOUS
10
-0.356487
20
-0.308131
11
-0.357087
21
-0.305118
0
LINE
8
BLACK
6
CONTINUOUS
10
-0.357087
20
-0.305118
11
-0.357087
21
-0.246063
0
LINE
8
BLACK
6
CONTINUOUS
10
-0.357087
20
-0.246063
11
-0.356487
21
-0.24305
0
LINE
8
BLACK
6
CONTINUOUS
10
-0.356487
20
-0.24305
11
-0.35478
21
-0.240495
0
LINE
8
BLACK
6
CONTINUOUS
10
-0.35478
20
-0.240495
11
-0.352226
21
-0.238788
0
LINE
8
BLACK
6
CONTINUOUS
10
-0.352226
20
-0.238788
11
-0.349213
21
-0.238189
0
LINE
8
BLACK
6
CONTINUOUS
10
-0.349213
20
-0.238189
11
-0.290157
21
-0.238189
0
LINE
8
BLACK
6
CONTINUOUS
10
-0.290157
20
-0.238189
11
-0.287144
21
-0.238788
0
LINE
8
BLACK
6
CONTINUOUS
10
0.106557
20
-0.238788
11
0.109111
21
-0.240495
0
LINE
8
BLACK
6
CONTINUOUS
10
0.109111
20
-0.240495
11
0.110818
21
-0.24305
0
LINE
8
BLACK
6
CONTINUOUS
10
0.110818
20
-0.24305
11
0.111417
21
-0.246063
0
LINE
8
BLACK
6
CONTINUOUS
10
0.111417
20
-0.246063
11
0.111417
21
-0.305118
0
LINE
8
BLACK
6
CONTINUOUS
10
0.111417
20
-0.305118
11
0.110818
21
-0.308131
0
LINE
8
BLACK
6
CONTINUOUS
10
0.110818
20
-0.308131
11
0.109111
21
-0.310686
0
LINE
8
BLACK
6
CONTINUOUS
10
0.109111
20
-0.310686
11
0.106557
21
-0.312393
0
LINE
8
BLACK
6
CONTINUOUS
10
0.106557
20
-0.312393
11
0.103543
21
-0.312992
0
LINE
8
BLACK
6
CONTINUOUS
10
0.103543
20
-0.312992
11
0.0444882
21
-0.312992
0
LINE
8
BLACK
6
CONTINUOUS
10
0.0444882
20
-0.312992
11
0.0414749
21
-0.312393
0
LINE
8
BLACK
6
CONTINUOUS
10
0.0414749
20
-0.312393
11
0.0389204
21
-0.310686
0
LINE
8
BLACK
6
CONTINUOUS
10
0.0389204
20
-0.310686
11
0.0372135
21
-0.308131
0
LINE
8
BLACK
6
CONTINUOUS
10
0.0372135
20
-0.308131
11
0.0366142
21
-0.305118
0
LINE
8
BLACK
6
CONTINUOUS
10
0.0366142
20
-0.305118
11
0.0366142
21
-0.246063
0
LINE
8
BLACK
6
CONTINUOUS
10
0.0366142
20
-0.246063
11
0.0372135
21
-0.24305
0
LINE
8
BLACK
6
CONTINUOUS
10
0.0372135
20
-0.24305
11
0.0389204
21
-0.240495
0
LINE
8
BLACK
6
CONTINUOUS
10
0.0389204
20
-0.240495
11
0.0414749
21
-0.238788
0
LINE
8
BLACK
6
CONTINUOUS
10
0.0414749
20
-0.238788
11
0.0444882
21
-0.238189
0
LINE
8
BLACK
6
CONTINUOUS
10
0.0444882
20
-0.238189
11
0.103543
21
-0.238189
0
LINE
8
BLACK
6
CONTINUOUS
10
0.103543
20
-0.238189
11
0.106557
21
-0.238788
0
LINE
8
BLACK
6
CONTINUOUS
10
-0.0414749
20
-0.238788
11
-0.0389204
21
-0.240495
0
LINE
8
BLACK
6
CONTINUOUS
10
-0.0389204
20
-0.240495
11
-0.0372135
21
-0.24305
0
LINE
8
BLACK
6
CONTINUOUS
10
-0.0372135
20
-0.24305
11
-0.0366142
21
-0.246063
0
LINE
8
BLACK
6
CONTINUOUS
10
-0.0366142
20
-0.246063
11
-0.0366142
21
-0.305118
0
LINE
8
BLACK
6
CONTINUOUS
10
-0.0366142
20
-0.305118
11
-0.0372135
21
-0.308131
0
LINE
8
BLACK
6
CONTINUOUS
10
-0.0372135
20
-0.308131
11
-0.0389204
21
-0.310686
0
LINE
8
BLACK
6
CONTINUOUS
10
-0.0389204
20
-0.310686
11
-0.0414749
21
-0.312393
0
LINE
8
BLACK
6
CONTINUOUS
10
-0.0414749
20
-0.312393
11
-0.0444882
21
-0.312992
0
LINE
8
BLACK
6
CONTINUOUS
10
-0.0444882
20
-0.312992
11
-0.103543
21
-0.312992
0
LINE
8
BLACK
6
CONTINUOUS
10
-0.103543
20
-0.312992
11
-0.106557
21
-0.312393
0
LINE
8
BLACK
6
CONTINUOUS
10
-0.106557
20
-0.312393
11
-0.109111
21
-0.310686
0
LINE
8
BLACK
6
CONTINUOUS
10
-0.109111
20
-0.310686
11
-0.110818
21
-0.308131
0
LINE
8
BLACK
6
CONTINUOUS
10
-0.110818
20
-0.308131
11
-0.111417
21
-0.305118
0
LINE
8
BLACK
6
CONTINUOUS
10
-0.111417
20
-0.305118
11
-0.111417
21
-0.246063
0
LINE
8
BLACK
6
CONTINUOUS
10
-0.111417
20
-0.246063
11
-0.110818
21
-0.24305
0
LINE
8
BLACK
6
CONTINUOUS
10
-0.110818
20
-0.24305
11
-0.109111
21
-0.240495
0
LINE
8
BLACK
6
CONTINUOUS
10
-0.109111
20
-0.240495
11
-0.106557
21
-0.238788
0
LINE
8
BLACK
6
CONTINUOUS
10
-0.106557
20
-0.238788
11
-0.103543
21
-0.238189
0
LINE
8
BLACK
6
CONTINUOUS
10
-0.103543
20
-0.238189
11
-0.0444882
21
-0.238189
0
LINE
8
BLACK
6
CONTINUOUS
10
-0.0444882
20
-0.238189
11
-0.0414749
21
-0.238788
0
LINE
8
BLACK
6
CONTINUOUS
10
0.538239
20
-0.246843
11
0.54444
21
-0.249051
0
LINE
8
BLACK
6
CONTINUOUS
10
0.54444
20
-0.249051
11
0.549998
21
-0.252579
0
LINE
8
BLACK
6
CONTINUOUS
10
0.549998
20
-0.252579
11
0.554637
21
-0.25725
0
LINE
8
BLACK
6
CONTINUOUS
10
0.554637
20
-0.25725
11
0.558125
21
-0.262832
0
LINE
8
BLACK
6
CONTINUOUS
10
0.558125
20
-0.262832
11
0.56029
21
-0.269049
0
LINE
8
BLACK
6
CONTINUOUS
10
0.56029
20
-0.269049
11
0.561024
21
-0.275591
0
LINE
8
BLACK
6
CONTINUOUS
10
0.561024
20
-0.275591
11
0.561012
21
-0.276415
0
LINE
8
BLACK
6
CONTINUOUS
10
0.561012
20
-0.276415
11
0.560096
21
-0.282934
0
LINE
8
BLACK
6
CONTINUOUS
10
0.560096
20
-0.282934
11
0.557758
21
-0.289088
0
LINE
8
BLACK
6
CONTINUOUS
10
0.557758
20
-0.289088
11
0.554115
21
-0.294571
0
LINE
8
BLACK
6
CONTINUOUS
10
0.554115
20
-0.294571
11
0.549348
21
-0.29911
0
LINE
8
BLACK
6
CONTINUOUS
10
0.549348
20
-0.29911
11
0.543694
21
-0.302481
0
LINE
8
BLACK
6
CONTINUOUS
10
0.543694
20
-0.302481
11
0.537433
21
-0.304515
0
LINE
8
BLACK
6
CONTINUOUS
10
0.537433
20
-0.304515
11
0.530878
21
-0.305112
0
LINE
8
BLACK
6
CONTINUOUS
10
0.530878
20
-0.305112
11
0.524353
21
-0.304241
0
LINE
8
BLACK
6
CONTINUOUS
10
0.524353
20
-0.304241
11
0.518183
21
-0.301946
0
LINE
8
BLACK
6
CONTINUOUS
10
0.518183
20
-0.301946
11
0.512674
21
-0.298342
0
LINE
8
BLACK
6
CONTINUOUS
10
0.512674
20
-0.298342
11
0.508102
21
-0.293607
0
LINE
8
BLACK
6
CONTINUOUS
10
0.508102
20
-0.293607
11
0.504692
21
-0.287976
0
LINE
8
BLACK
6
CONTINUOUS
10
0.504692
20
-0.287976
11
0.502614
21
-0.28173
0
LINE
8
BLACK
6
CONTINUOUS
10
0.502614
20
-0.28173
11
0.501971
21
-0.275178
0
LINE
8
BLACK
6
CONTINUOUS
10
0.501971
20
-0.275178
11
0.502796
21
-0.268647
0
LINE
8
BLACK
6
CONTINUOUS
10
0.502796
20
-0.268647
11
0.505048
21
-0.262462
0
LINE
8
BLACK
6
CONTINUOUS
10
0.505048
20
-0.262462
11
0.508614
21
-0.256928
0
LINE
8
BLACK
6
CONTINUOUS
10
0.508614
20
-0.256928
11
0.513317
21
-0.252323
0
LINE
8
BLACK
6
CONTINUOUS
10
0.513317
20
-0.252323
11
0.518924
21
-0.248873
0
LINE
8
BLACK
6
CONTINUOUS
10
0.518924
20
-0.248873
11
0.525155
21
-0.246752
0
LINE
8
BLACK
6
CONTINUOUS
10
0.525155
20
-0.246752
11
0.531702
21
-0.246064
0
LINE
8
BLACK
6
CONTINUOUS
10
0.531702
20
-0.246064
11
0.538239
21
-0.246843
0
LINE
8
BLACK
6
CONTINUOUS
10
0.165013
20
-0.234717
11
0.169678
21
-0.237093
0
LINE
8
BLACK
6
CONTINUOUS
10
0.169678
20
-0.237093
11
0.173379
21
-0.240795
0
LINE
8
BLACK
6
CONTINUOUS
10
0.173379
20
-0.240795
11
0.175756
21
-0.245459
0
LINE
8
BLACK
6
CONTINUOUS
10
0.175756
20
-0.245459
11
0.176575
21
-0.25063
0
LINE
8
BLACK
6
CONTINUOUS
10
0.176575
20
-0.25063
11
0.176575
21
-0.268346
0
LINE
8
BLACK
6
CONTINUOUS
10
0.176575
20
-0.268346
11
0.175756
21
-0.273517
0
LINE
8
BLACK
6
CONTINUOUS
10
0.175756
20
-0.273517
11
0.173379
21
-0.278181
0
LINE
8
BLACK
6
CONTINUOUS
10
0.173379
20
-0.278181
11
0.169678
21
-0.281883
0
LINE
8
BLACK
6
CONTINUOUS
10
0.169678
20
-0.281883
11
0.165013
21
-0.28426
0
LINE
8
BLACK
6
CONTINUOUS
10
0.165013
20
-0.28426
11
0.159843
21
-0.285079
0
LINE
8
BLACK
6
CONTINUOUS
10
0.159843
20
-0.285079
11
0.140157
21
-0.285079
0
LINE
8
BLACK
6
CONTINUOUS
10
0.140157
20
-0.285079
11
0.134987
21
-0.28426
0
LINE
8
BLACK
6
CONTINUOUS
10
0.134987
20
-0.28426
11
0.130322
21
-0.281883
0
LINE
8
BLACK
6
CONTINUOUS
10
0.130322
20
-0.281883
11
0.126621
21
-0.278181
0
LINE
8
BLACK
6
CONTINUOUS
10
0.126621
20
-0.278181
11
0.124244
21
-0.273517
0
LINE
8
BLACK
6
CONTINUOUS
10
0.124244
20
-0.273517
11
0.123425
21
-0.268346
0
LINE
8
BLACK
6
CONTINUOUS
10
0.123425
20
-0.268346
11
0.123425
21
-0.25063
0
LINE
8
BLACK
6
CONTINUOUS
10
0.123425
20
-0.25063
11
0.124244
21
-0.245459
0
LINE
8
BLACK
6
CONTINUOUS
10
0.124244
20
-0.245459
11
0.126621
21
-0.240795
0
LINE
8
BLACK
6
CONTINUOUS
10
0.126621
20
-0.240795
11
0.130322
21
-0.237093
0
LINE
8
BLACK
6
CONTINUOUS
10
0.130322
20
-0.237093
11
0.134987
21
-0.234717
0
LINE
8
BLACK
6
CONTINUOUS
10
0.134987
20
-0.234717
11
0.140157
21
-0.233898
0
LINE
8
BLACK
6
CONTINUOUS
10
0.140157
20
-0.233898
11
0.159843
21
-0.233898
0
LINE
8
BLACK
6
CONTINUOUS
10
0.159843
20
-0.233898
11
0.165013
21
-0.234717
0
LINE
8
BLACK
6
CONTINUOUS
10
-0.621575
20
-0.24246
11
-0.61751
21
-0.244447
0
LINE
8
BLACK
6
CONTINUOUS
10
-0.61751
20
-0.244447
11
-0.614308
21
-0.247644
0
LINE
8
BLACK
6
CONTINUOUS
10
-0.614308
20
-0.247644
11
-0.612313
21
-0.251706
0
LINE
8
BLACK
6
CONTINUOUS
10
-0.612313
20
-0.251706
11
-0.611732
21
-0.255666
0
LINE
8
BLACK
6
CONTINUOUS
10
-0.611732
20
-0.255666
11
-0.611732
21
-0.267477
0
LINE
8
BLACK
6
CONTINUOUS
10
-0.611732
20
-0.267477
11
-0.612307
21
-0.271413
0
LINE
8
BLACK
6
CONTINUOUS
10
-0.612307
20
-0.271413
11
-0.614294
21
-0.275478
0
LINE
8
BLACK
6
CONTINUOUS
10
-0.614294
20
-0.275478
11
-0.61749
21
-0.278681
0
LINE
8
BLACK
6
CONTINUOUS
10
-0.61749
20
-0.278681
11
-0.621552
21
-0.280675
0
LINE
8
BLACK
6
CONTINUOUS
10
-0.621552
20
-0.280675
11
-0.625512
21
-0.281256
0
LINE
8
BLACK
6
CONTINUOUS
10
-0.625512
20
-0.281256
11
-0.68063
21
-0.281256
0
LINE
8
BLACK
6
CONTINUOUS
10
-0.68063
20
-0.281256
11
-0.684567
21
-0.280682
0
LINE
8
BLACK
6
CONTINUOUS
10
-0.684567
20
-0.280682
11
-0.688632
21
-0.278695
0
LINE
8
BLACK
6
CONTINUOUS
10
-0.688632
20
-0.278695
11
-0.691834
21
-0.275498
0
LINE
8
BLACK
6
CONTINUOUS
10
-0.691834
20
-0.275498
11
-0.693828
21
-0.271436
0
LINE
8
BLACK
6
CONTINUOUS
10
-0.693828
20
-0.271436
11
-0.694409
21
-0.267477
0
LINE
8
BLACK
6
CONTINUOUS
10
-0.694409
20
-0.267477
11
-0.694409
21
-0.255666
0
LINE
8
BLACK
6
CONTINUOUS
10
-0.694409
20
-0.255666
11
-0.693835
21
-0.251729
0
LINE
8
BLACK
6
CONTINUOUS
10
-0.693835
20
-0.251729
11
-0.691848
21
-0.247664
0
LINE
8
BLACK
6
CONTINUOUS
10
-0.691848
20
-0.247664
11
-0.688651
21
-0.244461
0
LINE
8
BLACK
6
CONTINUOUS
10
-0.688651
20
-0.244461
11
-0.68459
21
-0.242467
0
LINE
8
BLACK
6
CONTINUOUS
10
-0.68459
20
-0.242467
11
-0.68063
21
-0.241886
0
LINE
8
BLACK
6
CONTINUOUS
10
-0.68063
20
-0.241886
11
-0.625512
21
-0.241886
0
LINE
8
BLACK
6
CONTINUOUS
10
-0.625512
20
-0.241886
11
-0.621575
21
-0.24246
0
LINE
8
BLACK
6
CONTINUOUS
10
-0.224307
20
-0.224668
11
-0.219917
21
-0.226905
0
LINE
8
BLACK
6
CONTINUOUS
10
-0.219917
20
-0.226905
11
-0.216433
21
-0.230389
0
LINE
8
BLACK
6
CONTINUOUS
10
-0.216433
20
-0.230389
11
-0.214196
21
-0.234779
0
LINE
8
BLACK
6
CONTINUOUS
10
-0.214196
20
-0.234779
11
-0.213425
21
-0.239646
0
LINE
8
BLACK
6
CONTINUOUS
10
-0.213425
20
-0.239646
11
-0.213425
21
-0.255394
0
LINE
8
BLACK
6
CONTINUOUS
10
-0.213425
20
-0.255394
11
-0.214196
21
-0.26026
0
LINE
8
BLACK
6
CONTINUOUS
10
-0.214196
20
-0.26026
11
-0.216433
21
-0.26465
0
LINE
8
BLACK
6
CONTINUOUS
10
-0.216433
20
-0.26465
11
-0.219917
21
-0.268134
0
LINE
8
BLACK
6
CONTINUOUS
10
-0.219917
20
-0.268134
11
-0.224307
21
-0.270371
0
LINE
8
BLACK
6
CONTINUOUS
10
-0.224307
20
-0.270371
11
-0.229173
21
-0.271142
0
LINE
8
BLACK
6
CONTINUOUS
10
-0.229173
20
-0.271142
11
-0.250827
21
-0.271142
0
LINE
8
BLACK
6
CONTINUOUS
10
-0.250827
20
-0.271142
11
-0.255693
21
-0.270371
0
LINE
8
BLACK
6
CONTINUOUS
10
-0.255693
20
-0.270371
11
-0.260083
21
-0.268134
0
LINE
8
BLACK
6
CONTINUOUS
10
-0.260083
20
-0.268134
11
-0.263567
21
-0.26465
0
LINE
8
BLACK
6
CONTINUOUS
10
-0.263567
20
-0.26465
11
-0.265804
21
-0.26026
0
LINE
8
BLACK
6
CONTINUOUS
10
-0.265804
20
-0.26026
11
-0.266575
21
-0.255394
0
LINE
8
BLACK
6
CONTINUOUS
10
-0.266575
20
-0.255394
11
-0.266575
21
-0.239646
0
LINE
8
BLACK
6
CONTINUOUS
10
-0.266575
20
-0.239646
11
-0.265804
21
-0.234779
0
LINE
8
BLACK
6
CONTINUOUS
10
-0.265804
20
-0.234779
11
-0.263567
21
-0.230389
0
LINE
8
BLACK
6
CONTINUOUS
10
-0.263567
20
-0.230389
11
-0.260083
21
-0.226905
0
LINE
8
BLACK
6
CONTINUOUS
10
-0.260083
20
-0.226905
11
-0.255693
21
-0.224668
0
LINE
8
BLACK
6
CONTINUOUS
10
-0.255693
20
-0.224668
11
-0.250827
21
-0.223898
0
LINE
8
BLACK
6
CONTINUOUS
10
-0.250827
20
-0.223898
11
-0.229173
21
-0.223898
0
LINE
8
BLACK
6
CONTINUOUS
10
-0.229173
20
-0.223898
11
-0.224307
21
-0.224668
0
LINE
8
BLACK
6
CONTINUOUS
10
-0.144307
20
-0.224668
11
-0.139917
21
-0.226905
0
LINE
8
BLACK
6
CONTINUOUS
10
-0.139917
20
-0.226905
11
-0.136433
21
-0.230389
0
LINE
8
BLACK
6
CONTINUOUS
10
-0.136433
20
-0.230389
11
-0.134196
21
-0.234779
0
LINE
8
BLACK
6
CONTINUOUS
10
-0.134196
20
-0.234779
11
-0.133425
21
-0.239646
0
LINE
8
BLACK
6
CONTINUOUS
10
-0.133425
20
-0.239646
11
-0.133425
21
-0.255394
0
LINE
8
BLACK
6
CONTINUOUS
10
-0.133425
20
-0.255394
11
-0.134196
21
-0.26026
0
LINE
8
BLACK
6
CONTINUOUS
10
-0.134196
20
-0.26026
11
-0.136433
21
-0.26465
0
LINE
8
BLACK
6
CONTINUOUS
10
-0.136433
20
-0.26465
11
-0.139917
21
-0.268134
0
LINE
8
BLACK
6
CONTINUOUS
10
-0.139917
20
-0.268134
11
-0.144307
21
-0.270371
0
LINE
8
BLACK
6
CONTINUOUS
10
-0.144307
20
-0.270371
11
-0.149173
21
-0.271142
0
LINE
8
BLACK
6
CONTINUOUS
10
-0.149173
20
-0.271142
11
-0.170827
21
-0.271142
0
LINE
8
BLACK
6
CONTINUOUS
10
-0.170827
20
-0.271142
11
-0.175693
21
-0.270371
0
LINE
8
BLACK
6
CONTINUOUS
10
-0.175693
20
-0.270371
11
-0.180083
21
-0.268134
0
LINE
8
BLACK
6
CONTINUOUS
10
-0.180083
20
-0.268134
11
-0.183567
21
-0.26465
0
LINE
8
BLACK
6
CONTINUOUS
10
-0.183567
20
-0.26465
11
-0.185804
21
-0.26026
0
LINE
8
BLACK
6
CONTINUOUS
10
-0.185804
20
-0.26026
11
-0.186575
21
-0.255394
0
LINE
8
BLACK
6
CONTINUOUS
10
-0.186575
20
-0.255394
11
-0.186575
21
-0.239646
0
LINE
8
BLACK
6
CONTINUOUS
10
-0.186575
20
-0.239646
11
-0.185804
21
-0.234779
0
LINE
8
BLACK
6
CONTINUOUS
10
-0.185804
20
-0.234779
11
-0.183567
21
-0.230389
0
LINE
8
BLACK
6
CONTINUOUS
10
-0.183567
20
-0.230389
11
-0.180083
21
-0.226905
0
LINE
8
BLACK
6
CONTINUOUS
10
-0.180083
20
-0.226905
11
-0.175693
21
-0.224668
0
LINE
8
BLACK
6
CONTINUOUS
10
-0.175693
20
-0.224668
11
-0.170827
21
-0.223898
0
LINE
8
BLACK
6
CONTINUOUS
10
-0.170827
20
-0.223898
11
-0.149173
21
-0.223898
0
LINE
8
BLACK
6
CONTINUOUS
10
-0.149173
20
-0.223898
11
-0.144307
21
-0.224668
0
LINE
8
BLACK
6
CONTINUOUS
10
0.265297
20
-0.212643
11
0.267205
21
-0.213918
0
LINE
8
BLACK
6
CONTINUOUS
10
0.267205
20
-0.213918
11
0.269113
21
-0.212643
0
LINE
8
BLACK
6
CONTINUOUS
10
0.269113
20
-0.212643
11
0.272126
21
-0.212043
0
LINE
8
BLACK
6
CONTINUOUS
10
0.272126
20
-0.212043
11
0.287874
21
-0.212043
0
LINE
8
BLACK
6
CONTINUOUS
10
0.287874
20
-0.212043
11
0.290887
21
-0.212643
0
LINE
8
BLACK
6
CONTINUOUS
10
0.290887
20
-0.212643
11
0.292795
21
-0.213918
0
LINE
8
BLACK
6
CONTINUOUS
10
0.292795
20
-0.213918
11
0.294703
21
-0.212643
0
LINE
8
BLACK
6
CONTINUOUS
10
0.294703
20
-0.212643
11
0.297717
21
-0.212043
0
LINE
8
BLACK
6
CONTINUOUS
10
0.297717
20
-0.212043
11
0.313465
21
-0.212043
0
LINE
8
BLACK
6
CONTINUOUS
10
0.313465
20
-0.212043
11
0.316478
21
-0.212643
0
LINE
8
BLACK
6
CONTINUOUS
10
0.316478
20
-0.212643
11
0.319032
21
-0.21435
0
LINE
8
BLACK
6
CONTINUOUS
10
0.319032
20
-0.21435
11
0.320739
21
-0.216904
0
LINE
8
BLACK
6
CONTINUOUS
10
0.320739
20
-0.216904
11
0.321339
21
-0.219917
0
LINE
8
BLACK
6
CONTINUOUS
10
0.321339
20
-0.219917
11
0.321339
21
-0.245508
0
LINE
8
BLACK
6
CONTINUOUS
10
0.321339
20
-0.245508
11
0.320739
21
-0.248521
0
LINE
8
BLACK
6
CONTINUOUS
10
0.320739
20
-0.248521
11
0.319032
21
-0.251076
0
LINE
8
BLACK
6
CONTINUOUS
10
0.319032
20
-0.251076
11
0.316478
21
-0.252783
0
LINE
8
BLACK
6
CONTINUOUS
10
0.316478
20
-0.252783
11
0.313465
21
-0.253382
0
LINE
8
BLACK
6
CONTINUOUS
10
0.313465
20
-0.253382
11
0.297717
21
-0.253382
0
LINE
8
BLACK
6
CONTINUOUS
10
0.297717
20
-0.253382
11
0.294703
21
-0.252783
0
LINE
8
BLACK
6
CONTINUOUS
10
0.294703
20
-0.252783
11
0.292795
21
-0.251508
0
LINE
8
BLACK
6
CONTINUOUS
10
0.292795
20
-0.251508
11
0.290887
21
-0.252783
0
LINE
8
BLACK
6
CONTINUOUS
10
0.290887
20
-0.252783
11
0.287874
21
-0.253382
0
LINE
8
BLACK
6
CONTINUOUS
10
0.287874
20
-0.253382
11
0.272126
21
-0.253382
0
LINE
8
BLACK
6
CONTINUOUS
10
0.272126
20
-0.253382
11
0.269113
21
-0.252783
0
LINE
8
BLACK
6
CONTINUOUS
10
0.269113
20
-0.252783
11
0.267205
21
-0.251508
0
LINE
8
BLACK
6
CONTINUOUS
10
0.267205
20
-0.251508
11
0.265297
21
-0.252783
0
LINE
8
BLACK
6
CONTINUOUS
10
0.265297
20
-0.252783
11
0.262283
21
-0.253382
0
LINE
8
BLACK
6
CONTINUOUS
10
0.262283
20
-0.253382
11
0.246535
21
-0.253382
0
LINE
8
BLACK
6
CONTINUOUS
10
0.246535
20
-0.253382
11
0.243522
21
-0.252783
0
LINE
8
BLACK
6
CONTINUOUS
10
0.243522
20
-0.252783
11
0.240968
21
-0.251076
0
LINE
8
BLACK
6
CONTINUOUS
10
0.240968
20
-0.251076
11
0.239261
21
-0.248521
0
LINE
8
BLACK
6
CONTINUOUS
10
0.239261
20
-0.248521
11
0.238661
21
-0.245508
0
LINE
8
BLACK
6
CONTINUOUS
10
0.238661
20
-0.245508
11
0.238661
21
-0.219917
0
LINE
8
BLACK
6
CONTINUOUS
10
0.238661
20
-0.219917
11
0.239261
21
-0.216904
0
LINE
8
BLACK
6
CONTINUOUS
10
0.239261
20
-0.216904
11
0.240968
21
-0.21435
0
LINE
8
BLACK
6
CONTINUOUS
10
0.240968
20
-0.21435
11
0.243522
21
-0.212643
0
LINE
8
BLACK
6
CONTINUOUS
10
0.243522
20
-0.212643
11
0.246535
21
-0.212043
0
LINE
8
BLACK
6
CONTINUOUS
10
0.246535
20
-0.212043
11
0.262283
21
-0.212043
0
LINE
8
BLACK
6
CONTINUOUS
10
0.262283
20
-0.212043
11
0.265297
21
-0.212643
0
LINE
8
BLACK
6
CONTINUOUS
10
-0.621575
20
-0.193248
11
-0.61751
21
-0.195235
0
LINE
8
BLACK
6
CONTINUOUS
10
-0.61751
20
-0.195235
11
-0.614308
21
-0.198432
0
LINE
8
BLACK
6
CONTINUOUS
10
-0.614308
20
-0.198432
11
-0.612313
21
-0.202493
0
LINE
8
BLACK
6
CONTINUOUS
10
-0.612313
20
-0.202493
11
-0.611732
21
-0.206453
0
LINE
8
BLACK
6
CONTINUOUS
10
-0.611732
20
-0.206453
11
-0.611732
21
-0.218264
0
LINE
8
BLACK
6
CONTINUOUS
10
-0.611732
20
-0.218264
11
-0.612307
21
-0.222201
0
LINE
8
BLACK
6
CONTINUOUS
10
-0.612307
20
-0.222201
11
-0.614294
21
-0.226266
0
LINE
8
BLACK
6
CONTINUOUS
10
-0.614294
20
-0.226266
11
-0.61749
21
-0.229468
0
LINE
8
BLACK
6
CONTINUOUS
10
-0.61749
20
-0.229468
11
-0.621552
21
-0.231462
0
LINE
8
BLACK
6
CONTINUOUS
10
-0.621552
20
-0.231462
11
-0.625512
21
-0.232043
0
LINE
8
BLACK
6
CONTINUOUS
10
-0.625512
20
-0.232043
11
-0.68063
21
-0.232043
0
LINE
8
BLACK
6
CONTINUOUS
10
-0.68063
20
-0.232043
11
-0.684567
21
-0.231469
0
LINE
8
BLACK
6
CONTINUOUS
10
-0.684567
20
-0.231469
11
-0.688632
21
-0.229482
0
LINE
8
BLACK
6
CONTINUOUS
10
-0.688632
20
-0.229482
11
-0.691834
21
-0.226285
0
LINE
8
BLACK
6
CONTINUOUS
10
-0.691834
20
-0.226285
11
-0.693828
21
-0.222224
0
LINE
8
BLACK
6
CONTINUOUS
10
-0.693828
20
-0.222224
11
-0.694409
21
-0.218264
0
LINE
8
BLACK
6
CONTINUOUS
10
-0.694409
20
-0.218264
11
-0.694409
21
-0.206453
0
LINE
8
BLACK
6
CONTINUOUS
10
-0.694409
20
-0.206453
11
-0.693835
21
-0.202516
0
LINE
8
BLACK
6
CONTINUOUS
10
-0.693835
20
-0.202516
11
-0.691848
21
-0.198451
0
LINE
8
BLACK
6
CONTINUOUS
10
-0.691848
20
-0.198451
11
-0.688651
21
-0.195249
0
LINE
8
BLACK
6
CONTINUOUS
10
-0.688651
20
-0.195249
11
-0.68459
21
-0.193255
0
LINE
8
BLACK
6
CONTINUOUS
10
-0.68459
20
-0.193255
11
-0.68063
21
-0.192673
0
LINE
8
BLACK
6
CONTINUOUS
10
-0.68063
20
-0.192673
11
-0.625512
21
-0.192673
0
LINE
8
BLACK
6
CONTINUOUS
10
-0.625512
20
-0.192673
11
-0.621575
21
-0.193248
0
LINE
8
BLACK
6
CONTINUOUS
10
-0.386325
20
-0.0846464
11
-0.380795
21
-0.0866373
0
LINE
8
BLACK
6
CONTINUOUS
10
-0.380795
20
-0.0866373
11
-0.376004
21
-0.090042
0
LINE
8
BLACK
6
CONTINUOUS
10
-0.376004
20
-0.090042
11
-0.372305
21
-0.0946096
0
LINE
8
BLACK
6
CONTINUOUS
10
-0.372305
20
-0.0946096
11
-0.369971
21
-0.100004
0
LINE
8
BLACK
6
CONTINUOUS
10
-0.369971
20
-0.100004
11
-0.369173
21
-0.105827
0
LINE
8
BLACK
6
CONTINUOUS
10
-0.369173
20
-0.105827
11
-0.369173
21
-0.18063
0
LINE
8
BLACK
6
CONTINUOUS
10
-0.369173
20
-0.18063
11
-0.369406
21
-0.183793
0
LINE
8
BLACK
6
CONTINUOUS
10
-0.369406
20
-0.183793
11
-0.371045
21
-0.189437
0
LINE
8
BLACK
6
CONTINUOUS
10
-0.371045
20
-0.189437
11
-0.374142
21
-0.194432
0
LINE
8
BLACK
6
CONTINUOUS
10
-0.374142
20
-0.194432
11
-0.378469
21
-0.198411
0
LINE
8
BLACK
6
CONTINUOUS
10
-0.378469
20
-0.198411
11
-0.383706
21
-0.201079
0
LINE
8
BLACK
6
CONTINUOUS
10
-0.383706
20
-0.201079
11
-0.389467
21
-0.202241
0
LINE
8
BLACK
6
CONTINUOUS
10
-0.389467
20
-0.202241
11
-0.395329
21
-0.20181
0
LINE
8
BLACK
6
CONTINUOUS
10
-0.395329
20
-0.20181
11
-0.400859
21
-0.199819
0
LINE
8
BLACK
6
CONTINUOUS
10
-0.400859
20
-0.199819
11
-0.40565
21
-0.196415
0
LINE
8
BLACK
6
CONTINUOUS
10
-0.40565
20
-0.196415
11
-0.409348
21
-0.191847
0
LINE
8
BLACK
6
CONTINUOUS
10
-0.409348
20
-0.191847
11
-0.411683
21
-0.186453
0
LINE
8
BLACK
6
CONTINUOUS
10
-0.411683
20
-0.186453
11
-0.41248
21
-0.18063
0
LINE
8
BLACK
6
CONTINUOUS
10
-0.41248
20
-0.18063
11
-0.41248
21
-0.105827
0
LINE
8
BLACK
6
CONTINUOUS
10
-0.41248
20
-0.105827
11
-0.412248
21
-0.102664
0
LINE
8
BLACK
6
CONTINUOUS
10
-0.412248
20
-0.102664
11
-0.410608
21
-0.0970195
0
LINE
8
BLACK
6
CONTINUOUS
10
-0.410608
20
-0.0970195
11
-0.407511
21
-0.0920243
0
LINE
8
BLACK
6
CONTINUOUS
10
-0.407511
20
-0.0920243
11
-0.403185
21
-0.088046
0
LINE
8
BLACK
6
CONTINUOUS
10
-0.403185
20
-0.088046
11
-0.397948
21
-0.0853777
0
LINE
8
BLACK
6
CONTINUOUS
10
-0.397948
20
-0.0853777
11
-0.392186
21
-0.0842159
0
LINE
8
BLACK
6
CONTINUOUS
10
-0.392186
20
-0.0842159
11
-0.386325
21
-0.0846464
0
LINE
8
BLACK
6
CONTINUOUS
10
-0.336325
20
-0.0846464
11
-0.330795
21
-0.0866373
0
LINE
8
BLACK
6
CONTINUOUS
10
-0.330795
20
-0.0866373
11
-0.326004
21
-0.090042
0
LINE
8
BLACK
6
CONTINUOUS
10
-0.326004
20
-0.090042
11
-0.322305
21
-0.0946096
0
LINE
8
BLACK
6
CONTINUOUS
10
-0.322305
20
-0.0946096
11
-0.319971
21
-0.100004
0
LINE
8
BLACK
6
CONTINUOUS
10
-0.319971
20
-0.100004
11
-0.319173
21
-0.105827
0
LINE
8
BLACK
6
CONTINUOUS
10
-0.319173
20
-0.105827
11
-0.319173
21
-0.18063
0
LINE
8
BLACK
6
CONTINUOUS
10
-0.319173
20
-0.18063
11
-0.319406
21
-0.183793
0
LINE
8
BLACK
6
CONTINUOUS
10
-0.319406
20
-0.183793
11
-0.321045
21
-0.189437
0
LINE
8
BLACK
6
CONTINUOUS
10
-0.321045
20
-0.189437
11
-0.324142
21
-0.194432
0
LINE
8
BLACK
6
CONTINUOUS
10
-0.324142
20
-0.194432
11
-0.328469
21
-0.198411
0
LINE
8
BLACK
6
CONTINUOUS
10
-0.328469
20
-0.198411
11
-0.333706
21
-0.201079
0
LINE
8
BLACK
6
CONTINUOUS
10
-0.333706
20
-0.201079
11
-0.339467
21
-0.202241
0
LINE
8
BLACK
6
CONTINUOUS
10
-0.339467
20
-0.202241
11
-0.345329
21
-0.20181
0
LINE
8
BLACK
6
CONTINUOUS
10
-0.345329
20
-0.20181
11
-0.350859
21
-0.199819
0
LINE
8
BLACK
6
CONTINUOUS
10
-0.350859
20
-0.199819
11
-0.35565
21
-0.196415
0
LINE
8
BLACK
6
CONTINUOUS
10
-0.35565
20
-0.196415
11
-0.359348
21
-0.191847
0
LINE
8
BLACK
6
CONTINUOUS
10
-0.359348
20
-0.191847
11
-0.361683
21
-0.186453
0
LINE
8
BLACK
6
CONTINUOUS
10
-0.361683
20
-0.186453
11
-0.36248
21
-0.18063
0
LINE
8
BLACK
6
CONTINUOUS
10
-0.36248
20
-0.18063
11
-0.36248
21
-0.105827
0
LINE
8
BLACK
6
CONTINUOUS
10
-0.36248
20
-0.105827
11
-0.362248
21
-0.102664
0
LINE
8
BLACK
6
CONTINUOUS
10
-0.362248
20
-0.102664
11
-0.360608
21
-0.0970195
0
LINE
8
BLACK
6
CONTINUOUS
10
-0.360608
20
-0.0970195
11
-0.357511
21
-0.0920243
0
LINE
8
BLACK
6
CONTINUOUS
10
-0.357511
20
-0.0920243
11
-0.353185
21
-0.088046
0
LINE
8
BLACK
6
CONTINUOUS
10
-0.353185
20
-0.088046
11
-0.347948
21
-0.0853777
0
LINE
8
BLACK
6
CONTINUOUS
10
-0.347948
20
-0.0853777
11
-0.342186
21
-0.0842159
0
LINE
8
BLACK
6
CONTINUOUS
10
-0.342186
20
-0.0842159
11
-0.336325
21
-0.0846464
0
LINE
8
BLACK
6
CONTINUOUS
10
-0.286325
20
-0.0846464
11
-0.280795
21
-0.0866373
0
LINE
8
BLACK
6
CONTINUOUS
10
-0.280795
20
-0.0866373
11
-0.276004
21
-0.090042
0
LINE
8
BLACK
6
CONTINUOUS
10
-0.276004
20
-0.090042
11
-0.272305
21
-0.0946096
0
LINE
8
BLACK
6
CONTINUOUS
10
-0.272305
20
-0.0946096
11
-0.269971
21
-0.100004
0
LINE
8
BLACK
6
CONTINUOUS
10
-0.269971
20
-0.100004
11
-0.269173
21
-0.105827
0
LINE
8
BLACK
6
CONTINUOUS
10
-0.269173
20
-0.105827
11
-0.269173
21
-0.18063
0
LINE
8
BLACK
6
CONTINUOUS
10
-0.269173
20
-0.18063
11
-0.269406
21
-0.183793
0
LINE
8
BLACK
6
CONTINUOUS
10
-0.269406
20
-0.183793
11
-0.271045
21
-0.189437
0
LINE
8
BLACK
6
CONTINUOUS
10
-0.271045
20
-0.189437
11
-0.274142
21
-0.194432
0
LINE
8
BLACK
6
CONTINUOUS
10
-0.274142
20
-0.194432
11
-0.278469
21
-0.198411
0
LINE
8
BLACK
6
CONTINUOUS
10
-0.278469
20
-0.198411
11
-0.283706
21
-0.201079
0
LINE
8
BLACK
6
CONTINUOUS
10
-0.283706
20
-0.201079
11
-0.289467
21
-0.202241
0
LINE
8
BLACK
6
CONTINUOUS
10
-0.289467
20
-0.202241
11
-0.295329
21
-0.20181
0
LINE
8
BLACK
6
CONTINUOUS
10
-0.295329
20
-0.20181
11
-0.300859
21
-0.199819
0
LINE
8
BLACK
6
CONTINUOUS
10
-0.300859
20
-0.199819
11
-0.30565
21
-0.196415
0
LINE
8
BLACK
6
CONTINUOUS
10
-0.30565
20
-0.196415
11
-0.309348
21
-0.191847
0
LINE
8
BLACK
6
CONTINUOUS
10
-0.309348
20
-0.191847
11
-0.311683
21
-0.186453
0
LINE
8
BLACK
6
CONTINUOUS
10
-0.311683
20
-0.186453
11
-0.31248
21
-0.18063
0
LINE
8
BLACK
6
CONTINUOUS
10
-0.31248
20
-0.18063
11
-0.31248
21
-0.105827
0
LINE
8
BLACK
6
CONTINUOUS
10
-0.31248
20
-0.105827
11
-0.312248
21
-0.102664
0
LINE
8
BLACK
6
CONTINUOUS
10
-0.312248
20
-0.102664
11
-0.310608
21
-0.0970195
0
LINE
8
BLACK
6
CONTINUOUS
10
-0.310608
20
-0.0970195
11
-0.307511
21
-0.0920243
0
LINE
8
BLACK
6
CONTINUOUS
10
-0.307511
20
-0.0920243
11
-0.303185
21
-0.088046
0
LINE
8
BLACK
6
CONTINUOUS
10
-0.303185
20
-0.088046
11
-0.297948
21
-0.0853777
0
LINE
8
BLACK
6
CONTINUOUS
10
-0.297948
20
-0.0853777
11
-0.292186
21
-0.0842159
0
LINE
8
BLACK
6
CONTINUOUS
10
-0.292186
20
-0.0842159
11
-0.286325
21
-0.0846464
0
LINE
8
BLACK
6
CONTINUOUS
10
-0.436522
20
-0.0846464
11
-0.430992
21
-0.0866373
0
LINE
8
BLACK
6
CONTINUOUS
10
-0.430992
20
-0.0866373
11
-0.426201
21
-0.090042
0
LINE
8
BLACK
6
CONTINUOUS
10
-0.426201
20
-0.090042
11
-0.422502
21
-0.0946096
0
LINE
8
BLACK
6
CONTINUOUS
10
-0.422502
20
-0.0946096
11
-0.420168
21
-0.100004
0
LINE
8
BLACK
6
CONTINUOUS
10
-0.420168
20
-0.100004
11
-0.41937
21
-0.105827
0
LINE
8
BLACK
6
CONTINUOUS
10
-0.41937
20
-0.105827
11
-0.41937
21
-0.18063
0
LINE
8
BLACK
6
CONTINUOUS
10
-0.41937
20
-0.18063
11
-0.419602
21
-0.183793
0
LINE
8
BLACK
6
CONTINUOUS
10
-0.419602
20
-0.183793
11
-0.421242
21
-0.189437
0
LINE
8
BLACK
6
CONTINUOUS
10
-0.421242
20
-0.189437
11
-0.424339
21
-0.194432
0
LINE
8
BLACK
6
CONTINUOUS
10
-0.424339
20
-0.194432
11
-0.428666
21
-0.198411
0
LINE
8
BLACK
6
CONTINUOUS
10
-0.428666
20
-0.198411
11
-0.433902
21
-0.201079
0
LINE
8
BLACK
6
CONTINUOUS
10
-0.433902
20
-0.201079
11
-0.439664
21
-0.202241
0
LINE
8
BLACK
6
CONTINUOUS
10
-0.439664
20
-0.202241
11
-0.445526
21
-0.20181
0
LINE
8
BLACK
6
CONTINUOUS
10
-0.445526
20
-0.20181
11
-0.451056
21
-0.199819
0
LINE
8
BLACK
6
CONTINUOUS
10
-0.451056
20
-0.199819
11
-0.455846
21
-0.196415
0
LINE
8
BLACK
6
CONTINUOUS
10
-0.455846
20
-0.196415
11
-0.459545
21
-0.191847
0
LINE
8
BLACK
6
CONTINUOUS
10
-0.459545
20
-0.191847
11
-0.461879
21
-0.186453
0
LINE
8
BLACK
6
CONTINUOUS
10
-0.461879
20
-0.186453
11
-0.462677
21
-0.18063
0
LINE
8
BLACK
6
CONTINUOUS
10
-0.462677
20
-0.18063
11
-0.462677
21
-0.105827
0
LINE
8
BLACK
6
CONTINUOUS
10
-0.462677
20
-0.105827
11
-0.462445
21
-0.102664
0
LINE
8
BLACK
6
CONTINUOUS
10
-0.462445
20
-0.102664
11
-0.460805
21
-0.0970195
0
LINE
8
BLACK
6
CONTINUOUS
10
-0.460805
20
-0.0970195
11
-0.457708
21
-0.0920243
0
LINE
8
BLACK
6
CONTINUOUS
10
-0.457708
20
-0.0920243
11
-0.453382
21
-0.088046
0
LINE
8
BLACK
6
CONTINUOUS
10
-0.453382
20
-0.088046
11
-0.448145
21
-0.0853777
0
LINE
8
BLACK
6
CONTINUOUS
10
-0.448145
20
-0.0853777
11
-0.442383
21
-0.0842159
0
LINE
8
BLACK
6
CONTINUOUS
10
-0.442383
20
-0.0842159
11
-0.436522
21
-0.0846464
0
LINE
8
BLACK
6
CONTINUOUS
10
-0.621575
20
-0.144035
11
-0.61751
21
-0.146022
0
LINE
8
BLACK
6
CONTINUOUS
10
-0.61751
20
-0.146022
11
-0.614308
21
-0.149219
0
LINE
8
BLACK
6
CONTINUOUS
10
-0.614308
20
-0.149219
11
-0.612313
21
-0.153281
0
LINE
8
BLACK
6
CONTINUOUS
10
-0.612313
20
-0.153281
11
-0.611732
21
-0.15724
0
LINE
8
BLACK
6
CONTINUOUS
10
-0.611732
20
-0.15724
11
-0.611732
21
-0.169051
0
LINE
8
BLACK
6
CONTINUOUS
10
-0.611732
20
-0.169051
11
-0.612307
21
-0.172988
0
LINE
8
BLACK
6
CONTINUOUS
10
-0.612307
20
-0.172988
11
-0.614294
21
-0.177053
0
LINE
8
BLACK
6
CONTINUOUS
10
-0.614294
20
-0.177053
11
-0.61749
21
-0.180255
0
LINE
8
BLACK
6
CONTINUOUS
10
-0.61749
20
-0.180255
11
-0.621552
21
-0.18225
0
LINE
8
BLACK
6
CONTINUOUS
10
-0.621552
20
-0.18225
11
-0.625512
21
-0.182831
0
LINE
8
BLACK
6
CONTINUOUS
10
-0.625512
20
-0.182831
11
-0.68063
21
-0.182831
0
LINE
8
BLACK
6
CONTINUOUS
10
-0.68063
20
-0.182831
11
-0.684567
21
-0.182257
0
LINE
8
BLACK
6
CONTINUOUS
10
-0.684567
20
-0.182257
11
-0.688632
21
-0.180269
0
LINE
8
BLACK
6
CONTINUOUS
10
-0.688632
20
-0.180269
11
-0.691834
21
-0.177073
0
LINE
8
BLACK
6
CONTINUOUS
10
-0.691834
20
-0.177073
11
-0.693828
21
-0.173011
0
LINE
8
BLACK
6
CONTINUOUS
10
-0.693828
20
-0.173011
11
-0.694409
21
-0.169051
0
LINE
8
BLACK
6
CONTINUOUS
10
-0.694409
20
-0.169051
11
-0.694409
21
-0.15724
0
LINE
8
BLACK
6
CONTINUOUS
10
-0.694409
20
-0.15724
11
-0.693835
21
-0.153304
0
LINE
8
BLACK
6
CONTINUOUS
10
-0.693835
20
-0.153304
11
-0.691848
21
-0.149239
0
LINE
8
BLACK
6
CONTINUOUS
10
-0.691848
20
-0.149239
11
-0.688651
21
-0.146036
0
LINE
8
BLACK
6
CONTINUOUS
10
-0.688651
20
-0.146036
11
-0.68459
21
-0.144042
0
LINE
8
BLACK
6
CONTINUOUS
10
-0.68459
20
-0.144042
11
-0.68063
21
-0.143461
0
LINE
8
BLACK
6
CONTINUOUS
10
-0.68063
20
-0.143461
11
-0.625512
21
-0.143461
0
LINE
8
BLACK
6
CONTINUOUS
10
-0.625512
20
-0.143461
11
-0.621575
21
-0.144035
0
LINE
8
BLACK
6
CONTINUOUS
10
0.261478
20
-0.0592608
11
0.264032
21
-0.0609677
0
LINE
8
BLACK
6
CONTINUOUS
10
0.264032
20
-0.0609677
11
0.265739
21
-0.0635222
0
LINE
8
BLACK
6
CONTINUOUS
10
0.265739
20
-0.0635222
11
0.266339
21
-0.0665354
0
LINE
8
BLACK
6
CONTINUOUS
10
0.266339
20
-0.0665354
11
0.266339
21
-0.133465
0
LINE
8
BLACK
6
CONTINUOUS
10
0.266339
20
-0.133465
11
0.265739
21
-0.136478
0
LINE
8
BLACK
6
CONTINUOUS
10
0.265739
20
-0.136478
11
0.264032
21
-0.139032
0
LINE
8
BLACK
6
CONTINUOUS
10
0.264032
20
-0.139032
11
0.261478
21
-0.140739
0
LINE
8
BLACK
6
CONTINUOUS
10
0.261478
20
-0.140739
11
0.258465
21
-0.141339
0
LINE
8
BLACK
6
CONTINUOUS
10
0.258465
20
-0.141339
11
0.191535
21
-0.141339
0
LINE
8
BLACK
6
CONTINUOUS
10
0.191535
20
-0.141339
11
0.188522
21
-0.140739
0
LINE
8
BLACK
6
CONTINUOUS
10
0.188522
20
-0.140739
11
0.185968
21
-0.139032
0
LINE
8
BLACK
6
CONTINUOUS
10
0.185968
20
-0.139032
11
0.184261
21
-0.136478
0
LINE
8
BLACK
6
CONTINUOUS
10
0.184261
20
-0.136478
11
0.183661
21
-0.133465
0
LINE
8
BLACK
6
CONTINUOUS
10
0.183661
20
-0.133465
11
0.183661
21
-0.0665354
0
LINE
8
BLACK
6
CONTINUOUS
10
0.183661
20
-0.0665354
11
0.184261
21
-0.0635222
0
LINE
8
BLACK
6
CONTINUOUS
10
0.184261
20
-0.0635222
11
0.185968
21
-0.0609677
0
LINE
8
BLACK
6
CONTINUOUS
10
0.185968
20
-0.0609677
11
0.188522
21
-0.0592608
0
LINE
8
BLACK
6
CONTINUOUS
10
0.188522
20
-0.0592608
11
0.191535
21
-0.0586614
0
LINE
8
BLACK
6
CONTINUOUS
10
0.191535
20
-0.0586614
11
0.258465
21
-0.0586614
0
LINE
8
BLACK
6
CONTINUOUS
10
0.258465
20
-0.0586614
11
0.261478
21
-0.0592608
0
LINE
8
BLACK
6
CONTINUOUS
10
-0.621575
20
-0.0948225
11
-0.61751
21
-0.0968096
0
LINE
8
BLACK
6
CONTINUOUS
10
-0.61751
20
-0.0968096
11
-0.614308
21
-0.100006
0
LINE
8
BLACK
6
CONTINUOUS
10
-0.614308
20
-0.100006
11
-0.612313
21
-0.104068
0
LINE
8
BLACK
6
CONTINUOUS
10
-0.612313
20
-0.104068
11
-0.611732
21
-0.108028
0
LINE
8
BLACK
6
CONTINUOUS
10
-0.611732
20
-0.108028
11
-0.611732
21
-0.119839
0
LINE
8
BLACK
6
CONTINUOUS
10
-0.611732
20
-0.119839
11
-0.612307
21
-0.123775
0
LINE
8
BLACK
6
CONTINUOUS
10
-0.612307
20
-0.123775
11
-0.614294
21
-0.127841
0
LINE
8
BLACK
6
CONTINUOUS
10
-0.614294
20
-0.127841
11
-0.61749
21
-0.131043
0
LINE
8
BLACK
6
CONTINUOUS
10
-0.61749
20
-0.131043
11
-0.621552
21
-0.133037
0
LINE
8
BLACK
6
CONTINUOUS
10
-0.621552
20
-0.133037
11
-0.625512
21
-0.133618
0
LINE
8
BLACK
6
CONTINUOUS
10
-0.625512
20
-0.133618
11
-0.68063
21
-0.133618
0
LINE
8
BLACK
6
CONTINUOUS
10
-0.68063
20
-0.133618
11
-0.684567
21
-0.133044
0
LINE
8
BLACK
6
CONTINUOUS
10
-0.684567
20
-0.133044
11
-0.688632
21
-0.131057
0
LINE
8
BLACK
6
CONTINUOUS
10
-0.688632
20
-0.131057
11
-0.691834
21
-0.12786
0
LINE
8
BLACK
6
CONTINUOUS
10
-0.691834
20
-0.12786
11
-0.693828
21
-0.123798
0
LINE
8
BLACK
6
CONTINUOUS
10
-0.693828
20
-0.123798
11
-0.694409
21
-0.119839
0
LINE
8
BLACK
6
CONTINUOUS
10
-0.694409
20
-0.119839
11
-0.694409
21
-0.108028
0
LINE
8
BLACK
6
CONTINUOUS
10
-0.694409
20
-0.108028
11
-0.693835
21
-0.104091
0
LINE
8
BLACK
6
CONTINUOUS
10
-0.693835
20
-0.104091
11
-0.691848
21
-0.100026
0
LINE
8
BLACK
6
CONTINUOUS
10
-0.691848
20
-0.100026
11
-0.688651
21
-0.0968236
0
LINE
8
BLACK
6
CONTINUOUS
10
-0.688651
20
-0.0968236
11
-0.68459
21
-0.0948294
0
LINE
8
BLACK
6
CONTINUOUS
10
-0.68459
20
-0.0948294
11
-0.68063
21
-0.0942482
0
LINE
8
BLACK
6
CONTINUOUS
10
-0.68063
20
-0.0942482
11
-0.625512
21
-0.0942482
0
LINE
8
BLACK
6
CONTINUOUS
10
-0.625512
20
-0.0942482
11
-0.621575
21
-0.0948225
0
LINE
8
BLACK
6
CONTINUOUS
10
0.014917
20
0.125098
11
0.0287686
21
0.122656
0
LINE
8
BLACK
6
CONTINUOUS
10
0.0287686
20
0.122656
11
0.0422616
21
0.118684
0
LINE
8
BLACK
6
CONTINUOUS
10
0.0422616
20
0.118684
11
0.0552279
21
0.113234
0
LINE
8
BLACK
6
CONTINUOUS
10
0.0552279
20
0.113234
11
0.0675057
21
0.106372
0
LINE
8
BLACK
6
CONTINUOUS
10
0.0675057
20
0.106372
11
0.0789422
21
0.0981843
0
LINE
8
BLACK
6
CONTINUOUS
10
0.0789422
20
0.0981843
11
0.0893947
21
0.0887728
0
LINE
8
BLACK
6
CONTINUOUS
10
0.0893947
20
0.0887728
11
0.098733
21
0.0782548
0
LINE
8
BLACK
6
CONTINUOUS
10
0.098733
20
0.0782548
11
0.106841
21
0.0667615
0
LINE
8
BLACK
6
CONTINUOUS
10
0.106841
20
0.0667615
11
0.113617
21
0.054436
0
LINE
8
BLACK
6
CONTINUOUS
10
0.113617
20
0.054436
11
0.118977
21
0.041432
0
LINE
8
BLACK
6
CONTINUOUS
10
0.118977
20
0.041432
11
0.122853
21
0.0279116
0
LINE
8
BLACK
6
CONTINUOUS
10
0.122853
20
0.0279116
11
0.125199
21
0.0140433
0
LINE
8
BLACK
6
CONTINUOUS
10
0.125199
20
0.0140433
11
0.125984
21
0
0
LINE
8
BLACK
6
CONTINUOUS
10
0.125984
20
0
11
0.125935
21
-0.00351768
0
LINE
8
BLACK
6
CONTINUOUS
10
0.125935
20
-0.00351768
11
0.124758
21
-0.0175336
0
LINE
8
BLACK
6
CONTINUOUS
10
0.124758
20
-0.0175336
11
0.122026
21
-0.031331
0
LINE
8
BLACK
6
CONTINUOUS
10
0.122026
20
-0.031331
11
0.117773
21
-0.0447379
0
LINE
8
BLACK
6
CONTINUOUS
10
0.117773
20
-0.0447379
11
0.112052
21
-0.0575871
0
LINE
8
BLACK
6
CONTINUOUS
10
0.112052
20
-0.0575871
11
0.104935
21
-0.0697186
0
LINE
8
BLACK
6
CONTINUOUS
10
0.104935
20
-0.0697186
11
0.0965095
21
-0.0809811
0
LINE
8
BLACK
6
CONTINUOUS
10
0.0965095
20
-0.0809811
11
0.0868812
21
-0.0912343
0
LINE
8
BLACK
6
CONTINUOUS
10
0.0868812
20
-0.0912343
11
0.07617
21
-0.10035
0
LINE
8
BLACK
6
CONTINUOUS
10
0.07617
20
-0.10035
11
0.0645093
21
-0.108215
0
LINE
8
BLACK
6
CONTINUOUS
10
0.0645093
20
-0.108215
11
0.0520446
21
-0.114732
0
LINE
8
BLACK
6
CONTINUOUS
10
0.0520446
20
-0.114732
11
0.0389313
21
-0.119818
0
LINE
8
BLACK
6
CONTINUOUS
10
0.0389313
20
-0.119818
11
0.0253326
21
-0.123411
0
LINE
8
BLACK
6
CONTINUOUS
10
0.0253326
20
-0.123411
11
0.0114183
21
-0.125466
0
LINE
8
BLACK
6
CONTINUOUS
10
0.0114183
20
-0.125466
11
-0.00263843
21
-0.125957
0
LINE
8
BLACK
6
CONTINUOUS
10
-0.00263843
20
-0.125957
11
-0.0166622
21
-0.124878
0
LINE
8
BLACK
6
CONTINUOUS
10
-0.0166622
20
-0.124878
11
-0.0304783
21
-0.122242
0
LINE
8
BLACK
6
CONTINUOUS
10
-0.0304783
20
-0.122242
11
-0.0439146
21
-0.118083
0
LINE
8
BLACK
6
CONTINUOUS
10
-0.0439146
20
-0.118083
11
-0.0568035
21
-0.112452
0
LINE
8
BLACK
6
CONTINUOUS
10
-0.0568035
20
-0.112452
11
-0.0689843
21
-0.105419
0
LINE
8
BLACK
6
CONTINUOUS
10
-0.0689843
20
-0.105419
11
-0.0803054
21
-0.0970725
0
LINE
8
BLACK
6
CONTINUOUS
10
-0.0803054
20
-0.0970725
11
-0.0906255
21
-0.087516
0
LINE
8
BLACK
6
CONTINUOUS
10
-0.0906255
20
-0.087516
11
-0.099816
21
-0.0768687
0
LINE
8
BLACK
6
CONTINUOUS
10
-0.099816
20
-0.0768687
11
-0.107762
21
-0.0652632
0
LINE
8
BLACK
6
CONTINUOUS
10
-0.107762
20
-0.0652632
11
-0.114366
21
-0.0528444
0
LINE
8
BLACK
6
CONTINUOUS
10
-0.114366
20
-0.0528444
11
-0.119543
21
-0.0397668
0
LINE
8
BLACK
6
CONTINUOUS
10
-0.119543
20
-0.0397668
11
-0.123231
21
-0.0261936
0
LINE
8
BLACK
6
CONTINUOUS
10
-0.123231
20
-0.0261936
11
-0.125383
21
-0.0122939
0
LINE
8
BLACK
6
CONTINUOUS
10
-0.125383
20
-0.0122939
11
-0.125972
21
0.00175902
0
LINE
8
BLACK
6
CONTINUOUS
10
-0.125972
20
0.00175902
11
-0.124991
21
0.01579
0
LINE
8
BLACK
6
CONTINUOUS
10
-0.124991
20
0.01579
11
-0.122452
21
0.0296242
0
LINE
8
BLACK
6
CONTINUOUS
10
-0.122452
20
0.0296242
11
-0.118386
21
0.0430891
0
LINE
8
BLACK
6
CONTINUOUS
10
-0.118386
20
0.0430891
11
-0.112846
21
0.056017
0
LINE
8
BLACK
6
CONTINUOUS
10
-0.112846
20
0.056017
11
-0.105898
21
0.0682467
0
LINE
8
BLACK
6
CONTINUOUS
10
-0.105898
20
0.0682467
11
-0.0976308
21
0.0796257
0
LINE
8
BLACK
6
CONTINUOUS
10
-0.0976308
20
0.0796257
11
-0.0881466
21
0.0900123
0
LINE
8
BLACK
6
CONTINUOUS
10
-0.0881466
20
0.0900123
11
-0.0775637
21
0.0992769
0
LINE
8
BLACK
6
CONTINUOUS
10
-0.0775637
20
0.0992769
11
-0.066014
21
0.107304
0
LINE
8
BLACK
6
CONTINUOUS
10
-0.066014
20
0.107304
11
-0.0536415
21
0.113994
0
LINE
8
BLACK
6
CONTINUOUS
10
-0.0536415
20
0.113994
11
-0.0406004
21
0.119263
0
LINE
8
BLACK
6
CONTINUOUS
10
-0.0406004
20
0.119263
11
-0.0270533
21
0.123045
0
LINE
8
BLACK
6
CONTINUOUS
10
-0.0270533
20
0.123045
11
-0.0131689
21
0.125294
0
LINE
8
BLACK
6
CONTINUOUS
10
-0.0131689
20
0.125294
11
0.000879528
21
0.125981
0
LINE
8
BLACK
6
CONTINUOUS
10
0.000879528
20
0.125981
11
0.014917
21
0.125098
0
LINE
8
BLACK
6
CONTINUOUS
10
-0.732428
20
-0.0138533
11
-0.727458
21
-0.0155988
0
LINE
8
BLACK
6
CONTINUOUS
10
-0.727458
20
-0.0155988
11
-0.723221
21
-0.0187286
0
LINE
8
BLACK
6
CONTINUOUS
10
-0.723221
20
-0.0187286
11
-0.720091
21
-0.022966
0
LINE
8
BLACK
6
CONTINUOUS
10
-0.720091
20
-0.022966
11
-0.718345
21
-0.0279363
0
LINE
8
BLACK
6
CONTINUOUS
10
-0.718345
20
-0.0279363
11
-0.718031
21
-0.0312561
0
LINE
8
BLACK
6
CONTINUOUS
10
-0.718031
20
-0.0312561
11
-0.718031
21
-0.0509411
0
LINE
8
BLACK
6
CONTINUOUS
10
-0.718031
20
-0.0509411
11
-0.718345
21
-0.0542609
0
LINE
8
BLACK
6
CONTINUOUS
10
-0.718345
20
-0.0542609
11
-0.720091
21
-0.0592312
0
LINE
8
BLACK
6
CONTINUOUS
10
-0.720091
20
-0.0592312
11
-0.723221
21
-0.0634686
0
LINE
8
BLACK
6
CONTINUOUS
10
-0.723221
20
-0.0634686
11
-0.727458
21
-0.0665984
0
LINE
8
BLACK
6
CONTINUOUS
10
-0.727458
20
-0.0665984
11
-0.732428
21
-0.0683438
0
LINE
8
BLACK
6
CONTINUOUS
10
-0.732428
20
-0.0683438
11
-0.735748
21
-0.0686576
0
LINE
8
BLACK
6
CONTINUOUS
10
-0.735748
20
-0.0686576
11
-0.822362
21
-0.0686576
0
LINE
8
BLACK
6
CONTINUOUS
10
-0.822362
20
-0.0686576
11
-0.825682
21
-0.0683438
0
LINE
8
BLACK
6
CONTINUOUS
10
-0.825682
20
-0.0683438
11
-0.830652
21
-0.0665984
0
LINE
8
BLACK
6
CONTINUOUS
10
-0.830652
20
-0.0665984
11
-0.83489
21
-0.0634686
0
LINE
8
BLACK
6
CONTINUOUS
10
-0.83489
20
-0.0634686
11
-0.838019
21
-0.0592312
0
LINE
8
BLACK
6
CONTINUOUS
10
-0.838019
20
-0.0592312
11
-0.839765
21
-0.0542609
0
LINE
8
BLACK
6
CONTINUOUS
10
-0.839765
20
-0.0542609
11
-0.840079
21
-0.0509411
0
LINE
8
BLACK
6
CONTINUOUS
10
-0.840079
20
-0.0509411
11
-0.840079
21
-0.0312561
0
LINE
8
BLACK
6
CONTINUOUS
10
-0.840079
20
-0.0312561
11
-0.839765
21
-0.0279363
0
LINE
8
BLACK
6
CONTINUOUS
10
-0.839765
20
-0.0279363
11
-0.838019
21
-0.022966
0
LINE
8
BLACK
6
CONTINUOUS
10
-0.838019
20
-0.022966
11
-0.83489
21
-0.0187286
0
LINE
8
BLACK
6
CONTINUOUS
10
-0.83489
20
-0.0187286
11
-0.830652
21
-0.0155988
0
LINE
8
BLACK
6
CONTINUOUS
10
-0.830652
20
-0.0155988
11
-0.825682
21
-0.0138533
0
LINE
8
BLACK
6
CONTINUOUS
10
-0.825682
20
-0.0138533
11
-0.822362
21
-0.0135395
0
LINE
8
BLACK
6
CONTINUOUS
10
-0.822362
20
-0.0135395
11
-0.735748
21
-0.0135395
0
LINE
8
BLACK
6
CONTINUOUS
10
-0.735748
20
-0.0135395
11
-0.732428
21
-0.0138533
0
LINE
8
BLACK
6
CONTINUOUS
10
-0.602735
20
-0.0189458
11
-0.60018
21
-0.0206527
0
LINE
8
BLACK
6
CONTINUOUS
10
-0.60018
20
-0.0206527
11
-0.598473
21
-0.0232072
0
LINE
8
BLACK
6
CONTINUOUS
10
-0.598473
20
-0.0232072
11
-0.597874
21
-0.0262205
0
LINE
8
BLACK
6
CONTINUOUS
10
-0.597874
20
-0.0262205
11
-0.597874
21
-0.0537795
0
LINE
8
BLACK
6
CONTINUOUS
10
-0.597874
20
-0.0537795
11
-0.598473
21
-0.0567928
0
LINE
8
BLACK
6
CONTINUOUS
10
-0.598473
20
-0.0567928
11
-0.60018
21
-0.0593473
0
LINE
8
BLACK
6
CONTINUOUS
10
-0.60018
20
-0.0593473
11
-0.602735
21
-0.0610542
0
LINE
8
BLACK
6
CONTINUOUS
10
-0.602735
20
-0.0610542
11
-0.605748
21
-0.0616535
0
LINE
8
BLACK
6
CONTINUOUS
10
-0.605748
20
-0.0616535
11
-0.62937
21
-0.0616535
0
LINE
8
BLACK
6
CONTINUOUS
10
-0.62937
20
-0.0616535
11
-0.632383
21
-0.0610542
0
LINE
8
BLACK
6
CONTINUOUS
10
-0.632383
20
-0.0610542
11
-0.634938
21
-0.0593473
0
LINE
8
BLACK
6
CONTINUOUS
10
-0.634938
20
-0.0593473
11
-0.636645
21
-0.0567928
0
LINE
8
BLACK
6
CONTINUOUS
10
-0.636645
20
-0.0567928
11
-0.637244
21
-0.0537795
0
LINE
8
BLACK
6
CONTINUOUS
10
-0.637244
20
-0.0537795
11
-0.637244
21
-0.0262205
0
LINE
8
BLACK
6
CONTINUOUS
10
-0.637244
20
-0.0262205
11
-0.636645
21
-0.0232072
0
LINE
8
BLACK
6
CONTINUOUS
10
-0.636645
20
-0.0232072
11
-0.634938
21
-0.0206527
0
LINE
8
BLACK
6
CONTINUOUS
10
-0.634938
20
-0.0206527
11
-0.632383
21
-0.0189458
0
LINE
8
BLACK
6
CONTINUOUS
10
-0.632383
20
-0.0189458
11
-0.62937
21
-0.0183465
0
LINE
8
BLACK
6
CONTINUOUS
10
-0.62937
20
-0.0183465
11
-0.605748
21
-0.0183465
0
LINE
8
BLACK
6
CONTINUOUS
10
-0.605748
20
-0.0183465
11
-0.602735
21
-0.0189458
0
LINE
8
BLACK
6
CONTINUOUS
10
-0.547617
20
-0.0189458
11
-0.545062
21
-0.0206527
0
LINE
8
BLACK
6
CONTINUOUS
10
-0.545062
20
-0.0206527
11
-0.543355
21
-0.0232072
0
LINE
8
BLACK
6
CONTINUOUS
10
-0.543355
20
-0.0232072
11
-0.542756
21
-0.0262205
0
LINE
8
BLACK
6
CONTINUOUS
10
-0.542756
20
-0.0262205
11
-0.542756
21
-0.0537795
0
LINE
8
BLACK
6
CONTINUOUS
10
-0.542756
20
-0.0537795
11
-0.543355
21
-0.0567928
0
LINE
8
BLACK
6
CONTINUOUS
10
-0.543355
20
-0.0567928
11
-0.545062
21
-0.0593473
0
LINE
8
BLACK
6
CONTINUOUS
10
-0.545062
20
-0.0593473
11
-0.547617
21
-0.0610542
0
LINE
8
BLACK
6
CONTINUOUS
10
-0.547617
20
-0.0610542
11
-0.55063
21
-0.0616535
0
LINE
8
BLACK
6
CONTINUOUS
10
-0.55063
20
-0.0616535
11
-0.574252
21
-0.0616535
0
LINE
8
BLACK
6
CONTINUOUS
10
-0.574252
20
-0.0616535
11
-0.577265
21
-0.0610542
0
LINE
8
BLACK
6
CONTINUOUS
10
-0.577265
20
-0.0610542
11
-0.57982
21
-0.0593473
0
LINE
8
BLACK
6
CONTINUOUS
10
-0.57982
20
-0.0593473
11
-0.581527
21
-0.0567928
0
LINE
8
BLACK
6
CONTINUOUS
10
-0.581527
20
-0.0567928
11
-0.582126
21
-0.0537795
0
LINE
8
BLACK
6
CONTINUOUS
10
-0.582126
20
-0.0537795
11
-0.582126
21
-0.0262205
0
LINE
8
BLACK
6
CONTINUOUS
10
-0.582126
20
-0.0262205
11
-0.581527
21
-0.0232072
0
LINE
8
BLACK
6
CONTINUOUS
10
-0.581527
20
-0.0232072
11
-0.57982
21
-0.0206527
0
LINE
8
BLACK
6
CONTINUOUS
10
-0.57982
20
-0.0206527
11
-0.577265
21
-0.0189458
0
LINE
8
BLACK
6
CONTINUOUS
10
-0.577265
20
-0.0189458
11
-0.574252
21
-0.0183465
0
LINE
8
BLACK
6
CONTINUOUS
10
-0.574252
20
-0.0183465
11
-0.55063
21
-0.0183465
0
LINE
8
BLACK
6
CONTINUOUS
10
-0.55063
20
-0.0183465
11
-0.547617
21
-0.0189458
0
LINE
8
BLACK
6
CONTINUOUS
10
0.233312
20
0.0404943
11
0.241019
21
0.0381085
0
LINE
8
BLACK
6
CONTINUOUS
10
0.241019
20
0.0381085
11
0.248116
21
0.0342712
0
LINE
8
BLACK
6
CONTINUOUS
10
0.248116
20
0.0342712
11
0.254333
21
0.0291286
0
LINE
8
BLACK
6
CONTINUOUS
10
0.254333
20
0.0291286
11
0.259432
21
0.0228764
0
LINE
8
BLACK
6
CONTINUOUS
10
0.259432
20
0.0228764
11
0.263219
21
0.0157529
0
LINE
8
BLACK
6
CONTINUOUS
10
0.263219
20
0.0157529
11
0.265551
21
0.00802937
0
LINE
8
BLACK
6
CONTINUOUS
10
0.265551
20
0.00802937
11
0.266339
21
0
0
LINE
8
BLACK
6
CONTINUOUS
10
0.266339
20
0
11
0.266322
21
-0.00115425
0
LINE
8
BLACK
6
CONTINUOUS
10
0.266322
20
-0.00115425
11
0.265311
21
-0.0091585
0
LINE
8
BLACK
6
CONTINUOUS
10
0.265311
20
-0.0091585
11
0.262765
21
-0.0168139
0
LINE
8
BLACK
6
CONTINUOUS
10
0.262765
20
-0.0168139
11
0.25878
21
-0.0238289
0
LINE
8
BLACK
6
CONTINUOUS
10
0.25878
20
-0.0238289
11
0.253508
21
-0.0299362
0
LINE
8
BLACK
6
CONTINUOUS
10
0.253508
20
-0.0299362
11
0.24715
21
-0.0349033
0
LINE
8
BLACK
6
CONTINUOUS
10
0.24715
20
-0.0349033
11
0.239949
21
-0.0385409
0
LINE
8
BLACK
6
CONTINUOUS
10
0.239949
20
-0.0385409
11
0.232178
21
-0.0407106
0
LINE
8
BLACK
6
CONTINUOUS
10
0.232178
20
-0.0407106
11
0.224134
21
-0.0413295
0
LINE
8
BLACK
6
CONTINUOUS
10
0.224134
20
-0.0413295
11
0.216123
21
-0.0403743
0
LINE
8
BLACK
6
CONTINUOUS
10
0.216123
20
-0.0403743
11
0.20845
21
-0.0378811
0
LINE
8
BLACK
6
CONTINUOUS
10
0.20845
20
-0.0378811
11
0.201408
21
-0.0339452
0
LINE
8
BLACK
6
CONTINUOUS
10
0.201408
20
-0.0339452
11
0.195264
21
-0.0287162
0
LINE
8
BLACK
6
CONTINUOUS
10
0.195264
20
-0.0287162
11
0.190252
21
-0.0223935
0
LINE
8
BLACK
6
CONTINUOUS
10
0.190252
20
-0.0223935
11
0.186564
21
-0.0152178
0
LINE
8
BLACK
6
CONTINUOUS
10
0.186564
20
-0.0152178
11
0.184341
21
-0.0074624
0
LINE
8
BLACK
6
CONTINUOUS
10
0.184341
20
-0.0074624
11
0.183665
21
0.000577165
0
LINE
8
BLACK
6
CONTINUOUS
10
0.183665
20
0.000577165
11
0.184565
21
0.00859476
0
LINE
8
BLACK
6
CONTINUOUS
10
0.184565
20
0.00859476
11
0.187004
21
0.016285
0
LINE
8
BLACK
6
CONTINUOUS
10
0.187004
20
0.016285
11
0.190891
21
0.0233549
0
LINE
8
BLACK
6
CONTINUOUS
10
0.190891
20
0.0233549
11
0.196077
21
0.0295353
0
LINE
8
BLACK
6
CONTINUOUS
10
0.196077
20
0.0295353
11
0.202365
21
0.0345907
0
LINE
8
BLACK
6
CONTINUOUS
10
0.202365
20
0.0345907
11
0.209514
21
0.0383285
0
LINE
8
BLACK
6
CONTINUOUS
10
0.209514
20
0.0383285
11
0.217254
21
0.0406064
0
LINE
8
BLACK
6
CONTINUOUS
10
0.217254
20
0.0406064
11
0.225289
21
0.0413376
0
LINE
8
BLACK
6
CONTINUOUS
10
0.225289
20
0.0413376
11
0.233312
21
0.0404943
0
LINE
8
BLACK
6
CONTINUOUS
10
-0.732428
20
0.0698081
11
-0.727458
21
0.0680626
0
LINE
8
BLACK
6
CONTINUOUS
10
-0.727458
20
0.0680626
11
-0.723221
21
0.0649328
0
LINE
8
BLACK
6
CONTINUOUS
10
-0.723221
20
0.0649328
11
-0.720091
21
0.0606954
0
LINE
8
BLACK
6
CONTINUOUS
10
-0.720091
20
0.0606954
11
-0.718345
21
0.0557251
0
LINE
8
BLACK
6
CONTINUOUS
10
-0.718345
20
0.0557251
11
-0.718031
21
0.0524054
0
LINE
8
BLACK
6
CONTINUOUS
10
-0.718031
20
0.0524054
11
-0.718031
21
0.0327203
0
LINE
8
BLACK
6
CONTINUOUS
10
-0.718031
20
0.0327203
11
-0.718345
21
0.0294006
0
LINE
8
BLACK
6
CONTINUOUS
10
-0.718345
20
0.0294006
11
-0.720091
21
0.0244302
0
LINE
8
BLACK
6
CONTINUOUS
10
-0.720091
20
0.0244302
11
-0.723221
21
0.0201928
0
LINE
8
BLACK
6
CONTINUOUS
10
-0.723221
20
0.0201928
11
-0.727458
21
0.017063
0
LINE
8
BLACK
6
CONTINUOUS
10
-0.727458
20
0.017063
11
-0.732428
21
0.0153176
0
LINE
8
BLACK
6
CONTINUOUS
10
-0.732428
20
0.0153176
11
-0.735748
21
0.0150038
0
LINE
8
BLACK
6
CONTINUOUS
10
-0.735748
20
0.0150038
11
-0.822362
21
0.0150038
0
LINE
8
BLACK
6
CONTINUOUS
10
-0.822362
20
0.0150038
11
-0.825682
21
0.0153176
0
LINE
8
BLACK
6
CONTINUOUS
10
-0.825682
20
0.0153176
11
-0.830652
21
0.017063
0
LINE
8
BLACK
6
CONTINUOUS
10
-0.830652
20
0.017063
11
-0.83489
21
0.0201928
0
LINE
8
BLACK
6
CONTINUOUS
10
-0.83489
20
0.0201928
11
-0.838019
21
0.0244302
0
LINE
8
BLACK
6
CONTINUOUS
10
-0.838019
20
0.0244302
11
-0.839765
21
0.0294006
0
LINE
8
BLACK
6
CONTINUOUS
10
-0.839765
20
0.0294006
11
-0.840079
21
0.0327203
0
LINE
8
BLACK
6
CONTINUOUS
10
-0.840079
20
0.0327203
11
-0.840079
21
0.0524054
0
LINE
8
BLACK
6
CONTINUOUS
10
-0.840079
20
0.0524054
11
-0.839765
21
0.0557251
0
LINE
8
BLACK
6
CONTINUOUS
10
-0.839765
20
0.0557251
11
-0.838019
21
0.0606954
0
LINE
8
BLACK
6
CONTINUOUS
10
-0.838019
20
0.0606954
11
-0.83489
21
0.0649328
0
LINE
8
BLACK
6
CONTINUOUS
10
-0.83489
20
0.0649328
11
-0.830652
21
0.0680626
0
LINE
8
BLACK
6
CONTINUOUS
10
-0.830652
20
0.0680626
11
-0.825682
21
0.0698081
0
LINE
8
BLACK
6
CONTINUOUS
10
-0.825682
20
0.0698081
11
-0.822362
21
0.0701219
0
LINE
8
BLACK
6
CONTINUOUS
10
-0.822362
20
0.0701219
11
-0.735748
21
0.0701219
0
LINE
8
BLACK
6
CONTINUOUS
10
-0.735748
20
0.0701219
11
-0.732428
21
0.0698081
0
LINE
8
BLACK
6
CONTINUOUS
10
-0.545459
20
0.0757559
11
-0.540795
21
0.0733792
0
LINE
8
BLACK
6
CONTINUOUS
10
-0.540795
20
0.0733792
11
-0.537093
21
0.0696775
0
LINE
8
BLACK
6
CONTINUOUS
10
-0.537093
20
0.0696775
11
-0.534717
21
0.0650131
0
LINE
8
BLACK
6
CONTINUOUS
10
-0.534717
20
0.0650131
11
-0.533898
21
0.0598425
0
LINE
8
BLACK
6
CONTINUOUS
10
-0.533898
20
0.0598425
11
-0.533898
21
0.0401575
0
LINE
8
BLACK
6
CONTINUOUS
10
-0.533898
20
0.0401575
11
-0.534717
21
0.0349869
0
LINE
8
BLACK
6
CONTINUOUS
10
-0.534717
20
0.0349869
11
-0.537093
21
0.0303225
0
LINE
8
BLACK
6
CONTINUOUS
10
-0.537093
20
0.0303225
11
-0.540795
21
0.0266208
0
LINE
8
BLACK
6
CONTINUOUS
10
-0.540795
20
0.0266208
11
-0.545459
21
0.0242441
0
LINE
8
BLACK
6
CONTINUOUS
10
-0.545459
20
0.0242441
11
-0.55063
21
0.0234252
0
LINE
8
BLACK
6
CONTINUOUS
10
-0.55063
20
0.0234252
11
-0.568346
21
0.0234252
0
LINE
8
BLACK
6
CONTINUOUS
10
-0.568346
20
0.0234252
11
-0.573517
21
0.0242441
0
LINE
8
BLACK
6
CONTINUOUS
10
-0.573517
20
0.0242441
11
-0.578181
21
0.0266208
0
LINE
8
BLACK
6
CONTINUOUS
10
-0.578181
20
0.0266208
11
-0.581883
21
0.0303225
0
LINE
8
BLACK
6
CONTINUOUS
10
-0.581883
20
0.0303225
11
-0.58426
21
0.0349869
0
LINE
8
BLACK
6
CONTINUOUS
10
-0.58426
20
0.0349869
11
-0.585079
21
0.0401575
0
LINE
8
BLACK
6
CONTINUOUS
10
-0.585079
20
0.0401575
11
-0.585079
21
0.0598425
0
LINE
8
BLACK
6
CONTINUOUS
10
-0.585079
20
0.0598425
11
-0.58426
21
0.0650131
0
LINE
8
BLACK
6
CONTINUOUS
10
-0.58426
20
0.0650131
11
-0.581883
21
0.0696775
0
LINE
8
BLACK
6
CONTINUOUS
10
-0.581883
20
0.0696775
11
-0.578181
21
0.0733792
0
LINE
8
BLACK
6
CONTINUOUS
10
-0.578181
20
0.0733792
11
-0.573517
21
0.0757559
0
LINE
8
BLACK
6
CONTINUOUS
10
-0.573517
20
0.0757559
11
-0.568346
21
0.0765748
0
LINE
8
BLACK
6
CONTINUOUS
10
-0.568346
20
0.0765748
11
-0.55063
21
0.0765748
0
LINE
8
BLACK
6
CONTINUOUS
10
-0.55063
20
0.0765748
11
-0.545459
21
0.0757559
0
LINE
8
BLACK
6
CONTINUOUS
10
-0.606483
20
0.0757559
11
-0.601819
21
0.0733792
0
LINE
8
BLACK
6
CONTINUOUS
10
-0.601819
20
0.0733792
11
-0.598117
21
0.0696775
0
LINE
8
BLACK
6
CONTINUOUS
10
-0.598117
20
0.0696775
11
-0.59574
21
0.0650131
0
LINE
8
BLACK
6
CONTINUOUS
10
-0.59574
20
0.0650131
11
-0.594921
21
0.0598425
0
LINE
8
BLACK
6
CONTINUOUS
10
-0.594921
20
0.0598425
11
-0.594921
21
0.0401575
0
LINE
8
BLACK
6
CONTINUOUS
10
-0.594921
20
0.0401575
11
-0.59574
21
0.0349869
0
LINE
8
BLACK
6
CONTINUOUS
10
-0.59574
20
0.0349869
11
-0.598117
21
0.0303225
0
LINE
8
BLACK
6
CONTINUOUS
10
-0.598117
20
0.0303225
11
-0.601819
21
0.0266208
0
LINE
8
BLACK
6
CONTINUOUS
10
-0.601819
20
0.0266208
11
-0.606483
21
0.0242441
0
LINE
8
BLACK
6
CONTINUOUS
10
-0.606483
20
0.0242441
11
-0.611654
21
0.0234252
0
LINE
8
BLACK
6
CONTINUOUS
10
-0.611654
20
0.0234252
11
-0.62937
21
0.0234252
0
LINE
8
BLACK
6
CONTINUOUS
10
-0.62937
20
0.0234252
11
-0.634541
21
0.0242441
0
LINE
8
BLACK
6
CONTINUOUS
10
-0.634541
20
0.0242441
11
-0.639205
21
0.0266208
0
LINE
8
BLACK
6
CONTINUOUS
10
-0.639205
20
0.0266208
11
-0.642907
21
0.0303225
0
LINE
8
BLACK
6
CONTINUOUS
10
-0.642907
20
0.0303225
11
-0.645283
21
0.0349869
0
LINE
8
BLACK
6
CONTINUOUS
10
-0.645283
20
0.0349869
11
-0.646102
21
0.0401575
0
LINE
8
BLACK
6
CONTINUOUS
10
-0.646102
20
0.0401575
11
-0.646102
21
0.0598425
0
LINE
8
BLACK
6
CONTINUOUS
10
-0.646102
20
0.0598425
11
-0.645283
21
0.0650131
0
LINE
8
BLACK
6
CONTINUOUS
10
-0.645283
20
0.0650131
11
-0.642907
21
0.0696775
0
LINE
8
BLACK
6
CONTINUOUS
10
-0.642907
20
0.0696775
11
-0.639205
21
0.0733792
0
LINE
8
BLACK
6
CONTINUOUS
10
-0.639205
20
0.0733792
11
-0.634541
21
0.0757559
0
LINE
8
BLACK
6
CONTINUOUS
10
-0.634541
20
0.0757559
11
-0.62937
21
0.0765748
0
LINE
8
BLACK
6
CONTINUOUS
10
-0.62937
20
0.0765748
11
-0.611654
21
0.0765748
0
LINE
8
BLACK
6
CONTINUOUS
10
-0.611654
20
0.0765748
11
-0.606483
21
0.0757559
0
LINE
8
BLACK
6
CONTINUOUS
10
0.233312
20
0.140494
11
0.241019
21
0.138109
0
LINE
8
BLACK
6
CONTINUOUS
10
0.241019
20
0.138109
11
0.248116
21
0.134271
0
LINE
8
BLACK
6
CONTINUOUS
10
0.248116
20
0.134271
11
0.254333
21
0.129129
0
LINE
8
BLACK
6
CONTINUOUS
10
0.254333
20
0.129129
11
0.259432
21
0.122876
0
LINE
8
BLACK
6
CONTINUOUS
10
0.259432
20
0.122876
11
0.263219
21
0.115753
0
LINE
8
BLACK
6
CONTINUOUS
10
0.263219
20
0.115753
11
0.265551
21
0.108029
0
LINE
8
BLACK
6
CONTINUOUS
10
0.265551
20
0.108029
11
0.266339
21
0.1
0
LINE
8
BLACK
6
CONTINUOUS
10
0.266339
20
0.1
11
0.266322
21
0.0988457
0
LINE
8
BLACK
6
CONTINUOUS
10
0.266322
20
0.0988457
11
0.265311
21
0.0908415
0
LINE
8
BLACK
6
CONTINUOUS
10
0.265311
20
0.0908415
11
0.262765
21
0.0831861
0
LINE
8
BLACK
6
CONTINUOUS
10
0.262765
20
0.0831861
11
0.25878
21
0.0761711
0
LINE
8
BLACK
6
CONTINUOUS
10
0.25878
20
0.0761711
11
0.253508
21
0.0700638
0
LINE
8
BLACK
6
CONTINUOUS
10
0.253508
20
0.0700638
11
0.24715
21
0.0650967
0
LINE
8
BLACK
6
CONTINUOUS
10
0.24715
20
0.0650967
11
0.239949
21
0.0614591
0
LINE
8
BLACK
6
CONTINUOUS
10
0.239949
20
0.0614591
11
0.232178
21
0.0592894
0
LINE
8
BLACK
6
CONTINUOUS
10
0.232178
20
0.0592894
11
0.224134
21
0.0586705
0
LINE
8
BLACK
6
CONTINUOUS
10
0.224134
20
0.0586705
11
0.216123
21
0.0596257
0
LINE
8
BLACK
6
CONTINUOUS
10
0.216123
20
0.0596257
11
0.20845
21
0.0621189
0
LINE
8
BLACK
6
CONTINUOUS
10
0.20845
20
0.0621189
11
0.201408
21
0.0660548
0
LINE
8
BLACK
6
CONTINUOUS
10
0.201408
20
0.0660548
11
0.195264
21
0.0712838
0
LINE
8
BLACK
6
CONTINUOUS
10
0.195264
20
0.0712838
11
0.190252
21
0.0776065
0
LINE
8
BLACK
6
CONTINUOUS
10
0.190252
20
0.0776065
11
0.186564
21
0.0847822
0
LINE
8
BLACK
6
CONTINUOUS
10
0.186564
20
0.0847822
11
0.184341
21
0.0925376
0
LINE
8
BLACK
6
CONTINUOUS
10
0.184341
20
0.0925376
11
0.183665
21
0.100577
0
LINE
8
BLACK
6
CONTINUOUS
10
0.183665
20
0.100577
11
0.184565
21
0.108595
0
LINE
8
BLACK
6
CONTINUOUS
10
0.184565
20
0.108595
11
0.187004
21
0.116285
0
LINE
8
BLACK
6
CONTINUOUS
10
0.187004
20
0.116285
11
0.190891
21
0.123355
0
LINE
8
BLACK
6
CONTINUOUS
10
0.190891
20
0.123355
11
0.196077
21
0.129535
0
LINE
8
BLACK
6
CONTINUOUS
10
0.196077
20
0.129535
11
0.202365
21
0.134591
0
LINE
8
BLACK
6
CONTINUOUS
10
0.202365
20
0.134591
11
0.209514
21
0.138328
0
LINE
8
BLACK
6
CONTINUOUS
10
0.209514
20
0.138328
11
0.217254
21
0.140606
0
LINE
8
BLACK
6
CONTINUOUS
10
0.217254
20
0.140606
11
0.225289
21
0.141338
0
LINE
8
BLACK
6
CONTINUOUS
10
0.225289
20
0.141338
11
0.233312
21
0.140494
0
LINE
8
BLACK
6
CONTINUOUS
10
-0.158983
20
0.114145
11
-0.154319
21
0.111769
0
LINE
8
BLACK
6
CONTINUOUS
10
-0.154319
20
0.111769
11
-0.150617
21
0.108067
0
LINE
8
BLACK
6
CONTINUOUS
10
-0.150617
20
0.108067
11
-0.14824
21
0.103403
0
LINE
8
BLACK
6
CONTINUOUS
10
-0.14824
20
0.103403
11
-0.147421
21
0.0982321
0
LINE
8
BLACK
6
CONTINUOUS
10
-0.147421
20
0.0982321
11
-0.147421
21
0.0805156
0
LINE
8
BLACK
6
CONTINUOUS
10
-0.147421
20
0.0805156
11
-0.14824
21
0.075345
0
LINE
8
BLACK
6
CONTINUOUS
10
-0.14824
20
0.075345
11
-0.150617
21
0.0706806
0
LINE
8
BLACK
6
CONTINUOUS
10
-0.150617
20
0.0706806
11
-0.154319
21
0.0669789
0
LINE
8
BLACK
6
CONTINUOUS
10
-0.154319
20
0.0669789
11
-0.158983
21
0.0646022
0
LINE
8
BLACK
6
CONTINUOUS
10
-0.158983
20
0.0646022
11
-0.164154
21
0.0637833
0
LINE
8
BLACK
6
CONTINUOUS
10
-0.164154
20
0.0637833
11
-0.183839
21
0.0637833
0
LINE
8
BLACK
6
CONTINUOUS
10
-0.183839
20
0.0637833
11
-0.189009
21
0.0646022
0
LINE
8
BLACK
6
CONTINUOUS
10
-0.189009
20
0.0646022
11
-0.193674
21
0.0669789
0
LINE
8
BLACK
6
CONTINUOUS
10
-0.193674
20
0.0669789
11
-0.197375
21
0.0706806
0
LINE
8
BLACK
6
CONTINUOUS
10
-0.197375
20
0.0706806
11
-0.199752
21
0.075345
0
LINE
8
BLACK
6
CONTINUOUS
10
-0.199752
20
0.075345
11
-0.200571
21
0.0805156
0
LINE
8
BLACK
6
CONTINUOUS
10
-0.200571
20
0.0805156
11
-0.200571
21
0.0982321
0
LINE
8
BLACK
6
CONTINUOUS
10
-0.200571
20
0.0982321
11
-0.199752
21
0.103403
0
LINE
8
BLACK
6
CONTINUOUS
10
-0.199752
20
0.103403
11
-0.197375
21
0.108067
0
LINE
8
BLACK
6
CONTINUOUS
10
-0.197375
20
0.108067
11
-0.193674
21
0.111769
0
LINE
8
BLACK
6
CONTINUOUS
10
-0.193674
20
0.111769
11
-0.189009
21
0.114145
0
LINE
8
BLACK
6
CONTINUOUS
10
-0.189009
20
0.114145
11
-0.183839
21
0.114964
0
LINE
8
BLACK
6
CONTINUOUS
10
-0.183839
20
0.114964
11
-0.164154
21
0.114964
0
LINE
8
BLACK
6
CONTINUOUS
10
-0.164154
20
0.114964
11
-0.158983
21
0.114145
0
LINE
8
BLACK
6
CONTINUOUS
10
-0.621575
20
0.134508
11
-0.61751
21
0.132521
0
LINE
8
BLACK
6
CONTINUOUS
10
-0.61751
20
0.132521
11
-0.614308
21
0.129324
0
LINE
8
BLACK
6
CONTINUOUS
10
-0.614308
20
0.129324
11
-0.612313
21
0.125263
0
LINE
8
BLACK
6
CONTINUOUS
10
-0.612313
20
0.125263
11
-0.611732
21
0.121303
0
LINE
8
BLACK
6
CONTINUOUS
10
-0.611732
20
0.121303
11
-0.611732
21
0.109492
0
LINE
8
BLACK
6
CONTINUOUS
10
-0.611732
20
0.109492
11
-0.612307
21
0.105555
0
LINE
8
BLACK
6
CONTINUOUS
10
-0.612307
20
0.105555
11
-0.614294
21
0.10149
0
LINE
8
BLACK
6
CONTINUOUS
10
-0.614294
20
0.10149
11
-0.61749
21
0.0982878
0
LINE
8
BLACK
6
CONTINUOUS
10
-0.61749
20
0.0982878
11
-0.621552
21
0.0962936
0
LINE
8
BLACK
6
CONTINUOUS
10
-0.621552
20
0.0962936
11
-0.625512
21
0.0957124
0
LINE
8
BLACK
6
CONTINUOUS
10
-0.625512
20
0.0957124
11
-0.68063
21
0.0957124
0
LINE
8
BLACK
6
CONTINUOUS
10
-0.68063
20
0.0957124
11
-0.684567
21
0.0962867
0
LINE
8
BLACK
6
CONTINUOUS
10
-0.684567
20
0.0962867
11
-0.688632
21
0.0982739
0
LINE
8
BLACK
6
CONTINUOUS
10
-0.688632
20
0.0982739
11
-0.691834
21
0.101471
0
LINE
8
BLACK
6
CONTINUOUS
10
-0.691834
20
0.101471
11
-0.693828
21
0.105532
0
LINE
8
BLACK
6
CONTINUOUS
10
-0.693828
20
0.105532
11
-0.694409
21
0.109492
0
LINE
8
BLACK
6
CONTINUOUS
10
-0.694409
20
0.109492
11
-0.694409
21
0.121303
0
LINE
8
BLACK
6
CONTINUOUS
10
-0.694409
20
0.121303
11
-0.693835
21
0.12524
0
LINE
8
BLACK
6
CONTINUOUS
10
-0.693835
20
0.12524
11
-0.691848
21
0.129305
0
LINE
8
BLACK
6
CONTINUOUS
10
-0.691848
20
0.129305
11
-0.688651
21
0.132507
0
LINE
8
BLACK
6
CONTINUOUS
10
-0.688651
20
0.132507
11
-0.68459
21
0.134501
0
LINE
8
BLACK
6
CONTINUOUS
10
-0.68459
20
0.134501
11
-0.68063
21
0.135083
0
LINE
8
BLACK
6
CONTINUOUS
10
-0.68063
20
0.135083
11
-0.625512
21
0.135083
0
LINE
8
BLACK
6
CONTINUOUS
10
-0.625512
20
0.135083
11
-0.621575
21
0.134508
0
LINE
8
BLACK
6
CONTINUOUS
10
-0.158983
20
0.175169
11
-0.154319
21
0.172792
0
LINE
8
BLACK
6
CONTINUOUS
10
-0.154319
20
0.172792
11
-0.150617
21
0.169091
0
LINE
8
BLACK
6
CONTINUOUS
10
-0.150617
20
0.169091
11
-0.14824
21
0.164426
0
LINE
8
BLACK
6
CONTINUOUS
10
-0.14824
20
0.164426
11
-0.147421
21
0.159256
0
LINE
8
BLACK
6
CONTINUOUS
10
-0.147421
20
0.159256
11
-0.147421
21
0.141539
0
LINE
8
BLACK
6
CONTINUOUS
10
-0.147421
20
0.141539
11
-0.14824
21
0.136369
0
LINE
8
BLACK
6
CONTINUOUS
10
-0.14824
20
0.136369
11
-0.150617
21
0.131704
0
LINE
8
BLACK
6
CONTINUOUS
10
-0.150617
20
0.131704
11
-0.154319
21
0.128003
0
LINE
8
BLACK
6
CONTINUOUS
10
-0.154319
20
0.128003
11
-0.158983
21
0.125626
0
LINE
8
BLACK
6
CONTINUOUS
10
-0.158983
20
0.125626
11
-0.164154
21
0.124807
0
LINE
8
BLACK
6
CONTINUOUS
10
-0.164154
20
0.124807
11
-0.183839
21
0.124807
0
LINE
8
BLACK
6
CONTINUOUS
10
-0.183839
20
0.124807
11
-0.189009
21
0.125626
0
LINE
8
BLACK
6
CONTINUOUS
10
-0.189009
20
0.125626
11
-0.193674
21
0.128003
0
LINE
8
BLACK
6
CONTINUOUS
10
-0.193674
20
0.128003
11
-0.197375
21
0.131704
0
LINE
8
BLACK
6
CONTINUOUS
10
-0.197375
20
0.131704
11
-0.199752
21
0.136369
0
LINE
8
BLACK
6
CONTINUOUS
10
-0.199752
20
0.136369
11
-0.200571
21
0.141539
0
LINE
8
BLACK
6
CONTINUOUS
10
-0.200571
20
0.141539
11
-0.200571
21
0.159256
0
LINE
8
BLACK
6
CONTINUOUS
10
-0.200571
20
0.159256
11
-0.199752
21
0.164426
0
LINE
8
BLACK
6
CONTINUOUS
10
-0.199752
20
0.164426
11
-0.197375
21
0.169091
0
LINE
8
BLACK
6
CONTINUOUS
10
-0.197375
20
0.169091
11
-0.193674
21
0.172792
0
LINE
8
BLACK
6
CONTINUOUS
10
-0.193674
20
0.172792
11
-0.189009
21
0.175169
0
LINE
8
BLACK
6
CONTINUOUS
10
-0.189009
20
0.175169
11
-0.183839
21
0.175988
0
LINE
8
BLACK
6
CONTINUOUS
10
-0.183839
20
0.175988
11
-0.164154
21
0.175988
0
LINE
8
BLACK
6
CONTINUOUS
10
-0.164154
20
0.175988
11
-0.158983
21
0.175169
0
LINE
8
BLACK
6
CONTINUOUS
10
-0.386325
20
0.26181
11
-0.380795
21
0.259819
0
LINE
8
BLACK
6
CONTINUOUS
10
-0.380795
20
0.259819
11
-0.376004
21
0.256415
0
LINE
8
BLACK
6
CONTINUOUS
10
-0.376004
20
0.256415
11
-0.372305
21
0.251847
0
LINE
8
BLACK
6
CONTINUOUS
10
-0.372305
20
0.251847
11
-0.369971
21
0.246453
0
LINE
8
BLACK
6
CONTINUOUS
10
-0.369971
20
0.246453
11
-0.369173
21
0.24063
0
LINE
8
BLACK
6
CONTINUOUS
10
-0.369173
20
0.24063
11
-0.369173
21
0.165827
0
LINE
8
BLACK
6
CONTINUOUS
10
-0.369173
20
0.165827
11
-0.369406
21
0.162664
0
LINE
8
BLACK
6
CONTINUOUS
10
-0.369406
20
0.162664
11
-0.371045
21
0.157019
0
LINE
8
BLACK
6
CONTINUOUS
10
-0.371045
20
0.157019
11
-0.374142
21
0.152024
0
LINE
8
BLACK
6
CONTINUOUS
10
-0.374142
20
0.152024
11
-0.378469
21
0.148046
0
LINE
8
BLACK
6
CONTINUOUS
10
-0.378469
20
0.148046
11
-0.383706
21
0.145378
0
LINE
8
BLACK
6
CONTINUOUS
10
-0.383706
20
0.145378
11
-0.389467
21
0.144216
0
LINE
8
BLACK
6
CONTINUOUS
10
-0.389467
20
0.144216
11
-0.395329
21
0.144646
0
LINE
8
BLACK
6
CONTINUOUS
10
-0.395329
20
0.144646
11
-0.400859
21
0.146637
0
LINE
8
BLACK
6
CONTINUOUS
10
-0.400859
20
0.146637
11
-0.40565
21
0.150042
0
LINE
8
BLACK
6
CONTINUOUS
10
-0.40565
20
0.150042
11
-0.409348
21
0.15461
0
LINE
8
BLACK
6
CONTINUOUS
10
-0.409348
20
0.15461
11
-0.411683
21
0.160004
0
LINE
8
BLACK
6
CONTINUOUS
10
-0.411683
20
0.160004
11
-0.41248
21
0.165827
0
LINE
8
BLACK
6
CONTINUOUS
10
-0.41248
20
0.165827
11
-0.41248
21
0.24063
0
LINE
8
BLACK
6
CONTINUOUS
10
-0.41248
20
0.24063
11
-0.412248
21
0.243793
0
LINE
8
BLACK
6
CONTINUOUS
10
-0.412248
20
0.243793
11
-0.410608
21
0.249437
0
LINE
8
BLACK
6
CONTINUOUS
10
-0.410608
20
0.249437
11
-0.407511
21
0.254432
0
LINE
8
BLACK
6
CONTINUOUS
10
-0.407511
20
0.254432
11
-0.403185
21
0.258411
0
LINE
8
BLACK
6
CONTINUOUS
10
-0.403185
20
0.258411
11
-0.397948
21
0.261079
0
LINE
8
BLACK
6
CONTINUOUS
10
-0.397948
20
0.261079
11
-0.392186
21
0.262241
0
LINE
8
BLACK
6
CONTINUOUS
10
-0.392186
20
0.262241
11
-0.386325
21
0.26181
0
LINE
8
BLACK
6
CONTINUOUS
10
-0.286325
20
0.26181
11
-0.280795
21
0.259819
0
LINE
8
BLACK
6
CONTINUOUS
10
-0.280795
20
0.259819
11
-0.276004
21
0.256415
0
LINE
8
BLACK
6
CONTINUOUS
10
-0.276004
20
0.256415
11
-0.272305
21
0.251847
0
LINE
8
BLACK
6
CONTINUOUS
10
-0.272305
20
0.251847
11
-0.269971
21
0.246453
0
LINE
8
BLACK
6
CONTINUOUS
10
-0.269971
20
0.246453
11
-0.269173
21
0.24063
0
LINE
8
BLACK
6
CONTINUOUS
10
-0.269173
20
0.24063
11
-0.269173
21
0.165827
0
LINE
8
BLACK
6
CONTINUOUS
10
-0.269173
20
0.165827
11
-0.269406
21
0.162664
0
LINE
8
BLACK
6
CONTINUOUS
10
-0.269406
20
0.162664
11
-0.271045
21
0.157019
0
LINE
8
BLACK
6
CONTINUOUS
10
-0.271045
20
0.157019
11
-0.274142
21
0.152024
0
LINE
8
BLACK
6
CONTINUOUS
10
-0.274142
20
0.152024
11
-0.278469
21
0.148046
0
LINE
8
BLACK
6
CONTINUOUS
10
-0.278469
20
0.148046
11
-0.283706
21
0.145378
0
LINE
8
BLACK
6
CONTINUOUS
10
-0.283706
20
0.145378
11
-0.289467
21
0.144216
0
LINE
8
BLACK
6
CONTINUOUS
10
-0.289467
20
0.144216
11
-0.295329
21
0.144646
0
LINE
8
BLACK
6
CONTINUOUS
10
-0.295329
20
0.144646
11
-0.300859
21
0.146637
0
LINE
8
BLACK
6
CONTINUOUS
10
-0.300859
20
0.146637
11
-0.30565
21
0.150042
0
LINE
8
BLACK
6
CONTINUOUS
10
-0.30565
20
0.150042
11
-0.309348
21
0.15461
0
LINE
8
BLACK
6
CONTINUOUS
10
-0.309348
20
0.15461
11
-0.311683
21
0.160004
0
LINE
8
BLACK
6
CONTINUOUS
10
-0.311683
20
0.160004
11
-0.31248
21
0.165827
0
LINE
8
BLACK
6
CONTINUOUS
10
-0.31248
20
0.165827
11
-0.31248
21
0.24063
0
LINE
8
BLACK
6
CONTINUOUS
10
-0.31248
20
0.24063
11
-0.312248
21
0.243793
0
LINE
8
BLACK
6
CONTINUOUS
10
-0.312248
20
0.243793
11
-0.310608
21
0.249437
0
LINE
8
BLACK
6
CONTINUOUS
10
-0.310608
20
0.249437
11
-0.307511
21
0.254432
0
LINE
8
BLACK
6
CONTINUOUS
10
-0.307511
20
0.254432
11
-0.303185
21
0.258411
0
LINE
8
BLACK
6
CONTINUOUS
10
-0.303185
20
0.258411
11
-0.297948
21
0.261079
0
LINE
8
BLACK
6
CONTINUOUS
10
-0.297948
20
0.261079
11
-0.292186
21
0.262241
0
LINE
8
BLACK
6
CONTINUOUS
10
-0.292186
20
0.262241
11
-0.286325
21
0.26181
0
LINE
8
BLACK
6
CONTINUOUS
10
-0.333766
20
0.26181
11
-0.328236
21
0.259819
0
LINE
8
BLACK
6
CONTINUOUS
10
-0.328236
20
0.259819
11
-0.323445
21
0.256415
0
LINE
8
BLACK
6
CONTINUOUS
10
-0.323445
20
0.256415
11
-0.319746
21
0.251847
0
LINE
8
BLACK
6
CONTINUOUS
10
-0.319746
20
0.251847
11
-0.317412
21
0.246453
0
LINE
8
BLACK
6
CONTINUOUS
10
-0.317412
20
0.246453
11
-0.316614
21
0.24063
0
LINE
8
BLACK
6
CONTINUOUS
10
-0.316614
20
0.24063
11
-0.316614
21
0.165827
0
LINE
8
BLACK
6
CONTINUOUS
10
-0.316614
20
0.165827
11
-0.316846
21
0.162664
0
LINE
8
BLACK
6
CONTINUOUS
10
-0.316846
20
0.162664
11
-0.318486
21
0.157019
0
LINE
8
BLACK
6
CONTINUOUS
10
-0.318486
20
0.157019
11
-0.321583
21
0.152024
0
LINE
8
BLACK
6
CONTINUOUS
10
-0.321583
20
0.152024
11
-0.32591
21
0.148046
0
LINE
8
BLACK
6
CONTINUOUS
10
-0.32591
20
0.148046
11
-0.331147
21
0.145378
0
LINE
8
BLACK
6
CONTINUOUS
10
-0.331147
20
0.145378
11
-0.336908
21
0.144216
0
LINE
8
BLACK
6
CONTINUOUS
10
-0.336908
20
0.144216
11
-0.34277
21
0.144646
0
LINE
8
BLACK
6
CONTINUOUS
10
-0.34277
20
0.144646
11
-0.3483
21
0.146637
0
LINE
8
BLACK
6
CONTINUOUS
10
-0.3483
20
0.146637
11
-0.353091
21
0.150042
0
LINE
8
BLACK
6
CONTINUOUS
10
-0.353091
20
0.150042
11
-0.356789
21
0.15461
0
LINE
8
BLACK
6
CONTINUOUS
10
-0.356789
20
0.15461
11
-0.359124
21
0.160004
0
LINE
8
BLACK
6
CONTINUOUS
10
-0.359124
20
0.160004
11
-0.359921
21
0.165827
0
LINE
8
BLACK
6
CONTINUOUS
10
-0.359921
20
0.165827
11
-0.359921
21
0.24063
0
LINE
8
BLACK
6
CONTINUOUS
10
-0.359921
20
0.24063
11
-0.359689
21
0.243793
0
LINE
8
BLACK
6
CONTINUOUS
10
-0.359689
20
0.243793
11
-0.358049
21
0.249437
0
LINE
8
BLACK
6
CONTINUOUS
10
-0.358049
20
0.249437
11
-0.354952
21
0.254432
0
LINE
8
BLACK
6
CONTINUOUS
10
-0.354952
20
0.254432
11
-0.350626
21
0.258411
0
LINE
8
BLACK
6
CONTINUOUS
10
-0.350626
20
0.258411
11
-0.345389
21
0.261079
0
LINE
8
BLACK
6
CONTINUOUS
10
-0.345389
20
0.261079
11
-0.339627
21
0.262241
0
LINE
8
BLACK
6
CONTINUOUS
10
-0.339627
20
0.262241
11
-0.333766
21
0.26181
0
LINE
8
BLACK
6
CONTINUOUS
10
-0.436325
20
0.26181
11
-0.430795
21
0.259819
0
LINE
8
BLACK
6
CONTINUOUS
10
-0.430795
20
0.259819
11
-0.426004
21
0.256415
0
LINE
8
BLACK
6
CONTINUOUS
10
-0.426004
20
0.256415
11
-0.422305
21
0.251847
0
LINE
8
BLACK
6
CONTINUOUS
10
-0.422305
20
0.251847
11
-0.419971
21
0.246453
0
LINE
8
BLACK
6
CONTINUOUS
10
-0.419971
20
0.246453
11
-0.419173
21
0.24063
0
LINE
8
BLACK
6
CONTINUOUS
10
-0.419173
20
0.24063
11
-0.419173
21
0.165827
0
LINE
8
BLACK
6
CONTINUOUS
10
-0.419173
20
0.165827
11
-0.419406
21
0.162664
0
LINE
8
BLACK
6
CONTINUOUS
10
-0.419406
20
0.162664
11
-0.421045
21
0.157019
0
LINE
8
BLACK
6
CONTINUOUS
10
-0.421045
20
0.157019
11
-0.424142
21
0.152024
0
LINE
8
BLACK
6
CONTINUOUS
10
-0.424142
20
0.152024
11
-0.428469
21
0.148046
0
LINE
8
BLACK
6
CONTINUOUS
10
-0.428469
20
0.148046
11
-0.433706
21
0.145378
0
LINE
8
BLACK
6
CONTINUOUS
10
-0.433706
20
0.145378
11
-0.439467
21
0.144216
0
LINE
8
BLACK
6
CONTINUOUS
10
-0.439467
20
0.144216
11
-0.445329
21
0.144646
0
LINE
8
BLACK
6
CONTINUOUS
10
-0.445329
20
0.144646
11
-0.450859
21
0.146637
0
LINE
8
BLACK
6
CONTINUOUS
10
-0.450859
20
0.146637
11
-0.45565
21
0.150042
0
LINE
8
BLACK
6
CONTINUOUS
10
-0.45565
20
0.150042
11
-0.459348
21
0.15461
0
LINE
8
BLACK
6
CONTINUOUS
10
-0.459348
20
0.15461
11
-0.461683
21
0.160004
0
LINE
8
BLACK
6
CONTINUOUS
10
-0.461683
20
0.160004
11
-0.46248
21
0.165827
0
LINE
8
BLACK
6
CONTINUOUS
10
-0.46248
20
0.165827
11
-0.46248
21
0.24063
0
LINE
8
BLACK
6
CONTINUOUS
10
-0.46248
20
0.24063
11
-0.462248
21
0.243793
0
LINE
8
BLACK
6
CONTINUOUS
10
-0.462248
20
0.243793
11
-0.460608
21
0.249437
0
LINE
8
BLACK
6
CONTINUOUS
10
-0.460608
20
0.249437
11
-0.457511
21
0.254432
0
LINE
8
BLACK
6
CONTINUOUS
10
-0.457511
20
0.254432
11
-0.453185
21
0.258411
0
LINE
8
BLACK
6
CONTINUOUS
10
-0.453185
20
0.258411
11
-0.447948
21
0.261079
0
LINE
8
BLACK
6
CONTINUOUS
10
-0.447948
20
0.261079
11
-0.442186
21
0.262241
0
LINE
8
BLACK
6
CONTINUOUS
10
-0.442186
20
0.262241
11
-0.436325
21
0.26181
0
LINE
8
BLACK
6
CONTINUOUS
10
-0.621575
20
0.183721
11
-0.61751
21
0.181734
0
LINE
8
BLACK
6
CONTINUOUS
10
-0.61751
20
0.181734
11
-0.614308
21
0.178537
0
LINE
8
BLACK
6
CONTINUOUS
10
-0.614308
20
0.178537
11
-0.612313
21
0.174475
0
LINE
8
BLACK
6
CONTINUOUS
10
-0.612313
20
0.174475
11
-0.611732
21
0.170516
0
LINE
8
BLACK
6
CONTINUOUS
10
-0.611732
20
0.170516
11
-0.611732
21
0.158705
0
LINE
8
BLACK
6
CONTINUOUS
10
-0.611732
20
0.158705
11
-0.612307
21
0.154768
0
LINE
8
BLACK
6
CONTINUOUS
10
-0.612307
20
0.154768
11
-0.614294
21
0.150703
0
LINE
8
BLACK
6
CONTINUOUS
10
-0.614294
20
0.150703
11
-0.61749
21
0.1475
0
LINE
8
BLACK
6
CONTINUOUS
10
-0.61749
20
0.1475
11
-0.621552
21
0.145506
0
LINE
8
BLACK
6
CONTINUOUS
10
-0.621552
20
0.145506
11
-0.625512
21
0.144925
0
LINE
8
BLACK
6
CONTINUOUS
10
-0.625512
20
0.144925
11
-0.68063
21
0.144925
0
LINE
8
BLACK
6
CONTINUOUS
10
-0.68063
20
0.144925
11
-0.684567
21
0.145499
0
LINE
8
BLACK
6
CONTINUOUS
10
-0.684567
20
0.145499
11
-0.688632
21
0.147486
0
LINE
8
BLACK
6
CONTINUOUS
10
-0.688632
20
0.147486
11
-0.691834
21
0.150683
0
LINE
8
BLACK
6
CONTINUOUS
10
-0.691834
20
0.150683
11
-0.693828
21
0.154745
0
LINE
8
BLACK
6
CONTINUOUS
10
-0.693828
20
0.154745
11
-0.694409
21
0.158705
0
LINE
8
BLACK
6
CONTINUOUS
10
-0.694409
20
0.158705
11
-0.694409
21
0.170516
0
LINE
8
BLACK
6
CONTINUOUS
10
-0.694409
20
0.170516
11
-0.693835
21
0.174452
0
LINE
8
BLACK
6
CONTINUOUS
10
-0.693835
20
0.174452
11
-0.691848
21
0.178517
0
LINE
8
BLACK
6
CONTINUOUS
10
-0.691848
20
0.178517
11
-0.688651
21
0.18172
0
LINE
8
BLACK
6
CONTINUOUS
10
-0.688651
20
0.18172
11
-0.68459
21
0.183714
0
LINE
8
BLACK
6
CONTINUOUS
10
-0.68459
20
0.183714
11
-0.68063
21
0.184295
0
LINE
8
BLACK
6
CONTINUOUS
10
-0.68063
20
0.184295
11
-0.625512
21
0.184295
0
LINE
8
BLACK
6
CONTINUOUS
10
-0.625512
20
0.184295
11
-0.621575
21
0.183721
0
LINE
8
BLACK
6
CONTINUOUS
10
0.0873441
20
0.331614
11
0.0883811
21
0.331601
0
LINE
8
BLACK
6
CONTINUOUS
10
0.0883811
20
0.331601
11
0.0938959
21
0.330743
0
LINE
8
BLACK
6
CONTINUOUS
10
0.0938959
20
0.330743
11
0.0960308
21
0.33009
0
LINE
8
BLACK
6
CONTINUOUS
10
0.0960308
20
0.33009
11
0.101083
21
0.327718
0
LINE
8
BLACK
6
CONTINUOUS
10
0.101083
20
0.327718
11
0.102949
21
0.326492
0
LINE
8
BLACK
6
CONTINUOUS
10
0.102949
20
0.326492
11
0.107132
21
0.322798
0
LINE
8
BLACK
6
CONTINUOUS
10
0.107132
20
0.322798
11
0.108579
21
0.321098
0
LINE
8
BLACK
6
CONTINUOUS
10
0.108579
20
0.321098
11
0.111558
21
0.316377
0
LINE
8
BLACK
6
CONTINUOUS
10
0.111558
20
0.316377
11
0.112469
21
0.314339
0
LINE
8
BLACK
6
CONTINUOUS
10
0.112469
20
0.314339
11
0.114003
21
0.308973
0
LINE
8
BLACK
6
CONTINUOUS
10
0.114003
20
0.308973
11
0.114306
21
0.306761
0
LINE
8
BLACK
6
CONTINUOUS
10
0.114306
20
0.306761
11
0.114296
21
0.305105
0
LINE
8
BLACK
6
CONTINUOUS
10
0.114296
20
0.305105
11
0.114488
21
0.304138
0
LINE
8
BLACK
6
CONTINUOUS
10
0.114488
20
0.304138
11
0.114488
21
0.282484
0
LINE
8
BLACK
6
CONTINUOUS
10
0.114488
20
0.282484
11
0.113889
21
0.279471
0
LINE
8
BLACK
6
CONTINUOUS
10
0.113889
20
0.279471
11
0.112614
21
0.277563
0
LINE
8
BLACK
6
CONTINUOUS
10
0.112614
20
0.277563
11
0.113889
21
0.275655
0
LINE
8
BLACK
6
CONTINUOUS
10
0.113889
20
0.275655
11
0.114488
21
0.272642
0
LINE
8
BLACK
6
CONTINUOUS
10
0.114488
20
0.272642
11
0.114488
21
0.233271
0
LINE
8
BLACK
6
CONTINUOUS
10
0.114488
20
0.233271
11
0.113889
21
0.230258
0
LINE
8
BLACK
6
CONTINUOUS
10
0.113889
20
0.230258
11
0.112614
21
0.22835
0
LINE
8
BLACK
6
CONTINUOUS
10
0.112614
20
0.22835
11
0.113889
21
0.226442
0
LINE
8
BLACK
6
CONTINUOUS
10
0.113889
20
0.226442
11
0.114488
21
0.223429
0
LINE
8
BLACK
6
CONTINUOUS
10
0.114488
20
0.223429
11
0.114488
21
0.201775
0
LINE
8
BLACK
6
CONTINUOUS
10
0.114488
20
0.201775
11
0.114284
21
0.200747
0
LINE
8
BLACK
6
CONTINUOUS
10
0.114284
20
0.200747
11
0.114272
21
0.198818
0
LINE
8
BLACK
6
CONTINUOUS
10
0.114272
20
0.198818
11
0.113942
21
0.19661
0
LINE
8
BLACK
6
CONTINUOUS
10
0.113942
20
0.19661
11
0.112343
21
0.191262
0
LINE
8
BLACK
6
CONTINUOUS
10
0.112343
20
0.191262
11
0.111406
21
0.189236
0
LINE
8
BLACK
6
CONTINUOUS
10
0.111406
20
0.189236
11
0.108371
21
0.184552
0
LINE
8
BLACK
6
CONTINUOUS
10
0.108371
20
0.184552
11
0.106903
21
0.18287
0
LINE
8
BLACK
6
CONTINUOUS
10
0.106903
20
0.18287
11
0.102675
21
0.179227
0
LINE
8
BLACK
6
CONTINUOUS
10
0.102675
20
0.179227
11
0.100794
21
0.178024
0
LINE
8
BLACK
6
CONTINUOUS
10
0.100794
20
0.178024
11
0.0957131
21
0.175714
0
LINE
8
BLACK
6
CONTINUOUS
10
0.0957131
20
0.175714
11
0.0935703
21
0.175087
0
LINE
8
BLACK
6
CONTINUOUS
10
0.0935703
20
0.175087
11
0.0880454
21
0.174296
0
LINE
8
BLACK
6
CONTINUOUS
10
0.0880454
20
0.174296
11
0.0869291
21
0.174216
0
LINE
8
BLACK
6
CONTINUOUS
10
0.0869291
20
0.174216
11
0.0672441
21
0.174216
0
LINE
8
BLACK
6
CONTINUOUS
10
0.0672441
20
0.174216
11
0.0671481
21
0.174217
0
LINE
8
BLACK
6
CONTINUOUS
10
0.0671481
20
0.174217
11
0.0666671
21
0.174223
0
LINE
8
BLACK
6
CONTINUOUS
10
0.0666671
20
0.174223
11
0.0654568
21
0.174331
0
LINE
8
BLACK
6
CONTINUOUS
10
0.0654568
20
0.174331
11
0.0599528
21
0.175257
0
LINE
8
BLACK
6
CONTINUOUS
10
0.0599528
20
0.175257
11
0.0578259
21
0.175936
0
LINE
8
BLACK
6
CONTINUOUS
10
0.0578259
20
0.175936
11
0.0528031
21
0.17837
0
LINE
8
BLACK
6
CONTINUOUS
10
0.0528031
20
0.17837
11
0.0509524
21
0.179618
0
LINE
8
BLACK
6
CONTINUOUS
10
0.0509524
20
0.179618
11
0.0468144
21
0.183364
0
LINE
8
BLACK
6
CONTINUOUS
10
0.0468144
20
0.183364
11
0.0453883
21
0.185081
0
LINE
8
BLACK
6
CONTINUOUS
10
0.0453883
20
0.185081
11
0.042468
21
0.189838
0
LINE
8
BLACK
6
CONTINUOUS
10
0.042468
20
0.189838
11
0.0415813
21
0.191886
0
LINE
8
BLACK
6
CONTINUOUS
10
0.0415813
20
0.191886
11
0.0401133
21
0.197271
0
LINE
8
BLACK
6
CONTINUOUS
10
0.0401133
20
0.197271
11
0.0398373
21
0.199487
0
LINE
8
BLACK
6
CONTINUOUS
10
0.0398373
20
0.199487
11
0.0398629
21
0.200881
0
LINE
8
BLACK
6
CONTINUOUS
10
0.0398629
20
0.200881
11
0.039685
21
0.201775
0
LINE
8
BLACK
6
CONTINUOUS
10
0.039685
20
0.201775
11
0.039685
21
0.223429
0
LINE
8
BLACK
6
CONTINUOUS
10
0.039685
20
0.223429
11
0.0402844
21
0.226442
0
LINE
8
BLACK
6
CONTINUOUS
10
0.0402844
20
0.226442
11
0.0415593
21
0.22835
0
LINE
8
BLACK
6
CONTINUOUS
10
0.0415593
20
0.22835
11
0.0402844
21
0.230258
0
LINE
8
BLACK
6
CONTINUOUS
10
0.0402844
20
0.230258
11
0.039685
21
0.233271
0
LINE
8
BLACK
6
CONTINUOUS
10
0.039685
20
0.233271
11
0.039685
21
0.272642
0
LINE
8
BLACK
6
CONTINUOUS
10
0.039685
20
0.272642
11
0.0402844
21
0.275655
0
LINE
8
BLACK
6
CONTINUOUS
10
0.0402844
20
0.275655
11
0.0415593
21
0.277563
0
LINE
8
BLACK
6
CONTINUOUS
10
0.0415593
20
0.277563
11
0.0402844
21
0.279471
0
LINE
8
BLACK
6
CONTINUOUS
10
0.0402844
20
0.279471
11
0.039685
21
0.282484
0
LINE
8
BLACK
6
CONTINUOUS
10
0.039685
20
0.282484
11
0.039685
21
0.304138
0
LINE
8
BLACK
6
CONTINUOUS
10
0.039685
20
0.304138
11
0.039899
21
0.305213
0
LINE
8
BLACK
6
CONTINUOUS
10
0.039899
20
0.305213
11
0.0399396
21
0.307429
0
LINE
8
BLACK
6
CONTINUOUS
10
0.0399396
20
0.307429
11
0.0402965
21
0.309633
0
LINE
8
BLACK
6
CONTINUOUS
10
0.0402965
20
0.309633
11
0.0419609
21
0.31496
0
LINE
8
BLACK
6
CONTINUOUS
10
0.0419609
20
0.31496
11
0.042922
21
0.316975
0
LINE
8
BLACK
6
CONTINUOUS
10
0.042922
20
0.316975
11
0.0460148
21
0.321621
0
LINE
8
BLACK
6
CONTINUOUS
10
0.0460148
20
0.321621
11
0.0475028
21
0.323286
0
LINE
8
BLACK
6
CONTINUOUS
10
0.0475028
20
0.323286
11
0.0517752
21
0.326877
0
LINE
8
BLACK
6
CONTINUOUS
10
0.0517752
20
0.326877
11
0.0536706
21
0.328057
0
LINE
8
BLACK
6
CONTINUOUS
10
0.0536706
20
0.328057
11
0.0587792
21
0.330305
0
LINE
8
BLACK
6
CONTINUOUS
10
0.0587792
20
0.330305
11
0.0609294
21
0.330905
0
LINE
8
BLACK
6
CONTINUOUS
10
0.0609294
20
0.330905
11
0.0662231
21
0.331597
0
LINE
8
BLACK
6
CONTINUOUS
10
0.0662231
20
0.331597
11
0.0662363
21
0.331496
0
LINE
8
BLACK
6
CONTINUOUS
10
0.0662363
20
0.331496
11
0.0672441
21
0.331697
0
LINE
8
BLACK
6
CONTINUOUS
10
0.0672441
20
0.331697
11
0.0869291
21
0.331697
0
LINE
8
BLACK
6
CONTINUOUS
10
0.0869291
20
0.331697
11
0.0873441
21
0.331614
0
LINE
8
BLACK
6
CONTINUOUS
10
0.202454
20
0.248706
11
0.207424
21
0.24696
0
LINE
8
BLACK
6
CONTINUOUS
10
0.207424
20
0.24696
11
0.211661
21
0.24383
0
LINE
8
BLACK
6
CONTINUOUS
10
0.211661
20
0.24383
11
0.214791
21
0.239593
0
LINE
8
BLACK
6
CONTINUOUS
10
0.214791
20
0.239593
11
0.216537
21
0.234623
0
LINE
8
BLACK
6
CONTINUOUS
10
0.216537
20
0.234623
11
0.21685
21
0.231303
0
LINE
8
BLACK
6
CONTINUOUS
10
0.21685
20
0.231303
11
0.21685
21
0.210634
0
LINE
8
BLACK
6
CONTINUOUS
10
0.21685
20
0.210634
11
0.216537
21
0.207314
0
LINE
8
BLACK
6
CONTINUOUS
10
0.216537
20
0.207314
11
0.214791
21
0.202344
0
LINE
8
BLACK
6
CONTINUOUS
10
0.214791
20
0.202344
11
0.211661
21
0.198106
0
LINE
8
BLACK
6
CONTINUOUS
10
0.211661
20
0.198106
11
0.207424
21
0.194976
0
LINE
8
BLACK
6
CONTINUOUS
10
0.207424
20
0.194976
11
0.202454
21
0.193231
0
LINE
8
BLACK
6
CONTINUOUS
10
0.202454
20
0.193231
11
0.199134
21
0.192917
0
LINE
8
BLACK
6
CONTINUOUS
10
0.199134
20
0.192917
11
0.163701
21
0.192917
0
LINE
8
BLACK
6
CONTINUOUS
10
0.163701
20
0.192917
11
0.160381
21
0.193231
0
LINE
8
BLACK
6
CONTINUOUS
10
0.160381
20
0.193231
11
0.155411
21
0.194976
0
LINE
8
BLACK
6
CONTINUOUS
10
0.155411
20
0.194976
11
0.151173
21
0.198106
0
LINE
8
BLACK
6
CONTINUOUS
10
0.151173
20
0.198106
11
0.148044
21
0.202344
0
LINE
8
BLACK
6
CONTINUOUS
10
0.148044
20
0.202344
11
0.146298
21
0.207314
0
LINE
8
BLACK
6
CONTINUOUS
10
0.146298
20
0.207314
11
0.145984
21
0.210634
0
LINE
8
BLACK
6
CONTINUOUS
10
0.145984
20
0.210634
11
0.145984
21
0.231303
0
LINE
8
BLACK
6
CONTINUOUS
10
0.145984
20
0.231303
11
0.146298
21
0.234623
0
LINE
8
BLACK
6
CONTINUOUS
10
0.146298
20
0.234623
11
0.148044
21
0.239593
0
LINE
8
BLACK
6
CONTINUOUS
10
0.148044
20
0.239593
11
0.151173
21
0.24383
0
LINE
8
BLACK
6
CONTINUOUS
10
0.151173
20
0.24383
11
0.155411
21
0.24696
0
LINE
8
BLACK
6
CONTINUOUS
10
0.155411
20
0.24696
11
0.160381
21
0.248706
0
LINE
8
BLACK
6
CONTINUOUS
10
0.160381
20
0.248706
11
0.163701
21
0.24902
0
LINE
8
BLACK
6
CONTINUOUS
10
0.163701
20
0.24902
11
0.199134
21
0.24902
0
LINE
8
BLACK
6
CONTINUOUS
10
0.199134
20
0.24902
11
0.202454
21
0.248706
0
LINE
8
BLACK
6
CONTINUOUS
10
0.375682
20
0.248706
11
0.380652
21
0.24696
0
LINE
8
BLACK
6
CONTINUOUS
10
0.380652
20
0.24696
11
0.38489
21
0.24383
0
LINE
8
BLACK
6
CONTINUOUS
10
0.38489
20
0.24383
11
0.388019
21
0.239593
0
LINE
8
BLACK
6
CONTINUOUS
10
0.388019
20
0.239593
11
0.389765
21
0.234623
0
LINE
8
BLACK
6
CONTINUOUS
10
0.389765
20
0.234623
11
0.390079
21
0.231303
0
LINE
8
BLACK
6
CONTINUOUS
10
0.390079
20
0.231303
11
0.390079
21
0.210634
0
LINE
8
BLACK
6
CONTINUOUS
10
0.390079
20
0.210634
11
0.389765
21
0.207314
0
LINE
8
BLACK
6
CONTINUOUS
10
0.389765
20
0.207314
11
0.388019
21
0.202344
0
LINE
8
BLACK
6
CONTINUOUS
10
0.388019
20
0.202344
11
0.38489
21
0.198106
0
LINE
8
BLACK
6
CONTINUOUS
10
0.38489
20
0.198106
11
0.380652
21
0.194976
0
LINE
8
BLACK
6
CONTINUOUS
10
0.380652
20
0.194976
11
0.375682
21
0.193231
0
LINE
8
BLACK
6
CONTINUOUS
10
0.375682
20
0.193231
11
0.372362
21
0.192917
0
LINE
8
BLACK
6
CONTINUOUS
10
0.372362
20
0.192917
11
0.336929
21
0.192917
0
LINE
8
BLACK
6
CONTINUOUS
10
0.336929
20
0.192917
11
0.333609
21
0.193231
0
LINE
8
BLACK
6
CONTINUOUS
10
0.333609
20
0.193231
11
0.328639
21
0.194976
0
LINE
8
BLACK
6
CONTINUOUS
10
0.328639
20
0.194976
11
0.324402
21
0.198106
0
LINE
8
BLACK
6
CONTINUOUS
10
0.324402
20
0.198106
11
0.321272
21
0.202344
0
LINE
8
BLACK
6
CONTINUOUS
10
0.321272
20
0.202344
11
0.319526
21
0.207314
0
LINE
8
BLACK
6
CONTINUOUS
10
0.319526
20
0.207314
11
0.319213
21
0.210634
0
LINE
8
BLACK
6
CONTINUOUS
10
0.319213
20
0.210634
11
0.319213
21
0.231303
0
LINE
8
BLACK
6
CONTINUOUS
10
0.319213
20
0.231303
11
0.319526
21
0.234623
0
LINE
8
BLACK
6
CONTINUOUS
10
0.319526
20
0.234623
11
0.321272
21
0.239593
0
LINE
8
BLACK
6
CONTINUOUS
10
0.321272
20
0.239593
11
0.324402
21
0.24383
0
LINE
8
BLACK
6
CONTINUOUS
10
0.324402
20
0.24383
11
0.328639
21
0.24696
0
LINE
8
BLACK
6
CONTINUOUS
10
0.328639
20
0.24696
11
0.333609
21
0.248706
0
LINE
8
BLACK
6
CONTINUOUS
10
0.333609
20
0.248706
11
0.336929
21
0.24902
0
LINE
8
BLACK
6
CONTINUOUS
10
0.336929
20
0.24902
11
0.372362
21
0.24902
0
LINE
8
BLACK
6
CONTINUOUS
10
0.372362
20
0.24902
11
0.375682
21
0.248706
0
LINE
8
BLACK
6
CONTINUOUS
10
-0.621575
20
0.232933
11
-0.61751
21
0.230946
0
LINE
8
BLACK
6
CONTINUOUS
10
-0.61751
20
0.230946
11
-0.614308
21
0.22775
0
LINE
8
BLACK
6
CONTINUOUS
10
-0.614308
20
0.22775
11
-0.612313
21
0.223688
0
LINE
8
BLACK
6
CONTINUOUS
10
-0.612313
20
0.223688
11
-0.611732
21
0.219728
0
LINE
8
BLACK
6
CONTINUOUS
10
-0.611732
20
0.219728
11
-0.611732
21
0.207917
0
LINE
8
BLACK
6
CONTINUOUS
10
-0.611732
20
0.207917
11
-0.612307
21
0.203981
0
LINE
8
BLACK
6
CONTINUOUS
10
-0.612307
20
0.203981
11
-0.614294
21
0.199915
0
LINE
8
BLACK
6
CONTINUOUS
10
-0.614294
20
0.199915
11
-0.61749
21
0.196713
0
LINE
8
BLACK
6
CONTINUOUS
10
-0.61749
20
0.196713
11
-0.621552
21
0.194719
0
LINE
8
BLACK
6
CONTINUOUS
10
-0.621552
20
0.194719
11
-0.625512
21
0.194138
0
LINE
8
BLACK
6
CONTINUOUS
10
-0.625512
20
0.194138
11
-0.68063
21
0.194138
0
LINE
8
BLACK
6
CONTINUOUS
10
-0.68063
20
0.194138
11
-0.684567
21
0.194712
0
LINE
8
BLACK
6
CONTINUOUS
10
-0.684567
20
0.194712
11
-0.688632
21
0.196699
0
LINE
8
BLACK
6
CONTINUOUS
10
-0.688632
20
0.196699
11
-0.691834
21
0.199896
0
LINE
8
BLACK
6
CONTINUOUS
10
-0.691834
20
0.199896
11
-0.693828
21
0.203957
0
LINE
8
BLACK
6
CONTINUOUS
10
-0.693828
20
0.203957
11
-0.694409
21
0.207917
0
LINE
8
BLACK
6
CONTINUOUS
10
-0.694409
20
0.207917
11
-0.694409
21
0.219728
0
LINE
8
BLACK
6
CONTINUOUS
10
-0.694409
20
0.219728
11
-0.693835
21
0.223665
0
LINE
8
BLACK
6
CONTINUOUS
10
-0.693835
20
0.223665
11
-0.691848
21
0.22773
0
LINE
8
BLACK
6
CONTINUOUS
10
-0.691848
20
0.22773
11
-0.688651
21
0.230932
0
LINE
8
BLACK
6
CONTINUOUS
10
-0.688651
20
0.230932
11
-0.68459
21
0.232927
0
LINE
8
BLACK
6
CONTINUOUS
10
-0.68459
20
0.232927
11
-0.68063
21
0.233508
0
LINE
8
BLACK
6
CONTINUOUS
10
-0.68063
20
0.233508
11
-0.625512
21
0.233508
0
LINE
8
BLACK
6
CONTINUOUS
10
-0.625512
20
0.233508
11
-0.621575
21
0.232933
0
LINE
8
BLACK
6
CONTINUOUS
10
0.283045
20
0.251153
11
0.287709
21
0.248777
0
LINE
8
BLACK
6
CONTINUOUS
10
0.287709
20
0.248777
11
0.291411
21
0.245075
0
LINE
8
BLACK
6
CONTINUOUS
10
0.291411
20
0.245075
11
0.293787
21
0.240411
0
LINE
8
BLACK
6
CONTINUOUS
10
0.293787
20
0.240411
11
0.294606
21
0.23524
0
LINE
8
BLACK
6
CONTINUOUS
10
0.294606
20
0.23524
11
0.294606
21
0.217523
0
LINE
8
BLACK
6
CONTINUOUS
10
0.294606
20
0.217523
11
0.293787
21
0.212353
0
LINE
8
BLACK
6
CONTINUOUS
10
0.293787
20
0.212353
11
0.291411
21
0.207688
0
LINE
8
BLACK
6
CONTINUOUS
10
0.291411
20
0.207688
11
0.287709
21
0.203987
0
LINE
8
BLACK
6
CONTINUOUS
10
0.287709
20
0.203987
11
0.283045
21
0.20161
0
LINE
8
BLACK
6
CONTINUOUS
10
0.283045
20
0.20161
11
0.277874
21
0.200791
0
LINE
8
BLACK
6
CONTINUOUS
10
0.277874
20
0.200791
11
0.258189
21
0.200791
0
LINE
8
BLACK
6
CONTINUOUS
10
0.258189
20
0.200791
11
0.253018
21
0.20161
0
LINE
8
BLACK
6
CONTINUOUS
10
0.253018
20
0.20161
11
0.248354
21
0.203987
0
LINE
8
BLACK
6
CONTINUOUS
10
0.248354
20
0.203987
11
0.244652
21
0.207688
0
LINE
8
BLACK
6
CONTINUOUS
10
0.244652
20
0.207688
11
0.242276
21
0.212353
0
LINE
8
BLACK
6
CONTINUOUS
10
0.242276
20
0.212353
11
0.241457
21
0.217523
0
LINE
8
BLACK
6
CONTINUOUS
10
0.241457
20
0.217523
11
0.241457
21
0.23524
0
LINE
8
BLACK
6
CONTINUOUS
10
0.241457
20
0.23524
11
0.242276
21
0.240411
0
LINE
8
BLACK
6
CONTINUOUS
10
0.242276
20
0.240411
11
0.244652
21
0.245075
0
LINE
8
BLACK
6
CONTINUOUS
10
0.244652
20
0.245075
11
0.248354
21
0.248777
0
LINE
8
BLACK
6
CONTINUOUS
10
0.248354
20
0.248777
11
0.253018
21
0.251153
0
LINE
8
BLACK
6
CONTINUOUS
10
0.253018
20
0.251153
11
0.258189
21
0.251972
0
LINE
8
BLACK
6
CONTINUOUS
10
0.258189
20
0.251972
11
0.277874
21
0.251972
0
LINE
8
BLACK
6
CONTINUOUS
10
0.277874
20
0.251972
11
0.283045
21
0.251153
0
LINE
8
BLACK
6
CONTINUOUS
10
-0.0705515
20
0.244508
11
-0.0664864
21
0.242521
0
LINE
8
BLACK
6
CONTINUOUS
10
-0.0664864
20
0.242521
11
-0.0632841
21
0.239324
0
LINE
8
BLACK
6
CONTINUOUS
10
-0.0632841
20
0.239324
11
-0.0612898
21
0.235263
0
LINE
8
BLACK
6
CONTINUOUS
10
-0.0612898
20
0.235263
11
-0.0607087
21
0.231303
0
LINE
8
BLACK
6
CONTINUOUS
10
-0.0607087
20
0.231303
11
-0.0607087
21
0.219492
0
LINE
8
BLACK
6
CONTINUOUS
10
-0.0607087
20
0.219492
11
-0.061283
21
0.215555
0
LINE
8
BLACK
6
CONTINUOUS
10
-0.061283
20
0.215555
11
-0.0632701
21
0.21149
0
LINE
8
BLACK
6
CONTINUOUS
10
-0.0632701
20
0.21149
11
-0.0664668
21
0.208288
0
LINE
8
BLACK
6
CONTINUOUS
10
-0.0664668
20
0.208288
11
-0.0705285
21
0.206294
0
LINE
8
BLACK
6
CONTINUOUS
10
-0.0705285
20
0.206294
11
-0.0744882
21
0.205712
0
LINE
8
BLACK
6
CONTINUOUS
10
-0.0744882
20
0.205712
11
-0.114843
21
0.205712
0
LINE
8
BLACK
6
CONTINUOUS
10
-0.114843
20
0.205712
11
-0.118779
21
0.206287
0
LINE
8
BLACK
6
CONTINUOUS
10
-0.118779
20
0.206287
11
-0.122844
21
0.208274
0
LINE
8
BLACK
6
CONTINUOUS
10
-0.122844
20
0.208274
11
-0.126047
21
0.211471
0
LINE
8
BLACK
6
CONTINUOUS
10
-0.126047
20
0.211471
11
-0.128041
21
0.215532
0
LINE
8
BLACK
6
CONTINUOUS
10
-0.128041
20
0.215532
11
-0.128622
21
0.219492
0
LINE
8
BLACK
6
CONTINUOUS
10
-0.128622
20
0.219492
11
-0.128622
21
0.231303
0
LINE
8
BLACK
6
CONTINUOUS
10
-0.128622
20
0.231303
11
-0.128048
21
0.23524
0
LINE
8
BLACK
6
CONTINUOUS
10
-0.128048
20
0.23524
11
-0.126061
21
0.239305
0
LINE
8
BLACK
6
CONTINUOUS
10
-0.126061
20
0.239305
11
-0.122864
21
0.242507
0
LINE
8
BLACK
6
CONTINUOUS
10
-0.122864
20
0.242507
11
-0.118802
21
0.244501
0
LINE
8
BLACK
6
CONTINUOUS
10
-0.118802
20
0.244501
11
-0.114843
21
0.245083
0
LINE
8
BLACK
6
CONTINUOUS
10
-0.114843
20
0.245083
11
-0.0744882
21
0.245083
0
LINE
8
BLACK
6
CONTINUOUS
10
-0.0744882
20
0.245083
11
-0.0705515
21
0.244508
0
LINE
8
BLACK
6
CONTINUOUS
10
-0.160118
20
0.319311
11
-0.156053
21
0.317324
0
LINE
8
BLACK
6
CONTINUOUS
10
-0.156053
20
0.317324
11
-0.152851
21
0.314128
0
LINE
8
BLACK
6
CONTINUOUS
10
-0.152851
20
0.314128
11
-0.150857
21
0.310066
0
LINE
8
BLACK
6
CONTINUOUS
10
-0.150857
20
0.310066
11
-0.150276
21
0.306106
0
LINE
8
BLACK
6
CONTINUOUS
10
-0.150276
20
0.306106
11
-0.150276
21
0.294295
0
LINE
8
BLACK
6
CONTINUOUS
10
-0.150276
20
0.294295
11
-0.15085
21
0.290358
0
LINE
8
BLACK
6
CONTINUOUS
10
-0.15085
20
0.290358
11
-0.152837
21
0.286293
0
LINE
8
BLACK
6
CONTINUOUS
10
-0.152837
20
0.286293
11
-0.156034
21
0.283091
0
LINE
8
BLACK
6
CONTINUOUS
10
-0.156034
20
0.283091
11
-0.159277
21
0.281499
0
LINE
8
BLACK
6
CONTINUOUS
10
-0.159277
20
0.281499
11
-0.156053
21
0.279923
0
LINE
8
BLACK
6
CONTINUOUS
10
-0.156053
20
0.279923
11
-0.152851
21
0.276726
0
LINE
8
BLACK
6
CONTINUOUS
10
-0.152851
20
0.276726
11
-0.150857
21
0.272664
0
LINE
8
BLACK
6
CONTINUOUS
10
-0.150857
20
0.272664
11
-0.150276
21
0.268705
0
LINE
8
BLACK
6
CONTINUOUS
10
-0.150276
20
0.268705
11
-0.150276
21
0.256894
0
LINE
8
BLACK
6
CONTINUOUS
10
-0.150276
20
0.256894
11
-0.15085
21
0.252957
0
LINE
8
BLACK
6
CONTINUOUS
10
-0.15085
20
0.252957
11
-0.152837
21
0.248892
0
LINE
8
BLACK
6
CONTINUOUS
10
-0.152837
20
0.248892
11
-0.156034
21
0.245689
0
LINE
8
BLACK
6
CONTINUOUS
10
-0.156034
20
0.245689
11
-0.159277
21
0.244097
0
LINE
8
BLACK
6
CONTINUOUS
10
-0.159277
20
0.244097
11
-0.156053
21
0.242521
0
LINE
8
BLACK
6
CONTINUOUS
10
-0.156053
20
0.242521
11
-0.152851
21
0.239324
0
LINE
8
BLACK
6
CONTINUOUS
10
-0.152851
20
0.239324
11
-0.150857
21
0.235263
0
LINE
8
BLACK
6
CONTINUOUS
10
-0.150857
20
0.235263
11
-0.150276
21
0.231303
0
LINE
8
BLACK
6
CONTINUOUS
10
-0.150276
20
0.231303
11
-0.150276
21
0.219492
0
LINE
8
BLACK
6
CONTINUOUS
10
-0.150276
20
0.219492
11
-0.15085
21
0.215555
0
LINE
8
BLACK
6
CONTINUOUS
10
-0.15085
20
0.215555
11
-0.152837
21
0.21149
0
LINE
8
BLACK
6
CONTINUOUS
10
-0.152837
20
0.21149
11
-0.156034
21
0.208288
0
LINE
8
BLACK
6
CONTINUOUS
10
-0.156034
20
0.208288
11
-0.160095
21
0.206294
0
LINE
8
BLACK
6
CONTINUOUS
10
-0.160095
20
0.206294
11
-0.164055
21
0.205712
0
LINE
8
BLACK
6
CONTINUOUS
10
-0.164055
20
0.205712
11
-0.204409
21
0.205712
0
LINE
8
BLACK
6
CONTINUOUS
10
-0.204409
20
0.205712
11
-0.208346
21
0.206287
0
LINE
8
BLACK
6
CONTINUOUS
10
-0.208346
20
0.206287
11
-0.212411
21
0.208274
0
LINE
8
BLACK
6
CONTINUOUS
10
-0.212411
20
0.208274
11
-0.215614
21
0.211471
0
LINE
8
BLACK
6
CONTINUOUS
10
-0.215614
20
0.211471
11
-0.217608
21
0.215532
0
LINE
8
BLACK
6
CONTINUOUS
10
-0.217608
20
0.215532
11
-0.218189
21
0.219492
0
LINE
8
BLACK
6
CONTINUOUS
10
-0.218189
20
0.219492
11
-0.218189
21
0.231303
0
LINE
8
BLACK
6
CONTINUOUS
10
-0.218189
20
0.231303
11
-0.217615
21
0.23524
0
LINE
8
BLACK
6
CONTINUOUS
10
-0.217615
20
0.23524
11
-0.215628
21
0.239305
0
LINE
8
BLACK
6
CONTINUOUS
10
-0.215628
20
0.239305
11
-0.212431
21
0.242507
0
LINE
8
BLACK
6
CONTINUOUS
10
-0.212431
20
0.242507
11
-0.209187
21
0.2441
0
LINE
8
BLACK
6
CONTINUOUS
10
-0.209187
20
0.2441
11
-0.212411
21
0.245675
0
LINE
8
BLACK
6
CONTINUOUS
10
-0.212411
20
0.245675
11
-0.215614
21
0.248872
0
LINE
8
BLACK
6
CONTINUOUS
10
-0.215614
20
0.248872
11
-0.217608
21
0.252934
0
LINE
8
BLACK
6
CONTINUOUS
10
-0.217608
20
0.252934
11
-0.218189
21
0.256894
0
LINE
8
BLACK
6
CONTINUOUS
10
-0.218189
20
0.256894
11
-0.218189
21
0.268705
0
LINE
8
BLACK
6
CONTINUOUS
10
-0.218189
20
0.268705
11
-0.217615
21
0.272641
0
LINE
8
BLACK
6
CONTINUOUS
10
-0.217615
20
0.272641
11
-0.215628
21
0.276706
0
LINE
8
BLACK
6
CONTINUOUS
10
-0.215628
20
0.276706
11
-0.212431
21
0.279909
0
LINE
8
BLACK
6
CONTINUOUS
10
-0.212431
20
0.279909
11
-0.209187
21
0.281501
0
LINE
8
BLACK
6
CONTINUOUS
10
-0.209187
20
0.281501
11
-0.212411
21
0.283077
0
LINE
8
BLACK
6
CONTINUOUS
10
-0.212411
20
0.283077
11
-0.215614
21
0.286274
0
LINE
8
BLACK
6
CONTINUOUS
10
-0.215614
20
0.286274
11
-0.217608
21
0.290335
0
LINE
8
BLACK
6
CONTINUOUS
10
-0.217608
20
0.290335
11
-0.218189
21
0.294295
0
LINE
8
BLACK
6
CONTINUOUS
10
-0.218189
20
0.294295
11
-0.218189
21
0.306106
0
LINE
8
BLACK
6
CONTINUOUS
10
-0.218189
20
0.306106
11
-0.217615
21
0.310043
0
LINE
8
BLACK
6
CONTINUOUS
10
-0.217615
20
0.310043
11
-0.215628
21
0.314108
0
LINE
8
BLACK
6
CONTINUOUS
10
-0.215628
20
0.314108
11
-0.212431
21
0.31731
0
LINE
8
BLACK
6
CONTINUOUS
10
-0.212431
20
0.31731
11
-0.208369
21
0.319304
0
LINE
8
BLACK
6
CONTINUOUS
10
-0.208369
20
0.319304
11
-0.204409
21
0.319886
0
LINE
8
BLACK
6
CONTINUOUS
10
-0.204409
20
0.319886
11
-0.164055
21
0.319886
0
LINE
8
BLACK
6
CONTINUOUS
10
-0.164055
20
0.319886
11
-0.160118
21
0.319311
0
LINE
8
BLACK
6
CONTINUOUS
10
0.00351701
20
0.260996
11
0.00818146
21
0.258619
0
LINE
8
BLACK
6
CONTINUOUS
10
0.00818146
20
0.258619
11
0.0118831
21
0.254918
0
LINE
8
BLACK
6
CONTINUOUS
10
0.0118831
20
0.254918
11
0.0142598
21
0.250253
0
LINE
8
BLACK
6
CONTINUOUS
10
0.0142598
20
0.250253
11
0.0150787
21
0.245083
0
LINE
8
BLACK
6
CONTINUOUS
10
0.0150787
20
0.245083
11
0.0150787
21
0.227366
0
LINE
8
BLACK
6
CONTINUOUS
10
0.0150787
20
0.227366
11
0.0142598
21
0.222195
0
LINE
8
BLACK
6
CONTINUOUS
10
0.0142598
20
0.222195
11
0.0118831
21
0.217531
0
LINE
8
BLACK
6
CONTINUOUS
10
0.0118831
20
0.217531
11
0.00818146
21
0.213829
0
LINE
8
BLACK
6
CONTINUOUS
10
0.00818146
20
0.213829
11
0.00351701
21
0.211453
0
LINE
8
BLACK
6
CONTINUOUS
10
0.00351701
20
0.211453
11
-0.00165354
21
0.210634
0
LINE
8
BLACK
6
CONTINUOUS
10
-0.00165354
20
0.210634
11
-0.0213386
21
0.210634
0
LINE
8
BLACK
6
CONTINUOUS
10
-0.0213386
20
0.210634
11
-0.0265091
21
0.211453
0
LINE
8
BLACK
6
CONTINUOUS
10
-0.0265091
20
0.211453
11
-0.0311736
21
0.213829
0
LINE
8
BLACK
6
CONTINUOUS
10
-0.0311736
20
0.213829
11
-0.0348753
21
0.217531
0
LINE
8
BLACK
6
CONTINUOUS
10
-0.0348753
20
0.217531
11
-0.0372519
21
0.222195
0
LINE
8
BLACK
6
CONTINUOUS
10
-0.0372519
20
0.222195
11
-0.0380709
21
0.227366
0
LINE
8
BLACK
6
CONTINUOUS
10
-0.0380709
20
0.227366
11
-0.0380709
21
0.245083
0
LINE
8
BLACK
6
CONTINUOUS
10
-0.0380709
20
0.245083
11
-0.0372519
21
0.250253
0
LINE
8
BLACK
6
CONTINUOUS
10
-0.0372519
20
0.250253
11
-0.0348753
21
0.254918
0
LINE
8
BLACK
6
CONTINUOUS
10
-0.0348753
20
0.254918
11
-0.0311736
21
0.258619
0
LINE
8
BLACK
6
CONTINUOUS
10
-0.0311736
20
0.258619
11
-0.0265091
21
0.260996
0
LINE
8
BLACK
6
CONTINUOUS
10
-0.0265091
20
0.260996
11
-0.0213386
21
0.261815
0
LINE
8
BLACK
6
CONTINUOUS
10
-0.0213386
20
0.261815
11
-0.00165354
21
0.261815
0
LINE
8
BLACK
6
CONTINUOUS
10
-0.00165354
20
0.261815
11
0.00351701
21
0.260996
0
LINE
8
BLACK
6
CONTINUOUS
10
0.538239
20
0.284653
11
0.54444
21
0.282445
0
LINE
8
BLACK
6
CONTINUOUS
10
0.54444
20
0.282445
11
0.549998
21
0.278917
0
LINE
8
BLACK
6
CONTINUOUS
10
0.549998
20
0.278917
11
0.554637
21
0.274246
0
LINE
8
BLACK
6
CONTINUOUS
10
0.554637
20
0.274246
11
0.558125
21
0.268664
0
LINE
8
BLACK
6
CONTINUOUS
10
0.558125
20
0.268664
11
0.56029
21
0.262447
0
LINE
8
BLACK
6
CONTINUOUS
10
0.56029
20
0.262447
11
0.561024
21
0.255906
0
LINE
8
BLACK
6
CONTINUOUS
10
0.561024
20
0.255906
11
0.561012
21
0.255081
0
LINE
8
BLACK
6
CONTINUOUS
10
0.561012
20
0.255081
11
0.560096
21
0.248562
0
LINE
8
BLACK
6
CONTINUOUS
10
0.560096
20
0.248562
11
0.557758
21
0.242409
0
LINE
8
BLACK
6
CONTINUOUS
10
0.557758
20
0.242409
11
0.554115
21
0.236926
0
LINE
8
BLACK
6
CONTINUOUS
10
0.554115
20
0.236926
11
0.549348
21
0.232386
0
LINE
8
BLACK
6
CONTINUOUS
10
0.549348
20
0.232386
11
0.543694
21
0.229015
0
LINE
8
BLACK
6
CONTINUOUS
10
0.543694
20
0.229015
11
0.537433
21
0.226981
0
LINE
8
BLACK
6
CONTINUOUS
10
0.537433
20
0.226981
11
0.530878
21
0.226384
0
LINE
8
BLACK
6
CONTINUOUS
10
0.530878
20
0.226384
11
0.524353
21
0.227255
0
LINE
8
BLACK
6
CONTINUOUS
10
0.524353
20
0.227255
11
0.518183
21
0.22955
0
LINE
8
BLACK
6
CONTINUOUS
10
0.518183
20
0.22955
11
0.512674
21
0.233154
0
LINE
8
BLACK
6
CONTINUOUS
10
0.512674
20
0.233154
11
0.508102
21
0.237889
0
LINE
8
BLACK
6
CONTINUOUS
10
0.508102
20
0.237889
11
0.504692
21
0.24352
0
LINE
8
BLACK
6
CONTINUOUS
10
0.504692
20
0.24352
11
0.502614
21
0.249766
0
LINE
8
BLACK
6
CONTINUOUS
10
0.502614
20
0.249766
11
0.501971
21
0.256318
0
LINE
8
BLACK
6
CONTINUOUS
10
0.501971
20
0.256318
11
0.502796
21
0.262849
0
LINE
8
BLACK
6
CONTINUOUS
10
0.502796
20
0.262849
11
0.505048
21
0.269034
0
LINE
8
BLACK
6
CONTINUOUS
10
0.505048
20
0.269034
11
0.508614
21
0.274568
0
LINE
8
BLACK
6
CONTINUOUS
10
0.508614
20
0.274568
11
0.513317
21
0.279174
0
LINE
8
BLACK
6
CONTINUOUS
10
0.513317
20
0.279174
11
0.518924
21
0.282623
0
LINE
8
BLACK
6
CONTINUOUS
10
0.518924
20
0.282623
11
0.525155
21
0.284744
0
LINE
8
BLACK
6
CONTINUOUS
10
0.525155
20
0.284744
11
0.531702
21
0.285432
0
LINE
8
BLACK
6
CONTINUOUS
10
0.531702
20
0.285432
11
0.538239
21
0.284653
0
LINE
8
BLACK
6
CONTINUOUS
10
-0.621575
20
0.282146
11
-0.61751
21
0.280159
0
LINE
8
BLACK
6
CONTINUOUS
10
-0.61751
20
0.280159
11
-0.614308
21
0.276962
0
LINE
8
BLACK
6
CONTINUOUS
10
-0.614308
20
0.276962
11
-0.612313
21
0.2729
0
LINE
8
BLACK
6
CONTINUOUS
10
-0.612313
20
0.2729
11
-0.611732
21
0.268941
0
LINE
8
BLACK
6
CONTINUOUS
10
-0.611732
20
0.268941
11
-0.611732
21
0.25713
0
LINE
8
BLACK
6
CONTINUOUS
10
-0.611732
20
0.25713
11
-0.612307
21
0.253193
0
LINE
8
BLACK
6
CONTINUOUS
10
-0.612307
20
0.253193
11
-0.614294
21
0.249128
0
LINE
8
BLACK
6
CONTINUOUS
10
-0.614294
20
0.249128
11
-0.61749
21
0.245926
0
LINE
8
BLACK
6
CONTINUOUS
10
-0.61749
20
0.245926
11
-0.621552
21
0.243931
0
LINE
8
BLACK
6
CONTINUOUS
10
-0.621552
20
0.243931
11
-0.625512
21
0.24335
0
LINE
8
BLACK
6
CONTINUOUS
10
-0.625512
20
0.24335
11
-0.68063
21
0.24335
0
LINE
8
BLACK
6
CONTINUOUS
10
-0.68063
20
0.24335
11
-0.684567
21
0.243925
0
LINE
8
BLACK
6
CONTINUOUS
10
-0.684567
20
0.243925
11
-0.688632
21
0.245912
0
LINE
8
BLACK
6
CONTINUOUS
10
-0.688632
20
0.245912
11
-0.691834
21
0.249108
0
LINE
8
BLACK
6
CONTINUOUS
10
-0.691834
20
0.249108
11
-0.693828
21
0.25317
0
LINE
8
BLACK
6
CONTINUOUS
10
-0.693828
20
0.25317
11
-0.694409
21
0.25713
0
LINE
8
BLACK
6
CONTINUOUS
10
-0.694409
20
0.25713
11
-0.694409
21
0.268941
0
LINE
8
BLACK
6
CONTINUOUS
10
-0.694409
20
0.268941
11
-0.693835
21
0.272877
0
LINE
8
BLACK
6
CONTINUOUS
10
-0.693835
20
0.272877
11
-0.691848
21
0.276943
0
LINE
8
BLACK
6
CONTINUOUS
10
-0.691848
20
0.276943
11
-0.688651
21
0.280145
0
LINE
8
BLACK
6
CONTINUOUS
10
-0.688651
20
0.280145
11
-0.68459
21
0.282139
0
LINE
8
BLACK
6
CONTINUOUS
10
-0.68459
20
0.282139
11
-0.68063
21
0.28272
0
LINE
8
BLACK
6
CONTINUOUS
10
-0.68063
20
0.28272
11
-0.625512
21
0.28272
0
LINE
8
BLACK
6
CONTINUOUS
10
-0.625512
20
0.28272
11
-0.621575
21
0.282146
0
LINE
8
BLACK
6
CONTINUOUS
10
0.283045
20
0.312177
11
0.287709
21
0.3098
0
LINE
8
BLACK
6
CONTINUOUS
10
0.287709
20
0.3098
11
0.291411
21
0.306099
0
LINE
8
BLACK
6
CONTINUOUS
10
0.291411
20
0.306099
11
0.293787
21
0.301434
0
LINE
8
BLACK
6
CONTINUOUS
10
0.293787
20
0.301434
11
0.294606
21
0.296264
0
LINE
8
BLACK
6
CONTINUOUS
10
0.294606
20
0.296264
11
0.294606
21
0.278547
0
LINE
8
BLACK
6
CONTINUOUS
10
0.294606
20
0.278547
11
0.293787
21
0.273377
0
LINE
8
BLACK
6
CONTINUOUS
10
0.293787
20
0.273377
11
0.291411
21
0.268712
0
LINE
8
BLACK
6
CONTINUOUS
10
0.291411
20
0.268712
11
0.287709
21
0.26501
0
LINE
8
BLACK
6
CONTINUOUS
10
0.287709
20
0.26501
11
0.283045
21
0.262634
0
LINE
8
BLACK
6
CONTINUOUS
10
0.283045
20
0.262634
11
0.277874
21
0.261815
0
LINE
8
BLACK
6
CONTINUOUS
10
0.277874
20
0.261815
11
0.258189
21
0.261815
0
LINE
8
BLACK
6
CONTINUOUS
10
0.258189
20
0.261815
11
0.253018
21
0.262634
0
LINE
8
BLACK
6
CONTINUOUS
10
0.253018
20
0.262634
11
0.248354
21
0.26501
0
LINE
8
BLACK
6
CONTINUOUS
10
0.248354
20
0.26501
11
0.244652
21
0.268712
0
LINE
8
BLACK
6
CONTINUOUS
10
0.244652
20
0.268712
11
0.242276
21
0.273377
0
LINE
8
BLACK
6
CONTINUOUS
10
0.242276
20
0.273377
11
0.241457
21
0.278547
0
LINE
8
BLACK
6
CONTINUOUS
10
0.241457
20
0.278547
11
0.241457
21
0.296264
0
LINE
8
BLACK
6
CONTINUOUS
10
0.241457
20
0.296264
11
0.242276
21
0.301434
0
LINE
8
BLACK
6
CONTINUOUS
10
0.242276
20
0.301434
11
0.244652
21
0.306099
0
LINE
8
BLACK
6
CONTINUOUS
10
0.244652
20
0.306099
11
0.248354
21
0.3098
0
LINE
8
BLACK
6
CONTINUOUS
10
0.248354
20
0.3098
11
0.253018
21
0.312177
0
LINE
8
BLACK
6
CONTINUOUS
10
0.253018
20
0.312177
11
0.258189
21
0.312996
0
LINE
8
BLACK
6
CONTINUOUS
10
0.258189
20
0.312996
11
0.277874
21
0.312996
0
LINE
8
BLACK
6
CONTINUOUS
10
0.277874
20
0.312996
11
0.283045
21
0.312177
0
LINE
8
BLACK
6
CONTINUOUS
10
0.375682
20
0.320556
11
0.380652
21
0.318811
0
LINE
8
BLACK
6
CONTINUOUS
10
0.380652
20
0.318811
11
0.38489
21
0.315681
0
LINE
8
BLACK
6
CONTINUOUS
10
0.38489
20
0.315681
11
0.388019
21
0.311443
0
LINE
8
BLACK
6
CONTINUOUS
10
0.388019
20
0.311443
11
0.389765
21
0.306473
0
LINE
8
BLACK
6
CONTINUOUS
10
0.389765
20
0.306473
11
0.390079
21
0.303153
0
LINE
8
BLACK
6
CONTINUOUS
10
0.390079
20
0.303153
11
0.390079
21
0.282484
0
LINE
8
BLACK
6
CONTINUOUS
10
0.390079
20
0.282484
11
0.389765
21
0.279164
0
LINE
8
BLACK
6
CONTINUOUS
10
0.389765
20
0.279164
11
0.388019
21
0.274194
0
LINE
8
BLACK
6
CONTINUOUS
10
0.388019
20
0.274194
11
0.38489
21
0.269957
0
LINE
8
BLACK
6
CONTINUOUS
10
0.38489
20
0.269957
11
0.380652
21
0.266827
0
LINE
8
BLACK
6
CONTINUOUS
10
0.380652
20
0.266827
11
0.375682
21
0.265081
0
LINE
8
BLACK
6
CONTINUOUS
10
0.375682
20
0.265081
11
0.372362
21
0.264768
0
LINE
8
BLACK
6
CONTINUOUS
10
0.372362
20
0.264768
11
0.336929
21
0.264768
0
LINE
8
BLACK
6
CONTINUOUS
10
0.336929
20
0.264768
11
0.333609
21
0.265081
0
LINE
8
BLACK
6
CONTINUOUS
10
0.333609
20
0.265081
11
0.328639
21
0.266827
0
LINE
8
BLACK
6
CONTINUOUS
10
0.328639
20
0.266827
11
0.324402
21
0.269957
0
LINE
8
BLACK
6
CONTINUOUS
10
0.324402
20
0.269957
11
0.321272
21
0.274194
0
LINE
8
BLACK
6
CONTINUOUS
10
0.321272
20
0.274194
11
0.319526
21
0.279164
0
LINE
8
BLACK
6
CONTINUOUS
10
0.319526
20
0.279164
11
0.319213
21
0.282484
0
LINE
8
BLACK
6
CONTINUOUS
10
0.319213
20
0.282484
11
0.319213
21
0.303153
0
LINE
8
BLACK
6
CONTINUOUS
10
0.319213
20
0.303153
11
0.319526
21
0.306473
0
LINE
8
BLACK
6
CONTINUOUS
10
0.319526
20
0.306473
11
0.321272
21
0.311443
0
LINE
8
BLACK
6
CONTINUOUS
10
0.321272
20
0.311443
11
0.324402
21
0.315681
0
LINE
8
BLACK
6
CONTINUOUS
10
0.324402
20
0.315681
11
0.328639
21
0.318811
0
LINE
8
BLACK
6
CONTINUOUS
10
0.328639
20
0.318811
11
0.333609
21
0.320556
0
LINE
8
BLACK
6
CONTINUOUS
10
0.333609
20
0.320556
11
0.336929
21
0.32087
0
LINE
8
BLACK
6
CONTINUOUS
10
0.336929
20
0.32087
11
0.372362
21
0.32087
0
LINE
8
BLACK
6
CONTINUOUS
10
0.372362
20
0.32087
11
0.375682
21
0.320556
0
LINE
8
BLACK
6
CONTINUOUS
10
0.202454
20
0.320556
11
0.207424
21
0.318811
0
LINE
8
BLACK
6
CONTINUOUS
10
0.207424
20
0.318811
11
0.211661
21
0.315681
0
LINE
8
BLACK
6
CONTINUOUS
10
0.211661
20
0.315681
11
0.214791
21
0.311443
0
LINE
8
BLACK
6
CONTINUOUS
10
0.214791
20
0.311443
11
0.216537
21
0.306473
0
LINE
8
BLACK
6
CONTINUOUS
10
0.216537
20
0.306473
11
0.21685
21
0.303153
0
LINE
8
BLACK
6
CONTINUOUS
10
0.21685
20
0.303153
11
0.21685
21
0.282484
0
LINE
8
BLACK
6
CONTINUOUS
10
0.21685
20
0.282484
11
0.216537
21
0.279164
0
LINE
8
BLACK
6
CONTINUOUS
10
0.216537
20
0.279164
11
0.214791
21
0.274194
0
LINE
8
BLACK
6
CONTINUOUS
10
0.214791
20
0.274194
11
0.211661
21
0.269957
0
LINE
8
BLACK
6
CONTINUOUS
10
0.211661
20
0.269957
11
0.207424
21
0.266827
0
LINE
8
BLACK
6
CONTINUOUS
10
0.207424
20
0.266827
11
0.202454
21
0.265081
0
LINE
8
BLACK
6
CONTINUOUS
10
0.202454
20
0.265081
11
0.199134
21
0.264768
0
LINE
8
BLACK
6
CONTINUOUS
10
0.199134
20
0.264768
11
0.163701
21
0.264768
0
LINE
8
BLACK
6
CONTINUOUS
10
0.163701
20
0.264768
11
0.160381
21
0.265081
0
LINE
8
BLACK
6
CONTINUOUS
10
0.160381
20
0.265081
11
0.155411
21
0.266827
0
LINE
8
BLACK
6
CONTINUOUS
10
0.155411
20
0.266827
11
0.151173
21
0.269957
0
LINE
8
BLACK
6
CONTINUOUS
10
0.151173
20
0.269957
11
0.148044
21
0.274194
0
LINE
8
BLACK
6
CONTINUOUS
10
0.148044
20
0.274194
11
0.146298
21
0.279164
0
LINE
8
BLACK
6
CONTINUOUS
10
0.146298
20
0.279164
11
0.145984
21
0.282484
0
LINE
8
BLACK
6
CONTINUOUS
10
0.145984
20
0.282484
11
0.145984
21
0.303153
0
LINE
8
BLACK
6
CONTINUOUS
10
0.145984
20
0.303153
11
0.146298
21
0.306473
0
LINE
8
BLACK
6
CONTINUOUS
10
0.146298
20
0.306473
11
0.148044
21
0.311443
0
LINE
8
BLACK
6
CONTINUOUS
10
0.148044
20
0.311443
11
0.151173
21
0.315681
0
LINE
8
BLACK
6
CONTINUOUS
10
0.151173
20
0.315681
11
0.155411
21
0.318811
0
LINE
8
BLACK
6
CONTINUOUS
10
0.155411
20
0.318811
11
0.160381
21
0.320556
0
LINE
8
BLACK
6
CONTINUOUS
10
0.160381
20
0.320556
11
0.163701
21
0.32087
0
LINE
8
BLACK
6
CONTINUOUS
10
0.163701
20
0.32087
11
0.199134
21
0.32087
0
LINE
8
BLACK
6
CONTINUOUS
10
0.199134
20
0.32087
11
0.202454
21
0.320556
0
LINE
8
BLACK
6
CONTINUOUS
10
-0.247771
20
0.318131
11
-0.243381
21
0.315894
0
LINE
8
BLACK
6
CONTINUOUS
10
-0.243381
20
0.315894
11
-0.239897
21
0.31241
0
LINE
8
BLACK
6
CONTINUOUS
10
-0.239897
20
0.31241
11
-0.237661
21
0.30802
0
LINE
8
BLACK
6
CONTINUOUS
10
-0.237661
20
0.30802
11
-0.23689
21
0.303153
0
LINE
8
BLACK
6
CONTINUOUS
10
-0.23689
20
0.303153
11
-0.23689
21
0.2815
0
LINE
8
BLACK
6
CONTINUOUS
10
-0.23689
20
0.2815
11
-0.237661
21
0.276633
0
LINE
8
BLACK
6
CONTINUOUS
10
-0.237661
20
0.276633
11
-0.239897
21
0.272243
0
LINE
8
BLACK
6
CONTINUOUS
10
-0.239897
20
0.272243
11
-0.243381
21
0.268759
0
LINE
8
BLACK
6
CONTINUOUS
10
-0.243381
20
0.268759
11
-0.247771
21
0.266523
0
LINE
8
BLACK
6
CONTINUOUS
10
-0.247771
20
0.266523
11
-0.252638
21
0.265752
0
LINE
8
BLACK
6
CONTINUOUS
10
-0.252638
20
0.265752
11
-0.268386
21
0.265752
0
LINE
8
BLACK
6
CONTINUOUS
10
-0.268386
20
0.265752
11
-0.273252
21
0.266523
0
LINE
8
BLACK
6
CONTINUOUS
10
-0.273252
20
0.266523
11
-0.277642
21
0.268759
0
LINE
8
BLACK
6
CONTINUOUS
10
-0.277642
20
0.268759
11
-0.281126
21
0.272243
0
LINE
8
BLACK
6
CONTINUOUS
10
-0.281126
20
0.272243
11
-0.283363
21
0.276633
0
LINE
8
BLACK
6
CONTINUOUS
10
-0.283363
20
0.276633
11
-0.284134
21
0.2815
0
LINE
8
BLACK
6
CONTINUOUS
10
-0.284134
20
0.2815
11
-0.284134
21
0.303153
0
LINE
8
BLACK
6
CONTINUOUS
10
-0.284134
20
0.303153
11
-0.283363
21
0.30802
0
LINE
8
BLACK
6
CONTINUOUS
10
-0.283363
20
0.30802
11
-0.281126
21
0.31241
0
LINE
8
BLACK
6
CONTINUOUS
10
-0.281126
20
0.31241
11
-0.277642
21
0.315894
0
LINE
8
BLACK
6
CONTINUOUS
10
-0.277642
20
0.315894
11
-0.273252
21
0.318131
0
LINE
8
BLACK
6
CONTINUOUS
10
-0.273252
20
0.318131
11
-0.268386
21
0.318901
0
LINE
8
BLACK
6
CONTINUOUS
10
-0.268386
20
0.318901
11
-0.252638
21
0.318901
0
LINE
8
BLACK
6
CONTINUOUS
10
-0.252638
20
0.318901
11
-0.247771
21
0.318131
0
LINE
8
BLACK
6
CONTINUOUS
10
-0.312732
20
0.318131
11
-0.308342
21
0.315894
0
LINE
8
BLACK
6
CONTINUOUS
10
-0.308342
20
0.315894
11
-0.304858
21
0.31241
0
LINE
8
BLACK
6
CONTINUOUS
10
-0.304858
20
0.31241
11
-0.302621
21
0.30802
0
LINE
8
BLACK
6
CONTINUOUS
10
-0.302621
20
0.30802
11
-0.30185
21
0.303153
0
LINE
8
BLACK
6
CONTINUOUS
10
-0.30185
20
0.303153
11
-0.30185
21
0.2815
0
LINE
8
BLACK
6
CONTINUOUS
10
-0.30185
20
0.2815
11
-0.302621
21
0.276633
0
LINE
8
BLACK
6
CONTINUOUS
10
-0.302621
20
0.276633
11
-0.304858
21
0.272243
0
LINE
8
BLACK
6
CONTINUOUS
10
-0.304858
20
0.272243
11
-0.308342
21
0.268759
0
LINE
8
BLACK
6
CONTINUOUS
10
-0.308342
20
0.268759
11
-0.312732
21
0.266523
0
LINE
8
BLACK
6
CONTINUOUS
10
-0.312732
20
0.266523
11
-0.317598
21
0.265752
0
LINE
8
BLACK
6
CONTINUOUS
10
-0.317598
20
0.265752
11
-0.333346
21
0.265752
0
LINE
8
BLACK
6
CONTINUOUS
10
-0.333346
20
0.265752
11
-0.338213
21
0.266523
0
LINE
8
BLACK
6
CONTINUOUS
10
-0.338213
20
0.266523
11
-0.342603
21
0.268759
0
LINE
8
BLACK
6
CONTINUOUS
10
-0.342603
20
0.268759
11
-0.346087
21
0.272243
0
LINE
8
BLACK
6
CONTINUOUS
10
-0.346087
20
0.272243
11
-0.348324
21
0.276633
0
LINE
8
BLACK
6
CONTINUOUS
10
-0.348324
20
0.276633
11
-0.349094
21
0.2815
0
LINE
8
BLACK
6
CONTINUOUS
10
-0.349094
20
0.2815
11
-0.349094
21
0.303153
0
LINE
8
BLACK
6
CONTINUOUS
10
-0.349094
20
0.303153
11
-0.348324
21
0.30802
0
LINE
8
BLACK
6
CONTINUOUS
10
-0.348324
20
0.30802
11
-0.346087
21
0.31241
0
LINE
8
BLACK
6
CONTINUOUS
10
-0.346087
20
0.31241
11
-0.342603
21
0.315894
0
LINE
8
BLACK
6
CONTINUOUS
10
-0.342603
20
0.315894
11
-0.338213
21
0.318131
0
LINE
8
BLACK
6
CONTINUOUS
10
-0.338213
20
0.318131
11
-0.333346
21
0.318901
0
LINE
8
BLACK
6
CONTINUOUS
10
-0.333346
20
0.318901
11
-0.317598
21
0.318901
0
LINE
8
BLACK
6
CONTINUOUS
10
-0.317598
20
0.318901
11
-0.312732
21
0.318131
0
LINE
8
BLACK
6
CONTINUOUS
10
-0.379661
20
0.318131
11
-0.375271
21
0.315894
0
LINE
8
BLACK
6
CONTINUOUS
10
-0.375271
20
0.315894
11
-0.371787
21
0.31241
0
LINE
8
BLACK
6
CONTINUOUS
10
-0.371787
20
0.31241
11
-0.36955
21
0.30802
0
LINE
8
BLACK
6
CONTINUOUS
10
-0.36955
20
0.30802
11
-0.36878
21
0.303153
0
LINE
8
BLACK
6
CONTINUOUS
10
-0.36878
20
0.303153
11
-0.36878
21
0.2815
0
LINE
8
BLACK
6
CONTINUOUS
10
-0.36878
20
0.2815
11
-0.36955
21
0.276633
0
LINE
8
BLACK
6
CONTINUOUS
10
-0.36955
20
0.276633
11
-0.371787
21
0.272243
0
LINE
8
BLACK
6
CONTINUOUS
10
-0.371787
20
0.272243
11
-0.375271
21
0.268759
0
LINE
8
BLACK
6
CONTINUOUS
10
-0.375271
20
0.268759
11
-0.379661
21
0.266523
0
LINE
8
BLACK
6
CONTINUOUS
10
-0.379661
20
0.266523
11
-0.384528
21
0.265752
0
LINE
8
BLACK
6
CONTINUOUS
10
-0.384528
20
0.265752
11
-0.400276
21
0.265752
0
LINE
8
BLACK
6
CONTINUOUS
10
-0.400276
20
0.265752
11
-0.405142
21
0.266523
0
LINE
8
BLACK
6
CONTINUOUS
10
-0.405142
20
0.266523
11
-0.409532
21
0.268759
0
LINE
8
BLACK
6
CONTINUOUS
10
-0.409532
20
0.268759
11
-0.413016
21
0.272243
0
LINE
8
BLACK
6
CONTINUOUS
10
-0.413016
20
0.272243
11
-0.415253
21
0.276633
0
LINE
8
BLACK
6
CONTINUOUS
10
-0.415253
20
0.276633
11
-0.416024
21
0.2815
0
LINE
8
BLACK
6
CONTINUOUS
10
-0.416024
20
0.2815
11
-0.416024
21
0.303153
0
LINE
8
BLACK
6
CONTINUOUS
10
-0.416024
20
0.303153
11
-0.415253
21
0.30802
0
LINE
8
BLACK
6
CONTINUOUS
10
-0.415253
20
0.30802
11
-0.413016
21
0.31241
0
LINE
8
BLACK
6
CONTINUOUS
10
-0.413016
20
0.31241
11
-0.409532
21
0.315894
0
LINE
8
BLACK
6
CONTINUOUS
10
-0.409532
20
0.315894
11
-0.405142
21
0.318131
0
LINE
8
BLACK
6
CONTINUOUS
10
-0.405142
20
0.318131
11
-0.400276
21
0.318901
0
LINE
8
BLACK
6
CONTINUOUS
10
-0.400276
20
0.318901
11
-0.384528
21
0.318901
0
LINE
8
BLACK
6
CONTINUOUS
10
-0.384528
20
0.318901
11
-0.379661
21
0.318131
0
LINE
8
BLACK
6
CONTINUOUS
10
-0.508294
20
0.318082
11
-0.50363
21
0.315706
0
LINE
8
BLACK
6
CONTINUOUS
10
-0.50363
20
0.315706
11
-0.499928
21
0.312004
0
LINE
8
BLACK
6
CONTINUOUS
10
-0.499928
20
0.312004
11
-0.497551
21
0.30734
0
LINE
8
BLACK
6
CONTINUOUS
10
-0.497551
20
0.30734
11
-0.496732
21
0.302169
0
LINE
8
BLACK
6
CONTINUOUS
10
-0.496732
20
0.302169
11
-0.496732
21
0.282484
0
LINE
8
BLACK
6
CONTINUOUS
10
-0.496732
20
0.282484
11
-0.497551
21
0.277314
0
LINE
8
BLACK
6
CONTINUOUS
10
-0.497551
20
0.277314
11
-0.499928
21
0.272649
0
LINE
8
BLACK
6
CONTINUOUS
10
-0.499928
20
0.272649
11
-0.50363
21
0.268947
0
LINE
8
BLACK
6
CONTINUOUS
10
-0.50363
20
0.268947
11
-0.508294
21
0.266571
0
LINE
8
BLACK
6
CONTINUOUS
10
-0.508294
20
0.266571
11
-0.513465
21
0.265752
0
LINE
8
BLACK
6
CONTINUOUS
10
-0.513465
20
0.265752
11
-0.531181
21
0.265752
0
LINE
8
BLACK
6
CONTINUOUS
10
-0.531181
20
0.265752
11
-0.536352
21
0.266571
0
LINE
8
BLACK
6
CONTINUOUS
10
-0.536352
20
0.266571
11
-0.541016
21
0.268947
0
LINE
8
BLACK
6
CONTINUOUS
10
-0.541016
20
0.268947
11
-0.544718
21
0.272649
0
LINE
8
BLACK
6
CONTINUOUS
10
-0.544718
20
0.272649
11
-0.547094
21
0.277314
0
LINE
8
BLACK
6
CONTINUOUS
10
-0.547094
20
0.277314
11
-0.547913
21
0.282484
0
LINE
8
BLACK
6
CONTINUOUS
10
-0.547913
20
0.282484
11
-0.547913
21
0.302169
0
LINE
8
BLACK
6
CONTINUOUS
10
-0.547913
20
0.302169
11
-0.547094
21
0.30734
0
LINE
8
BLACK
6
CONTINUOUS
10
-0.547094
20
0.30734
11
-0.544718
21
0.312004
0
LINE
8
BLACK
6
CONTINUOUS
10
-0.544718
20
0.312004
11
-0.541016
21
0.315706
0
LINE
8
BLACK
6
CONTINUOUS
10
-0.541016
20
0.315706
11
-0.536352
21
0.318082
0
LINE
8
BLACK
6
CONTINUOUS
10
-0.536352
20
0.318082
11
-0.531181
21
0.318901
0
LINE
8
BLACK
6
CONTINUOUS
10
-0.531181
20
0.318901
11
-0.513465
21
0.318901
0
LINE
8
BLACK
6
CONTINUOUS
10
-0.513465
20
0.318901
11
-0.508294
21
0.318082
0
LINE
8
BLACK
6
CONTINUOUS
10
-0.569318
20
0.318082
11
-0.564653
21
0.315706
0
LINE
8
BLACK
6
CONTINUOUS
10
-0.564653
20
0.315706
11
-0.560951
21
0.312004
0
LINE
8
BLACK
6
CONTINUOUS
10
-0.560951
20
0.312004
11
-0.558575
21
0.30734
0
LINE
8
BLACK
6
CONTINUOUS
10
-0.558575
20
0.30734
11
-0.557756
21
0.302169
0
LINE
8
BLACK
6
CONTINUOUS
10
-0.557756
20
0.302169
11
-0.557756
21
0.282484
0
LINE
8
BLACK
6
CONTINUOUS
10
-0.557756
20
0.282484
11
-0.558575
21
0.277314
0
LINE
8
BLACK
6
CONTINUOUS
10
-0.558575
20
0.277314
11
-0.560951
21
0.272649
0
LINE
8
BLACK
6
CONTINUOUS
10
-0.560951
20
0.272649
11
-0.564653
21
0.268947
0
LINE
8
BLACK
6
CONTINUOUS
10
-0.564653
20
0.268947
11
-0.569318
21
0.266571
0
LINE
8
BLACK
6
CONTINUOUS
10
-0.569318
20
0.266571
11
-0.574488
21
0.265752
0
LINE
8
BLACK
6
CONTINUOUS
10
-0.574488
20
0.265752
11
-0.592205
21
0.265752
0
LINE
8
BLACK
6
CONTINUOUS
10
-0.592205
20
0.265752
11
-0.597375
21
0.266571
0
LINE
8
BLACK
6
CONTINUOUS
10
-0.597375
20
0.266571
11
-0.60204
21
0.268947
0
LINE
8
BLACK
6
CONTINUOUS
10
-0.60204
20
0.268947
11
-0.605741
21
0.272649
0
LINE
8
BLACK
6
CONTINUOUS
10
-0.605741
20
0.272649
11
-0.608118
21
0.277314
0
LINE
8
BLACK
6
CONTINUOUS
10
-0.608118
20
0.277314
11
-0.608937
21
0.282484
0
LINE
8
BLACK
6
CONTINUOUS
10
-0.608937
20
0.282484
11
-0.608937
21
0.302169
0
LINE
8
BLACK
6
CONTINUOUS
10
-0.608937
20
0.302169
11
-0.608118
21
0.30734
0
LINE
8
BLACK
6
CONTINUOUS
10
-0.608118
20
0.30734
11
-0.605741
21
0.312004
0
LINE
8
BLACK
6
CONTINUOUS
10
-0.605741
20
0.312004
11
-0.60204
21
0.315706
0
LINE
8
BLACK
6
CONTINUOUS
10
-0.60204
20
0.315706
11
-0.597375
21
0.318082
0
LINE
8
BLACK
6
CONTINUOUS
10
-0.597375
20
0.318082
11
-0.592205
21
0.318901
0
LINE
8
BLACK
6
CONTINUOUS
10
-0.592205
20
0.318901
11
-0.574488
21
0.318901
0
LINE
8
BLACK
6
CONTINUOUS
10
-0.574488
20
0.318901
11
-0.569318
21
0.318082
0
LINE
8
BLACK
6
CONTINUOUS
10
-0.444622
20
0.318131
11
-0.440232
21
0.315894
0
LINE
8
BLACK
6
CONTINUOUS
10
-0.440232
20
0.315894
11
-0.436748
21
0.31241
0
LINE
8
BLACK
6
CONTINUOUS
10
-0.436748
20
0.31241
11
-0.434511
21
0.30802
0
LINE
8
BLACK
6
CONTINUOUS
10
-0.434511
20
0.30802
11
-0.43374
21
0.303153
0
LINE
8
BLACK
6
CONTINUOUS
10
-0.43374
20
0.303153
11
-0.43374
21
0.2815
0
LINE
8
BLACK
6
CONTINUOUS
10
-0.43374
20
0.2815
11
-0.434511
21
0.276633
0
LINE
8
BLACK
6
CONTINUOUS
10
-0.434511
20
0.276633
11
-0.436748
21
0.272243
0
LINE
8
BLACK
6
CONTINUOUS
10
-0.436748
20
0.272243
11
-0.440232
21
0.268759
0
LINE
8
BLACK
6
CONTINUOUS
10
-0.440232
20
0.268759
11
-0.444622
21
0.266523
0
LINE
8
BLACK
6
CONTINUOUS
10
-0.444622
20
0.266523
11
-0.449488
21
0.265752
0
LINE
8
BLACK
6
CONTINUOUS
10
-0.449488
20
0.265752
11
-0.465236
21
0.265752
0
LINE
8
BLACK
6
CONTINUOUS
10
-0.465236
20
0.265752
11
-0.470103
21
0.266523
0
LINE
8
BLACK
6
CONTINUOUS
10
-0.470103
20
0.266523
11
-0.474493
21
0.268759
0
LINE
8
BLACK
6
CONTINUOUS
10
-0.474493
20
0.268759
11
-0.477977
21
0.272243
0
LINE
8
BLACK
6
CONTINUOUS
10
-0.477977
20
0.272243
11
-0.480214
21
0.276633
0
LINE
8
BLACK
6
CONTINUOUS
10
-0.480214
20
0.276633
11
-0.480984
21
0.2815
0
LINE
8
BLACK
6
CONTINUOUS
10
-0.480984
20
0.2815
11
-0.480984
21
0.303153
0
LINE
8
BLACK
6
CONTINUOUS
10
-0.480984
20
0.303153
11
-0.480214
21
0.30802
0
LINE
8
BLACK
6
CONTINUOUS
10
-0.480214
20
0.30802
11
-0.477977
21
0.31241
0
LINE
8
BLACK
6
CONTINUOUS
10
-0.477977
20
0.31241
11
-0.474493
21
0.315894
0
LINE
8
BLACK
6
CONTINUOUS
10
-0.474493
20
0.315894
11
-0.470103
21
0.318131
0
LINE
8
BLACK
6
CONTINUOUS
10
-0.470103
20
0.318131
11
-0.465236
21
0.318901
0
LINE
8
BLACK
6
CONTINUOUS
10
-0.465236
20
0.318901
11
-0.449488
21
0.318901
0
LINE
8
BLACK
6
CONTINUOUS
10
-0.449488
20
0.318901
11
-0.444622
21
0.318131
0
LINE
8
BLACK
6
CONTINUOUS
10
0.00351701
20
0.322019
11
0.00818146
21
0.319643
0
LINE
8
BLACK
6
CONTINUOUS
10
0.00818146
20
0.319643
11
0.0118831
21
0.315941
0
LINE
8
BLACK
6
CONTINUOUS
10
0.0118831
20
0.315941
11
0.0142598
21
0.311277
0
LINE
8
BLACK
6
CONTINUOUS
10
0.0142598
20
0.311277
11
0.0150787
21
0.306106
0
LINE
8
BLACK
6
CONTINUOUS
10
0.0150787
20
0.306106
11
0.0150787
21
0.28839
0
LINE
8
BLACK
6
CONTINUOUS
10
0.0150787
20
0.28839
11
0.0142598
21
0.283219
0
LINE
8
BLACK
6
CONTINUOUS
10
0.0142598
20
0.283219
11
0.0118831
21
0.278555
0
LINE
8
BLACK
6
CONTINUOUS
10
0.0118831
20
0.278555
11
0.00818146
21
0.274853
0
LINE
8
BLACK
6
CONTINUOUS
10
0.00818146
20
0.274853
11
0.00351701
21
0.272476
0
LINE
8
BLACK
6
CONTINUOUS
10
0.00351701
20
0.272476
11
-0.00165354
21
0.271657
0
LINE
8
BLACK
6
CONTINUOUS
10
-0.00165354
20
0.271657
11
-0.0213386
21
0.271657
0
LINE
8
BLACK
6
CONTINUOUS
10
-0.0213386
20
0.271657
11
-0.0265091
21
0.272476
0
LINE
8
BLACK
6
CONTINUOUS
10
-0.0265091
20
0.272476
11
-0.0311736
21
0.274853
0
LINE
8
BLACK
6
CONTINUOUS
10
-0.0311736
20
0.274853
11
-0.0348753
21
0.278555
0
LINE
8
BLACK
6
CONTINUOUS
10
-0.0348753
20
0.278555
11
-0.0372519
21
0.283219
0
LINE
8
BLACK
6
CONTINUOUS
10
-0.0372519
20
0.283219
11
-0.0380709
21
0.28839
0
LINE
8
BLACK
6
CONTINUOUS
10
-0.0380709
20
0.28839
11
-0.0380709
21
0.306106
0
LINE
8
BLACK
6
CONTINUOUS
10
-0.0380709
20
0.306106
11
-0.0372519
21
0.311277
0
LINE
8
BLACK
6
CONTINUOUS
10
-0.0372519
20
0.311277
11
-0.0348753
21
0.315941
0
LINE
8
BLACK
6
CONTINUOUS
10
-0.0348753
20
0.315941
11
-0.0311736
21
0.319643
0
LINE
8
BLACK
6
CONTINUOUS
10
-0.0311736
20
0.319643
11
-0.0265091
21
0.322019
0
LINE
8
BLACK
6
CONTINUOUS
10
-0.0265091
20
0.322019
11
-0.0213386
21
0.322838
0
LINE
8
BLACK
6
CONTINUOUS
10
-0.0213386
20
0.322838
11
-0.00165354
21
0.322838
0
LINE
8
BLACK
6
CONTINUOUS
10
-0.00165354
20
0.322838
11
0.00351701
21
0.322019
0
LINE
8
BLACK
6
CONTINUOUS
10
-0.0705515
20
0.319311
11
-0.0664864
21
0.317324
0
LINE
8
BLACK
6
CONTINUOUS
10
-0.0664864
20
0.317324
11
-0.0632841
21
0.314128
0
LINE
8
BLACK
6
CONTINUOUS
10
-0.0632841
20
0.314128
11
-0.0612898
21
0.310066
0
LINE
8
BLACK
6
CONTINUOUS
10
-0.0612898
20
0.310066
11
-0.0607087
21
0.306106
0
LINE
8
BLACK
6
CONTINUOUS
10
-0.0607087
20
0.306106
11
-0.0607087
21
0.294295
0
LINE
8
BLACK
6
CONTINUOUS
10
-0.0607087
20
0.294295
11
-0.061283
21
0.290358
0
LINE
8
BLACK
6
CONTINUOUS
10
-0.061283
20
0.290358
11
-0.0632701
21
0.286293
0
LINE
8
BLACK
6
CONTINUOUS
10
-0.0632701
20
0.286293
11
-0.0664668
21
0.283091
0
LINE
8
BLACK
6
CONTINUOUS
10
-0.0664668
20
0.283091
11
-0.0705285
21
0.281097
0
LINE
8
BLACK
6
CONTINUOUS
10
-0.0705285
20
0.281097
11
-0.0744882
21
0.280516
0
LINE
8
BLACK
6
CONTINUOUS
10
-0.0744882
20
0.280516
11
-0.114843
21
0.280516
0
LINE
8
BLACK
6
CONTINUOUS
10
-0.114843
20
0.280516
11
-0.118779
21
0.28109
0
LINE
8
BLACK
6
CONTINUOUS
10
-0.118779
20
0.28109
11
-0.122844
21
0.283077
0
LINE
8
BLACK
6
CONTINUOUS
10
-0.122844
20
0.283077
11
-0.126047
21
0.286274
0
LINE
8
BLACK
6
CONTINUOUS
10
-0.126047
20
0.286274
11
-0.128041
21
0.290335
0
LINE
8
BLACK
6
CONTINUOUS
10
-0.128041
20
0.290335
11
-0.128622
21
0.294295
0
LINE
8
BLACK
6
CONTINUOUS
10
-0.128622
20
0.294295
11
-0.128622
21
0.306106
0
LINE
8
BLACK
6
CONTINUOUS
10
-0.128622
20
0.306106
11
-0.128048
21
0.310043
0
LINE
8
BLACK
6
CONTINUOUS
10
-0.128048
20
0.310043
11
-0.126061
21
0.314108
0
LINE
8
BLACK
6
CONTINUOUS
10
-0.126061
20
0.314108
11
-0.122864
21
0.31731
0
LINE
8
BLACK
6
CONTINUOUS
10
-0.122864
20
0.31731
11
-0.118802
21
0.319304
0
LINE
8
BLACK
6
CONTINUOUS
10
-0.118802
20
0.319304
11
-0.114843
21
0.319886
0
LINE
8
BLACK
6
CONTINUOUS
10
-0.114843
20
0.319886
11
-0.0744882
21
0.319886
0
LINE
8
BLACK
6
CONTINUOUS
10
-0.0744882
20
0.319886
11
-0.0705515
21
0.319311
0
LINE
8
BLACK
6
CONTINUOUS
10
-0.732428
20
0.363115
11
-0.727458
21
0.36137
0
LINE
8
BLACK
6
CONTINUOUS
10
-0.727458
20
0.36137
11
-0.723221
21
0.35824
0
LINE
8
BLACK
6
CONTINUOUS
10
-0.723221
20
0.35824
11
-0.720091
21
0.354003
0
LINE
8
BLACK
6
CONTINUOUS
10
-0.720091
20
0.354003
11
-0.718345
21
0.349032
0
LINE
8
BLACK
6
CONTINUOUS
10
-0.718345
20
0.349032
11
-0.718031
21
0.345712
0
LINE
8
BLACK
6
CONTINUOUS
10
-0.718031
20
0.345712
11
-0.718031
21
0.326027
0
LINE
8
BLACK
6
CONTINUOUS
10
-0.718031
20
0.326027
11
-0.718345
21
0.322708
0
LINE
8
BLACK
6
CONTINUOUS
10
-0.718345
20
0.322708
11
-0.720091
21
0.317737
0
LINE
8
BLACK
6
CONTINUOUS
10
-0.720091
20
0.317737
11
-0.723221
21
0.3135
0
LINE
8
BLACK
6
CONTINUOUS
10
-0.723221
20
0.3135
11
-0.727458
21
0.31037
0
LINE
8
BLACK
6
CONTINUOUS
10
-0.727458
20
0.31037
11
-0.732428
21
0.308625
0
LINE
8
BLACK
6
CONTINUOUS
10
-0.732428
20
0.308625
11
-0.735748
21
0.308311
0
LINE
8
BLACK
6
CONTINUOUS
10
-0.735748
20
0.308311
11
-0.822362
21
0.308311
0
LINE
8
BLACK
6
CONTINUOUS
10
-0.822362
20
0.308311
11
-0.825682
21
0.308625
0
LINE
8
BLACK
6
CONTINUOUS
10
-0.825682
20
0.308625
11
-0.830652
21
0.31037
0
LINE
8
BLACK
6
CONTINUOUS
10
-0.830652
20
0.31037
11
-0.83489
21
0.3135
0
LINE
8
BLACK
6
CONTINUOUS
10
-0.83489
20
0.3135
11
-0.838019
21
0.317737
0
LINE
8
BLACK
6
CONTINUOUS
10
-0.838019
20
0.317737
11
-0.839765
21
0.322708
0
LINE
8
BLACK
6
CONTINUOUS
10
-0.839765
20
0.322708
11
-0.840079
21
0.326027
0
LINE
8
BLACK
6
CONTINUOUS
10
-0.840079
20
0.326027
11
-0.840079
21
0.345712
0
LINE
8
BLACK
6
CONTINUOUS
10
-0.840079
20
0.345712
11
-0.839765
21
0.349032
0
LINE
8
BLACK
6
CONTINUOUS
10
-0.839765
20
0.349032
11
-0.838019
21
0.354003
0
LINE
8
BLACK
6
CONTINUOUS
10
-0.838019
20
0.354003
11
-0.83489
21
0.35824
0
LINE
8
BLACK
6
CONTINUOUS
10
-0.83489
20
0.35824
11
-0.830652
21
0.36137
0
LINE
8
BLACK
6
CONTINUOUS
10
-0.830652
20
0.36137
11
-0.825682
21
0.363115
0
LINE
8
BLACK
6
CONTINUOUS
10
-0.825682
20
0.363115
11
-0.822362
21
0.363429
0
LINE
8
BLACK
6
CONTINUOUS
10
-0.822362
20
0.363429
11
-0.735748
21
0.363429
0
LINE
8
BLACK
6
CONTINUOUS
10
-0.735748
20
0.363429
11
-0.732428
21
0.363115
  0
ENDSEC
  0
EOF
