  0
SECTION
  2
HEADER
  9
$ANGBASE
  50
0.0
  9
$ANGDIR
  70
1
  9
$MEASUREMENT
  70
0
  0
ENDSEC
  0
SECTION
  2
TABLES
  0
TABLE
  2
LTYPE
  70
4
  0
LTYPE
  5
40F
  2
CONTINUOUS
  70
0
  3
Solid line
  72
65
  73
0
  40
0.0
  0
LTYPE
  5
410
  2
DASHDOT
 70
0
  3
Dash Dot ____ _ ____ _
 72
65
 73
4
 40
2.0
 49
1.25
 49
-0.25
 49
0.25
 49
-0.25
  0
LTYPE
  5
411
  2
DASHED
 70
0
  3
Dashed __ __ __ __ __
 72
65
 73
2
 40
0.75
 49
0.5
 49
-0.25
  0
LTYPE
  5
43B
  2
DOTTED
 70
0
  3
Dotted .  .  .  .
 72
65
 73
2
 40
0.2
 49
0.0
 49
-0.2
  0
ENDTAB
  0
TABLE
  2
STYLE
  70
4
  0
STYLE
  2
KICAD
  70
0
  40
0
  41
1
  42
1
  50
0
  71
0
  3
isocp.shx
  0
STYLE
  2
KICADB
  70
0
  40
0
  41
1
  42
1
  50
0
  71
0
  3
isocp.shx
  0
STYLE
  2
KICADI
  70
0
  40
0
  41
1
  42
1
  50
15
  71
0
  3
isocp.shx
  0
STYLE
  2
KICADBI
  70
0
  40
0
  41
1
  42
1
  50
15
  71
0
  3
isocp.shx
  0
ENDTAB
  0
TABLE
  2
LAYER
  70
1
  0
LAYER
  2
BLACK
  70
0
  62
7
  6
CONTINUOUS
  0
ENDTAB
  0
ENDSEC
  0
SECTION
  2
ENTITIES
0
LINE
8
BLACK
6
CONTINUOUS
10
-0.7319814566929134
20
-0.315469842519685
11
-0.7287883070866141
21
-0.3176034251968504
0
LINE
8
BLACK
6
CONTINUOUS
10
-0.7287883070866141
20
-0.3176034251968504
11
-0.7266547244094488
21
-0.3207965748031496
0
LINE
8
BLACK
6
CONTINUOUS
10
-0.7266547244094488
20
-0.3207965748031496
11
-0.7259055118110236
21
-0.3245631496062992
0
LINE
8
BLACK
6
CONTINUOUS
10
-0.7259055118110236
20
-0.3245631496062992
11
-0.7259055118110236
21
-0.3442481889763779
0
LINE
8
BLACK
6
CONTINUOUS
10
-0.7259055118110236
20
-0.3442481889763779
11
-0.7266547244094488
21
-0.3480147637795276
0
LINE
8
BLACK
6
CONTINUOUS
10
-0.7266547244094488
20
-0.3480147637795276
11
-0.7287883070866141
21
-0.3512079133858267
0
LINE
8
BLACK
6
CONTINUOUS
10
-0.7287883070866141
20
-0.3512079133858267
11
-0.7319814566929134
21
-0.3533414960629921
0
LINE
8
BLACK
6
CONTINUOUS
10
-0.7319814566929134
20
-0.3533414960629921
11
-0.7357480314960629
21
-0.3540907086614173
0
LINE
8
BLACK
6
CONTINUOUS
10
-0.7357480314960629
20
-0.3540907086614173
11
-0.8223622047244095
21
-0.3540907086614173
0
LINE
8
BLACK
6
CONTINUOUS
10
-0.8223622047244095
20
-0.3540907086614173
11
-0.826128779527559
21
-0.3533414960629921
0
LINE
8
BLACK
6
CONTINUOUS
10
-0.826128779527559
20
-0.3533414960629921
11
-0.8293219291338583
21
-0.3512079133858267
0
LINE
8
BLACK
6
CONTINUOUS
10
-0.8293219291338583
20
-0.3512079133858267
11
-0.8314555118110236
21
-0.3480147637795276
0
LINE
8
BLACK
6
CONTINUOUS
10
-0.8314555118110236
20
-0.3480147637795276
11
-0.8322047244094488
21
-0.3442481889763779
0
LINE
8
BLACK
6
CONTINUOUS
10
-0.8322047244094488
20
-0.3442481889763779
11
-0.8322047244094488
21
-0.3245631496062992
0
LINE
8
BLACK
6
CONTINUOUS
10
-0.8322047244094488
20
-0.3245631496062992
11
-0.8314555118110236
21
-0.3207965748031496
0
LINE
8
BLACK
6
CONTINUOUS
10
-0.8314555118110236
20
-0.3207965748031496
11
-0.8293219291338583
21
-0.3176034251968504
0
LINE
8
BLACK
6
CONTINUOUS
10
-0.8293219291338583
20
-0.3176034251968504
11
-0.826128779527559
21
-0.315469842519685
0
LINE
8
BLACK
6
CONTINUOUS
10
-0.826128779527559
20
-0.315469842519685
11
-0.8223622047244095
21
-0.3147206299212598
0
LINE
8
BLACK
6
CONTINUOUS
10
-0.8223622047244095
20
-0.3147206299212598
11
-0.7357480314960629
21
-0.3147206299212598
0
LINE
8
BLACK
6
CONTINUOUS
10
-0.7357480314960629
20
-0.3147206299212598
11
-0.7319814566929134
21
-0.315469842519685
0
LINE
8
BLACK
6
CONTINUOUS
10
-0.2261599606299212
20
-0.2973316535433071
11
-0.2236054724409449
21
-0.2990385433070866
0
LINE
8
BLACK
6
CONTINUOUS
10
-0.2236054724409449
20
-0.2990385433070866
11
-0.2218985826771654
21
-0.301593031496063
0
LINE
8
BLACK
6
CONTINUOUS
10
-0.2218985826771654
20
-0.301593031496063
11
-0.2212992125984252
21
-0.3046062992125984
0
LINE
8
BLACK
6
CONTINUOUS
10
-0.2212992125984252
20
-0.3046062992125984
11
-0.2212992125984252
21
-0.3203543307086614
0
LINE
8
BLACK
6
CONTINUOUS
10
-0.2212992125984252
20
-0.3203543307086614
11
-0.2218985826771654
21
-0.3233675984251969
0
LINE
8
BLACK
6
CONTINUOUS
10
-0.2218985826771654
20
-0.3233675984251969
11
-0.2236054724409449
21
-0.3259220866141732
0
LINE
8
BLACK
6
CONTINUOUS
10
-0.2236054724409449
20
-0.3259220866141732
11
-0.2261599606299212
21
-0.3276289763779527
0
LINE
8
BLACK
6
CONTINUOUS
10
-0.2261599606299212
20
-0.3276289763779527
11
-0.2291732283464567
21
-0.3282283464566929
0
LINE
8
BLACK
6
CONTINUOUS
10
-0.2291732283464567
20
-0.3282283464566929
11
-0.2508267716535433
21
-0.3282283464566929
0
LINE
8
BLACK
6
CONTINUOUS
10
-0.2508267716535433
20
-0.3282283464566929
11
-0.2538400393700787
21
-0.3276289763779527
0
LINE
8
BLACK
6
CONTINUOUS
10
-0.2538400393700787
20
-0.3276289763779527
11
-0.2563945275590551
21
-0.3259220866141732
0
LINE
8
BLACK
6
CONTINUOUS
10
-0.2563945275590551
20
-0.3259220866141732
11
-0.2581014173228346
21
-0.3233675984251969
0
LINE
8
BLACK
6
CONTINUOUS
10
-0.2581014173228346
20
-0.3233675984251969
11
-0.2587007874015748
21
-0.3203543307086614
0
LINE
8
BLACK
6
CONTINUOUS
10
-0.2587007874015748
20
-0.3203543307086614
11
-0.2587007874015748
21
-0.3046062992125984
0
LINE
8
BLACK
6
CONTINUOUS
10
-0.2587007874015748
20
-0.3046062992125984
11
-0.2581014173228346
21
-0.301593031496063
0
LINE
8
BLACK
6
CONTINUOUS
10
-0.2581014173228346
20
-0.301593031496063
11
-0.2563945275590551
21
-0.2990385433070866
0
LINE
8
BLACK
6
CONTINUOUS
10
-0.2563945275590551
20
-0.2990385433070866
11
-0.2538400393700787
21
-0.2973316535433071
0
LINE
8
BLACK
6
CONTINUOUS
10
-0.2538400393700787
20
-0.2973316535433071
11
-0.2508267716535433
21
-0.2967322834645669
0
LINE
8
BLACK
6
CONTINUOUS
10
-0.2508267716535433
20
-0.2967322834645669
11
-0.2291732283464567
21
-0.2967322834645669
0
LINE
8
BLACK
6
CONTINUOUS
10
-0.2291732283464567
20
-0.2967322834645669
11
-0.2261599606299212
21
-0.2973316535433071
0
LINE
8
BLACK
6
CONTINUOUS
10
-0.1461599606299213
20
-0.2973316535433071
11
-0.1436054724409449
21
-0.2990385433070866
0
LINE
8
BLACK
6
CONTINUOUS
10
-0.1436054724409449
20
-0.2990385433070866
11
-0.1418985826771653
21
-0.301593031496063
0
LINE
8
BLACK
6
CONTINUOUS
10
-0.1418985826771653
20
-0.301593031496063
11
-0.1412992125984252
21
-0.3046062992125984
0
LINE
8
BLACK
6
CONTINUOUS
10
-0.1412992125984252
20
-0.3046062992125984
11
-0.1412992125984252
21
-0.3203543307086614
0
LINE
8
BLACK
6
CONTINUOUS
10
-0.1412992125984252
20
-0.3203543307086614
11
-0.1418985826771653
21
-0.3233675984251969
0
LINE
8
BLACK
6
CONTINUOUS
10
-0.1418985826771653
20
-0.3233675984251969
11
-0.1436054724409449
21
-0.3259220866141732
0
LINE
8
BLACK
6
CONTINUOUS
10
-0.1436054724409449
20
-0.3259220866141732
11
-0.1461599606299213
21
-0.3276289763779527
0
LINE
8
BLACK
6
CONTINUOUS
10
-0.1461599606299213
20
-0.3276289763779527
11
-0.1491732283464567
21
-0.3282283464566929
0
LINE
8
BLACK
6
CONTINUOUS
10
-0.1491732283464567
20
-0.3282283464566929
11
-0.1708267716535433
21
-0.3282283464566929
0
LINE
8
BLACK
6
CONTINUOUS
10
-0.1708267716535433
20
-0.3282283464566929
11
-0.1738400393700787
21
-0.3276289763779527
0
LINE
8
BLACK
6
CONTINUOUS
10
-0.1738400393700787
20
-0.3276289763779527
11
-0.1763945275590551
21
-0.3259220866141732
0
LINE
8
BLACK
6
CONTINUOUS
10
-0.1763945275590551
20
-0.3259220866141732
11
-0.1781014173228346
21
-0.3233675984251969
0
LINE
8
BLACK
6
CONTINUOUS
10
-0.1781014173228346
20
-0.3233675984251969
11
-0.1787007874015748
21
-0.3203543307086614
0
LINE
8
BLACK
6
CONTINUOUS
10
-0.1787007874015748
20
-0.3203543307086614
11
-0.1787007874015748
21
-0.3046062992125984
0
LINE
8
BLACK
6
CONTINUOUS
10
-0.1787007874015748
20
-0.3046062992125984
11
-0.1781014173228346
21
-0.301593031496063
0
LINE
8
BLACK
6
CONTINUOUS
10
-0.1781014173228346
20
-0.301593031496063
11
-0.1763945275590551
21
-0.2990385433070866
0
LINE
8
BLACK
6
CONTINUOUS
10
-0.1763945275590551
20
-0.2990385433070866
11
-0.1738400393700787
21
-0.2973316535433071
0
LINE
8
BLACK
6
CONTINUOUS
10
-0.1738400393700787
20
-0.2973316535433071
11
-0.1708267716535433
21
-0.2967322834645669
0
LINE
8
BLACK
6
CONTINUOUS
10
-0.1708267716535433
20
-0.2967322834645669
11
-0.1491732283464567
21
-0.2967322834645669
0
LINE
8
BLACK
6
CONTINUOUS
10
-0.1491732283464567
20
-0.2967322834645669
11
-0.1461599606299213
21
-0.2973316535433071
0
LINE
8
BLACK
6
CONTINUOUS
10
0.182523779527559
20
-0.2890601181102362
11
0.1853975984251968
21
-0.2909803543307087
0
LINE
8
BLACK
6
CONTINUOUS
10
0.1853975984251968
20
-0.2909803543307087
11
0.1873178346456693
21
-0.2938541732283464
0
LINE
8
BLACK
6
CONTINUOUS
10
0.1873178346456693
20
-0.2938541732283464
11
0.187992125984252
21
-0.2972440944881889
0
LINE
8
BLACK
6
CONTINUOUS
10
0.187992125984252
20
-0.2972440944881889
11
0.187992125984252
21
-0.3149606299212598
0
LINE
8
BLACK
6
CONTINUOUS
10
0.187992125984252
20
-0.3149606299212598
11
0.1873178346456693
21
-0.3183505511811023
0
LINE
8
BLACK
6
CONTINUOUS
10
0.1873178346456693
20
-0.3183505511811023
11
0.1853975984251968
21
-0.3212243700787402
0
LINE
8
BLACK
6
CONTINUOUS
10
0.1853975984251968
20
-0.3212243700787402
11
0.182523779527559
21
-0.3231446062992126
0
LINE
8
BLACK
6
CONTINUOUS
10
0.182523779527559
20
-0.3231446062992126
11
0.1791338582677165
21
-0.3238188976377953
0
LINE
8
BLACK
6
CONTINUOUS
10
0.1791338582677165
20
-0.3238188976377953
11
0.1594488188976378
21
-0.3238188976377953
0
LINE
8
BLACK
6
CONTINUOUS
10
0.1594488188976378
20
-0.3238188976377953
11
0.1560588976377953
21
-0.3231446062992126
0
LINE
8
BLACK
6
CONTINUOUS
10
0.1560588976377953
20
-0.3231446062992126
11
0.1531850787401575
21
-0.3212243700787402
0
LINE
8
BLACK
6
CONTINUOUS
10
0.1531850787401575
20
-0.3212243700787402
11
0.151264842519685
21
-0.3183505511811023
0
LINE
8
BLACK
6
CONTINUOUS
10
0.151264842519685
20
-0.3183505511811023
11
0.1505905511811024
21
-0.3149606299212598
0
LINE
8
BLACK
6
CONTINUOUS
10
0.1505905511811024
20
-0.3149606299212598
11
0.1505905511811024
21
-0.2972440944881889
0
LINE
8
BLACK
6
CONTINUOUS
10
0.1505905511811024
20
-0.2972440944881889
11
0.151264842519685
21
-0.2938541732283464
0
LINE
8
BLACK
6
CONTINUOUS
10
0.151264842519685
20
-0.2938541732283464
11
0.1531850787401575
21
-0.2909803543307087
0
LINE
8
BLACK
6
CONTINUOUS
10
0.1531850787401575
20
-0.2909803543307087
11
0.1560588976377953
21
-0.2890601181102362
0
LINE
8
BLACK
6
CONTINUOUS
10
0.1560588976377953
20
-0.2890601181102362
11
0.1594488188976378
21
-0.2883858267716535
0
LINE
8
BLACK
6
CONTINUOUS
10
0.1594488188976378
20
-0.2883858267716535
11
0.1791338582677165
21
-0.2883858267716535
0
LINE
8
BLACK
6
CONTINUOUS
10
0.1791338582677165
20
-0.2883858267716535
11
0.182523779527559
21
-0.2890601181102362
0
LINE
8
BLACK
6
CONTINUOUS
10
0.2622834645669291
20
-0.3203111811023622
11
0.2465354330708661
21
-0.3203111811023622
0
LINE
8
BLACK
6
CONTINUOUS
10
0.2465354330708661
20
-0.3203111811023622
11
0.2465354330708661
21
-0.2947206299212599
0
LINE
8
BLACK
6
CONTINUOUS
10
0.2465354330708661
20
-0.2947206299212599
11
0.2622834645669291
21
-0.2947206299212599
0
LINE
8
BLACK
6
CONTINUOUS
10
0.2622834645669291
20
-0.2947206299212599
11
0.2622834645669291
21
-0.3203111811023622
0
LINE
8
BLACK
6
CONTINUOUS
10
0.3134645669291338
20
-0.3203111811023622
11
0.2977165354330709
21
-0.3203111811023622
0
LINE
8
BLACK
6
CONTINUOUS
10
0.2977165354330709
20
-0.3203111811023622
11
0.2977165354330709
21
-0.2947206299212599
0
LINE
8
BLACK
6
CONTINUOUS
10
0.2977165354330709
20
-0.2947206299212599
11
0.3134645669291338
21
-0.2947206299212599
0
LINE
8
BLACK
6
CONTINUOUS
10
0.3134645669291338
20
-0.2947206299212599
11
0.3134645669291338
21
-0.3203111811023622
0
LINE
8
BLACK
6
CONTINUOUS
10
-0.4381889763779527
20
-0.3051181102362205
11
-0.497244094488189
21
-0.3051181102362205
0
LINE
8
BLACK
6
CONTINUOUS
10
-0.497244094488189
20
-0.3051181102362205
11
-0.497244094488189
21
-0.2460629921259843
0
LINE
8
BLACK
6
CONTINUOUS
10
-0.497244094488189
20
-0.2460629921259843
11
-0.4381889763779527
21
-0.2460629921259843
0
LINE
8
BLACK
6
CONTINUOUS
10
-0.4381889763779527
20
-0.2460629921259843
11
-0.4381889763779527
21
-0.3051181102362205
0
LINE
8
BLACK
6
CONTINUOUS
10
-0.2901574803149606
20
-0.3051181102362205
11
-0.3492125984251969
21
-0.3051181102362205
0
LINE
8
BLACK
6
CONTINUOUS
10
-0.3492125984251969
20
-0.3051181102362205
11
-0.3492125984251969
21
-0.2460629921259843
0
LINE
8
BLACK
6
CONTINUOUS
10
-0.3492125984251969
20
-0.2460629921259843
11
-0.2901574803149606
21
-0.2460629921259843
0
LINE
8
BLACK
6
CONTINUOUS
10
-0.2901574803149606
20
-0.2460629921259843
11
-0.2901574803149606
21
-0.3051181102362205
0
LINE
8
BLACK
6
CONTINUOUS
10
-0.0444881889763779
20
-0.3051181102362205
11
-0.1035433070866142
21
-0.3051181102362205
0
LINE
8
BLACK
6
CONTINUOUS
10
-0.1035433070866142
20
-0.3051181102362205
11
-0.1035433070866142
21
-0.2460629921259843
0
LINE
8
BLACK
6
CONTINUOUS
10
-0.1035433070866142
20
-0.2460629921259843
11
-0.0444881889763779
21
-0.2460629921259843
0
LINE
8
BLACK
6
CONTINUOUS
10
-0.0444881889763779
20
-0.2460629921259843
11
-0.0444881889763779
21
-0.3051181102362205
0
LINE
8
BLACK
6
CONTINUOUS
10
0.1035433070866142
20
-0.3051181102362205
11
0.0444881889763779
21
-0.3051181102362205
0
LINE
8
BLACK
6
CONTINUOUS
10
0.0444881889763779
20
-0.3051181102362205
11
0.0444881889763779
21
-0.2460629921259843
0
LINE
8
BLACK
6
CONTINUOUS
10
0.0444881889763779
20
-0.2460629921259843
11
0.1035433070866142
21
-0.2460629921259843
0
LINE
8
BLACK
6
CONTINUOUS
10
0.1035433070866142
20
-0.2460629921259843
11
0.1035433070866142
21
-0.3051181102362205
0
LINE
8
BLACK
6
CONTINUOUS
10
-0.6232518503937008
20
-0.2502095275590551
11
-0.6213359842519685
21
-0.2514896850393701
0
LINE
8
BLACK
6
CONTINUOUS
10
-0.6213359842519685
20
-0.2514896850393701
11
-0.6200558267716535
21
-0.2534055511811024
0
LINE
8
BLACK
6
CONTINUOUS
10
-0.6200558267716535
20
-0.2534055511811024
11
-0.6196062992125985
21
-0.2556655118110236
0
LINE
8
BLACK
6
CONTINUOUS
10
-0.6196062992125985
20
-0.2556655118110236
11
-0.6196062992125985
21
-0.2674765354330709
0
LINE
8
BLACK
6
CONTINUOUS
10
-0.6196062992125985
20
-0.2674765354330709
11
-0.6200558267716535
21
-0.2697364960629921
0
LINE
8
BLACK
6
CONTINUOUS
10
-0.6200558267716535
20
-0.2697364960629921
11
-0.6213359842519685
21
-0.2716523622047244
0
LINE
8
BLACK
6
CONTINUOUS
10
-0.6213359842519685
20
-0.2716523622047244
11
-0.6232518503937008
21
-0.2729325196850393
0
LINE
8
BLACK
6
CONTINUOUS
10
-0.6232518503937008
20
-0.2729325196850393
11
-0.6255118110236221
21
-0.2733820472440945
0
LINE
8
BLACK
6
CONTINUOUS
10
-0.6255118110236221
20
-0.2733820472440945
11
-0.6806299212598425
21
-0.2733820472440945
0
LINE
8
BLACK
6
CONTINUOUS
10
-0.6806299212598425
20
-0.2733820472440945
11
-0.6828898818897637
21
-0.2729325196850393
0
LINE
8
BLACK
6
CONTINUOUS
10
-0.6828898818897637
20
-0.2729325196850393
11
-0.6848057480314961
21
-0.2716523622047244
0
LINE
8
BLACK
6
CONTINUOUS
10
-0.6848057480314961
20
-0.2716523622047244
11
-0.686085905511811
21
-0.2697364960629921
0
LINE
8
BLACK
6
CONTINUOUS
10
-0.686085905511811
20
-0.2697364960629921
11
-0.6865354330708662
21
-0.2674765354330709
0
LINE
8
BLACK
6
CONTINUOUS
10
-0.6865354330708662
20
-0.2674765354330709
11
-0.6865354330708662
21
-0.2556655118110236
0
LINE
8
BLACK
6
CONTINUOUS
10
-0.6865354330708662
20
-0.2556655118110236
11
-0.686085905511811
21
-0.2534055511811024
0
LINE
8
BLACK
6
CONTINUOUS
10
-0.686085905511811
20
-0.2534055511811024
11
-0.6848057480314961
21
-0.2514896850393701
0
LINE
8
BLACK
6
CONTINUOUS
10
-0.6848057480314961
20
-0.2514896850393701
11
-0.6828898818897637
21
-0.2502095275590551
0
LINE
8
BLACK
6
CONTINUOUS
10
-0.6828898818897637
20
-0.2502095275590551
11
-0.6806299212598425
21
-0.24976
0
LINE
8
BLACK
6
CONTINUOUS
10
-0.6806299212598425
20
-0.24976
11
-0.6255118110236221
21
-0.24976
0
LINE
8
BLACK
6
CONTINUOUS
10
-0.6255118110236221
20
-0.24976
11
-0.6232518503937008
21
-0.2502095275590551
0
LINE
8
BLACK
6
CONTINUOUS
10
-0.2261599606299212
20
-0.2323710236220472
11
-0.2236054724409449
21
-0.2340779133858268
0
LINE
8
BLACK
6
CONTINUOUS
10
-0.2236054724409449
20
-0.2340779133858268
11
-0.2218985826771654
21
-0.2366324015748031
0
LINE
8
BLACK
6
CONTINUOUS
10
-0.2218985826771654
20
-0.2366324015748031
11
-0.2212992125984252
21
-0.2396456692913386
0
LINE
8
BLACK
6
CONTINUOUS
10
-0.2212992125984252
20
-0.2396456692913386
11
-0.2212992125984252
21
-0.2553937007874016
0
LINE
8
BLACK
6
CONTINUOUS
10
-0.2212992125984252
20
-0.2553937007874016
11
-0.2218985826771654
21
-0.258406968503937
0
LINE
8
BLACK
6
CONTINUOUS
10
-0.2218985826771654
20
-0.258406968503937
11
-0.2236054724409449
21
-0.2609614566929134
0
LINE
8
BLACK
6
CONTINUOUS
10
-0.2236054724409449
20
-0.2609614566929134
11
-0.2261599606299212
21
-0.2626683464566929
0
LINE
8
BLACK
6
CONTINUOUS
10
-0.2261599606299212
20
-0.2626683464566929
11
-0.2291732283464567
21
-0.2632677165354331
0
LINE
8
BLACK
6
CONTINUOUS
10
-0.2291732283464567
20
-0.2632677165354331
11
-0.2508267716535433
21
-0.2632677165354331
0
LINE
8
BLACK
6
CONTINUOUS
10
-0.2508267716535433
20
-0.2632677165354331
11
-0.2538400393700787
21
-0.2626683464566929
0
LINE
8
BLACK
6
CONTINUOUS
10
-0.2538400393700787
20
-0.2626683464566929
11
-0.2563945275590551
21
-0.2609614566929134
0
LINE
8
BLACK
6
CONTINUOUS
10
-0.2563945275590551
20
-0.2609614566929134
11
-0.2581014173228346
21
-0.258406968503937
0
LINE
8
BLACK
6
CONTINUOUS
10
-0.2581014173228346
20
-0.258406968503937
11
-0.2587007874015748
21
-0.2553937007874016
0
LINE
8
BLACK
6
CONTINUOUS
10
-0.2587007874015748
20
-0.2553937007874016
11
-0.2587007874015748
21
-0.2396456692913386
0
LINE
8
BLACK
6
CONTINUOUS
10
-0.2587007874015748
20
-0.2396456692913386
11
-0.2581014173228346
21
-0.2366324015748031
0
LINE
8
BLACK
6
CONTINUOUS
10
-0.2581014173228346
20
-0.2366324015748031
11
-0.2563945275590551
21
-0.2340779133858268
0
LINE
8
BLACK
6
CONTINUOUS
10
-0.2563945275590551
20
-0.2340779133858268
11
-0.2538400393700787
21
-0.2323710236220472
0
LINE
8
BLACK
6
CONTINUOUS
10
-0.2538400393700787
20
-0.2323710236220472
11
-0.2508267716535433
21
-0.2317716535433071
0
LINE
8
BLACK
6
CONTINUOUS
10
-0.2508267716535433
20
-0.2317716535433071
11
-0.2291732283464567
21
-0.2317716535433071
0
LINE
8
BLACK
6
CONTINUOUS
10
-0.2291732283464567
20
-0.2317716535433071
11
-0.2261599606299212
21
-0.2323710236220472
0
LINE
8
BLACK
6
CONTINUOUS
10
-0.1461599606299213
20
-0.2323710236220472
11
-0.1436054724409449
21
-0.2340779133858268
0
LINE
8
BLACK
6
CONTINUOUS
10
-0.1436054724409449
20
-0.2340779133858268
11
-0.1418985826771653
21
-0.2366324015748031
0
LINE
8
BLACK
6
CONTINUOUS
10
-0.1418985826771653
20
-0.2366324015748031
11
-0.1412992125984252
21
-0.2396456692913386
0
LINE
8
BLACK
6
CONTINUOUS
10
-0.1412992125984252
20
-0.2396456692913386
11
-0.1412992125984252
21
-0.2553937007874016
0
LINE
8
BLACK
6
CONTINUOUS
10
-0.1412992125984252
20
-0.2553937007874016
11
-0.1418985826771653
21
-0.258406968503937
0
LINE
8
BLACK
6
CONTINUOUS
10
-0.1418985826771653
20
-0.258406968503937
11
-0.1436054724409449
21
-0.2609614566929134
0
LINE
8
BLACK
6
CONTINUOUS
10
-0.1436054724409449
20
-0.2609614566929134
11
-0.1461599606299213
21
-0.2626683464566929
0
LINE
8
BLACK
6
CONTINUOUS
10
-0.1461599606299213
20
-0.2626683464566929
11
-0.1491732283464567
21
-0.2632677165354331
0
LINE
8
BLACK
6
CONTINUOUS
10
-0.1491732283464567
20
-0.2632677165354331
11
-0.1708267716535433
21
-0.2632677165354331
0
LINE
8
BLACK
6
CONTINUOUS
10
-0.1708267716535433
20
-0.2632677165354331
11
-0.1738400393700787
21
-0.2626683464566929
0
LINE
8
BLACK
6
CONTINUOUS
10
-0.1738400393700787
20
-0.2626683464566929
11
-0.1763945275590551
21
-0.2609614566929134
0
LINE
8
BLACK
6
CONTINUOUS
10
-0.1763945275590551
20
-0.2609614566929134
11
-0.1781014173228346
21
-0.258406968503937
0
LINE
8
BLACK
6
CONTINUOUS
10
-0.1781014173228346
20
-0.258406968503937
11
-0.1787007874015748
21
-0.2553937007874016
0
LINE
8
BLACK
6
CONTINUOUS
10
-0.1787007874015748
20
-0.2553937007874016
11
-0.1787007874015748
21
-0.2396456692913386
0
LINE
8
BLACK
6
CONTINUOUS
10
-0.1787007874015748
20
-0.2396456692913386
11
-0.1781014173228346
21
-0.2366324015748031
0
LINE
8
BLACK
6
CONTINUOUS
10
-0.1781014173228346
20
-0.2366324015748031
11
-0.1763945275590551
21
-0.2340779133858268
0
LINE
8
BLACK
6
CONTINUOUS
10
-0.1763945275590551
20
-0.2340779133858268
11
-0.1738400393700787
21
-0.2323710236220472
0
LINE
8
BLACK
6
CONTINUOUS
10
-0.1738400393700787
20
-0.2323710236220472
11
-0.1708267716535433
21
-0.2317716535433071
0
LINE
8
BLACK
6
CONTINUOUS
10
-0.1708267716535433
20
-0.2317716535433071
11
-0.1491732283464567
21
-0.2317716535433071
0
LINE
8
BLACK
6
CONTINUOUS
10
-0.1491732283464567
20
-0.2317716535433071
11
-0.1461599606299213
21
-0.2323710236220472
0
LINE
8
BLACK
6
CONTINUOUS
10
0.182523779527559
20
-0.2280364960629921
11
0.1853975984251968
21
-0.2299567322834646
0
LINE
8
BLACK
6
CONTINUOUS
10
0.1853975984251968
20
-0.2299567322834646
11
0.1873178346456693
21
-0.2328305511811024
0
LINE
8
BLACK
6
CONTINUOUS
10
0.1873178346456693
20
-0.2328305511811024
11
0.187992125984252
21
-0.2362204724409449
0
LINE
8
BLACK
6
CONTINUOUS
10
0.187992125984252
20
-0.2362204724409449
11
0.187992125984252
21
-0.2539370078740157
0
LINE
8
BLACK
6
CONTINUOUS
10
0.187992125984252
20
-0.2539370078740157
11
0.1873178346456693
21
-0.2573269291338582
0
LINE
8
BLACK
6
CONTINUOUS
10
0.1873178346456693
20
-0.2573269291338582
11
0.1853975984251968
21
-0.2602007480314961
0
LINE
8
BLACK
6
CONTINUOUS
10
0.1853975984251968
20
-0.2602007480314961
11
0.182523779527559
21
-0.2621209842519685
0
LINE
8
BLACK
6
CONTINUOUS
10
0.182523779527559
20
-0.2621209842519685
11
0.1791338582677165
21
-0.2627952755905512
0
LINE
8
BLACK
6
CONTINUOUS
10
0.1791338582677165
20
-0.2627952755905512
11
0.1594488188976378
21
-0.2627952755905512
0
LINE
8
BLACK
6
CONTINUOUS
10
0.1594488188976378
20
-0.2627952755905512
11
0.1560588976377953
21
-0.2621209842519685
0
LINE
8
BLACK
6
CONTINUOUS
10
0.1560588976377953
20
-0.2621209842519685
11
0.1531850787401575
21
-0.2602007480314961
0
LINE
8
BLACK
6
CONTINUOUS
10
0.1531850787401575
20
-0.2602007480314961
11
0.151264842519685
21
-0.2573269291338582
0
LINE
8
BLACK
6
CONTINUOUS
10
0.151264842519685
20
-0.2573269291338582
11
0.1505905511811024
21
-0.2539370078740157
0
LINE
8
BLACK
6
CONTINUOUS
10
0.1505905511811024
20
-0.2539370078740157
11
0.1505905511811024
21
-0.2362204724409449
0
LINE
8
BLACK
6
CONTINUOUS
10
0.1505905511811024
20
-0.2362204724409449
11
0.151264842519685
21
-0.2328305511811024
0
LINE
8
BLACK
6
CONTINUOUS
10
0.151264842519685
20
-0.2328305511811024
11
0.1531850787401575
21
-0.2299567322834646
0
LINE
8
BLACK
6
CONTINUOUS
10
0.1531850787401575
20
-0.2299567322834646
11
0.1560588976377953
21
-0.2280364960629921
0
LINE
8
BLACK
6
CONTINUOUS
10
0.1560588976377953
20
-0.2280364960629921
11
0.1594488188976378
21
-0.2273622047244094
0
LINE
8
BLACK
6
CONTINUOUS
10
0.1594488188976378
20
-0.2273622047244094
11
0.1791338582677165
21
-0.2273622047244094
0
LINE
8
BLACK
6
CONTINUOUS
10
0.1791338582677165
20
-0.2273622047244094
11
0.182523779527559
21
-0.2280364960629921
0
LINE
8
BLACK
6
CONTINUOUS
10
0.2622834645669291
20
-0.245508031496063
11
0.2465354330708661
21
-0.245508031496063
0
LINE
8
BLACK
6
CONTINUOUS
10
0.2465354330708661
20
-0.245508031496063
11
0.2465354330708661
21
-0.2199174803149606
0
LINE
8
BLACK
6
CONTINUOUS
10
0.2465354330708661
20
-0.2199174803149606
11
0.2622834645669291
21
-0.2199174803149606
0
LINE
8
BLACK
6
CONTINUOUS
10
0.2622834645669291
20
-0.2199174803149606
11
0.2622834645669291
21
-0.245508031496063
0
LINE
8
BLACK
6
CONTINUOUS
10
0.2878740157480315
20
-0.245508031496063
11
0.2721259842519685
21
-0.245508031496063
0
LINE
8
BLACK
6
CONTINUOUS
10
0.2721259842519685
20
-0.245508031496063
11
0.2721259842519685
21
-0.2199174803149606
0
LINE
8
BLACK
6
CONTINUOUS
10
0.2721259842519685
20
-0.2199174803149606
11
0.2878740157480315
21
-0.2199174803149606
0
LINE
8
BLACK
6
CONTINUOUS
10
0.2878740157480315
20
-0.2199174803149606
11
0.2878740157480315
21
-0.245508031496063
0
LINE
8
BLACK
6
CONTINUOUS
10
0.3134645669291338
20
-0.245508031496063
11
0.2977165354330709
21
-0.245508031496063
0
LINE
8
BLACK
6
CONTINUOUS
10
0.2977165354330709
20
-0.245508031496063
11
0.2977165354330709
21
-0.2199174803149606
0
LINE
8
BLACK
6
CONTINUOUS
10
0.2977165354330709
20
-0.2199174803149606
11
0.3134645669291338
21
-0.2199174803149606
0
LINE
8
BLACK
6
CONTINUOUS
10
0.3134645669291338
20
-0.2199174803149606
11
0.3134645669291338
21
-0.245508031496063
0
LINE
8
BLACK
6
CONTINUOUS
10
-0.6232518503937008
20
-0.2009969291338583
11
-0.6213359842519685
21
-0.2022770866141732
0
LINE
8
BLACK
6
CONTINUOUS
10
-0.6213359842519685
20
-0.2022770866141732
11
-0.6200558267716535
21
-0.2041929527559055
0
LINE
8
BLACK
6
CONTINUOUS
10
-0.6200558267716535
20
-0.2041929527559055
11
-0.6196062992125985
21
-0.2064529133858268
0
LINE
8
BLACK
6
CONTINUOUS
10
-0.6196062992125985
20
-0.2064529133858268
11
-0.6196062992125985
21
-0.218263937007874
0
LINE
8
BLACK
6
CONTINUOUS
10
-0.6196062992125985
20
-0.218263937007874
11
-0.6200558267716535
21
-0.2205238976377953
0
LINE
8
BLACK
6
CONTINUOUS
10
-0.6200558267716535
20
-0.2205238976377953
11
-0.6213359842519685
21
-0.2224397637795276
0
LINE
8
BLACK
6
CONTINUOUS
10
-0.6213359842519685
20
-0.2224397637795276
11
-0.6232518503937008
21
-0.2237199212598425
0
LINE
8
BLACK
6
CONTINUOUS
10
-0.6232518503937008
20
-0.2237199212598425
11
-0.6255118110236221
21
-0.2241694488188976
0
LINE
8
BLACK
6
CONTINUOUS
10
-0.6255118110236221
20
-0.2241694488188976
11
-0.6806299212598425
21
-0.2241694488188976
0
LINE
8
BLACK
6
CONTINUOUS
10
-0.6806299212598425
20
-0.2241694488188976
11
-0.6828898818897637
21
-0.2237199212598425
0
LINE
8
BLACK
6
CONTINUOUS
10
-0.6828898818897637
20
-0.2237199212598425
11
-0.6848057480314961
21
-0.2224397637795276
0
LINE
8
BLACK
6
CONTINUOUS
10
-0.6848057480314961
20
-0.2224397637795276
11
-0.686085905511811
21
-0.2205238976377953
0
LINE
8
BLACK
6
CONTINUOUS
10
-0.686085905511811
20
-0.2205238976377953
11
-0.6865354330708662
21
-0.218263937007874
0
LINE
8
BLACK
6
CONTINUOUS
10
-0.6865354330708662
20
-0.218263937007874
11
-0.6865354330708662
21
-0.2064529133858268
0
LINE
8
BLACK
6
CONTINUOUS
10
-0.6865354330708662
20
-0.2064529133858268
11
-0.686085905511811
21
-0.2041929527559055
0
LINE
8
BLACK
6
CONTINUOUS
10
-0.686085905511811
20
-0.2041929527559055
11
-0.6848057480314961
21
-0.2022770866141732
0
LINE
8
BLACK
6
CONTINUOUS
10
-0.6848057480314961
20
-0.2022770866141732
11
-0.6828898818897637
21
-0.2009969291338583
0
LINE
8
BLACK
6
CONTINUOUS
10
-0.6828898818897637
20
-0.2009969291338583
11
-0.6806299212598425
21
-0.2005474015748031
0
LINE
8
BLACK
6
CONTINUOUS
10
-0.6806299212598425
20
-0.2005474015748031
11
-0.6255118110236221
21
-0.2005474015748031
0
LINE
8
BLACK
6
CONTINUOUS
10
-0.6255118110236221
20
-0.2005474015748031
11
-0.6232518503937008
21
-0.2009969291338583
0
LINE
8
BLACK
6
CONTINUOUS
10
-0.4357504330708661
20
-0.0930961417322835
11
-0.4326351574803149
21
-0.0948947244094488
0
LINE
8
BLACK
6
CONTINUOUS
10
-0.4326351574803149
20
-0.0948947244094488
11
-0.4300915748031496
21
-0.0974383070866142
0
LINE
8
BLACK
6
CONTINUOUS
10
-0.4300915748031496
20
-0.0974383070866142
11
-0.4282929921259843
21
-0.1005535826771654
0
LINE
8
BLACK
6
CONTINUOUS
10
-0.4282929921259843
20
-0.1005535826771654
11
-0.427361968503937
21
-0.1040281889763779
0
LINE
8
BLACK
6
CONTINUOUS
10
-0.427361968503937
20
-0.1040281889763779
11
-0.427244094488189
21
-0.1806299212598425
0
LINE
8
BLACK
6
CONTINUOUS
10
-0.427244094488189
20
-0.1806299212598425
11
-0.427361968503937
21
-0.1824285039370079
0
LINE
8
BLACK
6
CONTINUOUS
10
-0.427361968503937
20
-0.1824285039370079
11
-0.4282929921259843
21
-0.1859031102362205
0
LINE
8
BLACK
6
CONTINUOUS
10
-0.4282929921259843
20
-0.1859031102362205
11
-0.4300915748031496
21
-0.1890183858267717
0
LINE
8
BLACK
6
CONTINUOUS
10
-0.4300915748031496
20
-0.1890183858267717
11
-0.4326351574803149
21
-0.191561968503937
0
LINE
8
BLACK
6
CONTINUOUS
10
-0.4326351574803149
20
-0.191561968503937
11
-0.4357504330708661
21
-0.1933605511811023
0
LINE
8
BLACK
6
CONTINUOUS
10
-0.4357504330708661
20
-0.1933605511811023
11
-0.4392250393700787
21
-0.1942915748031496
0
LINE
8
BLACK
6
CONTINUOUS
10
-0.4392250393700787
20
-0.1942915748031496
11
-0.4428222047244094
21
-0.1942915748031496
0
LINE
8
BLACK
6
CONTINUOUS
10
-0.4428222047244094
20
-0.1942915748031496
11
-0.4462968110236221
21
-0.1933605511811023
0
LINE
8
BLACK
6
CONTINUOUS
10
-0.4462968110236221
20
-0.1933605511811023
11
-0.4494120866141732
21
-0.191561968503937
0
LINE
8
BLACK
6
CONTINUOUS
10
-0.4494120866141732
20
-0.191561968503937
11
-0.4519556692913386
21
-0.1890183858267717
0
LINE
8
BLACK
6
CONTINUOUS
10
-0.4519556692913386
20
-0.1890183858267717
11
-0.4537542519685039
21
-0.1859031102362205
0
LINE
8
BLACK
6
CONTINUOUS
10
-0.4537542519685039
20
-0.1859031102362205
11
-0.4546852755905512
21
-0.1824285039370079
0
LINE
8
BLACK
6
CONTINUOUS
10
-0.4546852755905512
20
-0.1824285039370079
11
-0.4548031496062992
21
-0.1058267716535433
0
LINE
8
BLACK
6
CONTINUOUS
10
-0.4548031496062992
20
-0.1058267716535433
11
-0.4546852755905512
21
-0.1040281889763779
0
LINE
8
BLACK
6
CONTINUOUS
10
-0.4546852755905512
20
-0.1040281889763779
11
-0.4537542519685039
21
-0.1005535826771654
0
LINE
8
BLACK
6
CONTINUOUS
10
-0.4537542519685039
20
-0.1005535826771654
11
-0.4519556692913386
21
-0.0974383070866142
0
LINE
8
BLACK
6
CONTINUOUS
10
-0.4519556692913386
20
-0.0974383070866142
11
-0.4494120866141732
21
-0.0948947244094488
0
LINE
8
BLACK
6
CONTINUOUS
10
-0.4494120866141732
20
-0.0948947244094488
11
-0.4462968110236221
21
-0.0930961417322835
0
LINE
8
BLACK
6
CONTINUOUS
10
-0.4462968110236221
20
-0.0930961417322835
11
-0.4428222047244094
21
-0.0921651181102362
0
LINE
8
BLACK
6
CONTINUOUS
10
-0.4428222047244094
20
-0.0921651181102362
11
-0.4392250393700787
21
-0.0921651181102362
0
LINE
8
BLACK
6
CONTINUOUS
10
-0.4392250393700787
20
-0.0921651181102362
11
-0.4357504330708661
21
-0.0930961417322835
0
LINE
8
BLACK
6
CONTINUOUS
10
-0.3855535826771653
20
-0.0930961417322835
11
-0.3824383070866141
21
-0.0948947244094488
0
LINE
8
BLACK
6
CONTINUOUS
10
-0.3824383070866141
20
-0.0948947244094488
11
-0.3798947244094488
21
-0.0974383070866142
0
LINE
8
BLACK
6
CONTINUOUS
10
-0.3798947244094488
20
-0.0974383070866142
11
-0.3780961417322835
21
-0.1005535826771654
0
LINE
8
BLACK
6
CONTINUOUS
10
-0.3780961417322835
20
-0.1005535826771654
11
-0.3771651181102362
21
-0.1040281889763779
0
LINE
8
BLACK
6
CONTINUOUS
10
-0.3771651181102362
20
-0.1040281889763779
11
-0.3770472440944882
21
-0.1806299212598425
0
LINE
8
BLACK
6
CONTINUOUS
10
-0.3770472440944882
20
-0.1806299212598425
11
-0.3771651181102362
21
-0.1824285039370079
0
LINE
8
BLACK
6
CONTINUOUS
10
-0.3771651181102362
20
-0.1824285039370079
11
-0.3780961417322835
21
-0.1859031102362205
0
LINE
8
BLACK
6
CONTINUOUS
10
-0.3780961417322835
20
-0.1859031102362205
11
-0.3798947244094488
21
-0.1890183858267717
0
LINE
8
BLACK
6
CONTINUOUS
10
-0.3798947244094488
20
-0.1890183858267717
11
-0.3824383070866141
21
-0.191561968503937
0
LINE
8
BLACK
6
CONTINUOUS
10
-0.3824383070866141
20
-0.191561968503937
11
-0.3855535826771653
21
-0.1933605511811023
0
LINE
8
BLACK
6
CONTINUOUS
10
-0.3855535826771653
20
-0.1933605511811023
11
-0.3890281889763779
21
-0.1942915748031496
0
LINE
8
BLACK
6
CONTINUOUS
10
-0.3890281889763779
20
-0.1942915748031496
11
-0.3926253543307087
21
-0.1942915748031496
0
LINE
8
BLACK
6
CONTINUOUS
10
-0.3926253543307087
20
-0.1942915748031496
11
-0.3960999606299213
21
-0.1933605511811023
0
LINE
8
BLACK
6
CONTINUOUS
10
-0.3960999606299213
20
-0.1933605511811023
11
-0.3992152362204724
21
-0.191561968503937
0
LINE
8
BLACK
6
CONTINUOUS
10
-0.3992152362204724
20
-0.191561968503937
11
-0.4017588188976378
21
-0.1890183858267717
0
LINE
8
BLACK
6
CONTINUOUS
10
-0.4017588188976378
20
-0.1890183858267717
11
-0.4035574015748031
21
-0.1859031102362205
0
LINE
8
BLACK
6
CONTINUOUS
10
-0.4035574015748031
20
-0.1859031102362205
11
-0.4044884251968504
21
-0.1824285039370079
0
LINE
8
BLACK
6
CONTINUOUS
10
-0.4044884251968504
20
-0.1824285039370079
11
-0.4046062992125984
21
-0.1058267716535433
0
LINE
8
BLACK
6
CONTINUOUS
10
-0.4046062992125984
20
-0.1058267716535433
11
-0.4044884251968504
21
-0.1040281889763779
0
LINE
8
BLACK
6
CONTINUOUS
10
-0.4044884251968504
20
-0.1040281889763779
11
-0.4035574015748031
21
-0.1005535826771654
0
LINE
8
BLACK
6
CONTINUOUS
10
-0.4035574015748031
20
-0.1005535826771654
11
-0.4017588188976378
21
-0.0974383070866142
0
LINE
8
BLACK
6
CONTINUOUS
10
-0.4017588188976378
20
-0.0974383070866142
11
-0.3992152362204724
21
-0.0948947244094488
0
LINE
8
BLACK
6
CONTINUOUS
10
-0.3992152362204724
20
-0.0948947244094488
11
-0.3960999606299213
21
-0.0930961417322835
0
LINE
8
BLACK
6
CONTINUOUS
10
-0.3960999606299213
20
-0.0930961417322835
11
-0.3926253543307087
21
-0.0921651181102362
0
LINE
8
BLACK
6
CONTINUOUS
10
-0.3926253543307087
20
-0.0921651181102362
11
-0.3890281889763779
21
-0.0921651181102362
0
LINE
8
BLACK
6
CONTINUOUS
10
-0.3890281889763779
20
-0.0921651181102362
11
-0.3855535826771653
21
-0.0930961417322835
0
LINE
8
BLACK
6
CONTINUOUS
10
-0.3355535826771653
20
-0.0930961417322835
11
-0.3324383070866141
21
-0.0948947244094488
0
LINE
8
BLACK
6
CONTINUOUS
10
-0.3324383070866141
20
-0.0948947244094488
11
-0.3298947244094488
21
-0.0974383070866142
0
LINE
8
BLACK
6
CONTINUOUS
10
-0.3298947244094488
20
-0.0974383070866142
11
-0.3280961417322835
21
-0.1005535826771654
0
LINE
8
BLACK
6
CONTINUOUS
10
-0.3280961417322835
20
-0.1005535826771654
11
-0.3271651181102362
21
-0.1040281889763779
0
LINE
8
BLACK
6
CONTINUOUS
10
-0.3271651181102362
20
-0.1040281889763779
11
-0.3270472440944882
21
-0.1806299212598425
0
LINE
8
BLACK
6
CONTINUOUS
10
-0.3270472440944882
20
-0.1806299212598425
11
-0.3271651181102362
21
-0.1824285039370079
0
LINE
8
BLACK
6
CONTINUOUS
10
-0.3271651181102362
20
-0.1824285039370079
11
-0.3280961417322835
21
-0.1859031102362205
0
LINE
8
BLACK
6
CONTINUOUS
10
-0.3280961417322835
20
-0.1859031102362205
11
-0.3298947244094488
21
-0.1890183858267717
0
LINE
8
BLACK
6
CONTINUOUS
10
-0.3298947244094488
20
-0.1890183858267717
11
-0.3324383070866141
21
-0.191561968503937
0
LINE
8
BLACK
6
CONTINUOUS
10
-0.3324383070866141
20
-0.191561968503937
11
-0.3355535826771653
21
-0.1933605511811023
0
LINE
8
BLACK
6
CONTINUOUS
10
-0.3355535826771653
20
-0.1933605511811023
11
-0.3390281889763779
21
-0.1942915748031496
0
LINE
8
BLACK
6
CONTINUOUS
10
-0.3390281889763779
20
-0.1942915748031496
11
-0.3426253543307087
21
-0.1942915748031496
0
LINE
8
BLACK
6
CONTINUOUS
10
-0.3426253543307087
20
-0.1942915748031496
11
-0.3460999606299213
21
-0.1933605511811023
0
LINE
8
BLACK
6
CONTINUOUS
10
-0.3460999606299213
20
-0.1933605511811023
11
-0.3492152362204725
21
-0.191561968503937
0
LINE
8
BLACK
6
CONTINUOUS
10
-0.3492152362204725
20
-0.191561968503937
11
-0.3517588188976378
21
-0.1890183858267717
0
LINE
8
BLACK
6
CONTINUOUS
10
-0.3517588188976378
20
-0.1890183858267717
11
-0.3535574015748031
21
-0.1859031102362205
0
LINE
8
BLACK
6
CONTINUOUS
10
-0.3535574015748031
20
-0.1859031102362205
11
-0.3544884251968504
21
-0.1824285039370079
0
LINE
8
BLACK
6
CONTINUOUS
10
-0.3544884251968504
20
-0.1824285039370079
11
-0.3546062992125984
21
-0.1058267716535433
0
LINE
8
BLACK
6
CONTINUOUS
10
-0.3546062992125984
20
-0.1058267716535433
11
-0.3544884251968504
21
-0.1040281889763779
0
LINE
8
BLACK
6
CONTINUOUS
10
-0.3544884251968504
20
-0.1040281889763779
11
-0.3535574015748031
21
-0.1005535826771654
0
LINE
8
BLACK
6
CONTINUOUS
10
-0.3535574015748031
20
-0.1005535826771654
11
-0.3517588188976378
21
-0.0974383070866142
0
LINE
8
BLACK
6
CONTINUOUS
10
-0.3517588188976378
20
-0.0974383070866142
11
-0.3492152362204725
21
-0.0948947244094488
0
LINE
8
BLACK
6
CONTINUOUS
10
-0.3492152362204725
20
-0.0948947244094488
11
-0.3460999606299213
21
-0.0930961417322835
0
LINE
8
BLACK
6
CONTINUOUS
10
-0.3460999606299213
20
-0.0930961417322835
11
-0.3426253543307087
21
-0.0921651181102362
0
LINE
8
BLACK
6
CONTINUOUS
10
-0.3426253543307087
20
-0.0921651181102362
11
-0.3390281889763779
21
-0.0921651181102362
0
LINE
8
BLACK
6
CONTINUOUS
10
-0.3390281889763779
20
-0.0921651181102362
11
-0.3355535826771653
21
-0.0930961417322835
0
LINE
8
BLACK
6
CONTINUOUS
10
-0.2855535826771654
20
-0.0930961417322835
11
-0.2824383070866142
21
-0.0948947244094488
0
LINE
8
BLACK
6
CONTINUOUS
10
-0.2824383070866142
20
-0.0948947244094488
11
-0.2798947244094488
21
-0.0974383070866142
0
LINE
8
BLACK
6
CONTINUOUS
10
-0.2798947244094488
20
-0.0974383070866142
11
-0.2780961417322835
21
-0.1005535826771654
0
LINE
8
BLACK
6
CONTINUOUS
10
-0.2780961417322835
20
-0.1005535826771654
11
-0.2771651181102362
21
-0.1040281889763779
0
LINE
8
BLACK
6
CONTINUOUS
10
-0.2771651181102362
20
-0.1040281889763779
11
-0.2770472440944882
21
-0.1806299212598425
0
LINE
8
BLACK
6
CONTINUOUS
10
-0.2770472440944882
20
-0.1806299212598425
11
-0.2771651181102362
21
-0.1824285039370079
0
LINE
8
BLACK
6
CONTINUOUS
10
-0.2771651181102362
20
-0.1824285039370079
11
-0.2780961417322835
21
-0.1859031102362205
0
LINE
8
BLACK
6
CONTINUOUS
10
-0.2780961417322835
20
-0.1859031102362205
11
-0.2798947244094488
21
-0.1890183858267717
0
LINE
8
BLACK
6
CONTINUOUS
10
-0.2798947244094488
20
-0.1890183858267717
11
-0.2824383070866142
21
-0.191561968503937
0
LINE
8
BLACK
6
CONTINUOUS
10
-0.2824383070866142
20
-0.191561968503937
11
-0.2855535826771654
21
-0.1933605511811023
0
LINE
8
BLACK
6
CONTINUOUS
10
-0.2855535826771654
20
-0.1933605511811023
11
-0.2890281889763779
21
-0.1942915748031496
0
LINE
8
BLACK
6
CONTINUOUS
10
-0.2890281889763779
20
-0.1942915748031496
11
-0.2926253543307086
21
-0.1942915748031496
0
LINE
8
BLACK
6
CONTINUOUS
10
-0.2926253543307086
20
-0.1942915748031496
11
-0.2960999606299213
21
-0.1933605511811023
0
LINE
8
BLACK
6
CONTINUOUS
10
-0.2960999606299213
20
-0.1933605511811023
11
-0.2992152362204724
21
-0.191561968503937
0
LINE
8
BLACK
6
CONTINUOUS
10
-0.2992152362204724
20
-0.191561968503937
11
-0.3017588188976378
21
-0.1890183858267717
0
LINE
8
BLACK
6
CONTINUOUS
10
-0.3017588188976378
20
-0.1890183858267717
11
-0.3035574015748032
21
-0.1859031102362205
0
LINE
8
BLACK
6
CONTINUOUS
10
-0.3035574015748032
20
-0.1859031102362205
11
-0.3044884251968504
21
-0.1824285039370079
0
LINE
8
BLACK
6
CONTINUOUS
10
-0.3044884251968504
20
-0.1824285039370079
11
-0.3046062992125984
21
-0.1058267716535433
0
LINE
8
BLACK
6
CONTINUOUS
10
-0.3046062992125984
20
-0.1058267716535433
11
-0.3044884251968504
21
-0.1040281889763779
0
LINE
8
BLACK
6
CONTINUOUS
10
-0.3044884251968504
20
-0.1040281889763779
11
-0.3035574015748032
21
-0.1005535826771654
0
LINE
8
BLACK
6
CONTINUOUS
10
-0.3035574015748032
20
-0.1005535826771654
11
-0.3017588188976378
21
-0.0974383070866142
0
LINE
8
BLACK
6
CONTINUOUS
10
-0.3017588188976378
20
-0.0974383070866142
11
-0.2992152362204724
21
-0.0948947244094488
0
LINE
8
BLACK
6
CONTINUOUS
10
-0.2992152362204724
20
-0.0948947244094488
11
-0.2960999606299213
21
-0.0930961417322835
0
LINE
8
BLACK
6
CONTINUOUS
10
-0.2960999606299213
20
-0.0930961417322835
11
-0.2926253543307086
21
-0.0921651181102362
0
LINE
8
BLACK
6
CONTINUOUS
10
-0.2926253543307086
20
-0.0921651181102362
11
-0.2890281889763779
21
-0.0921651181102362
0
LINE
8
BLACK
6
CONTINUOUS
10
-0.2890281889763779
20
-0.0921651181102362
11
-0.2855535826771654
21
-0.0930961417322835
0
LINE
8
BLACK
6
CONTINUOUS
10
-0.6232518503937008
20
-0.1517843307086614
11
-0.6213359842519685
21
-0.1530644881889764
0
LINE
8
BLACK
6
CONTINUOUS
10
-0.6213359842519685
20
-0.1530644881889764
11
-0.6200558267716535
21
-0.1549803543307087
0
LINE
8
BLACK
6
CONTINUOUS
10
-0.6200558267716535
20
-0.1549803543307087
11
-0.6196062992125985
21
-0.1572403149606299
0
LINE
8
BLACK
6
CONTINUOUS
10
-0.6196062992125985
20
-0.1572403149606299
11
-0.6196062992125985
21
-0.1690513385826772
0
LINE
8
BLACK
6
CONTINUOUS
10
-0.6196062992125985
20
-0.1690513385826772
11
-0.6200558267716535
21
-0.1713112992125984
0
LINE
8
BLACK
6
CONTINUOUS
10
-0.6200558267716535
20
-0.1713112992125984
11
-0.6213359842519685
21
-0.1732271653543307
0
LINE
8
BLACK
6
CONTINUOUS
10
-0.6213359842519685
20
-0.1732271653543307
11
-0.6232518503937008
21
-0.1745073228346457
0
LINE
8
BLACK
6
CONTINUOUS
10
-0.6232518503937008
20
-0.1745073228346457
11
-0.6255118110236221
21
-0.1749568503937008
0
LINE
8
BLACK
6
CONTINUOUS
10
-0.6255118110236221
20
-0.1749568503937008
11
-0.6806299212598425
21
-0.1749568503937008
0
LINE
8
BLACK
6
CONTINUOUS
10
-0.6806299212598425
20
-0.1749568503937008
11
-0.6828898818897637
21
-0.1745073228346457
0
LINE
8
BLACK
6
CONTINUOUS
10
-0.6828898818897637
20
-0.1745073228346457
11
-0.6848057480314961
21
-0.1732271653543307
0
LINE
8
BLACK
6
CONTINUOUS
10
-0.6848057480314961
20
-0.1732271653543307
11
-0.686085905511811
21
-0.1713112992125984
0
LINE
8
BLACK
6
CONTINUOUS
10
-0.686085905511811
20
-0.1713112992125984
11
-0.6865354330708662
21
-0.1690513385826772
0
LINE
8
BLACK
6
CONTINUOUS
10
-0.6865354330708662
20
-0.1690513385826772
11
-0.6865354330708662
21
-0.1572403149606299
0
LINE
8
BLACK
6
CONTINUOUS
10
-0.6865354330708662
20
-0.1572403149606299
11
-0.686085905511811
21
-0.1549803543307087
0
LINE
8
BLACK
6
CONTINUOUS
10
-0.686085905511811
20
-0.1549803543307087
11
-0.6848057480314961
21
-0.1530644881889764
0
LINE
8
BLACK
6
CONTINUOUS
10
-0.6848057480314961
20
-0.1530644881889764
11
-0.6828898818897637
21
-0.1517843307086614
0
LINE
8
BLACK
6
CONTINUOUS
10
-0.6828898818897637
20
-0.1517843307086614
11
-0.6806299212598425
21
-0.1513348031496063
0
LINE
8
BLACK
6
CONTINUOUS
10
-0.6806299212598425
20
-0.1513348031496063
11
-0.6255118110236221
21
-0.1513348031496063
0
LINE
8
BLACK
6
CONTINUOUS
10
-0.6255118110236221
20
-0.1513348031496063
11
-0.6232518503937008
21
-0.1517843307086614
0
LINE
8
BLACK
6
CONTINUOUS
10
-0.6232518503937008
20
-0.1025717322834646
11
-0.6213359842519685
21
-0.1038518897637795
0
LINE
8
BLACK
6
CONTINUOUS
10
-0.6213359842519685
20
-0.1038518897637795
11
-0.6200558267716535
21
-0.1057677559055118
0
LINE
8
BLACK
6
CONTINUOUS
10
-0.6200558267716535
20
-0.1057677559055118
11
-0.6196062992125985
21
-0.1080277165354331
0
LINE
8
BLACK
6
CONTINUOUS
10
-0.6196062992125985
20
-0.1080277165354331
11
-0.6196062992125985
21
-0.1198387401574803
0
LINE
8
BLACK
6
CONTINUOUS
10
-0.6196062992125985
20
-0.1198387401574803
11
-0.6200558267716535
21
-0.1220987007874016
0
LINE
8
BLACK
6
CONTINUOUS
10
-0.6200558267716535
20
-0.1220987007874016
11
-0.6213359842519685
21
-0.1240145669291339
0
LINE
8
BLACK
6
CONTINUOUS
10
-0.6213359842519685
20
-0.1240145669291339
11
-0.6232518503937008
21
-0.1252947244094488
0
LINE
8
BLACK
6
CONTINUOUS
10
-0.6232518503937008
20
-0.1252947244094488
11
-0.6255118110236221
21
-0.1257442519685039
0
LINE
8
BLACK
6
CONTINUOUS
10
-0.6255118110236221
20
-0.1257442519685039
11
-0.6806299212598425
21
-0.1257442519685039
0
LINE
8
BLACK
6
CONTINUOUS
10
-0.6806299212598425
20
-0.1257442519685039
11
-0.6828898818897637
21
-0.1252947244094488
0
LINE
8
BLACK
6
CONTINUOUS
10
-0.6828898818897637
20
-0.1252947244094488
11
-0.6848057480314961
21
-0.1240145669291339
0
LINE
8
BLACK
6
CONTINUOUS
10
-0.6848057480314961
20
-0.1240145669291339
11
-0.686085905511811
21
-0.1220987007874016
0
LINE
8
BLACK
6
CONTINUOUS
10
-0.686085905511811
20
-0.1220987007874016
11
-0.6865354330708662
21
-0.1198387401574803
0
LINE
8
BLACK
6
CONTINUOUS
10
-0.6865354330708662
20
-0.1198387401574803
11
-0.6865354330708662
21
-0.1080277165354331
0
LINE
8
BLACK
6
CONTINUOUS
10
-0.6865354330708662
20
-0.1080277165354331
11
-0.686085905511811
21
-0.1057677559055118
0
LINE
8
BLACK
6
CONTINUOUS
10
-0.686085905511811
20
-0.1057677559055118
11
-0.6848057480314961
21
-0.1038518897637795
0
LINE
8
BLACK
6
CONTINUOUS
10
-0.6848057480314961
20
-0.1038518897637795
11
-0.6828898818897637
21
-0.1025717322834646
0
LINE
8
BLACK
6
CONTINUOUS
10
-0.6828898818897637
20
-0.1025717322834646
11
-0.6806299212598425
21
-0.1021222047244094
0
LINE
8
BLACK
6
CONTINUOUS
10
-0.6806299212598425
20
-0.1021222047244094
11
-0.6255118110236221
21
-0.1021222047244094
0
LINE
8
BLACK
6
CONTINUOUS
10
-0.6255118110236221
20
-0.1021222047244094
11
-0.6232518503937008
21
-0.1025717322834646
0
LINE
8
BLACK
6
CONTINUOUS
10
-0.7319814566929134
20
-0.0221627559055118
11
-0.7287883070866141
21
-0.0242963385826772
0
LINE
8
BLACK
6
CONTINUOUS
10
-0.7287883070866141
20
-0.0242963385826772
11
-0.7266547244094488
21
-0.0274894881889764
0
LINE
8
BLACK
6
CONTINUOUS
10
-0.7266547244094488
20
-0.0274894881889764
11
-0.7259055118110236
21
-0.031256062992126
0
LINE
8
BLACK
6
CONTINUOUS
10
-0.7259055118110236
20
-0.031256062992126
11
-0.7259055118110236
21
-0.0509411023622047
0
LINE
8
BLACK
6
CONTINUOUS
10
-0.7259055118110236
20
-0.0509411023622047
11
-0.7266547244094488
21
-0.0547076771653543
0
LINE
8
BLACK
6
CONTINUOUS
10
-0.7266547244094488
20
-0.0547076771653543
11
-0.7287883070866141
21
-0.0579008267716535
0
LINE
8
BLACK
6
CONTINUOUS
10
-0.7287883070866141
20
-0.0579008267716535
11
-0.7319814566929134
21
-0.0600344094488189
0
LINE
8
BLACK
6
CONTINUOUS
10
-0.7319814566929134
20
-0.0600344094488189
11
-0.7357480314960629
21
-0.0607836220472441
0
LINE
8
BLACK
6
CONTINUOUS
10
-0.7357480314960629
20
-0.0607836220472441
11
-0.8223622047244095
21
-0.0607836220472441
0
LINE
8
BLACK
6
CONTINUOUS
10
-0.8223622047244095
20
-0.0607836220472441
11
-0.826128779527559
21
-0.0600344094488189
0
LINE
8
BLACK
6
CONTINUOUS
10
-0.826128779527559
20
-0.0600344094488189
11
-0.8293219291338583
21
-0.0579008267716535
0
LINE
8
BLACK
6
CONTINUOUS
10
-0.8293219291338583
20
-0.0579008267716535
11
-0.8314555118110236
21
-0.0547076771653543
0
LINE
8
BLACK
6
CONTINUOUS
10
-0.8314555118110236
20
-0.0547076771653543
11
-0.8322047244094488
21
-0.0509411023622047
0
LINE
8
BLACK
6
CONTINUOUS
10
-0.8322047244094488
20
-0.0509411023622047
11
-0.8322047244094488
21
-0.031256062992126
0
LINE
8
BLACK
6
CONTINUOUS
10
-0.8322047244094488
20
-0.031256062992126
11
-0.8314555118110236
21
-0.0274894881889764
0
LINE
8
BLACK
6
CONTINUOUS
10
-0.8314555118110236
20
-0.0274894881889764
11
-0.8293219291338583
21
-0.0242963385826772
0
LINE
8
BLACK
6
CONTINUOUS
10
-0.8293219291338583
20
-0.0242963385826772
11
-0.826128779527559
21
-0.0221627559055118
0
LINE
8
BLACK
6
CONTINUOUS
10
-0.826128779527559
20
-0.0221627559055118
11
-0.8223622047244095
21
-0.0214135433070866
0
LINE
8
BLACK
6
CONTINUOUS
10
-0.8223622047244095
20
-0.0214135433070866
11
-0.7357480314960629
21
-0.0214135433070866
0
LINE
8
BLACK
6
CONTINUOUS
10
-0.7357480314960629
20
-0.0214135433070866
11
-0.7319814566929134
21
-0.0221627559055118
0
LINE
8
BLACK
6
CONTINUOUS
10
-0.6057480314960629
20
-0.0537795275590551
11
-0.6293700787401575
21
-0.0537795275590551
0
LINE
8
BLACK
6
CONTINUOUS
10
-0.6293700787401575
20
-0.0537795275590551
11
-0.6293700787401575
21
-0.0262204724409449
0
LINE
8
BLACK
6
CONTINUOUS
10
-0.6293700787401575
20
-0.0262204724409449
11
-0.6057480314960629
21
-0.0262204724409449
0
LINE
8
BLACK
6
CONTINUOUS
10
-0.6057480314960629
20
-0.0262204724409449
11
-0.6057480314960629
21
-0.0537795275590551
0
LINE
8
BLACK
6
CONTINUOUS
10
-0.5506299212598426
20
-0.0537795275590551
11
-0.574251968503937
21
-0.0537795275590551
0
LINE
8
BLACK
6
CONTINUOUS
10
-0.574251968503937
20
-0.0537795275590551
11
-0.574251968503937
21
-0.0262204724409449
0
LINE
8
BLACK
6
CONTINUOUS
10
-0.574251968503937
20
-0.0262204724409449
11
-0.5506299212598426
21
-0.0262204724409449
0
LINE
8
BLACK
6
CONTINUOUS
10
-0.5506299212598426
20
-0.0262204724409449
11
-0.5506299212598426
21
-0.0537795275590551
0
LINE
8
BLACK
6
CONTINUOUS
10
-0.7319814566929134
20
0.0614986614173228
11
-0.7287883070866141
21
0.0593650787401575
0
LINE
8
BLACK
6
CONTINUOUS
10
-0.7287883070866141
20
0.0593650787401575
11
-0.7266547244094488
21
0.0561719291338583
0
LINE
8
BLACK
6
CONTINUOUS
10
-0.7266547244094488
20
0.0561719291338583
11
-0.7259055118110236
21
0.0524053543307087
0
LINE
8
BLACK
6
CONTINUOUS
10
-0.7259055118110236
20
0.0524053543307087
11
-0.7259055118110236
21
0.0327203149606299
0
LINE
8
BLACK
6
CONTINUOUS
10
-0.7259055118110236
20
0.0327203149606299
11
-0.7266547244094488
21
0.0289537401574803
0
LINE
8
BLACK
6
CONTINUOUS
10
-0.7266547244094488
20
0.0289537401574803
11
-0.7287883070866141
21
0.0257605905511811
0
LINE
8
BLACK
6
CONTINUOUS
10
-0.7287883070866141
20
0.0257605905511811
11
-0.7319814566929134
21
0.0236270078740157
0
LINE
8
BLACK
6
CONTINUOUS
10
-0.7319814566929134
20
0.0236270078740157
11
-0.7357480314960629
21
0.0228777952755905
0
LINE
8
BLACK
6
CONTINUOUS
10
-0.7357480314960629
20
0.0228777952755905
11
-0.8223622047244095
21
0.0228777952755905
0
LINE
8
BLACK
6
CONTINUOUS
10
-0.8223622047244095
20
0.0228777952755905
11
-0.826128779527559
21
0.0236270078740157
0
LINE
8
BLACK
6
CONTINUOUS
10
-0.826128779527559
20
0.0236270078740157
11
-0.8293219291338583
21
0.0257605905511811
0
LINE
8
BLACK
6
CONTINUOUS
10
-0.8293219291338583
20
0.0257605905511811
11
-0.8314555118110236
21
0.0289537401574803
0
LINE
8
BLACK
6
CONTINUOUS
10
-0.8314555118110236
20
0.0289537401574803
11
-0.8322047244094488
21
0.0327203149606299
0
LINE
8
BLACK
6
CONTINUOUS
10
-0.8322047244094488
20
0.0327203149606299
11
-0.8322047244094488
21
0.0524053543307087
0
LINE
8
BLACK
6
CONTINUOUS
10
-0.8322047244094488
20
0.0524053543307087
11
-0.8314555118110236
21
0.0561719291338583
0
LINE
8
BLACK
6
CONTINUOUS
10
-0.8314555118110236
20
0.0561719291338583
11
-0.8293219291338583
21
0.0593650787401575
0
LINE
8
BLACK
6
CONTINUOUS
10
-0.8293219291338583
20
0.0593650787401575
11
-0.826128779527559
21
0.0614986614173228
0
LINE
8
BLACK
6
CONTINUOUS
10
-0.826128779527559
20
0.0614986614173228
11
-0.8223622047244095
21
0.062247874015748
0
LINE
8
BLACK
6
CONTINUOUS
10
-0.8223622047244095
20
0.062247874015748
11
-0.7357480314960629
21
0.062247874015748
0
LINE
8
BLACK
6
CONTINUOUS
10
-0.7357480314960629
20
0.062247874015748
11
-0.7319814566929134
21
0.0614986614173228
0
LINE
8
BLACK
6
CONTINUOUS
10
-0.608263622047244
20
0.0680264960629921
11
-0.6053898031496063
21
0.0661062598425197
0
LINE
8
BLACK
6
CONTINUOUS
10
-0.6053898031496063
20
0.0661062598425197
11
-0.6034695669291339
21
0.0632324409448819
0
LINE
8
BLACK
6
CONTINUOUS
10
-0.6034695669291339
20
0.0632324409448819
11
-0.6027952755905511
21
0.0598425196850394
0
LINE
8
BLACK
6
CONTINUOUS
10
-0.6027952755905511
20
0.0598425196850394
11
-0.6027952755905511
21
0.0401574803149606
0
LINE
8
BLACK
6
CONTINUOUS
10
-0.6027952755905511
20
0.0401574803149606
11
-0.6034695669291339
21
0.0367675590551181
0
LINE
8
BLACK
6
CONTINUOUS
10
-0.6034695669291339
20
0.0367675590551181
11
-0.6053898031496063
21
0.0338937401574803
0
LINE
8
BLACK
6
CONTINUOUS
10
-0.6053898031496063
20
0.0338937401574803
11
-0.608263622047244
21
0.0319735039370079
0
LINE
8
BLACK
6
CONTINUOUS
10
-0.608263622047244
20
0.0319735039370079
11
-0.6116535433070867
21
0.0312992125984252
0
LINE
8
BLACK
6
CONTINUOUS
10
-0.6116535433070867
20
0.0312992125984252
11
-0.6293700787401575
21
0.0312992125984252
0
LINE
8
BLACK
6
CONTINUOUS
10
-0.6293700787401575
20
0.0312992125984252
11
-0.63276
21
0.0319735039370079
0
LINE
8
BLACK
6
CONTINUOUS
10
-0.63276
20
0.0319735039370079
11
-0.6356338188976378
21
0.0338937401574803
0
LINE
8
BLACK
6
CONTINUOUS
10
-0.6356338188976378
20
0.0338937401574803
11
-0.6375540551181103
21
0.0367675590551181
0
LINE
8
BLACK
6
CONTINUOUS
10
-0.6375540551181103
20
0.0367675590551181
11
-0.6382283464566929
21
0.0401574803149606
0
LINE
8
BLACK
6
CONTINUOUS
10
-0.6382283464566929
20
0.0401574803149606
11
-0.6382283464566929
21
0.0598425196850394
0
LINE
8
BLACK
6
CONTINUOUS
10
-0.6382283464566929
20
0.0598425196850394
11
-0.6375540551181103
21
0.0632324409448819
0
LINE
8
BLACK
6
CONTINUOUS
10
-0.6375540551181103
20
0.0632324409448819
11
-0.6356338188976378
21
0.0661062598425197
0
LINE
8
BLACK
6
CONTINUOUS
10
-0.6356338188976378
20
0.0661062598425197
11
-0.63276
21
0.0680264960629921
0
LINE
8
BLACK
6
CONTINUOUS
10
-0.63276
20
0.0680264960629921
11
-0.6293700787401575
21
0.0687007874015748
0
LINE
8
BLACK
6
CONTINUOUS
10
-0.6293700787401575
20
0.0687007874015748
11
-0.6116535433070867
21
0.0687007874015748
0
LINE
8
BLACK
6
CONTINUOUS
10
-0.6116535433070867
20
0.0687007874015748
11
-0.608263622047244
21
0.0680264960629921
0
LINE
8
BLACK
6
CONTINUOUS
10
-0.5472399999999999
20
0.0680264960629921
11
-0.5443661811023622
21
0.0661062598425197
0
LINE
8
BLACK
6
CONTINUOUS
10
-0.5443661811023622
20
0.0661062598425197
11
-0.5424459448818898
21
0.0632324409448819
0
LINE
8
BLACK
6
CONTINUOUS
10
-0.5424459448818898
20
0.0632324409448819
11
-0.541771653543307
21
0.0598425196850394
0
LINE
8
BLACK
6
CONTINUOUS
10
-0.541771653543307
20
0.0598425196850394
11
-0.541771653543307
21
0.0401574803149606
0
LINE
8
BLACK
6
CONTINUOUS
10
-0.541771653543307
20
0.0401574803149606
11
-0.5424459448818898
21
0.0367675590551181
0
LINE
8
BLACK
6
CONTINUOUS
10
-0.5424459448818898
20
0.0367675590551181
11
-0.5443661811023622
21
0.0338937401574803
0
LINE
8
BLACK
6
CONTINUOUS
10
-0.5443661811023622
20
0.0338937401574803
11
-0.5472399999999999
21
0.0319735039370079
0
LINE
8
BLACK
6
CONTINUOUS
10
-0.5472399999999999
20
0.0319735039370079
11
-0.5506299212598426
21
0.0312992125984252
0
LINE
8
BLACK
6
CONTINUOUS
10
-0.5506299212598426
20
0.0312992125984252
11
-0.5683464566929134
21
0.0312992125984252
0
LINE
8
BLACK
6
CONTINUOUS
10
-0.5683464566929134
20
0.0312992125984252
11
-0.5717363779527559
21
0.0319735039370079
0
LINE
8
BLACK
6
CONTINUOUS
10
-0.5717363779527559
20
0.0319735039370079
11
-0.5746101968503937
21
0.0338937401574803
0
LINE
8
BLACK
6
CONTINUOUS
10
-0.5746101968503937
20
0.0338937401574803
11
-0.5765304330708662
21
0.0367675590551181
0
LINE
8
BLACK
6
CONTINUOUS
10
-0.5765304330708662
20
0.0367675590551181
11
-0.5772047244094488
21
0.0401574803149606
0
LINE
8
BLACK
6
CONTINUOUS
10
-0.5772047244094488
20
0.0401574803149606
11
-0.5772047244094488
21
0.0598425196850394
0
LINE
8
BLACK
6
CONTINUOUS
10
-0.5772047244094488
20
0.0598425196850394
11
-0.5765304330708662
21
0.0632324409448819
0
LINE
8
BLACK
6
CONTINUOUS
10
-0.5765304330708662
20
0.0632324409448819
11
-0.5746101968503937
21
0.0661062598425197
0
LINE
8
BLACK
6
CONTINUOUS
10
-0.5746101968503937
20
0.0661062598425197
11
-0.5717363779527559
21
0.0680264960629921
0
LINE
8
BLACK
6
CONTINUOUS
10
-0.5717363779527559
20
0.0680264960629921
11
-0.5683464566929134
21
0.0687007874015748
0
LINE
8
BLACK
6
CONTINUOUS
10
-0.5683464566929134
20
0.0687007874015748
11
-0.5506299212598426
21
0.0687007874015748
0
LINE
8
BLACK
6
CONTINUOUS
10
-0.5506299212598426
20
0.0687007874015748
11
-0.5472399999999999
21
0.0680264960629921
0
LINE
8
BLACK
6
CONTINUOUS
10
-0.1577675590551181
20
0.1194161023622047
11
-0.1548937401574803
21
0.1174958661417323
0
LINE
8
BLACK
6
CONTINUOUS
10
-0.1548937401574803
20
0.1174958661417323
11
-0.1529735039370079
21
0.1146220472440945
0
LINE
8
BLACK
6
CONTINUOUS
10
-0.1529735039370079
20
0.1146220472440945
11
-0.1522992125984252
21
0.111232125984252
0
LINE
8
BLACK
6
CONTINUOUS
10
-0.1522992125984252
20
0.111232125984252
11
-0.1522992125984252
21
0.0935155905511811
0
LINE
8
BLACK
6
CONTINUOUS
10
-0.1522992125984252
20
0.0935155905511811
11
-0.1529735039370079
21
0.0901256692913386
0
LINE
8
BLACK
6
CONTINUOUS
10
-0.1529735039370079
20
0.0901256692913386
11
-0.1548937401574803
21
0.0872518503937008
0
LINE
8
BLACK
6
CONTINUOUS
10
-0.1548937401574803
20
0.0872518503937008
11
-0.1577675590551181
21
0.0853316141732283
0
LINE
8
BLACK
6
CONTINUOUS
10
-0.1577675590551181
20
0.0853316141732283
11
-0.1611574803149606
21
0.0846573228346457
0
LINE
8
BLACK
6
CONTINUOUS
10
-0.1611574803149606
20
0.0846573228346457
11
-0.1808425196850394
21
0.0846573228346457
0
LINE
8
BLACK
6
CONTINUOUS
10
-0.1808425196850394
20
0.0846573228346457
11
-0.1842324409448819
21
0.0853316141732283
0
LINE
8
BLACK
6
CONTINUOUS
10
-0.1842324409448819
20
0.0853316141732283
11
-0.1871062598425197
21
0.0872518503937008
0
LINE
8
BLACK
6
CONTINUOUS
10
-0.1871062598425197
20
0.0872518503937008
11
-0.1890264960629921
21
0.0901256692913386
0
LINE
8
BLACK
6
CONTINUOUS
10
-0.1890264960629921
20
0.0901256692913386
11
-0.1897007874015748
21
0.0935155905511811
0
LINE
8
BLACK
6
CONTINUOUS
10
-0.1897007874015748
20
0.0935155905511811
11
-0.1897007874015748
21
0.111232125984252
0
LINE
8
BLACK
6
CONTINUOUS
10
-0.1897007874015748
20
0.111232125984252
11
-0.1890264960629921
21
0.1146220472440945
0
LINE
8
BLACK
6
CONTINUOUS
10
-0.1890264960629921
20
0.1146220472440945
11
-0.1871062598425197
21
0.1174958661417323
0
LINE
8
BLACK
6
CONTINUOUS
10
-0.1871062598425197
20
0.1174958661417323
11
-0.1842324409448819
21
0.1194161023622047
0
LINE
8
BLACK
6
CONTINUOUS
10
-0.1842324409448819
20
0.1194161023622047
11
-0.1808425196850394
21
0.1200903937007874
0
LINE
8
BLACK
6
CONTINUOUS
10
-0.1808425196850394
20
0.1200903937007874
11
-0.1611574803149606
21
0.1200903937007874
0
LINE
8
BLACK
6
CONTINUOUS
10
-0.1611574803149606
20
0.1200903937007874
11
-0.1577675590551181
21
0.1194161023622047
0
LINE
8
BLACK
6
CONTINUOUS
10
-0.6232518503937008
20
0.1267589763779527
11
-0.6213359842519685
21
0.1254788188976378
0
LINE
8
BLACK
6
CONTINUOUS
10
-0.6213359842519685
20
0.1254788188976378
11
-0.6200558267716535
21
0.1235629527559055
0
LINE
8
BLACK
6
CONTINUOUS
10
-0.6200558267716535
20
0.1235629527559055
11
-0.6196062992125985
21
0.1213029921259842
0
LINE
8
BLACK
6
CONTINUOUS
10
-0.6196062992125985
20
0.1213029921259842
11
-0.6196062992125985
21
0.109491968503937
0
LINE
8
BLACK
6
CONTINUOUS
10
-0.6196062992125985
20
0.109491968503937
11
-0.6200558267716535
21
0.1072320078740157
0
LINE
8
BLACK
6
CONTINUOUS
10
-0.6200558267716535
20
0.1072320078740157
11
-0.6213359842519685
21
0.1053161417322835
0
LINE
8
BLACK
6
CONTINUOUS
10
-0.6213359842519685
20
0.1053161417322835
11
-0.6232518503937008
21
0.1040359842519685
0
LINE
8
BLACK
6
CONTINUOUS
10
-0.6232518503937008
20
0.1040359842519685
11
-0.6255118110236221
21
0.1035864566929134
0
LINE
8
BLACK
6
CONTINUOUS
10
-0.6255118110236221
20
0.1035864566929134
11
-0.6806299212598425
21
0.1035864566929134
0
LINE
8
BLACK
6
CONTINUOUS
10
-0.6806299212598425
20
0.1035864566929134
11
-0.6828898818897637
21
0.1040359842519685
0
LINE
8
BLACK
6
CONTINUOUS
10
-0.6828898818897637
20
0.1040359842519685
11
-0.6848057480314961
21
0.1053161417322835
0
LINE
8
BLACK
6
CONTINUOUS
10
-0.6848057480314961
20
0.1053161417322835
11
-0.686085905511811
21
0.1072320078740157
0
LINE
8
BLACK
6
CONTINUOUS
10
-0.686085905511811
20
0.1072320078740157
11
-0.6865354330708662
21
0.109491968503937
0
LINE
8
BLACK
6
CONTINUOUS
10
-0.6865354330708662
20
0.109491968503937
11
-0.6865354330708662
21
0.1213029921259842
0
LINE
8
BLACK
6
CONTINUOUS
10
-0.6865354330708662
20
0.1213029921259842
11
-0.686085905511811
21
0.1235629527559055
0
LINE
8
BLACK
6
CONTINUOUS
10
-0.686085905511811
20
0.1235629527559055
11
-0.6848057480314961
21
0.1254788188976378
0
LINE
8
BLACK
6
CONTINUOUS
10
-0.6848057480314961
20
0.1254788188976378
11
-0.6828898818897637
21
0.1267589763779527
0
LINE
8
BLACK
6
CONTINUOUS
10
-0.6828898818897637
20
0.1267589763779527
11
-0.6806299212598425
21
0.1272085039370079
0
LINE
8
BLACK
6
CONTINUOUS
10
-0.6806299212598425
20
0.1272085039370079
11
-0.6255118110236221
21
0.1272085039370079
0
LINE
8
BLACK
6
CONTINUOUS
10
-0.6255118110236221
20
0.1272085039370079
11
-0.6232518503937008
21
0.1267589763779527
0
LINE
8
BLACK
6
CONTINUOUS
10
-0.1577675590551181
20
0.1804397244094488
11
-0.1548937401574803
21
0.1785194881889764
0
LINE
8
BLACK
6
CONTINUOUS
10
-0.1548937401574803
20
0.1785194881889764
11
-0.1529735039370079
21
0.1756456692913386
0
LINE
8
BLACK
6
CONTINUOUS
10
-0.1529735039370079
20
0.1756456692913386
11
-0.1522992125984252
21
0.1722557480314961
0
LINE
8
BLACK
6
CONTINUOUS
10
-0.1522992125984252
20
0.1722557480314961
11
-0.1522992125984252
21
0.1545392125984252
0
LINE
8
BLACK
6
CONTINUOUS
10
-0.1522992125984252
20
0.1545392125984252
11
-0.1529735039370079
21
0.1511492913385827
0
LINE
8
BLACK
6
CONTINUOUS
10
-0.1529735039370079
20
0.1511492913385827
11
-0.1548937401574803
21
0.1482754724409449
0
LINE
8
BLACK
6
CONTINUOUS
10
-0.1548937401574803
20
0.1482754724409449
11
-0.1577675590551181
21
0.1463552362204724
0
LINE
8
BLACK
6
CONTINUOUS
10
-0.1577675590551181
20
0.1463552362204724
11
-0.1611574803149606
21
0.1456809448818898
0
LINE
8
BLACK
6
CONTINUOUS
10
-0.1611574803149606
20
0.1456809448818898
11
-0.1808425196850394
21
0.1456809448818898
0
LINE
8
BLACK
6
CONTINUOUS
10
-0.1808425196850394
20
0.1456809448818898
11
-0.1842324409448819
21
0.1463552362204724
0
LINE
8
BLACK
6
CONTINUOUS
10
-0.1842324409448819
20
0.1463552362204724
11
-0.1871062598425197
21
0.1482754724409449
0
LINE
8
BLACK
6
CONTINUOUS
10
-0.1871062598425197
20
0.1482754724409449
11
-0.1890264960629921
21
0.1511492913385827
0
LINE
8
BLACK
6
CONTINUOUS
10
-0.1890264960629921
20
0.1511492913385827
11
-0.1897007874015748
21
0.1545392125984252
0
LINE
8
BLACK
6
CONTINUOUS
10
-0.1897007874015748
20
0.1545392125984252
11
-0.1897007874015748
21
0.1722557480314961
0
LINE
8
BLACK
6
CONTINUOUS
10
-0.1897007874015748
20
0.1722557480314961
11
-0.1890264960629921
21
0.1756456692913386
0
LINE
8
BLACK
6
CONTINUOUS
10
-0.1890264960629921
20
0.1756456692913386
11
-0.1871062598425197
21
0.1785194881889764
0
LINE
8
BLACK
6
CONTINUOUS
10
-0.1871062598425197
20
0.1785194881889764
11
-0.1842324409448819
21
0.1804397244094488
0
LINE
8
BLACK
6
CONTINUOUS
10
-0.1842324409448819
20
0.1804397244094488
11
-0.1808425196850394
21
0.1811140157480315
0
LINE
8
BLACK
6
CONTINUOUS
10
-0.1808425196850394
20
0.1811140157480315
11
-0.1611574803149606
21
0.1811140157480315
0
LINE
8
BLACK
6
CONTINUOUS
10
-0.1611574803149606
20
0.1811140157480315
11
-0.1577675590551181
21
0.1804397244094488
0
LINE
8
BLACK
6
CONTINUOUS
10
-0.4355535826771653
20
0.2533605511811023
11
-0.4324383070866142
21
0.251561968503937
0
LINE
8
BLACK
6
CONTINUOUS
10
-0.4324383070866142
20
0.251561968503937
11
-0.4298947244094488
21
0.2490183858267717
0
LINE
8
BLACK
6
CONTINUOUS
10
-0.4298947244094488
20
0.2490183858267717
11
-0.4280961417322834
21
0.2459031102362205
0
LINE
8
BLACK
6
CONTINUOUS
10
-0.4280961417322834
20
0.2459031102362205
11
-0.4271651181102362
21
0.2424285039370079
0
LINE
8
BLACK
6
CONTINUOUS
10
-0.4271651181102362
20
0.2424285039370079
11
-0.4270472440944882
21
0.1658267716535433
0
LINE
8
BLACK
6
CONTINUOUS
10
-0.4270472440944882
20
0.1658267716535433
11
-0.4271651181102362
21
0.1640281889763779
0
LINE
8
BLACK
6
CONTINUOUS
10
-0.4271651181102362
20
0.1640281889763779
11
-0.4280961417322834
21
0.1605535826771654
0
LINE
8
BLACK
6
CONTINUOUS
10
-0.4280961417322834
20
0.1605535826771654
11
-0.4298947244094488
21
0.1574383070866142
0
LINE
8
BLACK
6
CONTINUOUS
10
-0.4298947244094488
20
0.1574383070866142
11
-0.4324383070866142
21
0.1548947244094488
0
LINE
8
BLACK
6
CONTINUOUS
10
-0.4324383070866142
20
0.1548947244094488
11
-0.4355535826771653
21
0.1530961417322834
0
LINE
8
BLACK
6
CONTINUOUS
10
-0.4355535826771653
20
0.1530961417322834
11
-0.439028188976378
21
0.1521651181102362
0
LINE
8
BLACK
6
CONTINUOUS
10
-0.439028188976378
20
0.1521651181102362
11
-0.4426253543307087
21
0.1521651181102362
0
LINE
8
BLACK
6
CONTINUOUS
10
-0.4426253543307087
20
0.1521651181102362
11
-0.4460999606299212
21
0.1530961417322834
0
LINE
8
BLACK
6
CONTINUOUS
10
-0.4460999606299212
20
0.1530961417322834
11
-0.4492152362204724
21
0.1548947244094488
0
LINE
8
BLACK
6
CONTINUOUS
10
-0.4492152362204724
20
0.1548947244094488
11
-0.4517588188976378
21
0.1574383070866142
0
LINE
8
BLACK
6
CONTINUOUS
10
-0.4517588188976378
20
0.1574383070866142
11
-0.4535574015748031
21
0.1605535826771654
0
LINE
8
BLACK
6
CONTINUOUS
10
-0.4535574015748031
20
0.1605535826771654
11
-0.4544884251968504
21
0.1640281889763779
0
LINE
8
BLACK
6
CONTINUOUS
10
-0.4544884251968504
20
0.1640281889763779
11
-0.4546062992125984
21
0.2406299212598425
0
LINE
8
BLACK
6
CONTINUOUS
10
-0.4546062992125984
20
0.2406299212598425
11
-0.4544884251968504
21
0.2424285039370079
0
LINE
8
BLACK
6
CONTINUOUS
10
-0.4544884251968504
20
0.2424285039370079
11
-0.4535574015748031
21
0.2459031102362205
0
LINE
8
BLACK
6
CONTINUOUS
10
-0.4535574015748031
20
0.2459031102362205
11
-0.4517588188976378
21
0.2490183858267717
0
LINE
8
BLACK
6
CONTINUOUS
10
-0.4517588188976378
20
0.2490183858267717
11
-0.4492152362204724
21
0.251561968503937
0
LINE
8
BLACK
6
CONTINUOUS
10
-0.4492152362204724
20
0.251561968503937
11
-0.4460999606299212
21
0.2533605511811023
0
LINE
8
BLACK
6
CONTINUOUS
10
-0.4460999606299212
20
0.2533605511811023
11
-0.4426253543307087
21
0.2542915748031496
0
LINE
8
BLACK
6
CONTINUOUS
10
-0.4426253543307087
20
0.2542915748031496
11
-0.439028188976378
21
0.2542915748031496
0
LINE
8
BLACK
6
CONTINUOUS
10
-0.439028188976378
20
0.2542915748031496
11
-0.4355535826771653
21
0.2533605511811023
0
LINE
8
BLACK
6
CONTINUOUS
10
-0.3855535826771653
20
0.2533605511811023
11
-0.3824383070866141
21
0.251561968503937
0
LINE
8
BLACK
6
CONTINUOUS
10
-0.3824383070866141
20
0.251561968503937
11
-0.3798947244094488
21
0.2490183858267717
0
LINE
8
BLACK
6
CONTINUOUS
10
-0.3798947244094488
20
0.2490183858267717
11
-0.3780961417322835
21
0.2459031102362205
0
LINE
8
BLACK
6
CONTINUOUS
10
-0.3780961417322835
20
0.2459031102362205
11
-0.3771651181102362
21
0.2424285039370079
0
LINE
8
BLACK
6
CONTINUOUS
10
-0.3771651181102362
20
0.2424285039370079
11
-0.3770472440944882
21
0.1658267716535433
0
LINE
8
BLACK
6
CONTINUOUS
10
-0.3770472440944882
20
0.1658267716535433
11
-0.3771651181102362
21
0.1640281889763779
0
LINE
8
BLACK
6
CONTINUOUS
10
-0.3771651181102362
20
0.1640281889763779
11
-0.3780961417322835
21
0.1605535826771654
0
LINE
8
BLACK
6
CONTINUOUS
10
-0.3780961417322835
20
0.1605535826771654
11
-0.3798947244094488
21
0.1574383070866142
0
LINE
8
BLACK
6
CONTINUOUS
10
-0.3798947244094488
20
0.1574383070866142
11
-0.3824383070866141
21
0.1548947244094488
0
LINE
8
BLACK
6
CONTINUOUS
10
-0.3824383070866141
20
0.1548947244094488
11
-0.3855535826771653
21
0.1530961417322834
0
LINE
8
BLACK
6
CONTINUOUS
10
-0.3855535826771653
20
0.1530961417322834
11
-0.3890281889763779
21
0.1521651181102362
0
LINE
8
BLACK
6
CONTINUOUS
10
-0.3890281889763779
20
0.1521651181102362
11
-0.3926253543307087
21
0.1521651181102362
0
LINE
8
BLACK
6
CONTINUOUS
10
-0.3926253543307087
20
0.1521651181102362
11
-0.3960999606299213
21
0.1530961417322834
0
LINE
8
BLACK
6
CONTINUOUS
10
-0.3960999606299213
20
0.1530961417322834
11
-0.3992152362204724
21
0.1548947244094488
0
LINE
8
BLACK
6
CONTINUOUS
10
-0.3992152362204724
20
0.1548947244094488
11
-0.4017588188976378
21
0.1574383070866142
0
LINE
8
BLACK
6
CONTINUOUS
10
-0.4017588188976378
20
0.1574383070866142
11
-0.4035574015748031
21
0.1605535826771654
0
LINE
8
BLACK
6
CONTINUOUS
10
-0.4035574015748031
20
0.1605535826771654
11
-0.4044884251968504
21
0.1640281889763779
0
LINE
8
BLACK
6
CONTINUOUS
10
-0.4044884251968504
20
0.1640281889763779
11
-0.4046062992125984
21
0.2406299212598425
0
LINE
8
BLACK
6
CONTINUOUS
10
-0.4046062992125984
20
0.2406299212598425
11
-0.4044884251968504
21
0.2424285039370079
0
LINE
8
BLACK
6
CONTINUOUS
10
-0.4044884251968504
20
0.2424285039370079
11
-0.4035574015748031
21
0.2459031102362205
0
LINE
8
BLACK
6
CONTINUOUS
10
-0.4035574015748031
20
0.2459031102362205
11
-0.4017588188976378
21
0.2490183858267717
0
LINE
8
BLACK
6
CONTINUOUS
10
-0.4017588188976378
20
0.2490183858267717
11
-0.3992152362204724
21
0.251561968503937
0
LINE
8
BLACK
6
CONTINUOUS
10
-0.3992152362204724
20
0.251561968503937
11
-0.3960999606299213
21
0.2533605511811023
0
LINE
8
BLACK
6
CONTINUOUS
10
-0.3960999606299213
20
0.2533605511811023
11
-0.3926253543307087
21
0.2542915748031496
0
LINE
8
BLACK
6
CONTINUOUS
10
-0.3926253543307087
20
0.2542915748031496
11
-0.3890281889763779
21
0.2542915748031496
0
LINE
8
BLACK
6
CONTINUOUS
10
-0.3890281889763779
20
0.2542915748031496
11
-0.3855535826771653
21
0.2533605511811023
0
LINE
8
BLACK
6
CONTINUOUS
10
-0.3329945275590551
20
0.2533605511811023
11
-0.3298792519685039
21
0.251561968503937
0
LINE
8
BLACK
6
CONTINUOUS
10
-0.3298792519685039
20
0.251561968503937
11
-0.3273356692913386
21
0.2490183858267717
0
LINE
8
BLACK
6
CONTINUOUS
10
-0.3273356692913386
20
0.2490183858267717
11
-0.3255370866141732
21
0.2459031102362205
0
LINE
8
BLACK
6
CONTINUOUS
10
-0.3255370866141732
20
0.2459031102362205
11
-0.324606062992126
21
0.2424285039370079
0
LINE
8
BLACK
6
CONTINUOUS
10
-0.324606062992126
20
0.2424285039370079
11
-0.3244881889763779
21
0.1658267716535433
0
LINE
8
BLACK
6
CONTINUOUS
10
-0.3244881889763779
20
0.1658267716535433
11
-0.324606062992126
21
0.1640281889763779
0
LINE
8
BLACK
6
CONTINUOUS
10
-0.324606062992126
20
0.1640281889763779
11
-0.3255370866141732
21
0.1605535826771654
0
LINE
8
BLACK
6
CONTINUOUS
10
-0.3255370866141732
20
0.1605535826771654
11
-0.3273356692913386
21
0.1574383070866142
0
LINE
8
BLACK
6
CONTINUOUS
10
-0.3273356692913386
20
0.1574383070866142
11
-0.3298792519685039
21
0.1548947244094488
0
LINE
8
BLACK
6
CONTINUOUS
10
-0.3298792519685039
20
0.1548947244094488
11
-0.3329945275590551
21
0.1530961417322834
0
LINE
8
BLACK
6
CONTINUOUS
10
-0.3329945275590551
20
0.1530961417322834
11
-0.3364691338582677
21
0.1521651181102362
0
LINE
8
BLACK
6
CONTINUOUS
10
-0.3364691338582677
20
0.1521651181102362
11
-0.3400662992125984
21
0.1521651181102362
0
LINE
8
BLACK
6
CONTINUOUS
10
-0.3400662992125984
20
0.1521651181102362
11
-0.343540905511811
21
0.1530961417322834
0
LINE
8
BLACK
6
CONTINUOUS
10
-0.343540905511811
20
0.1530961417322834
11
-0.3466561811023622
21
0.1548947244094488
0
LINE
8
BLACK
6
CONTINUOUS
10
-0.3466561811023622
20
0.1548947244094488
11
-0.3491997637795275
21
0.1574383070866142
0
LINE
8
BLACK
6
CONTINUOUS
10
-0.3491997637795275
20
0.1574383070866142
11
-0.3509983464566929
21
0.1605535826771654
0
LINE
8
BLACK
6
CONTINUOUS
10
-0.3509983464566929
20
0.1605535826771654
11
-0.3519293700787401
21
0.1640281889763779
0
LINE
8
BLACK
6
CONTINUOUS
10
-0.3519293700787401
20
0.1640281889763779
11
-0.3520472440944882
21
0.2406299212598425
0
LINE
8
BLACK
6
CONTINUOUS
10
-0.3520472440944882
20
0.2406299212598425
11
-0.3519293700787401
21
0.2424285039370079
0
LINE
8
BLACK
6
CONTINUOUS
10
-0.3519293700787401
20
0.2424285039370079
11
-0.3509983464566929
21
0.2459031102362205
0
LINE
8
BLACK
6
CONTINUOUS
10
-0.3509983464566929
20
0.2459031102362205
11
-0.3491997637795275
21
0.2490183858267717
0
LINE
8
BLACK
6
CONTINUOUS
10
-0.3491997637795275
20
0.2490183858267717
11
-0.3466561811023622
21
0.251561968503937
0
LINE
8
BLACK
6
CONTINUOUS
10
-0.3466561811023622
20
0.251561968503937
11
-0.343540905511811
21
0.2533605511811023
0
LINE
8
BLACK
6
CONTINUOUS
10
-0.343540905511811
20
0.2533605511811023
11
-0.3400662992125984
21
0.2542915748031496
0
LINE
8
BLACK
6
CONTINUOUS
10
-0.3400662992125984
20
0.2542915748031496
11
-0.3364691338582677
21
0.2542915748031496
0
LINE
8
BLACK
6
CONTINUOUS
10
-0.3364691338582677
20
0.2542915748031496
11
-0.3329945275590551
21
0.2533605511811023
0
LINE
8
BLACK
6
CONTINUOUS
10
-0.2855535826771654
20
0.2533605511811023
11
-0.2824383070866142
21
0.251561968503937
0
LINE
8
BLACK
6
CONTINUOUS
10
-0.2824383070866142
20
0.251561968503937
11
-0.2798947244094488
21
0.2490183858267717
0
LINE
8
BLACK
6
CONTINUOUS
10
-0.2798947244094488
20
0.2490183858267717
11
-0.2780961417322835
21
0.2459031102362205
0
LINE
8
BLACK
6
CONTINUOUS
10
-0.2780961417322835
20
0.2459031102362205
11
-0.2771651181102362
21
0.2424285039370079
0
LINE
8
BLACK
6
CONTINUOUS
10
-0.2771651181102362
20
0.2424285039370079
11
-0.2770472440944882
21
0.1658267716535433
0
LINE
8
BLACK
6
CONTINUOUS
10
-0.2770472440944882
20
0.1658267716535433
11
-0.2771651181102362
21
0.1640281889763779
0
LINE
8
BLACK
6
CONTINUOUS
10
-0.2771651181102362
20
0.1640281889763779
11
-0.2780961417322835
21
0.1605535826771654
0
LINE
8
BLACK
6
CONTINUOUS
10
-0.2780961417322835
20
0.1605535826771654
11
-0.2798947244094488
21
0.1574383070866142
0
LINE
8
BLACK
6
CONTINUOUS
10
-0.2798947244094488
20
0.1574383070866142
11
-0.2824383070866142
21
0.1548947244094488
0
LINE
8
BLACK
6
CONTINUOUS
10
-0.2824383070866142
20
0.1548947244094488
11
-0.2855535826771654
21
0.1530961417322834
0
LINE
8
BLACK
6
CONTINUOUS
10
-0.2855535826771654
20
0.1530961417322834
11
-0.2890281889763779
21
0.1521651181102362
0
LINE
8
BLACK
6
CONTINUOUS
10
-0.2890281889763779
20
0.1521651181102362
11
-0.2926253543307086
21
0.1521651181102362
0
LINE
8
BLACK
6
CONTINUOUS
10
-0.2926253543307086
20
0.1521651181102362
11
-0.2960999606299213
21
0.1530961417322834
0
LINE
8
BLACK
6
CONTINUOUS
10
-0.2960999606299213
20
0.1530961417322834
11
-0.2992152362204724
21
0.1548947244094488
0
LINE
8
BLACK
6
CONTINUOUS
10
-0.2992152362204724
20
0.1548947244094488
11
-0.3017588188976378
21
0.1574383070866142
0
LINE
8
BLACK
6
CONTINUOUS
10
-0.3017588188976378
20
0.1574383070866142
11
-0.3035574015748032
21
0.1605535826771654
0
LINE
8
BLACK
6
CONTINUOUS
10
-0.3035574015748032
20
0.1605535826771654
11
-0.3044884251968504
21
0.1640281889763779
0
LINE
8
BLACK
6
CONTINUOUS
10
-0.3044884251968504
20
0.1640281889763779
11
-0.3046062992125984
21
0.2406299212598425
0
LINE
8
BLACK
6
CONTINUOUS
10
-0.3046062992125984
20
0.2406299212598425
11
-0.3044884251968504
21
0.2424285039370079
0
LINE
8
BLACK
6
CONTINUOUS
10
-0.3044884251968504
20
0.2424285039370079
11
-0.3035574015748032
21
0.2459031102362205
0
LINE
8
BLACK
6
CONTINUOUS
10
-0.3035574015748032
20
0.2459031102362205
11
-0.3017588188976378
21
0.2490183858267717
0
LINE
8
BLACK
6
CONTINUOUS
10
-0.3017588188976378
20
0.2490183858267717
11
-0.2992152362204724
21
0.251561968503937
0
LINE
8
BLACK
6
CONTINUOUS
10
-0.2992152362204724
20
0.251561968503937
11
-0.2960999606299213
21
0.2533605511811023
0
LINE
8
BLACK
6
CONTINUOUS
10
-0.2960999606299213
20
0.2533605511811023
11
-0.2926253543307086
21
0.2542915748031496
0
LINE
8
BLACK
6
CONTINUOUS
10
-0.2926253543307086
20
0.2542915748031496
11
-0.2890281889763779
21
0.2542915748031496
0
LINE
8
BLACK
6
CONTINUOUS
10
-0.2890281889763779
20
0.2542915748031496
11
-0.2855535826771654
21
0.2533605511811023
0
LINE
8
BLACK
6
CONTINUOUS
10
-0.6232518503937008
20
0.1759715748031496
11
-0.6213359842519685
21
0.1746914173228346
0
LINE
8
BLACK
6
CONTINUOUS
10
-0.6213359842519685
20
0.1746914173228346
11
-0.6200558267716535
21
0.1727755511811024
0
LINE
8
BLACK
6
CONTINUOUS
10
-0.6200558267716535
20
0.1727755511811024
11
-0.6196062992125985
21
0.1705155905511811
0
LINE
8
BLACK
6
CONTINUOUS
10
-0.6196062992125985
20
0.1705155905511811
11
-0.6196062992125985
21
0.1587045669291338
0
LINE
8
BLACK
6
CONTINUOUS
10
-0.6196062992125985
20
0.1587045669291338
11
-0.6200558267716535
21
0.1564446062992126
0
LINE
8
BLACK
6
CONTINUOUS
10
-0.6200558267716535
20
0.1564446062992126
11
-0.6213359842519685
21
0.1545287401574803
0
LINE
8
BLACK
6
CONTINUOUS
10
-0.6213359842519685
20
0.1545287401574803
11
-0.6232518503937008
21
0.1532485826771653
0
LINE
8
BLACK
6
CONTINUOUS
10
-0.6232518503937008
20
0.1532485826771653
11
-0.6255118110236221
21
0.1527990551181102
0
LINE
8
BLACK
6
CONTINUOUS
10
-0.6255118110236221
20
0.1527990551181102
11
-0.6806299212598425
21
0.1527990551181102
0
LINE
8
BLACK
6
CONTINUOUS
10
-0.6806299212598425
20
0.1527990551181102
11
-0.6828898818897637
21
0.1532485826771653
0
LINE
8
BLACK
6
CONTINUOUS
10
-0.6828898818897637
20
0.1532485826771653
11
-0.6848057480314961
21
0.1545287401574803
0
LINE
8
BLACK
6
CONTINUOUS
10
-0.6848057480314961
20
0.1545287401574803
11
-0.686085905511811
21
0.1564446062992126
0
LINE
8
BLACK
6
CONTINUOUS
10
-0.686085905511811
20
0.1564446062992126
11
-0.6865354330708662
21
0.1587045669291338
0
LINE
8
BLACK
6
CONTINUOUS
10
-0.6865354330708662
20
0.1587045669291338
11
-0.6865354330708662
21
0.1705155905511811
0
LINE
8
BLACK
6
CONTINUOUS
10
-0.6865354330708662
20
0.1705155905511811
11
-0.686085905511811
21
0.1727755511811024
0
LINE
8
BLACK
6
CONTINUOUS
10
-0.686085905511811
20
0.1727755511811024
11
-0.6848057480314961
21
0.1746914173228346
0
LINE
8
BLACK
6
CONTINUOUS
10
-0.6848057480314961
20
0.1746914173228346
11
-0.6828898818897637
21
0.1759715748031496
0
LINE
8
BLACK
6
CONTINUOUS
10
-0.6828898818897637
20
0.1759715748031496
11
-0.6806299212598425
21
0.1764211023622047
0
LINE
8
BLACK
6
CONTINUOUS
10
-0.6806299212598425
20
0.1764211023622047
11
-0.6255118110236221
21
0.1764211023622047
0
LINE
8
BLACK
6
CONTINUOUS
10
-0.6255118110236221
20
0.1764211023622047
11
-0.6232518503937008
21
0.1759715748031496
0
LINE
8
BLACK
6
CONTINUOUS
10
0.2014831102362205
20
0.2403962992125984
11
0.2046762598425197
21
0.2382627165354331
0
LINE
8
BLACK
6
CONTINUOUS
10
0.2046762598425197
20
0.2382627165354331
11
0.206809842519685
21
0.2350695669291339
0
LINE
8
BLACK
6
CONTINUOUS
10
0.206809842519685
20
0.2350695669291339
11
0.2075590551181102
21
0.2313029921259842
0
LINE
8
BLACK
6
CONTINUOUS
10
0.2075590551181102
20
0.2313029921259842
11
0.2075590551181102
21
0.2106337007874016
0
LINE
8
BLACK
6
CONTINUOUS
10
0.2075590551181102
20
0.2106337007874016
11
0.206809842519685
21
0.206867125984252
0
LINE
8
BLACK
6
CONTINUOUS
10
0.206809842519685
20
0.206867125984252
11
0.2046762598425197
21
0.2036739763779528
0
LINE
8
BLACK
6
CONTINUOUS
10
0.2046762598425197
20
0.2036739763779528
11
0.2014831102362205
21
0.2015403937007874
0
LINE
8
BLACK
6
CONTINUOUS
10
0.2014831102362205
20
0.2015403937007874
11
0.1977165354330709
21
0.2007911811023622
0
LINE
8
BLACK
6
CONTINUOUS
10
0.1977165354330709
20
0.2007911811023622
11
0.1622834645669291
21
0.2007911811023622
0
LINE
8
BLACK
6
CONTINUOUS
10
0.1622834645669291
20
0.2007911811023622
11
0.1585168897637795
21
0.2015403937007874
0
LINE
8
BLACK
6
CONTINUOUS
10
0.1585168897637795
20
0.2015403937007874
11
0.1553237401574803
21
0.2036739763779528
0
LINE
8
BLACK
6
CONTINUOUS
10
0.1553237401574803
20
0.2036739763779528
11
0.1531901574803149
21
0.206867125984252
0
LINE
8
BLACK
6
CONTINUOUS
10
0.1531901574803149
20
0.206867125984252
11
0.1524409448818898
21
0.2106337007874016
0
LINE
8
BLACK
6
CONTINUOUS
10
0.1524409448818898
20
0.2106337007874016
11
0.1524409448818898
21
0.2313029921259842
0
LINE
8
BLACK
6
CONTINUOUS
10
0.1524409448818898
20
0.2313029921259842
11
0.1531901574803149
21
0.2350695669291339
0
LINE
8
BLACK
6
CONTINUOUS
10
0.1531901574803149
20
0.2350695669291339
11
0.1553237401574803
21
0.2382627165354331
0
LINE
8
BLACK
6
CONTINUOUS
10
0.1553237401574803
20
0.2382627165354331
11
0.1585168897637795
21
0.2403962992125984
0
LINE
8
BLACK
6
CONTINUOUS
10
0.1585168897637795
20
0.2403962992125984
11
0.1622834645669291
21
0.2411455118110236
0
LINE
8
BLACK
6
CONTINUOUS
10
0.1622834645669291
20
0.2411455118110236
11
0.1977165354330709
21
0.2411455118110236
0
LINE
8
BLACK
6
CONTINUOUS
10
0.1977165354330709
20
0.2411455118110236
11
0.2014831102362205
21
0.2403962992125984
0
LINE
8
BLACK
6
CONTINUOUS
10
0.376128779527559
20
0.2403962992125984
11
0.3793219291338583
21
0.2382627165354331
0
LINE
8
BLACK
6
CONTINUOUS
10
0.3793219291338583
20
0.2382627165354331
11
0.3814555118110236
21
0.2350695669291339
0
LINE
8
BLACK
6
CONTINUOUS
10
0.3814555118110236
20
0.2350695669291339
11
0.3822047244094488
21
0.2313029921259842
0
LINE
8
BLACK
6
CONTINUOUS
10
0.3822047244094488
20
0.2313029921259842
11
0.3822047244094488
21
0.2106337007874016
0
LINE
8
BLACK
6
CONTINUOUS
10
0.3822047244094488
20
0.2106337007874016
11
0.3814555118110236
21
0.206867125984252
0
LINE
8
BLACK
6
CONTINUOUS
10
0.3814555118110236
20
0.206867125984252
11
0.3793219291338583
21
0.2036739763779528
0
LINE
8
BLACK
6
CONTINUOUS
10
0.3793219291338583
20
0.2036739763779528
11
0.376128779527559
21
0.2015403937007874
0
LINE
8
BLACK
6
CONTINUOUS
10
0.376128779527559
20
0.2015403937007874
11
0.3723622047244095
21
0.2007911811023622
0
LINE
8
BLACK
6
CONTINUOUS
10
0.3723622047244095
20
0.2007911811023622
11
0.3369291338582677
21
0.2007911811023622
0
LINE
8
BLACK
6
CONTINUOUS
10
0.3369291338582677
20
0.2007911811023622
11
0.3331625590551181
21
0.2015403937007874
0
LINE
8
BLACK
6
CONTINUOUS
10
0.3331625590551181
20
0.2015403937007874
11
0.3299694094488189
21
0.2036739763779528
0
LINE
8
BLACK
6
CONTINUOUS
10
0.3299694094488189
20
0.2036739763779528
11
0.3278358267716535
21
0.206867125984252
0
LINE
8
BLACK
6
CONTINUOUS
10
0.3278358267716535
20
0.206867125984252
11
0.3270866141732283
21
0.2106337007874016
0
LINE
8
BLACK
6
CONTINUOUS
10
0.3270866141732283
20
0.2106337007874016
11
0.3270866141732283
21
0.2313029921259842
0
LINE
8
BLACK
6
CONTINUOUS
10
0.3270866141732283
20
0.2313029921259842
11
0.3278358267716535
21
0.2350695669291339
0
LINE
8
BLACK
6
CONTINUOUS
10
0.3278358267716535
20
0.2350695669291339
11
0.3299694094488189
21
0.2382627165354331
0
LINE
8
BLACK
6
CONTINUOUS
10
0.3299694094488189
20
0.2382627165354331
11
0.3331625590551181
21
0.2403962992125984
0
LINE
8
BLACK
6
CONTINUOUS
10
0.3331625590551181
20
0.2403962992125984
11
0.3369291338582677
21
0.2411455118110236
0
LINE
8
BLACK
6
CONTINUOUS
10
0.3369291338582677
20
0.2411455118110236
11
0.3723622047244095
21
0.2411455118110236
0
LINE
8
BLACK
6
CONTINUOUS
10
0.3723622047244095
20
0.2411455118110236
11
0.376128779527559
21
0.2403962992125984
0
LINE
8
BLACK
6
CONTINUOUS
10
-0.6232518503937008
20
0.2251841732283464
11
-0.6213359842519685
21
0.2239040157480315
0
LINE
8
BLACK
6
CONTINUOUS
10
-0.6213359842519685
20
0.2239040157480315
11
-0.6200558267716535
21
0.2219881496062992
0
LINE
8
BLACK
6
CONTINUOUS
10
-0.6200558267716535
20
0.2219881496062992
11
-0.6196062992125985
21
0.2197281889763779
0
LINE
8
BLACK
6
CONTINUOUS
10
-0.6196062992125985
20
0.2197281889763779
11
-0.6196062992125985
21
0.2079171653543307
0
LINE
8
BLACK
6
CONTINUOUS
10
-0.6196062992125985
20
0.2079171653543307
11
-0.6200558267716535
21
0.2056572047244094
0
LINE
8
BLACK
6
CONTINUOUS
10
-0.6200558267716535
20
0.2056572047244094
11
-0.6213359842519685
21
0.2037413385826772
0
LINE
8
BLACK
6
CONTINUOUS
10
-0.6213359842519685
20
0.2037413385826772
11
-0.6232518503937008
21
0.2024611811023622
0
LINE
8
BLACK
6
CONTINUOUS
10
-0.6232518503937008
20
0.2024611811023622
11
-0.6255118110236221
21
0.2020116535433071
0
LINE
8
BLACK
6
CONTINUOUS
10
-0.6255118110236221
20
0.2020116535433071
11
-0.6806299212598425
21
0.2020116535433071
0
LINE
8
BLACK
6
CONTINUOUS
10
-0.6806299212598425
20
0.2020116535433071
11
-0.6828898818897637
21
0.2024611811023622
0
LINE
8
BLACK
6
CONTINUOUS
10
-0.6828898818897637
20
0.2024611811023622
11
-0.6848057480314961
21
0.2037413385826772
0
LINE
8
BLACK
6
CONTINUOUS
10
-0.6848057480314961
20
0.2037413385826772
11
-0.686085905511811
21
0.2056572047244094
0
LINE
8
BLACK
6
CONTINUOUS
10
-0.686085905511811
20
0.2056572047244094
11
-0.6865354330708662
21
0.2079171653543307
0
LINE
8
BLACK
6
CONTINUOUS
10
-0.6865354330708662
20
0.2079171653543307
11
-0.6865354330708662
21
0.2197281889763779
0
LINE
8
BLACK
6
CONTINUOUS
10
-0.6865354330708662
20
0.2197281889763779
11
-0.686085905511811
21
0.2219881496062992
0
LINE
8
BLACK
6
CONTINUOUS
10
-0.686085905511811
20
0.2219881496062992
11
-0.6848057480314961
21
0.2239040157480315
0
LINE
8
BLACK
6
CONTINUOUS
10
-0.6848057480314961
20
0.2239040157480315
11
-0.6828898818897637
21
0.2251841732283464
0
LINE
8
BLACK
6
CONTINUOUS
10
-0.6828898818897637
20
0.2251841732283464
11
-0.6806299212598425
21
0.2256337007874016
0
LINE
8
BLACK
6
CONTINUOUS
10
-0.6806299212598425
20
0.2256337007874016
11
-0.6255118110236221
21
0.2256337007874016
0
LINE
8
BLACK
6
CONTINUOUS
10
-0.6255118110236221
20
0.2256337007874016
11
-0.6232518503937008
21
0.2251841732283464
0
LINE
8
BLACK
6
CONTINUOUS
10
0.2805552755905512
20
0.2434239763779527
11
0.283429094488189
21
0.2415037401574803
0
LINE
8
BLACK
6
CONTINUOUS
10
0.283429094488189
20
0.2415037401574803
11
0.2853493307086614
21
0.2386299212598425
0
LINE
8
BLACK
6
CONTINUOUS
10
0.2853493307086614
20
0.2386299212598425
11
0.2860236220472441
21
0.23524
0
LINE
8
BLACK
6
CONTINUOUS
10
0.2860236220472441
20
0.23524
11
0.2860236220472441
21
0.2175234645669291
0
LINE
8
BLACK
6
CONTINUOUS
10
0.2860236220472441
20
0.2175234645669291
11
0.2853493307086614
21
0.2141335433070866
0
LINE
8
BLACK
6
CONTINUOUS
10
0.2853493307086614
20
0.2141335433070866
11
0.283429094488189
21
0.2112597244094488
0
LINE
8
BLACK
6
CONTINUOUS
10
0.283429094488189
20
0.2112597244094488
11
0.2805552755905512
21
0.2093394881889764
0
LINE
8
BLACK
6
CONTINUOUS
10
0.2805552755905512
20
0.2093394881889764
11
0.2771653543307087
21
0.2086651968503937
0
LINE
8
BLACK
6
CONTINUOUS
10
0.2771653543307087
20
0.2086651968503937
11
0.2574803149606299
21
0.2086651968503937
0
LINE
8
BLACK
6
CONTINUOUS
10
0.2574803149606299
20
0.2086651968503937
11
0.2540903937007874
21
0.2093394881889764
0
LINE
8
BLACK
6
CONTINUOUS
10
0.2540903937007874
20
0.2093394881889764
11
0.2512165748031496
21
0.2112597244094488
0
LINE
8
BLACK
6
CONTINUOUS
10
0.2512165748031496
20
0.2112597244094488
11
0.2492963385826772
21
0.2141335433070866
0
LINE
8
BLACK
6
CONTINUOUS
10
0.2492963385826772
20
0.2141335433070866
11
0.2486220472440945
21
0.2175234645669291
0
LINE
8
BLACK
6
CONTINUOUS
10
0.2486220472440945
20
0.2175234645669291
11
0.2486220472440945
21
0.23524
0
LINE
8
BLACK
6
CONTINUOUS
10
0.2486220472440945
20
0.23524
11
0.2492963385826772
21
0.2386299212598425
0
LINE
8
BLACK
6
CONTINUOUS
10
0.2492963385826772
20
0.2386299212598425
11
0.2512165748031496
21
0.2415037401574803
0
LINE
8
BLACK
6
CONTINUOUS
10
0.2512165748031496
20
0.2415037401574803
11
0.2540903937007874
21
0.2434239763779527
0
LINE
8
BLACK
6
CONTINUOUS
10
0.2540903937007874
20
0.2434239763779527
11
0.2574803149606299
21
0.2440982677165354
0
LINE
8
BLACK
6
CONTINUOUS
10
0.2574803149606299
20
0.2440982677165354
11
0.2771653543307087
21
0.2440982677165354
0
LINE
8
BLACK
6
CONTINUOUS
10
0.2771653543307087
20
0.2440982677165354
11
0.2805552755905512
21
0.2434239763779527
0
LINE
8
BLACK
6
CONTINUOUS
10
-0.1617951574803149
20
0.2367589763779528
11
-0.1598792913385827
21
0.2354788188976378
0
LINE
8
BLACK
6
CONTINUOUS
10
-0.1598792913385827
20
0.2354788188976378
11
-0.1585991338582677
21
0.2335629527559055
0
LINE
8
BLACK
6
CONTINUOUS
10
-0.1585991338582677
20
0.2335629527559055
11
-0.1581496062992126
21
0.2313029921259842
0
LINE
8
BLACK
6
CONTINUOUS
10
-0.1581496062992126
20
0.2313029921259842
11
-0.1581496062992126
21
0.219491968503937
0
LINE
8
BLACK
6
CONTINUOUS
10
-0.1581496062992126
20
0.219491968503937
11
-0.1585991338582677
21
0.2172320078740158
0
LINE
8
BLACK
6
CONTINUOUS
10
-0.1585991338582677
20
0.2172320078740158
11
-0.1598792913385827
21
0.2153161417322835
0
LINE
8
BLACK
6
CONTINUOUS
10
-0.1598792913385827
20
0.2153161417322835
11
-0.1617951574803149
21
0.2140359842519685
0
LINE
8
BLACK
6
CONTINUOUS
10
-0.1617951574803149
20
0.2140359842519685
11
-0.1640551181102362
21
0.2135864566929134
0
LINE
8
BLACK
6
CONTINUOUS
10
-0.1640551181102362
20
0.2135864566929134
11
-0.2044094488188976
21
0.2135864566929134
0
LINE
8
BLACK
6
CONTINUOUS
10
-0.2044094488188976
20
0.2135864566929134
11
-0.2066694094488189
21
0.2140359842519685
0
LINE
8
BLACK
6
CONTINUOUS
10
-0.2066694094488189
20
0.2140359842519685
11
-0.2085852755905512
21
0.2153161417322835
0
LINE
8
BLACK
6
CONTINUOUS
10
-0.2085852755905512
20
0.2153161417322835
11
-0.2098654330708661
21
0.2172320078740158
0
LINE
8
BLACK
6
CONTINUOUS
10
-0.2098654330708661
20
0.2172320078740158
11
-0.2103149606299212
21
0.219491968503937
0
LINE
8
BLACK
6
CONTINUOUS
10
-0.2103149606299212
20
0.219491968503937
11
-0.2103149606299212
21
0.2313029921259842
0
LINE
8
BLACK
6
CONTINUOUS
10
-0.2103149606299212
20
0.2313029921259842
11
-0.2098654330708661
21
0.2335629527559055
0
LINE
8
BLACK
6
CONTINUOUS
10
-0.2098654330708661
20
0.2335629527559055
11
-0.2085852755905512
21
0.2354788188976378
0
LINE
8
BLACK
6
CONTINUOUS
10
-0.2085852755905512
20
0.2354788188976378
11
-0.2066694094488189
21
0.2367589763779528
0
LINE
8
BLACK
6
CONTINUOUS
10
-0.2066694094488189
20
0.2367589763779528
11
-0.2044094488188976
21
0.2372085039370079
0
LINE
8
BLACK
6
CONTINUOUS
10
-0.2044094488188976
20
0.2372085039370079
11
-0.1640551181102362
21
0.2372085039370079
0
LINE
8
BLACK
6
CONTINUOUS
10
-0.1640551181102362
20
0.2372085039370079
11
-0.1617951574803149
21
0.2367589763779528
0
LINE
8
BLACK
6
CONTINUOUS
10
-0.0722282283464567
20
0.2367589763779528
11
-0.0703123622047244
21
0.2354788188976378
0
LINE
8
BLACK
6
CONTINUOUS
10
-0.0703123622047244
20
0.2354788188976378
11
-0.0690322047244094
21
0.2335629527559055
0
LINE
8
BLACK
6
CONTINUOUS
10
-0.0690322047244094
20
0.2335629527559055
11
-0.0685826771653543
21
0.2313029921259842
0
LINE
8
BLACK
6
CONTINUOUS
10
-0.0685826771653543
20
0.2313029921259842
11
-0.0685826771653543
21
0.219491968503937
0
LINE
8
BLACK
6
CONTINUOUS
10
-0.0685826771653543
20
0.219491968503937
11
-0.0690322047244094
21
0.2172320078740158
0
LINE
8
BLACK
6
CONTINUOUS
10
-0.0690322047244094
20
0.2172320078740158
11
-0.0703123622047244
21
0.2153161417322835
0
LINE
8
BLACK
6
CONTINUOUS
10
-0.0703123622047244
20
0.2153161417322835
11
-0.0722282283464567
21
0.2140359842519685
0
LINE
8
BLACK
6
CONTINUOUS
10
-0.0722282283464567
20
0.2140359842519685
11
-0.0744881889763779
21
0.2135864566929134
0
LINE
8
BLACK
6
CONTINUOUS
10
-0.0744881889763779
20
0.2135864566929134
11
-0.1148425196850394
21
0.2135864566929134
0
LINE
8
BLACK
6
CONTINUOUS
10
-0.1148425196850394
20
0.2135864566929134
11
-0.1171024803149606
21
0.2140359842519685
0
LINE
8
BLACK
6
CONTINUOUS
10
-0.1171024803149606
20
0.2140359842519685
11
-0.1190183464566929
21
0.2153161417322835
0
LINE
8
BLACK
6
CONTINUOUS
10
-0.1190183464566929
20
0.2153161417322835
11
-0.1202985039370079
21
0.2172320078740158
0
LINE
8
BLACK
6
CONTINUOUS
10
-0.1202985039370079
20
0.2172320078740158
11
-0.120748031496063
21
0.219491968503937
0
LINE
8
BLACK
6
CONTINUOUS
10
-0.120748031496063
20
0.219491968503937
11
-0.120748031496063
21
0.2313029921259842
0
LINE
8
BLACK
6
CONTINUOUS
10
-0.120748031496063
20
0.2313029921259842
11
-0.1202985039370079
21
0.2335629527559055
0
LINE
8
BLACK
6
CONTINUOUS
10
-0.1202985039370079
20
0.2335629527559055
11
-0.1190183464566929
21
0.2354788188976378
0
LINE
8
BLACK
6
CONTINUOUS
10
-0.1190183464566929
20
0.2354788188976378
11
-0.1171024803149606
21
0.2367589763779528
0
LINE
8
BLACK
6
CONTINUOUS
10
-0.1171024803149606
20
0.2367589763779528
11
-0.1148425196850394
21
0.2372085039370079
0
LINE
8
BLACK
6
CONTINUOUS
10
-0.1148425196850394
20
0.2372085039370079
11
-0.0744881889763779
21
0.2372085039370079
0
LINE
8
BLACK
6
CONTINUOUS
10
-0.0744881889763779
20
0.2372085039370079
11
-0.0722282283464567
21
0.2367589763779528
0
LINE
8
BLACK
6
CONTINUOUS
10
0.0017363779527559
20
0.2532664960629921
11
0.0046101968503937
21
0.2513462598425197
0
LINE
8
BLACK
6
CONTINUOUS
10
0.0046101968503937
20
0.2513462598425197
11
0.0065304330708661
21
0.2484724409448819
0
LINE
8
BLACK
6
CONTINUOUS
10
0.0065304330708661
20
0.2484724409448819
11
0.0072047244094488
21
0.2450825196850394
0
LINE
8
BLACK
6
CONTINUOUS
10
0.0072047244094488
20
0.2450825196850394
11
0.0072047244094488
21
0.2273659842519685
0
LINE
8
BLACK
6
CONTINUOUS
10
0.0072047244094488
20
0.2273659842519685
11
0.0065304330708661
21
0.223976062992126
0
LINE
8
BLACK
6
CONTINUOUS
10
0.0065304330708661
20
0.223976062992126
11
0.0046101968503937
21
0.2211022440944882
0
LINE
8
BLACK
6
CONTINUOUS
10
0.0046101968503937
20
0.2211022440944882
11
0.0017363779527559
21
0.2191820078740157
0
LINE
8
BLACK
6
CONTINUOUS
10
0.0017363779527559
20
0.2191820078740157
11
-0.0016535433070866
21
0.2185077165354331
0
LINE
8
BLACK
6
CONTINUOUS
10
-0.0016535433070866
20
0.2185077165354331
11
-0.0213385826771654
21
0.2185077165354331
0
LINE
8
BLACK
6
CONTINUOUS
10
-0.0213385826771654
20
0.2185077165354331
11
-0.0247285039370079
21
0.2191820078740157
0
LINE
8
BLACK
6
CONTINUOUS
10
-0.0247285039370079
20
0.2191820078740157
11
-0.0276023228346457
21
0.2211022440944882
0
LINE
8
BLACK
6
CONTINUOUS
10
-0.0276023228346457
20
0.2211022440944882
11
-0.0295225590551181
21
0.223976062992126
0
LINE
8
BLACK
6
CONTINUOUS
10
-0.0295225590551181
20
0.223976062992126
11
-0.0301968503937008
21
0.2273659842519685
0
LINE
8
BLACK
6
CONTINUOUS
10
-0.0301968503937008
20
0.2273659842519685
11
-0.0301968503937008
21
0.2450825196850394
0
LINE
8
BLACK
6
CONTINUOUS
10
-0.0301968503937008
20
0.2450825196850394
11
-0.0295225590551181
21
0.2484724409448819
0
LINE
8
BLACK
6
CONTINUOUS
10
-0.0295225590551181
20
0.2484724409448819
11
-0.0276023228346457
21
0.2513462598425197
0
LINE
8
BLACK
6
CONTINUOUS
10
-0.0276023228346457
20
0.2513462598425197
11
-0.0247285039370079
21
0.2532664960629921
0
LINE
8
BLACK
6
CONTINUOUS
10
-0.0247285039370079
20
0.2532664960629921
11
-0.0213385826771654
21
0.2539407874015748
0
LINE
8
BLACK
6
CONTINUOUS
10
-0.0213385826771654
20
0.2539407874015748
11
-0.0016535433070866
21
0.2539407874015748
0
LINE
8
BLACK
6
CONTINUOUS
10
-0.0016535433070866
20
0.2539407874015748
11
0.0017363779527559
21
0.2532664960629921
0
LINE
8
BLACK
6
CONTINUOUS
10
-0.1617951574803149
20
0.2741605511811023
11
-0.1598792913385827
21
0.2728803937007874
0
LINE
8
BLACK
6
CONTINUOUS
10
-0.1598792913385827
20
0.2728803937007874
11
-0.1585991338582677
21
0.2709645275590551
0
LINE
8
BLACK
6
CONTINUOUS
10
-0.1585991338582677
20
0.2709645275590551
11
-0.1581496062992126
21
0.2687045669291339
0
LINE
8
BLACK
6
CONTINUOUS
10
-0.1581496062992126
20
0.2687045669291339
11
-0.1581496062992126
21
0.2568935433070866
0
LINE
8
BLACK
6
CONTINUOUS
10
-0.1581496062992126
20
0.2568935433070866
11
-0.1585991338582677
21
0.2546335826771653
0
LINE
8
BLACK
6
CONTINUOUS
10
-0.1585991338582677
20
0.2546335826771653
11
-0.1598792913385827
21
0.2527177165354331
0
LINE
8
BLACK
6
CONTINUOUS
10
-0.1598792913385827
20
0.2527177165354331
11
-0.1617951574803149
21
0.2514375590551181
0
LINE
8
BLACK
6
CONTINUOUS
10
-0.1617951574803149
20
0.2514375590551181
11
-0.1640551181102362
21
0.250988031496063
0
LINE
8
BLACK
6
CONTINUOUS
10
-0.1640551181102362
20
0.250988031496063
11
-0.2044094488188976
21
0.250988031496063
0
LINE
8
BLACK
6
CONTINUOUS
10
-0.2044094488188976
20
0.250988031496063
11
-0.2066694094488189
21
0.2514375590551181
0
LINE
8
BLACK
6
CONTINUOUS
10
-0.2066694094488189
20
0.2514375590551181
11
-0.2085852755905512
21
0.2527177165354331
0
LINE
8
BLACK
6
CONTINUOUS
10
-0.2085852755905512
20
0.2527177165354331
11
-0.2098654330708661
21
0.2546335826771653
0
LINE
8
BLACK
6
CONTINUOUS
10
-0.2098654330708661
20
0.2546335826771653
11
-0.2103149606299212
21
0.2568935433070866
0
LINE
8
BLACK
6
CONTINUOUS
10
-0.2103149606299212
20
0.2568935433070866
11
-0.2103149606299212
21
0.2687045669291339
0
LINE
8
BLACK
6
CONTINUOUS
10
-0.2103149606299212
20
0.2687045669291339
11
-0.2098654330708661
21
0.2709645275590551
0
LINE
8
BLACK
6
CONTINUOUS
10
-0.2098654330708661
20
0.2709645275590551
11
-0.2085852755905512
21
0.2728803937007874
0
LINE
8
BLACK
6
CONTINUOUS
10
-0.2085852755905512
20
0.2728803937007874
11
-0.2066694094488189
21
0.2741605511811023
0
LINE
8
BLACK
6
CONTINUOUS
10
-0.2066694094488189
20
0.2741605511811023
11
-0.2044094488188976
21
0.2746100787401575
0
LINE
8
BLACK
6
CONTINUOUS
10
-0.2044094488188976
20
0.2746100787401575
11
-0.1640551181102362
21
0.2746100787401575
0
LINE
8
BLACK
6
CONTINUOUS
10
-0.1640551181102362
20
0.2746100787401575
11
-0.1617951574803149
21
0.2741605511811023
0
LINE
8
BLACK
6
CONTINUOUS
10
-0.6232518503937008
20
0.2743967716535433
11
-0.6213359842519685
21
0.2731166141732284
0
LINE
8
BLACK
6
CONTINUOUS
10
-0.6213359842519685
20
0.2731166141732284
11
-0.6200558267716535
21
0.2712007480314961
0
LINE
8
BLACK
6
CONTINUOUS
10
-0.6200558267716535
20
0.2712007480314961
11
-0.6196062992125985
21
0.2689407874015748
0
LINE
8
BLACK
6
CONTINUOUS
10
-0.6196062992125985
20
0.2689407874015748
11
-0.6196062992125985
21
0.2571297637795276
0
LINE
8
BLACK
6
CONTINUOUS
10
-0.6196062992125985
20
0.2571297637795276
11
-0.6200558267716535
21
0.2548698031496063
0
LINE
8
BLACK
6
CONTINUOUS
10
-0.6200558267716535
20
0.2548698031496063
11
-0.6213359842519685
21
0.252953937007874
0
LINE
8
BLACK
6
CONTINUOUS
10
-0.6213359842519685
20
0.252953937007874
11
-0.6232518503937008
21
0.251673779527559
0
LINE
8
BLACK
6
CONTINUOUS
10
-0.6232518503937008
20
0.251673779527559
11
-0.6255118110236221
21
0.251224251968504
0
LINE
8
BLACK
6
CONTINUOUS
10
-0.6255118110236221
20
0.251224251968504
11
-0.6806299212598425
21
0.251224251968504
0
LINE
8
BLACK
6
CONTINUOUS
10
-0.6806299212598425
20
0.251224251968504
11
-0.6828898818897637
21
0.251673779527559
0
LINE
8
BLACK
6
CONTINUOUS
10
-0.6828898818897637
20
0.251673779527559
11
-0.6848057480314961
21
0.252953937007874
0
LINE
8
BLACK
6
CONTINUOUS
10
-0.6848057480314961
20
0.252953937007874
11
-0.686085905511811
21
0.2548698031496063
0
LINE
8
BLACK
6
CONTINUOUS
10
-0.686085905511811
20
0.2548698031496063
11
-0.6865354330708662
21
0.2571297637795276
0
LINE
8
BLACK
6
CONTINUOUS
10
-0.6865354330708662
20
0.2571297637795276
11
-0.6865354330708662
21
0.2689407874015748
0
LINE
8
BLACK
6
CONTINUOUS
10
-0.6865354330708662
20
0.2689407874015748
11
-0.686085905511811
21
0.2712007480314961
0
LINE
8
BLACK
6
CONTINUOUS
10
-0.686085905511811
20
0.2712007480314961
11
-0.6848057480314961
21
0.2731166141732284
0
LINE
8
BLACK
6
CONTINUOUS
10
-0.6848057480314961
20
0.2731166141732284
11
-0.6828898818897637
21
0.2743967716535433
0
LINE
8
BLACK
6
CONTINUOUS
10
-0.6828898818897637
20
0.2743967716535433
11
-0.6806299212598425
21
0.2748462992125984
0
LINE
8
BLACK
6
CONTINUOUS
10
-0.6806299212598425
20
0.2748462992125984
11
-0.6255118110236221
21
0.2748462992125984
0
LINE
8
BLACK
6
CONTINUOUS
10
-0.6255118110236221
20
0.2748462992125984
11
-0.6232518503937008
21
0.2743967716535433
0
LINE
8
BLACK
6
CONTINUOUS
10
0.2805552755905512
20
0.3044475984251969
11
0.283429094488189
21
0.3025273622047244
0
LINE
8
BLACK
6
CONTINUOUS
10
0.283429094488189
20
0.3025273622047244
11
0.2853493307086614
21
0.2996535433070866
0
LINE
8
BLACK
6
CONTINUOUS
10
0.2853493307086614
20
0.2996535433070866
11
0.2860236220472441
21
0.2962636220472441
0
LINE
8
BLACK
6
CONTINUOUS
10
0.2860236220472441
20
0.2962636220472441
11
0.2860236220472441
21
0.2785470866141732
0
LINE
8
BLACK
6
CONTINUOUS
10
0.2860236220472441
20
0.2785470866141732
11
0.2853493307086614
21
0.2751571653543307
0
LINE
8
BLACK
6
CONTINUOUS
10
0.2853493307086614
20
0.2751571653543307
11
0.283429094488189
21
0.2722833464566929
0
LINE
8
BLACK
6
CONTINUOUS
10
0.283429094488189
20
0.2722833464566929
11
0.2805552755905512
21
0.2703631102362204
0
LINE
8
BLACK
6
CONTINUOUS
10
0.2805552755905512
20
0.2703631102362204
11
0.2771653543307087
21
0.2696888188976378
0
LINE
8
BLACK
6
CONTINUOUS
10
0.2771653543307087
20
0.2696888188976378
11
0.2574803149606299
21
0.2696888188976378
0
LINE
8
BLACK
6
CONTINUOUS
10
0.2574803149606299
20
0.2696888188976378
11
0.2540903937007874
21
0.2703631102362204
0
LINE
8
BLACK
6
CONTINUOUS
10
0.2540903937007874
20
0.2703631102362204
11
0.2512165748031496
21
0.2722833464566929
0
LINE
8
BLACK
6
CONTINUOUS
10
0.2512165748031496
20
0.2722833464566929
11
0.2492963385826772
21
0.2751571653543307
0
LINE
8
BLACK
6
CONTINUOUS
10
0.2492963385826772
20
0.2751571653543307
11
0.2486220472440945
21
0.2785470866141732
0
LINE
8
BLACK
6
CONTINUOUS
10
0.2486220472440945
20
0.2785470866141732
11
0.2486220472440945
21
0.2962636220472441
0
LINE
8
BLACK
6
CONTINUOUS
10
0.2486220472440945
20
0.2962636220472441
11
0.2492963385826772
21
0.2996535433070866
0
LINE
8
BLACK
6
CONTINUOUS
10
0.2492963385826772
20
0.2996535433070866
11
0.2512165748031496
21
0.3025273622047244
0
LINE
8
BLACK
6
CONTINUOUS
10
0.2512165748031496
20
0.3025273622047244
11
0.2540903937007874
21
0.3044475984251969
0
LINE
8
BLACK
6
CONTINUOUS
10
0.2540903937007874
20
0.3044475984251969
11
0.2574803149606299
21
0.3051218897637795
0
LINE
8
BLACK
6
CONTINUOUS
10
0.2574803149606299
20
0.3051218897637795
11
0.2771653543307087
21
0.3051218897637795
0
LINE
8
BLACK
6
CONTINUOUS
10
0.2771653543307087
20
0.3051218897637795
11
0.2805552755905512
21
0.3044475984251969
0
LINE
8
BLACK
6
CONTINUOUS
10
0.2014831102362205
20
0.3122466929133858
11
0.2046762598425197
21
0.3101131102362205
0
LINE
8
BLACK
6
CONTINUOUS
10
0.2046762598425197
20
0.3101131102362205
11
0.206809842519685
21
0.3069199606299213
0
LINE
8
BLACK
6
CONTINUOUS
10
0.206809842519685
20
0.3069199606299213
11
0.2075590551181102
21
0.3031533858267716
0
LINE
8
BLACK
6
CONTINUOUS
10
0.2075590551181102
20
0.3031533858267716
11
0.2075590551181102
21
0.282484094488189
0
LINE
8
BLACK
6
CONTINUOUS
10
0.2075590551181102
20
0.282484094488189
11
0.206809842519685
21
0.2787175196850394
0
LINE
8
BLACK
6
CONTINUOUS
10
0.206809842519685
20
0.2787175196850394
11
0.2046762598425197
21
0.2755243700787401
0
LINE
8
BLACK
6
CONTINUOUS
10
0.2046762598425197
20
0.2755243700787401
11
0.2014831102362205
21
0.2733907874015748
0
LINE
8
BLACK
6
CONTINUOUS
10
0.2014831102362205
20
0.2733907874015748
11
0.1977165354330709
21
0.2726415748031496
0
LINE
8
BLACK
6
CONTINUOUS
10
0.1977165354330709
20
0.2726415748031496
11
0.1622834645669291
21
0.2726415748031496
0
LINE
8
BLACK
6
CONTINUOUS
10
0.1622834645669291
20
0.2726415748031496
11
0.1585168897637795
21
0.2733907874015748
0
LINE
8
BLACK
6
CONTINUOUS
10
0.1585168897637795
20
0.2733907874015748
11
0.1553237401574803
21
0.2755243700787401
0
LINE
8
BLACK
6
CONTINUOUS
10
0.1553237401574803
20
0.2755243700787401
11
0.1531901574803149
21
0.2787175196850394
0
LINE
8
BLACK
6
CONTINUOUS
10
0.1531901574803149
20
0.2787175196850394
11
0.1524409448818898
21
0.282484094488189
0
LINE
8
BLACK
6
CONTINUOUS
10
0.1524409448818898
20
0.282484094488189
11
0.1524409448818898
21
0.3031533858267716
0
LINE
8
BLACK
6
CONTINUOUS
10
0.1524409448818898
20
0.3031533858267716
11
0.1531901574803149
21
0.3069199606299213
0
LINE
8
BLACK
6
CONTINUOUS
10
0.1531901574803149
20
0.3069199606299213
11
0.1553237401574803
21
0.3101131102362205
0
LINE
8
BLACK
6
CONTINUOUS
10
0.1553237401574803
20
0.3101131102362205
11
0.1585168897637795
21
0.3122466929133858
0
LINE
8
BLACK
6
CONTINUOUS
10
0.1585168897637795
20
0.3122466929133858
11
0.1622834645669291
21
0.312995905511811
0
LINE
8
BLACK
6
CONTINUOUS
10
0.1622834645669291
20
0.312995905511811
11
0.1977165354330709
21
0.312995905511811
0
LINE
8
BLACK
6
CONTINUOUS
10
0.1977165354330709
20
0.312995905511811
11
0.2014831102362205
21
0.3122466929133858
0
LINE
8
BLACK
6
CONTINUOUS
10
0.376128779527559
20
0.3122466929133858
11
0.3793219291338583
21
0.3101131102362205
0
LINE
8
BLACK
6
CONTINUOUS
10
0.3793219291338583
20
0.3101131102362205
11
0.3814555118110236
21
0.3069199606299213
0
LINE
8
BLACK
6
CONTINUOUS
10
0.3814555118110236
20
0.3069199606299213
11
0.3822047244094488
21
0.3031533858267716
0
LINE
8
BLACK
6
CONTINUOUS
10
0.3822047244094488
20
0.3031533858267716
11
0.3822047244094488
21
0.282484094488189
0
LINE
8
BLACK
6
CONTINUOUS
10
0.3822047244094488
20
0.282484094488189
11
0.3814555118110236
21
0.2787175196850394
0
LINE
8
BLACK
6
CONTINUOUS
10
0.3814555118110236
20
0.2787175196850394
11
0.3793219291338583
21
0.2755243700787401
0
LINE
8
BLACK
6
CONTINUOUS
10
0.3793219291338583
20
0.2755243700787401
11
0.376128779527559
21
0.2733907874015748
0
LINE
8
BLACK
6
CONTINUOUS
10
0.376128779527559
20
0.2733907874015748
11
0.3723622047244095
21
0.2726415748031496
0
LINE
8
BLACK
6
CONTINUOUS
10
0.3723622047244095
20
0.2726415748031496
11
0.3369291338582677
21
0.2726415748031496
0
LINE
8
BLACK
6
CONTINUOUS
10
0.3369291338582677
20
0.2726415748031496
11
0.3331625590551181
21
0.2733907874015748
0
LINE
8
BLACK
6
CONTINUOUS
10
0.3331625590551181
20
0.2733907874015748
11
0.3299694094488189
21
0.2755243700787401
0
LINE
8
BLACK
6
CONTINUOUS
10
0.3299694094488189
20
0.2755243700787401
11
0.3278358267716535
21
0.2787175196850394
0
LINE
8
BLACK
6
CONTINUOUS
10
0.3278358267716535
20
0.2787175196850394
11
0.3270866141732283
21
0.282484094488189
0
LINE
8
BLACK
6
CONTINUOUS
10
0.3270866141732283
20
0.282484094488189
11
0.3270866141732283
21
0.3031533858267716
0
LINE
8
BLACK
6
CONTINUOUS
10
0.3270866141732283
20
0.3031533858267716
11
0.3278358267716535
21
0.3069199606299213
0
LINE
8
BLACK
6
CONTINUOUS
10
0.3278358267716535
20
0.3069199606299213
11
0.3299694094488189
21
0.3101131102362205
0
LINE
8
BLACK
6
CONTINUOUS
10
0.3299694094488189
20
0.3101131102362205
11
0.3331625590551181
21
0.3122466929133858
0
LINE
8
BLACK
6
CONTINUOUS
10
0.3331625590551181
20
0.3122466929133858
11
0.3369291338582677
21
0.312995905511811
0
LINE
8
BLACK
6
CONTINUOUS
10
0.3369291338582677
20
0.312995905511811
11
0.3723622047244095
21
0.312995905511811
0
LINE
8
BLACK
6
CONTINUOUS
10
0.3723622047244095
20
0.312995905511811
11
0.376128779527559
21
0.3122466929133858
0
LINE
8
BLACK
6
CONTINUOUS
10
-0.5710982677165354
20
0.3103531102362205
11
-0.5682244488188977
21
0.308432874015748
0
LINE
8
BLACK
6
CONTINUOUS
10
-0.5682244488188977
20
0.308432874015748
11
-0.5663042125984252
21
0.3055590551181102
0
LINE
8
BLACK
6
CONTINUOUS
10
-0.5663042125984252
20
0.3055590551181102
11
-0.5656299212598425
21
0.3021691338582677
0
LINE
8
BLACK
6
CONTINUOUS
10
-0.5656299212598425
20
0.3021691338582677
11
-0.5656299212598425
21
0.282484094488189
0
LINE
8
BLACK
6
CONTINUOUS
10
-0.5656299212598425
20
0.282484094488189
11
-0.5663042125984252
21
0.2790941732283465
0
LINE
8
BLACK
6
CONTINUOUS
10
-0.5663042125984252
20
0.2790941732283465
11
-0.5682244488188977
21
0.2762203543307086
0
LINE
8
BLACK
6
CONTINUOUS
10
-0.5682244488188977
20
0.2762203543307086
11
-0.5710982677165354
21
0.2743001181102362
0
LINE
8
BLACK
6
CONTINUOUS
10
-0.5710982677165354
20
0.2743001181102362
11
-0.574488188976378
21
0.2736258267716535
0
LINE
8
BLACK
6
CONTINUOUS
10
-0.574488188976378
20
0.2736258267716535
11
-0.5922047244094488
21
0.2736258267716535
0
LINE
8
BLACK
6
CONTINUOUS
10
-0.5922047244094488
20
0.2736258267716535
11
-0.5955946456692913
21
0.2743001181102362
0
LINE
8
BLACK
6
CONTINUOUS
10
-0.5955946456692913
20
0.2743001181102362
11
-0.5984684645669291
21
0.2762203543307086
0
LINE
8
BLACK
6
CONTINUOUS
10
-0.5984684645669291
20
0.2762203543307086
11
-0.6003887007874016
21
0.2790941732283465
0
LINE
8
BLACK
6
CONTINUOUS
10
-0.6003887007874016
20
0.2790941732283465
11
-0.6010629921259842
21
0.282484094488189
0
LINE
8
BLACK
6
CONTINUOUS
10
-0.6010629921259842
20
0.282484094488189
11
-0.6010629921259842
21
0.3021691338582677
0
LINE
8
BLACK
6
CONTINUOUS
10
-0.6010629921259842
20
0.3021691338582677
11
-0.6003887007874016
21
0.3055590551181102
0
LINE
8
BLACK
6
CONTINUOUS
10
-0.6003887007874016
20
0.3055590551181102
11
-0.5984684645669291
21
0.308432874015748
0
LINE
8
BLACK
6
CONTINUOUS
10
-0.5984684645669291
20
0.308432874015748
11
-0.5955946456692913
21
0.3103531102362205
0
LINE
8
BLACK
6
CONTINUOUS
10
-0.5955946456692913
20
0.3103531102362205
11
-0.5922047244094488
21
0.3110274015748031
0
LINE
8
BLACK
6
CONTINUOUS
10
-0.5922047244094488
20
0.3110274015748031
11
-0.574488188976378
21
0.3110274015748031
0
LINE
8
BLACK
6
CONTINUOUS
10
-0.574488188976378
20
0.3110274015748031
11
-0.5710982677165354
21
0.3103531102362205
0
LINE
8
BLACK
6
CONTINUOUS
10
-0.5100746456692913
20
0.3103531102362205
11
-0.5072008267716536
21
0.308432874015748
0
LINE
8
BLACK
6
CONTINUOUS
10
-0.5072008267716536
20
0.308432874015748
11
-0.5052805905511811
21
0.3055590551181102
0
LINE
8
BLACK
6
CONTINUOUS
10
-0.5052805905511811
20
0.3055590551181102
11
-0.5046062992125984
21
0.3021691338582677
0
LINE
8
BLACK
6
CONTINUOUS
10
-0.5046062992125984
20
0.3021691338582677
11
-0.5046062992125984
21
0.282484094488189
0
LINE
8
BLACK
6
CONTINUOUS
10
-0.5046062992125984
20
0.282484094488189
11
-0.5052805905511811
21
0.2790941732283465
0
LINE
8
BLACK
6
CONTINUOUS
10
-0.5052805905511811
20
0.2790941732283465
11
-0.5072008267716536
21
0.2762203543307086
0
LINE
8
BLACK
6
CONTINUOUS
10
-0.5072008267716536
20
0.2762203543307086
11
-0.5100746456692913
21
0.2743001181102362
0
LINE
8
BLACK
6
CONTINUOUS
10
-0.5100746456692913
20
0.2743001181102362
11
-0.5134645669291339
21
0.2736258267716535
0
LINE
8
BLACK
6
CONTINUOUS
10
-0.5134645669291339
20
0.2736258267716535
11
-0.5311811023622047
21
0.2736258267716535
0
LINE
8
BLACK
6
CONTINUOUS
10
-0.5311811023622047
20
0.2736258267716535
11
-0.5345710236220472
21
0.2743001181102362
0
LINE
8
BLACK
6
CONTINUOUS
10
-0.5345710236220472
20
0.2743001181102362
11
-0.5374448425196851
21
0.2762203543307086
0
LINE
8
BLACK
6
CONTINUOUS
10
-0.5374448425196851
20
0.2762203543307086
11
-0.5393650787401575
21
0.2790941732283465
0
LINE
8
BLACK
6
CONTINUOUS
10
-0.5393650787401575
20
0.2790941732283465
11
-0.5400393700787401
21
0.282484094488189
0
LINE
8
BLACK
6
CONTINUOUS
10
-0.5400393700787401
20
0.282484094488189
11
-0.5400393700787401
21
0.3021691338582677
0
LINE
8
BLACK
6
CONTINUOUS
10
-0.5400393700787401
20
0.3021691338582677
11
-0.5393650787401575
21
0.3055590551181102
0
LINE
8
BLACK
6
CONTINUOUS
10
-0.5393650787401575
20
0.3055590551181102
11
-0.5374448425196851
21
0.308432874015748
0
LINE
8
BLACK
6
CONTINUOUS
10
-0.5374448425196851
20
0.308432874015748
11
-0.5345710236220472
21
0.3103531102362205
0
LINE
8
BLACK
6
CONTINUOUS
10
-0.5345710236220472
20
0.3103531102362205
11
-0.5311811023622047
21
0.3110274015748031
0
LINE
8
BLACK
6
CONTINUOUS
10
-0.5311811023622047
20
0.3110274015748031
11
-0.5134645669291339
21
0.3110274015748031
0
LINE
8
BLACK
6
CONTINUOUS
10
-0.5134645669291339
20
0.3110274015748031
11
-0.5100746456692913
21
0.3103531102362205
0
LINE
8
BLACK
6
CONTINUOUS
10
-0.4445064173228346
20
0.310428031496063
11
-0.4419519291338583
21
0.3087211417322834
0
LINE
8
BLACK
6
CONTINUOUS
10
-0.4419519291338583
20
0.3087211417322834
11
-0.4402450393700788
21
0.3061666535433071
0
LINE
8
BLACK
6
CONTINUOUS
10
-0.4402450393700788
20
0.3061666535433071
11
-0.4396456692913386
21
0.3031533858267716
0
LINE
8
BLACK
6
CONTINUOUS
10
-0.4396456692913386
20
0.3031533858267716
11
-0.4396456692913386
21
0.281499842519685
0
LINE
8
BLACK
6
CONTINUOUS
10
-0.4396456692913386
20
0.281499842519685
11
-0.4402450393700788
21
0.2784865748031496
0
LINE
8
BLACK
6
CONTINUOUS
10
-0.4402450393700788
20
0.2784865748031496
11
-0.4419519291338583
21
0.2759320866141732
0
LINE
8
BLACK
6
CONTINUOUS
10
-0.4419519291338583
20
0.2759320866141732
11
-0.4445064173228346
21
0.2742251968503937
0
LINE
8
BLACK
6
CONTINUOUS
10
-0.4445064173228346
20
0.2742251968503937
11
-0.4475196850393701
21
0.2736258267716535
0
LINE
8
BLACK
6
CONTINUOUS
10
-0.4475196850393701
20
0.2736258267716535
11
-0.4632677165354331
21
0.2736258267716535
0
LINE
8
BLACK
6
CONTINUOUS
10
-0.4632677165354331
20
0.2736258267716535
11
-0.4662809842519685
21
0.2742251968503937
0
LINE
8
BLACK
6
CONTINUOUS
10
-0.4662809842519685
20
0.2742251968503937
11
-0.4688354724409449
21
0.2759320866141732
0
LINE
8
BLACK
6
CONTINUOUS
10
-0.4688354724409449
20
0.2759320866141732
11
-0.4705423622047244
21
0.2784865748031496
0
LINE
8
BLACK
6
CONTINUOUS
10
-0.4705423622047244
20
0.2784865748031496
11
-0.4711417322834646
21
0.281499842519685
0
LINE
8
BLACK
6
CONTINUOUS
10
-0.4711417322834646
20
0.281499842519685
11
-0.4711417322834646
21
0.3031533858267716
0
LINE
8
BLACK
6
CONTINUOUS
10
-0.4711417322834646
20
0.3031533858267716
11
-0.4705423622047244
21
0.3061666535433071
0
LINE
8
BLACK
6
CONTINUOUS
10
-0.4705423622047244
20
0.3061666535433071
11
-0.4688354724409449
21
0.3087211417322834
0
LINE
8
BLACK
6
CONTINUOUS
10
-0.4688354724409449
20
0.3087211417322834
11
-0.4662809842519685
21
0.310428031496063
0
LINE
8
BLACK
6
CONTINUOUS
10
-0.4662809842519685
20
0.310428031496063
11
-0.4632677165354331
21
0.3110274015748031
0
LINE
8
BLACK
6
CONTINUOUS
10
-0.4632677165354331
20
0.3110274015748031
11
-0.4475196850393701
21
0.3110274015748031
0
LINE
8
BLACK
6
CONTINUOUS
10
-0.4475196850393701
20
0.3110274015748031
11
-0.4445064173228346
21
0.310428031496063
0
LINE
8
BLACK
6
CONTINUOUS
10
-0.3795457874015748
20
0.310428031496063
11
-0.3769912992125984
21
0.3087211417322834
0
LINE
8
BLACK
6
CONTINUOUS
10
-0.3769912992125984
20
0.3087211417322834
11
-0.3752844094488189
21
0.3061666535433071
0
LINE
8
BLACK
6
CONTINUOUS
10
-0.3752844094488189
20
0.3061666535433071
11
-0.3746850393700787
21
0.3031533858267716
0
LINE
8
BLACK
6
CONTINUOUS
10
-0.3746850393700787
20
0.3031533858267716
11
-0.3746850393700787
21
0.281499842519685
0
LINE
8
BLACK
6
CONTINUOUS
10
-0.3746850393700787
20
0.281499842519685
11
-0.3752844094488189
21
0.2784865748031496
0
LINE
8
BLACK
6
CONTINUOUS
10
-0.3752844094488189
20
0.2784865748031496
11
-0.3769912992125984
21
0.2759320866141732
0
LINE
8
BLACK
6
CONTINUOUS
10
-0.3769912992125984
20
0.2759320866141732
11
-0.3795457874015748
21
0.2742251968503937
0
LINE
8
BLACK
6
CONTINUOUS
10
-0.3795457874015748
20
0.2742251968503937
11
-0.3825590551181102
21
0.2736258267716535
0
LINE
8
BLACK
6
CONTINUOUS
10
-0.3825590551181102
20
0.2736258267716535
11
-0.3983070866141732
21
0.2736258267716535
0
LINE
8
BLACK
6
CONTINUOUS
10
-0.3983070866141732
20
0.2736258267716535
11
-0.4013203543307087
21
0.2742251968503937
0
LINE
8
BLACK
6
CONTINUOUS
10
-0.4013203543307087
20
0.2742251968503937
11
-0.403874842519685
21
0.2759320866141732
0
LINE
8
BLACK
6
CONTINUOUS
10
-0.403874842519685
20
0.2759320866141732
11
-0.4055817322834646
21
0.2784865748031496
0
LINE
8
BLACK
6
CONTINUOUS
10
-0.4055817322834646
20
0.2784865748031496
11
-0.4061811023622047
21
0.281499842519685
0
LINE
8
BLACK
6
CONTINUOUS
10
-0.4061811023622047
20
0.281499842519685
11
-0.4061811023622047
21
0.3031533858267716
0
LINE
8
BLACK
6
CONTINUOUS
10
-0.4061811023622047
20
0.3031533858267716
11
-0.4055817322834646
21
0.3061666535433071
0
LINE
8
BLACK
6
CONTINUOUS
10
-0.4055817322834646
20
0.3061666535433071
11
-0.403874842519685
21
0.3087211417322834
0
LINE
8
BLACK
6
CONTINUOUS
10
-0.403874842519685
20
0.3087211417322834
11
-0.4013203543307087
21
0.310428031496063
0
LINE
8
BLACK
6
CONTINUOUS
10
-0.4013203543307087
20
0.310428031496063
11
-0.3983070866141732
21
0.3110274015748031
0
LINE
8
BLACK
6
CONTINUOUS
10
-0.3983070866141732
20
0.3110274015748031
11
-0.3825590551181102
21
0.3110274015748031
0
LINE
8
BLACK
6
CONTINUOUS
10
-0.3825590551181102
20
0.3110274015748031
11
-0.3795457874015748
21
0.310428031496063
0
LINE
8
BLACK
6
CONTINUOUS
10
-0.314585157480315
20
0.310428031496063
11
-0.3120306692913386
21
0.3087211417322834
0
LINE
8
BLACK
6
CONTINUOUS
10
-0.3120306692913386
20
0.3087211417322834
11
-0.3103237795275591
21
0.3061666535433071
0
LINE
8
BLACK
6
CONTINUOUS
10
-0.3103237795275591
20
0.3061666535433071
11
-0.3097244094488189
21
0.3031533858267716
0
LINE
8
BLACK
6
CONTINUOUS
10
-0.3097244094488189
20
0.3031533858267716
11
-0.3097244094488189
21
0.281499842519685
0
LINE
8
BLACK
6
CONTINUOUS
10
-0.3097244094488189
20
0.281499842519685
11
-0.3103237795275591
21
0.2784865748031496
0
LINE
8
BLACK
6
CONTINUOUS
10
-0.3103237795275591
20
0.2784865748031496
11
-0.3120306692913386
21
0.2759320866141732
0
LINE
8
BLACK
6
CONTINUOUS
10
-0.3120306692913386
20
0.2759320866141732
11
-0.314585157480315
21
0.2742251968503937
0
LINE
8
BLACK
6
CONTINUOUS
10
-0.314585157480315
20
0.2742251968503937
11
-0.3175984251968504
21
0.2736258267716535
0
LINE
8
BLACK
6
CONTINUOUS
10
-0.3175984251968504
20
0.2736258267716535
11
-0.3333464566929134
21
0.2736258267716535
0
LINE
8
BLACK
6
CONTINUOUS
10
-0.3333464566929134
20
0.2736258267716535
11
-0.3363597244094488
21
0.2742251968503937
0
LINE
8
BLACK
6
CONTINUOUS
10
-0.3363597244094488
20
0.2742251968503937
11
-0.3389142125984252
21
0.2759320866141732
0
LINE
8
BLACK
6
CONTINUOUS
10
-0.3389142125984252
20
0.2759320866141732
11
-0.3406211023622047
21
0.2784865748031496
0
LINE
8
BLACK
6
CONTINUOUS
10
-0.3406211023622047
20
0.2784865748031496
11
-0.3412204724409449
21
0.281499842519685
0
LINE
8
BLACK
6
CONTINUOUS
10
-0.3412204724409449
20
0.281499842519685
11
-0.3412204724409449
21
0.3031533858267716
0
LINE
8
BLACK
6
CONTINUOUS
10
-0.3412204724409449
20
0.3031533858267716
11
-0.3406211023622047
21
0.3061666535433071
0
LINE
8
BLACK
6
CONTINUOUS
10
-0.3406211023622047
20
0.3061666535433071
11
-0.3389142125984252
21
0.3087211417322834
0
LINE
8
BLACK
6
CONTINUOUS
10
-0.3389142125984252
20
0.3087211417322834
11
-0.3363597244094488
21
0.310428031496063
0
LINE
8
BLACK
6
CONTINUOUS
10
-0.3363597244094488
20
0.310428031496063
11
-0.3333464566929134
21
0.3110274015748031
0
LINE
8
BLACK
6
CONTINUOUS
10
-0.3333464566929134
20
0.3110274015748031
11
-0.3175984251968504
21
0.3110274015748031
0
LINE
8
BLACK
6
CONTINUOUS
10
-0.3175984251968504
20
0.3110274015748031
11
-0.314585157480315
21
0.310428031496063
0
LINE
8
BLACK
6
CONTINUOUS
10
-0.2496245275590551
20
0.310428031496063
11
-0.2470700393700787
21
0.3087211417322834
0
LINE
8
BLACK
6
CONTINUOUS
10
-0.2470700393700787
20
0.3087211417322834
11
-0.2453631496062992
21
0.3061666535433071
0
LINE
8
BLACK
6
CONTINUOUS
10
-0.2453631496062992
20
0.3061666535433071
11
-0.244763779527559
21
0.3031533858267716
0
LINE
8
BLACK
6
CONTINUOUS
10
-0.244763779527559
20
0.3031533858267716
11
-0.244763779527559
21
0.281499842519685
0
LINE
8
BLACK
6
CONTINUOUS
10
-0.244763779527559
20
0.281499842519685
11
-0.2453631496062992
21
0.2784865748031496
0
LINE
8
BLACK
6
CONTINUOUS
10
-0.2453631496062992
20
0.2784865748031496
11
-0.2470700393700787
21
0.2759320866141732
0
LINE
8
BLACK
6
CONTINUOUS
10
-0.2470700393700787
20
0.2759320866141732
11
-0.2496245275590551
21
0.2742251968503937
0
LINE
8
BLACK
6
CONTINUOUS
10
-0.2496245275590551
20
0.2742251968503937
11
-0.2526377952755905
21
0.2736258267716535
0
LINE
8
BLACK
6
CONTINUOUS
10
-0.2526377952755905
20
0.2736258267716535
11
-0.2683858267716535
21
0.2736258267716535
0
LINE
8
BLACK
6
CONTINUOUS
10
-0.2683858267716535
20
0.2736258267716535
11
-0.271399094488189
21
0.2742251968503937
0
LINE
8
BLACK
6
CONTINUOUS
10
-0.271399094488189
20
0.2742251968503937
11
-0.2739535826771654
21
0.2759320866141732
0
LINE
8
BLACK
6
CONTINUOUS
10
-0.2739535826771654
20
0.2759320866141732
11
-0.2756604724409449
21
0.2784865748031496
0
LINE
8
BLACK
6
CONTINUOUS
10
-0.2756604724409449
20
0.2784865748031496
11
-0.2762598425196851
21
0.281499842519685
0
LINE
8
BLACK
6
CONTINUOUS
10
-0.2762598425196851
20
0.281499842519685
11
-0.2762598425196851
21
0.3031533858267716
0
LINE
8
BLACK
6
CONTINUOUS
10
-0.2762598425196851
20
0.3031533858267716
11
-0.2756604724409449
21
0.3061666535433071
0
LINE
8
BLACK
6
CONTINUOUS
10
-0.2756604724409449
20
0.3061666535433071
11
-0.2739535826771654
21
0.3087211417322834
0
LINE
8
BLACK
6
CONTINUOUS
10
-0.2739535826771654
20
0.3087211417322834
11
-0.271399094488189
21
0.310428031496063
0
LINE
8
BLACK
6
CONTINUOUS
10
-0.271399094488189
20
0.310428031496063
11
-0.2683858267716535
21
0.3110274015748031
0
LINE
8
BLACK
6
CONTINUOUS
10
-0.2683858267716535
20
0.3110274015748031
11
-0.2526377952755905
21
0.3110274015748031
0
LINE
8
BLACK
6
CONTINUOUS
10
-0.2526377952755905
20
0.3110274015748031
11
-0.2496245275590551
21
0.310428031496063
0
LINE
8
BLACK
6
CONTINUOUS
10
0.0017363779527559
20
0.3142901181102362
11
0.0046101968503937
21
0.3123698818897638
0
LINE
8
BLACK
6
CONTINUOUS
10
0.0046101968503937
20
0.3123698818897638
11
0.0065304330708661
21
0.309496062992126
0
LINE
8
BLACK
6
CONTINUOUS
10
0.0065304330708661
20
0.309496062992126
11
0.0072047244094488
21
0.3061061417322835
0
LINE
8
BLACK
6
CONTINUOUS
10
0.0072047244094488
20
0.3061061417322835
11
0.0072047244094488
21
0.2883896062992126
0
LINE
8
BLACK
6
CONTINUOUS
10
0.0072047244094488
20
0.2883896062992126
11
0.0065304330708661
21
0.2849996850393701
0
LINE
8
BLACK
6
CONTINUOUS
10
0.0065304330708661
20
0.2849996850393701
11
0.0046101968503937
21
0.2821258661417323
0
LINE
8
BLACK
6
CONTINUOUS
10
0.0046101968503937
20
0.2821258661417323
11
0.0017363779527559
21
0.2802056299212599
0
LINE
8
BLACK
6
CONTINUOUS
10
0.0017363779527559
20
0.2802056299212599
11
-0.0016535433070866
21
0.2795313385826771
0
LINE
8
BLACK
6
CONTINUOUS
10
-0.0016535433070866
20
0.2795313385826771
11
-0.0213385826771654
21
0.2795313385826771
0
LINE
8
BLACK
6
CONTINUOUS
10
-0.0213385826771654
20
0.2795313385826771
11
-0.0247285039370079
21
0.2802056299212599
0
LINE
8
BLACK
6
CONTINUOUS
10
-0.0247285039370079
20
0.2802056299212599
11
-0.0276023228346457
21
0.2821258661417323
0
LINE
8
BLACK
6
CONTINUOUS
10
-0.0276023228346457
20
0.2821258661417323
11
-0.0295225590551181
21
0.2849996850393701
0
LINE
8
BLACK
6
CONTINUOUS
10
-0.0295225590551181
20
0.2849996850393701
11
-0.0301968503937008
21
0.2883896062992126
0
LINE
8
BLACK
6
CONTINUOUS
10
-0.0301968503937008
20
0.2883896062992126
11
-0.0301968503937008
21
0.3061061417322835
0
LINE
8
BLACK
6
CONTINUOUS
10
-0.0301968503937008
20
0.3061061417322835
11
-0.0295225590551181
21
0.309496062992126
0
LINE
8
BLACK
6
CONTINUOUS
10
-0.0295225590551181
20
0.309496062992126
11
-0.0276023228346457
21
0.3123698818897638
0
LINE
8
BLACK
6
CONTINUOUS
10
-0.0276023228346457
20
0.3123698818897638
11
-0.0247285039370079
21
0.3142901181102362
0
LINE
8
BLACK
6
CONTINUOUS
10
-0.0247285039370079
20
0.3142901181102362
11
-0.0213385826771654
21
0.3149644094488189
0
LINE
8
BLACK
6
CONTINUOUS
10
-0.0213385826771654
20
0.3149644094488189
11
-0.0016535433070866
21
0.3149644094488189
0
LINE
8
BLACK
6
CONTINUOUS
10
-0.0016535433070866
20
0.3149644094488189
11
0.0017363779527559
21
0.3142901181102362
0
LINE
8
BLACK
6
CONTINUOUS
10
-0.1617951574803149
20
0.311562125984252
11
-0.1598792913385827
21
0.310281968503937
0
LINE
8
BLACK
6
CONTINUOUS
10
-0.1598792913385827
20
0.310281968503937
11
-0.1585991338582677
21
0.3083661023622047
0
LINE
8
BLACK
6
CONTINUOUS
10
-0.1585991338582677
20
0.3083661023622047
11
-0.1581496062992126
21
0.3061061417322835
0
LINE
8
BLACK
6
CONTINUOUS
10
-0.1581496062992126
20
0.3061061417322835
11
-0.1581496062992126
21
0.2942951181102362
0
LINE
8
BLACK
6
CONTINUOUS
10
-0.1581496062992126
20
0.2942951181102362
11
-0.1585991338582677
21
0.2920351574803149
0
LINE
8
BLACK
6
CONTINUOUS
10
-0.1585991338582677
20
0.2920351574803149
11
-0.1598792913385827
21
0.2901192913385827
0
LINE
8
BLACK
6
CONTINUOUS
10
-0.1598792913385827
20
0.2901192913385827
11
-0.1617951574803149
21
0.2888391338582677
0
LINE
8
BLACK
6
CONTINUOUS
10
-0.1617951574803149
20
0.2888391338582677
11
-0.1640551181102362
21
0.2883896062992126
0
LINE
8
BLACK
6
CONTINUOUS
10
-0.1640551181102362
20
0.2883896062992126
11
-0.2044094488188976
21
0.2883896062992126
0
LINE
8
BLACK
6
CONTINUOUS
10
-0.2044094488188976
20
0.2883896062992126
11
-0.2066694094488189
21
0.2888391338582677
0
LINE
8
BLACK
6
CONTINUOUS
10
-0.2066694094488189
20
0.2888391338582677
11
-0.2085852755905512
21
0.2901192913385827
0
LINE
8
BLACK
6
CONTINUOUS
10
-0.2085852755905512
20
0.2901192913385827
11
-0.2098654330708661
21
0.2920351574803149
0
LINE
8
BLACK
6
CONTINUOUS
10
-0.2098654330708661
20
0.2920351574803149
11
-0.2103149606299212
21
0.2942951181102362
0
LINE
8
BLACK
6
CONTINUOUS
10
-0.2103149606299212
20
0.2942951181102362
11
-0.2103149606299212
21
0.3061061417322835
0
LINE
8
BLACK
6
CONTINUOUS
10
-0.2103149606299212
20
0.3061061417322835
11
-0.2098654330708661
21
0.3083661023622047
0
LINE
8
BLACK
6
CONTINUOUS
10
-0.2098654330708661
20
0.3083661023622047
11
-0.2085852755905512
21
0.310281968503937
0
LINE
8
BLACK
6
CONTINUOUS
10
-0.2085852755905512
20
0.310281968503937
11
-0.2066694094488189
21
0.311562125984252
0
LINE
8
BLACK
6
CONTINUOUS
10
-0.2066694094488189
20
0.311562125984252
11
-0.2044094488188976
21
0.3120116535433071
0
LINE
8
BLACK
6
CONTINUOUS
10
-0.2044094488188976
20
0.3120116535433071
11
-0.1640551181102362
21
0.3120116535433071
0
LINE
8
BLACK
6
CONTINUOUS
10
-0.1640551181102362
20
0.3120116535433071
11
-0.1617951574803149
21
0.311562125984252
0
LINE
8
BLACK
6
CONTINUOUS
10
-0.0722282283464567
20
0.311562125984252
11
-0.0703123622047244
21
0.310281968503937
0
LINE
8
BLACK
6
CONTINUOUS
10
-0.0703123622047244
20
0.310281968503937
11
-0.0690322047244094
21
0.3083661023622047
0
LINE
8
BLACK
6
CONTINUOUS
10
-0.0690322047244094
20
0.3083661023622047
11
-0.0685826771653543
21
0.3061061417322835
0
LINE
8
BLACK
6
CONTINUOUS
10
-0.0685826771653543
20
0.3061061417322835
11
-0.0685826771653543
21
0.2942951181102362
0
LINE
8
BLACK
6
CONTINUOUS
10
-0.0685826771653543
20
0.2942951181102362
11
-0.0690322047244094
21
0.2920351574803149
0
LINE
8
BLACK
6
CONTINUOUS
10
-0.0690322047244094
20
0.2920351574803149
11
-0.0703123622047244
21
0.2901192913385827
0
LINE
8
BLACK
6
CONTINUOUS
10
-0.0703123622047244
20
0.2901192913385827
11
-0.0722282283464567
21
0.2888391338582677
0
LINE
8
BLACK
6
CONTINUOUS
10
-0.0722282283464567
20
0.2888391338582677
11
-0.0744881889763779
21
0.2883896062992126
0
LINE
8
BLACK
6
CONTINUOUS
10
-0.0744881889763779
20
0.2883896062992126
11
-0.1148425196850394
21
0.2883896062992126
0
LINE
8
BLACK
6
CONTINUOUS
10
-0.1148425196850394
20
0.2883896062992126
11
-0.1171024803149606
21
0.2888391338582677
0
LINE
8
BLACK
6
CONTINUOUS
10
-0.1171024803149606
20
0.2888391338582677
11
-0.1190183464566929
21
0.2901192913385827
0
LINE
8
BLACK
6
CONTINUOUS
10
-0.1190183464566929
20
0.2901192913385827
11
-0.1202985039370079
21
0.2920351574803149
0
LINE
8
BLACK
6
CONTINUOUS
10
-0.1202985039370079
20
0.2920351574803149
11
-0.120748031496063
21
0.2942951181102362
0
LINE
8
BLACK
6
CONTINUOUS
10
-0.120748031496063
20
0.2942951181102362
11
-0.120748031496063
21
0.3061061417322835
0
LINE
8
BLACK
6
CONTINUOUS
10
-0.120748031496063
20
0.3061061417322835
11
-0.1202985039370079
21
0.3083661023622047
0
LINE
8
BLACK
6
CONTINUOUS
10
-0.1202985039370079
20
0.3083661023622047
11
-0.1190183464566929
21
0.310281968503937
0
LINE
8
BLACK
6
CONTINUOUS
10
-0.1190183464566929
20
0.310281968503937
11
-0.1171024803149606
21
0.311562125984252
0
LINE
8
BLACK
6
CONTINUOUS
10
-0.1171024803149606
20
0.311562125984252
11
-0.1148425196850394
21
0.3120116535433071
0
LINE
8
BLACK
6
CONTINUOUS
10
-0.1148425196850394
20
0.3120116535433071
11
-0.0744881889763779
21
0.3120116535433071
0
LINE
8
BLACK
6
CONTINUOUS
10
-0.0744881889763779
20
0.3120116535433071
11
-0.0722282283464567
21
0.311562125984252
0
LINE
8
BLACK
6
CONTINUOUS
10
-0.7319814566929134
20
0.3548057480314961
11
-0.7287883070866141
21
0.3526721653543307
0
LINE
8
BLACK
6
CONTINUOUS
10
-0.7287883070866141
20
0.3526721653543307
11
-0.7266547244094488
21
0.3494790157480315
0
LINE
8
BLACK
6
CONTINUOUS
10
-0.7266547244094488
20
0.3494790157480315
11
-0.7259055118110236
21
0.3457124409448819
0
LINE
8
BLACK
6
CONTINUOUS
10
-0.7259055118110236
20
0.3457124409448819
11
-0.7259055118110236
21
0.3260274015748031
0
LINE
8
BLACK
6
CONTINUOUS
10
-0.7259055118110236
20
0.3260274015748031
11
-0.7266547244094488
21
0.3222608267716535
0
LINE
8
BLACK
6
CONTINUOUS
10
-0.7266547244094488
20
0.3222608267716535
11
-0.7287883070866141
21
0.3190676771653543
0
LINE
8
BLACK
6
CONTINUOUS
10
-0.7287883070866141
20
0.3190676771653543
11
-0.7319814566929134
21
0.316934094488189
0
LINE
8
BLACK
6
CONTINUOUS
10
-0.7319814566929134
20
0.316934094488189
11
-0.7357480314960629
21
0.3161848818897638
0
LINE
8
BLACK
6
CONTINUOUS
10
-0.7357480314960629
20
0.3161848818897638
11
-0.8223622047244095
21
0.3161848818897638
0
LINE
8
BLACK
6
CONTINUOUS
10
-0.8223622047244095
20
0.3161848818897638
11
-0.826128779527559
21
0.316934094488189
0
LINE
8
BLACK
6
CONTINUOUS
10
-0.826128779527559
20
0.316934094488189
11
-0.8293219291338583
21
0.3190676771653543
0
LINE
8
BLACK
6
CONTINUOUS
10
-0.8293219291338583
20
0.3190676771653543
11
-0.8314555118110236
21
0.3222608267716535
0
LINE
8
BLACK
6
CONTINUOUS
10
-0.8314555118110236
20
0.3222608267716535
11
-0.8322047244094488
21
0.3260274015748031
0
LINE
8
BLACK
6
CONTINUOUS
10
-0.8322047244094488
20
0.3260274015748031
11
-0.8322047244094488
21
0.3457124409448819
0
LINE
8
BLACK
6
CONTINUOUS
10
-0.8322047244094488
20
0.3457124409448819
11
-0.8314555118110236
21
0.3494790157480315
0
LINE
8
BLACK
6
CONTINUOUS
10
-0.8314555118110236
20
0.3494790157480315
11
-0.8293219291338583
21
0.3526721653543307
0
LINE
8
BLACK
6
CONTINUOUS
10
-0.8293219291338583
20
0.3526721653543307
11
-0.826128779527559
21
0.3548057480314961
0
LINE
8
BLACK
6
CONTINUOUS
10
-0.826128779527559
20
0.3548057480314961
11
-0.8223622047244095
21
0.3555549606299213
0
LINE
8
BLACK
6
CONTINUOUS
10
-0.8223622047244095
20
0.3555549606299213
11
-0.7357480314960629
21
0.3555549606299213
0
LINE
8
BLACK
6
CONTINUOUS
10
-0.7357480314960629
20
0.3555549606299213
11
-0.7319814566929134
21
0.3548057480314961
  0
ENDSEC
  0
EOF
