  0
SECTION
  2
HEADER
  9
$ANGBASE
  50
0.0
  9
$ANGDIR
  70
1
  9
$MEASUREMENT
  70
0
  0
ENDSEC
  0
SECTION
  2
TABLES
  0
TABLE
  2
LTYPE
  70
4
  0
LTYPE
  5
40F
  2
CONTINUOUS
  70
0
  3
Solid line
  72
65
  73
0
  40
0.0
  0
LTYPE
  5
410
  2
DASHDOT
 70
0
  3
Dash Dot ____ _ ____ _
 72
65
 73
4
 40
2.0
 49
1.25
 49
-0.25
 49
0.25
 49
-0.25
  0
LTYPE
  5
411
  2
DASHED
 70
0
  3
Dashed __ __ __ __ __
 72
65
 73
2
 40
0.75
 49
0.5
 49
-0.25
  0
LTYPE
  5
43B
  2
DOTTED
 70
0
  3
Dotted .  .  .  .
 72
65
 73
2
 40
0.2
 49
0.0
 49
-0.2
  0
ENDTAB
  0
TABLE
  2
STYLE
  70
4
  0
STYLE
  2
KICAD
  70
0
  40
0
  41
1
  42
1
  50
0
  71
0
  3
isocp.shx
  0
STYLE
  2
KICADB
  70
0
  40
0
  41
1
  42
1
  50
0
  71
0
  3
isocp.shx
  0
STYLE
  2
KICADI
  70
0
  40
0
  41
1
  42
1
  50
15
  71
0
  3
isocp.shx
  0
STYLE
  2
KICADBI
  70
0
  40
0
  41
1
  42
1
  50
15
  71
0
  3
isocp.shx
  0
ENDTAB
  0
TABLE
  2
LAYER
  70
1
  0
LAYER
  2
BLACK
  70
0
  62
7
  6
CONTINUOUS
  0
ENDTAB
  0
ENDSEC
  0
SECTION
  2
ENTITIES
0
LINE
8
BLACK
6
CONTINUOUS
10
-0.526076
20
-0.147603
11
-0.522883
21
-0.149737
0
LINE
8
BLACK
6
CONTINUOUS
10
-0.522883
20
-0.149737
11
-0.520749
21
-0.15293
0
LINE
8
BLACK
6
CONTINUOUS
10
-0.520749
20
-0.15293
11
-0.52
21
-0.156697
0
LINE
8
BLACK
6
CONTINUOUS
10
-0.52
20
-0.156697
11
-0.52
21
-0.176382
0
LINE
8
BLACK
6
CONTINUOUS
10
-0.52
20
-0.176382
11
-0.520749
21
-0.180148
0
LINE
8
BLACK
6
CONTINUOUS
10
-0.520749
20
-0.180148
11
-0.522883
21
-0.183341
0
LINE
8
BLACK
6
CONTINUOUS
10
-0.522883
20
-0.183341
11
-0.526076
21
-0.185475
0
LINE
8
BLACK
6
CONTINUOUS
10
-0.526076
20
-0.185475
11
-0.529843
21
-0.186224
0
LINE
8
BLACK
6
CONTINUOUS
10
-0.529843
20
-0.186224
11
-0.616457
21
-0.186224
0
LINE
8
BLACK
6
CONTINUOUS
10
-0.616457
20
-0.186224
11
-0.620223
21
-0.185475
0
LINE
8
BLACK
6
CONTINUOUS
10
-0.620223
20
-0.185475
11
-0.623416
21
-0.183341
0
LINE
8
BLACK
6
CONTINUOUS
10
-0.623416
20
-0.183341
11
-0.62555
21
-0.180148
0
LINE
8
BLACK
6
CONTINUOUS
10
-0.62555
20
-0.180148
11
-0.626299
21
-0.176382
0
LINE
8
BLACK
6
CONTINUOUS
10
-0.626299
20
-0.176382
11
-0.626299
21
-0.156697
0
LINE
8
BLACK
6
CONTINUOUS
10
-0.626299
20
-0.156697
11
-0.62555
21
-0.15293
0
LINE
8
BLACK
6
CONTINUOUS
10
-0.62555
20
-0.15293
11
-0.623416
21
-0.149737
0
LINE
8
BLACK
6
CONTINUOUS
10
-0.623416
20
-0.149737
11
-0.620223
21
-0.147603
0
LINE
8
BLACK
6
CONTINUOUS
10
-0.620223
20
-0.147603
11
-0.616457
21
-0.146854
0
LINE
8
BLACK
6
CONTINUOUS
10
-0.616457
20
-0.146854
11
-0.529843
21
-0.146854
0
LINE
8
BLACK
6
CONTINUOUS
10
-0.529843
20
-0.146854
11
-0.526076
21
-0.147603
0
LINE
8
BLACK
6
CONTINUOUS
10
0.0354936
20
-0.126584
11
0.0380481
21
-0.128291
0
LINE
8
BLACK
6
CONTINUOUS
10
0.0380481
20
-0.128291
11
0.039755
21
-0.130845
0
LINE
8
BLACK
6
CONTINUOUS
10
0.039755
20
-0.130845
11
0.0403543
21
-0.133858
0
LINE
8
BLACK
6
CONTINUOUS
10
0.0403543
20
-0.133858
11
0.0403543
21
-0.149606
0
LINE
8
BLACK
6
CONTINUOUS
10
0.0403543
20
-0.149606
11
0.039755
21
-0.15262
0
LINE
8
BLACK
6
CONTINUOUS
10
0.039755
20
-0.15262
11
0.0380481
21
-0.155174
0
LINE
8
BLACK
6
CONTINUOUS
10
0.0380481
20
-0.155174
11
0.0354936
21
-0.156881
0
LINE
8
BLACK
6
CONTINUOUS
10
0.0354936
20
-0.156881
11
0.0324803
21
-0.15748
0
LINE
8
BLACK
6
CONTINUOUS
10
0.0324803
20
-0.15748
11
0.0108268
21
-0.15748
0
LINE
8
BLACK
6
CONTINUOUS
10
0.0108268
20
-0.15748
11
0.0078135
21
-0.156881
0
LINE
8
BLACK
6
CONTINUOUS
10
0.0078135
20
-0.156881
11
0.00525902
21
-0.155174
0
LINE
8
BLACK
6
CONTINUOUS
10
0.00525902
20
-0.155174
11
0.00355213
21
-0.15262
0
LINE
8
BLACK
6
CONTINUOUS
10
0.00355213
20
-0.15262
11
0.00295276
21
-0.149606
0
LINE
8
BLACK
6
CONTINUOUS
10
0.00295276
20
-0.149606
11
0.00295276
21
-0.133858
0
LINE
8
BLACK
6
CONTINUOUS
10
0.00295276
20
-0.133858
11
0.00355213
21
-0.130845
0
LINE
8
BLACK
6
CONTINUOUS
10
0.00355213
20
-0.130845
11
0.00525902
21
-0.128291
0
LINE
8
BLACK
6
CONTINUOUS
10
0.00525902
20
-0.128291
11
0.0078135
21
-0.126584
0
LINE
8
BLACK
6
CONTINUOUS
10
0.0078135
20
-0.126584
11
0.0108268
21
-0.125984
0
LINE
8
BLACK
6
CONTINUOUS
10
0.0108268
20
-0.125984
11
0.0324803
21
-0.125984
0
LINE
8
BLACK
6
CONTINUOUS
10
0.0324803
20
-0.125984
11
0.0354936
21
-0.126584
0
LINE
8
BLACK
6
CONTINUOUS
10
0.10384
20
-0.126328
11
0.106395
21
-0.128035
0
LINE
8
BLACK
6
CONTINUOUS
10
0.106395
20
-0.128035
11
0.108101
21
-0.130589
0
LINE
8
BLACK
6
CONTINUOUS
10
0.108101
20
-0.130589
11
0.108701
21
-0.133602
0
LINE
8
BLACK
6
CONTINUOUS
10
0.108701
20
-0.133602
11
0.108701
21
-0.14935
0
LINE
8
BLACK
6
CONTINUOUS
10
0.108701
20
-0.14935
11
0.108101
21
-0.152364
0
LINE
8
BLACK
6
CONTINUOUS
10
0.108101
20
-0.152364
11
0.106395
21
-0.154918
0
LINE
8
BLACK
6
CONTINUOUS
10
0.106395
20
-0.154918
11
0.10384
21
-0.156625
0
LINE
8
BLACK
6
CONTINUOUS
10
0.10384
20
-0.156625
11
0.100827
21
-0.157224
0
LINE
8
BLACK
6
CONTINUOUS
10
0.100827
20
-0.157224
11
0.0791732
21
-0.157224
0
LINE
8
BLACK
6
CONTINUOUS
10
0.0791732
20
-0.157224
11
0.07616
21
-0.156625
0
LINE
8
BLACK
6
CONTINUOUS
10
0.07616
20
-0.156625
11
0.0736055
21
-0.154918
0
LINE
8
BLACK
6
CONTINUOUS
10
0.0736055
20
-0.154918
11
0.0718986
21
-0.152364
0
LINE
8
BLACK
6
CONTINUOUS
10
0.0718986
20
-0.152364
11
0.0712992
21
-0.14935
0
LINE
8
BLACK
6
CONTINUOUS
10
0.0712992
20
-0.14935
11
0.0712992
21
-0.133602
0
LINE
8
BLACK
6
CONTINUOUS
10
0.0712992
20
-0.133602
11
0.0718986
21
-0.130589
0
LINE
8
BLACK
6
CONTINUOUS
10
0.0718986
20
-0.130589
11
0.0736055
21
-0.128035
0
LINE
8
BLACK
6
CONTINUOUS
10
0.0736055
20
-0.128035
11
0.07616
21
-0.126328
0
LINE
8
BLACK
6
CONTINUOUS
10
0.07616
20
-0.126328
11
0.0791732
21
-0.125728
0
LINE
8
BLACK
6
CONTINUOUS
10
0.0791732
20
-0.125728
11
0.100827
21
-0.125728
0
LINE
8
BLACK
6
CONTINUOUS
10
0.100827
20
-0.125728
11
0.10384
21
-0.126328
0
LINE
8
BLACK
6
CONTINUOUS
10
0.403232
20
-0.106481
11
0.406106
21
-0.108402
0
LINE
8
BLACK
6
CONTINUOUS
10
0.406106
20
-0.108402
11
0.408026
21
-0.111275
0
LINE
8
BLACK
6
CONTINUOUS
10
0.408026
20
-0.111275
11
0.408701
21
-0.114665
0
LINE
8
BLACK
6
CONTINUOUS
10
0.408701
20
-0.114665
11
0.408701
21
-0.132382
0
LINE
8
BLACK
6
CONTINUOUS
10
0.408701
20
-0.132382
11
0.408026
21
-0.135772
0
LINE
8
BLACK
6
CONTINUOUS
10
0.408026
20
-0.135772
11
0.406106
21
-0.138646
0
LINE
8
BLACK
6
CONTINUOUS
10
0.406106
20
-0.138646
11
0.403232
21
-0.140566
0
LINE
8
BLACK
6
CONTINUOUS
10
0.403232
20
-0.140566
11
0.399843
21
-0.14124
0
LINE
8
BLACK
6
CONTINUOUS
10
0.399843
20
-0.14124
11
0.380157
21
-0.14124
0
LINE
8
BLACK
6
CONTINUOUS
10
0.380157
20
-0.14124
11
0.376768
21
-0.140566
0
LINE
8
BLACK
6
CONTINUOUS
10
0.376768
20
-0.140566
11
0.373894
21
-0.138646
0
LINE
8
BLACK
6
CONTINUOUS
10
0.373894
20
-0.138646
11
0.371974
21
-0.135772
0
LINE
8
BLACK
6
CONTINUOUS
10
0.371974
20
-0.135772
11
0.371299
21
-0.132382
0
LINE
8
BLACK
6
CONTINUOUS
10
0.371299
20
-0.132382
11
0.371299
21
-0.114665
0
LINE
8
BLACK
6
CONTINUOUS
10
0.371299
20
-0.114665
11
0.371974
21
-0.111275
0
LINE
8
BLACK
6
CONTINUOUS
10
0.371974
20
-0.111275
11
0.373894
21
-0.108402
0
LINE
8
BLACK
6
CONTINUOUS
10
0.373894
20
-0.108402
11
0.376768
21
-0.106481
0
LINE
8
BLACK
6
CONTINUOUS
10
0.376768
20
-0.106481
11
0.380157
21
-0.105807
0
LINE
8
BLACK
6
CONTINUOUS
10
0.380157
20
-0.105807
11
0.399843
21
-0.105807
0
LINE
8
BLACK
6
CONTINUOUS
10
0.399843
20
-0.105807
11
0.403232
21
-0.106481
0
LINE
8
BLACK
6
CONTINUOUS
10
0.492283
20
-0.140197
11
0.476535
21
-0.140197
0
LINE
8
BLACK
6
CONTINUOUS
10
0.476535
20
-0.140197
11
0.476535
21
-0.114606
0
LINE
8
BLACK
6
CONTINUOUS
10
0.476535
20
-0.114606
11
0.492283
21
-0.114606
0
LINE
8
BLACK
6
CONTINUOUS
10
0.492283
20
-0.114606
11
0.492283
21
-0.140197
0
LINE
8
BLACK
6
CONTINUOUS
10
0.543465
20
-0.140197
11
0.527717
21
-0.140197
0
LINE
8
BLACK
6
CONTINUOUS
10
0.527717
20
-0.140197
11
0.527717
21
-0.114606
0
LINE
8
BLACK
6
CONTINUOUS
10
0.527717
20
-0.114606
11
0.543465
21
-0.114606
0
LINE
8
BLACK
6
CONTINUOUS
10
0.543465
20
-0.114606
11
0.543465
21
-0.140197
0
LINE
8
BLACK
6
CONTINUOUS
10
-0.211706
20
-0.0696506
11
-0.208513
21
-0.0717842
0
LINE
8
BLACK
6
CONTINUOUS
10
-0.208513
20
-0.0717842
11
-0.206379
21
-0.0749774
0
LINE
8
BLACK
6
CONTINUOUS
10
-0.206379
20
-0.0749774
11
-0.20563
21
-0.0787439
0
LINE
8
BLACK
6
CONTINUOUS
10
-0.20563
20
-0.0787439
11
-0.20563
21
-0.127957
0
LINE
8
BLACK
6
CONTINUOUS
10
-0.20563
20
-0.127957
11
-0.206379
21
-0.131723
0
LINE
8
BLACK
6
CONTINUOUS
10
-0.206379
20
-0.131723
11
-0.208513
21
-0.134916
0
LINE
8
BLACK
6
CONTINUOUS
10
-0.208513
20
-0.134916
11
-0.211706
21
-0.13705
0
LINE
8
BLACK
6
CONTINUOUS
10
-0.211706
20
-0.13705
11
-0.215472
21
-0.137799
0
LINE
8
BLACK
6
CONTINUOUS
10
-0.215472
20
-0.137799
11
-0.245
21
-0.137799
0
LINE
8
BLACK
6
CONTINUOUS
10
-0.245
20
-0.137799
11
-0.248767
21
-0.13705
0
LINE
8
BLACK
6
CONTINUOUS
10
-0.248767
20
-0.13705
11
-0.25196
21
-0.134916
0
LINE
8
BLACK
6
CONTINUOUS
10
-0.25196
20
-0.134916
11
-0.254093
21
-0.131723
0
LINE
8
BLACK
6
CONTINUOUS
10
-0.254093
20
-0.131723
11
-0.254843
21
-0.127957
0
LINE
8
BLACK
6
CONTINUOUS
10
-0.254843
20
-0.127957
11
-0.254843
21
-0.0787439
0
LINE
8
BLACK
6
CONTINUOUS
10
-0.254843
20
-0.0787439
11
-0.254093
21
-0.0749774
0
LINE
8
BLACK
6
CONTINUOUS
10
-0.254093
20
-0.0749774
11
-0.25196
21
-0.0717842
0
LINE
8
BLACK
6
CONTINUOUS
10
-0.25196
20
-0.0717842
11
-0.248767
21
-0.0696506
0
LINE
8
BLACK
6
CONTINUOUS
10
-0.248767
20
-0.0696506
11
-0.245
21
-0.0689014
0
LINE
8
BLACK
6
CONTINUOUS
10
-0.245
20
-0.0689014
11
-0.215472
21
-0.0689014
0
LINE
8
BLACK
6
CONTINUOUS
10
-0.215472
20
-0.0689014
11
-0.211706
21
-0.0696506
0
LINE
8
BLACK
6
CONTINUOUS
10
-0.10147
20
-0.0696506
11
-0.0982765
21
-0.0717842
0
LINE
8
BLACK
6
CONTINUOUS
10
-0.0982765
20
-0.0717842
11
-0.0961429
21
-0.0749774
0
LINE
8
BLACK
6
CONTINUOUS
10
-0.0961429
20
-0.0749774
11
-0.0953937
21
-0.0787439
0
LINE
8
BLACK
6
CONTINUOUS
10
-0.0953937
20
-0.0787439
11
-0.0953937
21
-0.127957
0
LINE
8
BLACK
6
CONTINUOUS
10
-0.0953937
20
-0.127957
11
-0.0961429
21
-0.131723
0
LINE
8
BLACK
6
CONTINUOUS
10
-0.0961429
20
-0.131723
11
-0.0982765
21
-0.134916
0
LINE
8
BLACK
6
CONTINUOUS
10
-0.0982765
20
-0.134916
11
-0.10147
21
-0.13705
0
LINE
8
BLACK
6
CONTINUOUS
10
-0.10147
20
-0.13705
11
-0.105236
21
-0.137799
0
LINE
8
BLACK
6
CONTINUOUS
10
-0.105236
20
-0.137799
11
-0.134764
21
-0.137799
0
LINE
8
BLACK
6
CONTINUOUS
10
-0.134764
20
-0.137799
11
-0.13853
21
-0.13705
0
LINE
8
BLACK
6
CONTINUOUS
10
-0.13853
20
-0.13705
11
-0.141724
21
-0.134916
0
LINE
8
BLACK
6
CONTINUOUS
10
-0.141724
20
-0.134916
11
-0.143857
21
-0.131723
0
LINE
8
BLACK
6
CONTINUOUS
10
-0.143857
20
-0.131723
11
-0.144606
21
-0.127957
0
LINE
8
BLACK
6
CONTINUOUS
10
-0.144606
20
-0.127957
11
-0.144606
21
-0.0787439
0
LINE
8
BLACK
6
CONTINUOUS
10
-0.144606
20
-0.0787439
11
-0.143857
21
-0.0749774
0
LINE
8
BLACK
6
CONTINUOUS
10
-0.143857
20
-0.0749774
11
-0.141724
21
-0.0717842
0
LINE
8
BLACK
6
CONTINUOUS
10
-0.141724
20
-0.0717842
11
-0.13853
21
-0.0696506
0
LINE
8
BLACK
6
CONTINUOUS
10
-0.13853
20
-0.0696506
11
-0.134764
21
-0.0689014
0
LINE
8
BLACK
6
CONTINUOUS
10
-0.134764
20
-0.0689014
11
-0.105236
21
-0.0689014
0
LINE
8
BLACK
6
CONTINUOUS
10
-0.105236
20
-0.0689014
11
-0.10147
21
-0.0696506
0
LINE
8
BLACK
6
CONTINUOUS
10
0.181995
20
-0.0696506
11
0.185188
21
-0.0717842
0
LINE
8
BLACK
6
CONTINUOUS
10
0.185188
20
-0.0717842
11
0.187322
21
-0.0749774
0
LINE
8
BLACK
6
CONTINUOUS
10
0.187322
20
-0.0749774
11
0.188071
21
-0.0787439
0
LINE
8
BLACK
6
CONTINUOUS
10
0.188071
20
-0.0787439
11
0.188071
21
-0.127957
0
LINE
8
BLACK
6
CONTINUOUS
10
0.188071
20
-0.127957
11
0.187322
21
-0.131723
0
LINE
8
BLACK
6
CONTINUOUS
10
0.187322
20
-0.131723
11
0.185188
21
-0.134916
0
LINE
8
BLACK
6
CONTINUOUS
10
0.185188
20
-0.134916
11
0.181995
21
-0.13705
0
LINE
8
BLACK
6
CONTINUOUS
10
0.181995
20
-0.13705
11
0.178228
21
-0.137799
0
LINE
8
BLACK
6
CONTINUOUS
10
0.178228
20
-0.137799
11
0.148701
21
-0.137799
0
LINE
8
BLACK
6
CONTINUOUS
10
0.148701
20
-0.137799
11
0.144934
21
-0.13705
0
LINE
8
BLACK
6
CONTINUOUS
10
0.144934
20
-0.13705
11
0.141741
21
-0.134916
0
LINE
8
BLACK
6
CONTINUOUS
10
0.141741
20
-0.134916
11
0.139607
21
-0.131723
0
LINE
8
BLACK
6
CONTINUOUS
10
0.139607
20
-0.131723
11
0.138858
21
-0.127957
0
LINE
8
BLACK
6
CONTINUOUS
10
0.138858
20
-0.127957
11
0.138858
21
-0.0787439
0
LINE
8
BLACK
6
CONTINUOUS
10
0.138858
20
-0.0787439
11
0.139607
21
-0.0749774
0
LINE
8
BLACK
6
CONTINUOUS
10
0.139607
20
-0.0749774
11
0.141741
21
-0.0717842
0
LINE
8
BLACK
6
CONTINUOUS
10
0.141741
20
-0.0717842
11
0.144934
21
-0.0696506
0
LINE
8
BLACK
6
CONTINUOUS
10
0.144934
20
-0.0696506
11
0.148701
21
-0.0689014
0
LINE
8
BLACK
6
CONTINUOUS
10
0.148701
20
-0.0689014
11
0.178228
21
-0.0689014
0
LINE
8
BLACK
6
CONTINUOUS
10
0.178228
20
-0.0689014
11
0.181995
21
-0.0696506
0
LINE
8
BLACK
6
CONTINUOUS
10
0.292231
20
-0.0696506
11
0.295424
21
-0.0717842
0
LINE
8
BLACK
6
CONTINUOUS
10
0.295424
20
-0.0717842
11
0.297558
21
-0.0749774
0
LINE
8
BLACK
6
CONTINUOUS
10
0.297558
20
-0.0749774
11
0.298307
21
-0.0787439
0
LINE
8
BLACK
6
CONTINUOUS
10
0.298307
20
-0.0787439
11
0.298307
21
-0.127957
0
LINE
8
BLACK
6
CONTINUOUS
10
0.298307
20
-0.127957
11
0.297558
21
-0.131723
0
LINE
8
BLACK
6
CONTINUOUS
10
0.297558
20
-0.131723
11
0.295424
21
-0.134916
0
LINE
8
BLACK
6
CONTINUOUS
10
0.295424
20
-0.134916
11
0.292231
21
-0.13705
0
LINE
8
BLACK
6
CONTINUOUS
10
0.292231
20
-0.13705
11
0.288465
21
-0.137799
0
LINE
8
BLACK
6
CONTINUOUS
10
0.288465
20
-0.137799
11
0.258937
21
-0.137799
0
LINE
8
BLACK
6
CONTINUOUS
10
0.258937
20
-0.137799
11
0.25517
21
-0.13705
0
LINE
8
BLACK
6
CONTINUOUS
10
0.25517
20
-0.13705
11
0.251977
21
-0.134916
0
LINE
8
BLACK
6
CONTINUOUS
10
0.251977
20
-0.134916
11
0.249844
21
-0.131723
0
LINE
8
BLACK
6
CONTINUOUS
10
0.249844
20
-0.131723
11
0.249094
21
-0.127957
0
LINE
8
BLACK
6
CONTINUOUS
10
0.249094
20
-0.127957
11
0.249094
21
-0.0787439
0
LINE
8
BLACK
6
CONTINUOUS
10
0.249094
20
-0.0787439
11
0.249844
21
-0.0749774
0
LINE
8
BLACK
6
CONTINUOUS
10
0.249844
20
-0.0749774
11
0.251977
21
-0.0717842
0
LINE
8
BLACK
6
CONTINUOUS
10
0.251977
20
-0.0717842
11
0.25517
21
-0.0696506
0
LINE
8
BLACK
6
CONTINUOUS
10
0.25517
20
-0.0696506
11
0.258937
21
-0.0689014
0
LINE
8
BLACK
6
CONTINUOUS
10
0.258937
20
-0.0689014
11
0.288465
21
-0.0689014
0
LINE
8
BLACK
6
CONTINUOUS
10
0.288465
20
-0.0689014
11
0.292231
21
-0.0696506
0
LINE
8
BLACK
6
CONTINUOUS
10
-0.417346
20
-0.0823431
11
-0.41543
21
-0.0836232
0
LINE
8
BLACK
6
CONTINUOUS
10
-0.41543
20
-0.0836232
11
-0.41415
21
-0.0855391
0
LINE
8
BLACK
6
CONTINUOUS
10
-0.41415
20
-0.0855391
11
-0.413701
21
-0.0877991
0
LINE
8
BLACK
6
CONTINUOUS
10
-0.413701
20
-0.0877991
11
-0.413701
21
-0.0996101
0
LINE
8
BLACK
6
CONTINUOUS
10
-0.413701
20
-0.0996101
11
-0.41415
21
-0.10187
0
LINE
8
BLACK
6
CONTINUOUS
10
-0.41415
20
-0.10187
11
-0.41543
21
-0.103786
0
LINE
8
BLACK
6
CONTINUOUS
10
-0.41543
20
-0.103786
11
-0.417346
21
-0.105066
0
LINE
8
BLACK
6
CONTINUOUS
10
-0.417346
20
-0.105066
11
-0.419606
21
-0.105516
0
LINE
8
BLACK
6
CONTINUOUS
10
-0.419606
20
-0.105516
11
-0.474724
21
-0.105516
0
LINE
8
BLACK
6
CONTINUOUS
10
-0.474724
20
-0.105516
11
-0.476984
21
-0.105066
0
LINE
8
BLACK
6
CONTINUOUS
10
-0.476984
20
-0.105066
11
-0.4789
21
-0.103786
0
LINE
8
BLACK
6
CONTINUOUS
10
-0.4789
20
-0.103786
11
-0.48018
21
-0.10187
0
LINE
8
BLACK
6
CONTINUOUS
10
-0.48018
20
-0.10187
11
-0.48063
21
-0.0996101
0
LINE
8
BLACK
6
CONTINUOUS
10
-0.48063
20
-0.0996101
11
-0.48063
21
-0.0877991
0
LINE
8
BLACK
6
CONTINUOUS
10
-0.48063
20
-0.0877991
11
-0.48018
21
-0.0855391
0
LINE
8
BLACK
6
CONTINUOUS
10
-0.48018
20
-0.0855391
11
-0.4789
21
-0.0836232
0
LINE
8
BLACK
6
CONTINUOUS
10
-0.4789
20
-0.0836232
11
-0.476984
21
-0.0823431
0
LINE
8
BLACK
6
CONTINUOUS
10
-0.476984
20
-0.0823431
11
-0.474724
21
-0.0818935
0
LINE
8
BLACK
6
CONTINUOUS
10
-0.474724
20
-0.0818935
11
-0.419606
21
-0.0818935
0
LINE
8
BLACK
6
CONTINUOUS
10
-0.419606
20
-0.0818935
11
-0.417346
21
-0.0823431
0
LINE
8
BLACK
6
CONTINUOUS
10
0.0354936
20
-0.061623
11
0.0380481
21
-0.0633299
0
LINE
8
BLACK
6
CONTINUOUS
10
0.0380481
20
-0.0633299
11
0.039755
21
-0.0658844
0
LINE
8
BLACK
6
CONTINUOUS
10
0.039755
20
-0.0658844
11
0.0403543
21
-0.0688976
0
LINE
8
BLACK
6
CONTINUOUS
10
0.0403543
20
-0.0688976
11
0.0403543
21
-0.0846457
0
LINE
8
BLACK
6
CONTINUOUS
10
0.0403543
20
-0.0846457
11
0.039755
21
-0.0876589
0
LINE
8
BLACK
6
CONTINUOUS
10
0.039755
20
-0.0876589
11
0.0380481
21
-0.0902134
0
LINE
8
BLACK
6
CONTINUOUS
10
0.0380481
20
-0.0902134
11
0.0354936
21
-0.0919203
0
LINE
8
BLACK
6
CONTINUOUS
10
0.0354936
20
-0.0919203
11
0.0324803
21
-0.0925197
0
LINE
8
BLACK
6
CONTINUOUS
10
0.0324803
20
-0.0925197
11
0.0108268
21
-0.0925197
0
LINE
8
BLACK
6
CONTINUOUS
10
0.0108268
20
-0.0925197
11
0.0078135
21
-0.0919203
0
LINE
8
BLACK
6
CONTINUOUS
10
0.0078135
20
-0.0919203
11
0.00525902
21
-0.0902134
0
LINE
8
BLACK
6
CONTINUOUS
10
0.00525902
20
-0.0902134
11
0.00355213
21
-0.0876589
0
LINE
8
BLACK
6
CONTINUOUS
10
0.00355213
20
-0.0876589
11
0.00295276
21
-0.0846457
0
LINE
8
BLACK
6
CONTINUOUS
10
0.00295276
20
-0.0846457
11
0.00295276
21
-0.0688976
0
LINE
8
BLACK
6
CONTINUOUS
10
0.00295276
20
-0.0688976
11
0.00355213
21
-0.0658844
0
LINE
8
BLACK
6
CONTINUOUS
10
0.00355213
20
-0.0658844
11
0.00525902
21
-0.0633299
0
LINE
8
BLACK
6
CONTINUOUS
10
0.00525902
20
-0.0633299
11
0.0078135
21
-0.061623
0
LINE
8
BLACK
6
CONTINUOUS
10
0.0078135
20
-0.061623
11
0.0108268
21
-0.0610236
0
LINE
8
BLACK
6
CONTINUOUS
10
0.0108268
20
-0.0610236
11
0.0324803
21
-0.0610236
0
LINE
8
BLACK
6
CONTINUOUS
10
0.0324803
20
-0.0610236
11
0.0354936
21
-0.061623
0
LINE
8
BLACK
6
CONTINUOUS
10
0.10384
20
-0.0613671
11
0.106395
21
-0.063074
0
LINE
8
BLACK
6
CONTINUOUS
10
0.106395
20
-0.063074
11
0.108101
21
-0.0656285
0
LINE
8
BLACK
6
CONTINUOUS
10
0.108101
20
-0.0656285
11
0.108701
21
-0.0686417
0
LINE
8
BLACK
6
CONTINUOUS
10
0.108701
20
-0.0686417
11
0.108701
21
-0.0843898
0
LINE
8
BLACK
6
CONTINUOUS
10
0.108701
20
-0.0843898
11
0.108101
21
-0.087403
0
LINE
8
BLACK
6
CONTINUOUS
10
0.108101
20
-0.087403
11
0.106395
21
-0.0899575
0
LINE
8
BLACK
6
CONTINUOUS
10
0.106395
20
-0.0899575
11
0.10384
21
-0.0916644
0
LINE
8
BLACK
6
CONTINUOUS
10
0.10384
20
-0.0916644
11
0.100827
21
-0.0922638
0
LINE
8
BLACK
6
CONTINUOUS
10
0.100827
20
-0.0922638
11
0.0791732
21
-0.0922638
0
LINE
8
BLACK
6
CONTINUOUS
10
0.0791732
20
-0.0922638
11
0.07616
21
-0.0916644
0
LINE
8
BLACK
6
CONTINUOUS
10
0.07616
20
-0.0916644
11
0.0736055
21
-0.0899575
0
LINE
8
BLACK
6
CONTINUOUS
10
0.0736055
20
-0.0899575
11
0.0718986
21
-0.087403
0
LINE
8
BLACK
6
CONTINUOUS
10
0.0718986
20
-0.087403
11
0.0712992
21
-0.0843898
0
LINE
8
BLACK
6
CONTINUOUS
10
0.0712992
20
-0.0843898
11
0.0712992
21
-0.0686417
0
LINE
8
BLACK
6
CONTINUOUS
10
0.0712992
20
-0.0686417
11
0.0718986
21
-0.0656285
0
LINE
8
BLACK
6
CONTINUOUS
10
0.0718986
20
-0.0656285
11
0.0736055
21
-0.063074
0
LINE
8
BLACK
6
CONTINUOUS
10
0.0736055
20
-0.063074
11
0.07616
21
-0.0613671
0
LINE
8
BLACK
6
CONTINUOUS
10
0.07616
20
-0.0613671
11
0.0791732
21
-0.0607677
0
LINE
8
BLACK
6
CONTINUOUS
10
0.0791732
20
-0.0607677
11
0.100827
21
-0.0607677
0
LINE
8
BLACK
6
CONTINUOUS
10
0.100827
20
-0.0607677
11
0.10384
21
-0.0613671
0
LINE
8
BLACK
6
CONTINUOUS
10
0.403232
20
-0.0454578
11
0.406106
21
-0.047378
0
LINE
8
BLACK
6
CONTINUOUS
10
0.406106
20
-0.047378
11
0.408026
21
-0.0502518
0
LINE
8
BLACK
6
CONTINUOUS
10
0.408026
20
-0.0502518
11
0.408701
21
-0.0536417
0
LINE
8
BLACK
6
CONTINUOUS
10
0.408701
20
-0.0536417
11
0.408701
21
-0.0713583
0
LINE
8
BLACK
6
CONTINUOUS
10
0.408701
20
-0.0713583
11
0.408026
21
-0.0747482
0
LINE
8
BLACK
6
CONTINUOUS
10
0.408026
20
-0.0747482
11
0.406106
21
-0.077622
0
LINE
8
BLACK
6
CONTINUOUS
10
0.406106
20
-0.077622
11
0.403232
21
-0.0795422
0
LINE
8
BLACK
6
CONTINUOUS
10
0.403232
20
-0.0795422
11
0.399843
21
-0.0802165
0
LINE
8
BLACK
6
CONTINUOUS
10
0.399843
20
-0.0802165
11
0.380157
21
-0.0802165
0
LINE
8
BLACK
6
CONTINUOUS
10
0.380157
20
-0.0802165
11
0.376768
21
-0.0795422
0
LINE
8
BLACK
6
CONTINUOUS
10
0.376768
20
-0.0795422
11
0.373894
21
-0.077622
0
LINE
8
BLACK
6
CONTINUOUS
10
0.373894
20
-0.077622
11
0.371974
21
-0.0747482
0
LINE
8
BLACK
6
CONTINUOUS
10
0.371974
20
-0.0747482
11
0.371299
21
-0.0713583
0
LINE
8
BLACK
6
CONTINUOUS
10
0.371299
20
-0.0713583
11
0.371299
21
-0.0536417
0
LINE
8
BLACK
6
CONTINUOUS
10
0.371299
20
-0.0536417
11
0.371974
21
-0.0502518
0
LINE
8
BLACK
6
CONTINUOUS
10
0.371974
20
-0.0502518
11
0.373894
21
-0.047378
0
LINE
8
BLACK
6
CONTINUOUS
10
0.373894
20
-0.047378
11
0.376768
21
-0.0454578
0
LINE
8
BLACK
6
CONTINUOUS
10
0.376768
20
-0.0454578
11
0.380157
21
-0.0447835
0
LINE
8
BLACK
6
CONTINUOUS
10
0.380157
20
-0.0447835
11
0.399843
21
-0.0447835
0
LINE
8
BLACK
6
CONTINUOUS
10
0.399843
20
-0.0447835
11
0.403232
21
-0.0454578
0
LINE
8
BLACK
6
CONTINUOUS
10
0.492283
20
-0.0653937
11
0.476535
21
-0.0653937
0
LINE
8
BLACK
6
CONTINUOUS
10
0.476535
20
-0.0653937
11
0.476535
21
-0.0398031
0
LINE
8
BLACK
6
CONTINUOUS
10
0.476535
20
-0.0398031
11
0.492283
21
-0.0398031
0
LINE
8
BLACK
6
CONTINUOUS
10
0.492283
20
-0.0398031
11
0.492283
21
-0.0653937
0
LINE
8
BLACK
6
CONTINUOUS
10
0.517874
20
-0.0653937
11
0.502126
21
-0.0653937
0
LINE
8
BLACK
6
CONTINUOUS
10
0.502126
20
-0.0653937
11
0.502126
21
-0.0398031
0
LINE
8
BLACK
6
CONTINUOUS
10
0.502126
20
-0.0398031
11
0.517874
21
-0.0398031
0
LINE
8
BLACK
6
CONTINUOUS
10
0.517874
20
-0.0398031
11
0.517874
21
-0.0653937
0
LINE
8
BLACK
6
CONTINUOUS
10
0.543465
20
-0.0653937
11
0.527717
21
-0.0653937
0
LINE
8
BLACK
6
CONTINUOUS
10
0.527717
20
-0.0653937
11
0.527717
21
-0.0398031
0
LINE
8
BLACK
6
CONTINUOUS
10
0.527717
20
-0.0398031
11
0.543465
21
-0.0398031
0
LINE
8
BLACK
6
CONTINUOUS
10
0.543465
20
-0.0398031
11
0.543465
21
-0.0653937
0
LINE
8
BLACK
6
CONTINUOUS
10
-0.417346
20
-0.0331305
11
-0.41543
21
-0.0344106
0
LINE
8
BLACK
6
CONTINUOUS
10
-0.41543
20
-0.0344106
11
-0.41415
21
-0.0363265
0
LINE
8
BLACK
6
CONTINUOUS
10
-0.41415
20
-0.0363265
11
-0.413701
21
-0.0385865
0
LINE
8
BLACK
6
CONTINUOUS
10
-0.413701
20
-0.0385865
11
-0.413701
21
-0.0503975
0
LINE
8
BLACK
6
CONTINUOUS
10
-0.413701
20
-0.0503975
11
-0.41415
21
-0.0526574
0
LINE
8
BLACK
6
CONTINUOUS
10
-0.41415
20
-0.0526574
11
-0.41543
21
-0.0545733
0
LINE
8
BLACK
6
CONTINUOUS
10
-0.41543
20
-0.0545733
11
-0.417346
21
-0.0558535
0
LINE
8
BLACK
6
CONTINUOUS
10
-0.417346
20
-0.0558535
11
-0.419606
21
-0.056303
0
LINE
8
BLACK
6
CONTINUOUS
10
-0.419606
20
-0.056303
11
-0.474724
21
-0.056303
0
LINE
8
BLACK
6
CONTINUOUS
10
-0.474724
20
-0.056303
11
-0.476984
21
-0.0558535
0
LINE
8
BLACK
6
CONTINUOUS
10
-0.476984
20
-0.0558535
11
-0.4789
21
-0.0545733
0
LINE
8
BLACK
6
CONTINUOUS
10
-0.4789
20
-0.0545733
11
-0.48018
21
-0.0526574
0
LINE
8
BLACK
6
CONTINUOUS
10
-0.48018
20
-0.0526574
11
-0.48063
21
-0.0503975
0
LINE
8
BLACK
6
CONTINUOUS
10
-0.48063
20
-0.0503975
11
-0.48063
21
-0.0385865
0
LINE
8
BLACK
6
CONTINUOUS
10
-0.48063
20
-0.0385865
11
-0.48018
21
-0.0363265
0
LINE
8
BLACK
6
CONTINUOUS
10
-0.48018
20
-0.0363265
11
-0.4789
21
-0.0344106
0
LINE
8
BLACK
6
CONTINUOUS
10
-0.4789
20
-0.0344106
11
-0.476984
21
-0.0331305
0
LINE
8
BLACK
6
CONTINUOUS
10
-0.476984
20
-0.0331305
11
-0.474724
21
-0.0326809
0
LINE
8
BLACK
6
CONTINUOUS
10
-0.474724
20
-0.0326809
11
-0.419606
21
-0.0326809
0
LINE
8
BLACK
6
CONTINUOUS
10
-0.419606
20
-0.0326809
11
-0.417346
21
-0.0331305
0
LINE
8
BLACK
6
CONTINUOUS
10
-0.207597
20
0.0566537
11
-0.203458
21
0.0548241
0
LINE
8
BLACK
6
CONTINUOUS
10
-0.203458
20
0.0548241
11
-0.200136
21
0.0517526
0
LINE
8
BLACK
6
CONTINUOUS
10
-0.200136
20
0.0517526
11
-0.197987
21
0.0477705
0
LINE
8
BLACK
6
CONTINUOUS
10
-0.197987
20
0.0477705
11
-0.197244
21
0.0433071
0
LINE
8
BLACK
6
CONTINUOUS
10
-0.197244
20
0.0433071
11
-0.197244
21
-0.0314961
0
LINE
8
BLACK
6
CONTINUOUS
10
-0.197244
20
-0.0314961
11
-0.197449
21
-0.0338652
0
LINE
8
BLACK
6
CONTINUOUS
10
-0.197449
20
-0.0338652
11
-0.198949
21
-0.0381344
0
LINE
8
BLACK
6
CONTINUOUS
10
-0.198949
20
-0.0381344
11
-0.20175
21
-0.0416878
0
LINE
8
BLACK
6
CONTINUOUS
10
-0.20175
20
-0.0416878
11
-0.205551
21
-0.0441423
0
LINE
8
BLACK
6
CONTINUOUS
10
-0.205551
20
-0.0441423
11
-0.209942
21
-0.0452331
0
LINE
8
BLACK
6
CONTINUOUS
10
-0.209942
20
-0.0452331
11
-0.21445
21
-0.0448427
0
LINE
8
BLACK
6
CONTINUOUS
10
-0.21445
20
-0.0448427
11
-0.218589
21
-0.0430131
0
LINE
8
BLACK
6
CONTINUOUS
10
-0.218589
20
-0.0430131
11
-0.221912
21
-0.0399416
0
LINE
8
BLACK
6
CONTINUOUS
10
-0.221912
20
-0.0399416
11
-0.22406
21
-0.0359595
0
LINE
8
BLACK
6
CONTINUOUS
10
-0.22406
20
-0.0359595
11
-0.224803
21
-0.0314961
0
LINE
8
BLACK
6
CONTINUOUS
10
-0.224803
20
-0.0314961
11
-0.224803
21
0.0433071
0
LINE
8
BLACK
6
CONTINUOUS
10
-0.224803
20
0.0433071
11
-0.224598
21
0.0456762
0
LINE
8
BLACK
6
CONTINUOUS
10
-0.224598
20
0.0456762
11
-0.223099
21
0.0499454
0
LINE
8
BLACK
6
CONTINUOUS
10
-0.223099
20
0.0499454
11
-0.220297
21
0.0534989
0
LINE
8
BLACK
6
CONTINUOUS
10
-0.220297
20
0.0534989
11
-0.216496
21
0.0559533
0
LINE
8
BLACK
6
CONTINUOUS
10
-0.216496
20
0.0559533
11
-0.212105
21
0.0570441
0
LINE
8
BLACK
6
CONTINUOUS
10
-0.212105
20
0.0570441
11
-0.207597
21
0.0566537
0
LINE
8
BLACK
6
CONTINUOUS
10
-0.1574
20
0.0566537
11
-0.153261
21
0.0548241
0
LINE
8
BLACK
6
CONTINUOUS
10
-0.153261
20
0.0548241
11
-0.149939
21
0.0517526
0
LINE
8
BLACK
6
CONTINUOUS
10
-0.149939
20
0.0517526
11
-0.14779
21
0.0477705
0
LINE
8
BLACK
6
CONTINUOUS
10
-0.14779
20
0.0477705
11
-0.147047
21
0.0433071
0
LINE
8
BLACK
6
CONTINUOUS
10
-0.147047
20
0.0433071
11
-0.147047
21
-0.0314961
0
LINE
8
BLACK
6
CONTINUOUS
10
-0.147047
20
-0.0314961
11
-0.147252
21
-0.0338652
0
LINE
8
BLACK
6
CONTINUOUS
10
-0.147252
20
-0.0338652
11
-0.148752
21
-0.0381344
0
LINE
8
BLACK
6
CONTINUOUS
10
-0.148752
20
-0.0381344
11
-0.151553
21
-0.0416878
0
LINE
8
BLACK
6
CONTINUOUS
10
-0.151553
20
-0.0416878
11
-0.155354
21
-0.0441423
0
LINE
8
BLACK
6
CONTINUOUS
10
-0.155354
20
-0.0441423
11
-0.159746
21
-0.0452331
0
LINE
8
BLACK
6
CONTINUOUS
10
-0.159746
20
-0.0452331
11
-0.164254
21
-0.0448427
0
LINE
8
BLACK
6
CONTINUOUS
10
-0.164254
20
-0.0448427
11
-0.168392
21
-0.0430131
0
LINE
8
BLACK
6
CONTINUOUS
10
-0.168392
20
-0.0430131
11
-0.171715
21
-0.0399416
0
LINE
8
BLACK
6
CONTINUOUS
10
-0.171715
20
-0.0399416
11
-0.173863
21
-0.0359595
0
LINE
8
BLACK
6
CONTINUOUS
10
-0.173863
20
-0.0359595
11
-0.174606
21
-0.0314961
0
LINE
8
BLACK
6
CONTINUOUS
10
-0.174606
20
-0.0314961
11
-0.174606
21
0.0433071
0
LINE
8
BLACK
6
CONTINUOUS
10
-0.174606
20
0.0433071
11
-0.174401
21
0.0456762
0
LINE
8
BLACK
6
CONTINUOUS
10
-0.174401
20
0.0456762
11
-0.172902
21
0.0499454
0
LINE
8
BLACK
6
CONTINUOUS
10
-0.172902
20
0.0499454
11
-0.170101
21
0.0534989
0
LINE
8
BLACK
6
CONTINUOUS
10
-0.170101
20
0.0534989
11
-0.166299
21
0.0559533
0
LINE
8
BLACK
6
CONTINUOUS
10
-0.166299
20
0.0559533
11
-0.161908
21
0.0570441
0
LINE
8
BLACK
6
CONTINUOUS
10
-0.161908
20
0.0570441
11
-0.1574
21
0.0566537
0
LINE
8
BLACK
6
CONTINUOUS
10
-0.1074
20
0.0566537
11
-0.103261
21
0.0548241
0
LINE
8
BLACK
6
CONTINUOUS
10
-0.103261
20
0.0548241
11
-0.0999388
21
0.0517526
0
LINE
8
BLACK
6
CONTINUOUS
10
-0.0999388
20
0.0517526
11
-0.0977902
21
0.0477705
0
LINE
8
BLACK
6
CONTINUOUS
10
-0.0977902
20
0.0477705
11
-0.0970472
21
0.0433071
0
LINE
8
BLACK
6
CONTINUOUS
10
-0.0970472
20
0.0433071
11
-0.0970472
21
-0.0314961
0
LINE
8
BLACK
6
CONTINUOUS
10
-0.0970472
20
-0.0314961
11
-0.0972524
21
-0.0338652
0
LINE
8
BLACK
6
CONTINUOUS
10
-0.0972524
20
-0.0338652
11
-0.0987517
21
-0.0381344
0
LINE
8
BLACK
6
CONTINUOUS
10
-0.0987517
20
-0.0381344
11
-0.101553
21
-0.0416878
0
LINE
8
BLACK
6
CONTINUOUS
10
-0.101553
20
-0.0416878
11
-0.105354
21
-0.0441423
0
LINE
8
BLACK
6
CONTINUOUS
10
-0.105354
20
-0.0441423
11
-0.109746
21
-0.0452331
0
LINE
8
BLACK
6
CONTINUOUS
10
-0.109746
20
-0.0452331
11
-0.114254
21
-0.0448427
0
LINE
8
BLACK
6
CONTINUOUS
10
-0.114254
20
-0.0448427
11
-0.118392
21
-0.0430131
0
LINE
8
BLACK
6
CONTINUOUS
10
-0.118392
20
-0.0430131
11
-0.121715
21
-0.0399416
0
LINE
8
BLACK
6
CONTINUOUS
10
-0.121715
20
-0.0399416
11
-0.123863
21
-0.0359595
0
LINE
8
BLACK
6
CONTINUOUS
10
-0.123863
20
-0.0359595
11
-0.124606
21
-0.0314961
0
LINE
8
BLACK
6
CONTINUOUS
10
-0.124606
20
-0.0314961
11
-0.124606
21
0.0433071
0
LINE
8
BLACK
6
CONTINUOUS
10
-0.124606
20
0.0433071
11
-0.124401
21
0.0456762
0
LINE
8
BLACK
6
CONTINUOUS
10
-0.124401
20
0.0456762
11
-0.122902
21
0.0499454
0
LINE
8
BLACK
6
CONTINUOUS
10
-0.122902
20
0.0499454
11
-0.120101
21
0.0534989
0
LINE
8
BLACK
6
CONTINUOUS
10
-0.120101
20
0.0534989
11
-0.116299
21
0.0559533
0
LINE
8
BLACK
6
CONTINUOUS
10
-0.116299
20
0.0559533
11
-0.111908
21
0.0570441
0
LINE
8
BLACK
6
CONTINUOUS
10
-0.111908
20
0.0570441
11
-0.1074
21
0.0566537
0
LINE
8
BLACK
6
CONTINUOUS
10
-0.0574
20
0.0566537
11
-0.0532615
21
0.0548241
0
LINE
8
BLACK
6
CONTINUOUS
10
-0.0532615
20
0.0548241
11
-0.0499388
21
0.0517526
0
LINE
8
BLACK
6
CONTINUOUS
10
-0.0499388
20
0.0517526
11
-0.0477902
21
0.0477705
0
LINE
8
BLACK
6
CONTINUOUS
10
-0.0477902
20
0.0477705
11
-0.0470472
21
0.0433071
0
LINE
8
BLACK
6
CONTINUOUS
10
-0.0470472
20
0.0433071
11
-0.0470472
21
-0.0314961
0
LINE
8
BLACK
6
CONTINUOUS
10
-0.0470472
20
-0.0314961
11
-0.0472524
21
-0.0338652
0
LINE
8
BLACK
6
CONTINUOUS
10
-0.0472524
20
-0.0338652
11
-0.0487517
21
-0.0381344
0
LINE
8
BLACK
6
CONTINUOUS
10
-0.0487517
20
-0.0381344
11
-0.051553
21
-0.0416878
0
LINE
8
BLACK
6
CONTINUOUS
10
-0.051553
20
-0.0416878
11
-0.0553543
21
-0.0441423
0
LINE
8
BLACK
6
CONTINUOUS
10
-0.0553543
20
-0.0441423
11
-0.0597456
21
-0.0452331
0
LINE
8
BLACK
6
CONTINUOUS
10
-0.0597456
20
-0.0452331
11
-0.0642536
21
-0.0448427
0
LINE
8
BLACK
6
CONTINUOUS
10
-0.0642536
20
-0.0448427
11
-0.068392
21
-0.0430131
0
LINE
8
BLACK
6
CONTINUOUS
10
-0.068392
20
-0.0430131
11
-0.0717147
21
-0.0399416
0
LINE
8
BLACK
6
CONTINUOUS
10
-0.0717147
20
-0.0399416
11
-0.0738634
21
-0.0359595
0
LINE
8
BLACK
6
CONTINUOUS
10
-0.0738634
20
-0.0359595
11
-0.0746063
21
-0.0314961
0
LINE
8
BLACK
6
CONTINUOUS
10
-0.0746063
20
-0.0314961
11
-0.0746063
21
0.0433071
0
LINE
8
BLACK
6
CONTINUOUS
10
-0.0746063
20
0.0433071
11
-0.0744011
21
0.0456762
0
LINE
8
BLACK
6
CONTINUOUS
10
-0.0744011
20
0.0456762
11
-0.0729019
21
0.0499454
0
LINE
8
BLACK
6
CONTINUOUS
10
-0.0729019
20
0.0499454
11
-0.0701006
21
0.0534989
0
LINE
8
BLACK
6
CONTINUOUS
10
-0.0701006
20
0.0534989
11
-0.0662993
21
0.0559533
0
LINE
8
BLACK
6
CONTINUOUS
10
-0.0662993
20
0.0559533
11
-0.0619079
21
0.0570441
0
LINE
8
BLACK
6
CONTINUOUS
10
-0.0619079
20
0.0570441
11
-0.0574
21
0.0566537
0
LINE
8
BLACK
6
CONTINUOUS
10
-0.417346
20
0.0160821
11
-0.41543
21
0.014802
0
LINE
8
BLACK
6
CONTINUOUS
10
-0.41543
20
0.014802
11
-0.41415
21
0.0128861
0
LINE
8
BLACK
6
CONTINUOUS
10
-0.41415
20
0.0128861
11
-0.413701
21
0.0106261
0
LINE
8
BLACK
6
CONTINUOUS
10
-0.413701
20
0.0106261
11
-0.413701
21
-0.00118488
0
LINE
8
BLACK
6
CONTINUOUS
10
-0.413701
20
-0.00118488
11
-0.41415
21
-0.00344484
0
LINE
8
BLACK
6
CONTINUOUS
10
-0.41415
20
-0.00344484
11
-0.41543
21
-0.00536071
0
LINE
8
BLACK
6
CONTINUOUS
10
-0.41543
20
-0.00536071
11
-0.417346
21
-0.00664087
0
LINE
8
BLACK
6
CONTINUOUS
10
-0.417346
20
-0.00664087
11
-0.419606
21
-0.00709039
0
LINE
8
BLACK
6
CONTINUOUS
10
-0.419606
20
-0.00709039
11
-0.474724
21
-0.00709039
0
LINE
8
BLACK
6
CONTINUOUS
10
-0.474724
20
-0.00709039
11
-0.476984
21
-0.00664087
0
LINE
8
BLACK
6
CONTINUOUS
10
-0.476984
20
-0.00664087
11
-0.4789
21
-0.00536071
0
LINE
8
BLACK
6
CONTINUOUS
10
-0.4789
20
-0.00536071
11
-0.48018
21
-0.00344484
0
LINE
8
BLACK
6
CONTINUOUS
10
-0.48018
20
-0.00344484
11
-0.48063
21
-0.00118488
0
LINE
8
BLACK
6
CONTINUOUS
10
-0.48063
20
-0.00118488
11
-0.48063
21
0.0106261
0
LINE
8
BLACK
6
CONTINUOUS
10
-0.48063
20
0.0106261
11
-0.48018
21
0.0128861
0
LINE
8
BLACK
6
CONTINUOUS
10
-0.48018
20
0.0128861
11
-0.4789
21
0.014802
0
LINE
8
BLACK
6
CONTINUOUS
10
-0.4789
20
0.014802
11
-0.476984
21
0.0160821
0
LINE
8
BLACK
6
CONTINUOUS
10
-0.476984
20
0.0160821
11
-0.474724
21
0.0165317
0
LINE
8
BLACK
6
CONTINUOUS
10
-0.474724
20
0.0165317
11
-0.419606
21
0.0165317
0
LINE
8
BLACK
6
CONTINUOUS
10
-0.419606
20
0.0165317
11
-0.417346
21
0.0160821
0
LINE
8
BLACK
6
CONTINUOUS
10
-0.417346
20
0.0652947
11
-0.41543
21
0.0640146
0
LINE
8
BLACK
6
CONTINUOUS
10
-0.41543
20
0.0640146
11
-0.41415
21
0.0620987
0
LINE
8
BLACK
6
CONTINUOUS
10
-0.41415
20
0.0620987
11
-0.413701
21
0.0598387
0
LINE
8
BLACK
6
CONTINUOUS
10
-0.413701
20
0.0598387
11
-0.413701
21
0.0480277
0
LINE
8
BLACK
6
CONTINUOUS
10
-0.413701
20
0.0480277
11
-0.41415
21
0.0457678
0
LINE
8
BLACK
6
CONTINUOUS
10
-0.41415
20
0.0457678
11
-0.41543
21
0.0438519
0
LINE
8
BLACK
6
CONTINUOUS
10
-0.41543
20
0.0438519
11
-0.417346
21
0.0425717
0
LINE
8
BLACK
6
CONTINUOUS
10
-0.417346
20
0.0425717
11
-0.419606
21
0.0421222
0
LINE
8
BLACK
6
CONTINUOUS
10
-0.419606
20
0.0421222
11
-0.474724
21
0.0421222
0
LINE
8
BLACK
6
CONTINUOUS
10
-0.474724
20
0.0421222
11
-0.476984
21
0.0425717
0
LINE
8
BLACK
6
CONTINUOUS
10
-0.476984
20
0.0425717
11
-0.4789
21
0.0438519
0
LINE
8
BLACK
6
CONTINUOUS
10
-0.4789
20
0.0438519
11
-0.48018
21
0.0457678
0
LINE
8
BLACK
6
CONTINUOUS
10
-0.48018
20
0.0457678
11
-0.48063
21
0.0480277
0
LINE
8
BLACK
6
CONTINUOUS
10
-0.48063
20
0.0480277
11
-0.48063
21
0.0598387
0
LINE
8
BLACK
6
CONTINUOUS
10
-0.48063
20
0.0598387
11
-0.48018
21
0.0620987
0
LINE
8
BLACK
6
CONTINUOUS
10
-0.48018
20
0.0620987
11
-0.4789
21
0.0640146
0
LINE
8
BLACK
6
CONTINUOUS
10
-0.4789
20
0.0640146
11
-0.476984
21
0.0652947
0
LINE
8
BLACK
6
CONTINUOUS
10
-0.476984
20
0.0652947
11
-0.474724
21
0.0657443
0
LINE
8
BLACK
6
CONTINUOUS
10
-0.474724
20
0.0657443
11
-0.419606
21
0.0657443
0
LINE
8
BLACK
6
CONTINUOUS
10
-0.419606
20
0.0657443
11
-0.417346
21
0.0652947
0
LINE
8
BLACK
6
CONTINUOUS
10
-0.314961
20
0.0755118
11
-0.38189
21
0.0755118
0
LINE
8
BLACK
6
CONTINUOUS
10
-0.38189
20
0.0755118
11
-0.38189
21
0.126693
0
LINE
8
BLACK
6
CONTINUOUS
10
-0.38189
20
0.126693
11
-0.314961
21
0.126693
0
LINE
8
BLACK
6
CONTINUOUS
10
-0.314961
20
0.126693
11
-0.314961
21
0.0755118
0
LINE
8
BLACK
6
CONTINUOUS
10
-0.526076
20
0.145704
11
-0.522883
21
0.14357
0
LINE
8
BLACK
6
CONTINUOUS
10
-0.522883
20
0.14357
11
-0.520749
21
0.140377
0
LINE
8
BLACK
6
CONTINUOUS
10
-0.520749
20
0.140377
11
-0.52
21
0.13661
0
LINE
8
BLACK
6
CONTINUOUS
10
-0.52
20
0.13661
11
-0.52
21
0.116925
0
LINE
8
BLACK
6
CONTINUOUS
10
-0.52
20
0.116925
11
-0.520749
21
0.113159
0
LINE
8
BLACK
6
CONTINUOUS
10
-0.520749
20
0.113159
11
-0.522883
21
0.109966
0
LINE
8
BLACK
6
CONTINUOUS
10
-0.522883
20
0.109966
11
-0.526076
21
0.107832
0
LINE
8
BLACK
6
CONTINUOUS
10
-0.526076
20
0.107832
11
-0.529843
21
0.107083
0
LINE
8
BLACK
6
CONTINUOUS
10
-0.529843
20
0.107083
11
-0.616457
21
0.107083
0
LINE
8
BLACK
6
CONTINUOUS
10
-0.616457
20
0.107083
11
-0.620223
21
0.107832
0
LINE
8
BLACK
6
CONTINUOUS
10
-0.620223
20
0.107832
11
-0.623416
21
0.109966
0
LINE
8
BLACK
6
CONTINUOUS
10
-0.623416
20
0.109966
11
-0.62555
21
0.113159
0
LINE
8
BLACK
6
CONTINUOUS
10
-0.62555
20
0.113159
11
-0.626299
21
0.116925
0
LINE
8
BLACK
6
CONTINUOUS
10
-0.626299
20
0.116925
11
-0.626299
21
0.13661
0
LINE
8
BLACK
6
CONTINUOUS
10
-0.626299
20
0.13661
11
-0.62555
21
0.140377
0
LINE
8
BLACK
6
CONTINUOUS
10
-0.62555
20
0.140377
11
-0.623416
21
0.14357
0
LINE
8
BLACK
6
CONTINUOUS
10
-0.623416
20
0.14357
11
-0.620223
21
0.145704
0
LINE
8
BLACK
6
CONTINUOUS
10
-0.620223
20
0.145704
11
-0.616457
21
0.146453
0
LINE
8
BLACK
6
CONTINUOUS
10
-0.616457
20
0.146453
11
-0.529843
21
0.146453
0
LINE
8
BLACK
6
CONTINUOUS
10
-0.529843
20
0.146453
11
-0.526076
21
0.145704
0
LINE
8
BLACK
6
CONTINUOUS
10
-0.314961
20
0.213307
11
-0.38189
21
0.213307
0
LINE
8
BLACK
6
CONTINUOUS
10
-0.38189
20
0.213307
11
-0.38189
21
0.264488
0
LINE
8
BLACK
6
CONTINUOUS
10
-0.38189
20
0.264488
11
-0.314961
21
0.264488
0
LINE
8
BLACK
6
CONTINUOUS
10
-0.314961
20
0.264488
11
-0.314961
21
0.213307
0
LINE
8
BLACK
6
CONTINUOUS
10
-0.526076
20
0.252397
11
-0.522883
21
0.250263
0
LINE
8
BLACK
6
CONTINUOUS
10
-0.522883
20
0.250263
11
-0.520749
21
0.24707
0
LINE
8
BLACK
6
CONTINUOUS
10
-0.520749
20
0.24707
11
-0.52
21
0.243303
0
LINE
8
BLACK
6
CONTINUOUS
10
-0.52
20
0.243303
11
-0.52
21
0.223618
0
LINE
8
BLACK
6
CONTINUOUS
10
-0.52
20
0.223618
11
-0.520749
21
0.219852
0
LINE
8
BLACK
6
CONTINUOUS
10
-0.520749
20
0.219852
11
-0.522883
21
0.216659
0
LINE
8
BLACK
6
CONTINUOUS
10
-0.522883
20
0.216659
11
-0.526076
21
0.214525
0
LINE
8
BLACK
6
CONTINUOUS
10
-0.526076
20
0.214525
11
-0.529843
21
0.213776
0
LINE
8
BLACK
6
CONTINUOUS
10
-0.529843
20
0.213776
11
-0.616457
21
0.213776
0
LINE
8
BLACK
6
CONTINUOUS
10
-0.616457
20
0.213776
11
-0.620223
21
0.214525
0
LINE
8
BLACK
6
CONTINUOUS
10
-0.620223
20
0.214525
11
-0.623416
21
0.216659
0
LINE
8
BLACK
6
CONTINUOUS
10
-0.623416
20
0.216659
11
-0.62555
21
0.219852
0
LINE
8
BLACK
6
CONTINUOUS
10
-0.62555
20
0.219852
11
-0.626299
21
0.223618
0
LINE
8
BLACK
6
CONTINUOUS
10
-0.626299
20
0.223618
11
-0.626299
21
0.243303
0
LINE
8
BLACK
6
CONTINUOUS
10
-0.626299
20
0.243303
11
-0.62555
21
0.24707
0
LINE
8
BLACK
6
CONTINUOUS
10
-0.62555
20
0.24707
11
-0.623416
21
0.250263
0
LINE
8
BLACK
6
CONTINUOUS
10
-0.623416
20
0.250263
11
-0.620223
21
0.252397
0
LINE
8
BLACK
6
CONTINUOUS
10
-0.620223
20
0.252397
11
-0.616457
21
0.253146
0
LINE
8
BLACK
6
CONTINUOUS
10
-0.616457
20
0.253146
11
-0.529843
21
0.253146
0
LINE
8
BLACK
6
CONTINUOUS
10
-0.529843
20
0.253146
11
-0.526076
21
0.252397
0
LINE
8
BLACK
6
CONTINUOUS
10
0.0692364
20
0.28653
11
0.0721102
21
0.28461
0
LINE
8
BLACK
6
CONTINUOUS
10
0.0721102
20
0.28461
11
0.0740304
21
0.281736
0
LINE
8
BLACK
6
CONTINUOUS
10
0.0740304
20
0.281736
11
0.0747047
21
0.278346
0
LINE
8
BLACK
6
CONTINUOUS
10
0.0747047
20
0.278346
11
0.0747047
21
0.26063
0
LINE
8
BLACK
6
CONTINUOUS
10
0.0747047
20
0.26063
11
0.0740304
21
0.25724
0
LINE
8
BLACK
6
CONTINUOUS
10
0.0740304
20
0.25724
11
0.0721102
21
0.254366
0
LINE
8
BLACK
6
CONTINUOUS
10
0.0721102
20
0.254366
11
0.0692364
21
0.252446
0
LINE
8
BLACK
6
CONTINUOUS
10
0.0692364
20
0.252446
11
0.0658465
21
0.251772
0
LINE
8
BLACK
6
CONTINUOUS
10
0.0658465
20
0.251772
11
0.0461614
21
0.251772
0
LINE
8
BLACK
6
CONTINUOUS
10
0.0461614
20
0.251772
11
0.0427715
21
0.252446
0
LINE
8
BLACK
6
CONTINUOUS
10
0.0427715
20
0.252446
11
0.0398977
21
0.254366
0
LINE
8
BLACK
6
CONTINUOUS
10
0.0398977
20
0.254366
11
0.0379774
21
0.25724
0
LINE
8
BLACK
6
CONTINUOUS
10
0.0379774
20
0.25724
11
0.0373031
21
0.26063
0
LINE
8
BLACK
6
CONTINUOUS
10
0.0373031
20
0.26063
11
0.0373031
21
0.278346
0
LINE
8
BLACK
6
CONTINUOUS
10
0.0373031
20
0.278346
11
0.0379774
21
0.281736
0
LINE
8
BLACK
6
CONTINUOUS
10
0.0379774
20
0.281736
11
0.0398977
21
0.28461
0
LINE
8
BLACK
6
CONTINUOUS
10
0.0398977
20
0.28461
11
0.0427715
21
0.28653
0
LINE
8
BLACK
6
CONTINUOUS
10
0.0427715
20
0.28653
11
0.0461614
21
0.287205
0
LINE
8
BLACK
6
CONTINUOUS
10
0.0461614
20
0.287205
11
0.0658465
21
0.287205
0
LINE
8
BLACK
6
CONTINUOUS
10
0.0658465
20
0.287205
11
0.0692364
21
0.28653
0
LINE
8
BLACK
6
CONTINUOUS
10
-0.320052
20
0.331928
11
-0.316859
21
0.329794
0
LINE
8
BLACK
6
CONTINUOUS
10
-0.316859
20
0.329794
11
-0.314726
21
0.326601
0
LINE
8
BLACK
6
CONTINUOUS
10
-0.314726
20
0.326601
11
-0.313976
21
0.322835
0
LINE
8
BLACK
6
CONTINUOUS
10
-0.313976
20
0.322835
11
-0.313976
21
0.30315
0
LINE
8
BLACK
6
CONTINUOUS
10
-0.313976
20
0.30315
11
-0.314726
21
0.299383
0
LINE
8
BLACK
6
CONTINUOUS
10
-0.314726
20
0.299383
11
-0.316859
21
0.29619
0
LINE
8
BLACK
6
CONTINUOUS
10
-0.316859
20
0.29619
11
-0.320052
21
0.294056
0
LINE
8
BLACK
6
CONTINUOUS
10
-0.320052
20
0.294056
11
-0.323819
21
0.293307
0
LINE
8
BLACK
6
CONTINUOUS
10
-0.323819
20
0.293307
11
-0.36122
21
0.293307
0
LINE
8
BLACK
6
CONTINUOUS
10
-0.36122
20
0.293307
11
-0.364987
21
0.294056
0
LINE
8
BLACK
6
CONTINUOUS
10
-0.364987
20
0.294056
11
-0.36818
21
0.29619
0
LINE
8
BLACK
6
CONTINUOUS
10
-0.36818
20
0.29619
11
-0.370314
21
0.299383
0
LINE
8
BLACK
6
CONTINUOUS
10
-0.370314
20
0.299383
11
-0.371063
21
0.30315
0
LINE
8
BLACK
6
CONTINUOUS
10
-0.371063
20
0.30315
11
-0.371063
21
0.322835
0
LINE
8
BLACK
6
CONTINUOUS
10
-0.371063
20
0.322835
11
-0.370314
21
0.326601
0
LINE
8
BLACK
6
CONTINUOUS
10
-0.370314
20
0.326601
11
-0.36818
21
0.329794
0
LINE
8
BLACK
6
CONTINUOUS
10
-0.36818
20
0.329794
11
-0.364987
21
0.331928
0
LINE
8
BLACK
6
CONTINUOUS
10
-0.364987
20
0.331928
11
-0.36122
21
0.332677
0
LINE
8
BLACK
6
CONTINUOUS
10
-0.36122
20
0.332677
11
-0.323819
21
0.332677
0
LINE
8
BLACK
6
CONTINUOUS
10
-0.323819
20
0.332677
11
-0.320052
21
0.331928
0
LINE
8
BLACK
6
CONTINUOUS
10
-0.417346
20
0.317657
11
-0.41543
21
0.316377
0
LINE
8
BLACK
6
CONTINUOUS
10
-0.41543
20
0.316377
11
-0.41415
21
0.314461
0
LINE
8
BLACK
6
CONTINUOUS
10
-0.41415
20
0.314461
11
-0.413701
21
0.312201
0
LINE
8
BLACK
6
CONTINUOUS
10
-0.413701
20
0.312201
11
-0.413701
21
0.30039
0
LINE
8
BLACK
6
CONTINUOUS
10
-0.413701
20
0.30039
11
-0.41415
21
0.29813
0
LINE
8
BLACK
6
CONTINUOUS
10
-0.41415
20
0.29813
11
-0.41543
21
0.296214
0
LINE
8
BLACK
6
CONTINUOUS
10
-0.41543
20
0.296214
11
-0.417346
21
0.294934
0
LINE
8
BLACK
6
CONTINUOUS
10
-0.417346
20
0.294934
11
-0.419606
21
0.294484
0
LINE
8
BLACK
6
CONTINUOUS
10
-0.419606
20
0.294484
11
-0.474724
21
0.294484
0
LINE
8
BLACK
6
CONTINUOUS
10
-0.474724
20
0.294484
11
-0.476984
21
0.294934
0
LINE
8
BLACK
6
CONTINUOUS
10
-0.476984
20
0.294934
11
-0.4789
21
0.296214
0
LINE
8
BLACK
6
CONTINUOUS
10
-0.4789
20
0.296214
11
-0.48018
21
0.29813
0
LINE
8
BLACK
6
CONTINUOUS
10
-0.48018
20
0.29813
11
-0.48063
21
0.30039
0
LINE
8
BLACK
6
CONTINUOUS
10
-0.48063
20
0.30039
11
-0.48063
21
0.312201
0
LINE
8
BLACK
6
CONTINUOUS
10
-0.48063
20
0.312201
11
-0.48018
21
0.314461
0
LINE
8
BLACK
6
CONTINUOUS
10
-0.48018
20
0.314461
11
-0.4789
21
0.316377
0
LINE
8
BLACK
6
CONTINUOUS
10
-0.4789
20
0.316377
11
-0.476984
21
0.317657
0
LINE
8
BLACK
6
CONTINUOUS
10
-0.476984
20
0.317657
11
-0.474724
21
0.318106
0
LINE
8
BLACK
6
CONTINUOUS
10
-0.474724
20
0.318106
11
-0.419606
21
0.318106
0
LINE
8
BLACK
6
CONTINUOUS
10
-0.419606
20
0.318106
11
-0.417346
21
0.317657
0
LINE
8
BLACK
6
CONTINUOUS
10
-0.0574
20
0.40311
11
-0.0532615
21
0.401281
0
LINE
8
BLACK
6
CONTINUOUS
10
-0.0532615
20
0.401281
11
-0.0499388
21
0.398209
0
LINE
8
BLACK
6
CONTINUOUS
10
-0.0499388
20
0.398209
11
-0.0477902
21
0.394227
0
LINE
8
BLACK
6
CONTINUOUS
10
-0.0477902
20
0.394227
11
-0.0470472
21
0.389764
0
LINE
8
BLACK
6
CONTINUOUS
10
-0.0470472
20
0.389764
11
-0.0470472
21
0.314961
0
LINE
8
BLACK
6
CONTINUOUS
10
-0.0470472
20
0.314961
11
-0.0472524
21
0.312592
0
LINE
8
BLACK
6
CONTINUOUS
10
-0.0472524
20
0.312592
11
-0.0487517
21
0.308322
0
LINE
8
BLACK
6
CONTINUOUS
10
-0.0487517
20
0.308322
11
-0.051553
21
0.304769
0
LINE
8
BLACK
6
CONTINUOUS
10
-0.051553
20
0.304769
11
-0.0553543
21
0.302314
0
LINE
8
BLACK
6
CONTINUOUS
10
-0.0553543
20
0.302314
11
-0.0597456
21
0.301224
0
LINE
8
BLACK
6
CONTINUOUS
10
-0.0597456
20
0.301224
11
-0.0642536
21
0.301614
0
LINE
8
BLACK
6
CONTINUOUS
10
-0.0642536
20
0.301614
11
-0.068392
21
0.303444
0
LINE
8
BLACK
6
CONTINUOUS
10
-0.068392
20
0.303444
11
-0.0717147
21
0.306515
0
LINE
8
BLACK
6
CONTINUOUS
10
-0.0717147
20
0.306515
11
-0.0738634
21
0.310497
0
LINE
8
BLACK
6
CONTINUOUS
10
-0.0738634
20
0.310497
11
-0.0746063
21
0.314961
0
LINE
8
BLACK
6
CONTINUOUS
10
-0.0746063
20
0.314961
11
-0.0746063
21
0.389764
0
LINE
8
BLACK
6
CONTINUOUS
10
-0.0746063
20
0.389764
11
-0.0744011
21
0.392133
0
LINE
8
BLACK
6
CONTINUOUS
10
-0.0744011
20
0.392133
11
-0.0729019
21
0.396402
0
LINE
8
BLACK
6
CONTINUOUS
10
-0.0729019
20
0.396402
11
-0.0701006
21
0.399956
0
LINE
8
BLACK
6
CONTINUOUS
10
-0.0701006
20
0.399956
11
-0.0662993
21
0.40241
0
LINE
8
BLACK
6
CONTINUOUS
10
-0.0662993
20
0.40241
11
-0.0619079
21
0.403501
0
LINE
8
BLACK
6
CONTINUOUS
10
-0.0619079
20
0.403501
11
-0.0574
21
0.40311
0
LINE
8
BLACK
6
CONTINUOUS
10
-0.104841
20
0.40311
11
-0.100702
21
0.401281
0
LINE
8
BLACK
6
CONTINUOUS
10
-0.100702
20
0.401281
11
-0.0973798
21
0.398209
0
LINE
8
BLACK
6
CONTINUOUS
10
-0.0973798
20
0.398209
11
-0.0952311
21
0.394227
0
LINE
8
BLACK
6
CONTINUOUS
10
-0.0952311
20
0.394227
11
-0.0944882
21
0.389764
0
LINE
8
BLACK
6
CONTINUOUS
10
-0.0944882
20
0.389764
11
-0.0944882
21
0.314961
0
LINE
8
BLACK
6
CONTINUOUS
10
-0.0944882
20
0.314961
11
-0.0946934
21
0.312592
0
LINE
8
BLACK
6
CONTINUOUS
10
-0.0946934
20
0.312592
11
-0.0961926
21
0.308322
0
LINE
8
BLACK
6
CONTINUOUS
10
-0.0961926
20
0.308322
11
-0.0989939
21
0.304769
0
LINE
8
BLACK
6
CONTINUOUS
10
-0.0989939
20
0.304769
11
-0.102795
21
0.302314
0
LINE
8
BLACK
6
CONTINUOUS
10
-0.102795
20
0.302314
11
-0.107187
21
0.301224
0
LINE
8
BLACK
6
CONTINUOUS
10
-0.107187
20
0.301224
11
-0.111695
21
0.301614
0
LINE
8
BLACK
6
CONTINUOUS
10
-0.111695
20
0.301614
11
-0.115833
21
0.303444
0
LINE
8
BLACK
6
CONTINUOUS
10
-0.115833
20
0.303444
11
-0.119156
21
0.306515
0
LINE
8
BLACK
6
CONTINUOUS
10
-0.119156
20
0.306515
11
-0.121304
21
0.310497
0
LINE
8
BLACK
6
CONTINUOUS
10
-0.121304
20
0.310497
11
-0.122047
21
0.314961
0
LINE
8
BLACK
6
CONTINUOUS
10
-0.122047
20
0.314961
11
-0.122047
21
0.389764
0
LINE
8
BLACK
6
CONTINUOUS
10
-0.122047
20
0.389764
11
-0.121842
21
0.392133
0
LINE
8
BLACK
6
CONTINUOUS
10
-0.121842
20
0.392133
11
-0.120343
21
0.396402
0
LINE
8
BLACK
6
CONTINUOUS
10
-0.120343
20
0.396402
11
-0.117541
21
0.399956
0
LINE
8
BLACK
6
CONTINUOUS
10
-0.117541
20
0.399956
11
-0.11374
21
0.40241
0
LINE
8
BLACK
6
CONTINUOUS
10
-0.11374
20
0.40241
11
-0.109349
21
0.403501
0
LINE
8
BLACK
6
CONTINUOUS
10
-0.109349
20
0.403501
11
-0.104841
21
0.40311
0
LINE
8
BLACK
6
CONTINUOUS
10
-0.1574
20
0.40311
11
-0.153261
21
0.401281
0
LINE
8
BLACK
6
CONTINUOUS
10
-0.153261
20
0.401281
11
-0.149939
21
0.398209
0
LINE
8
BLACK
6
CONTINUOUS
10
-0.149939
20
0.398209
11
-0.14779
21
0.394227
0
LINE
8
BLACK
6
CONTINUOUS
10
-0.14779
20
0.394227
11
-0.147047
21
0.389764
0
LINE
8
BLACK
6
CONTINUOUS
10
-0.147047
20
0.389764
11
-0.147047
21
0.314961
0
LINE
8
BLACK
6
CONTINUOUS
10
-0.147047
20
0.314961
11
-0.147252
21
0.312592
0
LINE
8
BLACK
6
CONTINUOUS
10
-0.147252
20
0.312592
11
-0.148752
21
0.308322
0
LINE
8
BLACK
6
CONTINUOUS
10
-0.148752
20
0.308322
11
-0.151553
21
0.304769
0
LINE
8
BLACK
6
CONTINUOUS
10
-0.151553
20
0.304769
11
-0.155354
21
0.302314
0
LINE
8
BLACK
6
CONTINUOUS
10
-0.155354
20
0.302314
11
-0.159746
21
0.301224
0
LINE
8
BLACK
6
CONTINUOUS
10
-0.159746
20
0.301224
11
-0.164254
21
0.301614
0
LINE
8
BLACK
6
CONTINUOUS
10
-0.164254
20
0.301614
11
-0.168392
21
0.303444
0
LINE
8
BLACK
6
CONTINUOUS
10
-0.168392
20
0.303444
11
-0.171715
21
0.306515
0
LINE
8
BLACK
6
CONTINUOUS
10
-0.171715
20
0.306515
11
-0.173863
21
0.310497
0
LINE
8
BLACK
6
CONTINUOUS
10
-0.173863
20
0.310497
11
-0.174606
21
0.314961
0
LINE
8
BLACK
6
CONTINUOUS
10
-0.174606
20
0.314961
11
-0.174606
21
0.389764
0
LINE
8
BLACK
6
CONTINUOUS
10
-0.174606
20
0.389764
11
-0.174401
21
0.392133
0
LINE
8
BLACK
6
CONTINUOUS
10
-0.174401
20
0.392133
11
-0.172902
21
0.396402
0
LINE
8
BLACK
6
CONTINUOUS
10
-0.172902
20
0.396402
11
-0.170101
21
0.399956
0
LINE
8
BLACK
6
CONTINUOUS
10
-0.170101
20
0.399956
11
-0.166299
21
0.40241
0
LINE
8
BLACK
6
CONTINUOUS
10
-0.166299
20
0.40241
11
-0.161908
21
0.403501
0
LINE
8
BLACK
6
CONTINUOUS
10
-0.161908
20
0.403501
11
-0.1574
21
0.40311
0
LINE
8
BLACK
6
CONTINUOUS
10
-0.2074
20
0.40311
11
-0.203261
21
0.401281
0
LINE
8
BLACK
6
CONTINUOUS
10
-0.203261
20
0.401281
11
-0.199939
21
0.398209
0
LINE
8
BLACK
6
CONTINUOUS
10
-0.199939
20
0.398209
11
-0.19779
21
0.394227
0
LINE
8
BLACK
6
CONTINUOUS
10
-0.19779
20
0.394227
11
-0.197047
21
0.389764
0
LINE
8
BLACK
6
CONTINUOUS
10
-0.197047
20
0.389764
11
-0.197047
21
0.314961
0
LINE
8
BLACK
6
CONTINUOUS
10
-0.197047
20
0.314961
11
-0.197252
21
0.312592
0
LINE
8
BLACK
6
CONTINUOUS
10
-0.197252
20
0.312592
11
-0.198752
21
0.308322
0
LINE
8
BLACK
6
CONTINUOUS
10
-0.198752
20
0.308322
11
-0.201553
21
0.304769
0
LINE
8
BLACK
6
CONTINUOUS
10
-0.201553
20
0.304769
11
-0.205354
21
0.302314
0
LINE
8
BLACK
6
CONTINUOUS
10
-0.205354
20
0.302314
11
-0.209746
21
0.301224
0
LINE
8
BLACK
6
CONTINUOUS
10
-0.209746
20
0.301224
11
-0.214254
21
0.301614
0
LINE
8
BLACK
6
CONTINUOUS
10
-0.214254
20
0.301614
11
-0.218392
21
0.303444
0
LINE
8
BLACK
6
CONTINUOUS
10
-0.218392
20
0.303444
11
-0.221715
21
0.306515
0
LINE
8
BLACK
6
CONTINUOUS
10
-0.221715
20
0.306515
11
-0.223863
21
0.310497
0
LINE
8
BLACK
6
CONTINUOUS
10
-0.223863
20
0.310497
11
-0.224606
21
0.314961
0
LINE
8
BLACK
6
CONTINUOUS
10
-0.224606
20
0.314961
11
-0.224606
21
0.389764
0
LINE
8
BLACK
6
CONTINUOUS
10
-0.224606
20
0.389764
11
-0.224401
21
0.392133
0
LINE
8
BLACK
6
CONTINUOUS
10
-0.224401
20
0.392133
11
-0.222902
21
0.396402
0
LINE
8
BLACK
6
CONTINUOUS
10
-0.222902
20
0.396402
11
-0.220101
21
0.399956
0
LINE
8
BLACK
6
CONTINUOUS
10
-0.220101
20
0.399956
11
-0.216299
21
0.40241
0
LINE
8
BLACK
6
CONTINUOUS
10
-0.216299
20
0.40241
11
-0.211908
21
0.403501
0
LINE
8
BLACK
6
CONTINUOUS
10
-0.211908
20
0.403501
11
-0.2074
21
0.40311
0
LINE
8
BLACK
6
CONTINUOUS
10
0.0692364
20
0.347554
11
0.0721102
21
0.345634
0
LINE
8
BLACK
6
CONTINUOUS
10
0.0721102
20
0.345634
11
0.0740304
21
0.34276
0
LINE
8
BLACK
6
CONTINUOUS
10
0.0740304
20
0.34276
11
0.0747047
21
0.33937
0
LINE
8
BLACK
6
CONTINUOUS
10
0.0747047
20
0.33937
11
0.0747047
21
0.321654
0
LINE
8
BLACK
6
CONTINUOUS
10
0.0747047
20
0.321654
11
0.0740304
21
0.318264
0
LINE
8
BLACK
6
CONTINUOUS
10
0.0740304
20
0.318264
11
0.0721102
21
0.31539
0
LINE
8
BLACK
6
CONTINUOUS
10
0.0721102
20
0.31539
11
0.0692364
21
0.31347
0
LINE
8
BLACK
6
CONTINUOUS
10
0.0692364
20
0.31347
11
0.0658465
21
0.312795
0
LINE
8
BLACK
6
CONTINUOUS
10
0.0658465
20
0.312795
11
0.0461614
21
0.312795
0
LINE
8
BLACK
6
CONTINUOUS
10
0.0461614
20
0.312795
11
0.0427715
21
0.31347
0
LINE
8
BLACK
6
CONTINUOUS
10
0.0427715
20
0.31347
11
0.0398977
21
0.31539
0
LINE
8
BLACK
6
CONTINUOUS
10
0.0398977
20
0.31539
11
0.0379774
21
0.318264
0
LINE
8
BLACK
6
CONTINUOUS
10
0.0379774
20
0.318264
11
0.0373031
21
0.321654
0
LINE
8
BLACK
6
CONTINUOUS
10
0.0373031
20
0.321654
11
0.0373031
21
0.33937
0
LINE
8
BLACK
6
CONTINUOUS
10
0.0373031
20
0.33937
11
0.0379774
21
0.34276
0
LINE
8
BLACK
6
CONTINUOUS
10
0.0379774
20
0.34276
11
0.0398977
21
0.345634
0
LINE
8
BLACK
6
CONTINUOUS
10
0.0398977
20
0.345634
11
0.0427715
21
0.347554
0
LINE
8
BLACK
6
CONTINUOUS
10
0.0427715
20
0.347554
11
0.0461614
21
0.348228
0
LINE
8
BLACK
6
CONTINUOUS
10
0.0461614
20
0.348228
11
0.0658465
21
0.348228
0
LINE
8
BLACK
6
CONTINUOUS
10
0.0658465
20
0.348228
11
0.0692364
21
0.347554
0
LINE
8
BLACK
6
CONTINUOUS
10
-0.417346
20
0.36687
11
-0.41543
21
0.365589
0
LINE
8
BLACK
6
CONTINUOUS
10
-0.41543
20
0.365589
11
-0.41415
21
0.363674
0
LINE
8
BLACK
6
CONTINUOUS
10
-0.41415
20
0.363674
11
-0.413701
21
0.361414
0
LINE
8
BLACK
6
CONTINUOUS
10
-0.413701
20
0.361414
11
-0.413701
21
0.349603
0
LINE
8
BLACK
6
CONTINUOUS
10
-0.413701
20
0.349603
11
-0.41415
21
0.347343
0
LINE
8
BLACK
6
CONTINUOUS
10
-0.41415
20
0.347343
11
-0.41543
21
0.345427
0
LINE
8
BLACK
6
CONTINUOUS
10
-0.41543
20
0.345427
11
-0.417346
21
0.344147
0
LINE
8
BLACK
6
CONTINUOUS
10
-0.417346
20
0.344147
11
-0.419606
21
0.343697
0
LINE
8
BLACK
6
CONTINUOUS
10
-0.419606
20
0.343697
11
-0.474724
21
0.343697
0
LINE
8
BLACK
6
CONTINUOUS
10
-0.474724
20
0.343697
11
-0.476984
21
0.344147
0
LINE
8
BLACK
6
CONTINUOUS
10
-0.476984
20
0.344147
11
-0.4789
21
0.345427
0
LINE
8
BLACK
6
CONTINUOUS
10
-0.4789
20
0.345427
11
-0.48018
21
0.347343
0
LINE
8
BLACK
6
CONTINUOUS
10
-0.48018
20
0.347343
11
-0.48063
21
0.349603
0
LINE
8
BLACK
6
CONTINUOUS
10
-0.48063
20
0.349603
11
-0.48063
21
0.361414
0
LINE
8
BLACK
6
CONTINUOUS
10
-0.48063
20
0.361414
11
-0.48018
21
0.363674
0
LINE
8
BLACK
6
CONTINUOUS
10
-0.48018
20
0.363674
11
-0.4789
21
0.365589
0
LINE
8
BLACK
6
CONTINUOUS
10
-0.4789
20
0.365589
11
-0.476984
21
0.36687
0
LINE
8
BLACK
6
CONTINUOUS
10
-0.476984
20
0.36687
11
-0.474724
21
0.367319
0
LINE
8
BLACK
6
CONTINUOUS
10
-0.474724
20
0.367319
11
-0.419606
21
0.367319
0
LINE
8
BLACK
6
CONTINUOUS
10
-0.419606
20
0.367319
11
-0.417346
21
0.36687
0
LINE
8
BLACK
6
CONTINUOUS
10
-0.320052
20
0.406731
11
-0.316859
21
0.404598
0
LINE
8
BLACK
6
CONTINUOUS
10
-0.316859
20
0.404598
11
-0.314726
21
0.401404
0
LINE
8
BLACK
6
CONTINUOUS
10
-0.314726
20
0.401404
11
-0.313976
21
0.397638
0
LINE
8
BLACK
6
CONTINUOUS
10
-0.313976
20
0.397638
11
-0.313976
21
0.377953
0
LINE
8
BLACK
6
CONTINUOUS
10
-0.313976
20
0.377953
11
-0.314726
21
0.374186
0
LINE
8
BLACK
6
CONTINUOUS
10
-0.314726
20
0.374186
11
-0.316859
21
0.370993
0
LINE
8
BLACK
6
CONTINUOUS
10
-0.316859
20
0.370993
11
-0.320052
21
0.368859
0
LINE
8
BLACK
6
CONTINUOUS
10
-0.320052
20
0.368859
11
-0.323819
21
0.36811
0
LINE
8
BLACK
6
CONTINUOUS
10
-0.323819
20
0.36811
11
-0.36122
21
0.36811
0
LINE
8
BLACK
6
CONTINUOUS
10
-0.36122
20
0.36811
11
-0.364987
21
0.368859
0
LINE
8
BLACK
6
CONTINUOUS
10
-0.364987
20
0.368859
11
-0.36818
21
0.370993
0
LINE
8
BLACK
6
CONTINUOUS
10
-0.36818
20
0.370993
11
-0.370314
21
0.374186
0
LINE
8
BLACK
6
CONTINUOUS
10
-0.370314
20
0.374186
11
-0.371063
21
0.377953
0
LINE
8
BLACK
6
CONTINUOUS
10
-0.371063
20
0.377953
11
-0.371063
21
0.397638
0
LINE
8
BLACK
6
CONTINUOUS
10
-0.371063
20
0.397638
11
-0.370314
21
0.401404
0
LINE
8
BLACK
6
CONTINUOUS
10
-0.370314
20
0.401404
11
-0.36818
21
0.404598
0
LINE
8
BLACK
6
CONTINUOUS
10
-0.36818
20
0.404598
11
-0.364987
21
0.406731
0
LINE
8
BLACK
6
CONTINUOUS
10
-0.364987
20
0.406731
11
-0.36122
21
0.40748
0
LINE
8
BLACK
6
CONTINUOUS
10
-0.36122
20
0.40748
11
-0.323819
21
0.40748
0
LINE
8
BLACK
6
CONTINUOUS
10
-0.323819
20
0.40748
11
-0.320052
21
0.406731
0
LINE
8
BLACK
6
CONTINUOUS
10
0.520499
20
0.418542
11
0.523692
21
0.416409
0
LINE
8
BLACK
6
CONTINUOUS
10
0.523692
20
0.416409
11
0.525826
21
0.413215
0
LINE
8
BLACK
6
CONTINUOUS
10
0.525826
20
0.413215
11
0.526575
21
0.409449
0
LINE
8
BLACK
6
CONTINUOUS
10
0.526575
20
0.409449
11
0.526575
21
0.389764
0
LINE
8
BLACK
6
CONTINUOUS
10
0.526575
20
0.389764
11
0.525826
21
0.385997
0
LINE
8
BLACK
6
CONTINUOUS
10
0.525826
20
0.385997
11
0.523692
21
0.382804
0
LINE
8
BLACK
6
CONTINUOUS
10
0.523692
20
0.382804
11
0.520499
21
0.38067
0
LINE
8
BLACK
6
CONTINUOUS
10
0.520499
20
0.38067
11
0.516732
21
0.379921
0
LINE
8
BLACK
6
CONTINUOUS
10
0.516732
20
0.379921
11
0.479331
21
0.379921
0
LINE
8
BLACK
6
CONTINUOUS
10
0.479331
20
0.379921
11
0.475564
21
0.38067
0
LINE
8
BLACK
6
CONTINUOUS
10
0.475564
20
0.38067
11
0.472371
21
0.382804
0
LINE
8
BLACK
6
CONTINUOUS
10
0.472371
20
0.382804
11
0.470237
21
0.385997
0
LINE
8
BLACK
6
CONTINUOUS
10
0.470237
20
0.385997
11
0.469488
21
0.389764
0
LINE
8
BLACK
6
CONTINUOUS
10
0.469488
20
0.389764
11
0.469488
21
0.409449
0
LINE
8
BLACK
6
CONTINUOUS
10
0.469488
20
0.409449
11
0.470237
21
0.413215
0
LINE
8
BLACK
6
CONTINUOUS
10
0.470237
20
0.413215
11
0.472371
21
0.416409
0
LINE
8
BLACK
6
CONTINUOUS
10
0.472371
20
0.416409
11
0.475564
21
0.418542
0
LINE
8
BLACK
6
CONTINUOUS
10
0.475564
20
0.418542
11
0.479331
21
0.419291
0
LINE
8
BLACK
6
CONTINUOUS
10
0.479331
20
0.419291
11
0.516732
21
0.419291
0
LINE
8
BLACK
6
CONTINUOUS
10
0.516732
20
0.419291
11
0.520499
21
0.418542
0
LINE
8
BLACK
6
CONTINUOUS
10
0.606129
20
0.420511
11
0.609322
21
0.418377
0
LINE
8
BLACK
6
CONTINUOUS
10
0.609322
20
0.418377
11
0.611456
21
0.415184
0
LINE
8
BLACK
6
CONTINUOUS
10
0.611456
20
0.415184
11
0.612205
21
0.411417
0
LINE
8
BLACK
6
CONTINUOUS
10
0.612205
20
0.411417
11
0.612205
21
0.390748
0
LINE
8
BLACK
6
CONTINUOUS
10
0.612205
20
0.390748
11
0.611456
21
0.386981
0
LINE
8
BLACK
6
CONTINUOUS
10
0.611456
20
0.386981
11
0.609322
21
0.383788
0
LINE
8
BLACK
6
CONTINUOUS
10
0.609322
20
0.383788
11
0.606129
21
0.381655
0
LINE
8
BLACK
6
CONTINUOUS
10
0.606129
20
0.381655
11
0.602362
21
0.380906
0
LINE
8
BLACK
6
CONTINUOUS
10
0.602362
20
0.380906
11
0.566929
21
0.380906
0
LINE
8
BLACK
6
CONTINUOUS
10
0.566929
20
0.380906
11
0.563163
21
0.381655
0
LINE
8
BLACK
6
CONTINUOUS
10
0.563163
20
0.381655
11
0.559969
21
0.383788
0
LINE
8
BLACK
6
CONTINUOUS
10
0.559969
20
0.383788
11
0.557836
21
0.386981
0
LINE
8
BLACK
6
CONTINUOUS
10
0.557836
20
0.386981
11
0.557087
21
0.390748
0
LINE
8
BLACK
6
CONTINUOUS
10
0.557087
20
0.390748
11
0.557087
21
0.411417
0
LINE
8
BLACK
6
CONTINUOUS
10
0.557087
20
0.411417
11
0.557836
21
0.415184
0
LINE
8
BLACK
6
CONTINUOUS
10
0.557836
20
0.415184
11
0.559969
21
0.418377
0
LINE
8
BLACK
6
CONTINUOUS
10
0.559969
20
0.418377
11
0.563163
21
0.420511
0
LINE
8
BLACK
6
CONTINUOUS
10
0.563163
20
0.420511
11
0.566929
21
0.42126
0
LINE
8
BLACK
6
CONTINUOUS
10
0.566929
20
0.42126
11
0.602362
21
0.42126
0
LINE
8
BLACK
6
CONTINUOUS
10
0.602362
20
0.42126
11
0.606129
21
0.420511
0
LINE
8
BLACK
6
CONTINUOUS
10
0.4329
20
0.420511
11
0.436094
21
0.418377
0
LINE
8
BLACK
6
CONTINUOUS
10
0.436094
20
0.418377
11
0.438227
21
0.415184
0
LINE
8
BLACK
6
CONTINUOUS
10
0.438227
20
0.415184
11
0.438976
21
0.411417
0
LINE
8
BLACK
6
CONTINUOUS
10
0.438976
20
0.411417
11
0.438976
21
0.390748
0
LINE
8
BLACK
6
CONTINUOUS
10
0.438976
20
0.390748
11
0.438227
21
0.386981
0
LINE
8
BLACK
6
CONTINUOUS
10
0.438227
20
0.386981
11
0.436094
21
0.383788
0
LINE
8
BLACK
6
CONTINUOUS
10
0.436094
20
0.383788
11
0.4329
21
0.381655
0
LINE
8
BLACK
6
CONTINUOUS
10
0.4329
20
0.381655
11
0.429134
21
0.380906
0
LINE
8
BLACK
6
CONTINUOUS
10
0.429134
20
0.380906
11
0.393701
21
0.380906
0
LINE
8
BLACK
6
CONTINUOUS
10
0.393701
20
0.380906
11
0.389934
21
0.381655
0
LINE
8
BLACK
6
CONTINUOUS
10
0.389934
20
0.381655
11
0.386741
21
0.383788
0
LINE
8
BLACK
6
CONTINUOUS
10
0.386741
20
0.383788
11
0.384607
21
0.386981
0
LINE
8
BLACK
6
CONTINUOUS
10
0.384607
20
0.386981
11
0.383858
21
0.390748
0
LINE
8
BLACK
6
CONTINUOUS
10
0.383858
20
0.390748
11
0.383858
21
0.411417
0
LINE
8
BLACK
6
CONTINUOUS
10
0.383858
20
0.411417
11
0.384607
21
0.415184
0
LINE
8
BLACK
6
CONTINUOUS
10
0.384607
20
0.415184
11
0.386741
21
0.418377
0
LINE
8
BLACK
6
CONTINUOUS
10
0.386741
20
0.418377
11
0.389934
21
0.420511
0
LINE
8
BLACK
6
CONTINUOUS
10
0.389934
20
0.420511
11
0.393701
21
0.42126
0
LINE
8
BLACK
6
CONTINUOUS
10
0.393701
20
0.42126
11
0.429134
21
0.42126
0
LINE
8
BLACK
6
CONTINUOUS
10
0.429134
20
0.42126
11
0.4329
21
0.420511
0
LINE
8
BLACK
6
CONTINUOUS
10
0.154724
20
0.392717
11
0.112992
21
0.392717
0
LINE
8
BLACK
6
CONTINUOUS
10
0.112992
20
0.392717
11
0.112992
21
0.418307
0
LINE
8
BLACK
6
CONTINUOUS
10
0.112992
20
0.418307
11
0.154724
21
0.418307
0
LINE
8
BLACK
6
CONTINUOUS
10
0.154724
20
0.418307
11
0.154724
21
0.392717
0
LINE
8
BLACK
6
CONTINUOUS
10
0.0681102
20
0.392717
11
0.026378
21
0.392717
0
LINE
8
BLACK
6
CONTINUOUS
10
0.026378
20
0.392717
11
0.026378
21
0.418307
0
LINE
8
BLACK
6
CONTINUOUS
10
0.026378
20
0.418307
11
0.0681102
21
0.418307
0
LINE
8
BLACK
6
CONTINUOUS
10
0.0681102
20
0.418307
11
0.0681102
21
0.392717
0
LINE
8
BLACK
6
CONTINUOUS
10
-0.417346
20
0.416082
11
-0.41543
21
0.414802
0
LINE
8
BLACK
6
CONTINUOUS
10
-0.41543
20
0.414802
11
-0.41415
21
0.412886
0
LINE
8
BLACK
6
CONTINUOUS
10
-0.41415
20
0.412886
11
-0.413701
21
0.410626
0
LINE
8
BLACK
6
CONTINUOUS
10
-0.413701
20
0.410626
11
-0.413701
21
0.398815
0
LINE
8
BLACK
6
CONTINUOUS
10
-0.413701
20
0.398815
11
-0.41415
21
0.396555
0
LINE
8
BLACK
6
CONTINUOUS
10
-0.41415
20
0.396555
11
-0.41543
21
0.394639
0
LINE
8
BLACK
6
CONTINUOUS
10
-0.41543
20
0.394639
11
-0.417346
21
0.393359
0
LINE
8
BLACK
6
CONTINUOUS
10
-0.417346
20
0.393359
11
-0.419606
21
0.39291
0
LINE
8
BLACK
6
CONTINUOUS
10
-0.419606
20
0.39291
11
-0.474724
21
0.39291
0
LINE
8
BLACK
6
CONTINUOUS
10
-0.474724
20
0.39291
11
-0.476984
21
0.393359
0
LINE
8
BLACK
6
CONTINUOUS
10
-0.476984
20
0.393359
11
-0.4789
21
0.394639
0
LINE
8
BLACK
6
CONTINUOUS
10
-0.4789
20
0.394639
11
-0.48018
21
0.396555
0
LINE
8
BLACK
6
CONTINUOUS
10
-0.48018
20
0.396555
11
-0.48063
21
0.398815
0
LINE
8
BLACK
6
CONTINUOUS
10
-0.48063
20
0.398815
11
-0.48063
21
0.410626
0
LINE
8
BLACK
6
CONTINUOUS
10
-0.48063
20
0.410626
11
-0.48018
21
0.412886
0
LINE
8
BLACK
6
CONTINUOUS
10
-0.48018
20
0.412886
11
-0.4789
21
0.414802
0
LINE
8
BLACK
6
CONTINUOUS
10
-0.4789
20
0.414802
11
-0.476984
21
0.416082
0
LINE
8
BLACK
6
CONTINUOUS
10
-0.476984
20
0.416082
11
-0.474724
21
0.416532
0
LINE
8
BLACK
6
CONTINUOUS
10
-0.474724
20
0.416532
11
-0.419606
21
0.416532
0
LINE
8
BLACK
6
CONTINUOUS
10
-0.419606
20
0.416532
11
-0.417346
21
0.416082
0
LINE
8
BLACK
6
CONTINUOUS
10
0.231736
20
0.433381
11
0.23461
21
0.431461
0
LINE
8
BLACK
6
CONTINUOUS
10
0.23461
20
0.431461
11
0.23653
21
0.428587
0
LINE
8
BLACK
6
CONTINUOUS
10
0.23653
20
0.428587
11
0.237205
21
0.425197
0
LINE
8
BLACK
6
CONTINUOUS
10
0.237205
20
0.425197
11
0.237205
21
0.40748
0
LINE
8
BLACK
6
CONTINUOUS
10
0.237205
20
0.40748
11
0.23653
21
0.40409
0
LINE
8
BLACK
6
CONTINUOUS
10
0.23653
20
0.40409
11
0.23461
21
0.401217
0
LINE
8
BLACK
6
CONTINUOUS
10
0.23461
20
0.401217
11
0.231736
21
0.399296
0
LINE
8
BLACK
6
CONTINUOUS
10
0.231736
20
0.399296
11
0.228346
21
0.398622
0
LINE
8
BLACK
6
CONTINUOUS
10
0.228346
20
0.398622
11
0.208661
21
0.398622
0
LINE
8
BLACK
6
CONTINUOUS
10
0.208661
20
0.398622
11
0.205271
21
0.399296
0
LINE
8
BLACK
6
CONTINUOUS
10
0.205271
20
0.399296
11
0.202398
21
0.401217
0
LINE
8
BLACK
6
CONTINUOUS
10
0.202398
20
0.401217
11
0.200477
21
0.40409
0
LINE
8
BLACK
6
CONTINUOUS
10
0.200477
20
0.40409
11
0.199803
21
0.40748
0
LINE
8
BLACK
6
CONTINUOUS
10
0.199803
20
0.40748
11
0.199803
21
0.425197
0
LINE
8
BLACK
6
CONTINUOUS
10
0.199803
20
0.425197
11
0.200477
21
0.428587
0
LINE
8
BLACK
6
CONTINUOUS
10
0.200477
20
0.428587
11
0.202398
21
0.431461
0
LINE
8
BLACK
6
CONTINUOUS
10
0.202398
20
0.431461
11
0.205271
21
0.433381
0
LINE
8
BLACK
6
CONTINUOUS
10
0.205271
20
0.433381
11
0.208661
21
0.434055
0
LINE
8
BLACK
6
CONTINUOUS
10
0.208661
20
0.434055
11
0.228346
21
0.434055
0
LINE
8
BLACK
6
CONTINUOUS
10
0.228346
20
0.434055
11
0.231736
21
0.433381
0
LINE
8
BLACK
6
CONTINUOUS
10
0.0681102
20
0.430118
11
0.026378
21
0.430118
0
LINE
8
BLACK
6
CONTINUOUS
10
0.026378
20
0.430118
11
0.026378
21
0.455709
0
LINE
8
BLACK
6
CONTINUOUS
10
0.026378
20
0.455709
11
0.0681102
21
0.455709
0
LINE
8
BLACK
6
CONTINUOUS
10
0.0681102
20
0.455709
11
0.0681102
21
0.430118
0
LINE
8
BLACK
6
CONTINUOUS
10
-0.417346
20
0.465295
11
-0.41543
21
0.464015
0
LINE
8
BLACK
6
CONTINUOUS
10
-0.41543
20
0.464015
11
-0.41415
21
0.462099
0
LINE
8
BLACK
6
CONTINUOUS
10
-0.41415
20
0.462099
11
-0.413701
21
0.459839
0
LINE
8
BLACK
6
CONTINUOUS
10
-0.413701
20
0.459839
11
-0.413701
21
0.448028
0
LINE
8
BLACK
6
CONTINUOUS
10
-0.413701
20
0.448028
11
-0.41415
21
0.445768
0
LINE
8
BLACK
6
CONTINUOUS
10
-0.41415
20
0.445768
11
-0.41543
21
0.443852
0
LINE
8
BLACK
6
CONTINUOUS
10
-0.41543
20
0.443852
11
-0.417346
21
0.442572
0
LINE
8
BLACK
6
CONTINUOUS
10
-0.417346
20
0.442572
11
-0.419606
21
0.442122
0
LINE
8
BLACK
6
CONTINUOUS
10
-0.419606
20
0.442122
11
-0.474724
21
0.442122
0
LINE
8
BLACK
6
CONTINUOUS
10
-0.474724
20
0.442122
11
-0.476984
21
0.442572
0
LINE
8
BLACK
6
CONTINUOUS
10
-0.476984
20
0.442572
11
-0.4789
21
0.443852
0
LINE
8
BLACK
6
CONTINUOUS
10
-0.4789
20
0.443852
11
-0.48018
21
0.445768
0
LINE
8
BLACK
6
CONTINUOUS
10
-0.48018
20
0.445768
11
-0.48063
21
0.448028
0
LINE
8
BLACK
6
CONTINUOUS
10
-0.48063
20
0.448028
11
-0.48063
21
0.459839
0
LINE
8
BLACK
6
CONTINUOUS
10
-0.48063
20
0.459839
11
-0.48018
21
0.462099
0
LINE
8
BLACK
6
CONTINUOUS
10
-0.48018
20
0.462099
11
-0.4789
21
0.464015
0
LINE
8
BLACK
6
CONTINUOUS
10
-0.4789
20
0.464015
11
-0.476984
21
0.465295
0
LINE
8
BLACK
6
CONTINUOUS
10
-0.476984
20
0.465295
11
-0.474724
21
0.465744
0
LINE
8
BLACK
6
CONTINUOUS
10
-0.474724
20
0.465744
11
-0.419606
21
0.465744
0
LINE
8
BLACK
6
CONTINUOUS
10
-0.419606
20
0.465744
11
-0.417346
21
0.465295
0
LINE
8
BLACK
6
CONTINUOUS
10
0.606129
20
0.492361
11
0.609322
21
0.490227
0
LINE
8
BLACK
6
CONTINUOUS
10
0.609322
20
0.490227
11
0.611456
21
0.487034
0
LINE
8
BLACK
6
CONTINUOUS
10
0.611456
20
0.487034
11
0.612205
21
0.483268
0
LINE
8
BLACK
6
CONTINUOUS
10
0.612205
20
0.483268
11
0.612205
21
0.462598
0
LINE
8
BLACK
6
CONTINUOUS
10
0.612205
20
0.462598
11
0.611456
21
0.458832
0
LINE
8
BLACK
6
CONTINUOUS
10
0.611456
20
0.458832
11
0.609322
21
0.455639
0
LINE
8
BLACK
6
CONTINUOUS
10
0.609322
20
0.455639
11
0.606129
21
0.453505
0
LINE
8
BLACK
6
CONTINUOUS
10
0.606129
20
0.453505
11
0.602362
21
0.452756
0
LINE
8
BLACK
6
CONTINUOUS
10
0.602362
20
0.452756
11
0.566929
21
0.452756
0
LINE
8
BLACK
6
CONTINUOUS
10
0.566929
20
0.452756
11
0.563163
21
0.453505
0
LINE
8
BLACK
6
CONTINUOUS
10
0.563163
20
0.453505
11
0.559969
21
0.455639
0
LINE
8
BLACK
6
CONTINUOUS
10
0.559969
20
0.455639
11
0.557836
21
0.458832
0
LINE
8
BLACK
6
CONTINUOUS
10
0.557836
20
0.458832
11
0.557087
21
0.462598
0
LINE
8
BLACK
6
CONTINUOUS
10
0.557087
20
0.462598
11
0.557087
21
0.483268
0
LINE
8
BLACK
6
CONTINUOUS
10
0.557087
20
0.483268
11
0.557836
21
0.487034
0
LINE
8
BLACK
6
CONTINUOUS
10
0.557836
20
0.487034
11
0.559969
21
0.490227
0
LINE
8
BLACK
6
CONTINUOUS
10
0.559969
20
0.490227
11
0.563163
21
0.492361
0
LINE
8
BLACK
6
CONTINUOUS
10
0.563163
20
0.492361
11
0.566929
21
0.49311
0
LINE
8
BLACK
6
CONTINUOUS
10
0.566929
20
0.49311
11
0.602362
21
0.49311
0
LINE
8
BLACK
6
CONTINUOUS
10
0.602362
20
0.49311
11
0.606129
21
0.492361
0
LINE
8
BLACK
6
CONTINUOUS
10
0.4329
20
0.492361
11
0.436094
21
0.490227
0
LINE
8
BLACK
6
CONTINUOUS
10
0.436094
20
0.490227
11
0.438227
21
0.487034
0
LINE
8
BLACK
6
CONTINUOUS
10
0.438227
20
0.487034
11
0.438976
21
0.483268
0
LINE
8
BLACK
6
CONTINUOUS
10
0.438976
20
0.483268
11
0.438976
21
0.462598
0
LINE
8
BLACK
6
CONTINUOUS
10
0.438976
20
0.462598
11
0.438227
21
0.458832
0
LINE
8
BLACK
6
CONTINUOUS
10
0.438227
20
0.458832
11
0.436094
21
0.455639
0
LINE
8
BLACK
6
CONTINUOUS
10
0.436094
20
0.455639
11
0.4329
21
0.453505
0
LINE
8
BLACK
6
CONTINUOUS
10
0.4329
20
0.453505
11
0.429134
21
0.452756
0
LINE
8
BLACK
6
CONTINUOUS
10
0.429134
20
0.452756
11
0.393701
21
0.452756
0
LINE
8
BLACK
6
CONTINUOUS
10
0.393701
20
0.452756
11
0.389934
21
0.453505
0
LINE
8
BLACK
6
CONTINUOUS
10
0.389934
20
0.453505
11
0.386741
21
0.455639
0
LINE
8
BLACK
6
CONTINUOUS
10
0.386741
20
0.455639
11
0.384607
21
0.458832
0
LINE
8
BLACK
6
CONTINUOUS
10
0.384607
20
0.458832
11
0.383858
21
0.462598
0
LINE
8
BLACK
6
CONTINUOUS
10
0.383858
20
0.462598
11
0.383858
21
0.483268
0
LINE
8
BLACK
6
CONTINUOUS
10
0.383858
20
0.483268
11
0.384607
21
0.487034
0
LINE
8
BLACK
6
CONTINUOUS
10
0.384607
20
0.487034
11
0.386741
21
0.490227
0
LINE
8
BLACK
6
CONTINUOUS
10
0.386741
20
0.490227
11
0.389934
21
0.492361
0
LINE
8
BLACK
6
CONTINUOUS
10
0.389934
20
0.492361
11
0.393701
21
0.49311
0
LINE
8
BLACK
6
CONTINUOUS
10
0.393701
20
0.49311
11
0.429134
21
0.49311
0
LINE
8
BLACK
6
CONTINUOUS
10
0.429134
20
0.49311
11
0.4329
21
0.492361
0
LINE
8
BLACK
6
CONTINUOUS
10
-0.216475
20
0.490542
11
-0.21392
21
0.488835
0
LINE
8
BLACK
6
CONTINUOUS
10
-0.21392
20
0.488835
11
-0.212214
21
0.486281
0
LINE
8
BLACK
6
CONTINUOUS
10
-0.212214
20
0.486281
11
-0.211614
21
0.483268
0
LINE
8
BLACK
6
CONTINUOUS
10
-0.211614
20
0.483268
11
-0.211614
21
0.461614
0
LINE
8
BLACK
6
CONTINUOUS
10
-0.211614
20
0.461614
11
-0.212214
21
0.458601
0
LINE
8
BLACK
6
CONTINUOUS
10
-0.212214
20
0.458601
11
-0.21392
21
0.456046
0
LINE
8
BLACK
6
CONTINUOUS
10
-0.21392
20
0.456046
11
-0.216475
21
0.45434
0
LINE
8
BLACK
6
CONTINUOUS
10
-0.216475
20
0.45434
11
-0.219488
21
0.45374
0
LINE
8
BLACK
6
CONTINUOUS
10
-0.219488
20
0.45374
11
-0.235236
21
0.45374
0
LINE
8
BLACK
6
CONTINUOUS
10
-0.235236
20
0.45374
11
-0.238249
21
0.45434
0
LINE
8
BLACK
6
CONTINUOUS
10
-0.238249
20
0.45434
11
-0.240804
21
0.456046
0
LINE
8
BLACK
6
CONTINUOUS
10
-0.240804
20
0.456046
11
-0.242511
21
0.458601
0
LINE
8
BLACK
6
CONTINUOUS
10
-0.242511
20
0.458601
11
-0.24311
21
0.461614
0
LINE
8
BLACK
6
CONTINUOUS
10
-0.24311
20
0.461614
11
-0.24311
21
0.483268
0
LINE
8
BLACK
6
CONTINUOUS
10
-0.24311
20
0.483268
11
-0.242511
21
0.486281
0
LINE
8
BLACK
6
CONTINUOUS
10
-0.242511
20
0.486281
11
-0.240804
21
0.488835
0
LINE
8
BLACK
6
CONTINUOUS
10
-0.240804
20
0.488835
11
-0.238249
21
0.490542
0
LINE
8
BLACK
6
CONTINUOUS
10
-0.238249
20
0.490542
11
-0.235236
21
0.491142
0
LINE
8
BLACK
6
CONTINUOUS
10
-0.235236
20
0.491142
11
-0.219488
21
0.491142
0
LINE
8
BLACK
6
CONTINUOUS
10
-0.219488
20
0.491142
11
-0.216475
21
0.490542
0
LINE
8
BLACK
6
CONTINUOUS
10
-0.0845852
20
0.490542
11
-0.0820307
21
0.488835
0
LINE
8
BLACK
6
CONTINUOUS
10
-0.0820307
20
0.488835
11
-0.0803238
21
0.486281
0
LINE
8
BLACK
6
CONTINUOUS
10
-0.0803238
20
0.486281
11
-0.0797244
21
0.483268
0
LINE
8
BLACK
6
CONTINUOUS
10
-0.0797244
20
0.483268
11
-0.0797244
21
0.461614
0
LINE
8
BLACK
6
CONTINUOUS
10
-0.0797244
20
0.461614
11
-0.0803238
21
0.458601
0
LINE
8
BLACK
6
CONTINUOUS
10
-0.0803238
20
0.458601
11
-0.0820307
21
0.456046
0
LINE
8
BLACK
6
CONTINUOUS
10
-0.0820307
20
0.456046
11
-0.0845852
21
0.45434
0
LINE
8
BLACK
6
CONTINUOUS
10
-0.0845852
20
0.45434
11
-0.0875984
21
0.45374
0
LINE
8
BLACK
6
CONTINUOUS
10
-0.0875984
20
0.45374
11
-0.103346
21
0.45374
0
LINE
8
BLACK
6
CONTINUOUS
10
-0.103346
20
0.45374
11
-0.10636
21
0.45434
0
LINE
8
BLACK
6
CONTINUOUS
10
-0.10636
20
0.45434
11
-0.108914
21
0.456046
0
LINE
8
BLACK
6
CONTINUOUS
10
-0.108914
20
0.456046
11
-0.110621
21
0.458601
0
LINE
8
BLACK
6
CONTINUOUS
10
-0.110621
20
0.458601
11
-0.11122
21
0.461614
0
LINE
8
BLACK
6
CONTINUOUS
10
-0.11122
20
0.461614
11
-0.11122
21
0.483268
0
LINE
8
BLACK
6
CONTINUOUS
10
-0.11122
20
0.483268
11
-0.110621
21
0.486281
0
LINE
8
BLACK
6
CONTINUOUS
10
-0.110621
20
0.486281
11
-0.108914
21
0.488835
0
LINE
8
BLACK
6
CONTINUOUS
10
-0.108914
20
0.488835
11
-0.10636
21
0.490542
0
LINE
8
BLACK
6
CONTINUOUS
10
-0.10636
20
0.490542
11
-0.103346
21
0.491142
0
LINE
8
BLACK
6
CONTINUOUS
10
-0.103346
20
0.491142
11
-0.0875984
21
0.491142
0
LINE
8
BLACK
6
CONTINUOUS
10
-0.0875984
20
0.491142
11
-0.0845852
21
0.490542
0
LINE
8
BLACK
6
CONTINUOUS
10
-0.0196245
20
0.490542
11
-0.01707
21
0.488835
0
LINE
8
BLACK
6
CONTINUOUS
10
-0.01707
20
0.488835
11
-0.0153631
21
0.486281
0
LINE
8
BLACK
6
CONTINUOUS
10
-0.0153631
20
0.486281
11
-0.0147638
21
0.483268
0
LINE
8
BLACK
6
CONTINUOUS
10
-0.0147638
20
0.483268
11
-0.0147638
21
0.461614
0
LINE
8
BLACK
6
CONTINUOUS
10
-0.0147638
20
0.461614
11
-0.0153631
21
0.458601
0
LINE
8
BLACK
6
CONTINUOUS
10
-0.0153631
20
0.458601
11
-0.01707
21
0.456046
0
LINE
8
BLACK
6
CONTINUOUS
10
-0.01707
20
0.456046
11
-0.0196245
21
0.45434
0
LINE
8
BLACK
6
CONTINUOUS
10
-0.0196245
20
0.45434
11
-0.0226378
21
0.45374
0
LINE
8
BLACK
6
CONTINUOUS
10
-0.0226378
20
0.45374
11
-0.0383858
21
0.45374
0
LINE
8
BLACK
6
CONTINUOUS
10
-0.0383858
20
0.45374
11
-0.0413991
21
0.45434
0
LINE
8
BLACK
6
CONTINUOUS
10
-0.0413991
20
0.45434
11
-0.0439536
21
0.456046
0
LINE
8
BLACK
6
CONTINUOUS
10
-0.0439536
20
0.456046
11
-0.0456605
21
0.458601
0
LINE
8
BLACK
6
CONTINUOUS
10
-0.0456605
20
0.458601
11
-0.0462598
21
0.461614
0
LINE
8
BLACK
6
CONTINUOUS
10
-0.0462598
20
0.461614
11
-0.0462598
21
0.483268
0
LINE
8
BLACK
6
CONTINUOUS
10
-0.0462598
20
0.483268
11
-0.0456605
21
0.486281
0
LINE
8
BLACK
6
CONTINUOUS
10
-0.0456605
20
0.486281
11
-0.0439536
21
0.488835
0
LINE
8
BLACK
6
CONTINUOUS
10
-0.0439536
20
0.488835
11
-0.0413991
21
0.490542
0
LINE
8
BLACK
6
CONTINUOUS
10
-0.0413991
20
0.490542
11
-0.0383858
21
0.491142
0
LINE
8
BLACK
6
CONTINUOUS
10
-0.0383858
20
0.491142
11
-0.0226378
21
0.491142
0
LINE
8
BLACK
6
CONTINUOUS
10
-0.0226378
20
0.491142
11
-0.0196245
21
0.490542
0
LINE
8
BLACK
6
CONTINUOUS
10
-0.280075
20
0.490467
11
-0.277201
21
0.488547
0
LINE
8
BLACK
6
CONTINUOUS
10
-0.277201
20
0.488547
11
-0.275281
21
0.485673
0
LINE
8
BLACK
6
CONTINUOUS
10
-0.275281
20
0.485673
11
-0.274606
21
0.482283
0
LINE
8
BLACK
6
CONTINUOUS
10
-0.274606
20
0.482283
11
-0.274606
21
0.462598
0
LINE
8
BLACK
6
CONTINUOUS
10
-0.274606
20
0.462598
11
-0.275281
21
0.459209
0
LINE
8
BLACK
6
CONTINUOUS
10
-0.275281
20
0.459209
11
-0.277201
21
0.456335
0
LINE
8
BLACK
6
CONTINUOUS
10
-0.277201
20
0.456335
11
-0.280075
21
0.454414
0
LINE
8
BLACK
6
CONTINUOUS
10
-0.280075
20
0.454414
11
-0.283465
21
0.45374
0
LINE
8
BLACK
6
CONTINUOUS
10
-0.283465
20
0.45374
11
-0.301181
21
0.45374
0
LINE
8
BLACK
6
CONTINUOUS
10
-0.301181
20
0.45374
11
-0.304571
21
0.454414
0
LINE
8
BLACK
6
CONTINUOUS
10
-0.304571
20
0.454414
11
-0.307445
21
0.456335
0
LINE
8
BLACK
6
CONTINUOUS
10
-0.307445
20
0.456335
11
-0.309365
21
0.459209
0
LINE
8
BLACK
6
CONTINUOUS
10
-0.309365
20
0.459209
11
-0.310039
21
0.462598
0
LINE
8
BLACK
6
CONTINUOUS
10
-0.310039
20
0.462598
11
-0.310039
21
0.482283
0
LINE
8
BLACK
6
CONTINUOUS
10
-0.310039
20
0.482283
11
-0.309365
21
0.485673
0
LINE
8
BLACK
6
CONTINUOUS
10
-0.309365
20
0.485673
11
-0.307445
21
0.488547
0
LINE
8
BLACK
6
CONTINUOUS
10
-0.307445
20
0.488547
11
-0.304571
21
0.490467
0
LINE
8
BLACK
6
CONTINUOUS
10
-0.304571
20
0.490467
11
-0.301181
21
0.491142
0
LINE
8
BLACK
6
CONTINUOUS
10
-0.301181
20
0.491142
11
-0.283465
21
0.491142
0
LINE
8
BLACK
6
CONTINUOUS
10
-0.283465
20
0.491142
11
-0.280075
21
0.490467
0
LINE
8
BLACK
6
CONTINUOUS
10
-0.341098
20
0.490467
11
-0.338224
21
0.488547
0
LINE
8
BLACK
6
CONTINUOUS
10
-0.338224
20
0.488547
11
-0.336304
21
0.485673
0
LINE
8
BLACK
6
CONTINUOUS
10
-0.336304
20
0.485673
11
-0.33563
21
0.482283
0
LINE
8
BLACK
6
CONTINUOUS
10
-0.33563
20
0.482283
11
-0.33563
21
0.462598
0
LINE
8
BLACK
6
CONTINUOUS
10
-0.33563
20
0.462598
11
-0.336304
21
0.459209
0
LINE
8
BLACK
6
CONTINUOUS
10
-0.336304
20
0.459209
11
-0.338224
21
0.456335
0
LINE
8
BLACK
6
CONTINUOUS
10
-0.338224
20
0.456335
11
-0.341098
21
0.454414
0
LINE
8
BLACK
6
CONTINUOUS
10
-0.341098
20
0.454414
11
-0.344488
21
0.45374
0
LINE
8
BLACK
6
CONTINUOUS
10
-0.344488
20
0.45374
11
-0.362205
21
0.45374
0
LINE
8
BLACK
6
CONTINUOUS
10
-0.362205
20
0.45374
11
-0.365595
21
0.454414
0
LINE
8
BLACK
6
CONTINUOUS
10
-0.365595
20
0.454414
11
-0.368468
21
0.456335
0
LINE
8
BLACK
6
CONTINUOUS
10
-0.368468
20
0.456335
11
-0.370389
21
0.459209
0
LINE
8
BLACK
6
CONTINUOUS
10
-0.370389
20
0.459209
11
-0.371063
21
0.462598
0
LINE
8
BLACK
6
CONTINUOUS
10
-0.371063
20
0.462598
11
-0.371063
21
0.482283
0
LINE
8
BLACK
6
CONTINUOUS
10
-0.371063
20
0.482283
11
-0.370389
21
0.485673
0
LINE
8
BLACK
6
CONTINUOUS
10
-0.370389
20
0.485673
11
-0.368468
21
0.488547
0
LINE
8
BLACK
6
CONTINUOUS
10
-0.368468
20
0.488547
11
-0.365595
21
0.490467
0
LINE
8
BLACK
6
CONTINUOUS
10
-0.365595
20
0.490467
11
-0.362205
21
0.491142
0
LINE
8
BLACK
6
CONTINUOUS
10
-0.362205
20
0.491142
11
-0.344488
21
0.491142
0
LINE
8
BLACK
6
CONTINUOUS
10
-0.344488
20
0.491142
11
-0.341098
21
0.490467
0
LINE
8
BLACK
6
CONTINUOUS
10
-0.151514
20
0.490542
11
-0.14896
21
0.488835
0
LINE
8
BLACK
6
CONTINUOUS
10
-0.14896
20
0.488835
11
-0.147253
21
0.486281
0
LINE
8
BLACK
6
CONTINUOUS
10
-0.147253
20
0.486281
11
-0.146654
21
0.483268
0
LINE
8
BLACK
6
CONTINUOUS
10
-0.146654
20
0.483268
11
-0.146654
21
0.461614
0
LINE
8
BLACK
6
CONTINUOUS
10
-0.146654
20
0.461614
11
-0.147253
21
0.458601
0
LINE
8
BLACK
6
CONTINUOUS
10
-0.147253
20
0.458601
11
-0.14896
21
0.456046
0
LINE
8
BLACK
6
CONTINUOUS
10
-0.14896
20
0.456046
11
-0.151514
21
0.45434
0
LINE
8
BLACK
6
CONTINUOUS
10
-0.151514
20
0.45434
11
-0.154528
21
0.45374
0
LINE
8
BLACK
6
CONTINUOUS
10
-0.154528
20
0.45374
11
-0.170276
21
0.45374
0
LINE
8
BLACK
6
CONTINUOUS
10
-0.170276
20
0.45374
11
-0.173289
21
0.45434
0
LINE
8
BLACK
6
CONTINUOUS
10
-0.173289
20
0.45434
11
-0.175843
21
0.456046
0
LINE
8
BLACK
6
CONTINUOUS
10
-0.175843
20
0.456046
11
-0.17755
21
0.458601
0
LINE
8
BLACK
6
CONTINUOUS
10
-0.17755
20
0.458601
11
-0.17815
21
0.461614
0
LINE
8
BLACK
6
CONTINUOUS
10
-0.17815
20
0.461614
11
-0.17815
21
0.483268
0
LINE
8
BLACK
6
CONTINUOUS
10
-0.17815
20
0.483268
11
-0.17755
21
0.486281
0
LINE
8
BLACK
6
CONTINUOUS
10
-0.17755
20
0.486281
11
-0.175843
21
0.488835
0
LINE
8
BLACK
6
CONTINUOUS
10
-0.175843
20
0.488835
11
-0.173289
21
0.490542
0
LINE
8
BLACK
6
CONTINUOUS
10
-0.173289
20
0.490542
11
-0.170276
21
0.491142
0
LINE
8
BLACK
6
CONTINUOUS
10
-0.170276
20
0.491142
11
-0.154528
21
0.491142
0
LINE
8
BLACK
6
CONTINUOUS
10
-0.154528
20
0.491142
11
-0.151514
21
0.490542
0
LINE
8
BLACK
6
CONTINUOUS
10
0.520499
20
0.493345
11
0.523692
21
0.491212
0
LINE
8
BLACK
6
CONTINUOUS
10
0.523692
20
0.491212
11
0.525826
21
0.488019
0
LINE
8
BLACK
6
CONTINUOUS
10
0.525826
20
0.488019
11
0.526575
21
0.484252
0
LINE
8
BLACK
6
CONTINUOUS
10
0.526575
20
0.484252
11
0.526575
21
0.464567
0
LINE
8
BLACK
6
CONTINUOUS
10
0.526575
20
0.464567
11
0.525826
21
0.4608
0
LINE
8
BLACK
6
CONTINUOUS
10
0.525826
20
0.4608
11
0.523692
21
0.457607
0
LINE
8
BLACK
6
CONTINUOUS
10
0.523692
20
0.457607
11
0.520499
21
0.455474
0
LINE
8
BLACK
6
CONTINUOUS
10
0.520499
20
0.455474
11
0.516732
21
0.454724
0
LINE
8
BLACK
6
CONTINUOUS
10
0.516732
20
0.454724
11
0.479331
21
0.454724
0
LINE
8
BLACK
6
CONTINUOUS
10
0.479331
20
0.454724
11
0.475564
21
0.455474
0
LINE
8
BLACK
6
CONTINUOUS
10
0.475564
20
0.455474
11
0.472371
21
0.457607
0
LINE
8
BLACK
6
CONTINUOUS
10
0.472371
20
0.457607
11
0.470237
21
0.4608
0
LINE
8
BLACK
6
CONTINUOUS
10
0.470237
20
0.4608
11
0.469488
21
0.464567
0
LINE
8
BLACK
6
CONTINUOUS
10
0.469488
20
0.464567
11
0.469488
21
0.484252
0
LINE
8
BLACK
6
CONTINUOUS
10
0.469488
20
0.484252
11
0.470237
21
0.488019
0
LINE
8
BLACK
6
CONTINUOUS
10
0.470237
20
0.488019
11
0.472371
21
0.491212
0
LINE
8
BLACK
6
CONTINUOUS
10
0.472371
20
0.491212
11
0.475564
21
0.493345
0
LINE
8
BLACK
6
CONTINUOUS
10
0.475564
20
0.493345
11
0.479331
21
0.494094
0
LINE
8
BLACK
6
CONTINUOUS
10
0.479331
20
0.494094
11
0.516732
21
0.494094
0
LINE
8
BLACK
6
CONTINUOUS
10
0.516732
20
0.494094
11
0.520499
21
0.493345
0
LINE
8
BLACK
6
CONTINUOUS
10
0.231736
20
0.494404
11
0.23461
21
0.492484
0
LINE
8
BLACK
6
CONTINUOUS
10
0.23461
20
0.492484
11
0.23653
21
0.48961
0
LINE
8
BLACK
6
CONTINUOUS
10
0.23653
20
0.48961
11
0.237205
21
0.48622
0
LINE
8
BLACK
6
CONTINUOUS
10
0.237205
20
0.48622
11
0.237205
21
0.468504
0
LINE
8
BLACK
6
CONTINUOUS
10
0.237205
20
0.468504
11
0.23653
21
0.465114
0
LINE
8
BLACK
6
CONTINUOUS
10
0.23653
20
0.465114
11
0.23461
21
0.46224
0
LINE
8
BLACK
6
CONTINUOUS
10
0.23461
20
0.46224
11
0.231736
21
0.46032
0
LINE
8
BLACK
6
CONTINUOUS
10
0.231736
20
0.46032
11
0.228346
21
0.459646
0
LINE
8
BLACK
6
CONTINUOUS
10
0.228346
20
0.459646
11
0.208661
21
0.459646
0
LINE
8
BLACK
6
CONTINUOUS
10
0.208661
20
0.459646
11
0.205271
21
0.46032
0
LINE
8
BLACK
6
CONTINUOUS
10
0.205271
20
0.46032
11
0.202398
21
0.46224
0
LINE
8
BLACK
6
CONTINUOUS
10
0.202398
20
0.46224
11
0.200477
21
0.465114
0
LINE
8
BLACK
6
CONTINUOUS
10
0.200477
20
0.465114
11
0.199803
21
0.468504
0
LINE
8
BLACK
6
CONTINUOUS
10
0.199803
20
0.468504
11
0.199803
21
0.48622
0
LINE
8
BLACK
6
CONTINUOUS
10
0.199803
20
0.48622
11
0.200477
21
0.48961
0
LINE
8
BLACK
6
CONTINUOUS
10
0.200477
20
0.48961
11
0.202398
21
0.492484
0
LINE
8
BLACK
6
CONTINUOUS
10
0.202398
20
0.492484
11
0.205271
21
0.494404
0
LINE
8
BLACK
6
CONTINUOUS
10
0.205271
20
0.494404
11
0.208661
21
0.495079
0
LINE
8
BLACK
6
CONTINUOUS
10
0.208661
20
0.495079
11
0.228346
21
0.495079
0
LINE
8
BLACK
6
CONTINUOUS
10
0.228346
20
0.495079
11
0.231736
21
0.494404
0
LINE
8
BLACK
6
CONTINUOUS
10
0.154724
20
0.46752
11
0.112992
21
0.46752
0
LINE
8
BLACK
6
CONTINUOUS
10
0.112992
20
0.46752
11
0.112992
21
0.49311
0
LINE
8
BLACK
6
CONTINUOUS
10
0.112992
20
0.49311
11
0.154724
21
0.49311
0
LINE
8
BLACK
6
CONTINUOUS
10
0.154724
20
0.49311
11
0.154724
21
0.46752
0
LINE
8
BLACK
6
CONTINUOUS
10
0.0681102
20
0.46752
11
0.026378
21
0.46752
0
LINE
8
BLACK
6
CONTINUOUS
10
0.026378
20
0.46752
11
0.026378
21
0.49311
0
LINE
8
BLACK
6
CONTINUOUS
10
0.026378
20
0.49311
11
0.0681102
21
0.49311
0
LINE
8
BLACK
6
CONTINUOUS
10
0.0681102
20
0.49311
11
0.0681102
21
0.46752
0
LINE
8
BLACK
6
CONTINUOUS
10
-0.526076
20
0.545704
11
-0.522883
21
0.54357
0
LINE
8
BLACK
6
CONTINUOUS
10
-0.522883
20
0.54357
11
-0.520749
21
0.540377
0
LINE
8
BLACK
6
CONTINUOUS
10
-0.520749
20
0.540377
11
-0.52
21
0.53661
0
LINE
8
BLACK
6
CONTINUOUS
10
-0.52
20
0.53661
11
-0.52
21
0.516925
0
LINE
8
BLACK
6
CONTINUOUS
10
-0.52
20
0.516925
11
-0.520749
21
0.513159
0
LINE
8
BLACK
6
CONTINUOUS
10
-0.520749
20
0.513159
11
-0.522883
21
0.509966
0
LINE
8
BLACK
6
CONTINUOUS
10
-0.522883
20
0.509966
11
-0.526076
21
0.507832
0
LINE
8
BLACK
6
CONTINUOUS
10
-0.526076
20
0.507832
11
-0.529843
21
0.507083
0
LINE
8
BLACK
6
CONTINUOUS
10
-0.529843
20
0.507083
11
-0.616457
21
0.507083
0
LINE
8
BLACK
6
CONTINUOUS
10
-0.616457
20
0.507083
11
-0.620223
21
0.507832
0
LINE
8
BLACK
6
CONTINUOUS
10
-0.620223
20
0.507832
11
-0.623416
21
0.509966
0
LINE
8
BLACK
6
CONTINUOUS
10
-0.623416
20
0.509966
11
-0.62555
21
0.513159
0
LINE
8
BLACK
6
CONTINUOUS
10
-0.62555
20
0.513159
11
-0.626299
21
0.516925
0
LINE
8
BLACK
6
CONTINUOUS
10
-0.626299
20
0.516925
11
-0.626299
21
0.53661
0
LINE
8
BLACK
6
CONTINUOUS
10
-0.626299
20
0.53661
11
-0.62555
21
0.540377
0
LINE
8
BLACK
6
CONTINUOUS
10
-0.62555
20
0.540377
11
-0.623416
21
0.54357
0
LINE
8
BLACK
6
CONTINUOUS
10
-0.623416
20
0.54357
11
-0.620223
21
0.545704
0
LINE
8
BLACK
6
CONTINUOUS
10
-0.620223
20
0.545704
11
-0.616457
21
0.546453
0
LINE
8
BLACK
6
CONTINUOUS
10
-0.616457
20
0.546453
11
-0.529843
21
0.546453
0
LINE
8
BLACK
6
CONTINUOUS
10
-0.529843
20
0.546453
11
-0.526076
21
0.545704
  0
ENDSEC
  0
EOF
