  0
SECTION
  2
HEADER
  9
$ANGBASE
  50
0.0
  9
$ANGDIR
  70
1
  9
$MEASUREMENT
  70
0
  0
ENDSEC
  0
SECTION
  2
TABLES
  0
TABLE
  2
LTYPE
  70
4
  0
LTYPE
  5
40F
  2
CONTINUOUS
  70
0
  3
Solid line
  72
65
  73
0
  40
0.0
  0
LTYPE
  5
410
  2
DASHDOT
 70
0
  3
Dash Dot ____ _ ____ _
 72
65
 73
4
 40
2.0
 49
1.25
 49
-0.25
 49
0.25
 49
-0.25
  0
LTYPE
  5
411
  2
DASHED
 70
0
  3
Dashed __ __ __ __ __
 72
65
 73
2
 40
0.75
 49
0.5
 49
-0.25
  0
LTYPE
  5
43B
  2
DOTTED
 70
0
  3
Dotted .  .  .  .
 72
65
 73
2
 40
0.2
 49
0.0
 49
-0.2
  0
ENDTAB
  0
TABLE
  2
STYLE
  70
4
  0
STYLE
  2
KICAD
  70
0
  40
0
  41
1
  42
1
  50
0
  71
0
  3
isocp.shx
  0
STYLE
  2
KICADB
  70
0
  40
0
  41
1
  42
1
  50
0
  71
0
  3
isocp.shx
  0
STYLE
  2
KICADI
  70
0
  40
0
  41
1
  42
1
  50
15
  71
0
  3
isocp.shx
  0
STYLE
  2
KICADBI
  70
0
  40
0
  41
1
  42
1
  50
15
  71
0
  3
isocp.shx
  0
ENDTAB
  0
TABLE
  2
LAYER
  70
1
  0
LAYER
  2
BLACK
  70
0
  62
7
  6
CONTINUOUS
  0
ENDTAB
  0
ENDSEC
  0
SECTION
  2
ENTITIES
0
LINE
8
BLACK
6
CONTINUOUS
10
0.520613
20
-0.255124
11
0.522775
21
-0.257285
0
LINE
8
BLACK
6
CONTINUOUS
10
0.522775
20
-0.257285
11
0.523566
21
-0.260238
0
LINE
8
BLACK
6
CONTINUOUS
10
0.523566
20
-0.260238
11
0.523566
21
-0.271205
0
LINE
8
BLACK
6
CONTINUOUS
10
0.523566
20
-0.271205
11
0.576715
21
-0.271205
0
LINE
8
BLACK
6
CONTINUOUS
10
0.576715
20
-0.271205
11
0.579668
21
-0.271997
0
LINE
8
BLACK
6
CONTINUOUS
10
0.579668
20
-0.271997
11
0.58183
21
-0.274158
0
LINE
8
BLACK
6
CONTINUOUS
10
0.58183
20
-0.274158
11
0.582621
21
-0.277111
0
LINE
8
BLACK
6
CONTINUOUS
10
0.582621
20
-0.277111
11
0.58183
21
-0.280064
0
LINE
8
BLACK
6
CONTINUOUS
10
0.58183
20
-0.280064
11
0.579668
21
-0.282225
0
LINE
8
BLACK
6
CONTINUOUS
10
0.579668
20
-0.282225
11
0.576715
21
-0.283016
0
LINE
8
BLACK
6
CONTINUOUS
10
0.576715
20
-0.283016
11
0.523566
21
-0.283016
0
LINE
8
BLACK
6
CONTINUOUS
10
0.523566
20
-0.283016
11
0.523566
21
-0.293984
0
LINE
8
BLACK
6
CONTINUOUS
10
0.523566
20
-0.293984
11
0.522775
21
-0.296937
0
LINE
8
BLACK
6
CONTINUOUS
10
0.522775
20
-0.296937
11
0.520613
21
-0.299098
0
LINE
8
BLACK
6
CONTINUOUS
10
0.520613
20
-0.299098
11
0.51766
21
-0.299889
0
LINE
8
BLACK
6
CONTINUOUS
10
0.51766
20
-0.299889
11
0.514708
21
-0.299098
0
LINE
8
BLACK
6
CONTINUOUS
10
0.514708
20
-0.299098
11
0.512546
21
-0.296937
0
LINE
8
BLACK
6
CONTINUOUS
10
0.512546
20
-0.296937
11
0.511755
21
-0.293984
0
LINE
8
BLACK
6
CONTINUOUS
10
0.511755
20
-0.293984
11
0.511755
21
-0.260238
0
LINE
8
BLACK
6
CONTINUOUS
10
0.511755
20
-0.260238
11
0.512546
21
-0.257285
0
LINE
8
BLACK
6
CONTINUOUS
10
0.512546
20
-0.257285
11
0.514708
21
-0.255124
0
LINE
8
BLACK
6
CONTINUOUS
10
0.514708
20
-0.255124
11
0.51766
21
-0.254333
0
LINE
8
BLACK
6
CONTINUOUS
10
0.51766
20
-0.254333
11
0.520613
21
-0.255124
0
LINE
8
BLACK
6
CONTINUOUS
10
0.579668
20
-0.210129
11
0.58183
21
-0.212291
0
LINE
8
BLACK
6
CONTINUOUS
10
0.58183
20
-0.212291
11
0.582621
21
-0.215244
0
LINE
8
BLACK
6
CONTINUOUS
10
0.582621
20
-0.215244
11
0.58183
21
-0.218196
0
LINE
8
BLACK
6
CONTINUOUS
10
0.58183
20
-0.218196
11
0.579668
21
-0.220358
0
LINE
8
BLACK
6
CONTINUOUS
10
0.579668
20
-0.220358
11
0.576715
21
-0.221149
0
LINE
8
BLACK
6
CONTINUOUS
10
0.576715
20
-0.221149
11
0.547176
21
-0.221149
0
LINE
8
BLACK
6
CONTINUOUS
10
0.547176
20
-0.221149
11
0.544559
21
-0.222458
0
LINE
8
BLACK
6
CONTINUOUS
10
0.544559
20
-0.222458
11
0.543251
21
-0.225074
0
LINE
8
BLACK
6
CONTINUOUS
10
0.543251
20
-0.225074
11
0.543251
21
-0.230722
0
LINE
8
BLACK
6
CONTINUOUS
10
0.543251
20
-0.230722
11
0.545011
21
-0.234243
0
LINE
8
BLACK
6
CONTINUOUS
10
0.545011
20
-0.234243
11
0.545416
21
-0.234647
0
LINE
8
BLACK
6
CONTINUOUS
10
0.545416
20
-0.234647
11
0.576715
21
-0.234647
0
LINE
8
BLACK
6
CONTINUOUS
10
0.576715
20
-0.234647
11
0.579668
21
-0.235439
0
LINE
8
BLACK
6
CONTINUOUS
10
0.579668
20
-0.235439
11
0.58183
21
-0.2376
0
LINE
8
BLACK
6
CONTINUOUS
10
0.58183
20
-0.2376
11
0.582621
21
-0.240553
0
LINE
8
BLACK
6
CONTINUOUS
10
0.582621
20
-0.240553
11
0.58183
21
-0.243506
0
LINE
8
BLACK
6
CONTINUOUS
10
0.58183
20
-0.243506
11
0.579668
21
-0.245667
0
LINE
8
BLACK
6
CONTINUOUS
10
0.579668
20
-0.245667
11
0.576715
21
-0.246459
0
LINE
8
BLACK
6
CONTINUOUS
10
0.576715
20
-0.246459
11
0.51766
21
-0.246459
0
LINE
8
BLACK
6
CONTINUOUS
10
0.51766
20
-0.246459
11
0.514708
21
-0.245667
0
LINE
8
BLACK
6
CONTINUOUS
10
0.514708
20
-0.245667
11
0.512546
21
-0.243506
0
LINE
8
BLACK
6
CONTINUOUS
10
0.512546
20
-0.243506
11
0.511755
21
-0.240553
0
LINE
8
BLACK
6
CONTINUOUS
10
0.511755
20
-0.240553
11
0.512546
21
-0.2376
0
LINE
8
BLACK
6
CONTINUOUS
10
0.512546
20
-0.2376
11
0.514708
21
-0.235439
0
LINE
8
BLACK
6
CONTINUOUS
10
0.514708
20
-0.235439
11
0.51766
21
-0.234647
0
LINE
8
BLACK
6
CONTINUOUS
10
0.51766
20
-0.234647
11
0.532041
21
-0.234647
0
LINE
8
BLACK
6
CONTINUOUS
10
0.532041
20
-0.234647
11
0.531791
21
-0.233428
0
LINE
8
BLACK
6
CONTINUOUS
10
0.531791
20
-0.233428
11
0.53144
21
-0.232117
0
LINE
8
BLACK
6
CONTINUOUS
10
0.53144
20
-0.232117
11
0.53144
21
-0.22368
0
LINE
8
BLACK
6
CONTINUOUS
10
0.53144
20
-0.22368
11
0.531791
21
-0.222369
0
LINE
8
BLACK
6
CONTINUOUS
10
0.531791
20
-0.222369
11
0.532063
21
-0.221039
0
LINE
8
BLACK
6
CONTINUOUS
10
0.532063
20
-0.221039
11
0.534875
21
-0.215415
0
LINE
8
BLACK
6
CONTINUOUS
10
0.534875
20
-0.215415
11
0.535115
21
-0.215145
0
LINE
8
BLACK
6
CONTINUOUS
10
0.535115
20
-0.215145
11
0.535229
21
-0.214802
0
LINE
8
BLACK
6
CONTINUOUS
10
0.535229
20
-0.214802
11
0.536117
21
-0.214015
0
LINE
8
BLACK
6
CONTINUOUS
10
0.536117
20
-0.214015
11
0.536904
21
-0.213128
0
LINE
8
BLACK
6
CONTINUOUS
10
0.536904
20
-0.213128
11
0.537246
21
-0.213013
0
LINE
8
BLACK
6
CONTINUOUS
10
0.537246
20
-0.213013
11
0.537516
21
-0.212774
0
LINE
8
BLACK
6
CONTINUOUS
10
0.537516
20
-0.212774
11
0.543141
21
-0.209962
0
LINE
8
BLACK
6
CONTINUOUS
10
0.543141
20
-0.209962
11
0.544471
21
-0.209689
0
LINE
8
BLACK
6
CONTINUOUS
10
0.544471
20
-0.209689
11
0.545782
21
-0.209338
0
LINE
8
BLACK
6
CONTINUOUS
10
0.545782
20
-0.209338
11
0.576715
21
-0.209338
0
LINE
8
BLACK
6
CONTINUOUS
10
0.576715
20
-0.209338
11
0.579668
21
-0.210129
0
LINE
8
BLACK
6
CONTINUOUS
10
0.579668
20
-0.156699
11
0.58183
21
-0.15886
0
LINE
8
BLACK
6
CONTINUOUS
10
0.58183
20
-0.15886
11
0.582621
21
-0.161813
0
LINE
8
BLACK
6
CONTINUOUS
10
0.582621
20
-0.161813
11
0.58183
21
-0.164766
0
LINE
8
BLACK
6
CONTINUOUS
10
0.58183
20
-0.164766
11
0.580994
21
-0.165601
0
LINE
8
BLACK
6
CONTINUOUS
10
0.580994
20
-0.165601
11
0.581997
21
-0.167608
0
LINE
8
BLACK
6
CONTINUOUS
10
0.581997
20
-0.167608
11
0.58227
21
-0.168938
0
LINE
8
BLACK
6
CONTINUOUS
10
0.58227
20
-0.168938
11
0.582621
21
-0.170249
0
LINE
8
BLACK
6
CONTINUOUS
10
0.582621
20
-0.170249
11
0.582621
21
-0.178686
0
LINE
8
BLACK
6
CONTINUOUS
10
0.582621
20
-0.178686
11
0.58227
21
-0.179997
0
LINE
8
BLACK
6
CONTINUOUS
10
0.58227
20
-0.179997
11
0.581997
21
-0.181327
0
LINE
8
BLACK
6
CONTINUOUS
10
0.581997
20
-0.181327
11
0.579185
21
-0.186951
0
LINE
8
BLACK
6
CONTINUOUS
10
0.579185
20
-0.186951
11
0.578946
21
-0.187221
0
LINE
8
BLACK
6
CONTINUOUS
10
0.578946
20
-0.187221
11
0.578831
21
-0.187564
0
LINE
8
BLACK
6
CONTINUOUS
10
0.578831
20
-0.187564
11
0.577944
21
-0.188351
0
LINE
8
BLACK
6
CONTINUOUS
10
0.577944
20
-0.188351
11
0.577157
21
-0.189238
0
LINE
8
BLACK
6
CONTINUOUS
10
0.577157
20
-0.189238
11
0.576814
21
-0.189352
0
LINE
8
BLACK
6
CONTINUOUS
10
0.576814
20
-0.189352
11
0.576544
21
-0.189592
0
LINE
8
BLACK
6
CONTINUOUS
10
0.576544
20
-0.189592
11
0.57092
21
-0.192404
0
LINE
8
BLACK
6
CONTINUOUS
10
0.57092
20
-0.192404
11
0.56959
21
-0.192676
0
LINE
8
BLACK
6
CONTINUOUS
10
0.56959
20
-0.192676
11
0.568279
21
-0.193028
0
LINE
8
BLACK
6
CONTINUOUS
10
0.568279
20
-0.193028
11
0.537345
21
-0.193028
0
LINE
8
BLACK
6
CONTINUOUS
10
0.537345
20
-0.193028
11
0.534393
21
-0.192237
0
LINE
8
BLACK
6
CONTINUOUS
10
0.534393
20
-0.192237
11
0.532231
21
-0.190075
0
LINE
8
BLACK
6
CONTINUOUS
10
0.532231
20
-0.190075
11
0.53144
21
-0.187122
0
LINE
8
BLACK
6
CONTINUOUS
10
0.53144
20
-0.187122
11
0.532231
21
-0.184169
0
LINE
8
BLACK
6
CONTINUOUS
10
0.532231
20
-0.184169
11
0.534393
21
-0.182008
0
LINE
8
BLACK
6
CONTINUOUS
10
0.534393
20
-0.182008
11
0.537345
21
-0.181217
0
LINE
8
BLACK
6
CONTINUOUS
10
0.537345
20
-0.181217
11
0.566885
21
-0.181217
0
LINE
8
BLACK
6
CONTINUOUS
10
0.566885
20
-0.181217
11
0.569502
21
-0.179908
0
LINE
8
BLACK
6
CONTINUOUS
10
0.569502
20
-0.179908
11
0.57081
21
-0.177292
0
LINE
8
BLACK
6
CONTINUOUS
10
0.57081
20
-0.177292
11
0.57081
21
-0.171643
0
LINE
8
BLACK
6
CONTINUOUS
10
0.57081
20
-0.171643
11
0.56905
21
-0.168123
0
LINE
8
BLACK
6
CONTINUOUS
10
0.56905
20
-0.168123
11
0.568645
21
-0.167718
0
LINE
8
BLACK
6
CONTINUOUS
10
0.568645
20
-0.167718
11
0.537345
21
-0.167718
0
LINE
8
BLACK
6
CONTINUOUS
10
0.537345
20
-0.167718
11
0.534393
21
-0.166927
0
LINE
8
BLACK
6
CONTINUOUS
10
0.534393
20
-0.166927
11
0.532231
21
-0.164766
0
LINE
8
BLACK
6
CONTINUOUS
10
0.532231
20
-0.164766
11
0.53144
21
-0.161813
0
LINE
8
BLACK
6
CONTINUOUS
10
0.53144
20
-0.161813
11
0.532231
21
-0.15886
0
LINE
8
BLACK
6
CONTINUOUS
10
0.532231
20
-0.15886
11
0.534393
21
-0.156699
0
LINE
8
BLACK
6
CONTINUOUS
10
0.534393
20
-0.156699
11
0.537345
21
-0.155907
0
LINE
8
BLACK
6
CONTINUOUS
10
0.537345
20
-0.155907
11
0.576715
21
-0.155907
0
LINE
8
BLACK
6
CONTINUOUS
10
0.576715
20
-0.155907
11
0.579668
21
-0.156699
0
LINE
8
BLACK
6
CONTINUOUS
10
0.579668
20
-0.103268
11
0.58183
21
-0.105429
0
LINE
8
BLACK
6
CONTINUOUS
10
0.58183
20
-0.105429
11
0.582621
21
-0.108382
0
LINE
8
BLACK
6
CONTINUOUS
10
0.582621
20
-0.108382
11
0.58183
21
-0.111335
0
LINE
8
BLACK
6
CONTINUOUS
10
0.58183
20
-0.111335
11
0.579668
21
-0.113496
0
LINE
8
BLACK
6
CONTINUOUS
10
0.579668
20
-0.113496
11
0.576715
21
-0.114288
0
LINE
8
BLACK
6
CONTINUOUS
10
0.576715
20
-0.114288
11
0.547176
21
-0.114288
0
LINE
8
BLACK
6
CONTINUOUS
10
0.547176
20
-0.114288
11
0.544559
21
-0.115596
0
LINE
8
BLACK
6
CONTINUOUS
10
0.544559
20
-0.115596
11
0.543251
21
-0.118213
0
LINE
8
BLACK
6
CONTINUOUS
10
0.543251
20
-0.118213
11
0.543251
21
-0.123861
0
LINE
8
BLACK
6
CONTINUOUS
10
0.543251
20
-0.123861
11
0.545011
21
-0.127381
0
LINE
8
BLACK
6
CONTINUOUS
10
0.545011
20
-0.127381
11
0.545416
21
-0.127786
0
LINE
8
BLACK
6
CONTINUOUS
10
0.545416
20
-0.127786
11
0.576715
21
-0.127786
0
LINE
8
BLACK
6
CONTINUOUS
10
0.576715
20
-0.127786
11
0.579668
21
-0.128577
0
LINE
8
BLACK
6
CONTINUOUS
10
0.579668
20
-0.128577
11
0.58183
21
-0.130739
0
LINE
8
BLACK
6
CONTINUOUS
10
0.58183
20
-0.130739
11
0.582621
21
-0.133691
0
LINE
8
BLACK
6
CONTINUOUS
10
0.582621
20
-0.133691
11
0.58183
21
-0.136644
0
LINE
8
BLACK
6
CONTINUOUS
10
0.58183
20
-0.136644
11
0.579668
21
-0.138806
0
LINE
8
BLACK
6
CONTINUOUS
10
0.579668
20
-0.138806
11
0.576715
21
-0.139597
0
LINE
8
BLACK
6
CONTINUOUS
10
0.576715
20
-0.139597
11
0.537345
21
-0.139597
0
LINE
8
BLACK
6
CONTINUOUS
10
0.537345
20
-0.139597
11
0.534393
21
-0.138806
0
LINE
8
BLACK
6
CONTINUOUS
10
0.534393
20
-0.138806
11
0.532231
21
-0.136644
0
LINE
8
BLACK
6
CONTINUOUS
10
0.532231
20
-0.136644
11
0.53144
21
-0.133691
0
LINE
8
BLACK
6
CONTINUOUS
10
0.53144
20
-0.133691
11
0.532231
21
-0.130739
0
LINE
8
BLACK
6
CONTINUOUS
10
0.532231
20
-0.130739
11
0.533067
21
-0.129903
0
LINE
8
BLACK
6
CONTINUOUS
10
0.533067
20
-0.129903
11
0.532063
21
-0.127896
0
LINE
8
BLACK
6
CONTINUOUS
10
0.532063
20
-0.127896
11
0.531791
21
-0.126566
0
LINE
8
BLACK
6
CONTINUOUS
10
0.531791
20
-0.126566
11
0.53144
21
-0.125255
0
LINE
8
BLACK
6
CONTINUOUS
10
0.53144
20
-0.125255
11
0.53144
21
-0.116818
0
LINE
8
BLACK
6
CONTINUOUS
10
0.53144
20
-0.116818
11
0.531791
21
-0.115507
0
LINE
8
BLACK
6
CONTINUOUS
10
0.531791
20
-0.115507
11
0.532063
21
-0.114177
0
LINE
8
BLACK
6
CONTINUOUS
10
0.532063
20
-0.114177
11
0.534875
21
-0.108553
0
LINE
8
BLACK
6
CONTINUOUS
10
0.534875
20
-0.108553
11
0.535115
21
-0.108283
0
LINE
8
BLACK
6
CONTINUOUS
10
0.535115
20
-0.108283
11
0.535229
21
-0.10794
0
LINE
8
BLACK
6
CONTINUOUS
10
0.535229
20
-0.10794
11
0.536117
21
-0.107153
0
LINE
8
BLACK
6
CONTINUOUS
10
0.536117
20
-0.107153
11
0.536904
21
-0.106266
0
LINE
8
BLACK
6
CONTINUOUS
10
0.536904
20
-0.106266
11
0.537246
21
-0.106152
0
LINE
8
BLACK
6
CONTINUOUS
10
0.537246
20
-0.106152
11
0.537516
21
-0.105912
0
LINE
8
BLACK
6
CONTINUOUS
10
0.537516
20
-0.105912
11
0.543141
21
-0.1031
0
LINE
8
BLACK
6
CONTINUOUS
10
0.543141
20
-0.1031
11
0.544471
21
-0.102828
0
LINE
8
BLACK
6
CONTINUOUS
10
0.544471
20
-0.102828
11
0.545782
21
-0.102477
0
LINE
8
BLACK
6
CONTINUOUS
10
0.545782
20
-0.102477
11
0.576715
21
-0.102477
0
LINE
8
BLACK
6
CONTINUOUS
10
0.576715
20
-0.102477
11
0.579668
21
-0.103268
0
LINE
8
BLACK
6
CONTINUOUS
10
0.579668
20
-0.0498369
11
0.58183
21
-0.0519985
0
LINE
8
BLACK
6
CONTINUOUS
10
0.58183
20
-0.0519985
11
0.582621
21
-0.0549512
0
LINE
8
BLACK
6
CONTINUOUS
10
0.582621
20
-0.0549512
11
0.581883
21
-0.0577054
0
LINE
8
BLACK
6
CONTINUOUS
10
0.581883
20
-0.0577054
11
0.581997
21
-0.0579344
0
LINE
8
BLACK
6
CONTINUOUS
10
0.581997
20
-0.0579344
11
0.58227
21
-0.0592645
0
LINE
8
BLACK
6
CONTINUOUS
10
0.58227
20
-0.0592645
11
0.582621
21
-0.0605755
0
LINE
8
BLACK
6
CONTINUOUS
10
0.582621
20
-0.0605755
11
0.582621
21
-0.0718241
0
LINE
8
BLACK
6
CONTINUOUS
10
0.582621
20
-0.0718241
11
0.58227
21
-0.0731351
0
LINE
8
BLACK
6
CONTINUOUS
10
0.58227
20
-0.0731351
11
0.581997
21
-0.0744652
0
LINE
8
BLACK
6
CONTINUOUS
10
0.581997
20
-0.0744652
11
0.579185
21
-0.0800894
0
LINE
8
BLACK
6
CONTINUOUS
10
0.579185
20
-0.0800894
11
0.578554
21
-0.0808007
0
LINE
8
BLACK
6
CONTINUOUS
10
0.578554
20
-0.0808007
11
0.578079
21
-0.0816242
0
LINE
8
BLACK
6
CONTINUOUS
10
0.578079
20
-0.0816242
11
0.575267
21
-0.0844363
0
LINE
8
BLACK
6
CONTINUOUS
10
0.575267
20
-0.0844363
11
0.574444
21
-0.0849118
0
LINE
8
BLACK
6
CONTINUOUS
10
0.574444
20
-0.0849118
11
0.573732
21
-0.0855426
0
LINE
8
BLACK
6
CONTINUOUS
10
0.573732
20
-0.0855426
11
0.568108
21
-0.0883547
0
LINE
8
BLACK
6
CONTINUOUS
10
0.568108
20
-0.0883547
11
0.566778
21
-0.0886269
0
LINE
8
BLACK
6
CONTINUOUS
10
0.566778
20
-0.0886269
11
0.565467
21
-0.0889782
0
LINE
8
BLACK
6
CONTINUOUS
10
0.565467
20
-0.0889782
11
0.548594
21
-0.0889782
0
LINE
8
BLACK
6
CONTINUOUS
10
0.548594
20
-0.0889782
11
0.547283
21
-0.0886269
0
LINE
8
BLACK
6
CONTINUOUS
10
0.547283
20
-0.0886269
11
0.545953
21
-0.0883547
0
LINE
8
BLACK
6
CONTINUOUS
10
0.545953
20
-0.0883547
11
0.540329
21
-0.0855426
0
LINE
8
BLACK
6
CONTINUOUS
10
0.540329
20
-0.0855426
11
0.539617
21
-0.0849118
0
LINE
8
BLACK
6
CONTINUOUS
10
0.539617
20
-0.0849118
11
0.538794
21
-0.0844363
0
LINE
8
BLACK
6
CONTINUOUS
10
0.538794
20
-0.0844363
11
0.535982
21
-0.0816242
0
LINE
8
BLACK
6
CONTINUOUS
10
0.535982
20
-0.0816242
11
0.535506
21
-0.0808007
0
LINE
8
BLACK
6
CONTINUOUS
10
0.535506
20
-0.0808007
11
0.534875
21
-0.0800894
0
LINE
8
BLACK
6
CONTINUOUS
10
0.534875
20
-0.0800894
11
0.532063
21
-0.0744651
0
LINE
8
BLACK
6
CONTINUOUS
10
0.532063
20
-0.0744651
11
0.531791
21
-0.0731352
0
LINE
8
BLACK
6
CONTINUOUS
10
0.531791
20
-0.0731352
11
0.53144
21
-0.0718241
0
LINE
8
BLACK
6
CONTINUOUS
10
0.53144
20
-0.0718241
11
0.53144
21
-0.0608567
0
LINE
8
BLACK
6
CONTINUOUS
10
0.53144
20
-0.0608567
11
0.51766
21
-0.0608567
0
LINE
8
BLACK
6
CONTINUOUS
10
0.51766
20
-0.0608567
11
0.514708
21
-0.0600656
0
LINE
8
BLACK
6
CONTINUOUS
10
0.514708
20
-0.0600656
11
0.512546
21
-0.057904
0
LINE
8
BLACK
6
CONTINUOUS
10
0.512546
20
-0.057904
11
0.511755
21
-0.0549512
0
LINE
8
BLACK
6
CONTINUOUS
10
0.511755
20
-0.0549512
11
0.512546
21
-0.0519985
0
LINE
8
BLACK
6
CONTINUOUS
10
0.512546
20
-0.0519985
11
0.514708
21
-0.0498369
0
LINE
8
BLACK
6
CONTINUOUS
10
0.514708
20
-0.0498369
11
0.51766
21
-0.0490457
0
LINE
8
BLACK
6
CONTINUOUS
10
0.51766
20
-0.0490457
11
0.576715
21
-0.0490457
0
LINE
8
BLACK
6
CONTINUOUS
10
0.576715
20
-0.0490457
11
0.579668
21
-0.0498369
0
LINE
8
BLACK
6
CONTINUOUS
10
0.543807
20
-0.0608567
11
0.543251
21
-0.0619696
0
LINE
8
BLACK
6
CONTINUOUS
10
0.543251
20
-0.0619696
11
0.543251
21
-0.07043
0
LINE
8
BLACK
6
CONTINUOUS
10
0.543251
20
-0.07043
11
0.545011
21
-0.0739502
0
LINE
8
BLACK
6
CONTINUOUS
10
0.545011
20
-0.0739502
11
0.546468
21
-0.0754071
0
LINE
8
BLACK
6
CONTINUOUS
10
0.546468
20
-0.0754071
11
0.549988
21
-0.0771672
0
LINE
8
BLACK
6
CONTINUOUS
10
0.549988
20
-0.0771672
11
0.564073
21
-0.0771672
0
LINE
8
BLACK
6
CONTINUOUS
10
0.564073
20
-0.0771672
11
0.567593
21
-0.0754071
0
LINE
8
BLACK
6
CONTINUOUS
10
0.567593
20
-0.0754071
11
0.56905
21
-0.0739502
0
LINE
8
BLACK
6
CONTINUOUS
10
0.56905
20
-0.0739502
11
0.57081
21
-0.07043
0
LINE
8
BLACK
6
CONTINUOUS
10
0.57081
20
-0.07043
11
0.57081
21
-0.0619696
0
LINE
8
BLACK
6
CONTINUOUS
10
0.57081
20
-0.0619696
11
0.570253
21
-0.0608567
0
LINE
8
BLACK
6
CONTINUOUS
10
0.570253
20
-0.0608567
11
0.543807
21
-0.0608567
0
LINE
8
BLACK
6
CONTINUOUS
10
0.552337
20
0.00413571
11
0.553298
21
0.0040737
0
LINE
8
BLACK
6
CONTINUOUS
10
0.553298
20
0.0040737
11
0.553789
21
0.00374657
0
LINE
8
BLACK
6
CONTINUOUS
10
0.553789
20
0.00374657
11
0.554359
21
0.00359394
0
LINE
8
BLACK
6
CONTINUOUS
10
0.554359
20
0.00359394
11
0.55504
21
0.00291256
0
LINE
8
BLACK
6
CONTINUOUS
10
0.55504
20
0.00291256
11
0.555842
21
0.00237803
0
LINE
8
BLACK
6
CONTINUOUS
10
0.555842
20
0.00237803
11
0.556103
21
0.00184937
0
LINE
8
BLACK
6
CONTINUOUS
10
0.556103
20
0.00184937
11
0.55652
21
0.00143236
0
LINE
8
BLACK
6
CONTINUOUS
10
0.55652
20
0.00143236
11
0.55677
21
0.000501535
0
LINE
8
BLACK
6
CONTINUOUS
10
0.55677
20
0.000501535
11
0.557197
21
-0.000362244
0
LINE
8
BLACK
6
CONTINUOUS
10
0.557197
20
-0.000362244
11
0.561872
21
-0.0237364
0
LINE
8
BLACK
6
CONTINUOUS
10
0.561872
20
-0.0237364
11
0.566885
21
-0.0237364
0
LINE
8
BLACK
6
CONTINUOUS
10
0.566885
20
-0.0237364
11
0.569502
21
-0.022428
0
LINE
8
BLACK
6
CONTINUOUS
10
0.569502
20
-0.022428
11
0.57081
21
-0.0198113
0
LINE
8
BLACK
6
CONTINUOUS
10
0.57081
20
-0.0198113
11
0.57081
21
-0.0113509
0
LINE
8
BLACK
6
CONTINUOUS
10
0.57081
20
-0.0113509
11
0.568621
21
-0.00697354
0
LINE
8
BLACK
6
CONTINUOUS
10
0.568621
20
-0.00697354
11
0.568008
21
-0.0039787
0
LINE
8
BLACK
6
CONTINUOUS
10
0.568008
20
-0.0039787
11
0.568975
21
-0.00107862
0
LINE
8
BLACK
6
CONTINUOUS
10
0.568975
20
-0.00107862
11
0.571262
21
0.000949528
0
LINE
8
BLACK
6
CONTINUOUS
10
0.571262
20
0.000949528
11
0.574257
21
0.0015624
0
LINE
8
BLACK
6
CONTINUOUS
10
0.574257
20
0.0015624
11
0.577157
21
0.000595709
0
LINE
8
BLACK
6
CONTINUOUS
10
0.577157
20
0.000595709
11
0.579185
21
-0.0016915
0
LINE
8
BLACK
6
CONTINUOUS
10
0.579185
20
-0.0016915
11
0.581997
21
-0.00731583
0
LINE
8
BLACK
6
CONTINUOUS
10
0.581997
20
-0.00731583
11
0.58227
21
-0.00864575
0
LINE
8
BLACK
6
CONTINUOUS
10
0.58227
20
-0.00864575
11
0.582621
21
-0.00995685
0
LINE
8
BLACK
6
CONTINUOUS
10
0.582621
20
-0.00995685
11
0.582621
21
-0.0212054
0
LINE
8
BLACK
6
CONTINUOUS
10
0.582621
20
-0.0212054
11
0.58227
21
-0.0225165
0
LINE
8
BLACK
6
CONTINUOUS
10
0.58227
20
-0.0225165
11
0.581997
21
-0.0238465
0
LINE
8
BLACK
6
CONTINUOUS
10
0.581997
20
-0.0238465
11
0.579185
21
-0.0294707
0
LINE
8
BLACK
6
CONTINUOUS
10
0.579185
20
-0.0294707
11
0.578946
21
-0.0297409
0
LINE
8
BLACK
6
CONTINUOUS
10
0.578946
20
-0.0297409
11
0.578831
21
-0.0300836
0
LINE
8
BLACK
6
CONTINUOUS
10
0.578831
20
-0.0300836
11
0.577944
21
-0.0308705
0
LINE
8
BLACK
6
CONTINUOUS
10
0.577944
20
-0.0308705
11
0.577157
21
-0.031758
0
LINE
8
BLACK
6
CONTINUOUS
10
0.577157
20
-0.031758
11
0.576814
21
-0.0318722
0
LINE
8
BLACK
6
CONTINUOUS
10
0.576814
20
-0.0318722
11
0.576544
21
-0.0321118
0
LINE
8
BLACK
6
CONTINUOUS
10
0.576544
20
-0.0321118
11
0.57092
21
-0.0349239
0
LINE
8
BLACK
6
CONTINUOUS
10
0.57092
20
-0.0349239
11
0.56959
21
-0.0351961
0
LINE
8
BLACK
6
CONTINUOUS
10
0.56959
20
-0.0351961
11
0.568279
21
-0.0355474
0
LINE
8
BLACK
6
CONTINUOUS
10
0.568279
20
-0.0355474
11
0.545782
21
-0.0355474
0
LINE
8
BLACK
6
CONTINUOUS
10
0.545782
20
-0.0355474
11
0.544471
21
-0.0351961
0
LINE
8
BLACK
6
CONTINUOUS
10
0.544471
20
-0.0351961
11
0.543141
21
-0.0349239
0
LINE
8
BLACK
6
CONTINUOUS
10
0.543141
20
-0.0349239
11
0.537516
21
-0.0321118
0
LINE
8
BLACK
6
CONTINUOUS
10
0.537516
20
-0.0321118
11
0.537246
21
-0.0318722
0
LINE
8
BLACK
6
CONTINUOUS
10
0.537246
20
-0.0318722
11
0.536904
21
-0.031758
0
LINE
8
BLACK
6
CONTINUOUS
10
0.536904
20
-0.031758
11
0.536117
21
-0.0308705
0
LINE
8
BLACK
6
CONTINUOUS
10
0.536117
20
-0.0308705
11
0.535229
21
-0.0300836
0
LINE
8
BLACK
6
CONTINUOUS
10
0.535229
20
-0.0300836
11
0.535115
21
-0.0297409
0
LINE
8
BLACK
6
CONTINUOUS
10
0.535115
20
-0.0297409
11
0.534875
21
-0.0294707
0
LINE
8
BLACK
6
CONTINUOUS
10
0.534875
20
-0.0294707
11
0.532063
21
-0.0238465
0
LINE
8
BLACK
6
CONTINUOUS
10
0.532063
20
-0.0238465
11
0.531791
21
-0.0225165
0
LINE
8
BLACK
6
CONTINUOUS
10
0.531791
20
-0.0225165
11
0.53144
21
-0.0212054
0
LINE
8
BLACK
6
CONTINUOUS
10
0.53144
20
-0.0212054
11
0.53144
21
-0.00995685
0
LINE
8
BLACK
6
CONTINUOUS
10
0.53144
20
-0.00995685
11
0.531791
21
-0.00864575
0
LINE
8
BLACK
6
CONTINUOUS
10
0.531791
20
-0.00864575
11
0.532063
21
-0.00731583
0
LINE
8
BLACK
6
CONTINUOUS
10
0.532063
20
-0.00731583
11
0.534875
21
-0.0016915
0
LINE
8
BLACK
6
CONTINUOUS
10
0.534875
20
-0.0016915
11
0.535115
21
-0.0014213
0
LINE
8
BLACK
6
CONTINUOUS
10
0.535115
20
-0.0014213
11
0.535229
21
-0.00107862
0
LINE
8
BLACK
6
CONTINUOUS
10
0.535229
20
-0.00107862
11
0.536117
21
-0.000291693
0
LINE
8
BLACK
6
CONTINUOUS
10
0.536117
20
-0.000291693
11
0.536904
21
0.000595709
0
LINE
8
BLACK
6
CONTINUOUS
10
0.536904
20
0.000595709
11
0.537246
21
0.000709921
0
LINE
8
BLACK
6
CONTINUOUS
10
0.537246
20
0.000709921
11
0.537516
21
0.000949528
0
LINE
8
BLACK
6
CONTINUOUS
10
0.537516
20
0.000949528
11
0.543141
21
0.00376165
0
LINE
8
BLACK
6
CONTINUOUS
10
0.543141
20
0.00376165
11
0.544471
21
0.00403378
0
LINE
8
BLACK
6
CONTINUOUS
10
0.544471
20
0.00403378
11
0.545782
21
0.00438512
0
LINE
8
BLACK
6
CONTINUOUS
10
0.545782
20
0.00438512
11
0.551406
21
0.00438512
0
LINE
8
BLACK
6
CONTINUOUS
10
0.551406
20
0.00438512
11
0.552337
21
0.00413571
0
LINE
8
BLACK
6
CONTINUOUS
10
0.544559
20
-0.00873425
11
0.543251
21
-0.0113509
0
LINE
8
BLACK
6
CONTINUOUS
10
0.543251
20
-0.0113509
11
0.543251
21
-0.0198113
0
LINE
8
BLACK
6
CONTINUOUS
10
0.543251
20
-0.0198113
11
0.544559
21
-0.022428
0
LINE
8
BLACK
6
CONTINUOUS
10
0.544559
20
-0.022428
11
0.547176
21
-0.0237364
0
LINE
8
BLACK
6
CONTINUOUS
10
0.547176
20
-0.0237364
11
0.549827
21
-0.0237364
0
LINE
8
BLACK
6
CONTINUOUS
10
0.549827
20
-0.0237364
11
0.54662
21
-0.0077037
0
LINE
8
BLACK
6
CONTINUOUS
10
0.54662
20
-0.0077037
11
0.544559
21
-0.00873425
0
LINE
8
BLACK
6
CONTINUOUS
10
0.540298
20
0.0457762
11
0.54246
21
0.0436146
0
LINE
8
BLACK
6
CONTINUOUS
10
0.54246
20
0.0436146
11
0.543251
21
0.0406619
0
LINE
8
BLACK
6
CONTINUOUS
10
0.543251
20
0.0406619
11
0.543251
21
0.0364317
0
LINE
8
BLACK
6
CONTINUOUS
10
0.543251
20
0.0364317
11
0.545011
21
0.0329114
0
LINE
8
BLACK
6
CONTINUOUS
10
0.545011
20
0.0329114
11
0.546468
21
0.0314546
0
LINE
8
BLACK
6
CONTINUOUS
10
0.546468
20
0.0314546
11
0.549988
21
0.0296944
0
LINE
8
BLACK
6
CONTINUOUS
10
0.549988
20
0.0296944
11
0.576715
21
0.0296944
0
LINE
8
BLACK
6
CONTINUOUS
10
0.576715
20
0.0296944
11
0.579668
21
0.0289033
0
LINE
8
BLACK
6
CONTINUOUS
10
0.579668
20
0.0289033
11
0.58183
21
0.0267417
0
LINE
8
BLACK
6
CONTINUOUS
10
0.58183
20
0.0267417
11
0.582621
21
0.0237889
0
LINE
8
BLACK
6
CONTINUOUS
10
0.582621
20
0.0237889
11
0.58183
21
0.0208362
0
LINE
8
BLACK
6
CONTINUOUS
10
0.58183
20
0.0208362
11
0.579668
21
0.0186746
0
LINE
8
BLACK
6
CONTINUOUS
10
0.579668
20
0.0186746
11
0.576715
21
0.0178834
0
LINE
8
BLACK
6
CONTINUOUS
10
0.576715
20
0.0178834
11
0.537345
21
0.0178834
0
LINE
8
BLACK
6
CONTINUOUS
10
0.537345
20
0.0178834
11
0.534393
21
0.0186746
0
LINE
8
BLACK
6
CONTINUOUS
10
0.534393
20
0.0186746
11
0.532231
21
0.0208362
0
LINE
8
BLACK
6
CONTINUOUS
10
0.532231
20
0.0208362
11
0.53144
21
0.0237889
0
LINE
8
BLACK
6
CONTINUOUS
10
0.53144
20
0.0237889
11
0.532231
21
0.0267417
0
LINE
8
BLACK
6
CONTINUOUS
10
0.532231
20
0.0267417
11
0.534004
21
0.0285148
0
LINE
8
BLACK
6
CONTINUOUS
10
0.534004
20
0.0285148
11
0.532063
21
0.0323965
0
LINE
8
BLACK
6
CONTINUOUS
10
0.532063
20
0.0323965
11
0.531791
21
0.0337265
0
LINE
8
BLACK
6
CONTINUOUS
10
0.531791
20
0.0337265
11
0.53144
21
0.0350376
0
LINE
8
BLACK
6
CONTINUOUS
10
0.53144
20
0.0350376
11
0.53144
21
0.0406619
0
LINE
8
BLACK
6
CONTINUOUS
10
0.53144
20
0.0406619
11
0.532231
21
0.0436146
0
LINE
8
BLACK
6
CONTINUOUS
10
0.532231
20
0.0436146
11
0.534393
21
0.0457762
0
LINE
8
BLACK
6
CONTINUOUS
10
0.534393
20
0.0457762
11
0.537345
21
0.0465674
0
LINE
8
BLACK
6
CONTINUOUS
10
0.537345
20
0.0465674
11
0.540298
21
0.0457762
0
LINE
8
BLACK
6
CONTINUOUS
10
0.514708
20
0.0552326
11
0.512546
21
0.0573941
0
LINE
8
BLACK
6
CONTINUOUS
10
0.512546
20
0.0573941
11
0.511755
21
0.0603469
0
LINE
8
BLACK
6
CONTINUOUS
10
0.511755
20
0.0603469
11
0.511755
21
0.0884683
0
LINE
8
BLACK
6
CONTINUOUS
10
0.511755
20
0.0884683
11
0.512546
21
0.0914211
0
LINE
8
BLACK
6
CONTINUOUS
10
0.512546
20
0.0914211
11
0.514708
21
0.0935827
0
LINE
8
BLACK
6
CONTINUOUS
10
0.514708
20
0.0935827
11
0.51766
21
0.0943739
0
LINE
8
BLACK
6
CONTINUOUS
10
0.51766
20
0.0943739
11
0.520613
21
0.0935827
0
LINE
8
BLACK
6
CONTINUOUS
10
0.520613
20
0.0935827
11
0.522775
21
0.0914211
0
LINE
8
BLACK
6
CONTINUOUS
10
0.522775
20
0.0914211
11
0.523566
21
0.0884683
0
LINE
8
BLACK
6
CONTINUOUS
10
0.523566
20
0.0884683
11
0.523566
21
0.0662524
0
LINE
8
BLACK
6
CONTINUOUS
10
0.523566
20
0.0662524
11
0.539876
21
0.0662524
0
LINE
8
BLACK
6
CONTINUOUS
10
0.539876
20
0.0662524
11
0.539876
21
0.0800319
0
LINE
8
BLACK
6
CONTINUOUS
10
0.539876
20
0.0800319
11
0.540667
21
0.0829847
0
LINE
8
BLACK
6
CONTINUOUS
10
0.540667
20
0.0829847
11
0.542829
21
0.0851463
0
LINE
8
BLACK
6
CONTINUOUS
10
0.542829
20
0.0851463
11
0.545782
21
0.0859374
0
LINE
8
BLACK
6
CONTINUOUS
10
0.545782
20
0.0859374
11
0.548735
21
0.0851463
0
LINE
8
BLACK
6
CONTINUOUS
10
0.548735
20
0.0851463
11
0.550896
21
0.0829847
0
LINE
8
BLACK
6
CONTINUOUS
10
0.550896
20
0.0829847
11
0.551687
21
0.0800319
0
LINE
8
BLACK
6
CONTINUOUS
10
0.551687
20
0.0800319
11
0.551687
21
0.0662524
0
LINE
8
BLACK
6
CONTINUOUS
10
0.551687
20
0.0662524
11
0.576715
21
0.0662524
0
LINE
8
BLACK
6
CONTINUOUS
10
0.576715
20
0.0662524
11
0.579668
21
0.0654612
0
LINE
8
BLACK
6
CONTINUOUS
10
0.579668
20
0.0654612
11
0.58183
21
0.0632996
0
LINE
8
BLACK
6
CONTINUOUS
10
0.58183
20
0.0632996
11
0.582621
21
0.0603469
0
LINE
8
BLACK
6
CONTINUOUS
10
0.582621
20
0.0603469
11
0.58183
21
0.0573941
0
LINE
8
BLACK
6
CONTINUOUS
10
0.58183
20
0.0573941
11
0.579668
21
0.0552326
0
LINE
8
BLACK
6
CONTINUOUS
10
0.579668
20
0.0552326
11
0.576715
21
0.0544414
0
LINE
8
BLACK
6
CONTINUOUS
10
0.576715
20
0.0544414
11
0.51766
21
0.0544414
0
LINE
8
BLACK
6
CONTINUOUS
10
0.51766
20
0.0544414
11
0.514708
21
0.0552326
0
LINE
8
BLACK
6
CONTINUOUS
10
0.579356
20
0.124684
11
0.581644
21
0.122656
0
LINE
8
BLACK
6
CONTINUOUS
10
0.581644
20
0.122656
11
0.58261
21
0.119756
0
LINE
8
BLACK
6
CONTINUOUS
10
0.58261
20
0.119756
11
0.581997
21
0.116761
0
LINE
8
BLACK
6
CONTINUOUS
10
0.581997
20
0.116761
11
0.579185
21
0.111137
0
LINE
8
BLACK
6
CONTINUOUS
10
0.579185
20
0.111137
11
0.578946
21
0.110866
0
LINE
8
BLACK
6
CONTINUOUS
10
0.578946
20
0.110866
11
0.578831
21
0.110524
0
LINE
8
BLACK
6
CONTINUOUS
10
0.578831
20
0.110524
11
0.577944
21
0.109737
0
LINE
8
BLACK
6
CONTINUOUS
10
0.577944
20
0.109737
11
0.577157
21
0.108849
0
LINE
8
BLACK
6
CONTINUOUS
10
0.577157
20
0.108849
11
0.576814
21
0.108735
0
LINE
8
BLACK
6
CONTINUOUS
10
0.576814
20
0.108735
11
0.576544
21
0.108496
0
LINE
8
BLACK
6
CONTINUOUS
10
0.576544
20
0.108496
11
0.57092
21
0.105684
0
LINE
8
BLACK
6
CONTINUOUS
10
0.57092
20
0.105684
11
0.56959
21
0.105411
0
LINE
8
BLACK
6
CONTINUOUS
10
0.56959
20
0.105411
11
0.568279
21
0.10506
0
LINE
8
BLACK
6
CONTINUOUS
10
0.568279
20
0.10506
11
0.51766
21
0.10506
0
LINE
8
BLACK
6
CONTINUOUS
10
0.51766
20
0.10506
11
0.514708
21
0.105851
0
LINE
8
BLACK
6
CONTINUOUS
10
0.514708
20
0.105851
11
0.512546
21
0.108013
0
LINE
8
BLACK
6
CONTINUOUS
10
0.512546
20
0.108013
11
0.511755
21
0.110966
0
LINE
8
BLACK
6
CONTINUOUS
10
0.511755
20
0.110966
11
0.512546
21
0.113918
0
LINE
8
BLACK
6
CONTINUOUS
10
0.512546
20
0.113918
11
0.514708
21
0.11608
0
LINE
8
BLACK
6
CONTINUOUS
10
0.514708
20
0.11608
11
0.51766
21
0.116871
0
LINE
8
BLACK
6
CONTINUOUS
10
0.51766
20
0.116871
11
0.566885
21
0.116871
0
LINE
8
BLACK
6
CONTINUOUS
10
0.566885
20
0.116871
11
0.569502
21
0.118179
0
LINE
8
BLACK
6
CONTINUOUS
10
0.569502
20
0.118179
11
0.571433
21
0.122043
0
LINE
8
BLACK
6
CONTINUOUS
10
0.571433
20
0.122043
11
0.573462
21
0.12433
0
LINE
8
BLACK
6
CONTINUOUS
10
0.573462
20
0.12433
11
0.576362
21
0.125297
0
LINE
8
BLACK
6
CONTINUOUS
10
0.576362
20
0.125297
11
0.579356
21
0.124684
0
LINE
8
BLACK
6
CONTINUOUS
10
0.539332
20
0.169958
11
0.578702
21
0.155897
0
LINE
8
BLACK
6
CONTINUOUS
10
0.578702
20
0.155897
11
0.578795
21
0.155832
0
LINE
8
BLACK
6
CONTINUOUS
10
0.578795
20
0.155832
11
0.578909
21
0.155819
0
LINE
8
BLACK
6
CONTINUOUS
10
0.578909
20
0.155819
11
0.592969
21
0.150194
0
LINE
8
BLACK
6
CONTINUOUS
10
0.592969
20
0.150194
11
0.593922
21
0.149482
0
LINE
8
BLACK
6
CONTINUOUS
10
0.593922
20
0.149482
11
0.594952
21
0.148887
0
LINE
8
BLACK
6
CONTINUOUS
10
0.594952
20
0.148887
11
0.597764
21
0.146075
0
LINE
8
BLACK
6
CONTINUOUS
10
0.597764
20
0.146075
11
0.59824
21
0.145252
0
LINE
8
BLACK
6
CONTINUOUS
10
0.59824
20
0.145252
11
0.59887
21
0.14454
0
LINE
8
BLACK
6
CONTINUOUS
10
0.59887
20
0.14454
11
0.601682
21
0.138916
0
LINE
8
BLACK
6
CONTINUOUS
10
0.601682
20
0.138916
11
0.602295
21
0.135921
0
LINE
8
BLACK
6
CONTINUOUS
10
0.602295
20
0.135921
11
0.601329
21
0.133021
0
LINE
8
BLACK
6
CONTINUOUS
10
0.601329
20
0.133021
11
0.599041
21
0.130993
0
LINE
8
BLACK
6
CONTINUOUS
10
0.599041
20
0.130993
11
0.596047
21
0.13038
0
LINE
8
BLACK
6
CONTINUOUS
10
0.596047
20
0.13038
11
0.593147
21
0.131347
0
LINE
8
BLACK
6
CONTINUOUS
10
0.593147
20
0.131347
11
0.591118
21
0.133634
0
LINE
8
BLACK
6
CONTINUOUS
10
0.591118
20
0.133634
11
0.588735
21
0.138401
0
LINE
8
BLACK
6
CONTINUOUS
10
0.588735
20
0.138401
11
0.587457
21
0.139678
0
LINE
8
BLACK
6
CONTINUOUS
10
0.587457
20
0.139678
11
0.576597
21
0.144023
0
LINE
8
BLACK
6
CONTINUOUS
10
0.576597
20
0.144023
11
0.539332
21
0.130713
0
LINE
8
BLACK
6
CONTINUOUS
10
0.539332
20
0.130713
11
0.536285
21
0.130465
0
LINE
8
BLACK
6
CONTINUOUS
10
0.536285
20
0.130465
11
0.533522
21
0.131774
0
LINE
8
BLACK
6
CONTINUOUS
10
0.533522
20
0.131774
11
0.531784
21
0.134289
0
LINE
8
BLACK
6
CONTINUOUS
10
0.531784
20
0.134289
11
0.531536
21
0.137335
0
LINE
8
BLACK
6
CONTINUOUS
10
0.531536
20
0.137335
11
0.532844
21
0.140098
0
LINE
8
BLACK
6
CONTINUOUS
10
0.532844
20
0.140098
11
0.535359
21
0.141836
0
LINE
8
BLACK
6
CONTINUOUS
10
0.535359
20
0.141836
11
0.559157
21
0.150336
0
LINE
8
BLACK
6
CONTINUOUS
10
0.559157
20
0.150336
11
0.535359
21
0.158835
0
LINE
8
BLACK
6
CONTINUOUS
10
0.535359
20
0.158835
11
0.532844
21
0.160573
0
LINE
8
BLACK
6
CONTINUOUS
10
0.532844
20
0.160573
11
0.531536
21
0.163336
0
LINE
8
BLACK
6
CONTINUOUS
10
0.531536
20
0.163336
11
0.531784
21
0.166383
0
LINE
8
BLACK
6
CONTINUOUS
10
0.531784
20
0.166383
11
0.533522
21
0.168897
0
LINE
8
BLACK
6
CONTINUOUS
10
0.533522
20
0.168897
11
0.536285
21
0.170206
0
LINE
8
BLACK
6
CONTINUOUS
10
0.536285
20
0.170206
11
0.539332
21
0.169958
0
LINE
8
BLACK
6
CONTINUOUS
10
0.582621
20
0.186894
11
0.58242
21
0.186143
0
LINE
8
BLACK
6
CONTINUOUS
10
0.58242
20
0.186143
11
0.58242
21
0.185365
0
LINE
8
BLACK
6
CONTINUOUS
10
0.58242
20
0.185365
11
0.582031
21
0.184692
0
LINE
8
BLACK
6
CONTINUOUS
10
0.582031
20
0.184692
11
0.58183
21
0.183941
0
LINE
8
BLACK
6
CONTINUOUS
10
0.58183
20
0.183941
11
0.58128
21
0.183391
0
LINE
8
BLACK
6
CONTINUOUS
10
0.58128
20
0.183391
11
0.580891
21
0.182718
0
LINE
8
BLACK
6
CONTINUOUS
10
0.580891
20
0.182718
11
0.580891
21
0.182718
0
LINE
8
BLACK
6
CONTINUOUS
10
0.580891
20
0.182718
11
0.578079
21
0.179906
0
LINE
8
BLACK
6
CONTINUOUS
10
0.578079
20
0.179906
11
0.57696
21
0.17926
0
LINE
8
BLACK
6
CONTINUOUS
10
0.57696
20
0.17926
11
0.575432
21
0.178377
0
LINE
8
BLACK
6
CONTINUOUS
10
0.575432
20
0.178377
11
0.572375
21
0.178377
0
LINE
8
BLACK
6
CONTINUOUS
10
0.572375
20
0.178377
11
0.569727
21
0.179906
0
LINE
8
BLACK
6
CONTINUOUS
10
0.569727
20
0.179906
11
0.569727
21
0.179906
0
LINE
8
BLACK
6
CONTINUOUS
10
0.569727
20
0.179906
11
0.566915
21
0.182718
0
LINE
8
BLACK
6
CONTINUOUS
10
0.566915
20
0.182718
11
0.566527
21
0.183391
0
LINE
8
BLACK
6
CONTINUOUS
10
0.566527
20
0.183391
11
0.565977
21
0.183941
0
LINE
8
BLACK
6
CONTINUOUS
10
0.565977
20
0.183941
11
0.565776
21
0.184692
0
LINE
8
BLACK
6
CONTINUOUS
10
0.565776
20
0.184692
11
0.565387
21
0.185365
0
LINE
8
BLACK
6
CONTINUOUS
10
0.565387
20
0.185365
11
0.565387
21
0.186143
0
LINE
8
BLACK
6
CONTINUOUS
10
0.565387
20
0.186143
11
0.565186
21
0.186894
0
LINE
8
BLACK
6
CONTINUOUS
10
0.565186
20
0.186894
11
0.565387
21
0.187645
0
LINE
8
BLACK
6
CONTINUOUS
10
0.565387
20
0.187645
11
0.565387
21
0.188422
0
LINE
8
BLACK
6
CONTINUOUS
10
0.565387
20
0.188422
11
0.565776
21
0.189095
0
LINE
8
BLACK
6
CONTINUOUS
10
0.565776
20
0.189095
11
0.565977
21
0.189846
0
LINE
8
BLACK
6
CONTINUOUS
10
0.565977
20
0.189846
11
0.566527
21
0.190396
0
LINE
8
BLACK
6
CONTINUOUS
10
0.566527
20
0.190396
11
0.566915
21
0.191069
0
LINE
8
BLACK
6
CONTINUOUS
10
0.566915
20
0.191069
11
0.569727
21
0.193881
0
LINE
8
BLACK
6
CONTINUOUS
10
0.569727
20
0.193881
11
0.569727
21
0.193881
0
LINE
8
BLACK
6
CONTINUOUS
10
0.569727
20
0.193881
11
0.569727
21
0.193882
0
LINE
8
BLACK
6
CONTINUOUS
10
0.569727
20
0.193882
11
0.570846
21
0.194528
0
LINE
8
BLACK
6
CONTINUOUS
10
0.570846
20
0.194528
11
0.572375
21
0.19541
0
LINE
8
BLACK
6
CONTINUOUS
10
0.572375
20
0.19541
11
0.575432
21
0.19541
0
LINE
8
BLACK
6
CONTINUOUS
10
0.575432
20
0.19541
11
0.576102
21
0.195023
0
LINE
8
BLACK
6
CONTINUOUS
10
0.576102
20
0.195023
11
0.578079
21
0.193882
0
LINE
8
BLACK
6
CONTINUOUS
10
0.578079
20
0.193882
11
0.578079
21
0.193882
0
LINE
8
BLACK
6
CONTINUOUS
10
0.578079
20
0.193882
11
0.578079
21
0.193882
0
LINE
8
BLACK
6
CONTINUOUS
10
0.578079
20
0.193882
11
0.580891
21
0.191069
0
LINE
8
BLACK
6
CONTINUOUS
10
0.580891
20
0.191069
11
0.58128
21
0.190396
0
LINE
8
BLACK
6
CONTINUOUS
10
0.58128
20
0.190396
11
0.58183
21
0.189846
0
LINE
8
BLACK
6
CONTINUOUS
10
0.58183
20
0.189846
11
0.582031
21
0.189095
0
LINE
8
BLACK
6
CONTINUOUS
10
0.582031
20
0.189095
11
0.58242
21
0.188422
0
LINE
8
BLACK
6
CONTINUOUS
10
0.58242
20
0.188422
11
0.58242
21
0.187645
0
LINE
8
BLACK
6
CONTINUOUS
10
0.58242
20
0.187645
11
0.582621
21
0.186894
0
LINE
8
BLACK
6
CONTINUOUS
10
0.577157
20
0.245253
11
0.579185
21
0.242965
0
LINE
8
BLACK
6
CONTINUOUS
10
0.579185
20
0.242965
11
0.581997
21
0.237341
0
LINE
8
BLACK
6
CONTINUOUS
10
0.581997
20
0.237341
11
0.58227
21
0.236011
0
LINE
8
BLACK
6
CONTINUOUS
10
0.58227
20
0.236011
11
0.582621
21
0.2347
0
LINE
8
BLACK
6
CONTINUOUS
10
0.582621
20
0.2347
11
0.582621
21
0.223451
0
LINE
8
BLACK
6
CONTINUOUS
10
0.582621
20
0.223451
11
0.58227
21
0.22214
0
LINE
8
BLACK
6
CONTINUOUS
10
0.58227
20
0.22214
11
0.581997
21
0.22081
0
LINE
8
BLACK
6
CONTINUOUS
10
0.581997
20
0.22081
11
0.579185
21
0.215186
0
LINE
8
BLACK
6
CONTINUOUS
10
0.579185
20
0.215186
11
0.578554
21
0.214475
0
LINE
8
BLACK
6
CONTINUOUS
10
0.578554
20
0.214475
11
0.578079
21
0.213651
0
LINE
8
BLACK
6
CONTINUOUS
10
0.578079
20
0.213651
11
0.575267
21
0.210839
0
LINE
8
BLACK
6
CONTINUOUS
10
0.575267
20
0.210839
11
0.574444
21
0.210364
0
LINE
8
BLACK
6
CONTINUOUS
10
0.574444
20
0.210364
11
0.573732
21
0.209733
0
LINE
8
BLACK
6
CONTINUOUS
10
0.573732
20
0.209733
11
0.568108
21
0.206921
0
LINE
8
BLACK
6
CONTINUOUS
10
0.568108
20
0.206921
11
0.566778
21
0.206649
0
LINE
8
BLACK
6
CONTINUOUS
10
0.566778
20
0.206649
11
0.565467
21
0.206297
0
LINE
8
BLACK
6
CONTINUOUS
10
0.565467
20
0.206297
11
0.548594
21
0.206297
0
LINE
8
BLACK
6
CONTINUOUS
10
0.548594
20
0.206297
11
0.547283
21
0.206649
0
LINE
8
BLACK
6
CONTINUOUS
10
0.547283
20
0.206649
11
0.545953
21
0.206921
0
LINE
8
BLACK
6
CONTINUOUS
10
0.545953
20
0.206921
11
0.540329
21
0.209733
0
LINE
8
BLACK
6
CONTINUOUS
10
0.540329
20
0.209733
11
0.539617
21
0.210364
0
LINE
8
BLACK
6
CONTINUOUS
10
0.539617
20
0.210364
11
0.538794
21
0.210839
0
LINE
8
BLACK
6
CONTINUOUS
10
0.538794
20
0.210839
11
0.535982
21
0.213651
0
LINE
8
BLACK
6
CONTINUOUS
10
0.535982
20
0.213651
11
0.535506
21
0.214475
0
LINE
8
BLACK
6
CONTINUOUS
10
0.535506
20
0.214475
11
0.534875
21
0.215186
0
LINE
8
BLACK
6
CONTINUOUS
10
0.534875
20
0.215186
11
0.532063
21
0.22081
0
LINE
8
BLACK
6
CONTINUOUS
10
0.532063
20
0.22081
11
0.531791
21
0.22214
0
LINE
8
BLACK
6
CONTINUOUS
10
0.531791
20
0.22214
11
0.53144
21
0.223451
0
LINE
8
BLACK
6
CONTINUOUS
10
0.53144
20
0.223451
11
0.53144
21
0.2347
0
LINE
8
BLACK
6
CONTINUOUS
10
0.53144
20
0.2347
11
0.531791
21
0.236011
0
LINE
8
BLACK
6
CONTINUOUS
10
0.531791
20
0.236011
11
0.532063
21
0.237341
0
LINE
8
BLACK
6
CONTINUOUS
10
0.532063
20
0.237341
11
0.534875
21
0.242965
0
LINE
8
BLACK
6
CONTINUOUS
10
0.534875
20
0.242965
11
0.536904
21
0.245253
0
LINE
8
BLACK
6
CONTINUOUS
10
0.536904
20
0.245253
11
0.539804
21
0.246219
0
LINE
8
BLACK
6
CONTINUOUS
10
0.539804
20
0.246219
11
0.542799
21
0.245606
0
LINE
8
BLACK
6
CONTINUOUS
10
0.542799
20
0.245606
11
0.545086
21
0.243578
0
LINE
8
BLACK
6
CONTINUOUS
10
0.545086
20
0.243578
11
0.546052
21
0.240678
0
LINE
8
BLACK
6
CONTINUOUS
10
0.546052
20
0.240678
11
0.54544
21
0.237683
0
LINE
8
BLACK
6
CONTINUOUS
10
0.54544
20
0.237683
11
0.543251
21
0.233306
0
LINE
8
BLACK
6
CONTINUOUS
10
0.543251
20
0.233306
11
0.543251
21
0.224846
0
LINE
8
BLACK
6
CONTINUOUS
10
0.543251
20
0.224846
11
0.545011
21
0.221325
0
LINE
8
BLACK
6
CONTINUOUS
10
0.545011
20
0.221325
11
0.546468
21
0.219869
0
LINE
8
BLACK
6
CONTINUOUS
10
0.546468
20
0.219869
11
0.549988
21
0.218108
0
LINE
8
BLACK
6
CONTINUOUS
10
0.549988
20
0.218108
11
0.564073
21
0.218108
0
LINE
8
BLACK
6
CONTINUOUS
10
0.564073
20
0.218108
11
0.567593
21
0.219868
0
LINE
8
BLACK
6
CONTINUOUS
10
0.567593
20
0.219868
11
0.56905
21
0.221325
0
LINE
8
BLACK
6
CONTINUOUS
10
0.56905
20
0.221325
11
0.57081
21
0.224846
0
LINE
8
BLACK
6
CONTINUOUS
10
0.57081
20
0.224846
11
0.57081
21
0.233306
0
LINE
8
BLACK
6
CONTINUOUS
10
0.57081
20
0.233306
11
0.568621
21
0.237683
0
LINE
8
BLACK
6
CONTINUOUS
10
0.568621
20
0.237683
11
0.568008
21
0.240678
0
LINE
8
BLACK
6
CONTINUOUS
10
0.568008
20
0.240678
11
0.568975
21
0.243578
0
LINE
8
BLACK
6
CONTINUOUS
10
0.568975
20
0.243578
11
0.571262
21
0.245606
0
LINE
8
BLACK
6
CONTINUOUS
10
0.571262
20
0.245606
11
0.574257
21
0.246219
0
LINE
8
BLACK
6
CONTINUOUS
10
0.574257
20
0.246219
11
0.577157
21
0.245253
0
LINE
8
BLACK
6
CONTINUOUS
10
0.579668
20
0.296057
11
0.58183
21
0.293896
0
LINE
8
BLACK
6
CONTINUOUS
10
0.58183
20
0.293896
11
0.582621
21
0.290943
0
LINE
8
BLACK
6
CONTINUOUS
10
0.582621
20
0.290943
11
0.582621
21
0.260009
0
LINE
8
BLACK
6
CONTINUOUS
10
0.582621
20
0.260009
11
0.58251
21
0.259596
0
LINE
8
BLACK
6
CONTINUOUS
10
0.58251
20
0.259596
11
0.582561
21
0.259171
0
LINE
8
BLACK
6
CONTINUOUS
10
0.582561
20
0.259171
11
0.58212
21
0.25814
0
LINE
8
BLACK
6
CONTINUOUS
10
0.58212
20
0.25814
11
0.58183
21
0.257057
0
LINE
8
BLACK
6
CONTINUOUS
10
0.58183
20
0.257057
11
0.581527
21
0.256754
0
LINE
8
BLACK
6
CONTINUOUS
10
0.581527
20
0.256754
11
0.581359
21
0.256361
0
LINE
8
BLACK
6
CONTINUOUS
10
0.581359
20
0.256361
11
0.580461
21
0.255688
0
LINE
8
BLACK
6
CONTINUOUS
10
0.580461
20
0.255688
11
0.579668
21
0.254895
0
LINE
8
BLACK
6
CONTINUOUS
10
0.579668
20
0.254895
11
0.579255
21
0.254784
0
LINE
8
BLACK
6
CONTINUOUS
10
0.579255
20
0.254784
11
0.578913
21
0.254528
0
LINE
8
BLACK
6
CONTINUOUS
10
0.578913
20
0.254528
11
0.577799
21
0.254394
0
LINE
8
BLACK
6
CONTINUOUS
10
0.577799
20
0.254394
11
0.576715
21
0.254104
0
LINE
8
BLACK
6
CONTINUOUS
10
0.576715
20
0.254104
11
0.576302
21
0.254215
0
LINE
8
BLACK
6
CONTINUOUS
10
0.576302
20
0.254215
11
0.575877
21
0.254164
0
LINE
8
BLACK
6
CONTINUOUS
10
0.575877
20
0.254164
11
0.574846
21
0.254605
0
LINE
8
BLACK
6
CONTINUOUS
10
0.574846
20
0.254605
11
0.573763
21
0.254895
0
LINE
8
BLACK
6
CONTINUOUS
10
0.573763
20
0.254895
11
0.57346
21
0.255198
0
LINE
8
BLACK
6
CONTINUOUS
10
0.57346
20
0.255198
11
0.573067
21
0.255366
0
LINE
8
BLACK
6
CONTINUOUS
10
0.573067
20
0.255366
11
0.543251
21
0.278793
0
LINE
8
BLACK
6
CONTINUOUS
10
0.543251
20
0.278793
11
0.543251
21
0.260009
0
LINE
8
BLACK
6
CONTINUOUS
10
0.543251
20
0.260009
11
0.54246
21
0.257057
0
LINE
8
BLACK
6
CONTINUOUS
10
0.54246
20
0.257057
11
0.540298
21
0.254895
0
LINE
8
BLACK
6
CONTINUOUS
10
0.540298
20
0.254895
11
0.537345
21
0.254104
0
LINE
8
BLACK
6
CONTINUOUS
10
0.537345
20
0.254104
11
0.534393
21
0.254895
0
LINE
8
BLACK
6
CONTINUOUS
10
0.534393
20
0.254895
11
0.532231
21
0.257057
0
LINE
8
BLACK
6
CONTINUOUS
10
0.532231
20
0.257057
11
0.53144
21
0.260009
0
LINE
8
BLACK
6
CONTINUOUS
10
0.53144
20
0.260009
11
0.53144
21
0.290943
0
LINE
8
BLACK
6
CONTINUOUS
10
0.53144
20
0.290943
11
0.531551
21
0.291356
0
LINE
8
BLACK
6
CONTINUOUS
10
0.531551
20
0.291356
11
0.5315
21
0.291781
0
LINE
8
BLACK
6
CONTINUOUS
10
0.5315
20
0.291781
11
0.531941
21
0.292812
0
LINE
8
BLACK
6
CONTINUOUS
10
0.531941
20
0.292812
11
0.532231
21
0.293896
0
LINE
8
BLACK
6
CONTINUOUS
10
0.532231
20
0.293896
11
0.532533
21
0.294198
0
LINE
8
BLACK
6
CONTINUOUS
10
0.532533
20
0.294198
11
0.532702
21
0.294592
0
LINE
8
BLACK
6
CONTINUOUS
10
0.532702
20
0.294592
11
0.533599
21
0.295264
0
LINE
8
BLACK
6
CONTINUOUS
10
0.533599
20
0.295264
11
0.534393
21
0.296057
0
LINE
8
BLACK
6
CONTINUOUS
10
0.534393
20
0.296057
11
0.534806
21
0.296168
0
LINE
8
BLACK
6
CONTINUOUS
10
0.534806
20
0.296168
11
0.535148
21
0.296425
0
LINE
8
BLACK
6
CONTINUOUS
10
0.535148
20
0.296425
11
0.536262
21
0.296558
0
LINE
8
BLACK
6
CONTINUOUS
10
0.536262
20
0.296558
11
0.537345
21
0.296849
0
LINE
8
BLACK
6
CONTINUOUS
10
0.537345
20
0.296849
11
0.537758
21
0.296738
0
LINE
8
BLACK
6
CONTINUOUS
10
0.537758
20
0.296738
11
0.538183
21
0.296789
0
LINE
8
BLACK
6
CONTINUOUS
10
0.538183
20
0.296789
11
0.539215
21
0.296348
0
LINE
8
BLACK
6
CONTINUOUS
10
0.539215
20
0.296348
11
0.540298
21
0.296057
0
LINE
8
BLACK
6
CONTINUOUS
10
0.540298
20
0.296057
11
0.540601
21
0.295755
0
LINE
8
BLACK
6
CONTINUOUS
10
0.540601
20
0.295755
11
0.540994
21
0.295587
0
LINE
8
BLACK
6
CONTINUOUS
10
0.540994
20
0.295587
11
0.57081
21
0.27216
0
LINE
8
BLACK
6
CONTINUOUS
10
0.57081
20
0.27216
11
0.57081
21
0.290943
0
LINE
8
BLACK
6
CONTINUOUS
10
0.57081
20
0.290943
11
0.571601
21
0.293896
0
LINE
8
BLACK
6
CONTINUOUS
10
0.571601
20
0.293896
11
0.573763
21
0.296057
0
LINE
8
BLACK
6
CONTINUOUS
10
0.573763
20
0.296057
11
0.576715
21
0.296849
0
LINE
8
BLACK
6
CONTINUOUS
10
0.576715
20
0.296849
11
0.579668
21
0.296057
0
LINE
8
BLACK
6
CONTINUOUS
10
-0.829614
20
0.354255
11
-0.827888
21
0.355251
0
LINE
8
BLACK
6
CONTINUOUS
10
-0.827888
20
0.355251
11
-0.827382
21
0.355295
0
LINE
8
BLACK
6
CONTINUOUS
10
-0.827382
20
0.355295
11
0.60376
21
0.355295
0
LINE
8
BLACK
6
CONTINUOUS
10
0.60376
20
0.355295
11
0.605633
21
0.354614
0
LINE
8
BLACK
6
CONTINUOUS
10
0.605633
20
0.354614
11
0.606629
21
0.352888
0
LINE
8
BLACK
6
CONTINUOUS
10
0.606629
20
0.352888
11
0.606673
21
0.352382
0
LINE
8
BLACK
6
CONTINUOUS
10
0.606673
20
0.352382
11
0.606673
21
0.316092
0
LINE
8
BLACK
6
CONTINUOUS
10
0.606673
20
0.316092
11
0.605992
21
0.314219
0
LINE
8
BLACK
6
CONTINUOUS
10
0.605992
20
0.314219
11
0.604266
21
0.313223
0
LINE
8
BLACK
6
CONTINUOUS
10
0.604266
20
0.313223
11
0.60376
21
0.313179
0
LINE
8
BLACK
6
CONTINUOUS
10
0.60376
20
0.313179
11
0.485709
21
0.313179
0
LINE
8
BLACK
6
CONTINUOUS
10
0.485709
20
0.313179
11
0.485709
21
-0.313407
0
LINE
8
BLACK
6
CONTINUOUS
10
0.485709
20
-0.313407
11
0.60376
21
-0.313407
0
LINE
8
BLACK
6
CONTINUOUS
10
0.60376
20
-0.313407
11
0.605633
21
-0.314089
0
LINE
8
BLACK
6
CONTINUOUS
10
0.605633
20
-0.314089
11
0.606629
21
-0.315815
0
LINE
8
BLACK
6
CONTINUOUS
10
0.606629
20
-0.315815
11
0.606673
21
-0.316321
0
LINE
8
BLACK
6
CONTINUOUS
10
0.606673
20
-0.316321
11
0.606673
21
-0.350413
0
LINE
8
BLACK
6
CONTINUOUS
10
0.606673
20
-0.350413
11
0.605992
21
-0.352286
0
LINE
8
BLACK
6
CONTINUOUS
10
0.605992
20
-0.352286
11
0.604266
21
-0.353283
0
LINE
8
BLACK
6
CONTINUOUS
10
0.604266
20
-0.353283
11
0.60376
21
-0.353327
0
LINE
8
BLACK
6
CONTINUOUS
10
0.60376
20
-0.353327
11
-0.827382
21
-0.353327
0
LINE
8
BLACK
6
CONTINUOUS
10
-0.827382
20
-0.353327
11
-0.829255
21
-0.352645
0
LINE
8
BLACK
6
CONTINUOUS
10
-0.829255
20
-0.352645
11
-0.830251
21
-0.350919
0
LINE
8
BLACK
6
CONTINUOUS
10
-0.830251
20
-0.350919
11
-0.830295
21
-0.350413
0
LINE
8
BLACK
6
CONTINUOUS
10
-0.830295
20
-0.350413
11
-0.830295
21
0.352382
0
LINE
8
BLACK
6
CONTINUOUS
10
-0.830295
20
0.352382
11
-0.829614
21
0.354255
0
LINE
8
BLACK
6
CONTINUOUS
10
-0.0631985
20
-0.303261
11
-0.0630913
21
-0.30401
0
LINE
8
BLACK
6
CONTINUOUS
10
-0.0630913
20
-0.30401
11
-0.063073
21
-0.304169
0
LINE
8
BLACK
6
CONTINUOUS
10
-0.063073
20
-0.304169
11
-0.0625615
21
-0.310016
0
LINE
8
BLACK
6
CONTINUOUS
10
-0.0625615
20
-0.310016
11
-0.0607776
21
-0.316673
0
LINE
8
BLACK
6
CONTINUOUS
10
-0.0607776
20
-0.316673
11
-0.0578649
21
-0.32292
0
LINE
8
BLACK
6
CONTINUOUS
10
-0.0578649
20
-0.32292
11
-0.0539116
21
-0.328566
0
LINE
8
BLACK
6
CONTINUOUS
10
-0.0539116
20
-0.328566
11
-0.049038
21
-0.333439
0
LINE
8
BLACK
6
CONTINUOUS
10
-0.049038
20
-0.333439
11
-0.0433922
21
-0.337392
0
LINE
8
BLACK
6
CONTINUOUS
10
-0.0433922
20
-0.337392
11
-0.0432771
21
-0.337446
0
LINE
8
BLACK
6
CONTINUOUS
10
-0.0432771
20
-0.337446
11
-0.0432769
21
-0.337446
0
LINE
8
BLACK
6
CONTINUOUS
10
-0.0432769
20
-0.337446
11
-0.0381084
21
-0.339856
0
LINE
8
BLACK
6
CONTINUOUS
10
-0.0381084
20
-0.339856
11
-0.0371456
21
-0.340305
0
LINE
8
BLACK
6
CONTINUOUS
10
-0.0371456
20
-0.340305
11
-0.0304881
21
-0.342089
0
LINE
8
BLACK
6
CONTINUOUS
10
-0.0304881
20
-0.342089
11
-0.0303613
21
-0.3421
0
LINE
8
BLACK
6
CONTINUOUS
10
-0.0303613
20
-0.3421
11
-0.0303613
21
-0.3421
0
LINE
8
BLACK
6
CONTINUOUS
10
-0.0303613
20
-0.3421
11
-0.0253231
21
-0.342541
0
LINE
8
BLACK
6
CONTINUOUS
10
-0.0253231
20
-0.342541
11
-0.0250937
21
-0.34257
0
LINE
8
BLACK
6
CONTINUOUS
10
-0.0250937
20
-0.34257
11
-0.0242196
21
-0.342717
0
LINE
8
BLACK
6
CONTINUOUS
10
-0.0242196
20
-0.342717
11
-0.0242195
21
-0.342717
0
LINE
8
BLACK
6
CONTINUOUS
10
-0.0242195
20
-0.342717
11
-0.0241084
21
-0.342736
0
LINE
8
BLACK
6
CONTINUOUS
10
-0.0241084
20
-0.342736
11
-0.0239957
21
-0.342737
0
LINE
8
BLACK
6
CONTINUOUS
10
-0.0239957
20
-0.342737
11
-0.0238977
21
-0.342739
0
LINE
8
BLACK
6
CONTINUOUS
10
-0.0238977
20
-0.342739
11
-0.023622
21
-0.342742
0
LINE
8
BLACK
6
CONTINUOUS
10
-0.023622
20
-0.342742
11
-0.0224124
21
-0.342569
0
LINE
8
BLACK
6
CONTINUOUS
10
-0.0224124
20
-0.342569
11
-0.0219994
21
-0.342539
0
LINE
8
BLACK
6
CONTINUOUS
10
-0.0219994
20
-0.342539
11
0.0217233
21
-0.342539
0
LINE
8
BLACK
6
CONTINUOUS
10
0.0217233
20
-0.342539
11
0.0222067
21
-0.34258
0
LINE
8
BLACK
6
CONTINUOUS
10
0.0222067
20
-0.34258
11
0.0231357
21
-0.342736
0
LINE
8
BLACK
6
CONTINUOUS
10
0.0231357
20
-0.342736
11
0.0232484
21
-0.342737
0
LINE
8
BLACK
6
CONTINUOUS
10
0.0232484
20
-0.342737
11
0.0233143
21
-0.342738
0
LINE
8
BLACK
6
CONTINUOUS
10
0.0233143
20
-0.342738
11
0.023622
21
-0.342742
0
LINE
8
BLACK
6
CONTINUOUS
10
0.023622
20
-0.342742
11
0.0237333
21
-0.342726
0
LINE
8
BLACK
6
CONTINUOUS
10
0.0237333
20
-0.342726
11
0.0237335
21
-0.342726
0
LINE
8
BLACK
6
CONTINUOUS
10
0.0237335
20
-0.342726
11
0.0244766
21
-0.34262
0
LINE
8
BLACK
6
CONTINUOUS
10
0.0244766
20
-0.34262
11
0.0246356
21
-0.342601
0
LINE
8
BLACK
6
CONTINUOUS
10
0.0246356
20
-0.342601
11
0.0273867
21
-0.342361
0
LINE
8
BLACK
6
CONTINUOUS
10
0.0273867
20
-0.342361
11
0.0304882
21
-0.342089
0
LINE
8
BLACK
6
CONTINUOUS
10
0.0304882
20
-0.342089
11
0.0371457
21
-0.340305
0
LINE
8
BLACK
6
CONTINUOUS
10
0.0371457
20
-0.340305
11
0.0389283
21
-0.339474
0
LINE
8
BLACK
6
CONTINUOUS
10
0.0389283
20
-0.339474
11
0.043277
21
-0.337446
0
LINE
8
BLACK
6
CONTINUOUS
10
0.043277
20
-0.337446
11
0.0432772
21
-0.337446
0
LINE
8
BLACK
6
CONTINUOUS
10
0.0432772
20
-0.337446
11
0.0433922
21
-0.337393
0
LINE
8
BLACK
6
CONTINUOUS
10
0.0433922
20
-0.337393
11
0.0490381
21
-0.333439
0
LINE
8
BLACK
6
CONTINUOUS
10
0.0490381
20
-0.333439
11
0.0539117
21
-0.328566
0
LINE
8
BLACK
6
CONTINUOUS
10
0.0539117
20
-0.328566
11
0.057865
21
-0.32292
0
LINE
8
BLACK
6
CONTINUOUS
10
0.057865
20
-0.32292
11
0.0607778
21
-0.316673
0
LINE
8
BLACK
6
CONTINUOUS
10
0.0607778
20
-0.316673
11
0.0625616
21
-0.310016
0
LINE
8
BLACK
6
CONTINUOUS
10
0.0625616
20
-0.310016
11
0.0630135
21
-0.304851
0
LINE
8
BLACK
6
CONTINUOUS
10
0.0630135
20
-0.304851
11
0.0630427
21
-0.304621
0
LINE
8
BLACK
6
CONTINUOUS
10
0.0630427
20
-0.304621
11
0.0631898
21
-0.303747
0
LINE
8
BLACK
6
CONTINUOUS
10
0.0631898
20
-0.303747
11
0.0632085
21
-0.303636
0
LINE
8
BLACK
6
CONTINUOUS
10
0.0632085
20
-0.303636
11
0.0632144
21
-0.303149
0
LINE
8
BLACK
6
CONTINUOUS
10
0.0632144
20
-0.303149
11
0.0630412
21
-0.30194
0
LINE
8
BLACK
6
CONTINUOUS
10
0.0630412
20
-0.30194
11
0.0630118
21
-0.301527
0
LINE
8
BLACK
6
CONTINUOUS
10
0.0630118
20
-0.301527
11
0.0630118
21
-0.24993
0
LINE
8
BLACK
6
CONTINUOUS
10
0.0630118
20
-0.24993
11
0.0630521
21
-0.249447
0
LINE
8
BLACK
6
CONTINUOUS
10
0.0630521
20
-0.249447
11
0.0632085
21
-0.248518
0
LINE
8
BLACK
6
CONTINUOUS
10
0.0632085
20
-0.248518
11
0.0632144
21
-0.248031
0
LINE
8
BLACK
6
CONTINUOUS
10
0.0632144
20
-0.248031
11
0.0631985
21
-0.24792
0
LINE
8
BLACK
6
CONTINUOUS
10
0.0631985
20
-0.24792
11
0.0630921
21
-0.247177
0
LINE
8
BLACK
6
CONTINUOUS
10
0.0630921
20
-0.247177
11
0.0630738
21
-0.247018
0
LINE
8
BLACK
6
CONTINUOUS
10
0.0630738
20
-0.247018
11
0.0626412
21
-0.242074
0
LINE
8
BLACK
6
CONTINUOUS
10
0.0626412
20
-0.242074
11
0.0625617
21
-0.241165
0
LINE
8
BLACK
6
CONTINUOUS
10
0.0625617
20
-0.241165
11
0.0607778
21
-0.234508
0
LINE
8
BLACK
6
CONTINUOUS
10
0.0607778
20
-0.234508
11
0.058764
21
-0.230189
0
LINE
8
BLACK
6
CONTINUOUS
10
0.058764
20
-0.230189
11
0.0579187
21
-0.228377
0
LINE
8
BLACK
6
CONTINUOUS
10
0.0579187
20
-0.228377
11
0.0579187
21
-0.228377
0
LINE
8
BLACK
6
CONTINUOUS
10
0.0579187
20
-0.228377
11
0.0578649
21
-0.228261
0
LINE
8
BLACK
6
CONTINUOUS
10
0.0578649
20
-0.228261
11
0.0539116
21
-0.222615
0
LINE
8
BLACK
6
CONTINUOUS
10
0.0539116
20
-0.222615
11
0.049038
21
-0.217742
0
LINE
8
BLACK
6
CONTINUOUS
10
0.049038
20
-0.217742
11
0.0433922
21
-0.213789
0
LINE
8
BLACK
6
CONTINUOUS
10
0.0433922
20
-0.213789
11
0.0371456
21
-0.210876
0
LINE
8
BLACK
6
CONTINUOUS
10
0.0371456
20
-0.210876
11
0.0304881
21
-0.209092
0
LINE
8
BLACK
6
CONTINUOUS
10
0.0304881
20
-0.209092
11
0.0303613
21
-0.209081
0
LINE
8
BLACK
6
CONTINUOUS
10
0.0303613
20
-0.209081
11
0.0303613
21
-0.209081
0
LINE
8
BLACK
6
CONTINUOUS
10
0.0303613
20
-0.209081
11
0.0253231
21
-0.20864
0
LINE
8
BLACK
6
CONTINUOUS
10
0.0253231
20
-0.20864
11
0.0250937
21
-0.208611
0
LINE
8
BLACK
6
CONTINUOUS
10
0.0250937
20
-0.208611
11
0.0242196
21
-0.208464
0
LINE
8
BLACK
6
CONTINUOUS
10
0.0242196
20
-0.208464
11
0.0242195
21
-0.208464
0
LINE
8
BLACK
6
CONTINUOUS
10
0.0242195
20
-0.208464
11
0.0241084
21
-0.208445
0
LINE
8
BLACK
6
CONTINUOUS
10
0.0241084
20
-0.208445
11
0.0239957
21
-0.208444
0
LINE
8
BLACK
6
CONTINUOUS
10
0.0239957
20
-0.208444
11
0.0238977
21
-0.208442
0
LINE
8
BLACK
6
CONTINUOUS
10
0.0238977
20
-0.208442
11
0.023622
21
-0.208439
0
LINE
8
BLACK
6
CONTINUOUS
10
0.023622
20
-0.208439
11
0.0227619
21
-0.208562
0
LINE
8
BLACK
6
CONTINUOUS
10
0.0227619
20
-0.208562
11
0.0224124
21
-0.208612
0
LINE
8
BLACK
6
CONTINUOUS
10
0.0224124
20
-0.208612
11
0.0219994
21
-0.208642
0
LINE
8
BLACK
6
CONTINUOUS
10
0.0219994
20
-0.208642
11
-0.0217233
21
-0.208642
0
LINE
8
BLACK
6
CONTINUOUS
10
-0.0217233
20
-0.208642
11
-0.0222067
21
-0.208601
0
LINE
8
BLACK
6
CONTINUOUS
10
-0.0222067
20
-0.208601
11
-0.0230245
21
-0.208464
0
LINE
8
BLACK
6
CONTINUOUS
10
-0.0230245
20
-0.208464
11
-0.0230245
21
-0.208464
0
LINE
8
BLACK
6
CONTINUOUS
10
-0.0230245
20
-0.208464
11
-0.0231357
21
-0.208445
0
LINE
8
BLACK
6
CONTINUOUS
10
-0.0231357
20
-0.208445
11
-0.0232484
21
-0.208444
0
LINE
8
BLACK
6
CONTINUOUS
10
-0.0232484
20
-0.208444
11
-0.0232925
21
-0.208443
0
LINE
8
BLACK
6
CONTINUOUS
10
-0.0232925
20
-0.208443
11
-0.023622
21
-0.208439
0
LINE
8
BLACK
6
CONTINUOUS
10
-0.023622
20
-0.208439
11
-0.0237335
21
-0.208455
0
LINE
8
BLACK
6
CONTINUOUS
10
-0.0237335
20
-0.208455
11
-0.0237338
21
-0.208455
0
LINE
8
BLACK
6
CONTINUOUS
10
-0.0237338
20
-0.208455
11
-0.0244824
21
-0.208562
0
LINE
8
BLACK
6
CONTINUOUS
10
-0.0244824
20
-0.208562
11
-0.0246413
21
-0.208581
0
LINE
8
BLACK
6
CONTINUOUS
10
-0.0246413
20
-0.208581
11
-0.0304881
21
-0.209092
0
LINE
8
BLACK
6
CONTINUOUS
10
-0.0304881
20
-0.209092
11
-0.0371456
21
-0.210876
0
LINE
8
BLACK
6
CONTINUOUS
10
-0.0371456
20
-0.210876
11
-0.0372605
21
-0.21093
0
LINE
8
BLACK
6
CONTINUOUS
10
-0.0372605
20
-0.21093
11
-0.0372606
21
-0.21093
0
LINE
8
BLACK
6
CONTINUOUS
10
-0.0372606
20
-0.21093
11
-0.043277
21
-0.213735
0
LINE
8
BLACK
6
CONTINUOUS
10
-0.043277
20
-0.213735
11
-0.0432772
21
-0.213735
0
LINE
8
BLACK
6
CONTINUOUS
10
-0.0432772
20
-0.213735
11
-0.0433921
21
-0.213789
0
LINE
8
BLACK
6
CONTINUOUS
10
-0.0433921
20
-0.213789
11
-0.0434962
21
-0.213862
0
LINE
8
BLACK
6
CONTINUOUS
10
-0.0434962
20
-0.213862
11
-0.0489336
21
-0.217669
0
LINE
8
BLACK
6
CONTINUOUS
10
-0.0489336
20
-0.217669
11
-0.0489337
21
-0.217669
0
LINE
8
BLACK
6
CONTINUOUS
10
-0.0489337
20
-0.217669
11
-0.0490379
21
-0.217742
0
LINE
8
BLACK
6
CONTINUOUS
10
-0.0490379
20
-0.217742
11
-0.0539115
21
-0.222616
0
LINE
8
BLACK
6
CONTINUOUS
10
-0.0539115
20
-0.222616
11
-0.0562691
21
-0.225983
0
LINE
8
BLACK
6
CONTINUOUS
10
-0.0562691
20
-0.225983
11
-0.0577917
21
-0.228157
0
LINE
8
BLACK
6
CONTINUOUS
10
-0.0577917
20
-0.228157
11
-0.0578648
21
-0.228261
0
LINE
8
BLACK
6
CONTINUOUS
10
-0.0578648
20
-0.228261
11
-0.0579185
21
-0.228376
0
LINE
8
BLACK
6
CONTINUOUS
10
-0.0579185
20
-0.228376
11
-0.0579186
21
-0.228377
0
LINE
8
BLACK
6
CONTINUOUS
10
-0.0579186
20
-0.228377
11
-0.0596429
21
-0.232074
0
LINE
8
BLACK
6
CONTINUOUS
10
-0.0596429
20
-0.232074
11
-0.0607776
21
-0.234508
0
LINE
8
BLACK
6
CONTINUOUS
10
-0.0607776
20
-0.234508
11
-0.0625615
21
-0.241165
0
LINE
8
BLACK
6
CONTINUOUS
10
-0.0625615
20
-0.241165
11
-0.0626411
21
-0.242074
0
LINE
8
BLACK
6
CONTINUOUS
10
-0.0626411
20
-0.242074
11
-0.0630135
21
-0.24633
0
LINE
8
BLACK
6
CONTINUOUS
10
-0.0630135
20
-0.24633
11
-0.0630428
21
-0.24656
0
LINE
8
BLACK
6
CONTINUOUS
10
-0.0630428
20
-0.24656
11
-0.0631198
21
-0.247018
0
LINE
8
BLACK
6
CONTINUOUS
10
-0.0631198
20
-0.247018
11
-0.0632085
21
-0.247545
0
LINE
8
BLACK
6
CONTINUOUS
10
-0.0632085
20
-0.247545
11
-0.0632144
21
-0.248031
0
LINE
8
BLACK
6
CONTINUOUS
10
-0.0632144
20
-0.248031
11
-0.0631985
21
-0.248143
0
LINE
8
BLACK
6
CONTINUOUS
10
-0.0631985
20
-0.248143
11
-0.0630412
21
-0.249241
0
LINE
8
BLACK
6
CONTINUOUS
10
-0.0630412
20
-0.249241
11
-0.0630118
21
-0.249654
0
LINE
8
BLACK
6
CONTINUOUS
10
-0.0630118
20
-0.249654
11
-0.0630118
21
-0.301251
0
LINE
8
BLACK
6
CONTINUOUS
10
-0.0630118
20
-0.301251
11
-0.0630522
21
-0.301734
0
LINE
8
BLACK
6
CONTINUOUS
10
-0.0630522
20
-0.301734
11
-0.0632085
21
-0.302663
0
LINE
8
BLACK
6
CONTINUOUS
10
-0.0632085
20
-0.302663
11
-0.0632144
21
-0.303149
0
LINE
8
BLACK
6
CONTINUOUS
10
-0.0632144
20
-0.303149
11
-0.0631985
21
-0.303261
0
LINE
8
BLACK
6
CONTINUOUS
10
-0.0631985
20
-0.303261
11
-0.0631985
21
-0.303261
0
LINE
8
BLACK
6
CONTINUOUS
10
-0.271072
20
-0.0228817
11
-0.271083
21
-0.0226278
0
LINE
8
BLACK
6
CONTINUOUS
10
-0.271083
20
-0.0226278
11
-0.271083
21
-0.015701
0
LINE
8
BLACK
6
CONTINUOUS
10
-0.271083
20
-0.015701
11
-0.270401
21
-0.0138283
0
LINE
8
BLACK
6
CONTINUOUS
10
-0.270401
20
-0.0138283
11
-0.270208
21
-0.0136222
0
LINE
8
BLACK
6
CONTINUOUS
10
-0.270208
20
-0.0136222
11
-0.270149
21
-0.0135727
0
LINE
8
BLACK
6
CONTINUOUS
10
-0.270149
20
-0.0135727
11
-0.26966
21
-0.0130332
0
LINE
8
BLACK
6
CONTINUOUS
10
-0.26966
20
-0.0130332
11
-0.266434
21
-0.00946902
0
LINE
8
BLACK
6
CONTINUOUS
10
-0.266434
20
-0.00946902
11
-0.266434
21
-0.00946898
0
LINE
8
BLACK
6
CONTINUOUS
10
-0.266434
20
-0.00946898
11
-0.266364
21
-0.00939224
0
LINE
8
BLACK
6
CONTINUOUS
10
-0.266364
20
-0.00939224
11
-0.265088
21
-0.00750035
0
LINE
8
BLACK
6
CONTINUOUS
10
-0.265088
20
-0.00750035
11
-0.26263
21
-0.00242587
0
LINE
8
BLACK
6
CONTINUOUS
10
-0.26263
20
-0.00242587
11
-0.261936
21
-0.000251969
0
LINE
8
BLACK
6
CONTINUOUS
10
-0.261936
20
-0.000251969
11
-0.261001
21
0.00530858
0
LINE
8
BLACK
6
CONTINUOUS
10
-0.261001
20
0.00530858
11
-0.26089
21
0.00654539
0
LINE
8
BLACK
6
CONTINUOUS
10
-0.26089
20
0.00654539
11
-0.260884
21
0.0070313
0
LINE
8
BLACK
6
CONTINUOUS
10
-0.260884
20
0.0070313
11
-0.260964
21
0.00827075
0
LINE
8
BLACK
6
CONTINUOUS
10
-0.260964
20
0.00827075
11
-0.261056
21
0.0089113
0
LINE
8
BLACK
6
CONTINUOUS
10
-0.261056
20
0.0089113
11
-0.261086
21
0.00932429
0
LINE
8
BLACK
6
CONTINUOUS
10
-0.261086
20
0.00932429
11
-0.261086
21
0.0242454
0
LINE
8
BLACK
6
CONTINUOUS
10
-0.261086
20
0.0242454
11
-0.261045
21
0.0247283
0
LINE
8
BLACK
6
CONTINUOUS
10
-0.261045
20
0.0247283
11
-0.261001
21
0.0249936
0
LINE
8
BLACK
6
CONTINUOUS
10
-0.261001
20
0.0249936
11
-0.26089
21
0.0262304
0
LINE
8
BLACK
6
CONTINUOUS
10
-0.26089
20
0.0262304
11
-0.260884
21
0.0267163
0
LINE
8
BLACK
6
CONTINUOUS
10
-0.260884
20
0.0267163
11
-0.260901
21
0.0269778
0
LINE
8
BLACK
6
CONTINUOUS
10
-0.260901
20
0.0269778
11
-0.260961
21
0.0279001
0
LINE
8
BLACK
6
CONTINUOUS
10
-0.260961
20
0.0279001
11
-0.260964
21
0.0279558
0
LINE
8
BLACK
6
CONTINUOUS
10
-0.260964
20
0.0279558
11
-0.261542
21
0.0319876
0
LINE
8
BLACK
6
CONTINUOUS
10
-0.261542
20
0.0319876
11
-0.261749
21
0.0334351
0
LINE
8
BLACK
6
CONTINUOUS
10
-0.261749
20
0.0334351
11
-0.261749
21
0.0334353
0
LINE
8
BLACK
6
CONTINUOUS
10
-0.261749
20
0.0334353
11
-0.261764
21
0.0335376
0
LINE
8
BLACK
6
CONTINUOUS
10
-0.261764
20
0.0335376
11
-0.262404
21
0.0357278
0
LINE
8
BLACK
6
CONTINUOUS
10
-0.262404
20
0.0357278
11
-0.264738
21
0.0408608
0
LINE
8
BLACK
6
CONTINUOUS
10
-0.264738
20
0.0408608
11
-0.265967
21
0.0427832
0
LINE
8
BLACK
6
CONTINUOUS
10
-0.265967
20
0.0427832
11
-0.267028
21
0.0440137
0
LINE
8
BLACK
6
CONTINUOUS
10
-0.267028
20
0.0440137
11
-0.269581
21
0.0469765
0
LINE
8
BLACK
6
CONTINUOUS
10
-0.269581
20
0.0469765
11
-0.269581
21
0.0469767
0
LINE
8
BLACK
6
CONTINUOUS
10
-0.269581
20
0.0469767
11
-0.269648
21
0.0470549
0
LINE
8
BLACK
6
CONTINUOUS
10
-0.269648
20
0.0470549
11
-0.269739
21
0.047134
0
LINE
8
BLACK
6
CONTINUOUS
10
-0.269739
20
0.047134
11
-0.270084
21
0.0474355
0
LINE
8
BLACK
6
CONTINUOUS
10
-0.270084
20
0.0474355
11
-0.271048
21
0.0491802
0
LINE
8
BLACK
6
CONTINUOUS
10
-0.271048
20
0.0491802
11
-0.271083
21
0.0496309
0
LINE
8
BLACK
6
CONTINUOUS
10
-0.271083
20
0.0496309
11
-0.271083
21
0.0848288
0
LINE
8
BLACK
6
CONTINUOUS
10
-0.271083
20
0.0848288
11
-0.270481
21
0.0866023
0
LINE
8
BLACK
6
CONTINUOUS
10
-0.270481
20
0.0866023
11
-0.269465
21
0.0879256
0
LINE
8
BLACK
6
CONTINUOUS
10
-0.269465
20
0.0879256
11
-0.269465
21
0.0879258
0
LINE
8
BLACK
6
CONTINUOUS
10
-0.269465
20
0.0879258
11
-0.269349
21
0.0880771
0
LINE
8
BLACK
6
CONTINUOUS
10
-0.269349
20
0.0880771
11
-0.268653
21
0.0897572
0
LINE
8
BLACK
6
CONTINUOUS
10
-0.268653
20
0.0897572
11
-0.266967
21
0.0938283
0
LINE
8
BLACK
6
CONTINUOUS
10
-0.266967
20
0.0938283
11
-0.266154
21
0.1
0
LINE
8
BLACK
6
CONTINUOUS
10
-0.266154
20
0.1
11
-0.266211
21
0.100433
0
LINE
8
BLACK
6
CONTINUOUS
10
-0.266211
20
0.100433
11
-0.266942
21
0.105983
0
LINE
8
BLACK
6
CONTINUOUS
10
-0.266942
20
0.105983
11
-0.266942
21
0.105983
0
LINE
8
BLACK
6
CONTINUOUS
10
-0.266942
20
0.105983
11
-0.266967
21
0.106172
0
LINE
8
BLACK
6
CONTINUOUS
10
-0.266967
20
0.106172
11
-0.268702
21
0.110362
0
LINE
8
BLACK
6
CONTINUOUS
10
-0.268702
20
0.110362
11
-0.269349
21
0.111923
0
LINE
8
BLACK
6
CONTINUOUS
10
-0.269349
20
0.111923
11
-0.269465
21
0.112074
0
LINE
8
BLACK
6
CONTINUOUS
10
-0.269465
20
0.112074
11
-0.269465
21
0.112074
0
LINE
8
BLACK
6
CONTINUOUS
10
-0.269465
20
0.112074
11
-0.273022
21
0.11671
0
LINE
8
BLACK
6
CONTINUOUS
10
-0.273022
20
0.11671
11
-0.273139
21
0.116861
0
LINE
8
BLACK
6
CONTINUOUS
10
-0.273139
20
0.116861
11
-0.273838
21
0.117398
0
LINE
8
BLACK
6
CONTINUOUS
10
-0.273838
20
0.117398
11
-0.277926
21
0.120535
0
LINE
8
BLACK
6
CONTINUOUS
10
-0.277926
20
0.120535
11
-0.277926
21
0.120535
0
LINE
8
BLACK
6
CONTINUOUS
10
-0.277926
20
0.120535
11
-0.278077
21
0.120651
0
LINE
8
BLACK
6
CONTINUOUS
10
-0.278077
20
0.120651
11
-0.283828
21
0.123033
0
LINE
8
BLACK
6
CONTINUOUS
10
-0.283828
20
0.123033
11
-0.284017
21
0.123058
0
LINE
8
BLACK
6
CONTINUOUS
10
-0.284017
20
0.123058
11
-0.284017
21
0.123058
0
LINE
8
BLACK
6
CONTINUOUS
10
-0.284017
20
0.123058
11
-0.289811
21
0.123821
0
LINE
8
BLACK
6
CONTINUOUS
10
-0.289811
20
0.123821
11
-0.29
21
0.123846
0
LINE
8
BLACK
6
CONTINUOUS
10
-0.29
20
0.123846
11
-0.290189
21
0.123821
0
LINE
8
BLACK
6
CONTINUOUS
10
-0.290189
20
0.123821
11
-0.295983
21
0.123058
0
LINE
8
BLACK
6
CONTINUOUS
10
-0.295983
20
0.123058
11
-0.295983
21
0.123058
0
LINE
8
BLACK
6
CONTINUOUS
10
-0.295983
20
0.123058
11
-0.296172
21
0.123033
0
LINE
8
BLACK
6
CONTINUOUS
10
-0.296172
20
0.123033
11
-0.301923
21
0.120651
0
LINE
8
BLACK
6
CONTINUOUS
10
-0.301923
20
0.120651
11
-0.302074
21
0.120535
0
LINE
8
BLACK
6
CONTINUOUS
10
-0.302074
20
0.120535
11
-0.302074
21
0.120535
0
LINE
8
BLACK
6
CONTINUOUS
10
-0.302074
20
0.120535
11
-0.306162
21
0.117398
0
LINE
8
BLACK
6
CONTINUOUS
10
-0.306162
20
0.117398
11
-0.306861
21
0.116861
0
LINE
8
BLACK
6
CONTINUOUS
10
-0.306861
20
0.116861
11
-0.306978
21
0.11671
0
LINE
8
BLACK
6
CONTINUOUS
10
-0.306978
20
0.11671
11
-0.310535
21
0.112074
0
LINE
8
BLACK
6
CONTINUOUS
10
-0.310535
20
0.112074
11
-0.310535
21
0.112074
0
LINE
8
BLACK
6
CONTINUOUS
10
-0.310535
20
0.112074
11
-0.310651
21
0.111923
0
LINE
8
BLACK
6
CONTINUOUS
10
-0.310651
20
0.111923
11
-0.313033
21
0.106172
0
LINE
8
BLACK
6
CONTINUOUS
10
-0.313033
20
0.106172
11
-0.313058
21
0.105983
0
LINE
8
BLACK
6
CONTINUOUS
10
-0.313058
20
0.105983
11
-0.313058
21
0.105983
0
LINE
8
BLACK
6
CONTINUOUS
10
-0.313058
20
0.105983
11
-0.313789
21
0.100433
0
LINE
8
BLACK
6
CONTINUOUS
10
-0.313789
20
0.100433
11
-0.313846
21
0.1
0
LINE
8
BLACK
6
CONTINUOUS
10
-0.313846
20
0.1
11
-0.313033
21
0.0938283
0
LINE
8
BLACK
6
CONTINUOUS
10
-0.313033
20
0.0938283
11
-0.310651
21
0.0880771
0
LINE
8
BLACK
6
CONTINUOUS
10
-0.310651
20
0.0880771
11
-0.310535
21
0.0879258
0
LINE
8
BLACK
6
CONTINUOUS
10
-0.310535
20
0.0879258
11
-0.310535
21
0.0879256
0
LINE
8
BLACK
6
CONTINUOUS
10
-0.310535
20
0.0879256
11
-0.307157
21
0.0835238
0
LINE
8
BLACK
6
CONTINUOUS
10
-0.307157
20
0.0835238
11
-0.306555
21
0.0817503
0
LINE
8
BLACK
6
CONTINUOUS
10
-0.306555
20
0.0817503
11
-0.306555
21
0.0574616
0
LINE
8
BLACK
6
CONTINUOUS
10
-0.306555
20
0.0574616
11
-0.307237
21
0.0555889
0
LINE
8
BLACK
6
CONTINUOUS
10
-0.307237
20
0.0555889
11
-0.308963
21
0.0545924
0
LINE
8
BLACK
6
CONTINUOUS
10
-0.308963
20
0.0545924
11
-0.309469
21
0.0545482
0
LINE
8
BLACK
6
CONTINUOUS
10
-0.309469
20
0.0545482
11
-0.310472
21
0.0545482
0
LINE
8
BLACK
6
CONTINUOUS
10
-0.310472
20
0.0545482
11
-0.310613
21
0.0545202
0
LINE
8
BLACK
6
CONTINUOUS
10
-0.310613
20
0.0545202
11
-0.310613
21
0.0545202
0
LINE
8
BLACK
6
CONTINUOUS
10
-0.310613
20
0.0545202
11
-0.311181
21
0.0544072
0
LINE
8
BLACK
6
CONTINUOUS
10
-0.311181
20
0.0544072
11
-0.313552
21
0.0539356
0
LINE
8
BLACK
6
CONTINUOUS
10
-0.313552
20
0.0539356
11
-0.313791
21
0.0537761
0
LINE
8
BLACK
6
CONTINUOUS
10
-0.313791
20
0.0537761
11
-0.314056
21
0.0536663
0
LINE
8
BLACK
6
CONTINUOUS
10
-0.314056
20
0.0536663
11
-0.314076
21
0.0537132
0
LINE
8
BLACK
6
CONTINUOUS
10
-0.314076
20
0.0537132
11
-0.315711
21
0.0533131
0
LINE
8
BLACK
6
CONTINUOUS
10
-0.315711
20
0.0533131
11
-0.316725
21
0.0536821
0
LINE
8
BLACK
6
CONTINUOUS
10
-0.316725
20
0.0536821
11
-0.316731
21
0.0536663
0
LINE
8
BLACK
6
CONTINUOUS
10
-0.316731
20
0.0536663
11
-0.316996
21
0.0537761
0
LINE
8
BLACK
6
CONTINUOUS
10
-0.316996
20
0.0537761
11
-0.317235
21
0.0539356
0
LINE
8
BLACK
6
CONTINUOUS
10
-0.317235
20
0.0539356
11
-0.318988
21
0.0542843
0
LINE
8
BLACK
6
CONTINUOUS
10
-0.318988
20
0.0542843
11
-0.319397
21
0.0543656
0
LINE
8
BLACK
6
CONTINUOUS
10
-0.319397
20
0.0543656
11
-0.319397
21
0.0543656
0
LINE
8
BLACK
6
CONTINUOUS
10
-0.319397
20
0.0543656
11
-0.319537
21
0.0543935
0
LINE
8
BLACK
6
CONTINUOUS
10
-0.319537
20
0.0543935
11
-0.360463
21
0.0543935
0
LINE
8
BLACK
6
CONTINUOUS
10
-0.360463
20
0.0543935
11
-0.360603
21
0.0543656
0
LINE
8
BLACK
6
CONTINUOUS
10
-0.360603
20
0.0543656
11
-0.360603
21
0.0543656
0
LINE
8
BLACK
6
CONTINUOUS
10
-0.360603
20
0.0543656
11
-0.361012
21
0.0542843
0
LINE
8
BLACK
6
CONTINUOUS
10
-0.361012
20
0.0542843
11
-0.362765
21
0.0539356
0
LINE
8
BLACK
6
CONTINUOUS
10
-0.362765
20
0.0539356
11
-0.363004
21
0.0537761
0
LINE
8
BLACK
6
CONTINUOUS
10
-0.363004
20
0.0537761
11
-0.363004
21
0.0537761
0
LINE
8
BLACK
6
CONTINUOUS
10
-0.363004
20
0.0537761
11
-0.364606
21
0.0527052
0
LINE
8
BLACK
6
CONTINUOUS
10
-0.364606
20
0.0527052
11
-0.365376
21
0.0521909
0
LINE
8
BLACK
6
CONTINUOUS
10
-0.365376
20
0.0521909
11
-0.365536
21
0.0519522
0
LINE
8
BLACK
6
CONTINUOUS
10
-0.365536
20
0.0519522
11
-0.366771
21
0.0501035
0
LINE
8
BLACK
6
CONTINUOUS
10
-0.366771
20
0.0501035
11
-0.367121
21
0.0495798
0
LINE
8
BLACK
6
CONTINUOUS
10
-0.367121
20
0.0495798
11
-0.367579
21
0.0472773
0
LINE
8
BLACK
6
CONTINUOUS
10
-0.367579
20
0.0472773
11
-0.367579
21
0.0395904
0
LINE
8
BLACK
6
CONTINUOUS
10
-0.367579
20
0.0395904
11
-0.36826
21
0.0377177
0
LINE
8
BLACK
6
CONTINUOUS
10
-0.36826
20
0.0377177
11
-0.369528
21
0.0369861
0
LINE
8
BLACK
6
CONTINUOUS
10
-0.369528
20
0.0369861
11
-0.369528
21
0.0287833
0
LINE
8
BLACK
6
CONTINUOUS
10
-0.369528
20
0.0287833
11
-0.359685
21
0.0287833
0
LINE
8
BLACK
6
CONTINUOUS
10
-0.359685
20
0.0287833
11
-0.359685
21
0.0464998
0
LINE
8
BLACK
6
CONTINUOUS
10
-0.359685
20
0.0464998
11
-0.320315
21
0.0464998
0
LINE
8
BLACK
6
CONTINUOUS
10
-0.320315
20
0.0464998
11
-0.320315
21
-0.0125553
0
LINE
8
BLACK
6
CONTINUOUS
10
-0.320315
20
-0.0125553
11
-0.332126
21
-0.0125553
0
LINE
8
BLACK
6
CONTINUOUS
10
-0.332126
20
-0.0125553
11
-0.332126
21
-0.024701
0
LINE
8
BLACK
6
CONTINUOUS
10
-0.332126
20
-0.024701
11
-0.330744
21
-0.0254054
0
LINE
8
BLACK
6
CONTINUOUS
10
-0.330744
20
-0.0254054
11
-0.32726
21
-0.0288894
0
LINE
8
BLACK
6
CONTINUOUS
10
-0.32726
20
-0.0288894
11
-0.325023
21
-0.0332794
0
LINE
8
BLACK
6
CONTINUOUS
10
-0.325023
20
-0.0332794
11
-0.324252
21
-0.0381458
0
LINE
8
BLACK
6
CONTINUOUS
10
-0.324252
20
-0.0381458
11
-0.325023
21
-0.0430122
0
LINE
8
BLACK
6
CONTINUOUS
10
-0.325023
20
-0.0430122
11
-0.32726
21
-0.0474023
0
LINE
8
BLACK
6
CONTINUOUS
10
-0.32726
20
-0.0474023
11
-0.330744
21
-0.0508863
0
LINE
8
BLACK
6
CONTINUOUS
10
-0.330744
20
-0.0508863
11
-0.335134
21
-0.0531231
0
LINE
8
BLACK
6
CONTINUOUS
10
-0.335134
20
-0.0531231
11
-0.34
21
-0.0538939
0
LINE
8
BLACK
6
CONTINUOUS
10
-0.34
20
-0.0538939
11
-0.344866
21
-0.0531231
0
LINE
8
BLACK
6
CONTINUOUS
10
-0.344866
20
-0.0531231
11
-0.349256
21
-0.0508863
0
LINE
8
BLACK
6
CONTINUOUS
10
-0.349256
20
-0.0508863
11
-0.35274
21
-0.0474023
0
LINE
8
BLACK
6
CONTINUOUS
10
-0.35274
20
-0.0474023
11
-0.354977
21
-0.0430122
0
LINE
8
BLACK
6
CONTINUOUS
10
-0.354977
20
-0.0430122
11
-0.355748
21
-0.0381458
0
LINE
8
BLACK
6
CONTINUOUS
10
-0.355748
20
-0.0381458
11
-0.354977
21
-0.0332794
0
LINE
8
BLACK
6
CONTINUOUS
10
-0.354977
20
-0.0332794
11
-0.35274
21
-0.0288894
0
LINE
8
BLACK
6
CONTINUOUS
10
-0.35274
20
-0.0288894
11
-0.349256
21
-0.0254054
0
LINE
8
BLACK
6
CONTINUOUS
10
-0.349256
20
-0.0254054
11
-0.347874
21
-0.024701
0
LINE
8
BLACK
6
CONTINUOUS
10
-0.347874
20
-0.024701
11
-0.347874
21
-0.0125553
0
LINE
8
BLACK
6
CONTINUOUS
10
-0.347874
20
-0.0125553
11
-0.359685
21
-0.0125553
0
LINE
8
BLACK
6
CONTINUOUS
10
-0.359685
20
-0.0125553
11
-0.359685
21
0.00516126
0
LINE
8
BLACK
6
CONTINUOUS
10
-0.359685
20
0.00516126
11
-0.369528
21
0.00516126
0
LINE
8
BLACK
6
CONTINUOUS
10
-0.369528
20
0.00516126
11
-0.369528
21
-0.0030835
0
LINE
8
BLACK
6
CONTINUOUS
10
-0.369528
20
-0.0030835
11
-0.368619
21
-0.00341406
0
LINE
8
BLACK
6
CONTINUOUS
10
-0.368619
20
-0.00341406
11
-0.367623
21
-0.00513992
0
LINE
8
BLACK
6
CONTINUOUS
10
-0.367623
20
-0.00513992
11
-0.367579
21
-0.00564583
0
LINE
8
BLACK
6
CONTINUOUS
10
-0.367579
20
-0.00564583
11
-0.367579
21
-0.0133328
0
LINE
8
BLACK
6
CONTINUOUS
10
-0.367579
20
-0.0133328
11
-0.367121
21
-0.0156352
0
LINE
8
BLACK
6
CONTINUOUS
10
-0.367121
20
-0.0156352
11
-0.365376
21
-0.0182463
0
LINE
8
BLACK
6
CONTINUOUS
10
-0.365376
20
-0.0182463
11
-0.365137
21
-0.0184057
0
LINE
8
BLACK
6
CONTINUOUS
10
-0.365137
20
-0.0184057
11
-0.363098
21
-0.0197687
0
LINE
8
BLACK
6
CONTINUOUS
10
-0.363098
20
-0.0197687
11
-0.362765
21
-0.019991
0
LINE
8
BLACK
6
CONTINUOUS
10
-0.362765
20
-0.019991
11
-0.362484
21
-0.020047
0
LINE
8
BLACK
6
CONTINUOUS
10
-0.362484
20
-0.020047
11
-0.362483
21
-0.020047
0
LINE
8
BLACK
6
CONTINUOUS
10
-0.362483
20
-0.020047
11
-0.361377
21
-0.020267
0
LINE
8
BLACK
6
CONTINUOUS
10
-0.361377
20
-0.020267
11
-0.359674
21
-0.0213008
0
LINE
8
BLACK
6
CONTINUOUS
10
-0.359674
20
-0.0213008
11
-0.359033
21
-0.023188
0
LINE
8
BLACK
6
CONTINUOUS
10
-0.359033
20
-0.023188
11
-0.359634
21
-0.024898
0
LINE
8
BLACK
6
CONTINUOUS
10
-0.359634
20
-0.024898
11
-0.360535
21
-0.0260715
0
LINE
8
BLACK
6
CONTINUOUS
10
-0.360535
20
-0.0260715
11
-0.360535
21
-0.0260716
0
LINE
8
BLACK
6
CONTINUOUS
10
-0.360535
20
-0.0260716
11
-0.360651
21
-0.026223
0
LINE
8
BLACK
6
CONTINUOUS
10
-0.360651
20
-0.026223
11
-0.363033
21
-0.0319741
0
LINE
8
BLACK
6
CONTINUOUS
10
-0.363033
20
-0.0319741
11
-0.363058
21
-0.0321631
0
LINE
8
BLACK
6
CONTINUOUS
10
-0.363058
20
-0.0321631
11
-0.363058
21
-0.0321633
0
LINE
8
BLACK
6
CONTINUOUS
10
-0.363058
20
-0.0321633
11
-0.363432
21
-0.0350011
0
LINE
8
BLACK
6
CONTINUOUS
10
-0.363432
20
-0.0350011
11
-0.363846
21
-0.0381458
0
LINE
8
BLACK
6
CONTINUOUS
10
-0.363846
20
-0.0381458
11
-0.363821
21
-0.0383351
0
LINE
8
BLACK
6
CONTINUOUS
10
-0.363821
20
-0.0383351
11
-0.363343
21
-0.0419631
0
LINE
8
BLACK
6
CONTINUOUS
10
-0.363343
20
-0.0419631
11
-0.363033
21
-0.0443176
0
LINE
8
BLACK
6
CONTINUOUS
10
-0.363033
20
-0.0443176
11
-0.360651
21
-0.0500687
0
LINE
8
BLACK
6
CONTINUOUS
10
-0.360651
20
-0.0500687
11
-0.360535
21
-0.05022
0
LINE
8
BLACK
6
CONTINUOUS
10
-0.360535
20
-0.05022
11
-0.360535
21
-0.0502202
0
LINE
8
BLACK
6
CONTINUOUS
10
-0.360535
20
-0.0502202
11
-0.356978
21
-0.0548557
0
LINE
8
BLACK
6
CONTINUOUS
10
-0.356978
20
-0.0548557
11
-0.356861
21
-0.0550073
0
LINE
8
BLACK
6
CONTINUOUS
10
-0.356861
20
-0.0550073
11
-0.35671
21
-0.0551237
0
LINE
8
BLACK
6
CONTINUOUS
10
-0.35671
20
-0.0551237
11
-0.352074
21
-0.0586806
0
LINE
8
BLACK
6
CONTINUOUS
10
-0.352074
20
-0.0586806
11
-0.352074
21
-0.0586807
0
LINE
8
BLACK
6
CONTINUOUS
10
-0.352074
20
-0.0586807
11
-0.351923
21
-0.0587969
0
LINE
8
BLACK
6
CONTINUOUS
10
-0.351923
20
-0.0587969
11
-0.346172
21
-0.0611791
0
LINE
8
BLACK
6
CONTINUOUS
10
-0.346172
20
-0.0611791
11
-0.345983
21
-0.0612039
0
LINE
8
BLACK
6
CONTINUOUS
10
-0.345983
20
-0.0612039
11
-0.345983
21
-0.061204
0
LINE
8
BLACK
6
CONTINUOUS
10
-0.345983
20
-0.061204
11
-0.340189
21
-0.0619667
0
LINE
8
BLACK
6
CONTINUOUS
10
-0.340189
20
-0.0619667
11
-0.34
21
-0.0619916
0
LINE
8
BLACK
6
CONTINUOUS
10
-0.34
20
-0.0619916
11
-0.339811
21
-0.0619667
0
LINE
8
BLACK
6
CONTINUOUS
10
-0.339811
20
-0.0619667
11
-0.334017
21
-0.061204
0
LINE
8
BLACK
6
CONTINUOUS
10
-0.334017
20
-0.061204
11
-0.334017
21
-0.0612039
0
LINE
8
BLACK
6
CONTINUOUS
10
-0.334017
20
-0.0612039
11
-0.333828
21
-0.0611791
0
LINE
8
BLACK
6
CONTINUOUS
10
-0.333828
20
-0.0611791
11
-0.328077
21
-0.0587969
0
LINE
8
BLACK
6
CONTINUOUS
10
-0.328077
20
-0.0587969
11
-0.327926
21
-0.0586807
0
LINE
8
BLACK
6
CONTINUOUS
10
-0.327926
20
-0.0586807
11
-0.327926
21
-0.0586806
0
LINE
8
BLACK
6
CONTINUOUS
10
-0.327926
20
-0.0586806
11
-0.32329
21
-0.0551237
0
LINE
8
BLACK
6
CONTINUOUS
10
-0.32329
20
-0.0551237
11
-0.323139
21
-0.0550073
0
LINE
8
BLACK
6
CONTINUOUS
10
-0.323139
20
-0.0550073
11
-0.323022
21
-0.0548557
0
LINE
8
BLACK
6
CONTINUOUS
10
-0.323022
20
-0.0548557
11
-0.319465
21
-0.0502202
0
LINE
8
BLACK
6
CONTINUOUS
10
-0.319465
20
-0.0502202
11
-0.319465
21
-0.05022
0
LINE
8
BLACK
6
CONTINUOUS
10
-0.319465
20
-0.05022
11
-0.319349
21
-0.0500687
0
LINE
8
BLACK
6
CONTINUOUS
10
-0.319349
20
-0.0500687
11
-0.316967
21
-0.0443176
0
LINE
8
BLACK
6
CONTINUOUS
10
-0.316967
20
-0.0443176
11
-0.316657
21
-0.0419631
0
LINE
8
BLACK
6
CONTINUOUS
10
-0.316657
20
-0.0419631
11
-0.316179
21
-0.0383351
0
LINE
8
BLACK
6
CONTINUOUS
10
-0.316179
20
-0.0383351
11
-0.316154
21
-0.0381458
0
LINE
8
BLACK
6
CONTINUOUS
10
-0.316154
20
-0.0381458
11
-0.316568
21
-0.0350011
0
LINE
8
BLACK
6
CONTINUOUS
10
-0.316568
20
-0.0350011
11
-0.316942
21
-0.0321633
0
LINE
8
BLACK
6
CONTINUOUS
10
-0.316942
20
-0.0321633
11
-0.316942
21
-0.0321631
0
LINE
8
BLACK
6
CONTINUOUS
10
-0.316942
20
-0.0321631
11
-0.316967
21
-0.0319741
0
LINE
8
BLACK
6
CONTINUOUS
10
-0.316967
20
-0.0319741
11
-0.319349
21
-0.026223
0
LINE
8
BLACK
6
CONTINUOUS
10
-0.319349
20
-0.026223
11
-0.319465
21
-0.0260716
0
LINE
8
BLACK
6
CONTINUOUS
10
-0.319465
20
-0.0260716
11
-0.319465
21
-0.0260715
0
LINE
8
BLACK
6
CONTINUOUS
10
-0.319465
20
-0.0260715
11
-0.320366
21
-0.024898
0
LINE
8
BLACK
6
CONTINUOUS
10
-0.320366
20
-0.024898
11
-0.320965
21
-0.0229973
0
LINE
8
BLACK
6
CONTINUOUS
10
-0.320965
20
-0.0229973
11
-0.320202
21
-0.0211561
0
LINE
8
BLACK
6
CONTINUOUS
10
-0.320202
20
-0.0211561
11
-0.318623
21
-0.020267
0
LINE
8
BLACK
6
CONTINUOUS
10
-0.318623
20
-0.020267
11
-0.317517
21
-0.020047
0
LINE
8
BLACK
6
CONTINUOUS
10
-0.317517
20
-0.020047
11
-0.317516
21
-0.020047
0
LINE
8
BLACK
6
CONTINUOUS
10
-0.317516
20
-0.020047
11
-0.317235
21
-0.019991
0
LINE
8
BLACK
6
CONTINUOUS
10
-0.317235
20
-0.019991
11
-0.316996
21
-0.0198315
0
LINE
8
BLACK
6
CONTINUOUS
10
-0.316996
20
-0.0198315
11
-0.316731
21
-0.0197217
0
LINE
8
BLACK
6
CONTINUOUS
10
-0.316731
20
-0.0197217
11
-0.316712
21
-0.0197687
0
LINE
8
BLACK
6
CONTINUOUS
10
-0.316712
20
-0.0197687
11
-0.315076
21
-0.0193685
0
LINE
8
BLACK
6
CONTINUOUS
10
-0.315076
20
-0.0193685
11
-0.314063
21
-0.0197375
0
LINE
8
BLACK
6
CONTINUOUS
10
-0.314063
20
-0.0197375
11
-0.314056
21
-0.0197217
0
LINE
8
BLACK
6
CONTINUOUS
10
-0.314056
20
-0.0197217
11
-0.313791
21
-0.0198315
0
LINE
8
BLACK
6
CONTINUOUS
10
-0.313791
20
-0.0198315
11
-0.313552
21
-0.019991
0
LINE
8
BLACK
6
CONTINUOUS
10
-0.313552
20
-0.019991
11
-0.311181
21
-0.0204627
0
LINE
8
BLACK
6
CONTINUOUS
10
-0.311181
20
-0.0204627
11
-0.310613
21
-0.0205757
0
LINE
8
BLACK
6
CONTINUOUS
10
-0.310613
20
-0.0205757
11
-0.310613
21
-0.0205757
0
LINE
8
BLACK
6
CONTINUOUS
10
-0.310613
20
-0.0205757
11
-0.310472
21
-0.0206036
0
LINE
8
BLACK
6
CONTINUOUS
10
-0.310472
20
-0.0206036
11
-0.309469
21
-0.0206036
0
LINE
8
BLACK
6
CONTINUOUS
10
-0.309469
20
-0.0206036
11
-0.307596
21
-0.0212852
0
LINE
8
BLACK
6
CONTINUOUS
10
-0.307596
20
-0.0212852
11
-0.306599
21
-0.0230111
0
LINE
8
BLACK
6
CONTINUOUS
10
-0.306599
20
-0.0230111
11
-0.306555
21
-0.023517
0
LINE
8
BLACK
6
CONTINUOUS
10
-0.306555
20
-0.023517
11
-0.306555
21
-0.0299547
0
LINE
8
BLACK
6
CONTINUOUS
10
-0.306555
20
-0.0299547
11
-0.306575
21
-0.0302971
0
LINE
8
BLACK
6
CONTINUOUS
10
-0.306575
20
-0.0302971
11
-0.306747
21
-0.0317445
0
LINE
8
BLACK
6
CONTINUOUS
10
-0.306747
20
-0.0317445
11
-0.306707
21
-0.0319587
0
LINE
8
BLACK
6
CONTINUOUS
10
-0.306707
20
-0.0319587
11
-0.306707
21
-0.0319589
0
LINE
8
BLACK
6
CONTINUOUS
10
-0.306707
20
-0.0319589
11
-0.306326
21
-0.0340472
0
LINE
8
BLACK
6
CONTINUOUS
10
-0.306326
20
-0.0340472
11
-0.306311
21
-0.0341375
0
LINE
8
BLACK
6
CONTINUOUS
10
-0.306311
20
-0.0341375
11
-0.306181
21
-0.0350011
0
LINE
8
BLACK
6
CONTINUOUS
10
-0.306181
20
-0.0350011
11
-0.305963
21
-0.0364552
0
LINE
8
BLACK
6
CONTINUOUS
10
-0.305963
20
-0.0364552
11
-0.305871
21
-0.0366456
0
LINE
8
BLACK
6
CONTINUOUS
10
-0.305871
20
-0.0366456
11
-0.305868
21
-0.0366589
0
LINE
8
BLACK
6
CONTINUOUS
10
-0.305868
20
-0.0366589
11
-0.305864
21
-0.0366693
0
LINE
8
BLACK
6
CONTINUOUS
10
-0.305864
20
-0.0366693
11
-0.305836
21
-0.0367574
0
LINE
8
BLACK
6
CONTINUOUS
10
-0.305836
20
-0.0367574
11
-0.305832
21
-0.0367695
0
LINE
8
BLACK
6
CONTINUOUS
10
-0.305832
20
-0.0367695
11
-0.305826
21
-0.0367833
0
LINE
8
BLACK
6
CONTINUOUS
10
-0.305826
20
-0.0367833
11
-0.305788
21
-0.0369911
0
LINE
8
BLACK
6
CONTINUOUS
10
-0.305788
20
-0.0369911
11
-0.305257
21
-0.0380131
0
LINE
8
BLACK
6
CONTINUOUS
10
-0.305257
20
-0.0380131
11
-0.304709
21
-0.0390683
0
LINE
8
BLACK
6
CONTINUOUS
10
-0.304709
20
-0.0390683
11
-0.304669
21
-0.0391498
0
LINE
8
BLACK
6
CONTINUOUS
10
-0.304669
20
-0.0391498
11
-0.303654
21
-0.041263
0
LINE
8
BLACK
6
CONTINUOUS
10
-0.303654
20
-0.041263
11
-0.30351
21
-0.0414182
0
LINE
8
BLACK
6
CONTINUOUS
10
-0.30351
20
-0.0414182
11
-0.303489
21
-0.041454
0
LINE
8
BLACK
6
CONTINUOUS
10
-0.303489
20
-0.041454
11
-0.303406
21
-0.0415765
0
LINE
8
BLACK
6
CONTINUOUS
10
-0.303406
20
-0.0415765
11
-0.30333
21
-0.0417239
0
LINE
8
BLACK
6
CONTINUOUS
10
-0.30333
20
-0.0417239
11
-0.30316
21
-0.0419224
0
LINE
8
BLACK
6
CONTINUOUS
10
-0.30316
20
-0.0419224
11
-0.301666
21
-0.0434172
0
LINE
8
BLACK
6
CONTINUOUS
10
-0.301666
20
-0.0434172
11
-0.301586
21
-0.0434997
0
LINE
8
BLACK
6
CONTINUOUS
10
-0.301586
20
-0.0434997
11
-0.300034
21
-0.0451794
0
LINE
8
BLACK
6
CONTINUOUS
10
-0.300034
20
-0.0451794
11
-0.299845
21
-0.0452887
0
LINE
8
BLACK
6
CONTINUOUS
10
-0.299845
20
-0.0452887
11
-0.299713
21
-0.0453949
0
LINE
8
BLACK
6
CONTINUOUS
10
-0.299713
20
-0.0453949
11
-0.299474
21
-0.0456085
0
LINE
8
BLACK
6
CONTINUOUS
10
-0.299474
20
-0.0456085
11
-0.153409
21
-0.191674
0
LINE
8
BLACK
6
CONTINUOUS
10
-0.153409
20
-0.191674
11
-0.153181
21
-0.191931
0
LINE
8
BLACK
6
CONTINUOUS
10
-0.153181
20
-0.191931
11
-0.152278
21
-0.193075
0
LINE
8
BLACK
6
CONTINUOUS
10
-0.152278
20
-0.193075
11
-0.152099
21
-0.193199
0
LINE
8
BLACK
6
CONTINUOUS
10
-0.152099
20
-0.193199
11
-0.152099
21
-0.193199
0
LINE
8
BLACK
6
CONTINUOUS
10
-0.152099
20
-0.193199
11
-0.150352
21
-0.194407
0
LINE
8
BLACK
6
CONTINUOUS
10
-0.150352
20
-0.194407
11
-0.150278
21
-0.19446
0
LINE
8
BLACK
6
CONTINUOUS
10
-0.150278
20
-0.19446
11
-0.148568
21
-0.195722
0
LINE
8
BLACK
6
CONTINUOUS
10
-0.148568
20
-0.195722
11
-0.148568
21
-0.195722
0
LINE
8
BLACK
6
CONTINUOUS
10
-0.148568
20
-0.195722
11
-0.148393
21
-0.195852
0
LINE
8
BLACK
6
CONTINUOUS
10
-0.148393
20
-0.195852
11
-0.148194
21
-0.195922
0
LINE
8
BLACK
6
CONTINUOUS
10
-0.148194
20
-0.195922
11
-0.148182
21
-0.195929
0
LINE
8
BLACK
6
CONTINUOUS
10
-0.148182
20
-0.195929
11
-0.148171
21
-0.195934
0
LINE
8
BLACK
6
CONTINUOUS
10
-0.148171
20
-0.195934
11
-0.14809
21
-0.195975
0
LINE
8
BLACK
6
CONTINUOUS
10
-0.14809
20
-0.195975
11
-0.148078
21
-0.195982
0
LINE
8
BLACK
6
CONTINUOUS
10
-0.148078
20
-0.195982
11
-0.148065
21
-0.195987
0
LINE
8
BLACK
6
CONTINUOUS
10
-0.148065
20
-0.195987
11
-0.147891
21
-0.196108
0
LINE
8
BLACK
6
CONTINUOUS
10
-0.147891
20
-0.196108
11
-0.146302
21
-0.19661
0
LINE
8
BLACK
6
CONTINUOUS
10
-0.146302
20
-0.19661
11
-0.145659
21
-0.196814
0
LINE
8
BLACK
6
CONTINUOUS
10
-0.145659
20
-0.196814
11
-0.145572
21
-0.196842
0
LINE
8
BLACK
6
CONTINUOUS
10
-0.145572
20
-0.196842
11
-0.143567
21
-0.197547
0
LINE
8
BLACK
6
CONTINUOUS
10
-0.143567
20
-0.197547
11
-0.143361
21
-0.197619
0
LINE
8
BLACK
6
CONTINUOUS
10
-0.143361
20
-0.197619
11
-0.14315
21
-0.197627
0
LINE
8
BLACK
6
CONTINUOUS
10
-0.14315
20
-0.197627
11
-0.14311
21
-0.197637
0
LINE
8
BLACK
6
CONTINUOUS
10
-0.14311
20
-0.197637
11
-0.142964
21
-0.197666
0
LINE
8
BLACK
6
CONTINUOUS
10
-0.142964
20
-0.197666
11
-0.142806
21
-0.197716
0
LINE
8
BLACK
6
CONTINUOUS
10
-0.142806
20
-0.197716
11
-0.142546
21
-0.197736
0
LINE
8
BLACK
6
CONTINUOUS
10
-0.142546
20
-0.197736
11
-0.140432
21
-0.197736
0
LINE
8
BLACK
6
CONTINUOUS
10
-0.140432
20
-0.197736
11
-0.140317
21
-0.197738
0
LINE
8
BLACK
6
CONTINUOUS
10
-0.140317
20
-0.197738
11
-0.138249
21
-0.19782
0
LINE
8
BLACK
6
CONTINUOUS
10
-0.138249
20
-0.19782
11
-0.138249
21
-0.19782
0
LINE
8
BLACK
6
CONTINUOUS
10
-0.138249
20
-0.19782
11
-0.138032
21
-0.197828
0
LINE
8
BLACK
6
CONTINUOUS
10
-0.138032
20
-0.197828
11
-0.137821
21
-0.197772
0
LINE
8
BLACK
6
CONTINUOUS
10
-0.137821
20
-0.197772
11
-0.137653
21
-0.197754
0
LINE
8
BLACK
6
CONTINUOUS
10
-0.137653
20
-0.197754
11
-0.137333
21
-0.197736
0
LINE
8
BLACK
6
CONTINUOUS
10
-0.137333
20
-0.197736
11
0.0714467
21
-0.197736
0
LINE
8
BLACK
6
CONTINUOUS
10
0.0714467
20
-0.197736
11
0.0733193
21
-0.198418
0
LINE
8
BLACK
6
CONTINUOUS
10
0.0733193
20
-0.198418
11
0.0735067
21
-0.19859
0
LINE
8
BLACK
6
CONTINUOUS
10
0.0735067
20
-0.19859
11
0.0956425
21
-0.220725
0
LINE
8
BLACK
6
CONTINUOUS
10
0.0956425
20
-0.220725
11
0.0964709
21
-0.222405
0
LINE
8
BLACK
6
CONTINUOUS
10
0.0964709
20
-0.222405
11
0.0969668
21
-0.226172
0
LINE
8
BLACK
6
CONTINUOUS
10
0.0969668
20
-0.226172
11
0.099349
21
-0.231923
0
LINE
8
BLACK
6
CONTINUOUS
10
0.099349
20
-0.231923
11
0.0994651
21
-0.232074
0
LINE
8
BLACK
6
CONTINUOUS
10
0.0994651
20
-0.232074
11
0.0994652
21
-0.232074
0
LINE
8
BLACK
6
CONTINUOUS
10
0.0994652
20
-0.232074
11
0.103022
21
-0.23671
0
LINE
8
BLACK
6
CONTINUOUS
10
0.103022
20
-0.23671
11
0.103139
21
-0.236861
0
LINE
8
BLACK
6
CONTINUOUS
10
0.103139
20
-0.236861
11
0.10329
21
-0.236978
0
LINE
8
BLACK
6
CONTINUOUS
10
0.10329
20
-0.236978
11
0.107926
21
-0.240535
0
LINE
8
BLACK
6
CONTINUOUS
10
0.107926
20
-0.240535
11
0.107926
21
-0.240535
0
LINE
8
BLACK
6
CONTINUOUS
10
0.107926
20
-0.240535
11
0.108077
21
-0.240651
0
LINE
8
BLACK
6
CONTINUOUS
10
0.108077
20
-0.240651
11
0.113828
21
-0.243033
0
LINE
8
BLACK
6
CONTINUOUS
10
0.113828
20
-0.243033
11
0.114017
21
-0.243058
0
LINE
8
BLACK
6
CONTINUOUS
10
0.114017
20
-0.243058
11
0.114017
21
-0.243058
0
LINE
8
BLACK
6
CONTINUOUS
10
0.114017
20
-0.243058
11
0.119811
21
-0.243821
0
LINE
8
BLACK
6
CONTINUOUS
10
0.119811
20
-0.243821
11
0.12
21
-0.243846
0
LINE
8
BLACK
6
CONTINUOUS
10
0.12
20
-0.243846
11
0.120189
21
-0.243821
0
LINE
8
BLACK
6
CONTINUOUS
10
0.120189
20
-0.243821
11
0.125983
21
-0.243058
0
LINE
8
BLACK
6
CONTINUOUS
10
0.125983
20
-0.243058
11
0.125983
21
-0.243058
0
LINE
8
BLACK
6
CONTINUOUS
10
0.125983
20
-0.243058
11
0.126172
21
-0.243033
0
LINE
8
BLACK
6
CONTINUOUS
10
0.126172
20
-0.243033
11
0.131923
21
-0.240651
0
LINE
8
BLACK
6
CONTINUOUS
10
0.131923
20
-0.240651
11
0.132074
21
-0.240535
0
LINE
8
BLACK
6
CONTINUOUS
10
0.132074
20
-0.240535
11
0.132074
21
-0.240535
0
LINE
8
BLACK
6
CONTINUOUS
10
0.132074
20
-0.240535
11
0.13671
21
-0.236978
0
LINE
8
BLACK
6
CONTINUOUS
10
0.13671
20
-0.236978
11
0.136861
21
-0.236861
0
LINE
8
BLACK
6
CONTINUOUS
10
0.136861
20
-0.236861
11
0.136978
21
-0.23671
0
LINE
8
BLACK
6
CONTINUOUS
10
0.136978
20
-0.23671
11
0.140535
21
-0.232074
0
LINE
8
BLACK
6
CONTINUOUS
10
0.140535
20
-0.232074
11
0.140535
21
-0.232074
0
LINE
8
BLACK
6
CONTINUOUS
10
0.140535
20
-0.232074
11
0.140651
21
-0.231923
0
LINE
8
BLACK
6
CONTINUOUS
10
0.140651
20
-0.231923
11
0.143033
21
-0.226172
0
LINE
8
BLACK
6
CONTINUOUS
10
0.143033
20
-0.226172
11
0.143342
21
-0.223828
0
LINE
8
BLACK
6
CONTINUOUS
10
0.143342
20
-0.223828
11
0.143821
21
-0.220189
0
LINE
8
BLACK
6
CONTINUOUS
10
0.143821
20
-0.220189
11
0.143846
21
-0.22
0
LINE
8
BLACK
6
CONTINUOUS
10
0.143846
20
-0.22
11
0.143593
21
-0.218077
0
LINE
8
BLACK
6
CONTINUOUS
10
0.143593
20
-0.218077
11
0.143058
21
-0.214017
0
LINE
8
BLACK
6
CONTINUOUS
10
0.143058
20
-0.214017
11
0.143058
21
-0.214017
0
LINE
8
BLACK
6
CONTINUOUS
10
0.143058
20
-0.214017
11
0.143033
21
-0.213828
0
LINE
8
BLACK
6
CONTINUOUS
10
0.143033
20
-0.213828
11
0.140651
21
-0.208077
0
LINE
8
BLACK
6
CONTINUOUS
10
0.140651
20
-0.208077
11
0.140535
21
-0.207926
0
LINE
8
BLACK
6
CONTINUOUS
10
0.140535
20
-0.207926
11
0.140535
21
-0.207926
0
LINE
8
BLACK
6
CONTINUOUS
10
0.140535
20
-0.207926
11
0.136978
21
-0.20329
0
LINE
8
BLACK
6
CONTINUOUS
10
0.136978
20
-0.20329
11
0.136861
21
-0.203139
0
LINE
8
BLACK
6
CONTINUOUS
10
0.136861
20
-0.203139
11
0.13671
21
-0.203022
0
LINE
8
BLACK
6
CONTINUOUS
10
0.13671
20
-0.203022
11
0.132074
21
-0.199465
0
LINE
8
BLACK
6
CONTINUOUS
10
0.132074
20
-0.199465
11
0.132074
21
-0.199465
0
LINE
8
BLACK
6
CONTINUOUS
10
0.132074
20
-0.199465
11
0.131923
21
-0.199349
0
LINE
8
BLACK
6
CONTINUOUS
10
0.131923
20
-0.199349
11
0.126172
21
-0.196967
0
LINE
8
BLACK
6
CONTINUOUS
10
0.126172
20
-0.196967
11
0.125983
21
-0.196942
0
LINE
8
BLACK
6
CONTINUOUS
10
0.125983
20
-0.196942
11
0.125983
21
-0.196942
0
LINE
8
BLACK
6
CONTINUOUS
10
0.125983
20
-0.196942
11
0.123736
21
-0.196646
0
LINE
8
BLACK
6
CONTINUOUS
10
0.123736
20
-0.196646
11
0.122405
21
-0.196471
0
LINE
8
BLACK
6
CONTINUOUS
10
0.122405
20
-0.196471
11
0.120725
21
-0.195643
0
LINE
8
BLACK
6
CONTINUOUS
10
0.120725
20
-0.195643
11
0.0934085
21
-0.168326
0
LINE
8
BLACK
6
CONTINUOUS
10
0.0934085
20
-0.168326
11
0.0931807
21
-0.168069
0
LINE
8
BLACK
6
CONTINUOUS
10
0.0931807
20
-0.168069
11
0.0924133
21
-0.167096
0
LINE
8
BLACK
6
CONTINUOUS
10
0.0924133
20
-0.167096
11
0.0924132
21
-0.167096
0
LINE
8
BLACK
6
CONTINUOUS
10
0.0924132
20
-0.167096
11
0.0922784
21
-0.166925
0
LINE
8
BLACK
6
CONTINUOUS
10
0.0922784
20
-0.166925
11
0.0903521
21
-0.165593
0
LINE
8
BLACK
6
CONTINUOUS
10
0.0903521
20
-0.165593
11
0.0902776
21
-0.16554
0
LINE
8
BLACK
6
CONTINUOUS
10
0.0902776
20
-0.16554
11
0.0885683
21
-0.164278
0
LINE
8
BLACK
6
CONTINUOUS
10
0.0885683
20
-0.164278
11
0.0885681
21
-0.164278
0
LINE
8
BLACK
6
CONTINUOUS
10
0.0885681
20
-0.164278
11
0.0883931
21
-0.164148
0
LINE
8
BLACK
6
CONTINUOUS
10
0.0883931
20
-0.164148
11
0.0881936
21
-0.164078
0
LINE
8
BLACK
6
CONTINUOUS
10
0.0881936
20
-0.164078
11
0.0881817
21
-0.164071
0
LINE
8
BLACK
6
CONTINUOUS
10
0.0881817
20
-0.164071
11
0.0881715
21
-0.164066
0
LINE
8
BLACK
6
CONTINUOUS
10
0.0881715
20
-0.164066
11
0.0880903
21
-0.164025
0
LINE
8
BLACK
6
CONTINUOUS
10
0.0880903
20
-0.164025
11
0.0880783
21
-0.164018
0
LINE
8
BLACK
6
CONTINUOUS
10
0.0880783
20
-0.164018
11
0.0880648
21
-0.164013
0
LINE
8
BLACK
6
CONTINUOUS
10
0.0880648
20
-0.164013
11
0.087891
21
-0.163892
0
LINE
8
BLACK
6
CONTINUOUS
10
0.087891
20
-0.163892
11
0.0856587
21
-0.163186
0
LINE
8
BLACK
6
CONTINUOUS
10
0.0856587
20
-0.163186
11
0.085572
21
-0.163158
0
LINE
8
BLACK
6
CONTINUOUS
10
0.085572
20
-0.163158
11
0.0835666
21
-0.162453
0
LINE
8
BLACK
6
CONTINUOUS
10
0.0835666
20
-0.162453
11
0.0835666
21
-0.162453
0
LINE
8
BLACK
6
CONTINUOUS
10
0.0835666
20
-0.162453
11
0.083361
21
-0.162381
0
LINE
8
BLACK
6
CONTINUOUS
10
0.083361
20
-0.162381
11
0.0831498
21
-0.162373
0
LINE
8
BLACK
6
CONTINUOUS
10
0.0831498
20
-0.162373
11
0.0831097
21
-0.162363
0
LINE
8
BLACK
6
CONTINUOUS
10
0.0831097
20
-0.162363
11
0.0829644
21
-0.162334
0
LINE
8
BLACK
6
CONTINUOUS
10
0.0829644
20
-0.162334
11
0.0828059
21
-0.162284
0
LINE
8
BLACK
6
CONTINUOUS
10
0.0828059
20
-0.162284
11
0.0825458
21
-0.162264
0
LINE
8
BLACK
6
CONTINUOUS
10
0.0825458
20
-0.162264
11
0.0804315
21
-0.162264
0
LINE
8
BLACK
6
CONTINUOUS
10
0.0804315
20
-0.162264
11
0.0803171
21
-0.162262
0
LINE
8
BLACK
6
CONTINUOUS
10
0.0803171
20
-0.162262
11
0.0782492
21
-0.16218
0
LINE
8
BLACK
6
CONTINUOUS
10
0.0782492
20
-0.16218
11
0.0780317
21
-0.162172
0
LINE
8
BLACK
6
CONTINUOUS
10
0.0780317
20
-0.162172
11
0.0778214
21
-0.162227
0
LINE
8
BLACK
6
CONTINUOUS
10
0.0778214
20
-0.162227
11
0.0776521
21
-0.162246
0
LINE
8
BLACK
6
CONTINUOUS
10
0.0776521
20
-0.162246
11
0.0773325
21
-0.162264
0
LINE
8
BLACK
6
CONTINUOUS
10
0.0773325
20
-0.162264
11
-0.131447
21
-0.162264
0
LINE
8
BLACK
6
CONTINUOUS
10
-0.131447
20
-0.162264
11
-0.133319
21
-0.161582
0
LINE
8
BLACK
6
CONTINUOUS
10
-0.133319
20
-0.161582
11
-0.133507
21
-0.16141
0
LINE
8
BLACK
6
CONTINUOUS
10
-0.133507
20
-0.16141
11
-0.270229
21
-0.0246878
0
LINE
8
BLACK
6
CONTINUOUS
10
-0.270229
20
-0.0246878
11
-0.271072
21
-0.0228817
0
LINE
8
BLACK
6
CONTINUOUS
10
0.185844
20
-0.139156
11
0.188455
21
-0.1409
0
LINE
8
BLACK
6
CONTINUOUS
10
0.188455
20
-0.1409
11
0.190208
21
-0.141249
0
LINE
8
BLACK
6
CONTINUOUS
10
0.190208
20
-0.141249
11
0.190617
21
-0.14133
0
LINE
8
BLACK
6
CONTINUOUS
10
0.190617
20
-0.14133
11
0.190617
21
-0.14133
0
LINE
8
BLACK
6
CONTINUOUS
10
0.190617
20
-0.14133
11
0.190758
21
-0.141358
0
LINE
8
BLACK
6
CONTINUOUS
10
0.190758
20
-0.141358
11
0.259242
21
-0.141358
0
LINE
8
BLACK
6
CONTINUOUS
10
0.259242
20
-0.141358
11
0.259383
21
-0.14133
0
LINE
8
BLACK
6
CONTINUOUS
10
0.259383
20
-0.14133
11
0.259383
21
-0.14133
0
LINE
8
BLACK
6
CONTINUOUS
10
0.259383
20
-0.14133
11
0.259792
21
-0.141249
0
LINE
8
BLACK
6
CONTINUOUS
10
0.259792
20
-0.141249
11
0.261545
21
-0.1409
0
LINE
8
BLACK
6
CONTINUOUS
10
0.261545
20
-0.1409
11
0.264156
21
-0.139156
0
LINE
8
BLACK
6
CONTINUOUS
10
0.264156
20
-0.139156
11
0.2659
21
-0.136545
0
LINE
8
BLACK
6
CONTINUOUS
10
0.2659
20
-0.136545
11
0.266358
21
-0.134242
0
LINE
8
BLACK
6
CONTINUOUS
10
0.266358
20
-0.134242
11
0.266358
21
-0.065758
0
LINE
8
BLACK
6
CONTINUOUS
10
0.266358
20
-0.065758
11
0.2659
21
-0.0634555
0
LINE
8
BLACK
6
CONTINUOUS
10
0.2659
20
-0.0634555
11
0.264156
21
-0.0608444
0
LINE
8
BLACK
6
CONTINUOUS
10
0.264156
20
-0.0608444
11
0.261545
21
-0.0590997
0
LINE
8
BLACK
6
CONTINUOUS
10
0.261545
20
-0.0590997
11
0.259792
21
-0.058751
0
LINE
8
BLACK
6
CONTINUOUS
10
0.259792
20
-0.058751
11
0.259383
21
-0.0586697
0
LINE
8
BLACK
6
CONTINUOUS
10
0.259383
20
-0.0586697
11
0.259383
21
-0.0586697
0
LINE
8
BLACK
6
CONTINUOUS
10
0.259383
20
-0.0586697
11
0.259242
21
-0.0586417
0
LINE
8
BLACK
6
CONTINUOUS
10
0.259242
20
-0.0586417
11
0.190758
21
-0.0586417
0
LINE
8
BLACK
6
CONTINUOUS
10
0.190758
20
-0.0586417
11
0.190617
21
-0.0586697
0
LINE
8
BLACK
6
CONTINUOUS
10
0.190617
20
-0.0586697
11
0.190617
21
-0.0586697
0
LINE
8
BLACK
6
CONTINUOUS
10
0.190617
20
-0.0586697
11
0.190208
21
-0.058751
0
LINE
8
BLACK
6
CONTINUOUS
10
0.190208
20
-0.058751
11
0.188455
21
-0.0590997
0
LINE
8
BLACK
6
CONTINUOUS
10
0.188455
20
-0.0590997
11
0.185844
21
-0.0608444
0
LINE
8
BLACK
6
CONTINUOUS
10
0.185844
20
-0.0608444
11
0.1841
21
-0.0634555
0
LINE
8
BLACK
6
CONTINUOUS
10
0.1841
20
-0.0634555
11
0.183642
21
-0.065758
0
LINE
8
BLACK
6
CONTINUOUS
10
0.183642
20
-0.065758
11
0.183642
21
-0.134242
0
LINE
8
BLACK
6
CONTINUOUS
10
0.183642
20
-0.134242
11
0.1841
21
-0.136545
0
LINE
8
BLACK
6
CONTINUOUS
10
0.1841
20
-0.136545
11
0.185844
21
-0.139156
0
LINE
8
BLACK
6
CONTINUOUS
10
0.173781
20
0.0840739
11
0.173852
21
0.0838463
0
LINE
8
BLACK
6
CONTINUOUS
10
0.173852
20
0.0838463
11
0.17707
21
0.0759224
0
LINE
8
BLACK
6
CONTINUOUS
10
0.17707
20
0.0759224
11
0.177177
21
0.0757093
0
LINE
8
BLACK
6
CONTINUOUS
10
0.177177
20
0.0757093
11
0.181646
21
0.0684174
0
LINE
8
BLACK
6
CONTINUOUS
10
0.181646
20
0.0684174
11
0.181787
21
0.0682248
0
LINE
8
BLACK
6
CONTINUOUS
10
0.181787
20
0.0682248
11
0.187386
21
0.0617604
0
LINE
8
BLACK
6
CONTINUOUS
10
0.187386
20
0.0617604
11
0.187556
21
0.0615939
0
LINE
8
BLACK
6
CONTINUOUS
10
0.187556
20
0.0615939
11
0.194137
21
0.0561306
0
LINE
8
BLACK
6
CONTINUOUS
10
0.194137
20
0.0561306
11
0.194332
21
0.0559939
0
LINE
8
BLACK
6
CONTINUOUS
10
0.194332
20
0.0559939
11
0.201716
21
0.0516791
0
LINE
8
BLACK
6
CONTINUOUS
10
0.201716
20
0.0516791
11
0.201931
21
0.051576
0
LINE
8
BLACK
6
CONTINUOUS
10
0.201931
20
0.051576
11
0.209921
21
0.0485251
0
LINE
8
BLACK
6
CONTINUOUS
10
0.209921
20
0.0485251
11
0.21015
21
0.0484584
0
LINE
8
BLACK
6
CONTINUOUS
10
0.21015
20
0.0484584
11
0.218531
21
0.0467534
0
LINE
8
BLACK
6
CONTINUOUS
10
0.218531
20
0.0467534
11
0.218646
21
0.0467396
0
LINE
8
BLACK
6
CONTINUOUS
10
0.218646
20
0.0467396
11
0.220425
21
0.0458411
0
LINE
8
BLACK
6
CONTINUOUS
10
0.220425
20
0.0458411
11
0.22121
21
0.0440094
0
LINE
8
BLACK
6
CONTINUOUS
10
0.22121
20
0.0440094
11
0.220634
21
0.0421016
0
LINE
8
BLACK
6
CONTINUOUS
10
0.220634
20
0.0421016
11
0.218967
21
0.0410104
0
LINE
8
BLACK
6
CONTINUOUS
10
0.218967
20
0.0410104
11
0.218566
21
0.0409454
0
LINE
8
BLACK
6
CONTINUOUS
10
0.218566
20
0.0409454
11
0.217213
21
0.0408223
0
LINE
8
BLACK
6
CONTINUOUS
10
0.217213
20
0.0408223
11
0.215285
21
0.040255
0
LINE
8
BLACK
6
CONTINUOUS
10
0.215285
20
0.040255
11
0.209569
21
0.0385725
0
LINE
8
BLACK
6
CONTINUOUS
10
0.209569
20
0.0385725
11
0.209568
21
0.0385724
0
LINE
8
BLACK
6
CONTINUOUS
10
0.209568
20
0.0385724
11
0.209432
21
0.0385323
0
LINE
8
BLACK
6
CONTINUOUS
10
0.209432
20
0.0385323
11
0.205883
21
0.036677
0
LINE
8
BLACK
6
CONTINUOUS
10
0.205883
20
0.036677
11
0.20237
21
0.0348406
0
LINE
8
BLACK
6
CONTINUOUS
10
0.20237
20
0.0348406
11
0.20237
21
0.0348405
0
LINE
8
BLACK
6
CONTINUOUS
10
0.20237
20
0.0348405
11
0.202244
21
0.0347746
0
LINE
8
BLACK
6
CONTINUOUS
10
0.202244
20
0.0347746
11
0.202133
21
0.0346854
0
LINE
8
BLACK
6
CONTINUOUS
10
0.202133
20
0.0346854
11
0.202133
21
0.0346853
0
LINE
8
BLACK
6
CONTINUOUS
10
0.202133
20
0.0346853
11
0.196034
21
0.0297816
0
LINE
8
BLACK
6
CONTINUOUS
10
0.196034
20
0.0297816
11
0.196034
21
0.0297815
0
LINE
8
BLACK
6
CONTINUOUS
10
0.196034
20
0.0297815
11
0.195923
21
0.0296923
0
LINE
8
BLACK
6
CONTINUOUS
10
0.195923
20
0.0296923
11
0.195832
21
0.0295832
0
LINE
8
BLACK
6
CONTINUOUS
10
0.195832
20
0.0295832
11
0.195831
21
0.0295831
0
LINE
8
BLACK
6
CONTINUOUS
10
0.195831
20
0.0295831
11
0.190801
21
0.0235883
0
LINE
8
BLACK
6
CONTINUOUS
10
0.190801
20
0.0235883
11
0.190801
21
0.0235882
0
LINE
8
BLACK
6
CONTINUOUS
10
0.190801
20
0.0235882
11
0.19071
21
0.0234791
0
LINE
8
BLACK
6
CONTINUOUS
10
0.19071
20
0.0234791
11
0.186802
21
0.0163716
0
LINE
8
BLACK
6
CONTINUOUS
10
0.186802
20
0.0163716
11
0.186759
21
0.0162358
0
LINE
8
BLACK
6
CONTINUOUS
10
0.186759
20
0.0162358
11
0.184501
21
0.00911665
0
LINE
8
BLACK
6
CONTINUOUS
10
0.184501
20
0.00911665
11
0.18435
21
0.00864047
0
LINE
8
BLACK
6
CONTINUOUS
10
0.18435
20
0.00864047
11
0.184334
21
0.00849909
0
LINE
8
BLACK
6
CONTINUOUS
10
0.184334
20
0.00849909
11
0.184334
21
0.00849906
0
LINE
8
BLACK
6
CONTINUOUS
10
0.184334
20
0.00849906
11
0.18427
21
0.00793031
0
LINE
8
BLACK
6
CONTINUOUS
10
0.18427
20
0.00793031
11
0.183446
21
0.000580236
0
LINE
8
BLACK
6
CONTINUOUS
10
0.183446
20
0.000580236
11
0.183458
21
0.00043815
0
LINE
8
BLACK
6
CONTINUOUS
10
0.183458
20
0.00043815
11
0.183458
21
0.000438071
0
LINE
8
BLACK
6
CONTINUOUS
10
0.183458
20
0.000438071
11
0.183969
21
-0.00564583
0
LINE
8
BLACK
6
CONTINUOUS
10
0.183969
20
-0.00564583
11
0.184124
21
-0.00750209
0
LINE
8
BLACK
6
CONTINUOUS
10
0.184124
20
-0.00750209
11
0.18636
21
-0.0152987
0
LINE
8
BLACK
6
CONTINUOUS
10
0.18636
20
-0.0152987
11
0.186425
21
-0.0154252
0
LINE
8
BLACK
6
CONTINUOUS
10
0.186425
20
-0.0154252
11
0.186425
21
-0.0154253
0
LINE
8
BLACK
6
CONTINUOUS
10
0.186425
20
-0.0154253
11
0.189437
21
-0.0212852
0
LINE
8
BLACK
6
CONTINUOUS
10
0.189437
20
-0.0212852
11
0.190067
21
-0.0225125
0
LINE
8
BLACK
6
CONTINUOUS
10
0.190067
20
-0.0225125
11
0.195105
21
-0.0288689
0
LINE
8
BLACK
6
CONTINUOUS
10
0.195105
20
-0.0288689
11
0.195214
21
-0.0289611
0
LINE
8
BLACK
6
CONTINUOUS
10
0.195214
20
-0.0289611
11
0.195214
21
-0.0289613
0
LINE
8
BLACK
6
CONTINUOUS
10
0.195214
20
-0.0289613
11
0.196381
21
-0.0299547
0
LINE
8
BLACK
6
CONTINUOUS
10
0.196381
20
-0.0299547
11
0.201282
21
-0.0341256
0
LINE
8
BLACK
6
CONTINUOUS
10
0.201282
20
-0.0341256
11
0.203121
21
-0.0351532
0
LINE
8
BLACK
6
CONTINUOUS
10
0.203121
20
-0.0351532
11
0.208238
21
-0.0380131
0
LINE
8
BLACK
6
CONTINUOUS
10
0.208238
20
-0.0380131
11
0.208238
21
-0.0380131
0
LINE
8
BLACK
6
CONTINUOUS
10
0.208238
20
-0.0380131
11
0.208362
21
-0.0380826
0
LINE
8
BLACK
6
CONTINUOUS
10
0.208362
20
-0.0380826
11
0.208497
21
-0.0381265
0
LINE
8
BLACK
6
CONTINUOUS
10
0.208497
20
-0.0381265
11
0.208498
21
-0.0381266
0
LINE
8
BLACK
6
CONTINUOUS
10
0.208498
20
-0.0381266
11
0.211521
21
-0.0391091
0
LINE
8
BLACK
6
CONTINUOUS
10
0.211521
20
-0.0391091
11
0.216076
21
-0.0405889
0
LINE
8
BLACK
6
CONTINUOUS
10
0.216076
20
-0.0405889
11
0.21859
21
-0.0408887
0
LINE
8
BLACK
6
CONTINUOUS
10
0.21859
20
-0.0408887
11
0.223988
21
-0.0415324
0
LINE
8
BLACK
6
CONTINUOUS
10
0.223988
20
-0.0415324
11
0.223988
21
-0.0415324
0
LINE
8
BLACK
6
CONTINUOUS
10
0.223988
20
-0.0415324
11
0.22413
21
-0.0415493
0
LINE
8
BLACK
6
CONTINUOUS
10
0.22413
20
-0.0415493
11
0.227851
21
-0.041263
0
LINE
8
BLACK
6
CONTINUOUS
10
0.227851
20
-0.041263
11
0.232074
21
-0.040938
0
LINE
8
BLACK
6
CONTINUOUS
10
0.232074
20
-0.040938
11
0.232074
21
-0.040938
0
LINE
8
BLACK
6
CONTINUOUS
10
0.232074
20
-0.040938
11
0.232217
21
-0.040927
0
LINE
8
BLACK
6
CONTINUOUS
10
0.232217
20
-0.040927
11
0.240029
21
-0.0387459
0
LINE
8
BLACK
6
CONTINUOUS
10
0.240029
20
-0.0387459
11
0.241254
21
-0.0381266
0
LINE
8
BLACK
6
CONTINUOUS
10
0.241254
20
-0.0381266
11
0.247141
21
-0.0351532
0
LINE
8
BLACK
6
CONTINUOUS
10
0.247141
20
-0.0351532
11
0.247141
21
-0.0351531
0
LINE
8
BLACK
6
CONTINUOUS
10
0.247141
20
-0.0351531
11
0.247268
21
-0.0350889
0
LINE
8
BLACK
6
CONTINUOUS
10
0.247268
20
-0.0350889
11
0.253659
21
-0.0300954
0
LINE
8
BLACK
6
CONTINUOUS
10
0.253659
20
-0.0300954
11
0.258959
21
-0.0239556
0
LINE
8
BLACK
6
CONTINUOUS
10
0.258959
20
-0.0239556
11
0.259029
21
-0.023832
0
LINE
8
BLACK
6
CONTINUOUS
10
0.259029
20
-0.023832
11
0.25903
21
-0.0238319
0
LINE
8
BLACK
6
CONTINUOUS
10
0.25903
20
-0.0238319
11
0.261338
21
-0.0197687
0
LINE
8
BLACK
6
CONTINUOUS
10
0.261338
20
-0.0197687
11
0.262965
21
-0.0169033
0
LINE
8
BLACK
6
CONTINUOUS
10
0.262965
20
-0.0169033
11
0.263457
21
-0.0154253
0
LINE
8
BLACK
6
CONTINUOUS
10
0.263457
20
-0.0154253
11
0.265481
21
-0.00934248
0
LINE
8
BLACK
6
CONTINUOUS
10
0.265481
20
-0.00934248
11
0.265526
21
-0.0092072
0
LINE
8
BLACK
6
CONTINUOUS
10
0.265526
20
-0.0092072
11
0.265657
21
-0.00817122
0
LINE
8
BLACK
6
CONTINUOUS
10
0.265657
20
-0.00817122
11
0.266532
21
-0.00124091
0
LINE
8
BLACK
6
CONTINUOUS
10
0.266532
20
-0.00124091
11
0.266532
21
-0.00124067
0
LINE
8
BLACK
6
CONTINUOUS
10
0.266532
20
-0.00124067
11
0.266542
21
-0.00116039
0
LINE
8
BLACK
6
CONTINUOUS
10
0.266542
20
-0.00116039
11
0.266558
21
0
0
LINE
8
BLACK
6
CONTINUOUS
10
0.266558
20
0
11
0.266365
21
0.0019698
0
LINE
8
BLACK
6
CONTINUOUS
10
0.266365
20
0.0019698
11
0.265781
21
0.00793031
0
LINE
8
BLACK
6
CONTINUOUS
10
0.265781
20
0.00793031
11
0.265767
21
0.00807205
0
LINE
8
BLACK
6
CONTINUOUS
10
0.265767
20
0.00807205
11
0.263423
21
0.0158367
0
LINE
8
BLACK
6
CONTINUOUS
10
0.263423
20
0.0158367
11
0.259615
21
0.0229981
0
LINE
8
BLACK
6
CONTINUOUS
10
0.259615
20
0.0229981
11
0.254489
21
0.0292835
0
LINE
8
BLACK
6
CONTINUOUS
10
0.254489
20
0.0292835
11
0.249346
21
0.0335376
0
LINE
8
BLACK
6
CONTINUOUS
10
0.249346
20
0.0335376
11
0.248349
21
0.0343624
0
LINE
8
BLACK
6
CONTINUOUS
10
0.248349
20
0.0343624
11
0.248349
21
0.0343625
0
LINE
8
BLACK
6
CONTINUOUS
10
0.248349
20
0.0343625
11
0.248239
21
0.0344535
0
LINE
8
BLACK
6
CONTINUOUS
10
0.248239
20
0.0344535
11
0.247857
21
0.0346602
0
LINE
8
BLACK
6
CONTINUOUS
10
0.247857
20
0.0346602
11
0.24123
21
0.0382434
0
LINE
8
BLACK
6
CONTINUOUS
10
0.24123
20
0.0382434
11
0.241105
21
0.0383111
0
LINE
8
BLACK
6
CONTINUOUS
10
0.241105
20
0.0383111
11
0.240969
21
0.0383532
0
LINE
8
BLACK
6
CONTINUOUS
10
0.240969
20
0.0383532
11
0.240969
21
0.0383533
0
LINE
8
BLACK
6
CONTINUOUS
10
0.240969
20
0.0383533
11
0.236063
21
0.0398718
0
LINE
8
BLACK
6
CONTINUOUS
10
0.236063
20
0.0398718
11
0.233356
21
0.0407096
0
LINE
8
BLACK
6
CONTINUOUS
10
0.233356
20
0.0407096
11
0.231808
21
0.0408723
0
LINE
8
BLACK
6
CONTINUOUS
10
0.231808
20
0.0408723
11
0.230522
21
0.0410075
0
LINE
8
BLACK
6
CONTINUOUS
10
0.230522
20
0.0410075
11
0.228731
21
0.0418811
0
LINE
8
BLACK
6
CONTINUOUS
10
0.228731
20
0.0418811
11
0.22792
21
0.0437017
0
LINE
8
BLACK
6
CONTINUOUS
10
0.22792
20
0.0437017
11
0.22847
21
0.0456174
0
LINE
8
BLACK
6
CONTINUOUS
10
0.22847
20
0.0456174
11
0.230122
21
0.0467318
0
LINE
8
BLACK
6
CONTINUOUS
10
0.230122
20
0.0467318
11
0.230456
21
0.0467947
0
LINE
8
BLACK
6
CONTINUOUS
10
0.230456
20
0.0467947
11
0.236036
21
0.0475093
0
LINE
8
BLACK
6
CONTINUOUS
10
0.236036
20
0.0475093
11
0.236268
21
0.0475588
0
LINE
8
BLACK
6
CONTINUOUS
10
0.236268
20
0.0475588
11
0.24446
21
0.0500166
0
LINE
8
BLACK
6
CONTINUOUS
10
0.24446
20
0.0500166
11
0.244682
21
0.0501035
0
LINE
8
BLACK
6
CONTINUOUS
10
0.244682
20
0.0501035
11
0.252363
21
0.0538661
0
LINE
8
BLACK
6
CONTINUOUS
10
0.252363
20
0.0538661
11
0.252567
21
0.0539881
0
LINE
8
BLACK
6
CONTINUOUS
10
0.252567
20
0.0539881
11
0.25953
21
0.0589548
0
LINE
8
BLACK
6
CONTINUOUS
10
0.25953
20
0.0589548
11
0.259712
21
0.0591081
0
LINE
8
BLACK
6
CONTINUOUS
10
0.259712
20
0.0591081
11
0.26577
21
0.0651453
0
LINE
8
BLACK
6
CONTINUOUS
10
0.26577
20
0.0651453
11
0.265925
21
0.0653271
0
LINE
8
BLACK
6
CONTINUOUS
10
0.265925
20
0.0653271
11
0.270915
21
0.0722722
0
LINE
8
BLACK
6
CONTINUOUS
10
0.270915
20
0.0722722
11
0.271038
21
0.0724765
0
LINE
8
BLACK
6
CONTINUOUS
10
0.271038
20
0.0724765
11
0.274827
21
0.0801435
0
LINE
8
BLACK
6
CONTINUOUS
10
0.274827
20
0.0801435
11
0.274915
21
0.0803656
0
LINE
8
BLACK
6
CONTINUOUS
10
0.274915
20
0.0803656
11
0.277401
21
0.0885483
0
LINE
8
BLACK
6
CONTINUOUS
10
0.277401
20
0.0885483
11
0.277452
21
0.0887816
0
LINE
8
BLACK
6
CONTINUOUS
10
0.277452
20
0.0887816
11
0.277545
21
0.0894907
0
LINE
8
BLACK
6
CONTINUOUS
10
0.277545
20
0.0894907
11
0.277455
21
0.0898996
0
LINE
8
BLACK
6
CONTINUOUS
10
0.277455
20
0.0898996
11
0.277324
21
0.09
0
LINE
8
BLACK
6
CONTINUOUS
10
0.277324
20
0.09
11
0.256745
21
0.09
0
LINE
8
BLACK
6
CONTINUOUS
10
0.256745
20
0.09
11
0.255571
21
0.0863887
0
LINE
8
BLACK
6
CONTINUOUS
10
0.255571
20
0.0863887
11
0.252073
21
0.08033
0
LINE
8
BLACK
6
CONTINUOUS
10
0.252073
20
0.08033
11
0.247392
21
0.075131
0
LINE
8
BLACK
6
CONTINUOUS
10
0.247392
20
0.075131
11
0.241732
21
0.0710188
0
LINE
8
BLACK
6
CONTINUOUS
10
0.241732
20
0.0710188
11
0.235341
21
0.0681733
0
LINE
8
BLACK
6
CONTINUOUS
10
0.235341
20
0.0681733
11
0.228498
21
0.0667187
0
LINE
8
BLACK
6
CONTINUOUS
10
0.228498
20
0.0667187
11
0.221502
21
0.0667187
0
LINE
8
BLACK
6
CONTINUOUS
10
0.221502
20
0.0667187
11
0.214659
21
0.0681733
0
LINE
8
BLACK
6
CONTINUOUS
10
0.214659
20
0.0681733
11
0.208268
21
0.0710188
0
LINE
8
BLACK
6
CONTINUOUS
10
0.208268
20
0.0710188
11
0.202608
21
0.075131
0
LINE
8
BLACK
6
CONTINUOUS
10
0.202608
20
0.075131
11
0.197927
21
0.08033
0
LINE
8
BLACK
6
CONTINUOUS
10
0.197927
20
0.08033
11
0.194429
21
0.0863887
0
LINE
8
BLACK
6
CONTINUOUS
10
0.194429
20
0.0863887
11
0.193255
21
0.09
0
LINE
8
BLACK
6
CONTINUOUS
10
0.193255
20
0.09
11
0.172959
21
0.09
0
LINE
8
BLACK
6
CONTINUOUS
10
0.172959
20
0.09
11
0.172565
21
0.0898568
0
LINE
8
BLACK
6
CONTINUOUS
10
0.172565
20
0.0898568
11
0.172508
21
0.0897572
0
LINE
8
BLACK
6
CONTINUOUS
10
0.172508
20
0.0897572
11
0.172509
21
0.0897176
0
LINE
8
BLACK
6
CONTINUOUS
10
0.172509
20
0.0897176
11
0.173781
21
0.0840739
0
LINE
8
BLACK
6
CONTINUOUS
10
0.172595
20
0.11
11
0.193255
21
0.11
0
LINE
8
BLACK
6
CONTINUOUS
10
0.193255
20
0.11
11
0.194429
21
0.113611
0
LINE
8
BLACK
6
CONTINUOUS
10
0.194429
20
0.113611
11
0.197927
21
0.11967
0
LINE
8
BLACK
6
CONTINUOUS
10
0.197927
20
0.11967
11
0.202608
21
0.124869
0
LINE
8
BLACK
6
CONTINUOUS
10
0.202608
20
0.124869
11
0.208268
21
0.128981
0
LINE
8
BLACK
6
CONTINUOUS
10
0.208268
20
0.128981
11
0.214659
21
0.131827
0
LINE
8
BLACK
6
CONTINUOUS
10
0.214659
20
0.131827
11
0.215
21
0.131899
0
LINE
8
BLACK
6
CONTINUOUS
10
0.215
20
0.131899
11
0.215
21
0.152046
0
LINE
8
BLACK
6
CONTINUOUS
10
0.215
20
0.152046
11
0.214857
21
0.152439
0
LINE
8
BLACK
6
CONTINUOUS
10
0.214857
20
0.152439
11
0.214722
21
0.152517
0
LINE
8
BLACK
6
CONTINUOUS
10
0.214722
20
0.152517
11
0.212686
21
0.152205
0
LINE
8
BLACK
6
CONTINUOUS
10
0.212686
20
0.152205
11
0.212453
21
0.15215
0
LINE
8
BLACK
6
CONTINUOUS
10
0.212453
20
0.15215
11
0.204324
21
0.149493
0
LINE
8
BLACK
6
CONTINUOUS
10
0.204324
20
0.149493
11
0.204105
21
0.149401
0
LINE
8
BLACK
6
CONTINUOUS
10
0.204105
20
0.149401
11
0.196518
21
0.145452
0
LINE
8
BLACK
6
CONTINUOUS
10
0.196518
20
0.145452
11
0.196317
21
0.145325
0
LINE
8
BLACK
6
CONTINUOUS
10
0.196317
20
0.145325
11
0.189477
21
0.14019
0
LINE
8
BLACK
6
CONTINUOUS
10
0.189477
20
0.14019
11
0.189299
21
0.140031
0
LINE
8
BLACK
6
CONTINUOUS
10
0.189299
20
0.140031
11
0.18339
21
0.133848
0
LINE
8
BLACK
6
CONTINUOUS
10
0.18339
20
0.133848
11
0.18324
21
0.133663
0
LINE
8
BLACK
6
CONTINUOUS
10
0.18324
20
0.133663
11
0.178421
21
0.126598
0
LINE
8
BLACK
6
CONTINUOUS
10
0.178421
20
0.126598
11
0.178303
21
0.12639
0
LINE
8
BLACK
6
CONTINUOUS
10
0.178303
20
0.12639
11
0.174702
21
0.118633
0
LINE
8
BLACK
6
CONTINUOUS
10
0.174702
20
0.118633
11
0.17462
21
0.118409
0
LINE
8
BLACK
6
CONTINUOUS
10
0.17462
20
0.118409
11
0.172388
21
0.110362
0
LINE
8
BLACK
6
CONTINUOUS
10
0.172388
20
0.110362
11
0.172452
21
0.110104
0
LINE
8
BLACK
6
CONTINUOUS
10
0.172452
20
0.110104
11
0.172595
21
0.11
0
LINE
8
BLACK
6
CONTINUOUS
10
0.235093
20
0.152366
11
0.235
21
0.152255
0
LINE
8
BLACK
6
CONTINUOUS
10
0.235
20
0.152255
11
0.235
21
0.131899
0
LINE
8
BLACK
6
CONTINUOUS
10
0.235
20
0.131899
11
0.235341
21
0.131827
0
LINE
8
BLACK
6
CONTINUOUS
10
0.235341
20
0.131827
11
0.241732
21
0.128981
0
LINE
8
BLACK
6
CONTINUOUS
10
0.241732
20
0.128981
11
0.247392
21
0.124869
0
LINE
8
BLACK
6
CONTINUOUS
10
0.247392
20
0.124869
11
0.252073
21
0.11967
0
LINE
8
BLACK
6
CONTINUOUS
10
0.252073
20
0.11967
11
0.255571
21
0.113611
0
LINE
8
BLACK
6
CONTINUOUS
10
0.255571
20
0.113611
11
0.256745
21
0.11
0
LINE
8
BLACK
6
CONTINUOUS
10
0.256745
20
0.11
11
0.277103
21
0.11
0
LINE
8
BLACK
6
CONTINUOUS
10
0.277103
20
0.11
11
0.277496
21
0.110143
0
LINE
8
BLACK
6
CONTINUOUS
10
0.277496
20
0.110143
11
0.277544
21
0.110226
0
LINE
8
BLACK
6
CONTINUOUS
10
0.277544
20
0.110226
11
0.277542
21
0.110298
0
LINE
8
BLACK
6
CONTINUOUS
10
0.277542
20
0.110298
11
0.275815
21
0.117173
0
LINE
8
BLACK
6
CONTINUOUS
10
0.275815
20
0.117173
11
0.275738
21
0.117398
0
LINE
8
BLACK
6
CONTINUOUS
10
0.275738
20
0.117398
11
0.272328
21
0.125242
0
LINE
8
BLACK
6
CONTINUOUS
10
0.272328
20
0.125242
11
0.272215
21
0.125451
0
LINE
8
BLACK
6
CONTINUOUS
10
0.272215
20
0.125451
11
0.267569
21
0.132633
0
LINE
8
BLACK
6
CONTINUOUS
10
0.267569
20
0.132633
11
0.267424
21
0.132821
0
LINE
8
BLACK
6
CONTINUOUS
10
0.267424
20
0.132821
11
0.261668
21
0.139147
0
LINE
8
BLACK
6
CONTINUOUS
10
0.261668
20
0.139147
11
0.261494
21
0.13931
0
LINE
8
BLACK
6
CONTINUOUS
10
0.261494
20
0.13931
11
0.254782
21
0.14461
0
LINE
8
BLACK
6
CONTINUOUS
10
0.254782
20
0.14461
11
0.254584
21
0.144742
0
LINE
8
BLACK
6
CONTINUOUS
10
0.254584
20
0.144742
11
0.247096
21
0.148875
0
LINE
8
BLACK
6
CONTINUOUS
10
0.247096
20
0.148875
11
0.246879
21
0.148973
0
LINE
8
BLACK
6
CONTINUOUS
10
0.246879
20
0.148973
11
0.238817
21
0.151828
0
LINE
8
BLACK
6
CONTINUOUS
10
0.238817
20
0.151828
11
0.238586
21
0.151889
0
LINE
8
BLACK
6
CONTINUOUS
10
0.238586
20
0.151889
11
0.235506
21
0.152438
0
LINE
8
BLACK
6
CONTINUOUS
10
0.235506
20
0.152438
11
0.235093
21
0.152366
0
LINE
8
BLACK
6
CONTINUOUS
10
-0.330689
20
-0.301527
11
-0.330689
21
-0.24993
0
LINE
8
BLACK
6
CONTINUOUS
10
-0.330689
20
-0.24993
11
-0.330649
21
-0.249447
0
LINE
8
BLACK
6
CONTINUOUS
10
-0.330649
20
-0.249447
11
-0.330492
21
-0.248518
0
LINE
8
BLACK
6
CONTINUOUS
10
-0.330492
20
-0.248518
11
-0.330486
21
-0.248031
0
LINE
8
BLACK
6
CONTINUOUS
10
-0.330486
20
-0.248031
11
-0.330502
21
-0.24792
0
LINE
8
BLACK
6
CONTINUOUS
10
-0.330502
20
-0.24792
11
-0.330609
21
-0.247177
0
LINE
8
BLACK
6
CONTINUOUS
10
-0.330609
20
-0.247177
11
-0.330627
21
-0.247018
0
LINE
8
BLACK
6
CONTINUOUS
10
-0.330627
20
-0.247018
11
-0.33106
21
-0.242074
0
LINE
8
BLACK
6
CONTINUOUS
10
-0.33106
20
-0.242074
11
-0.331139
21
-0.241165
0
LINE
8
BLACK
6
CONTINUOUS
10
-0.331139
20
-0.241165
11
-0.332923
21
-0.234508
0
LINE
8
BLACK
6
CONTINUOUS
10
-0.332923
20
-0.234508
11
-0.334937
21
-0.230189
0
LINE
8
BLACK
6
CONTINUOUS
10
-0.334937
20
-0.230189
11
-0.335782
21
-0.228377
0
LINE
8
BLACK
6
CONTINUOUS
10
-0.335782
20
-0.228377
11
-0.335782
21
-0.228377
0
LINE
8
BLACK
6
CONTINUOUS
10
-0.335782
20
-0.228377
11
-0.335836
21
-0.228261
0
LINE
8
BLACK
6
CONTINUOUS
10
-0.335836
20
-0.228261
11
-0.339789
21
-0.222615
0
LINE
8
BLACK
6
CONTINUOUS
10
-0.339789
20
-0.222615
11
-0.344663
21
-0.217742
0
LINE
8
BLACK
6
CONTINUOUS
10
-0.344663
20
-0.217742
11
-0.350309
21
-0.213789
0
LINE
8
BLACK
6
CONTINUOUS
10
-0.350309
20
-0.213789
11
-0.356555
21
-0.210876
0
LINE
8
BLACK
6
CONTINUOUS
10
-0.356555
20
-0.210876
11
-0.363213
21
-0.209092
0
LINE
8
BLACK
6
CONTINUOUS
10
-0.363213
20
-0.209092
11
-0.363339
21
-0.209081
0
LINE
8
BLACK
6
CONTINUOUS
10
-0.363339
20
-0.209081
11
-0.363339
21
-0.209081
0
LINE
8
BLACK
6
CONTINUOUS
10
-0.363339
20
-0.209081
11
-0.368378
21
-0.20864
0
LINE
8
BLACK
6
CONTINUOUS
10
-0.368378
20
-0.20864
11
-0.368607
21
-0.208611
0
LINE
8
BLACK
6
CONTINUOUS
10
-0.368607
20
-0.208611
11
-0.369481
21
-0.208464
0
LINE
8
BLACK
6
CONTINUOUS
10
-0.369481
20
-0.208464
11
-0.369481
21
-0.208464
0
LINE
8
BLACK
6
CONTINUOUS
10
-0.369481
20
-0.208464
11
-0.369592
21
-0.208445
0
LINE
8
BLACK
6
CONTINUOUS
10
-0.369592
20
-0.208445
11
-0.369705
21
-0.208444
0
LINE
8
BLACK
6
CONTINUOUS
10
-0.369705
20
-0.208444
11
-0.369803
21
-0.208442
0
LINE
8
BLACK
6
CONTINUOUS
10
-0.369803
20
-0.208442
11
-0.370079
21
-0.208439
0
LINE
8
BLACK
6
CONTINUOUS
10
-0.370079
20
-0.208439
11
-0.370939
21
-0.208562
0
LINE
8
BLACK
6
CONTINUOUS
10
-0.370939
20
-0.208562
11
-0.371288
21
-0.208612
0
LINE
8
BLACK
6
CONTINUOUS
10
-0.371288
20
-0.208612
11
-0.371701
21
-0.208642
0
LINE
8
BLACK
6
CONTINUOUS
10
-0.371701
20
-0.208642
11
-0.415424
21
-0.208642
0
LINE
8
BLACK
6
CONTINUOUS
10
-0.415424
20
-0.208642
11
-0.415907
21
-0.208601
0
LINE
8
BLACK
6
CONTINUOUS
10
-0.415907
20
-0.208601
11
-0.416725
21
-0.208464
0
LINE
8
BLACK
6
CONTINUOUS
10
-0.416725
20
-0.208464
11
-0.416725
21
-0.208464
0
LINE
8
BLACK
6
CONTINUOUS
10
-0.416725
20
-0.208464
11
-0.416836
21
-0.208445
0
LINE
8
BLACK
6
CONTINUOUS
10
-0.416836
20
-0.208445
11
-0.416949
21
-0.208444
0
LINE
8
BLACK
6
CONTINUOUS
10
-0.416949
20
-0.208444
11
-0.416993
21
-0.208443
0
LINE
8
BLACK
6
CONTINUOUS
10
-0.416993
20
-0.208443
11
-0.417323
21
-0.208439
0
LINE
8
BLACK
6
CONTINUOUS
10
-0.417323
20
-0.208439
11
-0.417434
21
-0.208455
0
LINE
8
BLACK
6
CONTINUOUS
10
-0.417434
20
-0.208455
11
-0.417435
21
-0.208455
0
LINE
8
BLACK
6
CONTINUOUS
10
-0.417435
20
-0.208455
11
-0.418183
21
-0.208562
0
LINE
8
BLACK
6
CONTINUOUS
10
-0.418183
20
-0.208562
11
-0.418342
21
-0.208581
0
LINE
8
BLACK
6
CONTINUOUS
10
-0.418342
20
-0.208581
11
-0.424189
21
-0.209092
0
LINE
8
BLACK
6
CONTINUOUS
10
-0.424189
20
-0.209092
11
-0.430846
21
-0.210876
0
LINE
8
BLACK
6
CONTINUOUS
10
-0.430846
20
-0.210876
11
-0.430961
21
-0.21093
0
LINE
8
BLACK
6
CONTINUOUS
10
-0.430961
20
-0.21093
11
-0.430961
21
-0.21093
0
LINE
8
BLACK
6
CONTINUOUS
10
-0.430961
20
-0.21093
11
-0.436978
21
-0.213735
0
LINE
8
BLACK
6
CONTINUOUS
10
-0.436978
20
-0.213735
11
-0.436978
21
-0.213735
0
LINE
8
BLACK
6
CONTINUOUS
10
-0.436978
20
-0.213735
11
-0.437093
21
-0.213789
0
LINE
8
BLACK
6
CONTINUOUS
10
-0.437093
20
-0.213789
11
-0.437197
21
-0.213862
0
LINE
8
BLACK
6
CONTINUOUS
10
-0.437197
20
-0.213862
11
-0.442634
21
-0.217669
0
LINE
8
BLACK
6
CONTINUOUS
10
-0.442634
20
-0.217669
11
-0.442634
21
-0.217669
0
LINE
8
BLACK
6
CONTINUOUS
10
-0.442634
20
-0.217669
11
-0.442739
21
-0.217742
0
LINE
8
BLACK
6
CONTINUOUS
10
-0.442739
20
-0.217742
11
-0.447612
21
-0.222616
0
LINE
8
BLACK
6
CONTINUOUS
10
-0.447612
20
-0.222616
11
-0.44997
21
-0.225983
0
LINE
8
BLACK
6
CONTINUOUS
10
-0.44997
20
-0.225983
11
-0.451493
21
-0.228157
0
LINE
8
BLACK
6
CONTINUOUS
10
-0.451493
20
-0.228157
11
-0.451566
21
-0.228261
0
LINE
8
BLACK
6
CONTINUOUS
10
-0.451566
20
-0.228261
11
-0.451619
21
-0.228376
0
LINE
8
BLACK
6
CONTINUOUS
10
-0.451619
20
-0.228376
11
-0.451619
21
-0.228377
0
LINE
8
BLACK
6
CONTINUOUS
10
-0.451619
20
-0.228377
11
-0.453344
21
-0.232074
0
LINE
8
BLACK
6
CONTINUOUS
10
-0.453344
20
-0.232074
11
-0.454478
21
-0.234508
0
LINE
8
BLACK
6
CONTINUOUS
10
-0.454478
20
-0.234508
11
-0.456262
21
-0.241165
0
LINE
8
BLACK
6
CONTINUOUS
10
-0.456262
20
-0.241165
11
-0.456342
21
-0.242074
0
LINE
8
BLACK
6
CONTINUOUS
10
-0.456342
20
-0.242074
11
-0.456714
21
-0.24633
0
LINE
8
BLACK
6
CONTINUOUS
10
-0.456714
20
-0.24633
11
-0.456744
21
-0.24656
0
LINE
8
BLACK
6
CONTINUOUS
10
-0.456744
20
-0.24656
11
-0.456821
21
-0.247018
0
LINE
8
BLACK
6
CONTINUOUS
10
-0.456821
20
-0.247018
11
-0.456909
21
-0.247545
0
LINE
8
BLACK
6
CONTINUOUS
10
-0.456909
20
-0.247545
11
-0.456915
21
-0.248031
0
LINE
8
BLACK
6
CONTINUOUS
10
-0.456915
20
-0.248031
11
-0.456899
21
-0.248143
0
LINE
8
BLACK
6
CONTINUOUS
10
-0.456899
20
-0.248143
11
-0.456742
21
-0.249241
0
LINE
8
BLACK
6
CONTINUOUS
10
-0.456742
20
-0.249241
11
-0.456713
21
-0.249654
0
LINE
8
BLACK
6
CONTINUOUS
10
-0.456713
20
-0.249654
11
-0.456713
21
-0.301251
0
LINE
8
BLACK
6
CONTINUOUS
10
-0.456713
20
-0.301251
11
-0.456753
21
-0.301734
0
LINE
8
BLACK
6
CONTINUOUS
10
-0.456753
20
-0.301734
11
-0.456909
21
-0.302663
0
LINE
8
BLACK
6
CONTINUOUS
10
-0.456909
20
-0.302663
11
-0.456915
21
-0.303149
0
LINE
8
BLACK
6
CONTINUOUS
10
-0.456915
20
-0.303149
11
-0.456899
21
-0.303261
0
LINE
8
BLACK
6
CONTINUOUS
10
-0.456899
20
-0.303261
11
-0.456899
21
-0.303261
0
LINE
8
BLACK
6
CONTINUOUS
10
-0.456899
20
-0.303261
11
-0.456792
21
-0.30401
0
LINE
8
BLACK
6
CONTINUOUS
10
-0.456792
20
-0.30401
11
-0.456774
21
-0.304169
0
LINE
8
BLACK
6
CONTINUOUS
10
-0.456774
20
-0.304169
11
-0.456262
21
-0.310016
0
LINE
8
BLACK
6
CONTINUOUS
10
-0.456262
20
-0.310016
11
-0.454478
21
-0.316673
0
LINE
8
BLACK
6
CONTINUOUS
10
-0.454478
20
-0.316673
11
-0.451566
21
-0.32292
0
LINE
8
BLACK
6
CONTINUOUS
10
-0.451566
20
-0.32292
11
-0.447612
21
-0.328566
0
LINE
8
BLACK
6
CONTINUOUS
10
-0.447612
20
-0.328566
11
-0.442739
21
-0.333439
0
LINE
8
BLACK
6
CONTINUOUS
10
-0.442739
20
-0.333439
11
-0.437093
21
-0.337392
0
LINE
8
BLACK
6
CONTINUOUS
10
-0.437093
20
-0.337392
11
-0.436978
21
-0.337446
0
LINE
8
BLACK
6
CONTINUOUS
10
-0.436978
20
-0.337446
11
-0.436978
21
-0.337446
0
LINE
8
BLACK
6
CONTINUOUS
10
-0.436978
20
-0.337446
11
-0.431809
21
-0.339856
0
LINE
8
BLACK
6
CONTINUOUS
10
-0.431809
20
-0.339856
11
-0.430846
21
-0.340305
0
LINE
8
BLACK
6
CONTINUOUS
10
-0.430846
20
-0.340305
11
-0.424189
21
-0.342089
0
LINE
8
BLACK
6
CONTINUOUS
10
-0.424189
20
-0.342089
11
-0.424062
21
-0.3421
0
LINE
8
BLACK
6
CONTINUOUS
10
-0.424062
20
-0.3421
11
-0.424062
21
-0.3421
0
LINE
8
BLACK
6
CONTINUOUS
10
-0.424062
20
-0.3421
11
-0.419024
21
-0.342541
0
LINE
8
BLACK
6
CONTINUOUS
10
-0.419024
20
-0.342541
11
-0.418794
21
-0.34257
0
LINE
8
BLACK
6
CONTINUOUS
10
-0.418794
20
-0.34257
11
-0.41792
21
-0.342717
0
LINE
8
BLACK
6
CONTINUOUS
10
-0.41792
20
-0.342717
11
-0.41792
21
-0.342717
0
LINE
8
BLACK
6
CONTINUOUS
10
-0.41792
20
-0.342717
11
-0.417809
21
-0.342736
0
LINE
8
BLACK
6
CONTINUOUS
10
-0.417809
20
-0.342736
11
-0.417697
21
-0.342737
0
LINE
8
BLACK
6
CONTINUOUS
10
-0.417697
20
-0.342737
11
-0.417598
21
-0.342739
0
LINE
8
BLACK
6
CONTINUOUS
10
-0.417598
20
-0.342739
11
-0.417323
21
-0.342742
0
LINE
8
BLACK
6
CONTINUOUS
10
-0.417323
20
-0.342742
11
-0.416113
21
-0.342569
0
LINE
8
BLACK
6
CONTINUOUS
10
-0.416113
20
-0.342569
11
-0.4157
21
-0.342539
0
LINE
8
BLACK
6
CONTINUOUS
10
-0.4157
20
-0.342539
11
-0.371977
21
-0.342539
0
LINE
8
BLACK
6
CONTINUOUS
10
-0.371977
20
-0.342539
11
-0.371494
21
-0.34258
0
LINE
8
BLACK
6
CONTINUOUS
10
-0.371494
20
-0.34258
11
-0.370565
21
-0.342736
0
LINE
8
BLACK
6
CONTINUOUS
10
-0.370565
20
-0.342736
11
-0.370452
21
-0.342737
0
LINE
8
BLACK
6
CONTINUOUS
10
-0.370452
20
-0.342737
11
-0.370386
21
-0.342738
0
LINE
8
BLACK
6
CONTINUOUS
10
-0.370386
20
-0.342738
11
-0.370079
21
-0.342742
0
LINE
8
BLACK
6
CONTINUOUS
10
-0.370079
20
-0.342742
11
-0.369967
21
-0.342726
0
LINE
8
BLACK
6
CONTINUOUS
10
-0.369967
20
-0.342726
11
-0.369967
21
-0.342726
0
LINE
8
BLACK
6
CONTINUOUS
10
-0.369967
20
-0.342726
11
-0.369224
21
-0.34262
0
LINE
8
BLACK
6
CONTINUOUS
10
-0.369224
20
-0.34262
11
-0.369065
21
-0.342601
0
LINE
8
BLACK
6
CONTINUOUS
10
-0.369065
20
-0.342601
11
-0.366314
21
-0.342361
0
LINE
8
BLACK
6
CONTINUOUS
10
-0.366314
20
-0.342361
11
-0.363213
21
-0.342089
0
LINE
8
BLACK
6
CONTINUOUS
10
-0.363213
20
-0.342089
11
-0.356555
21
-0.340305
0
LINE
8
BLACK
6
CONTINUOUS
10
-0.356555
20
-0.340305
11
-0.354772
21
-0.339474
0
LINE
8
BLACK
6
CONTINUOUS
10
-0.354772
20
-0.339474
11
-0.350424
21
-0.337446
0
LINE
8
BLACK
6
CONTINUOUS
10
-0.350424
20
-0.337446
11
-0.350424
21
-0.337446
0
LINE
8
BLACK
6
CONTINUOUS
10
-0.350424
20
-0.337446
11
-0.350309
21
-0.337393
0
LINE
8
BLACK
6
CONTINUOUS
10
-0.350309
20
-0.337393
11
-0.344663
21
-0.333439
0
LINE
8
BLACK
6
CONTINUOUS
10
-0.344663
20
-0.333439
11
-0.339789
21
-0.328566
0
LINE
8
BLACK
6
CONTINUOUS
10
-0.339789
20
-0.328566
11
-0.335836
21
-0.32292
0
LINE
8
BLACK
6
CONTINUOUS
10
-0.335836
20
-0.32292
11
-0.332923
21
-0.316673
0
LINE
8
BLACK
6
CONTINUOUS
10
-0.332923
20
-0.316673
11
-0.331139
21
-0.310016
0
LINE
8
BLACK
6
CONTINUOUS
10
-0.331139
20
-0.310016
11
-0.330687
21
-0.304851
0
LINE
8
BLACK
6
CONTINUOUS
10
-0.330687
20
-0.304851
11
-0.330658
21
-0.304621
0
LINE
8
BLACK
6
CONTINUOUS
10
-0.330658
20
-0.304621
11
-0.330511
21
-0.303747
0
LINE
8
BLACK
6
CONTINUOUS
10
-0.330511
20
-0.303747
11
-0.330492
21
-0.303636
0
LINE
8
BLACK
6
CONTINUOUS
10
-0.330492
20
-0.303636
11
-0.330486
21
-0.303149
0
LINE
8
BLACK
6
CONTINUOUS
10
-0.330486
20
-0.303149
11
-0.33066
21
-0.30194
0
LINE
8
BLACK
6
CONTINUOUS
10
-0.33066
20
-0.30194
11
-0.330689
21
-0.301527
0
LINE
8
BLACK
6
CONTINUOUS
10
-0.536471
20
0.0124051
11
-0.536942
21
0.0159826
0
LINE
8
BLACK
6
CONTINUOUS
10
-0.536942
20
0.0159826
11
-0.536942
21
0.0159827
0
LINE
8
BLACK
6
CONTINUOUS
10
-0.536942
20
0.0159827
11
-0.536967
21
0.0161717
0
LINE
8
BLACK
6
CONTINUOUS
10
-0.536967
20
0.0161717
11
-0.539349
21
0.0219229
0
LINE
8
BLACK
6
CONTINUOUS
10
-0.539349
20
0.0219229
11
-0.539465
21
0.0220742
0
LINE
8
BLACK
6
CONTINUOUS
10
-0.539465
20
0.0220742
11
-0.539465
21
0.0220744
0
LINE
8
BLACK
6
CONTINUOUS
10
-0.539465
20
0.0220744
11
-0.543022
21
0.0267099
0
LINE
8
BLACK
6
CONTINUOUS
10
-0.543022
20
0.0267099
11
-0.543139
21
0.0268615
0
LINE
8
BLACK
6
CONTINUOUS
10
-0.543139
20
0.0268615
11
-0.546151
21
0.029173
0
LINE
8
BLACK
6
CONTINUOUS
10
-0.546151
20
0.029173
11
-0.547926
21
0.0305348
0
LINE
8
BLACK
6
CONTINUOUS
10
-0.547926
20
0.0305348
11
-0.547926
21
0.0305349
0
LINE
8
BLACK
6
CONTINUOUS
10
-0.547926
20
0.0305349
11
-0.548077
21
0.030651
0
LINE
8
BLACK
6
CONTINUOUS
10
-0.548077
20
0.030651
11
-0.553828
21
0.0330332
0
LINE
8
BLACK
6
CONTINUOUS
10
-0.553828
20
0.0330332
11
-0.554017
21
0.0330581
0
LINE
8
BLACK
6
CONTINUOUS
10
-0.554017
20
0.0330581
11
-0.554017
21
0.0330581
0
LINE
8
BLACK
6
CONTINUOUS
10
-0.554017
20
0.0330581
11
-0.559811
21
0.0338208
0
LINE
8
BLACK
6
CONTINUOUS
10
-0.559811
20
0.0338208
11
-0.56
21
0.0338457
0
LINE
8
BLACK
6
CONTINUOUS
10
-0.56
20
0.0338457
11
-0.560189
21
0.0338208
0
LINE
8
BLACK
6
CONTINUOUS
10
-0.560189
20
0.0338208
11
-0.565983
21
0.0330581
0
LINE
8
BLACK
6
CONTINUOUS
10
-0.565983
20
0.0330581
11
-0.565983
21
0.0330581
0
LINE
8
BLACK
6
CONTINUOUS
10
-0.565983
20
0.0330581
11
-0.566172
21
0.0330332
0
LINE
8
BLACK
6
CONTINUOUS
10
-0.566172
20
0.0330332
11
-0.571923
21
0.030651
0
LINE
8
BLACK
6
CONTINUOUS
10
-0.571923
20
0.030651
11
-0.572074
21
0.0305349
0
LINE
8
BLACK
6
CONTINUOUS
10
-0.572074
20
0.0305349
11
-0.572074
21
0.0305348
0
LINE
8
BLACK
6
CONTINUOUS
10
-0.572074
20
0.0305348
11
-0.573849
21
0.029173
0
LINE
8
BLACK
6
CONTINUOUS
10
-0.573849
20
0.029173
11
-0.576861
21
0.0268615
0
LINE
8
BLACK
6
CONTINUOUS
10
-0.576861
20
0.0268615
11
-0.576978
21
0.0267099
0
LINE
8
BLACK
6
CONTINUOUS
10
-0.576978
20
0.0267099
11
-0.580535
21
0.0220744
0
LINE
8
BLACK
6
CONTINUOUS
10
-0.580535
20
0.0220744
11
-0.580535
21
0.0220742
0
LINE
8
BLACK
6
CONTINUOUS
10
-0.580535
20
0.0220742
11
-0.580651
21
0.0219229
0
LINE
8
BLACK
6
CONTINUOUS
10
-0.580651
20
0.0219229
11
-0.583033
21
0.0161717
0
LINE
8
BLACK
6
CONTINUOUS
10
-0.583033
20
0.0161717
11
-0.583058
21
0.0159827
0
LINE
8
BLACK
6
CONTINUOUS
10
-0.583058
20
0.0159827
11
-0.583058
21
0.0159826
0
LINE
8
BLACK
6
CONTINUOUS
10
-0.583058
20
0.0159826
11
-0.583658
21
0.0114246
0
LINE
8
BLACK
6
CONTINUOUS
10
-0.583658
20
0.0114246
11
-0.583846
21
0.01
0
LINE
8
BLACK
6
CONTINUOUS
10
-0.583846
20
0.01
11
-0.583821
21
0.00981071
0
LINE
8
BLACK
6
CONTINUOUS
10
-0.583821
20
0.00981071
11
-0.583221
21
0.00525307
0
LINE
8
BLACK
6
CONTINUOUS
10
-0.583221
20
0.00525307
11
-0.583033
21
0.00382827
0
LINE
8
BLACK
6
CONTINUOUS
10
-0.583033
20
0.00382827
11
-0.580651
21
-0.00192287
0
LINE
8
BLACK
6
CONTINUOUS
10
-0.580651
20
-0.00192287
11
-0.580535
21
-0.00207421
0
LINE
8
BLACK
6
CONTINUOUS
10
-0.580535
20
-0.00207421
11
-0.580535
21
-0.00207437
0
LINE
8
BLACK
6
CONTINUOUS
10
-0.580535
20
-0.00207437
11
-0.576978
21
-0.00670988
0
LINE
8
BLACK
6
CONTINUOUS
10
-0.576978
20
-0.00670988
11
-0.576861
21
-0.0068615
0
LINE
8
BLACK
6
CONTINUOUS
10
-0.576861
20
-0.0068615
11
-0.57671
21
-0.00697783
0
LINE
8
BLACK
6
CONTINUOUS
10
-0.57671
20
-0.00697783
11
-0.572074
21
-0.0105348
0
LINE
8
BLACK
6
CONTINUOUS
10
-0.572074
20
-0.0105348
11
-0.572074
21
-0.0105349
0
LINE
8
BLACK
6
CONTINUOUS
10
-0.572074
20
-0.0105349
11
-0.571923
21
-0.010651
0
LINE
8
BLACK
6
CONTINUOUS
10
-0.571923
20
-0.010651
11
-0.566172
21
-0.0130332
0
LINE
8
BLACK
6
CONTINUOUS
10
-0.566172
20
-0.0130332
11
-0.565983
21
-0.0130581
0
LINE
8
BLACK
6
CONTINUOUS
10
-0.565983
20
-0.0130581
11
-0.565983
21
-0.0130581
0
LINE
8
BLACK
6
CONTINUOUS
10
-0.565983
20
-0.0130581
11
-0.563897
21
-0.0133328
0
LINE
8
BLACK
6
CONTINUOUS
10
-0.563897
20
-0.0133328
11
-0.562405
21
-0.0135291
0
LINE
8
BLACK
6
CONTINUOUS
10
-0.562405
20
-0.0135291
11
-0.560725
21
-0.0143575
0
LINE
8
BLACK
6
CONTINUOUS
10
-0.560725
20
-0.0143575
11
-0.555144
21
-0.0199386
0
LINE
8
BLACK
6
CONTINUOUS
10
-0.555144
20
-0.0199386
11
-0.554302
21
-0.0217447
0
LINE
8
BLACK
6
CONTINUOUS
10
-0.554302
20
-0.0217447
11
-0.554291
21
-0.0219987
0
LINE
8
BLACK
6
CONTINUOUS
10
-0.554291
20
-0.0219987
11
-0.554291
21
-0.209729
0
LINE
8
BLACK
6
CONTINUOUS
10
-0.554291
20
-0.209729
11
-0.554973
21
-0.211602
0
LINE
8
BLACK
6
CONTINUOUS
10
-0.554973
20
-0.211602
11
-0.555431
21
-0.212041
0
LINE
8
BLACK
6
CONTINUOUS
10
-0.555431
20
-0.212041
11
-0.556861
21
-0.213139
0
LINE
8
BLACK
6
CONTINUOUS
10
-0.556861
20
-0.213139
11
-0.556978
21
-0.21329
0
LINE
8
BLACK
6
CONTINUOUS
10
-0.556978
20
-0.21329
11
-0.560535
21
-0.217926
0
LINE
8
BLACK
6
CONTINUOUS
10
-0.560535
20
-0.217926
11
-0.560535
21
-0.217926
0
LINE
8
BLACK
6
CONTINUOUS
10
-0.560535
20
-0.217926
11
-0.560651
21
-0.218077
0
LINE
8
BLACK
6
CONTINUOUS
10
-0.560651
20
-0.218077
11
-0.563033
21
-0.223828
0
LINE
8
BLACK
6
CONTINUOUS
10
-0.563033
20
-0.223828
11
-0.563058
21
-0.224017
0
LINE
8
BLACK
6
CONTINUOUS
10
-0.563058
20
-0.224017
11
-0.563058
21
-0.224017
0
LINE
8
BLACK
6
CONTINUOUS
10
-0.563058
20
-0.224017
11
-0.563789
21
-0.229567
0
LINE
8
BLACK
6
CONTINUOUS
10
-0.563789
20
-0.229567
11
-0.563846
21
-0.23
0
LINE
8
BLACK
6
CONTINUOUS
10
-0.563846
20
-0.23
11
-0.563821
21
-0.230189
0
LINE
8
BLACK
6
CONTINUOUS
10
-0.563821
20
-0.230189
11
-0.563236
21
-0.234631
0
LINE
8
BLACK
6
CONTINUOUS
10
-0.563236
20
-0.234631
11
-0.563033
21
-0.236172
0
LINE
8
BLACK
6
CONTINUOUS
10
-0.563033
20
-0.236172
11
-0.560651
21
-0.241923
0
LINE
8
BLACK
6
CONTINUOUS
10
-0.560651
20
-0.241923
11
-0.560535
21
-0.242074
0
LINE
8
BLACK
6
CONTINUOUS
10
-0.560535
20
-0.242074
11
-0.560535
21
-0.242074
0
LINE
8
BLACK
6
CONTINUOUS
10
-0.560535
20
-0.242074
11
-0.557269
21
-0.24633
0
LINE
8
BLACK
6
CONTINUOUS
10
-0.557269
20
-0.24633
11
-0.556861
21
-0.246861
0
LINE
8
BLACK
6
CONTINUOUS
10
-0.556861
20
-0.246861
11
-0.55671
21
-0.246978
0
LINE
8
BLACK
6
CONTINUOUS
10
-0.55671
20
-0.246978
11
-0.552074
21
-0.250535
0
LINE
8
BLACK
6
CONTINUOUS
10
-0.552074
20
-0.250535
11
-0.552074
21
-0.250535
0
LINE
8
BLACK
6
CONTINUOUS
10
-0.552074
20
-0.250535
11
-0.551923
21
-0.250651
0
LINE
8
BLACK
6
CONTINUOUS
10
-0.551923
20
-0.250651
11
-0.546172
21
-0.253033
0
LINE
8
BLACK
6
CONTINUOUS
10
-0.546172
20
-0.253033
11
-0.545983
21
-0.253058
0
LINE
8
BLACK
6
CONTINUOUS
10
-0.545983
20
-0.253058
11
-0.545983
21
-0.253058
0
LINE
8
BLACK
6
CONTINUOUS
10
-0.545983
20
-0.253058
11
-0.540189
21
-0.253821
0
LINE
8
BLACK
6
CONTINUOUS
10
-0.540189
20
-0.253821
11
-0.54
21
-0.253846
0
LINE
8
BLACK
6
CONTINUOUS
10
-0.54
20
-0.253846
11
-0.539811
21
-0.253821
0
LINE
8
BLACK
6
CONTINUOUS
10
-0.539811
20
-0.253821
11
-0.534017
21
-0.253058
0
LINE
8
BLACK
6
CONTINUOUS
10
-0.534017
20
-0.253058
11
-0.534017
21
-0.253058
0
LINE
8
BLACK
6
CONTINUOUS
10
-0.534017
20
-0.253058
11
-0.533828
21
-0.253033
0
LINE
8
BLACK
6
CONTINUOUS
10
-0.533828
20
-0.253033
11
-0.528077
21
-0.250651
0
LINE
8
BLACK
6
CONTINUOUS
10
-0.528077
20
-0.250651
11
-0.527926
21
-0.250535
0
LINE
8
BLACK
6
CONTINUOUS
10
-0.527926
20
-0.250535
11
-0.527926
21
-0.250535
0
LINE
8
BLACK
6
CONTINUOUS
10
-0.527926
20
-0.250535
11
-0.52329
21
-0.246978
0
LINE
8
BLACK
6
CONTINUOUS
10
-0.52329
20
-0.246978
11
-0.523139
21
-0.246861
0
LINE
8
BLACK
6
CONTINUOUS
10
-0.523139
20
-0.246861
11
-0.522731
21
-0.24633
0
LINE
8
BLACK
6
CONTINUOUS
10
-0.522731
20
-0.24633
11
-0.519465
21
-0.242074
0
LINE
8
BLACK
6
CONTINUOUS
10
-0.519465
20
-0.242074
11
-0.519465
21
-0.242074
0
LINE
8
BLACK
6
CONTINUOUS
10
-0.519465
20
-0.242074
11
-0.519349
21
-0.241923
0
LINE
8
BLACK
6
CONTINUOUS
10
-0.519349
20
-0.241923
11
-0.516967
21
-0.236172
0
LINE
8
BLACK
6
CONTINUOUS
10
-0.516967
20
-0.236172
11
-0.516764
21
-0.234631
0
LINE
8
BLACK
6
CONTINUOUS
10
-0.516764
20
-0.234631
11
-0.516179
21
-0.230189
0
LINE
8
BLACK
6
CONTINUOUS
10
-0.516179
20
-0.230189
11
-0.516154
21
-0.23
0
LINE
8
BLACK
6
CONTINUOUS
10
-0.516154
20
-0.23
11
-0.516211
21
-0.229567
0
LINE
8
BLACK
6
CONTINUOUS
10
-0.516211
20
-0.229567
11
-0.516942
21
-0.224017
0
LINE
8
BLACK
6
CONTINUOUS
10
-0.516942
20
-0.224017
11
-0.516942
21
-0.224017
0
LINE
8
BLACK
6
CONTINUOUS
10
-0.516942
20
-0.224017
11
-0.516967
21
-0.223828
0
LINE
8
BLACK
6
CONTINUOUS
10
-0.516967
20
-0.223828
11
-0.517426
21
-0.22272
0
LINE
8
BLACK
6
CONTINUOUS
10
-0.517426
20
-0.22272
11
-0.518597
21
-0.219893
0
LINE
8
BLACK
6
CONTINUOUS
10
-0.518597
20
-0.219893
11
-0.518818
21
-0.218778
0
LINE
8
BLACK
6
CONTINUOUS
10
-0.518818
20
-0.218778
11
-0.518818
21
-0.0146717
0
LINE
8
BLACK
6
CONTINUOUS
10
-0.518818
20
-0.0146717
11
-0.518798
21
-0.0143293
0
LINE
8
BLACK
6
CONTINUOUS
10
-0.518798
20
-0.0143293
11
-0.51868
21
-0.0133328
0
LINE
8
BLACK
6
CONTINUOUS
10
-0.51868
20
-0.0133328
11
-0.518627
21
-0.0128819
0
LINE
8
BLACK
6
CONTINUOUS
10
-0.518627
20
-0.0128819
11
-0.518666
21
-0.0126678
0
LINE
8
BLACK
6
CONTINUOUS
10
-0.518666
20
-0.0126678
11
-0.519048
21
-0.0105788
0
LINE
8
BLACK
6
CONTINUOUS
10
-0.519048
20
-0.0105788
11
-0.519063
21
-0.0104886
0
LINE
8
BLACK
6
CONTINUOUS
10
-0.519063
20
-0.0104886
11
-0.519379
21
-0.00838661
0
LINE
8
BLACK
6
CONTINUOUS
10
-0.519379
20
-0.00838661
11
-0.519379
21
-0.0083865
0
LINE
8
BLACK
6
CONTINUOUS
10
-0.519379
20
-0.0083865
11
-0.519411
21
-0.00817122
0
LINE
8
BLACK
6
CONTINUOUS
10
-0.519411
20
-0.00817122
11
-0.519502
21
-0.00798071
0
LINE
8
BLACK
6
CONTINUOUS
10
-0.519502
20
-0.00798071
11
-0.519506
21
-0.00796665
0
LINE
8
BLACK
6
CONTINUOUS
10
-0.519506
20
-0.00796665
11
-0.51951
21
-0.00795555
0
LINE
8
BLACK
6
CONTINUOUS
10
-0.51951
20
-0.00795555
11
-0.519538
21
-0.00786854
0
LINE
8
BLACK
6
CONTINUOUS
10
-0.519538
20
-0.00786854
11
-0.519542
21
-0.00785701
0
LINE
8
BLACK
6
CONTINUOUS
10
-0.519542
20
-0.00785701
11
-0.519547
21
-0.00784319
0
LINE
8
BLACK
6
CONTINUOUS
10
-0.519547
20
-0.00784319
11
-0.519585
21
-0.00763535
0
LINE
8
BLACK
6
CONTINUOUS
10
-0.519585
20
-0.00763535
11
-0.520666
21
-0.00555484
0
LINE
8
BLACK
6
CONTINUOUS
10
-0.520666
20
-0.00555484
11
-0.520704
21
-0.0054776
0
LINE
8
BLACK
6
CONTINUOUS
10
-0.520704
20
-0.0054776
11
-0.52172
21
-0.00336346
0
LINE
8
BLACK
6
CONTINUOUS
10
-0.52172
20
-0.00336346
11
-0.521863
21
-0.00320831
0
LINE
8
BLACK
6
CONTINUOUS
10
-0.521863
20
-0.00320831
11
-0.521884
21
-0.00317276
0
LINE
8
BLACK
6
CONTINUOUS
10
-0.521884
20
-0.00317276
11
-0.521967
21
-0.00305016
0
LINE
8
BLACK
6
CONTINUOUS
10
-0.521967
20
-0.00305016
11
-0.522044
21
-0.00290248
0
LINE
8
BLACK
6
CONTINUOUS
10
-0.522044
20
-0.00290248
11
-0.522151
21
-0.00277622
0
LINE
8
BLACK
6
CONTINUOUS
10
-0.522151
20
-0.00277622
11
-0.522152
21
-0.00277606
0
LINE
8
BLACK
6
CONTINUOUS
10
-0.522152
20
-0.00277606
11
-0.522176
21
-0.00274717
0
LINE
8
BLACK
6
CONTINUOUS
10
-0.522176
20
-0.00274717
11
-0.522213
21
-0.00270406
0
LINE
8
BLACK
6
CONTINUOUS
10
-0.522213
20
-0.00270406
11
-0.523708
21
-0.00120917
0
LINE
8
BLACK
6
CONTINUOUS
10
-0.523708
20
-0.00120917
11
-0.523787
21
-0.00112669
0
LINE
8
BLACK
6
CONTINUOUS
10
-0.523787
20
-0.00112669
11
-0.525192
21
0.00039311
0
LINE
8
BLACK
6
CONTINUOUS
10
-0.525192
20
0.00039311
11
-0.52534
21
0.000552953
0
LINE
8
BLACK
6
CONTINUOUS
10
-0.52534
20
0.000552953
11
-0.525528
21
0.000662323
0
LINE
8
BLACK
6
CONTINUOUS
10
-0.525528
20
0.000662323
11
-0.525661
21
0.000768504
0
LINE
8
BLACK
6
CONTINUOUS
10
-0.525661
20
0.000768504
11
-0.525899
21
0.000982126
0
LINE
8
BLACK
6
CONTINUOUS
10
-0.525899
20
0.000982126
11
-0.535643
21
0.0107253
0
LINE
8
BLACK
6
CONTINUOUS
10
-0.535643
20
0.0107253
11
-0.536471
21
0.0124051
0
LINE
8
BLACK
6
CONTINUOUS
10
-0.527183
20
0.246856
11
-0.526655
21
0.242848
0
LINE
8
BLACK
6
CONTINUOUS
10
-0.526655
20
0.242848
11
-0.524273
21
0.237097
0
LINE
8
BLACK
6
CONTINUOUS
10
-0.524273
20
0.237097
11
-0.524157
21
0.236945
0
LINE
8
BLACK
6
CONTINUOUS
10
-0.524157
20
0.236945
11
-0.524157
21
0.236945
0
LINE
8
BLACK
6
CONTINUOUS
10
-0.524157
20
0.236945
11
-0.522074
21
0.23423
0
LINE
8
BLACK
6
CONTINUOUS
10
-0.522074
20
0.23423
11
-0.520484
21
0.232158
0
LINE
8
BLACK
6
CONTINUOUS
10
-0.520484
20
0.232158
11
-0.520332
21
0.232042
0
LINE
8
BLACK
6
CONTINUOUS
10
-0.520332
20
0.232042
11
-0.515696
21
0.228485
0
LINE
8
BLACK
6
CONTINUOUS
10
-0.515696
20
0.228485
11
-0.515696
21
0.228485
0
LINE
8
BLACK
6
CONTINUOUS
10
-0.515696
20
0.228485
11
-0.515545
21
0.228369
0
LINE
8
BLACK
6
CONTINUOUS
10
-0.515545
20
0.228369
11
-0.509794
21
0.225986
0
LINE
8
BLACK
6
CONTINUOUS
10
-0.509794
20
0.225986
11
-0.509605
21
0.225961
0
LINE
8
BLACK
6
CONTINUOUS
10
-0.509605
20
0.225961
11
-0.509605
21
0.225961
0
LINE
8
BLACK
6
CONTINUOUS
10
-0.509605
20
0.225961
11
-0.503811
21
0.225199
0
LINE
8
BLACK
6
CONTINUOUS
10
-0.503811
20
0.225199
11
-0.503622
21
0.225174
0
LINE
8
BLACK
6
CONTINUOUS
10
-0.503622
20
0.225174
11
-0.503433
21
0.225199
0
LINE
8
BLACK
6
CONTINUOUS
10
-0.503433
20
0.225199
11
-0.497639
21
0.225961
0
LINE
8
BLACK
6
CONTINUOUS
10
-0.497639
20
0.225961
11
-0.497639
21
0.225961
0
LINE
8
BLACK
6
CONTINUOUS
10
-0.497639
20
0.225961
11
-0.49745
21
0.225986
0
LINE
8
BLACK
6
CONTINUOUS
10
-0.49745
20
0.225986
11
-0.495178
21
0.226928
0
LINE
8
BLACK
6
CONTINUOUS
10
-0.495178
20
0.226928
11
-0.494063
21
0.227149
0
LINE
8
BLACK
6
CONTINUOUS
10
-0.494063
20
0.227149
11
-0.154341
21
0.227149
0
LINE
8
BLACK
6
CONTINUOUS
10
-0.154341
20
0.227149
11
-0.153998
21
0.227129
0
LINE
8
BLACK
6
CONTINUOUS
10
-0.153998
20
0.227129
11
-0.15354
21
0.227075
0
LINE
8
BLACK
6
CONTINUOUS
10
-0.15354
20
0.227075
11
-0.152551
21
0.226958
0
LINE
8
BLACK
6
CONTINUOUS
10
-0.152551
20
0.226958
11
-0.152337
21
0.226997
0
LINE
8
BLACK
6
CONTINUOUS
10
-0.152337
20
0.226997
11
-0.152337
21
0.226997
0
LINE
8
BLACK
6
CONTINUOUS
10
-0.152337
20
0.226997
11
-0.150248
21
0.227379
0
LINE
8
BLACK
6
CONTINUOUS
10
-0.150248
20
0.227379
11
-0.150158
21
0.227394
0
LINE
8
BLACK
6
CONTINUOUS
10
-0.150158
20
0.227394
11
-0.148055
21
0.22771
0
LINE
8
BLACK
6
CONTINUOUS
10
-0.148055
20
0.22771
11
-0.148055
21
0.22771
0
LINE
8
BLACK
6
CONTINUOUS
10
-0.148055
20
0.22771
11
-0.14784
21
0.227742
0
LINE
8
BLACK
6
CONTINUOUS
10
-0.14784
20
0.227742
11
-0.14765
21
0.227833
0
LINE
8
BLACK
6
CONTINUOUS
10
-0.14765
20
0.227833
11
-0.147637
21
0.227837
0
LINE
8
BLACK
6
CONTINUOUS
10
-0.147637
20
0.227837
11
-0.147626
21
0.22784
0
LINE
8
BLACK
6
CONTINUOUS
10
-0.147626
20
0.22784
11
-0.147538
21
0.227869
0
LINE
8
BLACK
6
CONTINUOUS
10
-0.147538
20
0.227869
11
-0.147526
21
0.227873
0
LINE
8
BLACK
6
CONTINUOUS
10
-0.147526
20
0.227873
11
-0.147512
21
0.227878
0
LINE
8
BLACK
6
CONTINUOUS
10
-0.147512
20
0.227878
11
-0.147304
21
0.227916
0
LINE
8
BLACK
6
CONTINUOUS
10
-0.147304
20
0.227916
11
-0.145227
21
0.228995
0
LINE
8
BLACK
6
CONTINUOUS
10
-0.145227
20
0.228995
11
-0.145145
21
0.229036
0
LINE
8
BLACK
6
CONTINUOUS
10
-0.145145
20
0.229036
11
-0.143229
21
0.229956
0
LINE
8
BLACK
6
CONTINUOUS
10
-0.143229
20
0.229956
11
-0.143229
21
0.229956
0
LINE
8
BLACK
6
CONTINUOUS
10
-0.143229
20
0.229956
11
-0.143032
21
0.230051
0
LINE
8
BLACK
6
CONTINUOUS
10
-0.143032
20
0.230051
11
-0.142877
21
0.230194
0
LINE
8
BLACK
6
CONTINUOUS
10
-0.142877
20
0.230194
11
-0.142841
21
0.230216
0
LINE
8
BLACK
6
CONTINUOUS
10
-0.142841
20
0.230216
11
-0.142719
21
0.230298
0
LINE
8
BLACK
6
CONTINUOUS
10
-0.142719
20
0.230298
11
-0.142571
21
0.230375
0
LINE
8
BLACK
6
CONTINUOUS
10
-0.142571
20
0.230375
11
-0.142373
21
0.230544
0
LINE
8
BLACK
6
CONTINUOUS
10
-0.142373
20
0.230544
11
-0.140878
21
0.232039
0
LINE
8
BLACK
6
CONTINUOUS
10
-0.140878
20
0.232039
11
-0.140796
21
0.232118
0
LINE
8
BLACK
6
CONTINUOUS
10
-0.140796
20
0.232118
11
-0.139276
21
0.233523
0
LINE
8
BLACK
6
CONTINUOUS
10
-0.139276
20
0.233523
11
-0.139116
21
0.233671
0
LINE
8
BLACK
6
CONTINUOUS
10
-0.139116
20
0.233671
11
-0.139007
21
0.233859
0
LINE
8
BLACK
6
CONTINUOUS
10
-0.139007
20
0.233859
11
-0.138901
21
0.233992
0
LINE
8
BLACK
6
CONTINUOUS
10
-0.138901
20
0.233992
11
-0.138687
21
0.23423
0
LINE
8
BLACK
6
CONTINUOUS
10
-0.138687
20
0.23423
11
-0.133275
21
0.239643
0
LINE
8
BLACK
6
CONTINUOUS
10
-0.133275
20
0.239643
11
-0.131595
21
0.240471
0
LINE
8
BLACK
6
CONTINUOUS
10
-0.131595
20
0.240471
11
-0.130264
21
0.240646
0
LINE
8
BLACK
6
CONTINUOUS
10
-0.130264
20
0.240646
11
-0.128017
21
0.240942
0
LINE
8
BLACK
6
CONTINUOUS
10
-0.128017
20
0.240942
11
-0.128017
21
0.240942
0
LINE
8
BLACK
6
CONTINUOUS
10
-0.128017
20
0.240942
11
-0.127828
21
0.240967
0
LINE
8
BLACK
6
CONTINUOUS
10
-0.127828
20
0.240967
11
-0.122077
21
0.243349
0
LINE
8
BLACK
6
CONTINUOUS
10
-0.122077
20
0.243349
11
-0.121926
21
0.243465
0
LINE
8
BLACK
6
CONTINUOUS
10
-0.121926
20
0.243465
11
-0.121926
21
0.243465
0
LINE
8
BLACK
6
CONTINUOUS
10
-0.121926
20
0.243465
11
-0.119063
21
0.245662
0
LINE
8
BLACK
6
CONTINUOUS
10
-0.119063
20
0.245662
11
-0.11729
21
0.246264
0
LINE
8
BLACK
6
CONTINUOUS
10
-0.11729
20
0.246264
11
0.0309588
21
0.246264
0
LINE
8
BLACK
6
CONTINUOUS
10
0.0309588
20
0.246264
11
0.0310659
21
0.24628
0
LINE
8
BLACK
6
CONTINUOUS
10
0.0310659
20
0.24628
11
0.031066
21
0.24628
0
LINE
8
BLACK
6
CONTINUOUS
10
0.031066
20
0.24628
11
0.0339261
21
0.24671
0
LINE
8
BLACK
6
CONTINUOUS
10
0.0339261
20
0.24671
11
0.0349002
21
0.246856
0
LINE
8
BLACK
6
CONTINUOUS
10
0.0349002
20
0.246856
11
0.0350965
21
0.246951
0
LINE
8
BLACK
6
CONTINUOUS
10
0.0350965
20
0.246951
11
0.0350965
21
0.246951
0
LINE
8
BLACK
6
CONTINUOUS
10
0.0350965
20
0.246951
11
0.0371678
21
0.247945
0
LINE
8
BLACK
6
CONTINUOUS
10
0.0371678
20
0.247945
11
0.0384289
21
0.248232
0
LINE
8
BLACK
6
CONTINUOUS
10
0.0384289
20
0.248232
11
0.089332
21
0.248232
0
LINE
8
BLACK
6
CONTINUOUS
10
0.089332
20
0.248232
11
0.08955
21
0.248303
0
LINE
8
BLACK
6
CONTINUOUS
10
0.08955
20
0.248303
11
0.0895502
21
0.248303
0
LINE
8
BLACK
6
CONTINUOUS
10
0.0895502
20
0.248303
11
0.0903089
21
0.24855
0
LINE
8
BLACK
6
CONTINUOUS
10
0.0903089
20
0.24855
11
0.0907534
21
0.248656
0
LINE
8
BLACK
6
CONTINUOUS
10
0.0907534
20
0.248656
11
0.0911474
21
0.248719
0
LINE
8
BLACK
6
CONTINUOUS
10
0.0911474
20
0.248719
11
0.0917679
21
0.248817
0
LINE
8
BLACK
6
CONTINUOUS
10
0.0917679
20
0.248817
11
0.0921652
21
0.24902
0
LINE
8
BLACK
6
CONTINUOUS
10
0.0921652
20
0.24902
11
0.0926831
21
0.249283
0
LINE
8
BLACK
6
CONTINUOUS
10
0.0926831
20
0.249283
11
0.0931054
21
0.249458
0
LINE
8
BLACK
6
CONTINUOUS
10
0.0931054
20
0.249458
11
0.0938642
21
0.249705
0
LINE
8
BLACK
6
CONTINUOUS
10
0.0938642
20
0.249705
11
0.0938643
21
0.249705
0
LINE
8
BLACK
6
CONTINUOUS
10
0.0938643
20
0.249705
11
0.0940823
21
0.249776
0
LINE
8
BLACK
6
CONTINUOUS
10
0.0940823
20
0.249776
11
0.0942677
21
0.24991
0
LINE
8
BLACK
6
CONTINUOUS
10
0.0942677
20
0.24991
11
0.0942679
21
0.249911
0
LINE
8
BLACK
6
CONTINUOUS
10
0.0942679
20
0.249911
11
0.0949133
21
0.250379
0
LINE
8
BLACK
6
CONTINUOUS
10
0.0949133
20
0.250379
11
0.0953031
21
0.250618
0
LINE
8
BLACK
6
CONTINUOUS
10
0.0953031
20
0.250618
11
0.0960139
21
0.250981
0
LINE
8
BLACK
6
CONTINUOUS
10
0.0960139
20
0.250981
11
0.0960139
21
0.250981
0
LINE
8
BLACK
6
CONTINUOUS
10
0.0960139
20
0.250981
11
0.0962182
21
0.251085
0
LINE
8
BLACK
6
CONTINUOUS
10
0.0962182
20
0.251085
11
0.0971065
21
0.251973
0
LINE
8
BLACK
6
CONTINUOUS
10
0.0971065
20
0.251973
11
0.0971067
21
0.251973
0
LINE
8
BLACK
6
CONTINUOUS
10
0.0971067
20
0.251973
11
0.119672
21
0.274538
0
LINE
8
BLACK
6
CONTINUOUS
10
0.119672
20
0.274538
11
0.121478
21
0.275381
0
LINE
8
BLACK
6
CONTINUOUS
10
0.121478
20
0.275381
11
0.121732
21
0.275392
0
LINE
8
BLACK
6
CONTINUOUS
10
0.121732
20
0.275392
11
0.121858
21
0.275392
0
LINE
8
BLACK
6
CONTINUOUS
10
0.121858
20
0.275392
11
0.122047
21
0.275367
0
LINE
8
BLACK
6
CONTINUOUS
10
0.122047
20
0.275367
11
0.122237
21
0.275392
0
LINE
8
BLACK
6
CONTINUOUS
10
0.122237
20
0.275392
11
0.12803
21
0.276154
0
LINE
8
BLACK
6
CONTINUOUS
10
0.12803
20
0.276154
11
0.12803
21
0.276154
0
LINE
8
BLACK
6
CONTINUOUS
10
0.12803
20
0.276154
11
0.128219
21
0.276179
0
LINE
8
BLACK
6
CONTINUOUS
10
0.128219
20
0.276179
11
0.13397
21
0.278562
0
LINE
8
BLACK
6
CONTINUOUS
10
0.13397
20
0.278562
11
0.134121
21
0.278678
0
LINE
8
BLACK
6
CONTINUOUS
10
0.134121
20
0.278678
11
0.134122
21
0.278678
0
LINE
8
BLACK
6
CONTINUOUS
10
0.134122
20
0.278678
11
0.138757
21
0.282235
0
LINE
8
BLACK
6
CONTINUOUS
10
0.138757
20
0.282235
11
0.138909
21
0.282351
0
LINE
8
BLACK
6
CONTINUOUS
10
0.138909
20
0.282351
11
0.139025
21
0.282503
0
LINE
8
BLACK
6
CONTINUOUS
10
0.139025
20
0.282503
11
0.142582
21
0.287138
0
LINE
8
BLACK
6
CONTINUOUS
10
0.142582
20
0.287138
11
0.142582
21
0.287138
0
LINE
8
BLACK
6
CONTINUOUS
10
0.142582
20
0.287138
11
0.142698
21
0.28729
0
LINE
8
BLACK
6
CONTINUOUS
10
0.142698
20
0.28729
11
0.14508
21
0.293041
0
LINE
8
BLACK
6
CONTINUOUS
10
0.14508
20
0.293041
11
0.14558
21
0.296837
0
LINE
8
BLACK
6
CONTINUOUS
10
0.14558
20
0.296837
11
0.145868
21
0.299023
0
LINE
8
BLACK
6
CONTINUOUS
10
0.145868
20
0.299023
11
0.145893
21
0.299213
0
LINE
8
BLACK
6
CONTINUOUS
10
0.145893
20
0.299213
11
0.14508
21
0.305384
0
LINE
8
BLACK
6
CONTINUOUS
10
0.14508
20
0.305384
11
0.142698
21
0.311135
0
LINE
8
BLACK
6
CONTINUOUS
10
0.142698
20
0.311135
11
0.142582
21
0.311287
0
LINE
8
BLACK
6
CONTINUOUS
10
0.142582
20
0.311287
11
0.142582
21
0.311287
0
LINE
8
BLACK
6
CONTINUOUS
10
0.142582
20
0.311287
11
0.139025
21
0.315922
0
LINE
8
BLACK
6
CONTINUOUS
10
0.139025
20
0.315922
11
0.138909
21
0.316074
0
LINE
8
BLACK
6
CONTINUOUS
10
0.138909
20
0.316074
11
0.138757
21
0.31619
0
LINE
8
BLACK
6
CONTINUOUS
10
0.138757
20
0.31619
11
0.134122
21
0.319747
0
LINE
8
BLACK
6
CONTINUOUS
10
0.134122
20
0.319747
11
0.134121
21
0.319747
0
LINE
8
BLACK
6
CONTINUOUS
10
0.134121
20
0.319747
11
0.13397
21
0.319864
0
LINE
8
BLACK
6
CONTINUOUS
10
0.13397
20
0.319864
11
0.128219
21
0.322246
0
LINE
8
BLACK
6
CONTINUOUS
10
0.128219
20
0.322246
11
0.12803
21
0.322271
0
LINE
8
BLACK
6
CONTINUOUS
10
0.12803
20
0.322271
11
0.12803
21
0.322271
0
LINE
8
BLACK
6
CONTINUOUS
10
0.12803
20
0.322271
11
0.122237
21
0.323033
0
LINE
8
BLACK
6
CONTINUOUS
10
0.122237
20
0.323033
11
0.122047
21
0.323058
0
LINE
8
BLACK
6
CONTINUOUS
10
0.122047
20
0.323058
11
0.121858
21
0.323033
0
LINE
8
BLACK
6
CONTINUOUS
10
0.121858
20
0.323033
11
0.116065
21
0.322271
0
LINE
8
BLACK
6
CONTINUOUS
10
0.116065
20
0.322271
11
0.116065
21
0.322271
0
LINE
8
BLACK
6
CONTINUOUS
10
0.116065
20
0.322271
11
0.115876
21
0.322246
0
LINE
8
BLACK
6
CONTINUOUS
10
0.115876
20
0.322246
11
0.110124
21
0.319864
0
LINE
8
BLACK
6
CONTINUOUS
10
0.110124
20
0.319864
11
0.109973
21
0.319747
0
LINE
8
BLACK
6
CONTINUOUS
10
0.109973
20
0.319747
11
0.109973
21
0.319747
0
LINE
8
BLACK
6
CONTINUOUS
10
0.109973
20
0.319747
11
0.105337
21
0.31619
0
LINE
8
BLACK
6
CONTINUOUS
10
0.105337
20
0.31619
11
0.105186
21
0.316074
0
LINE
8
BLACK
6
CONTINUOUS
10
0.105186
20
0.316074
11
0.105069
21
0.315922
0
LINE
8
BLACK
6
CONTINUOUS
10
0.105069
20
0.315922
11
0.101512
21
0.311287
0
LINE
8
BLACK
6
CONTINUOUS
10
0.101512
20
0.311287
11
0.101512
21
0.311287
0
LINE
8
BLACK
6
CONTINUOUS
10
0.101512
20
0.311287
11
0.101396
21
0.311135
0
LINE
8
BLACK
6
CONTINUOUS
10
0.101396
20
0.311135
11
0.099014
21
0.305384
0
LINE
8
BLACK
6
CONTINUOUS
10
0.099014
20
0.305384
11
0.0982015
21
0.299213
0
LINE
8
BLACK
6
CONTINUOUS
10
0.0982015
20
0.299213
11
0.0982264
21
0.299023
0
LINE
8
BLACK
6
CONTINUOUS
10
0.0982264
20
0.299023
11
0.0982264
21
0.298897
0
LINE
8
BLACK
6
CONTINUOUS
10
0.0982264
20
0.298897
11
0.0975448
21
0.297025
0
LINE
8
BLACK
6
CONTINUOUS
10
0.0975448
20
0.297025
11
0.0973731
21
0.296837
0
LINE
8
BLACK
6
CONTINUOUS
10
0.0973731
20
0.296837
11
0.0811567
21
0.280621
0
LINE
8
BLACK
6
CONTINUOUS
10
0.0811567
20
0.280621
11
0.0793506
21
0.279779
0
LINE
8
BLACK
6
CONTINUOUS
10
0.0793506
20
0.279779
11
0.0790967
21
0.279768
0
LINE
8
BLACK
6
CONTINUOUS
10
0.0790967
20
0.279768
11
0.0388124
21
0.279768
0
LINE
8
BLACK
6
CONTINUOUS
10
0.0388124
20
0.279768
11
0.0376033
21
0.280048
0
LINE
8
BLACK
6
CONTINUOUS
10
0.0376033
20
0.280048
11
0.0375171
21
0.280108
0
LINE
8
BLACK
6
CONTINUOUS
10
0.0375171
20
0.280108
11
0.032432
21
0.281716
0
LINE
8
BLACK
6
CONTINUOUS
10
0.032432
20
0.281716
11
0.0321719
21
0.281736
0
LINE
8
BLACK
6
CONTINUOUS
10
0.0321719
20
0.281736
11
-0.11729
21
0.281736
0
LINE
8
BLACK
6
CONTINUOUS
10
-0.11729
20
0.281736
11
-0.119063
21
0.282338
0
LINE
8
BLACK
6
CONTINUOUS
10
-0.119063
20
0.282338
11
-0.121926
21
0.284535
0
LINE
8
BLACK
6
CONTINUOUS
10
-0.121926
20
0.284535
11
-0.121926
21
0.284535
0
LINE
8
BLACK
6
CONTINUOUS
10
-0.121926
20
0.284535
11
-0.122077
21
0.284651
0
LINE
8
BLACK
6
CONTINUOUS
10
-0.122077
20
0.284651
11
-0.127828
21
0.287033
0
LINE
8
BLACK
6
CONTINUOUS
10
-0.127828
20
0.287033
11
-0.128017
21
0.287058
0
LINE
8
BLACK
6
CONTINUOUS
10
-0.128017
20
0.287058
11
-0.128017
21
0.287058
0
LINE
8
BLACK
6
CONTINUOUS
10
-0.128017
20
0.287058
11
-0.133811
21
0.287821
0
LINE
8
BLACK
6
CONTINUOUS
10
-0.133811
20
0.287821
11
-0.134
21
0.287846
0
LINE
8
BLACK
6
CONTINUOUS
10
-0.134
20
0.287846
11
-0.134189
21
0.287821
0
LINE
8
BLACK
6
CONTINUOUS
10
-0.134189
20
0.287821
11
-0.139983
21
0.287058
0
LINE
8
BLACK
6
CONTINUOUS
10
-0.139983
20
0.287058
11
-0.139983
21
0.287058
0
LINE
8
BLACK
6
CONTINUOUS
10
-0.139983
20
0.287058
11
-0.140172
21
0.287033
0
LINE
8
BLACK
6
CONTINUOUS
10
-0.140172
20
0.287033
11
-0.145923
21
0.284651
0
LINE
8
BLACK
6
CONTINUOUS
10
-0.145923
20
0.284651
11
-0.146074
21
0.284535
0
LINE
8
BLACK
6
CONTINUOUS
10
-0.146074
20
0.284535
11
-0.146074
21
0.284535
0
LINE
8
BLACK
6
CONTINUOUS
10
-0.146074
20
0.284535
11
-0.149731
21
0.281729
0
LINE
8
BLACK
6
CONTINUOUS
10
-0.149731
20
0.281729
11
-0.150861
21
0.280861
0
LINE
8
BLACK
6
CONTINUOUS
10
-0.150861
20
0.280861
11
-0.150978
21
0.28071
0
LINE
8
BLACK
6
CONTINUOUS
10
-0.150978
20
0.28071
11
-0.154535
21
0.276074
0
LINE
8
BLACK
6
CONTINUOUS
10
-0.154535
20
0.276074
11
-0.154535
21
0.276074
0
LINE
8
BLACK
6
CONTINUOUS
10
-0.154535
20
0.276074
11
-0.154651
21
0.275923
0
LINE
8
BLACK
6
CONTINUOUS
10
-0.154651
20
0.275923
11
-0.157033
21
0.270172
0
LINE
8
BLACK
6
CONTINUOUS
10
-0.157033
20
0.270172
11
-0.157058
21
0.269983
0
LINE
8
BLACK
6
CONTINUOUS
10
-0.157058
20
0.269983
11
-0.157058
21
0.269983
0
LINE
8
BLACK
6
CONTINUOUS
10
-0.157058
20
0.269983
11
-0.157529
21
0.266405
0
LINE
8
BLACK
6
CONTINUOUS
10
-0.157529
20
0.266405
11
-0.158357
21
0.264725
0
LINE
8
BLACK
6
CONTINUOUS
10
-0.158357
20
0.264725
11
-0.159608
21
0.263475
0
LINE
8
BLACK
6
CONTINUOUS
10
-0.159608
20
0.263475
11
-0.161414
21
0.262633
0
LINE
8
BLACK
6
CONTINUOUS
10
-0.161414
20
0.262633
11
-0.161668
21
0.262622
0
LINE
8
BLACK
6
CONTINUOUS
10
-0.161668
20
0.262622
11
-0.482823
21
0.262622
0
LINE
8
BLACK
6
CONTINUOUS
10
-0.482823
20
0.262622
11
-0.484696
21
0.263304
0
LINE
8
BLACK
6
CONTINUOUS
10
-0.484696
20
0.263304
11
-0.485134
21
0.263762
0
LINE
8
BLACK
6
CONTINUOUS
10
-0.485134
20
0.263762
11
-0.486644
21
0.265729
0
LINE
8
BLACK
6
CONTINUOUS
10
-0.486644
20
0.265729
11
-0.486761
21
0.265881
0
LINE
8
BLACK
6
CONTINUOUS
10
-0.486761
20
0.265881
11
-0.486912
21
0.265997
0
LINE
8
BLACK
6
CONTINUOUS
10
-0.486912
20
0.265997
11
-0.491548
21
0.269554
0
LINE
8
BLACK
6
CONTINUOUS
10
-0.491548
20
0.269554
11
-0.491548
21
0.269554
0
LINE
8
BLACK
6
CONTINUOUS
10
-0.491548
20
0.269554
11
-0.491699
21
0.269671
0
LINE
8
BLACK
6
CONTINUOUS
10
-0.491699
20
0.269671
11
-0.49745
21
0.272053
0
LINE
8
BLACK
6
CONTINUOUS
10
-0.49745
20
0.272053
11
-0.497639
21
0.272078
0
LINE
8
BLACK
6
CONTINUOUS
10
-0.497639
20
0.272078
11
-0.497639
21
0.272078
0
LINE
8
BLACK
6
CONTINUOUS
10
-0.497639
20
0.272078
11
-0.503433
21
0.27284
0
LINE
8
BLACK
6
CONTINUOUS
10
-0.503433
20
0.27284
11
-0.503622
21
0.272865
0
LINE
8
BLACK
6
CONTINUOUS
10
-0.503622
20
0.272865
11
-0.503811
21
0.27284
0
LINE
8
BLACK
6
CONTINUOUS
10
-0.503811
20
0.27284
11
-0.509605
21
0.272078
0
LINE
8
BLACK
6
CONTINUOUS
10
-0.509605
20
0.272078
11
-0.509605
21
0.272078
0
LINE
8
BLACK
6
CONTINUOUS
10
-0.509605
20
0.272078
11
-0.509794
21
0.272053
0
LINE
8
BLACK
6
CONTINUOUS
10
-0.509794
20
0.272053
11
-0.515545
21
0.269671
0
LINE
8
BLACK
6
CONTINUOUS
10
-0.515545
20
0.269671
11
-0.515696
21
0.269554
0
LINE
8
BLACK
6
CONTINUOUS
10
-0.515696
20
0.269554
11
-0.515696
21
0.269554
0
LINE
8
BLACK
6
CONTINUOUS
10
-0.515696
20
0.269554
11
-0.520332
21
0.265997
0
LINE
8
BLACK
6
CONTINUOUS
10
-0.520332
20
0.265997
11
-0.520484
21
0.265881
0
LINE
8
BLACK
6
CONTINUOUS
10
-0.520484
20
0.265881
11
-0.5206
21
0.265729
0
LINE
8
BLACK
6
CONTINUOUS
10
-0.5206
20
0.265729
11
-0.524157
21
0.261094
0
LINE
8
BLACK
6
CONTINUOUS
10
-0.524157
20
0.261094
11
-0.524157
21
0.261094
0
LINE
8
BLACK
6
CONTINUOUS
10
-0.524157
20
0.261094
11
-0.524273
21
0.260942
0
LINE
8
BLACK
6
CONTINUOUS
10
-0.524273
20
0.260942
11
-0.526655
21
0.255191
0
LINE
8
BLACK
6
CONTINUOUS
10
-0.526655
20
0.255191
11
-0.52668
21
0.255002
0
LINE
8
BLACK
6
CONTINUOUS
10
-0.52668
20
0.255002
11
-0.52668
21
0.255002
0
LINE
8
BLACK
6
CONTINUOUS
10
-0.52668
20
0.255002
11
-0.527243
21
0.250724
0
LINE
8
BLACK
6
CONTINUOUS
10
-0.527243
20
0.250724
11
-0.527468
21
0.24902
0
LINE
8
BLACK
6
CONTINUOUS
10
-0.527468
20
0.24902
11
-0.527443
21
0.24883
0
LINE
8
BLACK
6
CONTINUOUS
10
-0.527443
20
0.24883
11
-0.527183
21
0.246856
0
LINE
8
BLACK
6
CONTINUOUS
10
-0.75321
20
0.225174
11
-0.753033
21
0.223828
0
LINE
8
BLACK
6
CONTINUOUS
10
-0.753033
20
0.223828
11
-0.750651
21
0.218077
0
LINE
8
BLACK
6
CONTINUOUS
10
-0.750651
20
0.218077
11
-0.750535
21
0.217926
0
LINE
8
BLACK
6
CONTINUOUS
10
-0.750535
20
0.217926
11
-0.750535
21
0.217926
0
LINE
8
BLACK
6
CONTINUOUS
10
-0.750535
20
0.217926
11
-0.746978
21
0.21329
0
LINE
8
BLACK
6
CONTINUOUS
10
-0.746978
20
0.21329
11
-0.746861
21
0.213139
0
LINE
8
BLACK
6
CONTINUOUS
10
-0.746861
20
0.213139
11
-0.74671
21
0.213022
0
LINE
8
BLACK
6
CONTINUOUS
10
-0.74671
20
0.213022
11
-0.742074
21
0.209465
0
LINE
8
BLACK
6
CONTINUOUS
10
-0.742074
20
0.209465
11
-0.742074
21
0.209465
0
LINE
8
BLACK
6
CONTINUOUS
10
-0.742074
20
0.209465
11
-0.741923
21
0.209349
0
LINE
8
BLACK
6
CONTINUOUS
10
-0.741923
20
0.209349
11
-0.736172
21
0.206967
0
LINE
8
BLACK
6
CONTINUOUS
10
-0.736172
20
0.206967
11
-0.735983
21
0.206942
0
LINE
8
BLACK
6
CONTINUOUS
10
-0.735983
20
0.206942
11
-0.735983
21
0.206942
0
LINE
8
BLACK
6
CONTINUOUS
10
-0.735983
20
0.206942
11
-0.733736
21
0.206646
0
LINE
8
BLACK
6
CONTINUOUS
10
-0.733736
20
0.206646
11
-0.732405
21
0.206471
0
LINE
8
BLACK
6
CONTINUOUS
10
-0.732405
20
0.206471
11
-0.730725
21
0.205643
0
LINE
8
BLACK
6
CONTINUOUS
10
-0.730725
20
0.205643
11
-0.62859
21
0.103507
0
LINE
8
BLACK
6
CONTINUOUS
10
-0.62859
20
0.103507
11
-0.627747
21
0.101701
0
LINE
8
BLACK
6
CONTINUOUS
10
-0.627747
20
0.101701
11
-0.627736
21
0.101447
0
LINE
8
BLACK
6
CONTINUOUS
10
-0.627736
20
0.101447
11
-0.627736
21
-0.085624
0
LINE
8
BLACK
6
CONTINUOUS
10
-0.627736
20
-0.085624
11
-0.627756
21
-0.0859664
0
LINE
8
BLACK
6
CONTINUOUS
10
-0.627756
20
-0.0859664
11
-0.627928
21
-0.0874138
0
LINE
8
BLACK
6
CONTINUOUS
10
-0.627928
20
-0.0874138
11
-0.627889
21
-0.087628
0
LINE
8
BLACK
6
CONTINUOUS
10
-0.627889
20
-0.087628
11
-0.627889
21
-0.0876281
0
LINE
8
BLACK
6
CONTINUOUS
10
-0.627889
20
-0.0876281
11
-0.627507
21
-0.0897165
0
LINE
8
BLACK
6
CONTINUOUS
10
-0.627507
20
-0.0897165
11
-0.627492
21
-0.0898068
0
LINE
8
BLACK
6
CONTINUOUS
10
-0.627492
20
-0.0898068
11
-0.627371
21
-0.0906157
0
LINE
8
BLACK
6
CONTINUOUS
10
-0.627371
20
-0.0906157
11
-0.627144
21
-0.0921245
0
LINE
8
BLACK
6
CONTINUOUS
10
-0.627144
20
-0.0921245
11
-0.627052
21
-0.0923149
0
LINE
8
BLACK
6
CONTINUOUS
10
-0.627052
20
-0.0923149
11
-0.627049
21
-0.0923282
0
LINE
8
BLACK
6
CONTINUOUS
10
-0.627049
20
-0.0923282
11
-0.627045
21
-0.0923386
0
LINE
8
BLACK
6
CONTINUOUS
10
-0.627045
20
-0.0923386
11
-0.627017
21
-0.0924267
0
LINE
8
BLACK
6
CONTINUOUS
10
-0.627017
20
-0.0924267
11
-0.627013
21
-0.0924388
0
LINE
8
BLACK
6
CONTINUOUS
10
-0.627013
20
-0.0924388
11
-0.627007
21
-0.0924526
0
LINE
8
BLACK
6
CONTINUOUS
10
-0.627007
20
-0.0924526
11
-0.626969
21
-0.0926604
0
LINE
8
BLACK
6
CONTINUOUS
10
-0.626969
20
-0.0926604
11
-0.626869
21
-0.0928536
0
LINE
8
BLACK
6
CONTINUOUS
10
-0.626869
20
-0.0928536
11
-0.62589
21
-0.0947376
0
LINE
8
BLACK
6
CONTINUOUS
10
-0.62589
20
-0.0947376
11
-0.62585
21
-0.0948194
0
LINE
8
BLACK
6
CONTINUOUS
10
-0.62585
20
-0.0948194
11
-0.625191
21
-0.0961905
0
LINE
8
BLACK
6
CONTINUOUS
10
-0.625191
20
-0.0961905
11
-0.624835
21
-0.0969322
0
LINE
8
BLACK
6
CONTINUOUS
10
-0.624835
20
-0.0969322
11
-0.624691
21
-0.0970875
0
LINE
8
BLACK
6
CONTINUOUS
10
-0.624691
20
-0.0970875
11
-0.62467
21
-0.0971233
0
LINE
8
BLACK
6
CONTINUOUS
10
-0.62467
20
-0.0971233
11
-0.624588
21
-0.0972457
0
LINE
8
BLACK
6
CONTINUOUS
10
-0.624588
20
-0.0972457
11
-0.624511
21
-0.0973932
0
LINE
8
BLACK
6
CONTINUOUS
10
-0.624511
20
-0.0973932
11
-0.624342
21
-0.0975917
0
LINE
8
BLACK
6
CONTINUOUS
10
-0.624342
20
-0.0975917
11
-0.622847
21
-0.0990865
0
LINE
8
BLACK
6
CONTINUOUS
10
-0.622847
20
-0.0990865
11
-0.622767
21
-0.099169
0
LINE
8
BLACK
6
CONTINUOUS
10
-0.622767
20
-0.099169
11
-0.621215
21
-0.100849
0
LINE
8
BLACK
6
CONTINUOUS
10
-0.621215
20
-0.100849
11
-0.621026
21
-0.100958
0
LINE
8
BLACK
6
CONTINUOUS
10
-0.621026
20
-0.100958
11
-0.620894
21
-0.101064
0
LINE
8
BLACK
6
CONTINUOUS
10
-0.620894
20
-0.101064
11
-0.620655
21
-0.101278
0
LINE
8
BLACK
6
CONTINUOUS
10
-0.620655
20
-0.101278
11
-0.618846
21
-0.103088
0
LINE
8
BLACK
6
CONTINUOUS
10
-0.618846
20
-0.103088
11
-0.618017
21
-0.104767
0
LINE
8
BLACK
6
CONTINUOUS
10
-0.618017
20
-0.104767
11
-0.617521
21
-0.108534
0
LINE
8
BLACK
6
CONTINUOUS
10
-0.617521
20
-0.108534
11
-0.615139
21
-0.114285
0
LINE
8
BLACK
6
CONTINUOUS
10
-0.615139
20
-0.114285
11
-0.615023
21
-0.114436
0
LINE
8
BLACK
6
CONTINUOUS
10
-0.615023
20
-0.114436
11
-0.615023
21
-0.114437
0
LINE
8
BLACK
6
CONTINUOUS
10
-0.615023
20
-0.114437
11
-0.611466
21
-0.119072
0
LINE
8
BLACK
6
CONTINUOUS
10
-0.611466
20
-0.119072
11
-0.61135
21
-0.119224
0
LINE
8
BLACK
6
CONTINUOUS
10
-0.61135
20
-0.119224
11
-0.611198
21
-0.11934
0
LINE
8
BLACK
6
CONTINUOUS
10
-0.611198
20
-0.11934
11
-0.606563
21
-0.122897
0
LINE
8
BLACK
6
CONTINUOUS
10
-0.606563
20
-0.122897
11
-0.606562
21
-0.122897
0
LINE
8
BLACK
6
CONTINUOUS
10
-0.606562
20
-0.122897
11
-0.606411
21
-0.123013
0
LINE
8
BLACK
6
CONTINUOUS
10
-0.606411
20
-0.123013
11
-0.60066
21
-0.125395
0
LINE
8
BLACK
6
CONTINUOUS
10
-0.60066
20
-0.125395
11
-0.600471
21
-0.12542
0
LINE
8
BLACK
6
CONTINUOUS
10
-0.600471
20
-0.12542
11
-0.600471
21
-0.12542
0
LINE
8
BLACK
6
CONTINUOUS
10
-0.600471
20
-0.12542
11
-0.594677
21
-0.126183
0
LINE
8
BLACK
6
CONTINUOUS
10
-0.594677
20
-0.126183
11
-0.594488
21
-0.126208
0
LINE
8
BLACK
6
CONTINUOUS
10
-0.594488
20
-0.126208
11
-0.594299
21
-0.126183
0
LINE
8
BLACK
6
CONTINUOUS
10
-0.594299
20
-0.126183
11
-0.588506
21
-0.12542
0
LINE
8
BLACK
6
CONTINUOUS
10
-0.588506
20
-0.12542
11
-0.588506
21
-0.12542
0
LINE
8
BLACK
6
CONTINUOUS
10
-0.588506
20
-0.12542
11
-0.588316
21
-0.125395
0
LINE
8
BLACK
6
CONTINUOUS
10
-0.588316
20
-0.125395
11
-0.582565
21
-0.123013
0
LINE
8
BLACK
6
CONTINUOUS
10
-0.582565
20
-0.123013
11
-0.582414
21
-0.122897
0
LINE
8
BLACK
6
CONTINUOUS
10
-0.582414
20
-0.122897
11
-0.582414
21
-0.122897
0
LINE
8
BLACK
6
CONTINUOUS
10
-0.582414
20
-0.122897
11
-0.577778
21
-0.11934
0
LINE
8
BLACK
6
CONTINUOUS
10
-0.577778
20
-0.11934
11
-0.577627
21
-0.119224
0
LINE
8
BLACK
6
CONTINUOUS
10
-0.577627
20
-0.119224
11
-0.57751
21
-0.119072
0
LINE
8
BLACK
6
CONTINUOUS
10
-0.57751
20
-0.119072
11
-0.573953
21
-0.114437
0
LINE
8
BLACK
6
CONTINUOUS
10
-0.573953
20
-0.114437
11
-0.573953
21
-0.114436
0
LINE
8
BLACK
6
CONTINUOUS
10
-0.573953
20
-0.114436
11
-0.573837
21
-0.114285
0
LINE
8
BLACK
6
CONTINUOUS
10
-0.573837
20
-0.114285
11
-0.571455
21
-0.108534
0
LINE
8
BLACK
6
CONTINUOUS
10
-0.571455
20
-0.108534
11
-0.570959
21
-0.104767
0
LINE
8
BLACK
6
CONTINUOUS
10
-0.570959
20
-0.104767
11
-0.570667
21
-0.102551
0
LINE
8
BLACK
6
CONTINUOUS
10
-0.570667
20
-0.102551
11
-0.570642
21
-0.102362
0
LINE
8
BLACK
6
CONTINUOUS
10
-0.570642
20
-0.102362
11
-0.571068
21
-0.0991269
0
LINE
8
BLACK
6
CONTINUOUS
10
-0.571068
20
-0.0991269
11
-0.57143
21
-0.0963796
0
LINE
8
BLACK
6
CONTINUOUS
10
-0.57143
20
-0.0963796
11
-0.57143
21
-0.0963795
0
LINE
8
BLACK
6
CONTINUOUS
10
-0.57143
20
-0.0963795
11
-0.571455
21
-0.0961905
0
LINE
8
BLACK
6
CONTINUOUS
10
-0.571455
20
-0.0961905
11
-0.573837
21
-0.0904393
0
LINE
8
BLACK
6
CONTINUOUS
10
-0.573837
20
-0.0904393
11
-0.573953
21
-0.090288
0
LINE
8
BLACK
6
CONTINUOUS
10
-0.573953
20
-0.090288
11
-0.573953
21
-0.0902878
0
LINE
8
BLACK
6
CONTINUOUS
10
-0.573953
20
-0.0902878
11
-0.57751
21
-0.0856523
0
LINE
8
BLACK
6
CONTINUOUS
10
-0.57751
20
-0.0856523
11
-0.577627
21
-0.0855007
0
LINE
8
BLACK
6
CONTINUOUS
10
-0.577627
20
-0.0855007
11
-0.577778
21
-0.0853844
0
LINE
8
BLACK
6
CONTINUOUS
10
-0.577778
20
-0.0853844
11
-0.582414
21
-0.0818274
0
LINE
8
BLACK
6
CONTINUOUS
10
-0.582414
20
-0.0818274
11
-0.582414
21
-0.0818273
0
LINE
8
BLACK
6
CONTINUOUS
10
-0.582414
20
-0.0818273
11
-0.582565
21
-0.0817112
0
LINE
8
BLACK
6
CONTINUOUS
10
-0.582565
20
-0.0817112
11
-0.588316
21
-0.079329
0
LINE
8
BLACK
6
CONTINUOUS
10
-0.588316
20
-0.079329
11
-0.588506
21
-0.0793041
0
LINE
8
BLACK
6
CONTINUOUS
10
-0.588506
20
-0.0793041
11
-0.588506
21
-0.0793041
0
LINE
8
BLACK
6
CONTINUOUS
10
-0.588506
20
-0.0793041
11
-0.589347
21
-0.0791933
0
LINE
8
BLACK
6
CONTINUOUS
10
-0.589347
20
-0.0791933
11
-0.589731
21
-0.0791428
0
LINE
8
BLACK
6
CONTINUOUS
10
-0.589731
20
-0.0791428
11
-0.591498
21
-0.0782226
0
LINE
8
BLACK
6
CONTINUOUS
10
-0.591498
20
-0.0782226
11
-0.592264
21
-0.0762543
0
LINE
8
BLACK
6
CONTINUOUS
10
-0.592264
20
-0.0762543
11
-0.592264
21
0.0789998
0
LINE
8
BLACK
6
CONTINUOUS
10
-0.592264
20
0.0789998
11
-0.591582
21
0.0808725
0
LINE
8
BLACK
6
CONTINUOUS
10
-0.591582
20
0.0808725
11
-0.589856
21
0.081869
0
LINE
8
BLACK
6
CONTINUOUS
10
-0.589856
20
0.081869
11
-0.58935
21
0.0819132
0
LINE
8
BLACK
6
CONTINUOUS
10
-0.58935
20
0.0819132
11
-0.479284
21
0.0819132
0
LINE
8
BLACK
6
CONTINUOUS
10
-0.479284
20
0.0819132
11
-0.477412
21
0.0812316
0
LINE
8
BLACK
6
CONTINUOUS
10
-0.477412
20
0.0812316
11
-0.477224
21
0.08106
0
LINE
8
BLACK
6
CONTINUOUS
10
-0.477224
20
0.08106
11
-0.477135
21
0.0809709
0
LINE
8
BLACK
6
CONTINUOUS
10
-0.477135
20
0.0809709
11
-0.477019
21
0.0808194
0
LINE
8
BLACK
6
CONTINUOUS
10
-0.477019
20
0.0808194
11
-0.476867
21
0.0807031
0
LINE
8
BLACK
6
CONTINUOUS
10
-0.476867
20
0.0807031
11
-0.472232
21
0.0771461
0
LINE
8
BLACK
6
CONTINUOUS
10
-0.472232
20
0.0771461
11
-0.472232
21
0.0771461
0
LINE
8
BLACK
6
CONTINUOUS
10
-0.472232
20
0.0771461
11
-0.47208
21
0.0770299
0
LINE
8
BLACK
6
CONTINUOUS
10
-0.47208
20
0.0770299
11
-0.466329
21
0.0746477
0
LINE
8
BLACK
6
CONTINUOUS
10
-0.466329
20
0.0746477
11
-0.46614
21
0.0746228
0
LINE
8
BLACK
6
CONTINUOUS
10
-0.46614
20
0.0746228
11
-0.46614
21
0.0746228
0
LINE
8
BLACK
6
CONTINUOUS
10
-0.46614
20
0.0746228
11
-0.460347
21
0.0738601
0
LINE
8
BLACK
6
CONTINUOUS
10
-0.460347
20
0.0738601
11
-0.460157
21
0.0738352
0
LINE
8
BLACK
6
CONTINUOUS
10
-0.460157
20
0.0738352
11
-0.459968
21
0.0738601
0
LINE
8
BLACK
6
CONTINUOUS
10
-0.459968
20
0.0738601
11
-0.454175
21
0.0746228
0
LINE
8
BLACK
6
CONTINUOUS
10
-0.454175
20
0.0746228
11
-0.454175
21
0.0746228
0
LINE
8
BLACK
6
CONTINUOUS
10
-0.454175
20
0.0746228
11
-0.453986
21
0.0746477
0
LINE
8
BLACK
6
CONTINUOUS
10
-0.453986
20
0.0746477
11
-0.448235
21
0.0770299
0
LINE
8
BLACK
6
CONTINUOUS
10
-0.448235
20
0.0770299
11
-0.448083
21
0.0771461
0
LINE
8
BLACK
6
CONTINUOUS
10
-0.448083
20
0.0771461
11
-0.448083
21
0.0771461
0
LINE
8
BLACK
6
CONTINUOUS
10
-0.448083
20
0.0771461
11
-0.443448
21
0.0807031
0
LINE
8
BLACK
6
CONTINUOUS
10
-0.443448
20
0.0807031
11
-0.443448
21
0.0807031
0
LINE
8
BLACK
6
CONTINUOUS
10
-0.443448
20
0.0807031
11
-0.443296
21
0.0808194
0
LINE
8
BLACK
6
CONTINUOUS
10
-0.443296
20
0.0808194
11
-0.442582
21
0.0817503
0
LINE
8
BLACK
6
CONTINUOUS
10
-0.442582
20
0.0817503
11
-0.439623
21
0.0856066
0
LINE
8
BLACK
6
CONTINUOUS
10
-0.439623
20
0.0856066
11
-0.439623
21
0.0856067
0
LINE
8
BLACK
6
CONTINUOUS
10
-0.439623
20
0.0856067
11
-0.439506
21
0.0857581
0
LINE
8
BLACK
6
CONTINUOUS
10
-0.439506
20
0.0857581
11
-0.437124
21
0.0915092
0
LINE
8
BLACK
6
CONTINUOUS
10
-0.437124
20
0.0915092
11
-0.436842
21
0.093652
0
LINE
8
BLACK
6
CONTINUOUS
10
-0.436842
20
0.093652
11
-0.436337
21
0.0974917
0
LINE
8
BLACK
6
CONTINUOUS
10
-0.436337
20
0.0974917
11
-0.436312
21
0.0976809
0
LINE
8
BLACK
6
CONTINUOUS
10
-0.436312
20
0.0976809
11
-0.436807
21
0.101447
0
LINE
8
BLACK
6
CONTINUOUS
10
-0.436807
20
0.101447
11
-0.437099
21
0.103664
0
LINE
8
BLACK
6
CONTINUOUS
10
-0.437099
20
0.103664
11
-0.437099
21
0.103664
0
LINE
8
BLACK
6
CONTINUOUS
10
-0.437099
20
0.103664
11
-0.437124
21
0.103853
0
LINE
8
BLACK
6
CONTINUOUS
10
-0.437124
20
0.103853
11
-0.439506
21
0.109604
0
LINE
8
BLACK
6
CONTINUOUS
10
-0.439506
20
0.109604
11
-0.439623
21
0.109755
0
LINE
8
BLACK
6
CONTINUOUS
10
-0.439623
20
0.109755
11
-0.439623
21
0.109755
0
LINE
8
BLACK
6
CONTINUOUS
10
-0.439623
20
0.109755
11
-0.44318
21
0.114391
0
LINE
8
BLACK
6
CONTINUOUS
10
-0.44318
20
0.114391
11
-0.443296
21
0.114542
0
LINE
8
BLACK
6
CONTINUOUS
10
-0.443296
20
0.114542
11
-0.444436
21
0.115417
0
LINE
8
BLACK
6
CONTINUOUS
10
-0.444436
20
0.115417
11
-0.448083
21
0.118216
0
LINE
8
BLACK
6
CONTINUOUS
10
-0.448083
20
0.118216
11
-0.448083
21
0.118216
0
LINE
8
BLACK
6
CONTINUOUS
10
-0.448083
20
0.118216
11
-0.448235
21
0.118332
0
LINE
8
BLACK
6
CONTINUOUS
10
-0.448235
20
0.118332
11
-0.453986
21
0.120714
0
LINE
8
BLACK
6
CONTINUOUS
10
-0.453986
20
0.120714
11
-0.454175
21
0.120739
0
LINE
8
BLACK
6
CONTINUOUS
10
-0.454175
20
0.120739
11
-0.454175
21
0.120739
0
LINE
8
BLACK
6
CONTINUOUS
10
-0.454175
20
0.120739
11
-0.459968
21
0.121502
0
LINE
8
BLACK
6
CONTINUOUS
10
-0.459968
20
0.121502
11
-0.460157
21
0.121527
0
LINE
8
BLACK
6
CONTINUOUS
10
-0.460157
20
0.121527
11
-0.460347
21
0.121502
0
LINE
8
BLACK
6
CONTINUOUS
10
-0.460347
20
0.121502
11
-0.46614
21
0.120739
0
LINE
8
BLACK
6
CONTINUOUS
10
-0.46614
20
0.120739
11
-0.46614
21
0.120739
0
LINE
8
BLACK
6
CONTINUOUS
10
-0.46614
20
0.120739
11
-0.466329
21
0.120714
0
LINE
8
BLACK
6
CONTINUOUS
10
-0.466329
20
0.120714
11
-0.47208
21
0.118332
0
LINE
8
BLACK
6
CONTINUOUS
10
-0.47208
20
0.118332
11
-0.472232
21
0.118216
0
LINE
8
BLACK
6
CONTINUOUS
10
-0.472232
20
0.118216
11
-0.472232
21
0.118216
0
LINE
8
BLACK
6
CONTINUOUS
10
-0.472232
20
0.118216
11
-0.475115
21
0.116003
0
LINE
8
BLACK
6
CONTINUOUS
10
-0.475115
20
0.116003
11
-0.477019
21
0.114542
0
LINE
8
BLACK
6
CONTINUOUS
10
-0.477019
20
0.114542
11
-0.477135
21
0.114391
0
LINE
8
BLACK
6
CONTINUOUS
10
-0.477135
20
0.114391
11
-0.477224
21
0.114302
0
LINE
8
BLACK
6
CONTINUOUS
10
-0.477224
20
0.114302
11
-0.47903
21
0.11346
0
LINE
8
BLACK
6
CONTINUOUS
10
-0.47903
20
0.11346
11
-0.479284
21
0.113449
0
LINE
8
BLACK
6
CONTINUOUS
10
-0.479284
20
0.113449
11
-0.590174
21
0.113449
0
LINE
8
BLACK
6
CONTINUOUS
10
-0.590174
20
0.113449
11
-0.592047
21
0.11413
0
LINE
8
BLACK
6
CONTINUOUS
10
-0.592047
20
0.11413
11
-0.592838
21
0.115283
0
LINE
8
BLACK
6
CONTINUOUS
10
-0.592838
20
0.115283
11
-0.592856
21
0.115274
0
LINE
8
BLACK
6
CONTINUOUS
10
-0.592856
20
0.115274
11
-0.592869
21
0.1153
0
LINE
8
BLACK
6
CONTINUOUS
10
-0.592869
20
0.1153
11
-0.592897
21
0.115369
0
LINE
8
BLACK
6
CONTINUOUS
10
-0.592897
20
0.115369
11
-0.592913
21
0.115392
0
LINE
8
BLACK
6
CONTINUOUS
10
-0.592913
20
0.115392
11
-0.592943
21
0.115455
0
LINE
8
BLACK
6
CONTINUOUS
10
-0.592943
20
0.115455
11
-0.592954
21
0.115488
0
LINE
8
BLACK
6
CONTINUOUS
10
-0.592954
20
0.115488
11
-0.592983
21
0.115576
0
LINE
8
BLACK
6
CONTINUOUS
10
-0.592983
20
0.115576
11
-0.592987
21
0.115588
0
LINE
8
BLACK
6
CONTINUOUS
10
-0.592987
20
0.115588
11
-0.592993
21
0.115602
0
LINE
8
BLACK
6
CONTINUOUS
10
-0.592993
20
0.115602
11
-0.593031
21
0.11581
0
LINE
8
BLACK
6
CONTINUOUS
10
-0.593031
20
0.11581
11
-0.59411
21
0.117887
0
LINE
8
BLACK
6
CONTINUOUS
10
-0.59411
20
0.117887
11
-0.59415
21
0.117969
0
LINE
8
BLACK
6
CONTINUOUS
10
-0.59415
20
0.117969
11
-0.595071
21
0.119886
0
LINE
8
BLACK
6
CONTINUOUS
10
-0.595071
20
0.119886
11
-0.595071
21
0.119886
0
LINE
8
BLACK
6
CONTINUOUS
10
-0.595071
20
0.119886
11
-0.595165
21
0.120082
0
LINE
8
BLACK
6
CONTINUOUS
10
-0.595165
20
0.120082
11
-0.595309
21
0.120237
0
LINE
8
BLACK
6
CONTINUOUS
10
-0.595309
20
0.120237
11
-0.59533
21
0.120273
0
LINE
8
BLACK
6
CONTINUOUS
10
-0.59533
20
0.120273
11
-0.595412
21
0.120395
0
LINE
8
BLACK
6
CONTINUOUS
10
-0.595412
20
0.120395
11
-0.595489
21
0.120543
0
LINE
8
BLACK
6
CONTINUOUS
10
-0.595489
20
0.120543
11
-0.595658
21
0.120741
0
LINE
8
BLACK
6
CONTINUOUS
10
-0.595658
20
0.120741
11
-0.597153
21
0.122236
0
LINE
8
BLACK
6
CONTINUOUS
10
-0.597153
20
0.122236
11
-0.597233
21
0.122319
0
LINE
8
BLACK
6
CONTINUOUS
10
-0.597233
20
0.122319
11
-0.598638
21
0.123838
0
LINE
8
BLACK
6
CONTINUOUS
10
-0.598638
20
0.123838
11
-0.598785
21
0.123998
0
LINE
8
BLACK
6
CONTINUOUS
10
-0.598785
20
0.123998
11
-0.598974
21
0.124108
0
LINE
8
BLACK
6
CONTINUOUS
10
-0.598974
20
0.124108
11
-0.599106
21
0.124214
0
LINE
8
BLACK
6
CONTINUOUS
10
-0.599106
20
0.124214
11
-0.599345
21
0.124427
0
LINE
8
BLACK
6
CONTINUOUS
10
-0.599345
20
0.124427
11
-0.705643
21
0.230725
0
LINE
8
BLACK
6
CONTINUOUS
10
-0.705643
20
0.230725
11
-0.706471
21
0.232405
0
LINE
8
BLACK
6
CONTINUOUS
10
-0.706471
20
0.232405
11
-0.706618
21
0.233523
0
LINE
8
BLACK
6
CONTINUOUS
10
-0.706618
20
0.233523
11
-0.706967
21
0.236172
0
LINE
8
BLACK
6
CONTINUOUS
10
-0.706967
20
0.236172
11
-0.709349
21
0.241923
0
LINE
8
BLACK
6
CONTINUOUS
10
-0.709349
20
0.241923
11
-0.709465
21
0.242074
0
LINE
8
BLACK
6
CONTINUOUS
10
-0.709465
20
0.242074
11
-0.709465
21
0.242074
0
LINE
8
BLACK
6
CONTINUOUS
10
-0.709465
20
0.242074
11
-0.713022
21
0.24671
0
LINE
8
BLACK
6
CONTINUOUS
10
-0.713022
20
0.24671
11
-0.713139
21
0.246861
0
LINE
8
BLACK
6
CONTINUOUS
10
-0.713139
20
0.246861
11
-0.71329
21
0.246978
0
LINE
8
BLACK
6
CONTINUOUS
10
-0.71329
20
0.246978
11
-0.715951
21
0.24902
0
LINE
8
BLACK
6
CONTINUOUS
10
-0.715951
20
0.24902
11
-0.717926
21
0.250535
0
LINE
8
BLACK
6
CONTINUOUS
10
-0.717926
20
0.250535
11
-0.717926
21
0.250535
0
LINE
8
BLACK
6
CONTINUOUS
10
-0.717926
20
0.250535
11
-0.718077
21
0.250651
0
LINE
8
BLACK
6
CONTINUOUS
10
-0.718077
20
0.250651
11
-0.723828
21
0.253033
0
LINE
8
BLACK
6
CONTINUOUS
10
-0.723828
20
0.253033
11
-0.724017
21
0.253058
0
LINE
8
BLACK
6
CONTINUOUS
10
-0.724017
20
0.253058
11
-0.724017
21
0.253058
0
LINE
8
BLACK
6
CONTINUOUS
10
-0.724017
20
0.253058
11
-0.729811
21
0.253821
0
LINE
8
BLACK
6
CONTINUOUS
10
-0.729811
20
0.253821
11
-0.73
21
0.253846
0
LINE
8
BLACK
6
CONTINUOUS
10
-0.73
20
0.253846
11
-0.730189
21
0.253821
0
LINE
8
BLACK
6
CONTINUOUS
10
-0.730189
20
0.253821
11
-0.735983
21
0.253058
0
LINE
8
BLACK
6
CONTINUOUS
10
-0.735983
20
0.253058
11
-0.735983
21
0.253058
0
LINE
8
BLACK
6
CONTINUOUS
10
-0.735983
20
0.253058
11
-0.736172
21
0.253033
0
LINE
8
BLACK
6
CONTINUOUS
10
-0.736172
20
0.253033
11
-0.741923
21
0.250651
0
LINE
8
BLACK
6
CONTINUOUS
10
-0.741923
20
0.250651
11
-0.742074
21
0.250535
0
LINE
8
BLACK
6
CONTINUOUS
10
-0.742074
20
0.250535
11
-0.742074
21
0.250535
0
LINE
8
BLACK
6
CONTINUOUS
10
-0.742074
20
0.250535
11
-0.74671
21
0.246978
0
LINE
8
BLACK
6
CONTINUOUS
10
-0.74671
20
0.246978
11
-0.746861
21
0.246861
0
LINE
8
BLACK
6
CONTINUOUS
10
-0.746861
20
0.246861
11
-0.746978
21
0.24671
0
LINE
8
BLACK
6
CONTINUOUS
10
-0.746978
20
0.24671
11
-0.750535
21
0.242074
0
LINE
8
BLACK
6
CONTINUOUS
10
-0.750535
20
0.242074
11
-0.750535
21
0.242074
0
LINE
8
BLACK
6
CONTINUOUS
10
-0.750535
20
0.242074
11
-0.750651
21
0.241923
0
LINE
8
BLACK
6
CONTINUOUS
10
-0.750651
20
0.241923
11
-0.753033
21
0.236172
0
LINE
8
BLACK
6
CONTINUOUS
10
-0.753033
20
0.236172
11
-0.753058
21
0.235983
0
LINE
8
BLACK
6
CONTINUOUS
10
-0.753058
20
0.235983
11
-0.753058
21
0.235983
0
LINE
8
BLACK
6
CONTINUOUS
10
-0.753058
20
0.235983
11
-0.753572
21
0.232079
0
LINE
8
BLACK
6
CONTINUOUS
10
-0.753572
20
0.232079
11
-0.753846
21
0.23
0
LINE
8
BLACK
6
CONTINUOUS
10
-0.753846
20
0.23
11
-0.753821
21
0.229811
0
LINE
8
BLACK
6
CONTINUOUS
10
-0.753821
20
0.229811
11
-0.75321
21
0.225174
0
LINE
8
BLACK
6
CONTINUOUS
10
-0.555134
20
0.0249773
11
-0.550744
21
0.0227404
0
LINE
8
BLACK
6
CONTINUOUS
10
-0.550744
20
0.0227404
11
-0.54726
21
0.0192565
0
LINE
8
BLACK
6
CONTINUOUS
10
-0.54726
20
0.0192565
11
-0.545023
21
0.0148664
0
LINE
8
BLACK
6
CONTINUOUS
10
-0.545023
20
0.0148664
11
-0.544252
21
0.01
0
LINE
8
BLACK
6
CONTINUOUS
10
-0.544252
20
0.01
11
-0.544502
21
0.00842142
0
LINE
8
BLACK
6
CONTINUOUS
10
-0.544502
20
0.00842142
11
-0.529595
21
-0.00648559
0
LINE
8
BLACK
6
CONTINUOUS
10
-0.529595
20
-0.00648559
11
-0.527461
21
-0.00967874
0
LINE
8
BLACK
6
CONTINUOUS
10
-0.527461
20
-0.00967874
11
-0.526712
21
-0.0134453
0
LINE
8
BLACK
6
CONTINUOUS
10
-0.526712
20
-0.0134453
11
-0.526712
21
-0.0134455
0
LINE
8
BLACK
6
CONTINUOUS
10
-0.526712
20
-0.0134455
11
-0.526712
21
-0.221818
0
LINE
8
BLACK
6
CONTINUOUS
10
-0.526712
20
-0.221818
11
-0.525023
21
-0.225134
0
LINE
8
BLACK
6
CONTINUOUS
10
-0.525023
20
-0.225134
11
-0.524252
21
-0.23
0
LINE
8
BLACK
6
CONTINUOUS
10
-0.524252
20
-0.23
11
-0.525023
21
-0.234866
0
LINE
8
BLACK
6
CONTINUOUS
10
-0.525023
20
-0.234866
11
-0.52726
21
-0.239256
0
LINE
8
BLACK
6
CONTINUOUS
10
-0.52726
20
-0.239256
11
-0.530744
21
-0.24274
0
LINE
8
BLACK
6
CONTINUOUS
10
-0.530744
20
-0.24274
11
-0.535134
21
-0.244977
0
LINE
8
BLACK
6
CONTINUOUS
10
-0.535134
20
-0.244977
11
-0.54
21
-0.245748
0
LINE
8
BLACK
6
CONTINUOUS
10
-0.54
20
-0.245748
11
-0.544866
21
-0.244977
0
LINE
8
BLACK
6
CONTINUOUS
10
-0.544866
20
-0.244977
11
-0.549256
21
-0.24274
0
LINE
8
BLACK
6
CONTINUOUS
10
-0.549256
20
-0.24274
11
-0.55274
21
-0.239256
0
LINE
8
BLACK
6
CONTINUOUS
10
-0.55274
20
-0.239256
11
-0.554977
21
-0.234866
0
LINE
8
BLACK
6
CONTINUOUS
10
-0.554977
20
-0.234866
11
-0.555748
21
-0.23
0
LINE
8
BLACK
6
CONTINUOUS
10
-0.555748
20
-0.23
11
-0.554977
21
-0.225134
0
LINE
8
BLACK
6
CONTINUOUS
10
-0.554977
20
-0.225134
11
-0.55274
21
-0.220744
0
LINE
8
BLACK
6
CONTINUOUS
10
-0.55274
20
-0.220744
11
-0.549256
21
-0.21726
0
LINE
8
BLACK
6
CONTINUOUS
10
-0.549256
20
-0.21726
11
-0.546397
21
-0.215803
0
LINE
8
BLACK
6
CONTINUOUS
10
-0.546397
20
-0.215803
11
-0.546397
21
-0.0175222
0
LINE
8
BLACK
6
CONTINUOUS
10
-0.546397
20
-0.0175222
11
-0.558421
21
-0.00549803
0
LINE
8
BLACK
6
CONTINUOUS
10
-0.558421
20
-0.00549803
11
-0.56
21
-0.00574803
0
LINE
8
BLACK
6
CONTINUOUS
10
-0.56
20
-0.00574803
11
-0.564866
21
-0.00497728
0
LINE
8
BLACK
6
CONTINUOUS
10
-0.564866
20
-0.00497728
11
-0.569256
21
-0.00274043
0
LINE
8
BLACK
6
CONTINUOUS
10
-0.569256
20
-0.00274043
11
-0.57274
21
0.000743543
0
LINE
8
BLACK
6
CONTINUOUS
10
-0.57274
20
0.000743543
11
-0.574977
21
0.00513358
0
LINE
8
BLACK
6
CONTINUOUS
10
-0.574977
20
0.00513358
11
-0.575748
21
0.01
0
LINE
8
BLACK
6
CONTINUOUS
10
-0.575748
20
0.01
11
-0.574977
21
0.0148664
0
LINE
8
BLACK
6
CONTINUOUS
10
-0.574977
20
0.0148664
11
-0.57274
21
0.0192565
0
LINE
8
BLACK
6
CONTINUOUS
10
-0.57274
20
0.0192565
11
-0.569256
21
0.0227404
0
LINE
8
BLACK
6
CONTINUOUS
10
-0.569256
20
0.0227404
11
-0.564866
21
0.0249773
0
LINE
8
BLACK
6
CONTINUOUS
10
-0.564866
20
0.0249773
11
-0.56
21
0.025748
0
LINE
8
BLACK
6
CONTINUOUS
10
-0.56
20
0.025748
11
-0.555134
21
0.0249773
0
LINE
8
BLACK
6
CONTINUOUS
10
-0.725134
20
0.244977
11
-0.720744
21
0.24274
0
LINE
8
BLACK
6
CONTINUOUS
10
-0.720744
20
0.24274
11
-0.71726
21
0.239256
0
LINE
8
BLACK
6
CONTINUOUS
10
-0.71726
20
0.239256
11
-0.715023
21
0.234866
0
LINE
8
BLACK
6
CONTINUOUS
10
-0.715023
20
0.234866
11
-0.714252
21
0.23
0
LINE
8
BLACK
6
CONTINUOUS
10
-0.714252
20
0.23
11
-0.714502
21
0.228421
0
LINE
8
BLACK
6
CONTINUOUS
10
-0.714502
20
0.228421
11
-0.60304
21
0.11696
0
LINE
8
BLACK
6
CONTINUOUS
10
-0.60304
20
0.11696
11
-0.600907
21
0.113767
0
LINE
8
BLACK
6
CONTINUOUS
10
-0.600907
20
0.113767
11
-0.600157
21
0.11
0
LINE
8
BLACK
6
CONTINUOUS
10
-0.600157
20
0.11
11
-0.600157
21
0.105555
0
LINE
8
BLACK
6
CONTINUOUS
10
-0.600157
20
0.105555
11
-0.473602
21
0.105555
0
LINE
8
BLACK
6
CONTINUOUS
10
-0.473602
20
0.105555
11
-0.472898
21
0.106937
0
LINE
8
BLACK
6
CONTINUOUS
10
-0.472898
20
0.106937
11
-0.469414
21
0.110421
0
LINE
8
BLACK
6
CONTINUOUS
10
-0.469414
20
0.110421
11
-0.465024
21
0.112658
0
LINE
8
BLACK
6
CONTINUOUS
10
-0.465024
20
0.112658
11
-0.460157
21
0.113429
0
LINE
8
BLACK
6
CONTINUOUS
10
-0.460157
20
0.113429
11
-0.455291
21
0.112658
0
LINE
8
BLACK
6
CONTINUOUS
10
-0.455291
20
0.112658
11
-0.450901
21
0.110421
0
LINE
8
BLACK
6
CONTINUOUS
10
-0.450901
20
0.110421
11
-0.447417
21
0.106937
0
LINE
8
BLACK
6
CONTINUOUS
10
-0.447417
20
0.106937
11
-0.44518
21
0.102547
0
LINE
8
BLACK
6
CONTINUOUS
10
-0.44518
20
0.102547
11
-0.444409
21
0.0976809
0
LINE
8
BLACK
6
CONTINUOUS
10
-0.444409
20
0.0976809
11
-0.44518
21
0.0928145
0
LINE
8
BLACK
6
CONTINUOUS
10
-0.44518
20
0.0928145
11
-0.447417
21
0.0884245
0
LINE
8
BLACK
6
CONTINUOUS
10
-0.447417
20
0.0884245
11
-0.450901
21
0.0849405
0
LINE
8
BLACK
6
CONTINUOUS
10
-0.450901
20
0.0849405
11
-0.455291
21
0.0827037
0
LINE
8
BLACK
6
CONTINUOUS
10
-0.455291
20
0.0827037
11
-0.460157
21
0.0819329
0
LINE
8
BLACK
6
CONTINUOUS
10
-0.460157
20
0.0819329
11
-0.465024
21
0.0827037
0
LINE
8
BLACK
6
CONTINUOUS
10
-0.465024
20
0.0827037
11
-0.469414
21
0.0849405
0
LINE
8
BLACK
6
CONTINUOUS
10
-0.469414
20
0.0849405
11
-0.472898
21
0.0884245
0
LINE
8
BLACK
6
CONTINUOUS
10
-0.472898
20
0.0884245
11
-0.473602
21
0.0898069
0
LINE
8
BLACK
6
CONTINUOUS
10
-0.473602
20
0.0898069
11
-0.600157
21
0.0898069
0
LINE
8
BLACK
6
CONTINUOUS
10
-0.600157
20
0.0898069
11
-0.600157
21
-0.0827735
0
LINE
8
BLACK
6
CONTINUOUS
10
-0.600157
20
-0.0827735
11
-0.596067
21
-0.0868642
0
LINE
8
BLACK
6
CONTINUOUS
10
-0.596067
20
-0.0868642
11
-0.594488
21
-0.0866142
0
LINE
8
BLACK
6
CONTINUOUS
10
-0.594488
20
-0.0866142
11
-0.589622
21
-0.0873849
0
LINE
8
BLACK
6
CONTINUOUS
10
-0.589622
20
-0.0873849
11
-0.585232
21
-0.0896218
0
LINE
8
BLACK
6
CONTINUOUS
10
-0.585232
20
-0.0896218
11
-0.581748
21
-0.0931057
0
LINE
8
BLACK
6
CONTINUOUS
10
-0.581748
20
-0.0931057
11
-0.579511
21
-0.0974958
0
LINE
8
BLACK
6
CONTINUOUS
10
-0.579511
20
-0.0974958
11
-0.57874
21
-0.102362
0
LINE
8
BLACK
6
CONTINUOUS
10
-0.57874
20
-0.102362
11
-0.579511
21
-0.107229
0
LINE
8
BLACK
6
CONTINUOUS
10
-0.579511
20
-0.107229
11
-0.581748
21
-0.111619
0
LINE
8
BLACK
6
CONTINUOUS
10
-0.581748
20
-0.111619
11
-0.585232
21
-0.115103
0
LINE
8
BLACK
6
CONTINUOUS
10
-0.585232
20
-0.115103
11
-0.589622
21
-0.117339
0
LINE
8
BLACK
6
CONTINUOUS
10
-0.589622
20
-0.117339
11
-0.594488
21
-0.11811
0
LINE
8
BLACK
6
CONTINUOUS
10
-0.594488
20
-0.11811
11
-0.599355
21
-0.117339
0
LINE
8
BLACK
6
CONTINUOUS
10
-0.599355
20
-0.117339
11
-0.603745
21
-0.115103
0
LINE
8
BLACK
6
CONTINUOUS
10
-0.603745
20
-0.115103
11
-0.607229
21
-0.111619
0
LINE
8
BLACK
6
CONTINUOUS
10
-0.607229
20
-0.111619
11
-0.609465
21
-0.107229
0
LINE
8
BLACK
6
CONTINUOUS
10
-0.609465
20
-0.107229
11
-0.610236
21
-0.102362
0
LINE
8
BLACK
6
CONTINUOUS
10
-0.610236
20
-0.102362
11
-0.609986
21
-0.100784
0
LINE
8
BLACK
6
CONTINUOUS
10
-0.609986
20
-0.100784
11
-0.61696
21
-0.0938101
0
LINE
8
BLACK
6
CONTINUOUS
10
-0.61696
20
-0.0938101
11
-0.619093
21
-0.090617
0
LINE
8
BLACK
6
CONTINUOUS
10
-0.619093
20
-0.090617
11
-0.619843
21
-0.0868504
0
LINE
8
BLACK
6
CONTINUOUS
10
-0.619843
20
-0.0868504
11
-0.619843
21
0.105923
0
LINE
8
BLACK
6
CONTINUOUS
10
-0.619843
20
0.105923
11
-0.728421
21
0.214502
0
LINE
8
BLACK
6
CONTINUOUS
10
-0.728421
20
0.214502
11
-0.73
21
0.214252
0
LINE
8
BLACK
6
CONTINUOUS
10
-0.73
20
0.214252
11
-0.734866
21
0.215023
0
LINE
8
BLACK
6
CONTINUOUS
10
-0.734866
20
0.215023
11
-0.739256
21
0.21726
0
LINE
8
BLACK
6
CONTINUOUS
10
-0.739256
20
0.21726
11
-0.74274
21
0.220744
0
LINE
8
BLACK
6
CONTINUOUS
10
-0.74274
20
0.220744
11
-0.744977
21
0.225134
0
LINE
8
BLACK
6
CONTINUOUS
10
-0.744977
20
0.225134
11
-0.745748
21
0.23
0
LINE
8
BLACK
6
CONTINUOUS
10
-0.745748
20
0.23
11
-0.744977
21
0.234866
0
LINE
8
BLACK
6
CONTINUOUS
10
-0.744977
20
0.234866
11
-0.74274
21
0.239256
0
LINE
8
BLACK
6
CONTINUOUS
10
-0.74274
20
0.239256
11
-0.739256
21
0.24274
0
LINE
8
BLACK
6
CONTINUOUS
10
-0.739256
20
0.24274
11
-0.734866
21
0.244977
0
LINE
8
BLACK
6
CONTINUOUS
10
-0.734866
20
0.244977
11
-0.73
21
0.245748
0
LINE
8
BLACK
6
CONTINUOUS
10
-0.73
20
0.245748
11
-0.725134
21
0.244977
0
LINE
8
BLACK
6
CONTINUOUS
10
-0.149348
20
0.235792
11
-0.153114
21
0.235043
0
LINE
8
BLACK
6
CONTINUOUS
10
-0.153114
20
0.235043
11
-0.496791
21
0.235043
0
LINE
8
BLACK
6
CONTINUOUS
10
-0.496791
20
0.235043
11
-0.498756
21
0.234042
0
LINE
8
BLACK
6
CONTINUOUS
10
-0.498756
20
0.234042
11
-0.503622
21
0.233271
0
LINE
8
BLACK
6
CONTINUOUS
10
-0.503622
20
0.233271
11
-0.508488
21
0.234042
0
LINE
8
BLACK
6
CONTINUOUS
10
-0.508488
20
0.234042
11
-0.512879
21
0.236279
0
LINE
8
BLACK
6
CONTINUOUS
10
-0.512879
20
0.236279
11
-0.516362
21
0.239763
0
LINE
8
BLACK
6
CONTINUOUS
10
-0.516362
20
0.239763
11
-0.518599
21
0.244153
0
LINE
8
BLACK
6
CONTINUOUS
10
-0.518599
20
0.244153
11
-0.51937
21
0.24902
0
LINE
8
BLACK
6
CONTINUOUS
10
-0.51937
20
0.24902
11
-0.518599
21
0.253886
0
LINE
8
BLACK
6
CONTINUOUS
10
-0.518599
20
0.253886
11
-0.516362
21
0.258276
0
LINE
8
BLACK
6
CONTINUOUS
10
-0.516362
20
0.258276
11
-0.512879
21
0.26176
0
LINE
8
BLACK
6
CONTINUOUS
10
-0.512879
20
0.26176
11
-0.508488
21
0.263997
0
LINE
8
BLACK
6
CONTINUOUS
10
-0.508488
20
0.263997
11
-0.503622
21
0.264768
0
LINE
8
BLACK
6
CONTINUOUS
10
-0.503622
20
0.264768
11
-0.498756
21
0.263997
0
LINE
8
BLACK
6
CONTINUOUS
10
-0.498756
20
0.263997
11
-0.494366
21
0.26176
0
LINE
8
BLACK
6
CONTINUOUS
10
-0.494366
20
0.26176
11
-0.490882
21
0.258276
0
LINE
8
BLACK
6
CONTINUOUS
10
-0.490882
20
0.258276
11
-0.489074
21
0.254728
0
LINE
8
BLACK
6
CONTINUOUS
10
-0.489074
20
0.254728
11
-0.157191
21
0.254728
0
LINE
8
BLACK
6
CONTINUOUS
10
-0.157191
20
0.254728
11
-0.149498
21
0.262421
0
LINE
8
BLACK
6
CONTINUOUS
10
-0.149498
20
0.262421
11
-0.149748
21
0.264
0
LINE
8
BLACK
6
CONTINUOUS
10
-0.149748
20
0.264
11
-0.148977
21
0.268866
0
LINE
8
BLACK
6
CONTINUOUS
10
-0.148977
20
0.268866
11
-0.14674
21
0.273256
0
LINE
8
BLACK
6
CONTINUOUS
10
-0.14674
20
0.273256
11
-0.143256
21
0.27674
0
LINE
8
BLACK
6
CONTINUOUS
10
-0.143256
20
0.27674
11
-0.138866
21
0.278977
0
LINE
8
BLACK
6
CONTINUOUS
10
-0.138866
20
0.278977
11
-0.134
21
0.279748
0
LINE
8
BLACK
6
CONTINUOUS
10
-0.134
20
0.279748
11
-0.129134
21
0.278977
0
LINE
8
BLACK
6
CONTINUOUS
10
-0.129134
20
0.278977
11
-0.124744
21
0.27674
0
LINE
8
BLACK
6
CONTINUOUS
10
-0.124744
20
0.27674
11
-0.121846
21
0.273843
0
LINE
8
BLACK
6
CONTINUOUS
10
-0.121846
20
0.273843
11
0.0296261
21
0.273843
0
LINE
8
BLACK
6
CONTINUOUS
10
0.0296261
20
0.273843
11
0.0333927
21
0.273093
0
LINE
8
BLACK
6
CONTINUOUS
10
0.0333927
20
0.273093
11
0.0352175
21
0.271874
0
LINE
8
BLACK
6
CONTINUOUS
10
0.0352175
20
0.271874
11
0.0835731
21
0.271874
0
LINE
8
BLACK
6
CONTINUOUS
10
0.0835731
20
0.271874
11
0.10693
21
0.295231
0
LINE
8
BLACK
6
CONTINUOUS
10
0.10693
20
0.295231
11
0.106299
21
0.299213
0
LINE
8
BLACK
6
CONTINUOUS
10
0.106299
20
0.299213
11
0.10707
21
0.304079
0
LINE
8
BLACK
6
CONTINUOUS
10
0.10707
20
0.304079
11
0.109307
21
0.308469
0
LINE
8
BLACK
6
CONTINUOUS
10
0.109307
20
0.308469
11
0.112791
21
0.311953
0
LINE
8
BLACK
6
CONTINUOUS
10
0.112791
20
0.311953
11
0.117181
21
0.31419
0
LINE
8
BLACK
6
CONTINUOUS
10
0.117181
20
0.31419
11
0.122047
21
0.314961
0
LINE
8
BLACK
6
CONTINUOUS
10
0.122047
20
0.314961
11
0.126914
21
0.31419
0
LINE
8
BLACK
6
CONTINUOUS
10
0.126914
20
0.31419
11
0.131304
21
0.311953
0
LINE
8
BLACK
6
CONTINUOUS
10
0.131304
20
0.311953
11
0.134788
21
0.308469
0
LINE
8
BLACK
6
CONTINUOUS
10
0.134788
20
0.308469
11
0.137025
21
0.304079
0
LINE
8
BLACK
6
CONTINUOUS
10
0.137025
20
0.304079
11
0.137795
21
0.299213
0
LINE
8
BLACK
6
CONTINUOUS
10
0.137795
20
0.299213
11
0.137025
21
0.294346
0
LINE
8
BLACK
6
CONTINUOUS
10
0.137025
20
0.294346
11
0.134788
21
0.289956
0
LINE
8
BLACK
6
CONTINUOUS
10
0.134788
20
0.289956
11
0.131304
21
0.286472
0
LINE
8
BLACK
6
CONTINUOUS
10
0.131304
20
0.286472
11
0.126914
21
0.284235
0
LINE
8
BLACK
6
CONTINUOUS
10
0.126914
20
0.284235
11
0.122047
21
0.283465
0
LINE
8
BLACK
6
CONTINUOUS
10
0.122047
20
0.283465
11
0.118065
21
0.284095
0
LINE
8
BLACK
6
CONTINUOUS
10
0.118065
20
0.284095
11
0.0923927
21
0.258423
0
LINE
8
BLACK
6
CONTINUOUS
10
0.0923927
20
0.258423
11
0.0912778
21
0.257724
0
LINE
8
BLACK
6
CONTINUOUS
10
0.0912778
20
0.257724
11
0.0902493
21
0.256905
0
LINE
8
BLACK
6
CONTINUOUS
10
0.0902493
20
0.256905
11
0.0898079
21
0.256804
0
LINE
8
BLACK
6
CONTINUOUS
10
0.0898079
20
0.256804
11
0.0894242
21
0.256564
0
LINE
8
BLACK
6
CONTINUOUS
10
0.0894242
20
0.256564
11
0.0881169
21
0.256418
0
LINE
8
BLACK
6
CONTINUOUS
10
0.0881169
20
0.256418
11
0.0868346
21
0.256126
0
LINE
8
BLACK
6
CONTINUOUS
10
0.0868346
20
0.256126
11
0.0352175
21
0.256126
0
LINE
8
BLACK
6
CONTINUOUS
10
0.0352175
20
0.256126
11
0.0333927
21
0.254907
0
LINE
8
BLACK
6
CONTINUOUS
10
0.0333927
20
0.254907
11
0.0296261
21
0.254157
0
LINE
8
BLACK
6
CONTINUOUS
10
0.0296261
20
0.254157
11
-0.121846
21
0.254157
0
LINE
8
BLACK
6
CONTINUOUS
10
-0.121846
20
0.254157
11
-0.124744
21
0.25126
0
LINE
8
BLACK
6
CONTINUOUS
10
-0.124744
20
0.25126
11
-0.129134
21
0.249023
0
LINE
8
BLACK
6
CONTINUOUS
10
-0.129134
20
0.249023
11
-0.134
21
0.248252
0
LINE
8
BLACK
6
CONTINUOUS
10
-0.134
20
0.248252
11
-0.135579
21
0.248502
0
LINE
8
BLACK
6
CONTINUOUS
10
-0.135579
20
0.248502
11
-0.146155
21
0.237926
0
LINE
8
BLACK
6
CONTINUOUS
10
-0.146155
20
0.237926
11
-0.149348
21
0.235792
0
LINE
8
BLACK
6
CONTINUOUS
10
0.0869597
20
-0.17304
11
0.118421
21
-0.204502
0
LINE
8
BLACK
6
CONTINUOUS
10
0.118421
20
-0.204502
11
0.12
21
-0.204252
0
LINE
8
BLACK
6
CONTINUOUS
10
0.12
20
-0.204252
11
0.124866
21
-0.205023
0
LINE
8
BLACK
6
CONTINUOUS
10
0.124866
20
-0.205023
11
0.129256
21
-0.20726
0
LINE
8
BLACK
6
CONTINUOUS
10
0.129256
20
-0.20726
11
0.13274
21
-0.210744
0
LINE
8
BLACK
6
CONTINUOUS
10
0.13274
20
-0.210744
11
0.134977
21
-0.215134
0
LINE
8
BLACK
6
CONTINUOUS
10
0.134977
20
-0.215134
11
0.135748
21
-0.22
0
LINE
8
BLACK
6
CONTINUOUS
10
0.135748
20
-0.22
11
0.134977
21
-0.224866
0
LINE
8
BLACK
6
CONTINUOUS
10
0.134977
20
-0.224866
11
0.13274
21
-0.229256
0
LINE
8
BLACK
6
CONTINUOUS
10
0.13274
20
-0.229256
11
0.129256
21
-0.23274
0
LINE
8
BLACK
6
CONTINUOUS
10
0.129256
20
-0.23274
11
0.124866
21
-0.234977
0
LINE
8
BLACK
6
CONTINUOUS
10
0.124866
20
-0.234977
11
0.12
21
-0.235748
0
LINE
8
BLACK
6
CONTINUOUS
10
0.12
20
-0.235748
11
0.115134
21
-0.234977
0
LINE
8
BLACK
6
CONTINUOUS
10
0.115134
20
-0.234977
11
0.110744
21
-0.23274
0
LINE
8
BLACK
6
CONTINUOUS
10
0.110744
20
-0.23274
11
0.10726
21
-0.229256
0
LINE
8
BLACK
6
CONTINUOUS
10
0.10726
20
-0.229256
11
0.105023
21
-0.224866
0
LINE
8
BLACK
6
CONTINUOUS
10
0.105023
20
-0.224866
11
0.104252
21
-0.22
0
LINE
8
BLACK
6
CONTINUOUS
10
0.104252
20
-0.22
11
0.104502
21
-0.218421
0
LINE
8
BLACK
6
CONTINUOUS
10
0.104502
20
-0.218421
11
0.0759231
21
-0.189843
0
LINE
8
BLACK
6
CONTINUOUS
10
0.0759231
20
-0.189843
11
-0.14
21
-0.189843
0
LINE
8
BLACK
6
CONTINUOUS
10
-0.14
20
-0.189843
11
-0.143767
21
-0.189093
0
LINE
8
BLACK
6
CONTINUOUS
10
-0.143767
20
-0.189093
11
-0.14696
21
-0.18696
0
LINE
8
BLACK
6
CONTINUOUS
10
-0.14696
20
-0.18696
11
-0.295779
21
-0.0381408
0
LINE
8
BLACK
6
CONTINUOUS
10
-0.295779
20
-0.0381408
11
-0.297912
21
-0.0349477
0
LINE
8
BLACK
6
CONTINUOUS
10
-0.297912
20
-0.0349477
11
-0.298661
21
-0.0311811
0
LINE
8
BLACK
6
CONTINUOUS
10
-0.298661
20
-0.0311811
11
-0.298661
21
-0.0125553
0
LINE
8
BLACK
6
CONTINUOUS
10
-0.298661
20
-0.0125553
11
-0.310472
21
-0.0125553
0
LINE
8
BLACK
6
CONTINUOUS
10
-0.310472
20
-0.0125553
11
-0.310472
21
0.0464998
0
LINE
8
BLACK
6
CONTINUOUS
10
-0.310472
20
0.0464998
11
-0.298661
21
0.0464998
0
LINE
8
BLACK
6
CONTINUOUS
10
-0.298661
20
0.0464998
11
-0.298661
21
0.0869564
0
LINE
8
BLACK
6
CONTINUOUS
10
-0.298661
20
0.0869564
11
-0.299256
21
0.0872596
0
LINE
8
BLACK
6
CONTINUOUS
10
-0.299256
20
0.0872596
11
-0.30274
21
0.0907435
0
LINE
8
BLACK
6
CONTINUOUS
10
-0.30274
20
0.0907435
11
-0.304977
21
0.0951336
0
LINE
8
BLACK
6
CONTINUOUS
10
-0.304977
20
0.0951336
11
-0.305748
21
0.1
0
LINE
8
BLACK
6
CONTINUOUS
10
-0.305748
20
0.1
11
-0.304977
21
0.104866
0
LINE
8
BLACK
6
CONTINUOUS
10
-0.304977
20
0.104866
11
-0.30274
21
0.109256
0
LINE
8
BLACK
6
CONTINUOUS
10
-0.30274
20
0.109256
11
-0.299256
21
0.11274
0
LINE
8
BLACK
6
CONTINUOUS
10
-0.299256
20
0.11274
11
-0.294866
21
0.114977
0
LINE
8
BLACK
6
CONTINUOUS
10
-0.294866
20
0.114977
11
-0.29
21
0.115748
0
LINE
8
BLACK
6
CONTINUOUS
10
-0.29
20
0.115748
11
-0.285134
21
0.114977
0
LINE
8
BLACK
6
CONTINUOUS
10
-0.285134
20
0.114977
11
-0.280744
21
0.11274
0
LINE
8
BLACK
6
CONTINUOUS
10
-0.280744
20
0.11274
11
-0.27726
21
0.109256
0
LINE
8
BLACK
6
CONTINUOUS
10
-0.27726
20
0.109256
11
-0.275023
21
0.104866
0
LINE
8
BLACK
6
CONTINUOUS
10
-0.275023
20
0.104866
11
-0.274252
21
0.1
0
LINE
8
BLACK
6
CONTINUOUS
10
-0.274252
20
0.1
11
-0.275023
21
0.0951336
0
LINE
8
BLACK
6
CONTINUOUS
10
-0.275023
20
0.0951336
11
-0.27726
21
0.0907435
0
LINE
8
BLACK
6
CONTINUOUS
10
-0.27726
20
0.0907435
11
-0.278976
21
0.0890267
0
LINE
8
BLACK
6
CONTINUOUS
10
-0.278976
20
0.0890267
11
-0.278976
21
0.0436567
0
LINE
8
BLACK
6
CONTINUOUS
10
-0.278976
20
0.0436567
11
-0.275878
21
0.0416487
0
LINE
8
BLACK
6
CONTINUOUS
10
-0.275878
20
0.0416487
11
-0.272235
21
0.0374205
0
LINE
8
BLACK
6
CONTINUOUS
10
-0.272235
20
0.0374205
11
-0.269925
21
0.0323397
0
LINE
8
BLACK
6
CONTINUOUS
10
-0.269925
20
0.0323397
11
-0.269134
21
0.0268148
0
LINE
8
BLACK
6
CONTINUOUS
10
-0.269134
20
0.0268148
11
-0.269134
21
0.00712976
0
LINE
8
BLACK
6
CONTINUOUS
10
-0.269134
20
0.00712976
11
-0.26914
21
0.00664882
0
LINE
8
BLACK
6
CONTINUOUS
10
-0.26914
20
0.00664882
11
-0.270066
21
0.00114484
0
LINE
8
BLACK
6
CONTINUOUS
10
-0.270066
20
0.00114484
11
-0.272499
21
-0.00387795
0
LINE
8
BLACK
6
CONTINUOUS
10
-0.272499
20
-0.00387795
11
-0.276245
21
-0.00801591
0
LINE
8
BLACK
6
CONTINUOUS
10
-0.276245
20
-0.00801591
11
-0.278976
21
-0.00969315
0
LINE
8
BLACK
6
CONTINUOUS
10
-0.278976
20
-0.00969315
11
-0.278976
21
-0.0271042
0
LINE
8
BLACK
6
CONTINUOUS
10
-0.278976
20
-0.0271042
11
-0.135923
21
-0.170157
0
LINE
8
BLACK
6
CONTINUOUS
10
-0.135923
20
-0.170157
11
0.08
21
-0.170157
0
LINE
8
BLACK
6
CONTINUOUS
10
0.08
20
-0.170157
11
0.0837666
21
-0.170907
0
LINE
8
BLACK
6
CONTINUOUS
10
0.0837666
20
-0.170907
11
0.0869597
21
-0.17304
0
LINE
8
BLACK
6
CONTINUOUS
10
0.258465
20
-0.133465
11
0.191535
21
-0.133465
0
LINE
8
BLACK
6
CONTINUOUS
10
0.191535
20
-0.133465
11
0.191535
21
-0.0665354
0
LINE
8
BLACK
6
CONTINUOUS
10
0.191535
20
-0.0665354
11
0.258465
21
-0.0665354
0
LINE
8
BLACK
6
CONTINUOUS
10
0.258465
20
-0.0665354
11
0.258465
21
-0.133465
0
LINE
8
BLACK
6
CONTINUOUS
10
0.235341
20
0.0318267
11
0.241732
21
0.0289812
0
LINE
8
BLACK
6
CONTINUOUS
10
0.241732
20
0.0289812
11
0.247392
21
0.024869
0
LINE
8
BLACK
6
CONTINUOUS
10
0.247392
20
0.024869
11
0.252073
21
0.01967
0
LINE
8
BLACK
6
CONTINUOUS
10
0.252073
20
0.01967
11
0.255571
21
0.0136113
0
LINE
8
BLACK
6
CONTINUOUS
10
0.255571
20
0.0136113
11
0.257733
21
0.00695768
0
LINE
8
BLACK
6
CONTINUOUS
10
0.257733
20
0.00695768
11
0.258465
21
0
0
LINE
8
BLACK
6
CONTINUOUS
10
0.258465
20
0
11
0.257733
21
-0.00695768
0
LINE
8
BLACK
6
CONTINUOUS
10
0.257733
20
-0.00695768
11
0.255571
21
-0.0136113
0
LINE
8
BLACK
6
CONTINUOUS
10
0.255571
20
-0.0136113
11
0.252073
21
-0.01967
0
LINE
8
BLACK
6
CONTINUOUS
10
0.252073
20
-0.01967
11
0.247392
21
-0.024869
0
LINE
8
BLACK
6
CONTINUOUS
10
0.247392
20
-0.024869
11
0.241732
21
-0.0289812
0
LINE
8
BLACK
6
CONTINUOUS
10
0.241732
20
-0.0289812
11
0.235341
21
-0.0318267
0
LINE
8
BLACK
6
CONTINUOUS
10
0.235341
20
-0.0318267
11
0.228498
21
-0.0332813
0
LINE
8
BLACK
6
CONTINUOUS
10
0.228498
20
-0.0332813
11
0.221502
21
-0.0332813
0
LINE
8
BLACK
6
CONTINUOUS
10
0.221502
20
-0.0332813
11
0.214659
21
-0.0318267
0
LINE
8
BLACK
6
CONTINUOUS
10
0.214659
20
-0.0318267
11
0.208268
21
-0.0289812
0
LINE
8
BLACK
6
CONTINUOUS
10
0.208268
20
-0.0289812
11
0.202608
21
-0.024869
0
LINE
8
BLACK
6
CONTINUOUS
10
0.202608
20
-0.024869
11
0.197927
21
-0.01967
0
LINE
8
BLACK
6
CONTINUOUS
10
0.197927
20
-0.01967
11
0.194429
21
-0.0136113
0
LINE
8
BLACK
6
CONTINUOUS
10
0.194429
20
-0.0136113
11
0.192267
21
-0.00695768
0
LINE
8
BLACK
6
CONTINUOUS
10
0.192267
20
-0.00695768
11
0.191535
21
0
0
LINE
8
BLACK
6
CONTINUOUS
10
0.191535
20
0
11
0.192267
21
0.00695768
0
LINE
8
BLACK
6
CONTINUOUS
10
0.192267
20
0.00695768
11
0.194429
21
0.0136113
0
LINE
8
BLACK
6
CONTINUOUS
10
0.194429
20
0.0136113
11
0.197927
21
0.01967
0
LINE
8
BLACK
6
CONTINUOUS
10
0.197927
20
0.01967
11
0.202608
21
0.024869
0
LINE
8
BLACK
6
CONTINUOUS
10
0.202608
20
0.024869
11
0.208268
21
0.0289812
0
LINE
8
BLACK
6
CONTINUOUS
10
0.208268
20
0.0289812
11
0.214659
21
0.0318267
0
LINE
8
BLACK
6
CONTINUOUS
10
0.214659
20
0.0318267
11
0.221502
21
0.0332813
0
LINE
8
BLACK
6
CONTINUOUS
10
0.221502
20
0.0332813
11
0.228498
21
0.0332813
0
LINE
8
BLACK
6
CONTINUOUS
10
0.228498
20
0.0332813
11
0.235341
21
0.0318267
0
CIRCLE
8
BLACK
10
-0.05
20
0.33
40
0.00787402
0
CIRCLE
8
BLACK
10
0.405984
20
-0.24287
40
0.00787402
0
CIRCLE
8
BLACK
10
-0.48
20
0.149886
40
0.00787402
0
CIRCLE
8
BLACK
10
-0.68
20
-0.33
40
0.00787402
0
CIRCLE
8
BLACK
10
-0.48
20
-0.330114
40
0.00787402
0
CIRCLE
8
BLACK
10
-0.8
20
0.13
40
0.00787402
0
CIRCLE
8
BLACK
10
-0.8
20
-0.25
40
0.00787402
0
CIRCLE
8
BLACK
10
-0.8
20
-0.13
40
0.00787402
0
CIRCLE
8
BLACK
10
-0.8
20
-0.21
40
0.00787402
0
CIRCLE
8
BLACK
10
-0.8
20
0.25
40
0.00787402
0
CIRCLE
8
BLACK
10
-0.8
20
-0.17
40
0.00787402
0
CIRCLE
8
BLACK
10
-0.8
20
0.21
40
0.00787402
0
CIRCLE
8
BLACK
10
-0.8
20
0.17
40
0.00787402
0
CIRCLE
8
BLACK
10
-0.64
20
0.334886
40
0.00787402
0
CIRCLE
8
BLACK
10
0.24
20
-0.18
40
0.00787402
0
CIRCLE
8
BLACK
10
0.449291
20
-0.199091
40
0.00787402
0
CIRCLE
8
BLACK
10
0.449291
20
-0.242555
40
0.00787402
0
CIRCLE
8
BLACK
10
0.449291
20
-0.155626
40
0.00787402
0
CIRCLE
8
BLACK
10
0.449291
20
0.325516
40
0.00787402
0
CIRCLE
8
BLACK
10
-0.09
20
0.149886
40
0.00787402
0
CIRCLE
8
BLACK
10
0.449291
20
-0.329484
40
0.00787402
0
CIRCLE
8
BLACK
10
0.449291
20
-0.28602
40
0.00787402
0
CIRCLE
8
BLACK
10
0.150079
20
0.123271
40
0.00787402
0
CIRCLE
8
BLACK
10
0.150079
20
0.0563424
40
0.00787402
0
CIRCLE
8
BLACK
10
0.449291
20
0.280516
40
0.00787402
0
CIRCLE
8
BLACK
10
-0.1
20
-0.330114
40
0.00787402
0
CIRCLE
8
BLACK
10
-0.67
20
0
40
0.00787402
0
CIRCLE
8
BLACK
10
-0.015748
20
0.145669
40
0.00787402
0
CIRCLE
8
BLACK
10
0.09
20
-0.33
40
0.00787402
0
CIRCLE
8
BLACK
10
-0.44
20
0.05
40
0.00787402
0
CIRCLE
8
BLACK
10
-0.5
20
-0.0201143
40
0.00787402
0
CIRCLE
8
BLACK
10
-0.09
20
-0.22
40
0.00787402
0
CIRCLE
8
BLACK
10
0.405984
20
-0.199563
40
0.00787402
0
CIRCLE
8
BLACK
10
-0.311024
20
-0.220472
40
0.00787402
0
CIRCLE
8
BLACK
10
-0.233937
20
-0.142713
40
0.00787402
0
CIRCLE
8
BLACK
10
-0.164882
20
-0.0538939
40
0.00787402
0
CIRCLE
8
BLACK
10
-0.5
20
0.0498857
40
0.00787402
0
CIRCLE
8
BLACK
10
-0.164882
20
0.0130353
40
0.00787402
0
CIRCLE
8
BLACK
10
0.118425
20
-0.0935002
40
0.00787402
0
CIRCLE
8
BLACK
10
-0.34
20
0.11
40
0.00787402
0
CIRCLE
8
BLACK
10
0.449291
20
0.20063
40
0.00787402
0
CIRCLE
8
BLACK
10
0.449291
20
0.24063
40
0.00787402
0
CIRCLE
8
BLACK
10
0.23
20
0.17
40
0.00787402
0
CIRCLE
8
BLACK
10
-0.3
20
-0.330114
40
0.00787402
0
CIRCLE
8
BLACK
10
-0.67
20
-0.05
40
0.00787402
0
CIRCLE
8
BLACK
10
-0.493
20
0.334886
40
0.00787402
0
CIRCLE
8
BLACK
10
0.15
20
-0.13
40
0.00787402
0
CIRCLE
8
BLACK
10
-0.733937
20
0.27461
40
0.00787402
0
CIRCLE
8
BLACK
10
-0.67
20
0.05
40
0.00787402
0
CIRCLE
8
BLACK
10
-0.69
20
0.334886
40
0.00787402
0
CIRCLE
8
BLACK
10
-0.14
20
-0.12
40
0.00787402
0
CIRCLE
8
BLACK
10
-0.2
20
-0.279528
40
0.00787402
0
CIRCLE
8
BLACK
10
-0.29
20
0.1
40
0.00787402
0
CIRCLE
8
BLACK
10
0.12
20
-0.22
40
0.00787402
0
CIRCLE
8
BLACK
10
-0.56
20
0.01
40
0.00787402
0
CIRCLE
8
BLACK
10
-0.503622
20
0.24902
40
0.00787402
0
CIRCLE
8
BLACK
10
-0.54
20
-0.23
40
0.00787402
0
CIRCLE
8
BLACK
10
0.122047
20
0.299213
40
0.00787402
0
CIRCLE
8
BLACK
10
-0.134
20
0.264
40
0.00787402
0
CIRCLE
8
BLACK
10
-0.594488
20
-0.102362
40
0.00787402
0
CIRCLE
8
BLACK
10
-0.73
20
0.23
40
0.00787402
0
CIRCLE
8
BLACK
10
-0.460157
20
0.0976809
40
0.00787402
0
CIRCLE
8
BLACK
10
-0.34
20
-0.0381458
40
0.00787402
  0
ENDSEC
  0
EOF
