  0
SECTION
  2
HEADER
  9
$ANGBASE
  50
0.0
  9
$ANGDIR
  70
1
  9
$MEASUREMENT
  70
0
  0
ENDSEC
  0
SECTION
  2
TABLES
  0
TABLE
  2
LTYPE
  70
4
  0
LTYPE
  5
40F
  2
CONTINUOUS
  70
0
  3
Solid line
  72
65
  73
0
  40
0.0
  0
LTYPE
  5
410
  2
DASHDOT
 70
0
  3
Dash Dot ____ _ ____ _
 72
65
 73
4
 40
2.0
 49
1.25
 49
-0.25
 49
0.25
 49
-0.25
  0
LTYPE
  5
411
  2
DASHED
 70
0
  3
Dashed __ __ __ __ __
 72
65
 73
2
 40
0.75
 49
0.5
 49
-0.25
  0
LTYPE
  5
43B
  2
DOTTED
 70
0
  3
Dotted .  .  .  .
 72
65
 73
2
 40
0.2
 49
0.0
 49
-0.2
  0
ENDTAB
  0
TABLE
  2
STYLE
  70
4
  0
STYLE
  2
KICAD
  70
0
  40
0
  41
1
  42
1
  50
0
  71
0
  3
isocp.shx
  0
STYLE
  2
KICADB
  70
0
  40
0
  41
1
  42
1
  50
0
  71
0
  3
isocp.shx
  0
STYLE
  2
KICADI
  70
0
  40
0
  41
1
  42
1
  50
15
  71
0
  3
isocp.shx
  0
STYLE
  2
KICADBI
  70
0
  40
0
  41
1
  42
1
  50
15
  71
0
  3
isocp.shx
  0
ENDTAB
  0
TABLE
  2
LAYER
  70
1
  0
LAYER
  2
BLACK
  70
0
  62
7
  6
CONTINUOUS
  0
ENDTAB
  0
ENDSEC
  0
SECTION
  2
ENTITIES
0
LINE
8
BLACK
6
CONTINUOUS
10
0.626761
20
0.377885
11
0.626891
21
0.377908
0
LINE
8
BLACK
6
CONTINUOUS
10
0.626891
20
0.377908
11
0.627004
21
0.377842
0
LINE
8
BLACK
6
CONTINUOUS
10
0.627004
20
0.377842
11
0.627388
21
0.377775
0
LINE
8
BLACK
6
CONTINUOUS
10
0.627388
20
0.377775
11
0.627976
21
0.377282
0
LINE
8
BLACK
6
CONTINUOUS
10
0.627976
20
0.377282
11
0.62864
21
0.376898
0
LINE
8
BLACK
6
CONTINUOUS
10
0.62864
20
0.376898
11
0.628731
21
0.376648
0
LINE
8
BLACK
6
CONTINUOUS
10
0.628731
20
0.376648
11
0.628935
21
0.376476
0
LINE
8
BLACK
6
CONTINUOUS
10
0.628935
20
0.376476
11
0.629068
21
0.375721
0
LINE
8
BLACK
6
CONTINUOUS
10
0.629068
20
0.375721
11
0.629331
21
0.375
0
LINE
8
BLACK
6
CONTINUOUS
10
0.629331
20
0.375
11
0.629331
21
-0.373031
0
LINE
8
BLACK
6
CONTINUOUS
10
0.629331
20
-0.373031
11
0.629263
21
-0.373415
0
LINE
8
BLACK
6
CONTINUOUS
10
0.629263
20
-0.373415
11
0.629286
21
-0.373544
0
LINE
8
BLACK
6
CONTINUOUS
10
0.629286
20
-0.373544
11
0.62922
21
-0.373658
0
LINE
8
BLACK
6
CONTINUOUS
10
0.62922
20
-0.373658
11
0.629153
21
-0.374041
0
LINE
8
BLACK
6
CONTINUOUS
10
0.629153
20
-0.374041
11
0.628659
21
-0.374629
0
LINE
8
BLACK
6
CONTINUOUS
10
0.628659
20
-0.374629
11
0.628276
21
-0.375293
0
LINE
8
BLACK
6
CONTINUOUS
10
0.628276
20
-0.375293
11
0.628026
21
-0.375385
0
LINE
8
BLACK
6
CONTINUOUS
10
0.628026
20
-0.375385
11
0.627854
21
-0.375589
0
LINE
8
BLACK
6
CONTINUOUS
10
0.627854
20
-0.375589
11
0.627099
21
-0.375722
0
LINE
8
BLACK
6
CONTINUOUS
10
0.627099
20
-0.375722
11
0.626378
21
-0.375984
0
LINE
8
BLACK
6
CONTINUOUS
10
0.626378
20
-0.375984
11
-0.85
21
-0.375984
0
LINE
8
BLACK
6
CONTINUOUS
10
-0.85
20
-0.375984
11
-0.850384
21
-0.375917
0
LINE
8
BLACK
6
CONTINUOUS
10
-0.850384
20
-0.375917
11
-0.850513
21
-0.375939
0
LINE
8
BLACK
6
CONTINUOUS
10
-0.850513
20
-0.375939
11
-0.850626
21
-0.375874
0
LINE
8
BLACK
6
CONTINUOUS
10
-0.850626
20
-0.375874
11
-0.85101
21
-0.375806
0
LINE
8
BLACK
6
CONTINUOUS
10
-0.85101
20
-0.375806
11
-0.851598
21
-0.375313
0
LINE
8
BLACK
6
CONTINUOUS
10
-0.851598
20
-0.375313
11
-0.852262
21
-0.374929
0
LINE
8
BLACK
6
CONTINUOUS
10
-0.852262
20
-0.374929
11
-0.852353
21
-0.374679
0
LINE
8
BLACK
6
CONTINUOUS
10
-0.852353
20
-0.374679
11
-0.852557
21
-0.374508
0
LINE
8
BLACK
6
CONTINUOUS
10
-0.852557
20
-0.374508
11
-0.85269
21
-0.373752
0
LINE
8
BLACK
6
CONTINUOUS
10
-0.85269
20
-0.373752
11
-0.852953
21
-0.373031
0
LINE
8
BLACK
6
CONTINUOUS
10
-0.852953
20
-0.373031
11
-0.852953
21
0.375
0
LINE
8
BLACK
6
CONTINUOUS
10
-0.852953
20
0.375
11
-0.852885
21
0.375384
0
LINE
8
BLACK
6
CONTINUOUS
10
-0.852885
20
0.375384
11
-0.852908
21
0.375513
0
LINE
8
BLACK
6
CONTINUOUS
10
-0.852908
20
0.375513
11
-0.852842
21
0.375626
0
LINE
8
BLACK
6
CONTINUOUS
10
-0.852842
20
0.375626
11
-0.852775
21
0.37601
0
LINE
8
BLACK
6
CONTINUOUS
10
-0.852775
20
0.37601
11
-0.852282
21
0.376598
0
LINE
8
BLACK
6
CONTINUOUS
10
-0.852282
20
0.376598
11
-0.851898
21
0.377262
0
LINE
8
BLACK
6
CONTINUOUS
10
-0.851898
20
0.377262
11
-0.851648
21
0.377353
0
LINE
8
BLACK
6
CONTINUOUS
10
-0.851648
20
0.377353
11
-0.851476
21
0.377557
0
LINE
8
BLACK
6
CONTINUOUS
10
-0.851476
20
0.377557
11
-0.850721
21
0.37769
0
LINE
8
BLACK
6
CONTINUOUS
10
-0.850721
20
0.37769
11
-0.85
21
0.377953
0
LINE
8
BLACK
6
CONTINUOUS
10
-0.85
20
0.377953
11
0.626378
21
0.377953
0
LINE
8
BLACK
6
CONTINUOUS
10
0.626378
20
0.377953
11
0.626761
21
0.377885
0
LINE
8
BLACK
6
CONTINUOUS
10
-0.847047
20
0.372047
11
-0.847047
21
-0.370079
0
LINE
8
BLACK
6
CONTINUOUS
10
-0.847047
20
-0.370079
11
0.623425
21
-0.370079
0
LINE
8
BLACK
6
CONTINUOUS
10
0.623425
20
-0.370079
11
0.623425
21
0.372047
0
LINE
8
BLACK
6
CONTINUOUS
10
0.623425
20
0.372047
11
-0.847047
21
0.372047
0
LINE
8
BLACK
6
CONTINUOUS
10
-0.433339
20
-0.341647
11
-0.437708
21
-0.340118
0
LINE
8
BLACK
6
CONTINUOUS
10
-0.437708
20
-0.340118
11
-0.441627
21
-0.337656
0
LINE
8
BLACK
6
CONTINUOUS
10
-0.441627
20
-0.337656
11
-0.4449
21
-0.334383
0
LINE
8
BLACK
6
CONTINUOUS
10
-0.4449
20
-0.334383
11
-0.447362
21
-0.330464
0
LINE
8
BLACK
6
CONTINUOUS
10
-0.447362
20
-0.330464
11
-0.448891
21
-0.326095
0
LINE
8
BLACK
6
CONTINUOUS
10
-0.448891
20
-0.326095
11
-0.449409
21
-0.321497
0
LINE
8
BLACK
6
CONTINUOUS
10
-0.449409
20
-0.321497
11
-0.449409
21
-0.321496
0
LINE
8
BLACK
6
CONTINUOUS
10
-0.449409
20
-0.321496
11
-0.449409
21
-0.258504
0
LINE
8
BLACK
6
CONTINUOUS
10
-0.449409
20
-0.258504
11
-0.448891
21
-0.253905
0
LINE
8
BLACK
6
CONTINUOUS
10
-0.448891
20
-0.253905
11
-0.447362
21
-0.249536
0
LINE
8
BLACK
6
CONTINUOUS
10
-0.447362
20
-0.249536
11
-0.4449
21
-0.245617
0
LINE
8
BLACK
6
CONTINUOUS
10
-0.4449
20
-0.245617
11
-0.441627
21
-0.242344
0
LINE
8
BLACK
6
CONTINUOUS
10
-0.441627
20
-0.242344
11
-0.437708
21
-0.239882
0
LINE
8
BLACK
6
CONTINUOUS
10
-0.437708
20
-0.239882
11
-0.433339
21
-0.238353
0
LINE
8
BLACK
6
CONTINUOUS
10
-0.433339
20
-0.238353
11
-0.428741
21
-0.237835
0
LINE
8
BLACK
6
CONTINUOUS
10
-0.428741
20
-0.237835
11
-0.42874
21
-0.237835
0
LINE
8
BLACK
6
CONTINUOUS
10
-0.42874
20
-0.237835
11
-0.381496
21
-0.237835
0
LINE
8
BLACK
6
CONTINUOUS
10
-0.381496
20
-0.237835
11
-0.376897
21
-0.238353
0
LINE
8
BLACK
6
CONTINUOUS
10
-0.376897
20
-0.238353
11
-0.372528
21
-0.239882
0
LINE
8
BLACK
6
CONTINUOUS
10
-0.372528
20
-0.239882
11
-0.368609
21
-0.242344
0
LINE
8
BLACK
6
CONTINUOUS
10
-0.368609
20
-0.242344
11
-0.365336
21
-0.245617
0
LINE
8
BLACK
6
CONTINUOUS
10
-0.365336
20
-0.245617
11
-0.362874
21
-0.249536
0
LINE
8
BLACK
6
CONTINUOUS
10
-0.362874
20
-0.249536
11
-0.361345
21
-0.253905
0
LINE
8
BLACK
6
CONTINUOUS
10
-0.361345
20
-0.253905
11
-0.360827
21
-0.258504
0
LINE
8
BLACK
6
CONTINUOUS
10
-0.360827
20
-0.258504
11
-0.360827
21
-0.258504
0
LINE
8
BLACK
6
CONTINUOUS
10
-0.360827
20
-0.258504
11
-0.360827
21
-0.321496
0
LINE
8
BLACK
6
CONTINUOUS
10
-0.360827
20
-0.321496
11
-0.361345
21
-0.326095
0
LINE
8
BLACK
6
CONTINUOUS
10
-0.361345
20
-0.326095
11
-0.362874
21
-0.330464
0
LINE
8
BLACK
6
CONTINUOUS
10
-0.362874
20
-0.330464
11
-0.365336
21
-0.334383
0
LINE
8
BLACK
6
CONTINUOUS
10
-0.365336
20
-0.334383
11
-0.368609
21
-0.337656
0
LINE
8
BLACK
6
CONTINUOUS
10
-0.368609
20
-0.337656
11
-0.372528
21
-0.340119
0
LINE
8
BLACK
6
CONTINUOUS
10
-0.372528
20
-0.340119
11
-0.376897
21
-0.341647
0
LINE
8
BLACK
6
CONTINUOUS
10
-0.376897
20
-0.341647
11
-0.381496
21
-0.342166
0
LINE
8
BLACK
6
CONTINUOUS
10
-0.381496
20
-0.342166
11
-0.381496
21
-0.342165
0
LINE
8
BLACK
6
CONTINUOUS
10
-0.381496
20
-0.342165
11
-0.42874
21
-0.342165
0
LINE
8
BLACK
6
CONTINUOUS
10
-0.42874
20
-0.342165
11
-0.433339
21
-0.341647
0
LINE
8
BLACK
6
CONTINUOUS
10
-0.429036
20
-0.239681
11
-0.433622
21
-0.240285
0
LINE
8
BLACK
6
CONTINUOUS
10
-0.433622
20
-0.240285
11
-0.438171
21
-0.242169
0
LINE
8
BLACK
6
CONTINUOUS
10
-0.438171
20
-0.242169
11
-0.442078
21
-0.245166
0
LINE
8
BLACK
6
CONTINUOUS
10
-0.442078
20
-0.245166
11
-0.445075
21
-0.249073
0
LINE
8
BLACK
6
CONTINUOUS
10
-0.445075
20
-0.249073
11
-0.44696
21
-0.253622
0
LINE
8
BLACK
6
CONTINUOUS
10
-0.44696
20
-0.253622
11
-0.447563
21
-0.258208
0
LINE
8
BLACK
6
CONTINUOUS
10
-0.447563
20
-0.258208
11
-0.447441
21
-0.258504
0
LINE
8
BLACK
6
CONTINUOUS
10
-0.447441
20
-0.258504
11
-0.447441
21
-0.321496
0
LINE
8
BLACK
6
CONTINUOUS
10
-0.447441
20
-0.321496
11
-0.447563
21
-0.321791
0
LINE
8
BLACK
6
CONTINUOUS
10
-0.447563
20
-0.321791
11
-0.446959
21
-0.326378
0
LINE
8
BLACK
6
CONTINUOUS
10
-0.446959
20
-0.326378
11
-0.445075
21
-0.330927
0
LINE
8
BLACK
6
CONTINUOUS
10
-0.445075
20
-0.330927
11
-0.442078
21
-0.334834
0
LINE
8
BLACK
6
CONTINUOUS
10
-0.442078
20
-0.334834
11
-0.438171
21
-0.337831
0
LINE
8
BLACK
6
CONTINUOUS
10
-0.438171
20
-0.337831
11
-0.433622
21
-0.339716
0
LINE
8
BLACK
6
CONTINUOUS
10
-0.433622
20
-0.339716
11
-0.429036
21
-0.340319
0
LINE
8
BLACK
6
CONTINUOUS
10
-0.429036
20
-0.340319
11
-0.42874
21
-0.340197
0
LINE
8
BLACK
6
CONTINUOUS
10
-0.42874
20
-0.340197
11
-0.381496
21
-0.340197
0
LINE
8
BLACK
6
CONTINUOUS
10
-0.381496
20
-0.340197
11
-0.3812
21
-0.340319
0
LINE
8
BLACK
6
CONTINUOUS
10
-0.3812
20
-0.340319
11
-0.376614
21
-0.339716
0
LINE
8
BLACK
6
CONTINUOUS
10
-0.376614
20
-0.339716
11
-0.372065
21
-0.337831
0
LINE
8
BLACK
6
CONTINUOUS
10
-0.372065
20
-0.337831
11
-0.368158
21
-0.334834
0
LINE
8
BLACK
6
CONTINUOUS
10
-0.368158
20
-0.334834
11
-0.365161
21
-0.330927
0
LINE
8
BLACK
6
CONTINUOUS
10
-0.365161
20
-0.330927
11
-0.363277
21
-0.326378
0
LINE
8
BLACK
6
CONTINUOUS
10
-0.363277
20
-0.326378
11
-0.362673
21
-0.321792
0
LINE
8
BLACK
6
CONTINUOUS
10
-0.362673
20
-0.321792
11
-0.362795
21
-0.321496
0
LINE
8
BLACK
6
CONTINUOUS
10
-0.362795
20
-0.321496
11
-0.362795
21
-0.258504
0
LINE
8
BLACK
6
CONTINUOUS
10
-0.362795
20
-0.258504
11
-0.362673
21
-0.258208
0
LINE
8
BLACK
6
CONTINUOUS
10
-0.362673
20
-0.258208
11
-0.363276
21
-0.253622
0
LINE
8
BLACK
6
CONTINUOUS
10
-0.363276
20
-0.253622
11
-0.365161
21
-0.249073
0
LINE
8
BLACK
6
CONTINUOUS
10
-0.365161
20
-0.249073
11
-0.368158
21
-0.245166
0
LINE
8
BLACK
6
CONTINUOUS
10
-0.368158
20
-0.245166
11
-0.372065
21
-0.242169
0
LINE
8
BLACK
6
CONTINUOUS
10
-0.372065
20
-0.242169
11
-0.376614
21
-0.240284
0
LINE
8
BLACK
6
CONTINUOUS
10
-0.376614
20
-0.240284
11
-0.3812
21
-0.239681
0
LINE
8
BLACK
6
CONTINUOUS
10
-0.3812
20
-0.239681
11
-0.381496
21
-0.239803
0
LINE
8
BLACK
6
CONTINUOUS
10
-0.381496
20
-0.239803
11
-0.42874
21
-0.239803
0
LINE
8
BLACK
6
CONTINUOUS
10
-0.42874
20
-0.239803
11
-0.429036
21
-0.239681
0
LINE
8
BLACK
6
CONTINUOUS
10
-0.0396387
20
-0.335112
11
-0.0440074
21
-0.333583
0
LINE
8
BLACK
6
CONTINUOUS
10
-0.0440074
20
-0.333583
11
-0.0479264
21
-0.331121
0
LINE
8
BLACK
6
CONTINUOUS
10
-0.0479264
20
-0.331121
11
-0.0511992
21
-0.327848
0
LINE
8
BLACK
6
CONTINUOUS
10
-0.0511992
20
-0.327848
11
-0.0536617
21
-0.323929
0
LINE
8
BLACK
6
CONTINUOUS
10
-0.0536617
20
-0.323929
11
-0.0551903
21
-0.31956
0
LINE
8
BLACK
6
CONTINUOUS
10
-0.0551903
20
-0.31956
11
-0.0557085
21
-0.314961
0
LINE
8
BLACK
6
CONTINUOUS
10
-0.0557085
20
-0.314961
11
-0.0557087
21
-0.314961
0
LINE
8
BLACK
6
CONTINUOUS
10
-0.0557087
20
-0.314961
11
-0.0557087
21
-0.251969
0
LINE
8
BLACK
6
CONTINUOUS
10
-0.0557087
20
-0.251969
11
-0.0551904
21
-0.247369
0
LINE
8
BLACK
6
CONTINUOUS
10
-0.0551904
20
-0.247369
11
-0.0536617
21
-0.243
0
LINE
8
BLACK
6
CONTINUOUS
10
-0.0536617
20
-0.243
11
-0.0511992
21
-0.239081
0
LINE
8
BLACK
6
CONTINUOUS
10
-0.0511992
20
-0.239081
11
-0.0479264
21
-0.235809
0
LINE
8
BLACK
6
CONTINUOUS
10
-0.0479264
20
-0.235809
11
-0.0440074
21
-0.233346
0
LINE
8
BLACK
6
CONTINUOUS
10
-0.0440074
20
-0.233346
11
-0.0396387
21
-0.231818
0
LINE
8
BLACK
6
CONTINUOUS
10
-0.0396387
20
-0.231818
11
-0.0350399
21
-0.231299
0
LINE
8
BLACK
6
CONTINUOUS
10
-0.0350399
20
-0.231299
11
-0.0350394
21
-0.231299
0
LINE
8
BLACK
6
CONTINUOUS
10
-0.0350394
20
-0.231299
11
0.0122047
21
-0.231299
0
LINE
8
BLACK
6
CONTINUOUS
10
0.0122047
20
-0.231299
11
0.0168041
21
-0.231817
0
LINE
8
BLACK
6
CONTINUOUS
10
0.0168041
20
-0.231817
11
0.0211728
21
-0.233346
0
LINE
8
BLACK
6
CONTINUOUS
10
0.0211728
20
-0.233346
11
0.0250919
21
-0.235809
0
LINE
8
BLACK
6
CONTINUOUS
10
0.0250919
20
-0.235809
11
0.0283647
21
-0.239081
0
LINE
8
BLACK
6
CONTINUOUS
10
0.0283647
20
-0.239081
11
0.0308272
21
-0.243
0
LINE
8
BLACK
6
CONTINUOUS
10
0.0308272
20
-0.243
11
0.0323559
21
-0.247369
0
LINE
8
BLACK
6
CONTINUOUS
10
0.0323559
20
-0.247369
11
0.0328742
21
-0.251969
0
LINE
8
BLACK
6
CONTINUOUS
10
0.0328742
20
-0.251969
11
0.032874
21
-0.251969
0
LINE
8
BLACK
6
CONTINUOUS
10
0.032874
20
-0.251969
11
0.032874
21
-0.314961
0
LINE
8
BLACK
6
CONTINUOUS
10
0.032874
20
-0.314961
11
0.0323558
21
-0.31956
0
LINE
8
BLACK
6
CONTINUOUS
10
0.0323558
20
-0.31956
11
0.0308272
21
-0.323929
0
LINE
8
BLACK
6
CONTINUOUS
10
0.0308272
20
-0.323929
11
0.0283647
21
-0.327848
0
LINE
8
BLACK
6
CONTINUOUS
10
0.0283647
20
-0.327848
11
0.0250919
21
-0.331121
0
LINE
8
BLACK
6
CONTINUOUS
10
0.0250919
20
-0.331121
11
0.0211728
21
-0.333583
0
LINE
8
BLACK
6
CONTINUOUS
10
0.0211728
20
-0.333583
11
0.0168041
21
-0.335112
0
LINE
8
BLACK
6
CONTINUOUS
10
0.0168041
20
-0.335112
11
0.0122047
21
-0.33563
0
LINE
8
BLACK
6
CONTINUOUS
10
0.0122047
20
-0.33563
11
0.0122047
21
-0.33563
0
LINE
8
BLACK
6
CONTINUOUS
10
0.0122047
20
-0.33563
11
-0.0350394
21
-0.33563
0
LINE
8
BLACK
6
CONTINUOUS
10
-0.0350394
20
-0.33563
11
-0.0396387
21
-0.335112
0
LINE
8
BLACK
6
CONTINUOUS
10
-0.0353347
20
-0.233145
11
-0.0399212
21
-0.233749
0
LINE
8
BLACK
6
CONTINUOUS
10
-0.0399212
20
-0.233749
11
-0.0444704
21
-0.235634
0
LINE
8
BLACK
6
CONTINUOUS
10
-0.0444704
20
-0.235634
11
-0.0483769
21
-0.238631
0
LINE
8
BLACK
6
CONTINUOUS
10
-0.0483769
20
-0.238631
11
-0.0513744
21
-0.242537
0
LINE
8
BLACK
6
CONTINUOUS
10
-0.0513744
20
-0.242537
11
-0.0532588
21
-0.247087
0
LINE
8
BLACK
6
CONTINUOUS
10
-0.0532588
20
-0.247087
11
-0.0538626
21
-0.251673
0
LINE
8
BLACK
6
CONTINUOUS
10
-0.0538626
20
-0.251673
11
-0.0537402
21
-0.251969
0
LINE
8
BLACK
6
CONTINUOUS
10
-0.0537402
20
-0.251969
11
-0.0537402
21
-0.314961
0
LINE
8
BLACK
6
CONTINUOUS
10
-0.0537402
20
-0.314961
11
-0.0538625
21
-0.315256
0
LINE
8
BLACK
6
CONTINUOUS
10
-0.0538625
20
-0.315256
11
-0.0532587
21
-0.319843
0
LINE
8
BLACK
6
CONTINUOUS
10
-0.0532587
20
-0.319843
11
-0.0513744
21
-0.324392
0
LINE
8
BLACK
6
CONTINUOUS
10
-0.0513744
20
-0.324392
11
-0.0483769
21
-0.328298
0
LINE
8
BLACK
6
CONTINUOUS
10
-0.0483769
20
-0.328298
11
-0.0444704
21
-0.331296
0
LINE
8
BLACK
6
CONTINUOUS
10
-0.0444704
20
-0.331296
11
-0.0399213
21
-0.33318
0
LINE
8
BLACK
6
CONTINUOUS
10
-0.0399213
20
-0.33318
11
-0.035335
21
-0.333784
0
LINE
8
BLACK
6
CONTINUOUS
10
-0.035335
20
-0.333784
11
-0.0350394
21
-0.333661
0
LINE
8
BLACK
6
CONTINUOUS
10
-0.0350394
20
-0.333661
11
0.0122047
21
-0.333661
0
LINE
8
BLACK
6
CONTINUOUS
10
0.0122047
20
-0.333661
11
0.0125007
21
-0.333784
0
LINE
8
BLACK
6
CONTINUOUS
10
0.0125007
20
-0.333784
11
0.0170867
21
-0.33318
0
LINE
8
BLACK
6
CONTINUOUS
10
0.0170867
20
-0.33318
11
0.0216359
21
-0.331296
0
LINE
8
BLACK
6
CONTINUOUS
10
0.0216359
20
-0.331296
11
0.0255424
21
-0.328298
0
LINE
8
BLACK
6
CONTINUOUS
10
0.0255424
20
-0.328298
11
0.0285399
21
-0.324392
0
LINE
8
BLACK
6
CONTINUOUS
10
0.0285399
20
-0.324392
11
0.0304242
21
-0.319843
0
LINE
8
BLACK
6
CONTINUOUS
10
0.0304242
20
-0.319843
11
0.031028
21
-0.315256
0
LINE
8
BLACK
6
CONTINUOUS
10
0.031028
20
-0.315256
11
0.0309055
21
-0.314961
0
LINE
8
BLACK
6
CONTINUOUS
10
0.0309055
20
-0.314961
11
0.0309055
21
-0.251969
0
LINE
8
BLACK
6
CONTINUOUS
10
0.0309055
20
-0.251969
11
0.0310281
21
-0.251673
0
LINE
8
BLACK
6
CONTINUOUS
10
0.0310281
20
-0.251673
11
0.0304243
21
-0.247087
0
LINE
8
BLACK
6
CONTINUOUS
10
0.0304243
20
-0.247087
11
0.0285399
21
-0.242537
0
LINE
8
BLACK
6
CONTINUOUS
10
0.0285399
20
-0.242537
11
0.0255424
21
-0.238631
0
LINE
8
BLACK
6
CONTINUOUS
10
0.0255424
20
-0.238631
11
0.0216358
21
-0.235633
0
LINE
8
BLACK
6
CONTINUOUS
10
0.0216358
20
-0.235633
11
0.0170866
21
-0.233749
0
LINE
8
BLACK
6
CONTINUOUS
10
0.0170866
20
-0.233749
11
0.0125004
21
-0.233145
0
LINE
8
BLACK
6
CONTINUOUS
10
0.0125004
20
-0.233145
11
0.0122047
21
-0.233268
0
LINE
8
BLACK
6
CONTINUOUS
10
0.0122047
20
-0.233268
11
-0.0350394
21
-0.233268
0
LINE
8
BLACK
6
CONTINUOUS
10
-0.0350394
20
-0.233268
11
-0.0353347
21
-0.233145
  0
ENDSEC
  0
EOF
