  0
SECTION
  2
HEADER
  9
$ANGBASE
  50
0.0
  9
$ANGDIR
  70
1
  9
$MEASUREMENT
  70
0
  0
ENDSEC
  0
SECTION
  2
TABLES
  0
TABLE
  2
LTYPE
  70
4
  0
LTYPE
  5
40F
  2
CONTINUOUS
  70
0
  3
Solid line
  72
65
  73
0
  40
0.0
  0
LTYPE
  5
410
  2
DASHDOT
 70
0
  3
Dash Dot ____ _ ____ _
 72
65
 73
4
 40
2.0
 49
1.25
 49
-0.25
 49
0.25
 49
-0.25
  0
LTYPE
  5
411
  2
DASHED
 70
0
  3
Dashed __ __ __ __ __
 72
65
 73
2
 40
0.75
 49
0.5
 49
-0.25
  0
LTYPE
  5
43B
  2
DOTTED
 70
0
  3
Dotted .  .  .  .
 72
65
 73
2
 40
0.2
 49
0.0
 49
-0.2
  0
ENDTAB
  0
TABLE
  2
STYLE
  70
4
  0
STYLE
  2
KICAD
  70
0
  40
0
  41
1
  42
1
  50
0
  71
0
  3
isocp.shx
  0
STYLE
  2
KICADB
  70
0
  40
0
  41
1
  42
1
  50
0
  71
0
  3
isocp.shx
  0
STYLE
  2
KICADI
  70
0
  40
0
  41
1
  42
1
  50
15
  71
0
  3
isocp.shx
  0
STYLE
  2
KICADBI
  70
0
  40
0
  41
1
  42
1
  50
15
  71
0
  3
isocp.shx
  0
ENDTAB
  0
TABLE
  2
LAYER
  70
1
  0
LAYER
  2
BLACK
  70
0
  62
7
  6
CONTINUOUS
  0
ENDTAB
  0
ENDSEC
  0
SECTION
  2
ENTITIES
0
LINE
8
BLACK
6
CONTINUOUS
10
0.2614778346456693
20
-0.0592607874015748
11
0.2640323228346457
21
-0.0609676771653543
0
LINE
8
BLACK
6
CONTINUOUS
10
0.2640323228346457
20
-0.0609676771653543
11
0.2657392125984252
21
-0.0635221653543307
0
LINE
8
BLACK
6
CONTINUOUS
10
0.2657392125984252
20
-0.0635221653543307
11
0.2663385826771654
21
-0.0665354330708661
0
LINE
8
BLACK
6
CONTINUOUS
10
0.2663385826771654
20
-0.0665354330708661
11
0.2663385826771654
21
-0.1334645669291339
0
LINE
8
BLACK
6
CONTINUOUS
10
0.2663385826771654
20
-0.1334645669291339
11
0.2657392125984252
21
-0.1364778346456693
0
LINE
8
BLACK
6
CONTINUOUS
10
0.2657392125984252
20
-0.1364778346456693
11
0.2640323228346457
21
-0.1390323228346457
0
LINE
8
BLACK
6
CONTINUOUS
10
0.2640323228346457
20
-0.1390323228346457
11
0.2614778346456693
21
-0.1407392125984252
0
LINE
8
BLACK
6
CONTINUOUS
10
0.2614778346456693
20
-0.1407392125984252
11
0.2584645669291338
21
-0.1413385826771653
0
LINE
8
BLACK
6
CONTINUOUS
10
0.2584645669291338
20
-0.1413385826771653
11
0.1915354330708662
21
-0.1413385826771653
0
LINE
8
BLACK
6
CONTINUOUS
10
0.1915354330708662
20
-0.1413385826771653
11
0.1885221653543307
21
-0.1407392125984252
0
LINE
8
BLACK
6
CONTINUOUS
10
0.1885221653543307
20
-0.1407392125984252
11
0.1859676771653543
21
-0.1390323228346457
0
LINE
8
BLACK
6
CONTINUOUS
10
0.1859676771653543
20
-0.1390323228346457
11
0.1842607874015748
21
-0.1364778346456693
0
LINE
8
BLACK
6
CONTINUOUS
10
0.1842607874015748
20
-0.1364778346456693
11
0.1836614173228346
21
-0.1334645669291339
0
LINE
8
BLACK
6
CONTINUOUS
10
0.1836614173228346
20
-0.1334645669291339
11
0.1836614173228346
21
-0.0665354330708661
0
LINE
8
BLACK
6
CONTINUOUS
10
0.1836614173228346
20
-0.0665354330708661
11
0.1842607874015748
21
-0.0635221653543307
0
LINE
8
BLACK
6
CONTINUOUS
10
0.1842607874015748
20
-0.0635221653543307
11
0.1859676771653543
21
-0.0609676771653543
0
LINE
8
BLACK
6
CONTINUOUS
10
0.1859676771653543
20
-0.0609676771653543
11
0.1885221653543307
21
-0.0592607874015748
0
LINE
8
BLACK
6
CONTINUOUS
10
0.1885221653543307
20
-0.0592607874015748
11
0.1915354330708662
21
-0.0586614173228346
0
LINE
8
BLACK
6
CONTINUOUS
10
0.1915354330708662
20
-0.0586614173228346
11
0.2584645669291338
21
-0.0586614173228346
0
LINE
8
BLACK
6
CONTINUOUS
10
0.2584645669291338
20
-0.0586614173228346
11
0.2614778346456693
21
-0.0592607874015748
0
LINE
8
BLACK
6
CONTINUOUS
10
0.0141057480314961
20
0.1251920866141732
11
0.0280341338582677
21
0.1228255511811024
0
LINE
8
BLACK
6
CONTINUOUS
10
0.0280341338582677
20
0.1228255511811024
11
0.0416099606299213
21
0.1189144488188976
0
LINE
8
BLACK
6
CONTINUOUS
10
0.0416099606299213
20
0.1189144488188976
11
0.0546625196850394
21
0.113507874015748
0
LINE
8
BLACK
6
CONTINUOUS
10
0.0546625196850394
20
0.113507874015748
11
0.0670276771653543
21
0.1066738976377953
0
LINE
8
BLACK
6
CONTINUOUS
10
0.0670276771653543
20
0.1066738976377953
11
0.0785498818897638
21
0.0984984645669291
0
LINE
8
BLACK
6
CONTINUOUS
10
0.0785498818897638
20
0.0984984645669291
11
0.0890843307086614
21
0.0890843307086614
0
LINE
8
BLACK
6
CONTINUOUS
10
0.0890843307086614
20
0.0890843307086614
11
0.0984984645669291
21
0.0785498818897638
0
LINE
8
BLACK
6
CONTINUOUS
10
0.0984984645669291
20
0.0785498818897638
11
0.1066738976377953
21
0.0670276771653543
0
LINE
8
BLACK
6
CONTINUOUS
10
0.1066738976377953
20
0.0670276771653543
11
0.113507874015748
21
0.0546625196850394
0
LINE
8
BLACK
6
CONTINUOUS
10
0.113507874015748
20
0.0546625196850394
11
0.1189144488188976
21
0.0416099606299213
0
LINE
8
BLACK
6
CONTINUOUS
10
0.1189144488188976
20
0.0416099606299213
11
0.1228255511811024
21
0.0280341338582677
0
LINE
8
BLACK
6
CONTINUOUS
10
0.1228255511811024
20
0.0280341338582677
11
0.1251920866141732
21
0.0141057480314961
0
LINE
8
BLACK
6
CONTINUOUS
10
0.1251920866141732
20
0.0141057480314961
11
0.1259842519685039
21
0.
0
LINE
8
BLACK
6
CONTINUOUS
10
0.1259842519685039
20
0.
11
0.1251920866141732
21
-0.0141057480314961
0
LINE
8
BLACK
6
CONTINUOUS
10
0.1251920866141732
20
-0.0141057480314961
11
0.1228255511811024
21
-0.0280341338582677
0
LINE
8
BLACK
6
CONTINUOUS
10
0.1228255511811024
20
-0.0280341338582677
11
0.1189144488188976
21
-0.0416099606299213
0
LINE
8
BLACK
6
CONTINUOUS
10
0.1189144488188976
20
-0.0416099606299213
11
0.113507874015748
21
-0.0546625196850394
0
LINE
8
BLACK
6
CONTINUOUS
10
0.113507874015748
20
-0.0546625196850394
11
0.1066738976377953
21
-0.0670276771653543
0
LINE
8
BLACK
6
CONTINUOUS
10
0.1066738976377953
20
-0.0670276771653543
11
0.0984984645669291
21
-0.0785498818897638
0
LINE
8
BLACK
6
CONTINUOUS
10
0.0984984645669291
20
-0.0785498818897638
11
0.0890843307086614
21
-0.0890843307086614
0
LINE
8
BLACK
6
CONTINUOUS
10
0.0890843307086614
20
-0.0890843307086614
11
0.0785498818897638
21
-0.0984984645669291
0
LINE
8
BLACK
6
CONTINUOUS
10
0.0785498818897638
20
-0.0984984645669291
11
0.0670276771653543
21
-0.1066738976377953
0
LINE
8
BLACK
6
CONTINUOUS
10
0.0670276771653543
20
-0.1066738976377953
11
0.0546625196850394
21
-0.113507874015748
0
LINE
8
BLACK
6
CONTINUOUS
10
0.0546625196850394
20
-0.113507874015748
11
0.0416099606299213
21
-0.1189144488188976
0
LINE
8
BLACK
6
CONTINUOUS
10
0.0416099606299213
20
-0.1189144488188976
11
0.0280341338582677
21
-0.1228255511811024
0
LINE
8
BLACK
6
CONTINUOUS
10
0.0280341338582677
20
-0.1228255511811024
11
0.0141057480314961
21
-0.1251920866141732
0
LINE
8
BLACK
6
CONTINUOUS
10
0.0141057480314961
20
-0.1251920866141732
11
0.
21
-0.1259842519685039
0
LINE
8
BLACK
6
CONTINUOUS
10
0.
20
-0.1259842519685039
11
-0.0141057480314961
21
-0.1251920866141732
0
LINE
8
BLACK
6
CONTINUOUS
10
-0.0141057480314961
20
-0.1251920866141732
11
-0.0280341338582677
21
-0.1228255511811024
0
LINE
8
BLACK
6
CONTINUOUS
10
-0.0280341338582677
20
-0.1228255511811024
11
-0.0416099606299213
21
-0.1189144488188976
0
LINE
8
BLACK
6
CONTINUOUS
10
-0.0416099606299213
20
-0.1189144488188976
11
-0.0546625196850394
21
-0.113507874015748
0
LINE
8
BLACK
6
CONTINUOUS
10
-0.0546625196850394
20
-0.113507874015748
11
-0.0670276771653543
21
-0.1066738976377953
0
LINE
8
BLACK
6
CONTINUOUS
10
-0.0670276771653543
20
-0.1066738976377953
11
-0.0785498818897638
21
-0.0984984645669291
0
LINE
8
BLACK
6
CONTINUOUS
10
-0.0785498818897638
20
-0.0984984645669291
11
-0.0890843307086614
21
-0.0890843307086614
0
LINE
8
BLACK
6
CONTINUOUS
10
-0.0890843307086614
20
-0.0890843307086614
11
-0.0984984645669291
21
-0.0785498818897638
0
LINE
8
BLACK
6
CONTINUOUS
10
-0.0984984645669291
20
-0.0785498818897638
11
-0.1066738976377953
21
-0.0670276771653543
0
LINE
8
BLACK
6
CONTINUOUS
10
-0.1066738976377953
20
-0.0670276771653543
11
-0.113507874015748
21
-0.0546625196850394
0
LINE
8
BLACK
6
CONTINUOUS
10
-0.113507874015748
20
-0.0546625196850394
11
-0.1189144488188976
21
-0.0416099606299213
0
LINE
8
BLACK
6
CONTINUOUS
10
-0.1189144488188976
20
-0.0416099606299213
11
-0.1228255511811024
21
-0.0280341338582677
0
LINE
8
BLACK
6
CONTINUOUS
10
-0.1228255511811024
20
-0.0280341338582677
11
-0.1251920866141732
21
-0.0141057480314961
0
LINE
8
BLACK
6
CONTINUOUS
10
-0.1251920866141732
20
-0.0141057480314961
11
-0.1259842519685039
21
0.
0
LINE
8
BLACK
6
CONTINUOUS
10
-0.1259842519685039
20
0.
11
-0.1251920866141732
21
0.0141057480314961
0
LINE
8
BLACK
6
CONTINUOUS
10
-0.1251920866141732
20
0.0141057480314961
11
-0.1228255511811024
21
0.0280341338582677
0
LINE
8
BLACK
6
CONTINUOUS
10
-0.1228255511811024
20
0.0280341338582677
11
-0.1189144488188976
21
0.0416099606299213
0
LINE
8
BLACK
6
CONTINUOUS
10
-0.1189144488188976
20
0.0416099606299213
11
-0.113507874015748
21
0.0546625196850394
0
LINE
8
BLACK
6
CONTINUOUS
10
-0.113507874015748
20
0.0546625196850394
11
-0.1066738976377953
21
0.0670276771653543
0
LINE
8
BLACK
6
CONTINUOUS
10
-0.1066738976377953
20
0.0670276771653543
11
-0.0984984645669291
21
0.0785498818897638
0
LINE
8
BLACK
6
CONTINUOUS
10
-0.0984984645669291
20
0.0785498818897638
11
-0.0890843307086614
21
0.0890843307086614
0
LINE
8
BLACK
6
CONTINUOUS
10
-0.0890843307086614
20
0.0890843307086614
11
-0.0785498818897638
21
0.0984984645669291
0
LINE
8
BLACK
6
CONTINUOUS
10
-0.0785498818897638
20
0.0984984645669291
11
-0.0670276771653543
21
0.1066738976377953
0
LINE
8
BLACK
6
CONTINUOUS
10
-0.0670276771653543
20
0.1066738976377953
11
-0.0546625196850394
21
0.113507874015748
0
LINE
8
BLACK
6
CONTINUOUS
10
-0.0546625196850394
20
0.113507874015748
11
-0.0416099606299213
21
0.1189144488188976
0
LINE
8
BLACK
6
CONTINUOUS
10
-0.0416099606299213
20
0.1189144488188976
11
-0.0280341338582677
21
0.1228255511811024
0
LINE
8
BLACK
6
CONTINUOUS
10
-0.0280341338582677
20
0.1228255511811024
11
-0.0141057480314961
21
0.1251920866141732
0
LINE
8
BLACK
6
CONTINUOUS
10
-0.0141057480314961
20
0.1251920866141732
11
0.
21
0.1259842519685039
0
LINE
8
BLACK
6
CONTINUOUS
10
0.
20
0.1259842519685039
11
0.0141057480314961
21
0.1251920866141732
0
LINE
8
BLACK
6
CONTINUOUS
10
-0.3615142913385826
20
0.024687874015748
11
-0.3596062992125984
21
0.0234129921259843
0
LINE
8
BLACK
6
CONTINUOUS
10
-0.3596062992125984
20
0.0234129921259843
11
-0.3576983070866142
21
0.024687874015748
0
LINE
8
BLACK
6
CONTINUOUS
10
-0.3576983070866142
20
0.024687874015748
11
-0.3546850393700787
21
0.0252872440944882
0
LINE
8
BLACK
6
CONTINUOUS
10
-0.3546850393700787
20
0.0252872440944882
11
-0.3153149606299213
21
0.0252872440944882
0
LINE
8
BLACK
6
CONTINUOUS
10
-0.3153149606299213
20
0.0252872440944882
11
-0.3123016929133858
21
0.024687874015748
0
LINE
8
BLACK
6
CONTINUOUS
10
-0.3123016929133858
20
0.024687874015748
11
-0.3103937007874016
21
0.0234129921259843
0
LINE
8
BLACK
6
CONTINUOUS
10
-0.3103937007874016
20
0.0234129921259843
11
-0.3084857086614173
21
0.024687874015748
0
LINE
8
BLACK
6
CONTINUOUS
10
-0.3084857086614173
20
0.024687874015748
11
-0.3054724409448819
21
0.0252872440944882
0
LINE
8
BLACK
6
CONTINUOUS
10
-0.3054724409448819
20
0.0252872440944882
11
-0.2838188976377953
21
0.0252872440944882
0
LINE
8
BLACK
6
CONTINUOUS
10
-0.2838188976377953
20
0.0252872440944882
11
-0.2828116535433071
21
0.0250868897637795
0
LINE
8
BLACK
6
CONTINUOUS
10
-0.2828116535433071
20
0.0250868897637795
11
-0.2810174409448819
21
0.0250868897637795
0
LINE
8
BLACK
6
CONTINUOUS
10
-0.2810174409448819
20
0.0250868897637795
11
-0.2787990551181102
21
0.0247679527559055
0
LINE
8
BLACK
6
CONTINUOUS
10
-0.2787990551181102
20
0.0247679527559055
11
-0.273423031496063
21
0.0231894094488189
0
LINE
8
BLACK
6
CONTINUOUS
10
-0.273423031496063
20
0.0231894094488189
11
-0.2713843700787402
21
0.0222583464566929
0
LINE
8
BLACK
6
CONTINUOUS
10
-0.2713843700787402
20
0.0222583464566929
11
-0.266670905511811
21
0.0192291732283465
0
LINE
8
BLACK
6
CONTINUOUS
10
-0.266670905511811
20
0.0192291732283465
11
-0.2649771653543307
21
0.0177615354330709
0
LINE
8
BLACK
6
CONTINUOUS
10
-0.2649771653543307
20
0.0177615354330709
11
-0.2613079921259843
21
0.0135270866141732
0
LINE
8
BLACK
6
CONTINUOUS
10
-0.2613079921259843
20
0.0135270866141732
11
-0.2600962992125984
21
0.0116416535433071
0
LINE
8
BLACK
6
CONTINUOUS
10
-0.2600962992125984
20
0.0116416535433071
11
-0.2577687795275591
21
0.0065450393700787
0
LINE
8
BLACK
6
CONTINUOUS
10
-0.2577687795275591
20
0.0065450393700787
11
-0.2571374015748031
21
0.0043947244094488
0
LINE
8
BLACK
6
CONTINUOUS
10
-0.2571374015748031
20
0.0043947244094488
11
-0.25634
21
-0.0011511811023622
0
LINE
8
BLACK
6
CONTINUOUS
10
-0.25634
20
-0.0011511811023622
11
-0.256259842519685
21
-0.002271811023622
0
LINE
8
BLACK
6
CONTINUOUS
10
-0.256259842519685
20
-0.002271811023622
11
-0.256259842519685
21
-0.0219568503937008
0
LINE
8
BLACK
6
CONTINUOUS
10
-0.256259842519685
20
-0.0219568503937008
11
-0.25634
21
-0.0230774803149606
0
LINE
8
BLACK
6
CONTINUOUS
10
-0.25634
20
-0.0230774803149606
11
-0.2571374015748031
21
-0.0286233858267717
0
LINE
8
BLACK
6
CONTINUOUS
10
-0.2571374015748031
20
-0.0286233858267717
11
-0.2577687795275591
21
-0.0307737007874016
0
LINE
8
BLACK
6
CONTINUOUS
10
-0.2577687795275591
20
-0.0307737007874016
11
-0.2600962992125984
21
-0.0358703149606299
0
LINE
8
BLACK
6
CONTINUOUS
10
-0.2600962992125984
20
-0.0358703149606299
11
-0.2613079921259843
21
-0.0377557480314961
0
LINE
8
BLACK
6
CONTINUOUS
10
-0.2613079921259843
20
-0.0377557480314961
11
-0.2649771653543307
21
-0.0419901968503937
0
LINE
8
BLACK
6
CONTINUOUS
10
-0.2649771653543307
20
-0.0419901968503937
11
-0.266670905511811
21
-0.0434578346456693
0
LINE
8
BLACK
6
CONTINUOUS
10
-0.266670905511811
20
-0.0434578346456693
11
-0.2713843700787402
21
-0.0464870078740157
0
LINE
8
BLACK
6
CONTINUOUS
10
-0.2713843700787402
20
-0.0464870078740157
11
-0.273423031496063
21
-0.0474180708661417
0
LINE
8
BLACK
6
CONTINUOUS
10
-0.273423031496063
20
-0.0474180708661417
11
-0.2787990551181102
21
-0.0489966141732283
0
LINE
8
BLACK
6
CONTINUOUS
10
-0.2787990551181102
20
-0.0489966141732283
11
-0.2810174409448819
21
-0.0493155511811024
0
LINE
8
BLACK
6
CONTINUOUS
10
-0.2810174409448819
20
-0.0493155511811024
11
-0.2828116535433071
21
-0.0493155511811024
0
LINE
8
BLACK
6
CONTINUOUS
10
-0.2828116535433071
20
-0.0493155511811024
11
-0.2838188976377953
21
-0.049515905511811
0
LINE
8
BLACK
6
CONTINUOUS
10
-0.2838188976377953
20
-0.049515905511811
11
-0.3054724409448819
21
-0.049515905511811
0
LINE
8
BLACK
6
CONTINUOUS
10
-0.3054724409448819
20
-0.049515905511811
11
-0.3084857086614173
21
-0.0489165354330709
0
LINE
8
BLACK
6
CONTINUOUS
10
-0.3084857086614173
20
-0.0489165354330709
11
-0.3103937007874016
21
-0.0476416141732283
0
LINE
8
BLACK
6
CONTINUOUS
10
-0.3103937007874016
20
-0.0476416141732283
11
-0.3123016929133858
21
-0.0489165354330709
0
LINE
8
BLACK
6
CONTINUOUS
10
-0.3123016929133858
20
-0.0489165354330709
11
-0.3153149606299213
21
-0.049515905511811
0
LINE
8
BLACK
6
CONTINUOUS
10
-0.3153149606299213
20
-0.049515905511811
11
-0.3546850393700787
21
-0.049515905511811
0
LINE
8
BLACK
6
CONTINUOUS
10
-0.3546850393700787
20
-0.049515905511811
11
-0.3576983070866142
21
-0.0489165354330709
0
LINE
8
BLACK
6
CONTINUOUS
10
-0.3576983070866142
20
-0.0489165354330709
11
-0.3596062992125984
21
-0.0476416141732283
0
LINE
8
BLACK
6
CONTINUOUS
10
-0.3596062992125984
20
-0.0476416141732283
11
-0.3615142913385826
21
-0.0489165354330709
0
LINE
8
BLACK
6
CONTINUOUS
10
-0.3615142913385826
20
-0.0489165354330709
11
-0.3645275590551181
21
-0.049515905511811
0
LINE
8
BLACK
6
CONTINUOUS
10
-0.3645275590551181
20
-0.049515905511811
11
-0.3861811023622047
21
-0.049515905511811
0
LINE
8
BLACK
6
CONTINUOUS
10
-0.3861811023622047
20
-0.049515905511811
11
-0.3871883464566929
21
-0.0493155511811024
0
LINE
8
BLACK
6
CONTINUOUS
10
-0.3871883464566929
20
-0.0493155511811024
11
-0.3889825590551181
21
-0.0493155511811024
0
LINE
8
BLACK
6
CONTINUOUS
10
-0.3889825590551181
20
-0.0493155511811024
11
-0.3912009448818898
21
-0.0489966141732283
0
LINE
8
BLACK
6
CONTINUOUS
10
-0.3912009448818898
20
-0.0489966141732283
11
-0.396576968503937
21
-0.0474180708661417
0
LINE
8
BLACK
6
CONTINUOUS
10
-0.396576968503937
20
-0.0474180708661417
11
-0.3986156299212598
21
-0.0464870078740157
0
LINE
8
BLACK
6
CONTINUOUS
10
-0.3986156299212598
20
-0.0464870078740157
11
-0.403329094488189
21
-0.0434578346456693
0
LINE
8
BLACK
6
CONTINUOUS
10
-0.403329094488189
20
-0.0434578346456693
11
-0.4050228346456693
21
-0.0419901968503937
0
LINE
8
BLACK
6
CONTINUOUS
10
-0.4050228346456693
20
-0.0419901968503937
11
-0.4086920078740157
21
-0.0377557480314961
0
LINE
8
BLACK
6
CONTINUOUS
10
-0.4086920078740157
20
-0.0377557480314961
11
-0.4099037007874016
21
-0.0358703149606299
0
LINE
8
BLACK
6
CONTINUOUS
10
-0.4099037007874016
20
-0.0358703149606299
11
-0.4122312204724409
21
-0.0307737007874016
0
LINE
8
BLACK
6
CONTINUOUS
10
-0.4122312204724409
20
-0.0307737007874016
11
-0.4128625984251968
21
-0.0286233858267717
0
LINE
8
BLACK
6
CONTINUOUS
10
-0.4128625984251968
20
-0.0286233858267717
11
-0.41366
21
-0.0230774803149606
0
LINE
8
BLACK
6
CONTINUOUS
10
-0.41366
20
-0.0230774803149606
11
-0.413740157480315
21
-0.0219568503937008
0
LINE
8
BLACK
6
CONTINUOUS
10
-0.413740157480315
20
-0.0219568503937008
11
-0.413740157480315
21
-0.002271811023622
0
LINE
8
BLACK
6
CONTINUOUS
10
-0.413740157480315
20
-0.002271811023622
11
-0.41366
21
-0.0011511811023622
0
LINE
8
BLACK
6
CONTINUOUS
10
-0.41366
20
-0.0011511811023622
11
-0.4128625984251968
21
0.0043947244094488
0
LINE
8
BLACK
6
CONTINUOUS
10
-0.4128625984251968
20
0.0043947244094488
11
-0.4122312204724409
21
0.0065450393700787
0
LINE
8
BLACK
6
CONTINUOUS
10
-0.4122312204724409
20
0.0065450393700787
11
-0.4099037007874016
21
0.0116416535433071
0
LINE
8
BLACK
6
CONTINUOUS
10
-0.4099037007874016
20
0.0116416535433071
11
-0.4086920078740157
21
0.0135270866141732
0
LINE
8
BLACK
6
CONTINUOUS
10
-0.4086920078740157
20
0.0135270866141732
11
-0.4050228346456693
21
0.0177615354330709
0
LINE
8
BLACK
6
CONTINUOUS
10
-0.4050228346456693
20
0.0177615354330709
11
-0.403329094488189
21
0.0192291732283465
0
LINE
8
BLACK
6
CONTINUOUS
10
-0.403329094488189
20
0.0192291732283465
11
-0.3986156299212598
21
0.0222583464566929
0
LINE
8
BLACK
6
CONTINUOUS
10
-0.3986156299212598
20
0.0222583464566929
11
-0.396576968503937
21
0.0231894094488189
0
LINE
8
BLACK
6
CONTINUOUS
10
-0.396576968503937
20
0.0231894094488189
11
-0.3912009448818898
21
0.0247679527559055
0
LINE
8
BLACK
6
CONTINUOUS
10
-0.3912009448818898
20
0.0247679527559055
11
-0.3889825590551181
21
0.0250868897637795
0
LINE
8
BLACK
6
CONTINUOUS
10
-0.3889825590551181
20
0.0250868897637795
11
-0.3871883464566929
21
0.0250868897637795
0
LINE
8
BLACK
6
CONTINUOUS
10
-0.3871883464566929
20
0.0250868897637795
11
-0.3861811023622047
21
0.0252872440944882
0
LINE
8
BLACK
6
CONTINUOUS
10
-0.3861811023622047
20
0.0252872440944882
11
-0.3645275590551181
21
0.0252872440944882
0
LINE
8
BLACK
6
CONTINUOUS
10
-0.3645275590551181
20
0.0252872440944882
11
-0.3615142913385826
21
0.024687874015748
0
LINE
8
BLACK
6
CONTINUOUS
10
0.2330647637795276
20
0.0405442913385827
11
0.2408196062992126
21
0.0381918897637795
0
LINE
8
BLACK
6
CONTINUOUS
10
0.2408196062992126
20
0.0381918897637795
11
0.2479664960629921
21
0.0343717716535433
0
LINE
8
BLACK
6
CONTINUOUS
10
0.2479664960629921
20
0.0343717716535433
11
0.2542307874015748
21
0.0292307874015748
0
LINE
8
BLACK
6
CONTINUOUS
10
0.2542307874015748
20
0.0292307874015748
11
0.2593717716535433
21
0.0229664960629921
0
LINE
8
BLACK
6
CONTINUOUS
10
0.2593717716535433
20
0.0229664960629921
11
0.2631918897637795
21
0.0158196062992126
0
LINE
8
BLACK
6
CONTINUOUS
10
0.2631918897637795
20
0.0158196062992126
11
0.2655442913385826
21
0.0080647637795276
0
LINE
8
BLACK
6
CONTINUOUS
10
0.2655442913385826
20
0.0080647637795276
11
0.2663385826771654
21
0.
0
LINE
8
BLACK
6
CONTINUOUS
10
0.2663385826771654
20
0.
11
0.2655442913385826
21
-0.0080647637795276
0
LINE
8
BLACK
6
CONTINUOUS
10
0.2655442913385826
20
-0.0080647637795276
11
0.2631918897637795
21
-0.0158196062992126
0
LINE
8
BLACK
6
CONTINUOUS
10
0.2631918897637795
20
-0.0158196062992126
11
0.2593717716535433
21
-0.0229664960629921
0
LINE
8
BLACK
6
CONTINUOUS
10
0.2593717716535433
20
-0.0229664960629921
11
0.2542307874015748
21
-0.0292307874015748
0
LINE
8
BLACK
6
CONTINUOUS
10
0.2542307874015748
20
-0.0292307874015748
11
0.2479664960629921
21
-0.0343717716535433
0
LINE
8
BLACK
6
CONTINUOUS
10
0.2479664960629921
20
-0.0343717716535433
11
0.2408196062992126
21
-0.0381918897637795
0
LINE
8
BLACK
6
CONTINUOUS
10
0.2408196062992126
20
-0.0381918897637795
11
0.2330647637795276
21
-0.0405442913385827
0
LINE
8
BLACK
6
CONTINUOUS
10
0.2330647637795276
20
-0.0405442913385827
11
0.225
21
-0.0413385826771654
0
LINE
8
BLACK
6
CONTINUOUS
10
0.225
20
-0.0413385826771654
11
0.2169352362204724
21
-0.0405442913385827
0
LINE
8
BLACK
6
CONTINUOUS
10
0.2169352362204724
20
-0.0405442913385827
11
0.2091803937007874
21
-0.0381918897637795
0
LINE
8
BLACK
6
CONTINUOUS
10
0.2091803937007874
20
-0.0381918897637795
11
0.2020335039370079
21
-0.0343717716535433
0
LINE
8
BLACK
6
CONTINUOUS
10
0.2020335039370079
20
-0.0343717716535433
11
0.1957692125984252
21
-0.0292307874015748
0
LINE
8
BLACK
6
CONTINUOUS
10
0.1957692125984252
20
-0.0292307874015748
11
0.1906282283464567
21
-0.0229664960629921
0
LINE
8
BLACK
6
CONTINUOUS
10
0.1906282283464567
20
-0.0229664960629921
11
0.1868081102362205
21
-0.0158196062992126
0
LINE
8
BLACK
6
CONTINUOUS
10
0.1868081102362205
20
-0.0158196062992126
11
0.1844557086614173
21
-0.0080647637795276
0
LINE
8
BLACK
6
CONTINUOUS
10
0.1844557086614173
20
-0.0080647637795276
11
0.1836614173228346
21
0.
0
LINE
8
BLACK
6
CONTINUOUS
10
0.1836614173228346
20
0.
11
0.1844557086614173
21
0.0080647637795276
0
LINE
8
BLACK
6
CONTINUOUS
10
0.1844557086614173
20
0.0080647637795276
11
0.1868081102362205
21
0.0158196062992126
0
LINE
8
BLACK
6
CONTINUOUS
10
0.1868081102362205
20
0.0158196062992126
11
0.1906282283464567
21
0.0229664960629921
0
LINE
8
BLACK
6
CONTINUOUS
10
0.1906282283464567
20
0.0229664960629921
11
0.1957692125984252
21
0.0292307874015748
0
LINE
8
BLACK
6
CONTINUOUS
10
0.1957692125984252
20
0.0292307874015748
11
0.2020335039370079
21
0.0343717716535433
0
LINE
8
BLACK
6
CONTINUOUS
10
0.2020335039370079
20
0.0343717716535433
11
0.2091803937007874
21
0.0381918897637795
0
LINE
8
BLACK
6
CONTINUOUS
10
0.2091803937007874
20
0.0381918897637795
11
0.2169352362204724
21
0.0405442913385827
0
LINE
8
BLACK
6
CONTINUOUS
10
0.2169352362204724
20
0.0405442913385827
11
0.225
21
0.0413385826771654
0
LINE
8
BLACK
6
CONTINUOUS
10
0.225
20
0.0413385826771654
11
0.2330647637795276
21
0.0405442913385827
0
LINE
8
BLACK
6
CONTINUOUS
10
0.2330647637795276
20
0.1405442913385827
11
0.2408196062992126
21
0.1381918897637795
0
LINE
8
BLACK
6
CONTINUOUS
10
0.2408196062992126
20
0.1381918897637795
11
0.2479664960629921
21
0.1343717716535433
0
LINE
8
BLACK
6
CONTINUOUS
10
0.2479664960629921
20
0.1343717716535433
11
0.2542307874015748
21
0.1292307874015748
0
LINE
8
BLACK
6
CONTINUOUS
10
0.2542307874015748
20
0.1292307874015748
11
0.2593717716535433
21
0.1229664960629921
0
LINE
8
BLACK
6
CONTINUOUS
10
0.2593717716535433
20
0.1229664960629921
11
0.2631918897637795
21
0.1158196062992126
0
LINE
8
BLACK
6
CONTINUOUS
10
0.2631918897637795
20
0.1158196062992126
11
0.2655442913385826
21
0.1080647637795276
0
LINE
8
BLACK
6
CONTINUOUS
10
0.2655442913385826
20
0.1080647637795276
11
0.2663385826771654
21
0.1
0
LINE
8
BLACK
6
CONTINUOUS
10
0.2663385826771654
20
0.1
11
0.2655442913385826
21
0.0919352362204724
0
LINE
8
BLACK
6
CONTINUOUS
10
0.2655442913385826
20
0.0919352362204724
11
0.2631918897637795
21
0.0841803937007874
0
LINE
8
BLACK
6
CONTINUOUS
10
0.2631918897637795
20
0.0841803937007874
11
0.2593717716535433
21
0.0770335039370079
0
LINE
8
BLACK
6
CONTINUOUS
10
0.2593717716535433
20
0.0770335039370079
11
0.2542307874015748
21
0.0707692125984252
0
LINE
8
BLACK
6
CONTINUOUS
10
0.2542307874015748
20
0.0707692125984252
11
0.2479664960629921
21
0.0656282283464567
0
LINE
8
BLACK
6
CONTINUOUS
10
0.2479664960629921
20
0.0656282283464567
11
0.2408196062992126
21
0.0618081102362205
0
LINE
8
BLACK
6
CONTINUOUS
10
0.2408196062992126
20
0.0618081102362205
11
0.2330647637795276
21
0.0594557086614173
0
LINE
8
BLACK
6
CONTINUOUS
10
0.2330647637795276
20
0.0594557086614173
11
0.225
21
0.0586614173228346
0
LINE
8
BLACK
6
CONTINUOUS
10
0.225
20
0.0586614173228346
11
0.2169352362204724
21
0.0594557086614173
0
LINE
8
BLACK
6
CONTINUOUS
10
0.2169352362204724
20
0.0594557086614173
11
0.2091803937007874
21
0.0618081102362205
0
LINE
8
BLACK
6
CONTINUOUS
10
0.2091803937007874
20
0.0618081102362205
11
0.2020335039370079
21
0.0656282283464567
0
LINE
8
BLACK
6
CONTINUOUS
10
0.2020335039370079
20
0.0656282283464567
11
0.1957692125984252
21
0.0707692125984252
0
LINE
8
BLACK
6
CONTINUOUS
10
0.1957692125984252
20
0.0707692125984252
11
0.1906282283464567
21
0.0770335039370079
0
LINE
8
BLACK
6
CONTINUOUS
10
0.1906282283464567
20
0.0770335039370079
11
0.1868081102362205
21
0.0841803937007874
0
LINE
8
BLACK
6
CONTINUOUS
10
0.1868081102362205
20
0.0841803937007874
11
0.1844557086614173
21
0.0919352362204724
0
LINE
8
BLACK
6
CONTINUOUS
10
0.1844557086614173
20
0.0919352362204724
11
0.1836614173228346
21
0.1
0
LINE
8
BLACK
6
CONTINUOUS
10
0.1836614173228346
20
0.1
11
0.1844557086614173
21
0.1080647637795276
0
LINE
8
BLACK
6
CONTINUOUS
10
0.1844557086614173
20
0.1080647637795276
11
0.1868081102362205
21
0.1158196062992126
0
LINE
8
BLACK
6
CONTINUOUS
10
0.1868081102362205
20
0.1158196062992126
11
0.1906282283464567
21
0.1229664960629921
0
LINE
8
BLACK
6
CONTINUOUS
10
0.1906282283464567
20
0.1229664960629921
11
0.1957692125984252
21
0.1292307874015748
0
LINE
8
BLACK
6
CONTINUOUS
10
0.1957692125984252
20
0.1292307874015748
11
0.2020335039370079
21
0.1343717716535433
0
LINE
8
BLACK
6
CONTINUOUS
10
0.2020335039370079
20
0.1343717716535433
11
0.2091803937007874
21
0.1381918897637795
0
LINE
8
BLACK
6
CONTINUOUS
10
0.2091803937007874
20
0.1381918897637795
11
0.2169352362204724
21
0.1405442913385827
0
LINE
8
BLACK
6
CONTINUOUS
10
0.2169352362204724
20
0.1405442913385827
11
0.225
21
0.1413385826771653
0
LINE
8
BLACK
6
CONTINUOUS
10
0.225
20
0.1413385826771653
11
0.2330647637795276
21
0.1405442913385827
  0
ENDSEC
  0
EOF
