  0
SECTION
  2
HEADER
  9
$ANGBASE
  50
0.0
  9
$ANGDIR
  70
1
  9
$MEASUREMENT
  70
0
  0
ENDSEC
  0
SECTION
  2
TABLES
  0
TABLE
  2
LTYPE
  70
4
  0
LTYPE
  5
40F
  2
CONTINUOUS
  70
0
  3
Solid line
  72
65
  73
0
  40
0.0
  0
LTYPE
  5
410
  2
DASHDOT
 70
0
  3
Dash Dot ____ _ ____ _
 72
65
 73
4
 40
2.0
 49
1.25
 49
-0.25
 49
0.25
 49
-0.25
  0
LTYPE
  5
411
  2
DASHED
 70
0
  3
Dashed __ __ __ __ __
 72
65
 73
2
 40
0.75
 49
0.5
 49
-0.25
  0
LTYPE
  5
43B
  2
DOTTED
 70
0
  3
Dotted .  .  .  .
 72
65
 73
2
 40
0.2
 49
0.0
 49
-0.2
  0
ENDTAB
  0
TABLE
  2
STYLE
  70
4
  0
STYLE
  2
KICAD
  70
0
  40
0
  41
1
  42
1
  50
0
  71
0
  3
isocp.shx
  0
STYLE
  2
KICADB
  70
0
  40
0
  41
1
  42
1
  50
0
  71
0
  3
isocp.shx
  0
STYLE
  2
KICADI
  70
0
  40
0
  41
1
  42
1
  50
15
  71
0
  3
isocp.shx
  0
STYLE
  2
KICADBI
  70
0
  40
0
  41
1
  42
1
  50
15
  71
0
  3
isocp.shx
  0
ENDTAB
  0
TABLE
  2
LAYER
  70
1
  0
LAYER
  2
BLACK
  70
0
  62
7
  6
CONTINUOUS
  0
ENDTAB
  0
ENDSEC
  0
SECTION
  2
ENTITIES
0
LINE
8
BLACK
6
CONTINUOUS
10
-0.751666
20
-0.31547
11
-0.748473
21
-0.317603
0
LINE
8
BLACK
6
CONTINUOUS
10
-0.748473
20
-0.317603
11
-0.74634
21
-0.320797
0
LINE
8
BLACK
6
CONTINUOUS
10
-0.74634
20
-0.320797
11
-0.745591
21
-0.324563
0
LINE
8
BLACK
6
CONTINUOUS
10
-0.745591
20
-0.324563
11
-0.745591
21
-0.344248
0
LINE
8
BLACK
6
CONTINUOUS
10
-0.745591
20
-0.344248
11
-0.74634
21
-0.348015
0
LINE
8
BLACK
6
CONTINUOUS
10
-0.74634
20
-0.348015
11
-0.748473
21
-0.351208
0
LINE
8
BLACK
6
CONTINUOUS
10
-0.748473
20
-0.351208
11
-0.751666
21
-0.353341
0
LINE
8
BLACK
6
CONTINUOUS
10
-0.751666
20
-0.353341
11
-0.755433
21
-0.354091
0
LINE
8
BLACK
6
CONTINUOUS
10
-0.755433
20
-0.354091
11
-0.842047
21
-0.354091
0
LINE
8
BLACK
6
CONTINUOUS
10
-0.842047
20
-0.354091
11
-0.845814
21
-0.353341
0
LINE
8
BLACK
6
CONTINUOUS
10
-0.845814
20
-0.353341
11
-0.849007
21
-0.351208
0
LINE
8
BLACK
6
CONTINUOUS
10
-0.849007
20
-0.351208
11
-0.851141
21
-0.348015
0
LINE
8
BLACK
6
CONTINUOUS
10
-0.851141
20
-0.348015
11
-0.85189
21
-0.344248
0
LINE
8
BLACK
6
CONTINUOUS
10
-0.85189
20
-0.344248
11
-0.85189
21
-0.324563
0
LINE
8
BLACK
6
CONTINUOUS
10
-0.85189
20
-0.324563
11
-0.851141
21
-0.320797
0
LINE
8
BLACK
6
CONTINUOUS
10
-0.851141
20
-0.320797
11
-0.849007
21
-0.317603
0
LINE
8
BLACK
6
CONTINUOUS
10
-0.849007
20
-0.317603
11
-0.845814
21
-0.31547
0
LINE
8
BLACK
6
CONTINUOUS
10
-0.845814
20
-0.31547
11
-0.842047
21
-0.314721
0
LINE
8
BLACK
6
CONTINUOUS
10
-0.842047
20
-0.314721
11
-0.755433
21
-0.314721
0
LINE
8
BLACK
6
CONTINUOUS
10
-0.755433
20
-0.314721
11
-0.751666
21
-0.31547
0
LINE
8
BLACK
6
CONTINUOUS
10
-0.194506
20
-0.306698
11
-0.191952
21
-0.308405
0
LINE
8
BLACK
6
CONTINUOUS
10
-0.191952
20
-0.308405
11
-0.190245
21
-0.310959
0
LINE
8
BLACK
6
CONTINUOUS
10
-0.190245
20
-0.310959
11
-0.189646
21
-0.313973
0
LINE
8
BLACK
6
CONTINUOUS
10
-0.189646
20
-0.313973
11
-0.189646
21
-0.329721
0
LINE
8
BLACK
6
CONTINUOUS
10
-0.189646
20
-0.329721
11
-0.190245
21
-0.332734
0
LINE
8
BLACK
6
CONTINUOUS
10
-0.190245
20
-0.332734
11
-0.191952
21
-0.335288
0
LINE
8
BLACK
6
CONTINUOUS
10
-0.191952
20
-0.335288
11
-0.194506
21
-0.336995
0
LINE
8
BLACK
6
CONTINUOUS
10
-0.194506
20
-0.336995
11
-0.19752
21
-0.337595
0
LINE
8
BLACK
6
CONTINUOUS
10
-0.19752
20
-0.337595
11
-0.219173
21
-0.337595
0
LINE
8
BLACK
6
CONTINUOUS
10
-0.219173
20
-0.337595
11
-0.222186
21
-0.336995
0
LINE
8
BLACK
6
CONTINUOUS
10
-0.222186
20
-0.336995
11
-0.224741
21
-0.335288
0
LINE
8
BLACK
6
CONTINUOUS
10
-0.224741
20
-0.335288
11
-0.226448
21
-0.332734
0
LINE
8
BLACK
6
CONTINUOUS
10
-0.226448
20
-0.332734
11
-0.227047
21
-0.329721
0
LINE
8
BLACK
6
CONTINUOUS
10
-0.227047
20
-0.329721
11
-0.227047
21
-0.313973
0
LINE
8
BLACK
6
CONTINUOUS
10
-0.227047
20
-0.313973
11
-0.226448
21
-0.310959
0
LINE
8
BLACK
6
CONTINUOUS
10
-0.226448
20
-0.310959
11
-0.224741
21
-0.308405
0
LINE
8
BLACK
6
CONTINUOUS
10
-0.224741
20
-0.308405
11
-0.222186
21
-0.306698
0
LINE
8
BLACK
6
CONTINUOUS
10
-0.222186
20
-0.306698
11
-0.219173
21
-0.306099
0
LINE
8
BLACK
6
CONTINUOUS
10
-0.219173
20
-0.306099
11
-0.19752
21
-0.306099
0
LINE
8
BLACK
6
CONTINUOUS
10
-0.19752
20
-0.306099
11
-0.194506
21
-0.306698
0
LINE
8
BLACK
6
CONTINUOUS
10
-0.12616
20
-0.306442
11
-0.123605
21
-0.308149
0
LINE
8
BLACK
6
CONTINUOUS
10
-0.123605
20
-0.308149
11
-0.121899
21
-0.310703
0
LINE
8
BLACK
6
CONTINUOUS
10
-0.121899
20
-0.310703
11
-0.121299
21
-0.313717
0
LINE
8
BLACK
6
CONTINUOUS
10
-0.121299
20
-0.313717
11
-0.121299
21
-0.329465
0
LINE
8
BLACK
6
CONTINUOUS
10
-0.121299
20
-0.329465
11
-0.121899
21
-0.332478
0
LINE
8
BLACK
6
CONTINUOUS
10
-0.121899
20
-0.332478
11
-0.123605
21
-0.335032
0
LINE
8
BLACK
6
CONTINUOUS
10
-0.123605
20
-0.335032
11
-0.12616
21
-0.336739
0
LINE
8
BLACK
6
CONTINUOUS
10
-0.12616
20
-0.336739
11
-0.129173
21
-0.337339
0
LINE
8
BLACK
6
CONTINUOUS
10
-0.129173
20
-0.337339
11
-0.150827
21
-0.337339
0
LINE
8
BLACK
6
CONTINUOUS
10
-0.150827
20
-0.337339
11
-0.15384
21
-0.336739
0
LINE
8
BLACK
6
CONTINUOUS
10
-0.15384
20
-0.336739
11
-0.156395
21
-0.335032
0
LINE
8
BLACK
6
CONTINUOUS
10
-0.156395
20
-0.335032
11
-0.158101
21
-0.332478
0
LINE
8
BLACK
6
CONTINUOUS
10
-0.158101
20
-0.332478
11
-0.158701
21
-0.329465
0
LINE
8
BLACK
6
CONTINUOUS
10
-0.158701
20
-0.329465
11
-0.158701
21
-0.313717
0
LINE
8
BLACK
6
CONTINUOUS
10
-0.158701
20
-0.313717
11
-0.158101
21
-0.310703
0
LINE
8
BLACK
6
CONTINUOUS
10
-0.158101
20
-0.310703
11
-0.156395
21
-0.308149
0
LINE
8
BLACK
6
CONTINUOUS
10
-0.156395
20
-0.308149
11
-0.15384
21
-0.306442
0
LINE
8
BLACK
6
CONTINUOUS
10
-0.15384
20
-0.306442
11
-0.150827
21
-0.305843
0
LINE
8
BLACK
6
CONTINUOUS
10
-0.150827
20
-0.305843
11
-0.129173
21
-0.305843
0
LINE
8
BLACK
6
CONTINUOUS
10
-0.129173
20
-0.305843
11
-0.12616
21
-0.306442
0
LINE
8
BLACK
6
CONTINUOUS
10
0.173232
20
-0.286596
11
0.176106
21
-0.288516
0
LINE
8
BLACK
6
CONTINUOUS
10
0.176106
20
-0.288516
11
0.178026
21
-0.29139
0
LINE
8
BLACK
6
CONTINUOUS
10
0.178026
20
-0.29139
11
0.178701
21
-0.29478
0
LINE
8
BLACK
6
CONTINUOUS
10
0.178701
20
-0.29478
11
0.178701
21
-0.312496
0
LINE
8
BLACK
6
CONTINUOUS
10
0.178701
20
-0.312496
11
0.178026
21
-0.315886
0
LINE
8
BLACK
6
CONTINUOUS
10
0.178026
20
-0.315886
11
0.176106
21
-0.31876
0
LINE
8
BLACK
6
CONTINUOUS
10
0.176106
20
-0.31876
11
0.173232
21
-0.32068
0
LINE
8
BLACK
6
CONTINUOUS
10
0.173232
20
-0.32068
11
0.169843
21
-0.321354
0
LINE
8
BLACK
6
CONTINUOUS
10
0.169843
20
-0.321354
11
0.150157
21
-0.321354
0
LINE
8
BLACK
6
CONTINUOUS
10
0.150157
20
-0.321354
11
0.146768
21
-0.32068
0
LINE
8
BLACK
6
CONTINUOUS
10
0.146768
20
-0.32068
11
0.143894
21
-0.31876
0
LINE
8
BLACK
6
CONTINUOUS
10
0.143894
20
-0.31876
11
0.141974
21
-0.315886
0
LINE
8
BLACK
6
CONTINUOUS
10
0.141974
20
-0.315886
11
0.141299
21
-0.312496
0
LINE
8
BLACK
6
CONTINUOUS
10
0.141299
20
-0.312496
11
0.141299
21
-0.29478
0
LINE
8
BLACK
6
CONTINUOUS
10
0.141299
20
-0.29478
11
0.141974
21
-0.29139
0
LINE
8
BLACK
6
CONTINUOUS
10
0.141974
20
-0.29139
11
0.143894
21
-0.288516
0
LINE
8
BLACK
6
CONTINUOUS
10
0.143894
20
-0.288516
11
0.146768
21
-0.286596
0
LINE
8
BLACK
6
CONTINUOUS
10
0.146768
20
-0.286596
11
0.150157
21
-0.285921
0
LINE
8
BLACK
6
CONTINUOUS
10
0.150157
20
-0.285921
11
0.169843
21
-0.285921
0
LINE
8
BLACK
6
CONTINUOUS
10
0.169843
20
-0.285921
11
0.173232
21
-0.286596
0
LINE
8
BLACK
6
CONTINUOUS
10
0.262283
20
-0.320311
11
0.246535
21
-0.320311
0
LINE
8
BLACK
6
CONTINUOUS
10
0.246535
20
-0.320311
11
0.246535
21
-0.294721
0
LINE
8
BLACK
6
CONTINUOUS
10
0.246535
20
-0.294721
11
0.262283
21
-0.294721
0
LINE
8
BLACK
6
CONTINUOUS
10
0.262283
20
-0.294721
11
0.262283
21
-0.320311
0
LINE
8
BLACK
6
CONTINUOUS
10
0.313465
20
-0.320311
11
0.297717
21
-0.320311
0
LINE
8
BLACK
6
CONTINUOUS
10
0.297717
20
-0.320311
11
0.297717
21
-0.294721
0
LINE
8
BLACK
6
CONTINUOUS
10
0.297717
20
-0.294721
11
0.313465
21
-0.294721
0
LINE
8
BLACK
6
CONTINUOUS
10
0.313465
20
-0.294721
11
0.313465
21
-0.320311
0
LINE
8
BLACK
6
CONTINUOUS
10
-0.464173
20
-0.260635
11
-0.463154
21
-0.260539
0
LINE
8
BLACK
6
CONTINUOUS
10
-0.463154
20
-0.260539
11
-0.459869
21
-0.261753
0
LINE
8
BLACK
6
CONTINUOUS
10
-0.459869
20
-0.261753
11
-0.457436
21
-0.264272
0
LINE
8
BLACK
6
CONTINUOUS
10
-0.457436
20
-0.264272
11
-0.456335
21
-0.267597
0
LINE
8
BLACK
6
CONTINUOUS
10
-0.456335
20
-0.267597
11
-0.456785
21
-0.27107
0
LINE
8
BLACK
6
CONTINUOUS
10
-0.456785
20
-0.27107
11
-0.457034
21
-0.271452
0
LINE
8
BLACK
6
CONTINUOUS
10
-0.457034
20
-0.271452
11
-0.459054
21
-0.278441
0
LINE
8
BLACK
6
CONTINUOUS
10
-0.459054
20
-0.278441
11
-0.46014
21
-0.286098
0
LINE
8
BLACK
6
CONTINUOUS
10
-0.46014
20
-0.286098
11
-0.460145
21
-0.293832
0
LINE
8
BLACK
6
CONTINUOUS
10
-0.460145
20
-0.293832
11
-0.459068
21
-0.301491
0
LINE
8
BLACK
6
CONTINUOUS
10
-0.459068
20
-0.301491
11
-0.457053
21
-0.308497
0
LINE
8
BLACK
6
CONTINUOUS
10
-0.457053
20
-0.308497
11
-0.4568
21
-0.308891
0
LINE
8
BLACK
6
CONTINUOUS
10
-0.4568
20
-0.308891
11
-0.456366
21
-0.312366
0
LINE
8
BLACK
6
CONTINUOUS
10
-0.456366
20
-0.312366
11
-0.457482
21
-0.315686
0
LINE
8
BLACK
6
CONTINUOUS
10
-0.457482
20
-0.315686
11
-0.459928
21
-0.318193
0
LINE
8
BLACK
6
CONTINUOUS
10
-0.459928
20
-0.318193
11
-0.463219
21
-0.319391
0
LINE
8
BLACK
6
CONTINUOUS
10
-0.463219
20
-0.319391
11
-0.464173
21
-0.319296
0
LINE
8
BLACK
6
CONTINUOUS
10
-0.464173
20
-0.319296
11
-0.464173
21
-0.319528
0
LINE
8
BLACK
6
CONTINUOUS
10
-0.464173
20
-0.319528
11
-0.505512
21
-0.319528
0
LINE
8
BLACK
6
CONTINUOUS
10
-0.505512
20
-0.319528
11
-0.505512
21
-0.260472
0
LINE
8
BLACK
6
CONTINUOUS
10
-0.505512
20
-0.260472
11
-0.464173
21
-0.260472
0
LINE
8
BLACK
6
CONTINUOUS
10
-0.464173
20
-0.260472
11
-0.464173
21
-0.260635
0
LINE
8
BLACK
6
CONTINUOUS
10
-0.304724
20
-0.319528
11
-0.346063
21
-0.319528
0
LINE
8
BLACK
6
CONTINUOUS
10
-0.346063
20
-0.319528
11
-0.346063
21
-0.319365
0
LINE
8
BLACK
6
CONTINUOUS
10
-0.346063
20
-0.319365
11
-0.347082
21
-0.319461
0
LINE
8
BLACK
6
CONTINUOUS
10
-0.347082
20
-0.319461
11
-0.350367
21
-0.318247
0
LINE
8
BLACK
6
CONTINUOUS
10
-0.350367
20
-0.318247
11
-0.352801
21
-0.315728
0
LINE
8
BLACK
6
CONTINUOUS
10
-0.352801
20
-0.315728
11
-0.353901
21
-0.312403
0
LINE
8
BLACK
6
CONTINUOUS
10
-0.353901
20
-0.312403
11
-0.353451
21
-0.30893
0
LINE
8
BLACK
6
CONTINUOUS
10
-0.353451
20
-0.30893
11
-0.353202
21
-0.308548
0
LINE
8
BLACK
6
CONTINUOUS
10
-0.353202
20
-0.308548
11
-0.351183
21
-0.301559
0
LINE
8
BLACK
6
CONTINUOUS
10
-0.351183
20
-0.301559
11
-0.350096
21
-0.293902
0
LINE
8
BLACK
6
CONTINUOUS
10
-0.350096
20
-0.293902
11
-0.350091
21
-0.286168
0
LINE
8
BLACK
6
CONTINUOUS
10
-0.350091
20
-0.286168
11
-0.351168
21
-0.278509
0
LINE
8
BLACK
6
CONTINUOUS
10
-0.351168
20
-0.278509
11
-0.353183
21
-0.271503
0
LINE
8
BLACK
6
CONTINUOUS
10
-0.353183
20
-0.271503
11
-0.353437
21
-0.271109
0
LINE
8
BLACK
6
CONTINUOUS
10
-0.353437
20
-0.271109
11
-0.35387
21
-0.267634
0
LINE
8
BLACK
6
CONTINUOUS
10
-0.35387
20
-0.267634
11
-0.352754
21
-0.264314
0
LINE
8
BLACK
6
CONTINUOUS
10
-0.352754
20
-0.264314
11
-0.350308
21
-0.261807
0
LINE
8
BLACK
6
CONTINUOUS
10
-0.350308
20
-0.261807
11
-0.347018
21
-0.260609
0
LINE
8
BLACK
6
CONTINUOUS
10
-0.347018
20
-0.260609
11
-0.346063
21
-0.260704
0
LINE
8
BLACK
6
CONTINUOUS
10
-0.346063
20
-0.260704
11
-0.346063
21
-0.260472
0
LINE
8
BLACK
6
CONTINUOUS
10
-0.346063
20
-0.260472
11
-0.304724
21
-0.260472
0
LINE
8
BLACK
6
CONTINUOUS
10
-0.304724
20
-0.260472
11
-0.304724
21
-0.319528
0
LINE
8
BLACK
6
CONTINUOUS
10
0.0889764
20
-0.312992
11
0.0476378
21
-0.312992
0
LINE
8
BLACK
6
CONTINUOUS
10
0.0476378
20
-0.312992
11
0.0476378
21
-0.312829
0
LINE
8
BLACK
6
CONTINUOUS
10
0.0476378
20
-0.312829
11
0.0466189
21
-0.312926
0
LINE
8
BLACK
6
CONTINUOUS
10
0.0466189
20
-0.312926
11
0.0433337
21
-0.311711
0
LINE
8
BLACK
6
CONTINUOUS
10
0.0433337
20
-0.311711
11
0.0409002
21
-0.309193
0
LINE
8
BLACK
6
CONTINUOUS
10
0.0409002
20
-0.309193
11
0.0397996
21
-0.305868
0
LINE
8
BLACK
6
CONTINUOUS
10
0.0397996
20
-0.305868
11
0.0402499
21
-0.302394
0
LINE
8
BLACK
6
CONTINUOUS
10
0.0402499
20
-0.302394
11
0.0404988
21
-0.302012
0
LINE
8
BLACK
6
CONTINUOUS
10
0.0404988
20
-0.302012
11
0.0425181
21
-0.295023
0
LINE
8
BLACK
6
CONTINUOUS
10
0.0425181
20
-0.295023
11
0.0436047
21
-0.287366
0
LINE
8
BLACK
6
CONTINUOUS
10
0.0436047
20
-0.287366
11
0.0436095
21
-0.279632
0
LINE
8
BLACK
6
CONTINUOUS
10
0.0436095
20
-0.279632
11
0.0425327
21
-0.271974
0
LINE
8
BLACK
6
CONTINUOUS
10
0.0425327
20
-0.271974
11
0.0405178
21
-0.264967
0
LINE
8
BLACK
6
CONTINUOUS
10
0.0405178
20
-0.264967
11
0.0402643
21
-0.264574
0
LINE
8
BLACK
6
CONTINUOUS
10
0.0402643
20
-0.264574
11
0.0398305
21
-0.261099
0
LINE
8
BLACK
6
CONTINUOUS
10
0.0398305
20
-0.261099
11
0.0409468
21
-0.257779
0
LINE
8
BLACK
6
CONTINUOUS
10
0.0409468
20
-0.257779
11
0.0433923
21
-0.255272
0
LINE
8
BLACK
6
CONTINUOUS
10
0.0433923
20
-0.255272
11
0.0466831
21
-0.254073
0
LINE
8
BLACK
6
CONTINUOUS
10
0.0466831
20
-0.254073
11
0.0476378
21
-0.254168
0
LINE
8
BLACK
6
CONTINUOUS
10
0.0476378
20
-0.254168
11
0.0476378
21
-0.253937
0
LINE
8
BLACK
6
CONTINUOUS
10
0.0476378
20
-0.253937
11
0.0889764
21
-0.253937
0
LINE
8
BLACK
6
CONTINUOUS
10
0.0889764
20
-0.253937
11
0.0889764
21
-0.312992
0
LINE
8
BLACK
6
CONTINUOUS
10
-0.0704724
20
-0.2541
11
-0.0694535
21
-0.254003
0
LINE
8
BLACK
6
CONTINUOUS
10
-0.0694535
20
-0.254003
11
-0.0661684
21
-0.255218
0
LINE
8
BLACK
6
CONTINUOUS
10
-0.0661684
20
-0.255218
11
-0.0637348
21
-0.257737
0
LINE
8
BLACK
6
CONTINUOUS
10
-0.0637348
20
-0.257737
11
-0.0626343
21
-0.261061
0
LINE
8
BLACK
6
CONTINUOUS
10
-0.0626343
20
-0.261061
11
-0.0630846
21
-0.264535
0
LINE
8
BLACK
6
CONTINUOUS
10
-0.0630846
20
-0.264535
11
-0.0633335
21
-0.264917
0
LINE
8
BLACK
6
CONTINUOUS
10
-0.0633335
20
-0.264917
11
-0.0653528
21
-0.271906
0
LINE
8
BLACK
6
CONTINUOUS
10
-0.0653528
20
-0.271906
11
-0.0664393
21
-0.279563
0
LINE
8
BLACK
6
CONTINUOUS
10
-0.0664393
20
-0.279563
11
-0.0664442
21
-0.287297
0
LINE
8
BLACK
6
CONTINUOUS
10
-0.0664442
20
-0.287297
11
-0.0653673
21
-0.294956
0
LINE
8
BLACK
6
CONTINUOUS
10
-0.0653673
20
-0.294956
11
-0.0633525
21
-0.301962
0
LINE
8
BLACK
6
CONTINUOUS
10
-0.0633525
20
-0.301962
11
-0.0630989
21
-0.302355
0
LINE
8
BLACK
6
CONTINUOUS
10
-0.0630989
20
-0.302355
11
-0.0626652
21
-0.30583
0
LINE
8
BLACK
6
CONTINUOUS
10
-0.0626652
20
-0.30583
11
-0.0637815
21
-0.30915
0
LINE
8
BLACK
6
CONTINUOUS
10
-0.0637815
20
-0.30915
11
-0.066227
21
-0.311657
0
LINE
8
BLACK
6
CONTINUOUS
10
-0.066227
20
-0.311657
11
-0.0695178
21
-0.312856
0
LINE
8
BLACK
6
CONTINUOUS
10
-0.0695178
20
-0.312856
11
-0.0704724
21
-0.312761
0
LINE
8
BLACK
6
CONTINUOUS
10
-0.0704724
20
-0.312761
11
-0.0704724
21
-0.312992
0
LINE
8
BLACK
6
CONTINUOUS
10
-0.0704724
20
-0.312992
11
-0.111811
21
-0.312992
0
LINE
8
BLACK
6
CONTINUOUS
10
-0.111811
20
-0.312992
11
-0.111811
21
-0.253937
0
LINE
8
BLACK
6
CONTINUOUS
10
-0.111811
20
-0.253937
11
-0.0704724
21
-0.253937
0
LINE
8
BLACK
6
CONTINUOUS
10
-0.0704724
20
-0.253937
11
-0.0704724
21
-0.2541
0
LINE
8
BLACK
6
CONTINUOUS
10
-0.642937
20
-0.25021
11
-0.641021
21
-0.25149
0
LINE
8
BLACK
6
CONTINUOUS
10
-0.641021
20
-0.25149
11
-0.639741
21
-0.253406
0
LINE
8
BLACK
6
CONTINUOUS
10
-0.639741
20
-0.253406
11
-0.639291
21
-0.255666
0
LINE
8
BLACK
6
CONTINUOUS
10
-0.639291
20
-0.255666
11
-0.639291
21
-0.267477
0
LINE
8
BLACK
6
CONTINUOUS
10
-0.639291
20
-0.267477
11
-0.639741
21
-0.269736
0
LINE
8
BLACK
6
CONTINUOUS
10
-0.639741
20
-0.269736
11
-0.641021
21
-0.271652
0
LINE
8
BLACK
6
CONTINUOUS
10
-0.641021
20
-0.271652
11
-0.642937
21
-0.272933
0
LINE
8
BLACK
6
CONTINUOUS
10
-0.642937
20
-0.272933
11
-0.645197
21
-0.273382
0
LINE
8
BLACK
6
CONTINUOUS
10
-0.645197
20
-0.273382
11
-0.700315
21
-0.273382
0
LINE
8
BLACK
6
CONTINUOUS
10
-0.700315
20
-0.273382
11
-0.702575
21
-0.272933
0
LINE
8
BLACK
6
CONTINUOUS
10
-0.702575
20
-0.272933
11
-0.704491
21
-0.271652
0
LINE
8
BLACK
6
CONTINUOUS
10
-0.704491
20
-0.271652
11
-0.705771
21
-0.269736
0
LINE
8
BLACK
6
CONTINUOUS
10
-0.705771
20
-0.269736
11
-0.70622
21
-0.267477
0
LINE
8
BLACK
6
CONTINUOUS
10
-0.70622
20
-0.267477
11
-0.70622
21
-0.255666
0
LINE
8
BLACK
6
CONTINUOUS
10
-0.70622
20
-0.255666
11
-0.705771
21
-0.253406
0
LINE
8
BLACK
6
CONTINUOUS
10
-0.705771
20
-0.253406
11
-0.704491
21
-0.25149
0
LINE
8
BLACK
6
CONTINUOUS
10
-0.704491
20
-0.25149
11
-0.702575
21
-0.25021
0
LINE
8
BLACK
6
CONTINUOUS
10
-0.702575
20
-0.25021
11
-0.700315
21
-0.24976
0
LINE
8
BLACK
6
CONTINUOUS
10
-0.700315
20
-0.24976
11
-0.645197
21
-0.24976
0
LINE
8
BLACK
6
CONTINUOUS
10
-0.645197
20
-0.24976
11
-0.642937
21
-0.25021
0
LINE
8
BLACK
6
CONTINUOUS
10
-0.194506
20
-0.241737
11
-0.191952
21
-0.243444
0
LINE
8
BLACK
6
CONTINUOUS
10
-0.191952
20
-0.243444
11
-0.190245
21
-0.245999
0
LINE
8
BLACK
6
CONTINUOUS
10
-0.190245
20
-0.245999
11
-0.189646
21
-0.249012
0
LINE
8
BLACK
6
CONTINUOUS
10
-0.189646
20
-0.249012
11
-0.189646
21
-0.26476
0
LINE
8
BLACK
6
CONTINUOUS
10
-0.189646
20
-0.26476
11
-0.190245
21
-0.267773
0
LINE
8
BLACK
6
CONTINUOUS
10
-0.190245
20
-0.267773
11
-0.191952
21
-0.270328
0
LINE
8
BLACK
6
CONTINUOUS
10
-0.191952
20
-0.270328
11
-0.194506
21
-0.272035
0
LINE
8
BLACK
6
CONTINUOUS
10
-0.194506
20
-0.272035
11
-0.19752
21
-0.272634
0
LINE
8
BLACK
6
CONTINUOUS
10
-0.19752
20
-0.272634
11
-0.219173
21
-0.272634
0
LINE
8
BLACK
6
CONTINUOUS
10
-0.219173
20
-0.272634
11
-0.222186
21
-0.272035
0
LINE
8
BLACK
6
CONTINUOUS
10
-0.222186
20
-0.272035
11
-0.224741
21
-0.270328
0
LINE
8
BLACK
6
CONTINUOUS
10
-0.224741
20
-0.270328
11
-0.226448
21
-0.267773
0
LINE
8
BLACK
6
CONTINUOUS
10
-0.226448
20
-0.267773
11
-0.227047
21
-0.26476
0
LINE
8
BLACK
6
CONTINUOUS
10
-0.227047
20
-0.26476
11
-0.227047
21
-0.249012
0
LINE
8
BLACK
6
CONTINUOUS
10
-0.227047
20
-0.249012
11
-0.226448
21
-0.245999
0
LINE
8
BLACK
6
CONTINUOUS
10
-0.226448
20
-0.245999
11
-0.224741
21
-0.243444
0
LINE
8
BLACK
6
CONTINUOUS
10
-0.224741
20
-0.243444
11
-0.222186
21
-0.241737
0
LINE
8
BLACK
6
CONTINUOUS
10
-0.222186
20
-0.241737
11
-0.219173
21
-0.241138
0
LINE
8
BLACK
6
CONTINUOUS
10
-0.219173
20
-0.241138
11
-0.19752
21
-0.241138
0
LINE
8
BLACK
6
CONTINUOUS
10
-0.19752
20
-0.241138
11
-0.194506
21
-0.241737
0
LINE
8
BLACK
6
CONTINUOUS
10
-0.12616
20
-0.241481
11
-0.123605
21
-0.243188
0
LINE
8
BLACK
6
CONTINUOUS
10
-0.123605
20
-0.243188
11
-0.121899
21
-0.245743
0
LINE
8
BLACK
6
CONTINUOUS
10
-0.121899
20
-0.245743
11
-0.121299
21
-0.248756
0
LINE
8
BLACK
6
CONTINUOUS
10
-0.121299
20
-0.248756
11
-0.121299
21
-0.264504
0
LINE
8
BLACK
6
CONTINUOUS
10
-0.121299
20
-0.264504
11
-0.121899
21
-0.267517
0
LINE
8
BLACK
6
CONTINUOUS
10
-0.121899
20
-0.267517
11
-0.123605
21
-0.270072
0
LINE
8
BLACK
6
CONTINUOUS
10
-0.123605
20
-0.270072
11
-0.12616
21
-0.271779
0
LINE
8
BLACK
6
CONTINUOUS
10
-0.12616
20
-0.271779
11
-0.129173
21
-0.272378
0
LINE
8
BLACK
6
CONTINUOUS
10
-0.129173
20
-0.272378
11
-0.150827
21
-0.272378
0
LINE
8
BLACK
6
CONTINUOUS
10
-0.150827
20
-0.272378
11
-0.15384
21
-0.271779
0
LINE
8
BLACK
6
CONTINUOUS
10
-0.15384
20
-0.271779
11
-0.156395
21
-0.270072
0
LINE
8
BLACK
6
CONTINUOUS
10
-0.156395
20
-0.270072
11
-0.158101
21
-0.267517
0
LINE
8
BLACK
6
CONTINUOUS
10
-0.158101
20
-0.267517
11
-0.158701
21
-0.264504
0
LINE
8
BLACK
6
CONTINUOUS
10
-0.158701
20
-0.264504
11
-0.158701
21
-0.248756
0
LINE
8
BLACK
6
CONTINUOUS
10
-0.158701
20
-0.248756
11
-0.158101
21
-0.245743
0
LINE
8
BLACK
6
CONTINUOUS
10
-0.158101
20
-0.245743
11
-0.156395
21
-0.243188
0
LINE
8
BLACK
6
CONTINUOUS
10
-0.156395
20
-0.243188
11
-0.15384
21
-0.241481
0
LINE
8
BLACK
6
CONTINUOUS
10
-0.15384
20
-0.241481
11
-0.150827
21
-0.240882
0
LINE
8
BLACK
6
CONTINUOUS
10
-0.150827
20
-0.240882
11
-0.129173
21
-0.240882
0
LINE
8
BLACK
6
CONTINUOUS
10
-0.129173
20
-0.240882
11
-0.12616
21
-0.241481
0
LINE
8
BLACK
6
CONTINUOUS
10
0.173232
20
-0.225572
11
0.176106
21
-0.227492
0
LINE
8
BLACK
6
CONTINUOUS
10
0.176106
20
-0.227492
11
0.178026
21
-0.230366
0
LINE
8
BLACK
6
CONTINUOUS
10
0.178026
20
-0.230366
11
0.178701
21
-0.233756
0
LINE
8
BLACK
6
CONTINUOUS
10
0.178701
20
-0.233756
11
0.178701
21
-0.251473
0
LINE
8
BLACK
6
CONTINUOUS
10
0.178701
20
-0.251473
11
0.178026
21
-0.254863
0
LINE
8
BLACK
6
CONTINUOUS
10
0.178026
20
-0.254863
11
0.176106
21
-0.257736
0
LINE
8
BLACK
6
CONTINUOUS
10
0.176106
20
-0.257736
11
0.173232
21
-0.259657
0
LINE
8
BLACK
6
CONTINUOUS
10
0.173232
20
-0.259657
11
0.169843
21
-0.260331
0
LINE
8
BLACK
6
CONTINUOUS
10
0.169843
20
-0.260331
11
0.150157
21
-0.260331
0
LINE
8
BLACK
6
CONTINUOUS
10
0.150157
20
-0.260331
11
0.146768
21
-0.259657
0
LINE
8
BLACK
6
CONTINUOUS
10
0.146768
20
-0.259657
11
0.143894
21
-0.257736
0
LINE
8
BLACK
6
CONTINUOUS
10
0.143894
20
-0.257736
11
0.141974
21
-0.254863
0
LINE
8
BLACK
6
CONTINUOUS
10
0.141974
20
-0.254863
11
0.141299
21
-0.251473
0
LINE
8
BLACK
6
CONTINUOUS
10
0.141299
20
-0.251473
11
0.141299
21
-0.233756
0
LINE
8
BLACK
6
CONTINUOUS
10
0.141299
20
-0.233756
11
0.141974
21
-0.230366
0
LINE
8
BLACK
6
CONTINUOUS
10
0.141974
20
-0.230366
11
0.143894
21
-0.227492
0
LINE
8
BLACK
6
CONTINUOUS
10
0.143894
20
-0.227492
11
0.146768
21
-0.225572
0
LINE
8
BLACK
6
CONTINUOUS
10
0.146768
20
-0.225572
11
0.150157
21
-0.224898
0
LINE
8
BLACK
6
CONTINUOUS
10
0.150157
20
-0.224898
11
0.169843
21
-0.224898
0
LINE
8
BLACK
6
CONTINUOUS
10
0.169843
20
-0.224898
11
0.173232
21
-0.225572
0
LINE
8
BLACK
6
CONTINUOUS
10
0.262283
20
-0.245508
11
0.246535
21
-0.245508
0
LINE
8
BLACK
6
CONTINUOUS
10
0.246535
20
-0.245508
11
0.246535
21
-0.219917
0
LINE
8
BLACK
6
CONTINUOUS
10
0.246535
20
-0.219917
11
0.262283
21
-0.219917
0
LINE
8
BLACK
6
CONTINUOUS
10
0.262283
20
-0.219917
11
0.262283
21
-0.245508
0
LINE
8
BLACK
6
CONTINUOUS
10
0.287874
20
-0.245508
11
0.272126
21
-0.245508
0
LINE
8
BLACK
6
CONTINUOUS
10
0.272126
20
-0.245508
11
0.272126
21
-0.219917
0
LINE
8
BLACK
6
CONTINUOUS
10
0.272126
20
-0.219917
11
0.287874
21
-0.219917
0
LINE
8
BLACK
6
CONTINUOUS
10
0.287874
20
-0.219917
11
0.287874
21
-0.245508
0
LINE
8
BLACK
6
CONTINUOUS
10
0.313465
20
-0.245508
11
0.297717
21
-0.245508
0
LINE
8
BLACK
6
CONTINUOUS
10
0.297717
20
-0.245508
11
0.297717
21
-0.219917
0
LINE
8
BLACK
6
CONTINUOUS
10
0.297717
20
-0.219917
11
0.313465
21
-0.219917
0
LINE
8
BLACK
6
CONTINUOUS
10
0.313465
20
-0.219917
11
0.313465
21
-0.245508
0
LINE
8
BLACK
6
CONTINUOUS
10
-0.437597
20
-0.123461
11
-0.433458
21
-0.12529
0
LINE
8
BLACK
6
CONTINUOUS
10
-0.433458
20
-0.12529
11
-0.430136
21
-0.128362
0
LINE
8
BLACK
6
CONTINUOUS
10
-0.430136
20
-0.128362
11
-0.427987
21
-0.132344
0
LINE
8
BLACK
6
CONTINUOUS
10
-0.427987
20
-0.132344
11
-0.427244
21
-0.136807
0
LINE
8
BLACK
6
CONTINUOUS
10
-0.427244
20
-0.136807
11
-0.427244
21
-0.21161
0
LINE
8
BLACK
6
CONTINUOUS
10
-0.427244
20
-0.21161
11
-0.427449
21
-0.213979
0
LINE
8
BLACK
6
CONTINUOUS
10
-0.427449
20
-0.213979
11
-0.428949
21
-0.218249
0
LINE
8
BLACK
6
CONTINUOUS
10
-0.428949
20
-0.218249
11
-0.43175
21
-0.221802
0
LINE
8
BLACK
6
CONTINUOUS
10
-0.43175
20
-0.221802
11
-0.435551
21
-0.224257
0
LINE
8
BLACK
6
CONTINUOUS
10
-0.435551
20
-0.224257
11
-0.439942
21
-0.225347
0
LINE
8
BLACK
6
CONTINUOUS
10
-0.439942
20
-0.225347
11
-0.44445
21
-0.224957
0
LINE
8
BLACK
6
CONTINUOUS
10
-0.44445
20
-0.224957
11
-0.448589
21
-0.223127
0
LINE
8
BLACK
6
CONTINUOUS
10
-0.448589
20
-0.223127
11
-0.451912
21
-0.220056
0
LINE
8
BLACK
6
CONTINUOUS
10
-0.451912
20
-0.220056
11
-0.45406
21
-0.216074
0
LINE
8
BLACK
6
CONTINUOUS
10
-0.45406
20
-0.216074
11
-0.454803
21
-0.21161
0
LINE
8
BLACK
6
CONTINUOUS
10
-0.454803
20
-0.21161
11
-0.454803
21
-0.136807
0
LINE
8
BLACK
6
CONTINUOUS
10
-0.454803
20
-0.136807
11
-0.454598
21
-0.134438
0
LINE
8
BLACK
6
CONTINUOUS
10
-0.454598
20
-0.134438
11
-0.453099
21
-0.130169
0
LINE
8
BLACK
6
CONTINUOUS
10
-0.453099
20
-0.130169
11
-0.450297
21
-0.126615
0
LINE
8
BLACK
6
CONTINUOUS
10
-0.450297
20
-0.126615
11
-0.446496
21
-0.124161
0
LINE
8
BLACK
6
CONTINUOUS
10
-0.446496
20
-0.124161
11
-0.442105
21
-0.12307
0
LINE
8
BLACK
6
CONTINUOUS
10
-0.442105
20
-0.12307
11
-0.437597
21
-0.123461
0
LINE
8
BLACK
6
CONTINUOUS
10
-0.3874
20
-0.123461
11
-0.383261
21
-0.12529
0
LINE
8
BLACK
6
CONTINUOUS
10
-0.383261
20
-0.12529
11
-0.379939
21
-0.128362
0
LINE
8
BLACK
6
CONTINUOUS
10
-0.379939
20
-0.128362
11
-0.37779
21
-0.132344
0
LINE
8
BLACK
6
CONTINUOUS
10
-0.37779
20
-0.132344
11
-0.377047
21
-0.136807
0
LINE
8
BLACK
6
CONTINUOUS
10
-0.377047
20
-0.136807
11
-0.377047
21
-0.21161
0
LINE
8
BLACK
6
CONTINUOUS
10
-0.377047
20
-0.21161
11
-0.377252
21
-0.213979
0
LINE
8
BLACK
6
CONTINUOUS
10
-0.377252
20
-0.213979
11
-0.378752
21
-0.218249
0
LINE
8
BLACK
6
CONTINUOUS
10
-0.378752
20
-0.218249
11
-0.381553
21
-0.221802
0
LINE
8
BLACK
6
CONTINUOUS
10
-0.381553
20
-0.221802
11
-0.385354
21
-0.224257
0
LINE
8
BLACK
6
CONTINUOUS
10
-0.385354
20
-0.224257
11
-0.389746
21
-0.225347
0
LINE
8
BLACK
6
CONTINUOUS
10
-0.389746
20
-0.225347
11
-0.394254
21
-0.224957
0
LINE
8
BLACK
6
CONTINUOUS
10
-0.394254
20
-0.224957
11
-0.398392
21
-0.223127
0
LINE
8
BLACK
6
CONTINUOUS
10
-0.398392
20
-0.223127
11
-0.401715
21
-0.220056
0
LINE
8
BLACK
6
CONTINUOUS
10
-0.401715
20
-0.220056
11
-0.403863
21
-0.216074
0
LINE
8
BLACK
6
CONTINUOUS
10
-0.403863
20
-0.216074
11
-0.404606
21
-0.21161
0
LINE
8
BLACK
6
CONTINUOUS
10
-0.404606
20
-0.21161
11
-0.404606
21
-0.136807
0
LINE
8
BLACK
6
CONTINUOUS
10
-0.404606
20
-0.136807
11
-0.404401
21
-0.134438
0
LINE
8
BLACK
6
CONTINUOUS
10
-0.404401
20
-0.134438
11
-0.402902
21
-0.130169
0
LINE
8
BLACK
6
CONTINUOUS
10
-0.402902
20
-0.130169
11
-0.400101
21
-0.126615
0
LINE
8
BLACK
6
CONTINUOUS
10
-0.400101
20
-0.126615
11
-0.396299
21
-0.124161
0
LINE
8
BLACK
6
CONTINUOUS
10
-0.396299
20
-0.124161
11
-0.391908
21
-0.12307
0
LINE
8
BLACK
6
CONTINUOUS
10
-0.391908
20
-0.12307
11
-0.3874
21
-0.123461
0
LINE
8
BLACK
6
CONTINUOUS
10
-0.3374
20
-0.123461
11
-0.333261
21
-0.12529
0
LINE
8
BLACK
6
CONTINUOUS
10
-0.333261
20
-0.12529
11
-0.329939
21
-0.128362
0
LINE
8
BLACK
6
CONTINUOUS
10
-0.329939
20
-0.128362
11
-0.32779
21
-0.132344
0
LINE
8
BLACK
6
CONTINUOUS
10
-0.32779
20
-0.132344
11
-0.327047
21
-0.136807
0
LINE
8
BLACK
6
CONTINUOUS
10
-0.327047
20
-0.136807
11
-0.327047
21
-0.21161
0
LINE
8
BLACK
6
CONTINUOUS
10
-0.327047
20
-0.21161
11
-0.327252
21
-0.213979
0
LINE
8
BLACK
6
CONTINUOUS
10
-0.327252
20
-0.213979
11
-0.328752
21
-0.218249
0
LINE
8
BLACK
6
CONTINUOUS
10
-0.328752
20
-0.218249
11
-0.331553
21
-0.221802
0
LINE
8
BLACK
6
CONTINUOUS
10
-0.331553
20
-0.221802
11
-0.335354
21
-0.224257
0
LINE
8
BLACK
6
CONTINUOUS
10
-0.335354
20
-0.224257
11
-0.339746
21
-0.225347
0
LINE
8
BLACK
6
CONTINUOUS
10
-0.339746
20
-0.225347
11
-0.344254
21
-0.224957
0
LINE
8
BLACK
6
CONTINUOUS
10
-0.344254
20
-0.224957
11
-0.348392
21
-0.223127
0
LINE
8
BLACK
6
CONTINUOUS
10
-0.348392
20
-0.223127
11
-0.351715
21
-0.220056
0
LINE
8
BLACK
6
CONTINUOUS
10
-0.351715
20
-0.220056
11
-0.353863
21
-0.216074
0
LINE
8
BLACK
6
CONTINUOUS
10
-0.353863
20
-0.216074
11
-0.354606
21
-0.21161
0
LINE
8
BLACK
6
CONTINUOUS
10
-0.354606
20
-0.21161
11
-0.354606
21
-0.136807
0
LINE
8
BLACK
6
CONTINUOUS
10
-0.354606
20
-0.136807
11
-0.354401
21
-0.134438
0
LINE
8
BLACK
6
CONTINUOUS
10
-0.354401
20
-0.134438
11
-0.352902
21
-0.130169
0
LINE
8
BLACK
6
CONTINUOUS
10
-0.352902
20
-0.130169
11
-0.350101
21
-0.126615
0
LINE
8
BLACK
6
CONTINUOUS
10
-0.350101
20
-0.126615
11
-0.346299
21
-0.124161
0
LINE
8
BLACK
6
CONTINUOUS
10
-0.346299
20
-0.124161
11
-0.341908
21
-0.12307
0
LINE
8
BLACK
6
CONTINUOUS
10
-0.341908
20
-0.12307
11
-0.3374
21
-0.123461
0
LINE
8
BLACK
6
CONTINUOUS
10
-0.2874
20
-0.123461
11
-0.283261
21
-0.12529
0
LINE
8
BLACK
6
CONTINUOUS
10
-0.283261
20
-0.12529
11
-0.279939
21
-0.128362
0
LINE
8
BLACK
6
CONTINUOUS
10
-0.279939
20
-0.128362
11
-0.27779
21
-0.132344
0
LINE
8
BLACK
6
CONTINUOUS
10
-0.27779
20
-0.132344
11
-0.277047
21
-0.136807
0
LINE
8
BLACK
6
CONTINUOUS
10
-0.277047
20
-0.136807
11
-0.277047
21
-0.21161
0
LINE
8
BLACK
6
CONTINUOUS
10
-0.277047
20
-0.21161
11
-0.277252
21
-0.213979
0
LINE
8
BLACK
6
CONTINUOUS
10
-0.277252
20
-0.213979
11
-0.278752
21
-0.218249
0
LINE
8
BLACK
6
CONTINUOUS
10
-0.278752
20
-0.218249
11
-0.281553
21
-0.221802
0
LINE
8
BLACK
6
CONTINUOUS
10
-0.281553
20
-0.221802
11
-0.285354
21
-0.224257
0
LINE
8
BLACK
6
CONTINUOUS
10
-0.285354
20
-0.224257
11
-0.289746
21
-0.225347
0
LINE
8
BLACK
6
CONTINUOUS
10
-0.289746
20
-0.225347
11
-0.294254
21
-0.224957
0
LINE
8
BLACK
6
CONTINUOUS
10
-0.294254
20
-0.224957
11
-0.298392
21
-0.223127
0
LINE
8
BLACK
6
CONTINUOUS
10
-0.298392
20
-0.223127
11
-0.301715
21
-0.220056
0
LINE
8
BLACK
6
CONTINUOUS
10
-0.301715
20
-0.220056
11
-0.303863
21
-0.216074
0
LINE
8
BLACK
6
CONTINUOUS
10
-0.303863
20
-0.216074
11
-0.304606
21
-0.21161
0
LINE
8
BLACK
6
CONTINUOUS
10
-0.304606
20
-0.21161
11
-0.304606
21
-0.136807
0
LINE
8
BLACK
6
CONTINUOUS
10
-0.304606
20
-0.136807
11
-0.304401
21
-0.134438
0
LINE
8
BLACK
6
CONTINUOUS
10
-0.304401
20
-0.134438
11
-0.302902
21
-0.130169
0
LINE
8
BLACK
6
CONTINUOUS
10
-0.302902
20
-0.130169
11
-0.300101
21
-0.126615
0
LINE
8
BLACK
6
CONTINUOUS
10
-0.300101
20
-0.126615
11
-0.296299
21
-0.124161
0
LINE
8
BLACK
6
CONTINUOUS
10
-0.296299
20
-0.124161
11
-0.291908
21
-0.12307
0
LINE
8
BLACK
6
CONTINUOUS
10
-0.291908
20
-0.12307
11
-0.2874
21
-0.123461
0
LINE
8
BLACK
6
CONTINUOUS
10
-0.642937
20
-0.200997
11
-0.641021
21
-0.202277
0
LINE
8
BLACK
6
CONTINUOUS
10
-0.641021
20
-0.202277
11
-0.639741
21
-0.204193
0
LINE
8
BLACK
6
CONTINUOUS
10
-0.639741
20
-0.204193
11
-0.639291
21
-0.206453
0
LINE
8
BLACK
6
CONTINUOUS
10
-0.639291
20
-0.206453
11
-0.639291
21
-0.218264
0
LINE
8
BLACK
6
CONTINUOUS
10
-0.639291
20
-0.218264
11
-0.639741
21
-0.220524
0
LINE
8
BLACK
6
CONTINUOUS
10
-0.639741
20
-0.220524
11
-0.641021
21
-0.22244
0
LINE
8
BLACK
6
CONTINUOUS
10
-0.641021
20
-0.22244
11
-0.642937
21
-0.22372
0
LINE
8
BLACK
6
CONTINUOUS
10
-0.642937
20
-0.22372
11
-0.645197
21
-0.224169
0
LINE
8
BLACK
6
CONTINUOUS
10
-0.645197
20
-0.224169
11
-0.700315
21
-0.224169
0
LINE
8
BLACK
6
CONTINUOUS
10
-0.700315
20
-0.224169
11
-0.702575
21
-0.22372
0
LINE
8
BLACK
6
CONTINUOUS
10
-0.702575
20
-0.22372
11
-0.704491
21
-0.22244
0
LINE
8
BLACK
6
CONTINUOUS
10
-0.704491
20
-0.22244
11
-0.705771
21
-0.220524
0
LINE
8
BLACK
6
CONTINUOUS
10
-0.705771
20
-0.220524
11
-0.70622
21
-0.218264
0
LINE
8
BLACK
6
CONTINUOUS
10
-0.70622
20
-0.218264
11
-0.70622
21
-0.206453
0
LINE
8
BLACK
6
CONTINUOUS
10
-0.70622
20
-0.206453
11
-0.705771
21
-0.204193
0
LINE
8
BLACK
6
CONTINUOUS
10
-0.705771
20
-0.204193
11
-0.704491
21
-0.202277
0
LINE
8
BLACK
6
CONTINUOUS
10
-0.704491
20
-0.202277
11
-0.702575
21
-0.200997
0
LINE
8
BLACK
6
CONTINUOUS
10
-0.702575
20
-0.200997
11
-0.700315
21
-0.200547
0
LINE
8
BLACK
6
CONTINUOUS
10
-0.700315
20
-0.200547
11
-0.645197
21
-0.200547
0
LINE
8
BLACK
6
CONTINUOUS
10
-0.645197
20
-0.200547
11
-0.642937
21
-0.200997
0
LINE
8
BLACK
6
CONTINUOUS
10
-0.642937
20
-0.151784
11
-0.641021
21
-0.153064
0
LINE
8
BLACK
6
CONTINUOUS
10
-0.641021
20
-0.153064
11
-0.639741
21
-0.15498
0
LINE
8
BLACK
6
CONTINUOUS
10
-0.639741
20
-0.15498
11
-0.639291
21
-0.15724
0
LINE
8
BLACK
6
CONTINUOUS
10
-0.639291
20
-0.15724
11
-0.639291
21
-0.169051
0
LINE
8
BLACK
6
CONTINUOUS
10
-0.639291
20
-0.169051
11
-0.639741
21
-0.171311
0
LINE
8
BLACK
6
CONTINUOUS
10
-0.639741
20
-0.171311
11
-0.641021
21
-0.173227
0
LINE
8
BLACK
6
CONTINUOUS
10
-0.641021
20
-0.173227
11
-0.642937
21
-0.174507
0
LINE
8
BLACK
6
CONTINUOUS
10
-0.642937
20
-0.174507
11
-0.645197
21
-0.174957
0
LINE
8
BLACK
6
CONTINUOUS
10
-0.645197
20
-0.174957
11
-0.700315
21
-0.174957
0
LINE
8
BLACK
6
CONTINUOUS
10
-0.700315
20
-0.174957
11
-0.702575
21
-0.174507
0
LINE
8
BLACK
6
CONTINUOUS
10
-0.702575
20
-0.174507
11
-0.704491
21
-0.173227
0
LINE
8
BLACK
6
CONTINUOUS
10
-0.704491
20
-0.173227
11
-0.705771
21
-0.171311
0
LINE
8
BLACK
6
CONTINUOUS
10
-0.705771
20
-0.171311
11
-0.70622
21
-0.169051
0
LINE
8
BLACK
6
CONTINUOUS
10
-0.70622
20
-0.169051
11
-0.70622
21
-0.15724
0
LINE
8
BLACK
6
CONTINUOUS
10
-0.70622
20
-0.15724
11
-0.705771
21
-0.15498
0
LINE
8
BLACK
6
CONTINUOUS
10
-0.705771
20
-0.15498
11
-0.704491
21
-0.153064
0
LINE
8
BLACK
6
CONTINUOUS
10
-0.704491
20
-0.153064
11
-0.702575
21
-0.151784
0
LINE
8
BLACK
6
CONTINUOUS
10
-0.702575
20
-0.151784
11
-0.700315
21
-0.151335
0
LINE
8
BLACK
6
CONTINUOUS
10
-0.700315
20
-0.151335
11
-0.645197
21
-0.151335
0
LINE
8
BLACK
6
CONTINUOUS
10
-0.645197
20
-0.151335
11
-0.642937
21
-0.151784
0
LINE
8
BLACK
6
CONTINUOUS
10
-0.642937
20
-0.102572
11
-0.641021
21
-0.103852
0
LINE
8
BLACK
6
CONTINUOUS
10
-0.641021
20
-0.103852
11
-0.639741
21
-0.105768
0
LINE
8
BLACK
6
CONTINUOUS
10
-0.639741
20
-0.105768
11
-0.639291
21
-0.108028
0
LINE
8
BLACK
6
CONTINUOUS
10
-0.639291
20
-0.108028
11
-0.639291
21
-0.119839
0
LINE
8
BLACK
6
CONTINUOUS
10
-0.639291
20
-0.119839
11
-0.639741
21
-0.122099
0
LINE
8
BLACK
6
CONTINUOUS
10
-0.639741
20
-0.122099
11
-0.641021
21
-0.124015
0
LINE
8
BLACK
6
CONTINUOUS
10
-0.641021
20
-0.124015
11
-0.642937
21
-0.125295
0
LINE
8
BLACK
6
CONTINUOUS
10
-0.642937
20
-0.125295
11
-0.645197
21
-0.125744
0
LINE
8
BLACK
6
CONTINUOUS
10
-0.645197
20
-0.125744
11
-0.700315
21
-0.125744
0
LINE
8
BLACK
6
CONTINUOUS
10
-0.700315
20
-0.125744
11
-0.702575
21
-0.125295
0
LINE
8
BLACK
6
CONTINUOUS
10
-0.702575
20
-0.125295
11
-0.704491
21
-0.124015
0
LINE
8
BLACK
6
CONTINUOUS
10
-0.704491
20
-0.124015
11
-0.705771
21
-0.122099
0
LINE
8
BLACK
6
CONTINUOUS
10
-0.705771
20
-0.122099
11
-0.70622
21
-0.119839
0
LINE
8
BLACK
6
CONTINUOUS
10
-0.70622
20
-0.119839
11
-0.70622
21
-0.108028
0
LINE
8
BLACK
6
CONTINUOUS
10
-0.70622
20
-0.108028
11
-0.705771
21
-0.105768
0
LINE
8
BLACK
6
CONTINUOUS
10
-0.705771
20
-0.105768
11
-0.704491
21
-0.103852
0
LINE
8
BLACK
6
CONTINUOUS
10
-0.704491
20
-0.103852
11
-0.702575
21
-0.102572
0
LINE
8
BLACK
6
CONTINUOUS
10
-0.702575
20
-0.102572
11
-0.700315
21
-0.102122
0
LINE
8
BLACK
6
CONTINUOUS
10
-0.700315
20
-0.102122
11
-0.645197
21
-0.102122
0
LINE
8
BLACK
6
CONTINUOUS
10
-0.645197
20
-0.102122
11
-0.642937
21
-0.102572
0
LINE
8
BLACK
6
CONTINUOUS
10
-0.751666
20
-0.0221628
11
-0.748473
21
-0.0242963
0
LINE
8
BLACK
6
CONTINUOUS
10
-0.748473
20
-0.0242963
11
-0.74634
21
-0.0274895
0
LINE
8
BLACK
6
CONTINUOUS
10
-0.74634
20
-0.0274895
11
-0.745591
21
-0.0312561
0
LINE
8
BLACK
6
CONTINUOUS
10
-0.745591
20
-0.0312561
11
-0.745591
21
-0.0509411
0
LINE
8
BLACK
6
CONTINUOUS
10
-0.745591
20
-0.0509411
11
-0.74634
21
-0.0547077
0
LINE
8
BLACK
6
CONTINUOUS
10
-0.74634
20
-0.0547077
11
-0.748473
21
-0.0579008
0
LINE
8
BLACK
6
CONTINUOUS
10
-0.748473
20
-0.0579008
11
-0.751666
21
-0.0600344
0
LINE
8
BLACK
6
CONTINUOUS
10
-0.751666
20
-0.0600344
11
-0.755433
21
-0.0607836
0
LINE
8
BLACK
6
CONTINUOUS
10
-0.755433
20
-0.0607836
11
-0.842047
21
-0.0607836
0
LINE
8
BLACK
6
CONTINUOUS
10
-0.842047
20
-0.0607836
11
-0.845814
21
-0.0600344
0
LINE
8
BLACK
6
CONTINUOUS
10
-0.845814
20
-0.0600344
11
-0.849007
21
-0.0579008
0
LINE
8
BLACK
6
CONTINUOUS
10
-0.849007
20
-0.0579008
11
-0.851141
21
-0.0547077
0
LINE
8
BLACK
6
CONTINUOUS
10
-0.851141
20
-0.0547077
11
-0.85189
21
-0.0509411
0
LINE
8
BLACK
6
CONTINUOUS
10
-0.85189
20
-0.0509411
11
-0.85189
21
-0.0312561
0
LINE
8
BLACK
6
CONTINUOUS
10
-0.85189
20
-0.0312561
11
-0.851141
21
-0.0274895
0
LINE
8
BLACK
6
CONTINUOUS
10
-0.851141
20
-0.0274895
11
-0.849007
21
-0.0242963
0
LINE
8
BLACK
6
CONTINUOUS
10
-0.849007
20
-0.0242963
11
-0.845814
21
-0.0221628
0
LINE
8
BLACK
6
CONTINUOUS
10
-0.845814
20
-0.0221628
11
-0.842047
21
-0.0214135
0
LINE
8
BLACK
6
CONTINUOUS
10
-0.842047
20
-0.0214135
11
-0.755433
21
-0.0214135
0
LINE
8
BLACK
6
CONTINUOUS
10
-0.755433
20
-0.0214135
11
-0.751666
21
-0.0221628
0
LINE
8
BLACK
6
CONTINUOUS
10
-0.564646
20
-0.0494844
11
-0.592205
21
-0.0494844
0
LINE
8
BLACK
6
CONTINUOUS
10
-0.592205
20
-0.0494844
11
-0.592205
21
-0.0258624
0
LINE
8
BLACK
6
CONTINUOUS
10
-0.592205
20
-0.0258624
11
-0.564646
21
-0.0258624
0
LINE
8
BLACK
6
CONTINUOUS
10
-0.564646
20
-0.0258624
11
-0.564646
21
-0.0494844
0
LINE
8
BLACK
6
CONTINUOUS
10
-0.564646
20
0.0056337
11
-0.592205
21
0.0056337
0
LINE
8
BLACK
6
CONTINUOUS
10
-0.592205
20
0.0056337
11
-0.592205
21
0.0292557
0
LINE
8
BLACK
6
CONTINUOUS
10
-0.592205
20
0.0292557
11
-0.564646
21
0.0292557
0
LINE
8
BLACK
6
CONTINUOUS
10
-0.564646
20
0.0292557
11
-0.564646
21
0.0056337
0
LINE
8
BLACK
6
CONTINUOUS
10
-0.751666
20
0.0614987
11
-0.748473
21
0.0593651
0
LINE
8
BLACK
6
CONTINUOUS
10
-0.748473
20
0.0593651
11
-0.74634
21
0.0561719
0
LINE
8
BLACK
6
CONTINUOUS
10
-0.74634
20
0.0561719
11
-0.745591
21
0.0524054
0
LINE
8
BLACK
6
CONTINUOUS
10
-0.745591
20
0.0524054
11
-0.745591
21
0.0327203
0
LINE
8
BLACK
6
CONTINUOUS
10
-0.745591
20
0.0327203
11
-0.74634
21
0.0289537
0
LINE
8
BLACK
6
CONTINUOUS
10
-0.74634
20
0.0289537
11
-0.748473
21
0.0257606
0
LINE
8
BLACK
6
CONTINUOUS
10
-0.748473
20
0.0257606
11
-0.751666
21
0.023627
0
LINE
8
BLACK
6
CONTINUOUS
10
-0.751666
20
0.023627
11
-0.755433
21
0.0228778
0
LINE
8
BLACK
6
CONTINUOUS
10
-0.755433
20
0.0228778
11
-0.842047
21
0.0228778
0
LINE
8
BLACK
6
CONTINUOUS
10
-0.842047
20
0.0228778
11
-0.845814
21
0.023627
0
LINE
8
BLACK
6
CONTINUOUS
10
-0.845814
20
0.023627
11
-0.849007
21
0.0257606
0
LINE
8
BLACK
6
CONTINUOUS
10
-0.849007
20
0.0257606
11
-0.851141
21
0.0289537
0
LINE
8
BLACK
6
CONTINUOUS
10
-0.851141
20
0.0289537
11
-0.85189
21
0.0327203
0
LINE
8
BLACK
6
CONTINUOUS
10
-0.85189
20
0.0327203
11
-0.85189
21
0.0524054
0
LINE
8
BLACK
6
CONTINUOUS
10
-0.85189
20
0.0524054
11
-0.851141
21
0.0561719
0
LINE
8
BLACK
6
CONTINUOUS
10
-0.851141
20
0.0561719
11
-0.849007
21
0.0593651
0
LINE
8
BLACK
6
CONTINUOUS
10
-0.849007
20
0.0593651
11
-0.845814
21
0.0614987
0
LINE
8
BLACK
6
CONTINUOUS
10
-0.845814
20
0.0614987
11
-0.842047
21
0.0622479
0
LINE
8
BLACK
6
CONTINUOUS
10
-0.842047
20
0.0622479
11
-0.755433
21
0.0622479
0
LINE
8
BLACK
6
CONTINUOUS
10
-0.755433
20
0.0622479
11
-0.751666
21
0.0614987
0
LINE
8
BLACK
6
CONTINUOUS
10
-0.160764
20
0.106416
11
-0.15789
21
0.104496
0
LINE
8
BLACK
6
CONTINUOUS
10
-0.15789
20
0.104496
11
-0.15597
21
0.101622
0
LINE
8
BLACK
6
CONTINUOUS
10
-0.15597
20
0.101622
11
-0.155295
21
0.0982321
0
LINE
8
BLACK
6
CONTINUOUS
10
-0.155295
20
0.0982321
11
-0.155295
21
0.0805156
0
LINE
8
BLACK
6
CONTINUOUS
10
-0.155295
20
0.0805156
11
-0.15597
21
0.0771257
0
LINE
8
BLACK
6
CONTINUOUS
10
-0.15597
20
0.0771257
11
-0.15789
21
0.0742519
0
LINE
8
BLACK
6
CONTINUOUS
10
-0.15789
20
0.0742519
11
-0.160764
21
0.0723316
0
LINE
8
BLACK
6
CONTINUOUS
10
-0.160764
20
0.0723316
11
-0.164154
21
0.0716573
0
LINE
8
BLACK
6
CONTINUOUS
10
-0.164154
20
0.0716573
11
-0.183839
21
0.0716573
0
LINE
8
BLACK
6
CONTINUOUS
10
-0.183839
20
0.0716573
11
-0.187229
21
0.0723316
0
LINE
8
BLACK
6
CONTINUOUS
10
-0.187229
20
0.0723316
11
-0.190102
21
0.0742519
0
LINE
8
BLACK
6
CONTINUOUS
10
-0.190102
20
0.0742519
11
-0.192023
21
0.0771257
0
LINE
8
BLACK
6
CONTINUOUS
10
-0.192023
20
0.0771257
11
-0.192697
21
0.0805156
0
LINE
8
BLACK
6
CONTINUOUS
10
-0.192697
20
0.0805156
11
-0.192697
21
0.0982321
0
LINE
8
BLACK
6
CONTINUOUS
10
-0.192697
20
0.0982321
11
-0.192023
21
0.101622
0
LINE
8
BLACK
6
CONTINUOUS
10
-0.192023
20
0.101622
11
-0.190102
21
0.104496
0
LINE
8
BLACK
6
CONTINUOUS
10
-0.190102
20
0.104496
11
-0.187229
21
0.106416
0
LINE
8
BLACK
6
CONTINUOUS
10
-0.187229
20
0.106416
11
-0.183839
21
0.10709
0
LINE
8
BLACK
6
CONTINUOUS
10
-0.183839
20
0.10709
11
-0.164154
21
0.10709
0
LINE
8
BLACK
6
CONTINUOUS
10
-0.164154
20
0.10709
11
-0.160764
21
0.106416
0
LINE
8
BLACK
6
CONTINUOUS
10
-0.642937
20
0.126759
11
-0.641021
21
0.125479
0
LINE
8
BLACK
6
CONTINUOUS
10
-0.641021
20
0.125479
11
-0.639741
21
0.123563
0
LINE
8
BLACK
6
CONTINUOUS
10
-0.639741
20
0.123563
11
-0.639291
21
0.121303
0
LINE
8
BLACK
6
CONTINUOUS
10
-0.639291
20
0.121303
11
-0.639291
21
0.109492
0
LINE
8
BLACK
6
CONTINUOUS
10
-0.639291
20
0.109492
11
-0.639741
21
0.107232
0
LINE
8
BLACK
6
CONTINUOUS
10
-0.639741
20
0.107232
11
-0.641021
21
0.105316
0
LINE
8
BLACK
6
CONTINUOUS
10
-0.641021
20
0.105316
11
-0.642937
21
0.104036
0
LINE
8
BLACK
6
CONTINUOUS
10
-0.642937
20
0.104036
11
-0.645197
21
0.103586
0
LINE
8
BLACK
6
CONTINUOUS
10
-0.645197
20
0.103586
11
-0.700315
21
0.103586
0
LINE
8
BLACK
6
CONTINUOUS
10
-0.700315
20
0.103586
11
-0.702575
21
0.104036
0
LINE
8
BLACK
6
CONTINUOUS
10
-0.702575
20
0.104036
11
-0.704491
21
0.105316
0
LINE
8
BLACK
6
CONTINUOUS
10
-0.704491
20
0.105316
11
-0.705771
21
0.107232
0
LINE
8
BLACK
6
CONTINUOUS
10
-0.705771
20
0.107232
11
-0.70622
21
0.109492
0
LINE
8
BLACK
6
CONTINUOUS
10
-0.70622
20
0.109492
11
-0.70622
21
0.121303
0
LINE
8
BLACK
6
CONTINUOUS
10
-0.70622
20
0.121303
11
-0.705771
21
0.123563
0
LINE
8
BLACK
6
CONTINUOUS
10
-0.705771
20
0.123563
11
-0.704491
21
0.125479
0
LINE
8
BLACK
6
CONTINUOUS
10
-0.704491
20
0.125479
11
-0.702575
21
0.126759
0
LINE
8
BLACK
6
CONTINUOUS
10
-0.702575
20
0.126759
11
-0.700315
21
0.127209
0
LINE
8
BLACK
6
CONTINUOUS
10
-0.700315
20
0.127209
11
-0.645197
21
0.127209
0
LINE
8
BLACK
6
CONTINUOUS
10
-0.645197
20
0.127209
11
-0.642937
21
0.126759
0
LINE
8
BLACK
6
CONTINUOUS
10
-0.550052
20
0.151814
11
-0.546859
21
0.14968
0
LINE
8
BLACK
6
CONTINUOUS
10
-0.546859
20
0.14968
11
-0.544726
21
0.146487
0
LINE
8
BLACK
6
CONTINUOUS
10
-0.544726
20
0.146487
11
-0.543976
21
0.14272
0
LINE
8
BLACK
6
CONTINUOUS
10
-0.543976
20
0.14272
11
-0.543976
21
0.123035
0
LINE
8
BLACK
6
CONTINUOUS
10
-0.543976
20
0.123035
11
-0.544726
21
0.119269
0
LINE
8
BLACK
6
CONTINUOUS
10
-0.544726
20
0.119269
11
-0.546859
21
0.116076
0
LINE
8
BLACK
6
CONTINUOUS
10
-0.546859
20
0.116076
11
-0.550052
21
0.113942
0
LINE
8
BLACK
6
CONTINUOUS
10
-0.550052
20
0.113942
11
-0.553819
21
0.113193
0
LINE
8
BLACK
6
CONTINUOUS
10
-0.553819
20
0.113193
11
-0.59122
21
0.113193
0
LINE
8
BLACK
6
CONTINUOUS
10
-0.59122
20
0.113193
11
-0.594987
21
0.113942
0
LINE
8
BLACK
6
CONTINUOUS
10
-0.594987
20
0.113942
11
-0.59818
21
0.116076
0
LINE
8
BLACK
6
CONTINUOUS
10
-0.59818
20
0.116076
11
-0.600314
21
0.119269
0
LINE
8
BLACK
6
CONTINUOUS
10
-0.600314
20
0.119269
11
-0.601063
21
0.123035
0
LINE
8
BLACK
6
CONTINUOUS
10
-0.601063
20
0.123035
11
-0.601063
21
0.14272
0
LINE
8
BLACK
6
CONTINUOUS
10
-0.601063
20
0.14272
11
-0.600314
21
0.146487
0
LINE
8
BLACK
6
CONTINUOUS
10
-0.600314
20
0.146487
11
-0.59818
21
0.14968
0
LINE
8
BLACK
6
CONTINUOUS
10
-0.59818
20
0.14968
11
-0.594987
21
0.151814
0
LINE
8
BLACK
6
CONTINUOUS
10
-0.594987
20
0.151814
11
-0.59122
21
0.152563
0
LINE
8
BLACK
6
CONTINUOUS
10
-0.59122
20
0.152563
11
-0.553819
21
0.152563
0
LINE
8
BLACK
6
CONTINUOUS
10
-0.553819
20
0.152563
11
-0.550052
21
0.151814
0
LINE
8
BLACK
6
CONTINUOUS
10
-0.4374
20
0.222996
11
-0.433261
21
0.221166
0
LINE
8
BLACK
6
CONTINUOUS
10
-0.433261
20
0.221166
11
-0.429939
21
0.218095
0
LINE
8
BLACK
6
CONTINUOUS
10
-0.429939
20
0.218095
11
-0.42779
21
0.214113
0
LINE
8
BLACK
6
CONTINUOUS
10
-0.42779
20
0.214113
11
-0.427047
21
0.209649
0
LINE
8
BLACK
6
CONTINUOUS
10
-0.427047
20
0.209649
11
-0.427047
21
0.134846
0
LINE
8
BLACK
6
CONTINUOUS
10
-0.427047
20
0.134846
11
-0.427252
21
0.132477
0
LINE
8
BLACK
6
CONTINUOUS
10
-0.427252
20
0.132477
11
-0.428752
21
0.128208
0
LINE
8
BLACK
6
CONTINUOUS
10
-0.428752
20
0.128208
11
-0.431553
21
0.124655
0
LINE
8
BLACK
6
CONTINUOUS
10
-0.431553
20
0.124655
11
-0.435354
21
0.1222
0
LINE
8
BLACK
6
CONTINUOUS
10
-0.435354
20
0.1222
11
-0.439746
21
0.121109
0
LINE
8
BLACK
6
CONTINUOUS
10
-0.439746
20
0.121109
11
-0.444254
21
0.1215
0
LINE
8
BLACK
6
CONTINUOUS
10
-0.444254
20
0.1215
11
-0.448392
21
0.123329
0
LINE
8
BLACK
6
CONTINUOUS
10
-0.448392
20
0.123329
11
-0.451715
21
0.126401
0
LINE
8
BLACK
6
CONTINUOUS
10
-0.451715
20
0.126401
11
-0.453863
21
0.130383
0
LINE
8
BLACK
6
CONTINUOUS
10
-0.453863
20
0.130383
11
-0.454606
21
0.134846
0
LINE
8
BLACK
6
CONTINUOUS
10
-0.454606
20
0.134846
11
-0.454606
21
0.209649
0
LINE
8
BLACK
6
CONTINUOUS
10
-0.454606
20
0.209649
11
-0.454401
21
0.212019
0
LINE
8
BLACK
6
CONTINUOUS
10
-0.454401
20
0.212019
11
-0.452902
21
0.216288
0
LINE
8
BLACK
6
CONTINUOUS
10
-0.452902
20
0.216288
11
-0.450101
21
0.219841
0
LINE
8
BLACK
6
CONTINUOUS
10
-0.450101
20
0.219841
11
-0.446299
21
0.222296
0
LINE
8
BLACK
6
CONTINUOUS
10
-0.446299
20
0.222296
11
-0.441908
21
0.223386
0
LINE
8
BLACK
6
CONTINUOUS
10
-0.441908
20
0.223386
11
-0.4374
21
0.222996
0
LINE
8
BLACK
6
CONTINUOUS
10
-0.3874
20
0.222996
11
-0.383261
21
0.221166
0
LINE
8
BLACK
6
CONTINUOUS
10
-0.383261
20
0.221166
11
-0.379939
21
0.218095
0
LINE
8
BLACK
6
CONTINUOUS
10
-0.379939
20
0.218095
11
-0.37779
21
0.214113
0
LINE
8
BLACK
6
CONTINUOUS
10
-0.37779
20
0.214113
11
-0.377047
21
0.209649
0
LINE
8
BLACK
6
CONTINUOUS
10
-0.377047
20
0.209649
11
-0.377047
21
0.134846
0
LINE
8
BLACK
6
CONTINUOUS
10
-0.377047
20
0.134846
11
-0.377252
21
0.132477
0
LINE
8
BLACK
6
CONTINUOUS
10
-0.377252
20
0.132477
11
-0.378752
21
0.128208
0
LINE
8
BLACK
6
CONTINUOUS
10
-0.378752
20
0.128208
11
-0.381553
21
0.124655
0
LINE
8
BLACK
6
CONTINUOUS
10
-0.381553
20
0.124655
11
-0.385354
21
0.1222
0
LINE
8
BLACK
6
CONTINUOUS
10
-0.385354
20
0.1222
11
-0.389746
21
0.121109
0
LINE
8
BLACK
6
CONTINUOUS
10
-0.389746
20
0.121109
11
-0.394254
21
0.1215
0
LINE
8
BLACK
6
CONTINUOUS
10
-0.394254
20
0.1215
11
-0.398392
21
0.123329
0
LINE
8
BLACK
6
CONTINUOUS
10
-0.398392
20
0.123329
11
-0.401715
21
0.126401
0
LINE
8
BLACK
6
CONTINUOUS
10
-0.401715
20
0.126401
11
-0.403863
21
0.130383
0
LINE
8
BLACK
6
CONTINUOUS
10
-0.403863
20
0.130383
11
-0.404606
21
0.134846
0
LINE
8
BLACK
6
CONTINUOUS
10
-0.404606
20
0.134846
11
-0.404606
21
0.209649
0
LINE
8
BLACK
6
CONTINUOUS
10
-0.404606
20
0.209649
11
-0.404401
21
0.212019
0
LINE
8
BLACK
6
CONTINUOUS
10
-0.404401
20
0.212019
11
-0.402902
21
0.216288
0
LINE
8
BLACK
6
CONTINUOUS
10
-0.402902
20
0.216288
11
-0.400101
21
0.219841
0
LINE
8
BLACK
6
CONTINUOUS
10
-0.400101
20
0.219841
11
-0.396299
21
0.222296
0
LINE
8
BLACK
6
CONTINUOUS
10
-0.396299
20
0.222296
11
-0.391908
21
0.223386
0
LINE
8
BLACK
6
CONTINUOUS
10
-0.391908
20
0.223386
11
-0.3874
21
0.222996
0
LINE
8
BLACK
6
CONTINUOUS
10
-0.334841
20
0.222996
11
-0.330702
21
0.221166
0
LINE
8
BLACK
6
CONTINUOUS
10
-0.330702
20
0.221166
11
-0.32738
21
0.218095
0
LINE
8
BLACK
6
CONTINUOUS
10
-0.32738
20
0.218095
11
-0.325231
21
0.214113
0
LINE
8
BLACK
6
CONTINUOUS
10
-0.325231
20
0.214113
11
-0.324488
21
0.209649
0
LINE
8
BLACK
6
CONTINUOUS
10
-0.324488
20
0.209649
11
-0.324488
21
0.134846
0
LINE
8
BLACK
6
CONTINUOUS
10
-0.324488
20
0.134846
11
-0.324693
21
0.132477
0
LINE
8
BLACK
6
CONTINUOUS
10
-0.324693
20
0.132477
11
-0.326193
21
0.128208
0
LINE
8
BLACK
6
CONTINUOUS
10
-0.326193
20
0.128208
11
-0.328994
21
0.124655
0
LINE
8
BLACK
6
CONTINUOUS
10
-0.328994
20
0.124655
11
-0.332795
21
0.1222
0
LINE
8
BLACK
6
CONTINUOUS
10
-0.332795
20
0.1222
11
-0.337187
21
0.121109
0
LINE
8
BLACK
6
CONTINUOUS
10
-0.337187
20
0.121109
11
-0.341695
21
0.1215
0
LINE
8
BLACK
6
CONTINUOUS
10
-0.341695
20
0.1215
11
-0.345833
21
0.123329
0
LINE
8
BLACK
6
CONTINUOUS
10
-0.345833
20
0.123329
11
-0.349156
21
0.126401
0
LINE
8
BLACK
6
CONTINUOUS
10
-0.349156
20
0.126401
11
-0.351304
21
0.130383
0
LINE
8
BLACK
6
CONTINUOUS
10
-0.351304
20
0.130383
11
-0.352047
21
0.134846
0
LINE
8
BLACK
6
CONTINUOUS
10
-0.352047
20
0.134846
11
-0.352047
21
0.209649
0
LINE
8
BLACK
6
CONTINUOUS
10
-0.352047
20
0.209649
11
-0.351842
21
0.212019
0
LINE
8
BLACK
6
CONTINUOUS
10
-0.351842
20
0.212019
11
-0.350343
21
0.216288
0
LINE
8
BLACK
6
CONTINUOUS
10
-0.350343
20
0.216288
11
-0.347541
21
0.219841
0
LINE
8
BLACK
6
CONTINUOUS
10
-0.347541
20
0.219841
11
-0.34374
21
0.222296
0
LINE
8
BLACK
6
CONTINUOUS
10
-0.34374
20
0.222296
11
-0.339349
21
0.223386
0
LINE
8
BLACK
6
CONTINUOUS
10
-0.339349
20
0.223386
11
-0.334841
21
0.222996
0
LINE
8
BLACK
6
CONTINUOUS
10
-0.2874
20
0.222996
11
-0.283261
21
0.221166
0
LINE
8
BLACK
6
CONTINUOUS
10
-0.283261
20
0.221166
11
-0.279939
21
0.218095
0
LINE
8
BLACK
6
CONTINUOUS
10
-0.279939
20
0.218095
11
-0.27779
21
0.214113
0
LINE
8
BLACK
6
CONTINUOUS
10
-0.27779
20
0.214113
11
-0.277047
21
0.209649
0
LINE
8
BLACK
6
CONTINUOUS
10
-0.277047
20
0.209649
11
-0.277047
21
0.134846
0
LINE
8
BLACK
6
CONTINUOUS
10
-0.277047
20
0.134846
11
-0.277252
21
0.132477
0
LINE
8
BLACK
6
CONTINUOUS
10
-0.277252
20
0.132477
11
-0.278752
21
0.128208
0
LINE
8
BLACK
6
CONTINUOUS
10
-0.278752
20
0.128208
11
-0.281553
21
0.124655
0
LINE
8
BLACK
6
CONTINUOUS
10
-0.281553
20
0.124655
11
-0.285354
21
0.1222
0
LINE
8
BLACK
6
CONTINUOUS
10
-0.285354
20
0.1222
11
-0.289746
21
0.121109
0
LINE
8
BLACK
6
CONTINUOUS
10
-0.289746
20
0.121109
11
-0.294254
21
0.1215
0
LINE
8
BLACK
6
CONTINUOUS
10
-0.294254
20
0.1215
11
-0.298392
21
0.123329
0
LINE
8
BLACK
6
CONTINUOUS
10
-0.298392
20
0.123329
11
-0.301715
21
0.126401
0
LINE
8
BLACK
6
CONTINUOUS
10
-0.301715
20
0.126401
11
-0.303863
21
0.130383
0
LINE
8
BLACK
6
CONTINUOUS
10
-0.303863
20
0.130383
11
-0.304606
21
0.134846
0
LINE
8
BLACK
6
CONTINUOUS
10
-0.304606
20
0.134846
11
-0.304606
21
0.209649
0
LINE
8
BLACK
6
CONTINUOUS
10
-0.304606
20
0.209649
11
-0.304401
21
0.212019
0
LINE
8
BLACK
6
CONTINUOUS
10
-0.304401
20
0.212019
11
-0.302902
21
0.216288
0
LINE
8
BLACK
6
CONTINUOUS
10
-0.302902
20
0.216288
11
-0.300101
21
0.219841
0
LINE
8
BLACK
6
CONTINUOUS
10
-0.300101
20
0.219841
11
-0.296299
21
0.222296
0
LINE
8
BLACK
6
CONTINUOUS
10
-0.296299
20
0.222296
11
-0.291908
21
0.223386
0
LINE
8
BLACK
6
CONTINUOUS
10
-0.291908
20
0.223386
11
-0.2874
21
0.222996
0
LINE
8
BLACK
6
CONTINUOUS
10
-0.160764
20
0.16744
11
-0.15789
21
0.165519
0
LINE
8
BLACK
6
CONTINUOUS
10
-0.15789
20
0.165519
11
-0.15597
21
0.162646
0
LINE
8
BLACK
6
CONTINUOUS
10
-0.15597
20
0.162646
11
-0.155295
21
0.159256
0
LINE
8
BLACK
6
CONTINUOUS
10
-0.155295
20
0.159256
11
-0.155295
21
0.141539
0
LINE
8
BLACK
6
CONTINUOUS
10
-0.155295
20
0.141539
11
-0.15597
21
0.138149
0
LINE
8
BLACK
6
CONTINUOUS
10
-0.15597
20
0.138149
11
-0.15789
21
0.135275
0
LINE
8
BLACK
6
CONTINUOUS
10
-0.15789
20
0.135275
11
-0.160764
21
0.133355
0
LINE
8
BLACK
6
CONTINUOUS
10
-0.160764
20
0.133355
11
-0.164154
21
0.132681
0
LINE
8
BLACK
6
CONTINUOUS
10
-0.164154
20
0.132681
11
-0.183839
21
0.132681
0
LINE
8
BLACK
6
CONTINUOUS
10
-0.183839
20
0.132681
11
-0.187229
21
0.133355
0
LINE
8
BLACK
6
CONTINUOUS
10
-0.187229
20
0.133355
11
-0.190102
21
0.135275
0
LINE
8
BLACK
6
CONTINUOUS
10
-0.190102
20
0.135275
11
-0.192023
21
0.138149
0
LINE
8
BLACK
6
CONTINUOUS
10
-0.192023
20
0.138149
11
-0.192697
21
0.141539
0
LINE
8
BLACK
6
CONTINUOUS
10
-0.192697
20
0.141539
11
-0.192697
21
0.159256
0
LINE
8
BLACK
6
CONTINUOUS
10
-0.192697
20
0.159256
11
-0.192023
21
0.162646
0
LINE
8
BLACK
6
CONTINUOUS
10
-0.192023
20
0.162646
11
-0.190102
21
0.165519
0
LINE
8
BLACK
6
CONTINUOUS
10
-0.190102
20
0.165519
11
-0.187229
21
0.16744
0
LINE
8
BLACK
6
CONTINUOUS
10
-0.187229
20
0.16744
11
-0.183839
21
0.168114
0
LINE
8
BLACK
6
CONTINUOUS
10
-0.183839
20
0.168114
11
-0.164154
21
0.168114
0
LINE
8
BLACK
6
CONTINUOUS
10
-0.164154
20
0.168114
11
-0.160764
21
0.16744
0
LINE
8
BLACK
6
CONTINUOUS
10
-0.642937
20
0.175972
11
-0.641021
21
0.174691
0
LINE
8
BLACK
6
CONTINUOUS
10
-0.641021
20
0.174691
11
-0.639741
21
0.172776
0
LINE
8
BLACK
6
CONTINUOUS
10
-0.639741
20
0.172776
11
-0.639291
21
0.170516
0
LINE
8
BLACK
6
CONTINUOUS
10
-0.639291
20
0.170516
11
-0.639291
21
0.158705
0
LINE
8
BLACK
6
CONTINUOUS
10
-0.639291
20
0.158705
11
-0.639741
21
0.156445
0
LINE
8
BLACK
6
CONTINUOUS
10
-0.639741
20
0.156445
11
-0.641021
21
0.154529
0
LINE
8
BLACK
6
CONTINUOUS
10
-0.641021
20
0.154529
11
-0.642937
21
0.153249
0
LINE
8
BLACK
6
CONTINUOUS
10
-0.642937
20
0.153249
11
-0.645197
21
0.152799
0
LINE
8
BLACK
6
CONTINUOUS
10
-0.645197
20
0.152799
11
-0.700315
21
0.152799
0
LINE
8
BLACK
6
CONTINUOUS
10
-0.700315
20
0.152799
11
-0.702575
21
0.153249
0
LINE
8
BLACK
6
CONTINUOUS
10
-0.702575
20
0.153249
11
-0.704491
21
0.154529
0
LINE
8
BLACK
6
CONTINUOUS
10
-0.704491
20
0.154529
11
-0.705771
21
0.156445
0
LINE
8
BLACK
6
CONTINUOUS
10
-0.705771
20
0.156445
11
-0.70622
21
0.158705
0
LINE
8
BLACK
6
CONTINUOUS
10
-0.70622
20
0.158705
11
-0.70622
21
0.170516
0
LINE
8
BLACK
6
CONTINUOUS
10
-0.70622
20
0.170516
11
-0.705771
21
0.172776
0
LINE
8
BLACK
6
CONTINUOUS
10
-0.705771
20
0.172776
11
-0.704491
21
0.174691
0
LINE
8
BLACK
6
CONTINUOUS
10
-0.704491
20
0.174691
11
-0.702575
21
0.175972
0
LINE
8
BLACK
6
CONTINUOUS
10
-0.702575
20
0.175972
11
-0.700315
21
0.176421
0
LINE
8
BLACK
6
CONTINUOUS
10
-0.700315
20
0.176421
11
-0.645197
21
0.176421
0
LINE
8
BLACK
6
CONTINUOUS
10
-0.645197
20
0.176421
11
-0.642937
21
0.175972
0
LINE
8
BLACK
6
CONTINUOUS
10
-0.550052
20
0.226617
11
-0.546859
21
0.224483
0
LINE
8
BLACK
6
CONTINUOUS
10
-0.546859
20
0.224483
11
-0.544726
21
0.22129
0
LINE
8
BLACK
6
CONTINUOUS
10
-0.544726
20
0.22129
11
-0.543976
21
0.217523
0
LINE
8
BLACK
6
CONTINUOUS
10
-0.543976
20
0.217523
11
-0.543976
21
0.197838
0
LINE
8
BLACK
6
CONTINUOUS
10
-0.543976
20
0.197838
11
-0.544726
21
0.194072
0
LINE
8
BLACK
6
CONTINUOUS
10
-0.544726
20
0.194072
11
-0.546859
21
0.190879
0
LINE
8
BLACK
6
CONTINUOUS
10
-0.546859
20
0.190879
11
-0.550052
21
0.188745
0
LINE
8
BLACK
6
CONTINUOUS
10
-0.550052
20
0.188745
11
-0.553819
21
0.187996
0
LINE
8
BLACK
6
CONTINUOUS
10
-0.553819
20
0.187996
11
-0.59122
21
0.187996
0
LINE
8
BLACK
6
CONTINUOUS
10
-0.59122
20
0.187996
11
-0.594987
21
0.188745
0
LINE
8
BLACK
6
CONTINUOUS
10
-0.594987
20
0.188745
11
-0.59818
21
0.190879
0
LINE
8
BLACK
6
CONTINUOUS
10
-0.59818
20
0.190879
11
-0.600314
21
0.194072
0
LINE
8
BLACK
6
CONTINUOUS
10
-0.600314
20
0.194072
11
-0.601063
21
0.197838
0
LINE
8
BLACK
6
CONTINUOUS
10
-0.601063
20
0.197838
11
-0.601063
21
0.217523
0
LINE
8
BLACK
6
CONTINUOUS
10
-0.601063
20
0.217523
11
-0.600314
21
0.22129
0
LINE
8
BLACK
6
CONTINUOUS
10
-0.600314
20
0.22129
11
-0.59818
21
0.224483
0
LINE
8
BLACK
6
CONTINUOUS
10
-0.59818
20
0.224483
11
-0.594987
21
0.226617
0
LINE
8
BLACK
6
CONTINUOUS
10
-0.594987
20
0.226617
11
-0.59122
21
0.227366
0
LINE
8
BLACK
6
CONTINUOUS
10
-0.59122
20
0.227366
11
-0.553819
21
0.227366
0
LINE
8
BLACK
6
CONTINUOUS
10
-0.553819
20
0.227366
11
-0.550052
21
0.226617
0
LINE
8
BLACK
6
CONTINUOUS
10
0.290499
20
0.238428
11
0.293692
21
0.236294
0
LINE
8
BLACK
6
CONTINUOUS
10
0.293692
20
0.236294
11
0.295826
21
0.233101
0
LINE
8
BLACK
6
CONTINUOUS
10
0.295826
20
0.233101
11
0.296575
21
0.229334
0
LINE
8
BLACK
6
CONTINUOUS
10
0.296575
20
0.229334
11
0.296575
21
0.209649
0
LINE
8
BLACK
6
CONTINUOUS
10
0.296575
20
0.209649
11
0.295826
21
0.205883
0
LINE
8
BLACK
6
CONTINUOUS
10
0.295826
20
0.205883
11
0.293692
21
0.20269
0
LINE
8
BLACK
6
CONTINUOUS
10
0.293692
20
0.20269
11
0.290499
21
0.200556
0
LINE
8
BLACK
6
CONTINUOUS
10
0.290499
20
0.200556
11
0.286732
21
0.199807
0
LINE
8
BLACK
6
CONTINUOUS
10
0.286732
20
0.199807
11
0.249331
21
0.199807
0
LINE
8
BLACK
6
CONTINUOUS
10
0.249331
20
0.199807
11
0.245564
21
0.200556
0
LINE
8
BLACK
6
CONTINUOUS
10
0.245564
20
0.200556
11
0.242371
21
0.20269
0
LINE
8
BLACK
6
CONTINUOUS
10
0.242371
20
0.20269
11
0.240237
21
0.205883
0
LINE
8
BLACK
6
CONTINUOUS
10
0.240237
20
0.205883
11
0.239488
21
0.209649
0
LINE
8
BLACK
6
CONTINUOUS
10
0.239488
20
0.209649
11
0.239488
21
0.229334
0
LINE
8
BLACK
6
CONTINUOUS
10
0.239488
20
0.229334
11
0.240237
21
0.233101
0
LINE
8
BLACK
6
CONTINUOUS
10
0.240237
20
0.233101
11
0.242371
21
0.236294
0
LINE
8
BLACK
6
CONTINUOUS
10
0.242371
20
0.236294
11
0.245564
21
0.238428
0
LINE
8
BLACK
6
CONTINUOUS
10
0.245564
20
0.238428
11
0.249331
21
0.239177
0
LINE
8
BLACK
6
CONTINUOUS
10
0.249331
20
0.239177
11
0.286732
21
0.239177
0
LINE
8
BLACK
6
CONTINUOUS
10
0.286732
20
0.239177
11
0.290499
21
0.238428
0
LINE
8
BLACK
6
CONTINUOUS
10
0.2029
20
0.240396
11
0.206094
21
0.238263
0
LINE
8
BLACK
6
CONTINUOUS
10
0.206094
20
0.238263
11
0.208227
21
0.23507
0
LINE
8
BLACK
6
CONTINUOUS
10
0.208227
20
0.23507
11
0.208976
21
0.231303
0
LINE
8
BLACK
6
CONTINUOUS
10
0.208976
20
0.231303
11
0.208976
21
0.210634
0
LINE
8
BLACK
6
CONTINUOUS
10
0.208976
20
0.210634
11
0.208227
21
0.206867
0
LINE
8
BLACK
6
CONTINUOUS
10
0.208227
20
0.206867
11
0.206094
21
0.203674
0
LINE
8
BLACK
6
CONTINUOUS
10
0.206094
20
0.203674
11
0.2029
21
0.20154
0
LINE
8
BLACK
6
CONTINUOUS
10
0.2029
20
0.20154
11
0.199134
21
0.200791
0
LINE
8
BLACK
6
CONTINUOUS
10
0.199134
20
0.200791
11
0.163701
21
0.200791
0
LINE
8
BLACK
6
CONTINUOUS
10
0.163701
20
0.200791
11
0.159934
21
0.20154
0
LINE
8
BLACK
6
CONTINUOUS
10
0.159934
20
0.20154
11
0.156741
21
0.203674
0
LINE
8
BLACK
6
CONTINUOUS
10
0.156741
20
0.203674
11
0.154607
21
0.206867
0
LINE
8
BLACK
6
CONTINUOUS
10
0.154607
20
0.206867
11
0.153858
21
0.210634
0
LINE
8
BLACK
6
CONTINUOUS
10
0.153858
20
0.210634
11
0.153858
21
0.231303
0
LINE
8
BLACK
6
CONTINUOUS
10
0.153858
20
0.231303
11
0.154607
21
0.23507
0
LINE
8
BLACK
6
CONTINUOUS
10
0.154607
20
0.23507
11
0.156741
21
0.238263
0
LINE
8
BLACK
6
CONTINUOUS
10
0.156741
20
0.238263
11
0.159934
21
0.240396
0
LINE
8
BLACK
6
CONTINUOUS
10
0.159934
20
0.240396
11
0.163701
21
0.241146
0
LINE
8
BLACK
6
CONTINUOUS
10
0.163701
20
0.241146
11
0.199134
21
0.241146
0
LINE
8
BLACK
6
CONTINUOUS
10
0.199134
20
0.241146
11
0.2029
21
0.240396
0
LINE
8
BLACK
6
CONTINUOUS
10
0.376129
20
0.240396
11
0.379322
21
0.238263
0
LINE
8
BLACK
6
CONTINUOUS
10
0.379322
20
0.238263
11
0.381456
21
0.23507
0
LINE
8
BLACK
6
CONTINUOUS
10
0.381456
20
0.23507
11
0.382205
21
0.231303
0
LINE
8
BLACK
6
CONTINUOUS
10
0.382205
20
0.231303
11
0.382205
21
0.210634
0
LINE
8
BLACK
6
CONTINUOUS
10
0.382205
20
0.210634
11
0.381456
21
0.206867
0
LINE
8
BLACK
6
CONTINUOUS
10
0.381456
20
0.206867
11
0.379322
21
0.203674
0
LINE
8
BLACK
6
CONTINUOUS
10
0.379322
20
0.203674
11
0.376129
21
0.20154
0
LINE
8
BLACK
6
CONTINUOUS
10
0.376129
20
0.20154
11
0.372362
21
0.200791
0
LINE
8
BLACK
6
CONTINUOUS
10
0.372362
20
0.200791
11
0.336929
21
0.200791
0
LINE
8
BLACK
6
CONTINUOUS
10
0.336929
20
0.200791
11
0.333163
21
0.20154
0
LINE
8
BLACK
6
CONTINUOUS
10
0.333163
20
0.20154
11
0.329969
21
0.203674
0
LINE
8
BLACK
6
CONTINUOUS
10
0.329969
20
0.203674
11
0.327836
21
0.206867
0
LINE
8
BLACK
6
CONTINUOUS
10
0.327836
20
0.206867
11
0.327087
21
0.210634
0
LINE
8
BLACK
6
CONTINUOUS
10
0.327087
20
0.210634
11
0.327087
21
0.231303
0
LINE
8
BLACK
6
CONTINUOUS
10
0.327087
20
0.231303
11
0.327836
21
0.23507
0
LINE
8
BLACK
6
CONTINUOUS
10
0.327836
20
0.23507
11
0.329969
21
0.238263
0
LINE
8
BLACK
6
CONTINUOUS
10
0.329969
20
0.238263
11
0.333163
21
0.240396
0
LINE
8
BLACK
6
CONTINUOUS
10
0.333163
20
0.240396
11
0.336929
21
0.241146
0
LINE
8
BLACK
6
CONTINUOUS
10
0.336929
20
0.241146
11
0.372362
21
0.241146
0
LINE
8
BLACK
6
CONTINUOUS
10
0.372362
20
0.241146
11
0.376129
21
0.240396
0
LINE
8
BLACK
6
CONTINUOUS
10
-0.642937
20
0.225184
11
-0.641021
21
0.223904
0
LINE
8
BLACK
6
CONTINUOUS
10
-0.641021
20
0.223904
11
-0.639741
21
0.221988
0
LINE
8
BLACK
6
CONTINUOUS
10
-0.639741
20
0.221988
11
-0.639291
21
0.219728
0
LINE
8
BLACK
6
CONTINUOUS
10
-0.639291
20
0.219728
11
-0.639291
21
0.207917
0
LINE
8
BLACK
6
CONTINUOUS
10
-0.639291
20
0.207917
11
-0.639741
21
0.205657
0
LINE
8
BLACK
6
CONTINUOUS
10
-0.639741
20
0.205657
11
-0.641021
21
0.203741
0
LINE
8
BLACK
6
CONTINUOUS
10
-0.641021
20
0.203741
11
-0.642937
21
0.202461
0
LINE
8
BLACK
6
CONTINUOUS
10
-0.642937
20
0.202461
11
-0.645197
21
0.202012
0
LINE
8
BLACK
6
CONTINUOUS
10
-0.645197
20
0.202012
11
-0.700315
21
0.202012
0
LINE
8
BLACK
6
CONTINUOUS
10
-0.700315
20
0.202012
11
-0.702575
21
0.202461
0
LINE
8
BLACK
6
CONTINUOUS
10
-0.702575
20
0.202461
11
-0.704491
21
0.203741
0
LINE
8
BLACK
6
CONTINUOUS
10
-0.704491
20
0.203741
11
-0.705771
21
0.205657
0
LINE
8
BLACK
6
CONTINUOUS
10
-0.705771
20
0.205657
11
-0.70622
21
0.207917
0
LINE
8
BLACK
6
CONTINUOUS
10
-0.70622
20
0.207917
11
-0.70622
21
0.219728
0
LINE
8
BLACK
6
CONTINUOUS
10
-0.70622
20
0.219728
11
-0.705771
21
0.221988
0
LINE
8
BLACK
6
CONTINUOUS
10
-0.705771
20
0.221988
11
-0.704491
21
0.223904
0
LINE
8
BLACK
6
CONTINUOUS
10
-0.704491
20
0.223904
11
-0.702575
21
0.225184
0
LINE
8
BLACK
6
CONTINUOUS
10
-0.702575
20
0.225184
11
-0.700315
21
0.225634
0
LINE
8
BLACK
6
CONTINUOUS
10
-0.700315
20
0.225634
11
-0.645197
21
0.225634
0
LINE
8
BLACK
6
CONTINUOUS
10
-0.645197
20
0.225634
11
-0.642937
21
0.225184
0
LINE
8
BLACK
6
CONTINUOUS
10
-0.16189
20
0.212602
11
-0.203622
21
0.212602
0
LINE
8
BLACK
6
CONTINUOUS
10
-0.203622
20
0.212602
11
-0.203622
21
0.238193
0
LINE
8
BLACK
6
CONTINUOUS
10
-0.203622
20
0.238193
11
-0.16189
21
0.238193
0
LINE
8
BLACK
6
CONTINUOUS
10
-0.16189
20
0.238193
11
-0.16189
21
0.212602
0
LINE
8
BLACK
6
CONTINUOUS
10
-0.0752756
20
0.212602
11
-0.117008
21
0.212602
0
LINE
8
BLACK
6
CONTINUOUS
10
-0.117008
20
0.212602
11
-0.117008
21
0.238193
0
LINE
8
BLACK
6
CONTINUOUS
10
-0.117008
20
0.238193
11
-0.0752756
21
0.238193
0
LINE
8
BLACK
6
CONTINUOUS
10
-0.0752756
20
0.238193
11
-0.0752756
21
0.212602
0
LINE
8
BLACK
6
CONTINUOUS
10
0.00173638
20
0.253266
11
0.0046102
21
0.251346
0
LINE
8
BLACK
6
CONTINUOUS
10
0.0046102
20
0.251346
11
0.00653043
21
0.248472
0
LINE
8
BLACK
6
CONTINUOUS
10
0.00653043
20
0.248472
11
0.00720472
21
0.245083
0
LINE
8
BLACK
6
CONTINUOUS
10
0.00720472
20
0.245083
11
0.00720472
21
0.227366
0
LINE
8
BLACK
6
CONTINUOUS
10
0.00720472
20
0.227366
11
0.00653043
21
0.223976
0
LINE
8
BLACK
6
CONTINUOUS
10
0.00653043
20
0.223976
11
0.0046102
21
0.221102
0
LINE
8
BLACK
6
CONTINUOUS
10
0.0046102
20
0.221102
11
0.00173638
21
0.219182
0
LINE
8
BLACK
6
CONTINUOUS
10
0.00173638
20
0.219182
11
-0.00165354
21
0.218508
0
LINE
8
BLACK
6
CONTINUOUS
10
-0.00165354
20
0.218508
11
-0.0213386
21
0.218508
0
LINE
8
BLACK
6
CONTINUOUS
10
-0.0213386
20
0.218508
11
-0.0247285
21
0.219182
0
LINE
8
BLACK
6
CONTINUOUS
10
-0.0247285
20
0.219182
11
-0.0276023
21
0.221102
0
LINE
8
BLACK
6
CONTINUOUS
10
-0.0276023
20
0.221102
11
-0.0295226
21
0.223976
0
LINE
8
BLACK
6
CONTINUOUS
10
-0.0295226
20
0.223976
11
-0.0301969
21
0.227366
0
LINE
8
BLACK
6
CONTINUOUS
10
-0.0301969
20
0.227366
11
-0.0301969
21
0.245083
0
LINE
8
BLACK
6
CONTINUOUS
10
-0.0301969
20
0.245083
11
-0.0295226
21
0.248472
0
LINE
8
BLACK
6
CONTINUOUS
10
-0.0295226
20
0.248472
11
-0.0276023
21
0.251346
0
LINE
8
BLACK
6
CONTINUOUS
10
-0.0276023
20
0.251346
11
-0.0247285
21
0.253266
0
LINE
8
BLACK
6
CONTINUOUS
10
-0.0247285
20
0.253266
11
-0.0213386
21
0.253941
0
LINE
8
BLACK
6
CONTINUOUS
10
-0.0213386
20
0.253941
11
-0.00165354
21
0.253941
0
LINE
8
BLACK
6
CONTINUOUS
10
-0.00165354
20
0.253941
11
0.00173638
21
0.253266
0
LINE
8
BLACK
6
CONTINUOUS
10
-0.16189
20
0.250004
11
-0.203622
21
0.250004
0
LINE
8
BLACK
6
CONTINUOUS
10
-0.203622
20
0.250004
11
-0.203622
21
0.275594
0
LINE
8
BLACK
6
CONTINUOUS
10
-0.203622
20
0.275594
11
-0.16189
21
0.275594
0
LINE
8
BLACK
6
CONTINUOUS
10
-0.16189
20
0.275594
11
-0.16189
21
0.250004
0
LINE
8
BLACK
6
CONTINUOUS
10
-0.642937
20
0.274397
11
-0.641021
21
0.273117
0
LINE
8
BLACK
6
CONTINUOUS
10
-0.641021
20
0.273117
11
-0.639741
21
0.271201
0
LINE
8
BLACK
6
CONTINUOUS
10
-0.639741
20
0.271201
11
-0.639291
21
0.268941
0
LINE
8
BLACK
6
CONTINUOUS
10
-0.639291
20
0.268941
11
-0.639291
21
0.25713
0
LINE
8
BLACK
6
CONTINUOUS
10
-0.639291
20
0.25713
11
-0.639741
21
0.25487
0
LINE
8
BLACK
6
CONTINUOUS
10
-0.639741
20
0.25487
11
-0.641021
21
0.252954
0
LINE
8
BLACK
6
CONTINUOUS
10
-0.641021
20
0.252954
11
-0.642937
21
0.251674
0
LINE
8
BLACK
6
CONTINUOUS
10
-0.642937
20
0.251674
11
-0.645197
21
0.251224
0
LINE
8
BLACK
6
CONTINUOUS
10
-0.645197
20
0.251224
11
-0.700315
21
0.251224
0
LINE
8
BLACK
6
CONTINUOUS
10
-0.700315
20
0.251224
11
-0.702575
21
0.251674
0
LINE
8
BLACK
6
CONTINUOUS
10
-0.702575
20
0.251674
11
-0.704491
21
0.252954
0
LINE
8
BLACK
6
CONTINUOUS
10
-0.704491
20
0.252954
11
-0.705771
21
0.25487
0
LINE
8
BLACK
6
CONTINUOUS
10
-0.705771
20
0.25487
11
-0.70622
21
0.25713
0
LINE
8
BLACK
6
CONTINUOUS
10
-0.70622
20
0.25713
11
-0.70622
21
0.268941
0
LINE
8
BLACK
6
CONTINUOUS
10
-0.70622
20
0.268941
11
-0.705771
21
0.271201
0
LINE
8
BLACK
6
CONTINUOUS
10
-0.705771
20
0.271201
11
-0.704491
21
0.273117
0
LINE
8
BLACK
6
CONTINUOUS
10
-0.704491
20
0.273117
11
-0.702575
21
0.274397
0
LINE
8
BLACK
6
CONTINUOUS
10
-0.702575
20
0.274397
11
-0.700315
21
0.274846
0
LINE
8
BLACK
6
CONTINUOUS
10
-0.700315
20
0.274846
11
-0.645197
21
0.274846
0
LINE
8
BLACK
6
CONTINUOUS
10
-0.645197
20
0.274846
11
-0.642937
21
0.274397
0
LINE
8
BLACK
6
CONTINUOUS
10
0.2029
20
0.312247
11
0.206094
21
0.310113
0
LINE
8
BLACK
6
CONTINUOUS
10
0.206094
20
0.310113
11
0.208227
21
0.30692
0
LINE
8
BLACK
6
CONTINUOUS
10
0.208227
20
0.30692
11
0.208976
21
0.303153
0
LINE
8
BLACK
6
CONTINUOUS
10
0.208976
20
0.303153
11
0.208976
21
0.282484
0
LINE
8
BLACK
6
CONTINUOUS
10
0.208976
20
0.282484
11
0.208227
21
0.278718
0
LINE
8
BLACK
6
CONTINUOUS
10
0.208227
20
0.278718
11
0.206094
21
0.275524
0
LINE
8
BLACK
6
CONTINUOUS
10
0.206094
20
0.275524
11
0.2029
21
0.273391
0
LINE
8
BLACK
6
CONTINUOUS
10
0.2029
20
0.273391
11
0.199134
21
0.272642
0
LINE
8
BLACK
6
CONTINUOUS
10
0.199134
20
0.272642
11
0.163701
21
0.272642
0
LINE
8
BLACK
6
CONTINUOUS
10
0.163701
20
0.272642
11
0.159934
21
0.273391
0
LINE
8
BLACK
6
CONTINUOUS
10
0.159934
20
0.273391
11
0.156741
21
0.275524
0
LINE
8
BLACK
6
CONTINUOUS
10
0.156741
20
0.275524
11
0.154607
21
0.278718
0
LINE
8
BLACK
6
CONTINUOUS
10
0.154607
20
0.278718
11
0.153858
21
0.282484
0
LINE
8
BLACK
6
CONTINUOUS
10
0.153858
20
0.282484
11
0.153858
21
0.303153
0
LINE
8
BLACK
6
CONTINUOUS
10
0.153858
20
0.303153
11
0.154607
21
0.30692
0
LINE
8
BLACK
6
CONTINUOUS
10
0.154607
20
0.30692
11
0.156741
21
0.310113
0
LINE
8
BLACK
6
CONTINUOUS
10
0.156741
20
0.310113
11
0.159934
21
0.312247
0
LINE
8
BLACK
6
CONTINUOUS
10
0.159934
20
0.312247
11
0.163701
21
0.312996
0
LINE
8
BLACK
6
CONTINUOUS
10
0.163701
20
0.312996
11
0.199134
21
0.312996
0
LINE
8
BLACK
6
CONTINUOUS
10
0.199134
20
0.312996
11
0.2029
21
0.312247
0
LINE
8
BLACK
6
CONTINUOUS
10
0.376129
20
0.312247
11
0.379322
21
0.310113
0
LINE
8
BLACK
6
CONTINUOUS
10
0.379322
20
0.310113
11
0.381456
21
0.30692
0
LINE
8
BLACK
6
CONTINUOUS
10
0.381456
20
0.30692
11
0.382205
21
0.303153
0
LINE
8
BLACK
6
CONTINUOUS
10
0.382205
20
0.303153
11
0.382205
21
0.282484
0
LINE
8
BLACK
6
CONTINUOUS
10
0.382205
20
0.282484
11
0.381456
21
0.278718
0
LINE
8
BLACK
6
CONTINUOUS
10
0.381456
20
0.278718
11
0.379322
21
0.275524
0
LINE
8
BLACK
6
CONTINUOUS
10
0.379322
20
0.275524
11
0.376129
21
0.273391
0
LINE
8
BLACK
6
CONTINUOUS
10
0.376129
20
0.273391
11
0.372362
21
0.272642
0
LINE
8
BLACK
6
CONTINUOUS
10
0.372362
20
0.272642
11
0.336929
21
0.272642
0
LINE
8
BLACK
6
CONTINUOUS
10
0.336929
20
0.272642
11
0.333163
21
0.273391
0
LINE
8
BLACK
6
CONTINUOUS
10
0.333163
20
0.273391
11
0.329969
21
0.275524
0
LINE
8
BLACK
6
CONTINUOUS
10
0.329969
20
0.275524
11
0.327836
21
0.278718
0
LINE
8
BLACK
6
CONTINUOUS
10
0.327836
20
0.278718
11
0.327087
21
0.282484
0
LINE
8
BLACK
6
CONTINUOUS
10
0.327087
20
0.282484
11
0.327087
21
0.303153
0
LINE
8
BLACK
6
CONTINUOUS
10
0.327087
20
0.303153
11
0.327836
21
0.30692
0
LINE
8
BLACK
6
CONTINUOUS
10
0.327836
20
0.30692
11
0.329969
21
0.310113
0
LINE
8
BLACK
6
CONTINUOUS
10
0.329969
20
0.310113
11
0.333163
21
0.312247
0
LINE
8
BLACK
6
CONTINUOUS
10
0.333163
20
0.312247
11
0.336929
21
0.312996
0
LINE
8
BLACK
6
CONTINUOUS
10
0.336929
20
0.312996
11
0.372362
21
0.312996
0
LINE
8
BLACK
6
CONTINUOUS
10
0.372362
20
0.312996
11
0.376129
21
0.312247
0
LINE
8
BLACK
6
CONTINUOUS
10
-0.571098
20
0.310353
11
-0.568224
21
0.308433
0
LINE
8
BLACK
6
CONTINUOUS
10
-0.568224
20
0.308433
11
-0.566304
21
0.305559
0
LINE
8
BLACK
6
CONTINUOUS
10
-0.566304
20
0.305559
11
-0.56563
21
0.302169
0
LINE
8
BLACK
6
CONTINUOUS
10
-0.56563
20
0.302169
11
-0.56563
21
0.282484
0
LINE
8
BLACK
6
CONTINUOUS
10
-0.56563
20
0.282484
11
-0.566304
21
0.279094
0
LINE
8
BLACK
6
CONTINUOUS
10
-0.566304
20
0.279094
11
-0.568224
21
0.27622
0
LINE
8
BLACK
6
CONTINUOUS
10
-0.568224
20
0.27622
11
-0.571098
21
0.2743
0
LINE
8
BLACK
6
CONTINUOUS
10
-0.571098
20
0.2743
11
-0.574488
21
0.273626
0
LINE
8
BLACK
6
CONTINUOUS
10
-0.574488
20
0.273626
11
-0.592205
21
0.273626
0
LINE
8
BLACK
6
CONTINUOUS
10
-0.592205
20
0.273626
11
-0.595595
21
0.2743
0
LINE
8
BLACK
6
CONTINUOUS
10
-0.595595
20
0.2743
11
-0.598468
21
0.27622
0
LINE
8
BLACK
6
CONTINUOUS
10
-0.598468
20
0.27622
11
-0.600389
21
0.279094
0
LINE
8
BLACK
6
CONTINUOUS
10
-0.600389
20
0.279094
11
-0.601063
21
0.282484
0
LINE
8
BLACK
6
CONTINUOUS
10
-0.601063
20
0.282484
11
-0.601063
21
0.302169
0
LINE
8
BLACK
6
CONTINUOUS
10
-0.601063
20
0.302169
11
-0.600389
21
0.305559
0
LINE
8
BLACK
6
CONTINUOUS
10
-0.600389
20
0.305559
11
-0.598468
21
0.308433
0
LINE
8
BLACK
6
CONTINUOUS
10
-0.598468
20
0.308433
11
-0.595595
21
0.310353
0
LINE
8
BLACK
6
CONTINUOUS
10
-0.595595
20
0.310353
11
-0.592205
21
0.311027
0
LINE
8
BLACK
6
CONTINUOUS
10
-0.592205
20
0.311027
11
-0.574488
21
0.311027
0
LINE
8
BLACK
6
CONTINUOUS
10
-0.574488
20
0.311027
11
-0.571098
21
0.310353
0
LINE
8
BLACK
6
CONTINUOUS
10
-0.510075
20
0.310353
11
-0.507201
21
0.308433
0
LINE
8
BLACK
6
CONTINUOUS
10
-0.507201
20
0.308433
11
-0.505281
21
0.305559
0
LINE
8
BLACK
6
CONTINUOUS
10
-0.505281
20
0.305559
11
-0.504606
21
0.302169
0
LINE
8
BLACK
6
CONTINUOUS
10
-0.504606
20
0.302169
11
-0.504606
21
0.282484
0
LINE
8
BLACK
6
CONTINUOUS
10
-0.504606
20
0.282484
11
-0.505281
21
0.279094
0
LINE
8
BLACK
6
CONTINUOUS
10
-0.505281
20
0.279094
11
-0.507201
21
0.27622
0
LINE
8
BLACK
6
CONTINUOUS
10
-0.507201
20
0.27622
11
-0.510075
21
0.2743
0
LINE
8
BLACK
6
CONTINUOUS
10
-0.510075
20
0.2743
11
-0.513465
21
0.273626
0
LINE
8
BLACK
6
CONTINUOUS
10
-0.513465
20
0.273626
11
-0.531181
21
0.273626
0
LINE
8
BLACK
6
CONTINUOUS
10
-0.531181
20
0.273626
11
-0.534571
21
0.2743
0
LINE
8
BLACK
6
CONTINUOUS
10
-0.534571
20
0.2743
11
-0.537445
21
0.27622
0
LINE
8
BLACK
6
CONTINUOUS
10
-0.537445
20
0.27622
11
-0.539365
21
0.279094
0
LINE
8
BLACK
6
CONTINUOUS
10
-0.539365
20
0.279094
11
-0.540039
21
0.282484
0
LINE
8
BLACK
6
CONTINUOUS
10
-0.540039
20
0.282484
11
-0.540039
21
0.302169
0
LINE
8
BLACK
6
CONTINUOUS
10
-0.540039
20
0.302169
11
-0.539365
21
0.305559
0
LINE
8
BLACK
6
CONTINUOUS
10
-0.539365
20
0.305559
11
-0.537445
21
0.308433
0
LINE
8
BLACK
6
CONTINUOUS
10
-0.537445
20
0.308433
11
-0.534571
21
0.310353
0
LINE
8
BLACK
6
CONTINUOUS
10
-0.534571
20
0.310353
11
-0.531181
21
0.311027
0
LINE
8
BLACK
6
CONTINUOUS
10
-0.531181
20
0.311027
11
-0.513465
21
0.311027
0
LINE
8
BLACK
6
CONTINUOUS
10
-0.513465
20
0.311027
11
-0.510075
21
0.310353
0
LINE
8
BLACK
6
CONTINUOUS
10
-0.381514
20
0.310428
11
-0.37896
21
0.308721
0
LINE
8
BLACK
6
CONTINUOUS
10
-0.37896
20
0.308721
11
-0.377253
21
0.306167
0
LINE
8
BLACK
6
CONTINUOUS
10
-0.377253
20
0.306167
11
-0.376654
21
0.303153
0
LINE
8
BLACK
6
CONTINUOUS
10
-0.376654
20
0.303153
11
-0.376654
21
0.2815
0
LINE
8
BLACK
6
CONTINUOUS
10
-0.376654
20
0.2815
11
-0.377253
21
0.278487
0
LINE
8
BLACK
6
CONTINUOUS
10
-0.377253
20
0.278487
11
-0.37896
21
0.275932
0
LINE
8
BLACK
6
CONTINUOUS
10
-0.37896
20
0.275932
11
-0.381514
21
0.274225
0
LINE
8
BLACK
6
CONTINUOUS
10
-0.381514
20
0.274225
11
-0.384528
21
0.273626
0
LINE
8
BLACK
6
CONTINUOUS
10
-0.384528
20
0.273626
11
-0.400276
21
0.273626
0
LINE
8
BLACK
6
CONTINUOUS
10
-0.400276
20
0.273626
11
-0.403289
21
0.274225
0
LINE
8
BLACK
6
CONTINUOUS
10
-0.403289
20
0.274225
11
-0.405843
21
0.275932
0
LINE
8
BLACK
6
CONTINUOUS
10
-0.405843
20
0.275932
11
-0.40755
21
0.278487
0
LINE
8
BLACK
6
CONTINUOUS
10
-0.40755
20
0.278487
11
-0.40815
21
0.2815
0
LINE
8
BLACK
6
CONTINUOUS
10
-0.40815
20
0.2815
11
-0.40815
21
0.303153
0
LINE
8
BLACK
6
CONTINUOUS
10
-0.40815
20
0.303153
11
-0.40755
21
0.306167
0
LINE
8
BLACK
6
CONTINUOUS
10
-0.40755
20
0.306167
11
-0.405843
21
0.308721
0
LINE
8
BLACK
6
CONTINUOUS
10
-0.405843
20
0.308721
11
-0.403289
21
0.310428
0
LINE
8
BLACK
6
CONTINUOUS
10
-0.403289
20
0.310428
11
-0.400276
21
0.311027
0
LINE
8
BLACK
6
CONTINUOUS
10
-0.400276
20
0.311027
11
-0.384528
21
0.311027
0
LINE
8
BLACK
6
CONTINUOUS
10
-0.384528
20
0.311027
11
-0.381514
21
0.310428
0
LINE
8
BLACK
6
CONTINUOUS
10
-0.314585
20
0.310428
11
-0.312031
21
0.308721
0
LINE
8
BLACK
6
CONTINUOUS
10
-0.312031
20
0.308721
11
-0.310324
21
0.306167
0
LINE
8
BLACK
6
CONTINUOUS
10
-0.310324
20
0.306167
11
-0.309724
21
0.303153
0
LINE
8
BLACK
6
CONTINUOUS
10
-0.309724
20
0.303153
11
-0.309724
21
0.2815
0
LINE
8
BLACK
6
CONTINUOUS
10
-0.309724
20
0.2815
11
-0.310324
21
0.278487
0
LINE
8
BLACK
6
CONTINUOUS
10
-0.310324
20
0.278487
11
-0.312031
21
0.275932
0
LINE
8
BLACK
6
CONTINUOUS
10
-0.312031
20
0.275932
11
-0.314585
21
0.274225
0
LINE
8
BLACK
6
CONTINUOUS
10
-0.314585
20
0.274225
11
-0.317598
21
0.273626
0
LINE
8
BLACK
6
CONTINUOUS
10
-0.317598
20
0.273626
11
-0.333346
21
0.273626
0
LINE
8
BLACK
6
CONTINUOUS
10
-0.333346
20
0.273626
11
-0.33636
21
0.274225
0
LINE
8
BLACK
6
CONTINUOUS
10
-0.33636
20
0.274225
11
-0.338914
21
0.275932
0
LINE
8
BLACK
6
CONTINUOUS
10
-0.338914
20
0.275932
11
-0.340621
21
0.278487
0
LINE
8
BLACK
6
CONTINUOUS
10
-0.340621
20
0.278487
11
-0.34122
21
0.2815
0
LINE
8
BLACK
6
CONTINUOUS
10
-0.34122
20
0.2815
11
-0.34122
21
0.303153
0
LINE
8
BLACK
6
CONTINUOUS
10
-0.34122
20
0.303153
11
-0.340621
21
0.306167
0
LINE
8
BLACK
6
CONTINUOUS
10
-0.340621
20
0.306167
11
-0.338914
21
0.308721
0
LINE
8
BLACK
6
CONTINUOUS
10
-0.338914
20
0.308721
11
-0.33636
21
0.310428
0
LINE
8
BLACK
6
CONTINUOUS
10
-0.33636
20
0.310428
11
-0.333346
21
0.311027
0
LINE
8
BLACK
6
CONTINUOUS
10
-0.333346
20
0.311027
11
-0.317598
21
0.311027
0
LINE
8
BLACK
6
CONTINUOUS
10
-0.317598
20
0.311027
11
-0.314585
21
0.310428
0
LINE
8
BLACK
6
CONTINUOUS
10
-0.249625
20
0.310428
11
-0.24707
21
0.308721
0
LINE
8
BLACK
6
CONTINUOUS
10
-0.24707
20
0.308721
11
-0.245363
21
0.306167
0
LINE
8
BLACK
6
CONTINUOUS
10
-0.245363
20
0.306167
11
-0.244764
21
0.303153
0
LINE
8
BLACK
6
CONTINUOUS
10
-0.244764
20
0.303153
11
-0.244764
21
0.2815
0
LINE
8
BLACK
6
CONTINUOUS
10
-0.244764
20
0.2815
11
-0.245363
21
0.278487
0
LINE
8
BLACK
6
CONTINUOUS
10
-0.245363
20
0.278487
11
-0.24707
21
0.275932
0
LINE
8
BLACK
6
CONTINUOUS
10
-0.24707
20
0.275932
11
-0.249625
21
0.274225
0
LINE
8
BLACK
6
CONTINUOUS
10
-0.249625
20
0.274225
11
-0.252638
21
0.273626
0
LINE
8
BLACK
6
CONTINUOUS
10
-0.252638
20
0.273626
11
-0.268386
21
0.273626
0
LINE
8
BLACK
6
CONTINUOUS
10
-0.268386
20
0.273626
11
-0.271399
21
0.274225
0
LINE
8
BLACK
6
CONTINUOUS
10
-0.271399
20
0.274225
11
-0.273954
21
0.275932
0
LINE
8
BLACK
6
CONTINUOUS
10
-0.273954
20
0.275932
11
-0.27566
21
0.278487
0
LINE
8
BLACK
6
CONTINUOUS
10
-0.27566
20
0.278487
11
-0.27626
21
0.2815
0
LINE
8
BLACK
6
CONTINUOUS
10
-0.27626
20
0.2815
11
-0.27626
21
0.303153
0
LINE
8
BLACK
6
CONTINUOUS
10
-0.27626
20
0.303153
11
-0.27566
21
0.306167
0
LINE
8
BLACK
6
CONTINUOUS
10
-0.27566
20
0.306167
11
-0.273954
21
0.308721
0
LINE
8
BLACK
6
CONTINUOUS
10
-0.273954
20
0.308721
11
-0.271399
21
0.310428
0
LINE
8
BLACK
6
CONTINUOUS
10
-0.271399
20
0.310428
11
-0.268386
21
0.311027
0
LINE
8
BLACK
6
CONTINUOUS
10
-0.268386
20
0.311027
11
-0.252638
21
0.311027
0
LINE
8
BLACK
6
CONTINUOUS
10
-0.252638
20
0.311027
11
-0.249625
21
0.310428
0
LINE
8
BLACK
6
CONTINUOUS
10
-0.446475
20
0.310428
11
-0.44392
21
0.308721
0
LINE
8
BLACK
6
CONTINUOUS
10
-0.44392
20
0.308721
11
-0.442214
21
0.306167
0
LINE
8
BLACK
6
CONTINUOUS
10
-0.442214
20
0.306167
11
-0.441614
21
0.303153
0
LINE
8
BLACK
6
CONTINUOUS
10
-0.441614
20
0.303153
11
-0.441614
21
0.2815
0
LINE
8
BLACK
6
CONTINUOUS
10
-0.441614
20
0.2815
11
-0.442214
21
0.278487
0
LINE
8
BLACK
6
CONTINUOUS
10
-0.442214
20
0.278487
11
-0.44392
21
0.275932
0
LINE
8
BLACK
6
CONTINUOUS
10
-0.44392
20
0.275932
11
-0.446475
21
0.274225
0
LINE
8
BLACK
6
CONTINUOUS
10
-0.446475
20
0.274225
11
-0.449488
21
0.273626
0
LINE
8
BLACK
6
CONTINUOUS
10
-0.449488
20
0.273626
11
-0.465236
21
0.273626
0
LINE
8
BLACK
6
CONTINUOUS
10
-0.465236
20
0.273626
11
-0.468249
21
0.274225
0
LINE
8
BLACK
6
CONTINUOUS
10
-0.468249
20
0.274225
11
-0.470804
21
0.275932
0
LINE
8
BLACK
6
CONTINUOUS
10
-0.470804
20
0.275932
11
-0.472511
21
0.278487
0
LINE
8
BLACK
6
CONTINUOUS
10
-0.472511
20
0.278487
11
-0.47311
21
0.2815
0
LINE
8
BLACK
6
CONTINUOUS
10
-0.47311
20
0.2815
11
-0.47311
21
0.303153
0
LINE
8
BLACK
6
CONTINUOUS
10
-0.47311
20
0.303153
11
-0.472511
21
0.306167
0
LINE
8
BLACK
6
CONTINUOUS
10
-0.472511
20
0.306167
11
-0.470804
21
0.308721
0
LINE
8
BLACK
6
CONTINUOUS
10
-0.470804
20
0.308721
11
-0.468249
21
0.310428
0
LINE
8
BLACK
6
CONTINUOUS
10
-0.468249
20
0.310428
11
-0.465236
21
0.311027
0
LINE
8
BLACK
6
CONTINUOUS
10
-0.465236
20
0.311027
11
-0.449488
21
0.311027
0
LINE
8
BLACK
6
CONTINUOUS
10
-0.449488
20
0.311027
11
-0.446475
21
0.310428
0
LINE
8
BLACK
6
CONTINUOUS
10
0.290499
20
0.313231
11
0.293692
21
0.311097
0
LINE
8
BLACK
6
CONTINUOUS
10
0.293692
20
0.311097
11
0.295826
21
0.307904
0
LINE
8
BLACK
6
CONTINUOUS
10
0.295826
20
0.307904
11
0.296575
21
0.304138
0
LINE
8
BLACK
6
CONTINUOUS
10
0.296575
20
0.304138
11
0.296575
21
0.284453
0
LINE
8
BLACK
6
CONTINUOUS
10
0.296575
20
0.284453
11
0.295826
21
0.280686
0
LINE
8
BLACK
6
CONTINUOUS
10
0.295826
20
0.280686
11
0.293692
21
0.277493
0
LINE
8
BLACK
6
CONTINUOUS
10
0.293692
20
0.277493
11
0.290499
21
0.275359
0
LINE
8
BLACK
6
CONTINUOUS
10
0.290499
20
0.275359
11
0.286732
21
0.27461
0
LINE
8
BLACK
6
CONTINUOUS
10
0.286732
20
0.27461
11
0.249331
21
0.27461
0
LINE
8
BLACK
6
CONTINUOUS
10
0.249331
20
0.27461
11
0.245564
21
0.275359
0
LINE
8
BLACK
6
CONTINUOUS
10
0.245564
20
0.275359
11
0.242371
21
0.277493
0
LINE
8
BLACK
6
CONTINUOUS
10
0.242371
20
0.277493
11
0.240237
21
0.280686
0
LINE
8
BLACK
6
CONTINUOUS
10
0.240237
20
0.280686
11
0.239488
21
0.284453
0
LINE
8
BLACK
6
CONTINUOUS
10
0.239488
20
0.284453
11
0.239488
21
0.304138
0
LINE
8
BLACK
6
CONTINUOUS
10
0.239488
20
0.304138
11
0.240237
21
0.307904
0
LINE
8
BLACK
6
CONTINUOUS
10
0.240237
20
0.307904
11
0.242371
21
0.311097
0
LINE
8
BLACK
6
CONTINUOUS
10
0.242371
20
0.311097
11
0.245564
21
0.313231
0
LINE
8
BLACK
6
CONTINUOUS
10
0.245564
20
0.313231
11
0.249331
21
0.31398
0
LINE
8
BLACK
6
CONTINUOUS
10
0.249331
20
0.31398
11
0.286732
21
0.31398
0
LINE
8
BLACK
6
CONTINUOUS
10
0.286732
20
0.31398
11
0.290499
21
0.313231
0
LINE
8
BLACK
6
CONTINUOUS
10
0.00173638
20
0.31429
11
0.0046102
21
0.31237
0
LINE
8
BLACK
6
CONTINUOUS
10
0.0046102
20
0.31237
11
0.00653043
21
0.309496
0
LINE
8
BLACK
6
CONTINUOUS
10
0.00653043
20
0.309496
11
0.00720472
21
0.306106
0
LINE
8
BLACK
6
CONTINUOUS
10
0.00720472
20
0.306106
11
0.00720472
21
0.28839
0
LINE
8
BLACK
6
CONTINUOUS
10
0.00720472
20
0.28839
11
0.00653043
21
0.285
0
LINE
8
BLACK
6
CONTINUOUS
10
0.00653043
20
0.285
11
0.0046102
21
0.282126
0
LINE
8
BLACK
6
CONTINUOUS
10
0.0046102
20
0.282126
11
0.00173638
21
0.280206
0
LINE
8
BLACK
6
CONTINUOUS
10
0.00173638
20
0.280206
11
-0.00165354
21
0.279531
0
LINE
8
BLACK
6
CONTINUOUS
10
-0.00165354
20
0.279531
11
-0.0213386
21
0.279531
0
LINE
8
BLACK
6
CONTINUOUS
10
-0.0213386
20
0.279531
11
-0.0247285
21
0.280206
0
LINE
8
BLACK
6
CONTINUOUS
10
-0.0247285
20
0.280206
11
-0.0276023
21
0.282126
0
LINE
8
BLACK
6
CONTINUOUS
10
-0.0276023
20
0.282126
11
-0.0295226
21
0.285
0
LINE
8
BLACK
6
CONTINUOUS
10
-0.0295226
20
0.285
11
-0.0301969
21
0.28839
0
LINE
8
BLACK
6
CONTINUOUS
10
-0.0301969
20
0.28839
11
-0.0301969
21
0.306106
0
LINE
8
BLACK
6
CONTINUOUS
10
-0.0301969
20
0.306106
11
-0.0295226
21
0.309496
0
LINE
8
BLACK
6
CONTINUOUS
10
-0.0295226
20
0.309496
11
-0.0276023
21
0.31237
0
LINE
8
BLACK
6
CONTINUOUS
10
-0.0276023
20
0.31237
11
-0.0247285
21
0.31429
0
LINE
8
BLACK
6
CONTINUOUS
10
-0.0247285
20
0.31429
11
-0.0213386
21
0.314964
0
LINE
8
BLACK
6
CONTINUOUS
10
-0.0213386
20
0.314964
11
-0.00165354
21
0.314964
0
LINE
8
BLACK
6
CONTINUOUS
10
-0.00165354
20
0.314964
11
0.00173638
21
0.31429
0
LINE
8
BLACK
6
CONTINUOUS
10
-0.0752756
20
0.287405
11
-0.117008
21
0.287405
0
LINE
8
BLACK
6
CONTINUOUS
10
-0.117008
20
0.287405
11
-0.117008
21
0.312996
0
LINE
8
BLACK
6
CONTINUOUS
10
-0.117008
20
0.312996
11
-0.0752756
21
0.312996
0
LINE
8
BLACK
6
CONTINUOUS
10
-0.0752756
20
0.312996
11
-0.0752756
21
0.287405
0
LINE
8
BLACK
6
CONTINUOUS
10
-0.16189
20
0.287405
11
-0.203622
21
0.287405
0
LINE
8
BLACK
6
CONTINUOUS
10
-0.203622
20
0.287405
11
-0.203622
21
0.312996
0
LINE
8
BLACK
6
CONTINUOUS
10
-0.203622
20
0.312996
11
-0.16189
21
0.312996
0
LINE
8
BLACK
6
CONTINUOUS
10
-0.16189
20
0.312996
11
-0.16189
21
0.287405
0
LINE
8
BLACK
6
CONTINUOUS
10
-0.751666
20
0.354806
11
-0.748473
21
0.352672
0
LINE
8
BLACK
6
CONTINUOUS
10
-0.748473
20
0.352672
11
-0.74634
21
0.349479
0
LINE
8
BLACK
6
CONTINUOUS
10
-0.74634
20
0.349479
11
-0.745591
21
0.345712
0
LINE
8
BLACK
6
CONTINUOUS
10
-0.745591
20
0.345712
11
-0.745591
21
0.326027
0
LINE
8
BLACK
6
CONTINUOUS
10
-0.745591
20
0.326027
11
-0.74634
21
0.322261
0
LINE
8
BLACK
6
CONTINUOUS
10
-0.74634
20
0.322261
11
-0.748473
21
0.319068
0
LINE
8
BLACK
6
CONTINUOUS
10
-0.748473
20
0.319068
11
-0.751666
21
0.316934
0
LINE
8
BLACK
6
CONTINUOUS
10
-0.751666
20
0.316934
11
-0.755433
21
0.316185
0
LINE
8
BLACK
6
CONTINUOUS
10
-0.755433
20
0.316185
11
-0.842047
21
0.316185
0
LINE
8
BLACK
6
CONTINUOUS
10
-0.842047
20
0.316185
11
-0.845814
21
0.316934
0
LINE
8
BLACK
6
CONTINUOUS
10
-0.845814
20
0.316934
11
-0.849007
21
0.319068
0
LINE
8
BLACK
6
CONTINUOUS
10
-0.849007
20
0.319068
11
-0.851141
21
0.322261
0
LINE
8
BLACK
6
CONTINUOUS
10
-0.851141
20
0.322261
11
-0.85189
21
0.326027
0
LINE
8
BLACK
6
CONTINUOUS
10
-0.85189
20
0.326027
11
-0.85189
21
0.345712
0
LINE
8
BLACK
6
CONTINUOUS
10
-0.85189
20
0.345712
11
-0.851141
21
0.349479
0
LINE
8
BLACK
6
CONTINUOUS
10
-0.851141
20
0.349479
11
-0.849007
21
0.352672
0
LINE
8
BLACK
6
CONTINUOUS
10
-0.849007
20
0.352672
11
-0.845814
21
0.354806
0
LINE
8
BLACK
6
CONTINUOUS
10
-0.845814
20
0.354806
11
-0.842047
21
0.355555
0
LINE
8
BLACK
6
CONTINUOUS
10
-0.842047
20
0.355555
11
-0.755433
21
0.355555
0
LINE
8
BLACK
6
CONTINUOUS
10
-0.755433
20
0.355555
11
-0.751666
21
0.354806
  0
ENDSEC
  0
EOF
