  0
SECTION
  2
HEADER
  9
$ANGBASE
  50
0.0
  9
$ANGDIR
  70
1
  9
$MEASUREMENT
  70
0
  0
ENDSEC
  0
SECTION
  2
TABLES
  0
TABLE
  2
LTYPE
  70
4
  0
LTYPE
  5
40F
  2
CONTINUOUS
  70
0
  3
Solid line
  72
65
  73
0
  40
0.0
  0
LTYPE
  5
410
  2
DASHDOT
 70
0
  3
Dash Dot ____ _ ____ _
 72
65
 73
4
 40
2.0
 49
1.25
 49
-0.25
 49
0.25
 49
-0.25
  0
LTYPE
  5
411
  2
DASHED
 70
0
  3
Dashed __ __ __ __ __
 72
65
 73
2
 40
0.75
 49
0.5
 49
-0.25
  0
LTYPE
  5
43B
  2
DOTTED
 70
0
  3
Dotted .  .  .  .
 72
65
 73
2
 40
0.2
 49
0.0
 49
-0.2
  0
ENDTAB
  0
TABLE
  2
STYLE
  70
4
  0
STYLE
  2
KICAD
  70
0
  40
0
  41
1
  42
1
  50
0
  71
0
  3
isocp.shx
  0
STYLE
  2
KICADB
  70
0
  40
0
  41
1
  42
1
  50
0
  71
0
  3
isocp.shx
  0
STYLE
  2
KICADI
  70
0
  40
0
  41
1
  42
1
  50
15
  71
0
  3
isocp.shx
  0
STYLE
  2
KICADBI
  70
0
  40
0
  41
1
  42
1
  50
15
  71
0
  3
isocp.shx
  0
ENDTAB
  0
TABLE
  2
LAYER
  70
1
  0
LAYER
  2
BLACK
  70
0
  62
7
  6
CONTINUOUS
  0
ENDTAB
  0
ENDSEC
  0
SECTION
  2
ENTITIES
0
LINE
8
BLACK
6
CONTINUOUS
10
0.0925731
20
-0.253882
11
0.0932639
21
-0.25578
0
LINE
8
BLACK
6
CONTINUOUS
10
0.0932639
20
-0.25578
11
0.0932639
21
-0.29515
0
LINE
8
BLACK
6
CONTINUOUS
10
0.0932639
20
-0.29515
11
0.0930859
21
-0.29616
0
LINE
8
BLACK
6
CONTINUOUS
10
0.0930859
20
-0.29616
11
0.0917876
21
-0.297708
0
LINE
8
BLACK
6
CONTINUOUS
10
0.0917876
20
-0.297708
11
0.0897984
21
-0.298058
0
LINE
8
BLACK
6
CONTINUOUS
10
0.0897984
20
-0.298058
11
0.0880493
21
-0.297048
0
LINE
8
BLACK
6
CONTINUOUS
10
0.0880493
20
-0.297048
11
0.0873584
21
-0.29515
0
LINE
8
BLACK
6
CONTINUOUS
10
0.0873584
20
-0.29515
11
0.0873584
21
-0.279782
0
LINE
8
BLACK
6
CONTINUOUS
10
0.0873584
20
-0.279782
11
0.0699019
21
-0.297238
0
LINE
8
BLACK
6
CONTINUOUS
10
0.0699019
20
-0.297238
11
0.0690619
21
-0.297826
0
LINE
8
BLACK
6
CONTINUOUS
10
0.0690619
20
-0.297826
11
0.0670498
21
-0.298003
0
LINE
8
BLACK
6
CONTINUOUS
10
0.0670498
20
-0.298003
11
0.0653952
21
-0.296844
0
LINE
8
BLACK
6
CONTINUOUS
10
0.0653952
20
-0.296844
11
0.0648725
21
-0.294893
0
LINE
8
BLACK
6
CONTINUOUS
10
0.0648725
20
-0.294893
11
0.0657261
21
-0.293062
0
LINE
8
BLACK
6
CONTINUOUS
10
0.0657261
20
-0.293062
11
0.0807881
21
-0.278
0
LINE
8
BLACK
6
CONTINUOUS
10
0.0807881
20
-0.278
11
0.0654518
21
-0.257552
0
LINE
8
BLACK
6
CONTINUOUS
10
0.0654518
20
-0.257552
11
0.0649883
21
-0.256637
0
LINE
8
BLACK
6
CONTINUOUS
10
0.0649883
20
-0.256637
11
0.0650986
21
-0.25462
0
LINE
8
BLACK
6
CONTINUOUS
10
0.0650986
20
-0.25462
11
0.0664795
21
-0.253146
0
LINE
8
BLACK
6
CONTINUOUS
10
0.0664795
20
-0.253146
11
0.0684848
21
-0.252905
0
LINE
8
BLACK
6
CONTINUOUS
10
0.0684848
20
-0.252905
11
0.0701762
21
-0.254009
0
LINE
8
BLACK
6
CONTINUOUS
10
0.0701762
20
-0.254009
11
0.0850064
21
-0.273782
0
LINE
8
BLACK
6
CONTINUOUS
10
0.0850064
20
-0.273782
11
0.0873584
21
-0.27143
0
LINE
8
BLACK
6
CONTINUOUS
10
0.0873584
20
-0.27143
11
0.0873584
21
-0.25578
0
LINE
8
BLACK
6
CONTINUOUS
10
0.0873584
20
-0.25578
11
0.0875365
21
-0.25477
0
LINE
8
BLACK
6
CONTINUOUS
10
0.0875365
20
-0.25477
11
0.0888348
21
-0.253223
0
LINE
8
BLACK
6
CONTINUOUS
10
0.0888348
20
-0.253223
11
0.0908239
21
-0.252872
0
LINE
8
BLACK
6
CONTINUOUS
10
0.0908239
20
-0.252872
11
0.0925731
21
-0.253882
0
LINE
8
BLACK
6
CONTINUOUS
10
-0.301128
20
-0.253882
11
-0.300437
21
-0.25578
0
LINE
8
BLACK
6
CONTINUOUS
10
-0.300437
20
-0.25578
11
-0.300437
21
-0.29515
0
LINE
8
BLACK
6
CONTINUOUS
10
-0.300437
20
-0.29515
11
-0.300615
21
-0.29616
0
LINE
8
BLACK
6
CONTINUOUS
10
-0.300615
20
-0.29616
11
-0.301913
21
-0.297708
0
LINE
8
BLACK
6
CONTINUOUS
10
-0.301913
20
-0.297708
11
-0.303902
21
-0.298058
0
LINE
8
BLACK
6
CONTINUOUS
10
-0.303902
20
-0.298058
11
-0.305652
21
-0.297048
0
LINE
8
BLACK
6
CONTINUOUS
10
-0.305652
20
-0.297048
11
-0.306342
21
-0.29515
0
LINE
8
BLACK
6
CONTINUOUS
10
-0.306342
20
-0.29515
11
-0.306342
21
-0.279782
0
LINE
8
BLACK
6
CONTINUOUS
10
-0.306342
20
-0.279782
11
-0.323799
21
-0.297238
0
LINE
8
BLACK
6
CONTINUOUS
10
-0.323799
20
-0.297238
11
-0.324639
21
-0.297826
0
LINE
8
BLACK
6
CONTINUOUS
10
-0.324639
20
-0.297826
11
-0.326651
21
-0.298003
0
LINE
8
BLACK
6
CONTINUOUS
10
-0.326651
20
-0.298003
11
-0.328306
21
-0.296844
0
LINE
8
BLACK
6
CONTINUOUS
10
-0.328306
20
-0.296844
11
-0.328828
21
-0.294893
0
LINE
8
BLACK
6
CONTINUOUS
10
-0.328828
20
-0.294893
11
-0.327975
21
-0.293062
0
LINE
8
BLACK
6
CONTINUOUS
10
-0.327975
20
-0.293062
11
-0.312913
21
-0.278
0
LINE
8
BLACK
6
CONTINUOUS
10
-0.312913
20
-0.278
11
-0.328249
21
-0.257552
0
LINE
8
BLACK
6
CONTINUOUS
10
-0.328249
20
-0.257552
11
-0.328712
21
-0.256637
0
LINE
8
BLACK
6
CONTINUOUS
10
-0.328712
20
-0.256637
11
-0.328602
21
-0.25462
0
LINE
8
BLACK
6
CONTINUOUS
10
-0.328602
20
-0.25462
11
-0.327221
21
-0.253146
0
LINE
8
BLACK
6
CONTINUOUS
10
-0.327221
20
-0.253146
11
-0.325216
21
-0.252905
0
LINE
8
BLACK
6
CONTINUOUS
10
-0.325216
20
-0.252905
11
-0.323525
21
-0.254009
0
LINE
8
BLACK
6
CONTINUOUS
10
-0.323525
20
-0.254009
11
-0.308694
21
-0.273782
0
LINE
8
BLACK
6
CONTINUOUS
10
-0.308694
20
-0.273782
11
-0.306342
21
-0.27143
0
LINE
8
BLACK
6
CONTINUOUS
10
-0.306342
20
-0.27143
11
-0.306342
21
-0.25578
0
LINE
8
BLACK
6
CONTINUOUS
10
-0.306342
20
-0.25578
11
-0.306164
21
-0.25477
0
LINE
8
BLACK
6
CONTINUOUS
10
-0.306164
20
-0.25477
11
-0.304866
21
-0.253223
0
LINE
8
BLACK
6
CONTINUOUS
10
-0.304866
20
-0.253223
11
-0.302877
21
-0.252872
0
LINE
8
BLACK
6
CONTINUOUS
10
-0.302877
20
-0.252872
11
-0.301128
21
-0.253882
  0
ENDSEC
  0
EOF
