  0
SECTION
  2
HEADER
  9
$ANGBASE
  50
0.0
  9
$ANGDIR
  70
1
  9
$MEASUREMENT
  70
0
  0
ENDSEC
  0
SECTION
  2
TABLES
  0
TABLE
  2
LTYPE
  70
4
  0
LTYPE
  5
40F
  2
CONTINUOUS
  70
0
  3
Solid line
  72
65
  73
0
  40
0.0
  0
LTYPE
  5
410
  2
DASHDOT
 70
0
  3
Dash Dot ____ _ ____ _
 72
65
 73
4
 40
2.0
 49
1.25
 49
-0.25
 49
0.25
 49
-0.25
  0
LTYPE
  5
411
  2
DASHED
 70
0
  3
Dashed __ __ __ __ __
 72
65
 73
2
 40
0.75
 49
0.5
 49
-0.25
  0
LTYPE
  5
43B
  2
DOTTED
 70
0
  3
Dotted .  .  .  .
 72
65
 73
2
 40
0.2
 49
0.0
 49
-0.2
  0
ENDTAB
  0
TABLE
  2
STYLE
  70
4
  0
STYLE
  2
KICAD
  70
0
  40
0
  41
1
  42
1
  50
0
  71
0
  3
isocp.shx
  0
STYLE
  2
KICADB
  70
0
  40
0
  41
1
  42
1
  50
0
  71
0
  3
isocp.shx
  0
STYLE
  2
KICADI
  70
0
  40
0
  41
1
  42
1
  50
15
  71
0
  3
isocp.shx
  0
STYLE
  2
KICADBI
  70
0
  40
0
  41
1
  42
1
  50
15
  71
0
  3
isocp.shx
  0
ENDTAB
  0
TABLE
  2
LAYER
  70
1
  0
LAYER
  2
BLACK
  70
0
  62
7
  6
CONTINUOUS
  0
ENDTAB
  0
ENDSEC
  0
SECTION
  2
ENTITIES
0
LINE
8
BLACK
6
CONTINUOUS
10
-0.731981
20
-0.31547
11
-0.728788
21
-0.317603
0
LINE
8
BLACK
6
CONTINUOUS
10
-0.728788
20
-0.317603
11
-0.726655
21
-0.320797
0
LINE
8
BLACK
6
CONTINUOUS
10
-0.726655
20
-0.320797
11
-0.725906
21
-0.324563
0
LINE
8
BLACK
6
CONTINUOUS
10
-0.725906
20
-0.324563
11
-0.725906
21
-0.344248
0
LINE
8
BLACK
6
CONTINUOUS
10
-0.725906
20
-0.344248
11
-0.726655
21
-0.348015
0
LINE
8
BLACK
6
CONTINUOUS
10
-0.726655
20
-0.348015
11
-0.728788
21
-0.351208
0
LINE
8
BLACK
6
CONTINUOUS
10
-0.728788
20
-0.351208
11
-0.731981
21
-0.353341
0
LINE
8
BLACK
6
CONTINUOUS
10
-0.731981
20
-0.353341
11
-0.735748
21
-0.354091
0
LINE
8
BLACK
6
CONTINUOUS
10
-0.735748
20
-0.354091
11
-0.822362
21
-0.354091
0
LINE
8
BLACK
6
CONTINUOUS
10
-0.822362
20
-0.354091
11
-0.826129
21
-0.353341
0
LINE
8
BLACK
6
CONTINUOUS
10
-0.826129
20
-0.353341
11
-0.829322
21
-0.351208
0
LINE
8
BLACK
6
CONTINUOUS
10
-0.829322
20
-0.351208
11
-0.831456
21
-0.348015
0
LINE
8
BLACK
6
CONTINUOUS
10
-0.831456
20
-0.348015
11
-0.832205
21
-0.344248
0
LINE
8
BLACK
6
CONTINUOUS
10
-0.832205
20
-0.344248
11
-0.832205
21
-0.324563
0
LINE
8
BLACK
6
CONTINUOUS
10
-0.832205
20
-0.324563
11
-0.831456
21
-0.320797
0
LINE
8
BLACK
6
CONTINUOUS
10
-0.831456
20
-0.320797
11
-0.829322
21
-0.317603
0
LINE
8
BLACK
6
CONTINUOUS
10
-0.829322
20
-0.317603
11
-0.826129
21
-0.31547
0
LINE
8
BLACK
6
CONTINUOUS
10
-0.826129
20
-0.31547
11
-0.822362
21
-0.314721
0
LINE
8
BLACK
6
CONTINUOUS
10
-0.822362
20
-0.314721
11
-0.735748
21
-0.314721
0
LINE
8
BLACK
6
CONTINUOUS
10
-0.735748
20
-0.314721
11
-0.731981
21
-0.31547
0
LINE
8
BLACK
6
CONTINUOUS
10
-0.194506
20
-0.306698
11
-0.191952
21
-0.308405
0
LINE
8
BLACK
6
CONTINUOUS
10
-0.191952
20
-0.308405
11
-0.190245
21
-0.310959
0
LINE
8
BLACK
6
CONTINUOUS
10
-0.190245
20
-0.310959
11
-0.189646
21
-0.313973
0
LINE
8
BLACK
6
CONTINUOUS
10
-0.189646
20
-0.313973
11
-0.189646
21
-0.329721
0
LINE
8
BLACK
6
CONTINUOUS
10
-0.189646
20
-0.329721
11
-0.190245
21
-0.332734
0
LINE
8
BLACK
6
CONTINUOUS
10
-0.190245
20
-0.332734
11
-0.191952
21
-0.335288
0
LINE
8
BLACK
6
CONTINUOUS
10
-0.191952
20
-0.335288
11
-0.194506
21
-0.336995
0
LINE
8
BLACK
6
CONTINUOUS
10
-0.194506
20
-0.336995
11
-0.19752
21
-0.337595
0
LINE
8
BLACK
6
CONTINUOUS
10
-0.19752
20
-0.337595
11
-0.219173
21
-0.337595
0
LINE
8
BLACK
6
CONTINUOUS
10
-0.219173
20
-0.337595
11
-0.222186
21
-0.336995
0
LINE
8
BLACK
6
CONTINUOUS
10
-0.222186
20
-0.336995
11
-0.224741
21
-0.335288
0
LINE
8
BLACK
6
CONTINUOUS
10
-0.224741
20
-0.335288
11
-0.226448
21
-0.332734
0
LINE
8
BLACK
6
CONTINUOUS
10
-0.226448
20
-0.332734
11
-0.227047
21
-0.329721
0
LINE
8
BLACK
6
CONTINUOUS
10
-0.227047
20
-0.329721
11
-0.227047
21
-0.313973
0
LINE
8
BLACK
6
CONTINUOUS
10
-0.227047
20
-0.313973
11
-0.226448
21
-0.310959
0
LINE
8
BLACK
6
CONTINUOUS
10
-0.226448
20
-0.310959
11
-0.224741
21
-0.308405
0
LINE
8
BLACK
6
CONTINUOUS
10
-0.224741
20
-0.308405
11
-0.222186
21
-0.306698
0
LINE
8
BLACK
6
CONTINUOUS
10
-0.222186
20
-0.306698
11
-0.219173
21
-0.306099
0
LINE
8
BLACK
6
CONTINUOUS
10
-0.219173
20
-0.306099
11
-0.19752
21
-0.306099
0
LINE
8
BLACK
6
CONTINUOUS
10
-0.19752
20
-0.306099
11
-0.194506
21
-0.306698
0
LINE
8
BLACK
6
CONTINUOUS
10
-0.12616
20
-0.306442
11
-0.123605
21
-0.308149
0
LINE
8
BLACK
6
CONTINUOUS
10
-0.123605
20
-0.308149
11
-0.121899
21
-0.310703
0
LINE
8
BLACK
6
CONTINUOUS
10
-0.121899
20
-0.310703
11
-0.121299
21
-0.313717
0
LINE
8
BLACK
6
CONTINUOUS
10
-0.121299
20
-0.313717
11
-0.121299
21
-0.329465
0
LINE
8
BLACK
6
CONTINUOUS
10
-0.121299
20
-0.329465
11
-0.121899
21
-0.332478
0
LINE
8
BLACK
6
CONTINUOUS
10
-0.121899
20
-0.332478
11
-0.123605
21
-0.335032
0
LINE
8
BLACK
6
CONTINUOUS
10
-0.123605
20
-0.335032
11
-0.12616
21
-0.336739
0
LINE
8
BLACK
6
CONTINUOUS
10
-0.12616
20
-0.336739
11
-0.129173
21
-0.337339
0
LINE
8
BLACK
6
CONTINUOUS
10
-0.129173
20
-0.337339
11
-0.150827
21
-0.337339
0
LINE
8
BLACK
6
CONTINUOUS
10
-0.150827
20
-0.337339
11
-0.15384
21
-0.336739
0
LINE
8
BLACK
6
CONTINUOUS
10
-0.15384
20
-0.336739
11
-0.156395
21
-0.335032
0
LINE
8
BLACK
6
CONTINUOUS
10
-0.156395
20
-0.335032
11
-0.158101
21
-0.332478
0
LINE
8
BLACK
6
CONTINUOUS
10
-0.158101
20
-0.332478
11
-0.158701
21
-0.329465
0
LINE
8
BLACK
6
CONTINUOUS
10
-0.158701
20
-0.329465
11
-0.158701
21
-0.313717
0
LINE
8
BLACK
6
CONTINUOUS
10
-0.158701
20
-0.313717
11
-0.158101
21
-0.310703
0
LINE
8
BLACK
6
CONTINUOUS
10
-0.158101
20
-0.310703
11
-0.156395
21
-0.308149
0
LINE
8
BLACK
6
CONTINUOUS
10
-0.156395
20
-0.308149
11
-0.15384
21
-0.306442
0
LINE
8
BLACK
6
CONTINUOUS
10
-0.15384
20
-0.306442
11
-0.150827
21
-0.305843
0
LINE
8
BLACK
6
CONTINUOUS
10
-0.150827
20
-0.305843
11
-0.129173
21
-0.305843
0
LINE
8
BLACK
6
CONTINUOUS
10
-0.129173
20
-0.305843
11
-0.12616
21
-0.306442
0
LINE
8
BLACK
6
CONTINUOUS
10
0.173232
20
-0.286596
11
0.176106
21
-0.288516
0
LINE
8
BLACK
6
CONTINUOUS
10
0.176106
20
-0.288516
11
0.178026
21
-0.29139
0
LINE
8
BLACK
6
CONTINUOUS
10
0.178026
20
-0.29139
11
0.178701
21
-0.29478
0
LINE
8
BLACK
6
CONTINUOUS
10
0.178701
20
-0.29478
11
0.178701
21
-0.312496
0
LINE
8
BLACK
6
CONTINUOUS
10
0.178701
20
-0.312496
11
0.178026
21
-0.315886
0
LINE
8
BLACK
6
CONTINUOUS
10
0.178026
20
-0.315886
11
0.176106
21
-0.31876
0
LINE
8
BLACK
6
CONTINUOUS
10
0.176106
20
-0.31876
11
0.173232
21
-0.32068
0
LINE
8
BLACK
6
CONTINUOUS
10
0.173232
20
-0.32068
11
0.169843
21
-0.321354
0
LINE
8
BLACK
6
CONTINUOUS
10
0.169843
20
-0.321354
11
0.150157
21
-0.321354
0
LINE
8
BLACK
6
CONTINUOUS
10
0.150157
20
-0.321354
11
0.146768
21
-0.32068
0
LINE
8
BLACK
6
CONTINUOUS
10
0.146768
20
-0.32068
11
0.143894
21
-0.31876
0
LINE
8
BLACK
6
CONTINUOUS
10
0.143894
20
-0.31876
11
0.141974
21
-0.315886
0
LINE
8
BLACK
6
CONTINUOUS
10
0.141974
20
-0.315886
11
0.141299
21
-0.312496
0
LINE
8
BLACK
6
CONTINUOUS
10
0.141299
20
-0.312496
11
0.141299
21
-0.29478
0
LINE
8
BLACK
6
CONTINUOUS
10
0.141299
20
-0.29478
11
0.141974
21
-0.29139
0
LINE
8
BLACK
6
CONTINUOUS
10
0.141974
20
-0.29139
11
0.143894
21
-0.288516
0
LINE
8
BLACK
6
CONTINUOUS
10
0.143894
20
-0.288516
11
0.146768
21
-0.286596
0
LINE
8
BLACK
6
CONTINUOUS
10
0.146768
20
-0.286596
11
0.150157
21
-0.285921
0
LINE
8
BLACK
6
CONTINUOUS
10
0.150157
20
-0.285921
11
0.169843
21
-0.285921
0
LINE
8
BLACK
6
CONTINUOUS
10
0.169843
20
-0.285921
11
0.173232
21
-0.286596
0
LINE
8
BLACK
6
CONTINUOUS
10
0.313465
20
-0.320311
11
0.297717
21
-0.320311
0
LINE
8
BLACK
6
CONTINUOUS
10
0.297717
20
-0.320311
11
0.297717
21
-0.294721
0
LINE
8
BLACK
6
CONTINUOUS
10
0.297717
20
-0.294721
11
0.313465
21
-0.294721
0
LINE
8
BLACK
6
CONTINUOUS
10
0.313465
20
-0.294721
11
0.313465
21
-0.320311
0
LINE
8
BLACK
6
CONTINUOUS
10
0.262283
20
-0.320311
11
0.246535
21
-0.320311
0
LINE
8
BLACK
6
CONTINUOUS
10
0.246535
20
-0.320311
11
0.246535
21
-0.294721
0
LINE
8
BLACK
6
CONTINUOUS
10
0.246535
20
-0.294721
11
0.262283
21
-0.294721
0
LINE
8
BLACK
6
CONTINUOUS
10
0.262283
20
-0.294721
11
0.262283
21
-0.320311
0
LINE
8
BLACK
6
CONTINUOUS
10
-0.449606
20
-0.319528
11
-0.508661
21
-0.319528
0
LINE
8
BLACK
6
CONTINUOUS
10
-0.508661
20
-0.319528
11
-0.508661
21
-0.260472
0
LINE
8
BLACK
6
CONTINUOUS
10
-0.508661
20
-0.260472
11
-0.449606
21
-0.260472
0
LINE
8
BLACK
6
CONTINUOUS
10
-0.449606
20
-0.260472
11
-0.449606
21
-0.319528
0
LINE
8
BLACK
6
CONTINUOUS
10
-0.301575
20
-0.319528
11
-0.36063
21
-0.319528
0
LINE
8
BLACK
6
CONTINUOUS
10
-0.36063
20
-0.319528
11
-0.36063
21
-0.260472
0
LINE
8
BLACK
6
CONTINUOUS
10
-0.36063
20
-0.260472
11
-0.301575
21
-0.260472
0
LINE
8
BLACK
6
CONTINUOUS
10
-0.301575
20
-0.260472
11
-0.301575
21
-0.319528
0
LINE
8
BLACK
6
CONTINUOUS
10
-0.0559055
20
-0.312992
11
-0.114961
21
-0.312992
0
LINE
8
BLACK
6
CONTINUOUS
10
-0.114961
20
-0.312992
11
-0.114961
21
-0.253937
0
LINE
8
BLACK
6
CONTINUOUS
10
-0.114961
20
-0.253937
11
-0.0559055
21
-0.253937
0
LINE
8
BLACK
6
CONTINUOUS
10
-0.0559055
20
-0.253937
11
-0.0559055
21
-0.312992
0
LINE
8
BLACK
6
CONTINUOUS
10
0.092126
20
-0.312992
11
0.0330709
21
-0.312992
0
LINE
8
BLACK
6
CONTINUOUS
10
0.0330709
20
-0.312992
11
0.0330709
21
-0.253937
0
LINE
8
BLACK
6
CONTINUOUS
10
0.0330709
20
-0.253937
11
0.092126
21
-0.253937
0
LINE
8
BLACK
6
CONTINUOUS
10
0.092126
20
-0.253937
11
0.092126
21
-0.312992
0
LINE
8
BLACK
6
CONTINUOUS
10
-0.623252
20
-0.25021
11
-0.621336
21
-0.25149
0
LINE
8
BLACK
6
CONTINUOUS
10
-0.621336
20
-0.25149
11
-0.620056
21
-0.253406
0
LINE
8
BLACK
6
CONTINUOUS
10
-0.620056
20
-0.253406
11
-0.619606
21
-0.255666
0
LINE
8
BLACK
6
CONTINUOUS
10
-0.619606
20
-0.255666
11
-0.619606
21
-0.267477
0
LINE
8
BLACK
6
CONTINUOUS
10
-0.619606
20
-0.267477
11
-0.620056
21
-0.269736
0
LINE
8
BLACK
6
CONTINUOUS
10
-0.620056
20
-0.269736
11
-0.621336
21
-0.271652
0
LINE
8
BLACK
6
CONTINUOUS
10
-0.621336
20
-0.271652
11
-0.623252
21
-0.272933
0
LINE
8
BLACK
6
CONTINUOUS
10
-0.623252
20
-0.272933
11
-0.625512
21
-0.273382
0
LINE
8
BLACK
6
CONTINUOUS
10
-0.625512
20
-0.273382
11
-0.68063
21
-0.273382
0
LINE
8
BLACK
6
CONTINUOUS
10
-0.68063
20
-0.273382
11
-0.68289
21
-0.272933
0
LINE
8
BLACK
6
CONTINUOUS
10
-0.68289
20
-0.272933
11
-0.684806
21
-0.271652
0
LINE
8
BLACK
6
CONTINUOUS
10
-0.684806
20
-0.271652
11
-0.686086
21
-0.269736
0
LINE
8
BLACK
6
CONTINUOUS
10
-0.686086
20
-0.269736
11
-0.686535
21
-0.267477
0
LINE
8
BLACK
6
CONTINUOUS
10
-0.686535
20
-0.267477
11
-0.686535
21
-0.255666
0
LINE
8
BLACK
6
CONTINUOUS
10
-0.686535
20
-0.255666
11
-0.686086
21
-0.253406
0
LINE
8
BLACK
6
CONTINUOUS
10
-0.686086
20
-0.253406
11
-0.684806
21
-0.25149
0
LINE
8
BLACK
6
CONTINUOUS
10
-0.684806
20
-0.25149
11
-0.68289
21
-0.25021
0
LINE
8
BLACK
6
CONTINUOUS
10
-0.68289
20
-0.25021
11
-0.68063
21
-0.24976
0
LINE
8
BLACK
6
CONTINUOUS
10
-0.68063
20
-0.24976
11
-0.625512
21
-0.24976
0
LINE
8
BLACK
6
CONTINUOUS
10
-0.625512
20
-0.24976
11
-0.623252
21
-0.25021
0
LINE
8
BLACK
6
CONTINUOUS
10
-0.194506
20
-0.241737
11
-0.191952
21
-0.243444
0
LINE
8
BLACK
6
CONTINUOUS
10
-0.191952
20
-0.243444
11
-0.190245
21
-0.245999
0
LINE
8
BLACK
6
CONTINUOUS
10
-0.190245
20
-0.245999
11
-0.189646
21
-0.249012
0
LINE
8
BLACK
6
CONTINUOUS
10
-0.189646
20
-0.249012
11
-0.189646
21
-0.26476
0
LINE
8
BLACK
6
CONTINUOUS
10
-0.189646
20
-0.26476
11
-0.190245
21
-0.267773
0
LINE
8
BLACK
6
CONTINUOUS
10
-0.190245
20
-0.267773
11
-0.191952
21
-0.270328
0
LINE
8
BLACK
6
CONTINUOUS
10
-0.191952
20
-0.270328
11
-0.194506
21
-0.272035
0
LINE
8
BLACK
6
CONTINUOUS
10
-0.194506
20
-0.272035
11
-0.19752
21
-0.272634
0
LINE
8
BLACK
6
CONTINUOUS
10
-0.19752
20
-0.272634
11
-0.219173
21
-0.272634
0
LINE
8
BLACK
6
CONTINUOUS
10
-0.219173
20
-0.272634
11
-0.222186
21
-0.272035
0
LINE
8
BLACK
6
CONTINUOUS
10
-0.222186
20
-0.272035
11
-0.224741
21
-0.270328
0
LINE
8
BLACK
6
CONTINUOUS
10
-0.224741
20
-0.270328
11
-0.226448
21
-0.267773
0
LINE
8
BLACK
6
CONTINUOUS
10
-0.226448
20
-0.267773
11
-0.227047
21
-0.26476
0
LINE
8
BLACK
6
CONTINUOUS
10
-0.227047
20
-0.26476
11
-0.227047
21
-0.249012
0
LINE
8
BLACK
6
CONTINUOUS
10
-0.227047
20
-0.249012
11
-0.226448
21
-0.245999
0
LINE
8
BLACK
6
CONTINUOUS
10
-0.226448
20
-0.245999
11
-0.224741
21
-0.243444
0
LINE
8
BLACK
6
CONTINUOUS
10
-0.224741
20
-0.243444
11
-0.222186
21
-0.241737
0
LINE
8
BLACK
6
CONTINUOUS
10
-0.222186
20
-0.241737
11
-0.219173
21
-0.241138
0
LINE
8
BLACK
6
CONTINUOUS
10
-0.219173
20
-0.241138
11
-0.19752
21
-0.241138
0
LINE
8
BLACK
6
CONTINUOUS
10
-0.19752
20
-0.241138
11
-0.194506
21
-0.241737
0
LINE
8
BLACK
6
CONTINUOUS
10
-0.12616
20
-0.241481
11
-0.123605
21
-0.243188
0
LINE
8
BLACK
6
CONTINUOUS
10
-0.123605
20
-0.243188
11
-0.121899
21
-0.245743
0
LINE
8
BLACK
6
CONTINUOUS
10
-0.121899
20
-0.245743
11
-0.121299
21
-0.248756
0
LINE
8
BLACK
6
CONTINUOUS
10
-0.121299
20
-0.248756
11
-0.121299
21
-0.264504
0
LINE
8
BLACK
6
CONTINUOUS
10
-0.121299
20
-0.264504
11
-0.121899
21
-0.267517
0
LINE
8
BLACK
6
CONTINUOUS
10
-0.121899
20
-0.267517
11
-0.123605
21
-0.270072
0
LINE
8
BLACK
6
CONTINUOUS
10
-0.123605
20
-0.270072
11
-0.12616
21
-0.271779
0
LINE
8
BLACK
6
CONTINUOUS
10
-0.12616
20
-0.271779
11
-0.129173
21
-0.272378
0
LINE
8
BLACK
6
CONTINUOUS
10
-0.129173
20
-0.272378
11
-0.150827
21
-0.272378
0
LINE
8
BLACK
6
CONTINUOUS
10
-0.150827
20
-0.272378
11
-0.15384
21
-0.271779
0
LINE
8
BLACK
6
CONTINUOUS
10
-0.15384
20
-0.271779
11
-0.156395
21
-0.270072
0
LINE
8
BLACK
6
CONTINUOUS
10
-0.156395
20
-0.270072
11
-0.158101
21
-0.267517
0
LINE
8
BLACK
6
CONTINUOUS
10
-0.158101
20
-0.267517
11
-0.158701
21
-0.264504
0
LINE
8
BLACK
6
CONTINUOUS
10
-0.158701
20
-0.264504
11
-0.158701
21
-0.248756
0
LINE
8
BLACK
6
CONTINUOUS
10
-0.158701
20
-0.248756
11
-0.158101
21
-0.245743
0
LINE
8
BLACK
6
CONTINUOUS
10
-0.158101
20
-0.245743
11
-0.156395
21
-0.243188
0
LINE
8
BLACK
6
CONTINUOUS
10
-0.156395
20
-0.243188
11
-0.15384
21
-0.241481
0
LINE
8
BLACK
6
CONTINUOUS
10
-0.15384
20
-0.241481
11
-0.150827
21
-0.240882
0
LINE
8
BLACK
6
CONTINUOUS
10
-0.150827
20
-0.240882
11
-0.129173
21
-0.240882
0
LINE
8
BLACK
6
CONTINUOUS
10
-0.129173
20
-0.240882
11
-0.12616
21
-0.241481
0
LINE
8
BLACK
6
CONTINUOUS
10
0.173232
20
-0.225572
11
0.176106
21
-0.227492
0
LINE
8
BLACK
6
CONTINUOUS
10
0.176106
20
-0.227492
11
0.178026
21
-0.230366
0
LINE
8
BLACK
6
CONTINUOUS
10
0.178026
20
-0.230366
11
0.178701
21
-0.233756
0
LINE
8
BLACK
6
CONTINUOUS
10
0.178701
20
-0.233756
11
0.178701
21
-0.251473
0
LINE
8
BLACK
6
CONTINUOUS
10
0.178701
20
-0.251473
11
0.178026
21
-0.254863
0
LINE
8
BLACK
6
CONTINUOUS
10
0.178026
20
-0.254863
11
0.176106
21
-0.257736
0
LINE
8
BLACK
6
CONTINUOUS
10
0.176106
20
-0.257736
11
0.173232
21
-0.259657
0
LINE
8
BLACK
6
CONTINUOUS
10
0.173232
20
-0.259657
11
0.169843
21
-0.260331
0
LINE
8
BLACK
6
CONTINUOUS
10
0.169843
20
-0.260331
11
0.150157
21
-0.260331
0
LINE
8
BLACK
6
CONTINUOUS
10
0.150157
20
-0.260331
11
0.146768
21
-0.259657
0
LINE
8
BLACK
6
CONTINUOUS
10
0.146768
20
-0.259657
11
0.143894
21
-0.257736
0
LINE
8
BLACK
6
CONTINUOUS
10
0.143894
20
-0.257736
11
0.141974
21
-0.254863
0
LINE
8
BLACK
6
CONTINUOUS
10
0.141974
20
-0.254863
11
0.141299
21
-0.251473
0
LINE
8
BLACK
6
CONTINUOUS
10
0.141299
20
-0.251473
11
0.141299
21
-0.233756
0
LINE
8
BLACK
6
CONTINUOUS
10
0.141299
20
-0.233756
11
0.141974
21
-0.230366
0
LINE
8
BLACK
6
CONTINUOUS
10
0.141974
20
-0.230366
11
0.143894
21
-0.227492
0
LINE
8
BLACK
6
CONTINUOUS
10
0.143894
20
-0.227492
11
0.146768
21
-0.225572
0
LINE
8
BLACK
6
CONTINUOUS
10
0.146768
20
-0.225572
11
0.150157
21
-0.224898
0
LINE
8
BLACK
6
CONTINUOUS
10
0.150157
20
-0.224898
11
0.169843
21
-0.224898
0
LINE
8
BLACK
6
CONTINUOUS
10
0.169843
20
-0.224898
11
0.173232
21
-0.225572
0
LINE
8
BLACK
6
CONTINUOUS
10
0.313465
20
-0.245508
11
0.297717
21
-0.245508
0
LINE
8
BLACK
6
CONTINUOUS
10
0.297717
20
-0.245508
11
0.297717
21
-0.219917
0
LINE
8
BLACK
6
CONTINUOUS
10
0.297717
20
-0.219917
11
0.313465
21
-0.219917
0
LINE
8
BLACK
6
CONTINUOUS
10
0.313465
20
-0.219917
11
0.313465
21
-0.245508
0
LINE
8
BLACK
6
CONTINUOUS
10
0.287874
20
-0.245508
11
0.272126
21
-0.245508
0
LINE
8
BLACK
6
CONTINUOUS
10
0.272126
20
-0.245508
11
0.272126
21
-0.219917
0
LINE
8
BLACK
6
CONTINUOUS
10
0.272126
20
-0.219917
11
0.287874
21
-0.219917
0
LINE
8
BLACK
6
CONTINUOUS
10
0.287874
20
-0.219917
11
0.287874
21
-0.245508
0
LINE
8
BLACK
6
CONTINUOUS
10
0.262283
20
-0.245508
11
0.246535
21
-0.245508
0
LINE
8
BLACK
6
CONTINUOUS
10
0.246535
20
-0.245508
11
0.246535
21
-0.219917
0
LINE
8
BLACK
6
CONTINUOUS
10
0.246535
20
-0.219917
11
0.262283
21
-0.219917
0
LINE
8
BLACK
6
CONTINUOUS
10
0.262283
20
-0.219917
11
0.262283
21
-0.245508
0
LINE
8
BLACK
6
CONTINUOUS
10
-0.437597
20
-0.123461
11
-0.433458
21
-0.12529
0
LINE
8
BLACK
6
CONTINUOUS
10
-0.433458
20
-0.12529
11
-0.430136
21
-0.128362
0
LINE
8
BLACK
6
CONTINUOUS
10
-0.430136
20
-0.128362
11
-0.427987
21
-0.132344
0
LINE
8
BLACK
6
CONTINUOUS
10
-0.427987
20
-0.132344
11
-0.427244
21
-0.136807
0
LINE
8
BLACK
6
CONTINUOUS
10
-0.427244
20
-0.136807
11
-0.427244
21
-0.21161
0
LINE
8
BLACK
6
CONTINUOUS
10
-0.427244
20
-0.21161
11
-0.427449
21
-0.213979
0
LINE
8
BLACK
6
CONTINUOUS
10
-0.427449
20
-0.213979
11
-0.428949
21
-0.218249
0
LINE
8
BLACK
6
CONTINUOUS
10
-0.428949
20
-0.218249
11
-0.43175
21
-0.221802
0
LINE
8
BLACK
6
CONTINUOUS
10
-0.43175
20
-0.221802
11
-0.435551
21
-0.224257
0
LINE
8
BLACK
6
CONTINUOUS
10
-0.435551
20
-0.224257
11
-0.439942
21
-0.225347
0
LINE
8
BLACK
6
CONTINUOUS
10
-0.439942
20
-0.225347
11
-0.44445
21
-0.224957
0
LINE
8
BLACK
6
CONTINUOUS
10
-0.44445
20
-0.224957
11
-0.448589
21
-0.223127
0
LINE
8
BLACK
6
CONTINUOUS
10
-0.448589
20
-0.223127
11
-0.451912
21
-0.220056
0
LINE
8
BLACK
6
CONTINUOUS
10
-0.451912
20
-0.220056
11
-0.45406
21
-0.216074
0
LINE
8
BLACK
6
CONTINUOUS
10
-0.45406
20
-0.216074
11
-0.454803
21
-0.21161
0
LINE
8
BLACK
6
CONTINUOUS
10
-0.454803
20
-0.21161
11
-0.454803
21
-0.136807
0
LINE
8
BLACK
6
CONTINUOUS
10
-0.454803
20
-0.136807
11
-0.454598
21
-0.134438
0
LINE
8
BLACK
6
CONTINUOUS
10
-0.454598
20
-0.134438
11
-0.453099
21
-0.130169
0
LINE
8
BLACK
6
CONTINUOUS
10
-0.453099
20
-0.130169
11
-0.450297
21
-0.126615
0
LINE
8
BLACK
6
CONTINUOUS
10
-0.450297
20
-0.126615
11
-0.446496
21
-0.124161
0
LINE
8
BLACK
6
CONTINUOUS
10
-0.446496
20
-0.124161
11
-0.442105
21
-0.12307
0
LINE
8
BLACK
6
CONTINUOUS
10
-0.442105
20
-0.12307
11
-0.437597
21
-0.123461
0
LINE
8
BLACK
6
CONTINUOUS
10
-0.3874
20
-0.123461
11
-0.383261
21
-0.12529
0
LINE
8
BLACK
6
CONTINUOUS
10
-0.383261
20
-0.12529
11
-0.379939
21
-0.128362
0
LINE
8
BLACK
6
CONTINUOUS
10
-0.379939
20
-0.128362
11
-0.37779
21
-0.132344
0
LINE
8
BLACK
6
CONTINUOUS
10
-0.37779
20
-0.132344
11
-0.377047
21
-0.136807
0
LINE
8
BLACK
6
CONTINUOUS
10
-0.377047
20
-0.136807
11
-0.377047
21
-0.21161
0
LINE
8
BLACK
6
CONTINUOUS
10
-0.377047
20
-0.21161
11
-0.377252
21
-0.213979
0
LINE
8
BLACK
6
CONTINUOUS
10
-0.377252
20
-0.213979
11
-0.378752
21
-0.218249
0
LINE
8
BLACK
6
CONTINUOUS
10
-0.378752
20
-0.218249
11
-0.381553
21
-0.221802
0
LINE
8
BLACK
6
CONTINUOUS
10
-0.381553
20
-0.221802
11
-0.385354
21
-0.224257
0
LINE
8
BLACK
6
CONTINUOUS
10
-0.385354
20
-0.224257
11
-0.389746
21
-0.225347
0
LINE
8
BLACK
6
CONTINUOUS
10
-0.389746
20
-0.225347
11
-0.394254
21
-0.224957
0
LINE
8
BLACK
6
CONTINUOUS
10
-0.394254
20
-0.224957
11
-0.398392
21
-0.223127
0
LINE
8
BLACK
6
CONTINUOUS
10
-0.398392
20
-0.223127
11
-0.401715
21
-0.220056
0
LINE
8
BLACK
6
CONTINUOUS
10
-0.401715
20
-0.220056
11
-0.403863
21
-0.216074
0
LINE
8
BLACK
6
CONTINUOUS
10
-0.403863
20
-0.216074
11
-0.404606
21
-0.21161
0
LINE
8
BLACK
6
CONTINUOUS
10
-0.404606
20
-0.21161
11
-0.404606
21
-0.136807
0
LINE
8
BLACK
6
CONTINUOUS
10
-0.404606
20
-0.136807
11
-0.404401
21
-0.134438
0
LINE
8
BLACK
6
CONTINUOUS
10
-0.404401
20
-0.134438
11
-0.402902
21
-0.130169
0
LINE
8
BLACK
6
CONTINUOUS
10
-0.402902
20
-0.130169
11
-0.400101
21
-0.126615
0
LINE
8
BLACK
6
CONTINUOUS
10
-0.400101
20
-0.126615
11
-0.396299
21
-0.124161
0
LINE
8
BLACK
6
CONTINUOUS
10
-0.396299
20
-0.124161
11
-0.391908
21
-0.12307
0
LINE
8
BLACK
6
CONTINUOUS
10
-0.391908
20
-0.12307
11
-0.3874
21
-0.123461
0
LINE
8
BLACK
6
CONTINUOUS
10
-0.3374
20
-0.123461
11
-0.333261
21
-0.12529
0
LINE
8
BLACK
6
CONTINUOUS
10
-0.333261
20
-0.12529
11
-0.329939
21
-0.128362
0
LINE
8
BLACK
6
CONTINUOUS
10
-0.329939
20
-0.128362
11
-0.32779
21
-0.132344
0
LINE
8
BLACK
6
CONTINUOUS
10
-0.32779
20
-0.132344
11
-0.327047
21
-0.136807
0
LINE
8
BLACK
6
CONTINUOUS
10
-0.327047
20
-0.136807
11
-0.327047
21
-0.21161
0
LINE
8
BLACK
6
CONTINUOUS
10
-0.327047
20
-0.21161
11
-0.327252
21
-0.213979
0
LINE
8
BLACK
6
CONTINUOUS
10
-0.327252
20
-0.213979
11
-0.328752
21
-0.218249
0
LINE
8
BLACK
6
CONTINUOUS
10
-0.328752
20
-0.218249
11
-0.331553
21
-0.221802
0
LINE
8
BLACK
6
CONTINUOUS
10
-0.331553
20
-0.221802
11
-0.335354
21
-0.224257
0
LINE
8
BLACK
6
CONTINUOUS
10
-0.335354
20
-0.224257
11
-0.339746
21
-0.225347
0
LINE
8
BLACK
6
CONTINUOUS
10
-0.339746
20
-0.225347
11
-0.344254
21
-0.224957
0
LINE
8
BLACK
6
CONTINUOUS
10
-0.344254
20
-0.224957
11
-0.348392
21
-0.223127
0
LINE
8
BLACK
6
CONTINUOUS
10
-0.348392
20
-0.223127
11
-0.351715
21
-0.220056
0
LINE
8
BLACK
6
CONTINUOUS
10
-0.351715
20
-0.220056
11
-0.353863
21
-0.216074
0
LINE
8
BLACK
6
CONTINUOUS
10
-0.353863
20
-0.216074
11
-0.354606
21
-0.21161
0
LINE
8
BLACK
6
CONTINUOUS
10
-0.354606
20
-0.21161
11
-0.354606
21
-0.136807
0
LINE
8
BLACK
6
CONTINUOUS
10
-0.354606
20
-0.136807
11
-0.354401
21
-0.134438
0
LINE
8
BLACK
6
CONTINUOUS
10
-0.354401
20
-0.134438
11
-0.352902
21
-0.130169
0
LINE
8
BLACK
6
CONTINUOUS
10
-0.352902
20
-0.130169
11
-0.350101
21
-0.126615
0
LINE
8
BLACK
6
CONTINUOUS
10
-0.350101
20
-0.126615
11
-0.346299
21
-0.124161
0
LINE
8
BLACK
6
CONTINUOUS
10
-0.346299
20
-0.124161
11
-0.341908
21
-0.12307
0
LINE
8
BLACK
6
CONTINUOUS
10
-0.341908
20
-0.12307
11
-0.3374
21
-0.123461
0
LINE
8
BLACK
6
CONTINUOUS
10
-0.2874
20
-0.123461
11
-0.283261
21
-0.12529
0
LINE
8
BLACK
6
CONTINUOUS
10
-0.283261
20
-0.12529
11
-0.279939
21
-0.128362
0
LINE
8
BLACK
6
CONTINUOUS
10
-0.279939
20
-0.128362
11
-0.27779
21
-0.132344
0
LINE
8
BLACK
6
CONTINUOUS
10
-0.27779
20
-0.132344
11
-0.277047
21
-0.136807
0
LINE
8
BLACK
6
CONTINUOUS
10
-0.277047
20
-0.136807
11
-0.277047
21
-0.21161
0
LINE
8
BLACK
6
CONTINUOUS
10
-0.277047
20
-0.21161
11
-0.277252
21
-0.213979
0
LINE
8
BLACK
6
CONTINUOUS
10
-0.277252
20
-0.213979
11
-0.278752
21
-0.218249
0
LINE
8
BLACK
6
CONTINUOUS
10
-0.278752
20
-0.218249
11
-0.281553
21
-0.221802
0
LINE
8
BLACK
6
CONTINUOUS
10
-0.281553
20
-0.221802
11
-0.285354
21
-0.224257
0
LINE
8
BLACK
6
CONTINUOUS
10
-0.285354
20
-0.224257
11
-0.289746
21
-0.225347
0
LINE
8
BLACK
6
CONTINUOUS
10
-0.289746
20
-0.225347
11
-0.294254
21
-0.224957
0
LINE
8
BLACK
6
CONTINUOUS
10
-0.294254
20
-0.224957
11
-0.298392
21
-0.223127
0
LINE
8
BLACK
6
CONTINUOUS
10
-0.298392
20
-0.223127
11
-0.301715
21
-0.220056
0
LINE
8
BLACK
6
CONTINUOUS
10
-0.301715
20
-0.220056
11
-0.303863
21
-0.216074
0
LINE
8
BLACK
6
CONTINUOUS
10
-0.303863
20
-0.216074
11
-0.304606
21
-0.21161
0
LINE
8
BLACK
6
CONTINUOUS
10
-0.304606
20
-0.21161
11
-0.304606
21
-0.136807
0
LINE
8
BLACK
6
CONTINUOUS
10
-0.304606
20
-0.136807
11
-0.304401
21
-0.134438
0
LINE
8
BLACK
6
CONTINUOUS
10
-0.304401
20
-0.134438
11
-0.302902
21
-0.130169
0
LINE
8
BLACK
6
CONTINUOUS
10
-0.302902
20
-0.130169
11
-0.300101
21
-0.126615
0
LINE
8
BLACK
6
CONTINUOUS
10
-0.300101
20
-0.126615
11
-0.296299
21
-0.124161
0
LINE
8
BLACK
6
CONTINUOUS
10
-0.296299
20
-0.124161
11
-0.291908
21
-0.12307
0
LINE
8
BLACK
6
CONTINUOUS
10
-0.291908
20
-0.12307
11
-0.2874
21
-0.123461
0
LINE
8
BLACK
6
CONTINUOUS
10
-0.623252
20
-0.200997
11
-0.621336
21
-0.202277
0
LINE
8
BLACK
6
CONTINUOUS
10
-0.621336
20
-0.202277
11
-0.620056
21
-0.204193
0
LINE
8
BLACK
6
CONTINUOUS
10
-0.620056
20
-0.204193
11
-0.619606
21
-0.206453
0
LINE
8
BLACK
6
CONTINUOUS
10
-0.619606
20
-0.206453
11
-0.619606
21
-0.218264
0
LINE
8
BLACK
6
CONTINUOUS
10
-0.619606
20
-0.218264
11
-0.620056
21
-0.220524
0
LINE
8
BLACK
6
CONTINUOUS
10
-0.620056
20
-0.220524
11
-0.621336
21
-0.22244
0
LINE
8
BLACK
6
CONTINUOUS
10
-0.621336
20
-0.22244
11
-0.623252
21
-0.22372
0
LINE
8
BLACK
6
CONTINUOUS
10
-0.623252
20
-0.22372
11
-0.625512
21
-0.224169
0
LINE
8
BLACK
6
CONTINUOUS
10
-0.625512
20
-0.224169
11
-0.68063
21
-0.224169
0
LINE
8
BLACK
6
CONTINUOUS
10
-0.68063
20
-0.224169
11
-0.68289
21
-0.22372
0
LINE
8
BLACK
6
CONTINUOUS
10
-0.68289
20
-0.22372
11
-0.684806
21
-0.22244
0
LINE
8
BLACK
6
CONTINUOUS
10
-0.684806
20
-0.22244
11
-0.686086
21
-0.220524
0
LINE
8
BLACK
6
CONTINUOUS
10
-0.686086
20
-0.220524
11
-0.686535
21
-0.218264
0
LINE
8
BLACK
6
CONTINUOUS
10
-0.686535
20
-0.218264
11
-0.686535
21
-0.206453
0
LINE
8
BLACK
6
CONTINUOUS
10
-0.686535
20
-0.206453
11
-0.686086
21
-0.204193
0
LINE
8
BLACK
6
CONTINUOUS
10
-0.686086
20
-0.204193
11
-0.684806
21
-0.202277
0
LINE
8
BLACK
6
CONTINUOUS
10
-0.684806
20
-0.202277
11
-0.68289
21
-0.200997
0
LINE
8
BLACK
6
CONTINUOUS
10
-0.68289
20
-0.200997
11
-0.68063
21
-0.200547
0
LINE
8
BLACK
6
CONTINUOUS
10
-0.68063
20
-0.200547
11
-0.625512
21
-0.200547
0
LINE
8
BLACK
6
CONTINUOUS
10
-0.625512
20
-0.200547
11
-0.623252
21
-0.200997
0
LINE
8
BLACK
6
CONTINUOUS
10
-0.0882677
20
-0.195567
11
-0.127638
21
-0.195567
0
LINE
8
BLACK
6
CONTINUOUS
10
-0.127638
20
-0.195567
11
-0.127638
21
-0.136512
0
LINE
8
BLACK
6
CONTINUOUS
10
-0.127638
20
-0.136512
11
-0.0882677
21
-0.136512
0
LINE
8
BLACK
6
CONTINUOUS
10
-0.0882677
20
-0.136512
11
-0.0882677
21
-0.195567
0
LINE
8
BLACK
6
CONTINUOUS
10
-0.0567717
20
-0.13671
11
-0.053862
21
-0.136728
0
LINE
8
BLACK
6
CONTINUOUS
10
-0.053862
20
-0.136728
11
-0.0485147
21
-0.138327
0
LINE
8
BLACK
6
CONTINUOUS
10
-0.0485147
20
-0.138327
11
-0.0438312
21
-0.141363
0
LINE
8
BLACK
6
CONTINUOUS
10
-0.0438312
20
-0.141363
11
-0.040188
21
-0.145591
0
LINE
8
BLACK
6
CONTINUOUS
10
-0.040188
20
-0.145591
11
-0.0378778
21
-0.150672
0
LINE
8
BLACK
6
CONTINUOUS
10
-0.0378778
20
-0.150672
11
-0.0370866
21
-0.156197
0
LINE
8
BLACK
6
CONTINUOUS
10
-0.0370866
20
-0.156197
11
-0.0370866
21
-0.175882
0
LINE
8
BLACK
6
CONTINUOUS
10
-0.0370866
20
-0.175882
11
-0.0370925
21
-0.176363
0
LINE
8
BLACK
6
CONTINUOUS
10
-0.0370925
20
-0.176363
11
-0.0380185
21
-0.181867
0
LINE
8
BLACK
6
CONTINUOUS
10
-0.0380185
20
-0.181867
11
-0.040452
21
-0.18689
0
LINE
8
BLACK
6
CONTINUOUS
10
-0.040452
20
-0.18689
11
-0.0441975
21
-0.191028
0
LINE
8
BLACK
6
CONTINUOUS
10
-0.0441975
20
-0.191028
11
-0.0489538
21
-0.193948
0
LINE
8
BLACK
6
CONTINUOUS
10
-0.0489538
20
-0.193948
11
-0.0543385
21
-0.195416
0
LINE
8
BLACK
6
CONTINUOUS
10
-0.0543385
20
-0.195416
11
-0.0567717
21
-0.195372
0
LINE
8
BLACK
6
CONTINUOUS
10
-0.0567717
20
-0.195372
11
-0.0567717
21
-0.195567
0
LINE
8
BLACK
6
CONTINUOUS
10
-0.0567717
20
-0.195567
11
-0.0784252
21
-0.195567
0
LINE
8
BLACK
6
CONTINUOUS
10
-0.0784252
20
-0.195567
11
-0.0784252
21
-0.136512
0
LINE
8
BLACK
6
CONTINUOUS
10
-0.0784252
20
-0.136512
11
-0.0567717
21
-0.136512
0
LINE
8
BLACK
6
CONTINUOUS
10
-0.0567717
20
-0.136512
11
-0.0567717
21
-0.13671
0
LINE
8
BLACK
6
CONTINUOUS
10
-0.13748
20
-0.195567
11
-0.159134
21
-0.195567
0
LINE
8
BLACK
6
CONTINUOUS
10
-0.159134
20
-0.195567
11
-0.159134
21
-0.195372
0
LINE
8
BLACK
6
CONTINUOUS
10
-0.159134
20
-0.195372
11
-0.162281
21
-0.195314
0
LINE
8
BLACK
6
CONTINUOUS
10
-0.162281
20
-0.195314
11
-0.167609
21
-0.193649
0
LINE
8
BLACK
6
CONTINUOUS
10
-0.167609
20
-0.193649
11
-0.172255
21
-0.190557
0
LINE
8
BLACK
6
CONTINUOUS
10
-0.172255
20
-0.190557
11
-0.175846
21
-0.186284
0
LINE
8
BLACK
6
CONTINUOUS
10
-0.175846
20
-0.186284
11
-0.178094
21
-0.181176
0
LINE
8
BLACK
6
CONTINUOUS
10
-0.178094
20
-0.181176
11
-0.178786
21
-0.175882
0
LINE
8
BLACK
6
CONTINUOUS
10
-0.178786
20
-0.175882
11
-0.178819
21
-0.175882
0
LINE
8
BLACK
6
CONTINUOUS
10
-0.178819
20
-0.175882
11
-0.178819
21
-0.156197
0
LINE
8
BLACK
6
CONTINUOUS
10
-0.178819
20
-0.156197
11
-0.178786
21
-0.156197
0
LINE
8
BLACK
6
CONTINUOUS
10
-0.178786
20
-0.156197
11
-0.178817
21
-0.155956
0
LINE
8
BLACK
6
CONTINUOUS
10
-0.178817
20
-0.155956
11
-0.177959
21
-0.150442
0
LINE
8
BLACK
6
CONTINUOUS
10
-0.177959
20
-0.150442
11
-0.175587
21
-0.145389
0
LINE
8
BLACK
6
CONTINUOUS
10
-0.175587
20
-0.145389
11
-0.171892
21
-0.141206
0
LINE
8
BLACK
6
CONTINUOUS
10
-0.171892
20
-0.141206
11
-0.167172
21
-0.138228
0
LINE
8
BLACK
6
CONTINUOUS
10
-0.167172
20
-0.138228
11
-0.161805
21
-0.136694
0
LINE
8
BLACK
6
CONTINUOUS
10
-0.161805
20
-0.136694
11
-0.159134
21
-0.13671
0
LINE
8
BLACK
6
CONTINUOUS
10
-0.159134
20
-0.13671
11
-0.159134
21
-0.136512
0
LINE
8
BLACK
6
CONTINUOUS
10
-0.159134
20
-0.136512
11
-0.13748
21
-0.136512
0
LINE
8
BLACK
6
CONTINUOUS
10
-0.13748
20
-0.136512
11
-0.13748
21
-0.195567
0
LINE
8
BLACK
6
CONTINUOUS
10
-0.623252
20
-0.151784
11
-0.621336
21
-0.153064
0
LINE
8
BLACK
6
CONTINUOUS
10
-0.621336
20
-0.153064
11
-0.620056
21
-0.15498
0
LINE
8
BLACK
6
CONTINUOUS
10
-0.620056
20
-0.15498
11
-0.619606
21
-0.15724
0
LINE
8
BLACK
6
CONTINUOUS
10
-0.619606
20
-0.15724
11
-0.619606
21
-0.169051
0
LINE
8
BLACK
6
CONTINUOUS
10
-0.619606
20
-0.169051
11
-0.620056
21
-0.171311
0
LINE
8
BLACK
6
CONTINUOUS
10
-0.620056
20
-0.171311
11
-0.621336
21
-0.173227
0
LINE
8
BLACK
6
CONTINUOUS
10
-0.621336
20
-0.173227
11
-0.623252
21
-0.174507
0
LINE
8
BLACK
6
CONTINUOUS
10
-0.623252
20
-0.174507
11
-0.625512
21
-0.174957
0
LINE
8
BLACK
6
CONTINUOUS
10
-0.625512
20
-0.174957
11
-0.68063
21
-0.174957
0
LINE
8
BLACK
6
CONTINUOUS
10
-0.68063
20
-0.174957
11
-0.68289
21
-0.174507
0
LINE
8
BLACK
6
CONTINUOUS
10
-0.68289
20
-0.174507
11
-0.684806
21
-0.173227
0
LINE
8
BLACK
6
CONTINUOUS
10
-0.684806
20
-0.173227
11
-0.686086
21
-0.171311
0
LINE
8
BLACK
6
CONTINUOUS
10
-0.686086
20
-0.171311
11
-0.686535
21
-0.169051
0
LINE
8
BLACK
6
CONTINUOUS
10
-0.686535
20
-0.169051
11
-0.686535
21
-0.15724
0
LINE
8
BLACK
6
CONTINUOUS
10
-0.686535
20
-0.15724
11
-0.686086
21
-0.15498
0
LINE
8
BLACK
6
CONTINUOUS
10
-0.686086
20
-0.15498
11
-0.684806
21
-0.153064
0
LINE
8
BLACK
6
CONTINUOUS
10
-0.684806
20
-0.153064
11
-0.68289
21
-0.151784
0
LINE
8
BLACK
6
CONTINUOUS
10
-0.68289
20
-0.151784
11
-0.68063
21
-0.151335
0
LINE
8
BLACK
6
CONTINUOUS
10
-0.68063
20
-0.151335
11
-0.625512
21
-0.151335
0
LINE
8
BLACK
6
CONTINUOUS
10
-0.625512
20
-0.151335
11
-0.623252
21
-0.151784
0
LINE
8
BLACK
6
CONTINUOUS
10
0.258465
20
-0.133465
11
0.191535
21
-0.133465
0
LINE
8
BLACK
6
CONTINUOUS
10
0.191535
20
-0.133465
11
0.191535
21
-0.0665354
0
LINE
8
BLACK
6
CONTINUOUS
10
0.191535
20
-0.0665354
11
0.258465
21
-0.0665354
0
LINE
8
BLACK
6
CONTINUOUS
10
0.258465
20
-0.0665354
11
0.258465
21
-0.133465
0
LINE
8
BLACK
6
CONTINUOUS
10
-0.623252
20
-0.102572
11
-0.621336
21
-0.103852
0
LINE
8
BLACK
6
CONTINUOUS
10
-0.621336
20
-0.103852
11
-0.620056
21
-0.105768
0
LINE
8
BLACK
6
CONTINUOUS
10
-0.620056
20
-0.105768
11
-0.619606
21
-0.108028
0
LINE
8
BLACK
6
CONTINUOUS
10
-0.619606
20
-0.108028
11
-0.619606
21
-0.119839
0
LINE
8
BLACK
6
CONTINUOUS
10
-0.619606
20
-0.119839
11
-0.620056
21
-0.122099
0
LINE
8
BLACK
6
CONTINUOUS
10
-0.620056
20
-0.122099
11
-0.621336
21
-0.124015
0
LINE
8
BLACK
6
CONTINUOUS
10
-0.621336
20
-0.124015
11
-0.623252
21
-0.125295
0
LINE
8
BLACK
6
CONTINUOUS
10
-0.623252
20
-0.125295
11
-0.625512
21
-0.125744
0
LINE
8
BLACK
6
CONTINUOUS
10
-0.625512
20
-0.125744
11
-0.68063
21
-0.125744
0
LINE
8
BLACK
6
CONTINUOUS
10
-0.68063
20
-0.125744
11
-0.68289
21
-0.125295
0
LINE
8
BLACK
6
CONTINUOUS
10
-0.68289
20
-0.125295
11
-0.684806
21
-0.124015
0
LINE
8
BLACK
6
CONTINUOUS
10
-0.684806
20
-0.124015
11
-0.686086
21
-0.122099
0
LINE
8
BLACK
6
CONTINUOUS
10
-0.686086
20
-0.122099
11
-0.686535
21
-0.119839
0
LINE
8
BLACK
6
CONTINUOUS
10
-0.686535
20
-0.119839
11
-0.686535
21
-0.108028
0
LINE
8
BLACK
6
CONTINUOUS
10
-0.686535
20
-0.108028
11
-0.686086
21
-0.105768
0
LINE
8
BLACK
6
CONTINUOUS
10
-0.686086
20
-0.105768
11
-0.684806
21
-0.103852
0
LINE
8
BLACK
6
CONTINUOUS
10
-0.684806
20
-0.103852
11
-0.68289
21
-0.102572
0
LINE
8
BLACK
6
CONTINUOUS
10
-0.68289
20
-0.102572
11
-0.68063
21
-0.102122
0
LINE
8
BLACK
6
CONTINUOUS
10
-0.68063
20
-0.102122
11
-0.625512
21
-0.102122
0
LINE
8
BLACK
6
CONTINUOUS
10
-0.625512
20
-0.102122
11
-0.623252
21
-0.102572
0
LINE
8
BLACK
6
CONTINUOUS
10
0.0086502
20
0.117793
11
0.0221317
21
0.116018
0
LINE
8
BLACK
6
CONTINUOUS
10
0.0221317
20
0.116018
11
0.0353198
21
0.112706
0
LINE
8
BLACK
6
CONTINUOUS
10
0.0353198
20
0.112706
11
0.0480398
21
0.107899
0
LINE
8
BLACK
6
CONTINUOUS
10
0.0480398
20
0.107899
11
0.060123
21
0.101662
0
LINE
8
BLACK
6
CONTINUOUS
10
0.060123
20
0.101662
11
0.0714093
21
0.0940783
0
LINE
8
BLACK
6
CONTINUOUS
10
0.0714093
20
0.0940783
11
0.0817492
21
0.0852473
0
LINE
8
BLACK
6
CONTINUOUS
10
0.0817492
20
0.0852473
11
0.0910055
21
0.0752863
0
LINE
8
BLACK
6
CONTINUOUS
10
0.0910055
20
0.0752863
11
0.0990556
21
0.0643274
0
LINE
8
BLACK
6
CONTINUOUS
10
0.0990556
20
0.0643274
11
0.105793
21
0.052516
0
LINE
8
BLACK
6
CONTINUOUS
10
0.105793
20
0.052516
11
0.111128
21
0.0400084
0
LINE
8
BLACK
6
CONTINUOUS
10
0.111128
20
0.0400084
11
0.11499
21
0.0269706
0
LINE
8
BLACK
6
CONTINUOUS
10
0.11499
20
0.0269706
11
0.117327
21
0.0135752
0
LINE
8
BLACK
6
CONTINUOUS
10
0.117327
20
0.0135752
11
0.11811
21
0
0
LINE
8
BLACK
6
CONTINUOUS
10
0.11811
20
0
11
0.117877
21
-0.00741622
0
LINE
8
BLACK
6
CONTINUOUS
10
0.117877
20
-0.00741622
11
0.116244
21
-0.0209155
0
LINE
8
BLACK
6
CONTINUOUS
10
0.116244
20
-0.0209155
11
0.113069
21
-0.0341376
0
LINE
8
BLACK
6
CONTINUOUS
10
0.113069
20
-0.0341376
11
0.108396
21
-0.0469072
0
LINE
8
BLACK
6
CONTINUOUS
10
0.108396
20
-0.0469072
11
0.102286
21
-0.0590551
0
LINE
8
BLACK
6
CONTINUOUS
10
0.102286
20
-0.0590551
11
0.0948209
21
-0.0704203
0
LINE
8
BLACK
6
CONTINUOUS
10
0.0948209
20
-0.0704203
11
0.0860987
21
-0.080852
0
LINE
8
BLACK
6
CONTINUOUS
10
0.0860987
20
-0.080852
11
0.0762352
21
-0.0902121
0
LINE
8
BLACK
6
CONTINUOUS
10
0.0762352
20
-0.0902121
11
0.0653612
21
-0.0983765
0
LINE
8
BLACK
6
CONTINUOUS
10
0.0653612
20
-0.0983765
11
0.0536209
21
-0.105237
0
LINE
8
BLACK
6
CONTINUOUS
10
0.0536209
20
-0.105237
11
0.0411699
21
-0.110703
0
LINE
8
BLACK
6
CONTINUOUS
10
0.0411699
20
-0.110703
11
0.0281732
21
-0.114701
0
LINE
8
BLACK
6
CONTINUOUS
10
0.0281732
20
-0.114701
11
0.0148031
21
-0.117179
0
LINE
8
BLACK
6
CONTINUOUS
10
0.0148031
20
-0.117179
11
0.00123681
21
-0.118104
0
LINE
8
BLACK
6
CONTINUOUS
10
0.00123681
20
-0.118104
11
-0.0123459
21
-0.117463
0
LINE
8
BLACK
6
CONTINUOUS
10
-0.0123459
20
-0.117463
11
-0.025765
21
-0.115266
0
LINE
8
BLACK
6
CONTINUOUS
10
-0.025765
20
-0.115266
11
-0.0388425
21
-0.111541
0
LINE
8
BLACK
6
CONTINUOUS
10
-0.0388425
20
-0.111541
11
-0.0514052
21
-0.106337
0
LINE
8
BLACK
6
CONTINUOUS
10
-0.0514052
20
-0.106337
11
-0.0632866
21
-0.0997238
0
LINE
8
BLACK
6
CONTINUOUS
10
-0.0632866
20
-0.0997238
11
-0.0743292
21
-0.0917889
0
LINE
8
BLACK
6
CONTINUOUS
10
-0.0743292
20
-0.0917889
11
-0.0843865
21
-0.0826374
0
LINE
8
BLACK
6
CONTINUOUS
10
-0.0843865
20
-0.0826374
11
-0.0933254
21
-0.0723906
0
LINE
8
BLACK
6
CONTINUOUS
10
-0.0933254
20
-0.0723906
11
-0.101027
21
-0.0611843
0
LINE
8
BLACK
6
CONTINUOUS
10
-0.101027
20
-0.0611843
11
-0.10739
21
-0.049167
0
LINE
8
BLACK
6
CONTINUOUS
10
-0.10739
20
-0.049167
11
-0.11233
21
-0.0364981
0
LINE
8
BLACK
6
CONTINUOUS
10
-0.11233
20
-0.0364981
11
-0.11578
21
-0.0233454
0
LINE
8
BLACK
6
CONTINUOUS
10
-0.11578
20
-0.0233454
11
-0.117696
21
-0.00988323
0
LINE
8
BLACK
6
CONTINUOUS
10
-0.117696
20
-0.00988323
11
-0.118052
21
0.00370992
0
LINE
8
BLACK
6
CONTINUOUS
10
-0.118052
20
0.00370992
11
-0.116843
21
0.0172539
0
LINE
8
BLACK
6
CONTINUOUS
10
-0.116843
20
0.0172539
11
-0.114086
21
0.0305692
0
LINE
8
BLACK
6
CONTINUOUS
10
-0.114086
20
0.0305692
11
-0.109816
21
0.0434793
0
LINE
8
BLACK
6
CONTINUOUS
10
-0.109816
20
0.0434793
11
-0.104091
21
0.0558131
0
LINE
8
BLACK
6
CONTINUOUS
10
-0.104091
20
0.0558131
11
-0.0969861
21
0.0674071
0
LINE
8
BLACK
6
CONTINUOUS
10
-0.0969861
20
0.0674071
11
-0.0885958
21
0.0781077
0
LINE
8
BLACK
6
CONTINUOUS
10
-0.0885958
20
0.0781077
11
-0.0790312
21
0.087773
0
LINE
8
BLACK
6
CONTINUOUS
10
-0.0790312
20
0.087773
11
-0.0684191
21
0.0962749
0
LINE
8
BLACK
6
CONTINUOUS
10
-0.0684191
20
0.0962749
11
-0.0569
21
0.103501
0
LINE
8
BLACK
6
CONTINUOUS
10
-0.0569
20
0.103501
11
-0.0446269
21
0.109355
0
LINE
8
BLACK
6
CONTINUOUS
10
-0.0446269
20
0.109355
11
-0.0317622
21
0.113759
0
LINE
8
BLACK
6
CONTINUOUS
10
-0.0317622
20
0.113759
11
-0.0184765
21
0.116656
0
LINE
8
BLACK
6
CONTINUOUS
10
-0.0184765
20
0.116656
11
-0.00494594
21
0.118007
0
LINE
8
BLACK
6
CONTINUOUS
10
-0.00494594
20
0.118007
11
0.0086502
21
0.117793
0
LINE
8
BLACK
6
CONTINUOUS
10
-0.731981
20
-0.0221628
11
-0.728788
21
-0.0242963
0
LINE
8
BLACK
6
CONTINUOUS
10
-0.728788
20
-0.0242963
11
-0.726655
21
-0.0274895
0
LINE
8
BLACK
6
CONTINUOUS
10
-0.726655
20
-0.0274895
11
-0.725906
21
-0.0312561
0
LINE
8
BLACK
6
CONTINUOUS
10
-0.725906
20
-0.0312561
11
-0.725906
21
-0.0509411
0
LINE
8
BLACK
6
CONTINUOUS
10
-0.725906
20
-0.0509411
11
-0.726655
21
-0.0547077
0
LINE
8
BLACK
6
CONTINUOUS
10
-0.726655
20
-0.0547077
11
-0.728788
21
-0.0579008
0
LINE
8
BLACK
6
CONTINUOUS
10
-0.728788
20
-0.0579008
11
-0.731981
21
-0.0600344
0
LINE
8
BLACK
6
CONTINUOUS
10
-0.731981
20
-0.0600344
11
-0.735748
21
-0.0607836
0
LINE
8
BLACK
6
CONTINUOUS
10
-0.735748
20
-0.0607836
11
-0.822362
21
-0.0607836
0
LINE
8
BLACK
6
CONTINUOUS
10
-0.822362
20
-0.0607836
11
-0.826129
21
-0.0600344
0
LINE
8
BLACK
6
CONTINUOUS
10
-0.826129
20
-0.0600344
11
-0.829322
21
-0.0579008
0
LINE
8
BLACK
6
CONTINUOUS
10
-0.829322
20
-0.0579008
11
-0.831456
21
-0.0547077
0
LINE
8
BLACK
6
CONTINUOUS
10
-0.831456
20
-0.0547077
11
-0.832205
21
-0.0509411
0
LINE
8
BLACK
6
CONTINUOUS
10
-0.832205
20
-0.0509411
11
-0.832205
21
-0.0312561
0
LINE
8
BLACK
6
CONTINUOUS
10
-0.832205
20
-0.0312561
11
-0.831456
21
-0.0274895
0
LINE
8
BLACK
6
CONTINUOUS
10
-0.831456
20
-0.0274895
11
-0.829322
21
-0.0242963
0
LINE
8
BLACK
6
CONTINUOUS
10
-0.829322
20
-0.0242963
11
-0.826129
21
-0.0221628
0
LINE
8
BLACK
6
CONTINUOUS
10
-0.826129
20
-0.0221628
11
-0.822362
21
-0.0214135
0
LINE
8
BLACK
6
CONTINUOUS
10
-0.822362
20
-0.0214135
11
-0.735748
21
-0.0214135
0
LINE
8
BLACK
6
CONTINUOUS
10
-0.735748
20
-0.0214135
11
-0.731981
21
-0.0221628
0
LINE
8
BLACK
6
CONTINUOUS
10
-0.564646
20
-0.0494844
11
-0.592205
21
-0.0494844
0
LINE
8
BLACK
6
CONTINUOUS
10
-0.592205
20
-0.0494844
11
-0.592205
21
-0.0258624
0
LINE
8
BLACK
6
CONTINUOUS
10
-0.592205
20
-0.0258624
11
-0.564646
21
-0.0258624
0
LINE
8
BLACK
6
CONTINUOUS
10
-0.564646
20
-0.0258624
11
-0.564646
21
-0.0494844
0
LINE
8
BLACK
6
CONTINUOUS
10
0.235341
20
0.0318267
11
0.241732
21
0.0289812
0
LINE
8
BLACK
6
CONTINUOUS
10
0.241732
20
0.0289812
11
0.247392
21
0.024869
0
LINE
8
BLACK
6
CONTINUOUS
10
0.247392
20
0.024869
11
0.252073
21
0.01967
0
LINE
8
BLACK
6
CONTINUOUS
10
0.252073
20
0.01967
11
0.255571
21
0.0136113
0
LINE
8
BLACK
6
CONTINUOUS
10
0.255571
20
0.0136113
11
0.257733
21
0.00695768
0
LINE
8
BLACK
6
CONTINUOUS
10
0.257733
20
0.00695768
11
0.258465
21
0
0
LINE
8
BLACK
6
CONTINUOUS
10
0.258465
20
0
11
0.257733
21
-0.00695768
0
LINE
8
BLACK
6
CONTINUOUS
10
0.257733
20
-0.00695768
11
0.255571
21
-0.0136113
0
LINE
8
BLACK
6
CONTINUOUS
10
0.255571
20
-0.0136113
11
0.252073
21
-0.01967
0
LINE
8
BLACK
6
CONTINUOUS
10
0.252073
20
-0.01967
11
0.247392
21
-0.024869
0
LINE
8
BLACK
6
CONTINUOUS
10
0.247392
20
-0.024869
11
0.241732
21
-0.0289812
0
LINE
8
BLACK
6
CONTINUOUS
10
0.241732
20
-0.0289812
11
0.235341
21
-0.0318267
0
LINE
8
BLACK
6
CONTINUOUS
10
0.235341
20
-0.0318267
11
0.228498
21
-0.0332813
0
LINE
8
BLACK
6
CONTINUOUS
10
0.228498
20
-0.0332813
11
0.221502
21
-0.0332813
0
LINE
8
BLACK
6
CONTINUOUS
10
0.221502
20
-0.0332813
11
0.214659
21
-0.0318267
0
LINE
8
BLACK
6
CONTINUOUS
10
0.214659
20
-0.0318267
11
0.208268
21
-0.0289812
0
LINE
8
BLACK
6
CONTINUOUS
10
0.208268
20
-0.0289812
11
0.202608
21
-0.024869
0
LINE
8
BLACK
6
CONTINUOUS
10
0.202608
20
-0.024869
11
0.197927
21
-0.01967
0
LINE
8
BLACK
6
CONTINUOUS
10
0.197927
20
-0.01967
11
0.194429
21
-0.0136113
0
LINE
8
BLACK
6
CONTINUOUS
10
0.194429
20
-0.0136113
11
0.192267
21
-0.00695768
0
LINE
8
BLACK
6
CONTINUOUS
10
0.192267
20
-0.00695768
11
0.191535
21
0
0
LINE
8
BLACK
6
CONTINUOUS
10
0.191535
20
0
11
0.192267
21
0.00695768
0
LINE
8
BLACK
6
CONTINUOUS
10
0.192267
20
0.00695768
11
0.194429
21
0.0136113
0
LINE
8
BLACK
6
CONTINUOUS
10
0.194429
20
0.0136113
11
0.197927
21
0.01967
0
LINE
8
BLACK
6
CONTINUOUS
10
0.197927
20
0.01967
11
0.202608
21
0.024869
0
LINE
8
BLACK
6
CONTINUOUS
10
0.202608
20
0.024869
11
0.208268
21
0.0289812
0
LINE
8
BLACK
6
CONTINUOUS
10
0.208268
20
0.0289812
11
0.214659
21
0.0318267
0
LINE
8
BLACK
6
CONTINUOUS
10
0.214659
20
0.0318267
11
0.221502
21
0.0332813
0
LINE
8
BLACK
6
CONTINUOUS
10
0.221502
20
0.0332813
11
0.228498
21
0.0332813
0
LINE
8
BLACK
6
CONTINUOUS
10
0.228498
20
0.0332813
11
0.235341
21
0.0318267
0
LINE
8
BLACK
6
CONTINUOUS
10
-0.564646
20
0.0056337
11
-0.592205
21
0.0056337
0
LINE
8
BLACK
6
CONTINUOUS
10
-0.592205
20
0.0056337
11
-0.592205
21
0.0292557
0
LINE
8
BLACK
6
CONTINUOUS
10
-0.592205
20
0.0292557
11
-0.564646
21
0.0292557
0
LINE
8
BLACK
6
CONTINUOUS
10
-0.564646
20
0.0292557
11
-0.564646
21
0.0056337
0
LINE
8
BLACK
6
CONTINUOUS
10
-0.731981
20
0.0614987
11
-0.728788
21
0.0593651
0
LINE
8
BLACK
6
CONTINUOUS
10
-0.728788
20
0.0593651
11
-0.726655
21
0.0561719
0
LINE
8
BLACK
6
CONTINUOUS
10
-0.726655
20
0.0561719
11
-0.725906
21
0.0524054
0
LINE
8
BLACK
6
CONTINUOUS
10
-0.725906
20
0.0524054
11
-0.725906
21
0.0327203
0
LINE
8
BLACK
6
CONTINUOUS
10
-0.725906
20
0.0327203
11
-0.726655
21
0.0289537
0
LINE
8
BLACK
6
CONTINUOUS
10
-0.726655
20
0.0289537
11
-0.728788
21
0.0257606
0
LINE
8
BLACK
6
CONTINUOUS
10
-0.728788
20
0.0257606
11
-0.731981
21
0.023627
0
LINE
8
BLACK
6
CONTINUOUS
10
-0.731981
20
0.023627
11
-0.735748
21
0.0228778
0
LINE
8
BLACK
6
CONTINUOUS
10
-0.735748
20
0.0228778
11
-0.822362
21
0.0228778
0
LINE
8
BLACK
6
CONTINUOUS
10
-0.822362
20
0.0228778
11
-0.826129
21
0.023627
0
LINE
8
BLACK
6
CONTINUOUS
10
-0.826129
20
0.023627
11
-0.829322
21
0.0257606
0
LINE
8
BLACK
6
CONTINUOUS
10
-0.829322
20
0.0257606
11
-0.831456
21
0.0289537
0
LINE
8
BLACK
6
CONTINUOUS
10
-0.831456
20
0.0289537
11
-0.832205
21
0.0327203
0
LINE
8
BLACK
6
CONTINUOUS
10
-0.832205
20
0.0327203
11
-0.832205
21
0.0524054
0
LINE
8
BLACK
6
CONTINUOUS
10
-0.832205
20
0.0524054
11
-0.831456
21
0.0561719
0
LINE
8
BLACK
6
CONTINUOUS
10
-0.831456
20
0.0561719
11
-0.829322
21
0.0593651
0
LINE
8
BLACK
6
CONTINUOUS
10
-0.829322
20
0.0593651
11
-0.826129
21
0.0614987
0
LINE
8
BLACK
6
CONTINUOUS
10
-0.826129
20
0.0614987
11
-0.822362
21
0.0622479
0
LINE
8
BLACK
6
CONTINUOUS
10
-0.822362
20
0.0622479
11
-0.735748
21
0.0622479
0
LINE
8
BLACK
6
CONTINUOUS
10
-0.735748
20
0.0622479
11
-0.731981
21
0.0614987
0
LINE
8
BLACK
6
CONTINUOUS
10
0.235341
20
0.131827
11
0.241732
21
0.128981
0
LINE
8
BLACK
6
CONTINUOUS
10
0.241732
20
0.128981
11
0.247392
21
0.124869
0
LINE
8
BLACK
6
CONTINUOUS
10
0.247392
20
0.124869
11
0.252073
21
0.11967
0
LINE
8
BLACK
6
CONTINUOUS
10
0.252073
20
0.11967
11
0.255571
21
0.113611
0
LINE
8
BLACK
6
CONTINUOUS
10
0.255571
20
0.113611
11
0.257733
21
0.106958
0
LINE
8
BLACK
6
CONTINUOUS
10
0.257733
20
0.106958
11
0.258465
21
0.1
0
LINE
8
BLACK
6
CONTINUOUS
10
0.258465
20
0.1
11
0.257733
21
0.0930423
0
LINE
8
BLACK
6
CONTINUOUS
10
0.257733
20
0.0930423
11
0.255571
21
0.0863887
0
LINE
8
BLACK
6
CONTINUOUS
10
0.255571
20
0.0863887
11
0.252073
21
0.08033
0
LINE
8
BLACK
6
CONTINUOUS
10
0.252073
20
0.08033
11
0.247392
21
0.075131
0
LINE
8
BLACK
6
CONTINUOUS
10
0.247392
20
0.075131
11
0.241732
21
0.0710188
0
LINE
8
BLACK
6
CONTINUOUS
10
0.241732
20
0.0710188
11
0.235341
21
0.0681733
0
LINE
8
BLACK
6
CONTINUOUS
10
0.235341
20
0.0681733
11
0.228498
21
0.0667187
0
LINE
8
BLACK
6
CONTINUOUS
10
0.228498
20
0.0667187
11
0.221502
21
0.0667187
0
LINE
8
BLACK
6
CONTINUOUS
10
0.221502
20
0.0667187
11
0.214659
21
0.0681733
0
LINE
8
BLACK
6
CONTINUOUS
10
0.214659
20
0.0681733
11
0.208268
21
0.0710188
0
LINE
8
BLACK
6
CONTINUOUS
10
0.208268
20
0.0710188
11
0.202608
21
0.075131
0
LINE
8
BLACK
6
CONTINUOUS
10
0.202608
20
0.075131
11
0.197927
21
0.08033
0
LINE
8
BLACK
6
CONTINUOUS
10
0.197927
20
0.08033
11
0.194429
21
0.0863887
0
LINE
8
BLACK
6
CONTINUOUS
10
0.194429
20
0.0863887
11
0.192267
21
0.0930423
0
LINE
8
BLACK
6
CONTINUOUS
10
0.192267
20
0.0930423
11
0.191535
21
0.1
0
LINE
8
BLACK
6
CONTINUOUS
10
0.191535
20
0.1
11
0.192267
21
0.106958
0
LINE
8
BLACK
6
CONTINUOUS
10
0.192267
20
0.106958
11
0.194429
21
0.113611
0
LINE
8
BLACK
6
CONTINUOUS
10
0.194429
20
0.113611
11
0.197927
21
0.11967
0
LINE
8
BLACK
6
CONTINUOUS
10
0.197927
20
0.11967
11
0.202608
21
0.124869
0
LINE
8
BLACK
6
CONTINUOUS
10
0.202608
20
0.124869
11
0.208268
21
0.128981
0
LINE
8
BLACK
6
CONTINUOUS
10
0.208268
20
0.128981
11
0.214659
21
0.131827
0
LINE
8
BLACK
6
CONTINUOUS
10
0.214659
20
0.131827
11
0.221502
21
0.133281
0
LINE
8
BLACK
6
CONTINUOUS
10
0.221502
20
0.133281
11
0.228498
21
0.133281
0
LINE
8
BLACK
6
CONTINUOUS
10
0.228498
20
0.133281
11
0.235341
21
0.131827
0
LINE
8
BLACK
6
CONTINUOUS
10
-0.160764
20
0.106416
11
-0.15789
21
0.104496
0
LINE
8
BLACK
6
CONTINUOUS
10
-0.15789
20
0.104496
11
-0.15597
21
0.101622
0
LINE
8
BLACK
6
CONTINUOUS
10
-0.15597
20
0.101622
11
-0.155295
21
0.0982321
0
LINE
8
BLACK
6
CONTINUOUS
10
-0.155295
20
0.0982321
11
-0.155295
21
0.0805156
0
LINE
8
BLACK
6
CONTINUOUS
10
-0.155295
20
0.0805156
11
-0.15597
21
0.0771257
0
LINE
8
BLACK
6
CONTINUOUS
10
-0.15597
20
0.0771257
11
-0.15789
21
0.0742519
0
LINE
8
BLACK
6
CONTINUOUS
10
-0.15789
20
0.0742519
11
-0.160764
21
0.0723316
0
LINE
8
BLACK
6
CONTINUOUS
10
-0.160764
20
0.0723316
11
-0.164154
21
0.0716573
0
LINE
8
BLACK
6
CONTINUOUS
10
-0.164154
20
0.0716573
11
-0.183839
21
0.0716573
0
LINE
8
BLACK
6
CONTINUOUS
10
-0.183839
20
0.0716573
11
-0.187229
21
0.0723316
0
LINE
8
BLACK
6
CONTINUOUS
10
-0.187229
20
0.0723316
11
-0.190102
21
0.0742519
0
LINE
8
BLACK
6
CONTINUOUS
10
-0.190102
20
0.0742519
11
-0.192023
21
0.0771257
0
LINE
8
BLACK
6
CONTINUOUS
10
-0.192023
20
0.0771257
11
-0.192697
21
0.0805156
0
LINE
8
BLACK
6
CONTINUOUS
10
-0.192697
20
0.0805156
11
-0.192697
21
0.0982321
0
LINE
8
BLACK
6
CONTINUOUS
10
-0.192697
20
0.0982321
11
-0.192023
21
0.101622
0
LINE
8
BLACK
6
CONTINUOUS
10
-0.192023
20
0.101622
11
-0.190102
21
0.104496
0
LINE
8
BLACK
6
CONTINUOUS
10
-0.190102
20
0.104496
11
-0.187229
21
0.106416
0
LINE
8
BLACK
6
CONTINUOUS
10
-0.187229
20
0.106416
11
-0.183839
21
0.10709
0
LINE
8
BLACK
6
CONTINUOUS
10
-0.183839
20
0.10709
11
-0.164154
21
0.10709
0
LINE
8
BLACK
6
CONTINUOUS
10
-0.164154
20
0.10709
11
-0.160764
21
0.106416
0
LINE
8
BLACK
6
CONTINUOUS
10
-0.623252
20
0.126759
11
-0.621336
21
0.125479
0
LINE
8
BLACK
6
CONTINUOUS
10
-0.621336
20
0.125479
11
-0.620056
21
0.123563
0
LINE
8
BLACK
6
CONTINUOUS
10
-0.620056
20
0.123563
11
-0.619606
21
0.121303
0
LINE
8
BLACK
6
CONTINUOUS
10
-0.619606
20
0.121303
11
-0.619606
21
0.109492
0
LINE
8
BLACK
6
CONTINUOUS
10
-0.619606
20
0.109492
11
-0.620056
21
0.107232
0
LINE
8
BLACK
6
CONTINUOUS
10
-0.620056
20
0.107232
11
-0.621336
21
0.105316
0
LINE
8
BLACK
6
CONTINUOUS
10
-0.621336
20
0.105316
11
-0.623252
21
0.104036
0
LINE
8
BLACK
6
CONTINUOUS
10
-0.623252
20
0.104036
11
-0.625512
21
0.103586
0
LINE
8
BLACK
6
CONTINUOUS
10
-0.625512
20
0.103586
11
-0.68063
21
0.103586
0
LINE
8
BLACK
6
CONTINUOUS
10
-0.68063
20
0.103586
11
-0.68289
21
0.104036
0
LINE
8
BLACK
6
CONTINUOUS
10
-0.68289
20
0.104036
11
-0.684806
21
0.105316
0
LINE
8
BLACK
6
CONTINUOUS
10
-0.684806
20
0.105316
11
-0.686086
21
0.107232
0
LINE
8
BLACK
6
CONTINUOUS
10
-0.686086
20
0.107232
11
-0.686535
21
0.109492
0
LINE
8
BLACK
6
CONTINUOUS
10
-0.686535
20
0.109492
11
-0.686535
21
0.121303
0
LINE
8
BLACK
6
CONTINUOUS
10
-0.686535
20
0.121303
11
-0.686086
21
0.123563
0
LINE
8
BLACK
6
CONTINUOUS
10
-0.686086
20
0.123563
11
-0.684806
21
0.125479
0
LINE
8
BLACK
6
CONTINUOUS
10
-0.684806
20
0.125479
11
-0.68289
21
0.126759
0
LINE
8
BLACK
6
CONTINUOUS
10
-0.68289
20
0.126759
11
-0.68063
21
0.127209
0
LINE
8
BLACK
6
CONTINUOUS
10
-0.68063
20
0.127209
11
-0.625512
21
0.127209
0
LINE
8
BLACK
6
CONTINUOUS
10
-0.625512
20
0.127209
11
-0.623252
21
0.126759
0
LINE
8
BLACK
6
CONTINUOUS
10
-0.2874
20
0.222996
11
-0.283261
21
0.221166
0
LINE
8
BLACK
6
CONTINUOUS
10
-0.283261
20
0.221166
11
-0.279939
21
0.218095
0
LINE
8
BLACK
6
CONTINUOUS
10
-0.279939
20
0.218095
11
-0.27779
21
0.214113
0
LINE
8
BLACK
6
CONTINUOUS
10
-0.27779
20
0.214113
11
-0.277047
21
0.209649
0
LINE
8
BLACK
6
CONTINUOUS
10
-0.277047
20
0.209649
11
-0.277047
21
0.134846
0
LINE
8
BLACK
6
CONTINUOUS
10
-0.277047
20
0.134846
11
-0.277252
21
0.132477
0
LINE
8
BLACK
6
CONTINUOUS
10
-0.277252
20
0.132477
11
-0.278752
21
0.128208
0
LINE
8
BLACK
6
CONTINUOUS
10
-0.278752
20
0.128208
11
-0.281553
21
0.124655
0
LINE
8
BLACK
6
CONTINUOUS
10
-0.281553
20
0.124655
11
-0.285354
21
0.1222
0
LINE
8
BLACK
6
CONTINUOUS
10
-0.285354
20
0.1222
11
-0.289746
21
0.121109
0
LINE
8
BLACK
6
CONTINUOUS
10
-0.289746
20
0.121109
11
-0.294254
21
0.1215
0
LINE
8
BLACK
6
CONTINUOUS
10
-0.294254
20
0.1215
11
-0.298392
21
0.123329
0
LINE
8
BLACK
6
CONTINUOUS
10
-0.298392
20
0.123329
11
-0.301715
21
0.126401
0
LINE
8
BLACK
6
CONTINUOUS
10
-0.301715
20
0.126401
11
-0.303863
21
0.130383
0
LINE
8
BLACK
6
CONTINUOUS
10
-0.303863
20
0.130383
11
-0.304606
21
0.134846
0
LINE
8
BLACK
6
CONTINUOUS
10
-0.304606
20
0.134846
11
-0.304606
21
0.209649
0
LINE
8
BLACK
6
CONTINUOUS
10
-0.304606
20
0.209649
11
-0.304401
21
0.212019
0
LINE
8
BLACK
6
CONTINUOUS
10
-0.304401
20
0.212019
11
-0.302902
21
0.216288
0
LINE
8
BLACK
6
CONTINUOUS
10
-0.302902
20
0.216288
11
-0.300101
21
0.219841
0
LINE
8
BLACK
6
CONTINUOUS
10
-0.300101
20
0.219841
11
-0.296299
21
0.222296
0
LINE
8
BLACK
6
CONTINUOUS
10
-0.296299
20
0.222296
11
-0.291908
21
0.223386
0
LINE
8
BLACK
6
CONTINUOUS
10
-0.291908
20
0.223386
11
-0.2874
21
0.222996
0
LINE
8
BLACK
6
CONTINUOUS
10
-0.334841
20
0.222996
11
-0.330702
21
0.221166
0
LINE
8
BLACK
6
CONTINUOUS
10
-0.330702
20
0.221166
11
-0.32738
21
0.218095
0
LINE
8
BLACK
6
CONTINUOUS
10
-0.32738
20
0.218095
11
-0.325231
21
0.214113
0
LINE
8
BLACK
6
CONTINUOUS
10
-0.325231
20
0.214113
11
-0.324488
21
0.209649
0
LINE
8
BLACK
6
CONTINUOUS
10
-0.324488
20
0.209649
11
-0.324488
21
0.134846
0
LINE
8
BLACK
6
CONTINUOUS
10
-0.324488
20
0.134846
11
-0.324693
21
0.132477
0
LINE
8
BLACK
6
CONTINUOUS
10
-0.324693
20
0.132477
11
-0.326193
21
0.128208
0
LINE
8
BLACK
6
CONTINUOUS
10
-0.326193
20
0.128208
11
-0.328994
21
0.124655
0
LINE
8
BLACK
6
CONTINUOUS
10
-0.328994
20
0.124655
11
-0.332795
21
0.1222
0
LINE
8
BLACK
6
CONTINUOUS
10
-0.332795
20
0.1222
11
-0.337187
21
0.121109
0
LINE
8
BLACK
6
CONTINUOUS
10
-0.337187
20
0.121109
11
-0.341695
21
0.1215
0
LINE
8
BLACK
6
CONTINUOUS
10
-0.341695
20
0.1215
11
-0.345833
21
0.123329
0
LINE
8
BLACK
6
CONTINUOUS
10
-0.345833
20
0.123329
11
-0.349156
21
0.126401
0
LINE
8
BLACK
6
CONTINUOUS
10
-0.349156
20
0.126401
11
-0.351304
21
0.130383
0
LINE
8
BLACK
6
CONTINUOUS
10
-0.351304
20
0.130383
11
-0.352047
21
0.134846
0
LINE
8
BLACK
6
CONTINUOUS
10
-0.352047
20
0.134846
11
-0.352047
21
0.209649
0
LINE
8
BLACK
6
CONTINUOUS
10
-0.352047
20
0.209649
11
-0.351842
21
0.212019
0
LINE
8
BLACK
6
CONTINUOUS
10
-0.351842
20
0.212019
11
-0.350343
21
0.216288
0
LINE
8
BLACK
6
CONTINUOUS
10
-0.350343
20
0.216288
11
-0.347541
21
0.219841
0
LINE
8
BLACK
6
CONTINUOUS
10
-0.347541
20
0.219841
11
-0.34374
21
0.222296
0
LINE
8
BLACK
6
CONTINUOUS
10
-0.34374
20
0.222296
11
-0.339349
21
0.223386
0
LINE
8
BLACK
6
CONTINUOUS
10
-0.339349
20
0.223386
11
-0.334841
21
0.222996
0
LINE
8
BLACK
6
CONTINUOUS
10
-0.4374
20
0.222996
11
-0.433261
21
0.221166
0
LINE
8
BLACK
6
CONTINUOUS
10
-0.433261
20
0.221166
11
-0.429939
21
0.218095
0
LINE
8
BLACK
6
CONTINUOUS
10
-0.429939
20
0.218095
11
-0.42779
21
0.214113
0
LINE
8
BLACK
6
CONTINUOUS
10
-0.42779
20
0.214113
11
-0.427047
21
0.209649
0
LINE
8
BLACK
6
CONTINUOUS
10
-0.427047
20
0.209649
11
-0.427047
21
0.134846
0
LINE
8
BLACK
6
CONTINUOUS
10
-0.427047
20
0.134846
11
-0.427252
21
0.132477
0
LINE
8
BLACK
6
CONTINUOUS
10
-0.427252
20
0.132477
11
-0.428752
21
0.128208
0
LINE
8
BLACK
6
CONTINUOUS
10
-0.428752
20
0.128208
11
-0.431553
21
0.124655
0
LINE
8
BLACK
6
CONTINUOUS
10
-0.431553
20
0.124655
11
-0.435354
21
0.1222
0
LINE
8
BLACK
6
CONTINUOUS
10
-0.435354
20
0.1222
11
-0.439746
21
0.121109
0
LINE
8
BLACK
6
CONTINUOUS
10
-0.439746
20
0.121109
11
-0.444254
21
0.1215
0
LINE
8
BLACK
6
CONTINUOUS
10
-0.444254
20
0.1215
11
-0.448392
21
0.123329
0
LINE
8
BLACK
6
CONTINUOUS
10
-0.448392
20
0.123329
11
-0.451715
21
0.126401
0
LINE
8
BLACK
6
CONTINUOUS
10
-0.451715
20
0.126401
11
-0.453863
21
0.130383
0
LINE
8
BLACK
6
CONTINUOUS
10
-0.453863
20
0.130383
11
-0.454606
21
0.134846
0
LINE
8
BLACK
6
CONTINUOUS
10
-0.454606
20
0.134846
11
-0.454606
21
0.209649
0
LINE
8
BLACK
6
CONTINUOUS
10
-0.454606
20
0.209649
11
-0.454401
21
0.212019
0
LINE
8
BLACK
6
CONTINUOUS
10
-0.454401
20
0.212019
11
-0.452902
21
0.216288
0
LINE
8
BLACK
6
CONTINUOUS
10
-0.452902
20
0.216288
11
-0.450101
21
0.219841
0
LINE
8
BLACK
6
CONTINUOUS
10
-0.450101
20
0.219841
11
-0.446299
21
0.222296
0
LINE
8
BLACK
6
CONTINUOUS
10
-0.446299
20
0.222296
11
-0.441908
21
0.223386
0
LINE
8
BLACK
6
CONTINUOUS
10
-0.441908
20
0.223386
11
-0.4374
21
0.222996
0
LINE
8
BLACK
6
CONTINUOUS
10
-0.3874
20
0.222996
11
-0.383261
21
0.221166
0
LINE
8
BLACK
6
CONTINUOUS
10
-0.383261
20
0.221166
11
-0.379939
21
0.218095
0
LINE
8
BLACK
6
CONTINUOUS
10
-0.379939
20
0.218095
11
-0.37779
21
0.214113
0
LINE
8
BLACK
6
CONTINUOUS
10
-0.37779
20
0.214113
11
-0.377047
21
0.209649
0
LINE
8
BLACK
6
CONTINUOUS
10
-0.377047
20
0.209649
11
-0.377047
21
0.134846
0
LINE
8
BLACK
6
CONTINUOUS
10
-0.377047
20
0.134846
11
-0.377252
21
0.132477
0
LINE
8
BLACK
6
CONTINUOUS
10
-0.377252
20
0.132477
11
-0.378752
21
0.128208
0
LINE
8
BLACK
6
CONTINUOUS
10
-0.378752
20
0.128208
11
-0.381553
21
0.124655
0
LINE
8
BLACK
6
CONTINUOUS
10
-0.381553
20
0.124655
11
-0.385354
21
0.1222
0
LINE
8
BLACK
6
CONTINUOUS
10
-0.385354
20
0.1222
11
-0.389746
21
0.121109
0
LINE
8
BLACK
6
CONTINUOUS
10
-0.389746
20
0.121109
11
-0.394254
21
0.1215
0
LINE
8
BLACK
6
CONTINUOUS
10
-0.394254
20
0.1215
11
-0.398392
21
0.123329
0
LINE
8
BLACK
6
CONTINUOUS
10
-0.398392
20
0.123329
11
-0.401715
21
0.126401
0
LINE
8
BLACK
6
CONTINUOUS
10
-0.401715
20
0.126401
11
-0.403863
21
0.130383
0
LINE
8
BLACK
6
CONTINUOUS
10
-0.403863
20
0.130383
11
-0.404606
21
0.134846
0
LINE
8
BLACK
6
CONTINUOUS
10
-0.404606
20
0.134846
11
-0.404606
21
0.209649
0
LINE
8
BLACK
6
CONTINUOUS
10
-0.404606
20
0.209649
11
-0.404401
21
0.212019
0
LINE
8
BLACK
6
CONTINUOUS
10
-0.404401
20
0.212019
11
-0.402902
21
0.216288
0
LINE
8
BLACK
6
CONTINUOUS
10
-0.402902
20
0.216288
11
-0.400101
21
0.219841
0
LINE
8
BLACK
6
CONTINUOUS
10
-0.400101
20
0.219841
11
-0.396299
21
0.222296
0
LINE
8
BLACK
6
CONTINUOUS
10
-0.396299
20
0.222296
11
-0.391908
21
0.223386
0
LINE
8
BLACK
6
CONTINUOUS
10
-0.391908
20
0.223386
11
-0.3874
21
0.222996
0
LINE
8
BLACK
6
CONTINUOUS
10
-0.559287
20
0.15681
11
-0.556413
21
0.15489
0
LINE
8
BLACK
6
CONTINUOUS
10
-0.556413
20
0.15489
11
-0.554493
21
0.152016
0
LINE
8
BLACK
6
CONTINUOUS
10
-0.554493
20
0.152016
11
-0.553819
21
0.148626
0
LINE
8
BLACK
6
CONTINUOUS
10
-0.553819
20
0.148626
11
-0.553819
21
0.130909
0
LINE
8
BLACK
6
CONTINUOUS
10
-0.553819
20
0.130909
11
-0.554493
21
0.127519
0
LINE
8
BLACK
6
CONTINUOUS
10
-0.554493
20
0.127519
11
-0.556413
21
0.124646
0
LINE
8
BLACK
6
CONTINUOUS
10
-0.556413
20
0.124646
11
-0.559287
21
0.122725
0
LINE
8
BLACK
6
CONTINUOUS
10
-0.559287
20
0.122725
11
-0.562677
21
0.122051
0
LINE
8
BLACK
6
CONTINUOUS
10
-0.562677
20
0.122051
11
-0.582362
21
0.122051
0
LINE
8
BLACK
6
CONTINUOUS
10
-0.582362
20
0.122051
11
-0.585752
21
0.122725
0
LINE
8
BLACK
6
CONTINUOUS
10
-0.585752
20
0.122725
11
-0.588626
21
0.124646
0
LINE
8
BLACK
6
CONTINUOUS
10
-0.588626
20
0.124646
11
-0.590546
21
0.127519
0
LINE
8
BLACK
6
CONTINUOUS
10
-0.590546
20
0.127519
11
-0.59122
21
0.130909
0
LINE
8
BLACK
6
CONTINUOUS
10
-0.59122
20
0.130909
11
-0.59122
21
0.148626
0
LINE
8
BLACK
6
CONTINUOUS
10
-0.59122
20
0.148626
11
-0.590546
21
0.152016
0
LINE
8
BLACK
6
CONTINUOUS
10
-0.590546
20
0.152016
11
-0.588626
21
0.15489
0
LINE
8
BLACK
6
CONTINUOUS
10
-0.588626
20
0.15489
11
-0.585752
21
0.15681
0
LINE
8
BLACK
6
CONTINUOUS
10
-0.585752
20
0.15681
11
-0.582362
21
0.157484
0
LINE
8
BLACK
6
CONTINUOUS
10
-0.582362
20
0.157484
11
-0.562677
21
0.157484
0
LINE
8
BLACK
6
CONTINUOUS
10
-0.562677
20
0.157484
11
-0.559287
21
0.15681
0
LINE
8
BLACK
6
CONTINUOUS
10
-0.160764
20
0.16744
11
-0.15789
21
0.165519
0
LINE
8
BLACK
6
CONTINUOUS
10
-0.15789
20
0.165519
11
-0.15597
21
0.162646
0
LINE
8
BLACK
6
CONTINUOUS
10
-0.15597
20
0.162646
11
-0.155295
21
0.159256
0
LINE
8
BLACK
6
CONTINUOUS
10
-0.155295
20
0.159256
11
-0.155295
21
0.141539
0
LINE
8
BLACK
6
CONTINUOUS
10
-0.155295
20
0.141539
11
-0.15597
21
0.138149
0
LINE
8
BLACK
6
CONTINUOUS
10
-0.15597
20
0.138149
11
-0.15789
21
0.135275
0
LINE
8
BLACK
6
CONTINUOUS
10
-0.15789
20
0.135275
11
-0.160764
21
0.133355
0
LINE
8
BLACK
6
CONTINUOUS
10
-0.160764
20
0.133355
11
-0.164154
21
0.132681
0
LINE
8
BLACK
6
CONTINUOUS
10
-0.164154
20
0.132681
11
-0.183839
21
0.132681
0
LINE
8
BLACK
6
CONTINUOUS
10
-0.183839
20
0.132681
11
-0.187229
21
0.133355
0
LINE
8
BLACK
6
CONTINUOUS
10
-0.187229
20
0.133355
11
-0.190102
21
0.135275
0
LINE
8
BLACK
6
CONTINUOUS
10
-0.190102
20
0.135275
11
-0.192023
21
0.138149
0
LINE
8
BLACK
6
CONTINUOUS
10
-0.192023
20
0.138149
11
-0.192697
21
0.141539
0
LINE
8
BLACK
6
CONTINUOUS
10
-0.192697
20
0.141539
11
-0.192697
21
0.159256
0
LINE
8
BLACK
6
CONTINUOUS
10
-0.192697
20
0.159256
11
-0.192023
21
0.162646
0
LINE
8
BLACK
6
CONTINUOUS
10
-0.192023
20
0.162646
11
-0.190102
21
0.165519
0
LINE
8
BLACK
6
CONTINUOUS
10
-0.190102
20
0.165519
11
-0.187229
21
0.16744
0
LINE
8
BLACK
6
CONTINUOUS
10
-0.187229
20
0.16744
11
-0.183839
21
0.168114
0
LINE
8
BLACK
6
CONTINUOUS
10
-0.183839
20
0.168114
11
-0.164154
21
0.168114
0
LINE
8
BLACK
6
CONTINUOUS
10
-0.164154
20
0.168114
11
-0.160764
21
0.16744
0
LINE
8
BLACK
6
CONTINUOUS
10
-0.623252
20
0.175972
11
-0.621336
21
0.174691
0
LINE
8
BLACK
6
CONTINUOUS
10
-0.621336
20
0.174691
11
-0.620056
21
0.172776
0
LINE
8
BLACK
6
CONTINUOUS
10
-0.620056
20
0.172776
11
-0.619606
21
0.170516
0
LINE
8
BLACK
6
CONTINUOUS
10
-0.619606
20
0.170516
11
-0.619606
21
0.158705
0
LINE
8
BLACK
6
CONTINUOUS
10
-0.619606
20
0.158705
11
-0.620056
21
0.156445
0
LINE
8
BLACK
6
CONTINUOUS
10
-0.620056
20
0.156445
11
-0.621336
21
0.154529
0
LINE
8
BLACK
6
CONTINUOUS
10
-0.621336
20
0.154529
11
-0.623252
21
0.153249
0
LINE
8
BLACK
6
CONTINUOUS
10
-0.623252
20
0.153249
11
-0.625512
21
0.152799
0
LINE
8
BLACK
6
CONTINUOUS
10
-0.625512
20
0.152799
11
-0.68063
21
0.152799
0
LINE
8
BLACK
6
CONTINUOUS
10
-0.68063
20
0.152799
11
-0.68289
21
0.153249
0
LINE
8
BLACK
6
CONTINUOUS
10
-0.68289
20
0.153249
11
-0.684806
21
0.154529
0
LINE
8
BLACK
6
CONTINUOUS
10
-0.684806
20
0.154529
11
-0.686086
21
0.156445
0
LINE
8
BLACK
6
CONTINUOUS
10
-0.686086
20
0.156445
11
-0.686535
21
0.158705
0
LINE
8
BLACK
6
CONTINUOUS
10
-0.686535
20
0.158705
11
-0.686535
21
0.170516
0
LINE
8
BLACK
6
CONTINUOUS
10
-0.686535
20
0.170516
11
-0.686086
21
0.172776
0
LINE
8
BLACK
6
CONTINUOUS
10
-0.686086
20
0.172776
11
-0.684806
21
0.174691
0
LINE
8
BLACK
6
CONTINUOUS
10
-0.684806
20
0.174691
11
-0.68289
21
0.175972
0
LINE
8
BLACK
6
CONTINUOUS
10
-0.68289
20
0.175972
11
-0.68063
21
0.176421
0
LINE
8
BLACK
6
CONTINUOUS
10
-0.68063
20
0.176421
11
-0.625512
21
0.176421
0
LINE
8
BLACK
6
CONTINUOUS
10
-0.625512
20
0.176421
11
-0.623252
21
0.175972
0
LINE
8
BLACK
6
CONTINUOUS
10
0.106614
20
0.201775
11
0.106416
21
0.201775
0
LINE
8
BLACK
6
CONTINUOUS
10
0.106416
20
0.201775
11
0.106398
21
0.198866
0
LINE
8
BLACK
6
CONTINUOUS
10
0.106398
20
0.198866
11
0.104799
21
0.193519
0
LINE
8
BLACK
6
CONTINUOUS
10
0.104799
20
0.193519
11
0.101763
21
0.188835
0
LINE
8
BLACK
6
CONTINUOUS
10
0.101763
20
0.188835
11
0.0975348
21
0.185192
0
LINE
8
BLACK
6
CONTINUOUS
10
0.0975348
20
0.185192
11
0.0924541
21
0.182882
0
LINE
8
BLACK
6
CONTINUOUS
10
0.0924541
20
0.182882
11
0.0869291
21
0.18209
0
LINE
8
BLACK
6
CONTINUOUS
10
0.0869291
20
0.18209
11
0.0672441
21
0.18209
0
LINE
8
BLACK
6
CONTINUOUS
10
0.0672441
20
0.18209
11
0.0667631
21
0.182096
0
LINE
8
BLACK
6
CONTINUOUS
10
0.0667631
20
0.182096
11
0.0612592
21
0.183022
0
LINE
8
BLACK
6
CONTINUOUS
10
0.0612592
20
0.183022
11
0.0562364
21
0.185456
0
LINE
8
BLACK
6
CONTINUOUS
10
0.0562364
20
0.185456
11
0.0520984
21
0.189201
0
LINE
8
BLACK
6
CONTINUOUS
10
0.0520984
20
0.189201
11
0.0491781
21
0.193958
0
LINE
8
BLACK
6
CONTINUOUS
10
0.0491781
20
0.193958
11
0.04771
21
0.199342
0
LINE
8
BLACK
6
CONTINUOUS
10
0.04771
20
0.199342
11
0.0477546
21
0.201775
0
LINE
8
BLACK
6
CONTINUOUS
10
0.0477546
20
0.201775
11
0.0475591
21
0.201775
0
LINE
8
BLACK
6
CONTINUOUS
10
0.0475591
20
0.201775
11
0.0475591
21
0.223429
0
LINE
8
BLACK
6
CONTINUOUS
10
0.0475591
20
0.223429
11
0.106614
21
0.223429
0
LINE
8
BLACK
6
CONTINUOUS
10
0.106614
20
0.223429
11
0.106614
21
0.201775
0
LINE
8
BLACK
6
CONTINUOUS
10
-0.559287
20
0.217833
11
-0.556413
21
0.215913
0
LINE
8
BLACK
6
CONTINUOUS
10
-0.556413
20
0.215913
11
-0.554493
21
0.213039
0
LINE
8
BLACK
6
CONTINUOUS
10
-0.554493
20
0.213039
11
-0.553819
21
0.209649
0
LINE
8
BLACK
6
CONTINUOUS
10
-0.553819
20
0.209649
11
-0.553819
21
0.191933
0
LINE
8
BLACK
6
CONTINUOUS
10
-0.553819
20
0.191933
11
-0.554493
21
0.188543
0
LINE
8
BLACK
6
CONTINUOUS
10
-0.554493
20
0.188543
11
-0.556413
21
0.185669
0
LINE
8
BLACK
6
CONTINUOUS
10
-0.556413
20
0.185669
11
-0.559287
21
0.183749
0
LINE
8
BLACK
6
CONTINUOUS
10
-0.559287
20
0.183749
11
-0.562677
21
0.183075
0
LINE
8
BLACK
6
CONTINUOUS
10
-0.562677
20
0.183075
11
-0.582362
21
0.183075
0
LINE
8
BLACK
6
CONTINUOUS
10
-0.582362
20
0.183075
11
-0.585752
21
0.183749
0
LINE
8
BLACK
6
CONTINUOUS
10
-0.585752
20
0.183749
11
-0.588626
21
0.185669
0
LINE
8
BLACK
6
CONTINUOUS
10
-0.588626
20
0.185669
11
-0.590546
21
0.188543
0
LINE
8
BLACK
6
CONTINUOUS
10
-0.590546
20
0.188543
11
-0.59122
21
0.191933
0
LINE
8
BLACK
6
CONTINUOUS
10
-0.59122
20
0.191933
11
-0.59122
21
0.209649
0
LINE
8
BLACK
6
CONTINUOUS
10
-0.59122
20
0.209649
11
-0.590546
21
0.213039
0
LINE
8
BLACK
6
CONTINUOUS
10
-0.590546
20
0.213039
11
-0.588626
21
0.215913
0
LINE
8
BLACK
6
CONTINUOUS
10
-0.588626
20
0.215913
11
-0.585752
21
0.217833
0
LINE
8
BLACK
6
CONTINUOUS
10
-0.585752
20
0.217833
11
-0.582362
21
0.218508
0
LINE
8
BLACK
6
CONTINUOUS
10
-0.582362
20
0.218508
11
-0.562677
21
0.218508
0
LINE
8
BLACK
6
CONTINUOUS
10
-0.562677
20
0.218508
11
-0.559287
21
0.217833
0
LINE
8
BLACK
6
CONTINUOUS
10
0.2029
20
0.240396
11
0.206094
21
0.238263
0
LINE
8
BLACK
6
CONTINUOUS
10
0.206094
20
0.238263
11
0.208227
21
0.23507
0
LINE
8
BLACK
6
CONTINUOUS
10
0.208227
20
0.23507
11
0.208976
21
0.231303
0
LINE
8
BLACK
6
CONTINUOUS
10
0.208976
20
0.231303
11
0.208976
21
0.210634
0
LINE
8
BLACK
6
CONTINUOUS
10
0.208976
20
0.210634
11
0.208227
21
0.206867
0
LINE
8
BLACK
6
CONTINUOUS
10
0.208227
20
0.206867
11
0.206094
21
0.203674
0
LINE
8
BLACK
6
CONTINUOUS
10
0.206094
20
0.203674
11
0.2029
21
0.20154
0
LINE
8
BLACK
6
CONTINUOUS
10
0.2029
20
0.20154
11
0.199134
21
0.200791
0
LINE
8
BLACK
6
CONTINUOUS
10
0.199134
20
0.200791
11
0.163701
21
0.200791
0
LINE
8
BLACK
6
CONTINUOUS
10
0.163701
20
0.200791
11
0.159934
21
0.20154
0
LINE
8
BLACK
6
CONTINUOUS
10
0.159934
20
0.20154
11
0.156741
21
0.203674
0
LINE
8
BLACK
6
CONTINUOUS
10
0.156741
20
0.203674
11
0.154607
21
0.206867
0
LINE
8
BLACK
6
CONTINUOUS
10
0.154607
20
0.206867
11
0.153858
21
0.210634
0
LINE
8
BLACK
6
CONTINUOUS
10
0.153858
20
0.210634
11
0.153858
21
0.231303
0
LINE
8
BLACK
6
CONTINUOUS
10
0.153858
20
0.231303
11
0.154607
21
0.23507
0
LINE
8
BLACK
6
CONTINUOUS
10
0.154607
20
0.23507
11
0.156741
21
0.238263
0
LINE
8
BLACK
6
CONTINUOUS
10
0.156741
20
0.238263
11
0.159934
21
0.240396
0
LINE
8
BLACK
6
CONTINUOUS
10
0.159934
20
0.240396
11
0.163701
21
0.241146
0
LINE
8
BLACK
6
CONTINUOUS
10
0.163701
20
0.241146
11
0.199134
21
0.241146
0
LINE
8
BLACK
6
CONTINUOUS
10
0.199134
20
0.241146
11
0.2029
21
0.240396
0
LINE
8
BLACK
6
CONTINUOUS
10
0.376129
20
0.240396
11
0.379322
21
0.238263
0
LINE
8
BLACK
6
CONTINUOUS
10
0.379322
20
0.238263
11
0.381456
21
0.23507
0
LINE
8
BLACK
6
CONTINUOUS
10
0.381456
20
0.23507
11
0.382205
21
0.231303
0
LINE
8
BLACK
6
CONTINUOUS
10
0.382205
20
0.231303
11
0.382205
21
0.210634
0
LINE
8
BLACK
6
CONTINUOUS
10
0.382205
20
0.210634
11
0.381456
21
0.206867
0
LINE
8
BLACK
6
CONTINUOUS
10
0.381456
20
0.206867
11
0.379322
21
0.203674
0
LINE
8
BLACK
6
CONTINUOUS
10
0.379322
20
0.203674
11
0.376129
21
0.20154
0
LINE
8
BLACK
6
CONTINUOUS
10
0.376129
20
0.20154
11
0.372362
21
0.200791
0
LINE
8
BLACK
6
CONTINUOUS
10
0.372362
20
0.200791
11
0.336929
21
0.200791
0
LINE
8
BLACK
6
CONTINUOUS
10
0.336929
20
0.200791
11
0.333163
21
0.20154
0
LINE
8
BLACK
6
CONTINUOUS
10
0.333163
20
0.20154
11
0.329969
21
0.203674
0
LINE
8
BLACK
6
CONTINUOUS
10
0.329969
20
0.203674
11
0.327836
21
0.206867
0
LINE
8
BLACK
6
CONTINUOUS
10
0.327836
20
0.206867
11
0.327087
21
0.210634
0
LINE
8
BLACK
6
CONTINUOUS
10
0.327087
20
0.210634
11
0.327087
21
0.231303
0
LINE
8
BLACK
6
CONTINUOUS
10
0.327087
20
0.231303
11
0.327836
21
0.23507
0
LINE
8
BLACK
6
CONTINUOUS
10
0.327836
20
0.23507
11
0.329969
21
0.238263
0
LINE
8
BLACK
6
CONTINUOUS
10
0.329969
20
0.238263
11
0.333163
21
0.240396
0
LINE
8
BLACK
6
CONTINUOUS
10
0.333163
20
0.240396
11
0.336929
21
0.241146
0
LINE
8
BLACK
6
CONTINUOUS
10
0.336929
20
0.241146
11
0.372362
21
0.241146
0
LINE
8
BLACK
6
CONTINUOUS
10
0.372362
20
0.241146
11
0.376129
21
0.240396
0
LINE
8
BLACK
6
CONTINUOUS
10
-0.623252
20
0.225184
11
-0.621336
21
0.223904
0
LINE
8
BLACK
6
CONTINUOUS
10
-0.621336
20
0.223904
11
-0.620056
21
0.221988
0
LINE
8
BLACK
6
CONTINUOUS
10
-0.620056
20
0.221988
11
-0.619606
21
0.219728
0
LINE
8
BLACK
6
CONTINUOUS
10
-0.619606
20
0.219728
11
-0.619606
21
0.207917
0
LINE
8
BLACK
6
CONTINUOUS
10
-0.619606
20
0.207917
11
-0.620056
21
0.205657
0
LINE
8
BLACK
6
CONTINUOUS
10
-0.620056
20
0.205657
11
-0.621336
21
0.203741
0
LINE
8
BLACK
6
CONTINUOUS
10
-0.621336
20
0.203741
11
-0.623252
21
0.202461
0
LINE
8
BLACK
6
CONTINUOUS
10
-0.623252
20
0.202461
11
-0.625512
21
0.202012
0
LINE
8
BLACK
6
CONTINUOUS
10
-0.625512
20
0.202012
11
-0.68063
21
0.202012
0
LINE
8
BLACK
6
CONTINUOUS
10
-0.68063
20
0.202012
11
-0.68289
21
0.202461
0
LINE
8
BLACK
6
CONTINUOUS
10
-0.68289
20
0.202461
11
-0.684806
21
0.203741
0
LINE
8
BLACK
6
CONTINUOUS
10
-0.684806
20
0.203741
11
-0.686086
21
0.205657
0
LINE
8
BLACK
6
CONTINUOUS
10
-0.686086
20
0.205657
11
-0.686535
21
0.207917
0
LINE
8
BLACK
6
CONTINUOUS
10
-0.686535
20
0.207917
11
-0.686535
21
0.219728
0
LINE
8
BLACK
6
CONTINUOUS
10
-0.686535
20
0.219728
11
-0.686086
21
0.221988
0
LINE
8
BLACK
6
CONTINUOUS
10
-0.686086
20
0.221988
11
-0.684806
21
0.223904
0
LINE
8
BLACK
6
CONTINUOUS
10
-0.684806
20
0.223904
11
-0.68289
21
0.225184
0
LINE
8
BLACK
6
CONTINUOUS
10
-0.68289
20
0.225184
11
-0.68063
21
0.225634
0
LINE
8
BLACK
6
CONTINUOUS
10
-0.68063
20
0.225634
11
-0.625512
21
0.225634
0
LINE
8
BLACK
6
CONTINUOUS
10
-0.625512
20
0.225634
11
-0.623252
21
0.225184
0
LINE
8
BLACK
6
CONTINUOUS
10
0.281264
20
0.243424
11
0.284138
21
0.241504
0
LINE
8
BLACK
6
CONTINUOUS
10
0.284138
20
0.241504
11
0.286058
21
0.23863
0
LINE
8
BLACK
6
CONTINUOUS
10
0.286058
20
0.23863
11
0.286732
21
0.23524
0
LINE
8
BLACK
6
CONTINUOUS
10
0.286732
20
0.23524
11
0.286732
21
0.217523
0
LINE
8
BLACK
6
CONTINUOUS
10
0.286732
20
0.217523
11
0.286058
21
0.214134
0
LINE
8
BLACK
6
CONTINUOUS
10
0.286058
20
0.214134
11
0.284138
21
0.21126
0
LINE
8
BLACK
6
CONTINUOUS
10
0.284138
20
0.21126
11
0.281264
21
0.209339
0
LINE
8
BLACK
6
CONTINUOUS
10
0.281264
20
0.209339
11
0.277874
21
0.208665
0
LINE
8
BLACK
6
CONTINUOUS
10
0.277874
20
0.208665
11
0.258189
21
0.208665
0
LINE
8
BLACK
6
CONTINUOUS
10
0.258189
20
0.208665
11
0.254799
21
0.209339
0
LINE
8
BLACK
6
CONTINUOUS
10
0.254799
20
0.209339
11
0.251925
21
0.21126
0
LINE
8
BLACK
6
CONTINUOUS
10
0.251925
20
0.21126
11
0.250005
21
0.214134
0
LINE
8
BLACK
6
CONTINUOUS
10
0.250005
20
0.214134
11
0.249331
21
0.217523
0
LINE
8
BLACK
6
CONTINUOUS
10
0.249331
20
0.217523
11
0.249331
21
0.23524
0
LINE
8
BLACK
6
CONTINUOUS
10
0.249331
20
0.23524
11
0.250005
21
0.23863
0
LINE
8
BLACK
6
CONTINUOUS
10
0.250005
20
0.23863
11
0.251925
21
0.241504
0
LINE
8
BLACK
6
CONTINUOUS
10
0.251925
20
0.241504
11
0.254799
21
0.243424
0
LINE
8
BLACK
6
CONTINUOUS
10
0.254799
20
0.243424
11
0.258189
21
0.244098
0
LINE
8
BLACK
6
CONTINUOUS
10
0.258189
20
0.244098
11
0.277874
21
0.244098
0
LINE
8
BLACK
6
CONTINUOUS
10
0.277874
20
0.244098
11
0.281264
21
0.243424
0
LINE
8
BLACK
6
CONTINUOUS
10
-0.16189
20
0.212602
11
-0.203622
21
0.212602
0
LINE
8
BLACK
6
CONTINUOUS
10
-0.203622
20
0.212602
11
-0.203622
21
0.238193
0
LINE
8
BLACK
6
CONTINUOUS
10
-0.203622
20
0.238193
11
-0.16189
21
0.238193
0
LINE
8
BLACK
6
CONTINUOUS
10
-0.16189
20
0.238193
11
-0.16189
21
0.212602
0
LINE
8
BLACK
6
CONTINUOUS
10
-0.0752756
20
0.212602
11
-0.117008
21
0.212602
0
LINE
8
BLACK
6
CONTINUOUS
10
-0.117008
20
0.212602
11
-0.117008
21
0.238193
0
LINE
8
BLACK
6
CONTINUOUS
10
-0.117008
20
0.238193
11
-0.0752756
21
0.238193
0
LINE
8
BLACK
6
CONTINUOUS
10
-0.0752756
20
0.238193
11
-0.0752756
21
0.212602
0
LINE
8
BLACK
6
CONTINUOUS
10
0.00173638
20
0.253266
11
0.0046102
21
0.251346
0
LINE
8
BLACK
6
CONTINUOUS
10
0.0046102
20
0.251346
11
0.00653043
21
0.248472
0
LINE
8
BLACK
6
CONTINUOUS
10
0.00653043
20
0.248472
11
0.00720472
21
0.245083
0
LINE
8
BLACK
6
CONTINUOUS
10
0.00720472
20
0.245083
11
0.00720472
21
0.227366
0
LINE
8
BLACK
6
CONTINUOUS
10
0.00720472
20
0.227366
11
0.00653043
21
0.223976
0
LINE
8
BLACK
6
CONTINUOUS
10
0.00653043
20
0.223976
11
0.0046102
21
0.221102
0
LINE
8
BLACK
6
CONTINUOUS
10
0.0046102
20
0.221102
11
0.00173638
21
0.219182
0
LINE
8
BLACK
6
CONTINUOUS
10
0.00173638
20
0.219182
11
-0.00165354
21
0.218508
0
LINE
8
BLACK
6
CONTINUOUS
10
-0.00165354
20
0.218508
11
-0.0213386
21
0.218508
0
LINE
8
BLACK
6
CONTINUOUS
10
-0.0213386
20
0.218508
11
-0.0247285
21
0.219182
0
LINE
8
BLACK
6
CONTINUOUS
10
-0.0247285
20
0.219182
11
-0.0276023
21
0.221102
0
LINE
8
BLACK
6
CONTINUOUS
10
-0.0276023
20
0.221102
11
-0.0295226
21
0.223976
0
LINE
8
BLACK
6
CONTINUOUS
10
-0.0295226
20
0.223976
11
-0.0301969
21
0.227366
0
LINE
8
BLACK
6
CONTINUOUS
10
-0.0301969
20
0.227366
11
-0.0301969
21
0.245083
0
LINE
8
BLACK
6
CONTINUOUS
10
-0.0301969
20
0.245083
11
-0.0295226
21
0.248472
0
LINE
8
BLACK
6
CONTINUOUS
10
-0.0295226
20
0.248472
11
-0.0276023
21
0.251346
0
LINE
8
BLACK
6
CONTINUOUS
10
-0.0276023
20
0.251346
11
-0.0247285
21
0.253266
0
LINE
8
BLACK
6
CONTINUOUS
10
-0.0247285
20
0.253266
11
-0.0213386
21
0.253941
0
LINE
8
BLACK
6
CONTINUOUS
10
-0.0213386
20
0.253941
11
-0.00165354
21
0.253941
0
LINE
8
BLACK
6
CONTINUOUS
10
-0.00165354
20
0.253941
11
0.00173638
21
0.253266
0
LINE
8
BLACK
6
CONTINUOUS
10
0.106614
20
0.233271
11
0.0475591
21
0.233271
0
LINE
8
BLACK
6
CONTINUOUS
10
0.0475591
20
0.233271
11
0.0475591
21
0.272642
0
LINE
8
BLACK
6
CONTINUOUS
10
0.0475591
20
0.272642
11
0.106614
21
0.272642
0
LINE
8
BLACK
6
CONTINUOUS
10
0.106614
20
0.272642
11
0.106614
21
0.233271
0
LINE
8
BLACK
6
CONTINUOUS
10
-0.16189
20
0.250004
11
-0.203622
21
0.250004
0
LINE
8
BLACK
6
CONTINUOUS
10
-0.203622
20
0.250004
11
-0.203622
21
0.275594
0
LINE
8
BLACK
6
CONTINUOUS
10
-0.203622
20
0.275594
11
-0.16189
21
0.275594
0
LINE
8
BLACK
6
CONTINUOUS
10
-0.16189
20
0.275594
11
-0.16189
21
0.250004
0
LINE
8
BLACK
6
CONTINUOUS
10
-0.623252
20
0.274397
11
-0.621336
21
0.273117
0
LINE
8
BLACK
6
CONTINUOUS
10
-0.621336
20
0.273117
11
-0.620056
21
0.271201
0
LINE
8
BLACK
6
CONTINUOUS
10
-0.620056
20
0.271201
11
-0.619606
21
0.268941
0
LINE
8
BLACK
6
CONTINUOUS
10
-0.619606
20
0.268941
11
-0.619606
21
0.25713
0
LINE
8
BLACK
6
CONTINUOUS
10
-0.619606
20
0.25713
11
-0.620056
21
0.25487
0
LINE
8
BLACK
6
CONTINUOUS
10
-0.620056
20
0.25487
11
-0.621336
21
0.252954
0
LINE
8
BLACK
6
CONTINUOUS
10
-0.621336
20
0.252954
11
-0.623252
21
0.251674
0
LINE
8
BLACK
6
CONTINUOUS
10
-0.623252
20
0.251674
11
-0.625512
21
0.251224
0
LINE
8
BLACK
6
CONTINUOUS
10
-0.625512
20
0.251224
11
-0.68063
21
0.251224
0
LINE
8
BLACK
6
CONTINUOUS
10
-0.68063
20
0.251224
11
-0.68289
21
0.251674
0
LINE
8
BLACK
6
CONTINUOUS
10
-0.68289
20
0.251674
11
-0.684806
21
0.252954
0
LINE
8
BLACK
6
CONTINUOUS
10
-0.684806
20
0.252954
11
-0.686086
21
0.25487
0
LINE
8
BLACK
6
CONTINUOUS
10
-0.686086
20
0.25487
11
-0.686535
21
0.25713
0
LINE
8
BLACK
6
CONTINUOUS
10
-0.686535
20
0.25713
11
-0.686535
21
0.268941
0
LINE
8
BLACK
6
CONTINUOUS
10
-0.686535
20
0.268941
11
-0.686086
21
0.271201
0
LINE
8
BLACK
6
CONTINUOUS
10
-0.686086
20
0.271201
11
-0.684806
21
0.273117
0
LINE
8
BLACK
6
CONTINUOUS
10
-0.684806
20
0.273117
11
-0.68289
21
0.274397
0
LINE
8
BLACK
6
CONTINUOUS
10
-0.68289
20
0.274397
11
-0.68063
21
0.274846
0
LINE
8
BLACK
6
CONTINUOUS
10
-0.68063
20
0.274846
11
-0.625512
21
0.274846
0
LINE
8
BLACK
6
CONTINUOUS
10
-0.625512
20
0.274846
11
-0.623252
21
0.274397
0
LINE
8
BLACK
6
CONTINUOUS
10
0.281264
20
0.304448
11
0.284138
21
0.302527
0
LINE
8
BLACK
6
CONTINUOUS
10
0.284138
20
0.302527
11
0.286058
21
0.299654
0
LINE
8
BLACK
6
CONTINUOUS
10
0.286058
20
0.299654
11
0.286732
21
0.296264
0
LINE
8
BLACK
6
CONTINUOUS
10
0.286732
20
0.296264
11
0.286732
21
0.278547
0
LINE
8
BLACK
6
CONTINUOUS
10
0.286732
20
0.278547
11
0.286058
21
0.275157
0
LINE
8
BLACK
6
CONTINUOUS
10
0.286058
20
0.275157
11
0.284138
21
0.272283
0
LINE
8
BLACK
6
CONTINUOUS
10
0.284138
20
0.272283
11
0.281264
21
0.270363
0
LINE
8
BLACK
6
CONTINUOUS
10
0.281264
20
0.270363
11
0.277874
21
0.269689
0
LINE
8
BLACK
6
CONTINUOUS
10
0.277874
20
0.269689
11
0.258189
21
0.269689
0
LINE
8
BLACK
6
CONTINUOUS
10
0.258189
20
0.269689
11
0.254799
21
0.270363
0
LINE
8
BLACK
6
CONTINUOUS
10
0.254799
20
0.270363
11
0.251925
21
0.272283
0
LINE
8
BLACK
6
CONTINUOUS
10
0.251925
20
0.272283
11
0.250005
21
0.275157
0
LINE
8
BLACK
6
CONTINUOUS
10
0.250005
20
0.275157
11
0.249331
21
0.278547
0
LINE
8
BLACK
6
CONTINUOUS
10
0.249331
20
0.278547
11
0.249331
21
0.296264
0
LINE
8
BLACK
6
CONTINUOUS
10
0.249331
20
0.296264
11
0.250005
21
0.299654
0
LINE
8
BLACK
6
CONTINUOUS
10
0.250005
20
0.299654
11
0.251925
21
0.302527
0
LINE
8
BLACK
6
CONTINUOUS
10
0.251925
20
0.302527
11
0.254799
21
0.304448
0
LINE
8
BLACK
6
CONTINUOUS
10
0.254799
20
0.304448
11
0.258189
21
0.305122
0
LINE
8
BLACK
6
CONTINUOUS
10
0.258189
20
0.305122
11
0.277874
21
0.305122
0
LINE
8
BLACK
6
CONTINUOUS
10
0.277874
20
0.305122
11
0.281264
21
0.304448
0
LINE
8
BLACK
6
CONTINUOUS
10
0.2029
20
0.312247
11
0.206094
21
0.310113
0
LINE
8
BLACK
6
CONTINUOUS
10
0.206094
20
0.310113
11
0.208227
21
0.30692
0
LINE
8
BLACK
6
CONTINUOUS
10
0.208227
20
0.30692
11
0.208976
21
0.303153
0
LINE
8
BLACK
6
CONTINUOUS
10
0.208976
20
0.303153
11
0.208976
21
0.282484
0
LINE
8
BLACK
6
CONTINUOUS
10
0.208976
20
0.282484
11
0.208227
21
0.278718
0
LINE
8
BLACK
6
CONTINUOUS
10
0.208227
20
0.278718
11
0.206094
21
0.275524
0
LINE
8
BLACK
6
CONTINUOUS
10
0.206094
20
0.275524
11
0.2029
21
0.273391
0
LINE
8
BLACK
6
CONTINUOUS
10
0.2029
20
0.273391
11
0.199134
21
0.272642
0
LINE
8
BLACK
6
CONTINUOUS
10
0.199134
20
0.272642
11
0.163701
21
0.272642
0
LINE
8
BLACK
6
CONTINUOUS
10
0.163701
20
0.272642
11
0.159934
21
0.273391
0
LINE
8
BLACK
6
CONTINUOUS
10
0.159934
20
0.273391
11
0.156741
21
0.275524
0
LINE
8
BLACK
6
CONTINUOUS
10
0.156741
20
0.275524
11
0.154607
21
0.278718
0
LINE
8
BLACK
6
CONTINUOUS
10
0.154607
20
0.278718
11
0.153858
21
0.282484
0
LINE
8
BLACK
6
CONTINUOUS
10
0.153858
20
0.282484
11
0.153858
21
0.303153
0
LINE
8
BLACK
6
CONTINUOUS
10
0.153858
20
0.303153
11
0.154607
21
0.30692
0
LINE
8
BLACK
6
CONTINUOUS
10
0.154607
20
0.30692
11
0.156741
21
0.310113
0
LINE
8
BLACK
6
CONTINUOUS
10
0.156741
20
0.310113
11
0.159934
21
0.312247
0
LINE
8
BLACK
6
CONTINUOUS
10
0.159934
20
0.312247
11
0.163701
21
0.312996
0
LINE
8
BLACK
6
CONTINUOUS
10
0.163701
20
0.312996
11
0.199134
21
0.312996
0
LINE
8
BLACK
6
CONTINUOUS
10
0.199134
20
0.312996
11
0.2029
21
0.312247
0
LINE
8
BLACK
6
CONTINUOUS
10
0.376129
20
0.312247
11
0.379322
21
0.310113
0
LINE
8
BLACK
6
CONTINUOUS
10
0.379322
20
0.310113
11
0.381456
21
0.30692
0
LINE
8
BLACK
6
CONTINUOUS
10
0.381456
20
0.30692
11
0.382205
21
0.303153
0
LINE
8
BLACK
6
CONTINUOUS
10
0.382205
20
0.303153
11
0.382205
21
0.282484
0
LINE
8
BLACK
6
CONTINUOUS
10
0.382205
20
0.282484
11
0.381456
21
0.278718
0
LINE
8
BLACK
6
CONTINUOUS
10
0.381456
20
0.278718
11
0.379322
21
0.275524
0
LINE
8
BLACK
6
CONTINUOUS
10
0.379322
20
0.275524
11
0.376129
21
0.273391
0
LINE
8
BLACK
6
CONTINUOUS
10
0.376129
20
0.273391
11
0.372362
21
0.272642
0
LINE
8
BLACK
6
CONTINUOUS
10
0.372362
20
0.272642
11
0.336929
21
0.272642
0
LINE
8
BLACK
6
CONTINUOUS
10
0.336929
20
0.272642
11
0.333163
21
0.273391
0
LINE
8
BLACK
6
CONTINUOUS
10
0.333163
20
0.273391
11
0.329969
21
0.275524
0
LINE
8
BLACK
6
CONTINUOUS
10
0.329969
20
0.275524
11
0.327836
21
0.278718
0
LINE
8
BLACK
6
CONTINUOUS
10
0.327836
20
0.278718
11
0.327087
21
0.282484
0
LINE
8
BLACK
6
CONTINUOUS
10
0.327087
20
0.282484
11
0.327087
21
0.303153
0
LINE
8
BLACK
6
CONTINUOUS
10
0.327087
20
0.303153
11
0.327836
21
0.30692
0
LINE
8
BLACK
6
CONTINUOUS
10
0.327836
20
0.30692
11
0.329969
21
0.310113
0
LINE
8
BLACK
6
CONTINUOUS
10
0.329969
20
0.310113
11
0.333163
21
0.312247
0
LINE
8
BLACK
6
CONTINUOUS
10
0.333163
20
0.312247
11
0.336929
21
0.312996
0
LINE
8
BLACK
6
CONTINUOUS
10
0.336929
20
0.312996
11
0.372362
21
0.312996
0
LINE
8
BLACK
6
CONTINUOUS
10
0.372362
20
0.312996
11
0.376129
21
0.312247
0
LINE
8
BLACK
6
CONTINUOUS
10
-0.249625
20
0.310428
11
-0.24707
21
0.308721
0
LINE
8
BLACK
6
CONTINUOUS
10
-0.24707
20
0.308721
11
-0.245363
21
0.306167
0
LINE
8
BLACK
6
CONTINUOUS
10
-0.245363
20
0.306167
11
-0.244764
21
0.303153
0
LINE
8
BLACK
6
CONTINUOUS
10
-0.244764
20
0.303153
11
-0.244764
21
0.2815
0
LINE
8
BLACK
6
CONTINUOUS
10
-0.244764
20
0.2815
11
-0.245363
21
0.278487
0
LINE
8
BLACK
6
CONTINUOUS
10
-0.245363
20
0.278487
11
-0.24707
21
0.275932
0
LINE
8
BLACK
6
CONTINUOUS
10
-0.24707
20
0.275932
11
-0.249625
21
0.274225
0
LINE
8
BLACK
6
CONTINUOUS
10
-0.249625
20
0.274225
11
-0.252638
21
0.273626
0
LINE
8
BLACK
6
CONTINUOUS
10
-0.252638
20
0.273626
11
-0.268386
21
0.273626
0
LINE
8
BLACK
6
CONTINUOUS
10
-0.268386
20
0.273626
11
-0.271399
21
0.274225
0
LINE
8
BLACK
6
CONTINUOUS
10
-0.271399
20
0.274225
11
-0.273954
21
0.275932
0
LINE
8
BLACK
6
CONTINUOUS
10
-0.273954
20
0.275932
11
-0.27566
21
0.278487
0
LINE
8
BLACK
6
CONTINUOUS
10
-0.27566
20
0.278487
11
-0.27626
21
0.2815
0
LINE
8
BLACK
6
CONTINUOUS
10
-0.27626
20
0.2815
11
-0.27626
21
0.303153
0
LINE
8
BLACK
6
CONTINUOUS
10
-0.27626
20
0.303153
11
-0.27566
21
0.306167
0
LINE
8
BLACK
6
CONTINUOUS
10
-0.27566
20
0.306167
11
-0.273954
21
0.308721
0
LINE
8
BLACK
6
CONTINUOUS
10
-0.273954
20
0.308721
11
-0.271399
21
0.310428
0
LINE
8
BLACK
6
CONTINUOUS
10
-0.271399
20
0.310428
11
-0.268386
21
0.311027
0
LINE
8
BLACK
6
CONTINUOUS
10
-0.268386
20
0.311027
11
-0.252638
21
0.311027
0
LINE
8
BLACK
6
CONTINUOUS
10
-0.252638
20
0.311027
11
-0.249625
21
0.310428
0
LINE
8
BLACK
6
CONTINUOUS
10
-0.381514
20
0.310428
11
-0.37896
21
0.308721
0
LINE
8
BLACK
6
CONTINUOUS
10
-0.37896
20
0.308721
11
-0.377253
21
0.306167
0
LINE
8
BLACK
6
CONTINUOUS
10
-0.377253
20
0.306167
11
-0.376654
21
0.303153
0
LINE
8
BLACK
6
CONTINUOUS
10
-0.376654
20
0.303153
11
-0.376654
21
0.2815
0
LINE
8
BLACK
6
CONTINUOUS
10
-0.376654
20
0.2815
11
-0.377253
21
0.278487
0
LINE
8
BLACK
6
CONTINUOUS
10
-0.377253
20
0.278487
11
-0.37896
21
0.275932
0
LINE
8
BLACK
6
CONTINUOUS
10
-0.37896
20
0.275932
11
-0.381514
21
0.274225
0
LINE
8
BLACK
6
CONTINUOUS
10
-0.381514
20
0.274225
11
-0.384528
21
0.273626
0
LINE
8
BLACK
6
CONTINUOUS
10
-0.384528
20
0.273626
11
-0.400276
21
0.273626
0
LINE
8
BLACK
6
CONTINUOUS
10
-0.400276
20
0.273626
11
-0.403289
21
0.274225
0
LINE
8
BLACK
6
CONTINUOUS
10
-0.403289
20
0.274225
11
-0.405843
21
0.275932
0
LINE
8
BLACK
6
CONTINUOUS
10
-0.405843
20
0.275932
11
-0.40755
21
0.278487
0
LINE
8
BLACK
6
CONTINUOUS
10
-0.40755
20
0.278487
11
-0.40815
21
0.2815
0
LINE
8
BLACK
6
CONTINUOUS
10
-0.40815
20
0.2815
11
-0.40815
21
0.303153
0
LINE
8
BLACK
6
CONTINUOUS
10
-0.40815
20
0.303153
11
-0.40755
21
0.306167
0
LINE
8
BLACK
6
CONTINUOUS
10
-0.40755
20
0.306167
11
-0.405843
21
0.308721
0
LINE
8
BLACK
6
CONTINUOUS
10
-0.405843
20
0.308721
11
-0.403289
21
0.310428
0
LINE
8
BLACK
6
CONTINUOUS
10
-0.403289
20
0.310428
11
-0.400276
21
0.311027
0
LINE
8
BLACK
6
CONTINUOUS
10
-0.400276
20
0.311027
11
-0.384528
21
0.311027
0
LINE
8
BLACK
6
CONTINUOUS
10
-0.384528
20
0.311027
11
-0.381514
21
0.310428
0
LINE
8
BLACK
6
CONTINUOUS
10
-0.314585
20
0.310428
11
-0.312031
21
0.308721
0
LINE
8
BLACK
6
CONTINUOUS
10
-0.312031
20
0.308721
11
-0.310324
21
0.306167
0
LINE
8
BLACK
6
CONTINUOUS
10
-0.310324
20
0.306167
11
-0.309724
21
0.303153
0
LINE
8
BLACK
6
CONTINUOUS
10
-0.309724
20
0.303153
11
-0.309724
21
0.2815
0
LINE
8
BLACK
6
CONTINUOUS
10
-0.309724
20
0.2815
11
-0.310324
21
0.278487
0
LINE
8
BLACK
6
CONTINUOUS
10
-0.310324
20
0.278487
11
-0.312031
21
0.275932
0
LINE
8
BLACK
6
CONTINUOUS
10
-0.312031
20
0.275932
11
-0.314585
21
0.274225
0
LINE
8
BLACK
6
CONTINUOUS
10
-0.314585
20
0.274225
11
-0.317598
21
0.273626
0
LINE
8
BLACK
6
CONTINUOUS
10
-0.317598
20
0.273626
11
-0.333346
21
0.273626
0
LINE
8
BLACK
6
CONTINUOUS
10
-0.333346
20
0.273626
11
-0.33636
21
0.274225
0
LINE
8
BLACK
6
CONTINUOUS
10
-0.33636
20
0.274225
11
-0.338914
21
0.275932
0
LINE
8
BLACK
6
CONTINUOUS
10
-0.338914
20
0.275932
11
-0.340621
21
0.278487
0
LINE
8
BLACK
6
CONTINUOUS
10
-0.340621
20
0.278487
11
-0.34122
21
0.2815
0
LINE
8
BLACK
6
CONTINUOUS
10
-0.34122
20
0.2815
11
-0.34122
21
0.303153
0
LINE
8
BLACK
6
CONTINUOUS
10
-0.34122
20
0.303153
11
-0.340621
21
0.306167
0
LINE
8
BLACK
6
CONTINUOUS
10
-0.340621
20
0.306167
11
-0.338914
21
0.308721
0
LINE
8
BLACK
6
CONTINUOUS
10
-0.338914
20
0.308721
11
-0.33636
21
0.310428
0
LINE
8
BLACK
6
CONTINUOUS
10
-0.33636
20
0.310428
11
-0.333346
21
0.311027
0
LINE
8
BLACK
6
CONTINUOUS
10
-0.333346
20
0.311027
11
-0.317598
21
0.311027
0
LINE
8
BLACK
6
CONTINUOUS
10
-0.317598
20
0.311027
11
-0.314585
21
0.310428
0
LINE
8
BLACK
6
CONTINUOUS
10
-0.446475
20
0.310428
11
-0.44392
21
0.308721
0
LINE
8
BLACK
6
CONTINUOUS
10
-0.44392
20
0.308721
11
-0.442214
21
0.306167
0
LINE
8
BLACK
6
CONTINUOUS
10
-0.442214
20
0.306167
11
-0.441614
21
0.303153
0
LINE
8
BLACK
6
CONTINUOUS
10
-0.441614
20
0.303153
11
-0.441614
21
0.2815
0
LINE
8
BLACK
6
CONTINUOUS
10
-0.441614
20
0.2815
11
-0.442214
21
0.278487
0
LINE
8
BLACK
6
CONTINUOUS
10
-0.442214
20
0.278487
11
-0.44392
21
0.275932
0
LINE
8
BLACK
6
CONTINUOUS
10
-0.44392
20
0.275932
11
-0.446475
21
0.274225
0
LINE
8
BLACK
6
CONTINUOUS
10
-0.446475
20
0.274225
11
-0.449488
21
0.273626
0
LINE
8
BLACK
6
CONTINUOUS
10
-0.449488
20
0.273626
11
-0.465236
21
0.273626
0
LINE
8
BLACK
6
CONTINUOUS
10
-0.465236
20
0.273626
11
-0.468249
21
0.274225
0
LINE
8
BLACK
6
CONTINUOUS
10
-0.468249
20
0.274225
11
-0.470804
21
0.275932
0
LINE
8
BLACK
6
CONTINUOUS
10
-0.470804
20
0.275932
11
-0.472511
21
0.278487
0
LINE
8
BLACK
6
CONTINUOUS
10
-0.472511
20
0.278487
11
-0.47311
21
0.2815
0
LINE
8
BLACK
6
CONTINUOUS
10
-0.47311
20
0.2815
11
-0.47311
21
0.303153
0
LINE
8
BLACK
6
CONTINUOUS
10
-0.47311
20
0.303153
11
-0.472511
21
0.306167
0
LINE
8
BLACK
6
CONTINUOUS
10
-0.472511
20
0.306167
11
-0.470804
21
0.308721
0
LINE
8
BLACK
6
CONTINUOUS
10
-0.470804
20
0.308721
11
-0.468249
21
0.310428
0
LINE
8
BLACK
6
CONTINUOUS
10
-0.468249
20
0.310428
11
-0.465236
21
0.311027
0
LINE
8
BLACK
6
CONTINUOUS
10
-0.465236
20
0.311027
11
-0.449488
21
0.311027
0
LINE
8
BLACK
6
CONTINUOUS
10
-0.449488
20
0.311027
11
-0.446475
21
0.310428
0
LINE
8
BLACK
6
CONTINUOUS
10
-0.510075
20
0.310353
11
-0.507201
21
0.308433
0
LINE
8
BLACK
6
CONTINUOUS
10
-0.507201
20
0.308433
11
-0.505281
21
0.305559
0
LINE
8
BLACK
6
CONTINUOUS
10
-0.505281
20
0.305559
11
-0.504606
21
0.302169
0
LINE
8
BLACK
6
CONTINUOUS
10
-0.504606
20
0.302169
11
-0.504606
21
0.282484
0
LINE
8
BLACK
6
CONTINUOUS
10
-0.504606
20
0.282484
11
-0.505281
21
0.279094
0
LINE
8
BLACK
6
CONTINUOUS
10
-0.505281
20
0.279094
11
-0.507201
21
0.27622
0
LINE
8
BLACK
6
CONTINUOUS
10
-0.507201
20
0.27622
11
-0.510075
21
0.2743
0
LINE
8
BLACK
6
CONTINUOUS
10
-0.510075
20
0.2743
11
-0.513465
21
0.273626
0
LINE
8
BLACK
6
CONTINUOUS
10
-0.513465
20
0.273626
11
-0.531181
21
0.273626
0
LINE
8
BLACK
6
CONTINUOUS
10
-0.531181
20
0.273626
11
-0.534571
21
0.2743
0
LINE
8
BLACK
6
CONTINUOUS
10
-0.534571
20
0.2743
11
-0.537445
21
0.27622
0
LINE
8
BLACK
6
CONTINUOUS
10
-0.537445
20
0.27622
11
-0.539365
21
0.279094
0
LINE
8
BLACK
6
CONTINUOUS
10
-0.539365
20
0.279094
11
-0.540039
21
0.282484
0
LINE
8
BLACK
6
CONTINUOUS
10
-0.540039
20
0.282484
11
-0.540039
21
0.302169
0
LINE
8
BLACK
6
CONTINUOUS
10
-0.540039
20
0.302169
11
-0.539365
21
0.305559
0
LINE
8
BLACK
6
CONTINUOUS
10
-0.539365
20
0.305559
11
-0.537445
21
0.308433
0
LINE
8
BLACK
6
CONTINUOUS
10
-0.537445
20
0.308433
11
-0.534571
21
0.310353
0
LINE
8
BLACK
6
CONTINUOUS
10
-0.534571
20
0.310353
11
-0.531181
21
0.311027
0
LINE
8
BLACK
6
CONTINUOUS
10
-0.531181
20
0.311027
11
-0.513465
21
0.311027
0
LINE
8
BLACK
6
CONTINUOUS
10
-0.513465
20
0.311027
11
-0.510075
21
0.310353
0
LINE
8
BLACK
6
CONTINUOUS
10
-0.571098
20
0.310353
11
-0.568224
21
0.308433
0
LINE
8
BLACK
6
CONTINUOUS
10
-0.568224
20
0.308433
11
-0.566304
21
0.305559
0
LINE
8
BLACK
6
CONTINUOUS
10
-0.566304
20
0.305559
11
-0.56563
21
0.302169
0
LINE
8
BLACK
6
CONTINUOUS
10
-0.56563
20
0.302169
11
-0.56563
21
0.282484
0
LINE
8
BLACK
6
CONTINUOUS
10
-0.56563
20
0.282484
11
-0.566304
21
0.279094
0
LINE
8
BLACK
6
CONTINUOUS
10
-0.566304
20
0.279094
11
-0.568224
21
0.27622
0
LINE
8
BLACK
6
CONTINUOUS
10
-0.568224
20
0.27622
11
-0.571098
21
0.2743
0
LINE
8
BLACK
6
CONTINUOUS
10
-0.571098
20
0.2743
11
-0.574488
21
0.273626
0
LINE
8
BLACK
6
CONTINUOUS
10
-0.574488
20
0.273626
11
-0.592205
21
0.273626
0
LINE
8
BLACK
6
CONTINUOUS
10
-0.592205
20
0.273626
11
-0.595595
21
0.2743
0
LINE
8
BLACK
6
CONTINUOUS
10
-0.595595
20
0.2743
11
-0.598468
21
0.27622
0
LINE
8
BLACK
6
CONTINUOUS
10
-0.598468
20
0.27622
11
-0.600389
21
0.279094
0
LINE
8
BLACK
6
CONTINUOUS
10
-0.600389
20
0.279094
11
-0.601063
21
0.282484
0
LINE
8
BLACK
6
CONTINUOUS
10
-0.601063
20
0.282484
11
-0.601063
21
0.302169
0
LINE
8
BLACK
6
CONTINUOUS
10
-0.601063
20
0.302169
11
-0.600389
21
0.305559
0
LINE
8
BLACK
6
CONTINUOUS
10
-0.600389
20
0.305559
11
-0.598468
21
0.308433
0
LINE
8
BLACK
6
CONTINUOUS
10
-0.598468
20
0.308433
11
-0.595595
21
0.310353
0
LINE
8
BLACK
6
CONTINUOUS
10
-0.595595
20
0.310353
11
-0.592205
21
0.311027
0
LINE
8
BLACK
6
CONTINUOUS
10
-0.592205
20
0.311027
11
-0.574488
21
0.311027
0
LINE
8
BLACK
6
CONTINUOUS
10
-0.574488
20
0.311027
11
-0.571098
21
0.310353
0
LINE
8
BLACK
6
CONTINUOUS
10
0.00173638
20
0.31429
11
0.0046102
21
0.31237
0
LINE
8
BLACK
6
CONTINUOUS
10
0.0046102
20
0.31237
11
0.00653043
21
0.309496
0
LINE
8
BLACK
6
CONTINUOUS
10
0.00653043
20
0.309496
11
0.00720472
21
0.306106
0
LINE
8
BLACK
6
CONTINUOUS
10
0.00720472
20
0.306106
11
0.00720472
21
0.28839
0
LINE
8
BLACK
6
CONTINUOUS
10
0.00720472
20
0.28839
11
0.00653043
21
0.285
0
LINE
8
BLACK
6
CONTINUOUS
10
0.00653043
20
0.285
11
0.0046102
21
0.282126
0
LINE
8
BLACK
6
CONTINUOUS
10
0.0046102
20
0.282126
11
0.00173638
21
0.280206
0
LINE
8
BLACK
6
CONTINUOUS
10
0.00173638
20
0.280206
11
-0.00165354
21
0.279531
0
LINE
8
BLACK
6
CONTINUOUS
10
-0.00165354
20
0.279531
11
-0.0213386
21
0.279531
0
LINE
8
BLACK
6
CONTINUOUS
10
-0.0213386
20
0.279531
11
-0.0247285
21
0.280206
0
LINE
8
BLACK
6
CONTINUOUS
10
-0.0247285
20
0.280206
11
-0.0276023
21
0.282126
0
LINE
8
BLACK
6
CONTINUOUS
10
-0.0276023
20
0.282126
11
-0.0295226
21
0.285
0
LINE
8
BLACK
6
CONTINUOUS
10
-0.0295226
20
0.285
11
-0.0301969
21
0.28839
0
LINE
8
BLACK
6
CONTINUOUS
10
-0.0301969
20
0.28839
11
-0.0301969
21
0.306106
0
LINE
8
BLACK
6
CONTINUOUS
10
-0.0301969
20
0.306106
11
-0.0295226
21
0.309496
0
LINE
8
BLACK
6
CONTINUOUS
10
-0.0295226
20
0.309496
11
-0.0276023
21
0.31237
0
LINE
8
BLACK
6
CONTINUOUS
10
-0.0276023
20
0.31237
11
-0.0247285
21
0.31429
0
LINE
8
BLACK
6
CONTINUOUS
10
-0.0247285
20
0.31429
11
-0.0213386
21
0.314964
0
LINE
8
BLACK
6
CONTINUOUS
10
-0.0213386
20
0.314964
11
-0.00165354
21
0.314964
0
LINE
8
BLACK
6
CONTINUOUS
10
-0.00165354
20
0.314964
11
0.00173638
21
0.31429
0
LINE
8
BLACK
6
CONTINUOUS
10
0.0869291
20
0.32379
11
0.0871696
21
0.323821
0
LINE
8
BLACK
6
CONTINUOUS
10
0.0871696
20
0.323821
11
0.0926845
21
0.322963
0
LINE
8
BLACK
6
CONTINUOUS
10
0.0926845
20
0.322963
11
0.0977367
21
0.320591
0
LINE
8
BLACK
6
CONTINUOUS
10
0.0977367
20
0.320591
11
0.10192
21
0.316896
0
LINE
8
BLACK
6
CONTINUOUS
10
0.10192
20
0.316896
11
0.104898
21
0.312176
0
LINE
8
BLACK
6
CONTINUOUS
10
0.104898
20
0.312176
11
0.106432
21
0.306809
0
LINE
8
BLACK
6
CONTINUOUS
10
0.106432
20
0.306809
11
0.106416
21
0.304138
0
LINE
8
BLACK
6
CONTINUOUS
10
0.106416
20
0.304138
11
0.106614
21
0.304138
0
LINE
8
BLACK
6
CONTINUOUS
10
0.106614
20
0.304138
11
0.106614
21
0.282484
0
LINE
8
BLACK
6
CONTINUOUS
10
0.106614
20
0.282484
11
0.0475591
21
0.282484
0
LINE
8
BLACK
6
CONTINUOUS
10
0.0475591
20
0.282484
11
0.0475591
21
0.304138
0
LINE
8
BLACK
6
CONTINUOUS
10
0.0475591
20
0.304138
11
0.0477546
21
0.304138
0
LINE
8
BLACK
6
CONTINUOUS
10
0.0477546
20
0.304138
11
0.0478123
21
0.307285
0
LINE
8
BLACK
6
CONTINUOUS
10
0.0478123
20
0.307285
11
0.0494767
21
0.312612
0
LINE
8
BLACK
6
CONTINUOUS
10
0.0494767
20
0.312612
11
0.0525694
21
0.317258
0
LINE
8
BLACK
6
CONTINUOUS
10
0.0525694
20
0.317258
11
0.0568418
21
0.32085
0
LINE
8
BLACK
6
CONTINUOUS
10
0.0568418
20
0.32085
11
0.0619504
21
0.323098
0
LINE
8
BLACK
6
CONTINUOUS
10
0.0619504
20
0.323098
11
0.0672441
21
0.32379
0
LINE
8
BLACK
6
CONTINUOUS
10
0.0672441
20
0.32379
11
0.0672441
21
0.323823
0
LINE
8
BLACK
6
CONTINUOUS
10
0.0672441
20
0.323823
11
0.0869291
21
0.323823
0
LINE
8
BLACK
6
CONTINUOUS
10
0.0869291
20
0.323823
11
0.0869291
21
0.32379
0
LINE
8
BLACK
6
CONTINUOUS
10
-0.16189
20
0.287405
11
-0.203622
21
0.287405
0
LINE
8
BLACK
6
CONTINUOUS
10
-0.203622
20
0.287405
11
-0.203622
21
0.312996
0
LINE
8
BLACK
6
CONTINUOUS
10
-0.203622
20
0.312996
11
-0.16189
21
0.312996
0
LINE
8
BLACK
6
CONTINUOUS
10
-0.16189
20
0.312996
11
-0.16189
21
0.287405
0
LINE
8
BLACK
6
CONTINUOUS
10
-0.0752756
20
0.287405
11
-0.117008
21
0.287405
0
LINE
8
BLACK
6
CONTINUOUS
10
-0.117008
20
0.287405
11
-0.117008
21
0.312996
0
LINE
8
BLACK
6
CONTINUOUS
10
-0.117008
20
0.312996
11
-0.0752756
21
0.312996
0
LINE
8
BLACK
6
CONTINUOUS
10
-0.0752756
20
0.312996
11
-0.0752756
21
0.287405
0
LINE
8
BLACK
6
CONTINUOUS
10
-0.731981
20
0.354806
11
-0.728788
21
0.352672
0
LINE
8
BLACK
6
CONTINUOUS
10
-0.728788
20
0.352672
11
-0.726655
21
0.349479
0
LINE
8
BLACK
6
CONTINUOUS
10
-0.726655
20
0.349479
11
-0.725906
21
0.345712
0
LINE
8
BLACK
6
CONTINUOUS
10
-0.725906
20
0.345712
11
-0.725906
21
0.326027
0
LINE
8
BLACK
6
CONTINUOUS
10
-0.725906
20
0.326027
11
-0.726655
21
0.322261
0
LINE
8
BLACK
6
CONTINUOUS
10
-0.726655
20
0.322261
11
-0.728788
21
0.319068
0
LINE
8
BLACK
6
CONTINUOUS
10
-0.728788
20
0.319068
11
-0.731981
21
0.316934
0
LINE
8
BLACK
6
CONTINUOUS
10
-0.731981
20
0.316934
11
-0.735748
21
0.316185
0
LINE
8
BLACK
6
CONTINUOUS
10
-0.735748
20
0.316185
11
-0.822362
21
0.316185
0
LINE
8
BLACK
6
CONTINUOUS
10
-0.822362
20
0.316185
11
-0.826129
21
0.316934
0
LINE
8
BLACK
6
CONTINUOUS
10
-0.826129
20
0.316934
11
-0.829322
21
0.319068
0
LINE
8
BLACK
6
CONTINUOUS
10
-0.829322
20
0.319068
11
-0.831456
21
0.322261
0
LINE
8
BLACK
6
CONTINUOUS
10
-0.831456
20
0.322261
11
-0.832205
21
0.326027
0
LINE
8
BLACK
6
CONTINUOUS
10
-0.832205
20
0.326027
11
-0.832205
21
0.345712
0
LINE
8
BLACK
6
CONTINUOUS
10
-0.832205
20
0.345712
11
-0.831456
21
0.349479
0
LINE
8
BLACK
6
CONTINUOUS
10
-0.831456
20
0.349479
11
-0.829322
21
0.352672
0
LINE
8
BLACK
6
CONTINUOUS
10
-0.829322
20
0.352672
11
-0.826129
21
0.354806
0
LINE
8
BLACK
6
CONTINUOUS
10
-0.826129
20
0.354806
11
-0.822362
21
0.355555
0
LINE
8
BLACK
6
CONTINUOUS
10
-0.822362
20
0.355555
11
-0.735748
21
0.355555
0
LINE
8
BLACK
6
CONTINUOUS
10
-0.735748
20
0.355555
11
-0.731981
21
0.354806
  0
ENDSEC
  0
EOF
