  0
SECTION
  2
HEADER
  9
$ANGBASE
  50
0.0
  9
$ANGDIR
  70
1
  9
$MEASUREMENT
  70
0
  0
ENDSEC
  0
SECTION
  2
TABLES
  0
TABLE
  2
LTYPE
  70
4
  0
LTYPE
  5
40F
  2
CONTINUOUS
  70
0
  3
Solid line
  72
65
  73
0
  40
0.0
  0
LTYPE
  5
410
  2
DASHDOT
 70
0
  3
Dash Dot ____ _ ____ _
 72
65
 73
4
 40
2.0
 49
1.25
 49
-0.25
 49
0.25
 49
-0.25
  0
LTYPE
  5
411
  2
DASHED
 70
0
  3
Dashed __ __ __ __ __
 72
65
 73
2
 40
0.75
 49
0.5
 49
-0.25
  0
LTYPE
  5
43B
  2
DOTTED
 70
0
  3
Dotted .  .  .  .
 72
65
 73
2
 40
0.2
 49
0.0
 49
-0.2
  0
ENDTAB
  0
TABLE
  2
STYLE
  70
4
  0
STYLE
  2
KICAD
  70
0
  40
0
  41
1
  42
1
  50
0
  71
0
  3
isocp.shx
  0
STYLE
  2
KICADB
  70
0
  40
0
  41
1
  42
1
  50
0
  71
0
  3
isocp.shx
  0
STYLE
  2
KICADI
  70
0
  40
0
  41
1
  42
1
  50
15
  71
0
  3
isocp.shx
  0
STYLE
  2
KICADBI
  70
0
  40
0
  41
1
  42
1
  50
15
  71
0
  3
isocp.shx
  0
ENDTAB
  0
TABLE
  2
LAYER
  70
1
  0
LAYER
  2
BLACK
  70
0
  62
7
  6
CONTINUOUS
  0
ENDTAB
  0
ENDSEC
  0
SECTION
  2
ENTITIES
0
LINE
8
BLACK
6
CONTINUOUS
10
-0.3011276771653543
20
-0.2537862598425197
11
-0.3004368503937008
21
-0.2556842519685039
0
LINE
8
BLACK
6
CONTINUOUS
10
-0.3004368503937008
20
-0.2556842519685039
11
-0.3004368503937008
21
-0.2950543307086614
0
LINE
8
BLACK
6
CONTINUOUS
10
-0.3004368503937008
20
-0.2950543307086614
11
-0.3006149212598425
21
-0.2960642519685039
0
LINE
8
BLACK
6
CONTINUOUS
10
-0.3006149212598425
20
-0.2960642519685039
11
-0.3019132283464567
21
-0.2976114960629921
0
LINE
8
BLACK
6
CONTINUOUS
10
-0.3019132283464567
20
-0.2976114960629921
11
-0.3039023622047244
21
-0.2979622440944882
0
LINE
8
BLACK
6
CONTINUOUS
10
-0.3039023622047244
20
-0.2979622440944882
11
-0.3056515354330709
21
-0.2969523228346457
0
LINE
8
BLACK
6
CONTINUOUS
10
-0.3056515354330709
20
-0.2969523228346457
11
-0.3063423622047244
21
-0.2950543307086614
0
LINE
8
BLACK
6
CONTINUOUS
10
-0.3063423622047244
20
-0.2950543307086614
11
-0.3063423622047244
21
-0.279685748031496
0
LINE
8
BLACK
6
CONTINUOUS
10
-0.3063423622047244
20
-0.279685748031496
11
-0.3237988582677165
21
-0.2971422440944882
0
LINE
8
BLACK
6
CONTINUOUS
10
-0.3237988582677165
20
-0.2971422440944882
11
-0.3246388976377952
21
-0.2977304330708661
0
LINE
8
BLACK
6
CONTINUOUS
10
-0.3246388976377952
20
-0.2977304330708661
11
-0.3266509842519685
21
-0.2979064960629921
0
LINE
8
BLACK
6
CONTINUOUS
10
-0.3266509842519685
20
-0.2979064960629921
11
-0.3283055511811023
21
-0.2967479527559055
0
LINE
8
BLACK
6
CONTINUOUS
10
-0.3283055511811023
20
-0.2967479527559055
11
-0.3288282677165354
21
-0.2947970078740157
0
LINE
8
BLACK
6
CONTINUOUS
10
-0.3288282677165354
20
-0.2947970078740157
11
-0.3279746850393701
21
-0.2929664173228346
0
LINE
8
BLACK
6
CONTINUOUS
10
-0.3279746850393701
20
-0.2929664173228346
11
-0.3129126771653543
21
-0.2779043700787401
0
LINE
8
BLACK
6
CONTINUOUS
10
-0.3129126771653543
20
-0.2779043700787401
11
-0.3282489763779528
21
-0.257455905511811
0
LINE
8
BLACK
6
CONTINUOUS
10
-0.3282489763779528
20
-0.257455905511811
11
-0.3287124803149606
21
-0.2565411417322835
0
LINE
8
BLACK
6
CONTINUOUS
10
-0.3287124803149606
20
-0.2565411417322835
11
-0.3286021653543307
21
-0.2545243307086614
0
LINE
8
BLACK
6
CONTINUOUS
10
-0.3286021653543307
20
-0.2545243307086614
11
-0.3272212992125984
21
-0.2530502755905512
0
LINE
8
BLACK
6
CONTINUOUS
10
-0.3272212992125984
20
-0.2530502755905512
11
-0.3252160236220472
21
-0.2528087007874016
0
LINE
8
BLACK
6
CONTINUOUS
10
-0.3252160236220472
20
-0.2528087007874016
11
-0.3235245669291338
21
-0.2539125984251969
0
LINE
8
BLACK
6
CONTINUOUS
10
-0.3235245669291338
20
-0.2539125984251969
11
-0.3086944488188976
21
-0.2736861417322834
0
LINE
8
BLACK
6
CONTINUOUS
10
-0.3086944488188976
20
-0.2736861417322834
11
-0.3063423622047244
21
-0.271334094488189
0
LINE
8
BLACK
6
CONTINUOUS
10
-0.3063423622047244
20
-0.271334094488189
11
-0.3063423622047244
21
-0.2556842519685039
0
LINE
8
BLACK
6
CONTINUOUS
10
-0.3063423622047244
20
-0.2556842519685039
11
-0.3061642913385827
21
-0.2546743307086614
0
LINE
8
BLACK
6
CONTINUOUS
10
-0.3061642913385827
20
-0.2546743307086614
11
-0.3048659842519685
21
-0.2531270866141732
0
LINE
8
BLACK
6
CONTINUOUS
10
-0.3048659842519685
20
-0.2531270866141732
11
-0.3028768503937008
21
-0.2527763385826772
0
LINE
8
BLACK
6
CONTINUOUS
10
-0.3028768503937008
20
-0.2527763385826772
11
-0.3011276771653543
21
-0.2537862598425197
0
LINE
8
BLACK
6
CONTINUOUS
10
0.0925731102362205
20
-0.2537862598425197
11
0.093263937007874
21
-0.2556842519685039
0
LINE
8
BLACK
6
CONTINUOUS
10
0.093263937007874
20
-0.2556842519685039
11
0.093263937007874
21
-0.2950543307086614
0
LINE
8
BLACK
6
CONTINUOUS
10
0.093263937007874
20
-0.2950543307086614
11
0.0930858661417323
21
-0.2960642519685039
0
LINE
8
BLACK
6
CONTINUOUS
10
0.0930858661417323
20
-0.2960642519685039
11
0.0917875590551181
21
-0.2976114960629921
0
LINE
8
BLACK
6
CONTINUOUS
10
0.0917875590551181
20
-0.2976114960629921
11
0.0897984251968504
21
-0.2979622440944882
0
LINE
8
BLACK
6
CONTINUOUS
10
0.0897984251968504
20
-0.2979622440944882
11
0.0880492519685039
21
-0.2969523228346457
0
LINE
8
BLACK
6
CONTINUOUS
10
0.0880492519685039
20
-0.2969523228346457
11
0.0873584251968504
21
-0.2950543307086614
0
LINE
8
BLACK
6
CONTINUOUS
10
0.0873584251968504
20
-0.2950543307086614
11
0.0873584251968504
21
-0.279685748031496
0
LINE
8
BLACK
6
CONTINUOUS
10
0.0873584251968504
20
-0.279685748031496
11
0.0699019291338583
21
-0.2971422440944882
0
LINE
8
BLACK
6
CONTINUOUS
10
0.0699019291338583
20
-0.2971422440944882
11
0.0690618897637795
21
-0.2977304330708661
0
LINE
8
BLACK
6
CONTINUOUS
10
0.0690618897637795
20
-0.2977304330708661
11
0.0670498031496063
21
-0.2979064960629921
0
LINE
8
BLACK
6
CONTINUOUS
10
0.0670498031496063
20
-0.2979064960629921
11
0.0653952362204724
21
-0.2967479527559055
0
LINE
8
BLACK
6
CONTINUOUS
10
0.0653952362204724
20
-0.2967479527559055
11
0.0648725196850394
21
-0.2947970078740157
0
LINE
8
BLACK
6
CONTINUOUS
10
0.0648725196850394
20
-0.2947970078740157
11
0.0657261023622047
21
-0.2929664173228346
0
LINE
8
BLACK
6
CONTINUOUS
10
0.0657261023622047
20
-0.2929664173228346
11
0.0807881102362205
21
-0.2779043700787401
0
LINE
8
BLACK
6
CONTINUOUS
10
0.0807881102362205
20
-0.2779043700787401
11
0.065451811023622
21
-0.257455905511811
0
LINE
8
BLACK
6
CONTINUOUS
10
0.065451811023622
20
-0.257455905511811
11
0.0649883070866142
21
-0.2565411417322835
0
LINE
8
BLACK
6
CONTINUOUS
10
0.0649883070866142
20
-0.2565411417322835
11
0.0650986220472441
21
-0.2545243307086614
0
LINE
8
BLACK
6
CONTINUOUS
10
0.0650986220472441
20
-0.2545243307086614
11
0.0664794881889764
21
-0.2530502755905512
0
LINE
8
BLACK
6
CONTINUOUS
10
0.0664794881889764
20
-0.2530502755905512
11
0.0684847637795276
21
-0.2528087007874016
0
LINE
8
BLACK
6
CONTINUOUS
10
0.0684847637795276
20
-0.2528087007874016
11
0.0701762204724409
21
-0.2539125984251969
0
LINE
8
BLACK
6
CONTINUOUS
10
0.0701762204724409
20
-0.2539125984251969
11
0.0850063385826772
21
-0.2736861417322834
0
LINE
8
BLACK
6
CONTINUOUS
10
0.0850063385826772
20
-0.2736861417322834
11
0.0873584251968504
21
-0.271334094488189
0
LINE
8
BLACK
6
CONTINUOUS
10
0.0873584251968504
20
-0.271334094488189
11
0.0873584251968504
21
-0.2556842519685039
0
LINE
8
BLACK
6
CONTINUOUS
10
0.0873584251968504
20
-0.2556842519685039
11
0.0875364960629921
21
-0.2546743307086614
0
LINE
8
BLACK
6
CONTINUOUS
10
0.0875364960629921
20
-0.2546743307086614
11
0.0888348031496063
21
-0.2531270866141732
0
LINE
8
BLACK
6
CONTINUOUS
10
0.0888348031496063
20
-0.2531270866141732
11
0.090823937007874
21
-0.2527763385826772
0
LINE
8
BLACK
6
CONTINUOUS
10
0.090823937007874
20
-0.2527763385826772
11
0.0925731102362205
21
-0.2537862598425197
  0
ENDSEC
  0
EOF
