  0
SECTION
  2
HEADER
  9
$ANGBASE
  50
0.0
  9
$ANGDIR
  70
1
  9
$MEASUREMENT
  70
0
  0
ENDSEC
  0
SECTION
  2
TABLES
  0
TABLE
  2
LTYPE
  70
4
  0
LTYPE
  5
40F
  2
CONTINUOUS
  70
0
  3
Solid line
  72
65
  73
0
  40
0.0
  0
LTYPE
  5
410
  2
DASHDOT
 70
0
  3
Dash Dot ____ _ ____ _
 72
65
 73
4
 40
2.0
 49
1.25
 49
-0.25
 49
0.25
 49
-0.25
  0
LTYPE
  5
411
  2
DASHED
 70
0
  3
Dashed __ __ __ __ __
 72
65
 73
2
 40
0.75
 49
0.5
 49
-0.25
  0
LTYPE
  5
43B
  2
DOTTED
 70
0
  3
Dotted .  .  .  .
 72
65
 73
2
 40
0.2
 49
0.0
 49
-0.2
  0
ENDTAB
  0
TABLE
  2
STYLE
  70
4
  0
STYLE
  2
KICAD
  70
0
  40
0
  41
1
  42
1
  50
0
  71
0
  3
isocp.shx
  0
STYLE
  2
KICADB
  70
0
  40
0
  41
1
  42
1
  50
0
  71
0
  3
isocp.shx
  0
STYLE
  2
KICADI
  70
0
  40
0
  41
1
  42
1
  50
15
  71
0
  3
isocp.shx
  0
STYLE
  2
KICADBI
  70
0
  40
0
  41
1
  42
1
  50
15
  71
0
  3
isocp.shx
  0
ENDTAB
  0
TABLE
  2
LAYER
  70
1
  0
LAYER
  2
BLACK
  70
0
  62
7
  6
CONTINUOUS
  0
ENDTAB
  0
ENDSEC
  0
SECTION
  2
ENTITIES
0
LINE
8
BLACK
6
CONTINUOUS
10
-0.2440721653543307
20
0.0380075984251968
11
-0.2435394881889764
21
0.0374749212598425
0
LINE
8
BLACK
6
CONTINUOUS
10
-0.2435394881889764
20
0.0374749212598425
11
-0.2434645669291338
21
-0.0613269291338583
0
LINE
8
BLACK
6
CONTINUOUS
10
-0.2434645669291338
20
-0.0613269291338583
11
-0.2435394881889764
21
-0.0617035826771654
0
LINE
8
BLACK
6
CONTINUOUS
10
-0.2435394881889764
20
-0.0617035826771654
11
-0.2440721653543307
21
-0.0622362598425197
0
LINE
8
BLACK
6
CONTINUOUS
10
-0.2440721653543307
20
-0.0622362598425197
11
-0.4255511811023622
21
-0.0623111811023622
0
LINE
8
BLACK
6
CONTINUOUS
10
-0.4255511811023622
20
-0.0623111811023622
11
-0.4259278346456693
21
-0.0622362598425197
0
LINE
8
BLACK
6
CONTINUOUS
10
-0.4259278346456693
20
-0.0622362598425197
11
-0.4264605118110236
21
-0.0617035826771654
0
LINE
8
BLACK
6
CONTINUOUS
10
-0.4264605118110236
20
-0.0617035826771654
11
-0.4265354330708661
21
0.0370982677165354
0
LINE
8
BLACK
6
CONTINUOUS
10
-0.4265354330708661
20
0.0370982677165354
11
-0.4264605118110236
21
0.0374749212598425
0
LINE
8
BLACK
6
CONTINUOUS
10
-0.4264605118110236
20
0.0374749212598425
11
-0.4259278346456693
21
0.0380075984251968
0
LINE
8
BLACK
6
CONTINUOUS
10
-0.4259278346456693
20
0.0380075984251968
11
-0.2444488188976378
21
0.0380825196850394
0
LINE
8
BLACK
6
CONTINUOUS
10
-0.2444488188976378
20
0.0380825196850394
11
-0.2440721653543307
21
0.0380075984251968
0
LINE
8
BLACK
6
CONTINUOUS
10
-0.4246408267716535
20
0.0361144094488189
11
-0.4245676377952756
21
-0.0604170078740157
0
LINE
8
BLACK
6
CONTINUOUS
10
-0.4245676377952756
20
-0.0604170078740157
11
-0.2453592125984252
21
-0.060343031496063
0
LINE
8
BLACK
6
CONTINUOUS
10
-0.2453592125984252
20
-0.060343031496063
11
-0.2454324015748031
21
0.0361883858267717
0
LINE
8
BLACK
6
CONTINUOUS
10
-0.2454324015748031
20
0.0361883858267717
11
-0.4246408267716535
21
0.0361144094488189
  0
ENDSEC
  0
EOF
