  0
SECTION
  2
HEADER
  9
$ANGBASE
  50
0.0
  9
$ANGDIR
  70
1
  9
$MEASUREMENT
  70
0
  0
ENDSEC
  0
SECTION
  2
TABLES
  0
TABLE
  2
LTYPE
  70
4
  0
LTYPE
  5
40F
  2
CONTINUOUS
  70
0
  3
Solid line
  72
65
  73
0
  40
0.0
  0
LTYPE
  5
410
  2
DASHDOT
 70
0
  3
Dash Dot ____ _ ____ _
 72
65
 73
4
 40
2.0
 49
1.25
 49
-0.25
 49
0.25
 49
-0.25
  0
LTYPE
  5
411
  2
DASHED
 70
0
  3
Dashed __ __ __ __ __
 72
65
 73
2
 40
0.75
 49
0.5
 49
-0.25
  0
LTYPE
  5
43B
  2
DOTTED
 70
0
  3
Dotted .  .  .  .
 72
65
 73
2
 40
0.2
 49
0.0
 49
-0.2
  0
ENDTAB
  0
TABLE
  2
STYLE
  70
4
  0
STYLE
  2
KICAD
  70
0
  40
0
  41
1
  42
1
  50
0
  71
0
  3
isocp.shx
  0
STYLE
  2
KICADB
  70
0
  40
0
  41
1
  42
1
  50
0
  71
0
  3
isocp.shx
  0
STYLE
  2
KICADI
  70
0
  40
0
  41
1
  42
1
  50
15
  71
0
  3
isocp.shx
  0
STYLE
  2
KICADBI
  70
0
  40
0
  41
1
  42
1
  50
15
  71
0
  3
isocp.shx
  0
ENDTAB
  0
TABLE
  2
LAYER
  70
1
  0
LAYER
  2
BLACK
  70
0
  62
7
  6
CONTINUOUS
  0
ENDTAB
  0
ENDSEC
  0
SECTION
  2
ENTITIES
0
LINE
8
BLACK
6
CONTINUOUS
10
-0.324906968503937
20
-0.2528988188976378
11
-0.3239155905511811
21
-0.2534857874015748
0
LINE
8
BLACK
6
CONTINUOUS
10
-0.3239155905511811
20
-0.2534857874015748
11
-0.3086944094488189
21
-0.2736974015748032
0
LINE
8
BLACK
6
CONTINUOUS
10
-0.3086944094488189
20
-0.2736974015748032
11
-0.3063201968503937
21
-0.271314842519685
0
LINE
8
BLACK
6
CONTINUOUS
10
-0.3063201968503937
20
-0.271314842519685
11
-0.3063423622047244
21
-0.2556842519685039
0
LINE
8
BLACK
6
CONTINUOUS
10
-0.3063423622047244
20
-0.2556842519685039
11
-0.3062856299212598
21
-0.2551081889763779
0
LINE
8
BLACK
6
CONTINUOUS
10
-0.3062856299212598
20
-0.2551081889763779
11
-0.3058447244094488
21
-0.254043779527559
0
LINE
8
BLACK
6
CONTINUOUS
10
-0.3058447244094488
20
-0.254043779527559
11
-0.3050300787401575
21
-0.2532291338582677
0
LINE
8
BLACK
6
CONTINUOUS
10
-0.3050300787401575
20
-0.2532291338582677
11
-0.3039656692913386
21
-0.2527882283464567
0
LINE
8
BLACK
6
CONTINUOUS
10
-0.3039656692913386
20
-0.2527882283464567
11
-0.3028135433070866
21
-0.2527882283464567
0
LINE
8
BLACK
6
CONTINUOUS
10
-0.3028135433070866
20
-0.2527882283464567
11
-0.3017491338582677
21
-0.2532291338582677
0
LINE
8
BLACK
6
CONTINUOUS
10
-0.3017491338582677
20
-0.2532291338582677
11
-0.3009344881889764
21
-0.254043779527559
0
LINE
8
BLACK
6
CONTINUOUS
10
-0.3009344881889764
20
-0.254043779527559
11
-0.3004935826771654
21
-0.2551081889763779
0
LINE
8
BLACK
6
CONTINUOUS
10
-0.3004935826771654
20
-0.2551081889763779
11
-0.3004368503937008
21
-0.2950543307086614
0
LINE
8
BLACK
6
CONTINUOUS
10
-0.3004368503937008
20
-0.2950543307086614
11
-0.3004935826771654
21
-0.2956303937007874
0
LINE
8
BLACK
6
CONTINUOUS
10
-0.3004935826771654
20
-0.2956303937007874
11
-0.3009344881889764
21
-0.2966948031496063
0
LINE
8
BLACK
6
CONTINUOUS
10
-0.3009344881889764
20
-0.2966948031496063
11
-0.3017491338582677
21
-0.2975094488188976
0
LINE
8
BLACK
6
CONTINUOUS
10
-0.3017491338582677
20
-0.2975094488188976
11
-0.3028135433070866
21
-0.2979503543307087
0
LINE
8
BLACK
6
CONTINUOUS
10
-0.3028135433070866
20
-0.2979503543307087
11
-0.3039656692913386
21
-0.2979503543307087
0
LINE
8
BLACK
6
CONTINUOUS
10
-0.3039656692913386
20
-0.2979503543307087
11
-0.3050300787401575
21
-0.2975094488188976
0
LINE
8
BLACK
6
CONTINUOUS
10
-0.3050300787401575
20
-0.2975094488188976
11
-0.3058447244094488
21
-0.2966948031496063
0
LINE
8
BLACK
6
CONTINUOUS
10
-0.3058447244094488
20
-0.2966948031496063
11
-0.3062856299212598
21
-0.2956303937007874
0
LINE
8
BLACK
6
CONTINUOUS
10
-0.3062856299212598
20
-0.2956303937007874
11
-0.3063084251968504
21
-0.2795903937007874
0
LINE
8
BLACK
6
CONTINUOUS
10
-0.3063084251968504
20
-0.2795903937007874
11
-0.3067375196850394
21
-0.2800209842519685
0
LINE
8
BLACK
6
CONTINUOUS
10
-0.3067375196850394
20
-0.2800209842519685
11
-0.3068154330708661
21
-0.2801526377952756
0
LINE
8
BLACK
6
CONTINUOUS
10
-0.3068154330708661
20
-0.2801526377952756
11
-0.3070261811023622
21
-0.2803106692913386
0
LINE
8
BLACK
6
CONTINUOUS
10
-0.3070261811023622
20
-0.2803106692913386
11
-0.3237988582677165
21
-0.2971422440944882
0
LINE
8
BLACK
6
CONTINUOUS
10
-0.3237988582677165
20
-0.2971422440944882
11
-0.3242462992125984
21
-0.2975094488188976
0
LINE
8
BLACK
6
CONTINUOUS
10
-0.3242462992125984
20
-0.2975094488188976
11
-0.3253107480314961
21
-0.2979503543307087
0
LINE
8
BLACK
6
CONTINUOUS
10
-0.3253107480314961
20
-0.2979503543307087
11
-0.3264627952755905
21
-0.2979503543307087
0
LINE
8
BLACK
6
CONTINUOUS
10
-0.3264627952755905
20
-0.2979503543307087
11
-0.3275272440944882
21
-0.2975094488188976
0
LINE
8
BLACK
6
CONTINUOUS
10
-0.3275272440944882
20
-0.2975094488188976
11
-0.3283418897637795
21
-0.2966948031496063
0
LINE
8
BLACK
6
CONTINUOUS
10
-0.3283418897637795
20
-0.2966948031496063
11
-0.3287827952755906
21
-0.2956303543307087
0
LINE
8
BLACK
6
CONTINUOUS
10
-0.3287827952755906
20
-0.2956303543307087
11
-0.3287827952755906
21
-0.2944783070866142
0
LINE
8
BLACK
6
CONTINUOUS
10
-0.3287827952755906
20
-0.2944783070866142
11
-0.3283418897637795
21
-0.2934138582677165
0
LINE
8
BLACK
6
CONTINUOUS
10
-0.3283418897637795
20
-0.2934138582677165
11
-0.3128654330708661
21
-0.2778830708661417
0
LINE
8
BLACK
6
CONTINUOUS
10
-0.3128654330708661
20
-0.2778830708661417
11
-0.3282489763779528
21
-0.257455905511811
0
LINE
8
BLACK
6
CONTINUOUS
10
-0.3282489763779528
20
-0.257455905511811
11
-0.3285492125984252
21
-0.2569610236220473
0
LINE
8
BLACK
6
CONTINUOUS
10
-0.3285492125984252
20
-0.2569610236220473
11
-0.3288351574803149
21
-0.2558449606299212
0
LINE
8
BLACK
6
CONTINUOUS
10
-0.3288351574803149
20
-0.2558449606299212
11
-0.3286722047244094
21
-0.2547044488188976
0
LINE
8
BLACK
6
CONTINUOUS
10
-0.3286722047244094
20
-0.2547044488188976
11
-0.3280852362204724
21
-0.2537130708661417
0
LINE
8
BLACK
6
CONTINUOUS
10
-0.3280852362204724
20
-0.2537130708661417
11
-0.3271635433070866
21
-0.253021811023622
0
LINE
8
BLACK
6
CONTINUOUS
10
-0.3271635433070866
20
-0.253021811023622
11
-0.3260474803149606
21
-0.2527358661417323
0
LINE
8
BLACK
6
CONTINUOUS
10
-0.3260474803149606
20
-0.2527358661417323
11
-0.324906968503937
21
-0.2528988188976378
0
LINE
8
BLACK
6
CONTINUOUS
10
0.0687938188976378
20
-0.2528988188976378
11
0.0697851968503937
21
-0.2534857874015748
0
LINE
8
BLACK
6
CONTINUOUS
10
0.0697851968503937
20
-0.2534857874015748
11
0.0850063779527559
21
-0.2736974015748032
0
LINE
8
BLACK
6
CONTINUOUS
10
0.0850063779527559
20
-0.2736974015748032
11
0.0873805905511811
21
-0.271314842519685
0
LINE
8
BLACK
6
CONTINUOUS
10
0.0873805905511811
20
-0.271314842519685
11
0.0873584251968504
21
-0.2556842519685039
0
LINE
8
BLACK
6
CONTINUOUS
10
0.0873584251968504
20
-0.2556842519685039
11
0.087415157480315
21
-0.2551081889763779
0
LINE
8
BLACK
6
CONTINUOUS
10
0.087415157480315
20
-0.2551081889763779
11
0.087856062992126
21
-0.254043779527559
0
LINE
8
BLACK
6
CONTINUOUS
10
0.087856062992126
20
-0.254043779527559
11
0.0886707086614173
21
-0.2532291338582677
0
LINE
8
BLACK
6
CONTINUOUS
10
0.0886707086614173
20
-0.2532291338582677
11
0.0897351181102362
21
-0.2527882283464567
0
LINE
8
BLACK
6
CONTINUOUS
10
0.0897351181102362
20
-0.2527882283464567
11
0.0908872440944882
21
-0.2527882283464567
0
LINE
8
BLACK
6
CONTINUOUS
10
0.0908872440944882
20
-0.2527882283464567
11
0.0919516535433071
21
-0.2532291338582677
0
LINE
8
BLACK
6
CONTINUOUS
10
0.0919516535433071
20
-0.2532291338582677
11
0.0927662992125984
21
-0.254043779527559
0
LINE
8
BLACK
6
CONTINUOUS
10
0.0927662992125984
20
-0.254043779527559
11
0.0932072047244095
21
-0.2551081889763779
0
LINE
8
BLACK
6
CONTINUOUS
10
0.0932072047244095
20
-0.2551081889763779
11
0.093263937007874
21
-0.2950543307086614
0
LINE
8
BLACK
6
CONTINUOUS
10
0.093263937007874
20
-0.2950543307086614
11
0.0932072047244095
21
-0.2956303937007874
0
LINE
8
BLACK
6
CONTINUOUS
10
0.0932072047244095
20
-0.2956303937007874
11
0.0927662992125984
21
-0.2966948031496063
0
LINE
8
BLACK
6
CONTINUOUS
10
0.0927662992125984
20
-0.2966948031496063
11
0.0919516535433071
21
-0.2975094488188976
0
LINE
8
BLACK
6
CONTINUOUS
10
0.0919516535433071
20
-0.2975094488188976
11
0.0908872440944882
21
-0.2979503543307087
0
LINE
8
BLACK
6
CONTINUOUS
10
0.0908872440944882
20
-0.2979503543307087
11
0.0897351181102362
21
-0.2979503543307087
0
LINE
8
BLACK
6
CONTINUOUS
10
0.0897351181102362
20
-0.2979503543307087
11
0.0886707086614173
21
-0.2975094488188976
0
LINE
8
BLACK
6
CONTINUOUS
10
0.0886707086614173
20
-0.2975094488188976
11
0.087856062992126
21
-0.2966948031496063
0
LINE
8
BLACK
6
CONTINUOUS
10
0.087856062992126
20
-0.2966948031496063
11
0.087415157480315
21
-0.2956303937007874
0
LINE
8
BLACK
6
CONTINUOUS
10
0.087415157480315
20
-0.2956303937007874
11
0.0873923622047244
21
-0.2795903937007874
0
LINE
8
BLACK
6
CONTINUOUS
10
0.0873923622047244
20
-0.2795903937007874
11
0.0869632677165354
21
-0.2800209842519685
0
LINE
8
BLACK
6
CONTINUOUS
10
0.0869632677165354
20
-0.2800209842519685
11
0.0868853543307087
21
-0.2801526377952756
0
LINE
8
BLACK
6
CONTINUOUS
10
0.0868853543307087
20
-0.2801526377952756
11
0.0866746062992126
21
-0.2803106692913386
0
LINE
8
BLACK
6
CONTINUOUS
10
0.0866746062992126
20
-0.2803106692913386
11
0.0699019291338583
21
-0.2971422440944882
0
LINE
8
BLACK
6
CONTINUOUS
10
0.0699019291338583
20
-0.2971422440944882
11
0.0694544881889764
21
-0.2975094488188976
0
LINE
8
BLACK
6
CONTINUOUS
10
0.0694544881889764
20
-0.2975094488188976
11
0.0683900393700787
21
-0.2979503543307087
0
LINE
8
BLACK
6
CONTINUOUS
10
0.0683900393700787
20
-0.2979503543307087
11
0.0672379921259842
21
-0.2979503543307087
0
LINE
8
BLACK
6
CONTINUOUS
10
0.0672379921259842
20
-0.2979503543307087
11
0.0661735433070866
21
-0.2975094488188976
0
LINE
8
BLACK
6
CONTINUOUS
10
0.0661735433070866
20
-0.2975094488188976
11
0.0653588976377953
21
-0.2966948031496063
0
LINE
8
BLACK
6
CONTINUOUS
10
0.0653588976377953
20
-0.2966948031496063
11
0.0649179921259842
21
-0.2956303543307087
0
LINE
8
BLACK
6
CONTINUOUS
10
0.0649179921259842
20
-0.2956303543307087
11
0.0649179921259842
21
-0.2944783070866142
0
LINE
8
BLACK
6
CONTINUOUS
10
0.0649179921259842
20
-0.2944783070866142
11
0.0653588976377953
21
-0.2934138582677165
0
LINE
8
BLACK
6
CONTINUOUS
10
0.0653588976377953
20
-0.2934138582677165
11
0.0808353543307087
21
-0.2778830708661417
0
LINE
8
BLACK
6
CONTINUOUS
10
0.0808353543307087
20
-0.2778830708661417
11
0.065451811023622
21
-0.257455905511811
0
LINE
8
BLACK
6
CONTINUOUS
10
0.065451811023622
20
-0.257455905511811
11
0.0651515748031496
21
-0.2569610236220473
0
LINE
8
BLACK
6
CONTINUOUS
10
0.0651515748031496
20
-0.2569610236220473
11
0.0648656299212598
21
-0.2558449606299212
0
LINE
8
BLACK
6
CONTINUOUS
10
0.0648656299212598
20
-0.2558449606299212
11
0.0650285826771654
21
-0.2547044488188976
0
LINE
8
BLACK
6
CONTINUOUS
10
0.0650285826771654
20
-0.2547044488188976
11
0.0656155511811024
21
-0.2537130708661417
0
LINE
8
BLACK
6
CONTINUOUS
10
0.0656155511811024
20
-0.2537130708661417
11
0.0665372440944882
21
-0.253021811023622
0
LINE
8
BLACK
6
CONTINUOUS
10
0.0665372440944882
20
-0.253021811023622
11
0.0676533070866142
21
-0.2527358661417323
0
LINE
8
BLACK
6
CONTINUOUS
10
0.0676533070866142
20
-0.2527358661417323
11
0.0687938188976378
21
-0.2528988188976378
  0
ENDSEC
  0
EOF
