  0
SECTION
  2
HEADER
  9
$ANGBASE
  50
0.0
  9
$ANGDIR
  70
1
  9
$MEASUREMENT
  70
0
  0
ENDSEC
  0
SECTION
  2
TABLES
  0
TABLE
  2
LTYPE
  70
4
  0
LTYPE
  5
40F
  2
CONTINUOUS
  70
0
  3
Solid line
  72
65
  73
0
  40
0.0
  0
LTYPE
  5
410
  2
DASHDOT
 70
0
  3
Dash Dot ____ _ ____ _
 72
65
 73
4
 40
2.0
 49
1.25
 49
-0.25
 49
0.25
 49
-0.25
  0
LTYPE
  5
411
  2
DASHED
 70
0
  3
Dashed __ __ __ __ __
 72
65
 73
2
 40
0.75
 49
0.5
 49
-0.25
  0
LTYPE
  5
43B
  2
DOTTED
 70
0
  3
Dotted .  .  .  .
 72
65
 73
2
 40
0.2
 49
0.0
 49
-0.2
  0
ENDTAB
  0
TABLE
  2
STYLE
  70
4
  0
STYLE
  2
KICAD
  70
0
  40
0
  41
1
  42
1
  50
0
  71
0
  3
isocp.shx
  0
STYLE
  2
KICADB
  70
0
  40
0
  41
1
  42
1
  50
0
  71
0
  3
isocp.shx
  0
STYLE
  2
KICADI
  70
0
  40
0
  41
1
  42
1
  50
15
  71
0
  3
isocp.shx
  0
STYLE
  2
KICADBI
  70
0
  40
0
  41
1
  42
1
  50
15
  71
0
  3
isocp.shx
  0
ENDTAB
  0
TABLE
  2
LAYER
  70
1
  0
LAYER
  2
BLACK
  70
0
  62
7
  6
CONTINUOUS
  0
ENDTAB
  0
ENDSEC
  0
SECTION
  2
ENTITIES
0
LINE
8
BLACK
6
CONTINUOUS
10
0.520613
20
-0.255124
11
0.522775
21
-0.257285
0
LINE
8
BLACK
6
CONTINUOUS
10
0.522775
20
-0.257285
11
0.523566
21
-0.260238
0
LINE
8
BLACK
6
CONTINUOUS
10
0.523566
20
-0.260238
11
0.523566
21
-0.271205
0
LINE
8
BLACK
6
CONTINUOUS
10
0.523566
20
-0.271205
11
0.576715
21
-0.271205
0
LINE
8
BLACK
6
CONTINUOUS
10
0.576715
20
-0.271205
11
0.579668
21
-0.271997
0
LINE
8
BLACK
6
CONTINUOUS
10
0.579668
20
-0.271997
11
0.58183
21
-0.274158
0
LINE
8
BLACK
6
CONTINUOUS
10
0.58183
20
-0.274158
11
0.582621
21
-0.277111
0
LINE
8
BLACK
6
CONTINUOUS
10
0.582621
20
-0.277111
11
0.58183
21
-0.280064
0
LINE
8
BLACK
6
CONTINUOUS
10
0.58183
20
-0.280064
11
0.579668
21
-0.282225
0
LINE
8
BLACK
6
CONTINUOUS
10
0.579668
20
-0.282225
11
0.576715
21
-0.283016
0
LINE
8
BLACK
6
CONTINUOUS
10
0.576715
20
-0.283016
11
0.523566
21
-0.283016
0
LINE
8
BLACK
6
CONTINUOUS
10
0.523566
20
-0.283016
11
0.523566
21
-0.293984
0
LINE
8
BLACK
6
CONTINUOUS
10
0.523566
20
-0.293984
11
0.522775
21
-0.296937
0
LINE
8
BLACK
6
CONTINUOUS
10
0.522775
20
-0.296937
11
0.520613
21
-0.299098
0
LINE
8
BLACK
6
CONTINUOUS
10
0.520613
20
-0.299098
11
0.51766
21
-0.299889
0
LINE
8
BLACK
6
CONTINUOUS
10
0.51766
20
-0.299889
11
0.514708
21
-0.299098
0
LINE
8
BLACK
6
CONTINUOUS
10
0.514708
20
-0.299098
11
0.512546
21
-0.296937
0
LINE
8
BLACK
6
CONTINUOUS
10
0.512546
20
-0.296937
11
0.511755
21
-0.293984
0
LINE
8
BLACK
6
CONTINUOUS
10
0.511755
20
-0.293984
11
0.511755
21
-0.260238
0
LINE
8
BLACK
6
CONTINUOUS
10
0.511755
20
-0.260238
11
0.512546
21
-0.257285
0
LINE
8
BLACK
6
CONTINUOUS
10
0.512546
20
-0.257285
11
0.514708
21
-0.255124
0
LINE
8
BLACK
6
CONTINUOUS
10
0.514708
20
-0.255124
11
0.51766
21
-0.254333
0
LINE
8
BLACK
6
CONTINUOUS
10
0.51766
20
-0.254333
11
0.520613
21
-0.255124
0
LINE
8
BLACK
6
CONTINUOUS
10
0.579668
20
-0.210129
11
0.58183
21
-0.212291
0
LINE
8
BLACK
6
CONTINUOUS
10
0.58183
20
-0.212291
11
0.582621
21
-0.215244
0
LINE
8
BLACK
6
CONTINUOUS
10
0.582621
20
-0.215244
11
0.58183
21
-0.218196
0
LINE
8
BLACK
6
CONTINUOUS
10
0.58183
20
-0.218196
11
0.579668
21
-0.220358
0
LINE
8
BLACK
6
CONTINUOUS
10
0.579668
20
-0.220358
11
0.576715
21
-0.221149
0
LINE
8
BLACK
6
CONTINUOUS
10
0.576715
20
-0.221149
11
0.547176
21
-0.221149
0
LINE
8
BLACK
6
CONTINUOUS
10
0.547176
20
-0.221149
11
0.544559
21
-0.222458
0
LINE
8
BLACK
6
CONTINUOUS
10
0.544559
20
-0.222458
11
0.543251
21
-0.225074
0
LINE
8
BLACK
6
CONTINUOUS
10
0.543251
20
-0.225074
11
0.543251
21
-0.230722
0
LINE
8
BLACK
6
CONTINUOUS
10
0.543251
20
-0.230722
11
0.545011
21
-0.234243
0
LINE
8
BLACK
6
CONTINUOUS
10
0.545011
20
-0.234243
11
0.545416
21
-0.234647
0
LINE
8
BLACK
6
CONTINUOUS
10
0.545416
20
-0.234647
11
0.576715
21
-0.234647
0
LINE
8
BLACK
6
CONTINUOUS
10
0.576715
20
-0.234647
11
0.579668
21
-0.235439
0
LINE
8
BLACK
6
CONTINUOUS
10
0.579668
20
-0.235439
11
0.58183
21
-0.2376
0
LINE
8
BLACK
6
CONTINUOUS
10
0.58183
20
-0.2376
11
0.582621
21
-0.240553
0
LINE
8
BLACK
6
CONTINUOUS
10
0.582621
20
-0.240553
11
0.58183
21
-0.243506
0
LINE
8
BLACK
6
CONTINUOUS
10
0.58183
20
-0.243506
11
0.579668
21
-0.245667
0
LINE
8
BLACK
6
CONTINUOUS
10
0.579668
20
-0.245667
11
0.576715
21
-0.246459
0
LINE
8
BLACK
6
CONTINUOUS
10
0.576715
20
-0.246459
11
0.51766
21
-0.246459
0
LINE
8
BLACK
6
CONTINUOUS
10
0.51766
20
-0.246459
11
0.514708
21
-0.245667
0
LINE
8
BLACK
6
CONTINUOUS
10
0.514708
20
-0.245667
11
0.512546
21
-0.243506
0
LINE
8
BLACK
6
CONTINUOUS
10
0.512546
20
-0.243506
11
0.511755
21
-0.240553
0
LINE
8
BLACK
6
CONTINUOUS
10
0.511755
20
-0.240553
11
0.512546
21
-0.2376
0
LINE
8
BLACK
6
CONTINUOUS
10
0.512546
20
-0.2376
11
0.514708
21
-0.235439
0
LINE
8
BLACK
6
CONTINUOUS
10
0.514708
20
-0.235439
11
0.51766
21
-0.234647
0
LINE
8
BLACK
6
CONTINUOUS
10
0.51766
20
-0.234647
11
0.532041
21
-0.234647
0
LINE
8
BLACK
6
CONTINUOUS
10
0.532041
20
-0.234647
11
0.531791
21
-0.233428
0
LINE
8
BLACK
6
CONTINUOUS
10
0.531791
20
-0.233428
11
0.53144
21
-0.232117
0
LINE
8
BLACK
6
CONTINUOUS
10
0.53144
20
-0.232117
11
0.53144
21
-0.22368
0
LINE
8
BLACK
6
CONTINUOUS
10
0.53144
20
-0.22368
11
0.531791
21
-0.222369
0
LINE
8
BLACK
6
CONTINUOUS
10
0.531791
20
-0.222369
11
0.532063
21
-0.221039
0
LINE
8
BLACK
6
CONTINUOUS
10
0.532063
20
-0.221039
11
0.534875
21
-0.215415
0
LINE
8
BLACK
6
CONTINUOUS
10
0.534875
20
-0.215415
11
0.535115
21
-0.215145
0
LINE
8
BLACK
6
CONTINUOUS
10
0.535115
20
-0.215145
11
0.535229
21
-0.214802
0
LINE
8
BLACK
6
CONTINUOUS
10
0.535229
20
-0.214802
11
0.536117
21
-0.214015
0
LINE
8
BLACK
6
CONTINUOUS
10
0.536117
20
-0.214015
11
0.536904
21
-0.213128
0
LINE
8
BLACK
6
CONTINUOUS
10
0.536904
20
-0.213128
11
0.537246
21
-0.213013
0
LINE
8
BLACK
6
CONTINUOUS
10
0.537246
20
-0.213013
11
0.537516
21
-0.212774
0
LINE
8
BLACK
6
CONTINUOUS
10
0.537516
20
-0.212774
11
0.543141
21
-0.209962
0
LINE
8
BLACK
6
CONTINUOUS
10
0.543141
20
-0.209962
11
0.544471
21
-0.209689
0
LINE
8
BLACK
6
CONTINUOUS
10
0.544471
20
-0.209689
11
0.545782
21
-0.209338
0
LINE
8
BLACK
6
CONTINUOUS
10
0.545782
20
-0.209338
11
0.576715
21
-0.209338
0
LINE
8
BLACK
6
CONTINUOUS
10
0.576715
20
-0.209338
11
0.579668
21
-0.210129
0
LINE
8
BLACK
6
CONTINUOUS
10
0.579668
20
-0.156699
11
0.58183
21
-0.15886
0
LINE
8
BLACK
6
CONTINUOUS
10
0.58183
20
-0.15886
11
0.582621
21
-0.161813
0
LINE
8
BLACK
6
CONTINUOUS
10
0.582621
20
-0.161813
11
0.58183
21
-0.164766
0
LINE
8
BLACK
6
CONTINUOUS
10
0.58183
20
-0.164766
11
0.580994
21
-0.165601
0
LINE
8
BLACK
6
CONTINUOUS
10
0.580994
20
-0.165601
11
0.581997
21
-0.167608
0
LINE
8
BLACK
6
CONTINUOUS
10
0.581997
20
-0.167608
11
0.58227
21
-0.168938
0
LINE
8
BLACK
6
CONTINUOUS
10
0.58227
20
-0.168938
11
0.582621
21
-0.170249
0
LINE
8
BLACK
6
CONTINUOUS
10
0.582621
20
-0.170249
11
0.582621
21
-0.178686
0
LINE
8
BLACK
6
CONTINUOUS
10
0.582621
20
-0.178686
11
0.58227
21
-0.179997
0
LINE
8
BLACK
6
CONTINUOUS
10
0.58227
20
-0.179997
11
0.581997
21
-0.181327
0
LINE
8
BLACK
6
CONTINUOUS
10
0.581997
20
-0.181327
11
0.579185
21
-0.186951
0
LINE
8
BLACK
6
CONTINUOUS
10
0.579185
20
-0.186951
11
0.578946
21
-0.187221
0
LINE
8
BLACK
6
CONTINUOUS
10
0.578946
20
-0.187221
11
0.578831
21
-0.187564
0
LINE
8
BLACK
6
CONTINUOUS
10
0.578831
20
-0.187564
11
0.577944
21
-0.188351
0
LINE
8
BLACK
6
CONTINUOUS
10
0.577944
20
-0.188351
11
0.577157
21
-0.189238
0
LINE
8
BLACK
6
CONTINUOUS
10
0.577157
20
-0.189238
11
0.576814
21
-0.189352
0
LINE
8
BLACK
6
CONTINUOUS
10
0.576814
20
-0.189352
11
0.576544
21
-0.189592
0
LINE
8
BLACK
6
CONTINUOUS
10
0.576544
20
-0.189592
11
0.57092
21
-0.192404
0
LINE
8
BLACK
6
CONTINUOUS
10
0.57092
20
-0.192404
11
0.56959
21
-0.192676
0
LINE
8
BLACK
6
CONTINUOUS
10
0.56959
20
-0.192676
11
0.568279
21
-0.193028
0
LINE
8
BLACK
6
CONTINUOUS
10
0.568279
20
-0.193028
11
0.537345
21
-0.193028
0
LINE
8
BLACK
6
CONTINUOUS
10
0.537345
20
-0.193028
11
0.534393
21
-0.192237
0
LINE
8
BLACK
6
CONTINUOUS
10
0.534393
20
-0.192237
11
0.532231
21
-0.190075
0
LINE
8
BLACK
6
CONTINUOUS
10
0.532231
20
-0.190075
11
0.53144
21
-0.187122
0
LINE
8
BLACK
6
CONTINUOUS
10
0.53144
20
-0.187122
11
0.532231
21
-0.184169
0
LINE
8
BLACK
6
CONTINUOUS
10
0.532231
20
-0.184169
11
0.534393
21
-0.182008
0
LINE
8
BLACK
6
CONTINUOUS
10
0.534393
20
-0.182008
11
0.537345
21
-0.181217
0
LINE
8
BLACK
6
CONTINUOUS
10
0.537345
20
-0.181217
11
0.566885
21
-0.181217
0
LINE
8
BLACK
6
CONTINUOUS
10
0.566885
20
-0.181217
11
0.569502
21
-0.179908
0
LINE
8
BLACK
6
CONTINUOUS
10
0.569502
20
-0.179908
11
0.57081
21
-0.177292
0
LINE
8
BLACK
6
CONTINUOUS
10
0.57081
20
-0.177292
11
0.57081
21
-0.171643
0
LINE
8
BLACK
6
CONTINUOUS
10
0.57081
20
-0.171643
11
0.56905
21
-0.168123
0
LINE
8
BLACK
6
CONTINUOUS
10
0.56905
20
-0.168123
11
0.568645
21
-0.167718
0
LINE
8
BLACK
6
CONTINUOUS
10
0.568645
20
-0.167718
11
0.537345
21
-0.167718
0
LINE
8
BLACK
6
CONTINUOUS
10
0.537345
20
-0.167718
11
0.534393
21
-0.166927
0
LINE
8
BLACK
6
CONTINUOUS
10
0.534393
20
-0.166927
11
0.532231
21
-0.164766
0
LINE
8
BLACK
6
CONTINUOUS
10
0.532231
20
-0.164766
11
0.53144
21
-0.161813
0
LINE
8
BLACK
6
CONTINUOUS
10
0.53144
20
-0.161813
11
0.532231
21
-0.15886
0
LINE
8
BLACK
6
CONTINUOUS
10
0.532231
20
-0.15886
11
0.534393
21
-0.156699
0
LINE
8
BLACK
6
CONTINUOUS
10
0.534393
20
-0.156699
11
0.537345
21
-0.155907
0
LINE
8
BLACK
6
CONTINUOUS
10
0.537345
20
-0.155907
11
0.576715
21
-0.155907
0
LINE
8
BLACK
6
CONTINUOUS
10
0.576715
20
-0.155907
11
0.579668
21
-0.156699
0
LINE
8
BLACK
6
CONTINUOUS
10
0.579668
20
-0.103268
11
0.58183
21
-0.105429
0
LINE
8
BLACK
6
CONTINUOUS
10
0.58183
20
-0.105429
11
0.582621
21
-0.108382
0
LINE
8
BLACK
6
CONTINUOUS
10
0.582621
20
-0.108382
11
0.58183
21
-0.111335
0
LINE
8
BLACK
6
CONTINUOUS
10
0.58183
20
-0.111335
11
0.579668
21
-0.113496
0
LINE
8
BLACK
6
CONTINUOUS
10
0.579668
20
-0.113496
11
0.576715
21
-0.114288
0
LINE
8
BLACK
6
CONTINUOUS
10
0.576715
20
-0.114288
11
0.547176
21
-0.114288
0
LINE
8
BLACK
6
CONTINUOUS
10
0.547176
20
-0.114288
11
0.544559
21
-0.115596
0
LINE
8
BLACK
6
CONTINUOUS
10
0.544559
20
-0.115596
11
0.543251
21
-0.118213
0
LINE
8
BLACK
6
CONTINUOUS
10
0.543251
20
-0.118213
11
0.543251
21
-0.123861
0
LINE
8
BLACK
6
CONTINUOUS
10
0.543251
20
-0.123861
11
0.545011
21
-0.127381
0
LINE
8
BLACK
6
CONTINUOUS
10
0.545011
20
-0.127381
11
0.545416
21
-0.127786
0
LINE
8
BLACK
6
CONTINUOUS
10
0.545416
20
-0.127786
11
0.576715
21
-0.127786
0
LINE
8
BLACK
6
CONTINUOUS
10
0.576715
20
-0.127786
11
0.579668
21
-0.128577
0
LINE
8
BLACK
6
CONTINUOUS
10
0.579668
20
-0.128577
11
0.58183
21
-0.130739
0
LINE
8
BLACK
6
CONTINUOUS
10
0.58183
20
-0.130739
11
0.582621
21
-0.133691
0
LINE
8
BLACK
6
CONTINUOUS
10
0.582621
20
-0.133691
11
0.58183
21
-0.136644
0
LINE
8
BLACK
6
CONTINUOUS
10
0.58183
20
-0.136644
11
0.579668
21
-0.138806
0
LINE
8
BLACK
6
CONTINUOUS
10
0.579668
20
-0.138806
11
0.576715
21
-0.139597
0
LINE
8
BLACK
6
CONTINUOUS
10
0.576715
20
-0.139597
11
0.537345
21
-0.139597
0
LINE
8
BLACK
6
CONTINUOUS
10
0.537345
20
-0.139597
11
0.534393
21
-0.138806
0
LINE
8
BLACK
6
CONTINUOUS
10
0.534393
20
-0.138806
11
0.532231
21
-0.136644
0
LINE
8
BLACK
6
CONTINUOUS
10
0.532231
20
-0.136644
11
0.53144
21
-0.133691
0
LINE
8
BLACK
6
CONTINUOUS
10
0.53144
20
-0.133691
11
0.532231
21
-0.130739
0
LINE
8
BLACK
6
CONTINUOUS
10
0.532231
20
-0.130739
11
0.533067
21
-0.129903
0
LINE
8
BLACK
6
CONTINUOUS
10
0.533067
20
-0.129903
11
0.532063
21
-0.127896
0
LINE
8
BLACK
6
CONTINUOUS
10
0.532063
20
-0.127896
11
0.531791
21
-0.126566
0
LINE
8
BLACK
6
CONTINUOUS
10
0.531791
20
-0.126566
11
0.53144
21
-0.125255
0
LINE
8
BLACK
6
CONTINUOUS
10
0.53144
20
-0.125255
11
0.53144
21
-0.116818
0
LINE
8
BLACK
6
CONTINUOUS
10
0.53144
20
-0.116818
11
0.531791
21
-0.115507
0
LINE
8
BLACK
6
CONTINUOUS
10
0.531791
20
-0.115507
11
0.532063
21
-0.114177
0
LINE
8
BLACK
6
CONTINUOUS
10
0.532063
20
-0.114177
11
0.534875
21
-0.108553
0
LINE
8
BLACK
6
CONTINUOUS
10
0.534875
20
-0.108553
11
0.535115
21
-0.108283
0
LINE
8
BLACK
6
CONTINUOUS
10
0.535115
20
-0.108283
11
0.535229
21
-0.10794
0
LINE
8
BLACK
6
CONTINUOUS
10
0.535229
20
-0.10794
11
0.536117
21
-0.107153
0
LINE
8
BLACK
6
CONTINUOUS
10
0.536117
20
-0.107153
11
0.536904
21
-0.106266
0
LINE
8
BLACK
6
CONTINUOUS
10
0.536904
20
-0.106266
11
0.537246
21
-0.106152
0
LINE
8
BLACK
6
CONTINUOUS
10
0.537246
20
-0.106152
11
0.537516
21
-0.105912
0
LINE
8
BLACK
6
CONTINUOUS
10
0.537516
20
-0.105912
11
0.543141
21
-0.1031
0
LINE
8
BLACK
6
CONTINUOUS
10
0.543141
20
-0.1031
11
0.544471
21
-0.102828
0
LINE
8
BLACK
6
CONTINUOUS
10
0.544471
20
-0.102828
11
0.545782
21
-0.102477
0
LINE
8
BLACK
6
CONTINUOUS
10
0.545782
20
-0.102477
11
0.576715
21
-0.102477
0
LINE
8
BLACK
6
CONTINUOUS
10
0.576715
20
-0.102477
11
0.579668
21
-0.103268
0
LINE
8
BLACK
6
CONTINUOUS
10
0.579668
20
-0.0498369
11
0.58183
21
-0.0519985
0
LINE
8
BLACK
6
CONTINUOUS
10
0.58183
20
-0.0519985
11
0.582621
21
-0.0549512
0
LINE
8
BLACK
6
CONTINUOUS
10
0.582621
20
-0.0549512
11
0.581883
21
-0.0577054
0
LINE
8
BLACK
6
CONTINUOUS
10
0.581883
20
-0.0577054
11
0.581997
21
-0.0579344
0
LINE
8
BLACK
6
CONTINUOUS
10
0.581997
20
-0.0579344
11
0.58227
21
-0.0592645
0
LINE
8
BLACK
6
CONTINUOUS
10
0.58227
20
-0.0592645
11
0.582621
21
-0.0605755
0
LINE
8
BLACK
6
CONTINUOUS
10
0.582621
20
-0.0605755
11
0.582621
21
-0.0718241
0
LINE
8
BLACK
6
CONTINUOUS
10
0.582621
20
-0.0718241
11
0.58227
21
-0.0731351
0
LINE
8
BLACK
6
CONTINUOUS
10
0.58227
20
-0.0731351
11
0.581997
21
-0.0744652
0
LINE
8
BLACK
6
CONTINUOUS
10
0.581997
20
-0.0744652
11
0.579185
21
-0.0800894
0
LINE
8
BLACK
6
CONTINUOUS
10
0.579185
20
-0.0800894
11
0.578554
21
-0.0808007
0
LINE
8
BLACK
6
CONTINUOUS
10
0.578554
20
-0.0808007
11
0.578079
21
-0.0816242
0
LINE
8
BLACK
6
CONTINUOUS
10
0.578079
20
-0.0816242
11
0.575267
21
-0.0844363
0
LINE
8
BLACK
6
CONTINUOUS
10
0.575267
20
-0.0844363
11
0.574444
21
-0.0849118
0
LINE
8
BLACK
6
CONTINUOUS
10
0.574444
20
-0.0849118
11
0.573732
21
-0.0855426
0
LINE
8
BLACK
6
CONTINUOUS
10
0.573732
20
-0.0855426
11
0.568108
21
-0.0883547
0
LINE
8
BLACK
6
CONTINUOUS
10
0.568108
20
-0.0883547
11
0.566778
21
-0.0886269
0
LINE
8
BLACK
6
CONTINUOUS
10
0.566778
20
-0.0886269
11
0.565467
21
-0.0889782
0
LINE
8
BLACK
6
CONTINUOUS
10
0.565467
20
-0.0889782
11
0.548594
21
-0.0889782
0
LINE
8
BLACK
6
CONTINUOUS
10
0.548594
20
-0.0889782
11
0.547283
21
-0.0886269
0
LINE
8
BLACK
6
CONTINUOUS
10
0.547283
20
-0.0886269
11
0.545953
21
-0.0883547
0
LINE
8
BLACK
6
CONTINUOUS
10
0.545953
20
-0.0883547
11
0.540329
21
-0.0855426
0
LINE
8
BLACK
6
CONTINUOUS
10
0.540329
20
-0.0855426
11
0.539617
21
-0.0849118
0
LINE
8
BLACK
6
CONTINUOUS
10
0.539617
20
-0.0849118
11
0.538794
21
-0.0844363
0
LINE
8
BLACK
6
CONTINUOUS
10
0.538794
20
-0.0844363
11
0.535982
21
-0.0816242
0
LINE
8
BLACK
6
CONTINUOUS
10
0.535982
20
-0.0816242
11
0.535506
21
-0.0808007
0
LINE
8
BLACK
6
CONTINUOUS
10
0.535506
20
-0.0808007
11
0.534875
21
-0.0800894
0
LINE
8
BLACK
6
CONTINUOUS
10
0.534875
20
-0.0800894
11
0.532063
21
-0.0744651
0
LINE
8
BLACK
6
CONTINUOUS
10
0.532063
20
-0.0744651
11
0.531791
21
-0.0731352
0
LINE
8
BLACK
6
CONTINUOUS
10
0.531791
20
-0.0731352
11
0.53144
21
-0.0718241
0
LINE
8
BLACK
6
CONTINUOUS
10
0.53144
20
-0.0718241
11
0.53144
21
-0.0608567
0
LINE
8
BLACK
6
CONTINUOUS
10
0.53144
20
-0.0608567
11
0.51766
21
-0.0608567
0
LINE
8
BLACK
6
CONTINUOUS
10
0.51766
20
-0.0608567
11
0.514708
21
-0.0600656
0
LINE
8
BLACK
6
CONTINUOUS
10
0.514708
20
-0.0600656
11
0.512546
21
-0.057904
0
LINE
8
BLACK
6
CONTINUOUS
10
0.512546
20
-0.057904
11
0.511755
21
-0.0549512
0
LINE
8
BLACK
6
CONTINUOUS
10
0.511755
20
-0.0549512
11
0.512546
21
-0.0519985
0
LINE
8
BLACK
6
CONTINUOUS
10
0.512546
20
-0.0519985
11
0.514708
21
-0.0498369
0
LINE
8
BLACK
6
CONTINUOUS
10
0.514708
20
-0.0498369
11
0.51766
21
-0.0490457
0
LINE
8
BLACK
6
CONTINUOUS
10
0.51766
20
-0.0490457
11
0.576715
21
-0.0490457
0
LINE
8
BLACK
6
CONTINUOUS
10
0.576715
20
-0.0490457
11
0.579668
21
-0.0498369
0
LINE
8
BLACK
6
CONTINUOUS
10
0.543807
20
-0.0608567
11
0.543251
21
-0.0619696
0
LINE
8
BLACK
6
CONTINUOUS
10
0.543251
20
-0.0619696
11
0.543251
21
-0.07043
0
LINE
8
BLACK
6
CONTINUOUS
10
0.543251
20
-0.07043
11
0.545011
21
-0.0739502
0
LINE
8
BLACK
6
CONTINUOUS
10
0.545011
20
-0.0739502
11
0.546468
21
-0.0754071
0
LINE
8
BLACK
6
CONTINUOUS
10
0.546468
20
-0.0754071
11
0.549988
21
-0.0771672
0
LINE
8
BLACK
6
CONTINUOUS
10
0.549988
20
-0.0771672
11
0.564073
21
-0.0771672
0
LINE
8
BLACK
6
CONTINUOUS
10
0.564073
20
-0.0771672
11
0.567593
21
-0.0754071
0
LINE
8
BLACK
6
CONTINUOUS
10
0.567593
20
-0.0754071
11
0.56905
21
-0.0739502
0
LINE
8
BLACK
6
CONTINUOUS
10
0.56905
20
-0.0739502
11
0.57081
21
-0.07043
0
LINE
8
BLACK
6
CONTINUOUS
10
0.57081
20
-0.07043
11
0.57081
21
-0.0619696
0
LINE
8
BLACK
6
CONTINUOUS
10
0.57081
20
-0.0619696
11
0.570253
21
-0.0608567
0
LINE
8
BLACK
6
CONTINUOUS
10
0.570253
20
-0.0608567
11
0.543807
21
-0.0608567
0
LINE
8
BLACK
6
CONTINUOUS
10
0.552337
20
0.00413571
11
0.553298
21
0.0040737
0
LINE
8
BLACK
6
CONTINUOUS
10
0.553298
20
0.0040737
11
0.553789
21
0.00374657
0
LINE
8
BLACK
6
CONTINUOUS
10
0.553789
20
0.00374657
11
0.554359
21
0.00359394
0
LINE
8
BLACK
6
CONTINUOUS
10
0.554359
20
0.00359394
11
0.55504
21
0.00291256
0
LINE
8
BLACK
6
CONTINUOUS
10
0.55504
20
0.00291256
11
0.555842
21
0.00237803
0
LINE
8
BLACK
6
CONTINUOUS
10
0.555842
20
0.00237803
11
0.556103
21
0.00184937
0
LINE
8
BLACK
6
CONTINUOUS
10
0.556103
20
0.00184937
11
0.55652
21
0.00143236
0
LINE
8
BLACK
6
CONTINUOUS
10
0.55652
20
0.00143236
11
0.55677
21
0.000501535
0
LINE
8
BLACK
6
CONTINUOUS
10
0.55677
20
0.000501535
11
0.557197
21
-0.000362244
0
LINE
8
BLACK
6
CONTINUOUS
10
0.557197
20
-0.000362244
11
0.561872
21
-0.0237364
0
LINE
8
BLACK
6
CONTINUOUS
10
0.561872
20
-0.0237364
11
0.566885
21
-0.0237364
0
LINE
8
BLACK
6
CONTINUOUS
10
0.566885
20
-0.0237364
11
0.569502
21
-0.022428
0
LINE
8
BLACK
6
CONTINUOUS
10
0.569502
20
-0.022428
11
0.57081
21
-0.0198113
0
LINE
8
BLACK
6
CONTINUOUS
10
0.57081
20
-0.0198113
11
0.57081
21
-0.0113509
0
LINE
8
BLACK
6
CONTINUOUS
10
0.57081
20
-0.0113509
11
0.568621
21
-0.00697354
0
LINE
8
BLACK
6
CONTINUOUS
10
0.568621
20
-0.00697354
11
0.568008
21
-0.0039787
0
LINE
8
BLACK
6
CONTINUOUS
10
0.568008
20
-0.0039787
11
0.568975
21
-0.00107862
0
LINE
8
BLACK
6
CONTINUOUS
10
0.568975
20
-0.00107862
11
0.571262
21
0.000949528
0
LINE
8
BLACK
6
CONTINUOUS
10
0.571262
20
0.000949528
11
0.574257
21
0.0015624
0
LINE
8
BLACK
6
CONTINUOUS
10
0.574257
20
0.0015624
11
0.577157
21
0.000595709
0
LINE
8
BLACK
6
CONTINUOUS
10
0.577157
20
0.000595709
11
0.579185
21
-0.0016915
0
LINE
8
BLACK
6
CONTINUOUS
10
0.579185
20
-0.0016915
11
0.581997
21
-0.00731583
0
LINE
8
BLACK
6
CONTINUOUS
10
0.581997
20
-0.00731583
11
0.58227
21
-0.00864575
0
LINE
8
BLACK
6
CONTINUOUS
10
0.58227
20
-0.00864575
11
0.582621
21
-0.00995685
0
LINE
8
BLACK
6
CONTINUOUS
10
0.582621
20
-0.00995685
11
0.582621
21
-0.0212054
0
LINE
8
BLACK
6
CONTINUOUS
10
0.582621
20
-0.0212054
11
0.58227
21
-0.0225165
0
LINE
8
BLACK
6
CONTINUOUS
10
0.58227
20
-0.0225165
11
0.581997
21
-0.0238465
0
LINE
8
BLACK
6
CONTINUOUS
10
0.581997
20
-0.0238465
11
0.579185
21
-0.0294707
0
LINE
8
BLACK
6
CONTINUOUS
10
0.579185
20
-0.0294707
11
0.578946
21
-0.0297409
0
LINE
8
BLACK
6
CONTINUOUS
10
0.578946
20
-0.0297409
11
0.578831
21
-0.0300836
0
LINE
8
BLACK
6
CONTINUOUS
10
0.578831
20
-0.0300836
11
0.577944
21
-0.0308705
0
LINE
8
BLACK
6
CONTINUOUS
10
0.577944
20
-0.0308705
11
0.577157
21
-0.031758
0
LINE
8
BLACK
6
CONTINUOUS
10
0.577157
20
-0.031758
11
0.576814
21
-0.0318722
0
LINE
8
BLACK
6
CONTINUOUS
10
0.576814
20
-0.0318722
11
0.576544
21
-0.0321118
0
LINE
8
BLACK
6
CONTINUOUS
10
0.576544
20
-0.0321118
11
0.57092
21
-0.0349239
0
LINE
8
BLACK
6
CONTINUOUS
10
0.57092
20
-0.0349239
11
0.56959
21
-0.0351961
0
LINE
8
BLACK
6
CONTINUOUS
10
0.56959
20
-0.0351961
11
0.568279
21
-0.0355474
0
LINE
8
BLACK
6
CONTINUOUS
10
0.568279
20
-0.0355474
11
0.545782
21
-0.0355474
0
LINE
8
BLACK
6
CONTINUOUS
10
0.545782
20
-0.0355474
11
0.544471
21
-0.0351961
0
LINE
8
BLACK
6
CONTINUOUS
10
0.544471
20
-0.0351961
11
0.543141
21
-0.0349239
0
LINE
8
BLACK
6
CONTINUOUS
10
0.543141
20
-0.0349239
11
0.537516
21
-0.0321118
0
LINE
8
BLACK
6
CONTINUOUS
10
0.537516
20
-0.0321118
11
0.537246
21
-0.0318722
0
LINE
8
BLACK
6
CONTINUOUS
10
0.537246
20
-0.0318722
11
0.536904
21
-0.031758
0
LINE
8
BLACK
6
CONTINUOUS
10
0.536904
20
-0.031758
11
0.536117
21
-0.0308705
0
LINE
8
BLACK
6
CONTINUOUS
10
0.536117
20
-0.0308705
11
0.535229
21
-0.0300836
0
LINE
8
BLACK
6
CONTINUOUS
10
0.535229
20
-0.0300836
11
0.535115
21
-0.0297409
0
LINE
8
BLACK
6
CONTINUOUS
10
0.535115
20
-0.0297409
11
0.534875
21
-0.0294707
0
LINE
8
BLACK
6
CONTINUOUS
10
0.534875
20
-0.0294707
11
0.532063
21
-0.0238465
0
LINE
8
BLACK
6
CONTINUOUS
10
0.532063
20
-0.0238465
11
0.531791
21
-0.0225165
0
LINE
8
BLACK
6
CONTINUOUS
10
0.531791
20
-0.0225165
11
0.53144
21
-0.0212054
0
LINE
8
BLACK
6
CONTINUOUS
10
0.53144
20
-0.0212054
11
0.53144
21
-0.00995685
0
LINE
8
BLACK
6
CONTINUOUS
10
0.53144
20
-0.00995685
11
0.531791
21
-0.00864575
0
LINE
8
BLACK
6
CONTINUOUS
10
0.531791
20
-0.00864575
11
0.532063
21
-0.00731583
0
LINE
8
BLACK
6
CONTINUOUS
10
0.532063
20
-0.00731583
11
0.534875
21
-0.0016915
0
LINE
8
BLACK
6
CONTINUOUS
10
0.534875
20
-0.0016915
11
0.535115
21
-0.0014213
0
LINE
8
BLACK
6
CONTINUOUS
10
0.535115
20
-0.0014213
11
0.535229
21
-0.00107862
0
LINE
8
BLACK
6
CONTINUOUS
10
0.535229
20
-0.00107862
11
0.536117
21
-0.000291693
0
LINE
8
BLACK
6
CONTINUOUS
10
0.536117
20
-0.000291693
11
0.536904
21
0.000595709
0
LINE
8
BLACK
6
CONTINUOUS
10
0.536904
20
0.000595709
11
0.537246
21
0.000709921
0
LINE
8
BLACK
6
CONTINUOUS
10
0.537246
20
0.000709921
11
0.537516
21
0.000949528
0
LINE
8
BLACK
6
CONTINUOUS
10
0.537516
20
0.000949528
11
0.543141
21
0.00376165
0
LINE
8
BLACK
6
CONTINUOUS
10
0.543141
20
0.00376165
11
0.544471
21
0.00403378
0
LINE
8
BLACK
6
CONTINUOUS
10
0.544471
20
0.00403378
11
0.545782
21
0.00438512
0
LINE
8
BLACK
6
CONTINUOUS
10
0.545782
20
0.00438512
11
0.551406
21
0.00438512
0
LINE
8
BLACK
6
CONTINUOUS
10
0.551406
20
0.00438512
11
0.552337
21
0.00413571
0
LINE
8
BLACK
6
CONTINUOUS
10
0.544559
20
-0.00873425
11
0.543251
21
-0.0113509
0
LINE
8
BLACK
6
CONTINUOUS
10
0.543251
20
-0.0113509
11
0.543251
21
-0.0198113
0
LINE
8
BLACK
6
CONTINUOUS
10
0.543251
20
-0.0198113
11
0.544559
21
-0.022428
0
LINE
8
BLACK
6
CONTINUOUS
10
0.544559
20
-0.022428
11
0.547176
21
-0.0237364
0
LINE
8
BLACK
6
CONTINUOUS
10
0.547176
20
-0.0237364
11
0.549827
21
-0.0237364
0
LINE
8
BLACK
6
CONTINUOUS
10
0.549827
20
-0.0237364
11
0.54662
21
-0.0077037
0
LINE
8
BLACK
6
CONTINUOUS
10
0.54662
20
-0.0077037
11
0.544559
21
-0.00873425
0
LINE
8
BLACK
6
CONTINUOUS
10
0.540298
20
0.0457762
11
0.54246
21
0.0436146
0
LINE
8
BLACK
6
CONTINUOUS
10
0.54246
20
0.0436146
11
0.543251
21
0.0406619
0
LINE
8
BLACK
6
CONTINUOUS
10
0.543251
20
0.0406619
11
0.543251
21
0.0364317
0
LINE
8
BLACK
6
CONTINUOUS
10
0.543251
20
0.0364317
11
0.545011
21
0.0329114
0
LINE
8
BLACK
6
CONTINUOUS
10
0.545011
20
0.0329114
11
0.546468
21
0.0314546
0
LINE
8
BLACK
6
CONTINUOUS
10
0.546468
20
0.0314546
11
0.549988
21
0.0296944
0
LINE
8
BLACK
6
CONTINUOUS
10
0.549988
20
0.0296944
11
0.576715
21
0.0296944
0
LINE
8
BLACK
6
CONTINUOUS
10
0.576715
20
0.0296944
11
0.579668
21
0.0289033
0
LINE
8
BLACK
6
CONTINUOUS
10
0.579668
20
0.0289033
11
0.58183
21
0.0267417
0
LINE
8
BLACK
6
CONTINUOUS
10
0.58183
20
0.0267417
11
0.582621
21
0.0237889
0
LINE
8
BLACK
6
CONTINUOUS
10
0.582621
20
0.0237889
11
0.58183
21
0.0208362
0
LINE
8
BLACK
6
CONTINUOUS
10
0.58183
20
0.0208362
11
0.579668
21
0.0186746
0
LINE
8
BLACK
6
CONTINUOUS
10
0.579668
20
0.0186746
11
0.576715
21
0.0178834
0
LINE
8
BLACK
6
CONTINUOUS
10
0.576715
20
0.0178834
11
0.537345
21
0.0178834
0
LINE
8
BLACK
6
CONTINUOUS
10
0.537345
20
0.0178834
11
0.534393
21
0.0186746
0
LINE
8
BLACK
6
CONTINUOUS
10
0.534393
20
0.0186746
11
0.532231
21
0.0208362
0
LINE
8
BLACK
6
CONTINUOUS
10
0.532231
20
0.0208362
11
0.53144
21
0.0237889
0
LINE
8
BLACK
6
CONTINUOUS
10
0.53144
20
0.0237889
11
0.532231
21
0.0267417
0
LINE
8
BLACK
6
CONTINUOUS
10
0.532231
20
0.0267417
11
0.534004
21
0.0285148
0
LINE
8
BLACK
6
CONTINUOUS
10
0.534004
20
0.0285148
11
0.532063
21
0.0323965
0
LINE
8
BLACK
6
CONTINUOUS
10
0.532063
20
0.0323965
11
0.531791
21
0.0337265
0
LINE
8
BLACK
6
CONTINUOUS
10
0.531791
20
0.0337265
11
0.53144
21
0.0350376
0
LINE
8
BLACK
6
CONTINUOUS
10
0.53144
20
0.0350376
11
0.53144
21
0.0406619
0
LINE
8
BLACK
6
CONTINUOUS
10
0.53144
20
0.0406619
11
0.532231
21
0.0436146
0
LINE
8
BLACK
6
CONTINUOUS
10
0.532231
20
0.0436146
11
0.534393
21
0.0457762
0
LINE
8
BLACK
6
CONTINUOUS
10
0.534393
20
0.0457762
11
0.537345
21
0.0465674
0
LINE
8
BLACK
6
CONTINUOUS
10
0.537345
20
0.0465674
11
0.540298
21
0.0457762
0
LINE
8
BLACK
6
CONTINUOUS
10
0.514708
20
0.0552326
11
0.512546
21
0.0573941
0
LINE
8
BLACK
6
CONTINUOUS
10
0.512546
20
0.0573941
11
0.511755
21
0.0603469
0
LINE
8
BLACK
6
CONTINUOUS
10
0.511755
20
0.0603469
11
0.511755
21
0.0884683
0
LINE
8
BLACK
6
CONTINUOUS
10
0.511755
20
0.0884683
11
0.512546
21
0.0914211
0
LINE
8
BLACK
6
CONTINUOUS
10
0.512546
20
0.0914211
11
0.514708
21
0.0935827
0
LINE
8
BLACK
6
CONTINUOUS
10
0.514708
20
0.0935827
11
0.51766
21
0.0943739
0
LINE
8
BLACK
6
CONTINUOUS
10
0.51766
20
0.0943739
11
0.520613
21
0.0935827
0
LINE
8
BLACK
6
CONTINUOUS
10
0.520613
20
0.0935827
11
0.522775
21
0.0914211
0
LINE
8
BLACK
6
CONTINUOUS
10
0.522775
20
0.0914211
11
0.523566
21
0.0884683
0
LINE
8
BLACK
6
CONTINUOUS
10
0.523566
20
0.0884683
11
0.523566
21
0.0662524
0
LINE
8
BLACK
6
CONTINUOUS
10
0.523566
20
0.0662524
11
0.539876
21
0.0662524
0
LINE
8
BLACK
6
CONTINUOUS
10
0.539876
20
0.0662524
11
0.539876
21
0.0800319
0
LINE
8
BLACK
6
CONTINUOUS
10
0.539876
20
0.0800319
11
0.540667
21
0.0829847
0
LINE
8
BLACK
6
CONTINUOUS
10
0.540667
20
0.0829847
11
0.542829
21
0.0851463
0
LINE
8
BLACK
6
CONTINUOUS
10
0.542829
20
0.0851463
11
0.545782
21
0.0859374
0
LINE
8
BLACK
6
CONTINUOUS
10
0.545782
20
0.0859374
11
0.548735
21
0.0851463
0
LINE
8
BLACK
6
CONTINUOUS
10
0.548735
20
0.0851463
11
0.550896
21
0.0829847
0
LINE
8
BLACK
6
CONTINUOUS
10
0.550896
20
0.0829847
11
0.551687
21
0.0800319
0
LINE
8
BLACK
6
CONTINUOUS
10
0.551687
20
0.0800319
11
0.551687
21
0.0662524
0
LINE
8
BLACK
6
CONTINUOUS
10
0.551687
20
0.0662524
11
0.576715
21
0.0662524
0
LINE
8
BLACK
6
CONTINUOUS
10
0.576715
20
0.0662524
11
0.579668
21
0.0654612
0
LINE
8
BLACK
6
CONTINUOUS
10
0.579668
20
0.0654612
11
0.58183
21
0.0632996
0
LINE
8
BLACK
6
CONTINUOUS
10
0.58183
20
0.0632996
11
0.582621
21
0.0603469
0
LINE
8
BLACK
6
CONTINUOUS
10
0.582621
20
0.0603469
11
0.58183
21
0.0573941
0
LINE
8
BLACK
6
CONTINUOUS
10
0.58183
20
0.0573941
11
0.579668
21
0.0552326
0
LINE
8
BLACK
6
CONTINUOUS
10
0.579668
20
0.0552326
11
0.576715
21
0.0544414
0
LINE
8
BLACK
6
CONTINUOUS
10
0.576715
20
0.0544414
11
0.51766
21
0.0544414
0
LINE
8
BLACK
6
CONTINUOUS
10
0.51766
20
0.0544414
11
0.514708
21
0.0552326
0
LINE
8
BLACK
6
CONTINUOUS
10
0.579356
20
0.124684
11
0.581644
21
0.122656
0
LINE
8
BLACK
6
CONTINUOUS
10
0.581644
20
0.122656
11
0.58261
21
0.119756
0
LINE
8
BLACK
6
CONTINUOUS
10
0.58261
20
0.119756
11
0.581997
21
0.116761
0
LINE
8
BLACK
6
CONTINUOUS
10
0.581997
20
0.116761
11
0.579185
21
0.111137
0
LINE
8
BLACK
6
CONTINUOUS
10
0.579185
20
0.111137
11
0.578946
21
0.110866
0
LINE
8
BLACK
6
CONTINUOUS
10
0.578946
20
0.110866
11
0.578831
21
0.110524
0
LINE
8
BLACK
6
CONTINUOUS
10
0.578831
20
0.110524
11
0.577944
21
0.109737
0
LINE
8
BLACK
6
CONTINUOUS
10
0.577944
20
0.109737
11
0.577157
21
0.108849
0
LINE
8
BLACK
6
CONTINUOUS
10
0.577157
20
0.108849
11
0.576814
21
0.108735
0
LINE
8
BLACK
6
CONTINUOUS
10
0.576814
20
0.108735
11
0.576544
21
0.108496
0
LINE
8
BLACK
6
CONTINUOUS
10
0.576544
20
0.108496
11
0.57092
21
0.105684
0
LINE
8
BLACK
6
CONTINUOUS
10
0.57092
20
0.105684
11
0.56959
21
0.105411
0
LINE
8
BLACK
6
CONTINUOUS
10
0.56959
20
0.105411
11
0.568279
21
0.10506
0
LINE
8
BLACK
6
CONTINUOUS
10
0.568279
20
0.10506
11
0.51766
21
0.10506
0
LINE
8
BLACK
6
CONTINUOUS
10
0.51766
20
0.10506
11
0.514708
21
0.105851
0
LINE
8
BLACK
6
CONTINUOUS
10
0.514708
20
0.105851
11
0.512546
21
0.108013
0
LINE
8
BLACK
6
CONTINUOUS
10
0.512546
20
0.108013
11
0.511755
21
0.110966
0
LINE
8
BLACK
6
CONTINUOUS
10
0.511755
20
0.110966
11
0.512546
21
0.113918
0
LINE
8
BLACK
6
CONTINUOUS
10
0.512546
20
0.113918
11
0.514708
21
0.11608
0
LINE
8
BLACK
6
CONTINUOUS
10
0.514708
20
0.11608
11
0.51766
21
0.116871
0
LINE
8
BLACK
6
CONTINUOUS
10
0.51766
20
0.116871
11
0.566885
21
0.116871
0
LINE
8
BLACK
6
CONTINUOUS
10
0.566885
20
0.116871
11
0.569502
21
0.118179
0
LINE
8
BLACK
6
CONTINUOUS
10
0.569502
20
0.118179
11
0.571433
21
0.122043
0
LINE
8
BLACK
6
CONTINUOUS
10
0.571433
20
0.122043
11
0.573462
21
0.12433
0
LINE
8
BLACK
6
CONTINUOUS
10
0.573462
20
0.12433
11
0.576362
21
0.125297
0
LINE
8
BLACK
6
CONTINUOUS
10
0.576362
20
0.125297
11
0.579356
21
0.124684
0
LINE
8
BLACK
6
CONTINUOUS
10
0.539332
20
0.169958
11
0.578702
21
0.155897
0
LINE
8
BLACK
6
CONTINUOUS
10
0.578702
20
0.155897
11
0.578795
21
0.155832
0
LINE
8
BLACK
6
CONTINUOUS
10
0.578795
20
0.155832
11
0.578909
21
0.155819
0
LINE
8
BLACK
6
CONTINUOUS
10
0.578909
20
0.155819
11
0.592969
21
0.150194
0
LINE
8
BLACK
6
CONTINUOUS
10
0.592969
20
0.150194
11
0.593922
21
0.149482
0
LINE
8
BLACK
6
CONTINUOUS
10
0.593922
20
0.149482
11
0.594952
21
0.148887
0
LINE
8
BLACK
6
CONTINUOUS
10
0.594952
20
0.148887
11
0.597764
21
0.146075
0
LINE
8
BLACK
6
CONTINUOUS
10
0.597764
20
0.146075
11
0.59824
21
0.145252
0
LINE
8
BLACK
6
CONTINUOUS
10
0.59824
20
0.145252
11
0.59887
21
0.14454
0
LINE
8
BLACK
6
CONTINUOUS
10
0.59887
20
0.14454
11
0.601682
21
0.138916
0
LINE
8
BLACK
6
CONTINUOUS
10
0.601682
20
0.138916
11
0.602295
21
0.135921
0
LINE
8
BLACK
6
CONTINUOUS
10
0.602295
20
0.135921
11
0.601329
21
0.133021
0
LINE
8
BLACK
6
CONTINUOUS
10
0.601329
20
0.133021
11
0.599041
21
0.130993
0
LINE
8
BLACK
6
CONTINUOUS
10
0.599041
20
0.130993
11
0.596047
21
0.13038
0
LINE
8
BLACK
6
CONTINUOUS
10
0.596047
20
0.13038
11
0.593147
21
0.131347
0
LINE
8
BLACK
6
CONTINUOUS
10
0.593147
20
0.131347
11
0.591118
21
0.133634
0
LINE
8
BLACK
6
CONTINUOUS
10
0.591118
20
0.133634
11
0.588735
21
0.138401
0
LINE
8
BLACK
6
CONTINUOUS
10
0.588735
20
0.138401
11
0.587457
21
0.139678
0
LINE
8
BLACK
6
CONTINUOUS
10
0.587457
20
0.139678
11
0.576597
21
0.144023
0
LINE
8
BLACK
6
CONTINUOUS
10
0.576597
20
0.144023
11
0.539332
21
0.130713
0
LINE
8
BLACK
6
CONTINUOUS
10
0.539332
20
0.130713
11
0.536285
21
0.130465
0
LINE
8
BLACK
6
CONTINUOUS
10
0.536285
20
0.130465
11
0.533522
21
0.131774
0
LINE
8
BLACK
6
CONTINUOUS
10
0.533522
20
0.131774
11
0.531784
21
0.134289
0
LINE
8
BLACK
6
CONTINUOUS
10
0.531784
20
0.134289
11
0.531536
21
0.137335
0
LINE
8
BLACK
6
CONTINUOUS
10
0.531536
20
0.137335
11
0.532844
21
0.140098
0
LINE
8
BLACK
6
CONTINUOUS
10
0.532844
20
0.140098
11
0.535359
21
0.141836
0
LINE
8
BLACK
6
CONTINUOUS
10
0.535359
20
0.141836
11
0.559157
21
0.150336
0
LINE
8
BLACK
6
CONTINUOUS
10
0.559157
20
0.150336
11
0.535359
21
0.158835
0
LINE
8
BLACK
6
CONTINUOUS
10
0.535359
20
0.158835
11
0.532844
21
0.160573
0
LINE
8
BLACK
6
CONTINUOUS
10
0.532844
20
0.160573
11
0.531536
21
0.163336
0
LINE
8
BLACK
6
CONTINUOUS
10
0.531536
20
0.163336
11
0.531784
21
0.166383
0
LINE
8
BLACK
6
CONTINUOUS
10
0.531784
20
0.166383
11
0.533522
21
0.168897
0
LINE
8
BLACK
6
CONTINUOUS
10
0.533522
20
0.168897
11
0.536285
21
0.170206
0
LINE
8
BLACK
6
CONTINUOUS
10
0.536285
20
0.170206
11
0.539332
21
0.169958
0
LINE
8
BLACK
6
CONTINUOUS
10
0.582621
20
0.186894
11
0.58242
21
0.186143
0
LINE
8
BLACK
6
CONTINUOUS
10
0.58242
20
0.186143
11
0.58242
21
0.185365
0
LINE
8
BLACK
6
CONTINUOUS
10
0.58242
20
0.185365
11
0.582196
21
0.184977
0
LINE
8
BLACK
6
CONTINUOUS
10
0.582196
20
0.184977
11
0.582031
21
0.184692
0
LINE
8
BLACK
6
CONTINUOUS
10
0.582031
20
0.184692
11
0.58183
21
0.183941
0
LINE
8
BLACK
6
CONTINUOUS
10
0.58183
20
0.183941
11
0.58128
21
0.183391
0
LINE
8
BLACK
6
CONTINUOUS
10
0.58128
20
0.183391
11
0.580891
21
0.182718
0
LINE
8
BLACK
6
CONTINUOUS
10
0.580891
20
0.182718
11
0.580891
21
0.182718
0
LINE
8
BLACK
6
CONTINUOUS
10
0.580891
20
0.182718
11
0.578079
21
0.179906
0
LINE
8
BLACK
6
CONTINUOUS
10
0.578079
20
0.179906
11
0.57696
21
0.17926
0
LINE
8
BLACK
6
CONTINUOUS
10
0.57696
20
0.17926
11
0.575432
21
0.178377
0
LINE
8
BLACK
6
CONTINUOUS
10
0.575432
20
0.178377
11
0.572375
21
0.178377
0
LINE
8
BLACK
6
CONTINUOUS
10
0.572375
20
0.178377
11
0.569727
21
0.179906
0
LINE
8
BLACK
6
CONTINUOUS
10
0.569727
20
0.179906
11
0.569727
21
0.179906
0
LINE
8
BLACK
6
CONTINUOUS
10
0.569727
20
0.179906
11
0.566915
21
0.182718
0
LINE
8
BLACK
6
CONTINUOUS
10
0.566915
20
0.182718
11
0.566527
21
0.183391
0
LINE
8
BLACK
6
CONTINUOUS
10
0.566527
20
0.183391
11
0.565977
21
0.183941
0
LINE
8
BLACK
6
CONTINUOUS
10
0.565977
20
0.183941
11
0.565776
21
0.184692
0
LINE
8
BLACK
6
CONTINUOUS
10
0.565776
20
0.184692
11
0.565611
21
0.184977
0
LINE
8
BLACK
6
CONTINUOUS
10
0.565611
20
0.184977
11
0.565387
21
0.185365
0
LINE
8
BLACK
6
CONTINUOUS
10
0.565387
20
0.185365
11
0.565387
21
0.186143
0
LINE
8
BLACK
6
CONTINUOUS
10
0.565387
20
0.186143
11
0.565186
21
0.186894
0
LINE
8
BLACK
6
CONTINUOUS
10
0.565186
20
0.186894
11
0.565387
21
0.187645
0
LINE
8
BLACK
6
CONTINUOUS
10
0.565387
20
0.187645
11
0.565387
21
0.188422
0
LINE
8
BLACK
6
CONTINUOUS
10
0.565387
20
0.188422
11
0.565776
21
0.189095
0
LINE
8
BLACK
6
CONTINUOUS
10
0.565776
20
0.189095
11
0.565977
21
0.189846
0
LINE
8
BLACK
6
CONTINUOUS
10
0.565977
20
0.189846
11
0.566527
21
0.190396
0
LINE
8
BLACK
6
CONTINUOUS
10
0.566527
20
0.190396
11
0.566915
21
0.191069
0
LINE
8
BLACK
6
CONTINUOUS
10
0.566915
20
0.191069
11
0.569727
21
0.193881
0
LINE
8
BLACK
6
CONTINUOUS
10
0.569727
20
0.193881
11
0.569727
21
0.193881
0
LINE
8
BLACK
6
CONTINUOUS
10
0.569727
20
0.193881
11
0.569727
21
0.193882
0
LINE
8
BLACK
6
CONTINUOUS
10
0.569727
20
0.193882
11
0.570846
21
0.194528
0
LINE
8
BLACK
6
CONTINUOUS
10
0.570846
20
0.194528
11
0.572375
21
0.19541
0
LINE
8
BLACK
6
CONTINUOUS
10
0.572375
20
0.19541
11
0.575432
21
0.19541
0
LINE
8
BLACK
6
CONTINUOUS
10
0.575432
20
0.19541
11
0.576102
21
0.195023
0
LINE
8
BLACK
6
CONTINUOUS
10
0.576102
20
0.195023
11
0.578079
21
0.193882
0
LINE
8
BLACK
6
CONTINUOUS
10
0.578079
20
0.193882
11
0.578079
21
0.193882
0
LINE
8
BLACK
6
CONTINUOUS
10
0.578079
20
0.193882
11
0.578079
21
0.193882
0
LINE
8
BLACK
6
CONTINUOUS
10
0.578079
20
0.193882
11
0.580891
21
0.191069
0
LINE
8
BLACK
6
CONTINUOUS
10
0.580891
20
0.191069
11
0.58128
21
0.190396
0
LINE
8
BLACK
6
CONTINUOUS
10
0.58128
20
0.190396
11
0.58183
21
0.189846
0
LINE
8
BLACK
6
CONTINUOUS
10
0.58183
20
0.189846
11
0.582031
21
0.189095
0
LINE
8
BLACK
6
CONTINUOUS
10
0.582031
20
0.189095
11
0.58242
21
0.188422
0
LINE
8
BLACK
6
CONTINUOUS
10
0.58242
20
0.188422
11
0.58242
21
0.187645
0
LINE
8
BLACK
6
CONTINUOUS
10
0.58242
20
0.187645
11
0.582621
21
0.186894
0
LINE
8
BLACK
6
CONTINUOUS
10
0.577157
20
0.245253
11
0.579185
21
0.242965
0
LINE
8
BLACK
6
CONTINUOUS
10
0.579185
20
0.242965
11
0.581997
21
0.237341
0
LINE
8
BLACK
6
CONTINUOUS
10
0.581997
20
0.237341
11
0.58227
21
0.236011
0
LINE
8
BLACK
6
CONTINUOUS
10
0.58227
20
0.236011
11
0.582621
21
0.2347
0
LINE
8
BLACK
6
CONTINUOUS
10
0.582621
20
0.2347
11
0.582621
21
0.223451
0
LINE
8
BLACK
6
CONTINUOUS
10
0.582621
20
0.223451
11
0.58227
21
0.22214
0
LINE
8
BLACK
6
CONTINUOUS
10
0.58227
20
0.22214
11
0.581997
21
0.22081
0
LINE
8
BLACK
6
CONTINUOUS
10
0.581997
20
0.22081
11
0.579185
21
0.215186
0
LINE
8
BLACK
6
CONTINUOUS
10
0.579185
20
0.215186
11
0.578554
21
0.214475
0
LINE
8
BLACK
6
CONTINUOUS
10
0.578554
20
0.214475
11
0.578079
21
0.213651
0
LINE
8
BLACK
6
CONTINUOUS
10
0.578079
20
0.213651
11
0.575267
21
0.210839
0
LINE
8
BLACK
6
CONTINUOUS
10
0.575267
20
0.210839
11
0.574444
21
0.210364
0
LINE
8
BLACK
6
CONTINUOUS
10
0.574444
20
0.210364
11
0.573732
21
0.209733
0
LINE
8
BLACK
6
CONTINUOUS
10
0.573732
20
0.209733
11
0.568108
21
0.206921
0
LINE
8
BLACK
6
CONTINUOUS
10
0.568108
20
0.206921
11
0.566778
21
0.206649
0
LINE
8
BLACK
6
CONTINUOUS
10
0.566778
20
0.206649
11
0.565467
21
0.206297
0
LINE
8
BLACK
6
CONTINUOUS
10
0.565467
20
0.206297
11
0.548594
21
0.206297
0
LINE
8
BLACK
6
CONTINUOUS
10
0.548594
20
0.206297
11
0.547283
21
0.206649
0
LINE
8
BLACK
6
CONTINUOUS
10
0.547283
20
0.206649
11
0.545953
21
0.206921
0
LINE
8
BLACK
6
CONTINUOUS
10
0.545953
20
0.206921
11
0.540329
21
0.209733
0
LINE
8
BLACK
6
CONTINUOUS
10
0.540329
20
0.209733
11
0.539617
21
0.210364
0
LINE
8
BLACK
6
CONTINUOUS
10
0.539617
20
0.210364
11
0.538794
21
0.210839
0
LINE
8
BLACK
6
CONTINUOUS
10
0.538794
20
0.210839
11
0.535982
21
0.213651
0
LINE
8
BLACK
6
CONTINUOUS
10
0.535982
20
0.213651
11
0.535506
21
0.214475
0
LINE
8
BLACK
6
CONTINUOUS
10
0.535506
20
0.214475
11
0.534875
21
0.215186
0
LINE
8
BLACK
6
CONTINUOUS
10
0.534875
20
0.215186
11
0.532063
21
0.22081
0
LINE
8
BLACK
6
CONTINUOUS
10
0.532063
20
0.22081
11
0.531791
21
0.22214
0
LINE
8
BLACK
6
CONTINUOUS
10
0.531791
20
0.22214
11
0.53144
21
0.223451
0
LINE
8
BLACK
6
CONTINUOUS
10
0.53144
20
0.223451
11
0.53144
21
0.2347
0
LINE
8
BLACK
6
CONTINUOUS
10
0.53144
20
0.2347
11
0.531791
21
0.236011
0
LINE
8
BLACK
6
CONTINUOUS
10
0.531791
20
0.236011
11
0.532063
21
0.237341
0
LINE
8
BLACK
6
CONTINUOUS
10
0.532063
20
0.237341
11
0.534875
21
0.242965
0
LINE
8
BLACK
6
CONTINUOUS
10
0.534875
20
0.242965
11
0.536904
21
0.245253
0
LINE
8
BLACK
6
CONTINUOUS
10
0.536904
20
0.245253
11
0.539804
21
0.246219
0
LINE
8
BLACK
6
CONTINUOUS
10
0.539804
20
0.246219
11
0.542799
21
0.245606
0
LINE
8
BLACK
6
CONTINUOUS
10
0.542799
20
0.245606
11
0.545086
21
0.243578
0
LINE
8
BLACK
6
CONTINUOUS
10
0.545086
20
0.243578
11
0.546052
21
0.240678
0
LINE
8
BLACK
6
CONTINUOUS
10
0.546052
20
0.240678
11
0.54544
21
0.237683
0
LINE
8
BLACK
6
CONTINUOUS
10
0.54544
20
0.237683
11
0.543251
21
0.233306
0
LINE
8
BLACK
6
CONTINUOUS
10
0.543251
20
0.233306
11
0.543251
21
0.224846
0
LINE
8
BLACK
6
CONTINUOUS
10
0.543251
20
0.224846
11
0.545011
21
0.221325
0
LINE
8
BLACK
6
CONTINUOUS
10
0.545011
20
0.221325
11
0.546468
21
0.219869
0
LINE
8
BLACK
6
CONTINUOUS
10
0.546468
20
0.219869
11
0.549988
21
0.218108
0
LINE
8
BLACK
6
CONTINUOUS
10
0.549988
20
0.218108
11
0.564073
21
0.218108
0
LINE
8
BLACK
6
CONTINUOUS
10
0.564073
20
0.218108
11
0.567593
21
0.219868
0
LINE
8
BLACK
6
CONTINUOUS
10
0.567593
20
0.219868
11
0.56905
21
0.221325
0
LINE
8
BLACK
6
CONTINUOUS
10
0.56905
20
0.221325
11
0.57081
21
0.224846
0
LINE
8
BLACK
6
CONTINUOUS
10
0.57081
20
0.224846
11
0.57081
21
0.233306
0
LINE
8
BLACK
6
CONTINUOUS
10
0.57081
20
0.233306
11
0.568621
21
0.237683
0
LINE
8
BLACK
6
CONTINUOUS
10
0.568621
20
0.237683
11
0.568008
21
0.240678
0
LINE
8
BLACK
6
CONTINUOUS
10
0.568008
20
0.240678
11
0.568975
21
0.243578
0
LINE
8
BLACK
6
CONTINUOUS
10
0.568975
20
0.243578
11
0.571262
21
0.245606
0
LINE
8
BLACK
6
CONTINUOUS
10
0.571262
20
0.245606
11
0.574257
21
0.246219
0
LINE
8
BLACK
6
CONTINUOUS
10
0.574257
20
0.246219
11
0.577157
21
0.245253
0
LINE
8
BLACK
6
CONTINUOUS
10
0.579668
20
0.296057
11
0.58183
21
0.293896
0
LINE
8
BLACK
6
CONTINUOUS
10
0.58183
20
0.293896
11
0.582621
21
0.290943
0
LINE
8
BLACK
6
CONTINUOUS
10
0.582621
20
0.290943
11
0.582621
21
0.260009
0
LINE
8
BLACK
6
CONTINUOUS
10
0.582621
20
0.260009
11
0.58251
21
0.259596
0
LINE
8
BLACK
6
CONTINUOUS
10
0.58251
20
0.259596
11
0.582561
21
0.259171
0
LINE
8
BLACK
6
CONTINUOUS
10
0.582561
20
0.259171
11
0.58212
21
0.25814
0
LINE
8
BLACK
6
CONTINUOUS
10
0.58212
20
0.25814
11
0.58183
21
0.257057
0
LINE
8
BLACK
6
CONTINUOUS
10
0.58183
20
0.257057
11
0.581527
21
0.256754
0
LINE
8
BLACK
6
CONTINUOUS
10
0.581527
20
0.256754
11
0.581359
21
0.256361
0
LINE
8
BLACK
6
CONTINUOUS
10
0.581359
20
0.256361
11
0.580461
21
0.255688
0
LINE
8
BLACK
6
CONTINUOUS
10
0.580461
20
0.255688
11
0.579668
21
0.254895
0
LINE
8
BLACK
6
CONTINUOUS
10
0.579668
20
0.254895
11
0.579255
21
0.254784
0
LINE
8
BLACK
6
CONTINUOUS
10
0.579255
20
0.254784
11
0.578913
21
0.254528
0
LINE
8
BLACK
6
CONTINUOUS
10
0.578913
20
0.254528
11
0.577799
21
0.254394
0
LINE
8
BLACK
6
CONTINUOUS
10
0.577799
20
0.254394
11
0.576715
21
0.254104
0
LINE
8
BLACK
6
CONTINUOUS
10
0.576715
20
0.254104
11
0.576302
21
0.254215
0
LINE
8
BLACK
6
CONTINUOUS
10
0.576302
20
0.254215
11
0.575877
21
0.254164
0
LINE
8
BLACK
6
CONTINUOUS
10
0.575877
20
0.254164
11
0.574846
21
0.254605
0
LINE
8
BLACK
6
CONTINUOUS
10
0.574846
20
0.254605
11
0.573763
21
0.254895
0
LINE
8
BLACK
6
CONTINUOUS
10
0.573763
20
0.254895
11
0.57346
21
0.255198
0
LINE
8
BLACK
6
CONTINUOUS
10
0.57346
20
0.255198
11
0.573067
21
0.255366
0
LINE
8
BLACK
6
CONTINUOUS
10
0.573067
20
0.255366
11
0.543251
21
0.278793
0
LINE
8
BLACK
6
CONTINUOUS
10
0.543251
20
0.278793
11
0.543251
21
0.260009
0
LINE
8
BLACK
6
CONTINUOUS
10
0.543251
20
0.260009
11
0.54246
21
0.257057
0
LINE
8
BLACK
6
CONTINUOUS
10
0.54246
20
0.257057
11
0.540298
21
0.254895
0
LINE
8
BLACK
6
CONTINUOUS
10
0.540298
20
0.254895
11
0.537345
21
0.254104
0
LINE
8
BLACK
6
CONTINUOUS
10
0.537345
20
0.254104
11
0.534393
21
0.254895
0
LINE
8
BLACK
6
CONTINUOUS
10
0.534393
20
0.254895
11
0.532231
21
0.257057
0
LINE
8
BLACK
6
CONTINUOUS
10
0.532231
20
0.257057
11
0.53144
21
0.260009
0
LINE
8
BLACK
6
CONTINUOUS
10
0.53144
20
0.260009
11
0.53144
21
0.290943
0
LINE
8
BLACK
6
CONTINUOUS
10
0.53144
20
0.290943
11
0.531551
21
0.291356
0
LINE
8
BLACK
6
CONTINUOUS
10
0.531551
20
0.291356
11
0.5315
21
0.291781
0
LINE
8
BLACK
6
CONTINUOUS
10
0.5315
20
0.291781
11
0.531941
21
0.292812
0
LINE
8
BLACK
6
CONTINUOUS
10
0.531941
20
0.292812
11
0.532231
21
0.293896
0
LINE
8
BLACK
6
CONTINUOUS
10
0.532231
20
0.293896
11
0.532533
21
0.294198
0
LINE
8
BLACK
6
CONTINUOUS
10
0.532533
20
0.294198
11
0.532702
21
0.294592
0
LINE
8
BLACK
6
CONTINUOUS
10
0.532702
20
0.294592
11
0.533599
21
0.295264
0
LINE
8
BLACK
6
CONTINUOUS
10
0.533599
20
0.295264
11
0.534393
21
0.296057
0
LINE
8
BLACK
6
CONTINUOUS
10
0.534393
20
0.296057
11
0.534806
21
0.296168
0
LINE
8
BLACK
6
CONTINUOUS
10
0.534806
20
0.296168
11
0.535148
21
0.296425
0
LINE
8
BLACK
6
CONTINUOUS
10
0.535148
20
0.296425
11
0.536262
21
0.296558
0
LINE
8
BLACK
6
CONTINUOUS
10
0.536262
20
0.296558
11
0.537345
21
0.296849
0
LINE
8
BLACK
6
CONTINUOUS
10
0.537345
20
0.296849
11
0.537758
21
0.296738
0
LINE
8
BLACK
6
CONTINUOUS
10
0.537758
20
0.296738
11
0.538183
21
0.296789
0
LINE
8
BLACK
6
CONTINUOUS
10
0.538183
20
0.296789
11
0.539215
21
0.296348
0
LINE
8
BLACK
6
CONTINUOUS
10
0.539215
20
0.296348
11
0.540298
21
0.296057
0
LINE
8
BLACK
6
CONTINUOUS
10
0.540298
20
0.296057
11
0.540601
21
0.295755
0
LINE
8
BLACK
6
CONTINUOUS
10
0.540601
20
0.295755
11
0.540994
21
0.295587
0
LINE
8
BLACK
6
CONTINUOUS
10
0.540994
20
0.295587
11
0.57081
21
0.27216
0
LINE
8
BLACK
6
CONTINUOUS
10
0.57081
20
0.27216
11
0.57081
21
0.290943
0
LINE
8
BLACK
6
CONTINUOUS
10
0.57081
20
0.290943
11
0.571601
21
0.293896
0
LINE
8
BLACK
6
CONTINUOUS
10
0.571601
20
0.293896
11
0.573763
21
0.296057
0
LINE
8
BLACK
6
CONTINUOUS
10
0.573763
20
0.296057
11
0.576715
21
0.296849
0
LINE
8
BLACK
6
CONTINUOUS
10
0.576715
20
0.296849
11
0.579668
21
0.296057
0
LINE
8
BLACK
6
CONTINUOUS
10
-0.829571
20
0.353708
11
-0.827622
21
0.355124
0
LINE
8
BLACK
6
CONTINUOUS
10
-0.827622
20
0.355124
11
-0.826417
21
0.355315
0
LINE
8
BLACK
6
CONTINUOUS
10
-0.826417
20
0.355315
11
-0.160509
21
0.355315
0
LINE
8
BLACK
6
CONTINUOUS
10
-0.160509
20
0.355315
11
-0.158218
21
0.354571
0
LINE
8
BLACK
6
CONTINUOUS
10
-0.158218
20
0.354571
11
-0.156802
21
0.352622
0
LINE
8
BLACK
6
CONTINUOUS
10
-0.156802
20
0.352622
11
-0.156802
21
0.350213
0
LINE
8
BLACK
6
CONTINUOUS
10
-0.156802
20
0.350213
11
-0.158136
21
0.348325
0
LINE
8
BLACK
6
CONTINUOUS
10
-0.158136
20
0.348325
11
-0.16009
21
0.346826
0
LINE
8
BLACK
6
CONTINUOUS
10
-0.16009
20
0.346826
11
-0.163879
21
0.341887
0
LINE
8
BLACK
6
CONTINUOUS
10
-0.163879
20
0.341887
11
-0.166262
21
0.336136
0
LINE
8
BLACK
6
CONTINUOUS
10
-0.166262
20
0.336136
11
-0.167074
21
0.329964
0
LINE
8
BLACK
6
CONTINUOUS
10
-0.167074
20
0.329964
11
-0.166262
21
0.323793
0
LINE
8
BLACK
6
CONTINUOUS
10
-0.166262
20
0.323793
11
-0.163879
21
0.318042
0
LINE
8
BLACK
6
CONTINUOUS
10
-0.163879
20
0.318042
11
-0.163724
21
0.317839
0
LINE
8
BLACK
6
CONTINUOUS
10
-0.163724
20
0.317839
11
-0.162203
21
0.315857
0
LINE
8
BLACK
6
CONTINUOUS
10
-0.162203
20
0.315857
11
-0.161398
21
0.313484
0
LINE
8
BLACK
6
CONTINUOUS
10
-0.161398
20
0.313484
11
-0.161398
21
0.26652
0
LINE
8
BLACK
6
CONTINUOUS
10
-0.161398
20
0.26652
11
-0.162142
21
0.264229
0
LINE
8
BLACK
6
CONTINUOUS
10
-0.162142
20
0.264229
11
-0.164091
21
0.262813
0
LINE
8
BLACK
6
CONTINUOUS
10
-0.164091
20
0.262813
11
-0.165295
21
0.262622
0
LINE
8
BLACK
6
CONTINUOUS
10
-0.165295
20
0.262622
11
-0.482338
21
0.262622
0
LINE
8
BLACK
6
CONTINUOUS
10
-0.482338
20
0.262622
11
-0.484629
21
0.263366
0
LINE
8
BLACK
6
CONTINUOUS
10
-0.484629
20
0.263366
11
-0.48543
21
0.264147
0
LINE
8
BLACK
6
CONTINUOUS
10
-0.48543
20
0.264147
11
-0.486605
21
0.265678
0
LINE
8
BLACK
6
CONTINUOUS
10
-0.486605
20
0.265678
11
-0.486761
21
0.265881
0
LINE
8
BLACK
6
CONTINUOUS
10
-0.486761
20
0.265881
11
-0.491699
21
0.269671
0
LINE
8
BLACK
6
CONTINUOUS
10
-0.491699
20
0.269671
11
-0.49745
21
0.272053
0
LINE
8
BLACK
6
CONTINUOUS
10
-0.49745
20
0.272053
11
-0.503622
21
0.272865
0
LINE
8
BLACK
6
CONTINUOUS
10
-0.503622
20
0.272865
11
-0.509794
21
0.272053
0
LINE
8
BLACK
6
CONTINUOUS
10
-0.509794
20
0.272053
11
-0.515545
21
0.269671
0
LINE
8
BLACK
6
CONTINUOUS
10
-0.515545
20
0.269671
11
-0.520484
21
0.265881
0
LINE
8
BLACK
6
CONTINUOUS
10
-0.520484
20
0.265881
11
-0.524273
21
0.260942
0
LINE
8
BLACK
6
CONTINUOUS
10
-0.524273
20
0.260942
11
-0.526655
21
0.255191
0
LINE
8
BLACK
6
CONTINUOUS
10
-0.526655
20
0.255191
11
-0.527468
21
0.24902
0
LINE
8
BLACK
6
CONTINUOUS
10
-0.527468
20
0.24902
11
-0.526655
21
0.242848
0
LINE
8
BLACK
6
CONTINUOUS
10
-0.526655
20
0.242848
11
-0.524273
21
0.237097
0
LINE
8
BLACK
6
CONTINUOUS
10
-0.524273
20
0.237097
11
-0.520484
21
0.232158
0
LINE
8
BLACK
6
CONTINUOUS
10
-0.520484
20
0.232158
11
-0.515545
21
0.228369
0
LINE
8
BLACK
6
CONTINUOUS
10
-0.515545
20
0.228369
11
-0.509794
21
0.225986
0
LINE
8
BLACK
6
CONTINUOUS
10
-0.509794
20
0.225986
11
-0.503622
21
0.225174
0
LINE
8
BLACK
6
CONTINUOUS
10
-0.503622
20
0.225174
11
-0.49745
21
0.225986
0
LINE
8
BLACK
6
CONTINUOUS
10
-0.49745
20
0.225986
11
-0.495359
21
0.226853
0
LINE
8
BLACK
6
CONTINUOUS
10
-0.495359
20
0.226853
11
-0.493867
21
0.227149
0
LINE
8
BLACK
6
CONTINUOUS
10
-0.493867
20
0.227149
11
-0.14614
21
0.227149
0
LINE
8
BLACK
6
CONTINUOUS
10
-0.14614
20
0.227149
11
-0.145643
21
0.227093
0
LINE
8
BLACK
6
CONTINUOUS
10
-0.145643
20
0.227093
11
-0.145643
21
0.227093
0
LINE
8
BLACK
6
CONTINUOUS
10
-0.145643
20
0.227093
11
-0.145353
21
0.22707
0
LINE
8
BLACK
6
CONTINUOUS
10
-0.145353
20
0.22707
11
-0.145069
21
0.227004
0
LINE
8
BLACK
6
CONTINUOUS
10
-0.145069
20
0.227004
11
-0.143157
21
0.22714
0
LINE
8
BLACK
6
CONTINUOUS
10
-0.143157
20
0.22714
11
-0.142882
21
0.227149
0
LINE
8
BLACK
6
CONTINUOUS
10
-0.142882
20
0.227149
11
0.065684
21
0.227149
0
LINE
8
BLACK
6
CONTINUOUS
10
0.065684
20
0.227149
11
0.0661421
21
0.227122
0
LINE
8
BLACK
6
CONTINUOUS
10
0.0661421
20
0.227122
11
0.0675319
21
0.226958
0
LINE
8
BLACK
6
CONTINUOUS
10
0.0675319
20
0.226958
11
0.0678183
21
0.22701
0
LINE
8
BLACK
6
CONTINUOUS
10
0.0678183
20
0.22701
11
0.0678185
21
0.22701
0
LINE
8
BLACK
6
CONTINUOUS
10
0.0678185
20
0.22701
11
0.0690271
21
0.227231
0
LINE
8
BLACK
6
CONTINUOUS
10
0.0690271
20
0.227231
11
0.0698201
21
0.227376
0
LINE
8
BLACK
6
CONTINUOUS
10
0.0698201
20
0.227376
11
0.06994
21
0.227396
0
LINE
8
BLACK
6
CONTINUOUS
10
0.06994
20
0.227396
11
0.0722426
21
0.227742
0
LINE
8
BLACK
6
CONTINUOUS
10
0.0722426
20
0.227742
11
0.072499
21
0.227865
0
LINE
8
BLACK
6
CONTINUOUS
10
0.072499
20
0.227865
11
0.0727785
21
0.227916
0
LINE
8
BLACK
6
CONTINUOUS
10
0.0727785
20
0.227916
11
0.0748418
21
0.228988
0
LINE
8
BLACK
6
CONTINUOUS
10
0.0748418
20
0.228988
11
0.0749513
21
0.229043
0
LINE
8
BLACK
6
CONTINUOUS
10
0.0749513
20
0.229043
11
0.0767877
21
0.229925
0
LINE
8
BLACK
6
CONTINUOUS
10
0.0767877
20
0.229925
11
0.0767878
21
0.229925
0
LINE
8
BLACK
6
CONTINUOUS
10
0.0767878
20
0.229925
11
0.0770504
21
0.230051
0
LINE
8
BLACK
6
CONTINUOUS
10
0.0770504
20
0.230051
11
0.0772252
21
0.230212
0
LINE
8
BLACK
6
CONTINUOUS
10
0.0772252
20
0.230212
11
0.0773142
21
0.230272
0
LINE
8
BLACK
6
CONTINUOUS
10
0.0773142
20
0.230272
11
0.0775113
21
0.230375
0
LINE
8
BLACK
6
CONTINUOUS
10
0.0775113
20
0.230375
11
0.0777098
21
0.230544
0
LINE
8
BLACK
6
CONTINUOUS
10
0.0777098
20
0.230544
11
0.0791913
21
0.232026
0
LINE
8
BLACK
6
CONTINUOUS
10
0.0791913
20
0.232026
11
0.0793017
21
0.232132
0
LINE
8
BLACK
6
CONTINUOUS
10
0.0793017
20
0.232132
11
0.0807529
21
0.233473
0
LINE
8
BLACK
6
CONTINUOUS
10
0.0807529
20
0.233473
11
0.080753
21
0.233473
0
LINE
8
BLACK
6
CONTINUOUS
10
0.080753
20
0.233473
11
0.0809668
21
0.233671
0
LINE
8
BLACK
6
CONTINUOUS
10
0.0809668
20
0.233671
11
0.0811054
21
0.23391
0
LINE
8
BLACK
6
CONTINUOUS
10
0.0811054
20
0.23391
11
0.0813637
21
0.234198
0
LINE
8
BLACK
6
CONTINUOUS
10
0.0813637
20
0.234198
11
0.126946
21
0.27978
0
LINE
8
BLACK
6
CONTINUOUS
10
0.126946
20
0.27978
11
0.129193
21
0.280888
0
LINE
8
BLACK
6
CONTINUOUS
10
0.129193
20
0.280888
11
0.132628
21
0.281341
0
LINE
8
BLACK
6
CONTINUOUS
10
0.132628
20
0.281341
11
0.13838
21
0.283723
0
LINE
8
BLACK
6
CONTINUOUS
10
0.13838
20
0.283723
11
0.143318
21
0.287512
0
LINE
8
BLACK
6
CONTINUOUS
10
0.143318
20
0.287512
11
0.147108
21
0.292451
0
LINE
8
BLACK
6
CONTINUOUS
10
0.147108
20
0.292451
11
0.14949
21
0.298202
0
LINE
8
BLACK
6
CONTINUOUS
10
0.14949
20
0.298202
11
0.150302
21
0.304374
0
LINE
8
BLACK
6
CONTINUOUS
10
0.150302
20
0.304374
11
0.150238
21
0.304863
0
LINE
8
BLACK
6
CONTINUOUS
10
0.150238
20
0.304863
11
0.149523
21
0.310292
0
LINE
8
BLACK
6
CONTINUOUS
10
0.149523
20
0.310292
11
0.14949
21
0.310546
0
LINE
8
BLACK
6
CONTINUOUS
10
0.14949
20
0.310546
11
0.147108
21
0.316297
0
LINE
8
BLACK
6
CONTINUOUS
10
0.147108
20
0.316297
11
0.143318
21
0.321235
0
LINE
8
BLACK
6
CONTINUOUS
10
0.143318
20
0.321235
11
0.13838
21
0.325025
0
LINE
8
BLACK
6
CONTINUOUS
10
0.13838
20
0.325025
11
0.132628
21
0.327407
0
LINE
8
BLACK
6
CONTINUOUS
10
0.132628
20
0.327407
11
0.126457
21
0.32822
0
LINE
8
BLACK
6
CONTINUOUS
10
0.126457
20
0.32822
11
0.120285
21
0.327407
0
LINE
8
BLACK
6
CONTINUOUS
10
0.120285
20
0.327407
11
0.114534
21
0.325025
0
LINE
8
BLACK
6
CONTINUOUS
10
0.114534
20
0.325025
11
0.109595
21
0.321235
0
LINE
8
BLACK
6
CONTINUOUS
10
0.109595
20
0.321235
11
0.105806
21
0.316297
0
LINE
8
BLACK
6
CONTINUOUS
10
0.105806
20
0.316297
11
0.103423
21
0.310546
0
LINE
8
BLACK
6
CONTINUOUS
10
0.103423
20
0.310546
11
0.10339
21
0.310292
0
LINE
8
BLACK
6
CONTINUOUS
10
0.10339
20
0.310292
11
0.10339
21
0.310292
0
LINE
8
BLACK
6
CONTINUOUS
10
0.10339
20
0.310292
11
0.102971
21
0.30711
0
LINE
8
BLACK
6
CONTINUOUS
10
0.102971
20
0.30711
11
0.101863
21
0.304863
0
LINE
8
BLACK
6
CONTINUOUS
10
0.101863
20
0.304863
11
0.0607635
21
0.263763
0
LINE
8
BLACK
6
CONTINUOUS
10
0.0607635
20
0.263763
11
0.0586172
21
0.26267
0
LINE
8
BLACK
6
CONTINUOUS
10
0.0586172
20
0.26267
11
0.0580074
21
0.262622
0
LINE
8
BLACK
6
CONTINUOUS
10
0.0580074
20
0.262622
11
-0.122028
21
0.262622
0
LINE
8
BLACK
6
CONTINUOUS
10
-0.122028
20
0.262622
11
-0.124319
21
0.263366
0
LINE
8
BLACK
6
CONTINUOUS
10
-0.124319
20
0.263366
11
-0.125734
21
0.265315
0
LINE
8
BLACK
6
CONTINUOUS
10
-0.125734
20
0.265315
11
-0.125925
21
0.26652
0
LINE
8
BLACK
6
CONTINUOUS
10
-0.125925
20
0.26652
11
-0.125925
21
0.312355
0
LINE
8
BLACK
6
CONTINUOUS
10
-0.125925
20
0.312355
11
-0.12512
21
0.314728
0
LINE
8
BLACK
6
CONTINUOUS
10
-0.12512
20
0.314728
11
-0.122733
21
0.317839
0
LINE
8
BLACK
6
CONTINUOUS
10
-0.122733
20
0.317839
11
-0.122577
21
0.318042
0
LINE
8
BLACK
6
CONTINUOUS
10
-0.122577
20
0.318042
11
-0.120195
21
0.323793
0
LINE
8
BLACK
6
CONTINUOUS
10
-0.120195
20
0.323793
11
-0.119383
21
0.329964
0
LINE
8
BLACK
6
CONTINUOUS
10
-0.119383
20
0.329964
11
-0.120195
21
0.336136
0
LINE
8
BLACK
6
CONTINUOUS
10
-0.120195
20
0.336136
11
-0.122577
21
0.341887
0
LINE
8
BLACK
6
CONTINUOUS
10
-0.122577
20
0.341887
11
-0.126367
21
0.346826
0
LINE
8
BLACK
6
CONTINUOUS
10
-0.126367
20
0.346826
11
-0.128321
21
0.348325
0
LINE
8
BLACK
6
CONTINUOUS
10
-0.128321
20
0.348325
11
-0.129685
21
0.35031
0
LINE
8
BLACK
6
CONTINUOUS
10
-0.129685
20
0.35031
11
-0.129622
21
0.352718
0
LINE
8
BLACK
6
CONTINUOUS
10
-0.129622
20
0.352718
11
-0.128156
21
0.354629
0
LINE
8
BLACK
6
CONTINUOUS
10
-0.128156
20
0.354629
11
-0.125948
21
0.355315
0
LINE
8
BLACK
6
CONTINUOUS
10
-0.125948
20
0.355315
11
-0.0492448
21
0.355315
0
LINE
8
BLACK
6
CONTINUOUS
10
-0.0492448
20
0.355315
11
-0.0463431
21
0.358217
0
LINE
8
BLACK
6
CONTINUOUS
10
-0.0463431
20
0.358217
11
-0.041953
21
0.360454
0
LINE
8
BLACK
6
CONTINUOUS
10
-0.041953
20
0.360454
11
-0.0370866
21
0.361224
0
LINE
8
BLACK
6
CONTINUOUS
10
-0.0370866
20
0.361224
11
-0.0322202
21
0.360454
0
LINE
8
BLACK
6
CONTINUOUS
10
-0.0322202
20
0.360454
11
-0.0278302
21
0.358217
0
LINE
8
BLACK
6
CONTINUOUS
10
-0.0278302
20
0.358217
11
-0.0249285
21
0.355315
0
LINE
8
BLACK
6
CONTINUOUS
10
-0.0249285
20
0.355315
11
0.602795
21
0.355315
0
LINE
8
BLACK
6
CONTINUOUS
10
0.602795
20
0.355315
11
0.605086
21
0.354571
0
LINE
8
BLACK
6
CONTINUOUS
10
0.605086
20
0.354571
11
0.606502
21
0.352622
0
LINE
8
BLACK
6
CONTINUOUS
10
0.606502
20
0.352622
11
0.606693
21
0.351417
0
LINE
8
BLACK
6
CONTINUOUS
10
0.606693
20
0.351417
11
0.606693
21
0.322962
0
LINE
8
BLACK
6
CONTINUOUS
10
0.606693
20
0.322962
11
0.605949
21
0.320671
0
LINE
8
BLACK
6
CONTINUOUS
10
0.605949
20
0.320671
11
0.604
21
0.319255
0
LINE
8
BLACK
6
CONTINUOUS
10
0.604
20
0.319255
11
0.602795
21
0.319065
0
LINE
8
BLACK
6
CONTINUOUS
10
0.602795
20
0.319065
11
0.470965
21
0.319065
0
LINE
8
BLACK
6
CONTINUOUS
10
0.470965
20
0.319065
11
0.470965
21
-0.319293
0
LINE
8
BLACK
6
CONTINUOUS
10
0.470965
20
-0.319293
11
0.602795
21
-0.319293
0
LINE
8
BLACK
6
CONTINUOUS
10
0.602795
20
-0.319293
11
0.605086
21
-0.320038
0
LINE
8
BLACK
6
CONTINUOUS
10
0.605086
20
-0.320038
11
0.606502
21
-0.321986
0
LINE
8
BLACK
6
CONTINUOUS
10
0.606502
20
-0.321986
11
0.606693
21
-0.323191
0
LINE
8
BLACK
6
CONTINUOUS
10
0.606693
20
-0.323191
11
0.606693
21
-0.349449
0
LINE
8
BLACK
6
CONTINUOUS
10
0.606693
20
-0.349449
11
0.605949
21
-0.35174
0
LINE
8
BLACK
6
CONTINUOUS
10
0.605949
20
-0.35174
11
0.604
21
-0.353156
0
LINE
8
BLACK
6
CONTINUOUS
10
0.604
20
-0.353156
11
0.602795
21
-0.353346
0
LINE
8
BLACK
6
CONTINUOUS
10
0.602795
20
-0.353346
11
-0.378964
21
-0.353346
0
LINE
8
BLACK
6
CONTINUOUS
10
-0.378964
20
-0.353346
11
-0.381255
21
-0.352602
0
LINE
8
BLACK
6
CONTINUOUS
10
-0.381255
20
-0.352602
11
-0.382671
21
-0.350653
0
LINE
8
BLACK
6
CONTINUOUS
10
-0.382671
20
-0.350653
11
-0.382671
21
-0.348244
0
LINE
8
BLACK
6
CONTINUOUS
10
-0.382671
20
-0.348244
11
-0.381255
21
-0.346296
0
LINE
8
BLACK
6
CONTINUOUS
10
-0.381255
20
-0.346296
11
-0.380487
21
-0.345861
0
LINE
8
BLACK
6
CONTINUOUS
10
-0.380487
20
-0.345861
11
-0.376889
21
-0.344334
0
LINE
8
BLACK
6
CONTINUOUS
10
-0.376889
20
-0.344334
11
-0.376889
21
-0.344334
0
LINE
8
BLACK
6
CONTINUOUS
10
-0.376889
20
-0.344334
11
-0.376745
21
-0.344273
0
LINE
8
BLACK
6
CONTINUOUS
10
-0.376745
20
-0.344273
11
-0.376203
21
-0.343931
0
LINE
8
BLACK
6
CONTINUOUS
10
-0.376203
20
-0.343931
11
-0.369381
21
-0.339635
0
LINE
8
BLACK
6
CONTINUOUS
10
-0.369381
20
-0.339635
11
-0.368433
21
-0.339038
0
LINE
8
BLACK
6
CONTINUOUS
10
-0.368433
20
-0.339038
11
-0.368315
21
-0.338935
0
LINE
8
BLACK
6
CONTINUOUS
10
-0.368315
20
-0.338935
11
-0.368315
21
-0.338935
0
LINE
8
BLACK
6
CONTINUOUS
10
-0.368315
20
-0.338935
11
-0.361182
21
-0.332646
0
LINE
8
BLACK
6
CONTINUOUS
10
-0.361182
20
-0.332646
11
-0.361182
21
-0.332646
0
LINE
8
BLACK
6
CONTINUOUS
10
-0.361182
20
-0.332646
11
-0.361064
21
-0.332542
0
LINE
8
BLACK
6
CONTINUOUS
10
-0.361064
20
-0.332542
11
-0.355057
21
-0.325228
0
LINE
8
BLACK
6
CONTINUOUS
10
-0.355057
20
-0.325228
11
-0.354929
21
-0.325073
0
LINE
8
BLACK
6
CONTINUOUS
10
-0.354929
20
-0.325073
11
-0.354929
21
-0.325073
0
LINE
8
BLACK
6
CONTINUOUS
10
-0.354929
20
-0.325073
11
-0.354829
21
-0.324952
0
LINE
8
BLACK
6
CONTINUOUS
10
-0.354829
20
-0.324952
11
-0.35201
21
-0.320108
0
LINE
8
BLACK
6
CONTINUOUS
10
-0.35201
20
-0.320108
11
-0.349967
21
-0.316597
0
LINE
8
BLACK
6
CONTINUOUS
10
-0.349967
20
-0.316597
11
-0.349967
21
-0.316597
0
LINE
8
BLACK
6
CONTINUOUS
10
-0.349967
20
-0.316597
11
-0.349888
21
-0.316462
0
LINE
8
BLACK
6
CONTINUOUS
10
-0.349888
20
-0.316462
11
-0.346368
21
-0.307291
0
LINE
8
BLACK
6
CONTINUOUS
10
-0.346368
20
-0.307291
11
-0.345033
21
-0.300902
0
LINE
8
BLACK
6
CONTINUOUS
10
-0.345033
20
-0.300902
11
-0.344391
21
-0.297829
0
LINE
8
BLACK
6
CONTINUOUS
10
-0.344391
20
-0.297829
11
-0.344391
21
-0.297829
0
LINE
8
BLACK
6
CONTINUOUS
10
-0.344391
20
-0.297829
11
-0.344359
21
-0.297676
0
LINE
8
BLACK
6
CONTINUOUS
10
-0.344359
20
-0.297676
11
-0.344283
21
-0.29599
0
LINE
8
BLACK
6
CONTINUOUS
10
-0.344283
20
-0.29599
11
-0.344115
21
-0.292293
0
LINE
8
BLACK
6
CONTINUOUS
10
-0.344115
20
-0.292293
11
-0.343914
21
-0.287863
0
LINE
8
BLACK
6
CONTINUOUS
10
-0.343914
20
-0.287863
11
-0.344157
21
-0.285758
0
LINE
8
BLACK
6
CONTINUOUS
10
-0.344157
20
-0.285758
11
-0.344175
21
-0.285602
0
LINE
8
BLACK
6
CONTINUOUS
10
-0.344175
20
-0.285602
11
-0.345025
21
-0.27826
0
LINE
8
BLACK
6
CONTINUOUS
10
-0.345025
20
-0.27826
11
-0.345025
21
-0.27826
0
LINE
8
BLACK
6
CONTINUOUS
10
-0.345025
20
-0.27826
11
-0.345043
21
-0.278105
0
LINE
8
BLACK
6
CONTINUOUS
10
-0.345043
20
-0.278105
11
-0.346848
21
-0.271725
0
LINE
8
BLACK
6
CONTINUOUS
10
-0.346848
20
-0.271725
11
-0.347675
21
-0.268803
0
LINE
8
BLACK
6
CONTINUOUS
10
-0.347675
20
-0.268803
11
-0.347675
21
-0.268803
0
LINE
8
BLACK
6
CONTINUOUS
10
-0.347675
20
-0.268803
11
-0.347717
21
-0.268653
0
LINE
8
BLACK
6
CONTINUOUS
10
-0.347717
20
-0.268653
11
-0.348873
21
-0.266173
0
LINE
8
BLACK
6
CONTINUOUS
10
-0.348873
20
-0.266173
11
-0.351802
21
-0.259892
0
LINE
8
BLACK
6
CONTINUOUS
10
-0.351802
20
-0.259892
11
-0.351802
21
-0.259892
0
LINE
8
BLACK
6
CONTINUOUS
10
-0.351802
20
-0.259892
11
-0.351869
21
-0.25975
0
LINE
8
BLACK
6
CONTINUOUS
10
-0.351869
20
-0.25975
11
-0.351957
21
-0.259621
0
LINE
8
BLACK
6
CONTINUOUS
10
-0.351957
20
-0.259621
11
-0.351957
21
-0.25962
0
LINE
8
BLACK
6
CONTINUOUS
10
-0.351957
20
-0.25962
11
-0.357302
21
-0.251755
0
LINE
8
BLACK
6
CONTINUOUS
10
-0.357302
20
-0.251755
11
-0.357302
21
-0.251755
0
LINE
8
BLACK
6
CONTINUOUS
10
-0.357302
20
-0.251755
11
-0.35739
21
-0.251626
0
LINE
8
BLACK
6
CONTINUOUS
10
-0.35739
20
-0.251626
11
-0.364139
21
-0.244488
0
LINE
8
BLACK
6
CONTINUOUS
10
-0.364139
20
-0.244488
11
-0.371943
21
-0.238522
0
LINE
8
BLACK
6
CONTINUOUS
10
-0.371943
20
-0.238522
11
-0.374375
21
-0.237218
0
LINE
8
BLACK
6
CONTINUOUS
10
-0.374375
20
-0.237218
11
-0.380462
21
-0.233954
0
LINE
8
BLACK
6
CONTINUOUS
10
-0.380462
20
-0.233954
11
-0.380462
21
-0.233954
0
LINE
8
BLACK
6
CONTINUOUS
10
-0.380462
20
-0.233954
11
-0.3806
21
-0.23388
0
LINE
8
BLACK
6
CONTINUOUS
10
-0.3806
20
-0.23388
11
-0.389888
21
-0.230682
0
LINE
8
BLACK
6
CONTINUOUS
10
-0.389888
20
-0.230682
11
-0.398516
21
-0.229192
0
LINE
8
BLACK
6
CONTINUOUS
10
-0.398516
20
-0.229192
11
-0.399447
21
-0.229031
0
LINE
8
BLACK
6
CONTINUOUS
10
-0.399447
20
-0.229031
11
-0.399447
21
-0.229031
0
LINE
8
BLACK
6
CONTINUOUS
10
-0.399447
20
-0.229031
11
-0.399568
21
-0.22901
0
LINE
8
BLACK
6
CONTINUOUS
10
-0.399568
20
-0.22901
11
-0.400472
21
-0.228969
0
LINE
8
BLACK
6
CONTINUOUS
10
-0.400472
20
-0.228969
11
-0.400701
21
-0.228959
0
LINE
8
BLACK
6
CONTINUOUS
10
-0.400701
20
-0.228959
11
-0.400702
21
-0.228959
0
LINE
8
BLACK
6
CONTINUOUS
10
-0.400702
20
-0.228959
11
-0.400745
21
-0.228957
0
LINE
8
BLACK
6
CONTINUOUS
10
-0.400745
20
-0.228957
11
-0.407586
21
-0.228957
0
LINE
8
BLACK
6
CONTINUOUS
10
-0.407586
20
-0.228957
11
-0.407664
21
-0.228963
0
LINE
8
BLACK
6
CONTINUOUS
10
-0.407664
20
-0.228963
11
-0.407664
21
-0.228963
0
LINE
8
BLACK
6
CONTINUOUS
10
-0.407664
20
-0.228963
11
-0.414754
21
-0.229533
0
LINE
8
BLACK
6
CONTINUOUS
10
-0.414754
20
-0.229533
11
-0.414754
21
-0.229533
0
LINE
8
BLACK
6
CONTINUOUS
10
-0.414754
20
-0.229533
11
-0.41491
21
-0.229546
0
LINE
8
BLACK
6
CONTINUOUS
10
-0.41491
20
-0.229546
11
-0.415061
21
-0.229583
0
LINE
8
BLACK
6
CONTINUOUS
10
-0.415061
20
-0.229583
11
-0.415061
21
-0.229583
0
LINE
8
BLACK
6
CONTINUOUS
10
-0.415061
20
-0.229583
11
-0.424297
21
-0.231852
0
LINE
8
BLACK
6
CONTINUOUS
10
-0.424297
20
-0.231852
11
-0.424297
21
-0.231852
0
LINE
8
BLACK
6
CONTINUOUS
10
-0.424297
20
-0.231852
11
-0.424449
21
-0.231889
0
LINE
8
BLACK
6
CONTINUOUS
10
-0.424449
20
-0.231889
11
-0.424593
21
-0.23195
0
LINE
8
BLACK
6
CONTINUOUS
10
-0.424593
20
-0.23195
11
-0.424593
21
-0.23195
0
LINE
8
BLACK
6
CONTINUOUS
10
-0.424593
20
-0.23195
11
-0.433347
21
-0.235666
0
LINE
8
BLACK
6
CONTINUOUS
10
-0.433347
20
-0.235666
11
-0.433491
21
-0.235727
0
LINE
8
BLACK
6
CONTINUOUS
10
-0.433491
20
-0.235727
11
-0.441803
21
-0.240962
0
LINE
8
BLACK
6
CONTINUOUS
10
-0.441803
20
-0.240962
11
-0.441921
21
-0.241065
0
LINE
8
BLACK
6
CONTINUOUS
10
-0.441921
20
-0.241065
11
-0.441921
21
-0.241065
0
LINE
8
BLACK
6
CONTINUOUS
10
-0.441921
20
-0.241065
11
-0.446357
21
-0.244976
0
LINE
8
BLACK
6
CONTINUOUS
10
-0.446357
20
-0.244976
11
-0.449172
21
-0.247458
0
LINE
8
BLACK
6
CONTINUOUS
10
-0.449172
20
-0.247458
11
-0.449271
21
-0.247579
0
LINE
8
BLACK
6
CONTINUOUS
10
-0.449271
20
-0.247579
11
-0.454017
21
-0.253357
0
LINE
8
BLACK
6
CONTINUOUS
10
-0.454017
20
-0.253357
11
-0.455407
21
-0.255048
0
LINE
8
BLACK
6
CONTINUOUS
10
-0.455407
20
-0.255048
11
-0.460348
21
-0.263538
0
LINE
8
BLACK
6
CONTINUOUS
10
-0.460348
20
-0.263538
11
-0.463868
21
-0.272709
0
LINE
8
BLACK
6
CONTINUOUS
10
-0.463868
20
-0.272709
11
-0.4639
21
-0.272862
0
LINE
8
BLACK
6
CONTINUOUS
10
-0.4639
20
-0.272862
11
-0.465724
21
-0.281591
0
LINE
8
BLACK
6
CONTINUOUS
10
-0.465724
20
-0.281591
11
-0.465877
21
-0.282324
0
LINE
8
BLACK
6
CONTINUOUS
10
-0.465877
20
-0.282324
11
-0.466323
21
-0.292137
0
LINE
8
BLACK
6
CONTINUOUS
10
-0.466323
20
-0.292137
11
-0.466305
21
-0.292293
0
LINE
8
BLACK
6
CONTINUOUS
10
-0.466305
20
-0.292293
11
-0.466305
21
-0.292293
0
LINE
8
BLACK
6
CONTINUOUS
10
-0.466305
20
-0.292293
11
-0.465212
21
-0.30174
0
LINE
8
BLACK
6
CONTINUOUS
10
-0.465212
20
-0.30174
11
-0.465194
21
-0.301895
0
LINE
8
BLACK
6
CONTINUOUS
10
-0.465194
20
-0.301895
11
-0.465151
21
-0.302046
0
LINE
8
BLACK
6
CONTINUOUS
10
-0.465151
20
-0.302046
11
-0.465151
21
-0.302046
0
LINE
8
BLACK
6
CONTINUOUS
10
-0.465151
20
-0.302046
11
-0.462962
21
-0.30978
0
LINE
8
BLACK
6
CONTINUOUS
10
-0.462962
20
-0.30978
11
-0.462519
21
-0.311347
0
LINE
8
BLACK
6
CONTINUOUS
10
-0.462519
20
-0.311347
11
-0.462453
21
-0.311489
0
LINE
8
BLACK
6
CONTINUOUS
10
-0.462453
20
-0.311489
11
-0.462453
21
-0.311489
0
LINE
8
BLACK
6
CONTINUOUS
10
-0.462453
20
-0.311489
11
-0.458434
21
-0.320108
0
LINE
8
BLACK
6
CONTINUOUS
10
-0.458434
20
-0.320108
11
-0.458434
21
-0.320108
0
LINE
8
BLACK
6
CONTINUOUS
10
-0.458434
20
-0.320108
11
-0.458368
21
-0.32025
0
LINE
8
BLACK
6
CONTINUOUS
10
-0.458368
20
-0.32025
11
-0.45828
21
-0.320379
0
LINE
8
BLACK
6
CONTINUOUS
10
-0.45828
20
-0.320379
11
-0.45828
21
-0.32038
0
LINE
8
BLACK
6
CONTINUOUS
10
-0.45828
20
-0.32038
11
-0.454385
21
-0.32611
0
LINE
8
BLACK
6
CONTINUOUS
10
-0.454385
20
-0.32611
11
-0.452846
21
-0.328374
0
LINE
8
BLACK
6
CONTINUOUS
10
-0.452846
20
-0.328374
11
-0.446097
21
-0.335512
0
LINE
8
BLACK
6
CONTINUOUS
10
-0.446097
20
-0.335512
11
-0.438293
21
-0.341478
0
LINE
8
BLACK
6
CONTINUOUS
10
-0.438293
20
-0.341478
11
-0.438155
21
-0.341552
0
LINE
8
BLACK
6
CONTINUOUS
10
-0.438155
20
-0.341552
11
-0.438155
21
-0.341552
0
LINE
8
BLACK
6
CONTINUOUS
10
-0.438155
20
-0.341552
11
-0.429834
21
-0.346014
0
LINE
8
BLACK
6
CONTINUOUS
10
-0.429834
20
-0.346014
11
-0.428167
21
-0.347752
0
LINE
8
BLACK
6
CONTINUOUS
10
-0.428167
20
-0.347752
11
-0.42784
21
-0.350139
0
LINE
8
BLACK
6
CONTINUOUS
10
-0.42784
20
-0.350139
11
-0.428978
21
-0.352262
0
LINE
8
BLACK
6
CONTINUOUS
10
-0.428978
20
-0.352262
11
-0.431147
21
-0.35331
0
LINE
8
BLACK
6
CONTINUOUS
10
-0.431147
20
-0.35331
11
-0.431676
21
-0.353346
0
LINE
8
BLACK
6
CONTINUOUS
10
-0.431676
20
-0.353346
11
-0.826417
21
-0.353346
0
LINE
8
BLACK
6
CONTINUOUS
10
-0.826417
20
-0.353346
11
-0.828708
21
-0.352602
0
LINE
8
BLACK
6
CONTINUOUS
10
-0.828708
20
-0.352602
11
-0.830124
21
-0.350653
0
LINE
8
BLACK
6
CONTINUOUS
10
-0.830124
20
-0.350653
11
-0.830315
21
-0.349449
0
LINE
8
BLACK
6
CONTINUOUS
10
-0.830315
20
-0.349449
11
-0.830315
21
0.351417
0
LINE
8
BLACK
6
CONTINUOUS
10
-0.830315
20
0.351417
11
-0.829571
21
0.353708
0
LINE
8
BLACK
6
CONTINUOUS
10
-0.0726039
20
-0.285758
11
-0.0715109
21
-0.295204
0
LINE
8
BLACK
6
CONTINUOUS
10
-0.0715109
20
-0.295204
11
-0.0714929
21
-0.29536
0
LINE
8
BLACK
6
CONTINUOUS
10
-0.0714929
20
-0.29536
11
-0.0714504
21
-0.29551
0
LINE
8
BLACK
6
CONTINUOUS
10
-0.0714504
20
-0.29551
11
-0.0714503
21
-0.29551
0
LINE
8
BLACK
6
CONTINUOUS
10
-0.0714503
20
-0.29551
11
-0.0695396
21
-0.302263
0
LINE
8
BLACK
6
CONTINUOUS
10
-0.0695396
20
-0.302263
11
-0.0688182
21
-0.304812
0
LINE
8
BLACK
6
CONTINUOUS
10
-0.0688182
20
-0.304812
11
-0.0687522
21
-0.304953
0
LINE
8
BLACK
6
CONTINUOUS
10
-0.0687522
20
-0.304953
11
-0.0687521
21
-0.304954
0
LINE
8
BLACK
6
CONTINUOUS
10
-0.0687521
20
-0.304954
11
-0.0647331
21
-0.313573
0
LINE
8
BLACK
6
CONTINUOUS
10
-0.0647331
20
-0.313573
11
-0.064733
21
-0.313573
0
LINE
8
BLACK
6
CONTINUOUS
10
-0.064733
20
-0.313573
11
-0.0646669
21
-0.313714
0
LINE
8
BLACK
6
CONTINUOUS
10
-0.0646669
20
-0.313714
11
-0.0645789
21
-0.313844
0
LINE
8
BLACK
6
CONTINUOUS
10
-0.0645789
20
-0.313844
11
-0.0645787
21
-0.313844
0
LINE
8
BLACK
6
CONTINUOUS
10
-0.0645787
20
-0.313844
11
-0.0592335
21
-0.321709
0
LINE
8
BLACK
6
CONTINUOUS
10
-0.0592335
20
-0.321709
11
-0.0591454
21
-0.321839
0
LINE
8
BLACK
6
CONTINUOUS
10
-0.0591454
20
-0.321839
11
-0.0590379
21
-0.321953
0
LINE
8
BLACK
6
CONTINUOUS
10
-0.0590379
20
-0.321953
11
-0.0583718
21
-0.322657
0
LINE
8
BLACK
6
CONTINUOUS
10
-0.0583718
20
-0.322657
11
-0.0523961
21
-0.328976
0
LINE
8
BLACK
6
CONTINUOUS
10
-0.0523961
20
-0.328976
11
-0.0445926
21
-0.334942
0
LINE
8
BLACK
6
CONTINUOUS
10
-0.0445926
20
-0.334942
11
-0.0444546
21
-0.335016
0
LINE
8
BLACK
6
CONTINUOUS
10
-0.0444546
20
-0.335016
11
-0.0444546
21
-0.335016
0
LINE
8
BLACK
6
CONTINUOUS
10
-0.0444546
20
-0.335016
11
-0.0367982
21
-0.339122
0
LINE
8
BLACK
6
CONTINUOUS
10
-0.0367982
20
-0.339122
11
-0.0359355
21
-0.339584
0
LINE
8
BLACK
6
CONTINUOUS
10
-0.0359355
20
-0.339584
11
-0.0266476
21
-0.342782
0
LINE
8
BLACK
6
CONTINUOUS
10
-0.0266476
20
-0.342782
11
-0.0192323
21
-0.344063
0
LINE
8
BLACK
6
CONTINUOUS
10
-0.0192323
20
-0.344063
11
-0.0170889
21
-0.344434
0
LINE
8
BLACK
6
CONTINUOUS
10
-0.0170889
20
-0.344434
11
-0.0170888
21
-0.344434
0
LINE
8
BLACK
6
CONTINUOUS
10
-0.0170888
20
-0.344434
11
-0.0169678
21
-0.344454
0
LINE
8
BLACK
6
CONTINUOUS
10
-0.0169678
20
-0.344454
11
-0.0160634
21
-0.344495
0
LINE
8
BLACK
6
CONTINUOUS
10
-0.0160634
20
-0.344495
11
-0.0158339
21
-0.344506
0
LINE
8
BLACK
6
CONTINUOUS
10
-0.0158339
20
-0.344506
11
-0.0158337
21
-0.344506
0
LINE
8
BLACK
6
CONTINUOUS
10
-0.0158337
20
-0.344506
11
-0.0157905
21
-0.344508
0
LINE
8
BLACK
6
CONTINUOUS
10
-0.0157905
20
-0.344508
11
-0.00894917
21
-0.344508
0
LINE
8
BLACK
6
CONTINUOUS
10
-0.00894917
20
-0.344508
11
-0.00887146
21
-0.344502
0
LINE
8
BLACK
6
CONTINUOUS
10
-0.00887146
20
-0.344502
11
-0.0088713
21
-0.344502
0
LINE
8
BLACK
6
CONTINUOUS
10
-0.0088713
20
-0.344502
11
-0.00178181
21
-0.343931
0
LINE
8
BLACK
6
CONTINUOUS
10
-0.00178181
20
-0.343931
11
-0.00178161
21
-0.343931
0
LINE
8
BLACK
6
CONTINUOUS
10
-0.00178161
20
-0.343931
11
-0.00162591
21
-0.343919
0
LINE
8
BLACK
6
CONTINUOUS
10
-0.00162591
20
-0.343919
11
-0.00147394
21
-0.343881
0
LINE
8
BLACK
6
CONTINUOUS
10
-0.00147394
20
-0.343881
11
0.00776142
21
-0.341613
0
LINE
8
BLACK
6
CONTINUOUS
10
0.00776142
20
-0.341613
11
0.00776161
21
-0.341613
0
LINE
8
BLACK
6
CONTINUOUS
10
0.00776161
20
-0.341613
11
0.00791362
21
-0.341576
0
LINE
8
BLACK
6
CONTINUOUS
10
0.00791362
20
-0.341576
11
0.00805776
21
-0.341514
0
LINE
8
BLACK
6
CONTINUOUS
10
0.00805776
20
-0.341514
11
0.00805787
21
-0.341514
0
LINE
8
BLACK
6
CONTINUOUS
10
0.00805787
20
-0.341514
11
0.0168116
21
-0.337799
0
LINE
8
BLACK
6
CONTINUOUS
10
0.0168116
20
-0.337799
11
0.0168117
21
-0.337799
0
LINE
8
BLACK
6
CONTINUOUS
10
0.0168117
20
-0.337799
11
0.0169558
21
-0.337737
0
LINE
8
BLACK
6
CONTINUOUS
10
0.0169558
20
-0.337737
11
0.025268
21
-0.332503
0
LINE
8
BLACK
6
CONTINUOUS
10
0.025268
20
-0.332503
11
0.0253854
21
-0.332399
0
LINE
8
BLACK
6
CONTINUOUS
10
0.0253854
20
-0.332399
11
0.0253856
21
-0.332399
0
LINE
8
BLACK
6
CONTINUOUS
10
0.0253856
20
-0.332399
11
0.032519
21
-0.32611
0
LINE
8
BLACK
6
CONTINUOUS
10
0.032519
20
-0.32611
11
0.032519
21
-0.32611
0
LINE
8
BLACK
6
CONTINUOUS
10
0.032519
20
-0.32611
11
0.0326364
21
-0.326007
0
LINE
8
BLACK
6
CONTINUOUS
10
0.0326364
20
-0.326007
11
0.0372586
21
-0.32038
0
LINE
8
BLACK
6
CONTINUOUS
10
0.0372586
20
-0.32038
11
0.038772
21
-0.318537
0
LINE
8
BLACK
6
CONTINUOUS
10
0.038772
20
-0.318537
11
0.0387721
21
-0.318537
0
LINE
8
BLACK
6
CONTINUOUS
10
0.0387721
20
-0.318537
11
0.0388714
21
-0.318416
0
LINE
8
BLACK
6
CONTINUOUS
10
0.0388714
20
-0.318416
11
0.0438126
21
-0.309926
0
LINE
8
BLACK
6
CONTINUOUS
10
0.0438126
20
-0.309926
11
0.0473329
21
-0.300756
0
LINE
8
BLACK
6
CONTINUOUS
10
0.0473329
20
-0.300756
11
0.0486901
21
-0.294259
0
LINE
8
BLACK
6
CONTINUOUS
10
0.0486901
20
-0.294259
11
0.0493096
21
-0.291294
0
LINE
8
BLACK
6
CONTINUOUS
10
0.0493096
20
-0.291294
11
0.0493096
21
-0.291294
0
LINE
8
BLACK
6
CONTINUOUS
10
0.0493096
20
-0.291294
11
0.0493417
21
-0.29114
0
LINE
8
BLACK
6
CONTINUOUS
10
0.0493417
20
-0.29114
11
0.0497872
21
-0.281327
0
LINE
8
BLACK
6
CONTINUOUS
10
0.0497872
20
-0.281327
11
0.0495442
21
-0.279226
0
LINE
8
BLACK
6
CONTINUOUS
10
0.0495442
20
-0.279226
11
0.0486762
21
-0.271725
0
LINE
8
BLACK
6
CONTINUOUS
10
0.0486762
20
-0.271725
11
0.0486762
21
-0.271725
0
LINE
8
BLACK
6
CONTINUOUS
10
0.0486762
20
-0.271725
11
0.0486582
21
-0.271569
0
LINE
8
BLACK
6
CONTINUOUS
10
0.0486582
20
-0.271569
11
0.0478756
21
-0.268803
0
LINE
8
BLACK
6
CONTINUOUS
10
0.0478756
20
-0.268803
11
0.0460262
21
-0.262268
0
LINE
8
BLACK
6
CONTINUOUS
10
0.0460262
20
-0.262268
11
0.0460261
21
-0.262268
0
LINE
8
BLACK
6
CONTINUOUS
10
0.0460261
20
-0.262268
11
0.0459836
21
-0.262117
0
LINE
8
BLACK
6
CONTINUOUS
10
0.0459836
20
-0.262117
11
0.0435987
21
-0.257003
0
LINE
8
BLACK
6
CONTINUOUS
10
0.0435987
20
-0.257003
11
0.0418984
21
-0.253357
0
LINE
8
BLACK
6
CONTINUOUS
10
0.0418984
20
-0.253357
11
0.0418983
21
-0.253356
0
LINE
8
BLACK
6
CONTINUOUS
10
0.0418983
20
-0.253356
11
0.0418322
21
-0.253215
0
LINE
8
BLACK
6
CONTINUOUS
10
0.0418322
20
-0.253215
11
0.0417442
21
-0.253085
0
LINE
8
BLACK
6
CONTINUOUS
10
0.0417442
20
-0.253085
11
0.0417441
21
-0.253085
0
LINE
8
BLACK
6
CONTINUOUS
10
0.0417441
20
-0.253085
11
0.0363988
21
-0.24522
0
LINE
8
BLACK
6
CONTINUOUS
10
0.0363988
20
-0.24522
11
0.0363988
21
-0.24522
0
LINE
8
BLACK
6
CONTINUOUS
10
0.0363988
20
-0.24522
11
0.0363108
21
-0.24509
0
LINE
8
BLACK
6
CONTINUOUS
10
0.0363108
20
-0.24509
11
0.0295615
21
-0.237953
0
LINE
8
BLACK
6
CONTINUOUS
10
0.0295615
20
-0.237953
11
0.0217579
21
-0.231987
0
LINE
8
BLACK
6
CONTINUOUS
10
0.0217579
20
-0.231987
11
0.0171825
21
-0.229533
0
LINE
8
BLACK
6
CONTINUOUS
10
0.0171825
20
-0.229533
11
0.0132386
21
-0.227419
0
LINE
8
BLACK
6
CONTINUOUS
10
0.0132386
20
-0.227419
11
0.0132385
21
-0.227419
0
LINE
8
BLACK
6
CONTINUOUS
10
0.0132385
20
-0.227419
11
0.0131008
21
-0.227345
0
LINE
8
BLACK
6
CONTINUOUS
10
0.0131008
20
-0.227345
11
0.00381291
21
-0.224147
0
LINE
8
BLACK
6
CONTINUOUS
10
0.00381291
20
-0.224147
11
-0.00360236
21
-0.222866
0
LINE
8
BLACK
6
CONTINUOUS
10
-0.00360236
20
-0.222866
11
-0.00574575
21
-0.222496
0
LINE
8
BLACK
6
CONTINUOUS
10
-0.00574575
20
-0.222496
11
-0.00574583
21
-0.222496
0
LINE
8
BLACK
6
CONTINUOUS
10
-0.00574583
20
-0.222496
11
-0.00586681
21
-0.222475
0
LINE
8
BLACK
6
CONTINUOUS
10
-0.00586681
20
-0.222475
11
-0.00677122
21
-0.222434
0
LINE
8
BLACK
6
CONTINUOUS
10
-0.00677122
20
-0.222434
11
-0.00700071
21
-0.222423
0
LINE
8
BLACK
6
CONTINUOUS
10
-0.00700071
20
-0.222423
11
-0.00700094
21
-0.222423
0
LINE
8
BLACK
6
CONTINUOUS
10
-0.00700094
20
-0.222423
11
-0.00704417
21
-0.222421
0
LINE
8
BLACK
6
CONTINUOUS
10
-0.00704417
20
-0.222421
11
-0.0138855
21
-0.222421
0
LINE
8
BLACK
6
CONTINUOUS
10
-0.0138855
20
-0.222421
11
-0.0139632
21
-0.222428
0
LINE
8
BLACK
6
CONTINUOUS
10
-0.0139632
20
-0.222428
11
-0.0139633
21
-0.222428
0
LINE
8
BLACK
6
CONTINUOUS
10
-0.0139633
20
-0.222428
11
-0.0210528
21
-0.222998
0
LINE
8
BLACK
6
CONTINUOUS
10
-0.0210528
20
-0.222998
11
-0.021053
21
-0.222998
0
LINE
8
BLACK
6
CONTINUOUS
10
-0.021053
20
-0.222998
11
-0.0212087
21
-0.22301
0
LINE
8
BLACK
6
CONTINUOUS
10
-0.0212087
20
-0.22301
11
-0.0213607
21
-0.223048
0
LINE
8
BLACK
6
CONTINUOUS
10
-0.0213607
20
-0.223048
11
-0.0213607
21
-0.223048
0
LINE
8
BLACK
6
CONTINUOUS
10
-0.0213607
20
-0.223048
11
-0.0305961
21
-0.225316
0
LINE
8
BLACK
6
CONTINUOUS
10
-0.0305961
20
-0.225316
11
-0.0305963
21
-0.225316
0
LINE
8
BLACK
6
CONTINUOUS
10
-0.0305963
20
-0.225316
11
-0.0307483
21
-0.225354
0
LINE
8
BLACK
6
CONTINUOUS
10
-0.0307483
20
-0.225354
11
-0.0308924
21
-0.225415
0
LINE
8
BLACK
6
CONTINUOUS
10
-0.0308924
20
-0.225415
11
-0.0308925
21
-0.225415
0
LINE
8
BLACK
6
CONTINUOUS
10
-0.0308925
20
-0.225415
11
-0.0396462
21
-0.229131
0
LINE
8
BLACK
6
CONTINUOUS
10
-0.0396462
20
-0.229131
11
-0.0397904
21
-0.229192
0
LINE
8
BLACK
6
CONTINUOUS
10
-0.0397904
20
-0.229192
11
-0.0399229
21
-0.229275
0
LINE
8
BLACK
6
CONTINUOUS
10
-0.0399229
20
-0.229275
11
-0.039923
21
-0.229275
0
LINE
8
BLACK
6
CONTINUOUS
10
-0.039923
20
-0.229275
11
-0.0421147
21
-0.230655
0
LINE
8
BLACK
6
CONTINUOUS
10
-0.0421147
20
-0.230655
11
-0.0481027
21
-0.234426
0
LINE
8
BLACK
6
CONTINUOUS
10
-0.0481027
20
-0.234426
11
-0.04822
21
-0.23453
0
LINE
8
BLACK
6
CONTINUOUS
10
-0.04822
20
-0.23453
11
-0.0482202
21
-0.23453
0
LINE
8
BLACK
6
CONTINUOUS
10
-0.0482202
20
-0.23453
11
-0.0527485
21
-0.238522
0
LINE
8
BLACK
6
CONTINUOUS
10
-0.0527485
20
-0.238522
11
-0.0554711
21
-0.240922
0
LINE
8
BLACK
6
CONTINUOUS
10
-0.0554711
20
-0.240922
11
-0.0617061
21
-0.248513
0
LINE
8
BLACK
6
CONTINUOUS
10
-0.0617061
20
-0.248513
11
-0.0617848
21
-0.248648
0
LINE
8
BLACK
6
CONTINUOUS
10
-0.0617848
20
-0.248648
11
-0.0654393
21
-0.254927
0
LINE
8
BLACK
6
CONTINUOUS
10
-0.0654393
20
-0.254927
11
-0.0666472
21
-0.257003
0
LINE
8
BLACK
6
CONTINUOUS
10
-0.0666472
20
-0.257003
11
-0.0701675
21
-0.266173
0
LINE
8
BLACK
6
CONTINUOUS
10
-0.0701675
20
-0.266173
11
-0.0721763
21
-0.275789
0
LINE
8
BLACK
6
CONTINUOUS
10
-0.0721763
20
-0.275789
11
-0.0721834
21
-0.275945
0
LINE
8
BLACK
6
CONTINUOUS
10
-0.0721834
20
-0.275945
11
-0.0721834
21
-0.275946
0
LINE
8
BLACK
6
CONTINUOUS
10
-0.0721834
20
-0.275946
11
-0.0722926
21
-0.278349
0
LINE
8
BLACK
6
CONTINUOUS
10
-0.0722926
20
-0.278349
11
-0.0726219
21
-0.285602
0
LINE
8
BLACK
6
CONTINUOUS
10
-0.0726219
20
-0.285602
11
-0.0726039
21
-0.285757
0
LINE
8
BLACK
6
CONTINUOUS
10
-0.0726039
20
-0.285757
11
-0.0726039
21
-0.285758
0
LINE
8
BLACK
6
CONTINUOUS
10
0.185844
20
-0.139156
11
0.188455
21
-0.1409
0
LINE
8
BLACK
6
CONTINUOUS
10
0.188455
20
-0.1409
11
0.188832
21
-0.140975
0
LINE
8
BLACK
6
CONTINUOUS
10
0.188832
20
-0.140975
11
0.188832
21
-0.140975
0
LINE
8
BLACK
6
CONTINUOUS
10
0.188832
20
-0.140975
11
0.189725
21
-0.141153
0
LINE
8
BLACK
6
CONTINUOUS
10
0.189725
20
-0.141153
11
0.190758
21
-0.141358
0
LINE
8
BLACK
6
CONTINUOUS
10
0.190758
20
-0.141358
11
0.259242
21
-0.141358
0
LINE
8
BLACK
6
CONTINUOUS
10
0.259242
20
-0.141358
11
0.260275
21
-0.141153
0
LINE
8
BLACK
6
CONTINUOUS
10
0.260275
20
-0.141153
11
0.261168
21
-0.140975
0
LINE
8
BLACK
6
CONTINUOUS
10
0.261168
20
-0.140975
11
0.261168
21
-0.140975
0
LINE
8
BLACK
6
CONTINUOUS
10
0.261168
20
-0.140975
11
0.261545
21
-0.1409
0
LINE
8
BLACK
6
CONTINUOUS
10
0.261545
20
-0.1409
11
0.264156
21
-0.139156
0
LINE
8
BLACK
6
CONTINUOUS
10
0.264156
20
-0.139156
11
0.2659
21
-0.136545
0
LINE
8
BLACK
6
CONTINUOUS
10
0.2659
20
-0.136545
11
0.266358
21
-0.134242
0
LINE
8
BLACK
6
CONTINUOUS
10
0.266358
20
-0.134242
11
0.266358
21
-0.065758
0
LINE
8
BLACK
6
CONTINUOUS
10
0.266358
20
-0.065758
11
0.2659
21
-0.0634555
0
LINE
8
BLACK
6
CONTINUOUS
10
0.2659
20
-0.0634555
11
0.264156
21
-0.0608444
0
LINE
8
BLACK
6
CONTINUOUS
10
0.264156
20
-0.0608444
11
0.261545
21
-0.0590997
0
LINE
8
BLACK
6
CONTINUOUS
10
0.261545
20
-0.0590997
11
0.261168
21
-0.0590248
0
LINE
8
BLACK
6
CONTINUOUS
10
0.261168
20
-0.0590248
11
0.261168
21
-0.0590248
0
LINE
8
BLACK
6
CONTINUOUS
10
0.261168
20
-0.0590248
11
0.260275
21
-0.0588473
0
LINE
8
BLACK
6
CONTINUOUS
10
0.260275
20
-0.0588473
11
0.259242
21
-0.0586417
0
LINE
8
BLACK
6
CONTINUOUS
10
0.259242
20
-0.0586417
11
0.190758
21
-0.0586417
0
LINE
8
BLACK
6
CONTINUOUS
10
0.190758
20
-0.0586417
11
0.189725
21
-0.0588473
0
LINE
8
BLACK
6
CONTINUOUS
10
0.189725
20
-0.0588473
11
0.188832
21
-0.0590248
0
LINE
8
BLACK
6
CONTINUOUS
10
0.188832
20
-0.0590248
11
0.188832
21
-0.0590248
0
LINE
8
BLACK
6
CONTINUOUS
10
0.188832
20
-0.0590248
11
0.188455
21
-0.0590997
0
LINE
8
BLACK
6
CONTINUOUS
10
0.188455
20
-0.0590997
11
0.185844
21
-0.0608444
0
LINE
8
BLACK
6
CONTINUOUS
10
0.185844
20
-0.0608444
11
0.1841
21
-0.0634555
0
LINE
8
BLACK
6
CONTINUOUS
10
0.1841
20
-0.0634555
11
0.183642
21
-0.065758
0
LINE
8
BLACK
6
CONTINUOUS
10
0.183642
20
-0.065758
11
0.183642
21
-0.134242
0
LINE
8
BLACK
6
CONTINUOUS
10
0.183642
20
-0.134242
11
0.1841
21
-0.136545
0
LINE
8
BLACK
6
CONTINUOUS
10
0.1841
20
-0.136545
11
0.185844
21
-0.139156
0
LINE
8
BLACK
6
CONTINUOUS
10
-0.57136
20
-0.248888
11
-0.571204
21
-0.24909
0
LINE
8
BLACK
6
CONTINUOUS
10
-0.571204
20
-0.24909
11
-0.568542
21
-0.25256
0
LINE
8
BLACK
6
CONTINUOUS
10
-0.568542
20
-0.25256
11
-0.567736
21
-0.254933
0
LINE
8
BLACK
6
CONTINUOUS
10
-0.567736
20
-0.254933
11
-0.567736
21
-0.281447
0
LINE
8
BLACK
6
CONTINUOUS
10
-0.567736
20
-0.281447
11
-0.567144
21
-0.285388
0
LINE
8
BLACK
6
CONTINUOUS
10
-0.567144
20
-0.285388
11
-0.567018
21
-0.285651
0
LINE
8
BLACK
6
CONTINUOUS
10
-0.567018
20
-0.285651
11
-0.567018
21
-0.285651
0
LINE
8
BLACK
6
CONTINUOUS
10
-0.567018
20
-0.285651
11
-0.564961
21
-0.289934
0
LINE
8
BLACK
6
CONTINUOUS
10
-0.564961
20
-0.289934
11
-0.564835
21
-0.290196
0
LINE
8
BLACK
6
CONTINUOUS
10
-0.564835
20
-0.290196
11
-0.561215
21
-0.294113
0
LINE
8
BLACK
6
CONTINUOUS
10
-0.561215
20
-0.294113
11
-0.556603
21
-0.296791
0
LINE
8
BLACK
6
CONTINUOUS
10
-0.556603
20
-0.296791
11
-0.551407
21
-0.297996
0
LINE
8
BLACK
6
CONTINUOUS
10
-0.551407
20
-0.297996
11
-0.546087
21
-0.297619
0
LINE
8
BLACK
6
CONTINUOUS
10
-0.546087
20
-0.297619
11
-0.541113
21
-0.295695
0
LINE
8
BLACK
6
CONTINUOUS
10
-0.541113
20
-0.295695
11
-0.536925
21
-0.292393
0
LINE
8
BLACK
6
CONTINUOUS
10
-0.536925
20
-0.292393
11
-0.533892
21
-0.288005
0
LINE
8
BLACK
6
CONTINUOUS
10
-0.533892
20
-0.288005
11
-0.532284
21
-0.28292
0
LINE
8
BLACK
6
CONTINUOUS
10
-0.532284
20
-0.28292
11
-0.532264
21
-0.28266
0
LINE
8
BLACK
6
CONTINUOUS
10
-0.532264
20
-0.28266
11
-0.532264
21
-0.253086
0
LINE
8
BLACK
6
CONTINUOUS
10
-0.532264
20
-0.253086
11
-0.531458
21
-0.250713
0
LINE
8
BLACK
6
CONTINUOUS
10
-0.531458
20
-0.250713
11
-0.530058
21
-0.248888
0
LINE
8
BLACK
6
CONTINUOUS
10
-0.530058
20
-0.248888
11
-0.527675
21
-0.243136
0
LINE
8
BLACK
6
CONTINUOUS
10
-0.527675
20
-0.243136
11
-0.526863
21
-0.236965
0
LINE
8
BLACK
6
CONTINUOUS
10
-0.526863
20
-0.236965
11
-0.527675
21
-0.230793
0
LINE
8
BLACK
6
CONTINUOUS
10
-0.527675
20
-0.230793
11
-0.530058
21
-0.225042
0
LINE
8
BLACK
6
CONTINUOUS
10
-0.530058
20
-0.225042
11
-0.531458
21
-0.223216
0
LINE
8
BLACK
6
CONTINUOUS
10
-0.531458
20
-0.223216
11
-0.532264
21
-0.220844
0
LINE
8
BLACK
6
CONTINUOUS
10
-0.532264
20
-0.220844
11
-0.532264
21
-0.0170446
0
LINE
8
BLACK
6
CONTINUOUS
10
-0.532264
20
-0.0170446
11
-0.531458
21
-0.0146719
0
LINE
8
BLACK
6
CONTINUOUS
10
-0.531458
20
-0.0146719
11
-0.529505
21
-0.0121256
0
LINE
8
BLACK
6
CONTINUOUS
10
-0.529505
20
-0.0121256
11
-0.529349
21
-0.0119229
0
LINE
8
BLACK
6
CONTINUOUS
10
-0.529349
20
-0.0119229
11
-0.526967
21
-0.00617173
0
LINE
8
BLACK
6
CONTINUOUS
10
-0.526967
20
-0.00617173
11
-0.526154
21
0
0
LINE
8
BLACK
6
CONTINUOUS
10
-0.526154
20
0
11
-0.526967
21
0.00617173
0
LINE
8
BLACK
6
CONTINUOUS
10
-0.526967
20
0.00617173
11
-0.529349
21
0.0119229
0
LINE
8
BLACK
6
CONTINUOUS
10
-0.529349
20
0.0119229
11
-0.533139
21
0.0168615
0
LINE
8
BLACK
6
CONTINUOUS
10
-0.533139
20
0.0168615
11
-0.538077
21
0.020651
0
LINE
8
BLACK
6
CONTINUOUS
10
-0.538077
20
0.020651
11
-0.542715
21
0.022572
0
LINE
8
BLACK
6
CONTINUOUS
10
-0.542715
20
0.022572
11
-0.543592
21
0.0229354
0
LINE
8
BLACK
6
CONTINUOUS
10
-0.543592
20
0.0229354
11
-0.543828
21
0.0230332
0
LINE
8
BLACK
6
CONTINUOUS
10
-0.543828
20
0.0230332
11
-0.55
21
0.0238457
0
LINE
8
BLACK
6
CONTINUOUS
10
-0.55
20
0.0238457
11
-0.556172
21
0.0230332
0
LINE
8
BLACK
6
CONTINUOUS
10
-0.556172
20
0.0230332
11
-0.556408
21
0.0229354
0
LINE
8
BLACK
6
CONTINUOUS
10
-0.556408
20
0.0229354
11
-0.557285
21
0.022572
0
LINE
8
BLACK
6
CONTINUOUS
10
-0.557285
20
0.022572
11
-0.561923
21
0.020651
0
LINE
8
BLACK
6
CONTINUOUS
10
-0.561923
20
0.020651
11
-0.566861
21
0.0168615
0
LINE
8
BLACK
6
CONTINUOUS
10
-0.566861
20
0.0168615
11
-0.570651
21
0.0119229
0
LINE
8
BLACK
6
CONTINUOUS
10
-0.570651
20
0.0119229
11
-0.573033
21
0.00617173
0
LINE
8
BLACK
6
CONTINUOUS
10
-0.573033
20
0.00617173
11
-0.573846
21
0
0
LINE
8
BLACK
6
CONTINUOUS
10
-0.573846
20
0
11
-0.573033
21
-0.00617173
0
LINE
8
BLACK
6
CONTINUOUS
10
-0.573033
20
-0.00617173
11
-0.570651
21
-0.0119229
0
LINE
8
BLACK
6
CONTINUOUS
10
-0.570651
20
-0.0119229
11
-0.570495
21
-0.0121256
0
LINE
8
BLACK
6
CONTINUOUS
10
-0.570495
20
-0.0121256
11
-0.568542
21
-0.0146719
0
LINE
8
BLACK
6
CONTINUOUS
10
-0.568542
20
-0.0146719
11
-0.567736
21
-0.0170446
0
LINE
8
BLACK
6
CONTINUOUS
10
-0.567736
20
-0.0170446
11
-0.567736
21
-0.218997
0
LINE
8
BLACK
6
CONTINUOUS
10
-0.567736
20
-0.218997
11
-0.568542
21
-0.221369
0
LINE
8
BLACK
6
CONTINUOUS
10
-0.568542
20
-0.221369
11
-0.56983
21
-0.223048
0
LINE
8
BLACK
6
CONTINUOUS
10
-0.56983
20
-0.223048
11
-0.57136
21
-0.225042
0
LINE
8
BLACK
6
CONTINUOUS
10
-0.57136
20
-0.225042
11
-0.573742
21
-0.230793
0
LINE
8
BLACK
6
CONTINUOUS
10
-0.573742
20
-0.230793
11
-0.574554
21
-0.236965
0
LINE
8
BLACK
6
CONTINUOUS
10
-0.574554
20
-0.236965
11
-0.573742
21
-0.243136
0
LINE
8
BLACK
6
CONTINUOUS
10
-0.573742
20
-0.243136
11
-0.57136
21
-0.248888
0
LINE
8
BLACK
6
CONTINUOUS
10
0.173867
20
0.0838087
11
0.177054
21
0.0759598
0
LINE
8
BLACK
6
CONTINUOUS
10
0.177054
20
0.0759598
11
0.177198
21
0.0756748
0
LINE
8
BLACK
6
CONTINUOUS
10
0.177198
20
0.0756748
11
0.181625
21
0.0684519
0
LINE
8
BLACK
6
CONTINUOUS
10
0.181625
20
0.0684519
11
0.181813
21
0.0681942
0
LINE
8
BLACK
6
CONTINUOUS
10
0.181813
20
0.0681942
11
0.18736
21
0.0617913
0
LINE
8
BLACK
6
CONTINUOUS
10
0.18736
20
0.0617913
11
0.187588
21
0.0615679
0
LINE
8
BLACK
6
CONTINUOUS
10
0.187588
20
0.0615679
11
0.194106
21
0.0561563
0
LINE
8
BLACK
6
CONTINUOUS
10
0.194106
20
0.0561563
11
0.194367
21
0.0559736
0
LINE
8
BLACK
6
CONTINUOUS
10
0.194367
20
0.0559736
11
0.201682
21
0.0516993
0
LINE
8
BLACK
6
CONTINUOUS
10
0.201682
20
0.0516993
11
0.201969
21
0.0515617
0
LINE
8
BLACK
6
CONTINUOUS
10
0.201969
20
0.0515617
11
0.209883
21
0.0485394
0
LINE
8
BLACK
6
CONTINUOUS
10
0.209883
20
0.0485394
11
0.210189
21
0.0484505
0
LINE
8
BLACK
6
CONTINUOUS
10
0.210189
20
0.0484505
11
0.214291
21
0.047616
0
LINE
8
BLACK
6
CONTINUOUS
10
0.214291
20
0.047616
11
0.216388
21
0.0464298
0
LINE
8
BLACK
6
CONTINUOUS
10
0.216388
20
0.0464298
11
0.217387
21
0.0442378
0
LINE
8
BLACK
6
CONTINUOUS
10
0.217387
20
0.0442378
11
0.216906
21
0.0418773
0
LINE
8
BLACK
6
CONTINUOUS
10
0.216906
20
0.0418773
11
0.21513
21
0.0402499
0
LINE
8
BLACK
6
CONTINUOUS
10
0.21513
20
0.0402499
11
0.214614
21
0.0400576
0
LINE
8
BLACK
6
CONTINUOUS
10
0.214614
20
0.0400576
11
0.209432
21
0.0385323
0
LINE
8
BLACK
6
CONTINUOUS
10
0.209432
20
0.0385323
11
0.209263
21
0.0384441
0
LINE
8
BLACK
6
CONTINUOUS
10
0.209263
20
0.0384441
11
0.209263
21
0.0384441
0
LINE
8
BLACK
6
CONTINUOUS
10
0.209263
20
0.0384441
11
0.208836
21
0.0382206
0
LINE
8
BLACK
6
CONTINUOUS
10
0.208836
20
0.0382206
11
0.202244
21
0.0347746
0
LINE
8
BLACK
6
CONTINUOUS
10
0.202244
20
0.0347746
11
0.202096
21
0.0346552
0
LINE
8
BLACK
6
CONTINUOUS
10
0.202096
20
0.0346552
11
0.196072
21
0.0298118
0
LINE
8
BLACK
6
CONTINUOUS
10
0.196072
20
0.0298118
11
0.196072
21
0.0298117
0
LINE
8
BLACK
6
CONTINUOUS
10
0.196072
20
0.0298117
11
0.195923
21
0.0296923
0
LINE
8
BLACK
6
CONTINUOUS
10
0.195923
20
0.0296923
11
0.195801
21
0.0295462
0
LINE
8
BLACK
6
CONTINUOUS
10
0.195801
20
0.0295462
11
0.1958
21
0.0295462
0
LINE
8
BLACK
6
CONTINUOUS
10
0.1958
20
0.0295462
11
0.191017
21
0.0238457
0
LINE
8
BLACK
6
CONTINUOUS
10
0.191017
20
0.0238457
11
0.19071
21
0.0234791
0
LINE
8
BLACK
6
CONTINUOUS
10
0.19071
20
0.0234791
11
0.190618
21
0.0233119
0
LINE
8
BLACK
6
CONTINUOUS
10
0.190618
20
0.0233119
11
0.190618
21
0.0233119
0
LINE
8
BLACK
6
CONTINUOUS
10
0.190618
20
0.0233119
11
0.190411
21
0.0229354
0
LINE
8
BLACK
6
CONTINUOUS
10
0.190411
20
0.0229354
11
0.186802
21
0.0163716
0
LINE
8
BLACK
6
CONTINUOUS
10
0.186802
20
0.0163716
11
0.18435
21
0.00864047
0
LINE
8
BLACK
6
CONTINUOUS
10
0.18435
20
0.00864047
11
0.184329
21
0.00845102
0
LINE
8
BLACK
6
CONTINUOUS
10
0.184329
20
0.00845102
11
0.184329
21
0.00845098
0
LINE
8
BLACK
6
CONTINUOUS
10
0.184329
20
0.00845098
11
0.184044
21
0.00591835
0
LINE
8
BLACK
6
CONTINUOUS
10
0.184044
20
0.00591835
11
0.183446
21
0.000580236
0
LINE
8
BLACK
6
CONTINUOUS
10
0.183446
20
0.000580236
11
0.184124
21
-0.00750209
0
LINE
8
BLACK
6
CONTINUOUS
10
0.184124
20
-0.00750209
11
0.18636
21
-0.0152987
0
LINE
8
BLACK
6
CONTINUOUS
10
0.18636
20
-0.0152987
11
0.190067
21
-0.0225125
0
LINE
8
BLACK
6
CONTINUOUS
10
0.190067
20
-0.0225125
11
0.195105
21
-0.0288689
0
LINE
8
BLACK
6
CONTINUOUS
10
0.195105
20
-0.0288689
11
0.19525
21
-0.0289922
0
LINE
8
BLACK
6
CONTINUOUS
10
0.19525
20
-0.0289922
11
0.19525
21
-0.0289923
0
LINE
8
BLACK
6
CONTINUOUS
10
0.19525
20
-0.0289923
11
0.196891
21
-0.0303884
0
LINE
8
BLACK
6
CONTINUOUS
10
0.196891
20
-0.0303884
11
0.201282
21
-0.0341256
0
LINE
8
BLACK
6
CONTINUOUS
10
0.201282
20
-0.0341256
11
0.201448
21
-0.0342185
0
LINE
8
BLACK
6
CONTINUOUS
10
0.201448
20
-0.0342185
11
0.201448
21
-0.0342187
0
LINE
8
BLACK
6
CONTINUOUS
10
0.201448
20
-0.0342187
11
0.2045
21
-0.0359243
0
LINE
8
BLACK
6
CONTINUOUS
10
0.2045
20
-0.0359243
11
0.208362
21
-0.0380826
0
LINE
8
BLACK
6
CONTINUOUS
10
0.208362
20
-0.0380826
11
0.208543
21
-0.0381414
0
LINE
8
BLACK
6
CONTINUOUS
10
0.208543
20
-0.0381414
11
0.215895
21
-0.04053
0
LINE
8
BLACK
6
CONTINUOUS
10
0.215895
20
-0.04053
11
0.215895
21
-0.0405301
0
LINE
8
BLACK
6
CONTINUOUS
10
0.215895
20
-0.0405301
11
0.216076
21
-0.0405889
0
LINE
8
BLACK
6
CONTINUOUS
10
0.216076
20
-0.0405889
11
0.22413
21
-0.0415493
0
LINE
8
BLACK
6
CONTINUOUS
10
0.22413
20
-0.0415493
11
0.22432
21
-0.0415346
0
LINE
8
BLACK
6
CONTINUOUS
10
0.22432
20
-0.0415346
11
0.22432
21
-0.0415346
0
LINE
8
BLACK
6
CONTINUOUS
10
0.22432
20
-0.0415346
11
0.22699
21
-0.0413292
0
LINE
8
BLACK
6
CONTINUOUS
10
0.22699
20
-0.0413292
11
0.232217
21
-0.040927
0
LINE
8
BLACK
6
CONTINUOUS
10
0.232217
20
-0.040927
11
0.240029
21
-0.0387459
0
LINE
8
BLACK
6
CONTINUOUS
10
0.240029
20
-0.0387459
11
0.240198
21
-0.0386601
0
LINE
8
BLACK
6
CONTINUOUS
10
0.240198
20
-0.0386601
11
0.240199
21
-0.03866
0
LINE
8
BLACK
6
CONTINUOUS
10
0.240199
20
-0.03866
11
0.247098
21
-0.0351748
0
LINE
8
BLACK
6
CONTINUOUS
10
0.247098
20
-0.0351748
11
0.247098
21
-0.0351748
0
LINE
8
BLACK
6
CONTINUOUS
10
0.247098
20
-0.0351748
11
0.247268
21
-0.0350889
0
LINE
8
BLACK
6
CONTINUOUS
10
0.247268
20
-0.0350889
11
0.248659
21
-0.0340021
0
LINE
8
BLACK
6
CONTINUOUS
10
0.248659
20
-0.0340021
11
0.253509
21
-0.0302128
0
LINE
8
BLACK
6
CONTINUOUS
10
0.253509
20
-0.0302128
11
0.253509
21
-0.0302127
0
LINE
8
BLACK
6
CONTINUOUS
10
0.253509
20
-0.0302127
11
0.253659
21
-0.0300954
0
LINE
8
BLACK
6
CONTINUOUS
10
0.253659
20
-0.0300954
11
0.254357
21
-0.0292879
0
LINE
8
BLACK
6
CONTINUOUS
10
0.254357
20
-0.0292879
11
0.255997
21
-0.0273878
0
LINE
8
BLACK
6
CONTINUOUS
10
0.255997
20
-0.0273878
11
0.258959
21
-0.0239556
0
LINE
8
BLACK
6
CONTINUOUS
10
0.258959
20
-0.0239556
11
0.259694
21
-0.0226619
0
LINE
8
BLACK
6
CONTINUOUS
10
0.259694
20
-0.0226619
11
0.262871
21
-0.0170689
0
LINE
8
BLACK
6
CONTINUOUS
10
0.262871
20
-0.0170689
11
0.262871
21
-0.0170688
0
LINE
8
BLACK
6
CONTINUOUS
10
0.262871
20
-0.0170688
11
0.262965
21
-0.0169033
0
LINE
8
BLACK
6
CONTINUOUS
10
0.262965
20
-0.0169033
11
0.263359
21
-0.0157215
0
LINE
8
BLACK
6
CONTINUOUS
10
0.263359
20
-0.0157215
11
0.265466
21
-0.00938795
0
LINE
8
BLACK
6
CONTINUOUS
10
0.265466
20
-0.00938795
11
0.265466
21
-0.00938787
0
LINE
8
BLACK
6
CONTINUOUS
10
0.265466
20
-0.00938787
11
0.265526
21
-0.0092072
0
LINE
8
BLACK
6
CONTINUOUS
10
0.265526
20
-0.0092072
11
0.265879
21
-0.00640783
0
LINE
8
BLACK
6
CONTINUOUS
10
0.265879
20
-0.00640783
11
0.266528
21
-0.00126882
0
LINE
8
BLACK
6
CONTINUOUS
10
0.266528
20
-0.00126882
11
0.266542
21
-0.00116039
0
LINE
8
BLACK
6
CONTINUOUS
10
0.266542
20
-0.00116039
11
0.266558
21
0
0
LINE
8
BLACK
6
CONTINUOUS
10
0.266558
20
0
11
0.265767
21
0.00807205
0
LINE
8
BLACK
6
CONTINUOUS
10
0.265767
20
0.00807205
11
0.263423
21
0.0158367
0
LINE
8
BLACK
6
CONTINUOUS
10
0.263423
20
0.0158367
11
0.259615
21
0.0229981
0
LINE
8
BLACK
6
CONTINUOUS
10
0.259615
20
0.0229981
11
0.254489
21
0.0292835
0
LINE
8
BLACK
6
CONTINUOUS
10
0.254489
20
0.0292835
11
0.248239
21
0.0344535
0
LINE
8
BLACK
6
CONTINUOUS
10
0.248239
20
0.0344535
11
0.241105
21
0.0383111
0
LINE
8
BLACK
6
CONTINUOUS
10
0.241105
20
0.0383111
11
0.238978
21
0.0389694
0
LINE
8
BLACK
6
CONTINUOUS
10
0.238978
20
0.0389694
11
0.235711
21
0.0399807
0
LINE
8
BLACK
6
CONTINUOUS
10
0.235711
20
0.0399807
11
0.233743
21
0.0413693
0
LINE
8
BLACK
6
CONTINUOUS
10
0.233743
20
0.0413693
11
0.232966
21
0.0436496
0
LINE
8
BLACK
6
CONTINUOUS
10
0.232966
20
0.0436496
11
0.233679
21
0.0459508
0
LINE
8
BLACK
6
CONTINUOUS
10
0.233679
20
0.0459508
11
0.235608
21
0.0473937
0
LINE
8
BLACK
6
CONTINUOUS
10
0.235608
20
0.0473937
11
0.236053
21
0.0475165
0
LINE
8
BLACK
6
CONTINUOUS
10
0.236053
20
0.0475165
11
0.236307
21
0.0475705
0
LINE
8
BLACK
6
CONTINUOUS
10
0.236307
20
0.0475705
11
0.244421
21
0.0500049
0
LINE
8
BLACK
6
CONTINUOUS
10
0.244421
20
0.0500049
11
0.244719
21
0.0501213
0
LINE
8
BLACK
6
CONTINUOUS
10
0.244719
20
0.0501213
11
0.252326
21
0.0538483
0
LINE
8
BLACK
6
CONTINUOUS
10
0.252326
20
0.0538483
11
0.2526
21
0.0540117
0
LINE
8
BLACK
6
CONTINUOUS
10
0.2526
20
0.0540117
11
0.259497
21
0.0589312
0
LINE
8
BLACK
6
CONTINUOUS
10
0.259497
20
0.0589312
11
0.259741
21
0.0591369
0
LINE
8
BLACK
6
CONTINUOUS
10
0.259741
20
0.0591369
11
0.265741
21
0.0651167
0
LINE
8
BLACK
6
CONTINUOUS
10
0.265741
20
0.0651167
11
0.265948
21
0.0653599
0
LINE
8
BLACK
6
CONTINUOUS
10
0.265948
20
0.0653599
11
0.270892
21
0.0722394
0
LINE
8
BLACK
6
CONTINUOUS
10
0.270892
20
0.0722394
11
0.271056
21
0.0725128
0
LINE
8
BLACK
6
CONTINUOUS
10
0.271056
20
0.0725128
11
0.27481
21
0.0801076
0
LINE
8
BLACK
6
CONTINUOUS
10
0.27481
20
0.0801076
11
0.274927
21
0.0804038
0
LINE
8
BLACK
6
CONTINUOUS
10
0.274927
20
0.0804038
11
0.27739
21
0.0885101
0
LINE
8
BLACK
6
CONTINUOUS
10
0.27739
20
0.0885101
11
0.277457
21
0.0888213
0
LINE
8
BLACK
6
CONTINUOUS
10
0.277457
20
0.0888213
11
0.277532
21
0.0893879
0
LINE
8
BLACK
6
CONTINUOUS
10
0.277532
20
0.0893879
11
0.277436
21
0.0899043
0
LINE
8
BLACK
6
CONTINUOUS
10
0.277436
20
0.0899043
11
0.277385
21
0.089953
0
LINE
8
BLACK
6
CONTINUOUS
10
0.277385
20
0.089953
11
0.277177
21
0.09
0
LINE
8
BLACK
6
CONTINUOUS
10
0.277177
20
0.09
11
0.256745
21
0.09
0
LINE
8
BLACK
6
CONTINUOUS
10
0.256745
20
0.09
11
0.255571
21
0.0863887
0
LINE
8
BLACK
6
CONTINUOUS
10
0.255571
20
0.0863887
11
0.252073
21
0.08033
0
LINE
8
BLACK
6
CONTINUOUS
10
0.252073
20
0.08033
11
0.247392
21
0.075131
0
LINE
8
BLACK
6
CONTINUOUS
10
0.247392
20
0.075131
11
0.241732
21
0.0710188
0
LINE
8
BLACK
6
CONTINUOUS
10
0.241732
20
0.0710188
11
0.235341
21
0.0681733
0
LINE
8
BLACK
6
CONTINUOUS
10
0.235341
20
0.0681733
11
0.228498
21
0.0667187
0
LINE
8
BLACK
6
CONTINUOUS
10
0.228498
20
0.0667187
11
0.221502
21
0.0667187
0
LINE
8
BLACK
6
CONTINUOUS
10
0.221502
20
0.0667187
11
0.214659
21
0.0681733
0
LINE
8
BLACK
6
CONTINUOUS
10
0.214659
20
0.0681733
11
0.208268
21
0.0710188
0
LINE
8
BLACK
6
CONTINUOUS
10
0.208268
20
0.0710188
11
0.202608
21
0.075131
0
LINE
8
BLACK
6
CONTINUOUS
10
0.202608
20
0.075131
11
0.197927
21
0.08033
0
LINE
8
BLACK
6
CONTINUOUS
10
0.197927
20
0.08033
11
0.194429
21
0.0863887
0
LINE
8
BLACK
6
CONTINUOUS
10
0.194429
20
0.0863887
11
0.193255
21
0.09
0
LINE
8
BLACK
6
CONTINUOUS
10
0.193255
20
0.09
11
0.173063
21
0.09
0
LINE
8
BLACK
6
CONTINUOUS
10
0.173063
20
0.09
11
0.172577
21
0.0898423
0
LINE
8
BLACK
6
CONTINUOUS
10
0.172577
20
0.0898423
11
0.172561
21
0.0894876
0
LINE
8
BLACK
6
CONTINUOUS
10
0.172561
20
0.0894876
11
0.173772
21
0.0841132
0
LINE
8
BLACK
6
CONTINUOUS
10
0.173772
20
0.0841132
11
0.173867
21
0.0838087
0
LINE
8
BLACK
6
CONTINUOUS
10
0.172542
20
0.110036
11
0.172708
21
0.11
0
LINE
8
BLACK
6
CONTINUOUS
10
0.172708
20
0.11
11
0.193255
21
0.11
0
LINE
8
BLACK
6
CONTINUOUS
10
0.193255
20
0.11
11
0.194429
21
0.113611
0
LINE
8
BLACK
6
CONTINUOUS
10
0.194429
20
0.113611
11
0.197927
21
0.11967
0
LINE
8
BLACK
6
CONTINUOUS
10
0.197927
20
0.11967
11
0.202608
21
0.124869
0
LINE
8
BLACK
6
CONTINUOUS
10
0.202608
20
0.124869
11
0.208268
21
0.128981
0
LINE
8
BLACK
6
CONTINUOUS
10
0.208268
20
0.128981
11
0.214659
21
0.131827
0
LINE
8
BLACK
6
CONTINUOUS
10
0.214659
20
0.131827
11
0.215
21
0.131899
0
LINE
8
BLACK
6
CONTINUOUS
10
0.215
20
0.131899
11
0.215
21
0.151942
0
LINE
8
BLACK
6
CONTINUOUS
10
0.215
20
0.151942
11
0.214838
21
0.152442
0
LINE
8
BLACK
6
CONTINUOUS
10
0.214838
20
0.152442
11
0.214798
21
0.15247
0
LINE
8
BLACK
6
CONTINUOUS
10
0.214798
20
0.15247
11
0.214549
21
0.152491
0
LINE
8
BLACK
6
CONTINUOUS
10
0.214549
20
0.152491
11
0.212725
21
0.152211
0
LINE
8
BLACK
6
CONTINUOUS
10
0.212725
20
0.152211
11
0.212415
21
0.152138
0
LINE
8
BLACK
6
CONTINUOUS
10
0.212415
20
0.152138
11
0.204362
21
0.149506
0
LINE
8
BLACK
6
CONTINUOUS
10
0.204362
20
0.149506
11
0.204069
21
0.149382
0
LINE
8
BLACK
6
CONTINUOUS
10
0.204069
20
0.149382
11
0.196554
21
0.14547
0
LINE
8
BLACK
6
CONTINUOUS
10
0.196554
20
0.14547
11
0.196285
21
0.1453
0
LINE
8
BLACK
6
CONTINUOUS
10
0.196285
20
0.1453
11
0.18951
21
0.140214
0
LINE
8
BLACK
6
CONTINUOUS
10
0.18951
20
0.140214
11
0.189271
21
0.140002
0
LINE
8
BLACK
6
CONTINUOUS
10
0.189271
20
0.140002
11
0.183419
21
0.133877
0
LINE
8
BLACK
6
CONTINUOUS
10
0.183419
20
0.133877
11
0.183218
21
0.133629
0
LINE
8
BLACK
6
CONTINUOUS
10
0.183218
20
0.133629
11
0.178444
21
0.126631
0
LINE
8
BLACK
6
CONTINUOUS
10
0.178444
20
0.126631
11
0.178286
21
0.126354
0
LINE
8
BLACK
6
CONTINUOUS
10
0.178286
20
0.126354
11
0.174719
21
0.11867
0
LINE
8
BLACK
6
CONTINUOUS
10
0.174719
20
0.11867
11
0.174609
21
0.11837
0
LINE
8
BLACK
6
CONTINUOUS
10
0.174609
20
0.11837
11
0.172404
21
0.110418
0
LINE
8
BLACK
6
CONTINUOUS
10
0.172404
20
0.110418
11
0.172471
21
0.1101
0
LINE
8
BLACK
6
CONTINUOUS
10
0.172471
20
0.1101
11
0.172542
21
0.110036
0
LINE
8
BLACK
6
CONTINUOUS
10
0.235088
20
0.152347
11
0.235071
21
0.152331
0
LINE
8
BLACK
6
CONTINUOUS
10
0.235071
20
0.152331
11
0.235
21
0.152047
0
LINE
8
BLACK
6
CONTINUOUS
10
0.235
20
0.152047
11
0.235
21
0.131899
0
LINE
8
BLACK
6
CONTINUOUS
10
0.235
20
0.131899
11
0.235341
21
0.131827
0
LINE
8
BLACK
6
CONTINUOUS
10
0.235341
20
0.131827
11
0.241732
21
0.128981
0
LINE
8
BLACK
6
CONTINUOUS
10
0.241732
20
0.128981
11
0.247392
21
0.124869
0
LINE
8
BLACK
6
CONTINUOUS
10
0.247392
20
0.124869
11
0.252073
21
0.11967
0
LINE
8
BLACK
6
CONTINUOUS
10
0.252073
20
0.11967
11
0.255571
21
0.113611
0
LINE
8
BLACK
6
CONTINUOUS
10
0.255571
20
0.113611
11
0.256745
21
0.11
0
LINE
8
BLACK
6
CONTINUOUS
10
0.256745
20
0.11
11
0.276999
21
0.11
0
LINE
8
BLACK
6
CONTINUOUS
10
0.276999
20
0.11
11
0.27747
21
0.110153
0
LINE
8
BLACK
6
CONTINUOUS
10
0.27747
20
0.110153
11
0.277483
21
0.110533
0
LINE
8
BLACK
6
CONTINUOUS
10
0.277483
20
0.110533
11
0.275825
21
0.117134
0
LINE
8
BLACK
6
CONTINUOUS
10
0.275825
20
0.117134
11
0.275722
21
0.117436
0
LINE
8
BLACK
6
CONTINUOUS
10
0.275722
20
0.117436
11
0.273239
21
0.123146
0
LINE
8
BLACK
6
CONTINUOUS
10
0.273239
20
0.123146
11
0.269071
21
0.123806
0
LINE
8
BLACK
6
CONTINUOUS
10
0.269071
20
0.123806
11
0.264681
21
0.126043
0
LINE
8
BLACK
6
CONTINUOUS
10
0.264681
20
0.126043
11
0.261197
21
0.129527
0
LINE
8
BLACK
6
CONTINUOUS
10
0.261197
20
0.129527
11
0.25896
21
0.133917
0
LINE
8
BLACK
6
CONTINUOUS
10
0.25896
20
0.133917
11
0.258189
21
0.138783
0
LINE
8
BLACK
6
CONTINUOUS
10
0.258189
20
0.138783
11
0.258631
21
0.141571
0
LINE
8
BLACK
6
CONTINUOUS
10
0.258631
20
0.141571
11
0.254814
21
0.144585
0
LINE
8
BLACK
6
CONTINUOUS
10
0.254814
20
0.144585
11
0.254548
21
0.144762
0
LINE
8
BLACK
6
CONTINUOUS
10
0.254548
20
0.144762
11
0.247132
21
0.148856
0
LINE
8
BLACK
6
CONTINUOUS
10
0.247132
20
0.148856
11
0.246841
21
0.148987
0
LINE
8
BLACK
6
CONTINUOUS
10
0.246841
20
0.148987
11
0.238855
21
0.151814
0
LINE
8
BLACK
6
CONTINUOUS
10
0.238855
20
0.151814
11
0.238546
21
0.151896
0
LINE
8
BLACK
6
CONTINUOUS
10
0.238546
20
0.151896
11
0.235608
21
0.152419
0
LINE
8
BLACK
6
CONTINUOUS
10
0.235608
20
0.152419
11
0.235088
21
0.152347
0
LINE
8
BLACK
6
CONTINUOUS
10
-0.262216
20
-0.021763
11
-0.262264
21
-0.0211533
0
LINE
8
BLACK
6
CONTINUOUS
10
-0.262264
20
-0.0211533
11
-0.262264
21
0.08127
0
LINE
8
BLACK
6
CONTINUOUS
10
-0.262264
20
0.08127
11
-0.261519
21
0.083561
0
LINE
8
BLACK
6
CONTINUOUS
10
-0.261519
20
0.083561
11
-0.260739
21
0.0843622
0
LINE
8
BLACK
6
CONTINUOUS
10
-0.260739
20
0.0843622
11
-0.260428
21
0.0846009
0
LINE
8
BLACK
6
CONTINUOUS
10
-0.260428
20
0.0846009
11
-0.260428
21
0.084601
0
LINE
8
BLACK
6
CONTINUOUS
10
-0.260428
20
0.084601
11
-0.260225
21
0.0847565
0
LINE
8
BLACK
6
CONTINUOUS
10
-0.260225
20
0.0847565
11
-0.256595
21
0.0894876
0
LINE
8
BLACK
6
CONTINUOUS
10
-0.256595
20
0.0894876
11
-0.256436
21
0.0896951
0
LINE
8
BLACK
6
CONTINUOUS
10
-0.256436
20
0.0896951
11
-0.254053
21
0.0954462
0
LINE
8
BLACK
6
CONTINUOUS
10
-0.254053
20
0.0954462
11
-0.253241
21
0.101618
0
LINE
8
BLACK
6
CONTINUOUS
10
-0.253241
20
0.101618
11
-0.254053
21
0.10779
0
LINE
8
BLACK
6
CONTINUOUS
10
-0.254053
20
0.10779
11
-0.255142
21
0.110418
0
LINE
8
BLACK
6
CONTINUOUS
10
-0.255142
20
0.110418
11
-0.256436
21
0.113541
0
LINE
8
BLACK
6
CONTINUOUS
10
-0.256436
20
0.113541
11
-0.260225
21
0.118479
0
LINE
8
BLACK
6
CONTINUOUS
10
-0.260225
20
0.118479
11
-0.265164
21
0.122269
0
LINE
8
BLACK
6
CONTINUOUS
10
-0.265164
20
0.122269
11
-0.270915
21
0.124651
0
LINE
8
BLACK
6
CONTINUOUS
10
-0.270915
20
0.124651
11
-0.277087
21
0.125464
0
LINE
8
BLACK
6
CONTINUOUS
10
-0.277087
20
0.125464
11
-0.283258
21
0.124651
0
LINE
8
BLACK
6
CONTINUOUS
10
-0.283258
20
0.124651
11
-0.289009
21
0.122269
0
LINE
8
BLACK
6
CONTINUOUS
10
-0.289009
20
0.122269
11
-0.293948
21
0.118479
0
LINE
8
BLACK
6
CONTINUOUS
10
-0.293948
20
0.118479
11
-0.297738
21
0.113541
0
LINE
8
BLACK
6
CONTINUOUS
10
-0.297738
20
0.113541
11
-0.30012
21
0.10779
0
LINE
8
BLACK
6
CONTINUOUS
10
-0.30012
20
0.10779
11
-0.300932
21
0.101618
0
LINE
8
BLACK
6
CONTINUOUS
10
-0.300932
20
0.101618
11
-0.30012
21
0.0954462
0
LINE
8
BLACK
6
CONTINUOUS
10
-0.30012
20
0.0954462
11
-0.298391
21
0.0912731
0
LINE
8
BLACK
6
CONTINUOUS
10
-0.298391
20
0.0912731
11
-0.298033
21
0.090408
0
LINE
8
BLACK
6
CONTINUOUS
10
-0.298033
20
0.090408
11
-0.297736
21
0.0889164
0
LINE
8
BLACK
6
CONTINUOUS
10
-0.297736
20
0.0889164
11
-0.297736
21
-0.0288298
0
LINE
8
BLACK
6
CONTINUOUS
10
-0.297736
20
-0.0288298
11
-0.297763
21
-0.0292879
0
LINE
8
BLACK
6
CONTINUOUS
10
-0.297763
20
-0.0292879
11
-0.297928
21
-0.0306777
0
LINE
8
BLACK
6
CONTINUOUS
10
-0.297928
20
-0.0306777
11
-0.297875
21
-0.0309642
0
LINE
8
BLACK
6
CONTINUOUS
10
-0.297875
20
-0.0309642
11
-0.297875
21
-0.0309643
0
LINE
8
BLACK
6
CONTINUOUS
10
-0.297875
20
-0.0309643
11
-0.29751
21
-0.0329653
0
LINE
8
BLACK
6
CONTINUOUS
10
-0.29751
20
-0.0329653
11
-0.29749
21
-0.0330858
0
LINE
8
BLACK
6
CONTINUOUS
10
-0.29749
20
-0.0330858
11
-0.297144
21
-0.0353884
0
LINE
8
BLACK
6
CONTINUOUS
10
-0.297144
20
-0.0353884
11
-0.297021
21
-0.0356448
0
LINE
8
BLACK
6
CONTINUOUS
10
-0.297021
20
-0.0356448
11
-0.296969
21
-0.0359243
0
LINE
8
BLACK
6
CONTINUOUS
10
-0.296969
20
-0.0359243
11
-0.296835
21
-0.0361828
0
LINE
8
BLACK
6
CONTINUOUS
10
-0.296835
20
-0.0361828
11
-0.295898
21
-0.0379876
0
LINE
8
BLACK
6
CONTINUOUS
10
-0.295898
20
-0.0379876
11
-0.295843
21
-0.0380971
0
LINE
8
BLACK
6
CONTINUOUS
10
-0.295843
20
-0.0380971
11
-0.294961
21
-0.0399335
0
LINE
8
BLACK
6
CONTINUOUS
10
-0.294961
20
-0.0399335
11
-0.294961
21
-0.0399337
0
LINE
8
BLACK
6
CONTINUOUS
10
-0.294961
20
-0.0399337
11
-0.294835
21
-0.0401962
0
LINE
8
BLACK
6
CONTINUOUS
10
-0.294835
20
-0.0401962
11
-0.294673
21
-0.0403711
0
LINE
8
BLACK
6
CONTINUOUS
10
-0.294673
20
-0.0403711
11
-0.294613
21
-0.04046
0
LINE
8
BLACK
6
CONTINUOUS
10
-0.294613
20
-0.04046
11
-0.294511
21
-0.0406572
0
LINE
8
BLACK
6
CONTINUOUS
10
-0.294511
20
-0.0406572
11
-0.294342
21
-0.0408556
0
LINE
8
BLACK
6
CONTINUOUS
10
-0.294342
20
-0.0408556
11
-0.29286
21
-0.0423372
0
LINE
8
BLACK
6
CONTINUOUS
10
-0.29286
20
-0.0423372
11
-0.292754
21
-0.0424475
0
LINE
8
BLACK
6
CONTINUOUS
10
-0.292754
20
-0.0424475
11
-0.291412
21
-0.0438987
0
LINE
8
BLACK
6
CONTINUOUS
10
-0.291412
20
-0.0438987
11
-0.291412
21
-0.0438988
0
LINE
8
BLACK
6
CONTINUOUS
10
-0.291412
20
-0.0438988
11
-0.291215
21
-0.0441126
0
LINE
8
BLACK
6
CONTINUOUS
10
-0.291215
20
-0.0441126
11
-0.290976
21
-0.0442513
0
LINE
8
BLACK
6
CONTINUOUS
10
-0.290976
20
-0.0442513
11
-0.290688
21
-0.0445095
0
LINE
8
BLACK
6
CONTINUOUS
10
-0.290688
20
-0.0445095
11
-0.153292
21
-0.181905
0
LINE
8
BLACK
6
CONTINUOUS
10
-0.153292
20
-0.181905
11
-0.152987
21
-0.182248
0
LINE
8
BLACK
6
CONTINUOUS
10
-0.152987
20
-0.182248
11
-0.152121
21
-0.183347
0
LINE
8
BLACK
6
CONTINUOUS
10
-0.152121
20
-0.183347
11
-0.151881
21
-0.183513
0
LINE
8
BLACK
6
CONTINUOUS
10
-0.151881
20
-0.183513
11
-0.150207
21
-0.18467
0
LINE
8
BLACK
6
CONTINUOUS
10
-0.150207
20
-0.18467
11
-0.150107
21
-0.184741
0
LINE
8
BLACK
6
CONTINUOUS
10
-0.150107
20
-0.184741
11
-0.14847
21
-0.18595
0
LINE
8
BLACK
6
CONTINUOUS
10
-0.14847
20
-0.18595
11
-0.14847
21
-0.18595
0
LINE
8
BLACK
6
CONTINUOUS
10
-0.14847
20
-0.18595
11
-0.148236
21
-0.186124
0
LINE
8
BLACK
6
CONTINUOUS
10
-0.148236
20
-0.186124
11
-0.147967
21
-0.186218
0
LINE
8
BLACK
6
CONTINUOUS
10
-0.147967
20
-0.186218
11
-0.147734
21
-0.186379
0
LINE
8
BLACK
6
CONTINUOUS
10
-0.147734
20
-0.186379
11
-0.147456
21
-0.186467
0
LINE
8
BLACK
6
CONTINUOUS
10
-0.147456
20
-0.186467
11
-0.147456
21
-0.186467
0
LINE
8
BLACK
6
CONTINUOUS
10
-0.147456
20
-0.186467
11
-0.146655
21
-0.186721
0
LINE
8
BLACK
6
CONTINUOUS
10
-0.146655
20
-0.186721
11
-0.145515
21
-0.187081
0
LINE
8
BLACK
6
CONTINUOUS
10
-0.145515
20
-0.187081
11
-0.145401
21
-0.187119
0
LINE
8
BLACK
6
CONTINUOUS
10
-0.145401
20
-0.187119
11
-0.143204
21
-0.187891
0
LINE
8
BLACK
6
CONTINUOUS
10
-0.143204
20
-0.187891
11
-0.142966
21
-0.1879
0
LINE
8
BLACK
6
CONTINUOUS
10
-0.142966
20
-0.1879
11
-0.14286
21
-0.187921
0
LINE
8
BLACK
6
CONTINUOUS
10
-0.14286
20
-0.187921
11
-0.142648
21
-0.187988
0
LINE
8
BLACK
6
CONTINUOUS
10
-0.142648
20
-0.187988
11
-0.142388
21
-0.188008
0
LINE
8
BLACK
6
CONTINUOUS
10
-0.142388
20
-0.188008
11
-0.140294
21
-0.188008
0
LINE
8
BLACK
6
CONTINUOUS
10
-0.140294
20
-0.188008
11
-0.140141
21
-0.188011
0
LINE
8
BLACK
6
CONTINUOUS
10
-0.140141
20
-0.188011
11
-0.137874
21
-0.1881
0
LINE
8
BLACK
6
CONTINUOUS
10
-0.137874
20
-0.1881
11
-0.137607
21
-0.188029
0
LINE
8
BLACK
6
CONTINUOUS
10
-0.137607
20
-0.188029
11
-0.137221
21
-0.188008
0
LINE
8
BLACK
6
CONTINUOUS
10
-0.137221
20
-0.188008
11
0.0265774
21
-0.188008
0
LINE
8
BLACK
6
CONTINUOUS
10
0.0265774
20
-0.188008
11
0.0289502
21
-0.188813
0
LINE
8
BLACK
6
CONTINUOUS
10
0.0289502
20
-0.188813
11
0.0316992
21
-0.190923
0
LINE
8
BLACK
6
CONTINUOUS
10
0.0316992
20
-0.190923
11
0.0374503
21
-0.193305
0
LINE
8
BLACK
6
CONTINUOUS
10
0.0374503
20
-0.193305
11
0.043622
21
-0.194118
0
LINE
8
BLACK
6
CONTINUOUS
10
0.043622
20
-0.194118
11
0.0497938
21
-0.193305
0
LINE
8
BLACK
6
CONTINUOUS
10
0.0497938
20
-0.193305
11
0.0555449
21
-0.190923
0
LINE
8
BLACK
6
CONTINUOUS
10
0.0555449
20
-0.190923
11
0.0604835
21
-0.187133
0
LINE
8
BLACK
6
CONTINUOUS
10
0.0604835
20
-0.187133
11
0.0604843
21
-0.187132
0
LINE
8
BLACK
6
CONTINUOUS
10
0.0604843
20
-0.187132
11
0.0625349
21
-0.186088
0
LINE
8
BLACK
6
CONTINUOUS
10
0.0625349
20
-0.186088
11
0.0631446
21
-0.18604
0
LINE
8
BLACK
6
CONTINUOUS
10
0.0631446
20
-0.18604
11
0.0709094
21
-0.18604
0
LINE
8
BLACK
6
CONTINUOUS
10
0.0709094
20
-0.18604
11
0.0732004
21
-0.186784
0
LINE
8
BLACK
6
CONTINUOUS
10
0.0732004
20
-0.186784
11
0.0736655
21
-0.187181
0
LINE
8
BLACK
6
CONTINUOUS
10
0.0736655
20
-0.187181
11
0.129857
21
-0.243373
0
LINE
8
BLACK
6
CONTINUOUS
10
0.129857
20
-0.243373
11
0.185991
21
-0.299506
0
LINE
8
BLACK
6
CONTINUOUS
10
0.185991
20
-0.299506
11
0.187084
21
-0.301653
0
LINE
8
BLACK
6
CONTINUOUS
10
0.187084
20
-0.301653
11
0.187115
21
-0.302041
0
LINE
8
BLACK
6
CONTINUOUS
10
0.187115
20
-0.302041
11
0.187099
21
-0.302162
0
LINE
8
BLACK
6
CONTINUOUS
10
0.187099
20
-0.302162
11
0.187912
21
-0.308333
0
LINE
8
BLACK
6
CONTINUOUS
10
0.187912
20
-0.308333
11
0.190294
21
-0.314084
0
LINE
8
BLACK
6
CONTINUOUS
10
0.190294
20
-0.314084
11
0.194083
21
-0.319023
0
LINE
8
BLACK
6
CONTINUOUS
10
0.194083
20
-0.319023
11
0.199022
21
-0.322813
0
LINE
8
BLACK
6
CONTINUOUS
10
0.199022
20
-0.322813
11
0.204773
21
-0.325195
0
LINE
8
BLACK
6
CONTINUOUS
10
0.204773
20
-0.325195
11
0.210945
21
-0.326007
0
LINE
8
BLACK
6
CONTINUOUS
10
0.210945
20
-0.326007
11
0.217117
21
-0.325195
0
LINE
8
BLACK
6
CONTINUOUS
10
0.217117
20
-0.325195
11
0.222868
21
-0.322813
0
LINE
8
BLACK
6
CONTINUOUS
10
0.222868
20
-0.322813
11
0.227806
21
-0.319023
0
LINE
8
BLACK
6
CONTINUOUS
10
0.227806
20
-0.319023
11
0.231596
21
-0.314084
0
LINE
8
BLACK
6
CONTINUOUS
10
0.231596
20
-0.314084
11
0.233978
21
-0.308333
0
LINE
8
BLACK
6
CONTINUOUS
10
0.233978
20
-0.308333
11
0.234791
21
-0.302162
0
LINE
8
BLACK
6
CONTINUOUS
10
0.234791
20
-0.302162
11
0.233978
21
-0.29599
0
LINE
8
BLACK
6
CONTINUOUS
10
0.233978
20
-0.29599
11
0.231596
21
-0.290239
0
LINE
8
BLACK
6
CONTINUOUS
10
0.231596
20
-0.290239
11
0.227806
21
-0.2853
0
LINE
8
BLACK
6
CONTINUOUS
10
0.227806
20
-0.2853
11
0.222868
21
-0.281511
0
LINE
8
BLACK
6
CONTINUOUS
10
0.222868
20
-0.281511
11
0.217117
21
-0.279128
0
LINE
8
BLACK
6
CONTINUOUS
10
0.217117
20
-0.279128
11
0.210945
21
-0.278316
0
LINE
8
BLACK
6
CONTINUOUS
10
0.210945
20
-0.278316
11
0.210944
21
-0.278316
0
LINE
8
BLACK
6
CONTINUOUS
10
0.210944
20
-0.278316
11
0.208755
21
-0.277605
0
LINE
8
BLACK
6
CONTINUOUS
10
0.208755
20
-0.277605
11
0.20829
21
-0.277208
0
LINE
8
BLACK
6
CONTINUOUS
10
0.20829
20
-0.277208
11
0.0893274
21
-0.158245
0
LINE
8
BLACK
6
CONTINUOUS
10
0.0893274
20
-0.158245
11
0.0893271
21
-0.158245
0
LINE
8
BLACK
6
CONTINUOUS
10
0.0893271
20
-0.158245
11
0.089327
21
-0.158245
0
LINE
8
BLACK
6
CONTINUOUS
10
0.089327
20
-0.158245
11
0.0884387
21
-0.157356
0
LINE
8
BLACK
6
CONTINUOUS
10
0.0884387
20
-0.157356
11
0.0875924
21
-0.156925
0
LINE
8
BLACK
6
CONTINUOUS
10
0.0875924
20
-0.156925
11
0.0870711
21
-0.156606
0
LINE
8
BLACK
6
CONTINUOUS
10
0.0870711
20
-0.156606
11
0.086551
21
-0.156228
0
LINE
8
BLACK
6
CONTINUOUS
10
0.086551
20
-0.156228
11
0.0863028
21
-0.156048
0
LINE
8
BLACK
6
CONTINUOUS
10
0.0863028
20
-0.156048
11
0.0853993
21
-0.155754
0
LINE
8
BLACK
6
CONTINUOUS
10
0.0853993
20
-0.155754
11
0.0848345
21
-0.15552
0
LINE
8
BLACK
6
CONTINUOUS
10
0.0848345
20
-0.15552
11
0.0839883
21
-0.155089
0
LINE
8
BLACK
6
CONTINUOUS
10
0.0839883
20
-0.155089
11
0.0836855
21
-0.155041
0
LINE
8
BLACK
6
CONTINUOUS
10
0.0836855
20
-0.155041
11
0.0836854
21
-0.155041
0
LINE
8
BLACK
6
CONTINUOUS
10
0.0836854
20
-0.155041
11
0.0830504
21
-0.15494
0
LINE
8
BLACK
6
CONTINUOUS
10
0.0830504
20
-0.15494
11
0.0824559
21
-0.154798
0
LINE
8
BLACK
6
CONTINUOUS
10
0.0824559
20
-0.154798
11
0.0815525
21
-0.154504
0
LINE
8
BLACK
6
CONTINUOUS
10
0.0815525
20
-0.154504
11
0.0631446
21
-0.154504
0
LINE
8
BLACK
6
CONTINUOUS
10
0.0631446
20
-0.154504
11
0.0608536
21
-0.15376
0
LINE
8
BLACK
6
CONTINUOUS
10
0.0608536
20
-0.15376
11
0.0605578
21
-0.153507
0
LINE
8
BLACK
6
CONTINUOUS
10
0.0605578
20
-0.153507
11
0.0604835
21
-0.15341
0
LINE
8
BLACK
6
CONTINUOUS
10
0.0604835
20
-0.15341
11
0.0555449
21
-0.149621
0
LINE
8
BLACK
6
CONTINUOUS
10
0.0555449
20
-0.149621
11
0.0497938
21
-0.147239
0
LINE
8
BLACK
6
CONTINUOUS
10
0.0497938
20
-0.147239
11
0.043622
21
-0.146426
0
LINE
8
BLACK
6
CONTINUOUS
10
0.043622
20
-0.146426
11
0.0374503
21
-0.147239
0
LINE
8
BLACK
6
CONTINUOUS
10
0.0374503
20
-0.147239
11
0.0316992
21
-0.149621
0
LINE
8
BLACK
6
CONTINUOUS
10
0.0316992
20
-0.149621
11
0.0314965
21
-0.149776
0
LINE
8
BLACK
6
CONTINUOUS
10
0.0314965
20
-0.149776
11
0.0289502
21
-0.15173
0
LINE
8
BLACK
6
CONTINUOUS
10
0.0289502
20
-0.15173
11
0.0265774
21
-0.152536
0
LINE
8
BLACK
6
CONTINUOUS
10
0.0265774
20
-0.152536
11
-0.130881
21
-0.152536
0
LINE
8
BLACK
6
CONTINUOUS
10
-0.130881
20
-0.152536
11
-0.133172
21
-0.151791
0
LINE
8
BLACK
6
CONTINUOUS
10
-0.133172
20
-0.151791
11
-0.133638
21
-0.151394
0
LINE
8
BLACK
6
CONTINUOUS
10
-0.133638
20
-0.151394
11
-0.261122
21
-0.0239093
0
LINE
8
BLACK
6
CONTINUOUS
10
-0.261122
20
-0.0239093
11
-0.262216
21
-0.021763
0
LINE
8
BLACK
6
CONTINUOUS
10
-0.754588
20
0.213475
11
-0.750799
21
0.208536
0
LINE
8
BLACK
6
CONTINUOUS
10
-0.750799
20
0.208536
11
-0.74586
21
0.204746
0
LINE
8
BLACK
6
CONTINUOUS
10
-0.74586
20
0.204746
11
-0.740109
21
0.202364
0
LINE
8
BLACK
6
CONTINUOUS
10
-0.740109
20
0.202364
11
-0.736673
21
0.201912
0
LINE
8
BLACK
6
CONTINUOUS
10
-0.736673
20
0.201912
11
-0.734426
21
0.200804
0
LINE
8
BLACK
6
CONTINUOUS
10
-0.734426
20
0.200804
11
-0.624862
21
0.0912397
0
LINE
8
BLACK
6
CONTINUOUS
10
-0.624862
20
0.0912397
11
-0.623768
21
0.0890934
0
LINE
8
BLACK
6
CONTINUOUS
10
-0.623768
20
0.0890934
11
-0.62372
21
0.0884837
0
LINE
8
BLACK
6
CONTINUOUS
10
-0.62372
20
0.0884837
11
-0.62372
21
-0.117794
0
LINE
8
BLACK
6
CONTINUOUS
10
-0.62372
20
-0.117794
11
-0.624526
21
-0.120167
0
LINE
8
BLACK
6
CONTINUOUS
10
-0.624526
20
-0.120167
11
-0.626635
21
-0.122916
0
LINE
8
BLACK
6
CONTINUOUS
10
-0.626635
20
-0.122916
11
-0.629017
21
-0.128667
0
LINE
8
BLACK
6
CONTINUOUS
10
-0.629017
20
-0.128667
11
-0.62983
21
-0.134839
0
LINE
8
BLACK
6
CONTINUOUS
10
-0.62983
20
-0.134839
11
-0.629017
21
-0.14101
0
LINE
8
BLACK
6
CONTINUOUS
10
-0.629017
20
-0.14101
11
-0.626635
21
-0.146762
0
LINE
8
BLACK
6
CONTINUOUS
10
-0.626635
20
-0.146762
11
-0.622846
21
-0.1517
0
LINE
8
BLACK
6
CONTINUOUS
10
-0.622846
20
-0.1517
11
-0.617907
21
-0.15549
0
LINE
8
BLACK
6
CONTINUOUS
10
-0.617907
20
-0.15549
11
-0.612156
21
-0.157872
0
LINE
8
BLACK
6
CONTINUOUS
10
-0.612156
20
-0.157872
11
-0.605984
21
-0.158684
0
LINE
8
BLACK
6
CONTINUOUS
10
-0.605984
20
-0.158684
11
-0.599813
21
-0.157872
0
LINE
8
BLACK
6
CONTINUOUS
10
-0.599813
20
-0.157872
11
-0.594061
21
-0.15549
0
LINE
8
BLACK
6
CONTINUOUS
10
-0.594061
20
-0.15549
11
-0.589123
21
-0.1517
0
LINE
8
BLACK
6
CONTINUOUS
10
-0.589123
20
-0.1517
11
-0.585333
21
-0.146762
0
LINE
8
BLACK
6
CONTINUOUS
10
-0.585333
20
-0.146762
11
-0.582951
21
-0.14101
0
LINE
8
BLACK
6
CONTINUOUS
10
-0.582951
20
-0.14101
11
-0.582139
21
-0.134839
0
LINE
8
BLACK
6
CONTINUOUS
10
-0.582139
20
-0.134839
11
-0.582951
21
-0.128667
0
LINE
8
BLACK
6
CONTINUOUS
10
-0.582951
20
-0.128667
11
-0.585333
21
-0.122916
0
LINE
8
BLACK
6
CONTINUOUS
10
-0.585333
20
-0.122916
11
-0.587443
21
-0.120167
0
LINE
8
BLACK
6
CONTINUOUS
10
-0.587443
20
-0.120167
11
-0.588248
21
-0.117794
0
LINE
8
BLACK
6
CONTINUOUS
10
-0.588248
20
-0.117794
11
-0.588248
21
0.0780156
0
LINE
8
BLACK
6
CONTINUOUS
10
-0.588248
20
0.0780156
11
-0.587504
21
0.0803066
0
LINE
8
BLACK
6
CONTINUOUS
10
-0.587504
20
0.0803066
11
-0.585555
21
0.0817225
0
LINE
8
BLACK
6
CONTINUOUS
10
-0.585555
20
0.0817225
11
-0.58435
21
0.0819132
0
LINE
8
BLACK
6
CONTINUOUS
10
-0.58435
20
0.0819132
11
-0.47968
21
0.0819132
0
LINE
8
BLACK
6
CONTINUOUS
10
-0.47968
20
0.0819132
11
-0.477389
21
0.0811689
0
LINE
8
BLACK
6
CONTINUOUS
10
-0.477389
20
0.0811689
11
-0.477093
21
0.0809162
0
LINE
8
BLACK
6
CONTINUOUS
10
-0.477093
20
0.0809162
11
-0.477019
21
0.0808194
0
LINE
8
BLACK
6
CONTINUOUS
10
-0.477019
20
0.0808194
11
-0.47208
21
0.0770299
0
LINE
8
BLACK
6
CONTINUOUS
10
-0.47208
20
0.0770299
11
-0.466329
21
0.0746477
0
LINE
8
BLACK
6
CONTINUOUS
10
-0.466329
20
0.0746477
11
-0.460157
21
0.0738352
0
LINE
8
BLACK
6
CONTINUOUS
10
-0.460157
20
0.0738352
11
-0.453986
21
0.0746477
0
LINE
8
BLACK
6
CONTINUOUS
10
-0.453986
20
0.0746477
11
-0.448235
21
0.0770299
0
LINE
8
BLACK
6
CONTINUOUS
10
-0.448235
20
0.0770299
11
-0.443296
21
0.0808194
0
LINE
8
BLACK
6
CONTINUOUS
10
-0.443296
20
0.0808194
11
-0.439506
21
0.0857581
0
LINE
8
BLACK
6
CONTINUOUS
10
-0.439506
20
0.0857581
11
-0.437124
21
0.0915092
0
LINE
8
BLACK
6
CONTINUOUS
10
-0.437124
20
0.0915092
11
-0.436312
21
0.0976809
0
LINE
8
BLACK
6
CONTINUOUS
10
-0.436312
20
0.0976809
11
-0.43683
21
0.101618
0
LINE
8
BLACK
6
CONTINUOUS
10
-0.43683
20
0.101618
11
-0.437124
21
0.103853
0
LINE
8
BLACK
6
CONTINUOUS
10
-0.437124
20
0.103853
11
-0.439506
21
0.109604
0
LINE
8
BLACK
6
CONTINUOUS
10
-0.439506
20
0.109604
11
-0.443296
21
0.114542
0
LINE
8
BLACK
6
CONTINUOUS
10
-0.443296
20
0.114542
11
-0.448235
21
0.118332
0
LINE
8
BLACK
6
CONTINUOUS
10
-0.448235
20
0.118332
11
-0.453986
21
0.120714
0
LINE
8
BLACK
6
CONTINUOUS
10
-0.453986
20
0.120714
11
-0.460157
21
0.121527
0
LINE
8
BLACK
6
CONTINUOUS
10
-0.460157
20
0.121527
11
-0.466329
21
0.120714
0
LINE
8
BLACK
6
CONTINUOUS
10
-0.466329
20
0.120714
11
-0.47208
21
0.118332
0
LINE
8
BLACK
6
CONTINUOUS
10
-0.47208
20
0.118332
11
-0.477019
21
0.114542
0
LINE
8
BLACK
6
CONTINUOUS
10
-0.477019
20
0.114542
11
-0.47702
21
0.114541
0
LINE
8
BLACK
6
CONTINUOUS
10
-0.47702
20
0.114541
11
-0.47907
21
0.113497
0
LINE
8
BLACK
6
CONTINUOUS
10
-0.47907
20
0.113497
11
-0.47968
21
0.113449
0
LINE
8
BLACK
6
CONTINUOUS
10
-0.47968
20
0.113449
11
-0.595291
21
0.113449
0
LINE
8
BLACK
6
CONTINUOUS
10
-0.595291
20
0.113449
11
-0.597582
21
0.114193
0
LINE
8
BLACK
6
CONTINUOUS
10
-0.597582
20
0.114193
11
-0.598047
21
0.11459
0
LINE
8
BLACK
6
CONTINUOUS
10
-0.598047
20
0.11459
11
-0.709343
21
0.225887
0
LINE
8
BLACK
6
CONTINUOUS
10
-0.709343
20
0.225887
11
-0.710452
21
0.228134
0
LINE
8
BLACK
6
CONTINUOUS
10
-0.710452
20
0.228134
11
-0.710482
21
0.228369
0
LINE
8
BLACK
6
CONTINUOUS
10
-0.710482
20
0.228369
11
-0.710904
21
0.231569
0
LINE
8
BLACK
6
CONTINUOUS
10
-0.710904
20
0.231569
11
-0.713286
21
0.23732
0
LINE
8
BLACK
6
CONTINUOUS
10
-0.713286
20
0.23732
11
-0.717076
21
0.242259
0
LINE
8
BLACK
6
CONTINUOUS
10
-0.717076
20
0.242259
11
-0.722014
21
0.246049
0
LINE
8
BLACK
6
CONTINUOUS
10
-0.722014
20
0.246049
11
-0.727765
21
0.248431
0
LINE
8
BLACK
6
CONTINUOUS
10
-0.727765
20
0.248431
11
-0.733937
21
0.249243
0
LINE
8
BLACK
6
CONTINUOUS
10
-0.733937
20
0.249243
11
-0.740109
21
0.248431
0
LINE
8
BLACK
6
CONTINUOUS
10
-0.740109
20
0.248431
11
-0.74586
21
0.246049
0
LINE
8
BLACK
6
CONTINUOUS
10
-0.74586
20
0.246049
11
-0.750799
21
0.242259
0
LINE
8
BLACK
6
CONTINUOUS
10
-0.750799
20
0.242259
11
-0.754588
21
0.23732
0
LINE
8
BLACK
6
CONTINUOUS
10
-0.754588
20
0.23732
11
-0.75697
21
0.231569
0
LINE
8
BLACK
6
CONTINUOUS
10
-0.75697
20
0.231569
11
-0.757452
21
0.227912
0
LINE
8
BLACK
6
CONTINUOUS
10
-0.757452
20
0.227912
11
-0.757718
21
0.225887
0
LINE
8
BLACK
6
CONTINUOUS
10
-0.757718
20
0.225887
11
-0.757783
21
0.225397
0
LINE
8
BLACK
6
CONTINUOUS
10
-0.757783
20
0.225397
11
-0.75697
21
0.219226
0
LINE
8
BLACK
6
CONTINUOUS
10
-0.75697
20
0.219226
11
-0.754588
21
0.213475
0
LINE
8
BLACK
6
CONTINUOUS
10
0.110959
20
0.302795
11
0.110709
21
0.304374
0
LINE
8
BLACK
6
CONTINUOUS
10
0.110709
20
0.304374
11
0.111479
21
0.30924
0
LINE
8
BLACK
6
CONTINUOUS
10
0.111479
20
0.30924
11
0.113716
21
0.31363
0
LINE
8
BLACK
6
CONTINUOUS
10
0.113716
20
0.31363
11
0.1172
21
0.317114
0
LINE
8
BLACK
6
CONTINUOUS
10
0.1172
20
0.317114
11
0.12159
21
0.319351
0
LINE
8
BLACK
6
CONTINUOUS
10
0.12159
20
0.319351
11
0.126457
21
0.320122
0
LINE
8
BLACK
6
CONTINUOUS
10
0.126457
20
0.320122
11
0.131323
21
0.319351
0
LINE
8
BLACK
6
CONTINUOUS
10
0.131323
20
0.319351
11
0.135713
21
0.317114
0
LINE
8
BLACK
6
CONTINUOUS
10
0.135713
20
0.317114
11
0.139197
21
0.31363
0
LINE
8
BLACK
6
CONTINUOUS
10
0.139197
20
0.31363
11
0.141434
21
0.30924
0
LINE
8
BLACK
6
CONTINUOUS
10
0.141434
20
0.30924
11
0.142205
21
0.304374
0
LINE
8
BLACK
6
CONTINUOUS
10
0.142205
20
0.304374
11
0.141434
21
0.299507
0
LINE
8
BLACK
6
CONTINUOUS
10
0.141434
20
0.299507
11
0.139197
21
0.295117
0
LINE
8
BLACK
6
CONTINUOUS
10
0.139197
20
0.295117
11
0.135713
21
0.291633
0
LINE
8
BLACK
6
CONTINUOUS
10
0.135713
20
0.291633
11
0.131323
21
0.289397
0
LINE
8
BLACK
6
CONTINUOUS
10
0.131323
20
0.289397
11
0.126457
21
0.288626
0
LINE
8
BLACK
6
CONTINUOUS
10
0.126457
20
0.288626
11
0.124878
21
0.288876
0
LINE
8
BLACK
6
CONTINUOUS
10
0.124878
20
0.288876
11
0.0739283
21
0.237926
0
LINE
8
BLACK
6
CONTINUOUS
10
0.0739283
20
0.237926
11
0.0739282
21
0.237926
0
LINE
8
BLACK
6
CONTINUOUS
10
0.0739282
20
0.237926
11
0.0707351
21
0.235792
0
LINE
8
BLACK
6
CONTINUOUS
10
0.0707351
20
0.235792
11
0.0669685
21
0.235043
0
LINE
8
BLACK
6
CONTINUOUS
10
0.0669685
20
0.235043
11
-0.496791
21
0.235043
0
LINE
8
BLACK
6
CONTINUOUS
10
-0.496791
20
0.235043
11
-0.498756
21
0.234042
0
LINE
8
BLACK
6
CONTINUOUS
10
-0.498756
20
0.234042
11
-0.503622
21
0.233271
0
LINE
8
BLACK
6
CONTINUOUS
10
-0.503622
20
0.233271
11
-0.508488
21
0.234042
0
LINE
8
BLACK
6
CONTINUOUS
10
-0.508488
20
0.234042
11
-0.512879
21
0.236279
0
LINE
8
BLACK
6
CONTINUOUS
10
-0.512879
20
0.236279
11
-0.516362
21
0.239763
0
LINE
8
BLACK
6
CONTINUOUS
10
-0.516362
20
0.239763
11
-0.518599
21
0.244153
0
LINE
8
BLACK
6
CONTINUOUS
10
-0.518599
20
0.244153
11
-0.51937
21
0.24902
0
LINE
8
BLACK
6
CONTINUOUS
10
-0.51937
20
0.24902
11
-0.518599
21
0.253886
0
LINE
8
BLACK
6
CONTINUOUS
10
-0.518599
20
0.253886
11
-0.516362
21
0.258276
0
LINE
8
BLACK
6
CONTINUOUS
10
-0.516362
20
0.258276
11
-0.512879
21
0.26176
0
LINE
8
BLACK
6
CONTINUOUS
10
-0.512879
20
0.26176
11
-0.508488
21
0.263997
0
LINE
8
BLACK
6
CONTINUOUS
10
-0.508488
20
0.263997
11
-0.503622
21
0.264768
0
LINE
8
BLACK
6
CONTINUOUS
10
-0.503622
20
0.264768
11
-0.498756
21
0.263997
0
LINE
8
BLACK
6
CONTINUOUS
10
-0.498756
20
0.263997
11
-0.494366
21
0.26176
0
LINE
8
BLACK
6
CONTINUOUS
10
-0.494366
20
0.26176
11
-0.490882
21
0.258276
0
LINE
8
BLACK
6
CONTINUOUS
10
-0.490882
20
0.258276
11
-0.489074
21
0.254728
0
LINE
8
BLACK
6
CONTINUOUS
10
-0.489074
20
0.254728
11
-0.153504
21
0.254728
0
LINE
8
BLACK
6
CONTINUOUS
10
-0.153504
20
0.254728
11
-0.153504
21
0.318243
0
LINE
8
BLACK
6
CONTINUOUS
10
-0.153504
20
0.318243
11
-0.155969
21
0.320708
0
LINE
8
BLACK
6
CONTINUOUS
10
-0.155969
20
0.320708
11
-0.158206
21
0.325098
0
LINE
8
BLACK
6
CONTINUOUS
10
-0.158206
20
0.325098
11
-0.158976
21
0.329964
0
LINE
8
BLACK
6
CONTINUOUS
10
-0.158976
20
0.329964
11
-0.158206
21
0.334831
0
LINE
8
BLACK
6
CONTINUOUS
10
-0.158206
20
0.334831
11
-0.155969
21
0.339221
0
LINE
8
BLACK
6
CONTINUOUS
10
-0.155969
20
0.339221
11
-0.152485
21
0.342705
0
LINE
8
BLACK
6
CONTINUOUS
10
-0.152485
20
0.342705
11
-0.148095
21
0.344942
0
LINE
8
BLACK
6
CONTINUOUS
10
-0.148095
20
0.344942
11
-0.143228
21
0.345712
0
LINE
8
BLACK
6
CONTINUOUS
10
-0.143228
20
0.345712
11
-0.138362
21
0.344942
0
LINE
8
BLACK
6
CONTINUOUS
10
-0.138362
20
0.344942
11
-0.133972
21
0.342705
0
LINE
8
BLACK
6
CONTINUOUS
10
-0.133972
20
0.342705
11
-0.130488
21
0.339221
0
LINE
8
BLACK
6
CONTINUOUS
10
-0.130488
20
0.339221
11
-0.128251
21
0.334831
0
LINE
8
BLACK
6
CONTINUOUS
10
-0.128251
20
0.334831
11
-0.12748
21
0.329964
0
LINE
8
BLACK
6
CONTINUOUS
10
-0.12748
20
0.329964
11
-0.128251
21
0.325098
0
LINE
8
BLACK
6
CONTINUOUS
10
-0.128251
20
0.325098
11
-0.130488
21
0.320708
0
LINE
8
BLACK
6
CONTINUOUS
10
-0.130488
20
0.320708
11
-0.133819
21
0.317377
0
LINE
8
BLACK
6
CONTINUOUS
10
-0.133819
20
0.317377
11
-0.133819
21
0.254728
0
LINE
8
BLACK
6
CONTINUOUS
10
-0.133819
20
0.254728
11
0.0628916
21
0.254728
0
LINE
8
BLACK
6
CONTINUOUS
10
0.0628916
20
0.254728
11
0.110959
21
0.302795
0
LINE
8
BLACK
6
CONTINUOUS
10
0.258465
20
-0.133465
11
0.191535
21
-0.133465
0
LINE
8
BLACK
6
CONTINUOUS
10
0.191535
20
-0.133465
11
0.191535
21
-0.0665354
0
LINE
8
BLACK
6
CONTINUOUS
10
0.191535
20
-0.0665354
11
0.258465
21
-0.0665354
0
LINE
8
BLACK
6
CONTINUOUS
10
0.258465
20
-0.0665354
11
0.258465
21
-0.133465
0
LINE
8
BLACK
6
CONTINUOUS
10
-0.540907
20
-0.283881
11
-0.54304
21
-0.287074
0
LINE
8
BLACK
6
CONTINUOUS
10
-0.54304
20
-0.287074
11
-0.546233
21
-0.289208
0
LINE
8
BLACK
6
CONTINUOUS
10
-0.546233
20
-0.289208
11
-0.55
21
-0.289957
0
LINE
8
BLACK
6
CONTINUOUS
10
-0.55
20
-0.289957
11
-0.553767
21
-0.289208
0
LINE
8
BLACK
6
CONTINUOUS
10
-0.553767
20
-0.289208
11
-0.55696
21
-0.287074
0
LINE
8
BLACK
6
CONTINUOUS
10
-0.55696
20
-0.287074
11
-0.559093
21
-0.283881
0
LINE
8
BLACK
6
CONTINUOUS
10
-0.559093
20
-0.283881
11
-0.559843
21
-0.280114
0
LINE
8
BLACK
6
CONTINUOUS
10
-0.559843
20
-0.280114
11
-0.559843
21
-0.249768
0
LINE
8
BLACK
6
CONTINUOUS
10
-0.559843
20
-0.249768
11
-0.559965
21
-0.249705
0
LINE
8
BLACK
6
CONTINUOUS
10
-0.559965
20
-0.249705
11
-0.563449
21
-0.246221
0
LINE
8
BLACK
6
CONTINUOUS
10
-0.563449
20
-0.246221
11
-0.565686
21
-0.241831
0
LINE
8
BLACK
6
CONTINUOUS
10
-0.565686
20
-0.241831
11
-0.566457
21
-0.236965
0
LINE
8
BLACK
6
CONTINUOUS
10
-0.566457
20
-0.236965
11
-0.565686
21
-0.232098
0
LINE
8
BLACK
6
CONTINUOUS
10
-0.565686
20
-0.232098
11
-0.563449
21
-0.227708
0
LINE
8
BLACK
6
CONTINUOUS
10
-0.563449
20
-0.227708
11
-0.559965
21
-0.224224
0
LINE
8
BLACK
6
CONTINUOUS
10
-0.559965
20
-0.224224
11
-0.559843
21
-0.224162
0
LINE
8
BLACK
6
CONTINUOUS
10
-0.559843
20
-0.224162
11
-0.559843
21
-0.0121544
0
LINE
8
BLACK
6
CONTINUOUS
10
-0.559843
20
-0.0121544
11
-0.56274
21
-0.00925646
0
LINE
8
BLACK
6
CONTINUOUS
10
-0.56274
20
-0.00925646
11
-0.564977
21
-0.00486642
0
LINE
8
BLACK
6
CONTINUOUS
10
-0.564977
20
-0.00486642
11
-0.565748
21
0
0
LINE
8
BLACK
6
CONTINUOUS
10
-0.565748
20
0
11
-0.564977
21
0.00486642
0
LINE
8
BLACK
6
CONTINUOUS
10
-0.564977
20
0.00486642
11
-0.56274
21
0.00925646
0
LINE
8
BLACK
6
CONTINUOUS
10
-0.56274
20
0.00925646
11
-0.559256
21
0.0127404
0
LINE
8
BLACK
6
CONTINUOUS
10
-0.559256
20
0.0127404
11
-0.554866
21
0.0149773
0
LINE
8
BLACK
6
CONTINUOUS
10
-0.554866
20
0.0149773
11
-0.55
21
0.015748
0
LINE
8
BLACK
6
CONTINUOUS
10
-0.55
20
0.015748
11
-0.545134
21
0.0149773
0
LINE
8
BLACK
6
CONTINUOUS
10
-0.545134
20
0.0149773
11
-0.540744
21
0.0127404
0
LINE
8
BLACK
6
CONTINUOUS
10
-0.540744
20
0.0127404
11
-0.53726
21
0.00925646
0
LINE
8
BLACK
6
CONTINUOUS
10
-0.53726
20
0.00925646
11
-0.535023
21
0.00486642
0
LINE
8
BLACK
6
CONTINUOUS
10
-0.535023
20
0.00486642
11
-0.534252
21
0
0
LINE
8
BLACK
6
CONTINUOUS
10
-0.534252
20
0
11
-0.535023
21
-0.00486642
0
LINE
8
BLACK
6
CONTINUOUS
10
-0.535023
20
-0.00486642
11
-0.53726
21
-0.00925646
0
LINE
8
BLACK
6
CONTINUOUS
10
-0.53726
20
-0.00925646
11
-0.540157
21
-0.0121544
0
LINE
8
BLACK
6
CONTINUOUS
10
-0.540157
20
-0.0121544
11
-0.540157
21
-0.225519
0
LINE
8
BLACK
6
CONTINUOUS
10
-0.540157
20
-0.225519
11
-0.537968
21
-0.227708
0
LINE
8
BLACK
6
CONTINUOUS
10
-0.537968
20
-0.227708
11
-0.535731
21
-0.232098
0
LINE
8
BLACK
6
CONTINUOUS
10
-0.535731
20
-0.232098
11
-0.534961
21
-0.236965
0
LINE
8
BLACK
6
CONTINUOUS
10
-0.534961
20
-0.236965
11
-0.535731
21
-0.241831
0
LINE
8
BLACK
6
CONTINUOUS
10
-0.535731
20
-0.241831
11
-0.537968
21
-0.246221
0
LINE
8
BLACK
6
CONTINUOUS
10
-0.537968
20
-0.246221
11
-0.540157
21
-0.24841
0
LINE
8
BLACK
6
CONTINUOUS
10
-0.540157
20
-0.24841
11
-0.540157
21
-0.280114
0
LINE
8
BLACK
6
CONTINUOUS
10
-0.540157
20
-0.280114
11
-0.540907
21
-0.283881
0
LINE
8
BLACK
6
CONTINUOUS
10
0.235341
20
0.0318267
11
0.241732
21
0.0289812
0
LINE
8
BLACK
6
CONTINUOUS
10
0.241732
20
0.0289812
11
0.247392
21
0.024869
0
LINE
8
BLACK
6
CONTINUOUS
10
0.247392
20
0.024869
11
0.252073
21
0.01967
0
LINE
8
BLACK
6
CONTINUOUS
10
0.252073
20
0.01967
11
0.255571
21
0.0136113
0
LINE
8
BLACK
6
CONTINUOUS
10
0.255571
20
0.0136113
11
0.257733
21
0.00695768
0
LINE
8
BLACK
6
CONTINUOUS
10
0.257733
20
0.00695768
11
0.258465
21
0
0
LINE
8
BLACK
6
CONTINUOUS
10
0.258465
20
0
11
0.257733
21
-0.00695768
0
LINE
8
BLACK
6
CONTINUOUS
10
0.257733
20
-0.00695768
11
0.255571
21
-0.0136113
0
LINE
8
BLACK
6
CONTINUOUS
10
0.255571
20
-0.0136113
11
0.252073
21
-0.01967
0
LINE
8
BLACK
6
CONTINUOUS
10
0.252073
20
-0.01967
11
0.247392
21
-0.024869
0
LINE
8
BLACK
6
CONTINUOUS
10
0.247392
20
-0.024869
11
0.241732
21
-0.0289812
0
LINE
8
BLACK
6
CONTINUOUS
10
0.241732
20
-0.0289812
11
0.235341
21
-0.0318267
0
LINE
8
BLACK
6
CONTINUOUS
10
0.235341
20
-0.0318267
11
0.228498
21
-0.0332813
0
LINE
8
BLACK
6
CONTINUOUS
10
0.228498
20
-0.0332813
11
0.221502
21
-0.0332813
0
LINE
8
BLACK
6
CONTINUOUS
10
0.221502
20
-0.0332813
11
0.214659
21
-0.0318267
0
LINE
8
BLACK
6
CONTINUOUS
10
0.214659
20
-0.0318267
11
0.208268
21
-0.0289812
0
LINE
8
BLACK
6
CONTINUOUS
10
0.208268
20
-0.0289812
11
0.202608
21
-0.024869
0
LINE
8
BLACK
6
CONTINUOUS
10
0.202608
20
-0.024869
11
0.197927
21
-0.01967
0
LINE
8
BLACK
6
CONTINUOUS
10
0.197927
20
-0.01967
11
0.194429
21
-0.0136113
0
LINE
8
BLACK
6
CONTINUOUS
10
0.194429
20
-0.0136113
11
0.192267
21
-0.00695768
0
LINE
8
BLACK
6
CONTINUOUS
10
0.192267
20
-0.00695768
11
0.191535
21
0
0
LINE
8
BLACK
6
CONTINUOUS
10
0.191535
20
0
11
0.192267
21
0.00695768
0
LINE
8
BLACK
6
CONTINUOUS
10
0.192267
20
0.00695768
11
0.194429
21
0.0136113
0
LINE
8
BLACK
6
CONTINUOUS
10
0.194429
20
0.0136113
11
0.197927
21
0.01967
0
LINE
8
BLACK
6
CONTINUOUS
10
0.197927
20
0.01967
11
0.202608
21
0.024869
0
LINE
8
BLACK
6
CONTINUOUS
10
0.202608
20
0.024869
11
0.208268
21
0.0289812
0
LINE
8
BLACK
6
CONTINUOUS
10
0.208268
20
0.0289812
11
0.214659
21
0.0318267
0
LINE
8
BLACK
6
CONTINUOUS
10
0.214659
20
0.0318267
11
0.221502
21
0.0332813
0
LINE
8
BLACK
6
CONTINUOUS
10
0.221502
20
0.0332813
11
0.228498
21
0.0332813
0
LINE
8
BLACK
6
CONTINUOUS
10
0.228498
20
0.0332813
11
0.235341
21
0.0318267
0
LINE
8
BLACK
6
CONTINUOUS
10
-0.27222
20
0.116595
11
-0.26783
21
0.114358
0
LINE
8
BLACK
6
CONTINUOUS
10
-0.26783
20
0.114358
11
-0.264346
21
0.110874
0
LINE
8
BLACK
6
CONTINUOUS
10
-0.264346
20
0.110874
11
-0.262109
21
0.106484
0
LINE
8
BLACK
6
CONTINUOUS
10
-0.262109
20
0.106484
11
-0.261339
21
0.101618
0
LINE
8
BLACK
6
CONTINUOUS
10
-0.261339
20
0.101618
11
-0.262109
21
0.0967515
0
LINE
8
BLACK
6
CONTINUOUS
10
-0.262109
20
0.0967515
11
-0.264346
21
0.0923615
0
LINE
8
BLACK
6
CONTINUOUS
10
-0.264346
20
0.0923615
11
-0.26783
21
0.0888775
0
LINE
8
BLACK
6
CONTINUOUS
10
-0.26783
20
0.0888775
11
-0.270157
21
0.0876917
0
LINE
8
BLACK
6
CONTINUOUS
10
-0.270157
20
0.0876917
11
-0.270157
21
-0.0260374
0
LINE
8
BLACK
6
CONTINUOUS
10
-0.270157
20
-0.0260374
11
-0.135766
21
-0.160429
0
LINE
8
BLACK
6
CONTINUOUS
10
-0.135766
20
-0.160429
11
0.0314677
21
-0.160429
0
LINE
8
BLACK
6
CONTINUOUS
10
0.0314677
20
-0.160429
11
0.0343656
21
-0.157531
0
LINE
8
BLACK
6
CONTINUOUS
10
0.0343656
20
-0.157531
11
0.0387556
21
-0.155295
0
LINE
8
BLACK
6
CONTINUOUS
10
0.0387556
20
-0.155295
11
0.043622
21
-0.154524
0
LINE
8
BLACK
6
CONTINUOUS
10
0.043622
20
-0.154524
11
0.0484885
21
-0.155295
0
LINE
8
BLACK
6
CONTINUOUS
10
0.0484885
20
-0.155295
11
0.0528785
21
-0.157531
0
LINE
8
BLACK
6
CONTINUOUS
10
0.0528785
20
-0.157531
11
0.0563625
21
-0.161015
0
LINE
8
BLACK
6
CONTINUOUS
10
0.0563625
20
-0.161015
11
0.0570669
21
-0.162398
0
LINE
8
BLACK
6
CONTINUOUS
10
0.0570669
20
-0.162398
11
0.0790689
21
-0.162398
0
LINE
8
BLACK
6
CONTINUOUS
10
0.0790689
20
-0.162398
11
0.0803507
21
-0.162693
0
LINE
8
BLACK
6
CONTINUOUS
10
0.0803507
20
-0.162693
11
0.0816576
21
-0.16284
0
LINE
8
BLACK
6
CONTINUOUS
10
0.0816576
20
-0.16284
11
0.0820408
21
-0.163081
0
LINE
8
BLACK
6
CONTINUOUS
10
0.0820408
20
-0.163081
11
0.0824821
21
-0.163183
0
LINE
8
BLACK
6
CONTINUOUS
10
0.0824821
20
-0.163183
11
0.0835095
21
-0.164004
0
LINE
8
BLACK
6
CONTINUOUS
10
0.0835095
20
-0.164004
11
0.0846229
21
-0.164704
0
LINE
8
BLACK
6
CONTINUOUS
10
0.0846229
20
-0.164704
11
0.206963
21
-0.287044
0
LINE
8
BLACK
6
CONTINUOUS
10
0.206963
20
-0.287044
11
0.210945
21
-0.286414
0
LINE
8
BLACK
6
CONTINUOUS
10
0.210945
20
-0.286414
11
0.215811
21
-0.287184
0
LINE
8
BLACK
6
CONTINUOUS
10
0.215811
20
-0.287184
11
0.220201
21
-0.289421
0
LINE
8
BLACK
6
CONTINUOUS
10
0.220201
20
-0.289421
11
0.223685
21
-0.292905
0
LINE
8
BLACK
6
CONTINUOUS
10
0.223685
20
-0.292905
11
0.225922
21
-0.297295
0
LINE
8
BLACK
6
CONTINUOUS
10
0.225922
20
-0.297295
11
0.226693
21
-0.302162
0
LINE
8
BLACK
6
CONTINUOUS
10
0.226693
20
-0.302162
11
0.225922
21
-0.307028
0
LINE
8
BLACK
6
CONTINUOUS
10
0.225922
20
-0.307028
11
0.223685
21
-0.311418
0
LINE
8
BLACK
6
CONTINUOUS
10
0.223685
20
-0.311418
11
0.220201
21
-0.314902
0
LINE
8
BLACK
6
CONTINUOUS
10
0.220201
20
-0.314902
11
0.215811
21
-0.317139
0
LINE
8
BLACK
6
CONTINUOUS
10
0.215811
20
-0.317139
11
0.210945
21
-0.31791
0
LINE
8
BLACK
6
CONTINUOUS
10
0.210945
20
-0.31791
11
0.206078
21
-0.317139
0
LINE
8
BLACK
6
CONTINUOUS
10
0.206078
20
-0.317139
11
0.201688
21
-0.314902
0
LINE
8
BLACK
6
CONTINUOUS
10
0.201688
20
-0.314902
11
0.198204
21
-0.311418
0
LINE
8
BLACK
6
CONTINUOUS
10
0.198204
20
-0.311418
11
0.195968
21
-0.307028
0
LINE
8
BLACK
6
CONTINUOUS
10
0.195968
20
-0.307028
11
0.195197
21
-0.302162
0
LINE
8
BLACK
6
CONTINUOUS
10
0.195197
20
-0.302162
11
0.195827
21
-0.29818
0
LINE
8
BLACK
6
CONTINUOUS
10
0.195827
20
-0.29818
11
0.0757936
21
-0.178146
0
LINE
8
BLACK
6
CONTINUOUS
10
0.0757936
20
-0.178146
11
0.0570669
21
-0.178146
0
LINE
8
BLACK
6
CONTINUOUS
10
0.0570669
20
-0.178146
11
0.0563625
21
-0.179528
0
LINE
8
BLACK
6
CONTINUOUS
10
0.0563625
20
-0.179528
11
0.0528785
21
-0.183012
0
LINE
8
BLACK
6
CONTINUOUS
10
0.0528785
20
-0.183012
11
0.0484885
21
-0.185249
0
LINE
8
BLACK
6
CONTINUOUS
10
0.0484885
20
-0.185249
11
0.043622
21
-0.18602
0
LINE
8
BLACK
6
CONTINUOUS
10
0.043622
20
-0.18602
11
0.0387556
21
-0.185249
0
LINE
8
BLACK
6
CONTINUOUS
10
0.0387556
20
-0.185249
11
0.0343656
21
-0.183012
0
LINE
8
BLACK
6
CONTINUOUS
10
0.0343656
20
-0.183012
11
0.0314677
21
-0.180114
0
LINE
8
BLACK
6
CONTINUOUS
10
0.0314677
20
-0.180114
11
-0.139843
21
-0.180114
0
LINE
8
BLACK
6
CONTINUOUS
10
-0.139843
20
-0.180114
11
-0.143609
21
-0.179365
0
LINE
8
BLACK
6
CONTINUOUS
10
-0.143609
20
-0.179365
11
-0.146802
21
-0.177232
0
LINE
8
BLACK
6
CONTINUOUS
10
-0.146802
20
-0.177232
11
-0.146802
21
-0.177231
0
LINE
8
BLACK
6
CONTINUOUS
10
-0.146802
20
-0.177231
11
-0.28696
21
-0.0370741
0
LINE
8
BLACK
6
CONTINUOUS
10
-0.28696
20
-0.0370741
11
-0.289093
21
-0.0338809
0
LINE
8
BLACK
6
CONTINUOUS
10
-0.289093
20
-0.0338809
11
-0.289843
21
-0.0301143
0
LINE
8
BLACK
6
CONTINUOUS
10
-0.289843
20
-0.0301143
11
-0.289843
21
0.0923919
0
LINE
8
BLACK
6
CONTINUOUS
10
-0.289843
20
0.0923919
11
-0.292064
21
0.0967515
0
LINE
8
BLACK
6
CONTINUOUS
10
-0.292064
20
0.0967515
11
-0.292835
21
0.101618
0
LINE
8
BLACK
6
CONTINUOUS
10
-0.292835
20
0.101618
11
-0.292064
21
0.106484
0
LINE
8
BLACK
6
CONTINUOUS
10
-0.292064
20
0.106484
11
-0.289827
21
0.110874
0
LINE
8
BLACK
6
CONTINUOUS
10
-0.289827
20
0.110874
11
-0.286343
21
0.114358
0
LINE
8
BLACK
6
CONTINUOUS
10
-0.286343
20
0.114358
11
-0.281953
21
0.116595
0
LINE
8
BLACK
6
CONTINUOUS
10
-0.281953
20
0.116595
11
-0.277087
21
0.117366
0
LINE
8
BLACK
6
CONTINUOUS
10
-0.277087
20
0.117366
11
-0.27222
21
0.116595
0
LINE
8
BLACK
6
CONTINUOUS
10
-0.729071
20
0.240375
11
-0.724681
21
0.238138
0
LINE
8
BLACK
6
CONTINUOUS
10
-0.724681
20
0.238138
11
-0.721197
21
0.234654
0
LINE
8
BLACK
6
CONTINUOUS
10
-0.721197
20
0.234654
11
-0.71896
21
0.230264
0
LINE
8
BLACK
6
CONTINUOUS
10
-0.71896
20
0.230264
11
-0.718189
21
0.225397
0
LINE
8
BLACK
6
CONTINUOUS
10
-0.718189
20
0.225397
11
-0.718439
21
0.223819
0
LINE
8
BLACK
6
CONTINUOUS
10
-0.718439
20
0.223819
11
-0.600175
21
0.105555
0
LINE
8
BLACK
6
CONTINUOUS
10
-0.600175
20
0.105555
11
-0.473602
21
0.105555
0
LINE
8
BLACK
6
CONTINUOUS
10
-0.473602
20
0.105555
11
-0.472898
21
0.106937
0
LINE
8
BLACK
6
CONTINUOUS
10
-0.472898
20
0.106937
11
-0.469414
21
0.110421
0
LINE
8
BLACK
6
CONTINUOUS
10
-0.469414
20
0.110421
11
-0.465024
21
0.112658
0
LINE
8
BLACK
6
CONTINUOUS
10
-0.465024
20
0.112658
11
-0.460157
21
0.113429
0
LINE
8
BLACK
6
CONTINUOUS
10
-0.460157
20
0.113429
11
-0.455291
21
0.112658
0
LINE
8
BLACK
6
CONTINUOUS
10
-0.455291
20
0.112658
11
-0.450901
21
0.110421
0
LINE
8
BLACK
6
CONTINUOUS
10
-0.450901
20
0.110421
11
-0.447417
21
0.106937
0
LINE
8
BLACK
6
CONTINUOUS
10
-0.447417
20
0.106937
11
-0.44518
21
0.102547
0
LINE
8
BLACK
6
CONTINUOUS
10
-0.44518
20
0.102547
11
-0.444409
21
0.0976809
0
LINE
8
BLACK
6
CONTINUOUS
10
-0.444409
20
0.0976809
11
-0.44518
21
0.0928145
0
LINE
8
BLACK
6
CONTINUOUS
10
-0.44518
20
0.0928145
11
-0.447417
21
0.0884245
0
LINE
8
BLACK
6
CONTINUOUS
10
-0.447417
20
0.0884245
11
-0.450901
21
0.0849405
0
LINE
8
BLACK
6
CONTINUOUS
10
-0.450901
20
0.0849405
11
-0.455291
21
0.0827037
0
LINE
8
BLACK
6
CONTINUOUS
10
-0.455291
20
0.0827037
11
-0.460157
21
0.0819329
0
LINE
8
BLACK
6
CONTINUOUS
10
-0.460157
20
0.0819329
11
-0.465024
21
0.0827037
0
LINE
8
BLACK
6
CONTINUOUS
10
-0.465024
20
0.0827037
11
-0.469414
21
0.0849405
0
LINE
8
BLACK
6
CONTINUOUS
10
-0.469414
20
0.0849405
11
-0.472898
21
0.0884245
0
LINE
8
BLACK
6
CONTINUOUS
10
-0.472898
20
0.0884245
11
-0.473602
21
0.0898069
0
LINE
8
BLACK
6
CONTINUOUS
10
-0.473602
20
0.0898069
11
-0.596142
21
0.0898069
0
LINE
8
BLACK
6
CONTINUOUS
10
-0.596142
20
0.0898069
11
-0.596142
21
-0.122684
0
LINE
8
BLACK
6
CONTINUOUS
10
-0.596142
20
-0.122684
11
-0.593244
21
-0.125582
0
LINE
8
BLACK
6
CONTINUOUS
10
-0.593244
20
-0.125582
11
-0.591007
21
-0.129972
0
LINE
8
BLACK
6
CONTINUOUS
10
-0.591007
20
-0.129972
11
-0.590236
21
-0.134839
0
LINE
8
BLACK
6
CONTINUOUS
10
-0.590236
20
-0.134839
11
-0.591007
21
-0.139705
0
LINE
8
BLACK
6
CONTINUOUS
10
-0.591007
20
-0.139705
11
-0.593244
21
-0.144095
0
LINE
8
BLACK
6
CONTINUOUS
10
-0.593244
20
-0.144095
11
-0.596728
21
-0.147579
0
LINE
8
BLACK
6
CONTINUOUS
10
-0.596728
20
-0.147579
11
-0.601118
21
-0.149816
0
LINE
8
BLACK
6
CONTINUOUS
10
-0.601118
20
-0.149816
11
-0.605984
21
-0.150587
0
LINE
8
BLACK
6
CONTINUOUS
10
-0.605984
20
-0.150587
11
-0.610851
21
-0.149816
0
LINE
8
BLACK
6
CONTINUOUS
10
-0.610851
20
-0.149816
11
-0.615241
21
-0.147579
0
LINE
8
BLACK
6
CONTINUOUS
10
-0.615241
20
-0.147579
11
-0.618725
21
-0.144095
0
LINE
8
BLACK
6
CONTINUOUS
10
-0.618725
20
-0.144095
11
-0.620962
21
-0.139705
0
LINE
8
BLACK
6
CONTINUOUS
10
-0.620962
20
-0.139705
11
-0.621732
21
-0.134839
0
LINE
8
BLACK
6
CONTINUOUS
10
-0.621732
20
-0.134839
11
-0.620962
21
-0.129972
0
LINE
8
BLACK
6
CONTINUOUS
10
-0.620962
20
-0.129972
11
-0.618725
21
-0.125582
0
LINE
8
BLACK
6
CONTINUOUS
10
-0.618725
20
-0.125582
11
-0.615827
21
-0.122684
0
LINE
8
BLACK
6
CONTINUOUS
10
-0.615827
20
-0.122684
11
-0.615827
21
0.0933678
0
LINE
8
BLACK
6
CONTINUOUS
10
-0.615827
20
0.0933678
11
-0.732358
21
0.209899
0
LINE
8
BLACK
6
CONTINUOUS
10
-0.732358
20
0.209899
11
-0.733937
21
0.209649
0
LINE
8
BLACK
6
CONTINUOUS
10
-0.733937
20
0.209649
11
-0.738803
21
0.21042
0
LINE
8
BLACK
6
CONTINUOUS
10
-0.738803
20
0.21042
11
-0.743193
21
0.212657
0
LINE
8
BLACK
6
CONTINUOUS
10
-0.743193
20
0.212657
11
-0.746677
21
0.216141
0
LINE
8
BLACK
6
CONTINUOUS
10
-0.746677
20
0.216141
11
-0.748914
21
0.220531
0
LINE
8
BLACK
6
CONTINUOUS
10
-0.748914
20
0.220531
11
-0.749685
21
0.225397
0
LINE
8
BLACK
6
CONTINUOUS
10
-0.749685
20
0.225397
11
-0.748914
21
0.230264
0
LINE
8
BLACK
6
CONTINUOUS
10
-0.748914
20
0.230264
11
-0.746677
21
0.234654
0
LINE
8
BLACK
6
CONTINUOUS
10
-0.746677
20
0.234654
11
-0.743193
21
0.238138
0
LINE
8
BLACK
6
CONTINUOUS
10
-0.743193
20
0.238138
11
-0.738803
21
0.240375
0
LINE
8
BLACK
6
CONTINUOUS
10
-0.738803
20
0.240375
11
-0.733937
21
0.241146
0
LINE
8
BLACK
6
CONTINUOUS
10
-0.733937
20
0.241146
11
-0.729071
21
0.240375
0
CIRCLE
8
BLACK
10
-0.0370866
20
0.345476
40
0.00787402
0
CIRCLE
8
BLACK
10
-0.68
20
0.06
40
0.00787402
0
CIRCLE
8
BLACK
10
-0.68
20
0
40
0.00787402
0
CIRCLE
8
BLACK
10
-0.68
20
-0.06
40
0.00787402
0
CIRCLE
8
BLACK
10
0.37
20
-0.260114
40
0.00787402
0
CIRCLE
8
BLACK
10
-0.48
20
0.149886
40
0.00787402
0
CIRCLE
8
BLACK
10
-0.68
20
-0.33
40
0.00787402
0
CIRCLE
8
BLACK
10
-0.58
20
-0.330114
40
0.00787402
0
CIRCLE
8
BLACK
10
-0.8
20
0.13
40
0.00787402
0
CIRCLE
8
BLACK
10
-0.8
20
-0.25
40
0.00787402
0
CIRCLE
8
BLACK
10
-0.8
20
-0.13
40
0.00787402
0
CIRCLE
8
BLACK
10
-0.8
20
-0.21
40
0.00787402
0
CIRCLE
8
BLACK
10
-0.8
20
0.25
40
0.00787402
0
CIRCLE
8
BLACK
10
-0.8
20
-0.17
40
0.00787402
0
CIRCLE
8
BLACK
10
-0.8
20
0.21
40
0.00787402
0
CIRCLE
8
BLACK
10
-0.8
20
0.17
40
0.00787402
0
CIRCLE
8
BLACK
10
-0.61
20
0.334886
40
0.00787402
0
CIRCLE
8
BLACK
10
0.203071
20
-0.168303
40
0.00787402
0
CIRCLE
8
BLACK
10
0.273937
20
0.138783
40
0.00787402
0
CIRCLE
8
BLACK
10
0.41
20
-0.120114
40
0.00787402
0
CIRCLE
8
BLACK
10
0.44
20
-0.250114
40
0.00787402
0
CIRCLE
8
BLACK
10
0.41
20
-0.170114
40
0.00787402
0
CIRCLE
8
BLACK
10
0.415
20
0.324886
40
0.00787402
0
CIRCLE
8
BLACK
10
-0.09
20
0.149886
40
0.00787402
0
CIRCLE
8
BLACK
10
0.075
20
0.159886
40
0.00787402
0
CIRCLE
8
BLACK
10
0.44
20
-0.330114
40
0.00787402
0
CIRCLE
8
BLACK
10
0.44
20
-0.290114
40
0.00787402
0
CIRCLE
8
BLACK
10
0.12
20
0.139886
40
0.00787402
0
CIRCLE
8
BLACK
10
0.155
20
0.0998857
40
0.00787402
0
CIRCLE
8
BLACK
10
0.17
20
0.0548857
40
0.00787402
0
CIRCLE
8
BLACK
10
0.41
20
-0.07
40
0.00787402
0
CIRCLE
8
BLACK
10
0.415
20
0.279886
40
0.00787402
0
CIRCLE
8
BLACK
10
0.124331
20
-0.298225
40
0.00787402
0
CIRCLE
8
BLACK
10
0.33
20
-0.180114
40
0.00787402
0
CIRCLE
8
BLACK
10
-0.5
20
-0.0201143
40
0.00787402
0
CIRCLE
8
BLACK
10
0.37
20
-0.220114
40
0.00787402
0
CIRCLE
8
BLACK
10
-0.233937
20
-0.142713
40
0.00787402
0
CIRCLE
8
BLACK
10
-0.5
20
0.0498857
40
0.00787402
0
CIRCLE
8
BLACK
10
0.118425
20
-0.0935002
40
0.00787402
0
CIRCLE
8
BLACK
10
-0.493
20
0.334886
40
0.00787402
0
CIRCLE
8
BLACK
10
0.12
20
-0.150114
40
0.00787402
0
CIRCLE
8
BLACK
10
-0.733937
20
0.27461
40
0.00787402
0
CIRCLE
8
BLACK
10
-0.66
20
0.334886
40
0.00787402
0
CIRCLE
8
BLACK
10
-0.555
20
0.334886
40
0.00787402
0
CIRCLE
8
BLACK
10
-0.277087
20
0.101618
40
0.00787402
0
CIRCLE
8
BLACK
10
0.043622
20
-0.170272
40
0.00787402
0
CIRCLE
8
BLACK
10
0.210945
20
-0.302162
40
0.00787402
0
CIRCLE
8
BLACK
10
-0.55
20
0
40
0.00787402
0
CIRCLE
8
BLACK
10
-0.503622
20
0.24902
40
0.00787402
0
CIRCLE
8
BLACK
10
-0.550709
20
-0.236965
40
0.00787402
0
CIRCLE
8
BLACK
10
0.126457
20
0.304374
40
0.00787402
0
CIRCLE
8
BLACK
10
-0.143228
20
0.329964
40
0.00787402
0
CIRCLE
8
BLACK
10
-0.605984
20
-0.134839
40
0.00787402
0
CIRCLE
8
BLACK
10
-0.733937
20
0.225397
40
0.00787402
0
CIRCLE
8
BLACK
10
-0.460157
20
0.0976809
40
0.00787402
  0
ENDSEC
  0
EOF
