  0
SECTION
  2
HEADER
  9
$ANGBASE
  50
0.0
  9
$ANGDIR
  70
1
  9
$MEASUREMENT
  70
0
  0
ENDSEC
  0
SECTION
  2
TABLES
  0
TABLE
  2
LTYPE
  70
4
  0
LTYPE
  5
40F
  2
CONTINUOUS
  70
0
  3
Solid line
  72
65
  73
0
  40
0.0
  0
LTYPE
  5
410
  2
DASHDOT
 70
0
  3
Dash Dot ____ _ ____ _
 72
65
 73
4
 40
2.0
 49
1.25
 49
-0.25
 49
0.25
 49
-0.25
  0
LTYPE
  5
411
  2
DASHED
 70
0
  3
Dashed __ __ __ __ __
 72
65
 73
2
 40
0.75
 49
0.5
 49
-0.25
  0
LTYPE
  5
43B
  2
DOTTED
 70
0
  3
Dotted .  .  .  .
 72
65
 73
2
 40
0.2
 49
0.0
 49
-0.2
  0
ENDTAB
  0
TABLE
  2
STYLE
  70
4
  0
STYLE
  2
KICAD
  70
0
  40
0
  41
1
  42
1
  50
0
  71
0
  3
isocp.shx
  0
STYLE
  2
KICADB
  70
0
  40
0
  41
1
  42
1
  50
0
  71
0
  3
isocp.shx
  0
STYLE
  2
KICADI
  70
0
  40
0
  41
1
  42
1
  50
15
  71
0
  3
isocp.shx
  0
STYLE
  2
KICADBI
  70
0
  40
0
  41
1
  42
1
  50
15
  71
0
  3
isocp.shx
  0
ENDTAB
  0
TABLE
  2
LAYER
  70
1
  0
LAYER
  2
BLACK
  70
0
  62
7
  6
CONTINUOUS
  0
ENDTAB
  0
ENDSEC
  0
SECTION
  2
ENTITIES
0
LINE
8
BLACK
6
CONTINUOUS
10
-0.539803
20
-0.0124409
11
-0.539803
21
-0.0675591
0
LINE
8
BLACK
6
CONTINUOUS
10
-0.539803
20
-0.0675591
11
-0.540091
21
-0.068255
0
LINE
8
BLACK
6
CONTINUOUS
10
-0.540091
20
-0.068255
11
-0.540787
21
-0.0685433
0
LINE
8
BLACK
6
CONTINUOUS
10
-0.540787
20
-0.0685433
11
-0.598937
21
-0.0685433
0
LINE
8
BLACK
6
CONTINUOUS
10
-0.598937
20
-0.0685433
11
-0.598937
21
-0.373579
0
LINE
8
BLACK
6
CONTINUOUS
10
-0.598937
20
-0.373579
11
-0.599225
21
-0.374275
0
LINE
8
BLACK
6
CONTINUOUS
10
-0.599225
20
-0.374275
11
-0.599921
21
-0.374563
0
LINE
8
BLACK
6
CONTINUOUS
10
-0.599921
20
-0.374563
11
-0.85189
21
-0.374563
0
LINE
8
BLACK
6
CONTINUOUS
10
-0.85189
20
-0.374563
11
-0.852586
21
-0.374275
0
LINE
8
BLACK
6
CONTINUOUS
10
-0.852586
20
-0.374275
11
-0.852874
21
-0.373579
0
LINE
8
BLACK
6
CONTINUOUS
10
-0.852874
20
-0.373579
11
-0.852874
21
-0.00192535
0
LINE
8
BLACK
6
CONTINUOUS
10
-0.852874
20
-0.00192535
11
-0.852586
21
-0.00122937
0
LINE
8
BLACK
6
CONTINUOUS
10
-0.852586
20
-0.00122937
11
-0.85189
21
-0.000941102
0
LINE
8
BLACK
6
CONTINUOUS
10
-0.85189
20
-0.000941102
11
-0.599921
21
-0.000941102
0
LINE
8
BLACK
6
CONTINUOUS
10
-0.599921
20
-0.000941102
11
-0.599225
21
-0.00122937
0
LINE
8
BLACK
6
CONTINUOUS
10
-0.599225
20
-0.00122937
11
-0.598937
21
-0.00192535
0
LINE
8
BLACK
6
CONTINUOUS
10
-0.598937
20
-0.00192535
11
-0.598937
21
-0.0114567
0
LINE
8
BLACK
6
CONTINUOUS
10
-0.598937
20
-0.0114567
11
-0.540787
21
-0.0114567
0
LINE
8
BLACK
6
CONTINUOUS
10
-0.540787
20
-0.0114567
11
-0.540091
21
-0.011745
0
LINE
8
BLACK
6
CONTINUOUS
10
-0.540091
20
-0.011745
11
-0.539803
21
-0.0124409
0
LINE
8
BLACK
6
CONTINUOUS
10
-0.850906
20
-0.00290961
11
-0.850906
21
-0.372595
0
LINE
8
BLACK
6
CONTINUOUS
10
-0.850906
20
-0.372595
11
-0.600906
21
-0.372595
0
LINE
8
BLACK
6
CONTINUOUS
10
-0.600906
20
-0.372595
11
-0.600906
21
-0.0685433
0
LINE
8
BLACK
6
CONTINUOUS
10
-0.600906
20
-0.0685433
11
-0.639213
21
-0.0685433
0
LINE
8
BLACK
6
CONTINUOUS
10
-0.639213
20
-0.0685433
11
-0.639909
21
-0.068255
0
LINE
8
BLACK
6
CONTINUOUS
10
-0.639909
20
-0.068255
11
-0.640197
21
-0.0675591
0
LINE
8
BLACK
6
CONTINUOUS
10
-0.640197
20
-0.0675591
11
-0.640197
21
-0.0124409
0
LINE
8
BLACK
6
CONTINUOUS
10
-0.640197
20
-0.0124409
11
-0.639909
21
-0.011745
0
LINE
8
BLACK
6
CONTINUOUS
10
-0.639909
20
-0.011745
11
-0.639213
21
-0.0114567
0
LINE
8
BLACK
6
CONTINUOUS
10
-0.639213
20
-0.0114567
11
-0.600906
21
-0.0114567
0
LINE
8
BLACK
6
CONTINUOUS
10
-0.600906
20
-0.0114567
11
-0.600906
21
-0.00290961
0
LINE
8
BLACK
6
CONTINUOUS
10
-0.600906
20
-0.00290961
11
-0.850906
21
-0.00290961
0
LINE
8
BLACK
6
CONTINUOUS
10
-0.638228
20
-0.0134252
11
-0.638228
21
-0.0665748
0
LINE
8
BLACK
6
CONTINUOUS
10
-0.638228
20
-0.0665748
11
-0.600906
21
-0.0665748
0
LINE
8
BLACK
6
CONTINUOUS
10
-0.600906
20
-0.0665748
11
-0.600906
21
-0.0134252
0
LINE
8
BLACK
6
CONTINUOUS
10
-0.600906
20
-0.0134252
11
-0.638228
21
-0.0134252
0
LINE
8
BLACK
6
CONTINUOUS
10
-0.598937
20
-0.0134252
11
-0.598937
21
-0.0665748
0
LINE
8
BLACK
6
CONTINUOUS
10
-0.598937
20
-0.0665748
11
-0.541772
21
-0.0665748
0
LINE
8
BLACK
6
CONTINUOUS
10
-0.541772
20
-0.0665748
11
-0.541772
21
-0.0134252
0
LINE
8
BLACK
6
CONTINUOUS
10
-0.541772
20
-0.0134252
11
-0.598937
21
-0.0134252
0
LINE
8
BLACK
6
CONTINUOUS
10
0.120564
20
-0.348964
11
0.120276
21
-0.348268
0
LINE
8
BLACK
6
CONTINUOUS
10
0.120276
20
-0.348268
11
0.120276
21
-0.231732
0
LINE
8
BLACK
6
CONTINUOUS
10
0.120276
20
-0.231732
11
0.120564
21
-0.231036
0
LINE
8
BLACK
6
CONTINUOUS
10
0.120564
20
-0.231036
11
0.12126
21
-0.230748
0
LINE
8
BLACK
6
CONTINUOUS
10
0.12126
20
-0.230748
11
0.17874
21
-0.230748
0
LINE
8
BLACK
6
CONTINUOUS
10
0.17874
20
-0.230748
11
0.179436
21
-0.231036
0
LINE
8
BLACK
6
CONTINUOUS
10
0.179436
20
-0.231036
11
0.179724
21
-0.231732
0
LINE
8
BLACK
6
CONTINUOUS
10
0.179724
20
-0.231732
11
0.179724
21
-0.348268
0
LINE
8
BLACK
6
CONTINUOUS
10
0.179724
20
-0.348268
11
0.179436
21
-0.348964
0
LINE
8
BLACK
6
CONTINUOUS
10
0.179436
20
-0.348964
11
0.17874
21
-0.349252
0
LINE
8
BLACK
6
CONTINUOUS
10
0.17874
20
-0.349252
11
0.12126
21
-0.349252
0
LINE
8
BLACK
6
CONTINUOUS
10
0.12126
20
-0.349252
11
0.120564
21
-0.348964
0
LINE
8
BLACK
6
CONTINUOUS
10
0.122244
20
-0.232717
11
0.122244
21
-0.347283
0
LINE
8
BLACK
6
CONTINUOUS
10
0.122244
20
-0.347283
11
0.177756
21
-0.347283
0
LINE
8
BLACK
6
CONTINUOUS
10
0.177756
20
-0.347283
11
0.177756
21
-0.232717
0
LINE
8
BLACK
6
CONTINUOUS
10
0.177756
20
-0.232717
11
0.122244
21
-0.232717
0
LINE
8
BLACK
6
CONTINUOUS
10
-0.189436
20
-0.338964
11
-0.189724
21
-0.338268
0
LINE
8
BLACK
6
CONTINUOUS
10
-0.189724
20
-0.338268
11
-0.189724
21
-0.221732
0
LINE
8
BLACK
6
CONTINUOUS
10
-0.189724
20
-0.221732
11
-0.189436
21
-0.221036
0
LINE
8
BLACK
6
CONTINUOUS
10
-0.189436
20
-0.221036
11
-0.18874
21
-0.220748
0
LINE
8
BLACK
6
CONTINUOUS
10
-0.18874
20
-0.220748
11
-0.13126
21
-0.220748
0
LINE
8
BLACK
6
CONTINUOUS
10
-0.13126
20
-0.220748
11
-0.130564
21
-0.221036
0
LINE
8
BLACK
6
CONTINUOUS
10
-0.130564
20
-0.221036
11
-0.130276
21
-0.221732
0
LINE
8
BLACK
6
CONTINUOUS
10
-0.130276
20
-0.221732
11
-0.130276
21
-0.338268
0
LINE
8
BLACK
6
CONTINUOUS
10
-0.130276
20
-0.338268
11
-0.130564
21
-0.338964
0
LINE
8
BLACK
6
CONTINUOUS
10
-0.130564
20
-0.338964
11
-0.13126
21
-0.339252
0
LINE
8
BLACK
6
CONTINUOUS
10
-0.13126
20
-0.339252
11
-0.18874
21
-0.339252
0
LINE
8
BLACK
6
CONTINUOUS
10
-0.18874
20
-0.339252
11
-0.189436
21
-0.338964
0
LINE
8
BLACK
6
CONTINUOUS
10
-0.187756
20
-0.222717
11
-0.187756
21
-0.337283
0
LINE
8
BLACK
6
CONTINUOUS
10
-0.187756
20
-0.337283
11
-0.132244
21
-0.337283
0
LINE
8
BLACK
6
CONTINUOUS
10
-0.132244
20
-0.337283
11
-0.132244
21
-0.222717
0
LINE
8
BLACK
6
CONTINUOUS
10
-0.132244
20
-0.222717
11
-0.187756
21
-0.222717
0
LINE
8
BLACK
6
CONTINUOUS
10
-0.269436
20
-0.338964
11
-0.269724
21
-0.338268
0
LINE
8
BLACK
6
CONTINUOUS
10
-0.269724
20
-0.338268
11
-0.269724
21
-0.221732
0
LINE
8
BLACK
6
CONTINUOUS
10
-0.269724
20
-0.221732
11
-0.269436
21
-0.221036
0
LINE
8
BLACK
6
CONTINUOUS
10
-0.269436
20
-0.221036
11
-0.26874
21
-0.220748
0
LINE
8
BLACK
6
CONTINUOUS
10
-0.26874
20
-0.220748
11
-0.21126
21
-0.220748
0
LINE
8
BLACK
6
CONTINUOUS
10
-0.21126
20
-0.220748
11
-0.210564
21
-0.221036
0
LINE
8
BLACK
6
CONTINUOUS
10
-0.210564
20
-0.221036
11
-0.210276
21
-0.221732
0
LINE
8
BLACK
6
CONTINUOUS
10
-0.210276
20
-0.221732
11
-0.210276
21
-0.338268
0
LINE
8
BLACK
6
CONTINUOUS
10
-0.210276
20
-0.338268
11
-0.210564
21
-0.338964
0
LINE
8
BLACK
6
CONTINUOUS
10
-0.210564
20
-0.338964
11
-0.21126
21
-0.339252
0
LINE
8
BLACK
6
CONTINUOUS
10
-0.21126
20
-0.339252
11
-0.26874
21
-0.339252
0
LINE
8
BLACK
6
CONTINUOUS
10
-0.26874
20
-0.339252
11
-0.269436
21
-0.338964
0
LINE
8
BLACK
6
CONTINUOUS
10
-0.267756
20
-0.222717
11
-0.267756
21
-0.337283
0
LINE
8
BLACK
6
CONTINUOUS
10
-0.267756
20
-0.337283
11
-0.212244
21
-0.337283
0
LINE
8
BLACK
6
CONTINUOUS
10
-0.212244
20
-0.337283
11
-0.212244
21
-0.222717
0
LINE
8
BLACK
6
CONTINUOUS
10
-0.212244
20
-0.222717
11
-0.267756
21
-0.222717
0
LINE
8
BLACK
6
CONTINUOUS
10
0.224186
20
-0.333802
11
0.223898
21
-0.333106
0
LINE
8
BLACK
6
CONTINUOUS
10
0.223898
20
-0.333106
11
0.223898
21
-0.207122
0
LINE
8
BLACK
6
CONTINUOUS
10
0.223898
20
-0.207122
11
0.224186
21
-0.206426
0
LINE
8
BLACK
6
CONTINUOUS
10
0.224186
20
-0.206426
11
0.224882
21
-0.206138
0
LINE
8
BLACK
6
CONTINUOUS
10
0.224882
20
-0.206138
11
0.335118
21
-0.206138
0
LINE
8
BLACK
6
CONTINUOUS
10
0.335118
20
-0.206138
11
0.335814
21
-0.206426
0
LINE
8
BLACK
6
CONTINUOUS
10
0.335814
20
-0.206426
11
0.336102
21
-0.207122
0
LINE
8
BLACK
6
CONTINUOUS
10
0.336102
20
-0.207122
11
0.336102
21
-0.333106
0
LINE
8
BLACK
6
CONTINUOUS
10
0.336102
20
-0.333106
11
0.335814
21
-0.333802
0
LINE
8
BLACK
6
CONTINUOUS
10
0.335814
20
-0.333802
11
0.335118
21
-0.334091
0
LINE
8
BLACK
6
CONTINUOUS
10
0.335118
20
-0.334091
11
0.224882
21
-0.334091
0
LINE
8
BLACK
6
CONTINUOUS
10
0.224882
20
-0.334091
11
0.224186
21
-0.333802
0
LINE
8
BLACK
6
CONTINUOUS
10
0.225866
20
-0.208106
11
0.225866
21
-0.332122
0
LINE
8
BLACK
6
CONTINUOUS
10
0.225866
20
-0.332122
11
0.334134
21
-0.332122
0
LINE
8
BLACK
6
CONTINUOUS
10
0.334134
20
-0.332122
11
0.334134
21
-0.208106
0
LINE
8
BLACK
6
CONTINUOUS
10
0.334134
20
-0.208106
11
0.225866
21
-0.208106
0
LINE
8
BLACK
6
CONTINUOUS
10
0.153438
20
-0.171562
11
0.15315
21
-0.170866
0
LINE
8
BLACK
6
CONTINUOUS
10
0.15315
20
-0.170866
11
0.15315
21
0.169685
0
LINE
8
BLACK
6
CONTINUOUS
10
0.15315
20
0.169685
11
0.153438
21
0.170381
0
LINE
8
BLACK
6
CONTINUOUS
10
0.153438
20
0.170381
11
0.154134
21
0.170669
0
LINE
8
BLACK
6
CONTINUOUS
10
0.154134
20
0.170669
11
0.640354
21
0.170669
0
LINE
8
BLACK
6
CONTINUOUS
10
0.640354
20
0.170669
11
0.64105
21
0.170381
0
LINE
8
BLACK
6
CONTINUOUS
10
0.64105
20
0.170381
11
0.641339
21
0.169685
0
LINE
8
BLACK
6
CONTINUOUS
10
0.641339
20
0.169685
11
0.641339
21
-0.170866
0
LINE
8
BLACK
6
CONTINUOUS
10
0.641339
20
-0.170866
11
0.64105
21
-0.171562
0
LINE
8
BLACK
6
CONTINUOUS
10
0.64105
20
-0.171562
11
0.640354
21
-0.17185
0
LINE
8
BLACK
6
CONTINUOUS
10
0.640354
20
-0.17185
11
0.154134
21
-0.17185
0
LINE
8
BLACK
6
CONTINUOUS
10
0.154134
20
-0.17185
11
0.153438
21
-0.171562
0
LINE
8
BLACK
6
CONTINUOUS
10
0.155118
20
0.168701
11
0.155118
21
-0.169882
0
LINE
8
BLACK
6
CONTINUOUS
10
0.155118
20
-0.169882
11
0.63937
21
-0.169882
0
LINE
8
BLACK
6
CONTINUOUS
10
0.63937
20
-0.169882
11
0.63937
21
0.168701
0
LINE
8
BLACK
6
CONTINUOUS
10
0.63937
20
0.168701
11
0.155118
21
0.168701
0
LINE
8
BLACK
6
CONTINUOUS
10
-0.493583
20
0.321067
11
-0.493583
21
0.263586
0
LINE
8
BLACK
6
CONTINUOUS
10
-0.493583
20
0.263586
11
-0.493871
21
0.26289
0
LINE
8
BLACK
6
CONTINUOUS
10
-0.493871
20
0.26289
11
-0.494567
21
0.262602
0
LINE
8
BLACK
6
CONTINUOUS
10
-0.494567
20
0.262602
11
-0.598937
21
0.262602
0
LINE
8
BLACK
6
CONTINUOUS
10
-0.598937
20
0.262602
11
-0.598937
21
0.0797244
0
LINE
8
BLACK
6
CONTINUOUS
10
-0.598937
20
0.0797244
11
-0.531732
21
0.0797244
0
LINE
8
BLACK
6
CONTINUOUS
10
-0.531732
20
0.0797244
11
-0.531036
21
0.0794361
0
LINE
8
BLACK
6
CONTINUOUS
10
-0.531036
20
0.0794361
11
-0.530748
21
0.0787402
0
LINE
8
BLACK
6
CONTINUOUS
10
-0.530748
20
0.0787402
11
-0.530748
21
0.0212598
0
LINE
8
BLACK
6
CONTINUOUS
10
-0.530748
20
0.0212598
11
-0.531036
21
0.0205639
0
LINE
8
BLACK
6
CONTINUOUS
10
-0.531036
20
0.0205639
11
-0.531732
21
0.0202756
0
LINE
8
BLACK
6
CONTINUOUS
10
-0.531732
20
0.0202756
11
-0.598937
21
0.0202756
0
LINE
8
BLACK
6
CONTINUOUS
10
-0.598937
20
0.0202756
11
-0.598937
21
0.00338961
0
LINE
8
BLACK
6
CONTINUOUS
10
-0.598937
20
0.00338961
11
-0.599225
21
0.00269362
0
LINE
8
BLACK
6
CONTINUOUS
10
-0.599225
20
0.00269362
11
-0.599921
21
0.00240535
0
LINE
8
BLACK
6
CONTINUOUS
10
-0.599921
20
0.00240535
11
-0.85189
21
0.00240535
0
LINE
8
BLACK
6
CONTINUOUS
10
-0.85189
20
0.00240535
11
-0.852586
21
0.00269362
0
LINE
8
BLACK
6
CONTINUOUS
10
-0.852586
20
0.00269362
11
-0.852874
21
0.00338961
0
LINE
8
BLACK
6
CONTINUOUS
10
-0.852874
20
0.00338961
11
-0.852874
21
0.375043
0
LINE
8
BLACK
6
CONTINUOUS
10
-0.852874
20
0.375043
11
-0.852586
21
0.375739
0
LINE
8
BLACK
6
CONTINUOUS
10
-0.852586
20
0.375739
11
-0.85189
21
0.376027
0
LINE
8
BLACK
6
CONTINUOUS
10
-0.85189
20
0.376027
11
-0.599921
21
0.376027
0
LINE
8
BLACK
6
CONTINUOUS
10
-0.599921
20
0.376027
11
-0.599225
21
0.375739
0
LINE
8
BLACK
6
CONTINUOUS
10
-0.599225
20
0.375739
11
-0.598937
21
0.375043
0
LINE
8
BLACK
6
CONTINUOUS
10
-0.598937
20
0.375043
11
-0.598937
21
0.322051
0
LINE
8
BLACK
6
CONTINUOUS
10
-0.598937
20
0.322051
11
-0.494567
21
0.322051
0
LINE
8
BLACK
6
CONTINUOUS
10
-0.494567
20
0.322051
11
-0.493871
21
0.321763
0
LINE
8
BLACK
6
CONTINUOUS
10
-0.493871
20
0.321763
11
-0.493583
21
0.321067
0
LINE
8
BLACK
6
CONTINUOUS
10
-0.850906
20
0.374059
11
-0.850906
21
0.00437386
0
LINE
8
BLACK
6
CONTINUOUS
10
-0.850906
20
0.00437386
11
-0.600906
21
0.00437386
0
LINE
8
BLACK
6
CONTINUOUS
10
-0.600906
20
0.00437386
11
-0.600906
21
0.0202756
0
LINE
8
BLACK
6
CONTINUOUS
10
-0.600906
20
0.0202756
11
-0.648268
21
0.0202756
0
LINE
8
BLACK
6
CONTINUOUS
10
-0.648268
20
0.0202756
11
-0.648964
21
0.0205639
0
LINE
8
BLACK
6
CONTINUOUS
10
-0.648964
20
0.0205639
11
-0.649252
21
0.0212598
0
LINE
8
BLACK
6
CONTINUOUS
10
-0.649252
20
0.0212598
11
-0.649252
21
0.0787402
0
LINE
8
BLACK
6
CONTINUOUS
10
-0.649252
20
0.0787402
11
-0.648964
21
0.0794361
0
LINE
8
BLACK
6
CONTINUOUS
10
-0.648964
20
0.0794361
11
-0.648268
21
0.0797244
0
LINE
8
BLACK
6
CONTINUOUS
10
-0.648268
20
0.0797244
11
-0.600906
21
0.0797244
0
LINE
8
BLACK
6
CONTINUOUS
10
-0.600906
20
0.0797244
11
-0.600906
21
0.262602
0
LINE
8
BLACK
6
CONTINUOUS
10
-0.600906
20
0.262602
11
-0.611102
21
0.262602
0
LINE
8
BLACK
6
CONTINUOUS
10
-0.611102
20
0.262602
11
-0.611798
21
0.26289
0
LINE
8
BLACK
6
CONTINUOUS
10
-0.611798
20
0.26289
11
-0.612087
21
0.263586
0
LINE
8
BLACK
6
CONTINUOUS
10
-0.612087
20
0.263586
11
-0.612087
21
0.321067
0
LINE
8
BLACK
6
CONTINUOUS
10
-0.612087
20
0.321067
11
-0.611798
21
0.321763
0
LINE
8
BLACK
6
CONTINUOUS
10
-0.611798
20
0.321763
11
-0.611102
21
0.322051
0
LINE
8
BLACK
6
CONTINUOUS
10
-0.611102
20
0.322051
11
-0.600906
21
0.322051
0
LINE
8
BLACK
6
CONTINUOUS
10
-0.600906
20
0.322051
11
-0.600906
21
0.374059
0
LINE
8
BLACK
6
CONTINUOUS
10
-0.600906
20
0.374059
11
-0.850906
21
0.374059
0
LINE
8
BLACK
6
CONTINUOUS
10
-0.647283
20
0.0777559
11
-0.647283
21
0.0222441
0
LINE
8
BLACK
6
CONTINUOUS
10
-0.647283
20
0.0222441
11
-0.600906
21
0.0222441
0
LINE
8
BLACK
6
CONTINUOUS
10
-0.600906
20
0.0222441
11
-0.600906
21
0.0777559
0
LINE
8
BLACK
6
CONTINUOUS
10
-0.600906
20
0.0777559
11
-0.647283
21
0.0777559
0
LINE
8
BLACK
6
CONTINUOUS
10
-0.598937
20
0.0777559
11
-0.598937
21
0.0222441
0
LINE
8
BLACK
6
CONTINUOUS
10
-0.598937
20
0.0222441
11
-0.532717
21
0.0222441
0
LINE
8
BLACK
6
CONTINUOUS
10
-0.532717
20
0.0222441
11
-0.532717
21
0.0777559
0
LINE
8
BLACK
6
CONTINUOUS
10
-0.532717
20
0.0777559
11
-0.598937
21
0.0777559
0
LINE
8
BLACK
6
CONTINUOUS
10
-0.610118
20
0.320083
11
-0.610118
21
0.264571
0
LINE
8
BLACK
6
CONTINUOUS
10
-0.610118
20
0.264571
11
-0.600906
21
0.264571
0
LINE
8
BLACK
6
CONTINUOUS
10
-0.600906
20
0.264571
11
-0.600906
21
0.320083
0
LINE
8
BLACK
6
CONTINUOUS
10
-0.600906
20
0.320083
11
-0.610118
21
0.320083
0
LINE
8
BLACK
6
CONTINUOUS
10
-0.598937
20
0.320083
11
-0.598937
21
0.264571
0
LINE
8
BLACK
6
CONTINUOUS
10
-0.598937
20
0.264571
11
-0.495551
21
0.264571
0
LINE
8
BLACK
6
CONTINUOUS
10
-0.495551
20
0.264571
11
-0.495551
21
0.320083
0
LINE
8
BLACK
6
CONTINUOUS
10
-0.495551
20
0.320083
11
-0.598937
21
0.320083
0
LINE
8
BLACK
6
CONTINUOUS
10
-0.203432
20
0.060922
11
-0.20372
21
0.061618
0
LINE
8
BLACK
6
CONTINUOUS
10
-0.20372
20
0.061618
11
-0.20372
21
0.178153
0
LINE
8
BLACK
6
CONTINUOUS
10
-0.20372
20
0.178153
11
-0.203432
21
0.178849
0
LINE
8
BLACK
6
CONTINUOUS
10
-0.203432
20
0.178849
11
-0.202736
21
0.179138
0
LINE
8
BLACK
6
CONTINUOUS
10
-0.202736
20
0.179138
11
-0.145256
21
0.179138
0
LINE
8
BLACK
6
CONTINUOUS
10
-0.145256
20
0.179138
11
-0.14456
21
0.178849
0
LINE
8
BLACK
6
CONTINUOUS
10
-0.14456
20
0.178849
11
-0.144272
21
0.178153
0
LINE
8
BLACK
6
CONTINUOUS
10
-0.144272
20
0.178153
11
-0.144272
21
0.061618
0
LINE
8
BLACK
6
CONTINUOUS
10
-0.144272
20
0.061618
11
-0.14456
21
0.060922
0
LINE
8
BLACK
6
CONTINUOUS
10
-0.14456
20
0.060922
11
-0.145256
21
0.0606337
0
LINE
8
BLACK
6
CONTINUOUS
10
-0.145256
20
0.0606337
11
-0.202736
21
0.0606337
0
LINE
8
BLACK
6
CONTINUOUS
10
-0.202736
20
0.0606337
11
-0.203432
21
0.060922
0
LINE
8
BLACK
6
CONTINUOUS
10
-0.201752
20
0.177169
11
-0.201752
21
0.0626022
0
LINE
8
BLACK
6
CONTINUOUS
10
-0.201752
20
0.0626022
11
-0.14624
21
0.0626022
0
LINE
8
BLACK
6
CONTINUOUS
10
-0.14624
20
0.0626022
11
-0.14624
21
0.177169
0
LINE
8
BLACK
6
CONTINUOUS
10
-0.14624
20
0.177169
11
-0.201752
21
0.177169
0
LINE
8
BLACK
6
CONTINUOUS
10
0.027178
20
0.161709
11
0.0268898
21
0.162405
0
LINE
8
BLACK
6
CONTINUOUS
10
0.0268898
20
0.162405
11
0.0268898
21
0.343508
0
LINE
8
BLACK
6
CONTINUOUS
10
0.0268898
20
0.343508
11
0.027178
21
0.344204
0
LINE
8
BLACK
6
CONTINUOUS
10
0.027178
20
0.344204
11
0.027874
21
0.344492
0
LINE
8
BLACK
6
CONTINUOUS
10
0.027874
20
0.344492
11
0.126299
21
0.344492
0
LINE
8
BLACK
6
CONTINUOUS
10
0.126299
20
0.344492
11
0.126995
21
0.344204
0
LINE
8
BLACK
6
CONTINUOUS
10
0.126995
20
0.344204
11
0.127283
21
0.343508
0
LINE
8
BLACK
6
CONTINUOUS
10
0.127283
20
0.343508
11
0.127283
21
0.162405
0
LINE
8
BLACK
6
CONTINUOUS
10
0.127283
20
0.162405
11
0.126995
21
0.161709
0
LINE
8
BLACK
6
CONTINUOUS
10
0.126995
20
0.161709
11
0.126299
21
0.161421
0
LINE
8
BLACK
6
CONTINUOUS
10
0.126299
20
0.161421
11
0.027874
21
0.161421
0
LINE
8
BLACK
6
CONTINUOUS
10
0.027874
20
0.161421
11
0.027178
21
0.161709
0
LINE
8
BLACK
6
CONTINUOUS
10
0.0288583
20
0.342523
11
0.0288583
21
0.16339
0
LINE
8
BLACK
6
CONTINUOUS
10
0.0288583
20
0.16339
11
0.125315
21
0.16339
0
LINE
8
BLACK
6
CONTINUOUS
10
0.125315
20
0.16339
11
0.125315
21
0.342523
0
LINE
8
BLACK
6
CONTINUOUS
10
0.125315
20
0.342523
11
0.0288583
21
0.342523
0
LINE
8
BLACK
6
CONTINUOUS
10
0.316548
20
0.190056
11
0.31626
21
0.190752
0
LINE
8
BLACK
6
CONTINUOUS
10
0.31626
20
0.190752
11
0.31626
21
0.323035
0
LINE
8
BLACK
6
CONTINUOUS
10
0.31626
20
0.323035
11
0.316548
21
0.323731
0
LINE
8
BLACK
6
CONTINUOUS
10
0.316548
20
0.323731
11
0.317244
21
0.32402
0
LINE
8
BLACK
6
CONTINUOUS
10
0.317244
20
0.32402
11
0.392047
21
0.32402
0
LINE
8
BLACK
6
CONTINUOUS
10
0.392047
20
0.32402
11
0.392743
21
0.323731
0
LINE
8
BLACK
6
CONTINUOUS
10
0.392743
20
0.323731
11
0.393031
21
0.323035
0
LINE
8
BLACK
6
CONTINUOUS
10
0.393031
20
0.323035
11
0.393031
21
0.190752
0
LINE
8
BLACK
6
CONTINUOUS
10
0.393031
20
0.190752
11
0.392743
21
0.190056
0
LINE
8
BLACK
6
CONTINUOUS
10
0.392743
20
0.190056
11
0.392047
21
0.189768
0
LINE
8
BLACK
6
CONTINUOUS
10
0.392047
20
0.189768
11
0.317244
21
0.189768
0
LINE
8
BLACK
6
CONTINUOUS
10
0.317244
20
0.189768
11
0.316548
21
0.190056
0
LINE
8
BLACK
6
CONTINUOUS
10
0.318228
20
0.322051
11
0.318228
21
0.191736
0
LINE
8
BLACK
6
CONTINUOUS
10
0.318228
20
0.191736
11
0.391063
21
0.191736
0
LINE
8
BLACK
6
CONTINUOUS
10
0.391063
20
0.191736
11
0.391063
21
0.322051
0
LINE
8
BLACK
6
CONTINUOUS
10
0.391063
20
0.322051
11
0.318228
21
0.322051
0
LINE
8
BLACK
6
CONTINUOUS
10
0.14332
20
0.190056
11
0.143031
21
0.190752
0
LINE
8
BLACK
6
CONTINUOUS
10
0.143031
20
0.190752
11
0.143031
21
0.323035
0
LINE
8
BLACK
6
CONTINUOUS
10
0.143031
20
0.323035
11
0.14332
21
0.323731
0
LINE
8
BLACK
6
CONTINUOUS
10
0.14332
20
0.323731
11
0.144016
21
0.32402
0
LINE
8
BLACK
6
CONTINUOUS
10
0.144016
20
0.32402
11
0.218819
21
0.32402
0
LINE
8
BLACK
6
CONTINUOUS
10
0.218819
20
0.32402
11
0.219515
21
0.323731
0
LINE
8
BLACK
6
CONTINUOUS
10
0.219515
20
0.323731
11
0.219803
21
0.323035
0
LINE
8
BLACK
6
CONTINUOUS
10
0.219803
20
0.323035
11
0.219803
21
0.190752
0
LINE
8
BLACK
6
CONTINUOUS
10
0.219803
20
0.190752
11
0.219515
21
0.190056
0
LINE
8
BLACK
6
CONTINUOUS
10
0.219515
20
0.190056
11
0.218819
21
0.189768
0
LINE
8
BLACK
6
CONTINUOUS
10
0.218819
20
0.189768
11
0.144016
21
0.189768
0
LINE
8
BLACK
6
CONTINUOUS
10
0.144016
20
0.189768
11
0.14332
21
0.190056
0
LINE
8
BLACK
6
CONTINUOUS
10
0.145
20
0.322051
11
0.145
21
0.191736
0
LINE
8
BLACK
6
CONTINUOUS
10
0.145
20
0.191736
11
0.217835
21
0.191736
0
LINE
8
BLACK
6
CONTINUOUS
10
0.217835
20
0.191736
11
0.217835
21
0.322051
0
LINE
8
BLACK
6
CONTINUOUS
10
0.217835
20
0.322051
11
0.145
21
0.322051
0
LINE
8
BLACK
6
CONTINUOUS
10
-0.220853
20
0.195174
11
-0.221142
21
0.19587
0
LINE
8
BLACK
6
CONTINUOUS
10
-0.221142
20
0.19587
11
-0.221142
21
0.329728
0
LINE
8
BLACK
6
CONTINUOUS
10
-0.221142
20
0.329728
11
-0.220853
21
0.330424
0
LINE
8
BLACK
6
CONTINUOUS
10
-0.220853
20
0.330424
11
-0.220157
21
0.330712
0
LINE
8
BLACK
6
CONTINUOUS
10
-0.220157
20
0.330712
11
-0.0587402
21
0.330712
0
LINE
8
BLACK
6
CONTINUOUS
10
-0.0587402
20
0.330712
11
-0.0580442
21
0.330424
0
LINE
8
BLACK
6
CONTINUOUS
10
-0.0580442
20
0.330424
11
-0.0577559
21
0.329728
0
LINE
8
BLACK
6
CONTINUOUS
10
-0.0577559
20
0.329728
11
-0.0577559
21
0.19587
0
LINE
8
BLACK
6
CONTINUOUS
10
-0.0577559
20
0.19587
11
-0.0580442
21
0.195174
0
LINE
8
BLACK
6
CONTINUOUS
10
-0.0580442
20
0.195174
11
-0.0587402
21
0.194886
0
LINE
8
BLACK
6
CONTINUOUS
10
-0.0587402
20
0.194886
11
-0.220157
21
0.194886
0
LINE
8
BLACK
6
CONTINUOUS
10
-0.220157
20
0.194886
11
-0.220853
21
0.195174
0
LINE
8
BLACK
6
CONTINUOUS
10
-0.219173
20
0.328744
11
-0.219173
21
0.196854
0
LINE
8
BLACK
6
CONTINUOUS
10
-0.219173
20
0.196854
11
-0.0597244
21
0.196854
0
LINE
8
BLACK
6
CONTINUOUS
10
-0.0597244
20
0.196854
11
-0.0597244
21
0.328744
0
LINE
8
BLACK
6
CONTINUOUS
10
-0.0597244
20
0.328744
11
-0.219173
21
0.328744
0
LINE
8
BLACK
6
CONTINUOUS
10
0.238595
20
0.19793
11
0.238307
21
0.198626
0
LINE
8
BLACK
6
CONTINUOUS
10
0.238307
20
0.198626
11
0.238307
21
0.315161
0
LINE
8
BLACK
6
CONTINUOUS
10
0.238307
20
0.315161
11
0.238595
21
0.315857
0
LINE
8
BLACK
6
CONTINUOUS
10
0.238595
20
0.315857
11
0.239291
21
0.316146
0
LINE
8
BLACK
6
CONTINUOUS
10
0.239291
20
0.316146
11
0.296772
21
0.316146
0
LINE
8
BLACK
6
CONTINUOUS
10
0.296772
20
0.316146
11
0.297468
21
0.315857
0
LINE
8
BLACK
6
CONTINUOUS
10
0.297468
20
0.315857
11
0.297756
21
0.315161
0
LINE
8
BLACK
6
CONTINUOUS
10
0.297756
20
0.315161
11
0.297756
21
0.198626
0
LINE
8
BLACK
6
CONTINUOUS
10
0.297756
20
0.198626
11
0.297468
21
0.19793
0
LINE
8
BLACK
6
CONTINUOUS
10
0.297468
20
0.19793
11
0.296772
21
0.197642
0
LINE
8
BLACK
6
CONTINUOUS
10
0.296772
20
0.197642
11
0.239291
21
0.197642
0
LINE
8
BLACK
6
CONTINUOUS
10
0.239291
20
0.197642
11
0.238595
21
0.19793
0
LINE
8
BLACK
6
CONTINUOUS
10
0.240276
20
0.314177
11
0.240276
21
0.19961
0
LINE
8
BLACK
6
CONTINUOUS
10
0.240276
20
0.19961
11
0.295787
21
0.19961
0
LINE
8
BLACK
6
CONTINUOUS
10
0.295787
20
0.19961
11
0.295787
21
0.314177
0
LINE
8
BLACK
6
CONTINUOUS
10
0.295787
20
0.314177
11
0.240276
21
0.314177
0
LINE
8
BLACK
6
CONTINUOUS
10
-0.0409322
20
0.207772
11
-0.0412205
21
0.208468
0
LINE
8
BLACK
6
CONTINUOUS
10
-0.0412205
20
0.208468
11
-0.0412205
21
0.325004
0
LINE
8
BLACK
6
CONTINUOUS
10
-0.0412205
20
0.325004
11
-0.0409322
21
0.3257
0
LINE
8
BLACK
6
CONTINUOUS
10
-0.0409322
20
0.3257
11
-0.0402362
21
0.325988
0
LINE
8
BLACK
6
CONTINUOUS
10
-0.0402362
20
0.325988
11
0.0172441
21
0.325988
0
LINE
8
BLACK
6
CONTINUOUS
10
0.0172441
20
0.325988
11
0.0179401
21
0.3257
0
LINE
8
BLACK
6
CONTINUOUS
10
0.0179401
20
0.3257
11
0.0182283
21
0.325004
0
LINE
8
BLACK
6
CONTINUOUS
10
0.0182283
20
0.325004
11
0.0182283
21
0.208468
0
LINE
8
BLACK
6
CONTINUOUS
10
0.0182283
20
0.208468
11
0.0179401
21
0.207772
0
LINE
8
BLACK
6
CONTINUOUS
10
0.0179401
20
0.207772
11
0.0172441
21
0.207484
0
LINE
8
BLACK
6
CONTINUOUS
10
0.0172441
20
0.207484
11
-0.0402362
21
0.207484
0
LINE
8
BLACK
6
CONTINUOUS
10
-0.0402362
20
0.207484
11
-0.0409322
21
0.207772
0
LINE
8
BLACK
6
CONTINUOUS
10
-0.039252
20
0.32402
11
-0.039252
21
0.209453
0
LINE
8
BLACK
6
CONTINUOUS
10
-0.039252
20
0.209453
11
0.0162598
21
0.209453
0
LINE
8
BLACK
6
CONTINUOUS
10
0.0162598
20
0.209453
11
0.0162598
21
0.32402
0
LINE
8
BLACK
6
CONTINUOUS
10
0.0162598
20
0.32402
11
-0.039252
21
0.32402
0
LINE
8
BLACK
6
CONTINUOUS
10
-0.351956
20
0.26289
11
-0.352244
21
0.263586
0
LINE
8
BLACK
6
CONTINUOUS
10
-0.352244
20
0.263586
11
-0.352244
21
0.321067
0
LINE
8
BLACK
6
CONTINUOUS
10
-0.352244
20
0.321067
11
-0.351956
21
0.321763
0
LINE
8
BLACK
6
CONTINUOUS
10
-0.351956
20
0.321763
11
-0.35126
21
0.322051
0
LINE
8
BLACK
6
CONTINUOUS
10
-0.35126
20
0.322051
11
-0.234724
21
0.322051
0
LINE
8
BLACK
6
CONTINUOUS
10
-0.234724
20
0.322051
11
-0.234028
21
0.321763
0
LINE
8
BLACK
6
CONTINUOUS
10
-0.234028
20
0.321763
11
-0.23374
21
0.321067
0
LINE
8
BLACK
6
CONTINUOUS
10
-0.23374
20
0.321067
11
-0.23374
21
0.263586
0
LINE
8
BLACK
6
CONTINUOUS
10
-0.23374
20
0.263586
11
-0.234028
21
0.26289
0
LINE
8
BLACK
6
CONTINUOUS
10
-0.234028
20
0.26289
11
-0.234724
21
0.262602
0
LINE
8
BLACK
6
CONTINUOUS
10
-0.234724
20
0.262602
11
-0.35126
21
0.262602
0
LINE
8
BLACK
6
CONTINUOUS
10
-0.35126
20
0.262602
11
-0.351956
21
0.26289
0
LINE
8
BLACK
6
CONTINUOUS
10
-0.350276
20
0.320083
11
-0.350276
21
0.264571
0
LINE
8
BLACK
6
CONTINUOUS
10
-0.350276
20
0.264571
11
-0.235709
21
0.264571
0
LINE
8
BLACK
6
CONTINUOUS
10
-0.235709
20
0.264571
11
-0.235709
21
0.320083
0
LINE
8
BLACK
6
CONTINUOUS
10
-0.235709
20
0.320083
11
-0.350276
21
0.320083
0
LINE
8
BLACK
6
CONTINUOUS
10
-0.483846
20
0.26289
11
-0.484134
21
0.263586
0
LINE
8
BLACK
6
CONTINUOUS
10
-0.484134
20
0.263586
11
-0.484134
21
0.321067
0
LINE
8
BLACK
6
CONTINUOUS
10
-0.484134
20
0.321067
11
-0.483846
21
0.321763
0
LINE
8
BLACK
6
CONTINUOUS
10
-0.483846
20
0.321763
11
-0.48315
21
0.322051
0
LINE
8
BLACK
6
CONTINUOUS
10
-0.48315
20
0.322051
11
-0.366614
21
0.322051
0
LINE
8
BLACK
6
CONTINUOUS
10
-0.366614
20
0.322051
11
-0.365918
21
0.321763
0
LINE
8
BLACK
6
CONTINUOUS
10
-0.365918
20
0.321763
11
-0.36563
21
0.321067
0
LINE
8
BLACK
6
CONTINUOUS
10
-0.36563
20
0.321067
11
-0.36563
21
0.263586
0
LINE
8
BLACK
6
CONTINUOUS
10
-0.36563
20
0.263586
11
-0.365918
21
0.26289
0
LINE
8
BLACK
6
CONTINUOUS
10
-0.365918
20
0.26289
11
-0.366614
21
0.262602
0
LINE
8
BLACK
6
CONTINUOUS
10
-0.366614
20
0.262602
11
-0.48315
21
0.262602
0
LINE
8
BLACK
6
CONTINUOUS
10
-0.48315
20
0.262602
11
-0.483846
21
0.26289
0
LINE
8
BLACK
6
CONTINUOUS
10
-0.482165
20
0.320083
11
-0.482165
21
0.264571
0
LINE
8
BLACK
6
CONTINUOUS
10
-0.482165
20
0.264571
11
-0.367598
21
0.264571
0
LINE
8
BLACK
6
CONTINUOUS
10
-0.367598
20
0.264571
11
-0.367598
21
0.320083
0
LINE
8
BLACK
6
CONTINUOUS
10
-0.367598
20
0.320083
11
-0.482165
21
0.320083
0
LINE
8
BLACK
6
CONTINUOUS
10
-0.590654
20
-0.306571
11
-0.588272
21
-0.299063
0
LINE
8
BLACK
6
CONTINUOUS
10
-0.588272
20
-0.299063
11
-0.584478
21
-0.292162
0
LINE
8
BLACK
6
CONTINUOUS
10
-0.584478
20
-0.292162
11
-0.579416
21
-0.286129
0
LINE
8
BLACK
6
CONTINUOUS
10
-0.579416
20
-0.286129
11
-0.573278
21
-0.281194
0
LINE
8
BLACK
6
CONTINUOUS
10
-0.573278
20
-0.281194
11
-0.566298
21
-0.277545
0
LINE
8
BLACK
6
CONTINUOUS
10
-0.566298
20
-0.277545
11
-0.558743
21
-0.275321
0
LINE
8
BLACK
6
CONTINUOUS
10
-0.558743
20
-0.275321
11
-0.550899
21
-0.274607
0
LINE
8
BLACK
6
CONTINUOUS
10
-0.550899
20
-0.274607
11
-0.543067
21
-0.275431
0
LINE
8
BLACK
6
CONTINUOUS
10
-0.543067
20
-0.275431
11
-0.535543
21
-0.277759
0
LINE
8
BLACK
6
CONTINUOUS
10
-0.535543
20
-0.277759
11
-0.528615
21
-0.281505
0
LINE
8
BLACK
6
CONTINUOUS
10
-0.528615
20
-0.281505
11
-0.522547
21
-0.286526
0
LINE
8
BLACK
6
CONTINUOUS
10
-0.522547
20
-0.286526
11
-0.517569
21
-0.292629
0
LINE
8
BLACK
6
CONTINUOUS
10
-0.517569
20
-0.292629
11
-0.513872
21
-0.299583
0
LINE
8
BLACK
6
CONTINUOUS
10
-0.513872
20
-0.299583
11
-0.511595
21
-0.307122
0
LINE
8
BLACK
6
CONTINUOUS
10
-0.511595
20
-0.307122
11
-0.510827
21
-0.314961
0
LINE
8
BLACK
6
CONTINUOUS
10
-0.510827
20
-0.314961
11
-0.510843
21
-0.316087
0
LINE
8
BLACK
6
CONTINUOUS
10
-0.510843
20
-0.316087
11
-0.51183
21
-0.323901
0
LINE
8
BLACK
6
CONTINUOUS
10
-0.51183
20
-0.323901
11
-0.514316
21
-0.331374
0
LINE
8
BLACK
6
CONTINUOUS
10
-0.514316
20
-0.331374
11
-0.518206
21
-0.338222
0
LINE
8
BLACK
6
CONTINUOUS
10
-0.518206
20
-0.338222
11
-0.523352
21
-0.344184
0
LINE
8
BLACK
6
CONTINUOUS
10
-0.523352
20
-0.344184
11
-0.529558
21
-0.349033
0
LINE
8
BLACK
6
CONTINUOUS
10
-0.529558
20
-0.349033
11
-0.536588
21
-0.352584
0
LINE
8
BLACK
6
CONTINUOUS
10
-0.536588
20
-0.352584
11
-0.544174
21
-0.354702
0
LINE
8
BLACK
6
CONTINUOUS
10
-0.544174
20
-0.354702
11
-0.552026
21
-0.355306
0
LINE
8
BLACK
6
CONTINUOUS
10
-0.552026
20
-0.355306
11
-0.559847
21
-0.354374
0
LINE
8
BLACK
6
CONTINUOUS
10
-0.559847
20
-0.354374
11
-0.567337
21
-0.35194
0
LINE
8
BLACK
6
CONTINUOUS
10
-0.567337
20
-0.35194
11
-0.574212
21
-0.348098
0
LINE
8
BLACK
6
CONTINUOUS
10
-0.574212
20
-0.348098
11
-0.58021
21
-0.342993
0
LINE
8
BLACK
6
CONTINUOUS
10
-0.58021
20
-0.342993
11
-0.585102
21
-0.336821
0
LINE
8
BLACK
6
CONTINUOUS
10
-0.585102
20
-0.336821
11
-0.588702
21
-0.329816
0
LINE
8
BLACK
6
CONTINUOUS
10
-0.588702
20
-0.329816
11
-0.590872
21
-0.322245
0
LINE
8
BLACK
6
CONTINUOUS
10
-0.590872
20
-0.322245
11
-0.591529
21
-0.314422
0
LINE
8
BLACK
6
CONTINUOUS
10
-0.591529
20
-0.314422
11
-0.591531
21
-0.314397
0
LINE
8
BLACK
6
CONTINUOUS
10
-0.591531
20
-0.314397
11
-0.590654
21
-0.306571
0
LINE
8
BLACK
6
CONTINUOUS
10
-0.587044
20
-0.32916
11
-0.583603
21
-0.335855
0
LINE
8
BLACK
6
CONTINUOUS
10
-0.583603
20
-0.335855
11
-0.578927
21
-0.341755
0
LINE
8
BLACK
6
CONTINUOUS
10
-0.578927
20
-0.341755
11
-0.573194
21
-0.346634
0
LINE
8
BLACK
6
CONTINUOUS
10
-0.573194
20
-0.346634
11
-0.566623
21
-0.350306
0
LINE
8
BLACK
6
CONTINUOUS
10
-0.566623
20
-0.350306
11
-0.559464
21
-0.352632
0
LINE
8
BLACK
6
CONTINUOUS
10
-0.559464
20
-0.352632
11
-0.551989
21
-0.353524
0
LINE
8
BLACK
6
CONTINUOUS
10
-0.551989
20
-0.353524
11
-0.544483
21
-0.352946
0
LINE
8
BLACK
6
CONTINUOUS
10
-0.544483
20
-0.352946
11
-0.537233
21
-0.350922
0
LINE
8
BLACK
6
CONTINUOUS
10
-0.537233
20
-0.350922
11
-0.530513
21
-0.347528
0
LINE
8
BLACK
6
CONTINUOUS
10
-0.530513
20
-0.347528
11
-0.524581
21
-0.342893
0
LINE
8
BLACK
6
CONTINUOUS
10
-0.524581
20
-0.342893
11
-0.519663
21
-0.337195
0
LINE
8
BLACK
6
CONTINUOUS
10
-0.519663
20
-0.337195
11
-0.515944
21
-0.330649
0
LINE
8
BLACK
6
CONTINUOUS
10
-0.515944
20
-0.330649
11
-0.513568
21
-0.323506
0
LINE
8
BLACK
6
CONTINUOUS
10
-0.513568
20
-0.323506
11
-0.512625
21
-0.316038
0
LINE
8
BLACK
6
CONTINUOUS
10
-0.512625
20
-0.316038
11
-0.51261
21
-0.314961
0
LINE
8
BLACK
6
CONTINUOUS
10
-0.51261
20
-0.314961
11
-0.513344
21
-0.307469
0
LINE
8
BLACK
6
CONTINUOUS
10
-0.513344
20
-0.307469
11
-0.51552
21
-0.300262
0
LINE
8
BLACK
6
CONTINUOUS
10
-0.51552
20
-0.300262
11
-0.519054
21
-0.293615
0
LINE
8
BLACK
6
CONTINUOUS
10
-0.519054
20
-0.293615
11
-0.523812
21
-0.287782
0
LINE
8
BLACK
6
CONTINUOUS
10
-0.523812
20
-0.287782
11
-0.529612
21
-0.282983
0
LINE
8
BLACK
6
CONTINUOUS
10
-0.529612
20
-0.282983
11
-0.536234
21
-0.279403
0
LINE
8
BLACK
6
CONTINUOUS
10
-0.536234
20
-0.279403
11
-0.543425
21
-0.277177
0
LINE
8
BLACK
6
CONTINUOUS
10
-0.543425
20
-0.277177
11
-0.550912
21
-0.27639
0
LINE
8
BLACK
6
CONTINUOUS
10
-0.550912
20
-0.27639
11
-0.558409
21
-0.277072
0
LINE
8
BLACK
6
CONTINUOUS
10
-0.558409
20
-0.277072
11
-0.56563
21
-0.279198
0
LINE
8
BLACK
6
CONTINUOUS
10
-0.56563
20
-0.279198
11
-0.572301
21
-0.282685
0
LINE
8
BLACK
6
CONTINUOUS
10
-0.572301
20
-0.282685
11
-0.578168
21
-0.287402
0
LINE
8
BLACK
6
CONTINUOUS
10
-0.578168
20
-0.287402
11
-0.583007
21
-0.293169
0
LINE
8
BLACK
6
CONTINUOUS
10
-0.583007
20
-0.293169
11
-0.586634
21
-0.299766
0
LINE
8
BLACK
6
CONTINUOUS
10
-0.586634
20
-0.299766
11
-0.58891
21
-0.306941
0
LINE
8
BLACK
6
CONTINUOUS
10
-0.58891
20
-0.306941
11
-0.589749
21
-0.314422
0
LINE
8
BLACK
6
CONTINUOUS
10
-0.589749
20
-0.314422
11
-0.589119
21
-0.321924
0
LINE
8
BLACK
6
CONTINUOUS
10
-0.589119
20
-0.321924
11
-0.587044
21
-0.32916
0
LINE
8
BLACK
6
CONTINUOUS
10
0.492024
20
-0.2672
11
0.494405
21
-0.259693
0
LINE
8
BLACK
6
CONTINUOUS
10
0.494405
20
-0.259693
11
0.498199
21
-0.252792
0
LINE
8
BLACK
6
CONTINUOUS
10
0.498199
20
-0.252792
11
0.503262
21
-0.246759
0
LINE
8
BLACK
6
CONTINUOUS
10
0.503262
20
-0.246759
11
0.5094
21
-0.241824
0
LINE
8
BLACK
6
CONTINUOUS
10
0.5094
20
-0.241824
11
0.516379
21
-0.238175
0
LINE
8
BLACK
6
CONTINUOUS
10
0.516379
20
-0.238175
11
0.523934
21
-0.235951
0
LINE
8
BLACK
6
CONTINUOUS
10
0.523934
20
-0.235951
11
0.531778
21
-0.235237
0
LINE
8
BLACK
6
CONTINUOUS
10
0.531778
20
-0.235237
11
0.53961
21
-0.23606
0
LINE
8
BLACK
6
CONTINUOUS
10
0.53961
20
-0.23606
11
0.547134
21
-0.238389
0
LINE
8
BLACK
6
CONTINUOUS
10
0.547134
20
-0.238389
11
0.554062
21
-0.242135
0
LINE
8
BLACK
6
CONTINUOUS
10
0.554062
20
-0.242135
11
0.56013
21
-0.247156
0
LINE
8
BLACK
6
CONTINUOUS
10
0.56013
20
-0.247156
11
0.565108
21
-0.253259
0
LINE
8
BLACK
6
CONTINUOUS
10
0.565108
20
-0.253259
11
0.568806
21
-0.260213
0
LINE
8
BLACK
6
CONTINUOUS
10
0.568806
20
-0.260213
11
0.571082
21
-0.267752
0
LINE
8
BLACK
6
CONTINUOUS
10
0.571082
20
-0.267752
11
0.57185
21
-0.275591
0
LINE
8
BLACK
6
CONTINUOUS
10
0.57185
20
-0.275591
11
0.571835
21
-0.276717
0
LINE
8
BLACK
6
CONTINUOUS
10
0.571835
20
-0.276717
11
0.570848
21
-0.284531
0
LINE
8
BLACK
6
CONTINUOUS
10
0.570848
20
-0.284531
11
0.568362
21
-0.292004
0
LINE
8
BLACK
6
CONTINUOUS
10
0.568362
20
-0.292004
11
0.564471
21
-0.298852
0
LINE
8
BLACK
6
CONTINUOUS
10
0.564471
20
-0.298852
11
0.559325
21
-0.304814
0
LINE
8
BLACK
6
CONTINUOUS
10
0.559325
20
-0.304814
11
0.553119
21
-0.309663
0
LINE
8
BLACK
6
CONTINUOUS
10
0.553119
20
-0.309663
11
0.546089
21
-0.313214
0
LINE
8
BLACK
6
CONTINUOUS
10
0.546089
20
-0.313214
11
0.538504
21
-0.315332
0
LINE
8
BLACK
6
CONTINUOUS
10
0.538504
20
-0.315332
11
0.530651
21
-0.315936
0
LINE
8
BLACK
6
CONTINUOUS
10
0.530651
20
-0.315936
11
0.522831
21
-0.315004
0
LINE
8
BLACK
6
CONTINUOUS
10
0.522831
20
-0.315004
11
0.51534
21
-0.31257
0
LINE
8
BLACK
6
CONTINUOUS
10
0.51534
20
-0.31257
11
0.508465
21
-0.308727
0
LINE
8
BLACK
6
CONTINUOUS
10
0.508465
20
-0.308727
11
0.502468
21
-0.303623
0
LINE
8
BLACK
6
CONTINUOUS
10
0.502468
20
-0.303623
11
0.497576
21
-0.297451
0
LINE
8
BLACK
6
CONTINUOUS
10
0.497576
20
-0.297451
11
0.493976
21
-0.290446
0
LINE
8
BLACK
6
CONTINUOUS
10
0.493976
20
-0.290446
11
0.491805
21
-0.282875
0
LINE
8
BLACK
6
CONTINUOUS
10
0.491805
20
-0.282875
11
0.491148
21
-0.275052
0
LINE
8
BLACK
6
CONTINUOUS
10
0.491148
20
-0.275052
11
0.491146
21
-0.275027
0
LINE
8
BLACK
6
CONTINUOUS
10
0.491146
20
-0.275027
11
0.492024
21
-0.2672
0
LINE
8
BLACK
6
CONTINUOUS
10
0.495633
20
-0.28979
11
0.499074
21
-0.296485
0
LINE
8
BLACK
6
CONTINUOUS
10
0.499074
20
-0.296485
11
0.50375
21
-0.302385
0
LINE
8
BLACK
6
CONTINUOUS
10
0.50375
20
-0.302385
11
0.509483
21
-0.307264
0
LINE
8
BLACK
6
CONTINUOUS
10
0.509483
20
-0.307264
11
0.516054
21
-0.310936
0
LINE
8
BLACK
6
CONTINUOUS
10
0.516054
20
-0.310936
11
0.523213
21
-0.313262
0
LINE
8
BLACK
6
CONTINUOUS
10
0.523213
20
-0.313262
11
0.530688
21
-0.314154
0
LINE
8
BLACK
6
CONTINUOUS
10
0.530688
20
-0.314154
11
0.538194
21
-0.313576
0
LINE
8
BLACK
6
CONTINUOUS
10
0.538194
20
-0.313576
11
0.545444
21
-0.311552
0
LINE
8
BLACK
6
CONTINUOUS
10
0.545444
20
-0.311552
11
0.552164
21
-0.308158
0
LINE
8
BLACK
6
CONTINUOUS
10
0.552164
20
-0.308158
11
0.558096
21
-0.303523
0
LINE
8
BLACK
6
CONTINUOUS
10
0.558096
20
-0.303523
11
0.563015
21
-0.297824
0
LINE
8
BLACK
6
CONTINUOUS
10
0.563015
20
-0.297824
11
0.566733
21
-0.291279
0
LINE
8
BLACK
6
CONTINUOUS
10
0.566733
20
-0.291279
11
0.569109
21
-0.284136
0
LINE
8
BLACK
6
CONTINUOUS
10
0.569109
20
-0.284136
11
0.570053
21
-0.276668
0
LINE
8
BLACK
6
CONTINUOUS
10
0.570053
20
-0.276668
11
0.570068
21
-0.275591
0
LINE
8
BLACK
6
CONTINUOUS
10
0.570068
20
-0.275591
11
0.569333
21
-0.268099
0
LINE
8
BLACK
6
CONTINUOUS
10
0.569333
20
-0.268099
11
0.567157
21
-0.260892
0
LINE
8
BLACK
6
CONTINUOUS
10
0.567157
20
-0.260892
11
0.563623
21
-0.254245
0
LINE
8
BLACK
6
CONTINUOUS
10
0.563623
20
-0.254245
11
0.558865
21
-0.248412
0
LINE
8
BLACK
6
CONTINUOUS
10
0.558865
20
-0.248412
11
0.553065
21
-0.243613
0
LINE
8
BLACK
6
CONTINUOUS
10
0.553065
20
-0.243613
11
0.546443
21
-0.240033
0
LINE
8
BLACK
6
CONTINUOUS
10
0.546443
20
-0.240033
11
0.539252
21
-0.237807
0
LINE
8
BLACK
6
CONTINUOUS
10
0.539252
20
-0.237807
11
0.531765
21
-0.23702
0
LINE
8
BLACK
6
CONTINUOUS
10
0.531765
20
-0.23702
11
0.524268
21
-0.237702
0
LINE
8
BLACK
6
CONTINUOUS
10
0.524268
20
-0.237702
11
0.517047
21
-0.239828
0
LINE
8
BLACK
6
CONTINUOUS
10
0.517047
20
-0.239828
11
0.510376
21
-0.243315
0
LINE
8
BLACK
6
CONTINUOUS
10
0.510376
20
-0.243315
11
0.504509
21
-0.248032
0
LINE
8
BLACK
6
CONTINUOUS
10
0.504509
20
-0.248032
11
0.49967
21
-0.253799
0
LINE
8
BLACK
6
CONTINUOUS
10
0.49967
20
-0.253799
11
0.496044
21
-0.260396
0
LINE
8
BLACK
6
CONTINUOUS
10
0.496044
20
-0.260396
11
0.493767
21
-0.267571
0
LINE
8
BLACK
6
CONTINUOUS
10
0.493767
20
-0.267571
11
0.492928
21
-0.275052
0
LINE
8
BLACK
6
CONTINUOUS
10
0.492928
20
-0.275052
11
0.493558
21
-0.282553
0
LINE
8
BLACK
6
CONTINUOUS
10
0.493558
20
-0.282553
11
0.495633
21
-0.28979
0
LINE
8
BLACK
6
CONTINUOUS
10
0.492024
20
0.264296
11
0.494405
21
0.271803
0
LINE
8
BLACK
6
CONTINUOUS
10
0.494405
20
0.271803
11
0.498199
21
0.278704
0
LINE
8
BLACK
6
CONTINUOUS
10
0.498199
20
0.278704
11
0.503262
21
0.284738
0
LINE
8
BLACK
6
CONTINUOUS
10
0.503262
20
0.284738
11
0.5094
21
0.289673
0
LINE
8
BLACK
6
CONTINUOUS
10
0.5094
20
0.289673
11
0.516379
21
0.293321
0
LINE
8
BLACK
6
CONTINUOUS
10
0.516379
20
0.293321
11
0.523934
21
0.295545
0
LINE
8
BLACK
6
CONTINUOUS
10
0.523934
20
0.295545
11
0.531778
21
0.296259
0
LINE
8
BLACK
6
CONTINUOUS
10
0.531778
20
0.296259
11
0.53961
21
0.295436
0
LINE
8
BLACK
6
CONTINUOUS
10
0.53961
20
0.295436
11
0.547134
21
0.293107
0
LINE
8
BLACK
6
CONTINUOUS
10
0.547134
20
0.293107
11
0.554062
21
0.289361
0
LINE
8
BLACK
6
CONTINUOUS
10
0.554062
20
0.289361
11
0.56013
21
0.284341
0
LINE
8
BLACK
6
CONTINUOUS
10
0.56013
20
0.284341
11
0.565108
21
0.278237
0
LINE
8
BLACK
6
CONTINUOUS
10
0.565108
20
0.278237
11
0.568806
21
0.271283
0
LINE
8
BLACK
6
CONTINUOUS
10
0.568806
20
0.271283
11
0.571082
21
0.263744
0
LINE
8
BLACK
6
CONTINUOUS
10
0.571082
20
0.263744
11
0.57185
21
0.255906
0
LINE
8
BLACK
6
CONTINUOUS
10
0.57185
20
0.255906
11
0.571835
21
0.254779
0
LINE
8
BLACK
6
CONTINUOUS
10
0.571835
20
0.254779
11
0.570848
21
0.246965
0
LINE
8
BLACK
6
CONTINUOUS
10
0.570848
20
0.246965
11
0.568362
21
0.239492
0
LINE
8
BLACK
6
CONTINUOUS
10
0.568362
20
0.239492
11
0.564471
21
0.232644
0
LINE
8
BLACK
6
CONTINUOUS
10
0.564471
20
0.232644
11
0.559325
21
0.226682
0
LINE
8
BLACK
6
CONTINUOUS
10
0.559325
20
0.226682
11
0.553119
21
0.221833
0
LINE
8
BLACK
6
CONTINUOUS
10
0.553119
20
0.221833
11
0.546089
21
0.218282
0
LINE
8
BLACK
6
CONTINUOUS
10
0.546089
20
0.218282
11
0.538504
21
0.216164
0
LINE
8
BLACK
6
CONTINUOUS
10
0.538504
20
0.216164
11
0.530651
21
0.21556
0
LINE
8
BLACK
6
CONTINUOUS
10
0.530651
20
0.21556
11
0.522831
21
0.216493
0
LINE
8
BLACK
6
CONTINUOUS
10
0.522831
20
0.216493
11
0.51534
21
0.218926
0
LINE
8
BLACK
6
CONTINUOUS
10
0.51534
20
0.218926
11
0.508465
21
0.222769
0
LINE
8
BLACK
6
CONTINUOUS
10
0.508465
20
0.222769
11
0.502468
21
0.227873
0
LINE
8
BLACK
6
CONTINUOUS
10
0.502468
20
0.227873
11
0.497576
21
0.234045
0
LINE
8
BLACK
6
CONTINUOUS
10
0.497576
20
0.234045
11
0.493976
21
0.24105
0
LINE
8
BLACK
6
CONTINUOUS
10
0.493976
20
0.24105
11
0.491805
21
0.248621
0
LINE
8
BLACK
6
CONTINUOUS
10
0.491805
20
0.248621
11
0.491148
21
0.256444
0
LINE
8
BLACK
6
CONTINUOUS
10
0.491148
20
0.256444
11
0.491146
21
0.256469
0
LINE
8
BLACK
6
CONTINUOUS
10
0.491146
20
0.256469
11
0.492024
21
0.264296
0
LINE
8
BLACK
6
CONTINUOUS
10
0.495633
20
0.241706
11
0.499074
21
0.235011
0
LINE
8
BLACK
6
CONTINUOUS
10
0.499074
20
0.235011
11
0.50375
21
0.229111
0
LINE
8
BLACK
6
CONTINUOUS
10
0.50375
20
0.229111
11
0.509483
21
0.224232
0
LINE
8
BLACK
6
CONTINUOUS
10
0.509483
20
0.224232
11
0.516054
21
0.22056
0
LINE
8
BLACK
6
CONTINUOUS
10
0.516054
20
0.22056
11
0.523213
21
0.218234
0
LINE
8
BLACK
6
CONTINUOUS
10
0.523213
20
0.218234
11
0.530688
21
0.217342
0
LINE
8
BLACK
6
CONTINUOUS
10
0.530688
20
0.217342
11
0.538194
21
0.21792
0
LINE
8
BLACK
6
CONTINUOUS
10
0.538194
20
0.21792
11
0.545444
21
0.219944
0
LINE
8
BLACK
6
CONTINUOUS
10
0.545444
20
0.219944
11
0.552164
21
0.223338
0
LINE
8
BLACK
6
CONTINUOUS
10
0.552164
20
0.223338
11
0.558096
21
0.227973
0
LINE
8
BLACK
6
CONTINUOUS
10
0.558096
20
0.227973
11
0.563015
21
0.233672
0
LINE
8
BLACK
6
CONTINUOUS
10
0.563015
20
0.233672
11
0.566733
21
0.240217
0
LINE
8
BLACK
6
CONTINUOUS
10
0.566733
20
0.240217
11
0.569109
21
0.24736
0
LINE
8
BLACK
6
CONTINUOUS
10
0.569109
20
0.24736
11
0.570053
21
0.254829
0
LINE
8
BLACK
6
CONTINUOUS
10
0.570053
20
0.254829
11
0.570068
21
0.255906
0
LINE
8
BLACK
6
CONTINUOUS
10
0.570068
20
0.255906
11
0.569333
21
0.263397
0
LINE
8
BLACK
6
CONTINUOUS
10
0.569333
20
0.263397
11
0.567157
21
0.270604
0
LINE
8
BLACK
6
CONTINUOUS
10
0.567157
20
0.270604
11
0.563623
21
0.277251
0
LINE
8
BLACK
6
CONTINUOUS
10
0.563623
20
0.277251
11
0.558865
21
0.283084
0
LINE
8
BLACK
6
CONTINUOUS
10
0.558865
20
0.283084
11
0.553065
21
0.287883
0
LINE
8
BLACK
6
CONTINUOUS
10
0.553065
20
0.287883
11
0.546443
21
0.291463
0
LINE
8
BLACK
6
CONTINUOUS
10
0.546443
20
0.291463
11
0.539252
21
0.293689
0
LINE
8
BLACK
6
CONTINUOUS
10
0.539252
20
0.293689
11
0.531765
21
0.294476
0
LINE
8
BLACK
6
CONTINUOUS
10
0.531765
20
0.294476
11
0.524268
21
0.293794
0
LINE
8
BLACK
6
CONTINUOUS
10
0.524268
20
0.293794
11
0.517047
21
0.291668
0
LINE
8
BLACK
6
CONTINUOUS
10
0.517047
20
0.291668
11
0.510376
21
0.288181
0
LINE
8
BLACK
6
CONTINUOUS
10
0.510376
20
0.288181
11
0.504509
21
0.283464
0
LINE
8
BLACK
6
CONTINUOUS
10
0.504509
20
0.283464
11
0.49967
21
0.277697
0
LINE
8
BLACK
6
CONTINUOUS
10
0.49967
20
0.277697
11
0.496044
21
0.2711
0
LINE
8
BLACK
6
CONTINUOUS
10
0.496044
20
0.2711
11
0.493767
21
0.263925
0
LINE
8
BLACK
6
CONTINUOUS
10
0.493767
20
0.263925
11
0.492928
21
0.256444
0
LINE
8
BLACK
6
CONTINUOUS
10
0.492928
20
0.256444
11
0.493558
21
0.248943
0
LINE
8
BLACK
6
CONTINUOUS
10
0.493558
20
0.248943
11
0.495633
21
0.241706
  0
ENDSEC
  0
EOF
