  0
SECTION
  2
HEADER
  9
$ANGBASE
  50
0.0
  9
$ANGDIR
  70
1
  9
$MEASUREMENT
  70
0
  0
ENDSEC
  0
SECTION
  2
TABLES
  0
TABLE
  2
LTYPE
  70
4
  0
LTYPE
  5
40F
  2
CONTINUOUS
  70
0
  3
Solid line
  72
65
  73
0
  40
0.0
  0
LTYPE
  5
410
  2
DASHDOT
 70
0
  3
Dash Dot ____ _ ____ _
 72
65
 73
4
 40
2.0
 49
1.25
 49
-0.25
 49
0.25
 49
-0.25
  0
LTYPE
  5
411
  2
DASHED
 70
0
  3
Dashed __ __ __ __ __
 72
65
 73
2
 40
0.75
 49
0.5
 49
-0.25
  0
LTYPE
  5
43B
  2
DOTTED
 70
0
  3
Dotted .  .  .  .
 72
65
 73
2
 40
0.2
 49
0.0
 49
-0.2
  0
ENDTAB
  0
TABLE
  2
STYLE
  70
4
  0
STYLE
  2
KICAD
  70
0
  40
0
  41
1
  42
1
  50
0
  71
0
  3
isocp.shx
  0
STYLE
  2
KICADB
  70
0
  40
0
  41
1
  42
1
  50
0
  71
0
  3
isocp.shx
  0
STYLE
  2
KICADI
  70
0
  40
0
  41
1
  42
1
  50
15
  71
0
  3
isocp.shx
  0
STYLE
  2
KICADBI
  70
0
  40
0
  41
1
  42
1
  50
15
  71
0
  3
isocp.shx
  0
ENDTAB
  0
TABLE
  2
LAYER
  70
1
  0
LAYER
  2
BLACK
  70
0
  62
7
  6
CONTINUOUS
  0
ENDTAB
  0
ENDSEC
  0
SECTION
  2
ENTITIES
0
LINE
8
BLACK
6
CONTINUOUS
10
-0.3700787401574803
20
-0.2273622047244094
11
-0.3654793700787402
21
-0.2278804330708661
0
LINE
8
BLACK
6
CONTINUOUS
10
-0.3654793700787402
20
-0.2278804330708661
11
-0.3611106299212598
21
-0.229409094488189
0
LINE
8
BLACK
6
CONTINUOUS
10
-0.3611106299212598
20
-0.229409094488189
11
-0.3571916141732283
21
-0.2318715748031496
0
LINE
8
BLACK
6
CONTINUOUS
10
-0.3571916141732283
20
-0.2318715748031496
11
-0.3539187795275591
21
-0.2351443700787401
0
LINE
8
BLACK
6
CONTINUOUS
10
-0.3539187795275591
20
-0.2351443700787401
11
-0.3514562598425197
21
-0.2390634251968504
0
LINE
8
BLACK
6
CONTINUOUS
10
-0.3514562598425197
20
-0.2390634251968504
11
-0.3499275590551181
21
-0.243432125984252
0
LINE
8
BLACK
6
CONTINUOUS
10
-0.3499275590551181
20
-0.243432125984252
11
-0.3494092913385827
21
-0.2480314960629921
0
LINE
8
BLACK
6
CONTINUOUS
10
-0.3494092913385827
20
-0.2480314960629921
11
-0.3494094488188976
21
-0.2480314960629921
0
LINE
8
BLACK
6
CONTINUOUS
10
-0.3494094488188976
20
-0.2480314960629921
11
-0.3494094488188976
21
-0.3031496062992126
0
LINE
8
BLACK
6
CONTINUOUS
10
-0.3494094488188976
20
-0.3031496062992126
11
-0.3499276377952756
21
-0.3077489763779527
0
LINE
8
BLACK
6
CONTINUOUS
10
-0.3499276377952756
20
-0.3077489763779527
11
-0.3514562992125984
21
-0.3121177165354331
0
LINE
8
BLACK
6
CONTINUOUS
10
-0.3514562992125984
20
-0.3121177165354331
11
-0.3539187795275591
21
-0.3160367716535433
0
LINE
8
BLACK
6
CONTINUOUS
10
-0.3539187795275591
20
-0.3160367716535433
11
-0.3571915748031496
21
-0.3193096062992126
0
LINE
8
BLACK
6
CONTINUOUS
10
-0.3571915748031496
20
-0.3193096062992126
11
-0.3611106299212598
21
-0.321772125984252
0
LINE
8
BLACK
6
CONTINUOUS
10
-0.3611106299212598
20
-0.321772125984252
11
-0.3654793700787402
21
-0.3233008267716536
0
LINE
8
BLACK
6
CONTINUOUS
10
-0.3654793700787402
20
-0.3233008267716536
11
-0.3700787401574803
21
-0.3238190551181102
0
LINE
8
BLACK
6
CONTINUOUS
10
-0.3700787401574803
20
-0.3238190551181102
11
-0.3700787401574803
21
-0.3238188976377953
0
LINE
8
BLACK
6
CONTINUOUS
10
-0.3700787401574803
20
-0.3238188976377953
11
-0.4173228346456693
21
-0.3238188976377953
0
LINE
8
BLACK
6
CONTINUOUS
10
-0.4173228346456693
20
-0.3238188976377953
11
-0.4219221653543307
21
-0.3233006692913385
0
LINE
8
BLACK
6
CONTINUOUS
10
-0.4219221653543307
20
-0.3233006692913385
11
-0.4262908661417323
21
-0.3217720078740157
0
LINE
8
BLACK
6
CONTINUOUS
10
-0.4262908661417323
20
-0.3217720078740157
11
-0.4302098818897638
21
-0.3193094881889764
0
LINE
8
BLACK
6
CONTINUOUS
10
-0.4302098818897638
20
-0.3193094881889764
11
-0.4334826771653543
21
-0.3160366929133858
0
LINE
8
BLACK
6
CONTINUOUS
10
-0.4334826771653543
20
-0.3160366929133858
11
-0.4359451181102362
21
-0.3121176771653543
0
LINE
8
BLACK
6
CONTINUOUS
10
-0.4359451181102362
20
-0.3121176771653543
11
-0.4374737795275591
21
-0.307748937007874
0
LINE
8
BLACK
6
CONTINUOUS
10
-0.4374737795275591
20
-0.307748937007874
11
-0.4379919291338583
21
-0.3031501181102362
0
LINE
8
BLACK
6
CONTINUOUS
10
-0.4379919291338583
20
-0.3031501181102362
11
-0.437992125984252
21
-0.3031496062992126
0
LINE
8
BLACK
6
CONTINUOUS
10
-0.437992125984252
20
-0.3031496062992126
11
-0.437992125984252
21
-0.2480314960629921
0
LINE
8
BLACK
6
CONTINUOUS
10
-0.437992125984252
20
-0.2480314960629921
11
-0.4374738582677165
21
-0.2434321653543307
0
LINE
8
BLACK
6
CONTINUOUS
10
-0.4374738582677165
20
-0.2434321653543307
11
-0.4359451574803149
21
-0.2390634645669291
0
LINE
8
BLACK
6
CONTINUOUS
10
-0.4359451574803149
20
-0.2390634645669291
11
-0.4334826771653543
21
-0.2351444881889764
0
LINE
8
BLACK
6
CONTINUOUS
10
-0.4334826771653543
20
-0.2351444881889764
11
-0.4302098818897638
21
-0.2318716929133858
0
LINE
8
BLACK
6
CONTINUOUS
10
-0.4302098818897638
20
-0.2318716929133858
11
-0.4262908661417323
21
-0.2294092519685039
0
LINE
8
BLACK
6
CONTINUOUS
10
-0.4262908661417323
20
-0.2294092519685039
11
-0.4219221653543307
21
-0.2278805905511811
0
LINE
8
BLACK
6
CONTINUOUS
10
-0.4219221653543307
20
-0.2278805905511811
11
-0.4173233858267716
21
-0.2273624015748031
0
LINE
8
BLACK
6
CONTINUOUS
10
-0.4173233858267716
20
-0.2273624015748031
11
-0.4173228346456693
21
-0.2273622047244094
0
LINE
8
BLACK
6
CONTINUOUS
10
-0.4173228346456693
20
-0.2273622047244094
11
-0.3700787401574803
21
-0.2273622047244094
0
LINE
8
BLACK
6
CONTINUOUS
10
-0.4173228346456693
20
-0.2293307086614173
11
-0.4173228346456693
21
-0.2293308661417323
0
LINE
8
BLACK
6
CONTINUOUS
10
-0.4173228346456693
20
-0.2293308661417323
11
-0.419784842519685
21
-0.2293308661417323
0
LINE
8
BLACK
6
CONTINUOUS
10
-0.419784842519685
20
-0.2293308661417323
11
-0.4245410236220472
21
-0.2306052755905512
0
LINE
8
BLACK
6
CONTINUOUS
10
-0.4245410236220472
20
-0.2306052755905512
11
-0.4288053543307087
21
-0.2330672440944882
0
LINE
8
BLACK
6
CONTINUOUS
10
-0.4288053543307087
20
-0.2330672440944882
11
-0.432287125984252
21
-0.2365490157480315
0
LINE
8
BLACK
6
CONTINUOUS
10
-0.432287125984252
20
-0.2365490157480315
11
-0.4347491732283464
21
-0.2408133070866142
0
LINE
8
BLACK
6
CONTINUOUS
10
-0.4347491732283464
20
-0.2408133070866142
11
-0.4360236220472441
21
-0.2455695275590551
0
LINE
8
BLACK
6
CONTINUOUS
10
-0.4360236220472441
20
-0.2455695275590551
11
-0.4360236220472441
21
-0.2480314960629921
0
LINE
8
BLACK
6
CONTINUOUS
10
-0.4360236220472441
20
-0.2480314960629921
11
-0.4360236220472441
21
-0.3031496062992126
0
LINE
8
BLACK
6
CONTINUOUS
10
-0.4360236220472441
20
-0.3031496062992126
11
-0.4360234645669291
21
-0.3031496062992126
0
LINE
8
BLACK
6
CONTINUOUS
10
-0.4360234645669291
20
-0.3031496062992126
11
-0.4360235039370078
21
-0.3056116141732284
0
LINE
8
BLACK
6
CONTINUOUS
10
-0.4360235039370078
20
-0.3056116141732284
11
-0.434749094488189
21
-0.3103678346456693
0
LINE
8
BLACK
6
CONTINUOUS
10
-0.434749094488189
20
-0.3103678346456693
11
-0.432287125984252
21
-0.3146321653543307
0
LINE
8
BLACK
6
CONTINUOUS
10
-0.432287125984252
20
-0.3146321653543307
11
-0.4288053543307087
21
-0.3181139763779527
0
LINE
8
BLACK
6
CONTINUOUS
10
-0.4288053543307087
20
-0.3181139763779527
11
-0.424541062992126
21
-0.3205759842519685
0
LINE
8
BLACK
6
CONTINUOUS
10
-0.424541062992126
20
-0.3205759842519685
11
-0.419784842519685
21
-0.3218503937007874
0
LINE
8
BLACK
6
CONTINUOUS
10
-0.419784842519685
20
-0.3218503937007874
11
-0.4173228346456693
21
-0.3218503937007874
0
LINE
8
BLACK
6
CONTINUOUS
10
-0.4173228346456693
20
-0.3218503937007874
11
-0.3700787401574803
21
-0.3218503937007874
0
LINE
8
BLACK
6
CONTINUOUS
10
-0.3700787401574803
20
-0.3218503937007874
11
-0.3700783464566929
21
-0.3218505511811023
0
LINE
8
BLACK
6
CONTINUOUS
10
-0.3700783464566929
20
-0.3218505511811023
11
-0.3676167322834645
21
-0.3218505511811023
0
LINE
8
BLACK
6
CONTINUOUS
10
-0.3676167322834645
20
-0.3218505511811023
11
-0.3628604724409449
21
-0.3205761023622047
0
LINE
8
BLACK
6
CONTINUOUS
10
-0.3628604724409449
20
-0.3205761023622047
11
-0.3585961417322834
21
-0.3181140944881889
0
LINE
8
BLACK
6
CONTINUOUS
10
-0.3585961417322834
20
-0.3181140944881889
11
-0.3551143307086614
21
-0.3146322440944882
0
LINE
8
BLACK
6
CONTINUOUS
10
-0.3551143307086614
20
-0.3146322440944882
11
-0.3526523228346456
21
-0.3103679133858268
0
LINE
8
BLACK
6
CONTINUOUS
10
-0.3526523228346456
20
-0.3103679133858268
11
-0.3513779133858267
21
-0.3056116141732284
0
LINE
8
BLACK
6
CONTINUOUS
10
-0.3513779133858267
20
-0.3056116141732284
11
-0.3513779527559055
21
-0.3031496062992126
0
LINE
8
BLACK
6
CONTINUOUS
10
-0.3513779527559055
20
-0.3031496062992126
11
-0.3513779527559055
21
-0.2480314960629921
0
LINE
8
BLACK
6
CONTINUOUS
10
-0.3513779527559055
20
-0.2480314960629921
11
-0.3513777952755905
21
-0.2480311023622047
0
LINE
8
BLACK
6
CONTINUOUS
10
-0.3513777952755905
20
-0.2480311023622047
11
-0.3513777952755905
21
-0.2455694881889764
0
LINE
8
BLACK
6
CONTINUOUS
10
-0.3513777952755905
20
-0.2455694881889764
11
-0.3526522834645669
21
-0.2408132677165354
0
LINE
8
BLACK
6
CONTINUOUS
10
-0.3526522834645669
20
-0.2408132677165354
11
-0.3551142913385827
21
-0.236548937007874
0
LINE
8
BLACK
6
CONTINUOUS
10
-0.3551142913385827
20
-0.236548937007874
11
-0.3585961417322834
21
-0.233067125984252
0
LINE
8
BLACK
6
CONTINUOUS
10
-0.3585961417322834
20
-0.233067125984252
11
-0.3628604724409449
21
-0.2306051181102362
0
LINE
8
BLACK
6
CONTINUOUS
10
-0.3628604724409449
20
-0.2306051181102362
11
-0.3676167322834645
21
-0.2293307086614173
0
LINE
8
BLACK
6
CONTINUOUS
10
-0.3676167322834645
20
-0.2293307086614173
11
-0.3700787401574803
21
-0.2293307086614173
0
LINE
8
BLACK
6
CONTINUOUS
10
-0.3700787401574803
20
-0.2293307086614173
11
-0.4173228346456693
21
-0.2293307086614173
0
LINE
8
BLACK
6
CONTINUOUS
10
0.0236220472440945
20
-0.2273622047244094
11
0.0282214173228346
21
-0.2278804330708661
0
LINE
8
BLACK
6
CONTINUOUS
10
0.0282214173228346
20
-0.2278804330708661
11
0.032590157480315
21
-0.229409094488189
0
LINE
8
BLACK
6
CONTINUOUS
10
0.032590157480315
20
-0.229409094488189
11
0.0365091732283465
21
-0.2318715748031496
0
LINE
8
BLACK
6
CONTINUOUS
10
0.0365091732283465
20
-0.2318715748031496
11
0.0397820078740157
21
-0.2351443700787401
0
LINE
8
BLACK
6
CONTINUOUS
10
0.0397820078740157
20
-0.2351443700787401
11
0.0422445275590551
21
-0.2390634251968504
0
LINE
8
BLACK
6
CONTINUOUS
10
0.0422445275590551
20
-0.2390634251968504
11
0.0437732283464567
21
-0.243432125984252
0
LINE
8
BLACK
6
CONTINUOUS
10
0.0437732283464567
20
-0.243432125984252
11
0.0442914960629921
21
-0.2480314960629921
0
LINE
8
BLACK
6
CONTINUOUS
10
0.0442914960629921
20
-0.2480314960629921
11
0.0442913385826772
21
-0.2480314960629921
0
LINE
8
BLACK
6
CONTINUOUS
10
0.0442913385826772
20
-0.2480314960629921
11
0.0442913385826772
21
-0.3031496062992126
0
LINE
8
BLACK
6
CONTINUOUS
10
0.0442913385826772
20
-0.3031496062992126
11
0.0437731496062992
21
-0.3077489763779527
0
LINE
8
BLACK
6
CONTINUOUS
10
0.0437731496062992
20
-0.3077489763779527
11
0.0422444881889764
21
-0.3121177165354331
0
LINE
8
BLACK
6
CONTINUOUS
10
0.0422444881889764
20
-0.3121177165354331
11
0.0397820078740157
21
-0.3160367716535433
0
LINE
8
BLACK
6
CONTINUOUS
10
0.0397820078740157
20
-0.3160367716535433
11
0.0365092125984252
21
-0.3193096062992126
0
LINE
8
BLACK
6
CONTINUOUS
10
0.0365092125984252
20
-0.3193096062992126
11
0.032590157480315
21
-0.321772125984252
0
LINE
8
BLACK
6
CONTINUOUS
10
0.032590157480315
20
-0.321772125984252
11
0.0282214173228346
21
-0.3233008267716536
0
LINE
8
BLACK
6
CONTINUOUS
10
0.0282214173228346
20
-0.3233008267716536
11
0.0236220472440945
21
-0.3238190551181102
0
LINE
8
BLACK
6
CONTINUOUS
10
0.0236220472440945
20
-0.3238190551181102
11
0.0236220472440945
21
-0.3238188976377953
0
LINE
8
BLACK
6
CONTINUOUS
10
0.0236220472440945
20
-0.3238188976377953
11
-0.0236220472440945
21
-0.3238188976377953
0
LINE
8
BLACK
6
CONTINUOUS
10
-0.0236220472440945
20
-0.3238188976377953
11
-0.0282213779527559
21
-0.3233006692913385
0
LINE
8
BLACK
6
CONTINUOUS
10
-0.0282213779527559
20
-0.3233006692913385
11
-0.0325900787401575
21
-0.3217720078740157
0
LINE
8
BLACK
6
CONTINUOUS
10
-0.0325900787401575
20
-0.3217720078740157
11
-0.036509094488189
21
-0.3193094881889764
0
LINE
8
BLACK
6
CONTINUOUS
10
-0.036509094488189
20
-0.3193094881889764
11
-0.0397818897637795
21
-0.3160366929133858
0
LINE
8
BLACK
6
CONTINUOUS
10
-0.0397818897637795
20
-0.3160366929133858
11
-0.0422443307086614
21
-0.3121176771653543
0
LINE
8
BLACK
6
CONTINUOUS
10
-0.0422443307086614
20
-0.3121176771653543
11
-0.0437729921259843
21
-0.307748937007874
0
LINE
8
BLACK
6
CONTINUOUS
10
-0.0437729921259843
20
-0.307748937007874
11
-0.0442911417322835
21
-0.3031501181102362
0
LINE
8
BLACK
6
CONTINUOUS
10
-0.0442911417322835
20
-0.3031501181102362
11
-0.0442913385826772
21
-0.3031496062992126
0
LINE
8
BLACK
6
CONTINUOUS
10
-0.0442913385826772
20
-0.3031496062992126
11
-0.0442913385826772
21
-0.2480314960629921
0
LINE
8
BLACK
6
CONTINUOUS
10
-0.0442913385826772
20
-0.2480314960629921
11
-0.0437730708661417
21
-0.2434321653543307
0
LINE
8
BLACK
6
CONTINUOUS
10
-0.0437730708661417
20
-0.2434321653543307
11
-0.0422443700787402
21
-0.2390634645669291
0
LINE
8
BLACK
6
CONTINUOUS
10
-0.0422443700787402
20
-0.2390634645669291
11
-0.0397818897637795
21
-0.2351444881889764
0
LINE
8
BLACK
6
CONTINUOUS
10
-0.0397818897637795
20
-0.2351444881889764
11
-0.036509094488189
21
-0.2318716929133858
0
LINE
8
BLACK
6
CONTINUOUS
10
-0.036509094488189
20
-0.2318716929133858
11
-0.0325900787401575
21
-0.2294092519685039
0
LINE
8
BLACK
6
CONTINUOUS
10
-0.0325900787401575
20
-0.2294092519685039
11
-0.0282213779527559
21
-0.2278805905511811
0
LINE
8
BLACK
6
CONTINUOUS
10
-0.0282213779527559
20
-0.2278805905511811
11
-0.0236225984251969
21
-0.2273624015748031
0
LINE
8
BLACK
6
CONTINUOUS
10
-0.0236225984251969
20
-0.2273624015748031
11
-0.0236220472440945
21
-0.2273622047244094
0
LINE
8
BLACK
6
CONTINUOUS
10
-0.0236220472440945
20
-0.2273622047244094
11
0.0236220472440945
21
-0.2273622047244094
0
LINE
8
BLACK
6
CONTINUOUS
10
-0.0236220472440945
20
-0.2293307086614173
11
-0.0236220472440945
21
-0.2293308661417323
0
LINE
8
BLACK
6
CONTINUOUS
10
-0.0236220472440945
20
-0.2293308661417323
11
-0.0260840551181102
21
-0.2293308661417323
0
LINE
8
BLACK
6
CONTINUOUS
10
-0.0260840551181102
20
-0.2293308661417323
11
-0.0308402362204724
21
-0.2306052755905512
0
LINE
8
BLACK
6
CONTINUOUS
10
-0.0308402362204724
20
-0.2306052755905512
11
-0.0351045669291339
21
-0.2330672440944882
0
LINE
8
BLACK
6
CONTINUOUS
10
-0.0351045669291339
20
-0.2330672440944882
11
-0.0385863385826772
21
-0.2365490157480315
0
LINE
8
BLACK
6
CONTINUOUS
10
-0.0385863385826772
20
-0.2365490157480315
11
-0.0410483858267717
21
-0.2408133070866142
0
LINE
8
BLACK
6
CONTINUOUS
10
-0.0410483858267717
20
-0.2408133070866142
11
-0.0423228346456693
21
-0.2455695275590551
0
LINE
8
BLACK
6
CONTINUOUS
10
-0.0423228346456693
20
-0.2455695275590551
11
-0.0423228346456693
21
-0.2480314960629921
0
LINE
8
BLACK
6
CONTINUOUS
10
-0.0423228346456693
20
-0.2480314960629921
11
-0.0423228346456693
21
-0.3031496062992126
0
LINE
8
BLACK
6
CONTINUOUS
10
-0.0423228346456693
20
-0.3031496062992126
11
-0.0423226771653543
21
-0.3031496062992126
0
LINE
8
BLACK
6
CONTINUOUS
10
-0.0423226771653543
20
-0.3031496062992126
11
-0.0423227165354331
21
-0.3056116141732284
0
LINE
8
BLACK
6
CONTINUOUS
10
-0.0423227165354331
20
-0.3056116141732284
11
-0.0410483070866142
21
-0.3103678346456693
0
LINE
8
BLACK
6
CONTINUOUS
10
-0.0410483070866142
20
-0.3103678346456693
11
-0.0385863385826772
21
-0.3146321653543307
0
LINE
8
BLACK
6
CONTINUOUS
10
-0.0385863385826772
20
-0.3146321653543307
11
-0.0351045669291339
21
-0.3181139763779527
0
LINE
8
BLACK
6
CONTINUOUS
10
-0.0351045669291339
20
-0.3181139763779527
11
-0.0308402755905512
21
-0.3205759842519685
0
LINE
8
BLACK
6
CONTINUOUS
10
-0.0308402755905512
20
-0.3205759842519685
11
-0.0260840551181102
21
-0.3218503937007874
0
LINE
8
BLACK
6
CONTINUOUS
10
-0.0260840551181102
20
-0.3218503937007874
11
-0.0236220472440945
21
-0.3218503937007874
0
LINE
8
BLACK
6
CONTINUOUS
10
-0.0236220472440945
20
-0.3218503937007874
11
0.0236220472440945
21
-0.3218503937007874
0
LINE
8
BLACK
6
CONTINUOUS
10
0.0236220472440945
20
-0.3218503937007874
11
0.0236224409448819
21
-0.3218505511811023
0
LINE
8
BLACK
6
CONTINUOUS
10
0.0236224409448819
20
-0.3218505511811023
11
0.0260840551181102
21
-0.3218505511811023
0
LINE
8
BLACK
6
CONTINUOUS
10
0.0260840551181102
20
-0.3218505511811023
11
0.0308403149606299
21
-0.3205761023622047
0
LINE
8
BLACK
6
CONTINUOUS
10
0.0308403149606299
20
-0.3205761023622047
11
0.0351046456692913
21
-0.3181140944881889
0
LINE
8
BLACK
6
CONTINUOUS
10
0.0351046456692913
20
-0.3181140944881889
11
0.0385864566929134
21
-0.3146322440944882
0
LINE
8
BLACK
6
CONTINUOUS
10
0.0385864566929134
20
-0.3146322440944882
11
0.0410484645669291
21
-0.3103679133858268
0
LINE
8
BLACK
6
CONTINUOUS
10
0.0410484645669291
20
-0.3103679133858268
11
0.042322874015748
21
-0.3056116141732284
0
LINE
8
BLACK
6
CONTINUOUS
10
0.042322874015748
20
-0.3056116141732284
11
0.0423228346456693
21
-0.3031496062992126
0
LINE
8
BLACK
6
CONTINUOUS
10
0.0423228346456693
20
-0.3031496062992126
11
0.0423228346456693
21
-0.2480314960629921
0
LINE
8
BLACK
6
CONTINUOUS
10
0.0423228346456693
20
-0.2480314960629921
11
0.0423229921259842
21
-0.2480311023622047
0
LINE
8
BLACK
6
CONTINUOUS
10
0.0423229921259842
20
-0.2480311023622047
11
0.0423229921259842
21
-0.2455694881889764
0
LINE
8
BLACK
6
CONTINUOUS
10
0.0423229921259842
20
-0.2455694881889764
11
0.0410485039370079
21
-0.2408132677165354
0
LINE
8
BLACK
6
CONTINUOUS
10
0.0410485039370079
20
-0.2408132677165354
11
0.0385864960629921
21
-0.236548937007874
0
LINE
8
BLACK
6
CONTINUOUS
10
0.0385864960629921
20
-0.236548937007874
11
0.0351046456692913
21
-0.233067125984252
0
LINE
8
BLACK
6
CONTINUOUS
10
0.0351046456692913
20
-0.233067125984252
11
0.0308403149606299
21
-0.2306051181102362
0
LINE
8
BLACK
6
CONTINUOUS
10
0.0308403149606299
20
-0.2306051181102362
11
0.0260840551181102
21
-0.2293307086614173
0
LINE
8
BLACK
6
CONTINUOUS
10
0.0260840551181102
20
-0.2293307086614173
11
0.0236220472440945
21
-0.2293307086614173
0
LINE
8
BLACK
6
CONTINUOUS
10
0.0236220472440945
20
-0.2293307086614173
11
-0.0236220472440945
21
-0.2293307086614173
0
LINE
8
BLACK
6
CONTINUOUS
10
0.6267614566929134
20
0.3778851574803149
11
0.6268907086614173
21
0.3779079133858267
0
LINE
8
BLACK
6
CONTINUOUS
10
0.6268907086614173
20
0.3779079133858267
11
0.6270042913385827
21
0.3778423228346456
0
LINE
8
BLACK
6
CONTINUOUS
10
0.6270042913385827
20
0.3778423228346456
11
0.627387874015748
21
0.3777746850393701
0
LINE
8
BLACK
6
CONTINUOUS
10
0.627387874015748
20
0.3777746850393701
11
0.6279755511811024
21
0.3772815748031496
0
LINE
8
BLACK
6
CONTINUOUS
10
0.6279755511811024
20
0.3772815748031496
11
0.6286398818897637
21
0.3768979921259842
0
LINE
8
BLACK
6
CONTINUOUS
10
0.6286398818897637
20
0.3768979921259842
11
0.6287309842519685
21
0.3766476771653543
0
LINE
8
BLACK
6
CONTINUOUS
10
0.6287309842519685
20
0.3766476771653543
11
0.6289351181102362
21
0.3764763779527559
0
LINE
8
BLACK
6
CONTINUOUS
10
0.6289351181102362
20
0.3764763779527559
11
0.6290683464566929
21
0.3757208267716535
0
LINE
8
BLACK
6
CONTINUOUS
10
0.6290683464566929
20
0.3757208267716535
11
0.6293307086614173
21
0.375
0
LINE
8
BLACK
6
CONTINUOUS
10
0.6293307086614173
20
0.375
11
0.6293307086614173
21
-0.3730314960629921
0
LINE
8
BLACK
6
CONTINUOUS
10
0.6293307086614173
20
-0.3730314960629921
11
0.6292630708661417
21
-0.373415
0
LINE
8
BLACK
6
CONTINUOUS
10
0.6292630708661417
20
-0.373415
11
0.6292858661417323
21
-0.3735442519685039
0
LINE
8
BLACK
6
CONTINUOUS
10
0.6292858661417323
20
-0.3735442519685039
11
0.6292202362204724
21
-0.3736578346456693
0
LINE
8
BLACK
6
CONTINUOUS
10
0.6292202362204724
20
-0.3736578346456693
11
0.6291526377952755
21
-0.3740414173228346
0
LINE
8
BLACK
6
CONTINUOUS
10
0.6291526377952755
20
-0.3740414173228346
11
0.6286594881889763
21
-0.374629094488189
0
LINE
8
BLACK
6
CONTINUOUS
10
0.6286594881889763
20
-0.374629094488189
11
0.6282759448818898
21
-0.3752934251968504
0
LINE
8
BLACK
6
CONTINUOUS
10
0.6282759448818898
20
-0.3752934251968504
11
0.6280255905511811
21
-0.3753845275590551
0
LINE
8
BLACK
6
CONTINUOUS
10
0.6280255905511811
20
-0.3753845275590551
11
0.6278543307086614
21
-0.3755886614173228
0
LINE
8
BLACK
6
CONTINUOUS
10
0.6278543307086614
20
-0.3755886614173228
11
0.6270987401574803
21
-0.3757218897637795
0
LINE
8
BLACK
6
CONTINUOUS
10
0.6270987401574803
20
-0.3757218897637795
11
0.6263779527559055
21
-0.3759842519685039
0
LINE
8
BLACK
6
CONTINUOUS
10
0.6263779527559055
20
-0.3759842519685039
11
-0.85
21
-0.3759842519685039
0
LINE
8
BLACK
6
CONTINUOUS
10
-0.85
20
-0.3759842519685039
11
-0.8503835433070865
21
-0.3759166141732284
0
LINE
8
BLACK
6
CONTINUOUS
10
-0.8503835433070865
20
-0.3759166141732284
11
-0.8505127559055118
21
-0.3759394094488189
0
LINE
8
BLACK
6
CONTINUOUS
10
-0.8505127559055118
20
-0.3759394094488189
11
-0.8506263779527559
21
-0.3758737795275591
0
LINE
8
BLACK
6
CONTINUOUS
10
-0.8506263779527559
20
-0.3758737795275591
11
-0.8510099212598425
21
-0.3758061811023622
0
LINE
8
BLACK
6
CONTINUOUS
10
-0.8510099212598425
20
-0.3758061811023622
11
-0.8515976377952755
21
-0.375313031496063
0
LINE
8
BLACK
6
CONTINUOUS
10
-0.8515976377952755
20
-0.375313031496063
11
-0.8522619291338582
21
-0.3749294881889764
0
LINE
8
BLACK
6
CONTINUOUS
10
-0.8522619291338582
20
-0.3749294881889764
11
-0.8523530708661418
21
-0.3746791338582677
0
LINE
8
BLACK
6
CONTINUOUS
10
-0.8523530708661418
20
-0.3746791338582677
11
-0.8525571653543307
21
-0.374507874015748
0
LINE
8
BLACK
6
CONTINUOUS
10
-0.8525571653543307
20
-0.374507874015748
11
-0.8526904330708661
21
-0.3737522834645669
0
LINE
8
BLACK
6
CONTINUOUS
10
-0.8526904330708661
20
-0.3737522834645669
11
-0.8529527559055118
21
-0.3730314960629921
0
LINE
8
BLACK
6
CONTINUOUS
10
-0.8529527559055118
20
-0.3730314960629921
11
-0.8529527559055118
21
0.375
0
LINE
8
BLACK
6
CONTINUOUS
10
-0.8529527559055118
20
0.375
11
-0.8528851574803149
21
0.3753835433070866
0
LINE
8
BLACK
6
CONTINUOUS
10
-0.8528851574803149
20
0.3753835433070866
11
-0.8529079133858267
21
0.3755127559055118
0
LINE
8
BLACK
6
CONTINUOUS
10
-0.8529079133858267
20
0.3755127559055118
11
-0.8528423228346457
21
0.3756263779527559
0
LINE
8
BLACK
6
CONTINUOUS
10
-0.8528423228346457
20
0.3756263779527559
11
-0.85277468503937
21
0.3760099212598425
0
LINE
8
BLACK
6
CONTINUOUS
10
-0.85277468503937
20
0.3760099212598425
11
-0.8522815748031496
21
0.3765976377952756
0
LINE
8
BLACK
6
CONTINUOUS
10
-0.8522815748031496
20
0.3765976377952756
11
-0.8518979921259843
21
0.3772619291338583
0
LINE
8
BLACK
6
CONTINUOUS
10
-0.8518979921259843
20
0.3772619291338583
11
-0.8516476771653543
21
0.3773530708661417
0
LINE
8
BLACK
6
CONTINUOUS
10
-0.8516476771653543
20
0.3773530708661417
11
-0.8514763779527559
21
0.3775571653543307
0
LINE
8
BLACK
6
CONTINUOUS
10
-0.8514763779527559
20
0.3775571653543307
11
-0.8507208267716535
21
0.3776904330708661
0
LINE
8
BLACK
6
CONTINUOUS
10
-0.8507208267716535
20
0.3776904330708661
11
-0.85
21
0.3779527559055118
0
LINE
8
BLACK
6
CONTINUOUS
10
-0.85
20
0.3779527559055118
11
0.6263779527559055
21
0.3779527559055118
0
LINE
8
BLACK
6
CONTINUOUS
10
0.6263779527559055
20
0.3779527559055118
11
0.6267614566929134
21
0.3778851574803149
0
LINE
8
BLACK
6
CONTINUOUS
10
-0.8470472440944882
20
0.3720472440944882
11
-0.8470472440944882
21
-0.3700787401574803
0
LINE
8
BLACK
6
CONTINUOUS
10
-0.8470472440944882
20
-0.3700787401574803
11
0.6234251968503937
21
-0.3700787401574803
0
LINE
8
BLACK
6
CONTINUOUS
10
0.6234251968503937
20
-0.3700787401574803
11
0.6234251968503937
21
0.3720472440944882
0
LINE
8
BLACK
6
CONTINUOUS
10
0.6234251968503937
20
0.3720472440944882
11
-0.8470472440944882
21
0.3720472440944882
  0
ENDSEC
  0
EOF
