  0
SECTION
  2
HEADER
  9
$ANGBASE
  50
0.0
  9
$ANGDIR
  70
1
  9
$MEASUREMENT
  70
0
  0
ENDSEC
  0
SECTION
  2
TABLES
  0
TABLE
  2
LTYPE
  70
4
  0
LTYPE
  5
40F
  2
CONTINUOUS
  70
0
  3
Solid line
  72
65
  73
0
  40
0.0
  0
LTYPE
  5
410
  2
DASHDOT
 70
0
  3
Dash Dot ____ _ ____ _
 72
65
 73
4
 40
2.0
 49
1.25
 49
-0.25
 49
0.25
 49
-0.25
  0
LTYPE
  5
411
  2
DASHED
 70
0
  3
Dashed __ __ __ __ __
 72
65
 73
2
 40
0.75
 49
0.5
 49
-0.25
  0
LTYPE
  5
43B
  2
DOTTED
 70
0
  3
Dotted .  .  .  .
 72
65
 73
2
 40
0.2
 49
0.0
 49
-0.2
  0
ENDTAB
  0
TABLE
  2
STYLE
  70
4
  0
STYLE
  2
KICAD
  70
0
  40
0
  41
1
  42
1
  50
0
  71
0
  3
isocp.shx
  0
STYLE
  2
KICADB
  70
0
  40
0
  41
1
  42
1
  50
0
  71
0
  3
isocp.shx
  0
STYLE
  2
KICADI
  70
0
  40
0
  41
1
  42
1
  50
15
  71
0
  3
isocp.shx
  0
STYLE
  2
KICADBI
  70
0
  40
0
  41
1
  42
1
  50
15
  71
0
  3
isocp.shx
  0
ENDTAB
  0
TABLE
  2
LAYER
  70
1
  0
LAYER
  2
BLACK
  70
0
  62
7
  6
CONTINUOUS
  0
ENDTAB
  0
ENDSEC
  0
SECTION
  2
ENTITIES
0
LINE
8
BLACK
6
CONTINUOUS
10
0.59286
20
-0.110472
11
0.593757
21
-0.110607
0
LINE
8
BLACK
6
CONTINUOUS
10
0.593757
20
-0.110607
11
0.598257
21
-0.112857
0
LINE
8
BLACK
6
CONTINUOUS
10
0.598257
20
-0.112857
11
0.598711
21
-0.113304
0
LINE
8
BLACK
6
CONTINUOUS
10
0.598711
20
-0.113304
11
0.59928
21
-0.113594
0
LINE
8
BLACK
6
CONTINUOUS
10
0.59928
20
-0.113594
11
0.60153
21
-0.115844
0
LINE
8
BLACK
6
CONTINUOUS
10
0.60153
20
-0.115844
11
0.601819
21
-0.116412
0
LINE
8
BLACK
6
CONTINUOUS
10
0.601819
20
-0.116412
11
0.602267
21
-0.116867
0
LINE
8
BLACK
6
CONTINUOUS
10
0.602267
20
-0.116867
11
0.604517
21
-0.121366
0
LINE
8
BLACK
6
CONTINUOUS
10
0.604517
20
-0.121366
11
0.604652
21
-0.122264
0
LINE
8
BLACK
6
CONTINUOUS
10
0.604652
20
-0.122264
11
0.604932
21
-0.123127
0
LINE
8
BLACK
6
CONTINUOUS
10
0.604932
20
-0.123127
11
0.604932
21
-0.127627
0
LINE
8
BLACK
6
CONTINUOUS
10
0.604932
20
-0.127627
11
0.604735
21
-0.128233
0
LINE
8
BLACK
6
CONTINUOUS
10
0.604735
20
-0.128233
11
0.60473
21
-0.128872
0
LINE
8
BLACK
6
CONTINUOUS
10
0.60473
20
-0.128872
11
0.602481
21
-0.135621
0
LINE
8
BLACK
6
CONTINUOUS
10
0.602481
20
-0.135621
11
0.601942
21
-0.136351
0
LINE
8
BLACK
6
CONTINUOUS
10
0.601942
20
-0.136351
11
0.60153
21
-0.13716
0
LINE
8
BLACK
6
CONTINUOUS
10
0.60153
20
-0.13716
11
0.581254
21
-0.157435
0
LINE
8
BLACK
6
CONTINUOUS
10
0.581254
20
-0.157435
11
0.600995
21
-0.157435
0
LINE
8
BLACK
6
CONTINUOUS
10
0.600995
20
-0.157435
11
0.60331
21
-0.158187
0
LINE
8
BLACK
6
CONTINUOUS
10
0.60331
20
-0.158187
11
0.60474
21
-0.160156
0
LINE
8
BLACK
6
CONTINUOUS
10
0.60474
20
-0.160156
11
0.60474
21
-0.162589
0
LINE
8
BLACK
6
CONTINUOUS
10
0.60474
20
-0.162589
11
0.60331
21
-0.164557
0
LINE
8
BLACK
6
CONTINUOUS
10
0.60331
20
-0.164557
11
0.600995
21
-0.165309
0
LINE
8
BLACK
6
CONTINUOUS
10
0.600995
20
-0.165309
11
0.571749
21
-0.165309
0
LINE
8
BLACK
6
CONTINUOUS
10
0.571749
20
-0.165309
11
0.570872
21
-0.165024
0
LINE
8
BLACK
6
CONTINUOUS
10
0.570872
20
-0.165024
11
0.569962
21
-0.16488
0
LINE
8
BLACK
6
CONTINUOUS
10
0.569962
20
-0.16488
11
0.569737
21
-0.164656
0
LINE
8
BLACK
6
CONTINUOUS
10
0.569737
20
-0.164656
11
0.569435
21
-0.164557
0
LINE
8
BLACK
6
CONTINUOUS
10
0.569435
20
-0.164557
11
0.568893
21
-0.163812
0
LINE
8
BLACK
6
CONTINUOUS
10
0.568893
20
-0.163812
11
0.568241
21
-0.16316
0
LINE
8
BLACK
6
CONTINUOUS
10
0.568241
20
-0.16316
11
0.568192
21
-0.162846
0
LINE
8
BLACK
6
CONTINUOUS
10
0.568192
20
-0.162846
11
0.568005
21
-0.162589
0
LINE
8
BLACK
6
CONTINUOUS
10
0.568005
20
-0.162589
11
0.568005
21
-0.161667
0
LINE
8
BLACK
6
CONTINUOUS
10
0.568005
20
-0.161667
11
0.567861
21
-0.160756
0
LINE
8
BLACK
6
CONTINUOUS
10
0.567861
20
-0.160756
11
0.568005
21
-0.160473
0
LINE
8
BLACK
6
CONTINUOUS
10
0.568005
20
-0.160473
11
0.568005
21
-0.160156
0
LINE
8
BLACK
6
CONTINUOUS
10
0.568005
20
-0.160156
11
0.568547
21
-0.15941
0
LINE
8
BLACK
6
CONTINUOUS
10
0.568547
20
-0.15941
11
0.568965
21
-0.158588
0
LINE
8
BLACK
6
CONTINUOUS
10
0.568965
20
-0.158588
11
0.595305
21
-0.132249
0
LINE
8
BLACK
6
CONTINUOUS
10
0.595305
20
-0.132249
11
0.597058
21
-0.126988
0
LINE
8
BLACK
6
CONTINUOUS
10
0.597058
20
-0.126988
11
0.597058
21
-0.124057
0
LINE
8
BLACK
6
CONTINUOUS
10
0.597058
20
-0.124057
11
0.59551
21
-0.12096
0
LINE
8
BLACK
6
CONTINUOUS
10
0.59551
20
-0.12096
11
0.594164
21
-0.119614
0
LINE
8
BLACK
6
CONTINUOUS
10
0.594164
20
-0.119614
11
0.591067
21
-0.118065
0
LINE
8
BLACK
6
CONTINUOUS
10
0.591067
20
-0.118065
11
0.581677
21
-0.118065
0
LINE
8
BLACK
6
CONTINUOUS
10
0.581677
20
-0.118065
11
0.578581
21
-0.119614
0
LINE
8
BLACK
6
CONTINUOUS
10
0.578581
20
-0.119614
11
0.576783
21
-0.121412
0
LINE
8
BLACK
6
CONTINUOUS
10
0.576783
20
-0.121412
11
0.574615
21
-0.122516
0
LINE
8
BLACK
6
CONTINUOUS
10
0.574615
20
-0.122516
11
0.572211
21
-0.122136
0
LINE
8
BLACK
6
CONTINUOUS
10
0.572211
20
-0.122136
11
0.570491
21
-0.120415
0
LINE
8
BLACK
6
CONTINUOUS
10
0.570491
20
-0.120415
11
0.57011
21
-0.118012
0
LINE
8
BLACK
6
CONTINUOUS
10
0.57011
20
-0.118012
11
0.571215
21
-0.115844
0
LINE
8
BLACK
6
CONTINUOUS
10
0.571215
20
-0.115844
11
0.573465
21
-0.113594
0
LINE
8
BLACK
6
CONTINUOUS
10
0.573465
20
-0.113594
11
0.574033
21
-0.113304
0
LINE
8
BLACK
6
CONTINUOUS
10
0.574033
20
-0.113304
11
0.574488
21
-0.112857
0
LINE
8
BLACK
6
CONTINUOUS
10
0.574488
20
-0.112857
11
0.578987
21
-0.110607
0
LINE
8
BLACK
6
CONTINUOUS
10
0.578987
20
-0.110607
11
0.579885
21
-0.110472
0
LINE
8
BLACK
6
CONTINUOUS
10
0.579885
20
-0.110472
11
0.580748
21
-0.110191
0
LINE
8
BLACK
6
CONTINUOUS
10
0.580748
20
-0.110191
11
0.591997
21
-0.110191
0
LINE
8
BLACK
6
CONTINUOUS
10
0.591997
20
-0.110191
11
0.59286
21
-0.110472
0
LINE
8
BLACK
6
CONTINUOUS
10
0.637854
20
-0.110472
11
0.638752
21
-0.110607
0
LINE
8
BLACK
6
CONTINUOUS
10
0.638752
20
-0.110607
11
0.643251
21
-0.112857
0
LINE
8
BLACK
6
CONTINUOUS
10
0.643251
20
-0.112857
11
0.643706
21
-0.113304
0
LINE
8
BLACK
6
CONTINUOUS
10
0.643706
20
-0.113304
11
0.644274
21
-0.113594
0
LINE
8
BLACK
6
CONTINUOUS
10
0.644274
20
-0.113594
11
0.646524
21
-0.115844
0
LINE
8
BLACK
6
CONTINUOUS
10
0.646524
20
-0.115844
11
0.646814
21
-0.116412
0
LINE
8
BLACK
6
CONTINUOUS
10
0.646814
20
-0.116412
11
0.647262
21
-0.116867
0
LINE
8
BLACK
6
CONTINUOUS
10
0.647262
20
-0.116867
11
0.649511
21
-0.121366
0
LINE
8
BLACK
6
CONTINUOUS
10
0.649511
20
-0.121366
11
0.649646
21
-0.122264
0
LINE
8
BLACK
6
CONTINUOUS
10
0.649646
20
-0.122264
11
0.649927
21
-0.123127
0
LINE
8
BLACK
6
CONTINUOUS
10
0.649927
20
-0.123127
11
0.649927
21
-0.127627
0
LINE
8
BLACK
6
CONTINUOUS
10
0.649927
20
-0.127627
11
0.64973
21
-0.128233
0
LINE
8
BLACK
6
CONTINUOUS
10
0.64973
20
-0.128233
11
0.649725
21
-0.128871
0
LINE
8
BLACK
6
CONTINUOUS
10
0.649725
20
-0.128871
11
0.647475
21
-0.135621
0
LINE
8
BLACK
6
CONTINUOUS
10
0.647475
20
-0.135621
11
0.646936
21
-0.136351
0
LINE
8
BLACK
6
CONTINUOUS
10
0.646936
20
-0.136351
11
0.646524
21
-0.13716
0
LINE
8
BLACK
6
CONTINUOUS
10
0.646524
20
-0.13716
11
0.626248
21
-0.157435
0
LINE
8
BLACK
6
CONTINUOUS
10
0.626248
20
-0.157435
11
0.64599
21
-0.157435
0
LINE
8
BLACK
6
CONTINUOUS
10
0.64599
20
-0.157435
11
0.648304
21
-0.158187
0
LINE
8
BLACK
6
CONTINUOUS
10
0.648304
20
-0.158187
11
0.649734
21
-0.160156
0
LINE
8
BLACK
6
CONTINUOUS
10
0.649734
20
-0.160156
11
0.649734
21
-0.162589
0
LINE
8
BLACK
6
CONTINUOUS
10
0.649734
20
-0.162589
11
0.648304
21
-0.164557
0
LINE
8
BLACK
6
CONTINUOUS
10
0.648304
20
-0.164557
11
0.64599
21
-0.165309
0
LINE
8
BLACK
6
CONTINUOUS
10
0.64599
20
-0.165309
11
0.616744
21
-0.165309
0
LINE
8
BLACK
6
CONTINUOUS
10
0.616744
20
-0.165309
11
0.615867
21
-0.165024
0
LINE
8
BLACK
6
CONTINUOUS
10
0.615867
20
-0.165024
11
0.614956
21
-0.16488
0
LINE
8
BLACK
6
CONTINUOUS
10
0.614956
20
-0.16488
11
0.614732
21
-0.164656
0
LINE
8
BLACK
6
CONTINUOUS
10
0.614732
20
-0.164656
11
0.614429
21
-0.164557
0
LINE
8
BLACK
6
CONTINUOUS
10
0.614429
20
-0.164557
11
0.613887
21
-0.163812
0
LINE
8
BLACK
6
CONTINUOUS
10
0.613887
20
-0.163812
11
0.613236
21
-0.16316
0
LINE
8
BLACK
6
CONTINUOUS
10
0.613236
20
-0.16316
11
0.613186
21
-0.162846
0
LINE
8
BLACK
6
CONTINUOUS
10
0.613186
20
-0.162846
11
0.612999
21
-0.162589
0
LINE
8
BLACK
6
CONTINUOUS
10
0.612999
20
-0.162589
11
0.612999
21
-0.161667
0
LINE
8
BLACK
6
CONTINUOUS
10
0.612999
20
-0.161667
11
0.612855
21
-0.160756
0
LINE
8
BLACK
6
CONTINUOUS
10
0.612855
20
-0.160756
11
0.612999
21
-0.160473
0
LINE
8
BLACK
6
CONTINUOUS
10
0.612999
20
-0.160473
11
0.612999
21
-0.160156
0
LINE
8
BLACK
6
CONTINUOUS
10
0.612999
20
-0.160156
11
0.613541
21
-0.15941
0
LINE
8
BLACK
6
CONTINUOUS
10
0.613541
20
-0.15941
11
0.61396
21
-0.158588
0
LINE
8
BLACK
6
CONTINUOUS
10
0.61396
20
-0.158588
11
0.640299
21
-0.132249
0
LINE
8
BLACK
6
CONTINUOUS
10
0.640299
20
-0.132249
11
0.642053
21
-0.126988
0
LINE
8
BLACK
6
CONTINUOUS
10
0.642053
20
-0.126988
11
0.642053
21
-0.124056
0
LINE
8
BLACK
6
CONTINUOUS
10
0.642053
20
-0.124056
11
0.640505
21
-0.12096
0
LINE
8
BLACK
6
CONTINUOUS
10
0.640505
20
-0.12096
11
0.639158
21
-0.119614
0
LINE
8
BLACK
6
CONTINUOUS
10
0.639158
20
-0.119614
11
0.636062
21
-0.118065
0
LINE
8
BLACK
6
CONTINUOUS
10
0.636062
20
-0.118065
11
0.626672
21
-0.118065
0
LINE
8
BLACK
6
CONTINUOUS
10
0.626672
20
-0.118065
11
0.623575
21
-0.119614
0
LINE
8
BLACK
6
CONTINUOUS
10
0.623575
20
-0.119614
11
0.621777
21
-0.121412
0
LINE
8
BLACK
6
CONTINUOUS
10
0.621777
20
-0.121412
11
0.619609
21
-0.122516
0
LINE
8
BLACK
6
CONTINUOUS
10
0.619609
20
-0.122516
11
0.617206
21
-0.122136
0
LINE
8
BLACK
6
CONTINUOUS
10
0.617206
20
-0.122136
11
0.615485
21
-0.120415
0
LINE
8
BLACK
6
CONTINUOUS
10
0.615485
20
-0.120415
11
0.615105
21
-0.118012
0
LINE
8
BLACK
6
CONTINUOUS
10
0.615105
20
-0.118012
11
0.616209
21
-0.115844
0
LINE
8
BLACK
6
CONTINUOUS
10
0.616209
20
-0.115844
11
0.618459
21
-0.113594
0
LINE
8
BLACK
6
CONTINUOUS
10
0.618459
20
-0.113594
11
0.619028
21
-0.113304
0
LINE
8
BLACK
6
CONTINUOUS
10
0.619028
20
-0.113304
11
0.619482
21
-0.112857
0
LINE
8
BLACK
6
CONTINUOUS
10
0.619482
20
-0.112857
11
0.623982
21
-0.110607
0
LINE
8
BLACK
6
CONTINUOUS
10
0.623982
20
-0.110607
11
0.624879
21
-0.110472
0
LINE
8
BLACK
6
CONTINUOUS
10
0.624879
20
-0.110472
11
0.625742
21
-0.110191
0
LINE
8
BLACK
6
CONTINUOUS
10
0.625742
20
-0.110191
11
0.636991
21
-0.110191
0
LINE
8
BLACK
6
CONTINUOUS
10
0.636991
20
-0.110191
11
0.637854
21
-0.110472
0
LINE
8
BLACK
6
CONTINUOUS
10
0.502871
20
-0.110472
11
0.503769
21
-0.110607
0
LINE
8
BLACK
6
CONTINUOUS
10
0.503769
20
-0.110607
11
0.508268
21
-0.112857
0
LINE
8
BLACK
6
CONTINUOUS
10
0.508268
20
-0.112857
11
0.508723
21
-0.113304
0
LINE
8
BLACK
6
CONTINUOUS
10
0.508723
20
-0.113304
11
0.509291
21
-0.113594
0
LINE
8
BLACK
6
CONTINUOUS
10
0.509291
20
-0.113594
11
0.511541
21
-0.115844
0
LINE
8
BLACK
6
CONTINUOUS
10
0.511541
20
-0.115844
11
0.511831
21
-0.116412
0
LINE
8
BLACK
6
CONTINUOUS
10
0.511831
20
-0.116412
11
0.512278
21
-0.116867
0
LINE
8
BLACK
6
CONTINUOUS
10
0.512278
20
-0.116867
11
0.514528
21
-0.121366
0
LINE
8
BLACK
6
CONTINUOUS
10
0.514528
20
-0.121366
11
0.514663
21
-0.122264
0
LINE
8
BLACK
6
CONTINUOUS
10
0.514663
20
-0.122264
11
0.514944
21
-0.123127
0
LINE
8
BLACK
6
CONTINUOUS
10
0.514944
20
-0.123127
11
0.514944
21
-0.127627
0
LINE
8
BLACK
6
CONTINUOUS
10
0.514944
20
-0.127627
11
0.514747
21
-0.128233
0
LINE
8
BLACK
6
CONTINUOUS
10
0.514747
20
-0.128233
11
0.514742
21
-0.128872
0
LINE
8
BLACK
6
CONTINUOUS
10
0.514742
20
-0.128872
11
0.512492
21
-0.135621
0
LINE
8
BLACK
6
CONTINUOUS
10
0.512492
20
-0.135621
11
0.511953
21
-0.136351
0
LINE
8
BLACK
6
CONTINUOUS
10
0.511953
20
-0.136351
11
0.511541
21
-0.13716
0
LINE
8
BLACK
6
CONTINUOUS
10
0.511541
20
-0.13716
11
0.491265
21
-0.157435
0
LINE
8
BLACK
6
CONTINUOUS
10
0.491265
20
-0.157435
11
0.511007
21
-0.157435
0
LINE
8
BLACK
6
CONTINUOUS
10
0.511007
20
-0.157435
11
0.513321
21
-0.158187
0
LINE
8
BLACK
6
CONTINUOUS
10
0.513321
20
-0.158187
11
0.514751
21
-0.160156
0
LINE
8
BLACK
6
CONTINUOUS
10
0.514751
20
-0.160156
11
0.514751
21
-0.162589
0
LINE
8
BLACK
6
CONTINUOUS
10
0.514751
20
-0.162589
11
0.513321
21
-0.164557
0
LINE
8
BLACK
6
CONTINUOUS
10
0.513321
20
-0.164557
11
0.511007
21
-0.165309
0
LINE
8
BLACK
6
CONTINUOUS
10
0.511007
20
-0.165309
11
0.48176
21
-0.165309
0
LINE
8
BLACK
6
CONTINUOUS
10
0.48176
20
-0.165309
11
0.480884
21
-0.165024
0
LINE
8
BLACK
6
CONTINUOUS
10
0.480884
20
-0.165024
11
0.479973
21
-0.16488
0
LINE
8
BLACK
6
CONTINUOUS
10
0.479973
20
-0.16488
11
0.479748
21
-0.164656
0
LINE
8
BLACK
6
CONTINUOUS
10
0.479748
20
-0.164656
11
0.479446
21
-0.164557
0
LINE
8
BLACK
6
CONTINUOUS
10
0.479446
20
-0.164557
11
0.478904
21
-0.163812
0
LINE
8
BLACK
6
CONTINUOUS
10
0.478904
20
-0.163812
11
0.478252
21
-0.16316
0
LINE
8
BLACK
6
CONTINUOUS
10
0.478252
20
-0.16316
11
0.478203
21
-0.162846
0
LINE
8
BLACK
6
CONTINUOUS
10
0.478203
20
-0.162846
11
0.478016
21
-0.162589
0
LINE
8
BLACK
6
CONTINUOUS
10
0.478016
20
-0.162589
11
0.478016
21
-0.161667
0
LINE
8
BLACK
6
CONTINUOUS
10
0.478016
20
-0.161667
11
0.477872
21
-0.160756
0
LINE
8
BLACK
6
CONTINUOUS
10
0.477872
20
-0.160756
11
0.478016
21
-0.160473
0
LINE
8
BLACK
6
CONTINUOUS
10
0.478016
20
-0.160473
11
0.478016
21
-0.160156
0
LINE
8
BLACK
6
CONTINUOUS
10
0.478016
20
-0.160156
11
0.478558
21
-0.15941
0
LINE
8
BLACK
6
CONTINUOUS
10
0.478558
20
-0.15941
11
0.478976
21
-0.158588
0
LINE
8
BLACK
6
CONTINUOUS
10
0.478976
20
-0.158588
11
0.505316
21
-0.132249
0
LINE
8
BLACK
6
CONTINUOUS
10
0.505316
20
-0.132249
11
0.50707
21
-0.126988
0
LINE
8
BLACK
6
CONTINUOUS
10
0.50707
20
-0.126988
11
0.50707
21
-0.124057
0
LINE
8
BLACK
6
CONTINUOUS
10
0.50707
20
-0.124057
11
0.505521
21
-0.12096
0
LINE
8
BLACK
6
CONTINUOUS
10
0.505521
20
-0.12096
11
0.504175
21
-0.119614
0
LINE
8
BLACK
6
CONTINUOUS
10
0.504175
20
-0.119614
11
0.501078
21
-0.118065
0
LINE
8
BLACK
6
CONTINUOUS
10
0.501078
20
-0.118065
11
0.491689
21
-0.118065
0
LINE
8
BLACK
6
CONTINUOUS
10
0.491689
20
-0.118065
11
0.488592
21
-0.119614
0
LINE
8
BLACK
6
CONTINUOUS
10
0.488592
20
-0.119614
11
0.486794
21
-0.121412
0
LINE
8
BLACK
6
CONTINUOUS
10
0.486794
20
-0.121412
11
0.484626
21
-0.122516
0
LINE
8
BLACK
6
CONTINUOUS
10
0.484626
20
-0.122516
11
0.482223
21
-0.122136
0
LINE
8
BLACK
6
CONTINUOUS
10
0.482223
20
-0.122136
11
0.480502
21
-0.120415
0
LINE
8
BLACK
6
CONTINUOUS
10
0.480502
20
-0.120415
11
0.480122
21
-0.118012
0
LINE
8
BLACK
6
CONTINUOUS
10
0.480122
20
-0.118012
11
0.481226
21
-0.115844
0
LINE
8
BLACK
6
CONTINUOUS
10
0.481226
20
-0.115844
11
0.483476
21
-0.113594
0
LINE
8
BLACK
6
CONTINUOUS
10
0.483476
20
-0.113594
11
0.484045
21
-0.113304
0
LINE
8
BLACK
6
CONTINUOUS
10
0.484045
20
-0.113304
11
0.484499
21
-0.112857
0
LINE
8
BLACK
6
CONTINUOUS
10
0.484499
20
-0.112857
11
0.488999
21
-0.110607
0
LINE
8
BLACK
6
CONTINUOUS
10
0.488999
20
-0.110607
11
0.489896
21
-0.110472
0
LINE
8
BLACK
6
CONTINUOUS
10
0.489896
20
-0.110472
11
0.490759
21
-0.110191
0
LINE
8
BLACK
6
CONTINUOUS
10
0.490759
20
-0.110191
11
0.502008
21
-0.110191
0
LINE
8
BLACK
6
CONTINUOUS
10
0.502008
20
-0.110191
11
0.502871
21
-0.110472
0
LINE
8
BLACK
6
CONTINUOUS
10
0.545616
20
-0.110472
11
0.546513
21
-0.110607
0
LINE
8
BLACK
6
CONTINUOUS
10
0.546513
20
-0.110607
11
0.551013
21
-0.112857
0
LINE
8
BLACK
6
CONTINUOUS
10
0.551013
20
-0.112857
11
0.551467
21
-0.113304
0
LINE
8
BLACK
6
CONTINUOUS
10
0.551467
20
-0.113304
11
0.552036
21
-0.113594
0
LINE
8
BLACK
6
CONTINUOUS
10
0.552036
20
-0.113594
11
0.554286
21
-0.115844
0
LINE
8
BLACK
6
CONTINUOUS
10
0.554286
20
-0.115844
11
0.554575
21
-0.116412
0
LINE
8
BLACK
6
CONTINUOUS
10
0.554575
20
-0.116412
11
0.555023
21
-0.116867
0
LINE
8
BLACK
6
CONTINUOUS
10
0.555023
20
-0.116867
11
0.557273
21
-0.121366
0
LINE
8
BLACK
6
CONTINUOUS
10
0.557273
20
-0.121366
11
0.557338
21
-0.1218
0
LINE
8
BLACK
6
CONTINUOUS
10
0.557338
20
-0.1218
11
0.557571
21
-0.122172
0
LINE
8
BLACK
6
CONTINUOUS
10
0.557571
20
-0.122172
11
0.559821
21
-0.131171
0
LINE
8
BLACK
6
CONTINUOUS
10
0.559821
20
-0.131171
11
0.559787
21
-0.13166
0
LINE
8
BLACK
6
CONTINUOUS
10
0.559787
20
-0.13166
11
0.559938
21
-0.132126
0
LINE
8
BLACK
6
CONTINUOUS
10
0.559938
20
-0.132126
11
0.559938
21
-0.143375
0
LINE
8
BLACK
6
CONTINUOUS
10
0.559938
20
-0.143375
11
0.559787
21
-0.143841
0
LINE
8
BLACK
6
CONTINUOUS
10
0.559787
20
-0.143841
11
0.559821
21
-0.144329
0
LINE
8
BLACK
6
CONTINUOUS
10
0.559821
20
-0.144329
11
0.557571
21
-0.153328
0
LINE
8
BLACK
6
CONTINUOUS
10
0.557571
20
-0.153328
11
0.557338
21
-0.1537
0
LINE
8
BLACK
6
CONTINUOUS
10
0.557338
20
-0.1537
11
0.557273
21
-0.154134
0
LINE
8
BLACK
6
CONTINUOUS
10
0.557273
20
-0.154134
11
0.555023
21
-0.158634
0
LINE
8
BLACK
6
CONTINUOUS
10
0.555023
20
-0.158634
11
0.554575
21
-0.159088
0
LINE
8
BLACK
6
CONTINUOUS
10
0.554575
20
-0.159088
11
0.554286
21
-0.159657
0
LINE
8
BLACK
6
CONTINUOUS
10
0.554286
20
-0.159657
11
0.552036
21
-0.161906
0
LINE
8
BLACK
6
CONTINUOUS
10
0.552036
20
-0.161906
11
0.551467
21
-0.162196
0
LINE
8
BLACK
6
CONTINUOUS
10
0.551467
20
-0.162196
11
0.551013
21
-0.162644
0
LINE
8
BLACK
6
CONTINUOUS
10
0.551013
20
-0.162644
11
0.546513
21
-0.164894
0
LINE
8
BLACK
6
CONTINUOUS
10
0.546513
20
-0.164894
11
0.545616
21
-0.165029
0
LINE
8
BLACK
6
CONTINUOUS
10
0.545616
20
-0.165029
11
0.544753
21
-0.165309
0
LINE
8
BLACK
6
CONTINUOUS
10
0.544753
20
-0.165309
11
0.540253
21
-0.165309
0
LINE
8
BLACK
6
CONTINUOUS
10
0.540253
20
-0.165309
11
0.53939
21
-0.165029
0
LINE
8
BLACK
6
CONTINUOUS
10
0.53939
20
-0.165029
11
0.538492
21
-0.164894
0
LINE
8
BLACK
6
CONTINUOUS
10
0.538492
20
-0.164894
11
0.533993
21
-0.162644
0
LINE
8
BLACK
6
CONTINUOUS
10
0.533993
20
-0.162644
11
0.533538
21
-0.162196
0
LINE
8
BLACK
6
CONTINUOUS
10
0.533538
20
-0.162196
11
0.53297
21
-0.161906
0
LINE
8
BLACK
6
CONTINUOUS
10
0.53297
20
-0.161906
11
0.53072
21
-0.159657
0
LINE
8
BLACK
6
CONTINUOUS
10
0.53072
20
-0.159657
11
0.53043
21
-0.159088
0
LINE
8
BLACK
6
CONTINUOUS
10
0.53043
20
-0.159088
11
0.529983
21
-0.158634
0
LINE
8
BLACK
6
CONTINUOUS
10
0.529983
20
-0.158634
11
0.527733
21
-0.154134
0
LINE
8
BLACK
6
CONTINUOUS
10
0.527733
20
-0.154134
11
0.527667
21
-0.1537
0
LINE
8
BLACK
6
CONTINUOUS
10
0.527667
20
-0.1537
11
0.527435
21
-0.153328
0
LINE
8
BLACK
6
CONTINUOUS
10
0.527435
20
-0.153328
11
0.525185
21
-0.144329
0
LINE
8
BLACK
6
CONTINUOUS
10
0.525185
20
-0.144329
11
0.525219
21
-0.143841
0
LINE
8
BLACK
6
CONTINUOUS
10
0.525219
20
-0.143841
11
0.525067
21
-0.143375
0
LINE
8
BLACK
6
CONTINUOUS
10
0.525067
20
-0.143375
11
0.525067
21
-0.132126
0
LINE
8
BLACK
6
CONTINUOUS
10
0.525067
20
-0.132126
11
0.525219
21
-0.13166
0
LINE
8
BLACK
6
CONTINUOUS
10
0.525219
20
-0.13166
11
0.525185
21
-0.131171
0
LINE
8
BLACK
6
CONTINUOUS
10
0.525185
20
-0.131171
11
0.527435
21
-0.122172
0
LINE
8
BLACK
6
CONTINUOUS
10
0.527435
20
-0.122172
11
0.527667
21
-0.1218
0
LINE
8
BLACK
6
CONTINUOUS
10
0.527667
20
-0.1218
11
0.527733
21
-0.121366
0
LINE
8
BLACK
6
CONTINUOUS
10
0.527733
20
-0.121366
11
0.529983
21
-0.116867
0
LINE
8
BLACK
6
CONTINUOUS
10
0.529983
20
-0.116867
11
0.53043
21
-0.116412
0
LINE
8
BLACK
6
CONTINUOUS
10
0.53043
20
-0.116412
11
0.53072
21
-0.115844
0
LINE
8
BLACK
6
CONTINUOUS
10
0.53072
20
-0.115844
11
0.53297
21
-0.113594
0
LINE
8
BLACK
6
CONTINUOUS
10
0.53297
20
-0.113594
11
0.533538
21
-0.113304
0
LINE
8
BLACK
6
CONTINUOUS
10
0.533538
20
-0.113304
11
0.533993
21
-0.112857
0
LINE
8
BLACK
6
CONTINUOUS
10
0.533993
20
-0.112857
11
0.538492
21
-0.110607
0
LINE
8
BLACK
6
CONTINUOUS
10
0.538492
20
-0.110607
11
0.53939
21
-0.110472
0
LINE
8
BLACK
6
CONTINUOUS
10
0.53939
20
-0.110472
11
0.540253
21
-0.110191
0
LINE
8
BLACK
6
CONTINUOUS
10
0.540253
20
-0.110191
11
0.544753
21
-0.110191
0
LINE
8
BLACK
6
CONTINUOUS
10
0.544753
20
-0.110191
11
0.545616
21
-0.110472
0
LINE
8
BLACK
6
CONTINUOUS
10
0.541183
20
-0.118065
11
0.538086
21
-0.119614
0
LINE
8
BLACK
6
CONTINUOUS
10
0.538086
20
-0.119614
11
0.53674
21
-0.12096
0
LINE
8
BLACK
6
CONTINUOUS
10
0.53674
20
-0.12096
11
0.534969
21
-0.124501
0
LINE
8
BLACK
6
CONTINUOUS
10
0.534969
20
-0.124501
11
0.532941
21
-0.132611
0
LINE
8
BLACK
6
CONTINUOUS
10
0.532941
20
-0.132611
11
0.532941
21
-0.14289
0
LINE
8
BLACK
6
CONTINUOUS
10
0.532941
20
-0.14289
11
0.534969
21
-0.150999
0
LINE
8
BLACK
6
CONTINUOUS
10
0.534969
20
-0.150999
11
0.53674
21
-0.154541
0
LINE
8
BLACK
6
CONTINUOUS
10
0.53674
20
-0.154541
11
0.538086
21
-0.155887
0
LINE
8
BLACK
6
CONTINUOUS
10
0.538086
20
-0.155887
11
0.541183
21
-0.157435
0
LINE
8
BLACK
6
CONTINUOUS
10
0.541183
20
-0.157435
11
0.543823
21
-0.157435
0
LINE
8
BLACK
6
CONTINUOUS
10
0.543823
20
-0.157435
11
0.54692
21
-0.155887
0
LINE
8
BLACK
6
CONTINUOUS
10
0.54692
20
-0.155887
11
0.548266
21
-0.154541
0
LINE
8
BLACK
6
CONTINUOUS
10
0.548266
20
-0.154541
11
0.550037
21
-0.150999
0
LINE
8
BLACK
6
CONTINUOUS
10
0.550037
20
-0.150999
11
0.552064
21
-0.14289
0
LINE
8
BLACK
6
CONTINUOUS
10
0.552064
20
-0.14289
11
0.552064
21
-0.132611
0
LINE
8
BLACK
6
CONTINUOUS
10
0.552064
20
-0.132611
11
0.550037
21
-0.124501
0
LINE
8
BLACK
6
CONTINUOUS
10
0.550037
20
-0.124501
11
0.548266
21
-0.12096
0
LINE
8
BLACK
6
CONTINUOUS
10
0.548266
20
-0.12096
11
0.54692
21
-0.119614
0
LINE
8
BLACK
6
CONTINUOUS
10
0.54692
20
-0.119614
11
0.543823
21
-0.118065
0
LINE
8
BLACK
6
CONTINUOUS
10
0.543823
20
-0.118065
11
0.541183
21
-0.118065
0
LINE
8
BLACK
6
CONTINUOUS
10
0.162785
20
-0.0837871
11
0.164215
21
-0.0857556
0
LINE
8
BLACK
6
CONTINUOUS
10
0.164215
20
-0.0857556
11
0.164215
21
-0.0881889
0
LINE
8
BLACK
6
CONTINUOUS
10
0.164215
20
-0.0881889
11
0.162785
21
-0.0901574
0
LINE
8
BLACK
6
CONTINUOUS
10
0.162785
20
-0.0901574
11
0.160471
21
-0.0909093
0
LINE
8
BLACK
6
CONTINUOUS
10
0.160471
20
-0.0909093
11
0.140036
21
-0.0909093
0
LINE
8
BLACK
6
CONTINUOUS
10
0.140036
20
-0.0909093
11
0.140036
21
-0.107407
0
LINE
8
BLACK
6
CONTINUOUS
10
0.140036
20
-0.107407
11
0.153159
21
-0.107407
0
LINE
8
BLACK
6
CONTINUOUS
10
0.153159
20
-0.107407
11
0.155473
21
-0.108159
0
LINE
8
BLACK
6
CONTINUOUS
10
0.155473
20
-0.108159
11
0.156903
21
-0.110128
0
LINE
8
BLACK
6
CONTINUOUS
10
0.156903
20
-0.110128
11
0.156903
21
-0.112561
0
LINE
8
BLACK
6
CONTINUOUS
10
0.156903
20
-0.112561
11
0.155473
21
-0.114529
0
LINE
8
BLACK
6
CONTINUOUS
10
0.155473
20
-0.114529
11
0.153159
21
-0.115281
0
LINE
8
BLACK
6
CONTINUOUS
10
0.153159
20
-0.115281
11
0.140036
21
-0.115281
0
LINE
8
BLACK
6
CONTINUOUS
10
0.140036
20
-0.115281
11
0.140036
21
-0.134216
0
LINE
8
BLACK
6
CONTINUOUS
10
0.140036
20
-0.134216
11
0.160471
21
-0.134216
0
LINE
8
BLACK
6
CONTINUOUS
10
0.160471
20
-0.134216
11
0.162785
21
-0.134968
0
LINE
8
BLACK
6
CONTINUOUS
10
0.162785
20
-0.134968
11
0.164215
21
-0.136937
0
LINE
8
BLACK
6
CONTINUOUS
10
0.164215
20
-0.136937
11
0.164215
21
-0.13937
0
LINE
8
BLACK
6
CONTINUOUS
10
0.164215
20
-0.13937
11
0.162785
21
-0.141338
0
LINE
8
BLACK
6
CONTINUOUS
10
0.162785
20
-0.141338
11
0.160471
21
-0.14209
0
LINE
8
BLACK
6
CONTINUOUS
10
0.160471
20
-0.14209
11
0.136099
21
-0.14209
0
LINE
8
BLACK
6
CONTINUOUS
10
0.136099
20
-0.14209
11
0.135506
21
-0.141898
0
LINE
8
BLACK
6
CONTINUOUS
10
0.135506
20
-0.141898
11
0.134882
21
-0.141898
0
LINE
8
BLACK
6
CONTINUOUS
10
0.134882
20
-0.141898
11
0.134377
21
-0.141531
0
LINE
8
BLACK
6
CONTINUOUS
10
0.134377
20
-0.141531
11
0.133784
21
-0.141338
0
LINE
8
BLACK
6
CONTINUOUS
10
0.133784
20
-0.141338
11
0.133418
21
-0.140834
0
LINE
8
BLACK
6
CONTINUOUS
10
0.133418
20
-0.140834
11
0.132913
21
-0.140467
0
LINE
8
BLACK
6
CONTINUOUS
10
0.132913
20
-0.140467
11
0.132721
21
-0.139874
0
LINE
8
BLACK
6
CONTINUOUS
10
0.132721
20
-0.139874
11
0.132354
21
-0.13937
0
LINE
8
BLACK
6
CONTINUOUS
10
0.132354
20
-0.13937
11
0.132354
21
-0.138746
0
LINE
8
BLACK
6
CONTINUOUS
10
0.132354
20
-0.138746
11
0.132162
21
-0.138153
0
LINE
8
BLACK
6
CONTINUOUS
10
0.132162
20
-0.138153
11
0.132162
21
-0.0869722
0
LINE
8
BLACK
6
CONTINUOUS
10
0.132162
20
-0.0869722
11
0.132354
21
-0.0863792
0
LINE
8
BLACK
6
CONTINUOUS
10
0.132354
20
-0.0863792
11
0.132354
21
-0.0857556
0
LINE
8
BLACK
6
CONTINUOUS
10
0.132354
20
-0.0857556
11
0.132721
21
-0.0852511
0
LINE
8
BLACK
6
CONTINUOUS
10
0.132721
20
-0.0852511
11
0.132913
21
-0.0846581
0
LINE
8
BLACK
6
CONTINUOUS
10
0.132913
20
-0.0846581
11
0.133418
21
-0.0842916
0
LINE
8
BLACK
6
CONTINUOUS
10
0.133418
20
-0.0842916
11
0.133784
21
-0.0837871
0
LINE
8
BLACK
6
CONTINUOUS
10
0.133784
20
-0.0837871
11
0.134377
21
-0.0835944
0
LINE
8
BLACK
6
CONTINUOUS
10
0.134377
20
-0.0835944
11
0.134882
21
-0.0832279
0
LINE
8
BLACK
6
CONTINUOUS
10
0.134882
20
-0.0832279
11
0.135506
21
-0.0832279
0
LINE
8
BLACK
6
CONTINUOUS
10
0.135506
20
-0.0832279
11
0.136099
21
-0.0830352
0
LINE
8
BLACK
6
CONTINUOUS
10
0.136099
20
-0.0830352
11
0.160471
21
-0.0830352
0
LINE
8
BLACK
6
CONTINUOUS
10
0.160471
20
-0.0830352
11
0.162785
21
-0.0837871
0
LINE
8
BLACK
6
CONTINUOUS
10
-0.00451083
20
-0.0846581
11
-0.00375894
21
-0.0869722
0
LINE
8
BLACK
6
CONTINUOUS
10
-0.00375894
20
-0.0869722
11
-0.00375894
21
-0.127475
0
LINE
8
BLACK
6
CONTINUOUS
10
-0.00375894
20
-0.127475
11
-0.00202307
21
-0.130947
0
LINE
8
BLACK
6
CONTINUOUS
10
-0.00202307
20
-0.130947
11
-0.000489409
21
-0.13248
0
LINE
8
BLACK
6
CONTINUOUS
10
-0.000489409
20
-0.13248
11
0.00298228
21
-0.134216
0
LINE
8
BLACK
6
CONTINUOUS
10
0.00298228
20
-0.134216
11
0.0108722
21
-0.134216
0
LINE
8
BLACK
6
CONTINUOUS
10
0.0108722
20
-0.134216
11
0.0143439
21
-0.132481
0
LINE
8
BLACK
6
CONTINUOUS
10
0.0143439
20
-0.132481
11
0.0158776
21
-0.130947
0
LINE
8
BLACK
6
CONTINUOUS
10
0.0158776
20
-0.130947
11
0.0176134
21
-0.127475
0
LINE
8
BLACK
6
CONTINUOUS
10
0.0176134
20
-0.127475
11
0.0176134
21
-0.0869722
0
LINE
8
BLACK
6
CONTINUOUS
10
0.0176134
20
-0.0869722
11
0.0183653
21
-0.0846581
0
LINE
8
BLACK
6
CONTINUOUS
10
0.0183653
20
-0.0846581
11
0.0203338
21
-0.0832279
0
LINE
8
BLACK
6
CONTINUOUS
10
0.0203338
20
-0.0832279
11
0.022767
21
-0.0832279
0
LINE
8
BLACK
6
CONTINUOUS
10
0.022767
20
-0.0832279
11
0.0247355
21
-0.0846581
0
LINE
8
BLACK
6
CONTINUOUS
10
0.0247355
20
-0.0846581
11
0.0254874
21
-0.0869722
0
LINE
8
BLACK
6
CONTINUOUS
10
0.0254874
20
-0.0869722
11
0.0254874
21
-0.128405
0
LINE
8
BLACK
6
CONTINUOUS
10
0.0254874
20
-0.128405
11
0.0252069
21
-0.129268
0
LINE
8
BLACK
6
CONTINUOUS
10
0.0252069
20
-0.129268
11
0.0250718
21
-0.130165
0
LINE
8
BLACK
6
CONTINUOUS
10
0.0250718
20
-0.130165
11
0.0226346
21
-0.13504
0
LINE
8
BLACK
6
CONTINUOUS
10
0.0226346
20
-0.13504
11
0.0221869
21
-0.135494
0
LINE
8
BLACK
6
CONTINUOUS
10
0.0221869
20
-0.135494
11
0.0218971
21
-0.136063
0
LINE
8
BLACK
6
CONTINUOUS
10
0.0218971
20
-0.136063
11
0.0194599
21
-0.1385
0
LINE
8
BLACK
6
CONTINUOUS
10
0.0194599
20
-0.1385
11
0.0188914
21
-0.13879
0
LINE
8
BLACK
6
CONTINUOUS
10
0.0188914
20
-0.13879
11
0.0184367
21
-0.139238
0
LINE
8
BLACK
6
CONTINUOUS
10
0.0184367
20
-0.139238
11
0.0135623
21
-0.141675
0
LINE
8
BLACK
6
CONTINUOUS
10
0.0135623
20
-0.141675
11
0.0126648
21
-0.14181
0
LINE
8
BLACK
6
CONTINUOUS
10
0.0126648
20
-0.14181
11
0.0118016
21
-0.14209
0
LINE
8
BLACK
6
CONTINUOUS
10
0.0118016
20
-0.14209
11
0.00205283
21
-0.14209
0
LINE
8
BLACK
6
CONTINUOUS
10
0.00205283
20
-0.14209
11
0.00118972
21
-0.14181
0
LINE
8
BLACK
6
CONTINUOUS
10
0.00118972
20
-0.14181
11
0.000292126
21
-0.141675
0
LINE
8
BLACK
6
CONTINUOUS
10
0.000292126
20
-0.141675
11
-0.00458224
21
-0.139238
0
LINE
8
BLACK
6
CONTINUOUS
10
-0.00458224
20
-0.139238
11
-0.00503689
21
-0.13879
0
LINE
8
BLACK
6
CONTINUOUS
10
-0.00503689
20
-0.13879
11
-0.00560543
21
-0.1385
0
LINE
8
BLACK
6
CONTINUOUS
10
-0.00560543
20
-0.1385
11
-0.00804264
21
-0.136063
0
LINE
8
BLACK
6
CONTINUOUS
10
-0.00804264
20
-0.136063
11
-0.00833232
21
-0.135494
0
LINE
8
BLACK
6
CONTINUOUS
10
-0.00833232
20
-0.135494
11
-0.00878012
21
-0.13504
0
LINE
8
BLACK
6
CONTINUOUS
10
-0.00878012
20
-0.13504
11
-0.0112173
21
-0.130165
0
LINE
8
BLACK
6
CONTINUOUS
10
-0.0112173
20
-0.130165
11
-0.0113525
21
-0.129268
0
LINE
8
BLACK
6
CONTINUOUS
10
-0.0113525
20
-0.129268
11
-0.011633
21
-0.128405
0
LINE
8
BLACK
6
CONTINUOUS
10
-0.011633
20
-0.128405
11
-0.011633
21
-0.0869722
0
LINE
8
BLACK
6
CONTINUOUS
10
-0.011633
20
-0.0869722
11
-0.0108811
21
-0.0846581
0
LINE
8
BLACK
6
CONTINUOUS
10
-0.0108811
20
-0.0846581
11
-0.00891256
21
-0.0832279
0
LINE
8
BLACK
6
CONTINUOUS
10
-0.00891256
20
-0.0832279
11
-0.00647933
21
-0.0832279
0
LINE
8
BLACK
6
CONTINUOUS
10
-0.00647933
20
-0.0832279
11
-0.00451083
21
-0.0846581
0
LINE
8
BLACK
6
CONTINUOUS
10
0.0491075
20
-0.0846581
11
0.0498594
21
-0.0869722
0
LINE
8
BLACK
6
CONTINUOUS
10
0.0498594
20
-0.0869722
11
0.0498594
21
-0.134216
0
LINE
8
BLACK
6
CONTINUOUS
10
0.0498594
20
-0.134216
11
0.0702943
21
-0.134216
0
LINE
8
BLACK
6
CONTINUOUS
10
0.0702943
20
-0.134216
11
0.0726085
21
-0.134968
0
LINE
8
BLACK
6
CONTINUOUS
10
0.0726085
20
-0.134968
11
0.0740387
21
-0.136937
0
LINE
8
BLACK
6
CONTINUOUS
10
0.0740387
20
-0.136937
11
0.0740387
21
-0.13937
0
LINE
8
BLACK
6
CONTINUOUS
10
0.0740387
20
-0.13937
11
0.0726085
21
-0.141338
0
LINE
8
BLACK
6
CONTINUOUS
10
0.0726085
20
-0.141338
11
0.0702943
21
-0.14209
0
LINE
8
BLACK
6
CONTINUOUS
10
0.0702943
20
-0.14209
11
0.0459224
21
-0.14209
0
LINE
8
BLACK
6
CONTINUOUS
10
0.0459224
20
-0.14209
11
0.0453293
21
-0.141898
0
LINE
8
BLACK
6
CONTINUOUS
10
0.0453293
20
-0.141898
11
0.0447057
21
-0.141898
0
LINE
8
BLACK
6
CONTINUOUS
10
0.0447057
20
-0.141898
11
0.0442013
21
-0.141531
0
LINE
8
BLACK
6
CONTINUOUS
10
0.0442013
20
-0.141531
11
0.0436082
21
-0.141338
0
LINE
8
BLACK
6
CONTINUOUS
10
0.0436082
20
-0.141338
11
0.0432417
21
-0.140834
0
LINE
8
BLACK
6
CONTINUOUS
10
0.0432417
20
-0.140834
11
0.0427372
21
-0.140467
0
LINE
8
BLACK
6
CONTINUOUS
10
0.0427372
20
-0.140467
11
0.0425446
21
-0.139874
0
LINE
8
BLACK
6
CONTINUOUS
10
0.0425446
20
-0.139874
11
0.042178
21
-0.13937
0
LINE
8
BLACK
6
CONTINUOUS
10
0.042178
20
-0.13937
11
0.042178
21
-0.138746
0
LINE
8
BLACK
6
CONTINUOUS
10
0.042178
20
-0.138746
11
0.0419854
21
-0.138153
0
LINE
8
BLACK
6
CONTINUOUS
10
0.0419854
20
-0.138153
11
0.0419854
21
-0.0869722
0
LINE
8
BLACK
6
CONTINUOUS
10
0.0419854
20
-0.0869722
11
0.0427372
21
-0.0846581
0
LINE
8
BLACK
6
CONTINUOUS
10
0.0427372
20
-0.0846581
11
0.0447057
21
-0.0832279
0
LINE
8
BLACK
6
CONTINUOUS
10
0.0447057
20
-0.0832279
11
0.047139
21
-0.0832279
0
LINE
8
BLACK
6
CONTINUOUS
10
0.047139
20
-0.0832279
11
0.0491075
21
-0.0846581
0
LINE
8
BLACK
6
CONTINUOUS
10
0.107459
20
-0.0832324
11
0.108097
21
-0.0832373
0
LINE
8
BLACK
6
CONTINUOUS
10
0.108097
20
-0.0832373
11
0.115409
21
-0.0856745
0
LINE
8
BLACK
6
CONTINUOUS
10
0.115409
20
-0.0856745
11
0.117366
21
-0.0871196
0
LINE
8
BLACK
6
CONTINUOUS
10
0.117366
20
-0.0871196
11
0.118101
21
-0.0894393
0
LINE
8
BLACK
6
CONTINUOUS
10
0.118101
20
-0.0894393
11
0.117331
21
-0.0917477
0
LINE
8
BLACK
6
CONTINUOUS
10
0.117331
20
-0.0917477
11
0.115352
21
-0.0931629
0
LINE
8
BLACK
6
CONTINUOUS
10
0.115352
20
-0.0931629
11
0.112919
21
-0.0931444
0
LINE
8
BLACK
6
CONTINUOUS
10
0.112919
20
-0.0931444
11
0.106213
21
-0.0909093
0
LINE
8
BLACK
6
CONTINUOUS
10
0.106213
20
-0.0909093
11
0.0955957
21
-0.0909093
0
LINE
8
BLACK
6
CONTINUOUS
10
0.0955957
20
-0.0909093
11
0.0921239
21
-0.0926452
0
LINE
8
BLACK
6
CONTINUOUS
10
0.0921239
20
-0.0926452
11
0.0905904
21
-0.0941787
0
LINE
8
BLACK
6
CONTINUOUS
10
0.0905904
20
-0.0941787
11
0.0888545
21
-0.0976504
0
LINE
8
BLACK
6
CONTINUOUS
10
0.0888545
20
-0.0976504
11
0.0888545
21
-0.100666
0
LINE
8
BLACK
6
CONTINUOUS
10
0.0888545
20
-0.100666
11
0.0905903
21
-0.104138
0
LINE
8
BLACK
6
CONTINUOUS
10
0.0905903
20
-0.104138
11
0.0921241
21
-0.105671
0
LINE
8
BLACK
6
CONTINUOUS
10
0.0921241
20
-0.105671
11
0.0960404
21
-0.10763
0
LINE
8
BLACK
6
CONTINUOUS
10
0.0960404
20
-0.10763
11
0.10537
21
-0.109962
0
LINE
8
BLACK
6
CONTINUOUS
10
0.10537
20
-0.109962
11
0.105742
21
-0.110195
0
LINE
8
BLACK
6
CONTINUOUS
10
0.105742
20
-0.110195
11
0.106176
21
-0.11026
0
LINE
8
BLACK
6
CONTINUOUS
10
0.106176
20
-0.11026
11
0.11105
21
-0.112697
0
LINE
8
BLACK
6
CONTINUOUS
10
0.11105
20
-0.112697
11
0.111505
21
-0.113145
0
LINE
8
BLACK
6
CONTINUOUS
10
0.111505
20
-0.113145
11
0.112073
21
-0.113435
0
LINE
8
BLACK
6
CONTINUOUS
10
0.112073
20
-0.113435
11
0.114511
21
-0.115872
0
LINE
8
BLACK
6
CONTINUOUS
10
0.114511
20
-0.115872
11
0.1148
21
-0.116441
0
LINE
8
BLACK
6
CONTINUOUS
10
0.1148
20
-0.116441
11
0.115248
21
-0.116895
0
LINE
8
BLACK
6
CONTINUOUS
10
0.115248
20
-0.116895
11
0.117685
21
-0.121769
0
LINE
8
BLACK
6
CONTINUOUS
10
0.117685
20
-0.121769
11
0.11782
21
-0.122667
0
LINE
8
BLACK
6
CONTINUOUS
10
0.11782
20
-0.122667
11
0.118101
21
-0.12353
0
LINE
8
BLACK
6
CONTINUOUS
10
0.118101
20
-0.12353
11
0.118101
21
-0.128405
0
LINE
8
BLACK
6
CONTINUOUS
10
0.118101
20
-0.128405
11
0.11782
21
-0.129268
0
LINE
8
BLACK
6
CONTINUOUS
10
0.11782
20
-0.129268
11
0.117685
21
-0.130165
0
LINE
8
BLACK
6
CONTINUOUS
10
0.117685
20
-0.130165
11
0.115248
21
-0.13504
0
LINE
8
BLACK
6
CONTINUOUS
10
0.115248
20
-0.13504
11
0.1148
21
-0.135494
0
LINE
8
BLACK
6
CONTINUOUS
10
0.1148
20
-0.135494
11
0.114511
21
-0.136063
0
LINE
8
BLACK
6
CONTINUOUS
10
0.114511
20
-0.136063
11
0.112073
21
-0.1385
0
LINE
8
BLACK
6
CONTINUOUS
10
0.112073
20
-0.1385
11
0.111505
21
-0.13879
0
LINE
8
BLACK
6
CONTINUOUS
10
0.111505
20
-0.13879
11
0.11105
21
-0.139238
0
LINE
8
BLACK
6
CONTINUOUS
10
0.11105
20
-0.139238
11
0.106176
21
-0.141675
0
LINE
8
BLACK
6
CONTINUOUS
10
0.106176
20
-0.141675
11
0.105278
21
-0.14181
0
LINE
8
BLACK
6
CONTINUOUS
10
0.105278
20
-0.14181
11
0.104415
21
-0.14209
0
LINE
8
BLACK
6
CONTINUOUS
10
0.104415
20
-0.14209
11
0.0922291
21
-0.14209
0
LINE
8
BLACK
6
CONTINUOUS
10
0.0922291
20
-0.14209
11
0.0916222
21
-0.141893
0
LINE
8
BLACK
6
CONTINUOUS
10
0.0916222
20
-0.141893
11
0.0909841
21
-0.141888
0
LINE
8
BLACK
6
CONTINUOUS
10
0.0909841
20
-0.141888
11
0.0836725
21
-0.139451
0
LINE
8
BLACK
6
CONTINUOUS
10
0.0836725
20
-0.139451
11
0.0817149
21
-0.138006
0
LINE
8
BLACK
6
CONTINUOUS
10
0.0817149
20
-0.138006
11
0.0809806
21
-0.135686
0
LINE
8
BLACK
6
CONTINUOUS
10
0.0809806
20
-0.135686
11
0.08175
21
-0.133378
0
LINE
8
BLACK
6
CONTINUOUS
10
0.08175
20
-0.133378
11
0.0837293
21
-0.131963
0
LINE
8
BLACK
6
CONTINUOUS
10
0.0837293
20
-0.131963
11
0.0861625
21
-0.131981
0
LINE
8
BLACK
6
CONTINUOUS
10
0.0861625
20
-0.131981
11
0.092868
21
-0.134216
0
LINE
8
BLACK
6
CONTINUOUS
10
0.092868
20
-0.134216
11
0.103486
21
-0.134216
0
LINE
8
BLACK
6
CONTINUOUS
10
0.103486
20
-0.134216
11
0.106957
21
-0.132481
0
LINE
8
BLACK
6
CONTINUOUS
10
0.106957
20
-0.132481
11
0.108491
21
-0.130947
0
LINE
8
BLACK
6
CONTINUOUS
10
0.108491
20
-0.130947
11
0.110227
21
-0.127475
0
LINE
8
BLACK
6
CONTINUOUS
10
0.110227
20
-0.127475
11
0.110227
21
-0.12446
0
LINE
8
BLACK
6
CONTINUOUS
10
0.110227
20
-0.12446
11
0.108491
21
-0.120988
0
LINE
8
BLACK
6
CONTINUOUS
10
0.108491
20
-0.120988
11
0.106957
21
-0.119454
0
LINE
8
BLACK
6
CONTINUOUS
10
0.106957
20
-0.119454
11
0.103041
21
-0.117496
0
LINE
8
BLACK
6
CONTINUOUS
10
0.103041
20
-0.117496
11
0.0937114
21
-0.115164
0
LINE
8
BLACK
6
CONTINUOUS
10
0.0937114
20
-0.115164
11
0.0933394
21
-0.114931
0
LINE
8
BLACK
6
CONTINUOUS
10
0.0933394
20
-0.114931
11
0.0929056
21
-0.114866
0
LINE
8
BLACK
6
CONTINUOUS
10
0.0929056
20
-0.114866
11
0.0880312
21
-0.112428
0
LINE
8
BLACK
6
CONTINUOUS
10
0.0880312
20
-0.112428
11
0.0875766
21
-0.111981
0
LINE
8
BLACK
6
CONTINUOUS
10
0.0875766
20
-0.111981
11
0.087008
21
-0.111691
0
LINE
8
BLACK
6
CONTINUOUS
10
0.087008
20
-0.111691
11
0.0845708
21
-0.109254
0
LINE
8
BLACK
6
CONTINUOUS
10
0.0845708
20
-0.109254
11
0.0842811
21
-0.108685
0
LINE
8
BLACK
6
CONTINUOUS
10
0.0842811
20
-0.108685
11
0.0838333
21
-0.108231
0
LINE
8
BLACK
6
CONTINUOUS
10
0.0838333
20
-0.108231
11
0.0813961
21
-0.103356
0
LINE
8
BLACK
6
CONTINUOUS
10
0.0813961
20
-0.103356
11
0.0812609
21
-0.102459
0
LINE
8
BLACK
6
CONTINUOUS
10
0.0812609
20
-0.102459
11
0.0809805
21
-0.101595
0
LINE
8
BLACK
6
CONTINUOUS
10
0.0809805
20
-0.101595
11
0.0809805
21
-0.096721
0
LINE
8
BLACK
6
CONTINUOUS
10
0.0809805
20
-0.096721
11
0.0812609
21
-0.0958579
0
LINE
8
BLACK
6
CONTINUOUS
10
0.0812609
20
-0.0958579
11
0.0813961
21
-0.0949604
0
LINE
8
BLACK
6
CONTINUOUS
10
0.0813961
20
-0.0949604
11
0.0838333
21
-0.0900859
0
LINE
8
BLACK
6
CONTINUOUS
10
0.0838333
20
-0.0900859
11
0.0842811
21
-0.0896312
0
LINE
8
BLACK
6
CONTINUOUS
10
0.0842811
20
-0.0896312
11
0.0845708
21
-0.0890627
0
LINE
8
BLACK
6
CONTINUOUS
10
0.0845708
20
-0.0890627
11
0.087008
21
-0.0866256
0
LINE
8
BLACK
6
CONTINUOUS
10
0.087008
20
-0.0866256
11
0.0875765
21
-0.0863359
0
LINE
8
BLACK
6
CONTINUOUS
10
0.0875765
20
-0.0863359
11
0.0880312
21
-0.0858881
0
LINE
8
BLACK
6
CONTINUOUS
10
0.0880312
20
-0.0858881
11
0.0929056
21
-0.0834509
0
LINE
8
BLACK
6
CONTINUOUS
10
0.0929056
20
-0.0834509
11
0.0938031
21
-0.0833157
0
LINE
8
BLACK
6
CONTINUOUS
10
0.0938031
20
-0.0833157
11
0.0946663
21
-0.0830352
0
LINE
8
BLACK
6
CONTINUOUS
10
0.0946663
20
-0.0830352
11
0.106852
21
-0.0830352
0
LINE
8
BLACK
6
CONTINUOUS
10
0.106852
20
-0.0830352
11
0.107459
21
-0.0832324
0
LINE
8
BLACK
6
CONTINUOUS
10
-0.0385163
20
-0.0833157
11
-0.0376188
21
-0.0834509
0
LINE
8
BLACK
6
CONTINUOUS
10
-0.0376188
20
-0.0834509
11
-0.0327444
21
-0.0858881
0
LINE
8
BLACK
6
CONTINUOUS
10
-0.0327444
20
-0.0858881
11
-0.0322897
21
-0.0863359
0
LINE
8
BLACK
6
CONTINUOUS
10
-0.0322897
20
-0.0863359
11
-0.0317212
21
-0.0866256
0
LINE
8
BLACK
6
CONTINUOUS
10
-0.0317212
20
-0.0866256
11
-0.029284
21
-0.0890627
0
LINE
8
BLACK
6
CONTINUOUS
10
-0.029284
20
-0.0890627
11
-0.0289943
21
-0.0896313
0
LINE
8
BLACK
6
CONTINUOUS
10
-0.0289943
20
-0.0896313
11
-0.0285465
21
-0.0900859
0
LINE
8
BLACK
6
CONTINUOUS
10
-0.0285465
20
-0.0900859
11
-0.0261093
21
-0.0949604
0
LINE
8
BLACK
6
CONTINUOUS
10
-0.0261093
20
-0.0949604
11
-0.0259742
21
-0.0958578
0
LINE
8
BLACK
6
CONTINUOUS
10
-0.0259742
20
-0.0958578
11
-0.0256937
21
-0.096721
0
LINE
8
BLACK
6
CONTINUOUS
10
-0.0256937
20
-0.096721
11
-0.0256937
21
-0.104033
0
LINE
8
BLACK
6
CONTINUOUS
10
-0.0256937
20
-0.104033
11
-0.0259742
21
-0.104896
0
LINE
8
BLACK
6
CONTINUOUS
10
-0.0259742
20
-0.104896
11
-0.0261093
21
-0.105793
0
LINE
8
BLACK
6
CONTINUOUS
10
-0.0261093
20
-0.105793
11
-0.0285465
21
-0.110668
0
LINE
8
BLACK
6
CONTINUOUS
10
-0.0285465
20
-0.110668
11
-0.0289943
21
-0.111122
0
LINE
8
BLACK
6
CONTINUOUS
10
-0.0289943
20
-0.111122
11
-0.029284
21
-0.111691
0
LINE
8
BLACK
6
CONTINUOUS
10
-0.029284
20
-0.111691
11
-0.0317212
21
-0.114128
0
LINE
8
BLACK
6
CONTINUOUS
10
-0.0317212
20
-0.114128
11
-0.0322897
21
-0.114418
0
LINE
8
BLACK
6
CONTINUOUS
10
-0.0322897
20
-0.114418
11
-0.0327444
21
-0.114866
0
LINE
8
BLACK
6
CONTINUOUS
10
-0.0327444
20
-0.114866
11
-0.0376188
21
-0.117303
0
LINE
8
BLACK
6
CONTINUOUS
10
-0.0376188
20
-0.117303
11
-0.0385163
21
-0.117438
0
LINE
8
BLACK
6
CONTINUOUS
10
-0.0385163
20
-0.117438
11
-0.0393795
21
-0.117718
0
LINE
8
BLACK
6
CONTINUOUS
10
-0.0393795
20
-0.117718
11
-0.05494
21
-0.117718
0
LINE
8
BLACK
6
CONTINUOUS
10
-0.05494
20
-0.117718
11
-0.05494
21
-0.138153
0
LINE
8
BLACK
6
CONTINUOUS
10
-0.05494
20
-0.138153
11
-0.0556919
21
-0.140467
0
LINE
8
BLACK
6
CONTINUOUS
10
-0.0556919
20
-0.140467
11
-0.0576604
21
-0.141898
0
LINE
8
BLACK
6
CONTINUOUS
10
-0.0576604
20
-0.141898
11
-0.0600937
21
-0.141898
0
LINE
8
BLACK
6
CONTINUOUS
10
-0.0600937
20
-0.141898
11
-0.0620622
21
-0.140467
0
LINE
8
BLACK
6
CONTINUOUS
10
-0.0620622
20
-0.140467
11
-0.0628141
21
-0.138153
0
LINE
8
BLACK
6
CONTINUOUS
10
-0.0628141
20
-0.138153
11
-0.0628141
21
-0.0869722
0
LINE
8
BLACK
6
CONTINUOUS
10
-0.0628141
20
-0.0869722
11
-0.0626214
21
-0.0863792
0
LINE
8
BLACK
6
CONTINUOUS
10
-0.0626214
20
-0.0863792
11
-0.0626214
21
-0.0857556
0
LINE
8
BLACK
6
CONTINUOUS
10
-0.0626214
20
-0.0857556
11
-0.0622548
21
-0.0852511
0
LINE
8
BLACK
6
CONTINUOUS
10
-0.0622548
20
-0.0852511
11
-0.0620622
21
-0.0846581
0
LINE
8
BLACK
6
CONTINUOUS
10
-0.0620622
20
-0.0846581
11
-0.0615577
21
-0.0842916
0
LINE
8
BLACK
6
CONTINUOUS
10
-0.0615577
20
-0.0842916
11
-0.0611912
21
-0.0837871
0
LINE
8
BLACK
6
CONTINUOUS
10
-0.0611912
20
-0.0837871
11
-0.0605981
21
-0.0835944
0
LINE
8
BLACK
6
CONTINUOUS
10
-0.0605981
20
-0.0835944
11
-0.0600937
21
-0.0832279
0
LINE
8
BLACK
6
CONTINUOUS
10
-0.0600937
20
-0.0832279
11
-0.0594701
21
-0.0832279
0
LINE
8
BLACK
6
CONTINUOUS
10
-0.0594701
20
-0.0832279
11
-0.058877
21
-0.0830352
0
LINE
8
BLACK
6
CONTINUOUS
10
-0.058877
20
-0.0830352
11
-0.0393795
21
-0.0830352
0
LINE
8
BLACK
6
CONTINUOUS
10
-0.0393795
20
-0.0830352
11
-0.0385163
21
-0.0833157
0
LINE
8
BLACK
6
CONTINUOUS
10
-0.05494
20
-0.0909093
11
-0.05494
21
-0.109844
0
LINE
8
BLACK
6
CONTINUOUS
10
-0.05494
20
-0.109844
11
-0.0403089
21
-0.109844
0
LINE
8
BLACK
6
CONTINUOUS
10
-0.0403089
20
-0.109844
11
-0.0368372
21
-0.108109
0
LINE
8
BLACK
6
CONTINUOUS
10
-0.0368372
20
-0.108109
11
-0.0353035
21
-0.106575
0
LINE
8
BLACK
6
CONTINUOUS
10
-0.0353035
20
-0.106575
11
-0.0335677
21
-0.103103
0
LINE
8
BLACK
6
CONTINUOUS
10
-0.0335677
20
-0.103103
11
-0.0335677
21
-0.0976504
0
LINE
8
BLACK
6
CONTINUOUS
10
-0.0335677
20
-0.0976504
11
-0.0353035
21
-0.0941787
0
LINE
8
BLACK
6
CONTINUOUS
10
-0.0353035
20
-0.0941787
11
-0.0368372
21
-0.0926451
0
LINE
8
BLACK
6
CONTINUOUS
10
-0.0368372
20
-0.0926451
11
-0.0403089
21
-0.0909093
0
LINE
8
BLACK
6
CONTINUOUS
10
-0.0403089
20
-0.0909093
11
-0.05494
21
-0.0909093
0
LINE
8
BLACK
6
CONTINUOUS
10
-0.212131
20
0.0319884
11
-0.210801
21
0.0317163
0
LINE
8
BLACK
6
CONTINUOUS
10
-0.210801
20
0.0317163
11
-0.205177
21
0.0289041
0
LINE
8
BLACK
6
CONTINUOUS
10
-0.205177
20
0.0289041
11
-0.204465
21
0.0282733
0
LINE
8
BLACK
6
CONTINUOUS
10
-0.204465
20
0.0282733
11
-0.203642
21
0.0277979
0
LINE
8
BLACK
6
CONTINUOUS
10
-0.203642
20
0.0277979
11
-0.20083
21
0.0249858
0
LINE
8
BLACK
6
CONTINUOUS
10
-0.20083
20
0.0249858
11
-0.200354
21
0.0241624
0
LINE
8
BLACK
6
CONTINUOUS
10
-0.200354
20
0.0241624
11
-0.199724
21
0.0234509
0
LINE
8
BLACK
6
CONTINUOUS
10
-0.199724
20
0.0234509
11
-0.196911
21
0.0178266
0
LINE
8
BLACK
6
CONTINUOUS
10
-0.196911
20
0.0178266
11
-0.196781
21
0.0171879
0
LINE
8
BLACK
6
CONTINUOUS
10
-0.196781
20
0.0171879
11
-0.196464
21
0.0166179
0
LINE
8
BLACK
6
CONTINUOUS
10
-0.196464
20
0.0166179
11
-0.193652
21
0.00536933
0
LINE
8
BLACK
6
CONTINUOUS
10
-0.193652
20
0.00536933
11
-0.193664
21
0.00464083
0
LINE
8
BLACK
6
CONTINUOUS
10
-0.193664
20
0.00464083
11
-0.193476
21
0.00393701
0
LINE
8
BLACK
6
CONTINUOUS
10
-0.193476
20
0.00393701
11
-0.193476
21
-0.0101237
0
LINE
8
BLACK
6
CONTINUOUS
10
-0.193476
20
-0.0101237
11
-0.193664
21
-0.0108275
0
LINE
8
BLACK
6
CONTINUOUS
10
-0.193664
20
-0.0108275
11
-0.193652
21
-0.011556
0
LINE
8
BLACK
6
CONTINUOUS
10
-0.193652
20
-0.011556
11
-0.196464
21
-0.0228046
0
LINE
8
BLACK
6
CONTINUOUS
10
-0.196464
20
-0.0228046
11
-0.196781
21
-0.0233746
0
LINE
8
BLACK
6
CONTINUOUS
10
-0.196781
20
-0.0233746
11
-0.196911
21
-0.0240133
0
LINE
8
BLACK
6
CONTINUOUS
10
-0.196911
20
-0.0240133
11
-0.199724
21
-0.0296376
0
LINE
8
BLACK
6
CONTINUOUS
10
-0.199724
20
-0.0296376
11
-0.200354
21
-0.0303491
0
LINE
8
BLACK
6
CONTINUOUS
10
-0.200354
20
-0.0303491
11
-0.20083
21
-0.0311725
0
LINE
8
BLACK
6
CONTINUOUS
10
-0.20083
20
-0.0311725
11
-0.203642
21
-0.0339846
0
LINE
8
BLACK
6
CONTINUOUS
10
-0.203642
20
-0.0339846
11
-0.204465
21
-0.03446
0
LINE
8
BLACK
6
CONTINUOUS
10
-0.204465
20
-0.03446
11
-0.205177
21
-0.0350908
0
LINE
8
BLACK
6
CONTINUOUS
10
-0.205177
20
-0.0350908
11
-0.210801
21
-0.037903
0
LINE
8
BLACK
6
CONTINUOUS
10
-0.210801
20
-0.037903
11
-0.212131
21
-0.0381751
0
LINE
8
BLACK
6
CONTINUOUS
10
-0.212131
20
-0.0381751
11
-0.213442
21
-0.0385264
0
LINE
8
BLACK
6
CONTINUOUS
10
-0.213442
20
-0.0385264
11
-0.219066
21
-0.0385264
0
LINE
8
BLACK
6
CONTINUOUS
10
-0.219066
20
-0.0385264
11
-0.220377
21
-0.0381751
0
LINE
8
BLACK
6
CONTINUOUS
10
-0.220377
20
-0.0381751
11
-0.221707
21
-0.037903
0
LINE
8
BLACK
6
CONTINUOUS
10
-0.221707
20
-0.037903
11
-0.227332
21
-0.0350908
0
LINE
8
BLACK
6
CONTINUOUS
10
-0.227332
20
-0.0350908
11
-0.228043
21
-0.03446
0
LINE
8
BLACK
6
CONTINUOUS
10
-0.228043
20
-0.03446
11
-0.228866
21
-0.0339846
0
LINE
8
BLACK
6
CONTINUOUS
10
-0.228866
20
-0.0339846
11
-0.231679
21
-0.0311725
0
LINE
8
BLACK
6
CONTINUOUS
10
-0.231679
20
-0.0311725
11
-0.232154
21
-0.0303491
0
LINE
8
BLACK
6
CONTINUOUS
10
-0.232154
20
-0.0303491
11
-0.232785
21
-0.0296376
0
LINE
8
BLACK
6
CONTINUOUS
10
-0.232785
20
-0.0296376
11
-0.235597
21
-0.0240133
0
LINE
8
BLACK
6
CONTINUOUS
10
-0.235597
20
-0.0240133
11
-0.235728
21
-0.0233746
0
LINE
8
BLACK
6
CONTINUOUS
10
-0.235728
20
-0.0233746
11
-0.236044
21
-0.0228046
0
LINE
8
BLACK
6
CONTINUOUS
10
-0.236044
20
-0.0228046
11
-0.238856
21
-0.011556
0
LINE
8
BLACK
6
CONTINUOUS
10
-0.238856
20
-0.011556
11
-0.238844
21
-0.0108275
0
LINE
8
BLACK
6
CONTINUOUS
10
-0.238844
20
-0.0108275
11
-0.239033
21
-0.0101237
0
LINE
8
BLACK
6
CONTINUOUS
10
-0.239033
20
-0.0101237
11
-0.239033
21
0.00393701
0
LINE
8
BLACK
6
CONTINUOUS
10
-0.239033
20
0.00393701
11
-0.238844
21
0.00464083
0
LINE
8
BLACK
6
CONTINUOUS
10
-0.238844
20
0.00464083
11
-0.238856
21
0.00536929
0
LINE
8
BLACK
6
CONTINUOUS
10
-0.238856
20
0.00536929
11
-0.236044
21
0.0166179
0
LINE
8
BLACK
6
CONTINUOUS
10
-0.236044
20
0.0166179
11
-0.235728
21
0.0171879
0
LINE
8
BLACK
6
CONTINUOUS
10
-0.235728
20
0.0171879
11
-0.235597
21
0.0178267
0
LINE
8
BLACK
6
CONTINUOUS
10
-0.235597
20
0.0178267
11
-0.232785
21
0.0234509
0
LINE
8
BLACK
6
CONTINUOUS
10
-0.232785
20
0.0234509
11
-0.232154
21
0.0241624
0
LINE
8
BLACK
6
CONTINUOUS
10
-0.232154
20
0.0241624
11
-0.231679
21
0.0249858
0
LINE
8
BLACK
6
CONTINUOUS
10
-0.231679
20
0.0249858
11
-0.228866
21
0.0277979
0
LINE
8
BLACK
6
CONTINUOUS
10
-0.228866
20
0.0277979
11
-0.228043
21
0.0282733
0
LINE
8
BLACK
6
CONTINUOUS
10
-0.228043
20
0.0282733
11
-0.227332
21
0.0289041
0
LINE
8
BLACK
6
CONTINUOUS
10
-0.227332
20
0.0289041
11
-0.221707
21
0.0317163
0
LINE
8
BLACK
6
CONTINUOUS
10
-0.221707
20
0.0317163
11
-0.220377
21
0.0319884
0
LINE
8
BLACK
6
CONTINUOUS
10
-0.220377
20
0.0319884
11
-0.219066
21
0.0323397
0
LINE
8
BLACK
6
CONTINUOUS
10
-0.219066
20
0.0323397
11
-0.213442
21
0.0323397
0
LINE
8
BLACK
6
CONTINUOUS
10
-0.213442
20
0.0323397
11
-0.212131
21
0.0319884
0
LINE
8
BLACK
6
CONTINUOUS
10
-0.217672
20
0.0205287
11
-0.221192
21
0.0187686
0
LINE
8
BLACK
6
CONTINUOUS
10
-0.221192
20
0.0187686
11
-0.222649
21
0.0173117
0
LINE
8
BLACK
6
CONTINUOUS
10
-0.222649
20
0.0173117
11
-0.224743
21
0.0131244
0
LINE
8
BLACK
6
CONTINUOUS
10
-0.224743
20
0.0131244
11
-0.227222
21
0.00321008
0
LINE
8
BLACK
6
CONTINUOUS
10
-0.227222
20
0.00321008
11
-0.227222
21
-0.00939677
0
LINE
8
BLACK
6
CONTINUOUS
10
-0.227222
20
-0.00939677
11
-0.224743
21
-0.0193111
0
LINE
8
BLACK
6
CONTINUOUS
10
-0.224743
20
-0.0193111
11
-0.222649
21
-0.0234984
0
LINE
8
BLACK
6
CONTINUOUS
10
-0.222649
20
-0.0234984
11
-0.221192
21
-0.0249553
0
LINE
8
BLACK
6
CONTINUOUS
10
-0.221192
20
-0.0249553
11
-0.217672
21
-0.0267154
0
LINE
8
BLACK
6
CONTINUOUS
10
-0.217672
20
-0.0267154
11
-0.214836
21
-0.0267154
0
LINE
8
BLACK
6
CONTINUOUS
10
-0.214836
20
-0.0267154
11
-0.211316
21
-0.0249552
0
LINE
8
BLACK
6
CONTINUOUS
10
-0.211316
20
-0.0249552
11
-0.209859
21
-0.0234984
0
LINE
8
BLACK
6
CONTINUOUS
10
-0.209859
20
-0.0234984
11
-0.207765
21
-0.0193111
0
LINE
8
BLACK
6
CONTINUOUS
10
-0.207765
20
-0.0193111
11
-0.205287
21
-0.00939677
0
LINE
8
BLACK
6
CONTINUOUS
10
-0.205287
20
-0.00939677
11
-0.205287
21
0.00321008
0
LINE
8
BLACK
6
CONTINUOUS
10
-0.205287
20
0.00321008
11
-0.207765
21
0.0131244
0
LINE
8
BLACK
6
CONTINUOUS
10
-0.207765
20
0.0131244
11
-0.209859
21
0.0173117
0
LINE
8
BLACK
6
CONTINUOUS
10
-0.209859
20
0.0173117
11
-0.211316
21
0.0187685
0
LINE
8
BLACK
6
CONTINUOUS
10
-0.211316
20
0.0187685
11
-0.214836
21
0.0205287
0
LINE
8
BLACK
6
CONTINUOUS
10
-0.214836
20
0.0205287
11
-0.217672
21
0.0205287
0
LINE
8
BLACK
6
CONTINUOUS
10
-0.392109
20
0.0319884
11
-0.390779
21
0.0317163
0
LINE
8
BLACK
6
CONTINUOUS
10
-0.390779
20
0.0317163
11
-0.385154
21
0.0289041
0
LINE
8
BLACK
6
CONTINUOUS
10
-0.385154
20
0.0289041
11
-0.384443
21
0.0282733
0
LINE
8
BLACK
6
CONTINUOUS
10
-0.384443
20
0.0282733
11
-0.383619
21
0.0277979
0
LINE
8
BLACK
6
CONTINUOUS
10
-0.383619
20
0.0277979
11
-0.380807
21
0.0249857
0
LINE
8
BLACK
6
CONTINUOUS
10
-0.380807
20
0.0249857
11
-0.380332
21
0.0241623
0
LINE
8
BLACK
6
CONTINUOUS
10
-0.380332
20
0.0241623
11
-0.379701
21
0.0234509
0
LINE
8
BLACK
6
CONTINUOUS
10
-0.379701
20
0.0234509
11
-0.376889
21
0.0178267
0
LINE
8
BLACK
6
CONTINUOUS
10
-0.376889
20
0.0178267
11
-0.376617
21
0.0164967
0
LINE
8
BLACK
6
CONTINUOUS
10
-0.376617
20
0.0164967
11
-0.376265
21
0.0151856
0
LINE
8
BLACK
6
CONTINUOUS
10
-0.376265
20
0.0151856
11
-0.376265
21
0.00674917
0
LINE
8
BLACK
6
CONTINUOUS
10
-0.376265
20
0.00674917
11
-0.376617
21
0.00543815
0
LINE
8
BLACK
6
CONTINUOUS
10
-0.376617
20
0.00543815
11
-0.376889
21
0.00410811
0
LINE
8
BLACK
6
CONTINUOUS
10
-0.376889
20
0.00410811
11
-0.379701
21
-0.00151614
0
LINE
8
BLACK
6
CONTINUOUS
10
-0.379701
20
-0.00151614
11
-0.380332
21
-0.00222748
0
LINE
8
BLACK
6
CONTINUOUS
10
-0.380332
20
-0.00222748
11
-0.380807
21
-0.00305091
0
LINE
8
BLACK
6
CONTINUOUS
10
-0.380807
20
-0.00305091
11
-0.383619
21
-0.00586307
0
LINE
8
BLACK
6
CONTINUOUS
10
-0.383619
20
-0.00586307
11
-0.384443
21
-0.0063385
0
LINE
8
BLACK
6
CONTINUOUS
10
-0.384443
20
-0.0063385
11
-0.385154
21
-0.00696933
0
LINE
8
BLACK
6
CONTINUOUS
10
-0.385154
20
-0.00696933
11
-0.390779
21
-0.00978146
0
LINE
8
BLACK
6
CONTINUOUS
10
-0.390779
20
-0.00978146
11
-0.390929
21
-0.00981213
0
LINE
8
BLACK
6
CONTINUOUS
10
-0.390929
20
-0.00981213
11
-0.377333
21
-0.0292343
0
LINE
8
BLACK
6
CONTINUOUS
10
-0.377333
20
-0.0292343
11
-0.376288
21
-0.032107
0
LINE
8
BLACK
6
CONTINUOUS
10
-0.376288
20
-0.032107
11
-0.376819
21
-0.0351174
0
LINE
8
BLACK
6
CONTINUOUS
10
-0.376819
20
-0.0351174
11
-0.378784
21
-0.0374589
0
LINE
8
BLACK
6
CONTINUOUS
10
-0.378784
20
-0.0374589
11
-0.381657
21
-0.038504
0
LINE
8
BLACK
6
CONTINUOUS
10
-0.381657
20
-0.038504
11
-0.384668
21
-0.0379728
0
LINE
8
BLACK
6
CONTINUOUS
10
-0.384668
20
-0.0379728
11
-0.387009
21
-0.0360075
0
LINE
8
BLACK
6
CONTINUOUS
10
-0.387009
20
-0.0360075
11
-0.404931
21
-0.0104049
0
LINE
8
BLACK
6
CONTINUOUS
10
-0.404931
20
-0.0104049
11
-0.410011
21
-0.0104049
0
LINE
8
BLACK
6
CONTINUOUS
10
-0.410011
20
-0.0104049
11
-0.410011
21
-0.0326209
0
LINE
8
BLACK
6
CONTINUOUS
10
-0.410011
20
-0.0326209
11
-0.410802
21
-0.0355737
0
LINE
8
BLACK
6
CONTINUOUS
10
-0.410802
20
-0.0355737
11
-0.412964
21
-0.0377352
0
LINE
8
BLACK
6
CONTINUOUS
10
-0.412964
20
-0.0377352
11
-0.415917
21
-0.0385264
0
LINE
8
BLACK
6
CONTINUOUS
10
-0.415917
20
-0.0385264
11
-0.41887
21
-0.0377352
0
LINE
8
BLACK
6
CONTINUOUS
10
-0.41887
20
-0.0377352
11
-0.421031
21
-0.0355737
0
LINE
8
BLACK
6
CONTINUOUS
10
-0.421031
20
-0.0355737
11
-0.421822
21
-0.0326209
0
LINE
8
BLACK
6
CONTINUOUS
10
-0.421822
20
-0.0326209
11
-0.421822
21
0.0264342
0
LINE
8
BLACK
6
CONTINUOUS
10
-0.421822
20
0.0264342
11
-0.421031
21
0.029387
0
LINE
8
BLACK
6
CONTINUOUS
10
-0.421031
20
0.029387
11
-0.41887
21
0.0315485
0
LINE
8
BLACK
6
CONTINUOUS
10
-0.41887
20
0.0315485
11
-0.415917
21
0.0323397
0
LINE
8
BLACK
6
CONTINUOUS
10
-0.415917
20
0.0323397
11
-0.39342
21
0.0323397
0
LINE
8
BLACK
6
CONTINUOUS
10
-0.39342
20
0.0323397
11
-0.392109
21
0.0319884
0
LINE
8
BLACK
6
CONTINUOUS
10
-0.410011
20
0.0205287
11
-0.410011
21
0.0014061
0
LINE
8
BLACK
6
CONTINUOUS
10
-0.410011
20
0.0014061
11
-0.394814
21
0.0014061
0
LINE
8
BLACK
6
CONTINUOUS
10
-0.394814
20
0.0014061
11
-0.391293
21
0.00316622
0
LINE
8
BLACK
6
CONTINUOUS
10
-0.391293
20
0.00316622
11
-0.389837
21
0.00462307
0
LINE
8
BLACK
6
CONTINUOUS
10
-0.389837
20
0.00462307
11
-0.388076
21
0.00814327
0
LINE
8
BLACK
6
CONTINUOUS
10
-0.388076
20
0.00814327
11
-0.388076
21
0.0137915
0
LINE
8
BLACK
6
CONTINUOUS
10
-0.388076
20
0.0137915
11
-0.389837
21
0.0173117
0
LINE
8
BLACK
6
CONTINUOUS
10
-0.389837
20
0.0173117
11
-0.391293
21
0.0187686
0
LINE
8
BLACK
6
CONTINUOUS
10
-0.391293
20
0.0187686
11
-0.394814
21
0.0205287
0
LINE
8
BLACK
6
CONTINUOUS
10
-0.394814
20
0.0205287
11
-0.410011
21
0.0205287
0
LINE
8
BLACK
6
CONTINUOUS
10
-0.2572
20
0.0320085
11
-0.255939
21
0.0317857
0
LINE
8
BLACK
6
CONTINUOUS
10
-0.255939
20
0.0317857
11
-0.255738
21
0.0316166
0
LINE
8
BLACK
6
CONTINUOUS
10
-0.255738
20
0.0316166
11
-0.255484
21
0.0315485
0
LINE
8
BLACK
6
CONTINUOUS
10
-0.255484
20
0.0315485
11
-0.254579
21
0.0306434
0
LINE
8
BLACK
6
CONTINUOUS
10
-0.254579
20
0.0306434
11
-0.253598
21
0.0298201
0
LINE
8
BLACK
6
CONTINUOUS
10
-0.253598
20
0.0298201
11
-0.253508
21
0.0295729
0
LINE
8
BLACK
6
CONTINUOUS
10
-0.253508
20
0.0295729
11
-0.253322
21
0.029387
0
LINE
8
BLACK
6
CONTINUOUS
10
-0.253322
20
0.029387
11
-0.252991
21
0.0281504
0
LINE
8
BLACK
6
CONTINUOUS
10
-0.252991
20
0.0281504
11
-0.252553
21
0.0269472
0
LINE
8
BLACK
6
CONTINUOUS
10
-0.252553
20
0.0269472
11
-0.252599
21
0.0266882
0
LINE
8
BLACK
6
CONTINUOUS
10
-0.252599
20
0.0266882
11
-0.252531
21
0.0264342
0
LINE
8
BLACK
6
CONTINUOUS
10
-0.252531
20
0.0264342
11
-0.252531
21
-0.0326209
0
LINE
8
BLACK
6
CONTINUOUS
10
-0.252531
20
-0.0326209
11
-0.253322
21
-0.0355737
0
LINE
8
BLACK
6
CONTINUOUS
10
-0.253322
20
-0.0355737
11
-0.255484
21
-0.0377352
0
LINE
8
BLACK
6
CONTINUOUS
10
-0.255484
20
-0.0377352
11
-0.258436
21
-0.0385264
0
LINE
8
BLACK
6
CONTINUOUS
10
-0.258436
20
-0.0385264
11
-0.261389
21
-0.0377352
0
LINE
8
BLACK
6
CONTINUOUS
10
-0.261389
20
-0.0377352
11
-0.263551
21
-0.0355737
0
LINE
8
BLACK
6
CONTINUOUS
10
-0.263551
20
-0.0355737
11
-0.264342
21
-0.0326209
0
LINE
8
BLACK
6
CONTINUOUS
10
-0.264342
20
-0.0326209
11
-0.264342
21
-0.000185236
0
LINE
8
BLACK
6
CONTINUOUS
10
-0.264342
20
-0.000185236
11
-0.27277
21
-0.0182454
0
LINE
8
BLACK
6
CONTINUOUS
10
-0.27277
20
-0.0182454
11
-0.273105
21
-0.0186443
0
LINE
8
BLACK
6
CONTINUOUS
10
-0.273105
20
-0.0186443
11
-0.273283
21
-0.0191339
0
LINE
8
BLACK
6
CONTINUOUS
10
-0.273283
20
-0.0191339
11
-0.274073
21
-0.019797
0
LINE
8
BLACK
6
CONTINUOUS
10
-0.274073
20
-0.019797
11
-0.274736
21
-0.0205865
0
LINE
8
BLACK
6
CONTINUOUS
10
-0.274736
20
-0.0205865
11
-0.275225
21
-0.0207645
0
LINE
8
BLACK
6
CONTINUOUS
10
-0.275225
20
-0.0207645
11
-0.275624
21
-0.0210995
0
LINE
8
BLACK
6
CONTINUOUS
10
-0.275624
20
-0.0210995
11
-0.27664
21
-0.0212789
0
LINE
8
BLACK
6
CONTINUOUS
10
-0.27664
20
-0.0212789
11
-0.277609
21
-0.0216312
0
LINE
8
BLACK
6
CONTINUOUS
10
-0.277609
20
-0.0216312
11
-0.278121
21
-0.0215406
0
LINE
8
BLACK
6
CONTINUOUS
10
-0.278121
20
-0.0215406
11
-0.278634
21
-0.0216313
0
LINE
8
BLACK
6
CONTINUOUS
10
-0.278634
20
-0.0216313
11
-0.279604
21
-0.0212788
0
LINE
8
BLACK
6
CONTINUOUS
10
-0.279604
20
-0.0212788
11
-0.280619
21
-0.0210995
0
LINE
8
BLACK
6
CONTINUOUS
10
-0.280619
20
-0.0210995
11
-0.281018
21
-0.0207646
0
LINE
8
BLACK
6
CONTINUOUS
10
-0.281018
20
-0.0207646
11
-0.281507
21
-0.0205866
0
LINE
8
BLACK
6
CONTINUOUS
10
-0.281507
20
-0.0205866
11
-0.28217
21
-0.0197968
0
LINE
8
BLACK
6
CONTINUOUS
10
-0.28217
20
-0.0197968
11
-0.28296
21
-0.0191339
0
LINE
8
BLACK
6
CONTINUOUS
10
-0.28296
20
-0.0191339
11
-0.283138
21
-0.0186443
0
LINE
8
BLACK
6
CONTINUOUS
10
-0.283138
20
-0.0186443
11
-0.283473
21
-0.0182454
0
LINE
8
BLACK
6
CONTINUOUS
10
-0.283473
20
-0.0182454
11
-0.291901
21
-0.000185236
0
LINE
8
BLACK
6
CONTINUOUS
10
-0.291901
20
-0.000185236
11
-0.291901
21
-0.0326209
0
LINE
8
BLACK
6
CONTINUOUS
10
-0.291901
20
-0.0326209
11
-0.292692
21
-0.0355737
0
LINE
8
BLACK
6
CONTINUOUS
10
-0.292692
20
-0.0355737
11
-0.294854
21
-0.0377352
0
LINE
8
BLACK
6
CONTINUOUS
10
-0.294854
20
-0.0377352
11
-0.297807
21
-0.0385264
0
LINE
8
BLACK
6
CONTINUOUS
10
-0.297807
20
-0.0385264
11
-0.300759
21
-0.0377352
0
LINE
8
BLACK
6
CONTINUOUS
10
-0.300759
20
-0.0377352
11
-0.302921
21
-0.0355737
0
LINE
8
BLACK
6
CONTINUOUS
10
-0.302921
20
-0.0355737
11
-0.303712
21
-0.0326209
0
LINE
8
BLACK
6
CONTINUOUS
10
-0.303712
20
-0.0326209
11
-0.303712
21
0.0264342
0
LINE
8
BLACK
6
CONTINUOUS
10
-0.303712
20
0.0264342
11
-0.303644
21
0.0266882
0
LINE
8
BLACK
6
CONTINUOUS
10
-0.303644
20
0.0266882
11
-0.30369
21
0.0269472
0
LINE
8
BLACK
6
CONTINUOUS
10
-0.30369
20
0.0269472
11
-0.303252
21
0.0281502
0
LINE
8
BLACK
6
CONTINUOUS
10
-0.303252
20
0.0281502
11
-0.302921
21
0.029387
0
LINE
8
BLACK
6
CONTINUOUS
10
-0.302921
20
0.029387
11
-0.302735
21
0.029573
0
LINE
8
BLACK
6
CONTINUOUS
10
-0.302735
20
0.029573
11
-0.302645
21
0.02982
0
LINE
8
BLACK
6
CONTINUOUS
10
-0.302645
20
0.02982
11
-0.301665
21
0.0306431
0
LINE
8
BLACK
6
CONTINUOUS
10
-0.301665
20
0.0306431
11
-0.300759
21
0.0315485
0
LINE
8
BLACK
6
CONTINUOUS
10
-0.300759
20
0.0315485
11
-0.300505
21
0.0316166
0
LINE
8
BLACK
6
CONTINUOUS
10
-0.300505
20
0.0316166
11
-0.300304
21
0.0317857
0
LINE
8
BLACK
6
CONTINUOUS
10
-0.300304
20
0.0317857
11
-0.299043
21
0.0320083
0
LINE
8
BLACK
6
CONTINUOUS
10
-0.299043
20
0.0320083
11
-0.297807
21
0.0323397
0
LINE
8
BLACK
6
CONTINUOUS
10
-0.297807
20
0.0323397
11
-0.297553
21
0.0322717
0
LINE
8
BLACK
6
CONTINUOUS
10
-0.297553
20
0.0322717
11
-0.297294
21
0.0323174
0
LINE
8
BLACK
6
CONTINUOUS
10
-0.297294
20
0.0323174
11
-0.296091
21
0.0318799
0
LINE
8
BLACK
6
CONTINUOUS
10
-0.296091
20
0.0318799
11
-0.294854
21
0.0315485
0
LINE
8
BLACK
6
CONTINUOUS
10
-0.294854
20
0.0315485
11
-0.294668
21
0.0313626
0
LINE
8
BLACK
6
CONTINUOUS
10
-0.294668
20
0.0313626
11
-0.294421
21
0.0312727
0
LINE
8
BLACK
6
CONTINUOUS
10
-0.294421
20
0.0312727
11
-0.293598
21
0.0302924
0
LINE
8
BLACK
6
CONTINUOUS
10
-0.293598
20
0.0302924
11
-0.292692
21
0.029387
0
LINE
8
BLACK
6
CONTINUOUS
10
-0.292692
20
0.029387
11
-0.292624
21
0.0291329
0
LINE
8
BLACK
6
CONTINUOUS
10
-0.292624
20
0.0291329
11
-0.292455
21
0.0289316
0
LINE
8
BLACK
6
CONTINUOUS
10
-0.292455
20
0.0289316
11
-0.278121
21
-0.00178323
0
LINE
8
BLACK
6
CONTINUOUS
10
-0.278121
20
-0.00178323
11
-0.263788
21
0.0289316
0
LINE
8
BLACK
6
CONTINUOUS
10
-0.263788
20
0.0289316
11
-0.263619
21
0.0291329
0
LINE
8
BLACK
6
CONTINUOUS
10
-0.263619
20
0.0291329
11
-0.263551
21
0.029387
0
LINE
8
BLACK
6
CONTINUOUS
10
-0.263551
20
0.029387
11
-0.262646
21
0.0302922
0
LINE
8
BLACK
6
CONTINUOUS
10
-0.262646
20
0.0302922
11
-0.261822
21
0.0312728
0
LINE
8
BLACK
6
CONTINUOUS
10
-0.261822
20
0.0312728
11
-0.261575
21
0.0313626
0
LINE
8
BLACK
6
CONTINUOUS
10
-0.261575
20
0.0313626
11
-0.261389
21
0.0315485
0
LINE
8
BLACK
6
CONTINUOUS
10
-0.261389
20
0.0315485
11
-0.260153
21
0.0318798
0
LINE
8
BLACK
6
CONTINUOUS
10
-0.260153
20
0.0318798
11
-0.258949
21
0.0323174
0
LINE
8
BLACK
6
CONTINUOUS
10
-0.258949
20
0.0323174
11
-0.25869
21
0.0322717
0
LINE
8
BLACK
6
CONTINUOUS
10
-0.25869
20
0.0322717
11
-0.258436
21
0.0323397
0
LINE
8
BLACK
6
CONTINUOUS
10
-0.258436
20
0.0323397
11
-0.2572
21
0.0320085
0
LINE
8
BLACK
6
CONTINUOUS
10
-0.179837
20
-0.0377352
11
-0.181999
21
-0.0355737
0
LINE
8
BLACK
6
CONTINUOUS
10
-0.181999
20
-0.0355737
11
-0.18279
21
-0.0326209
0
LINE
8
BLACK
6
CONTINUOUS
10
-0.18279
20
-0.0326209
11
-0.181999
21
-0.0296681
0
LINE
8
BLACK
6
CONTINUOUS
10
-0.181999
20
-0.0296681
11
-0.179837
21
-0.0275066
0
LINE
8
BLACK
6
CONTINUOUS
10
-0.179837
20
-0.0275066
11
-0.176884
21
-0.0267154
0
LINE
8
BLACK
6
CONTINUOUS
10
-0.176884
20
-0.0267154
11
-0.165917
21
-0.0267154
0
LINE
8
BLACK
6
CONTINUOUS
10
-0.165917
20
-0.0267154
11
-0.165917
21
0.00936488
0
LINE
8
BLACK
6
CONTINUOUS
10
-0.165917
20
0.00936488
11
-0.167084
21
0.00819764
0
LINE
8
BLACK
6
CONTINUOUS
10
-0.167084
20
0.00819764
11
-0.167907
21
0.00772224
0
LINE
8
BLACK
6
CONTINUOUS
10
-0.167907
20
0.00772224
11
-0.168619
21
0.00709142
0
LINE
8
BLACK
6
CONTINUOUS
10
-0.168619
20
0.00709142
11
-0.174243
21
0.00427929
0
LINE
8
BLACK
6
CONTINUOUS
10
-0.174243
20
0.00427929
11
-0.177238
21
0.00366642
0
LINE
8
BLACK
6
CONTINUOUS
10
-0.177238
20
0.00366642
11
-0.180138
21
0.00463315
0
LINE
8
BLACK
6
CONTINUOUS
10
-0.180138
20
0.00463315
11
-0.182166
21
0.00692035
0
LINE
8
BLACK
6
CONTINUOUS
10
-0.182166
20
0.00692035
11
-0.182779
21
0.0099152
0
LINE
8
BLACK
6
CONTINUOUS
10
-0.182779
20
0.0099152
11
-0.181812
21
0.0128152
0
LINE
8
BLACK
6
CONTINUOUS
10
-0.181812
20
0.0128152
11
-0.179525
21
0.0148434
0
LINE
8
BLACK
6
CONTINUOUS
10
-0.179525
20
0.0148434
11
-0.174758
21
0.017227
0
LINE
8
BLACK
6
CONTINUOUS
10
-0.174758
20
0.017227
11
-0.170225
21
0.02176
0
LINE
8
BLACK
6
CONTINUOUS
10
-0.170225
20
0.02176
11
-0.164925
21
0.02971
0
LINE
8
BLACK
6
CONTINUOUS
10
-0.164925
20
0.02971
11
-0.163915
21
0.0305976
0
LINE
8
BLACK
6
CONTINUOUS
10
-0.163915
20
0.0305976
11
-0.162964
21
0.0315485
0
LINE
8
BLACK
6
CONTINUOUS
10
-0.162964
20
0.0315485
11
-0.162775
21
0.0315991
0
LINE
8
BLACK
6
CONTINUOUS
10
-0.162775
20
0.0315991
11
-0.162629
21
0.031728
0
LINE
8
BLACK
6
CONTINUOUS
10
-0.162629
20
0.031728
11
-0.16131
21
0.0319918
0
LINE
8
BLACK
6
CONTINUOUS
10
-0.16131
20
0.0319918
11
-0.160011
21
0.0323397
0
LINE
8
BLACK
6
CONTINUOUS
10
-0.160011
20
0.0323397
11
-0.159823
21
0.0322892
0
LINE
8
BLACK
6
CONTINUOUS
10
-0.159823
20
0.0322892
11
-0.159631
21
0.0323275
0
LINE
8
BLACK
6
CONTINUOUS
10
-0.159631
20
0.0323275
11
-0.158357
21
0.0318965
0
LINE
8
BLACK
6
CONTINUOUS
10
-0.158357
20
0.0318965
11
-0.157059
21
0.0315485
0
LINE
8
BLACK
6
CONTINUOUS
10
-0.157059
20
0.0315485
11
-0.15692
21
0.0314105
0
LINE
8
BLACK
6
CONTINUOUS
10
-0.15692
20
0.0314105
11
-0.156735
21
0.0313479
0
LINE
8
BLACK
6
CONTINUOUS
10
-0.156735
20
0.0313479
11
-0.155848
21
0.0303376
0
LINE
8
BLACK
6
CONTINUOUS
10
-0.155848
20
0.0303376
11
-0.154897
21
0.029387
0
LINE
8
BLACK
6
CONTINUOUS
10
-0.154897
20
0.029387
11
-0.154846
21
0.0291984
0
LINE
8
BLACK
6
CONTINUOUS
10
-0.154846
20
0.0291984
11
-0.154717
21
0.0290517
0
LINE
8
BLACK
6
CONTINUOUS
10
-0.154717
20
0.0290517
11
-0.154454
21
0.0277329
0
LINE
8
BLACK
6
CONTINUOUS
10
-0.154454
20
0.0277329
11
-0.154106
21
0.0264342
0
LINE
8
BLACK
6
CONTINUOUS
10
-0.154106
20
0.0264342
11
-0.154106
21
-0.0267154
0
LINE
8
BLACK
6
CONTINUOUS
10
-0.154106
20
-0.0267154
11
-0.143138
21
-0.0267154
0
LINE
8
BLACK
6
CONTINUOUS
10
-0.143138
20
-0.0267154
11
-0.140186
21
-0.0275066
0
LINE
8
BLACK
6
CONTINUOUS
10
-0.140186
20
-0.0275066
11
-0.138024
21
-0.0296681
0
LINE
8
BLACK
6
CONTINUOUS
10
-0.138024
20
-0.0296681
11
-0.137233
21
-0.0326209
0
LINE
8
BLACK
6
CONTINUOUS
10
-0.137233
20
-0.0326209
11
-0.138024
21
-0.0355737
0
LINE
8
BLACK
6
CONTINUOUS
10
-0.138024
20
-0.0355737
11
-0.140186
21
-0.0377352
0
LINE
8
BLACK
6
CONTINUOUS
10
-0.140186
20
-0.0377352
11
-0.143138
21
-0.0385264
0
LINE
8
BLACK
6
CONTINUOUS
10
-0.143138
20
-0.0385264
11
-0.176884
21
-0.0385264
0
LINE
8
BLACK
6
CONTINUOUS
10
-0.176884
20
-0.0385264
11
-0.179837
21
-0.0377352
0
LINE
8
BLACK
6
CONTINUOUS
10
-0.483268
20
0.0315485
11
-0.481106
21
0.029387
0
LINE
8
BLACK
6
CONTINUOUS
10
-0.481106
20
0.029387
11
-0.480315
21
0.0264342
0
LINE
8
BLACK
6
CONTINUOUS
10
-0.480315
20
0.0264342
11
-0.481106
21
0.0234815
0
LINE
8
BLACK
6
CONTINUOUS
10
-0.481106
20
0.0234815
11
-0.483268
21
0.0213199
0
LINE
8
BLACK
6
CONTINUOUS
10
-0.483268
20
0.0213199
11
-0.48622
21
0.0205287
0
LINE
8
BLACK
6
CONTINUOUS
10
-0.48622
20
0.0205287
11
-0.497188
21
0.0205287
0
LINE
8
BLACK
6
CONTINUOUS
10
-0.497188
20
0.0205287
11
-0.497188
21
-0.0326209
0
LINE
8
BLACK
6
CONTINUOUS
10
-0.497188
20
-0.0326209
11
-0.497979
21
-0.0355737
0
LINE
8
BLACK
6
CONTINUOUS
10
-0.497979
20
-0.0355737
11
-0.500141
21
-0.0377352
0
LINE
8
BLACK
6
CONTINUOUS
10
-0.500141
20
-0.0377352
11
-0.503093
21
-0.0385264
0
LINE
8
BLACK
6
CONTINUOUS
10
-0.503093
20
-0.0385264
11
-0.506046
21
-0.0377352
0
LINE
8
BLACK
6
CONTINUOUS
10
-0.506046
20
-0.0377352
11
-0.508208
21
-0.0355737
0
LINE
8
BLACK
6
CONTINUOUS
10
-0.508208
20
-0.0355737
11
-0.508999
21
-0.0326209
0
LINE
8
BLACK
6
CONTINUOUS
10
-0.508999
20
-0.0326209
11
-0.508999
21
0.0205287
0
LINE
8
BLACK
6
CONTINUOUS
10
-0.508999
20
0.0205287
11
-0.519966
21
0.0205287
0
LINE
8
BLACK
6
CONTINUOUS
10
-0.519966
20
0.0205287
11
-0.522919
21
0.0213199
0
LINE
8
BLACK
6
CONTINUOUS
10
-0.522919
20
0.0213199
11
-0.525081
21
0.0234815
0
LINE
8
BLACK
6
CONTINUOUS
10
-0.525081
20
0.0234815
11
-0.525872
21
0.0264342
0
LINE
8
BLACK
6
CONTINUOUS
10
-0.525872
20
0.0264342
11
-0.525081
21
0.029387
0
LINE
8
BLACK
6
CONTINUOUS
10
-0.525081
20
0.029387
11
-0.522919
21
0.0315485
0
LINE
8
BLACK
6
CONTINUOUS
10
-0.522919
20
0.0315485
11
-0.519966
21
0.0323397
0
LINE
8
BLACK
6
CONTINUOUS
10
-0.519966
20
0.0323397
11
-0.48622
21
0.0323397
0
LINE
8
BLACK
6
CONTINUOUS
10
-0.48622
20
0.0323397
11
-0.483268
21
0.0315485
0
LINE
8
BLACK
6
CONTINUOUS
10
-0.10285
20
0.0320936
11
-0.101901
21
0.0320367
0
LINE
8
BLACK
6
CONTINUOUS
10
-0.101901
20
0.0320367
11
-0.0934644
21
0.0292245
0
LINE
8
BLACK
6
CONTINUOUS
10
-0.0934644
20
0.0292245
11
-0.0923315
21
0.0284765
0
LINE
8
BLACK
6
CONTINUOUS
10
-0.0923315
20
0.0284765
11
-0.091156
21
0.0277979
0
LINE
8
BLACK
6
CONTINUOUS
10
-0.091156
20
0.0277979
11
-0.0855317
21
0.0221736
0
LINE
8
BLACK
6
CONTINUOUS
10
-0.0855317
20
0.0221736
11
-0.0850563
21
0.0213502
0
LINE
8
BLACK
6
CONTINUOUS
10
-0.0850563
20
0.0213502
11
-0.0844255
21
0.0206388
0
LINE
8
BLACK
6
CONTINUOUS
10
-0.0844255
20
0.0206388
11
-0.0816133
21
0.0150145
0
LINE
8
BLACK
6
CONTINUOUS
10
-0.0816133
20
0.0150145
11
-0.0814826
21
0.0143757
0
LINE
8
BLACK
6
CONTINUOUS
10
-0.0814826
20
0.0143757
11
-0.0811662
21
0.0138057
0
LINE
8
BLACK
6
CONTINUOUS
10
-0.0811662
20
0.0138057
11
-0.0783541
21
0.00255717
0
LINE
8
BLACK
6
CONTINUOUS
10
-0.0783541
20
0.00255717
11
-0.0783663
21
0.00182874
0
LINE
8
BLACK
6
CONTINUOUS
10
-0.0783663
20
0.00182874
11
-0.0781778
21
0.00112488
0
LINE
8
BLACK
6
CONTINUOUS
10
-0.0781778
20
0.00112488
11
-0.0781778
21
-0.00731157
0
LINE
8
BLACK
6
CONTINUOUS
10
-0.0781778
20
-0.00731157
11
-0.0783663
21
-0.00801543
0
LINE
8
BLACK
6
CONTINUOUS
10
-0.0783663
20
-0.00801543
11
-0.0783541
21
-0.00874386
0
LINE
8
BLACK
6
CONTINUOUS
10
-0.0783541
20
-0.00874386
11
-0.0811662
21
-0.0199924
0
LINE
8
BLACK
6
CONTINUOUS
10
-0.0811662
20
-0.0199924
11
-0.0814826
21
-0.0205624
0
LINE
8
BLACK
6
CONTINUOUS
10
-0.0814826
20
-0.0205624
11
-0.0816133
21
-0.0212012
0
LINE
8
BLACK
6
CONTINUOUS
10
-0.0816133
20
-0.0212012
11
-0.0844255
21
-0.0268255
0
LINE
8
BLACK
6
CONTINUOUS
10
-0.0844255
20
-0.0268255
11
-0.0850563
21
-0.0275369
0
LINE
8
BLACK
6
CONTINUOUS
10
-0.0850563
20
-0.0275369
11
-0.0855317
21
-0.0283603
0
LINE
8
BLACK
6
CONTINUOUS
10
-0.0855317
20
-0.0283603
11
-0.091156
21
-0.0339846
0
LINE
8
BLACK
6
CONTINUOUS
10
-0.091156
20
-0.0339846
11
-0.0923315
21
-0.0346632
0
LINE
8
BLACK
6
CONTINUOUS
10
-0.0923315
20
-0.0346632
11
-0.0934644
21
-0.0354112
0
LINE
8
BLACK
6
CONTINUOUS
10
-0.0934644
20
-0.0354112
11
-0.101901
21
-0.0382233
0
LINE
8
BLACK
6
CONTINUOUS
10
-0.101901
20
-0.0382233
11
-0.10285
21
-0.0382803
0
LINE
8
BLACK
6
CONTINUOUS
10
-0.10285
20
-0.0382803
11
-0.103768
21
-0.0385264
0
LINE
8
BLACK
6
CONTINUOUS
10
-0.103768
20
-0.0385264
11
-0.117829
21
-0.0385264
0
LINE
8
BLACK
6
CONTINUOUS
10
-0.117829
20
-0.0385264
11
-0.120782
21
-0.0377352
0
LINE
8
BLACK
6
CONTINUOUS
10
-0.120782
20
-0.0377352
11
-0.122943
21
-0.0355737
0
LINE
8
BLACK
6
CONTINUOUS
10
-0.122943
20
-0.0355737
11
-0.123735
21
-0.0326209
0
LINE
8
BLACK
6
CONTINUOUS
10
-0.123735
20
-0.0326209
11
-0.123735
21
0.0264342
0
LINE
8
BLACK
6
CONTINUOUS
10
-0.123735
20
0.0264342
11
-0.122943
21
0.029387
0
LINE
8
BLACK
6
CONTINUOUS
10
-0.122943
20
0.029387
11
-0.120782
21
0.0315485
0
LINE
8
BLACK
6
CONTINUOUS
10
-0.120782
20
0.0315485
11
-0.117829
21
0.0323397
0
LINE
8
BLACK
6
CONTINUOUS
10
-0.117829
20
0.0323397
11
-0.103768
21
0.0323397
0
LINE
8
BLACK
6
CONTINUOUS
10
-0.103768
20
0.0323397
11
-0.10285
21
0.0320936
0
LINE
8
BLACK
6
CONTINUOUS
10
-0.111924
20
0.0205287
11
-0.111924
21
-0.0267154
0
LINE
8
BLACK
6
CONTINUOUS
10
-0.111924
20
-0.0267154
11
-0.104727
21
-0.0267154
0
LINE
8
BLACK
6
CONTINUOUS
10
-0.104727
20
-0.0267154
11
-0.0985219
21
-0.0246472
0
LINE
8
BLACK
6
CONTINUOUS
10
-0.0985219
20
-0.0246472
11
-0.094561
21
-0.0206863
0
LINE
8
BLACK
6
CONTINUOUS
10
-0.094561
20
-0.0206863
11
-0.0924673
21
-0.0164989
0
LINE
8
BLACK
6
CONTINUOUS
10
-0.0924673
20
-0.0164989
11
-0.0899888
21
-0.00658465
0
LINE
8
BLACK
6
CONTINUOUS
10
-0.0899888
20
-0.00658465
11
-0.0899888
21
0.000397953
0
LINE
8
BLACK
6
CONTINUOUS
10
-0.0899888
20
0.000397953
11
-0.0924673
21
0.0103122
0
LINE
8
BLACK
6
CONTINUOUS
10
-0.0924673
20
0.0103122
11
-0.094561
21
0.0144996
0
LINE
8
BLACK
6
CONTINUOUS
10
-0.094561
20
0.0144996
11
-0.0985219
21
0.0184605
0
LINE
8
BLACK
6
CONTINUOUS
10
-0.0985219
20
0.0184605
11
-0.104727
21
0.0205287
0
LINE
8
BLACK
6
CONTINUOUS
10
-0.104727
20
0.0205287
11
-0.111924
21
0.0205287
0
LINE
8
BLACK
6
CONTINUOUS
10
-0.333053
20
0.0319884
11
-0.331723
21
0.0317163
0
LINE
8
BLACK
6
CONTINUOUS
10
-0.331723
20
0.0317163
11
-0.326099
21
0.0289041
0
LINE
8
BLACK
6
CONTINUOUS
10
-0.326099
20
0.0289041
11
-0.325388
21
0.0282733
0
LINE
8
BLACK
6
CONTINUOUS
10
-0.325388
20
0.0282733
11
-0.324564
21
0.0277979
0
LINE
8
BLACK
6
CONTINUOUS
10
-0.324564
20
0.0277979
11
-0.321752
21
0.0249857
0
LINE
8
BLACK
6
CONTINUOUS
10
-0.321752
20
0.0249857
11
-0.321277
21
0.0241623
0
LINE
8
BLACK
6
CONTINUOUS
10
-0.321277
20
0.0241623
11
-0.320646
21
0.0234509
0
LINE
8
BLACK
6
CONTINUOUS
10
-0.320646
20
0.0234509
11
-0.317834
21
0.0178267
0
LINE
8
BLACK
6
CONTINUOUS
10
-0.317834
20
0.0178267
11
-0.317562
21
0.0164967
0
LINE
8
BLACK
6
CONTINUOUS
10
-0.317562
20
0.0164967
11
-0.31721
21
0.0151856
0
LINE
8
BLACK
6
CONTINUOUS
10
-0.31721
20
0.0151856
11
-0.31721
21
0.00674917
0
LINE
8
BLACK
6
CONTINUOUS
10
-0.31721
20
0.00674917
11
-0.317562
21
0.00543815
0
LINE
8
BLACK
6
CONTINUOUS
10
-0.317562
20
0.00543815
11
-0.317834
21
0.00410811
0
LINE
8
BLACK
6
CONTINUOUS
10
-0.317834
20
0.00410811
11
-0.320646
21
-0.00151614
0
LINE
8
BLACK
6
CONTINUOUS
10
-0.320646
20
-0.00151614
11
-0.321277
21
-0.00222748
0
LINE
8
BLACK
6
CONTINUOUS
10
-0.321277
20
-0.00222748
11
-0.321752
21
-0.00305091
0
LINE
8
BLACK
6
CONTINUOUS
10
-0.321752
20
-0.00305091
11
-0.324564
21
-0.00586307
0
LINE
8
BLACK
6
CONTINUOUS
10
-0.324564
20
-0.00586307
11
-0.325388
21
-0.0063385
0
LINE
8
BLACK
6
CONTINUOUS
10
-0.325388
20
-0.0063385
11
-0.326099
21
-0.00696933
0
LINE
8
BLACK
6
CONTINUOUS
10
-0.326099
20
-0.00696933
11
-0.331724
21
-0.00978146
0
LINE
8
BLACK
6
CONTINUOUS
10
-0.331724
20
-0.00978146
11
-0.333053
21
-0.0100536
0
LINE
8
BLACK
6
CONTINUOUS
10
-0.333053
20
-0.0100536
11
-0.334364
21
-0.0104049
0
LINE
8
BLACK
6
CONTINUOUS
10
-0.334364
20
-0.0104049
11
-0.350956
21
-0.0104049
0
LINE
8
BLACK
6
CONTINUOUS
10
-0.350956
20
-0.0104049
11
-0.350956
21
-0.0326209
0
LINE
8
BLACK
6
CONTINUOUS
10
-0.350956
20
-0.0326209
11
-0.351747
21
-0.0355737
0
LINE
8
BLACK
6
CONTINUOUS
10
-0.351747
20
-0.0355737
11
-0.353909
21
-0.0377352
0
LINE
8
BLACK
6
CONTINUOUS
10
-0.353909
20
-0.0377352
11
-0.356862
21
-0.0385264
0
LINE
8
BLACK
6
CONTINUOUS
10
-0.356862
20
-0.0385264
11
-0.359814
21
-0.0377352
0
LINE
8
BLACK
6
CONTINUOUS
10
-0.359814
20
-0.0377352
11
-0.361976
21
-0.0355737
0
LINE
8
BLACK
6
CONTINUOUS
10
-0.361976
20
-0.0355737
11
-0.362767
21
-0.0326209
0
LINE
8
BLACK
6
CONTINUOUS
10
-0.362767
20
-0.0326209
11
-0.362767
21
0.0264342
0
LINE
8
BLACK
6
CONTINUOUS
10
-0.362767
20
0.0264342
11
-0.361976
21
0.029387
0
LINE
8
BLACK
6
CONTINUOUS
10
-0.361976
20
0.029387
11
-0.359814
21
0.0315485
0
LINE
8
BLACK
6
CONTINUOUS
10
-0.359814
20
0.0315485
11
-0.356862
21
0.0323397
0
LINE
8
BLACK
6
CONTINUOUS
10
-0.356862
20
0.0323397
11
-0.334364
21
0.0323397
0
LINE
8
BLACK
6
CONTINUOUS
10
-0.334364
20
0.0323397
11
-0.333053
21
0.0319884
0
LINE
8
BLACK
6
CONTINUOUS
10
-0.350956
20
0.0205287
11
-0.350956
21
0.0014061
0
LINE
8
BLACK
6
CONTINUOUS
10
-0.350956
20
0.0014061
11
-0.335759
21
0.0014061
0
LINE
8
BLACK
6
CONTINUOUS
10
-0.335759
20
0.0014061
11
-0.332238
21
0.00316622
0
LINE
8
BLACK
6
CONTINUOUS
10
-0.332238
20
0.00316622
11
-0.330781
21
0.00462307
0
LINE
8
BLACK
6
CONTINUOUS
10
-0.330781
20
0.00462307
11
-0.329021
21
0.00814327
0
LINE
8
BLACK
6
CONTINUOUS
10
-0.329021
20
0.00814327
11
-0.329021
21
0.0137915
0
LINE
8
BLACK
6
CONTINUOUS
10
-0.329021
20
0.0137915
11
-0.330781
21
0.0173117
0
LINE
8
BLACK
6
CONTINUOUS
10
-0.330781
20
0.0173117
11
-0.332238
21
0.0187686
0
LINE
8
BLACK
6
CONTINUOUS
10
-0.332238
20
0.0187686
11
-0.335759
21
0.0205287
0
LINE
8
BLACK
6
CONTINUOUS
10
-0.335759
20
0.0205287
11
-0.350956
21
0.0205287
0
LINE
8
BLACK
6
CONTINUOUS
10
-0.435461
20
0.0315485
11
-0.4333
21
0.029387
0
LINE
8
BLACK
6
CONTINUOUS
10
-0.4333
20
0.029387
11
-0.432508
21
0.0264342
0
LINE
8
BLACK
6
CONTINUOUS
10
-0.432508
20
0.0264342
11
-0.4333
21
0.0234815
0
LINE
8
BLACK
6
CONTINUOUS
10
-0.4333
20
0.0234815
11
-0.435461
21
0.0213199
0
LINE
8
BLACK
6
CONTINUOUS
10
-0.435461
20
0.0213199
11
-0.438414
21
0.0205287
0
LINE
8
BLACK
6
CONTINUOUS
10
-0.438414
20
0.0205287
11
-0.46063
21
0.0205287
0
LINE
8
BLACK
6
CONTINUOUS
10
-0.46063
20
0.0205287
11
-0.46063
21
0.00421823
0
LINE
8
BLACK
6
CONTINUOUS
10
-0.46063
20
0.00421823
11
-0.44685
21
0.00421823
0
LINE
8
BLACK
6
CONTINUOUS
10
-0.44685
20
0.00421823
11
-0.443898
21
0.00342705
0
LINE
8
BLACK
6
CONTINUOUS
10
-0.443898
20
0.00342705
11
-0.441736
21
0.00126547
0
LINE
8
BLACK
6
CONTINUOUS
10
-0.441736
20
0.00126547
11
-0.440945
21
-0.00168728
0
LINE
8
BLACK
6
CONTINUOUS
10
-0.440945
20
-0.00168728
11
-0.441736
21
-0.00464004
0
LINE
8
BLACK
6
CONTINUOUS
10
-0.441736
20
-0.00464004
11
-0.443898
21
-0.00680161
0
LINE
8
BLACK
6
CONTINUOUS
10
-0.443898
20
-0.00680161
11
-0.44685
21
-0.0075928
0
LINE
8
BLACK
6
CONTINUOUS
10
-0.44685
20
-0.0075928
11
-0.46063
21
-0.0075928
0
LINE
8
BLACK
6
CONTINUOUS
10
-0.46063
20
-0.0075928
11
-0.46063
21
-0.0326209
0
LINE
8
BLACK
6
CONTINUOUS
10
-0.46063
20
-0.0326209
11
-0.461421
21
-0.0355737
0
LINE
8
BLACK
6
CONTINUOUS
10
-0.461421
20
-0.0355737
11
-0.463583
21
-0.0377352
0
LINE
8
BLACK
6
CONTINUOUS
10
-0.463583
20
-0.0377352
11
-0.466535
21
-0.0385264
0
LINE
8
BLACK
6
CONTINUOUS
10
-0.466535
20
-0.0385264
11
-0.469488
21
-0.0377352
0
LINE
8
BLACK
6
CONTINUOUS
10
-0.469488
20
-0.0377352
11
-0.47165
21
-0.0355737
0
LINE
8
BLACK
6
CONTINUOUS
10
-0.47165
20
-0.0355737
11
-0.472441
21
-0.0326209
0
LINE
8
BLACK
6
CONTINUOUS
10
-0.472441
20
-0.0326209
11
-0.472441
21
0.0264342
0
LINE
8
BLACK
6
CONTINUOUS
10
-0.472441
20
0.0264342
11
-0.47165
21
0.029387
0
LINE
8
BLACK
6
CONTINUOUS
10
-0.47165
20
0.029387
11
-0.469488
21
0.0315485
0
LINE
8
BLACK
6
CONTINUOUS
10
-0.469488
20
0.0315485
11
-0.466535
21
0.0323397
0
LINE
8
BLACK
6
CONTINUOUS
10
-0.466535
20
0.0323397
11
-0.438414
21
0.0323397
0
LINE
8
BLACK
6
CONTINUOUS
10
-0.438414
20
0.0323397
11
-0.435461
21
0.0315485
0
LINE
8
BLACK
6
CONTINUOUS
10
0.5607
20
0.111772
11
0.561712
21
0.111772
0
LINE
8
BLACK
6
CONTINUOUS
10
0.561712
20
0.111772
11
0.561891
21
0.111641
0
LINE
8
BLACK
6
CONTINUOUS
10
0.561891
20
0.111641
11
0.562112
21
0.111617
0
LINE
8
BLACK
6
CONTINUOUS
10
0.562112
20
0.111617
11
0.562861
21
0.110937
0
LINE
8
BLACK
6
CONTINUOUS
10
0.562861
20
0.110937
11
0.56368
21
0.110342
0
LINE
8
BLACK
6
CONTINUOUS
10
0.56368
20
0.110342
11
0.563749
21
0.11013
0
LINE
8
BLACK
6
CONTINUOUS
10
0.563749
20
0.11013
11
0.563913
21
0.109981
0
LINE
8
BLACK
6
CONTINUOUS
10
0.563913
20
0.109981
11
0.585804
21
0.0716717
0
LINE
8
BLACK
6
CONTINUOUS
10
0.585804
20
0.0716717
11
0.585804
21
0.108028
0
LINE
8
BLACK
6
CONTINUOUS
10
0.585804
20
0.108028
11
0.586556
21
0.110342
0
LINE
8
BLACK
6
CONTINUOUS
10
0.586556
20
0.110342
11
0.588525
21
0.111772
0
LINE
8
BLACK
6
CONTINUOUS
10
0.588525
20
0.111772
11
0.590958
21
0.111772
0
LINE
8
BLACK
6
CONTINUOUS
10
0.590958
20
0.111772
11
0.592926
21
0.110342
0
LINE
8
BLACK
6
CONTINUOUS
10
0.592926
20
0.110342
11
0.593678
21
0.108028
0
LINE
8
BLACK
6
CONTINUOUS
10
0.593678
20
0.108028
11
0.593678
21
0.0568467
0
LINE
8
BLACK
6
CONTINUOUS
10
0.593678
20
0.0568467
11
0.59361
21
0.0566353
0
LINE
8
BLACK
6
CONTINUOUS
10
0.59361
20
0.0566353
11
0.593655
21
0.0564177
0
LINE
8
BLACK
6
CONTINUOUS
10
0.593655
20
0.0564177
11
0.593239
21
0.055495
0
LINE
8
BLACK
6
CONTINUOUS
10
0.593239
20
0.055495
11
0.592926
21
0.0545325
0
LINE
8
BLACK
6
CONTINUOUS
10
0.592926
20
0.0545325
11
0.592747
21
0.0544019
0
LINE
8
BLACK
6
CONTINUOUS
10
0.592747
20
0.0544019
11
0.592655
21
0.0541993
0
LINE
8
BLACK
6
CONTINUOUS
10
0.592655
20
0.0541993
11
0.591777
21
0.0536973
0
LINE
8
BLACK
6
CONTINUOUS
10
0.591777
20
0.0536973
11
0.590958
21
0.0531023
0
LINE
8
BLACK
6
CONTINUOUS
10
0.590958
20
0.0531023
11
0.590736
21
0.0531023
0
LINE
8
BLACK
6
CONTINUOUS
10
0.590736
20
0.0531023
11
0.590543
21
0.0529921
0
LINE
8
BLACK
6
CONTINUOUS
10
0.590543
20
0.0529921
11
0.589537
21
0.0531023
0
LINE
8
BLACK
6
CONTINUOUS
10
0.589537
20
0.0531023
11
0.588525
21
0.0531023
0
LINE
8
BLACK
6
CONTINUOUS
10
0.588525
20
0.0531023
11
0.588345
21
0.053233
0
LINE
8
BLACK
6
CONTINUOUS
10
0.588345
20
0.053233
11
0.588124
21
0.0532572
0
LINE
8
BLACK
6
CONTINUOUS
10
0.588124
20
0.0532572
11
0.587375
21
0.0539376
0
LINE
8
BLACK
6
CONTINUOUS
10
0.587375
20
0.0539376
11
0.586556
21
0.0545325
0
LINE
8
BLACK
6
CONTINUOUS
10
0.586556
20
0.0545325
11
0.586487
21
0.0547439
0
LINE
8
BLACK
6
CONTINUOUS
10
0.586487
20
0.0547439
11
0.586323
21
0.0548933
0
LINE
8
BLACK
6
CONTINUOUS
10
0.586323
20
0.0548933
11
0.564432
21
0.0932027
0
LINE
8
BLACK
6
CONTINUOUS
10
0.564432
20
0.0932027
11
0.564432
21
0.0568467
0
LINE
8
BLACK
6
CONTINUOUS
10
0.564432
20
0.0568467
11
0.56368
21
0.0545325
0
LINE
8
BLACK
6
CONTINUOUS
10
0.56368
20
0.0545325
11
0.561712
21
0.0531023
0
LINE
8
BLACK
6
CONTINUOUS
10
0.561712
20
0.0531023
11
0.559278
21
0.0531023
0
LINE
8
BLACK
6
CONTINUOUS
10
0.559278
20
0.0531023
11
0.55731
21
0.0545325
0
LINE
8
BLACK
6
CONTINUOUS
10
0.55731
20
0.0545325
11
0.556558
21
0.0568467
0
LINE
8
BLACK
6
CONTINUOUS
10
0.556558
20
0.0568467
11
0.556558
21
0.108028
0
LINE
8
BLACK
6
CONTINUOUS
10
0.556558
20
0.108028
11
0.556627
21
0.108239
0
LINE
8
BLACK
6
CONTINUOUS
10
0.556627
20
0.108239
11
0.556581
21
0.108457
0
LINE
8
BLACK
6
CONTINUOUS
10
0.556581
20
0.108457
11
0.556997
21
0.109379
0
LINE
8
BLACK
6
CONTINUOUS
10
0.556997
20
0.109379
11
0.55731
21
0.110342
0
LINE
8
BLACK
6
CONTINUOUS
10
0.55731
20
0.110342
11
0.55749
21
0.110473
0
LINE
8
BLACK
6
CONTINUOUS
10
0.55749
20
0.110473
11
0.557581
21
0.110675
0
LINE
8
BLACK
6
CONTINUOUS
10
0.557581
20
0.110675
11
0.558459
21
0.111177
0
LINE
8
BLACK
6
CONTINUOUS
10
0.558459
20
0.111177
11
0.559278
21
0.111772
0
LINE
8
BLACK
6
CONTINUOUS
10
0.559278
20
0.111772
11
0.559501
21
0.111772
0
LINE
8
BLACK
6
CONTINUOUS
10
0.559501
20
0.111772
11
0.559694
21
0.111882
0
LINE
8
BLACK
6
CONTINUOUS
10
0.559694
20
0.111882
11
0.5607
21
0.111772
0
LINE
8
BLACK
6
CONTINUOUS
10
0.539308
20
0.110342
11
0.54006
21
0.108028
0
LINE
8
BLACK
6
CONTINUOUS
10
0.54006
20
0.108028
11
0.54006
21
0.0568467
0
LINE
8
BLACK
6
CONTINUOUS
10
0.54006
20
0.0568467
11
0.539308
21
0.0545325
0
LINE
8
BLACK
6
CONTINUOUS
10
0.539308
20
0.0545325
11
0.53734
21
0.0531023
0
LINE
8
BLACK
6
CONTINUOUS
10
0.53734
20
0.0531023
11
0.534906
21
0.0531023
0
LINE
8
BLACK
6
CONTINUOUS
10
0.534906
20
0.0531023
11
0.532938
21
0.0545325
0
LINE
8
BLACK
6
CONTINUOUS
10
0.532938
20
0.0545325
11
0.532186
21
0.0568467
0
LINE
8
BLACK
6
CONTINUOUS
10
0.532186
20
0.0568467
11
0.532186
21
0.108028
0
LINE
8
BLACK
6
CONTINUOUS
10
0.532186
20
0.108028
11
0.532938
21
0.110342
0
LINE
8
BLACK
6
CONTINUOUS
10
0.532938
20
0.110342
11
0.534906
21
0.111772
0
LINE
8
BLACK
6
CONTINUOUS
10
0.534906
20
0.111772
11
0.53734
21
0.111772
0
LINE
8
BLACK
6
CONTINUOUS
10
0.53734
20
0.111772
11
0.539308
21
0.110342
0
LINE
8
BLACK
6
CONTINUOUS
10
0.720384
20
0.0978851
11
0.720513
21
0.0979079
0
LINE
8
BLACK
6
CONTINUOUS
10
0.720513
20
0.0979079
11
0.720626
21
0.0978423
0
LINE
8
BLACK
6
CONTINUOUS
10
0.720626
20
0.0978423
11
0.72101
21
0.0977747
0
LINE
8
BLACK
6
CONTINUOUS
10
0.72101
20
0.0977747
11
0.721598
21
0.0972815
0
LINE
8
BLACK
6
CONTINUOUS
10
0.721598
20
0.0972815
11
0.722262
21
0.096898
0
LINE
8
BLACK
6
CONTINUOUS
10
0.722262
20
0.096898
11
0.722353
21
0.0966476
0
LINE
8
BLACK
6
CONTINUOUS
10
0.722353
20
0.0966476
11
0.722557
21
0.0964764
0
LINE
8
BLACK
6
CONTINUOUS
10
0.722557
20
0.0964764
11
0.72269
21
0.0957208
0
LINE
8
BLACK
6
CONTINUOUS
10
0.72269
20
0.0957208
11
0.722953
21
0.095
0
LINE
8
BLACK
6
CONTINUOUS
10
0.722953
20
0.095
11
0.722953
21
0.0629528
0
LINE
8
BLACK
6
CONTINUOUS
10
0.722953
20
0.0629528
11
0.75
21
0.0629528
0
LINE
8
BLACK
6
CONTINUOUS
10
0.75
20
0.0629528
11
0.75101
21
0.0627747
0
LINE
8
BLACK
6
CONTINUOUS
10
0.75101
20
0.0627747
11
0.752557
21
0.0614764
0
LINE
8
BLACK
6
CONTINUOUS
10
0.752557
20
0.0614764
11
0.752908
21
0.0594872
0
LINE
8
BLACK
6
CONTINUOUS
10
0.752908
20
0.0594872
11
0.751898
21
0.0577381
0
LINE
8
BLACK
6
CONTINUOUS
10
0.751898
20
0.0577381
11
0.75
21
0.0570472
0
LINE
8
BLACK
6
CONTINUOUS
10
0.75
20
0.0570472
11
0.72
21
0.0570472
0
LINE
8
BLACK
6
CONTINUOUS
10
0.72
20
0.0570472
11
0.719616
21
0.0571149
0
LINE
8
BLACK
6
CONTINUOUS
10
0.719616
20
0.0571149
11
0.719487
21
0.0570921
0
LINE
8
BLACK
6
CONTINUOUS
10
0.719487
20
0.0570921
11
0.719374
21
0.0571577
0
LINE
8
BLACK
6
CONTINUOUS
10
0.719374
20
0.0571577
11
0.71899
21
0.0572253
0
LINE
8
BLACK
6
CONTINUOUS
10
0.71899
20
0.0572253
11
0.718402
21
0.0577185
0
LINE
8
BLACK
6
CONTINUOUS
10
0.718402
20
0.0577185
11
0.717738
21
0.058102
0
LINE
8
BLACK
6
CONTINUOUS
10
0.717738
20
0.058102
11
0.717647
21
0.0583524
0
LINE
8
BLACK
6
CONTINUOUS
10
0.717647
20
0.0583524
11
0.717443
21
0.0585236
0
LINE
8
BLACK
6
CONTINUOUS
10
0.717443
20
0.0585236
11
0.71731
21
0.0592792
0
LINE
8
BLACK
6
CONTINUOUS
10
0.71731
20
0.0592792
11
0.717047
21
0.06
0
LINE
8
BLACK
6
CONTINUOUS
10
0.717047
20
0.06
11
0.717047
21
0.0920472
0
LINE
8
BLACK
6
CONTINUOUS
10
0.717047
20
0.0920472
11
0.692953
21
0.0920472
0
LINE
8
BLACK
6
CONTINUOUS
10
0.692953
20
0.0920472
11
0.692953
21
0.06
0
LINE
8
BLACK
6
CONTINUOUS
10
0.692953
20
0.06
11
0.692885
21
0.0596165
0
LINE
8
BLACK
6
CONTINUOUS
10
0.692885
20
0.0596165
11
0.692908
21
0.0594872
0
LINE
8
BLACK
6
CONTINUOUS
10
0.692908
20
0.0594872
11
0.692842
21
0.0593736
0
LINE
8
BLACK
6
CONTINUOUS
10
0.692842
20
0.0593736
11
0.692775
21
0.0589901
0
LINE
8
BLACK
6
CONTINUOUS
10
0.692775
20
0.0589901
11
0.692282
21
0.0584024
0
LINE
8
BLACK
6
CONTINUOUS
10
0.692282
20
0.0584024
11
0.691898
21
0.0577381
0
LINE
8
BLACK
6
CONTINUOUS
10
0.691898
20
0.0577381
11
0.691648
21
0.057647
0
LINE
8
BLACK
6
CONTINUOUS
10
0.691648
20
0.057647
11
0.691476
21
0.0574428
0
LINE
8
BLACK
6
CONTINUOUS
10
0.691476
20
0.0574428
11
0.690721
21
0.0573096
0
LINE
8
BLACK
6
CONTINUOUS
10
0.690721
20
0.0573096
11
0.69
21
0.0570472
0
LINE
8
BLACK
6
CONTINUOUS
10
0.69
20
0.0570472
11
0.665
21
0.0570472
0
LINE
8
BLACK
6
CONTINUOUS
10
0.665
20
0.0570472
11
0.66399
21
0.0572253
0
LINE
8
BLACK
6
CONTINUOUS
10
0.66399
20
0.0572253
11
0.662443
21
0.0585236
0
LINE
8
BLACK
6
CONTINUOUS
10
0.662443
20
0.0585236
11
0.662092
21
0.0605128
0
LINE
8
BLACK
6
CONTINUOUS
10
0.662092
20
0.0605128
11
0.663102
21
0.0622619
0
LINE
8
BLACK
6
CONTINUOUS
10
0.663102
20
0.0622619
11
0.665
21
0.0629528
0
LINE
8
BLACK
6
CONTINUOUS
10
0.665
20
0.0629528
11
0.687047
21
0.0629528
0
LINE
8
BLACK
6
CONTINUOUS
10
0.687047
20
0.0629528
11
0.687047
21
0.095
0
LINE
8
BLACK
6
CONTINUOUS
10
0.687047
20
0.095
11
0.687115
21
0.0953835
0
LINE
8
BLACK
6
CONTINUOUS
10
0.687115
20
0.0953835
11
0.687092
21
0.0955128
0
LINE
8
BLACK
6
CONTINUOUS
10
0.687092
20
0.0955128
11
0.687158
21
0.0956264
0
LINE
8
BLACK
6
CONTINUOUS
10
0.687158
20
0.0956264
11
0.687225
21
0.0960099
0
LINE
8
BLACK
6
CONTINUOUS
10
0.687225
20
0.0960099
11
0.687718
21
0.0965976
0
LINE
8
BLACK
6
CONTINUOUS
10
0.687718
20
0.0965976
11
0.688102
21
0.0972619
0
LINE
8
BLACK
6
CONTINUOUS
10
0.688102
20
0.0972619
11
0.688352
21
0.097353
0
LINE
8
BLACK
6
CONTINUOUS
10
0.688352
20
0.097353
11
0.688524
21
0.0975572
0
LINE
8
BLACK
6
CONTINUOUS
10
0.688524
20
0.0975572
11
0.689279
21
0.0976904
0
LINE
8
BLACK
6
CONTINUOUS
10
0.689279
20
0.0976904
11
0.69
21
0.0979528
0
LINE
8
BLACK
6
CONTINUOUS
10
0.69
20
0.0979528
11
0.72
21
0.0979528
0
LINE
8
BLACK
6
CONTINUOUS
10
0.72
20
0.0979528
11
0.720384
21
0.0978851
0
LINE
8
BLACK
6
CONTINUOUS
10
-0.56166
20
0.129792
11
-0.561171
21
0.129826
0
LINE
8
BLACK
6
CONTINUOUS
10
-0.561171
20
0.129826
11
-0.552172
21
0.127576
0
LINE
8
BLACK
6
CONTINUOUS
10
-0.552172
20
0.127576
11
-0.5518
21
0.127344
0
LINE
8
BLACK
6
CONTINUOUS
10
-0.5518
20
0.127344
11
-0.551366
21
0.127278
0
LINE
8
BLACK
6
CONTINUOUS
10
-0.551366
20
0.127278
11
-0.546867
21
0.125029
0
LINE
8
BLACK
6
CONTINUOUS
10
-0.546867
20
0.125029
11
-0.546412
21
0.124581
0
LINE
8
BLACK
6
CONTINUOUS
10
-0.546412
20
0.124581
11
-0.545844
21
0.124291
0
LINE
8
BLACK
6
CONTINUOUS
10
-0.545844
20
0.124291
11
-0.543594
21
0.122041
0
LINE
8
BLACK
6
CONTINUOUS
10
-0.543594
20
0.122041
11
-0.543304
21
0.121473
0
LINE
8
BLACK
6
CONTINUOUS
10
-0.543304
20
0.121473
11
-0.542857
21
0.121018
0
LINE
8
BLACK
6
CONTINUOUS
10
-0.542857
20
0.121018
11
-0.540607
21
0.116519
0
LINE
8
BLACK
6
CONTINUOUS
10
-0.540607
20
0.116519
11
-0.540472
21
0.115621
0
LINE
8
BLACK
6
CONTINUOUS
10
-0.540472
20
0.115621
11
-0.540191
21
0.114758
0
LINE
8
BLACK
6
CONTINUOUS
10
-0.540191
20
0.114758
11
-0.540191
21
0.110259
0
LINE
8
BLACK
6
CONTINUOUS
10
-0.540191
20
0.110259
11
-0.540472
21
0.109396
0
LINE
8
BLACK
6
CONTINUOUS
10
-0.540472
20
0.109396
11
-0.540607
21
0.108498
0
LINE
8
BLACK
6
CONTINUOUS
10
-0.540607
20
0.108498
11
-0.542857
21
0.103999
0
LINE
8
BLACK
6
CONTINUOUS
10
-0.542857
20
0.103999
11
-0.543304
21
0.103544
0
LINE
8
BLACK
6
CONTINUOUS
10
-0.543304
20
0.103544
11
-0.543594
21
0.102975
0
LINE
8
BLACK
6
CONTINUOUS
10
-0.543594
20
0.102975
11
-0.545844
21
0.100726
0
LINE
8
BLACK
6
CONTINUOUS
10
-0.545844
20
0.100726
11
-0.546412
21
0.100436
0
LINE
8
BLACK
6
CONTINUOUS
10
-0.546412
20
0.100436
11
-0.546867
21
0.0999882
0
LINE
8
BLACK
6
CONTINUOUS
10
-0.546867
20
0.0999882
11
-0.551366
21
0.0977385
0
LINE
8
BLACK
6
CONTINUOUS
10
-0.551366
20
0.0977385
11
-0.5518
21
0.0976731
0
LINE
8
BLACK
6
CONTINUOUS
10
-0.5518
20
0.0976731
11
-0.552172
21
0.0974404
0
LINE
8
BLACK
6
CONTINUOUS
10
-0.552172
20
0.0974404
11
-0.561171
21
0.0951907
0
LINE
8
BLACK
6
CONTINUOUS
10
-0.561171
20
0.0951907
11
-0.56166
21
0.0952246
0
LINE
8
BLACK
6
CONTINUOUS
10
-0.56166
20
0.0952246
11
-0.562126
21
0.0950731
0
LINE
8
BLACK
6
CONTINUOUS
10
-0.562126
20
0.0950731
11
-0.573375
21
0.0950731
0
LINE
8
BLACK
6
CONTINUOUS
10
-0.573375
20
0.0950731
11
-0.573841
21
0.0952246
0
LINE
8
BLACK
6
CONTINUOUS
10
-0.573841
20
0.0952246
11
-0.574329
21
0.0951907
0
LINE
8
BLACK
6
CONTINUOUS
10
-0.574329
20
0.0951907
11
-0.583328
21
0.0974404
0
LINE
8
BLACK
6
CONTINUOUS
10
-0.583328
20
0.0974404
11
-0.5837
21
0.0976731
0
LINE
8
BLACK
6
CONTINUOUS
10
-0.5837
20
0.0976731
11
-0.584134
21
0.0977385
0
LINE
8
BLACK
6
CONTINUOUS
10
-0.584134
20
0.0977385
11
-0.588634
21
0.0999882
0
LINE
8
BLACK
6
CONTINUOUS
10
-0.588634
20
0.0999882
11
-0.589088
21
0.100436
0
LINE
8
BLACK
6
CONTINUOUS
10
-0.589088
20
0.100436
11
-0.589657
21
0.100726
0
LINE
8
BLACK
6
CONTINUOUS
10
-0.589657
20
0.100726
11
-0.591907
21
0.102975
0
LINE
8
BLACK
6
CONTINUOUS
10
-0.591907
20
0.102975
11
-0.592196
21
0.103544
0
LINE
8
BLACK
6
CONTINUOUS
10
-0.592196
20
0.103544
11
-0.592644
21
0.103999
0
LINE
8
BLACK
6
CONTINUOUS
10
-0.592644
20
0.103999
11
-0.594894
21
0.108498
0
LINE
8
BLACK
6
CONTINUOUS
10
-0.594894
20
0.108498
11
-0.595029
21
0.109396
0
LINE
8
BLACK
6
CONTINUOUS
10
-0.595029
20
0.109396
11
-0.595309
21
0.110259
0
LINE
8
BLACK
6
CONTINUOUS
10
-0.595309
20
0.110259
11
-0.595309
21
0.114758
0
LINE
8
BLACK
6
CONTINUOUS
10
-0.595309
20
0.114758
11
-0.595029
21
0.115621
0
LINE
8
BLACK
6
CONTINUOUS
10
-0.595029
20
0.115621
11
-0.594894
21
0.116519
0
LINE
8
BLACK
6
CONTINUOUS
10
-0.594894
20
0.116519
11
-0.592644
21
0.121018
0
LINE
8
BLACK
6
CONTINUOUS
10
-0.592644
20
0.121018
11
-0.592196
21
0.121473
0
LINE
8
BLACK
6
CONTINUOUS
10
-0.592196
20
0.121473
11
-0.591907
21
0.122041
0
LINE
8
BLACK
6
CONTINUOUS
10
-0.591907
20
0.122041
11
-0.589657
21
0.124291
0
LINE
8
BLACK
6
CONTINUOUS
10
-0.589657
20
0.124291
11
-0.589088
21
0.124581
0
LINE
8
BLACK
6
CONTINUOUS
10
-0.589088
20
0.124581
11
-0.588634
21
0.125029
0
LINE
8
BLACK
6
CONTINUOUS
10
-0.588634
20
0.125029
11
-0.584134
21
0.127278
0
LINE
8
BLACK
6
CONTINUOUS
10
-0.584134
20
0.127278
11
-0.5837
21
0.127344
0
LINE
8
BLACK
6
CONTINUOUS
10
-0.5837
20
0.127344
11
-0.583328
21
0.127576
0
LINE
8
BLACK
6
CONTINUOUS
10
-0.583328
20
0.127576
11
-0.574329
21
0.129826
0
LINE
8
BLACK
6
CONTINUOUS
10
-0.574329
20
0.129826
11
-0.573841
21
0.129792
0
LINE
8
BLACK
6
CONTINUOUS
10
-0.573841
20
0.129792
11
-0.573375
21
0.129944
0
LINE
8
BLACK
6
CONTINUOUS
10
-0.573375
20
0.129944
11
-0.562126
21
0.129944
0
LINE
8
BLACK
6
CONTINUOUS
10
-0.562126
20
0.129944
11
-0.56166
21
0.129792
0
LINE
8
BLACK
6
CONTINUOUS
10
-0.57289
20
0.12207
11
-0.580999
21
0.120042
0
LINE
8
BLACK
6
CONTINUOUS
10
-0.580999
20
0.120042
11
-0.584541
21
0.118272
0
LINE
8
BLACK
6
CONTINUOUS
10
-0.584541
20
0.118272
11
-0.585887
21
0.116925
0
LINE
8
BLACK
6
CONTINUOUS
10
-0.585887
20
0.116925
11
-0.587435
21
0.113829
0
LINE
8
BLACK
6
CONTINUOUS
10
-0.587435
20
0.113829
11
-0.587435
21
0.111188
0
LINE
8
BLACK
6
CONTINUOUS
10
-0.587435
20
0.111188
11
-0.585887
21
0.108091
0
LINE
8
BLACK
6
CONTINUOUS
10
-0.585887
20
0.108091
11
-0.584541
21
0.106745
0
LINE
8
BLACK
6
CONTINUOUS
10
-0.584541
20
0.106745
11
-0.580999
21
0.104974
0
LINE
8
BLACK
6
CONTINUOUS
10
-0.580999
20
0.104974
11
-0.57289
21
0.102947
0
LINE
8
BLACK
6
CONTINUOUS
10
-0.57289
20
0.102947
11
-0.562611
21
0.102947
0
LINE
8
BLACK
6
CONTINUOUS
10
-0.562611
20
0.102947
11
-0.554501
21
0.104974
0
LINE
8
BLACK
6
CONTINUOUS
10
-0.554501
20
0.104974
11
-0.55096
21
0.106745
0
LINE
8
BLACK
6
CONTINUOUS
10
-0.55096
20
0.106745
11
-0.549614
21
0.108091
0
LINE
8
BLACK
6
CONTINUOUS
10
-0.549614
20
0.108091
11
-0.548065
21
0.111188
0
LINE
8
BLACK
6
CONTINUOUS
10
-0.548065
20
0.111188
11
-0.548065
21
0.113829
0
LINE
8
BLACK
6
CONTINUOUS
10
-0.548065
20
0.113829
11
-0.549614
21
0.116926
0
LINE
8
BLACK
6
CONTINUOUS
10
-0.549614
20
0.116926
11
-0.55096
21
0.118272
0
LINE
8
BLACK
6
CONTINUOUS
10
-0.55096
20
0.118272
11
-0.554501
21
0.120042
0
LINE
8
BLACK
6
CONTINUOUS
10
-0.554501
20
0.120042
11
-0.562611
21
0.12207
0
LINE
8
BLACK
6
CONTINUOUS
10
-0.562611
20
0.12207
11
-0.57289
21
0.12207
0
LINE
8
BLACK
6
CONTINUOUS
10
-0.492914
20
0.164858
11
-0.492757
21
0.164866
0
LINE
8
BLACK
6
CONTINUOUS
10
-0.492757
20
0.164866
11
-0.483008
21
0.162522
0
LINE
8
BLACK
6
CONTINUOUS
10
-0.483008
20
0.162522
11
-0.482207
21
0.162202
0
LINE
8
BLACK
6
CONTINUOUS
10
-0.482207
20
0.162202
11
-0.482026
21
0.162172
0
LINE
8
BLACK
6
CONTINUOUS
10
-0.482026
20
0.162172
11
-0.477152
21
0.159829
0
LINE
8
BLACK
6
CONTINUOUS
10
-0.477152
20
0.159829
11
-0.47598
21
0.159041
0
LINE
8
BLACK
6
CONTINUOUS
10
-0.47598
20
0.159041
11
-0.47594
21
0.158976
0
LINE
8
BLACK
6
CONTINUOUS
10
-0.47594
20
0.158976
11
-0.475873
21
0.158941
0
LINE
8
BLACK
6
CONTINUOUS
10
-0.475873
20
0.158941
11
-0.470999
21
0.154254
0
LINE
8
BLACK
6
CONTINUOUS
10
-0.470999
20
0.154254
11
-0.470131
21
0.153139
0
LINE
8
BLACK
6
CONTINUOUS
10
-0.470131
20
0.153139
11
-0.470026
21
0.152693
0
LINE
8
BLACK
6
CONTINUOUS
10
-0.470026
20
0.152693
11
-0.46976
21
0.152319
0
LINE
8
BLACK
6
CONTINUOUS
10
-0.46976
20
0.152319
11
-0.467322
21
0.145288
0
LINE
8
BLACK
6
CONTINUOUS
10
-0.467322
20
0.145288
11
-0.467056
21
0.143901
0
LINE
8
BLACK
6
CONTINUOUS
10
-0.467056
20
0.143901
11
-0.467084
21
0.143788
0
LINE
8
BLACK
6
CONTINUOUS
10
-0.467084
20
0.143788
11
-0.467051
21
0.143676
0
LINE
8
BLACK
6
CONTINUOUS
10
-0.467051
20
0.143676
11
-0.467051
21
0.13899
0
LINE
8
BLACK
6
CONTINUOUS
10
-0.467051
20
0.13899
11
-0.467254
21
0.137592
0
LINE
8
BLACK
6
CONTINUOUS
10
-0.467254
20
0.137592
11
-0.467317
21
0.137494
0
LINE
8
BLACK
6
CONTINUOUS
10
-0.467317
20
0.137494
11
-0.467322
21
0.137378
0
LINE
8
BLACK
6
CONTINUOUS
10
-0.467322
20
0.137378
11
-0.46976
21
0.130347
0
LINE
8
BLACK
6
CONTINUOUS
10
-0.46976
20
0.130347
11
-0.470409
21
0.129093
0
LINE
8
BLACK
6
CONTINUOUS
10
-0.470409
20
0.129093
11
-0.470771
21
0.12881
0
LINE
8
BLACK
6
CONTINUOUS
10
-0.470771
20
0.12881
11
-0.470999
21
0.128412
0
LINE
8
BLACK
6
CONTINUOUS
10
-0.470999
20
0.128412
11
-0.473436
21
0.126068
0
LINE
8
BLACK
6
CONTINUOUS
10
-0.473436
20
0.126068
11
-0.474584
21
0.125246
0
LINE
8
BLACK
6
CONTINUOUS
10
-0.474584
20
0.125246
11
-0.477303
21
0.124716
0
LINE
8
BLACK
6
CONTINUOUS
10
-0.477303
20
0.124716
11
-0.479878
21
0.125739
0
LINE
8
BLACK
6
CONTINUOUS
10
-0.479878
20
0.125739
11
-0.481492
21
0.127991
0
LINE
8
BLACK
6
CONTINUOUS
10
-0.481492
20
0.127991
11
-0.481633
21
0.130758
0
LINE
8
BLACK
6
CONTINUOUS
10
-0.481633
20
0.130758
11
-0.480258
21
0.133163
0
LINE
8
BLACK
6
CONTINUOUS
10
-0.480258
20
0.133163
11
-0.478672
21
0.134688
0
LINE
8
BLACK
6
CONTINUOUS
10
-0.478672
20
0.134688
11
-0.476894
21
0.139818
0
LINE
8
BLACK
6
CONTINUOUS
10
-0.476894
20
0.139818
11
-0.476894
21
0.142848
0
LINE
8
BLACK
6
CONTINUOUS
10
-0.476894
20
0.142848
11
-0.478672
21
0.147978
0
LINE
8
BLACK
6
CONTINUOUS
10
-0.478672
20
0.147978
11
-0.482127
21
0.1513
0
LINE
8
BLACK
6
CONTINUOUS
10
-0.482127
20
0.1513
11
-0.485818
21
0.153075
0
LINE
8
BLACK
6
CONTINUOUS
10
-0.485818
20
0.153075
11
-0.49449
21
0.155159
0
LINE
8
BLACK
6
CONTINUOUS
10
-0.49449
20
0.155159
11
-0.500635
21
0.155159
0
LINE
8
BLACK
6
CONTINUOUS
10
-0.500635
20
0.155159
11
-0.509308
21
0.153075
0
LINE
8
BLACK
6
CONTINUOUS
10
-0.509308
20
0.153075
11
-0.512999
21
0.1513
0
LINE
8
BLACK
6
CONTINUOUS
10
-0.512999
20
0.1513
11
-0.516453
21
0.147978
0
LINE
8
BLACK
6
CONTINUOUS
10
-0.516453
20
0.147978
11
-0.518232
21
0.142848
0
LINE
8
BLACK
6
CONTINUOUS
10
-0.518232
20
0.142848
11
-0.518232
21
0.139818
0
LINE
8
BLACK
6
CONTINUOUS
10
-0.518232
20
0.139818
11
-0.516453
21
0.134688
0
LINE
8
BLACK
6
CONTINUOUS
10
-0.516453
20
0.134688
11
-0.514868
21
0.133163
0
LINE
8
BLACK
6
CONTINUOUS
10
-0.514868
20
0.133163
11
-0.514001
21
0.132048
0
LINE
8
BLACK
6
CONTINUOUS
10
-0.514001
20
0.132048
11
-0.513365
21
0.129352
0
LINE
8
BLACK
6
CONTINUOUS
10
-0.513365
20
0.129352
11
-0.514286
21
0.126739
0
LINE
8
BLACK
6
CONTINUOUS
10
-0.514286
20
0.126739
11
-0.516473
21
0.125038
0
LINE
8
BLACK
6
CONTINUOUS
10
-0.516473
20
0.125038
11
-0.519233
21
0.124788
0
LINE
8
BLACK
6
CONTINUOUS
10
-0.519233
20
0.124788
11
-0.52169
21
0.126068
0
LINE
8
BLACK
6
CONTINUOUS
10
-0.52169
20
0.126068
11
-0.524127
21
0.128412
0
LINE
8
BLACK
6
CONTINUOUS
10
-0.524127
20
0.128412
11
-0.524994
21
0.129527
0
LINE
8
BLACK
6
CONTINUOUS
10
-0.524994
20
0.129527
11
-0.5251
21
0.129973
0
LINE
8
BLACK
6
CONTINUOUS
10
-0.5251
20
0.129973
11
-0.525366
21
0.130347
0
LINE
8
BLACK
6
CONTINUOUS
10
-0.525366
20
0.130347
11
-0.527803
21
0.137378
0
LINE
8
BLACK
6
CONTINUOUS
10
-0.527803
20
0.137378
11
-0.528069
21
0.138765
0
LINE
8
BLACK
6
CONTINUOUS
10
-0.528069
20
0.138765
11
-0.528042
21
0.138878
0
LINE
8
BLACK
6
CONTINUOUS
10
-0.528042
20
0.138878
11
-0.528075
21
0.13899
0
LINE
8
BLACK
6
CONTINUOUS
10
-0.528075
20
0.13899
11
-0.528075
21
0.143676
0
LINE
8
BLACK
6
CONTINUOUS
10
-0.528075
20
0.143676
11
-0.527872
21
0.145074
0
LINE
8
BLACK
6
CONTINUOUS
10
-0.527872
20
0.145074
11
-0.527809
21
0.145172
0
LINE
8
BLACK
6
CONTINUOUS
10
-0.527809
20
0.145172
11
-0.527803
21
0.145288
0
LINE
8
BLACK
6
CONTINUOUS
10
-0.527803
20
0.145288
11
-0.525366
21
0.152319
0
LINE
8
BLACK
6
CONTINUOUS
10
-0.525366
20
0.152319
11
-0.524717
21
0.153573
0
LINE
8
BLACK
6
CONTINUOUS
10
-0.524717
20
0.153573
11
-0.524355
21
0.153856
0
LINE
8
BLACK
6
CONTINUOUS
10
-0.524355
20
0.153856
11
-0.524127
21
0.154254
0
LINE
8
BLACK
6
CONTINUOUS
10
-0.524127
20
0.154254
11
-0.519253
21
0.158941
0
LINE
8
BLACK
6
CONTINUOUS
10
-0.519253
20
0.158941
11
-0.518105
21
0.159764
0
LINE
8
BLACK
6
CONTINUOUS
10
-0.518105
20
0.159764
11
-0.51803
21
0.159778
0
LINE
8
BLACK
6
CONTINUOUS
10
-0.51803
20
0.159778
11
-0.517974
21
0.159829
0
LINE
8
BLACK
6
CONTINUOUS
10
-0.517974
20
0.159829
11
-0.5131
21
0.162172
0
LINE
8
BLACK
6
CONTINUOUS
10
-0.5131
20
0.162172
11
-0.512277
21
0.162431
0
LINE
8
BLACK
6
CONTINUOUS
10
-0.512277
20
0.162431
11
-0.512118
21
0.162522
0
LINE
8
BLACK
6
CONTINUOUS
10
-0.512118
20
0.162522
11
-0.502369
21
0.164866
0
LINE
8
BLACK
6
CONTINUOUS
10
-0.502369
20
0.164866
11
-0.501369
21
0.164958
0
LINE
8
BLACK
6
CONTINUOUS
10
-0.501369
20
0.164958
11
-0.501219
21
0.165002
0
LINE
8
BLACK
6
CONTINUOUS
10
-0.501219
20
0.165002
11
-0.493907
21
0.165002
0
LINE
8
BLACK
6
CONTINUOUS
10
-0.493907
20
0.165002
11
-0.492914
21
0.164858
0
LINE
8
BLACK
6
CONTINUOUS
10
-0.543737
20
0.172669
11
-0.543342
21
0.172496
0
LINE
8
BLACK
6
CONTINUOUS
10
-0.543342
20
0.172496
11
-0.542912
21
0.172496
0
LINE
8
BLACK
6
CONTINUOUS
10
-0.542912
20
0.172496
11
-0.542254
21
0.172018
0
LINE
8
BLACK
6
CONTINUOUS
10
-0.542254
20
0.172018
11
-0.541509
21
0.17169
0
LINE
8
BLACK
6
CONTINUOUS
10
-0.541509
20
0.17169
11
-0.541292
21
0.171319
0
LINE
8
BLACK
6
CONTINUOUS
10
-0.541292
20
0.171319
11
-0.540943
21
0.171066
0
LINE
8
BLACK
6
CONTINUOUS
10
-0.540943
20
0.171066
11
-0.540692
21
0.170292
0
LINE
8
BLACK
6
CONTINUOUS
10
-0.540692
20
0.170292
11
-0.540281
21
0.169589
0
LINE
8
BLACK
6
CONTINUOUS
10
-0.540281
20
0.169589
11
-0.540324
21
0.169161
0
LINE
8
BLACK
6
CONTINUOUS
10
-0.540324
20
0.169161
11
-0.540191
21
0.168751
0
LINE
8
BLACK
6
CONTINUOUS
10
-0.540191
20
0.168751
11
-0.540191
21
0.146254
0
LINE
8
BLACK
6
CONTINUOUS
10
-0.540191
20
0.146254
11
-0.540943
21
0.14394
0
LINE
8
BLACK
6
CONTINUOUS
10
-0.540943
20
0.14394
11
-0.542912
21
0.14251
0
LINE
8
BLACK
6
CONTINUOUS
10
-0.542912
20
0.14251
11
-0.545345
21
0.14251
0
LINE
8
BLACK
6
CONTINUOUS
10
-0.545345
20
0.14251
11
-0.547313
21
0.14394
0
LINE
8
BLACK
6
CONTINUOUS
10
-0.547313
20
0.14394
11
-0.548065
21
0.146254
0
LINE
8
BLACK
6
CONTINUOUS
10
-0.548065
20
0.146254
11
-0.548065
21
0.165188
0
LINE
8
BLACK
6
CONTINUOUS
10
-0.548065
20
0.165188
11
-0.558726
21
0.166254
0
LINE
8
BLACK
6
CONTINUOUS
10
-0.558726
20
0.166254
11
-0.558605
21
0.166013
0
LINE
8
BLACK
6
CONTINUOUS
10
-0.558605
20
0.166013
11
-0.558469
21
0.165115
0
LINE
8
BLACK
6
CONTINUOUS
10
-0.558469
20
0.165115
11
-0.558189
21
0.164252
0
LINE
8
BLACK
6
CONTINUOUS
10
-0.558189
20
0.164252
11
-0.558189
21
0.153003
0
LINE
8
BLACK
6
CONTINUOUS
10
-0.558189
20
0.153003
11
-0.558469
21
0.15214
0
LINE
8
BLACK
6
CONTINUOUS
10
-0.558469
20
0.15214
11
-0.558605
21
0.151243
0
LINE
8
BLACK
6
CONTINUOUS
10
-0.558605
20
0.151243
11
-0.560854
21
0.146743
0
LINE
8
BLACK
6
CONTINUOUS
10
-0.560854
20
0.146743
11
-0.561302
21
0.146289
0
LINE
8
BLACK
6
CONTINUOUS
10
-0.561302
20
0.146289
11
-0.561592
21
0.14572
0
LINE
8
BLACK
6
CONTINUOUS
10
-0.561592
20
0.14572
11
-0.563842
21
0.14347
0
LINE
8
BLACK
6
CONTINUOUS
10
-0.563842
20
0.14347
11
-0.56441
21
0.143181
0
LINE
8
BLACK
6
CONTINUOUS
10
-0.56441
20
0.143181
11
-0.564865
21
0.142733
0
LINE
8
BLACK
6
CONTINUOUS
10
-0.564865
20
0.142733
11
-0.569364
21
0.140483
0
LINE
8
BLACK
6
CONTINUOUS
10
-0.569364
20
0.140483
11
-0.570262
21
0.140348
0
LINE
8
BLACK
6
CONTINUOUS
10
-0.570262
20
0.140348
11
-0.571125
21
0.140068
0
LINE
8
BLACK
6
CONTINUOUS
10
-0.571125
20
0.140068
11
-0.582373
21
0.140068
0
LINE
8
BLACK
6
CONTINUOUS
10
-0.582373
20
0.140068
11
-0.583237
21
0.140348
0
LINE
8
BLACK
6
CONTINUOUS
10
-0.583237
20
0.140348
11
-0.584134
21
0.140483
0
LINE
8
BLACK
6
CONTINUOUS
10
-0.584134
20
0.140483
11
-0.588634
21
0.142733
0
LINE
8
BLACK
6
CONTINUOUS
10
-0.588634
20
0.142733
11
-0.589088
21
0.143181
0
LINE
8
BLACK
6
CONTINUOUS
10
-0.589088
20
0.143181
11
-0.589657
21
0.14347
0
LINE
8
BLACK
6
CONTINUOUS
10
-0.589657
20
0.14347
11
-0.591906
21
0.14572
0
LINE
8
BLACK
6
CONTINUOUS
10
-0.591906
20
0.14572
11
-0.592196
21
0.146289
0
LINE
8
BLACK
6
CONTINUOUS
10
-0.592196
20
0.146289
11
-0.592644
21
0.146743
0
LINE
8
BLACK
6
CONTINUOUS
10
-0.592644
20
0.146743
11
-0.594894
21
0.151243
0
LINE
8
BLACK
6
CONTINUOUS
10
-0.594894
20
0.151243
11
-0.595029
21
0.15214
0
LINE
8
BLACK
6
CONTINUOUS
10
-0.595029
20
0.15214
11
-0.595309
21
0.153003
0
LINE
8
BLACK
6
CONTINUOUS
10
-0.595309
20
0.153003
11
-0.595309
21
0.164252
0
LINE
8
BLACK
6
CONTINUOUS
10
-0.595309
20
0.164252
11
-0.595029
21
0.165115
0
LINE
8
BLACK
6
CONTINUOUS
10
-0.595029
20
0.165115
11
-0.594894
21
0.166013
0
LINE
8
BLACK
6
CONTINUOUS
10
-0.594894
20
0.166013
11
-0.592644
21
0.170512
0
LINE
8
BLACK
6
CONTINUOUS
10
-0.592644
20
0.170512
11
-0.592196
21
0.170967
0
LINE
8
BLACK
6
CONTINUOUS
10
-0.592196
20
0.170967
11
-0.591907
21
0.171535
0
LINE
8
BLACK
6
CONTINUOUS
10
-0.591907
20
0.171535
11
-0.589657
21
0.173785
0
LINE
8
BLACK
6
CONTINUOUS
10
-0.589657
20
0.173785
11
-0.587489
21
0.17489
0
LINE
8
BLACK
6
CONTINUOUS
10
-0.587489
20
0.17489
11
-0.585086
21
0.174509
0
LINE
8
BLACK
6
CONTINUOUS
10
-0.585086
20
0.174509
11
-0.583365
21
0.172789
0
LINE
8
BLACK
6
CONTINUOUS
10
-0.583365
20
0.172789
11
-0.582984
21
0.170385
0
LINE
8
BLACK
6
CONTINUOUS
10
-0.582984
20
0.170385
11
-0.584089
21
0.168217
0
LINE
8
BLACK
6
CONTINUOUS
10
-0.584089
20
0.168217
11
-0.585887
21
0.166419
0
LINE
8
BLACK
6
CONTINUOUS
10
-0.585887
20
0.166419
11
-0.587435
21
0.163323
0
LINE
8
BLACK
6
CONTINUOUS
10
-0.587435
20
0.163323
11
-0.587435
21
0.153933
0
LINE
8
BLACK
6
CONTINUOUS
10
-0.587435
20
0.153933
11
-0.585887
21
0.150836
0
LINE
8
BLACK
6
CONTINUOUS
10
-0.585887
20
0.150836
11
-0.584541
21
0.14949
0
LINE
8
BLACK
6
CONTINUOUS
10
-0.584541
20
0.14949
11
-0.581444
21
0.147942
0
LINE
8
BLACK
6
CONTINUOUS
10
-0.581444
20
0.147942
11
-0.572054
21
0.147942
0
LINE
8
BLACK
6
CONTINUOUS
10
-0.572054
20
0.147942
11
-0.568958
21
0.14949
0
LINE
8
BLACK
6
CONTINUOUS
10
-0.568958
20
0.14949
11
-0.567611
21
0.150836
0
LINE
8
BLACK
6
CONTINUOUS
10
-0.567611
20
0.150836
11
-0.566063
21
0.153933
0
LINE
8
BLACK
6
CONTINUOUS
10
-0.566063
20
0.153933
11
-0.566063
21
0.163323
0
LINE
8
BLACK
6
CONTINUOUS
10
-0.566063
20
0.163323
11
-0.567611
21
0.166419
0
LINE
8
BLACK
6
CONTINUOUS
10
-0.567611
20
0.166419
11
-0.569409
21
0.168217
0
LINE
8
BLACK
6
CONTINUOUS
10
-0.569409
20
0.168217
11
-0.569913
21
0.169205
0
LINE
8
BLACK
6
CONTINUOUS
10
-0.569913
20
0.169205
11
-0.570472
21
0.170163
0
LINE
8
BLACK
6
CONTINUOUS
10
-0.570472
20
0.170163
11
-0.570461
21
0.17028
0
LINE
8
BLACK
6
CONTINUOUS
10
-0.570461
20
0.17028
11
-0.570514
21
0.170385
0
LINE
8
BLACK
6
CONTINUOUS
10
-0.570514
20
0.170385
11
-0.57034
21
0.171481
0
LINE
8
BLACK
6
CONTINUOUS
10
-0.57034
20
0.171481
11
-0.57023
21
0.172584
0
LINE
8
BLACK
6
CONTINUOUS
10
-0.57023
20
0.172584
11
-0.570152
21
0.172672
0
LINE
8
BLACK
6
CONTINUOUS
10
-0.570152
20
0.172672
11
-0.570133
21
0.172789
0
LINE
8
BLACK
6
CONTINUOUS
10
-0.570133
20
0.172789
11
-0.569349
21
0.173573
0
LINE
8
BLACK
6
CONTINUOUS
10
-0.569349
20
0.173573
11
-0.568611
21
0.174401
0
LINE
8
BLACK
6
CONTINUOUS
10
-0.568611
20
0.174401
11
-0.568496
21
0.174426
0
LINE
8
BLACK
6
CONTINUOUS
10
-0.568496
20
0.174426
11
-0.568413
21
0.174509
0
LINE
8
BLACK
6
CONTINUOUS
10
-0.568413
20
0.174509
11
-0.567317
21
0.174683
0
LINE
8
BLACK
6
CONTINUOUS
10
-0.567317
20
0.174683
11
-0.566234
21
0.174919
0
LINE
8
BLACK
6
CONTINUOUS
10
-0.566234
20
0.174919
11
-0.543737
21
0.172669
0
LINE
8
BLACK
6
CONTINUOUS
10
0.626176
20
0.211213
11
0.627606
21
0.209244
0
LINE
8
BLACK
6
CONTINUOUS
10
0.627606
20
0.209244
11
0.627606
21
0.206811
0
LINE
8
BLACK
6
CONTINUOUS
10
0.627606
20
0.206811
11
0.626176
21
0.204843
0
LINE
8
BLACK
6
CONTINUOUS
10
0.626176
20
0.204843
11
0.623862
21
0.204091
0
LINE
8
BLACK
6
CONTINUOUS
10
0.623862
20
0.204091
11
0.603053
21
0.204091
0
LINE
8
BLACK
6
CONTINUOUS
10
0.603053
20
0.204091
11
0.601809
21
0.191654
0
LINE
8
BLACK
6
CONTINUOUS
10
0.601809
20
0.191654
11
0.602604
21
0.192052
0
LINE
8
BLACK
6
CONTINUOUS
10
0.602604
20
0.192052
11
0.603501
21
0.192187
0
LINE
8
BLACK
6
CONTINUOUS
10
0.603501
20
0.192187
11
0.604364
21
0.192467
0
LINE
8
BLACK
6
CONTINUOUS
10
0.604364
20
0.192467
11
0.61655
21
0.192467
0
LINE
8
BLACK
6
CONTINUOUS
10
0.61655
20
0.192467
11
0.617414
21
0.192187
0
LINE
8
BLACK
6
CONTINUOUS
10
0.617414
20
0.192187
11
0.618311
21
0.192052
0
LINE
8
BLACK
6
CONTINUOUS
10
0.618311
20
0.192052
11
0.623186
21
0.189614
0
LINE
8
BLACK
6
CONTINUOUS
10
0.623186
20
0.189614
11
0.62364
21
0.189167
0
LINE
8
BLACK
6
CONTINUOUS
10
0.62364
20
0.189167
11
0.624209
21
0.188877
0
LINE
8
BLACK
6
CONTINUOUS
10
0.624209
20
0.188877
11
0.626646
21
0.18644
0
LINE
8
BLACK
6
CONTINUOUS
10
0.626646
20
0.18644
11
0.626936
21
0.185871
0
LINE
8
BLACK
6
CONTINUOUS
10
0.626936
20
0.185871
11
0.627383
21
0.185416
0
LINE
8
BLACK
6
CONTINUOUS
10
0.627383
20
0.185416
11
0.629821
21
0.180542
0
LINE
8
BLACK
6
CONTINUOUS
10
0.629821
20
0.180542
11
0.629956
21
0.179645
0
LINE
8
BLACK
6
CONTINUOUS
10
0.629956
20
0.179645
11
0.630236
21
0.178781
0
LINE
8
BLACK
6
CONTINUOUS
10
0.630236
20
0.178781
11
0.630236
21
0.166595
0
LINE
8
BLACK
6
CONTINUOUS
10
0.630236
20
0.166595
11
0.629956
21
0.165732
0
LINE
8
BLACK
6
CONTINUOUS
10
0.629956
20
0.165732
11
0.629821
21
0.164835
0
LINE
8
BLACK
6
CONTINUOUS
10
0.629821
20
0.164835
11
0.627383
21
0.15996
0
LINE
8
BLACK
6
CONTINUOUS
10
0.627383
20
0.15996
11
0.626936
21
0.159506
0
LINE
8
BLACK
6
CONTINUOUS
10
0.626936
20
0.159506
11
0.626646
21
0.158937
0
LINE
8
BLACK
6
CONTINUOUS
10
0.626646
20
0.158937
11
0.624209
21
0.1565
0
LINE
8
BLACK
6
CONTINUOUS
10
0.624209
20
0.1565
11
0.62364
21
0.15621
0
LINE
8
BLACK
6
CONTINUOUS
10
0.62364
20
0.15621
11
0.623186
21
0.155762
0
LINE
8
BLACK
6
CONTINUOUS
10
0.623186
20
0.155762
11
0.618311
21
0.153325
0
LINE
8
BLACK
6
CONTINUOUS
10
0.618311
20
0.153325
11
0.617414
21
0.15319
0
LINE
8
BLACK
6
CONTINUOUS
10
0.617414
20
0.15319
11
0.61655
21
0.15291
0
LINE
8
BLACK
6
CONTINUOUS
10
0.61655
20
0.15291
11
0.604364
21
0.15291
0
LINE
8
BLACK
6
CONTINUOUS
10
0.604364
20
0.15291
11
0.603501
21
0.15319
0
LINE
8
BLACK
6
CONTINUOUS
10
0.603501
20
0.15319
11
0.602604
21
0.153325
0
LINE
8
BLACK
6
CONTINUOUS
10
0.602604
20
0.153325
11
0.597729
21
0.155762
0
LINE
8
BLACK
6
CONTINUOUS
10
0.597729
20
0.155762
11
0.597275
21
0.15621
0
LINE
8
BLACK
6
CONTINUOUS
10
0.597275
20
0.15621
11
0.596706
21
0.1565
0
LINE
8
BLACK
6
CONTINUOUS
10
0.596706
20
0.1565
11
0.594269
21
0.158937
0
LINE
8
BLACK
6
CONTINUOUS
10
0.594269
20
0.158937
11
0.593164
21
0.161105
0
LINE
8
BLACK
6
CONTINUOUS
10
0.593164
20
0.161105
11
0.593545
21
0.163508
0
LINE
8
BLACK
6
CONTINUOUS
10
0.593545
20
0.163508
11
0.595265
21
0.165229
0
LINE
8
BLACK
6
CONTINUOUS
10
0.595265
20
0.165229
11
0.597669
21
0.16561
0
LINE
8
BLACK
6
CONTINUOUS
10
0.597669
20
0.16561
11
0.599837
21
0.164505
0
LINE
8
BLACK
6
CONTINUOUS
10
0.599837
20
0.164505
11
0.601822
21
0.162519
0
LINE
8
BLACK
6
CONTINUOUS
10
0.601822
20
0.162519
11
0.605294
21
0.160784
0
LINE
8
BLACK
6
CONTINUOUS
10
0.605294
20
0.160784
11
0.615621
21
0.160784
0
LINE
8
BLACK
6
CONTINUOUS
10
0.615621
20
0.160784
11
0.619093
21
0.162519
0
LINE
8
BLACK
6
CONTINUOUS
10
0.619093
20
0.162519
11
0.620626
21
0.164053
0
LINE
8
BLACK
6
CONTINUOUS
10
0.620626
20
0.164053
11
0.622362
21
0.167525
0
LINE
8
BLACK
6
CONTINUOUS
10
0.622362
20
0.167525
11
0.622362
21
0.177852
0
LINE
8
BLACK
6
CONTINUOUS
10
0.622362
20
0.177852
11
0.620626
21
0.181324
0
LINE
8
BLACK
6
CONTINUOUS
10
0.620626
20
0.181324
11
0.619093
21
0.182857
0
LINE
8
BLACK
6
CONTINUOUS
10
0.619093
20
0.182857
11
0.615621
21
0.184593
0
LINE
8
BLACK
6
CONTINUOUS
10
0.615621
20
0.184593
11
0.605294
21
0.184593
0
LINE
8
BLACK
6
CONTINUOUS
10
0.605294
20
0.184593
11
0.601822
21
0.182857
0
LINE
8
BLACK
6
CONTINUOUS
10
0.601822
20
0.182857
11
0.599837
21
0.180872
0
LINE
8
BLACK
6
CONTINUOUS
10
0.599837
20
0.180872
11
0.598849
21
0.180368
0
LINE
8
BLACK
6
CONTINUOUS
10
0.598849
20
0.180368
11
0.597891
21
0.179809
0
LINE
8
BLACK
6
CONTINUOUS
10
0.597891
20
0.179809
11
0.597774
21
0.179821
0
LINE
8
BLACK
6
CONTINUOUS
10
0.597774
20
0.179821
11
0.597669
21
0.179767
0
LINE
8
BLACK
6
CONTINUOUS
10
0.597669
20
0.179767
11
0.596573
21
0.179941
0
LINE
8
BLACK
6
CONTINUOUS
10
0.596573
20
0.179941
11
0.59547
21
0.180051
0
LINE
8
BLACK
6
CONTINUOUS
10
0.59547
20
0.180051
11
0.595382
21
0.180129
0
LINE
8
BLACK
6
CONTINUOUS
10
0.595382
20
0.180129
11
0.595265
21
0.180148
0
LINE
8
BLACK
6
CONTINUOUS
10
0.595265
20
0.180148
11
0.594481
21
0.180932
0
LINE
8
BLACK
6
CONTINUOUS
10
0.594481
20
0.180932
11
0.593653
21
0.18167
0
LINE
8
BLACK
6
CONTINUOUS
10
0.593653
20
0.18167
11
0.593628
21
0.181785
0
LINE
8
BLACK
6
CONTINUOUS
10
0.593628
20
0.181785
11
0.593545
21
0.181869
0
LINE
8
BLACK
6
CONTINUOUS
10
0.593545
20
0.181869
11
0.593371
21
0.182964
0
LINE
8
BLACK
6
CONTINUOUS
10
0.593371
20
0.182964
11
0.593135
21
0.184048
0
LINE
8
BLACK
6
CONTINUOUS
10
0.593135
20
0.184048
11
0.595573
21
0.20842
0
LINE
8
BLACK
6
CONTINUOUS
10
0.595573
20
0.20842
11
0.595746
21
0.208814
0
LINE
8
BLACK
6
CONTINUOUS
10
0.595746
20
0.208814
11
0.595746
21
0.209244
0
LINE
8
BLACK
6
CONTINUOUS
10
0.595746
20
0.209244
11
0.596224
21
0.209902
0
LINE
8
BLACK
6
CONTINUOUS
10
0.596224
20
0.209902
11
0.596551
21
0.210647
0
LINE
8
BLACK
6
CONTINUOUS
10
0.596551
20
0.210647
11
0.596923
21
0.210865
0
LINE
8
BLACK
6
CONTINUOUS
10
0.596923
20
0.210865
11
0.597176
21
0.211213
0
LINE
8
BLACK
6
CONTINUOUS
10
0.597176
20
0.211213
11
0.59795
21
0.211464
0
LINE
8
BLACK
6
CONTINUOUS
10
0.59795
20
0.211464
11
0.598652
21
0.211875
0
LINE
8
BLACK
6
CONTINUOUS
10
0.598652
20
0.211875
11
0.599081
21
0.211832
0
LINE
8
BLACK
6
CONTINUOUS
10
0.599081
20
0.211832
11
0.59949
21
0.211965
0
LINE
8
BLACK
6
CONTINUOUS
10
0.59949
20
0.211965
11
0.623862
21
0.211965
0
LINE
8
BLACK
6
CONTINUOUS
10
0.623862
20
0.211965
11
0.626176
21
0.211213
0
LINE
8
BLACK
6
CONTINUOUS
10
0.677381
20
0.211195
11
0.678797
21
0.209216
0
LINE
8
BLACK
6
CONTINUOUS
10
0.678797
20
0.209216
11
0.678778
21
0.206783
0
LINE
8
BLACK
6
CONTINUOUS
10
0.678778
20
0.206783
11
0.661718
21
0.155602
0
LINE
8
BLACK
6
CONTINUOUS
10
0.661718
20
0.155602
11
0.661012
21
0.154646
0
LINE
8
BLACK
6
CONTINUOUS
10
0.661012
20
0.154646
11
0.660321
21
0.153679
0
LINE
8
BLACK
6
CONTINUOUS
10
0.660321
20
0.153679
11
0.660291
21
0.153669
0
LINE
8
BLACK
6
CONTINUOUS
10
0.660291
20
0.153669
11
0.660273
21
0.153644
0
LINE
8
BLACK
6
CONTINUOUS
10
0.660273
20
0.153644
11
0.659138
21
0.153285
0
LINE
8
BLACK
6
CONTINUOUS
10
0.659138
20
0.153285
11
0.658013
21
0.15291
0
LINE
8
BLACK
6
CONTINUOUS
10
0.658013
20
0.15291
11
0.657983
21
0.152919
0
LINE
8
BLACK
6
CONTINUOUS
10
0.657983
20
0.152919
11
0.657953
21
0.15291
0
LINE
8
BLACK
6
CONTINUOUS
10
0.657953
20
0.15291
11
0.656825
21
0.153286
0
LINE
8
BLACK
6
CONTINUOUS
10
0.656825
20
0.153286
11
0.655693
21
0.153644
0
LINE
8
BLACK
6
CONTINUOUS
10
0.655693
20
0.153644
11
0.655674
21
0.153669
0
LINE
8
BLACK
6
CONTINUOUS
10
0.655674
20
0.153669
11
0.655644
21
0.153679
0
LINE
8
BLACK
6
CONTINUOUS
10
0.655644
20
0.153679
11
0.654953
21
0.154646
0
LINE
8
BLACK
6
CONTINUOUS
10
0.654953
20
0.154646
11
0.654248
21
0.155602
0
LINE
8
BLACK
6
CONTINUOUS
10
0.654248
20
0.155602
11
0.637187
21
0.206783
0
LINE
8
BLACK
6
CONTINUOUS
10
0.637187
20
0.206783
11
0.637169
21
0.209216
0
LINE
8
BLACK
6
CONTINUOUS
10
0.637169
20
0.209216
11
0.638584
21
0.211195
0
LINE
8
BLACK
6
CONTINUOUS
10
0.638584
20
0.211195
11
0.640892
21
0.211965
0
LINE
8
BLACK
6
CONTINUOUS
10
0.640892
20
0.211965
11
0.643212
21
0.21123
0
LINE
8
BLACK
6
CONTINUOUS
10
0.643212
20
0.21123
11
0.644657
21
0.209273
0
LINE
8
BLACK
6
CONTINUOUS
10
0.644657
20
0.209273
11
0.657983
21
0.169297
0
LINE
8
BLACK
6
CONTINUOUS
10
0.657983
20
0.169297
11
0.671308
21
0.209273
0
LINE
8
BLACK
6
CONTINUOUS
10
0.671308
20
0.209273
11
0.672753
21
0.21123
0
LINE
8
BLACK
6
CONTINUOUS
10
0.672753
20
0.21123
11
0.675073
21
0.211965
0
LINE
8
BLACK
6
CONTINUOUS
10
0.675073
20
0.211965
11
0.677381
21
0.211195
0
LINE
8
BLACK
6
CONTINUOUS
10
0.558806
20
0.198156
11
0.559558
21
0.195842
0
LINE
8
BLACK
6
CONTINUOUS
10
0.559558
20
0.195842
11
0.559558
21
0.180281
0
LINE
8
BLACK
6
CONTINUOUS
10
0.559558
20
0.180281
11
0.575118
21
0.180281
0
LINE
8
BLACK
6
CONTINUOUS
10
0.575118
20
0.180281
11
0.577432
21
0.179529
0
LINE
8
BLACK
6
CONTINUOUS
10
0.577432
20
0.179529
11
0.578862
21
0.177561
0
LINE
8
BLACK
6
CONTINUOUS
10
0.578862
20
0.177561
11
0.578862
21
0.175128
0
LINE
8
BLACK
6
CONTINUOUS
10
0.578862
20
0.175128
11
0.577432
21
0.173159
0
LINE
8
BLACK
6
CONTINUOUS
10
0.577432
20
0.173159
11
0.575118
21
0.172407
0
LINE
8
BLACK
6
CONTINUOUS
10
0.575118
20
0.172407
11
0.559558
21
0.172407
0
LINE
8
BLACK
6
CONTINUOUS
10
0.559558
20
0.172407
11
0.559558
21
0.156847
0
LINE
8
BLACK
6
CONTINUOUS
10
0.559558
20
0.156847
11
0.558806
21
0.154533
0
LINE
8
BLACK
6
CONTINUOUS
10
0.558806
20
0.154533
11
0.556837
21
0.153102
0
LINE
8
BLACK
6
CONTINUOUS
10
0.556837
20
0.153102
11
0.554404
21
0.153102
0
LINE
8
BLACK
6
CONTINUOUS
10
0.554404
20
0.153102
11
0.552435
21
0.154533
0
LINE
8
BLACK
6
CONTINUOUS
10
0.552435
20
0.154533
11
0.551684
21
0.156847
0
LINE
8
BLACK
6
CONTINUOUS
10
0.551684
20
0.156847
11
0.551684
21
0.172407
0
LINE
8
BLACK
6
CONTINUOUS
10
0.551684
20
0.172407
11
0.536123
21
0.172407
0
LINE
8
BLACK
6
CONTINUOUS
10
0.536123
20
0.172407
11
0.533809
21
0.173159
0
LINE
8
BLACK
6
CONTINUOUS
10
0.533809
20
0.173159
11
0.532379
21
0.175128
0
LINE
8
BLACK
6
CONTINUOUS
10
0.532379
20
0.175128
11
0.532379
21
0.177561
0
LINE
8
BLACK
6
CONTINUOUS
10
0.532379
20
0.177561
11
0.533809
21
0.179529
0
LINE
8
BLACK
6
CONTINUOUS
10
0.533809
20
0.179529
11
0.536123
21
0.180281
0
LINE
8
BLACK
6
CONTINUOUS
10
0.536123
20
0.180281
11
0.551684
21
0.180281
0
LINE
8
BLACK
6
CONTINUOUS
10
0.551684
20
0.180281
11
0.551684
21
0.195842
0
LINE
8
BLACK
6
CONTINUOUS
10
0.551684
20
0.195842
11
0.552435
21
0.198156
0
LINE
8
BLACK
6
CONTINUOUS
10
0.552435
20
0.198156
11
0.554404
21
0.199586
0
LINE
8
BLACK
6
CONTINUOUS
10
0.554404
20
0.199586
11
0.556837
21
0.199586
0
LINE
8
BLACK
6
CONTINUOUS
10
0.556837
20
0.199586
11
0.558806
21
0.198156
0
LINE
8
BLACK
6
CONTINUOUS
10
-0.523026
20
0.214046
11
-0.522199
21
0.214121
0
LINE
8
BLACK
6
CONTINUOUS
10
-0.522199
20
0.214121
11
-0.521682
21
0.213852
0
LINE
8
BLACK
6
CONTINUOUS
10
-0.521682
20
0.213852
11
-0.521105
21
0.213768
0
LINE
8
BLACK
6
CONTINUOUS
10
-0.521105
20
0.213768
11
-0.520478
21
0.213224
0
LINE
8
BLACK
6
CONTINUOUS
10
-0.520478
20
0.213224
11
-0.519742
21
0.212841
0
LINE
8
BLACK
6
CONTINUOUS
10
-0.519742
20
0.212841
11
-0.491318
21
0.18551
0
LINE
8
BLACK
6
CONTINUOUS
10
-0.491318
20
0.18551
11
-0.485826
21
0.18375
0
LINE
8
BLACK
6
CONTINUOUS
10
-0.485826
20
0.18375
11
-0.482843
21
0.18375
0
LINE
8
BLACK
6
CONTINUOUS
10
-0.482843
20
0.18375
11
-0.479689
21
0.185266
0
LINE
8
BLACK
6
CONTINUOUS
10
-0.479689
20
0.185266
11
-0.478403
21
0.186503
0
LINE
8
BLACK
6
CONTINUOUS
10
-0.478403
20
0.186503
11
-0.476894
21
0.189405
0
LINE
8
BLACK
6
CONTINUOUS
10
-0.476894
20
0.189405
11
-0.476894
21
0.198716
0
LINE
8
BLACK
6
CONTINUOUS
10
-0.476894
20
0.198716
11
-0.478403
21
0.201619
0
LINE
8
BLACK
6
CONTINUOUS
10
-0.478403
20
0.201619
11
-0.480258
21
0.203402
0
LINE
8
BLACK
6
CONTINUOUS
10
-0.480258
20
0.203402
11
-0.481125
21
0.204517
0
LINE
8
BLACK
6
CONTINUOUS
10
-0.481125
20
0.204517
11
-0.481761
21
0.207214
0
LINE
8
BLACK
6
CONTINUOUS
10
-0.481761
20
0.207214
11
-0.480839
21
0.209827
0
LINE
8
BLACK
6
CONTINUOUS
10
-0.480839
20
0.209827
11
-0.478652
21
0.211528
0
LINE
8
BLACK
6
CONTINUOUS
10
-0.478652
20
0.211528
11
-0.475893
21
0.211778
0
LINE
8
BLACK
6
CONTINUOUS
10
-0.475893
20
0.211778
11
-0.473436
21
0.210497
0
LINE
8
BLACK
6
CONTINUOUS
10
-0.473436
20
0.210497
11
-0.470998
21
0.208154
0
LINE
8
BLACK
6
CONTINUOUS
10
-0.470998
20
0.208154
11
-0.470131
21
0.207039
0
LINE
8
BLACK
6
CONTINUOUS
10
-0.470131
20
0.207039
11
-0.470109
21
0.206946
0
LINE
8
BLACK
6
CONTINUOUS
10
-0.470109
20
0.206946
11
-0.470043
21
0.206877
0
LINE
8
BLACK
6
CONTINUOUS
10
-0.470043
20
0.206877
11
-0.467606
21
0.20219
0
LINE
8
BLACK
6
CONTINUOUS
10
-0.467606
20
0.20219
11
-0.467141
21
0.200856
0
LINE
8
BLACK
6
CONTINUOUS
10
-0.467141
20
0.200856
11
-0.467186
21
0.200379
0
LINE
8
BLACK
6
CONTINUOUS
10
-0.467186
20
0.200379
11
-0.467051
21
0.199919
0
LINE
8
BLACK
6
CONTINUOUS
10
-0.467051
20
0.199919
11
-0.467051
21
0.188202
0
LINE
8
BLACK
6
CONTINUOUS
10
-0.467051
20
0.188202
11
-0.467254
21
0.186804
0
LINE
8
BLACK
6
CONTINUOUS
10
-0.467254
20
0.186804
11
-0.467514
21
0.186402
0
LINE
8
BLACK
6
CONTINUOUS
10
-0.467514
20
0.186402
11
-0.467606
21
0.185932
0
LINE
8
BLACK
6
CONTINUOUS
10
-0.467606
20
0.185932
11
-0.470043
21
0.181245
0
LINE
8
BLACK
6
CONTINUOUS
10
-0.470043
20
0.181245
11
-0.470868
21
0.180098
0
LINE
8
BLACK
6
CONTINUOUS
10
-0.470868
20
0.180098
11
-0.470951
21
0.180051
0
LINE
8
BLACK
6
CONTINUOUS
10
-0.470951
20
0.180051
11
-0.470998
21
0.179968
0
LINE
8
BLACK
6
CONTINUOUS
10
-0.470998
20
0.179968
11
-0.473436
21
0.177624
0
LINE
8
BLACK
6
CONTINUOUS
10
-0.473436
20
0.177624
11
-0.474584
21
0.176802
0
LINE
8
BLACK
6
CONTINUOUS
10
-0.474584
20
0.176802
11
-0.474658
21
0.176787
0
LINE
8
BLACK
6
CONTINUOUS
10
-0.474658
20
0.176787
11
-0.474714
21
0.176736
0
LINE
8
BLACK
6
CONTINUOUS
10
-0.474714
20
0.176736
11
-0.479589
21
0.174393
0
LINE
8
BLACK
6
CONTINUOUS
10
-0.479589
20
0.174393
11
-0.480936
21
0.17397
0
LINE
8
BLACK
6
CONTINUOUS
10
-0.480936
20
0.17397
11
-0.481335
21
0.17402
0
LINE
8
BLACK
6
CONTINUOUS
10
-0.481335
20
0.17402
11
-0.481721
21
0.173907
0
LINE
8
BLACK
6
CONTINUOUS
10
-0.481721
20
0.173907
11
-0.486595
21
0.173907
0
LINE
8
BLACK
6
CONTINUOUS
10
-0.486595
20
0.173907
11
-0.487993
21
0.17411
0
LINE
8
BLACK
6
CONTINUOUS
10
-0.487993
20
0.17411
11
-0.488041
21
0.17414
0
LINE
8
BLACK
6
CONTINUOUS
10
-0.488041
20
0.17414
11
-0.488097
21
0.174142
0
LINE
8
BLACK
6
CONTINUOUS
10
-0.488097
20
0.174142
11
-0.495409
21
0.176485
0
LINE
8
BLACK
6
CONTINUOUS
10
-0.495409
20
0.176485
11
-0.496678
21
0.177105
0
LINE
8
BLACK
6
CONTINUOUS
10
-0.496678
20
0.177105
11
-0.496945
21
0.17743
0
LINE
8
BLACK
6
CONTINUOUS
10
-0.496945
20
0.17743
11
-0.497318
21
0.177624
0
LINE
8
BLACK
6
CONTINUOUS
10
-0.497318
20
0.177624
11
-0.518232
21
0.197734
0
LINE
8
BLACK
6
CONTINUOUS
10
-0.518232
20
0.197734
11
-0.518232
21
0.178828
0
LINE
8
BLACK
6
CONTINUOUS
10
-0.518232
20
0.178828
11
-0.518435
21
0.177431
0
LINE
8
BLACK
6
CONTINUOUS
10
-0.518435
20
0.177431
11
-0.519938
21
0.175103
0
LINE
8
BLACK
6
CONTINUOUS
10
-0.519938
20
0.175103
11
-0.52246
21
0.173956
0
LINE
8
BLACK
6
CONTINUOUS
10
-0.52246
20
0.173956
11
-0.525202
21
0.174354
0
LINE
8
BLACK
6
CONTINUOUS
10
-0.525202
20
0.174354
11
-0.527295
21
0.17617
0
LINE
8
BLACK
6
CONTINUOUS
10
-0.527295
20
0.17617
11
-0.528075
21
0.178828
0
LINE
8
BLACK
6
CONTINUOUS
10
-0.528075
20
0.178828
11
-0.528075
21
0.209293
0
LINE
8
BLACK
6
CONTINUOUS
10
-0.528075
20
0.209293
11
-0.528048
21
0.209475
0
LINE
8
BLACK
6
CONTINUOUS
10
-0.528048
20
0.209475
11
-0.528068
21
0.209557
0
LINE
8
BLACK
6
CONTINUOUS
10
-0.528068
20
0.209557
11
-0.528015
21
0.209708
0
LINE
8
BLACK
6
CONTINUOUS
10
-0.528015
20
0.209708
11
-0.527872
21
0.210691
0
LINE
8
BLACK
6
CONTINUOUS
10
-0.527872
20
0.210691
11
-0.527422
21
0.211388
0
LINE
8
BLACK
6
CONTINUOUS
10
-0.527422
20
0.211388
11
-0.527146
21
0.21217
0
LINE
8
BLACK
6
CONTINUOUS
10
-0.527146
20
0.21217
11
-0.526686
21
0.212528
0
LINE
8
BLACK
6
CONTINUOUS
10
-0.526686
20
0.212528
11
-0.526369
21
0.213019
0
LINE
8
BLACK
6
CONTINUOUS
10
-0.526369
20
0.213019
11
-0.525614
21
0.213362
0
LINE
8
BLACK
6
CONTINUOUS
10
-0.525614
20
0.213362
11
-0.524959
21
0.213871
0
LINE
8
BLACK
6
CONTINUOUS
10
-0.524959
20
0.213871
11
-0.524378
21
0.213924
0
LINE
8
BLACK
6
CONTINUOUS
10
-0.524378
20
0.213924
11
-0.523847
21
0.214165
0
LINE
8
BLACK
6
CONTINUOUS
10
-0.523847
20
0.214165
11
-0.523026
21
0.214046
0
LINE
8
BLACK
6
CONTINUOUS
10
-0.541688
20
0.221335
11
-0.540338
21
0.21931
0
LINE
8
BLACK
6
CONTINUOUS
10
-0.540338
20
0.21931
11
-0.540436
21
0.216879
0
LINE
8
BLACK
6
CONTINUOUS
10
-0.540436
20
0.216879
11
-0.541944
21
0.214969
0
LINE
8
BLACK
6
CONTINUOUS
10
-0.541944
20
0.214969
11
-0.560653
21
0.202497
0
LINE
8
BLACK
6
CONTINUOUS
10
-0.560653
20
0.202497
11
-0.541944
21
0.190025
0
LINE
8
BLACK
6
CONTINUOUS
10
-0.541944
20
0.190025
11
-0.540436
21
0.188116
0
LINE
8
BLACK
6
CONTINUOUS
10
-0.540436
20
0.188116
11
-0.540338
21
0.185684
0
LINE
8
BLACK
6
CONTINUOUS
10
-0.540338
20
0.185684
11
-0.541688
21
0.18366
0
LINE
8
BLACK
6
CONTINUOUS
10
-0.541688
20
0.18366
11
-0.54397
21
0.182815
0
LINE
8
BLACK
6
CONTINUOUS
10
-0.54397
20
0.182815
11
-0.546312
21
0.183473
0
LINE
8
BLACK
6
CONTINUOUS
10
-0.546312
20
0.183473
11
-0.56775
21
0.197766
0
LINE
8
BLACK
6
CONTINUOUS
10
-0.56775
20
0.197766
11
-0.589189
21
0.183473
0
LINE
8
BLACK
6
CONTINUOUS
10
-0.589189
20
0.183473
11
-0.591531
21
0.182815
0
LINE
8
BLACK
6
CONTINUOUS
10
-0.591531
20
0.182815
11
-0.593813
21
0.18366
0
LINE
8
BLACK
6
CONTINUOUS
10
-0.593813
20
0.18366
11
-0.595163
21
0.185684
0
LINE
8
BLACK
6
CONTINUOUS
10
-0.595163
20
0.185684
11
-0.595065
21
0.188116
0
LINE
8
BLACK
6
CONTINUOUS
10
-0.595065
20
0.188116
11
-0.593556
21
0.190025
0
LINE
8
BLACK
6
CONTINUOUS
10
-0.593556
20
0.190025
11
-0.574848
21
0.202497
0
LINE
8
BLACK
6
CONTINUOUS
10
-0.574848
20
0.202497
11
-0.593556
21
0.214969
0
LINE
8
BLACK
6
CONTINUOUS
10
-0.593556
20
0.214969
11
-0.595065
21
0.216879
0
LINE
8
BLACK
6
CONTINUOUS
10
-0.595065
20
0.216879
11
-0.595163
21
0.21931
0
LINE
8
BLACK
6
CONTINUOUS
10
-0.595163
20
0.21931
11
-0.593813
21
0.221334
0
LINE
8
BLACK
6
CONTINUOUS
10
-0.593813
20
0.221334
11
-0.591531
21
0.222179
0
LINE
8
BLACK
6
CONTINUOUS
10
-0.591531
20
0.222179
11
-0.589189
21
0.221521
0
LINE
8
BLACK
6
CONTINUOUS
10
-0.589189
20
0.221521
11
-0.56775
21
0.207229
0
LINE
8
BLACK
6
CONTINUOUS
10
-0.56775
20
0.207229
11
-0.546312
21
0.221521
0
LINE
8
BLACK
6
CONTINUOUS
10
-0.546312
20
0.221521
11
-0.54397
21
0.222179
0
LINE
8
BLACK
6
CONTINUOUS
10
-0.54397
20
0.222179
11
-0.541688
21
0.221335
0
LINE
8
BLACK
6
CONTINUOUS
10
-0.470575
20
0.232759
11
-0.468247
21
0.231257
0
LINE
8
BLACK
6
CONTINUOUS
10
-0.468247
20
0.231257
11
-0.4671
21
0.228734
0
LINE
8
BLACK
6
CONTINUOUS
10
-0.4671
20
0.228734
11
-0.467498
21
0.225992
0
LINE
8
BLACK
6
CONTINUOUS
10
-0.467498
20
0.225992
11
-0.469314
21
0.2239
0
LINE
8
BLACK
6
CONTINUOUS
10
-0.469314
20
0.2239
11
-0.471972
21
0.22312
0
LINE
8
BLACK
6
CONTINUOUS
10
-0.471972
20
0.22312
11
-0.523153
21
0.22312
0
LINE
8
BLACK
6
CONTINUOUS
10
-0.523153
20
0.22312
11
-0.524551
21
0.223322
0
LINE
8
BLACK
6
CONTINUOUS
10
-0.524551
20
0.223322
11
-0.526879
21
0.224825
0
LINE
8
BLACK
6
CONTINUOUS
10
-0.526879
20
0.224825
11
-0.528026
21
0.227347
0
LINE
8
BLACK
6
CONTINUOUS
10
-0.528026
20
0.227347
11
-0.527628
21
0.23009
0
LINE
8
BLACK
6
CONTINUOUS
10
-0.527628
20
0.23009
11
-0.525812
21
0.232182
0
LINE
8
BLACK
6
CONTINUOUS
10
-0.525812
20
0.232182
11
-0.523153
21
0.232962
0
LINE
8
BLACK
6
CONTINUOUS
10
-0.523153
20
0.232962
11
-0.471972
21
0.232962
0
LINE
8
BLACK
6
CONTINUOUS
10
-0.471972
20
0.232962
11
-0.470575
21
0.232759
0
LINE
8
BLACK
6
CONTINUOUS
10
-0.56166
20
0.264775
11
-0.561171
21
0.264809
0
LINE
8
BLACK
6
CONTINUOUS
10
-0.561171
20
0.264809
11
-0.552172
21
0.26256
0
LINE
8
BLACK
6
CONTINUOUS
10
-0.552172
20
0.26256
11
-0.5518
21
0.262327
0
LINE
8
BLACK
6
CONTINUOUS
10
-0.5518
20
0.262327
11
-0.551366
21
0.262262
0
LINE
8
BLACK
6
CONTINUOUS
10
-0.551366
20
0.262262
11
-0.546867
21
0.260012
0
LINE
8
BLACK
6
CONTINUOUS
10
-0.546867
20
0.260012
11
-0.546412
21
0.259564
0
LINE
8
BLACK
6
CONTINUOUS
10
-0.546412
20
0.259564
11
-0.545844
21
0.259274
0
LINE
8
BLACK
6
CONTINUOUS
10
-0.545844
20
0.259274
11
-0.543594
21
0.257025
0
LINE
8
BLACK
6
CONTINUOUS
10
-0.543594
20
0.257025
11
-0.543304
21
0.256456
0
LINE
8
BLACK
6
CONTINUOUS
10
-0.543304
20
0.256456
11
-0.542857
21
0.256001
0
LINE
8
BLACK
6
CONTINUOUS
10
-0.542857
20
0.256001
11
-0.540607
21
0.251502
0
LINE
8
BLACK
6
CONTINUOUS
10
-0.540607
20
0.251502
11
-0.540472
21
0.250604
0
LINE
8
BLACK
6
CONTINUOUS
10
-0.540472
20
0.250604
11
-0.540191
21
0.249741
0
LINE
8
BLACK
6
CONTINUOUS
10
-0.540191
20
0.249741
11
-0.540191
21
0.245242
0
LINE
8
BLACK
6
CONTINUOUS
10
-0.540191
20
0.245242
11
-0.540472
21
0.244379
0
LINE
8
BLACK
6
CONTINUOUS
10
-0.540472
20
0.244379
11
-0.540607
21
0.243481
0
LINE
8
BLACK
6
CONTINUOUS
10
-0.540607
20
0.243481
11
-0.542857
21
0.238982
0
LINE
8
BLACK
6
CONTINUOUS
10
-0.542857
20
0.238982
11
-0.543304
21
0.238527
0
LINE
8
BLACK
6
CONTINUOUS
10
-0.543304
20
0.238527
11
-0.543594
21
0.237959
0
LINE
8
BLACK
6
CONTINUOUS
10
-0.543594
20
0.237959
11
-0.545844
21
0.235709
0
LINE
8
BLACK
6
CONTINUOUS
10
-0.545844
20
0.235709
11
-0.546412
21
0.235419
0
LINE
8
BLACK
6
CONTINUOUS
10
-0.546412
20
0.235419
11
-0.546867
21
0.234971
0
LINE
8
BLACK
6
CONTINUOUS
10
-0.546867
20
0.234971
11
-0.551366
21
0.232722
0
LINE
8
BLACK
6
CONTINUOUS
10
-0.551366
20
0.232722
11
-0.5518
21
0.232656
0
LINE
8
BLACK
6
CONTINUOUS
10
-0.5518
20
0.232656
11
-0.552172
21
0.232424
0
LINE
8
BLACK
6
CONTINUOUS
10
-0.552172
20
0.232424
11
-0.561171
21
0.230174
0
LINE
8
BLACK
6
CONTINUOUS
10
-0.561171
20
0.230174
11
-0.56166
21
0.230208
0
LINE
8
BLACK
6
CONTINUOUS
10
-0.56166
20
0.230208
11
-0.562126
21
0.230056
0
LINE
8
BLACK
6
CONTINUOUS
10
-0.562126
20
0.230056
11
-0.573375
21
0.230056
0
LINE
8
BLACK
6
CONTINUOUS
10
-0.573375
20
0.230056
11
-0.573841
21
0.230208
0
LINE
8
BLACK
6
CONTINUOUS
10
-0.573841
20
0.230208
11
-0.574329
21
0.230174
0
LINE
8
BLACK
6
CONTINUOUS
10
-0.574329
20
0.230174
11
-0.583328
21
0.232424
0
LINE
8
BLACK
6
CONTINUOUS
10
-0.583328
20
0.232424
11
-0.5837
21
0.232656
0
LINE
8
BLACK
6
CONTINUOUS
10
-0.5837
20
0.232656
11
-0.584134
21
0.232722
0
LINE
8
BLACK
6
CONTINUOUS
10
-0.584134
20
0.232722
11
-0.588634
21
0.234971
0
LINE
8
BLACK
6
CONTINUOUS
10
-0.588634
20
0.234971
11
-0.589088
21
0.235419
0
LINE
8
BLACK
6
CONTINUOUS
10
-0.589088
20
0.235419
11
-0.589657
21
0.235709
0
LINE
8
BLACK
6
CONTINUOUS
10
-0.589657
20
0.235709
11
-0.591907
21
0.237959
0
LINE
8
BLACK
6
CONTINUOUS
10
-0.591907
20
0.237959
11
-0.592196
21
0.238527
0
LINE
8
BLACK
6
CONTINUOUS
10
-0.592196
20
0.238527
11
-0.592644
21
0.238982
0
LINE
8
BLACK
6
CONTINUOUS
10
-0.592644
20
0.238982
11
-0.594894
21
0.243481
0
LINE
8
BLACK
6
CONTINUOUS
10
-0.594894
20
0.243481
11
-0.595029
21
0.244379
0
LINE
8
BLACK
6
CONTINUOUS
10
-0.595029
20
0.244379
11
-0.595309
21
0.245242
0
LINE
8
BLACK
6
CONTINUOUS
10
-0.595309
20
0.245242
11
-0.595309
21
0.249741
0
LINE
8
BLACK
6
CONTINUOUS
10
-0.595309
20
0.249741
11
-0.595029
21
0.250604
0
LINE
8
BLACK
6
CONTINUOUS
10
-0.595029
20
0.250604
11
-0.594894
21
0.251502
0
LINE
8
BLACK
6
CONTINUOUS
10
-0.594894
20
0.251502
11
-0.592644
21
0.256001
0
LINE
8
BLACK
6
CONTINUOUS
10
-0.592644
20
0.256001
11
-0.592196
21
0.256456
0
LINE
8
BLACK
6
CONTINUOUS
10
-0.592196
20
0.256456
11
-0.591907
21
0.257025
0
LINE
8
BLACK
6
CONTINUOUS
10
-0.591907
20
0.257025
11
-0.589657
21
0.259274
0
LINE
8
BLACK
6
CONTINUOUS
10
-0.589657
20
0.259274
11
-0.589088
21
0.259564
0
LINE
8
BLACK
6
CONTINUOUS
10
-0.589088
20
0.259564
11
-0.588634
21
0.260012
0
LINE
8
BLACK
6
CONTINUOUS
10
-0.588634
20
0.260012
11
-0.584134
21
0.262262
0
LINE
8
BLACK
6
CONTINUOUS
10
-0.584134
20
0.262262
11
-0.5837
21
0.262327
0
LINE
8
BLACK
6
CONTINUOUS
10
-0.5837
20
0.262327
11
-0.583328
21
0.26256
0
LINE
8
BLACK
6
CONTINUOUS
10
-0.583328
20
0.26256
11
-0.574329
21
0.264809
0
LINE
8
BLACK
6
CONTINUOUS
10
-0.574329
20
0.264809
11
-0.573841
21
0.264775
0
LINE
8
BLACK
6
CONTINUOUS
10
-0.573841
20
0.264775
11
-0.573375
21
0.264927
0
LINE
8
BLACK
6
CONTINUOUS
10
-0.573375
20
0.264927
11
-0.562126
21
0.264927
0
LINE
8
BLACK
6
CONTINUOUS
10
-0.562126
20
0.264927
11
-0.56166
21
0.264775
0
LINE
8
BLACK
6
CONTINUOUS
10
-0.57289
20
0.257053
11
-0.580999
21
0.255026
0
LINE
8
BLACK
6
CONTINUOUS
10
-0.580999
20
0.255026
11
-0.584541
21
0.253255
0
LINE
8
BLACK
6
CONTINUOUS
10
-0.584541
20
0.253255
11
-0.585887
21
0.251909
0
LINE
8
BLACK
6
CONTINUOUS
10
-0.585887
20
0.251909
11
-0.587435
21
0.248812
0
LINE
8
BLACK
6
CONTINUOUS
10
-0.587435
20
0.248812
11
-0.587435
21
0.246171
0
LINE
8
BLACK
6
CONTINUOUS
10
-0.587435
20
0.246171
11
-0.585887
21
0.243075
0
LINE
8
BLACK
6
CONTINUOUS
10
-0.585887
20
0.243075
11
-0.584541
21
0.241728
0
LINE
8
BLACK
6
CONTINUOUS
10
-0.584541
20
0.241728
11
-0.580999
21
0.239958
0
LINE
8
BLACK
6
CONTINUOUS
10
-0.580999
20
0.239958
11
-0.57289
21
0.23793
0
LINE
8
BLACK
6
CONTINUOUS
10
-0.57289
20
0.23793
11
-0.562611
21
0.23793
0
LINE
8
BLACK
6
CONTINUOUS
10
-0.562611
20
0.23793
11
-0.554501
21
0.239958
0
LINE
8
BLACK
6
CONTINUOUS
10
-0.554501
20
0.239958
11
-0.55096
21
0.241728
0
LINE
8
BLACK
6
CONTINUOUS
10
-0.55096
20
0.241728
11
-0.549614
21
0.243075
0
LINE
8
BLACK
6
CONTINUOUS
10
-0.549614
20
0.243075
11
-0.548065
21
0.246171
0
LINE
8
BLACK
6
CONTINUOUS
10
-0.548065
20
0.246171
11
-0.548065
21
0.248812
0
LINE
8
BLACK
6
CONTINUOUS
10
-0.548065
20
0.248812
11
-0.549614
21
0.251909
0
LINE
8
BLACK
6
CONTINUOUS
10
-0.549614
20
0.251909
11
-0.55096
21
0.253255
0
LINE
8
BLACK
6
CONTINUOUS
10
-0.55096
20
0.253255
11
-0.554501
21
0.255026
0
LINE
8
BLACK
6
CONTINUOUS
10
-0.554501
20
0.255026
11
-0.562611
21
0.257053
0
LINE
8
BLACK
6
CONTINUOUS
10
-0.562611
20
0.257053
11
-0.57289
21
0.257053
0
LINE
8
BLACK
6
CONTINUOUS
10
0.653715
20
0.311768
11
0.654353
21
0.311763
0
LINE
8
BLACK
6
CONTINUOUS
10
0.654353
20
0.311763
11
0.661665
21
0.309326
0
LINE
8
BLACK
6
CONTINUOUS
10
0.661665
20
0.309326
11
0.662395
21
0.308786
0
LINE
8
BLACK
6
CONTINUOUS
10
0.662395
20
0.308786
11
0.663204
21
0.308374
0
LINE
8
BLACK
6
CONTINUOUS
10
0.663204
20
0.308374
11
0.668078
21
0.3035
0
LINE
8
BLACK
6
CONTINUOUS
10
0.668078
20
0.3035
11
0.668368
21
0.302932
0
LINE
8
BLACK
6
CONTINUOUS
10
0.668368
20
0.302932
11
0.668816
21
0.302477
0
LINE
8
BLACK
6
CONTINUOUS
10
0.668816
20
0.302477
11
0.671253
21
0.297602
0
LINE
8
BLACK
6
CONTINUOUS
10
0.671253
20
0.297602
11
0.671318
21
0.297169
0
LINE
8
BLACK
6
CONTINUOUS
10
0.671318
20
0.297169
11
0.671551
21
0.296797
0
LINE
8
BLACK
6
CONTINUOUS
10
0.671551
20
0.296797
11
0.673988
21
0.287048
0
LINE
8
BLACK
6
CONTINUOUS
10
0.673988
20
0.287048
11
0.673954
21
0.286559
0
LINE
8
BLACK
6
CONTINUOUS
10
0.673954
20
0.286559
11
0.674106
21
0.286093
0
LINE
8
BLACK
6
CONTINUOUS
10
0.674106
20
0.286093
11
0.674106
21
0.278781
0
LINE
8
BLACK
6
CONTINUOUS
10
0.674106
20
0.278781
11
0.673954
21
0.278315
0
LINE
8
BLACK
6
CONTINUOUS
10
0.673954
20
0.278315
11
0.673988
21
0.277827
0
LINE
8
BLACK
6
CONTINUOUS
10
0.673988
20
0.277827
11
0.671551
21
0.268078
0
LINE
8
BLACK
6
CONTINUOUS
10
0.671551
20
0.268078
11
0.671318
21
0.267706
0
LINE
8
BLACK
6
CONTINUOUS
10
0.671318
20
0.267706
11
0.671253
21
0.267272
0
LINE
8
BLACK
6
CONTINUOUS
10
0.671253
20
0.267272
11
0.668816
21
0.262398
0
LINE
8
BLACK
6
CONTINUOUS
10
0.668816
20
0.262398
11
0.668368
21
0.261943
0
LINE
8
BLACK
6
CONTINUOUS
10
0.668368
20
0.261943
11
0.668078
21
0.261374
0
LINE
8
BLACK
6
CONTINUOUS
10
0.668078
20
0.261374
11
0.663204
21
0.2565
0
LINE
8
BLACK
6
CONTINUOUS
10
0.663204
20
0.2565
11
0.662395
21
0.256088
0
LINE
8
BLACK
6
CONTINUOUS
10
0.662395
20
0.256088
11
0.661665
21
0.255549
0
LINE
8
BLACK
6
CONTINUOUS
10
0.661665
20
0.255549
11
0.654353
21
0.253112
0
LINE
8
BLACK
6
CONTINUOUS
10
0.654353
20
0.253112
11
0.653715
21
0.253107
0
LINE
8
BLACK
6
CONTINUOUS
10
0.653715
20
0.253107
11
0.653108
21
0.25291
0
LINE
8
BLACK
6
CONTINUOUS
10
0.653108
20
0.25291
11
0.640922
21
0.25291
0
LINE
8
BLACK
6
CONTINUOUS
10
0.640922
20
0.25291
11
0.640329
21
0.253102
0
LINE
8
BLACK
6
CONTINUOUS
10
0.640329
20
0.253102
11
0.639706
21
0.253102
0
LINE
8
BLACK
6
CONTINUOUS
10
0.639706
20
0.253102
11
0.639201
21
0.253469
0
LINE
8
BLACK
6
CONTINUOUS
10
0.639201
20
0.253469
11
0.638608
21
0.253662
0
LINE
8
BLACK
6
CONTINUOUS
10
0.638608
20
0.253662
11
0.638242
21
0.254166
0
LINE
8
BLACK
6
CONTINUOUS
10
0.638242
20
0.254166
11
0.637737
21
0.254533
0
LINE
8
BLACK
6
CONTINUOUS
10
0.637737
20
0.254533
11
0.637545
21
0.255126
0
LINE
8
BLACK
6
CONTINUOUS
10
0.637545
20
0.255126
11
0.637178
21
0.25563
0
LINE
8
BLACK
6
CONTINUOUS
10
0.637178
20
0.25563
11
0.637178
21
0.256254
0
LINE
8
BLACK
6
CONTINUOUS
10
0.637178
20
0.256254
11
0.636985
21
0.256847
0
LINE
8
BLACK
6
CONTINUOUS
10
0.636985
20
0.256847
11
0.636985
21
0.308028
0
LINE
8
BLACK
6
CONTINUOUS
10
0.636985
20
0.308028
11
0.637178
21
0.308621
0
LINE
8
BLACK
6
CONTINUOUS
10
0.637178
20
0.308621
11
0.637178
21
0.309244
0
LINE
8
BLACK
6
CONTINUOUS
10
0.637178
20
0.309244
11
0.637545
21
0.309749
0
LINE
8
BLACK
6
CONTINUOUS
10
0.637545
20
0.309749
11
0.637737
21
0.310342
0
LINE
8
BLACK
6
CONTINUOUS
10
0.637737
20
0.310342
11
0.638242
21
0.310708
0
LINE
8
BLACK
6
CONTINUOUS
10
0.638242
20
0.310708
11
0.638608
21
0.311213
0
LINE
8
BLACK
6
CONTINUOUS
10
0.638608
20
0.311213
11
0.639201
21
0.311406
0
LINE
8
BLACK
6
CONTINUOUS
10
0.639201
20
0.311406
11
0.639706
21
0.311772
0
LINE
8
BLACK
6
CONTINUOUS
10
0.639706
20
0.311772
11
0.640329
21
0.311772
0
LINE
8
BLACK
6
CONTINUOUS
10
0.640329
20
0.311772
11
0.640922
21
0.311965
0
LINE
8
BLACK
6
CONTINUOUS
10
0.640922
20
0.311965
11
0.653108
21
0.311965
0
LINE
8
BLACK
6
CONTINUOUS
10
0.653108
20
0.311965
11
0.653715
21
0.311768
0
LINE
8
BLACK
6
CONTINUOUS
10
0.644859
20
0.304091
11
0.644859
21
0.260784
0
LINE
8
BLACK
6
CONTINUOUS
10
0.644859
20
0.260784
11
0.652469
21
0.260784
0
LINE
8
BLACK
6
CONTINUOUS
10
0.652469
20
0.260784
11
0.658293
21
0.262725
0
LINE
8
BLACK
6
CONTINUOUS
10
0.658293
20
0.262725
11
0.662059
21
0.26649
0
LINE
8
BLACK
6
CONTINUOUS
10
0.662059
20
0.26649
11
0.664017
21
0.270407
0
LINE
8
BLACK
6
CONTINUOUS
10
0.664017
20
0.270407
11
0.666232
21
0.279266
0
LINE
8
BLACK
6
CONTINUOUS
10
0.666232
20
0.279266
11
0.666232
21
0.285608
0
LINE
8
BLACK
6
CONTINUOUS
10
0.666232
20
0.285608
11
0.664017
21
0.294468
0
LINE
8
BLACK
6
CONTINUOUS
10
0.664017
20
0.294468
11
0.662059
21
0.298384
0
LINE
8
BLACK
6
CONTINUOUS
10
0.662059
20
0.298384
11
0.658293
21
0.302149
0
LINE
8
BLACK
6
CONTINUOUS
10
0.658293
20
0.302149
11
0.652469
21
0.304091
0
LINE
8
BLACK
6
CONTINUOUS
10
0.652469
20
0.304091
11
0.644859
21
0.304091
0
LINE
8
BLACK
6
CONTINUOUS
10
0.558921
20
0.311684
11
0.559818
21
0.311549
0
LINE
8
BLACK
6
CONTINUOUS
10
0.559818
20
0.311549
11
0.564693
21
0.309112
0
LINE
8
BLACK
6
CONTINUOUS
10
0.564693
20
0.309112
11
0.566426
21
0.307404
0
LINE
8
BLACK
6
CONTINUOUS
10
0.566426
20
0.307404
11
0.566825
21
0.305004
0
LINE
8
BLACK
6
CONTINUOUS
10
0.566825
20
0.305004
11
0.565737
21
0.302828
0
LINE
8
BLACK
6
CONTINUOUS
10
0.565737
20
0.302828
11
0.563578
21
0.301707
0
LINE
8
BLACK
6
CONTINUOUS
10
0.563578
20
0.301707
11
0.561171
21
0.302069
0
LINE
8
BLACK
6
CONTINUOUS
10
0.561171
20
0.302069
11
0.557128
21
0.304091
0
LINE
8
BLACK
6
CONTINUOUS
10
0.557128
20
0.304091
11
0.551385
21
0.304091
0
LINE
8
BLACK
6
CONTINUOUS
10
0.551385
20
0.304091
11
0.545561
21
0.302149
0
LINE
8
BLACK
6
CONTINUOUS
10
0.545561
20
0.302149
11
0.541796
21
0.298384
0
LINE
8
BLACK
6
CONTINUOUS
10
0.541796
20
0.298384
11
0.539838
21
0.294468
0
LINE
8
BLACK
6
CONTINUOUS
10
0.539838
20
0.294468
11
0.537623
21
0.285608
0
LINE
8
BLACK
6
CONTINUOUS
10
0.537623
20
0.285608
11
0.537623
21
0.279266
0
LINE
8
BLACK
6
CONTINUOUS
10
0.537623
20
0.279266
11
0.539838
21
0.270407
0
LINE
8
BLACK
6
CONTINUOUS
10
0.539838
20
0.270407
11
0.541796
21
0.26649
0
LINE
8
BLACK
6
CONTINUOUS
10
0.541796
20
0.26649
11
0.545561
21
0.262725
0
LINE
8
BLACK
6
CONTINUOUS
10
0.545561
20
0.262725
11
0.551385
21
0.260784
0
LINE
8
BLACK
6
CONTINUOUS
10
0.551385
20
0.260784
11
0.554982
21
0.260784
0
LINE
8
BLACK
6
CONTINUOUS
10
0.554982
20
0.260784
11
0.560805
21
0.262725
0
LINE
8
BLACK
6
CONTINUOUS
10
0.560805
20
0.262725
11
0.561432
21
0.263352
0
LINE
8
BLACK
6
CONTINUOUS
10
0.561432
20
0.263352
11
0.561432
21
0.274844
0
LINE
8
BLACK
6
CONTINUOUS
10
0.561432
20
0.274844
11
0.555621
21
0.274844
0
LINE
8
BLACK
6
CONTINUOUS
10
0.555621
20
0.274844
11
0.553306
21
0.275596
0
LINE
8
BLACK
6
CONTINUOUS
10
0.553306
20
0.275596
11
0.551876
21
0.277565
0
LINE
8
BLACK
6
CONTINUOUS
10
0.551876
20
0.277565
11
0.551876
21
0.279998
0
LINE
8
BLACK
6
CONTINUOUS
10
0.551876
20
0.279998
11
0.553306
21
0.281967
0
LINE
8
BLACK
6
CONTINUOUS
10
0.553306
20
0.281967
11
0.555621
21
0.282718
0
LINE
8
BLACK
6
CONTINUOUS
10
0.555621
20
0.282718
11
0.565369
21
0.282718
0
LINE
8
BLACK
6
CONTINUOUS
10
0.565369
20
0.282718
11
0.565962
21
0.282526
0
LINE
8
BLACK
6
CONTINUOUS
10
0.565962
20
0.282526
11
0.566586
21
0.282526
0
LINE
8
BLACK
6
CONTINUOUS
10
0.566586
20
0.282526
11
0.56709
21
0.282159
0
LINE
8
BLACK
6
CONTINUOUS
10
0.56709
20
0.282159
11
0.567683
21
0.281967
0
LINE
8
BLACK
6
CONTINUOUS
10
0.567683
20
0.281967
11
0.56805
21
0.281462
0
LINE
8
BLACK
6
CONTINUOUS
10
0.56805
20
0.281462
11
0.568554
21
0.281096
0
LINE
8
BLACK
6
CONTINUOUS
10
0.568554
20
0.281096
11
0.568747
21
0.280503
0
LINE
8
BLACK
6
CONTINUOUS
10
0.568747
20
0.280503
11
0.569114
21
0.279998
0
LINE
8
BLACK
6
CONTINUOUS
10
0.569114
20
0.279998
11
0.569114
21
0.279374
0
LINE
8
BLACK
6
CONTINUOUS
10
0.569114
20
0.279374
11
0.569306
21
0.278781
0
LINE
8
BLACK
6
CONTINUOUS
10
0.569306
20
0.278781
11
0.569306
21
0.261721
0
LINE
8
BLACK
6
CONTINUOUS
10
0.569306
20
0.261721
11
0.569208
21
0.261419
0
LINE
8
BLACK
6
CONTINUOUS
10
0.569208
20
0.261419
11
0.569258
21
0.261105
0
LINE
8
BLACK
6
CONTINUOUS
10
0.569258
20
0.261105
11
0.568839
21
0.260284
0
LINE
8
BLACK
6
CONTINUOUS
10
0.568839
20
0.260284
11
0.568554
21
0.259407
0
LINE
8
BLACK
6
CONTINUOUS
10
0.568554
20
0.259407
11
0.568297
21
0.25922
0
LINE
8
BLACK
6
CONTINUOUS
10
0.568297
20
0.25922
11
0.568153
21
0.258937
0
LINE
8
BLACK
6
CONTINUOUS
10
0.568153
20
0.258937
11
0.565716
21
0.2565
0
LINE
8
BLACK
6
CONTINUOUS
10
0.565716
20
0.2565
11
0.564907
21
0.256088
0
LINE
8
BLACK
6
CONTINUOUS
10
0.564907
20
0.256088
11
0.564177
21
0.255549
0
LINE
8
BLACK
6
CONTINUOUS
10
0.564177
20
0.255549
11
0.556866
21
0.253112
0
LINE
8
BLACK
6
CONTINUOUS
10
0.556866
20
0.253112
11
0.556227
21
0.253107
0
LINE
8
BLACK
6
CONTINUOUS
10
0.556227
20
0.253107
11
0.555621
21
0.25291
0
LINE
8
BLACK
6
CONTINUOUS
10
0.555621
20
0.25291
11
0.550746
21
0.25291
0
LINE
8
BLACK
6
CONTINUOUS
10
0.550746
20
0.25291
11
0.550139
21
0.253107
0
LINE
8
BLACK
6
CONTINUOUS
10
0.550139
20
0.253107
11
0.549501
21
0.253112
0
LINE
8
BLACK
6
CONTINUOUS
10
0.549501
20
0.253112
11
0.54219
21
0.255549
0
LINE
8
BLACK
6
CONTINUOUS
10
0.54219
20
0.255549
11
0.541459
21
0.256088
0
LINE
8
BLACK
6
CONTINUOUS
10
0.541459
20
0.256088
11
0.540651
21
0.2565
0
LINE
8
BLACK
6
CONTINUOUS
10
0.540651
20
0.2565
11
0.535776
21
0.261374
0
LINE
8
BLACK
6
CONTINUOUS
10
0.535776
20
0.261374
11
0.535487
21
0.261943
0
LINE
8
BLACK
6
CONTINUOUS
10
0.535487
20
0.261943
11
0.535039
21
0.262398
0
LINE
8
BLACK
6
CONTINUOUS
10
0.535039
20
0.262398
11
0.532602
21
0.267272
0
LINE
8
BLACK
6
CONTINUOUS
10
0.532602
20
0.267272
11
0.532536
21
0.267706
0
LINE
8
BLACK
6
CONTINUOUS
10
0.532536
20
0.267706
11
0.532304
21
0.268078
0
LINE
8
BLACK
6
CONTINUOUS
10
0.532304
20
0.268078
11
0.529866
21
0.277827
0
LINE
8
BLACK
6
CONTINUOUS
10
0.529866
20
0.277827
11
0.5299
21
0.278315
0
LINE
8
BLACK
6
CONTINUOUS
10
0.5299
20
0.278315
11
0.529749
21
0.278781
0
LINE
8
BLACK
6
CONTINUOUS
10
0.529749
20
0.278781
11
0.529749
21
0.286093
0
LINE
8
BLACK
6
CONTINUOUS
10
0.529749
20
0.286093
11
0.5299
21
0.286559
0
LINE
8
BLACK
6
CONTINUOUS
10
0.5299
20
0.286559
11
0.529866
21
0.287048
0
LINE
8
BLACK
6
CONTINUOUS
10
0.529866
20
0.287048
11
0.532304
21
0.296797
0
LINE
8
BLACK
6
CONTINUOUS
10
0.532304
20
0.296797
11
0.532536
21
0.297169
0
LINE
8
BLACK
6
CONTINUOUS
10
0.532536
20
0.297169
11
0.532602
21
0.297602
0
LINE
8
BLACK
6
CONTINUOUS
10
0.532602
20
0.297602
11
0.535039
21
0.302477
0
LINE
8
BLACK
6
CONTINUOUS
10
0.535039
20
0.302477
11
0.535487
21
0.302932
0
LINE
8
BLACK
6
CONTINUOUS
10
0.535487
20
0.302932
11
0.535776
21
0.3035
0
LINE
8
BLACK
6
CONTINUOUS
10
0.535776
20
0.3035
11
0.540651
21
0.308374
0
LINE
8
BLACK
6
CONTINUOUS
10
0.540651
20
0.308374
11
0.541459
21
0.308786
0
LINE
8
BLACK
6
CONTINUOUS
10
0.541459
20
0.308786
11
0.54219
21
0.309326
0
LINE
8
BLACK
6
CONTINUOUS
10
0.54219
20
0.309326
11
0.549501
21
0.311763
0
LINE
8
BLACK
6
CONTINUOUS
10
0.549501
20
0.311763
11
0.550139
21
0.311768
0
LINE
8
BLACK
6
CONTINUOUS
10
0.550139
20
0.311768
11
0.550746
21
0.311965
0
LINE
8
BLACK
6
CONTINUOUS
10
0.550746
20
0.311965
11
0.558058
21
0.311965
0
LINE
8
BLACK
6
CONTINUOUS
10
0.558058
20
0.311965
11
0.558921
21
0.311684
0
LINE
8
BLACK
6
CONTINUOUS
10
0.587509
20
0.311772
11
0.588521
21
0.311772
0
LINE
8
BLACK
6
CONTINUOUS
10
0.588521
20
0.311772
11
0.5887
21
0.311641
0
LINE
8
BLACK
6
CONTINUOUS
10
0.5887
20
0.311641
11
0.588921
21
0.311617
0
LINE
8
BLACK
6
CONTINUOUS
10
0.588921
20
0.311617
11
0.58967
21
0.310937
0
LINE
8
BLACK
6
CONTINUOUS
10
0.58967
20
0.310937
11
0.590489
21
0.310342
0
LINE
8
BLACK
6
CONTINUOUS
10
0.590489
20
0.310342
11
0.590558
21
0.31013
0
LINE
8
BLACK
6
CONTINUOUS
10
0.590558
20
0.31013
11
0.590722
21
0.309981
0
LINE
8
BLACK
6
CONTINUOUS
10
0.590722
20
0.309981
11
0.612613
21
0.271672
0
LINE
8
BLACK
6
CONTINUOUS
10
0.612613
20
0.271672
11
0.612613
21
0.308028
0
LINE
8
BLACK
6
CONTINUOUS
10
0.612613
20
0.308028
11
0.613365
21
0.310342
0
LINE
8
BLACK
6
CONTINUOUS
10
0.613365
20
0.310342
11
0.615334
21
0.311772
0
LINE
8
BLACK
6
CONTINUOUS
10
0.615334
20
0.311772
11
0.617767
21
0.311772
0
LINE
8
BLACK
6
CONTINUOUS
10
0.617767
20
0.311772
11
0.619736
21
0.310342
0
LINE
8
BLACK
6
CONTINUOUS
10
0.619736
20
0.310342
11
0.620487
21
0.308028
0
LINE
8
BLACK
6
CONTINUOUS
10
0.620487
20
0.308028
11
0.620487
21
0.256847
0
LINE
8
BLACK
6
CONTINUOUS
10
0.620487
20
0.256847
11
0.620419
21
0.256635
0
LINE
8
BLACK
6
CONTINUOUS
10
0.620419
20
0.256635
11
0.620464
21
0.256418
0
LINE
8
BLACK
6
CONTINUOUS
10
0.620464
20
0.256418
11
0.620048
21
0.255495
0
LINE
8
BLACK
6
CONTINUOUS
10
0.620048
20
0.255495
11
0.619736
21
0.254533
0
LINE
8
BLACK
6
CONTINUOUS
10
0.619736
20
0.254533
11
0.619556
21
0.254402
0
LINE
8
BLACK
6
CONTINUOUS
10
0.619556
20
0.254402
11
0.619464
21
0.254199
0
LINE
8
BLACK
6
CONTINUOUS
10
0.619464
20
0.254199
11
0.618586
21
0.253697
0
LINE
8
BLACK
6
CONTINUOUS
10
0.618586
20
0.253697
11
0.617767
21
0.253102
0
LINE
8
BLACK
6
CONTINUOUS
10
0.617767
20
0.253102
11
0.617545
21
0.253102
0
LINE
8
BLACK
6
CONTINUOUS
10
0.617545
20
0.253102
11
0.617352
21
0.252992
0
LINE
8
BLACK
6
CONTINUOUS
10
0.617352
20
0.252992
11
0.616346
21
0.253102
0
LINE
8
BLACK
6
CONTINUOUS
10
0.616346
20
0.253102
11
0.615334
21
0.253102
0
LINE
8
BLACK
6
CONTINUOUS
10
0.615334
20
0.253102
11
0.615154
21
0.253233
0
LINE
8
BLACK
6
CONTINUOUS
10
0.615154
20
0.253233
11
0.614933
21
0.253257
0
LINE
8
BLACK
6
CONTINUOUS
10
0.614933
20
0.253257
11
0.614184
21
0.253938
0
LINE
8
BLACK
6
CONTINUOUS
10
0.614184
20
0.253938
11
0.613365
21
0.254533
0
LINE
8
BLACK
6
CONTINUOUS
10
0.613365
20
0.254533
11
0.613297
21
0.254744
0
LINE
8
BLACK
6
CONTINUOUS
10
0.613297
20
0.254744
11
0.613132
21
0.254893
0
LINE
8
BLACK
6
CONTINUOUS
10
0.613132
20
0.254893
11
0.591241
21
0.293203
0
LINE
8
BLACK
6
CONTINUOUS
10
0.591241
20
0.293203
11
0.591241
21
0.256847
0
LINE
8
BLACK
6
CONTINUOUS
10
0.591241
20
0.256847
11
0.590489
21
0.254533
0
LINE
8
BLACK
6
CONTINUOUS
10
0.590489
20
0.254533
11
0.588521
21
0.253102
0
LINE
8
BLACK
6
CONTINUOUS
10
0.588521
20
0.253102
11
0.586087
21
0.253102
0
LINE
8
BLACK
6
CONTINUOUS
10
0.586087
20
0.253102
11
0.584119
21
0.254533
0
LINE
8
BLACK
6
CONTINUOUS
10
0.584119
20
0.254533
11
0.583367
21
0.256847
0
LINE
8
BLACK
6
CONTINUOUS
10
0.583367
20
0.256847
11
0.583367
21
0.308028
0
LINE
8
BLACK
6
CONTINUOUS
10
0.583367
20
0.308028
11
0.583436
21
0.308239
0
LINE
8
BLACK
6
CONTINUOUS
10
0.583436
20
0.308239
11
0.58339
21
0.308457
0
LINE
8
BLACK
6
CONTINUOUS
10
0.58339
20
0.308457
11
0.583806
21
0.309379
0
LINE
8
BLACK
6
CONTINUOUS
10
0.583806
20
0.309379
11
0.584119
21
0.310342
0
LINE
8
BLACK
6
CONTINUOUS
10
0.584119
20
0.310342
11
0.584299
21
0.310473
0
LINE
8
BLACK
6
CONTINUOUS
10
0.584299
20
0.310473
11
0.58439
21
0.310675
0
LINE
8
BLACK
6
CONTINUOUS
10
0.58439
20
0.310675
11
0.585269
21
0.311177
0
LINE
8
BLACK
6
CONTINUOUS
10
0.585269
20
0.311177
11
0.586087
21
0.311772
0
LINE
8
BLACK
6
CONTINUOUS
10
0.586087
20
0.311772
11
0.58631
21
0.311772
0
LINE
8
BLACK
6
CONTINUOUS
10
0.58631
20
0.311772
11
0.586503
21
0.311882
0
LINE
8
BLACK
6
CONTINUOUS
10
0.586503
20
0.311882
11
0.587509
21
0.311772
  0
ENDSEC
  0
EOF
