  0
SECTION
  2
HEADER
  9
$ANGBASE
  50
0.0
  9
$ANGDIR
  70
1
  9
$MEASUREMENT
  70
0
  0
ENDSEC
  0
SECTION
  2
TABLES
  0
TABLE
  2
LTYPE
  70
4
  0
LTYPE
  5
40F
  2
CONTINUOUS
  70
0
  3
Solid line
  72
65
  73
0
  40
0.0
  0
LTYPE
  5
410
  2
DASHDOT
 70
0
  3
Dash Dot ____ _ ____ _
 72
65
 73
4
 40
2.0
 49
1.25
 49
-0.25
 49
0.25
 49
-0.25
  0
LTYPE
  5
411
  2
DASHED
 70
0
  3
Dashed __ __ __ __ __
 72
65
 73
2
 40
0.75
 49
0.5
 49
-0.25
  0
LTYPE
  5
43B
  2
DOTTED
 70
0
  3
Dotted .  .  .  .
 72
65
 73
2
 40
0.2
 49
0.0
 49
-0.2
  0
ENDTAB
  0
TABLE
  2
STYLE
  70
4
  0
STYLE
  2
KICAD
  70
0
  40
0
  41
1
  42
1
  50
0
  71
0
  3
isocp.shx
  0
STYLE
  2
KICADB
  70
0
  40
0
  41
1
  42
1
  50
0
  71
0
  3
isocp.shx
  0
STYLE
  2
KICADI
  70
0
  40
0
  41
1
  42
1
  50
15
  71
0
  3
isocp.shx
  0
STYLE
  2
KICADBI
  70
0
  40
0
  41
1
  42
1
  50
15
  71
0
  3
isocp.shx
  0
ENDTAB
  0
TABLE
  2
LAYER
  70
1
  0
LAYER
  2
BLACK
  70
0
  62
7
  6
CONTINUOUS
  0
ENDTAB
  0
ENDSEC
  0
SECTION
  2
ENTITIES
0
LINE
8
BLACK
6
CONTINUOUS
10
-0.395889
20
-0.237658
11
-0.38694
21
-0.240056
0
LINE
8
BLACK
6
CONTINUOUS
10
-0.38694
20
-0.240056
11
-0.378543
21
-0.243971
0
LINE
8
BLACK
6
CONTINUOUS
10
-0.378543
20
-0.243971
11
-0.370954
21
-0.249285
0
LINE
8
BLACK
6
CONTINUOUS
10
-0.370954
20
-0.249285
11
-0.364403
21
-0.255836
0
LINE
8
BLACK
6
CONTINUOUS
10
-0.364403
20
-0.255836
11
-0.359089
21
-0.263425
0
LINE
8
BLACK
6
CONTINUOUS
10
-0.359089
20
-0.263425
11
-0.355174
21
-0.271822
0
LINE
8
BLACK
6
CONTINUOUS
10
-0.355174
20
-0.271822
11
-0.352776
21
-0.280771
0
LINE
8
BLACK
6
CONTINUOUS
10
-0.352776
20
-0.280771
11
-0.351969
21
-0.29
0
LINE
8
BLACK
6
CONTINUOUS
10
-0.351969
20
-0.29
11
-0.352776
21
-0.299229
0
LINE
8
BLACK
6
CONTINUOUS
10
-0.352776
20
-0.299229
11
-0.355174
21
-0.308178
0
LINE
8
BLACK
6
CONTINUOUS
10
-0.355174
20
-0.308178
11
-0.359089
21
-0.316575
0
LINE
8
BLACK
6
CONTINUOUS
10
-0.359089
20
-0.316575
11
-0.364403
21
-0.324164
0
LINE
8
BLACK
6
CONTINUOUS
10
-0.364403
20
-0.324164
11
-0.370954
21
-0.330715
0
LINE
8
BLACK
6
CONTINUOUS
10
-0.370954
20
-0.330715
11
-0.378543
21
-0.336029
0
LINE
8
BLACK
6
CONTINUOUS
10
-0.378543
20
-0.336029
11
-0.38694
21
-0.339944
0
LINE
8
BLACK
6
CONTINUOUS
10
-0.38694
20
-0.339944
11
-0.395889
21
-0.342342
0
LINE
8
BLACK
6
CONTINUOUS
10
-0.395889
20
-0.342342
11
-0.405118
21
-0.34315
0
LINE
8
BLACK
6
CONTINUOUS
10
-0.405118
20
-0.34315
11
-0.414347
21
-0.342342
0
LINE
8
BLACK
6
CONTINUOUS
10
-0.414347
20
-0.342342
11
-0.423296
21
-0.339944
0
LINE
8
BLACK
6
CONTINUOUS
10
-0.423296
20
-0.339944
11
-0.431693
21
-0.336029
0
LINE
8
BLACK
6
CONTINUOUS
10
-0.431693
20
-0.336029
11
-0.439282
21
-0.330715
0
LINE
8
BLACK
6
CONTINUOUS
10
-0.439282
20
-0.330715
11
-0.445833
21
-0.324164
0
LINE
8
BLACK
6
CONTINUOUS
10
-0.445833
20
-0.324164
11
-0.451147
21
-0.316575
0
LINE
8
BLACK
6
CONTINUOUS
10
-0.451147
20
-0.316575
11
-0.455062
21
-0.308178
0
LINE
8
BLACK
6
CONTINUOUS
10
-0.455062
20
-0.308178
11
-0.45746
21
-0.299229
0
LINE
8
BLACK
6
CONTINUOUS
10
-0.45746
20
-0.299229
11
-0.458268
21
-0.29
0
LINE
8
BLACK
6
CONTINUOUS
10
-0.458268
20
-0.29
11
-0.45746
21
-0.280771
0
LINE
8
BLACK
6
CONTINUOUS
10
-0.45746
20
-0.280771
11
-0.455062
21
-0.271822
0
LINE
8
BLACK
6
CONTINUOUS
10
-0.455062
20
-0.271822
11
-0.451147
21
-0.263425
0
LINE
8
BLACK
6
CONTINUOUS
10
-0.451147
20
-0.263425
11
-0.445833
21
-0.255836
0
LINE
8
BLACK
6
CONTINUOUS
10
-0.445833
20
-0.255836
11
-0.439282
21
-0.249285
0
LINE
8
BLACK
6
CONTINUOUS
10
-0.439282
20
-0.249285
11
-0.431693
21
-0.243971
0
LINE
8
BLACK
6
CONTINUOUS
10
-0.431693
20
-0.243971
11
-0.423296
21
-0.240056
0
LINE
8
BLACK
6
CONTINUOUS
10
-0.423296
20
-0.240056
11
-0.414347
21
-0.237658
0
LINE
8
BLACK
6
CONTINUOUS
10
-0.414347
20
-0.237658
11
-0.405118
21
-0.23685
0
LINE
8
BLACK
6
CONTINUOUS
10
-0.405118
20
-0.23685
11
-0.395889
21
-0.237658
0
LINE
8
BLACK
6
CONTINUOUS
10
-0.00218799
20
-0.231122
11
0.00676091
21
-0.23352
0
LINE
8
BLACK
6
CONTINUOUS
10
0.00676091
20
-0.23352
11
0.0151575
21
-0.237436
0
LINE
8
BLACK
6
CONTINUOUS
10
0.0151575
20
-0.237436
11
0.0227466
21
-0.24275
0
LINE
8
BLACK
6
CONTINUOUS
10
0.0227466
20
-0.24275
11
0.0292976
21
-0.249301
0
LINE
8
BLACK
6
CONTINUOUS
10
0.0292976
20
-0.249301
11
0.0346116
21
-0.25689
0
LINE
8
BLACK
6
CONTINUOUS
10
0.0346116
20
-0.25689
11
0.038527
21
-0.265286
0
LINE
8
BLACK
6
CONTINUOUS
10
0.038527
20
-0.265286
11
0.0409248
21
-0.274235
0
LINE
8
BLACK
6
CONTINUOUS
10
0.0409248
20
-0.274235
11
0.0417323
21
-0.283465
0
LINE
8
BLACK
6
CONTINUOUS
10
0.0417323
20
-0.283465
11
0.0409248
21
-0.292694
0
LINE
8
BLACK
6
CONTINUOUS
10
0.0409248
20
-0.292694
11
0.038527
21
-0.301643
0
LINE
8
BLACK
6
CONTINUOUS
10
0.038527
20
-0.301643
11
0.0346116
21
-0.310039
0
LINE
8
BLACK
6
CONTINUOUS
10
0.0346116
20
-0.310039
11
0.0292976
21
-0.317628
0
LINE
8
BLACK
6
CONTINUOUS
10
0.0292976
20
-0.317628
11
0.0227466
21
-0.32418
0
LINE
8
BLACK
6
CONTINUOUS
10
0.0227466
20
-0.32418
11
0.0151575
21
-0.329493
0
LINE
8
BLACK
6
CONTINUOUS
10
0.0151575
20
-0.329493
11
0.00676091
21
-0.333409
0
LINE
8
BLACK
6
CONTINUOUS
10
0.00676091
20
-0.333409
11
-0.00218799
21
-0.335807
0
LINE
8
BLACK
6
CONTINUOUS
10
-0.00218799
20
-0.335807
11
-0.0114173
21
-0.336614
0
LINE
8
BLACK
6
CONTINUOUS
10
-0.0114173
20
-0.336614
11
-0.0206467
21
-0.335807
0
LINE
8
BLACK
6
CONTINUOUS
10
-0.0206467
20
-0.335807
11
-0.0295956
21
-0.333409
0
LINE
8
BLACK
6
CONTINUOUS
10
-0.0295956
20
-0.333409
11
-0.0379921
21
-0.329493
0
LINE
8
BLACK
6
CONTINUOUS
10
-0.0379921
20
-0.329493
11
-0.0455812
21
-0.32418
0
LINE
8
BLACK
6
CONTINUOUS
10
-0.0455812
20
-0.32418
11
-0.0521323
21
-0.317628
0
LINE
8
BLACK
6
CONTINUOUS
10
-0.0521323
20
-0.317628
11
-0.0574462
21
-0.310039
0
LINE
8
BLACK
6
CONTINUOUS
10
-0.0574462
20
-0.310039
11
-0.0613616
21
-0.301643
0
LINE
8
BLACK
6
CONTINUOUS
10
-0.0613616
20
-0.301643
11
-0.0637594
21
-0.292694
0
LINE
8
BLACK
6
CONTINUOUS
10
-0.0637594
20
-0.292694
11
-0.0645669
21
-0.283465
0
LINE
8
BLACK
6
CONTINUOUS
10
-0.0645669
20
-0.283465
11
-0.0637594
21
-0.274235
0
LINE
8
BLACK
6
CONTINUOUS
10
-0.0637594
20
-0.274235
11
-0.0613616
21
-0.265286
0
LINE
8
BLACK
6
CONTINUOUS
10
-0.0613616
20
-0.265286
11
-0.0574462
21
-0.25689
0
LINE
8
BLACK
6
CONTINUOUS
10
-0.0574462
20
-0.25689
11
-0.0521323
21
-0.249301
0
LINE
8
BLACK
6
CONTINUOUS
10
-0.0521323
20
-0.249301
11
-0.0455812
21
-0.24275
0
LINE
8
BLACK
6
CONTINUOUS
10
-0.0455812
20
-0.24275
11
-0.0379921
21
-0.237436
0
LINE
8
BLACK
6
CONTINUOUS
10
-0.0379921
20
-0.237436
11
-0.0295956
21
-0.23352
0
LINE
8
BLACK
6
CONTINUOUS
10
-0.0295956
20
-0.23352
11
-0.0206467
21
-0.231122
0
LINE
8
BLACK
6
CONTINUOUS
10
-0.0206467
20
-0.231122
11
-0.0114173
21
-0.230315
0
LINE
8
BLACK
6
CONTINUOUS
10
-0.0114173
20
-0.230315
11
-0.00218799
21
-0.231122
0
LINE
8
BLACK
6
CONTINUOUS
10
0.258465
20
-0.133465
11
0.191535
21
-0.133465
0
LINE
8
BLACK
6
CONTINUOUS
10
0.191535
20
-0.133465
11
0.191535
21
-0.0665354
0
LINE
8
BLACK
6
CONTINUOUS
10
0.191535
20
-0.0665354
11
0.258465
21
-0.0665354
0
LINE
8
BLACK
6
CONTINUOUS
10
0.258465
20
-0.0665354
11
0.258465
21
-0.133465
0
LINE
8
BLACK
6
CONTINUOUS
10
0.0086502
20
0.117793
11
0.0221317
21
0.116018
0
LINE
8
BLACK
6
CONTINUOUS
10
0.0221317
20
0.116018
11
0.0353198
21
0.112706
0
LINE
8
BLACK
6
CONTINUOUS
10
0.0353198
20
0.112706
11
0.0480398
21
0.107899
0
LINE
8
BLACK
6
CONTINUOUS
10
0.0480398
20
0.107899
11
0.060123
21
0.101662
0
LINE
8
BLACK
6
CONTINUOUS
10
0.060123
20
0.101662
11
0.0714093
21
0.0940783
0
LINE
8
BLACK
6
CONTINUOUS
10
0.0714093
20
0.0940783
11
0.0817492
21
0.0852473
0
LINE
8
BLACK
6
CONTINUOUS
10
0.0817492
20
0.0852473
11
0.0910055
21
0.0752863
0
LINE
8
BLACK
6
CONTINUOUS
10
0.0910055
20
0.0752863
11
0.0990556
21
0.0643274
0
LINE
8
BLACK
6
CONTINUOUS
10
0.0990556
20
0.0643274
11
0.105793
21
0.052516
0
LINE
8
BLACK
6
CONTINUOUS
10
0.105793
20
0.052516
11
0.111128
21
0.0400084
0
LINE
8
BLACK
6
CONTINUOUS
10
0.111128
20
0.0400084
11
0.11499
21
0.0269706
0
LINE
8
BLACK
6
CONTINUOUS
10
0.11499
20
0.0269706
11
0.117327
21
0.0135752
0
LINE
8
BLACK
6
CONTINUOUS
10
0.117327
20
0.0135752
11
0.11811
21
0
0
LINE
8
BLACK
6
CONTINUOUS
10
0.11811
20
0
11
0.117877
21
-0.00741622
0
LINE
8
BLACK
6
CONTINUOUS
10
0.117877
20
-0.00741622
11
0.116244
21
-0.0209155
0
LINE
8
BLACK
6
CONTINUOUS
10
0.116244
20
-0.0209155
11
0.113069
21
-0.0341376
0
LINE
8
BLACK
6
CONTINUOUS
10
0.113069
20
-0.0341376
11
0.108396
21
-0.0469072
0
LINE
8
BLACK
6
CONTINUOUS
10
0.108396
20
-0.0469072
11
0.102286
21
-0.0590551
0
LINE
8
BLACK
6
CONTINUOUS
10
0.102286
20
-0.0590551
11
0.0948209
21
-0.0704203
0
LINE
8
BLACK
6
CONTINUOUS
10
0.0948209
20
-0.0704203
11
0.0860987
21
-0.080852
0
LINE
8
BLACK
6
CONTINUOUS
10
0.0860987
20
-0.080852
11
0.0762352
21
-0.0902121
0
LINE
8
BLACK
6
CONTINUOUS
10
0.0762352
20
-0.0902121
11
0.0653612
21
-0.0983765
0
LINE
8
BLACK
6
CONTINUOUS
10
0.0653612
20
-0.0983765
11
0.0536209
21
-0.105237
0
LINE
8
BLACK
6
CONTINUOUS
10
0.0536209
20
-0.105237
11
0.0411699
21
-0.110703
0
LINE
8
BLACK
6
CONTINUOUS
10
0.0411699
20
-0.110703
11
0.0281732
21
-0.114701
0
LINE
8
BLACK
6
CONTINUOUS
10
0.0281732
20
-0.114701
11
0.0148031
21
-0.117179
0
LINE
8
BLACK
6
CONTINUOUS
10
0.0148031
20
-0.117179
11
0.00123681
21
-0.118104
0
LINE
8
BLACK
6
CONTINUOUS
10
0.00123681
20
-0.118104
11
-0.0123459
21
-0.117463
0
LINE
8
BLACK
6
CONTINUOUS
10
-0.0123459
20
-0.117463
11
-0.025765
21
-0.115266
0
LINE
8
BLACK
6
CONTINUOUS
10
-0.025765
20
-0.115266
11
-0.0388425
21
-0.111541
0
LINE
8
BLACK
6
CONTINUOUS
10
-0.0388425
20
-0.111541
11
-0.0514052
21
-0.106337
0
LINE
8
BLACK
6
CONTINUOUS
10
-0.0514052
20
-0.106337
11
-0.0632866
21
-0.0997238
0
LINE
8
BLACK
6
CONTINUOUS
10
-0.0632866
20
-0.0997238
11
-0.0743292
21
-0.0917889
0
LINE
8
BLACK
6
CONTINUOUS
10
-0.0743292
20
-0.0917889
11
-0.0843865
21
-0.0826374
0
LINE
8
BLACK
6
CONTINUOUS
10
-0.0843865
20
-0.0826374
11
-0.0933254
21
-0.0723906
0
LINE
8
BLACK
6
CONTINUOUS
10
-0.0933254
20
-0.0723906
11
-0.101027
21
-0.0611843
0
LINE
8
BLACK
6
CONTINUOUS
10
-0.101027
20
-0.0611843
11
-0.10739
21
-0.049167
0
LINE
8
BLACK
6
CONTINUOUS
10
-0.10739
20
-0.049167
11
-0.11233
21
-0.0364981
0
LINE
8
BLACK
6
CONTINUOUS
10
-0.11233
20
-0.0364981
11
-0.11578
21
-0.0233454
0
LINE
8
BLACK
6
CONTINUOUS
10
-0.11578
20
-0.0233454
11
-0.117696
21
-0.00988323
0
LINE
8
BLACK
6
CONTINUOUS
10
-0.117696
20
-0.00988323
11
-0.118052
21
0.00370992
0
LINE
8
BLACK
6
CONTINUOUS
10
-0.118052
20
0.00370992
11
-0.116843
21
0.0172539
0
LINE
8
BLACK
6
CONTINUOUS
10
-0.116843
20
0.0172539
11
-0.114086
21
0.0305692
0
LINE
8
BLACK
6
CONTINUOUS
10
-0.114086
20
0.0305692
11
-0.109816
21
0.0434793
0
LINE
8
BLACK
6
CONTINUOUS
10
-0.109816
20
0.0434793
11
-0.104091
21
0.0558131
0
LINE
8
BLACK
6
CONTINUOUS
10
-0.104091
20
0.0558131
11
-0.0969861
21
0.0674071
0
LINE
8
BLACK
6
CONTINUOUS
10
-0.0969861
20
0.0674071
11
-0.0885958
21
0.0781077
0
LINE
8
BLACK
6
CONTINUOUS
10
-0.0885958
20
0.0781077
11
-0.0790312
21
0.087773
0
LINE
8
BLACK
6
CONTINUOUS
10
-0.0790312
20
0.087773
11
-0.0684191
21
0.0962749
0
LINE
8
BLACK
6
CONTINUOUS
10
-0.0684191
20
0.0962749
11
-0.0569
21
0.103501
0
LINE
8
BLACK
6
CONTINUOUS
10
-0.0569
20
0.103501
11
-0.0446269
21
0.109355
0
LINE
8
BLACK
6
CONTINUOUS
10
-0.0446269
20
0.109355
11
-0.0317622
21
0.113759
0
LINE
8
BLACK
6
CONTINUOUS
10
-0.0317622
20
0.113759
11
-0.0184765
21
0.116656
0
LINE
8
BLACK
6
CONTINUOUS
10
-0.0184765
20
0.116656
11
-0.00494594
21
0.118007
0
LINE
8
BLACK
6
CONTINUOUS
10
-0.00494594
20
0.118007
11
0.0086502
21
0.117793
0
LINE
8
BLACK
6
CONTINUOUS
10
0.235341
20
0.0318267
11
0.241732
21
0.0289812
0
LINE
8
BLACK
6
CONTINUOUS
10
0.241732
20
0.0289812
11
0.247392
21
0.024869
0
LINE
8
BLACK
6
CONTINUOUS
10
0.247392
20
0.024869
11
0.252073
21
0.01967
0
LINE
8
BLACK
6
CONTINUOUS
10
0.252073
20
0.01967
11
0.255571
21
0.0136113
0
LINE
8
BLACK
6
CONTINUOUS
10
0.255571
20
0.0136113
11
0.257733
21
0.00695768
0
LINE
8
BLACK
6
CONTINUOUS
10
0.257733
20
0.00695768
11
0.258465
21
0
0
LINE
8
BLACK
6
CONTINUOUS
10
0.258465
20
0
11
0.257733
21
-0.00695768
0
LINE
8
BLACK
6
CONTINUOUS
10
0.257733
20
-0.00695768
11
0.255571
21
-0.0136113
0
LINE
8
BLACK
6
CONTINUOUS
10
0.255571
20
-0.0136113
11
0.252073
21
-0.01967
0
LINE
8
BLACK
6
CONTINUOUS
10
0.252073
20
-0.01967
11
0.247392
21
-0.024869
0
LINE
8
BLACK
6
CONTINUOUS
10
0.247392
20
-0.024869
11
0.241732
21
-0.0289812
0
LINE
8
BLACK
6
CONTINUOUS
10
0.241732
20
-0.0289812
11
0.235341
21
-0.0318267
0
LINE
8
BLACK
6
CONTINUOUS
10
0.235341
20
-0.0318267
11
0.228498
21
-0.0332813
0
LINE
8
BLACK
6
CONTINUOUS
10
0.228498
20
-0.0332813
11
0.221502
21
-0.0332813
0
LINE
8
BLACK
6
CONTINUOUS
10
0.221502
20
-0.0332813
11
0.214659
21
-0.0318267
0
LINE
8
BLACK
6
CONTINUOUS
10
0.214659
20
-0.0318267
11
0.208268
21
-0.0289812
0
LINE
8
BLACK
6
CONTINUOUS
10
0.208268
20
-0.0289812
11
0.202608
21
-0.024869
0
LINE
8
BLACK
6
CONTINUOUS
10
0.202608
20
-0.024869
11
0.197927
21
-0.01967
0
LINE
8
BLACK
6
CONTINUOUS
10
0.197927
20
-0.01967
11
0.194429
21
-0.0136113
0
LINE
8
BLACK
6
CONTINUOUS
10
0.194429
20
-0.0136113
11
0.192267
21
-0.00695768
0
LINE
8
BLACK
6
CONTINUOUS
10
0.192267
20
-0.00695768
11
0.191535
21
0
0
LINE
8
BLACK
6
CONTINUOUS
10
0.191535
20
0
11
0.192267
21
0.00695768
0
LINE
8
BLACK
6
CONTINUOUS
10
0.192267
20
0.00695768
11
0.194429
21
0.0136113
0
LINE
8
BLACK
6
CONTINUOUS
10
0.194429
20
0.0136113
11
0.197927
21
0.01967
0
LINE
8
BLACK
6
CONTINUOUS
10
0.197927
20
0.01967
11
0.202608
21
0.024869
0
LINE
8
BLACK
6
CONTINUOUS
10
0.202608
20
0.024869
11
0.208268
21
0.0289812
0
LINE
8
BLACK
6
CONTINUOUS
10
0.208268
20
0.0289812
11
0.214659
21
0.0318267
0
LINE
8
BLACK
6
CONTINUOUS
10
0.214659
20
0.0318267
11
0.221502
21
0.0332813
0
LINE
8
BLACK
6
CONTINUOUS
10
0.221502
20
0.0332813
11
0.228498
21
0.0332813
0
LINE
8
BLACK
6
CONTINUOUS
10
0.228498
20
0.0332813
11
0.235341
21
0.0318267
0
LINE
8
BLACK
6
CONTINUOUS
10
0.235341
20
0.131827
11
0.241732
21
0.128981
0
LINE
8
BLACK
6
CONTINUOUS
10
0.241732
20
0.128981
11
0.247392
21
0.124869
0
LINE
8
BLACK
6
CONTINUOUS
10
0.247392
20
0.124869
11
0.252073
21
0.11967
0
LINE
8
BLACK
6
CONTINUOUS
10
0.252073
20
0.11967
11
0.255571
21
0.113611
0
LINE
8
BLACK
6
CONTINUOUS
10
0.255571
20
0.113611
11
0.257733
21
0.106958
0
LINE
8
BLACK
6
CONTINUOUS
10
0.257733
20
0.106958
11
0.258465
21
0.1
0
LINE
8
BLACK
6
CONTINUOUS
10
0.258465
20
0.1
11
0.257733
21
0.0930423
0
LINE
8
BLACK
6
CONTINUOUS
10
0.257733
20
0.0930423
11
0.255571
21
0.0863887
0
LINE
8
BLACK
6
CONTINUOUS
10
0.255571
20
0.0863887
11
0.252073
21
0.08033
0
LINE
8
BLACK
6
CONTINUOUS
10
0.252073
20
0.08033
11
0.247392
21
0.075131
0
LINE
8
BLACK
6
CONTINUOUS
10
0.247392
20
0.075131
11
0.241732
21
0.0710188
0
LINE
8
BLACK
6
CONTINUOUS
10
0.241732
20
0.0710188
11
0.235341
21
0.0681733
0
LINE
8
BLACK
6
CONTINUOUS
10
0.235341
20
0.0681733
11
0.228498
21
0.0667187
0
LINE
8
BLACK
6
CONTINUOUS
10
0.228498
20
0.0667187
11
0.221502
21
0.0667187
0
LINE
8
BLACK
6
CONTINUOUS
10
0.221502
20
0.0667187
11
0.214659
21
0.0681733
0
LINE
8
BLACK
6
CONTINUOUS
10
0.214659
20
0.0681733
11
0.208268
21
0.0710188
0
LINE
8
BLACK
6
CONTINUOUS
10
0.208268
20
0.0710188
11
0.202608
21
0.075131
0
LINE
8
BLACK
6
CONTINUOUS
10
0.202608
20
0.075131
11
0.197927
21
0.08033
0
LINE
8
BLACK
6
CONTINUOUS
10
0.197927
20
0.08033
11
0.194429
21
0.0863887
0
LINE
8
BLACK
6
CONTINUOUS
10
0.194429
20
0.0863887
11
0.192267
21
0.0930423
0
LINE
8
BLACK
6
CONTINUOUS
10
0.192267
20
0.0930423
11
0.191535
21
0.1
0
LINE
8
BLACK
6
CONTINUOUS
10
0.191535
20
0.1
11
0.192267
21
0.106958
0
LINE
8
BLACK
6
CONTINUOUS
10
0.192267
20
0.106958
11
0.194429
21
0.113611
0
LINE
8
BLACK
6
CONTINUOUS
10
0.194429
20
0.113611
11
0.197927
21
0.11967
0
LINE
8
BLACK
6
CONTINUOUS
10
0.197927
20
0.11967
11
0.202608
21
0.124869
0
LINE
8
BLACK
6
CONTINUOUS
10
0.202608
20
0.124869
11
0.208268
21
0.128981
0
LINE
8
BLACK
6
CONTINUOUS
10
0.208268
20
0.128981
11
0.214659
21
0.131827
0
LINE
8
BLACK
6
CONTINUOUS
10
0.214659
20
0.131827
11
0.221502
21
0.133281
0
LINE
8
BLACK
6
CONTINUOUS
10
0.221502
20
0.133281
11
0.228498
21
0.133281
0
LINE
8
BLACK
6
CONTINUOUS
10
0.228498
20
0.133281
11
0.235341
21
0.131827
  0
ENDSEC
  0
EOF
