  0
SECTION
  2
HEADER
  9
$ANGBASE
  50
0.0
  9
$ANGDIR
  70
1
  9
$MEASUREMENT
  70
0
  0
ENDSEC
  0
SECTION
  2
TABLES
  0
TABLE
  2
LTYPE
  70
4
  0
LTYPE
  5
40F
  2
CONTINUOUS
  70
0
  3
Solid line
  72
65
  73
0
  40
0.0
  0
LTYPE
  5
410
  2
DASHDOT
 70
0
  3
Dash Dot ____ _ ____ _
 72
65
 73
4
 40
2.0
 49
1.25
 49
-0.25
 49
0.25
 49
-0.25
  0
LTYPE
  5
411
  2
DASHED
 70
0
  3
Dashed __ __ __ __ __
 72
65
 73
2
 40
0.75
 49
0.5
 49
-0.25
  0
LTYPE
  5
43B
  2
DOTTED
 70
0
  3
Dotted .  .  .  .
 72
65
 73
2
 40
0.2
 49
0.0
 49
-0.2
  0
ENDTAB
  0
TABLE
  2
STYLE
  70
4
  0
STYLE
  2
KICAD
  70
0
  40
0
  41
1
  42
1
  50
0
  71
0
  3
isocp.shx
  0
STYLE
  2
KICADB
  70
0
  40
0
  41
1
  42
1
  50
0
  71
0
  3
isocp.shx
  0
STYLE
  2
KICADI
  70
0
  40
0
  41
1
  42
1
  50
15
  71
0
  3
isocp.shx
  0
STYLE
  2
KICADBI
  70
0
  40
0
  41
1
  42
1
  50
15
  71
0
  3
isocp.shx
  0
ENDTAB
  0
TABLE
  2
LAYER
  70
1
  0
LAYER
  2
BLACK
  70
0
  62
7
  6
CONTINUOUS
  0
ENDTAB
  0
ENDSEC
  0
SECTION
  2
ENTITIES
0
LINE
8
BLACK
6
CONTINUOUS
10
0.261478
20
-0.0592608
11
0.264032
21
-0.0609677
0
LINE
8
BLACK
6
CONTINUOUS
10
0.264032
20
-0.0609677
11
0.265739
21
-0.0635222
0
LINE
8
BLACK
6
CONTINUOUS
10
0.265739
20
-0.0635222
11
0.266339
21
-0.0665354
0
LINE
8
BLACK
6
CONTINUOUS
10
0.266339
20
-0.0665354
11
0.266339
21
-0.133465
0
LINE
8
BLACK
6
CONTINUOUS
10
0.266339
20
-0.133465
11
0.265739
21
-0.136478
0
LINE
8
BLACK
6
CONTINUOUS
10
0.265739
20
-0.136478
11
0.264032
21
-0.139032
0
LINE
8
BLACK
6
CONTINUOUS
10
0.264032
20
-0.139032
11
0.261478
21
-0.140739
0
LINE
8
BLACK
6
CONTINUOUS
10
0.261478
20
-0.140739
11
0.258465
21
-0.141339
0
LINE
8
BLACK
6
CONTINUOUS
10
0.258465
20
-0.141339
11
0.191535
21
-0.141339
0
LINE
8
BLACK
6
CONTINUOUS
10
0.191535
20
-0.141339
11
0.188522
21
-0.140739
0
LINE
8
BLACK
6
CONTINUOUS
10
0.188522
20
-0.140739
11
0.185968
21
-0.139032
0
LINE
8
BLACK
6
CONTINUOUS
10
0.185968
20
-0.139032
11
0.184261
21
-0.136478
0
LINE
8
BLACK
6
CONTINUOUS
10
0.184261
20
-0.136478
11
0.183661
21
-0.133465
0
LINE
8
BLACK
6
CONTINUOUS
10
0.183661
20
-0.133465
11
0.183661
21
-0.0665354
0
LINE
8
BLACK
6
CONTINUOUS
10
0.183661
20
-0.0665354
11
0.184261
21
-0.0635222
0
LINE
8
BLACK
6
CONTINUOUS
10
0.184261
20
-0.0635222
11
0.185968
21
-0.0609677
0
LINE
8
BLACK
6
CONTINUOUS
10
0.185968
20
-0.0609677
11
0.188522
21
-0.0592608
0
LINE
8
BLACK
6
CONTINUOUS
10
0.188522
20
-0.0592608
11
0.191535
21
-0.0586614
0
LINE
8
BLACK
6
CONTINUOUS
10
0.191535
20
-0.0586614
11
0.258465
21
-0.0586614
0
LINE
8
BLACK
6
CONTINUOUS
10
0.258465
20
-0.0586614
11
0.261478
21
-0.0592608
0
LINE
8
BLACK
6
CONTINUOUS
10
0.014917
20
0.125098
11
0.0287686
21
0.122656
0
LINE
8
BLACK
6
CONTINUOUS
10
0.0287686
20
0.122656
11
0.0422616
21
0.118684
0
LINE
8
BLACK
6
CONTINUOUS
10
0.0422616
20
0.118684
11
0.0552279
21
0.113234
0
LINE
8
BLACK
6
CONTINUOUS
10
0.0552279
20
0.113234
11
0.0675057
21
0.106372
0
LINE
8
BLACK
6
CONTINUOUS
10
0.0675057
20
0.106372
11
0.0789422
21
0.0981843
0
LINE
8
BLACK
6
CONTINUOUS
10
0.0789422
20
0.0981843
11
0.0893947
21
0.0887728
0
LINE
8
BLACK
6
CONTINUOUS
10
0.0893947
20
0.0887728
11
0.098733
21
0.0782548
0
LINE
8
BLACK
6
CONTINUOUS
10
0.098733
20
0.0782548
11
0.106841
21
0.0667615
0
LINE
8
BLACK
6
CONTINUOUS
10
0.106841
20
0.0667615
11
0.113617
21
0.054436
0
LINE
8
BLACK
6
CONTINUOUS
10
0.113617
20
0.054436
11
0.118977
21
0.041432
0
LINE
8
BLACK
6
CONTINUOUS
10
0.118977
20
0.041432
11
0.122853
21
0.0279116
0
LINE
8
BLACK
6
CONTINUOUS
10
0.122853
20
0.0279116
11
0.125199
21
0.0140433
0
LINE
8
BLACK
6
CONTINUOUS
10
0.125199
20
0.0140433
11
0.125984
21
0
0
LINE
8
BLACK
6
CONTINUOUS
10
0.125984
20
0
11
0.125935
21
-0.00351768
0
LINE
8
BLACK
6
CONTINUOUS
10
0.125935
20
-0.00351768
11
0.124758
21
-0.0175336
0
LINE
8
BLACK
6
CONTINUOUS
10
0.124758
20
-0.0175336
11
0.122026
21
-0.031331
0
LINE
8
BLACK
6
CONTINUOUS
10
0.122026
20
-0.031331
11
0.117773
21
-0.0447379
0
LINE
8
BLACK
6
CONTINUOUS
10
0.117773
20
-0.0447379
11
0.112052
21
-0.0575871
0
LINE
8
BLACK
6
CONTINUOUS
10
0.112052
20
-0.0575871
11
0.104935
21
-0.0697186
0
LINE
8
BLACK
6
CONTINUOUS
10
0.104935
20
-0.0697186
11
0.0965095
21
-0.0809811
0
LINE
8
BLACK
6
CONTINUOUS
10
0.0965095
20
-0.0809811
11
0.0868812
21
-0.0912343
0
LINE
8
BLACK
6
CONTINUOUS
10
0.0868812
20
-0.0912343
11
0.07617
21
-0.10035
0
LINE
8
BLACK
6
CONTINUOUS
10
0.07617
20
-0.10035
11
0.0645093
21
-0.108215
0
LINE
8
BLACK
6
CONTINUOUS
10
0.0645093
20
-0.108215
11
0.0520446
21
-0.114732
0
LINE
8
BLACK
6
CONTINUOUS
10
0.0520446
20
-0.114732
11
0.0389313
21
-0.119818
0
LINE
8
BLACK
6
CONTINUOUS
10
0.0389313
20
-0.119818
11
0.0253326
21
-0.123411
0
LINE
8
BLACK
6
CONTINUOUS
10
0.0253326
20
-0.123411
11
0.0114183
21
-0.125466
0
LINE
8
BLACK
6
CONTINUOUS
10
0.0114183
20
-0.125466
11
-0.00263843
21
-0.125957
0
LINE
8
BLACK
6
CONTINUOUS
10
-0.00263843
20
-0.125957
11
-0.0166622
21
-0.124878
0
LINE
8
BLACK
6
CONTINUOUS
10
-0.0166622
20
-0.124878
11
-0.0304783
21
-0.122242
0
LINE
8
BLACK
6
CONTINUOUS
10
-0.0304783
20
-0.122242
11
-0.0439146
21
-0.118083
0
LINE
8
BLACK
6
CONTINUOUS
10
-0.0439146
20
-0.118083
11
-0.0568035
21
-0.112452
0
LINE
8
BLACK
6
CONTINUOUS
10
-0.0568035
20
-0.112452
11
-0.0689843
21
-0.105419
0
LINE
8
BLACK
6
CONTINUOUS
10
-0.0689843
20
-0.105419
11
-0.0803054
21
-0.0970725
0
LINE
8
BLACK
6
CONTINUOUS
10
-0.0803054
20
-0.0970725
11
-0.0906255
21
-0.087516
0
LINE
8
BLACK
6
CONTINUOUS
10
-0.0906255
20
-0.087516
11
-0.099816
21
-0.0768687
0
LINE
8
BLACK
6
CONTINUOUS
10
-0.099816
20
-0.0768687
11
-0.107762
21
-0.0652632
0
LINE
8
BLACK
6
CONTINUOUS
10
-0.107762
20
-0.0652632
11
-0.114366
21
-0.0528444
0
LINE
8
BLACK
6
CONTINUOUS
10
-0.114366
20
-0.0528444
11
-0.119543
21
-0.0397668
0
LINE
8
BLACK
6
CONTINUOUS
10
-0.119543
20
-0.0397668
11
-0.123231
21
-0.0261936
0
LINE
8
BLACK
6
CONTINUOUS
10
-0.123231
20
-0.0261936
11
-0.125383
21
-0.0122939
0
LINE
8
BLACK
6
CONTINUOUS
10
-0.125383
20
-0.0122939
11
-0.125972
21
0.00175902
0
LINE
8
BLACK
6
CONTINUOUS
10
-0.125972
20
0.00175902
11
-0.124991
21
0.01579
0
LINE
8
BLACK
6
CONTINUOUS
10
-0.124991
20
0.01579
11
-0.122452
21
0.0296242
0
LINE
8
BLACK
6
CONTINUOUS
10
-0.122452
20
0.0296242
11
-0.118386
21
0.0430891
0
LINE
8
BLACK
6
CONTINUOUS
10
-0.118386
20
0.0430891
11
-0.112846
21
0.056017
0
LINE
8
BLACK
6
CONTINUOUS
10
-0.112846
20
0.056017
11
-0.105898
21
0.0682467
0
LINE
8
BLACK
6
CONTINUOUS
10
-0.105898
20
0.0682467
11
-0.0976308
21
0.0796257
0
LINE
8
BLACK
6
CONTINUOUS
10
-0.0976308
20
0.0796257
11
-0.0881466
21
0.0900123
0
LINE
8
BLACK
6
CONTINUOUS
10
-0.0881466
20
0.0900123
11
-0.0775637
21
0.0992769
0
LINE
8
BLACK
6
CONTINUOUS
10
-0.0775637
20
0.0992769
11
-0.066014
21
0.107304
0
LINE
8
BLACK
6
CONTINUOUS
10
-0.066014
20
0.107304
11
-0.0536415
21
0.113994
0
LINE
8
BLACK
6
CONTINUOUS
10
-0.0536415
20
0.113994
11
-0.0406004
21
0.119263
0
LINE
8
BLACK
6
CONTINUOUS
10
-0.0406004
20
0.119263
11
-0.0270533
21
0.123045
0
LINE
8
BLACK
6
CONTINUOUS
10
-0.0270533
20
0.123045
11
-0.0131689
21
0.125294
0
LINE
8
BLACK
6
CONTINUOUS
10
-0.0131689
20
0.125294
11
0.000879528
21
0.125981
0
LINE
8
BLACK
6
CONTINUOUS
10
0.000879528
20
0.125981
11
0.014917
21
0.125098
0
LINE
8
BLACK
6
CONTINUOUS
10
0.233312
20
0.0404943
11
0.241019
21
0.0381085
0
LINE
8
BLACK
6
CONTINUOUS
10
0.241019
20
0.0381085
11
0.248116
21
0.0342712
0
LINE
8
BLACK
6
CONTINUOUS
10
0.248116
20
0.0342712
11
0.254333
21
0.0291286
0
LINE
8
BLACK
6
CONTINUOUS
10
0.254333
20
0.0291286
11
0.259432
21
0.0228764
0
LINE
8
BLACK
6
CONTINUOUS
10
0.259432
20
0.0228764
11
0.263219
21
0.0157529
0
LINE
8
BLACK
6
CONTINUOUS
10
0.263219
20
0.0157529
11
0.265551
21
0.00802937
0
LINE
8
BLACK
6
CONTINUOUS
10
0.265551
20
0.00802937
11
0.266339
21
0
0
LINE
8
BLACK
6
CONTINUOUS
10
0.266339
20
0
11
0.266322
21
-0.00115425
0
LINE
8
BLACK
6
CONTINUOUS
10
0.266322
20
-0.00115425
11
0.265311
21
-0.0091585
0
LINE
8
BLACK
6
CONTINUOUS
10
0.265311
20
-0.0091585
11
0.262765
21
-0.0168139
0
LINE
8
BLACK
6
CONTINUOUS
10
0.262765
20
-0.0168139
11
0.25878
21
-0.0238289
0
LINE
8
BLACK
6
CONTINUOUS
10
0.25878
20
-0.0238289
11
0.253508
21
-0.0299362
0
LINE
8
BLACK
6
CONTINUOUS
10
0.253508
20
-0.0299362
11
0.24715
21
-0.0349033
0
LINE
8
BLACK
6
CONTINUOUS
10
0.24715
20
-0.0349033
11
0.239949
21
-0.0385409
0
LINE
8
BLACK
6
CONTINUOUS
10
0.239949
20
-0.0385409
11
0.232178
21
-0.0407106
0
LINE
8
BLACK
6
CONTINUOUS
10
0.232178
20
-0.0407106
11
0.224134
21
-0.0413295
0
LINE
8
BLACK
6
CONTINUOUS
10
0.224134
20
-0.0413295
11
0.216123
21
-0.0403743
0
LINE
8
BLACK
6
CONTINUOUS
10
0.216123
20
-0.0403743
11
0.20845
21
-0.0378811
0
LINE
8
BLACK
6
CONTINUOUS
10
0.20845
20
-0.0378811
11
0.201408
21
-0.0339452
0
LINE
8
BLACK
6
CONTINUOUS
10
0.201408
20
-0.0339452
11
0.195264
21
-0.0287162
0
LINE
8
BLACK
6
CONTINUOUS
10
0.195264
20
-0.0287162
11
0.190252
21
-0.0223935
0
LINE
8
BLACK
6
CONTINUOUS
10
0.190252
20
-0.0223935
11
0.186564
21
-0.0152178
0
LINE
8
BLACK
6
CONTINUOUS
10
0.186564
20
-0.0152178
11
0.184341
21
-0.0074624
0
LINE
8
BLACK
6
CONTINUOUS
10
0.184341
20
-0.0074624
11
0.183665
21
0.000577165
0
LINE
8
BLACK
6
CONTINUOUS
10
0.183665
20
0.000577165
11
0.184565
21
0.00859476
0
LINE
8
BLACK
6
CONTINUOUS
10
0.184565
20
0.00859476
11
0.187004
21
0.016285
0
LINE
8
BLACK
6
CONTINUOUS
10
0.187004
20
0.016285
11
0.190891
21
0.0233549
0
LINE
8
BLACK
6
CONTINUOUS
10
0.190891
20
0.0233549
11
0.196077
21
0.0295353
0
LINE
8
BLACK
6
CONTINUOUS
10
0.196077
20
0.0295353
11
0.202365
21
0.0345907
0
LINE
8
BLACK
6
CONTINUOUS
10
0.202365
20
0.0345907
11
0.209514
21
0.0383285
0
LINE
8
BLACK
6
CONTINUOUS
10
0.209514
20
0.0383285
11
0.217254
21
0.0406064
0
LINE
8
BLACK
6
CONTINUOUS
10
0.217254
20
0.0406064
11
0.225289
21
0.0413376
0
LINE
8
BLACK
6
CONTINUOUS
10
0.225289
20
0.0413376
11
0.233312
21
0.0404943
0
LINE
8
BLACK
6
CONTINUOUS
10
-0.366514
20
0.0368022
11
-0.364606
21
0.0355273
0
LINE
8
BLACK
6
CONTINUOUS
10
-0.364606
20
0.0355273
11
-0.362698
21
0.0368022
0
LINE
8
BLACK
6
CONTINUOUS
10
-0.362698
20
0.0368022
11
-0.359685
21
0.0374016
0
LINE
8
BLACK
6
CONTINUOUS
10
-0.359685
20
0.0374016
11
-0.320315
21
0.0374016
0
LINE
8
BLACK
6
CONTINUOUS
10
-0.320315
20
0.0374016
11
-0.317302
21
0.0368022
0
LINE
8
BLACK
6
CONTINUOUS
10
-0.317302
20
0.0368022
11
-0.315394
21
0.0355273
0
LINE
8
BLACK
6
CONTINUOUS
10
-0.315394
20
0.0355273
11
-0.313486
21
0.0368022
0
LINE
8
BLACK
6
CONTINUOUS
10
-0.313486
20
0.0368022
11
-0.310472
21
0.0374016
0
LINE
8
BLACK
6
CONTINUOUS
10
-0.310472
20
0.0374016
11
-0.288819
21
0.0374016
0
LINE
8
BLACK
6
CONTINUOUS
10
-0.288819
20
0.0374016
11
-0.28779
21
0.037197
0
LINE
8
BLACK
6
CONTINUOUS
10
-0.28779
20
0.037197
11
-0.285861
21
0.0371852
0
LINE
8
BLACK
6
CONTINUOUS
10
-0.285861
20
0.0371852
11
-0.283653
21
0.0368552
0
LINE
8
BLACK
6
CONTINUOUS
10
-0.283653
20
0.0368552
11
-0.278306
21
0.0352561
0
LINE
8
BLACK
6
CONTINUOUS
10
-0.278306
20
0.0352561
11
-0.276279
21
0.0343196
0
LINE
8
BLACK
6
CONTINUOUS
10
-0.276279
20
0.0343196
11
-0.271596
21
0.0312839
0
LINE
8
BLACK
6
CONTINUOUS
10
-0.271596
20
0.0312839
11
-0.269913
21
0.0298163
0
LINE
8
BLACK
6
CONTINUOUS
10
-0.269913
20
0.0298163
11
-0.26627
21
0.025588
0
LINE
8
BLACK
6
CONTINUOUS
10
-0.26627
20
0.025588
11
-0.265067
21
0.0237073
0
LINE
8
BLACK
6
CONTINUOUS
10
-0.265067
20
0.0237073
11
-0.262757
21
0.0186265
0
LINE
8
BLACK
6
CONTINUOUS
10
-0.262757
20
0.0186265
11
-0.262131
21
0.0164837
0
LINE
8
BLACK
6
CONTINUOUS
10
-0.262131
20
0.0164837
11
-0.261339
21
0.0109588
0
LINE
8
BLACK
6
CONTINUOUS
10
-0.261339
20
0.0109588
11
-0.26126
21
0.00984252
0
LINE
8
BLACK
6
CONTINUOUS
10
-0.26126
20
0.00984252
11
-0.26126
21
-0.00984252
0
LINE
8
BLACK
6
CONTINUOUS
10
-0.26126
20
-0.00984252
11
-0.26126
21
-0.00993854
0
LINE
8
BLACK
6
CONTINUOUS
10
-0.26126
20
-0.00993854
11
-0.261266
21
-0.0104195
0
LINE
8
BLACK
6
CONTINUOUS
10
-0.261266
20
-0.0104195
11
-0.261375
21
-0.0116298
0
LINE
8
BLACK
6
CONTINUOUS
10
-0.261375
20
-0.0116298
11
-0.262301
21
-0.0171338
0
LINE
8
BLACK
6
CONTINUOUS
10
-0.262301
20
-0.0171338
11
-0.26298
21
-0.0192607
0
LINE
8
BLACK
6
CONTINUOUS
10
-0.26298
20
-0.0192607
11
-0.265413
21
-0.0242835
0
LINE
8
BLACK
6
CONTINUOUS
10
-0.265413
20
-0.0242835
11
-0.266662
21
-0.0261343
0
LINE
8
BLACK
6
CONTINUOUS
10
-0.266662
20
-0.0261343
11
-0.270407
21
-0.0302722
0
LINE
8
BLACK
6
CONTINUOUS
10
-0.270407
20
-0.0302722
11
-0.272125
21
-0.0316983
0
LINE
8
BLACK
6
CONTINUOUS
10
-0.272125
20
-0.0316983
11
-0.276881
21
-0.0346187
0
LINE
8
BLACK
6
CONTINUOUS
10
-0.276881
20
-0.0346187
11
-0.27893
21
-0.0355053
0
LINE
8
BLACK
6
CONTINUOUS
10
-0.27893
20
-0.0355053
11
-0.284315
21
-0.0369733
0
LINE
8
BLACK
6
CONTINUOUS
10
-0.284315
20
-0.0369733
11
-0.28653
21
-0.0372493
0
LINE
8
BLACK
6
CONTINUOUS
10
-0.28653
20
-0.0372493
11
-0.287925
21
-0.0372237
0
LINE
8
BLACK
6
CONTINUOUS
10
-0.287925
20
-0.0372237
11
-0.288819
21
-0.0374016
0
LINE
8
BLACK
6
CONTINUOUS
10
-0.288819
20
-0.0374016
11
-0.310472
21
-0.0374016
0
LINE
8
BLACK
6
CONTINUOUS
10
-0.310472
20
-0.0374016
11
-0.313486
21
-0.0368022
0
LINE
8
BLACK
6
CONTINUOUS
10
-0.313486
20
-0.0368022
11
-0.315394
21
-0.0355273
0
LINE
8
BLACK
6
CONTINUOUS
10
-0.315394
20
-0.0355273
11
-0.317302
21
-0.0368022
0
LINE
8
BLACK
6
CONTINUOUS
10
-0.317302
20
-0.0368022
11
-0.320315
21
-0.0374016
0
LINE
8
BLACK
6
CONTINUOUS
10
-0.320315
20
-0.0374016
11
-0.359685
21
-0.0374016
0
LINE
8
BLACK
6
CONTINUOUS
10
-0.359685
20
-0.0374016
11
-0.362698
21
-0.0368022
0
LINE
8
BLACK
6
CONTINUOUS
10
-0.362698
20
-0.0368022
11
-0.364606
21
-0.0355273
0
LINE
8
BLACK
6
CONTINUOUS
10
-0.364606
20
-0.0355273
11
-0.366514
21
-0.0368022
0
LINE
8
BLACK
6
CONTINUOUS
10
-0.366514
20
-0.0368022
11
-0.369528
21
-0.0374016
0
LINE
8
BLACK
6
CONTINUOUS
10
-0.369528
20
-0.0374016
11
-0.391181
21
-0.0374016
0
LINE
8
BLACK
6
CONTINUOUS
10
-0.391181
20
-0.0374016
11
-0.392257
21
-0.0371876
0
LINE
8
BLACK
6
CONTINUOUS
10
-0.392257
20
-0.0371876
11
-0.394473
21
-0.037147
0
LINE
8
BLACK
6
CONTINUOUS
10
-0.394473
20
-0.037147
11
-0.396676
21
-0.0367901
0
LINE
8
BLACK
6
CONTINUOUS
10
-0.396676
20
-0.0367901
11
-0.402004
21
-0.0351257
0
LINE
8
BLACK
6
CONTINUOUS
10
-0.402004
20
-0.0351257
11
-0.404019
21
-0.0341646
0
LINE
8
BLACK
6
CONTINUOUS
10
-0.404019
20
-0.0341646
11
-0.408665
21
-0.0310719
0
LINE
8
BLACK
6
CONTINUOUS
10
-0.408665
20
-0.0310719
11
-0.410329
21
-0.0295838
0
LINE
8
BLACK
6
CONTINUOUS
10
-0.410329
20
-0.0295838
11
-0.413921
21
-0.0253114
0
LINE
8
BLACK
6
CONTINUOUS
10
-0.413921
20
-0.0253114
11
-0.4151
21
-0.0234161
0
LINE
8
BLACK
6
CONTINUOUS
10
-0.4151
20
-0.0234161
11
-0.417348
21
-0.0183074
0
LINE
8
BLACK
6
CONTINUOUS
10
-0.417348
20
-0.0183074
11
-0.417949
21
-0.0161572
0
LINE
8
BLACK
6
CONTINUOUS
10
-0.417949
20
-0.0161572
11
-0.418641
21
-0.0108635
0
LINE
8
BLACK
6
CONTINUOUS
10
-0.418641
20
-0.0108635
11
-0.41854
21
-0.0108503
0
LINE
8
BLACK
6
CONTINUOUS
10
-0.41854
20
-0.0108503
11
-0.41874
21
-0.00984252
0
LINE
8
BLACK
6
CONTINUOUS
10
-0.41874
20
-0.00984252
11
-0.41874
21
0.00984252
0
LINE
8
BLACK
6
CONTINUOUS
10
-0.41874
20
0.00984252
11
-0.418658
21
0.0102575
0
LINE
8
BLACK
6
CONTINUOUS
10
-0.418658
20
0.0102575
11
-0.418645
21
0.0112945
0
LINE
8
BLACK
6
CONTINUOUS
10
-0.418645
20
0.0112945
11
-0.417786
21
0.0168093
0
LINE
8
BLACK
6
CONTINUOUS
10
-0.417786
20
0.0168093
11
-0.417134
21
0.0189442
0
LINE
8
BLACK
6
CONTINUOUS
10
-0.417134
20
0.0189442
11
-0.414762
21
0.0239964
0
LINE
8
BLACK
6
CONTINUOUS
10
-0.414762
20
0.0239964
11
-0.413536
21
0.0258624
0
LINE
8
BLACK
6
CONTINUOUS
10
-0.413536
20
0.0258624
11
-0.409841
21
0.0300457
0
LINE
8
BLACK
6
CONTINUOUS
10
-0.409841
20
0.0300457
11
-0.408141
21
0.0314927
0
LINE
8
BLACK
6
CONTINUOUS
10
-0.408141
20
0.0314927
11
-0.403421
21
0.034471
0
LINE
8
BLACK
6
CONTINUOUS
10
-0.403421
20
0.034471
11
-0.401383
21
0.0353826
0
LINE
8
BLACK
6
CONTINUOUS
10
-0.401383
20
0.0353826
11
-0.396016
21
0.0369163
0
LINE
8
BLACK
6
CONTINUOUS
10
-0.396016
20
0.0369163
11
-0.393805
21
0.0372193
0
LINE
8
BLACK
6
CONTINUOUS
10
-0.393805
20
0.0372193
11
-0.392148
21
0.0372092
0
LINE
8
BLACK
6
CONTINUOUS
10
-0.392148
20
0.0372092
11
-0.391181
21
0.0374016
0
LINE
8
BLACK
6
CONTINUOUS
10
-0.391181
20
0.0374016
11
-0.369528
21
0.0374016
0
LINE
8
BLACK
6
CONTINUOUS
10
-0.369528
20
0.0374016
11
-0.366514
21
0.0368022
0
LINE
8
BLACK
6
CONTINUOUS
10
0.233312
20
0.140494
11
0.241019
21
0.138109
0
LINE
8
BLACK
6
CONTINUOUS
10
0.241019
20
0.138109
11
0.248116
21
0.134271
0
LINE
8
BLACK
6
CONTINUOUS
10
0.248116
20
0.134271
11
0.254333
21
0.129129
0
LINE
8
BLACK
6
CONTINUOUS
10
0.254333
20
0.129129
11
0.259432
21
0.122876
0
LINE
8
BLACK
6
CONTINUOUS
10
0.259432
20
0.122876
11
0.263219
21
0.115753
0
LINE
8
BLACK
6
CONTINUOUS
10
0.263219
20
0.115753
11
0.265551
21
0.108029
0
LINE
8
BLACK
6
CONTINUOUS
10
0.265551
20
0.108029
11
0.266339
21
0.1
0
LINE
8
BLACK
6
CONTINUOUS
10
0.266339
20
0.1
11
0.266322
21
0.0988457
0
LINE
8
BLACK
6
CONTINUOUS
10
0.266322
20
0.0988457
11
0.265311
21
0.0908415
0
LINE
8
BLACK
6
CONTINUOUS
10
0.265311
20
0.0908415
11
0.262765
21
0.0831861
0
LINE
8
BLACK
6
CONTINUOUS
10
0.262765
20
0.0831861
11
0.25878
21
0.0761711
0
LINE
8
BLACK
6
CONTINUOUS
10
0.25878
20
0.0761711
11
0.253508
21
0.0700638
0
LINE
8
BLACK
6
CONTINUOUS
10
0.253508
20
0.0700638
11
0.24715
21
0.0650967
0
LINE
8
BLACK
6
CONTINUOUS
10
0.24715
20
0.0650967
11
0.239949
21
0.0614591
0
LINE
8
BLACK
6
CONTINUOUS
10
0.239949
20
0.0614591
11
0.232178
21
0.0592894
0
LINE
8
BLACK
6
CONTINUOUS
10
0.232178
20
0.0592894
11
0.224134
21
0.0586705
0
LINE
8
BLACK
6
CONTINUOUS
10
0.224134
20
0.0586705
11
0.216123
21
0.0596257
0
LINE
8
BLACK
6
CONTINUOUS
10
0.216123
20
0.0596257
11
0.20845
21
0.0621189
0
LINE
8
BLACK
6
CONTINUOUS
10
0.20845
20
0.0621189
11
0.201408
21
0.0660548
0
LINE
8
BLACK
6
CONTINUOUS
10
0.201408
20
0.0660548
11
0.195264
21
0.0712838
0
LINE
8
BLACK
6
CONTINUOUS
10
0.195264
20
0.0712838
11
0.190252
21
0.0776065
0
LINE
8
BLACK
6
CONTINUOUS
10
0.190252
20
0.0776065
11
0.186564
21
0.0847822
0
LINE
8
BLACK
6
CONTINUOUS
10
0.186564
20
0.0847822
11
0.184341
21
0.0925376
0
LINE
8
BLACK
6
CONTINUOUS
10
0.184341
20
0.0925376
11
0.183665
21
0.100577
0
LINE
8
BLACK
6
CONTINUOUS
10
0.183665
20
0.100577
11
0.184565
21
0.108595
0
LINE
8
BLACK
6
CONTINUOUS
10
0.184565
20
0.108595
11
0.187004
21
0.116285
0
LINE
8
BLACK
6
CONTINUOUS
10
0.187004
20
0.116285
11
0.190891
21
0.123355
0
LINE
8
BLACK
6
CONTINUOUS
10
0.190891
20
0.123355
11
0.196077
21
0.129535
0
LINE
8
BLACK
6
CONTINUOUS
10
0.196077
20
0.129535
11
0.202365
21
0.134591
0
LINE
8
BLACK
6
CONTINUOUS
10
0.202365
20
0.134591
11
0.209514
21
0.138328
0
LINE
8
BLACK
6
CONTINUOUS
10
0.209514
20
0.138328
11
0.217254
21
0.140606
0
LINE
8
BLACK
6
CONTINUOUS
10
0.217254
20
0.140606
11
0.225289
21
0.141338
0
LINE
8
BLACK
6
CONTINUOUS
10
0.225289
20
0.141338
11
0.233312
21
0.140494
  0
ENDSEC
  0
EOF
