  0
SECTION
  2
HEADER
  9
$ANGBASE
  50
0.0
  9
$ANGDIR
  70
1
  9
$MEASUREMENT
  70
0
  0
ENDSEC
  0
SECTION
  2
TABLES
  0
TABLE
  2
LTYPE
  70
4
  0
LTYPE
  5
40F
  2
CONTINUOUS
  70
0
  3
Solid line
  72
65
  73
0
  40
0.0
  0
LTYPE
  5
410
  2
DASHDOT
 70
0
  3
Dash Dot ____ _ ____ _
 72
65
 73
4
 40
2.0
 49
1.25
 49
-0.25
 49
0.25
 49
-0.25
  0
LTYPE
  5
411
  2
DASHED
 70
0
  3
Dashed __ __ __ __ __
 72
65
 73
2
 40
0.75
 49
0.5
 49
-0.25
  0
LTYPE
  5
43B
  2
DOTTED
 70
0
  3
Dotted .  .  .  .
 72
65
 73
2
 40
0.2
 49
0.0
 49
-0.2
  0
ENDTAB
  0
TABLE
  2
STYLE
  70
4
  0
STYLE
  2
KICAD
  70
0
  40
0
  41
1
  42
1
  50
0
  71
0
  3
isocp.shx
  0
STYLE
  2
KICADB
  70
0
  40
0
  41
1
  42
1
  50
0
  71
0
  3
isocp.shx
  0
STYLE
  2
KICADI
  70
0
  40
0
  41
1
  42
1
  50
15
  71
0
  3
isocp.shx
  0
STYLE
  2
KICADBI
  70
0
  40
0
  41
1
  42
1
  50
15
  71
0
  3
isocp.shx
  0
ENDTAB
  0
TABLE
  2
LAYER
  70
1
  0
LAYER
  2
BLACK
  70
0
  62
7
  6
CONTINUOUS
  0
ENDTAB
  0
ENDSEC
  0
SECTION
  2
ENTITIES
0
LINE
8
BLACK
6
CONTINUOUS
10
0.520613
20
-0.255124
11
0.522775
21
-0.257285
0
LINE
8
BLACK
6
CONTINUOUS
10
0.522775
20
-0.257285
11
0.523566
21
-0.260238
0
LINE
8
BLACK
6
CONTINUOUS
10
0.523566
20
-0.260238
11
0.523566
21
-0.271205
0
LINE
8
BLACK
6
CONTINUOUS
10
0.523566
20
-0.271205
11
0.576715
21
-0.271205
0
LINE
8
BLACK
6
CONTINUOUS
10
0.576715
20
-0.271205
11
0.579668
21
-0.271997
0
LINE
8
BLACK
6
CONTINUOUS
10
0.579668
20
-0.271997
11
0.58183
21
-0.274158
0
LINE
8
BLACK
6
CONTINUOUS
10
0.58183
20
-0.274158
11
0.582621
21
-0.277111
0
LINE
8
BLACK
6
CONTINUOUS
10
0.582621
20
-0.277111
11
0.58183
21
-0.280064
0
LINE
8
BLACK
6
CONTINUOUS
10
0.58183
20
-0.280064
11
0.579668
21
-0.282225
0
LINE
8
BLACK
6
CONTINUOUS
10
0.579668
20
-0.282225
11
0.576715
21
-0.283016
0
LINE
8
BLACK
6
CONTINUOUS
10
0.576715
20
-0.283016
11
0.523566
21
-0.283016
0
LINE
8
BLACK
6
CONTINUOUS
10
0.523566
20
-0.283016
11
0.523566
21
-0.293984
0
LINE
8
BLACK
6
CONTINUOUS
10
0.523566
20
-0.293984
11
0.522775
21
-0.296937
0
LINE
8
BLACK
6
CONTINUOUS
10
0.522775
20
-0.296937
11
0.520613
21
-0.299098
0
LINE
8
BLACK
6
CONTINUOUS
10
0.520613
20
-0.299098
11
0.51766
21
-0.299889
0
LINE
8
BLACK
6
CONTINUOUS
10
0.51766
20
-0.299889
11
0.514708
21
-0.299098
0
LINE
8
BLACK
6
CONTINUOUS
10
0.514708
20
-0.299098
11
0.512546
21
-0.296937
0
LINE
8
BLACK
6
CONTINUOUS
10
0.512546
20
-0.296937
11
0.511755
21
-0.293984
0
LINE
8
BLACK
6
CONTINUOUS
10
0.511755
20
-0.293984
11
0.511755
21
-0.260238
0
LINE
8
BLACK
6
CONTINUOUS
10
0.511755
20
-0.260238
11
0.512546
21
-0.257285
0
LINE
8
BLACK
6
CONTINUOUS
10
0.512546
20
-0.257285
11
0.514708
21
-0.255124
0
LINE
8
BLACK
6
CONTINUOUS
10
0.514708
20
-0.255124
11
0.51766
21
-0.254333
0
LINE
8
BLACK
6
CONTINUOUS
10
0.51766
20
-0.254333
11
0.520613
21
-0.255124
0
LINE
8
BLACK
6
CONTINUOUS
10
0.579668
20
-0.210129
11
0.58183
21
-0.212291
0
LINE
8
BLACK
6
CONTINUOUS
10
0.58183
20
-0.212291
11
0.582621
21
-0.215244
0
LINE
8
BLACK
6
CONTINUOUS
10
0.582621
20
-0.215244
11
0.58183
21
-0.218196
0
LINE
8
BLACK
6
CONTINUOUS
10
0.58183
20
-0.218196
11
0.579668
21
-0.220358
0
LINE
8
BLACK
6
CONTINUOUS
10
0.579668
20
-0.220358
11
0.576715
21
-0.221149
0
LINE
8
BLACK
6
CONTINUOUS
10
0.576715
20
-0.221149
11
0.547176
21
-0.221149
0
LINE
8
BLACK
6
CONTINUOUS
10
0.547176
20
-0.221149
11
0.544559
21
-0.222458
0
LINE
8
BLACK
6
CONTINUOUS
10
0.544559
20
-0.222458
11
0.543251
21
-0.225074
0
LINE
8
BLACK
6
CONTINUOUS
10
0.543251
20
-0.225074
11
0.543251
21
-0.230722
0
LINE
8
BLACK
6
CONTINUOUS
10
0.543251
20
-0.230722
11
0.545011
21
-0.234243
0
LINE
8
BLACK
6
CONTINUOUS
10
0.545011
20
-0.234243
11
0.545416
21
-0.234647
0
LINE
8
BLACK
6
CONTINUOUS
10
0.545416
20
-0.234647
11
0.576715
21
-0.234647
0
LINE
8
BLACK
6
CONTINUOUS
10
0.576715
20
-0.234647
11
0.579668
21
-0.235439
0
LINE
8
BLACK
6
CONTINUOUS
10
0.579668
20
-0.235439
11
0.58183
21
-0.2376
0
LINE
8
BLACK
6
CONTINUOUS
10
0.58183
20
-0.2376
11
0.582621
21
-0.240553
0
LINE
8
BLACK
6
CONTINUOUS
10
0.582621
20
-0.240553
11
0.58183
21
-0.243506
0
LINE
8
BLACK
6
CONTINUOUS
10
0.58183
20
-0.243506
11
0.579668
21
-0.245667
0
LINE
8
BLACK
6
CONTINUOUS
10
0.579668
20
-0.245667
11
0.576715
21
-0.246459
0
LINE
8
BLACK
6
CONTINUOUS
10
0.576715
20
-0.246459
11
0.51766
21
-0.246459
0
LINE
8
BLACK
6
CONTINUOUS
10
0.51766
20
-0.246459
11
0.514708
21
-0.245667
0
LINE
8
BLACK
6
CONTINUOUS
10
0.514708
20
-0.245667
11
0.512546
21
-0.243506
0
LINE
8
BLACK
6
CONTINUOUS
10
0.512546
20
-0.243506
11
0.511755
21
-0.240553
0
LINE
8
BLACK
6
CONTINUOUS
10
0.511755
20
-0.240553
11
0.512546
21
-0.2376
0
LINE
8
BLACK
6
CONTINUOUS
10
0.512546
20
-0.2376
11
0.514708
21
-0.235439
0
LINE
8
BLACK
6
CONTINUOUS
10
0.514708
20
-0.235439
11
0.51766
21
-0.234647
0
LINE
8
BLACK
6
CONTINUOUS
10
0.51766
20
-0.234647
11
0.532041
21
-0.234647
0
LINE
8
BLACK
6
CONTINUOUS
10
0.532041
20
-0.234647
11
0.531791
21
-0.233428
0
LINE
8
BLACK
6
CONTINUOUS
10
0.531791
20
-0.233428
11
0.53144
21
-0.232117
0
LINE
8
BLACK
6
CONTINUOUS
10
0.53144
20
-0.232117
11
0.53144
21
-0.22368
0
LINE
8
BLACK
6
CONTINUOUS
10
0.53144
20
-0.22368
11
0.531791
21
-0.222369
0
LINE
8
BLACK
6
CONTINUOUS
10
0.531791
20
-0.222369
11
0.532063
21
-0.221039
0
LINE
8
BLACK
6
CONTINUOUS
10
0.532063
20
-0.221039
11
0.534875
21
-0.215415
0
LINE
8
BLACK
6
CONTINUOUS
10
0.534875
20
-0.215415
11
0.535115
21
-0.215145
0
LINE
8
BLACK
6
CONTINUOUS
10
0.535115
20
-0.215145
11
0.535229
21
-0.214802
0
LINE
8
BLACK
6
CONTINUOUS
10
0.535229
20
-0.214802
11
0.536117
21
-0.214015
0
LINE
8
BLACK
6
CONTINUOUS
10
0.536117
20
-0.214015
11
0.536904
21
-0.213128
0
LINE
8
BLACK
6
CONTINUOUS
10
0.536904
20
-0.213128
11
0.537246
21
-0.213013
0
LINE
8
BLACK
6
CONTINUOUS
10
0.537246
20
-0.213013
11
0.537516
21
-0.212774
0
LINE
8
BLACK
6
CONTINUOUS
10
0.537516
20
-0.212774
11
0.543141
21
-0.209962
0
LINE
8
BLACK
6
CONTINUOUS
10
0.543141
20
-0.209962
11
0.544471
21
-0.209689
0
LINE
8
BLACK
6
CONTINUOUS
10
0.544471
20
-0.209689
11
0.545782
21
-0.209338
0
LINE
8
BLACK
6
CONTINUOUS
10
0.545782
20
-0.209338
11
0.576715
21
-0.209338
0
LINE
8
BLACK
6
CONTINUOUS
10
0.576715
20
-0.209338
11
0.579668
21
-0.210129
0
LINE
8
BLACK
6
CONTINUOUS
10
0.579668
20
-0.156699
11
0.58183
21
-0.15886
0
LINE
8
BLACK
6
CONTINUOUS
10
0.58183
20
-0.15886
11
0.582621
21
-0.161813
0
LINE
8
BLACK
6
CONTINUOUS
10
0.582621
20
-0.161813
11
0.58183
21
-0.164766
0
LINE
8
BLACK
6
CONTINUOUS
10
0.58183
20
-0.164766
11
0.580994
21
-0.165601
0
LINE
8
BLACK
6
CONTINUOUS
10
0.580994
20
-0.165601
11
0.581997
21
-0.167608
0
LINE
8
BLACK
6
CONTINUOUS
10
0.581997
20
-0.167608
11
0.58227
21
-0.168938
0
LINE
8
BLACK
6
CONTINUOUS
10
0.58227
20
-0.168938
11
0.582621
21
-0.170249
0
LINE
8
BLACK
6
CONTINUOUS
10
0.582621
20
-0.170249
11
0.582621
21
-0.178686
0
LINE
8
BLACK
6
CONTINUOUS
10
0.582621
20
-0.178686
11
0.58227
21
-0.179997
0
LINE
8
BLACK
6
CONTINUOUS
10
0.58227
20
-0.179997
11
0.581997
21
-0.181327
0
LINE
8
BLACK
6
CONTINUOUS
10
0.581997
20
-0.181327
11
0.579185
21
-0.186951
0
LINE
8
BLACK
6
CONTINUOUS
10
0.579185
20
-0.186951
11
0.578946
21
-0.187221
0
LINE
8
BLACK
6
CONTINUOUS
10
0.578946
20
-0.187221
11
0.578831
21
-0.187564
0
LINE
8
BLACK
6
CONTINUOUS
10
0.578831
20
-0.187564
11
0.577944
21
-0.188351
0
LINE
8
BLACK
6
CONTINUOUS
10
0.577944
20
-0.188351
11
0.577157
21
-0.189238
0
LINE
8
BLACK
6
CONTINUOUS
10
0.577157
20
-0.189238
11
0.576814
21
-0.189352
0
LINE
8
BLACK
6
CONTINUOUS
10
0.576814
20
-0.189352
11
0.576544
21
-0.189592
0
LINE
8
BLACK
6
CONTINUOUS
10
0.576544
20
-0.189592
11
0.57092
21
-0.192404
0
LINE
8
BLACK
6
CONTINUOUS
10
0.57092
20
-0.192404
11
0.56959
21
-0.192676
0
LINE
8
BLACK
6
CONTINUOUS
10
0.56959
20
-0.192676
11
0.568279
21
-0.193028
0
LINE
8
BLACK
6
CONTINUOUS
10
0.568279
20
-0.193028
11
0.537345
21
-0.193028
0
LINE
8
BLACK
6
CONTINUOUS
10
0.537345
20
-0.193028
11
0.534393
21
-0.192237
0
LINE
8
BLACK
6
CONTINUOUS
10
0.534393
20
-0.192237
11
0.532231
21
-0.190075
0
LINE
8
BLACK
6
CONTINUOUS
10
0.532231
20
-0.190075
11
0.53144
21
-0.187122
0
LINE
8
BLACK
6
CONTINUOUS
10
0.53144
20
-0.187122
11
0.532231
21
-0.184169
0
LINE
8
BLACK
6
CONTINUOUS
10
0.532231
20
-0.184169
11
0.534393
21
-0.182008
0
LINE
8
BLACK
6
CONTINUOUS
10
0.534393
20
-0.182008
11
0.537345
21
-0.181217
0
LINE
8
BLACK
6
CONTINUOUS
10
0.537345
20
-0.181217
11
0.566885
21
-0.181217
0
LINE
8
BLACK
6
CONTINUOUS
10
0.566885
20
-0.181217
11
0.569502
21
-0.179908
0
LINE
8
BLACK
6
CONTINUOUS
10
0.569502
20
-0.179908
11
0.57081
21
-0.177292
0
LINE
8
BLACK
6
CONTINUOUS
10
0.57081
20
-0.177292
11
0.57081
21
-0.171643
0
LINE
8
BLACK
6
CONTINUOUS
10
0.57081
20
-0.171643
11
0.56905
21
-0.168123
0
LINE
8
BLACK
6
CONTINUOUS
10
0.56905
20
-0.168123
11
0.568645
21
-0.167718
0
LINE
8
BLACK
6
CONTINUOUS
10
0.568645
20
-0.167718
11
0.537345
21
-0.167718
0
LINE
8
BLACK
6
CONTINUOUS
10
0.537345
20
-0.167718
11
0.534393
21
-0.166927
0
LINE
8
BLACK
6
CONTINUOUS
10
0.534393
20
-0.166927
11
0.532231
21
-0.164766
0
LINE
8
BLACK
6
CONTINUOUS
10
0.532231
20
-0.164766
11
0.53144
21
-0.161813
0
LINE
8
BLACK
6
CONTINUOUS
10
0.53144
20
-0.161813
11
0.532231
21
-0.15886
0
LINE
8
BLACK
6
CONTINUOUS
10
0.532231
20
-0.15886
11
0.534393
21
-0.156699
0
LINE
8
BLACK
6
CONTINUOUS
10
0.534393
20
-0.156699
11
0.537345
21
-0.155907
0
LINE
8
BLACK
6
CONTINUOUS
10
0.537345
20
-0.155907
11
0.576715
21
-0.155907
0
LINE
8
BLACK
6
CONTINUOUS
10
0.576715
20
-0.155907
11
0.579668
21
-0.156699
0
LINE
8
BLACK
6
CONTINUOUS
10
0.579668
20
-0.103268
11
0.58183
21
-0.105429
0
LINE
8
BLACK
6
CONTINUOUS
10
0.58183
20
-0.105429
11
0.582621
21
-0.108382
0
LINE
8
BLACK
6
CONTINUOUS
10
0.582621
20
-0.108382
11
0.58183
21
-0.111335
0
LINE
8
BLACK
6
CONTINUOUS
10
0.58183
20
-0.111335
11
0.579668
21
-0.113496
0
LINE
8
BLACK
6
CONTINUOUS
10
0.579668
20
-0.113496
11
0.576715
21
-0.114288
0
LINE
8
BLACK
6
CONTINUOUS
10
0.576715
20
-0.114288
11
0.547176
21
-0.114288
0
LINE
8
BLACK
6
CONTINUOUS
10
0.547176
20
-0.114288
11
0.544559
21
-0.115596
0
LINE
8
BLACK
6
CONTINUOUS
10
0.544559
20
-0.115596
11
0.543251
21
-0.118213
0
LINE
8
BLACK
6
CONTINUOUS
10
0.543251
20
-0.118213
11
0.543251
21
-0.123861
0
LINE
8
BLACK
6
CONTINUOUS
10
0.543251
20
-0.123861
11
0.545011
21
-0.127381
0
LINE
8
BLACK
6
CONTINUOUS
10
0.545011
20
-0.127381
11
0.545416
21
-0.127786
0
LINE
8
BLACK
6
CONTINUOUS
10
0.545416
20
-0.127786
11
0.576715
21
-0.127786
0
LINE
8
BLACK
6
CONTINUOUS
10
0.576715
20
-0.127786
11
0.579668
21
-0.128577
0
LINE
8
BLACK
6
CONTINUOUS
10
0.579668
20
-0.128577
11
0.58183
21
-0.130739
0
LINE
8
BLACK
6
CONTINUOUS
10
0.58183
20
-0.130739
11
0.582621
21
-0.133691
0
LINE
8
BLACK
6
CONTINUOUS
10
0.582621
20
-0.133691
11
0.58183
21
-0.136644
0
LINE
8
BLACK
6
CONTINUOUS
10
0.58183
20
-0.136644
11
0.579668
21
-0.138806
0
LINE
8
BLACK
6
CONTINUOUS
10
0.579668
20
-0.138806
11
0.576715
21
-0.139597
0
LINE
8
BLACK
6
CONTINUOUS
10
0.576715
20
-0.139597
11
0.537345
21
-0.139597
0
LINE
8
BLACK
6
CONTINUOUS
10
0.537345
20
-0.139597
11
0.534393
21
-0.138806
0
LINE
8
BLACK
6
CONTINUOUS
10
0.534393
20
-0.138806
11
0.532231
21
-0.136644
0
LINE
8
BLACK
6
CONTINUOUS
10
0.532231
20
-0.136644
11
0.53144
21
-0.133691
0
LINE
8
BLACK
6
CONTINUOUS
10
0.53144
20
-0.133691
11
0.532231
21
-0.130739
0
LINE
8
BLACK
6
CONTINUOUS
10
0.532231
20
-0.130739
11
0.533067
21
-0.129903
0
LINE
8
BLACK
6
CONTINUOUS
10
0.533067
20
-0.129903
11
0.532063
21
-0.127896
0
LINE
8
BLACK
6
CONTINUOUS
10
0.532063
20
-0.127896
11
0.531791
21
-0.126566
0
LINE
8
BLACK
6
CONTINUOUS
10
0.531791
20
-0.126566
11
0.53144
21
-0.125255
0
LINE
8
BLACK
6
CONTINUOUS
10
0.53144
20
-0.125255
11
0.53144
21
-0.116818
0
LINE
8
BLACK
6
CONTINUOUS
10
0.53144
20
-0.116818
11
0.531791
21
-0.115507
0
LINE
8
BLACK
6
CONTINUOUS
10
0.531791
20
-0.115507
11
0.532063
21
-0.114177
0
LINE
8
BLACK
6
CONTINUOUS
10
0.532063
20
-0.114177
11
0.534875
21
-0.108553
0
LINE
8
BLACK
6
CONTINUOUS
10
0.534875
20
-0.108553
11
0.535115
21
-0.108283
0
LINE
8
BLACK
6
CONTINUOUS
10
0.535115
20
-0.108283
11
0.535229
21
-0.10794
0
LINE
8
BLACK
6
CONTINUOUS
10
0.535229
20
-0.10794
11
0.536117
21
-0.107153
0
LINE
8
BLACK
6
CONTINUOUS
10
0.536117
20
-0.107153
11
0.536904
21
-0.106266
0
LINE
8
BLACK
6
CONTINUOUS
10
0.536904
20
-0.106266
11
0.537246
21
-0.106152
0
LINE
8
BLACK
6
CONTINUOUS
10
0.537246
20
-0.106152
11
0.537516
21
-0.105912
0
LINE
8
BLACK
6
CONTINUOUS
10
0.537516
20
-0.105912
11
0.543141
21
-0.1031
0
LINE
8
BLACK
6
CONTINUOUS
10
0.543141
20
-0.1031
11
0.544471
21
-0.102828
0
LINE
8
BLACK
6
CONTINUOUS
10
0.544471
20
-0.102828
11
0.545782
21
-0.102477
0
LINE
8
BLACK
6
CONTINUOUS
10
0.545782
20
-0.102477
11
0.576715
21
-0.102477
0
LINE
8
BLACK
6
CONTINUOUS
10
0.576715
20
-0.102477
11
0.579668
21
-0.103268
0
LINE
8
BLACK
6
CONTINUOUS
10
0.579668
20
-0.0498369
11
0.58183
21
-0.0519985
0
LINE
8
BLACK
6
CONTINUOUS
10
0.58183
20
-0.0519985
11
0.582621
21
-0.0549512
0
LINE
8
BLACK
6
CONTINUOUS
10
0.582621
20
-0.0549512
11
0.581883
21
-0.0577054
0
LINE
8
BLACK
6
CONTINUOUS
10
0.581883
20
-0.0577054
11
0.581997
21
-0.0579344
0
LINE
8
BLACK
6
CONTINUOUS
10
0.581997
20
-0.0579344
11
0.58227
21
-0.0592645
0
LINE
8
BLACK
6
CONTINUOUS
10
0.58227
20
-0.0592645
11
0.582621
21
-0.0605755
0
LINE
8
BLACK
6
CONTINUOUS
10
0.582621
20
-0.0605755
11
0.582621
21
-0.0718241
0
LINE
8
BLACK
6
CONTINUOUS
10
0.582621
20
-0.0718241
11
0.58227
21
-0.0731351
0
LINE
8
BLACK
6
CONTINUOUS
10
0.58227
20
-0.0731351
11
0.581997
21
-0.0744652
0
LINE
8
BLACK
6
CONTINUOUS
10
0.581997
20
-0.0744652
11
0.579185
21
-0.0800894
0
LINE
8
BLACK
6
CONTINUOUS
10
0.579185
20
-0.0800894
11
0.578554
21
-0.0808007
0
LINE
8
BLACK
6
CONTINUOUS
10
0.578554
20
-0.0808007
11
0.578079
21
-0.0816242
0
LINE
8
BLACK
6
CONTINUOUS
10
0.578079
20
-0.0816242
11
0.575267
21
-0.0844363
0
LINE
8
BLACK
6
CONTINUOUS
10
0.575267
20
-0.0844363
11
0.574444
21
-0.0849118
0
LINE
8
BLACK
6
CONTINUOUS
10
0.574444
20
-0.0849118
11
0.573732
21
-0.0855426
0
LINE
8
BLACK
6
CONTINUOUS
10
0.573732
20
-0.0855426
11
0.568108
21
-0.0883547
0
LINE
8
BLACK
6
CONTINUOUS
10
0.568108
20
-0.0883547
11
0.566778
21
-0.0886269
0
LINE
8
BLACK
6
CONTINUOUS
10
0.566778
20
-0.0886269
11
0.565467
21
-0.0889782
0
LINE
8
BLACK
6
CONTINUOUS
10
0.565467
20
-0.0889782
11
0.548594
21
-0.0889782
0
LINE
8
BLACK
6
CONTINUOUS
10
0.548594
20
-0.0889782
11
0.547283
21
-0.0886269
0
LINE
8
BLACK
6
CONTINUOUS
10
0.547283
20
-0.0886269
11
0.545953
21
-0.0883547
0
LINE
8
BLACK
6
CONTINUOUS
10
0.545953
20
-0.0883547
11
0.540329
21
-0.0855426
0
LINE
8
BLACK
6
CONTINUOUS
10
0.540329
20
-0.0855426
11
0.539617
21
-0.0849118
0
LINE
8
BLACK
6
CONTINUOUS
10
0.539617
20
-0.0849118
11
0.538794
21
-0.0844363
0
LINE
8
BLACK
6
CONTINUOUS
10
0.538794
20
-0.0844363
11
0.535982
21
-0.0816242
0
LINE
8
BLACK
6
CONTINUOUS
10
0.535982
20
-0.0816242
11
0.535506
21
-0.0808007
0
LINE
8
BLACK
6
CONTINUOUS
10
0.535506
20
-0.0808007
11
0.534875
21
-0.0800894
0
LINE
8
BLACK
6
CONTINUOUS
10
0.534875
20
-0.0800894
11
0.532063
21
-0.0744651
0
LINE
8
BLACK
6
CONTINUOUS
10
0.532063
20
-0.0744651
11
0.531791
21
-0.0731352
0
LINE
8
BLACK
6
CONTINUOUS
10
0.531791
20
-0.0731352
11
0.53144
21
-0.0718241
0
LINE
8
BLACK
6
CONTINUOUS
10
0.53144
20
-0.0718241
11
0.53144
21
-0.0608567
0
LINE
8
BLACK
6
CONTINUOUS
10
0.53144
20
-0.0608567
11
0.51766
21
-0.0608567
0
LINE
8
BLACK
6
CONTINUOUS
10
0.51766
20
-0.0608567
11
0.514708
21
-0.0600656
0
LINE
8
BLACK
6
CONTINUOUS
10
0.514708
20
-0.0600656
11
0.512546
21
-0.057904
0
LINE
8
BLACK
6
CONTINUOUS
10
0.512546
20
-0.057904
11
0.511755
21
-0.0549512
0
LINE
8
BLACK
6
CONTINUOUS
10
0.511755
20
-0.0549512
11
0.512546
21
-0.0519985
0
LINE
8
BLACK
6
CONTINUOUS
10
0.512546
20
-0.0519985
11
0.514708
21
-0.0498369
0
LINE
8
BLACK
6
CONTINUOUS
10
0.514708
20
-0.0498369
11
0.51766
21
-0.0490457
0
LINE
8
BLACK
6
CONTINUOUS
10
0.51766
20
-0.0490457
11
0.576715
21
-0.0490457
0
LINE
8
BLACK
6
CONTINUOUS
10
0.576715
20
-0.0490457
11
0.579668
21
-0.0498369
0
LINE
8
BLACK
6
CONTINUOUS
10
0.543807
20
-0.0608567
11
0.543251
21
-0.0619696
0
LINE
8
BLACK
6
CONTINUOUS
10
0.543251
20
-0.0619696
11
0.543251
21
-0.07043
0
LINE
8
BLACK
6
CONTINUOUS
10
0.543251
20
-0.07043
11
0.545011
21
-0.0739502
0
LINE
8
BLACK
6
CONTINUOUS
10
0.545011
20
-0.0739502
11
0.546468
21
-0.0754071
0
LINE
8
BLACK
6
CONTINUOUS
10
0.546468
20
-0.0754071
11
0.549988
21
-0.0771672
0
LINE
8
BLACK
6
CONTINUOUS
10
0.549988
20
-0.0771672
11
0.564073
21
-0.0771672
0
LINE
8
BLACK
6
CONTINUOUS
10
0.564073
20
-0.0771672
11
0.567593
21
-0.0754071
0
LINE
8
BLACK
6
CONTINUOUS
10
0.567593
20
-0.0754071
11
0.56905
21
-0.0739502
0
LINE
8
BLACK
6
CONTINUOUS
10
0.56905
20
-0.0739502
11
0.57081
21
-0.07043
0
LINE
8
BLACK
6
CONTINUOUS
10
0.57081
20
-0.07043
11
0.57081
21
-0.0619696
0
LINE
8
BLACK
6
CONTINUOUS
10
0.57081
20
-0.0619696
11
0.570253
21
-0.0608567
0
LINE
8
BLACK
6
CONTINUOUS
10
0.570253
20
-0.0608567
11
0.543807
21
-0.0608567
0
LINE
8
BLACK
6
CONTINUOUS
10
0.552337
20
0.00413571
11
0.553298
21
0.0040737
0
LINE
8
BLACK
6
CONTINUOUS
10
0.553298
20
0.0040737
11
0.553789
21
0.00374657
0
LINE
8
BLACK
6
CONTINUOUS
10
0.553789
20
0.00374657
11
0.554359
21
0.00359394
0
LINE
8
BLACK
6
CONTINUOUS
10
0.554359
20
0.00359394
11
0.55504
21
0.00291256
0
LINE
8
BLACK
6
CONTINUOUS
10
0.55504
20
0.00291256
11
0.555842
21
0.00237803
0
LINE
8
BLACK
6
CONTINUOUS
10
0.555842
20
0.00237803
11
0.556103
21
0.00184937
0
LINE
8
BLACK
6
CONTINUOUS
10
0.556103
20
0.00184937
11
0.55652
21
0.00143236
0
LINE
8
BLACK
6
CONTINUOUS
10
0.55652
20
0.00143236
11
0.55677
21
0.000501535
0
LINE
8
BLACK
6
CONTINUOUS
10
0.55677
20
0.000501535
11
0.557197
21
-0.000362244
0
LINE
8
BLACK
6
CONTINUOUS
10
0.557197
20
-0.000362244
11
0.561872
21
-0.0237364
0
LINE
8
BLACK
6
CONTINUOUS
10
0.561872
20
-0.0237364
11
0.566885
21
-0.0237364
0
LINE
8
BLACK
6
CONTINUOUS
10
0.566885
20
-0.0237364
11
0.569502
21
-0.022428
0
LINE
8
BLACK
6
CONTINUOUS
10
0.569502
20
-0.022428
11
0.57081
21
-0.0198113
0
LINE
8
BLACK
6
CONTINUOUS
10
0.57081
20
-0.0198113
11
0.57081
21
-0.0113509
0
LINE
8
BLACK
6
CONTINUOUS
10
0.57081
20
-0.0113509
11
0.568621
21
-0.00697354
0
LINE
8
BLACK
6
CONTINUOUS
10
0.568621
20
-0.00697354
11
0.568008
21
-0.0039787
0
LINE
8
BLACK
6
CONTINUOUS
10
0.568008
20
-0.0039787
11
0.568975
21
-0.00107862
0
LINE
8
BLACK
6
CONTINUOUS
10
0.568975
20
-0.00107862
11
0.571262
21
0.000949528
0
LINE
8
BLACK
6
CONTINUOUS
10
0.571262
20
0.000949528
11
0.574257
21
0.0015624
0
LINE
8
BLACK
6
CONTINUOUS
10
0.574257
20
0.0015624
11
0.577157
21
0.000595709
0
LINE
8
BLACK
6
CONTINUOUS
10
0.577157
20
0.000595709
11
0.579185
21
-0.0016915
0
LINE
8
BLACK
6
CONTINUOUS
10
0.579185
20
-0.0016915
11
0.581997
21
-0.00731583
0
LINE
8
BLACK
6
CONTINUOUS
10
0.581997
20
-0.00731583
11
0.58227
21
-0.00864575
0
LINE
8
BLACK
6
CONTINUOUS
10
0.58227
20
-0.00864575
11
0.582621
21
-0.00995685
0
LINE
8
BLACK
6
CONTINUOUS
10
0.582621
20
-0.00995685
11
0.582621
21
-0.0212054
0
LINE
8
BLACK
6
CONTINUOUS
10
0.582621
20
-0.0212054
11
0.58227
21
-0.0225165
0
LINE
8
BLACK
6
CONTINUOUS
10
0.58227
20
-0.0225165
11
0.581997
21
-0.0238465
0
LINE
8
BLACK
6
CONTINUOUS
10
0.581997
20
-0.0238465
11
0.579185
21
-0.0294707
0
LINE
8
BLACK
6
CONTINUOUS
10
0.579185
20
-0.0294707
11
0.578946
21
-0.0297409
0
LINE
8
BLACK
6
CONTINUOUS
10
0.578946
20
-0.0297409
11
0.578831
21
-0.0300836
0
LINE
8
BLACK
6
CONTINUOUS
10
0.578831
20
-0.0300836
11
0.577944
21
-0.0308705
0
LINE
8
BLACK
6
CONTINUOUS
10
0.577944
20
-0.0308705
11
0.577157
21
-0.031758
0
LINE
8
BLACK
6
CONTINUOUS
10
0.577157
20
-0.031758
11
0.576814
21
-0.0318722
0
LINE
8
BLACK
6
CONTINUOUS
10
0.576814
20
-0.0318722
11
0.576544
21
-0.0321118
0
LINE
8
BLACK
6
CONTINUOUS
10
0.576544
20
-0.0321118
11
0.57092
21
-0.0349239
0
LINE
8
BLACK
6
CONTINUOUS
10
0.57092
20
-0.0349239
11
0.56959
21
-0.0351961
0
LINE
8
BLACK
6
CONTINUOUS
10
0.56959
20
-0.0351961
11
0.568279
21
-0.0355474
0
LINE
8
BLACK
6
CONTINUOUS
10
0.568279
20
-0.0355474
11
0.545782
21
-0.0355474
0
LINE
8
BLACK
6
CONTINUOUS
10
0.545782
20
-0.0355474
11
0.544471
21
-0.0351961
0
LINE
8
BLACK
6
CONTINUOUS
10
0.544471
20
-0.0351961
11
0.543141
21
-0.0349239
0
LINE
8
BLACK
6
CONTINUOUS
10
0.543141
20
-0.0349239
11
0.537516
21
-0.0321118
0
LINE
8
BLACK
6
CONTINUOUS
10
0.537516
20
-0.0321118
11
0.537246
21
-0.0318722
0
LINE
8
BLACK
6
CONTINUOUS
10
0.537246
20
-0.0318722
11
0.536904
21
-0.031758
0
LINE
8
BLACK
6
CONTINUOUS
10
0.536904
20
-0.031758
11
0.536117
21
-0.0308705
0
LINE
8
BLACK
6
CONTINUOUS
10
0.536117
20
-0.0308705
11
0.535229
21
-0.0300836
0
LINE
8
BLACK
6
CONTINUOUS
10
0.535229
20
-0.0300836
11
0.535115
21
-0.0297409
0
LINE
8
BLACK
6
CONTINUOUS
10
0.535115
20
-0.0297409
11
0.534875
21
-0.0294707
0
LINE
8
BLACK
6
CONTINUOUS
10
0.534875
20
-0.0294707
11
0.532063
21
-0.0238465
0
LINE
8
BLACK
6
CONTINUOUS
10
0.532063
20
-0.0238465
11
0.531791
21
-0.0225165
0
LINE
8
BLACK
6
CONTINUOUS
10
0.531791
20
-0.0225165
11
0.53144
21
-0.0212054
0
LINE
8
BLACK
6
CONTINUOUS
10
0.53144
20
-0.0212054
11
0.53144
21
-0.00995685
0
LINE
8
BLACK
6
CONTINUOUS
10
0.53144
20
-0.00995685
11
0.531791
21
-0.00864575
0
LINE
8
BLACK
6
CONTINUOUS
10
0.531791
20
-0.00864575
11
0.532063
21
-0.00731583
0
LINE
8
BLACK
6
CONTINUOUS
10
0.532063
20
-0.00731583
11
0.534875
21
-0.0016915
0
LINE
8
BLACK
6
CONTINUOUS
10
0.534875
20
-0.0016915
11
0.535115
21
-0.0014213
0
LINE
8
BLACK
6
CONTINUOUS
10
0.535115
20
-0.0014213
11
0.535229
21
-0.00107862
0
LINE
8
BLACK
6
CONTINUOUS
10
0.535229
20
-0.00107862
11
0.536117
21
-0.000291693
0
LINE
8
BLACK
6
CONTINUOUS
10
0.536117
20
-0.000291693
11
0.536904
21
0.000595709
0
LINE
8
BLACK
6
CONTINUOUS
10
0.536904
20
0.000595709
11
0.537246
21
0.000709921
0
LINE
8
BLACK
6
CONTINUOUS
10
0.537246
20
0.000709921
11
0.537516
21
0.000949528
0
LINE
8
BLACK
6
CONTINUOUS
10
0.537516
20
0.000949528
11
0.543141
21
0.00376165
0
LINE
8
BLACK
6
CONTINUOUS
10
0.543141
20
0.00376165
11
0.544471
21
0.00403378
0
LINE
8
BLACK
6
CONTINUOUS
10
0.544471
20
0.00403378
11
0.545782
21
0.00438512
0
LINE
8
BLACK
6
CONTINUOUS
10
0.545782
20
0.00438512
11
0.551406
21
0.00438512
0
LINE
8
BLACK
6
CONTINUOUS
10
0.551406
20
0.00438512
11
0.552337
21
0.00413571
0
LINE
8
BLACK
6
CONTINUOUS
10
0.544559
20
-0.00873425
11
0.543251
21
-0.0113509
0
LINE
8
BLACK
6
CONTINUOUS
10
0.543251
20
-0.0113509
11
0.543251
21
-0.0198113
0
LINE
8
BLACK
6
CONTINUOUS
10
0.543251
20
-0.0198113
11
0.544559
21
-0.022428
0
LINE
8
BLACK
6
CONTINUOUS
10
0.544559
20
-0.022428
11
0.547176
21
-0.0237364
0
LINE
8
BLACK
6
CONTINUOUS
10
0.547176
20
-0.0237364
11
0.549827
21
-0.0237364
0
LINE
8
BLACK
6
CONTINUOUS
10
0.549827
20
-0.0237364
11
0.54662
21
-0.0077037
0
LINE
8
BLACK
6
CONTINUOUS
10
0.54662
20
-0.0077037
11
0.544559
21
-0.00873425
0
LINE
8
BLACK
6
CONTINUOUS
10
0.540298
20
0.0457762
11
0.54246
21
0.0436146
0
LINE
8
BLACK
6
CONTINUOUS
10
0.54246
20
0.0436146
11
0.543251
21
0.0406619
0
LINE
8
BLACK
6
CONTINUOUS
10
0.543251
20
0.0406619
11
0.543251
21
0.0364317
0
LINE
8
BLACK
6
CONTINUOUS
10
0.543251
20
0.0364317
11
0.545011
21
0.0329114
0
LINE
8
BLACK
6
CONTINUOUS
10
0.545011
20
0.0329114
11
0.546468
21
0.0314546
0
LINE
8
BLACK
6
CONTINUOUS
10
0.546468
20
0.0314546
11
0.549988
21
0.0296944
0
LINE
8
BLACK
6
CONTINUOUS
10
0.549988
20
0.0296944
11
0.576715
21
0.0296944
0
LINE
8
BLACK
6
CONTINUOUS
10
0.576715
20
0.0296944
11
0.579668
21
0.0289033
0
LINE
8
BLACK
6
CONTINUOUS
10
0.579668
20
0.0289033
11
0.58183
21
0.0267417
0
LINE
8
BLACK
6
CONTINUOUS
10
0.58183
20
0.0267417
11
0.582621
21
0.0237889
0
LINE
8
BLACK
6
CONTINUOUS
10
0.582621
20
0.0237889
11
0.58183
21
0.0208362
0
LINE
8
BLACK
6
CONTINUOUS
10
0.58183
20
0.0208362
11
0.579668
21
0.0186746
0
LINE
8
BLACK
6
CONTINUOUS
10
0.579668
20
0.0186746
11
0.576715
21
0.0178834
0
LINE
8
BLACK
6
CONTINUOUS
10
0.576715
20
0.0178834
11
0.537345
21
0.0178834
0
LINE
8
BLACK
6
CONTINUOUS
10
0.537345
20
0.0178834
11
0.534393
21
0.0186746
0
LINE
8
BLACK
6
CONTINUOUS
10
0.534393
20
0.0186746
11
0.532231
21
0.0208362
0
LINE
8
BLACK
6
CONTINUOUS
10
0.532231
20
0.0208362
11
0.53144
21
0.0237889
0
LINE
8
BLACK
6
CONTINUOUS
10
0.53144
20
0.0237889
11
0.532231
21
0.0267417
0
LINE
8
BLACK
6
CONTINUOUS
10
0.532231
20
0.0267417
11
0.534004
21
0.0285148
0
LINE
8
BLACK
6
CONTINUOUS
10
0.534004
20
0.0285148
11
0.532063
21
0.0323965
0
LINE
8
BLACK
6
CONTINUOUS
10
0.532063
20
0.0323965
11
0.531791
21
0.0337265
0
LINE
8
BLACK
6
CONTINUOUS
10
0.531791
20
0.0337265
11
0.53144
21
0.0350376
0
LINE
8
BLACK
6
CONTINUOUS
10
0.53144
20
0.0350376
11
0.53144
21
0.0406619
0
LINE
8
BLACK
6
CONTINUOUS
10
0.53144
20
0.0406619
11
0.532231
21
0.0436146
0
LINE
8
BLACK
6
CONTINUOUS
10
0.532231
20
0.0436146
11
0.534393
21
0.0457762
0
LINE
8
BLACK
6
CONTINUOUS
10
0.534393
20
0.0457762
11
0.537345
21
0.0465674
0
LINE
8
BLACK
6
CONTINUOUS
10
0.537345
20
0.0465674
11
0.540298
21
0.0457762
0
LINE
8
BLACK
6
CONTINUOUS
10
0.514708
20
0.0552326
11
0.512546
21
0.0573941
0
LINE
8
BLACK
6
CONTINUOUS
10
0.512546
20
0.0573941
11
0.511755
21
0.0603469
0
LINE
8
BLACK
6
CONTINUOUS
10
0.511755
20
0.0603469
11
0.511755
21
0.0884683
0
LINE
8
BLACK
6
CONTINUOUS
10
0.511755
20
0.0884683
11
0.512546
21
0.0914211
0
LINE
8
BLACK
6
CONTINUOUS
10
0.512546
20
0.0914211
11
0.514708
21
0.0935827
0
LINE
8
BLACK
6
CONTINUOUS
10
0.514708
20
0.0935827
11
0.51766
21
0.0943739
0
LINE
8
BLACK
6
CONTINUOUS
10
0.51766
20
0.0943739
11
0.520613
21
0.0935827
0
LINE
8
BLACK
6
CONTINUOUS
10
0.520613
20
0.0935827
11
0.522775
21
0.0914211
0
LINE
8
BLACK
6
CONTINUOUS
10
0.522775
20
0.0914211
11
0.523566
21
0.0884683
0
LINE
8
BLACK
6
CONTINUOUS
10
0.523566
20
0.0884683
11
0.523566
21
0.0662524
0
LINE
8
BLACK
6
CONTINUOUS
10
0.523566
20
0.0662524
11
0.539876
21
0.0662524
0
LINE
8
BLACK
6
CONTINUOUS
10
0.539876
20
0.0662524
11
0.539876
21
0.0800319
0
LINE
8
BLACK
6
CONTINUOUS
10
0.539876
20
0.0800319
11
0.540667
21
0.0829847
0
LINE
8
BLACK
6
CONTINUOUS
10
0.540667
20
0.0829847
11
0.542829
21
0.0851463
0
LINE
8
BLACK
6
CONTINUOUS
10
0.542829
20
0.0851463
11
0.545782
21
0.0859374
0
LINE
8
BLACK
6
CONTINUOUS
10
0.545782
20
0.0859374
11
0.548735
21
0.0851463
0
LINE
8
BLACK
6
CONTINUOUS
10
0.548735
20
0.0851463
11
0.550896
21
0.0829847
0
LINE
8
BLACK
6
CONTINUOUS
10
0.550896
20
0.0829847
11
0.551687
21
0.0800319
0
LINE
8
BLACK
6
CONTINUOUS
10
0.551687
20
0.0800319
11
0.551687
21
0.0662524
0
LINE
8
BLACK
6
CONTINUOUS
10
0.551687
20
0.0662524
11
0.576715
21
0.0662524
0
LINE
8
BLACK
6
CONTINUOUS
10
0.576715
20
0.0662524
11
0.579668
21
0.0654612
0
LINE
8
BLACK
6
CONTINUOUS
10
0.579668
20
0.0654612
11
0.58183
21
0.0632996
0
LINE
8
BLACK
6
CONTINUOUS
10
0.58183
20
0.0632996
11
0.582621
21
0.0603469
0
LINE
8
BLACK
6
CONTINUOUS
10
0.582621
20
0.0603469
11
0.58183
21
0.0573941
0
LINE
8
BLACK
6
CONTINUOUS
10
0.58183
20
0.0573941
11
0.579668
21
0.0552326
0
LINE
8
BLACK
6
CONTINUOUS
10
0.579668
20
0.0552326
11
0.576715
21
0.0544414
0
LINE
8
BLACK
6
CONTINUOUS
10
0.576715
20
0.0544414
11
0.51766
21
0.0544414
0
LINE
8
BLACK
6
CONTINUOUS
10
0.51766
20
0.0544414
11
0.514708
21
0.0552326
0
LINE
8
BLACK
6
CONTINUOUS
10
0.579356
20
0.124684
11
0.581644
21
0.122656
0
LINE
8
BLACK
6
CONTINUOUS
10
0.581644
20
0.122656
11
0.58261
21
0.119756
0
LINE
8
BLACK
6
CONTINUOUS
10
0.58261
20
0.119756
11
0.581997
21
0.116761
0
LINE
8
BLACK
6
CONTINUOUS
10
0.581997
20
0.116761
11
0.579185
21
0.111137
0
LINE
8
BLACK
6
CONTINUOUS
10
0.579185
20
0.111137
11
0.578946
21
0.110866
0
LINE
8
BLACK
6
CONTINUOUS
10
0.578946
20
0.110866
11
0.578831
21
0.110524
0
LINE
8
BLACK
6
CONTINUOUS
10
0.578831
20
0.110524
11
0.577944
21
0.109737
0
LINE
8
BLACK
6
CONTINUOUS
10
0.577944
20
0.109737
11
0.577157
21
0.108849
0
LINE
8
BLACK
6
CONTINUOUS
10
0.577157
20
0.108849
11
0.576814
21
0.108735
0
LINE
8
BLACK
6
CONTINUOUS
10
0.576814
20
0.108735
11
0.576544
21
0.108496
0
LINE
8
BLACK
6
CONTINUOUS
10
0.576544
20
0.108496
11
0.57092
21
0.105684
0
LINE
8
BLACK
6
CONTINUOUS
10
0.57092
20
0.105684
11
0.56959
21
0.105411
0
LINE
8
BLACK
6
CONTINUOUS
10
0.56959
20
0.105411
11
0.568279
21
0.10506
0
LINE
8
BLACK
6
CONTINUOUS
10
0.568279
20
0.10506
11
0.51766
21
0.10506
0
LINE
8
BLACK
6
CONTINUOUS
10
0.51766
20
0.10506
11
0.514708
21
0.105851
0
LINE
8
BLACK
6
CONTINUOUS
10
0.514708
20
0.105851
11
0.512546
21
0.108013
0
LINE
8
BLACK
6
CONTINUOUS
10
0.512546
20
0.108013
11
0.511755
21
0.110966
0
LINE
8
BLACK
6
CONTINUOUS
10
0.511755
20
0.110966
11
0.512546
21
0.113918
0
LINE
8
BLACK
6
CONTINUOUS
10
0.512546
20
0.113918
11
0.514708
21
0.11608
0
LINE
8
BLACK
6
CONTINUOUS
10
0.514708
20
0.11608
11
0.51766
21
0.116871
0
LINE
8
BLACK
6
CONTINUOUS
10
0.51766
20
0.116871
11
0.566885
21
0.116871
0
LINE
8
BLACK
6
CONTINUOUS
10
0.566885
20
0.116871
11
0.569502
21
0.118179
0
LINE
8
BLACK
6
CONTINUOUS
10
0.569502
20
0.118179
11
0.571433
21
0.122043
0
LINE
8
BLACK
6
CONTINUOUS
10
0.571433
20
0.122043
11
0.573462
21
0.12433
0
LINE
8
BLACK
6
CONTINUOUS
10
0.573462
20
0.12433
11
0.576362
21
0.125297
0
LINE
8
BLACK
6
CONTINUOUS
10
0.576362
20
0.125297
11
0.579356
21
0.124684
0
LINE
8
BLACK
6
CONTINUOUS
10
0.539332
20
0.169958
11
0.578702
21
0.155897
0
LINE
8
BLACK
6
CONTINUOUS
10
0.578702
20
0.155897
11
0.578795
21
0.155832
0
LINE
8
BLACK
6
CONTINUOUS
10
0.578795
20
0.155832
11
0.578909
21
0.155819
0
LINE
8
BLACK
6
CONTINUOUS
10
0.578909
20
0.155819
11
0.592969
21
0.150194
0
LINE
8
BLACK
6
CONTINUOUS
10
0.592969
20
0.150194
11
0.593922
21
0.149482
0
LINE
8
BLACK
6
CONTINUOUS
10
0.593922
20
0.149482
11
0.594952
21
0.148887
0
LINE
8
BLACK
6
CONTINUOUS
10
0.594952
20
0.148887
11
0.597764
21
0.146075
0
LINE
8
BLACK
6
CONTINUOUS
10
0.597764
20
0.146075
11
0.59824
21
0.145252
0
LINE
8
BLACK
6
CONTINUOUS
10
0.59824
20
0.145252
11
0.59887
21
0.14454
0
LINE
8
BLACK
6
CONTINUOUS
10
0.59887
20
0.14454
11
0.601682
21
0.138916
0
LINE
8
BLACK
6
CONTINUOUS
10
0.601682
20
0.138916
11
0.602295
21
0.135921
0
LINE
8
BLACK
6
CONTINUOUS
10
0.602295
20
0.135921
11
0.601329
21
0.133021
0
LINE
8
BLACK
6
CONTINUOUS
10
0.601329
20
0.133021
11
0.599041
21
0.130993
0
LINE
8
BLACK
6
CONTINUOUS
10
0.599041
20
0.130993
11
0.596047
21
0.13038
0
LINE
8
BLACK
6
CONTINUOUS
10
0.596047
20
0.13038
11
0.593147
21
0.131347
0
LINE
8
BLACK
6
CONTINUOUS
10
0.593147
20
0.131347
11
0.591118
21
0.133634
0
LINE
8
BLACK
6
CONTINUOUS
10
0.591118
20
0.133634
11
0.588735
21
0.138401
0
LINE
8
BLACK
6
CONTINUOUS
10
0.588735
20
0.138401
11
0.587457
21
0.139678
0
LINE
8
BLACK
6
CONTINUOUS
10
0.587457
20
0.139678
11
0.576597
21
0.144023
0
LINE
8
BLACK
6
CONTINUOUS
10
0.576597
20
0.144023
11
0.539332
21
0.130713
0
LINE
8
BLACK
6
CONTINUOUS
10
0.539332
20
0.130713
11
0.536285
21
0.130465
0
LINE
8
BLACK
6
CONTINUOUS
10
0.536285
20
0.130465
11
0.533522
21
0.131774
0
LINE
8
BLACK
6
CONTINUOUS
10
0.533522
20
0.131774
11
0.531784
21
0.134289
0
LINE
8
BLACK
6
CONTINUOUS
10
0.531784
20
0.134289
11
0.531536
21
0.137335
0
LINE
8
BLACK
6
CONTINUOUS
10
0.531536
20
0.137335
11
0.532844
21
0.140098
0
LINE
8
BLACK
6
CONTINUOUS
10
0.532844
20
0.140098
11
0.535359
21
0.141836
0
LINE
8
BLACK
6
CONTINUOUS
10
0.535359
20
0.141836
11
0.559157
21
0.150336
0
LINE
8
BLACK
6
CONTINUOUS
10
0.559157
20
0.150336
11
0.535359
21
0.158835
0
LINE
8
BLACK
6
CONTINUOUS
10
0.535359
20
0.158835
11
0.532844
21
0.160573
0
LINE
8
BLACK
6
CONTINUOUS
10
0.532844
20
0.160573
11
0.531536
21
0.163336
0
LINE
8
BLACK
6
CONTINUOUS
10
0.531536
20
0.163336
11
0.531784
21
0.166383
0
LINE
8
BLACK
6
CONTINUOUS
10
0.531784
20
0.166383
11
0.533522
21
0.168897
0
LINE
8
BLACK
6
CONTINUOUS
10
0.533522
20
0.168897
11
0.536285
21
0.170206
0
LINE
8
BLACK
6
CONTINUOUS
10
0.536285
20
0.170206
11
0.539332
21
0.169958
0
LINE
8
BLACK
6
CONTINUOUS
10
0.582621
20
0.186894
11
0.58242
21
0.186143
0
LINE
8
BLACK
6
CONTINUOUS
10
0.58242
20
0.186143
11
0.58242
21
0.185365
0
LINE
8
BLACK
6
CONTINUOUS
10
0.58242
20
0.185365
11
0.582031
21
0.184692
0
LINE
8
BLACK
6
CONTINUOUS
10
0.582031
20
0.184692
11
0.58183
21
0.183941
0
LINE
8
BLACK
6
CONTINUOUS
10
0.58183
20
0.183941
11
0.58128
21
0.183391
0
LINE
8
BLACK
6
CONTINUOUS
10
0.58128
20
0.183391
11
0.580891
21
0.182718
0
LINE
8
BLACK
6
CONTINUOUS
10
0.580891
20
0.182718
11
0.580891
21
0.182718
0
LINE
8
BLACK
6
CONTINUOUS
10
0.580891
20
0.182718
11
0.578079
21
0.179906
0
LINE
8
BLACK
6
CONTINUOUS
10
0.578079
20
0.179906
11
0.57696
21
0.17926
0
LINE
8
BLACK
6
CONTINUOUS
10
0.57696
20
0.17926
11
0.575432
21
0.178377
0
LINE
8
BLACK
6
CONTINUOUS
10
0.575432
20
0.178377
11
0.572375
21
0.178377
0
LINE
8
BLACK
6
CONTINUOUS
10
0.572375
20
0.178377
11
0.569727
21
0.179906
0
LINE
8
BLACK
6
CONTINUOUS
10
0.569727
20
0.179906
11
0.569727
21
0.179906
0
LINE
8
BLACK
6
CONTINUOUS
10
0.569727
20
0.179906
11
0.566915
21
0.182718
0
LINE
8
BLACK
6
CONTINUOUS
10
0.566915
20
0.182718
11
0.566527
21
0.183391
0
LINE
8
BLACK
6
CONTINUOUS
10
0.566527
20
0.183391
11
0.565977
21
0.183941
0
LINE
8
BLACK
6
CONTINUOUS
10
0.565977
20
0.183941
11
0.565776
21
0.184692
0
LINE
8
BLACK
6
CONTINUOUS
10
0.565776
20
0.184692
11
0.565387
21
0.185365
0
LINE
8
BLACK
6
CONTINUOUS
10
0.565387
20
0.185365
11
0.565387
21
0.186143
0
LINE
8
BLACK
6
CONTINUOUS
10
0.565387
20
0.186143
11
0.565186
21
0.186894
0
LINE
8
BLACK
6
CONTINUOUS
10
0.565186
20
0.186894
11
0.565387
21
0.187645
0
LINE
8
BLACK
6
CONTINUOUS
10
0.565387
20
0.187645
11
0.565387
21
0.188422
0
LINE
8
BLACK
6
CONTINUOUS
10
0.565387
20
0.188422
11
0.565776
21
0.189095
0
LINE
8
BLACK
6
CONTINUOUS
10
0.565776
20
0.189095
11
0.565977
21
0.189846
0
LINE
8
BLACK
6
CONTINUOUS
10
0.565977
20
0.189846
11
0.566527
21
0.190396
0
LINE
8
BLACK
6
CONTINUOUS
10
0.566527
20
0.190396
11
0.566915
21
0.191069
0
LINE
8
BLACK
6
CONTINUOUS
10
0.566915
20
0.191069
11
0.569727
21
0.193881
0
LINE
8
BLACK
6
CONTINUOUS
10
0.569727
20
0.193881
11
0.569727
21
0.193881
0
LINE
8
BLACK
6
CONTINUOUS
10
0.569727
20
0.193881
11
0.569727
21
0.193882
0
LINE
8
BLACK
6
CONTINUOUS
10
0.569727
20
0.193882
11
0.571625
21
0.194977
0
LINE
8
BLACK
6
CONTINUOUS
10
0.571625
20
0.194977
11
0.572375
21
0.19541
0
LINE
8
BLACK
6
CONTINUOUS
10
0.572375
20
0.19541
11
0.575432
21
0.19541
0
LINE
8
BLACK
6
CONTINUOUS
10
0.575432
20
0.19541
11
0.57696
21
0.194528
0
LINE
8
BLACK
6
CONTINUOUS
10
0.57696
20
0.194528
11
0.578079
21
0.193882
0
LINE
8
BLACK
6
CONTINUOUS
10
0.578079
20
0.193882
11
0.578079
21
0.193882
0
LINE
8
BLACK
6
CONTINUOUS
10
0.578079
20
0.193882
11
0.578079
21
0.193882
0
LINE
8
BLACK
6
CONTINUOUS
10
0.578079
20
0.193882
11
0.580891
21
0.191069
0
LINE
8
BLACK
6
CONTINUOUS
10
0.580891
20
0.191069
11
0.58128
21
0.190396
0
LINE
8
BLACK
6
CONTINUOUS
10
0.58128
20
0.190396
11
0.58183
21
0.189846
0
LINE
8
BLACK
6
CONTINUOUS
10
0.58183
20
0.189846
11
0.582031
21
0.189095
0
LINE
8
BLACK
6
CONTINUOUS
10
0.582031
20
0.189095
11
0.58242
21
0.188422
0
LINE
8
BLACK
6
CONTINUOUS
10
0.58242
20
0.188422
11
0.58242
21
0.187645
0
LINE
8
BLACK
6
CONTINUOUS
10
0.58242
20
0.187645
11
0.582621
21
0.186894
0
LINE
8
BLACK
6
CONTINUOUS
10
0.577157
20
0.245253
11
0.579185
21
0.242965
0
LINE
8
BLACK
6
CONTINUOUS
10
0.579185
20
0.242965
11
0.581997
21
0.237341
0
LINE
8
BLACK
6
CONTINUOUS
10
0.581997
20
0.237341
11
0.58227
21
0.236011
0
LINE
8
BLACK
6
CONTINUOUS
10
0.58227
20
0.236011
11
0.582621
21
0.2347
0
LINE
8
BLACK
6
CONTINUOUS
10
0.582621
20
0.2347
11
0.582621
21
0.223451
0
LINE
8
BLACK
6
CONTINUOUS
10
0.582621
20
0.223451
11
0.58227
21
0.22214
0
LINE
8
BLACK
6
CONTINUOUS
10
0.58227
20
0.22214
11
0.581997
21
0.22081
0
LINE
8
BLACK
6
CONTINUOUS
10
0.581997
20
0.22081
11
0.579185
21
0.215186
0
LINE
8
BLACK
6
CONTINUOUS
10
0.579185
20
0.215186
11
0.578554
21
0.214475
0
LINE
8
BLACK
6
CONTINUOUS
10
0.578554
20
0.214475
11
0.578079
21
0.213651
0
LINE
8
BLACK
6
CONTINUOUS
10
0.578079
20
0.213651
11
0.575267
21
0.210839
0
LINE
8
BLACK
6
CONTINUOUS
10
0.575267
20
0.210839
11
0.574444
21
0.210364
0
LINE
8
BLACK
6
CONTINUOUS
10
0.574444
20
0.210364
11
0.573732
21
0.209733
0
LINE
8
BLACK
6
CONTINUOUS
10
0.573732
20
0.209733
11
0.568108
21
0.206921
0
LINE
8
BLACK
6
CONTINUOUS
10
0.568108
20
0.206921
11
0.566778
21
0.206649
0
LINE
8
BLACK
6
CONTINUOUS
10
0.566778
20
0.206649
11
0.565467
21
0.206297
0
LINE
8
BLACK
6
CONTINUOUS
10
0.565467
20
0.206297
11
0.548594
21
0.206297
0
LINE
8
BLACK
6
CONTINUOUS
10
0.548594
20
0.206297
11
0.547283
21
0.206649
0
LINE
8
BLACK
6
CONTINUOUS
10
0.547283
20
0.206649
11
0.545953
21
0.206921
0
LINE
8
BLACK
6
CONTINUOUS
10
0.545953
20
0.206921
11
0.540329
21
0.209733
0
LINE
8
BLACK
6
CONTINUOUS
10
0.540329
20
0.209733
11
0.539617
21
0.210364
0
LINE
8
BLACK
6
CONTINUOUS
10
0.539617
20
0.210364
11
0.538794
21
0.210839
0
LINE
8
BLACK
6
CONTINUOUS
10
0.538794
20
0.210839
11
0.535982
21
0.213651
0
LINE
8
BLACK
6
CONTINUOUS
10
0.535982
20
0.213651
11
0.535506
21
0.214475
0
LINE
8
BLACK
6
CONTINUOUS
10
0.535506
20
0.214475
11
0.534875
21
0.215186
0
LINE
8
BLACK
6
CONTINUOUS
10
0.534875
20
0.215186
11
0.532063
21
0.22081
0
LINE
8
BLACK
6
CONTINUOUS
10
0.532063
20
0.22081
11
0.531791
21
0.22214
0
LINE
8
BLACK
6
CONTINUOUS
10
0.531791
20
0.22214
11
0.53144
21
0.223451
0
LINE
8
BLACK
6
CONTINUOUS
10
0.53144
20
0.223451
11
0.53144
21
0.2347
0
LINE
8
BLACK
6
CONTINUOUS
10
0.53144
20
0.2347
11
0.531791
21
0.236011
0
LINE
8
BLACK
6
CONTINUOUS
10
0.531791
20
0.236011
11
0.532063
21
0.237341
0
LINE
8
BLACK
6
CONTINUOUS
10
0.532063
20
0.237341
11
0.534875
21
0.242965
0
LINE
8
BLACK
6
CONTINUOUS
10
0.534875
20
0.242965
11
0.536904
21
0.245253
0
LINE
8
BLACK
6
CONTINUOUS
10
0.536904
20
0.245253
11
0.539804
21
0.246219
0
LINE
8
BLACK
6
CONTINUOUS
10
0.539804
20
0.246219
11
0.542799
21
0.245606
0
LINE
8
BLACK
6
CONTINUOUS
10
0.542799
20
0.245606
11
0.545086
21
0.243578
0
LINE
8
BLACK
6
CONTINUOUS
10
0.545086
20
0.243578
11
0.546052
21
0.240678
0
LINE
8
BLACK
6
CONTINUOUS
10
0.546052
20
0.240678
11
0.54544
21
0.237683
0
LINE
8
BLACK
6
CONTINUOUS
10
0.54544
20
0.237683
11
0.543251
21
0.233306
0
LINE
8
BLACK
6
CONTINUOUS
10
0.543251
20
0.233306
11
0.543251
21
0.224846
0
LINE
8
BLACK
6
CONTINUOUS
10
0.543251
20
0.224846
11
0.545011
21
0.221325
0
LINE
8
BLACK
6
CONTINUOUS
10
0.545011
20
0.221325
11
0.546468
21
0.219869
0
LINE
8
BLACK
6
CONTINUOUS
10
0.546468
20
0.219869
11
0.549988
21
0.218108
0
LINE
8
BLACK
6
CONTINUOUS
10
0.549988
20
0.218108
11
0.564073
21
0.218108
0
LINE
8
BLACK
6
CONTINUOUS
10
0.564073
20
0.218108
11
0.567593
21
0.219868
0
LINE
8
BLACK
6
CONTINUOUS
10
0.567593
20
0.219868
11
0.56905
21
0.221325
0
LINE
8
BLACK
6
CONTINUOUS
10
0.56905
20
0.221325
11
0.57081
21
0.224846
0
LINE
8
BLACK
6
CONTINUOUS
10
0.57081
20
0.224846
11
0.57081
21
0.233306
0
LINE
8
BLACK
6
CONTINUOUS
10
0.57081
20
0.233306
11
0.568621
21
0.237683
0
LINE
8
BLACK
6
CONTINUOUS
10
0.568621
20
0.237683
11
0.568008
21
0.240678
0
LINE
8
BLACK
6
CONTINUOUS
10
0.568008
20
0.240678
11
0.568975
21
0.243578
0
LINE
8
BLACK
6
CONTINUOUS
10
0.568975
20
0.243578
11
0.571262
21
0.245606
0
LINE
8
BLACK
6
CONTINUOUS
10
0.571262
20
0.245606
11
0.574257
21
0.246219
0
LINE
8
BLACK
6
CONTINUOUS
10
0.574257
20
0.246219
11
0.577157
21
0.245253
0
LINE
8
BLACK
6
CONTINUOUS
10
0.579668
20
0.296057
11
0.58183
21
0.293896
0
LINE
8
BLACK
6
CONTINUOUS
10
0.58183
20
0.293896
11
0.582621
21
0.290943
0
LINE
8
BLACK
6
CONTINUOUS
10
0.582621
20
0.290943
11
0.582621
21
0.260009
0
LINE
8
BLACK
6
CONTINUOUS
10
0.582621
20
0.260009
11
0.58251
21
0.259596
0
LINE
8
BLACK
6
CONTINUOUS
10
0.58251
20
0.259596
11
0.582561
21
0.259171
0
LINE
8
BLACK
6
CONTINUOUS
10
0.582561
20
0.259171
11
0.58212
21
0.25814
0
LINE
8
BLACK
6
CONTINUOUS
10
0.58212
20
0.25814
11
0.58183
21
0.257057
0
LINE
8
BLACK
6
CONTINUOUS
10
0.58183
20
0.257057
11
0.581527
21
0.256754
0
LINE
8
BLACK
6
CONTINUOUS
10
0.581527
20
0.256754
11
0.581359
21
0.256361
0
LINE
8
BLACK
6
CONTINUOUS
10
0.581359
20
0.256361
11
0.580461
21
0.255688
0
LINE
8
BLACK
6
CONTINUOUS
10
0.580461
20
0.255688
11
0.579668
21
0.254895
0
LINE
8
BLACK
6
CONTINUOUS
10
0.579668
20
0.254895
11
0.579255
21
0.254784
0
LINE
8
BLACK
6
CONTINUOUS
10
0.579255
20
0.254784
11
0.578913
21
0.254528
0
LINE
8
BLACK
6
CONTINUOUS
10
0.578913
20
0.254528
11
0.577799
21
0.254394
0
LINE
8
BLACK
6
CONTINUOUS
10
0.577799
20
0.254394
11
0.576715
21
0.254104
0
LINE
8
BLACK
6
CONTINUOUS
10
0.576715
20
0.254104
11
0.576302
21
0.254215
0
LINE
8
BLACK
6
CONTINUOUS
10
0.576302
20
0.254215
11
0.575877
21
0.254164
0
LINE
8
BLACK
6
CONTINUOUS
10
0.575877
20
0.254164
11
0.574846
21
0.254605
0
LINE
8
BLACK
6
CONTINUOUS
10
0.574846
20
0.254605
11
0.573763
21
0.254895
0
LINE
8
BLACK
6
CONTINUOUS
10
0.573763
20
0.254895
11
0.57346
21
0.255198
0
LINE
8
BLACK
6
CONTINUOUS
10
0.57346
20
0.255198
11
0.573067
21
0.255366
0
LINE
8
BLACK
6
CONTINUOUS
10
0.573067
20
0.255366
11
0.543251
21
0.278793
0
LINE
8
BLACK
6
CONTINUOUS
10
0.543251
20
0.278793
11
0.543251
21
0.260009
0
LINE
8
BLACK
6
CONTINUOUS
10
0.543251
20
0.260009
11
0.54246
21
0.257057
0
LINE
8
BLACK
6
CONTINUOUS
10
0.54246
20
0.257057
11
0.540298
21
0.254895
0
LINE
8
BLACK
6
CONTINUOUS
10
0.540298
20
0.254895
11
0.537345
21
0.254104
0
LINE
8
BLACK
6
CONTINUOUS
10
0.537345
20
0.254104
11
0.534393
21
0.254895
0
LINE
8
BLACK
6
CONTINUOUS
10
0.534393
20
0.254895
11
0.532231
21
0.257057
0
LINE
8
BLACK
6
CONTINUOUS
10
0.532231
20
0.257057
11
0.53144
21
0.260009
0
LINE
8
BLACK
6
CONTINUOUS
10
0.53144
20
0.260009
11
0.53144
21
0.290943
0
LINE
8
BLACK
6
CONTINUOUS
10
0.53144
20
0.290943
11
0.531551
21
0.291356
0
LINE
8
BLACK
6
CONTINUOUS
10
0.531551
20
0.291356
11
0.5315
21
0.291781
0
LINE
8
BLACK
6
CONTINUOUS
10
0.5315
20
0.291781
11
0.531941
21
0.292812
0
LINE
8
BLACK
6
CONTINUOUS
10
0.531941
20
0.292812
11
0.532231
21
0.293896
0
LINE
8
BLACK
6
CONTINUOUS
10
0.532231
20
0.293896
11
0.532533
21
0.294198
0
LINE
8
BLACK
6
CONTINUOUS
10
0.532533
20
0.294198
11
0.532702
21
0.294592
0
LINE
8
BLACK
6
CONTINUOUS
10
0.532702
20
0.294592
11
0.533599
21
0.295264
0
LINE
8
BLACK
6
CONTINUOUS
10
0.533599
20
0.295264
11
0.534393
21
0.296057
0
LINE
8
BLACK
6
CONTINUOUS
10
0.534393
20
0.296057
11
0.534806
21
0.296168
0
LINE
8
BLACK
6
CONTINUOUS
10
0.534806
20
0.296168
11
0.535148
21
0.296425
0
LINE
8
BLACK
6
CONTINUOUS
10
0.535148
20
0.296425
11
0.536262
21
0.296558
0
LINE
8
BLACK
6
CONTINUOUS
10
0.536262
20
0.296558
11
0.537345
21
0.296849
0
LINE
8
BLACK
6
CONTINUOUS
10
0.537345
20
0.296849
11
0.537758
21
0.296738
0
LINE
8
BLACK
6
CONTINUOUS
10
0.537758
20
0.296738
11
0.538183
21
0.296789
0
LINE
8
BLACK
6
CONTINUOUS
10
0.538183
20
0.296789
11
0.539215
21
0.296348
0
LINE
8
BLACK
6
CONTINUOUS
10
0.539215
20
0.296348
11
0.540298
21
0.296057
0
LINE
8
BLACK
6
CONTINUOUS
10
0.540298
20
0.296057
11
0.540601
21
0.295755
0
LINE
8
BLACK
6
CONTINUOUS
10
0.540601
20
0.295755
11
0.540994
21
0.295587
0
LINE
8
BLACK
6
CONTINUOUS
10
0.540994
20
0.295587
11
0.57081
21
0.27216
0
LINE
8
BLACK
6
CONTINUOUS
10
0.57081
20
0.27216
11
0.57081
21
0.290943
0
LINE
8
BLACK
6
CONTINUOUS
10
0.57081
20
0.290943
11
0.571601
21
0.293896
0
LINE
8
BLACK
6
CONTINUOUS
10
0.571601
20
0.293896
11
0.573763
21
0.296057
0
LINE
8
BLACK
6
CONTINUOUS
10
0.573763
20
0.296057
11
0.576715
21
0.296849
0
LINE
8
BLACK
6
CONTINUOUS
10
0.576715
20
0.296849
11
0.579668
21
0.296057
0
LINE
8
BLACK
6
CONTINUOUS
10
-0.829633
20
0.354274
11
-0.827907
21
0.355271
0
LINE
8
BLACK
6
CONTINUOUS
10
-0.827907
20
0.355271
11
-0.827402
21
0.355315
0
LINE
8
BLACK
6
CONTINUOUS
10
-0.827402
20
0.355315
11
0.60378
21
0.355315
0
LINE
8
BLACK
6
CONTINUOUS
10
0.60378
20
0.355315
11
0.605652
21
0.354633
0
LINE
8
BLACK
6
CONTINUOUS
10
0.605652
20
0.354633
11
0.606649
21
0.352907
0
LINE
8
BLACK
6
CONTINUOUS
10
0.606649
20
0.352907
11
0.606693
21
0.352402
0
LINE
8
BLACK
6
CONTINUOUS
10
0.606693
20
0.352402
11
0.606693
21
0.321978
0
LINE
8
BLACK
6
CONTINUOUS
10
0.606693
20
0.321978
11
0.606011
21
0.320105
0
LINE
8
BLACK
6
CONTINUOUS
10
0.606011
20
0.320105
11
0.604285
21
0.319109
0
LINE
8
BLACK
6
CONTINUOUS
10
0.604285
20
0.319109
11
0.60378
21
0.319065
0
LINE
8
BLACK
6
CONTINUOUS
10
0.60378
20
0.319065
11
0.470965
21
0.319065
0
LINE
8
BLACK
6
CONTINUOUS
10
0.470965
20
0.319065
11
0.470965
21
-0.319293
0
LINE
8
BLACK
6
CONTINUOUS
10
0.470965
20
-0.319293
11
0.60378
21
-0.319293
0
LINE
8
BLACK
6
CONTINUOUS
10
0.60378
20
-0.319293
11
0.605652
21
-0.319975
0
LINE
8
BLACK
6
CONTINUOUS
10
0.605652
20
-0.319975
11
0.606649
21
-0.321701
0
LINE
8
BLACK
6
CONTINUOUS
10
0.606649
20
-0.321701
11
0.606693
21
-0.322207
0
LINE
8
BLACK
6
CONTINUOUS
10
0.606693
20
-0.322207
11
0.606693
21
-0.350433
0
LINE
8
BLACK
6
CONTINUOUS
10
0.606693
20
-0.350433
11
0.606011
21
-0.352306
0
LINE
8
BLACK
6
CONTINUOUS
10
0.606011
20
-0.352306
11
0.604285
21
-0.353302
0
LINE
8
BLACK
6
CONTINUOUS
10
0.604285
20
-0.353302
11
0.60378
21
-0.353346
0
LINE
8
BLACK
6
CONTINUOUS
10
0.60378
20
-0.353346
11
-0.827402
21
-0.353346
0
LINE
8
BLACK
6
CONTINUOUS
10
-0.827402
20
-0.353346
11
-0.829274
21
-0.352665
0
LINE
8
BLACK
6
CONTINUOUS
10
-0.829274
20
-0.352665
11
-0.830271
21
-0.350939
0
LINE
8
BLACK
6
CONTINUOUS
10
-0.830271
20
-0.350939
11
-0.830315
21
-0.350433
0
LINE
8
BLACK
6
CONTINUOUS
10
-0.830315
20
-0.350433
11
-0.830315
21
0.352402
0
LINE
8
BLACK
6
CONTINUOUS
10
-0.830315
20
0.352402
11
-0.829633
21
0.354274
0
LINE
8
BLACK
6
CONTINUOUS
10
-0.0631786
20
-0.303261
11
-0.0630721
21
-0.304005
0
LINE
8
BLACK
6
CONTINUOUS
10
-0.0630721
20
-0.304005
11
-0.0630538
21
-0.304164
0
LINE
8
BLACK
6
CONTINUOUS
10
-0.0630538
20
-0.304164
11
-0.0625421
21
-0.310012
0
LINE
8
BLACK
6
CONTINUOUS
10
-0.0625421
20
-0.310012
11
-0.0607591
21
-0.316666
0
LINE
8
BLACK
6
CONTINUOUS
10
-0.0607591
20
-0.316666
11
-0.0607055
21
-0.316781
0
LINE
8
BLACK
6
CONTINUOUS
10
-0.0607055
20
-0.316781
11
-0.0607055
21
-0.316781
0
LINE
8
BLACK
6
CONTINUOUS
10
-0.0607055
20
-0.316781
11
-0.0579015
21
-0.322795
0
LINE
8
BLACK
6
CONTINUOUS
10
-0.0579015
20
-0.322795
11
-0.0579014
21
-0.322795
0
LINE
8
BLACK
6
CONTINUOUS
10
-0.0579014
20
-0.322795
11
-0.0578478
21
-0.32291
0
LINE
8
BLACK
6
CONTINUOUS
10
-0.0578478
20
-0.32291
11
-0.0538965
21
-0.328553
0
LINE
8
BLACK
6
CONTINUOUS
10
-0.0538965
20
-0.328553
11
-0.0490253
21
-0.333424
0
LINE
8
BLACK
6
CONTINUOUS
10
-0.0490253
20
-0.333424
11
-0.0433823
21
-0.337375
0
LINE
8
BLACK
6
CONTINUOUS
10
-0.0433823
20
-0.337375
11
-0.0432672
21
-0.337429
0
LINE
8
BLACK
6
CONTINUOUS
10
-0.0432672
20
-0.337429
11
-0.043267
21
-0.337429
0
LINE
8
BLACK
6
CONTINUOUS
10
-0.043267
20
-0.337429
11
-0.0372539
21
-0.340233
0
LINE
8
BLACK
6
CONTINUOUS
10
-0.0372539
20
-0.340233
11
-0.0371389
21
-0.340287
0
LINE
8
BLACK
6
CONTINUOUS
10
-0.0371389
20
-0.340287
11
-0.0370163
21
-0.34032
0
LINE
8
BLACK
6
CONTINUOUS
10
-0.0370163
20
-0.34032
11
-0.0370163
21
-0.34032
0
LINE
8
BLACK
6
CONTINUOUS
10
-0.0370163
20
-0.34032
11
-0.0306073
21
-0.342037
0
LINE
8
BLACK
6
CONTINUOUS
10
-0.0306073
20
-0.342037
11
-0.0306072
21
-0.342037
0
LINE
8
BLACK
6
CONTINUOUS
10
-0.0306072
20
-0.342037
11
-0.0304847
21
-0.34207
0
LINE
8
BLACK
6
CONTINUOUS
10
-0.0304847
20
-0.34207
11
-0.0277358
21
-0.34231
0
LINE
8
BLACK
6
CONTINUOUS
10
-0.0277358
20
-0.34231
11
-0.0253207
21
-0.342521
0
LINE
8
BLACK
6
CONTINUOUS
10
-0.0253207
20
-0.342521
11
-0.0250913
21
-0.342551
0
LINE
8
BLACK
6
CONTINUOUS
10
-0.0250913
20
-0.342551
11
-0.0242192
21
-0.342697
0
LINE
8
BLACK
6
CONTINUOUS
10
-0.0242192
20
-0.342697
11
-0.0242191
21
-0.342697
0
LINE
8
BLACK
6
CONTINUOUS
10
-0.0242191
20
-0.342697
11
-0.024108
21
-0.342716
0
LINE
8
BLACK
6
CONTINUOUS
10
-0.024108
20
-0.342716
11
-0.023865
21
-0.342719
0
LINE
8
BLACK
6
CONTINUOUS
10
-0.023865
20
-0.342719
11
-0.0237348
21
-0.342721
0
LINE
8
BLACK
6
CONTINUOUS
10
-0.0237348
20
-0.342721
11
-0.0236221
21
-0.342722
0
LINE
8
BLACK
6
CONTINUOUS
10
-0.0236221
20
-0.342722
11
-0.0224139
21
-0.342549
0
LINE
8
BLACK
6
CONTINUOUS
10
-0.0224139
20
-0.342549
11
-0.0220008
21
-0.34252
0
LINE
8
BLACK
6
CONTINUOUS
10
-0.0220008
20
-0.34252
11
0.021725
21
-0.34252
0
LINE
8
BLACK
6
CONTINUOUS
10
0.021725
20
-0.34252
11
0.0222083
21
-0.34256
0
LINE
8
BLACK
6
CONTINUOUS
10
0.0222083
20
-0.34256
11
0.023025
21
-0.342697
0
LINE
8
BLACK
6
CONTINUOUS
10
0.023025
20
-0.342697
11
0.023025
21
-0.342697
0
LINE
8
BLACK
6
CONTINUOUS
10
0.023025
20
-0.342697
11
0.0231362
21
-0.342716
0
LINE
8
BLACK
6
CONTINUOUS
10
0.0231362
20
-0.342716
11
0.0234159
21
-0.34272
0
LINE
8
BLACK
6
CONTINUOUS
10
0.0234159
20
-0.34272
11
0.0235094
21
-0.342721
0
LINE
8
BLACK
6
CONTINUOUS
10
0.0235094
20
-0.342721
11
0.0236221
21
-0.342722
0
LINE
8
BLACK
6
CONTINUOUS
10
0.0236221
20
-0.342722
11
0.0237336
21
-0.342706
0
LINE
8
BLACK
6
CONTINUOUS
10
0.0237336
20
-0.342706
11
0.0237338
21
-0.342706
0
LINE
8
BLACK
6
CONTINUOUS
10
0.0237338
20
-0.342706
11
0.0244774
21
-0.3426
0
LINE
8
BLACK
6
CONTINUOUS
10
0.0244774
20
-0.3426
11
0.024636
21
-0.342581
0
LINE
8
BLACK
6
CONTINUOUS
10
0.024636
20
-0.342581
11
0.0304847
21
-0.34207
0
LINE
8
BLACK
6
CONTINUOUS
10
0.0304847
20
-0.34207
11
0.0306072
21
-0.342037
0
LINE
8
BLACK
6
CONTINUOUS
10
0.0306072
20
-0.342037
11
0.0306073
21
-0.342037
0
LINE
8
BLACK
6
CONTINUOUS
10
0.0306073
20
-0.342037
11
0.0370163
21
-0.34032
0
LINE
8
BLACK
6
CONTINUOUS
10
0.0370163
20
-0.34032
11
0.0370163
21
-0.34032
0
LINE
8
BLACK
6
CONTINUOUS
10
0.0370163
20
-0.34032
11
0.0371389
21
-0.340287
0
LINE
8
BLACK
6
CONTINUOUS
10
0.0371389
20
-0.340287
11
0.0372539
21
-0.340233
0
LINE
8
BLACK
6
CONTINUOUS
10
0.0372539
20
-0.340233
11
0.043267
21
-0.337429
0
LINE
8
BLACK
6
CONTINUOUS
10
0.043267
20
-0.337429
11
0.0432672
21
-0.337429
0
LINE
8
BLACK
6
CONTINUOUS
10
0.0432672
20
-0.337429
11
0.0433823
21
-0.337375
0
LINE
8
BLACK
6
CONTINUOUS
10
0.0433823
20
-0.337375
11
0.0490253
21
-0.333424
0
LINE
8
BLACK
6
CONTINUOUS
10
0.0490253
20
-0.333424
11
0.0538965
21
-0.328553
0
LINE
8
BLACK
6
CONTINUOUS
10
0.0538965
20
-0.328553
11
0.0578478
21
-0.32291
0
LINE
8
BLACK
6
CONTINUOUS
10
0.0578478
20
-0.32291
11
0.0579014
21
-0.322795
0
LINE
8
BLACK
6
CONTINUOUS
10
0.0579014
20
-0.322795
11
0.0579015
21
-0.322795
0
LINE
8
BLACK
6
CONTINUOUS
10
0.0579015
20
-0.322795
11
0.0607055
21
-0.316781
0
LINE
8
BLACK
6
CONTINUOUS
10
0.0607055
20
-0.316781
11
0.0607055
21
-0.316781
0
LINE
8
BLACK
6
CONTINUOUS
10
0.0607055
20
-0.316781
11
0.0607591
21
-0.316666
0
LINE
8
BLACK
6
CONTINUOUS
10
0.0607591
20
-0.316666
11
0.0625421
21
-0.310012
0
LINE
8
BLACK
6
CONTINUOUS
10
0.0625421
20
-0.310012
11
0.0629939
21
-0.304848
0
LINE
8
BLACK
6
CONTINUOUS
10
0.0629939
20
-0.304848
11
0.0630232
21
-0.304619
0
LINE
8
BLACK
6
CONTINUOUS
10
0.0630232
20
-0.304619
11
0.0631699
21
-0.303747
0
LINE
8
BLACK
6
CONTINUOUS
10
0.0631699
20
-0.303747
11
0.0631699
21
-0.303747
0
LINE
8
BLACK
6
CONTINUOUS
10
0.0631699
20
-0.303747
11
0.0631886
21
-0.303636
0
LINE
8
BLACK
6
CONTINUOUS
10
0.0631886
20
-0.303636
11
0.0631946
21
-0.30315
0
LINE
8
BLACK
6
CONTINUOUS
10
0.0631946
20
-0.30315
11
0.0630215
21
-0.301941
0
LINE
8
BLACK
6
CONTINUOUS
10
0.0630215
20
-0.301941
11
0.0629921
21
-0.301528
0
LINE
8
BLACK
6
CONTINUOUS
10
0.0629921
20
-0.301528
11
0.0629921
21
-0.249929
0
LINE
8
BLACK
6
CONTINUOUS
10
0.0629921
20
-0.249929
11
0.0630325
21
-0.249445
0
LINE
8
BLACK
6
CONTINUOUS
10
0.0630325
20
-0.249445
11
0.0631699
21
-0.248629
0
LINE
8
BLACK
6
CONTINUOUS
10
0.0631699
20
-0.248629
11
0.0631699
21
-0.248629
0
LINE
8
BLACK
6
CONTINUOUS
10
0.0631699
20
-0.248629
11
0.0631886
21
-0.248517
0
LINE
8
BLACK
6
CONTINUOUS
10
0.0631886
20
-0.248517
11
0.0631946
21
-0.248031
0
LINE
8
BLACK
6
CONTINUOUS
10
0.0631946
20
-0.248031
11
0.0631785
21
-0.247919
0
LINE
8
BLACK
6
CONTINUOUS
10
0.0631785
20
-0.247919
11
0.0630721
21
-0.247176
0
LINE
8
BLACK
6
CONTINUOUS
10
0.0630721
20
-0.247176
11
0.0630537
21
-0.247017
0
LINE
8
BLACK
6
CONTINUOUS
10
0.0630537
20
-0.247017
11
0.0630402
21
-0.246861
0
LINE
8
BLACK
6
CONTINUOUS
10
0.0630402
20
-0.246861
11
0.0625421
21
-0.241169
0
LINE
8
BLACK
6
CONTINUOUS
10
0.0625421
20
-0.241169
11
0.0607591
21
-0.234515
0
LINE
8
BLACK
6
CONTINUOUS
10
0.0607591
20
-0.234515
11
0.0595506
21
-0.231923
0
LINE
8
BLACK
6
CONTINUOUS
10
0.0595506
20
-0.231923
11
0.0579015
21
-0.228387
0
LINE
8
BLACK
6
CONTINUOUS
10
0.0579015
20
-0.228387
11
0.0579014
21
-0.228386
0
LINE
8
BLACK
6
CONTINUOUS
10
0.0579014
20
-0.228386
11
0.0578478
21
-0.228271
0
LINE
8
BLACK
6
CONTINUOUS
10
0.0578478
20
-0.228271
11
0.0538965
21
-0.222628
0
LINE
8
BLACK
6
CONTINUOUS
10
0.0538965
20
-0.222628
11
0.0490253
21
-0.217757
0
LINE
8
BLACK
6
CONTINUOUS
10
0.0490253
20
-0.217757
11
0.0433823
21
-0.213806
0
LINE
8
BLACK
6
CONTINUOUS
10
0.0433823
20
-0.213806
11
0.0432672
21
-0.213752
0
LINE
8
BLACK
6
CONTINUOUS
10
0.0432672
20
-0.213752
11
0.043267
21
-0.213752
0
LINE
8
BLACK
6
CONTINUOUS
10
0.043267
20
-0.213752
11
0.0372539
21
-0.210948
0
LINE
8
BLACK
6
CONTINUOUS
10
0.0372539
20
-0.210948
11
0.0372538
21
-0.210948
0
LINE
8
BLACK
6
CONTINUOUS
10
0.0372538
20
-0.210948
11
0.0371389
21
-0.210894
0
LINE
8
BLACK
6
CONTINUOUS
10
0.0371389
20
-0.210894
11
0.0355165
21
-0.21046
0
LINE
8
BLACK
6
CONTINUOUS
10
0.0355165
20
-0.21046
11
0.0306073
21
-0.209144
0
LINE
8
BLACK
6
CONTINUOUS
10
0.0306073
20
-0.209144
11
0.0306072
21
-0.209144
0
LINE
8
BLACK
6
CONTINUOUS
10
0.0306072
20
-0.209144
11
0.0304847
21
-0.209111
0
LINE
8
BLACK
6
CONTINUOUS
10
0.0304847
20
-0.209111
11
0.0277358
21
-0.208871
0
LINE
8
BLACK
6
CONTINUOUS
10
0.0277358
20
-0.208871
11
0.0253207
21
-0.20866
0
LINE
8
BLACK
6
CONTINUOUS
10
0.0253207
20
-0.20866
11
0.0250913
21
-0.20863
0
LINE
8
BLACK
6
CONTINUOUS
10
0.0250913
20
-0.20863
11
0.0242192
21
-0.208484
0
LINE
8
BLACK
6
CONTINUOUS
10
0.0242192
20
-0.208484
11
0.0242191
21
-0.208484
0
LINE
8
BLACK
6
CONTINUOUS
10
0.0242191
20
-0.208484
11
0.024108
21
-0.208465
0
LINE
8
BLACK
6
CONTINUOUS
10
0.024108
20
-0.208465
11
0.023865
21
-0.208462
0
LINE
8
BLACK
6
CONTINUOUS
10
0.023865
20
-0.208462
11
0.0237348
21
-0.20846
0
LINE
8
BLACK
6
CONTINUOUS
10
0.0237348
20
-0.20846
11
0.0236221
21
-0.208459
0
LINE
8
BLACK
6
CONTINUOUS
10
0.0236221
20
-0.208459
11
0.0235107
21
-0.208475
0
LINE
8
BLACK
6
CONTINUOUS
10
0.0235107
20
-0.208475
11
0.0224139
21
-0.208632
0
LINE
8
BLACK
6
CONTINUOUS
10
0.0224139
20
-0.208632
11
0.0220008
21
-0.208661
0
LINE
8
BLACK
6
CONTINUOUS
10
0.0220008
20
-0.208661
11
-0.021725
21
-0.208661
0
LINE
8
BLACK
6
CONTINUOUS
10
-0.021725
20
-0.208661
11
-0.0222083
21
-0.208621
0
LINE
8
BLACK
6
CONTINUOUS
10
-0.0222083
20
-0.208621
11
-0.023025
21
-0.208484
0
LINE
8
BLACK
6
CONTINUOUS
10
-0.023025
20
-0.208484
11
-0.023025
21
-0.208484
0
LINE
8
BLACK
6
CONTINUOUS
10
-0.023025
20
-0.208484
11
-0.0231362
21
-0.208465
0
LINE
8
BLACK
6
CONTINUOUS
10
-0.0231362
20
-0.208465
11
-0.0234159
21
-0.208461
0
LINE
8
BLACK
6
CONTINUOUS
10
-0.0234159
20
-0.208461
11
-0.0235094
21
-0.20846
0
LINE
8
BLACK
6
CONTINUOUS
10
-0.0235094
20
-0.20846
11
-0.0236221
21
-0.208459
0
LINE
8
BLACK
6
CONTINUOUS
10
-0.0236221
20
-0.208459
11
-0.0237336
21
-0.208475
0
LINE
8
BLACK
6
CONTINUOUS
10
-0.0237336
20
-0.208475
11
-0.0237338
21
-0.208475
0
LINE
8
BLACK
6
CONTINUOUS
10
-0.0237338
20
-0.208475
11
-0.0244774
21
-0.208581
0
LINE
8
BLACK
6
CONTINUOUS
10
-0.0244774
20
-0.208581
11
-0.024636
21
-0.2086
0
LINE
8
BLACK
6
CONTINUOUS
10
-0.024636
20
-0.2086
11
-0.0304847
21
-0.209111
0
LINE
8
BLACK
6
CONTINUOUS
10
-0.0304847
20
-0.209111
11
-0.0306072
21
-0.209144
0
LINE
8
BLACK
6
CONTINUOUS
10
-0.0306072
20
-0.209144
11
-0.0306073
21
-0.209144
0
LINE
8
BLACK
6
CONTINUOUS
10
-0.0306073
20
-0.209144
11
-0.0355165
21
-0.21046
0
LINE
8
BLACK
6
CONTINUOUS
10
-0.0355165
20
-0.21046
11
-0.0371389
21
-0.210894
0
LINE
8
BLACK
6
CONTINUOUS
10
-0.0371389
20
-0.210894
11
-0.0372538
21
-0.210948
0
LINE
8
BLACK
6
CONTINUOUS
10
-0.0372538
20
-0.210948
11
-0.0372539
21
-0.210948
0
LINE
8
BLACK
6
CONTINUOUS
10
-0.0372539
20
-0.210948
11
-0.043267
21
-0.213752
0
LINE
8
BLACK
6
CONTINUOUS
10
-0.043267
20
-0.213752
11
-0.0432672
21
-0.213752
0
LINE
8
BLACK
6
CONTINUOUS
10
-0.0432672
20
-0.213752
11
-0.0433823
21
-0.213806
0
LINE
8
BLACK
6
CONTINUOUS
10
-0.0433823
20
-0.213806
11
-0.0490253
21
-0.217757
0
LINE
8
BLACK
6
CONTINUOUS
10
-0.0490253
20
-0.217757
11
-0.0538965
21
-0.222628
0
LINE
8
BLACK
6
CONTINUOUS
10
-0.0538965
20
-0.222628
11
-0.0578478
21
-0.228271
0
LINE
8
BLACK
6
CONTINUOUS
10
-0.0578478
20
-0.228271
11
-0.0579014
21
-0.228386
0
LINE
8
BLACK
6
CONTINUOUS
10
-0.0579014
20
-0.228386
11
-0.0579015
21
-0.228387
0
LINE
8
BLACK
6
CONTINUOUS
10
-0.0579015
20
-0.228387
11
-0.0595506
21
-0.231923
0
LINE
8
BLACK
6
CONTINUOUS
10
-0.0595506
20
-0.231923
11
-0.0607591
21
-0.234515
0
LINE
8
BLACK
6
CONTINUOUS
10
-0.0607591
20
-0.234515
11
-0.0625421
21
-0.241169
0
LINE
8
BLACK
6
CONTINUOUS
10
-0.0625421
20
-0.241169
11
-0.0626213
21
-0.242074
0
LINE
8
BLACK
6
CONTINUOUS
10
-0.0626213
20
-0.242074
11
-0.0629939
21
-0.246333
0
LINE
8
BLACK
6
CONTINUOUS
10
-0.0629939
20
-0.246333
11
-0.0630232
21
-0.246562
0
LINE
8
BLACK
6
CONTINUOUS
10
-0.0630232
20
-0.246562
11
-0.0631265
21
-0.247176
0
LINE
8
BLACK
6
CONTINUOUS
10
-0.0631265
20
-0.247176
11
-0.0631886
21
-0.247546
0
LINE
8
BLACK
6
CONTINUOUS
10
-0.0631886
20
-0.247546
11
-0.0631946
21
-0.248031
0
LINE
8
BLACK
6
CONTINUOUS
10
-0.0631946
20
-0.248031
11
-0.0631786
21
-0.248143
0
LINE
8
BLACK
6
CONTINUOUS
10
-0.0631786
20
-0.248143
11
-0.0630215
21
-0.24924
0
LINE
8
BLACK
6
CONTINUOUS
10
-0.0630215
20
-0.24924
11
-0.0629921
21
-0.249653
0
LINE
8
BLACK
6
CONTINUOUS
10
-0.0629921
20
-0.249653
11
-0.0629921
21
-0.301253
0
LINE
8
BLACK
6
CONTINUOUS
10
-0.0629921
20
-0.301253
11
-0.0630325
21
-0.301736
0
LINE
8
BLACK
6
CONTINUOUS
10
-0.0630325
20
-0.301736
11
-0.0631886
21
-0.302664
0
LINE
8
BLACK
6
CONTINUOUS
10
-0.0631886
20
-0.302664
11
-0.0631946
21
-0.30315
0
LINE
8
BLACK
6
CONTINUOUS
10
-0.0631946
20
-0.30315
11
-0.0631786
21
-0.303261
0
LINE
8
BLACK
6
CONTINUOUS
10
-0.0631786
20
-0.303261
11
-0.0631786
21
-0.303261
0
LINE
8
BLACK
6
CONTINUOUS
10
-0.26639
20
-0.0275633
11
-0.265903
21
-0.0256803
0
LINE
8
BLACK
6
CONTINUOUS
10
-0.265903
20
-0.0256803
11
-0.265146
21
-0.0245584
0
LINE
8
BLACK
6
CONTINUOUS
10
-0.265146
20
-0.0245584
11
-0.265088
21
-0.0244726
0
LINE
8
BLACK
6
CONTINUOUS
10
-0.265088
20
-0.0244726
11
-0.26263
21
-0.0193981
0
LINE
8
BLACK
6
CONTINUOUS
10
-0.26263
20
-0.0193981
11
-0.261936
21
-0.0172243
0
LINE
8
BLACK
6
CONTINUOUS
10
-0.261936
20
-0.0172243
11
-0.261415
21
-0.0141288
0
LINE
8
BLACK
6
CONTINUOUS
10
-0.261415
20
-0.0141288
11
-0.26101
21
-0.0117192
0
LINE
8
BLACK
6
CONTINUOUS
10
-0.26101
20
-0.0117192
11
-0.26101
21
-0.011719
0
LINE
8
BLACK
6
CONTINUOUS
10
-0.26101
20
-0.011719
11
-0.261001
21
-0.0116637
0
LINE
8
BLACK
6
CONTINUOUS
10
-0.261001
20
-0.0116637
11
-0.26089
21
-0.0104269
0
LINE
8
BLACK
6
CONTINUOUS
10
-0.26089
20
-0.0104269
11
-0.260884
21
-0.00994098
0
LINE
8
BLACK
6
CONTINUOUS
10
-0.260884
20
-0.00994098
11
-0.260964
21
-0.00870154
0
LINE
8
BLACK
6
CONTINUOUS
10
-0.260964
20
-0.00870154
11
-0.261056
21
-0.00806098
0
LINE
8
BLACK
6
CONTINUOUS
10
-0.261056
20
-0.00806098
11
-0.261086
21
-0.00764799
0
LINE
8
BLACK
6
CONTINUOUS
10
-0.261086
20
-0.00764799
11
-0.261086
21
0.00727307
0
LINE
8
BLACK
6
CONTINUOUS
10
-0.261086
20
0.00727307
11
-0.261045
21
0.00775602
0
LINE
8
BLACK
6
CONTINUOUS
10
-0.261045
20
0.00775602
11
-0.261001
21
0.00802134
0
LINE
8
BLACK
6
CONTINUOUS
10
-0.261001
20
0.00802134
11
-0.26089
21
0.00925815
0
LINE
8
BLACK
6
CONTINUOUS
10
-0.26089
20
0.00925815
11
-0.260884
21
0.00974406
0
LINE
8
BLACK
6
CONTINUOUS
10
-0.260884
20
0.00974406
11
-0.260902
21
0.0100322
0
LINE
8
BLACK
6
CONTINUOUS
10
-0.260902
20
0.0100322
11
-0.260961
21
0.0109278
0
LINE
8
BLACK
6
CONTINUOUS
10
-0.260961
20
0.0109278
11
-0.260964
21
0.0109835
0
LINE
8
BLACK
6
CONTINUOUS
10
-0.260964
20
0.0109835
11
-0.261504
21
0.0147548
0
LINE
8
BLACK
6
CONTINUOUS
10
-0.261504
20
0.0147548
11
-0.261749
21
0.0164628
0
LINE
8
BLACK
6
CONTINUOUS
10
-0.261749
20
0.0164628
11
-0.261749
21
0.016463
0
LINE
8
BLACK
6
CONTINUOUS
10
-0.261749
20
0.016463
11
-0.261764
21
0.0165653
0
LINE
8
BLACK
6
CONTINUOUS
10
-0.261764
20
0.0165653
11
-0.262147
21
0.0178749
0
LINE
8
BLACK
6
CONTINUOUS
10
-0.262147
20
0.0178749
11
-0.262264
21
0.0186926
0
LINE
8
BLACK
6
CONTINUOUS
10
-0.262264
20
0.0186926
11
-0.262264
21
0.0817554
0
LINE
8
BLACK
6
CONTINUOUS
10
-0.262264
20
0.0817554
11
-0.261582
21
0.0836281
0
LINE
8
BLACK
6
CONTINUOUS
10
-0.261582
20
0.0836281
11
-0.261124
21
0.0840667
0
LINE
8
BLACK
6
CONTINUOUS
10
-0.261124
20
0.0840667
11
-0.260377
21
0.0846402
0
LINE
8
BLACK
6
CONTINUOUS
10
-0.260377
20
0.0846402
11
-0.260377
21
0.0846402
0
LINE
8
BLACK
6
CONTINUOUS
10
-0.260377
20
0.0846402
11
-0.260225
21
0.0847565
0
LINE
8
BLACK
6
CONTINUOUS
10
-0.260225
20
0.0847565
11
-0.259285
21
0.0859817
0
LINE
8
BLACK
6
CONTINUOUS
10
-0.259285
20
0.0859817
11
-0.256552
21
0.0895436
0
LINE
8
BLACK
6
CONTINUOUS
10
-0.256552
20
0.0895436
11
-0.256552
21
0.0895437
0
LINE
8
BLACK
6
CONTINUOUS
10
-0.256552
20
0.0895437
11
-0.256436
21
0.0896951
0
LINE
8
BLACK
6
CONTINUOUS
10
-0.256436
20
0.0896951
11
-0.25641
21
0.0897572
0
LINE
8
BLACK
6
CONTINUOUS
10
-0.25641
20
0.0897572
11
-0.254053
21
0.0954462
0
LINE
8
BLACK
6
CONTINUOUS
10
-0.254053
20
0.0954462
11
-0.253241
21
0.101618
0
LINE
8
BLACK
6
CONTINUOUS
10
-0.253241
20
0.101618
11
-0.254053
21
0.10779
0
LINE
8
BLACK
6
CONTINUOUS
10
-0.254053
20
0.10779
11
-0.255119
21
0.110362
0
LINE
8
BLACK
6
CONTINUOUS
10
-0.255119
20
0.110362
11
-0.256436
21
0.113541
0
LINE
8
BLACK
6
CONTINUOUS
10
-0.256436
20
0.113541
11
-0.256552
21
0.113692
0
LINE
8
BLACK
6
CONTINUOUS
10
-0.256552
20
0.113692
11
-0.256552
21
0.113692
0
LINE
8
BLACK
6
CONTINUOUS
10
-0.256552
20
0.113692
11
-0.260109
21
0.118328
0
LINE
8
BLACK
6
CONTINUOUS
10
-0.260109
20
0.118328
11
-0.260225
21
0.118479
0
LINE
8
BLACK
6
CONTINUOUS
10
-0.260225
20
0.118479
11
-0.260425
21
0.118633
0
LINE
8
BLACK
6
CONTINUOUS
10
-0.260425
20
0.118633
11
-0.265012
21
0.122153
0
LINE
8
BLACK
6
CONTINUOUS
10
-0.265012
20
0.122153
11
-0.265012
21
0.122153
0
LINE
8
BLACK
6
CONTINUOUS
10
-0.265012
20
0.122153
11
-0.265164
21
0.122269
0
LINE
8
BLACK
6
CONTINUOUS
10
-0.265164
20
0.122269
11
-0.270915
21
0.124651
0
LINE
8
BLACK
6
CONTINUOUS
10
-0.270915
20
0.124651
11
-0.271104
21
0.124676
0
LINE
8
BLACK
6
CONTINUOUS
10
-0.271104
20
0.124676
11
-0.271104
21
0.124676
0
LINE
8
BLACK
6
CONTINUOUS
10
-0.271104
20
0.124676
11
-0.276897
21
0.125439
0
LINE
8
BLACK
6
CONTINUOUS
10
-0.276897
20
0.125439
11
-0.277087
21
0.125464
0
LINE
8
BLACK
6
CONTINUOUS
10
-0.277087
20
0.125464
11
-0.277276
21
0.125439
0
LINE
8
BLACK
6
CONTINUOUS
10
-0.277276
20
0.125439
11
-0.283069
21
0.124676
0
LINE
8
BLACK
6
CONTINUOUS
10
-0.283069
20
0.124676
11
-0.283069
21
0.124676
0
LINE
8
BLACK
6
CONTINUOUS
10
-0.283069
20
0.124676
11
-0.283258
21
0.124651
0
LINE
8
BLACK
6
CONTINUOUS
10
-0.283258
20
0.124651
11
-0.289009
21
0.122269
0
LINE
8
BLACK
6
CONTINUOUS
10
-0.289009
20
0.122269
11
-0.289161
21
0.122153
0
LINE
8
BLACK
6
CONTINUOUS
10
-0.289161
20
0.122153
11
-0.289161
21
0.122153
0
LINE
8
BLACK
6
CONTINUOUS
10
-0.289161
20
0.122153
11
-0.293748
21
0.118633
0
LINE
8
BLACK
6
CONTINUOUS
10
-0.293748
20
0.118633
11
-0.293948
21
0.118479
0
LINE
8
BLACK
6
CONTINUOUS
10
-0.293948
20
0.118479
11
-0.294064
21
0.118328
0
LINE
8
BLACK
6
CONTINUOUS
10
-0.294064
20
0.118328
11
-0.297621
21
0.113692
0
LINE
8
BLACK
6
CONTINUOUS
10
-0.297621
20
0.113692
11
-0.297621
21
0.113692
0
LINE
8
BLACK
6
CONTINUOUS
10
-0.297621
20
0.113692
11
-0.297738
21
0.113541
0
LINE
8
BLACK
6
CONTINUOUS
10
-0.297738
20
0.113541
11
-0.30012
21
0.10779
0
LINE
8
BLACK
6
CONTINUOUS
10
-0.30012
20
0.10779
11
-0.300932
21
0.101618
0
LINE
8
BLACK
6
CONTINUOUS
10
-0.300932
20
0.101618
11
-0.30012
21
0.0954462
0
LINE
8
BLACK
6
CONTINUOUS
10
-0.30012
20
0.0954462
11
-0.300047
21
0.0952699
0
LINE
8
BLACK
6
CONTINUOUS
10
-0.300047
20
0.0952699
11
-0.297958
21
0.090227
0
LINE
8
BLACK
6
CONTINUOUS
10
-0.297958
20
0.090227
11
-0.297736
21
0.0891121
0
LINE
8
BLACK
6
CONTINUOUS
10
-0.297736
20
0.0891121
11
-0.297736
21
0.0404893
0
LINE
8
BLACK
6
CONTINUOUS
10
-0.297736
20
0.0404893
11
-0.298418
21
0.0386166
0
LINE
8
BLACK
6
CONTINUOUS
10
-0.298418
20
0.0386166
11
-0.300144
21
0.0376202
0
LINE
8
BLACK
6
CONTINUOUS
10
-0.300144
20
0.0376202
11
-0.30065
21
0.0375759
0
LINE
8
BLACK
6
CONTINUOUS
10
-0.30065
20
0.0375759
11
-0.310472
21
0.0375759
0
LINE
8
BLACK
6
CONTINUOUS
10
-0.310472
20
0.0375759
11
-0.310613
21
0.037548
0
LINE
8
BLACK
6
CONTINUOUS
10
-0.310613
20
0.037548
11
-0.310613
21
0.037548
0
LINE
8
BLACK
6
CONTINUOUS
10
-0.310613
20
0.037548
11
-0.311181
21
0.037435
0
LINE
8
BLACK
6
CONTINUOUS
10
-0.311181
20
0.037435
11
-0.313552
21
0.0369633
0
LINE
8
BLACK
6
CONTINUOUS
10
-0.313552
20
0.0369633
11
-0.313791
21
0.0368038
0
LINE
8
BLACK
6
CONTINUOUS
10
-0.313791
20
0.0368038
11
-0.314056
21
0.036694
0
LINE
8
BLACK
6
CONTINUOUS
10
-0.314056
20
0.036694
11
-0.314076
21
0.0367409
0
LINE
8
BLACK
6
CONTINUOUS
10
-0.314076
20
0.0367409
11
-0.315711
21
0.0363408
0
LINE
8
BLACK
6
CONTINUOUS
10
-0.315711
20
0.0363408
11
-0.316725
21
0.0367098
0
LINE
8
BLACK
6
CONTINUOUS
10
-0.316725
20
0.0367098
11
-0.316731
21
0.036694
0
LINE
8
BLACK
6
CONTINUOUS
10
-0.316731
20
0.036694
11
-0.316996
21
0.0368038
0
LINE
8
BLACK
6
CONTINUOUS
10
-0.316996
20
0.0368038
11
-0.317235
21
0.0369633
0
LINE
8
BLACK
6
CONTINUOUS
10
-0.317235
20
0.0369633
11
-0.318988
21
0.037312
0
LINE
8
BLACK
6
CONTINUOUS
10
-0.318988
20
0.037312
11
-0.319397
21
0.0373933
0
LINE
8
BLACK
6
CONTINUOUS
10
-0.319397
20
0.0373933
11
-0.319397
21
0.0373933
0
LINE
8
BLACK
6
CONTINUOUS
10
-0.319397
20
0.0373933
11
-0.319537
21
0.0374213
0
LINE
8
BLACK
6
CONTINUOUS
10
-0.319537
20
0.0374213
11
-0.360463
21
0.0374213
0
LINE
8
BLACK
6
CONTINUOUS
10
-0.360463
20
0.0374213
11
-0.360603
21
0.0373933
0
LINE
8
BLACK
6
CONTINUOUS
10
-0.360603
20
0.0373933
11
-0.360603
21
0.0373933
0
LINE
8
BLACK
6
CONTINUOUS
10
-0.360603
20
0.0373933
11
-0.361012
21
0.037312
0
LINE
8
BLACK
6
CONTINUOUS
10
-0.361012
20
0.037312
11
-0.362765
21
0.0369633
0
LINE
8
BLACK
6
CONTINUOUS
10
-0.362765
20
0.0369633
11
-0.363004
21
0.0368038
0
LINE
8
BLACK
6
CONTINUOUS
10
-0.363004
20
0.0368038
11
-0.363004
21
0.0368038
0
LINE
8
BLACK
6
CONTINUOUS
10
-0.363004
20
0.0368038
11
-0.364606
21
0.0357329
0
LINE
8
BLACK
6
CONTINUOUS
10
-0.364606
20
0.0357329
11
-0.365376
21
0.0352186
0
LINE
8
BLACK
6
CONTINUOUS
10
-0.365376
20
0.0352186
11
-0.365536
21
0.03498
0
LINE
8
BLACK
6
CONTINUOUS
10
-0.365536
20
0.03498
11
-0.366885
21
0.0329602
0
LINE
8
BLACK
6
CONTINUOUS
10
-0.366885
20
0.0329602
11
-0.367121
21
0.0326075
0
LINE
8
BLACK
6
CONTINUOUS
10
-0.367121
20
0.0326075
11
-0.367579
21
0.030305
0
LINE
8
BLACK
6
CONTINUOUS
10
-0.367579
20
0.030305
11
-0.367579
21
0.0225984
0
LINE
8
BLACK
6
CONTINUOUS
10
-0.367579
20
0.0225984
11
-0.36826
21
0.0207257
0
LINE
8
BLACK
6
CONTINUOUS
10
-0.36826
20
0.0207257
11
-0.369528
21
0.0199941
0
LINE
8
BLACK
6
CONTINUOUS
10
-0.369528
20
0.0199941
11
-0.369528
21
0.011811
0
LINE
8
BLACK
6
CONTINUOUS
10
-0.369528
20
0.011811
11
-0.359685
21
0.011811
0
LINE
8
BLACK
6
CONTINUOUS
10
-0.359685
20
0.011811
11
-0.359685
21
0.0295276
0
LINE
8
BLACK
6
CONTINUOUS
10
-0.359685
20
0.0295276
11
-0.320315
21
0.0295276
0
LINE
8
BLACK
6
CONTINUOUS
10
-0.320315
20
0.0295276
11
-0.320315
21
-0.0295276
0
LINE
8
BLACK
6
CONTINUOUS
10
-0.320315
20
-0.0295276
11
-0.359685
21
-0.0295276
0
LINE
8
BLACK
6
CONTINUOUS
10
-0.359685
20
-0.0295276
11
-0.359685
21
-0.011811
0
LINE
8
BLACK
6
CONTINUOUS
10
-0.359685
20
-0.011811
11
-0.369528
21
-0.011811
0
LINE
8
BLACK
6
CONTINUOUS
10
-0.369528
20
-0.011811
11
-0.369528
21
-0.0200361
0
LINE
8
BLACK
6
CONTINUOUS
10
-0.369528
20
-0.0200361
11
-0.368619
21
-0.0203667
0
LINE
8
BLACK
6
CONTINUOUS
10
-0.368619
20
-0.0203667
11
-0.367623
21
-0.0220925
0
LINE
8
BLACK
6
CONTINUOUS
10
-0.367623
20
-0.0220925
11
-0.367579
21
-0.0225984
0
LINE
8
BLACK
6
CONTINUOUS
10
-0.367579
20
-0.0225984
11
-0.367579
21
-0.030305
0
LINE
8
BLACK
6
CONTINUOUS
10
-0.367579
20
-0.030305
11
-0.367121
21
-0.0326075
0
LINE
8
BLACK
6
CONTINUOUS
10
-0.367121
20
-0.0326075
11
-0.365376
21
-0.0352186
0
LINE
8
BLACK
6
CONTINUOUS
10
-0.365376
20
-0.0352186
11
-0.365137
21
-0.035378
0
LINE
8
BLACK
6
CONTINUOUS
10
-0.365137
20
-0.035378
11
-0.363098
21
-0.0367409
0
LINE
8
BLACK
6
CONTINUOUS
10
-0.363098
20
-0.0367409
11
-0.362765
21
-0.0369633
0
LINE
8
BLACK
6
CONTINUOUS
10
-0.362765
20
-0.0369633
11
-0.361012
21
-0.037312
0
LINE
8
BLACK
6
CONTINUOUS
10
-0.361012
20
-0.037312
11
-0.360603
21
-0.0373933
0
LINE
8
BLACK
6
CONTINUOUS
10
-0.360603
20
-0.0373933
11
-0.360603
21
-0.0373933
0
LINE
8
BLACK
6
CONTINUOUS
10
-0.360603
20
-0.0373933
11
-0.360463
21
-0.0374213
0
LINE
8
BLACK
6
CONTINUOUS
10
-0.360463
20
-0.0374213
11
-0.319537
21
-0.0374213
0
LINE
8
BLACK
6
CONTINUOUS
10
-0.319537
20
-0.0374213
11
-0.319397
21
-0.0373933
0
LINE
8
BLACK
6
CONTINUOUS
10
-0.319397
20
-0.0373933
11
-0.319397
21
-0.0373933
0
LINE
8
BLACK
6
CONTINUOUS
10
-0.319397
20
-0.0373933
11
-0.318988
21
-0.037312
0
LINE
8
BLACK
6
CONTINUOUS
10
-0.318988
20
-0.037312
11
-0.317235
21
-0.0369633
0
LINE
8
BLACK
6
CONTINUOUS
10
-0.317235
20
-0.0369633
11
-0.316996
21
-0.0368038
0
LINE
8
BLACK
6
CONTINUOUS
10
-0.316996
20
-0.0368038
11
-0.316731
21
-0.036694
0
LINE
8
BLACK
6
CONTINUOUS
10
-0.316731
20
-0.036694
11
-0.316712
21
-0.0367409
0
LINE
8
BLACK
6
CONTINUOUS
10
-0.316712
20
-0.0367409
11
-0.315076
21
-0.0363408
0
LINE
8
BLACK
6
CONTINUOUS
10
-0.315076
20
-0.0363408
11
-0.314063
21
-0.0367098
0
LINE
8
BLACK
6
CONTINUOUS
10
-0.314063
20
-0.0367098
11
-0.314056
21
-0.036694
0
LINE
8
BLACK
6
CONTINUOUS
10
-0.314056
20
-0.036694
11
-0.313791
21
-0.0368038
0
LINE
8
BLACK
6
CONTINUOUS
10
-0.313791
20
-0.0368038
11
-0.313552
21
-0.0369633
0
LINE
8
BLACK
6
CONTINUOUS
10
-0.313552
20
-0.0369633
11
-0.311181
21
-0.037435
0
LINE
8
BLACK
6
CONTINUOUS
10
-0.311181
20
-0.037435
11
-0.310613
21
-0.037548
0
LINE
8
BLACK
6
CONTINUOUS
10
-0.310613
20
-0.037548
11
-0.310613
21
-0.037548
0
LINE
8
BLACK
6
CONTINUOUS
10
-0.310613
20
-0.037548
11
-0.310472
21
-0.0375759
0
LINE
8
BLACK
6
CONTINUOUS
10
-0.310472
20
-0.0375759
11
-0.307257
21
-0.0375759
0
LINE
8
BLACK
6
CONTINUOUS
10
-0.307257
20
-0.0375759
11
-0.305385
21
-0.0382575
0
LINE
8
BLACK
6
CONTINUOUS
10
-0.305385
20
-0.0382575
11
-0.304631
21
-0.0392282
0
LINE
8
BLACK
6
CONTINUOUS
10
-0.304631
20
-0.0392282
11
-0.303654
21
-0.041263
0
LINE
8
BLACK
6
CONTINUOUS
10
-0.303654
20
-0.041263
11
-0.30351
21
-0.0414182
0
LINE
8
BLACK
6
CONTINUOUS
10
-0.30351
20
-0.0414182
11
-0.303489
21
-0.041454
0
LINE
8
BLACK
6
CONTINUOUS
10
-0.303489
20
-0.041454
11
-0.303406
21
-0.0415765
0
LINE
8
BLACK
6
CONTINUOUS
10
-0.303406
20
-0.0415765
11
-0.30333
21
-0.0417239
0
LINE
8
BLACK
6
CONTINUOUS
10
-0.30333
20
-0.0417239
11
-0.30316
21
-0.0419224
0
LINE
8
BLACK
6
CONTINUOUS
10
-0.30316
20
-0.0419224
11
-0.301666
21
-0.0434172
0
LINE
8
BLACK
6
CONTINUOUS
10
-0.301666
20
-0.0434172
11
-0.301586
21
-0.0434997
0
LINE
8
BLACK
6
CONTINUOUS
10
-0.301586
20
-0.0434997
11
-0.300034
21
-0.0451794
0
LINE
8
BLACK
6
CONTINUOUS
10
-0.300034
20
-0.0451794
11
-0.299845
21
-0.0452887
0
LINE
8
BLACK
6
CONTINUOUS
10
-0.299845
20
-0.0452887
11
-0.299713
21
-0.0453949
0
LINE
8
BLACK
6
CONTINUOUS
10
-0.299713
20
-0.0453949
11
-0.299474
21
-0.0456085
0
LINE
8
BLACK
6
CONTINUOUS
10
-0.299474
20
-0.0456085
11
-0.153409
21
-0.191674
0
LINE
8
BLACK
6
CONTINUOUS
10
-0.153409
20
-0.191674
11
-0.153181
21
-0.191931
0
LINE
8
BLACK
6
CONTINUOUS
10
-0.153181
20
-0.191931
11
-0.152278
21
-0.193075
0
LINE
8
BLACK
6
CONTINUOUS
10
-0.152278
20
-0.193075
11
-0.152099
21
-0.193199
0
LINE
8
BLACK
6
CONTINUOUS
10
-0.152099
20
-0.193199
11
-0.152099
21
-0.193199
0
LINE
8
BLACK
6
CONTINUOUS
10
-0.152099
20
-0.193199
11
-0.150352
21
-0.194407
0
LINE
8
BLACK
6
CONTINUOUS
10
-0.150352
20
-0.194407
11
-0.150278
21
-0.19446
0
LINE
8
BLACK
6
CONTINUOUS
10
-0.150278
20
-0.19446
11
-0.148568
21
-0.195722
0
LINE
8
BLACK
6
CONTINUOUS
10
-0.148568
20
-0.195722
11
-0.148568
21
-0.195722
0
LINE
8
BLACK
6
CONTINUOUS
10
-0.148568
20
-0.195722
11
-0.148393
21
-0.195852
0
LINE
8
BLACK
6
CONTINUOUS
10
-0.148393
20
-0.195852
11
-0.148194
21
-0.195922
0
LINE
8
BLACK
6
CONTINUOUS
10
-0.148194
20
-0.195922
11
-0.148182
21
-0.195929
0
LINE
8
BLACK
6
CONTINUOUS
10
-0.148182
20
-0.195929
11
-0.148171
21
-0.195934
0
LINE
8
BLACK
6
CONTINUOUS
10
-0.148171
20
-0.195934
11
-0.14809
21
-0.195975
0
LINE
8
BLACK
6
CONTINUOUS
10
-0.14809
20
-0.195975
11
-0.148078
21
-0.195982
0
LINE
8
BLACK
6
CONTINUOUS
10
-0.148078
20
-0.195982
11
-0.148065
21
-0.195987
0
LINE
8
BLACK
6
CONTINUOUS
10
-0.148065
20
-0.195987
11
-0.147891
21
-0.196108
0
LINE
8
BLACK
6
CONTINUOUS
10
-0.147891
20
-0.196108
11
-0.146302
21
-0.19661
0
LINE
8
BLACK
6
CONTINUOUS
10
-0.146302
20
-0.19661
11
-0.145659
21
-0.196814
0
LINE
8
BLACK
6
CONTINUOUS
10
-0.145659
20
-0.196814
11
-0.145572
21
-0.196842
0
LINE
8
BLACK
6
CONTINUOUS
10
-0.145572
20
-0.196842
11
-0.143567
21
-0.197547
0
LINE
8
BLACK
6
CONTINUOUS
10
-0.143567
20
-0.197547
11
-0.143361
21
-0.197619
0
LINE
8
BLACK
6
CONTINUOUS
10
-0.143361
20
-0.197619
11
-0.14315
21
-0.197627
0
LINE
8
BLACK
6
CONTINUOUS
10
-0.14315
20
-0.197627
11
-0.14311
21
-0.197637
0
LINE
8
BLACK
6
CONTINUOUS
10
-0.14311
20
-0.197637
11
-0.142964
21
-0.197666
0
LINE
8
BLACK
6
CONTINUOUS
10
-0.142964
20
-0.197666
11
-0.142806
21
-0.197716
0
LINE
8
BLACK
6
CONTINUOUS
10
-0.142806
20
-0.197716
11
-0.142546
21
-0.197736
0
LINE
8
BLACK
6
CONTINUOUS
10
-0.142546
20
-0.197736
11
-0.140432
21
-0.197736
0
LINE
8
BLACK
6
CONTINUOUS
10
-0.140432
20
-0.197736
11
-0.140317
21
-0.197738
0
LINE
8
BLACK
6
CONTINUOUS
10
-0.140317
20
-0.197738
11
-0.138249
21
-0.19782
0
LINE
8
BLACK
6
CONTINUOUS
10
-0.138249
20
-0.19782
11
-0.138249
21
-0.19782
0
LINE
8
BLACK
6
CONTINUOUS
10
-0.138249
20
-0.19782
11
-0.138032
21
-0.197828
0
LINE
8
BLACK
6
CONTINUOUS
10
-0.138032
20
-0.197828
11
-0.137821
21
-0.197772
0
LINE
8
BLACK
6
CONTINUOUS
10
-0.137821
20
-0.197772
11
-0.137653
21
-0.197754
0
LINE
8
BLACK
6
CONTINUOUS
10
-0.137653
20
-0.197754
11
-0.137333
21
-0.197736
0
LINE
8
BLACK
6
CONTINUOUS
10
-0.137333
20
-0.197736
11
0.0714467
21
-0.197736
0
LINE
8
BLACK
6
CONTINUOUS
10
0.0714467
20
-0.197736
11
0.0733193
21
-0.198418
0
LINE
8
BLACK
6
CONTINUOUS
10
0.0733193
20
-0.198418
11
0.0735067
21
-0.19859
0
LINE
8
BLACK
6
CONTINUOUS
10
0.0735067
20
-0.19859
11
0.0956425
21
-0.220725
0
LINE
8
BLACK
6
CONTINUOUS
10
0.0956425
20
-0.220725
11
0.0964709
21
-0.222405
0
LINE
8
BLACK
6
CONTINUOUS
10
0.0964709
20
-0.222405
11
0.0969668
21
-0.226172
0
LINE
8
BLACK
6
CONTINUOUS
10
0.0969668
20
-0.226172
11
0.099349
21
-0.231923
0
LINE
8
BLACK
6
CONTINUOUS
10
0.099349
20
-0.231923
11
0.0994651
21
-0.232074
0
LINE
8
BLACK
6
CONTINUOUS
10
0.0994651
20
-0.232074
11
0.0994652
21
-0.232074
0
LINE
8
BLACK
6
CONTINUOUS
10
0.0994652
20
-0.232074
11
0.103022
21
-0.23671
0
LINE
8
BLACK
6
CONTINUOUS
10
0.103022
20
-0.23671
11
0.103139
21
-0.236861
0
LINE
8
BLACK
6
CONTINUOUS
10
0.103139
20
-0.236861
11
0.10329
21
-0.236978
0
LINE
8
BLACK
6
CONTINUOUS
10
0.10329
20
-0.236978
11
0.107926
21
-0.240535
0
LINE
8
BLACK
6
CONTINUOUS
10
0.107926
20
-0.240535
11
0.107926
21
-0.240535
0
LINE
8
BLACK
6
CONTINUOUS
10
0.107926
20
-0.240535
11
0.108077
21
-0.240651
0
LINE
8
BLACK
6
CONTINUOUS
10
0.108077
20
-0.240651
11
0.113828
21
-0.243033
0
LINE
8
BLACK
6
CONTINUOUS
10
0.113828
20
-0.243033
11
0.114017
21
-0.243058
0
LINE
8
BLACK
6
CONTINUOUS
10
0.114017
20
-0.243058
11
0.114017
21
-0.243058
0
LINE
8
BLACK
6
CONTINUOUS
10
0.114017
20
-0.243058
11
0.119811
21
-0.243821
0
LINE
8
BLACK
6
CONTINUOUS
10
0.119811
20
-0.243821
11
0.12
21
-0.243846
0
LINE
8
BLACK
6
CONTINUOUS
10
0.12
20
-0.243846
11
0.120189
21
-0.243821
0
LINE
8
BLACK
6
CONTINUOUS
10
0.120189
20
-0.243821
11
0.125983
21
-0.243058
0
LINE
8
BLACK
6
CONTINUOUS
10
0.125983
20
-0.243058
11
0.125983
21
-0.243058
0
LINE
8
BLACK
6
CONTINUOUS
10
0.125983
20
-0.243058
11
0.126172
21
-0.243033
0
LINE
8
BLACK
6
CONTINUOUS
10
0.126172
20
-0.243033
11
0.131923
21
-0.240651
0
LINE
8
BLACK
6
CONTINUOUS
10
0.131923
20
-0.240651
11
0.132074
21
-0.240535
0
LINE
8
BLACK
6
CONTINUOUS
10
0.132074
20
-0.240535
11
0.132074
21
-0.240535
0
LINE
8
BLACK
6
CONTINUOUS
10
0.132074
20
-0.240535
11
0.13671
21
-0.236978
0
LINE
8
BLACK
6
CONTINUOUS
10
0.13671
20
-0.236978
11
0.136861
21
-0.236861
0
LINE
8
BLACK
6
CONTINUOUS
10
0.136861
20
-0.236861
11
0.136978
21
-0.23671
0
LINE
8
BLACK
6
CONTINUOUS
10
0.136978
20
-0.23671
11
0.140535
21
-0.232074
0
LINE
8
BLACK
6
CONTINUOUS
10
0.140535
20
-0.232074
11
0.140535
21
-0.232074
0
LINE
8
BLACK
6
CONTINUOUS
10
0.140535
20
-0.232074
11
0.140651
21
-0.231923
0
LINE
8
BLACK
6
CONTINUOUS
10
0.140651
20
-0.231923
11
0.143033
21
-0.226172
0
LINE
8
BLACK
6
CONTINUOUS
10
0.143033
20
-0.226172
11
0.143342
21
-0.223828
0
LINE
8
BLACK
6
CONTINUOUS
10
0.143342
20
-0.223828
11
0.143821
21
-0.220189
0
LINE
8
BLACK
6
CONTINUOUS
10
0.143821
20
-0.220189
11
0.143846
21
-0.22
0
LINE
8
BLACK
6
CONTINUOUS
10
0.143846
20
-0.22
11
0.143593
21
-0.218077
0
LINE
8
BLACK
6
CONTINUOUS
10
0.143593
20
-0.218077
11
0.143058
21
-0.214017
0
LINE
8
BLACK
6
CONTINUOUS
10
0.143058
20
-0.214017
11
0.143058
21
-0.214017
0
LINE
8
BLACK
6
CONTINUOUS
10
0.143058
20
-0.214017
11
0.143033
21
-0.213828
0
LINE
8
BLACK
6
CONTINUOUS
10
0.143033
20
-0.213828
11
0.140651
21
-0.208077
0
LINE
8
BLACK
6
CONTINUOUS
10
0.140651
20
-0.208077
11
0.140535
21
-0.207926
0
LINE
8
BLACK
6
CONTINUOUS
10
0.140535
20
-0.207926
11
0.140535
21
-0.207926
0
LINE
8
BLACK
6
CONTINUOUS
10
0.140535
20
-0.207926
11
0.136978
21
-0.20329
0
LINE
8
BLACK
6
CONTINUOUS
10
0.136978
20
-0.20329
11
0.136861
21
-0.203139
0
LINE
8
BLACK
6
CONTINUOUS
10
0.136861
20
-0.203139
11
0.13671
21
-0.203022
0
LINE
8
BLACK
6
CONTINUOUS
10
0.13671
20
-0.203022
11
0.132074
21
-0.199465
0
LINE
8
BLACK
6
CONTINUOUS
10
0.132074
20
-0.199465
11
0.132074
21
-0.199465
0
LINE
8
BLACK
6
CONTINUOUS
10
0.132074
20
-0.199465
11
0.131923
21
-0.199349
0
LINE
8
BLACK
6
CONTINUOUS
10
0.131923
20
-0.199349
11
0.126172
21
-0.196967
0
LINE
8
BLACK
6
CONTINUOUS
10
0.126172
20
-0.196967
11
0.125983
21
-0.196942
0
LINE
8
BLACK
6
CONTINUOUS
10
0.125983
20
-0.196942
11
0.125983
21
-0.196942
0
LINE
8
BLACK
6
CONTINUOUS
10
0.125983
20
-0.196942
11
0.123736
21
-0.196646
0
LINE
8
BLACK
6
CONTINUOUS
10
0.123736
20
-0.196646
11
0.122405
21
-0.196471
0
LINE
8
BLACK
6
CONTINUOUS
10
0.122405
20
-0.196471
11
0.120725
21
-0.195643
0
LINE
8
BLACK
6
CONTINUOUS
10
0.120725
20
-0.195643
11
0.0934085
21
-0.168326
0
LINE
8
BLACK
6
CONTINUOUS
10
0.0934085
20
-0.168326
11
0.0931807
21
-0.168069
0
LINE
8
BLACK
6
CONTINUOUS
10
0.0931807
20
-0.168069
11
0.0924133
21
-0.167096
0
LINE
8
BLACK
6
CONTINUOUS
10
0.0924133
20
-0.167096
11
0.0924132
21
-0.167096
0
LINE
8
BLACK
6
CONTINUOUS
10
0.0924132
20
-0.167096
11
0.0922784
21
-0.166925
0
LINE
8
BLACK
6
CONTINUOUS
10
0.0922784
20
-0.166925
11
0.0903521
21
-0.165593
0
LINE
8
BLACK
6
CONTINUOUS
10
0.0903521
20
-0.165593
11
0.0902776
21
-0.16554
0
LINE
8
BLACK
6
CONTINUOUS
10
0.0902776
20
-0.16554
11
0.0885683
21
-0.164278
0
LINE
8
BLACK
6
CONTINUOUS
10
0.0885683
20
-0.164278
11
0.0885681
21
-0.164278
0
LINE
8
BLACK
6
CONTINUOUS
10
0.0885681
20
-0.164278
11
0.0883931
21
-0.164148
0
LINE
8
BLACK
6
CONTINUOUS
10
0.0883931
20
-0.164148
11
0.0881936
21
-0.164078
0
LINE
8
BLACK
6
CONTINUOUS
10
0.0881936
20
-0.164078
11
0.0881817
21
-0.164071
0
LINE
8
BLACK
6
CONTINUOUS
10
0.0881817
20
-0.164071
11
0.0881715
21
-0.164066
0
LINE
8
BLACK
6
CONTINUOUS
10
0.0881715
20
-0.164066
11
0.0880903
21
-0.164025
0
LINE
8
BLACK
6
CONTINUOUS
10
0.0880903
20
-0.164025
11
0.0880783
21
-0.164018
0
LINE
8
BLACK
6
CONTINUOUS
10
0.0880783
20
-0.164018
11
0.0880648
21
-0.164013
0
LINE
8
BLACK
6
CONTINUOUS
10
0.0880648
20
-0.164013
11
0.087891
21
-0.163892
0
LINE
8
BLACK
6
CONTINUOUS
10
0.087891
20
-0.163892
11
0.0856587
21
-0.163186
0
LINE
8
BLACK
6
CONTINUOUS
10
0.0856587
20
-0.163186
11
0.085572
21
-0.163158
0
LINE
8
BLACK
6
CONTINUOUS
10
0.085572
20
-0.163158
11
0.0835666
21
-0.162453
0
LINE
8
BLACK
6
CONTINUOUS
10
0.0835666
20
-0.162453
11
0.0835666
21
-0.162453
0
LINE
8
BLACK
6
CONTINUOUS
10
0.0835666
20
-0.162453
11
0.083361
21
-0.162381
0
LINE
8
BLACK
6
CONTINUOUS
10
0.083361
20
-0.162381
11
0.0831498
21
-0.162373
0
LINE
8
BLACK
6
CONTINUOUS
10
0.0831498
20
-0.162373
11
0.0831097
21
-0.162363
0
LINE
8
BLACK
6
CONTINUOUS
10
0.0831097
20
-0.162363
11
0.0829644
21
-0.162334
0
LINE
8
BLACK
6
CONTINUOUS
10
0.0829644
20
-0.162334
11
0.0828059
21
-0.162284
0
LINE
8
BLACK
6
CONTINUOUS
10
0.0828059
20
-0.162284
11
0.0825458
21
-0.162264
0
LINE
8
BLACK
6
CONTINUOUS
10
0.0825458
20
-0.162264
11
0.0804315
21
-0.162264
0
LINE
8
BLACK
6
CONTINUOUS
10
0.0804315
20
-0.162264
11
0.0803171
21
-0.162262
0
LINE
8
BLACK
6
CONTINUOUS
10
0.0803171
20
-0.162262
11
0.0782492
21
-0.16218
0
LINE
8
BLACK
6
CONTINUOUS
10
0.0782492
20
-0.16218
11
0.0780317
21
-0.162172
0
LINE
8
BLACK
6
CONTINUOUS
10
0.0780317
20
-0.162172
11
0.0778214
21
-0.162227
0
LINE
8
BLACK
6
CONTINUOUS
10
0.0778214
20
-0.162227
11
0.0776521
21
-0.162246
0
LINE
8
BLACK
6
CONTINUOUS
10
0.0776521
20
-0.162246
11
0.0773325
21
-0.162264
0
LINE
8
BLACK
6
CONTINUOUS
10
0.0773325
20
-0.162264
11
-0.131447
21
-0.162264
0
LINE
8
BLACK
6
CONTINUOUS
10
-0.131447
20
-0.162264
11
-0.133319
21
-0.161582
0
LINE
8
BLACK
6
CONTINUOUS
10
-0.133319
20
-0.161582
11
-0.133507
21
-0.16141
0
LINE
8
BLACK
6
CONTINUOUS
10
-0.133507
20
-0.16141
11
-0.265548
21
-0.0293695
0
LINE
8
BLACK
6
CONTINUOUS
10
-0.265548
20
-0.0293695
11
-0.26639
21
-0.0275633
0
LINE
8
BLACK
6
CONTINUOUS
10
0.185844
20
-0.139156
11
0.188455
21
-0.1409
0
LINE
8
BLACK
6
CONTINUOUS
10
0.188455
20
-0.1409
11
0.190208
21
-0.141249
0
LINE
8
BLACK
6
CONTINUOUS
10
0.190208
20
-0.141249
11
0.190617
21
-0.14133
0
LINE
8
BLACK
6
CONTINUOUS
10
0.190617
20
-0.14133
11
0.190617
21
-0.14133
0
LINE
8
BLACK
6
CONTINUOUS
10
0.190617
20
-0.14133
11
0.190758
21
-0.141358
0
LINE
8
BLACK
6
CONTINUOUS
10
0.190758
20
-0.141358
11
0.259242
21
-0.141358
0
LINE
8
BLACK
6
CONTINUOUS
10
0.259242
20
-0.141358
11
0.259383
21
-0.14133
0
LINE
8
BLACK
6
CONTINUOUS
10
0.259383
20
-0.14133
11
0.259383
21
-0.14133
0
LINE
8
BLACK
6
CONTINUOUS
10
0.259383
20
-0.14133
11
0.259792
21
-0.141249
0
LINE
8
BLACK
6
CONTINUOUS
10
0.259792
20
-0.141249
11
0.261545
21
-0.1409
0
LINE
8
BLACK
6
CONTINUOUS
10
0.261545
20
-0.1409
11
0.264156
21
-0.139156
0
LINE
8
BLACK
6
CONTINUOUS
10
0.264156
20
-0.139156
11
0.2659
21
-0.136545
0
LINE
8
BLACK
6
CONTINUOUS
10
0.2659
20
-0.136545
11
0.266358
21
-0.134242
0
LINE
8
BLACK
6
CONTINUOUS
10
0.266358
20
-0.134242
11
0.266358
21
-0.065758
0
LINE
8
BLACK
6
CONTINUOUS
10
0.266358
20
-0.065758
11
0.2659
21
-0.0634555
0
LINE
8
BLACK
6
CONTINUOUS
10
0.2659
20
-0.0634555
11
0.264156
21
-0.0608444
0
LINE
8
BLACK
6
CONTINUOUS
10
0.264156
20
-0.0608444
11
0.261545
21
-0.0590997
0
LINE
8
BLACK
6
CONTINUOUS
10
0.261545
20
-0.0590997
11
0.259792
21
-0.058751
0
LINE
8
BLACK
6
CONTINUOUS
10
0.259792
20
-0.058751
11
0.259383
21
-0.0586697
0
LINE
8
BLACK
6
CONTINUOUS
10
0.259383
20
-0.0586697
11
0.259383
21
-0.0586697
0
LINE
8
BLACK
6
CONTINUOUS
10
0.259383
20
-0.0586697
11
0.259242
21
-0.0586417
0
LINE
8
BLACK
6
CONTINUOUS
10
0.259242
20
-0.0586417
11
0.190758
21
-0.0586417
0
LINE
8
BLACK
6
CONTINUOUS
10
0.190758
20
-0.0586417
11
0.190617
21
-0.0586697
0
LINE
8
BLACK
6
CONTINUOUS
10
0.190617
20
-0.0586697
11
0.190617
21
-0.0586697
0
LINE
8
BLACK
6
CONTINUOUS
10
0.190617
20
-0.0586697
11
0.190208
21
-0.058751
0
LINE
8
BLACK
6
CONTINUOUS
10
0.190208
20
-0.058751
11
0.188455
21
-0.0590997
0
LINE
8
BLACK
6
CONTINUOUS
10
0.188455
20
-0.0590997
11
0.185844
21
-0.0608444
0
LINE
8
BLACK
6
CONTINUOUS
10
0.185844
20
-0.0608444
11
0.1841
21
-0.0634555
0
LINE
8
BLACK
6
CONTINUOUS
10
0.1841
20
-0.0634555
11
0.183642
21
-0.065758
0
LINE
8
BLACK
6
CONTINUOUS
10
0.183642
20
-0.065758
11
0.183642
21
-0.134242
0
LINE
8
BLACK
6
CONTINUOUS
10
0.183642
20
-0.134242
11
0.1841
21
-0.136545
0
LINE
8
BLACK
6
CONTINUOUS
10
0.1841
20
-0.136545
11
0.185844
21
-0.139156
0
LINE
8
BLACK
6
CONTINUOUS
10
0.173781
20
0.0840739
11
0.173852
21
0.0838463
0
LINE
8
BLACK
6
CONTINUOUS
10
0.173852
20
0.0838463
11
0.17707
21
0.0759224
0
LINE
8
BLACK
6
CONTINUOUS
10
0.17707
20
0.0759224
11
0.177177
21
0.0757093
0
LINE
8
BLACK
6
CONTINUOUS
10
0.177177
20
0.0757093
11
0.181646
21
0.0684174
0
LINE
8
BLACK
6
CONTINUOUS
10
0.181646
20
0.0684174
11
0.181787
21
0.0682248
0
LINE
8
BLACK
6
CONTINUOUS
10
0.181787
20
0.0682248
11
0.187386
21
0.0617604
0
LINE
8
BLACK
6
CONTINUOUS
10
0.187386
20
0.0617604
11
0.187556
21
0.0615939
0
LINE
8
BLACK
6
CONTINUOUS
10
0.187556
20
0.0615939
11
0.194137
21
0.0561306
0
LINE
8
BLACK
6
CONTINUOUS
10
0.194137
20
0.0561306
11
0.194332
21
0.0559939
0
LINE
8
BLACK
6
CONTINUOUS
10
0.194332
20
0.0559939
11
0.201716
21
0.0516791
0
LINE
8
BLACK
6
CONTINUOUS
10
0.201716
20
0.0516791
11
0.201931
21
0.051576
0
LINE
8
BLACK
6
CONTINUOUS
10
0.201931
20
0.051576
11
0.209921
21
0.0485251
0
LINE
8
BLACK
6
CONTINUOUS
10
0.209921
20
0.0485251
11
0.21015
21
0.0484584
0
LINE
8
BLACK
6
CONTINUOUS
10
0.21015
20
0.0484584
11
0.218531
21
0.0467534
0
LINE
8
BLACK
6
CONTINUOUS
10
0.218531
20
0.0467534
11
0.218646
21
0.0467396
0
LINE
8
BLACK
6
CONTINUOUS
10
0.218646
20
0.0467396
11
0.220425
21
0.0458411
0
LINE
8
BLACK
6
CONTINUOUS
10
0.220425
20
0.0458411
11
0.22121
21
0.0440094
0
LINE
8
BLACK
6
CONTINUOUS
10
0.22121
20
0.0440094
11
0.220634
21
0.0421016
0
LINE
8
BLACK
6
CONTINUOUS
10
0.220634
20
0.0421016
11
0.218967
21
0.0410104
0
LINE
8
BLACK
6
CONTINUOUS
10
0.218967
20
0.0410104
11
0.218566
21
0.0409454
0
LINE
8
BLACK
6
CONTINUOUS
10
0.218566
20
0.0409454
11
0.217213
21
0.0408223
0
LINE
8
BLACK
6
CONTINUOUS
10
0.217213
20
0.0408223
11
0.216081
21
0.0404893
0
LINE
8
BLACK
6
CONTINUOUS
10
0.216081
20
0.0404893
11
0.209569
21
0.0385725
0
LINE
8
BLACK
6
CONTINUOUS
10
0.209569
20
0.0385725
11
0.209568
21
0.0385724
0
LINE
8
BLACK
6
CONTINUOUS
10
0.209568
20
0.0385724
11
0.209432
21
0.0385323
0
LINE
8
BLACK
6
CONTINUOUS
10
0.209432
20
0.0385323
11
0.206538
21
0.0370193
0
LINE
8
BLACK
6
CONTINUOUS
10
0.206538
20
0.0370193
11
0.20237
21
0.0348406
0
LINE
8
BLACK
6
CONTINUOUS
10
0.20237
20
0.0348406
11
0.20237
21
0.0348405
0
LINE
8
BLACK
6
CONTINUOUS
10
0.20237
20
0.0348405
11
0.202244
21
0.0347746
0
LINE
8
BLACK
6
CONTINUOUS
10
0.202244
20
0.0347746
11
0.202133
21
0.0346854
0
LINE
8
BLACK
6
CONTINUOUS
10
0.202133
20
0.0346854
11
0.202133
21
0.0346853
0
LINE
8
BLACK
6
CONTINUOUS
10
0.202133
20
0.0346853
11
0.196034
21
0.0297816
0
LINE
8
BLACK
6
CONTINUOUS
10
0.196034
20
0.0297816
11
0.196034
21
0.0297815
0
LINE
8
BLACK
6
CONTINUOUS
10
0.196034
20
0.0297815
11
0.195923
21
0.0296923
0
LINE
8
BLACK
6
CONTINUOUS
10
0.195923
20
0.0296923
11
0.195832
21
0.0295832
0
LINE
8
BLACK
6
CONTINUOUS
10
0.195832
20
0.0295832
11
0.195831
21
0.0295831
0
LINE
8
BLACK
6
CONTINUOUS
10
0.195831
20
0.0295831
11
0.190801
21
0.0235883
0
LINE
8
BLACK
6
CONTINUOUS
10
0.190801
20
0.0235883
11
0.190801
21
0.0235882
0
LINE
8
BLACK
6
CONTINUOUS
10
0.190801
20
0.0235882
11
0.19071
21
0.0234791
0
LINE
8
BLACK
6
CONTINUOUS
10
0.19071
20
0.0234791
11
0.186802
21
0.0163716
0
LINE
8
BLACK
6
CONTINUOUS
10
0.186802
20
0.0163716
11
0.186759
21
0.0162358
0
LINE
8
BLACK
6
CONTINUOUS
10
0.186759
20
0.0162358
11
0.184528
21
0.00920154
0
LINE
8
BLACK
6
CONTINUOUS
10
0.184528
20
0.00920154
11
0.18435
21
0.00864047
0
LINE
8
BLACK
6
CONTINUOUS
10
0.18435
20
0.00864047
11
0.184334
21
0.00849909
0
LINE
8
BLACK
6
CONTINUOUS
10
0.184334
20
0.00849909
11
0.184334
21
0.00849906
0
LINE
8
BLACK
6
CONTINUOUS
10
0.184334
20
0.00849906
11
0.18428
21
0.00802134
0
LINE
8
BLACK
6
CONTINUOUS
10
0.18428
20
0.00802134
11
0.183446
21
0.000580236
0
LINE
8
BLACK
6
CONTINUOUS
10
0.183446
20
0.000580236
11
0.183458
21
0.00043815
0
LINE
8
BLACK
6
CONTINUOUS
10
0.183458
20
0.00043815
11
0.183458
21
0.000438071
0
LINE
8
BLACK
6
CONTINUOUS
10
0.183458
20
0.000438071
11
0.184058
21
-0.00670988
0
LINE
8
BLACK
6
CONTINUOUS
10
0.184058
20
-0.00670988
11
0.184124
21
-0.00750209
0
LINE
8
BLACK
6
CONTINUOUS
10
0.184124
20
-0.00750209
11
0.18636
21
-0.0152987
0
LINE
8
BLACK
6
CONTINUOUS
10
0.18636
20
-0.0152987
11
0.186425
21
-0.0154252
0
LINE
8
BLACK
6
CONTINUOUS
10
0.186425
20
-0.0154252
11
0.186425
21
-0.0154253
0
LINE
8
BLACK
6
CONTINUOUS
10
0.186425
20
-0.0154253
11
0.18841
21
-0.019287
0
LINE
8
BLACK
6
CONTINUOUS
10
0.18841
20
-0.019287
11
0.190067
21
-0.0225125
0
LINE
8
BLACK
6
CONTINUOUS
10
0.190067
20
-0.0225125
11
0.195105
21
-0.0288689
0
LINE
8
BLACK
6
CONTINUOUS
10
0.195105
20
-0.0288689
11
0.195214
21
-0.0289611
0
LINE
8
BLACK
6
CONTINUOUS
10
0.195214
20
-0.0289611
11
0.195214
21
-0.0289613
0
LINE
8
BLACK
6
CONTINUOUS
10
0.195214
20
-0.0289613
11
0.196958
21
-0.0304456
0
LINE
8
BLACK
6
CONTINUOUS
10
0.196958
20
-0.0304456
11
0.201282
21
-0.0341256
0
LINE
8
BLACK
6
CONTINUOUS
10
0.201282
20
-0.0341256
11
0.203121
21
-0.0351532
0
LINE
8
BLACK
6
CONTINUOUS
10
0.203121
20
-0.0351532
11
0.208238
21
-0.0380131
0
LINE
8
BLACK
6
CONTINUOUS
10
0.208238
20
-0.0380131
11
0.208238
21
-0.0380131
0
LINE
8
BLACK
6
CONTINUOUS
10
0.208238
20
-0.0380131
11
0.208362
21
-0.0380826
0
LINE
8
BLACK
6
CONTINUOUS
10
0.208362
20
-0.0380826
11
0.208497
21
-0.0381265
0
LINE
8
BLACK
6
CONTINUOUS
10
0.208497
20
-0.0381265
11
0.208498
21
-0.0381266
0
LINE
8
BLACK
6
CONTINUOUS
10
0.208498
20
-0.0381266
11
0.211521
21
-0.0391091
0
LINE
8
BLACK
6
CONTINUOUS
10
0.211521
20
-0.0391091
11
0.216076
21
-0.0405889
0
LINE
8
BLACK
6
CONTINUOUS
10
0.216076
20
-0.0405889
11
0.21859
21
-0.0408887
0
LINE
8
BLACK
6
CONTINUOUS
10
0.21859
20
-0.0408887
11
0.223988
21
-0.0415324
0
LINE
8
BLACK
6
CONTINUOUS
10
0.223988
20
-0.0415324
11
0.223988
21
-0.0415324
0
LINE
8
BLACK
6
CONTINUOUS
10
0.223988
20
-0.0415324
11
0.22413
21
-0.0415493
0
LINE
8
BLACK
6
CONTINUOUS
10
0.22413
20
-0.0415493
11
0.227851
21
-0.041263
0
LINE
8
BLACK
6
CONTINUOUS
10
0.227851
20
-0.041263
11
0.232074
21
-0.040938
0
LINE
8
BLACK
6
CONTINUOUS
10
0.232074
20
-0.040938
11
0.232074
21
-0.040938
0
LINE
8
BLACK
6
CONTINUOUS
10
0.232074
20
-0.040938
11
0.232217
21
-0.040927
0
LINE
8
BLACK
6
CONTINUOUS
10
0.232217
20
-0.040927
11
0.240029
21
-0.0387459
0
LINE
8
BLACK
6
CONTINUOUS
10
0.240029
20
-0.0387459
11
0.241254
21
-0.0381266
0
LINE
8
BLACK
6
CONTINUOUS
10
0.241254
20
-0.0381266
11
0.247141
21
-0.0351532
0
LINE
8
BLACK
6
CONTINUOUS
10
0.247141
20
-0.0351532
11
0.247141
21
-0.0351531
0
LINE
8
BLACK
6
CONTINUOUS
10
0.247141
20
-0.0351531
11
0.247268
21
-0.0350889
0
LINE
8
BLACK
6
CONTINUOUS
10
0.247268
20
-0.0350889
11
0.253659
21
-0.0300954
0
LINE
8
BLACK
6
CONTINUOUS
10
0.253659
20
-0.0300954
11
0.258959
21
-0.0239556
0
LINE
8
BLACK
6
CONTINUOUS
10
0.258959
20
-0.0239556
11
0.259029
21
-0.023832
0
LINE
8
BLACK
6
CONTINUOUS
10
0.259029
20
-0.023832
11
0.25903
21
-0.0238319
0
LINE
8
BLACK
6
CONTINUOUS
10
0.25903
20
-0.0238319
11
0.261653
21
-0.0192138
0
LINE
8
BLACK
6
CONTINUOUS
10
0.261653
20
-0.0192138
11
0.262965
21
-0.0169033
0
LINE
8
BLACK
6
CONTINUOUS
10
0.262965
20
-0.0169033
11
0.26316
21
-0.0163189
0
LINE
8
BLACK
6
CONTINUOUS
10
0.26316
20
-0.0163189
11
0.265481
21
-0.00934248
0
LINE
8
BLACK
6
CONTINUOUS
10
0.265481
20
-0.00934248
11
0.265526
21
-0.0092072
0
LINE
8
BLACK
6
CONTINUOUS
10
0.265526
20
-0.0092072
11
0.265582
21
-0.00875744
0
LINE
8
BLACK
6
CONTINUOUS
10
0.265582
20
-0.00875744
11
0.266532
21
-0.00124091
0
LINE
8
BLACK
6
CONTINUOUS
10
0.266532
20
-0.00124091
11
0.266532
21
-0.00124067
0
LINE
8
BLACK
6
CONTINUOUS
10
0.266532
20
-0.00124067
11
0.266542
21
-0.00116039
0
LINE
8
BLACK
6
CONTINUOUS
10
0.266542
20
-0.00116039
11
0.266558
21
0
0
LINE
8
BLACK
6
CONTINUOUS
10
0.266558
20
0
11
0.265767
21
0.00807205
0
LINE
8
BLACK
6
CONTINUOUS
10
0.265767
20
0.00807205
11
0.263423
21
0.0158367
0
LINE
8
BLACK
6
CONTINUOUS
10
0.263423
20
0.0158367
11
0.260106
21
0.0220744
0
LINE
8
BLACK
6
CONTINUOUS
10
0.260106
20
0.0220744
11
0.259682
21
0.0228723
0
LINE
8
BLACK
6
CONTINUOUS
10
0.259682
20
0.0228723
11
0.259682
21
0.0228724
0
LINE
8
BLACK
6
CONTINUOUS
10
0.259682
20
0.0228724
11
0.259615
21
0.0229981
0
LINE
8
BLACK
6
CONTINUOUS
10
0.259615
20
0.0229981
11
0.254489
21
0.0292835
0
LINE
8
BLACK
6
CONTINUOUS
10
0.254489
20
0.0292835
11
0.248239
21
0.0344535
0
LINE
8
BLACK
6
CONTINUOUS
10
0.248239
20
0.0344535
11
0.24781
21
0.0346853
0
LINE
8
BLACK
6
CONTINUOUS
10
0.24781
20
0.0346853
11
0.24123
21
0.0382434
0
LINE
8
BLACK
6
CONTINUOUS
10
0.24123
20
0.0382434
11
0.241105
21
0.0383111
0
LINE
8
BLACK
6
CONTINUOUS
10
0.241105
20
0.0383111
11
0.240969
21
0.0383532
0
LINE
8
BLACK
6
CONTINUOUS
10
0.240969
20
0.0383532
11
0.240969
21
0.0383533
0
LINE
8
BLACK
6
CONTINUOUS
10
0.240969
20
0.0383533
11
0.236063
21
0.0398718
0
LINE
8
BLACK
6
CONTINUOUS
10
0.236063
20
0.0398718
11
0.233356
21
0.0407096
0
LINE
8
BLACK
6
CONTINUOUS
10
0.233356
20
0.0407096
11
0.231808
21
0.0408723
0
LINE
8
BLACK
6
CONTINUOUS
10
0.231808
20
0.0408723
11
0.230522
21
0.0410075
0
LINE
8
BLACK
6
CONTINUOUS
10
0.230522
20
0.0410075
11
0.228731
21
0.0418811
0
LINE
8
BLACK
6
CONTINUOUS
10
0.228731
20
0.0418811
11
0.22792
21
0.0437017
0
LINE
8
BLACK
6
CONTINUOUS
10
0.22792
20
0.0437017
11
0.22847
21
0.0456174
0
LINE
8
BLACK
6
CONTINUOUS
10
0.22847
20
0.0456174
11
0.230122
21
0.0467318
0
LINE
8
BLACK
6
CONTINUOUS
10
0.230122
20
0.0467318
11
0.230456
21
0.0467947
0
LINE
8
BLACK
6
CONTINUOUS
10
0.230456
20
0.0467947
11
0.236036
21
0.0475093
0
LINE
8
BLACK
6
CONTINUOUS
10
0.236036
20
0.0475093
11
0.236268
21
0.0475588
0
LINE
8
BLACK
6
CONTINUOUS
10
0.236268
20
0.0475588
11
0.24446
21
0.0500166
0
LINE
8
BLACK
6
CONTINUOUS
10
0.24446
20
0.0500166
11
0.244682
21
0.0501035
0
LINE
8
BLACK
6
CONTINUOUS
10
0.244682
20
0.0501035
11
0.252363
21
0.0538661
0
LINE
8
BLACK
6
CONTINUOUS
10
0.252363
20
0.0538661
11
0.252567
21
0.0539881
0
LINE
8
BLACK
6
CONTINUOUS
10
0.252567
20
0.0539881
11
0.25953
21
0.0589548
0
LINE
8
BLACK
6
CONTINUOUS
10
0.25953
20
0.0589548
11
0.259712
21
0.0591081
0
LINE
8
BLACK
6
CONTINUOUS
10
0.259712
20
0.0591081
11
0.26577
21
0.0651453
0
LINE
8
BLACK
6
CONTINUOUS
10
0.26577
20
0.0651453
11
0.265925
21
0.0653271
0
LINE
8
BLACK
6
CONTINUOUS
10
0.265925
20
0.0653271
11
0.270915
21
0.0722722
0
LINE
8
BLACK
6
CONTINUOUS
10
0.270915
20
0.0722722
11
0.271038
21
0.0724765
0
LINE
8
BLACK
6
CONTINUOUS
10
0.271038
20
0.0724765
11
0.274827
21
0.0801435
0
LINE
8
BLACK
6
CONTINUOUS
10
0.274827
20
0.0801435
11
0.274915
21
0.0803656
0
LINE
8
BLACK
6
CONTINUOUS
10
0.274915
20
0.0803656
11
0.277401
21
0.0885483
0
LINE
8
BLACK
6
CONTINUOUS
10
0.277401
20
0.0885483
11
0.277452
21
0.0887816
0
LINE
8
BLACK
6
CONTINUOUS
10
0.277452
20
0.0887816
11
0.277545
21
0.0894907
0
LINE
8
BLACK
6
CONTINUOUS
10
0.277545
20
0.0894907
11
0.277455
21
0.0898996
0
LINE
8
BLACK
6
CONTINUOUS
10
0.277455
20
0.0898996
11
0.277324
21
0.09
0
LINE
8
BLACK
6
CONTINUOUS
10
0.277324
20
0.09
11
0.256745
21
0.09
0
LINE
8
BLACK
6
CONTINUOUS
10
0.256745
20
0.09
11
0.255571
21
0.0863887
0
LINE
8
BLACK
6
CONTINUOUS
10
0.255571
20
0.0863887
11
0.252073
21
0.08033
0
LINE
8
BLACK
6
CONTINUOUS
10
0.252073
20
0.08033
11
0.247392
21
0.075131
0
LINE
8
BLACK
6
CONTINUOUS
10
0.247392
20
0.075131
11
0.241732
21
0.0710188
0
LINE
8
BLACK
6
CONTINUOUS
10
0.241732
20
0.0710188
11
0.235341
21
0.0681733
0
LINE
8
BLACK
6
CONTINUOUS
10
0.235341
20
0.0681733
11
0.228498
21
0.0667187
0
LINE
8
BLACK
6
CONTINUOUS
10
0.228498
20
0.0667187
11
0.221502
21
0.0667187
0
LINE
8
BLACK
6
CONTINUOUS
10
0.221502
20
0.0667187
11
0.214659
21
0.0681733
0
LINE
8
BLACK
6
CONTINUOUS
10
0.214659
20
0.0681733
11
0.208268
21
0.0710188
0
LINE
8
BLACK
6
CONTINUOUS
10
0.208268
20
0.0710188
11
0.202608
21
0.075131
0
LINE
8
BLACK
6
CONTINUOUS
10
0.202608
20
0.075131
11
0.197927
21
0.08033
0
LINE
8
BLACK
6
CONTINUOUS
10
0.197927
20
0.08033
11
0.194429
21
0.0863887
0
LINE
8
BLACK
6
CONTINUOUS
10
0.194429
20
0.0863887
11
0.193255
21
0.09
0
LINE
8
BLACK
6
CONTINUOUS
10
0.193255
20
0.09
11
0.172959
21
0.09
0
LINE
8
BLACK
6
CONTINUOUS
10
0.172959
20
0.09
11
0.172565
21
0.0898568
0
LINE
8
BLACK
6
CONTINUOUS
10
0.172565
20
0.0898568
11
0.172508
21
0.0897572
0
LINE
8
BLACK
6
CONTINUOUS
10
0.172508
20
0.0897572
11
0.172509
21
0.0897176
0
LINE
8
BLACK
6
CONTINUOUS
10
0.172509
20
0.0897176
11
0.173781
21
0.0840739
0
LINE
8
BLACK
6
CONTINUOUS
10
0.172595
20
0.11
11
0.193255
21
0.11
0
LINE
8
BLACK
6
CONTINUOUS
10
0.193255
20
0.11
11
0.194429
21
0.113611
0
LINE
8
BLACK
6
CONTINUOUS
10
0.194429
20
0.113611
11
0.197927
21
0.11967
0
LINE
8
BLACK
6
CONTINUOUS
10
0.197927
20
0.11967
11
0.202608
21
0.124869
0
LINE
8
BLACK
6
CONTINUOUS
10
0.202608
20
0.124869
11
0.208268
21
0.128981
0
LINE
8
BLACK
6
CONTINUOUS
10
0.208268
20
0.128981
11
0.214659
21
0.131827
0
LINE
8
BLACK
6
CONTINUOUS
10
0.214659
20
0.131827
11
0.215
21
0.131899
0
LINE
8
BLACK
6
CONTINUOUS
10
0.215
20
0.131899
11
0.215
21
0.152046
0
LINE
8
BLACK
6
CONTINUOUS
10
0.215
20
0.152046
11
0.214857
21
0.152439
0
LINE
8
BLACK
6
CONTINUOUS
10
0.214857
20
0.152439
11
0.214722
21
0.152517
0
LINE
8
BLACK
6
CONTINUOUS
10
0.214722
20
0.152517
11
0.212686
21
0.152205
0
LINE
8
BLACK
6
CONTINUOUS
10
0.212686
20
0.152205
11
0.212453
21
0.15215
0
LINE
8
BLACK
6
CONTINUOUS
10
0.212453
20
0.15215
11
0.204324
21
0.149493
0
LINE
8
BLACK
6
CONTINUOUS
10
0.204324
20
0.149493
11
0.204105
21
0.149401
0
LINE
8
BLACK
6
CONTINUOUS
10
0.204105
20
0.149401
11
0.196518
21
0.145452
0
LINE
8
BLACK
6
CONTINUOUS
10
0.196518
20
0.145452
11
0.196317
21
0.145325
0
LINE
8
BLACK
6
CONTINUOUS
10
0.196317
20
0.145325
11
0.189477
21
0.14019
0
LINE
8
BLACK
6
CONTINUOUS
10
0.189477
20
0.14019
11
0.189299
21
0.140031
0
LINE
8
BLACK
6
CONTINUOUS
10
0.189299
20
0.140031
11
0.18339
21
0.133848
0
LINE
8
BLACK
6
CONTINUOUS
10
0.18339
20
0.133848
11
0.18324
21
0.133663
0
LINE
8
BLACK
6
CONTINUOUS
10
0.18324
20
0.133663
11
0.178421
21
0.126598
0
LINE
8
BLACK
6
CONTINUOUS
10
0.178421
20
0.126598
11
0.178303
21
0.12639
0
LINE
8
BLACK
6
CONTINUOUS
10
0.178303
20
0.12639
11
0.174702
21
0.118633
0
LINE
8
BLACK
6
CONTINUOUS
10
0.174702
20
0.118633
11
0.17462
21
0.118409
0
LINE
8
BLACK
6
CONTINUOUS
10
0.17462
20
0.118409
11
0.172388
21
0.110362
0
LINE
8
BLACK
6
CONTINUOUS
10
0.172388
20
0.110362
11
0.172452
21
0.110104
0
LINE
8
BLACK
6
CONTINUOUS
10
0.172452
20
0.110104
11
0.172595
21
0.11
0
LINE
8
BLACK
6
CONTINUOUS
10
0.235093
20
0.152366
11
0.235
21
0.152255
0
LINE
8
BLACK
6
CONTINUOUS
10
0.235
20
0.152255
11
0.235
21
0.131899
0
LINE
8
BLACK
6
CONTINUOUS
10
0.235
20
0.131899
11
0.235341
21
0.131827
0
LINE
8
BLACK
6
CONTINUOUS
10
0.235341
20
0.131827
11
0.241732
21
0.128981
0
LINE
8
BLACK
6
CONTINUOUS
10
0.241732
20
0.128981
11
0.247392
21
0.124869
0
LINE
8
BLACK
6
CONTINUOUS
10
0.247392
20
0.124869
11
0.252073
21
0.11967
0
LINE
8
BLACK
6
CONTINUOUS
10
0.252073
20
0.11967
11
0.255571
21
0.113611
0
LINE
8
BLACK
6
CONTINUOUS
10
0.255571
20
0.113611
11
0.256745
21
0.11
0
LINE
8
BLACK
6
CONTINUOUS
10
0.256745
20
0.11
11
0.277103
21
0.11
0
LINE
8
BLACK
6
CONTINUOUS
10
0.277103
20
0.11
11
0.277496
21
0.110143
0
LINE
8
BLACK
6
CONTINUOUS
10
0.277496
20
0.110143
11
0.277544
21
0.110226
0
LINE
8
BLACK
6
CONTINUOUS
10
0.277544
20
0.110226
11
0.277542
21
0.110298
0
LINE
8
BLACK
6
CONTINUOUS
10
0.277542
20
0.110298
11
0.275815
21
0.117173
0
LINE
8
BLACK
6
CONTINUOUS
10
0.275815
20
0.117173
11
0.275738
21
0.117398
0
LINE
8
BLACK
6
CONTINUOUS
10
0.275738
20
0.117398
11
0.272328
21
0.125242
0
LINE
8
BLACK
6
CONTINUOUS
10
0.272328
20
0.125242
11
0.272215
21
0.125451
0
LINE
8
BLACK
6
CONTINUOUS
10
0.272215
20
0.125451
11
0.267569
21
0.132633
0
LINE
8
BLACK
6
CONTINUOUS
10
0.267569
20
0.132633
11
0.267424
21
0.132821
0
LINE
8
BLACK
6
CONTINUOUS
10
0.267424
20
0.132821
11
0.261668
21
0.139147
0
LINE
8
BLACK
6
CONTINUOUS
10
0.261668
20
0.139147
11
0.261494
21
0.13931
0
LINE
8
BLACK
6
CONTINUOUS
10
0.261494
20
0.13931
11
0.254782
21
0.14461
0
LINE
8
BLACK
6
CONTINUOUS
10
0.254782
20
0.14461
11
0.254584
21
0.144742
0
LINE
8
BLACK
6
CONTINUOUS
10
0.254584
20
0.144742
11
0.247096
21
0.148875
0
LINE
8
BLACK
6
CONTINUOUS
10
0.247096
20
0.148875
11
0.246879
21
0.148973
0
LINE
8
BLACK
6
CONTINUOUS
10
0.246879
20
0.148973
11
0.238817
21
0.151828
0
LINE
8
BLACK
6
CONTINUOUS
10
0.238817
20
0.151828
11
0.238586
21
0.151889
0
LINE
8
BLACK
6
CONTINUOUS
10
0.238586
20
0.151889
11
0.235506
21
0.152438
0
LINE
8
BLACK
6
CONTINUOUS
10
0.235506
20
0.152438
11
0.235093
21
0.152366
0
LINE
8
BLACK
6
CONTINUOUS
10
-0.330709
20
-0.301528
11
-0.330709
21
-0.249929
0
LINE
8
BLACK
6
CONTINUOUS
10
-0.330709
20
-0.249929
11
-0.330668
21
-0.249445
0
LINE
8
BLACK
6
CONTINUOUS
10
-0.330668
20
-0.249445
11
-0.330531
21
-0.248629
0
LINE
8
BLACK
6
CONTINUOUS
10
-0.330531
20
-0.248629
11
-0.330531
21
-0.248629
0
LINE
8
BLACK
6
CONTINUOUS
10
-0.330531
20
-0.248629
11
-0.330512
21
-0.248517
0
LINE
8
BLACK
6
CONTINUOUS
10
-0.330512
20
-0.248517
11
-0.330506
21
-0.248031
0
LINE
8
BLACK
6
CONTINUOUS
10
-0.330506
20
-0.248031
11
-0.330522
21
-0.247919
0
LINE
8
BLACK
6
CONTINUOUS
10
-0.330522
20
-0.247919
11
-0.330629
21
-0.247176
0
LINE
8
BLACK
6
CONTINUOUS
10
-0.330629
20
-0.247176
11
-0.330647
21
-0.247017
0
LINE
8
BLACK
6
CONTINUOUS
10
-0.330647
20
-0.247017
11
-0.330661
21
-0.246861
0
LINE
8
BLACK
6
CONTINUOUS
10
-0.330661
20
-0.246861
11
-0.331159
21
-0.241169
0
LINE
8
BLACK
6
CONTINUOUS
10
-0.331159
20
-0.241169
11
-0.332942
21
-0.234515
0
LINE
8
BLACK
6
CONTINUOUS
10
-0.332942
20
-0.234515
11
-0.33415
21
-0.231923
0
LINE
8
BLACK
6
CONTINUOUS
10
-0.33415
20
-0.231923
11
-0.335799
21
-0.228387
0
LINE
8
BLACK
6
CONTINUOUS
10
-0.335799
20
-0.228387
11
-0.335799
21
-0.228386
0
LINE
8
BLACK
6
CONTINUOUS
10
-0.335799
20
-0.228386
11
-0.335853
21
-0.228271
0
LINE
8
BLACK
6
CONTINUOUS
10
-0.335853
20
-0.228271
11
-0.339804
21
-0.222628
0
LINE
8
BLACK
6
CONTINUOUS
10
-0.339804
20
-0.222628
11
-0.344675
21
-0.217757
0
LINE
8
BLACK
6
CONTINUOUS
10
-0.344675
20
-0.217757
11
-0.350319
21
-0.213806
0
LINE
8
BLACK
6
CONTINUOUS
10
-0.350319
20
-0.213806
11
-0.350434
21
-0.213752
0
LINE
8
BLACK
6
CONTINUOUS
10
-0.350434
20
-0.213752
11
-0.350434
21
-0.213752
0
LINE
8
BLACK
6
CONTINUOUS
10
-0.350434
20
-0.213752
11
-0.356447
21
-0.210948
0
LINE
8
BLACK
6
CONTINUOUS
10
-0.356447
20
-0.210948
11
-0.356447
21
-0.210948
0
LINE
8
BLACK
6
CONTINUOUS
10
-0.356447
20
-0.210948
11
-0.356562
21
-0.210894
0
LINE
8
BLACK
6
CONTINUOUS
10
-0.356562
20
-0.210894
11
-0.358184
21
-0.21046
0
LINE
8
BLACK
6
CONTINUOUS
10
-0.358184
20
-0.21046
11
-0.363093
21
-0.209144
0
LINE
8
BLACK
6
CONTINUOUS
10
-0.363093
20
-0.209144
11
-0.363094
21
-0.209144
0
LINE
8
BLACK
6
CONTINUOUS
10
-0.363094
20
-0.209144
11
-0.363216
21
-0.209111
0
LINE
8
BLACK
6
CONTINUOUS
10
-0.363216
20
-0.209111
11
-0.365965
21
-0.208871
0
LINE
8
BLACK
6
CONTINUOUS
10
-0.365965
20
-0.208871
11
-0.36838
21
-0.20866
0
LINE
8
BLACK
6
CONTINUOUS
10
-0.36838
20
-0.20866
11
-0.368609
21
-0.20863
0
LINE
8
BLACK
6
CONTINUOUS
10
-0.368609
20
-0.20863
11
-0.369482
21
-0.208484
0
LINE
8
BLACK
6
CONTINUOUS
10
-0.369482
20
-0.208484
11
-0.369482
21
-0.208484
0
LINE
8
BLACK
6
CONTINUOUS
10
-0.369482
20
-0.208484
11
-0.369593
21
-0.208465
0
LINE
8
BLACK
6
CONTINUOUS
10
-0.369593
20
-0.208465
11
-0.369836
21
-0.208462
0
LINE
8
BLACK
6
CONTINUOUS
10
-0.369836
20
-0.208462
11
-0.369966
21
-0.20846
0
LINE
8
BLACK
6
CONTINUOUS
10
-0.369966
20
-0.20846
11
-0.370079
21
-0.208459
0
LINE
8
BLACK
6
CONTINUOUS
10
-0.370079
20
-0.208459
11
-0.37019
21
-0.208475
0
LINE
8
BLACK
6
CONTINUOUS
10
-0.37019
20
-0.208475
11
-0.371287
21
-0.208632
0
LINE
8
BLACK
6
CONTINUOUS
10
-0.371287
20
-0.208632
11
-0.3717
21
-0.208661
0
LINE
8
BLACK
6
CONTINUOUS
10
-0.3717
20
-0.208661
11
-0.415426
21
-0.208661
0
LINE
8
BLACK
6
CONTINUOUS
10
-0.415426
20
-0.208661
11
-0.415909
21
-0.208621
0
LINE
8
BLACK
6
CONTINUOUS
10
-0.415909
20
-0.208621
11
-0.416726
21
-0.208484
0
LINE
8
BLACK
6
CONTINUOUS
10
-0.416726
20
-0.208484
11
-0.416726
21
-0.208484
0
LINE
8
BLACK
6
CONTINUOUS
10
-0.416726
20
-0.208484
11
-0.416837
21
-0.208465
0
LINE
8
BLACK
6
CONTINUOUS
10
-0.416837
20
-0.208465
11
-0.417117
21
-0.208461
0
LINE
8
BLACK
6
CONTINUOUS
10
-0.417117
20
-0.208461
11
-0.41721
21
-0.20846
0
LINE
8
BLACK
6
CONTINUOUS
10
-0.41721
20
-0.20846
11
-0.417323
21
-0.208459
0
LINE
8
BLACK
6
CONTINUOUS
10
-0.417323
20
-0.208459
11
-0.417434
21
-0.208475
0
LINE
8
BLACK
6
CONTINUOUS
10
-0.417434
20
-0.208475
11
-0.417435
21
-0.208475
0
LINE
8
BLACK
6
CONTINUOUS
10
-0.417435
20
-0.208475
11
-0.418178
21
-0.208581
0
LINE
8
BLACK
6
CONTINUOUS
10
-0.418178
20
-0.208581
11
-0.418337
21
-0.2086
0
LINE
8
BLACK
6
CONTINUOUS
10
-0.418337
20
-0.2086
11
-0.424186
21
-0.209111
0
LINE
8
BLACK
6
CONTINUOUS
10
-0.424186
20
-0.209111
11
-0.424308
21
-0.209144
0
LINE
8
BLACK
6
CONTINUOUS
10
-0.424308
20
-0.209144
11
-0.424308
21
-0.209144
0
LINE
8
BLACK
6
CONTINUOUS
10
-0.424308
20
-0.209144
11
-0.429217
21
-0.21046
0
LINE
8
BLACK
6
CONTINUOUS
10
-0.429217
20
-0.21046
11
-0.43084
21
-0.210894
0
LINE
8
BLACK
6
CONTINUOUS
10
-0.43084
20
-0.210894
11
-0.430955
21
-0.210948
0
LINE
8
BLACK
6
CONTINUOUS
10
-0.430955
20
-0.210948
11
-0.430955
21
-0.210948
0
LINE
8
BLACK
6
CONTINUOUS
10
-0.430955
20
-0.210948
11
-0.436968
21
-0.213752
0
LINE
8
BLACK
6
CONTINUOUS
10
-0.436968
20
-0.213752
11
-0.436968
21
-0.213752
0
LINE
8
BLACK
6
CONTINUOUS
10
-0.436968
20
-0.213752
11
-0.437083
21
-0.213806
0
LINE
8
BLACK
6
CONTINUOUS
10
-0.437083
20
-0.213806
11
-0.442726
21
-0.217757
0
LINE
8
BLACK
6
CONTINUOUS
10
-0.442726
20
-0.217757
11
-0.447597
21
-0.222628
0
LINE
8
BLACK
6
CONTINUOUS
10
-0.447597
20
-0.222628
11
-0.451549
21
-0.228271
0
LINE
8
BLACK
6
CONTINUOUS
10
-0.451549
20
-0.228271
11
-0.451602
21
-0.228386
0
LINE
8
BLACK
6
CONTINUOUS
10
-0.451602
20
-0.228386
11
-0.451602
21
-0.228387
0
LINE
8
BLACK
6
CONTINUOUS
10
-0.451602
20
-0.228387
11
-0.453251
21
-0.231923
0
LINE
8
BLACK
6
CONTINUOUS
10
-0.453251
20
-0.231923
11
-0.45446
21
-0.234515
0
LINE
8
BLACK
6
CONTINUOUS
10
-0.45446
20
-0.234515
11
-0.456243
21
-0.241169
0
LINE
8
BLACK
6
CONTINUOUS
10
-0.456243
20
-0.241169
11
-0.456322
21
-0.242074
0
LINE
8
BLACK
6
CONTINUOUS
10
-0.456322
20
-0.242074
11
-0.456695
21
-0.246333
0
LINE
8
BLACK
6
CONTINUOUS
10
-0.456695
20
-0.246333
11
-0.456724
21
-0.246562
0
LINE
8
BLACK
6
CONTINUOUS
10
-0.456724
20
-0.246562
11
-0.456827
21
-0.247176
0
LINE
8
BLACK
6
CONTINUOUS
10
-0.456827
20
-0.247176
11
-0.456889
21
-0.247546
0
LINE
8
BLACK
6
CONTINUOUS
10
-0.456889
20
-0.247546
11
-0.456895
21
-0.248031
0
LINE
8
BLACK
6
CONTINUOUS
10
-0.456895
20
-0.248031
11
-0.456879
21
-0.248143
0
LINE
8
BLACK
6
CONTINUOUS
10
-0.456879
20
-0.248143
11
-0.456722
21
-0.24924
0
LINE
8
BLACK
6
CONTINUOUS
10
-0.456722
20
-0.24924
11
-0.456693
21
-0.249653
0
LINE
8
BLACK
6
CONTINUOUS
10
-0.456693
20
-0.249653
11
-0.456693
21
-0.301253
0
LINE
8
BLACK
6
CONTINUOUS
10
-0.456693
20
-0.301253
11
-0.456733
21
-0.301736
0
LINE
8
BLACK
6
CONTINUOUS
10
-0.456733
20
-0.301736
11
-0.456889
21
-0.302664
0
LINE
8
BLACK
6
CONTINUOUS
10
-0.456889
20
-0.302664
11
-0.456895
21
-0.30315
0
LINE
8
BLACK
6
CONTINUOUS
10
-0.456895
20
-0.30315
11
-0.456879
21
-0.303261
0
LINE
8
BLACK
6
CONTINUOUS
10
-0.456879
20
-0.303261
11
-0.456879
21
-0.303261
0
LINE
8
BLACK
6
CONTINUOUS
10
-0.456879
20
-0.303261
11
-0.456773
21
-0.304005
0
LINE
8
BLACK
6
CONTINUOUS
10
-0.456773
20
-0.304005
11
-0.456755
21
-0.304164
0
LINE
8
BLACK
6
CONTINUOUS
10
-0.456755
20
-0.304164
11
-0.456243
21
-0.310012
0
LINE
8
BLACK
6
CONTINUOUS
10
-0.456243
20
-0.310012
11
-0.45446
21
-0.316666
0
LINE
8
BLACK
6
CONTINUOUS
10
-0.45446
20
-0.316666
11
-0.454406
21
-0.316781
0
LINE
8
BLACK
6
CONTINUOUS
10
-0.454406
20
-0.316781
11
-0.454406
21
-0.316781
0
LINE
8
BLACK
6
CONTINUOUS
10
-0.454406
20
-0.316781
11
-0.451602
21
-0.322795
0
LINE
8
BLACK
6
CONTINUOUS
10
-0.451602
20
-0.322795
11
-0.451602
21
-0.322795
0
LINE
8
BLACK
6
CONTINUOUS
10
-0.451602
20
-0.322795
11
-0.451549
21
-0.32291
0
LINE
8
BLACK
6
CONTINUOUS
10
-0.451549
20
-0.32291
11
-0.447597
21
-0.328553
0
LINE
8
BLACK
6
CONTINUOUS
10
-0.447597
20
-0.328553
11
-0.442726
21
-0.333424
0
LINE
8
BLACK
6
CONTINUOUS
10
-0.442726
20
-0.333424
11
-0.437083
21
-0.337375
0
LINE
8
BLACK
6
CONTINUOUS
10
-0.437083
20
-0.337375
11
-0.436968
21
-0.337429
0
LINE
8
BLACK
6
CONTINUOUS
10
-0.436968
20
-0.337429
11
-0.436968
21
-0.337429
0
LINE
8
BLACK
6
CONTINUOUS
10
-0.436968
20
-0.337429
11
-0.430955
21
-0.340233
0
LINE
8
BLACK
6
CONTINUOUS
10
-0.430955
20
-0.340233
11
-0.43084
21
-0.340287
0
LINE
8
BLACK
6
CONTINUOUS
10
-0.43084
20
-0.340287
11
-0.430717
21
-0.34032
0
LINE
8
BLACK
6
CONTINUOUS
10
-0.430717
20
-0.34032
11
-0.430717
21
-0.34032
0
LINE
8
BLACK
6
CONTINUOUS
10
-0.430717
20
-0.34032
11
-0.424308
21
-0.342037
0
LINE
8
BLACK
6
CONTINUOUS
10
-0.424308
20
-0.342037
11
-0.424308
21
-0.342037
0
LINE
8
BLACK
6
CONTINUOUS
10
-0.424308
20
-0.342037
11
-0.424186
21
-0.34207
0
LINE
8
BLACK
6
CONTINUOUS
10
-0.424186
20
-0.34207
11
-0.421437
21
-0.34231
0
LINE
8
BLACK
6
CONTINUOUS
10
-0.421437
20
-0.34231
11
-0.419022
21
-0.342521
0
LINE
8
BLACK
6
CONTINUOUS
10
-0.419022
20
-0.342521
11
-0.418792
21
-0.342551
0
LINE
8
BLACK
6
CONTINUOUS
10
-0.418792
20
-0.342551
11
-0.41792
21
-0.342697
0
LINE
8
BLACK
6
CONTINUOUS
10
-0.41792
20
-0.342697
11
-0.41792
21
-0.342697
0
LINE
8
BLACK
6
CONTINUOUS
10
-0.41792
20
-0.342697
11
-0.417809
21
-0.342716
0
LINE
8
BLACK
6
CONTINUOUS
10
-0.417809
20
-0.342716
11
-0.417566
21
-0.342719
0
LINE
8
BLACK
6
CONTINUOUS
10
-0.417566
20
-0.342719
11
-0.417436
21
-0.342721
0
LINE
8
BLACK
6
CONTINUOUS
10
-0.417436
20
-0.342721
11
-0.417323
21
-0.342722
0
LINE
8
BLACK
6
CONTINUOUS
10
-0.417323
20
-0.342722
11
-0.416115
21
-0.342549
0
LINE
8
BLACK
6
CONTINUOUS
10
-0.416115
20
-0.342549
11
-0.415702
21
-0.34252
0
LINE
8
BLACK
6
CONTINUOUS
10
-0.415702
20
-0.34252
11
-0.371976
21
-0.34252
0
LINE
8
BLACK
6
CONTINUOUS
10
-0.371976
20
-0.34252
11
-0.371492
21
-0.34256
0
LINE
8
BLACK
6
CONTINUOUS
10
-0.371492
20
-0.34256
11
-0.370676
21
-0.342697
0
LINE
8
BLACK
6
CONTINUOUS
10
-0.370676
20
-0.342697
11
-0.370676
21
-0.342697
0
LINE
8
BLACK
6
CONTINUOUS
10
-0.370676
20
-0.342697
11
-0.370565
21
-0.342716
0
LINE
8
BLACK
6
CONTINUOUS
10
-0.370565
20
-0.342716
11
-0.370285
21
-0.34272
0
LINE
8
BLACK
6
CONTINUOUS
10
-0.370285
20
-0.34272
11
-0.370191
21
-0.342721
0
LINE
8
BLACK
6
CONTINUOUS
10
-0.370191
20
-0.342721
11
-0.370079
21
-0.342722
0
LINE
8
BLACK
6
CONTINUOUS
10
-0.370079
20
-0.342722
11
-0.369967
21
-0.342706
0
LINE
8
BLACK
6
CONTINUOUS
10
-0.369967
20
-0.342706
11
-0.369967
21
-0.342706
0
LINE
8
BLACK
6
CONTINUOUS
10
-0.369967
20
-0.342706
11
-0.369223
21
-0.3426
0
LINE
8
BLACK
6
CONTINUOUS
10
-0.369223
20
-0.3426
11
-0.369065
21
-0.342581
0
LINE
8
BLACK
6
CONTINUOUS
10
-0.369065
20
-0.342581
11
-0.363216
21
-0.34207
0
LINE
8
BLACK
6
CONTINUOUS
10
-0.363216
20
-0.34207
11
-0.363094
21
-0.342037
0
LINE
8
BLACK
6
CONTINUOUS
10
-0.363094
20
-0.342037
11
-0.363093
21
-0.342037
0
LINE
8
BLACK
6
CONTINUOUS
10
-0.363093
20
-0.342037
11
-0.356684
21
-0.34032
0
LINE
8
BLACK
6
CONTINUOUS
10
-0.356684
20
-0.34032
11
-0.356685
21
-0.34032
0
LINE
8
BLACK
6
CONTINUOUS
10
-0.356685
20
-0.34032
11
-0.356562
21
-0.340287
0
LINE
8
BLACK
6
CONTINUOUS
10
-0.356562
20
-0.340287
11
-0.356447
21
-0.340233
0
LINE
8
BLACK
6
CONTINUOUS
10
-0.356447
20
-0.340233
11
-0.350434
21
-0.337429
0
LINE
8
BLACK
6
CONTINUOUS
10
-0.350434
20
-0.337429
11
-0.350434
21
-0.337429
0
LINE
8
BLACK
6
CONTINUOUS
10
-0.350434
20
-0.337429
11
-0.350319
21
-0.337375
0
LINE
8
BLACK
6
CONTINUOUS
10
-0.350319
20
-0.337375
11
-0.344675
21
-0.333424
0
LINE
8
BLACK
6
CONTINUOUS
10
-0.344675
20
-0.333424
11
-0.339804
21
-0.328553
0
LINE
8
BLACK
6
CONTINUOUS
10
-0.339804
20
-0.328553
11
-0.335853
21
-0.32291
0
LINE
8
BLACK
6
CONTINUOUS
10
-0.335853
20
-0.32291
11
-0.335799
21
-0.322795
0
LINE
8
BLACK
6
CONTINUOUS
10
-0.335799
20
-0.322795
11
-0.335799
21
-0.322795
0
LINE
8
BLACK
6
CONTINUOUS
10
-0.335799
20
-0.322795
11
-0.332995
21
-0.316781
0
LINE
8
BLACK
6
CONTINUOUS
10
-0.332995
20
-0.316781
11
-0.332995
21
-0.316781
0
LINE
8
BLACK
6
CONTINUOUS
10
-0.332995
20
-0.316781
11
-0.332942
21
-0.316666
0
LINE
8
BLACK
6
CONTINUOUS
10
-0.332942
20
-0.316666
11
-0.331159
21
-0.310012
0
LINE
8
BLACK
6
CONTINUOUS
10
-0.331159
20
-0.310012
11
-0.330707
21
-0.304848
0
LINE
8
BLACK
6
CONTINUOUS
10
-0.330707
20
-0.304848
11
-0.330678
21
-0.304619
0
LINE
8
BLACK
6
CONTINUOUS
10
-0.330678
20
-0.304619
11
-0.330531
21
-0.303747
0
LINE
8
BLACK
6
CONTINUOUS
10
-0.330531
20
-0.303747
11
-0.330531
21
-0.303747
0
LINE
8
BLACK
6
CONTINUOUS
10
-0.330531
20
-0.303747
11
-0.330512
21
-0.303636
0
LINE
8
BLACK
6
CONTINUOUS
10
-0.330512
20
-0.303636
11
-0.330506
21
-0.30315
0
LINE
8
BLACK
6
CONTINUOUS
10
-0.330506
20
-0.30315
11
-0.330679
21
-0.301941
0
LINE
8
BLACK
6
CONTINUOUS
10
-0.330679
20
-0.301941
11
-0.330709
21
-0.301528
0
LINE
8
BLACK
6
CONTINUOUS
10
-0.518627
20
-0.0128819
11
-0.518865
21
-0.0115796
0
LINE
8
BLACK
6
CONTINUOUS
10
-0.518865
20
-0.0115796
11
-0.519048
21
-0.0105788
0
LINE
8
BLACK
6
CONTINUOUS
10
-0.519048
20
-0.0105788
11
-0.519063
21
-0.0104886
0
LINE
8
BLACK
6
CONTINUOUS
10
-0.519063
20
-0.0104886
11
-0.519379
21
-0.00838661
0
LINE
8
BLACK
6
CONTINUOUS
10
-0.519379
20
-0.00838661
11
-0.519379
21
-0.0083865
0
LINE
8
BLACK
6
CONTINUOUS
10
-0.519379
20
-0.0083865
11
-0.519411
21
-0.00817122
0
LINE
8
BLACK
6
CONTINUOUS
10
-0.519411
20
-0.00817122
11
-0.519502
21
-0.00798071
0
LINE
8
BLACK
6
CONTINUOUS
10
-0.519502
20
-0.00798071
11
-0.519506
21
-0.00796665
0
LINE
8
BLACK
6
CONTINUOUS
10
-0.519506
20
-0.00796665
11
-0.51951
21
-0.00795555
0
LINE
8
BLACK
6
CONTINUOUS
10
-0.51951
20
-0.00795555
11
-0.519538
21
-0.00786854
0
LINE
8
BLACK
6
CONTINUOUS
10
-0.519538
20
-0.00786854
11
-0.519542
21
-0.00785701
0
LINE
8
BLACK
6
CONTINUOUS
10
-0.519542
20
-0.00785701
11
-0.519547
21
-0.00784319
0
LINE
8
BLACK
6
CONTINUOUS
10
-0.519547
20
-0.00784319
11
-0.519585
21
-0.00763535
0
LINE
8
BLACK
6
CONTINUOUS
10
-0.519585
20
-0.00763535
11
-0.520666
21
-0.00555484
0
LINE
8
BLACK
6
CONTINUOUS
10
-0.520666
20
-0.00555484
11
-0.520704
21
-0.0054776
0
LINE
8
BLACK
6
CONTINUOUS
10
-0.520704
20
-0.0054776
11
-0.52172
21
-0.00336346
0
LINE
8
BLACK
6
CONTINUOUS
10
-0.52172
20
-0.00336346
11
-0.521863
21
-0.00320831
0
LINE
8
BLACK
6
CONTINUOUS
10
-0.521863
20
-0.00320831
11
-0.521884
21
-0.00317276
0
LINE
8
BLACK
6
CONTINUOUS
10
-0.521884
20
-0.00317276
11
-0.521967
21
-0.00305016
0
LINE
8
BLACK
6
CONTINUOUS
10
-0.521967
20
-0.00305016
11
-0.522044
21
-0.00290248
0
LINE
8
BLACK
6
CONTINUOUS
10
-0.522044
20
-0.00290248
11
-0.522151
21
-0.00277622
0
LINE
8
BLACK
6
CONTINUOUS
10
-0.522151
20
-0.00277622
11
-0.522152
21
-0.00277606
0
LINE
8
BLACK
6
CONTINUOUS
10
-0.522152
20
-0.00277606
11
-0.522176
21
-0.00274717
0
LINE
8
BLACK
6
CONTINUOUS
10
-0.522176
20
-0.00274717
11
-0.522213
21
-0.00270406
0
LINE
8
BLACK
6
CONTINUOUS
10
-0.522213
20
-0.00270406
11
-0.523708
21
-0.00120917
0
LINE
8
BLACK
6
CONTINUOUS
10
-0.523708
20
-0.00120917
11
-0.523787
21
-0.00112669
0
LINE
8
BLACK
6
CONTINUOUS
10
-0.523787
20
-0.00112669
11
-0.525192
21
0.00039311
0
LINE
8
BLACK
6
CONTINUOUS
10
-0.525192
20
0.00039311
11
-0.52534
21
0.000552953
0
LINE
8
BLACK
6
CONTINUOUS
10
-0.52534
20
0.000552953
11
-0.525528
21
0.000662323
0
LINE
8
BLACK
6
CONTINUOUS
10
-0.525528
20
0.000662323
11
-0.525661
21
0.000768504
0
LINE
8
BLACK
6
CONTINUOUS
10
-0.525661
20
0.000768504
11
-0.525899
21
0.000982126
0
LINE
8
BLACK
6
CONTINUOUS
10
-0.525899
20
0.000982126
11
-0.535643
21
0.0107253
0
LINE
8
BLACK
6
CONTINUOUS
10
-0.535643
20
0.0107253
11
-0.536471
21
0.0124051
0
LINE
8
BLACK
6
CONTINUOUS
10
-0.536471
20
0.0124051
11
-0.536511
21
0.0127082
0
LINE
8
BLACK
6
CONTINUOUS
10
-0.536511
20
0.0127082
11
-0.536669
21
0.0139096
0
LINE
8
BLACK
6
CONTINUOUS
10
-0.536669
20
0.0139096
11
-0.536942
21
0.0159826
0
LINE
8
BLACK
6
CONTINUOUS
10
-0.536942
20
0.0159826
11
-0.536942
21
0.0159827
0
LINE
8
BLACK
6
CONTINUOUS
10
-0.536942
20
0.0159827
11
-0.536967
21
0.0161717
0
LINE
8
BLACK
6
CONTINUOUS
10
-0.536967
20
0.0161717
11
-0.539349
21
0.0219229
0
LINE
8
BLACK
6
CONTINUOUS
10
-0.539349
20
0.0219229
11
-0.539465
21
0.0220742
0
LINE
8
BLACK
6
CONTINUOUS
10
-0.539465
20
0.0220742
11
-0.539465
21
0.0220744
0
LINE
8
BLACK
6
CONTINUOUS
10
-0.539465
20
0.0220744
11
-0.543022
21
0.0267099
0
LINE
8
BLACK
6
CONTINUOUS
10
-0.543022
20
0.0267099
11
-0.543139
21
0.0268615
0
LINE
8
BLACK
6
CONTINUOUS
10
-0.543139
20
0.0268615
11
-0.546151
21
0.029173
0
LINE
8
BLACK
6
CONTINUOUS
10
-0.546151
20
0.029173
11
-0.547926
21
0.0305348
0
LINE
8
BLACK
6
CONTINUOUS
10
-0.547926
20
0.0305348
11
-0.547926
21
0.0305349
0
LINE
8
BLACK
6
CONTINUOUS
10
-0.547926
20
0.0305349
11
-0.548077
21
0.030651
0
LINE
8
BLACK
6
CONTINUOUS
10
-0.548077
20
0.030651
11
-0.553828
21
0.0330332
0
LINE
8
BLACK
6
CONTINUOUS
10
-0.553828
20
0.0330332
11
-0.554017
21
0.0330581
0
LINE
8
BLACK
6
CONTINUOUS
10
-0.554017
20
0.0330581
11
-0.554017
21
0.0330581
0
LINE
8
BLACK
6
CONTINUOUS
10
-0.554017
20
0.0330581
11
-0.559811
21
0.0338208
0
LINE
8
BLACK
6
CONTINUOUS
10
-0.559811
20
0.0338208
11
-0.56
21
0.0338457
0
LINE
8
BLACK
6
CONTINUOUS
10
-0.56
20
0.0338457
11
-0.560189
21
0.0338208
0
LINE
8
BLACK
6
CONTINUOUS
10
-0.560189
20
0.0338208
11
-0.565983
21
0.0330581
0
LINE
8
BLACK
6
CONTINUOUS
10
-0.565983
20
0.0330581
11
-0.565983
21
0.0330581
0
LINE
8
BLACK
6
CONTINUOUS
10
-0.565983
20
0.0330581
11
-0.566172
21
0.0330332
0
LINE
8
BLACK
6
CONTINUOUS
10
-0.566172
20
0.0330332
11
-0.571923
21
0.030651
0
LINE
8
BLACK
6
CONTINUOUS
10
-0.571923
20
0.030651
11
-0.572074
21
0.0305349
0
LINE
8
BLACK
6
CONTINUOUS
10
-0.572074
20
0.0305349
11
-0.572074
21
0.0305348
0
LINE
8
BLACK
6
CONTINUOUS
10
-0.572074
20
0.0305348
11
-0.573849
21
0.029173
0
LINE
8
BLACK
6
CONTINUOUS
10
-0.573849
20
0.029173
11
-0.576861
21
0.0268615
0
LINE
8
BLACK
6
CONTINUOUS
10
-0.576861
20
0.0268615
11
-0.576978
21
0.0267099
0
LINE
8
BLACK
6
CONTINUOUS
10
-0.576978
20
0.0267099
11
-0.580535
21
0.0220744
0
LINE
8
BLACK
6
CONTINUOUS
10
-0.580535
20
0.0220744
11
-0.580535
21
0.0220742
0
LINE
8
BLACK
6
CONTINUOUS
10
-0.580535
20
0.0220742
11
-0.580651
21
0.0219229
0
LINE
8
BLACK
6
CONTINUOUS
10
-0.580651
20
0.0219229
11
-0.583033
21
0.0161717
0
LINE
8
BLACK
6
CONTINUOUS
10
-0.583033
20
0.0161717
11
-0.583058
21
0.0159827
0
LINE
8
BLACK
6
CONTINUOUS
10
-0.583058
20
0.0159827
11
-0.583058
21
0.0159826
0
LINE
8
BLACK
6
CONTINUOUS
10
-0.583058
20
0.0159826
11
-0.583577
21
0.0120424
0
LINE
8
BLACK
6
CONTINUOUS
10
-0.583577
20
0.0120424
11
-0.583846
21
0.01
0
LINE
8
BLACK
6
CONTINUOUS
10
-0.583846
20
0.01
11
-0.583821
21
0.00981071
0
LINE
8
BLACK
6
CONTINUOUS
10
-0.583821
20
0.00981071
11
-0.58355
21
0.00775638
0
LINE
8
BLACK
6
CONTINUOUS
10
-0.58355
20
0.00775638
11
-0.583033
21
0.00382827
0
LINE
8
BLACK
6
CONTINUOUS
10
-0.583033
20
0.00382827
11
-0.580651
21
-0.00192287
0
LINE
8
BLACK
6
CONTINUOUS
10
-0.580651
20
-0.00192287
11
-0.580535
21
-0.00207421
0
LINE
8
BLACK
6
CONTINUOUS
10
-0.580535
20
-0.00207421
11
-0.580535
21
-0.00207437
0
LINE
8
BLACK
6
CONTINUOUS
10
-0.580535
20
-0.00207437
11
-0.576978
21
-0.00670988
0
LINE
8
BLACK
6
CONTINUOUS
10
-0.576978
20
-0.00670988
11
-0.576861
21
-0.0068615
0
LINE
8
BLACK
6
CONTINUOUS
10
-0.576861
20
-0.0068615
11
-0.57671
21
-0.00697783
0
LINE
8
BLACK
6
CONTINUOUS
10
-0.57671
20
-0.00697783
11
-0.572074
21
-0.0105348
0
LINE
8
BLACK
6
CONTINUOUS
10
-0.572074
20
-0.0105348
11
-0.572074
21
-0.0105349
0
LINE
8
BLACK
6
CONTINUOUS
10
-0.572074
20
-0.0105349
11
-0.571923
21
-0.010651
0
LINE
8
BLACK
6
CONTINUOUS
10
-0.571923
20
-0.010651
11
-0.566172
21
-0.0130332
0
LINE
8
BLACK
6
CONTINUOUS
10
-0.566172
20
-0.0130332
11
-0.565983
21
-0.0130581
0
LINE
8
BLACK
6
CONTINUOUS
10
-0.565983
20
-0.0130581
11
-0.565983
21
-0.0130581
0
LINE
8
BLACK
6
CONTINUOUS
10
-0.565983
20
-0.0130581
11
-0.563736
21
-0.0133539
0
LINE
8
BLACK
6
CONTINUOUS
10
-0.563736
20
-0.0133539
11
-0.562405
21
-0.0135291
0
LINE
8
BLACK
6
CONTINUOUS
10
-0.562405
20
-0.0135291
11
-0.560725
21
-0.0143575
0
LINE
8
BLACK
6
CONTINUOUS
10
-0.560725
20
-0.0143575
11
-0.555144
21
-0.0199386
0
LINE
8
BLACK
6
CONTINUOUS
10
-0.555144
20
-0.0199386
11
-0.554302
21
-0.0217447
0
LINE
8
BLACK
6
CONTINUOUS
10
-0.554302
20
-0.0217447
11
-0.554291
21
-0.0219987
0
LINE
8
BLACK
6
CONTINUOUS
10
-0.554291
20
-0.0219987
11
-0.554291
21
-0.0897542
0
LINE
8
BLACK
6
CONTINUOUS
10
-0.554291
20
-0.0897542
11
-0.554252
21
-0.09
0
LINE
8
BLACK
6
CONTINUOUS
10
-0.554252
20
-0.09
11
-0.554291
21
-0.0902458
0
LINE
8
BLACK
6
CONTINUOUS
10
-0.554291
20
-0.0902458
11
-0.554291
21
-0.209729
0
LINE
8
BLACK
6
CONTINUOUS
10
-0.554291
20
-0.209729
11
-0.554973
21
-0.211602
0
LINE
8
BLACK
6
CONTINUOUS
10
-0.554973
20
-0.211602
11
-0.555431
21
-0.212041
0
LINE
8
BLACK
6
CONTINUOUS
10
-0.555431
20
-0.212041
11
-0.556861
21
-0.213139
0
LINE
8
BLACK
6
CONTINUOUS
10
-0.556861
20
-0.213139
11
-0.556978
21
-0.21329
0
LINE
8
BLACK
6
CONTINUOUS
10
-0.556978
20
-0.21329
11
-0.560535
21
-0.217926
0
LINE
8
BLACK
6
CONTINUOUS
10
-0.560535
20
-0.217926
11
-0.560535
21
-0.217926
0
LINE
8
BLACK
6
CONTINUOUS
10
-0.560535
20
-0.217926
11
-0.560651
21
-0.218077
0
LINE
8
BLACK
6
CONTINUOUS
10
-0.560651
20
-0.218077
11
-0.563033
21
-0.223828
0
LINE
8
BLACK
6
CONTINUOUS
10
-0.563033
20
-0.223828
11
-0.563058
21
-0.224017
0
LINE
8
BLACK
6
CONTINUOUS
10
-0.563058
20
-0.224017
11
-0.563058
21
-0.224017
0
LINE
8
BLACK
6
CONTINUOUS
10
-0.563058
20
-0.224017
11
-0.563365
21
-0.226348
0
LINE
8
BLACK
6
CONTINUOUS
10
-0.563365
20
-0.226348
11
-0.563846
21
-0.23
0
LINE
8
BLACK
6
CONTINUOUS
10
-0.563846
20
-0.23
11
-0.563821
21
-0.230189
0
LINE
8
BLACK
6
CONTINUOUS
10
-0.563821
20
-0.230189
11
-0.563235
21
-0.234637
0
LINE
8
BLACK
6
CONTINUOUS
10
-0.563235
20
-0.234637
11
-0.563033
21
-0.236172
0
LINE
8
BLACK
6
CONTINUOUS
10
-0.563033
20
-0.236172
11
-0.560651
21
-0.241923
0
LINE
8
BLACK
6
CONTINUOUS
10
-0.560651
20
-0.241923
11
-0.560535
21
-0.242074
0
LINE
8
BLACK
6
CONTINUOUS
10
-0.560535
20
-0.242074
11
-0.560535
21
-0.242074
0
LINE
8
BLACK
6
CONTINUOUS
10
-0.560535
20
-0.242074
11
-0.557267
21
-0.246333
0
LINE
8
BLACK
6
CONTINUOUS
10
-0.557267
20
-0.246333
11
-0.556861
21
-0.246861
0
LINE
8
BLACK
6
CONTINUOUS
10
-0.556861
20
-0.246861
11
-0.55671
21
-0.246978
0
LINE
8
BLACK
6
CONTINUOUS
10
-0.55671
20
-0.246978
11
-0.552074
21
-0.250535
0
LINE
8
BLACK
6
CONTINUOUS
10
-0.552074
20
-0.250535
11
-0.552074
21
-0.250535
0
LINE
8
BLACK
6
CONTINUOUS
10
-0.552074
20
-0.250535
11
-0.551923
21
-0.250651
0
LINE
8
BLACK
6
CONTINUOUS
10
-0.551923
20
-0.250651
11
-0.546172
21
-0.253033
0
LINE
8
BLACK
6
CONTINUOUS
10
-0.546172
20
-0.253033
11
-0.545983
21
-0.253058
0
LINE
8
BLACK
6
CONTINUOUS
10
-0.545983
20
-0.253058
11
-0.545983
21
-0.253058
0
LINE
8
BLACK
6
CONTINUOUS
10
-0.545983
20
-0.253058
11
-0.540189
21
-0.253821
0
LINE
8
BLACK
6
CONTINUOUS
10
-0.540189
20
-0.253821
11
-0.54
21
-0.253846
0
LINE
8
BLACK
6
CONTINUOUS
10
-0.54
20
-0.253846
11
-0.539811
21
-0.253821
0
LINE
8
BLACK
6
CONTINUOUS
10
-0.539811
20
-0.253821
11
-0.534017
21
-0.253058
0
LINE
8
BLACK
6
CONTINUOUS
10
-0.534017
20
-0.253058
11
-0.534017
21
-0.253058
0
LINE
8
BLACK
6
CONTINUOUS
10
-0.534017
20
-0.253058
11
-0.533828
21
-0.253033
0
LINE
8
BLACK
6
CONTINUOUS
10
-0.533828
20
-0.253033
11
-0.528077
21
-0.250651
0
LINE
8
BLACK
6
CONTINUOUS
10
-0.528077
20
-0.250651
11
-0.527926
21
-0.250535
0
LINE
8
BLACK
6
CONTINUOUS
10
-0.527926
20
-0.250535
11
-0.527926
21
-0.250535
0
LINE
8
BLACK
6
CONTINUOUS
10
-0.527926
20
-0.250535
11
-0.52329
21
-0.246978
0
LINE
8
BLACK
6
CONTINUOUS
10
-0.52329
20
-0.246978
11
-0.523139
21
-0.246861
0
LINE
8
BLACK
6
CONTINUOUS
10
-0.523139
20
-0.246861
11
-0.522733
21
-0.246333
0
LINE
8
BLACK
6
CONTINUOUS
10
-0.522733
20
-0.246333
11
-0.519465
21
-0.242074
0
LINE
8
BLACK
6
CONTINUOUS
10
-0.519465
20
-0.242074
11
-0.519465
21
-0.242074
0
LINE
8
BLACK
6
CONTINUOUS
10
-0.519465
20
-0.242074
11
-0.519349
21
-0.241923
0
LINE
8
BLACK
6
CONTINUOUS
10
-0.519349
20
-0.241923
11
-0.516967
21
-0.236172
0
LINE
8
BLACK
6
CONTINUOUS
10
-0.516967
20
-0.236172
11
-0.516765
21
-0.234637
0
LINE
8
BLACK
6
CONTINUOUS
10
-0.516765
20
-0.234637
11
-0.516179
21
-0.230189
0
LINE
8
BLACK
6
CONTINUOUS
10
-0.516179
20
-0.230189
11
-0.516154
21
-0.23
0
LINE
8
BLACK
6
CONTINUOUS
10
-0.516154
20
-0.23
11
-0.516635
21
-0.226348
0
LINE
8
BLACK
6
CONTINUOUS
10
-0.516635
20
-0.226348
11
-0.516942
21
-0.224017
0
LINE
8
BLACK
6
CONTINUOUS
10
-0.516942
20
-0.224017
11
-0.516942
21
-0.224017
0
LINE
8
BLACK
6
CONTINUOUS
10
-0.516942
20
-0.224017
11
-0.516967
21
-0.223828
0
LINE
8
BLACK
6
CONTINUOUS
10
-0.516967
20
-0.223828
11
-0.517421
21
-0.222733
0
LINE
8
BLACK
6
CONTINUOUS
10
-0.517421
20
-0.222733
11
-0.518597
21
-0.219893
0
LINE
8
BLACK
6
CONTINUOUS
10
-0.518597
20
-0.219893
11
-0.518818
21
-0.218778
0
LINE
8
BLACK
6
CONTINUOUS
10
-0.518818
20
-0.218778
11
-0.518818
21
-0.0146717
0
LINE
8
BLACK
6
CONTINUOUS
10
-0.518818
20
-0.0146717
11
-0.518798
21
-0.0143293
0
LINE
8
BLACK
6
CONTINUOUS
10
-0.518798
20
-0.0143293
11
-0.518712
21
-0.0136004
0
LINE
8
BLACK
6
CONTINUOUS
10
-0.518712
20
-0.0136004
11
-0.518653
21
-0.0130981
0
LINE
8
BLACK
6
CONTINUOUS
10
-0.518653
20
-0.0130981
11
-0.518627
21
-0.0128819
0
LINE
8
BLACK
6
CONTINUOUS
10
-0.524273
20
0.237097
11
-0.524157
21
0.236945
0
LINE
8
BLACK
6
CONTINUOUS
10
-0.524157
20
0.236945
11
-0.524157
21
0.236945
0
LINE
8
BLACK
6
CONTINUOUS
10
-0.524157
20
0.236945
11
-0.522074
21
0.23423
0
LINE
8
BLACK
6
CONTINUOUS
10
-0.522074
20
0.23423
11
-0.520484
21
0.232158
0
LINE
8
BLACK
6
CONTINUOUS
10
-0.520484
20
0.232158
11
-0.520332
21
0.232042
0
LINE
8
BLACK
6
CONTINUOUS
10
-0.520332
20
0.232042
11
-0.515696
21
0.228485
0
LINE
8
BLACK
6
CONTINUOUS
10
-0.515696
20
0.228485
11
-0.515696
21
0.228485
0
LINE
8
BLACK
6
CONTINUOUS
10
-0.515696
20
0.228485
11
-0.515545
21
0.228369
0
LINE
8
BLACK
6
CONTINUOUS
10
-0.515545
20
0.228369
11
-0.509794
21
0.225986
0
LINE
8
BLACK
6
CONTINUOUS
10
-0.509794
20
0.225986
11
-0.509605
21
0.225961
0
LINE
8
BLACK
6
CONTINUOUS
10
-0.509605
20
0.225961
11
-0.509605
21
0.225961
0
LINE
8
BLACK
6
CONTINUOUS
10
-0.509605
20
0.225961
11
-0.503811
21
0.225199
0
LINE
8
BLACK
6
CONTINUOUS
10
-0.503811
20
0.225199
11
-0.503622
21
0.225174
0
LINE
8
BLACK
6
CONTINUOUS
10
-0.503622
20
0.225174
11
-0.503433
21
0.225199
0
LINE
8
BLACK
6
CONTINUOUS
10
-0.503433
20
0.225199
11
-0.497639
21
0.225961
0
LINE
8
BLACK
6
CONTINUOUS
10
-0.497639
20
0.225961
11
-0.497639
21
0.225961
0
LINE
8
BLACK
6
CONTINUOUS
10
-0.497639
20
0.225961
11
-0.49745
21
0.225986
0
LINE
8
BLACK
6
CONTINUOUS
10
-0.49745
20
0.225986
11
-0.495178
21
0.226928
0
LINE
8
BLACK
6
CONTINUOUS
10
-0.495178
20
0.226928
11
-0.494063
21
0.227149
0
LINE
8
BLACK
6
CONTINUOUS
10
-0.494063
20
0.227149
11
-0.146028
21
0.227149
0
LINE
8
BLACK
6
CONTINUOUS
10
-0.146028
20
0.227149
11
-0.14537
21
0.227074
0
LINE
8
BLACK
6
CONTINUOUS
10
-0.14537
20
0.227074
11
-0.145069
21
0.227004
0
LINE
8
BLACK
6
CONTINUOUS
10
-0.145069
20
0.227004
11
-0.143123
21
0.227142
0
LINE
8
BLACK
6
CONTINUOUS
10
-0.143123
20
0.227142
11
-0.142917
21
0.227149
0
LINE
8
BLACK
6
CONTINUOUS
10
-0.142917
20
0.227149
11
0.0657421
21
0.227149
0
LINE
8
BLACK
6
CONTINUOUS
10
0.0657421
20
0.227149
11
0.0660845
21
0.227129
0
LINE
8
BLACK
6
CONTINUOUS
10
0.0660845
20
0.227129
11
0.066543
21
0.227075
0
LINE
8
BLACK
6
CONTINUOUS
10
0.066543
20
0.227075
11
0.0675319
21
0.226958
0
LINE
8
BLACK
6
CONTINUOUS
10
0.0675319
20
0.226958
11
0.0677461
21
0.226997
0
LINE
8
BLACK
6
CONTINUOUS
10
0.0677461
20
0.226997
11
0.0677463
21
0.226997
0
LINE
8
BLACK
6
CONTINUOUS
10
0.0677463
20
0.226997
11
0.0698346
21
0.227379
0
LINE
8
BLACK
6
CONTINUOUS
10
0.0698346
20
0.227379
11
0.0699249
21
0.227394
0
LINE
8
BLACK
6
CONTINUOUS
10
0.0699249
20
0.227394
11
0.0720274
21
0.22771
0
LINE
8
BLACK
6
CONTINUOUS
10
0.0720274
20
0.22771
11
0.0720274
21
0.22771
0
LINE
8
BLACK
6
CONTINUOUS
10
0.0720274
20
0.22771
11
0.0722426
21
0.227742
0
LINE
8
BLACK
6
CONTINUOUS
10
0.0722426
20
0.227742
11
0.072433
21
0.227833
0
LINE
8
BLACK
6
CONTINUOUS
10
0.072433
20
0.227833
11
0.0724463
21
0.227837
0
LINE
8
BLACK
6
CONTINUOUS
10
0.0724463
20
0.227837
11
0.0724567
21
0.22784
0
LINE
8
BLACK
6
CONTINUOUS
10
0.0724567
20
0.22784
11
0.0725448
21
0.227869
0
LINE
8
BLACK
6
CONTINUOUS
10
0.0725448
20
0.227869
11
0.0725569
21
0.227873
0
LINE
8
BLACK
6
CONTINUOUS
10
0.0725569
20
0.227873
11
0.0725707
21
0.227878
0
LINE
8
BLACK
6
CONTINUOUS
10
0.0725707
20
0.227878
11
0.0727785
21
0.227916
0
LINE
8
BLACK
6
CONTINUOUS
10
0.0727785
20
0.227916
11
0.074856
21
0.228995
0
LINE
8
BLACK
6
CONTINUOUS
10
0.074856
20
0.228995
11
0.0749375
21
0.229036
0
LINE
8
BLACK
6
CONTINUOUS
10
0.0749375
20
0.229036
11
0.076854
21
0.229956
0
LINE
8
BLACK
6
CONTINUOUS
10
0.076854
20
0.229956
11
0.0768541
21
0.229956
0
LINE
8
BLACK
6
CONTINUOUS
10
0.0768541
20
0.229956
11
0.0770504
21
0.230051
0
LINE
8
BLACK
6
CONTINUOUS
10
0.0770504
20
0.230051
11
0.0772056
21
0.230194
0
LINE
8
BLACK
6
CONTINUOUS
10
0.0772056
20
0.230194
11
0.0772414
21
0.230216
0
LINE
8
BLACK
6
CONTINUOUS
10
0.0772414
20
0.230216
11
0.0773639
21
0.230298
0
LINE
8
BLACK
6
CONTINUOUS
10
0.0773639
20
0.230298
11
0.0775113
21
0.230375
0
LINE
8
BLACK
6
CONTINUOUS
10
0.0775113
20
0.230375
11
0.0777098
21
0.230544
0
LINE
8
BLACK
6
CONTINUOUS
10
0.0777098
20
0.230544
11
0.0792046
21
0.232039
0
LINE
8
BLACK
6
CONTINUOUS
10
0.0792046
20
0.232039
11
0.0792871
21
0.232118
0
LINE
8
BLACK
6
CONTINUOUS
10
0.0792871
20
0.232118
11
0.0808069
21
0.233523
0
LINE
8
BLACK
6
CONTINUOUS
10
0.0808069
20
0.233523
11
0.0809668
21
0.233671
0
LINE
8
BLACK
6
CONTINUOUS
10
0.0809668
20
0.233671
11
0.0810761
21
0.233859
0
LINE
8
BLACK
6
CONTINUOUS
10
0.0810761
20
0.233859
11
0.0811823
21
0.233992
0
LINE
8
BLACK
6
CONTINUOUS
10
0.0811823
20
0.233992
11
0.0813959
21
0.23423
0
LINE
8
BLACK
6
CONTINUOUS
10
0.0813959
20
0.23423
11
0.127182
21
0.280016
0
LINE
8
BLACK
6
CONTINUOUS
10
0.127182
20
0.280016
11
0.128862
21
0.280845
0
LINE
8
BLACK
6
CONTINUOUS
10
0.128862
20
0.280845
11
0.130193
21
0.28102
0
LINE
8
BLACK
6
CONTINUOUS
10
0.130193
20
0.28102
11
0.132439
21
0.281316
0
LINE
8
BLACK
6
CONTINUOUS
10
0.132439
20
0.281316
11
0.132439
21
0.281316
0
LINE
8
BLACK
6
CONTINUOUS
10
0.132439
20
0.281316
11
0.132628
21
0.281341
0
LINE
8
BLACK
6
CONTINUOUS
10
0.132628
20
0.281341
11
0.13838
21
0.283723
0
LINE
8
BLACK
6
CONTINUOUS
10
0.13838
20
0.283723
11
0.138531
21
0.283839
0
LINE
8
BLACK
6
CONTINUOUS
10
0.138531
20
0.283839
11
0.138531
21
0.283839
0
LINE
8
BLACK
6
CONTINUOUS
10
0.138531
20
0.283839
11
0.143167
21
0.287396
0
LINE
8
BLACK
6
CONTINUOUS
10
0.143167
20
0.287396
11
0.143318
21
0.287512
0
LINE
8
BLACK
6
CONTINUOUS
10
0.143318
20
0.287512
11
0.143435
21
0.287664
0
LINE
8
BLACK
6
CONTINUOUS
10
0.143435
20
0.287664
11
0.146991
21
0.292299
0
LINE
8
BLACK
6
CONTINUOUS
10
0.146991
20
0.292299
11
0.146992
21
0.2923
0
LINE
8
BLACK
6
CONTINUOUS
10
0.146992
20
0.2923
11
0.147108
21
0.292451
0
LINE
8
BLACK
6
CONTINUOUS
10
0.147108
20
0.292451
11
0.14949
21
0.298202
0
LINE
8
BLACK
6
CONTINUOUS
10
0.14949
20
0.298202
11
0.150302
21
0.304374
0
LINE
8
BLACK
6
CONTINUOUS
10
0.150302
20
0.304374
11
0.150115
21
0.305798
0
LINE
8
BLACK
6
CONTINUOUS
10
0.150115
20
0.305798
11
0.149515
21
0.310356
0
LINE
8
BLACK
6
CONTINUOUS
10
0.149515
20
0.310356
11
0.149515
21
0.310357
0
LINE
8
BLACK
6
CONTINUOUS
10
0.149515
20
0.310357
11
0.14949
21
0.310546
0
LINE
8
BLACK
6
CONTINUOUS
10
0.14949
20
0.310546
11
0.147108
21
0.316297
0
LINE
8
BLACK
6
CONTINUOUS
10
0.147108
20
0.316297
11
0.146992
21
0.316448
0
LINE
8
BLACK
6
CONTINUOUS
10
0.146992
20
0.316448
11
0.146991
21
0.316448
0
LINE
8
BLACK
6
CONTINUOUS
10
0.146991
20
0.316448
11
0.143435
21
0.321084
0
LINE
8
BLACK
6
CONTINUOUS
10
0.143435
20
0.321084
11
0.143318
21
0.321235
0
LINE
8
BLACK
6
CONTINUOUS
10
0.143318
20
0.321235
11
0.14235
21
0.321978
0
LINE
8
BLACK
6
CONTINUOUS
10
0.14235
20
0.321978
11
0.138531
21
0.324909
0
LINE
8
BLACK
6
CONTINUOUS
10
0.138531
20
0.324909
11
0.138531
21
0.324909
0
LINE
8
BLACK
6
CONTINUOUS
10
0.138531
20
0.324909
11
0.13838
21
0.325025
0
LINE
8
BLACK
6
CONTINUOUS
10
0.13838
20
0.325025
11
0.132628
21
0.327407
0
LINE
8
BLACK
6
CONTINUOUS
10
0.132628
20
0.327407
11
0.132439
21
0.327432
0
LINE
8
BLACK
6
CONTINUOUS
10
0.132439
20
0.327432
11
0.132439
21
0.327432
0
LINE
8
BLACK
6
CONTINUOUS
10
0.132439
20
0.327432
11
0.126646
21
0.328195
0
LINE
8
BLACK
6
CONTINUOUS
10
0.126646
20
0.328195
11
0.126457
21
0.32822
0
LINE
8
BLACK
6
CONTINUOUS
10
0.126457
20
0.32822
11
0.126267
21
0.328195
0
LINE
8
BLACK
6
CONTINUOUS
10
0.126267
20
0.328195
11
0.120474
21
0.327432
0
LINE
8
BLACK
6
CONTINUOUS
10
0.120474
20
0.327432
11
0.120474
21
0.327432
0
LINE
8
BLACK
6
CONTINUOUS
10
0.120474
20
0.327432
11
0.120285
21
0.327407
0
LINE
8
BLACK
6
CONTINUOUS
10
0.120285
20
0.327407
11
0.114534
21
0.325025
0
LINE
8
BLACK
6
CONTINUOUS
10
0.114534
20
0.325025
11
0.114382
21
0.324909
0
LINE
8
BLACK
6
CONTINUOUS
10
0.114382
20
0.324909
11
0.114382
21
0.324909
0
LINE
8
BLACK
6
CONTINUOUS
10
0.114382
20
0.324909
11
0.110563
21
0.321978
0
LINE
8
BLACK
6
CONTINUOUS
10
0.110563
20
0.321978
11
0.109595
21
0.321235
0
LINE
8
BLACK
6
CONTINUOUS
10
0.109595
20
0.321235
11
0.109479
21
0.321084
0
LINE
8
BLACK
6
CONTINUOUS
10
0.109479
20
0.321084
11
0.105922
21
0.316448
0
LINE
8
BLACK
6
CONTINUOUS
10
0.105922
20
0.316448
11
0.105922
21
0.316448
0
LINE
8
BLACK
6
CONTINUOUS
10
0.105922
20
0.316448
11
0.105806
21
0.316297
0
LINE
8
BLACK
6
CONTINUOUS
10
0.105806
20
0.316297
11
0.103423
21
0.310546
0
LINE
8
BLACK
6
CONTINUOUS
10
0.103423
20
0.310546
11
0.103399
21
0.310357
0
LINE
8
BLACK
6
CONTINUOUS
10
0.103399
20
0.310357
11
0.103399
21
0.310356
0
LINE
8
BLACK
6
CONTINUOUS
10
0.103399
20
0.310356
11
0.102928
21
0.306779
0
LINE
8
BLACK
6
CONTINUOUS
10
0.102928
20
0.306779
11
0.102099
21
0.305099
0
LINE
8
BLACK
6
CONTINUOUS
10
0.102099
20
0.305099
11
0.0604752
21
0.263475
0
LINE
8
BLACK
6
CONTINUOUS
10
0.0604752
20
0.263475
11
0.0586691
21
0.262633
0
LINE
8
BLACK
6
CONTINUOUS
10
0.0586691
20
0.262633
11
0.0584152
21
0.262622
0
LINE
8
BLACK
6
CONTINUOUS
10
0.0584152
20
0.262622
11
-0.123012
21
0.262622
0
LINE
8
BLACK
6
CONTINUOUS
10
-0.123012
20
0.262622
11
-0.124884
21
0.263304
0
LINE
8
BLACK
6
CONTINUOUS
10
-0.124884
20
0.263304
11
-0.125881
21
0.265029
0
LINE
8
BLACK
6
CONTINUOUS
10
-0.125881
20
0.265029
11
-0.125925
21
0.265535
0
LINE
8
BLACK
6
CONTINUOUS
10
-0.125925
20
0.265535
11
-0.125925
21
0.302725
0
LINE
8
BLACK
6
CONTINUOUS
10
-0.125925
20
0.302725
11
-0.125323
21
0.304499
0
LINE
8
BLACK
6
CONTINUOUS
10
-0.125323
20
0.304499
11
-0.122694
21
0.307926
0
LINE
8
BLACK
6
CONTINUOUS
10
-0.122694
20
0.307926
11
-0.122577
21
0.308077
0
LINE
8
BLACK
6
CONTINUOUS
10
-0.122577
20
0.308077
11
-0.120195
21
0.313828
0
LINE
8
BLACK
6
CONTINUOUS
10
-0.120195
20
0.313828
11
-0.11987
21
0.316297
0
LINE
8
BLACK
6
CONTINUOUS
10
-0.11987
20
0.316297
11
-0.119408
21
0.319811
0
LINE
8
BLACK
6
CONTINUOUS
10
-0.119408
20
0.319811
11
-0.119383
21
0.32
0
LINE
8
BLACK
6
CONTINUOUS
10
-0.119383
20
0.32
11
-0.120195
21
0.326172
0
LINE
8
BLACK
6
CONTINUOUS
10
-0.120195
20
0.326172
11
-0.122577
21
0.331923
0
LINE
8
BLACK
6
CONTINUOUS
10
-0.122577
20
0.331923
11
-0.122693
21
0.332074
0
LINE
8
BLACK
6
CONTINUOUS
10
-0.122693
20
0.332074
11
-0.122694
21
0.332074
0
LINE
8
BLACK
6
CONTINUOUS
10
-0.122694
20
0.332074
11
-0.126251
21
0.33671
0
LINE
8
BLACK
6
CONTINUOUS
10
-0.126251
20
0.33671
11
-0.126367
21
0.336861
0
LINE
8
BLACK
6
CONTINUOUS
10
-0.126367
20
0.336861
11
-0.126518
21
0.336978
0
LINE
8
BLACK
6
CONTINUOUS
10
-0.126518
20
0.336978
11
-0.131154
21
0.340535
0
LINE
8
BLACK
6
CONTINUOUS
10
-0.131154
20
0.340535
11
-0.131154
21
0.340535
0
LINE
8
BLACK
6
CONTINUOUS
10
-0.131154
20
0.340535
11
-0.131305
21
0.340651
0
LINE
8
BLACK
6
CONTINUOUS
10
-0.131305
20
0.340651
11
-0.137057
21
0.343033
0
LINE
8
BLACK
6
CONTINUOUS
10
-0.137057
20
0.343033
11
-0.137246
21
0.343058
0
LINE
8
BLACK
6
CONTINUOUS
10
-0.137246
20
0.343058
11
-0.137246
21
0.343058
0
LINE
8
BLACK
6
CONTINUOUS
10
-0.137246
20
0.343058
11
-0.143039
21
0.343821
0
LINE
8
BLACK
6
CONTINUOUS
10
-0.143039
20
0.343821
11
-0.143228
21
0.343846
0
LINE
8
BLACK
6
CONTINUOUS
10
-0.143228
20
0.343846
11
-0.143418
21
0.343821
0
LINE
8
BLACK
6
CONTINUOUS
10
-0.143418
20
0.343821
11
-0.149211
21
0.343058
0
LINE
8
BLACK
6
CONTINUOUS
10
-0.149211
20
0.343058
11
-0.149211
21
0.343058
0
LINE
8
BLACK
6
CONTINUOUS
10
-0.149211
20
0.343058
11
-0.1494
21
0.343033
0
LINE
8
BLACK
6
CONTINUOUS
10
-0.1494
20
0.343033
11
-0.155151
21
0.340651
0
LINE
8
BLACK
6
CONTINUOUS
10
-0.155151
20
0.340651
11
-0.155303
21
0.340535
0
LINE
8
BLACK
6
CONTINUOUS
10
-0.155303
20
0.340535
11
-0.155303
21
0.340535
0
LINE
8
BLACK
6
CONTINUOUS
10
-0.155303
20
0.340535
11
-0.159938
21
0.336978
0
LINE
8
BLACK
6
CONTINUOUS
10
-0.159938
20
0.336978
11
-0.16009
21
0.336861
0
LINE
8
BLACK
6
CONTINUOUS
10
-0.16009
20
0.336861
11
-0.160206
21
0.33671
0
LINE
8
BLACK
6
CONTINUOUS
10
-0.160206
20
0.33671
11
-0.163763
21
0.332074
0
LINE
8
BLACK
6
CONTINUOUS
10
-0.163763
20
0.332074
11
-0.163763
21
0.332074
0
LINE
8
BLACK
6
CONTINUOUS
10
-0.163763
20
0.332074
11
-0.163879
21
0.331923
0
LINE
8
BLACK
6
CONTINUOUS
10
-0.163879
20
0.331923
11
-0.166262
21
0.326172
0
LINE
8
BLACK
6
CONTINUOUS
10
-0.166262
20
0.326172
11
-0.167074
21
0.32
0
LINE
8
BLACK
6
CONTINUOUS
10
-0.167074
20
0.32
11
-0.167049
21
0.319811
0
LINE
8
BLACK
6
CONTINUOUS
10
-0.167049
20
0.319811
11
-0.166587
21
0.316297
0
LINE
8
BLACK
6
CONTINUOUS
10
-0.166587
20
0.316297
11
-0.166262
21
0.313828
0
LINE
8
BLACK
6
CONTINUOUS
10
-0.166262
20
0.313828
11
-0.163879
21
0.308077
0
LINE
8
BLACK
6
CONTINUOUS
10
-0.163879
20
0.308077
11
-0.163763
21
0.307926
0
LINE
8
BLACK
6
CONTINUOUS
10
-0.163763
20
0.307926
11
-0.162
21
0.305627
0
LINE
8
BLACK
6
CONTINUOUS
10
-0.162
20
0.305627
11
-0.161398
21
0.303854
0
LINE
8
BLACK
6
CONTINUOUS
10
-0.161398
20
0.303854
11
-0.161398
21
0.265535
0
LINE
8
BLACK
6
CONTINUOUS
10
-0.161398
20
0.265535
11
-0.162079
21
0.263663
0
LINE
8
BLACK
6
CONTINUOUS
10
-0.162079
20
0.263663
11
-0.163805
21
0.262666
0
LINE
8
BLACK
6
CONTINUOUS
10
-0.163805
20
0.262666
11
-0.164311
21
0.262622
0
LINE
8
BLACK
6
CONTINUOUS
10
-0.164311
20
0.262622
11
-0.482823
21
0.262622
0
LINE
8
BLACK
6
CONTINUOUS
10
-0.482823
20
0.262622
11
-0.484696
21
0.263304
0
LINE
8
BLACK
6
CONTINUOUS
10
-0.484696
20
0.263304
11
-0.485134
21
0.263762
0
LINE
8
BLACK
6
CONTINUOUS
10
-0.485134
20
0.263762
11
-0.486644
21
0.265729
0
LINE
8
BLACK
6
CONTINUOUS
10
-0.486644
20
0.265729
11
-0.486761
21
0.265881
0
LINE
8
BLACK
6
CONTINUOUS
10
-0.486761
20
0.265881
11
-0.486912
21
0.265997
0
LINE
8
BLACK
6
CONTINUOUS
10
-0.486912
20
0.265997
11
-0.491548
21
0.269554
0
LINE
8
BLACK
6
CONTINUOUS
10
-0.491548
20
0.269554
11
-0.491548
21
0.269554
0
LINE
8
BLACK
6
CONTINUOUS
10
-0.491548
20
0.269554
11
-0.491699
21
0.269671
0
LINE
8
BLACK
6
CONTINUOUS
10
-0.491699
20
0.269671
11
-0.49745
21
0.272053
0
LINE
8
BLACK
6
CONTINUOUS
10
-0.49745
20
0.272053
11
-0.497639
21
0.272078
0
LINE
8
BLACK
6
CONTINUOUS
10
-0.497639
20
0.272078
11
-0.497639
21
0.272078
0
LINE
8
BLACK
6
CONTINUOUS
10
-0.497639
20
0.272078
11
-0.503433
21
0.27284
0
LINE
8
BLACK
6
CONTINUOUS
10
-0.503433
20
0.27284
11
-0.503622
21
0.272865
0
LINE
8
BLACK
6
CONTINUOUS
10
-0.503622
20
0.272865
11
-0.503811
21
0.27284
0
LINE
8
BLACK
6
CONTINUOUS
10
-0.503811
20
0.27284
11
-0.509605
21
0.272078
0
LINE
8
BLACK
6
CONTINUOUS
10
-0.509605
20
0.272078
11
-0.509605
21
0.272078
0
LINE
8
BLACK
6
CONTINUOUS
10
-0.509605
20
0.272078
11
-0.509794
21
0.272053
0
LINE
8
BLACK
6
CONTINUOUS
10
-0.509794
20
0.272053
11
-0.515545
21
0.269671
0
LINE
8
BLACK
6
CONTINUOUS
10
-0.515545
20
0.269671
11
-0.515696
21
0.269554
0
LINE
8
BLACK
6
CONTINUOUS
10
-0.515696
20
0.269554
11
-0.515696
21
0.269554
0
LINE
8
BLACK
6
CONTINUOUS
10
-0.515696
20
0.269554
11
-0.520332
21
0.265997
0
LINE
8
BLACK
6
CONTINUOUS
10
-0.520332
20
0.265997
11
-0.520484
21
0.265881
0
LINE
8
BLACK
6
CONTINUOUS
10
-0.520484
20
0.265881
11
-0.5206
21
0.265729
0
LINE
8
BLACK
6
CONTINUOUS
10
-0.5206
20
0.265729
11
-0.524157
21
0.261094
0
LINE
8
BLACK
6
CONTINUOUS
10
-0.524157
20
0.261094
11
-0.524157
21
0.261094
0
LINE
8
BLACK
6
CONTINUOUS
10
-0.524157
20
0.261094
11
-0.524273
21
0.260942
0
LINE
8
BLACK
6
CONTINUOUS
10
-0.524273
20
0.260942
11
-0.526655
21
0.255191
0
LINE
8
BLACK
6
CONTINUOUS
10
-0.526655
20
0.255191
11
-0.52668
21
0.255002
0
LINE
8
BLACK
6
CONTINUOUS
10
-0.52668
20
0.255002
11
-0.52668
21
0.255002
0
LINE
8
BLACK
6
CONTINUOUS
10
-0.52668
20
0.255002
11
-0.526949
21
0.25296
0
LINE
8
BLACK
6
CONTINUOUS
10
-0.526949
20
0.25296
11
-0.527468
21
0.24902
0
LINE
8
BLACK
6
CONTINUOUS
10
-0.527468
20
0.24902
11
-0.526655
21
0.242848
0
LINE
8
BLACK
6
CONTINUOUS
10
-0.526655
20
0.242848
11
-0.524273
21
0.237097
0
LINE
8
BLACK
6
CONTINUOUS
10
-0.75321
20
0.225174
11
-0.753033
21
0.223828
0
LINE
8
BLACK
6
CONTINUOUS
10
-0.753033
20
0.223828
11
-0.750651
21
0.218077
0
LINE
8
BLACK
6
CONTINUOUS
10
-0.750651
20
0.218077
11
-0.750535
21
0.217926
0
LINE
8
BLACK
6
CONTINUOUS
10
-0.750535
20
0.217926
11
-0.750535
21
0.217926
0
LINE
8
BLACK
6
CONTINUOUS
10
-0.750535
20
0.217926
11
-0.746978
21
0.21329
0
LINE
8
BLACK
6
CONTINUOUS
10
-0.746978
20
0.21329
11
-0.746861
21
0.213139
0
LINE
8
BLACK
6
CONTINUOUS
10
-0.746861
20
0.213139
11
-0.74671
21
0.213022
0
LINE
8
BLACK
6
CONTINUOUS
10
-0.74671
20
0.213022
11
-0.742074
21
0.209465
0
LINE
8
BLACK
6
CONTINUOUS
10
-0.742074
20
0.209465
11
-0.742074
21
0.209465
0
LINE
8
BLACK
6
CONTINUOUS
10
-0.742074
20
0.209465
11
-0.741923
21
0.209349
0
LINE
8
BLACK
6
CONTINUOUS
10
-0.741923
20
0.209349
11
-0.736172
21
0.206967
0
LINE
8
BLACK
6
CONTINUOUS
10
-0.736172
20
0.206967
11
-0.735983
21
0.206942
0
LINE
8
BLACK
6
CONTINUOUS
10
-0.735983
20
0.206942
11
-0.735983
21
0.206942
0
LINE
8
BLACK
6
CONTINUOUS
10
-0.735983
20
0.206942
11
-0.733736
21
0.206646
0
LINE
8
BLACK
6
CONTINUOUS
10
-0.733736
20
0.206646
11
-0.732405
21
0.206471
0
LINE
8
BLACK
6
CONTINUOUS
10
-0.732405
20
0.206471
11
-0.730725
21
0.205643
0
LINE
8
BLACK
6
CONTINUOUS
10
-0.730725
20
0.205643
11
-0.62859
21
0.103507
0
LINE
8
BLACK
6
CONTINUOUS
10
-0.62859
20
0.103507
11
-0.627747
21
0.101701
0
LINE
8
BLACK
6
CONTINUOUS
10
-0.627747
20
0.101701
11
-0.627736
21
0.101447
0
LINE
8
BLACK
6
CONTINUOUS
10
-0.627736
20
0.101447
11
-0.627736
21
-0.108774
0
LINE
8
BLACK
6
CONTINUOUS
10
-0.627736
20
-0.108774
11
-0.627756
21
-0.109116
0
LINE
8
BLACK
6
CONTINUOUS
10
-0.627756
20
-0.109116
11
-0.627928
21
-0.110563
0
LINE
8
BLACK
6
CONTINUOUS
10
-0.627928
20
-0.110563
11
-0.627889
21
-0.110778
0
LINE
8
BLACK
6
CONTINUOUS
10
-0.627889
20
-0.110778
11
-0.627889
21
-0.110778
0
LINE
8
BLACK
6
CONTINUOUS
10
-0.627889
20
-0.110778
11
-0.627507
21
-0.112866
0
LINE
8
BLACK
6
CONTINUOUS
10
-0.627507
20
-0.112866
11
-0.627492
21
-0.112956
0
LINE
8
BLACK
6
CONTINUOUS
10
-0.627492
20
-0.112956
11
-0.627248
21
-0.114583
0
LINE
8
BLACK
6
CONTINUOUS
10
-0.627248
20
-0.114583
11
-0.627144
21
-0.115274
0
LINE
8
BLACK
6
CONTINUOUS
10
-0.627144
20
-0.115274
11
-0.627052
21
-0.115464
0
LINE
8
BLACK
6
CONTINUOUS
10
-0.627052
20
-0.115464
11
-0.627049
21
-0.115478
0
LINE
8
BLACK
6
CONTINUOUS
10
-0.627049
20
-0.115478
11
-0.627045
21
-0.115488
0
LINE
8
BLACK
6
CONTINUOUS
10
-0.627045
20
-0.115488
11
-0.627017
21
-0.115576
0
LINE
8
BLACK
6
CONTINUOUS
10
-0.627017
20
-0.115576
11
-0.627013
21
-0.115588
0
LINE
8
BLACK
6
CONTINUOUS
10
-0.627013
20
-0.115588
11
-0.627007
21
-0.115602
0
LINE
8
BLACK
6
CONTINUOUS
10
-0.627007
20
-0.115602
11
-0.626969
21
-0.11581
0
LINE
8
BLACK
6
CONTINUOUS
10
-0.626969
20
-0.11581
11
-0.626869
21
-0.116003
0
LINE
8
BLACK
6
CONTINUOUS
10
-0.626869
20
-0.116003
11
-0.62589
21
-0.117887
0
LINE
8
BLACK
6
CONTINUOUS
10
-0.62589
20
-0.117887
11
-0.62585
21
-0.117969
0
LINE
8
BLACK
6
CONTINUOUS
10
-0.62585
20
-0.117969
11
-0.624835
21
-0.120082
0
LINE
8
BLACK
6
CONTINUOUS
10
-0.624835
20
-0.120082
11
-0.624691
21
-0.120237
0
LINE
8
BLACK
6
CONTINUOUS
10
-0.624691
20
-0.120237
11
-0.62467
21
-0.120273
0
LINE
8
BLACK
6
CONTINUOUS
10
-0.62467
20
-0.120273
11
-0.624588
21
-0.120395
0
LINE
8
BLACK
6
CONTINUOUS
10
-0.624588
20
-0.120395
11
-0.624511
21
-0.120543
0
LINE
8
BLACK
6
CONTINUOUS
10
-0.624511
20
-0.120543
11
-0.624342
21
-0.120741
0
LINE
8
BLACK
6
CONTINUOUS
10
-0.624342
20
-0.120741
11
-0.622847
21
-0.122236
0
LINE
8
BLACK
6
CONTINUOUS
10
-0.622847
20
-0.122236
11
-0.622767
21
-0.122319
0
LINE
8
BLACK
6
CONTINUOUS
10
-0.622767
20
-0.122319
11
-0.621215
21
-0.123998
0
LINE
8
BLACK
6
CONTINUOUS
10
-0.621215
20
-0.123998
11
-0.621026
21
-0.124108
0
LINE
8
BLACK
6
CONTINUOUS
10
-0.621026
20
-0.124108
11
-0.620894
21
-0.124214
0
LINE
8
BLACK
6
CONTINUOUS
10
-0.620894
20
-0.124214
11
-0.620655
21
-0.124427
0
LINE
8
BLACK
6
CONTINUOUS
10
-0.620655
20
-0.124427
11
-0.618028
21
-0.127055
0
LINE
8
BLACK
6
CONTINUOUS
10
-0.618028
20
-0.127055
11
-0.6172
21
-0.128734
0
LINE
8
BLACK
6
CONTINUOUS
10
-0.6172
20
-0.128734
11
-0.616704
21
-0.132501
0
LINE
8
BLACK
6
CONTINUOUS
10
-0.616704
20
-0.132501
11
-0.614322
21
-0.138252
0
LINE
8
BLACK
6
CONTINUOUS
10
-0.614322
20
-0.138252
11
-0.614206
21
-0.138404
0
LINE
8
BLACK
6
CONTINUOUS
10
-0.614206
20
-0.138404
11
-0.614206
21
-0.138404
0
LINE
8
BLACK
6
CONTINUOUS
10
-0.614206
20
-0.138404
11
-0.612247
21
-0.140956
0
LINE
8
BLACK
6
CONTINUOUS
10
-0.612247
20
-0.140956
11
-0.610532
21
-0.143191
0
LINE
8
BLACK
6
CONTINUOUS
10
-0.610532
20
-0.143191
11
-0.610381
21
-0.143307
0
LINE
8
BLACK
6
CONTINUOUS
10
-0.610381
20
-0.143307
11
-0.605745
21
-0.146864
0
LINE
8
BLACK
6
CONTINUOUS
10
-0.605745
20
-0.146864
11
-0.605745
21
-0.146864
0
LINE
8
BLACK
6
CONTINUOUS
10
-0.605745
20
-0.146864
11
-0.605594
21
-0.14698
0
LINE
8
BLACK
6
CONTINUOUS
10
-0.605594
20
-0.14698
11
-0.599842
21
-0.149363
0
LINE
8
BLACK
6
CONTINUOUS
10
-0.599842
20
-0.149363
11
-0.599653
21
-0.149387
0
LINE
8
BLACK
6
CONTINUOUS
10
-0.599653
20
-0.149387
11
-0.599653
21
-0.149387
0
LINE
8
BLACK
6
CONTINUOUS
10
-0.599653
20
-0.149387
11
-0.59386
21
-0.15015
0
LINE
8
BLACK
6
CONTINUOUS
10
-0.59386
20
-0.15015
11
-0.593671
21
-0.150175
0
LINE
8
BLACK
6
CONTINUOUS
10
-0.593671
20
-0.150175
11
-0.593481
21
-0.15015
0
LINE
8
BLACK
6
CONTINUOUS
10
-0.593481
20
-0.15015
11
-0.587688
21
-0.149387
0
LINE
8
BLACK
6
CONTINUOUS
10
-0.587688
20
-0.149387
11
-0.587688
21
-0.149387
0
LINE
8
BLACK
6
CONTINUOUS
10
-0.587688
20
-0.149387
11
-0.587499
21
-0.149363
0
LINE
8
BLACK
6
CONTINUOUS
10
-0.587499
20
-0.149363
11
-0.581748
21
-0.14698
0
LINE
8
BLACK
6
CONTINUOUS
10
-0.581748
20
-0.14698
11
-0.581596
21
-0.146864
0
LINE
8
BLACK
6
CONTINUOUS
10
-0.581596
20
-0.146864
11
-0.581596
21
-0.146864
0
LINE
8
BLACK
6
CONTINUOUS
10
-0.581596
20
-0.146864
11
-0.576961
21
-0.143307
0
LINE
8
BLACK
6
CONTINUOUS
10
-0.576961
20
-0.143307
11
-0.576809
21
-0.143191
0
LINE
8
BLACK
6
CONTINUOUS
10
-0.576809
20
-0.143191
11
-0.575095
21
-0.140956
0
LINE
8
BLACK
6
CONTINUOUS
10
-0.575095
20
-0.140956
11
-0.573136
21
-0.138404
0
LINE
8
BLACK
6
CONTINUOUS
10
-0.573136
20
-0.138404
11
-0.573136
21
-0.138404
0
LINE
8
BLACK
6
CONTINUOUS
10
-0.573136
20
-0.138404
11
-0.57302
21
-0.138252
0
LINE
8
BLACK
6
CONTINUOUS
10
-0.57302
20
-0.138252
11
-0.570637
21
-0.132501
0
LINE
8
BLACK
6
CONTINUOUS
10
-0.570637
20
-0.132501
11
-0.570142
21
-0.128734
0
LINE
8
BLACK
6
CONTINUOUS
10
-0.570142
20
-0.128734
11
-0.56985
21
-0.126519
0
LINE
8
BLACK
6
CONTINUOUS
10
-0.56985
20
-0.126519
11
-0.569825
21
-0.126329
0
LINE
8
BLACK
6
CONTINUOUS
10
-0.569825
20
-0.126329
11
-0.570153
21
-0.123838
0
LINE
8
BLACK
6
CONTINUOUS
10
-0.570153
20
-0.123838
11
-0.570613
21
-0.120347
0
LINE
8
BLACK
6
CONTINUOUS
10
-0.570613
20
-0.120347
11
-0.570613
21
-0.120347
0
LINE
8
BLACK
6
CONTINUOUS
10
-0.570613
20
-0.120347
11
-0.570637
21
-0.120158
0
LINE
8
BLACK
6
CONTINUOUS
10
-0.570637
20
-0.120158
11
-0.57302
21
-0.114406
0
LINE
8
BLACK
6
CONTINUOUS
10
-0.57302
20
-0.114406
11
-0.573136
21
-0.114255
0
LINE
8
BLACK
6
CONTINUOUS
10
-0.573136
20
-0.114255
11
-0.573136
21
-0.114255
0
LINE
8
BLACK
6
CONTINUOUS
10
-0.573136
20
-0.114255
11
-0.576693
21
-0.109619
0
LINE
8
BLACK
6
CONTINUOUS
10
-0.576693
20
-0.109619
11
-0.576809
21
-0.109468
0
LINE
8
BLACK
6
CONTINUOUS
10
-0.576809
20
-0.109468
11
-0.577268
21
-0.109116
0
LINE
8
BLACK
6
CONTINUOUS
10
-0.577268
20
-0.109116
11
-0.581596
21
-0.105794
0
LINE
8
BLACK
6
CONTINUOUS
10
-0.581596
20
-0.105794
11
-0.581596
21
-0.105794
0
LINE
8
BLACK
6
CONTINUOUS
10
-0.581596
20
-0.105794
11
-0.581748
21
-0.105678
0
LINE
8
BLACK
6
CONTINUOUS
10
-0.581748
20
-0.105678
11
-0.587499
21
-0.103296
0
LINE
8
BLACK
6
CONTINUOUS
10
-0.587499
20
-0.103296
11
-0.587688
21
-0.103271
0
LINE
8
BLACK
6
CONTINUOUS
10
-0.587688
20
-0.103271
11
-0.587688
21
-0.103271
0
LINE
8
BLACK
6
CONTINUOUS
10
-0.587688
20
-0.103271
11
-0.589731
21
-0.103002
0
LINE
8
BLACK
6
CONTINUOUS
10
-0.589731
20
-0.103002
11
-0.591498
21
-0.102082
0
LINE
8
BLACK
6
CONTINUOUS
10
-0.591498
20
-0.102082
11
-0.592264
21
-0.100114
0
LINE
8
BLACK
6
CONTINUOUS
10
-0.592264
20
-0.100114
11
-0.592264
21
0.0789998
0
LINE
8
BLACK
6
CONTINUOUS
10
-0.592264
20
0.0789998
11
-0.591582
21
0.0808725
0
LINE
8
BLACK
6
CONTINUOUS
10
-0.591582
20
0.0808725
11
-0.589856
21
0.081869
0
LINE
8
BLACK
6
CONTINUOUS
10
-0.589856
20
0.081869
11
-0.58935
21
0.0819132
0
LINE
8
BLACK
6
CONTINUOUS
10
-0.58935
20
0.0819132
11
-0.479284
21
0.0819132
0
LINE
8
BLACK
6
CONTINUOUS
10
-0.479284
20
0.0819132
11
-0.477412
21
0.0812316
0
LINE
8
BLACK
6
CONTINUOUS
10
-0.477412
20
0.0812316
11
-0.477224
21
0.08106
0
LINE
8
BLACK
6
CONTINUOUS
10
-0.477224
20
0.08106
11
-0.477135
21
0.0809709
0
LINE
8
BLACK
6
CONTINUOUS
10
-0.477135
20
0.0809709
11
-0.477019
21
0.0808194
0
LINE
8
BLACK
6
CONTINUOUS
10
-0.477019
20
0.0808194
11
-0.476867
21
0.0807031
0
LINE
8
BLACK
6
CONTINUOUS
10
-0.476867
20
0.0807031
11
-0.472232
21
0.0771461
0
LINE
8
BLACK
6
CONTINUOUS
10
-0.472232
20
0.0771461
11
-0.472232
21
0.0771461
0
LINE
8
BLACK
6
CONTINUOUS
10
-0.472232
20
0.0771461
11
-0.47208
21
0.0770299
0
LINE
8
BLACK
6
CONTINUOUS
10
-0.47208
20
0.0770299
11
-0.466329
21
0.0746477
0
LINE
8
BLACK
6
CONTINUOUS
10
-0.466329
20
0.0746477
11
-0.46614
21
0.0746228
0
LINE
8
BLACK
6
CONTINUOUS
10
-0.46614
20
0.0746228
11
-0.46614
21
0.0746228
0
LINE
8
BLACK
6
CONTINUOUS
10
-0.46614
20
0.0746228
11
-0.460347
21
0.0738601
0
LINE
8
BLACK
6
CONTINUOUS
10
-0.460347
20
0.0738601
11
-0.460157
21
0.0738352
0
LINE
8
BLACK
6
CONTINUOUS
10
-0.460157
20
0.0738352
11
-0.459968
21
0.0738601
0
LINE
8
BLACK
6
CONTINUOUS
10
-0.459968
20
0.0738601
11
-0.454175
21
0.0746228
0
LINE
8
BLACK
6
CONTINUOUS
10
-0.454175
20
0.0746228
11
-0.454175
21
0.0746228
0
LINE
8
BLACK
6
CONTINUOUS
10
-0.454175
20
0.0746228
11
-0.453986
21
0.0746477
0
LINE
8
BLACK
6
CONTINUOUS
10
-0.453986
20
0.0746477
11
-0.448235
21
0.0770299
0
LINE
8
BLACK
6
CONTINUOUS
10
-0.448235
20
0.0770299
11
-0.448083
21
0.0771461
0
LINE
8
BLACK
6
CONTINUOUS
10
-0.448083
20
0.0771461
11
-0.448083
21
0.0771461
0
LINE
8
BLACK
6
CONTINUOUS
10
-0.448083
20
0.0771461
11
-0.443448
21
0.0807031
0
LINE
8
BLACK
6
CONTINUOUS
10
-0.443448
20
0.0807031
11
-0.443448
21
0.0807031
0
LINE
8
BLACK
6
CONTINUOUS
10
-0.443448
20
0.0807031
11
-0.443296
21
0.0808194
0
LINE
8
BLACK
6
CONTINUOUS
10
-0.443296
20
0.0808194
11
-0.442578
21
0.0817554
0
LINE
8
BLACK
6
CONTINUOUS
10
-0.442578
20
0.0817554
11
-0.439623
21
0.0856066
0
LINE
8
BLACK
6
CONTINUOUS
10
-0.439623
20
0.0856066
11
-0.439623
21
0.0856067
0
LINE
8
BLACK
6
CONTINUOUS
10
-0.439623
20
0.0856067
11
-0.439506
21
0.0857581
0
LINE
8
BLACK
6
CONTINUOUS
10
-0.439506
20
0.0857581
11
-0.437124
21
0.0915092
0
LINE
8
BLACK
6
CONTINUOUS
10
-0.437124
20
0.0915092
11
-0.436312
21
0.0976809
0
LINE
8
BLACK
6
CONTINUOUS
10
-0.436312
20
0.0976809
11
-0.43683
21
0.101618
0
LINE
8
BLACK
6
CONTINUOUS
10
-0.43683
20
0.101618
11
-0.437099
21
0.103664
0
LINE
8
BLACK
6
CONTINUOUS
10
-0.437099
20
0.103664
11
-0.437099
21
0.103664
0
LINE
8
BLACK
6
CONTINUOUS
10
-0.437099
20
0.103664
11
-0.437124
21
0.103853
0
LINE
8
BLACK
6
CONTINUOUS
10
-0.437124
20
0.103853
11
-0.439506
21
0.109604
0
LINE
8
BLACK
6
CONTINUOUS
10
-0.439506
20
0.109604
11
-0.439623
21
0.109755
0
LINE
8
BLACK
6
CONTINUOUS
10
-0.439623
20
0.109755
11
-0.439623
21
0.109755
0
LINE
8
BLACK
6
CONTINUOUS
10
-0.439623
20
0.109755
11
-0.44318
21
0.114391
0
LINE
8
BLACK
6
CONTINUOUS
10
-0.44318
20
0.114391
11
-0.443296
21
0.114542
0
LINE
8
BLACK
6
CONTINUOUS
10
-0.443296
20
0.114542
11
-0.444436
21
0.115417
0
LINE
8
BLACK
6
CONTINUOUS
10
-0.444436
20
0.115417
11
-0.448083
21
0.118216
0
LINE
8
BLACK
6
CONTINUOUS
10
-0.448083
20
0.118216
11
-0.448083
21
0.118216
0
LINE
8
BLACK
6
CONTINUOUS
10
-0.448083
20
0.118216
11
-0.448235
21
0.118332
0
LINE
8
BLACK
6
CONTINUOUS
10
-0.448235
20
0.118332
11
-0.453986
21
0.120714
0
LINE
8
BLACK
6
CONTINUOUS
10
-0.453986
20
0.120714
11
-0.454175
21
0.120739
0
LINE
8
BLACK
6
CONTINUOUS
10
-0.454175
20
0.120739
11
-0.454175
21
0.120739
0
LINE
8
BLACK
6
CONTINUOUS
10
-0.454175
20
0.120739
11
-0.459968
21
0.121502
0
LINE
8
BLACK
6
CONTINUOUS
10
-0.459968
20
0.121502
11
-0.460157
21
0.121527
0
LINE
8
BLACK
6
CONTINUOUS
10
-0.460157
20
0.121527
11
-0.460347
21
0.121502
0
LINE
8
BLACK
6
CONTINUOUS
10
-0.460347
20
0.121502
11
-0.46614
21
0.120739
0
LINE
8
BLACK
6
CONTINUOUS
10
-0.46614
20
0.120739
11
-0.46614
21
0.120739
0
LINE
8
BLACK
6
CONTINUOUS
10
-0.46614
20
0.120739
11
-0.466329
21
0.120714
0
LINE
8
BLACK
6
CONTINUOUS
10
-0.466329
20
0.120714
11
-0.47208
21
0.118332
0
LINE
8
BLACK
6
CONTINUOUS
10
-0.47208
20
0.118332
11
-0.472232
21
0.118216
0
LINE
8
BLACK
6
CONTINUOUS
10
-0.472232
20
0.118216
11
-0.472232
21
0.118216
0
LINE
8
BLACK
6
CONTINUOUS
10
-0.472232
20
0.118216
11
-0.473591
21
0.117173
0
LINE
8
BLACK
6
CONTINUOUS
10
-0.473591
20
0.117173
11
-0.477019
21
0.114542
0
LINE
8
BLACK
6
CONTINUOUS
10
-0.477019
20
0.114542
11
-0.477135
21
0.114391
0
LINE
8
BLACK
6
CONTINUOUS
10
-0.477135
20
0.114391
11
-0.477224
21
0.114302
0
LINE
8
BLACK
6
CONTINUOUS
10
-0.477224
20
0.114302
11
-0.47903
21
0.11346
0
LINE
8
BLACK
6
CONTINUOUS
10
-0.47903
20
0.11346
11
-0.479284
21
0.113449
0
LINE
8
BLACK
6
CONTINUOUS
10
-0.479284
20
0.113449
11
-0.590174
21
0.113449
0
LINE
8
BLACK
6
CONTINUOUS
10
-0.590174
20
0.113449
11
-0.592047
21
0.11413
0
LINE
8
BLACK
6
CONTINUOUS
10
-0.592047
20
0.11413
11
-0.592838
21
0.115283
0
LINE
8
BLACK
6
CONTINUOUS
10
-0.592838
20
0.115283
11
-0.592856
21
0.115274
0
LINE
8
BLACK
6
CONTINUOUS
10
-0.592856
20
0.115274
11
-0.592869
21
0.1153
0
LINE
8
BLACK
6
CONTINUOUS
10
-0.592869
20
0.1153
11
-0.592897
21
0.115369
0
LINE
8
BLACK
6
CONTINUOUS
10
-0.592897
20
0.115369
11
-0.592913
21
0.115392
0
LINE
8
BLACK
6
CONTINUOUS
10
-0.592913
20
0.115392
11
-0.592943
21
0.115455
0
LINE
8
BLACK
6
CONTINUOUS
10
-0.592943
20
0.115455
11
-0.592954
21
0.115488
0
LINE
8
BLACK
6
CONTINUOUS
10
-0.592954
20
0.115488
11
-0.592983
21
0.115576
0
LINE
8
BLACK
6
CONTINUOUS
10
-0.592983
20
0.115576
11
-0.592987
21
0.115588
0
LINE
8
BLACK
6
CONTINUOUS
10
-0.592987
20
0.115588
11
-0.592993
21
0.115602
0
LINE
8
BLACK
6
CONTINUOUS
10
-0.592993
20
0.115602
11
-0.593031
21
0.11581
0
LINE
8
BLACK
6
CONTINUOUS
10
-0.593031
20
0.11581
11
-0.59411
21
0.117887
0
LINE
8
BLACK
6
CONTINUOUS
10
-0.59411
20
0.117887
11
-0.59415
21
0.117969
0
LINE
8
BLACK
6
CONTINUOUS
10
-0.59415
20
0.117969
11
-0.595071
21
0.119886
0
LINE
8
BLACK
6
CONTINUOUS
10
-0.595071
20
0.119886
11
-0.595071
21
0.119886
0
LINE
8
BLACK
6
CONTINUOUS
10
-0.595071
20
0.119886
11
-0.595165
21
0.120082
0
LINE
8
BLACK
6
CONTINUOUS
10
-0.595165
20
0.120082
11
-0.595309
21
0.120237
0
LINE
8
BLACK
6
CONTINUOUS
10
-0.595309
20
0.120237
11
-0.59533
21
0.120273
0
LINE
8
BLACK
6
CONTINUOUS
10
-0.59533
20
0.120273
11
-0.595412
21
0.120395
0
LINE
8
BLACK
6
CONTINUOUS
10
-0.595412
20
0.120395
11
-0.595489
21
0.120543
0
LINE
8
BLACK
6
CONTINUOUS
10
-0.595489
20
0.120543
11
-0.595658
21
0.120741
0
LINE
8
BLACK
6
CONTINUOUS
10
-0.595658
20
0.120741
11
-0.597153
21
0.122236
0
LINE
8
BLACK
6
CONTINUOUS
10
-0.597153
20
0.122236
11
-0.597233
21
0.122319
0
LINE
8
BLACK
6
CONTINUOUS
10
-0.597233
20
0.122319
11
-0.598638
21
0.123838
0
LINE
8
BLACK
6
CONTINUOUS
10
-0.598638
20
0.123838
11
-0.598785
21
0.123998
0
LINE
8
BLACK
6
CONTINUOUS
10
-0.598785
20
0.123998
11
-0.598974
21
0.124108
0
LINE
8
BLACK
6
CONTINUOUS
10
-0.598974
20
0.124108
11
-0.599106
21
0.124214
0
LINE
8
BLACK
6
CONTINUOUS
10
-0.599106
20
0.124214
11
-0.599345
21
0.124427
0
LINE
8
BLACK
6
CONTINUOUS
10
-0.599345
20
0.124427
11
-0.705643
21
0.230725
0
LINE
8
BLACK
6
CONTINUOUS
10
-0.705643
20
0.230725
11
-0.706471
21
0.232405
0
LINE
8
BLACK
6
CONTINUOUS
10
-0.706471
20
0.232405
11
-0.706618
21
0.233523
0
LINE
8
BLACK
6
CONTINUOUS
10
-0.706618
20
0.233523
11
-0.706967
21
0.236172
0
LINE
8
BLACK
6
CONTINUOUS
10
-0.706967
20
0.236172
11
-0.709349
21
0.241923
0
LINE
8
BLACK
6
CONTINUOUS
10
-0.709349
20
0.241923
11
-0.709465
21
0.242074
0
LINE
8
BLACK
6
CONTINUOUS
10
-0.709465
20
0.242074
11
-0.709465
21
0.242074
0
LINE
8
BLACK
6
CONTINUOUS
10
-0.709465
20
0.242074
11
-0.713022
21
0.24671
0
LINE
8
BLACK
6
CONTINUOUS
10
-0.713022
20
0.24671
11
-0.713139
21
0.246861
0
LINE
8
BLACK
6
CONTINUOUS
10
-0.713139
20
0.246861
11
-0.715951
21
0.24902
0
LINE
8
BLACK
6
CONTINUOUS
10
-0.715951
20
0.24902
11
-0.716198
21
0.249209
0
LINE
8
BLACK
6
CONTINUOUS
10
-0.716198
20
0.249209
11
-0.717926
21
0.250535
0
LINE
8
BLACK
6
CONTINUOUS
10
-0.717926
20
0.250535
11
-0.717926
21
0.250535
0
LINE
8
BLACK
6
CONTINUOUS
10
-0.717926
20
0.250535
11
-0.718077
21
0.250651
0
LINE
8
BLACK
6
CONTINUOUS
10
-0.718077
20
0.250651
11
-0.723828
21
0.253033
0
LINE
8
BLACK
6
CONTINUOUS
10
-0.723828
20
0.253033
11
-0.724017
21
0.253058
0
LINE
8
BLACK
6
CONTINUOUS
10
-0.724017
20
0.253058
11
-0.724017
21
0.253058
0
LINE
8
BLACK
6
CONTINUOUS
10
-0.724017
20
0.253058
11
-0.729811
21
0.253821
0
LINE
8
BLACK
6
CONTINUOUS
10
-0.729811
20
0.253821
11
-0.73
21
0.253846
0
LINE
8
BLACK
6
CONTINUOUS
10
-0.73
20
0.253846
11
-0.730189
21
0.253821
0
LINE
8
BLACK
6
CONTINUOUS
10
-0.730189
20
0.253821
11
-0.735983
21
0.253058
0
LINE
8
BLACK
6
CONTINUOUS
10
-0.735983
20
0.253058
11
-0.735983
21
0.253058
0
LINE
8
BLACK
6
CONTINUOUS
10
-0.735983
20
0.253058
11
-0.736172
21
0.253033
0
LINE
8
BLACK
6
CONTINUOUS
10
-0.736172
20
0.253033
11
-0.741923
21
0.250651
0
LINE
8
BLACK
6
CONTINUOUS
10
-0.741923
20
0.250651
11
-0.742074
21
0.250535
0
LINE
8
BLACK
6
CONTINUOUS
10
-0.742074
20
0.250535
11
-0.742074
21
0.250535
0
LINE
8
BLACK
6
CONTINUOUS
10
-0.742074
20
0.250535
11
-0.743802
21
0.249209
0
LINE
8
BLACK
6
CONTINUOUS
10
-0.743802
20
0.249209
11
-0.746861
21
0.246861
0
LINE
8
BLACK
6
CONTINUOUS
10
-0.746861
20
0.246861
11
-0.746978
21
0.24671
0
LINE
8
BLACK
6
CONTINUOUS
10
-0.746978
20
0.24671
11
-0.750535
21
0.242074
0
LINE
8
BLACK
6
CONTINUOUS
10
-0.750535
20
0.242074
11
-0.750535
21
0.242074
0
LINE
8
BLACK
6
CONTINUOUS
10
-0.750535
20
0.242074
11
-0.750651
21
0.241923
0
LINE
8
BLACK
6
CONTINUOUS
10
-0.750651
20
0.241923
11
-0.753033
21
0.236172
0
LINE
8
BLACK
6
CONTINUOUS
10
-0.753033
20
0.236172
11
-0.753058
21
0.235983
0
LINE
8
BLACK
6
CONTINUOUS
10
-0.753058
20
0.235983
11
-0.753058
21
0.235983
0
LINE
8
BLACK
6
CONTINUOUS
10
-0.753058
20
0.235983
11
-0.753572
21
0.232079
0
LINE
8
BLACK
6
CONTINUOUS
10
-0.753572
20
0.232079
11
-0.753846
21
0.23
0
LINE
8
BLACK
6
CONTINUOUS
10
-0.753846
20
0.23
11
-0.753821
21
0.229811
0
LINE
8
BLACK
6
CONTINUOUS
10
-0.753821
20
0.229811
11
-0.75321
21
0.225174
0
LINE
8
BLACK
6
CONTINUOUS
10
-0.555134
20
0.0249773
11
-0.550744
21
0.0227404
0
LINE
8
BLACK
6
CONTINUOUS
10
-0.550744
20
0.0227404
11
-0.54726
21
0.0192565
0
LINE
8
BLACK
6
CONTINUOUS
10
-0.54726
20
0.0192565
11
-0.545023
21
0.0148664
0
LINE
8
BLACK
6
CONTINUOUS
10
-0.545023
20
0.0148664
11
-0.544252
21
0.01
0
LINE
8
BLACK
6
CONTINUOUS
10
-0.544252
20
0.01
11
-0.544502
21
0.00842142
0
LINE
8
BLACK
6
CONTINUOUS
10
-0.544502
20
0.00842142
11
-0.529595
21
-0.00648559
0
LINE
8
BLACK
6
CONTINUOUS
10
-0.529595
20
-0.00648559
11
-0.527461
21
-0.00967874
0
LINE
8
BLACK
6
CONTINUOUS
10
-0.527461
20
-0.00967874
11
-0.526712
21
-0.0134453
0
LINE
8
BLACK
6
CONTINUOUS
10
-0.526712
20
-0.0134453
11
-0.526712
21
-0.0134455
0
LINE
8
BLACK
6
CONTINUOUS
10
-0.526712
20
-0.0134455
11
-0.526712
21
-0.221818
0
LINE
8
BLACK
6
CONTINUOUS
10
-0.526712
20
-0.221818
11
-0.525023
21
-0.225134
0
LINE
8
BLACK
6
CONTINUOUS
10
-0.525023
20
-0.225134
11
-0.524252
21
-0.23
0
LINE
8
BLACK
6
CONTINUOUS
10
-0.524252
20
-0.23
11
-0.525023
21
-0.234866
0
LINE
8
BLACK
6
CONTINUOUS
10
-0.525023
20
-0.234866
11
-0.52726
21
-0.239256
0
LINE
8
BLACK
6
CONTINUOUS
10
-0.52726
20
-0.239256
11
-0.530744
21
-0.24274
0
LINE
8
BLACK
6
CONTINUOUS
10
-0.530744
20
-0.24274
11
-0.535134
21
-0.244977
0
LINE
8
BLACK
6
CONTINUOUS
10
-0.535134
20
-0.244977
11
-0.54
21
-0.245748
0
LINE
8
BLACK
6
CONTINUOUS
10
-0.54
20
-0.245748
11
-0.544866
21
-0.244977
0
LINE
8
BLACK
6
CONTINUOUS
10
-0.544866
20
-0.244977
11
-0.549256
21
-0.24274
0
LINE
8
BLACK
6
CONTINUOUS
10
-0.549256
20
-0.24274
11
-0.55274
21
-0.239256
0
LINE
8
BLACK
6
CONTINUOUS
10
-0.55274
20
-0.239256
11
-0.554977
21
-0.234866
0
LINE
8
BLACK
6
CONTINUOUS
10
-0.554977
20
-0.234866
11
-0.555748
21
-0.23
0
LINE
8
BLACK
6
CONTINUOUS
10
-0.555748
20
-0.23
11
-0.554977
21
-0.225134
0
LINE
8
BLACK
6
CONTINUOUS
10
-0.554977
20
-0.225134
11
-0.55274
21
-0.220744
0
LINE
8
BLACK
6
CONTINUOUS
10
-0.55274
20
-0.220744
11
-0.549256
21
-0.21726
0
LINE
8
BLACK
6
CONTINUOUS
10
-0.549256
20
-0.21726
11
-0.546397
21
-0.215803
0
LINE
8
BLACK
6
CONTINUOUS
10
-0.546397
20
-0.215803
11
-0.546397
21
-0.0175222
0
LINE
8
BLACK
6
CONTINUOUS
10
-0.546397
20
-0.0175222
11
-0.558421
21
-0.00549803
0
LINE
8
BLACK
6
CONTINUOUS
10
-0.558421
20
-0.00549803
11
-0.56
21
-0.00574803
0
LINE
8
BLACK
6
CONTINUOUS
10
-0.56
20
-0.00574803
11
-0.564866
21
-0.00497728
0
LINE
8
BLACK
6
CONTINUOUS
10
-0.564866
20
-0.00497728
11
-0.569256
21
-0.00274043
0
LINE
8
BLACK
6
CONTINUOUS
10
-0.569256
20
-0.00274043
11
-0.57274
21
0.000743543
0
LINE
8
BLACK
6
CONTINUOUS
10
-0.57274
20
0.000743543
11
-0.574977
21
0.00513358
0
LINE
8
BLACK
6
CONTINUOUS
10
-0.574977
20
0.00513358
11
-0.575748
21
0.01
0
LINE
8
BLACK
6
CONTINUOUS
10
-0.575748
20
0.01
11
-0.574977
21
0.0148664
0
LINE
8
BLACK
6
CONTINUOUS
10
-0.574977
20
0.0148664
11
-0.57274
21
0.0192565
0
LINE
8
BLACK
6
CONTINUOUS
10
-0.57274
20
0.0192565
11
-0.569256
21
0.0227404
0
LINE
8
BLACK
6
CONTINUOUS
10
-0.569256
20
0.0227404
11
-0.564866
21
0.0249773
0
LINE
8
BLACK
6
CONTINUOUS
10
-0.564866
20
0.0249773
11
-0.56
21
0.025748
0
LINE
8
BLACK
6
CONTINUOUS
10
-0.56
20
0.025748
11
-0.555134
21
0.0249773
0
LINE
8
BLACK
6
CONTINUOUS
10
-0.725134
20
0.244977
11
-0.720744
21
0.24274
0
LINE
8
BLACK
6
CONTINUOUS
10
-0.720744
20
0.24274
11
-0.71726
21
0.239256
0
LINE
8
BLACK
6
CONTINUOUS
10
-0.71726
20
0.239256
11
-0.715023
21
0.234866
0
LINE
8
BLACK
6
CONTINUOUS
10
-0.715023
20
0.234866
11
-0.714252
21
0.23
0
LINE
8
BLACK
6
CONTINUOUS
10
-0.714252
20
0.23
11
-0.714502
21
0.228421
0
LINE
8
BLACK
6
CONTINUOUS
10
-0.714502
20
0.228421
11
-0.60304
21
0.11696
0
LINE
8
BLACK
6
CONTINUOUS
10
-0.60304
20
0.11696
11
-0.600907
21
0.113767
0
LINE
8
BLACK
6
CONTINUOUS
10
-0.600907
20
0.113767
11
-0.600157
21
0.11
0
LINE
8
BLACK
6
CONTINUOUS
10
-0.600157
20
0.11
11
-0.600157
21
0.105555
0
LINE
8
BLACK
6
CONTINUOUS
10
-0.600157
20
0.105555
11
-0.473602
21
0.105555
0
LINE
8
BLACK
6
CONTINUOUS
10
-0.473602
20
0.105555
11
-0.472898
21
0.106937
0
LINE
8
BLACK
6
CONTINUOUS
10
-0.472898
20
0.106937
11
-0.469414
21
0.110421
0
LINE
8
BLACK
6
CONTINUOUS
10
-0.469414
20
0.110421
11
-0.465024
21
0.112658
0
LINE
8
BLACK
6
CONTINUOUS
10
-0.465024
20
0.112658
11
-0.460157
21
0.113429
0
LINE
8
BLACK
6
CONTINUOUS
10
-0.460157
20
0.113429
11
-0.455291
21
0.112658
0
LINE
8
BLACK
6
CONTINUOUS
10
-0.455291
20
0.112658
11
-0.450901
21
0.110421
0
LINE
8
BLACK
6
CONTINUOUS
10
-0.450901
20
0.110421
11
-0.447417
21
0.106937
0
LINE
8
BLACK
6
CONTINUOUS
10
-0.447417
20
0.106937
11
-0.44518
21
0.102547
0
LINE
8
BLACK
6
CONTINUOUS
10
-0.44518
20
0.102547
11
-0.444409
21
0.0976809
0
LINE
8
BLACK
6
CONTINUOUS
10
-0.444409
20
0.0976809
11
-0.44518
21
0.0928145
0
LINE
8
BLACK
6
CONTINUOUS
10
-0.44518
20
0.0928145
11
-0.447417
21
0.0884245
0
LINE
8
BLACK
6
CONTINUOUS
10
-0.447417
20
0.0884245
11
-0.450901
21
0.0849405
0
LINE
8
BLACK
6
CONTINUOUS
10
-0.450901
20
0.0849405
11
-0.455291
21
0.0827037
0
LINE
8
BLACK
6
CONTINUOUS
10
-0.455291
20
0.0827037
11
-0.460157
21
0.0819329
0
LINE
8
BLACK
6
CONTINUOUS
10
-0.460157
20
0.0819329
11
-0.465024
21
0.0827037
0
LINE
8
BLACK
6
CONTINUOUS
10
-0.465024
20
0.0827037
11
-0.469414
21
0.0849405
0
LINE
8
BLACK
6
CONTINUOUS
10
-0.469414
20
0.0849405
11
-0.472898
21
0.0884245
0
LINE
8
BLACK
6
CONTINUOUS
10
-0.472898
20
0.0884245
11
-0.473602
21
0.0898069
0
LINE
8
BLACK
6
CONTINUOUS
10
-0.473602
20
0.0898069
11
-0.600157
21
0.0898069
0
LINE
8
BLACK
6
CONTINUOUS
10
-0.600157
20
0.0898069
11
-0.600157
21
-0.105923
0
LINE
8
BLACK
6
CONTINUOUS
10
-0.600157
20
-0.105923
11
-0.595249
21
-0.110831
0
LINE
8
BLACK
6
CONTINUOUS
10
-0.595249
20
-0.110831
11
-0.593671
21
-0.110581
0
LINE
8
BLACK
6
CONTINUOUS
10
-0.593671
20
-0.110581
11
-0.588804
21
-0.111352
0
LINE
8
BLACK
6
CONTINUOUS
10
-0.588804
20
-0.111352
11
-0.584414
21
-0.113589
0
LINE
8
BLACK
6
CONTINUOUS
10
-0.584414
20
-0.113589
11
-0.58093
21
-0.117073
0
LINE
8
BLACK
6
CONTINUOUS
10
-0.58093
20
-0.117073
11
-0.578693
21
-0.121463
0
LINE
8
BLACK
6
CONTINUOUS
10
-0.578693
20
-0.121463
11
-0.577923
21
-0.126329
0
LINE
8
BLACK
6
CONTINUOUS
10
-0.577923
20
-0.126329
11
-0.578693
21
-0.131196
0
LINE
8
BLACK
6
CONTINUOUS
10
-0.578693
20
-0.131196
11
-0.58093
21
-0.135586
0
LINE
8
BLACK
6
CONTINUOUS
10
-0.58093
20
-0.135586
11
-0.584414
21
-0.13907
0
LINE
8
BLACK
6
CONTINUOUS
10
-0.584414
20
-0.13907
11
-0.588804
21
-0.141307
0
LINE
8
BLACK
6
CONTINUOUS
10
-0.588804
20
-0.141307
11
-0.593671
21
-0.142077
0
LINE
8
BLACK
6
CONTINUOUS
10
-0.593671
20
-0.142077
11
-0.598537
21
-0.141307
0
LINE
8
BLACK
6
CONTINUOUS
10
-0.598537
20
-0.141307
11
-0.602927
21
-0.13907
0
LINE
8
BLACK
6
CONTINUOUS
10
-0.602927
20
-0.13907
11
-0.606411
21
-0.135586
0
LINE
8
BLACK
6
CONTINUOUS
10
-0.606411
20
-0.135586
11
-0.608648
21
-0.131196
0
LINE
8
BLACK
6
CONTINUOUS
10
-0.608648
20
-0.131196
11
-0.609419
21
-0.126329
0
LINE
8
BLACK
6
CONTINUOUS
10
-0.609419
20
-0.126329
11
-0.609169
21
-0.124751
0
LINE
8
BLACK
6
CONTINUOUS
10
-0.609169
20
-0.124751
11
-0.61696
21
-0.11696
0
LINE
8
BLACK
6
CONTINUOUS
10
-0.61696
20
-0.11696
11
-0.619093
21
-0.113767
0
LINE
8
BLACK
6
CONTINUOUS
10
-0.619093
20
-0.113767
11
-0.619843
21
-0.11
0
LINE
8
BLACK
6
CONTINUOUS
10
-0.619843
20
-0.11
11
-0.619843
21
0.105923
0
LINE
8
BLACK
6
CONTINUOUS
10
-0.619843
20
0.105923
11
-0.728421
21
0.214502
0
LINE
8
BLACK
6
CONTINUOUS
10
-0.728421
20
0.214502
11
-0.73
21
0.214252
0
LINE
8
BLACK
6
CONTINUOUS
10
-0.73
20
0.214252
11
-0.734866
21
0.215023
0
LINE
8
BLACK
6
CONTINUOUS
10
-0.734866
20
0.215023
11
-0.739256
21
0.21726
0
LINE
8
BLACK
6
CONTINUOUS
10
-0.739256
20
0.21726
11
-0.74274
21
0.220744
0
LINE
8
BLACK
6
CONTINUOUS
10
-0.74274
20
0.220744
11
-0.744977
21
0.225134
0
LINE
8
BLACK
6
CONTINUOUS
10
-0.744977
20
0.225134
11
-0.745748
21
0.23
0
LINE
8
BLACK
6
CONTINUOUS
10
-0.745748
20
0.23
11
-0.744977
21
0.234866
0
LINE
8
BLACK
6
CONTINUOUS
10
-0.744977
20
0.234866
11
-0.74274
21
0.239256
0
LINE
8
BLACK
6
CONTINUOUS
10
-0.74274
20
0.239256
11
-0.739256
21
0.24274
0
LINE
8
BLACK
6
CONTINUOUS
10
-0.739256
20
0.24274
11
-0.734866
21
0.244977
0
LINE
8
BLACK
6
CONTINUOUS
10
-0.734866
20
0.244977
11
-0.73
21
0.245748
0
LINE
8
BLACK
6
CONTINUOUS
10
-0.73
20
0.245748
11
-0.725134
21
0.244977
0
LINE
8
BLACK
6
CONTINUOUS
10
0.110959
20
0.302795
11
0.110709
21
0.304374
0
LINE
8
BLACK
6
CONTINUOUS
10
0.110709
20
0.304374
11
0.111479
21
0.30924
0
LINE
8
BLACK
6
CONTINUOUS
10
0.111479
20
0.30924
11
0.113716
21
0.31363
0
LINE
8
BLACK
6
CONTINUOUS
10
0.113716
20
0.31363
11
0.1172
21
0.317114
0
LINE
8
BLACK
6
CONTINUOUS
10
0.1172
20
0.317114
11
0.12159
21
0.319351
0
LINE
8
BLACK
6
CONTINUOUS
10
0.12159
20
0.319351
11
0.126457
21
0.320122
0
LINE
8
BLACK
6
CONTINUOUS
10
0.126457
20
0.320122
11
0.131323
21
0.319351
0
LINE
8
BLACK
6
CONTINUOUS
10
0.131323
20
0.319351
11
0.135713
21
0.317114
0
LINE
8
BLACK
6
CONTINUOUS
10
0.135713
20
0.317114
11
0.139197
21
0.31363
0
LINE
8
BLACK
6
CONTINUOUS
10
0.139197
20
0.31363
11
0.141434
21
0.30924
0
LINE
8
BLACK
6
CONTINUOUS
10
0.141434
20
0.30924
11
0.142205
21
0.304374
0
LINE
8
BLACK
6
CONTINUOUS
10
0.142205
20
0.304374
11
0.141434
21
0.299507
0
LINE
8
BLACK
6
CONTINUOUS
10
0.141434
20
0.299507
11
0.139197
21
0.295117
0
LINE
8
BLACK
6
CONTINUOUS
10
0.139197
20
0.295117
11
0.135713
21
0.291633
0
LINE
8
BLACK
6
CONTINUOUS
10
0.135713
20
0.291633
11
0.131323
21
0.289397
0
LINE
8
BLACK
6
CONTINUOUS
10
0.131323
20
0.289397
11
0.126457
21
0.288626
0
LINE
8
BLACK
6
CONTINUOUS
10
0.126457
20
0.288626
11
0.124878
21
0.288876
0
LINE
8
BLACK
6
CONTINUOUS
10
0.124878
20
0.288876
11
0.0739283
21
0.237926
0
LINE
8
BLACK
6
CONTINUOUS
10
0.0739283
20
0.237926
11
0.0739282
21
0.237926
0
LINE
8
BLACK
6
CONTINUOUS
10
0.0739282
20
0.237926
11
0.0707351
21
0.235792
0
LINE
8
BLACK
6
CONTINUOUS
10
0.0707351
20
0.235792
11
0.0669685
21
0.235043
0
LINE
8
BLACK
6
CONTINUOUS
10
0.0669685
20
0.235043
11
-0.496791
21
0.235043
0
LINE
8
BLACK
6
CONTINUOUS
10
-0.496791
20
0.235043
11
-0.498756
21
0.234042
0
LINE
8
BLACK
6
CONTINUOUS
10
-0.498756
20
0.234042
11
-0.503622
21
0.233271
0
LINE
8
BLACK
6
CONTINUOUS
10
-0.503622
20
0.233271
11
-0.508488
21
0.234042
0
LINE
8
BLACK
6
CONTINUOUS
10
-0.508488
20
0.234042
11
-0.512879
21
0.236279
0
LINE
8
BLACK
6
CONTINUOUS
10
-0.512879
20
0.236279
11
-0.516362
21
0.239763
0
LINE
8
BLACK
6
CONTINUOUS
10
-0.516362
20
0.239763
11
-0.518599
21
0.244153
0
LINE
8
BLACK
6
CONTINUOUS
10
-0.518599
20
0.244153
11
-0.51937
21
0.24902
0
LINE
8
BLACK
6
CONTINUOUS
10
-0.51937
20
0.24902
11
-0.518599
21
0.253886
0
LINE
8
BLACK
6
CONTINUOUS
10
-0.518599
20
0.253886
11
-0.516362
21
0.258276
0
LINE
8
BLACK
6
CONTINUOUS
10
-0.516362
20
0.258276
11
-0.512879
21
0.26176
0
LINE
8
BLACK
6
CONTINUOUS
10
-0.512879
20
0.26176
11
-0.508488
21
0.263997
0
LINE
8
BLACK
6
CONTINUOUS
10
-0.508488
20
0.263997
11
-0.503622
21
0.264768
0
LINE
8
BLACK
6
CONTINUOUS
10
-0.503622
20
0.264768
11
-0.498756
21
0.263997
0
LINE
8
BLACK
6
CONTINUOUS
10
-0.498756
20
0.263997
11
-0.494366
21
0.26176
0
LINE
8
BLACK
6
CONTINUOUS
10
-0.494366
20
0.26176
11
-0.490882
21
0.258276
0
LINE
8
BLACK
6
CONTINUOUS
10
-0.490882
20
0.258276
11
-0.489074
21
0.254728
0
LINE
8
BLACK
6
CONTINUOUS
10
-0.489074
20
0.254728
11
-0.153504
21
0.254728
0
LINE
8
BLACK
6
CONTINUOUS
10
-0.153504
20
0.254728
11
-0.153504
21
0.308279
0
LINE
8
BLACK
6
CONTINUOUS
10
-0.153504
20
0.308279
11
-0.155969
21
0.310744
0
LINE
8
BLACK
6
CONTINUOUS
10
-0.155969
20
0.310744
11
-0.158206
21
0.315134
0
LINE
8
BLACK
6
CONTINUOUS
10
-0.158206
20
0.315134
11
-0.158976
21
0.32
0
LINE
8
BLACK
6
CONTINUOUS
10
-0.158976
20
0.32
11
-0.158206
21
0.324866
0
LINE
8
BLACK
6
CONTINUOUS
10
-0.158206
20
0.324866
11
-0.155969
21
0.329256
0
LINE
8
BLACK
6
CONTINUOUS
10
-0.155969
20
0.329256
11
-0.152485
21
0.33274
0
LINE
8
BLACK
6
CONTINUOUS
10
-0.152485
20
0.33274
11
-0.148095
21
0.334977
0
LINE
8
BLACK
6
CONTINUOUS
10
-0.148095
20
0.334977
11
-0.143228
21
0.335748
0
LINE
8
BLACK
6
CONTINUOUS
10
-0.143228
20
0.335748
11
-0.138362
21
0.334977
0
LINE
8
BLACK
6
CONTINUOUS
10
-0.138362
20
0.334977
11
-0.133972
21
0.33274
0
LINE
8
BLACK
6
CONTINUOUS
10
-0.133972
20
0.33274
11
-0.130488
21
0.329256
0
LINE
8
BLACK
6
CONTINUOUS
10
-0.130488
20
0.329256
11
-0.128251
21
0.324866
0
LINE
8
BLACK
6
CONTINUOUS
10
-0.128251
20
0.324866
11
-0.12748
21
0.32
0
LINE
8
BLACK
6
CONTINUOUS
10
-0.12748
20
0.32
11
-0.128251
21
0.315134
0
LINE
8
BLACK
6
CONTINUOUS
10
-0.128251
20
0.315134
11
-0.130488
21
0.310744
0
LINE
8
BLACK
6
CONTINUOUS
10
-0.130488
20
0.310744
11
-0.133819
21
0.307413
0
LINE
8
BLACK
6
CONTINUOUS
10
-0.133819
20
0.307413
11
-0.133819
21
0.254728
0
LINE
8
BLACK
6
CONTINUOUS
10
-0.133819
20
0.254728
11
0.0628916
21
0.254728
0
LINE
8
BLACK
6
CONTINUOUS
10
0.0628916
20
0.254728
11
0.110959
21
0.302795
0
LINE
8
BLACK
6
CONTINUOUS
10
0.0869597
20
-0.17304
11
0.118421
21
-0.204502
0
LINE
8
BLACK
6
CONTINUOUS
10
0.118421
20
-0.204502
11
0.12
21
-0.204252
0
LINE
8
BLACK
6
CONTINUOUS
10
0.12
20
-0.204252
11
0.124866
21
-0.205023
0
LINE
8
BLACK
6
CONTINUOUS
10
0.124866
20
-0.205023
11
0.129256
21
-0.20726
0
LINE
8
BLACK
6
CONTINUOUS
10
0.129256
20
-0.20726
11
0.13274
21
-0.210744
0
LINE
8
BLACK
6
CONTINUOUS
10
0.13274
20
-0.210744
11
0.134977
21
-0.215134
0
LINE
8
BLACK
6
CONTINUOUS
10
0.134977
20
-0.215134
11
0.135748
21
-0.22
0
LINE
8
BLACK
6
CONTINUOUS
10
0.135748
20
-0.22
11
0.134977
21
-0.224866
0
LINE
8
BLACK
6
CONTINUOUS
10
0.134977
20
-0.224866
11
0.13274
21
-0.229256
0
LINE
8
BLACK
6
CONTINUOUS
10
0.13274
20
-0.229256
11
0.129256
21
-0.23274
0
LINE
8
BLACK
6
CONTINUOUS
10
0.129256
20
-0.23274
11
0.124866
21
-0.234977
0
LINE
8
BLACK
6
CONTINUOUS
10
0.124866
20
-0.234977
11
0.12
21
-0.235748
0
LINE
8
BLACK
6
CONTINUOUS
10
0.12
20
-0.235748
11
0.115134
21
-0.234977
0
LINE
8
BLACK
6
CONTINUOUS
10
0.115134
20
-0.234977
11
0.110744
21
-0.23274
0
LINE
8
BLACK
6
CONTINUOUS
10
0.110744
20
-0.23274
11
0.10726
21
-0.229256
0
LINE
8
BLACK
6
CONTINUOUS
10
0.10726
20
-0.229256
11
0.105023
21
-0.224866
0
LINE
8
BLACK
6
CONTINUOUS
10
0.105023
20
-0.224866
11
0.104252
21
-0.22
0
LINE
8
BLACK
6
CONTINUOUS
10
0.104252
20
-0.22
11
0.104502
21
-0.218421
0
LINE
8
BLACK
6
CONTINUOUS
10
0.104502
20
-0.218421
11
0.0759231
21
-0.189843
0
LINE
8
BLACK
6
CONTINUOUS
10
0.0759231
20
-0.189843
11
-0.14
21
-0.189843
0
LINE
8
BLACK
6
CONTINUOUS
10
-0.14
20
-0.189843
11
-0.143767
21
-0.189093
0
LINE
8
BLACK
6
CONTINUOUS
10
-0.143767
20
-0.189093
11
-0.14696
21
-0.18696
0
LINE
8
BLACK
6
CONTINUOUS
10
-0.14696
20
-0.18696
11
-0.295779
21
-0.0381408
0
LINE
8
BLACK
6
CONTINUOUS
10
-0.295779
20
-0.0381408
11
-0.297912
21
-0.0349477
0
LINE
8
BLACK
6
CONTINUOUS
10
-0.297912
20
-0.0349477
11
-0.298661
21
-0.0311811
0
LINE
8
BLACK
6
CONTINUOUS
10
-0.298661
20
-0.0311811
11
-0.298661
21
-0.0295276
0
LINE
8
BLACK
6
CONTINUOUS
10
-0.298661
20
-0.0295276
11
-0.310472
21
-0.0295276
0
LINE
8
BLACK
6
CONTINUOUS
10
-0.310472
20
-0.0295276
11
-0.310472
21
0.0295276
0
LINE
8
BLACK
6
CONTINUOUS
10
-0.310472
20
0.0295276
11
-0.289843
21
0.0295276
0
LINE
8
BLACK
6
CONTINUOUS
10
-0.289843
20
0.0295276
11
-0.289843
21
0.0923919
0
LINE
8
BLACK
6
CONTINUOUS
10
-0.289843
20
0.0923919
11
-0.292064
21
0.0967515
0
LINE
8
BLACK
6
CONTINUOUS
10
-0.292064
20
0.0967515
11
-0.292835
21
0.101618
0
LINE
8
BLACK
6
CONTINUOUS
10
-0.292835
20
0.101618
11
-0.292064
21
0.106484
0
LINE
8
BLACK
6
CONTINUOUS
10
-0.292064
20
0.106484
11
-0.289827
21
0.110874
0
LINE
8
BLACK
6
CONTINUOUS
10
-0.289827
20
0.110874
11
-0.286343
21
0.114358
0
LINE
8
BLACK
6
CONTINUOUS
10
-0.286343
20
0.114358
11
-0.281953
21
0.116595
0
LINE
8
BLACK
6
CONTINUOUS
10
-0.281953
20
0.116595
11
-0.277087
21
0.117366
0
LINE
8
BLACK
6
CONTINUOUS
10
-0.277087
20
0.117366
11
-0.27222
21
0.116595
0
LINE
8
BLACK
6
CONTINUOUS
10
-0.27222
20
0.116595
11
-0.26783
21
0.114358
0
LINE
8
BLACK
6
CONTINUOUS
10
-0.26783
20
0.114358
11
-0.264346
21
0.110874
0
LINE
8
BLACK
6
CONTINUOUS
10
-0.264346
20
0.110874
11
-0.262109
21
0.106484
0
LINE
8
BLACK
6
CONTINUOUS
10
-0.262109
20
0.106484
11
-0.261339
21
0.101618
0
LINE
8
BLACK
6
CONTINUOUS
10
-0.261339
20
0.101618
11
-0.262109
21
0.0967515
0
LINE
8
BLACK
6
CONTINUOUS
10
-0.262109
20
0.0967515
11
-0.264346
21
0.0923615
0
LINE
8
BLACK
6
CONTINUOUS
10
-0.264346
20
0.0923615
11
-0.26783
21
0.0888775
0
LINE
8
BLACK
6
CONTINUOUS
10
-0.26783
20
0.0888775
11
-0.270157
21
0.0876917
0
LINE
8
BLACK
6
CONTINUOUS
10
-0.270157
20
0.0876917
11
-0.270157
21
0.0158786
0
LINE
8
BLACK
6
CONTINUOUS
10
-0.270157
20
0.0158786
11
-0.269925
21
0.0153674
0
LINE
8
BLACK
6
CONTINUOUS
10
-0.269925
20
0.0153674
11
-0.269134
21
0.00984252
0
LINE
8
BLACK
6
CONTINUOUS
10
-0.269134
20
0.00984252
11
-0.269134
21
-0.00984252
0
LINE
8
BLACK
6
CONTINUOUS
10
-0.269134
20
-0.00984252
11
-0.26914
21
-0.0103235
0
LINE
8
BLACK
6
CONTINUOUS
10
-0.26914
20
-0.0103235
11
-0.270066
21
-0.0158274
0
LINE
8
BLACK
6
CONTINUOUS
10
-0.270066
20
-0.0158274
11
-0.272499
21
-0.0208502
0
LINE
8
BLACK
6
CONTINUOUS
10
-0.272499
20
-0.0208502
11
-0.276245
21
-0.0249882
0
LINE
8
BLACK
6
CONTINUOUS
10
-0.276245
20
-0.0249882
11
-0.278976
21
-0.0266654
0
LINE
8
BLACK
6
CONTINUOUS
10
-0.278976
20
-0.0266654
11
-0.278976
21
-0.0271042
0
LINE
8
BLACK
6
CONTINUOUS
10
-0.278976
20
-0.0271042
11
-0.135923
21
-0.170157
0
LINE
8
BLACK
6
CONTINUOUS
10
-0.135923
20
-0.170157
11
0.08
21
-0.170157
0
LINE
8
BLACK
6
CONTINUOUS
10
0.08
20
-0.170157
11
0.0837666
21
-0.170907
0
LINE
8
BLACK
6
CONTINUOUS
10
0.0837666
20
-0.170907
11
0.0869597
21
-0.17304
0
LINE
8
BLACK
6
CONTINUOUS
10
0.258465
20
-0.133465
11
0.191535
21
-0.133465
0
LINE
8
BLACK
6
CONTINUOUS
10
0.191535
20
-0.133465
11
0.191535
21
-0.0665354
0
LINE
8
BLACK
6
CONTINUOUS
10
0.191535
20
-0.0665354
11
0.258465
21
-0.0665354
0
LINE
8
BLACK
6
CONTINUOUS
10
0.258465
20
-0.0665354
11
0.258465
21
-0.133465
0
LINE
8
BLACK
6
CONTINUOUS
10
0.235341
20
0.0318267
11
0.241732
21
0.0289812
0
LINE
8
BLACK
6
CONTINUOUS
10
0.241732
20
0.0289812
11
0.247392
21
0.024869
0
LINE
8
BLACK
6
CONTINUOUS
10
0.247392
20
0.024869
11
0.252073
21
0.01967
0
LINE
8
BLACK
6
CONTINUOUS
10
0.252073
20
0.01967
11
0.255571
21
0.0136113
0
LINE
8
BLACK
6
CONTINUOUS
10
0.255571
20
0.0136113
11
0.257733
21
0.00695768
0
LINE
8
BLACK
6
CONTINUOUS
10
0.257733
20
0.00695768
11
0.258465
21
0
0
LINE
8
BLACK
6
CONTINUOUS
10
0.258465
20
0
11
0.257733
21
-0.00695768
0
LINE
8
BLACK
6
CONTINUOUS
10
0.257733
20
-0.00695768
11
0.255571
21
-0.0136113
0
LINE
8
BLACK
6
CONTINUOUS
10
0.255571
20
-0.0136113
11
0.252073
21
-0.01967
0
LINE
8
BLACK
6
CONTINUOUS
10
0.252073
20
-0.01967
11
0.247392
21
-0.024869
0
LINE
8
BLACK
6
CONTINUOUS
10
0.247392
20
-0.024869
11
0.241732
21
-0.0289812
0
LINE
8
BLACK
6
CONTINUOUS
10
0.241732
20
-0.0289812
11
0.235341
21
-0.0318267
0
LINE
8
BLACK
6
CONTINUOUS
10
0.235341
20
-0.0318267
11
0.228498
21
-0.0332813
0
LINE
8
BLACK
6
CONTINUOUS
10
0.228498
20
-0.0332813
11
0.221502
21
-0.0332813
0
LINE
8
BLACK
6
CONTINUOUS
10
0.221502
20
-0.0332813
11
0.214659
21
-0.0318267
0
LINE
8
BLACK
6
CONTINUOUS
10
0.214659
20
-0.0318267
11
0.208268
21
-0.0289812
0
LINE
8
BLACK
6
CONTINUOUS
10
0.208268
20
-0.0289812
11
0.202608
21
-0.024869
0
LINE
8
BLACK
6
CONTINUOUS
10
0.202608
20
-0.024869
11
0.197927
21
-0.01967
0
LINE
8
BLACK
6
CONTINUOUS
10
0.197927
20
-0.01967
11
0.194429
21
-0.0136113
0
LINE
8
BLACK
6
CONTINUOUS
10
0.194429
20
-0.0136113
11
0.192267
21
-0.00695768
0
LINE
8
BLACK
6
CONTINUOUS
10
0.192267
20
-0.00695768
11
0.191535
21
0
0
LINE
8
BLACK
6
CONTINUOUS
10
0.191535
20
0
11
0.192267
21
0.00695768
0
LINE
8
BLACK
6
CONTINUOUS
10
0.192267
20
0.00695768
11
0.194429
21
0.0136113
0
LINE
8
BLACK
6
CONTINUOUS
10
0.194429
20
0.0136113
11
0.197927
21
0.01967
0
LINE
8
BLACK
6
CONTINUOUS
10
0.197927
20
0.01967
11
0.202608
21
0.024869
0
LINE
8
BLACK
6
CONTINUOUS
10
0.202608
20
0.024869
11
0.208268
21
0.0289812
0
LINE
8
BLACK
6
CONTINUOUS
10
0.208268
20
0.0289812
11
0.214659
21
0.0318267
0
LINE
8
BLACK
6
CONTINUOUS
10
0.214659
20
0.0318267
11
0.221502
21
0.0332813
0
LINE
8
BLACK
6
CONTINUOUS
10
0.221502
20
0.0332813
11
0.228498
21
0.0332813
0
LINE
8
BLACK
6
CONTINUOUS
10
0.228498
20
0.0332813
11
0.235341
21
0.0318267
0
CIRCLE
8
BLACK
10
-0.05
20
0.33
40
0.00787402
0
CIRCLE
8
BLACK
10
0.37
20
-0.260114
40
0.00787402
0
CIRCLE
8
BLACK
10
-0.48
20
0.149886
40
0.00787402
0
CIRCLE
8
BLACK
10
-0.68
20
-0.33
40
0.00787402
0
CIRCLE
8
BLACK
10
-0.48
20
-0.330114
40
0.00787402
0
CIRCLE
8
BLACK
10
-0.8
20
0.13
40
0.00787402
0
CIRCLE
8
BLACK
10
-0.8
20
-0.25
40
0.00787402
0
CIRCLE
8
BLACK
10
-0.8
20
-0.13
40
0.00787402
0
CIRCLE
8
BLACK
10
-0.8
20
-0.21
40
0.00787402
0
CIRCLE
8
BLACK
10
-0.8
20
0.25
40
0.00787402
0
CIRCLE
8
BLACK
10
-0.8
20
-0.17
40
0.00787402
0
CIRCLE
8
BLACK
10
-0.8
20
0.21
40
0.00787402
0
CIRCLE
8
BLACK
10
-0.8
20
0.17
40
0.00787402
0
CIRCLE
8
BLACK
10
-0.64
20
0.334886
40
0.00787402
0
CIRCLE
8
BLACK
10
0.24
20
-0.18
40
0.00787402
0
CIRCLE
8
BLACK
10
0.27
20
0.18
40
0.00787402
0
CIRCLE
8
BLACK
10
0.41
20
-0.120114
40
0.00787402
0
CIRCLE
8
BLACK
10
0.44
20
-0.250114
40
0.00787402
0
CIRCLE
8
BLACK
10
0.41
20
-0.170114
40
0.00787402
0
CIRCLE
8
BLACK
10
0.415
20
0.324886
40
0.00787402
0
CIRCLE
8
BLACK
10
-0.09
20
0.149886
40
0.00787402
0
CIRCLE
8
BLACK
10
0.44
20
-0.330114
40
0.00787402
0
CIRCLE
8
BLACK
10
0.44
20
-0.290114
40
0.00787402
0
CIRCLE
8
BLACK
10
0.12
20
0.139886
40
0.00787402
0
CIRCLE
8
BLACK
10
0.155
20
0.0998857
40
0.00787402
0
CIRCLE
8
BLACK
10
0.17
20
0.0548857
40
0.00787402
0
CIRCLE
8
BLACK
10
0.41
20
-0.07
40
0.00787402
0
CIRCLE
8
BLACK
10
0.415
20
0.279886
40
0.00787402
0
CIRCLE
8
BLACK
10
-0.1
20
-0.330114
40
0.00787402
0
CIRCLE
8
BLACK
10
-0.57
20
-0.09
40
0.00787402
0
CIRCLE
8
BLACK
10
-0.67
20
0
40
0.00787402
0
CIRCLE
8
BLACK
10
-0.02
20
0.18
40
0.00787402
0
CIRCLE
8
BLACK
10
0.09
20
-0.33
40
0.00787402
0
CIRCLE
8
BLACK
10
0.33
20
-0.180114
40
0.00787402
0
CIRCLE
8
BLACK
10
-0.44
20
0.05
40
0.00787402
0
CIRCLE
8
BLACK
10
-0.5
20
-0.0201143
40
0.00787402
0
CIRCLE
8
BLACK
10
-0.09
20
-0.22
40
0.00787402
0
CIRCLE
8
BLACK
10
0.37
20
-0.220114
40
0.00787402
0
CIRCLE
8
BLACK
10
-0.26
20
-0.21
40
0.00787402
0
CIRCLE
8
BLACK
10
-0.233937
20
-0.142713
40
0.00787402
0
CIRCLE
8
BLACK
10
-0.19
20
-0.05
40
0.00787402
0
CIRCLE
8
BLACK
10
-0.5
20
0.0498857
40
0.00787402
0
CIRCLE
8
BLACK
10
-0.19
20
0.02
40
0.00787402
0
CIRCLE
8
BLACK
10
0.118425
20
-0.0935002
40
0.00787402
0
CIRCLE
8
BLACK
10
-0.34
20
0.11
40
0.00787402
0
CIRCLE
8
BLACK
10
0.415
20
0.2
40
0.00787402
0
CIRCLE
8
BLACK
10
0.415
20
0.24
40
0.00787402
0
CIRCLE
8
BLACK
10
0.23
20
0.18
40
0.00787402
0
CIRCLE
8
BLACK
10
-0.3
20
-0.330114
40
0.00787402
0
CIRCLE
8
BLACK
10
-0.67
20
-0.05
40
0.00787402
0
CIRCLE
8
BLACK
10
-0.493
20
0.334886
40
0.00787402
0
CIRCLE
8
BLACK
10
0.15
20
-0.13
40
0.00787402
0
CIRCLE
8
BLACK
10
-0.733937
20
0.27461
40
0.00787402
0
CIRCLE
8
BLACK
10
-0.67
20
0.05
40
0.00787402
0
CIRCLE
8
BLACK
10
-0.69
20
0.334886
40
0.00787402
0
CIRCLE
8
BLACK
10
-0.14
20
-0.12
40
0.00787402
0
CIRCLE
8
BLACK
10
-0.555
20
0.334886
40
0.00787402
0
CIRCLE
8
BLACK
10
-0.2
20
-0.21
40
0.00787402
0
CIRCLE
8
BLACK
10
-0.277087
20
0.101618
40
0.00787402
0
CIRCLE
8
BLACK
10
0.12
20
-0.22
40
0.00787402
0
CIRCLE
8
BLACK
10
-0.56
20
0.01
40
0.00787402
0
CIRCLE
8
BLACK
10
-0.503622
20
0.24902
40
0.00787402
0
CIRCLE
8
BLACK
10
-0.54
20
-0.23
40
0.00787402
0
CIRCLE
8
BLACK
10
0.126457
20
0.304374
40
0.00787402
0
CIRCLE
8
BLACK
10
-0.143228
20
0.32
40
0.00787402
0
CIRCLE
8
BLACK
10
-0.593671
20
-0.126329
40
0.00787402
0
CIRCLE
8
BLACK
10
-0.73
20
0.23
40
0.00787402
0
CIRCLE
8
BLACK
10
-0.460157
20
0.0976809
40
0.00787402
0
CIRCLE
8
BLACK
10
-0.34
20
0
40
0.00787402
  0
ENDSEC
  0
EOF
