  0
SECTION
  2
HEADER
  9
$ANGBASE
  50
0.0
  9
$ANGDIR
  70
1
  9
$MEASUREMENT
  70
0
  0
ENDSEC
  0
SECTION
  2
TABLES
  0
TABLE
  2
LTYPE
  70
4
  0
LTYPE
  5
40F
  2
CONTINUOUS
  70
0
  3
Solid line
  72
65
  73
0
  40
0.0
  0
LTYPE
  5
410
  2
DASHDOT
 70
0
  3
Dash Dot ____ _ ____ _
 72
65
 73
4
 40
2.0
 49
1.25
 49
-0.25
 49
0.25
 49
-0.25
  0
LTYPE
  5
411
  2
DASHED
 70
0
  3
Dashed __ __ __ __ __
 72
65
 73
2
 40
0.75
 49
0.5
 49
-0.25
  0
LTYPE
  5
43B
  2
DOTTED
 70
0
  3
Dotted .  .  .  .
 72
65
 73
2
 40
0.2
 49
0.0
 49
-0.2
  0
ENDTAB
  0
TABLE
  2
STYLE
  70
4
  0
STYLE
  2
KICAD
  70
0
  40
0
  41
1
  42
1
  50
0
  71
0
  3
isocp.shx
  0
STYLE
  2
KICADB
  70
0
  40
0
  41
1
  42
1
  50
0
  71
0
  3
isocp.shx
  0
STYLE
  2
KICADI
  70
0
  40
0
  41
1
  42
1
  50
15
  71
0
  3
isocp.shx
  0
STYLE
  2
KICADBI
  70
0
  40
0
  41
1
  42
1
  50
15
  71
0
  3
isocp.shx
  0
ENDTAB
  0
TABLE
  2
LAYER
  70
1
  0
LAYER
  2
BLACK
  70
0
  62
7
  6
CONTINUOUS
  0
ENDTAB
  0
ENDSEC
  0
SECTION
  2
ENTITIES
0
LINE
8
BLACK
6
CONTINUOUS
10
0.626761
20
0.377885
11
0.626891
21
0.377908
0
LINE
8
BLACK
6
CONTINUOUS
10
0.626891
20
0.377908
11
0.627004
21
0.377842
0
LINE
8
BLACK
6
CONTINUOUS
10
0.627004
20
0.377842
11
0.627388
21
0.377775
0
LINE
8
BLACK
6
CONTINUOUS
10
0.627388
20
0.377775
11
0.627976
21
0.377282
0
LINE
8
BLACK
6
CONTINUOUS
10
0.627976
20
0.377282
11
0.62864
21
0.376898
0
LINE
8
BLACK
6
CONTINUOUS
10
0.62864
20
0.376898
11
0.628731
21
0.376648
0
LINE
8
BLACK
6
CONTINUOUS
10
0.628731
20
0.376648
11
0.628935
21
0.376476
0
LINE
8
BLACK
6
CONTINUOUS
10
0.628935
20
0.376476
11
0.629068
21
0.375721
0
LINE
8
BLACK
6
CONTINUOUS
10
0.629068
20
0.375721
11
0.629331
21
0.375
0
LINE
8
BLACK
6
CONTINUOUS
10
0.629331
20
0.375
11
0.629331
21
-0.373031
0
LINE
8
BLACK
6
CONTINUOUS
10
0.629331
20
-0.373031
11
0.629263
21
-0.373415
0
LINE
8
BLACK
6
CONTINUOUS
10
0.629263
20
-0.373415
11
0.629286
21
-0.373544
0
LINE
8
BLACK
6
CONTINUOUS
10
0.629286
20
-0.373544
11
0.62922
21
-0.373658
0
LINE
8
BLACK
6
CONTINUOUS
10
0.62922
20
-0.373658
11
0.629153
21
-0.374041
0
LINE
8
BLACK
6
CONTINUOUS
10
0.629153
20
-0.374041
11
0.628659
21
-0.374629
0
LINE
8
BLACK
6
CONTINUOUS
10
0.628659
20
-0.374629
11
0.628276
21
-0.375293
0
LINE
8
BLACK
6
CONTINUOUS
10
0.628276
20
-0.375293
11
0.628026
21
-0.375385
0
LINE
8
BLACK
6
CONTINUOUS
10
0.628026
20
-0.375385
11
0.627854
21
-0.375589
0
LINE
8
BLACK
6
CONTINUOUS
10
0.627854
20
-0.375589
11
0.627099
21
-0.375722
0
LINE
8
BLACK
6
CONTINUOUS
10
0.627099
20
-0.375722
11
0.626378
21
-0.375984
0
LINE
8
BLACK
6
CONTINUOUS
10
0.626378
20
-0.375984
11
-0.85
21
-0.375984
0
LINE
8
BLACK
6
CONTINUOUS
10
-0.85
20
-0.375984
11
-0.850384
21
-0.375917
0
LINE
8
BLACK
6
CONTINUOUS
10
-0.850384
20
-0.375917
11
-0.850513
21
-0.375939
0
LINE
8
BLACK
6
CONTINUOUS
10
-0.850513
20
-0.375939
11
-0.850626
21
-0.375874
0
LINE
8
BLACK
6
CONTINUOUS
10
-0.850626
20
-0.375874
11
-0.85101
21
-0.375806
0
LINE
8
BLACK
6
CONTINUOUS
10
-0.85101
20
-0.375806
11
-0.851598
21
-0.375313
0
LINE
8
BLACK
6
CONTINUOUS
10
-0.851598
20
-0.375313
11
-0.852262
21
-0.374929
0
LINE
8
BLACK
6
CONTINUOUS
10
-0.852262
20
-0.374929
11
-0.852353
21
-0.374679
0
LINE
8
BLACK
6
CONTINUOUS
10
-0.852353
20
-0.374679
11
-0.852557
21
-0.374508
0
LINE
8
BLACK
6
CONTINUOUS
10
-0.852557
20
-0.374508
11
-0.85269
21
-0.373752
0
LINE
8
BLACK
6
CONTINUOUS
10
-0.85269
20
-0.373752
11
-0.852953
21
-0.373031
0
LINE
8
BLACK
6
CONTINUOUS
10
-0.852953
20
-0.373031
11
-0.852953
21
0.375
0
LINE
8
BLACK
6
CONTINUOUS
10
-0.852953
20
0.375
11
-0.852885
21
0.375384
0
LINE
8
BLACK
6
CONTINUOUS
10
-0.852885
20
0.375384
11
-0.852908
21
0.375513
0
LINE
8
BLACK
6
CONTINUOUS
10
-0.852908
20
0.375513
11
-0.852842
21
0.375626
0
LINE
8
BLACK
6
CONTINUOUS
10
-0.852842
20
0.375626
11
-0.852775
21
0.37601
0
LINE
8
BLACK
6
CONTINUOUS
10
-0.852775
20
0.37601
11
-0.852282
21
0.376598
0
LINE
8
BLACK
6
CONTINUOUS
10
-0.852282
20
0.376598
11
-0.851898
21
0.377262
0
LINE
8
BLACK
6
CONTINUOUS
10
-0.851898
20
0.377262
11
-0.851648
21
0.377353
0
LINE
8
BLACK
6
CONTINUOUS
10
-0.851648
20
0.377353
11
-0.851476
21
0.377557
0
LINE
8
BLACK
6
CONTINUOUS
10
-0.851476
20
0.377557
11
-0.850721
21
0.37769
0
LINE
8
BLACK
6
CONTINUOUS
10
-0.850721
20
0.37769
11
-0.85
21
0.377953
0
LINE
8
BLACK
6
CONTINUOUS
10
-0.85
20
0.377953
11
0.626378
21
0.377953
0
LINE
8
BLACK
6
CONTINUOUS
10
0.626378
20
0.377953
11
0.626761
21
0.377885
0
LINE
8
BLACK
6
CONTINUOUS
10
-0.847047
20
0.372047
11
-0.847047
21
-0.370079
0
LINE
8
BLACK
6
CONTINUOUS
10
-0.847047
20
-0.370079
11
0.623425
21
-0.370079
0
LINE
8
BLACK
6
CONTINUOUS
10
0.623425
20
-0.370079
11
0.623425
21
0.372047
0
LINE
8
BLACK
6
CONTINUOUS
10
0.623425
20
0.372047
11
-0.847047
21
0.372047
0
LINE
8
BLACK
6
CONTINUOUS
10
-0.433339
20
-0.33771
11
-0.437708
21
-0.336181
0
LINE
8
BLACK
6
CONTINUOUS
10
-0.437708
20
-0.336181
11
-0.441627
21
-0.333719
0
LINE
8
BLACK
6
CONTINUOUS
10
-0.441627
20
-0.333719
11
-0.4449
21
-0.330446
0
LINE
8
BLACK
6
CONTINUOUS
10
-0.4449
20
-0.330446
11
-0.447362
21
-0.326527
0
LINE
8
BLACK
6
CONTINUOUS
10
-0.447362
20
-0.326527
11
-0.448891
21
-0.322158
0
LINE
8
BLACK
6
CONTINUOUS
10
-0.448891
20
-0.322158
11
-0.449409
21
-0.31756
0
LINE
8
BLACK
6
CONTINUOUS
10
-0.449409
20
-0.31756
11
-0.449409
21
-0.317559
0
LINE
8
BLACK
6
CONTINUOUS
10
-0.449409
20
-0.317559
11
-0.449409
21
-0.262441
0
LINE
8
BLACK
6
CONTINUOUS
10
-0.449409
20
-0.262441
11
-0.448891
21
-0.257842
0
LINE
8
BLACK
6
CONTINUOUS
10
-0.448891
20
-0.257842
11
-0.447362
21
-0.253473
0
LINE
8
BLACK
6
CONTINUOUS
10
-0.447362
20
-0.253473
11
-0.4449
21
-0.249554
0
LINE
8
BLACK
6
CONTINUOUS
10
-0.4449
20
-0.249554
11
-0.441627
21
-0.246281
0
LINE
8
BLACK
6
CONTINUOUS
10
-0.441627
20
-0.246281
11
-0.437708
21
-0.243819
0
LINE
8
BLACK
6
CONTINUOUS
10
-0.437708
20
-0.243819
11
-0.433339
21
-0.24229
0
LINE
8
BLACK
6
CONTINUOUS
10
-0.433339
20
-0.24229
11
-0.428741
21
-0.241772
0
LINE
8
BLACK
6
CONTINUOUS
10
-0.428741
20
-0.241772
11
-0.42874
21
-0.241772
0
LINE
8
BLACK
6
CONTINUOUS
10
-0.42874
20
-0.241772
11
-0.381496
21
-0.241772
0
LINE
8
BLACK
6
CONTINUOUS
10
-0.381496
20
-0.241772
11
-0.376897
21
-0.24229
0
LINE
8
BLACK
6
CONTINUOUS
10
-0.376897
20
-0.24229
11
-0.372528
21
-0.243819
0
LINE
8
BLACK
6
CONTINUOUS
10
-0.372528
20
-0.243819
11
-0.368609
21
-0.246281
0
LINE
8
BLACK
6
CONTINUOUS
10
-0.368609
20
-0.246281
11
-0.365336
21
-0.249554
0
LINE
8
BLACK
6
CONTINUOUS
10
-0.365336
20
-0.249554
11
-0.362874
21
-0.253473
0
LINE
8
BLACK
6
CONTINUOUS
10
-0.362874
20
-0.253473
11
-0.361345
21
-0.257842
0
LINE
8
BLACK
6
CONTINUOUS
10
-0.361345
20
-0.257842
11
-0.360827
21
-0.262441
0
LINE
8
BLACK
6
CONTINUOUS
10
-0.360827
20
-0.262441
11
-0.360827
21
-0.262441
0
LINE
8
BLACK
6
CONTINUOUS
10
-0.360827
20
-0.262441
11
-0.360827
21
-0.317559
0
LINE
8
BLACK
6
CONTINUOUS
10
-0.360827
20
-0.317559
11
-0.361345
21
-0.322158
0
LINE
8
BLACK
6
CONTINUOUS
10
-0.361345
20
-0.322158
11
-0.362874
21
-0.326527
0
LINE
8
BLACK
6
CONTINUOUS
10
-0.362874
20
-0.326527
11
-0.365336
21
-0.330446
0
LINE
8
BLACK
6
CONTINUOUS
10
-0.365336
20
-0.330446
11
-0.368609
21
-0.333719
0
LINE
8
BLACK
6
CONTINUOUS
10
-0.368609
20
-0.333719
11
-0.372528
21
-0.336182
0
LINE
8
BLACK
6
CONTINUOUS
10
-0.372528
20
-0.336182
11
-0.376897
21
-0.33771
0
LINE
8
BLACK
6
CONTINUOUS
10
-0.376897
20
-0.33771
11
-0.381496
21
-0.338229
0
LINE
8
BLACK
6
CONTINUOUS
10
-0.381496
20
-0.338229
11
-0.381496
21
-0.338228
0
LINE
8
BLACK
6
CONTINUOUS
10
-0.381496
20
-0.338228
11
-0.42874
21
-0.338228
0
LINE
8
BLACK
6
CONTINUOUS
10
-0.42874
20
-0.338228
11
-0.433339
21
-0.33771
0
LINE
8
BLACK
6
CONTINUOUS
10
-0.429036
20
-0.243618
11
-0.433622
21
-0.244222
0
LINE
8
BLACK
6
CONTINUOUS
10
-0.433622
20
-0.244222
11
-0.438171
21
-0.246106
0
LINE
8
BLACK
6
CONTINUOUS
10
-0.438171
20
-0.246106
11
-0.442078
21
-0.249103
0
LINE
8
BLACK
6
CONTINUOUS
10
-0.442078
20
-0.249103
11
-0.445075
21
-0.25301
0
LINE
8
BLACK
6
CONTINUOUS
10
-0.445075
20
-0.25301
11
-0.44696
21
-0.257559
0
LINE
8
BLACK
6
CONTINUOUS
10
-0.44696
20
-0.257559
11
-0.447563
21
-0.262145
0
LINE
8
BLACK
6
CONTINUOUS
10
-0.447563
20
-0.262145
11
-0.447441
21
-0.262441
0
LINE
8
BLACK
6
CONTINUOUS
10
-0.447441
20
-0.262441
11
-0.447441
21
-0.317559
0
LINE
8
BLACK
6
CONTINUOUS
10
-0.447441
20
-0.317559
11
-0.447563
21
-0.317854
0
LINE
8
BLACK
6
CONTINUOUS
10
-0.447563
20
-0.317854
11
-0.446959
21
-0.322441
0
LINE
8
BLACK
6
CONTINUOUS
10
-0.446959
20
-0.322441
11
-0.445075
21
-0.32699
0
LINE
8
BLACK
6
CONTINUOUS
10
-0.445075
20
-0.32699
11
-0.442078
21
-0.330897
0
LINE
8
BLACK
6
CONTINUOUS
10
-0.442078
20
-0.330897
11
-0.438171
21
-0.333894
0
LINE
8
BLACK
6
CONTINUOUS
10
-0.438171
20
-0.333894
11
-0.433622
21
-0.335779
0
LINE
8
BLACK
6
CONTINUOUS
10
-0.433622
20
-0.335779
11
-0.429036
21
-0.336382
0
LINE
8
BLACK
6
CONTINUOUS
10
-0.429036
20
-0.336382
11
-0.42874
21
-0.33626
0
LINE
8
BLACK
6
CONTINUOUS
10
-0.42874
20
-0.33626
11
-0.381496
21
-0.33626
0
LINE
8
BLACK
6
CONTINUOUS
10
-0.381496
20
-0.33626
11
-0.3812
21
-0.336382
0
LINE
8
BLACK
6
CONTINUOUS
10
-0.3812
20
-0.336382
11
-0.376614
21
-0.335779
0
LINE
8
BLACK
6
CONTINUOUS
10
-0.376614
20
-0.335779
11
-0.372065
21
-0.333894
0
LINE
8
BLACK
6
CONTINUOUS
10
-0.372065
20
-0.333894
11
-0.368158
21
-0.330897
0
LINE
8
BLACK
6
CONTINUOUS
10
-0.368158
20
-0.330897
11
-0.365161
21
-0.32699
0
LINE
8
BLACK
6
CONTINUOUS
10
-0.365161
20
-0.32699
11
-0.363277
21
-0.322441
0
LINE
8
BLACK
6
CONTINUOUS
10
-0.363277
20
-0.322441
11
-0.362673
21
-0.317855
0
LINE
8
BLACK
6
CONTINUOUS
10
-0.362673
20
-0.317855
11
-0.362795
21
-0.317559
0
LINE
8
BLACK
6
CONTINUOUS
10
-0.362795
20
-0.317559
11
-0.362795
21
-0.262441
0
LINE
8
BLACK
6
CONTINUOUS
10
-0.362795
20
-0.262441
11
-0.362673
21
-0.262145
0
LINE
8
BLACK
6
CONTINUOUS
10
-0.362673
20
-0.262145
11
-0.363276
21
-0.257559
0
LINE
8
BLACK
6
CONTINUOUS
10
-0.363276
20
-0.257559
11
-0.365161
21
-0.25301
0
LINE
8
BLACK
6
CONTINUOUS
10
-0.365161
20
-0.25301
11
-0.368158
21
-0.249103
0
LINE
8
BLACK
6
CONTINUOUS
10
-0.368158
20
-0.249103
11
-0.372065
21
-0.246106
0
LINE
8
BLACK
6
CONTINUOUS
10
-0.372065
20
-0.246106
11
-0.376614
21
-0.244221
0
LINE
8
BLACK
6
CONTINUOUS
10
-0.376614
20
-0.244221
11
-0.3812
21
-0.243618
0
LINE
8
BLACK
6
CONTINUOUS
10
-0.3812
20
-0.243618
11
-0.381496
21
-0.24374
0
LINE
8
BLACK
6
CONTINUOUS
10
-0.381496
20
-0.24374
11
-0.42874
21
-0.24374
0
LINE
8
BLACK
6
CONTINUOUS
10
-0.42874
20
-0.24374
11
-0.429036
21
-0.243618
0
LINE
8
BLACK
6
CONTINUOUS
10
-0.0282214
20
-0.331175
11
-0.0325901
21
-0.329646
0
LINE
8
BLACK
6
CONTINUOUS
10
-0.0325901
20
-0.329646
11
-0.0365091
21
-0.327184
0
LINE
8
BLACK
6
CONTINUOUS
10
-0.0365091
20
-0.327184
11
-0.0397819
21
-0.323911
0
LINE
8
BLACK
6
CONTINUOUS
10
-0.0397819
20
-0.323911
11
-0.0422443
21
-0.319992
0
LINE
8
BLACK
6
CONTINUOUS
10
-0.0422443
20
-0.319992
11
-0.043773
21
-0.315623
0
LINE
8
BLACK
6
CONTINUOUS
10
-0.043773
20
-0.315623
11
-0.0442911
21
-0.311024
0
LINE
8
BLACK
6
CONTINUOUS
10
-0.0442911
20
-0.311024
11
-0.0442913
21
-0.311024
0
LINE
8
BLACK
6
CONTINUOUS
10
-0.0442913
20
-0.311024
11
-0.0442913
21
-0.255906
0
LINE
8
BLACK
6
CONTINUOUS
10
-0.0442913
20
-0.255906
11
-0.0437731
21
-0.251306
0
LINE
8
BLACK
6
CONTINUOUS
10
-0.0437731
20
-0.251306
11
-0.0422444
21
-0.246937
0
LINE
8
BLACK
6
CONTINUOUS
10
-0.0422444
20
-0.246937
11
-0.0397819
21
-0.243019
0
LINE
8
BLACK
6
CONTINUOUS
10
-0.0397819
20
-0.243019
11
-0.0365091
21
-0.239746
0
LINE
8
BLACK
6
CONTINUOUS
10
-0.0365091
20
-0.239746
11
-0.0325901
21
-0.237283
0
LINE
8
BLACK
6
CONTINUOUS
10
-0.0325901
20
-0.237283
11
-0.0282214
21
-0.235755
0
LINE
8
BLACK
6
CONTINUOUS
10
-0.0282214
20
-0.235755
11
-0.0236226
21
-0.235236
0
LINE
8
BLACK
6
CONTINUOUS
10
-0.0236226
20
-0.235236
11
-0.023622
21
-0.235236
0
LINE
8
BLACK
6
CONTINUOUS
10
-0.023622
20
-0.235236
11
0.023622
21
-0.235236
0
LINE
8
BLACK
6
CONTINUOUS
10
0.023622
20
-0.235236
11
0.0282214
21
-0.235754
0
LINE
8
BLACK
6
CONTINUOUS
10
0.0282214
20
-0.235754
11
0.0325902
21
-0.237283
0
LINE
8
BLACK
6
CONTINUOUS
10
0.0325902
20
-0.237283
11
0.0365092
21
-0.239746
0
LINE
8
BLACK
6
CONTINUOUS
10
0.0365092
20
-0.239746
11
0.039782
21
-0.243018
0
LINE
8
BLACK
6
CONTINUOUS
10
0.039782
20
-0.243018
11
0.0422445
21
-0.246937
0
LINE
8
BLACK
6
CONTINUOUS
10
0.0422445
20
-0.246937
11
0.0437732
21
-0.251306
0
LINE
8
BLACK
6
CONTINUOUS
10
0.0437732
20
-0.251306
11
0.0442915
21
-0.255906
0
LINE
8
BLACK
6
CONTINUOUS
10
0.0442915
20
-0.255906
11
0.0442913
21
-0.255906
0
LINE
8
BLACK
6
CONTINUOUS
10
0.0442913
20
-0.255906
11
0.0442913
21
-0.311024
0
LINE
8
BLACK
6
CONTINUOUS
10
0.0442913
20
-0.311024
11
0.0437731
21
-0.315623
0
LINE
8
BLACK
6
CONTINUOUS
10
0.0437731
20
-0.315623
11
0.0422445
21
-0.319992
0
LINE
8
BLACK
6
CONTINUOUS
10
0.0422445
20
-0.319992
11
0.039782
21
-0.323911
0
LINE
8
BLACK
6
CONTINUOUS
10
0.039782
20
-0.323911
11
0.0365092
21
-0.327184
0
LINE
8
BLACK
6
CONTINUOUS
10
0.0365092
20
-0.327184
11
0.0325902
21
-0.329646
0
LINE
8
BLACK
6
CONTINUOUS
10
0.0325902
20
-0.329646
11
0.0282214
21
-0.331175
0
LINE
8
BLACK
6
CONTINUOUS
10
0.0282214
20
-0.331175
11
0.023622
21
-0.331693
0
LINE
8
BLACK
6
CONTINUOUS
10
0.023622
20
-0.331693
11
0.023622
21
-0.331693
0
LINE
8
BLACK
6
CONTINUOUS
10
0.023622
20
-0.331693
11
-0.023622
21
-0.331693
0
LINE
8
BLACK
6
CONTINUOUS
10
-0.023622
20
-0.331693
11
-0.0282214
21
-0.331175
0
LINE
8
BLACK
6
CONTINUOUS
10
-0.0239174
20
-0.237082
11
-0.0285039
21
-0.237686
0
LINE
8
BLACK
6
CONTINUOUS
10
-0.0285039
20
-0.237686
11
-0.0330531
21
-0.239571
0
LINE
8
BLACK
6
CONTINUOUS
10
-0.0330531
20
-0.239571
11
-0.0369596
21
-0.242568
0
LINE
8
BLACK
6
CONTINUOUS
10
-0.0369596
20
-0.242568
11
-0.0399571
21
-0.246474
0
LINE
8
BLACK
6
CONTINUOUS
10
-0.0399571
20
-0.246474
11
-0.0418415
21
-0.251024
0
LINE
8
BLACK
6
CONTINUOUS
10
-0.0418415
20
-0.251024
11
-0.0424453
21
-0.25561
0
LINE
8
BLACK
6
CONTINUOUS
10
-0.0424453
20
-0.25561
11
-0.0423228
21
-0.255906
0
LINE
8
BLACK
6
CONTINUOUS
10
-0.0423228
20
-0.255906
11
-0.0423228
21
-0.311024
0
LINE
8
BLACK
6
CONTINUOUS
10
-0.0423228
20
-0.311024
11
-0.0424452
21
-0.311319
0
LINE
8
BLACK
6
CONTINUOUS
10
-0.0424452
20
-0.311319
11
-0.0418414
21
-0.315906
0
LINE
8
BLACK
6
CONTINUOUS
10
-0.0418414
20
-0.315906
11
-0.0399571
21
-0.320455
0
LINE
8
BLACK
6
CONTINUOUS
10
-0.0399571
20
-0.320455
11
-0.0369596
21
-0.324361
0
LINE
8
BLACK
6
CONTINUOUS
10
-0.0369596
20
-0.324361
11
-0.0330531
21
-0.327359
0
LINE
8
BLACK
6
CONTINUOUS
10
-0.0330531
20
-0.327359
11
-0.0285039
21
-0.329243
0
LINE
8
BLACK
6
CONTINUOUS
10
-0.0285039
20
-0.329243
11
-0.0239177
21
-0.329847
0
LINE
8
BLACK
6
CONTINUOUS
10
-0.0239177
20
-0.329847
11
-0.023622
21
-0.329724
0
LINE
8
BLACK
6
CONTINUOUS
10
-0.023622
20
-0.329724
11
0.023622
21
-0.329724
0
LINE
8
BLACK
6
CONTINUOUS
10
0.023622
20
-0.329724
11
0.023918
21
-0.329847
0
LINE
8
BLACK
6
CONTINUOUS
10
0.023918
20
-0.329847
11
0.028504
21
-0.329243
0
LINE
8
BLACK
6
CONTINUOUS
10
0.028504
20
-0.329243
11
0.0330532
21
-0.327359
0
LINE
8
BLACK
6
CONTINUOUS
10
0.0330532
20
-0.327359
11
0.0369597
21
-0.324361
0
LINE
8
BLACK
6
CONTINUOUS
10
0.0369597
20
-0.324361
11
0.0399572
21
-0.320455
0
LINE
8
BLACK
6
CONTINUOUS
10
0.0399572
20
-0.320455
11
0.0418415
21
-0.315906
0
LINE
8
BLACK
6
CONTINUOUS
10
0.0418415
20
-0.315906
11
0.0424453
21
-0.311319
0
LINE
8
BLACK
6
CONTINUOUS
10
0.0424453
20
-0.311319
11
0.0423228
21
-0.311024
0
LINE
8
BLACK
6
CONTINUOUS
10
0.0423228
20
-0.311024
11
0.0423228
21
-0.255906
0
LINE
8
BLACK
6
CONTINUOUS
10
0.0423228
20
-0.255906
11
0.0424454
21
-0.25561
0
LINE
8
BLACK
6
CONTINUOUS
10
0.0424454
20
-0.25561
11
0.0418416
21
-0.251024
0
LINE
8
BLACK
6
CONTINUOUS
10
0.0418416
20
-0.251024
11
0.0399572
21
-0.246474
0
LINE
8
BLACK
6
CONTINUOUS
10
0.0399572
20
-0.246474
11
0.0369597
21
-0.242568
0
LINE
8
BLACK
6
CONTINUOUS
10
0.0369597
20
-0.242568
11
0.0330531
21
-0.23957
0
LINE
8
BLACK
6
CONTINUOUS
10
0.0330531
20
-0.23957
11
0.0285039
21
-0.237686
0
LINE
8
BLACK
6
CONTINUOUS
10
0.0285039
20
-0.237686
11
0.0239177
21
-0.237082
0
LINE
8
BLACK
6
CONTINUOUS
10
0.0239177
20
-0.237082
11
0.023622
21
-0.237205
0
LINE
8
BLACK
6
CONTINUOUS
10
0.023622
20
-0.237205
11
-0.023622
21
-0.237205
0
LINE
8
BLACK
6
CONTINUOUS
10
-0.023622
20
-0.237205
11
-0.0239174
21
-0.237082
  0
ENDSEC
  0
EOF
