  0
SECTION
  2
HEADER
  9
$ANGBASE
  50
0.0
  9
$ANGDIR
  70
1
  9
$MEASUREMENT
  70
0
  0
ENDSEC
  0
SECTION
  2
TABLES
  0
TABLE
  2
LTYPE
  70
4
  0
LTYPE
  5
40F
  2
CONTINUOUS
  70
0
  3
Solid line
  72
65
  73
0
  40
0.0
  0
LTYPE
  5
410
  2
DASHDOT
 70
0
  3
Dash Dot ____ _ ____ _
 72
65
 73
4
 40
2.0
 49
1.25
 49
-0.25
 49
0.25
 49
-0.25
  0
LTYPE
  5
411
  2
DASHED
 70
0
  3
Dashed __ __ __ __ __
 72
65
 73
2
 40
0.75
 49
0.5
 49
-0.25
  0
LTYPE
  5
43B
  2
DOTTED
 70
0
  3
Dotted .  .  .  .
 72
65
 73
2
 40
0.2
 49
0.0
 49
-0.2
  0
ENDTAB
  0
TABLE
  2
STYLE
  70
4
  0
STYLE
  2
KICAD
  70
0
  40
0
  41
1
  42
1
  50
0
  71
0
  3
isocp.shx
  0
STYLE
  2
KICADB
  70
0
  40
0
  41
1
  42
1
  50
0
  71
0
  3
isocp.shx
  0
STYLE
  2
KICADI
  70
0
  40
0
  41
1
  42
1
  50
15
  71
0
  3
isocp.shx
  0
STYLE
  2
KICADBI
  70
0
  40
0
  41
1
  42
1
  50
15
  71
0
  3
isocp.shx
  0
ENDTAB
  0
TABLE
  2
LAYER
  70
1
  0
LAYER
  2
BLACK
  70
0
  62
7
  6
CONTINUOUS
  0
ENDTAB
  0
ENDSEC
  0
SECTION
  2
ENTITIES
0
LINE
8
BLACK
6
CONTINUOUS
10
0.488465
20
0.0466498
11
0.421535
21
0.0466498
0
LINE
8
BLACK
6
CONTINUOUS
10
0.421535
20
0.0466498
11
0.421535
21
0.113579
0
LINE
8
BLACK
6
CONTINUOUS
10
0.421535
20
0.113579
11
0.488465
21
0.113579
0
LINE
8
BLACK
6
CONTINUOUS
10
0.488465
20
0.113579
11
0.488465
21
0.0466498
0
LINE
8
BLACK
6
CONTINUOUS
10
0.23865
20
0.297907
11
0.252132
21
0.296133
0
LINE
8
BLACK
6
CONTINUOUS
10
0.252132
20
0.296133
11
0.26532
21
0.29282
0
LINE
8
BLACK
6
CONTINUOUS
10
0.26532
20
0.29282
11
0.27804
21
0.288013
0
LINE
8
BLACK
6
CONTINUOUS
10
0.27804
20
0.288013
11
0.290123
21
0.281777
0
LINE
8
BLACK
6
CONTINUOUS
10
0.290123
20
0.281777
11
0.301409
21
0.274193
0
LINE
8
BLACK
6
CONTINUOUS
10
0.301409
20
0.274193
11
0.311749
21
0.265362
0
LINE
8
BLACK
6
CONTINUOUS
10
0.311749
20
0.265362
11
0.321006
21
0.255401
0
LINE
8
BLACK
6
CONTINUOUS
10
0.321006
20
0.255401
11
0.329056
21
0.244442
0
LINE
8
BLACK
6
CONTINUOUS
10
0.329056
20
0.244442
11
0.335793
21
0.23263
0
LINE
8
BLACK
6
CONTINUOUS
10
0.335793
20
0.23263
11
0.341128
21
0.220123
0
LINE
8
BLACK
6
CONTINUOUS
10
0.341128
20
0.220123
11
0.34499
21
0.207085
0
LINE
8
BLACK
6
CONTINUOUS
10
0.34499
20
0.207085
11
0.347327
21
0.19369
0
LINE
8
BLACK
6
CONTINUOUS
10
0.347327
20
0.19369
11
0.34811
21
0.180114
0
LINE
8
BLACK
6
CONTINUOUS
10
0.34811
20
0.180114
11
0.347877
21
0.172698
0
LINE
8
BLACK
6
CONTINUOUS
10
0.347877
20
0.172698
11
0.346244
21
0.159199
0
LINE
8
BLACK
6
CONTINUOUS
10
0.346244
20
0.159199
11
0.343069
21
0.145977
0
LINE
8
BLACK
6
CONTINUOUS
10
0.343069
20
0.145977
11
0.338396
21
0.133207
0
LINE
8
BLACK
6
CONTINUOUS
10
0.338396
20
0.133207
11
0.332286
21
0.121059
0
LINE
8
BLACK
6
CONTINUOUS
10
0.332286
20
0.121059
11
0.324821
21
0.109694
0
LINE
8
BLACK
6
CONTINUOUS
10
0.324821
20
0.109694
11
0.316099
21
0.0992623
0
LINE
8
BLACK
6
CONTINUOUS
10
0.316099
20
0.0992623
11
0.306235
21
0.0899022
0
LINE
8
BLACK
6
CONTINUOUS
10
0.306235
20
0.0899022
11
0.295361
21
0.0817378
0
LINE
8
BLACK
6
CONTINUOUS
10
0.295361
20
0.0817378
11
0.283621
21
0.0748773
0
LINE
8
BLACK
6
CONTINUOUS
10
0.283621
20
0.0748773
11
0.27117
21
0.0694117
0
LINE
8
BLACK
6
CONTINUOUS
10
0.27117
20
0.0694117
11
0.258173
21
0.0654134
0
LINE
8
BLACK
6
CONTINUOUS
10
0.258173
20
0.0654134
11
0.244803
21
0.0629354
0
LINE
8
BLACK
6
CONTINUOUS
10
0.244803
20
0.0629354
11
0.231237
21
0.0620106
0
LINE
8
BLACK
6
CONTINUOUS
10
0.231237
20
0.0620106
11
0.217654
21
0.0626511
0
LINE
8
BLACK
6
CONTINUOUS
10
0.217654
20
0.0626511
11
0.204235
21
0.0648486
0
LINE
8
BLACK
6
CONTINUOUS
10
0.204235
20
0.0648486
11
0.191157
21
0.0685738
0
LINE
8
BLACK
6
CONTINUOUS
10
0.191157
20
0.0685738
11
0.178595
21
0.0737775
0
LINE
8
BLACK
6
CONTINUOUS
10
0.178595
20
0.0737775
11
0.166713
21
0.0803906
0
LINE
8
BLACK
6
CONTINUOUS
10
0.166713
20
0.0803906
11
0.155671
21
0.0883254
0
LINE
8
BLACK
6
CONTINUOUS
10
0.155671
20
0.0883254
11
0.145613
21
0.0974769
0
LINE
8
BLACK
6
CONTINUOUS
10
0.145613
20
0.0974769
11
0.136675
21
0.107724
0
LINE
8
BLACK
6
CONTINUOUS
10
0.136675
20
0.107724
11
0.128973
21
0.11893
0
LINE
8
BLACK
6
CONTINUOUS
10
0.128973
20
0.11893
11
0.12261
21
0.130947
0
LINE
8
BLACK
6
CONTINUOUS
10
0.12261
20
0.130947
11
0.11767
21
0.143616
0
LINE
8
BLACK
6
CONTINUOUS
10
0.11767
20
0.143616
11
0.11422
21
0.156769
0
LINE
8
BLACK
6
CONTINUOUS
10
0.11422
20
0.156769
11
0.112304
21
0.170231
0
LINE
8
BLACK
6
CONTINUOUS
10
0.112304
20
0.170231
11
0.111948
21
0.183824
0
LINE
8
BLACK
6
CONTINUOUS
10
0.111948
20
0.183824
11
0.113157
21
0.197368
0
LINE
8
BLACK
6
CONTINUOUS
10
0.113157
20
0.197368
11
0.115914
21
0.210684
0
LINE
8
BLACK
6
CONTINUOUS
10
0.115914
20
0.210684
11
0.120184
21
0.223594
0
LINE
8
BLACK
6
CONTINUOUS
10
0.120184
20
0.223594
11
0.125909
21
0.235927
0
LINE
8
BLACK
6
CONTINUOUS
10
0.125909
20
0.235927
11
0.133014
21
0.247521
0
LINE
8
BLACK
6
CONTINUOUS
10
0.133014
20
0.247521
11
0.141404
21
0.258222
0
LINE
8
BLACK
6
CONTINUOUS
10
0.141404
20
0.258222
11
0.150969
21
0.267887
0
LINE
8
BLACK
6
CONTINUOUS
10
0.150969
20
0.267887
11
0.161581
21
0.276389
0
LINE
8
BLACK
6
CONTINUOUS
10
0.161581
20
0.276389
11
0.1731
21
0.283615
0
LINE
8
BLACK
6
CONTINUOUS
10
0.1731
20
0.283615
11
0.185373
21
0.289469
0
LINE
8
BLACK
6
CONTINUOUS
10
0.185373
20
0.289469
11
0.198238
21
0.293874
0
LINE
8
BLACK
6
CONTINUOUS
10
0.198238
20
0.293874
11
0.211524
21
0.29677
0
LINE
8
BLACK
6
CONTINUOUS
10
0.211524
20
0.29677
11
0.225054
21
0.298121
0
LINE
8
BLACK
6
CONTINUOUS
10
0.225054
20
0.298121
11
0.23865
21
0.297907
0
LINE
8
BLACK
6
CONTINUOUS
10
0.465341
20
0.211941
11
0.471732
21
0.209096
0
LINE
8
BLACK
6
CONTINUOUS
10
0.471732
20
0.209096
11
0.477392
21
0.204983
0
LINE
8
BLACK
6
CONTINUOUS
10
0.477392
20
0.204983
11
0.482073
21
0.199784
0
LINE
8
BLACK
6
CONTINUOUS
10
0.482073
20
0.199784
11
0.485571
21
0.193726
0
LINE
8
BLACK
6
CONTINUOUS
10
0.485571
20
0.193726
11
0.487733
21
0.187072
0
LINE
8
BLACK
6
CONTINUOUS
10
0.487733
20
0.187072
11
0.488465
21
0.180114
0
LINE
8
BLACK
6
CONTINUOUS
10
0.488465
20
0.180114
11
0.487733
21
0.173157
0
LINE
8
BLACK
6
CONTINUOUS
10
0.487733
20
0.173157
11
0.485571
21
0.166503
0
LINE
8
BLACK
6
CONTINUOUS
10
0.485571
20
0.166503
11
0.482073
21
0.160444
0
LINE
8
BLACK
6
CONTINUOUS
10
0.482073
20
0.160444
11
0.477392
21
0.155245
0
LINE
8
BLACK
6
CONTINUOUS
10
0.477392
20
0.155245
11
0.471732
21
0.151133
0
LINE
8
BLACK
6
CONTINUOUS
10
0.471732
20
0.151133
11
0.465341
21
0.148288
0
LINE
8
BLACK
6
CONTINUOUS
10
0.465341
20
0.148288
11
0.458498
21
0.146833
0
LINE
8
BLACK
6
CONTINUOUS
10
0.458498
20
0.146833
11
0.451502
21
0.146833
0
LINE
8
BLACK
6
CONTINUOUS
10
0.451502
20
0.146833
11
0.444659
21
0.148288
0
LINE
8
BLACK
6
CONTINUOUS
10
0.444659
20
0.148288
11
0.438268
21
0.151133
0
LINE
8
BLACK
6
CONTINUOUS
10
0.438268
20
0.151133
11
0.432608
21
0.155245
0
LINE
8
BLACK
6
CONTINUOUS
10
0.432608
20
0.155245
11
0.427927
21
0.160444
0
LINE
8
BLACK
6
CONTINUOUS
10
0.427927
20
0.160444
11
0.424429
21
0.166503
0
LINE
8
BLACK
6
CONTINUOUS
10
0.424429
20
0.166503
11
0.422267
21
0.173157
0
LINE
8
BLACK
6
CONTINUOUS
10
0.422267
20
0.173157
11
0.421535
21
0.180114
0
LINE
8
BLACK
6
CONTINUOUS
10
0.421535
20
0.180114
11
0.422267
21
0.187072
0
LINE
8
BLACK
6
CONTINUOUS
10
0.422267
20
0.187072
11
0.424429
21
0.193726
0
LINE
8
BLACK
6
CONTINUOUS
10
0.424429
20
0.193726
11
0.427927
21
0.199784
0
LINE
8
BLACK
6
CONTINUOUS
10
0.427927
20
0.199784
11
0.432608
21
0.204983
0
LINE
8
BLACK
6
CONTINUOUS
10
0.432608
20
0.204983
11
0.438268
21
0.209096
0
LINE
8
BLACK
6
CONTINUOUS
10
0.438268
20
0.209096
11
0.444659
21
0.211941
0
LINE
8
BLACK
6
CONTINUOUS
10
0.444659
20
0.211941
11
0.451502
21
0.213396
0
LINE
8
BLACK
6
CONTINUOUS
10
0.451502
20
0.213396
11
0.458498
21
0.213396
0
LINE
8
BLACK
6
CONTINUOUS
10
0.458498
20
0.213396
11
0.465341
21
0.211941
0
LINE
8
BLACK
6
CONTINUOUS
10
0.465341
20
0.311941
11
0.471732
21
0.309096
0
LINE
8
BLACK
6
CONTINUOUS
10
0.471732
20
0.309096
11
0.477392
21
0.304983
0
LINE
8
BLACK
6
CONTINUOUS
10
0.477392
20
0.304983
11
0.482073
21
0.299784
0
LINE
8
BLACK
6
CONTINUOUS
10
0.482073
20
0.299784
11
0.485571
21
0.293726
0
LINE
8
BLACK
6
CONTINUOUS
10
0.485571
20
0.293726
11
0.487733
21
0.287072
0
LINE
8
BLACK
6
CONTINUOUS
10
0.487733
20
0.287072
11
0.488465
21
0.280114
0
LINE
8
BLACK
6
CONTINUOUS
10
0.488465
20
0.280114
11
0.487733
21
0.273157
0
LINE
8
BLACK
6
CONTINUOUS
10
0.487733
20
0.273157
11
0.485571
21
0.266503
0
LINE
8
BLACK
6
CONTINUOUS
10
0.485571
20
0.266503
11
0.482073
21
0.260444
0
LINE
8
BLACK
6
CONTINUOUS
10
0.482073
20
0.260444
11
0.477392
21
0.255245
0
LINE
8
BLACK
6
CONTINUOUS
10
0.477392
20
0.255245
11
0.471732
21
0.251133
0
LINE
8
BLACK
6
CONTINUOUS
10
0.471732
20
0.251133
11
0.465341
21
0.248288
0
LINE
8
BLACK
6
CONTINUOUS
10
0.465341
20
0.248288
11
0.458498
21
0.246833
0
LINE
8
BLACK
6
CONTINUOUS
10
0.458498
20
0.246833
11
0.451502
21
0.246833
0
LINE
8
BLACK
6
CONTINUOUS
10
0.451502
20
0.246833
11
0.444659
21
0.248288
0
LINE
8
BLACK
6
CONTINUOUS
10
0.444659
20
0.248288
11
0.438268
21
0.251133
0
LINE
8
BLACK
6
CONTINUOUS
10
0.438268
20
0.251133
11
0.432608
21
0.255245
0
LINE
8
BLACK
6
CONTINUOUS
10
0.432608
20
0.255245
11
0.427927
21
0.260444
0
LINE
8
BLACK
6
CONTINUOUS
10
0.427927
20
0.260444
11
0.424429
21
0.266503
0
LINE
8
BLACK
6
CONTINUOUS
10
0.424429
20
0.266503
11
0.422267
21
0.273157
0
LINE
8
BLACK
6
CONTINUOUS
10
0.422267
20
0.273157
11
0.421535
21
0.280114
0
LINE
8
BLACK
6
CONTINUOUS
10
0.421535
20
0.280114
11
0.422267
21
0.287072
0
LINE
8
BLACK
6
CONTINUOUS
10
0.422267
20
0.287072
11
0.424429
21
0.293726
0
LINE
8
BLACK
6
CONTINUOUS
10
0.424429
20
0.293726
11
0.427927
21
0.299784
0
LINE
8
BLACK
6
CONTINUOUS
10
0.427927
20
0.299784
11
0.432608
21
0.304983
0
LINE
8
BLACK
6
CONTINUOUS
10
0.432608
20
0.304983
11
0.438268
21
0.309096
0
LINE
8
BLACK
6
CONTINUOUS
10
0.438268
20
0.309096
11
0.444659
21
0.311941
0
LINE
8
BLACK
6
CONTINUOUS
10
0.444659
20
0.311941
11
0.451502
21
0.313396
0
LINE
8
BLACK
6
CONTINUOUS
10
0.451502
20
0.313396
11
0.458498
21
0.313396
0
LINE
8
BLACK
6
CONTINUOUS
10
0.458498
20
0.313396
11
0.465341
21
0.311941
  0
ENDSEC
  0
EOF
