  0
SECTION
  2
HEADER
  9
$ANGBASE
  50
0.0
  9
$ANGDIR
  70
1
  9
$MEASUREMENT
  70
0
  0
ENDSEC
  0
SECTION
  2
TABLES
  0
TABLE
  2
LTYPE
  70
4
  0
LTYPE
  5
40F
  2
CONTINUOUS
  70
0
  3
Solid line
  72
65
  73
0
  40
0.0
  0
LTYPE
  5
410
  2
DASHDOT
 70
0
  3
Dash Dot ____ _ ____ _
 72
65
 73
4
 40
2.0
 49
1.25
 49
-0.25
 49
0.25
 49
-0.25
  0
LTYPE
  5
411
  2
DASHED
 70
0
  3
Dashed __ __ __ __ __
 72
65
 73
2
 40
0.75
 49
0.5
 49
-0.25
  0
LTYPE
  5
43B
  2
DOTTED
 70
0
  3
Dotted .  .  .  .
 72
65
 73
2
 40
0.2
 49
0.0
 49
-0.2
  0
ENDTAB
  0
TABLE
  2
STYLE
  70
4
  0
STYLE
  2
KICAD
  70
0
  40
0
  41
1
  42
1
  50
0
  71
0
  3
isocp.shx
  0
STYLE
  2
KICADB
  70
0
  40
0
  41
1
  42
1
  50
0
  71
0
  3
isocp.shx
  0
STYLE
  2
KICADI
  70
0
  40
0
  41
1
  42
1
  50
15
  71
0
  3
isocp.shx
  0
STYLE
  2
KICADBI
  70
0
  40
0
  41
1
  42
1
  50
15
  71
0
  3
isocp.shx
  0
ENDTAB
  0
TABLE
  2
LAYER
  70
1
  0
LAYER
  2
BLACK
  70
0
  62
7
  6
CONTINUOUS
  0
ENDTAB
  0
ENDSEC
  0
SECTION
  2
ENTITIES
0
LINE
8
BLACK
6
CONTINUOUS
10
0.315616
20
-0.290586
11
0.316513
21
-0.290721
0
LINE
8
BLACK
6
CONTINUOUS
10
0.316513
20
-0.290721
11
0.321013
21
-0.292971
0
LINE
8
BLACK
6
CONTINUOUS
10
0.321013
20
-0.292971
11
0.321467
21
-0.293419
0
LINE
8
BLACK
6
CONTINUOUS
10
0.321467
20
-0.293419
11
0.322036
21
-0.293708
0
LINE
8
BLACK
6
CONTINUOUS
10
0.322036
20
-0.293708
11
0.324286
21
-0.295958
0
LINE
8
BLACK
6
CONTINUOUS
10
0.324286
20
-0.295958
11
0.324575
21
-0.296527
0
LINE
8
BLACK
6
CONTINUOUS
10
0.324575
20
-0.296527
11
0.325023
21
-0.296981
0
LINE
8
BLACK
6
CONTINUOUS
10
0.325023
20
-0.296981
11
0.327273
21
-0.301481
0
LINE
8
BLACK
6
CONTINUOUS
10
0.327273
20
-0.301481
11
0.327338
21
-0.301915
0
LINE
8
BLACK
6
CONTINUOUS
10
0.327338
20
-0.301915
11
0.327571
21
-0.302287
0
LINE
8
BLACK
6
CONTINUOUS
10
0.327571
20
-0.302287
11
0.329821
21
-0.311285
0
LINE
8
BLACK
6
CONTINUOUS
10
0.329821
20
-0.311285
11
0.329787
21
-0.311774
0
LINE
8
BLACK
6
CONTINUOUS
10
0.329787
20
-0.311774
11
0.329938
21
-0.31224
0
LINE
8
BLACK
6
CONTINUOUS
10
0.329938
20
-0.31224
11
0.329938
21
-0.323489
0
LINE
8
BLACK
6
CONTINUOUS
10
0.329938
20
-0.323489
11
0.329787
21
-0.323955
0
LINE
8
BLACK
6
CONTINUOUS
10
0.329787
20
-0.323955
11
0.329821
21
-0.324444
0
LINE
8
BLACK
6
CONTINUOUS
10
0.329821
20
-0.324444
11
0.327571
21
-0.333443
0
LINE
8
BLACK
6
CONTINUOUS
10
0.327571
20
-0.333443
11
0.327338
21
-0.333815
0
LINE
8
BLACK
6
CONTINUOUS
10
0.327338
20
-0.333815
11
0.327273
21
-0.334248
0
LINE
8
BLACK
6
CONTINUOUS
10
0.327273
20
-0.334248
11
0.325023
21
-0.338748
0
LINE
8
BLACK
6
CONTINUOUS
10
0.325023
20
-0.338748
11
0.324575
21
-0.339202
0
LINE
8
BLACK
6
CONTINUOUS
10
0.324575
20
-0.339202
11
0.324286
21
-0.339771
0
LINE
8
BLACK
6
CONTINUOUS
10
0.324286
20
-0.339771
11
0.322036
21
-0.342021
0
LINE
8
BLACK
6
CONTINUOUS
10
0.322036
20
-0.342021
11
0.321467
21
-0.34231
0
LINE
8
BLACK
6
CONTINUOUS
10
0.321467
20
-0.34231
11
0.321013
21
-0.342758
0
LINE
8
BLACK
6
CONTINUOUS
10
0.321013
20
-0.342758
11
0.316513
21
-0.345008
0
LINE
8
BLACK
6
CONTINUOUS
10
0.316513
20
-0.345008
11
0.315616
21
-0.345143
0
LINE
8
BLACK
6
CONTINUOUS
10
0.315616
20
-0.345143
11
0.314753
21
-0.345424
0
LINE
8
BLACK
6
CONTINUOUS
10
0.314753
20
-0.345424
11
0.310253
21
-0.345424
0
LINE
8
BLACK
6
CONTINUOUS
10
0.310253
20
-0.345424
11
0.30939
21
-0.345143
0
LINE
8
BLACK
6
CONTINUOUS
10
0.30939
20
-0.345143
11
0.308492
21
-0.345008
0
LINE
8
BLACK
6
CONTINUOUS
10
0.308492
20
-0.345008
11
0.303993
21
-0.342758
0
LINE
8
BLACK
6
CONTINUOUS
10
0.303993
20
-0.342758
11
0.303538
21
-0.34231
0
LINE
8
BLACK
6
CONTINUOUS
10
0.303538
20
-0.34231
11
0.30297
21
-0.342021
0
LINE
8
BLACK
6
CONTINUOUS
10
0.30297
20
-0.342021
11
0.30072
21
-0.339771
0
LINE
8
BLACK
6
CONTINUOUS
10
0.30072
20
-0.339771
11
0.30043
21
-0.339203
0
LINE
8
BLACK
6
CONTINUOUS
10
0.30043
20
-0.339203
11
0.299983
21
-0.338748
0
LINE
8
BLACK
6
CONTINUOUS
10
0.299983
20
-0.338748
11
0.297733
21
-0.334248
0
LINE
8
BLACK
6
CONTINUOUS
10
0.297733
20
-0.334248
11
0.297667
21
-0.333815
0
LINE
8
BLACK
6
CONTINUOUS
10
0.297667
20
-0.333815
11
0.297435
21
-0.333443
0
LINE
8
BLACK
6
CONTINUOUS
10
0.297435
20
-0.333443
11
0.295185
21
-0.324444
0
LINE
8
BLACK
6
CONTINUOUS
10
0.295185
20
-0.324444
11
0.295219
21
-0.323955
0
LINE
8
BLACK
6
CONTINUOUS
10
0.295219
20
-0.323955
11
0.295067
21
-0.323489
0
LINE
8
BLACK
6
CONTINUOUS
10
0.295067
20
-0.323489
11
0.295067
21
-0.31224
0
LINE
8
BLACK
6
CONTINUOUS
10
0.295067
20
-0.31224
11
0.295219
21
-0.311774
0
LINE
8
BLACK
6
CONTINUOUS
10
0.295219
20
-0.311774
11
0.295185
21
-0.311285
0
LINE
8
BLACK
6
CONTINUOUS
10
0.295185
20
-0.311285
11
0.297435
21
-0.302287
0
LINE
8
BLACK
6
CONTINUOUS
10
0.297435
20
-0.302287
11
0.297667
21
-0.301915
0
LINE
8
BLACK
6
CONTINUOUS
10
0.297667
20
-0.301915
11
0.297733
21
-0.301481
0
LINE
8
BLACK
6
CONTINUOUS
10
0.297733
20
-0.301481
11
0.299983
21
-0.296981
0
LINE
8
BLACK
6
CONTINUOUS
10
0.299983
20
-0.296981
11
0.30043
21
-0.296527
0
LINE
8
BLACK
6
CONTINUOUS
10
0.30043
20
-0.296527
11
0.30072
21
-0.295958
0
LINE
8
BLACK
6
CONTINUOUS
10
0.30072
20
-0.295958
11
0.30297
21
-0.293708
0
LINE
8
BLACK
6
CONTINUOUS
10
0.30297
20
-0.293708
11
0.303538
21
-0.293419
0
LINE
8
BLACK
6
CONTINUOUS
10
0.303538
20
-0.293419
11
0.303993
21
-0.292971
0
LINE
8
BLACK
6
CONTINUOUS
10
0.303993
20
-0.292971
11
0.308492
21
-0.290721
0
LINE
8
BLACK
6
CONTINUOUS
10
0.308492
20
-0.290721
11
0.30939
21
-0.290586
0
LINE
8
BLACK
6
CONTINUOUS
10
0.30939
20
-0.290586
11
0.310253
21
-0.290306
0
LINE
8
BLACK
6
CONTINUOUS
10
0.310253
20
-0.290306
11
0.314753
21
-0.290306
0
LINE
8
BLACK
6
CONTINUOUS
10
0.314753
20
-0.290306
11
0.315616
21
-0.290586
0
LINE
8
BLACK
6
CONTINUOUS
10
0.311183
20
-0.29818
11
0.308086
21
-0.299728
0
LINE
8
BLACK
6
CONTINUOUS
10
0.308086
20
-0.299728
11
0.30674
21
-0.301074
0
LINE
8
BLACK
6
CONTINUOUS
10
0.30674
20
-0.301074
11
0.304969
21
-0.304616
0
LINE
8
BLACK
6
CONTINUOUS
10
0.304969
20
-0.304616
11
0.302941
21
-0.312725
0
LINE
8
BLACK
6
CONTINUOUS
10
0.302941
20
-0.312725
11
0.302941
21
-0.323004
0
LINE
8
BLACK
6
CONTINUOUS
10
0.302941
20
-0.323004
11
0.304969
21
-0.331114
0
LINE
8
BLACK
6
CONTINUOUS
10
0.304969
20
-0.331114
11
0.30674
21
-0.334655
0
LINE
8
BLACK
6
CONTINUOUS
10
0.30674
20
-0.334655
11
0.308086
21
-0.336001
0
LINE
8
BLACK
6
CONTINUOUS
10
0.308086
20
-0.336001
11
0.311183
21
-0.33755
0
LINE
8
BLACK
6
CONTINUOUS
10
0.311183
20
-0.33755
11
0.313823
21
-0.33755
0
LINE
8
BLACK
6
CONTINUOUS
10
0.313823
20
-0.33755
11
0.31692
21
-0.336001
0
LINE
8
BLACK
6
CONTINUOUS
10
0.31692
20
-0.336001
11
0.318266
21
-0.334655
0
LINE
8
BLACK
6
CONTINUOUS
10
0.318266
20
-0.334655
11
0.320037
21
-0.331114
0
LINE
8
BLACK
6
CONTINUOUS
10
0.320037
20
-0.331114
11
0.322064
21
-0.323004
0
LINE
8
BLACK
6
CONTINUOUS
10
0.322064
20
-0.323004
11
0.322064
21
-0.312725
0
LINE
8
BLACK
6
CONTINUOUS
10
0.322064
20
-0.312725
11
0.320037
21
-0.304616
0
LINE
8
BLACK
6
CONTINUOUS
10
0.320037
20
-0.304616
11
0.318266
21
-0.301074
0
LINE
8
BLACK
6
CONTINUOUS
10
0.318266
20
-0.301074
11
0.31692
21
-0.299728
0
LINE
8
BLACK
6
CONTINUOUS
10
0.31692
20
-0.299728
11
0.313823
21
-0.29818
0
LINE
8
BLACK
6
CONTINUOUS
10
0.313823
20
-0.29818
11
0.311183
21
-0.29818
0
LINE
8
BLACK
6
CONTINUOUS
10
0.407854
20
-0.290586
11
0.408752
21
-0.290721
0
LINE
8
BLACK
6
CONTINUOUS
10
0.408752
20
-0.290721
11
0.413251
21
-0.292971
0
LINE
8
BLACK
6
CONTINUOUS
10
0.413251
20
-0.292971
11
0.413706
21
-0.293419
0
LINE
8
BLACK
6
CONTINUOUS
10
0.413706
20
-0.293419
11
0.414274
21
-0.293708
0
LINE
8
BLACK
6
CONTINUOUS
10
0.414274
20
-0.293708
11
0.416524
21
-0.295958
0
LINE
8
BLACK
6
CONTINUOUS
10
0.416524
20
-0.295958
11
0.416814
21
-0.296527
0
LINE
8
BLACK
6
CONTINUOUS
10
0.416814
20
-0.296527
11
0.417262
21
-0.296981
0
LINE
8
BLACK
6
CONTINUOUS
10
0.417262
20
-0.296981
11
0.419511
21
-0.301481
0
LINE
8
BLACK
6
CONTINUOUS
10
0.419511
20
-0.301481
11
0.419646
21
-0.302378
0
LINE
8
BLACK
6
CONTINUOUS
10
0.419646
20
-0.302378
11
0.419927
21
-0.303241
0
LINE
8
BLACK
6
CONTINUOUS
10
0.419927
20
-0.303241
11
0.419927
21
-0.307741
0
LINE
8
BLACK
6
CONTINUOUS
10
0.419927
20
-0.307741
11
0.41973
21
-0.308348
0
LINE
8
BLACK
6
CONTINUOUS
10
0.41973
20
-0.308348
11
0.419725
21
-0.308986
0
LINE
8
BLACK
6
CONTINUOUS
10
0.419725
20
-0.308986
11
0.417475
21
-0.315735
0
LINE
8
BLACK
6
CONTINUOUS
10
0.417475
20
-0.315735
11
0.416936
21
-0.316465
0
LINE
8
BLACK
6
CONTINUOUS
10
0.416936
20
-0.316465
11
0.416524
21
-0.317274
0
LINE
8
BLACK
6
CONTINUOUS
10
0.416524
20
-0.317274
11
0.396248
21
-0.33755
0
LINE
8
BLACK
6
CONTINUOUS
10
0.396248
20
-0.33755
11
0.41599
21
-0.33755
0
LINE
8
BLACK
6
CONTINUOUS
10
0.41599
20
-0.33755
11
0.418304
21
-0.338302
0
LINE
8
BLACK
6
CONTINUOUS
10
0.418304
20
-0.338302
11
0.419734
21
-0.34027
0
LINE
8
BLACK
6
CONTINUOUS
10
0.419734
20
-0.34027
11
0.419734
21
-0.342703
0
LINE
8
BLACK
6
CONTINUOUS
10
0.419734
20
-0.342703
11
0.418304
21
-0.344672
0
LINE
8
BLACK
6
CONTINUOUS
10
0.418304
20
-0.344672
11
0.41599
21
-0.345424
0
LINE
8
BLACK
6
CONTINUOUS
10
0.41599
20
-0.345424
11
0.386744
21
-0.345424
0
LINE
8
BLACK
6
CONTINUOUS
10
0.386744
20
-0.345424
11
0.385867
21
-0.345139
0
LINE
8
BLACK
6
CONTINUOUS
10
0.385867
20
-0.345139
11
0.384956
21
-0.344995
0
LINE
8
BLACK
6
CONTINUOUS
10
0.384956
20
-0.344995
11
0.384732
21
-0.34477
0
LINE
8
BLACK
6
CONTINUOUS
10
0.384732
20
-0.34477
11
0.384429
21
-0.344672
0
LINE
8
BLACK
6
CONTINUOUS
10
0.384429
20
-0.344672
11
0.383887
21
-0.343926
0
LINE
8
BLACK
6
CONTINUOUS
10
0.383887
20
-0.343926
11
0.383236
21
-0.343274
0
LINE
8
BLACK
6
CONTINUOUS
10
0.383236
20
-0.343274
11
0.383186
21
-0.34296
0
LINE
8
BLACK
6
CONTINUOUS
10
0.383186
20
-0.34296
11
0.382999
21
-0.342703
0
LINE
8
BLACK
6
CONTINUOUS
10
0.382999
20
-0.342703
11
0.382999
21
-0.341781
0
LINE
8
BLACK
6
CONTINUOUS
10
0.382999
20
-0.341781
11
0.382855
21
-0.340871
0
LINE
8
BLACK
6
CONTINUOUS
10
0.382855
20
-0.340871
11
0.382999
21
-0.340588
0
LINE
8
BLACK
6
CONTINUOUS
10
0.382999
20
-0.340588
11
0.382999
21
-0.34027
0
LINE
8
BLACK
6
CONTINUOUS
10
0.382999
20
-0.34027
11
0.383541
21
-0.339524
0
LINE
8
BLACK
6
CONTINUOUS
10
0.383541
20
-0.339524
11
0.38396
21
-0.338703
0
LINE
8
BLACK
6
CONTINUOUS
10
0.38396
20
-0.338703
11
0.410299
21
-0.312363
0
LINE
8
BLACK
6
CONTINUOUS
10
0.410299
20
-0.312363
11
0.412053
21
-0.307102
0
LINE
8
BLACK
6
CONTINUOUS
10
0.412053
20
-0.307102
11
0.412053
21
-0.304171
0
LINE
8
BLACK
6
CONTINUOUS
10
0.412053
20
-0.304171
11
0.410505
21
-0.301074
0
LINE
8
BLACK
6
CONTINUOUS
10
0.410505
20
-0.301074
11
0.409158
21
-0.299728
0
LINE
8
BLACK
6
CONTINUOUS
10
0.409158
20
-0.299728
11
0.406062
21
-0.29818
0
LINE
8
BLACK
6
CONTINUOUS
10
0.406062
20
-0.29818
11
0.396672
21
-0.29818
0
LINE
8
BLACK
6
CONTINUOUS
10
0.396672
20
-0.29818
11
0.393575
21
-0.299728
0
LINE
8
BLACK
6
CONTINUOUS
10
0.393575
20
-0.299728
11
0.391777
21
-0.301526
0
LINE
8
BLACK
6
CONTINUOUS
10
0.391777
20
-0.301526
11
0.389609
21
-0.302631
0
LINE
8
BLACK
6
CONTINUOUS
10
0.389609
20
-0.302631
11
0.387206
21
-0.30225
0
LINE
8
BLACK
6
CONTINUOUS
10
0.387206
20
-0.30225
11
0.385485
21
-0.300529
0
LINE
8
BLACK
6
CONTINUOUS
10
0.385485
20
-0.300529
11
0.385105
21
-0.298126
0
LINE
8
BLACK
6
CONTINUOUS
10
0.385105
20
-0.298126
11
0.386209
21
-0.295958
0
LINE
8
BLACK
6
CONTINUOUS
10
0.386209
20
-0.295958
11
0.388459
21
-0.293708
0
LINE
8
BLACK
6
CONTINUOUS
10
0.388459
20
-0.293708
11
0.389028
21
-0.293419
0
LINE
8
BLACK
6
CONTINUOUS
10
0.389028
20
-0.293419
11
0.389482
21
-0.292971
0
LINE
8
BLACK
6
CONTINUOUS
10
0.389482
20
-0.292971
11
0.393982
21
-0.290721
0
LINE
8
BLACK
6
CONTINUOUS
10
0.393982
20
-0.290721
11
0.394879
21
-0.290586
0
LINE
8
BLACK
6
CONTINUOUS
10
0.394879
20
-0.290586
11
0.395742
21
-0.290306
0
LINE
8
BLACK
6
CONTINUOUS
10
0.395742
20
-0.290306
11
0.406991
21
-0.290306
0
LINE
8
BLACK
6
CONTINUOUS
10
0.406991
20
-0.290306
11
0.407854
21
-0.290586
0
LINE
8
BLACK
6
CONTINUOUS
10
0.36286
20
-0.290586
11
0.363757
21
-0.290721
0
LINE
8
BLACK
6
CONTINUOUS
10
0.363757
20
-0.290721
11
0.368257
21
-0.292971
0
LINE
8
BLACK
6
CONTINUOUS
10
0.368257
20
-0.292971
11
0.368711
21
-0.293419
0
LINE
8
BLACK
6
CONTINUOUS
10
0.368711
20
-0.293419
11
0.36928
21
-0.293708
0
LINE
8
BLACK
6
CONTINUOUS
10
0.36928
20
-0.293708
11
0.37153
21
-0.295958
0
LINE
8
BLACK
6
CONTINUOUS
10
0.37153
20
-0.295958
11
0.371819
21
-0.296527
0
LINE
8
BLACK
6
CONTINUOUS
10
0.371819
20
-0.296527
11
0.372267
21
-0.296981
0
LINE
8
BLACK
6
CONTINUOUS
10
0.372267
20
-0.296981
11
0.374517
21
-0.301481
0
LINE
8
BLACK
6
CONTINUOUS
10
0.374517
20
-0.301481
11
0.374652
21
-0.302378
0
LINE
8
BLACK
6
CONTINUOUS
10
0.374652
20
-0.302378
11
0.374932
21
-0.303241
0
LINE
8
BLACK
6
CONTINUOUS
10
0.374932
20
-0.303241
11
0.374932
21
-0.307741
0
LINE
8
BLACK
6
CONTINUOUS
10
0.374932
20
-0.307741
11
0.374735
21
-0.308348
0
LINE
8
BLACK
6
CONTINUOUS
10
0.374735
20
-0.308348
11
0.37473
21
-0.308986
0
LINE
8
BLACK
6
CONTINUOUS
10
0.37473
20
-0.308986
11
0.372481
21
-0.315735
0
LINE
8
BLACK
6
CONTINUOUS
10
0.372481
20
-0.315735
11
0.371942
21
-0.316465
0
LINE
8
BLACK
6
CONTINUOUS
10
0.371942
20
-0.316465
11
0.37153
21
-0.317274
0
LINE
8
BLACK
6
CONTINUOUS
10
0.37153
20
-0.317274
11
0.351254
21
-0.33755
0
LINE
8
BLACK
6
CONTINUOUS
10
0.351254
20
-0.33755
11
0.370995
21
-0.33755
0
LINE
8
BLACK
6
CONTINUOUS
10
0.370995
20
-0.33755
11
0.37331
21
-0.338302
0
LINE
8
BLACK
6
CONTINUOUS
10
0.37331
20
-0.338302
11
0.37474
21
-0.34027
0
LINE
8
BLACK
6
CONTINUOUS
10
0.37474
20
-0.34027
11
0.37474
21
-0.342703
0
LINE
8
BLACK
6
CONTINUOUS
10
0.37474
20
-0.342703
11
0.37331
21
-0.344672
0
LINE
8
BLACK
6
CONTINUOUS
10
0.37331
20
-0.344672
11
0.370995
21
-0.345424
0
LINE
8
BLACK
6
CONTINUOUS
10
0.370995
20
-0.345424
11
0.341749
21
-0.345424
0
LINE
8
BLACK
6
CONTINUOUS
10
0.341749
20
-0.345424
11
0.340872
21
-0.345139
0
LINE
8
BLACK
6
CONTINUOUS
10
0.340872
20
-0.345139
11
0.339962
21
-0.344995
0
LINE
8
BLACK
6
CONTINUOUS
10
0.339962
20
-0.344995
11
0.339737
21
-0.34477
0
LINE
8
BLACK
6
CONTINUOUS
10
0.339737
20
-0.34477
11
0.339435
21
-0.344672
0
LINE
8
BLACK
6
CONTINUOUS
10
0.339435
20
-0.344672
11
0.338893
21
-0.343926
0
LINE
8
BLACK
6
CONTINUOUS
10
0.338893
20
-0.343926
11
0.338241
21
-0.343274
0
LINE
8
BLACK
6
CONTINUOUS
10
0.338241
20
-0.343274
11
0.338192
21
-0.34296
0
LINE
8
BLACK
6
CONTINUOUS
10
0.338192
20
-0.34296
11
0.338005
21
-0.342703
0
LINE
8
BLACK
6
CONTINUOUS
10
0.338005
20
-0.342703
11
0.338005
21
-0.341781
0
LINE
8
BLACK
6
CONTINUOUS
10
0.338005
20
-0.341781
11
0.337861
21
-0.340871
0
LINE
8
BLACK
6
CONTINUOUS
10
0.337861
20
-0.340871
11
0.338005
21
-0.340588
0
LINE
8
BLACK
6
CONTINUOUS
10
0.338005
20
-0.340588
11
0.338005
21
-0.34027
0
LINE
8
BLACK
6
CONTINUOUS
10
0.338005
20
-0.34027
11
0.338547
21
-0.339524
0
LINE
8
BLACK
6
CONTINUOUS
10
0.338547
20
-0.339524
11
0.338965
21
-0.338703
0
LINE
8
BLACK
6
CONTINUOUS
10
0.338965
20
-0.338703
11
0.365305
21
-0.312363
0
LINE
8
BLACK
6
CONTINUOUS
10
0.365305
20
-0.312363
11
0.367058
21
-0.307102
0
LINE
8
BLACK
6
CONTINUOUS
10
0.367058
20
-0.307102
11
0.367058
21
-0.304171
0
LINE
8
BLACK
6
CONTINUOUS
10
0.367058
20
-0.304171
11
0.36551
21
-0.301074
0
LINE
8
BLACK
6
CONTINUOUS
10
0.36551
20
-0.301074
11
0.364164
21
-0.299728
0
LINE
8
BLACK
6
CONTINUOUS
10
0.364164
20
-0.299728
11
0.361067
21
-0.29818
0
LINE
8
BLACK
6
CONTINUOUS
10
0.361067
20
-0.29818
11
0.351677
21
-0.29818
0
LINE
8
BLACK
6
CONTINUOUS
10
0.351677
20
-0.29818
11
0.348581
21
-0.299728
0
LINE
8
BLACK
6
CONTINUOUS
10
0.348581
20
-0.299728
11
0.346783
21
-0.301526
0
LINE
8
BLACK
6
CONTINUOUS
10
0.346783
20
-0.301526
11
0.344615
21
-0.302631
0
LINE
8
BLACK
6
CONTINUOUS
10
0.344615
20
-0.302631
11
0.342211
21
-0.30225
0
LINE
8
BLACK
6
CONTINUOUS
10
0.342211
20
-0.30225
11
0.340491
21
-0.300529
0
LINE
8
BLACK
6
CONTINUOUS
10
0.340491
20
-0.300529
11
0.34011
21
-0.298126
0
LINE
8
BLACK
6
CONTINUOUS
10
0.34011
20
-0.298126
11
0.341215
21
-0.295958
0
LINE
8
BLACK
6
CONTINUOUS
10
0.341215
20
-0.295958
11
0.343465
21
-0.293708
0
LINE
8
BLACK
6
CONTINUOUS
10
0.343465
20
-0.293708
11
0.344033
21
-0.293419
0
LINE
8
BLACK
6
CONTINUOUS
10
0.344033
20
-0.293419
11
0.344488
21
-0.292971
0
LINE
8
BLACK
6
CONTINUOUS
10
0.344488
20
-0.292971
11
0.348987
21
-0.290721
0
LINE
8
BLACK
6
CONTINUOUS
10
0.348987
20
-0.290721
11
0.349885
21
-0.290586
0
LINE
8
BLACK
6
CONTINUOUS
10
0.349885
20
-0.290586
11
0.350748
21
-0.290306
0
LINE
8
BLACK
6
CONTINUOUS
10
0.350748
20
-0.290306
11
0.361997
21
-0.290306
0
LINE
8
BLACK
6
CONTINUOUS
10
0.361997
20
-0.290306
11
0.36286
21
-0.290586
0
LINE
8
BLACK
6
CONTINUOUS
10
0.272871
20
-0.290586
11
0.273769
21
-0.290721
0
LINE
8
BLACK
6
CONTINUOUS
10
0.273769
20
-0.290721
11
0.278268
21
-0.292971
0
LINE
8
BLACK
6
CONTINUOUS
10
0.278268
20
-0.292971
11
0.278723
21
-0.293419
0
LINE
8
BLACK
6
CONTINUOUS
10
0.278723
20
-0.293419
11
0.279291
21
-0.293708
0
LINE
8
BLACK
6
CONTINUOUS
10
0.279291
20
-0.293708
11
0.281541
21
-0.295958
0
LINE
8
BLACK
6
CONTINUOUS
10
0.281541
20
-0.295958
11
0.281831
21
-0.296527
0
LINE
8
BLACK
6
CONTINUOUS
10
0.281831
20
-0.296527
11
0.282278
21
-0.296981
0
LINE
8
BLACK
6
CONTINUOUS
10
0.282278
20
-0.296981
11
0.284528
21
-0.301481
0
LINE
8
BLACK
6
CONTINUOUS
10
0.284528
20
-0.301481
11
0.284663
21
-0.302378
0
LINE
8
BLACK
6
CONTINUOUS
10
0.284663
20
-0.302378
11
0.284944
21
-0.303241
0
LINE
8
BLACK
6
CONTINUOUS
10
0.284944
20
-0.303241
11
0.284944
21
-0.307741
0
LINE
8
BLACK
6
CONTINUOUS
10
0.284944
20
-0.307741
11
0.284747
21
-0.308348
0
LINE
8
BLACK
6
CONTINUOUS
10
0.284747
20
-0.308348
11
0.284742
21
-0.308986
0
LINE
8
BLACK
6
CONTINUOUS
10
0.284742
20
-0.308986
11
0.282492
21
-0.315735
0
LINE
8
BLACK
6
CONTINUOUS
10
0.282492
20
-0.315735
11
0.281953
21
-0.316465
0
LINE
8
BLACK
6
CONTINUOUS
10
0.281953
20
-0.316465
11
0.281541
21
-0.317274
0
LINE
8
BLACK
6
CONTINUOUS
10
0.281541
20
-0.317274
11
0.261265
21
-0.33755
0
LINE
8
BLACK
6
CONTINUOUS
10
0.261265
20
-0.33755
11
0.281007
21
-0.33755
0
LINE
8
BLACK
6
CONTINUOUS
10
0.281007
20
-0.33755
11
0.283321
21
-0.338302
0
LINE
8
BLACK
6
CONTINUOUS
10
0.283321
20
-0.338302
11
0.284751
21
-0.34027
0
LINE
8
BLACK
6
CONTINUOUS
10
0.284751
20
-0.34027
11
0.284751
21
-0.342703
0
LINE
8
BLACK
6
CONTINUOUS
10
0.284751
20
-0.342703
11
0.283321
21
-0.344672
0
LINE
8
BLACK
6
CONTINUOUS
10
0.283321
20
-0.344672
11
0.281007
21
-0.345424
0
LINE
8
BLACK
6
CONTINUOUS
10
0.281007
20
-0.345424
11
0.25176
21
-0.345424
0
LINE
8
BLACK
6
CONTINUOUS
10
0.25176
20
-0.345424
11
0.250884
21
-0.345139
0
LINE
8
BLACK
6
CONTINUOUS
10
0.250884
20
-0.345139
11
0.249973
21
-0.344995
0
LINE
8
BLACK
6
CONTINUOUS
10
0.249973
20
-0.344995
11
0.249748
21
-0.34477
0
LINE
8
BLACK
6
CONTINUOUS
10
0.249748
20
-0.34477
11
0.249446
21
-0.344672
0
LINE
8
BLACK
6
CONTINUOUS
10
0.249446
20
-0.344672
11
0.248904
21
-0.343926
0
LINE
8
BLACK
6
CONTINUOUS
10
0.248904
20
-0.343926
11
0.248252
21
-0.343274
0
LINE
8
BLACK
6
CONTINUOUS
10
0.248252
20
-0.343274
11
0.248203
21
-0.34296
0
LINE
8
BLACK
6
CONTINUOUS
10
0.248203
20
-0.34296
11
0.248016
21
-0.342703
0
LINE
8
BLACK
6
CONTINUOUS
10
0.248016
20
-0.342703
11
0.248016
21
-0.341781
0
LINE
8
BLACK
6
CONTINUOUS
10
0.248016
20
-0.341781
11
0.247872
21
-0.340871
0
LINE
8
BLACK
6
CONTINUOUS
10
0.247872
20
-0.340871
11
0.248016
21
-0.340588
0
LINE
8
BLACK
6
CONTINUOUS
10
0.248016
20
-0.340588
11
0.248016
21
-0.34027
0
LINE
8
BLACK
6
CONTINUOUS
10
0.248016
20
-0.34027
11
0.248558
21
-0.339524
0
LINE
8
BLACK
6
CONTINUOUS
10
0.248558
20
-0.339524
11
0.248976
21
-0.338703
0
LINE
8
BLACK
6
CONTINUOUS
10
0.248976
20
-0.338703
11
0.275316
21
-0.312363
0
LINE
8
BLACK
6
CONTINUOUS
10
0.275316
20
-0.312363
11
0.27707
21
-0.307102
0
LINE
8
BLACK
6
CONTINUOUS
10
0.27707
20
-0.307102
11
0.27707
21
-0.304171
0
LINE
8
BLACK
6
CONTINUOUS
10
0.27707
20
-0.304171
11
0.275521
21
-0.301074
0
LINE
8
BLACK
6
CONTINUOUS
10
0.275521
20
-0.301074
11
0.274175
21
-0.299728
0
LINE
8
BLACK
6
CONTINUOUS
10
0.274175
20
-0.299728
11
0.271078
21
-0.29818
0
LINE
8
BLACK
6
CONTINUOUS
10
0.271078
20
-0.29818
11
0.261689
21
-0.29818
0
LINE
8
BLACK
6
CONTINUOUS
10
0.261689
20
-0.29818
11
0.258592
21
-0.299728
0
LINE
8
BLACK
6
CONTINUOUS
10
0.258592
20
-0.299728
11
0.256794
21
-0.301526
0
LINE
8
BLACK
6
CONTINUOUS
10
0.256794
20
-0.301526
11
0.254626
21
-0.302631
0
LINE
8
BLACK
6
CONTINUOUS
10
0.254626
20
-0.302631
11
0.252223
21
-0.30225
0
LINE
8
BLACK
6
CONTINUOUS
10
0.252223
20
-0.30225
11
0.250502
21
-0.300529
0
LINE
8
BLACK
6
CONTINUOUS
10
0.250502
20
-0.300529
11
0.250122
21
-0.298126
0
LINE
8
BLACK
6
CONTINUOUS
10
0.250122
20
-0.298126
11
0.251226
21
-0.295958
0
LINE
8
BLACK
6
CONTINUOUS
10
0.251226
20
-0.295958
11
0.253476
21
-0.293708
0
LINE
8
BLACK
6
CONTINUOUS
10
0.253476
20
-0.293708
11
0.254045
21
-0.293419
0
LINE
8
BLACK
6
CONTINUOUS
10
0.254045
20
-0.293419
11
0.254499
21
-0.292971
0
LINE
8
BLACK
6
CONTINUOUS
10
0.254499
20
-0.292971
11
0.258999
21
-0.290721
0
LINE
8
BLACK
6
CONTINUOUS
10
0.258999
20
-0.290721
11
0.259896
21
-0.290586
0
LINE
8
BLACK
6
CONTINUOUS
10
0.259896
20
-0.290586
11
0.260759
21
-0.290306
0
LINE
8
BLACK
6
CONTINUOUS
10
0.260759
20
-0.290306
11
0.272008
21
-0.290306
0
LINE
8
BLACK
6
CONTINUOUS
10
0.272008
20
-0.290306
11
0.272871
21
-0.290586
0
LINE
8
BLACK
6
CONTINUOUS
10
-0.0672153
20
-0.263901
11
-0.0657851
21
-0.26587
0
LINE
8
BLACK
6
CONTINUOUS
10
-0.0657851
20
-0.26587
11
-0.0657851
21
-0.268303
0
LINE
8
BLACK
6
CONTINUOUS
10
-0.0657851
20
-0.268303
11
-0.0672153
21
-0.270272
0
LINE
8
BLACK
6
CONTINUOUS
10
-0.0672153
20
-0.270272
11
-0.0695294
21
-0.271024
0
LINE
8
BLACK
6
CONTINUOUS
10
-0.0695294
20
-0.271024
11
-0.0899644
21
-0.271024
0
LINE
8
BLACK
6
CONTINUOUS
10
-0.0899644
20
-0.271024
11
-0.0899644
21
-0.287521
0
LINE
8
BLACK
6
CONTINUOUS
10
-0.0899644
20
-0.287521
11
-0.076841
21
-0.287521
0
LINE
8
BLACK
6
CONTINUOUS
10
-0.076841
20
-0.287521
11
-0.0745269
21
-0.288273
0
LINE
8
BLACK
6
CONTINUOUS
10
-0.0745269
20
-0.288273
11
-0.0730967
21
-0.290242
0
LINE
8
BLACK
6
CONTINUOUS
10
-0.0730967
20
-0.290242
11
-0.0730967
21
-0.292675
0
LINE
8
BLACK
6
CONTINUOUS
10
-0.0730967
20
-0.292675
11
-0.0745269
21
-0.294644
0
LINE
8
BLACK
6
CONTINUOUS
10
-0.0745269
20
-0.294644
11
-0.076841
21
-0.295396
0
LINE
8
BLACK
6
CONTINUOUS
10
-0.076841
20
-0.295396
11
-0.0899644
21
-0.295396
0
LINE
8
BLACK
6
CONTINUOUS
10
-0.0899644
20
-0.295396
11
-0.0899644
21
-0.314331
0
LINE
8
BLACK
6
CONTINUOUS
10
-0.0899644
20
-0.314331
11
-0.0695294
21
-0.314331
0
LINE
8
BLACK
6
CONTINUOUS
10
-0.0695294
20
-0.314331
11
-0.0672153
21
-0.315083
0
LINE
8
BLACK
6
CONTINUOUS
10
-0.0672153
20
-0.315083
11
-0.0657851
21
-0.317051
0
LINE
8
BLACK
6
CONTINUOUS
10
-0.0657851
20
-0.317051
11
-0.0657851
21
-0.319484
0
LINE
8
BLACK
6
CONTINUOUS
10
-0.0657851
20
-0.319484
11
-0.0672153
21
-0.321453
0
LINE
8
BLACK
6
CONTINUOUS
10
-0.0672153
20
-0.321453
11
-0.0695294
21
-0.322205
0
LINE
8
BLACK
6
CONTINUOUS
10
-0.0695294
20
-0.322205
11
-0.0939014
21
-0.322205
0
LINE
8
BLACK
6
CONTINUOUS
10
-0.0939014
20
-0.322205
11
-0.0944944
21
-0.322012
0
LINE
8
BLACK
6
CONTINUOUS
10
-0.0944944
20
-0.322012
11
-0.095118
21
-0.322012
0
LINE
8
BLACK
6
CONTINUOUS
10
-0.095118
20
-0.322012
11
-0.0956225
21
-0.321645
0
LINE
8
BLACK
6
CONTINUOUS
10
-0.0956225
20
-0.321645
11
-0.0962156
21
-0.321453
0
LINE
8
BLACK
6
CONTINUOUS
10
-0.0962156
20
-0.321453
11
-0.0965821
21
-0.320948
0
LINE
8
BLACK
6
CONTINUOUS
10
-0.0965821
20
-0.320948
11
-0.0970865
21
-0.320582
0
LINE
8
BLACK
6
CONTINUOUS
10
-0.0970865
20
-0.320582
11
-0.0972792
21
-0.319989
0
LINE
8
BLACK
6
CONTINUOUS
10
-0.0972792
20
-0.319989
11
-0.0976457
21
-0.319484
0
LINE
8
BLACK
6
CONTINUOUS
10
-0.0976457
20
-0.319484
11
-0.0976457
21
-0.318861
0
LINE
8
BLACK
6
CONTINUOUS
10
-0.0976457
20
-0.318861
11
-0.0978384
21
-0.318268
0
LINE
8
BLACK
6
CONTINUOUS
10
-0.0978384
20
-0.318268
11
-0.0978384
21
-0.267087
0
LINE
8
BLACK
6
CONTINUOUS
10
-0.0978384
20
-0.267087
11
-0.0976457
21
-0.266494
0
LINE
8
BLACK
6
CONTINUOUS
10
-0.0976457
20
-0.266494
11
-0.0976457
21
-0.26587
0
LINE
8
BLACK
6
CONTINUOUS
10
-0.0976457
20
-0.26587
11
-0.0972792
21
-0.265365
0
LINE
8
BLACK
6
CONTINUOUS
10
-0.0972792
20
-0.265365
11
-0.0970865
21
-0.264772
0
LINE
8
BLACK
6
CONTINUOUS
10
-0.0970865
20
-0.264772
11
-0.0965821
21
-0.264406
0
LINE
8
BLACK
6
CONTINUOUS
10
-0.0965821
20
-0.264406
11
-0.0962156
21
-0.263901
0
LINE
8
BLACK
6
CONTINUOUS
10
-0.0962156
20
-0.263901
11
-0.0956225
21
-0.263709
0
LINE
8
BLACK
6
CONTINUOUS
10
-0.0956225
20
-0.263709
11
-0.095118
21
-0.263342
0
LINE
8
BLACK
6
CONTINUOUS
10
-0.095118
20
-0.263342
11
-0.0944944
21
-0.263342
0
LINE
8
BLACK
6
CONTINUOUS
10
-0.0944944
20
-0.263342
11
-0.0939014
21
-0.26315
0
LINE
8
BLACK
6
CONTINUOUS
10
-0.0939014
20
-0.26315
11
-0.0695294
21
-0.26315
0
LINE
8
BLACK
6
CONTINUOUS
10
-0.0695294
20
-0.26315
11
-0.0672153
21
-0.263901
0
LINE
8
BLACK
6
CONTINUOUS
10
-0.234511
20
-0.264772
11
-0.233759
21
-0.267087
0
LINE
8
BLACK
6
CONTINUOUS
10
-0.233759
20
-0.267087
11
-0.233759
21
-0.307589
0
LINE
8
BLACK
6
CONTINUOUS
10
-0.233759
20
-0.307589
11
-0.232023
21
-0.311061
0
LINE
8
BLACK
6
CONTINUOUS
10
-0.232023
20
-0.311061
11
-0.230489
21
-0.312595
0
LINE
8
BLACK
6
CONTINUOUS
10
-0.230489
20
-0.312595
11
-0.227018
21
-0.314331
0
LINE
8
BLACK
6
CONTINUOUS
10
-0.227018
20
-0.314331
11
-0.219128
21
-0.314331
0
LINE
8
BLACK
6
CONTINUOUS
10
-0.219128
20
-0.314331
11
-0.215656
21
-0.312595
0
LINE
8
BLACK
6
CONTINUOUS
10
-0.215656
20
-0.312595
11
-0.214122
21
-0.311061
0
LINE
8
BLACK
6
CONTINUOUS
10
-0.214122
20
-0.311061
11
-0.212387
21
-0.307589
0
LINE
8
BLACK
6
CONTINUOUS
10
-0.212387
20
-0.307589
11
-0.212387
21
-0.267087
0
LINE
8
BLACK
6
CONTINUOUS
10
-0.212387
20
-0.267087
11
-0.211635
21
-0.264772
0
LINE
8
BLACK
6
CONTINUOUS
10
-0.211635
20
-0.264772
11
-0.209666
21
-0.263342
0
LINE
8
BLACK
6
CONTINUOUS
10
-0.209666
20
-0.263342
11
-0.207233
21
-0.263342
0
LINE
8
BLACK
6
CONTINUOUS
10
-0.207233
20
-0.263342
11
-0.205264
21
-0.264772
0
LINE
8
BLACK
6
CONTINUOUS
10
-0.205264
20
-0.264772
11
-0.204513
21
-0.267087
0
LINE
8
BLACK
6
CONTINUOUS
10
-0.204513
20
-0.267087
11
-0.204513
21
-0.308519
0
LINE
8
BLACK
6
CONTINUOUS
10
-0.204513
20
-0.308519
11
-0.204793
21
-0.309382
0
LINE
8
BLACK
6
CONTINUOUS
10
-0.204793
20
-0.309382
11
-0.204928
21
-0.31028
0
LINE
8
BLACK
6
CONTINUOUS
10
-0.204928
20
-0.31028
11
-0.207365
21
-0.315154
0
LINE
8
BLACK
6
CONTINUOUS
10
-0.207365
20
-0.315154
11
-0.207813
21
-0.315609
0
LINE
8
BLACK
6
CONTINUOUS
10
-0.207813
20
-0.315609
11
-0.208103
21
-0.316177
0
LINE
8
BLACK
6
CONTINUOUS
10
-0.208103
20
-0.316177
11
-0.21054
21
-0.318614
0
LINE
8
BLACK
6
CONTINUOUS
10
-0.21054
20
-0.318614
11
-0.211109
21
-0.318904
0
LINE
8
BLACK
6
CONTINUOUS
10
-0.211109
20
-0.318904
11
-0.211563
21
-0.319352
0
LINE
8
BLACK
6
CONTINUOUS
10
-0.211563
20
-0.319352
11
-0.216438
21
-0.321789
0
LINE
8
BLACK
6
CONTINUOUS
10
-0.216438
20
-0.321789
11
-0.217335
21
-0.321924
0
LINE
8
BLACK
6
CONTINUOUS
10
-0.217335
20
-0.321924
11
-0.218198
21
-0.322205
0
LINE
8
BLACK
6
CONTINUOUS
10
-0.218198
20
-0.322205
11
-0.227947
21
-0.322205
0
LINE
8
BLACK
6
CONTINUOUS
10
-0.227947
20
-0.322205
11
-0.22881
21
-0.321924
0
LINE
8
BLACK
6
CONTINUOUS
10
-0.22881
20
-0.321924
11
-0.229708
21
-0.321789
0
LINE
8
BLACK
6
CONTINUOUS
10
-0.229708
20
-0.321789
11
-0.234582
21
-0.319352
0
LINE
8
BLACK
6
CONTINUOUS
10
-0.234582
20
-0.319352
11
-0.235037
21
-0.318904
0
LINE
8
BLACK
6
CONTINUOUS
10
-0.235037
20
-0.318904
11
-0.235605
21
-0.318614
0
LINE
8
BLACK
6
CONTINUOUS
10
-0.235605
20
-0.318614
11
-0.238043
21
-0.316177
0
LINE
8
BLACK
6
CONTINUOUS
10
-0.238043
20
-0.316177
11
-0.238332
21
-0.315609
0
LINE
8
BLACK
6
CONTINUOUS
10
-0.238332
20
-0.315609
11
-0.23878
21
-0.315154
0
LINE
8
BLACK
6
CONTINUOUS
10
-0.23878
20
-0.315154
11
-0.241217
21
-0.31028
0
LINE
8
BLACK
6
CONTINUOUS
10
-0.241217
20
-0.31028
11
-0.241353
21
-0.309382
0
LINE
8
BLACK
6
CONTINUOUS
10
-0.241353
20
-0.309382
11
-0.241633
21
-0.308519
0
LINE
8
BLACK
6
CONTINUOUS
10
-0.241633
20
-0.308519
11
-0.241633
21
-0.267087
0
LINE
8
BLACK
6
CONTINUOUS
10
-0.241633
20
-0.267087
11
-0.240881
21
-0.264772
0
LINE
8
BLACK
6
CONTINUOUS
10
-0.240881
20
-0.264772
11
-0.238913
21
-0.263342
0
LINE
8
BLACK
6
CONTINUOUS
10
-0.238913
20
-0.263342
11
-0.236479
21
-0.263342
0
LINE
8
BLACK
6
CONTINUOUS
10
-0.236479
20
-0.263342
11
-0.234511
21
-0.264772
0
LINE
8
BLACK
6
CONTINUOUS
10
-0.122541
20
-0.263347
11
-0.121903
21
-0.263352
0
LINE
8
BLACK
6
CONTINUOUS
10
-0.121903
20
-0.263352
11
-0.114591
21
-0.265789
0
LINE
8
BLACK
6
CONTINUOUS
10
-0.114591
20
-0.265789
11
-0.112634
21
-0.267234
0
LINE
8
BLACK
6
CONTINUOUS
10
-0.112634
20
-0.267234
11
-0.111899
21
-0.269554
0
LINE
8
BLACK
6
CONTINUOUS
10
-0.111899
20
-0.269554
11
-0.112669
21
-0.271862
0
LINE
8
BLACK
6
CONTINUOUS
10
-0.112669
20
-0.271862
11
-0.114648
21
-0.273277
0
LINE
8
BLACK
6
CONTINUOUS
10
-0.114648
20
-0.273277
11
-0.117081
21
-0.273259
0
LINE
8
BLACK
6
CONTINUOUS
10
-0.117081
20
-0.273259
11
-0.123787
21
-0.271024
0
LINE
8
BLACK
6
CONTINUOUS
10
-0.123787
20
-0.271024
11
-0.134404
21
-0.271024
0
LINE
8
BLACK
6
CONTINUOUS
10
-0.134404
20
-0.271024
11
-0.137876
21
-0.272759
0
LINE
8
BLACK
6
CONTINUOUS
10
-0.137876
20
-0.272759
11
-0.13941
21
-0.274293
0
LINE
8
BLACK
6
CONTINUOUS
10
-0.13941
20
-0.274293
11
-0.141146
21
-0.277765
0
LINE
8
BLACK
6
CONTINUOUS
10
-0.141146
20
-0.277765
11
-0.141146
21
-0.28078
0
LINE
8
BLACK
6
CONTINUOUS
10
-0.141146
20
-0.28078
11
-0.13941
21
-0.284252
0
LINE
8
BLACK
6
CONTINUOUS
10
-0.13941
20
-0.284252
11
-0.137876
21
-0.285786
0
LINE
8
BLACK
6
CONTINUOUS
10
-0.137876
20
-0.285786
11
-0.13396
21
-0.287744
0
LINE
8
BLACK
6
CONTINUOUS
10
-0.13396
20
-0.287744
11
-0.12463
21
-0.290076
0
LINE
8
BLACK
6
CONTINUOUS
10
-0.12463
20
-0.290076
11
-0.124258
21
-0.290309
0
LINE
8
BLACK
6
CONTINUOUS
10
-0.124258
20
-0.290309
11
-0.123824
21
-0.290374
0
LINE
8
BLACK
6
CONTINUOUS
10
-0.123824
20
-0.290374
11
-0.11895
21
-0.292812
0
LINE
8
BLACK
6
CONTINUOUS
10
-0.11895
20
-0.292812
11
-0.118495
21
-0.293259
0
LINE
8
BLACK
6
CONTINUOUS
10
-0.118495
20
-0.293259
11
-0.117927
21
-0.293549
0
LINE
8
BLACK
6
CONTINUOUS
10
-0.117927
20
-0.293549
11
-0.115489
21
-0.295986
0
LINE
8
BLACK
6
CONTINUOUS
10
-0.115489
20
-0.295986
11
-0.1152
21
-0.296555
0
LINE
8
BLACK
6
CONTINUOUS
10
-0.1152
20
-0.296555
11
-0.114752
21
-0.297009
0
LINE
8
BLACK
6
CONTINUOUS
10
-0.114752
20
-0.297009
11
-0.112315
21
-0.301884
0
LINE
8
BLACK
6
CONTINUOUS
10
-0.112315
20
-0.301884
11
-0.11218
21
-0.302781
0
LINE
8
BLACK
6
CONTINUOUS
10
-0.11218
20
-0.302781
11
-0.111899
21
-0.303644
0
LINE
8
BLACK
6
CONTINUOUS
10
-0.111899
20
-0.303644
11
-0.111899
21
-0.308519
0
LINE
8
BLACK
6
CONTINUOUS
10
-0.111899
20
-0.308519
11
-0.11218
21
-0.309382
0
LINE
8
BLACK
6
CONTINUOUS
10
-0.11218
20
-0.309382
11
-0.112315
21
-0.31028
0
LINE
8
BLACK
6
CONTINUOUS
10
-0.112315
20
-0.31028
11
-0.114752
21
-0.315154
0
LINE
8
BLACK
6
CONTINUOUS
10
-0.114752
20
-0.315154
11
-0.1152
21
-0.315609
0
LINE
8
BLACK
6
CONTINUOUS
10
-0.1152
20
-0.315609
11
-0.115489
21
-0.316177
0
LINE
8
BLACK
6
CONTINUOUS
10
-0.115489
20
-0.316177
11
-0.117927
21
-0.318614
0
LINE
8
BLACK
6
CONTINUOUS
10
-0.117927
20
-0.318614
11
-0.118495
21
-0.318904
0
LINE
8
BLACK
6
CONTINUOUS
10
-0.118495
20
-0.318904
11
-0.11895
21
-0.319352
0
LINE
8
BLACK
6
CONTINUOUS
10
-0.11895
20
-0.319352
11
-0.123824
21
-0.321789
0
LINE
8
BLACK
6
CONTINUOUS
10
-0.123824
20
-0.321789
11
-0.124722
21
-0.321924
0
LINE
8
BLACK
6
CONTINUOUS
10
-0.124722
20
-0.321924
11
-0.125585
21
-0.322205
0
LINE
8
BLACK
6
CONTINUOUS
10
-0.125585
20
-0.322205
11
-0.137771
21
-0.322205
0
LINE
8
BLACK
6
CONTINUOUS
10
-0.137771
20
-0.322205
11
-0.138378
21
-0.322007
0
LINE
8
BLACK
6
CONTINUOUS
10
-0.138378
20
-0.322007
11
-0.139016
21
-0.322003
0
LINE
8
BLACK
6
CONTINUOUS
10
-0.139016
20
-0.322003
11
-0.146328
21
-0.319565
0
LINE
8
BLACK
6
CONTINUOUS
10
-0.146328
20
-0.319565
11
-0.148285
21
-0.31812
0
LINE
8
BLACK
6
CONTINUOUS
10
-0.148285
20
-0.31812
11
-0.149019
21
-0.315801
0
LINE
8
BLACK
6
CONTINUOUS
10
-0.149019
20
-0.315801
11
-0.14825
21
-0.313492
0
LINE
8
BLACK
6
CONTINUOUS
10
-0.14825
20
-0.313492
11
-0.146271
21
-0.312077
0
LINE
8
BLACK
6
CONTINUOUS
10
-0.146271
20
-0.312077
11
-0.143838
21
-0.312096
0
LINE
8
BLACK
6
CONTINUOUS
10
-0.143838
20
-0.312096
11
-0.137132
21
-0.314331
0
LINE
8
BLACK
6
CONTINUOUS
10
-0.137132
20
-0.314331
11
-0.126514
21
-0.314331
0
LINE
8
BLACK
6
CONTINUOUS
10
-0.126514
20
-0.314331
11
-0.123043
21
-0.312595
0
LINE
8
BLACK
6
CONTINUOUS
10
-0.123043
20
-0.312595
11
-0.121509
21
-0.311061
0
LINE
8
BLACK
6
CONTINUOUS
10
-0.121509
20
-0.311061
11
-0.119773
21
-0.307589
0
LINE
8
BLACK
6
CONTINUOUS
10
-0.119773
20
-0.307589
11
-0.119773
21
-0.304574
0
LINE
8
BLACK
6
CONTINUOUS
10
-0.119773
20
-0.304574
11
-0.121509
21
-0.301102
0
LINE
8
BLACK
6
CONTINUOUS
10
-0.121509
20
-0.301102
11
-0.123043
21
-0.299569
0
LINE
8
BLACK
6
CONTINUOUS
10
-0.123043
20
-0.299569
11
-0.126959
21
-0.29761
0
LINE
8
BLACK
6
CONTINUOUS
10
-0.126959
20
-0.29761
11
-0.136289
21
-0.295278
0
LINE
8
BLACK
6
CONTINUOUS
10
-0.136289
20
-0.295278
11
-0.136661
21
-0.295045
0
LINE
8
BLACK
6
CONTINUOUS
10
-0.136661
20
-0.295045
11
-0.137094
21
-0.29498
0
LINE
8
BLACK
6
CONTINUOUS
10
-0.137094
20
-0.29498
11
-0.141969
21
-0.292543
0
LINE
8
BLACK
6
CONTINUOUS
10
-0.141969
20
-0.292543
11
-0.142423
21
-0.292095
0
LINE
8
BLACK
6
CONTINUOUS
10
-0.142423
20
-0.292095
11
-0.142992
21
-0.291805
0
LINE
8
BLACK
6
CONTINUOUS
10
-0.142992
20
-0.291805
11
-0.145429
21
-0.289368
0
LINE
8
BLACK
6
CONTINUOUS
10
-0.145429
20
-0.289368
11
-0.145719
21
-0.288799
0
LINE
8
BLACK
6
CONTINUOUS
10
-0.145719
20
-0.288799
11
-0.146167
21
-0.288345
0
LINE
8
BLACK
6
CONTINUOUS
10
-0.146167
20
-0.288345
11
-0.148604
21
-0.28347
0
LINE
8
BLACK
6
CONTINUOUS
10
-0.148604
20
-0.28347
11
-0.148739
21
-0.282573
0
LINE
8
BLACK
6
CONTINUOUS
10
-0.148739
20
-0.282573
11
-0.14902
21
-0.28171
0
LINE
8
BLACK
6
CONTINUOUS
10
-0.14902
20
-0.28171
11
-0.14902
21
-0.276835
0
LINE
8
BLACK
6
CONTINUOUS
10
-0.14902
20
-0.276835
11
-0.148739
21
-0.275972
0
LINE
8
BLACK
6
CONTINUOUS
10
-0.148739
20
-0.275972
11
-0.148604
21
-0.275075
0
LINE
8
BLACK
6
CONTINUOUS
10
-0.148604
20
-0.275075
11
-0.146167
21
-0.2702
0
LINE
8
BLACK
6
CONTINUOUS
10
-0.146167
20
-0.2702
11
-0.145719
21
-0.269746
0
LINE
8
BLACK
6
CONTINUOUS
10
-0.145719
20
-0.269746
11
-0.145429
21
-0.269177
0
LINE
8
BLACK
6
CONTINUOUS
10
-0.145429
20
-0.269177
11
-0.142992
21
-0.26674
0
LINE
8
BLACK
6
CONTINUOUS
10
-0.142992
20
-0.26674
11
-0.142424
21
-0.26645
0
LINE
8
BLACK
6
CONTINUOUS
10
-0.142424
20
-0.26645
11
-0.141969
21
-0.266002
0
LINE
8
BLACK
6
CONTINUOUS
10
-0.141969
20
-0.266002
11
-0.137094
21
-0.263565
0
LINE
8
BLACK
6
CONTINUOUS
10
-0.137094
20
-0.263565
11
-0.136197
21
-0.26343
0
LINE
8
BLACK
6
CONTINUOUS
10
-0.136197
20
-0.26343
11
-0.135334
21
-0.26315
0
LINE
8
BLACK
6
CONTINUOUS
10
-0.135334
20
-0.26315
11
-0.123148
21
-0.26315
0
LINE
8
BLACK
6
CONTINUOUS
10
-0.123148
20
-0.26315
11
-0.122541
21
-0.263347
0
LINE
8
BLACK
6
CONTINUOUS
10
-0.180893
20
-0.264772
11
-0.180141
21
-0.267087
0
LINE
8
BLACK
6
CONTINUOUS
10
-0.180141
20
-0.267087
11
-0.180141
21
-0.314331
0
LINE
8
BLACK
6
CONTINUOUS
10
-0.180141
20
-0.314331
11
-0.159706
21
-0.314331
0
LINE
8
BLACK
6
CONTINUOUS
10
-0.159706
20
-0.314331
11
-0.157392
21
-0.315083
0
LINE
8
BLACK
6
CONTINUOUS
10
-0.157392
20
-0.315083
11
-0.155961
21
-0.317051
0
LINE
8
BLACK
6
CONTINUOUS
10
-0.155961
20
-0.317051
11
-0.155961
21
-0.319484
0
LINE
8
BLACK
6
CONTINUOUS
10
-0.155961
20
-0.319484
11
-0.157392
21
-0.321453
0
LINE
8
BLACK
6
CONTINUOUS
10
-0.157392
20
-0.321453
11
-0.159706
21
-0.322205
0
LINE
8
BLACK
6
CONTINUOUS
10
-0.159706
20
-0.322205
11
-0.184078
21
-0.322205
0
LINE
8
BLACK
6
CONTINUOUS
10
-0.184078
20
-0.322205
11
-0.184671
21
-0.322012
0
LINE
8
BLACK
6
CONTINUOUS
10
-0.184671
20
-0.322012
11
-0.185294
21
-0.322012
0
LINE
8
BLACK
6
CONTINUOUS
10
-0.185294
20
-0.322012
11
-0.185799
21
-0.321645
0
LINE
8
BLACK
6
CONTINUOUS
10
-0.185799
20
-0.321645
11
-0.186392
21
-0.321453
0
LINE
8
BLACK
6
CONTINUOUS
10
-0.186392
20
-0.321453
11
-0.186758
21
-0.320948
0
LINE
8
BLACK
6
CONTINUOUS
10
-0.186758
20
-0.320948
11
-0.187263
21
-0.320582
0
LINE
8
BLACK
6
CONTINUOUS
10
-0.187263
20
-0.320582
11
-0.187455
21
-0.319989
0
LINE
8
BLACK
6
CONTINUOUS
10
-0.187455
20
-0.319989
11
-0.187822
21
-0.319484
0
LINE
8
BLACK
6
CONTINUOUS
10
-0.187822
20
-0.319484
11
-0.187822
21
-0.318861
0
LINE
8
BLACK
6
CONTINUOUS
10
-0.187822
20
-0.318861
11
-0.188015
21
-0.318268
0
LINE
8
BLACK
6
CONTINUOUS
10
-0.188015
20
-0.318268
11
-0.188015
21
-0.267087
0
LINE
8
BLACK
6
CONTINUOUS
10
-0.188015
20
-0.267087
11
-0.187263
21
-0.264772
0
LINE
8
BLACK
6
CONTINUOUS
10
-0.187263
20
-0.264772
11
-0.185294
21
-0.263342
0
LINE
8
BLACK
6
CONTINUOUS
10
-0.185294
20
-0.263342
11
-0.182861
21
-0.263342
0
LINE
8
BLACK
6
CONTINUOUS
10
-0.182861
20
-0.263342
11
-0.180893
21
-0.264772
0
LINE
8
BLACK
6
CONTINUOUS
10
-0.268516
20
-0.26343
11
-0.267619
21
-0.263565
0
LINE
8
BLACK
6
CONTINUOUS
10
-0.267619
20
-0.263565
11
-0.262744
21
-0.266002
0
LINE
8
BLACK
6
CONTINUOUS
10
-0.262744
20
-0.266002
11
-0.26229
21
-0.26645
0
LINE
8
BLACK
6
CONTINUOUS
10
-0.26229
20
-0.26645
11
-0.261721
21
-0.26674
0
LINE
8
BLACK
6
CONTINUOUS
10
-0.261721
20
-0.26674
11
-0.259284
21
-0.269177
0
LINE
8
BLACK
6
CONTINUOUS
10
-0.259284
20
-0.269177
11
-0.258994
21
-0.269746
0
LINE
8
BLACK
6
CONTINUOUS
10
-0.258994
20
-0.269746
11
-0.258546
21
-0.2702
0
LINE
8
BLACK
6
CONTINUOUS
10
-0.258546
20
-0.2702
11
-0.256109
21
-0.275075
0
LINE
8
BLACK
6
CONTINUOUS
10
-0.256109
20
-0.275075
11
-0.255974
21
-0.275972
0
LINE
8
BLACK
6
CONTINUOUS
10
-0.255974
20
-0.275972
11
-0.255694
21
-0.276835
0
LINE
8
BLACK
6
CONTINUOUS
10
-0.255694
20
-0.276835
11
-0.255694
21
-0.284147
0
LINE
8
BLACK
6
CONTINUOUS
10
-0.255694
20
-0.284147
11
-0.255974
21
-0.28501
0
LINE
8
BLACK
6
CONTINUOUS
10
-0.255974
20
-0.28501
11
-0.256109
21
-0.285908
0
LINE
8
BLACK
6
CONTINUOUS
10
-0.256109
20
-0.285908
11
-0.258546
21
-0.290782
0
LINE
8
BLACK
6
CONTINUOUS
10
-0.258546
20
-0.290782
11
-0.258994
21
-0.291237
0
LINE
8
BLACK
6
CONTINUOUS
10
-0.258994
20
-0.291237
11
-0.259284
21
-0.291805
0
LINE
8
BLACK
6
CONTINUOUS
10
-0.259284
20
-0.291805
11
-0.261721
21
-0.294242
0
LINE
8
BLACK
6
CONTINUOUS
10
-0.261721
20
-0.294242
11
-0.26229
21
-0.294532
0
LINE
8
BLACK
6
CONTINUOUS
10
-0.26229
20
-0.294532
11
-0.262744
21
-0.29498
0
LINE
8
BLACK
6
CONTINUOUS
10
-0.262744
20
-0.29498
11
-0.267619
21
-0.297417
0
LINE
8
BLACK
6
CONTINUOUS
10
-0.267619
20
-0.297417
11
-0.268516
21
-0.297552
0
LINE
8
BLACK
6
CONTINUOUS
10
-0.268516
20
-0.297552
11
-0.269379
21
-0.297833
0
LINE
8
BLACK
6
CONTINUOUS
10
-0.269379
20
-0.297833
11
-0.28494
21
-0.297833
0
LINE
8
BLACK
6
CONTINUOUS
10
-0.28494
20
-0.297833
11
-0.28494
21
-0.318268
0
LINE
8
BLACK
6
CONTINUOUS
10
-0.28494
20
-0.318268
11
-0.285692
21
-0.320582
0
LINE
8
BLACK
6
CONTINUOUS
10
-0.285692
20
-0.320582
11
-0.28766
21
-0.322012
0
LINE
8
BLACK
6
CONTINUOUS
10
-0.28766
20
-0.322012
11
-0.290094
21
-0.322012
0
LINE
8
BLACK
6
CONTINUOUS
10
-0.290094
20
-0.322012
11
-0.292062
21
-0.320582
0
LINE
8
BLACK
6
CONTINUOUS
10
-0.292062
20
-0.320582
11
-0.292814
21
-0.318268
0
LINE
8
BLACK
6
CONTINUOUS
10
-0.292814
20
-0.318268
11
-0.292814
21
-0.267087
0
LINE
8
BLACK
6
CONTINUOUS
10
-0.292814
20
-0.267087
11
-0.292621
21
-0.266494
0
LINE
8
BLACK
6
CONTINUOUS
10
-0.292621
20
-0.266494
11
-0.292621
21
-0.26587
0
LINE
8
BLACK
6
CONTINUOUS
10
-0.292621
20
-0.26587
11
-0.292255
21
-0.265365
0
LINE
8
BLACK
6
CONTINUOUS
10
-0.292255
20
-0.265365
11
-0.292062
21
-0.264772
0
LINE
8
BLACK
6
CONTINUOUS
10
-0.292062
20
-0.264772
11
-0.291558
21
-0.264406
0
LINE
8
BLACK
6
CONTINUOUS
10
-0.291558
20
-0.264406
11
-0.291191
21
-0.263901
0
LINE
8
BLACK
6
CONTINUOUS
10
-0.291191
20
-0.263901
11
-0.290598
21
-0.263709
0
LINE
8
BLACK
6
CONTINUOUS
10
-0.290598
20
-0.263709
11
-0.290094
21
-0.263342
0
LINE
8
BLACK
6
CONTINUOUS
10
-0.290094
20
-0.263342
11
-0.28947
21
-0.263342
0
LINE
8
BLACK
6
CONTINUOUS
10
-0.28947
20
-0.263342
11
-0.288877
21
-0.26315
0
LINE
8
BLACK
6
CONTINUOUS
10
-0.288877
20
-0.26315
11
-0.269379
21
-0.26315
0
LINE
8
BLACK
6
CONTINUOUS
10
-0.269379
20
-0.26315
11
-0.268516
21
-0.26343
0
LINE
8
BLACK
6
CONTINUOUS
10
-0.28494
20
-0.271024
11
-0.28494
21
-0.289959
0
LINE
8
BLACK
6
CONTINUOUS
10
-0.28494
20
-0.289959
11
-0.270309
21
-0.289959
0
LINE
8
BLACK
6
CONTINUOUS
10
-0.270309
20
-0.289959
11
-0.266837
21
-0.288223
0
LINE
8
BLACK
6
CONTINUOUS
10
-0.266837
20
-0.288223
11
-0.265304
21
-0.286689
0
LINE
8
BLACK
6
CONTINUOUS
10
-0.265304
20
-0.286689
11
-0.263568
21
-0.283218
0
LINE
8
BLACK
6
CONTINUOUS
10
-0.263568
20
-0.283218
11
-0.263568
21
-0.277765
0
LINE
8
BLACK
6
CONTINUOUS
10
-0.263568
20
-0.277765
11
-0.265304
21
-0.274293
0
LINE
8
BLACK
6
CONTINUOUS
10
-0.265304
20
-0.274293
11
-0.266837
21
-0.272759
0
LINE
8
BLACK
6
CONTINUOUS
10
-0.266837
20
-0.272759
11
-0.270309
21
-0.271024
0
LINE
8
BLACK
6
CONTINUOUS
10
-0.270309
20
-0.271024
11
-0.28494
21
-0.271024
0
LINE
8
BLACK
6
CONTINUOUS
10
-0.54165
20
-0.258612
11
-0.540066
21
-0.260459
0
LINE
8
BLACK
6
CONTINUOUS
10
-0.540066
20
-0.260459
11
-0.539871
21
-0.262884
0
LINE
8
BLACK
6
CONTINUOUS
10
-0.539871
20
-0.262884
11
-0.552057
21
-0.314065
0
LINE
8
BLACK
6
CONTINUOUS
10
-0.552057
20
-0.314065
11
-0.552198
21
-0.314297
0
LINE
8
BLACK
6
CONTINUOUS
10
-0.552198
20
-0.314297
11
-0.552213
21
-0.314569
0
LINE
8
BLACK
6
CONTINUOUS
10
-0.552213
20
-0.314569
11
-0.552821
21
-0.315318
0
LINE
8
BLACK
6
CONTINUOUS
10
-0.552821
20
-0.315318
11
-0.553324
21
-0.316142
0
LINE
8
BLACK
6
CONTINUOUS
10
-0.553324
20
-0.316142
11
-0.553575
21
-0.316247
0
LINE
8
BLACK
6
CONTINUOUS
10
-0.553575
20
-0.316247
11
-0.553746
21
-0.316458
0
LINE
8
BLACK
6
CONTINUOUS
10
-0.553746
20
-0.316458
11
-0.554679
21
-0.316707
0
LINE
8
BLACK
6
CONTINUOUS
10
-0.554679
20
-0.316707
11
-0.555571
21
-0.317078
0
LINE
8
BLACK
6
CONTINUOUS
10
-0.555571
20
-0.317078
11
-0.555835
21
-0.317015
0
LINE
8
BLACK
6
CONTINUOUS
10
-0.555835
20
-0.317015
11
-0.556098
21
-0.317085
0
LINE
8
BLACK
6
CONTINUOUS
10
-0.556098
20
-0.317085
11
-0.556999
21
-0.316738
0
LINE
8
BLACK
6
CONTINUOUS
10
-0.556999
20
-0.316738
11
-0.557938
21
-0.316514
0
LINE
8
BLACK
6
CONTINUOUS
10
-0.557938
20
-0.316514
11
-0.558114
21
-0.316308
0
LINE
8
BLACK
6
CONTINUOUS
10
-0.558114
20
-0.316308
11
-0.558368
21
-0.31621
0
LINE
8
BLACK
6
CONTINUOUS
10
-0.558368
20
-0.31621
11
-0.558893
21
-0.3154
0
LINE
8
BLACK
6
CONTINUOUS
10
-0.558893
20
-0.3154
11
-0.559521
21
-0.314667
0
LINE
8
BLACK
6
CONTINUOUS
10
-0.559521
20
-0.314667
11
-0.559543
21
-0.314396
0
LINE
8
BLACK
6
CONTINUOUS
10
-0.559543
20
-0.314396
11
-0.559691
21
-0.314168
0
LINE
8
BLACK
6
CONTINUOUS
10
-0.559691
20
-0.314168
11
-0.565636
21
-0.291875
0
LINE
8
BLACK
6
CONTINUOUS
10
-0.565636
20
-0.291875
11
-0.57158
21
-0.314168
0
LINE
8
BLACK
6
CONTINUOUS
10
-0.57158
20
-0.314168
11
-0.571728
21
-0.314396
0
LINE
8
BLACK
6
CONTINUOUS
10
-0.571728
20
-0.314396
11
-0.57175
21
-0.314667
0
LINE
8
BLACK
6
CONTINUOUS
10
-0.57175
20
-0.314667
11
-0.572378
21
-0.3154
0
LINE
8
BLACK
6
CONTINUOUS
10
-0.572378
20
-0.3154
11
-0.572903
21
-0.31621
0
LINE
8
BLACK
6
CONTINUOUS
10
-0.572903
20
-0.31621
11
-0.573157
21
-0.316308
0
LINE
8
BLACK
6
CONTINUOUS
10
-0.573157
20
-0.316308
11
-0.573334
21
-0.316514
0
LINE
8
BLACK
6
CONTINUOUS
10
-0.573334
20
-0.316514
11
-0.574273
21
-0.316738
0
LINE
8
BLACK
6
CONTINUOUS
10
-0.574273
20
-0.316738
11
-0.575174
21
-0.317085
0
LINE
8
BLACK
6
CONTINUOUS
10
-0.575174
20
-0.317085
11
-0.575436
21
-0.317015
0
LINE
8
BLACK
6
CONTINUOUS
10
-0.575436
20
-0.317015
11
-0.575701
21
-0.317078
0
LINE
8
BLACK
6
CONTINUOUS
10
-0.575701
20
-0.317078
11
-0.576592
21
-0.316706
0
LINE
8
BLACK
6
CONTINUOUS
10
-0.576592
20
-0.316706
11
-0.577525
21
-0.316458
0
LINE
8
BLACK
6
CONTINUOUS
10
-0.577525
20
-0.316458
11
-0.577696
21
-0.316247
0
LINE
8
BLACK
6
CONTINUOUS
10
-0.577696
20
-0.316247
11
-0.577947
21
-0.316142
0
LINE
8
BLACK
6
CONTINUOUS
10
-0.577947
20
-0.316142
11
-0.57845
21
-0.315318
0
LINE
8
BLACK
6
CONTINUOUS
10
-0.57845
20
-0.315318
11
-0.579058
21
-0.314569
0
LINE
8
BLACK
6
CONTINUOUS
10
-0.579058
20
-0.314569
11
-0.579073
21
-0.314297
0
LINE
8
BLACK
6
CONTINUOUS
10
-0.579073
20
-0.314297
11
-0.579214
21
-0.314065
0
LINE
8
BLACK
6
CONTINUOUS
10
-0.579214
20
-0.314065
11
-0.5914
21
-0.262884
0
LINE
8
BLACK
6
CONTINUOUS
10
-0.5914
20
-0.262884
11
-0.591205
21
-0.260459
0
LINE
8
BLACK
6
CONTINUOUS
10
-0.591205
20
-0.260459
11
-0.589621
21
-0.258612
0
LINE
8
BLACK
6
CONTINUOUS
10
-0.589621
20
-0.258612
11
-0.587254
21
-0.258048
0
LINE
8
BLACK
6
CONTINUOUS
10
-0.587254
20
-0.258048
11
-0.585008
21
-0.258983
0
LINE
8
BLACK
6
CONTINUOUS
10
-0.585008
20
-0.258983
11
-0.58374
21
-0.26106
0
LINE
8
BLACK
6
CONTINUOUS
10
-0.58374
20
-0.26106
11
-0.575168
21
-0.297063
0
LINE
8
BLACK
6
CONTINUOUS
10
-0.575168
20
-0.297063
11
-0.56944
21
-0.275581
0
LINE
8
BLACK
6
CONTINUOUS
10
-0.56944
20
-0.275581
11
-0.569321
21
-0.275398
0
LINE
8
BLACK
6
CONTINUOUS
10
-0.569321
20
-0.275398
11
-0.569309
21
-0.27518
0
LINE
8
BLACK
6
CONTINUOUS
10
-0.569309
20
-0.27518
11
-0.568669
21
-0.274391
0
LINE
8
BLACK
6
CONTINUOUS
10
-0.568669
20
-0.274391
11
-0.568117
21
-0.273539
0
LINE
8
BLACK
6
CONTINUOUS
10
-0.568117
20
-0.273539
11
-0.567913
21
-0.27346
0
LINE
8
BLACK
6
CONTINUOUS
10
-0.567913
20
-0.27346
11
-0.567776
21
-0.273291
0
LINE
8
BLACK
6
CONTINUOUS
10
-0.567776
20
-0.273291
11
-0.566794
21
-0.273029
0
LINE
8
BLACK
6
CONTINUOUS
10
-0.566794
20
-0.273029
11
-0.565846
21
-0.272664
0
LINE
8
BLACK
6
CONTINUOUS
10
-0.565846
20
-0.272664
11
-0.565636
21
-0.27272
0
LINE
8
BLACK
6
CONTINUOUS
10
-0.565636
20
-0.27272
11
-0.565425
21
-0.272664
0
LINE
8
BLACK
6
CONTINUOUS
10
-0.565425
20
-0.272664
11
-0.564477
21
-0.273029
0
LINE
8
BLACK
6
CONTINUOUS
10
-0.564477
20
-0.273029
11
-0.563495
21
-0.273291
0
LINE
8
BLACK
6
CONTINUOUS
10
-0.563495
20
-0.273291
11
-0.563358
21
-0.27346
0
LINE
8
BLACK
6
CONTINUOUS
10
-0.563358
20
-0.27346
11
-0.563154
21
-0.273539
0
LINE
8
BLACK
6
CONTINUOUS
10
-0.563154
20
-0.273539
11
-0.562602
21
-0.274391
0
LINE
8
BLACK
6
CONTINUOUS
10
-0.562602
20
-0.274391
11
-0.561962
21
-0.27518
0
LINE
8
BLACK
6
CONTINUOUS
10
-0.561962
20
-0.27518
11
-0.56195
21
-0.275398
0
LINE
8
BLACK
6
CONTINUOUS
10
-0.56195
20
-0.275398
11
-0.561831
21
-0.275581
0
LINE
8
BLACK
6
CONTINUOUS
10
-0.561831
20
-0.275581
11
-0.556103
21
-0.297063
0
LINE
8
BLACK
6
CONTINUOUS
10
-0.556103
20
-0.297063
11
-0.547531
21
-0.26106
0
LINE
8
BLACK
6
CONTINUOUS
10
-0.547531
20
-0.26106
11
-0.546263
21
-0.258983
0
LINE
8
BLACK
6
CONTINUOUS
10
-0.546263
20
-0.258983
11
-0.544017
21
-0.258048
0
LINE
8
BLACK
6
CONTINUOUS
10
-0.544017
20
-0.258048
11
-0.54165
21
-0.258612
0
LINE
8
BLACK
6
CONTINUOUS
10
-0.503843
20
-0.258316
11
-0.502945
21
-0.258451
0
LINE
8
BLACK
6
CONTINUOUS
10
-0.502945
20
-0.258451
11
-0.498071
21
-0.260888
0
LINE
8
BLACK
6
CONTINUOUS
10
-0.498071
20
-0.260888
11
-0.497616
21
-0.261336
0
LINE
8
BLACK
6
CONTINUOUS
10
-0.497616
20
-0.261336
11
-0.497047
21
-0.261626
0
LINE
8
BLACK
6
CONTINUOUS
10
-0.497047
20
-0.261626
11
-0.49461
21
-0.264063
0
LINE
8
BLACK
6
CONTINUOUS
10
-0.49461
20
-0.264063
11
-0.494321
21
-0.264631
0
LINE
8
BLACK
6
CONTINUOUS
10
-0.494321
20
-0.264631
11
-0.493873
21
-0.265086
0
LINE
8
BLACK
6
CONTINUOUS
10
-0.493873
20
-0.265086
11
-0.491436
21
-0.26996
0
LINE
8
BLACK
6
CONTINUOUS
10
-0.491436
20
-0.26996
11
-0.4913
21
-0.270858
0
LINE
8
BLACK
6
CONTINUOUS
10
-0.4913
20
-0.270858
11
-0.49102
21
-0.271721
0
LINE
8
BLACK
6
CONTINUOUS
10
-0.49102
20
-0.271721
11
-0.49102
21
-0.279033
0
LINE
8
BLACK
6
CONTINUOUS
10
-0.49102
20
-0.279033
11
-0.4913
21
-0.279896
0
LINE
8
BLACK
6
CONTINUOUS
10
-0.4913
20
-0.279896
11
-0.491436
21
-0.280793
0
LINE
8
BLACK
6
CONTINUOUS
10
-0.491436
20
-0.280793
11
-0.493873
21
-0.285668
0
LINE
8
BLACK
6
CONTINUOUS
10
-0.493873
20
-0.285668
11
-0.494321
21
-0.286122
0
LINE
8
BLACK
6
CONTINUOUS
10
-0.494321
20
-0.286122
11
-0.49461
21
-0.286691
0
LINE
8
BLACK
6
CONTINUOUS
10
-0.49461
20
-0.286691
11
-0.497047
21
-0.289128
0
LINE
8
BLACK
6
CONTINUOUS
10
-0.497047
20
-0.289128
11
-0.497616
21
-0.289418
0
LINE
8
BLACK
6
CONTINUOUS
10
-0.497616
20
-0.289418
11
-0.498071
21
-0.289866
0
LINE
8
BLACK
6
CONTINUOUS
10
-0.498071
20
-0.289866
11
-0.502945
21
-0.292303
0
LINE
8
BLACK
6
CONTINUOUS
10
-0.502945
20
-0.292303
11
-0.503843
21
-0.292438
0
LINE
8
BLACK
6
CONTINUOUS
10
-0.503843
20
-0.292438
11
-0.504502
21
-0.292652
0
LINE
8
BLACK
6
CONTINUOUS
10
-0.504502
20
-0.292652
11
-0.491732
21
-0.310896
0
LINE
8
BLACK
6
CONTINUOUS
10
-0.491732
20
-0.310896
11
-0.49102
21
-0.313223
0
LINE
8
BLACK
6
CONTINUOUS
10
-0.49102
20
-0.313223
11
-0.491813
21
-0.315523
0
LINE
8
BLACK
6
CONTINUOUS
10
-0.491813
20
-0.315523
11
-0.493806
21
-0.316919
0
LINE
8
BLACK
6
CONTINUOUS
10
-0.493806
20
-0.316919
11
-0.496239
21
-0.316876
0
LINE
8
BLACK
6
CONTINUOUS
10
-0.496239
20
-0.316876
11
-0.498182
21
-0.315411
0
LINE
8
BLACK
6
CONTINUOUS
10
-0.498182
20
-0.315411
11
-0.514067
21
-0.292718
0
LINE
8
BLACK
6
CONTINUOUS
10
-0.514067
20
-0.292718
11
-0.520266
21
-0.292718
0
LINE
8
BLACK
6
CONTINUOUS
10
-0.520266
20
-0.292718
11
-0.520266
21
-0.313153
0
LINE
8
BLACK
6
CONTINUOUS
10
-0.520266
20
-0.313153
11
-0.521018
21
-0.315467
0
LINE
8
BLACK
6
CONTINUOUS
10
-0.521018
20
-0.315467
11
-0.522987
21
-0.316898
0
LINE
8
BLACK
6
CONTINUOUS
10
-0.522987
20
-0.316898
11
-0.52542
21
-0.316898
0
LINE
8
BLACK
6
CONTINUOUS
10
-0.52542
20
-0.316898
11
-0.527388
21
-0.315467
0
LINE
8
BLACK
6
CONTINUOUS
10
-0.527388
20
-0.315467
11
-0.52814
21
-0.313153
0
LINE
8
BLACK
6
CONTINUOUS
10
-0.52814
20
-0.313153
11
-0.52814
21
-0.261972
0
LINE
8
BLACK
6
CONTINUOUS
10
-0.52814
20
-0.261972
11
-0.527948
21
-0.261379
0
LINE
8
BLACK
6
CONTINUOUS
10
-0.527948
20
-0.261379
11
-0.527948
21
-0.260756
0
LINE
8
BLACK
6
CONTINUOUS
10
-0.527948
20
-0.260756
11
-0.527581
21
-0.260251
0
LINE
8
BLACK
6
CONTINUOUS
10
-0.527581
20
-0.260251
11
-0.527388
21
-0.259658
0
LINE
8
BLACK
6
CONTINUOUS
10
-0.527388
20
-0.259658
11
-0.526884
21
-0.259292
0
LINE
8
BLACK
6
CONTINUOUS
10
-0.526884
20
-0.259292
11
-0.526517
21
-0.258787
0
LINE
8
BLACK
6
CONTINUOUS
10
-0.526517
20
-0.258787
11
-0.525924
21
-0.258594
0
LINE
8
BLACK
6
CONTINUOUS
10
-0.525924
20
-0.258594
11
-0.52542
21
-0.258228
0
LINE
8
BLACK
6
CONTINUOUS
10
-0.52542
20
-0.258228
11
-0.524796
21
-0.258228
0
LINE
8
BLACK
6
CONTINUOUS
10
-0.524796
20
-0.258228
11
-0.524203
21
-0.258035
0
LINE
8
BLACK
6
CONTINUOUS
10
-0.524203
20
-0.258035
11
-0.504706
21
-0.258035
0
LINE
8
BLACK
6
CONTINUOUS
10
-0.504706
20
-0.258035
11
-0.503843
21
-0.258316
0
LINE
8
BLACK
6
CONTINUOUS
10
-0.520266
20
-0.265909
11
-0.520266
21
-0.284844
0
LINE
8
BLACK
6
CONTINUOUS
10
-0.520266
20
-0.284844
11
-0.505635
21
-0.284844
0
LINE
8
BLACK
6
CONTINUOUS
10
-0.505635
20
-0.284844
11
-0.502163
21
-0.283108
0
LINE
8
BLACK
6
CONTINUOUS
10
-0.502163
20
-0.283108
11
-0.50063
21
-0.281575
0
LINE
8
BLACK
6
CONTINUOUS
10
-0.50063
20
-0.281575
11
-0.498894
21
-0.278103
0
LINE
8
BLACK
6
CONTINUOUS
10
-0.498894
20
-0.278103
11
-0.498894
21
-0.27265
0
LINE
8
BLACK
6
CONTINUOUS
10
-0.498894
20
-0.27265
11
-0.50063
21
-0.269179
0
LINE
8
BLACK
6
CONTINUOUS
10
-0.50063
20
-0.269179
11
-0.502163
21
-0.267645
0
LINE
8
BLACK
6
CONTINUOUS
10
-0.502163
20
-0.267645
11
-0.505635
21
-0.265909
0
LINE
8
BLACK
6
CONTINUOUS
10
-0.505635
20
-0.265909
11
-0.520266
21
-0.265909
0
LINE
8
BLACK
6
CONTINUOUS
10
-0.613516
20
-0.258316
11
-0.612619
21
-0.258451
0
LINE
8
BLACK
6
CONTINUOUS
10
-0.612619
20
-0.258451
11
-0.607744
21
-0.260888
0
LINE
8
BLACK
6
CONTINUOUS
10
-0.607744
20
-0.260888
11
-0.60729
21
-0.261336
0
LINE
8
BLACK
6
CONTINUOUS
10
-0.60729
20
-0.261336
11
-0.606721
21
-0.261626
0
LINE
8
BLACK
6
CONTINUOUS
10
-0.606721
20
-0.261626
11
-0.604284
21
-0.264063
0
LINE
8
BLACK
6
CONTINUOUS
10
-0.604284
20
-0.264063
11
-0.603994
21
-0.264631
0
LINE
8
BLACK
6
CONTINUOUS
10
-0.603994
20
-0.264631
11
-0.603546
21
-0.265086
0
LINE
8
BLACK
6
CONTINUOUS
10
-0.603546
20
-0.265086
11
-0.601109
21
-0.26996
0
LINE
8
BLACK
6
CONTINUOUS
10
-0.601109
20
-0.26996
11
-0.600974
21
-0.270858
0
LINE
8
BLACK
6
CONTINUOUS
10
-0.600974
20
-0.270858
11
-0.600694
21
-0.271721
0
LINE
8
BLACK
6
CONTINUOUS
10
-0.600694
20
-0.271721
11
-0.600694
21
-0.279033
0
LINE
8
BLACK
6
CONTINUOUS
10
-0.600694
20
-0.279033
11
-0.600974
21
-0.279896
0
LINE
8
BLACK
6
CONTINUOUS
10
-0.600974
20
-0.279896
11
-0.601109
21
-0.280793
0
LINE
8
BLACK
6
CONTINUOUS
10
-0.601109
20
-0.280793
11
-0.603546
21
-0.285668
0
LINE
8
BLACK
6
CONTINUOUS
10
-0.603546
20
-0.285668
11
-0.603994
21
-0.286122
0
LINE
8
BLACK
6
CONTINUOUS
10
-0.603994
20
-0.286122
11
-0.604284
21
-0.286691
0
LINE
8
BLACK
6
CONTINUOUS
10
-0.604284
20
-0.286691
11
-0.606721
21
-0.289128
0
LINE
8
BLACK
6
CONTINUOUS
10
-0.606721
20
-0.289128
11
-0.60729
21
-0.289418
0
LINE
8
BLACK
6
CONTINUOUS
10
-0.60729
20
-0.289418
11
-0.607744
21
-0.289866
0
LINE
8
BLACK
6
CONTINUOUS
10
-0.607744
20
-0.289866
11
-0.612619
21
-0.292303
0
LINE
8
BLACK
6
CONTINUOUS
10
-0.612619
20
-0.292303
11
-0.613516
21
-0.292438
0
LINE
8
BLACK
6
CONTINUOUS
10
-0.613516
20
-0.292438
11
-0.614379
21
-0.292718
0
LINE
8
BLACK
6
CONTINUOUS
10
-0.614379
20
-0.292718
11
-0.62994
21
-0.292718
0
LINE
8
BLACK
6
CONTINUOUS
10
-0.62994
20
-0.292718
11
-0.62994
21
-0.313153
0
LINE
8
BLACK
6
CONTINUOUS
10
-0.62994
20
-0.313153
11
-0.630692
21
-0.315467
0
LINE
8
BLACK
6
CONTINUOUS
10
-0.630692
20
-0.315467
11
-0.63266
21
-0.316898
0
LINE
8
BLACK
6
CONTINUOUS
10
-0.63266
20
-0.316898
11
-0.635094
21
-0.316898
0
LINE
8
BLACK
6
CONTINUOUS
10
-0.635094
20
-0.316898
11
-0.637062
21
-0.315467
0
LINE
8
BLACK
6
CONTINUOUS
10
-0.637062
20
-0.315467
11
-0.637814
21
-0.313153
0
LINE
8
BLACK
6
CONTINUOUS
10
-0.637814
20
-0.313153
11
-0.637814
21
-0.261972
0
LINE
8
BLACK
6
CONTINUOUS
10
-0.637814
20
-0.261972
11
-0.637621
21
-0.261379
0
LINE
8
BLACK
6
CONTINUOUS
10
-0.637621
20
-0.261379
11
-0.637621
21
-0.260756
0
LINE
8
BLACK
6
CONTINUOUS
10
-0.637621
20
-0.260756
11
-0.637255
21
-0.260251
0
LINE
8
BLACK
6
CONTINUOUS
10
-0.637255
20
-0.260251
11
-0.637062
21
-0.259658
0
LINE
8
BLACK
6
CONTINUOUS
10
-0.637062
20
-0.259658
11
-0.636558
21
-0.259292
0
LINE
8
BLACK
6
CONTINUOUS
10
-0.636558
20
-0.259292
11
-0.636191
21
-0.258787
0
LINE
8
BLACK
6
CONTINUOUS
10
-0.636191
20
-0.258787
11
-0.635598
21
-0.258594
0
LINE
8
BLACK
6
CONTINUOUS
10
-0.635598
20
-0.258594
11
-0.635094
21
-0.258228
0
LINE
8
BLACK
6
CONTINUOUS
10
-0.635094
20
-0.258228
11
-0.63447
21
-0.258228
0
LINE
8
BLACK
6
CONTINUOUS
10
-0.63447
20
-0.258228
11
-0.633877
21
-0.258035
0
LINE
8
BLACK
6
CONTINUOUS
10
-0.633877
20
-0.258035
11
-0.614379
21
-0.258035
0
LINE
8
BLACK
6
CONTINUOUS
10
-0.614379
20
-0.258035
11
-0.613516
21
-0.258316
0
LINE
8
BLACK
6
CONTINUOUS
10
-0.62994
20
-0.265909
11
-0.62994
21
-0.284844
0
LINE
8
BLACK
6
CONTINUOUS
10
-0.62994
20
-0.284844
11
-0.615309
21
-0.284844
0
LINE
8
BLACK
6
CONTINUOUS
10
-0.615309
20
-0.284844
11
-0.611837
21
-0.283109
0
LINE
8
BLACK
6
CONTINUOUS
10
-0.611837
20
-0.283109
11
-0.610304
21
-0.281575
0
LINE
8
BLACK
6
CONTINUOUS
10
-0.610304
20
-0.281575
11
-0.608568
21
-0.278103
0
LINE
8
BLACK
6
CONTINUOUS
10
-0.608568
20
-0.278103
11
-0.608568
21
-0.27265
0
LINE
8
BLACK
6
CONTINUOUS
10
-0.608568
20
-0.27265
11
-0.610304
21
-0.269179
0
LINE
8
BLACK
6
CONTINUOUS
10
-0.610304
20
-0.269179
11
-0.611837
21
-0.267645
0
LINE
8
BLACK
6
CONTINUOUS
10
-0.611837
20
-0.267645
11
-0.615309
21
-0.265909
0
LINE
8
BLACK
6
CONTINUOUS
10
-0.615309
20
-0.265909
11
-0.62994
21
-0.265909
0
LINE
8
BLACK
6
CONTINUOUS
10
-0.33285
20
-0.148021
11
-0.331901
21
-0.148078
0
LINE
8
BLACK
6
CONTINUOUS
10
-0.331901
20
-0.148078
11
-0.323464
21
-0.15089
0
LINE
8
BLACK
6
CONTINUOUS
10
-0.323464
20
-0.15089
11
-0.322331
21
-0.151638
0
LINE
8
BLACK
6
CONTINUOUS
10
-0.322331
20
-0.151638
11
-0.321156
21
-0.152316
0
LINE
8
BLACK
6
CONTINUOUS
10
-0.321156
20
-0.152316
11
-0.315532
21
-0.157941
0
LINE
8
BLACK
6
CONTINUOUS
10
-0.315532
20
-0.157941
11
-0.315056
21
-0.158764
0
LINE
8
BLACK
6
CONTINUOUS
10
-0.315056
20
-0.158764
11
-0.314426
21
-0.159476
0
LINE
8
BLACK
6
CONTINUOUS
10
-0.314426
20
-0.159476
11
-0.311613
21
-0.1651
0
LINE
8
BLACK
6
CONTINUOUS
10
-0.311613
20
-0.1651
11
-0.311483
21
-0.165739
0
LINE
8
BLACK
6
CONTINUOUS
10
-0.311483
20
-0.165739
11
-0.311166
21
-0.166309
0
LINE
8
BLACK
6
CONTINUOUS
10
-0.311166
20
-0.166309
11
-0.308354
21
-0.177557
0
LINE
8
BLACK
6
CONTINUOUS
10
-0.308354
20
-0.177557
11
-0.308366
21
-0.178286
0
LINE
8
BLACK
6
CONTINUOUS
10
-0.308366
20
-0.178286
11
-0.308178
21
-0.178989
0
LINE
8
BLACK
6
CONTINUOUS
10
-0.308178
20
-0.178989
11
-0.308178
21
-0.187426
0
LINE
8
BLACK
6
CONTINUOUS
10
-0.308178
20
-0.187426
11
-0.308366
21
-0.18813
0
LINE
8
BLACK
6
CONTINUOUS
10
-0.308366
20
-0.18813
11
-0.308354
21
-0.188858
0
LINE
8
BLACK
6
CONTINUOUS
10
-0.308354
20
-0.188858
11
-0.311166
21
-0.200107
0
LINE
8
BLACK
6
CONTINUOUS
10
-0.311166
20
-0.200107
11
-0.311483
21
-0.200677
0
LINE
8
BLACK
6
CONTINUOUS
10
-0.311483
20
-0.200677
11
-0.311613
21
-0.201316
0
LINE
8
BLACK
6
CONTINUOUS
10
-0.311613
20
-0.201316
11
-0.314426
21
-0.20694
0
LINE
8
BLACK
6
CONTINUOUS
10
-0.314426
20
-0.20694
11
-0.315056
21
-0.207651
0
LINE
8
BLACK
6
CONTINUOUS
10
-0.315056
20
-0.207651
11
-0.315532
21
-0.208475
0
LINE
8
BLACK
6
CONTINUOUS
10
-0.315532
20
-0.208475
11
-0.321156
21
-0.214099
0
LINE
8
BLACK
6
CONTINUOUS
10
-0.321156
20
-0.214099
11
-0.322331
21
-0.214778
0
LINE
8
BLACK
6
CONTINUOUS
10
-0.322331
20
-0.214778
11
-0.323464
21
-0.215526
0
LINE
8
BLACK
6
CONTINUOUS
10
-0.323464
20
-0.215526
11
-0.331901
21
-0.218338
0
LINE
8
BLACK
6
CONTINUOUS
10
-0.331901
20
-0.218338
11
-0.33285
21
-0.218395
0
LINE
8
BLACK
6
CONTINUOUS
10
-0.33285
20
-0.218395
11
-0.333768
21
-0.218641
0
LINE
8
BLACK
6
CONTINUOUS
10
-0.333768
20
-0.218641
11
-0.347829
21
-0.218641
0
LINE
8
BLACK
6
CONTINUOUS
10
-0.347829
20
-0.218641
11
-0.350782
21
-0.21785
0
LINE
8
BLACK
6
CONTINUOUS
10
-0.350782
20
-0.21785
11
-0.352943
21
-0.215688
0
LINE
8
BLACK
6
CONTINUOUS
10
-0.352943
20
-0.215688
11
-0.353735
21
-0.212735
0
LINE
8
BLACK
6
CONTINUOUS
10
-0.353735
20
-0.212735
11
-0.353735
21
-0.15368
0
LINE
8
BLACK
6
CONTINUOUS
10
-0.353735
20
-0.15368
11
-0.352943
21
-0.150727
0
LINE
8
BLACK
6
CONTINUOUS
10
-0.352943
20
-0.150727
11
-0.350782
21
-0.148566
0
LINE
8
BLACK
6
CONTINUOUS
10
-0.350782
20
-0.148566
11
-0.347829
21
-0.147775
0
LINE
8
BLACK
6
CONTINUOUS
10
-0.347829
20
-0.147775
11
-0.333768
21
-0.147775
0
LINE
8
BLACK
6
CONTINUOUS
10
-0.333768
20
-0.147775
11
-0.33285
21
-0.148021
0
LINE
8
BLACK
6
CONTINUOUS
10
-0.341924
20
-0.159586
11
-0.341924
21
-0.20683
0
LINE
8
BLACK
6
CONTINUOUS
10
-0.341924
20
-0.20683
11
-0.334727
21
-0.20683
0
LINE
8
BLACK
6
CONTINUOUS
10
-0.334727
20
-0.20683
11
-0.328522
21
-0.204761
0
LINE
8
BLACK
6
CONTINUOUS
10
-0.328522
20
-0.204761
11
-0.324561
21
-0.200801
0
LINE
8
BLACK
6
CONTINUOUS
10
-0.324561
20
-0.200801
11
-0.322467
21
-0.196613
0
LINE
8
BLACK
6
CONTINUOUS
10
-0.322467
20
-0.196613
11
-0.319989
21
-0.186699
0
LINE
8
BLACK
6
CONTINUOUS
10
-0.319989
20
-0.186699
11
-0.319989
21
-0.179716
0
LINE
8
BLACK
6
CONTINUOUS
10
-0.319989
20
-0.179716
11
-0.322467
21
-0.169802
0
LINE
8
BLACK
6
CONTINUOUS
10
-0.322467
20
-0.169802
11
-0.324561
21
-0.165615
0
LINE
8
BLACK
6
CONTINUOUS
10
-0.324561
20
-0.165615
11
-0.328522
21
-0.161654
0
LINE
8
BLACK
6
CONTINUOUS
10
-0.328522
20
-0.161654
11
-0.334727
21
-0.159586
0
LINE
8
BLACK
6
CONTINUOUS
10
-0.334727
20
-0.159586
11
-0.341924
21
-0.159586
0
LINE
8
BLACK
6
CONTINUOUS
10
-0.4872
20
-0.148106
11
-0.485939
21
-0.148329
0
LINE
8
BLACK
6
CONTINUOUS
10
-0.485939
20
-0.148329
11
-0.485738
21
-0.148498
0
LINE
8
BLACK
6
CONTINUOUS
10
-0.485738
20
-0.148498
11
-0.485484
21
-0.148566
0
LINE
8
BLACK
6
CONTINUOUS
10
-0.485484
20
-0.148566
11
-0.484579
21
-0.149471
0
LINE
8
BLACK
6
CONTINUOUS
10
-0.484579
20
-0.149471
11
-0.483598
21
-0.150294
0
LINE
8
BLACK
6
CONTINUOUS
10
-0.483598
20
-0.150294
11
-0.483508
21
-0.150541
0
LINE
8
BLACK
6
CONTINUOUS
10
-0.483508
20
-0.150541
11
-0.483322
21
-0.150727
0
LINE
8
BLACK
6
CONTINUOUS
10
-0.483322
20
-0.150727
11
-0.482991
21
-0.151964
0
LINE
8
BLACK
6
CONTINUOUS
10
-0.482991
20
-0.151964
11
-0.482553
21
-0.153167
0
LINE
8
BLACK
6
CONTINUOUS
10
-0.482553
20
-0.153167
11
-0.482599
21
-0.153426
0
LINE
8
BLACK
6
CONTINUOUS
10
-0.482599
20
-0.153426
11
-0.482531
21
-0.15368
0
LINE
8
BLACK
6
CONTINUOUS
10
-0.482531
20
-0.15368
11
-0.482531
21
-0.212735
0
LINE
8
BLACK
6
CONTINUOUS
10
-0.482531
20
-0.212735
11
-0.483322
21
-0.215688
0
LINE
8
BLACK
6
CONTINUOUS
10
-0.483322
20
-0.215688
11
-0.485484
21
-0.21785
0
LINE
8
BLACK
6
CONTINUOUS
10
-0.485484
20
-0.21785
11
-0.488436
21
-0.218641
0
LINE
8
BLACK
6
CONTINUOUS
10
-0.488436
20
-0.218641
11
-0.491389
21
-0.21785
0
LINE
8
BLACK
6
CONTINUOUS
10
-0.491389
20
-0.21785
11
-0.493551
21
-0.215688
0
LINE
8
BLACK
6
CONTINUOUS
10
-0.493551
20
-0.215688
11
-0.494342
21
-0.212735
0
LINE
8
BLACK
6
CONTINUOUS
10
-0.494342
20
-0.212735
11
-0.494342
21
-0.1803
0
LINE
8
BLACK
6
CONTINUOUS
10
-0.494342
20
-0.1803
11
-0.50277
21
-0.19836
0
LINE
8
BLACK
6
CONTINUOUS
10
-0.50277
20
-0.19836
11
-0.503105
21
-0.198759
0
LINE
8
BLACK
6
CONTINUOUS
10
-0.503105
20
-0.198759
11
-0.503283
21
-0.199248
0
LINE
8
BLACK
6
CONTINUOUS
10
-0.503283
20
-0.199248
11
-0.504073
21
-0.199911
0
LINE
8
BLACK
6
CONTINUOUS
10
-0.504073
20
-0.199911
11
-0.504736
21
-0.200701
0
LINE
8
BLACK
6
CONTINUOUS
10
-0.504736
20
-0.200701
11
-0.505225
21
-0.200879
0
LINE
8
BLACK
6
CONTINUOUS
10
-0.505225
20
-0.200879
11
-0.505624
21
-0.201214
0
LINE
8
BLACK
6
CONTINUOUS
10
-0.505624
20
-0.201214
11
-0.50664
21
-0.201393
0
LINE
8
BLACK
6
CONTINUOUS
10
-0.50664
20
-0.201393
11
-0.507609
21
-0.201746
0
LINE
8
BLACK
6
CONTINUOUS
10
-0.507609
20
-0.201746
11
-0.508121
21
-0.201655
0
LINE
8
BLACK
6
CONTINUOUS
10
-0.508121
20
-0.201655
11
-0.508634
21
-0.201746
0
LINE
8
BLACK
6
CONTINUOUS
10
-0.508634
20
-0.201746
11
-0.509604
21
-0.201393
0
LINE
8
BLACK
6
CONTINUOUS
10
-0.509604
20
-0.201393
11
-0.510619
21
-0.201214
0
LINE
8
BLACK
6
CONTINUOUS
10
-0.510619
20
-0.201214
11
-0.511018
21
-0.200879
0
LINE
8
BLACK
6
CONTINUOUS
10
-0.511018
20
-0.200879
11
-0.511507
21
-0.200701
0
LINE
8
BLACK
6
CONTINUOUS
10
-0.511507
20
-0.200701
11
-0.51217
21
-0.199911
0
LINE
8
BLACK
6
CONTINUOUS
10
-0.51217
20
-0.199911
11
-0.51296
21
-0.199248
0
LINE
8
BLACK
6
CONTINUOUS
10
-0.51296
20
-0.199248
11
-0.513138
21
-0.198759
0
LINE
8
BLACK
6
CONTINUOUS
10
-0.513138
20
-0.198759
11
-0.513473
21
-0.19836
0
LINE
8
BLACK
6
CONTINUOUS
10
-0.513473
20
-0.19836
11
-0.521901
21
-0.1803
0
LINE
8
BLACK
6
CONTINUOUS
10
-0.521901
20
-0.1803
11
-0.521901
21
-0.212735
0
LINE
8
BLACK
6
CONTINUOUS
10
-0.521901
20
-0.212735
11
-0.522692
21
-0.215688
0
LINE
8
BLACK
6
CONTINUOUS
10
-0.522692
20
-0.215688
11
-0.524854
21
-0.21785
0
LINE
8
BLACK
6
CONTINUOUS
10
-0.524854
20
-0.21785
11
-0.527807
21
-0.218641
0
LINE
8
BLACK
6
CONTINUOUS
10
-0.527807
20
-0.218641
11
-0.530759
21
-0.21785
0
LINE
8
BLACK
6
CONTINUOUS
10
-0.530759
20
-0.21785
11
-0.532921
21
-0.215688
0
LINE
8
BLACK
6
CONTINUOUS
10
-0.532921
20
-0.215688
11
-0.533712
21
-0.212735
0
LINE
8
BLACK
6
CONTINUOUS
10
-0.533712
20
-0.212735
11
-0.533712
21
-0.15368
0
LINE
8
BLACK
6
CONTINUOUS
10
-0.533712
20
-0.15368
11
-0.533644
21
-0.153426
0
LINE
8
BLACK
6
CONTINUOUS
10
-0.533644
20
-0.153426
11
-0.53369
21
-0.153167
0
LINE
8
BLACK
6
CONTINUOUS
10
-0.53369
20
-0.153167
11
-0.533252
21
-0.151964
0
LINE
8
BLACK
6
CONTINUOUS
10
-0.533252
20
-0.151964
11
-0.532921
21
-0.150727
0
LINE
8
BLACK
6
CONTINUOUS
10
-0.532921
20
-0.150727
11
-0.532735
21
-0.150541
0
LINE
8
BLACK
6
CONTINUOUS
10
-0.532735
20
-0.150541
11
-0.532645
21
-0.150294
0
LINE
8
BLACK
6
CONTINUOUS
10
-0.532645
20
-0.150294
11
-0.531665
21
-0.149471
0
LINE
8
BLACK
6
CONTINUOUS
10
-0.531665
20
-0.149471
11
-0.530759
21
-0.148566
0
LINE
8
BLACK
6
CONTINUOUS
10
-0.530759
20
-0.148566
11
-0.530505
21
-0.148498
0
LINE
8
BLACK
6
CONTINUOUS
10
-0.530505
20
-0.148498
11
-0.530304
21
-0.148329
0
LINE
8
BLACK
6
CONTINUOUS
10
-0.530304
20
-0.148329
11
-0.529043
21
-0.148106
0
LINE
8
BLACK
6
CONTINUOUS
10
-0.529043
20
-0.148106
11
-0.527807
21
-0.147775
0
LINE
8
BLACK
6
CONTINUOUS
10
-0.527807
20
-0.147775
11
-0.527553
21
-0.147843
0
LINE
8
BLACK
6
CONTINUOUS
10
-0.527553
20
-0.147843
11
-0.527294
21
-0.147797
0
LINE
8
BLACK
6
CONTINUOUS
10
-0.527294
20
-0.147797
11
-0.526091
21
-0.148234
0
LINE
8
BLACK
6
CONTINUOUS
10
-0.526091
20
-0.148234
11
-0.524854
21
-0.148566
0
LINE
8
BLACK
6
CONTINUOUS
10
-0.524854
20
-0.148566
11
-0.524668
21
-0.148752
0
LINE
8
BLACK
6
CONTINUOUS
10
-0.524668
20
-0.148752
11
-0.524421
21
-0.148842
0
LINE
8
BLACK
6
CONTINUOUS
10
-0.524421
20
-0.148842
11
-0.523598
21
-0.149822
0
LINE
8
BLACK
6
CONTINUOUS
10
-0.523598
20
-0.149822
11
-0.522692
21
-0.150727
0
LINE
8
BLACK
6
CONTINUOUS
10
-0.522692
20
-0.150727
11
-0.522624
21
-0.150981
0
LINE
8
BLACK
6
CONTINUOUS
10
-0.522624
20
-0.150981
11
-0.522455
21
-0.151183
0
LINE
8
BLACK
6
CONTINUOUS
10
-0.522455
20
-0.151183
11
-0.508121
21
-0.181898
0
LINE
8
BLACK
6
CONTINUOUS
10
-0.508121
20
-0.181898
11
-0.493788
21
-0.151183
0
LINE
8
BLACK
6
CONTINUOUS
10
-0.493788
20
-0.151183
11
-0.493619
21
-0.150981
0
LINE
8
BLACK
6
CONTINUOUS
10
-0.493619
20
-0.150981
11
-0.493551
21
-0.150727
0
LINE
8
BLACK
6
CONTINUOUS
10
-0.493551
20
-0.150727
11
-0.492646
21
-0.149822
0
LINE
8
BLACK
6
CONTINUOUS
10
-0.492646
20
-0.149822
11
-0.491822
21
-0.148842
0
LINE
8
BLACK
6
CONTINUOUS
10
-0.491822
20
-0.148842
11
-0.491575
21
-0.148752
0
LINE
8
BLACK
6
CONTINUOUS
10
-0.491575
20
-0.148752
11
-0.491389
21
-0.148566
0
LINE
8
BLACK
6
CONTINUOUS
10
-0.491389
20
-0.148566
11
-0.490153
21
-0.148235
0
LINE
8
BLACK
6
CONTINUOUS
10
-0.490153
20
-0.148235
11
-0.488949
21
-0.147797
0
LINE
8
BLACK
6
CONTINUOUS
10
-0.488949
20
-0.147797
11
-0.48869
21
-0.147843
0
LINE
8
BLACK
6
CONTINUOUS
10
-0.48869
20
-0.147843
11
-0.488436
21
-0.147775
0
LINE
8
BLACK
6
CONTINUOUS
10
-0.488436
20
-0.147775
11
-0.4872
21
-0.148106
0
LINE
8
BLACK
6
CONTINUOUS
10
-0.665461
20
-0.148566
11
-0.6633
21
-0.150727
0
LINE
8
BLACK
6
CONTINUOUS
10
-0.6633
20
-0.150727
11
-0.662508
21
-0.15368
0
LINE
8
BLACK
6
CONTINUOUS
10
-0.662508
20
-0.15368
11
-0.6633
21
-0.156633
0
LINE
8
BLACK
6
CONTINUOUS
10
-0.6633
20
-0.156633
11
-0.665461
21
-0.158794
0
LINE
8
BLACK
6
CONTINUOUS
10
-0.665461
20
-0.158794
11
-0.668414
21
-0.159586
0
LINE
8
BLACK
6
CONTINUOUS
10
-0.668414
20
-0.159586
11
-0.69063
21
-0.159586
0
LINE
8
BLACK
6
CONTINUOUS
10
-0.69063
20
-0.159586
11
-0.69063
21
-0.175896
0
LINE
8
BLACK
6
CONTINUOUS
10
-0.69063
20
-0.175896
11
-0.67685
21
-0.175896
0
LINE
8
BLACK
6
CONTINUOUS
10
-0.67685
20
-0.175896
11
-0.673898
21
-0.176687
0
LINE
8
BLACK
6
CONTINUOUS
10
-0.673898
20
-0.176687
11
-0.671736
21
-0.178849
0
LINE
8
BLACK
6
CONTINUOUS
10
-0.671736
20
-0.178849
11
-0.670945
21
-0.181802
0
LINE
8
BLACK
6
CONTINUOUS
10
-0.670945
20
-0.181802
11
-0.671736
21
-0.184754
0
LINE
8
BLACK
6
CONTINUOUS
10
-0.671736
20
-0.184754
11
-0.673898
21
-0.186916
0
LINE
8
BLACK
6
CONTINUOUS
10
-0.673898
20
-0.186916
11
-0.67685
21
-0.187707
0
LINE
8
BLACK
6
CONTINUOUS
10
-0.67685
20
-0.187707
11
-0.69063
21
-0.187707
0
LINE
8
BLACK
6
CONTINUOUS
10
-0.69063
20
-0.187707
11
-0.69063
21
-0.212735
0
LINE
8
BLACK
6
CONTINUOUS
10
-0.69063
20
-0.212735
11
-0.691421
21
-0.215688
0
LINE
8
BLACK
6
CONTINUOUS
10
-0.691421
20
-0.215688
11
-0.693583
21
-0.21785
0
LINE
8
BLACK
6
CONTINUOUS
10
-0.693583
20
-0.21785
11
-0.696535
21
-0.218641
0
LINE
8
BLACK
6
CONTINUOUS
10
-0.696535
20
-0.218641
11
-0.699488
21
-0.21785
0
LINE
8
BLACK
6
CONTINUOUS
10
-0.699488
20
-0.21785
11
-0.70165
21
-0.215688
0
LINE
8
BLACK
6
CONTINUOUS
10
-0.70165
20
-0.215688
11
-0.702441
21
-0.212735
0
LINE
8
BLACK
6
CONTINUOUS
10
-0.702441
20
-0.212735
11
-0.702441
21
-0.15368
0
LINE
8
BLACK
6
CONTINUOUS
10
-0.702441
20
-0.15368
11
-0.70165
21
-0.150727
0
LINE
8
BLACK
6
CONTINUOUS
10
-0.70165
20
-0.150727
11
-0.699488
21
-0.148566
0
LINE
8
BLACK
6
CONTINUOUS
10
-0.699488
20
-0.148566
11
-0.696535
21
-0.147775
0
LINE
8
BLACK
6
CONTINUOUS
10
-0.696535
20
-0.147775
11
-0.668414
21
-0.147775
0
LINE
8
BLACK
6
CONTINUOUS
10
-0.668414
20
-0.147775
11
-0.665461
21
-0.148566
0
LINE
8
BLACK
6
CONTINUOUS
10
-0.563053
20
-0.148126
11
-0.561723
21
-0.148398
0
LINE
8
BLACK
6
CONTINUOUS
10
-0.561723
20
-0.148398
11
-0.556099
21
-0.15121
0
LINE
8
BLACK
6
CONTINUOUS
10
-0.556099
20
-0.15121
11
-0.555388
21
-0.151841
0
LINE
8
BLACK
6
CONTINUOUS
10
-0.555388
20
-0.151841
11
-0.554564
21
-0.152316
0
LINE
8
BLACK
6
CONTINUOUS
10
-0.554564
20
-0.152316
11
-0.551752
21
-0.155129
0
LINE
8
BLACK
6
CONTINUOUS
10
-0.551752
20
-0.155129
11
-0.551277
21
-0.155952
0
LINE
8
BLACK
6
CONTINUOUS
10
-0.551277
20
-0.155952
11
-0.550646
21
-0.156663
0
LINE
8
BLACK
6
CONTINUOUS
10
-0.550646
20
-0.156663
11
-0.547834
21
-0.162288
0
LINE
8
BLACK
6
CONTINUOUS
10
-0.547834
20
-0.162288
11
-0.547562
21
-0.163618
0
LINE
8
BLACK
6
CONTINUOUS
10
-0.547562
20
-0.163618
11
-0.54721
21
-0.164929
0
LINE
8
BLACK
6
CONTINUOUS
10
-0.54721
20
-0.164929
11
-0.54721
21
-0.173365
0
LINE
8
BLACK
6
CONTINUOUS
10
-0.54721
20
-0.173365
11
-0.547562
21
-0.174676
0
LINE
8
BLACK
6
CONTINUOUS
10
-0.547562
20
-0.174676
11
-0.547834
21
-0.176006
0
LINE
8
BLACK
6
CONTINUOUS
10
-0.547834
20
-0.176006
11
-0.550646
21
-0.18163
0
LINE
8
BLACK
6
CONTINUOUS
10
-0.550646
20
-0.18163
11
-0.551277
21
-0.182342
0
LINE
8
BLACK
6
CONTINUOUS
10
-0.551277
20
-0.182342
11
-0.551752
21
-0.183165
0
LINE
8
BLACK
6
CONTINUOUS
10
-0.551752
20
-0.183165
11
-0.554564
21
-0.185977
0
LINE
8
BLACK
6
CONTINUOUS
10
-0.554564
20
-0.185977
11
-0.555388
21
-0.186453
0
LINE
8
BLACK
6
CONTINUOUS
10
-0.555388
20
-0.186453
11
-0.556099
21
-0.187084
0
LINE
8
BLACK
6
CONTINUOUS
10
-0.556099
20
-0.187084
11
-0.561724
21
-0.189896
0
LINE
8
BLACK
6
CONTINUOUS
10
-0.561724
20
-0.189896
11
-0.563053
21
-0.190168
0
LINE
8
BLACK
6
CONTINUOUS
10
-0.563053
20
-0.190168
11
-0.564364
21
-0.190519
0
LINE
8
BLACK
6
CONTINUOUS
10
-0.564364
20
-0.190519
11
-0.580956
21
-0.190519
0
LINE
8
BLACK
6
CONTINUOUS
10
-0.580956
20
-0.190519
11
-0.580956
21
-0.212735
0
LINE
8
BLACK
6
CONTINUOUS
10
-0.580956
20
-0.212735
11
-0.581747
21
-0.215688
0
LINE
8
BLACK
6
CONTINUOUS
10
-0.581747
20
-0.215688
11
-0.583909
21
-0.21785
0
LINE
8
BLACK
6
CONTINUOUS
10
-0.583909
20
-0.21785
11
-0.586862
21
-0.218641
0
LINE
8
BLACK
6
CONTINUOUS
10
-0.586862
20
-0.218641
11
-0.589814
21
-0.21785
0
LINE
8
BLACK
6
CONTINUOUS
10
-0.589814
20
-0.21785
11
-0.591976
21
-0.215688
0
LINE
8
BLACK
6
CONTINUOUS
10
-0.591976
20
-0.215688
11
-0.592767
21
-0.212735
0
LINE
8
BLACK
6
CONTINUOUS
10
-0.592767
20
-0.212735
11
-0.592767
21
-0.15368
0
LINE
8
BLACK
6
CONTINUOUS
10
-0.592767
20
-0.15368
11
-0.591976
21
-0.150727
0
LINE
8
BLACK
6
CONTINUOUS
10
-0.591976
20
-0.150727
11
-0.589814
21
-0.148566
0
LINE
8
BLACK
6
CONTINUOUS
10
-0.589814
20
-0.148566
11
-0.586862
21
-0.147775
0
LINE
8
BLACK
6
CONTINUOUS
10
-0.586862
20
-0.147775
11
-0.564364
21
-0.147775
0
LINE
8
BLACK
6
CONTINUOUS
10
-0.564364
20
-0.147775
11
-0.563053
21
-0.148126
0
LINE
8
BLACK
6
CONTINUOUS
10
-0.580956
20
-0.159586
11
-0.580956
21
-0.178708
0
LINE
8
BLACK
6
CONTINUOUS
10
-0.580956
20
-0.178708
11
-0.565759
21
-0.178708
0
LINE
8
BLACK
6
CONTINUOUS
10
-0.565759
20
-0.178708
11
-0.562238
21
-0.176948
0
LINE
8
BLACK
6
CONTINUOUS
10
-0.562238
20
-0.176948
11
-0.560781
21
-0.175491
0
LINE
8
BLACK
6
CONTINUOUS
10
-0.560781
20
-0.175491
11
-0.559021
21
-0.171971
0
LINE
8
BLACK
6
CONTINUOUS
10
-0.559021
20
-0.171971
11
-0.559021
21
-0.166323
0
LINE
8
BLACK
6
CONTINUOUS
10
-0.559021
20
-0.166323
11
-0.560781
21
-0.162803
0
LINE
8
BLACK
6
CONTINUOUS
10
-0.560781
20
-0.162803
11
-0.562238
21
-0.161346
0
LINE
8
BLACK
6
CONTINUOUS
10
-0.562238
20
-0.161346
11
-0.565759
21
-0.159586
0
LINE
8
BLACK
6
CONTINUOUS
10
-0.565759
20
-0.159586
11
-0.580956
21
-0.159586
0
LINE
8
BLACK
6
CONTINUOUS
10
-0.409837
20
-0.21785
11
-0.411999
21
-0.215688
0
LINE
8
BLACK
6
CONTINUOUS
10
-0.411999
20
-0.215688
11
-0.41279
21
-0.212735
0
LINE
8
BLACK
6
CONTINUOUS
10
-0.41279
20
-0.212735
11
-0.411999
21
-0.209782
0
LINE
8
BLACK
6
CONTINUOUS
10
-0.411999
20
-0.209782
11
-0.409837
21
-0.207621
0
LINE
8
BLACK
6
CONTINUOUS
10
-0.409837
20
-0.207621
11
-0.406884
21
-0.20683
0
LINE
8
BLACK
6
CONTINUOUS
10
-0.406884
20
-0.20683
11
-0.395917
21
-0.20683
0
LINE
8
BLACK
6
CONTINUOUS
10
-0.395917
20
-0.20683
11
-0.395917
21
-0.170749
0
LINE
8
BLACK
6
CONTINUOUS
10
-0.395917
20
-0.170749
11
-0.397084
21
-0.171917
0
LINE
8
BLACK
6
CONTINUOUS
10
-0.397084
20
-0.171917
11
-0.397907
21
-0.172392
0
LINE
8
BLACK
6
CONTINUOUS
10
-0.397907
20
-0.172392
11
-0.398619
21
-0.173023
0
LINE
8
BLACK
6
CONTINUOUS
10
-0.398619
20
-0.173023
11
-0.404243
21
-0.175835
0
LINE
8
BLACK
6
CONTINUOUS
10
-0.404243
20
-0.175835
11
-0.407238
21
-0.176448
0
LINE
8
BLACK
6
CONTINUOUS
10
-0.407238
20
-0.176448
11
-0.410138
21
-0.175481
0
LINE
8
BLACK
6
CONTINUOUS
10
-0.410138
20
-0.175481
11
-0.412166
21
-0.173194
0
LINE
8
BLACK
6
CONTINUOUS
10
-0.412166
20
-0.173194
11
-0.412779
21
-0.170199
0
LINE
8
BLACK
6
CONTINUOUS
10
-0.412779
20
-0.170199
11
-0.411812
21
-0.167299
0
LINE
8
BLACK
6
CONTINUOUS
10
-0.411812
20
-0.167299
11
-0.409525
21
-0.165271
0
LINE
8
BLACK
6
CONTINUOUS
10
-0.409525
20
-0.165271
11
-0.404758
21
-0.162887
0
LINE
8
BLACK
6
CONTINUOUS
10
-0.404758
20
-0.162887
11
-0.400225
21
-0.158354
0
LINE
8
BLACK
6
CONTINUOUS
10
-0.400225
20
-0.158354
11
-0.394925
21
-0.150404
0
LINE
8
BLACK
6
CONTINUOUS
10
-0.394925
20
-0.150404
11
-0.393915
21
-0.149517
0
LINE
8
BLACK
6
CONTINUOUS
10
-0.393915
20
-0.149517
11
-0.392964
21
-0.148566
0
LINE
8
BLACK
6
CONTINUOUS
10
-0.392964
20
-0.148566
11
-0.392775
21
-0.148515
0
LINE
8
BLACK
6
CONTINUOUS
10
-0.392775
20
-0.148515
11
-0.392629
21
-0.148386
0
LINE
8
BLACK
6
CONTINUOUS
10
-0.392629
20
-0.148386
11
-0.39131
21
-0.148123
0
LINE
8
BLACK
6
CONTINUOUS
10
-0.39131
20
-0.148123
11
-0.390011
21
-0.147775
0
LINE
8
BLACK
6
CONTINUOUS
10
-0.390011
20
-0.147775
11
-0.389823
21
-0.147825
0
LINE
8
BLACK
6
CONTINUOUS
10
-0.389823
20
-0.147825
11
-0.389631
21
-0.147787
0
LINE
8
BLACK
6
CONTINUOUS
10
-0.389631
20
-0.147787
11
-0.388357
21
-0.148218
0
LINE
8
BLACK
6
CONTINUOUS
10
-0.388357
20
-0.148218
11
-0.387059
21
-0.148566
0
LINE
8
BLACK
6
CONTINUOUS
10
-0.387059
20
-0.148566
11
-0.38692
21
-0.148704
0
LINE
8
BLACK
6
CONTINUOUS
10
-0.38692
20
-0.148704
11
-0.386735
21
-0.148766
0
LINE
8
BLACK
6
CONTINUOUS
10
-0.386735
20
-0.148766
11
-0.385848
21
-0.149777
0
LINE
8
BLACK
6
CONTINUOUS
10
-0.385848
20
-0.149777
11
-0.384897
21
-0.150727
0
LINE
8
BLACK
6
CONTINUOUS
10
-0.384897
20
-0.150727
11
-0.384846
21
-0.150916
0
LINE
8
BLACK
6
CONTINUOUS
10
-0.384846
20
-0.150916
11
-0.384717
21
-0.151063
0
LINE
8
BLACK
6
CONTINUOUS
10
-0.384717
20
-0.151063
11
-0.384454
21
-0.152381
0
LINE
8
BLACK
6
CONTINUOUS
10
-0.384454
20
-0.152381
11
-0.384106
21
-0.15368
0
LINE
8
BLACK
6
CONTINUOUS
10
-0.384106
20
-0.15368
11
-0.384106
21
-0.20683
0
LINE
8
BLACK
6
CONTINUOUS
10
-0.384106
20
-0.20683
11
-0.373138
21
-0.20683
0
LINE
8
BLACK
6
CONTINUOUS
10
-0.373138
20
-0.20683
11
-0.370186
21
-0.207621
0
LINE
8
BLACK
6
CONTINUOUS
10
-0.370186
20
-0.207621
11
-0.368024
21
-0.209782
0
LINE
8
BLACK
6
CONTINUOUS
10
-0.368024
20
-0.209782
11
-0.367233
21
-0.212735
0
LINE
8
BLACK
6
CONTINUOUS
10
-0.367233
20
-0.212735
11
-0.368024
21
-0.215688
0
LINE
8
BLACK
6
CONTINUOUS
10
-0.368024
20
-0.215688
11
-0.370186
21
-0.21785
0
LINE
8
BLACK
6
CONTINUOUS
10
-0.370186
20
-0.21785
11
-0.373138
21
-0.218641
0
LINE
8
BLACK
6
CONTINUOUS
10
-0.373138
20
-0.218641
11
-0.406884
21
-0.218641
0
LINE
8
BLACK
6
CONTINUOUS
10
-0.406884
20
-0.218641
11
-0.409837
21
-0.21785
0
LINE
8
BLACK
6
CONTINUOUS
10
-0.442131
20
-0.148126
11
-0.440801
21
-0.148398
0
LINE
8
BLACK
6
CONTINUOUS
10
-0.440801
20
-0.148398
11
-0.435177
21
-0.15121
0
LINE
8
BLACK
6
CONTINUOUS
10
-0.435177
20
-0.15121
11
-0.434465
21
-0.151841
0
LINE
8
BLACK
6
CONTINUOUS
10
-0.434465
20
-0.151841
11
-0.433642
21
-0.152316
0
LINE
8
BLACK
6
CONTINUOUS
10
-0.433642
20
-0.152316
11
-0.43083
21
-0.155129
0
LINE
8
BLACK
6
CONTINUOUS
10
-0.43083
20
-0.155129
11
-0.430354
21
-0.155952
0
LINE
8
BLACK
6
CONTINUOUS
10
-0.430354
20
-0.155952
11
-0.429724
21
-0.156663
0
LINE
8
BLACK
6
CONTINUOUS
10
-0.429724
20
-0.156663
11
-0.426911
21
-0.162288
0
LINE
8
BLACK
6
CONTINUOUS
10
-0.426911
20
-0.162288
11
-0.426781
21
-0.162926
0
LINE
8
BLACK
6
CONTINUOUS
10
-0.426781
20
-0.162926
11
-0.426464
21
-0.163496
0
LINE
8
BLACK
6
CONTINUOUS
10
-0.426464
20
-0.163496
11
-0.423652
21
-0.174745
0
LINE
8
BLACK
6
CONTINUOUS
10
-0.423652
20
-0.174745
11
-0.423664
21
-0.175474
0
LINE
8
BLACK
6
CONTINUOUS
10
-0.423664
20
-0.175474
11
-0.423476
21
-0.176177
0
LINE
8
BLACK
6
CONTINUOUS
10
-0.423476
20
-0.176177
11
-0.423476
21
-0.190238
0
LINE
8
BLACK
6
CONTINUOUS
10
-0.423476
20
-0.190238
11
-0.423664
21
-0.190942
0
LINE
8
BLACK
6
CONTINUOUS
10
-0.423664
20
-0.190942
11
-0.423652
21
-0.19167
0
LINE
8
BLACK
6
CONTINUOUS
10
-0.423652
20
-0.19167
11
-0.426464
21
-0.202919
0
LINE
8
BLACK
6
CONTINUOUS
10
-0.426464
20
-0.202919
11
-0.426781
21
-0.203489
0
LINE
8
BLACK
6
CONTINUOUS
10
-0.426781
20
-0.203489
11
-0.426911
21
-0.204128
0
LINE
8
BLACK
6
CONTINUOUS
10
-0.426911
20
-0.204128
11
-0.429724
21
-0.209752
0
LINE
8
BLACK
6
CONTINUOUS
10
-0.429724
20
-0.209752
11
-0.430354
21
-0.210463
0
LINE
8
BLACK
6
CONTINUOUS
10
-0.430354
20
-0.210463
11
-0.43083
21
-0.211287
0
LINE
8
BLACK
6
CONTINUOUS
10
-0.43083
20
-0.211287
11
-0.433642
21
-0.214099
0
LINE
8
BLACK
6
CONTINUOUS
10
-0.433642
20
-0.214099
11
-0.434465
21
-0.214574
0
LINE
8
BLACK
6
CONTINUOUS
10
-0.434465
20
-0.214574
11
-0.435177
21
-0.215205
0
LINE
8
BLACK
6
CONTINUOUS
10
-0.435177
20
-0.215205
11
-0.440801
21
-0.218017
0
LINE
8
BLACK
6
CONTINUOUS
10
-0.440801
20
-0.218017
11
-0.442131
21
-0.218289
0
LINE
8
BLACK
6
CONTINUOUS
10
-0.442131
20
-0.218289
11
-0.443442
21
-0.218641
0
LINE
8
BLACK
6
CONTINUOUS
10
-0.443442
20
-0.218641
11
-0.449066
21
-0.218641
0
LINE
8
BLACK
6
CONTINUOUS
10
-0.449066
20
-0.218641
11
-0.450377
21
-0.218289
0
LINE
8
BLACK
6
CONTINUOUS
10
-0.450377
20
-0.218289
11
-0.451707
21
-0.218017
0
LINE
8
BLACK
6
CONTINUOUS
10
-0.451707
20
-0.218017
11
-0.457332
21
-0.215205
0
LINE
8
BLACK
6
CONTINUOUS
10
-0.457332
20
-0.215205
11
-0.458043
21
-0.214574
0
LINE
8
BLACK
6
CONTINUOUS
10
-0.458043
20
-0.214574
11
-0.458866
21
-0.214099
0
LINE
8
BLACK
6
CONTINUOUS
10
-0.458866
20
-0.214099
11
-0.461679
21
-0.211287
0
LINE
8
BLACK
6
CONTINUOUS
10
-0.461679
20
-0.211287
11
-0.462154
21
-0.210463
0
LINE
8
BLACK
6
CONTINUOUS
10
-0.462154
20
-0.210463
11
-0.462785
21
-0.209752
0
LINE
8
BLACK
6
CONTINUOUS
10
-0.462785
20
-0.209752
11
-0.465597
21
-0.204128
0
LINE
8
BLACK
6
CONTINUOUS
10
-0.465597
20
-0.204128
11
-0.465728
21
-0.203489
0
LINE
8
BLACK
6
CONTINUOUS
10
-0.465728
20
-0.203489
11
-0.466044
21
-0.202919
0
LINE
8
BLACK
6
CONTINUOUS
10
-0.466044
20
-0.202919
11
-0.468856
21
-0.19167
0
LINE
8
BLACK
6
CONTINUOUS
10
-0.468856
20
-0.19167
11
-0.468844
21
-0.190942
0
LINE
8
BLACK
6
CONTINUOUS
10
-0.468844
20
-0.190942
11
-0.469033
21
-0.190238
0
LINE
8
BLACK
6
CONTINUOUS
10
-0.469033
20
-0.190238
11
-0.469033
21
-0.176177
0
LINE
8
BLACK
6
CONTINUOUS
10
-0.469033
20
-0.176177
11
-0.468844
21
-0.175474
0
LINE
8
BLACK
6
CONTINUOUS
10
-0.468844
20
-0.175474
11
-0.468856
21
-0.174745
0
LINE
8
BLACK
6
CONTINUOUS
10
-0.468856
20
-0.174745
11
-0.466044
21
-0.163496
0
LINE
8
BLACK
6
CONTINUOUS
10
-0.466044
20
-0.163496
11
-0.465728
21
-0.162926
0
LINE
8
BLACK
6
CONTINUOUS
10
-0.465728
20
-0.162926
11
-0.465597
21
-0.162288
0
LINE
8
BLACK
6
CONTINUOUS
10
-0.465597
20
-0.162288
11
-0.462785
21
-0.156663
0
LINE
8
BLACK
6
CONTINUOUS
10
-0.462785
20
-0.156663
11
-0.462154
21
-0.155952
0
LINE
8
BLACK
6
CONTINUOUS
10
-0.462154
20
-0.155952
11
-0.461679
21
-0.155129
0
LINE
8
BLACK
6
CONTINUOUS
10
-0.461679
20
-0.155129
11
-0.458866
21
-0.152316
0
LINE
8
BLACK
6
CONTINUOUS
10
-0.458866
20
-0.152316
11
-0.458043
21
-0.151841
0
LINE
8
BLACK
6
CONTINUOUS
10
-0.458043
20
-0.151841
11
-0.457332
21
-0.15121
0
LINE
8
BLACK
6
CONTINUOUS
10
-0.457332
20
-0.15121
11
-0.451707
21
-0.148398
0
LINE
8
BLACK
6
CONTINUOUS
10
-0.451707
20
-0.148398
11
-0.450377
21
-0.148126
0
LINE
8
BLACK
6
CONTINUOUS
10
-0.450377
20
-0.148126
11
-0.449066
21
-0.147775
0
LINE
8
BLACK
6
CONTINUOUS
10
-0.449066
20
-0.147775
11
-0.443442
21
-0.147775
0
LINE
8
BLACK
6
CONTINUOUS
10
-0.443442
20
-0.147775
11
-0.442131
21
-0.148126
0
LINE
8
BLACK
6
CONTINUOUS
10
-0.447672
20
-0.159586
11
-0.451192
21
-0.161346
0
LINE
8
BLACK
6
CONTINUOUS
10
-0.451192
20
-0.161346
11
-0.452649
21
-0.162803
0
LINE
8
BLACK
6
CONTINUOUS
10
-0.452649
20
-0.162803
11
-0.454743
21
-0.16699
0
LINE
8
BLACK
6
CONTINUOUS
10
-0.454743
20
-0.16699
11
-0.457222
21
-0.176904
0
LINE
8
BLACK
6
CONTINUOUS
10
-0.457222
20
-0.176904
11
-0.457222
21
-0.189511
0
LINE
8
BLACK
6
CONTINUOUS
10
-0.457222
20
-0.189511
11
-0.454743
21
-0.199425
0
LINE
8
BLACK
6
CONTINUOUS
10
-0.454743
20
-0.199425
11
-0.452649
21
-0.203613
0
LINE
8
BLACK
6
CONTINUOUS
10
-0.452649
20
-0.203613
11
-0.451192
21
-0.20507
0
LINE
8
BLACK
6
CONTINUOUS
10
-0.451192
20
-0.20507
11
-0.447672
21
-0.20683
0
LINE
8
BLACK
6
CONTINUOUS
10
-0.447672
20
-0.20683
11
-0.444836
21
-0.20683
0
LINE
8
BLACK
6
CONTINUOUS
10
-0.444836
20
-0.20683
11
-0.441316
21
-0.20507
0
LINE
8
BLACK
6
CONTINUOUS
10
-0.441316
20
-0.20507
11
-0.439859
21
-0.203613
0
LINE
8
BLACK
6
CONTINUOUS
10
-0.439859
20
-0.203613
11
-0.437765
21
-0.199425
0
LINE
8
BLACK
6
CONTINUOUS
10
-0.437765
20
-0.199425
11
-0.435287
21
-0.189511
0
LINE
8
BLACK
6
CONTINUOUS
10
-0.435287
20
-0.189511
11
-0.435287
21
-0.176904
0
LINE
8
BLACK
6
CONTINUOUS
10
-0.435287
20
-0.176904
11
-0.437765
21
-0.16699
0
LINE
8
BLACK
6
CONTINUOUS
10
-0.437765
20
-0.16699
11
-0.439859
21
-0.162803
0
LINE
8
BLACK
6
CONTINUOUS
10
-0.439859
20
-0.162803
11
-0.441316
21
-0.161346
0
LINE
8
BLACK
6
CONTINUOUS
10
-0.441316
20
-0.161346
11
-0.444836
21
-0.159586
0
LINE
8
BLACK
6
CONTINUOUS
10
-0.444836
20
-0.159586
11
-0.447672
21
-0.159586
0
LINE
8
BLACK
6
CONTINUOUS
10
-0.622109
20
-0.148126
11
-0.620779
21
-0.148398
0
LINE
8
BLACK
6
CONTINUOUS
10
-0.620779
20
-0.148398
11
-0.615154
21
-0.15121
0
LINE
8
BLACK
6
CONTINUOUS
10
-0.615154
20
-0.15121
11
-0.614443
21
-0.151841
0
LINE
8
BLACK
6
CONTINUOUS
10
-0.614443
20
-0.151841
11
-0.613619
21
-0.152316
0
LINE
8
BLACK
6
CONTINUOUS
10
-0.613619
20
-0.152316
11
-0.610807
21
-0.155129
0
LINE
8
BLACK
6
CONTINUOUS
10
-0.610807
20
-0.155129
11
-0.610332
21
-0.155952
0
LINE
8
BLACK
6
CONTINUOUS
10
-0.610332
20
-0.155952
11
-0.609701
21
-0.156663
0
LINE
8
BLACK
6
CONTINUOUS
10
-0.609701
20
-0.156663
11
-0.606889
21
-0.162288
0
LINE
8
BLACK
6
CONTINUOUS
10
-0.606889
20
-0.162288
11
-0.606617
21
-0.163618
0
LINE
8
BLACK
6
CONTINUOUS
10
-0.606617
20
-0.163618
11
-0.606265
21
-0.164929
0
LINE
8
BLACK
6
CONTINUOUS
10
-0.606265
20
-0.164929
11
-0.606265
21
-0.173365
0
LINE
8
BLACK
6
CONTINUOUS
10
-0.606265
20
-0.173365
11
-0.606617
21
-0.174676
0
LINE
8
BLACK
6
CONTINUOUS
10
-0.606617
20
-0.174676
11
-0.606889
21
-0.176006
0
LINE
8
BLACK
6
CONTINUOUS
10
-0.606889
20
-0.176006
11
-0.609701
21
-0.18163
0
LINE
8
BLACK
6
CONTINUOUS
10
-0.609701
20
-0.18163
11
-0.610332
21
-0.182342
0
LINE
8
BLACK
6
CONTINUOUS
10
-0.610332
20
-0.182342
11
-0.610807
21
-0.183165
0
LINE
8
BLACK
6
CONTINUOUS
10
-0.610807
20
-0.183165
11
-0.613619
21
-0.185977
0
LINE
8
BLACK
6
CONTINUOUS
10
-0.613619
20
-0.185977
11
-0.614443
21
-0.186453
0
LINE
8
BLACK
6
CONTINUOUS
10
-0.614443
20
-0.186453
11
-0.615154
21
-0.187084
0
LINE
8
BLACK
6
CONTINUOUS
10
-0.615154
20
-0.187084
11
-0.620779
21
-0.189896
0
LINE
8
BLACK
6
CONTINUOUS
10
-0.620779
20
-0.189896
11
-0.620929
21
-0.189926
0
LINE
8
BLACK
6
CONTINUOUS
10
-0.620929
20
-0.189926
11
-0.607333
21
-0.209349
0
LINE
8
BLACK
6
CONTINUOUS
10
-0.607333
20
-0.209349
11
-0.606288
21
-0.212221
0
LINE
8
BLACK
6
CONTINUOUS
10
-0.606288
20
-0.212221
11
-0.606819
21
-0.215232
0
LINE
8
BLACK
6
CONTINUOUS
10
-0.606819
20
-0.215232
11
-0.608784
21
-0.217573
0
LINE
8
BLACK
6
CONTINUOUS
10
-0.608784
20
-0.217573
11
-0.611657
21
-0.218618
0
LINE
8
BLACK
6
CONTINUOUS
10
-0.611657
20
-0.218618
11
-0.614668
21
-0.218087
0
LINE
8
BLACK
6
CONTINUOUS
10
-0.614668
20
-0.218087
11
-0.617009
21
-0.216122
0
LINE
8
BLACK
6
CONTINUOUS
10
-0.617009
20
-0.216122
11
-0.634931
21
-0.190519
0
LINE
8
BLACK
6
CONTINUOUS
10
-0.634931
20
-0.190519
11
-0.640011
21
-0.190519
0
LINE
8
BLACK
6
CONTINUOUS
10
-0.640011
20
-0.190519
11
-0.640011
21
-0.212735
0
LINE
8
BLACK
6
CONTINUOUS
10
-0.640011
20
-0.212735
11
-0.640802
21
-0.215688
0
LINE
8
BLACK
6
CONTINUOUS
10
-0.640802
20
-0.215688
11
-0.642964
21
-0.21785
0
LINE
8
BLACK
6
CONTINUOUS
10
-0.642964
20
-0.21785
11
-0.645917
21
-0.218641
0
LINE
8
BLACK
6
CONTINUOUS
10
-0.645917
20
-0.218641
11
-0.64887
21
-0.21785
0
LINE
8
BLACK
6
CONTINUOUS
10
-0.64887
20
-0.21785
11
-0.651031
21
-0.215688
0
LINE
8
BLACK
6
CONTINUOUS
10
-0.651031
20
-0.215688
11
-0.651822
21
-0.212735
0
LINE
8
BLACK
6
CONTINUOUS
10
-0.651822
20
-0.212735
11
-0.651822
21
-0.15368
0
LINE
8
BLACK
6
CONTINUOUS
10
-0.651822
20
-0.15368
11
-0.651031
21
-0.150727
0
LINE
8
BLACK
6
CONTINUOUS
10
-0.651031
20
-0.150727
11
-0.64887
21
-0.148566
0
LINE
8
BLACK
6
CONTINUOUS
10
-0.64887
20
-0.148566
11
-0.645917
21
-0.147775
0
LINE
8
BLACK
6
CONTINUOUS
10
-0.645917
20
-0.147775
11
-0.62342
21
-0.147775
0
LINE
8
BLACK
6
CONTINUOUS
10
-0.62342
20
-0.147775
11
-0.622109
21
-0.148126
0
LINE
8
BLACK
6
CONTINUOUS
10
-0.640011
20
-0.159586
11
-0.640011
21
-0.178708
0
LINE
8
BLACK
6
CONTINUOUS
10
-0.640011
20
-0.178708
11
-0.624814
21
-0.178708
0
LINE
8
BLACK
6
CONTINUOUS
10
-0.624814
20
-0.178708
11
-0.621293
21
-0.176948
0
LINE
8
BLACK
6
CONTINUOUS
10
-0.621293
20
-0.176948
11
-0.619837
21
-0.175491
0
LINE
8
BLACK
6
CONTINUOUS
10
-0.619837
20
-0.175491
11
-0.618076
21
-0.171971
0
LINE
8
BLACK
6
CONTINUOUS
10
-0.618076
20
-0.171971
11
-0.618076
21
-0.166323
0
LINE
8
BLACK
6
CONTINUOUS
10
-0.618076
20
-0.166323
11
-0.619837
21
-0.162803
0
LINE
8
BLACK
6
CONTINUOUS
10
-0.619837
20
-0.162803
11
-0.621293
21
-0.161346
0
LINE
8
BLACK
6
CONTINUOUS
10
-0.621293
20
-0.161346
11
-0.624814
21
-0.159586
0
LINE
8
BLACK
6
CONTINUOUS
10
-0.624814
20
-0.159586
11
-0.640011
21
-0.159586
0
LINE
8
BLACK
6
CONTINUOUS
10
-0.713268
20
-0.148566
11
-0.711106
21
-0.150727
0
LINE
8
BLACK
6
CONTINUOUS
10
-0.711106
20
-0.150727
11
-0.710315
21
-0.15368
0
LINE
8
BLACK
6
CONTINUOUS
10
-0.710315
20
-0.15368
11
-0.711106
21
-0.156633
0
LINE
8
BLACK
6
CONTINUOUS
10
-0.711106
20
-0.156633
11
-0.713268
21
-0.158794
0
LINE
8
BLACK
6
CONTINUOUS
10
-0.713268
20
-0.158794
11
-0.71622
21
-0.159586
0
LINE
8
BLACK
6
CONTINUOUS
10
-0.71622
20
-0.159586
11
-0.727188
21
-0.159586
0
LINE
8
BLACK
6
CONTINUOUS
10
-0.727188
20
-0.159586
11
-0.727188
21
-0.212735
0
LINE
8
BLACK
6
CONTINUOUS
10
-0.727188
20
-0.212735
11
-0.727979
21
-0.215688
0
LINE
8
BLACK
6
CONTINUOUS
10
-0.727979
20
-0.215688
11
-0.730141
21
-0.21785
0
LINE
8
BLACK
6
CONTINUOUS
10
-0.730141
20
-0.21785
11
-0.733093
21
-0.218641
0
LINE
8
BLACK
6
CONTINUOUS
10
-0.733093
20
-0.218641
11
-0.736046
21
-0.21785
0
LINE
8
BLACK
6
CONTINUOUS
10
-0.736046
20
-0.21785
11
-0.738208
21
-0.215688
0
LINE
8
BLACK
6
CONTINUOUS
10
-0.738208
20
-0.215688
11
-0.738999
21
-0.212735
0
LINE
8
BLACK
6
CONTINUOUS
10
-0.738999
20
-0.212735
11
-0.738999
21
-0.159586
0
LINE
8
BLACK
6
CONTINUOUS
10
-0.738999
20
-0.159586
11
-0.749966
21
-0.159586
0
LINE
8
BLACK
6
CONTINUOUS
10
-0.749966
20
-0.159586
11
-0.752919
21
-0.158794
0
LINE
8
BLACK
6
CONTINUOUS
10
-0.752919
20
-0.158794
11
-0.755081
21
-0.156633
0
LINE
8
BLACK
6
CONTINUOUS
10
-0.755081
20
-0.156633
11
-0.755872
21
-0.15368
0
LINE
8
BLACK
6
CONTINUOUS
10
-0.755872
20
-0.15368
11
-0.755081
21
-0.150727
0
LINE
8
BLACK
6
CONTINUOUS
10
-0.755081
20
-0.150727
11
-0.752919
21
-0.148566
0
LINE
8
BLACK
6
CONTINUOUS
10
-0.752919
20
-0.148566
11
-0.749966
21
-0.147775
0
LINE
8
BLACK
6
CONTINUOUS
10
-0.749966
20
-0.147775
11
-0.71622
21
-0.147775
0
LINE
8
BLACK
6
CONTINUOUS
10
-0.71622
20
-0.147775
11
-0.713268
21
-0.148566
0
LINE
8
BLACK
6
CONTINUOUS
10
0.3307
20
-0.0683422
11
0.331712
21
-0.0683422
0
LINE
8
BLACK
6
CONTINUOUS
10
0.331712
20
-0.0683422
11
0.331891
21
-0.0684729
0
LINE
8
BLACK
6
CONTINUOUS
10
0.331891
20
-0.0684729
11
0.332112
21
-0.0684971
0
LINE
8
BLACK
6
CONTINUOUS
10
0.332112
20
-0.0684971
11
0.332861
21
-0.0691775
0
LINE
8
BLACK
6
CONTINUOUS
10
0.332861
20
-0.0691775
11
0.33368
21
-0.0697724
0
LINE
8
BLACK
6
CONTINUOUS
10
0.33368
20
-0.0697724
11
0.333749
21
-0.0699839
0
LINE
8
BLACK
6
CONTINUOUS
10
0.333749
20
-0.0699839
11
0.333913
21
-0.0701333
0
LINE
8
BLACK
6
CONTINUOUS
10
0.333913
20
-0.0701333
11
0.355804
21
-0.108443
0
LINE
8
BLACK
6
CONTINUOUS
10
0.355804
20
-0.108443
11
0.355804
21
-0.0720866
0
LINE
8
BLACK
6
CONTINUOUS
10
0.355804
20
-0.0720866
11
0.356556
21
-0.0697724
0
LINE
8
BLACK
6
CONTINUOUS
10
0.356556
20
-0.0697724
11
0.358525
21
-0.0683422
0
LINE
8
BLACK
6
CONTINUOUS
10
0.358525
20
-0.0683422
11
0.360958
21
-0.0683422
0
LINE
8
BLACK
6
CONTINUOUS
10
0.360958
20
-0.0683422
11
0.362926
21
-0.0697724
0
LINE
8
BLACK
6
CONTINUOUS
10
0.362926
20
-0.0697724
11
0.363678
21
-0.0720866
0
LINE
8
BLACK
6
CONTINUOUS
10
0.363678
20
-0.0720866
11
0.363678
21
-0.123268
0
LINE
8
BLACK
6
CONTINUOUS
10
0.363678
20
-0.123268
11
0.36361
21
-0.123479
0
LINE
8
BLACK
6
CONTINUOUS
10
0.36361
20
-0.123479
11
0.363655
21
-0.123697
0
LINE
8
BLACK
6
CONTINUOUS
10
0.363655
20
-0.123697
11
0.363239
21
-0.124619
0
LINE
8
BLACK
6
CONTINUOUS
10
0.363239
20
-0.124619
11
0.362926
21
-0.125582
0
LINE
8
BLACK
6
CONTINUOUS
10
0.362926
20
-0.125582
11
0.362747
21
-0.125712
0
LINE
8
BLACK
6
CONTINUOUS
10
0.362747
20
-0.125712
11
0.362655
21
-0.125915
0
LINE
8
BLACK
6
CONTINUOUS
10
0.362655
20
-0.125915
11
0.361777
21
-0.126417
0
LINE
8
BLACK
6
CONTINUOUS
10
0.361777
20
-0.126417
11
0.360958
21
-0.127012
0
LINE
8
BLACK
6
CONTINUOUS
10
0.360958
20
-0.127012
11
0.360736
21
-0.127012
0
LINE
8
BLACK
6
CONTINUOUS
10
0.360736
20
-0.127012
11
0.360543
21
-0.127122
0
LINE
8
BLACK
6
CONTINUOUS
10
0.360543
20
-0.127122
11
0.359537
21
-0.127012
0
LINE
8
BLACK
6
CONTINUOUS
10
0.359537
20
-0.127012
11
0.358525
21
-0.127012
0
LINE
8
BLACK
6
CONTINUOUS
10
0.358525
20
-0.127012
11
0.358345
21
-0.126881
0
LINE
8
BLACK
6
CONTINUOUS
10
0.358345
20
-0.126881
11
0.358124
21
-0.126857
0
LINE
8
BLACK
6
CONTINUOUS
10
0.358124
20
-0.126857
11
0.357375
21
-0.126177
0
LINE
8
BLACK
6
CONTINUOUS
10
0.357375
20
-0.126177
11
0.356556
21
-0.125582
0
LINE
8
BLACK
6
CONTINUOUS
10
0.356556
20
-0.125582
11
0.356487
21
-0.12537
0
LINE
8
BLACK
6
CONTINUOUS
10
0.356487
20
-0.12537
11
0.356323
21
-0.125221
0
LINE
8
BLACK
6
CONTINUOUS
10
0.356323
20
-0.125221
11
0.334432
21
-0.0869117
0
LINE
8
BLACK
6
CONTINUOUS
10
0.334432
20
-0.0869117
11
0.334432
21
-0.123268
0
LINE
8
BLACK
6
CONTINUOUS
10
0.334432
20
-0.123268
11
0.33368
21
-0.125582
0
LINE
8
BLACK
6
CONTINUOUS
10
0.33368
20
-0.125582
11
0.331712
21
-0.127012
0
LINE
8
BLACK
6
CONTINUOUS
10
0.331712
20
-0.127012
11
0.329278
21
-0.127012
0
LINE
8
BLACK
6
CONTINUOUS
10
0.329278
20
-0.127012
11
0.32731
21
-0.125582
0
LINE
8
BLACK
6
CONTINUOUS
10
0.32731
20
-0.125582
11
0.326558
21
-0.123268
0
LINE
8
BLACK
6
CONTINUOUS
10
0.326558
20
-0.123268
11
0.326558
21
-0.0720866
0
LINE
8
BLACK
6
CONTINUOUS
10
0.326558
20
-0.0720866
11
0.326627
21
-0.0718752
0
LINE
8
BLACK
6
CONTINUOUS
10
0.326627
20
-0.0718752
11
0.326581
21
-0.0716576
0
LINE
8
BLACK
6
CONTINUOUS
10
0.326581
20
-0.0716576
11
0.326997
21
-0.0707349
0
LINE
8
BLACK
6
CONTINUOUS
10
0.326997
20
-0.0707349
11
0.32731
21
-0.0697724
0
LINE
8
BLACK
6
CONTINUOUS
10
0.32731
20
-0.0697724
11
0.32749
21
-0.0696418
0
LINE
8
BLACK
6
CONTINUOUS
10
0.32749
20
-0.0696418
11
0.327581
21
-0.0694392
0
LINE
8
BLACK
6
CONTINUOUS
10
0.327581
20
-0.0694392
11
0.328459
21
-0.0689372
0
LINE
8
BLACK
6
CONTINUOUS
10
0.328459
20
-0.0689372
11
0.329278
21
-0.0683422
0
LINE
8
BLACK
6
CONTINUOUS
10
0.329278
20
-0.0683422
11
0.329501
21
-0.0683422
0
LINE
8
BLACK
6
CONTINUOUS
10
0.329501
20
-0.0683422
11
0.329694
21
-0.068232
0
LINE
8
BLACK
6
CONTINUOUS
10
0.329694
20
-0.068232
11
0.3307
21
-0.0683422
0
LINE
8
BLACK
6
CONTINUOUS
10
0.309308
20
-0.0697724
11
0.31006
21
-0.0720866
0
LINE
8
BLACK
6
CONTINUOUS
10
0.31006
20
-0.0720866
11
0.31006
21
-0.123268
0
LINE
8
BLACK
6
CONTINUOUS
10
0.31006
20
-0.123268
11
0.309308
21
-0.125582
0
LINE
8
BLACK
6
CONTINUOUS
10
0.309308
20
-0.125582
11
0.30734
21
-0.127012
0
LINE
8
BLACK
6
CONTINUOUS
10
0.30734
20
-0.127012
11
0.304906
21
-0.127012
0
LINE
8
BLACK
6
CONTINUOUS
10
0.304906
20
-0.127012
11
0.302938
21
-0.125582
0
LINE
8
BLACK
6
CONTINUOUS
10
0.302938
20
-0.125582
11
0.302186
21
-0.123268
0
LINE
8
BLACK
6
CONTINUOUS
10
0.302186
20
-0.123268
11
0.302186
21
-0.0720866
0
LINE
8
BLACK
6
CONTINUOUS
10
0.302186
20
-0.0720866
11
0.302938
21
-0.0697724
0
LINE
8
BLACK
6
CONTINUOUS
10
0.302938
20
-0.0697724
11
0.304906
21
-0.0683422
0
LINE
8
BLACK
6
CONTINUOUS
10
0.304906
20
-0.0683422
11
0.30734
21
-0.0683422
0
LINE
8
BLACK
6
CONTINUOUS
10
0.30734
20
-0.0683422
11
0.309308
21
-0.0697724
0
LINE
8
BLACK
6
CONTINUOUS
10
0.490384
20
-0.0822292
11
0.490513
21
-0.0822064
0
LINE
8
BLACK
6
CONTINUOUS
10
0.490513
20
-0.0822064
11
0.490626
21
-0.082272
0
LINE
8
BLACK
6
CONTINUOUS
10
0.490626
20
-0.082272
11
0.49101
21
-0.0823396
0
LINE
8
BLACK
6
CONTINUOUS
10
0.49101
20
-0.0823396
11
0.491598
21
-0.0828328
0
LINE
8
BLACK
6
CONTINUOUS
10
0.491598
20
-0.0828328
11
0.492262
21
-0.0832163
0
LINE
8
BLACK
6
CONTINUOUS
10
0.492262
20
-0.0832163
11
0.492353
21
-0.0834667
0
LINE
8
BLACK
6
CONTINUOUS
10
0.492353
20
-0.0834667
11
0.492557
21
-0.083638
0
LINE
8
BLACK
6
CONTINUOUS
10
0.492557
20
-0.083638
11
0.49269
21
-0.0843935
0
LINE
8
BLACK
6
CONTINUOUS
10
0.49269
20
-0.0843935
11
0.492953
21
-0.0851143
0
LINE
8
BLACK
6
CONTINUOUS
10
0.492953
20
-0.0851143
11
0.492953
21
-0.117162
0
LINE
8
BLACK
6
CONTINUOUS
10
0.492953
20
-0.117162
11
0.52
21
-0.117162
0
LINE
8
BLACK
6
CONTINUOUS
10
0.52
20
-0.117162
11
0.52101
21
-0.11734
0
LINE
8
BLACK
6
CONTINUOUS
10
0.52101
20
-0.11734
11
0.522557
21
-0.118638
0
LINE
8
BLACK
6
CONTINUOUS
10
0.522557
20
-0.118638
11
0.522908
21
-0.120627
0
LINE
8
BLACK
6
CONTINUOUS
10
0.522908
20
-0.120627
11
0.521898
21
-0.122376
0
LINE
8
BLACK
6
CONTINUOUS
10
0.521898
20
-0.122376
11
0.52
21
-0.123067
0
LINE
8
BLACK
6
CONTINUOUS
10
0.52
20
-0.123067
11
0.49
21
-0.123067
0
LINE
8
BLACK
6
CONTINUOUS
10
0.49
20
-0.123067
11
0.489616
21
-0.122999
0
LINE
8
BLACK
6
CONTINUOUS
10
0.489616
20
-0.122999
11
0.489487
21
-0.123022
0
LINE
8
BLACK
6
CONTINUOUS
10
0.489487
20
-0.123022
11
0.489374
21
-0.122957
0
LINE
8
BLACK
6
CONTINUOUS
10
0.489374
20
-0.122957
11
0.48899
21
-0.122889
0
LINE
8
BLACK
6
CONTINUOUS
10
0.48899
20
-0.122889
11
0.488402
21
-0.122396
0
LINE
8
BLACK
6
CONTINUOUS
10
0.488402
20
-0.122396
11
0.487738
21
-0.122012
0
LINE
8
BLACK
6
CONTINUOUS
10
0.487738
20
-0.122012
11
0.487647
21
-0.121762
0
LINE
8
BLACK
6
CONTINUOUS
10
0.487647
20
-0.121762
11
0.487443
21
-0.121591
0
LINE
8
BLACK
6
CONTINUOUS
10
0.487443
20
-0.121591
11
0.48731
21
-0.120835
0
LINE
8
BLACK
6
CONTINUOUS
10
0.48731
20
-0.120835
11
0.487047
21
-0.120114
0
LINE
8
BLACK
6
CONTINUOUS
10
0.487047
20
-0.120114
11
0.487047
21
-0.0880671
0
LINE
8
BLACK
6
CONTINUOUS
10
0.487047
20
-0.0880671
11
0.462953
21
-0.0880671
0
LINE
8
BLACK
6
CONTINUOUS
10
0.462953
20
-0.0880671
11
0.462953
21
-0.120114
0
LINE
8
BLACK
6
CONTINUOUS
10
0.462953
20
-0.120114
11
0.462885
21
-0.120498
0
LINE
8
BLACK
6
CONTINUOUS
10
0.462885
20
-0.120498
11
0.462908
21
-0.120627
0
LINE
8
BLACK
6
CONTINUOUS
10
0.462908
20
-0.120627
11
0.462842
21
-0.120741
0
LINE
8
BLACK
6
CONTINUOUS
10
0.462842
20
-0.120741
11
0.462775
21
-0.121124
0
LINE
8
BLACK
6
CONTINUOUS
10
0.462775
20
-0.121124
11
0.462282
21
-0.121712
0
LINE
8
BLACK
6
CONTINUOUS
10
0.462282
20
-0.121712
11
0.461898
21
-0.122376
0
LINE
8
BLACK
6
CONTINUOUS
10
0.461898
20
-0.122376
11
0.461648
21
-0.122467
0
LINE
8
BLACK
6
CONTINUOUS
10
0.461648
20
-0.122467
11
0.461476
21
-0.122671
0
LINE
8
BLACK
6
CONTINUOUS
10
0.461476
20
-0.122671
11
0.460721
21
-0.122805
0
LINE
8
BLACK
6
CONTINUOUS
10
0.460721
20
-0.122805
11
0.46
21
-0.123067
0
LINE
8
BLACK
6
CONTINUOUS
10
0.46
20
-0.123067
11
0.435
21
-0.123067
0
LINE
8
BLACK
6
CONTINUOUS
10
0.435
20
-0.123067
11
0.43399
21
-0.122889
0
LINE
8
BLACK
6
CONTINUOUS
10
0.43399
20
-0.122889
11
0.432443
21
-0.121591
0
LINE
8
BLACK
6
CONTINUOUS
10
0.432443
20
-0.121591
11
0.432092
21
-0.119602
0
LINE
8
BLACK
6
CONTINUOUS
10
0.432092
20
-0.119602
11
0.433102
21
-0.117852
0
LINE
8
BLACK
6
CONTINUOUS
10
0.433102
20
-0.117852
11
0.435
21
-0.117162
0
LINE
8
BLACK
6
CONTINUOUS
10
0.435
20
-0.117162
11
0.457047
21
-0.117162
0
LINE
8
BLACK
6
CONTINUOUS
10
0.457047
20
-0.117162
11
0.457047
21
-0.0851143
0
LINE
8
BLACK
6
CONTINUOUS
10
0.457047
20
-0.0851143
11
0.457115
21
-0.0847308
0
LINE
8
BLACK
6
CONTINUOUS
10
0.457115
20
-0.0847308
11
0.457092
21
-0.0846016
0
LINE
8
BLACK
6
CONTINUOUS
10
0.457092
20
-0.0846016
11
0.457158
21
-0.084488
0
LINE
8
BLACK
6
CONTINUOUS
10
0.457158
20
-0.084488
11
0.457225
21
-0.0841044
0
LINE
8
BLACK
6
CONTINUOUS
10
0.457225
20
-0.0841044
11
0.457718
21
-0.0835167
0
LINE
8
BLACK
6
CONTINUOUS
10
0.457718
20
-0.0835167
11
0.458102
21
-0.0828524
0
LINE
8
BLACK
6
CONTINUOUS
10
0.458102
20
-0.0828524
11
0.458352
21
-0.0827613
0
LINE
8
BLACK
6
CONTINUOUS
10
0.458352
20
-0.0827613
11
0.458524
21
-0.0825572
0
LINE
8
BLACK
6
CONTINUOUS
10
0.458524
20
-0.0825572
11
0.459279
21
-0.0824239
0
LINE
8
BLACK
6
CONTINUOUS
10
0.459279
20
-0.0824239
11
0.46
21
-0.0821616
0
LINE
8
BLACK
6
CONTINUOUS
10
0.46
20
-0.0821616
11
0.49
21
-0.0821616
0
LINE
8
BLACK
6
CONTINUOUS
10
0.49
20
-0.0821616
11
0.490384
21
-0.0822292
0
LINE
8
BLACK
6
CONTINUOUS
10
-0.79166
20
-0.050322
11
-0.791171
21
-0.0502881
0
LINE
8
BLACK
6
CONTINUOUS
10
-0.791171
20
-0.0502881
11
-0.782172
21
-0.0525378
0
LINE
8
BLACK
6
CONTINUOUS
10
-0.782172
20
-0.0525378
11
-0.7818
21
-0.0527706
0
LINE
8
BLACK
6
CONTINUOUS
10
-0.7818
20
-0.0527706
11
-0.781366
21
-0.0528359
0
LINE
8
BLACK
6
CONTINUOUS
10
-0.781366
20
-0.0528359
11
-0.776867
21
-0.0550856
0
LINE
8
BLACK
6
CONTINUOUS
10
-0.776867
20
-0.0550856
11
-0.776412
21
-0.0555334
0
LINE
8
BLACK
6
CONTINUOUS
10
-0.776412
20
-0.0555334
11
-0.775844
21
-0.0558231
0
LINE
8
BLACK
6
CONTINUOUS
10
-0.775844
20
-0.0558231
11
-0.773594
21
-0.0580728
0
LINE
8
BLACK
6
CONTINUOUS
10
-0.773594
20
-0.0580728
11
-0.773304
21
-0.0586414
0
LINE
8
BLACK
6
CONTINUOUS
10
-0.773304
20
-0.0586414
11
-0.772857
21
-0.0590961
0
LINE
8
BLACK
6
CONTINUOUS
10
-0.772857
20
-0.0590961
11
-0.770607
21
-0.0635955
0
LINE
8
BLACK
6
CONTINUOUS
10
-0.770607
20
-0.0635955
11
-0.770472
21
-0.064493
0
LINE
8
BLACK
6
CONTINUOUS
10
-0.770472
20
-0.064493
11
-0.770191
21
-0.0653561
0
LINE
8
BLACK
6
CONTINUOUS
10
-0.770191
20
-0.0653561
11
-0.770191
21
-0.0698556
0
LINE
8
BLACK
6
CONTINUOUS
10
-0.770191
20
-0.0698556
11
-0.770472
21
-0.0707187
0
LINE
8
BLACK
6
CONTINUOUS
10
-0.770472
20
-0.0707187
11
-0.770607
21
-0.0716163
0
LINE
8
BLACK
6
CONTINUOUS
10
-0.770607
20
-0.0716163
11
-0.772857
21
-0.0761157
0
LINE
8
BLACK
6
CONTINUOUS
10
-0.772857
20
-0.0761157
11
-0.773304
21
-0.0765704
0
LINE
8
BLACK
6
CONTINUOUS
10
-0.773304
20
-0.0765704
11
-0.773594
21
-0.0771389
0
LINE
8
BLACK
6
CONTINUOUS
10
-0.773594
20
-0.0771389
11
-0.775844
21
-0.0793887
0
LINE
8
BLACK
6
CONTINUOUS
10
-0.775844
20
-0.0793887
11
-0.776412
21
-0.0796783
0
LINE
8
BLACK
6
CONTINUOUS
10
-0.776412
20
-0.0796783
11
-0.776867
21
-0.0801261
0
LINE
8
BLACK
6
CONTINUOUS
10
-0.776867
20
-0.0801261
11
-0.781366
21
-0.0823759
0
LINE
8
BLACK
6
CONTINUOUS
10
-0.781366
20
-0.0823759
11
-0.7818
21
-0.0824412
0
LINE
8
BLACK
6
CONTINUOUS
10
-0.7818
20
-0.0824412
11
-0.782172
21
-0.0826739
0
LINE
8
BLACK
6
CONTINUOUS
10
-0.782172
20
-0.0826739
11
-0.791171
21
-0.0849236
0
LINE
8
BLACK
6
CONTINUOUS
10
-0.791171
20
-0.0849236
11
-0.79166
21
-0.0848898
0
LINE
8
BLACK
6
CONTINUOUS
10
-0.79166
20
-0.0848898
11
-0.792126
21
-0.0850412
0
LINE
8
BLACK
6
CONTINUOUS
10
-0.792126
20
-0.0850412
11
-0.803375
21
-0.0850412
0
LINE
8
BLACK
6
CONTINUOUS
10
-0.803375
20
-0.0850412
11
-0.803841
21
-0.0848898
0
LINE
8
BLACK
6
CONTINUOUS
10
-0.803841
20
-0.0848898
11
-0.804329
21
-0.0849236
0
LINE
8
BLACK
6
CONTINUOUS
10
-0.804329
20
-0.0849236
11
-0.813328
21
-0.0826739
0
LINE
8
BLACK
6
CONTINUOUS
10
-0.813328
20
-0.0826739
11
-0.8137
21
-0.0824412
0
LINE
8
BLACK
6
CONTINUOUS
10
-0.8137
20
-0.0824412
11
-0.814134
21
-0.0823759
0
LINE
8
BLACK
6
CONTINUOUS
10
-0.814134
20
-0.0823759
11
-0.818634
21
-0.0801261
0
LINE
8
BLACK
6
CONTINUOUS
10
-0.818634
20
-0.0801261
11
-0.819088
21
-0.0796783
0
LINE
8
BLACK
6
CONTINUOUS
10
-0.819088
20
-0.0796783
11
-0.819657
21
-0.0793886
0
LINE
8
BLACK
6
CONTINUOUS
10
-0.819657
20
-0.0793886
11
-0.821907
21
-0.0771389
0
LINE
8
BLACK
6
CONTINUOUS
10
-0.821907
20
-0.0771389
11
-0.822196
21
-0.0765704
0
LINE
8
BLACK
6
CONTINUOUS
10
-0.822196
20
-0.0765704
11
-0.822644
21
-0.0761157
0
LINE
8
BLACK
6
CONTINUOUS
10
-0.822644
20
-0.0761157
11
-0.824894
21
-0.0716163
0
LINE
8
BLACK
6
CONTINUOUS
10
-0.824894
20
-0.0716163
11
-0.825029
21
-0.0707187
0
LINE
8
BLACK
6
CONTINUOUS
10
-0.825029
20
-0.0707187
11
-0.825309
21
-0.0698556
0
LINE
8
BLACK
6
CONTINUOUS
10
-0.825309
20
-0.0698556
11
-0.825309
21
-0.0653561
0
LINE
8
BLACK
6
CONTINUOUS
10
-0.825309
20
-0.0653561
11
-0.825029
21
-0.064493
0
LINE
8
BLACK
6
CONTINUOUS
10
-0.825029
20
-0.064493
11
-0.824894
21
-0.0635954
0
LINE
8
BLACK
6
CONTINUOUS
10
-0.824894
20
-0.0635954
11
-0.822644
21
-0.059096
0
LINE
8
BLACK
6
CONTINUOUS
10
-0.822644
20
-0.059096
11
-0.822196
21
-0.0586415
0
LINE
8
BLACK
6
CONTINUOUS
10
-0.822196
20
-0.0586415
11
-0.821907
21
-0.0580728
0
LINE
8
BLACK
6
CONTINUOUS
10
-0.821907
20
-0.0580728
11
-0.819657
21
-0.0558231
0
LINE
8
BLACK
6
CONTINUOUS
10
-0.819657
20
-0.0558231
11
-0.819088
21
-0.0555335
0
LINE
8
BLACK
6
CONTINUOUS
10
-0.819088
20
-0.0555335
11
-0.818634
21
-0.0550856
0
LINE
8
BLACK
6
CONTINUOUS
10
-0.818634
20
-0.0550856
11
-0.814134
21
-0.0528359
0
LINE
8
BLACK
6
CONTINUOUS
10
-0.814134
20
-0.0528359
11
-0.8137
21
-0.0527706
0
LINE
8
BLACK
6
CONTINUOUS
10
-0.8137
20
-0.0527706
11
-0.813328
21
-0.0525378
0
LINE
8
BLACK
6
CONTINUOUS
10
-0.813328
20
-0.0525378
11
-0.804329
21
-0.0502881
0
LINE
8
BLACK
6
CONTINUOUS
10
-0.804329
20
-0.0502881
11
-0.803841
21
-0.050322
0
LINE
8
BLACK
6
CONTINUOUS
10
-0.803841
20
-0.050322
11
-0.803375
21
-0.0501706
0
LINE
8
BLACK
6
CONTINUOUS
10
-0.803375
20
-0.0501706
11
-0.792126
21
-0.0501706
0
LINE
8
BLACK
6
CONTINUOUS
10
-0.792126
20
-0.0501706
11
-0.79166
21
-0.050322
0
LINE
8
BLACK
6
CONTINUOUS
10
-0.80289
20
-0.0580446
11
-0.810999
21
-0.0600719
0
LINE
8
BLACK
6
CONTINUOUS
10
-0.810999
20
-0.0600719
11
-0.814541
21
-0.0618427
0
LINE
8
BLACK
6
CONTINUOUS
10
-0.814541
20
-0.0618427
11
-0.815887
21
-0.0631889
0
LINE
8
BLACK
6
CONTINUOUS
10
-0.815887
20
-0.0631889
11
-0.817435
21
-0.0662856
0
LINE
8
BLACK
6
CONTINUOUS
10
-0.817435
20
-0.0662856
11
-0.817435
21
-0.0689262
0
LINE
8
BLACK
6
CONTINUOUS
10
-0.817435
20
-0.0689262
11
-0.815887
21
-0.0720229
0
LINE
8
BLACK
6
CONTINUOUS
10
-0.815887
20
-0.0720229
11
-0.814541
21
-0.0733691
0
LINE
8
BLACK
6
CONTINUOUS
10
-0.814541
20
-0.0733691
11
-0.810999
21
-0.0751399
0
LINE
8
BLACK
6
CONTINUOUS
10
-0.810999
20
-0.0751399
11
-0.80289
21
-0.0771672
0
LINE
8
BLACK
6
CONTINUOUS
10
-0.80289
20
-0.0771672
11
-0.792611
21
-0.0771672
0
LINE
8
BLACK
6
CONTINUOUS
10
-0.792611
20
-0.0771672
11
-0.784501
21
-0.0751398
0
LINE
8
BLACK
6
CONTINUOUS
10
-0.784501
20
-0.0751398
11
-0.78096
21
-0.0733691
0
LINE
8
BLACK
6
CONTINUOUS
10
-0.78096
20
-0.0733691
11
-0.779614
21
-0.072023
0
LINE
8
BLACK
6
CONTINUOUS
10
-0.779614
20
-0.072023
11
-0.778065
21
-0.0689262
0
LINE
8
BLACK
6
CONTINUOUS
10
-0.778065
20
-0.0689262
11
-0.778065
21
-0.0662856
0
LINE
8
BLACK
6
CONTINUOUS
10
-0.778065
20
-0.0662856
11
-0.779614
21
-0.0631888
0
LINE
8
BLACK
6
CONTINUOUS
10
-0.779614
20
-0.0631888
11
-0.78096
21
-0.0618426
0
LINE
8
BLACK
6
CONTINUOUS
10
-0.78096
20
-0.0618426
11
-0.784501
21
-0.0600719
0
LINE
8
BLACK
6
CONTINUOUS
10
-0.784501
20
-0.0600719
11
-0.792611
21
-0.0580446
0
LINE
8
BLACK
6
CONTINUOUS
10
-0.792611
20
-0.0580446
11
-0.80289
21
-0.0580446
0
LINE
8
BLACK
6
CONTINUOUS
10
-0.722914
20
-0.0152565
11
-0.722757
21
-0.0152487
0
LINE
8
BLACK
6
CONTINUOUS
10
-0.722757
20
-0.0152487
11
-0.713008
21
-0.0175922
0
LINE
8
BLACK
6
CONTINUOUS
10
-0.713008
20
-0.0175922
11
-0.712207
21
-0.0179121
0
LINE
8
BLACK
6
CONTINUOUS
10
-0.712207
20
-0.0179121
11
-0.712026
21
-0.0179419
0
LINE
8
BLACK
6
CONTINUOUS
10
-0.712026
20
-0.0179419
11
-0.707152
21
-0.0202853
0
LINE
8
BLACK
6
CONTINUOUS
10
-0.707152
20
-0.0202853
11
-0.70598
21
-0.0210736
0
LINE
8
BLACK
6
CONTINUOUS
10
-0.70598
20
-0.0210736
11
-0.70594
21
-0.0211381
0
LINE
8
BLACK
6
CONTINUOUS
10
-0.70594
20
-0.0211381
11
-0.705873
21
-0.0211732
0
LINE
8
BLACK
6
CONTINUOUS
10
-0.705873
20
-0.0211732
11
-0.700999
21
-0.0258601
0
LINE
8
BLACK
6
CONTINUOUS
10
-0.700999
20
-0.0258601
11
-0.700131
21
-0.026975
0
LINE
8
BLACK
6
CONTINUOUS
10
-0.700131
20
-0.026975
11
-0.700026
21
-0.0274217
0
LINE
8
BLACK
6
CONTINUOUS
10
-0.700026
20
-0.0274217
11
-0.69976
21
-0.0277956
0
LINE
8
BLACK
6
CONTINUOUS
10
-0.69976
20
-0.0277956
11
-0.697322
21
-0.034826
0
LINE
8
BLACK
6
CONTINUOUS
10
-0.697322
20
-0.034826
11
-0.697056
21
-0.036213
0
LINE
8
BLACK
6
CONTINUOUS
10
-0.697056
20
-0.036213
11
-0.697084
21
-0.0363261
0
LINE
8
BLACK
6
CONTINUOUS
10
-0.697084
20
-0.0363261
11
-0.697051
21
-0.0364379
0
LINE
8
BLACK
6
CONTINUOUS
10
-0.697051
20
-0.0364379
11
-0.697051
21
-0.0411248
0
LINE
8
BLACK
6
CONTINUOUS
10
-0.697051
20
-0.0411248
11
-0.697254
21
-0.0425225
0
LINE
8
BLACK
6
CONTINUOUS
10
-0.697254
20
-0.0425225
11
-0.697317
21
-0.0426203
0
LINE
8
BLACK
6
CONTINUOUS
10
-0.697317
20
-0.0426203
11
-0.697322
21
-0.0427367
0
LINE
8
BLACK
6
CONTINUOUS
10
-0.697322
20
-0.0427367
11
-0.69976
21
-0.0497671
0
LINE
8
BLACK
6
CONTINUOUS
10
-0.69976
20
-0.0497671
11
-0.700409
21
-0.0510213
0
LINE
8
BLACK
6
CONTINUOUS
10
-0.700409
20
-0.0510213
11
-0.700771
21
-0.0513041
0
LINE
8
BLACK
6
CONTINUOUS
10
-0.700771
20
-0.0513041
11
-0.700999
21
-0.0517026
0
LINE
8
BLACK
6
CONTINUOUS
10
-0.700999
20
-0.0517026
11
-0.703436
21
-0.0540461
0
LINE
8
BLACK
6
CONTINUOUS
10
-0.703436
20
-0.0540461
11
-0.704584
21
-0.0548687
0
LINE
8
BLACK
6
CONTINUOUS
10
-0.704584
20
-0.0548687
11
-0.707303
21
-0.0553987
0
LINE
8
BLACK
6
CONTINUOUS
10
-0.707303
20
-0.0553987
11
-0.709878
21
-0.0543754
0
LINE
8
BLACK
6
CONTINUOUS
10
-0.709878
20
-0.0543754
11
-0.711492
21
-0.0521233
0
LINE
8
BLACK
6
CONTINUOUS
10
-0.711492
20
-0.0521233
11
-0.711633
21
-0.0493561
0
LINE
8
BLACK
6
CONTINUOUS
10
-0.711633
20
-0.0493561
11
-0.710258
21
-0.0469512
0
LINE
8
BLACK
6
CONTINUOUS
10
-0.710258
20
-0.0469512
11
-0.708672
21
-0.0454268
0
LINE
8
BLACK
6
CONTINUOUS
10
-0.708672
20
-0.0454268
11
-0.706894
21
-0.0402959
0
LINE
8
BLACK
6
CONTINUOUS
10
-0.706894
20
-0.0402959
11
-0.706894
21
-0.0372668
0
LINE
8
BLACK
6
CONTINUOUS
10
-0.706894
20
-0.0372668
11
-0.708672
21
-0.0321359
0
LINE
8
BLACK
6
CONTINUOUS
10
-0.708672
20
-0.0321359
11
-0.712127
21
-0.0288144
0
LINE
8
BLACK
6
CONTINUOUS
10
-0.712127
20
-0.0288144
11
-0.715818
21
-0.0270396
0
LINE
8
BLACK
6
CONTINUOUS
10
-0.715818
20
-0.0270396
11
-0.72449
21
-0.024955
0
LINE
8
BLACK
6
CONTINUOUS
10
-0.72449
20
-0.024955
11
-0.730635
21
-0.024955
0
LINE
8
BLACK
6
CONTINUOUS
10
-0.730635
20
-0.024955
11
-0.739308
21
-0.0270396
0
LINE
8
BLACK
6
CONTINUOUS
10
-0.739308
20
-0.0270396
11
-0.742999
21
-0.0288144
0
LINE
8
BLACK
6
CONTINUOUS
10
-0.742999
20
-0.0288144
11
-0.746453
21
-0.0321359
0
LINE
8
BLACK
6
CONTINUOUS
10
-0.746453
20
-0.0321359
11
-0.748232
21
-0.0372668
0
LINE
8
BLACK
6
CONTINUOUS
10
-0.748232
20
-0.0372668
11
-0.748232
21
-0.0402959
0
LINE
8
BLACK
6
CONTINUOUS
10
-0.748232
20
-0.0402959
11
-0.746453
21
-0.0454268
0
LINE
8
BLACK
6
CONTINUOUS
10
-0.746453
20
-0.0454268
11
-0.744868
21
-0.0469512
0
LINE
8
BLACK
6
CONTINUOUS
10
-0.744868
20
-0.0469512
11
-0.744001
21
-0.048066
0
LINE
8
BLACK
6
CONTINUOUS
10
-0.744001
20
-0.048066
11
-0.743365
21
-0.0507627
0
LINE
8
BLACK
6
CONTINUOUS
10
-0.743365
20
-0.0507627
11
-0.744286
21
-0.0533757
0
LINE
8
BLACK
6
CONTINUOUS
10
-0.744286
20
-0.0533757
11
-0.746473
21
-0.0550767
0
LINE
8
BLACK
6
CONTINUOUS
10
-0.746473
20
-0.0550767
11
-0.749233
21
-0.0553265
0
LINE
8
BLACK
6
CONTINUOUS
10
-0.749233
20
-0.0553265
11
-0.75169
21
-0.0540461
0
LINE
8
BLACK
6
CONTINUOUS
10
-0.75169
20
-0.0540461
11
-0.754127
21
-0.0517026
0
LINE
8
BLACK
6
CONTINUOUS
10
-0.754127
20
-0.0517026
11
-0.754994
21
-0.0505878
0
LINE
8
BLACK
6
CONTINUOUS
10
-0.754994
20
-0.0505878
11
-0.7551
21
-0.050141
0
LINE
8
BLACK
6
CONTINUOUS
10
-0.7551
20
-0.050141
11
-0.755366
21
-0.0497671
0
LINE
8
BLACK
6
CONTINUOUS
10
-0.755366
20
-0.0497671
11
-0.757803
21
-0.0427367
0
LINE
8
BLACK
6
CONTINUOUS
10
-0.757803
20
-0.0427367
11
-0.758069
21
-0.0413497
0
LINE
8
BLACK
6
CONTINUOUS
10
-0.758069
20
-0.0413497
11
-0.758042
21
-0.0412366
0
LINE
8
BLACK
6
CONTINUOUS
10
-0.758042
20
-0.0412366
11
-0.758075
21
-0.0411248
0
LINE
8
BLACK
6
CONTINUOUS
10
-0.758075
20
-0.0411248
11
-0.758075
21
-0.0364379
0
LINE
8
BLACK
6
CONTINUOUS
10
-0.758075
20
-0.0364379
11
-0.757872
21
-0.0350402
0
LINE
8
BLACK
6
CONTINUOUS
10
-0.757872
20
-0.0350402
11
-0.757809
21
-0.0349424
0
LINE
8
BLACK
6
CONTINUOUS
10
-0.757809
20
-0.0349424
11
-0.757803
21
-0.034826
0
LINE
8
BLACK
6
CONTINUOUS
10
-0.757803
20
-0.034826
11
-0.755366
21
-0.0277956
0
LINE
8
BLACK
6
CONTINUOUS
10
-0.755366
20
-0.0277956
11
-0.754717
21
-0.0265414
0
LINE
8
BLACK
6
CONTINUOUS
10
-0.754717
20
-0.0265414
11
-0.754355
21
-0.0262586
0
LINE
8
BLACK
6
CONTINUOUS
10
-0.754355
20
-0.0262586
11
-0.754127
21
-0.0258601
0
LINE
8
BLACK
6
CONTINUOUS
10
-0.754127
20
-0.0258601
11
-0.749253
21
-0.0211732
0
LINE
8
BLACK
6
CONTINUOUS
10
-0.749253
20
-0.0211732
11
-0.748105
21
-0.0203506
0
LINE
8
BLACK
6
CONTINUOUS
10
-0.748105
20
-0.0203506
11
-0.74803
21
-0.0203361
0
LINE
8
BLACK
6
CONTINUOUS
10
-0.74803
20
-0.0203361
11
-0.747974
21
-0.0202854
0
LINE
8
BLACK
6
CONTINUOUS
10
-0.747974
20
-0.0202854
11
-0.7431
21
-0.0179419
0
LINE
8
BLACK
6
CONTINUOUS
10
-0.7431
20
-0.0179419
11
-0.742277
21
-0.0176835
0
LINE
8
BLACK
6
CONTINUOUS
10
-0.742277
20
-0.0176835
11
-0.742118
21
-0.0175922
0
LINE
8
BLACK
6
CONTINUOUS
10
-0.742118
20
-0.0175922
11
-0.732369
21
-0.0152487
0
LINE
8
BLACK
6
CONTINUOUS
10
-0.732369
20
-0.0152487
11
-0.731369
21
-0.0151566
0
LINE
8
BLACK
6
CONTINUOUS
10
-0.731369
20
-0.0151566
11
-0.731219
21
-0.0151124
0
LINE
8
BLACK
6
CONTINUOUS
10
-0.731219
20
-0.0151124
11
-0.723907
21
-0.0151124
0
LINE
8
BLACK
6
CONTINUOUS
10
-0.723907
20
-0.0151124
11
-0.722914
21
-0.0152565
0
LINE
8
BLACK
6
CONTINUOUS
10
-0.773737
20
-0.00744543
11
-0.773342
21
-0.00761858
0
LINE
8
BLACK
6
CONTINUOUS
10
-0.773342
20
-0.00761858
11
-0.772912
21
-0.00761858
0
LINE
8
BLACK
6
CONTINUOUS
10
-0.772912
20
-0.00761858
11
-0.772254
21
-0.00809677
0
LINE
8
BLACK
6
CONTINUOUS
10
-0.772254
20
-0.00809677
11
-0.771509
21
-0.00842386
0
LINE
8
BLACK
6
CONTINUOUS
10
-0.771509
20
-0.00842386
11
-0.771292
21
-0.00879567
0
LINE
8
BLACK
6
CONTINUOUS
10
-0.771292
20
-0.00879567
11
-0.770943
21
-0.00904878
0
LINE
8
BLACK
6
CONTINUOUS
10
-0.770943
20
-0.00904878
11
-0.770692
21
-0.00982244
0
LINE
8
BLACK
6
CONTINUOUS
10
-0.770692
20
-0.00982244
11
-0.770281
21
-0.0105249
0
LINE
8
BLACK
6
CONTINUOUS
10
-0.770281
20
-0.0105249
11
-0.770324
21
-0.0109534
0
LINE
8
BLACK
6
CONTINUOUS
10
-0.770324
20
-0.0109534
11
-0.770191
21
-0.0113629
0
LINE
8
BLACK
6
CONTINUOUS
10
-0.770191
20
-0.0113629
11
-0.770191
21
-0.0338601
0
LINE
8
BLACK
6
CONTINUOUS
10
-0.770191
20
-0.0338601
11
-0.770943
21
-0.0361742
0
LINE
8
BLACK
6
CONTINUOUS
10
-0.770943
20
-0.0361742
11
-0.772912
21
-0.0376044
0
LINE
8
BLACK
6
CONTINUOUS
10
-0.772912
20
-0.0376044
11
-0.775345
21
-0.0376044
0
LINE
8
BLACK
6
CONTINUOUS
10
-0.775345
20
-0.0376044
11
-0.777313
21
-0.0361742
0
LINE
8
BLACK
6
CONTINUOUS
10
-0.777313
20
-0.0361742
11
-0.778065
21
-0.0338601
0
LINE
8
BLACK
6
CONTINUOUS
10
-0.778065
20
-0.0338601
11
-0.778065
21
-0.0149259
0
LINE
8
BLACK
6
CONTINUOUS
10
-0.778065
20
-0.0149259
11
-0.788726
21
-0.0138598
0
LINE
8
BLACK
6
CONTINUOUS
10
-0.788726
20
-0.0138598
11
-0.788605
21
-0.0141017
0
LINE
8
BLACK
6
CONTINUOUS
10
-0.788605
20
-0.0141017
11
-0.788469
21
-0.0149992
0
LINE
8
BLACK
6
CONTINUOUS
10
-0.788469
20
-0.0149992
11
-0.788189
21
-0.0158624
0
LINE
8
BLACK
6
CONTINUOUS
10
-0.788189
20
-0.0158624
11
-0.788189
21
-0.0271109
0
LINE
8
BLACK
6
CONTINUOUS
10
-0.788189
20
-0.0271109
11
-0.788469
21
-0.0279741
0
LINE
8
BLACK
6
CONTINUOUS
10
-0.788469
20
-0.0279741
11
-0.788605
21
-0.0288716
0
LINE
8
BLACK
6
CONTINUOUS
10
-0.788605
20
-0.0288716
11
-0.790854
21
-0.0333711
0
LINE
8
BLACK
6
CONTINUOUS
10
-0.790854
20
-0.0333711
11
-0.791302
21
-0.0338257
0
LINE
8
BLACK
6
CONTINUOUS
10
-0.791302
20
-0.0338257
11
-0.791592
21
-0.0343943
0
LINE
8
BLACK
6
CONTINUOUS
10
-0.791592
20
-0.0343943
11
-0.793842
21
-0.036644
0
LINE
8
BLACK
6
CONTINUOUS
10
-0.793842
20
-0.036644
11
-0.79441
21
-0.0369336
0
LINE
8
BLACK
6
CONTINUOUS
10
-0.79441
20
-0.0369336
11
-0.794865
21
-0.0373815
0
LINE
8
BLACK
6
CONTINUOUS
10
-0.794865
20
-0.0373815
11
-0.799364
21
-0.0396312
0
LINE
8
BLACK
6
CONTINUOUS
10
-0.799364
20
-0.0396312
11
-0.800262
21
-0.0397664
0
LINE
8
BLACK
6
CONTINUOUS
10
-0.800262
20
-0.0397664
11
-0.801125
21
-0.0400468
0
LINE
8
BLACK
6
CONTINUOUS
10
-0.801125
20
-0.0400468
11
-0.812373
21
-0.0400468
0
LINE
8
BLACK
6
CONTINUOUS
10
-0.812373
20
-0.0400468
11
-0.813237
21
-0.0397664
0
LINE
8
BLACK
6
CONTINUOUS
10
-0.813237
20
-0.0397664
11
-0.814134
21
-0.0396312
0
LINE
8
BLACK
6
CONTINUOUS
10
-0.814134
20
-0.0396312
11
-0.818634
21
-0.0373815
0
LINE
8
BLACK
6
CONTINUOUS
10
-0.818634
20
-0.0373815
11
-0.819088
21
-0.0369337
0
LINE
8
BLACK
6
CONTINUOUS
10
-0.819088
20
-0.0369337
11
-0.819657
21
-0.036644
0
LINE
8
BLACK
6
CONTINUOUS
10
-0.819657
20
-0.036644
11
-0.821906
21
-0.0343943
0
LINE
8
BLACK
6
CONTINUOUS
10
-0.821906
20
-0.0343943
11
-0.822196
21
-0.0338258
0
LINE
8
BLACK
6
CONTINUOUS
10
-0.822196
20
-0.0338258
11
-0.822644
21
-0.0333711
0
LINE
8
BLACK
6
CONTINUOUS
10
-0.822644
20
-0.0333711
11
-0.824894
21
-0.0288716
0
LINE
8
BLACK
6
CONTINUOUS
10
-0.824894
20
-0.0288716
11
-0.825029
21
-0.0279741
0
LINE
8
BLACK
6
CONTINUOUS
10
-0.825029
20
-0.0279741
11
-0.825309
21
-0.0271109
0
LINE
8
BLACK
6
CONTINUOUS
10
-0.825309
20
-0.0271109
11
-0.825309
21
-0.0158624
0
LINE
8
BLACK
6
CONTINUOUS
10
-0.825309
20
-0.0158624
11
-0.825029
21
-0.0149992
0
LINE
8
BLACK
6
CONTINUOUS
10
-0.825029
20
-0.0149992
11
-0.824894
21
-0.0141017
0
LINE
8
BLACK
6
CONTINUOUS
10
-0.824894
20
-0.0141017
11
-0.822644
21
-0.0096022
0
LINE
8
BLACK
6
CONTINUOUS
10
-0.822644
20
-0.0096022
11
-0.822196
21
-0.00914756
0
LINE
8
BLACK
6
CONTINUOUS
10
-0.822196
20
-0.00914756
11
-0.821907
21
-0.00857902
0
LINE
8
BLACK
6
CONTINUOUS
10
-0.821907
20
-0.00857902
11
-0.819657
21
-0.00632933
0
LINE
8
BLACK
6
CONTINUOUS
10
-0.819657
20
-0.00632933
11
-0.817489
21
-0.00522465
0
LINE
8
BLACK
6
CONTINUOUS
10
-0.817489
20
-0.00522465
11
-0.815086
21
-0.00560528
0
LINE
8
BLACK
6
CONTINUOUS
10
-0.815086
20
-0.00560528
11
-0.813365
21
-0.00732583
0
LINE
8
BLACK
6
CONTINUOUS
10
-0.813365
20
-0.00732583
11
-0.812984
21
-0.00972909
0
LINE
8
BLACK
6
CONTINUOUS
10
-0.812984
20
-0.00972909
11
-0.814089
21
-0.0118971
0
LINE
8
BLACK
6
CONTINUOUS
10
-0.814089
20
-0.0118971
11
-0.815887
21
-0.0136951
0
LINE
8
BLACK
6
CONTINUOUS
10
-0.815887
20
-0.0136951
11
-0.817435
21
-0.0167918
0
LINE
8
BLACK
6
CONTINUOUS
10
-0.817435
20
-0.0167918
11
-0.817435
21
-0.0261815
0
LINE
8
BLACK
6
CONTINUOUS
10
-0.817435
20
-0.0261815
11
-0.815887
21
-0.0292783
0
LINE
8
BLACK
6
CONTINUOUS
10
-0.815887
20
-0.0292783
11
-0.814541
21
-0.0306244
0
LINE
8
BLACK
6
CONTINUOUS
10
-0.814541
20
-0.0306244
11
-0.811444
21
-0.0321728
0
LINE
8
BLACK
6
CONTINUOUS
10
-0.811444
20
-0.0321728
11
-0.802054
21
-0.0321728
0
LINE
8
BLACK
6
CONTINUOUS
10
-0.802054
20
-0.0321728
11
-0.798958
21
-0.0306244
0
LINE
8
BLACK
6
CONTINUOUS
10
-0.798958
20
-0.0306244
11
-0.797611
21
-0.0292782
0
LINE
8
BLACK
6
CONTINUOUS
10
-0.797611
20
-0.0292782
11
-0.796063
21
-0.0261815
0
LINE
8
BLACK
6
CONTINUOUS
10
-0.796063
20
-0.0261815
11
-0.796063
21
-0.0167918
0
LINE
8
BLACK
6
CONTINUOUS
10
-0.796063
20
-0.0167918
11
-0.797611
21
-0.013695
0
LINE
8
BLACK
6
CONTINUOUS
10
-0.797611
20
-0.013695
11
-0.799409
21
-0.0118971
0
LINE
8
BLACK
6
CONTINUOUS
10
-0.799409
20
-0.0118971
11
-0.799913
21
-0.010909
0
LINE
8
BLACK
6
CONTINUOUS
10
-0.799913
20
-0.010909
11
-0.800472
21
-0.00995118
0
LINE
8
BLACK
6
CONTINUOUS
10
-0.800472
20
-0.00995118
11
-0.800461
21
-0.00983398
0
LINE
8
BLACK
6
CONTINUOUS
10
-0.800461
20
-0.00983398
11
-0.800514
21
-0.00972906
0
LINE
8
BLACK
6
CONTINUOUS
10
-0.800514
20
-0.00972906
11
-0.80034
21
-0.00863366
0
LINE
8
BLACK
6
CONTINUOUS
10
-0.80034
20
-0.00863366
11
-0.80023
21
-0.00753004
0
LINE
8
BLACK
6
CONTINUOUS
10
-0.80023
20
-0.00753004
11
-0.800152
21
-0.00744213
0
LINE
8
BLACK
6
CONTINUOUS
10
-0.800152
20
-0.00744213
11
-0.800133
21
-0.00732583
0
LINE
8
BLACK
6
CONTINUOUS
10
-0.800133
20
-0.00732583
11
-0.799349
21
-0.00654161
0
LINE
8
BLACK
6
CONTINUOUS
10
-0.799349
20
-0.00654161
11
-0.798611
21
-0.00571362
0
LINE
8
BLACK
6
CONTINUOUS
10
-0.798611
20
-0.00571362
11
-0.798496
21
-0.00568854
0
LINE
8
BLACK
6
CONTINUOUS
10
-0.798496
20
-0.00568854
11
-0.798413
21
-0.00560528
0
LINE
8
BLACK
6
CONTINUOUS
10
-0.798413
20
-0.00560528
11
-0.797317
21
-0.00543177
0
LINE
8
BLACK
6
CONTINUOUS
10
-0.797317
20
-0.00543177
11
-0.796234
21
-0.00519571
0
LINE
8
BLACK
6
CONTINUOUS
10
-0.796234
20
-0.00519571
11
-0.773737
21
-0.00744543
0
LINE
8
BLACK
6
CONTINUOUS
10
0.396176
20
0.0310985
11
0.397606
21
0.02913
0
LINE
8
BLACK
6
CONTINUOUS
10
0.397606
20
0.02913
11
0.397606
21
0.0266968
0
LINE
8
BLACK
6
CONTINUOUS
10
0.397606
20
0.0266968
11
0.396176
21
0.0247283
0
LINE
8
BLACK
6
CONTINUOUS
10
0.396176
20
0.0247283
11
0.393862
21
0.0239764
0
LINE
8
BLACK
6
CONTINUOUS
10
0.393862
20
0.0239764
11
0.373053
21
0.0239764
0
LINE
8
BLACK
6
CONTINUOUS
10
0.373053
20
0.0239764
11
0.371809
21
0.01154
0
LINE
8
BLACK
6
CONTINUOUS
10
0.371809
20
0.01154
11
0.372604
21
0.0119372
0
LINE
8
BLACK
6
CONTINUOUS
10
0.372604
20
0.0119372
11
0.373501
21
0.0120724
0
LINE
8
BLACK
6
CONTINUOUS
10
0.373501
20
0.0120724
11
0.374364
21
0.0123529
0
LINE
8
BLACK
6
CONTINUOUS
10
0.374364
20
0.0123529
11
0.38655
21
0.0123529
0
LINE
8
BLACK
6
CONTINUOUS
10
0.38655
20
0.0123529
11
0.387414
21
0.0120724
0
LINE
8
BLACK
6
CONTINUOUS
10
0.387414
20
0.0120724
11
0.388311
21
0.0119372
0
LINE
8
BLACK
6
CONTINUOUS
10
0.388311
20
0.0119372
11
0.393186
21
0.00950004
0
LINE
8
BLACK
6
CONTINUOUS
10
0.393186
20
0.00950004
11
0.39364
21
0.00905224
0
LINE
8
BLACK
6
CONTINUOUS
10
0.39364
20
0.00905224
11
0.394209
21
0.00876256
0
LINE
8
BLACK
6
CONTINUOUS
10
0.394209
20
0.00876256
11
0.396646
21
0.00632539
0
LINE
8
BLACK
6
CONTINUOUS
10
0.396646
20
0.00632539
11
0.396936
21
0.00575685
0
LINE
8
BLACK
6
CONTINUOUS
10
0.396936
20
0.00575685
11
0.397383
21
0.00530217
0
LINE
8
BLACK
6
CONTINUOUS
10
0.397383
20
0.00530217
11
0.399821
21
0.000427756
0
LINE
8
BLACK
6
CONTINUOUS
10
0.399821
20
0.000427756
11
0.399956
21
-0.000469764
0
LINE
8
BLACK
6
CONTINUOUS
10
0.399956
20
-0.000469764
11
0.400236
21
-0.00133291
0
LINE
8
BLACK
6
CONTINUOUS
10
0.400236
20
-0.00133291
11
0.400236
21
-0.0135189
0
LINE
8
BLACK
6
CONTINUOUS
10
0.400236
20
-0.0135189
11
0.399956
21
-0.014382
0
LINE
8
BLACK
6
CONTINUOUS
10
0.399956
20
-0.014382
11
0.399821
21
-0.0152796
0
LINE
8
BLACK
6
CONTINUOUS
10
0.399821
20
-0.0152796
11
0.397383
21
-0.020154
0
LINE
8
BLACK
6
CONTINUOUS
10
0.397383
20
-0.020154
11
0.396936
21
-0.0206086
0
LINE
8
BLACK
6
CONTINUOUS
10
0.396936
20
-0.0206086
11
0.396646
21
-0.0211772
0
LINE
8
BLACK
6
CONTINUOUS
10
0.396646
20
-0.0211772
11
0.394209
21
-0.0236144
0
LINE
8
BLACK
6
CONTINUOUS
10
0.394209
20
-0.0236144
11
0.39364
21
-0.0239041
0
LINE
8
BLACK
6
CONTINUOUS
10
0.39364
20
-0.0239041
11
0.393186
21
-0.0243519
0
LINE
8
BLACK
6
CONTINUOUS
10
0.393186
20
-0.0243519
11
0.388311
21
-0.0267891
0
LINE
8
BLACK
6
CONTINUOUS
10
0.388311
20
-0.0267891
11
0.387414
21
-0.0269243
0
LINE
8
BLACK
6
CONTINUOUS
10
0.387414
20
-0.0269243
11
0.38655
21
-0.0272047
0
LINE
8
BLACK
6
CONTINUOUS
10
0.38655
20
-0.0272047
11
0.374364
21
-0.0272047
0
LINE
8
BLACK
6
CONTINUOUS
10
0.374364
20
-0.0272047
11
0.373501
21
-0.0269243
0
LINE
8
BLACK
6
CONTINUOUS
10
0.373501
20
-0.0269243
11
0.372604
21
-0.0267891
0
LINE
8
BLACK
6
CONTINUOUS
10
0.372604
20
-0.0267891
11
0.367729
21
-0.0243519
0
LINE
8
BLACK
6
CONTINUOUS
10
0.367729
20
-0.0243519
11
0.367275
21
-0.0239041
0
LINE
8
BLACK
6
CONTINUOUS
10
0.367275
20
-0.0239041
11
0.366706
21
-0.0236144
0
LINE
8
BLACK
6
CONTINUOUS
10
0.366706
20
-0.0236144
11
0.364269
21
-0.0211772
0
LINE
8
BLACK
6
CONTINUOUS
10
0.364269
20
-0.0211772
11
0.363164
21
-0.0190091
0
LINE
8
BLACK
6
CONTINUOUS
10
0.363164
20
-0.0190091
11
0.363545
21
-0.0166059
0
LINE
8
BLACK
6
CONTINUOUS
10
0.363545
20
-0.0166059
11
0.365265
21
-0.0148854
0
LINE
8
BLACK
6
CONTINUOUS
10
0.365265
20
-0.0148854
11
0.367669
21
-0.0145047
0
LINE
8
BLACK
6
CONTINUOUS
10
0.367669
20
-0.0145047
11
0.369837
21
-0.0156094
0
LINE
8
BLACK
6
CONTINUOUS
10
0.369837
20
-0.0156094
11
0.371822
21
-0.0175948
0
LINE
8
BLACK
6
CONTINUOUS
10
0.371822
20
-0.0175948
11
0.375294
21
-0.0193307
0
LINE
8
BLACK
6
CONTINUOUS
10
0.375294
20
-0.0193307
11
0.385621
21
-0.0193307
0
LINE
8
BLACK
6
CONTINUOUS
10
0.385621
20
-0.0193307
11
0.389093
21
-0.0175948
0
LINE
8
BLACK
6
CONTINUOUS
10
0.389093
20
-0.0175948
11
0.390626
21
-0.0160611
0
LINE
8
BLACK
6
CONTINUOUS
10
0.390626
20
-0.0160611
11
0.392362
21
-0.0125894
0
LINE
8
BLACK
6
CONTINUOUS
10
0.392362
20
-0.0125894
11
0.392362
21
-0.00226236
0
LINE
8
BLACK
6
CONTINUOUS
10
0.392362
20
-0.00226236
11
0.390626
21
0.00120941
0
LINE
8
BLACK
6
CONTINUOUS
10
0.390626
20
0.00120941
11
0.389093
21
0.00274299
0
LINE
8
BLACK
6
CONTINUOUS
10
0.389093
20
0.00274299
11
0.385621
21
0.00447886
0
LINE
8
BLACK
6
CONTINUOUS
10
0.385621
20
0.00447886
11
0.375294
21
0.00447886
0
LINE
8
BLACK
6
CONTINUOUS
10
0.375294
20
0.00447886
11
0.371822
21
0.00274299
0
LINE
8
BLACK
6
CONTINUOUS
10
0.371822
20
0.00274299
11
0.369837
21
0.000757598
0
LINE
8
BLACK
6
CONTINUOUS
10
0.369837
20
0.000757598
11
0.368849
21
0.000254094
0
LINE
8
BLACK
6
CONTINUOUS
10
0.368849
20
0.000254094
11
0.367891
21
-0.000305315
0
LINE
8
BLACK
6
CONTINUOUS
10
0.367891
20
-0.000305315
11
0.367774
21
-0.000293583
0
LINE
8
BLACK
6
CONTINUOUS
10
0.367774
20
-0.000293583
11
0.367669
21
-0.000347087
0
LINE
8
BLACK
6
CONTINUOUS
10
0.367669
20
-0.000347087
11
0.366573
21
-0.000173504
0
LINE
8
BLACK
6
CONTINUOUS
10
0.366573
20
-0.000173504
11
0.36547
21
-6.3189e-05
0
LINE
8
BLACK
6
CONTINUOUS
10
0.36547
20
-6.3189e-05
11
0.365382
21
1.51575e-05
0
LINE
8
BLACK
6
CONTINUOUS
10
0.365382
20
1.51575e-05
11
0.365265
21
3.35827e-05
0
LINE
8
BLACK
6
CONTINUOUS
10
0.365265
20
3.35827e-05
11
0.364481
21
0.000817835
0
LINE
8
BLACK
6
CONTINUOUS
10
0.364481
20
0.000817835
11
0.363653
21
0.00155579
0
LINE
8
BLACK
6
CONTINUOUS
10
0.363653
20
0.00155579
11
0.363628
21
0.00167091
0
LINE
8
BLACK
6
CONTINUOUS
10
0.363628
20
0.00167091
11
0.363545
21
0.00175417
0
LINE
8
BLACK
6
CONTINUOUS
10
0.363545
20
0.00175417
11
0.363371
21
0.00284949
0
LINE
8
BLACK
6
CONTINUOUS
10
0.363371
20
0.00284949
11
0.363135
21
0.00393323
0
LINE
8
BLACK
6
CONTINUOUS
10
0.363135
20
0.00393323
11
0.365573
21
0.0283052
0
LINE
8
BLACK
6
CONTINUOUS
10
0.365573
20
0.0283052
11
0.365746
21
0.0286994
0
LINE
8
BLACK
6
CONTINUOUS
10
0.365746
20
0.0286994
11
0.365746
21
0.02913
0
LINE
8
BLACK
6
CONTINUOUS
10
0.365746
20
0.02913
11
0.366224
21
0.0297881
0
LINE
8
BLACK
6
CONTINUOUS
10
0.366224
20
0.0297881
11
0.366551
21
0.030533
0
LINE
8
BLACK
6
CONTINUOUS
10
0.366551
20
0.030533
11
0.366923
21
0.0307502
0
LINE
8
BLACK
6
CONTINUOUS
10
0.366923
20
0.0307502
11
0.367176
21
0.0310985
0
LINE
8
BLACK
6
CONTINUOUS
10
0.367176
20
0.0310985
11
0.36795
21
0.0313499
0
LINE
8
BLACK
6
CONTINUOUS
10
0.36795
20
0.0313499
11
0.368652
21
0.0317602
0
LINE
8
BLACK
6
CONTINUOUS
10
0.368652
20
0.0317602
11
0.369081
21
0.0317174
0
LINE
8
BLACK
6
CONTINUOUS
10
0.369081
20
0.0317174
11
0.36949
21
0.0318504
0
LINE
8
BLACK
6
CONTINUOUS
10
0.36949
20
0.0318504
11
0.393862
21
0.0318504
0
LINE
8
BLACK
6
CONTINUOUS
10
0.393862
20
0.0318504
11
0.396176
21
0.0310985
0
LINE
8
BLACK
6
CONTINUOUS
10
0.447381
20
0.0310809
11
0.448797
21
0.0291016
0
LINE
8
BLACK
6
CONTINUOUS
10
0.448797
20
0.0291016
11
0.448778
21
0.0266685
0
LINE
8
BLACK
6
CONTINUOUS
10
0.448778
20
0.0266685
11
0.431718
21
-0.0245127
0
LINE
8
BLACK
6
CONTINUOUS
10
0.431718
20
-0.0245127
11
0.431012
21
-0.0254685
0
LINE
8
BLACK
6
CONTINUOUS
10
0.431012
20
-0.0254685
11
0.430321
21
-0.0264351
0
LINE
8
BLACK
6
CONTINUOUS
10
0.430321
20
-0.0264351
11
0.430291
21
-0.026445
0
LINE
8
BLACK
6
CONTINUOUS
10
0.430291
20
-0.026445
11
0.430273
21
-0.0264703
0
LINE
8
BLACK
6
CONTINUOUS
10
0.430273
20
-0.0264703
11
0.429138
21
-0.0268295
0
LINE
8
BLACK
6
CONTINUOUS
10
0.429138
20
-0.0268295
11
0.428013
21
-0.0272046
0
LINE
8
BLACK
6
CONTINUOUS
10
0.428013
20
-0.0272046
11
0.427983
21
-0.0271951
0
LINE
8
BLACK
6
CONTINUOUS
10
0.427983
20
-0.0271951
11
0.427953
21
-0.0272046
0
LINE
8
BLACK
6
CONTINUOUS
10
0.427953
20
-0.0272046
11
0.426825
21
-0.0268287
0
LINE
8
BLACK
6
CONTINUOUS
10
0.426825
20
-0.0268287
11
0.425693
21
-0.0264703
0
LINE
8
BLACK
6
CONTINUOUS
10
0.425693
20
-0.0264703
11
0.425674
21
-0.026445
0
LINE
8
BLACK
6
CONTINUOUS
10
0.425674
20
-0.026445
11
0.425644
21
-0.0264351
0
LINE
8
BLACK
6
CONTINUOUS
10
0.425644
20
-0.0264351
11
0.424953
21
-0.0254685
0
LINE
8
BLACK
6
CONTINUOUS
10
0.424953
20
-0.0254685
11
0.424248
21
-0.0245127
0
LINE
8
BLACK
6
CONTINUOUS
10
0.424248
20
-0.0245127
11
0.407187
21
0.0266684
0
LINE
8
BLACK
6
CONTINUOUS
10
0.407187
20
0.0266684
11
0.407169
21
0.0291016
0
LINE
8
BLACK
6
CONTINUOUS
10
0.407169
20
0.0291016
11
0.408584
21
0.0310809
0
LINE
8
BLACK
6
CONTINUOUS
10
0.408584
20
0.0310809
11
0.410892
21
0.0318504
0
LINE
8
BLACK
6
CONTINUOUS
10
0.410892
20
0.0318504
11
0.413212
21
0.031116
0
LINE
8
BLACK
6
CONTINUOUS
10
0.413212
20
0.031116
11
0.414657
21
0.0291584
0
LINE
8
BLACK
6
CONTINUOUS
10
0.414657
20
0.0291584
11
0.427983
21
-0.0108178
0
LINE
8
BLACK
6
CONTINUOUS
10
0.427983
20
-0.0108178
11
0.441308
21
0.0291584
0
LINE
8
BLACK
6
CONTINUOUS
10
0.441308
20
0.0291584
11
0.442753
21
0.0311161
0
LINE
8
BLACK
6
CONTINUOUS
10
0.442753
20
0.0311161
11
0.445073
21
0.0318504
0
LINE
8
BLACK
6
CONTINUOUS
10
0.445073
20
0.0318504
11
0.447381
21
0.0310809
0
LINE
8
BLACK
6
CONTINUOUS
10
0.328806
20
0.0180416
11
0.329558
21
0.0157274
0
LINE
8
BLACK
6
CONTINUOUS
10
0.329558
20
0.0157274
11
0.329558
21
0.00016689
0
LINE
8
BLACK
6
CONTINUOUS
10
0.329558
20
0.00016689
11
0.345118
21
0.00016689
0
LINE
8
BLACK
6
CONTINUOUS
10
0.345118
20
0.00016689
11
0.347432
21
-0.000585
0
LINE
8
BLACK
6
CONTINUOUS
10
0.347432
20
-0.000585
11
0.348862
21
-0.0025535
0
LINE
8
BLACK
6
CONTINUOUS
10
0.348862
20
-0.0025535
11
0.348862
21
-0.00498673
0
LINE
8
BLACK
6
CONTINUOUS
10
0.348862
20
-0.00498673
11
0.347432
21
-0.00695524
0
LINE
8
BLACK
6
CONTINUOUS
10
0.347432
20
-0.00695524
11
0.345118
21
-0.00770713
0
LINE
8
BLACK
6
CONTINUOUS
10
0.345118
20
-0.00770713
11
0.329558
21
-0.00770713
0
LINE
8
BLACK
6
CONTINUOUS
10
0.329558
20
-0.00770713
11
0.329558
21
-0.0232677
0
LINE
8
BLACK
6
CONTINUOUS
10
0.329558
20
-0.0232677
11
0.328806
21
-0.0255818
0
LINE
8
BLACK
6
CONTINUOUS
10
0.328806
20
-0.0255818
11
0.326837
21
-0.027012
0
LINE
8
BLACK
6
CONTINUOUS
10
0.326837
20
-0.027012
11
0.324404
21
-0.027012
0
LINE
8
BLACK
6
CONTINUOUS
10
0.324404
20
-0.027012
11
0.322435
21
-0.0255818
0
LINE
8
BLACK
6
CONTINUOUS
10
0.322435
20
-0.0255818
11
0.321684
21
-0.0232677
0
LINE
8
BLACK
6
CONTINUOUS
10
0.321684
20
-0.0232677
11
0.321684
21
-0.00770713
0
LINE
8
BLACK
6
CONTINUOUS
10
0.321684
20
-0.00770713
11
0.306123
21
-0.00770713
0
LINE
8
BLACK
6
CONTINUOUS
10
0.306123
20
-0.00770713
11
0.303809
21
-0.00695524
0
LINE
8
BLACK
6
CONTINUOUS
10
0.303809
20
-0.00695524
11
0.302379
21
-0.00498673
0
LINE
8
BLACK
6
CONTINUOUS
10
0.302379
20
-0.00498673
11
0.302379
21
-0.0025535
0
LINE
8
BLACK
6
CONTINUOUS
10
0.302379
20
-0.0025535
11
0.303809
21
-0.000585
0
LINE
8
BLACK
6
CONTINUOUS
10
0.303809
20
-0.000585
11
0.306123
21
0.00016689
0
LINE
8
BLACK
6
CONTINUOUS
10
0.306123
20
0.00016689
11
0.321684
21
0.00016689
0
LINE
8
BLACK
6
CONTINUOUS
10
0.321684
20
0.00016689
11
0.321684
21
0.0157274
0
LINE
8
BLACK
6
CONTINUOUS
10
0.321684
20
0.0157274
11
0.322435
21
0.0180416
0
LINE
8
BLACK
6
CONTINUOUS
10
0.322435
20
0.0180416
11
0.324404
21
0.0194718
0
LINE
8
BLACK
6
CONTINUOUS
10
0.324404
20
0.0194718
11
0.326837
21
0.0194718
0
LINE
8
BLACK
6
CONTINUOUS
10
0.326837
20
0.0194718
11
0.328806
21
0.0180416
0
LINE
8
BLACK
6
CONTINUOUS
10
-0.753026
20
0.033932
11
-0.752199
21
0.0340068
0
LINE
8
BLACK
6
CONTINUOUS
10
-0.752199
20
0.0340068
11
-0.751682
21
0.0337372
0
LINE
8
BLACK
6
CONTINUOUS
10
-0.751682
20
0.0337372
11
-0.751105
21
0.0336535
0
LINE
8
BLACK
6
CONTINUOUS
10
-0.751105
20
0.0336535
11
-0.750478
21
0.0331097
0
LINE
8
BLACK
6
CONTINUOUS
10
-0.750478
20
0.0331097
11
-0.749742
21
0.0327263
0
LINE
8
BLACK
6
CONTINUOUS
10
-0.749742
20
0.0327263
11
-0.721318
21
0.00539559
0
LINE
8
BLACK
6
CONTINUOUS
10
-0.721318
20
0.00539559
11
-0.715826
21
0.00363524
0
LINE
8
BLACK
6
CONTINUOUS
10
-0.715826
20
0.00363524
11
-0.712843
21
0.00363524
0
LINE
8
BLACK
6
CONTINUOUS
10
-0.712843
20
0.00363524
11
-0.709689
21
0.00515118
0
LINE
8
BLACK
6
CONTINUOUS
10
-0.709689
20
0.00515118
11
-0.708403
21
0.00638823
0
LINE
8
BLACK
6
CONTINUOUS
10
-0.708403
20
0.00638823
11
-0.706894
21
0.00929079
0
LINE
8
BLACK
6
CONTINUOUS
10
-0.706894
20
0.00929079
11
-0.706894
21
0.018602
0
LINE
8
BLACK
6
CONTINUOUS
10
-0.706894
20
0.018602
11
-0.708403
21
0.0215046
0
LINE
8
BLACK
6
CONTINUOUS
10
-0.708403
20
0.0215046
11
-0.710258
21
0.023288
0
LINE
8
BLACK
6
CONTINUOUS
10
-0.710258
20
0.023288
11
-0.711125
21
0.0244029
0
LINE
8
BLACK
6
CONTINUOUS
10
-0.711125
20
0.0244029
11
-0.711761
21
0.0270995
0
LINE
8
BLACK
6
CONTINUOUS
10
-0.711761
20
0.0270995
11
-0.710839
21
0.0297125
0
LINE
8
BLACK
6
CONTINUOUS
10
-0.710839
20
0.0297125
11
-0.708652
21
0.0314135
0
LINE
8
BLACK
6
CONTINUOUS
10
-0.708652
20
0.0314135
11
-0.705893
21
0.0316633
0
LINE
8
BLACK
6
CONTINUOUS
10
-0.705893
20
0.0316633
11
-0.703436
21
0.0303828
0
LINE
8
BLACK
6
CONTINUOUS
10
-0.703436
20
0.0303828
11
-0.700998
21
0.0280394
0
LINE
8
BLACK
6
CONTINUOUS
10
-0.700998
20
0.0280394
11
-0.700131
21
0.0269245
0
LINE
8
BLACK
6
CONTINUOUS
10
-0.700131
20
0.0269245
11
-0.700109
21
0.0268314
0
LINE
8
BLACK
6
CONTINUOUS
10
-0.700109
20
0.0268314
11
-0.700043
21
0.0267624
0
LINE
8
BLACK
6
CONTINUOUS
10
-0.700043
20
0.0267624
11
-0.697606
21
0.0220755
0
LINE
8
BLACK
6
CONTINUOUS
10
-0.697606
20
0.0220755
11
-0.697141
21
0.0207419
0
LINE
8
BLACK
6
CONTINUOUS
10
-0.697141
20
0.0207419
11
-0.697186
21
0.0202649
0
LINE
8
BLACK
6
CONTINUOUS
10
-0.697186
20
0.0202649
11
-0.697051
21
0.0198051
0
LINE
8
BLACK
6
CONTINUOUS
10
-0.697051
20
0.0198051
11
-0.697051
21
0.0080878
0
LINE
8
BLACK
6
CONTINUOUS
10
-0.697051
20
0.0080878
11
-0.697254
21
0.00669008
0
LINE
8
BLACK
6
CONTINUOUS
10
-0.697254
20
0.00669008
11
-0.697514
21
0.00628756
0
LINE
8
BLACK
6
CONTINUOUS
10
-0.697514
20
0.00628756
11
-0.697606
21
0.0058174
0
LINE
8
BLACK
6
CONTINUOUS
10
-0.697606
20
0.0058174
11
-0.700043
21
0.00113047
0
LINE
8
BLACK
6
CONTINUOUS
10
-0.700043
20
0.00113047
11
-0.700868
21
-1.61024e-05
0
LINE
8
BLACK
6
CONTINUOUS
10
-0.700868
20
-1.61024e-05
11
-0.700951
21
-6.34252e-05
0
LINE
8
BLACK
6
CONTINUOUS
10
-0.700951
20
-6.34252e-05
11
-0.700998
21
-0.000146535
0
LINE
8
BLACK
6
CONTINUOUS
10
-0.700998
20
-0.000146535
11
-0.703436
21
-0.00249
0
LINE
8
BLACK
6
CONTINUOUS
10
-0.703436
20
-0.00249
11
-0.704584
21
-0.00331268
0
LINE
8
BLACK
6
CONTINUOUS
10
-0.704584
20
-0.00331268
11
-0.704658
21
-0.00332717
0
LINE
8
BLACK
6
CONTINUOUS
10
-0.704658
20
-0.00332717
11
-0.704714
21
-0.00337791
0
LINE
8
BLACK
6
CONTINUOUS
10
-0.704714
20
-0.00337791
11
-0.709589
21
-0.00572134
0
LINE
8
BLACK
6
CONTINUOUS
10
-0.709589
20
-0.00572134
11
-0.710936
21
-0.00614429
0
LINE
8
BLACK
6
CONTINUOUS
10
-0.710936
20
-0.00614429
11
-0.711335
21
-0.00609409
0
LINE
8
BLACK
6
CONTINUOUS
10
-0.711335
20
-0.00609409
11
-0.711721
21
-0.00620728
0
LINE
8
BLACK
6
CONTINUOUS
10
-0.711721
20
-0.00620728
11
-0.716595
21
-0.00620728
0
LINE
8
BLACK
6
CONTINUOUS
10
-0.716595
20
-0.00620728
11
-0.717993
21
-0.00600461
0
LINE
8
BLACK
6
CONTINUOUS
10
-0.717993
20
-0.00600461
11
-0.718041
21
-0.0059739
0
LINE
8
BLACK
6
CONTINUOUS
10
-0.718041
20
-0.0059739
11
-0.718097
21
-0.00597248
0
LINE
8
BLACK
6
CONTINUOUS
10
-0.718097
20
-0.00597248
11
-0.725409
21
-0.00362902
0
LINE
8
BLACK
6
CONTINUOUS
10
-0.725409
20
-0.00362902
11
-0.726678
21
-0.00300941
0
LINE
8
BLACK
6
CONTINUOUS
10
-0.726678
20
-0.00300941
11
-0.726945
21
-0.00268437
0
LINE
8
BLACK
6
CONTINUOUS
10
-0.726945
20
-0.00268437
11
-0.727318
21
-0.00249
0
LINE
8
BLACK
6
CONTINUOUS
10
-0.727318
20
-0.00249
11
-0.748232
21
0.0176197
0
LINE
8
BLACK
6
CONTINUOUS
10
-0.748232
20
0.0176197
11
-0.748232
21
-0.00128602
0
LINE
8
BLACK
6
CONTINUOUS
10
-0.748232
20
-0.00128602
11
-0.748435
21
-0.00268374
0
LINE
8
BLACK
6
CONTINUOUS
10
-0.748435
20
-0.00268374
11
-0.749938
21
-0.00501138
0
LINE
8
BLACK
6
CONTINUOUS
10
-0.749938
20
-0.00501138
11
-0.75246
21
-0.00615819
0
LINE
8
BLACK
6
CONTINUOUS
10
-0.75246
20
-0.00615819
11
-0.755202
21
-0.00576063
0
LINE
8
BLACK
6
CONTINUOUS
10
-0.755202
20
-0.00576063
11
-0.757295
21
-0.00394469
0
LINE
8
BLACK
6
CONTINUOUS
10
-0.757295
20
-0.00394469
11
-0.758075
21
-0.00128602
0
LINE
8
BLACK
6
CONTINUOUS
10
-0.758075
20
-0.00128602
11
-0.758075
21
0.0291789
0
LINE
8
BLACK
6
CONTINUOUS
10
-0.758075
20
0.0291789
11
-0.758048
21
0.0293611
0
LINE
8
BLACK
6
CONTINUOUS
10
-0.758048
20
0.0293611
11
-0.758068
21
0.029443
0
LINE
8
BLACK
6
CONTINUOUS
10
-0.758068
20
0.029443
11
-0.758015
21
0.0295933
0
LINE
8
BLACK
6
CONTINUOUS
10
-0.758015
20
0.0295933
11
-0.757872
21
0.0305766
0
LINE
8
BLACK
6
CONTINUOUS
10
-0.757872
20
0.0305766
11
-0.757422
21
0.0312735
0
LINE
8
BLACK
6
CONTINUOUS
10
-0.757422
20
0.0312735
11
-0.757146
21
0.032056
0
LINE
8
BLACK
6
CONTINUOUS
10
-0.757146
20
0.032056
11
-0.756686
21
0.0324141
0
LINE
8
BLACK
6
CONTINUOUS
10
-0.756686
20
0.0324141
11
-0.756369
21
0.0329043
0
LINE
8
BLACK
6
CONTINUOUS
10
-0.756369
20
0.0329043
11
-0.755614
21
0.0332476
0
LINE
8
BLACK
6
CONTINUOUS
10
-0.755614
20
0.0332476
11
-0.754959
21
0.033757
0
LINE
8
BLACK
6
CONTINUOUS
10
-0.754959
20
0.033757
11
-0.754378
21
0.0338096
0
LINE
8
BLACK
6
CONTINUOUS
10
-0.754378
20
0.0338096
11
-0.753847
21
0.0340511
0
LINE
8
BLACK
6
CONTINUOUS
10
-0.753847
20
0.0340511
11
-0.753026
21
0.033932
0
LINE
8
BLACK
6
CONTINUOUS
10
-0.771688
20
0.0412202
11
-0.770338
21
0.0391956
0
LINE
8
BLACK
6
CONTINUOUS
10
-0.770338
20
0.0391956
11
-0.770436
21
0.0367644
0
LINE
8
BLACK
6
CONTINUOUS
10
-0.770436
20
0.0367644
11
-0.771944
21
0.0348551
0
LINE
8
BLACK
6
CONTINUOUS
10
-0.771944
20
0.0348551
11
-0.790653
21
0.0223829
0
LINE
8
BLACK
6
CONTINUOUS
10
-0.790653
20
0.0223829
11
-0.771944
21
0.00991063
0
LINE
8
BLACK
6
CONTINUOUS
10
-0.771944
20
0.00991063
11
-0.770436
21
0.00800138
0
LINE
8
BLACK
6
CONTINUOUS
10
-0.770436
20
0.00800138
11
-0.770338
21
0.00557012
0
LINE
8
BLACK
6
CONTINUOUS
10
-0.770338
20
0.00557012
11
-0.771688
21
0.00354555
0
LINE
8
BLACK
6
CONTINUOUS
10
-0.771688
20
0.00354555
11
-0.77397
21
0.00270098
0
LINE
8
BLACK
6
CONTINUOUS
10
-0.77397
20
0.00270098
11
-0.776312
21
0.00335906
0
LINE
8
BLACK
6
CONTINUOUS
10
-0.776312
20
0.00335906
11
-0.79775
21
0.0176512
0
LINE
8
BLACK
6
CONTINUOUS
10
-0.79775
20
0.0176512
11
-0.819189
21
0.00335906
0
LINE
8
BLACK
6
CONTINUOUS
10
-0.819189
20
0.00335906
11
-0.821531
21
0.00270102
0
LINE
8
BLACK
6
CONTINUOUS
10
-0.821531
20
0.00270102
11
-0.823813
21
0.00354559
0
LINE
8
BLACK
6
CONTINUOUS
10
-0.823813
20
0.00354559
11
-0.825163
21
0.00557016
0
LINE
8
BLACK
6
CONTINUOUS
10
-0.825163
20
0.00557016
11
-0.825065
21
0.00800138
0
LINE
8
BLACK
6
CONTINUOUS
10
-0.825065
20
0.00800138
11
-0.823556
21
0.00991063
0
LINE
8
BLACK
6
CONTINUOUS
10
-0.823556
20
0.00991063
11
-0.804848
21
0.0223829
0
LINE
8
BLACK
6
CONTINUOUS
10
-0.804848
20
0.0223829
11
-0.823556
21
0.0348551
0
LINE
8
BLACK
6
CONTINUOUS
10
-0.823556
20
0.0348551
11
-0.825065
21
0.0367644
0
LINE
8
BLACK
6
CONTINUOUS
10
-0.825065
20
0.0367644
11
-0.825163
21
0.0391956
0
LINE
8
BLACK
6
CONTINUOUS
10
-0.825163
20
0.0391956
11
-0.823813
21
0.0412202
0
LINE
8
BLACK
6
CONTINUOUS
10
-0.823813
20
0.0412202
11
-0.821531
21
0.0420647
0
LINE
8
BLACK
6
CONTINUOUS
10
-0.821531
20
0.0420647
11
-0.819189
21
0.0414067
0
LINE
8
BLACK
6
CONTINUOUS
10
-0.819189
20
0.0414067
11
-0.79775
21
0.0271146
0
LINE
8
BLACK
6
CONTINUOUS
10
-0.79775
20
0.0271146
11
-0.776312
21
0.0414067
0
LINE
8
BLACK
6
CONTINUOUS
10
-0.776312
20
0.0414067
11
-0.77397
21
0.0420648
0
LINE
8
BLACK
6
CONTINUOUS
10
-0.77397
20
0.0420648
11
-0.771688
21
0.0412202
0
LINE
8
BLACK
6
CONTINUOUS
10
-0.700575
20
0.0526452
11
-0.698247
21
0.0511422
0
LINE
8
BLACK
6
CONTINUOUS
10
-0.698247
20
0.0511422
11
-0.6971
21
0.04862
0
LINE
8
BLACK
6
CONTINUOUS
10
-0.6971
20
0.04862
11
-0.697498
21
0.045878
0
LINE
8
BLACK
6
CONTINUOUS
10
-0.697498
20
0.045878
11
-0.699314
21
0.0437853
0
LINE
8
BLACK
6
CONTINUOUS
10
-0.699314
20
0.0437853
11
-0.701972
21
0.0430053
0
LINE
8
BLACK
6
CONTINUOUS
10
-0.701972
20
0.0430053
11
-0.753153
21
0.0430053
0
LINE
8
BLACK
6
CONTINUOUS
10
-0.753153
20
0.0430053
11
-0.754551
21
0.043208
0
LINE
8
BLACK
6
CONTINUOUS
10
-0.754551
20
0.043208
11
-0.756879
21
0.0447109
0
LINE
8
BLACK
6
CONTINUOUS
10
-0.756879
20
0.0447109
11
-0.758026
21
0.0472331
0
LINE
8
BLACK
6
CONTINUOUS
10
-0.758026
20
0.0472331
11
-0.757628
21
0.0499752
0
LINE
8
BLACK
6
CONTINUOUS
10
-0.757628
20
0.0499752
11
-0.755812
21
0.0520679
0
LINE
8
BLACK
6
CONTINUOUS
10
-0.755812
20
0.0520679
11
-0.753153
21
0.0528478
0
LINE
8
BLACK
6
CONTINUOUS
10
-0.753153
20
0.0528478
11
-0.701972
21
0.0528478
0
LINE
8
BLACK
6
CONTINUOUS
10
-0.701972
20
0.0528478
11
-0.700575
21
0.0526452
0
LINE
8
BLACK
6
CONTINUOUS
10
-0.79166
20
0.0846611
11
-0.791171
21
0.084695
0
LINE
8
BLACK
6
CONTINUOUS
10
-0.791171
20
0.084695
11
-0.782172
21
0.0824453
0
LINE
8
BLACK
6
CONTINUOUS
10
-0.782172
20
0.0824453
11
-0.7818
21
0.0822126
0
LINE
8
BLACK
6
CONTINUOUS
10
-0.7818
20
0.0822126
11
-0.781366
21
0.0821472
0
LINE
8
BLACK
6
CONTINUOUS
10
-0.781366
20
0.0821472
11
-0.776867
21
0.0798975
0
LINE
8
BLACK
6
CONTINUOUS
10
-0.776867
20
0.0798975
11
-0.776412
21
0.0794497
0
LINE
8
BLACK
6
CONTINUOUS
10
-0.776412
20
0.0794497
11
-0.775844
21
0.07916
0
LINE
8
BLACK
6
CONTINUOUS
10
-0.775844
20
0.07916
11
-0.773594
21
0.0769103
0
LINE
8
BLACK
6
CONTINUOUS
10
-0.773594
20
0.0769103
11
-0.773304
21
0.0763418
0
LINE
8
BLACK
6
CONTINUOUS
10
-0.773304
20
0.0763418
11
-0.772857
21
0.0758871
0
LINE
8
BLACK
6
CONTINUOUS
10
-0.772857
20
0.0758871
11
-0.770607
21
0.0713876
0
LINE
8
BLACK
6
CONTINUOUS
10
-0.770607
20
0.0713876
11
-0.770472
21
0.0704901
0
LINE
8
BLACK
6
CONTINUOUS
10
-0.770472
20
0.0704901
11
-0.770191
21
0.069627
0
LINE
8
BLACK
6
CONTINUOUS
10
-0.770191
20
0.069627
11
-0.770191
21
0.0651275
0
LINE
8
BLACK
6
CONTINUOUS
10
-0.770191
20
0.0651275
11
-0.770472
21
0.0642644
0
LINE
8
BLACK
6
CONTINUOUS
10
-0.770472
20
0.0642644
11
-0.770607
21
0.0633669
0
LINE
8
BLACK
6
CONTINUOUS
10
-0.770607
20
0.0633669
11
-0.772857
21
0.0588674
0
LINE
8
BLACK
6
CONTINUOUS
10
-0.772857
20
0.0588674
11
-0.773304
21
0.0584128
0
LINE
8
BLACK
6
CONTINUOUS
10
-0.773304
20
0.0584128
11
-0.773594
21
0.0578442
0
LINE
8
BLACK
6
CONTINUOUS
10
-0.773594
20
0.0578442
11
-0.775844
21
0.0555945
0
LINE
8
BLACK
6
CONTINUOUS
10
-0.775844
20
0.0555945
11
-0.776412
21
0.0553048
0
LINE
8
BLACK
6
CONTINUOUS
10
-0.776412
20
0.0553048
11
-0.776867
21
0.054857
0
LINE
8
BLACK
6
CONTINUOUS
10
-0.776867
20
0.054857
11
-0.781366
21
0.0526073
0
LINE
8
BLACK
6
CONTINUOUS
10
-0.781366
20
0.0526073
11
-0.7818
21
0.0525419
0
LINE
8
BLACK
6
CONTINUOUS
10
-0.7818
20
0.0525419
11
-0.782172
21
0.0523092
0
LINE
8
BLACK
6
CONTINUOUS
10
-0.782172
20
0.0523092
11
-0.791171
21
0.0500595
0
LINE
8
BLACK
6
CONTINUOUS
10
-0.791171
20
0.0500595
11
-0.79166
21
0.0500933
0
LINE
8
BLACK
6
CONTINUOUS
10
-0.79166
20
0.0500933
11
-0.792126
21
0.0499419
0
LINE
8
BLACK
6
CONTINUOUS
10
-0.792126
20
0.0499419
11
-0.803375
21
0.0499419
0
LINE
8
BLACK
6
CONTINUOUS
10
-0.803375
20
0.0499419
11
-0.803841
21
0.0500933
0
LINE
8
BLACK
6
CONTINUOUS
10
-0.803841
20
0.0500933
11
-0.804329
21
0.0500595
0
LINE
8
BLACK
6
CONTINUOUS
10
-0.804329
20
0.0500595
11
-0.813328
21
0.0523092
0
LINE
8
BLACK
6
CONTINUOUS
10
-0.813328
20
0.0523092
11
-0.8137
21
0.0525419
0
LINE
8
BLACK
6
CONTINUOUS
10
-0.8137
20
0.0525419
11
-0.814134
21
0.0526073
0
LINE
8
BLACK
6
CONTINUOUS
10
-0.814134
20
0.0526073
11
-0.818634
21
0.054857
0
LINE
8
BLACK
6
CONTINUOUS
10
-0.818634
20
0.054857
11
-0.819088
21
0.0553048
0
LINE
8
BLACK
6
CONTINUOUS
10
-0.819088
20
0.0553048
11
-0.819657
21
0.0555945
0
LINE
8
BLACK
6
CONTINUOUS
10
-0.819657
20
0.0555945
11
-0.821907
21
0.0578442
0
LINE
8
BLACK
6
CONTINUOUS
10
-0.821907
20
0.0578442
11
-0.822196
21
0.0584128
0
LINE
8
BLACK
6
CONTINUOUS
10
-0.822196
20
0.0584128
11
-0.822644
21
0.0588674
0
LINE
8
BLACK
6
CONTINUOUS
10
-0.822644
20
0.0588674
11
-0.824894
21
0.0633668
0
LINE
8
BLACK
6
CONTINUOUS
10
-0.824894
20
0.0633668
11
-0.825029
21
0.0642644
0
LINE
8
BLACK
6
CONTINUOUS
10
-0.825029
20
0.0642644
11
-0.825309
21
0.0651275
0
LINE
8
BLACK
6
CONTINUOUS
10
-0.825309
20
0.0651275
11
-0.825309
21
0.069627
0
LINE
8
BLACK
6
CONTINUOUS
10
-0.825309
20
0.069627
11
-0.825029
21
0.0704901
0
LINE
8
BLACK
6
CONTINUOUS
10
-0.825029
20
0.0704901
11
-0.824894
21
0.0713876
0
LINE
8
BLACK
6
CONTINUOUS
10
-0.824894
20
0.0713876
11
-0.822644
21
0.0758871
0
LINE
8
BLACK
6
CONTINUOUS
10
-0.822644
20
0.0758871
11
-0.822196
21
0.0763418
0
LINE
8
BLACK
6
CONTINUOUS
10
-0.822196
20
0.0763418
11
-0.821907
21
0.0769103
0
LINE
8
BLACK
6
CONTINUOUS
10
-0.821907
20
0.0769103
11
-0.819657
21
0.07916
0
LINE
8
BLACK
6
CONTINUOUS
10
-0.819657
20
0.07916
11
-0.819088
21
0.0794497
0
LINE
8
BLACK
6
CONTINUOUS
10
-0.819088
20
0.0794497
11
-0.818634
21
0.0798975
0
LINE
8
BLACK
6
CONTINUOUS
10
-0.818634
20
0.0798975
11
-0.814134
21
0.0821472
0
LINE
8
BLACK
6
CONTINUOUS
10
-0.814134
20
0.0821472
11
-0.8137
21
0.0822126
0
LINE
8
BLACK
6
CONTINUOUS
10
-0.8137
20
0.0822126
11
-0.813328
21
0.0824453
0
LINE
8
BLACK
6
CONTINUOUS
10
-0.813328
20
0.0824453
11
-0.804329
21
0.084695
0
LINE
8
BLACK
6
CONTINUOUS
10
-0.804329
20
0.084695
11
-0.803841
21
0.0846611
0
LINE
8
BLACK
6
CONTINUOUS
10
-0.803841
20
0.0846611
11
-0.803375
21
0.0848126
0
LINE
8
BLACK
6
CONTINUOUS
10
-0.803375
20
0.0848126
11
-0.792126
21
0.0848126
0
LINE
8
BLACK
6
CONTINUOUS
10
-0.792126
20
0.0848126
11
-0.79166
21
0.0846611
0
LINE
8
BLACK
6
CONTINUOUS
10
-0.80289
20
0.0769385
11
-0.810999
21
0.0749112
0
LINE
8
BLACK
6
CONTINUOUS
10
-0.810999
20
0.0749112
11
-0.814541
21
0.0731405
0
LINE
8
BLACK
6
CONTINUOUS
10
-0.814541
20
0.0731405
11
-0.815887
21
0.0717943
0
LINE
8
BLACK
6
CONTINUOUS
10
-0.815887
20
0.0717943
11
-0.817435
21
0.0686976
0
LINE
8
BLACK
6
CONTINUOUS
10
-0.817435
20
0.0686976
11
-0.817435
21
0.066057
0
LINE
8
BLACK
6
CONTINUOUS
10
-0.817435
20
0.066057
11
-0.815887
21
0.0629603
0
LINE
8
BLACK
6
CONTINUOUS
10
-0.815887
20
0.0629603
11
-0.814541
21
0.0616141
0
LINE
8
BLACK
6
CONTINUOUS
10
-0.814541
20
0.0616141
11
-0.810999
21
0.0598433
0
LINE
8
BLACK
6
CONTINUOUS
10
-0.810999
20
0.0598433
11
-0.80289
21
0.0578159
0
LINE
8
BLACK
6
CONTINUOUS
10
-0.80289
20
0.0578159
11
-0.792611
21
0.0578159
0
LINE
8
BLACK
6
CONTINUOUS
10
-0.792611
20
0.0578159
11
-0.784501
21
0.0598433
0
LINE
8
BLACK
6
CONTINUOUS
10
-0.784501
20
0.0598433
11
-0.78096
21
0.061614
0
LINE
8
BLACK
6
CONTINUOUS
10
-0.78096
20
0.061614
11
-0.779614
21
0.0629602
0
LINE
8
BLACK
6
CONTINUOUS
10
-0.779614
20
0.0629602
11
-0.778065
21
0.0660569
0
LINE
8
BLACK
6
CONTINUOUS
10
-0.778065
20
0.0660569
11
-0.778065
21
0.0686976
0
LINE
8
BLACK
6
CONTINUOUS
10
-0.778065
20
0.0686976
11
-0.779614
21
0.0717943
0
LINE
8
BLACK
6
CONTINUOUS
10
-0.779614
20
0.0717943
11
-0.78096
21
0.0731405
0
LINE
8
BLACK
6
CONTINUOUS
10
-0.78096
20
0.0731405
11
-0.784501
21
0.0749112
0
LINE
8
BLACK
6
CONTINUOUS
10
-0.784501
20
0.0749112
11
-0.792611
21
0.0769385
0
LINE
8
BLACK
6
CONTINUOUS
10
-0.792611
20
0.0769385
11
-0.80289
21
0.0769385
0
LINE
8
BLACK
6
CONTINUOUS
10
0.328921
20
0.13157
11
0.329818
21
0.131435
0
LINE
8
BLACK
6
CONTINUOUS
10
0.329818
20
0.131435
11
0.334693
21
0.128998
0
LINE
8
BLACK
6
CONTINUOUS
10
0.334693
20
0.128998
11
0.336426
21
0.12729
0
LINE
8
BLACK
6
CONTINUOUS
10
0.336426
20
0.12729
11
0.336825
21
0.12489
0
LINE
8
BLACK
6
CONTINUOUS
10
0.336825
20
0.12489
11
0.335737
21
0.122714
0
LINE
8
BLACK
6
CONTINUOUS
10
0.335737
20
0.122714
11
0.333578
21
0.121592
0
LINE
8
BLACK
6
CONTINUOUS
10
0.333578
20
0.121592
11
0.331171
21
0.121955
0
LINE
8
BLACK
6
CONTINUOUS
10
0.331171
20
0.121955
11
0.327128
21
0.123976
0
LINE
8
BLACK
6
CONTINUOUS
10
0.327128
20
0.123976
11
0.321385
21
0.123976
0
LINE
8
BLACK
6
CONTINUOUS
10
0.321385
20
0.123976
11
0.315561
21
0.122035
0
LINE
8
BLACK
6
CONTINUOUS
10
0.315561
20
0.122035
11
0.311796
21
0.11827
0
LINE
8
BLACK
6
CONTINUOUS
10
0.311796
20
0.11827
11
0.309838
21
0.114353
0
LINE
8
BLACK
6
CONTINUOUS
10
0.309838
20
0.114353
11
0.307623
21
0.105494
0
LINE
8
BLACK
6
CONTINUOUS
10
0.307623
20
0.105494
11
0.307623
21
0.0991517
0
LINE
8
BLACK
6
CONTINUOUS
10
0.307623
20
0.0991517
11
0.309838
21
0.0902926
0
LINE
8
BLACK
6
CONTINUOUS
10
0.309838
20
0.0902926
11
0.311796
21
0.0863761
0
LINE
8
BLACK
6
CONTINUOUS
10
0.311796
20
0.0863761
11
0.315561
21
0.0826106
0
LINE
8
BLACK
6
CONTINUOUS
10
0.315561
20
0.0826106
11
0.321385
21
0.0806693
0
LINE
8
BLACK
6
CONTINUOUS
10
0.321385
20
0.0806693
11
0.324982
21
0.0806693
0
LINE
8
BLACK
6
CONTINUOUS
10
0.324982
20
0.0806693
11
0.330805
21
0.0826106
0
LINE
8
BLACK
6
CONTINUOUS
10
0.330805
20
0.0826106
11
0.331432
21
0.0832375
0
LINE
8
BLACK
6
CONTINUOUS
10
0.331432
20
0.0832375
11
0.331432
21
0.0947301
0
LINE
8
BLACK
6
CONTINUOUS
10
0.331432
20
0.0947301
11
0.325621
21
0.0947301
0
LINE
8
BLACK
6
CONTINUOUS
10
0.325621
20
0.0947301
11
0.323306
21
0.095482
0
LINE
8
BLACK
6
CONTINUOUS
10
0.323306
20
0.095482
11
0.321876
21
0.0974505
0
LINE
8
BLACK
6
CONTINUOUS
10
0.321876
20
0.0974505
11
0.321876
21
0.0998837
0
LINE
8
BLACK
6
CONTINUOUS
10
0.321876
20
0.0998837
11
0.323306
21
0.101852
0
LINE
8
BLACK
6
CONTINUOUS
10
0.323306
20
0.101852
11
0.325621
21
0.102604
0
LINE
8
BLACK
6
CONTINUOUS
10
0.325621
20
0.102604
11
0.335369
21
0.102604
0
LINE
8
BLACK
6
CONTINUOUS
10
0.335369
20
0.102604
11
0.335962
21
0.102411
0
LINE
8
BLACK
6
CONTINUOUS
10
0.335962
20
0.102411
11
0.336586
21
0.102411
0
LINE
8
BLACK
6
CONTINUOUS
10
0.336586
20
0.102411
11
0.33709
21
0.102045
0
LINE
8
BLACK
6
CONTINUOUS
10
0.33709
20
0.102045
11
0.337683
21
0.101852
0
LINE
8
BLACK
6
CONTINUOUS
10
0.337683
20
0.101852
11
0.33805
21
0.101348
0
LINE
8
BLACK
6
CONTINUOUS
10
0.33805
20
0.101348
11
0.338554
21
0.100981
0
LINE
8
BLACK
6
CONTINUOUS
10
0.338554
20
0.100981
11
0.338747
21
0.100388
0
LINE
8
BLACK
6
CONTINUOUS
10
0.338747
20
0.100388
11
0.339114
21
0.0998837
0
LINE
8
BLACK
6
CONTINUOUS
10
0.339114
20
0.0998837
11
0.339114
21
0.0992601
0
LINE
8
BLACK
6
CONTINUOUS
10
0.339114
20
0.0992601
11
0.339306
21
0.0986671
0
LINE
8
BLACK
6
CONTINUOUS
10
0.339306
20
0.0986671
11
0.339306
21
0.0816067
0
LINE
8
BLACK
6
CONTINUOUS
10
0.339306
20
0.0816067
11
0.339208
21
0.0813046
0
LINE
8
BLACK
6
CONTINUOUS
10
0.339208
20
0.0813046
11
0.339258
21
0.0809909
0
LINE
8
BLACK
6
CONTINUOUS
10
0.339258
20
0.0809909
11
0.338839
21
0.0801695
0
LINE
8
BLACK
6
CONTINUOUS
10
0.338839
20
0.0801695
11
0.338554
21
0.0792926
0
LINE
8
BLACK
6
CONTINUOUS
10
0.338554
20
0.0792926
11
0.338297
21
0.0791059
0
LINE
8
BLACK
6
CONTINUOUS
10
0.338297
20
0.0791059
11
0.338153
21
0.0788229
0
LINE
8
BLACK
6
CONTINUOUS
10
0.338153
20
0.0788229
11
0.335716
21
0.0763857
0
LINE
8
BLACK
6
CONTINUOUS
10
0.335716
20
0.0763857
11
0.334907
21
0.0759736
0
LINE
8
BLACK
6
CONTINUOUS
10
0.334907
20
0.0759736
11
0.334177
21
0.0754346
0
LINE
8
BLACK
6
CONTINUOUS
10
0.334177
20
0.0754346
11
0.326866
21
0.0729974
0
LINE
8
BLACK
6
CONTINUOUS
10
0.326866
20
0.0729974
11
0.326227
21
0.0729925
0
LINE
8
BLACK
6
CONTINUOUS
10
0.326227
20
0.0729925
11
0.325621
21
0.0727953
0
LINE
8
BLACK
6
CONTINUOUS
10
0.325621
20
0.0727953
11
0.320746
21
0.0727953
0
LINE
8
BLACK
6
CONTINUOUS
10
0.320746
20
0.0727953
11
0.320139
21
0.0729925
0
LINE
8
BLACK
6
CONTINUOUS
10
0.320139
20
0.0729925
11
0.319501
21
0.0729974
0
LINE
8
BLACK
6
CONTINUOUS
10
0.319501
20
0.0729974
11
0.31219
21
0.0754346
0
LINE
8
BLACK
6
CONTINUOUS
10
0.31219
20
0.0754346
11
0.311459
21
0.0759735
0
LINE
8
BLACK
6
CONTINUOUS
10
0.311459
20
0.0759735
11
0.310651
21
0.0763856
0
LINE
8
BLACK
6
CONTINUOUS
10
0.310651
20
0.0763856
11
0.305776
21
0.08126
0
LINE
8
BLACK
6
CONTINUOUS
10
0.305776
20
0.08126
11
0.305487
21
0.0818286
0
LINE
8
BLACK
6
CONTINUOUS
10
0.305487
20
0.0818286
11
0.305039
21
0.0822832
0
LINE
8
BLACK
6
CONTINUOUS
10
0.305039
20
0.0822832
11
0.302602
21
0.0871576
0
LINE
8
BLACK
6
CONTINUOUS
10
0.302602
20
0.0871576
11
0.302536
21
0.0875915
0
LINE
8
BLACK
6
CONTINUOUS
10
0.302536
20
0.0875915
11
0.302304
21
0.0879634
0
LINE
8
BLACK
6
CONTINUOUS
10
0.302304
20
0.0879634
11
0.299866
21
0.0977122
0
LINE
8
BLACK
6
CONTINUOUS
10
0.299866
20
0.0977122
11
0.2999
21
0.098201
0
LINE
8
BLACK
6
CONTINUOUS
10
0.2999
20
0.098201
11
0.299749
21
0.0986671
0
LINE
8
BLACK
6
CONTINUOUS
10
0.299749
20
0.0986671
11
0.299749
21
0.105979
0
LINE
8
BLACK
6
CONTINUOUS
10
0.299749
20
0.105979
11
0.2999
21
0.106445
0
LINE
8
BLACK
6
CONTINUOUS
10
0.2999
20
0.106445
11
0.299866
21
0.106934
0
LINE
8
BLACK
6
CONTINUOUS
10
0.299866
20
0.106934
11
0.302304
21
0.116682
0
LINE
8
BLACK
6
CONTINUOUS
10
0.302304
20
0.116682
11
0.302536
21
0.117054
0
LINE
8
BLACK
6
CONTINUOUS
10
0.302536
20
0.117054
11
0.302602
21
0.117488
0
LINE
8
BLACK
6
CONTINUOUS
10
0.302602
20
0.117488
11
0.305039
21
0.122363
0
LINE
8
BLACK
6
CONTINUOUS
10
0.305039
20
0.122363
11
0.305487
21
0.122817
0
LINE
8
BLACK
6
CONTINUOUS
10
0.305487
20
0.122817
11
0.305776
21
0.123386
0
LINE
8
BLACK
6
CONTINUOUS
10
0.305776
20
0.123386
11
0.310651
21
0.12826
0
LINE
8
BLACK
6
CONTINUOUS
10
0.310651
20
0.12826
11
0.311459
21
0.128672
0
LINE
8
BLACK
6
CONTINUOUS
10
0.311459
20
0.128672
11
0.31219
21
0.129211
0
LINE
8
BLACK
6
CONTINUOUS
10
0.31219
20
0.129211
11
0.319501
21
0.131648
0
LINE
8
BLACK
6
CONTINUOUS
10
0.319501
20
0.131648
11
0.320139
21
0.131653
0
LINE
8
BLACK
6
CONTINUOUS
10
0.320139
20
0.131653
11
0.320746
21
0.13185
0
LINE
8
BLACK
6
CONTINUOUS
10
0.320746
20
0.13185
11
0.328058
21
0.13185
0
LINE
8
BLACK
6
CONTINUOUS
10
0.328058
20
0.13185
11
0.328921
21
0.13157
0
LINE
8
BLACK
6
CONTINUOUS
10
0.423715
20
0.131653
11
0.424353
21
0.131648
0
LINE
8
BLACK
6
CONTINUOUS
10
0.424353
20
0.131648
11
0.431665
21
0.129211
0
LINE
8
BLACK
6
CONTINUOUS
10
0.431665
20
0.129211
11
0.432395
21
0.128672
0
LINE
8
BLACK
6
CONTINUOUS
10
0.432395
20
0.128672
11
0.433204
21
0.12826
0
LINE
8
BLACK
6
CONTINUOUS
10
0.433204
20
0.12826
11
0.438078
21
0.123386
0
LINE
8
BLACK
6
CONTINUOUS
10
0.438078
20
0.123386
11
0.438368
21
0.122817
0
LINE
8
BLACK
6
CONTINUOUS
10
0.438368
20
0.122817
11
0.438816
21
0.122363
0
LINE
8
BLACK
6
CONTINUOUS
10
0.438816
20
0.122363
11
0.441253
21
0.117488
0
LINE
8
BLACK
6
CONTINUOUS
10
0.441253
20
0.117488
11
0.441318
21
0.117054
0
LINE
8
BLACK
6
CONTINUOUS
10
0.441318
20
0.117054
11
0.441551
21
0.116682
0
LINE
8
BLACK
6
CONTINUOUS
10
0.441551
20
0.116682
11
0.443988
21
0.106934
0
LINE
8
BLACK
6
CONTINUOUS
10
0.443988
20
0.106934
11
0.443954
21
0.106445
0
LINE
8
BLACK
6
CONTINUOUS
10
0.443954
20
0.106445
11
0.444106
21
0.105979
0
LINE
8
BLACK
6
CONTINUOUS
10
0.444106
20
0.105979
11
0.444106
21
0.0986671
0
LINE
8
BLACK
6
CONTINUOUS
10
0.444106
20
0.0986671
11
0.443954
21
0.0982011
0
LINE
8
BLACK
6
CONTINUOUS
10
0.443954
20
0.0982011
11
0.443988
21
0.0977122
0
LINE
8
BLACK
6
CONTINUOUS
10
0.443988
20
0.0977122
11
0.441551
21
0.0879634
0
LINE
8
BLACK
6
CONTINUOUS
10
0.441551
20
0.0879634
11
0.441318
21
0.0875915
0
LINE
8
BLACK
6
CONTINUOUS
10
0.441318
20
0.0875915
11
0.441253
21
0.0871576
0
LINE
8
BLACK
6
CONTINUOUS
10
0.441253
20
0.0871576
11
0.438816
21
0.0822833
0
LINE
8
BLACK
6
CONTINUOUS
10
0.438816
20
0.0822833
11
0.438368
21
0.0818287
0
LINE
8
BLACK
6
CONTINUOUS
10
0.438368
20
0.0818287
11
0.438078
21
0.08126
0
LINE
8
BLACK
6
CONTINUOUS
10
0.438078
20
0.08126
11
0.433204
21
0.0763856
0
LINE
8
BLACK
6
CONTINUOUS
10
0.433204
20
0.0763856
11
0.432395
21
0.0759736
0
LINE
8
BLACK
6
CONTINUOUS
10
0.432395
20
0.0759736
11
0.431665
21
0.0754346
0
LINE
8
BLACK
6
CONTINUOUS
10
0.431665
20
0.0754346
11
0.424353
21
0.0729974
0
LINE
8
BLACK
6
CONTINUOUS
10
0.424353
20
0.0729974
11
0.423715
21
0.0729925
0
LINE
8
BLACK
6
CONTINUOUS
10
0.423715
20
0.0729925
11
0.423108
21
0.0727953
0
LINE
8
BLACK
6
CONTINUOUS
10
0.423108
20
0.0727953
11
0.410922
21
0.0727953
0
LINE
8
BLACK
6
CONTINUOUS
10
0.410922
20
0.0727953
11
0.410329
21
0.072988
0
LINE
8
BLACK
6
CONTINUOUS
10
0.410329
20
0.072988
11
0.409706
21
0.072988
0
LINE
8
BLACK
6
CONTINUOUS
10
0.409706
20
0.072988
11
0.409201
21
0.0733545
0
LINE
8
BLACK
6
CONTINUOUS
10
0.409201
20
0.0733545
11
0.408608
21
0.0735472
0
LINE
8
BLACK
6
CONTINUOUS
10
0.408608
20
0.0735472
11
0.408242
21
0.0740517
0
LINE
8
BLACK
6
CONTINUOUS
10
0.408242
20
0.0740517
11
0.407737
21
0.0744182
0
LINE
8
BLACK
6
CONTINUOUS
10
0.407737
20
0.0744182
11
0.407545
21
0.0750112
0
LINE
8
BLACK
6
CONTINUOUS
10
0.407545
20
0.0750112
11
0.407178
21
0.0755157
0
LINE
8
BLACK
6
CONTINUOUS
10
0.407178
20
0.0755157
11
0.407178
21
0.0761393
0
LINE
8
BLACK
6
CONTINUOUS
10
0.407178
20
0.0761393
11
0.406985
21
0.0767323
0
LINE
8
BLACK
6
CONTINUOUS
10
0.406985
20
0.0767323
11
0.406985
21
0.127913
0
LINE
8
BLACK
6
CONTINUOUS
10
0.406985
20
0.127913
11
0.407178
21
0.128506
0
LINE
8
BLACK
6
CONTINUOUS
10
0.407178
20
0.128506
11
0.407178
21
0.12913
0
LINE
8
BLACK
6
CONTINUOUS
10
0.407178
20
0.12913
11
0.407545
21
0.129635
0
LINE
8
BLACK
6
CONTINUOUS
10
0.407545
20
0.129635
11
0.407737
21
0.130228
0
LINE
8
BLACK
6
CONTINUOUS
10
0.407737
20
0.130228
11
0.408242
21
0.130594
0
LINE
8
BLACK
6
CONTINUOUS
10
0.408242
20
0.130594
11
0.408608
21
0.131099
0
LINE
8
BLACK
6
CONTINUOUS
10
0.408608
20
0.131099
11
0.409201
21
0.131291
0
LINE
8
BLACK
6
CONTINUOUS
10
0.409201
20
0.131291
11
0.409706
21
0.131658
0
LINE
8
BLACK
6
CONTINUOUS
10
0.409706
20
0.131658
11
0.410329
21
0.131658
0
LINE
8
BLACK
6
CONTINUOUS
10
0.410329
20
0.131658
11
0.410922
21
0.13185
0
LINE
8
BLACK
6
CONTINUOUS
10
0.410922
20
0.13185
11
0.423108
21
0.13185
0
LINE
8
BLACK
6
CONTINUOUS
10
0.423108
20
0.13185
11
0.423715
21
0.131653
0
LINE
8
BLACK
6
CONTINUOUS
10
0.414859
20
0.123976
11
0.414859
21
0.0806693
0
LINE
8
BLACK
6
CONTINUOUS
10
0.414859
20
0.0806693
11
0.422469
21
0.0806693
0
LINE
8
BLACK
6
CONTINUOUS
10
0.422469
20
0.0806693
11
0.428293
21
0.0826106
0
LINE
8
BLACK
6
CONTINUOUS
10
0.428293
20
0.0826106
11
0.432059
21
0.0863761
0
LINE
8
BLACK
6
CONTINUOUS
10
0.432059
20
0.0863761
11
0.434017
21
0.0902925
0
LINE
8
BLACK
6
CONTINUOUS
10
0.434017
20
0.0902925
11
0.436232
21
0.0991517
0
LINE
8
BLACK
6
CONTINUOUS
10
0.436232
20
0.0991517
11
0.436232
21
0.105494
0
LINE
8
BLACK
6
CONTINUOUS
10
0.436232
20
0.105494
11
0.434017
21
0.114353
0
LINE
8
BLACK
6
CONTINUOUS
10
0.434017
20
0.114353
11
0.432059
21
0.11827
0
LINE
8
BLACK
6
CONTINUOUS
10
0.432059
20
0.11827
11
0.428293
21
0.122035
0
LINE
8
BLACK
6
CONTINUOUS
10
0.428293
20
0.122035
11
0.422469
21
0.123976
0
LINE
8
BLACK
6
CONTINUOUS
10
0.422469
20
0.123976
11
0.414859
21
0.123976
0
LINE
8
BLACK
6
CONTINUOUS
10
0.357509
20
0.131658
11
0.358521
21
0.131658
0
LINE
8
BLACK
6
CONTINUOUS
10
0.358521
20
0.131658
11
0.3587
21
0.131527
0
LINE
8
BLACK
6
CONTINUOUS
10
0.3587
20
0.131527
11
0.358921
21
0.131503
0
LINE
8
BLACK
6
CONTINUOUS
10
0.358921
20
0.131503
11
0.35967
21
0.130822
0
LINE
8
BLACK
6
CONTINUOUS
10
0.35967
20
0.130822
11
0.360489
21
0.130228
0
LINE
8
BLACK
6
CONTINUOUS
10
0.360489
20
0.130228
11
0.360558
21
0.130016
0
LINE
8
BLACK
6
CONTINUOUS
10
0.360558
20
0.130016
11
0.360722
21
0.129867
0
LINE
8
BLACK
6
CONTINUOUS
10
0.360722
20
0.129867
11
0.382613
21
0.0915574
0
LINE
8
BLACK
6
CONTINUOUS
10
0.382613
20
0.0915574
11
0.382613
21
0.127913
0
LINE
8
BLACK
6
CONTINUOUS
10
0.382613
20
0.127913
11
0.383365
21
0.130228
0
LINE
8
BLACK
6
CONTINUOUS
10
0.383365
20
0.130228
11
0.385334
21
0.131658
0
LINE
8
BLACK
6
CONTINUOUS
10
0.385334
20
0.131658
11
0.387767
21
0.131658
0
LINE
8
BLACK
6
CONTINUOUS
10
0.387767
20
0.131658
11
0.389736
21
0.130228
0
LINE
8
BLACK
6
CONTINUOUS
10
0.389736
20
0.130228
11
0.390487
21
0.127913
0
LINE
8
BLACK
6
CONTINUOUS
10
0.390487
20
0.127913
11
0.390487
21
0.0767323
0
LINE
8
BLACK
6
CONTINUOUS
10
0.390487
20
0.0767323
11
0.390419
21
0.076521
0
LINE
8
BLACK
6
CONTINUOUS
10
0.390419
20
0.076521
11
0.390464
21
0.0763033
0
LINE
8
BLACK
6
CONTINUOUS
10
0.390464
20
0.0763033
11
0.390048
21
0.0753807
0
LINE
8
BLACK
6
CONTINUOUS
10
0.390048
20
0.0753807
11
0.389736
21
0.0744182
0
LINE
8
BLACK
6
CONTINUOUS
10
0.389736
20
0.0744182
11
0.389556
21
0.0742876
0
LINE
8
BLACK
6
CONTINUOUS
10
0.389556
20
0.0742876
11
0.389464
21
0.074085
0
LINE
8
BLACK
6
CONTINUOUS
10
0.389464
20
0.074085
11
0.388586
21
0.073583
0
LINE
8
BLACK
6
CONTINUOUS
10
0.388586
20
0.073583
11
0.387767
21
0.072988
0
LINE
8
BLACK
6
CONTINUOUS
10
0.387767
20
0.072988
11
0.387545
21
0.072988
0
LINE
8
BLACK
6
CONTINUOUS
10
0.387545
20
0.072988
11
0.387352
21
0.0728778
0
LINE
8
BLACK
6
CONTINUOUS
10
0.387352
20
0.0728778
11
0.386346
21
0.072988
0
LINE
8
BLACK
6
CONTINUOUS
10
0.386346
20
0.072988
11
0.385334
21
0.072988
0
LINE
8
BLACK
6
CONTINUOUS
10
0.385334
20
0.072988
11
0.385154
21
0.0731186
0
LINE
8
BLACK
6
CONTINUOUS
10
0.385154
20
0.0731186
11
0.384933
21
0.0731428
0
LINE
8
BLACK
6
CONTINUOUS
10
0.384933
20
0.0731428
11
0.384184
21
0.0738233
0
LINE
8
BLACK
6
CONTINUOUS
10
0.384184
20
0.0738233
11
0.383365
21
0.0744182
0
LINE
8
BLACK
6
CONTINUOUS
10
0.383365
20
0.0744182
11
0.383297
21
0.0746296
0
LINE
8
BLACK
6
CONTINUOUS
10
0.383297
20
0.0746296
11
0.383132
21
0.074779
0
LINE
8
BLACK
6
CONTINUOUS
10
0.383132
20
0.074779
11
0.361241
21
0.113088
0
LINE
8
BLACK
6
CONTINUOUS
10
0.361241
20
0.113088
11
0.361241
21
0.0767323
0
LINE
8
BLACK
6
CONTINUOUS
10
0.361241
20
0.0767323
11
0.360489
21
0.0744182
0
LINE
8
BLACK
6
CONTINUOUS
10
0.360489
20
0.0744182
11
0.358521
21
0.072988
0
LINE
8
BLACK
6
CONTINUOUS
10
0.358521
20
0.072988
11
0.356087
21
0.072988
0
LINE
8
BLACK
6
CONTINUOUS
10
0.356087
20
0.072988
11
0.354119
21
0.0744182
0
LINE
8
BLACK
6
CONTINUOUS
10
0.354119
20
0.0744182
11
0.353367
21
0.0767323
0
LINE
8
BLACK
6
CONTINUOUS
10
0.353367
20
0.0767323
11
0.353367
21
0.127913
0
LINE
8
BLACK
6
CONTINUOUS
10
0.353367
20
0.127913
11
0.353436
21
0.128125
0
LINE
8
BLACK
6
CONTINUOUS
10
0.353436
20
0.128125
11
0.35339
21
0.128342
0
LINE
8
BLACK
6
CONTINUOUS
10
0.35339
20
0.128342
11
0.353806
21
0.129265
0
LINE
8
BLACK
6
CONTINUOUS
10
0.353806
20
0.129265
11
0.354119
21
0.130228
0
LINE
8
BLACK
6
CONTINUOUS
10
0.354119
20
0.130228
11
0.354299
21
0.130358
0
LINE
8
BLACK
6
CONTINUOUS
10
0.354299
20
0.130358
11
0.35439
21
0.130561
0
LINE
8
BLACK
6
CONTINUOUS
10
0.35439
20
0.130561
11
0.355269
21
0.131063
0
LINE
8
BLACK
6
CONTINUOUS
10
0.355269
20
0.131063
11
0.356087
21
0.131658
0
LINE
8
BLACK
6
CONTINUOUS
10
0.356087
20
0.131658
11
0.35631
21
0.131658
0
LINE
8
BLACK
6
CONTINUOUS
10
0.35631
20
0.131658
11
0.356503
21
0.131768
0
LINE
8
BLACK
6
CONTINUOUS
10
0.356503
20
0.131768
11
0.357509
21
0.131658
  0
ENDSEC
  0
EOF
