  0
SECTION
  2
HEADER
  9
$ANGBASE
  50
0.0
  9
$ANGDIR
  70
1
  9
$MEASUREMENT
  70
0
  0
ENDSEC
  0
SECTION
  2
TABLES
  0
TABLE
  2
LTYPE
  70
4
  0
LTYPE
  5
40F
  2
CONTINUOUS
  70
0
  3
Solid line
  72
65
  73
0
  40
0.0
  0
LTYPE
  5
410
  2
DASHDOT
 70
0
  3
Dash Dot ____ _ ____ _
 72
65
 73
4
 40
2.0
 49
1.25
 49
-0.25
 49
0.25
 49
-0.25
  0
LTYPE
  5
411
  2
DASHED
 70
0
  3
Dashed __ __ __ __ __
 72
65
 73
2
 40
0.75
 49
0.5
 49
-0.25
  0
LTYPE
  5
43B
  2
DOTTED
 70
0
  3
Dotted .  .  .  .
 72
65
 73
2
 40
0.2
 49
0.0
 49
-0.2
  0
ENDTAB
  0
TABLE
  2
STYLE
  70
4
  0
STYLE
  2
KICAD
  70
0
  40
0
  41
1
  42
1
  50
0
  71
0
  3
isocp.shx
  0
STYLE
  2
KICADB
  70
0
  40
0
  41
1
  42
1
  50
0
  71
0
  3
isocp.shx
  0
STYLE
  2
KICADI
  70
0
  40
0
  41
1
  42
1
  50
15
  71
0
  3
isocp.shx
  0
STYLE
  2
KICADBI
  70
0
  40
0
  41
1
  42
1
  50
15
  71
0
  3
isocp.shx
  0
ENDTAB
  0
TABLE
  2
LAYER
  70
1
  0
LAYER
  2
BLACK
  70
0
  62
7
  6
CONTINUOUS
  0
ENDTAB
  0
ENDSEC
  0
SECTION
  2
ENTITIES
0
LINE
8
BLACK
6
CONTINUOUS
10
-0.5995446062992126
20
-0.0010160236220472
11
-0.5990119291338583
21
-0.0015487007874016
0
LINE
8
BLACK
6
CONTINUOUS
10
-0.5990119291338583
20
-0.0015487007874016
11
-0.5990099606299213
21
-0.0115008267716535
0
LINE
8
BLACK
6
CONTINUOUS
10
-0.5990099606299213
20
-0.0115008267716535
11
-0.5407874015748031
21
-0.0114566929133858
0
LINE
8
BLACK
6
CONTINUOUS
10
-0.5407874015748031
20
-0.0114566929133858
11
-0.540410748031496
21
-0.0115316141732283
0
LINE
8
BLACK
6
CONTINUOUS
10
-0.540410748031496
20
-0.0115316141732283
11
-0.5398780708661417
21
-0.0120642913385827
0
LINE
8
BLACK
6
CONTINUOUS
10
-0.5398780708661417
20
-0.0120642913385827
11
-0.5398031496062992
21
-0.0675590551181102
0
LINE
8
BLACK
6
CONTINUOUS
10
-0.5398031496062992
20
-0.0675590551181102
11
-0.5398780708661417
21
-0.0679357086614173
0
LINE
8
BLACK
6
CONTINUOUS
10
-0.5398780708661417
20
-0.0679357086614173
11
-0.540410748031496
21
-0.0684683858267717
0
LINE
8
BLACK
6
CONTINUOUS
10
-0.540410748031496
20
-0.0684683858267717
11
-0.5989984645669291
21
-0.0685127952755906
0
LINE
8
BLACK
6
CONTINUOUS
10
-0.5989984645669291
20
-0.0685127952755906
11
-0.5989370078740157
21
-0.3735788976377953
0
LINE
8
BLACK
6
CONTINUOUS
10
-0.5989370078740157
20
-0.3735788976377953
11
-0.5990119291338583
21
-0.3739555511811024
0
LINE
8
BLACK
6
CONTINUOUS
10
-0.5990119291338583
20
-0.3739555511811024
11
-0.5995446062992126
21
-0.3744882283464567
0
LINE
8
BLACK
6
CONTINUOUS
10
-0.5995446062992126
20
-0.3744882283464567
11
-0.8518897637795275
21
-0.3745631496062992
0
LINE
8
BLACK
6
CONTINUOUS
10
-0.8518897637795275
20
-0.3745631496062992
11
-0.8522664173228346
21
-0.3744882283464567
0
LINE
8
BLACK
6
CONTINUOUS
10
-0.8522664173228346
20
-0.3744882283464567
11
-0.8527990944881889
21
-0.3739555511811024
0
LINE
8
BLACK
6
CONTINUOUS
10
-0.8527990944881889
20
-0.3739555511811024
11
-0.8528740157480315
21
-0.0019253543307087
0
LINE
8
BLACK
6
CONTINUOUS
10
-0.8528740157480315
20
-0.0019253543307087
11
-0.8527990944881889
21
-0.0015487007874016
0
LINE
8
BLACK
6
CONTINUOUS
10
-0.8527990944881889
20
-0.0015487007874016
11
-0.8522664173228346
21
-0.0010160236220472
0
LINE
8
BLACK
6
CONTINUOUS
10
-0.8522664173228346
20
-0.0010160236220472
11
-0.5999212598425196
21
-0.0009411023622047
0
LINE
8
BLACK
6
CONTINUOUS
10
-0.5999212598425196
20
-0.0009411023622047
11
-0.5995446062992126
21
-0.0010160236220472
0
LINE
8
BLACK
6
CONTINUOUS
10
-0.8509801968503937
20
-0.0029093307086614
11
-0.8509057086614173
21
-0.3726691338582677
0
LINE
8
BLACK
6
CONTINUOUS
10
-0.8509057086614173
20
-0.3726691338582677
11
-0.6008308661417323
21
-0.3725948818897638
0
LINE
8
BLACK
6
CONTINUOUS
10
-0.6008308661417323
20
-0.3725948818897638
11
-0.6008921259842519
21
-0.0685142125984252
0
LINE
8
BLACK
6
CONTINUOUS
10
-0.6008921259842519
20
-0.0685142125984252
11
-0.6392125984251968
21
-0.0685433070866142
0
LINE
8
BLACK
6
CONTINUOUS
10
-0.6392125984251968
20
-0.0685433070866142
11
-0.6395892519685039
21
-0.0684683858267717
0
LINE
8
BLACK
6
CONTINUOUS
10
-0.6395892519685039
20
-0.0684683858267717
11
-0.6401219291338582
21
-0.0679357086614173
0
LINE
8
BLACK
6
CONTINUOUS
10
-0.6401219291338582
20
-0.0679357086614173
11
-0.6401968503937008
21
-0.0124409448818898
0
LINE
8
BLACK
6
CONTINUOUS
10
-0.6401968503937008
20
-0.0124409448818898
11
-0.6401219291338582
21
-0.0120642913385827
0
LINE
8
BLACK
6
CONTINUOUS
10
-0.6401219291338582
20
-0.0120642913385827
11
-0.6395892519685039
21
-0.0115316141732283
0
LINE
8
BLACK
6
CONTINUOUS
10
-0.6395892519685039
20
-0.0115316141732283
11
-0.6009036220472441
21
-0.0115022440944882
0
LINE
8
BLACK
6
CONTINUOUS
10
-0.6009036220472441
20
-0.0115022440944882
11
-0.6009053543307087
21
-0.0028350787401575
0
LINE
8
BLACK
6
CONTINUOUS
10
-0.6009053543307087
20
-0.0028350787401575
11
-0.8509801968503937
21
-0.0029093307086614
0
LINE
8
BLACK
6
CONTINUOUS
10
-0.6383014566929134
20
-0.0134244881889764
11
-0.6382296062992125
21
-0.0666486614173228
0
LINE
8
BLACK
6
CONTINUOUS
10
-0.6382296062992125
20
-0.0666486614173228
11
-0.6008925196850393
21
-0.0666203543307087
0
LINE
8
BLACK
6
CONTINUOUS
10
-0.6008925196850393
20
-0.0666203543307087
11
-0.6009032283464567
21
-0.0133961417322835
0
LINE
8
BLACK
6
CONTINUOUS
10
-0.6009032283464567
20
-0.0133961417322835
11
-0.6383014566929134
21
-0.0134244881889764
0
LINE
8
BLACK
6
CONTINUOUS
10
-0.5990095669291339
20
-0.0133946850393701
11
-0.5989988582677165
21
-0.066618937007874
0
LINE
8
BLACK
6
CONTINUOUS
10
-0.5989988582677165
20
-0.066618937007874
11
-0.5416985826771653
21
-0.0665754724409449
0
LINE
8
BLACK
6
CONTINUOUS
10
-0.5416985826771653
20
-0.0665754724409449
11
-0.5417704330708661
21
-0.0133512992125984
0
LINE
8
BLACK
6
CONTINUOUS
10
-0.5417704330708661
20
-0.0133512992125984
11
-0.5990095669291339
21
-0.0133946850393701
0
LINE
8
BLACK
6
CONTINUOUS
10
-0.5433083464566929
20
-0.2753816929133858
11
-0.5357381496062992
21
-0.2776780708661417
0
LINE
8
BLACK
6
CONTINUOUS
10
-0.5357381496062992
20
-0.2776780708661417
11
-0.5287614566929134
21
-0.2814072440944882
0
LINE
8
BLACK
6
CONTINUOUS
10
-0.5287614566929134
20
-0.2814072440944882
11
-0.5226462992125984
21
-0.2864258267716535
0
LINE
8
BLACK
6
CONTINUOUS
10
-0.5226462992125984
20
-0.2864258267716535
11
-0.517627716535433
21
-0.2925409842519685
0
LINE
8
BLACK
6
CONTINUOUS
10
-0.517627716535433
20
-0.2925409842519685
11
-0.5138985433070866
21
-0.2995176771653543
0
LINE
8
BLACK
6
CONTINUOUS
10
-0.5138985433070866
20
-0.2995176771653543
11
-0.5116021653543307
21
-0.307087874015748
0
LINE
8
BLACK
6
CONTINUOUS
10
-0.5116021653543307
20
-0.307087874015748
11
-0.5108267716535433
21
-0.3149606299212598
0
LINE
8
BLACK
6
CONTINUOUS
10
-0.5108267716535433
20
-0.3149606299212598
11
-0.5116021653543307
21
-0.3228333858267716
0
LINE
8
BLACK
6
CONTINUOUS
10
-0.5116021653543307
20
-0.3228333858267716
11
-0.5138985433070866
21
-0.3304035826771654
0
LINE
8
BLACK
6
CONTINUOUS
10
-0.5138985433070866
20
-0.3304035826771654
11
-0.517627716535433
21
-0.3373802755905512
0
LINE
8
BLACK
6
CONTINUOUS
10
-0.517627716535433
20
-0.3373802755905512
11
-0.5226462992125984
21
-0.3434954330708661
0
LINE
8
BLACK
6
CONTINUOUS
10
-0.5226462992125984
20
-0.3434954330708661
11
-0.5287614566929134
21
-0.3485140157480315
0
LINE
8
BLACK
6
CONTINUOUS
10
-0.5287614566929134
20
-0.3485140157480315
11
-0.5357381496062992
21
-0.352243188976378
0
LINE
8
BLACK
6
CONTINUOUS
10
-0.5357381496062992
20
-0.352243188976378
11
-0.5433083464566929
21
-0.3545395669291339
0
LINE
8
BLACK
6
CONTINUOUS
10
-0.5433083464566929
20
-0.3545395669291339
11
-0.5511811023622047
21
-0.3553149606299212
0
LINE
8
BLACK
6
CONTINUOUS
10
-0.5511811023622047
20
-0.3553149606299212
11
-0.5590538582677165
21
-0.3545395669291339
0
LINE
8
BLACK
6
CONTINUOUS
10
-0.5590538582677165
20
-0.3545395669291339
11
-0.5666240551181102
21
-0.352243188976378
0
LINE
8
BLACK
6
CONTINUOUS
10
-0.5666240551181102
20
-0.352243188976378
11
-0.5736007480314961
21
-0.3485140157480315
0
LINE
8
BLACK
6
CONTINUOUS
10
-0.5736007480314961
20
-0.3485140157480315
11
-0.579715905511811
21
-0.3434954330708661
0
LINE
8
BLACK
6
CONTINUOUS
10
-0.579715905511811
20
-0.3434954330708661
11
-0.5847344881889763
21
-0.3373802755905512
0
LINE
8
BLACK
6
CONTINUOUS
10
-0.5847344881889763
20
-0.3373802755905512
11
-0.5884636614173229
21
-0.3304035826771654
0
LINE
8
BLACK
6
CONTINUOUS
10
-0.5884636614173229
20
-0.3304035826771654
11
-0.5907600393700787
21
-0.3228333858267716
0
LINE
8
BLACK
6
CONTINUOUS
10
-0.5907600393700787
20
-0.3228333858267716
11
-0.5915354330708661
21
-0.3149606299212598
0
LINE
8
BLACK
6
CONTINUOUS
10
-0.5915354330708661
20
-0.3149606299212598
11
-0.5907600393700787
21
-0.307087874015748
0
LINE
8
BLACK
6
CONTINUOUS
10
-0.5907600393700787
20
-0.307087874015748
11
-0.5884636614173229
21
-0.2995176771653543
0
LINE
8
BLACK
6
CONTINUOUS
10
-0.5884636614173229
20
-0.2995176771653543
11
-0.5847344881889763
21
-0.2925409842519685
0
LINE
8
BLACK
6
CONTINUOUS
10
-0.5847344881889763
20
-0.2925409842519685
11
-0.579715905511811
21
-0.2864258267716535
0
LINE
8
BLACK
6
CONTINUOUS
10
-0.579715905511811
20
-0.2864258267716535
11
-0.5736007480314961
21
-0.2814072440944882
0
LINE
8
BLACK
6
CONTINUOUS
10
-0.5736007480314961
20
-0.2814072440944882
11
-0.5666240551181102
21
-0.2776780708661417
0
LINE
8
BLACK
6
CONTINUOUS
10
-0.5666240551181102
20
-0.2776780708661417
11
-0.5590538582677165
21
-0.2753816929133858
0
LINE
8
BLACK
6
CONTINUOUS
10
-0.5590538582677165
20
-0.2753816929133858
11
-0.5511811023622047
21
-0.2746062992125984
0
LINE
8
BLACK
6
CONTINUOUS
10
-0.5511811023622047
20
-0.2746062992125984
11
-0.5433083464566929
21
-0.2753816929133858
0
LINE
8
BLACK
6
CONTINUOUS
10
-0.5890115354330708
20
-0.3224855905511811
11
-0.5868165748031496
21
-0.3297213385826772
0
LINE
8
BLACK
6
CONTINUOUS
10
-0.5868165748031496
20
-0.3297213385826772
11
-0.5832522047244094
21
-0.336389842519685
0
LINE
8
BLACK
6
CONTINUOUS
10
-0.5832522047244094
20
-0.336389842519685
11
-0.57845531496063
21
-0.3422348425196851
0
LINE
8
BLACK
6
CONTINUOUS
10
-0.57845531496063
20
-0.3422348425196851
11
-0.5726103149606299
21
-0.3470317322834646
0
LINE
8
BLACK
6
CONTINUOUS
10
-0.5726103149606299
20
-0.3470317322834646
11
-0.5659418110236221
21
-0.3505961023622047
0
LINE
8
BLACK
6
CONTINUOUS
10
-0.5659418110236221
20
-0.3505961023622047
11
-0.558706062992126
21
-0.352791062992126
0
LINE
8
BLACK
6
CONTINUOUS
10
-0.558706062992126
20
-0.352791062992126
11
-0.5511811023622047
21
-0.3535322047244094
0
LINE
8
BLACK
6
CONTINUOUS
10
-0.5511811023622047
20
-0.3535322047244094
11
-0.5436561417322835
21
-0.352791062992126
0
LINE
8
BLACK
6
CONTINUOUS
10
-0.5436561417322835
20
-0.352791062992126
11
-0.5364203937007874
21
-0.3505961023622047
0
LINE
8
BLACK
6
CONTINUOUS
10
-0.5364203937007874
20
-0.3505961023622047
11
-0.5297518897637795
21
-0.3470317322834646
0
LINE
8
BLACK
6
CONTINUOUS
10
-0.5297518897637795
20
-0.3470317322834646
11
-0.5239068897637795
21
-0.3422348425196851
0
LINE
8
BLACK
6
CONTINUOUS
10
-0.5239068897637795
20
-0.3422348425196851
11
-0.51911
21
-0.336389842519685
0
LINE
8
BLACK
6
CONTINUOUS
10
-0.51911
20
-0.336389842519685
11
-0.5155456299212599
21
-0.3297213385826772
0
LINE
8
BLACK
6
CONTINUOUS
10
-0.5155456299212599
20
-0.3297213385826772
11
-0.5133506692913385
21
-0.3224855905511811
0
LINE
8
BLACK
6
CONTINUOUS
10
-0.5133506692913385
20
-0.3224855905511811
11
-0.5126095275590551
21
-0.3149606299212598
0
LINE
8
BLACK
6
CONTINUOUS
10
-0.5126095275590551
20
-0.3149606299212598
11
-0.5133506692913385
21
-0.3074356692913386
0
LINE
8
BLACK
6
CONTINUOUS
10
-0.5133506692913385
20
-0.3074356692913386
11
-0.5155456299212599
21
-0.3001999212598425
0
LINE
8
BLACK
6
CONTINUOUS
10
-0.5155456299212599
20
-0.3001999212598425
11
-0.51911
21
-0.2935314173228347
0
LINE
8
BLACK
6
CONTINUOUS
10
-0.51911
20
-0.2935314173228347
11
-0.5239068897637795
21
-0.2876864173228346
0
LINE
8
BLACK
6
CONTINUOUS
10
-0.5239068897637795
20
-0.2876864173228346
11
-0.5297518897637795
21
-0.2828895275590551
0
LINE
8
BLACK
6
CONTINUOUS
10
-0.5297518897637795
20
-0.2828895275590551
11
-0.5364203937007874
21
-0.2793251574803149
0
LINE
8
BLACK
6
CONTINUOUS
10
-0.5364203937007874
20
-0.2793251574803149
11
-0.5436561417322835
21
-0.2771301968503937
0
LINE
8
BLACK
6
CONTINUOUS
10
-0.5436561417322835
20
-0.2771301968503937
11
-0.5511811023622047
21
-0.2763890551181102
0
LINE
8
BLACK
6
CONTINUOUS
10
-0.5511811023622047
20
-0.2763890551181102
11
-0.558706062992126
21
-0.2771301968503937
0
LINE
8
BLACK
6
CONTINUOUS
10
-0.558706062992126
20
-0.2771301968503937
11
-0.5659418110236221
21
-0.2793251574803149
0
LINE
8
BLACK
6
CONTINUOUS
10
-0.5659418110236221
20
-0.2793251574803149
11
-0.5726103149606299
21
-0.2828895275590551
0
LINE
8
BLACK
6
CONTINUOUS
10
-0.5726103149606299
20
-0.2828895275590551
11
-0.57845531496063
21
-0.2876864173228346
0
LINE
8
BLACK
6
CONTINUOUS
10
-0.57845531496063
20
-0.2876864173228346
11
-0.5832522047244094
21
-0.2935314173228347
0
LINE
8
BLACK
6
CONTINUOUS
10
-0.5832522047244094
20
-0.2935314173228347
11
-0.5868165748031496
21
-0.3001999212598425
0
LINE
8
BLACK
6
CONTINUOUS
10
-0.5868165748031496
20
-0.3001999212598425
11
-0.5890115354330708
21
-0.3074356692913386
0
LINE
8
BLACK
6
CONTINUOUS
10
-0.5890115354330708
20
-0.3074356692913386
11
-0.5897526771653543
21
-0.3149606299212598
0
LINE
8
BLACK
6
CONTINUOUS
10
-0.5897526771653543
20
-0.3149606299212598
11
-0.5890115354330708
21
-0.3224855905511811
0
LINE
8
BLACK
6
CONTINUOUS
10
-0.2108831889763779
20
-0.2208229527559055
11
-0.2103505118110236
21
-0.2213556299212598
0
LINE
8
BLACK
6
CONTINUOUS
10
-0.2103505118110236
20
-0.2213556299212598
11
-0.2102755905511811
21
-0.3382677165354331
0
LINE
8
BLACK
6
CONTINUOUS
10
-0.2102755905511811
20
-0.3382677165354331
11
-0.2103505118110236
21
-0.3386443700787402
0
LINE
8
BLACK
6
CONTINUOUS
10
-0.2103505118110236
20
-0.3386443700787402
11
-0.2108831889763779
21
-0.3391770472440945
0
LINE
8
BLACK
6
CONTINUOUS
10
-0.2108831889763779
20
-0.3391770472440945
11
-0.2687401574803149
21
-0.339251968503937
0
LINE
8
BLACK
6
CONTINUOUS
10
-0.2687401574803149
20
-0.339251968503937
11
-0.2691168110236221
21
-0.3391770472440945
0
LINE
8
BLACK
6
CONTINUOUS
10
-0.2691168110236221
20
-0.3391770472440945
11
-0.2696494881889764
21
-0.3386443700787402
0
LINE
8
BLACK
6
CONTINUOUS
10
-0.2696494881889764
20
-0.3386443700787402
11
-0.2697244094488189
21
-0.2217322834645669
0
LINE
8
BLACK
6
CONTINUOUS
10
-0.2697244094488189
20
-0.2217322834645669
11
-0.2696494881889764
21
-0.2213556299212598
0
LINE
8
BLACK
6
CONTINUOUS
10
-0.2696494881889764
20
-0.2213556299212598
11
-0.2691168110236221
21
-0.2208229527559055
0
LINE
8
BLACK
6
CONTINUOUS
10
-0.2691168110236221
20
-0.2208229527559055
11
-0.211259842519685
21
-0.220748031496063
0
LINE
8
BLACK
6
CONTINUOUS
10
-0.211259842519685
20
-0.220748031496063
11
-0.2108831889763779
21
-0.2208229527559055
0
LINE
8
BLACK
6
CONTINUOUS
10
-0.2678299606299213
20
-0.2227153543307087
11
-0.2677564960629921
21
-0.3373566141732283
0
LINE
8
BLACK
6
CONTINUOUS
10
-0.2677564960629921
20
-0.3373566141732283
11
-0.2121700787401575
21
-0.3372846062992126
0
LINE
8
BLACK
6
CONTINUOUS
10
-0.2121700787401575
20
-0.3372846062992126
11
-0.2122435433070866
21
-0.2226433464566929
0
LINE
8
BLACK
6
CONTINUOUS
10
-0.2122435433070866
20
-0.2226433464566929
11
-0.2678299606299213
21
-0.2227153543307087
0
LINE
8
BLACK
6
CONTINUOUS
10
-0.130883188976378
20
-0.2208229527559055
11
-0.1303505118110236
21
-0.2213556299212598
0
LINE
8
BLACK
6
CONTINUOUS
10
-0.1303505118110236
20
-0.2213556299212598
11
-0.1302755905511811
21
-0.3382677165354331
0
LINE
8
BLACK
6
CONTINUOUS
10
-0.1302755905511811
20
-0.3382677165354331
11
-0.1303505118110236
21
-0.3386443700787402
0
LINE
8
BLACK
6
CONTINUOUS
10
-0.1303505118110236
20
-0.3386443700787402
11
-0.130883188976378
21
-0.3391770472440945
0
LINE
8
BLACK
6
CONTINUOUS
10
-0.130883188976378
20
-0.3391770472440945
11
-0.1887401574803149
21
-0.339251968503937
0
LINE
8
BLACK
6
CONTINUOUS
10
-0.1887401574803149
20
-0.339251968503937
11
-0.189116811023622
21
-0.3391770472440945
0
LINE
8
BLACK
6
CONTINUOUS
10
-0.189116811023622
20
-0.3391770472440945
11
-0.1896494881889764
21
-0.3386443700787402
0
LINE
8
BLACK
6
CONTINUOUS
10
-0.1896494881889764
20
-0.3386443700787402
11
-0.1897244094488189
21
-0.2217322834645669
0
LINE
8
BLACK
6
CONTINUOUS
10
-0.1897244094488189
20
-0.2217322834645669
11
-0.1896494881889764
21
-0.2213556299212598
0
LINE
8
BLACK
6
CONTINUOUS
10
-0.1896494881889764
20
-0.2213556299212598
11
-0.189116811023622
21
-0.2208229527559055
0
LINE
8
BLACK
6
CONTINUOUS
10
-0.189116811023622
20
-0.2208229527559055
11
-0.131259842519685
21
-0.220748031496063
0
LINE
8
BLACK
6
CONTINUOUS
10
-0.131259842519685
20
-0.220748031496063
11
-0.130883188976378
21
-0.2208229527559055
0
LINE
8
BLACK
6
CONTINUOUS
10
-0.1878299606299212
20
-0.2227153543307087
11
-0.1877564960629921
21
-0.3373566141732283
0
LINE
8
BLACK
6
CONTINUOUS
10
-0.1877564960629921
20
-0.3373566141732283
11
-0.1321700787401575
21
-0.3372846062992126
0
LINE
8
BLACK
6
CONTINUOUS
10
-0.1321700787401575
20
-0.3372846062992126
11
-0.1322435433070866
21
-0.2226433464566929
0
LINE
8
BLACK
6
CONTINUOUS
10
-0.1322435433070866
20
-0.2226433464566929
11
-0.1878299606299212
21
-0.2227153543307087
0
LINE
8
BLACK
6
CONTINUOUS
10
0.1984081496062992
20
-0.2164135039370079
11
0.1989408267716535
21
-0.2169461811023622
0
LINE
8
BLACK
6
CONTINUOUS
10
0.1989408267716535
20
-0.2169461811023622
11
0.199015748031496
21
-0.3338582677165354
0
LINE
8
BLACK
6
CONTINUOUS
10
0.199015748031496
20
-0.3338582677165354
11
0.1989408267716535
21
-0.3342349212598425
0
LINE
8
BLACK
6
CONTINUOUS
10
0.1989408267716535
20
-0.3342349212598425
11
0.1984081496062992
21
-0.3347675984251968
0
LINE
8
BLACK
6
CONTINUOUS
10
0.1984081496062992
20
-0.3347675984251968
11
0.1405511811023622
21
-0.3348425196850394
0
LINE
8
BLACK
6
CONTINUOUS
10
0.1405511811023622
20
-0.3348425196850394
11
0.1401745275590551
21
-0.3347675984251968
0
LINE
8
BLACK
6
CONTINUOUS
10
0.1401745275590551
20
-0.3347675984251968
11
0.1396418503937008
21
-0.3342349212598425
0
LINE
8
BLACK
6
CONTINUOUS
10
0.1396418503937008
20
-0.3342349212598425
11
0.1395669291338583
21
-0.2173228346456693
0
LINE
8
BLACK
6
CONTINUOUS
10
0.1395669291338583
20
-0.2173228346456693
11
0.1396418503937008
21
-0.2169461811023622
0
LINE
8
BLACK
6
CONTINUOUS
10
0.1396418503937008
20
-0.2169461811023622
11
0.1401745275590551
21
-0.2164135039370079
0
LINE
8
BLACK
6
CONTINUOUS
10
0.1401745275590551
20
-0.2164135039370079
11
0.1980314960629921
21
-0.2163385826771654
0
LINE
8
BLACK
6
CONTINUOUS
10
0.1980314960629921
20
-0.2163385826771654
11
0.1984081496062992
21
-0.2164135039370079
0
LINE
8
BLACK
6
CONTINUOUS
10
0.1414613779527559
20
-0.218305905511811
11
0.141534842519685
21
-0.3329471653543307
0
LINE
8
BLACK
6
CONTINUOUS
10
0.141534842519685
20
-0.3329471653543307
11
0.1971212598425197
21
-0.3328751574803149
0
LINE
8
BLACK
6
CONTINUOUS
10
0.1971212598425197
20
-0.3328751574803149
11
0.1970477952755905
21
-0.2182338976377953
0
LINE
8
BLACK
6
CONTINUOUS
10
0.1970477952755905
20
-0.2182338976377953
11
0.1414613779527559
21
-0.218305905511811
0
LINE
8
BLACK
6
CONTINUOUS
10
0.3354947637795275
20
-0.206212874015748
11
0.3360274409448819
21
-0.2067455511811024
0
LINE
8
BLACK
6
CONTINUOUS
10
0.3360274409448819
20
-0.2067455511811024
11
0.3361023622047244
21
-0.3331064566929134
0
LINE
8
BLACK
6
CONTINUOUS
10
0.3361023622047244
20
-0.3331064566929134
11
0.3360274409448819
21
-0.3334831102362205
0
LINE
8
BLACK
6
CONTINUOUS
10
0.3360274409448819
20
-0.3334831102362205
11
0.3354947637795275
21
-0.3340157874015748
0
LINE
8
BLACK
6
CONTINUOUS
10
0.3354947637795275
20
-0.3340157874015748
11
0.2248818897637795
21
-0.3340907086614173
0
LINE
8
BLACK
6
CONTINUOUS
10
0.2248818897637795
20
-0.3340907086614173
11
0.2245052362204724
21
-0.3340157874015748
0
LINE
8
BLACK
6
CONTINUOUS
10
0.2245052362204724
20
-0.3340157874015748
11
0.2239725590551181
21
-0.3334831102362205
0
LINE
8
BLACK
6
CONTINUOUS
10
0.2239725590551181
20
-0.3334831102362205
11
0.2239725590551181
21
-0.3334816141732284
0
LINE
8
BLACK
6
CONTINUOUS
10
0.2239725590551181
20
-0.3334816141732284
11
0.2238976377952756
21
-0.2071222047244095
0
LINE
8
BLACK
6
CONTINUOUS
10
0.2238976377952756
20
-0.2071222047244095
11
0.2239725590551181
21
-0.2067455511811024
0
LINE
8
BLACK
6
CONTINUOUS
10
0.2239725590551181
20
-0.2067455511811024
11
0.2245052362204724
21
-0.206212874015748
0
LINE
8
BLACK
6
CONTINUOUS
10
0.2245052362204724
20
-0.206212874015748
11
0.3351181102362205
21
-0.2061379527559055
0
LINE
8
BLACK
6
CONTINUOUS
10
0.3351181102362205
20
-0.2061379527559055
11
0.3354947637795275
21
-0.206212874015748
0
LINE
8
BLACK
6
CONTINUOUS
10
0.2257920078740157
20
-0.2081058267716535
11
0.2258655905511811
21
-0.3321961811023622
0
LINE
8
BLACK
6
CONTINUOUS
10
0.2258655905511811
20
-0.3321961811023622
11
0.3342079527559055
21
-0.3321227952755905
0
LINE
8
BLACK
6
CONTINUOUS
10
0.3342079527559055
20
-0.3321227952755905
11
0.3341343700787401
21
-0.2080324409448819
0
LINE
8
BLACK
6
CONTINUOUS
10
0.3341343700787401
20
-0.2080324409448819
11
0.2257920078740157
21
-0.2081058267716535
0
LINE
8
BLACK
6
CONTINUOUS
10
0.5393688188976378
20
-0.2360116141732283
11
0.5469390157480315
21
-0.2383079921259842
0
LINE
8
BLACK
6
CONTINUOUS
10
0.5469390157480315
20
-0.2383079921259842
11
0.5539157086614173
21
-0.2420371653543307
0
LINE
8
BLACK
6
CONTINUOUS
10
0.5539157086614173
20
-0.2420371653543307
11
0.5600308661417323
21
-0.247055748031496
0
LINE
8
BLACK
6
CONTINUOUS
10
0.5600308661417323
20
-0.247055748031496
11
0.5650494488188976
21
-0.253170905511811
0
LINE
8
BLACK
6
CONTINUOUS
10
0.5650494488188976
20
-0.253170905511811
11
0.5687786220472441
21
-0.2601475984251969
0
LINE
8
BLACK
6
CONTINUOUS
10
0.5687786220472441
20
-0.2601475984251969
11
0.571075
21
-0.2677177952755905
0
LINE
8
BLACK
6
CONTINUOUS
10
0.571075
20
-0.2677177952755905
11
0.5718503937007874
21
-0.2755905511811024
0
LINE
8
BLACK
6
CONTINUOUS
10
0.5718503937007874
20
-0.2755905511811024
11
0.571075
21
-0.2834633070866142
0
LINE
8
BLACK
6
CONTINUOUS
10
0.571075
20
-0.2834633070866142
11
0.5687786220472441
21
-0.2910335039370079
0
LINE
8
BLACK
6
CONTINUOUS
10
0.5687786220472441
20
-0.2910335039370079
11
0.5650494488188976
21
-0.2980101968503937
0
LINE
8
BLACK
6
CONTINUOUS
10
0.5650494488188976
20
-0.2980101968503937
11
0.5600308661417323
21
-0.3041253543307086
0
LINE
8
BLACK
6
CONTINUOUS
10
0.5600308661417323
20
-0.3041253543307086
11
0.5539157086614173
21
-0.309143937007874
0
LINE
8
BLACK
6
CONTINUOUS
10
0.5539157086614173
20
-0.309143937007874
11
0.5469390157480315
21
-0.3128731102362204
0
LINE
8
BLACK
6
CONTINUOUS
10
0.5469390157480315
20
-0.3128731102362204
11
0.5393688188976378
21
-0.3151694881889764
0
LINE
8
BLACK
6
CONTINUOUS
10
0.5393688188976378
20
-0.3151694881889764
11
0.5314960629921259
21
-0.3159448818897638
0
LINE
8
BLACK
6
CONTINUOUS
10
0.5314960629921259
20
-0.3159448818897638
11
0.5236233070866142
21
-0.3151694881889764
0
LINE
8
BLACK
6
CONTINUOUS
10
0.5236233070866142
20
-0.3151694881889764
11
0.5160531102362205
21
-0.3128731102362204
0
LINE
8
BLACK
6
CONTINUOUS
10
0.5160531102362205
20
-0.3128731102362204
11
0.5090764173228346
21
-0.309143937007874
0
LINE
8
BLACK
6
CONTINUOUS
10
0.5090764173228346
20
-0.309143937007874
11
0.5029612598425197
21
-0.3041253543307086
0
LINE
8
BLACK
6
CONTINUOUS
10
0.5029612598425197
20
-0.3041253543307086
11
0.4979426771653543
21
-0.2980101968503937
0
LINE
8
BLACK
6
CONTINUOUS
10
0.4979426771653543
20
-0.2980101968503937
11
0.4942135039370079
21
-0.2910335039370079
0
LINE
8
BLACK
6
CONTINUOUS
10
0.4942135039370079
20
-0.2910335039370079
11
0.491917125984252
21
-0.2834633070866142
0
LINE
8
BLACK
6
CONTINUOUS
10
0.491917125984252
20
-0.2834633070866142
11
0.4911417322834646
21
-0.2755905511811024
0
LINE
8
BLACK
6
CONTINUOUS
10
0.4911417322834646
20
-0.2755905511811024
11
0.491917125984252
21
-0.2677177952755905
0
LINE
8
BLACK
6
CONTINUOUS
10
0.491917125984252
20
-0.2677177952755905
11
0.4942135039370079
21
-0.2601475984251969
0
LINE
8
BLACK
6
CONTINUOUS
10
0.4942135039370079
20
-0.2601475984251969
11
0.4979426771653543
21
-0.253170905511811
0
LINE
8
BLACK
6
CONTINUOUS
10
0.4979426771653543
20
-0.253170905511811
11
0.5029612598425197
21
-0.247055748031496
0
LINE
8
BLACK
6
CONTINUOUS
10
0.5029612598425197
20
-0.247055748031496
11
0.5090764173228346
21
-0.2420371653543307
0
LINE
8
BLACK
6
CONTINUOUS
10
0.5090764173228346
20
-0.2420371653543307
11
0.5160531102362205
21
-0.2383079921259842
0
LINE
8
BLACK
6
CONTINUOUS
10
0.5160531102362205
20
-0.2383079921259842
11
0.5236233070866142
21
-0.2360116141732283
0
LINE
8
BLACK
6
CONTINUOUS
10
0.5236233070866142
20
-0.2360116141732283
11
0.5314960629921259
21
-0.2352362204724409
0
LINE
8
BLACK
6
CONTINUOUS
10
0.5314960629921259
20
-0.2352362204724409
11
0.5393688188976378
21
-0.2360116141732283
0
LINE
8
BLACK
6
CONTINUOUS
10
0.4936656299212598
20
-0.2831155118110236
11
0.4958605905511811
21
-0.2903512598425197
0
LINE
8
BLACK
6
CONTINUOUS
10
0.4958605905511811
20
-0.2903512598425197
11
0.4994249606299213
21
-0.2970197637795275
0
LINE
8
BLACK
6
CONTINUOUS
10
0.4994249606299213
20
-0.2970197637795275
11
0.5042218503937008
21
-0.3028647637795275
0
LINE
8
BLACK
6
CONTINUOUS
10
0.5042218503937008
20
-0.3028647637795275
11
0.5100668503937008
21
-0.3076616535433071
0
LINE
8
BLACK
6
CONTINUOUS
10
0.5100668503937008
20
-0.3076616535433071
11
0.5167353543307086
21
-0.3112260236220472
0
LINE
8
BLACK
6
CONTINUOUS
10
0.5167353543307086
20
-0.3112260236220472
11
0.5239711023622047
21
-0.3134209842519685
0
LINE
8
BLACK
6
CONTINUOUS
10
0.5239711023622047
20
-0.3134209842519685
11
0.5314960629921259
21
-0.314162125984252
0
LINE
8
BLACK
6
CONTINUOUS
10
0.5314960629921259
20
-0.314162125984252
11
0.5390210236220472
21
-0.3134209842519685
0
LINE
8
BLACK
6
CONTINUOUS
10
0.5390210236220472
20
-0.3134209842519685
11
0.5462567716535432
21
-0.3112260236220472
0
LINE
8
BLACK
6
CONTINUOUS
10
0.5462567716535432
20
-0.3112260236220472
11
0.5529252755905512
21
-0.3076616535433071
0
LINE
8
BLACK
6
CONTINUOUS
10
0.5529252755905512
20
-0.3076616535433071
11
0.5587702755905511
21
-0.3028647637795275
0
LINE
8
BLACK
6
CONTINUOUS
10
0.5587702755905511
20
-0.3028647637795275
11
0.5635671653543307
21
-0.2970197637795275
0
LINE
8
BLACK
6
CONTINUOUS
10
0.5635671653543307
20
-0.2970197637795275
11
0.5671315354330708
21
-0.2903512598425197
0
LINE
8
BLACK
6
CONTINUOUS
10
0.5671315354330708
20
-0.2903512598425197
11
0.5693264960629921
21
-0.2831155118110236
0
LINE
8
BLACK
6
CONTINUOUS
10
0.5693264960629921
20
-0.2831155118110236
11
0.5700676377952756
21
-0.2755905511811024
0
LINE
8
BLACK
6
CONTINUOUS
10
0.5700676377952756
20
-0.2755905511811024
11
0.5693264960629921
21
-0.2680655905511811
0
LINE
8
BLACK
6
CONTINUOUS
10
0.5693264960629921
20
-0.2680655905511811
11
0.5671315354330708
21
-0.2608298425196851
0
LINE
8
BLACK
6
CONTINUOUS
10
0.5671315354330708
20
-0.2608298425196851
11
0.5635671653543307
21
-0.2541613385826771
0
LINE
8
BLACK
6
CONTINUOUS
10
0.5635671653543307
20
-0.2541613385826771
11
0.5587702755905511
21
-0.2483163385826772
0
LINE
8
BLACK
6
CONTINUOUS
10
0.5587702755905511
20
-0.2483163385826772
11
0.5529252755905512
21
-0.2435194488188976
0
LINE
8
BLACK
6
CONTINUOUS
10
0.5529252755905512
20
-0.2435194488188976
11
0.5462567716535432
21
-0.2399550787401575
0
LINE
8
BLACK
6
CONTINUOUS
10
0.5462567716535432
20
-0.2399550787401575
11
0.5390210236220472
21
-0.2377601181102362
0
LINE
8
BLACK
6
CONTINUOUS
10
0.5390210236220472
20
-0.2377601181102362
11
0.5314960629921259
21
-0.2370189763779527
0
LINE
8
BLACK
6
CONTINUOUS
10
0.5314960629921259
20
-0.2370189763779527
11
0.5239711023622047
21
-0.2377601181102362
0
LINE
8
BLACK
6
CONTINUOUS
10
0.5239711023622047
20
-0.2377601181102362
11
0.5167353543307086
21
-0.2399550787401575
0
LINE
8
BLACK
6
CONTINUOUS
10
0.5167353543307086
20
-0.2399550787401575
11
0.5100668503937008
21
-0.2435194488188976
0
LINE
8
BLACK
6
CONTINUOUS
10
0.5100668503937008
20
-0.2435194488188976
11
0.5042218503937008
21
-0.2483163385826772
0
LINE
8
BLACK
6
CONTINUOUS
10
0.5042218503937008
20
-0.2483163385826772
11
0.4994249606299213
21
-0.2541613385826771
0
LINE
8
BLACK
6
CONTINUOUS
10
0.4994249606299213
20
-0.2541613385826771
11
0.4958605905511811
21
-0.2608298425196851
0
LINE
8
BLACK
6
CONTINUOUS
10
0.4958605905511811
20
-0.2608298425196851
11
0.4936656299212598
21
-0.2680655905511811
0
LINE
8
BLACK
6
CONTINUOUS
10
0.4936656299212598
20
-0.2680655905511811
11
0.4929244881889764
21
-0.2755905511811024
0
LINE
8
BLACK
6
CONTINUOUS
10
0.4929244881889764
20
-0.2755905511811024
11
0.4936656299212598
21
-0.2831155118110236
0
LINE
8
BLACK
6
CONTINUOUS
10
0.6407309842519685
20
0.1705943700787401
11
0.6412636614173228
21
0.1700616929133858
0
LINE
8
BLACK
6
CONTINUOUS
10
0.6412636614173228
20
0.1700616929133858
11
0.6413385826771654
21
-0.1708661417322835
0
LINE
8
BLACK
6
CONTINUOUS
10
0.6413385826771654
20
-0.1708661417322835
11
0.6412636614173228
21
-0.1712427952755906
0
LINE
8
BLACK
6
CONTINUOUS
10
0.6412636614173228
20
-0.1712427952755906
11
0.6407309842519685
21
-0.1717754724409449
0
LINE
8
BLACK
6
CONTINUOUS
10
0.6407309842519685
20
-0.1717754724409449
11
0.1541338582677165
21
-0.1718503937007874
0
LINE
8
BLACK
6
CONTINUOUS
10
0.1541338582677165
20
-0.1718503937007874
11
0.1537572047244095
21
-0.1717754724409449
0
LINE
8
BLACK
6
CONTINUOUS
10
0.1537572047244095
20
-0.1717754724409449
11
0.1532245275590551
21
-0.1712427952755906
0
LINE
8
BLACK
6
CONTINUOUS
10
0.1532245275590551
20
-0.1712427952755906
11
0.1531496062992126
21
0.1696850393700787
0
LINE
8
BLACK
6
CONTINUOUS
10
0.1531496062992126
20
0.1696850393700787
11
0.1532245275590551
21
0.1700616929133858
0
LINE
8
BLACK
6
CONTINUOUS
10
0.1532245275590551
20
0.1700616929133858
11
0.1537572047244095
21
0.1705943700787401
0
LINE
8
BLACK
6
CONTINUOUS
10
0.1537572047244095
20
0.1705943700787401
11
0.6403543307086614
21
0.1706692913385827
0
LINE
8
BLACK
6
CONTINUOUS
10
0.6403543307086614
20
0.1706692913385827
11
0.6407309842519685
21
0.1705943700787401
0
LINE
8
BLACK
6
CONTINUOUS
10
0.1550434645669291
20
0.1687009448818897
11
0.155117874015748
21
-0.1699565748031496
0
LINE
8
BLACK
6
CONTINUOUS
10
0.155117874015748
20
-0.1699565748031496
11
0.63944468503937
21
-0.1698820078740158
0
LINE
8
BLACK
6
CONTINUOUS
10
0.63944468503937
20
-0.1698820078740158
11
0.6393702755905512
21
0.1687755118110236
0
LINE
8
BLACK
6
CONTINUOUS
10
0.6393702755905512
20
0.1687755118110236
11
0.1550434645669291
21
0.1687009448818897
0
LINE
8
BLACK
6
CONTINUOUS
10
-0.5995446062992126
20
0.3759524803149606
11
-0.5990119291338583
21
0.3754198031496063
0
LINE
8
BLACK
6
CONTINUOUS
10
-0.5990119291338583
20
0.3754198031496063
11
-0.5990011811023622
21
0.3219841338582677
0
LINE
8
BLACK
6
CONTINUOUS
10
-0.5990011811023622
20
0.3219841338582677
11
-0.4945669291338582
21
0.3220510236220472
0
LINE
8
BLACK
6
CONTINUOUS
10
-0.4945669291338582
20
0.3220510236220472
11
-0.4941902755905512
21
0.3219761023622047
0
LINE
8
BLACK
6
CONTINUOUS
10
-0.4941902755905512
20
0.3219761023622047
11
-0.4936575984251969
21
0.3214434251968504
0
LINE
8
BLACK
6
CONTINUOUS
10
-0.4936575984251969
20
0.3214434251968504
11
-0.4935826771653543
21
0.2635864566929134
0
LINE
8
BLACK
6
CONTINUOUS
10
-0.4935826771653543
20
0.2635864566929134
11
-0.4936575984251969
21
0.2632098031496063
0
LINE
8
BLACK
6
CONTINUOUS
10
-0.4936575984251969
20
0.2632098031496063
11
-0.4941902755905512
21
0.262677125984252
0
LINE
8
BLACK
6
CONTINUOUS
10
-0.4941902755905512
20
0.262677125984252
11
-0.5989892125984252
21
0.26261
0
LINE
8
BLACK
6
CONTINUOUS
10
-0.5989892125984252
20
0.26261
11
-0.5989524015748031
21
0.0796813385826772
0
LINE
8
BLACK
6
CONTINUOUS
10
-0.5989524015748031
20
0.0796813385826772
11
-0.5317322834645669
21
0.0797244094488189
0
LINE
8
BLACK
6
CONTINUOUS
10
-0.5317322834645669
20
0.0797244094488189
11
-0.5313556299212598
21
0.0796494881889764
0
LINE
8
BLACK
6
CONTINUOUS
10
-0.5313556299212598
20
0.0796494881889764
11
-0.5308229527559055
21
0.079116811023622
0
LINE
8
BLACK
6
CONTINUOUS
10
-0.5308229527559055
20
0.079116811023622
11
-0.530748031496063
21
0.021259842519685
0
LINE
8
BLACK
6
CONTINUOUS
10
-0.530748031496063
20
0.021259842519685
11
-0.5308229527559055
21
0.020883188976378
0
LINE
8
BLACK
6
CONTINUOUS
10
-0.5308229527559055
20
0.020883188976378
11
-0.5313556299212598
21
0.0203505118110236
0
LINE
8
BLACK
6
CONTINUOUS
10
-0.5313556299212598
20
0.0203505118110236
11
-0.5989404330708661
21
0.0203072047244094
0
LINE
8
BLACK
6
CONTINUOUS
10
-0.5989404330708661
20
0.0203072047244094
11
-0.5989370078740157
21
0.0033896062992126
0
LINE
8
BLACK
6
CONTINUOUS
10
-0.5989370078740157
20
0.0033896062992126
11
-0.5990119291338583
21
0.0030129527559055
0
LINE
8
BLACK
6
CONTINUOUS
10
-0.5990119291338583
20
0.0030129527559055
11
-0.5995446062992126
21
0.0024802755905512
0
LINE
8
BLACK
6
CONTINUOUS
10
-0.5995446062992126
20
0.0024802755905512
11
-0.8518897637795275
21
0.0024053543307087
0
LINE
8
BLACK
6
CONTINUOUS
10
-0.8518897637795275
20
0.0024053543307087
11
-0.8522664173228346
21
0.0024802755905512
0
LINE
8
BLACK
6
CONTINUOUS
10
-0.8522664173228346
20
0.0024802755905512
11
-0.8527990944881889
21
0.0030129527559055
0
LINE
8
BLACK
6
CONTINUOUS
10
-0.8527990944881889
20
0.0030129527559055
11
-0.8528740157480315
21
0.3750431496062992
0
LINE
8
BLACK
6
CONTINUOUS
10
-0.8528740157480315
20
0.3750431496062992
11
-0.8527990944881889
21
0.3754198031496063
0
LINE
8
BLACK
6
CONTINUOUS
10
-0.8527990944881889
20
0.3754198031496063
11
-0.8522664173228346
21
0.3759524803149606
0
LINE
8
BLACK
6
CONTINUOUS
10
-0.8522664173228346
20
0.3759524803149606
11
-0.5999212598425196
21
0.3760274015748031
0
LINE
8
BLACK
6
CONTINUOUS
10
-0.5999212598425196
20
0.3760274015748031
11
-0.5995446062992126
21
0.3759524803149606
0
LINE
8
BLACK
6
CONTINUOUS
10
-0.8509801968503937
20
0.3740591732283465
11
-0.8509057086614173
21
0.0042993700787402
0
LINE
8
BLACK
6
CONTINUOUS
10
-0.8509057086614173
20
0.0042993700787402
11
-0.6008308661417323
21
0.0043736220472441
0
LINE
8
BLACK
6
CONTINUOUS
10
-0.6008308661417323
20
0.0043736220472441
11
-0.6008340944881889
21
0.0203060236220472
0
LINE
8
BLACK
6
CONTINUOUS
10
-0.6008340944881889
20
0.0203060236220472
11
-0.648267716535433
21
0.0202755905511811
0
LINE
8
BLACK
6
CONTINUOUS
10
-0.648267716535433
20
0.0202755905511811
11
-0.6486443700787401
21
0.0203505118110236
0
LINE
8
BLACK
6
CONTINUOUS
10
-0.6486443700787401
20
0.0203505118110236
11
-0.6491770472440944
21
0.020883188976378
0
LINE
8
BLACK
6
CONTINUOUS
10
-0.6491770472440944
20
0.020883188976378
11
-0.649251968503937
21
0.078740157480315
0
LINE
8
BLACK
6
CONTINUOUS
10
-0.649251968503937
20
0.078740157480315
11
-0.6491770472440944
21
0.079116811023622
0
LINE
8
BLACK
6
CONTINUOUS
10
-0.6491770472440944
20
0.079116811023622
11
-0.6486443700787401
21
0.0796494881889764
0
LINE
8
BLACK
6
CONTINUOUS
10
-0.6486443700787401
20
0.0796494881889764
11
-0.600846062992126
21
0.079680157480315
0
LINE
8
BLACK
6
CONTINUOUS
10
-0.600846062992126
20
0.079680157480315
11
-0.600882874015748
21
0.2626087795275591
0
LINE
8
BLACK
6
CONTINUOUS
10
-0.600882874015748
20
0.2626087795275591
11
-0.6111023622047244
21
0.2626022047244094
0
LINE
8
BLACK
6
CONTINUOUS
10
-0.6111023622047244
20
0.2626022047244094
11
-0.6114790157480314
21
0.262677125984252
0
LINE
8
BLACK
6
CONTINUOUS
10
-0.6114790157480314
20
0.262677125984252
11
-0.6120116929133859
21
0.2632098031496063
0
LINE
8
BLACK
6
CONTINUOUS
10
-0.6120116929133859
20
0.2632098031496063
11
-0.6120866141732283
21
0.3210667716535433
0
LINE
8
BLACK
6
CONTINUOUS
10
-0.6120866141732283
20
0.3210667716535433
11
-0.6120116929133859
21
0.3214434251968504
0
LINE
8
BLACK
6
CONTINUOUS
10
-0.6120116929133859
20
0.3214434251968504
11
-0.6114790157480314
21
0.3219761023622047
0
LINE
8
BLACK
6
CONTINUOUS
10
-0.6114790157480314
20
0.3219761023622047
11
-0.6008948425196851
21
0.3219829133858267
0
LINE
8
BLACK
6
CONTINUOUS
10
-0.6008948425196851
20
0.3219829133858267
11
-0.6009053543307087
21
0.3741334251968504
0
LINE
8
BLACK
6
CONTINUOUS
10
-0.6009053543307087
20
0.3741334251968504
11
-0.8509801968503937
21
0.3740591732283465
0
LINE
8
BLACK
6
CONTINUOUS
10
-0.6473566535433071
20
0.0777564960629921
11
-0.6472846456692913
21
0.0221700787401575
0
LINE
8
BLACK
6
CONTINUOUS
10
-0.6472846456692913
20
0.0221700787401575
11
-0.6008344881889763
21
0.022199842519685
0
LINE
8
BLACK
6
CONTINUOUS
10
-0.6008344881889763
20
0.022199842519685
11
-0.6008456692913385
21
0.0777862992125984
0
LINE
8
BLACK
6
CONTINUOUS
10
-0.6008456692913385
20
0.0777862992125984
11
-0.6473566535433071
21
0.0777564960629921
0
LINE
8
BLACK
6
CONTINUOUS
10
-0.5989520078740157
20
0.0777875196850394
11
-0.5989408267716535
21
0.022201062992126
0
LINE
8
BLACK
6
CONTINUOUS
10
-0.5989408267716535
20
0.022201062992126
11
-0.5326433858267716
21
0.0222435433070866
0
LINE
8
BLACK
6
CONTINUOUS
10
-0.5326433858267716
20
0.0222435433070866
11
-0.5327153937007874
21
0.0778299606299213
0
LINE
8
BLACK
6
CONTINUOUS
10
-0.5327153937007874
20
0.0778299606299213
11
-0.5989520078740157
21
0.0777875196850394
0
LINE
8
BLACK
6
CONTINUOUS
10
-0.6101912992125984
20
0.3200831102362205
11
-0.6101192913385827
21
0.2644966929133858
0
LINE
8
BLACK
6
CONTINUOUS
10
-0.6101192913385827
20
0.2644966929133858
11
-0.6008832677165354
21
0.2645025984251969
0
LINE
8
BLACK
6
CONTINUOUS
10
-0.6008832677165354
20
0.2645025984251969
11
-0.6008944488188976
21
0.320089094488189
0
LINE
8
BLACK
6
CONTINUOUS
10
-0.6008944488188976
20
0.320089094488189
11
-0.6101912992125984
21
0.3200831102362205
0
LINE
8
BLACK
6
CONTINUOUS
10
-0.5990007874015748
20
0.3200902755905512
11
-0.5989896062992126
21
0.2645038188976378
0
LINE
8
BLACK
6
CONTINUOUS
10
-0.5989896062992126
20
0.2645038188976378
11
-0.495478031496063
21
0.2645701574803149
0
LINE
8
BLACK
6
CONTINUOUS
10
-0.495478031496063
20
0.2645701574803149
11
-0.4955500393700787
21
0.3201565748031496
0
LINE
8
BLACK
6
CONTINUOUS
10
-0.4955500393700787
20
0.3201565748031496
11
-0.5990007874015748
21
0.3200902755905512
0
LINE
8
BLACK
6
CONTINUOUS
10
-0.1418831889763779
20
0.1920627165354331
11
-0.1413505118110236
21
0.1915300393700787
0
LINE
8
BLACK
6
CONTINUOUS
10
-0.1413505118110236
20
0.1915300393700787
11
-0.1412755905511811
21
0.0746179527559055
0
LINE
8
BLACK
6
CONTINUOUS
10
-0.1412755905511811
20
0.0746179527559055
11
-0.1413505118110236
21
0.0742412992125984
0
LINE
8
BLACK
6
CONTINUOUS
10
-0.1413505118110236
20
0.0742412992125984
11
-0.1418831889763779
21
0.0737086220472441
0
LINE
8
BLACK
6
CONTINUOUS
10
-0.1418831889763779
20
0.0737086220472441
11
-0.199740157480315
21
0.0736337007874016
0
LINE
8
BLACK
6
CONTINUOUS
10
-0.199740157480315
20
0.0736337007874016
11
-0.2001168110236221
21
0.0737086220472441
0
LINE
8
BLACK
6
CONTINUOUS
10
-0.2001168110236221
20
0.0737086220472441
11
-0.2006494881889764
21
0.0742412992125984
0
LINE
8
BLACK
6
CONTINUOUS
10
-0.2006494881889764
20
0.0742412992125984
11
-0.2007244094488189
21
0.1911533858267717
0
LINE
8
BLACK
6
CONTINUOUS
10
-0.2007244094488189
20
0.1911533858267717
11
-0.2006494881889764
21
0.1915300393700787
0
LINE
8
BLACK
6
CONTINUOUS
10
-0.2006494881889764
20
0.1915300393700787
11
-0.2001168110236221
21
0.1920627165354331
0
LINE
8
BLACK
6
CONTINUOUS
10
-0.2001168110236221
20
0.1920627165354331
11
-0.142259842519685
21
0.1921376377952756
0
LINE
8
BLACK
6
CONTINUOUS
10
-0.142259842519685
20
0.1921376377952756
11
-0.1418831889763779
21
0.1920627165354331
0
LINE
8
BLACK
6
CONTINUOUS
10
-0.1988299606299213
20
0.1901703149606299
11
-0.1987564960629921
21
0.0755290551181102
0
LINE
8
BLACK
6
CONTINUOUS
10
-0.1987564960629921
20
0.0755290551181102
11
-0.1431700787401575
21
0.075601062992126
0
LINE
8
BLACK
6
CONTINUOUS
10
-0.1431700787401575
20
0.075601062992126
11
-0.1432435433070866
21
0.1902423228346457
0
LINE
8
BLACK
6
CONTINUOUS
10
-0.1432435433070866
20
0.1902423228346457
11
-0.1988299606299213
21
0.1901703149606299
0
LINE
8
BLACK
6
CONTINUOUS
10
0.1239002755905512
20
0.3444170472440945
11
0.1244329527559055
21
0.3438843700787402
0
LINE
8
BLACK
6
CONTINUOUS
10
0.1244329527559055
20
0.3438843700787402
11
0.124507874015748
21
0.1624053543307087
0
LINE
8
BLACK
6
CONTINUOUS
10
0.124507874015748
20
0.1624053543307087
11
0.1244329527559055
21
0.1620287007874016
0
LINE
8
BLACK
6
CONTINUOUS
10
0.1244329527559055
20
0.1620287007874016
11
0.1239002755905512
21
0.1614960236220472
0
LINE
8
BLACK
6
CONTINUOUS
10
0.1239002755905512
20
0.1614960236220472
11
0.0250984251968504
21
0.1614211023622047
0
LINE
8
BLACK
6
CONTINUOUS
10
0.0250984251968504
20
0.1614211023622047
11
0.0247217716535433
21
0.1614960236220472
0
LINE
8
BLACK
6
CONTINUOUS
10
0.0247217716535433
20
0.1614960236220472
11
0.024189094488189
21
0.1620287007874016
0
LINE
8
BLACK
6
CONTINUOUS
10
0.024189094488189
20
0.1620287007874016
11
0.0241141732283465
21
0.343507716535433
0
LINE
8
BLACK
6
CONTINUOUS
10
0.0241141732283465
20
0.343507716535433
11
0.024189094488189
21
0.3438843700787402
0
LINE
8
BLACK
6
CONTINUOUS
10
0.024189094488189
20
0.3438843700787402
11
0.0247217716535433
21
0.3444170472440945
0
LINE
8
BLACK
6
CONTINUOUS
10
0.0247217716535433
20
0.3444170472440945
11
0.1235236220472441
21
0.344491968503937
0
LINE
8
BLACK
6
CONTINUOUS
10
0.1235236220472441
20
0.344491968503937
11
0.1239002755905512
21
0.3444170472440945
0
LINE
8
BLACK
6
CONTINUOUS
10
0.0260083070866142
20
0.3425241732283464
11
0.0260822834645669
21
0.1633157480314961
0
LINE
8
BLACK
6
CONTINUOUS
10
0.0260822834645669
20
0.1633157480314961
11
0.1226137007874016
21
0.163388937007874
0
LINE
8
BLACK
6
CONTINUOUS
10
0.1226137007874016
20
0.163388937007874
11
0.1225397244094488
21
0.3425973622047244
0
LINE
8
BLACK
6
CONTINUOUS
10
0.1225397244094488
20
0.3425973622047244
11
0.0260083070866142
21
0.3425241732283464
0
LINE
8
BLACK
6
CONTINUOUS
10
0.2177782283464567
20
0.3239446062992126
11
0.218310905511811
21
0.3234119291338582
0
LINE
8
BLACK
6
CONTINUOUS
10
0.218310905511811
20
0.3234119291338582
11
0.2183858267716536
21
0.190751811023622
0
LINE
8
BLACK
6
CONTINUOUS
10
0.2183858267716536
20
0.190751811023622
11
0.218310905511811
21
0.1903751574803149
0
LINE
8
BLACK
6
CONTINUOUS
10
0.218310905511811
20
0.1903751574803149
11
0.2177782283464567
21
0.1898424803149606
0
LINE
8
BLACK
6
CONTINUOUS
10
0.2177782283464567
20
0.1898424803149606
11
0.1425984251968504
21
0.1897675590551181
0
LINE
8
BLACK
6
CONTINUOUS
10
0.1425984251968504
20
0.1897675590551181
11
0.1422217716535433
21
0.1898424803149606
0
LINE
8
BLACK
6
CONTINUOUS
10
0.1422217716535433
20
0.1898424803149606
11
0.141689094488189
21
0.1903751574803149
0
LINE
8
BLACK
6
CONTINUOUS
10
0.141689094488189
20
0.1903751574803149
11
0.1416141732283465
21
0.3230352755905512
0
LINE
8
BLACK
6
CONTINUOUS
10
0.1416141732283465
20
0.3230352755905512
11
0.141689094488189
21
0.3234119291338582
0
LINE
8
BLACK
6
CONTINUOUS
10
0.141689094488189
20
0.3234119291338582
11
0.1422217716535433
21
0.3239446062992126
0
LINE
8
BLACK
6
CONTINUOUS
10
0.1422217716535433
20
0.3239446062992126
11
0.2174015748031496
21
0.3240195275590551
0
LINE
8
BLACK
6
CONTINUOUS
10
0.2174015748031496
20
0.3240195275590551
11
0.2177782283464567
21
0.3239446062992126
0
LINE
8
BLACK
6
CONTINUOUS
10
0.1435085039370079
20
0.322051968503937
11
0.143582125984252
21
0.1916625196850394
0
LINE
8
BLACK
6
CONTINUOUS
10
0.143582125984252
20
0.1916625196850394
11
0.2164914566929134
21
0.1917351574803149
0
LINE
8
BLACK
6
CONTINUOUS
10
0.2164914566929134
20
0.1917351574803149
11
0.2164178346456693
21
0.3221246062992126
0
LINE
8
BLACK
6
CONTINUOUS
10
0.2164178346456693
20
0.3221246062992126
11
0.1435085039370079
21
0.322051968503937
0
LINE
8
BLACK
6
CONTINUOUS
10
0.3924238976377953
20
0.3239446062992126
11
0.3929565748031496
21
0.3234119291338582
0
LINE
8
BLACK
6
CONTINUOUS
10
0.3929565748031496
20
0.3234119291338582
11
0.3930314960629921
21
0.190751811023622
0
LINE
8
BLACK
6
CONTINUOUS
10
0.3930314960629921
20
0.190751811023622
11
0.3929565748031496
21
0.1903751574803149
0
LINE
8
BLACK
6
CONTINUOUS
10
0.3929565748031496
20
0.1903751574803149
11
0.3924238976377953
21
0.1898424803149606
0
LINE
8
BLACK
6
CONTINUOUS
10
0.3924238976377953
20
0.1898424803149606
11
0.317244094488189
21
0.1897675590551181
0
LINE
8
BLACK
6
CONTINUOUS
10
0.317244094488189
20
0.1897675590551181
11
0.3168674409448819
21
0.1898424803149606
0
LINE
8
BLACK
6
CONTINUOUS
10
0.3168674409448819
20
0.1898424803149606
11
0.3163347637795276
21
0.1903751574803149
0
LINE
8
BLACK
6
CONTINUOUS
10
0.3163347637795276
20
0.1903751574803149
11
0.316259842519685
21
0.3230352755905512
0
LINE
8
BLACK
6
CONTINUOUS
10
0.316259842519685
20
0.3230352755905512
11
0.3163347637795276
21
0.3234119291338582
0
LINE
8
BLACK
6
CONTINUOUS
10
0.3163347637795276
20
0.3234119291338582
11
0.3168674409448819
21
0.3239446062992126
0
LINE
8
BLACK
6
CONTINUOUS
10
0.3168674409448819
20
0.3239446062992126
11
0.3920472440944882
21
0.3240195275590551
0
LINE
8
BLACK
6
CONTINUOUS
10
0.3920472440944882
20
0.3240195275590551
11
0.3924238976377953
21
0.3239446062992126
0
LINE
8
BLACK
6
CONTINUOUS
10
0.3181541732283464
20
0.322051968503937
11
0.3182277952755905
21
0.1916625196850394
0
LINE
8
BLACK
6
CONTINUOUS
10
0.3182277952755905
20
0.1916625196850394
11
0.3911371259842519
21
0.1917351574803149
0
LINE
8
BLACK
6
CONTINUOUS
10
0.3911371259842519
20
0.1917351574803149
11
0.3910635039370078
21
0.3221246062992126
0
LINE
8
BLACK
6
CONTINUOUS
10
0.3910635039370078
20
0.3221246062992126
11
0.3181541732283464
21
0.322051968503937
0
LINE
8
BLACK
6
CONTINUOUS
10
-0.0583635039370079
20
0.3306375196850393
11
-0.0578308267716535
21
0.330104842519685
0
LINE
8
BLACK
6
CONTINUOUS
10
-0.0578308267716535
20
0.330104842519685
11
-0.057755905511811
21
0.1958699212598425
0
LINE
8
BLACK
6
CONTINUOUS
10
-0.057755905511811
20
0.1958699212598425
11
-0.0578308267716535
21
0.1954932677165354
0
LINE
8
BLACK
6
CONTINUOUS
10
-0.0578308267716535
20
0.1954932677165354
11
-0.0583635039370079
21
0.1949605905511811
0
LINE
8
BLACK
6
CONTINUOUS
10
-0.0583635039370079
20
0.1949605905511811
11
-0.2201574803149606
21
0.1948856692913386
0
LINE
8
BLACK
6
CONTINUOUS
10
-0.2201574803149606
20
0.1948856692913386
11
-0.2205341338582677
21
0.1949605905511811
0
LINE
8
BLACK
6
CONTINUOUS
10
-0.2205341338582677
20
0.1949605905511811
11
-0.2210668110236221
21
0.1954932677165354
0
LINE
8
BLACK
6
CONTINUOUS
10
-0.2210668110236221
20
0.1954932677165354
11
-0.2211417322834646
21
0.329728188976378
0
LINE
8
BLACK
6
CONTINUOUS
10
-0.2211417322834646
20
0.329728188976378
11
-0.2210668110236221
21
0.330104842519685
0
LINE
8
BLACK
6
CONTINUOUS
10
-0.2210668110236221
20
0.330104842519685
11
-0.2205341338582677
21
0.3306375196850393
0
LINE
8
BLACK
6
CONTINUOUS
10
-0.2205341338582677
20
0.3306375196850393
11
-0.058740157480315
21
0.3307124409448819
0
LINE
8
BLACK
6
CONTINUOUS
10
-0.058740157480315
20
0.3307124409448819
11
-0.0583635039370079
21
0.3306375196850393
0
LINE
8
BLACK
6
CONTINUOUS
10
-0.2192474015748032
20
0.3287443700787401
11
-0.2191737401574803
21
0.1967799212598425
0
LINE
8
BLACK
6
CONTINUOUS
10
-0.2191737401574803
20
0.1967799212598425
11
-0.0596502755905512
21
0.1968537795275591
0
LINE
8
BLACK
6
CONTINUOUS
10
-0.0596502755905512
20
0.1968537795275591
11
-0.059723937007874
21
0.3288182283464567
0
LINE
8
BLACK
6
CONTINUOUS
10
-0.059723937007874
20
0.3288182283464567
11
-0.2192474015748032
21
0.3287443700787401
0
LINE
8
BLACK
6
CONTINUOUS
10
0.2964396456692913
20
0.3160705905511811
11
0.2969723228346456
21
0.3155379133858268
0
LINE
8
BLACK
6
CONTINUOUS
10
0.2969723228346456
20
0.3155379133858268
11
0.2970472440944882
21
0.1986258267716536
0
LINE
8
BLACK
6
CONTINUOUS
10
0.2970472440944882
20
0.1986258267716536
11
0.2969723228346456
21
0.1982491732283465
0
LINE
8
BLACK
6
CONTINUOUS
10
0.2969723228346456
20
0.1982491732283465
11
0.2964396456692913
21
0.1977164960629921
0
LINE
8
BLACK
6
CONTINUOUS
10
0.2964396456692913
20
0.1977164960629921
11
0.2385826771653543
21
0.1976415748031496
0
LINE
8
BLACK
6
CONTINUOUS
10
0.2385826771653543
20
0.1976415748031496
11
0.2382060236220472
21
0.1977164960629921
0
LINE
8
BLACK
6
CONTINUOUS
10
0.2382060236220472
20
0.1977164960629921
11
0.2376733464566929
21
0.1982491732283465
0
LINE
8
BLACK
6
CONTINUOUS
10
0.2376733464566929
20
0.1982491732283465
11
0.2375984251968504
21
0.3151612598425197
0
LINE
8
BLACK
6
CONTINUOUS
10
0.2375984251968504
20
0.3151612598425197
11
0.2376733464566929
21
0.3155379133858268
0
LINE
8
BLACK
6
CONTINUOUS
10
0.2376733464566929
20
0.3155379133858268
11
0.2382060236220472
21
0.3160705905511811
0
LINE
8
BLACK
6
CONTINUOUS
10
0.2382060236220472
20
0.3160705905511811
11
0.2960629921259842
21
0.3161455118110236
0
LINE
8
BLACK
6
CONTINUOUS
10
0.2960629921259842
20
0.3161455118110236
11
0.2964396456692913
21
0.3160705905511811
0
LINE
8
BLACK
6
CONTINUOUS
10
0.239492874015748
20
0.3141781889763779
11
0.2395663385826771
21
0.1995369291338583
0
LINE
8
BLACK
6
CONTINUOUS
10
0.2395663385826771
20
0.1995369291338583
11
0.2951527559055118
21
0.199608937007874
0
LINE
8
BLACK
6
CONTINUOUS
10
0.2951527559055118
20
0.199608937007874
11
0.2950792913385827
21
0.3142501968503937
0
LINE
8
BLACK
6
CONTINUOUS
10
0.2950792913385827
20
0.3142501968503937
11
0.239492874015748
21
0.3141781889763779
0
LINE
8
BLACK
6
CONTINUOUS
10
0.0176207480314961
20
0.3259131102362204
11
0.0181534251968504
21
0.3253804330708661
0
LINE
8
BLACK
6
CONTINUOUS
10
0.0181534251968504
20
0.3253804330708661
11
0.0182283464566929
21
0.2084683464566929
0
LINE
8
BLACK
6
CONTINUOUS
10
0.0182283464566929
20
0.2084683464566929
11
0.0181534251968504
21
0.2080916929133858
0
LINE
8
BLACK
6
CONTINUOUS
10
0.0181534251968504
20
0.2080916929133858
11
0.0176207480314961
21
0.2075590157480315
0
LINE
8
BLACK
6
CONTINUOUS
10
0.0176207480314961
20
0.2075590157480315
11
-0.0402362204724409
21
0.207484094488189
0
LINE
8
BLACK
6
CONTINUOUS
10
-0.0402362204724409
20
0.207484094488189
11
-0.040612874015748
21
0.2075590157480315
0
LINE
8
BLACK
6
CONTINUOUS
10
-0.040612874015748
20
0.2075590157480315
11
-0.0411455511811024
21
0.2080916929133858
0
LINE
8
BLACK
6
CONTINUOUS
10
-0.0411455511811024
20
0.2080916929133858
11
-0.0412204724409449
21
0.325003779527559
0
LINE
8
BLACK
6
CONTINUOUS
10
-0.0412204724409449
20
0.325003779527559
11
-0.0411455511811024
21
0.3253804330708661
0
LINE
8
BLACK
6
CONTINUOUS
10
-0.0411455511811024
20
0.3253804330708661
11
-0.040612874015748
21
0.3259131102362204
0
LINE
8
BLACK
6
CONTINUOUS
10
-0.040612874015748
20
0.3259131102362204
11
0.017244094488189
21
0.325988031496063
0
LINE
8
BLACK
6
CONTINUOUS
10
0.017244094488189
20
0.325988031496063
11
0.0176207480314961
21
0.3259131102362204
0
LINE
8
BLACK
6
CONTINUOUS
10
-0.0393260236220472
20
0.3240207086614173
11
-0.0392525590551181
21
0.2093794488188976
0
LINE
8
BLACK
6
CONTINUOUS
10
-0.0392525590551181
20
0.2093794488188976
11
0.0163338582677165
21
0.2094514566929134
0
LINE
8
BLACK
6
CONTINUOUS
10
0.0163338582677165
20
0.2094514566929134
11
0.0162603937007874
21
0.3240927165354331
0
LINE
8
BLACK
6
CONTINUOUS
10
0.0162603937007874
20
0.3240927165354331
11
-0.0393260236220472
21
0.3240207086614173
0
LINE
8
BLACK
6
CONTINUOUS
10
0.5393688188976378
20
0.2954844488188976
11
0.5469390157480315
21
0.2931880708661417
0
LINE
8
BLACK
6
CONTINUOUS
10
0.5469390157480315
20
0.2931880708661417
11
0.5539157086614173
21
0.2894588976377953
0
LINE
8
BLACK
6
CONTINUOUS
10
0.5539157086614173
20
0.2894588976377953
11
0.5600308661417323
21
0.2844403149606299
0
LINE
8
BLACK
6
CONTINUOUS
10
0.5600308661417323
20
0.2844403149606299
11
0.5650494488188976
21
0.2783251574803149
0
LINE
8
BLACK
6
CONTINUOUS
10
0.5650494488188976
20
0.2783251574803149
11
0.5687786220472441
21
0.2713484645669291
0
LINE
8
BLACK
6
CONTINUOUS
10
0.5687786220472441
20
0.2713484645669291
11
0.571075
21
0.2637782677165355
0
LINE
8
BLACK
6
CONTINUOUS
10
0.571075
20
0.2637782677165355
11
0.5718503937007874
21
0.2559055118110236
0
LINE
8
BLACK
6
CONTINUOUS
10
0.5718503937007874
20
0.2559055118110236
11
0.571075
21
0.2480327559055118
0
LINE
8
BLACK
6
CONTINUOUS
10
0.571075
20
0.2480327559055118
11
0.5687786220472441
21
0.2404625590551181
0
LINE
8
BLACK
6
CONTINUOUS
10
0.5687786220472441
20
0.2404625590551181
11
0.5650494488188976
21
0.2334858661417323
0
LINE
8
BLACK
6
CONTINUOUS
10
0.5650494488188976
20
0.2334858661417323
11
0.5600308661417323
21
0.2273707086614173
0
LINE
8
BLACK
6
CONTINUOUS
10
0.5600308661417323
20
0.2273707086614173
11
0.5539157086614173
21
0.222352125984252
0
LINE
8
BLACK
6
CONTINUOUS
10
0.5539157086614173
20
0.222352125984252
11
0.5469390157480315
21
0.2186229527559055
0
LINE
8
BLACK
6
CONTINUOUS
10
0.5469390157480315
20
0.2186229527559055
11
0.5393688188976378
21
0.2163265748031496
0
LINE
8
BLACK
6
CONTINUOUS
10
0.5393688188976378
20
0.2163265748031496
11
0.5314960629921259
21
0.2155511811023622
0
LINE
8
BLACK
6
CONTINUOUS
10
0.5314960629921259
20
0.2155511811023622
11
0.5236233070866142
21
0.2163265748031496
0
LINE
8
BLACK
6
CONTINUOUS
10
0.5236233070866142
20
0.2163265748031496
11
0.5160531102362205
21
0.2186229527559055
0
LINE
8
BLACK
6
CONTINUOUS
10
0.5160531102362205
20
0.2186229527559055
11
0.5090764173228346
21
0.222352125984252
0
LINE
8
BLACK
6
CONTINUOUS
10
0.5090764173228346
20
0.222352125984252
11
0.5029612598425197
21
0.2273707086614173
0
LINE
8
BLACK
6
CONTINUOUS
10
0.5029612598425197
20
0.2273707086614173
11
0.4979426771653543
21
0.2334858661417323
0
LINE
8
BLACK
6
CONTINUOUS
10
0.4979426771653543
20
0.2334858661417323
11
0.4942135039370079
21
0.2404625590551181
0
LINE
8
BLACK
6
CONTINUOUS
10
0.4942135039370079
20
0.2404625590551181
11
0.491917125984252
21
0.2480327559055118
0
LINE
8
BLACK
6
CONTINUOUS
10
0.491917125984252
20
0.2480327559055118
11
0.4911417322834646
21
0.2559055118110236
0
LINE
8
BLACK
6
CONTINUOUS
10
0.4911417322834646
20
0.2559055118110236
11
0.491917125984252
21
0.2637782677165355
0
LINE
8
BLACK
6
CONTINUOUS
10
0.491917125984252
20
0.2637782677165355
11
0.4942135039370079
21
0.2713484645669291
0
LINE
8
BLACK
6
CONTINUOUS
10
0.4942135039370079
20
0.2713484645669291
11
0.4979426771653543
21
0.2783251574803149
0
LINE
8
BLACK
6
CONTINUOUS
10
0.4979426771653543
20
0.2783251574803149
11
0.5029612598425197
21
0.2844403149606299
0
LINE
8
BLACK
6
CONTINUOUS
10
0.5029612598425197
20
0.2844403149606299
11
0.5090764173228346
21
0.2894588976377953
0
LINE
8
BLACK
6
CONTINUOUS
10
0.5090764173228346
20
0.2894588976377953
11
0.5160531102362205
21
0.2931880708661417
0
LINE
8
BLACK
6
CONTINUOUS
10
0.5160531102362205
20
0.2931880708661417
11
0.5236233070866142
21
0.2954844488188976
0
LINE
8
BLACK
6
CONTINUOUS
10
0.5236233070866142
20
0.2954844488188976
11
0.5314960629921259
21
0.296259842519685
0
LINE
8
BLACK
6
CONTINUOUS
10
0.5314960629921259
20
0.296259842519685
11
0.5393688188976378
21
0.2954844488188976
0
LINE
8
BLACK
6
CONTINUOUS
10
0.4936656299212598
20
0.2483805511811024
11
0.4958605905511811
21
0.2411448031496063
0
LINE
8
BLACK
6
CONTINUOUS
10
0.4958605905511811
20
0.2411448031496063
11
0.4994249606299213
21
0.2344762992125984
0
LINE
8
BLACK
6
CONTINUOUS
10
0.4994249606299213
20
0.2344762992125984
11
0.5042218503937008
21
0.2286312992125984
0
LINE
8
BLACK
6
CONTINUOUS
10
0.5042218503937008
20
0.2286312992125984
11
0.5100668503937008
21
0.2238344094488189
0
LINE
8
BLACK
6
CONTINUOUS
10
0.5100668503937008
20
0.2238344094488189
11
0.5167353543307086
21
0.2202700393700787
0
LINE
8
BLACK
6
CONTINUOUS
10
0.5167353543307086
20
0.2202700393700787
11
0.5239711023622047
21
0.2180750787401575
0
LINE
8
BLACK
6
CONTINUOUS
10
0.5239711023622047
20
0.2180750787401575
11
0.5314960629921259
21
0.217333937007874
0
LINE
8
BLACK
6
CONTINUOUS
10
0.5314960629921259
20
0.217333937007874
11
0.5390210236220472
21
0.2180750787401575
0
LINE
8
BLACK
6
CONTINUOUS
10
0.5390210236220472
20
0.2180750787401575
11
0.5462567716535432
21
0.2202700393700787
0
LINE
8
BLACK
6
CONTINUOUS
10
0.5462567716535432
20
0.2202700393700787
11
0.5529252755905512
21
0.2238344094488189
0
LINE
8
BLACK
6
CONTINUOUS
10
0.5529252755905512
20
0.2238344094488189
11
0.5587702755905511
21
0.2286312992125984
0
LINE
8
BLACK
6
CONTINUOUS
10
0.5587702755905511
20
0.2286312992125984
11
0.5635671653543307
21
0.2344762992125984
0
LINE
8
BLACK
6
CONTINUOUS
10
0.5635671653543307
20
0.2344762992125984
11
0.5671315354330708
21
0.2411448031496063
0
LINE
8
BLACK
6
CONTINUOUS
10
0.5671315354330708
20
0.2411448031496063
11
0.5693264960629921
21
0.2483805511811024
0
LINE
8
BLACK
6
CONTINUOUS
10
0.5693264960629921
20
0.2483805511811024
11
0.5700676377952756
21
0.2559055118110236
0
LINE
8
BLACK
6
CONTINUOUS
10
0.5700676377952756
20
0.2559055118110236
11
0.5693264960629921
21
0.2634304724409449
0
LINE
8
BLACK
6
CONTINUOUS
10
0.5693264960629921
20
0.2634304724409449
11
0.5671315354330708
21
0.2706662204724409
0
LINE
8
BLACK
6
CONTINUOUS
10
0.5671315354330708
20
0.2706662204724409
11
0.5635671653543307
21
0.2773347244094488
0
LINE
8
BLACK
6
CONTINUOUS
10
0.5635671653543307
20
0.2773347244094488
11
0.5587702755905511
21
0.2831797244094488
0
LINE
8
BLACK
6
CONTINUOUS
10
0.5587702755905511
20
0.2831797244094488
11
0.5529252755905512
21
0.2879766141732283
0
LINE
8
BLACK
6
CONTINUOUS
10
0.5529252755905512
20
0.2879766141732283
11
0.5462567716535432
21
0.2915409842519685
0
LINE
8
BLACK
6
CONTINUOUS
10
0.5462567716535432
20
0.2915409842519685
11
0.5390210236220472
21
0.2937359448818898
0
LINE
8
BLACK
6
CONTINUOUS
10
0.5390210236220472
20
0.2937359448818898
11
0.5314960629921259
21
0.2944770866141732
0
LINE
8
BLACK
6
CONTINUOUS
10
0.5314960629921259
20
0.2944770866141732
11
0.5239711023622047
21
0.2937359448818898
0
LINE
8
BLACK
6
CONTINUOUS
10
0.5239711023622047
20
0.2937359448818898
11
0.5167353543307086
21
0.2915409842519685
0
LINE
8
BLACK
6
CONTINUOUS
10
0.5167353543307086
20
0.2915409842519685
11
0.5100668503937008
21
0.2879766141732283
0
LINE
8
BLACK
6
CONTINUOUS
10
0.5100668503937008
20
0.2879766141732283
11
0.5042218503937008
21
0.2831797244094488
0
LINE
8
BLACK
6
CONTINUOUS
10
0.5042218503937008
20
0.2831797244094488
11
0.4994249606299213
21
0.2773347244094488
0
LINE
8
BLACK
6
CONTINUOUS
10
0.4994249606299213
20
0.2773347244094488
11
0.4958605905511811
21
0.2706662204724409
0
LINE
8
BLACK
6
CONTINUOUS
10
0.4958605905511811
20
0.2706662204724409
11
0.4936656299212598
21
0.2634304724409449
0
LINE
8
BLACK
6
CONTINUOUS
10
0.4936656299212598
20
0.2634304724409449
11
0.4929244881889764
21
0.2559055118110236
0
LINE
8
BLACK
6
CONTINUOUS
10
0.4929244881889764
20
0.2559055118110236
11
0.4936656299212598
21
0.2483805511811024
0
LINE
8
BLACK
6
CONTINUOUS
10
-0.3642690157480315
20
0.3219761023622047
11
-0.3637363385826772
21
0.3214434251968504
0
LINE
8
BLACK
6
CONTINUOUS
10
-0.3637363385826772
20
0.3214434251968504
11
-0.3636614173228346
21
0.2635864566929134
0
LINE
8
BLACK
6
CONTINUOUS
10
-0.3636614173228346
20
0.2635864566929134
11
-0.3637363385826772
21
0.2632098031496063
0
LINE
8
BLACK
6
CONTINUOUS
10
-0.3637363385826772
20
0.2632098031496063
11
-0.3642690157480315
21
0.262677125984252
0
LINE
8
BLACK
6
CONTINUOUS
10
-0.3642690157480315
20
0.262677125984252
11
-0.4811811023622047
21
0.2626022047244094
0
LINE
8
BLACK
6
CONTINUOUS
10
-0.4811811023622047
20
0.2626022047244094
11
-0.4815577559055118
21
0.262677125984252
0
LINE
8
BLACK
6
CONTINUOUS
10
-0.4815577559055118
20
0.262677125984252
11
-0.4820904330708661
21
0.2632098031496063
0
LINE
8
BLACK
6
CONTINUOUS
10
-0.4820904330708661
20
0.2632098031496063
11
-0.4821653543307087
21
0.3210667716535433
0
LINE
8
BLACK
6
CONTINUOUS
10
-0.4821653543307087
20
0.3210667716535433
11
-0.4820904330708661
21
0.3214434251968504
0
LINE
8
BLACK
6
CONTINUOUS
10
-0.4820904330708661
20
0.3214434251968504
11
-0.4815577559055118
21
0.3219761023622047
0
LINE
8
BLACK
6
CONTINUOUS
10
-0.4815577559055118
20
0.3219761023622047
11
-0.3646456692913386
21
0.3220510236220472
0
LINE
8
BLACK
6
CONTINUOUS
10
-0.3646456692913386
20
0.3220510236220472
11
-0.3642690157480315
21
0.3219761023622047
0
LINE
8
BLACK
6
CONTINUOUS
10
-0.4802700393700787
20
0.3200831102362205
11
-0.480198031496063
21
0.2644966929133858
0
LINE
8
BLACK
6
CONTINUOUS
10
-0.480198031496063
20
0.2644966929133858
11
-0.3655567716535433
21
0.2645701574803149
0
LINE
8
BLACK
6
CONTINUOUS
10
-0.3655567716535433
20
0.2645701574803149
11
-0.3656287795275591
21
0.3201565748031496
0
LINE
8
BLACK
6
CONTINUOUS
10
-0.3656287795275591
20
0.3201565748031496
11
-0.4802700393700787
21
0.3200831102362205
0
LINE
8
BLACK
6
CONTINUOUS
10
-0.2343477559055118
20
0.3219761023622047
11
-0.2338150787401575
21
0.3214434251968504
0
LINE
8
BLACK
6
CONTINUOUS
10
-0.2338150787401575
20
0.3214434251968504
11
-0.233740157480315
21
0.2635864566929134
0
LINE
8
BLACK
6
CONTINUOUS
10
-0.233740157480315
20
0.2635864566929134
11
-0.2338150787401575
21
0.2632098031496063
0
LINE
8
BLACK
6
CONTINUOUS
10
-0.2338150787401575
20
0.2632098031496063
11
-0.2343477559055118
21
0.262677125984252
0
LINE
8
BLACK
6
CONTINUOUS
10
-0.2343477559055118
20
0.262677125984252
11
-0.351259842519685
21
0.2626022047244094
0
LINE
8
BLACK
6
CONTINUOUS
10
-0.351259842519685
20
0.2626022047244094
11
-0.3516364960629921
21
0.262677125984252
0
LINE
8
BLACK
6
CONTINUOUS
10
-0.3516364960629921
20
0.262677125984252
11
-0.3521691732283465
21
0.2632098031496063
0
LINE
8
BLACK
6
CONTINUOUS
10
-0.3521691732283465
20
0.2632098031496063
11
-0.3522440944881889
21
0.3210667716535433
0
LINE
8
BLACK
6
CONTINUOUS
10
-0.3522440944881889
20
0.3210667716535433
11
-0.3521691732283465
21
0.3214434251968504
0
LINE
8
BLACK
6
CONTINUOUS
10
-0.3521691732283465
20
0.3214434251968504
11
-0.3516364960629921
21
0.3219761023622047
0
LINE
8
BLACK
6
CONTINUOUS
10
-0.3516364960629921
20
0.3219761023622047
11
-0.2347244094488189
21
0.3220510236220472
0
LINE
8
BLACK
6
CONTINUOUS
10
-0.2347244094488189
20
0.3220510236220472
11
-0.2343477559055118
21
0.3219761023622047
0
LINE
8
BLACK
6
CONTINUOUS
10
-0.3503487795275591
20
0.3200831102362205
11
-0.3502767716535433
21
0.2644966929133858
0
LINE
8
BLACK
6
CONTINUOUS
10
-0.3502767716535433
20
0.2644966929133858
11
-0.2356355118110236
21
0.2645701574803149
0
LINE
8
BLACK
6
CONTINUOUS
10
-0.2356355118110236
20
0.2645701574803149
11
-0.2357075196850394
21
0.3201565748031496
0
LINE
8
BLACK
6
CONTINUOUS
10
-0.2357075196850394
20
0.3201565748031496
11
-0.3503487795275591
21
0.3200831102362205
  0
ENDSEC
  0
EOF
