  0
SECTION
  2
HEADER
  9
$ANGBASE
  50
0.0
  9
$ANGDIR
  70
1
  9
$MEASUREMENT
  70
0
  0
ENDSEC
  0
SECTION
  2
TABLES
  0
TABLE
  2
LTYPE
  70
4
  0
LTYPE
  5
40F
  2
CONTINUOUS
  70
0
  3
Solid line
  72
65
  73
0
  40
0.0
  0
LTYPE
  5
410
  2
DASHDOT
 70
0
  3
Dash Dot ____ _ ____ _
 72
65
 73
4
 40
2.0
 49
1.25
 49
-0.25
 49
0.25
 49
-0.25
  0
LTYPE
  5
411
  2
DASHED
 70
0
  3
Dashed __ __ __ __ __
 72
65
 73
2
 40
0.75
 49
0.5
 49
-0.25
  0
LTYPE
  5
43B
  2
DOTTED
 70
0
  3
Dotted .  .  .  .
 72
65
 73
2
 40
0.2
 49
0.0
 49
-0.2
  0
ENDTAB
  0
TABLE
  2
STYLE
  70
4
  0
STYLE
  2
KICAD
  70
0
  40
0
  41
1
  42
1
  50
0
  71
0
  3
isocp.shx
  0
STYLE
  2
KICADB
  70
0
  40
0
  41
1
  42
1
  50
0
  71
0
  3
isocp.shx
  0
STYLE
  2
KICADI
  70
0
  40
0
  41
1
  42
1
  50
15
  71
0
  3
isocp.shx
  0
STYLE
  2
KICADBI
  70
0
  40
0
  41
1
  42
1
  50
15
  71
0
  3
isocp.shx
  0
ENDTAB
  0
TABLE
  2
LAYER
  70
1
  0
LAYER
  2
BLACK
  70
0
  62
7
  6
CONTINUOUS
  0
ENDTAB
  0
ENDSEC
  0
SECTION
  2
ENTITIES
0
LINE
8
BLACK
6
CONTINUOUS
10
0.520613
20
-0.255124
11
0.522775
21
-0.257285
0
LINE
8
BLACK
6
CONTINUOUS
10
0.522775
20
-0.257285
11
0.523566
21
-0.260238
0
LINE
8
BLACK
6
CONTINUOUS
10
0.523566
20
-0.260238
11
0.523566
21
-0.271205
0
LINE
8
BLACK
6
CONTINUOUS
10
0.523566
20
-0.271205
11
0.576715
21
-0.271205
0
LINE
8
BLACK
6
CONTINUOUS
10
0.576715
20
-0.271205
11
0.579668
21
-0.271997
0
LINE
8
BLACK
6
CONTINUOUS
10
0.579668
20
-0.271997
11
0.58183
21
-0.274158
0
LINE
8
BLACK
6
CONTINUOUS
10
0.58183
20
-0.274158
11
0.582621
21
-0.277111
0
LINE
8
BLACK
6
CONTINUOUS
10
0.582621
20
-0.277111
11
0.58183
21
-0.280064
0
LINE
8
BLACK
6
CONTINUOUS
10
0.58183
20
-0.280064
11
0.579668
21
-0.282225
0
LINE
8
BLACK
6
CONTINUOUS
10
0.579668
20
-0.282225
11
0.576715
21
-0.283016
0
LINE
8
BLACK
6
CONTINUOUS
10
0.576715
20
-0.283016
11
0.523566
21
-0.283016
0
LINE
8
BLACK
6
CONTINUOUS
10
0.523566
20
-0.283016
11
0.523566
21
-0.293984
0
LINE
8
BLACK
6
CONTINUOUS
10
0.523566
20
-0.293984
11
0.522775
21
-0.296937
0
LINE
8
BLACK
6
CONTINUOUS
10
0.522775
20
-0.296937
11
0.520613
21
-0.299098
0
LINE
8
BLACK
6
CONTINUOUS
10
0.520613
20
-0.299098
11
0.51766
21
-0.299889
0
LINE
8
BLACK
6
CONTINUOUS
10
0.51766
20
-0.299889
11
0.514708
21
-0.299098
0
LINE
8
BLACK
6
CONTINUOUS
10
0.514708
20
-0.299098
11
0.512546
21
-0.296937
0
LINE
8
BLACK
6
CONTINUOUS
10
0.512546
20
-0.296937
11
0.511755
21
-0.293984
0
LINE
8
BLACK
6
CONTINUOUS
10
0.511755
20
-0.293984
11
0.511755
21
-0.260238
0
LINE
8
BLACK
6
CONTINUOUS
10
0.511755
20
-0.260238
11
0.512546
21
-0.257285
0
LINE
8
BLACK
6
CONTINUOUS
10
0.512546
20
-0.257285
11
0.514708
21
-0.255124
0
LINE
8
BLACK
6
CONTINUOUS
10
0.514708
20
-0.255124
11
0.51766
21
-0.254333
0
LINE
8
BLACK
6
CONTINUOUS
10
0.51766
20
-0.254333
11
0.520613
21
-0.255124
0
LINE
8
BLACK
6
CONTINUOUS
10
0.579668
20
-0.210129
11
0.58183
21
-0.212291
0
LINE
8
BLACK
6
CONTINUOUS
10
0.58183
20
-0.212291
11
0.582621
21
-0.215244
0
LINE
8
BLACK
6
CONTINUOUS
10
0.582621
20
-0.215244
11
0.58183
21
-0.218196
0
LINE
8
BLACK
6
CONTINUOUS
10
0.58183
20
-0.218196
11
0.579668
21
-0.220358
0
LINE
8
BLACK
6
CONTINUOUS
10
0.579668
20
-0.220358
11
0.576715
21
-0.221149
0
LINE
8
BLACK
6
CONTINUOUS
10
0.576715
20
-0.221149
11
0.547176
21
-0.221149
0
LINE
8
BLACK
6
CONTINUOUS
10
0.547176
20
-0.221149
11
0.544559
21
-0.222458
0
LINE
8
BLACK
6
CONTINUOUS
10
0.544559
20
-0.222458
11
0.543251
21
-0.225074
0
LINE
8
BLACK
6
CONTINUOUS
10
0.543251
20
-0.225074
11
0.543251
21
-0.230722
0
LINE
8
BLACK
6
CONTINUOUS
10
0.543251
20
-0.230722
11
0.545011
21
-0.234243
0
LINE
8
BLACK
6
CONTINUOUS
10
0.545011
20
-0.234243
11
0.545416
21
-0.234647
0
LINE
8
BLACK
6
CONTINUOUS
10
0.545416
20
-0.234647
11
0.576715
21
-0.234647
0
LINE
8
BLACK
6
CONTINUOUS
10
0.576715
20
-0.234647
11
0.579668
21
-0.235439
0
LINE
8
BLACK
6
CONTINUOUS
10
0.579668
20
-0.235439
11
0.58183
21
-0.2376
0
LINE
8
BLACK
6
CONTINUOUS
10
0.58183
20
-0.2376
11
0.582621
21
-0.240553
0
LINE
8
BLACK
6
CONTINUOUS
10
0.582621
20
-0.240553
11
0.58183
21
-0.243506
0
LINE
8
BLACK
6
CONTINUOUS
10
0.58183
20
-0.243506
11
0.579668
21
-0.245667
0
LINE
8
BLACK
6
CONTINUOUS
10
0.579668
20
-0.245667
11
0.576715
21
-0.246459
0
LINE
8
BLACK
6
CONTINUOUS
10
0.576715
20
-0.246459
11
0.51766
21
-0.246459
0
LINE
8
BLACK
6
CONTINUOUS
10
0.51766
20
-0.246459
11
0.514708
21
-0.245667
0
LINE
8
BLACK
6
CONTINUOUS
10
0.514708
20
-0.245667
11
0.512546
21
-0.243506
0
LINE
8
BLACK
6
CONTINUOUS
10
0.512546
20
-0.243506
11
0.511755
21
-0.240553
0
LINE
8
BLACK
6
CONTINUOUS
10
0.511755
20
-0.240553
11
0.512546
21
-0.2376
0
LINE
8
BLACK
6
CONTINUOUS
10
0.512546
20
-0.2376
11
0.514708
21
-0.235439
0
LINE
8
BLACK
6
CONTINUOUS
10
0.514708
20
-0.235439
11
0.51766
21
-0.234647
0
LINE
8
BLACK
6
CONTINUOUS
10
0.51766
20
-0.234647
11
0.532041
21
-0.234647
0
LINE
8
BLACK
6
CONTINUOUS
10
0.532041
20
-0.234647
11
0.531791
21
-0.233428
0
LINE
8
BLACK
6
CONTINUOUS
10
0.531791
20
-0.233428
11
0.53144
21
-0.232117
0
LINE
8
BLACK
6
CONTINUOUS
10
0.53144
20
-0.232117
11
0.53144
21
-0.22368
0
LINE
8
BLACK
6
CONTINUOUS
10
0.53144
20
-0.22368
11
0.531791
21
-0.222369
0
LINE
8
BLACK
6
CONTINUOUS
10
0.531791
20
-0.222369
11
0.532063
21
-0.221039
0
LINE
8
BLACK
6
CONTINUOUS
10
0.532063
20
-0.221039
11
0.534875
21
-0.215415
0
LINE
8
BLACK
6
CONTINUOUS
10
0.534875
20
-0.215415
11
0.535115
21
-0.215145
0
LINE
8
BLACK
6
CONTINUOUS
10
0.535115
20
-0.215145
11
0.535229
21
-0.214802
0
LINE
8
BLACK
6
CONTINUOUS
10
0.535229
20
-0.214802
11
0.536117
21
-0.214015
0
LINE
8
BLACK
6
CONTINUOUS
10
0.536117
20
-0.214015
11
0.536904
21
-0.213128
0
LINE
8
BLACK
6
CONTINUOUS
10
0.536904
20
-0.213128
11
0.537246
21
-0.213013
0
LINE
8
BLACK
6
CONTINUOUS
10
0.537246
20
-0.213013
11
0.537516
21
-0.212774
0
LINE
8
BLACK
6
CONTINUOUS
10
0.537516
20
-0.212774
11
0.543141
21
-0.209962
0
LINE
8
BLACK
6
CONTINUOUS
10
0.543141
20
-0.209962
11
0.544471
21
-0.209689
0
LINE
8
BLACK
6
CONTINUOUS
10
0.544471
20
-0.209689
11
0.545782
21
-0.209338
0
LINE
8
BLACK
6
CONTINUOUS
10
0.545782
20
-0.209338
11
0.576715
21
-0.209338
0
LINE
8
BLACK
6
CONTINUOUS
10
0.576715
20
-0.209338
11
0.579668
21
-0.210129
0
LINE
8
BLACK
6
CONTINUOUS
10
0.579668
20
-0.156699
11
0.58183
21
-0.15886
0
LINE
8
BLACK
6
CONTINUOUS
10
0.58183
20
-0.15886
11
0.582621
21
-0.161813
0
LINE
8
BLACK
6
CONTINUOUS
10
0.582621
20
-0.161813
11
0.58183
21
-0.164766
0
LINE
8
BLACK
6
CONTINUOUS
10
0.58183
20
-0.164766
11
0.580994
21
-0.165601
0
LINE
8
BLACK
6
CONTINUOUS
10
0.580994
20
-0.165601
11
0.581997
21
-0.167608
0
LINE
8
BLACK
6
CONTINUOUS
10
0.581997
20
-0.167608
11
0.58227
21
-0.168938
0
LINE
8
BLACK
6
CONTINUOUS
10
0.58227
20
-0.168938
11
0.582621
21
-0.170249
0
LINE
8
BLACK
6
CONTINUOUS
10
0.582621
20
-0.170249
11
0.582621
21
-0.178686
0
LINE
8
BLACK
6
CONTINUOUS
10
0.582621
20
-0.178686
11
0.58227
21
-0.179997
0
LINE
8
BLACK
6
CONTINUOUS
10
0.58227
20
-0.179997
11
0.581997
21
-0.181327
0
LINE
8
BLACK
6
CONTINUOUS
10
0.581997
20
-0.181327
11
0.579185
21
-0.186951
0
LINE
8
BLACK
6
CONTINUOUS
10
0.579185
20
-0.186951
11
0.578946
21
-0.187221
0
LINE
8
BLACK
6
CONTINUOUS
10
0.578946
20
-0.187221
11
0.578831
21
-0.187564
0
LINE
8
BLACK
6
CONTINUOUS
10
0.578831
20
-0.187564
11
0.577944
21
-0.188351
0
LINE
8
BLACK
6
CONTINUOUS
10
0.577944
20
-0.188351
11
0.577157
21
-0.189238
0
LINE
8
BLACK
6
CONTINUOUS
10
0.577157
20
-0.189238
11
0.576814
21
-0.189352
0
LINE
8
BLACK
6
CONTINUOUS
10
0.576814
20
-0.189352
11
0.576544
21
-0.189592
0
LINE
8
BLACK
6
CONTINUOUS
10
0.576544
20
-0.189592
11
0.57092
21
-0.192404
0
LINE
8
BLACK
6
CONTINUOUS
10
0.57092
20
-0.192404
11
0.56959
21
-0.192676
0
LINE
8
BLACK
6
CONTINUOUS
10
0.56959
20
-0.192676
11
0.568279
21
-0.193028
0
LINE
8
BLACK
6
CONTINUOUS
10
0.568279
20
-0.193028
11
0.537345
21
-0.193028
0
LINE
8
BLACK
6
CONTINUOUS
10
0.537345
20
-0.193028
11
0.534393
21
-0.192237
0
LINE
8
BLACK
6
CONTINUOUS
10
0.534393
20
-0.192237
11
0.532231
21
-0.190075
0
LINE
8
BLACK
6
CONTINUOUS
10
0.532231
20
-0.190075
11
0.53144
21
-0.187122
0
LINE
8
BLACK
6
CONTINUOUS
10
0.53144
20
-0.187122
11
0.532231
21
-0.184169
0
LINE
8
BLACK
6
CONTINUOUS
10
0.532231
20
-0.184169
11
0.534393
21
-0.182008
0
LINE
8
BLACK
6
CONTINUOUS
10
0.534393
20
-0.182008
11
0.537345
21
-0.181217
0
LINE
8
BLACK
6
CONTINUOUS
10
0.537345
20
-0.181217
11
0.566885
21
-0.181217
0
LINE
8
BLACK
6
CONTINUOUS
10
0.566885
20
-0.181217
11
0.569502
21
-0.179908
0
LINE
8
BLACK
6
CONTINUOUS
10
0.569502
20
-0.179908
11
0.57081
21
-0.177292
0
LINE
8
BLACK
6
CONTINUOUS
10
0.57081
20
-0.177292
11
0.57081
21
-0.171643
0
LINE
8
BLACK
6
CONTINUOUS
10
0.57081
20
-0.171643
11
0.56905
21
-0.168123
0
LINE
8
BLACK
6
CONTINUOUS
10
0.56905
20
-0.168123
11
0.568645
21
-0.167718
0
LINE
8
BLACK
6
CONTINUOUS
10
0.568645
20
-0.167718
11
0.537345
21
-0.167718
0
LINE
8
BLACK
6
CONTINUOUS
10
0.537345
20
-0.167718
11
0.534393
21
-0.166927
0
LINE
8
BLACK
6
CONTINUOUS
10
0.534393
20
-0.166927
11
0.532231
21
-0.164766
0
LINE
8
BLACK
6
CONTINUOUS
10
0.532231
20
-0.164766
11
0.53144
21
-0.161813
0
LINE
8
BLACK
6
CONTINUOUS
10
0.53144
20
-0.161813
11
0.532231
21
-0.15886
0
LINE
8
BLACK
6
CONTINUOUS
10
0.532231
20
-0.15886
11
0.534393
21
-0.156699
0
LINE
8
BLACK
6
CONTINUOUS
10
0.534393
20
-0.156699
11
0.537345
21
-0.155907
0
LINE
8
BLACK
6
CONTINUOUS
10
0.537345
20
-0.155907
11
0.576715
21
-0.155907
0
LINE
8
BLACK
6
CONTINUOUS
10
0.576715
20
-0.155907
11
0.579668
21
-0.156699
0
LINE
8
BLACK
6
CONTINUOUS
10
0.579668
20
-0.103268
11
0.58183
21
-0.105429
0
LINE
8
BLACK
6
CONTINUOUS
10
0.58183
20
-0.105429
11
0.582621
21
-0.108382
0
LINE
8
BLACK
6
CONTINUOUS
10
0.582621
20
-0.108382
11
0.58183
21
-0.111335
0
LINE
8
BLACK
6
CONTINUOUS
10
0.58183
20
-0.111335
11
0.579668
21
-0.113496
0
LINE
8
BLACK
6
CONTINUOUS
10
0.579668
20
-0.113496
11
0.576715
21
-0.114288
0
LINE
8
BLACK
6
CONTINUOUS
10
0.576715
20
-0.114288
11
0.547176
21
-0.114288
0
LINE
8
BLACK
6
CONTINUOUS
10
0.547176
20
-0.114288
11
0.544559
21
-0.115596
0
LINE
8
BLACK
6
CONTINUOUS
10
0.544559
20
-0.115596
11
0.543251
21
-0.118213
0
LINE
8
BLACK
6
CONTINUOUS
10
0.543251
20
-0.118213
11
0.543251
21
-0.123861
0
LINE
8
BLACK
6
CONTINUOUS
10
0.543251
20
-0.123861
11
0.545011
21
-0.127381
0
LINE
8
BLACK
6
CONTINUOUS
10
0.545011
20
-0.127381
11
0.545416
21
-0.127786
0
LINE
8
BLACK
6
CONTINUOUS
10
0.545416
20
-0.127786
11
0.576715
21
-0.127786
0
LINE
8
BLACK
6
CONTINUOUS
10
0.576715
20
-0.127786
11
0.579668
21
-0.128577
0
LINE
8
BLACK
6
CONTINUOUS
10
0.579668
20
-0.128577
11
0.58183
21
-0.130739
0
LINE
8
BLACK
6
CONTINUOUS
10
0.58183
20
-0.130739
11
0.582621
21
-0.133691
0
LINE
8
BLACK
6
CONTINUOUS
10
0.582621
20
-0.133691
11
0.58183
21
-0.136644
0
LINE
8
BLACK
6
CONTINUOUS
10
0.58183
20
-0.136644
11
0.579668
21
-0.138806
0
LINE
8
BLACK
6
CONTINUOUS
10
0.579668
20
-0.138806
11
0.576715
21
-0.139597
0
LINE
8
BLACK
6
CONTINUOUS
10
0.576715
20
-0.139597
11
0.537345
21
-0.139597
0
LINE
8
BLACK
6
CONTINUOUS
10
0.537345
20
-0.139597
11
0.534393
21
-0.138806
0
LINE
8
BLACK
6
CONTINUOUS
10
0.534393
20
-0.138806
11
0.532231
21
-0.136644
0
LINE
8
BLACK
6
CONTINUOUS
10
0.532231
20
-0.136644
11
0.53144
21
-0.133691
0
LINE
8
BLACK
6
CONTINUOUS
10
0.53144
20
-0.133691
11
0.532231
21
-0.130739
0
LINE
8
BLACK
6
CONTINUOUS
10
0.532231
20
-0.130739
11
0.533067
21
-0.129903
0
LINE
8
BLACK
6
CONTINUOUS
10
0.533067
20
-0.129903
11
0.532063
21
-0.127896
0
LINE
8
BLACK
6
CONTINUOUS
10
0.532063
20
-0.127896
11
0.531791
21
-0.126566
0
LINE
8
BLACK
6
CONTINUOUS
10
0.531791
20
-0.126566
11
0.53144
21
-0.125255
0
LINE
8
BLACK
6
CONTINUOUS
10
0.53144
20
-0.125255
11
0.53144
21
-0.116818
0
LINE
8
BLACK
6
CONTINUOUS
10
0.53144
20
-0.116818
11
0.531791
21
-0.115507
0
LINE
8
BLACK
6
CONTINUOUS
10
0.531791
20
-0.115507
11
0.532063
21
-0.114177
0
LINE
8
BLACK
6
CONTINUOUS
10
0.532063
20
-0.114177
11
0.534875
21
-0.108553
0
LINE
8
BLACK
6
CONTINUOUS
10
0.534875
20
-0.108553
11
0.535115
21
-0.108283
0
LINE
8
BLACK
6
CONTINUOUS
10
0.535115
20
-0.108283
11
0.535229
21
-0.10794
0
LINE
8
BLACK
6
CONTINUOUS
10
0.535229
20
-0.10794
11
0.536117
21
-0.107153
0
LINE
8
BLACK
6
CONTINUOUS
10
0.536117
20
-0.107153
11
0.536904
21
-0.106266
0
LINE
8
BLACK
6
CONTINUOUS
10
0.536904
20
-0.106266
11
0.537246
21
-0.106152
0
LINE
8
BLACK
6
CONTINUOUS
10
0.537246
20
-0.106152
11
0.537516
21
-0.105912
0
LINE
8
BLACK
6
CONTINUOUS
10
0.537516
20
-0.105912
11
0.543141
21
-0.1031
0
LINE
8
BLACK
6
CONTINUOUS
10
0.543141
20
-0.1031
11
0.544471
21
-0.102828
0
LINE
8
BLACK
6
CONTINUOUS
10
0.544471
20
-0.102828
11
0.545782
21
-0.102477
0
LINE
8
BLACK
6
CONTINUOUS
10
0.545782
20
-0.102477
11
0.576715
21
-0.102477
0
LINE
8
BLACK
6
CONTINUOUS
10
0.576715
20
-0.102477
11
0.579668
21
-0.103268
0
LINE
8
BLACK
6
CONTINUOUS
10
0.579668
20
-0.0498369
11
0.58183
21
-0.0519985
0
LINE
8
BLACK
6
CONTINUOUS
10
0.58183
20
-0.0519985
11
0.582621
21
-0.0549512
0
LINE
8
BLACK
6
CONTINUOUS
10
0.582621
20
-0.0549512
11
0.581883
21
-0.0577054
0
LINE
8
BLACK
6
CONTINUOUS
10
0.581883
20
-0.0577054
11
0.581997
21
-0.0579344
0
LINE
8
BLACK
6
CONTINUOUS
10
0.581997
20
-0.0579344
11
0.58227
21
-0.0592645
0
LINE
8
BLACK
6
CONTINUOUS
10
0.58227
20
-0.0592645
11
0.582621
21
-0.0605755
0
LINE
8
BLACK
6
CONTINUOUS
10
0.582621
20
-0.0605755
11
0.582621
21
-0.0718241
0
LINE
8
BLACK
6
CONTINUOUS
10
0.582621
20
-0.0718241
11
0.58227
21
-0.0731351
0
LINE
8
BLACK
6
CONTINUOUS
10
0.58227
20
-0.0731351
11
0.581997
21
-0.0744652
0
LINE
8
BLACK
6
CONTINUOUS
10
0.581997
20
-0.0744652
11
0.579185
21
-0.0800894
0
LINE
8
BLACK
6
CONTINUOUS
10
0.579185
20
-0.0800894
11
0.578554
21
-0.0808007
0
LINE
8
BLACK
6
CONTINUOUS
10
0.578554
20
-0.0808007
11
0.578079
21
-0.0816242
0
LINE
8
BLACK
6
CONTINUOUS
10
0.578079
20
-0.0816242
11
0.575267
21
-0.0844363
0
LINE
8
BLACK
6
CONTINUOUS
10
0.575267
20
-0.0844363
11
0.574444
21
-0.0849118
0
LINE
8
BLACK
6
CONTINUOUS
10
0.574444
20
-0.0849118
11
0.573732
21
-0.0855426
0
LINE
8
BLACK
6
CONTINUOUS
10
0.573732
20
-0.0855426
11
0.568108
21
-0.0883547
0
LINE
8
BLACK
6
CONTINUOUS
10
0.568108
20
-0.0883547
11
0.566778
21
-0.0886269
0
LINE
8
BLACK
6
CONTINUOUS
10
0.566778
20
-0.0886269
11
0.565467
21
-0.0889782
0
LINE
8
BLACK
6
CONTINUOUS
10
0.565467
20
-0.0889782
11
0.548594
21
-0.0889782
0
LINE
8
BLACK
6
CONTINUOUS
10
0.548594
20
-0.0889782
11
0.547283
21
-0.0886269
0
LINE
8
BLACK
6
CONTINUOUS
10
0.547283
20
-0.0886269
11
0.545953
21
-0.0883547
0
LINE
8
BLACK
6
CONTINUOUS
10
0.545953
20
-0.0883547
11
0.540329
21
-0.0855426
0
LINE
8
BLACK
6
CONTINUOUS
10
0.540329
20
-0.0855426
11
0.539617
21
-0.0849118
0
LINE
8
BLACK
6
CONTINUOUS
10
0.539617
20
-0.0849118
11
0.538794
21
-0.0844363
0
LINE
8
BLACK
6
CONTINUOUS
10
0.538794
20
-0.0844363
11
0.535982
21
-0.0816242
0
LINE
8
BLACK
6
CONTINUOUS
10
0.535982
20
-0.0816242
11
0.535506
21
-0.0808007
0
LINE
8
BLACK
6
CONTINUOUS
10
0.535506
20
-0.0808007
11
0.534875
21
-0.0800894
0
LINE
8
BLACK
6
CONTINUOUS
10
0.534875
20
-0.0800894
11
0.532063
21
-0.0744651
0
LINE
8
BLACK
6
CONTINUOUS
10
0.532063
20
-0.0744651
11
0.531791
21
-0.0731352
0
LINE
8
BLACK
6
CONTINUOUS
10
0.531791
20
-0.0731352
11
0.53144
21
-0.0718241
0
LINE
8
BLACK
6
CONTINUOUS
10
0.53144
20
-0.0718241
11
0.53144
21
-0.0608567
0
LINE
8
BLACK
6
CONTINUOUS
10
0.53144
20
-0.0608567
11
0.51766
21
-0.0608567
0
LINE
8
BLACK
6
CONTINUOUS
10
0.51766
20
-0.0608567
11
0.514708
21
-0.0600656
0
LINE
8
BLACK
6
CONTINUOUS
10
0.514708
20
-0.0600656
11
0.512546
21
-0.057904
0
LINE
8
BLACK
6
CONTINUOUS
10
0.512546
20
-0.057904
11
0.511755
21
-0.0549512
0
LINE
8
BLACK
6
CONTINUOUS
10
0.511755
20
-0.0549512
11
0.512546
21
-0.0519985
0
LINE
8
BLACK
6
CONTINUOUS
10
0.512546
20
-0.0519985
11
0.514708
21
-0.0498369
0
LINE
8
BLACK
6
CONTINUOUS
10
0.514708
20
-0.0498369
11
0.51766
21
-0.0490457
0
LINE
8
BLACK
6
CONTINUOUS
10
0.51766
20
-0.0490457
11
0.576715
21
-0.0490457
0
LINE
8
BLACK
6
CONTINUOUS
10
0.576715
20
-0.0490457
11
0.579668
21
-0.0498369
0
LINE
8
BLACK
6
CONTINUOUS
10
0.543807
20
-0.0608567
11
0.543251
21
-0.0619696
0
LINE
8
BLACK
6
CONTINUOUS
10
0.543251
20
-0.0619696
11
0.543251
21
-0.07043
0
LINE
8
BLACK
6
CONTINUOUS
10
0.543251
20
-0.07043
11
0.545011
21
-0.0739502
0
LINE
8
BLACK
6
CONTINUOUS
10
0.545011
20
-0.0739502
11
0.546468
21
-0.0754071
0
LINE
8
BLACK
6
CONTINUOUS
10
0.546468
20
-0.0754071
11
0.549988
21
-0.0771672
0
LINE
8
BLACK
6
CONTINUOUS
10
0.549988
20
-0.0771672
11
0.564073
21
-0.0771672
0
LINE
8
BLACK
6
CONTINUOUS
10
0.564073
20
-0.0771672
11
0.567593
21
-0.0754071
0
LINE
8
BLACK
6
CONTINUOUS
10
0.567593
20
-0.0754071
11
0.56905
21
-0.0739502
0
LINE
8
BLACK
6
CONTINUOUS
10
0.56905
20
-0.0739502
11
0.57081
21
-0.07043
0
LINE
8
BLACK
6
CONTINUOUS
10
0.57081
20
-0.07043
11
0.57081
21
-0.0619696
0
LINE
8
BLACK
6
CONTINUOUS
10
0.57081
20
-0.0619696
11
0.570253
21
-0.0608567
0
LINE
8
BLACK
6
CONTINUOUS
10
0.570253
20
-0.0608567
11
0.543807
21
-0.0608567
0
LINE
8
BLACK
6
CONTINUOUS
10
0.552337
20
0.00413571
11
0.553298
21
0.0040737
0
LINE
8
BLACK
6
CONTINUOUS
10
0.553298
20
0.0040737
11
0.553789
21
0.00374657
0
LINE
8
BLACK
6
CONTINUOUS
10
0.553789
20
0.00374657
11
0.554359
21
0.00359394
0
LINE
8
BLACK
6
CONTINUOUS
10
0.554359
20
0.00359394
11
0.55504
21
0.00291256
0
LINE
8
BLACK
6
CONTINUOUS
10
0.55504
20
0.00291256
11
0.555842
21
0.00237803
0
LINE
8
BLACK
6
CONTINUOUS
10
0.555842
20
0.00237803
11
0.556103
21
0.00184937
0
LINE
8
BLACK
6
CONTINUOUS
10
0.556103
20
0.00184937
11
0.55652
21
0.00143236
0
LINE
8
BLACK
6
CONTINUOUS
10
0.55652
20
0.00143236
11
0.55677
21
0.000501535
0
LINE
8
BLACK
6
CONTINUOUS
10
0.55677
20
0.000501535
11
0.557197
21
-0.000362244
0
LINE
8
BLACK
6
CONTINUOUS
10
0.557197
20
-0.000362244
11
0.561872
21
-0.0237364
0
LINE
8
BLACK
6
CONTINUOUS
10
0.561872
20
-0.0237364
11
0.566885
21
-0.0237364
0
LINE
8
BLACK
6
CONTINUOUS
10
0.566885
20
-0.0237364
11
0.569502
21
-0.022428
0
LINE
8
BLACK
6
CONTINUOUS
10
0.569502
20
-0.022428
11
0.57081
21
-0.0198113
0
LINE
8
BLACK
6
CONTINUOUS
10
0.57081
20
-0.0198113
11
0.57081
21
-0.0113509
0
LINE
8
BLACK
6
CONTINUOUS
10
0.57081
20
-0.0113509
11
0.568621
21
-0.00697354
0
LINE
8
BLACK
6
CONTINUOUS
10
0.568621
20
-0.00697354
11
0.568008
21
-0.0039787
0
LINE
8
BLACK
6
CONTINUOUS
10
0.568008
20
-0.0039787
11
0.568975
21
-0.00107862
0
LINE
8
BLACK
6
CONTINUOUS
10
0.568975
20
-0.00107862
11
0.571262
21
0.000949528
0
LINE
8
BLACK
6
CONTINUOUS
10
0.571262
20
0.000949528
11
0.574257
21
0.0015624
0
LINE
8
BLACK
6
CONTINUOUS
10
0.574257
20
0.0015624
11
0.577157
21
0.000595709
0
LINE
8
BLACK
6
CONTINUOUS
10
0.577157
20
0.000595709
11
0.579185
21
-0.0016915
0
LINE
8
BLACK
6
CONTINUOUS
10
0.579185
20
-0.0016915
11
0.581997
21
-0.00731583
0
LINE
8
BLACK
6
CONTINUOUS
10
0.581997
20
-0.00731583
11
0.58227
21
-0.00864575
0
LINE
8
BLACK
6
CONTINUOUS
10
0.58227
20
-0.00864575
11
0.582621
21
-0.00995685
0
LINE
8
BLACK
6
CONTINUOUS
10
0.582621
20
-0.00995685
11
0.582621
21
-0.0212054
0
LINE
8
BLACK
6
CONTINUOUS
10
0.582621
20
-0.0212054
11
0.58227
21
-0.0225165
0
LINE
8
BLACK
6
CONTINUOUS
10
0.58227
20
-0.0225165
11
0.581997
21
-0.0238465
0
LINE
8
BLACK
6
CONTINUOUS
10
0.581997
20
-0.0238465
11
0.579185
21
-0.0294707
0
LINE
8
BLACK
6
CONTINUOUS
10
0.579185
20
-0.0294707
11
0.578946
21
-0.0297409
0
LINE
8
BLACK
6
CONTINUOUS
10
0.578946
20
-0.0297409
11
0.578831
21
-0.0300836
0
LINE
8
BLACK
6
CONTINUOUS
10
0.578831
20
-0.0300836
11
0.577944
21
-0.0308705
0
LINE
8
BLACK
6
CONTINUOUS
10
0.577944
20
-0.0308705
11
0.577157
21
-0.031758
0
LINE
8
BLACK
6
CONTINUOUS
10
0.577157
20
-0.031758
11
0.576814
21
-0.0318722
0
LINE
8
BLACK
6
CONTINUOUS
10
0.576814
20
-0.0318722
11
0.576544
21
-0.0321118
0
LINE
8
BLACK
6
CONTINUOUS
10
0.576544
20
-0.0321118
11
0.57092
21
-0.0349239
0
LINE
8
BLACK
6
CONTINUOUS
10
0.57092
20
-0.0349239
11
0.56959
21
-0.0351961
0
LINE
8
BLACK
6
CONTINUOUS
10
0.56959
20
-0.0351961
11
0.568279
21
-0.0355474
0
LINE
8
BLACK
6
CONTINUOUS
10
0.568279
20
-0.0355474
11
0.545782
21
-0.0355474
0
LINE
8
BLACK
6
CONTINUOUS
10
0.545782
20
-0.0355474
11
0.544471
21
-0.0351961
0
LINE
8
BLACK
6
CONTINUOUS
10
0.544471
20
-0.0351961
11
0.543141
21
-0.0349239
0
LINE
8
BLACK
6
CONTINUOUS
10
0.543141
20
-0.0349239
11
0.537516
21
-0.0321118
0
LINE
8
BLACK
6
CONTINUOUS
10
0.537516
20
-0.0321118
11
0.537246
21
-0.0318722
0
LINE
8
BLACK
6
CONTINUOUS
10
0.537246
20
-0.0318722
11
0.536904
21
-0.031758
0
LINE
8
BLACK
6
CONTINUOUS
10
0.536904
20
-0.031758
11
0.536117
21
-0.0308705
0
LINE
8
BLACK
6
CONTINUOUS
10
0.536117
20
-0.0308705
11
0.535229
21
-0.0300836
0
LINE
8
BLACK
6
CONTINUOUS
10
0.535229
20
-0.0300836
11
0.535115
21
-0.0297409
0
LINE
8
BLACK
6
CONTINUOUS
10
0.535115
20
-0.0297409
11
0.534875
21
-0.0294707
0
LINE
8
BLACK
6
CONTINUOUS
10
0.534875
20
-0.0294707
11
0.532063
21
-0.0238465
0
LINE
8
BLACK
6
CONTINUOUS
10
0.532063
20
-0.0238465
11
0.531791
21
-0.0225165
0
LINE
8
BLACK
6
CONTINUOUS
10
0.531791
20
-0.0225165
11
0.53144
21
-0.0212054
0
LINE
8
BLACK
6
CONTINUOUS
10
0.53144
20
-0.0212054
11
0.53144
21
-0.00995685
0
LINE
8
BLACK
6
CONTINUOUS
10
0.53144
20
-0.00995685
11
0.531791
21
-0.00864575
0
LINE
8
BLACK
6
CONTINUOUS
10
0.531791
20
-0.00864575
11
0.532063
21
-0.00731583
0
LINE
8
BLACK
6
CONTINUOUS
10
0.532063
20
-0.00731583
11
0.534875
21
-0.0016915
0
LINE
8
BLACK
6
CONTINUOUS
10
0.534875
20
-0.0016915
11
0.535115
21
-0.0014213
0
LINE
8
BLACK
6
CONTINUOUS
10
0.535115
20
-0.0014213
11
0.535229
21
-0.00107862
0
LINE
8
BLACK
6
CONTINUOUS
10
0.535229
20
-0.00107862
11
0.536117
21
-0.000291693
0
LINE
8
BLACK
6
CONTINUOUS
10
0.536117
20
-0.000291693
11
0.536904
21
0.000595709
0
LINE
8
BLACK
6
CONTINUOUS
10
0.536904
20
0.000595709
11
0.537246
21
0.000709921
0
LINE
8
BLACK
6
CONTINUOUS
10
0.537246
20
0.000709921
11
0.537516
21
0.000949528
0
LINE
8
BLACK
6
CONTINUOUS
10
0.537516
20
0.000949528
11
0.543141
21
0.00376165
0
LINE
8
BLACK
6
CONTINUOUS
10
0.543141
20
0.00376165
11
0.544471
21
0.00403378
0
LINE
8
BLACK
6
CONTINUOUS
10
0.544471
20
0.00403378
11
0.545782
21
0.00438512
0
LINE
8
BLACK
6
CONTINUOUS
10
0.545782
20
0.00438512
11
0.551406
21
0.00438512
0
LINE
8
BLACK
6
CONTINUOUS
10
0.551406
20
0.00438512
11
0.552337
21
0.00413571
0
LINE
8
BLACK
6
CONTINUOUS
10
0.544559
20
-0.00873425
11
0.543251
21
-0.0113509
0
LINE
8
BLACK
6
CONTINUOUS
10
0.543251
20
-0.0113509
11
0.543251
21
-0.0198113
0
LINE
8
BLACK
6
CONTINUOUS
10
0.543251
20
-0.0198113
11
0.544559
21
-0.022428
0
LINE
8
BLACK
6
CONTINUOUS
10
0.544559
20
-0.022428
11
0.547176
21
-0.0237364
0
LINE
8
BLACK
6
CONTINUOUS
10
0.547176
20
-0.0237364
11
0.549827
21
-0.0237364
0
LINE
8
BLACK
6
CONTINUOUS
10
0.549827
20
-0.0237364
11
0.54662
21
-0.0077037
0
LINE
8
BLACK
6
CONTINUOUS
10
0.54662
20
-0.0077037
11
0.544559
21
-0.00873425
0
LINE
8
BLACK
6
CONTINUOUS
10
0.540298
20
0.0457762
11
0.54246
21
0.0436146
0
LINE
8
BLACK
6
CONTINUOUS
10
0.54246
20
0.0436146
11
0.543251
21
0.0406619
0
LINE
8
BLACK
6
CONTINUOUS
10
0.543251
20
0.0406619
11
0.543251
21
0.0364317
0
LINE
8
BLACK
6
CONTINUOUS
10
0.543251
20
0.0364317
11
0.545011
21
0.0329114
0
LINE
8
BLACK
6
CONTINUOUS
10
0.545011
20
0.0329114
11
0.546468
21
0.0314546
0
LINE
8
BLACK
6
CONTINUOUS
10
0.546468
20
0.0314546
11
0.549988
21
0.0296944
0
LINE
8
BLACK
6
CONTINUOUS
10
0.549988
20
0.0296944
11
0.576715
21
0.0296944
0
LINE
8
BLACK
6
CONTINUOUS
10
0.576715
20
0.0296944
11
0.579668
21
0.0289033
0
LINE
8
BLACK
6
CONTINUOUS
10
0.579668
20
0.0289033
11
0.58183
21
0.0267417
0
LINE
8
BLACK
6
CONTINUOUS
10
0.58183
20
0.0267417
11
0.582621
21
0.0237889
0
LINE
8
BLACK
6
CONTINUOUS
10
0.582621
20
0.0237889
11
0.58183
21
0.0208362
0
LINE
8
BLACK
6
CONTINUOUS
10
0.58183
20
0.0208362
11
0.579668
21
0.0186746
0
LINE
8
BLACK
6
CONTINUOUS
10
0.579668
20
0.0186746
11
0.576715
21
0.0178834
0
LINE
8
BLACK
6
CONTINUOUS
10
0.576715
20
0.0178834
11
0.537345
21
0.0178834
0
LINE
8
BLACK
6
CONTINUOUS
10
0.537345
20
0.0178834
11
0.534393
21
0.0186746
0
LINE
8
BLACK
6
CONTINUOUS
10
0.534393
20
0.0186746
11
0.532231
21
0.0208362
0
LINE
8
BLACK
6
CONTINUOUS
10
0.532231
20
0.0208362
11
0.53144
21
0.0237889
0
LINE
8
BLACK
6
CONTINUOUS
10
0.53144
20
0.0237889
11
0.532231
21
0.0267417
0
LINE
8
BLACK
6
CONTINUOUS
10
0.532231
20
0.0267417
11
0.534004
21
0.0285148
0
LINE
8
BLACK
6
CONTINUOUS
10
0.534004
20
0.0285148
11
0.532063
21
0.0323965
0
LINE
8
BLACK
6
CONTINUOUS
10
0.532063
20
0.0323965
11
0.531791
21
0.0337265
0
LINE
8
BLACK
6
CONTINUOUS
10
0.531791
20
0.0337265
11
0.53144
21
0.0350376
0
LINE
8
BLACK
6
CONTINUOUS
10
0.53144
20
0.0350376
11
0.53144
21
0.0406619
0
LINE
8
BLACK
6
CONTINUOUS
10
0.53144
20
0.0406619
11
0.532231
21
0.0436146
0
LINE
8
BLACK
6
CONTINUOUS
10
0.532231
20
0.0436146
11
0.534393
21
0.0457762
0
LINE
8
BLACK
6
CONTINUOUS
10
0.534393
20
0.0457762
11
0.537345
21
0.0465674
0
LINE
8
BLACK
6
CONTINUOUS
10
0.537345
20
0.0465674
11
0.540298
21
0.0457762
0
LINE
8
BLACK
6
CONTINUOUS
10
0.514708
20
0.0552326
11
0.512546
21
0.0573941
0
LINE
8
BLACK
6
CONTINUOUS
10
0.512546
20
0.0573941
11
0.511755
21
0.0603469
0
LINE
8
BLACK
6
CONTINUOUS
10
0.511755
20
0.0603469
11
0.511755
21
0.0884683
0
LINE
8
BLACK
6
CONTINUOUS
10
0.511755
20
0.0884683
11
0.512546
21
0.0914211
0
LINE
8
BLACK
6
CONTINUOUS
10
0.512546
20
0.0914211
11
0.514708
21
0.0935827
0
LINE
8
BLACK
6
CONTINUOUS
10
0.514708
20
0.0935827
11
0.51766
21
0.0943739
0
LINE
8
BLACK
6
CONTINUOUS
10
0.51766
20
0.0943739
11
0.520613
21
0.0935827
0
LINE
8
BLACK
6
CONTINUOUS
10
0.520613
20
0.0935827
11
0.522775
21
0.0914211
0
LINE
8
BLACK
6
CONTINUOUS
10
0.522775
20
0.0914211
11
0.523566
21
0.0884683
0
LINE
8
BLACK
6
CONTINUOUS
10
0.523566
20
0.0884683
11
0.523566
21
0.0662524
0
LINE
8
BLACK
6
CONTINUOUS
10
0.523566
20
0.0662524
11
0.539876
21
0.0662524
0
LINE
8
BLACK
6
CONTINUOUS
10
0.539876
20
0.0662524
11
0.539876
21
0.0800319
0
LINE
8
BLACK
6
CONTINUOUS
10
0.539876
20
0.0800319
11
0.540667
21
0.0829847
0
LINE
8
BLACK
6
CONTINUOUS
10
0.540667
20
0.0829847
11
0.542829
21
0.0851463
0
LINE
8
BLACK
6
CONTINUOUS
10
0.542829
20
0.0851463
11
0.545782
21
0.0859374
0
LINE
8
BLACK
6
CONTINUOUS
10
0.545782
20
0.0859374
11
0.548735
21
0.0851463
0
LINE
8
BLACK
6
CONTINUOUS
10
0.548735
20
0.0851463
11
0.550896
21
0.0829847
0
LINE
8
BLACK
6
CONTINUOUS
10
0.550896
20
0.0829847
11
0.551687
21
0.0800319
0
LINE
8
BLACK
6
CONTINUOUS
10
0.551687
20
0.0800319
11
0.551687
21
0.0662524
0
LINE
8
BLACK
6
CONTINUOUS
10
0.551687
20
0.0662524
11
0.576715
21
0.0662524
0
LINE
8
BLACK
6
CONTINUOUS
10
0.576715
20
0.0662524
11
0.579668
21
0.0654612
0
LINE
8
BLACK
6
CONTINUOUS
10
0.579668
20
0.0654612
11
0.58183
21
0.0632996
0
LINE
8
BLACK
6
CONTINUOUS
10
0.58183
20
0.0632996
11
0.582621
21
0.0603469
0
LINE
8
BLACK
6
CONTINUOUS
10
0.582621
20
0.0603469
11
0.58183
21
0.0573941
0
LINE
8
BLACK
6
CONTINUOUS
10
0.58183
20
0.0573941
11
0.579668
21
0.0552326
0
LINE
8
BLACK
6
CONTINUOUS
10
0.579668
20
0.0552326
11
0.576715
21
0.0544414
0
LINE
8
BLACK
6
CONTINUOUS
10
0.576715
20
0.0544414
11
0.51766
21
0.0544414
0
LINE
8
BLACK
6
CONTINUOUS
10
0.51766
20
0.0544414
11
0.514708
21
0.0552326
0
LINE
8
BLACK
6
CONTINUOUS
10
0.579356
20
0.124684
11
0.581644
21
0.122656
0
LINE
8
BLACK
6
CONTINUOUS
10
0.581644
20
0.122656
11
0.58261
21
0.119756
0
LINE
8
BLACK
6
CONTINUOUS
10
0.58261
20
0.119756
11
0.581997
21
0.116761
0
LINE
8
BLACK
6
CONTINUOUS
10
0.581997
20
0.116761
11
0.579185
21
0.111137
0
LINE
8
BLACK
6
CONTINUOUS
10
0.579185
20
0.111137
11
0.578946
21
0.110866
0
LINE
8
BLACK
6
CONTINUOUS
10
0.578946
20
0.110866
11
0.578831
21
0.110524
0
LINE
8
BLACK
6
CONTINUOUS
10
0.578831
20
0.110524
11
0.577944
21
0.109737
0
LINE
8
BLACK
6
CONTINUOUS
10
0.577944
20
0.109737
11
0.577157
21
0.108849
0
LINE
8
BLACK
6
CONTINUOUS
10
0.577157
20
0.108849
11
0.576814
21
0.108735
0
LINE
8
BLACK
6
CONTINUOUS
10
0.576814
20
0.108735
11
0.576544
21
0.108496
0
LINE
8
BLACK
6
CONTINUOUS
10
0.576544
20
0.108496
11
0.57092
21
0.105684
0
LINE
8
BLACK
6
CONTINUOUS
10
0.57092
20
0.105684
11
0.56959
21
0.105411
0
LINE
8
BLACK
6
CONTINUOUS
10
0.56959
20
0.105411
11
0.568279
21
0.10506
0
LINE
8
BLACK
6
CONTINUOUS
10
0.568279
20
0.10506
11
0.51766
21
0.10506
0
LINE
8
BLACK
6
CONTINUOUS
10
0.51766
20
0.10506
11
0.514708
21
0.105851
0
LINE
8
BLACK
6
CONTINUOUS
10
0.514708
20
0.105851
11
0.512546
21
0.108013
0
LINE
8
BLACK
6
CONTINUOUS
10
0.512546
20
0.108013
11
0.511755
21
0.110966
0
LINE
8
BLACK
6
CONTINUOUS
10
0.511755
20
0.110966
11
0.512546
21
0.113918
0
LINE
8
BLACK
6
CONTINUOUS
10
0.512546
20
0.113918
11
0.514708
21
0.11608
0
LINE
8
BLACK
6
CONTINUOUS
10
0.514708
20
0.11608
11
0.51766
21
0.116871
0
LINE
8
BLACK
6
CONTINUOUS
10
0.51766
20
0.116871
11
0.566885
21
0.116871
0
LINE
8
BLACK
6
CONTINUOUS
10
0.566885
20
0.116871
11
0.569502
21
0.118179
0
LINE
8
BLACK
6
CONTINUOUS
10
0.569502
20
0.118179
11
0.571433
21
0.122043
0
LINE
8
BLACK
6
CONTINUOUS
10
0.571433
20
0.122043
11
0.573462
21
0.12433
0
LINE
8
BLACK
6
CONTINUOUS
10
0.573462
20
0.12433
11
0.576362
21
0.125297
0
LINE
8
BLACK
6
CONTINUOUS
10
0.576362
20
0.125297
11
0.579356
21
0.124684
0
LINE
8
BLACK
6
CONTINUOUS
10
0.539332
20
0.169958
11
0.578702
21
0.155897
0
LINE
8
BLACK
6
CONTINUOUS
10
0.578702
20
0.155897
11
0.578795
21
0.155832
0
LINE
8
BLACK
6
CONTINUOUS
10
0.578795
20
0.155832
11
0.578909
21
0.155819
0
LINE
8
BLACK
6
CONTINUOUS
10
0.578909
20
0.155819
11
0.592969
21
0.150194
0
LINE
8
BLACK
6
CONTINUOUS
10
0.592969
20
0.150194
11
0.593922
21
0.149482
0
LINE
8
BLACK
6
CONTINUOUS
10
0.593922
20
0.149482
11
0.594952
21
0.148887
0
LINE
8
BLACK
6
CONTINUOUS
10
0.594952
20
0.148887
11
0.597764
21
0.146075
0
LINE
8
BLACK
6
CONTINUOUS
10
0.597764
20
0.146075
11
0.59824
21
0.145252
0
LINE
8
BLACK
6
CONTINUOUS
10
0.59824
20
0.145252
11
0.59887
21
0.14454
0
LINE
8
BLACK
6
CONTINUOUS
10
0.59887
20
0.14454
11
0.601682
21
0.138916
0
LINE
8
BLACK
6
CONTINUOUS
10
0.601682
20
0.138916
11
0.602295
21
0.135921
0
LINE
8
BLACK
6
CONTINUOUS
10
0.602295
20
0.135921
11
0.601329
21
0.133021
0
LINE
8
BLACK
6
CONTINUOUS
10
0.601329
20
0.133021
11
0.599041
21
0.130993
0
LINE
8
BLACK
6
CONTINUOUS
10
0.599041
20
0.130993
11
0.596047
21
0.13038
0
LINE
8
BLACK
6
CONTINUOUS
10
0.596047
20
0.13038
11
0.593147
21
0.131347
0
LINE
8
BLACK
6
CONTINUOUS
10
0.593147
20
0.131347
11
0.591118
21
0.133634
0
LINE
8
BLACK
6
CONTINUOUS
10
0.591118
20
0.133634
11
0.588735
21
0.138401
0
LINE
8
BLACK
6
CONTINUOUS
10
0.588735
20
0.138401
11
0.587457
21
0.139678
0
LINE
8
BLACK
6
CONTINUOUS
10
0.587457
20
0.139678
11
0.576597
21
0.144023
0
LINE
8
BLACK
6
CONTINUOUS
10
0.576597
20
0.144023
11
0.539332
21
0.130713
0
LINE
8
BLACK
6
CONTINUOUS
10
0.539332
20
0.130713
11
0.536285
21
0.130465
0
LINE
8
BLACK
6
CONTINUOUS
10
0.536285
20
0.130465
11
0.533522
21
0.131774
0
LINE
8
BLACK
6
CONTINUOUS
10
0.533522
20
0.131774
11
0.531784
21
0.134289
0
LINE
8
BLACK
6
CONTINUOUS
10
0.531784
20
0.134289
11
0.531536
21
0.137335
0
LINE
8
BLACK
6
CONTINUOUS
10
0.531536
20
0.137335
11
0.532844
21
0.140098
0
LINE
8
BLACK
6
CONTINUOUS
10
0.532844
20
0.140098
11
0.535359
21
0.141836
0
LINE
8
BLACK
6
CONTINUOUS
10
0.535359
20
0.141836
11
0.559157
21
0.150336
0
LINE
8
BLACK
6
CONTINUOUS
10
0.559157
20
0.150336
11
0.535359
21
0.158835
0
LINE
8
BLACK
6
CONTINUOUS
10
0.535359
20
0.158835
11
0.532844
21
0.160573
0
LINE
8
BLACK
6
CONTINUOUS
10
0.532844
20
0.160573
11
0.531536
21
0.163336
0
LINE
8
BLACK
6
CONTINUOUS
10
0.531536
20
0.163336
11
0.531784
21
0.166383
0
LINE
8
BLACK
6
CONTINUOUS
10
0.531784
20
0.166383
11
0.533522
21
0.168897
0
LINE
8
BLACK
6
CONTINUOUS
10
0.533522
20
0.168897
11
0.536285
21
0.170206
0
LINE
8
BLACK
6
CONTINUOUS
10
0.536285
20
0.170206
11
0.539332
21
0.169958
0
LINE
8
BLACK
6
CONTINUOUS
10
0.582621
20
0.186894
11
0.58242
21
0.186143
0
LINE
8
BLACK
6
CONTINUOUS
10
0.58242
20
0.186143
11
0.58242
21
0.185365
0
LINE
8
BLACK
6
CONTINUOUS
10
0.58242
20
0.185365
11
0.582031
21
0.184692
0
LINE
8
BLACK
6
CONTINUOUS
10
0.582031
20
0.184692
11
0.58183
21
0.183941
0
LINE
8
BLACK
6
CONTINUOUS
10
0.58183
20
0.183941
11
0.58128
21
0.183391
0
LINE
8
BLACK
6
CONTINUOUS
10
0.58128
20
0.183391
11
0.580891
21
0.182718
0
LINE
8
BLACK
6
CONTINUOUS
10
0.580891
20
0.182718
11
0.580891
21
0.182718
0
LINE
8
BLACK
6
CONTINUOUS
10
0.580891
20
0.182718
11
0.578079
21
0.179906
0
LINE
8
BLACK
6
CONTINUOUS
10
0.578079
20
0.179906
11
0.57696
21
0.17926
0
LINE
8
BLACK
6
CONTINUOUS
10
0.57696
20
0.17926
11
0.575432
21
0.178377
0
LINE
8
BLACK
6
CONTINUOUS
10
0.575432
20
0.178377
11
0.572375
21
0.178377
0
LINE
8
BLACK
6
CONTINUOUS
10
0.572375
20
0.178377
11
0.569727
21
0.179906
0
LINE
8
BLACK
6
CONTINUOUS
10
0.569727
20
0.179906
11
0.569727
21
0.179906
0
LINE
8
BLACK
6
CONTINUOUS
10
0.569727
20
0.179906
11
0.566915
21
0.182718
0
LINE
8
BLACK
6
CONTINUOUS
10
0.566915
20
0.182718
11
0.566527
21
0.183391
0
LINE
8
BLACK
6
CONTINUOUS
10
0.566527
20
0.183391
11
0.565977
21
0.183941
0
LINE
8
BLACK
6
CONTINUOUS
10
0.565977
20
0.183941
11
0.565776
21
0.184692
0
LINE
8
BLACK
6
CONTINUOUS
10
0.565776
20
0.184692
11
0.565387
21
0.185365
0
LINE
8
BLACK
6
CONTINUOUS
10
0.565387
20
0.185365
11
0.565387
21
0.186143
0
LINE
8
BLACK
6
CONTINUOUS
10
0.565387
20
0.186143
11
0.565186
21
0.186894
0
LINE
8
BLACK
6
CONTINUOUS
10
0.565186
20
0.186894
11
0.565387
21
0.187645
0
LINE
8
BLACK
6
CONTINUOUS
10
0.565387
20
0.187645
11
0.565387
21
0.188422
0
LINE
8
BLACK
6
CONTINUOUS
10
0.565387
20
0.188422
11
0.565776
21
0.189095
0
LINE
8
BLACK
6
CONTINUOUS
10
0.565776
20
0.189095
11
0.565977
21
0.189846
0
LINE
8
BLACK
6
CONTINUOUS
10
0.565977
20
0.189846
11
0.566527
21
0.190396
0
LINE
8
BLACK
6
CONTINUOUS
10
0.566527
20
0.190396
11
0.566915
21
0.191069
0
LINE
8
BLACK
6
CONTINUOUS
10
0.566915
20
0.191069
11
0.569727
21
0.193881
0
LINE
8
BLACK
6
CONTINUOUS
10
0.569727
20
0.193881
11
0.569727
21
0.193881
0
LINE
8
BLACK
6
CONTINUOUS
10
0.569727
20
0.193881
11
0.569727
21
0.193882
0
LINE
8
BLACK
6
CONTINUOUS
10
0.569727
20
0.193882
11
0.570846
21
0.194528
0
LINE
8
BLACK
6
CONTINUOUS
10
0.570846
20
0.194528
11
0.572375
21
0.19541
0
LINE
8
BLACK
6
CONTINUOUS
10
0.572375
20
0.19541
11
0.575432
21
0.19541
0
LINE
8
BLACK
6
CONTINUOUS
10
0.575432
20
0.19541
11
0.576102
21
0.195023
0
LINE
8
BLACK
6
CONTINUOUS
10
0.576102
20
0.195023
11
0.578079
21
0.193882
0
LINE
8
BLACK
6
CONTINUOUS
10
0.578079
20
0.193882
11
0.578079
21
0.193882
0
LINE
8
BLACK
6
CONTINUOUS
10
0.578079
20
0.193882
11
0.578079
21
0.193882
0
LINE
8
BLACK
6
CONTINUOUS
10
0.578079
20
0.193882
11
0.580891
21
0.191069
0
LINE
8
BLACK
6
CONTINUOUS
10
0.580891
20
0.191069
11
0.58128
21
0.190396
0
LINE
8
BLACK
6
CONTINUOUS
10
0.58128
20
0.190396
11
0.58183
21
0.189846
0
LINE
8
BLACK
6
CONTINUOUS
10
0.58183
20
0.189846
11
0.582031
21
0.189095
0
LINE
8
BLACK
6
CONTINUOUS
10
0.582031
20
0.189095
11
0.58242
21
0.188422
0
LINE
8
BLACK
6
CONTINUOUS
10
0.58242
20
0.188422
11
0.58242
21
0.187645
0
LINE
8
BLACK
6
CONTINUOUS
10
0.58242
20
0.187645
11
0.582621
21
0.186894
0
LINE
8
BLACK
6
CONTINUOUS
10
0.577157
20
0.245253
11
0.579185
21
0.242965
0
LINE
8
BLACK
6
CONTINUOUS
10
0.579185
20
0.242965
11
0.581997
21
0.237341
0
LINE
8
BLACK
6
CONTINUOUS
10
0.581997
20
0.237341
11
0.58227
21
0.236011
0
LINE
8
BLACK
6
CONTINUOUS
10
0.58227
20
0.236011
11
0.582621
21
0.2347
0
LINE
8
BLACK
6
CONTINUOUS
10
0.582621
20
0.2347
11
0.582621
21
0.223451
0
LINE
8
BLACK
6
CONTINUOUS
10
0.582621
20
0.223451
11
0.58227
21
0.22214
0
LINE
8
BLACK
6
CONTINUOUS
10
0.58227
20
0.22214
11
0.581997
21
0.22081
0
LINE
8
BLACK
6
CONTINUOUS
10
0.581997
20
0.22081
11
0.579185
21
0.215186
0
LINE
8
BLACK
6
CONTINUOUS
10
0.579185
20
0.215186
11
0.578554
21
0.214475
0
LINE
8
BLACK
6
CONTINUOUS
10
0.578554
20
0.214475
11
0.578079
21
0.213651
0
LINE
8
BLACK
6
CONTINUOUS
10
0.578079
20
0.213651
11
0.575267
21
0.210839
0
LINE
8
BLACK
6
CONTINUOUS
10
0.575267
20
0.210839
11
0.574444
21
0.210364
0
LINE
8
BLACK
6
CONTINUOUS
10
0.574444
20
0.210364
11
0.573732
21
0.209733
0
LINE
8
BLACK
6
CONTINUOUS
10
0.573732
20
0.209733
11
0.568108
21
0.206921
0
LINE
8
BLACK
6
CONTINUOUS
10
0.568108
20
0.206921
11
0.566778
21
0.206649
0
LINE
8
BLACK
6
CONTINUOUS
10
0.566778
20
0.206649
11
0.565467
21
0.206297
0
LINE
8
BLACK
6
CONTINUOUS
10
0.565467
20
0.206297
11
0.548594
21
0.206297
0
LINE
8
BLACK
6
CONTINUOUS
10
0.548594
20
0.206297
11
0.547283
21
0.206649
0
LINE
8
BLACK
6
CONTINUOUS
10
0.547283
20
0.206649
11
0.545953
21
0.206921
0
LINE
8
BLACK
6
CONTINUOUS
10
0.545953
20
0.206921
11
0.540329
21
0.209733
0
LINE
8
BLACK
6
CONTINUOUS
10
0.540329
20
0.209733
11
0.539617
21
0.210364
0
LINE
8
BLACK
6
CONTINUOUS
10
0.539617
20
0.210364
11
0.538794
21
0.210839
0
LINE
8
BLACK
6
CONTINUOUS
10
0.538794
20
0.210839
11
0.535982
21
0.213651
0
LINE
8
BLACK
6
CONTINUOUS
10
0.535982
20
0.213651
11
0.535506
21
0.214475
0
LINE
8
BLACK
6
CONTINUOUS
10
0.535506
20
0.214475
11
0.534875
21
0.215186
0
LINE
8
BLACK
6
CONTINUOUS
10
0.534875
20
0.215186
11
0.532063
21
0.22081
0
LINE
8
BLACK
6
CONTINUOUS
10
0.532063
20
0.22081
11
0.531791
21
0.22214
0
LINE
8
BLACK
6
CONTINUOUS
10
0.531791
20
0.22214
11
0.53144
21
0.223451
0
LINE
8
BLACK
6
CONTINUOUS
10
0.53144
20
0.223451
11
0.53144
21
0.2347
0
LINE
8
BLACK
6
CONTINUOUS
10
0.53144
20
0.2347
11
0.531791
21
0.236011
0
LINE
8
BLACK
6
CONTINUOUS
10
0.531791
20
0.236011
11
0.532063
21
0.237341
0
LINE
8
BLACK
6
CONTINUOUS
10
0.532063
20
0.237341
11
0.534875
21
0.242965
0
LINE
8
BLACK
6
CONTINUOUS
10
0.534875
20
0.242965
11
0.536904
21
0.245253
0
LINE
8
BLACK
6
CONTINUOUS
10
0.536904
20
0.245253
11
0.539804
21
0.246219
0
LINE
8
BLACK
6
CONTINUOUS
10
0.539804
20
0.246219
11
0.542799
21
0.245606
0
LINE
8
BLACK
6
CONTINUOUS
10
0.542799
20
0.245606
11
0.545086
21
0.243578
0
LINE
8
BLACK
6
CONTINUOUS
10
0.545086
20
0.243578
11
0.546052
21
0.240678
0
LINE
8
BLACK
6
CONTINUOUS
10
0.546052
20
0.240678
11
0.54544
21
0.237683
0
LINE
8
BLACK
6
CONTINUOUS
10
0.54544
20
0.237683
11
0.543251
21
0.233306
0
LINE
8
BLACK
6
CONTINUOUS
10
0.543251
20
0.233306
11
0.543251
21
0.224846
0
LINE
8
BLACK
6
CONTINUOUS
10
0.543251
20
0.224846
11
0.545011
21
0.221325
0
LINE
8
BLACK
6
CONTINUOUS
10
0.545011
20
0.221325
11
0.546468
21
0.219869
0
LINE
8
BLACK
6
CONTINUOUS
10
0.546468
20
0.219869
11
0.549988
21
0.218108
0
LINE
8
BLACK
6
CONTINUOUS
10
0.549988
20
0.218108
11
0.564073
21
0.218108
0
LINE
8
BLACK
6
CONTINUOUS
10
0.564073
20
0.218108
11
0.567593
21
0.219868
0
LINE
8
BLACK
6
CONTINUOUS
10
0.567593
20
0.219868
11
0.56905
21
0.221325
0
LINE
8
BLACK
6
CONTINUOUS
10
0.56905
20
0.221325
11
0.57081
21
0.224846
0
LINE
8
BLACK
6
CONTINUOUS
10
0.57081
20
0.224846
11
0.57081
21
0.233306
0
LINE
8
BLACK
6
CONTINUOUS
10
0.57081
20
0.233306
11
0.568621
21
0.237683
0
LINE
8
BLACK
6
CONTINUOUS
10
0.568621
20
0.237683
11
0.568008
21
0.240678
0
LINE
8
BLACK
6
CONTINUOUS
10
0.568008
20
0.240678
11
0.568975
21
0.243578
0
LINE
8
BLACK
6
CONTINUOUS
10
0.568975
20
0.243578
11
0.571262
21
0.245606
0
LINE
8
BLACK
6
CONTINUOUS
10
0.571262
20
0.245606
11
0.574257
21
0.246219
0
LINE
8
BLACK
6
CONTINUOUS
10
0.574257
20
0.246219
11
0.577157
21
0.245253
0
LINE
8
BLACK
6
CONTINUOUS
10
0.579668
20
0.296057
11
0.58183
21
0.293896
0
LINE
8
BLACK
6
CONTINUOUS
10
0.58183
20
0.293896
11
0.582621
21
0.290943
0
LINE
8
BLACK
6
CONTINUOUS
10
0.582621
20
0.290943
11
0.582621
21
0.260009
0
LINE
8
BLACK
6
CONTINUOUS
10
0.582621
20
0.260009
11
0.58251
21
0.259596
0
LINE
8
BLACK
6
CONTINUOUS
10
0.58251
20
0.259596
11
0.582561
21
0.259171
0
LINE
8
BLACK
6
CONTINUOUS
10
0.582561
20
0.259171
11
0.58212
21
0.25814
0
LINE
8
BLACK
6
CONTINUOUS
10
0.58212
20
0.25814
11
0.58183
21
0.257057
0
LINE
8
BLACK
6
CONTINUOUS
10
0.58183
20
0.257057
11
0.581527
21
0.256754
0
LINE
8
BLACK
6
CONTINUOUS
10
0.581527
20
0.256754
11
0.581359
21
0.256361
0
LINE
8
BLACK
6
CONTINUOUS
10
0.581359
20
0.256361
11
0.580461
21
0.255688
0
LINE
8
BLACK
6
CONTINUOUS
10
0.580461
20
0.255688
11
0.579668
21
0.254895
0
LINE
8
BLACK
6
CONTINUOUS
10
0.579668
20
0.254895
11
0.579255
21
0.254784
0
LINE
8
BLACK
6
CONTINUOUS
10
0.579255
20
0.254784
11
0.578913
21
0.254528
0
LINE
8
BLACK
6
CONTINUOUS
10
0.578913
20
0.254528
11
0.577799
21
0.254394
0
LINE
8
BLACK
6
CONTINUOUS
10
0.577799
20
0.254394
11
0.576715
21
0.254104
0
LINE
8
BLACK
6
CONTINUOUS
10
0.576715
20
0.254104
11
0.576302
21
0.254215
0
LINE
8
BLACK
6
CONTINUOUS
10
0.576302
20
0.254215
11
0.575877
21
0.254164
0
LINE
8
BLACK
6
CONTINUOUS
10
0.575877
20
0.254164
11
0.574846
21
0.254605
0
LINE
8
BLACK
6
CONTINUOUS
10
0.574846
20
0.254605
11
0.573763
21
0.254895
0
LINE
8
BLACK
6
CONTINUOUS
10
0.573763
20
0.254895
11
0.57346
21
0.255198
0
LINE
8
BLACK
6
CONTINUOUS
10
0.57346
20
0.255198
11
0.573067
21
0.255366
0
LINE
8
BLACK
6
CONTINUOUS
10
0.573067
20
0.255366
11
0.543251
21
0.278793
0
LINE
8
BLACK
6
CONTINUOUS
10
0.543251
20
0.278793
11
0.543251
21
0.260009
0
LINE
8
BLACK
6
CONTINUOUS
10
0.543251
20
0.260009
11
0.54246
21
0.257057
0
LINE
8
BLACK
6
CONTINUOUS
10
0.54246
20
0.257057
11
0.540298
21
0.254895
0
LINE
8
BLACK
6
CONTINUOUS
10
0.540298
20
0.254895
11
0.537345
21
0.254104
0
LINE
8
BLACK
6
CONTINUOUS
10
0.537345
20
0.254104
11
0.534393
21
0.254895
0
LINE
8
BLACK
6
CONTINUOUS
10
0.534393
20
0.254895
11
0.532231
21
0.257057
0
LINE
8
BLACK
6
CONTINUOUS
10
0.532231
20
0.257057
11
0.53144
21
0.260009
0
LINE
8
BLACK
6
CONTINUOUS
10
0.53144
20
0.260009
11
0.53144
21
0.290943
0
LINE
8
BLACK
6
CONTINUOUS
10
0.53144
20
0.290943
11
0.531551
21
0.291356
0
LINE
8
BLACK
6
CONTINUOUS
10
0.531551
20
0.291356
11
0.5315
21
0.291781
0
LINE
8
BLACK
6
CONTINUOUS
10
0.5315
20
0.291781
11
0.531941
21
0.292812
0
LINE
8
BLACK
6
CONTINUOUS
10
0.531941
20
0.292812
11
0.532231
21
0.293896
0
LINE
8
BLACK
6
CONTINUOUS
10
0.532231
20
0.293896
11
0.532533
21
0.294198
0
LINE
8
BLACK
6
CONTINUOUS
10
0.532533
20
0.294198
11
0.532702
21
0.294592
0
LINE
8
BLACK
6
CONTINUOUS
10
0.532702
20
0.294592
11
0.533599
21
0.295264
0
LINE
8
BLACK
6
CONTINUOUS
10
0.533599
20
0.295264
11
0.534393
21
0.296057
0
LINE
8
BLACK
6
CONTINUOUS
10
0.534393
20
0.296057
11
0.534806
21
0.296168
0
LINE
8
BLACK
6
CONTINUOUS
10
0.534806
20
0.296168
11
0.535148
21
0.296425
0
LINE
8
BLACK
6
CONTINUOUS
10
0.535148
20
0.296425
11
0.536262
21
0.296558
0
LINE
8
BLACK
6
CONTINUOUS
10
0.536262
20
0.296558
11
0.537345
21
0.296849
0
LINE
8
BLACK
6
CONTINUOUS
10
0.537345
20
0.296849
11
0.537758
21
0.296738
0
LINE
8
BLACK
6
CONTINUOUS
10
0.537758
20
0.296738
11
0.538183
21
0.296789
0
LINE
8
BLACK
6
CONTINUOUS
10
0.538183
20
0.296789
11
0.539215
21
0.296348
0
LINE
8
BLACK
6
CONTINUOUS
10
0.539215
20
0.296348
11
0.540298
21
0.296057
0
LINE
8
BLACK
6
CONTINUOUS
10
0.540298
20
0.296057
11
0.540601
21
0.295755
0
LINE
8
BLACK
6
CONTINUOUS
10
0.540601
20
0.295755
11
0.540994
21
0.295587
0
LINE
8
BLACK
6
CONTINUOUS
10
0.540994
20
0.295587
11
0.57081
21
0.27216
0
LINE
8
BLACK
6
CONTINUOUS
10
0.57081
20
0.27216
11
0.57081
21
0.290943
0
LINE
8
BLACK
6
CONTINUOUS
10
0.57081
20
0.290943
11
0.571601
21
0.293896
0
LINE
8
BLACK
6
CONTINUOUS
10
0.571601
20
0.293896
11
0.573763
21
0.296057
0
LINE
8
BLACK
6
CONTINUOUS
10
0.573763
20
0.296057
11
0.576715
21
0.296849
0
LINE
8
BLACK
6
CONTINUOUS
10
0.576715
20
0.296849
11
0.579668
21
0.296057
0
LINE
8
BLACK
6
CONTINUOUS
10
-0.829614
20
0.354255
11
-0.827888
21
0.355251
0
LINE
8
BLACK
6
CONTINUOUS
10
-0.827888
20
0.355251
11
-0.827382
21
0.355295
0
LINE
8
BLACK
6
CONTINUOUS
10
-0.827382
20
0.355295
11
0.60376
21
0.355295
0
LINE
8
BLACK
6
CONTINUOUS
10
0.60376
20
0.355295
11
0.605633
21
0.354614
0
LINE
8
BLACK
6
CONTINUOUS
10
0.605633
20
0.354614
11
0.606629
21
0.352888
0
LINE
8
BLACK
6
CONTINUOUS
10
0.606629
20
0.352888
11
0.606673
21
0.352382
0
LINE
8
BLACK
6
CONTINUOUS
10
0.606673
20
0.352382
11
0.606673
21
0.316092
0
LINE
8
BLACK
6
CONTINUOUS
10
0.606673
20
0.316092
11
0.605992
21
0.314219
0
LINE
8
BLACK
6
CONTINUOUS
10
0.605992
20
0.314219
11
0.604266
21
0.313223
0
LINE
8
BLACK
6
CONTINUOUS
10
0.604266
20
0.313223
11
0.60376
21
0.313179
0
LINE
8
BLACK
6
CONTINUOUS
10
0.60376
20
0.313179
11
0.485709
21
0.313179
0
LINE
8
BLACK
6
CONTINUOUS
10
0.485709
20
0.313179
11
0.485709
21
-0.313407
0
LINE
8
BLACK
6
CONTINUOUS
10
0.485709
20
-0.313407
11
0.60376
21
-0.313407
0
LINE
8
BLACK
6
CONTINUOUS
10
0.60376
20
-0.313407
11
0.605633
21
-0.314089
0
LINE
8
BLACK
6
CONTINUOUS
10
0.605633
20
-0.314089
11
0.606629
21
-0.315815
0
LINE
8
BLACK
6
CONTINUOUS
10
0.606629
20
-0.315815
11
0.606673
21
-0.316321
0
LINE
8
BLACK
6
CONTINUOUS
10
0.606673
20
-0.316321
11
0.606673
21
-0.350413
0
LINE
8
BLACK
6
CONTINUOUS
10
0.606673
20
-0.350413
11
0.605992
21
-0.352286
0
LINE
8
BLACK
6
CONTINUOUS
10
0.605992
20
-0.352286
11
0.604266
21
-0.353283
0
LINE
8
BLACK
6
CONTINUOUS
10
0.604266
20
-0.353283
11
0.60376
21
-0.353327
0
LINE
8
BLACK
6
CONTINUOUS
10
0.60376
20
-0.353327
11
-0.827382
21
-0.353327
0
LINE
8
BLACK
6
CONTINUOUS
10
-0.827382
20
-0.353327
11
-0.829255
21
-0.352645
0
LINE
8
BLACK
6
CONTINUOUS
10
-0.829255
20
-0.352645
11
-0.830251
21
-0.350919
0
LINE
8
BLACK
6
CONTINUOUS
10
-0.830251
20
-0.350919
11
-0.830295
21
-0.350413
0
LINE
8
BLACK
6
CONTINUOUS
10
-0.830295
20
-0.350413
11
-0.830295
21
0.352382
0
LINE
8
BLACK
6
CONTINUOUS
10
-0.830295
20
0.352382
11
-0.829614
21
0.354255
0
LINE
8
BLACK
6
CONTINUOUS
10
-0.0631985
20
-0.303261
11
-0.0630913
21
-0.30401
0
LINE
8
BLACK
6
CONTINUOUS
10
-0.0630913
20
-0.30401
11
-0.063073
21
-0.304169
0
LINE
8
BLACK
6
CONTINUOUS
10
-0.063073
20
-0.304169
11
-0.0625615
21
-0.310016
0
LINE
8
BLACK
6
CONTINUOUS
10
-0.0625615
20
-0.310016
11
-0.0607776
21
-0.316673
0
LINE
8
BLACK
6
CONTINUOUS
10
-0.0607776
20
-0.316673
11
-0.0578649
21
-0.32292
0
LINE
8
BLACK
6
CONTINUOUS
10
-0.0578649
20
-0.32292
11
-0.0539116
21
-0.328566
0
LINE
8
BLACK
6
CONTINUOUS
10
-0.0539116
20
-0.328566
11
-0.049038
21
-0.333439
0
LINE
8
BLACK
6
CONTINUOUS
10
-0.049038
20
-0.333439
11
-0.0433922
21
-0.337392
0
LINE
8
BLACK
6
CONTINUOUS
10
-0.0433922
20
-0.337392
11
-0.0432771
21
-0.337446
0
LINE
8
BLACK
6
CONTINUOUS
10
-0.0432771
20
-0.337446
11
-0.0432769
21
-0.337446
0
LINE
8
BLACK
6
CONTINUOUS
10
-0.0432769
20
-0.337446
11
-0.0381084
21
-0.339856
0
LINE
8
BLACK
6
CONTINUOUS
10
-0.0381084
20
-0.339856
11
-0.0371456
21
-0.340305
0
LINE
8
BLACK
6
CONTINUOUS
10
-0.0371456
20
-0.340305
11
-0.0304881
21
-0.342089
0
LINE
8
BLACK
6
CONTINUOUS
10
-0.0304881
20
-0.342089
11
-0.0303613
21
-0.3421
0
LINE
8
BLACK
6
CONTINUOUS
10
-0.0303613
20
-0.3421
11
-0.0303613
21
-0.3421
0
LINE
8
BLACK
6
CONTINUOUS
10
-0.0303613
20
-0.3421
11
-0.0253231
21
-0.342541
0
LINE
8
BLACK
6
CONTINUOUS
10
-0.0253231
20
-0.342541
11
-0.0250937
21
-0.34257
0
LINE
8
BLACK
6
CONTINUOUS
10
-0.0250937
20
-0.34257
11
-0.0242196
21
-0.342717
0
LINE
8
BLACK
6
CONTINUOUS
10
-0.0242196
20
-0.342717
11
-0.0242195
21
-0.342717
0
LINE
8
BLACK
6
CONTINUOUS
10
-0.0242195
20
-0.342717
11
-0.0241084
21
-0.342736
0
LINE
8
BLACK
6
CONTINUOUS
10
-0.0241084
20
-0.342736
11
-0.0239957
21
-0.342737
0
LINE
8
BLACK
6
CONTINUOUS
10
-0.0239957
20
-0.342737
11
-0.0238977
21
-0.342739
0
LINE
8
BLACK
6
CONTINUOUS
10
-0.0238977
20
-0.342739
11
-0.023622
21
-0.342742
0
LINE
8
BLACK
6
CONTINUOUS
10
-0.023622
20
-0.342742
11
-0.0224124
21
-0.342569
0
LINE
8
BLACK
6
CONTINUOUS
10
-0.0224124
20
-0.342569
11
-0.0219994
21
-0.342539
0
LINE
8
BLACK
6
CONTINUOUS
10
-0.0219994
20
-0.342539
11
0.0217233
21
-0.342539
0
LINE
8
BLACK
6
CONTINUOUS
10
0.0217233
20
-0.342539
11
0.0222067
21
-0.34258
0
LINE
8
BLACK
6
CONTINUOUS
10
0.0222067
20
-0.34258
11
0.0231357
21
-0.342736
0
LINE
8
BLACK
6
CONTINUOUS
10
0.0231357
20
-0.342736
11
0.0232484
21
-0.342737
0
LINE
8
BLACK
6
CONTINUOUS
10
0.0232484
20
-0.342737
11
0.0233143
21
-0.342738
0
LINE
8
BLACK
6
CONTINUOUS
10
0.0233143
20
-0.342738
11
0.023622
21
-0.342742
0
LINE
8
BLACK
6
CONTINUOUS
10
0.023622
20
-0.342742
11
0.0237333
21
-0.342726
0
LINE
8
BLACK
6
CONTINUOUS
10
0.0237333
20
-0.342726
11
0.0237335
21
-0.342726
0
LINE
8
BLACK
6
CONTINUOUS
10
0.0237335
20
-0.342726
11
0.0244766
21
-0.34262
0
LINE
8
BLACK
6
CONTINUOUS
10
0.0244766
20
-0.34262
11
0.0246356
21
-0.342601
0
LINE
8
BLACK
6
CONTINUOUS
10
0.0246356
20
-0.342601
11
0.0273867
21
-0.342361
0
LINE
8
BLACK
6
CONTINUOUS
10
0.0273867
20
-0.342361
11
0.0304882
21
-0.342089
0
LINE
8
BLACK
6
CONTINUOUS
10
0.0304882
20
-0.342089
11
0.0371457
21
-0.340305
0
LINE
8
BLACK
6
CONTINUOUS
10
0.0371457
20
-0.340305
11
0.0389283
21
-0.339474
0
LINE
8
BLACK
6
CONTINUOUS
10
0.0389283
20
-0.339474
11
0.043277
21
-0.337446
0
LINE
8
BLACK
6
CONTINUOUS
10
0.043277
20
-0.337446
11
0.0432772
21
-0.337446
0
LINE
8
BLACK
6
CONTINUOUS
10
0.0432772
20
-0.337446
11
0.0433922
21
-0.337393
0
LINE
8
BLACK
6
CONTINUOUS
10
0.0433922
20
-0.337393
11
0.0490381
21
-0.333439
0
LINE
8
BLACK
6
CONTINUOUS
10
0.0490381
20
-0.333439
11
0.0539117
21
-0.328566
0
LINE
8
BLACK
6
CONTINUOUS
10
0.0539117
20
-0.328566
11
0.057865
21
-0.32292
0
LINE
8
BLACK
6
CONTINUOUS
10
0.057865
20
-0.32292
11
0.0607778
21
-0.316673
0
LINE
8
BLACK
6
CONTINUOUS
10
0.0607778
20
-0.316673
11
0.0625616
21
-0.310016
0
LINE
8
BLACK
6
CONTINUOUS
10
0.0625616
20
-0.310016
11
0.0630135
21
-0.304851
0
LINE
8
BLACK
6
CONTINUOUS
10
0.0630135
20
-0.304851
11
0.0630427
21
-0.304621
0
LINE
8
BLACK
6
CONTINUOUS
10
0.0630427
20
-0.304621
11
0.0631898
21
-0.303747
0
LINE
8
BLACK
6
CONTINUOUS
10
0.0631898
20
-0.303747
11
0.0632085
21
-0.303636
0
LINE
8
BLACK
6
CONTINUOUS
10
0.0632085
20
-0.303636
11
0.0632144
21
-0.303149
0
LINE
8
BLACK
6
CONTINUOUS
10
0.0632144
20
-0.303149
11
0.0630412
21
-0.30194
0
LINE
8
BLACK
6
CONTINUOUS
10
0.0630412
20
-0.30194
11
0.0630118
21
-0.301527
0
LINE
8
BLACK
6
CONTINUOUS
10
0.0630118
20
-0.301527
11
0.0630118
21
-0.24993
0
LINE
8
BLACK
6
CONTINUOUS
10
0.0630118
20
-0.24993
11
0.0630521
21
-0.249447
0
LINE
8
BLACK
6
CONTINUOUS
10
0.0630521
20
-0.249447
11
0.0632085
21
-0.248518
0
LINE
8
BLACK
6
CONTINUOUS
10
0.0632085
20
-0.248518
11
0.0632144
21
-0.248031
0
LINE
8
BLACK
6
CONTINUOUS
10
0.0632144
20
-0.248031
11
0.0631985
21
-0.24792
0
LINE
8
BLACK
6
CONTINUOUS
10
0.0631985
20
-0.24792
11
0.0630921
21
-0.247177
0
LINE
8
BLACK
6
CONTINUOUS
10
0.0630921
20
-0.247177
11
0.0630738
21
-0.247018
0
LINE
8
BLACK
6
CONTINUOUS
10
0.0630738
20
-0.247018
11
0.0626412
21
-0.242074
0
LINE
8
BLACK
6
CONTINUOUS
10
0.0626412
20
-0.242074
11
0.0625617
21
-0.241165
0
LINE
8
BLACK
6
CONTINUOUS
10
0.0625617
20
-0.241165
11
0.0607778
21
-0.234508
0
LINE
8
BLACK
6
CONTINUOUS
10
0.0607778
20
-0.234508
11
0.058764
21
-0.230189
0
LINE
8
BLACK
6
CONTINUOUS
10
0.058764
20
-0.230189
11
0.0579187
21
-0.228377
0
LINE
8
BLACK
6
CONTINUOUS
10
0.0579187
20
-0.228377
11
0.0579187
21
-0.228377
0
LINE
8
BLACK
6
CONTINUOUS
10
0.0579187
20
-0.228377
11
0.0578649
21
-0.228261
0
LINE
8
BLACK
6
CONTINUOUS
10
0.0578649
20
-0.228261
11
0.0539116
21
-0.222615
0
LINE
8
BLACK
6
CONTINUOUS
10
0.0539116
20
-0.222615
11
0.049038
21
-0.217742
0
LINE
8
BLACK
6
CONTINUOUS
10
0.049038
20
-0.217742
11
0.0433922
21
-0.213789
0
LINE
8
BLACK
6
CONTINUOUS
10
0.0433922
20
-0.213789
11
0.0371456
21
-0.210876
0
LINE
8
BLACK
6
CONTINUOUS
10
0.0371456
20
-0.210876
11
0.0370106
21
-0.21084
0
LINE
8
BLACK
6
CONTINUOUS
10
0.0370106
20
-0.21084
11
0.030611
21
-0.209125
0
LINE
8
BLACK
6
CONTINUOUS
10
0.030611
20
-0.209125
11
0.0304881
21
-0.209092
0
LINE
8
BLACK
6
CONTINUOUS
10
0.0304881
20
-0.209092
11
0.0303613
21
-0.209081
0
LINE
8
BLACK
6
CONTINUOUS
10
0.0303613
20
-0.209081
11
0.0303613
21
-0.209081
0
LINE
8
BLACK
6
CONTINUOUS
10
0.0303613
20
-0.209081
11
0.0253231
21
-0.20864
0
LINE
8
BLACK
6
CONTINUOUS
10
0.0253231
20
-0.20864
11
0.0250937
21
-0.208611
0
LINE
8
BLACK
6
CONTINUOUS
10
0.0250937
20
-0.208611
11
0.0242196
21
-0.208464
0
LINE
8
BLACK
6
CONTINUOUS
10
0.0242196
20
-0.208464
11
0.0242195
21
-0.208464
0
LINE
8
BLACK
6
CONTINUOUS
10
0.0242195
20
-0.208464
11
0.0241084
21
-0.208445
0
LINE
8
BLACK
6
CONTINUOUS
10
0.0241084
20
-0.208445
11
0.0239957
21
-0.208444
0
LINE
8
BLACK
6
CONTINUOUS
10
0.0239957
20
-0.208444
11
0.0238977
21
-0.208442
0
LINE
8
BLACK
6
CONTINUOUS
10
0.0238977
20
-0.208442
11
0.023622
21
-0.208439
0
LINE
8
BLACK
6
CONTINUOUS
10
0.023622
20
-0.208439
11
0.0227619
21
-0.208562
0
LINE
8
BLACK
6
CONTINUOUS
10
0.0227619
20
-0.208562
11
0.0224124
21
-0.208612
0
LINE
8
BLACK
6
CONTINUOUS
10
0.0224124
20
-0.208612
11
0.0219994
21
-0.208642
0
LINE
8
BLACK
6
CONTINUOUS
10
0.0219994
20
-0.208642
11
-0.0217233
21
-0.208642
0
LINE
8
BLACK
6
CONTINUOUS
10
-0.0217233
20
-0.208642
11
-0.0222067
21
-0.208601
0
LINE
8
BLACK
6
CONTINUOUS
10
-0.0222067
20
-0.208601
11
-0.0230245
21
-0.208464
0
LINE
8
BLACK
6
CONTINUOUS
10
-0.0230245
20
-0.208464
11
-0.0230245
21
-0.208464
0
LINE
8
BLACK
6
CONTINUOUS
10
-0.0230245
20
-0.208464
11
-0.0231357
21
-0.208445
0
LINE
8
BLACK
6
CONTINUOUS
10
-0.0231357
20
-0.208445
11
-0.0232484
21
-0.208444
0
LINE
8
BLACK
6
CONTINUOUS
10
-0.0232484
20
-0.208444
11
-0.0232925
21
-0.208443
0
LINE
8
BLACK
6
CONTINUOUS
10
-0.0232925
20
-0.208443
11
-0.023622
21
-0.208439
0
LINE
8
BLACK
6
CONTINUOUS
10
-0.023622
20
-0.208439
11
-0.0237335
21
-0.208455
0
LINE
8
BLACK
6
CONTINUOUS
10
-0.0237335
20
-0.208455
11
-0.0237338
21
-0.208455
0
LINE
8
BLACK
6
CONTINUOUS
10
-0.0237338
20
-0.208455
11
-0.0244824
21
-0.208562
0
LINE
8
BLACK
6
CONTINUOUS
10
-0.0244824
20
-0.208562
11
-0.0246413
21
-0.208581
0
LINE
8
BLACK
6
CONTINUOUS
10
-0.0246413
20
-0.208581
11
-0.0304881
21
-0.209092
0
LINE
8
BLACK
6
CONTINUOUS
10
-0.0304881
20
-0.209092
11
-0.0371456
21
-0.210876
0
LINE
8
BLACK
6
CONTINUOUS
10
-0.0371456
20
-0.210876
11
-0.0372605
21
-0.21093
0
LINE
8
BLACK
6
CONTINUOUS
10
-0.0372605
20
-0.21093
11
-0.0372606
21
-0.21093
0
LINE
8
BLACK
6
CONTINUOUS
10
-0.0372606
20
-0.21093
11
-0.043277
21
-0.213735
0
LINE
8
BLACK
6
CONTINUOUS
10
-0.043277
20
-0.213735
11
-0.0432772
21
-0.213735
0
LINE
8
BLACK
6
CONTINUOUS
10
-0.0432772
20
-0.213735
11
-0.0433921
21
-0.213789
0
LINE
8
BLACK
6
CONTINUOUS
10
-0.0433921
20
-0.213789
11
-0.0434962
21
-0.213862
0
LINE
8
BLACK
6
CONTINUOUS
10
-0.0434962
20
-0.213862
11
-0.0489336
21
-0.217669
0
LINE
8
BLACK
6
CONTINUOUS
10
-0.0489336
20
-0.217669
11
-0.0489337
21
-0.217669
0
LINE
8
BLACK
6
CONTINUOUS
10
-0.0489337
20
-0.217669
11
-0.0490379
21
-0.217742
0
LINE
8
BLACK
6
CONTINUOUS
10
-0.0490379
20
-0.217742
11
-0.0539115
21
-0.222616
0
LINE
8
BLACK
6
CONTINUOUS
10
-0.0539115
20
-0.222616
11
-0.0568585
21
-0.226824
0
LINE
8
BLACK
6
CONTINUOUS
10
-0.0568585
20
-0.226824
11
-0.0577917
21
-0.228157
0
LINE
8
BLACK
6
CONTINUOUS
10
-0.0577917
20
-0.228157
11
-0.0578648
21
-0.228261
0
LINE
8
BLACK
6
CONTINUOUS
10
-0.0578648
20
-0.228261
11
-0.0579185
21
-0.228376
0
LINE
8
BLACK
6
CONTINUOUS
10
-0.0579185
20
-0.228376
11
-0.0579186
21
-0.228377
0
LINE
8
BLACK
6
CONTINUOUS
10
-0.0579186
20
-0.228377
11
-0.0599587
21
-0.232752
0
LINE
8
BLACK
6
CONTINUOUS
10
-0.0599587
20
-0.232752
11
-0.0607776
21
-0.234508
0
LINE
8
BLACK
6
CONTINUOUS
10
-0.0607776
20
-0.234508
11
-0.0625615
21
-0.241165
0
LINE
8
BLACK
6
CONTINUOUS
10
-0.0625615
20
-0.241165
11
-0.0626411
21
-0.242074
0
LINE
8
BLACK
6
CONTINUOUS
10
-0.0626411
20
-0.242074
11
-0.0630135
21
-0.24633
0
LINE
8
BLACK
6
CONTINUOUS
10
-0.0630135
20
-0.24633
11
-0.0630428
21
-0.24656
0
LINE
8
BLACK
6
CONTINUOUS
10
-0.0630428
20
-0.24656
11
-0.0631198
21
-0.247018
0
LINE
8
BLACK
6
CONTINUOUS
10
-0.0631198
20
-0.247018
11
-0.0632085
21
-0.247545
0
LINE
8
BLACK
6
CONTINUOUS
10
-0.0632085
20
-0.247545
11
-0.0632144
21
-0.248031
0
LINE
8
BLACK
6
CONTINUOUS
10
-0.0632144
20
-0.248031
11
-0.0631985
21
-0.248143
0
LINE
8
BLACK
6
CONTINUOUS
10
-0.0631985
20
-0.248143
11
-0.0630412
21
-0.249241
0
LINE
8
BLACK
6
CONTINUOUS
10
-0.0630412
20
-0.249241
11
-0.0630118
21
-0.249654
0
LINE
8
BLACK
6
CONTINUOUS
10
-0.0630118
20
-0.249654
11
-0.0630118
21
-0.301251
0
LINE
8
BLACK
6
CONTINUOUS
10
-0.0630118
20
-0.301251
11
-0.0630522
21
-0.301734
0
LINE
8
BLACK
6
CONTINUOUS
10
-0.0630522
20
-0.301734
11
-0.0632085
21
-0.302663
0
LINE
8
BLACK
6
CONTINUOUS
10
-0.0632085
20
-0.302663
11
-0.0632144
21
-0.303149
0
LINE
8
BLACK
6
CONTINUOUS
10
-0.0632144
20
-0.303149
11
-0.0631985
21
-0.303261
0
LINE
8
BLACK
6
CONTINUOUS
10
-0.0631985
20
-0.303261
11
-0.0631985
21
-0.303261
0
LINE
8
BLACK
6
CONTINUOUS
10
-0.536471
20
0.0124051
11
-0.536942
21
0.0159826
0
LINE
8
BLACK
6
CONTINUOUS
10
-0.536942
20
0.0159826
11
-0.536942
21
0.0159827
0
LINE
8
BLACK
6
CONTINUOUS
10
-0.536942
20
0.0159827
11
-0.536967
21
0.0161717
0
LINE
8
BLACK
6
CONTINUOUS
10
-0.536967
20
0.0161717
11
-0.539349
21
0.0219229
0
LINE
8
BLACK
6
CONTINUOUS
10
-0.539349
20
0.0219229
11
-0.539465
21
0.0220742
0
LINE
8
BLACK
6
CONTINUOUS
10
-0.539465
20
0.0220742
11
-0.539465
21
0.0220744
0
LINE
8
BLACK
6
CONTINUOUS
10
-0.539465
20
0.0220744
11
-0.543022
21
0.0267099
0
LINE
8
BLACK
6
CONTINUOUS
10
-0.543022
20
0.0267099
11
-0.543139
21
0.0268615
0
LINE
8
BLACK
6
CONTINUOUS
10
-0.543139
20
0.0268615
11
-0.544637
21
0.028011
0
LINE
8
BLACK
6
CONTINUOUS
10
-0.544637
20
0.028011
11
-0.547926
21
0.0305348
0
LINE
8
BLACK
6
CONTINUOUS
10
-0.547926
20
0.0305348
11
-0.547926
21
0.0305349
0
LINE
8
BLACK
6
CONTINUOUS
10
-0.547926
20
0.0305349
11
-0.548077
21
0.030651
0
LINE
8
BLACK
6
CONTINUOUS
10
-0.548077
20
0.030651
11
-0.553828
21
0.0330332
0
LINE
8
BLACK
6
CONTINUOUS
10
-0.553828
20
0.0330332
11
-0.554017
21
0.0330581
0
LINE
8
BLACK
6
CONTINUOUS
10
-0.554017
20
0.0330581
11
-0.554017
21
0.0330581
0
LINE
8
BLACK
6
CONTINUOUS
10
-0.554017
20
0.0330581
11
-0.559811
21
0.0338208
0
LINE
8
BLACK
6
CONTINUOUS
10
-0.559811
20
0.0338208
11
-0.56
21
0.0338457
0
LINE
8
BLACK
6
CONTINUOUS
10
-0.56
20
0.0338457
11
-0.560189
21
0.0338208
0
LINE
8
BLACK
6
CONTINUOUS
10
-0.560189
20
0.0338208
11
-0.565983
21
0.0330581
0
LINE
8
BLACK
6
CONTINUOUS
10
-0.565983
20
0.0330581
11
-0.565983
21
0.0330581
0
LINE
8
BLACK
6
CONTINUOUS
10
-0.565983
20
0.0330581
11
-0.566172
21
0.0330332
0
LINE
8
BLACK
6
CONTINUOUS
10
-0.566172
20
0.0330332
11
-0.571923
21
0.030651
0
LINE
8
BLACK
6
CONTINUOUS
10
-0.571923
20
0.030651
11
-0.572074
21
0.0305349
0
LINE
8
BLACK
6
CONTINUOUS
10
-0.572074
20
0.0305349
11
-0.572074
21
0.0305348
0
LINE
8
BLACK
6
CONTINUOUS
10
-0.572074
20
0.0305348
11
-0.575363
21
0.028011
0
LINE
8
BLACK
6
CONTINUOUS
10
-0.575363
20
0.028011
11
-0.576861
21
0.0268615
0
LINE
8
BLACK
6
CONTINUOUS
10
-0.576861
20
0.0268615
11
-0.576978
21
0.0267099
0
LINE
8
BLACK
6
CONTINUOUS
10
-0.576978
20
0.0267099
11
-0.580535
21
0.0220744
0
LINE
8
BLACK
6
CONTINUOUS
10
-0.580535
20
0.0220744
11
-0.580535
21
0.0220742
0
LINE
8
BLACK
6
CONTINUOUS
10
-0.580535
20
0.0220742
11
-0.580651
21
0.0219229
0
LINE
8
BLACK
6
CONTINUOUS
10
-0.580651
20
0.0219229
11
-0.583033
21
0.0161717
0
LINE
8
BLACK
6
CONTINUOUS
10
-0.583033
20
0.0161717
11
-0.583058
21
0.0159827
0
LINE
8
BLACK
6
CONTINUOUS
10
-0.583058
20
0.0159827
11
-0.583058
21
0.0159826
0
LINE
8
BLACK
6
CONTINUOUS
10
-0.583058
20
0.0159826
11
-0.583658
21
0.0114246
0
LINE
8
BLACK
6
CONTINUOUS
10
-0.583658
20
0.0114246
11
-0.583846
21
0.01
0
LINE
8
BLACK
6
CONTINUOUS
10
-0.583846
20
0.01
11
-0.583821
21
0.00981071
0
LINE
8
BLACK
6
CONTINUOUS
10
-0.583821
20
0.00981071
11
-0.583221
21
0.00525307
0
LINE
8
BLACK
6
CONTINUOUS
10
-0.583221
20
0.00525307
11
-0.583033
21
0.00382827
0
LINE
8
BLACK
6
CONTINUOUS
10
-0.583033
20
0.00382827
11
-0.580651
21
-0.00192287
0
LINE
8
BLACK
6
CONTINUOUS
10
-0.580651
20
-0.00192287
11
-0.580535
21
-0.00207421
0
LINE
8
BLACK
6
CONTINUOUS
10
-0.580535
20
-0.00207421
11
-0.580535
21
-0.00207437
0
LINE
8
BLACK
6
CONTINUOUS
10
-0.580535
20
-0.00207437
11
-0.576978
21
-0.00670988
0
LINE
8
BLACK
6
CONTINUOUS
10
-0.576978
20
-0.00670988
11
-0.576861
21
-0.0068615
0
LINE
8
BLACK
6
CONTINUOUS
10
-0.576861
20
-0.0068615
11
-0.57671
21
-0.00697783
0
LINE
8
BLACK
6
CONTINUOUS
10
-0.57671
20
-0.00697783
11
-0.572074
21
-0.0105348
0
LINE
8
BLACK
6
CONTINUOUS
10
-0.572074
20
-0.0105348
11
-0.572074
21
-0.0105349
0
LINE
8
BLACK
6
CONTINUOUS
10
-0.572074
20
-0.0105349
11
-0.571923
21
-0.010651
0
LINE
8
BLACK
6
CONTINUOUS
10
-0.571923
20
-0.010651
11
-0.566172
21
-0.0130332
0
LINE
8
BLACK
6
CONTINUOUS
10
-0.566172
20
-0.0130332
11
-0.565983
21
-0.0130581
0
LINE
8
BLACK
6
CONTINUOUS
10
-0.565983
20
-0.0130581
11
-0.565983
21
-0.0130581
0
LINE
8
BLACK
6
CONTINUOUS
10
-0.565983
20
-0.0130581
11
-0.563897
21
-0.0133328
0
LINE
8
BLACK
6
CONTINUOUS
10
-0.563897
20
-0.0133328
11
-0.562405
21
-0.0135291
0
LINE
8
BLACK
6
CONTINUOUS
10
-0.562405
20
-0.0135291
11
-0.560725
21
-0.0143575
0
LINE
8
BLACK
6
CONTINUOUS
10
-0.560725
20
-0.0143575
11
-0.555144
21
-0.0199386
0
LINE
8
BLACK
6
CONTINUOUS
10
-0.555144
20
-0.0199386
11
-0.554302
21
-0.0217447
0
LINE
8
BLACK
6
CONTINUOUS
10
-0.554302
20
-0.0217447
11
-0.554291
21
-0.0219987
0
LINE
8
BLACK
6
CONTINUOUS
10
-0.554291
20
-0.0219987
11
-0.554291
21
-0.209729
0
LINE
8
BLACK
6
CONTINUOUS
10
-0.554291
20
-0.209729
11
-0.554973
21
-0.211602
0
LINE
8
BLACK
6
CONTINUOUS
10
-0.554973
20
-0.211602
11
-0.555431
21
-0.212041
0
LINE
8
BLACK
6
CONTINUOUS
10
-0.555431
20
-0.212041
11
-0.556861
21
-0.213139
0
LINE
8
BLACK
6
CONTINUOUS
10
-0.556861
20
-0.213139
11
-0.556978
21
-0.21329
0
LINE
8
BLACK
6
CONTINUOUS
10
-0.556978
20
-0.21329
11
-0.560535
21
-0.217926
0
LINE
8
BLACK
6
CONTINUOUS
10
-0.560535
20
-0.217926
11
-0.560535
21
-0.217926
0
LINE
8
BLACK
6
CONTINUOUS
10
-0.560535
20
-0.217926
11
-0.560651
21
-0.218077
0
LINE
8
BLACK
6
CONTINUOUS
10
-0.560651
20
-0.218077
11
-0.563033
21
-0.223828
0
LINE
8
BLACK
6
CONTINUOUS
10
-0.563033
20
-0.223828
11
-0.563058
21
-0.224017
0
LINE
8
BLACK
6
CONTINUOUS
10
-0.563058
20
-0.224017
11
-0.563058
21
-0.224017
0
LINE
8
BLACK
6
CONTINUOUS
10
-0.563058
20
-0.224017
11
-0.563789
21
-0.229567
0
LINE
8
BLACK
6
CONTINUOUS
10
-0.563789
20
-0.229567
11
-0.563846
21
-0.23
0
LINE
8
BLACK
6
CONTINUOUS
10
-0.563846
20
-0.23
11
-0.563821
21
-0.230189
0
LINE
8
BLACK
6
CONTINUOUS
10
-0.563821
20
-0.230189
11
-0.563236
21
-0.234631
0
LINE
8
BLACK
6
CONTINUOUS
10
-0.563236
20
-0.234631
11
-0.563033
21
-0.236172
0
LINE
8
BLACK
6
CONTINUOUS
10
-0.563033
20
-0.236172
11
-0.560651
21
-0.241923
0
LINE
8
BLACK
6
CONTINUOUS
10
-0.560651
20
-0.241923
11
-0.560535
21
-0.242074
0
LINE
8
BLACK
6
CONTINUOUS
10
-0.560535
20
-0.242074
11
-0.560535
21
-0.242074
0
LINE
8
BLACK
6
CONTINUOUS
10
-0.560535
20
-0.242074
11
-0.557269
21
-0.24633
0
LINE
8
BLACK
6
CONTINUOUS
10
-0.557269
20
-0.24633
11
-0.556861
21
-0.246861
0
LINE
8
BLACK
6
CONTINUOUS
10
-0.556861
20
-0.246861
11
-0.55671
21
-0.246978
0
LINE
8
BLACK
6
CONTINUOUS
10
-0.55671
20
-0.246978
11
-0.552074
21
-0.250535
0
LINE
8
BLACK
6
CONTINUOUS
10
-0.552074
20
-0.250535
11
-0.552074
21
-0.250535
0
LINE
8
BLACK
6
CONTINUOUS
10
-0.552074
20
-0.250535
11
-0.551923
21
-0.250651
0
LINE
8
BLACK
6
CONTINUOUS
10
-0.551923
20
-0.250651
11
-0.546172
21
-0.253033
0
LINE
8
BLACK
6
CONTINUOUS
10
-0.546172
20
-0.253033
11
-0.545983
21
-0.253058
0
LINE
8
BLACK
6
CONTINUOUS
10
-0.545983
20
-0.253058
11
-0.545983
21
-0.253058
0
LINE
8
BLACK
6
CONTINUOUS
10
-0.545983
20
-0.253058
11
-0.540189
21
-0.253821
0
LINE
8
BLACK
6
CONTINUOUS
10
-0.540189
20
-0.253821
11
-0.54
21
-0.253846
0
LINE
8
BLACK
6
CONTINUOUS
10
-0.54
20
-0.253846
11
-0.539811
21
-0.253821
0
LINE
8
BLACK
6
CONTINUOUS
10
-0.539811
20
-0.253821
11
-0.534017
21
-0.253058
0
LINE
8
BLACK
6
CONTINUOUS
10
-0.534017
20
-0.253058
11
-0.534017
21
-0.253058
0
LINE
8
BLACK
6
CONTINUOUS
10
-0.534017
20
-0.253058
11
-0.533828
21
-0.253033
0
LINE
8
BLACK
6
CONTINUOUS
10
-0.533828
20
-0.253033
11
-0.528077
21
-0.250651
0
LINE
8
BLACK
6
CONTINUOUS
10
-0.528077
20
-0.250651
11
-0.527926
21
-0.250535
0
LINE
8
BLACK
6
CONTINUOUS
10
-0.527926
20
-0.250535
11
-0.527926
21
-0.250535
0
LINE
8
BLACK
6
CONTINUOUS
10
-0.527926
20
-0.250535
11
-0.52329
21
-0.246978
0
LINE
8
BLACK
6
CONTINUOUS
10
-0.52329
20
-0.246978
11
-0.523139
21
-0.246861
0
LINE
8
BLACK
6
CONTINUOUS
10
-0.523139
20
-0.246861
11
-0.522731
21
-0.24633
0
LINE
8
BLACK
6
CONTINUOUS
10
-0.522731
20
-0.24633
11
-0.519465
21
-0.242074
0
LINE
8
BLACK
6
CONTINUOUS
10
-0.519465
20
-0.242074
11
-0.519465
21
-0.242074
0
LINE
8
BLACK
6
CONTINUOUS
10
-0.519465
20
-0.242074
11
-0.519349
21
-0.241923
0
LINE
8
BLACK
6
CONTINUOUS
10
-0.519349
20
-0.241923
11
-0.516967
21
-0.236172
0
LINE
8
BLACK
6
CONTINUOUS
10
-0.516967
20
-0.236172
11
-0.516764
21
-0.234631
0
LINE
8
BLACK
6
CONTINUOUS
10
-0.516764
20
-0.234631
11
-0.516179
21
-0.230189
0
LINE
8
BLACK
6
CONTINUOUS
10
-0.516179
20
-0.230189
11
-0.516154
21
-0.23
0
LINE
8
BLACK
6
CONTINUOUS
10
-0.516154
20
-0.23
11
-0.516211
21
-0.229567
0
LINE
8
BLACK
6
CONTINUOUS
10
-0.516211
20
-0.229567
11
-0.516942
21
-0.224017
0
LINE
8
BLACK
6
CONTINUOUS
10
-0.516942
20
-0.224017
11
-0.516942
21
-0.224017
0
LINE
8
BLACK
6
CONTINUOUS
10
-0.516942
20
-0.224017
11
-0.516967
21
-0.223828
0
LINE
8
BLACK
6
CONTINUOUS
10
-0.516967
20
-0.223828
11
-0.517426
21
-0.22272
0
LINE
8
BLACK
6
CONTINUOUS
10
-0.517426
20
-0.22272
11
-0.518597
21
-0.219893
0
LINE
8
BLACK
6
CONTINUOUS
10
-0.518597
20
-0.219893
11
-0.518818
21
-0.218778
0
LINE
8
BLACK
6
CONTINUOUS
10
-0.518818
20
-0.218778
11
-0.518818
21
-0.0146717
0
LINE
8
BLACK
6
CONTINUOUS
10
-0.518818
20
-0.0146717
11
-0.518798
21
-0.0143293
0
LINE
8
BLACK
6
CONTINUOUS
10
-0.518798
20
-0.0143293
11
-0.51868
21
-0.0133328
0
LINE
8
BLACK
6
CONTINUOUS
10
-0.51868
20
-0.0133328
11
-0.518627
21
-0.0128819
0
LINE
8
BLACK
6
CONTINUOUS
10
-0.518627
20
-0.0128819
11
-0.518666
21
-0.0126678
0
LINE
8
BLACK
6
CONTINUOUS
10
-0.518666
20
-0.0126678
11
-0.519048
21
-0.0105788
0
LINE
8
BLACK
6
CONTINUOUS
10
-0.519048
20
-0.0105788
11
-0.519063
21
-0.0104886
0
LINE
8
BLACK
6
CONTINUOUS
10
-0.519063
20
-0.0104886
11
-0.519379
21
-0.00838661
0
LINE
8
BLACK
6
CONTINUOUS
10
-0.519379
20
-0.00838661
11
-0.519379
21
-0.0083865
0
LINE
8
BLACK
6
CONTINUOUS
10
-0.519379
20
-0.0083865
11
-0.519411
21
-0.00817122
0
LINE
8
BLACK
6
CONTINUOUS
10
-0.519411
20
-0.00817122
11
-0.519502
21
-0.00798071
0
LINE
8
BLACK
6
CONTINUOUS
10
-0.519502
20
-0.00798071
11
-0.519506
21
-0.00796665
0
LINE
8
BLACK
6
CONTINUOUS
10
-0.519506
20
-0.00796665
11
-0.51951
21
-0.00795555
0
LINE
8
BLACK
6
CONTINUOUS
10
-0.51951
20
-0.00795555
11
-0.519538
21
-0.00786854
0
LINE
8
BLACK
6
CONTINUOUS
10
-0.519538
20
-0.00786854
11
-0.519542
21
-0.00785701
0
LINE
8
BLACK
6
CONTINUOUS
10
-0.519542
20
-0.00785701
11
-0.519547
21
-0.00784319
0
LINE
8
BLACK
6
CONTINUOUS
10
-0.519547
20
-0.00784319
11
-0.519585
21
-0.00763535
0
LINE
8
BLACK
6
CONTINUOUS
10
-0.519585
20
-0.00763535
11
-0.520666
21
-0.00555484
0
LINE
8
BLACK
6
CONTINUOUS
10
-0.520666
20
-0.00555484
11
-0.520704
21
-0.0054776
0
LINE
8
BLACK
6
CONTINUOUS
10
-0.520704
20
-0.0054776
11
-0.52172
21
-0.00336346
0
LINE
8
BLACK
6
CONTINUOUS
10
-0.52172
20
-0.00336346
11
-0.521863
21
-0.00320831
0
LINE
8
BLACK
6
CONTINUOUS
10
-0.521863
20
-0.00320831
11
-0.521884
21
-0.00317276
0
LINE
8
BLACK
6
CONTINUOUS
10
-0.521884
20
-0.00317276
11
-0.521967
21
-0.00305016
0
LINE
8
BLACK
6
CONTINUOUS
10
-0.521967
20
-0.00305016
11
-0.522044
21
-0.00290248
0
LINE
8
BLACK
6
CONTINUOUS
10
-0.522044
20
-0.00290248
11
-0.522151
21
-0.00277622
0
LINE
8
BLACK
6
CONTINUOUS
10
-0.522151
20
-0.00277622
11
-0.522152
21
-0.00277606
0
LINE
8
BLACK
6
CONTINUOUS
10
-0.522152
20
-0.00277606
11
-0.522176
21
-0.00274717
0
LINE
8
BLACK
6
CONTINUOUS
10
-0.522176
20
-0.00274717
11
-0.522213
21
-0.00270406
0
LINE
8
BLACK
6
CONTINUOUS
10
-0.522213
20
-0.00270406
11
-0.523708
21
-0.00120917
0
LINE
8
BLACK
6
CONTINUOUS
10
-0.523708
20
-0.00120917
11
-0.523787
21
-0.00112669
0
LINE
8
BLACK
6
CONTINUOUS
10
-0.523787
20
-0.00112669
11
-0.525192
21
0.00039311
0
LINE
8
BLACK
6
CONTINUOUS
10
-0.525192
20
0.00039311
11
-0.52534
21
0.000552953
0
LINE
8
BLACK
6
CONTINUOUS
10
-0.52534
20
0.000552953
11
-0.525528
21
0.000662323
0
LINE
8
BLACK
6
CONTINUOUS
10
-0.525528
20
0.000662323
11
-0.525661
21
0.000768504
0
LINE
8
BLACK
6
CONTINUOUS
10
-0.525661
20
0.000768504
11
-0.525899
21
0.000982126
0
LINE
8
BLACK
6
CONTINUOUS
10
-0.525899
20
0.000982126
11
-0.535643
21
0.0107253
0
LINE
8
BLACK
6
CONTINUOUS
10
-0.535643
20
0.0107253
11
-0.536471
21
0.0124051
0
LINE
8
BLACK
6
CONTINUOUS
10
-0.272253
20
-0.0217006
11
-0.272264
21
-0.0214467
0
LINE
8
BLACK
6
CONTINUOUS
10
-0.272264
20
-0.0214467
11
-0.272264
21
-0.0166967
0
LINE
8
BLACK
6
CONTINUOUS
10
-0.272264
20
-0.0166967
11
-0.271582
21
-0.014824
0
LINE
8
BLACK
6
CONTINUOUS
10
-0.271582
20
-0.014824
11
-0.271211
21
-0.0144551
0
LINE
8
BLACK
6
CONTINUOUS
10
-0.271211
20
-0.0144551
11
-0.27106
21
-0.0143293
0
LINE
8
BLACK
6
CONTINUOUS
10
-0.27106
20
-0.0143293
11
-0.270149
21
-0.0135727
0
LINE
8
BLACK
6
CONTINUOUS
10
-0.270149
20
-0.0135727
11
-0.269683
21
-0.0130581
0
LINE
8
BLACK
6
CONTINUOUS
10
-0.269683
20
-0.0130581
11
-0.266434
21
-0.00946902
0
LINE
8
BLACK
6
CONTINUOUS
10
-0.266434
20
-0.00946902
11
-0.266434
21
-0.00946898
0
LINE
8
BLACK
6
CONTINUOUS
10
-0.266434
20
-0.00946898
11
-0.266364
21
-0.00939224
0
LINE
8
BLACK
6
CONTINUOUS
10
-0.266364
20
-0.00939224
11
-0.265088
21
-0.00750035
0
LINE
8
BLACK
6
CONTINUOUS
10
-0.265088
20
-0.00750035
11
-0.26263
21
-0.00242587
0
LINE
8
BLACK
6
CONTINUOUS
10
-0.26263
20
-0.00242587
11
-0.261936
21
-0.000251969
0
LINE
8
BLACK
6
CONTINUOUS
10
-0.261936
20
-0.000251969
11
-0.261001
21
0.00530858
0
LINE
8
BLACK
6
CONTINUOUS
10
-0.261001
20
0.00530858
11
-0.26089
21
0.00654539
0
LINE
8
BLACK
6
CONTINUOUS
10
-0.26089
20
0.00654539
11
-0.260884
21
0.0070313
0
LINE
8
BLACK
6
CONTINUOUS
10
-0.260884
20
0.0070313
11
-0.260964
21
0.00827075
0
LINE
8
BLACK
6
CONTINUOUS
10
-0.260964
20
0.00827075
11
-0.261056
21
0.0089113
0
LINE
8
BLACK
6
CONTINUOUS
10
-0.261056
20
0.0089113
11
-0.261086
21
0.00932429
0
LINE
8
BLACK
6
CONTINUOUS
10
-0.261086
20
0.00932429
11
-0.261086
21
0.0242454
0
LINE
8
BLACK
6
CONTINUOUS
10
-0.261086
20
0.0242454
11
-0.261045
21
0.0247283
0
LINE
8
BLACK
6
CONTINUOUS
10
-0.261045
20
0.0247283
11
-0.261001
21
0.0249936
0
LINE
8
BLACK
6
CONTINUOUS
10
-0.261001
20
0.0249936
11
-0.26089
21
0.0262304
0
LINE
8
BLACK
6
CONTINUOUS
10
-0.26089
20
0.0262304
11
-0.260884
21
0.0267163
0
LINE
8
BLACK
6
CONTINUOUS
10
-0.260884
20
0.0267163
11
-0.260901
21
0.0269778
0
LINE
8
BLACK
6
CONTINUOUS
10
-0.260901
20
0.0269778
11
-0.260961
21
0.0279001
0
LINE
8
BLACK
6
CONTINUOUS
10
-0.260961
20
0.0279001
11
-0.260964
21
0.0279558
0
LINE
8
BLACK
6
CONTINUOUS
10
-0.260964
20
0.0279558
11
-0.261542
21
0.0319876
0
LINE
8
BLACK
6
CONTINUOUS
10
-0.261542
20
0.0319876
11
-0.261749
21
0.0334351
0
LINE
8
BLACK
6
CONTINUOUS
10
-0.261749
20
0.0334351
11
-0.261749
21
0.0334353
0
LINE
8
BLACK
6
CONTINUOUS
10
-0.261749
20
0.0334353
11
-0.261764
21
0.0335376
0
LINE
8
BLACK
6
CONTINUOUS
10
-0.261764
20
0.0335376
11
-0.262404
21
0.0357278
0
LINE
8
BLACK
6
CONTINUOUS
10
-0.262404
20
0.0357278
11
-0.264738
21
0.0408608
0
LINE
8
BLACK
6
CONTINUOUS
10
-0.264738
20
0.0408608
11
-0.265967
21
0.0427832
0
LINE
8
BLACK
6
CONTINUOUS
10
-0.265967
20
0.0427832
11
-0.267494
21
0.0445549
0
LINE
8
BLACK
6
CONTINUOUS
10
-0.267494
20
0.0445549
11
-0.269581
21
0.0469765
0
LINE
8
BLACK
6
CONTINUOUS
10
-0.269581
20
0.0469765
11
-0.269581
21
0.0469767
0
LINE
8
BLACK
6
CONTINUOUS
10
-0.269581
20
0.0469767
11
-0.269648
21
0.0470549
0
LINE
8
BLACK
6
CONTINUOUS
10
-0.269648
20
0.0470549
11
-0.271266
21
0.0484659
0
LINE
8
BLACK
6
CONTINUOUS
10
-0.271266
20
0.0484659
11
-0.272229
21
0.0502106
0
LINE
8
BLACK
6
CONTINUOUS
10
-0.272229
20
0.0502106
11
-0.272264
21
0.0506613
0
LINE
8
BLACK
6
CONTINUOUS
10
-0.272264
20
0.0506613
11
-0.272264
21
0.0832895
0
LINE
8
BLACK
6
CONTINUOUS
10
-0.272264
20
0.0832895
11
-0.271662
21
0.0850631
0
LINE
8
BLACK
6
CONTINUOUS
10
-0.271662
20
0.0850631
11
-0.269465
21
0.0879256
0
LINE
8
BLACK
6
CONTINUOUS
10
-0.269465
20
0.0879256
11
-0.269465
21
0.0879257
0
LINE
8
BLACK
6
CONTINUOUS
10
-0.269465
20
0.0879257
11
-0.269349
21
0.0880771
0
LINE
8
BLACK
6
CONTINUOUS
10
-0.269349
20
0.0880771
11
-0.268653
21
0.0897572
0
LINE
8
BLACK
6
CONTINUOUS
10
-0.268653
20
0.0897572
11
-0.266967
21
0.0938283
0
LINE
8
BLACK
6
CONTINUOUS
10
-0.266967
20
0.0938283
11
-0.266731
21
0.0956209
0
LINE
8
BLACK
6
CONTINUOUS
10
-0.266731
20
0.0956209
11
-0.266179
21
0.0998107
0
LINE
8
BLACK
6
CONTINUOUS
10
-0.266179
20
0.0998107
11
-0.266154
21
0.1
0
LINE
8
BLACK
6
CONTINUOUS
10
-0.266154
20
0.1
11
-0.266211
21
0.100433
0
LINE
8
BLACK
6
CONTINUOUS
10
-0.266211
20
0.100433
11
-0.266942
21
0.105983
0
LINE
8
BLACK
6
CONTINUOUS
10
-0.266942
20
0.105983
11
-0.266942
21
0.105983
0
LINE
8
BLACK
6
CONTINUOUS
10
-0.266942
20
0.105983
11
-0.266967
21
0.106172
0
LINE
8
BLACK
6
CONTINUOUS
10
-0.266967
20
0.106172
11
-0.268702
21
0.110362
0
LINE
8
BLACK
6
CONTINUOUS
10
-0.268702
20
0.110362
11
-0.269349
21
0.111923
0
LINE
8
BLACK
6
CONTINUOUS
10
-0.269349
20
0.111923
11
-0.269465
21
0.112074
0
LINE
8
BLACK
6
CONTINUOUS
10
-0.269465
20
0.112074
11
-0.269465
21
0.112074
0
LINE
8
BLACK
6
CONTINUOUS
10
-0.269465
20
0.112074
11
-0.273022
21
0.11671
0
LINE
8
BLACK
6
CONTINUOUS
10
-0.273022
20
0.11671
11
-0.273139
21
0.116861
0
LINE
8
BLACK
6
CONTINUOUS
10
-0.273139
20
0.116861
11
-0.274903
21
0.118216
0
LINE
8
BLACK
6
CONTINUOUS
10
-0.274903
20
0.118216
11
-0.277926
21
0.120535
0
LINE
8
BLACK
6
CONTINUOUS
10
-0.277926
20
0.120535
11
-0.277926
21
0.120535
0
LINE
8
BLACK
6
CONTINUOUS
10
-0.277926
20
0.120535
11
-0.278077
21
0.120651
0
LINE
8
BLACK
6
CONTINUOUS
10
-0.278077
20
0.120651
11
-0.283828
21
0.123033
0
LINE
8
BLACK
6
CONTINUOUS
10
-0.283828
20
0.123033
11
-0.284017
21
0.123058
0
LINE
8
BLACK
6
CONTINUOUS
10
-0.284017
20
0.123058
11
-0.284017
21
0.123058
0
LINE
8
BLACK
6
CONTINUOUS
10
-0.284017
20
0.123058
11
-0.289811
21
0.123821
0
LINE
8
BLACK
6
CONTINUOUS
10
-0.289811
20
0.123821
11
-0.29
21
0.123846
0
LINE
8
BLACK
6
CONTINUOUS
10
-0.29
20
0.123846
11
-0.290189
21
0.123821
0
LINE
8
BLACK
6
CONTINUOUS
10
-0.290189
20
0.123821
11
-0.295983
21
0.123058
0
LINE
8
BLACK
6
CONTINUOUS
10
-0.295983
20
0.123058
11
-0.295983
21
0.123058
0
LINE
8
BLACK
6
CONTINUOUS
10
-0.295983
20
0.123058
11
-0.296172
21
0.123033
0
LINE
8
BLACK
6
CONTINUOUS
10
-0.296172
20
0.123033
11
-0.301923
21
0.120651
0
LINE
8
BLACK
6
CONTINUOUS
10
-0.301923
20
0.120651
11
-0.302074
21
0.120535
0
LINE
8
BLACK
6
CONTINUOUS
10
-0.302074
20
0.120535
11
-0.302074
21
0.120535
0
LINE
8
BLACK
6
CONTINUOUS
10
-0.302074
20
0.120535
11
-0.305097
21
0.118216
0
LINE
8
BLACK
6
CONTINUOUS
10
-0.305097
20
0.118216
11
-0.306861
21
0.116861
0
LINE
8
BLACK
6
CONTINUOUS
10
-0.306861
20
0.116861
11
-0.306978
21
0.11671
0
LINE
8
BLACK
6
CONTINUOUS
10
-0.306978
20
0.11671
11
-0.310535
21
0.112074
0
LINE
8
BLACK
6
CONTINUOUS
10
-0.310535
20
0.112074
11
-0.310535
21
0.112074
0
LINE
8
BLACK
6
CONTINUOUS
10
-0.310535
20
0.112074
11
-0.310651
21
0.111923
0
LINE
8
BLACK
6
CONTINUOUS
10
-0.310651
20
0.111923
11
-0.313033
21
0.106172
0
LINE
8
BLACK
6
CONTINUOUS
10
-0.313033
20
0.106172
11
-0.313058
21
0.105983
0
LINE
8
BLACK
6
CONTINUOUS
10
-0.313058
20
0.105983
11
-0.313058
21
0.105983
0
LINE
8
BLACK
6
CONTINUOUS
10
-0.313058
20
0.105983
11
-0.313789
21
0.100433
0
LINE
8
BLACK
6
CONTINUOUS
10
-0.313789
20
0.100433
11
-0.313846
21
0.1
0
LINE
8
BLACK
6
CONTINUOUS
10
-0.313846
20
0.1
11
-0.313821
21
0.0998107
0
LINE
8
BLACK
6
CONTINUOUS
10
-0.313821
20
0.0998107
11
-0.313269
21
0.0956209
0
LINE
8
BLACK
6
CONTINUOUS
10
-0.313269
20
0.0956209
11
-0.313033
21
0.0938283
0
LINE
8
BLACK
6
CONTINUOUS
10
-0.313033
20
0.0938283
11
-0.310651
21
0.0880771
0
LINE
8
BLACK
6
CONTINUOUS
10
-0.310651
20
0.0880771
11
-0.310535
21
0.0879257
0
LINE
8
BLACK
6
CONTINUOUS
10
-0.310535
20
0.0879257
11
-0.310535
21
0.0879256
0
LINE
8
BLACK
6
CONTINUOUS
10
-0.310535
20
0.0879256
11
-0.308338
21
0.0850631
0
LINE
8
BLACK
6
CONTINUOUS
10
-0.308338
20
0.0850631
11
-0.307736
21
0.0832895
0
LINE
8
BLACK
6
CONTINUOUS
10
-0.307736
20
0.0832895
11
-0.307736
21
0.0574441
0
LINE
8
BLACK
6
CONTINUOUS
10
-0.307736
20
0.0574441
11
-0.308418
21
0.0555715
0
LINE
8
BLACK
6
CONTINUOUS
10
-0.308418
20
0.0555715
11
-0.310144
21
0.054575
0
LINE
8
BLACK
6
CONTINUOUS
10
-0.310144
20
0.054575
11
-0.310339
21
0.0545482
0
LINE
8
BLACK
6
CONTINUOUS
10
-0.310339
20
0.0545482
11
-0.310472
21
0.0545482
0
LINE
8
BLACK
6
CONTINUOUS
10
-0.310472
20
0.0545482
11
-0.310613
21
0.0545203
0
LINE
8
BLACK
6
CONTINUOUS
10
-0.310613
20
0.0545203
11
-0.310613
21
0.0545203
0
LINE
8
BLACK
6
CONTINUOUS
10
-0.310613
20
0.0545203
11
-0.311223
21
0.0543989
0
LINE
8
BLACK
6
CONTINUOUS
10
-0.311223
20
0.0543989
11
-0.313552
21
0.0539356
0
LINE
8
BLACK
6
CONTINUOUS
10
-0.313552
20
0.0539356
11
-0.313791
21
0.0537761
0
LINE
8
BLACK
6
CONTINUOUS
10
-0.313791
20
0.0537761
11
-0.314056
21
0.0536663
0
LINE
8
BLACK
6
CONTINUOUS
10
-0.314056
20
0.0536663
11
-0.314076
21
0.0537132
0
LINE
8
BLACK
6
CONTINUOUS
10
-0.314076
20
0.0537132
11
-0.315711
21
0.0533131
0
LINE
8
BLACK
6
CONTINUOUS
10
-0.315711
20
0.0533131
11
-0.316725
21
0.0536821
0
LINE
8
BLACK
6
CONTINUOUS
10
-0.316725
20
0.0536821
11
-0.316731
21
0.0536663
0
LINE
8
BLACK
6
CONTINUOUS
10
-0.316731
20
0.0536663
11
-0.316996
21
0.0537761
0
LINE
8
BLACK
6
CONTINUOUS
10
-0.316996
20
0.0537761
11
-0.317235
21
0.0539356
0
LINE
8
BLACK
6
CONTINUOUS
10
-0.317235
20
0.0539356
11
-0.318988
21
0.0542843
0
LINE
8
BLACK
6
CONTINUOUS
10
-0.318988
20
0.0542843
11
-0.319397
21
0.0543656
0
LINE
8
BLACK
6
CONTINUOUS
10
-0.319397
20
0.0543656
11
-0.319397
21
0.0543656
0
LINE
8
BLACK
6
CONTINUOUS
10
-0.319397
20
0.0543656
11
-0.319537
21
0.0543935
0
LINE
8
BLACK
6
CONTINUOUS
10
-0.319537
20
0.0543935
11
-0.360463
21
0.0543935
0
LINE
8
BLACK
6
CONTINUOUS
10
-0.360463
20
0.0543935
11
-0.360603
21
0.0543656
0
LINE
8
BLACK
6
CONTINUOUS
10
-0.360603
20
0.0543656
11
-0.360603
21
0.0543656
0
LINE
8
BLACK
6
CONTINUOUS
10
-0.360603
20
0.0543656
11
-0.361012
21
0.0542843
0
LINE
8
BLACK
6
CONTINUOUS
10
-0.361012
20
0.0542843
11
-0.362765
21
0.0539356
0
LINE
8
BLACK
6
CONTINUOUS
10
-0.362765
20
0.0539356
11
-0.363004
21
0.0537761
0
LINE
8
BLACK
6
CONTINUOUS
10
-0.363004
20
0.0537761
11
-0.363004
21
0.0537761
0
LINE
8
BLACK
6
CONTINUOUS
10
-0.363004
20
0.0537761
11
-0.364606
21
0.0527052
0
LINE
8
BLACK
6
CONTINUOUS
10
-0.364606
20
0.0527052
11
-0.365376
21
0.0521909
0
LINE
8
BLACK
6
CONTINUOUS
10
-0.365376
20
0.0521909
11
-0.365536
21
0.0519522
0
LINE
8
BLACK
6
CONTINUOUS
10
-0.365536
20
0.0519522
11
-0.366771
21
0.0501035
0
LINE
8
BLACK
6
CONTINUOUS
10
-0.366771
20
0.0501035
11
-0.367121
21
0.0495798
0
LINE
8
BLACK
6
CONTINUOUS
10
-0.367121
20
0.0495798
11
-0.367579
21
0.0472773
0
LINE
8
BLACK
6
CONTINUOUS
10
-0.367579
20
0.0472773
11
-0.367579
21
0.0395904
0
LINE
8
BLACK
6
CONTINUOUS
10
-0.367579
20
0.0395904
11
-0.36826
21
0.0377177
0
LINE
8
BLACK
6
CONTINUOUS
10
-0.36826
20
0.0377177
11
-0.369528
21
0.0369861
0
LINE
8
BLACK
6
CONTINUOUS
10
-0.369528
20
0.0369861
11
-0.369528
21
0.0287833
0
LINE
8
BLACK
6
CONTINUOUS
10
-0.369528
20
0.0287833
11
-0.359685
21
0.0287833
0
LINE
8
BLACK
6
CONTINUOUS
10
-0.359685
20
0.0287833
11
-0.359685
21
0.0464998
0
LINE
8
BLACK
6
CONTINUOUS
10
-0.359685
20
0.0464998
11
-0.320315
21
0.0464998
0
LINE
8
BLACK
6
CONTINUOUS
10
-0.320315
20
0.0464998
11
-0.320315
21
-0.0125553
0
LINE
8
BLACK
6
CONTINUOUS
10
-0.320315
20
-0.0125553
11
-0.332126
21
-0.0125553
0
LINE
8
BLACK
6
CONTINUOUS
10
-0.332126
20
-0.0125553
11
-0.332126
21
-0.024701
0
LINE
8
BLACK
6
CONTINUOUS
10
-0.332126
20
-0.024701
11
-0.330744
21
-0.0254054
0
LINE
8
BLACK
6
CONTINUOUS
10
-0.330744
20
-0.0254054
11
-0.32726
21
-0.0288894
0
LINE
8
BLACK
6
CONTINUOUS
10
-0.32726
20
-0.0288894
11
-0.325023
21
-0.0332794
0
LINE
8
BLACK
6
CONTINUOUS
10
-0.325023
20
-0.0332794
11
-0.324252
21
-0.0381458
0
LINE
8
BLACK
6
CONTINUOUS
10
-0.324252
20
-0.0381458
11
-0.325023
21
-0.0430122
0
LINE
8
BLACK
6
CONTINUOUS
10
-0.325023
20
-0.0430122
11
-0.32726
21
-0.0474023
0
LINE
8
BLACK
6
CONTINUOUS
10
-0.32726
20
-0.0474023
11
-0.330744
21
-0.0508863
0
LINE
8
BLACK
6
CONTINUOUS
10
-0.330744
20
-0.0508863
11
-0.335134
21
-0.0531231
0
LINE
8
BLACK
6
CONTINUOUS
10
-0.335134
20
-0.0531231
11
-0.34
21
-0.0538939
0
LINE
8
BLACK
6
CONTINUOUS
10
-0.34
20
-0.0538939
11
-0.344866
21
-0.0531231
0
LINE
8
BLACK
6
CONTINUOUS
10
-0.344866
20
-0.0531231
11
-0.349256
21
-0.0508863
0
LINE
8
BLACK
6
CONTINUOUS
10
-0.349256
20
-0.0508863
11
-0.35274
21
-0.0474023
0
LINE
8
BLACK
6
CONTINUOUS
10
-0.35274
20
-0.0474023
11
-0.354977
21
-0.0430122
0
LINE
8
BLACK
6
CONTINUOUS
10
-0.354977
20
-0.0430122
11
-0.355748
21
-0.0381458
0
LINE
8
BLACK
6
CONTINUOUS
10
-0.355748
20
-0.0381458
11
-0.354977
21
-0.0332794
0
LINE
8
BLACK
6
CONTINUOUS
10
-0.354977
20
-0.0332794
11
-0.35274
21
-0.0288894
0
LINE
8
BLACK
6
CONTINUOUS
10
-0.35274
20
-0.0288894
11
-0.349256
21
-0.0254054
0
LINE
8
BLACK
6
CONTINUOUS
10
-0.349256
20
-0.0254054
11
-0.347874
21
-0.024701
0
LINE
8
BLACK
6
CONTINUOUS
10
-0.347874
20
-0.024701
11
-0.347874
21
-0.0125553
0
LINE
8
BLACK
6
CONTINUOUS
10
-0.347874
20
-0.0125553
11
-0.359685
21
-0.0125553
0
LINE
8
BLACK
6
CONTINUOUS
10
-0.359685
20
-0.0125553
11
-0.359685
21
0.00516126
0
LINE
8
BLACK
6
CONTINUOUS
10
-0.359685
20
0.00516126
11
-0.369528
21
0.00516126
0
LINE
8
BLACK
6
CONTINUOUS
10
-0.369528
20
0.00516126
11
-0.369528
21
-0.0030835
0
LINE
8
BLACK
6
CONTINUOUS
10
-0.369528
20
-0.0030835
11
-0.368619
21
-0.00341406
0
LINE
8
BLACK
6
CONTINUOUS
10
-0.368619
20
-0.00341406
11
-0.367623
21
-0.00513992
0
LINE
8
BLACK
6
CONTINUOUS
10
-0.367623
20
-0.00513992
11
-0.367579
21
-0.00564583
0
LINE
8
BLACK
6
CONTINUOUS
10
-0.367579
20
-0.00564583
11
-0.367579
21
-0.0133328
0
LINE
8
BLACK
6
CONTINUOUS
10
-0.367579
20
-0.0133328
11
-0.367121
21
-0.0156352
0
LINE
8
BLACK
6
CONTINUOUS
10
-0.367121
20
-0.0156352
11
-0.365376
21
-0.0182463
0
LINE
8
BLACK
6
CONTINUOUS
10
-0.365376
20
-0.0182463
11
-0.365137
21
-0.0184057
0
LINE
8
BLACK
6
CONTINUOUS
10
-0.365137
20
-0.0184057
11
-0.363098
21
-0.0197687
0
LINE
8
BLACK
6
CONTINUOUS
10
-0.363098
20
-0.0197687
11
-0.362765
21
-0.019991
0
LINE
8
BLACK
6
CONTINUOUS
10
-0.362765
20
-0.019991
11
-0.362484
21
-0.020047
0
LINE
8
BLACK
6
CONTINUOUS
10
-0.362484
20
-0.020047
11
-0.362483
21
-0.020047
0
LINE
8
BLACK
6
CONTINUOUS
10
-0.362483
20
-0.020047
11
-0.361377
21
-0.020267
0
LINE
8
BLACK
6
CONTINUOUS
10
-0.361377
20
-0.020267
11
-0.359674
21
-0.0213008
0
LINE
8
BLACK
6
CONTINUOUS
10
-0.359674
20
-0.0213008
11
-0.359033
21
-0.023188
0
LINE
8
BLACK
6
CONTINUOUS
10
-0.359033
20
-0.023188
11
-0.359634
21
-0.024898
0
LINE
8
BLACK
6
CONTINUOUS
10
-0.359634
20
-0.024898
11
-0.360535
21
-0.0260715
0
LINE
8
BLACK
6
CONTINUOUS
10
-0.360535
20
-0.0260715
11
-0.360535
21
-0.0260716
0
LINE
8
BLACK
6
CONTINUOUS
10
-0.360535
20
-0.0260716
11
-0.360651
21
-0.026223
0
LINE
8
BLACK
6
CONTINUOUS
10
-0.360651
20
-0.026223
11
-0.363033
21
-0.0319741
0
LINE
8
BLACK
6
CONTINUOUS
10
-0.363033
20
-0.0319741
11
-0.363058
21
-0.0321631
0
LINE
8
BLACK
6
CONTINUOUS
10
-0.363058
20
-0.0321631
11
-0.363058
21
-0.0321633
0
LINE
8
BLACK
6
CONTINUOUS
10
-0.363058
20
-0.0321633
11
-0.363509
21
-0.0355884
0
LINE
8
BLACK
6
CONTINUOUS
10
-0.363509
20
-0.0355884
11
-0.363846
21
-0.0381458
0
LINE
8
BLACK
6
CONTINUOUS
10
-0.363846
20
-0.0381458
11
-0.363821
21
-0.0383351
0
LINE
8
BLACK
6
CONTINUOUS
10
-0.363821
20
-0.0383351
11
-0.363096
21
-0.0438384
0
LINE
8
BLACK
6
CONTINUOUS
10
-0.363096
20
-0.0438384
11
-0.363033
21
-0.0443176
0
LINE
8
BLACK
6
CONTINUOUS
10
-0.363033
20
-0.0443176
11
-0.360651
21
-0.0500687
0
LINE
8
BLACK
6
CONTINUOUS
10
-0.360651
20
-0.0500687
11
-0.360535
21
-0.05022
0
LINE
8
BLACK
6
CONTINUOUS
10
-0.360535
20
-0.05022
11
-0.360535
21
-0.0502202
0
LINE
8
BLACK
6
CONTINUOUS
10
-0.360535
20
-0.0502202
11
-0.356978
21
-0.0548557
0
LINE
8
BLACK
6
CONTINUOUS
10
-0.356978
20
-0.0548557
11
-0.356861
21
-0.0550073
0
LINE
8
BLACK
6
CONTINUOUS
10
-0.356861
20
-0.0550073
11
-0.35671
21
-0.0551237
0
LINE
8
BLACK
6
CONTINUOUS
10
-0.35671
20
-0.0551237
11
-0.352074
21
-0.0586806
0
LINE
8
BLACK
6
CONTINUOUS
10
-0.352074
20
-0.0586806
11
-0.352074
21
-0.0586807
0
LINE
8
BLACK
6
CONTINUOUS
10
-0.352074
20
-0.0586807
11
-0.351923
21
-0.0587969
0
LINE
8
BLACK
6
CONTINUOUS
10
-0.351923
20
-0.0587969
11
-0.346172
21
-0.0611791
0
LINE
8
BLACK
6
CONTINUOUS
10
-0.346172
20
-0.0611791
11
-0.345983
21
-0.0612039
0
LINE
8
BLACK
6
CONTINUOUS
10
-0.345983
20
-0.0612039
11
-0.345983
21
-0.061204
0
LINE
8
BLACK
6
CONTINUOUS
10
-0.345983
20
-0.061204
11
-0.340189
21
-0.0619667
0
LINE
8
BLACK
6
CONTINUOUS
10
-0.340189
20
-0.0619667
11
-0.34
21
-0.0619916
0
LINE
8
BLACK
6
CONTINUOUS
10
-0.34
20
-0.0619916
11
-0.339811
21
-0.0619667
0
LINE
8
BLACK
6
CONTINUOUS
10
-0.339811
20
-0.0619667
11
-0.334017
21
-0.061204
0
LINE
8
BLACK
6
CONTINUOUS
10
-0.334017
20
-0.061204
11
-0.334017
21
-0.0612039
0
LINE
8
BLACK
6
CONTINUOUS
10
-0.334017
20
-0.0612039
11
-0.333828
21
-0.0611791
0
LINE
8
BLACK
6
CONTINUOUS
10
-0.333828
20
-0.0611791
11
-0.328077
21
-0.0587969
0
LINE
8
BLACK
6
CONTINUOUS
10
-0.328077
20
-0.0587969
11
-0.327926
21
-0.0586807
0
LINE
8
BLACK
6
CONTINUOUS
10
-0.327926
20
-0.0586807
11
-0.327926
21
-0.0586806
0
LINE
8
BLACK
6
CONTINUOUS
10
-0.327926
20
-0.0586806
11
-0.32329
21
-0.0551237
0
LINE
8
BLACK
6
CONTINUOUS
10
-0.32329
20
-0.0551237
11
-0.323139
21
-0.0550073
0
LINE
8
BLACK
6
CONTINUOUS
10
-0.323139
20
-0.0550073
11
-0.323022
21
-0.0548557
0
LINE
8
BLACK
6
CONTINUOUS
10
-0.323022
20
-0.0548557
11
-0.319465
21
-0.0502202
0
LINE
8
BLACK
6
CONTINUOUS
10
-0.319465
20
-0.0502202
11
-0.319465
21
-0.05022
0
LINE
8
BLACK
6
CONTINUOUS
10
-0.319465
20
-0.05022
11
-0.319349
21
-0.0500687
0
LINE
8
BLACK
6
CONTINUOUS
10
-0.319349
20
-0.0500687
11
-0.316967
21
-0.0443176
0
LINE
8
BLACK
6
CONTINUOUS
10
-0.316967
20
-0.0443176
11
-0.316904
21
-0.0438384
0
LINE
8
BLACK
6
CONTINUOUS
10
-0.316904
20
-0.0438384
11
-0.316179
21
-0.0383351
0
LINE
8
BLACK
6
CONTINUOUS
10
-0.316179
20
-0.0383351
11
-0.316154
21
-0.0381458
0
LINE
8
BLACK
6
CONTINUOUS
10
-0.316154
20
-0.0381458
11
-0.316491
21
-0.0355884
0
LINE
8
BLACK
6
CONTINUOUS
10
-0.316491
20
-0.0355884
11
-0.316942
21
-0.0321633
0
LINE
8
BLACK
6
CONTINUOUS
10
-0.316942
20
-0.0321633
11
-0.316942
21
-0.0321631
0
LINE
8
BLACK
6
CONTINUOUS
10
-0.316942
20
-0.0321631
11
-0.316967
21
-0.0319741
0
LINE
8
BLACK
6
CONTINUOUS
10
-0.316967
20
-0.0319741
11
-0.319349
21
-0.026223
0
LINE
8
BLACK
6
CONTINUOUS
10
-0.319349
20
-0.026223
11
-0.319465
21
-0.0260716
0
LINE
8
BLACK
6
CONTINUOUS
10
-0.319465
20
-0.0260716
11
-0.319465
21
-0.0260715
0
LINE
8
BLACK
6
CONTINUOUS
10
-0.319465
20
-0.0260715
11
-0.320366
21
-0.024898
0
LINE
8
BLACK
6
CONTINUOUS
10
-0.320366
20
-0.024898
11
-0.320965
21
-0.0229973
0
LINE
8
BLACK
6
CONTINUOUS
10
-0.320965
20
-0.0229973
11
-0.320202
21
-0.0211561
0
LINE
8
BLACK
6
CONTINUOUS
10
-0.320202
20
-0.0211561
11
-0.318623
21
-0.020267
0
LINE
8
BLACK
6
CONTINUOUS
10
-0.318623
20
-0.020267
11
-0.317517
21
-0.020047
0
LINE
8
BLACK
6
CONTINUOUS
10
-0.317517
20
-0.020047
11
-0.317516
21
-0.020047
0
LINE
8
BLACK
6
CONTINUOUS
10
-0.317516
20
-0.020047
11
-0.317235
21
-0.019991
0
LINE
8
BLACK
6
CONTINUOUS
10
-0.317235
20
-0.019991
11
-0.316996
21
-0.0198315
0
LINE
8
BLACK
6
CONTINUOUS
10
-0.316996
20
-0.0198315
11
-0.316731
21
-0.0197217
0
LINE
8
BLACK
6
CONTINUOUS
10
-0.316731
20
-0.0197217
11
-0.316712
21
-0.0197687
0
LINE
8
BLACK
6
CONTINUOUS
10
-0.316712
20
-0.0197687
11
-0.315076
21
-0.0193685
0
LINE
8
BLACK
6
CONTINUOUS
10
-0.315076
20
-0.0193685
11
-0.314063
21
-0.0197375
0
LINE
8
BLACK
6
CONTINUOUS
10
-0.314063
20
-0.0197375
11
-0.314056
21
-0.0197217
0
LINE
8
BLACK
6
CONTINUOUS
10
-0.314056
20
-0.0197217
11
-0.313791
21
-0.0198315
0
LINE
8
BLACK
6
CONTINUOUS
10
-0.313791
20
-0.0198315
11
-0.313552
21
-0.019991
0
LINE
8
BLACK
6
CONTINUOUS
10
-0.313552
20
-0.019991
11
-0.31125
21
-0.020449
0
LINE
8
BLACK
6
CONTINUOUS
10
-0.31125
20
-0.020449
11
-0.310613
21
-0.0205757
0
LINE
8
BLACK
6
CONTINUOUS
10
-0.310613
20
-0.0205757
11
-0.310613
21
-0.0205757
0
LINE
8
BLACK
6
CONTINUOUS
10
-0.310613
20
-0.0205757
11
-0.310472
21
-0.0206036
0
LINE
8
BLACK
6
CONTINUOUS
10
-0.310472
20
-0.0206036
11
-0.310357
21
-0.0206036
0
LINE
8
BLACK
6
CONTINUOUS
10
-0.310357
20
-0.0206036
11
-0.308567
21
-0.0214622
0
LINE
8
BLACK
6
CONTINUOUS
10
-0.308567
20
-0.0214622
11
-0.307745
21
-0.0232774
0
LINE
8
BLACK
6
CONTINUOUS
10
-0.307745
20
-0.0232774
11
-0.307736
21
-0.0234996
0
LINE
8
BLACK
6
CONTINUOUS
10
-0.307736
20
-0.0234996
11
-0.307736
21
-0.0287736
0
LINE
8
BLACK
6
CONTINUOUS
10
-0.307736
20
-0.0287736
11
-0.307756
21
-0.029116
0
LINE
8
BLACK
6
CONTINUOUS
10
-0.307756
20
-0.029116
11
-0.307928
21
-0.0305634
0
LINE
8
BLACK
6
CONTINUOUS
10
-0.307928
20
-0.0305634
11
-0.307889
21
-0.0307776
0
LINE
8
BLACK
6
CONTINUOUS
10
-0.307889
20
-0.0307776
11
-0.307889
21
-0.0307778
0
LINE
8
BLACK
6
CONTINUOUS
10
-0.307889
20
-0.0307778
11
-0.307507
21
-0.0328661
0
LINE
8
BLACK
6
CONTINUOUS
10
-0.307507
20
-0.0328661
11
-0.307492
21
-0.0329564
0
LINE
8
BLACK
6
CONTINUOUS
10
-0.307492
20
-0.0329564
11
-0.307144
21
-0.0352741
0
LINE
8
BLACK
6
CONTINUOUS
10
-0.307144
20
-0.0352741
11
-0.307052
21
-0.0354645
0
LINE
8
BLACK
6
CONTINUOUS
10
-0.307052
20
-0.0354645
11
-0.307049
21
-0.0354778
0
LINE
8
BLACK
6
CONTINUOUS
10
-0.307049
20
-0.0354778
11
-0.307045
21
-0.0354882
0
LINE
8
BLACK
6
CONTINUOUS
10
-0.307045
20
-0.0354882
11
-0.307017
21
-0.0355763
0
LINE
8
BLACK
6
CONTINUOUS
10
-0.307017
20
-0.0355763
11
-0.307013
21
-0.0355884
0
LINE
8
BLACK
6
CONTINUOUS
10
-0.307013
20
-0.0355884
11
-0.307007
21
-0.0356022
0
LINE
8
BLACK
6
CONTINUOUS
10
-0.307007
20
-0.0356022
11
-0.306969
21
-0.03581
0
LINE
8
BLACK
6
CONTINUOUS
10
-0.306969
20
-0.03581
11
-0.306869
21
-0.0360032
0
LINE
8
BLACK
6
CONTINUOUS
10
-0.306869
20
-0.0360032
11
-0.30589
21
-0.0378872
0
LINE
8
BLACK
6
CONTINUOUS
10
-0.30589
20
-0.0378872
11
-0.30585
21
-0.0379687
0
LINE
8
BLACK
6
CONTINUOUS
10
-0.30585
20
-0.0379687
11
-0.304835
21
-0.0400819
0
LINE
8
BLACK
6
CONTINUOUS
10
-0.304835
20
-0.0400819
11
-0.304691
21
-0.0402371
0
LINE
8
BLACK
6
CONTINUOUS
10
-0.304691
20
-0.0402371
11
-0.30467
21
-0.0402729
0
LINE
8
BLACK
6
CONTINUOUS
10
-0.30467
20
-0.0402729
11
-0.304588
21
-0.0403954
0
LINE
8
BLACK
6
CONTINUOUS
10
-0.304588
20
-0.0403954
11
-0.304511
21
-0.0405428
0
LINE
8
BLACK
6
CONTINUOUS
10
-0.304511
20
-0.0405428
11
-0.304342
21
-0.0407413
0
LINE
8
BLACK
6
CONTINUOUS
10
-0.304342
20
-0.0407413
11
-0.302847
21
-0.0422361
0
LINE
8
BLACK
6
CONTINUOUS
10
-0.302847
20
-0.0422361
11
-0.302767
21
-0.0423186
0
LINE
8
BLACK
6
CONTINUOUS
10
-0.302767
20
-0.0423186
11
-0.301215
21
-0.0439983
0
LINE
8
BLACK
6
CONTINUOUS
10
-0.301215
20
-0.0439983
11
-0.301026
21
-0.0441076
0
LINE
8
BLACK
6
CONTINUOUS
10
-0.301026
20
-0.0441076
11
-0.300894
21
-0.0442138
0
LINE
8
BLACK
6
CONTINUOUS
10
-0.300894
20
-0.0442138
11
-0.300655
21
-0.0444274
0
LINE
8
BLACK
6
CONTINUOUS
10
-0.300655
20
-0.0444274
11
-0.153588
21
-0.191494
0
LINE
8
BLACK
6
CONTINUOUS
10
-0.153588
20
-0.191494
11
-0.153361
21
-0.191751
0
LINE
8
BLACK
6
CONTINUOUS
10
-0.153361
20
-0.191751
11
-0.152458
21
-0.192895
0
LINE
8
BLACK
6
CONTINUOUS
10
-0.152458
20
-0.192895
11
-0.150531
21
-0.194227
0
LINE
8
BLACK
6
CONTINUOUS
10
-0.150531
20
-0.194227
11
-0.150459
21
-0.194279
0
LINE
8
BLACK
6
CONTINUOUS
10
-0.150459
20
-0.194279
11
-0.148573
21
-0.195672
0
LINE
8
BLACK
6
CONTINUOUS
10
-0.148573
20
-0.195672
11
-0.148374
21
-0.195742
0
LINE
8
BLACK
6
CONTINUOUS
10
-0.148374
20
-0.195742
11
-0.148362
21
-0.195749
0
LINE
8
BLACK
6
CONTINUOUS
10
-0.148362
20
-0.195749
11
-0.148352
21
-0.195754
0
LINE
8
BLACK
6
CONTINUOUS
10
-0.148352
20
-0.195754
11
-0.14827
21
-0.195795
0
LINE
8
BLACK
6
CONTINUOUS
10
-0.14827
20
-0.195795
11
-0.148259
21
-0.195802
0
LINE
8
BLACK
6
CONTINUOUS
10
-0.148259
20
-0.195802
11
-0.148245
21
-0.195808
0
LINE
8
BLACK
6
CONTINUOUS
10
-0.148245
20
-0.195808
11
-0.148071
21
-0.195928
0
LINE
8
BLACK
6
CONTINUOUS
10
-0.148071
20
-0.195928
11
-0.147863
21
-0.195993
0
LINE
8
BLACK
6
CONTINUOUS
10
-0.147863
20
-0.195993
11
-0.147863
21
-0.195993
0
LINE
8
BLACK
6
CONTINUOUS
10
-0.147863
20
-0.195993
11
-0.145838
21
-0.196634
0
LINE
8
BLACK
6
CONTINUOUS
10
-0.145838
20
-0.196634
11
-0.145752
21
-0.196663
0
LINE
8
BLACK
6
CONTINUOUS
10
-0.145752
20
-0.196663
11
-0.144678
21
-0.19704
0
LINE
8
BLACK
6
CONTINUOUS
10
-0.144678
20
-0.19704
11
-0.143541
21
-0.197439
0
LINE
8
BLACK
6
CONTINUOUS
10
-0.143541
20
-0.197439
11
-0.143329
21
-0.197447
0
LINE
8
BLACK
6
CONTINUOUS
10
-0.143329
20
-0.197447
11
-0.143289
21
-0.197458
0
LINE
8
BLACK
6
CONTINUOUS
10
-0.143289
20
-0.197458
11
-0.143144
21
-0.197486
0
LINE
8
BLACK
6
CONTINUOUS
10
-0.143144
20
-0.197486
11
-0.142986
21
-0.197536
0
LINE
8
BLACK
6
CONTINUOUS
10
-0.142986
20
-0.197536
11
-0.142726
21
-0.197556
0
LINE
8
BLACK
6
CONTINUOUS
10
-0.142726
20
-0.197556
11
-0.140612
21
-0.197556
0
LINE
8
BLACK
6
CONTINUOUS
10
-0.140612
20
-0.197556
11
-0.140498
21
-0.197559
0
LINE
8
BLACK
6
CONTINUOUS
10
-0.140498
20
-0.197559
11
-0.138429
21
-0.19764
0
LINE
8
BLACK
6
CONTINUOUS
10
-0.138429
20
-0.19764
11
-0.138429
21
-0.19764
0
LINE
8
BLACK
6
CONTINUOUS
10
-0.138429
20
-0.19764
11
-0.138212
21
-0.197648
0
LINE
8
BLACK
6
CONTINUOUS
10
-0.138212
20
-0.197648
11
-0.138001
21
-0.197593
0
LINE
8
BLACK
6
CONTINUOUS
10
-0.138001
20
-0.197593
11
-0.137832
21
-0.197574
0
LINE
8
BLACK
6
CONTINUOUS
10
-0.137832
20
-0.197574
11
-0.137512
21
-0.197556
0
LINE
8
BLACK
6
CONTINUOUS
10
-0.137512
20
-0.197556
11
0.0741525
21
-0.197556
0
LINE
8
BLACK
6
CONTINUOUS
10
0.0741525
20
-0.197556
11
0.0760252
21
-0.198238
0
LINE
8
BLACK
6
CONTINUOUS
10
0.0760252
20
-0.198238
11
0.0762126
21
-0.19841
0
LINE
8
BLACK
6
CONTINUOUS
10
0.0762126
20
-0.19841
11
0.0886425
21
-0.21084
0
LINE
8
BLACK
6
CONTINUOUS
10
0.0886425
20
-0.21084
11
0.0894709
21
-0.212519
0
LINE
8
BLACK
6
CONTINUOUS
10
0.0894709
20
-0.212519
11
0.0899668
21
-0.216286
0
LINE
8
BLACK
6
CONTINUOUS
10
0.0899668
20
-0.216286
11
0.092349
21
-0.222037
0
LINE
8
BLACK
6
CONTINUOUS
10
0.092349
20
-0.222037
11
0.0924651
21
-0.222189
0
LINE
8
BLACK
6
CONTINUOUS
10
0.0924651
20
-0.222189
11
0.0924652
21
-0.222189
0
LINE
8
BLACK
6
CONTINUOUS
10
0.0924652
20
-0.222189
11
0.0960222
21
-0.226824
0
LINE
8
BLACK
6
CONTINUOUS
10
0.0960222
20
-0.226824
11
0.0961385
21
-0.226976
0
LINE
8
BLACK
6
CONTINUOUS
10
0.0961385
20
-0.226976
11
0.0962901
21
-0.227092
0
LINE
8
BLACK
6
CONTINUOUS
10
0.0962901
20
-0.227092
11
0.100926
21
-0.230649
0
LINE
8
BLACK
6
CONTINUOUS
10
0.100926
20
-0.230649
11
0.100926
21
-0.230649
0
LINE
8
BLACK
6
CONTINUOUS
10
0.100926
20
-0.230649
11
0.101077
21
-0.230765
0
LINE
8
BLACK
6
CONTINUOUS
10
0.101077
20
-0.230765
11
0.106828
21
-0.233148
0
LINE
8
BLACK
6
CONTINUOUS
10
0.106828
20
-0.233148
11
0.107017
21
-0.233172
0
LINE
8
BLACK
6
CONTINUOUS
10
0.107017
20
-0.233172
11
0.107017
21
-0.233172
0
LINE
8
BLACK
6
CONTINUOUS
10
0.107017
20
-0.233172
11
0.112811
21
-0.233935
0
LINE
8
BLACK
6
CONTINUOUS
10
0.112811
20
-0.233935
11
0.113
21
-0.23396
0
LINE
8
BLACK
6
CONTINUOUS
10
0.113
20
-0.23396
11
0.113189
21
-0.233935
0
LINE
8
BLACK
6
CONTINUOUS
10
0.113189
20
-0.233935
11
0.118983
21
-0.233172
0
LINE
8
BLACK
6
CONTINUOUS
10
0.118983
20
-0.233172
11
0.118983
21
-0.233172
0
LINE
8
BLACK
6
CONTINUOUS
10
0.118983
20
-0.233172
11
0.119172
21
-0.233148
0
LINE
8
BLACK
6
CONTINUOUS
10
0.119172
20
-0.233148
11
0.124923
21
-0.230765
0
LINE
8
BLACK
6
CONTINUOUS
10
0.124923
20
-0.230765
11
0.125074
21
-0.230649
0
LINE
8
BLACK
6
CONTINUOUS
10
0.125074
20
-0.230649
11
0.125074
21
-0.230649
0
LINE
8
BLACK
6
CONTINUOUS
10
0.125074
20
-0.230649
11
0.12971
21
-0.227092
0
LINE
8
BLACK
6
CONTINUOUS
10
0.12971
20
-0.227092
11
0.129861
21
-0.226976
0
LINE
8
BLACK
6
CONTINUOUS
10
0.129861
20
-0.226976
11
0.129978
21
-0.226824
0
LINE
8
BLACK
6
CONTINUOUS
10
0.129978
20
-0.226824
11
0.133535
21
-0.222189
0
LINE
8
BLACK
6
CONTINUOUS
10
0.133535
20
-0.222189
11
0.133535
21
-0.222189
0
LINE
8
BLACK
6
CONTINUOUS
10
0.133535
20
-0.222189
11
0.133651
21
-0.222037
0
LINE
8
BLACK
6
CONTINUOUS
10
0.133651
20
-0.222037
11
0.136033
21
-0.216286
0
LINE
8
BLACK
6
CONTINUOUS
10
0.136033
20
-0.216286
11
0.136362
21
-0.213789
0
LINE
8
BLACK
6
CONTINUOUS
10
0.136362
20
-0.213789
11
0.136821
21
-0.210304
0
LINE
8
BLACK
6
CONTINUOUS
10
0.136821
20
-0.210304
11
0.136846
21
-0.210114
0
LINE
8
BLACK
6
CONTINUOUS
10
0.136846
20
-0.210114
11
0.136652
21
-0.20864
0
LINE
8
BLACK
6
CONTINUOUS
10
0.136652
20
-0.20864
11
0.136058
21
-0.204132
0
LINE
8
BLACK
6
CONTINUOUS
10
0.136058
20
-0.204132
11
0.136058
21
-0.204132
0
LINE
8
BLACK
6
CONTINUOUS
10
0.136058
20
-0.204132
11
0.136033
21
-0.203943
0
LINE
8
BLACK
6
CONTINUOUS
10
0.136033
20
-0.203943
11
0.133651
21
-0.198191
0
LINE
8
BLACK
6
CONTINUOUS
10
0.133651
20
-0.198191
11
0.133535
21
-0.19804
0
LINE
8
BLACK
6
CONTINUOUS
10
0.133535
20
-0.19804
11
0.133535
21
-0.19804
0
LINE
8
BLACK
6
CONTINUOUS
10
0.133535
20
-0.19804
11
0.129978
21
-0.193404
0
LINE
8
BLACK
6
CONTINUOUS
10
0.129978
20
-0.193404
11
0.129861
21
-0.193253
0
LINE
8
BLACK
6
CONTINUOUS
10
0.129861
20
-0.193253
11
0.127904
21
-0.191751
0
LINE
8
BLACK
6
CONTINUOUS
10
0.127904
20
-0.191751
11
0.125074
21
-0.18958
0
LINE
8
BLACK
6
CONTINUOUS
10
0.125074
20
-0.18958
11
0.125074
21
-0.189579
0
LINE
8
BLACK
6
CONTINUOUS
10
0.125074
20
-0.189579
11
0.124923
21
-0.189463
0
LINE
8
BLACK
6
CONTINUOUS
10
0.124923
20
-0.189463
11
0.119172
21
-0.187081
0
LINE
8
BLACK
6
CONTINUOUS
10
0.119172
20
-0.187081
11
0.118983
21
-0.187056
0
LINE
8
BLACK
6
CONTINUOUS
10
0.118983
20
-0.187056
11
0.118983
21
-0.187056
0
LINE
8
BLACK
6
CONTINUOUS
10
0.118983
20
-0.187056
11
0.116736
21
-0.18676
0
LINE
8
BLACK
6
CONTINUOUS
10
0.116736
20
-0.18676
11
0.115405
21
-0.186585
0
LINE
8
BLACK
6
CONTINUOUS
10
0.115405
20
-0.186585
11
0.113725
21
-0.185757
0
LINE
8
BLACK
6
CONTINUOUS
10
0.113725
20
-0.185757
11
0.0961144
21
-0.168146
0
LINE
8
BLACK
6
CONTINUOUS
10
0.0961144
20
-0.168146
11
0.0958865
21
-0.167889
0
LINE
8
BLACK
6
CONTINUOUS
10
0.0958865
20
-0.167889
11
0.0951191
21
-0.166916
0
LINE
8
BLACK
6
CONTINUOUS
10
0.0951191
20
-0.166916
11
0.095119
21
-0.166916
0
LINE
8
BLACK
6
CONTINUOUS
10
0.095119
20
-0.166916
11
0.0949843
21
-0.166745
0
LINE
8
BLACK
6
CONTINUOUS
10
0.0949843
20
-0.166745
11
0.093058
21
-0.165414
0
LINE
8
BLACK
6
CONTINUOUS
10
0.093058
20
-0.165414
11
0.0929835
21
-0.16536
0
LINE
8
BLACK
6
CONTINUOUS
10
0.0929835
20
-0.16536
11
0.0912741
21
-0.164098
0
LINE
8
BLACK
6
CONTINUOUS
10
0.0912741
20
-0.164098
11
0.0912739
21
-0.164098
0
LINE
8
BLACK
6
CONTINUOUS
10
0.0912739
20
-0.164098
11
0.0910989
21
-0.163968
0
LINE
8
BLACK
6
CONTINUOUS
10
0.0910989
20
-0.163968
11
0.0908994
21
-0.163898
0
LINE
8
BLACK
6
CONTINUOUS
10
0.0908994
20
-0.163898
11
0.0908875
21
-0.163891
0
LINE
8
BLACK
6
CONTINUOUS
10
0.0908875
20
-0.163891
11
0.0908773
21
-0.163886
0
LINE
8
BLACK
6
CONTINUOUS
10
0.0908773
20
-0.163886
11
0.0907961
21
-0.163845
0
LINE
8
BLACK
6
CONTINUOUS
10
0.0907961
20
-0.163845
11
0.0907841
21
-0.163838
0
LINE
8
BLACK
6
CONTINUOUS
10
0.0907841
20
-0.163838
11
0.0907706
21
-0.163833
0
LINE
8
BLACK
6
CONTINUOUS
10
0.0907706
20
-0.163833
11
0.0905968
21
-0.163713
0
LINE
8
BLACK
6
CONTINUOUS
10
0.0905968
20
-0.163713
11
0.0883646
21
-0.163007
0
LINE
8
BLACK
6
CONTINUOUS
10
0.0883646
20
-0.163007
11
0.0882778
21
-0.162978
0
LINE
8
BLACK
6
CONTINUOUS
10
0.0882778
20
-0.162978
11
0.0862724
21
-0.162274
0
LINE
8
BLACK
6
CONTINUOUS
10
0.0862724
20
-0.162274
11
0.0862724
21
-0.162274
0
LINE
8
BLACK
6
CONTINUOUS
10
0.0862724
20
-0.162274
11
0.0860668
21
-0.162201
0
LINE
8
BLACK
6
CONTINUOUS
10
0.0860668
20
-0.162201
11
0.0858557
21
-0.162193
0
LINE
8
BLACK
6
CONTINUOUS
10
0.0858557
20
-0.162193
11
0.0858156
21
-0.162183
0
LINE
8
BLACK
6
CONTINUOUS
10
0.0858156
20
-0.162183
11
0.0856703
21
-0.162155
0
LINE
8
BLACK
6
CONTINUOUS
10
0.0856703
20
-0.162155
11
0.0855117
21
-0.162104
0
LINE
8
BLACK
6
CONTINUOUS
10
0.0855117
20
-0.162104
11
0.0852516
21
-0.162084
0
LINE
8
BLACK
6
CONTINUOUS
10
0.0852516
20
-0.162084
11
0.0831374
21
-0.162084
0
LINE
8
BLACK
6
CONTINUOUS
10
0.0831374
20
-0.162084
11
0.083023
21
-0.162082
0
LINE
8
BLACK
6
CONTINUOUS
10
0.083023
20
-0.162082
11
0.080955
21
-0.162
0
LINE
8
BLACK
6
CONTINUOUS
10
0.080955
20
-0.162
11
0.0807376
21
-0.161992
0
LINE
8
BLACK
6
CONTINUOUS
10
0.0807376
20
-0.161992
11
0.0805272
21
-0.162048
0
LINE
8
BLACK
6
CONTINUOUS
10
0.0805272
20
-0.162048
11
0.080358
21
-0.162066
0
LINE
8
BLACK
6
CONTINUOUS
10
0.080358
20
-0.162066
11
0.0800383
21
-0.162084
0
LINE
8
BLACK
6
CONTINUOUS
10
0.0800383
20
-0.162084
11
-0.131626
21
-0.162084
0
LINE
8
BLACK
6
CONTINUOUS
10
-0.131626
20
-0.162084
11
-0.133499
21
-0.161402
0
LINE
8
BLACK
6
CONTINUOUS
10
-0.133499
20
-0.161402
11
-0.133687
21
-0.161231
0
LINE
8
BLACK
6
CONTINUOUS
10
-0.133687
20
-0.161231
11
-0.160675
21
-0.134242
0
LINE
8
BLACK
6
CONTINUOUS
10
-0.160675
20
-0.134242
11
-0.27141
21
-0.0235067
0
LINE
8
BLACK
6
CONTINUOUS
10
-0.27141
20
-0.0235067
11
-0.272253
21
-0.0217006
0
LINE
8
BLACK
6
CONTINUOUS
10
0.185844
20
-0.139156
11
0.188455
21
-0.1409
0
LINE
8
BLACK
6
CONTINUOUS
10
0.188455
20
-0.1409
11
0.190208
21
-0.141249
0
LINE
8
BLACK
6
CONTINUOUS
10
0.190208
20
-0.141249
11
0.190617
21
-0.14133
0
LINE
8
BLACK
6
CONTINUOUS
10
0.190617
20
-0.14133
11
0.190617
21
-0.14133
0
LINE
8
BLACK
6
CONTINUOUS
10
0.190617
20
-0.14133
11
0.190758
21
-0.141358
0
LINE
8
BLACK
6
CONTINUOUS
10
0.190758
20
-0.141358
11
0.259242
21
-0.141358
0
LINE
8
BLACK
6
CONTINUOUS
10
0.259242
20
-0.141358
11
0.259383
21
-0.14133
0
LINE
8
BLACK
6
CONTINUOUS
10
0.259383
20
-0.14133
11
0.259383
21
-0.14133
0
LINE
8
BLACK
6
CONTINUOUS
10
0.259383
20
-0.14133
11
0.259792
21
-0.141249
0
LINE
8
BLACK
6
CONTINUOUS
10
0.259792
20
-0.141249
11
0.261545
21
-0.1409
0
LINE
8
BLACK
6
CONTINUOUS
10
0.261545
20
-0.1409
11
0.264156
21
-0.139156
0
LINE
8
BLACK
6
CONTINUOUS
10
0.264156
20
-0.139156
11
0.2659
21
-0.136545
0
LINE
8
BLACK
6
CONTINUOUS
10
0.2659
20
-0.136545
11
0.266358
21
-0.134242
0
LINE
8
BLACK
6
CONTINUOUS
10
0.266358
20
-0.134242
11
0.266358
21
-0.065758
0
LINE
8
BLACK
6
CONTINUOUS
10
0.266358
20
-0.065758
11
0.2659
21
-0.0634555
0
LINE
8
BLACK
6
CONTINUOUS
10
0.2659
20
-0.0634555
11
0.264156
21
-0.0608444
0
LINE
8
BLACK
6
CONTINUOUS
10
0.264156
20
-0.0608444
11
0.261545
21
-0.0590997
0
LINE
8
BLACK
6
CONTINUOUS
10
0.261545
20
-0.0590997
11
0.259792
21
-0.058751
0
LINE
8
BLACK
6
CONTINUOUS
10
0.259792
20
-0.058751
11
0.259383
21
-0.0586697
0
LINE
8
BLACK
6
CONTINUOUS
10
0.259383
20
-0.0586697
11
0.259383
21
-0.0586697
0
LINE
8
BLACK
6
CONTINUOUS
10
0.259383
20
-0.0586697
11
0.259242
21
-0.0586417
0
LINE
8
BLACK
6
CONTINUOUS
10
0.259242
20
-0.0586417
11
0.190758
21
-0.0586417
0
LINE
8
BLACK
6
CONTINUOUS
10
0.190758
20
-0.0586417
11
0.190617
21
-0.0586697
0
LINE
8
BLACK
6
CONTINUOUS
10
0.190617
20
-0.0586697
11
0.190617
21
-0.0586697
0
LINE
8
BLACK
6
CONTINUOUS
10
0.190617
20
-0.0586697
11
0.190208
21
-0.058751
0
LINE
8
BLACK
6
CONTINUOUS
10
0.190208
20
-0.058751
11
0.188455
21
-0.0590997
0
LINE
8
BLACK
6
CONTINUOUS
10
0.188455
20
-0.0590997
11
0.185844
21
-0.0608444
0
LINE
8
BLACK
6
CONTINUOUS
10
0.185844
20
-0.0608444
11
0.1841
21
-0.0634555
0
LINE
8
BLACK
6
CONTINUOUS
10
0.1841
20
-0.0634555
11
0.183642
21
-0.065758
0
LINE
8
BLACK
6
CONTINUOUS
10
0.183642
20
-0.065758
11
0.183642
21
-0.134242
0
LINE
8
BLACK
6
CONTINUOUS
10
0.183642
20
-0.134242
11
0.1841
21
-0.136545
0
LINE
8
BLACK
6
CONTINUOUS
10
0.1841
20
-0.136545
11
0.185844
21
-0.139156
0
LINE
8
BLACK
6
CONTINUOUS
10
0.173781
20
0.0840739
11
0.173852
21
0.0838463
0
LINE
8
BLACK
6
CONTINUOUS
10
0.173852
20
0.0838463
11
0.17707
21
0.0759224
0
LINE
8
BLACK
6
CONTINUOUS
10
0.17707
20
0.0759224
11
0.177177
21
0.0757093
0
LINE
8
BLACK
6
CONTINUOUS
10
0.177177
20
0.0757093
11
0.181646
21
0.0684174
0
LINE
8
BLACK
6
CONTINUOUS
10
0.181646
20
0.0684174
11
0.181787
21
0.0682248
0
LINE
8
BLACK
6
CONTINUOUS
10
0.181787
20
0.0682248
11
0.187386
21
0.0617604
0
LINE
8
BLACK
6
CONTINUOUS
10
0.187386
20
0.0617604
11
0.187556
21
0.0615939
0
LINE
8
BLACK
6
CONTINUOUS
10
0.187556
20
0.0615939
11
0.194137
21
0.0561306
0
LINE
8
BLACK
6
CONTINUOUS
10
0.194137
20
0.0561306
11
0.194332
21
0.0559939
0
LINE
8
BLACK
6
CONTINUOUS
10
0.194332
20
0.0559939
11
0.201716
21
0.0516791
0
LINE
8
BLACK
6
CONTINUOUS
10
0.201716
20
0.0516791
11
0.201931
21
0.051576
0
LINE
8
BLACK
6
CONTINUOUS
10
0.201931
20
0.051576
11
0.209921
21
0.0485251
0
LINE
8
BLACK
6
CONTINUOUS
10
0.209921
20
0.0485251
11
0.21015
21
0.0484584
0
LINE
8
BLACK
6
CONTINUOUS
10
0.21015
20
0.0484584
11
0.218531
21
0.0467534
0
LINE
8
BLACK
6
CONTINUOUS
10
0.218531
20
0.0467534
11
0.218646
21
0.0467396
0
LINE
8
BLACK
6
CONTINUOUS
10
0.218646
20
0.0467396
11
0.220425
21
0.0458411
0
LINE
8
BLACK
6
CONTINUOUS
10
0.220425
20
0.0458411
11
0.22121
21
0.0440094
0
LINE
8
BLACK
6
CONTINUOUS
10
0.22121
20
0.0440094
11
0.220634
21
0.0421016
0
LINE
8
BLACK
6
CONTINUOUS
10
0.220634
20
0.0421016
11
0.218967
21
0.0410104
0
LINE
8
BLACK
6
CONTINUOUS
10
0.218967
20
0.0410104
11
0.218566
21
0.0409454
0
LINE
8
BLACK
6
CONTINUOUS
10
0.218566
20
0.0409454
11
0.217213
21
0.0408223
0
LINE
8
BLACK
6
CONTINUOUS
10
0.217213
20
0.0408223
11
0.215761
21
0.040395
0
LINE
8
BLACK
6
CONTINUOUS
10
0.215761
20
0.040395
11
0.209569
21
0.0385725
0
LINE
8
BLACK
6
CONTINUOUS
10
0.209569
20
0.0385725
11
0.209568
21
0.0385724
0
LINE
8
BLACK
6
CONTINUOUS
10
0.209568
20
0.0385724
11
0.209432
21
0.0385323
0
LINE
8
BLACK
6
CONTINUOUS
10
0.209432
20
0.0385323
11
0.205883
21
0.036677
0
LINE
8
BLACK
6
CONTINUOUS
10
0.205883
20
0.036677
11
0.20237
21
0.0348406
0
LINE
8
BLACK
6
CONTINUOUS
10
0.20237
20
0.0348406
11
0.20237
21
0.0348405
0
LINE
8
BLACK
6
CONTINUOUS
10
0.20237
20
0.0348405
11
0.202244
21
0.0347746
0
LINE
8
BLACK
6
CONTINUOUS
10
0.202244
20
0.0347746
11
0.202133
21
0.0346854
0
LINE
8
BLACK
6
CONTINUOUS
10
0.202133
20
0.0346854
11
0.202133
21
0.0346853
0
LINE
8
BLACK
6
CONTINUOUS
10
0.202133
20
0.0346853
11
0.196034
21
0.0297816
0
LINE
8
BLACK
6
CONTINUOUS
10
0.196034
20
0.0297816
11
0.196034
21
0.0297815
0
LINE
8
BLACK
6
CONTINUOUS
10
0.196034
20
0.0297815
11
0.195923
21
0.0296923
0
LINE
8
BLACK
6
CONTINUOUS
10
0.195923
20
0.0296923
11
0.195832
21
0.0295832
0
LINE
8
BLACK
6
CONTINUOUS
10
0.195832
20
0.0295832
11
0.195831
21
0.0295831
0
LINE
8
BLACK
6
CONTINUOUS
10
0.195831
20
0.0295831
11
0.190801
21
0.0235883
0
LINE
8
BLACK
6
CONTINUOUS
10
0.190801
20
0.0235883
11
0.190801
21
0.0235882
0
LINE
8
BLACK
6
CONTINUOUS
10
0.190801
20
0.0235882
11
0.19071
21
0.0234791
0
LINE
8
BLACK
6
CONTINUOUS
10
0.19071
20
0.0234791
11
0.186802
21
0.0163716
0
LINE
8
BLACK
6
CONTINUOUS
10
0.186802
20
0.0163716
11
0.186759
21
0.0162358
0
LINE
8
BLACK
6
CONTINUOUS
10
0.186759
20
0.0162358
11
0.184501
21
0.00911665
0
LINE
8
BLACK
6
CONTINUOUS
10
0.184501
20
0.00911665
11
0.18435
21
0.00864047
0
LINE
8
BLACK
6
CONTINUOUS
10
0.18435
20
0.00864047
11
0.184334
21
0.00849909
0
LINE
8
BLACK
6
CONTINUOUS
10
0.184334
20
0.00849909
11
0.184334
21
0.00849906
0
LINE
8
BLACK
6
CONTINUOUS
10
0.184334
20
0.00849906
11
0.18427
21
0.00793031
0
LINE
8
BLACK
6
CONTINUOUS
10
0.18427
20
0.00793031
11
0.183446
21
0.000580236
0
LINE
8
BLACK
6
CONTINUOUS
10
0.183446
20
0.000580236
11
0.183458
21
0.00043815
0
LINE
8
BLACK
6
CONTINUOUS
10
0.183458
20
0.00043815
11
0.183458
21
0.000438071
0
LINE
8
BLACK
6
CONTINUOUS
10
0.183458
20
0.000438071
11
0.183969
21
-0.00564583
0
LINE
8
BLACK
6
CONTINUOUS
10
0.183969
20
-0.00564583
11
0.184124
21
-0.00750209
0
LINE
8
BLACK
6
CONTINUOUS
10
0.184124
20
-0.00750209
11
0.18636
21
-0.0152987
0
LINE
8
BLACK
6
CONTINUOUS
10
0.18636
20
-0.0152987
11
0.186425
21
-0.0154252
0
LINE
8
BLACK
6
CONTINUOUS
10
0.186425
20
-0.0154252
11
0.186425
21
-0.0154253
0
LINE
8
BLACK
6
CONTINUOUS
10
0.186425
20
-0.0154253
11
0.189445
21
-0.0213008
0
LINE
8
BLACK
6
CONTINUOUS
10
0.189445
20
-0.0213008
11
0.190067
21
-0.0225125
0
LINE
8
BLACK
6
CONTINUOUS
10
0.190067
20
-0.0225125
11
0.195105
21
-0.0288689
0
LINE
8
BLACK
6
CONTINUOUS
10
0.195105
20
-0.0288689
11
0.195214
21
-0.0289611
0
LINE
8
BLACK
6
CONTINUOUS
10
0.195214
20
-0.0289611
11
0.195214
21
-0.0289613
0
LINE
8
BLACK
6
CONTINUOUS
10
0.195214
20
-0.0289613
11
0.195396
21
-0.029116
0
LINE
8
BLACK
6
CONTINUOUS
10
0.195396
20
-0.029116
11
0.201282
21
-0.0341256
0
LINE
8
BLACK
6
CONTINUOUS
10
0.201282
20
-0.0341256
11
0.203121
21
-0.0351532
0
LINE
8
BLACK
6
CONTINUOUS
10
0.203121
20
-0.0351532
11
0.208238
21
-0.0380131
0
LINE
8
BLACK
6
CONTINUOUS
10
0.208238
20
-0.0380131
11
0.208238
21
-0.0380131
0
LINE
8
BLACK
6
CONTINUOUS
10
0.208238
20
-0.0380131
11
0.208362
21
-0.0380826
0
LINE
8
BLACK
6
CONTINUOUS
10
0.208362
20
-0.0380826
11
0.208497
21
-0.0381265
0
LINE
8
BLACK
6
CONTINUOUS
10
0.208497
20
-0.0381265
11
0.208498
21
-0.0381266
0
LINE
8
BLACK
6
CONTINUOUS
10
0.208498
20
-0.0381266
11
0.213396
21
-0.0397181
0
LINE
8
BLACK
6
CONTINUOUS
10
0.213396
20
-0.0397181
11
0.216076
21
-0.0405889
0
LINE
8
BLACK
6
CONTINUOUS
10
0.216076
20
-0.0405889
11
0.21859
21
-0.0408887
0
LINE
8
BLACK
6
CONTINUOUS
10
0.21859
20
-0.0408887
11
0.223988
21
-0.0415324
0
LINE
8
BLACK
6
CONTINUOUS
10
0.223988
20
-0.0415324
11
0.223988
21
-0.0415324
0
LINE
8
BLACK
6
CONTINUOUS
10
0.223988
20
-0.0415324
11
0.22413
21
-0.0415493
0
LINE
8
BLACK
6
CONTINUOUS
10
0.22413
20
-0.0415493
11
0.226839
21
-0.0413408
0
LINE
8
BLACK
6
CONTINUOUS
10
0.226839
20
-0.0413408
11
0.232074
21
-0.040938
0
LINE
8
BLACK
6
CONTINUOUS
10
0.232074
20
-0.040938
11
0.232074
21
-0.040938
0
LINE
8
BLACK
6
CONTINUOUS
10
0.232074
20
-0.040938
11
0.232217
21
-0.040927
0
LINE
8
BLACK
6
CONTINUOUS
10
0.232217
20
-0.040927
11
0.240029
21
-0.0387459
0
LINE
8
BLACK
6
CONTINUOUS
10
0.240029
20
-0.0387459
11
0.241254
21
-0.0381266
0
LINE
8
BLACK
6
CONTINUOUS
10
0.241254
20
-0.0381266
11
0.247141
21
-0.0351532
0
LINE
8
BLACK
6
CONTINUOUS
10
0.247141
20
-0.0351532
11
0.247141
21
-0.0351531
0
LINE
8
BLACK
6
CONTINUOUS
10
0.247141
20
-0.0351531
11
0.247268
21
-0.0350889
0
LINE
8
BLACK
6
CONTINUOUS
10
0.247268
20
-0.0350889
11
0.253659
21
-0.0300954
0
LINE
8
BLACK
6
CONTINUOUS
10
0.253659
20
-0.0300954
11
0.258959
21
-0.0239556
0
LINE
8
BLACK
6
CONTINUOUS
10
0.258959
20
-0.0239556
11
0.259029
21
-0.023832
0
LINE
8
BLACK
6
CONTINUOUS
10
0.259029
20
-0.023832
11
0.25903
21
-0.0238319
0
LINE
8
BLACK
6
CONTINUOUS
10
0.25903
20
-0.0238319
11
0.261338
21
-0.0197687
0
LINE
8
BLACK
6
CONTINUOUS
10
0.261338
20
-0.0197687
11
0.262965
21
-0.0169033
0
LINE
8
BLACK
6
CONTINUOUS
10
0.262965
20
-0.0169033
11
0.263457
21
-0.0154253
0
LINE
8
BLACK
6
CONTINUOUS
10
0.263457
20
-0.0154253
11
0.265481
21
-0.00934248
0
LINE
8
BLACK
6
CONTINUOUS
10
0.265481
20
-0.00934248
11
0.265526
21
-0.0092072
0
LINE
8
BLACK
6
CONTINUOUS
10
0.265526
20
-0.0092072
11
0.265657
21
-0.00817122
0
LINE
8
BLACK
6
CONTINUOUS
10
0.265657
20
-0.00817122
11
0.266532
21
-0.00124091
0
LINE
8
BLACK
6
CONTINUOUS
10
0.266532
20
-0.00124091
11
0.266532
21
-0.00124067
0
LINE
8
BLACK
6
CONTINUOUS
10
0.266532
20
-0.00124067
11
0.266542
21
-0.00116039
0
LINE
8
BLACK
6
CONTINUOUS
10
0.266542
20
-0.00116039
11
0.266558
21
0
0
LINE
8
BLACK
6
CONTINUOUS
10
0.266558
20
0
11
0.266365
21
0.0019698
0
LINE
8
BLACK
6
CONTINUOUS
10
0.266365
20
0.0019698
11
0.265781
21
0.00793031
0
LINE
8
BLACK
6
CONTINUOUS
10
0.265781
20
0.00793031
11
0.265767
21
0.00807205
0
LINE
8
BLACK
6
CONTINUOUS
10
0.265767
20
0.00807205
11
0.263423
21
0.0158367
0
LINE
8
BLACK
6
CONTINUOUS
10
0.263423
20
0.0158367
11
0.259615
21
0.0229981
0
LINE
8
BLACK
6
CONTINUOUS
10
0.259615
20
0.0229981
11
0.254489
21
0.0292835
0
LINE
8
BLACK
6
CONTINUOUS
10
0.254489
20
0.0292835
11
0.249346
21
0.0335376
0
LINE
8
BLACK
6
CONTINUOUS
10
0.249346
20
0.0335376
11
0.248349
21
0.0343624
0
LINE
8
BLACK
6
CONTINUOUS
10
0.248349
20
0.0343624
11
0.248349
21
0.0343625
0
LINE
8
BLACK
6
CONTINUOUS
10
0.248349
20
0.0343625
11
0.248239
21
0.0344535
0
LINE
8
BLACK
6
CONTINUOUS
10
0.248239
20
0.0344535
11
0.247857
21
0.0346602
0
LINE
8
BLACK
6
CONTINUOUS
10
0.247857
20
0.0346602
11
0.24123
21
0.0382434
0
LINE
8
BLACK
6
CONTINUOUS
10
0.24123
20
0.0382434
11
0.241105
21
0.0383111
0
LINE
8
BLACK
6
CONTINUOUS
10
0.241105
20
0.0383111
11
0.240969
21
0.0383532
0
LINE
8
BLACK
6
CONTINUOUS
10
0.240969
20
0.0383532
11
0.240969
21
0.0383533
0
LINE
8
BLACK
6
CONTINUOUS
10
0.240969
20
0.0383533
11
0.235809
21
0.0399505
0
LINE
8
BLACK
6
CONTINUOUS
10
0.235809
20
0.0399505
11
0.233356
21
0.0407096
0
LINE
8
BLACK
6
CONTINUOUS
10
0.233356
20
0.0407096
11
0.231808
21
0.0408723
0
LINE
8
BLACK
6
CONTINUOUS
10
0.231808
20
0.0408723
11
0.230522
21
0.0410075
0
LINE
8
BLACK
6
CONTINUOUS
10
0.230522
20
0.0410075
11
0.228731
21
0.0418811
0
LINE
8
BLACK
6
CONTINUOUS
10
0.228731
20
0.0418811
11
0.22792
21
0.0437017
0
LINE
8
BLACK
6
CONTINUOUS
10
0.22792
20
0.0437017
11
0.22847
21
0.0456174
0
LINE
8
BLACK
6
CONTINUOUS
10
0.22847
20
0.0456174
11
0.230122
21
0.0467318
0
LINE
8
BLACK
6
CONTINUOUS
10
0.230122
20
0.0467318
11
0.230456
21
0.0467947
0
LINE
8
BLACK
6
CONTINUOUS
10
0.230456
20
0.0467947
11
0.236036
21
0.0475093
0
LINE
8
BLACK
6
CONTINUOUS
10
0.236036
20
0.0475093
11
0.236268
21
0.0475588
0
LINE
8
BLACK
6
CONTINUOUS
10
0.236268
20
0.0475588
11
0.24446
21
0.0500166
0
LINE
8
BLACK
6
CONTINUOUS
10
0.24446
20
0.0500166
11
0.244682
21
0.0501035
0
LINE
8
BLACK
6
CONTINUOUS
10
0.244682
20
0.0501035
11
0.252363
21
0.0538661
0
LINE
8
BLACK
6
CONTINUOUS
10
0.252363
20
0.0538661
11
0.252567
21
0.0539881
0
LINE
8
BLACK
6
CONTINUOUS
10
0.252567
20
0.0539881
11
0.25953
21
0.0589548
0
LINE
8
BLACK
6
CONTINUOUS
10
0.25953
20
0.0589548
11
0.259712
21
0.0591081
0
LINE
8
BLACK
6
CONTINUOUS
10
0.259712
20
0.0591081
11
0.26577
21
0.0651453
0
LINE
8
BLACK
6
CONTINUOUS
10
0.26577
20
0.0651453
11
0.265925
21
0.0653271
0
LINE
8
BLACK
6
CONTINUOUS
10
0.265925
20
0.0653271
11
0.270915
21
0.0722722
0
LINE
8
BLACK
6
CONTINUOUS
10
0.270915
20
0.0722722
11
0.271038
21
0.0724765
0
LINE
8
BLACK
6
CONTINUOUS
10
0.271038
20
0.0724765
11
0.274827
21
0.0801435
0
LINE
8
BLACK
6
CONTINUOUS
10
0.274827
20
0.0801435
11
0.274915
21
0.0803656
0
LINE
8
BLACK
6
CONTINUOUS
10
0.274915
20
0.0803656
11
0.277401
21
0.0885483
0
LINE
8
BLACK
6
CONTINUOUS
10
0.277401
20
0.0885483
11
0.277452
21
0.0887816
0
LINE
8
BLACK
6
CONTINUOUS
10
0.277452
20
0.0887816
11
0.277545
21
0.0894907
0
LINE
8
BLACK
6
CONTINUOUS
10
0.277545
20
0.0894907
11
0.277455
21
0.0898996
0
LINE
8
BLACK
6
CONTINUOUS
10
0.277455
20
0.0898996
11
0.277324
21
0.09
0
LINE
8
BLACK
6
CONTINUOUS
10
0.277324
20
0.09
11
0.256745
21
0.09
0
LINE
8
BLACK
6
CONTINUOUS
10
0.256745
20
0.09
11
0.255571
21
0.0863887
0
LINE
8
BLACK
6
CONTINUOUS
10
0.255571
20
0.0863887
11
0.252073
21
0.08033
0
LINE
8
BLACK
6
CONTINUOUS
10
0.252073
20
0.08033
11
0.247392
21
0.075131
0
LINE
8
BLACK
6
CONTINUOUS
10
0.247392
20
0.075131
11
0.241732
21
0.0710188
0
LINE
8
BLACK
6
CONTINUOUS
10
0.241732
20
0.0710188
11
0.235341
21
0.0681733
0
LINE
8
BLACK
6
CONTINUOUS
10
0.235341
20
0.0681733
11
0.228498
21
0.0667187
0
LINE
8
BLACK
6
CONTINUOUS
10
0.228498
20
0.0667187
11
0.221502
21
0.0667187
0
LINE
8
BLACK
6
CONTINUOUS
10
0.221502
20
0.0667187
11
0.214659
21
0.0681733
0
LINE
8
BLACK
6
CONTINUOUS
10
0.214659
20
0.0681733
11
0.208268
21
0.0710188
0
LINE
8
BLACK
6
CONTINUOUS
10
0.208268
20
0.0710188
11
0.202608
21
0.075131
0
LINE
8
BLACK
6
CONTINUOUS
10
0.202608
20
0.075131
11
0.197927
21
0.08033
0
LINE
8
BLACK
6
CONTINUOUS
10
0.197927
20
0.08033
11
0.194429
21
0.0863887
0
LINE
8
BLACK
6
CONTINUOUS
10
0.194429
20
0.0863887
11
0.193255
21
0.09
0
LINE
8
BLACK
6
CONTINUOUS
10
0.193255
20
0.09
11
0.172959
21
0.09
0
LINE
8
BLACK
6
CONTINUOUS
10
0.172959
20
0.09
11
0.172565
21
0.0898568
0
LINE
8
BLACK
6
CONTINUOUS
10
0.172565
20
0.0898568
11
0.172508
21
0.0897572
0
LINE
8
BLACK
6
CONTINUOUS
10
0.172508
20
0.0897572
11
0.172509
21
0.0897176
0
LINE
8
BLACK
6
CONTINUOUS
10
0.172509
20
0.0897176
11
0.173781
21
0.0840739
0
LINE
8
BLACK
6
CONTINUOUS
10
0.172595
20
0.11
11
0.193255
21
0.11
0
LINE
8
BLACK
6
CONTINUOUS
10
0.193255
20
0.11
11
0.194429
21
0.113611
0
LINE
8
BLACK
6
CONTINUOUS
10
0.194429
20
0.113611
11
0.197927
21
0.11967
0
LINE
8
BLACK
6
CONTINUOUS
10
0.197927
20
0.11967
11
0.202608
21
0.124869
0
LINE
8
BLACK
6
CONTINUOUS
10
0.202608
20
0.124869
11
0.208268
21
0.128981
0
LINE
8
BLACK
6
CONTINUOUS
10
0.208268
20
0.128981
11
0.214659
21
0.131827
0
LINE
8
BLACK
6
CONTINUOUS
10
0.214659
20
0.131827
11
0.215
21
0.131899
0
LINE
8
BLACK
6
CONTINUOUS
10
0.215
20
0.131899
11
0.215
21
0.152046
0
LINE
8
BLACK
6
CONTINUOUS
10
0.215
20
0.152046
11
0.214857
21
0.152439
0
LINE
8
BLACK
6
CONTINUOUS
10
0.214857
20
0.152439
11
0.214722
21
0.152517
0
LINE
8
BLACK
6
CONTINUOUS
10
0.214722
20
0.152517
11
0.212686
21
0.152205
0
LINE
8
BLACK
6
CONTINUOUS
10
0.212686
20
0.152205
11
0.212453
21
0.15215
0
LINE
8
BLACK
6
CONTINUOUS
10
0.212453
20
0.15215
11
0.204324
21
0.149493
0
LINE
8
BLACK
6
CONTINUOUS
10
0.204324
20
0.149493
11
0.204105
21
0.149401
0
LINE
8
BLACK
6
CONTINUOUS
10
0.204105
20
0.149401
11
0.196518
21
0.145452
0
LINE
8
BLACK
6
CONTINUOUS
10
0.196518
20
0.145452
11
0.196317
21
0.145325
0
LINE
8
BLACK
6
CONTINUOUS
10
0.196317
20
0.145325
11
0.189477
21
0.14019
0
LINE
8
BLACK
6
CONTINUOUS
10
0.189477
20
0.14019
11
0.189299
21
0.140031
0
LINE
8
BLACK
6
CONTINUOUS
10
0.189299
20
0.140031
11
0.18339
21
0.133848
0
LINE
8
BLACK
6
CONTINUOUS
10
0.18339
20
0.133848
11
0.18324
21
0.133663
0
LINE
8
BLACK
6
CONTINUOUS
10
0.18324
20
0.133663
11
0.178421
21
0.126598
0
LINE
8
BLACK
6
CONTINUOUS
10
0.178421
20
0.126598
11
0.178303
21
0.12639
0
LINE
8
BLACK
6
CONTINUOUS
10
0.178303
20
0.12639
11
0.174702
21
0.118633
0
LINE
8
BLACK
6
CONTINUOUS
10
0.174702
20
0.118633
11
0.17462
21
0.118409
0
LINE
8
BLACK
6
CONTINUOUS
10
0.17462
20
0.118409
11
0.172388
21
0.110362
0
LINE
8
BLACK
6
CONTINUOUS
10
0.172388
20
0.110362
11
0.172452
21
0.110104
0
LINE
8
BLACK
6
CONTINUOUS
10
0.172452
20
0.110104
11
0.172595
21
0.11
0
LINE
8
BLACK
6
CONTINUOUS
10
0.235093
20
0.152366
11
0.235
21
0.152255
0
LINE
8
BLACK
6
CONTINUOUS
10
0.235
20
0.152255
11
0.235
21
0.131899
0
LINE
8
BLACK
6
CONTINUOUS
10
0.235
20
0.131899
11
0.235341
21
0.131827
0
LINE
8
BLACK
6
CONTINUOUS
10
0.235341
20
0.131827
11
0.241732
21
0.128981
0
LINE
8
BLACK
6
CONTINUOUS
10
0.241732
20
0.128981
11
0.247392
21
0.124869
0
LINE
8
BLACK
6
CONTINUOUS
10
0.247392
20
0.124869
11
0.252073
21
0.11967
0
LINE
8
BLACK
6
CONTINUOUS
10
0.252073
20
0.11967
11
0.255571
21
0.113611
0
LINE
8
BLACK
6
CONTINUOUS
10
0.255571
20
0.113611
11
0.256745
21
0.11
0
LINE
8
BLACK
6
CONTINUOUS
10
0.256745
20
0.11
11
0.277103
21
0.11
0
LINE
8
BLACK
6
CONTINUOUS
10
0.277103
20
0.11
11
0.277496
21
0.110143
0
LINE
8
BLACK
6
CONTINUOUS
10
0.277496
20
0.110143
11
0.277544
21
0.110226
0
LINE
8
BLACK
6
CONTINUOUS
10
0.277544
20
0.110226
11
0.277542
21
0.110298
0
LINE
8
BLACK
6
CONTINUOUS
10
0.277542
20
0.110298
11
0.275815
21
0.117173
0
LINE
8
BLACK
6
CONTINUOUS
10
0.275815
20
0.117173
11
0.275738
21
0.117398
0
LINE
8
BLACK
6
CONTINUOUS
10
0.275738
20
0.117398
11
0.272328
21
0.125242
0
LINE
8
BLACK
6
CONTINUOUS
10
0.272328
20
0.125242
11
0.272215
21
0.125451
0
LINE
8
BLACK
6
CONTINUOUS
10
0.272215
20
0.125451
11
0.267569
21
0.132633
0
LINE
8
BLACK
6
CONTINUOUS
10
0.267569
20
0.132633
11
0.267424
21
0.132821
0
LINE
8
BLACK
6
CONTINUOUS
10
0.267424
20
0.132821
11
0.261668
21
0.139147
0
LINE
8
BLACK
6
CONTINUOUS
10
0.261668
20
0.139147
11
0.261494
21
0.13931
0
LINE
8
BLACK
6
CONTINUOUS
10
0.261494
20
0.13931
11
0.254782
21
0.14461
0
LINE
8
BLACK
6
CONTINUOUS
10
0.254782
20
0.14461
11
0.254584
21
0.144742
0
LINE
8
BLACK
6
CONTINUOUS
10
0.254584
20
0.144742
11
0.247096
21
0.148875
0
LINE
8
BLACK
6
CONTINUOUS
10
0.247096
20
0.148875
11
0.246879
21
0.148973
0
LINE
8
BLACK
6
CONTINUOUS
10
0.246879
20
0.148973
11
0.238817
21
0.151828
0
LINE
8
BLACK
6
CONTINUOUS
10
0.238817
20
0.151828
11
0.238586
21
0.151889
0
LINE
8
BLACK
6
CONTINUOUS
10
0.238586
20
0.151889
11
0.235506
21
0.152438
0
LINE
8
BLACK
6
CONTINUOUS
10
0.235506
20
0.152438
11
0.235093
21
0.152366
0
LINE
8
BLACK
6
CONTINUOUS
10
-0.527085
20
0.246111
11
-0.526655
21
0.242848
0
LINE
8
BLACK
6
CONTINUOUS
10
-0.526655
20
0.242848
11
-0.524273
21
0.237097
0
LINE
8
BLACK
6
CONTINUOUS
10
-0.524273
20
0.237097
11
-0.524157
21
0.236945
0
LINE
8
BLACK
6
CONTINUOUS
10
-0.524157
20
0.236945
11
-0.524157
21
0.236945
0
LINE
8
BLACK
6
CONTINUOUS
10
-0.524157
20
0.236945
11
-0.522074
21
0.23423
0
LINE
8
BLACK
6
CONTINUOUS
10
-0.522074
20
0.23423
11
-0.520484
21
0.232158
0
LINE
8
BLACK
6
CONTINUOUS
10
-0.520484
20
0.232158
11
-0.520332
21
0.232042
0
LINE
8
BLACK
6
CONTINUOUS
10
-0.520332
20
0.232042
11
-0.515696
21
0.228485
0
LINE
8
BLACK
6
CONTINUOUS
10
-0.515696
20
0.228485
11
-0.515696
21
0.228485
0
LINE
8
BLACK
6
CONTINUOUS
10
-0.515696
20
0.228485
11
-0.515545
21
0.228369
0
LINE
8
BLACK
6
CONTINUOUS
10
-0.515545
20
0.228369
11
-0.509794
21
0.225986
0
LINE
8
BLACK
6
CONTINUOUS
10
-0.509794
20
0.225986
11
-0.509605
21
0.225961
0
LINE
8
BLACK
6
CONTINUOUS
10
-0.509605
20
0.225961
11
-0.509605
21
0.225961
0
LINE
8
BLACK
6
CONTINUOUS
10
-0.509605
20
0.225961
11
-0.503811
21
0.225199
0
LINE
8
BLACK
6
CONTINUOUS
10
-0.503811
20
0.225199
11
-0.503622
21
0.225174
0
LINE
8
BLACK
6
CONTINUOUS
10
-0.503622
20
0.225174
11
-0.503433
21
0.225199
0
LINE
8
BLACK
6
CONTINUOUS
10
-0.503433
20
0.225199
11
-0.497639
21
0.225961
0
LINE
8
BLACK
6
CONTINUOUS
10
-0.497639
20
0.225961
11
-0.497639
21
0.225961
0
LINE
8
BLACK
6
CONTINUOUS
10
-0.497639
20
0.225961
11
-0.49745
21
0.225986
0
LINE
8
BLACK
6
CONTINUOUS
10
-0.49745
20
0.225986
11
-0.495178
21
0.226928
0
LINE
8
BLACK
6
CONTINUOUS
10
-0.495178
20
0.226928
11
-0.494063
21
0.227149
0
LINE
8
BLACK
6
CONTINUOUS
10
-0.494063
20
0.227149
11
-0.154341
21
0.227149
0
LINE
8
BLACK
6
CONTINUOUS
10
-0.154341
20
0.227149
11
-0.153998
21
0.227129
0
LINE
8
BLACK
6
CONTINUOUS
10
-0.153998
20
0.227129
11
-0.15354
21
0.227075
0
LINE
8
BLACK
6
CONTINUOUS
10
-0.15354
20
0.227075
11
-0.152551
21
0.226958
0
LINE
8
BLACK
6
CONTINUOUS
10
-0.152551
20
0.226958
11
-0.152337
21
0.226997
0
LINE
8
BLACK
6
CONTINUOUS
10
-0.152337
20
0.226997
11
-0.152337
21
0.226997
0
LINE
8
BLACK
6
CONTINUOUS
10
-0.152337
20
0.226997
11
-0.150248
21
0.227379
0
LINE
8
BLACK
6
CONTINUOUS
10
-0.150248
20
0.227379
11
-0.150158
21
0.227394
0
LINE
8
BLACK
6
CONTINUOUS
10
-0.150158
20
0.227394
11
-0.148055
21
0.22771
0
LINE
8
BLACK
6
CONTINUOUS
10
-0.148055
20
0.22771
11
-0.148055
21
0.22771
0
LINE
8
BLACK
6
CONTINUOUS
10
-0.148055
20
0.22771
11
-0.14784
21
0.227742
0
LINE
8
BLACK
6
CONTINUOUS
10
-0.14784
20
0.227742
11
-0.14765
21
0.227833
0
LINE
8
BLACK
6
CONTINUOUS
10
-0.14765
20
0.227833
11
-0.147637
21
0.227837
0
LINE
8
BLACK
6
CONTINUOUS
10
-0.147637
20
0.227837
11
-0.147626
21
0.22784
0
LINE
8
BLACK
6
CONTINUOUS
10
-0.147626
20
0.22784
11
-0.147538
21
0.227869
0
LINE
8
BLACK
6
CONTINUOUS
10
-0.147538
20
0.227869
11
-0.147526
21
0.227873
0
LINE
8
BLACK
6
CONTINUOUS
10
-0.147526
20
0.227873
11
-0.147512
21
0.227878
0
LINE
8
BLACK
6
CONTINUOUS
10
-0.147512
20
0.227878
11
-0.147304
21
0.227916
0
LINE
8
BLACK
6
CONTINUOUS
10
-0.147304
20
0.227916
11
-0.145227
21
0.228995
0
LINE
8
BLACK
6
CONTINUOUS
10
-0.145227
20
0.228995
11
-0.145145
21
0.229036
0
LINE
8
BLACK
6
CONTINUOUS
10
-0.145145
20
0.229036
11
-0.143229
21
0.229956
0
LINE
8
BLACK
6
CONTINUOUS
10
-0.143229
20
0.229956
11
-0.143229
21
0.229956
0
LINE
8
BLACK
6
CONTINUOUS
10
-0.143229
20
0.229956
11
-0.143032
21
0.230051
0
LINE
8
BLACK
6
CONTINUOUS
10
-0.143032
20
0.230051
11
-0.142877
21
0.230194
0
LINE
8
BLACK
6
CONTINUOUS
10
-0.142877
20
0.230194
11
-0.142841
21
0.230216
0
LINE
8
BLACK
6
CONTINUOUS
10
-0.142841
20
0.230216
11
-0.142719
21
0.230298
0
LINE
8
BLACK
6
CONTINUOUS
10
-0.142719
20
0.230298
11
-0.142571
21
0.230375
0
LINE
8
BLACK
6
CONTINUOUS
10
-0.142571
20
0.230375
11
-0.142373
21
0.230544
0
LINE
8
BLACK
6
CONTINUOUS
10
-0.142373
20
0.230544
11
-0.140878
21
0.232039
0
LINE
8
BLACK
6
CONTINUOUS
10
-0.140878
20
0.232039
11
-0.140796
21
0.232118
0
LINE
8
BLACK
6
CONTINUOUS
10
-0.140796
20
0.232118
11
-0.139276
21
0.233523
0
LINE
8
BLACK
6
CONTINUOUS
10
-0.139276
20
0.233523
11
-0.139116
21
0.233671
0
LINE
8
BLACK
6
CONTINUOUS
10
-0.139116
20
0.233671
11
-0.139007
21
0.233859
0
LINE
8
BLACK
6
CONTINUOUS
10
-0.139007
20
0.233859
11
-0.138901
21
0.233992
0
LINE
8
BLACK
6
CONTINUOUS
10
-0.138901
20
0.233992
11
-0.138687
21
0.23423
0
LINE
8
BLACK
6
CONTINUOUS
10
-0.138687
20
0.23423
11
-0.133275
21
0.239643
0
LINE
8
BLACK
6
CONTINUOUS
10
-0.133275
20
0.239643
11
-0.131595
21
0.240471
0
LINE
8
BLACK
6
CONTINUOUS
10
-0.131595
20
0.240471
11
-0.130264
21
0.240646
0
LINE
8
BLACK
6
CONTINUOUS
10
-0.130264
20
0.240646
11
-0.128017
21
0.240942
0
LINE
8
BLACK
6
CONTINUOUS
10
-0.128017
20
0.240942
11
-0.128017
21
0.240942
0
LINE
8
BLACK
6
CONTINUOUS
10
-0.128017
20
0.240942
11
-0.127828
21
0.240967
0
LINE
8
BLACK
6
CONTINUOUS
10
-0.127828
20
0.240967
11
-0.122077
21
0.243349
0
LINE
8
BLACK
6
CONTINUOUS
10
-0.122077
20
0.243349
11
-0.121926
21
0.243465
0
LINE
8
BLACK
6
CONTINUOUS
10
-0.121926
20
0.243465
11
-0.121926
21
0.243465
0
LINE
8
BLACK
6
CONTINUOUS
10
-0.121926
20
0.243465
11
-0.119063
21
0.245662
0
LINE
8
BLACK
6
CONTINUOUS
10
-0.119063
20
0.245662
11
-0.11729
21
0.246264
0
LINE
8
BLACK
6
CONTINUOUS
10
-0.11729
20
0.246264
11
0.0856082
21
0.246264
0
LINE
8
BLACK
6
CONTINUOUS
10
0.0856082
20
0.246264
11
0.0859506
21
0.246244
0
LINE
8
BLACK
6
CONTINUOUS
10
0.0859506
20
0.246244
11
0.0864091
21
0.246189
0
LINE
8
BLACK
6
CONTINUOUS
10
0.0864091
20
0.246189
11
0.087398
21
0.246072
0
LINE
8
BLACK
6
CONTINUOUS
10
0.087398
20
0.246072
11
0.0876123
21
0.246111
0
LINE
8
BLACK
6
CONTINUOUS
10
0.0876123
20
0.246111
11
0.0876124
21
0.246111
0
LINE
8
BLACK
6
CONTINUOUS
10
0.0876124
20
0.246111
11
0.0897008
21
0.246493
0
LINE
8
BLACK
6
CONTINUOUS
10
0.0897008
20
0.246493
11
0.0897911
21
0.246508
0
LINE
8
BLACK
6
CONTINUOUS
10
0.0897911
20
0.246508
11
0.0918935
21
0.246824
0
LINE
8
BLACK
6
CONTINUOUS
10
0.0918935
20
0.246824
11
0.0918936
21
0.246824
0
LINE
8
BLACK
6
CONTINUOUS
10
0.0918936
20
0.246824
11
0.0921087
21
0.246856
0
LINE
8
BLACK
6
CONTINUOUS
10
0.0921087
20
0.246856
11
0.0922991
21
0.246948
0
LINE
8
BLACK
6
CONTINUOUS
10
0.0922991
20
0.246948
11
0.0923124
21
0.246951
0
LINE
8
BLACK
6
CONTINUOUS
10
0.0923124
20
0.246951
11
0.0923228
21
0.246955
0
LINE
8
BLACK
6
CONTINUOUS
10
0.0923228
20
0.246955
11
0.0924109
21
0.246983
0
LINE
8
BLACK
6
CONTINUOUS
10
0.0924109
20
0.246983
11
0.0924231
21
0.246987
0
LINE
8
BLACK
6
CONTINUOUS
10
0.0924231
20
0.246987
11
0.0924369
21
0.246993
0
LINE
8
BLACK
6
CONTINUOUS
10
0.0924369
20
0.246993
11
0.0926446
21
0.247031
0
LINE
8
BLACK
6
CONTINUOUS
10
0.0926446
20
0.247031
11
0.0947221
21
0.24811
0
LINE
8
BLACK
6
CONTINUOUS
10
0.0947221
20
0.24811
11
0.0948037
21
0.24815
0
LINE
8
BLACK
6
CONTINUOUS
10
0.0948037
20
0.24815
11
0.0967202
21
0.249071
0
LINE
8
BLACK
6
CONTINUOUS
10
0.0967202
20
0.249071
11
0.0967202
21
0.249071
0
LINE
8
BLACK
6
CONTINUOUS
10
0.0967202
20
0.249071
11
0.0969165
21
0.249165
0
LINE
8
BLACK
6
CONTINUOUS
10
0.0969165
20
0.249165
11
0.0970718
21
0.249309
0
LINE
8
BLACK
6
CONTINUOUS
10
0.0970718
20
0.249309
11
0.0971075
21
0.24933
0
LINE
8
BLACK
6
CONTINUOUS
10
0.0971075
20
0.24933
11
0.09723
21
0.249412
0
LINE
8
BLACK
6
CONTINUOUS
10
0.09723
20
0.249412
11
0.0973775
21
0.249489
0
LINE
8
BLACK
6
CONTINUOUS
10
0.0973775
20
0.249489
11
0.0975759
21
0.249658
0
LINE
8
BLACK
6
CONTINUOUS
10
0.0975759
20
0.249658
11
0.0990708
21
0.251153
0
LINE
8
BLACK
6
CONTINUOUS
10
0.0990708
20
0.251153
11
0.0991533
21
0.251233
0
LINE
8
BLACK
6
CONTINUOUS
10
0.0991533
20
0.251233
11
0.100673
21
0.252638
0
LINE
8
BLACK
6
CONTINUOUS
10
0.100673
20
0.252638
11
0.100833
21
0.252785
0
LINE
8
BLACK
6
CONTINUOUS
10
0.100833
20
0.252785
11
0.100942
21
0.252974
0
LINE
8
BLACK
6
CONTINUOUS
10
0.100942
20
0.252974
11
0.101048
21
0.253106
0
LINE
8
BLACK
6
CONTINUOUS
10
0.101048
20
0.253106
11
0.101262
21
0.253345
0
LINE
8
BLACK
6
CONTINUOUS
10
0.101262
20
0.253345
11
0.122773
21
0.274855
0
LINE
8
BLACK
6
CONTINUOUS
10
0.122773
20
0.274855
11
0.124452
21
0.275684
0
LINE
8
BLACK
6
CONTINUOUS
10
0.124452
20
0.275684
11
0.125783
21
0.275859
0
LINE
8
BLACK
6
CONTINUOUS
10
0.125783
20
0.275859
11
0.12803
21
0.276154
0
LINE
8
BLACK
6
CONTINUOUS
10
0.12803
20
0.276154
11
0.12803
21
0.276154
0
LINE
8
BLACK
6
CONTINUOUS
10
0.12803
20
0.276154
11
0.128219
21
0.276179
0
LINE
8
BLACK
6
CONTINUOUS
10
0.128219
20
0.276179
11
0.13397
21
0.278562
0
LINE
8
BLACK
6
CONTINUOUS
10
0.13397
20
0.278562
11
0.134121
21
0.278678
0
LINE
8
BLACK
6
CONTINUOUS
10
0.134121
20
0.278678
11
0.134122
21
0.278678
0
LINE
8
BLACK
6
CONTINUOUS
10
0.134122
20
0.278678
11
0.138757
21
0.282235
0
LINE
8
BLACK
6
CONTINUOUS
10
0.138757
20
0.282235
11
0.138909
21
0.282351
0
LINE
8
BLACK
6
CONTINUOUS
10
0.138909
20
0.282351
11
0.139092
21
0.28259
0
LINE
8
BLACK
6
CONTINUOUS
10
0.139092
20
0.28259
11
0.142582
21
0.287138
0
LINE
8
BLACK
6
CONTINUOUS
10
0.142582
20
0.287138
11
0.142582
21
0.287138
0
LINE
8
BLACK
6
CONTINUOUS
10
0.142582
20
0.287138
11
0.142698
21
0.28729
0
LINE
8
BLACK
6
CONTINUOUS
10
0.142698
20
0.28729
11
0.14508
21
0.293041
0
LINE
8
BLACK
6
CONTINUOUS
10
0.14508
20
0.293041
11
0.145893
21
0.299213
0
LINE
8
BLACK
6
CONTINUOUS
10
0.145893
20
0.299213
11
0.14508
21
0.305384
0
LINE
8
BLACK
6
CONTINUOUS
10
0.14508
20
0.305384
11
0.142698
21
0.311135
0
LINE
8
BLACK
6
CONTINUOUS
10
0.142698
20
0.311135
11
0.142582
21
0.311287
0
LINE
8
BLACK
6
CONTINUOUS
10
0.142582
20
0.311287
11
0.142582
21
0.311287
0
LINE
8
BLACK
6
CONTINUOUS
10
0.142582
20
0.311287
11
0.139025
21
0.315922
0
LINE
8
BLACK
6
CONTINUOUS
10
0.139025
20
0.315922
11
0.138909
21
0.316074
0
LINE
8
BLACK
6
CONTINUOUS
10
0.138909
20
0.316074
11
0.138757
21
0.31619
0
LINE
8
BLACK
6
CONTINUOUS
10
0.138757
20
0.31619
11
0.134122
21
0.319747
0
LINE
8
BLACK
6
CONTINUOUS
10
0.134122
20
0.319747
11
0.134121
21
0.319747
0
LINE
8
BLACK
6
CONTINUOUS
10
0.134121
20
0.319747
11
0.13397
21
0.319864
0
LINE
8
BLACK
6
CONTINUOUS
10
0.13397
20
0.319864
11
0.128219
21
0.322246
0
LINE
8
BLACK
6
CONTINUOUS
10
0.128219
20
0.322246
11
0.12803
21
0.322271
0
LINE
8
BLACK
6
CONTINUOUS
10
0.12803
20
0.322271
11
0.12803
21
0.322271
0
LINE
8
BLACK
6
CONTINUOUS
10
0.12803
20
0.322271
11
0.122237
21
0.323033
0
LINE
8
BLACK
6
CONTINUOUS
10
0.122237
20
0.323033
11
0.122047
21
0.323058
0
LINE
8
BLACK
6
CONTINUOUS
10
0.122047
20
0.323058
11
0.121858
21
0.323033
0
LINE
8
BLACK
6
CONTINUOUS
10
0.121858
20
0.323033
11
0.116065
21
0.322271
0
LINE
8
BLACK
6
CONTINUOUS
10
0.116065
20
0.322271
11
0.116065
21
0.322271
0
LINE
8
BLACK
6
CONTINUOUS
10
0.116065
20
0.322271
11
0.115876
21
0.322246
0
LINE
8
BLACK
6
CONTINUOUS
10
0.115876
20
0.322246
11
0.110124
21
0.319864
0
LINE
8
BLACK
6
CONTINUOUS
10
0.110124
20
0.319864
11
0.109973
21
0.319747
0
LINE
8
BLACK
6
CONTINUOUS
10
0.109973
20
0.319747
11
0.109973
21
0.319747
0
LINE
8
BLACK
6
CONTINUOUS
10
0.109973
20
0.319747
11
0.105337
21
0.31619
0
LINE
8
BLACK
6
CONTINUOUS
10
0.105337
20
0.31619
11
0.105186
21
0.316074
0
LINE
8
BLACK
6
CONTINUOUS
10
0.105186
20
0.316074
11
0.105069
21
0.315922
0
LINE
8
BLACK
6
CONTINUOUS
10
0.105069
20
0.315922
11
0.101512
21
0.311287
0
LINE
8
BLACK
6
CONTINUOUS
10
0.101512
20
0.311287
11
0.101512
21
0.311287
0
LINE
8
BLACK
6
CONTINUOUS
10
0.101512
20
0.311287
11
0.101396
21
0.311135
0
LINE
8
BLACK
6
CONTINUOUS
10
0.101396
20
0.311135
11
0.099014
21
0.305384
0
LINE
8
BLACK
6
CONTINUOUS
10
0.099014
20
0.305384
11
0.0989891
21
0.305195
0
LINE
8
BLACK
6
CONTINUOUS
10
0.0989891
20
0.305195
11
0.0989891
21
0.305195
0
LINE
8
BLACK
6
CONTINUOUS
10
0.0989891
20
0.305195
11
0.0985181
21
0.301618
0
LINE
8
BLACK
6
CONTINUOUS
10
0.0985181
20
0.301618
11
0.0976898
21
0.299938
0
LINE
8
BLACK
6
CONTINUOUS
10
0.0976898
20
0.299938
11
0.0803414
21
0.28259
0
LINE
8
BLACK
6
CONTINUOUS
10
0.0803414
20
0.28259
11
0.0785352
21
0.281747
0
LINE
8
BLACK
6
CONTINUOUS
10
0.0785352
20
0.281747
11
0.0782813
21
0.281736
0
LINE
8
BLACK
6
CONTINUOUS
10
0.0782813
20
0.281736
11
-0.11729
21
0.281736
0
LINE
8
BLACK
6
CONTINUOUS
10
-0.11729
20
0.281736
11
-0.119063
21
0.282338
0
LINE
8
BLACK
6
CONTINUOUS
10
-0.119063
20
0.282338
11
-0.121926
21
0.284535
0
LINE
8
BLACK
6
CONTINUOUS
10
-0.121926
20
0.284535
11
-0.121926
21
0.284535
0
LINE
8
BLACK
6
CONTINUOUS
10
-0.121926
20
0.284535
11
-0.122077
21
0.284651
0
LINE
8
BLACK
6
CONTINUOUS
10
-0.122077
20
0.284651
11
-0.127828
21
0.287033
0
LINE
8
BLACK
6
CONTINUOUS
10
-0.127828
20
0.287033
11
-0.128017
21
0.287058
0
LINE
8
BLACK
6
CONTINUOUS
10
-0.128017
20
0.287058
11
-0.128017
21
0.287058
0
LINE
8
BLACK
6
CONTINUOUS
10
-0.128017
20
0.287058
11
-0.133811
21
0.287821
0
LINE
8
BLACK
6
CONTINUOUS
10
-0.133811
20
0.287821
11
-0.134
21
0.287846
0
LINE
8
BLACK
6
CONTINUOUS
10
-0.134
20
0.287846
11
-0.134189
21
0.287821
0
LINE
8
BLACK
6
CONTINUOUS
10
-0.134189
20
0.287821
11
-0.139983
21
0.287058
0
LINE
8
BLACK
6
CONTINUOUS
10
-0.139983
20
0.287058
11
-0.139983
21
0.287058
0
LINE
8
BLACK
6
CONTINUOUS
10
-0.139983
20
0.287058
11
-0.140172
21
0.287033
0
LINE
8
BLACK
6
CONTINUOUS
10
-0.140172
20
0.287033
11
-0.145923
21
0.284651
0
LINE
8
BLACK
6
CONTINUOUS
10
-0.145923
20
0.284651
11
-0.146074
21
0.284535
0
LINE
8
BLACK
6
CONTINUOUS
10
-0.146074
20
0.284535
11
-0.146074
21
0.284535
0
LINE
8
BLACK
6
CONTINUOUS
10
-0.146074
20
0.284535
11
-0.149722
21
0.281736
0
LINE
8
BLACK
6
CONTINUOUS
10
-0.149722
20
0.281736
11
-0.150861
21
0.280861
0
LINE
8
BLACK
6
CONTINUOUS
10
-0.150861
20
0.280861
11
-0.150978
21
0.28071
0
LINE
8
BLACK
6
CONTINUOUS
10
-0.150978
20
0.28071
11
-0.154535
21
0.276074
0
LINE
8
BLACK
6
CONTINUOUS
10
-0.154535
20
0.276074
11
-0.154535
21
0.276074
0
LINE
8
BLACK
6
CONTINUOUS
10
-0.154535
20
0.276074
11
-0.154651
21
0.275923
0
LINE
8
BLACK
6
CONTINUOUS
10
-0.154651
20
0.275923
11
-0.157033
21
0.270172
0
LINE
8
BLACK
6
CONTINUOUS
10
-0.157033
20
0.270172
11
-0.157058
21
0.269983
0
LINE
8
BLACK
6
CONTINUOUS
10
-0.157058
20
0.269983
11
-0.157058
21
0.269983
0
LINE
8
BLACK
6
CONTINUOUS
10
-0.157058
20
0.269983
11
-0.157529
21
0.266405
0
LINE
8
BLACK
6
CONTINUOUS
10
-0.157529
20
0.266405
11
-0.158357
21
0.264725
0
LINE
8
BLACK
6
CONTINUOUS
10
-0.158357
20
0.264725
11
-0.159608
21
0.263475
0
LINE
8
BLACK
6
CONTINUOUS
10
-0.159608
20
0.263475
11
-0.161414
21
0.262633
0
LINE
8
BLACK
6
CONTINUOUS
10
-0.161414
20
0.262633
11
-0.161668
21
0.262622
0
LINE
8
BLACK
6
CONTINUOUS
10
-0.161668
20
0.262622
11
-0.482823
21
0.262622
0
LINE
8
BLACK
6
CONTINUOUS
10
-0.482823
20
0.262622
11
-0.484696
21
0.263304
0
LINE
8
BLACK
6
CONTINUOUS
10
-0.484696
20
0.263304
11
-0.485134
21
0.263762
0
LINE
8
BLACK
6
CONTINUOUS
10
-0.485134
20
0.263762
11
-0.486644
21
0.265729
0
LINE
8
BLACK
6
CONTINUOUS
10
-0.486644
20
0.265729
11
-0.486761
21
0.265881
0
LINE
8
BLACK
6
CONTINUOUS
10
-0.486761
20
0.265881
11
-0.486912
21
0.265997
0
LINE
8
BLACK
6
CONTINUOUS
10
-0.486912
20
0.265997
11
-0.491548
21
0.269554
0
LINE
8
BLACK
6
CONTINUOUS
10
-0.491548
20
0.269554
11
-0.491548
21
0.269554
0
LINE
8
BLACK
6
CONTINUOUS
10
-0.491548
20
0.269554
11
-0.491699
21
0.269671
0
LINE
8
BLACK
6
CONTINUOUS
10
-0.491699
20
0.269671
11
-0.49745
21
0.272053
0
LINE
8
BLACK
6
CONTINUOUS
10
-0.49745
20
0.272053
11
-0.497639
21
0.272078
0
LINE
8
BLACK
6
CONTINUOUS
10
-0.497639
20
0.272078
11
-0.497639
21
0.272078
0
LINE
8
BLACK
6
CONTINUOUS
10
-0.497639
20
0.272078
11
-0.503433
21
0.27284
0
LINE
8
BLACK
6
CONTINUOUS
10
-0.503433
20
0.27284
11
-0.503622
21
0.272865
0
LINE
8
BLACK
6
CONTINUOUS
10
-0.503622
20
0.272865
11
-0.503811
21
0.27284
0
LINE
8
BLACK
6
CONTINUOUS
10
-0.503811
20
0.27284
11
-0.509605
21
0.272078
0
LINE
8
BLACK
6
CONTINUOUS
10
-0.509605
20
0.272078
11
-0.509605
21
0.272078
0
LINE
8
BLACK
6
CONTINUOUS
10
-0.509605
20
0.272078
11
-0.509794
21
0.272053
0
LINE
8
BLACK
6
CONTINUOUS
10
-0.509794
20
0.272053
11
-0.515545
21
0.269671
0
LINE
8
BLACK
6
CONTINUOUS
10
-0.515545
20
0.269671
11
-0.515696
21
0.269554
0
LINE
8
BLACK
6
CONTINUOUS
10
-0.515696
20
0.269554
11
-0.515696
21
0.269554
0
LINE
8
BLACK
6
CONTINUOUS
10
-0.515696
20
0.269554
11
-0.520332
21
0.265997
0
LINE
8
BLACK
6
CONTINUOUS
10
-0.520332
20
0.265997
11
-0.520484
21
0.265881
0
LINE
8
BLACK
6
CONTINUOUS
10
-0.520484
20
0.265881
11
-0.5206
21
0.265729
0
LINE
8
BLACK
6
CONTINUOUS
10
-0.5206
20
0.265729
11
-0.524157
21
0.261094
0
LINE
8
BLACK
6
CONTINUOUS
10
-0.524157
20
0.261094
11
-0.524157
21
0.261094
0
LINE
8
BLACK
6
CONTINUOUS
10
-0.524157
20
0.261094
11
-0.524273
21
0.260942
0
LINE
8
BLACK
6
CONTINUOUS
10
-0.524273
20
0.260942
11
-0.526655
21
0.255191
0
LINE
8
BLACK
6
CONTINUOUS
10
-0.526655
20
0.255191
11
-0.52668
21
0.255002
0
LINE
8
BLACK
6
CONTINUOUS
10
-0.52668
20
0.255002
11
-0.52668
21
0.255002
0
LINE
8
BLACK
6
CONTINUOUS
10
-0.52668
20
0.255002
11
-0.527182
21
0.251194
0
LINE
8
BLACK
6
CONTINUOUS
10
-0.527182
20
0.251194
11
-0.527468
21
0.24902
0
LINE
8
BLACK
6
CONTINUOUS
10
-0.527468
20
0.24902
11
-0.527443
21
0.24883
0
LINE
8
BLACK
6
CONTINUOUS
10
-0.527443
20
0.24883
11
-0.527085
21
0.246111
0
LINE
8
BLACK
6
CONTINUOUS
10
-0.456899
20
-0.303261
11
-0.456792
21
-0.30401
0
LINE
8
BLACK
6
CONTINUOUS
10
-0.456792
20
-0.30401
11
-0.456774
21
-0.304169
0
LINE
8
BLACK
6
CONTINUOUS
10
-0.456774
20
-0.304169
11
-0.456262
21
-0.310016
0
LINE
8
BLACK
6
CONTINUOUS
10
-0.456262
20
-0.310016
11
-0.454478
21
-0.316673
0
LINE
8
BLACK
6
CONTINUOUS
10
-0.454478
20
-0.316673
11
-0.451566
21
-0.32292
0
LINE
8
BLACK
6
CONTINUOUS
10
-0.451566
20
-0.32292
11
-0.447612
21
-0.328566
0
LINE
8
BLACK
6
CONTINUOUS
10
-0.447612
20
-0.328566
11
-0.442739
21
-0.333439
0
LINE
8
BLACK
6
CONTINUOUS
10
-0.442739
20
-0.333439
11
-0.437093
21
-0.337392
0
LINE
8
BLACK
6
CONTINUOUS
10
-0.437093
20
-0.337392
11
-0.436978
21
-0.337446
0
LINE
8
BLACK
6
CONTINUOUS
10
-0.436978
20
-0.337446
11
-0.436978
21
-0.337446
0
LINE
8
BLACK
6
CONTINUOUS
10
-0.436978
20
-0.337446
11
-0.431809
21
-0.339856
0
LINE
8
BLACK
6
CONTINUOUS
10
-0.431809
20
-0.339856
11
-0.430846
21
-0.340305
0
LINE
8
BLACK
6
CONTINUOUS
10
-0.430846
20
-0.340305
11
-0.424189
21
-0.342089
0
LINE
8
BLACK
6
CONTINUOUS
10
-0.424189
20
-0.342089
11
-0.424062
21
-0.3421
0
LINE
8
BLACK
6
CONTINUOUS
10
-0.424062
20
-0.3421
11
-0.424062
21
-0.3421
0
LINE
8
BLACK
6
CONTINUOUS
10
-0.424062
20
-0.3421
11
-0.419024
21
-0.342541
0
LINE
8
BLACK
6
CONTINUOUS
10
-0.419024
20
-0.342541
11
-0.418794
21
-0.34257
0
LINE
8
BLACK
6
CONTINUOUS
10
-0.418794
20
-0.34257
11
-0.41792
21
-0.342717
0
LINE
8
BLACK
6
CONTINUOUS
10
-0.41792
20
-0.342717
11
-0.41792
21
-0.342717
0
LINE
8
BLACK
6
CONTINUOUS
10
-0.41792
20
-0.342717
11
-0.417809
21
-0.342736
0
LINE
8
BLACK
6
CONTINUOUS
10
-0.417809
20
-0.342736
11
-0.417697
21
-0.342737
0
LINE
8
BLACK
6
CONTINUOUS
10
-0.417697
20
-0.342737
11
-0.417598
21
-0.342739
0
LINE
8
BLACK
6
CONTINUOUS
10
-0.417598
20
-0.342739
11
-0.417323
21
-0.342742
0
LINE
8
BLACK
6
CONTINUOUS
10
-0.417323
20
-0.342742
11
-0.416113
21
-0.342569
0
LINE
8
BLACK
6
CONTINUOUS
10
-0.416113
20
-0.342569
11
-0.4157
21
-0.342539
0
LINE
8
BLACK
6
CONTINUOUS
10
-0.4157
20
-0.342539
11
-0.371977
21
-0.342539
0
LINE
8
BLACK
6
CONTINUOUS
10
-0.371977
20
-0.342539
11
-0.371494
21
-0.34258
0
LINE
8
BLACK
6
CONTINUOUS
10
-0.371494
20
-0.34258
11
-0.370565
21
-0.342736
0
LINE
8
BLACK
6
CONTINUOUS
10
-0.370565
20
-0.342736
11
-0.370452
21
-0.342737
0
LINE
8
BLACK
6
CONTINUOUS
10
-0.370452
20
-0.342737
11
-0.370386
21
-0.342738
0
LINE
8
BLACK
6
CONTINUOUS
10
-0.370386
20
-0.342738
11
-0.370079
21
-0.342742
0
LINE
8
BLACK
6
CONTINUOUS
10
-0.370079
20
-0.342742
11
-0.369967
21
-0.342726
0
LINE
8
BLACK
6
CONTINUOUS
10
-0.369967
20
-0.342726
11
-0.369967
21
-0.342726
0
LINE
8
BLACK
6
CONTINUOUS
10
-0.369967
20
-0.342726
11
-0.369224
21
-0.34262
0
LINE
8
BLACK
6
CONTINUOUS
10
-0.369224
20
-0.34262
11
-0.369065
21
-0.342601
0
LINE
8
BLACK
6
CONTINUOUS
10
-0.369065
20
-0.342601
11
-0.366314
21
-0.342361
0
LINE
8
BLACK
6
CONTINUOUS
10
-0.366314
20
-0.342361
11
-0.363213
21
-0.342089
0
LINE
8
BLACK
6
CONTINUOUS
10
-0.363213
20
-0.342089
11
-0.356555
21
-0.340305
0
LINE
8
BLACK
6
CONTINUOUS
10
-0.356555
20
-0.340305
11
-0.354772
21
-0.339474
0
LINE
8
BLACK
6
CONTINUOUS
10
-0.354772
20
-0.339474
11
-0.350424
21
-0.337446
0
LINE
8
BLACK
6
CONTINUOUS
10
-0.350424
20
-0.337446
11
-0.350424
21
-0.337446
0
LINE
8
BLACK
6
CONTINUOUS
10
-0.350424
20
-0.337446
11
-0.350309
21
-0.337393
0
LINE
8
BLACK
6
CONTINUOUS
10
-0.350309
20
-0.337393
11
-0.344663
21
-0.333439
0
LINE
8
BLACK
6
CONTINUOUS
10
-0.344663
20
-0.333439
11
-0.339789
21
-0.328566
0
LINE
8
BLACK
6
CONTINUOUS
10
-0.339789
20
-0.328566
11
-0.335836
21
-0.32292
0
LINE
8
BLACK
6
CONTINUOUS
10
-0.335836
20
-0.32292
11
-0.332923
21
-0.316673
0
LINE
8
BLACK
6
CONTINUOUS
10
-0.332923
20
-0.316673
11
-0.331139
21
-0.310016
0
LINE
8
BLACK
6
CONTINUOUS
10
-0.331139
20
-0.310016
11
-0.330687
21
-0.304851
0
LINE
8
BLACK
6
CONTINUOUS
10
-0.330687
20
-0.304851
11
-0.330658
21
-0.304621
0
LINE
8
BLACK
6
CONTINUOUS
10
-0.330658
20
-0.304621
11
-0.330511
21
-0.303747
0
LINE
8
BLACK
6
CONTINUOUS
10
-0.330511
20
-0.303747
11
-0.330492
21
-0.303636
0
LINE
8
BLACK
6
CONTINUOUS
10
-0.330492
20
-0.303636
11
-0.330486
21
-0.303149
0
LINE
8
BLACK
6
CONTINUOUS
10
-0.330486
20
-0.303149
11
-0.33066
21
-0.30194
0
LINE
8
BLACK
6
CONTINUOUS
10
-0.33066
20
-0.30194
11
-0.330689
21
-0.301527
0
LINE
8
BLACK
6
CONTINUOUS
10
-0.330689
20
-0.301527
11
-0.330689
21
-0.24993
0
LINE
8
BLACK
6
CONTINUOUS
10
-0.330689
20
-0.24993
11
-0.330649
21
-0.249447
0
LINE
8
BLACK
6
CONTINUOUS
10
-0.330649
20
-0.249447
11
-0.330492
21
-0.248518
0
LINE
8
BLACK
6
CONTINUOUS
10
-0.330492
20
-0.248518
11
-0.330486
21
-0.248031
0
LINE
8
BLACK
6
CONTINUOUS
10
-0.330486
20
-0.248031
11
-0.330502
21
-0.24792
0
LINE
8
BLACK
6
CONTINUOUS
10
-0.330502
20
-0.24792
11
-0.330609
21
-0.247177
0
LINE
8
BLACK
6
CONTINUOUS
10
-0.330609
20
-0.247177
11
-0.330627
21
-0.247018
0
LINE
8
BLACK
6
CONTINUOUS
10
-0.330627
20
-0.247018
11
-0.33106
21
-0.242074
0
LINE
8
BLACK
6
CONTINUOUS
10
-0.33106
20
-0.242074
11
-0.331139
21
-0.241165
0
LINE
8
BLACK
6
CONTINUOUS
10
-0.331139
20
-0.241165
11
-0.332923
21
-0.234508
0
LINE
8
BLACK
6
CONTINUOUS
10
-0.332923
20
-0.234508
11
-0.334937
21
-0.230189
0
LINE
8
BLACK
6
CONTINUOUS
10
-0.334937
20
-0.230189
11
-0.335782
21
-0.228377
0
LINE
8
BLACK
6
CONTINUOUS
10
-0.335782
20
-0.228377
11
-0.335782
21
-0.228377
0
LINE
8
BLACK
6
CONTINUOUS
10
-0.335782
20
-0.228377
11
-0.335836
21
-0.228261
0
LINE
8
BLACK
6
CONTINUOUS
10
-0.335836
20
-0.228261
11
-0.339789
21
-0.222615
0
LINE
8
BLACK
6
CONTINUOUS
10
-0.339789
20
-0.222615
11
-0.344663
21
-0.217742
0
LINE
8
BLACK
6
CONTINUOUS
10
-0.344663
20
-0.217742
11
-0.350309
21
-0.213789
0
LINE
8
BLACK
6
CONTINUOUS
10
-0.350309
20
-0.213789
11
-0.356555
21
-0.210876
0
LINE
8
BLACK
6
CONTINUOUS
10
-0.356555
20
-0.210876
11
-0.35669
21
-0.21084
0
LINE
8
BLACK
6
CONTINUOUS
10
-0.35669
20
-0.21084
11
-0.36309
21
-0.209125
0
LINE
8
BLACK
6
CONTINUOUS
10
-0.36309
20
-0.209125
11
-0.363213
21
-0.209092
0
LINE
8
BLACK
6
CONTINUOUS
10
-0.363213
20
-0.209092
11
-0.363339
21
-0.209081
0
LINE
8
BLACK
6
CONTINUOUS
10
-0.363339
20
-0.209081
11
-0.363339
21
-0.209081
0
LINE
8
BLACK
6
CONTINUOUS
10
-0.363339
20
-0.209081
11
-0.368378
21
-0.20864
0
LINE
8
BLACK
6
CONTINUOUS
10
-0.368378
20
-0.20864
11
-0.368607
21
-0.208611
0
LINE
8
BLACK
6
CONTINUOUS
10
-0.368607
20
-0.208611
11
-0.369481
21
-0.208464
0
LINE
8
BLACK
6
CONTINUOUS
10
-0.369481
20
-0.208464
11
-0.369481
21
-0.208464
0
LINE
8
BLACK
6
CONTINUOUS
10
-0.369481
20
-0.208464
11
-0.369592
21
-0.208445
0
LINE
8
BLACK
6
CONTINUOUS
10
-0.369592
20
-0.208445
11
-0.369705
21
-0.208444
0
LINE
8
BLACK
6
CONTINUOUS
10
-0.369705
20
-0.208444
11
-0.369803
21
-0.208442
0
LINE
8
BLACK
6
CONTINUOUS
10
-0.369803
20
-0.208442
11
-0.370079
21
-0.208439
0
LINE
8
BLACK
6
CONTINUOUS
10
-0.370079
20
-0.208439
11
-0.370939
21
-0.208562
0
LINE
8
BLACK
6
CONTINUOUS
10
-0.370939
20
-0.208562
11
-0.371288
21
-0.208612
0
LINE
8
BLACK
6
CONTINUOUS
10
-0.371288
20
-0.208612
11
-0.371701
21
-0.208642
0
LINE
8
BLACK
6
CONTINUOUS
10
-0.371701
20
-0.208642
11
-0.415424
21
-0.208642
0
LINE
8
BLACK
6
CONTINUOUS
10
-0.415424
20
-0.208642
11
-0.415907
21
-0.208601
0
LINE
8
BLACK
6
CONTINUOUS
10
-0.415907
20
-0.208601
11
-0.416725
21
-0.208464
0
LINE
8
BLACK
6
CONTINUOUS
10
-0.416725
20
-0.208464
11
-0.416725
21
-0.208464
0
LINE
8
BLACK
6
CONTINUOUS
10
-0.416725
20
-0.208464
11
-0.416836
21
-0.208445
0
LINE
8
BLACK
6
CONTINUOUS
10
-0.416836
20
-0.208445
11
-0.416949
21
-0.208444
0
LINE
8
BLACK
6
CONTINUOUS
10
-0.416949
20
-0.208444
11
-0.416993
21
-0.208443
0
LINE
8
BLACK
6
CONTINUOUS
10
-0.416993
20
-0.208443
11
-0.417323
21
-0.208439
0
LINE
8
BLACK
6
CONTINUOUS
10
-0.417323
20
-0.208439
11
-0.417434
21
-0.208455
0
LINE
8
BLACK
6
CONTINUOUS
10
-0.417434
20
-0.208455
11
-0.417435
21
-0.208455
0
LINE
8
BLACK
6
CONTINUOUS
10
-0.417435
20
-0.208455
11
-0.418183
21
-0.208562
0
LINE
8
BLACK
6
CONTINUOUS
10
-0.418183
20
-0.208562
11
-0.418342
21
-0.208581
0
LINE
8
BLACK
6
CONTINUOUS
10
-0.418342
20
-0.208581
11
-0.424189
21
-0.209092
0
LINE
8
BLACK
6
CONTINUOUS
10
-0.424189
20
-0.209092
11
-0.430846
21
-0.210876
0
LINE
8
BLACK
6
CONTINUOUS
10
-0.430846
20
-0.210876
11
-0.430961
21
-0.21093
0
LINE
8
BLACK
6
CONTINUOUS
10
-0.430961
20
-0.21093
11
-0.430961
21
-0.21093
0
LINE
8
BLACK
6
CONTINUOUS
10
-0.430961
20
-0.21093
11
-0.436978
21
-0.213735
0
LINE
8
BLACK
6
CONTINUOUS
10
-0.436978
20
-0.213735
11
-0.436978
21
-0.213735
0
LINE
8
BLACK
6
CONTINUOUS
10
-0.436978
20
-0.213735
11
-0.437093
21
-0.213789
0
LINE
8
BLACK
6
CONTINUOUS
10
-0.437093
20
-0.213789
11
-0.437197
21
-0.213862
0
LINE
8
BLACK
6
CONTINUOUS
10
-0.437197
20
-0.213862
11
-0.442634
21
-0.217669
0
LINE
8
BLACK
6
CONTINUOUS
10
-0.442634
20
-0.217669
11
-0.442634
21
-0.217669
0
LINE
8
BLACK
6
CONTINUOUS
10
-0.442634
20
-0.217669
11
-0.442739
21
-0.217742
0
LINE
8
BLACK
6
CONTINUOUS
10
-0.442739
20
-0.217742
11
-0.447612
21
-0.222616
0
LINE
8
BLACK
6
CONTINUOUS
10
-0.447612
20
-0.222616
11
-0.450559
21
-0.226824
0
LINE
8
BLACK
6
CONTINUOUS
10
-0.450559
20
-0.226824
11
-0.451493
21
-0.228157
0
LINE
8
BLACK
6
CONTINUOUS
10
-0.451493
20
-0.228157
11
-0.451566
21
-0.228261
0
LINE
8
BLACK
6
CONTINUOUS
10
-0.451566
20
-0.228261
11
-0.451619
21
-0.228376
0
LINE
8
BLACK
6
CONTINUOUS
10
-0.451619
20
-0.228376
11
-0.451619
21
-0.228377
0
LINE
8
BLACK
6
CONTINUOUS
10
-0.451619
20
-0.228377
11
-0.453659
21
-0.232752
0
LINE
8
BLACK
6
CONTINUOUS
10
-0.453659
20
-0.232752
11
-0.454478
21
-0.234508
0
LINE
8
BLACK
6
CONTINUOUS
10
-0.454478
20
-0.234508
11
-0.456262
21
-0.241165
0
LINE
8
BLACK
6
CONTINUOUS
10
-0.456262
20
-0.241165
11
-0.456342
21
-0.242074
0
LINE
8
BLACK
6
CONTINUOUS
10
-0.456342
20
-0.242074
11
-0.456714
21
-0.24633
0
LINE
8
BLACK
6
CONTINUOUS
10
-0.456714
20
-0.24633
11
-0.456744
21
-0.24656
0
LINE
8
BLACK
6
CONTINUOUS
10
-0.456744
20
-0.24656
11
-0.456821
21
-0.247018
0
LINE
8
BLACK
6
CONTINUOUS
10
-0.456821
20
-0.247018
11
-0.456909
21
-0.247545
0
LINE
8
BLACK
6
CONTINUOUS
10
-0.456909
20
-0.247545
11
-0.456915
21
-0.248031
0
LINE
8
BLACK
6
CONTINUOUS
10
-0.456915
20
-0.248031
11
-0.456899
21
-0.248143
0
LINE
8
BLACK
6
CONTINUOUS
10
-0.456899
20
-0.248143
11
-0.456742
21
-0.249241
0
LINE
8
BLACK
6
CONTINUOUS
10
-0.456742
20
-0.249241
11
-0.456713
21
-0.249654
0
LINE
8
BLACK
6
CONTINUOUS
10
-0.456713
20
-0.249654
11
-0.456713
21
-0.301251
0
LINE
8
BLACK
6
CONTINUOUS
10
-0.456713
20
-0.301251
11
-0.456753
21
-0.301734
0
LINE
8
BLACK
6
CONTINUOUS
10
-0.456753
20
-0.301734
11
-0.456909
21
-0.302663
0
LINE
8
BLACK
6
CONTINUOUS
10
-0.456909
20
-0.302663
11
-0.456915
21
-0.303149
0
LINE
8
BLACK
6
CONTINUOUS
10
-0.456915
20
-0.303149
11
-0.456899
21
-0.303261
0
LINE
8
BLACK
6
CONTINUOUS
10
-0.456899
20
-0.303261
11
-0.456899
21
-0.303261
0
LINE
8
BLACK
6
CONTINUOUS
10
-0.732651
20
0.200963
11
-0.732535
21
0.200811
0
LINE
8
BLACK
6
CONTINUOUS
10
-0.732535
20
0.200811
11
-0.732535
21
0.200811
0
LINE
8
BLACK
6
CONTINUOUS
10
-0.732535
20
0.200811
11
-0.729701
21
0.197118
0
LINE
8
BLACK
6
CONTINUOUS
10
-0.729701
20
0.197118
11
-0.728861
21
0.196024
0
LINE
8
BLACK
6
CONTINUOUS
10
-0.728861
20
0.196024
11
-0.72871
21
0.195908
0
LINE
8
BLACK
6
CONTINUOUS
10
-0.72871
20
0.195908
11
-0.72871
21
0.195908
0
LINE
8
BLACK
6
CONTINUOUS
10
-0.72871
20
0.195908
11
-0.724074
21
0.192351
0
LINE
8
BLACK
6
CONTINUOUS
10
-0.724074
20
0.192351
11
-0.724074
21
0.192351
0
LINE
8
BLACK
6
CONTINUOUS
10
-0.724074
20
0.192351
11
-0.723923
21
0.192235
0
LINE
8
BLACK
6
CONTINUOUS
10
-0.723923
20
0.192235
11
-0.718172
21
0.189852
0
LINE
8
BLACK
6
CONTINUOUS
10
-0.718172
20
0.189852
11
-0.717983
21
0.189828
0
LINE
8
BLACK
6
CONTINUOUS
10
-0.717983
20
0.189828
11
-0.717983
21
0.189828
0
LINE
8
BLACK
6
CONTINUOUS
10
-0.717983
20
0.189828
11
-0.712189
21
0.189065
0
LINE
8
BLACK
6
CONTINUOUS
10
-0.712189
20
0.189065
11
-0.712
21
0.18904
0
LINE
8
BLACK
6
CONTINUOUS
10
-0.712
20
0.18904
11
-0.711811
21
0.189065
0
LINE
8
BLACK
6
CONTINUOUS
10
-0.711811
20
0.189065
11
-0.706017
21
0.189828
0
LINE
8
BLACK
6
CONTINUOUS
10
-0.706017
20
0.189828
11
-0.706017
21
0.189828
0
LINE
8
BLACK
6
CONTINUOUS
10
-0.706017
20
0.189828
11
-0.705828
21
0.189852
0
LINE
8
BLACK
6
CONTINUOUS
10
-0.705828
20
0.189852
11
-0.700077
21
0.192235
0
LINE
8
BLACK
6
CONTINUOUS
10
-0.700077
20
0.192235
11
-0.699926
21
0.192351
0
LINE
8
BLACK
6
CONTINUOUS
10
-0.699926
20
0.192351
11
-0.699926
21
0.192351
0
LINE
8
BLACK
6
CONTINUOUS
10
-0.699926
20
0.192351
11
-0.69529
21
0.195908
0
LINE
8
BLACK
6
CONTINUOUS
10
-0.69529
20
0.195908
11
-0.695139
21
0.196024
0
LINE
8
BLACK
6
CONTINUOUS
10
-0.695139
20
0.196024
11
-0.695022
21
0.196176
0
LINE
8
BLACK
6
CONTINUOUS
10
-0.695022
20
0.196176
11
-0.694933
21
0.196265
0
LINE
8
BLACK
6
CONTINUOUS
10
-0.694933
20
0.196265
11
-0.693127
21
0.197107
0
LINE
8
BLACK
6
CONTINUOUS
10
-0.693127
20
0.197107
11
-0.692873
21
0.197118
0
LINE
8
BLACK
6
CONTINUOUS
10
-0.692873
20
0.197118
11
-0.675738
21
0.197118
0
LINE
8
BLACK
6
CONTINUOUS
10
-0.675738
20
0.197118
11
-0.673865
21
0.196436
0
LINE
8
BLACK
6
CONTINUOUS
10
-0.673865
20
0.196436
11
-0.673678
21
0.196265
0
LINE
8
BLACK
6
CONTINUOUS
10
-0.673678
20
0.196265
11
-0.577154
21
0.099741
0
LINE
8
BLACK
6
CONTINUOUS
10
-0.577154
20
0.099741
11
-0.576312
21
0.0979349
0
LINE
8
BLACK
6
CONTINUOUS
10
-0.576312
20
0.0979349
11
-0.576828
21
0.0960099
0
LINE
8
BLACK
6
CONTINUOUS
10
-0.576828
20
0.0960099
11
-0.577154
21
0.0956209
0
LINE
8
BLACK
6
CONTINUOUS
10
-0.577154
20
0.0956209
11
-0.626027
21
0.0467482
0
LINE
8
BLACK
6
CONTINUOUS
10
-0.626027
20
0.0467482
11
-0.626027
21
0.0467481
0
LINE
8
BLACK
6
CONTINUOUS
10
-0.626027
20
0.0467481
11
-0.626915
21
0.0458598
0
LINE
8
BLACK
6
CONTINUOUS
10
-0.626915
20
0.0458598
11
-0.627019
21
0.0456555
0
LINE
8
BLACK
6
CONTINUOUS
10
-0.627019
20
0.0456555
11
-0.627019
21
0.0456555
0
LINE
8
BLACK
6
CONTINUOUS
10
-0.627019
20
0.0456555
11
-0.627382
21
0.0449446
0
LINE
8
BLACK
6
CONTINUOUS
10
-0.627382
20
0.0449446
11
-0.627621
21
0.0445549
0
LINE
8
BLACK
6
CONTINUOUS
10
-0.627621
20
0.0445549
11
-0.628089
21
0.0439094
0
LINE
8
BLACK
6
CONTINUOUS
10
-0.628089
20
0.0439094
11
-0.62809
21
0.0439093
0
LINE
8
BLACK
6
CONTINUOUS
10
-0.62809
20
0.0439093
11
-0.628224
21
0.0437239
0
LINE
8
BLACK
6
CONTINUOUS
10
-0.628224
20
0.0437239
11
-0.628295
21
0.0435058
0
LINE
8
BLACK
6
CONTINUOUS
10
-0.628295
20
0.0435058
11
-0.628295
21
0.0435058
0
LINE
8
BLACK
6
CONTINUOUS
10
-0.628295
20
0.0435058
11
-0.628542
21
0.042747
0
LINE
8
BLACK
6
CONTINUOUS
10
-0.628542
20
0.042747
11
-0.628717
21
0.0423246
0
LINE
8
BLACK
6
CONTINUOUS
10
-0.628717
20
0.0423246
11
-0.629075
21
0.0416219
0
LINE
8
BLACK
6
CONTINUOUS
10
-0.629075
20
0.0416219
11
-0.629183
21
0.0414094
0
LINE
8
BLACK
6
CONTINUOUS
10
-0.629183
20
0.0414094
11
-0.629219
21
0.041183
0
LINE
8
BLACK
6
CONTINUOUS
10
-0.629219
20
0.041183
11
-0.629344
21
0.040395
0
LINE
8
BLACK
6
CONTINUOUS
10
-0.629344
20
0.040395
11
-0.62945
21
0.0399505
0
LINE
8
BLACK
6
CONTINUOUS
10
-0.62945
20
0.0399505
11
-0.629697
21
0.0391917
0
LINE
8
BLACK
6
CONTINUOUS
10
-0.629697
20
0.0391917
11
-0.629768
21
0.0389736
0
LINE
8
BLACK
6
CONTINUOUS
10
-0.629768
20
0.0389736
11
-0.629768
21
-0.0853478
0
LINE
8
BLACK
6
CONTINUOUS
10
-0.629768
20
-0.0853478
11
-0.629697
21
-0.0855658
0
LINE
8
BLACK
6
CONTINUOUS
10
-0.629697
20
-0.0855658
11
-0.629697
21
-0.0855659
0
LINE
8
BLACK
6
CONTINUOUS
10
-0.629697
20
-0.0855659
11
-0.62945
21
-0.0863246
0
LINE
8
BLACK
6
CONTINUOUS
10
-0.62945
20
-0.0863246
11
-0.629344
21
-0.0867692
0
LINE
8
BLACK
6
CONTINUOUS
10
-0.629344
20
-0.0867692
11
-0.629183
21
-0.0877836
0
LINE
8
BLACK
6
CONTINUOUS
10
-0.629183
20
-0.0877836
11
-0.629079
21
-0.0879881
0
LINE
8
BLACK
6
CONTINUOUS
10
-0.629079
20
-0.0879881
11
-0.628717
21
-0.0886988
0
LINE
8
BLACK
6
CONTINUOUS
10
-0.628717
20
-0.0886988
11
-0.628542
21
-0.0891212
0
LINE
8
BLACK
6
CONTINUOUS
10
-0.628542
20
-0.0891212
11
-0.628224
21
-0.090098
0
LINE
8
BLACK
6
CONTINUOUS
10
-0.628224
20
-0.090098
11
-0.62809
21
-0.0902834
0
LINE
8
BLACK
6
CONTINUOUS
10
-0.62809
20
-0.0902834
11
-0.628089
21
-0.0902836
0
LINE
8
BLACK
6
CONTINUOUS
10
-0.628089
20
-0.0902836
11
-0.627621
21
-0.0909291
0
LINE
8
BLACK
6
CONTINUOUS
10
-0.627621
20
-0.0909291
11
-0.627382
21
-0.0913188
0
LINE
8
BLACK
6
CONTINUOUS
10
-0.627382
20
-0.0913188
11
-0.627019
21
-0.0920296
0
LINE
8
BLACK
6
CONTINUOUS
10
-0.627019
20
-0.0920296
11
-0.626915
21
-0.0922339
0
LINE
8
BLACK
6
CONTINUOUS
10
-0.626915
20
-0.0922339
11
-0.626027
21
-0.0931222
0
LINE
8
BLACK
6
CONTINUOUS
10
-0.626027
20
-0.0931222
11
-0.626027
21
-0.0931224
0
LINE
8
BLACK
6
CONTINUOUS
10
-0.626027
20
-0.0931224
11
-0.619162
21
-0.099987
0
LINE
8
BLACK
6
CONTINUOUS
10
-0.619162
20
-0.099987
11
-0.61832
21
-0.101793
0
LINE
8
BLACK
6
CONTINUOUS
10
-0.61832
20
-0.101793
11
-0.618309
21
-0.102047
0
LINE
8
BLACK
6
CONTINUOUS
10
-0.618309
20
-0.102047
11
-0.618309
21
-0.102173
0
LINE
8
BLACK
6
CONTINUOUS
10
-0.618309
20
-0.102173
11
-0.618334
21
-0.102362
0
LINE
8
BLACK
6
CONTINUOUS
10
-0.618334
20
-0.102362
11
-0.617521
21
-0.108534
0
LINE
8
BLACK
6
CONTINUOUS
10
-0.617521
20
-0.108534
11
-0.615139
21
-0.114285
0
LINE
8
BLACK
6
CONTINUOUS
10
-0.615139
20
-0.114285
11
-0.615023
21
-0.114436
0
LINE
8
BLACK
6
CONTINUOUS
10
-0.615023
20
-0.114436
11
-0.615023
21
-0.114437
0
LINE
8
BLACK
6
CONTINUOUS
10
-0.615023
20
-0.114437
11
-0.611466
21
-0.119072
0
LINE
8
BLACK
6
CONTINUOUS
10
-0.611466
20
-0.119072
11
-0.61135
21
-0.119224
0
LINE
8
BLACK
6
CONTINUOUS
10
-0.61135
20
-0.119224
11
-0.611198
21
-0.11934
0
LINE
8
BLACK
6
CONTINUOUS
10
-0.611198
20
-0.11934
11
-0.606563
21
-0.122897
0
LINE
8
BLACK
6
CONTINUOUS
10
-0.606563
20
-0.122897
11
-0.606562
21
-0.122897
0
LINE
8
BLACK
6
CONTINUOUS
10
-0.606562
20
-0.122897
11
-0.606411
21
-0.123013
0
LINE
8
BLACK
6
CONTINUOUS
10
-0.606411
20
-0.123013
11
-0.60066
21
-0.125395
0
LINE
8
BLACK
6
CONTINUOUS
10
-0.60066
20
-0.125395
11
-0.600471
21
-0.12542
0
LINE
8
BLACK
6
CONTINUOUS
10
-0.600471
20
-0.12542
11
-0.600471
21
-0.12542
0
LINE
8
BLACK
6
CONTINUOUS
10
-0.600471
20
-0.12542
11
-0.594677
21
-0.126183
0
LINE
8
BLACK
6
CONTINUOUS
10
-0.594677
20
-0.126183
11
-0.594488
21
-0.126208
0
LINE
8
BLACK
6
CONTINUOUS
10
-0.594488
20
-0.126208
11
-0.594299
21
-0.126183
0
LINE
8
BLACK
6
CONTINUOUS
10
-0.594299
20
-0.126183
11
-0.588506
21
-0.12542
0
LINE
8
BLACK
6
CONTINUOUS
10
-0.588506
20
-0.12542
11
-0.588506
21
-0.12542
0
LINE
8
BLACK
6
CONTINUOUS
10
-0.588506
20
-0.12542
11
-0.588316
21
-0.125395
0
LINE
8
BLACK
6
CONTINUOUS
10
-0.588316
20
-0.125395
11
-0.582565
21
-0.123013
0
LINE
8
BLACK
6
CONTINUOUS
10
-0.582565
20
-0.123013
11
-0.582414
21
-0.122897
0
LINE
8
BLACK
6
CONTINUOUS
10
-0.582414
20
-0.122897
11
-0.582414
21
-0.122897
0
LINE
8
BLACK
6
CONTINUOUS
10
-0.582414
20
-0.122897
11
-0.577778
21
-0.11934
0
LINE
8
BLACK
6
CONTINUOUS
10
-0.577778
20
-0.11934
11
-0.577627
21
-0.119224
0
LINE
8
BLACK
6
CONTINUOUS
10
-0.577627
20
-0.119224
11
-0.57751
21
-0.119072
0
LINE
8
BLACK
6
CONTINUOUS
10
-0.57751
20
-0.119072
11
-0.573953
21
-0.114437
0
LINE
8
BLACK
6
CONTINUOUS
10
-0.573953
20
-0.114437
11
-0.573953
21
-0.114436
0
LINE
8
BLACK
6
CONTINUOUS
10
-0.573953
20
-0.114436
11
-0.573837
21
-0.114285
0
LINE
8
BLACK
6
CONTINUOUS
10
-0.573837
20
-0.114285
11
-0.571455
21
-0.108534
0
LINE
8
BLACK
6
CONTINUOUS
10
-0.571455
20
-0.108534
11
-0.570642
21
-0.102362
0
LINE
8
BLACK
6
CONTINUOUS
10
-0.570642
20
-0.102362
11
-0.571455
21
-0.0961905
0
LINE
8
BLACK
6
CONTINUOUS
10
-0.571455
20
-0.0961905
11
-0.573837
21
-0.0904393
0
LINE
8
BLACK
6
CONTINUOUS
10
-0.573837
20
-0.0904393
11
-0.573953
21
-0.090288
0
LINE
8
BLACK
6
CONTINUOUS
10
-0.573953
20
-0.090288
11
-0.573953
21
-0.0902878
0
LINE
8
BLACK
6
CONTINUOUS
10
-0.573953
20
-0.0902878
11
-0.57751
21
-0.0856523
0
LINE
8
BLACK
6
CONTINUOUS
10
-0.57751
20
-0.0856523
11
-0.577627
21
-0.0855007
0
LINE
8
BLACK
6
CONTINUOUS
10
-0.577627
20
-0.0855007
11
-0.578125
21
-0.0851185
0
LINE
8
BLACK
6
CONTINUOUS
10
-0.578125
20
-0.0851185
11
-0.582414
21
-0.0818274
0
LINE
8
BLACK
6
CONTINUOUS
10
-0.582414
20
-0.0818274
11
-0.582414
21
-0.0818273
0
LINE
8
BLACK
6
CONTINUOUS
10
-0.582414
20
-0.0818273
11
-0.582565
21
-0.0817112
0
LINE
8
BLACK
6
CONTINUOUS
10
-0.582565
20
-0.0817112
11
-0.588316
21
-0.079329
0
LINE
8
BLACK
6
CONTINUOUS
10
-0.588316
20
-0.079329
11
-0.588506
21
-0.0793041
0
LINE
8
BLACK
6
CONTINUOUS
10
-0.588506
20
-0.0793041
11
-0.588506
21
-0.0793041
0
LINE
8
BLACK
6
CONTINUOUS
10
-0.588506
20
-0.0793041
11
-0.594299
21
-0.0785414
0
LINE
8
BLACK
6
CONTINUOUS
10
-0.594299
20
-0.0785414
11
-0.594488
21
-0.0785165
0
LINE
8
BLACK
6
CONTINUOUS
10
-0.594488
20
-0.0785165
11
-0.594677
21
-0.0785414
0
LINE
8
BLACK
6
CONTINUOUS
10
-0.594677
20
-0.0785414
11
-0.594803
21
-0.0785414
0
LINE
8
BLACK
6
CONTINUOUS
10
-0.594803
20
-0.0785414
11
-0.596676
21
-0.0778598
0
LINE
8
BLACK
6
CONTINUOUS
10
-0.596676
20
-0.0778598
11
-0.596863
21
-0.0776886
0
LINE
8
BLACK
6
CONTINUOUS
10
-0.596863
20
-0.0776886
11
-0.597379
21
-0.0771724
0
LINE
8
BLACK
6
CONTINUOUS
10
-0.597379
20
-0.0771724
11
-0.598221
21
-0.0753663
0
LINE
8
BLACK
6
CONTINUOUS
10
-0.598221
20
-0.0753663
11
-0.598232
21
-0.0751124
0
LINE
8
BLACK
6
CONTINUOUS
10
-0.598232
20
-0.0751124
11
-0.598232
21
0.0287382
0
LINE
8
BLACK
6
CONTINUOUS
10
-0.598232
20
0.0287382
11
-0.597551
21
0.0306109
0
LINE
8
BLACK
6
CONTINUOUS
10
-0.597551
20
0.0306109
11
-0.597379
21
0.0307983
0
LINE
8
BLACK
6
CONTINUOUS
10
-0.597379
20
0.0307983
11
-0.547117
21
0.0810599
0
LINE
8
BLACK
6
CONTINUOUS
10
-0.547117
20
0.0810599
11
-0.545311
21
0.0819021
0
LINE
8
BLACK
6
CONTINUOUS
10
-0.545311
20
0.0819021
11
-0.545057
21
0.0819132
0
LINE
8
BLACK
6
CONTINUOUS
10
-0.545057
20
0.0819132
11
-0.479284
21
0.0819132
0
LINE
8
BLACK
6
CONTINUOUS
10
-0.479284
20
0.0819132
11
-0.477412
21
0.0812316
0
LINE
8
BLACK
6
CONTINUOUS
10
-0.477412
20
0.0812316
11
-0.477224
21
0.08106
0
LINE
8
BLACK
6
CONTINUOUS
10
-0.477224
20
0.08106
11
-0.477135
21
0.0809709
0
LINE
8
BLACK
6
CONTINUOUS
10
-0.477135
20
0.0809709
11
-0.477019
21
0.0808194
0
LINE
8
BLACK
6
CONTINUOUS
10
-0.477019
20
0.0808194
11
-0.476867
21
0.0807031
0
LINE
8
BLACK
6
CONTINUOUS
10
-0.476867
20
0.0807031
11
-0.472232
21
0.0771461
0
LINE
8
BLACK
6
CONTINUOUS
10
-0.472232
20
0.0771461
11
-0.472232
21
0.0771461
0
LINE
8
BLACK
6
CONTINUOUS
10
-0.472232
20
0.0771461
11
-0.47208
21
0.0770299
0
LINE
8
BLACK
6
CONTINUOUS
10
-0.47208
20
0.0770299
11
-0.466329
21
0.0746477
0
LINE
8
BLACK
6
CONTINUOUS
10
-0.466329
20
0.0746477
11
-0.46614
21
0.0746228
0
LINE
8
BLACK
6
CONTINUOUS
10
-0.46614
20
0.0746228
11
-0.46614
21
0.0746228
0
LINE
8
BLACK
6
CONTINUOUS
10
-0.46614
20
0.0746228
11
-0.460347
21
0.0738601
0
LINE
8
BLACK
6
CONTINUOUS
10
-0.460347
20
0.0738601
11
-0.460157
21
0.0738352
0
LINE
8
BLACK
6
CONTINUOUS
10
-0.460157
20
0.0738352
11
-0.459968
21
0.0738601
0
LINE
8
BLACK
6
CONTINUOUS
10
-0.459968
20
0.0738601
11
-0.454175
21
0.0746228
0
LINE
8
BLACK
6
CONTINUOUS
10
-0.454175
20
0.0746228
11
-0.454175
21
0.0746228
0
LINE
8
BLACK
6
CONTINUOUS
10
-0.454175
20
0.0746228
11
-0.453986
21
0.0746477
0
LINE
8
BLACK
6
CONTINUOUS
10
-0.453986
20
0.0746477
11
-0.448235
21
0.0770299
0
LINE
8
BLACK
6
CONTINUOUS
10
-0.448235
20
0.0770299
11
-0.448083
21
0.0771461
0
LINE
8
BLACK
6
CONTINUOUS
10
-0.448083
20
0.0771461
11
-0.448083
21
0.0771461
0
LINE
8
BLACK
6
CONTINUOUS
10
-0.448083
20
0.0771461
11
-0.443448
21
0.0807031
0
LINE
8
BLACK
6
CONTINUOUS
10
-0.443448
20
0.0807031
11
-0.443448
21
0.0807031
0
LINE
8
BLACK
6
CONTINUOUS
10
-0.443448
20
0.0807031
11
-0.443296
21
0.0808194
0
LINE
8
BLACK
6
CONTINUOUS
10
-0.443296
20
0.0808194
11
-0.44298
21
0.0812316
0
LINE
8
BLACK
6
CONTINUOUS
10
-0.44298
20
0.0812316
11
-0.439623
21
0.0856066
0
LINE
8
BLACK
6
CONTINUOUS
10
-0.439623
20
0.0856066
11
-0.439623
21
0.0856067
0
LINE
8
BLACK
6
CONTINUOUS
10
-0.439623
20
0.0856067
11
-0.439506
21
0.0857581
0
LINE
8
BLACK
6
CONTINUOUS
10
-0.439506
20
0.0857581
11
-0.437124
21
0.0915092
0
LINE
8
BLACK
6
CONTINUOUS
10
-0.437124
20
0.0915092
11
-0.436842
21
0.093652
0
LINE
8
BLACK
6
CONTINUOUS
10
-0.436842
20
0.093652
11
-0.436337
21
0.0974917
0
LINE
8
BLACK
6
CONTINUOUS
10
-0.436337
20
0.0974917
11
-0.436312
21
0.0976809
0
LINE
8
BLACK
6
CONTINUOUS
10
-0.436312
20
0.0976809
11
-0.437124
21
0.103853
0
LINE
8
BLACK
6
CONTINUOUS
10
-0.437124
20
0.103853
11
-0.439506
21
0.109604
0
LINE
8
BLACK
6
CONTINUOUS
10
-0.439506
20
0.109604
11
-0.439623
21
0.109755
0
LINE
8
BLACK
6
CONTINUOUS
10
-0.439623
20
0.109755
11
-0.439623
21
0.109755
0
LINE
8
BLACK
6
CONTINUOUS
10
-0.439623
20
0.109755
11
-0.44318
21
0.114391
0
LINE
8
BLACK
6
CONTINUOUS
10
-0.44318
20
0.114391
11
-0.443296
21
0.114542
0
LINE
8
BLACK
6
CONTINUOUS
10
-0.443296
20
0.114542
11
-0.443448
21
0.114659
0
LINE
8
BLACK
6
CONTINUOUS
10
-0.443448
20
0.114659
11
-0.448083
21
0.118216
0
LINE
8
BLACK
6
CONTINUOUS
10
-0.448083
20
0.118216
11
-0.448083
21
0.118216
0
LINE
8
BLACK
6
CONTINUOUS
10
-0.448083
20
0.118216
11
-0.448235
21
0.118332
0
LINE
8
BLACK
6
CONTINUOUS
10
-0.448235
20
0.118332
11
-0.453986
21
0.120714
0
LINE
8
BLACK
6
CONTINUOUS
10
-0.453986
20
0.120714
11
-0.454175
21
0.120739
0
LINE
8
BLACK
6
CONTINUOUS
10
-0.454175
20
0.120739
11
-0.454175
21
0.120739
0
LINE
8
BLACK
6
CONTINUOUS
10
-0.454175
20
0.120739
11
-0.459968
21
0.121502
0
LINE
8
BLACK
6
CONTINUOUS
10
-0.459968
20
0.121502
11
-0.460157
21
0.121527
0
LINE
8
BLACK
6
CONTINUOUS
10
-0.460157
20
0.121527
11
-0.460347
21
0.121502
0
LINE
8
BLACK
6
CONTINUOUS
10
-0.460347
20
0.121502
11
-0.46614
21
0.120739
0
LINE
8
BLACK
6
CONTINUOUS
10
-0.46614
20
0.120739
11
-0.46614
21
0.120739
0
LINE
8
BLACK
6
CONTINUOUS
10
-0.46614
20
0.120739
11
-0.466329
21
0.120714
0
LINE
8
BLACK
6
CONTINUOUS
10
-0.466329
20
0.120714
11
-0.47208
21
0.118332
0
LINE
8
BLACK
6
CONTINUOUS
10
-0.47208
20
0.118332
11
-0.472232
21
0.118216
0
LINE
8
BLACK
6
CONTINUOUS
10
-0.472232
20
0.118216
11
-0.472232
21
0.118216
0
LINE
8
BLACK
6
CONTINUOUS
10
-0.472232
20
0.118216
11
-0.475794
21
0.115483
0
LINE
8
BLACK
6
CONTINUOUS
10
-0.475794
20
0.115483
11
-0.477019
21
0.114542
0
LINE
8
BLACK
6
CONTINUOUS
10
-0.477019
20
0.114542
11
-0.477135
21
0.114391
0
LINE
8
BLACK
6
CONTINUOUS
10
-0.477135
20
0.114391
11
-0.477224
21
0.114302
0
LINE
8
BLACK
6
CONTINUOUS
10
-0.477224
20
0.114302
11
-0.47903
21
0.11346
0
LINE
8
BLACK
6
CONTINUOUS
10
-0.47903
20
0.11346
11
-0.479284
21
0.113449
0
LINE
8
BLACK
6
CONTINUOUS
10
-0.479284
20
0.113449
11
-0.545057
21
0.113449
0
LINE
8
BLACK
6
CONTINUOUS
10
-0.545057
20
0.113449
11
-0.54693
21
0.11413
0
LINE
8
BLACK
6
CONTINUOUS
10
-0.54693
20
0.11413
11
-0.547117
21
0.114302
0
LINE
8
BLACK
6
CONTINUOUS
10
-0.547117
20
0.114302
11
-0.657728
21
0.224913
0
LINE
8
BLACK
6
CONTINUOUS
10
-0.657728
20
0.224913
11
-0.657728
21
0.224913
0
LINE
8
BLACK
6
CONTINUOUS
10
-0.657728
20
0.224913
11
-0.658616
21
0.225801
0
LINE
8
BLACK
6
CONTINUOUS
10
-0.658616
20
0.225801
11
-0.658821
21
0.225905
0
LINE
8
BLACK
6
CONTINUOUS
10
-0.658821
20
0.225905
11
-0.659532
21
0.226267
0
LINE
8
BLACK
6
CONTINUOUS
10
-0.659532
20
0.226267
11
-0.659921
21
0.226506
0
LINE
8
BLACK
6
CONTINUOUS
10
-0.659921
20
0.226506
11
-0.660567
21
0.226975
0
LINE
8
BLACK
6
CONTINUOUS
10
-0.660567
20
0.226975
11
-0.660567
21
0.226975
0
LINE
8
BLACK
6
CONTINUOUS
10
-0.660567
20
0.226975
11
-0.660752
21
0.22711
0
LINE
8
BLACK
6
CONTINUOUS
10
-0.660752
20
0.22711
11
-0.66097
21
0.227181
0
LINE
8
BLACK
6
CONTINUOUS
10
-0.66097
20
0.227181
11
-0.66097
21
0.227181
0
LINE
8
BLACK
6
CONTINUOUS
10
-0.66097
20
0.227181
11
-0.661729
21
0.227427
0
LINE
8
BLACK
6
CONTINUOUS
10
-0.661729
20
0.227427
11
-0.662152
21
0.227602
0
LINE
8
BLACK
6
CONTINUOUS
10
-0.662152
20
0.227602
11
-0.662862
21
0.227964
0
LINE
8
BLACK
6
CONTINUOUS
10
-0.662862
20
0.227964
11
-0.663067
21
0.228069
0
LINE
8
BLACK
6
CONTINUOUS
10
-0.663067
20
0.228069
11
-0.663687
21
0.228167
0
LINE
8
BLACK
6
CONTINUOUS
10
-0.663687
20
0.228167
11
-0.664081
21
0.228229
0
LINE
8
BLACK
6
CONTINUOUS
10
-0.664081
20
0.228229
11
-0.664526
21
0.228336
0
LINE
8
BLACK
6
CONTINUOUS
10
-0.664526
20
0.228336
11
-0.665284
21
0.228583
0
LINE
8
BLACK
6
CONTINUOUS
10
-0.665284
20
0.228583
11
-0.665285
21
0.228583
0
LINE
8
BLACK
6
CONTINUOUS
10
-0.665285
20
0.228583
11
-0.665503
21
0.228653
0
LINE
8
BLACK
6
CONTINUOUS
10
-0.665503
20
0.228653
11
-0.692873
21
0.228653
0
LINE
8
BLACK
6
CONTINUOUS
10
-0.692873
20
0.228653
11
-0.694746
21
0.229335
0
LINE
8
BLACK
6
CONTINUOUS
10
-0.694746
20
0.229335
11
-0.694933
21
0.229507
0
LINE
8
BLACK
6
CONTINUOUS
10
-0.694933
20
0.229507
11
-0.695022
21
0.229596
0
LINE
8
BLACK
6
CONTINUOUS
10
-0.695022
20
0.229596
11
-0.695139
21
0.229747
0
LINE
8
BLACK
6
CONTINUOUS
10
-0.695139
20
0.229747
11
-0.696364
21
0.230687
0
LINE
8
BLACK
6
CONTINUOUS
10
-0.696364
20
0.230687
11
-0.699926
21
0.23342
0
LINE
8
BLACK
6
CONTINUOUS
10
-0.699926
20
0.23342
11
-0.699926
21
0.233421
0
LINE
8
BLACK
6
CONTINUOUS
10
-0.699926
20
0.233421
11
-0.700077
21
0.233537
0
LINE
8
BLACK
6
CONTINUOUS
10
-0.700077
20
0.233537
11
-0.705828
21
0.235919
0
LINE
8
BLACK
6
CONTINUOUS
10
-0.705828
20
0.235919
11
-0.706017
21
0.235944
0
LINE
8
BLACK
6
CONTINUOUS
10
-0.706017
20
0.235944
11
-0.706017
21
0.235944
0
LINE
8
BLACK
6
CONTINUOUS
10
-0.706017
20
0.235944
11
-0.711811
21
0.236706
0
LINE
8
BLACK
6
CONTINUOUS
10
-0.711811
20
0.236706
11
-0.712
21
0.236731
0
LINE
8
BLACK
6
CONTINUOUS
10
-0.712
20
0.236731
11
-0.712189
21
0.236706
0
LINE
8
BLACK
6
CONTINUOUS
10
-0.712189
20
0.236706
11
-0.717983
21
0.235944
0
LINE
8
BLACK
6
CONTINUOUS
10
-0.717983
20
0.235944
11
-0.717983
21
0.235944
0
LINE
8
BLACK
6
CONTINUOUS
10
-0.717983
20
0.235944
11
-0.718172
21
0.235919
0
LINE
8
BLACK
6
CONTINUOUS
10
-0.718172
20
0.235919
11
-0.723923
21
0.233537
0
LINE
8
BLACK
6
CONTINUOUS
10
-0.723923
20
0.233537
11
-0.724074
21
0.233421
0
LINE
8
BLACK
6
CONTINUOUS
10
-0.724074
20
0.233421
11
-0.724074
21
0.23342
0
LINE
8
BLACK
6
CONTINUOUS
10
-0.724074
20
0.23342
11
-0.72829
21
0.230186
0
LINE
8
BLACK
6
CONTINUOUS
10
-0.72829
20
0.230186
11
-0.728861
21
0.229747
0
LINE
8
BLACK
6
CONTINUOUS
10
-0.728861
20
0.229747
11
-0.728978
21
0.229596
0
LINE
8
BLACK
6
CONTINUOUS
10
-0.728978
20
0.229596
11
-0.732535
21
0.22496
0
LINE
8
BLACK
6
CONTINUOUS
10
-0.732535
20
0.22496
11
-0.732535
21
0.22496
0
LINE
8
BLACK
6
CONTINUOUS
10
-0.732535
20
0.22496
11
-0.732651
21
0.224809
0
LINE
8
BLACK
6
CONTINUOUS
10
-0.732651
20
0.224809
11
-0.735033
21
0.219057
0
LINE
8
BLACK
6
CONTINUOUS
10
-0.735033
20
0.219057
11
-0.735846
21
0.212886
0
LINE
8
BLACK
6
CONTINUOUS
10
-0.735846
20
0.212886
11
-0.735033
21
0.206714
0
LINE
8
BLACK
6
CONTINUOUS
10
-0.735033
20
0.206714
11
-0.732651
21
0.200963
0
LINE
8
BLACK
6
CONTINUOUS
10
-0.555134
20
0.0249773
11
-0.550744
21
0.0227404
0
LINE
8
BLACK
6
CONTINUOUS
10
-0.550744
20
0.0227404
11
-0.54726
21
0.0192565
0
LINE
8
BLACK
6
CONTINUOUS
10
-0.54726
20
0.0192565
11
-0.545023
21
0.0148664
0
LINE
8
BLACK
6
CONTINUOUS
10
-0.545023
20
0.0148664
11
-0.544252
21
0.01
0
LINE
8
BLACK
6
CONTINUOUS
10
-0.544252
20
0.01
11
-0.544502
21
0.00842142
0
LINE
8
BLACK
6
CONTINUOUS
10
-0.544502
20
0.00842142
11
-0.529595
21
-0.00648559
0
LINE
8
BLACK
6
CONTINUOUS
10
-0.529595
20
-0.00648559
11
-0.527461
21
-0.00967874
0
LINE
8
BLACK
6
CONTINUOUS
10
-0.527461
20
-0.00967874
11
-0.526712
21
-0.0134453
0
LINE
8
BLACK
6
CONTINUOUS
10
-0.526712
20
-0.0134453
11
-0.526712
21
-0.0134455
0
LINE
8
BLACK
6
CONTINUOUS
10
-0.526712
20
-0.0134455
11
-0.526712
21
-0.221818
0
LINE
8
BLACK
6
CONTINUOUS
10
-0.526712
20
-0.221818
11
-0.525023
21
-0.225134
0
LINE
8
BLACK
6
CONTINUOUS
10
-0.525023
20
-0.225134
11
-0.524252
21
-0.23
0
LINE
8
BLACK
6
CONTINUOUS
10
-0.524252
20
-0.23
11
-0.525023
21
-0.234866
0
LINE
8
BLACK
6
CONTINUOUS
10
-0.525023
20
-0.234866
11
-0.52726
21
-0.239256
0
LINE
8
BLACK
6
CONTINUOUS
10
-0.52726
20
-0.239256
11
-0.530744
21
-0.24274
0
LINE
8
BLACK
6
CONTINUOUS
10
-0.530744
20
-0.24274
11
-0.535134
21
-0.244977
0
LINE
8
BLACK
6
CONTINUOUS
10
-0.535134
20
-0.244977
11
-0.54
21
-0.245748
0
LINE
8
BLACK
6
CONTINUOUS
10
-0.54
20
-0.245748
11
-0.544866
21
-0.244977
0
LINE
8
BLACK
6
CONTINUOUS
10
-0.544866
20
-0.244977
11
-0.549256
21
-0.24274
0
LINE
8
BLACK
6
CONTINUOUS
10
-0.549256
20
-0.24274
11
-0.55274
21
-0.239256
0
LINE
8
BLACK
6
CONTINUOUS
10
-0.55274
20
-0.239256
11
-0.554977
21
-0.234866
0
LINE
8
BLACK
6
CONTINUOUS
10
-0.554977
20
-0.234866
11
-0.555748
21
-0.23
0
LINE
8
BLACK
6
CONTINUOUS
10
-0.555748
20
-0.23
11
-0.554977
21
-0.225134
0
LINE
8
BLACK
6
CONTINUOUS
10
-0.554977
20
-0.225134
11
-0.55274
21
-0.220744
0
LINE
8
BLACK
6
CONTINUOUS
10
-0.55274
20
-0.220744
11
-0.549256
21
-0.21726
0
LINE
8
BLACK
6
CONTINUOUS
10
-0.549256
20
-0.21726
11
-0.546397
21
-0.215803
0
LINE
8
BLACK
6
CONTINUOUS
10
-0.546397
20
-0.215803
11
-0.546397
21
-0.0175222
0
LINE
8
BLACK
6
CONTINUOUS
10
-0.546397
20
-0.0175222
11
-0.558421
21
-0.00549803
0
LINE
8
BLACK
6
CONTINUOUS
10
-0.558421
20
-0.00549803
11
-0.56
21
-0.00574803
0
LINE
8
BLACK
6
CONTINUOUS
10
-0.56
20
-0.00574803
11
-0.564866
21
-0.00497728
0
LINE
8
BLACK
6
CONTINUOUS
10
-0.564866
20
-0.00497728
11
-0.569256
21
-0.00274043
0
LINE
8
BLACK
6
CONTINUOUS
10
-0.569256
20
-0.00274043
11
-0.57274
21
0.000743543
0
LINE
8
BLACK
6
CONTINUOUS
10
-0.57274
20
0.000743543
11
-0.574977
21
0.00513358
0
LINE
8
BLACK
6
CONTINUOUS
10
-0.574977
20
0.00513358
11
-0.575748
21
0.01
0
LINE
8
BLACK
6
CONTINUOUS
10
-0.575748
20
0.01
11
-0.574977
21
0.0148664
0
LINE
8
BLACK
6
CONTINUOUS
10
-0.574977
20
0.0148664
11
-0.57274
21
0.0192565
0
LINE
8
BLACK
6
CONTINUOUS
10
-0.57274
20
0.0192565
11
-0.569256
21
0.0227404
0
LINE
8
BLACK
6
CONTINUOUS
10
-0.569256
20
0.0227404
11
-0.564866
21
0.0249773
0
LINE
8
BLACK
6
CONTINUOUS
10
-0.564866
20
0.0249773
11
-0.56
21
0.025748
0
LINE
8
BLACK
6
CONTINUOUS
10
-0.56
20
0.025748
11
-0.555134
21
0.0249773
0
LINE
8
BLACK
6
CONTINUOUS
10
0.0896656
20
-0.17286
11
0.111421
21
-0.194616
0
LINE
8
BLACK
6
CONTINUOUS
10
0.111421
20
-0.194616
11
0.113
21
-0.194366
0
LINE
8
BLACK
6
CONTINUOUS
10
0.113
20
-0.194366
11
0.117866
21
-0.195137
0
LINE
8
BLACK
6
CONTINUOUS
10
0.117866
20
-0.195137
11
0.122256
21
-0.197374
0
LINE
8
BLACK
6
CONTINUOUS
10
0.122256
20
-0.197374
11
0.12574
21
-0.200858
0
LINE
8
BLACK
6
CONTINUOUS
10
0.12574
20
-0.200858
11
0.127977
21
-0.205248
0
LINE
8
BLACK
6
CONTINUOUS
10
0.127977
20
-0.205248
11
0.128748
21
-0.210114
0
LINE
8
BLACK
6
CONTINUOUS
10
0.128748
20
-0.210114
11
0.127977
21
-0.214981
0
LINE
8
BLACK
6
CONTINUOUS
10
0.127977
20
-0.214981
11
0.12574
21
-0.219371
0
LINE
8
BLACK
6
CONTINUOUS
10
0.12574
20
-0.219371
11
0.122256
21
-0.222855
0
LINE
8
BLACK
6
CONTINUOUS
10
0.122256
20
-0.222855
11
0.117866
21
-0.225092
0
LINE
8
BLACK
6
CONTINUOUS
10
0.117866
20
-0.225092
11
0.113
21
-0.225862
0
LINE
8
BLACK
6
CONTINUOUS
10
0.113
20
-0.225862
11
0.108134
21
-0.225092
0
LINE
8
BLACK
6
CONTINUOUS
10
0.108134
20
-0.225092
11
0.103744
21
-0.222855
0
LINE
8
BLACK
6
CONTINUOUS
10
0.103744
20
-0.222855
11
0.10026
21
-0.219371
0
LINE
8
BLACK
6
CONTINUOUS
10
0.10026
20
-0.219371
11
0.0980227
21
-0.214981
0
LINE
8
BLACK
6
CONTINUOUS
10
0.0980227
20
-0.214981
11
0.097252
21
-0.210114
0
LINE
8
BLACK
6
CONTINUOUS
10
0.097252
20
-0.210114
11
0.097502
21
-0.208536
0
LINE
8
BLACK
6
CONTINUOUS
10
0.097502
20
-0.208536
11
0.0786289
21
-0.189663
0
LINE
8
BLACK
6
CONTINUOUS
10
0.0786289
20
-0.189663
11
-0.14018
21
-0.189663
0
LINE
8
BLACK
6
CONTINUOUS
10
-0.14018
20
-0.189663
11
-0.14018
21
-0.189663
0
LINE
8
BLACK
6
CONTINUOUS
10
-0.14018
20
-0.189663
11
-0.143946
21
-0.188913
0
LINE
8
BLACK
6
CONTINUOUS
10
-0.143946
20
-0.188913
11
-0.145966
21
-0.187564
0
LINE
8
BLACK
6
CONTINUOUS
10
-0.145966
20
-0.187564
11
-0.14714
21
-0.18678
0
LINE
8
BLACK
6
CONTINUOUS
10
-0.14714
20
-0.18678
11
-0.14714
21
-0.18678
0
LINE
8
BLACK
6
CONTINUOUS
10
-0.14714
20
-0.18678
11
-0.29696
21
-0.0369597
0
LINE
8
BLACK
6
CONTINUOUS
10
-0.29696
20
-0.0369597
11
-0.299093
21
-0.0337666
0
LINE
8
BLACK
6
CONTINUOUS
10
-0.299093
20
-0.0337666
11
-0.299843
21
-0.03
0
LINE
8
BLACK
6
CONTINUOUS
10
-0.299843
20
-0.03
11
-0.299843
21
-0.0125553
0
LINE
8
BLACK
6
CONTINUOUS
10
-0.299843
20
-0.0125553
11
-0.310472
21
-0.0125553
0
LINE
8
BLACK
6
CONTINUOUS
10
-0.310472
20
-0.0125553
11
-0.310472
21
0.0464998
0
LINE
8
BLACK
6
CONTINUOUS
10
-0.310472
20
0.0464998
11
-0.299843
21
0.0464998
0
LINE
8
BLACK
6
CONTINUOUS
10
-0.299843
20
0.0464998
11
-0.299843
21
0.0878456
0
LINE
8
BLACK
6
CONTINUOUS
10
-0.299843
20
0.0878456
11
-0.30274
21
0.0907435
0
LINE
8
BLACK
6
CONTINUOUS
10
-0.30274
20
0.0907435
11
-0.304977
21
0.0951336
0
LINE
8
BLACK
6
CONTINUOUS
10
-0.304977
20
0.0951336
11
-0.305748
21
0.1
0
LINE
8
BLACK
6
CONTINUOUS
10
-0.305748
20
0.1
11
-0.304977
21
0.104866
0
LINE
8
BLACK
6
CONTINUOUS
10
-0.304977
20
0.104866
11
-0.30274
21
0.109256
0
LINE
8
BLACK
6
CONTINUOUS
10
-0.30274
20
0.109256
11
-0.299256
21
0.11274
0
LINE
8
BLACK
6
CONTINUOUS
10
-0.299256
20
0.11274
11
-0.294866
21
0.114977
0
LINE
8
BLACK
6
CONTINUOUS
10
-0.294866
20
0.114977
11
-0.29
21
0.115748
0
LINE
8
BLACK
6
CONTINUOUS
10
-0.29
20
0.115748
11
-0.285134
21
0.114977
0
LINE
8
BLACK
6
CONTINUOUS
10
-0.285134
20
0.114977
11
-0.280744
21
0.11274
0
LINE
8
BLACK
6
CONTINUOUS
10
-0.280744
20
0.11274
11
-0.27726
21
0.109256
0
LINE
8
BLACK
6
CONTINUOUS
10
-0.27726
20
0.109256
11
-0.275023
21
0.104866
0
LINE
8
BLACK
6
CONTINUOUS
10
-0.275023
20
0.104866
11
-0.274252
21
0.1
0
LINE
8
BLACK
6
CONTINUOUS
10
-0.274252
20
0.1
11
-0.275023
21
0.0951336
0
LINE
8
BLACK
6
CONTINUOUS
10
-0.275023
20
0.0951336
11
-0.27726
21
0.0907435
0
LINE
8
BLACK
6
CONTINUOUS
10
-0.27726
20
0.0907435
11
-0.280157
21
0.0878456
0
LINE
8
BLACK
6
CONTINUOUS
10
-0.280157
20
0.0878456
11
-0.280157
21
0.0444223
0
LINE
8
BLACK
6
CONTINUOUS
10
-0.280157
20
0.0444223
11
-0.275878
21
0.0416487
0
LINE
8
BLACK
6
CONTINUOUS
10
-0.275878
20
0.0416487
11
-0.272235
21
0.0374205
0
LINE
8
BLACK
6
CONTINUOUS
10
-0.272235
20
0.0374205
11
-0.269925
21
0.0323397
0
LINE
8
BLACK
6
CONTINUOUS
10
-0.269925
20
0.0323397
11
-0.269134
21
0.0268148
0
LINE
8
BLACK
6
CONTINUOUS
10
-0.269134
20
0.0268148
11
-0.269134
21
0.00712976
0
LINE
8
BLACK
6
CONTINUOUS
10
-0.269134
20
0.00712976
11
-0.26914
21
0.00664882
0
LINE
8
BLACK
6
CONTINUOUS
10
-0.26914
20
0.00664882
11
-0.270066
21
0.00114484
0
LINE
8
BLACK
6
CONTINUOUS
10
-0.270066
20
0.00114484
11
-0.272499
21
-0.00387795
0
LINE
8
BLACK
6
CONTINUOUS
10
-0.272499
20
-0.00387795
11
-0.276245
21
-0.00801591
0
LINE
8
BLACK
6
CONTINUOUS
10
-0.276245
20
-0.00801591
11
-0.280157
21
-0.0104183
0
LINE
8
BLACK
6
CONTINUOUS
10
-0.280157
20
-0.0104183
11
-0.280157
21
-0.0259231
0
LINE
8
BLACK
6
CONTINUOUS
10
-0.280157
20
-0.0259231
11
-0.136103
21
-0.169978
0
LINE
8
BLACK
6
CONTINUOUS
10
-0.136103
20
-0.169978
11
0.0827058
21
-0.169978
0
LINE
8
BLACK
6
CONTINUOUS
10
0.0827058
20
-0.169978
11
0.0864724
21
-0.170727
0
LINE
8
BLACK
6
CONTINUOUS
10
0.0864724
20
-0.170727
11
0.0896656
21
-0.17286
0
LINE
8
BLACK
6
CONTINUOUS
10
0.258465
20
-0.133465
11
0.191535
21
-0.133465
0
LINE
8
BLACK
6
CONTINUOUS
10
0.191535
20
-0.133465
11
0.191535
21
-0.0665354
0
LINE
8
BLACK
6
CONTINUOUS
10
0.191535
20
-0.0665354
11
0.258465
21
-0.0665354
0
LINE
8
BLACK
6
CONTINUOUS
10
0.258465
20
-0.0665354
11
0.258465
21
-0.133465
0
LINE
8
BLACK
6
CONTINUOUS
10
0.235341
20
0.0318267
11
0.241732
21
0.0289812
0
LINE
8
BLACK
6
CONTINUOUS
10
0.241732
20
0.0289812
11
0.247392
21
0.024869
0
LINE
8
BLACK
6
CONTINUOUS
10
0.247392
20
0.024869
11
0.252073
21
0.01967
0
LINE
8
BLACK
6
CONTINUOUS
10
0.252073
20
0.01967
11
0.255571
21
0.0136113
0
LINE
8
BLACK
6
CONTINUOUS
10
0.255571
20
0.0136113
11
0.257733
21
0.00695768
0
LINE
8
BLACK
6
CONTINUOUS
10
0.257733
20
0.00695768
11
0.258465
21
0
0
LINE
8
BLACK
6
CONTINUOUS
10
0.258465
20
0
11
0.257733
21
-0.00695768
0
LINE
8
BLACK
6
CONTINUOUS
10
0.257733
20
-0.00695768
11
0.255571
21
-0.0136113
0
LINE
8
BLACK
6
CONTINUOUS
10
0.255571
20
-0.0136113
11
0.252073
21
-0.01967
0
LINE
8
BLACK
6
CONTINUOUS
10
0.252073
20
-0.01967
11
0.247392
21
-0.024869
0
LINE
8
BLACK
6
CONTINUOUS
10
0.247392
20
-0.024869
11
0.241732
21
-0.0289812
0
LINE
8
BLACK
6
CONTINUOUS
10
0.241732
20
-0.0289812
11
0.235341
21
-0.0318267
0
LINE
8
BLACK
6
CONTINUOUS
10
0.235341
20
-0.0318267
11
0.228498
21
-0.0332813
0
LINE
8
BLACK
6
CONTINUOUS
10
0.228498
20
-0.0332813
11
0.221502
21
-0.0332813
0
LINE
8
BLACK
6
CONTINUOUS
10
0.221502
20
-0.0332813
11
0.214659
21
-0.0318267
0
LINE
8
BLACK
6
CONTINUOUS
10
0.214659
20
-0.0318267
11
0.208268
21
-0.0289812
0
LINE
8
BLACK
6
CONTINUOUS
10
0.208268
20
-0.0289812
11
0.202608
21
-0.024869
0
LINE
8
BLACK
6
CONTINUOUS
10
0.202608
20
-0.024869
11
0.197927
21
-0.01967
0
LINE
8
BLACK
6
CONTINUOUS
10
0.197927
20
-0.01967
11
0.194429
21
-0.0136113
0
LINE
8
BLACK
6
CONTINUOUS
10
0.194429
20
-0.0136113
11
0.192267
21
-0.00695768
0
LINE
8
BLACK
6
CONTINUOUS
10
0.192267
20
-0.00695768
11
0.191535
21
0
0
LINE
8
BLACK
6
CONTINUOUS
10
0.191535
20
0
11
0.192267
21
0.00695768
0
LINE
8
BLACK
6
CONTINUOUS
10
0.192267
20
0.00695768
11
0.194429
21
0.0136113
0
LINE
8
BLACK
6
CONTINUOUS
10
0.194429
20
0.0136113
11
0.197927
21
0.01967
0
LINE
8
BLACK
6
CONTINUOUS
10
0.197927
20
0.01967
11
0.202608
21
0.024869
0
LINE
8
BLACK
6
CONTINUOUS
10
0.202608
20
0.024869
11
0.208268
21
0.0289812
0
LINE
8
BLACK
6
CONTINUOUS
10
0.208268
20
0.0289812
11
0.214659
21
0.0318267
0
LINE
8
BLACK
6
CONTINUOUS
10
0.214659
20
0.0318267
11
0.221502
21
0.0332813
0
LINE
8
BLACK
6
CONTINUOUS
10
0.221502
20
0.0332813
11
0.228498
21
0.0332813
0
LINE
8
BLACK
6
CONTINUOUS
10
0.228498
20
0.0332813
11
0.235341
21
0.0318267
0
LINE
8
BLACK
6
CONTINUOUS
10
-0.124744
20
0.25126
11
-0.129134
21
0.249023
0
LINE
8
BLACK
6
CONTINUOUS
10
-0.129134
20
0.249023
11
-0.134
21
0.248252
0
LINE
8
BLACK
6
CONTINUOUS
10
-0.134
20
0.248252
11
-0.135579
21
0.248502
0
LINE
8
BLACK
6
CONTINUOUS
10
-0.135579
20
0.248502
11
-0.146155
21
0.237926
0
LINE
8
BLACK
6
CONTINUOUS
10
-0.146155
20
0.237926
11
-0.149348
21
0.235792
0
LINE
8
BLACK
6
CONTINUOUS
10
-0.149348
20
0.235792
11
-0.153114
21
0.235043
0
LINE
8
BLACK
6
CONTINUOUS
10
-0.153114
20
0.235043
11
-0.496791
21
0.235043
0
LINE
8
BLACK
6
CONTINUOUS
10
-0.496791
20
0.235043
11
-0.498756
21
0.234042
0
LINE
8
BLACK
6
CONTINUOUS
10
-0.498756
20
0.234042
11
-0.503622
21
0.233271
0
LINE
8
BLACK
6
CONTINUOUS
10
-0.503622
20
0.233271
11
-0.508488
21
0.234042
0
LINE
8
BLACK
6
CONTINUOUS
10
-0.508488
20
0.234042
11
-0.512879
21
0.236279
0
LINE
8
BLACK
6
CONTINUOUS
10
-0.512879
20
0.236279
11
-0.516362
21
0.239763
0
LINE
8
BLACK
6
CONTINUOUS
10
-0.516362
20
0.239763
11
-0.518599
21
0.244153
0
LINE
8
BLACK
6
CONTINUOUS
10
-0.518599
20
0.244153
11
-0.51937
21
0.24902
0
LINE
8
BLACK
6
CONTINUOUS
10
-0.51937
20
0.24902
11
-0.518599
21
0.253886
0
LINE
8
BLACK
6
CONTINUOUS
10
-0.518599
20
0.253886
11
-0.516362
21
0.258276
0
LINE
8
BLACK
6
CONTINUOUS
10
-0.516362
20
0.258276
11
-0.512879
21
0.26176
0
LINE
8
BLACK
6
CONTINUOUS
10
-0.512879
20
0.26176
11
-0.508488
21
0.263997
0
LINE
8
BLACK
6
CONTINUOUS
10
-0.508488
20
0.263997
11
-0.503622
21
0.264768
0
LINE
8
BLACK
6
CONTINUOUS
10
-0.503622
20
0.264768
11
-0.498756
21
0.263997
0
LINE
8
BLACK
6
CONTINUOUS
10
-0.498756
20
0.263997
11
-0.494366
21
0.26176
0
LINE
8
BLACK
6
CONTINUOUS
10
-0.494366
20
0.26176
11
-0.490882
21
0.258276
0
LINE
8
BLACK
6
CONTINUOUS
10
-0.490882
20
0.258276
11
-0.489074
21
0.254728
0
LINE
8
BLACK
6
CONTINUOUS
10
-0.489074
20
0.254728
11
-0.157191
21
0.254728
0
LINE
8
BLACK
6
CONTINUOUS
10
-0.157191
20
0.254728
11
-0.149498
21
0.262421
0
LINE
8
BLACK
6
CONTINUOUS
10
-0.149498
20
0.262421
11
-0.149748
21
0.264
0
LINE
8
BLACK
6
CONTINUOUS
10
-0.149748
20
0.264
11
-0.148977
21
0.268866
0
LINE
8
BLACK
6
CONTINUOUS
10
-0.148977
20
0.268866
11
-0.14674
21
0.273256
0
LINE
8
BLACK
6
CONTINUOUS
10
-0.14674
20
0.273256
11
-0.143256
21
0.27674
0
LINE
8
BLACK
6
CONTINUOUS
10
-0.143256
20
0.27674
11
-0.138866
21
0.278977
0
LINE
8
BLACK
6
CONTINUOUS
10
-0.138866
20
0.278977
11
-0.134
21
0.279748
0
LINE
8
BLACK
6
CONTINUOUS
10
-0.134
20
0.279748
11
-0.129134
21
0.278977
0
LINE
8
BLACK
6
CONTINUOUS
10
-0.129134
20
0.278977
11
-0.124744
21
0.27674
0
LINE
8
BLACK
6
CONTINUOUS
10
-0.124744
20
0.27674
11
-0.121846
21
0.273843
0
LINE
8
BLACK
6
CONTINUOUS
10
-0.121846
20
0.273843
11
0.0827577
21
0.273843
0
LINE
8
BLACK
6
CONTINUOUS
10
0.0827577
20
0.273843
11
0.106549
21
0.297634
0
LINE
8
BLACK
6
CONTINUOUS
10
0.106549
20
0.297634
11
0.106299
21
0.299213
0
LINE
8
BLACK
6
CONTINUOUS
10
0.106299
20
0.299213
11
0.10707
21
0.304079
0
LINE
8
BLACK
6
CONTINUOUS
10
0.10707
20
0.304079
11
0.109307
21
0.308469
0
LINE
8
BLACK
6
CONTINUOUS
10
0.109307
20
0.308469
11
0.112791
21
0.311953
0
LINE
8
BLACK
6
CONTINUOUS
10
0.112791
20
0.311953
11
0.117181
21
0.31419
0
LINE
8
BLACK
6
CONTINUOUS
10
0.117181
20
0.31419
11
0.122047
21
0.314961
0
LINE
8
BLACK
6
CONTINUOUS
10
0.122047
20
0.314961
11
0.126914
21
0.31419
0
LINE
8
BLACK
6
CONTINUOUS
10
0.126914
20
0.31419
11
0.131304
21
0.311953
0
LINE
8
BLACK
6
CONTINUOUS
10
0.131304
20
0.311953
11
0.134788
21
0.308469
0
LINE
8
BLACK
6
CONTINUOUS
10
0.134788
20
0.308469
11
0.137025
21
0.304079
0
LINE
8
BLACK
6
CONTINUOUS
10
0.137025
20
0.304079
11
0.137795
21
0.299213
0
LINE
8
BLACK
6
CONTINUOUS
10
0.137795
20
0.299213
11
0.137025
21
0.294346
0
LINE
8
BLACK
6
CONTINUOUS
10
0.137025
20
0.294346
11
0.134788
21
0.289956
0
LINE
8
BLACK
6
CONTINUOUS
10
0.134788
20
0.289956
11
0.131304
21
0.286472
0
LINE
8
BLACK
6
CONTINUOUS
10
0.131304
20
0.286472
11
0.126914
21
0.284235
0
LINE
8
BLACK
6
CONTINUOUS
10
0.126914
20
0.284235
11
0.122047
21
0.283465
0
LINE
8
BLACK
6
CONTINUOUS
10
0.122047
20
0.283465
11
0.120469
21
0.283715
0
LINE
8
BLACK
6
CONTINUOUS
10
0.120469
20
0.283715
11
0.0937944
21
0.25704
0
LINE
8
BLACK
6
CONTINUOUS
10
0.0937944
20
0.25704
11
0.0906012
21
0.254907
0
LINE
8
BLACK
6
CONTINUOUS
10
0.0906012
20
0.254907
11
0.0868346
21
0.254157
0
LINE
8
BLACK
6
CONTINUOUS
10
0.0868346
20
0.254157
11
-0.121846
21
0.254157
0
LINE
8
BLACK
6
CONTINUOUS
10
-0.121846
20
0.254157
11
-0.124744
21
0.25126
0
LINE
8
BLACK
6
CONTINUOUS
10
-0.707134
20
0.227863
11
-0.702744
21
0.225626
0
LINE
8
BLACK
6
CONTINUOUS
10
-0.702744
20
0.225626
11
-0.69926
21
0.222142
0
LINE
8
BLACK
6
CONTINUOUS
10
-0.69926
20
0.222142
11
-0.698555
21
0.22076
0
LINE
8
BLACK
6
CONTINUOUS
10
-0.698555
20
0.22076
11
-0.667986
21
0.22076
0
LINE
8
BLACK
6
CONTINUOUS
10
-0.667986
20
0.22076
11
-0.666704
21
0.220465
0
LINE
8
BLACK
6
CONTINUOUS
10
-0.666704
20
0.220465
11
-0.665398
21
0.220317
0
LINE
8
BLACK
6
CONTINUOUS
10
-0.665398
20
0.220317
11
-0.665014
21
0.220076
0
LINE
8
BLACK
6
CONTINUOUS
10
-0.665014
20
0.220076
11
-0.664573
21
0.219975
0
LINE
8
BLACK
6
CONTINUOUS
10
-0.664573
20
0.219975
11
-0.663546
21
0.219153
0
LINE
8
BLACK
6
CONTINUOUS
10
-0.663546
20
0.219153
11
-0.662432
21
0.218453
0
LINE
8
BLACK
6
CONTINUOUS
10
-0.662432
20
0.218453
11
-0.549534
21
0.105555
0
LINE
8
BLACK
6
CONTINUOUS
10
-0.549534
20
0.105555
11
-0.473602
21
0.105555
0
LINE
8
BLACK
6
CONTINUOUS
10
-0.473602
20
0.105555
11
-0.472898
21
0.106937
0
LINE
8
BLACK
6
CONTINUOUS
10
-0.472898
20
0.106937
11
-0.469414
21
0.110421
0
LINE
8
BLACK
6
CONTINUOUS
10
-0.469414
20
0.110421
11
-0.465024
21
0.112658
0
LINE
8
BLACK
6
CONTINUOUS
10
-0.465024
20
0.112658
11
-0.460157
21
0.113429
0
LINE
8
BLACK
6
CONTINUOUS
10
-0.460157
20
0.113429
11
-0.455291
21
0.112658
0
LINE
8
BLACK
6
CONTINUOUS
10
-0.455291
20
0.112658
11
-0.450901
21
0.110421
0
LINE
8
BLACK
6
CONTINUOUS
10
-0.450901
20
0.110421
11
-0.447417
21
0.106937
0
LINE
8
BLACK
6
CONTINUOUS
10
-0.447417
20
0.106937
11
-0.44518
21
0.102547
0
LINE
8
BLACK
6
CONTINUOUS
10
-0.44518
20
0.102547
11
-0.444409
21
0.0976809
0
LINE
8
BLACK
6
CONTINUOUS
10
-0.444409
20
0.0976809
11
-0.44518
21
0.0928145
0
LINE
8
BLACK
6
CONTINUOUS
10
-0.44518
20
0.0928145
11
-0.447417
21
0.0884245
0
LINE
8
BLACK
6
CONTINUOUS
10
-0.447417
20
0.0884245
11
-0.450901
21
0.0849405
0
LINE
8
BLACK
6
CONTINUOUS
10
-0.450901
20
0.0849405
11
-0.455291
21
0.0827037
0
LINE
8
BLACK
6
CONTINUOUS
10
-0.455291
20
0.0827037
11
-0.460157
21
0.0819329
0
LINE
8
BLACK
6
CONTINUOUS
10
-0.460157
20
0.0819329
11
-0.465024
21
0.0827037
0
LINE
8
BLACK
6
CONTINUOUS
10
-0.465024
20
0.0827037
11
-0.469414
21
0.0849405
0
LINE
8
BLACK
6
CONTINUOUS
10
-0.469414
20
0.0849405
11
-0.472898
21
0.0884245
0
LINE
8
BLACK
6
CONTINUOUS
10
-0.472898
20
0.0884245
11
-0.473602
21
0.0898069
0
LINE
8
BLACK
6
CONTINUOUS
10
-0.473602
20
0.0898069
11
-0.549534
21
0.0898069
0
LINE
8
BLACK
6
CONTINUOUS
10
-0.549534
20
0.0898069
11
-0.606126
21
0.0332147
0
LINE
8
BLACK
6
CONTINUOUS
10
-0.606126
20
0.0332147
11
-0.606126
21
-0.0795889
0
LINE
8
BLACK
6
CONTINUOUS
10
-0.606126
20
-0.0795889
11
-0.59847
21
-0.0872448
0
LINE
8
BLACK
6
CONTINUOUS
10
-0.59847
20
-0.0872448
11
-0.594488
21
-0.0866142
0
LINE
8
BLACK
6
CONTINUOUS
10
-0.594488
20
-0.0866142
11
-0.589622
21
-0.0873849
0
LINE
8
BLACK
6
CONTINUOUS
10
-0.589622
20
-0.0873849
11
-0.585232
21
-0.0896218
0
LINE
8
BLACK
6
CONTINUOUS
10
-0.585232
20
-0.0896218
11
-0.581748
21
-0.0931057
0
LINE
8
BLACK
6
CONTINUOUS
10
-0.581748
20
-0.0931057
11
-0.579511
21
-0.0974958
0
LINE
8
BLACK
6
CONTINUOUS
10
-0.579511
20
-0.0974958
11
-0.57874
21
-0.102362
0
LINE
8
BLACK
6
CONTINUOUS
10
-0.57874
20
-0.102362
11
-0.579511
21
-0.107229
0
LINE
8
BLACK
6
CONTINUOUS
10
-0.579511
20
-0.107229
11
-0.581748
21
-0.111619
0
LINE
8
BLACK
6
CONTINUOUS
10
-0.581748
20
-0.111619
11
-0.585232
21
-0.115103
0
LINE
8
BLACK
6
CONTINUOUS
10
-0.585232
20
-0.115103
11
-0.589622
21
-0.117339
0
LINE
8
BLACK
6
CONTINUOUS
10
-0.589622
20
-0.117339
11
-0.594488
21
-0.11811
0
LINE
8
BLACK
6
CONTINUOUS
10
-0.594488
20
-0.11811
11
-0.599355
21
-0.117339
0
LINE
8
BLACK
6
CONTINUOUS
10
-0.599355
20
-0.117339
11
-0.603745
21
-0.115103
0
LINE
8
BLACK
6
CONTINUOUS
10
-0.603745
20
-0.115103
11
-0.607229
21
-0.111619
0
LINE
8
BLACK
6
CONTINUOUS
10
-0.607229
20
-0.111619
11
-0.609465
21
-0.107229
0
LINE
8
BLACK
6
CONTINUOUS
10
-0.609465
20
-0.107229
11
-0.610236
21
-0.102362
0
LINE
8
BLACK
6
CONTINUOUS
10
-0.610236
20
-0.102362
11
-0.609606
21
-0.0983804
0
LINE
8
BLACK
6
CONTINUOUS
10
-0.609606
20
-0.0983804
11
-0.619577
21
-0.0884085
0
LINE
8
BLACK
6
CONTINUOUS
10
-0.619577
20
-0.0884085
11
-0.620276
21
-0.0872935
0
LINE
8
BLACK
6
CONTINUOUS
10
-0.620276
20
-0.0872935
11
-0.621095
21
-0.086265
0
LINE
8
BLACK
6
CONTINUOUS
10
-0.621095
20
-0.086265
11
-0.621196
21
-0.0858237
0
LINE
8
BLACK
6
CONTINUOUS
10
-0.621196
20
-0.0858237
11
-0.621436
21
-0.0854399
0
LINE
8
BLACK
6
CONTINUOUS
10
-0.621436
20
-0.0854399
11
-0.621582
21
-0.0841326
0
LINE
8
BLACK
6
CONTINUOUS
10
-0.621582
20
-0.0841326
11
-0.621874
21
-0.0828504
0
LINE
8
BLACK
6
CONTINUOUS
10
-0.621874
20
-0.0828504
11
-0.621874
21
0.03649
0
LINE
8
BLACK
6
CONTINUOUS
10
-0.621874
20
0.03649
11
-0.621579
21
0.0377719
0
LINE
8
BLACK
6
CONTINUOUS
10
-0.621579
20
0.0377719
11
-0.621431
21
0.0390787
0
LINE
8
BLACK
6
CONTINUOUS
10
-0.621431
20
0.0390787
11
-0.621191
21
0.0394619
0
LINE
8
BLACK
6
CONTINUOUS
10
-0.621191
20
0.0394619
11
-0.621089
21
0.0399032
0
LINE
8
BLACK
6
CONTINUOUS
10
-0.621089
20
0.0399032
11
-0.620268
21
0.0409306
0
LINE
8
BLACK
6
CONTINUOUS
10
-0.620268
20
0.0409306
11
-0.619568
21
0.042044
0
LINE
8
BLACK
6
CONTINUOUS
10
-0.619568
20
0.042044
11
-0.563931
21
0.0976809
0
LINE
8
BLACK
6
CONTINUOUS
10
-0.563931
20
0.0976809
11
-0.671262
21
0.205012
0
LINE
8
BLACK
6
CONTINUOUS
10
-0.671262
20
0.205012
11
-0.698555
21
0.205012
0
LINE
8
BLACK
6
CONTINUOUS
10
-0.698555
20
0.205012
11
-0.69926
21
0.203629
0
LINE
8
BLACK
6
CONTINUOUS
10
-0.69926
20
0.203629
11
-0.702744
21
0.200145
0
LINE
8
BLACK
6
CONTINUOUS
10
-0.702744
20
0.200145
11
-0.707134
21
0.197908
0
LINE
8
BLACK
6
CONTINUOUS
10
-0.707134
20
0.197908
11
-0.712
21
0.197138
0
LINE
8
BLACK
6
CONTINUOUS
10
-0.712
20
0.197138
11
-0.716866
21
0.197908
0
LINE
8
BLACK
6
CONTINUOUS
10
-0.716866
20
0.197908
11
-0.721256
21
0.200145
0
LINE
8
BLACK
6
CONTINUOUS
10
-0.721256
20
0.200145
11
-0.72474
21
0.203629
0
LINE
8
BLACK
6
CONTINUOUS
10
-0.72474
20
0.203629
11
-0.726977
21
0.208019
0
LINE
8
BLACK
6
CONTINUOUS
10
-0.726977
20
0.208019
11
-0.727748
21
0.212886
0
LINE
8
BLACK
6
CONTINUOUS
10
-0.727748
20
0.212886
11
-0.726977
21
0.217752
0
LINE
8
BLACK
6
CONTINUOUS
10
-0.726977
20
0.217752
11
-0.72474
21
0.222142
0
LINE
8
BLACK
6
CONTINUOUS
10
-0.72474
20
0.222142
11
-0.721256
21
0.225626
0
LINE
8
BLACK
6
CONTINUOUS
10
-0.721256
20
0.225626
11
-0.716866
21
0.227863
0
LINE
8
BLACK
6
CONTINUOUS
10
-0.716866
20
0.227863
11
-0.712
21
0.228634
0
LINE
8
BLACK
6
CONTINUOUS
10
-0.712
20
0.228634
11
-0.707134
21
0.227863
0
CIRCLE
8
BLACK
10
-0.05
20
0.33
40
0.00787402
0
CIRCLE
8
BLACK
10
0.449291
20
-0.0461143
40
0.00787402
0
CIRCLE
8
BLACK
10
-0.48
20
0.149886
40
0.00787402
0
CIRCLE
8
BLACK
10
-0.68
20
-0.33
40
0.00787402
0
CIRCLE
8
BLACK
10
-0.48
20
-0.330114
40
0.00787402
0
CIRCLE
8
BLACK
10
-0.8
20
0.13
40
0.00787402
0
CIRCLE
8
BLACK
10
-0.8
20
-0.25
40
0.00787402
0
CIRCLE
8
BLACK
10
-0.8
20
-0.13
40
0.00787402
0
CIRCLE
8
BLACK
10
-0.8
20
-0.21
40
0.00787402
0
CIRCLE
8
BLACK
10
-0.8
20
0.25
40
0.00787402
0
CIRCLE
8
BLACK
10
-0.8
20
-0.17
40
0.00787402
0
CIRCLE
8
BLACK
10
-0.8
20
0.21
40
0.00787402
0
CIRCLE
8
BLACK
10
-0.8
20
0.17
40
0.00787402
0
CIRCLE
8
BLACK
10
-0.64
20
0.334886
40
0.00787402
0
CIRCLE
8
BLACK
10
0.24
20
-0.18
40
0.00787402
0
CIRCLE
8
BLACK
10
0.449291
20
-0.199091
40
0.00787402
0
CIRCLE
8
BLACK
10
0.449291
20
-0.242555
40
0.00787402
0
CIRCLE
8
BLACK
10
0.449291
20
-0.155626
40
0.00787402
0
CIRCLE
8
BLACK
10
0.449291
20
0.325516
40
0.00787402
0
CIRCLE
8
BLACK
10
-0.09
20
0.149886
40
0.00787402
0
CIRCLE
8
BLACK
10
0.449291
20
-0.329484
40
0.00787402
0
CIRCLE
8
BLACK
10
0.449291
20
-0.28602
40
0.00787402
0
CIRCLE
8
BLACK
10
0.150079
20
0.123271
40
0.00787402
0
CIRCLE
8
BLACK
10
0.150079
20
0.0563424
40
0.00787402
0
CIRCLE
8
BLACK
10
0.449291
20
0.280516
40
0.00787402
0
CIRCLE
8
BLACK
10
-0.1
20
-0.330114
40
0.00787402
0
CIRCLE
8
BLACK
10
-0.67
20
0
40
0.00787402
0
CIRCLE
8
BLACK
10
-0.015748
20
0.145669
40
0.00787402
0
CIRCLE
8
BLACK
10
0.09
20
-0.33
40
0.00787402
0
CIRCLE
8
BLACK
10
-0.44
20
0.05
40
0.00787402
0
CIRCLE
8
BLACK
10
-0.5
20
-0.0201143
40
0.00787402
0
CIRCLE
8
BLACK
10
-0.0757246
20
-0.213353
40
0.00787402
0
CIRCLE
8
BLACK
10
0.405984
20
-0.199563
40
0.00787402
0
CIRCLE
8
BLACK
10
-0.311024
20
-0.220472
40
0.00787402
0
CIRCLE
8
BLACK
10
-0.233937
20
-0.142713
40
0.00787402
0
CIRCLE
8
BLACK
10
-0.164882
20
-0.0538939
40
0.00787402
0
CIRCLE
8
BLACK
10
-0.5
20
0.0498857
40
0.00787402
0
CIRCLE
8
BLACK
10
-0.164882
20
0.0130353
40
0.00787402
0
CIRCLE
8
BLACK
10
0.118425
20
-0.0935002
40
0.00787402
0
CIRCLE
8
BLACK
10
-0.34
20
0.11
40
0.00787402
0
CIRCLE
8
BLACK
10
0.449291
20
0.20063
40
0.00787402
0
CIRCLE
8
BLACK
10
0.449291
20
0.24063
40
0.00787402
0
CIRCLE
8
BLACK
10
0.23
20
0.17
40
0.00787402
0
CIRCLE
8
BLACK
10
-0.3
20
-0.330114
40
0.00787402
0
CIRCLE
8
BLACK
10
-0.67
20
-0.05
40
0.00787402
0
CIRCLE
8
BLACK
10
-0.493
20
0.334886
40
0.00787402
0
CIRCLE
8
BLACK
10
0.15
20
-0.13
40
0.00787402
0
CIRCLE
8
BLACK
10
-0.733937
20
0.27461
40
0.00787402
0
CIRCLE
8
BLACK
10
-0.67
20
0.05
40
0.00787402
0
CIRCLE
8
BLACK
10
-0.69
20
0.334886
40
0.00787402
0
CIRCLE
8
BLACK
10
-0.14
20
-0.12
40
0.00787402
0
CIRCLE
8
BLACK
10
-0.2
20
-0.279528
40
0.00787402
0
CIRCLE
8
BLACK
10
-0.29
20
0.1
40
0.00787402
0
CIRCLE
8
BLACK
10
0.113
20
-0.210114
40
0.00787402
0
CIRCLE
8
BLACK
10
-0.56
20
0.01
40
0.00787402
0
CIRCLE
8
BLACK
10
-0.503622
20
0.24902
40
0.00787402
0
CIRCLE
8
BLACK
10
-0.54
20
-0.23
40
0.00787402
0
CIRCLE
8
BLACK
10
0.122047
20
0.299213
40
0.00787402
0
CIRCLE
8
BLACK
10
-0.134
20
0.264
40
0.00787402
0
CIRCLE
8
BLACK
10
-0.594488
20
-0.102362
40
0.00787402
0
CIRCLE
8
BLACK
10
-0.712
20
0.212886
40
0.00787402
0
CIRCLE
8
BLACK
10
-0.460157
20
0.0976809
40
0.00787402
0
CIRCLE
8
BLACK
10
-0.34
20
-0.0381458
40
0.00787402
  0
ENDSEC
  0
EOF
