  0
SECTION
  2
HEADER
  9
$ANGBASE
  50
0.0
  9
$ANGDIR
  70
1
  9
$MEASUREMENT
  70
0
  0
ENDSEC
  0
SECTION
  2
TABLES
  0
TABLE
  2
LTYPE
  70
4
  0
LTYPE
  5
40F
  2
CONTINUOUS
  70
0
  3
Solid line
  72
65
  73
0
  40
0.0
  0
LTYPE
  5
410
  2
DASHDOT
 70
0
  3
Dash Dot ____ _ ____ _
 72
65
 73
4
 40
2.0
 49
1.25
 49
-0.25
 49
0.25
 49
-0.25
  0
LTYPE
  5
411
  2
DASHED
 70
0
  3
Dashed __ __ __ __ __
 72
65
 73
2
 40
0.75
 49
0.5
 49
-0.25
  0
LTYPE
  5
43B
  2
DOTTED
 70
0
  3
Dotted .  .  .  .
 72
65
 73
2
 40
0.2
 49
0.0
 49
-0.2
  0
ENDTAB
  0
TABLE
  2
STYLE
  70
4
  0
STYLE
  2
KICAD
  70
0
  40
0
  41
1
  42
1
  50
0
  71
0
  3
isocp.shx
  0
STYLE
  2
KICADB
  70
0
  40
0
  41
1
  42
1
  50
0
  71
0
  3
isocp.shx
  0
STYLE
  2
KICADI
  70
0
  40
0
  41
1
  42
1
  50
15
  71
0
  3
isocp.shx
  0
STYLE
  2
KICADBI
  70
0
  40
0
  41
1
  42
1
  50
15
  71
0
  3
isocp.shx
  0
ENDTAB
  0
TABLE
  2
LAYER
  70
1
  0
LAYER
  2
BLACK
  70
0
  62
7
  6
CONTINUOUS
  0
ENDTAB
  0
ENDSEC
  0
SECTION
  2
ENTITIES
0
LINE
8
BLACK
6
CONTINUOUS
10
0.750613
20
-0.0750094
11
0.752775
21
-0.0771709
0
LINE
8
BLACK
6
CONTINUOUS
10
0.752775
20
-0.0771709
11
0.753566
21
-0.0801237
0
LINE
8
BLACK
6
CONTINUOUS
10
0.753566
20
-0.0801237
11
0.753566
21
-0.0910911
0
LINE
8
BLACK
6
CONTINUOUS
10
0.753566
20
-0.0910911
11
0.806715
21
-0.0910911
0
LINE
8
BLACK
6
CONTINUOUS
10
0.806715
20
-0.0910911
11
0.809668
21
-0.0918823
0
LINE
8
BLACK
6
CONTINUOUS
10
0.809668
20
-0.0918823
11
0.81183
21
-0.0940439
0
LINE
8
BLACK
6
CONTINUOUS
10
0.81183
20
-0.0940439
11
0.812621
21
-0.0969966
0
LINE
8
BLACK
6
CONTINUOUS
10
0.812621
20
-0.0969966
11
0.81183
21
-0.0999494
0
LINE
8
BLACK
6
CONTINUOUS
10
0.81183
20
-0.0999494
11
0.809668
21
-0.102111
0
LINE
8
BLACK
6
CONTINUOUS
10
0.809668
20
-0.102111
11
0.806715
21
-0.102902
0
LINE
8
BLACK
6
CONTINUOUS
10
0.806715
20
-0.102902
11
0.753566
21
-0.102902
0
LINE
8
BLACK
6
CONTINUOUS
10
0.753566
20
-0.102902
11
0.753566
21
-0.113869
0
LINE
8
BLACK
6
CONTINUOUS
10
0.753566
20
-0.113869
11
0.752775
21
-0.116822
0
LINE
8
BLACK
6
CONTINUOUS
10
0.752775
20
-0.116822
11
0.750613
21
-0.118984
0
LINE
8
BLACK
6
CONTINUOUS
10
0.750613
20
-0.118984
11
0.74766
21
-0.119775
0
LINE
8
BLACK
6
CONTINUOUS
10
0.74766
20
-0.119775
11
0.744708
21
-0.118984
0
LINE
8
BLACK
6
CONTINUOUS
10
0.744708
20
-0.118984
11
0.742546
21
-0.116822
0
LINE
8
BLACK
6
CONTINUOUS
10
0.742546
20
-0.116822
11
0.741755
21
-0.113869
0
LINE
8
BLACK
6
CONTINUOUS
10
0.741755
20
-0.113869
11
0.741755
21
-0.0801237
0
LINE
8
BLACK
6
CONTINUOUS
10
0.741755
20
-0.0801237
11
0.742546
21
-0.0771709
0
LINE
8
BLACK
6
CONTINUOUS
10
0.742546
20
-0.0771709
11
0.744708
21
-0.0750094
0
LINE
8
BLACK
6
CONTINUOUS
10
0.744708
20
-0.0750094
11
0.74766
21
-0.0742182
0
LINE
8
BLACK
6
CONTINUOUS
10
0.74766
20
-0.0742182
11
0.750613
21
-0.0750094
0
LINE
8
BLACK
6
CONTINUOUS
10
0.809668
20
-0.030015
11
0.81183
21
-0.0321766
0
LINE
8
BLACK
6
CONTINUOUS
10
0.81183
20
-0.0321766
11
0.812621
21
-0.0351293
0
LINE
8
BLACK
6
CONTINUOUS
10
0.812621
20
-0.0351293
11
0.81183
21
-0.0380821
0
LINE
8
BLACK
6
CONTINUOUS
10
0.81183
20
-0.0380821
11
0.809668
21
-0.0402437
0
LINE
8
BLACK
6
CONTINUOUS
10
0.809668
20
-0.0402437
11
0.806715
21
-0.0410348
0
LINE
8
BLACK
6
CONTINUOUS
10
0.806715
20
-0.0410348
11
0.777176
21
-0.0410348
0
LINE
8
BLACK
6
CONTINUOUS
10
0.777176
20
-0.0410348
11
0.774559
21
-0.0423432
0
LINE
8
BLACK
6
CONTINUOUS
10
0.774559
20
-0.0423432
11
0.773251
21
-0.0449599
0
LINE
8
BLACK
6
CONTINUOUS
10
0.773251
20
-0.0449599
11
0.773251
21
-0.0506081
0
LINE
8
BLACK
6
CONTINUOUS
10
0.773251
20
-0.0506081
11
0.775011
21
-0.0541284
0
LINE
8
BLACK
6
CONTINUOUS
10
0.775011
20
-0.0541284
11
0.775416
21
-0.0545331
0
LINE
8
BLACK
6
CONTINUOUS
10
0.775416
20
-0.0545331
11
0.806715
21
-0.0545331
0
LINE
8
BLACK
6
CONTINUOUS
10
0.806715
20
-0.0545331
11
0.809668
21
-0.0553243
0
LINE
8
BLACK
6
CONTINUOUS
10
0.809668
20
-0.0553243
11
0.81183
21
-0.0574859
0
LINE
8
BLACK
6
CONTINUOUS
10
0.81183
20
-0.0574859
11
0.812621
21
-0.0604387
0
LINE
8
BLACK
6
CONTINUOUS
10
0.812621
20
-0.0604387
11
0.81183
21
-0.0633914
0
LINE
8
BLACK
6
CONTINUOUS
10
0.81183
20
-0.0633914
11
0.809668
21
-0.065553
0
LINE
8
BLACK
6
CONTINUOUS
10
0.809668
20
-0.065553
11
0.806715
21
-0.0663442
0
LINE
8
BLACK
6
CONTINUOUS
10
0.806715
20
-0.0663442
11
0.74766
21
-0.0663442
0
LINE
8
BLACK
6
CONTINUOUS
10
0.74766
20
-0.0663442
11
0.744708
21
-0.065553
0
LINE
8
BLACK
6
CONTINUOUS
10
0.744708
20
-0.065553
11
0.742546
21
-0.0633914
0
LINE
8
BLACK
6
CONTINUOUS
10
0.742546
20
-0.0633914
11
0.741755
21
-0.0604387
0
LINE
8
BLACK
6
CONTINUOUS
10
0.741755
20
-0.0604387
11
0.742546
21
-0.0574859
0
LINE
8
BLACK
6
CONTINUOUS
10
0.742546
20
-0.0574859
11
0.744708
21
-0.0553243
0
LINE
8
BLACK
6
CONTINUOUS
10
0.744708
20
-0.0553243
11
0.74766
21
-0.0545331
0
LINE
8
BLACK
6
CONTINUOUS
10
0.74766
20
-0.0545331
11
0.762041
21
-0.0545331
0
LINE
8
BLACK
6
CONTINUOUS
10
0.762041
20
-0.0545331
11
0.761791
21
-0.0533133
0
LINE
8
BLACK
6
CONTINUOUS
10
0.761791
20
-0.0533133
11
0.76144
21
-0.0520022
0
LINE
8
BLACK
6
CONTINUOUS
10
0.76144
20
-0.0520022
11
0.76144
21
-0.0435658
0
LINE
8
BLACK
6
CONTINUOUS
10
0.76144
20
-0.0435658
11
0.761791
21
-0.0422547
0
LINE
8
BLACK
6
CONTINUOUS
10
0.761791
20
-0.0422547
11
0.762063
21
-0.0409248
0
LINE
8
BLACK
6
CONTINUOUS
10
0.762063
20
-0.0409248
11
0.764875
21
-0.0353005
0
LINE
8
BLACK
6
CONTINUOUS
10
0.764875
20
-0.0353005
11
0.765115
21
-0.0350303
0
LINE
8
BLACK
6
CONTINUOUS
10
0.765115
20
-0.0350303
11
0.765229
21
-0.0346876
0
LINE
8
BLACK
6
CONTINUOUS
10
0.765229
20
-0.0346876
11
0.766117
21
-0.0339007
0
LINE
8
BLACK
6
CONTINUOUS
10
0.766117
20
-0.0339007
11
0.766904
21
-0.0330133
0
LINE
8
BLACK
6
CONTINUOUS
10
0.766904
20
-0.0330133
11
0.767246
21
-0.0328991
0
LINE
8
BLACK
6
CONTINUOUS
10
0.767246
20
-0.0328991
11
0.767516
21
-0.0326594
0
LINE
8
BLACK
6
CONTINUOUS
10
0.767516
20
-0.0326594
11
0.773141
21
-0.0298473
0
LINE
8
BLACK
6
CONTINUOUS
10
0.773141
20
-0.0298473
11
0.774471
21
-0.0295751
0
LINE
8
BLACK
6
CONTINUOUS
10
0.774471
20
-0.0295751
11
0.775782
21
-0.0292238
0
LINE
8
BLACK
6
CONTINUOUS
10
0.775782
20
-0.0292238
11
0.806715
21
-0.0292238
0
LINE
8
BLACK
6
CONTINUOUS
10
0.806715
20
-0.0292238
11
0.809668
21
-0.030015
0
LINE
8
BLACK
6
CONTINUOUS
10
0.809668
20
0.0234158
11
0.81183
21
0.0212543
0
LINE
8
BLACK
6
CONTINUOUS
10
0.81183
20
0.0212543
11
0.812621
21
0.0183015
0
LINE
8
BLACK
6
CONTINUOUS
10
0.812621
20
0.0183015
11
0.81183
21
0.0153487
0
LINE
8
BLACK
6
CONTINUOUS
10
0.81183
20
0.0153487
11
0.810994
21
0.014513
0
LINE
8
BLACK
6
CONTINUOUS
10
0.810994
20
0.014513
11
0.811997
21
0.0125061
0
LINE
8
BLACK
6
CONTINUOUS
10
0.811997
20
0.0125061
11
0.81227
21
0.0111761
0
LINE
8
BLACK
6
CONTINUOUS
10
0.81227
20
0.0111761
11
0.812621
21
0.00986504
0
LINE
8
BLACK
6
CONTINUOUS
10
0.812621
20
0.00986504
11
0.812621
21
0.00142858
0
LINE
8
BLACK
6
CONTINUOUS
10
0.812621
20
0.00142858
11
0.81227
21
0.000117559
0
LINE
8
BLACK
6
CONTINUOUS
10
0.81227
20
0.000117559
11
0.811997
21
-0.00121248
0
LINE
8
BLACK
6
CONTINUOUS
10
0.811997
20
-0.00121248
11
0.809185
21
-0.00683673
0
LINE
8
BLACK
6
CONTINUOUS
10
0.809185
20
-0.00683673
11
0.808946
21
-0.00710693
0
LINE
8
BLACK
6
CONTINUOUS
10
0.808946
20
-0.00710693
11
0.808831
21
-0.00744957
0
LINE
8
BLACK
6
CONTINUOUS
10
0.808831
20
-0.00744957
11
0.807944
21
-0.0082365
0
LINE
8
BLACK
6
CONTINUOUS
10
0.807944
20
-0.0082365
11
0.807157
21
-0.00912394
0
LINE
8
BLACK
6
CONTINUOUS
10
0.807157
20
-0.00912394
11
0.806814
21
-0.00923815
0
LINE
8
BLACK
6
CONTINUOUS
10
0.806814
20
-0.00923815
11
0.806544
21
-0.00947776
0
LINE
8
BLACK
6
CONTINUOUS
10
0.806544
20
-0.00947776
11
0.80092
21
-0.0122899
0
LINE
8
BLACK
6
CONTINUOUS
10
0.80092
20
-0.0122899
11
0.79959
21
-0.0125621
0
LINE
8
BLACK
6
CONTINUOUS
10
0.79959
20
-0.0125621
11
0.798279
21
-0.0129134
0
LINE
8
BLACK
6
CONTINUOUS
10
0.798279
20
-0.0129134
11
0.767345
21
-0.0129134
0
LINE
8
BLACK
6
CONTINUOUS
10
0.767345
20
-0.0129134
11
0.764393
21
-0.0121222
0
LINE
8
BLACK
6
CONTINUOUS
10
0.764393
20
-0.0121222
11
0.762231
21
-0.00996063
0
LINE
8
BLACK
6
CONTINUOUS
10
0.762231
20
-0.00996063
11
0.76144
21
-0.00700787
0
LINE
8
BLACK
6
CONTINUOUS
10
0.76144
20
-0.00700787
11
0.762231
21
-0.00405512
0
LINE
8
BLACK
6
CONTINUOUS
10
0.762231
20
-0.00405512
11
0.764393
21
-0.00189354
0
LINE
8
BLACK
6
CONTINUOUS
10
0.764393
20
-0.00189354
11
0.767345
21
-0.00110236
0
LINE
8
BLACK
6
CONTINUOUS
10
0.767345
20
-0.00110236
11
0.796885
21
-0.00110236
0
LINE
8
BLACK
6
CONTINUOUS
10
0.796885
20
-0.00110236
11
0.799502
21
0.000206024
0
LINE
8
BLACK
6
CONTINUOUS
10
0.799502
20
0.000206024
11
0.80081
21
0.00282268
0
LINE
8
BLACK
6
CONTINUOUS
10
0.80081
20
0.00282268
11
0.80081
21
0.00847094
0
LINE
8
BLACK
6
CONTINUOUS
10
0.80081
20
0.00847094
11
0.79905
21
0.0119911
0
LINE
8
BLACK
6
CONTINUOUS
10
0.79905
20
0.0119911
11
0.798645
21
0.012396
0
LINE
8
BLACK
6
CONTINUOUS
10
0.798645
20
0.012396
11
0.767345
21
0.012396
0
LINE
8
BLACK
6
CONTINUOUS
10
0.767345
20
0.012396
11
0.764393
21
0.0131872
0
LINE
8
BLACK
6
CONTINUOUS
10
0.764393
20
0.0131872
11
0.762231
21
0.0153487
0
LINE
8
BLACK
6
CONTINUOUS
10
0.762231
20
0.0153487
11
0.76144
21
0.0183015
0
LINE
8
BLACK
6
CONTINUOUS
10
0.76144
20
0.0183015
11
0.762231
21
0.0212543
0
LINE
8
BLACK
6
CONTINUOUS
10
0.762231
20
0.0212543
11
0.764393
21
0.0234158
0
LINE
8
BLACK
6
CONTINUOUS
10
0.764393
20
0.0234158
11
0.767345
21
0.024207
0
LINE
8
BLACK
6
CONTINUOUS
10
0.767345
20
0.024207
11
0.806715
21
0.024207
0
LINE
8
BLACK
6
CONTINUOUS
10
0.806715
20
0.024207
11
0.809668
21
0.0234158
0
LINE
8
BLACK
6
CONTINUOUS
10
0.809668
20
0.0768466
11
0.81183
21
0.074685
0
LINE
8
BLACK
6
CONTINUOUS
10
0.81183
20
0.074685
11
0.812621
21
0.0717323
0
LINE
8
BLACK
6
CONTINUOUS
10
0.812621
20
0.0717323
11
0.81183
21
0.0687795
0
LINE
8
BLACK
6
CONTINUOUS
10
0.81183
20
0.0687795
11
0.809668
21
0.066618
0
LINE
8
BLACK
6
CONTINUOUS
10
0.809668
20
0.066618
11
0.806715
21
0.0658268
0
LINE
8
BLACK
6
CONTINUOUS
10
0.806715
20
0.0658268
11
0.777176
21
0.0658268
0
LINE
8
BLACK
6
CONTINUOUS
10
0.777176
20
0.0658268
11
0.774559
21
0.0645185
0
LINE
8
BLACK
6
CONTINUOUS
10
0.774559
20
0.0645185
11
0.773251
21
0.0619018
0
LINE
8
BLACK
6
CONTINUOUS
10
0.773251
20
0.0619018
11
0.773251
21
0.0562535
0
LINE
8
BLACK
6
CONTINUOUS
10
0.773251
20
0.0562535
11
0.775011
21
0.0527333
0
LINE
8
BLACK
6
CONTINUOUS
10
0.775011
20
0.0527333
11
0.775416
21
0.0523285
0
LINE
8
BLACK
6
CONTINUOUS
10
0.775416
20
0.0523285
11
0.806715
21
0.0523285
0
LINE
8
BLACK
6
CONTINUOUS
10
0.806715
20
0.0523285
11
0.809668
21
0.0515373
0
LINE
8
BLACK
6
CONTINUOUS
10
0.809668
20
0.0515373
11
0.81183
21
0.0493757
0
LINE
8
BLACK
6
CONTINUOUS
10
0.81183
20
0.0493757
11
0.812621
21
0.046423
0
LINE
8
BLACK
6
CONTINUOUS
10
0.812621
20
0.046423
11
0.81183
21
0.0434702
0
LINE
8
BLACK
6
CONTINUOUS
10
0.81183
20
0.0434702
11
0.809668
21
0.0413086
0
LINE
8
BLACK
6
CONTINUOUS
10
0.809668
20
0.0413086
11
0.806715
21
0.0405174
0
LINE
8
BLACK
6
CONTINUOUS
10
0.806715
20
0.0405174
11
0.767345
21
0.0405174
0
LINE
8
BLACK
6
CONTINUOUS
10
0.767345
20
0.0405174
11
0.764393
21
0.0413086
0
LINE
8
BLACK
6
CONTINUOUS
10
0.764393
20
0.0413086
11
0.762231
21
0.0434702
0
LINE
8
BLACK
6
CONTINUOUS
10
0.762231
20
0.0434702
11
0.76144
21
0.046423
0
LINE
8
BLACK
6
CONTINUOUS
10
0.76144
20
0.046423
11
0.762231
21
0.0493757
0
LINE
8
BLACK
6
CONTINUOUS
10
0.762231
20
0.0493757
11
0.763067
21
0.0502115
0
LINE
8
BLACK
6
CONTINUOUS
10
0.763067
20
0.0502115
11
0.762063
21
0.0522184
0
LINE
8
BLACK
6
CONTINUOUS
10
0.762063
20
0.0522184
11
0.761791
21
0.0535483
0
LINE
8
BLACK
6
CONTINUOUS
10
0.761791
20
0.0535483
11
0.76144
21
0.0548594
0
LINE
8
BLACK
6
CONTINUOUS
10
0.76144
20
0.0548594
11
0.76144
21
0.0632959
0
LINE
8
BLACK
6
CONTINUOUS
10
0.76144
20
0.0632959
11
0.761791
21
0.064607
0
LINE
8
BLACK
6
CONTINUOUS
10
0.761791
20
0.064607
11
0.762063
21
0.0659369
0
LINE
8
BLACK
6
CONTINUOUS
10
0.762063
20
0.0659369
11
0.764875
21
0.0715612
0
LINE
8
BLACK
6
CONTINUOUS
10
0.764875
20
0.0715612
11
0.765115
21
0.0718314
0
LINE
8
BLACK
6
CONTINUOUS
10
0.765115
20
0.0718314
11
0.765229
21
0.0721741
0
LINE
8
BLACK
6
CONTINUOUS
10
0.765229
20
0.0721741
11
0.766117
21
0.0729611
0
LINE
8
BLACK
6
CONTINUOUS
10
0.766117
20
0.0729611
11
0.766904
21
0.0738484
0
LINE
8
BLACK
6
CONTINUOUS
10
0.766904
20
0.0738484
11
0.767246
21
0.0739626
0
LINE
8
BLACK
6
CONTINUOUS
10
0.767246
20
0.0739626
11
0.767516
21
0.0742022
0
LINE
8
BLACK
6
CONTINUOUS
10
0.767516
20
0.0742022
11
0.773141
21
0.0770143
0
LINE
8
BLACK
6
CONTINUOUS
10
0.773141
20
0.0770143
11
0.774471
21
0.0772865
0
LINE
8
BLACK
6
CONTINUOUS
10
0.774471
20
0.0772865
11
0.775782
21
0.0776378
0
LINE
8
BLACK
6
CONTINUOUS
10
0.775782
20
0.0776378
11
0.806715
21
0.0776378
0
LINE
8
BLACK
6
CONTINUOUS
10
0.806715
20
0.0776378
11
0.809668
21
0.0768466
0
LINE
8
BLACK
6
CONTINUOUS
10
0.809668
20
0.130277
11
0.81183
21
0.128116
0
LINE
8
BLACK
6
CONTINUOUS
10
0.81183
20
0.128116
11
0.812621
21
0.125163
0
LINE
8
BLACK
6
CONTINUOUS
10
0.812621
20
0.125163
11
0.811883
21
0.122409
0
LINE
8
BLACK
6
CONTINUOUS
10
0.811883
20
0.122409
11
0.811997
21
0.12218
0
LINE
8
BLACK
6
CONTINUOUS
10
0.811997
20
0.12218
11
0.81227
21
0.12085
0
LINE
8
BLACK
6
CONTINUOUS
10
0.81227
20
0.12085
11
0.812621
21
0.119539
0
LINE
8
BLACK
6
CONTINUOUS
10
0.812621
20
0.119539
11
0.812621
21
0.10829
0
LINE
8
BLACK
6
CONTINUOUS
10
0.812621
20
0.10829
11
0.81227
21
0.106979
0
LINE
8
BLACK
6
CONTINUOUS
10
0.81227
20
0.106979
11
0.811997
21
0.105649
0
LINE
8
BLACK
6
CONTINUOUS
10
0.811997
20
0.105649
11
0.809185
21
0.100025
0
LINE
8
BLACK
6
CONTINUOUS
10
0.809185
20
0.100025
11
0.808554
21
0.0993136
0
LINE
8
BLACK
6
CONTINUOUS
10
0.808554
20
0.0993136
11
0.808079
21
0.0984902
0
LINE
8
BLACK
6
CONTINUOUS
10
0.808079
20
0.0984902
11
0.805267
21
0.095678
0
LINE
8
BLACK
6
CONTINUOUS
10
0.805267
20
0.095678
11
0.804444
21
0.0952026
0
LINE
8
BLACK
6
CONTINUOUS
10
0.804444
20
0.0952026
11
0.803732
21
0.0945717
0
LINE
8
BLACK
6
CONTINUOUS
10
0.803732
20
0.0945717
11
0.798108
21
0.0917596
0
LINE
8
BLACK
6
CONTINUOUS
10
0.798108
20
0.0917596
11
0.796778
21
0.0914875
0
LINE
8
BLACK
6
CONTINUOUS
10
0.796778
20
0.0914875
11
0.795467
21
0.0911361
0
LINE
8
BLACK
6
CONTINUOUS
10
0.795467
20
0.0911361
11
0.778594
21
0.0911361
0
LINE
8
BLACK
6
CONTINUOUS
10
0.778594
20
0.0911361
11
0.777283
21
0.0914875
0
LINE
8
BLACK
6
CONTINUOUS
10
0.777283
20
0.0914875
11
0.775953
21
0.0917596
0
LINE
8
BLACK
6
CONTINUOUS
10
0.775953
20
0.0917596
11
0.770329
21
0.0945717
0
LINE
8
BLACK
6
CONTINUOUS
10
0.770329
20
0.0945717
11
0.769617
21
0.0952026
0
LINE
8
BLACK
6
CONTINUOUS
10
0.769617
20
0.0952026
11
0.768794
21
0.095678
0
LINE
8
BLACK
6
CONTINUOUS
10
0.768794
20
0.095678
11
0.765982
21
0.0984902
0
LINE
8
BLACK
6
CONTINUOUS
10
0.765982
20
0.0984902
11
0.765506
21
0.0993136
0
LINE
8
BLACK
6
CONTINUOUS
10
0.765506
20
0.0993136
11
0.764875
21
0.100025
0
LINE
8
BLACK
6
CONTINUOUS
10
0.764875
20
0.100025
11
0.762063
21
0.105649
0
LINE
8
BLACK
6
CONTINUOUS
10
0.762063
20
0.105649
11
0.761791
21
0.106979
0
LINE
8
BLACK
6
CONTINUOUS
10
0.761791
20
0.106979
11
0.76144
21
0.10829
0
LINE
8
BLACK
6
CONTINUOUS
10
0.76144
20
0.10829
11
0.76144
21
0.119258
0
LINE
8
BLACK
6
CONTINUOUS
10
0.76144
20
0.119258
11
0.74766
21
0.119258
0
LINE
8
BLACK
6
CONTINUOUS
10
0.74766
20
0.119258
11
0.744708
21
0.120049
0
LINE
8
BLACK
6
CONTINUOUS
10
0.744708
20
0.120049
11
0.742546
21
0.12221
0
LINE
8
BLACK
6
CONTINUOUS
10
0.742546
20
0.12221
11
0.741755
21
0.125163
0
LINE
8
BLACK
6
CONTINUOUS
10
0.741755
20
0.125163
11
0.742546
21
0.128116
0
LINE
8
BLACK
6
CONTINUOUS
10
0.742546
20
0.128116
11
0.744708
21
0.130277
0
LINE
8
BLACK
6
CONTINUOUS
10
0.744708
20
0.130277
11
0.74766
21
0.131069
0
LINE
8
BLACK
6
CONTINUOUS
10
0.74766
20
0.131069
11
0.806715
21
0.131069
0
LINE
8
BLACK
6
CONTINUOUS
10
0.806715
20
0.131069
11
0.809668
21
0.130277
0
LINE
8
BLACK
6
CONTINUOUS
10
0.773807
20
0.119258
11
0.773251
21
0.118145
0
LINE
8
BLACK
6
CONTINUOUS
10
0.773251
20
0.118145
11
0.773251
21
0.109684
0
LINE
8
BLACK
6
CONTINUOUS
10
0.773251
20
0.109684
11
0.775011
21
0.106164
0
LINE
8
BLACK
6
CONTINUOUS
10
0.775011
20
0.106164
11
0.776468
21
0.104707
0
LINE
8
BLACK
6
CONTINUOUS
10
0.776468
20
0.104707
11
0.779988
21
0.102947
0
LINE
8
BLACK
6
CONTINUOUS
10
0.779988
20
0.102947
11
0.794073
21
0.102947
0
LINE
8
BLACK
6
CONTINUOUS
10
0.794073
20
0.102947
11
0.797593
21
0.104707
0
LINE
8
BLACK
6
CONTINUOUS
10
0.797593
20
0.104707
11
0.79905
21
0.106164
0
LINE
8
BLACK
6
CONTINUOUS
10
0.79905
20
0.106164
11
0.80081
21
0.109684
0
LINE
8
BLACK
6
CONTINUOUS
10
0.80081
20
0.109684
11
0.80081
21
0.118145
0
LINE
8
BLACK
6
CONTINUOUS
10
0.80081
20
0.118145
11
0.800253
21
0.119258
0
LINE
8
BLACK
6
CONTINUOUS
10
0.800253
20
0.119258
11
0.773807
21
0.119258
0
LINE
8
BLACK
6
CONTINUOUS
10
0.782337
20
0.18425
11
0.783298
21
0.184188
0
LINE
8
BLACK
6
CONTINUOUS
10
0.783298
20
0.184188
11
0.783789
21
0.183861
0
LINE
8
BLACK
6
CONTINUOUS
10
0.783789
20
0.183861
11
0.784359
21
0.183708
0
LINE
8
BLACK
6
CONTINUOUS
10
0.784359
20
0.183708
11
0.78504
21
0.183027
0
LINE
8
BLACK
6
CONTINUOUS
10
0.78504
20
0.183027
11
0.785842
21
0.182492
0
LINE
8
BLACK
6
CONTINUOUS
10
0.785842
20
0.182492
11
0.786103
21
0.181964
0
LINE
8
BLACK
6
CONTINUOUS
10
0.786103
20
0.181964
11
0.78652
21
0.181547
0
LINE
8
BLACK
6
CONTINUOUS
10
0.78652
20
0.181547
11
0.78677
21
0.180616
0
LINE
8
BLACK
6
CONTINUOUS
10
0.78677
20
0.180616
11
0.787197
21
0.179752
0
LINE
8
BLACK
6
CONTINUOUS
10
0.787197
20
0.179752
11
0.791872
21
0.156378
0
LINE
8
BLACK
6
CONTINUOUS
10
0.791872
20
0.156378
11
0.796885
21
0.156378
0
LINE
8
BLACK
6
CONTINUOUS
10
0.796885
20
0.156378
11
0.799502
21
0.157686
0
LINE
8
BLACK
6
CONTINUOUS
10
0.799502
20
0.157686
11
0.80081
21
0.160303
0
LINE
8
BLACK
6
CONTINUOUS
10
0.80081
20
0.160303
11
0.80081
21
0.168763
0
LINE
8
BLACK
6
CONTINUOUS
10
0.80081
20
0.168763
11
0.798621
21
0.173141
0
LINE
8
BLACK
6
CONTINUOUS
10
0.798621
20
0.173141
11
0.798008
21
0.176136
0
LINE
8
BLACK
6
CONTINUOUS
10
0.798008
20
0.176136
11
0.798975
21
0.179036
0
LINE
8
BLACK
6
CONTINUOUS
10
0.798975
20
0.179036
11
0.801262
21
0.181064
0
LINE
8
BLACK
6
CONTINUOUS
10
0.801262
20
0.181064
11
0.804257
21
0.181677
0
LINE
8
BLACK
6
CONTINUOUS
10
0.804257
20
0.181677
11
0.807157
21
0.18071
0
LINE
8
BLACK
6
CONTINUOUS
10
0.807157
20
0.18071
11
0.809185
21
0.178423
0
LINE
8
BLACK
6
CONTINUOUS
10
0.809185
20
0.178423
11
0.811997
21
0.172799
0
LINE
8
BLACK
6
CONTINUOUS
10
0.811997
20
0.172799
11
0.81227
21
0.171469
0
LINE
8
BLACK
6
CONTINUOUS
10
0.81227
20
0.171469
11
0.812621
21
0.170157
0
LINE
8
BLACK
6
CONTINUOUS
10
0.812621
20
0.170157
11
0.812621
21
0.158909
0
LINE
8
BLACK
6
CONTINUOUS
10
0.812621
20
0.158909
11
0.81227
21
0.157598
0
LINE
8
BLACK
6
CONTINUOUS
10
0.81227
20
0.157598
11
0.811997
21
0.156268
0
LINE
8
BLACK
6
CONTINUOUS
10
0.811997
20
0.156268
11
0.809185
21
0.150644
0
LINE
8
BLACK
6
CONTINUOUS
10
0.809185
20
0.150644
11
0.808946
21
0.150373
0
LINE
8
BLACK
6
CONTINUOUS
10
0.808946
20
0.150373
11
0.808831
21
0.150031
0
LINE
8
BLACK
6
CONTINUOUS
10
0.808831
20
0.150031
11
0.807944
21
0.149244
0
LINE
8
BLACK
6
CONTINUOUS
10
0.807944
20
0.149244
11
0.807157
21
0.148356
0
LINE
8
BLACK
6
CONTINUOUS
10
0.807157
20
0.148356
11
0.806814
21
0.148242
0
LINE
8
BLACK
6
CONTINUOUS
10
0.806814
20
0.148242
11
0.806544
21
0.148003
0
LINE
8
BLACK
6
CONTINUOUS
10
0.806544
20
0.148003
11
0.80092
21
0.14519
0
LINE
8
BLACK
6
CONTINUOUS
10
0.80092
20
0.14519
11
0.79959
21
0.144918
0
LINE
8
BLACK
6
CONTINUOUS
10
0.79959
20
0.144918
11
0.798279
21
0.144567
0
LINE
8
BLACK
6
CONTINUOUS
10
0.798279
20
0.144567
11
0.775782
21
0.144567
0
LINE
8
BLACK
6
CONTINUOUS
10
0.775782
20
0.144567
11
0.774471
21
0.144918
0
LINE
8
BLACK
6
CONTINUOUS
10
0.774471
20
0.144918
11
0.773141
21
0.14519
0
LINE
8
BLACK
6
CONTINUOUS
10
0.773141
20
0.14519
11
0.767516
21
0.148003
0
LINE
8
BLACK
6
CONTINUOUS
10
0.767516
20
0.148003
11
0.767246
21
0.148242
0
LINE
8
BLACK
6
CONTINUOUS
10
0.767246
20
0.148242
11
0.766904
21
0.148356
0
LINE
8
BLACK
6
CONTINUOUS
10
0.766904
20
0.148356
11
0.766117
21
0.149244
0
LINE
8
BLACK
6
CONTINUOUS
10
0.766117
20
0.149244
11
0.765229
21
0.150031
0
LINE
8
BLACK
6
CONTINUOUS
10
0.765229
20
0.150031
11
0.765115
21
0.150373
0
LINE
8
BLACK
6
CONTINUOUS
10
0.765115
20
0.150373
11
0.764875
21
0.150644
0
LINE
8
BLACK
6
CONTINUOUS
10
0.764875
20
0.150644
11
0.762063
21
0.156268
0
LINE
8
BLACK
6
CONTINUOUS
10
0.762063
20
0.156268
11
0.761791
21
0.157598
0
LINE
8
BLACK
6
CONTINUOUS
10
0.761791
20
0.157598
11
0.76144
21
0.158909
0
LINE
8
BLACK
6
CONTINUOUS
10
0.76144
20
0.158909
11
0.76144
21
0.170157
0
LINE
8
BLACK
6
CONTINUOUS
10
0.76144
20
0.170157
11
0.761791
21
0.171469
0
LINE
8
BLACK
6
CONTINUOUS
10
0.761791
20
0.171469
11
0.762063
21
0.172799
0
LINE
8
BLACK
6
CONTINUOUS
10
0.762063
20
0.172799
11
0.764875
21
0.178423
0
LINE
8
BLACK
6
CONTINUOUS
10
0.764875
20
0.178423
11
0.765115
21
0.178693
0
LINE
8
BLACK
6
CONTINUOUS
10
0.765115
20
0.178693
11
0.765229
21
0.179036
0
LINE
8
BLACK
6
CONTINUOUS
10
0.765229
20
0.179036
11
0.766117
21
0.179823
0
LINE
8
BLACK
6
CONTINUOUS
10
0.766117
20
0.179823
11
0.766904
21
0.18071
0
LINE
8
BLACK
6
CONTINUOUS
10
0.766904
20
0.18071
11
0.767246
21
0.180824
0
LINE
8
BLACK
6
CONTINUOUS
10
0.767246
20
0.180824
11
0.767516
21
0.181064
0
LINE
8
BLACK
6
CONTINUOUS
10
0.767516
20
0.181064
11
0.773141
21
0.183876
0
LINE
8
BLACK
6
CONTINUOUS
10
0.773141
20
0.183876
11
0.774471
21
0.184148
0
LINE
8
BLACK
6
CONTINUOUS
10
0.774471
20
0.184148
11
0.775782
21
0.184499
0
LINE
8
BLACK
6
CONTINUOUS
10
0.775782
20
0.184499
11
0.781406
21
0.184499
0
LINE
8
BLACK
6
CONTINUOUS
10
0.781406
20
0.184499
11
0.782337
21
0.18425
0
LINE
8
BLACK
6
CONTINUOUS
10
0.774559
20
0.17138
11
0.773251
21
0.168763
0
LINE
8
BLACK
6
CONTINUOUS
10
0.773251
20
0.168763
11
0.773251
21
0.160303
0
LINE
8
BLACK
6
CONTINUOUS
10
0.773251
20
0.160303
11
0.774559
21
0.157686
0
LINE
8
BLACK
6
CONTINUOUS
10
0.774559
20
0.157686
11
0.777176
21
0.156378
0
LINE
8
BLACK
6
CONTINUOUS
10
0.777176
20
0.156378
11
0.779827
21
0.156378
0
LINE
8
BLACK
6
CONTINUOUS
10
0.779827
20
0.156378
11
0.77662
21
0.172411
0
LINE
8
BLACK
6
CONTINUOUS
10
0.77662
20
0.172411
11
0.774559
21
0.17138
0
LINE
8
BLACK
6
CONTINUOUS
10
0.770298
20
0.225891
11
0.77246
21
0.223729
0
LINE
8
BLACK
6
CONTINUOUS
10
0.77246
20
0.223729
11
0.773251
21
0.220776
0
LINE
8
BLACK
6
CONTINUOUS
10
0.773251
20
0.220776
11
0.773251
21
0.216546
0
LINE
8
BLACK
6
CONTINUOUS
10
0.773251
20
0.216546
11
0.775011
21
0.213026
0
LINE
8
BLACK
6
CONTINUOUS
10
0.775011
20
0.213026
11
0.776468
21
0.211569
0
LINE
8
BLACK
6
CONTINUOUS
10
0.776468
20
0.211569
11
0.779988
21
0.209809
0
LINE
8
BLACK
6
CONTINUOUS
10
0.779988
20
0.209809
11
0.806715
21
0.209809
0
LINE
8
BLACK
6
CONTINUOUS
10
0.806715
20
0.209809
11
0.809668
21
0.209018
0
LINE
8
BLACK
6
CONTINUOUS
10
0.809668
20
0.209018
11
0.81183
21
0.206856
0
LINE
8
BLACK
6
CONTINUOUS
10
0.81183
20
0.206856
11
0.812621
21
0.203903
0
LINE
8
BLACK
6
CONTINUOUS
10
0.812621
20
0.203903
11
0.81183
21
0.200951
0
LINE
8
BLACK
6
CONTINUOUS
10
0.81183
20
0.200951
11
0.809668
21
0.198789
0
LINE
8
BLACK
6
CONTINUOUS
10
0.809668
20
0.198789
11
0.806715
21
0.197998
0
LINE
8
BLACK
6
CONTINUOUS
10
0.806715
20
0.197998
11
0.767345
21
0.197998
0
LINE
8
BLACK
6
CONTINUOUS
10
0.767345
20
0.197998
11
0.764393
21
0.198789
0
LINE
8
BLACK
6
CONTINUOUS
10
0.764393
20
0.198789
11
0.762231
21
0.200951
0
LINE
8
BLACK
6
CONTINUOUS
10
0.762231
20
0.200951
11
0.76144
21
0.203903
0
LINE
8
BLACK
6
CONTINUOUS
10
0.76144
20
0.203903
11
0.762231
21
0.206856
0
LINE
8
BLACK
6
CONTINUOUS
10
0.762231
20
0.206856
11
0.764004
21
0.208629
0
LINE
8
BLACK
6
CONTINUOUS
10
0.764004
20
0.208629
11
0.762063
21
0.212511
0
LINE
8
BLACK
6
CONTINUOUS
10
0.762063
20
0.212511
11
0.761791
21
0.213841
0
LINE
8
BLACK
6
CONTINUOUS
10
0.761791
20
0.213841
11
0.76144
21
0.215152
0
LINE
8
BLACK
6
CONTINUOUS
10
0.76144
20
0.215152
11
0.76144
21
0.220776
0
LINE
8
BLACK
6
CONTINUOUS
10
0.76144
20
0.220776
11
0.762231
21
0.223729
0
LINE
8
BLACK
6
CONTINUOUS
10
0.762231
20
0.223729
11
0.764393
21
0.225891
0
LINE
8
BLACK
6
CONTINUOUS
10
0.764393
20
0.225891
11
0.767345
21
0.226682
0
LINE
8
BLACK
6
CONTINUOUS
10
0.767345
20
0.226682
11
0.770298
21
0.225891
0
LINE
8
BLACK
6
CONTINUOUS
10
0.744708
20
0.235347
11
0.742546
21
0.237508
0
LINE
8
BLACK
6
CONTINUOUS
10
0.742546
20
0.237508
11
0.741755
21
0.240461
0
LINE
8
BLACK
6
CONTINUOUS
10
0.741755
20
0.240461
11
0.741755
21
0.268583
0
LINE
8
BLACK
6
CONTINUOUS
10
0.741755
20
0.268583
11
0.742546
21
0.271535
0
LINE
8
BLACK
6
CONTINUOUS
10
0.742546
20
0.271535
11
0.744708
21
0.273697
0
LINE
8
BLACK
6
CONTINUOUS
10
0.744708
20
0.273697
11
0.74766
21
0.274488
0
LINE
8
BLACK
6
CONTINUOUS
10
0.74766
20
0.274488
11
0.750613
21
0.273697
0
LINE
8
BLACK
6
CONTINUOUS
10
0.750613
20
0.273697
11
0.752775
21
0.271535
0
LINE
8
BLACK
6
CONTINUOUS
10
0.752775
20
0.271535
11
0.753566
21
0.268583
0
LINE
8
BLACK
6
CONTINUOUS
10
0.753566
20
0.268583
11
0.753566
21
0.246367
0
LINE
8
BLACK
6
CONTINUOUS
10
0.753566
20
0.246367
11
0.769876
21
0.246367
0
LINE
8
BLACK
6
CONTINUOUS
10
0.769876
20
0.246367
11
0.769876
21
0.260146
0
LINE
8
BLACK
6
CONTINUOUS
10
0.769876
20
0.260146
11
0.770667
21
0.263099
0
LINE
8
BLACK
6
CONTINUOUS
10
0.770667
20
0.263099
11
0.772829
21
0.265261
0
LINE
8
BLACK
6
CONTINUOUS
10
0.772829
20
0.265261
11
0.775782
21
0.266052
0
LINE
8
BLACK
6
CONTINUOUS
10
0.775782
20
0.266052
11
0.778735
21
0.265261
0
LINE
8
BLACK
6
CONTINUOUS
10
0.778735
20
0.265261
11
0.780896
21
0.263099
0
LINE
8
BLACK
6
CONTINUOUS
10
0.780896
20
0.263099
11
0.781687
21
0.260146
0
LINE
8
BLACK
6
CONTINUOUS
10
0.781687
20
0.260146
11
0.781687
21
0.246367
0
LINE
8
BLACK
6
CONTINUOUS
10
0.781687
20
0.246367
11
0.806715
21
0.246367
0
LINE
8
BLACK
6
CONTINUOUS
10
0.806715
20
0.246367
11
0.809668
21
0.245576
0
LINE
8
BLACK
6
CONTINUOUS
10
0.809668
20
0.245576
11
0.81183
21
0.243414
0
LINE
8
BLACK
6
CONTINUOUS
10
0.81183
20
0.243414
11
0.812621
21
0.240461
0
LINE
8
BLACK
6
CONTINUOUS
10
0.812621
20
0.240461
11
0.81183
21
0.237508
0
LINE
8
BLACK
6
CONTINUOUS
10
0.81183
20
0.237508
11
0.809668
21
0.235347
0
LINE
8
BLACK
6
CONTINUOUS
10
0.809668
20
0.235347
11
0.806715
21
0.234556
0
LINE
8
BLACK
6
CONTINUOUS
10
0.806715
20
0.234556
11
0.74766
21
0.234556
0
LINE
8
BLACK
6
CONTINUOUS
10
0.74766
20
0.234556
11
0.744708
21
0.235347
0
LINE
8
BLACK
6
CONTINUOUS
10
0.809356
20
0.304798
11
0.811644
21
0.30277
0
LINE
8
BLACK
6
CONTINUOUS
10
0.811644
20
0.30277
11
0.81261
21
0.29987
0
LINE
8
BLACK
6
CONTINUOUS
10
0.81261
20
0.29987
11
0.811997
21
0.296875
0
LINE
8
BLACK
6
CONTINUOUS
10
0.811997
20
0.296875
11
0.809185
21
0.291251
0
LINE
8
BLACK
6
CONTINUOUS
10
0.809185
20
0.291251
11
0.808946
21
0.290981
0
LINE
8
BLACK
6
CONTINUOUS
10
0.808946
20
0.290981
11
0.808831
21
0.290638
0
LINE
8
BLACK
6
CONTINUOUS
10
0.808831
20
0.290638
11
0.807944
21
0.289851
0
LINE
8
BLACK
6
CONTINUOUS
10
0.807944
20
0.289851
11
0.807157
21
0.288964
0
LINE
8
BLACK
6
CONTINUOUS
10
0.807157
20
0.288964
11
0.806814
21
0.28885
0
LINE
8
BLACK
6
CONTINUOUS
10
0.806814
20
0.28885
11
0.806544
21
0.28861
0
LINE
8
BLACK
6
CONTINUOUS
10
0.806544
20
0.28861
11
0.80092
21
0.285798
0
LINE
8
BLACK
6
CONTINUOUS
10
0.80092
20
0.285798
11
0.79959
21
0.285526
0
LINE
8
BLACK
6
CONTINUOUS
10
0.79959
20
0.285526
11
0.798279
21
0.285174
0
LINE
8
BLACK
6
CONTINUOUS
10
0.798279
20
0.285174
11
0.74766
21
0.285174
0
LINE
8
BLACK
6
CONTINUOUS
10
0.74766
20
0.285174
11
0.744708
21
0.285966
0
LINE
8
BLACK
6
CONTINUOUS
10
0.744708
20
0.285966
11
0.742546
21
0.288127
0
LINE
8
BLACK
6
CONTINUOUS
10
0.742546
20
0.288127
11
0.741755
21
0.29108
0
LINE
8
BLACK
6
CONTINUOUS
10
0.741755
20
0.29108
11
0.742546
21
0.294033
0
LINE
8
BLACK
6
CONTINUOUS
10
0.742546
20
0.294033
11
0.744708
21
0.296194
0
LINE
8
BLACK
6
CONTINUOUS
10
0.744708
20
0.296194
11
0.74766
21
0.296985
0
LINE
8
BLACK
6
CONTINUOUS
10
0.74766
20
0.296985
11
0.796885
21
0.296985
0
LINE
8
BLACK
6
CONTINUOUS
10
0.796885
20
0.296985
11
0.799502
21
0.298294
0
LINE
8
BLACK
6
CONTINUOUS
10
0.799502
20
0.298294
11
0.801433
21
0.302157
0
LINE
8
BLACK
6
CONTINUOUS
10
0.801433
20
0.302157
11
0.803462
21
0.304445
0
LINE
8
BLACK
6
CONTINUOUS
10
0.803462
20
0.304445
11
0.806362
21
0.305411
0
LINE
8
BLACK
6
CONTINUOUS
10
0.806362
20
0.305411
11
0.809356
21
0.304798
0
LINE
8
BLACK
6
CONTINUOUS
10
0.769332
20
0.350072
11
0.808702
21
0.336011
0
LINE
8
BLACK
6
CONTINUOUS
10
0.808702
20
0.336011
11
0.808795
21
0.335947
0
LINE
8
BLACK
6
CONTINUOUS
10
0.808795
20
0.335947
11
0.808909
21
0.335933
0
LINE
8
BLACK
6
CONTINUOUS
10
0.808909
20
0.335933
11
0.822969
21
0.330309
0
LINE
8
BLACK
6
CONTINUOUS
10
0.822969
20
0.330309
11
0.823922
21
0.329596
0
LINE
8
BLACK
6
CONTINUOUS
10
0.823922
20
0.329596
11
0.824952
21
0.329001
0
LINE
8
BLACK
6
CONTINUOUS
10
0.824952
20
0.329001
11
0.827764
21
0.326189
0
LINE
8
BLACK
6
CONTINUOUS
10
0.827764
20
0.326189
11
0.82824
21
0.325366
0
LINE
8
BLACK
6
CONTINUOUS
10
0.82824
20
0.325366
11
0.82887
21
0.324655
0
LINE
8
BLACK
6
CONTINUOUS
10
0.82887
20
0.324655
11
0.831682
21
0.31903
0
LINE
8
BLACK
6
CONTINUOUS
10
0.831682
20
0.31903
11
0.832295
21
0.316035
0
LINE
8
BLACK
6
CONTINUOUS
10
0.832295
20
0.316035
11
0.831329
21
0.313135
0
LINE
8
BLACK
6
CONTINUOUS
10
0.831329
20
0.313135
11
0.829041
21
0.311107
0
LINE
8
BLACK
6
CONTINUOUS
10
0.829041
20
0.311107
11
0.826047
21
0.310494
0
LINE
8
BLACK
6
CONTINUOUS
10
0.826047
20
0.310494
11
0.823147
21
0.311461
0
LINE
8
BLACK
6
CONTINUOUS
10
0.823147
20
0.311461
11
0.821118
21
0.313748
0
LINE
8
BLACK
6
CONTINUOUS
10
0.821118
20
0.313748
11
0.818735
21
0.318515
0
LINE
8
BLACK
6
CONTINUOUS
10
0.818735
20
0.318515
11
0.817457
21
0.319793
0
LINE
8
BLACK
6
CONTINUOUS
10
0.817457
20
0.319793
11
0.806597
21
0.324137
0
LINE
8
BLACK
6
CONTINUOUS
10
0.806597
20
0.324137
11
0.769332
21
0.310828
0
LINE
8
BLACK
6
CONTINUOUS
10
0.769332
20
0.310828
11
0.766285
21
0.31058
0
LINE
8
BLACK
6
CONTINUOUS
10
0.766285
20
0.31058
11
0.763522
21
0.311888
0
LINE
8
BLACK
6
CONTINUOUS
10
0.763522
20
0.311888
11
0.761784
21
0.314403
0
LINE
8
BLACK
6
CONTINUOUS
10
0.761784
20
0.314403
11
0.761536
21
0.31745
0
LINE
8
BLACK
6
CONTINUOUS
10
0.761536
20
0.31745
11
0.762844
21
0.320212
0
LINE
8
BLACK
6
CONTINUOUS
10
0.762844
20
0.320212
11
0.765359
21
0.321951
0
LINE
8
BLACK
6
CONTINUOUS
10
0.765359
20
0.321951
11
0.789157
21
0.33045
0
LINE
8
BLACK
6
CONTINUOUS
10
0.789157
20
0.33045
11
0.765359
21
0.338949
0
LINE
8
BLACK
6
CONTINUOUS
10
0.765359
20
0.338949
11
0.762844
21
0.340687
0
LINE
8
BLACK
6
CONTINUOUS
10
0.762844
20
0.340687
11
0.761536
21
0.34345
0
LINE
8
BLACK
6
CONTINUOUS
10
0.761536
20
0.34345
11
0.761784
21
0.346497
0
LINE
8
BLACK
6
CONTINUOUS
10
0.761784
20
0.346497
11
0.763522
21
0.349012
0
LINE
8
BLACK
6
CONTINUOUS
10
0.763522
20
0.349012
11
0.766285
21
0.35032
0
LINE
8
BLACK
6
CONTINUOUS
10
0.766285
20
0.35032
11
0.769332
21
0.350072
0
LINE
8
BLACK
6
CONTINUOUS
10
0.812621
20
0.367008
11
0.81242
21
0.366257
0
LINE
8
BLACK
6
CONTINUOUS
10
0.81242
20
0.366257
11
0.81242
21
0.365479
0
LINE
8
BLACK
6
CONTINUOUS
10
0.81242
20
0.365479
11
0.812196
21
0.365092
0
LINE
8
BLACK
6
CONTINUOUS
10
0.812196
20
0.365092
11
0.812031
21
0.364806
0
LINE
8
BLACK
6
CONTINUOUS
10
0.812031
20
0.364806
11
0.81183
21
0.364055
0
LINE
8
BLACK
6
CONTINUOUS
10
0.81183
20
0.364055
11
0.81128
21
0.363505
0
LINE
8
BLACK
6
CONTINUOUS
10
0.81128
20
0.363505
11
0.810891
21
0.362832
0
LINE
8
BLACK
6
CONTINUOUS
10
0.810891
20
0.362832
11
0.810891
21
0.362832
0
LINE
8
BLACK
6
CONTINUOUS
10
0.810891
20
0.362832
11
0.808079
21
0.36002
0
LINE
8
BLACK
6
CONTINUOUS
10
0.808079
20
0.36002
11
0.80696
21
0.359374
0
LINE
8
BLACK
6
CONTINUOUS
10
0.80696
20
0.359374
11
0.805432
21
0.358491
0
LINE
8
BLACK
6
CONTINUOUS
10
0.805432
20
0.358491
11
0.802375
21
0.358491
0
LINE
8
BLACK
6
CONTINUOUS
10
0.802375
20
0.358491
11
0.799727
21
0.36002
0
LINE
8
BLACK
6
CONTINUOUS
10
0.799727
20
0.36002
11
0.799727
21
0.36002
0
LINE
8
BLACK
6
CONTINUOUS
10
0.799727
20
0.36002
11
0.796915
21
0.362832
0
LINE
8
BLACK
6
CONTINUOUS
10
0.796915
20
0.362832
11
0.796527
21
0.363505
0
LINE
8
BLACK
6
CONTINUOUS
10
0.796527
20
0.363505
11
0.795977
21
0.364055
0
LINE
8
BLACK
6
CONTINUOUS
10
0.795977
20
0.364055
11
0.795776
21
0.364806
0
LINE
8
BLACK
6
CONTINUOUS
10
0.795776
20
0.364806
11
0.795611
21
0.365092
0
LINE
8
BLACK
6
CONTINUOUS
10
0.795611
20
0.365092
11
0.795387
21
0.365479
0
LINE
8
BLACK
6
CONTINUOUS
10
0.795387
20
0.365479
11
0.795387
21
0.366257
0
LINE
8
BLACK
6
CONTINUOUS
10
0.795387
20
0.366257
11
0.795186
21
0.367008
0
LINE
8
BLACK
6
CONTINUOUS
10
0.795186
20
0.367008
11
0.795387
21
0.367759
0
LINE
8
BLACK
6
CONTINUOUS
10
0.795387
20
0.367759
11
0.795387
21
0.368536
0
LINE
8
BLACK
6
CONTINUOUS
10
0.795387
20
0.368536
11
0.795776
21
0.36921
0
LINE
8
BLACK
6
CONTINUOUS
10
0.795776
20
0.36921
11
0.795977
21
0.369961
0
LINE
8
BLACK
6
CONTINUOUS
10
0.795977
20
0.369961
11
0.796527
21
0.37051
0
LINE
8
BLACK
6
CONTINUOUS
10
0.796527
20
0.37051
11
0.796915
21
0.371184
0
LINE
8
BLACK
6
CONTINUOUS
10
0.796915
20
0.371184
11
0.799727
21
0.373996
0
LINE
8
BLACK
6
CONTINUOUS
10
0.799727
20
0.373996
11
0.799727
21
0.373996
0
LINE
8
BLACK
6
CONTINUOUS
10
0.799727
20
0.373996
11
0.799727
21
0.373996
0
LINE
8
BLACK
6
CONTINUOUS
10
0.799727
20
0.373996
11
0.800846
21
0.374642
0
LINE
8
BLACK
6
CONTINUOUS
10
0.800846
20
0.374642
11
0.802375
21
0.375524
0
LINE
8
BLACK
6
CONTINUOUS
10
0.802375
20
0.375524
11
0.805432
21
0.375524
0
LINE
8
BLACK
6
CONTINUOUS
10
0.805432
20
0.375524
11
0.806102
21
0.375137
0
LINE
8
BLACK
6
CONTINUOUS
10
0.806102
20
0.375137
11
0.808079
21
0.373996
0
LINE
8
BLACK
6
CONTINUOUS
10
0.808079
20
0.373996
11
0.808079
21
0.373996
0
LINE
8
BLACK
6
CONTINUOUS
10
0.808079
20
0.373996
11
0.808079
21
0.373996
0
LINE
8
BLACK
6
CONTINUOUS
10
0.808079
20
0.373996
11
0.810891
21
0.371184
0
LINE
8
BLACK
6
CONTINUOUS
10
0.810891
20
0.371184
11
0.81128
21
0.37051
0
LINE
8
BLACK
6
CONTINUOUS
10
0.81128
20
0.37051
11
0.81183
21
0.369961
0
LINE
8
BLACK
6
CONTINUOUS
10
0.81183
20
0.369961
11
0.812031
21
0.36921
0
LINE
8
BLACK
6
CONTINUOUS
10
0.812031
20
0.36921
11
0.81242
21
0.368536
0
LINE
8
BLACK
6
CONTINUOUS
10
0.81242
20
0.368536
11
0.81242
21
0.367759
0
LINE
8
BLACK
6
CONTINUOUS
10
0.81242
20
0.367759
11
0.812621
21
0.367008
0
LINE
8
BLACK
6
CONTINUOUS
10
0.807157
20
0.425367
11
0.809185
21
0.42308
0
LINE
8
BLACK
6
CONTINUOUS
10
0.809185
20
0.42308
11
0.811997
21
0.417455
0
LINE
8
BLACK
6
CONTINUOUS
10
0.811997
20
0.417455
11
0.81227
21
0.416125
0
LINE
8
BLACK
6
CONTINUOUS
10
0.81227
20
0.416125
11
0.812621
21
0.414814
0
LINE
8
BLACK
6
CONTINUOUS
10
0.812621
20
0.414814
11
0.812621
21
0.403566
0
LINE
8
BLACK
6
CONTINUOUS
10
0.812621
20
0.403566
11
0.81227
21
0.402255
0
LINE
8
BLACK
6
CONTINUOUS
10
0.81227
20
0.402255
11
0.811997
21
0.400925
0
LINE
8
BLACK
6
CONTINUOUS
10
0.811997
20
0.400925
11
0.809185
21
0.395301
0
LINE
8
BLACK
6
CONTINUOUS
10
0.809185
20
0.395301
11
0.808554
21
0.394589
0
LINE
8
BLACK
6
CONTINUOUS
10
0.808554
20
0.394589
11
0.808079
21
0.393766
0
LINE
8
BLACK
6
CONTINUOUS
10
0.808079
20
0.393766
11
0.805267
21
0.390954
0
LINE
8
BLACK
6
CONTINUOUS
10
0.805267
20
0.390954
11
0.804444
21
0.390478
0
LINE
8
BLACK
6
CONTINUOUS
10
0.804444
20
0.390478
11
0.803732
21
0.389847
0
LINE
8
BLACK
6
CONTINUOUS
10
0.803732
20
0.389847
11
0.798108
21
0.387035
0
LINE
8
BLACK
6
CONTINUOUS
10
0.798108
20
0.387035
11
0.796778
21
0.386763
0
LINE
8
BLACK
6
CONTINUOUS
10
0.796778
20
0.386763
11
0.795467
21
0.386412
0
LINE
8
BLACK
6
CONTINUOUS
10
0.795467
20
0.386412
11
0.778594
21
0.386412
0
LINE
8
BLACK
6
CONTINUOUS
10
0.778594
20
0.386412
11
0.777283
21
0.386763
0
LINE
8
BLACK
6
CONTINUOUS
10
0.777283
20
0.386763
11
0.775953
21
0.387035
0
LINE
8
BLACK
6
CONTINUOUS
10
0.775953
20
0.387035
11
0.770329
21
0.389847
0
LINE
8
BLACK
6
CONTINUOUS
10
0.770329
20
0.389847
11
0.769617
21
0.390478
0
LINE
8
BLACK
6
CONTINUOUS
10
0.769617
20
0.390478
11
0.768794
21
0.390954
0
LINE
8
BLACK
6
CONTINUOUS
10
0.768794
20
0.390954
11
0.765982
21
0.393766
0
LINE
8
BLACK
6
CONTINUOUS
10
0.765982
20
0.393766
11
0.765506
21
0.394589
0
LINE
8
BLACK
6
CONTINUOUS
10
0.765506
20
0.394589
11
0.764875
21
0.395301
0
LINE
8
BLACK
6
CONTINUOUS
10
0.764875
20
0.395301
11
0.762063
21
0.400925
0
LINE
8
BLACK
6
CONTINUOUS
10
0.762063
20
0.400925
11
0.761791
21
0.402255
0
LINE
8
BLACK
6
CONTINUOUS
10
0.761791
20
0.402255
11
0.76144
21
0.403566
0
LINE
8
BLACK
6
CONTINUOUS
10
0.76144
20
0.403566
11
0.76144
21
0.414814
0
LINE
8
BLACK
6
CONTINUOUS
10
0.76144
20
0.414814
11
0.761791
21
0.416126
0
LINE
8
BLACK
6
CONTINUOUS
10
0.761791
20
0.416126
11
0.762063
21
0.417455
0
LINE
8
BLACK
6
CONTINUOUS
10
0.762063
20
0.417455
11
0.764875
21
0.42308
0
LINE
8
BLACK
6
CONTINUOUS
10
0.764875
20
0.42308
11
0.766904
21
0.425367
0
LINE
8
BLACK
6
CONTINUOUS
10
0.766904
20
0.425367
11
0.769804
21
0.426334
0
LINE
8
BLACK
6
CONTINUOUS
10
0.769804
20
0.426334
11
0.772799
21
0.425721
0
LINE
8
BLACK
6
CONTINUOUS
10
0.772799
20
0.425721
11
0.775086
21
0.423693
0
LINE
8
BLACK
6
CONTINUOUS
10
0.775086
20
0.423693
11
0.776052
21
0.420793
0
LINE
8
BLACK
6
CONTINUOUS
10
0.776052
20
0.420793
11
0.77544
21
0.417798
0
LINE
8
BLACK
6
CONTINUOUS
10
0.77544
20
0.417798
11
0.773251
21
0.41342
0
LINE
8
BLACK
6
CONTINUOUS
10
0.773251
20
0.41342
11
0.773251
21
0.40496
0
LINE
8
BLACK
6
CONTINUOUS
10
0.773251
20
0.40496
11
0.775011
21
0.40144
0
LINE
8
BLACK
6
CONTINUOUS
10
0.775011
20
0.40144
11
0.776468
21
0.399983
0
LINE
8
BLACK
6
CONTINUOUS
10
0.776468
20
0.399983
11
0.779988
21
0.398223
0
LINE
8
BLACK
6
CONTINUOUS
10
0.779988
20
0.398223
11
0.794073
21
0.398223
0
LINE
8
BLACK
6
CONTINUOUS
10
0.794073
20
0.398223
11
0.797593
21
0.399983
0
LINE
8
BLACK
6
CONTINUOUS
10
0.797593
20
0.399983
11
0.79905
21
0.40144
0
LINE
8
BLACK
6
CONTINUOUS
10
0.79905
20
0.40144
11
0.80081
21
0.40496
0
LINE
8
BLACK
6
CONTINUOUS
10
0.80081
20
0.40496
11
0.80081
21
0.41342
0
LINE
8
BLACK
6
CONTINUOUS
10
0.80081
20
0.41342
11
0.798621
21
0.417798
0
LINE
8
BLACK
6
CONTINUOUS
10
0.798621
20
0.417798
11
0.798008
21
0.420793
0
LINE
8
BLACK
6
CONTINUOUS
10
0.798008
20
0.420793
11
0.798975
21
0.423693
0
LINE
8
BLACK
6
CONTINUOUS
10
0.798975
20
0.423693
11
0.801262
21
0.425721
0
LINE
8
BLACK
6
CONTINUOUS
10
0.801262
20
0.425721
11
0.804257
21
0.426334
0
LINE
8
BLACK
6
CONTINUOUS
10
0.804257
20
0.426334
11
0.807157
21
0.425367
0
LINE
8
BLACK
6
CONTINUOUS
10
0.809668
20
0.476172
11
0.81183
21
0.47401
0
LINE
8
BLACK
6
CONTINUOUS
10
0.81183
20
0.47401
11
0.812621
21
0.471057
0
LINE
8
BLACK
6
CONTINUOUS
10
0.812621
20
0.471057
11
0.812621
21
0.440124
0
LINE
8
BLACK
6
CONTINUOUS
10
0.812621
20
0.440124
11
0.81251
21
0.439711
0
LINE
8
BLACK
6
CONTINUOUS
10
0.81251
20
0.439711
11
0.812561
21
0.439286
0
LINE
8
BLACK
6
CONTINUOUS
10
0.812561
20
0.439286
11
0.81212
21
0.438254
0
LINE
8
BLACK
6
CONTINUOUS
10
0.81212
20
0.438254
11
0.81183
21
0.437171
0
LINE
8
BLACK
6
CONTINUOUS
10
0.81183
20
0.437171
11
0.811527
21
0.436869
0
LINE
8
BLACK
6
CONTINUOUS
10
0.811527
20
0.436869
11
0.811359
21
0.436475
0
LINE
8
BLACK
6
CONTINUOUS
10
0.811359
20
0.436475
11
0.810461
21
0.435803
0
LINE
8
BLACK
6
CONTINUOUS
10
0.810461
20
0.435803
11
0.809668
21
0.435009
0
LINE
8
BLACK
6
CONTINUOUS
10
0.809668
20
0.435009
11
0.809255
21
0.434899
0
LINE
8
BLACK
6
CONTINUOUS
10
0.809255
20
0.434899
11
0.808913
21
0.434642
0
LINE
8
BLACK
6
CONTINUOUS
10
0.808913
20
0.434642
11
0.807799
21
0.434509
0
LINE
8
BLACK
6
CONTINUOUS
10
0.807799
20
0.434509
11
0.806715
21
0.434218
0
LINE
8
BLACK
6
CONTINUOUS
10
0.806715
20
0.434218
11
0.806302
21
0.434329
0
LINE
8
BLACK
6
CONTINUOUS
10
0.806302
20
0.434329
11
0.805877
21
0.434278
0
LINE
8
BLACK
6
CONTINUOUS
10
0.805877
20
0.434278
11
0.804846
21
0.434719
0
LINE
8
BLACK
6
CONTINUOUS
10
0.804846
20
0.434719
11
0.803763
21
0.435009
0
LINE
8
BLACK
6
CONTINUOUS
10
0.803763
20
0.435009
11
0.80346
21
0.435312
0
LINE
8
BLACK
6
CONTINUOUS
10
0.80346
20
0.435312
11
0.803067
21
0.43548
0
LINE
8
BLACK
6
CONTINUOUS
10
0.803067
20
0.43548
11
0.773251
21
0.458907
0
LINE
8
BLACK
6
CONTINUOUS
10
0.773251
20
0.458907
11
0.773251
21
0.440124
0
LINE
8
BLACK
6
CONTINUOUS
10
0.773251
20
0.440124
11
0.77246
21
0.437171
0
LINE
8
BLACK
6
CONTINUOUS
10
0.77246
20
0.437171
11
0.770298
21
0.435009
0
LINE
8
BLACK
6
CONTINUOUS
10
0.770298
20
0.435009
11
0.767345
21
0.434218
0
LINE
8
BLACK
6
CONTINUOUS
10
0.767345
20
0.434218
11
0.764393
21
0.435009
0
LINE
8
BLACK
6
CONTINUOUS
10
0.764393
20
0.435009
11
0.762231
21
0.437171
0
LINE
8
BLACK
6
CONTINUOUS
10
0.762231
20
0.437171
11
0.76144
21
0.440124
0
LINE
8
BLACK
6
CONTINUOUS
10
0.76144
20
0.440124
11
0.76144
21
0.471057
0
LINE
8
BLACK
6
CONTINUOUS
10
0.76144
20
0.471057
11
0.761551
21
0.471471
0
LINE
8
BLACK
6
CONTINUOUS
10
0.761551
20
0.471471
11
0.7615
21
0.471895
0
LINE
8
BLACK
6
CONTINUOUS
10
0.7615
20
0.471895
11
0.761941
21
0.472927
0
LINE
8
BLACK
6
CONTINUOUS
10
0.761941
20
0.472927
11
0.762231
21
0.47401
0
LINE
8
BLACK
6
CONTINUOUS
10
0.762231
20
0.47401
11
0.762533
21
0.474313
0
LINE
8
BLACK
6
CONTINUOUS
10
0.762533
20
0.474313
11
0.762702
21
0.474706
0
LINE
8
BLACK
6
CONTINUOUS
10
0.762702
20
0.474706
11
0.763599
21
0.475379
0
LINE
8
BLACK
6
CONTINUOUS
10
0.763599
20
0.475379
11
0.764393
21
0.476172
0
LINE
8
BLACK
6
CONTINUOUS
10
0.764393
20
0.476172
11
0.764806
21
0.476282
0
LINE
8
BLACK
6
CONTINUOUS
10
0.764806
20
0.476282
11
0.765148
21
0.476539
0
LINE
8
BLACK
6
CONTINUOUS
10
0.765148
20
0.476539
11
0.766262
21
0.476673
0
LINE
8
BLACK
6
CONTINUOUS
10
0.766262
20
0.476673
11
0.767345
21
0.476963
0
LINE
8
BLACK
6
CONTINUOUS
10
0.767345
20
0.476963
11
0.767758
21
0.476852
0
LINE
8
BLACK
6
CONTINUOUS
10
0.767758
20
0.476852
11
0.768183
21
0.476903
0
LINE
8
BLACK
6
CONTINUOUS
10
0.768183
20
0.476903
11
0.769215
21
0.476462
0
LINE
8
BLACK
6
CONTINUOUS
10
0.769215
20
0.476462
11
0.770298
21
0.476172
0
LINE
8
BLACK
6
CONTINUOUS
10
0.770298
20
0.476172
11
0.770601
21
0.475869
0
LINE
8
BLACK
6
CONTINUOUS
10
0.770601
20
0.475869
11
0.770994
21
0.475701
0
LINE
8
BLACK
6
CONTINUOUS
10
0.770994
20
0.475701
11
0.80081
21
0.452274
0
LINE
8
BLACK
6
CONTINUOUS
10
0.80081
20
0.452274
11
0.80081
21
0.471057
0
LINE
8
BLACK
6
CONTINUOUS
10
0.80081
20
0.471057
11
0.801601
21
0.47401
0
LINE
8
BLACK
6
CONTINUOUS
10
0.801601
20
0.47401
11
0.803763
21
0.476172
0
LINE
8
BLACK
6
CONTINUOUS
10
0.803763
20
0.476172
11
0.806715
21
0.476963
0
LINE
8
BLACK
6
CONTINUOUS
10
0.806715
20
0.476963
11
0.809668
21
0.476172
0
LINE
8
BLACK
6
CONTINUOUS
10
-0.611382
20
0.545634
11
-0.609433
21
0.54705
0
LINE
8
BLACK
6
CONTINUOUS
10
-0.609433
20
0.54705
11
-0.608228
21
0.54724
0
LINE
8
BLACK
6
CONTINUOUS
10
-0.608228
20
0.54724
11
0.844606
21
0.54724
0
LINE
8
BLACK
6
CONTINUOUS
10
0.844606
20
0.54724
11
0.846897
21
0.546496
0
LINE
8
BLACK
6
CONTINUOUS
10
0.846897
20
0.546496
11
0.848313
21
0.544547
0
LINE
8
BLACK
6
CONTINUOUS
10
0.848313
20
0.544547
11
0.848504
21
0.543343
0
LINE
8
BLACK
6
CONTINUOUS
10
0.848504
20
0.543343
11
0.848504
21
0.503076
0
LINE
8
BLACK
6
CONTINUOUS
10
0.848504
20
0.503076
11
0.84776
21
0.500786
0
LINE
8
BLACK
6
CONTINUOUS
10
0.84776
20
0.500786
11
0.845811
21
0.49937
0
LINE
8
BLACK
6
CONTINUOUS
10
0.845811
20
0.49937
11
0.844606
21
0.499179
0
LINE
8
BLACK
6
CONTINUOUS
10
0.844606
20
0.499179
11
0.700965
21
0.499179
0
LINE
8
BLACK
6
CONTINUOUS
10
0.700965
20
0.499179
11
0.700965
21
-0.139179
0
LINE
8
BLACK
6
CONTINUOUS
10
0.700965
20
-0.139179
11
0.844606
21
-0.139179
0
LINE
8
BLACK
6
CONTINUOUS
10
0.844606
20
-0.139179
11
0.846897
21
-0.139923
0
LINE
8
BLACK
6
CONTINUOUS
10
0.846897
20
-0.139923
11
0.848313
21
-0.141872
0
LINE
8
BLACK
6
CONTINUOUS
10
0.848313
20
-0.141872
11
0.848504
21
-0.143076
0
LINE
8
BLACK
6
CONTINUOUS
10
0.848504
20
-0.143076
11
0.848504
21
-0.181146
0
LINE
8
BLACK
6
CONTINUOUS
10
0.848504
20
-0.181146
11
0.84776
21
-0.183436
0
LINE
8
BLACK
6
CONTINUOUS
10
0.84776
20
-0.183436
11
0.845811
21
-0.184852
0
LINE
8
BLACK
6
CONTINUOUS
10
0.845811
20
-0.184852
11
0.844606
21
-0.185043
0
LINE
8
BLACK
6
CONTINUOUS
10
0.844606
20
-0.185043
11
-0.608228
21
-0.185043
0
LINE
8
BLACK
6
CONTINUOUS
10
-0.608228
20
-0.185043
11
-0.610519
21
-0.184299
0
LINE
8
BLACK
6
CONTINUOUS
10
-0.610519
20
-0.184299
11
-0.611935
21
-0.18235
0
LINE
8
BLACK
6
CONTINUOUS
10
-0.611935
20
-0.18235
11
-0.612126
21
-0.181146
0
LINE
8
BLACK
6
CONTINUOUS
10
-0.612126
20
-0.181146
11
-0.612126
21
0.543343
0
LINE
8
BLACK
6
CONTINUOUS
10
-0.612126
20
0.543343
11
-0.611382
21
0.545634
0
LINE
8
BLACK
6
CONTINUOUS
10
-0.340651
20
-0.111923
11
-0.336861
21
-0.116861
0
LINE
8
BLACK
6
CONTINUOUS
10
-0.336861
20
-0.116861
11
-0.331923
21
-0.120651
0
LINE
8
BLACK
6
CONTINUOUS
10
-0.331923
20
-0.120651
11
-0.326172
21
-0.123033
0
LINE
8
BLACK
6
CONTINUOUS
10
-0.326172
20
-0.123033
11
-0.32
21
-0.123846
0
LINE
8
BLACK
6
CONTINUOUS
10
-0.32
20
-0.123846
11
-0.313828
21
-0.123033
0
LINE
8
BLACK
6
CONTINUOUS
10
-0.313828
20
-0.123033
11
-0.308077
21
-0.120651
0
LINE
8
BLACK
6
CONTINUOUS
10
-0.308077
20
-0.120651
11
-0.303139
21
-0.116861
0
LINE
8
BLACK
6
CONTINUOUS
10
-0.303139
20
-0.116861
11
-0.299349
21
-0.111923
0
LINE
8
BLACK
6
CONTINUOUS
10
-0.299349
20
-0.111923
11
-0.296967
21
-0.106172
0
LINE
8
BLACK
6
CONTINUOUS
10
-0.296967
20
-0.106172
11
-0.296154
21
-0.1
0
LINE
8
BLACK
6
CONTINUOUS
10
-0.296154
20
-0.1
11
-0.296967
21
-0.0938283
0
LINE
8
BLACK
6
CONTINUOUS
10
-0.296967
20
-0.0938283
11
-0.299349
21
-0.0880771
0
LINE
8
BLACK
6
CONTINUOUS
10
-0.299349
20
-0.0880771
11
-0.301458
21
-0.0853281
0
LINE
8
BLACK
6
CONTINUOUS
10
-0.301458
20
-0.0853281
11
-0.302264
21
-0.0829554
0
LINE
8
BLACK
6
CONTINUOUS
10
-0.302264
20
-0.0829554
11
-0.302264
21
0.16307
0
LINE
8
BLACK
6
CONTINUOUS
10
-0.302264
20
0.16307
11
-0.301458
21
0.165442
0
LINE
8
BLACK
6
CONTINUOUS
10
-0.301458
20
0.165442
11
-0.299505
21
0.167989
0
LINE
8
BLACK
6
CONTINUOUS
10
-0.299505
20
0.167989
11
-0.299349
21
0.168191
0
LINE
8
BLACK
6
CONTINUOUS
10
-0.299349
20
0.168191
11
-0.296967
21
0.173943
0
LINE
8
BLACK
6
CONTINUOUS
10
-0.296967
20
0.173943
11
-0.296154
21
0.180114
0
LINE
8
BLACK
6
CONTINUOUS
10
-0.296154
20
0.180114
11
-0.296967
21
0.186286
0
LINE
8
BLACK
6
CONTINUOUS
10
-0.296967
20
0.186286
11
-0.299349
21
0.192037
0
LINE
8
BLACK
6
CONTINUOUS
10
-0.299349
20
0.192037
11
-0.303139
21
0.196976
0
LINE
8
BLACK
6
CONTINUOUS
10
-0.303139
20
0.196976
11
-0.308077
21
0.200765
0
LINE
8
BLACK
6
CONTINUOUS
10
-0.308077
20
0.200765
11
-0.312715
21
0.202686
0
LINE
8
BLACK
6
CONTINUOUS
10
-0.312715
20
0.202686
11
-0.313592
21
0.20305
0
LINE
8
BLACK
6
CONTINUOUS
10
-0.313592
20
0.20305
11
-0.313828
21
0.203148
0
LINE
8
BLACK
6
CONTINUOUS
10
-0.313828
20
0.203148
11
-0.32
21
0.20396
0
LINE
8
BLACK
6
CONTINUOUS
10
-0.32
20
0.20396
11
-0.326172
21
0.203148
0
LINE
8
BLACK
6
CONTINUOUS
10
-0.326172
20
0.203148
11
-0.326408
21
0.20305
0
LINE
8
BLACK
6
CONTINUOUS
10
-0.326408
20
0.20305
11
-0.327285
21
0.202686
0
LINE
8
BLACK
6
CONTINUOUS
10
-0.327285
20
0.202686
11
-0.331923
21
0.200765
0
LINE
8
BLACK
6
CONTINUOUS
10
-0.331923
20
0.200765
11
-0.336861
21
0.196976
0
LINE
8
BLACK
6
CONTINUOUS
10
-0.336861
20
0.196976
11
-0.340651
21
0.192037
0
LINE
8
BLACK
6
CONTINUOUS
10
-0.340651
20
0.192037
11
-0.343033
21
0.186286
0
LINE
8
BLACK
6
CONTINUOUS
10
-0.343033
20
0.186286
11
-0.343846
21
0.180114
0
LINE
8
BLACK
6
CONTINUOUS
10
-0.343846
20
0.180114
11
-0.343033
21
0.173943
0
LINE
8
BLACK
6
CONTINUOUS
10
-0.343033
20
0.173943
11
-0.340651
21
0.168191
0
LINE
8
BLACK
6
CONTINUOUS
10
-0.340651
20
0.168191
11
-0.340495
21
0.167989
0
LINE
8
BLACK
6
CONTINUOUS
10
-0.340495
20
0.167989
11
-0.338542
21
0.165442
0
LINE
8
BLACK
6
CONTINUOUS
10
-0.338542
20
0.165442
11
-0.337736
21
0.16307
0
LINE
8
BLACK
6
CONTINUOUS
10
-0.337736
20
0.16307
11
-0.337736
21
-0.0829554
0
LINE
8
BLACK
6
CONTINUOUS
10
-0.337736
20
-0.0829554
11
-0.338542
21
-0.0853281
0
LINE
8
BLACK
6
CONTINUOUS
10
-0.338542
20
-0.0853281
11
-0.340651
21
-0.0880771
0
LINE
8
BLACK
6
CONTINUOUS
10
-0.340651
20
-0.0880771
11
-0.343033
21
-0.0938283
0
LINE
8
BLACK
6
CONTINUOUS
10
-0.343033
20
-0.0938283
11
-0.343846
21
-0.1
0
LINE
8
BLACK
6
CONTINUOUS
10
-0.343846
20
-0.1
11
-0.343033
21
-0.106172
0
LINE
8
BLACK
6
CONTINUOUS
10
-0.343033
20
-0.106172
11
-0.340651
21
-0.111923
0
LINE
8
BLACK
6
CONTINUOUS
10
0.415844
20
0.0409587
11
0.418455
21
0.0392141
0
LINE
8
BLACK
6
CONTINUOUS
10
0.418455
20
0.0392141
11
0.418832
21
0.0391392
0
LINE
8
BLACK
6
CONTINUOUS
10
0.418832
20
0.0391392
11
0.418832
21
0.0391391
0
LINE
8
BLACK
6
CONTINUOUS
10
0.418832
20
0.0391391
11
0.419725
21
0.0389616
0
LINE
8
BLACK
6
CONTINUOUS
10
0.419725
20
0.0389616
11
0.420758
21
0.0387561
0
LINE
8
BLACK
6
CONTINUOUS
10
0.420758
20
0.0387561
11
0.489242
21
0.0387561
0
LINE
8
BLACK
6
CONTINUOUS
10
0.489242
20
0.0387561
11
0.490275
21
0.0389616
0
LINE
8
BLACK
6
CONTINUOUS
10
0.490275
20
0.0389616
11
0.491168
21
0.0391391
0
LINE
8
BLACK
6
CONTINUOUS
10
0.491168
20
0.0391391
11
0.491168
21
0.0391392
0
LINE
8
BLACK
6
CONTINUOUS
10
0.491168
20
0.0391392
11
0.491545
21
0.0392141
0
LINE
8
BLACK
6
CONTINUOUS
10
0.491545
20
0.0392141
11
0.494156
21
0.0409587
0
LINE
8
BLACK
6
CONTINUOUS
10
0.494156
20
0.0409587
11
0.4959
21
0.0435698
0
LINE
8
BLACK
6
CONTINUOUS
10
0.4959
20
0.0435698
11
0.496358
21
0.0458723
0
LINE
8
BLACK
6
CONTINUOUS
10
0.496358
20
0.0458723
11
0.496358
21
0.114356
0
LINE
8
BLACK
6
CONTINUOUS
10
0.496358
20
0.114356
11
0.4959
21
0.116659
0
LINE
8
BLACK
6
CONTINUOUS
10
0.4959
20
0.116659
11
0.494156
21
0.11927
0
LINE
8
BLACK
6
CONTINUOUS
10
0.494156
20
0.11927
11
0.491545
21
0.121015
0
LINE
8
BLACK
6
CONTINUOUS
10
0.491545
20
0.121015
11
0.491168
21
0.121089
0
LINE
8
BLACK
6
CONTINUOUS
10
0.491168
20
0.121089
11
0.491168
21
0.12109
0
LINE
8
BLACK
6
CONTINUOUS
10
0.491168
20
0.12109
11
0.490275
21
0.121267
0
LINE
8
BLACK
6
CONTINUOUS
10
0.490275
20
0.121267
11
0.489242
21
0.121473
0
LINE
8
BLACK
6
CONTINUOUS
10
0.489242
20
0.121473
11
0.420758
21
0.121473
0
LINE
8
BLACK
6
CONTINUOUS
10
0.420758
20
0.121473
11
0.419725
21
0.121267
0
LINE
8
BLACK
6
CONTINUOUS
10
0.419725
20
0.121267
11
0.418832
21
0.12109
0
LINE
8
BLACK
6
CONTINUOUS
10
0.418832
20
0.12109
11
0.418832
21
0.121089
0
LINE
8
BLACK
6
CONTINUOUS
10
0.418832
20
0.121089
11
0.418455
21
0.121015
0
LINE
8
BLACK
6
CONTINUOUS
10
0.418455
20
0.121015
11
0.415844
21
0.11927
0
LINE
8
BLACK
6
CONTINUOUS
10
0.415844
20
0.11927
11
0.4141
21
0.116659
0
LINE
8
BLACK
6
CONTINUOUS
10
0.4141
20
0.116659
11
0.413642
21
0.114356
0
LINE
8
BLACK
6
CONTINUOUS
10
0.413642
20
0.114356
11
0.413642
21
0.0458723
0
LINE
8
BLACK
6
CONTINUOUS
10
0.413642
20
0.0458723
11
0.4141
21
0.0435698
0
LINE
8
BLACK
6
CONTINUOUS
10
0.4141
20
0.0435698
11
0.415844
21
0.0409587
0
LINE
8
BLACK
6
CONTINUOUS
10
0.403867
20
0.263923
11
0.407054
21
0.256074
0
LINE
8
BLACK
6
CONTINUOUS
10
0.407054
20
0.256074
11
0.407198
21
0.255789
0
LINE
8
BLACK
6
CONTINUOUS
10
0.407198
20
0.255789
11
0.411625
21
0.248566
0
LINE
8
BLACK
6
CONTINUOUS
10
0.411625
20
0.248566
11
0.411813
21
0.248309
0
LINE
8
BLACK
6
CONTINUOUS
10
0.411813
20
0.248309
11
0.41736
21
0.241906
0
LINE
8
BLACK
6
CONTINUOUS
10
0.41736
20
0.241906
11
0.417588
21
0.241682
0
LINE
8
BLACK
6
CONTINUOUS
10
0.417588
20
0.241682
11
0.424106
21
0.236271
0
LINE
8
BLACK
6
CONTINUOUS
10
0.424106
20
0.236271
11
0.424367
21
0.236088
0
LINE
8
BLACK
6
CONTINUOUS
10
0.424367
20
0.236088
11
0.431682
21
0.231814
0
LINE
8
BLACK
6
CONTINUOUS
10
0.431682
20
0.231814
11
0.431969
21
0.231676
0
LINE
8
BLACK
6
CONTINUOUS
10
0.431969
20
0.231676
11
0.439883
21
0.228654
0
LINE
8
BLACK
6
CONTINUOUS
10
0.439883
20
0.228654
11
0.440189
21
0.228565
0
LINE
8
BLACK
6
CONTINUOUS
10
0.440189
20
0.228565
11
0.444291
21
0.22773
0
LINE
8
BLACK
6
CONTINUOUS
10
0.444291
20
0.22773
11
0.446388
21
0.226544
0
LINE
8
BLACK
6
CONTINUOUS
10
0.446388
20
0.226544
11
0.447387
21
0.224352
0
LINE
8
BLACK
6
CONTINUOUS
10
0.447387
20
0.224352
11
0.446906
21
0.221992
0
LINE
8
BLACK
6
CONTINUOUS
10
0.446906
20
0.221992
11
0.44513
21
0.220364
0
LINE
8
BLACK
6
CONTINUOUS
10
0.44513
20
0.220364
11
0.444614
21
0.220172
0
LINE
8
BLACK
6
CONTINUOUS
10
0.444614
20
0.220172
11
0.439432
21
0.218647
0
LINE
8
BLACK
6
CONTINUOUS
10
0.439432
20
0.218647
11
0.439263
21
0.218558
0
LINE
8
BLACK
6
CONTINUOUS
10
0.439263
20
0.218558
11
0.439263
21
0.218558
0
LINE
8
BLACK
6
CONTINUOUS
10
0.439263
20
0.218558
11
0.438836
21
0.218335
0
LINE
8
BLACK
6
CONTINUOUS
10
0.438836
20
0.218335
11
0.432244
21
0.214889
0
LINE
8
BLACK
6
CONTINUOUS
10
0.432244
20
0.214889
11
0.432096
21
0.21477
0
LINE
8
BLACK
6
CONTINUOUS
10
0.432096
20
0.21477
11
0.426072
21
0.209926
0
LINE
8
BLACK
6
CONTINUOUS
10
0.426072
20
0.209926
11
0.426072
21
0.209926
0
LINE
8
BLACK
6
CONTINUOUS
10
0.426072
20
0.209926
11
0.425923
21
0.209807
0
LINE
8
BLACK
6
CONTINUOUS
10
0.425923
20
0.209807
11
0.425801
21
0.209661
0
LINE
8
BLACK
6
CONTINUOUS
10
0.425801
20
0.209661
11
0.4258
21
0.209661
0
LINE
8
BLACK
6
CONTINUOUS
10
0.4258
20
0.209661
11
0.421017
21
0.20396
0
LINE
8
BLACK
6
CONTINUOUS
10
0.421017
20
0.20396
11
0.42071
21
0.203593
0
LINE
8
BLACK
6
CONTINUOUS
10
0.42071
20
0.203593
11
0.420618
21
0.203426
0
LINE
8
BLACK
6
CONTINUOUS
10
0.420618
20
0.203426
11
0.420618
21
0.203426
0
LINE
8
BLACK
6
CONTINUOUS
10
0.420618
20
0.203426
11
0.420411
21
0.20305
0
LINE
8
BLACK
6
CONTINUOUS
10
0.420411
20
0.20305
11
0.416802
21
0.196486
0
LINE
8
BLACK
6
CONTINUOUS
10
0.416802
20
0.196486
11
0.41435
21
0.188755
0
LINE
8
BLACK
6
CONTINUOUS
10
0.41435
20
0.188755
11
0.414329
21
0.188565
0
LINE
8
BLACK
6
CONTINUOUS
10
0.414329
20
0.188565
11
0.414329
21
0.188565
0
LINE
8
BLACK
6
CONTINUOUS
10
0.414329
20
0.188565
11
0.414044
21
0.186033
0
LINE
8
BLACK
6
CONTINUOUS
10
0.414044
20
0.186033
11
0.413446
21
0.180695
0
LINE
8
BLACK
6
CONTINUOUS
10
0.413446
20
0.180695
11
0.414124
21
0.172612
0
LINE
8
BLACK
6
CONTINUOUS
10
0.414124
20
0.172612
11
0.41636
21
0.164816
0
LINE
8
BLACK
6
CONTINUOUS
10
0.41636
20
0.164816
11
0.420067
21
0.157602
0
LINE
8
BLACK
6
CONTINUOUS
10
0.420067
20
0.157602
11
0.425105
21
0.151245
0
LINE
8
BLACK
6
CONTINUOUS
10
0.425105
20
0.151245
11
0.42525
21
0.151122
0
LINE
8
BLACK
6
CONTINUOUS
10
0.42525
20
0.151122
11
0.42525
21
0.151122
0
LINE
8
BLACK
6
CONTINUOUS
10
0.42525
20
0.151122
11
0.426891
21
0.149726
0
LINE
8
BLACK
6
CONTINUOUS
10
0.426891
20
0.149726
11
0.431282
21
0.145989
0
LINE
8
BLACK
6
CONTINUOUS
10
0.431282
20
0.145989
11
0.431448
21
0.145896
0
LINE
8
BLACK
6
CONTINUOUS
10
0.431448
20
0.145896
11
0.431448
21
0.145896
0
LINE
8
BLACK
6
CONTINUOUS
10
0.431448
20
0.145896
11
0.4345
21
0.14419
0
LINE
8
BLACK
6
CONTINUOUS
10
0.4345
20
0.14419
11
0.438362
21
0.142032
0
LINE
8
BLACK
6
CONTINUOUS
10
0.438362
20
0.142032
11
0.438543
21
0.141973
0
LINE
8
BLACK
6
CONTINUOUS
10
0.438543
20
0.141973
11
0.445895
21
0.139584
0
LINE
8
BLACK
6
CONTINUOUS
10
0.445895
20
0.139584
11
0.445895
21
0.139584
0
LINE
8
BLACK
6
CONTINUOUS
10
0.445895
20
0.139584
11
0.446076
21
0.139525
0
LINE
8
BLACK
6
CONTINUOUS
10
0.446076
20
0.139525
11
0.45413
21
0.138565
0
LINE
8
BLACK
6
CONTINUOUS
10
0.45413
20
0.138565
11
0.45432
21
0.13858
0
LINE
8
BLACK
6
CONTINUOUS
10
0.45432
20
0.13858
11
0.45432
21
0.13858
0
LINE
8
BLACK
6
CONTINUOUS
10
0.45432
20
0.13858
11
0.45699
21
0.138785
0
LINE
8
BLACK
6
CONTINUOUS
10
0.45699
20
0.138785
11
0.462217
21
0.139187
0
LINE
8
BLACK
6
CONTINUOUS
10
0.462217
20
0.139187
11
0.470029
21
0.141368
0
LINE
8
BLACK
6
CONTINUOUS
10
0.470029
20
0.141368
11
0.470198
21
0.141454
0
LINE
8
BLACK
6
CONTINUOUS
10
0.470198
20
0.141454
11
0.470199
21
0.141454
0
LINE
8
BLACK
6
CONTINUOUS
10
0.470199
20
0.141454
11
0.477098
21
0.144939
0
LINE
8
BLACK
6
CONTINUOUS
10
0.477098
20
0.144939
11
0.477098
21
0.14494
0
LINE
8
BLACK
6
CONTINUOUS
10
0.477098
20
0.14494
11
0.477268
21
0.145025
0
LINE
8
BLACK
6
CONTINUOUS
10
0.477268
20
0.145025
11
0.478659
21
0.146112
0
LINE
8
BLACK
6
CONTINUOUS
10
0.478659
20
0.146112
11
0.483509
21
0.149901
0
LINE
8
BLACK
6
CONTINUOUS
10
0.483509
20
0.149901
11
0.483509
21
0.149902
0
LINE
8
BLACK
6
CONTINUOUS
10
0.483509
20
0.149902
11
0.483659
21
0.150019
0
LINE
8
BLACK
6
CONTINUOUS
10
0.483659
20
0.150019
11
0.484357
21
0.150826
0
LINE
8
BLACK
6
CONTINUOUS
10
0.484357
20
0.150826
11
0.485997
21
0.152726
0
LINE
8
BLACK
6
CONTINUOUS
10
0.485997
20
0.152726
11
0.488959
21
0.156159
0
LINE
8
BLACK
6
CONTINUOUS
10
0.488959
20
0.156159
11
0.489694
21
0.157452
0
LINE
8
BLACK
6
CONTINUOUS
10
0.489694
20
0.157452
11
0.492871
21
0.163045
0
LINE
8
BLACK
6
CONTINUOUS
10
0.492871
20
0.163045
11
0.492871
21
0.163046
0
LINE
8
BLACK
6
CONTINUOUS
10
0.492871
20
0.163046
11
0.492965
21
0.163211
0
LINE
8
BLACK
6
CONTINUOUS
10
0.492965
20
0.163211
11
0.493359
21
0.164393
0
LINE
8
BLACK
6
CONTINUOUS
10
0.493359
20
0.164393
11
0.495466
21
0.170726
0
LINE
8
BLACK
6
CONTINUOUS
10
0.495466
20
0.170726
11
0.495466
21
0.170726
0
LINE
8
BLACK
6
CONTINUOUS
10
0.495466
20
0.170726
11
0.495526
21
0.170907
0
LINE
8
BLACK
6
CONTINUOUS
10
0.495526
20
0.170907
11
0.495879
21
0.173706
0
LINE
8
BLACK
6
CONTINUOUS
10
0.495879
20
0.173706
11
0.496528
21
0.178846
0
LINE
8
BLACK
6
CONTINUOUS
10
0.496528
20
0.178846
11
0.496542
21
0.178954
0
LINE
8
BLACK
6
CONTINUOUS
10
0.496542
20
0.178954
11
0.496558
21
0.180114
0
LINE
8
BLACK
6
CONTINUOUS
10
0.496558
20
0.180114
11
0.495767
21
0.188186
0
LINE
8
BLACK
6
CONTINUOUS
10
0.495767
20
0.188186
11
0.493423
21
0.195951
0
LINE
8
BLACK
6
CONTINUOUS
10
0.493423
20
0.195951
11
0.489615
21
0.203112
0
LINE
8
BLACK
6
CONTINUOUS
10
0.489615
20
0.203112
11
0.484489
21
0.209398
0
LINE
8
BLACK
6
CONTINUOUS
10
0.484489
20
0.209398
11
0.478239
21
0.214568
0
LINE
8
BLACK
6
CONTINUOUS
10
0.478239
20
0.214568
11
0.471105
21
0.218425
0
LINE
8
BLACK
6
CONTINUOUS
10
0.471105
20
0.218425
11
0.468978
21
0.219084
0
LINE
8
BLACK
6
CONTINUOUS
10
0.468978
20
0.219084
11
0.465711
21
0.220095
0
LINE
8
BLACK
6
CONTINUOUS
10
0.465711
20
0.220095
11
0.463743
21
0.221484
0
LINE
8
BLACK
6
CONTINUOUS
10
0.463743
20
0.221484
11
0.462966
21
0.223764
0
LINE
8
BLACK
6
CONTINUOUS
10
0.462966
20
0.223764
11
0.463679
21
0.226065
0
LINE
8
BLACK
6
CONTINUOUS
10
0.463679
20
0.226065
11
0.465608
21
0.227508
0
LINE
8
BLACK
6
CONTINUOUS
10
0.465608
20
0.227508
11
0.466053
21
0.227631
0
LINE
8
BLACK
6
CONTINUOUS
10
0.466053
20
0.227631
11
0.466307
21
0.227685
0
LINE
8
BLACK
6
CONTINUOUS
10
0.466307
20
0.227685
11
0.474421
21
0.230119
0
LINE
8
BLACK
6
CONTINUOUS
10
0.474421
20
0.230119
11
0.474719
21
0.230236
0
LINE
8
BLACK
6
CONTINUOUS
10
0.474719
20
0.230236
11
0.482326
21
0.233963
0
LINE
8
BLACK
6
CONTINUOUS
10
0.482326
20
0.233963
11
0.4826
21
0.234126
0
LINE
8
BLACK
6
CONTINUOUS
10
0.4826
20
0.234126
11
0.489497
21
0.239046
0
LINE
8
BLACK
6
CONTINUOUS
10
0.489497
20
0.239046
11
0.489741
21
0.239251
0
LINE
8
BLACK
6
CONTINUOUS
10
0.489741
20
0.239251
11
0.495741
21
0.245231
0
LINE
8
BLACK
6
CONTINUOUS
10
0.495741
20
0.245231
11
0.495948
21
0.245474
0
LINE
8
BLACK
6
CONTINUOUS
10
0.495948
20
0.245474
11
0.500892
21
0.252354
0
LINE
8
BLACK
6
CONTINUOUS
10
0.500892
20
0.252354
11
0.501056
21
0.252627
0
LINE
8
BLACK
6
CONTINUOUS
10
0.501056
20
0.252627
11
0.50481
21
0.260222
0
LINE
8
BLACK
6
CONTINUOUS
10
0.50481
20
0.260222
11
0.504927
21
0.260518
0
LINE
8
BLACK
6
CONTINUOUS
10
0.504927
20
0.260518
11
0.50739
21
0.268624
0
LINE
8
BLACK
6
CONTINUOUS
10
0.50739
20
0.268624
11
0.507457
21
0.268936
0
LINE
8
BLACK
6
CONTINUOUS
10
0.507457
20
0.268936
11
0.507532
21
0.269502
0
LINE
8
BLACK
6
CONTINUOUS
10
0.507532
20
0.269502
11
0.507436
21
0.270019
0
LINE
8
BLACK
6
CONTINUOUS
10
0.507436
20
0.270019
11
0.507385
21
0.270067
0
LINE
8
BLACK
6
CONTINUOUS
10
0.507385
20
0.270067
11
0.507177
21
0.270114
0
LINE
8
BLACK
6
CONTINUOUS
10
0.507177
20
0.270114
11
0.486745
21
0.270114
0
LINE
8
BLACK
6
CONTINUOUS
10
0.486745
20
0.270114
11
0.485571
21
0.266503
0
LINE
8
BLACK
6
CONTINUOUS
10
0.485571
20
0.266503
11
0.482073
21
0.260444
0
LINE
8
BLACK
6
CONTINUOUS
10
0.482073
20
0.260444
11
0.477392
21
0.255245
0
LINE
8
BLACK
6
CONTINUOUS
10
0.477392
20
0.255245
11
0.471732
21
0.251133
0
LINE
8
BLACK
6
CONTINUOUS
10
0.471732
20
0.251133
11
0.465341
21
0.248288
0
LINE
8
BLACK
6
CONTINUOUS
10
0.465341
20
0.248288
11
0.458498
21
0.246833
0
LINE
8
BLACK
6
CONTINUOUS
10
0.458498
20
0.246833
11
0.451502
21
0.246833
0
LINE
8
BLACK
6
CONTINUOUS
10
0.451502
20
0.246833
11
0.444659
21
0.248288
0
LINE
8
BLACK
6
CONTINUOUS
10
0.444659
20
0.248288
11
0.438268
21
0.251133
0
LINE
8
BLACK
6
CONTINUOUS
10
0.438268
20
0.251133
11
0.432608
21
0.255245
0
LINE
8
BLACK
6
CONTINUOUS
10
0.432608
20
0.255245
11
0.427927
21
0.260444
0
LINE
8
BLACK
6
CONTINUOUS
10
0.427927
20
0.260444
11
0.424429
21
0.266503
0
LINE
8
BLACK
6
CONTINUOUS
10
0.424429
20
0.266503
11
0.423255
21
0.270114
0
LINE
8
BLACK
6
CONTINUOUS
10
0.423255
20
0.270114
11
0.403063
21
0.270114
0
LINE
8
BLACK
6
CONTINUOUS
10
0.403063
20
0.270114
11
0.402577
21
0.269957
0
LINE
8
BLACK
6
CONTINUOUS
10
0.402577
20
0.269957
11
0.402561
21
0.269602
0
LINE
8
BLACK
6
CONTINUOUS
10
0.402561
20
0.269602
11
0.403772
21
0.264228
0
LINE
8
BLACK
6
CONTINUOUS
10
0.403772
20
0.264228
11
0.403867
21
0.263923
0
LINE
8
BLACK
6
CONTINUOUS
10
0.402542
20
0.29015
11
0.402708
21
0.290114
0
LINE
8
BLACK
6
CONTINUOUS
10
0.402708
20
0.290114
11
0.423255
21
0.290114
0
LINE
8
BLACK
6
CONTINUOUS
10
0.423255
20
0.290114
11
0.424429
21
0.293726
0
LINE
8
BLACK
6
CONTINUOUS
10
0.424429
20
0.293726
11
0.427927
21
0.299784
0
LINE
8
BLACK
6
CONTINUOUS
10
0.427927
20
0.299784
11
0.432608
21
0.304983
0
LINE
8
BLACK
6
CONTINUOUS
10
0.432608
20
0.304983
11
0.438268
21
0.309096
0
LINE
8
BLACK
6
CONTINUOUS
10
0.438268
20
0.309096
11
0.444659
21
0.311941
0
LINE
8
BLACK
6
CONTINUOUS
10
0.444659
20
0.311941
11
0.445
21
0.312014
0
LINE
8
BLACK
6
CONTINUOUS
10
0.445
20
0.312014
11
0.445
21
0.332057
0
LINE
8
BLACK
6
CONTINUOUS
10
0.445
20
0.332057
11
0.444838
21
0.332556
0
LINE
8
BLACK
6
CONTINUOUS
10
0.444838
20
0.332556
11
0.444798
21
0.332585
0
LINE
8
BLACK
6
CONTINUOUS
10
0.444798
20
0.332585
11
0.444549
21
0.332605
0
LINE
8
BLACK
6
CONTINUOUS
10
0.444549
20
0.332605
11
0.442725
21
0.332326
0
LINE
8
BLACK
6
CONTINUOUS
10
0.442725
20
0.332326
11
0.442415
21
0.332252
0
LINE
8
BLACK
6
CONTINUOUS
10
0.442415
20
0.332252
11
0.434362
21
0.32962
0
LINE
8
BLACK
6
CONTINUOUS
10
0.434362
20
0.32962
11
0.434069
21
0.329496
0
LINE
8
BLACK
6
CONTINUOUS
10
0.434069
20
0.329496
11
0.426554
21
0.325585
0
LINE
8
BLACK
6
CONTINUOUS
10
0.426554
20
0.325585
11
0.426285
21
0.325415
0
LINE
8
BLACK
6
CONTINUOUS
10
0.426285
20
0.325415
11
0.41951
21
0.320328
0
LINE
8
BLACK
6
CONTINUOUS
10
0.41951
20
0.320328
11
0.419271
21
0.320116
0
LINE
8
BLACK
6
CONTINUOUS
10
0.419271
20
0.320116
11
0.413419
21
0.313992
0
LINE
8
BLACK
6
CONTINUOUS
10
0.413419
20
0.313992
11
0.413218
21
0.313744
0
LINE
8
BLACK
6
CONTINUOUS
10
0.413218
20
0.313744
11
0.408444
21
0.306745
0
LINE
8
BLACK
6
CONTINUOUS
10
0.408444
20
0.306745
11
0.408286
21
0.306468
0
LINE
8
BLACK
6
CONTINUOUS
10
0.408286
20
0.306468
11
0.404719
21
0.298784
0
LINE
8
BLACK
6
CONTINUOUS
10
0.404719
20
0.298784
11
0.404609
21
0.298485
0
LINE
8
BLACK
6
CONTINUOUS
10
0.404609
20
0.298485
11
0.402404
21
0.290532
0
LINE
8
BLACK
6
CONTINUOUS
10
0.402404
20
0.290532
11
0.402471
21
0.290214
0
LINE
8
BLACK
6
CONTINUOUS
10
0.402471
20
0.290214
11
0.402542
21
0.29015
0
LINE
8
BLACK
6
CONTINUOUS
10
0.465088
20
0.332462
11
0.465071
21
0.332446
0
LINE
8
BLACK
6
CONTINUOUS
10
0.465071
20
0.332446
11
0.465
21
0.332162
0
LINE
8
BLACK
6
CONTINUOUS
10
0.465
20
0.332162
11
0.465
21
0.312014
0
LINE
8
BLACK
6
CONTINUOUS
10
0.465
20
0.312014
11
0.465341
21
0.311941
0
LINE
8
BLACK
6
CONTINUOUS
10
0.465341
20
0.311941
11
0.471732
21
0.309096
0
LINE
8
BLACK
6
CONTINUOUS
10
0.471732
20
0.309096
11
0.477392
21
0.304983
0
LINE
8
BLACK
6
CONTINUOUS
10
0.477392
20
0.304983
11
0.482073
21
0.299784
0
LINE
8
BLACK
6
CONTINUOUS
10
0.482073
20
0.299784
11
0.485571
21
0.293726
0
LINE
8
BLACK
6
CONTINUOUS
10
0.485571
20
0.293726
11
0.486745
21
0.290114
0
LINE
8
BLACK
6
CONTINUOUS
10
0.486745
20
0.290114
11
0.506999
21
0.290114
0
LINE
8
BLACK
6
CONTINUOUS
10
0.506999
20
0.290114
11
0.50747
21
0.290267
0
LINE
8
BLACK
6
CONTINUOUS
10
0.50747
20
0.290267
11
0.507483
21
0.290647
0
LINE
8
BLACK
6
CONTINUOUS
10
0.507483
20
0.290647
11
0.505825
21
0.297248
0
LINE
8
BLACK
6
CONTINUOUS
10
0.505825
20
0.297248
11
0.505722
21
0.29755
0
LINE
8
BLACK
6
CONTINUOUS
10
0.505722
20
0.29755
11
0.503239
21
0.30326
0
LINE
8
BLACK
6
CONTINUOUS
10
0.503239
20
0.30326
11
0.499071
21
0.30392
0
LINE
8
BLACK
6
CONTINUOUS
10
0.499071
20
0.30392
11
0.494681
21
0.306157
0
LINE
8
BLACK
6
CONTINUOUS
10
0.494681
20
0.306157
11
0.491197
21
0.309641
0
LINE
8
BLACK
6
CONTINUOUS
10
0.491197
20
0.309641
11
0.48896
21
0.314031
0
LINE
8
BLACK
6
CONTINUOUS
10
0.48896
20
0.314031
11
0.488189
21
0.318898
0
LINE
8
BLACK
6
CONTINUOUS
10
0.488189
20
0.318898
11
0.488631
21
0.321685
0
LINE
8
BLACK
6
CONTINUOUS
10
0.488631
20
0.321685
11
0.484814
21
0.3247
0
LINE
8
BLACK
6
CONTINUOUS
10
0.484814
20
0.3247
11
0.484548
21
0.324876
0
LINE
8
BLACK
6
CONTINUOUS
10
0.484548
20
0.324876
11
0.477132
21
0.32897
0
LINE
8
BLACK
6
CONTINUOUS
10
0.477132
20
0.32897
11
0.476841
21
0.329101
0
LINE
8
BLACK
6
CONTINUOUS
10
0.476841
20
0.329101
11
0.468855
21
0.331929
0
LINE
8
BLACK
6
CONTINUOUS
10
0.468855
20
0.331929
11
0.468546
21
0.33201
0
LINE
8
BLACK
6
CONTINUOUS
10
0.468546
20
0.33201
11
0.465608
21
0.332534
0
LINE
8
BLACK
6
CONTINUOUS
10
0.465608
20
0.332534
11
0.465088
21
0.332462
0
LINE
8
BLACK
6
CONTINUOUS
10
-0.0322158
20
0.158351
11
-0.0322638
21
0.158961
0
LINE
8
BLACK
6
CONTINUOUS
10
-0.0322638
20
0.158961
11
-0.0322638
21
0.261384
0
LINE
8
BLACK
6
CONTINUOUS
10
-0.0322638
20
0.261384
11
-0.0315194
21
0.263675
0
LINE
8
BLACK
6
CONTINUOUS
10
-0.0315194
20
0.263675
11
-0.0307389
21
0.264476
0
LINE
8
BLACK
6
CONTINUOUS
10
-0.0307389
20
0.264476
11
-0.0304278
21
0.264715
0
LINE
8
BLACK
6
CONTINUOUS
10
-0.0304278
20
0.264715
11
-0.0304277
21
0.264715
0
LINE
8
BLACK
6
CONTINUOUS
10
-0.0304277
20
0.264715
11
-0.0302251
21
0.264871
0
LINE
8
BLACK
6
CONTINUOUS
10
-0.0302251
20
0.264871
11
-0.0265948
21
0.269602
0
LINE
8
BLACK
6
CONTINUOUS
10
-0.0265948
20
0.269602
11
-0.0264356
21
0.269809
0
LINE
8
BLACK
6
CONTINUOUS
10
-0.0264356
20
0.269809
11
-0.0240534
21
0.275561
0
LINE
8
BLACK
6
CONTINUOUS
10
-0.0240534
20
0.275561
11
-0.0232409
21
0.281732
0
LINE
8
BLACK
6
CONTINUOUS
10
-0.0232409
20
0.281732
11
-0.0240534
21
0.287904
0
LINE
8
BLACK
6
CONTINUOUS
10
-0.0240534
20
0.287904
11
-0.025142
21
0.290532
0
LINE
8
BLACK
6
CONTINUOUS
10
-0.025142
20
0.290532
11
-0.0264356
21
0.293655
0
LINE
8
BLACK
6
CONTINUOUS
10
-0.0264356
20
0.293655
11
-0.0302251
21
0.298594
0
LINE
8
BLACK
6
CONTINUOUS
10
-0.0302251
20
0.298594
11
-0.0351637
21
0.302383
0
LINE
8
BLACK
6
CONTINUOUS
10
-0.0351637
20
0.302383
11
-0.0409149
21
0.304766
0
LINE
8
BLACK
6
CONTINUOUS
10
-0.0409149
20
0.304766
11
-0.0470866
21
0.305578
0
LINE
8
BLACK
6
CONTINUOUS
10
-0.0470866
20
0.305578
11
-0.0532583
21
0.304766
0
LINE
8
BLACK
6
CONTINUOUS
10
-0.0532583
20
0.304766
11
-0.0590095
21
0.302383
0
LINE
8
BLACK
6
CONTINUOUS
10
-0.0590095
20
0.302383
11
-0.0639481
21
0.298594
0
LINE
8
BLACK
6
CONTINUOUS
10
-0.0639481
20
0.298594
11
-0.0677376
21
0.293655
0
LINE
8
BLACK
6
CONTINUOUS
10
-0.0677376
20
0.293655
11
-0.0701198
21
0.287904
0
LINE
8
BLACK
6
CONTINUOUS
10
-0.0701198
20
0.287904
11
-0.0709324
21
0.281732
0
LINE
8
BLACK
6
CONTINUOUS
10
-0.0709324
20
0.281732
11
-0.0701198
21
0.275561
0
LINE
8
BLACK
6
CONTINUOUS
10
-0.0701198
20
0.275561
11
-0.0683913
21
0.271387
0
LINE
8
BLACK
6
CONTINUOUS
10
-0.0683913
20
0.271387
11
-0.0680329
21
0.270522
0
LINE
8
BLACK
6
CONTINUOUS
10
-0.0680329
20
0.270522
11
-0.0677362
21
0.269031
0
LINE
8
BLACK
6
CONTINUOUS
10
-0.0677362
20
0.269031
11
-0.0677362
21
0.151285
0
LINE
8
BLACK
6
CONTINUOUS
10
-0.0677362
20
0.151285
11
-0.0677632
21
0.150826
0
LINE
8
BLACK
6
CONTINUOUS
10
-0.0677632
20
0.150826
11
-0.0679277
21
0.149437
0
LINE
8
BLACK
6
CONTINUOUS
10
-0.0679277
20
0.149437
11
-0.0678754
21
0.14915
0
LINE
8
BLACK
6
CONTINUOUS
10
-0.0678754
20
0.14915
11
-0.0678754
21
0.14915
0
LINE
8
BLACK
6
CONTINUOUS
10
-0.0678754
20
0.14915
11
-0.0675099
21
0.147149
0
LINE
8
BLACK
6
CONTINUOUS
10
-0.0675099
20
0.147149
11
-0.0674898
21
0.147029
0
LINE
8
BLACK
6
CONTINUOUS
10
-0.0674898
20
0.147029
11
-0.0671437
21
0.144726
0
LINE
8
BLACK
6
CONTINUOUS
10
-0.0671437
20
0.144726
11
-0.0670205
21
0.144469
0
LINE
8
BLACK
6
CONTINUOUS
10
-0.0670205
20
0.144469
11
-0.0669695
21
0.14419
0
LINE
8
BLACK
6
CONTINUOUS
10
-0.0669695
20
0.14419
11
-0.0668352
21
0.143932
0
LINE
8
BLACK
6
CONTINUOUS
10
-0.0668352
20
0.143932
11
-0.0658977
21
0.142127
0
LINE
8
BLACK
6
CONTINUOUS
10
-0.0658977
20
0.142127
11
-0.065843
21
0.142017
0
LINE
8
BLACK
6
CONTINUOUS
10
-0.065843
20
0.142017
11
-0.0649611
21
0.140181
0
LINE
8
BLACK
6
CONTINUOUS
10
-0.0649611
20
0.140181
11
-0.0649611
21
0.140181
0
LINE
8
BLACK
6
CONTINUOUS
10
-0.0649611
20
0.140181
11
-0.064835
21
0.139918
0
LINE
8
BLACK
6
CONTINUOUS
10
-0.064835
20
0.139918
11
-0.0646733
21
0.139743
0
LINE
8
BLACK
6
CONTINUOUS
10
-0.0646733
20
0.139743
11
-0.0646134
21
0.139654
0
LINE
8
BLACK
6
CONTINUOUS
10
-0.0646134
20
0.139654
11
-0.064511
21
0.139457
0
LINE
8
BLACK
6
CONTINUOUS
10
-0.064511
20
0.139457
11
-0.0643415
21
0.139259
0
LINE
8
BLACK
6
CONTINUOUS
10
-0.0643415
20
0.139259
11
-0.06286
21
0.137777
0
LINE
8
BLACK
6
CONTINUOUS
10
-0.06286
20
0.137777
11
-0.0627539
21
0.137667
0
LINE
8
BLACK
6
CONTINUOUS
10
-0.0627539
20
0.137667
11
-0.0614124
21
0.136216
0
LINE
8
BLACK
6
CONTINUOUS
10
-0.0614124
20
0.136216
11
-0.0614123
21
0.136216
0
LINE
8
BLACK
6
CONTINUOUS
10
-0.0614123
20
0.136216
11
-0.0612147
21
0.136002
0
LINE
8
BLACK
6
CONTINUOUS
10
-0.0612147
20
0.136002
11
-0.060976
21
0.135863
0
LINE
8
BLACK
6
CONTINUOUS
10
-0.060976
20
0.135863
11
-0.0606876
21
0.135605
0
LINE
8
BLACK
6
CONTINUOUS
10
-0.0606876
20
0.135605
11
0.0767079
21
-0.00179071
0
LINE
8
BLACK
6
CONTINUOUS
10
0.0767079
20
-0.00179071
11
0.0770127
21
-0.0021337
0
LINE
8
BLACK
6
CONTINUOUS
10
0.0770127
20
-0.0021337
11
0.0778791
21
-0.00323268
0
LINE
8
BLACK
6
CONTINUOUS
10
0.0778791
20
-0.00323268
11
0.0781187
21
-0.00339831
0
LINE
8
BLACK
6
CONTINUOUS
10
0.0781187
20
-0.00339831
11
0.079793
21
-0.00455543
0
LINE
8
BLACK
6
CONTINUOUS
10
0.079793
20
-0.00455543
11
0.0798926
21
-0.00462665
0
LINE
8
BLACK
6
CONTINUOUS
10
0.0798926
20
-0.00462665
11
0.08153
21
-0.00583606
0
LINE
8
BLACK
6
CONTINUOUS
10
0.08153
20
-0.00583606
11
0.08153
21
-0.0058361
0
LINE
8
BLACK
6
CONTINUOUS
10
0.08153
20
-0.0058361
11
0.0817644
21
-0.00600921
0
LINE
8
BLACK
6
CONTINUOUS
10
0.0817644
20
-0.00600921
11
0.0820328
21
-0.00610343
0
LINE
8
BLACK
6
CONTINUOUS
10
0.0820328
20
-0.00610343
11
0.0822665
21
-0.006265
0
LINE
8
BLACK
6
CONTINUOUS
10
0.0822665
20
-0.006265
11
0.0825444
21
-0.00635291
0
LINE
8
BLACK
6
CONTINUOUS
10
0.0825444
20
-0.00635291
11
0.0825444
21
-0.00635291
0
LINE
8
BLACK
6
CONTINUOUS
10
0.0825444
20
-0.00635291
11
0.0833454
21
-0.00660622
0
LINE
8
BLACK
6
CONTINUOUS
10
0.0833454
20
-0.00660622
11
0.0844854
21
-0.00696677
0
LINE
8
BLACK
6
CONTINUOUS
10
0.0844854
20
-0.00696677
11
0.084599
21
-0.00700465
0
LINE
8
BLACK
6
CONTINUOUS
10
0.084599
20
-0.00700465
11
0.0867965
21
-0.00777634
0
LINE
8
BLACK
6
CONTINUOUS
10
0.0867965
20
-0.00777634
11
0.0870344
21
-0.00778567
0
LINE
8
BLACK
6
CONTINUOUS
10
0.0870344
20
-0.00778567
11
0.0871396
21
-0.00780618
0
LINE
8
BLACK
6
CONTINUOUS
10
0.0871396
20
-0.00780618
11
0.0873516
21
-0.00787323
0
LINE
8
BLACK
6
CONTINUOUS
10
0.0873516
20
-0.00787323
11
0.0876117
21
-0.0078937
0
LINE
8
BLACK
6
CONTINUOUS
10
0.0876117
20
-0.0078937
11
0.0897063
21
-0.0078937
0
LINE
8
BLACK
6
CONTINUOUS
10
0.0897063
20
-0.0078937
11
0.0898594
21
-0.00789669
0
LINE
8
BLACK
6
CONTINUOUS
10
0.0898594
20
-0.00789669
11
0.0921257
21
-0.00798575
0
LINE
8
BLACK
6
CONTINUOUS
10
0.0921257
20
-0.00798575
11
0.0923926
21
-0.007915
0
LINE
8
BLACK
6
CONTINUOUS
10
0.0923926
20
-0.007915
11
0.0927793
21
-0.0078937
0
LINE
8
BLACK
6
CONTINUOUS
10
0.0927793
20
-0.0078937
11
0.256577
21
-0.0078937
0
LINE
8
BLACK
6
CONTINUOUS
10
0.256577
20
-0.0078937
11
0.25895
21
-0.00869913
0
LINE
8
BLACK
6
CONTINUOUS
10
0.25895
20
-0.00869913
11
0.261699
21
-0.0108085
0
LINE
8
BLACK
6
CONTINUOUS
10
0.261699
20
-0.0108085
11
0.26745
21
-0.0131907
0
LINE
8
BLACK
6
CONTINUOUS
10
0.26745
20
-0.0131907
11
0.273622
21
-0.0140032
0
LINE
8
BLACK
6
CONTINUOUS
10
0.273622
20
-0.0140032
11
0.279794
21
-0.0131907
0
LINE
8
BLACK
6
CONTINUOUS
10
0.279794
20
-0.0131907
11
0.285545
21
-0.0108085
0
LINE
8
BLACK
6
CONTINUOUS
10
0.285545
20
-0.0108085
11
0.290484
21
-0.00701898
0
LINE
8
BLACK
6
CONTINUOUS
10
0.290484
20
-0.00701898
11
0.290484
21
-0.00701799
0
LINE
8
BLACK
6
CONTINUOUS
10
0.290484
20
-0.00701799
11
0.292535
21
-0.00597319
0
LINE
8
BLACK
6
CONTINUOUS
10
0.292535
20
-0.00597319
11
0.293145
21
-0.0059252
0
LINE
8
BLACK
6
CONTINUOUS
10
0.293145
20
-0.0059252
11
0.300909
21
-0.0059252
0
LINE
8
BLACK
6
CONTINUOUS
10
0.300909
20
-0.0059252
11
0.3032
21
-0.00666957
0
LINE
8
BLACK
6
CONTINUOUS
10
0.3032
20
-0.00666957
11
0.303665
21
-0.00706677
0
LINE
8
BLACK
6
CONTINUOUS
10
0.303665
20
-0.00706677
11
0.415991
21
-0.119392
0
LINE
8
BLACK
6
CONTINUOUS
10
0.415991
20
-0.119392
11
0.417084
21
-0.121539
0
LINE
8
BLACK
6
CONTINUOUS
10
0.417084
20
-0.121539
11
0.417115
21
-0.121926
0
LINE
8
BLACK
6
CONTINUOUS
10
0.417115
20
-0.121926
11
0.417099
21
-0.122047
0
LINE
8
BLACK
6
CONTINUOUS
10
0.417099
20
-0.122047
11
0.417912
21
-0.128219
0
LINE
8
BLACK
6
CONTINUOUS
10
0.417912
20
-0.128219
11
0.420294
21
-0.13397
0
LINE
8
BLACK
6
CONTINUOUS
10
0.420294
20
-0.13397
11
0.424083
21
-0.138909
0
LINE
8
BLACK
6
CONTINUOUS
10
0.424083
20
-0.138909
11
0.429022
21
-0.142698
0
LINE
8
BLACK
6
CONTINUOUS
10
0.429022
20
-0.142698
11
0.434773
21
-0.14508
0
LINE
8
BLACK
6
CONTINUOUS
10
0.434773
20
-0.14508
11
0.440945
21
-0.145893
0
LINE
8
BLACK
6
CONTINUOUS
10
0.440945
20
-0.145893
11
0.447117
21
-0.14508
0
LINE
8
BLACK
6
CONTINUOUS
10
0.447117
20
-0.14508
11
0.452868
21
-0.142698
0
LINE
8
BLACK
6
CONTINUOUS
10
0.452868
20
-0.142698
11
0.457806
21
-0.138909
0
LINE
8
BLACK
6
CONTINUOUS
10
0.457806
20
-0.138909
11
0.461596
21
-0.13397
0
LINE
8
BLACK
6
CONTINUOUS
10
0.461596
20
-0.13397
11
0.463978
21
-0.128219
0
LINE
8
BLACK
6
CONTINUOUS
10
0.463978
20
-0.128219
11
0.464791
21
-0.122047
0
LINE
8
BLACK
6
CONTINUOUS
10
0.464791
20
-0.122047
11
0.463978
21
-0.115876
0
LINE
8
BLACK
6
CONTINUOUS
10
0.463978
20
-0.115876
11
0.461596
21
-0.110124
0
LINE
8
BLACK
6
CONTINUOUS
10
0.461596
20
-0.110124
11
0.457806
21
-0.105186
0
LINE
8
BLACK
6
CONTINUOUS
10
0.457806
20
-0.105186
11
0.452868
21
-0.101396
0
LINE
8
BLACK
6
CONTINUOUS
10
0.452868
20
-0.101396
11
0.447117
21
-0.099014
0
LINE
8
BLACK
6
CONTINUOUS
10
0.447117
20
-0.099014
11
0.440945
21
-0.0982015
0
LINE
8
BLACK
6
CONTINUOUS
10
0.440945
20
-0.0982015
11
0.440944
21
-0.0982017
0
LINE
8
BLACK
6
CONTINUOUS
10
0.440944
20
-0.0982017
11
0.438755
21
-0.0974905
0
LINE
8
BLACK
6
CONTINUOUS
10
0.438755
20
-0.0974905
11
0.43829
21
-0.0970933
0
LINE
8
BLACK
6
CONTINUOUS
10
0.43829
20
-0.0970933
11
0.319327
21
0.0218692
0
LINE
8
BLACK
6
CONTINUOUS
10
0.319327
20
0.0218692
11
0.319327
21
0.0218694
0
LINE
8
BLACK
6
CONTINUOUS
10
0.319327
20
0.0218694
11
0.319327
21
0.0218696
0
LINE
8
BLACK
6
CONTINUOUS
10
0.319327
20
0.0218696
11
0.318439
21
0.0227579
0
LINE
8
BLACK
6
CONTINUOUS
10
0.318439
20
0.0227579
11
0.317592
21
0.0231891
0
LINE
8
BLACK
6
CONTINUOUS
10
0.317592
20
0.0231891
11
0.317071
21
0.0235085
0
LINE
8
BLACK
6
CONTINUOUS
10
0.317071
20
0.0235085
11
0.316551
21
0.0238864
0
LINE
8
BLACK
6
CONTINUOUS
10
0.316551
20
0.0238864
11
0.316303
21
0.0240668
0
LINE
8
BLACK
6
CONTINUOUS
10
0.316303
20
0.0240668
11
0.315399
21
0.0243603
0
LINE
8
BLACK
6
CONTINUOUS
10
0.315399
20
0.0243603
11
0.314835
21
0.0245943
0
LINE
8
BLACK
6
CONTINUOUS
10
0.314835
20
0.0245943
11
0.313988
21
0.0250254
0
LINE
8
BLACK
6
CONTINUOUS
10
0.313988
20
0.0250254
11
0.313685
21
0.0250734
0
LINE
8
BLACK
6
CONTINUOUS
10
0.313685
20
0.0250734
11
0.313685
21
0.0250734
0
LINE
8
BLACK
6
CONTINUOUS
10
0.313685
20
0.0250734
11
0.31305
21
0.025174
0
LINE
8
BLACK
6
CONTINUOUS
10
0.31305
20
0.025174
11
0.312456
21
0.0253167
0
LINE
8
BLACK
6
CONTINUOUS
10
0.312456
20
0.0253167
11
0.311552
21
0.0256102
0
LINE
8
BLACK
6
CONTINUOUS
10
0.311552
20
0.0256102
11
0.293145
21
0.0256102
0
LINE
8
BLACK
6
CONTINUOUS
10
0.293145
20
0.0256102
11
0.290854
21
0.0263546
0
LINE
8
BLACK
6
CONTINUOUS
10
0.290854
20
0.0263546
11
0.290558
21
0.0266073
0
LINE
8
BLACK
6
CONTINUOUS
10
0.290558
20
0.0266073
11
0.290484
21
0.026704
0
LINE
8
BLACK
6
CONTINUOUS
10
0.290484
20
0.026704
11
0.285545
21
0.0304935
0
LINE
8
BLACK
6
CONTINUOUS
10
0.285545
20
0.0304935
11
0.279794
21
0.0328757
0
LINE
8
BLACK
6
CONTINUOUS
10
0.279794
20
0.0328757
11
0.273622
21
0.0336883
0
LINE
8
BLACK
6
CONTINUOUS
10
0.273622
20
0.0336883
11
0.26745
21
0.0328757
0
LINE
8
BLACK
6
CONTINUOUS
10
0.26745
20
0.0328757
11
0.261699
21
0.0304935
0
LINE
8
BLACK
6
CONTINUOUS
10
0.261699
20
0.0304935
11
0.261496
21
0.030338
0
LINE
8
BLACK
6
CONTINUOUS
10
0.261496
20
0.030338
11
0.25895
21
0.0283842
0
LINE
8
BLACK
6
CONTINUOUS
10
0.25895
20
0.0283842
11
0.256577
21
0.0275787
0
LINE
8
BLACK
6
CONTINUOUS
10
0.256577
20
0.0275787
11
0.0991185
21
0.0275787
0
LINE
8
BLACK
6
CONTINUOUS
10
0.0991185
20
0.0275787
11
0.0968276
21
0.0283231
0
LINE
8
BLACK
6
CONTINUOUS
10
0.0968276
20
0.0283231
11
0.0963625
21
0.0287203
0
LINE
8
BLACK
6
CONTINUOUS
10
0.0963625
20
0.0287203
11
-0.0311222
21
0.156205
0
LINE
8
BLACK
6
CONTINUOUS
10
-0.0311222
20
0.156205
11
-0.0322158
21
0.158351
0
LINE
8
BLACK
6
CONTINUOUS
10
-0.294273
20
0.417211
11
-0.290484
21
0.412272
0
LINE
8
BLACK
6
CONTINUOUS
10
-0.290484
20
0.412272
11
-0.285545
21
0.408483
0
LINE
8
BLACK
6
CONTINUOUS
10
-0.285545
20
0.408483
11
-0.279794
21
0.406101
0
LINE
8
BLACK
6
CONTINUOUS
10
-0.279794
20
0.406101
11
-0.273622
21
0.405288
0
LINE
8
BLACK
6
CONTINUOUS
10
-0.273622
20
0.405288
11
-0.26745
21
0.406101
0
LINE
8
BLACK
6
CONTINUOUS
10
-0.26745
20
0.406101
11
-0.265359
21
0.406967
0
LINE
8
BLACK
6
CONTINUOUS
10
-0.265359
20
0.406967
11
-0.263867
21
0.407264
0
LINE
8
BLACK
6
CONTINUOUS
10
-0.263867
20
0.407264
11
0.0838596
21
0.407264
0
LINE
8
BLACK
6
CONTINUOUS
10
0.0838596
20
0.407264
11
0.084357
21
0.407207
0
LINE
8
BLACK
6
CONTINUOUS
10
0.084357
20
0.407207
11
0.084357
21
0.407207
0
LINE
8
BLACK
6
CONTINUOUS
10
0.084357
20
0.407207
11
0.0846474
21
0.407185
0
LINE
8
BLACK
6
CONTINUOUS
10
0.0846474
20
0.407185
11
0.0849313
21
0.407119
0
LINE
8
BLACK
6
CONTINUOUS
10
0.0849313
20
0.407119
11
0.0868429
21
0.407254
0
LINE
8
BLACK
6
CONTINUOUS
10
0.0868429
20
0.407254
11
0.0871182
21
0.407264
0
LINE
8
BLACK
6
CONTINUOUS
10
0.0871182
20
0.407264
11
0.295684
21
0.407264
0
LINE
8
BLACK
6
CONTINUOUS
10
0.295684
20
0.407264
11
0.296142
21
0.407237
0
LINE
8
BLACK
6
CONTINUOUS
10
0.296142
20
0.407237
11
0.297532
21
0.407072
0
LINE
8
BLACK
6
CONTINUOUS
10
0.297532
20
0.407072
11
0.297818
21
0.407125
0
LINE
8
BLACK
6
CONTINUOUS
10
0.297818
20
0.407125
11
0.297818
21
0.407125
0
LINE
8
BLACK
6
CONTINUOUS
10
0.297818
20
0.407125
11
0.299027
21
0.407345
0
LINE
8
BLACK
6
CONTINUOUS
10
0.299027
20
0.407345
11
0.29982
21
0.40749
0
LINE
8
BLACK
6
CONTINUOUS
10
0.29982
20
0.40749
11
0.29994
21
0.40751
0
LINE
8
BLACK
6
CONTINUOUS
10
0.29994
20
0.40751
11
0.302243
21
0.407856
0
LINE
8
BLACK
6
CONTINUOUS
10
0.302243
20
0.407856
11
0.302499
21
0.407979
0
LINE
8
BLACK
6
CONTINUOUS
10
0.302499
20
0.407979
11
0.302778
21
0.408031
0
LINE
8
BLACK
6
CONTINUOUS
10
0.302778
20
0.408031
11
0.304842
21
0.409102
0
LINE
8
BLACK
6
CONTINUOUS
10
0.304842
20
0.409102
11
0.304951
21
0.409157
0
LINE
8
BLACK
6
CONTINUOUS
10
0.304951
20
0.409157
11
0.306788
21
0.410039
0
LINE
8
BLACK
6
CONTINUOUS
10
0.306788
20
0.410039
11
0.306788
21
0.410039
0
LINE
8
BLACK
6
CONTINUOUS
10
0.306788
20
0.410039
11
0.30705
21
0.410165
0
LINE
8
BLACK
6
CONTINUOUS
10
0.30705
20
0.410165
11
0.307225
21
0.410327
0
LINE
8
BLACK
6
CONTINUOUS
10
0.307225
20
0.410327
11
0.307314
21
0.410387
0
LINE
8
BLACK
6
CONTINUOUS
10
0.307314
20
0.410387
11
0.307511
21
0.410489
0
LINE
8
BLACK
6
CONTINUOUS
10
0.307511
20
0.410489
11
0.30771
21
0.410658
0
LINE
8
BLACK
6
CONTINUOUS
10
0.30771
20
0.410658
11
0.309191
21
0.41214
0
LINE
8
BLACK
6
CONTINUOUS
10
0.309191
20
0.41214
11
0.309302
21
0.412246
0
LINE
8
BLACK
6
CONTINUOUS
10
0.309302
20
0.412246
11
0.310753
21
0.413588
0
LINE
8
BLACK
6
CONTINUOUS
10
0.310753
20
0.413588
11
0.310753
21
0.413588
0
LINE
8
BLACK
6
CONTINUOUS
10
0.310753
20
0.413588
11
0.310967
21
0.413785
0
LINE
8
BLACK
6
CONTINUOUS
10
0.310967
20
0.413785
11
0.311105
21
0.414024
0
LINE
8
BLACK
6
CONTINUOUS
10
0.311105
20
0.414024
11
0.311364
21
0.414312
0
LINE
8
BLACK
6
CONTINUOUS
10
0.311364
20
0.414312
11
0.356946
21
0.459894
0
LINE
8
BLACK
6
CONTINUOUS
10
0.356946
20
0.459894
11
0.359193
21
0.461003
0
LINE
8
BLACK
6
CONTINUOUS
10
0.359193
20
0.461003
11
0.362628
21
0.461455
0
LINE
8
BLACK
6
CONTINUOUS
10
0.362628
20
0.461455
11
0.36838
21
0.463837
0
LINE
8
BLACK
6
CONTINUOUS
10
0.36838
20
0.463837
11
0.373318
21
0.467627
0
LINE
8
BLACK
6
CONTINUOUS
10
0.373318
20
0.467627
11
0.377108
21
0.472565
0
LINE
8
BLACK
6
CONTINUOUS
10
0.377108
20
0.472565
11
0.37949
21
0.478316
0
LINE
8
BLACK
6
CONTINUOUS
10
0.37949
20
0.478316
11
0.380302
21
0.484488
0
LINE
8
BLACK
6
CONTINUOUS
10
0.380302
20
0.484488
11
0.380238
21
0.484977
0
LINE
8
BLACK
6
CONTINUOUS
10
0.380238
20
0.484977
11
0.379523
21
0.490407
0
LINE
8
BLACK
6
CONTINUOUS
10
0.379523
20
0.490407
11
0.37949
21
0.49066
0
LINE
8
BLACK
6
CONTINUOUS
10
0.37949
20
0.49066
11
0.377108
21
0.496411
0
LINE
8
BLACK
6
CONTINUOUS
10
0.377108
20
0.496411
11
0.373318
21
0.50135
0
LINE
8
BLACK
6
CONTINUOUS
10
0.373318
20
0.50135
11
0.36838
21
0.505139
0
LINE
8
BLACK
6
CONTINUOUS
10
0.36838
20
0.505139
11
0.362628
21
0.507521
0
LINE
8
BLACK
6
CONTINUOUS
10
0.362628
20
0.507521
11
0.356457
21
0.508334
0
LINE
8
BLACK
6
CONTINUOUS
10
0.356457
20
0.508334
11
0.350285
21
0.507521
0
LINE
8
BLACK
6
CONTINUOUS
10
0.350285
20
0.507521
11
0.344534
21
0.505139
0
LINE
8
BLACK
6
CONTINUOUS
10
0.344534
20
0.505139
11
0.339595
21
0.50135
0
LINE
8
BLACK
6
CONTINUOUS
10
0.339595
20
0.50135
11
0.335806
21
0.496411
0
LINE
8
BLACK
6
CONTINUOUS
10
0.335806
20
0.496411
11
0.333423
21
0.49066
0
LINE
8
BLACK
6
CONTINUOUS
10
0.333423
20
0.49066
11
0.33339
21
0.490407
0
LINE
8
BLACK
6
CONTINUOUS
10
0.33339
20
0.490407
11
0.33339
21
0.490406
0
LINE
8
BLACK
6
CONTINUOUS
10
0.33339
20
0.490406
11
0.332971
21
0.487225
0
LINE
8
BLACK
6
CONTINUOUS
10
0.332971
20
0.487225
11
0.331863
21
0.484977
0
LINE
8
BLACK
6
CONTINUOUS
10
0.331863
20
0.484977
11
0.290764
21
0.443878
0
LINE
8
BLACK
6
CONTINUOUS
10
0.290764
20
0.443878
11
0.288617
21
0.442784
0
LINE
8
BLACK
6
CONTINUOUS
10
0.288617
20
0.442784
11
0.288007
21
0.442736
0
LINE
8
BLACK
6
CONTINUOUS
10
0.288007
20
0.442736
11
0.107972
21
0.442736
0
LINE
8
BLACK
6
CONTINUOUS
10
0.107972
20
0.442736
11
0.105681
21
0.443481
0
LINE
8
BLACK
6
CONTINUOUS
10
0.105681
20
0.443481
11
0.104266
21
0.445429
0
LINE
8
BLACK
6
CONTINUOUS
10
0.104266
20
0.445429
11
0.104075
21
0.446634
0
LINE
8
BLACK
6
CONTINUOUS
10
0.104075
20
0.446634
11
0.104075
21
0.49247
0
LINE
8
BLACK
6
CONTINUOUS
10
0.104075
20
0.49247
11
0.10488
21
0.494842
0
LINE
8
BLACK
6
CONTINUOUS
10
0.10488
20
0.494842
11
0.107267
21
0.497953
0
LINE
8
BLACK
6
CONTINUOUS
10
0.107267
20
0.497953
11
0.107423
21
0.498156
0
LINE
8
BLACK
6
CONTINUOUS
10
0.107423
20
0.498156
11
0.109805
21
0.503907
0
LINE
8
BLACK
6
CONTINUOUS
10
0.109805
20
0.503907
11
0.110617
21
0.510079
0
LINE
8
BLACK
6
CONTINUOUS
10
0.110617
20
0.510079
11
0.109805
21
0.51625
0
LINE
8
BLACK
6
CONTINUOUS
10
0.109805
20
0.51625
11
0.107423
21
0.522002
0
LINE
8
BLACK
6
CONTINUOUS
10
0.107423
20
0.522002
11
0.103633
21
0.52694
0
LINE
8
BLACK
6
CONTINUOUS
10
0.103633
20
0.52694
11
0.0986945
21
0.53073
0
LINE
8
BLACK
6
CONTINUOUS
10
0.0986945
20
0.53073
11
0.0929434
21
0.533112
0
LINE
8
BLACK
6
CONTINUOUS
10
0.0929434
20
0.533112
11
0.0867717
21
0.533924
0
LINE
8
BLACK
6
CONTINUOUS
10
0.0867717
20
0.533924
11
0.0805999
21
0.533112
0
LINE
8
BLACK
6
CONTINUOUS
10
0.0805999
20
0.533112
11
0.0748488
21
0.53073
0
LINE
8
BLACK
6
CONTINUOUS
10
0.0748488
20
0.53073
11
0.0699102
21
0.52694
0
LINE
8
BLACK
6
CONTINUOUS
10
0.0699102
20
0.52694
11
0.0661206
21
0.522002
0
LINE
8
BLACK
6
CONTINUOUS
10
0.0661206
20
0.522002
11
0.0637384
21
0.51625
0
LINE
8
BLACK
6
CONTINUOUS
10
0.0637384
20
0.51625
11
0.0629259
21
0.510079
0
LINE
8
BLACK
6
CONTINUOUS
10
0.0629259
20
0.510079
11
0.0637384
21
0.503907
0
LINE
8
BLACK
6
CONTINUOUS
10
0.0637384
20
0.503907
11
0.0661206
21
0.498156
0
LINE
8
BLACK
6
CONTINUOUS
10
0.0661206
20
0.498156
11
0.0662762
21
0.497953
0
LINE
8
BLACK
6
CONTINUOUS
10
0.0662762
20
0.497953
11
0.0677969
21
0.495971
0
LINE
8
BLACK
6
CONTINUOUS
10
0.0677969
20
0.495971
11
0.0686024
21
0.493599
0
LINE
8
BLACK
6
CONTINUOUS
10
0.0686024
20
0.493599
11
0.0686024
21
0.446634
0
LINE
8
BLACK
6
CONTINUOUS
10
0.0686024
20
0.446634
11
0.067858
21
0.444343
0
LINE
8
BLACK
6
CONTINUOUS
10
0.067858
20
0.444343
11
0.0659092
21
0.442927
0
LINE
8
BLACK
6
CONTINUOUS
10
0.0659092
20
0.442927
11
0.0647047
21
0.442736
0
LINE
8
BLACK
6
CONTINUOUS
10
0.0647047
20
0.442736
11
-0.252338
21
0.442736
0
LINE
8
BLACK
6
CONTINUOUS
10
-0.252338
20
0.442736
11
-0.254629
21
0.443481
0
LINE
8
BLACK
6
CONTINUOUS
10
-0.254629
20
0.443481
11
-0.25543
21
0.444261
0
LINE
8
BLACK
6
CONTINUOUS
10
-0.25543
20
0.444261
11
-0.256605
21
0.445792
0
LINE
8
BLACK
6
CONTINUOUS
10
-0.256605
20
0.445792
11
-0.256761
21
0.445995
0
LINE
8
BLACK
6
CONTINUOUS
10
-0.256761
20
0.445995
11
-0.261699
21
0.449785
0
LINE
8
BLACK
6
CONTINUOUS
10
-0.261699
20
0.449785
11
-0.26745
21
0.452167
0
LINE
8
BLACK
6
CONTINUOUS
10
-0.26745
20
0.452167
11
-0.273622
21
0.45298
0
LINE
8
BLACK
6
CONTINUOUS
10
-0.273622
20
0.45298
11
-0.279794
21
0.452167
0
LINE
8
BLACK
6
CONTINUOUS
10
-0.279794
20
0.452167
11
-0.285545
21
0.449785
0
LINE
8
BLACK
6
CONTINUOUS
10
-0.285545
20
0.449785
11
-0.290484
21
0.445995
0
LINE
8
BLACK
6
CONTINUOUS
10
-0.290484
20
0.445995
11
-0.294273
21
0.441057
0
LINE
8
BLACK
6
CONTINUOUS
10
-0.294273
20
0.441057
11
-0.296655
21
0.435306
0
LINE
8
BLACK
6
CONTINUOUS
10
-0.296655
20
0.435306
11
-0.297468
21
0.429134
0
LINE
8
BLACK
6
CONTINUOUS
10
-0.297468
20
0.429134
11
-0.296655
21
0.422962
0
LINE
8
BLACK
6
CONTINUOUS
10
-0.296655
20
0.422962
11
-0.294273
21
0.417211
0
LINE
8
BLACK
6
CONTINUOUS
10
-0.524588
20
0.393589
11
-0.520799
21
0.38865
0
LINE
8
BLACK
6
CONTINUOUS
10
-0.520799
20
0.38865
11
-0.51586
21
0.384861
0
LINE
8
BLACK
6
CONTINUOUS
10
-0.51586
20
0.384861
11
-0.510109
21
0.382479
0
LINE
8
BLACK
6
CONTINUOUS
10
-0.510109
20
0.382479
11
-0.506673
21
0.382026
0
LINE
8
BLACK
6
CONTINUOUS
10
-0.506673
20
0.382026
11
-0.504426
21
0.380918
0
LINE
8
BLACK
6
CONTINUOUS
10
-0.504426
20
0.380918
11
-0.394862
21
0.271354
0
LINE
8
BLACK
6
CONTINUOUS
10
-0.394862
20
0.271354
11
-0.393768
21
0.269208
0
LINE
8
BLACK
6
CONTINUOUS
10
-0.393768
20
0.269208
11
-0.39372
21
0.268598
0
LINE
8
BLACK
6
CONTINUOUS
10
-0.39372
20
0.268598
11
-0.39372
21
0.0623202
0
LINE
8
BLACK
6
CONTINUOUS
10
-0.39372
20
0.0623202
11
-0.394526
21
0.0599475
0
LINE
8
BLACK
6
CONTINUOUS
10
-0.394526
20
0.0599475
11
-0.396635
21
0.0571985
0
LINE
8
BLACK
6
CONTINUOUS
10
-0.396635
20
0.0571985
11
-0.399017
21
0.0514473
0
LINE
8
BLACK
6
CONTINUOUS
10
-0.399017
20
0.0514473
11
-0.39983
21
0.0452756
0
LINE
8
BLACK
6
CONTINUOUS
10
-0.39983
20
0.0452756
11
-0.399017
21
0.0391039
0
LINE
8
BLACK
6
CONTINUOUS
10
-0.399017
20
0.0391039
11
-0.396635
21
0.0333527
0
LINE
8
BLACK
6
CONTINUOUS
10
-0.396635
20
0.0333527
11
-0.392846
21
0.0284141
0
LINE
8
BLACK
6
CONTINUOUS
10
-0.392846
20
0.0284141
11
-0.387907
21
0.0246246
0
LINE
8
BLACK
6
CONTINUOUS
10
-0.387907
20
0.0246246
11
-0.382156
21
0.0222424
0
LINE
8
BLACK
6
CONTINUOUS
10
-0.382156
20
0.0222424
11
-0.375984
21
0.0214298
0
LINE
8
BLACK
6
CONTINUOUS
10
-0.375984
20
0.0214298
11
-0.369813
21
0.0222424
0
LINE
8
BLACK
6
CONTINUOUS
10
-0.369813
20
0.0222424
11
-0.364061
21
0.0246246
0
LINE
8
BLACK
6
CONTINUOUS
10
-0.364061
20
0.0246246
11
-0.359123
21
0.0284141
0
LINE
8
BLACK
6
CONTINUOUS
10
-0.359123
20
0.0284141
11
-0.355333
21
0.0333527
0
LINE
8
BLACK
6
CONTINUOUS
10
-0.355333
20
0.0333527
11
-0.352951
21
0.0391039
0
LINE
8
BLACK
6
CONTINUOUS
10
-0.352951
20
0.0391039
11
-0.352139
21
0.0452756
0
LINE
8
BLACK
6
CONTINUOUS
10
-0.352139
20
0.0452756
11
-0.352951
21
0.0514473
0
LINE
8
BLACK
6
CONTINUOUS
10
-0.352951
20
0.0514473
11
-0.355333
21
0.0571985
0
LINE
8
BLACK
6
CONTINUOUS
10
-0.355333
20
0.0571985
11
-0.357443
21
0.0599475
0
LINE
8
BLACK
6
CONTINUOUS
10
-0.357443
20
0.0599475
11
-0.358248
21
0.0623202
0
LINE
8
BLACK
6
CONTINUOUS
10
-0.358248
20
0.0623202
11
-0.358248
21
0.25813
0
LINE
8
BLACK
6
CONTINUOUS
10
-0.358248
20
0.25813
11
-0.357504
21
0.260421
0
LINE
8
BLACK
6
CONTINUOUS
10
-0.357504
20
0.260421
11
-0.355555
21
0.261837
0
LINE
8
BLACK
6
CONTINUOUS
10
-0.355555
20
0.261837
11
-0.35435
21
0.262028
0
LINE
8
BLACK
6
CONTINUOUS
10
-0.35435
20
0.262028
11
-0.24968
21
0.262028
0
LINE
8
BLACK
6
CONTINUOUS
10
-0.24968
20
0.262028
11
-0.247389
21
0.261283
0
LINE
8
BLACK
6
CONTINUOUS
10
-0.247389
20
0.261283
11
-0.247093
21
0.261031
0
LINE
8
BLACK
6
CONTINUOUS
10
-0.247093
20
0.261031
11
-0.247019
21
0.260934
0
LINE
8
BLACK
6
CONTINUOUS
10
-0.247019
20
0.260934
11
-0.24208
21
0.257144
0
LINE
8
BLACK
6
CONTINUOUS
10
-0.24208
20
0.257144
11
-0.236329
21
0.254762
0
LINE
8
BLACK
6
CONTINUOUS
10
-0.236329
20
0.254762
11
-0.230157
21
0.25395
0
LINE
8
BLACK
6
CONTINUOUS
10
-0.230157
20
0.25395
11
-0.223986
21
0.254762
0
LINE
8
BLACK
6
CONTINUOUS
10
-0.223986
20
0.254762
11
-0.218235
21
0.257144
0
LINE
8
BLACK
6
CONTINUOUS
10
-0.218235
20
0.257144
11
-0.213296
21
0.260934
0
LINE
8
BLACK
6
CONTINUOUS
10
-0.213296
20
0.260934
11
-0.209506
21
0.265872
0
LINE
8
BLACK
6
CONTINUOUS
10
-0.209506
20
0.265872
11
-0.207124
21
0.271624
0
LINE
8
BLACK
6
CONTINUOUS
10
-0.207124
20
0.271624
11
-0.206312
21
0.277795
0
LINE
8
BLACK
6
CONTINUOUS
10
-0.206312
20
0.277795
11
-0.20683
21
0.281732
0
LINE
8
BLACK
6
CONTINUOUS
10
-0.20683
20
0.281732
11
-0.207124
21
0.283967
0
LINE
8
BLACK
6
CONTINUOUS
10
-0.207124
20
0.283967
11
-0.209506
21
0.289718
0
LINE
8
BLACK
6
CONTINUOUS
10
-0.209506
20
0.289718
11
-0.213296
21
0.294657
0
LINE
8
BLACK
6
CONTINUOUS
10
-0.213296
20
0.294657
11
-0.218235
21
0.298446
0
LINE
8
BLACK
6
CONTINUOUS
10
-0.218235
20
0.298446
11
-0.223986
21
0.300829
0
LINE
8
BLACK
6
CONTINUOUS
10
-0.223986
20
0.300829
11
-0.230157
21
0.301641
0
LINE
8
BLACK
6
CONTINUOUS
10
-0.230157
20
0.301641
11
-0.236329
21
0.300829
0
LINE
8
BLACK
6
CONTINUOUS
10
-0.236329
20
0.300829
11
-0.24208
21
0.298446
0
LINE
8
BLACK
6
CONTINUOUS
10
-0.24208
20
0.298446
11
-0.247019
21
0.294657
0
LINE
8
BLACK
6
CONTINUOUS
10
-0.247019
20
0.294657
11
-0.24702
21
0.294656
0
LINE
8
BLACK
6
CONTINUOUS
10
-0.24702
20
0.294656
11
-0.24907
21
0.293611
0
LINE
8
BLACK
6
CONTINUOUS
10
-0.24907
20
0.293611
11
-0.24968
21
0.293563
0
LINE
8
BLACK
6
CONTINUOUS
10
-0.24968
20
0.293563
11
-0.365291
21
0.293563
0
LINE
8
BLACK
6
CONTINUOUS
10
-0.365291
20
0.293563
11
-0.367582
21
0.294307
0
LINE
8
BLACK
6
CONTINUOUS
10
-0.367582
20
0.294307
11
-0.368047
21
0.294705
0
LINE
8
BLACK
6
CONTINUOUS
10
-0.368047
20
0.294705
11
-0.479343
21
0.406001
0
LINE
8
BLACK
6
CONTINUOUS
10
-0.479343
20
0.406001
11
-0.480452
21
0.408248
0
LINE
8
BLACK
6
CONTINUOUS
10
-0.480452
20
0.408248
11
-0.480482
21
0.408483
0
LINE
8
BLACK
6
CONTINUOUS
10
-0.480482
20
0.408483
11
-0.480904
21
0.411684
0
LINE
8
BLACK
6
CONTINUOUS
10
-0.480904
20
0.411684
11
-0.483286
21
0.417435
0
LINE
8
BLACK
6
CONTINUOUS
10
-0.483286
20
0.417435
11
-0.487076
21
0.422373
0
LINE
8
BLACK
6
CONTINUOUS
10
-0.487076
20
0.422373
11
-0.492014
21
0.426163
0
LINE
8
BLACK
6
CONTINUOUS
10
-0.492014
20
0.426163
11
-0.497765
21
0.428545
0
LINE
8
BLACK
6
CONTINUOUS
10
-0.497765
20
0.428545
11
-0.502238
21
0.429134
0
LINE
8
BLACK
6
CONTINUOUS
10
-0.502238
20
0.429134
11
-0.503937
21
0.429358
0
LINE
8
BLACK
6
CONTINUOUS
10
-0.503937
20
0.429358
11
-0.510109
21
0.428545
0
LINE
8
BLACK
6
CONTINUOUS
10
-0.510109
20
0.428545
11
-0.51586
21
0.426163
0
LINE
8
BLACK
6
CONTINUOUS
10
-0.51586
20
0.426163
11
-0.520799
21
0.422373
0
LINE
8
BLACK
6
CONTINUOUS
10
-0.520799
20
0.422373
11
-0.524588
21
0.417435
0
LINE
8
BLACK
6
CONTINUOUS
10
-0.524588
20
0.417435
11
-0.52697
21
0.411684
0
LINE
8
BLACK
6
CONTINUOUS
10
-0.52697
20
0.411684
11
-0.527452
21
0.408026
0
LINE
8
BLACK
6
CONTINUOUS
10
-0.527452
20
0.408026
11
-0.527718
21
0.406001
0
LINE
8
BLACK
6
CONTINUOUS
10
-0.527718
20
0.406001
11
-0.527783
21
0.405512
0
LINE
8
BLACK
6
CONTINUOUS
10
-0.527783
20
0.405512
11
-0.52697
21
0.39934
0
LINE
8
BLACK
6
CONTINUOUS
10
-0.52697
20
0.39934
11
-0.524588
21
0.393589
0
LINE
8
BLACK
6
CONTINUOUS
10
-0.30726
20
-0.0907435
11
-0.305023
21
-0.0951336
0
LINE
8
BLACK
6
CONTINUOUS
10
-0.305023
20
-0.0951336
11
-0.304252
21
-0.1
0
LINE
8
BLACK
6
CONTINUOUS
10
-0.304252
20
-0.1
11
-0.305023
21
-0.104866
0
LINE
8
BLACK
6
CONTINUOUS
10
-0.305023
20
-0.104866
11
-0.30726
21
-0.109256
0
LINE
8
BLACK
6
CONTINUOUS
10
-0.30726
20
-0.109256
11
-0.310744
21
-0.11274
0
LINE
8
BLACK
6
CONTINUOUS
10
-0.310744
20
-0.11274
11
-0.315134
21
-0.114977
0
LINE
8
BLACK
6
CONTINUOUS
10
-0.315134
20
-0.114977
11
-0.32
21
-0.115748
0
LINE
8
BLACK
6
CONTINUOUS
10
-0.32
20
-0.115748
11
-0.324866
21
-0.114977
0
LINE
8
BLACK
6
CONTINUOUS
10
-0.324866
20
-0.114977
11
-0.329256
21
-0.11274
0
LINE
8
BLACK
6
CONTINUOUS
10
-0.329256
20
-0.11274
11
-0.33274
21
-0.109256
0
LINE
8
BLACK
6
CONTINUOUS
10
-0.33274
20
-0.109256
11
-0.334977
21
-0.104866
0
LINE
8
BLACK
6
CONTINUOUS
10
-0.334977
20
-0.104866
11
-0.335748
21
-0.1
0
LINE
8
BLACK
6
CONTINUOUS
10
-0.335748
20
-0.1
11
-0.334977
21
-0.0951336
0
LINE
8
BLACK
6
CONTINUOUS
10
-0.334977
20
-0.0951336
11
-0.33274
21
-0.0907435
0
LINE
8
BLACK
6
CONTINUOUS
10
-0.33274
20
-0.0907435
11
-0.329843
21
-0.0878456
0
LINE
8
BLACK
6
CONTINUOUS
10
-0.329843
20
-0.0878456
11
-0.329843
21
0.16796
0
LINE
8
BLACK
6
CONTINUOUS
10
-0.329843
20
0.16796
11
-0.33274
21
0.170858
0
LINE
8
BLACK
6
CONTINUOUS
10
-0.33274
20
0.170858
11
-0.334977
21
0.175248
0
LINE
8
BLACK
6
CONTINUOUS
10
-0.334977
20
0.175248
11
-0.335748
21
0.180114
0
LINE
8
BLACK
6
CONTINUOUS
10
-0.335748
20
0.180114
11
-0.334977
21
0.184981
0
LINE
8
BLACK
6
CONTINUOUS
10
-0.334977
20
0.184981
11
-0.33274
21
0.189371
0
LINE
8
BLACK
6
CONTINUOUS
10
-0.33274
20
0.189371
11
-0.329256
21
0.192855
0
LINE
8
BLACK
6
CONTINUOUS
10
-0.329256
20
0.192855
11
-0.324866
21
0.195092
0
LINE
8
BLACK
6
CONTINUOUS
10
-0.324866
20
0.195092
11
-0.32
21
0.195862
0
LINE
8
BLACK
6
CONTINUOUS
10
-0.32
20
0.195862
11
-0.315134
21
0.195092
0
LINE
8
BLACK
6
CONTINUOUS
10
-0.315134
20
0.195092
11
-0.310744
21
0.192855
0
LINE
8
BLACK
6
CONTINUOUS
10
-0.310744
20
0.192855
11
-0.30726
21
0.189371
0
LINE
8
BLACK
6
CONTINUOUS
10
-0.30726
20
0.189371
11
-0.305023
21
0.184981
0
LINE
8
BLACK
6
CONTINUOUS
10
-0.305023
20
0.184981
11
-0.304252
21
0.180114
0
LINE
8
BLACK
6
CONTINUOUS
10
-0.304252
20
0.180114
11
-0.305023
21
0.175248
0
LINE
8
BLACK
6
CONTINUOUS
10
-0.305023
20
0.175248
11
-0.30726
21
0.170858
0
LINE
8
BLACK
6
CONTINUOUS
10
-0.30726
20
0.170858
11
-0.310157
21
0.16796
0
LINE
8
BLACK
6
CONTINUOUS
10
-0.310157
20
0.16796
11
-0.310157
21
-0.0878456
0
LINE
8
BLACK
6
CONTINUOUS
10
-0.310157
20
-0.0878456
11
-0.30726
21
-0.0907435
0
LINE
8
BLACK
6
CONTINUOUS
10
0.488465
20
0.0466498
11
0.421535
21
0.0466498
0
LINE
8
BLACK
6
CONTINUOUS
10
0.421535
20
0.0466498
11
0.421535
21
0.113579
0
LINE
8
BLACK
6
CONTINUOUS
10
0.421535
20
0.113579
11
0.488465
21
0.113579
0
LINE
8
BLACK
6
CONTINUOUS
10
0.488465
20
0.113579
11
0.488465
21
0.0466498
0
LINE
8
BLACK
6
CONTINUOUS
10
0.465341
20
0.211941
11
0.471732
21
0.209096
0
LINE
8
BLACK
6
CONTINUOUS
10
0.471732
20
0.209096
11
0.477392
21
0.204983
0
LINE
8
BLACK
6
CONTINUOUS
10
0.477392
20
0.204983
11
0.482073
21
0.199784
0
LINE
8
BLACK
6
CONTINUOUS
10
0.482073
20
0.199784
11
0.485571
21
0.193726
0
LINE
8
BLACK
6
CONTINUOUS
10
0.485571
20
0.193726
11
0.487733
21
0.187072
0
LINE
8
BLACK
6
CONTINUOUS
10
0.487733
20
0.187072
11
0.488465
21
0.180114
0
LINE
8
BLACK
6
CONTINUOUS
10
0.488465
20
0.180114
11
0.487733
21
0.173157
0
LINE
8
BLACK
6
CONTINUOUS
10
0.487733
20
0.173157
11
0.485571
21
0.166503
0
LINE
8
BLACK
6
CONTINUOUS
10
0.485571
20
0.166503
11
0.482073
21
0.160444
0
LINE
8
BLACK
6
CONTINUOUS
10
0.482073
20
0.160444
11
0.477392
21
0.155245
0
LINE
8
BLACK
6
CONTINUOUS
10
0.477392
20
0.155245
11
0.471732
21
0.151133
0
LINE
8
BLACK
6
CONTINUOUS
10
0.471732
20
0.151133
11
0.465341
21
0.148288
0
LINE
8
BLACK
6
CONTINUOUS
10
0.465341
20
0.148288
11
0.458498
21
0.146833
0
LINE
8
BLACK
6
CONTINUOUS
10
0.458498
20
0.146833
11
0.451502
21
0.146833
0
LINE
8
BLACK
6
CONTINUOUS
10
0.451502
20
0.146833
11
0.444659
21
0.148288
0
LINE
8
BLACK
6
CONTINUOUS
10
0.444659
20
0.148288
11
0.438268
21
0.151133
0
LINE
8
BLACK
6
CONTINUOUS
10
0.438268
20
0.151133
11
0.432608
21
0.155245
0
LINE
8
BLACK
6
CONTINUOUS
10
0.432608
20
0.155245
11
0.427927
21
0.160444
0
LINE
8
BLACK
6
CONTINUOUS
10
0.427927
20
0.160444
11
0.424429
21
0.166503
0
LINE
8
BLACK
6
CONTINUOUS
10
0.424429
20
0.166503
11
0.422267
21
0.173157
0
LINE
8
BLACK
6
CONTINUOUS
10
0.422267
20
0.173157
11
0.421535
21
0.180114
0
LINE
8
BLACK
6
CONTINUOUS
10
0.421535
20
0.180114
11
0.422267
21
0.187072
0
LINE
8
BLACK
6
CONTINUOUS
10
0.422267
20
0.187072
11
0.424429
21
0.193726
0
LINE
8
BLACK
6
CONTINUOUS
10
0.424429
20
0.193726
11
0.427927
21
0.199784
0
LINE
8
BLACK
6
CONTINUOUS
10
0.427927
20
0.199784
11
0.432608
21
0.204983
0
LINE
8
BLACK
6
CONTINUOUS
10
0.432608
20
0.204983
11
0.438268
21
0.209096
0
LINE
8
BLACK
6
CONTINUOUS
10
0.438268
20
0.209096
11
0.444659
21
0.211941
0
LINE
8
BLACK
6
CONTINUOUS
10
0.444659
20
0.211941
11
0.451502
21
0.213396
0
LINE
8
BLACK
6
CONTINUOUS
10
0.451502
20
0.213396
11
0.458498
21
0.213396
0
LINE
8
BLACK
6
CONTINUOUS
10
0.458498
20
0.213396
11
0.465341
21
0.211941
0
LINE
8
BLACK
6
CONTINUOUS
10
-0.0422202
20
0.29671
11
-0.0378302
21
0.294473
0
LINE
8
BLACK
6
CONTINUOUS
10
-0.0378302
20
0.294473
11
-0.0343462
21
0.290989
0
LINE
8
BLACK
6
CONTINUOUS
10
-0.0343462
20
0.290989
11
-0.0321093
21
0.286599
0
LINE
8
BLACK
6
CONTINUOUS
10
-0.0321093
20
0.286599
11
-0.0313386
21
0.281732
0
LINE
8
BLACK
6
CONTINUOUS
10
-0.0313386
20
0.281732
11
-0.0321093
21
0.276866
0
LINE
8
BLACK
6
CONTINUOUS
10
-0.0321093
20
0.276866
11
-0.0343462
21
0.272476
0
LINE
8
BLACK
6
CONTINUOUS
10
-0.0343462
20
0.272476
11
-0.0378302
21
0.268992
0
LINE
8
BLACK
6
CONTINUOUS
10
-0.0378302
20
0.268992
11
-0.0401575
21
0.267806
0
LINE
8
BLACK
6
CONTINUOUS
10
-0.0401575
20
0.267806
11
-0.0401575
21
0.154077
0
LINE
8
BLACK
6
CONTINUOUS
10
-0.0401575
20
0.154077
11
0.0942344
21
0.019685
0
LINE
8
BLACK
6
CONTINUOUS
10
0.0942344
20
0.019685
11
0.261468
21
0.019685
0
LINE
8
BLACK
6
CONTINUOUS
10
0.261468
20
0.019685
11
0.264366
21
0.022583
0
LINE
8
BLACK
6
CONTINUOUS
10
0.264366
20
0.022583
11
0.268756
21
0.0248198
0
LINE
8
BLACK
6
CONTINUOUS
10
0.268756
20
0.0248198
11
0.273622
21
0.0255906
0
LINE
8
BLACK
6
CONTINUOUS
10
0.273622
20
0.0255906
11
0.278488
21
0.0248198
0
LINE
8
BLACK
6
CONTINUOUS
10
0.278488
20
0.0248198
11
0.282879
21
0.022583
0
LINE
8
BLACK
6
CONTINUOUS
10
0.282879
20
0.022583
11
0.286362
21
0.019099
0
LINE
8
BLACK
6
CONTINUOUS
10
0.286362
20
0.019099
11
0.287067
21
0.0177165
0
LINE
8
BLACK
6
CONTINUOUS
10
0.287067
20
0.0177165
11
0.309069
21
0.0177165
0
LINE
8
BLACK
6
CONTINUOUS
10
0.309069
20
0.0177165
11
0.310351
21
0.0174218
0
LINE
8
BLACK
6
CONTINUOUS
10
0.310351
20
0.0174218
11
0.311658
21
0.017274
0
LINE
8
BLACK
6
CONTINUOUS
10
0.311658
20
0.017274
11
0.312041
21
0.0170331
0
LINE
8
BLACK
6
CONTINUOUS
10
0.312041
20
0.0170331
11
0.312482
21
0.0169317
0
LINE
8
BLACK
6
CONTINUOUS
10
0.312482
20
0.0169317
11
0.313509
21
0.01611
0
LINE
8
BLACK
6
CONTINUOUS
10
0.313509
20
0.01611
11
0.314623
21
0.0154103
0
LINE
8
BLACK
6
CONTINUOUS
10
0.314623
20
0.0154103
11
0.436963
21
-0.10693
0
LINE
8
BLACK
6
CONTINUOUS
10
0.436963
20
-0.10693
11
0.440945
21
-0.106299
0
LINE
8
BLACK
6
CONTINUOUS
10
0.440945
20
-0.106299
11
0.445811
21
-0.10707
0
LINE
8
BLACK
6
CONTINUOUS
10
0.445811
20
-0.10707
11
0.450201
21
-0.109307
0
LINE
8
BLACK
6
CONTINUOUS
10
0.450201
20
-0.109307
11
0.453685
21
-0.112791
0
LINE
8
BLACK
6
CONTINUOUS
10
0.453685
20
-0.112791
11
0.455922
21
-0.117181
0
LINE
8
BLACK
6
CONTINUOUS
10
0.455922
20
-0.117181
11
0.456693
21
-0.122047
0
LINE
8
BLACK
6
CONTINUOUS
10
0.456693
20
-0.122047
11
0.455922
21
-0.126914
0
LINE
8
BLACK
6
CONTINUOUS
10
0.455922
20
-0.126914
11
0.453685
21
-0.131304
0
LINE
8
BLACK
6
CONTINUOUS
10
0.453685
20
-0.131304
11
0.450201
21
-0.134788
0
LINE
8
BLACK
6
CONTINUOUS
10
0.450201
20
-0.134788
11
0.445811
21
-0.137025
0
LINE
8
BLACK
6
CONTINUOUS
10
0.445811
20
-0.137025
11
0.440945
21
-0.137795
0
LINE
8
BLACK
6
CONTINUOUS
10
0.440945
20
-0.137795
11
0.436078
21
-0.137025
0
LINE
8
BLACK
6
CONTINUOUS
10
0.436078
20
-0.137025
11
0.431688
21
-0.134788
0
LINE
8
BLACK
6
CONTINUOUS
10
0.431688
20
-0.134788
11
0.428204
21
-0.131304
0
LINE
8
BLACK
6
CONTINUOUS
10
0.428204
20
-0.131304
11
0.425968
21
-0.126914
0
LINE
8
BLACK
6
CONTINUOUS
10
0.425968
20
-0.126914
11
0.425197
21
-0.122047
0
LINE
8
BLACK
6
CONTINUOUS
10
0.425197
20
-0.122047
11
0.425827
21
-0.118065
0
LINE
8
BLACK
6
CONTINUOUS
10
0.425827
20
-0.118065
11
0.305794
21
0.0019685
0
LINE
8
BLACK
6
CONTINUOUS
10
0.305794
20
0.0019685
11
0.287067
21
0.0019685
0
LINE
8
BLACK
6
CONTINUOUS
10
0.287067
20
0.0019685
11
0.286362
21
0.000586063
0
LINE
8
BLACK
6
CONTINUOUS
10
0.286362
20
0.000586063
11
0.282879
21
-0.00289791
0
LINE
8
BLACK
6
CONTINUOUS
10
0.282879
20
-0.00289791
11
0.278488
21
-0.00513476
0
LINE
8
BLACK
6
CONTINUOUS
10
0.278488
20
-0.00513476
11
0.273622
21
-0.00590551
0
LINE
8
BLACK
6
CONTINUOUS
10
0.273622
20
-0.00590551
11
0.268756
21
-0.00513476
0
LINE
8
BLACK
6
CONTINUOUS
10
0.268756
20
-0.00513476
11
0.264366
21
-0.00289791
0
LINE
8
BLACK
6
CONTINUOUS
10
0.264366
20
-0.00289791
11
0.261468
21
0
0
LINE
8
BLACK
6
CONTINUOUS
10
0.261468
20
0
11
0.0901575
21
0
0
LINE
8
BLACK
6
CONTINUOUS
10
0.0901575
20
0
11
0.0863909
21
0.000749213
0
LINE
8
BLACK
6
CONTINUOUS
10
0.0863909
20
0.000749213
11
0.0862283
21
0.000857874
0
LINE
8
BLACK
6
CONTINUOUS
10
0.0862283
20
0.000857874
11
0.0831978
21
0.0028828
0
LINE
8
BLACK
6
CONTINUOUS
10
0.0831978
20
0.0028828
11
0.0831977
21
0.00288291
0
LINE
8
BLACK
6
CONTINUOUS
10
0.0831977
20
0.00288291
11
-0.0569597
21
0.14304
0
LINE
8
BLACK
6
CONTINUOUS
10
-0.0569597
20
0.14304
11
-0.0590933
21
0.146233
0
LINE
8
BLACK
6
CONTINUOUS
10
-0.0590933
20
0.146233
11
-0.0598425
21
0.15
0
LINE
8
BLACK
6
CONTINUOUS
10
-0.0598425
20
0.15
11
-0.0598425
21
0.272506
0
LINE
8
BLACK
6
CONTINUOUS
10
-0.0598425
20
0.272506
11
-0.0620639
21
0.276866
0
LINE
8
BLACK
6
CONTINUOUS
10
-0.0620639
20
0.276866
11
-0.0628346
21
0.281732
0
LINE
8
BLACK
6
CONTINUOUS
10
-0.0628346
20
0.281732
11
-0.0620639
21
0.286599
0
LINE
8
BLACK
6
CONTINUOUS
10
-0.0620639
20
0.286599
11
-0.059827
21
0.290989
0
LINE
8
BLACK
6
CONTINUOUS
10
-0.059827
20
0.290989
11
-0.0563431
21
0.294473
0
LINE
8
BLACK
6
CONTINUOUS
10
-0.0563431
20
0.294473
11
-0.051953
21
0.29671
0
LINE
8
BLACK
6
CONTINUOUS
10
-0.051953
20
0.29671
11
-0.0470866
21
0.29748
0
LINE
8
BLACK
6
CONTINUOUS
10
-0.0470866
20
0.29748
11
-0.0422202
21
0.29671
0
LINE
8
BLACK
6
CONTINUOUS
10
0.340959
20
0.48291
11
0.340709
21
0.484488
0
LINE
8
BLACK
6
CONTINUOUS
10
0.340709
20
0.484488
11
0.341479
21
0.489355
0
LINE
8
BLACK
6
CONTINUOUS
10
0.341479
20
0.489355
11
0.343716
21
0.493745
0
LINE
8
BLACK
6
CONTINUOUS
10
0.343716
20
0.493745
11
0.3472
21
0.497229
0
LINE
8
BLACK
6
CONTINUOUS
10
0.3472
20
0.497229
11
0.35159
21
0.499465
0
LINE
8
BLACK
6
CONTINUOUS
10
0.35159
20
0.499465
11
0.356457
21
0.500236
0
LINE
8
BLACK
6
CONTINUOUS
10
0.356457
20
0.500236
11
0.361323
21
0.499465
0
LINE
8
BLACK
6
CONTINUOUS
10
0.361323
20
0.499465
11
0.365713
21
0.497229
0
LINE
8
BLACK
6
CONTINUOUS
10
0.365713
20
0.497229
11
0.369197
21
0.493745
0
LINE
8
BLACK
6
CONTINUOUS
10
0.369197
20
0.493745
11
0.371434
21
0.489355
0
LINE
8
BLACK
6
CONTINUOUS
10
0.371434
20
0.489355
11
0.372205
21
0.484488
0
LINE
8
BLACK
6
CONTINUOUS
10
0.372205
20
0.484488
11
0.371434
21
0.479622
0
LINE
8
BLACK
6
CONTINUOUS
10
0.371434
20
0.479622
11
0.369197
21
0.475232
0
LINE
8
BLACK
6
CONTINUOUS
10
0.369197
20
0.475232
11
0.365713
21
0.471748
0
LINE
8
BLACK
6
CONTINUOUS
10
0.365713
20
0.471748
11
0.361323
21
0.469511
0
LINE
8
BLACK
6
CONTINUOUS
10
0.361323
20
0.469511
11
0.356457
21
0.46874
0
LINE
8
BLACK
6
CONTINUOUS
10
0.356457
20
0.46874
11
0.354878
21
0.46899
0
LINE
8
BLACK
6
CONTINUOUS
10
0.354878
20
0.46899
11
0.303928
21
0.41804
0
LINE
8
BLACK
6
CONTINUOUS
10
0.303928
20
0.41804
11
0.303928
21
0.41804
0
LINE
8
BLACK
6
CONTINUOUS
10
0.303928
20
0.41804
11
0.300735
21
0.415907
0
LINE
8
BLACK
6
CONTINUOUS
10
0.300735
20
0.415907
11
0.296969
21
0.415157
0
LINE
8
BLACK
6
CONTINUOUS
10
0.296969
20
0.415157
11
-0.266791
21
0.415157
0
LINE
8
BLACK
6
CONTINUOUS
10
-0.266791
20
0.415157
11
-0.268756
21
0.414157
0
LINE
8
BLACK
6
CONTINUOUS
10
-0.268756
20
0.414157
11
-0.273622
21
0.413386
0
LINE
8
BLACK
6
CONTINUOUS
10
-0.273622
20
0.413386
11
-0.278488
21
0.414157
0
LINE
8
BLACK
6
CONTINUOUS
10
-0.278488
20
0.414157
11
-0.282879
21
0.416393
0
LINE
8
BLACK
6
CONTINUOUS
10
-0.282879
20
0.416393
11
-0.286362
21
0.419877
0
LINE
8
BLACK
6
CONTINUOUS
10
-0.286362
20
0.419877
11
-0.288599
21
0.424267
0
LINE
8
BLACK
6
CONTINUOUS
10
-0.288599
20
0.424267
11
-0.28937
21
0.429134
0
LINE
8
BLACK
6
CONTINUOUS
10
-0.28937
20
0.429134
11
-0.288599
21
0.434
0
LINE
8
BLACK
6
CONTINUOUS
10
-0.288599
20
0.434
11
-0.286362
21
0.43839
0
LINE
8
BLACK
6
CONTINUOUS
10
-0.286362
20
0.43839
11
-0.282879
21
0.441874
0
LINE
8
BLACK
6
CONTINUOUS
10
-0.282879
20
0.441874
11
-0.278488
21
0.444111
0
LINE
8
BLACK
6
CONTINUOUS
10
-0.278488
20
0.444111
11
-0.273622
21
0.444882
0
LINE
8
BLACK
6
CONTINUOUS
10
-0.273622
20
0.444882
11
-0.268756
21
0.444111
0
LINE
8
BLACK
6
CONTINUOUS
10
-0.268756
20
0.444111
11
-0.264366
21
0.441874
0
LINE
8
BLACK
6
CONTINUOUS
10
-0.264366
20
0.441874
11
-0.260882
21
0.43839
0
LINE
8
BLACK
6
CONTINUOUS
10
-0.260882
20
0.43839
11
-0.259074
21
0.434843
0
LINE
8
BLACK
6
CONTINUOUS
10
-0.259074
20
0.434843
11
0.0764961
21
0.434843
0
LINE
8
BLACK
6
CONTINUOUS
10
0.0764961
20
0.434843
11
0.0764961
21
0.498357
0
LINE
8
BLACK
6
CONTINUOUS
10
0.0764961
20
0.498357
11
0.0740312
21
0.500822
0
LINE
8
BLACK
6
CONTINUOUS
10
0.0740312
20
0.500822
11
0.0717944
21
0.505212
0
LINE
8
BLACK
6
CONTINUOUS
10
0.0717944
20
0.505212
11
0.0710236
21
0.510079
0
LINE
8
BLACK
6
CONTINUOUS
10
0.0710236
20
0.510079
11
0.0717944
21
0.514945
0
LINE
8
BLACK
6
CONTINUOUS
10
0.0717944
20
0.514945
11
0.0740312
21
0.519335
0
LINE
8
BLACK
6
CONTINUOUS
10
0.0740312
20
0.519335
11
0.0775152
21
0.522819
0
LINE
8
BLACK
6
CONTINUOUS
10
0.0775152
20
0.522819
11
0.0819052
21
0.525056
0
LINE
8
BLACK
6
CONTINUOUS
10
0.0819052
20
0.525056
11
0.0867717
21
0.525827
0
LINE
8
BLACK
6
CONTINUOUS
10
0.0867717
20
0.525827
11
0.0916381
21
0.525056
0
LINE
8
BLACK
6
CONTINUOUS
10
0.0916381
20
0.525056
11
0.0960281
21
0.522819
0
LINE
8
BLACK
6
CONTINUOUS
10
0.0960281
20
0.522819
11
0.0995121
21
0.519335
0
LINE
8
BLACK
6
CONTINUOUS
10
0.0995121
20
0.519335
11
0.101749
21
0.514945
0
LINE
8
BLACK
6
CONTINUOUS
10
0.101749
20
0.514945
11
0.10252
21
0.510079
0
LINE
8
BLACK
6
CONTINUOUS
10
0.10252
20
0.510079
11
0.101749
21
0.505212
0
LINE
8
BLACK
6
CONTINUOUS
10
0.101749
20
0.505212
11
0.0995121
21
0.500822
0
LINE
8
BLACK
6
CONTINUOUS
10
0.0995121
20
0.500822
11
0.0961811
21
0.497491
0
LINE
8
BLACK
6
CONTINUOUS
10
0.0961811
20
0.497491
11
0.0961811
21
0.434843
0
LINE
8
BLACK
6
CONTINUOUS
10
0.0961811
20
0.434843
11
0.292892
21
0.434843
0
LINE
8
BLACK
6
CONTINUOUS
10
0.292892
20
0.434843
11
0.340959
21
0.48291
0
LINE
8
BLACK
6
CONTINUOUS
10
-0.499071
20
0.420489
11
-0.494681
21
0.418252
0
LINE
8
BLACK
6
CONTINUOUS
10
-0.494681
20
0.418252
11
-0.491197
21
0.414768
0
LINE
8
BLACK
6
CONTINUOUS
10
-0.491197
20
0.414768
11
-0.48896
21
0.410378
0
LINE
8
BLACK
6
CONTINUOUS
10
-0.48896
20
0.410378
11
-0.488189
21
0.405512
0
LINE
8
BLACK
6
CONTINUOUS
10
-0.488189
20
0.405512
11
-0.488439
21
0.403933
0
LINE
8
BLACK
6
CONTINUOUS
10
-0.488439
20
0.403933
11
-0.370175
21
0.285669
0
LINE
8
BLACK
6
CONTINUOUS
10
-0.370175
20
0.285669
11
-0.243602
21
0.285669
0
LINE
8
BLACK
6
CONTINUOUS
10
-0.243602
20
0.285669
11
-0.242898
21
0.287052
0
LINE
8
BLACK
6
CONTINUOUS
10
-0.242898
20
0.287052
11
-0.239414
21
0.290536
0
LINE
8
BLACK
6
CONTINUOUS
10
-0.239414
20
0.290536
11
-0.235024
21
0.292773
0
LINE
8
BLACK
6
CONTINUOUS
10
-0.235024
20
0.292773
11
-0.230157
21
0.293543
0
LINE
8
BLACK
6
CONTINUOUS
10
-0.230157
20
0.293543
11
-0.225291
21
0.292773
0
LINE
8
BLACK
6
CONTINUOUS
10
-0.225291
20
0.292773
11
-0.220901
21
0.290536
0
LINE
8
BLACK
6
CONTINUOUS
10
-0.220901
20
0.290536
11
-0.217417
21
0.287052
0
LINE
8
BLACK
6
CONTINUOUS
10
-0.217417
20
0.287052
11
-0.21518
21
0.282662
0
LINE
8
BLACK
6
CONTINUOUS
10
-0.21518
20
0.282662
11
-0.214409
21
0.277795
0
LINE
8
BLACK
6
CONTINUOUS
10
-0.214409
20
0.277795
11
-0.21518
21
0.272929
0
LINE
8
BLACK
6
CONTINUOUS
10
-0.21518
20
0.272929
11
-0.217417
21
0.268539
0
LINE
8
BLACK
6
CONTINUOUS
10
-0.217417
20
0.268539
11
-0.220901
21
0.265055
0
LINE
8
BLACK
6
CONTINUOUS
10
-0.220901
20
0.265055
11
-0.225291
21
0.262818
0
LINE
8
BLACK
6
CONTINUOUS
10
-0.225291
20
0.262818
11
-0.230157
21
0.262047
0
LINE
8
BLACK
6
CONTINUOUS
10
-0.230157
20
0.262047
11
-0.235024
21
0.262818
0
LINE
8
BLACK
6
CONTINUOUS
10
-0.235024
20
0.262818
11
-0.239414
21
0.265055
0
LINE
8
BLACK
6
CONTINUOUS
10
-0.239414
20
0.265055
11
-0.242898
21
0.268539
0
LINE
8
BLACK
6
CONTINUOUS
10
-0.242898
20
0.268539
11
-0.243602
21
0.269921
0
LINE
8
BLACK
6
CONTINUOUS
10
-0.243602
20
0.269921
11
-0.366142
21
0.269921
0
LINE
8
BLACK
6
CONTINUOUS
10
-0.366142
20
0.269921
11
-0.366142
21
0.05743
0
LINE
8
BLACK
6
CONTINUOUS
10
-0.366142
20
0.05743
11
-0.363244
21
0.054532
0
LINE
8
BLACK
6
CONTINUOUS
10
-0.363244
20
0.054532
11
-0.361007
21
0.050142
0
LINE
8
BLACK
6
CONTINUOUS
10
-0.361007
20
0.050142
11
-0.360236
21
0.0452756
0
LINE
8
BLACK
6
CONTINUOUS
10
-0.360236
20
0.0452756
11
-0.361007
21
0.0404092
0
LINE
8
BLACK
6
CONTINUOUS
10
-0.361007
20
0.0404092
11
-0.363244
21
0.0360191
0
LINE
8
BLACK
6
CONTINUOUS
10
-0.363244
20
0.0360191
11
-0.366728
21
0.0325352
0
LINE
8
BLACK
6
CONTINUOUS
10
-0.366728
20
0.0325352
11
-0.371118
21
0.0302983
0
LINE
8
BLACK
6
CONTINUOUS
10
-0.371118
20
0.0302983
11
-0.375984
21
0.0295276
0
LINE
8
BLACK
6
CONTINUOUS
10
-0.375984
20
0.0295276
11
-0.380851
21
0.0302983
0
LINE
8
BLACK
6
CONTINUOUS
10
-0.380851
20
0.0302983
11
-0.385241
21
0.0325352
0
LINE
8
BLACK
6
CONTINUOUS
10
-0.385241
20
0.0325352
11
-0.388725
21
0.0360191
0
LINE
8
BLACK
6
CONTINUOUS
10
-0.388725
20
0.0360191
11
-0.390962
21
0.0404092
0
LINE
8
BLACK
6
CONTINUOUS
10
-0.390962
20
0.0404092
11
-0.391732
21
0.0452756
0
LINE
8
BLACK
6
CONTINUOUS
10
-0.391732
20
0.0452756
11
-0.390962
21
0.050142
0
LINE
8
BLACK
6
CONTINUOUS
10
-0.390962
20
0.050142
11
-0.388725
21
0.054532
0
LINE
8
BLACK
6
CONTINUOUS
10
-0.388725
20
0.054532
11
-0.385827
21
0.05743
0
LINE
8
BLACK
6
CONTINUOUS
10
-0.385827
20
0.05743
11
-0.385827
21
0.273482
0
LINE
8
BLACK
6
CONTINUOUS
10
-0.385827
20
0.273482
11
-0.502358
21
0.390014
0
LINE
8
BLACK
6
CONTINUOUS
10
-0.502358
20
0.390014
11
-0.503937
21
0.389764
0
LINE
8
BLACK
6
CONTINUOUS
10
-0.503937
20
0.389764
11
-0.508803
21
0.390535
0
LINE
8
BLACK
6
CONTINUOUS
10
-0.508803
20
0.390535
11
-0.513193
21
0.392771
0
LINE
8
BLACK
6
CONTINUOUS
10
-0.513193
20
0.392771
11
-0.516677
21
0.396255
0
LINE
8
BLACK
6
CONTINUOUS
10
-0.516677
20
0.396255
11
-0.518914
21
0.400645
0
LINE
8
BLACK
6
CONTINUOUS
10
-0.518914
20
0.400645
11
-0.519685
21
0.405512
0
LINE
8
BLACK
6
CONTINUOUS
10
-0.519685
20
0.405512
11
-0.518914
21
0.410378
0
LINE
8
BLACK
6
CONTINUOUS
10
-0.518914
20
0.410378
11
-0.516677
21
0.414768
0
LINE
8
BLACK
6
CONTINUOUS
10
-0.516677
20
0.414768
11
-0.513193
21
0.418252
0
LINE
8
BLACK
6
CONTINUOUS
10
-0.513193
20
0.418252
11
-0.508803
21
0.420489
0
LINE
8
BLACK
6
CONTINUOUS
10
-0.508803
20
0.420489
11
-0.503937
21
0.42126
0
LINE
8
BLACK
6
CONTINUOUS
10
-0.503937
20
0.42126
11
-0.499071
21
0.420489
0
CIRCLE
8
BLACK
10
0.192913
20
0.525591
40
0.00787402
0
CIRCLE
8
BLACK
10
-0.45
20
0.240114
40
0.00787402
0
CIRCLE
8
BLACK
10
-0.45
20
0.180114
40
0.00787402
0
CIRCLE
8
BLACK
10
-0.45
20
0.120114
40
0.00787402
0
CIRCLE
8
BLACK
10
0.6
20
-0.08
40
0.00787402
0
CIRCLE
8
BLACK
10
-0.25
20
0.33
40
0.00787402
0
CIRCLE
8
BLACK
10
-0.45
20
-0.149886
40
0.00787402
0
CIRCLE
8
BLACK
10
-0.35
20
-0.15
40
0.00787402
0
CIRCLE
8
BLACK
10
-0.57
20
0.310114
40
0.00787402
0
CIRCLE
8
BLACK
10
-0.57
20
-0.0698857
40
0.00787402
0
CIRCLE
8
BLACK
10
-0.57
20
0.0501143
40
0.00787402
0
CIRCLE
8
BLACK
10
-0.57
20
-0.0298857
40
0.00787402
0
CIRCLE
8
BLACK
10
-0.57
20
0.430114
40
0.00787402
0
CIRCLE
8
BLACK
10
-0.57
20
0.0101143
40
0.00787402
0
CIRCLE
8
BLACK
10
-0.57
20
0.390114
40
0.00787402
0
CIRCLE
8
BLACK
10
-0.57
20
0.350114
40
0.00787402
0
CIRCLE
8
BLACK
10
-0.38
20
0.515
40
0.00787402
0
CIRCLE
8
BLACK
10
0.433071
20
0.011811
40
0.00787402
0
CIRCLE
8
BLACK
10
0.503937
20
0.318898
40
0.00787402
0
CIRCLE
8
BLACK
10
0.64
20
0.06
40
0.00787402
0
CIRCLE
8
BLACK
10
0.67
20
-0.07
40
0.00787402
0
CIRCLE
8
BLACK
10
0.64
20
0.01
40
0.00787402
0
CIRCLE
8
BLACK
10
0.645
20
0.505
40
0.00787402
0
CIRCLE
8
BLACK
10
0.14
20
0.33
40
0.00787402
0
CIRCLE
8
BLACK
10
0.305
20
0.34
40
0.00787402
0
CIRCLE
8
BLACK
10
0.67
20
-0.15
40
0.00787402
0
CIRCLE
8
BLACK
10
0.67
20
-0.11
40
0.00787402
0
CIRCLE
8
BLACK
10
0.35
20
0.32
40
0.00787402
0
CIRCLE
8
BLACK
10
0.385
20
0.28
40
0.00787402
0
CIRCLE
8
BLACK
10
0.4
20
0.235
40
0.00787402
0
CIRCLE
8
BLACK
10
0.64
20
0.110114
40
0.00787402
0
CIRCLE
8
BLACK
10
0.645
20
0.46
40
0.00787402
0
CIRCLE
8
BLACK
10
0.354331
20
-0.11811
40
0.00787402
0
CIRCLE
8
BLACK
10
0.56
20
0
40
0.00787402
0
CIRCLE
8
BLACK
10
-0.27
20
0.16
40
0.00787402
0
CIRCLE
8
BLACK
10
0.6
20
-0.04
40
0.00787402
0
CIRCLE
8
BLACK
10
-0.00393701
20
0.0374016
40
0.00787402
0
CIRCLE
8
BLACK
10
-0.27
20
0.23
40
0.00787402
0
CIRCLE
8
BLACK
10
0.348425
20
0.0866142
40
0.00787402
0
CIRCLE
8
BLACK
10
-0.263
20
0.515
40
0.00787402
0
CIRCLE
8
BLACK
10
0.35
20
0.03
40
0.00787402
0
CIRCLE
8
BLACK
10
-0.503937
20
0.454724
40
0.00787402
0
CIRCLE
8
BLACK
10
-0.43
20
0.515
40
0.00787402
0
CIRCLE
8
BLACK
10
-0.325
20
0.515
40
0.00787402
0
CIRCLE
8
BLACK
10
-0.0470866
20
0.281732
40
0.00787402
0
CIRCLE
8
BLACK
10
0.273622
20
0.00984252
40
0.00787402
0
CIRCLE
8
BLACK
10
0.440945
20
-0.122047
40
0.00787402
0
CIRCLE
8
BLACK
10
-0.32
20
0.180114
40
0.00787402
0
CIRCLE
8
BLACK
10
-0.273622
20
0.429134
40
0.00787402
0
CIRCLE
8
BLACK
10
-0.32
20
-0.1
40
0.00787402
0
CIRCLE
8
BLACK
10
0.356457
20
0.484488
40
0.00787402
0
CIRCLE
8
BLACK
10
0.0867717
20
0.510079
40
0.00787402
0
CIRCLE
8
BLACK
10
-0.375984
20
0.0452756
40
0.00787402
0
CIRCLE
8
BLACK
10
-0.503937
20
0.405512
40
0.00787402
0
CIRCLE
8
BLACK
10
-0.230157
20
0.277795
40
0.00787402
  0
ENDSEC
  0
EOF
