  0
SECTION
  2
HEADER
  9
$ANGBASE
  50
0.0
  9
$ANGDIR
  70
1
  9
$MEASUREMENT
  70
0
  0
ENDSEC
  0
SECTION
  2
TABLES
  0
TABLE
  2
LTYPE
  70
4
  0
LTYPE
  5
40F
  2
CONTINUOUS
  70
0
  3
Solid line
  72
65
  73
0
  40
0.0
  0
LTYPE
  5
410
  2
DASHDOT
 70
0
  3
Dash Dot ____ _ ____ _
 72
65
 73
4
 40
2.0
 49
1.25
 49
-0.25
 49
0.25
 49
-0.25
  0
LTYPE
  5
411
  2
DASHED
 70
0
  3
Dashed __ __ __ __ __
 72
65
 73
2
 40
0.75
 49
0.5
 49
-0.25
  0
LTYPE
  5
43B
  2
DOTTED
 70
0
  3
Dotted .  .  .  .
 72
65
 73
2
 40
0.2
 49
0.0
 49
-0.2
  0
ENDTAB
  0
TABLE
  2
STYLE
  70
4
  0
STYLE
  2
KICAD
  70
0
  40
0
  41
1
  42
1
  50
0
  71
0
  3
isocp.shx
  0
STYLE
  2
KICADB
  70
0
  40
0
  41
1
  42
1
  50
0
  71
0
  3
isocp.shx
  0
STYLE
  2
KICADI
  70
0
  40
0
  41
1
  42
1
  50
15
  71
0
  3
isocp.shx
  0
STYLE
  2
KICADBI
  70
0
  40
0
  41
1
  42
1
  50
15
  71
0
  3
isocp.shx
  0
ENDTAB
  0
TABLE
  2
LAYER
  70
1
  0
LAYER
  2
BLACK
  70
0
  62
7
  6
CONTINUOUS
  0
ENDTAB
  0
ENDSEC
  0
SECTION
  2
ENTITIES
0
LINE
8
BLACK
6
CONTINUOUS
10
-0.731981
20
-0.31547
11
-0.728788
21
-0.317603
0
LINE
8
BLACK
6
CONTINUOUS
10
-0.728788
20
-0.317603
11
-0.726655
21
-0.320797
0
LINE
8
BLACK
6
CONTINUOUS
10
-0.726655
20
-0.320797
11
-0.725906
21
-0.324563
0
LINE
8
BLACK
6
CONTINUOUS
10
-0.725906
20
-0.324563
11
-0.725906
21
-0.344248
0
LINE
8
BLACK
6
CONTINUOUS
10
-0.725906
20
-0.344248
11
-0.726655
21
-0.348015
0
LINE
8
BLACK
6
CONTINUOUS
10
-0.726655
20
-0.348015
11
-0.728788
21
-0.351208
0
LINE
8
BLACK
6
CONTINUOUS
10
-0.728788
20
-0.351208
11
-0.731981
21
-0.353341
0
LINE
8
BLACK
6
CONTINUOUS
10
-0.731981
20
-0.353341
11
-0.735748
21
-0.354091
0
LINE
8
BLACK
6
CONTINUOUS
10
-0.735748
20
-0.354091
11
-0.822362
21
-0.354091
0
LINE
8
BLACK
6
CONTINUOUS
10
-0.822362
20
-0.354091
11
-0.826129
21
-0.353341
0
LINE
8
BLACK
6
CONTINUOUS
10
-0.826129
20
-0.353341
11
-0.829322
21
-0.351208
0
LINE
8
BLACK
6
CONTINUOUS
10
-0.829322
20
-0.351208
11
-0.831456
21
-0.348015
0
LINE
8
BLACK
6
CONTINUOUS
10
-0.831456
20
-0.348015
11
-0.832205
21
-0.344248
0
LINE
8
BLACK
6
CONTINUOUS
10
-0.832205
20
-0.344248
11
-0.832205
21
-0.324563
0
LINE
8
BLACK
6
CONTINUOUS
10
-0.832205
20
-0.324563
11
-0.831456
21
-0.320797
0
LINE
8
BLACK
6
CONTINUOUS
10
-0.831456
20
-0.320797
11
-0.829322
21
-0.317603
0
LINE
8
BLACK
6
CONTINUOUS
10
-0.829322
20
-0.317603
11
-0.826129
21
-0.31547
0
LINE
8
BLACK
6
CONTINUOUS
10
-0.826129
20
-0.31547
11
-0.822362
21
-0.314721
0
LINE
8
BLACK
6
CONTINUOUS
10
-0.822362
20
-0.314721
11
-0.735748
21
-0.314721
0
LINE
8
BLACK
6
CONTINUOUS
10
-0.735748
20
-0.314721
11
-0.731981
21
-0.31547
0
LINE
8
BLACK
6
CONTINUOUS
10
-0.14616
20
-0.297332
11
-0.143605
21
-0.299039
0
LINE
8
BLACK
6
CONTINUOUS
10
-0.143605
20
-0.299039
11
-0.141899
21
-0.301593
0
LINE
8
BLACK
6
CONTINUOUS
10
-0.141899
20
-0.301593
11
-0.141299
21
-0.304606
0
LINE
8
BLACK
6
CONTINUOUS
10
-0.141299
20
-0.304606
11
-0.141299
21
-0.320354
0
LINE
8
BLACK
6
CONTINUOUS
10
-0.141299
20
-0.320354
11
-0.141899
21
-0.323368
0
LINE
8
BLACK
6
CONTINUOUS
10
-0.141899
20
-0.323368
11
-0.143605
21
-0.325922
0
LINE
8
BLACK
6
CONTINUOUS
10
-0.143605
20
-0.325922
11
-0.14616
21
-0.327629
0
LINE
8
BLACK
6
CONTINUOUS
10
-0.14616
20
-0.327629
11
-0.149173
21
-0.328228
0
LINE
8
BLACK
6
CONTINUOUS
10
-0.149173
20
-0.328228
11
-0.170827
21
-0.328228
0
LINE
8
BLACK
6
CONTINUOUS
10
-0.170827
20
-0.328228
11
-0.17384
21
-0.327629
0
LINE
8
BLACK
6
CONTINUOUS
10
-0.17384
20
-0.327629
11
-0.176395
21
-0.325922
0
LINE
8
BLACK
6
CONTINUOUS
10
-0.176395
20
-0.325922
11
-0.178101
21
-0.323368
0
LINE
8
BLACK
6
CONTINUOUS
10
-0.178101
20
-0.323368
11
-0.178701
21
-0.320354
0
LINE
8
BLACK
6
CONTINUOUS
10
-0.178701
20
-0.320354
11
-0.178701
21
-0.304606
0
LINE
8
BLACK
6
CONTINUOUS
10
-0.178701
20
-0.304606
11
-0.178101
21
-0.301593
0
LINE
8
BLACK
6
CONTINUOUS
10
-0.178101
20
-0.301593
11
-0.176395
21
-0.299039
0
LINE
8
BLACK
6
CONTINUOUS
10
-0.176395
20
-0.299039
11
-0.17384
21
-0.297332
0
LINE
8
BLACK
6
CONTINUOUS
10
-0.17384
20
-0.297332
11
-0.170827
21
-0.296732
0
LINE
8
BLACK
6
CONTINUOUS
10
-0.170827
20
-0.296732
11
-0.149173
21
-0.296732
0
LINE
8
BLACK
6
CONTINUOUS
10
-0.149173
20
-0.296732
11
-0.14616
21
-0.297332
0
LINE
8
BLACK
6
CONTINUOUS
10
-0.22616
20
-0.297332
11
-0.223605
21
-0.299039
0
LINE
8
BLACK
6
CONTINUOUS
10
-0.223605
20
-0.299039
11
-0.221899
21
-0.301593
0
LINE
8
BLACK
6
CONTINUOUS
10
-0.221899
20
-0.301593
11
-0.221299
21
-0.304606
0
LINE
8
BLACK
6
CONTINUOUS
10
-0.221299
20
-0.304606
11
-0.221299
21
-0.320354
0
LINE
8
BLACK
6
CONTINUOUS
10
-0.221299
20
-0.320354
11
-0.221899
21
-0.323368
0
LINE
8
BLACK
6
CONTINUOUS
10
-0.221899
20
-0.323368
11
-0.223605
21
-0.325922
0
LINE
8
BLACK
6
CONTINUOUS
10
-0.223605
20
-0.325922
11
-0.22616
21
-0.327629
0
LINE
8
BLACK
6
CONTINUOUS
10
-0.22616
20
-0.327629
11
-0.229173
21
-0.328228
0
LINE
8
BLACK
6
CONTINUOUS
10
-0.229173
20
-0.328228
11
-0.250827
21
-0.328228
0
LINE
8
BLACK
6
CONTINUOUS
10
-0.250827
20
-0.328228
11
-0.25384
21
-0.327629
0
LINE
8
BLACK
6
CONTINUOUS
10
-0.25384
20
-0.327629
11
-0.256395
21
-0.325922
0
LINE
8
BLACK
6
CONTINUOUS
10
-0.256395
20
-0.325922
11
-0.258101
21
-0.323368
0
LINE
8
BLACK
6
CONTINUOUS
10
-0.258101
20
-0.323368
11
-0.258701
21
-0.320354
0
LINE
8
BLACK
6
CONTINUOUS
10
-0.258701
20
-0.320354
11
-0.258701
21
-0.304606
0
LINE
8
BLACK
6
CONTINUOUS
10
-0.258701
20
-0.304606
11
-0.258101
21
-0.301593
0
LINE
8
BLACK
6
CONTINUOUS
10
-0.258101
20
-0.301593
11
-0.256395
21
-0.299039
0
LINE
8
BLACK
6
CONTINUOUS
10
-0.256395
20
-0.299039
11
-0.25384
21
-0.297332
0
LINE
8
BLACK
6
CONTINUOUS
10
-0.25384
20
-0.297332
11
-0.250827
21
-0.296732
0
LINE
8
BLACK
6
CONTINUOUS
10
-0.250827
20
-0.296732
11
-0.229173
21
-0.296732
0
LINE
8
BLACK
6
CONTINUOUS
10
-0.229173
20
-0.296732
11
-0.22616
21
-0.297332
0
LINE
8
BLACK
6
CONTINUOUS
10
0.182524
20
-0.28906
11
0.185398
21
-0.29098
0
LINE
8
BLACK
6
CONTINUOUS
10
0.185398
20
-0.29098
11
0.187318
21
-0.293854
0
LINE
8
BLACK
6
CONTINUOUS
10
0.187318
20
-0.293854
11
0.187992
21
-0.297244
0
LINE
8
BLACK
6
CONTINUOUS
10
0.187992
20
-0.297244
11
0.187992
21
-0.314961
0
LINE
8
BLACK
6
CONTINUOUS
10
0.187992
20
-0.314961
11
0.187318
21
-0.318351
0
LINE
8
BLACK
6
CONTINUOUS
10
0.187318
20
-0.318351
11
0.185398
21
-0.321224
0
LINE
8
BLACK
6
CONTINUOUS
10
0.185398
20
-0.321224
11
0.182524
21
-0.323145
0
LINE
8
BLACK
6
CONTINUOUS
10
0.182524
20
-0.323145
11
0.179134
21
-0.323819
0
LINE
8
BLACK
6
CONTINUOUS
10
0.179134
20
-0.323819
11
0.159449
21
-0.323819
0
LINE
8
BLACK
6
CONTINUOUS
10
0.159449
20
-0.323819
11
0.156059
21
-0.323145
0
LINE
8
BLACK
6
CONTINUOUS
10
0.156059
20
-0.323145
11
0.153185
21
-0.321224
0
LINE
8
BLACK
6
CONTINUOUS
10
0.153185
20
-0.321224
11
0.151265
21
-0.318351
0
LINE
8
BLACK
6
CONTINUOUS
10
0.151265
20
-0.318351
11
0.150591
21
-0.314961
0
LINE
8
BLACK
6
CONTINUOUS
10
0.150591
20
-0.314961
11
0.150591
21
-0.297244
0
LINE
8
BLACK
6
CONTINUOUS
10
0.150591
20
-0.297244
11
0.151265
21
-0.293854
0
LINE
8
BLACK
6
CONTINUOUS
10
0.151265
20
-0.293854
11
0.153185
21
-0.29098
0
LINE
8
BLACK
6
CONTINUOUS
10
0.153185
20
-0.29098
11
0.156059
21
-0.28906
0
LINE
8
BLACK
6
CONTINUOUS
10
0.156059
20
-0.28906
11
0.159449
21
-0.288386
0
LINE
8
BLACK
6
CONTINUOUS
10
0.159449
20
-0.288386
11
0.179134
21
-0.288386
0
LINE
8
BLACK
6
CONTINUOUS
10
0.179134
20
-0.288386
11
0.182524
21
-0.28906
0
LINE
8
BLACK
6
CONTINUOUS
10
0.262283
20
-0.320311
11
0.246535
21
-0.320311
0
LINE
8
BLACK
6
CONTINUOUS
10
0.246535
20
-0.320311
11
0.246535
21
-0.294721
0
LINE
8
BLACK
6
CONTINUOUS
10
0.246535
20
-0.294721
11
0.262283
21
-0.294721
0
LINE
8
BLACK
6
CONTINUOUS
10
0.262283
20
-0.294721
11
0.262283
21
-0.320311
0
LINE
8
BLACK
6
CONTINUOUS
10
0.313465
20
-0.320311
11
0.297717
21
-0.320311
0
LINE
8
BLACK
6
CONTINUOUS
10
0.297717
20
-0.320311
11
0.297717
21
-0.294721
0
LINE
8
BLACK
6
CONTINUOUS
10
0.297717
20
-0.294721
11
0.313465
21
-0.294721
0
LINE
8
BLACK
6
CONTINUOUS
10
0.313465
20
-0.294721
11
0.313465
21
-0.320311
0
LINE
8
BLACK
6
CONTINUOUS
10
-0.438189
20
-0.305118
11
-0.497244
21
-0.305118
0
LINE
8
BLACK
6
CONTINUOUS
10
-0.497244
20
-0.305118
11
-0.497244
21
-0.246063
0
LINE
8
BLACK
6
CONTINUOUS
10
-0.497244
20
-0.246063
11
-0.438189
21
-0.246063
0
LINE
8
BLACK
6
CONTINUOUS
10
-0.438189
20
-0.246063
11
-0.438189
21
-0.305118
0
LINE
8
BLACK
6
CONTINUOUS
10
-0.290157
20
-0.305118
11
-0.349213
21
-0.305118
0
LINE
8
BLACK
6
CONTINUOUS
10
-0.349213
20
-0.305118
11
-0.349213
21
-0.246063
0
LINE
8
BLACK
6
CONTINUOUS
10
-0.349213
20
-0.246063
11
-0.290157
21
-0.246063
0
LINE
8
BLACK
6
CONTINUOUS
10
-0.290157
20
-0.246063
11
-0.290157
21
-0.305118
0
LINE
8
BLACK
6
CONTINUOUS
10
-0.0444882
20
-0.305118
11
-0.103543
21
-0.305118
0
LINE
8
BLACK
6
CONTINUOUS
10
-0.103543
20
-0.305118
11
-0.103543
21
-0.246063
0
LINE
8
BLACK
6
CONTINUOUS
10
-0.103543
20
-0.246063
11
-0.0444882
21
-0.246063
0
LINE
8
BLACK
6
CONTINUOUS
10
-0.0444882
20
-0.246063
11
-0.0444882
21
-0.305118
0
LINE
8
BLACK
6
CONTINUOUS
10
0.103543
20
-0.305118
11
0.0444882
21
-0.305118
0
LINE
8
BLACK
6
CONTINUOUS
10
0.0444882
20
-0.305118
11
0.0444882
21
-0.246063
0
LINE
8
BLACK
6
CONTINUOUS
10
0.0444882
20
-0.246063
11
0.103543
21
-0.246063
0
LINE
8
BLACK
6
CONTINUOUS
10
0.103543
20
-0.246063
11
0.103543
21
-0.305118
0
LINE
8
BLACK
6
CONTINUOUS
10
-0.623252
20
-0.25021
11
-0.621336
21
-0.25149
0
LINE
8
BLACK
6
CONTINUOUS
10
-0.621336
20
-0.25149
11
-0.620056
21
-0.253406
0
LINE
8
BLACK
6
CONTINUOUS
10
-0.620056
20
-0.253406
11
-0.619606
21
-0.255666
0
LINE
8
BLACK
6
CONTINUOUS
10
-0.619606
20
-0.255666
11
-0.619606
21
-0.267477
0
LINE
8
BLACK
6
CONTINUOUS
10
-0.619606
20
-0.267477
11
-0.620056
21
-0.269736
0
LINE
8
BLACK
6
CONTINUOUS
10
-0.620056
20
-0.269736
11
-0.621336
21
-0.271652
0
LINE
8
BLACK
6
CONTINUOUS
10
-0.621336
20
-0.271652
11
-0.623252
21
-0.272933
0
LINE
8
BLACK
6
CONTINUOUS
10
-0.623252
20
-0.272933
11
-0.625512
21
-0.273382
0
LINE
8
BLACK
6
CONTINUOUS
10
-0.625512
20
-0.273382
11
-0.68063
21
-0.273382
0
LINE
8
BLACK
6
CONTINUOUS
10
-0.68063
20
-0.273382
11
-0.68289
21
-0.272933
0
LINE
8
BLACK
6
CONTINUOUS
10
-0.68289
20
-0.272933
11
-0.684806
21
-0.271652
0
LINE
8
BLACK
6
CONTINUOUS
10
-0.684806
20
-0.271652
11
-0.686086
21
-0.269736
0
LINE
8
BLACK
6
CONTINUOUS
10
-0.686086
20
-0.269736
11
-0.686535
21
-0.267477
0
LINE
8
BLACK
6
CONTINUOUS
10
-0.686535
20
-0.267477
11
-0.686535
21
-0.255666
0
LINE
8
BLACK
6
CONTINUOUS
10
-0.686535
20
-0.255666
11
-0.686086
21
-0.253406
0
LINE
8
BLACK
6
CONTINUOUS
10
-0.686086
20
-0.253406
11
-0.684806
21
-0.25149
0
LINE
8
BLACK
6
CONTINUOUS
10
-0.684806
20
-0.25149
11
-0.68289
21
-0.25021
0
LINE
8
BLACK
6
CONTINUOUS
10
-0.68289
20
-0.25021
11
-0.68063
21
-0.24976
0
LINE
8
BLACK
6
CONTINUOUS
10
-0.68063
20
-0.24976
11
-0.625512
21
-0.24976
0
LINE
8
BLACK
6
CONTINUOUS
10
-0.625512
20
-0.24976
11
-0.623252
21
-0.25021
0
LINE
8
BLACK
6
CONTINUOUS
10
-0.14616
20
-0.232371
11
-0.143605
21
-0.234078
0
LINE
8
BLACK
6
CONTINUOUS
10
-0.143605
20
-0.234078
11
-0.141899
21
-0.236632
0
LINE
8
BLACK
6
CONTINUOUS
10
-0.141899
20
-0.236632
11
-0.141299
21
-0.239646
0
LINE
8
BLACK
6
CONTINUOUS
10
-0.141299
20
-0.239646
11
-0.141299
21
-0.255394
0
LINE
8
BLACK
6
CONTINUOUS
10
-0.141299
20
-0.255394
11
-0.141899
21
-0.258407
0
LINE
8
BLACK
6
CONTINUOUS
10
-0.141899
20
-0.258407
11
-0.143605
21
-0.260961
0
LINE
8
BLACK
6
CONTINUOUS
10
-0.143605
20
-0.260961
11
-0.14616
21
-0.262668
0
LINE
8
BLACK
6
CONTINUOUS
10
-0.14616
20
-0.262668
11
-0.149173
21
-0.263268
0
LINE
8
BLACK
6
CONTINUOUS
10
-0.149173
20
-0.263268
11
-0.170827
21
-0.263268
0
LINE
8
BLACK
6
CONTINUOUS
10
-0.170827
20
-0.263268
11
-0.17384
21
-0.262668
0
LINE
8
BLACK
6
CONTINUOUS
10
-0.17384
20
-0.262668
11
-0.176395
21
-0.260961
0
LINE
8
BLACK
6
CONTINUOUS
10
-0.176395
20
-0.260961
11
-0.178101
21
-0.258407
0
LINE
8
BLACK
6
CONTINUOUS
10
-0.178101
20
-0.258407
11
-0.178701
21
-0.255394
0
LINE
8
BLACK
6
CONTINUOUS
10
-0.178701
20
-0.255394
11
-0.178701
21
-0.239646
0
LINE
8
BLACK
6
CONTINUOUS
10
-0.178701
20
-0.239646
11
-0.178101
21
-0.236632
0
LINE
8
BLACK
6
CONTINUOUS
10
-0.178101
20
-0.236632
11
-0.176395
21
-0.234078
0
LINE
8
BLACK
6
CONTINUOUS
10
-0.176395
20
-0.234078
11
-0.17384
21
-0.232371
0
LINE
8
BLACK
6
CONTINUOUS
10
-0.17384
20
-0.232371
11
-0.170827
21
-0.231772
0
LINE
8
BLACK
6
CONTINUOUS
10
-0.170827
20
-0.231772
11
-0.149173
21
-0.231772
0
LINE
8
BLACK
6
CONTINUOUS
10
-0.149173
20
-0.231772
11
-0.14616
21
-0.232371
0
LINE
8
BLACK
6
CONTINUOUS
10
-0.22616
20
-0.232371
11
-0.223605
21
-0.234078
0
LINE
8
BLACK
6
CONTINUOUS
10
-0.223605
20
-0.234078
11
-0.221899
21
-0.236632
0
LINE
8
BLACK
6
CONTINUOUS
10
-0.221899
20
-0.236632
11
-0.221299
21
-0.239646
0
LINE
8
BLACK
6
CONTINUOUS
10
-0.221299
20
-0.239646
11
-0.221299
21
-0.255394
0
LINE
8
BLACK
6
CONTINUOUS
10
-0.221299
20
-0.255394
11
-0.221899
21
-0.258407
0
LINE
8
BLACK
6
CONTINUOUS
10
-0.221899
20
-0.258407
11
-0.223605
21
-0.260961
0
LINE
8
BLACK
6
CONTINUOUS
10
-0.223605
20
-0.260961
11
-0.22616
21
-0.262668
0
LINE
8
BLACK
6
CONTINUOUS
10
-0.22616
20
-0.262668
11
-0.229173
21
-0.263268
0
LINE
8
BLACK
6
CONTINUOUS
10
-0.229173
20
-0.263268
11
-0.250827
21
-0.263268
0
LINE
8
BLACK
6
CONTINUOUS
10
-0.250827
20
-0.263268
11
-0.25384
21
-0.262668
0
LINE
8
BLACK
6
CONTINUOUS
10
-0.25384
20
-0.262668
11
-0.256395
21
-0.260961
0
LINE
8
BLACK
6
CONTINUOUS
10
-0.256395
20
-0.260961
11
-0.258101
21
-0.258407
0
LINE
8
BLACK
6
CONTINUOUS
10
-0.258101
20
-0.258407
11
-0.258701
21
-0.255394
0
LINE
8
BLACK
6
CONTINUOUS
10
-0.258701
20
-0.255394
11
-0.258701
21
-0.239646
0
LINE
8
BLACK
6
CONTINUOUS
10
-0.258701
20
-0.239646
11
-0.258101
21
-0.236632
0
LINE
8
BLACK
6
CONTINUOUS
10
-0.258101
20
-0.236632
11
-0.256395
21
-0.234078
0
LINE
8
BLACK
6
CONTINUOUS
10
-0.256395
20
-0.234078
11
-0.25384
21
-0.232371
0
LINE
8
BLACK
6
CONTINUOUS
10
-0.25384
20
-0.232371
11
-0.250827
21
-0.231772
0
LINE
8
BLACK
6
CONTINUOUS
10
-0.250827
20
-0.231772
11
-0.229173
21
-0.231772
0
LINE
8
BLACK
6
CONTINUOUS
10
-0.229173
20
-0.231772
11
-0.22616
21
-0.232371
0
LINE
8
BLACK
6
CONTINUOUS
10
0.182524
20
-0.228036
11
0.185398
21
-0.229957
0
LINE
8
BLACK
6
CONTINUOUS
10
0.185398
20
-0.229957
11
0.187318
21
-0.232831
0
LINE
8
BLACK
6
CONTINUOUS
10
0.187318
20
-0.232831
11
0.187992
21
-0.23622
0
LINE
8
BLACK
6
CONTINUOUS
10
0.187992
20
-0.23622
11
0.187992
21
-0.253937
0
LINE
8
BLACK
6
CONTINUOUS
10
0.187992
20
-0.253937
11
0.187318
21
-0.257327
0
LINE
8
BLACK
6
CONTINUOUS
10
0.187318
20
-0.257327
11
0.185398
21
-0.260201
0
LINE
8
BLACK
6
CONTINUOUS
10
0.185398
20
-0.260201
11
0.182524
21
-0.262121
0
LINE
8
BLACK
6
CONTINUOUS
10
0.182524
20
-0.262121
11
0.179134
21
-0.262795
0
LINE
8
BLACK
6
CONTINUOUS
10
0.179134
20
-0.262795
11
0.159449
21
-0.262795
0
LINE
8
BLACK
6
CONTINUOUS
10
0.159449
20
-0.262795
11
0.156059
21
-0.262121
0
LINE
8
BLACK
6
CONTINUOUS
10
0.156059
20
-0.262121
11
0.153185
21
-0.260201
0
LINE
8
BLACK
6
CONTINUOUS
10
0.153185
20
-0.260201
11
0.151265
21
-0.257327
0
LINE
8
BLACK
6
CONTINUOUS
10
0.151265
20
-0.257327
11
0.150591
21
-0.253937
0
LINE
8
BLACK
6
CONTINUOUS
10
0.150591
20
-0.253937
11
0.150591
21
-0.23622
0
LINE
8
BLACK
6
CONTINUOUS
10
0.150591
20
-0.23622
11
0.151265
21
-0.232831
0
LINE
8
BLACK
6
CONTINUOUS
10
0.151265
20
-0.232831
11
0.153185
21
-0.229957
0
LINE
8
BLACK
6
CONTINUOUS
10
0.153185
20
-0.229957
11
0.156059
21
-0.228036
0
LINE
8
BLACK
6
CONTINUOUS
10
0.156059
20
-0.228036
11
0.159449
21
-0.227362
0
LINE
8
BLACK
6
CONTINUOUS
10
0.159449
20
-0.227362
11
0.179134
21
-0.227362
0
LINE
8
BLACK
6
CONTINUOUS
10
0.179134
20
-0.227362
11
0.182524
21
-0.228036
0
LINE
8
BLACK
6
CONTINUOUS
10
0.262283
20
-0.245508
11
0.246535
21
-0.245508
0
LINE
8
BLACK
6
CONTINUOUS
10
0.246535
20
-0.245508
11
0.246535
21
-0.219917
0
LINE
8
BLACK
6
CONTINUOUS
10
0.246535
20
-0.219917
11
0.262283
21
-0.219917
0
LINE
8
BLACK
6
CONTINUOUS
10
0.262283
20
-0.219917
11
0.262283
21
-0.245508
0
LINE
8
BLACK
6
CONTINUOUS
10
0.287874
20
-0.245508
11
0.272126
21
-0.245508
0
LINE
8
BLACK
6
CONTINUOUS
10
0.272126
20
-0.245508
11
0.272126
21
-0.219917
0
LINE
8
BLACK
6
CONTINUOUS
10
0.272126
20
-0.219917
11
0.287874
21
-0.219917
0
LINE
8
BLACK
6
CONTINUOUS
10
0.287874
20
-0.219917
11
0.287874
21
-0.245508
0
LINE
8
BLACK
6
CONTINUOUS
10
0.313465
20
-0.245508
11
0.297717
21
-0.245508
0
LINE
8
BLACK
6
CONTINUOUS
10
0.297717
20
-0.245508
11
0.297717
21
-0.219917
0
LINE
8
BLACK
6
CONTINUOUS
10
0.297717
20
-0.219917
11
0.313465
21
-0.219917
0
LINE
8
BLACK
6
CONTINUOUS
10
0.313465
20
-0.219917
11
0.313465
21
-0.245508
0
LINE
8
BLACK
6
CONTINUOUS
10
-0.623252
20
-0.200997
11
-0.621336
21
-0.202277
0
LINE
8
BLACK
6
CONTINUOUS
10
-0.621336
20
-0.202277
11
-0.620056
21
-0.204193
0
LINE
8
BLACK
6
CONTINUOUS
10
-0.620056
20
-0.204193
11
-0.619606
21
-0.206453
0
LINE
8
BLACK
6
CONTINUOUS
10
-0.619606
20
-0.206453
11
-0.619606
21
-0.218264
0
LINE
8
BLACK
6
CONTINUOUS
10
-0.619606
20
-0.218264
11
-0.620056
21
-0.220524
0
LINE
8
BLACK
6
CONTINUOUS
10
-0.620056
20
-0.220524
11
-0.621336
21
-0.22244
0
LINE
8
BLACK
6
CONTINUOUS
10
-0.621336
20
-0.22244
11
-0.623252
21
-0.22372
0
LINE
8
BLACK
6
CONTINUOUS
10
-0.623252
20
-0.22372
11
-0.625512
21
-0.224169
0
LINE
8
BLACK
6
CONTINUOUS
10
-0.625512
20
-0.224169
11
-0.68063
21
-0.224169
0
LINE
8
BLACK
6
CONTINUOUS
10
-0.68063
20
-0.224169
11
-0.68289
21
-0.22372
0
LINE
8
BLACK
6
CONTINUOUS
10
-0.68289
20
-0.22372
11
-0.684806
21
-0.22244
0
LINE
8
BLACK
6
CONTINUOUS
10
-0.684806
20
-0.22244
11
-0.686086
21
-0.220524
0
LINE
8
BLACK
6
CONTINUOUS
10
-0.686086
20
-0.220524
11
-0.686535
21
-0.218264
0
LINE
8
BLACK
6
CONTINUOUS
10
-0.686535
20
-0.218264
11
-0.686535
21
-0.206453
0
LINE
8
BLACK
6
CONTINUOUS
10
-0.686535
20
-0.206453
11
-0.686086
21
-0.204193
0
LINE
8
BLACK
6
CONTINUOUS
10
-0.686086
20
-0.204193
11
-0.684806
21
-0.202277
0
LINE
8
BLACK
6
CONTINUOUS
10
-0.684806
20
-0.202277
11
-0.68289
21
-0.200997
0
LINE
8
BLACK
6
CONTINUOUS
10
-0.68289
20
-0.200997
11
-0.68063
21
-0.200547
0
LINE
8
BLACK
6
CONTINUOUS
10
-0.68063
20
-0.200547
11
-0.625512
21
-0.200547
0
LINE
8
BLACK
6
CONTINUOUS
10
-0.625512
20
-0.200547
11
-0.623252
21
-0.200997
0
LINE
8
BLACK
6
CONTINUOUS
10
-0.437597
20
-0.0924802
11
-0.433458
21
-0.0943097
0
LINE
8
BLACK
6
CONTINUOUS
10
-0.433458
20
-0.0943097
11
-0.430136
21
-0.0973812
0
LINE
8
BLACK
6
CONTINUOUS
10
-0.430136
20
-0.0973812
11
-0.427987
21
-0.101363
0
LINE
8
BLACK
6
CONTINUOUS
10
-0.427987
20
-0.101363
11
-0.427244
21
-0.105827
0
LINE
8
BLACK
6
CONTINUOUS
10
-0.427244
20
-0.105827
11
-0.427244
21
-0.18063
0
LINE
8
BLACK
6
CONTINUOUS
10
-0.427244
20
-0.18063
11
-0.427449
21
-0.182999
0
LINE
8
BLACK
6
CONTINUOUS
10
-0.427449
20
-0.182999
11
-0.428949
21
-0.187268
0
LINE
8
BLACK
6
CONTINUOUS
10
-0.428949
20
-0.187268
11
-0.43175
21
-0.190822
0
LINE
8
BLACK
6
CONTINUOUS
10
-0.43175
20
-0.190822
11
-0.435551
21
-0.193276
0
LINE
8
BLACK
6
CONTINUOUS
10
-0.435551
20
-0.193276
11
-0.439942
21
-0.194367
0
LINE
8
BLACK
6
CONTINUOUS
10
-0.439942
20
-0.194367
11
-0.44445
21
-0.193977
0
LINE
8
BLACK
6
CONTINUOUS
10
-0.44445
20
-0.193977
11
-0.448589
21
-0.192147
0
LINE
8
BLACK
6
CONTINUOUS
10
-0.448589
20
-0.192147
11
-0.451912
21
-0.189075
0
LINE
8
BLACK
6
CONTINUOUS
10
-0.451912
20
-0.189075
11
-0.45406
21
-0.185093
0
LINE
8
BLACK
6
CONTINUOUS
10
-0.45406
20
-0.185093
11
-0.454803
21
-0.18063
0
LINE
8
BLACK
6
CONTINUOUS
10
-0.454803
20
-0.18063
11
-0.454803
21
-0.105827
0
LINE
8
BLACK
6
CONTINUOUS
10
-0.454803
20
-0.105827
11
-0.454598
21
-0.103458
0
LINE
8
BLACK
6
CONTINUOUS
10
-0.454598
20
-0.103458
11
-0.453099
21
-0.0991884
0
LINE
8
BLACK
6
CONTINUOUS
10
-0.453099
20
-0.0991884
11
-0.450297
21
-0.095635
0
LINE
8
BLACK
6
CONTINUOUS
10
-0.450297
20
-0.095635
11
-0.446496
21
-0.0931806
0
LINE
8
BLACK
6
CONTINUOUS
10
-0.446496
20
-0.0931806
11
-0.442105
21
-0.0920897
0
LINE
8
BLACK
6
CONTINUOUS
10
-0.442105
20
-0.0920897
11
-0.437597
21
-0.0924802
0
LINE
8
BLACK
6
CONTINUOUS
10
-0.3874
20
-0.0924802
11
-0.383261
21
-0.0943097
0
LINE
8
BLACK
6
CONTINUOUS
10
-0.383261
20
-0.0943097
11
-0.379939
21
-0.0973812
0
LINE
8
BLACK
6
CONTINUOUS
10
-0.379939
20
-0.0973812
11
-0.37779
21
-0.101363
0
LINE
8
BLACK
6
CONTINUOUS
10
-0.37779
20
-0.101363
11
-0.377047
21
-0.105827
0
LINE
8
BLACK
6
CONTINUOUS
10
-0.377047
20
-0.105827
11
-0.377047
21
-0.18063
0
LINE
8
BLACK
6
CONTINUOUS
10
-0.377047
20
-0.18063
11
-0.377252
21
-0.182999
0
LINE
8
BLACK
6
CONTINUOUS
10
-0.377252
20
-0.182999
11
-0.378752
21
-0.187268
0
LINE
8
BLACK
6
CONTINUOUS
10
-0.378752
20
-0.187268
11
-0.381553
21
-0.190822
0
LINE
8
BLACK
6
CONTINUOUS
10
-0.381553
20
-0.190822
11
-0.385354
21
-0.193276
0
LINE
8
BLACK
6
CONTINUOUS
10
-0.385354
20
-0.193276
11
-0.389746
21
-0.194367
0
LINE
8
BLACK
6
CONTINUOUS
10
-0.389746
20
-0.194367
11
-0.394254
21
-0.193977
0
LINE
8
BLACK
6
CONTINUOUS
10
-0.394254
20
-0.193977
11
-0.398392
21
-0.192147
0
LINE
8
BLACK
6
CONTINUOUS
10
-0.398392
20
-0.192147
11
-0.401715
21
-0.189075
0
LINE
8
BLACK
6
CONTINUOUS
10
-0.401715
20
-0.189075
11
-0.403863
21
-0.185093
0
LINE
8
BLACK
6
CONTINUOUS
10
-0.403863
20
-0.185093
11
-0.404606
21
-0.18063
0
LINE
8
BLACK
6
CONTINUOUS
10
-0.404606
20
-0.18063
11
-0.404606
21
-0.105827
0
LINE
8
BLACK
6
CONTINUOUS
10
-0.404606
20
-0.105827
11
-0.404401
21
-0.103458
0
LINE
8
BLACK
6
CONTINUOUS
10
-0.404401
20
-0.103458
11
-0.402902
21
-0.0991884
0
LINE
8
BLACK
6
CONTINUOUS
10
-0.402902
20
-0.0991884
11
-0.400101
21
-0.095635
0
LINE
8
BLACK
6
CONTINUOUS
10
-0.400101
20
-0.095635
11
-0.396299
21
-0.0931806
0
LINE
8
BLACK
6
CONTINUOUS
10
-0.396299
20
-0.0931806
11
-0.391908
21
-0.0920897
0
LINE
8
BLACK
6
CONTINUOUS
10
-0.391908
20
-0.0920897
11
-0.3874
21
-0.0924802
0
LINE
8
BLACK
6
CONTINUOUS
10
-0.3374
20
-0.0924802
11
-0.333261
21
-0.0943097
0
LINE
8
BLACK
6
CONTINUOUS
10
-0.333261
20
-0.0943097
11
-0.329939
21
-0.0973812
0
LINE
8
BLACK
6
CONTINUOUS
10
-0.329939
20
-0.0973812
11
-0.32779
21
-0.101363
0
LINE
8
BLACK
6
CONTINUOUS
10
-0.32779
20
-0.101363
11
-0.327047
21
-0.105827
0
LINE
8
BLACK
6
CONTINUOUS
10
-0.327047
20
-0.105827
11
-0.327047
21
-0.18063
0
LINE
8
BLACK
6
CONTINUOUS
10
-0.327047
20
-0.18063
11
-0.327252
21
-0.182999
0
LINE
8
BLACK
6
CONTINUOUS
10
-0.327252
20
-0.182999
11
-0.328752
21
-0.187268
0
LINE
8
BLACK
6
CONTINUOUS
10
-0.328752
20
-0.187268
11
-0.331553
21
-0.190822
0
LINE
8
BLACK
6
CONTINUOUS
10
-0.331553
20
-0.190822
11
-0.335354
21
-0.193276
0
LINE
8
BLACK
6
CONTINUOUS
10
-0.335354
20
-0.193276
11
-0.339746
21
-0.194367
0
LINE
8
BLACK
6
CONTINUOUS
10
-0.339746
20
-0.194367
11
-0.344254
21
-0.193977
0
LINE
8
BLACK
6
CONTINUOUS
10
-0.344254
20
-0.193977
11
-0.348392
21
-0.192147
0
LINE
8
BLACK
6
CONTINUOUS
10
-0.348392
20
-0.192147
11
-0.351715
21
-0.189075
0
LINE
8
BLACK
6
CONTINUOUS
10
-0.351715
20
-0.189075
11
-0.353863
21
-0.185093
0
LINE
8
BLACK
6
CONTINUOUS
10
-0.353863
20
-0.185093
11
-0.354606
21
-0.18063
0
LINE
8
BLACK
6
CONTINUOUS
10
-0.354606
20
-0.18063
11
-0.354606
21
-0.105827
0
LINE
8
BLACK
6
CONTINUOUS
10
-0.354606
20
-0.105827
11
-0.354401
21
-0.103458
0
LINE
8
BLACK
6
CONTINUOUS
10
-0.354401
20
-0.103458
11
-0.352902
21
-0.0991884
0
LINE
8
BLACK
6
CONTINUOUS
10
-0.352902
20
-0.0991884
11
-0.350101
21
-0.095635
0
LINE
8
BLACK
6
CONTINUOUS
10
-0.350101
20
-0.095635
11
-0.346299
21
-0.0931806
0
LINE
8
BLACK
6
CONTINUOUS
10
-0.346299
20
-0.0931806
11
-0.341908
21
-0.0920897
0
LINE
8
BLACK
6
CONTINUOUS
10
-0.341908
20
-0.0920897
11
-0.3374
21
-0.0924802
0
LINE
8
BLACK
6
CONTINUOUS
10
-0.2874
20
-0.0924802
11
-0.283261
21
-0.0943097
0
LINE
8
BLACK
6
CONTINUOUS
10
-0.283261
20
-0.0943097
11
-0.279939
21
-0.0973812
0
LINE
8
BLACK
6
CONTINUOUS
10
-0.279939
20
-0.0973812
11
-0.27779
21
-0.101363
0
LINE
8
BLACK
6
CONTINUOUS
10
-0.27779
20
-0.101363
11
-0.277047
21
-0.105827
0
LINE
8
BLACK
6
CONTINUOUS
10
-0.277047
20
-0.105827
11
-0.277047
21
-0.18063
0
LINE
8
BLACK
6
CONTINUOUS
10
-0.277047
20
-0.18063
11
-0.277252
21
-0.182999
0
LINE
8
BLACK
6
CONTINUOUS
10
-0.277252
20
-0.182999
11
-0.278752
21
-0.187268
0
LINE
8
BLACK
6
CONTINUOUS
10
-0.278752
20
-0.187268
11
-0.281553
21
-0.190822
0
LINE
8
BLACK
6
CONTINUOUS
10
-0.281553
20
-0.190822
11
-0.285354
21
-0.193276
0
LINE
8
BLACK
6
CONTINUOUS
10
-0.285354
20
-0.193276
11
-0.289746
21
-0.194367
0
LINE
8
BLACK
6
CONTINUOUS
10
-0.289746
20
-0.194367
11
-0.294254
21
-0.193977
0
LINE
8
BLACK
6
CONTINUOUS
10
-0.294254
20
-0.193977
11
-0.298392
21
-0.192147
0
LINE
8
BLACK
6
CONTINUOUS
10
-0.298392
20
-0.192147
11
-0.301715
21
-0.189075
0
LINE
8
BLACK
6
CONTINUOUS
10
-0.301715
20
-0.189075
11
-0.303863
21
-0.185093
0
LINE
8
BLACK
6
CONTINUOUS
10
-0.303863
20
-0.185093
11
-0.304606
21
-0.18063
0
LINE
8
BLACK
6
CONTINUOUS
10
-0.304606
20
-0.18063
11
-0.304606
21
-0.105827
0
LINE
8
BLACK
6
CONTINUOUS
10
-0.304606
20
-0.105827
11
-0.304401
21
-0.103458
0
LINE
8
BLACK
6
CONTINUOUS
10
-0.304401
20
-0.103458
11
-0.302902
21
-0.0991884
0
LINE
8
BLACK
6
CONTINUOUS
10
-0.302902
20
-0.0991884
11
-0.300101
21
-0.095635
0
LINE
8
BLACK
6
CONTINUOUS
10
-0.300101
20
-0.095635
11
-0.296299
21
-0.0931806
0
LINE
8
BLACK
6
CONTINUOUS
10
-0.296299
20
-0.0931806
11
-0.291908
21
-0.0920897
0
LINE
8
BLACK
6
CONTINUOUS
10
-0.291908
20
-0.0920897
11
-0.2874
21
-0.0924802
0
LINE
8
BLACK
6
CONTINUOUS
10
-0.623252
20
-0.151784
11
-0.621336
21
-0.153064
0
LINE
8
BLACK
6
CONTINUOUS
10
-0.621336
20
-0.153064
11
-0.620056
21
-0.15498
0
LINE
8
BLACK
6
CONTINUOUS
10
-0.620056
20
-0.15498
11
-0.619606
21
-0.15724
0
LINE
8
BLACK
6
CONTINUOUS
10
-0.619606
20
-0.15724
11
-0.619606
21
-0.169051
0
LINE
8
BLACK
6
CONTINUOUS
10
-0.619606
20
-0.169051
11
-0.620056
21
-0.171311
0
LINE
8
BLACK
6
CONTINUOUS
10
-0.620056
20
-0.171311
11
-0.621336
21
-0.173227
0
LINE
8
BLACK
6
CONTINUOUS
10
-0.621336
20
-0.173227
11
-0.623252
21
-0.174507
0
LINE
8
BLACK
6
CONTINUOUS
10
-0.623252
20
-0.174507
11
-0.625512
21
-0.174957
0
LINE
8
BLACK
6
CONTINUOUS
10
-0.625512
20
-0.174957
11
-0.68063
21
-0.174957
0
LINE
8
BLACK
6
CONTINUOUS
10
-0.68063
20
-0.174957
11
-0.68289
21
-0.174507
0
LINE
8
BLACK
6
CONTINUOUS
10
-0.68289
20
-0.174507
11
-0.684806
21
-0.173227
0
LINE
8
BLACK
6
CONTINUOUS
10
-0.684806
20
-0.173227
11
-0.686086
21
-0.171311
0
LINE
8
BLACK
6
CONTINUOUS
10
-0.686086
20
-0.171311
11
-0.686535
21
-0.169051
0
LINE
8
BLACK
6
CONTINUOUS
10
-0.686535
20
-0.169051
11
-0.686535
21
-0.15724
0
LINE
8
BLACK
6
CONTINUOUS
10
-0.686535
20
-0.15724
11
-0.686086
21
-0.15498
0
LINE
8
BLACK
6
CONTINUOUS
10
-0.686086
20
-0.15498
11
-0.684806
21
-0.153064
0
LINE
8
BLACK
6
CONTINUOUS
10
-0.684806
20
-0.153064
11
-0.68289
21
-0.151784
0
LINE
8
BLACK
6
CONTINUOUS
10
-0.68289
20
-0.151784
11
-0.68063
21
-0.151335
0
LINE
8
BLACK
6
CONTINUOUS
10
-0.68063
20
-0.151335
11
-0.625512
21
-0.151335
0
LINE
8
BLACK
6
CONTINUOUS
10
-0.625512
20
-0.151335
11
-0.623252
21
-0.151784
0
LINE
8
BLACK
6
CONTINUOUS
10
-0.623252
20
-0.102572
11
-0.621336
21
-0.103852
0
LINE
8
BLACK
6
CONTINUOUS
10
-0.621336
20
-0.103852
11
-0.620056
21
-0.105768
0
LINE
8
BLACK
6
CONTINUOUS
10
-0.620056
20
-0.105768
11
-0.619606
21
-0.108028
0
LINE
8
BLACK
6
CONTINUOUS
10
-0.619606
20
-0.108028
11
-0.619606
21
-0.119839
0
LINE
8
BLACK
6
CONTINUOUS
10
-0.619606
20
-0.119839
11
-0.620056
21
-0.122099
0
LINE
8
BLACK
6
CONTINUOUS
10
-0.620056
20
-0.122099
11
-0.621336
21
-0.124015
0
LINE
8
BLACK
6
CONTINUOUS
10
-0.621336
20
-0.124015
11
-0.623252
21
-0.125295
0
LINE
8
BLACK
6
CONTINUOUS
10
-0.623252
20
-0.125295
11
-0.625512
21
-0.125744
0
LINE
8
BLACK
6
CONTINUOUS
10
-0.625512
20
-0.125744
11
-0.68063
21
-0.125744
0
LINE
8
BLACK
6
CONTINUOUS
10
-0.68063
20
-0.125744
11
-0.68289
21
-0.125295
0
LINE
8
BLACK
6
CONTINUOUS
10
-0.68289
20
-0.125295
11
-0.684806
21
-0.124015
0
LINE
8
BLACK
6
CONTINUOUS
10
-0.684806
20
-0.124015
11
-0.686086
21
-0.122099
0
LINE
8
BLACK
6
CONTINUOUS
10
-0.686086
20
-0.122099
11
-0.686535
21
-0.119839
0
LINE
8
BLACK
6
CONTINUOUS
10
-0.686535
20
-0.119839
11
-0.686535
21
-0.108028
0
LINE
8
BLACK
6
CONTINUOUS
10
-0.686535
20
-0.108028
11
-0.686086
21
-0.105768
0
LINE
8
BLACK
6
CONTINUOUS
10
-0.686086
20
-0.105768
11
-0.684806
21
-0.103852
0
LINE
8
BLACK
6
CONTINUOUS
10
-0.684806
20
-0.103852
11
-0.68289
21
-0.102572
0
LINE
8
BLACK
6
CONTINUOUS
10
-0.68289
20
-0.102572
11
-0.68063
21
-0.102122
0
LINE
8
BLACK
6
CONTINUOUS
10
-0.68063
20
-0.102122
11
-0.625512
21
-0.102122
0
LINE
8
BLACK
6
CONTINUOUS
10
-0.625512
20
-0.102122
11
-0.623252
21
-0.102572
0
LINE
8
BLACK
6
CONTINUOUS
10
-0.731981
20
-0.0221628
11
-0.728788
21
-0.0242963
0
LINE
8
BLACK
6
CONTINUOUS
10
-0.728788
20
-0.0242963
11
-0.726655
21
-0.0274895
0
LINE
8
BLACK
6
CONTINUOUS
10
-0.726655
20
-0.0274895
11
-0.725906
21
-0.0312561
0
LINE
8
BLACK
6
CONTINUOUS
10
-0.725906
20
-0.0312561
11
-0.725906
21
-0.0509411
0
LINE
8
BLACK
6
CONTINUOUS
10
-0.725906
20
-0.0509411
11
-0.726655
21
-0.0547077
0
LINE
8
BLACK
6
CONTINUOUS
10
-0.726655
20
-0.0547077
11
-0.728788
21
-0.0579008
0
LINE
8
BLACK
6
CONTINUOUS
10
-0.728788
20
-0.0579008
11
-0.731981
21
-0.0600344
0
LINE
8
BLACK
6
CONTINUOUS
10
-0.731981
20
-0.0600344
11
-0.735748
21
-0.0607836
0
LINE
8
BLACK
6
CONTINUOUS
10
-0.735748
20
-0.0607836
11
-0.822362
21
-0.0607836
0
LINE
8
BLACK
6
CONTINUOUS
10
-0.822362
20
-0.0607836
11
-0.826129
21
-0.0600344
0
LINE
8
BLACK
6
CONTINUOUS
10
-0.826129
20
-0.0600344
11
-0.829322
21
-0.0579008
0
LINE
8
BLACK
6
CONTINUOUS
10
-0.829322
20
-0.0579008
11
-0.831456
21
-0.0547077
0
LINE
8
BLACK
6
CONTINUOUS
10
-0.831456
20
-0.0547077
11
-0.832205
21
-0.0509411
0
LINE
8
BLACK
6
CONTINUOUS
10
-0.832205
20
-0.0509411
11
-0.832205
21
-0.0312561
0
LINE
8
BLACK
6
CONTINUOUS
10
-0.832205
20
-0.0312561
11
-0.831456
21
-0.0274895
0
LINE
8
BLACK
6
CONTINUOUS
10
-0.831456
20
-0.0274895
11
-0.829322
21
-0.0242963
0
LINE
8
BLACK
6
CONTINUOUS
10
-0.829322
20
-0.0242963
11
-0.826129
21
-0.0221628
0
LINE
8
BLACK
6
CONTINUOUS
10
-0.826129
20
-0.0221628
11
-0.822362
21
-0.0214135
0
LINE
8
BLACK
6
CONTINUOUS
10
-0.822362
20
-0.0214135
11
-0.735748
21
-0.0214135
0
LINE
8
BLACK
6
CONTINUOUS
10
-0.735748
20
-0.0214135
11
-0.731981
21
-0.0221628
0
LINE
8
BLACK
6
CONTINUOUS
10
-0.605748
20
-0.0537795
11
-0.62937
21
-0.0537795
0
LINE
8
BLACK
6
CONTINUOUS
10
-0.62937
20
-0.0537795
11
-0.62937
21
-0.0262205
0
LINE
8
BLACK
6
CONTINUOUS
10
-0.62937
20
-0.0262205
11
-0.605748
21
-0.0262205
0
LINE
8
BLACK
6
CONTINUOUS
10
-0.605748
20
-0.0262205
11
-0.605748
21
-0.0537795
0
LINE
8
BLACK
6
CONTINUOUS
10
-0.55063
20
-0.0537795
11
-0.574252
21
-0.0537795
0
LINE
8
BLACK
6
CONTINUOUS
10
-0.574252
20
-0.0537795
11
-0.574252
21
-0.0262205
0
LINE
8
BLACK
6
CONTINUOUS
10
-0.574252
20
-0.0262205
11
-0.55063
21
-0.0262205
0
LINE
8
BLACK
6
CONTINUOUS
10
-0.55063
20
-0.0262205
11
-0.55063
21
-0.0537795
0
LINE
8
BLACK
6
CONTINUOUS
10
-0.731981
20
0.0614987
11
-0.728788
21
0.0593651
0
LINE
8
BLACK
6
CONTINUOUS
10
-0.728788
20
0.0593651
11
-0.726655
21
0.0561719
0
LINE
8
BLACK
6
CONTINUOUS
10
-0.726655
20
0.0561719
11
-0.725906
21
0.0524054
0
LINE
8
BLACK
6
CONTINUOUS
10
-0.725906
20
0.0524054
11
-0.725906
21
0.0327203
0
LINE
8
BLACK
6
CONTINUOUS
10
-0.725906
20
0.0327203
11
-0.726655
21
0.0289537
0
LINE
8
BLACK
6
CONTINUOUS
10
-0.726655
20
0.0289537
11
-0.728788
21
0.0257606
0
LINE
8
BLACK
6
CONTINUOUS
10
-0.728788
20
0.0257606
11
-0.731981
21
0.023627
0
LINE
8
BLACK
6
CONTINUOUS
10
-0.731981
20
0.023627
11
-0.735748
21
0.0228778
0
LINE
8
BLACK
6
CONTINUOUS
10
-0.735748
20
0.0228778
11
-0.822362
21
0.0228778
0
LINE
8
BLACK
6
CONTINUOUS
10
-0.822362
20
0.0228778
11
-0.826129
21
0.023627
0
LINE
8
BLACK
6
CONTINUOUS
10
-0.826129
20
0.023627
11
-0.829322
21
0.0257606
0
LINE
8
BLACK
6
CONTINUOUS
10
-0.829322
20
0.0257606
11
-0.831456
21
0.0289537
0
LINE
8
BLACK
6
CONTINUOUS
10
-0.831456
20
0.0289537
11
-0.832205
21
0.0327203
0
LINE
8
BLACK
6
CONTINUOUS
10
-0.832205
20
0.0327203
11
-0.832205
21
0.0524054
0
LINE
8
BLACK
6
CONTINUOUS
10
-0.832205
20
0.0524054
11
-0.831456
21
0.0561719
0
LINE
8
BLACK
6
CONTINUOUS
10
-0.831456
20
0.0561719
11
-0.829322
21
0.0593651
0
LINE
8
BLACK
6
CONTINUOUS
10
-0.829322
20
0.0593651
11
-0.826129
21
0.0614987
0
LINE
8
BLACK
6
CONTINUOUS
10
-0.826129
20
0.0614987
11
-0.822362
21
0.0622479
0
LINE
8
BLACK
6
CONTINUOUS
10
-0.822362
20
0.0622479
11
-0.735748
21
0.0622479
0
LINE
8
BLACK
6
CONTINUOUS
10
-0.735748
20
0.0622479
11
-0.731981
21
0.0614987
0
LINE
8
BLACK
6
CONTINUOUS
10
-0.54724
20
0.0680265
11
-0.544366
21
0.0661063
0
LINE
8
BLACK
6
CONTINUOUS
10
-0.544366
20
0.0661063
11
-0.542446
21
0.0632324
0
LINE
8
BLACK
6
CONTINUOUS
10
-0.542446
20
0.0632324
11
-0.541772
21
0.0598425
0
LINE
8
BLACK
6
CONTINUOUS
10
-0.541772
20
0.0598425
11
-0.541772
21
0.0401575
0
LINE
8
BLACK
6
CONTINUOUS
10
-0.541772
20
0.0401575
11
-0.542446
21
0.0367676
0
LINE
8
BLACK
6
CONTINUOUS
10
-0.542446
20
0.0367676
11
-0.544366
21
0.0338937
0
LINE
8
BLACK
6
CONTINUOUS
10
-0.544366
20
0.0338937
11
-0.54724
21
0.0319735
0
LINE
8
BLACK
6
CONTINUOUS
10
-0.54724
20
0.0319735
11
-0.55063
21
0.0312992
0
LINE
8
BLACK
6
CONTINUOUS
10
-0.55063
20
0.0312992
11
-0.568346
21
0.0312992
0
LINE
8
BLACK
6
CONTINUOUS
10
-0.568346
20
0.0312992
11
-0.571736
21
0.0319735
0
LINE
8
BLACK
6
CONTINUOUS
10
-0.571736
20
0.0319735
11
-0.57461
21
0.0338937
0
LINE
8
BLACK
6
CONTINUOUS
10
-0.57461
20
0.0338937
11
-0.57653
21
0.0367676
0
LINE
8
BLACK
6
CONTINUOUS
10
-0.57653
20
0.0367676
11
-0.577205
21
0.0401575
0
LINE
8
BLACK
6
CONTINUOUS
10
-0.577205
20
0.0401575
11
-0.577205
21
0.0598425
0
LINE
8
BLACK
6
CONTINUOUS
10
-0.577205
20
0.0598425
11
-0.57653
21
0.0632324
0
LINE
8
BLACK
6
CONTINUOUS
10
-0.57653
20
0.0632324
11
-0.57461
21
0.0661063
0
LINE
8
BLACK
6
CONTINUOUS
10
-0.57461
20
0.0661063
11
-0.571736
21
0.0680265
0
LINE
8
BLACK
6
CONTINUOUS
10
-0.571736
20
0.0680265
11
-0.568346
21
0.0687008
0
LINE
8
BLACK
6
CONTINUOUS
10
-0.568346
20
0.0687008
11
-0.55063
21
0.0687008
0
LINE
8
BLACK
6
CONTINUOUS
10
-0.55063
20
0.0687008
11
-0.54724
21
0.0680265
0
LINE
8
BLACK
6
CONTINUOUS
10
-0.608264
20
0.0680265
11
-0.60539
21
0.0661063
0
LINE
8
BLACK
6
CONTINUOUS
10
-0.60539
20
0.0661063
11
-0.60347
21
0.0632324
0
LINE
8
BLACK
6
CONTINUOUS
10
-0.60347
20
0.0632324
11
-0.602795
21
0.0598425
0
LINE
8
BLACK
6
CONTINUOUS
10
-0.602795
20
0.0598425
11
-0.602795
21
0.0401575
0
LINE
8
BLACK
6
CONTINUOUS
10
-0.602795
20
0.0401575
11
-0.60347
21
0.0367676
0
LINE
8
BLACK
6
CONTINUOUS
10
-0.60347
20
0.0367676
11
-0.60539
21
0.0338937
0
LINE
8
BLACK
6
CONTINUOUS
10
-0.60539
20
0.0338937
11
-0.608264
21
0.0319735
0
LINE
8
BLACK
6
CONTINUOUS
10
-0.608264
20
0.0319735
11
-0.611654
21
0.0312992
0
LINE
8
BLACK
6
CONTINUOUS
10
-0.611654
20
0.0312992
11
-0.62937
21
0.0312992
0
LINE
8
BLACK
6
CONTINUOUS
10
-0.62937
20
0.0312992
11
-0.63276
21
0.0319735
0
LINE
8
BLACK
6
CONTINUOUS
10
-0.63276
20
0.0319735
11
-0.635634
21
0.0338937
0
LINE
8
BLACK
6
CONTINUOUS
10
-0.635634
20
0.0338937
11
-0.637554
21
0.0367676
0
LINE
8
BLACK
6
CONTINUOUS
10
-0.637554
20
0.0367676
11
-0.638228
21
0.0401575
0
LINE
8
BLACK
6
CONTINUOUS
10
-0.638228
20
0.0401575
11
-0.638228
21
0.0598425
0
LINE
8
BLACK
6
CONTINUOUS
10
-0.638228
20
0.0598425
11
-0.637554
21
0.0632324
0
LINE
8
BLACK
6
CONTINUOUS
10
-0.637554
20
0.0632324
11
-0.635634
21
0.0661063
0
LINE
8
BLACK
6
CONTINUOUS
10
-0.635634
20
0.0661063
11
-0.63276
21
0.0680265
0
LINE
8
BLACK
6
CONTINUOUS
10
-0.63276
20
0.0680265
11
-0.62937
21
0.0687008
0
LINE
8
BLACK
6
CONTINUOUS
10
-0.62937
20
0.0687008
11
-0.611654
21
0.0687008
0
LINE
8
BLACK
6
CONTINUOUS
10
-0.611654
20
0.0687008
11
-0.608264
21
0.0680265
0
LINE
8
BLACK
6
CONTINUOUS
10
-0.160764
20
0.106416
11
-0.15789
21
0.104496
0
LINE
8
BLACK
6
CONTINUOUS
10
-0.15789
20
0.104496
11
-0.15597
21
0.101622
0
LINE
8
BLACK
6
CONTINUOUS
10
-0.15597
20
0.101622
11
-0.155295
21
0.0982321
0
LINE
8
BLACK
6
CONTINUOUS
10
-0.155295
20
0.0982321
11
-0.155295
21
0.0805156
0
LINE
8
BLACK
6
CONTINUOUS
10
-0.155295
20
0.0805156
11
-0.15597
21
0.0771257
0
LINE
8
BLACK
6
CONTINUOUS
10
-0.15597
20
0.0771257
11
-0.15789
21
0.0742519
0
LINE
8
BLACK
6
CONTINUOUS
10
-0.15789
20
0.0742519
11
-0.160764
21
0.0723316
0
LINE
8
BLACK
6
CONTINUOUS
10
-0.160764
20
0.0723316
11
-0.164154
21
0.0716573
0
LINE
8
BLACK
6
CONTINUOUS
10
-0.164154
20
0.0716573
11
-0.183839
21
0.0716573
0
LINE
8
BLACK
6
CONTINUOUS
10
-0.183839
20
0.0716573
11
-0.187229
21
0.0723316
0
LINE
8
BLACK
6
CONTINUOUS
10
-0.187229
20
0.0723316
11
-0.190102
21
0.0742519
0
LINE
8
BLACK
6
CONTINUOUS
10
-0.190102
20
0.0742519
11
-0.192023
21
0.0771257
0
LINE
8
BLACK
6
CONTINUOUS
10
-0.192023
20
0.0771257
11
-0.192697
21
0.0805156
0
LINE
8
BLACK
6
CONTINUOUS
10
-0.192697
20
0.0805156
11
-0.192697
21
0.0982321
0
LINE
8
BLACK
6
CONTINUOUS
10
-0.192697
20
0.0982321
11
-0.192023
21
0.101622
0
LINE
8
BLACK
6
CONTINUOUS
10
-0.192023
20
0.101622
11
-0.190102
21
0.104496
0
LINE
8
BLACK
6
CONTINUOUS
10
-0.190102
20
0.104496
11
-0.187229
21
0.106416
0
LINE
8
BLACK
6
CONTINUOUS
10
-0.187229
20
0.106416
11
-0.183839
21
0.10709
0
LINE
8
BLACK
6
CONTINUOUS
10
-0.183839
20
0.10709
11
-0.164154
21
0.10709
0
LINE
8
BLACK
6
CONTINUOUS
10
-0.164154
20
0.10709
11
-0.160764
21
0.106416
0
LINE
8
BLACK
6
CONTINUOUS
10
-0.623252
20
0.126759
11
-0.621336
21
0.125479
0
LINE
8
BLACK
6
CONTINUOUS
10
-0.621336
20
0.125479
11
-0.620056
21
0.123563
0
LINE
8
BLACK
6
CONTINUOUS
10
-0.620056
20
0.123563
11
-0.619606
21
0.121303
0
LINE
8
BLACK
6
CONTINUOUS
10
-0.619606
20
0.121303
11
-0.619606
21
0.109492
0
LINE
8
BLACK
6
CONTINUOUS
10
-0.619606
20
0.109492
11
-0.620056
21
0.107232
0
LINE
8
BLACK
6
CONTINUOUS
10
-0.620056
20
0.107232
11
-0.621336
21
0.105316
0
LINE
8
BLACK
6
CONTINUOUS
10
-0.621336
20
0.105316
11
-0.623252
21
0.104036
0
LINE
8
BLACK
6
CONTINUOUS
10
-0.623252
20
0.104036
11
-0.625512
21
0.103586
0
LINE
8
BLACK
6
CONTINUOUS
10
-0.625512
20
0.103586
11
-0.68063
21
0.103586
0
LINE
8
BLACK
6
CONTINUOUS
10
-0.68063
20
0.103586
11
-0.68289
21
0.104036
0
LINE
8
BLACK
6
CONTINUOUS
10
-0.68289
20
0.104036
11
-0.684806
21
0.105316
0
LINE
8
BLACK
6
CONTINUOUS
10
-0.684806
20
0.105316
11
-0.686086
21
0.107232
0
LINE
8
BLACK
6
CONTINUOUS
10
-0.686086
20
0.107232
11
-0.686535
21
0.109492
0
LINE
8
BLACK
6
CONTINUOUS
10
-0.686535
20
0.109492
11
-0.686535
21
0.121303
0
LINE
8
BLACK
6
CONTINUOUS
10
-0.686535
20
0.121303
11
-0.686086
21
0.123563
0
LINE
8
BLACK
6
CONTINUOUS
10
-0.686086
20
0.123563
11
-0.684806
21
0.125479
0
LINE
8
BLACK
6
CONTINUOUS
10
-0.684806
20
0.125479
11
-0.68289
21
0.126759
0
LINE
8
BLACK
6
CONTINUOUS
10
-0.68289
20
0.126759
11
-0.68063
21
0.127209
0
LINE
8
BLACK
6
CONTINUOUS
10
-0.68063
20
0.127209
11
-0.625512
21
0.127209
0
LINE
8
BLACK
6
CONTINUOUS
10
-0.625512
20
0.127209
11
-0.623252
21
0.126759
0
LINE
8
BLACK
6
CONTINUOUS
10
-0.160764
20
0.16744
11
-0.15789
21
0.165519
0
LINE
8
BLACK
6
CONTINUOUS
10
-0.15789
20
0.165519
11
-0.15597
21
0.162646
0
LINE
8
BLACK
6
CONTINUOUS
10
-0.15597
20
0.162646
11
-0.155295
21
0.159256
0
LINE
8
BLACK
6
CONTINUOUS
10
-0.155295
20
0.159256
11
-0.155295
21
0.141539
0
LINE
8
BLACK
6
CONTINUOUS
10
-0.155295
20
0.141539
11
-0.15597
21
0.138149
0
LINE
8
BLACK
6
CONTINUOUS
10
-0.15597
20
0.138149
11
-0.15789
21
0.135275
0
LINE
8
BLACK
6
CONTINUOUS
10
-0.15789
20
0.135275
11
-0.160764
21
0.133355
0
LINE
8
BLACK
6
CONTINUOUS
10
-0.160764
20
0.133355
11
-0.164154
21
0.132681
0
LINE
8
BLACK
6
CONTINUOUS
10
-0.164154
20
0.132681
11
-0.183839
21
0.132681
0
LINE
8
BLACK
6
CONTINUOUS
10
-0.183839
20
0.132681
11
-0.187229
21
0.133355
0
LINE
8
BLACK
6
CONTINUOUS
10
-0.187229
20
0.133355
11
-0.190102
21
0.135275
0
LINE
8
BLACK
6
CONTINUOUS
10
-0.190102
20
0.135275
11
-0.192023
21
0.138149
0
LINE
8
BLACK
6
CONTINUOUS
10
-0.192023
20
0.138149
11
-0.192697
21
0.141539
0
LINE
8
BLACK
6
CONTINUOUS
10
-0.192697
20
0.141539
11
-0.192697
21
0.159256
0
LINE
8
BLACK
6
CONTINUOUS
10
-0.192697
20
0.159256
11
-0.192023
21
0.162646
0
LINE
8
BLACK
6
CONTINUOUS
10
-0.192023
20
0.162646
11
-0.190102
21
0.165519
0
LINE
8
BLACK
6
CONTINUOUS
10
-0.190102
20
0.165519
11
-0.187229
21
0.16744
0
LINE
8
BLACK
6
CONTINUOUS
10
-0.187229
20
0.16744
11
-0.183839
21
0.168114
0
LINE
8
BLACK
6
CONTINUOUS
10
-0.183839
20
0.168114
11
-0.164154
21
0.168114
0
LINE
8
BLACK
6
CONTINUOUS
10
-0.164154
20
0.168114
11
-0.160764
21
0.16744
0
LINE
8
BLACK
6
CONTINUOUS
10
-0.334841
20
0.253977
11
-0.330702
21
0.252147
0
LINE
8
BLACK
6
CONTINUOUS
10
-0.330702
20
0.252147
11
-0.32738
21
0.249075
0
LINE
8
BLACK
6
CONTINUOUS
10
-0.32738
20
0.249075
11
-0.325231
21
0.245093
0
LINE
8
BLACK
6
CONTINUOUS
10
-0.325231
20
0.245093
11
-0.324488
21
0.24063
0
LINE
8
BLACK
6
CONTINUOUS
10
-0.324488
20
0.24063
11
-0.324488
21
0.165827
0
LINE
8
BLACK
6
CONTINUOUS
10
-0.324488
20
0.165827
11
-0.324693
21
0.163458
0
LINE
8
BLACK
6
CONTINUOUS
10
-0.324693
20
0.163458
11
-0.326193
21
0.159188
0
LINE
8
BLACK
6
CONTINUOUS
10
-0.326193
20
0.159188
11
-0.328994
21
0.155635
0
LINE
8
BLACK
6
CONTINUOUS
10
-0.328994
20
0.155635
11
-0.332795
21
0.153181
0
LINE
8
BLACK
6
CONTINUOUS
10
-0.332795
20
0.153181
11
-0.337187
21
0.15209
0
LINE
8
BLACK
6
CONTINUOUS
10
-0.337187
20
0.15209
11
-0.341695
21
0.15248
0
LINE
8
BLACK
6
CONTINUOUS
10
-0.341695
20
0.15248
11
-0.345833
21
0.15431
0
LINE
8
BLACK
6
CONTINUOUS
10
-0.345833
20
0.15431
11
-0.349156
21
0.157381
0
LINE
8
BLACK
6
CONTINUOUS
10
-0.349156
20
0.157381
11
-0.351304
21
0.161363
0
LINE
8
BLACK
6
CONTINUOUS
10
-0.351304
20
0.161363
11
-0.352047
21
0.165827
0
LINE
8
BLACK
6
CONTINUOUS
10
-0.352047
20
0.165827
11
-0.352047
21
0.24063
0
LINE
8
BLACK
6
CONTINUOUS
10
-0.352047
20
0.24063
11
-0.351842
21
0.242999
0
LINE
8
BLACK
6
CONTINUOUS
10
-0.351842
20
0.242999
11
-0.350343
21
0.247268
0
LINE
8
BLACK
6
CONTINUOUS
10
-0.350343
20
0.247268
11
-0.347541
21
0.250822
0
LINE
8
BLACK
6
CONTINUOUS
10
-0.347541
20
0.250822
11
-0.34374
21
0.253276
0
LINE
8
BLACK
6
CONTINUOUS
10
-0.34374
20
0.253276
11
-0.339349
21
0.254367
0
LINE
8
BLACK
6
CONTINUOUS
10
-0.339349
20
0.254367
11
-0.334841
21
0.253977
0
LINE
8
BLACK
6
CONTINUOUS
10
-0.2874
20
0.253977
11
-0.283261
21
0.252147
0
LINE
8
BLACK
6
CONTINUOUS
10
-0.283261
20
0.252147
11
-0.279939
21
0.249075
0
LINE
8
BLACK
6
CONTINUOUS
10
-0.279939
20
0.249075
11
-0.27779
21
0.245093
0
LINE
8
BLACK
6
CONTINUOUS
10
-0.27779
20
0.245093
11
-0.277047
21
0.24063
0
LINE
8
BLACK
6
CONTINUOUS
10
-0.277047
20
0.24063
11
-0.277047
21
0.165827
0
LINE
8
BLACK
6
CONTINUOUS
10
-0.277047
20
0.165827
11
-0.277252
21
0.163458
0
LINE
8
BLACK
6
CONTINUOUS
10
-0.277252
20
0.163458
11
-0.278752
21
0.159188
0
LINE
8
BLACK
6
CONTINUOUS
10
-0.278752
20
0.159188
11
-0.281553
21
0.155635
0
LINE
8
BLACK
6
CONTINUOUS
10
-0.281553
20
0.155635
11
-0.285354
21
0.153181
0
LINE
8
BLACK
6
CONTINUOUS
10
-0.285354
20
0.153181
11
-0.289746
21
0.15209
0
LINE
8
BLACK
6
CONTINUOUS
10
-0.289746
20
0.15209
11
-0.294254
21
0.15248
0
LINE
8
BLACK
6
CONTINUOUS
10
-0.294254
20
0.15248
11
-0.298392
21
0.15431
0
LINE
8
BLACK
6
CONTINUOUS
10
-0.298392
20
0.15431
11
-0.301715
21
0.157381
0
LINE
8
BLACK
6
CONTINUOUS
10
-0.301715
20
0.157381
11
-0.303863
21
0.161363
0
LINE
8
BLACK
6
CONTINUOUS
10
-0.303863
20
0.161363
11
-0.304606
21
0.165827
0
LINE
8
BLACK
6
CONTINUOUS
10
-0.304606
20
0.165827
11
-0.304606
21
0.24063
0
LINE
8
BLACK
6
CONTINUOUS
10
-0.304606
20
0.24063
11
-0.304401
21
0.242999
0
LINE
8
BLACK
6
CONTINUOUS
10
-0.304401
20
0.242999
11
-0.302902
21
0.247268
0
LINE
8
BLACK
6
CONTINUOUS
10
-0.302902
20
0.247268
11
-0.300101
21
0.250822
0
LINE
8
BLACK
6
CONTINUOUS
10
-0.300101
20
0.250822
11
-0.296299
21
0.253276
0
LINE
8
BLACK
6
CONTINUOUS
10
-0.296299
20
0.253276
11
-0.291908
21
0.254367
0
LINE
8
BLACK
6
CONTINUOUS
10
-0.291908
20
0.254367
11
-0.2874
21
0.253977
0
LINE
8
BLACK
6
CONTINUOUS
10
-0.3874
20
0.253977
11
-0.383261
21
0.252147
0
LINE
8
BLACK
6
CONTINUOUS
10
-0.383261
20
0.252147
11
-0.379939
21
0.249075
0
LINE
8
BLACK
6
CONTINUOUS
10
-0.379939
20
0.249075
11
-0.37779
21
0.245093
0
LINE
8
BLACK
6
CONTINUOUS
10
-0.37779
20
0.245093
11
-0.377047
21
0.24063
0
LINE
8
BLACK
6
CONTINUOUS
10
-0.377047
20
0.24063
11
-0.377047
21
0.165827
0
LINE
8
BLACK
6
CONTINUOUS
10
-0.377047
20
0.165827
11
-0.377252
21
0.163458
0
LINE
8
BLACK
6
CONTINUOUS
10
-0.377252
20
0.163458
11
-0.378752
21
0.159188
0
LINE
8
BLACK
6
CONTINUOUS
10
-0.378752
20
0.159188
11
-0.381553
21
0.155635
0
LINE
8
BLACK
6
CONTINUOUS
10
-0.381553
20
0.155635
11
-0.385354
21
0.153181
0
LINE
8
BLACK
6
CONTINUOUS
10
-0.385354
20
0.153181
11
-0.389746
21
0.15209
0
LINE
8
BLACK
6
CONTINUOUS
10
-0.389746
20
0.15209
11
-0.394254
21
0.15248
0
LINE
8
BLACK
6
CONTINUOUS
10
-0.394254
20
0.15248
11
-0.398392
21
0.15431
0
LINE
8
BLACK
6
CONTINUOUS
10
-0.398392
20
0.15431
11
-0.401715
21
0.157381
0
LINE
8
BLACK
6
CONTINUOUS
10
-0.401715
20
0.157381
11
-0.403863
21
0.161363
0
LINE
8
BLACK
6
CONTINUOUS
10
-0.403863
20
0.161363
11
-0.404606
21
0.165827
0
LINE
8
BLACK
6
CONTINUOUS
10
-0.404606
20
0.165827
11
-0.404606
21
0.24063
0
LINE
8
BLACK
6
CONTINUOUS
10
-0.404606
20
0.24063
11
-0.404401
21
0.242999
0
LINE
8
BLACK
6
CONTINUOUS
10
-0.404401
20
0.242999
11
-0.402902
21
0.247268
0
LINE
8
BLACK
6
CONTINUOUS
10
-0.402902
20
0.247268
11
-0.400101
21
0.250822
0
LINE
8
BLACK
6
CONTINUOUS
10
-0.400101
20
0.250822
11
-0.396299
21
0.253276
0
LINE
8
BLACK
6
CONTINUOUS
10
-0.396299
20
0.253276
11
-0.391908
21
0.254367
0
LINE
8
BLACK
6
CONTINUOUS
10
-0.391908
20
0.254367
11
-0.3874
21
0.253977
0
LINE
8
BLACK
6
CONTINUOUS
10
-0.4374
20
0.253977
11
-0.433261
21
0.252147
0
LINE
8
BLACK
6
CONTINUOUS
10
-0.433261
20
0.252147
11
-0.429939
21
0.249075
0
LINE
8
BLACK
6
CONTINUOUS
10
-0.429939
20
0.249075
11
-0.42779
21
0.245093
0
LINE
8
BLACK
6
CONTINUOUS
10
-0.42779
20
0.245093
11
-0.427047
21
0.24063
0
LINE
8
BLACK
6
CONTINUOUS
10
-0.427047
20
0.24063
11
-0.427047
21
0.165827
0
LINE
8
BLACK
6
CONTINUOUS
10
-0.427047
20
0.165827
11
-0.427252
21
0.163458
0
LINE
8
BLACK
6
CONTINUOUS
10
-0.427252
20
0.163458
11
-0.428752
21
0.159188
0
LINE
8
BLACK
6
CONTINUOUS
10
-0.428752
20
0.159188
11
-0.431553
21
0.155635
0
LINE
8
BLACK
6
CONTINUOUS
10
-0.431553
20
0.155635
11
-0.435354
21
0.153181
0
LINE
8
BLACK
6
CONTINUOUS
10
-0.435354
20
0.153181
11
-0.439746
21
0.15209
0
LINE
8
BLACK
6
CONTINUOUS
10
-0.439746
20
0.15209
11
-0.444254
21
0.15248
0
LINE
8
BLACK
6
CONTINUOUS
10
-0.444254
20
0.15248
11
-0.448392
21
0.15431
0
LINE
8
BLACK
6
CONTINUOUS
10
-0.448392
20
0.15431
11
-0.451715
21
0.157381
0
LINE
8
BLACK
6
CONTINUOUS
10
-0.451715
20
0.157381
11
-0.453863
21
0.161363
0
LINE
8
BLACK
6
CONTINUOUS
10
-0.453863
20
0.161363
11
-0.454606
21
0.165827
0
LINE
8
BLACK
6
CONTINUOUS
10
-0.454606
20
0.165827
11
-0.454606
21
0.24063
0
LINE
8
BLACK
6
CONTINUOUS
10
-0.454606
20
0.24063
11
-0.454401
21
0.242999
0
LINE
8
BLACK
6
CONTINUOUS
10
-0.454401
20
0.242999
11
-0.452902
21
0.247268
0
LINE
8
BLACK
6
CONTINUOUS
10
-0.452902
20
0.247268
11
-0.450101
21
0.250822
0
LINE
8
BLACK
6
CONTINUOUS
10
-0.450101
20
0.250822
11
-0.446299
21
0.253276
0
LINE
8
BLACK
6
CONTINUOUS
10
-0.446299
20
0.253276
11
-0.441908
21
0.254367
0
LINE
8
BLACK
6
CONTINUOUS
10
-0.441908
20
0.254367
11
-0.4374
21
0.253977
0
LINE
8
BLACK
6
CONTINUOUS
10
-0.623252
20
0.175972
11
-0.621336
21
0.174691
0
LINE
8
BLACK
6
CONTINUOUS
10
-0.621336
20
0.174691
11
-0.620056
21
0.172776
0
LINE
8
BLACK
6
CONTINUOUS
10
-0.620056
20
0.172776
11
-0.619606
21
0.170516
0
LINE
8
BLACK
6
CONTINUOUS
10
-0.619606
20
0.170516
11
-0.619606
21
0.158705
0
LINE
8
BLACK
6
CONTINUOUS
10
-0.619606
20
0.158705
11
-0.620056
21
0.156445
0
LINE
8
BLACK
6
CONTINUOUS
10
-0.620056
20
0.156445
11
-0.621336
21
0.154529
0
LINE
8
BLACK
6
CONTINUOUS
10
-0.621336
20
0.154529
11
-0.623252
21
0.153249
0
LINE
8
BLACK
6
CONTINUOUS
10
-0.623252
20
0.153249
11
-0.625512
21
0.152799
0
LINE
8
BLACK
6
CONTINUOUS
10
-0.625512
20
0.152799
11
-0.68063
21
0.152799
0
LINE
8
BLACK
6
CONTINUOUS
10
-0.68063
20
0.152799
11
-0.68289
21
0.153249
0
LINE
8
BLACK
6
CONTINUOUS
10
-0.68289
20
0.153249
11
-0.684806
21
0.154529
0
LINE
8
BLACK
6
CONTINUOUS
10
-0.684806
20
0.154529
11
-0.686086
21
0.156445
0
LINE
8
BLACK
6
CONTINUOUS
10
-0.686086
20
0.156445
11
-0.686535
21
0.158705
0
LINE
8
BLACK
6
CONTINUOUS
10
-0.686535
20
0.158705
11
-0.686535
21
0.170516
0
LINE
8
BLACK
6
CONTINUOUS
10
-0.686535
20
0.170516
11
-0.686086
21
0.172776
0
LINE
8
BLACK
6
CONTINUOUS
10
-0.686086
20
0.172776
11
-0.684806
21
0.174691
0
LINE
8
BLACK
6
CONTINUOUS
10
-0.684806
20
0.174691
11
-0.68289
21
0.175972
0
LINE
8
BLACK
6
CONTINUOUS
10
-0.68289
20
0.175972
11
-0.68063
21
0.176421
0
LINE
8
BLACK
6
CONTINUOUS
10
-0.68063
20
0.176421
11
-0.625512
21
0.176421
0
LINE
8
BLACK
6
CONTINUOUS
10
-0.625512
20
0.176421
11
-0.623252
21
0.175972
0
LINE
8
BLACK
6
CONTINUOUS
10
0.201483
20
0.240396
11
0.204676
21
0.238263
0
LINE
8
BLACK
6
CONTINUOUS
10
0.204676
20
0.238263
11
0.20681
21
0.23507
0
LINE
8
BLACK
6
CONTINUOUS
10
0.20681
20
0.23507
11
0.207559
21
0.231303
0
LINE
8
BLACK
6
CONTINUOUS
10
0.207559
20
0.231303
11
0.207559
21
0.210634
0
LINE
8
BLACK
6
CONTINUOUS
10
0.207559
20
0.210634
11
0.20681
21
0.206867
0
LINE
8
BLACK
6
CONTINUOUS
10
0.20681
20
0.206867
11
0.204676
21
0.203674
0
LINE
8
BLACK
6
CONTINUOUS
10
0.204676
20
0.203674
11
0.201483
21
0.20154
0
LINE
8
BLACK
6
CONTINUOUS
10
0.201483
20
0.20154
11
0.197717
21
0.200791
0
LINE
8
BLACK
6
CONTINUOUS
10
0.197717
20
0.200791
11
0.162283
21
0.200791
0
LINE
8
BLACK
6
CONTINUOUS
10
0.162283
20
0.200791
11
0.158517
21
0.20154
0
LINE
8
BLACK
6
CONTINUOUS
10
0.158517
20
0.20154
11
0.155324
21
0.203674
0
LINE
8
BLACK
6
CONTINUOUS
10
0.155324
20
0.203674
11
0.15319
21
0.206867
0
LINE
8
BLACK
6
CONTINUOUS
10
0.15319
20
0.206867
11
0.152441
21
0.210634
0
LINE
8
BLACK
6
CONTINUOUS
10
0.152441
20
0.210634
11
0.152441
21
0.231303
0
LINE
8
BLACK
6
CONTINUOUS
10
0.152441
20
0.231303
11
0.15319
21
0.23507
0
LINE
8
BLACK
6
CONTINUOUS
10
0.15319
20
0.23507
11
0.155324
21
0.238263
0
LINE
8
BLACK
6
CONTINUOUS
10
0.155324
20
0.238263
11
0.158517
21
0.240396
0
LINE
8
BLACK
6
CONTINUOUS
10
0.158517
20
0.240396
11
0.162283
21
0.241146
0
LINE
8
BLACK
6
CONTINUOUS
10
0.162283
20
0.241146
11
0.197717
21
0.241146
0
LINE
8
BLACK
6
CONTINUOUS
10
0.197717
20
0.241146
11
0.201483
21
0.240396
0
LINE
8
BLACK
6
CONTINUOUS
10
0.376129
20
0.240396
11
0.379322
21
0.238263
0
LINE
8
BLACK
6
CONTINUOUS
10
0.379322
20
0.238263
11
0.381456
21
0.23507
0
LINE
8
BLACK
6
CONTINUOUS
10
0.381456
20
0.23507
11
0.382205
21
0.231303
0
LINE
8
BLACK
6
CONTINUOUS
10
0.382205
20
0.231303
11
0.382205
21
0.210634
0
LINE
8
BLACK
6
CONTINUOUS
10
0.382205
20
0.210634
11
0.381456
21
0.206867
0
LINE
8
BLACK
6
CONTINUOUS
10
0.381456
20
0.206867
11
0.379322
21
0.203674
0
LINE
8
BLACK
6
CONTINUOUS
10
0.379322
20
0.203674
11
0.376129
21
0.20154
0
LINE
8
BLACK
6
CONTINUOUS
10
0.376129
20
0.20154
11
0.372362
21
0.200791
0
LINE
8
BLACK
6
CONTINUOUS
10
0.372362
20
0.200791
11
0.336929
21
0.200791
0
LINE
8
BLACK
6
CONTINUOUS
10
0.336929
20
0.200791
11
0.333163
21
0.20154
0
LINE
8
BLACK
6
CONTINUOUS
10
0.333163
20
0.20154
11
0.329969
21
0.203674
0
LINE
8
BLACK
6
CONTINUOUS
10
0.329969
20
0.203674
11
0.327836
21
0.206867
0
LINE
8
BLACK
6
CONTINUOUS
10
0.327836
20
0.206867
11
0.327087
21
0.210634
0
LINE
8
BLACK
6
CONTINUOUS
10
0.327087
20
0.210634
11
0.327087
21
0.231303
0
LINE
8
BLACK
6
CONTINUOUS
10
0.327087
20
0.231303
11
0.327836
21
0.23507
0
LINE
8
BLACK
6
CONTINUOUS
10
0.327836
20
0.23507
11
0.329969
21
0.238263
0
LINE
8
BLACK
6
CONTINUOUS
10
0.329969
20
0.238263
11
0.333163
21
0.240396
0
LINE
8
BLACK
6
CONTINUOUS
10
0.333163
20
0.240396
11
0.336929
21
0.241146
0
LINE
8
BLACK
6
CONTINUOUS
10
0.336929
20
0.241146
11
0.372362
21
0.241146
0
LINE
8
BLACK
6
CONTINUOUS
10
0.372362
20
0.241146
11
0.376129
21
0.240396
0
LINE
8
BLACK
6
CONTINUOUS
10
-0.623252
20
0.225184
11
-0.621336
21
0.223904
0
LINE
8
BLACK
6
CONTINUOUS
10
-0.621336
20
0.223904
11
-0.620056
21
0.221988
0
LINE
8
BLACK
6
CONTINUOUS
10
-0.620056
20
0.221988
11
-0.619606
21
0.219728
0
LINE
8
BLACK
6
CONTINUOUS
10
-0.619606
20
0.219728
11
-0.619606
21
0.207917
0
LINE
8
BLACK
6
CONTINUOUS
10
-0.619606
20
0.207917
11
-0.620056
21
0.205657
0
LINE
8
BLACK
6
CONTINUOUS
10
-0.620056
20
0.205657
11
-0.621336
21
0.203741
0
LINE
8
BLACK
6
CONTINUOUS
10
-0.621336
20
0.203741
11
-0.623252
21
0.202461
0
LINE
8
BLACK
6
CONTINUOUS
10
-0.623252
20
0.202461
11
-0.625512
21
0.202012
0
LINE
8
BLACK
6
CONTINUOUS
10
-0.625512
20
0.202012
11
-0.68063
21
0.202012
0
LINE
8
BLACK
6
CONTINUOUS
10
-0.68063
20
0.202012
11
-0.68289
21
0.202461
0
LINE
8
BLACK
6
CONTINUOUS
10
-0.68289
20
0.202461
11
-0.684806
21
0.203741
0
LINE
8
BLACK
6
CONTINUOUS
10
-0.684806
20
0.203741
11
-0.686086
21
0.205657
0
LINE
8
BLACK
6
CONTINUOUS
10
-0.686086
20
0.205657
11
-0.686535
21
0.207917
0
LINE
8
BLACK
6
CONTINUOUS
10
-0.686535
20
0.207917
11
-0.686535
21
0.219728
0
LINE
8
BLACK
6
CONTINUOUS
10
-0.686535
20
0.219728
11
-0.686086
21
0.221988
0
LINE
8
BLACK
6
CONTINUOUS
10
-0.686086
20
0.221988
11
-0.684806
21
0.223904
0
LINE
8
BLACK
6
CONTINUOUS
10
-0.684806
20
0.223904
11
-0.68289
21
0.225184
0
LINE
8
BLACK
6
CONTINUOUS
10
-0.68289
20
0.225184
11
-0.68063
21
0.225634
0
LINE
8
BLACK
6
CONTINUOUS
10
-0.68063
20
0.225634
11
-0.625512
21
0.225634
0
LINE
8
BLACK
6
CONTINUOUS
10
-0.625512
20
0.225634
11
-0.623252
21
0.225184
0
LINE
8
BLACK
6
CONTINUOUS
10
0.280555
20
0.243424
11
0.283429
21
0.241504
0
LINE
8
BLACK
6
CONTINUOUS
10
0.283429
20
0.241504
11
0.285349
21
0.23863
0
LINE
8
BLACK
6
CONTINUOUS
10
0.285349
20
0.23863
11
0.286024
21
0.23524
0
LINE
8
BLACK
6
CONTINUOUS
10
0.286024
20
0.23524
11
0.286024
21
0.217523
0
LINE
8
BLACK
6
CONTINUOUS
10
0.286024
20
0.217523
11
0.285349
21
0.214134
0
LINE
8
BLACK
6
CONTINUOUS
10
0.285349
20
0.214134
11
0.283429
21
0.21126
0
LINE
8
BLACK
6
CONTINUOUS
10
0.283429
20
0.21126
11
0.280555
21
0.209339
0
LINE
8
BLACK
6
CONTINUOUS
10
0.280555
20
0.209339
11
0.277165
21
0.208665
0
LINE
8
BLACK
6
CONTINUOUS
10
0.277165
20
0.208665
11
0.25748
21
0.208665
0
LINE
8
BLACK
6
CONTINUOUS
10
0.25748
20
0.208665
11
0.25409
21
0.209339
0
LINE
8
BLACK
6
CONTINUOUS
10
0.25409
20
0.209339
11
0.251217
21
0.21126
0
LINE
8
BLACK
6
CONTINUOUS
10
0.251217
20
0.21126
11
0.249296
21
0.214134
0
LINE
8
BLACK
6
CONTINUOUS
10
0.249296
20
0.214134
11
0.248622
21
0.217523
0
LINE
8
BLACK
6
CONTINUOUS
10
0.248622
20
0.217523
11
0.248622
21
0.23524
0
LINE
8
BLACK
6
CONTINUOUS
10
0.248622
20
0.23524
11
0.249296
21
0.23863
0
LINE
8
BLACK
6
CONTINUOUS
10
0.249296
20
0.23863
11
0.251217
21
0.241504
0
LINE
8
BLACK
6
CONTINUOUS
10
0.251217
20
0.241504
11
0.25409
21
0.243424
0
LINE
8
BLACK
6
CONTINUOUS
10
0.25409
20
0.243424
11
0.25748
21
0.244098
0
LINE
8
BLACK
6
CONTINUOUS
10
0.25748
20
0.244098
11
0.277165
21
0.244098
0
LINE
8
BLACK
6
CONTINUOUS
10
0.277165
20
0.244098
11
0.280555
21
0.243424
0
LINE
8
BLACK
6
CONTINUOUS
10
-0.161795
20
0.236759
11
-0.159879
21
0.235479
0
LINE
8
BLACK
6
CONTINUOUS
10
-0.159879
20
0.235479
11
-0.158599
21
0.233563
0
LINE
8
BLACK
6
CONTINUOUS
10
-0.158599
20
0.233563
11
-0.15815
21
0.231303
0
LINE
8
BLACK
6
CONTINUOUS
10
-0.15815
20
0.231303
11
-0.15815
21
0.219492
0
LINE
8
BLACK
6
CONTINUOUS
10
-0.15815
20
0.219492
11
-0.158599
21
0.217232
0
LINE
8
BLACK
6
CONTINUOUS
10
-0.158599
20
0.217232
11
-0.159879
21
0.215316
0
LINE
8
BLACK
6
CONTINUOUS
10
-0.159879
20
0.215316
11
-0.161795
21
0.214036
0
LINE
8
BLACK
6
CONTINUOUS
10
-0.161795
20
0.214036
11
-0.164055
21
0.213586
0
LINE
8
BLACK
6
CONTINUOUS
10
-0.164055
20
0.213586
11
-0.204409
21
0.213586
0
LINE
8
BLACK
6
CONTINUOUS
10
-0.204409
20
0.213586
11
-0.206669
21
0.214036
0
LINE
8
BLACK
6
CONTINUOUS
10
-0.206669
20
0.214036
11
-0.208585
21
0.215316
0
LINE
8
BLACK
6
CONTINUOUS
10
-0.208585
20
0.215316
11
-0.209865
21
0.217232
0
LINE
8
BLACK
6
CONTINUOUS
10
-0.209865
20
0.217232
11
-0.210315
21
0.219492
0
LINE
8
BLACK
6
CONTINUOUS
10
-0.210315
20
0.219492
11
-0.210315
21
0.231303
0
LINE
8
BLACK
6
CONTINUOUS
10
-0.210315
20
0.231303
11
-0.209865
21
0.233563
0
LINE
8
BLACK
6
CONTINUOUS
10
-0.209865
20
0.233563
11
-0.208585
21
0.235479
0
LINE
8
BLACK
6
CONTINUOUS
10
-0.208585
20
0.235479
11
-0.206669
21
0.236759
0
LINE
8
BLACK
6
CONTINUOUS
10
-0.206669
20
0.236759
11
-0.204409
21
0.237209
0
LINE
8
BLACK
6
CONTINUOUS
10
-0.204409
20
0.237209
11
-0.164055
21
0.237209
0
LINE
8
BLACK
6
CONTINUOUS
10
-0.164055
20
0.237209
11
-0.161795
21
0.236759
0
LINE
8
BLACK
6
CONTINUOUS
10
-0.0722282
20
0.236759
11
-0.0703124
21
0.235479
0
LINE
8
BLACK
6
CONTINUOUS
10
-0.0703124
20
0.235479
11
-0.0690322
21
0.233563
0
LINE
8
BLACK
6
CONTINUOUS
10
-0.0690322
20
0.233563
11
-0.0685827
21
0.231303
0
LINE
8
BLACK
6
CONTINUOUS
10
-0.0685827
20
0.231303
11
-0.0685827
21
0.219492
0
LINE
8
BLACK
6
CONTINUOUS
10
-0.0685827
20
0.219492
11
-0.0690322
21
0.217232
0
LINE
8
BLACK
6
CONTINUOUS
10
-0.0690322
20
0.217232
11
-0.0703124
21
0.215316
0
LINE
8
BLACK
6
CONTINUOUS
10
-0.0703124
20
0.215316
11
-0.0722282
21
0.214036
0
LINE
8
BLACK
6
CONTINUOUS
10
-0.0722282
20
0.214036
11
-0.0744882
21
0.213586
0
LINE
8
BLACK
6
CONTINUOUS
10
-0.0744882
20
0.213586
11
-0.114843
21
0.213586
0
LINE
8
BLACK
6
CONTINUOUS
10
-0.114843
20
0.213586
11
-0.117102
21
0.214036
0
LINE
8
BLACK
6
CONTINUOUS
10
-0.117102
20
0.214036
11
-0.119018
21
0.215316
0
LINE
8
BLACK
6
CONTINUOUS
10
-0.119018
20
0.215316
11
-0.120299
21
0.217232
0
LINE
8
BLACK
6
CONTINUOUS
10
-0.120299
20
0.217232
11
-0.120748
21
0.219492
0
LINE
8
BLACK
6
CONTINUOUS
10
-0.120748
20
0.219492
11
-0.120748
21
0.231303
0
LINE
8
BLACK
6
CONTINUOUS
10
-0.120748
20
0.231303
11
-0.120299
21
0.233563
0
LINE
8
BLACK
6
CONTINUOUS
10
-0.120299
20
0.233563
11
-0.119018
21
0.235479
0
LINE
8
BLACK
6
CONTINUOUS
10
-0.119018
20
0.235479
11
-0.117102
21
0.236759
0
LINE
8
BLACK
6
CONTINUOUS
10
-0.117102
20
0.236759
11
-0.114843
21
0.237209
0
LINE
8
BLACK
6
CONTINUOUS
10
-0.114843
20
0.237209
11
-0.0744882
21
0.237209
0
LINE
8
BLACK
6
CONTINUOUS
10
-0.0744882
20
0.237209
11
-0.0722282
21
0.236759
0
LINE
8
BLACK
6
CONTINUOUS
10
0.00173638
20
0.253266
11
0.0046102
21
0.251346
0
LINE
8
BLACK
6
CONTINUOUS
10
0.0046102
20
0.251346
11
0.00653043
21
0.248472
0
LINE
8
BLACK
6
CONTINUOUS
10
0.00653043
20
0.248472
11
0.00720472
21
0.245083
0
LINE
8
BLACK
6
CONTINUOUS
10
0.00720472
20
0.245083
11
0.00720472
21
0.227366
0
LINE
8
BLACK
6
CONTINUOUS
10
0.00720472
20
0.227366
11
0.00653043
21
0.223976
0
LINE
8
BLACK
6
CONTINUOUS
10
0.00653043
20
0.223976
11
0.0046102
21
0.221102
0
LINE
8
BLACK
6
CONTINUOUS
10
0.0046102
20
0.221102
11
0.00173638
21
0.219182
0
LINE
8
BLACK
6
CONTINUOUS
10
0.00173638
20
0.219182
11
-0.00165354
21
0.218508
0
LINE
8
BLACK
6
CONTINUOUS
10
-0.00165354
20
0.218508
11
-0.0213386
21
0.218508
0
LINE
8
BLACK
6
CONTINUOUS
10
-0.0213386
20
0.218508
11
-0.0247285
21
0.219182
0
LINE
8
BLACK
6
CONTINUOUS
10
-0.0247285
20
0.219182
11
-0.0276023
21
0.221102
0
LINE
8
BLACK
6
CONTINUOUS
10
-0.0276023
20
0.221102
11
-0.0295226
21
0.223976
0
LINE
8
BLACK
6
CONTINUOUS
10
-0.0295226
20
0.223976
11
-0.0301969
21
0.227366
0
LINE
8
BLACK
6
CONTINUOUS
10
-0.0301969
20
0.227366
11
-0.0301969
21
0.245083
0
LINE
8
BLACK
6
CONTINUOUS
10
-0.0301969
20
0.245083
11
-0.0295226
21
0.248472
0
LINE
8
BLACK
6
CONTINUOUS
10
-0.0295226
20
0.248472
11
-0.0276023
21
0.251346
0
LINE
8
BLACK
6
CONTINUOUS
10
-0.0276023
20
0.251346
11
-0.0247285
21
0.253266
0
LINE
8
BLACK
6
CONTINUOUS
10
-0.0247285
20
0.253266
11
-0.0213386
21
0.253941
0
LINE
8
BLACK
6
CONTINUOUS
10
-0.0213386
20
0.253941
11
-0.00165354
21
0.253941
0
LINE
8
BLACK
6
CONTINUOUS
10
-0.00165354
20
0.253941
11
0.00173638
21
0.253266
0
LINE
8
BLACK
6
CONTINUOUS
10
-0.161795
20
0.274161
11
-0.159879
21
0.27288
0
LINE
8
BLACK
6
CONTINUOUS
10
-0.159879
20
0.27288
11
-0.158599
21
0.270965
0
LINE
8
BLACK
6
CONTINUOUS
10
-0.158599
20
0.270965
11
-0.15815
21
0.268705
0
LINE
8
BLACK
6
CONTINUOUS
10
-0.15815
20
0.268705
11
-0.15815
21
0.256894
0
LINE
8
BLACK
6
CONTINUOUS
10
-0.15815
20
0.256894
11
-0.158599
21
0.254634
0
LINE
8
BLACK
6
CONTINUOUS
10
-0.158599
20
0.254634
11
-0.159879
21
0.252718
0
LINE
8
BLACK
6
CONTINUOUS
10
-0.159879
20
0.252718
11
-0.161795
21
0.251438
0
LINE
8
BLACK
6
CONTINUOUS
10
-0.161795
20
0.251438
11
-0.164055
21
0.250988
0
LINE
8
BLACK
6
CONTINUOUS
10
-0.164055
20
0.250988
11
-0.204409
21
0.250988
0
LINE
8
BLACK
6
CONTINUOUS
10
-0.204409
20
0.250988
11
-0.206669
21
0.251438
0
LINE
8
BLACK
6
CONTINUOUS
10
-0.206669
20
0.251438
11
-0.208585
21
0.252718
0
LINE
8
BLACK
6
CONTINUOUS
10
-0.208585
20
0.252718
11
-0.209865
21
0.254634
0
LINE
8
BLACK
6
CONTINUOUS
10
-0.209865
20
0.254634
11
-0.210315
21
0.256894
0
LINE
8
BLACK
6
CONTINUOUS
10
-0.210315
20
0.256894
11
-0.210315
21
0.268705
0
LINE
8
BLACK
6
CONTINUOUS
10
-0.210315
20
0.268705
11
-0.209865
21
0.270965
0
LINE
8
BLACK
6
CONTINUOUS
10
-0.209865
20
0.270965
11
-0.208585
21
0.27288
0
LINE
8
BLACK
6
CONTINUOUS
10
-0.208585
20
0.27288
11
-0.206669
21
0.274161
0
LINE
8
BLACK
6
CONTINUOUS
10
-0.206669
20
0.274161
11
-0.204409
21
0.27461
0
LINE
8
BLACK
6
CONTINUOUS
10
-0.204409
20
0.27461
11
-0.164055
21
0.27461
0
LINE
8
BLACK
6
CONTINUOUS
10
-0.164055
20
0.27461
11
-0.161795
21
0.274161
0
LINE
8
BLACK
6
CONTINUOUS
10
-0.623252
20
0.274397
11
-0.621336
21
0.273117
0
LINE
8
BLACK
6
CONTINUOUS
10
-0.621336
20
0.273117
11
-0.620056
21
0.271201
0
LINE
8
BLACK
6
CONTINUOUS
10
-0.620056
20
0.271201
11
-0.619606
21
0.268941
0
LINE
8
BLACK
6
CONTINUOUS
10
-0.619606
20
0.268941
11
-0.619606
21
0.25713
0
LINE
8
BLACK
6
CONTINUOUS
10
-0.619606
20
0.25713
11
-0.620056
21
0.25487
0
LINE
8
BLACK
6
CONTINUOUS
10
-0.620056
20
0.25487
11
-0.621336
21
0.252954
0
LINE
8
BLACK
6
CONTINUOUS
10
-0.621336
20
0.252954
11
-0.623252
21
0.251674
0
LINE
8
BLACK
6
CONTINUOUS
10
-0.623252
20
0.251674
11
-0.625512
21
0.251224
0
LINE
8
BLACK
6
CONTINUOUS
10
-0.625512
20
0.251224
11
-0.68063
21
0.251224
0
LINE
8
BLACK
6
CONTINUOUS
10
-0.68063
20
0.251224
11
-0.68289
21
0.251674
0
LINE
8
BLACK
6
CONTINUOUS
10
-0.68289
20
0.251674
11
-0.684806
21
0.252954
0
LINE
8
BLACK
6
CONTINUOUS
10
-0.684806
20
0.252954
11
-0.686086
21
0.25487
0
LINE
8
BLACK
6
CONTINUOUS
10
-0.686086
20
0.25487
11
-0.686535
21
0.25713
0
LINE
8
BLACK
6
CONTINUOUS
10
-0.686535
20
0.25713
11
-0.686535
21
0.268941
0
LINE
8
BLACK
6
CONTINUOUS
10
-0.686535
20
0.268941
11
-0.686086
21
0.271201
0
LINE
8
BLACK
6
CONTINUOUS
10
-0.686086
20
0.271201
11
-0.684806
21
0.273117
0
LINE
8
BLACK
6
CONTINUOUS
10
-0.684806
20
0.273117
11
-0.68289
21
0.274397
0
LINE
8
BLACK
6
CONTINUOUS
10
-0.68289
20
0.274397
11
-0.68063
21
0.274846
0
LINE
8
BLACK
6
CONTINUOUS
10
-0.68063
20
0.274846
11
-0.625512
21
0.274846
0
LINE
8
BLACK
6
CONTINUOUS
10
-0.625512
20
0.274846
11
-0.623252
21
0.274397
0
LINE
8
BLACK
6
CONTINUOUS
10
0.280555
20
0.304448
11
0.283429
21
0.302527
0
LINE
8
BLACK
6
CONTINUOUS
10
0.283429
20
0.302527
11
0.285349
21
0.299654
0
LINE
8
BLACK
6
CONTINUOUS
10
0.285349
20
0.299654
11
0.286024
21
0.296264
0
LINE
8
BLACK
6
CONTINUOUS
10
0.286024
20
0.296264
11
0.286024
21
0.278547
0
LINE
8
BLACK
6
CONTINUOUS
10
0.286024
20
0.278547
11
0.285349
21
0.275157
0
LINE
8
BLACK
6
CONTINUOUS
10
0.285349
20
0.275157
11
0.283429
21
0.272283
0
LINE
8
BLACK
6
CONTINUOUS
10
0.283429
20
0.272283
11
0.280555
21
0.270363
0
LINE
8
BLACK
6
CONTINUOUS
10
0.280555
20
0.270363
11
0.277165
21
0.269689
0
LINE
8
BLACK
6
CONTINUOUS
10
0.277165
20
0.269689
11
0.25748
21
0.269689
0
LINE
8
BLACK
6
CONTINUOUS
10
0.25748
20
0.269689
11
0.25409
21
0.270363
0
LINE
8
BLACK
6
CONTINUOUS
10
0.25409
20
0.270363
11
0.251217
21
0.272283
0
LINE
8
BLACK
6
CONTINUOUS
10
0.251217
20
0.272283
11
0.249296
21
0.275157
0
LINE
8
BLACK
6
CONTINUOUS
10
0.249296
20
0.275157
11
0.248622
21
0.278547
0
LINE
8
BLACK
6
CONTINUOUS
10
0.248622
20
0.278547
11
0.248622
21
0.296264
0
LINE
8
BLACK
6
CONTINUOUS
10
0.248622
20
0.296264
11
0.249296
21
0.299654
0
LINE
8
BLACK
6
CONTINUOUS
10
0.249296
20
0.299654
11
0.251217
21
0.302527
0
LINE
8
BLACK
6
CONTINUOUS
10
0.251217
20
0.302527
11
0.25409
21
0.304448
0
LINE
8
BLACK
6
CONTINUOUS
10
0.25409
20
0.304448
11
0.25748
21
0.305122
0
LINE
8
BLACK
6
CONTINUOUS
10
0.25748
20
0.305122
11
0.277165
21
0.305122
0
LINE
8
BLACK
6
CONTINUOUS
10
0.277165
20
0.305122
11
0.280555
21
0.304448
0
LINE
8
BLACK
6
CONTINUOUS
10
0.201483
20
0.312247
11
0.204676
21
0.310113
0
LINE
8
BLACK
6
CONTINUOUS
10
0.204676
20
0.310113
11
0.20681
21
0.30692
0
LINE
8
BLACK
6
CONTINUOUS
10
0.20681
20
0.30692
11
0.207559
21
0.303153
0
LINE
8
BLACK
6
CONTINUOUS
10
0.207559
20
0.303153
11
0.207559
21
0.282484
0
LINE
8
BLACK
6
CONTINUOUS
10
0.207559
20
0.282484
11
0.20681
21
0.278718
0
LINE
8
BLACK
6
CONTINUOUS
10
0.20681
20
0.278718
11
0.204676
21
0.275524
0
LINE
8
BLACK
6
CONTINUOUS
10
0.204676
20
0.275524
11
0.201483
21
0.273391
0
LINE
8
BLACK
6
CONTINUOUS
10
0.201483
20
0.273391
11
0.197717
21
0.272642
0
LINE
8
BLACK
6
CONTINUOUS
10
0.197717
20
0.272642
11
0.162283
21
0.272642
0
LINE
8
BLACK
6
CONTINUOUS
10
0.162283
20
0.272642
11
0.158517
21
0.273391
0
LINE
8
BLACK
6
CONTINUOUS
10
0.158517
20
0.273391
11
0.155324
21
0.275524
0
LINE
8
BLACK
6
CONTINUOUS
10
0.155324
20
0.275524
11
0.15319
21
0.278718
0
LINE
8
BLACK
6
CONTINUOUS
10
0.15319
20
0.278718
11
0.152441
21
0.282484
0
LINE
8
BLACK
6
CONTINUOUS
10
0.152441
20
0.282484
11
0.152441
21
0.303153
0
LINE
8
BLACK
6
CONTINUOUS
10
0.152441
20
0.303153
11
0.15319
21
0.30692
0
LINE
8
BLACK
6
CONTINUOUS
10
0.15319
20
0.30692
11
0.155324
21
0.310113
0
LINE
8
BLACK
6
CONTINUOUS
10
0.155324
20
0.310113
11
0.158517
21
0.312247
0
LINE
8
BLACK
6
CONTINUOUS
10
0.158517
20
0.312247
11
0.162283
21
0.312996
0
LINE
8
BLACK
6
CONTINUOUS
10
0.162283
20
0.312996
11
0.197717
21
0.312996
0
LINE
8
BLACK
6
CONTINUOUS
10
0.197717
20
0.312996
11
0.201483
21
0.312247
0
LINE
8
BLACK
6
CONTINUOUS
10
0.376129
20
0.312247
11
0.379322
21
0.310113
0
LINE
8
BLACK
6
CONTINUOUS
10
0.379322
20
0.310113
11
0.381456
21
0.30692
0
LINE
8
BLACK
6
CONTINUOUS
10
0.381456
20
0.30692
11
0.382205
21
0.303153
0
LINE
8
BLACK
6
CONTINUOUS
10
0.382205
20
0.303153
11
0.382205
21
0.282484
0
LINE
8
BLACK
6
CONTINUOUS
10
0.382205
20
0.282484
11
0.381456
21
0.278718
0
LINE
8
BLACK
6
CONTINUOUS
10
0.381456
20
0.278718
11
0.379322
21
0.275524
0
LINE
8
BLACK
6
CONTINUOUS
10
0.379322
20
0.275524
11
0.376129
21
0.273391
0
LINE
8
BLACK
6
CONTINUOUS
10
0.376129
20
0.273391
11
0.372362
21
0.272642
0
LINE
8
BLACK
6
CONTINUOUS
10
0.372362
20
0.272642
11
0.336929
21
0.272642
0
LINE
8
BLACK
6
CONTINUOUS
10
0.336929
20
0.272642
11
0.333163
21
0.273391
0
LINE
8
BLACK
6
CONTINUOUS
10
0.333163
20
0.273391
11
0.329969
21
0.275524
0
LINE
8
BLACK
6
CONTINUOUS
10
0.329969
20
0.275524
11
0.327836
21
0.278718
0
LINE
8
BLACK
6
CONTINUOUS
10
0.327836
20
0.278718
11
0.327087
21
0.282484
0
LINE
8
BLACK
6
CONTINUOUS
10
0.327087
20
0.282484
11
0.327087
21
0.303153
0
LINE
8
BLACK
6
CONTINUOUS
10
0.327087
20
0.303153
11
0.327836
21
0.30692
0
LINE
8
BLACK
6
CONTINUOUS
10
0.327836
20
0.30692
11
0.329969
21
0.310113
0
LINE
8
BLACK
6
CONTINUOUS
10
0.329969
20
0.310113
11
0.333163
21
0.312247
0
LINE
8
BLACK
6
CONTINUOUS
10
0.333163
20
0.312247
11
0.336929
21
0.312996
0
LINE
8
BLACK
6
CONTINUOUS
10
0.336929
20
0.312996
11
0.372362
21
0.312996
0
LINE
8
BLACK
6
CONTINUOUS
10
0.372362
20
0.312996
11
0.376129
21
0.312247
0
LINE
8
BLACK
6
CONTINUOUS
10
-0.510075
20
0.310353
11
-0.507201
21
0.308433
0
LINE
8
BLACK
6
CONTINUOUS
10
-0.507201
20
0.308433
11
-0.505281
21
0.305559
0
LINE
8
BLACK
6
CONTINUOUS
10
-0.505281
20
0.305559
11
-0.504606
21
0.302169
0
LINE
8
BLACK
6
CONTINUOUS
10
-0.504606
20
0.302169
11
-0.504606
21
0.282484
0
LINE
8
BLACK
6
CONTINUOUS
10
-0.504606
20
0.282484
11
-0.505281
21
0.279094
0
LINE
8
BLACK
6
CONTINUOUS
10
-0.505281
20
0.279094
11
-0.507201
21
0.27622
0
LINE
8
BLACK
6
CONTINUOUS
10
-0.507201
20
0.27622
11
-0.510075
21
0.2743
0
LINE
8
BLACK
6
CONTINUOUS
10
-0.510075
20
0.2743
11
-0.513465
21
0.273626
0
LINE
8
BLACK
6
CONTINUOUS
10
-0.513465
20
0.273626
11
-0.531181
21
0.273626
0
LINE
8
BLACK
6
CONTINUOUS
10
-0.531181
20
0.273626
11
-0.534571
21
0.2743
0
LINE
8
BLACK
6
CONTINUOUS
10
-0.534571
20
0.2743
11
-0.537445
21
0.27622
0
LINE
8
BLACK
6
CONTINUOUS
10
-0.537445
20
0.27622
11
-0.539365
21
0.279094
0
LINE
8
BLACK
6
CONTINUOUS
10
-0.539365
20
0.279094
11
-0.540039
21
0.282484
0
LINE
8
BLACK
6
CONTINUOUS
10
-0.540039
20
0.282484
11
-0.540039
21
0.302169
0
LINE
8
BLACK
6
CONTINUOUS
10
-0.540039
20
0.302169
11
-0.539365
21
0.305559
0
LINE
8
BLACK
6
CONTINUOUS
10
-0.539365
20
0.305559
11
-0.537445
21
0.308433
0
LINE
8
BLACK
6
CONTINUOUS
10
-0.537445
20
0.308433
11
-0.534571
21
0.310353
0
LINE
8
BLACK
6
CONTINUOUS
10
-0.534571
20
0.310353
11
-0.531181
21
0.311027
0
LINE
8
BLACK
6
CONTINUOUS
10
-0.531181
20
0.311027
11
-0.513465
21
0.311027
0
LINE
8
BLACK
6
CONTINUOUS
10
-0.513465
20
0.311027
11
-0.510075
21
0.310353
0
LINE
8
BLACK
6
CONTINUOUS
10
-0.379546
20
0.310428
11
-0.376991
21
0.308721
0
LINE
8
BLACK
6
CONTINUOUS
10
-0.376991
20
0.308721
11
-0.375284
21
0.306167
0
LINE
8
BLACK
6
CONTINUOUS
10
-0.375284
20
0.306167
11
-0.374685
21
0.303153
0
LINE
8
BLACK
6
CONTINUOUS
10
-0.374685
20
0.303153
11
-0.374685
21
0.2815
0
LINE
8
BLACK
6
CONTINUOUS
10
-0.374685
20
0.2815
11
-0.375284
21
0.278487
0
LINE
8
BLACK
6
CONTINUOUS
10
-0.375284
20
0.278487
11
-0.376991
21
0.275932
0
LINE
8
BLACK
6
CONTINUOUS
10
-0.376991
20
0.275932
11
-0.379546
21
0.274225
0
LINE
8
BLACK
6
CONTINUOUS
10
-0.379546
20
0.274225
11
-0.382559
21
0.273626
0
LINE
8
BLACK
6
CONTINUOUS
10
-0.382559
20
0.273626
11
-0.398307
21
0.273626
0
LINE
8
BLACK
6
CONTINUOUS
10
-0.398307
20
0.273626
11
-0.40132
21
0.274225
0
LINE
8
BLACK
6
CONTINUOUS
10
-0.40132
20
0.274225
11
-0.403875
21
0.275932
0
LINE
8
BLACK
6
CONTINUOUS
10
-0.403875
20
0.275932
11
-0.405582
21
0.278487
0
LINE
8
BLACK
6
CONTINUOUS
10
-0.405582
20
0.278487
11
-0.406181
21
0.2815
0
LINE
8
BLACK
6
CONTINUOUS
10
-0.406181
20
0.2815
11
-0.406181
21
0.303153
0
LINE
8
BLACK
6
CONTINUOUS
10
-0.406181
20
0.303153
11
-0.405582
21
0.306167
0
LINE
8
BLACK
6
CONTINUOUS
10
-0.405582
20
0.306167
11
-0.403875
21
0.308721
0
LINE
8
BLACK
6
CONTINUOUS
10
-0.403875
20
0.308721
11
-0.40132
21
0.310428
0
LINE
8
BLACK
6
CONTINUOUS
10
-0.40132
20
0.310428
11
-0.398307
21
0.311027
0
LINE
8
BLACK
6
CONTINUOUS
10
-0.398307
20
0.311027
11
-0.382559
21
0.311027
0
LINE
8
BLACK
6
CONTINUOUS
10
-0.382559
20
0.311027
11
-0.379546
21
0.310428
0
LINE
8
BLACK
6
CONTINUOUS
10
-0.444506
20
0.310428
11
-0.441952
21
0.308721
0
LINE
8
BLACK
6
CONTINUOUS
10
-0.441952
20
0.308721
11
-0.440245
21
0.306167
0
LINE
8
BLACK
6
CONTINUOUS
10
-0.440245
20
0.306167
11
-0.439646
21
0.303153
0
LINE
8
BLACK
6
CONTINUOUS
10
-0.439646
20
0.303153
11
-0.439646
21
0.2815
0
LINE
8
BLACK
6
CONTINUOUS
10
-0.439646
20
0.2815
11
-0.440245
21
0.278487
0
LINE
8
BLACK
6
CONTINUOUS
10
-0.440245
20
0.278487
11
-0.441952
21
0.275932
0
LINE
8
BLACK
6
CONTINUOUS
10
-0.441952
20
0.275932
11
-0.444506
21
0.274225
0
LINE
8
BLACK
6
CONTINUOUS
10
-0.444506
20
0.274225
11
-0.44752
21
0.273626
0
LINE
8
BLACK
6
CONTINUOUS
10
-0.44752
20
0.273626
11
-0.463268
21
0.273626
0
LINE
8
BLACK
6
CONTINUOUS
10
-0.463268
20
0.273626
11
-0.466281
21
0.274225
0
LINE
8
BLACK
6
CONTINUOUS
10
-0.466281
20
0.274225
11
-0.468835
21
0.275932
0
LINE
8
BLACK
6
CONTINUOUS
10
-0.468835
20
0.275932
11
-0.470542
21
0.278487
0
LINE
8
BLACK
6
CONTINUOUS
10
-0.470542
20
0.278487
11
-0.471142
21
0.2815
0
LINE
8
BLACK
6
CONTINUOUS
10
-0.471142
20
0.2815
11
-0.471142
21
0.303153
0
LINE
8
BLACK
6
CONTINUOUS
10
-0.471142
20
0.303153
11
-0.470542
21
0.306167
0
LINE
8
BLACK
6
CONTINUOUS
10
-0.470542
20
0.306167
11
-0.468835
21
0.308721
0
LINE
8
BLACK
6
CONTINUOUS
10
-0.468835
20
0.308721
11
-0.466281
21
0.310428
0
LINE
8
BLACK
6
CONTINUOUS
10
-0.466281
20
0.310428
11
-0.463268
21
0.311027
0
LINE
8
BLACK
6
CONTINUOUS
10
-0.463268
20
0.311027
11
-0.44752
21
0.311027
0
LINE
8
BLACK
6
CONTINUOUS
10
-0.44752
20
0.311027
11
-0.444506
21
0.310428
0
LINE
8
BLACK
6
CONTINUOUS
10
-0.571098
20
0.310353
11
-0.568224
21
0.308433
0
LINE
8
BLACK
6
CONTINUOUS
10
-0.568224
20
0.308433
11
-0.566304
21
0.305559
0
LINE
8
BLACK
6
CONTINUOUS
10
-0.566304
20
0.305559
11
-0.56563
21
0.302169
0
LINE
8
BLACK
6
CONTINUOUS
10
-0.56563
20
0.302169
11
-0.56563
21
0.282484
0
LINE
8
BLACK
6
CONTINUOUS
10
-0.56563
20
0.282484
11
-0.566304
21
0.279094
0
LINE
8
BLACK
6
CONTINUOUS
10
-0.566304
20
0.279094
11
-0.568224
21
0.27622
0
LINE
8
BLACK
6
CONTINUOUS
10
-0.568224
20
0.27622
11
-0.571098
21
0.2743
0
LINE
8
BLACK
6
CONTINUOUS
10
-0.571098
20
0.2743
11
-0.574488
21
0.273626
0
LINE
8
BLACK
6
CONTINUOUS
10
-0.574488
20
0.273626
11
-0.592205
21
0.273626
0
LINE
8
BLACK
6
CONTINUOUS
10
-0.592205
20
0.273626
11
-0.595595
21
0.2743
0
LINE
8
BLACK
6
CONTINUOUS
10
-0.595595
20
0.2743
11
-0.598468
21
0.27622
0
LINE
8
BLACK
6
CONTINUOUS
10
-0.598468
20
0.27622
11
-0.600389
21
0.279094
0
LINE
8
BLACK
6
CONTINUOUS
10
-0.600389
20
0.279094
11
-0.601063
21
0.282484
0
LINE
8
BLACK
6
CONTINUOUS
10
-0.601063
20
0.282484
11
-0.601063
21
0.302169
0
LINE
8
BLACK
6
CONTINUOUS
10
-0.601063
20
0.302169
11
-0.600389
21
0.305559
0
LINE
8
BLACK
6
CONTINUOUS
10
-0.600389
20
0.305559
11
-0.598468
21
0.308433
0
LINE
8
BLACK
6
CONTINUOUS
10
-0.598468
20
0.308433
11
-0.595595
21
0.310353
0
LINE
8
BLACK
6
CONTINUOUS
10
-0.595595
20
0.310353
11
-0.592205
21
0.311027
0
LINE
8
BLACK
6
CONTINUOUS
10
-0.592205
20
0.311027
11
-0.574488
21
0.311027
0
LINE
8
BLACK
6
CONTINUOUS
10
-0.574488
20
0.311027
11
-0.571098
21
0.310353
0
LINE
8
BLACK
6
CONTINUOUS
10
-0.314585
20
0.310428
11
-0.312031
21
0.308721
0
LINE
8
BLACK
6
CONTINUOUS
10
-0.312031
20
0.308721
11
-0.310324
21
0.306167
0
LINE
8
BLACK
6
CONTINUOUS
10
-0.310324
20
0.306167
11
-0.309724
21
0.303153
0
LINE
8
BLACK
6
CONTINUOUS
10
-0.309724
20
0.303153
11
-0.309724
21
0.2815
0
LINE
8
BLACK
6
CONTINUOUS
10
-0.309724
20
0.2815
11
-0.310324
21
0.278487
0
LINE
8
BLACK
6
CONTINUOUS
10
-0.310324
20
0.278487
11
-0.312031
21
0.275932
0
LINE
8
BLACK
6
CONTINUOUS
10
-0.312031
20
0.275932
11
-0.314585
21
0.274225
0
LINE
8
BLACK
6
CONTINUOUS
10
-0.314585
20
0.274225
11
-0.317598
21
0.273626
0
LINE
8
BLACK
6
CONTINUOUS
10
-0.317598
20
0.273626
11
-0.333346
21
0.273626
0
LINE
8
BLACK
6
CONTINUOUS
10
-0.333346
20
0.273626
11
-0.33636
21
0.274225
0
LINE
8
BLACK
6
CONTINUOUS
10
-0.33636
20
0.274225
11
-0.338914
21
0.275932
0
LINE
8
BLACK
6
CONTINUOUS
10
-0.338914
20
0.275932
11
-0.340621
21
0.278487
0
LINE
8
BLACK
6
CONTINUOUS
10
-0.340621
20
0.278487
11
-0.34122
21
0.2815
0
LINE
8
BLACK
6
CONTINUOUS
10
-0.34122
20
0.2815
11
-0.34122
21
0.303153
0
LINE
8
BLACK
6
CONTINUOUS
10
-0.34122
20
0.303153
11
-0.340621
21
0.306167
0
LINE
8
BLACK
6
CONTINUOUS
10
-0.340621
20
0.306167
11
-0.338914
21
0.308721
0
LINE
8
BLACK
6
CONTINUOUS
10
-0.338914
20
0.308721
11
-0.33636
21
0.310428
0
LINE
8
BLACK
6
CONTINUOUS
10
-0.33636
20
0.310428
11
-0.333346
21
0.311027
0
LINE
8
BLACK
6
CONTINUOUS
10
-0.333346
20
0.311027
11
-0.317598
21
0.311027
0
LINE
8
BLACK
6
CONTINUOUS
10
-0.317598
20
0.311027
11
-0.314585
21
0.310428
0
LINE
8
BLACK
6
CONTINUOUS
10
-0.249625
20
0.310428
11
-0.24707
21
0.308721
0
LINE
8
BLACK
6
CONTINUOUS
10
-0.24707
20
0.308721
11
-0.245363
21
0.306167
0
LINE
8
BLACK
6
CONTINUOUS
10
-0.245363
20
0.306167
11
-0.244764
21
0.303153
0
LINE
8
BLACK
6
CONTINUOUS
10
-0.244764
20
0.303153
11
-0.244764
21
0.2815
0
LINE
8
BLACK
6
CONTINUOUS
10
-0.244764
20
0.2815
11
-0.245363
21
0.278487
0
LINE
8
BLACK
6
CONTINUOUS
10
-0.245363
20
0.278487
11
-0.24707
21
0.275932
0
LINE
8
BLACK
6
CONTINUOUS
10
-0.24707
20
0.275932
11
-0.249625
21
0.274225
0
LINE
8
BLACK
6
CONTINUOUS
10
-0.249625
20
0.274225
11
-0.252638
21
0.273626
0
LINE
8
BLACK
6
CONTINUOUS
10
-0.252638
20
0.273626
11
-0.268386
21
0.273626
0
LINE
8
BLACK
6
CONTINUOUS
10
-0.268386
20
0.273626
11
-0.271399
21
0.274225
0
LINE
8
BLACK
6
CONTINUOUS
10
-0.271399
20
0.274225
11
-0.273954
21
0.275932
0
LINE
8
BLACK
6
CONTINUOUS
10
-0.273954
20
0.275932
11
-0.27566
21
0.278487
0
LINE
8
BLACK
6
CONTINUOUS
10
-0.27566
20
0.278487
11
-0.27626
21
0.2815
0
LINE
8
BLACK
6
CONTINUOUS
10
-0.27626
20
0.2815
11
-0.27626
21
0.303153
0
LINE
8
BLACK
6
CONTINUOUS
10
-0.27626
20
0.303153
11
-0.27566
21
0.306167
0
LINE
8
BLACK
6
CONTINUOUS
10
-0.27566
20
0.306167
11
-0.273954
21
0.308721
0
LINE
8
BLACK
6
CONTINUOUS
10
-0.273954
20
0.308721
11
-0.271399
21
0.310428
0
LINE
8
BLACK
6
CONTINUOUS
10
-0.271399
20
0.310428
11
-0.268386
21
0.311027
0
LINE
8
BLACK
6
CONTINUOUS
10
-0.268386
20
0.311027
11
-0.252638
21
0.311027
0
LINE
8
BLACK
6
CONTINUOUS
10
-0.252638
20
0.311027
11
-0.249625
21
0.310428
0
LINE
8
BLACK
6
CONTINUOUS
10
0.00173638
20
0.31429
11
0.0046102
21
0.31237
0
LINE
8
BLACK
6
CONTINUOUS
10
0.0046102
20
0.31237
11
0.00653043
21
0.309496
0
LINE
8
BLACK
6
CONTINUOUS
10
0.00653043
20
0.309496
11
0.00720472
21
0.306106
0
LINE
8
BLACK
6
CONTINUOUS
10
0.00720472
20
0.306106
11
0.00720472
21
0.28839
0
LINE
8
BLACK
6
CONTINUOUS
10
0.00720472
20
0.28839
11
0.00653043
21
0.285
0
LINE
8
BLACK
6
CONTINUOUS
10
0.00653043
20
0.285
11
0.0046102
21
0.282126
0
LINE
8
BLACK
6
CONTINUOUS
10
0.0046102
20
0.282126
11
0.00173638
21
0.280206
0
LINE
8
BLACK
6
CONTINUOUS
10
0.00173638
20
0.280206
11
-0.00165354
21
0.279531
0
LINE
8
BLACK
6
CONTINUOUS
10
-0.00165354
20
0.279531
11
-0.0213386
21
0.279531
0
LINE
8
BLACK
6
CONTINUOUS
10
-0.0213386
20
0.279531
11
-0.0247285
21
0.280206
0
LINE
8
BLACK
6
CONTINUOUS
10
-0.0247285
20
0.280206
11
-0.0276023
21
0.282126
0
LINE
8
BLACK
6
CONTINUOUS
10
-0.0276023
20
0.282126
11
-0.0295226
21
0.285
0
LINE
8
BLACK
6
CONTINUOUS
10
-0.0295226
20
0.285
11
-0.0301969
21
0.28839
0
LINE
8
BLACK
6
CONTINUOUS
10
-0.0301969
20
0.28839
11
-0.0301969
21
0.306106
0
LINE
8
BLACK
6
CONTINUOUS
10
-0.0301969
20
0.306106
11
-0.0295226
21
0.309496
0
LINE
8
BLACK
6
CONTINUOUS
10
-0.0295226
20
0.309496
11
-0.0276023
21
0.31237
0
LINE
8
BLACK
6
CONTINUOUS
10
-0.0276023
20
0.31237
11
-0.0247285
21
0.31429
0
LINE
8
BLACK
6
CONTINUOUS
10
-0.0247285
20
0.31429
11
-0.0213386
21
0.314964
0
LINE
8
BLACK
6
CONTINUOUS
10
-0.0213386
20
0.314964
11
-0.00165354
21
0.314964
0
LINE
8
BLACK
6
CONTINUOUS
10
-0.00165354
20
0.314964
11
0.00173638
21
0.31429
0
LINE
8
BLACK
6
CONTINUOUS
10
-0.0722282
20
0.311562
11
-0.0703124
21
0.310282
0
LINE
8
BLACK
6
CONTINUOUS
10
-0.0703124
20
0.310282
11
-0.0690322
21
0.308366
0
LINE
8
BLACK
6
CONTINUOUS
10
-0.0690322
20
0.308366
11
-0.0685827
21
0.306106
0
LINE
8
BLACK
6
CONTINUOUS
10
-0.0685827
20
0.306106
11
-0.0685827
21
0.294295
0
LINE
8
BLACK
6
CONTINUOUS
10
-0.0685827
20
0.294295
11
-0.0690322
21
0.292035
0
LINE
8
BLACK
6
CONTINUOUS
10
-0.0690322
20
0.292035
11
-0.0703124
21
0.290119
0
LINE
8
BLACK
6
CONTINUOUS
10
-0.0703124
20
0.290119
11
-0.0722282
21
0.288839
0
LINE
8
BLACK
6
CONTINUOUS
10
-0.0722282
20
0.288839
11
-0.0744882
21
0.28839
0
LINE
8
BLACK
6
CONTINUOUS
10
-0.0744882
20
0.28839
11
-0.114843
21
0.28839
0
LINE
8
BLACK
6
CONTINUOUS
10
-0.114843
20
0.28839
11
-0.117102
21
0.288839
0
LINE
8
BLACK
6
CONTINUOUS
10
-0.117102
20
0.288839
11
-0.119018
21
0.290119
0
LINE
8
BLACK
6
CONTINUOUS
10
-0.119018
20
0.290119
11
-0.120299
21
0.292035
0
LINE
8
BLACK
6
CONTINUOUS
10
-0.120299
20
0.292035
11
-0.120748
21
0.294295
0
LINE
8
BLACK
6
CONTINUOUS
10
-0.120748
20
0.294295
11
-0.120748
21
0.306106
0
LINE
8
BLACK
6
CONTINUOUS
10
-0.120748
20
0.306106
11
-0.120299
21
0.308366
0
LINE
8
BLACK
6
CONTINUOUS
10
-0.120299
20
0.308366
11
-0.119018
21
0.310282
0
LINE
8
BLACK
6
CONTINUOUS
10
-0.119018
20
0.310282
11
-0.117102
21
0.311562
0
LINE
8
BLACK
6
CONTINUOUS
10
-0.117102
20
0.311562
11
-0.114843
21
0.312012
0
LINE
8
BLACK
6
CONTINUOUS
10
-0.114843
20
0.312012
11
-0.0744882
21
0.312012
0
LINE
8
BLACK
6
CONTINUOUS
10
-0.0744882
20
0.312012
11
-0.0722282
21
0.311562
0
LINE
8
BLACK
6
CONTINUOUS
10
-0.161795
20
0.311562
11
-0.159879
21
0.310282
0
LINE
8
BLACK
6
CONTINUOUS
10
-0.159879
20
0.310282
11
-0.158599
21
0.308366
0
LINE
8
BLACK
6
CONTINUOUS
10
-0.158599
20
0.308366
11
-0.15815
21
0.306106
0
LINE
8
BLACK
6
CONTINUOUS
10
-0.15815
20
0.306106
11
-0.15815
21
0.294295
0
LINE
8
BLACK
6
CONTINUOUS
10
-0.15815
20
0.294295
11
-0.158599
21
0.292035
0
LINE
8
BLACK
6
CONTINUOUS
10
-0.158599
20
0.292035
11
-0.159879
21
0.290119
0
LINE
8
BLACK
6
CONTINUOUS
10
-0.159879
20
0.290119
11
-0.161795
21
0.288839
0
LINE
8
BLACK
6
CONTINUOUS
10
-0.161795
20
0.288839
11
-0.164055
21
0.28839
0
LINE
8
BLACK
6
CONTINUOUS
10
-0.164055
20
0.28839
11
-0.204409
21
0.28839
0
LINE
8
BLACK
6
CONTINUOUS
10
-0.204409
20
0.28839
11
-0.206669
21
0.288839
0
LINE
8
BLACK
6
CONTINUOUS
10
-0.206669
20
0.288839
11
-0.208585
21
0.290119
0
LINE
8
BLACK
6
CONTINUOUS
10
-0.208585
20
0.290119
11
-0.209865
21
0.292035
0
LINE
8
BLACK
6
CONTINUOUS
10
-0.209865
20
0.292035
11
-0.210315
21
0.294295
0
LINE
8
BLACK
6
CONTINUOUS
10
-0.210315
20
0.294295
11
-0.210315
21
0.306106
0
LINE
8
BLACK
6
CONTINUOUS
10
-0.210315
20
0.306106
11
-0.209865
21
0.308366
0
LINE
8
BLACK
6
CONTINUOUS
10
-0.209865
20
0.308366
11
-0.208585
21
0.310282
0
LINE
8
BLACK
6
CONTINUOUS
10
-0.208585
20
0.310282
11
-0.206669
21
0.311562
0
LINE
8
BLACK
6
CONTINUOUS
10
-0.206669
20
0.311562
11
-0.204409
21
0.312012
0
LINE
8
BLACK
6
CONTINUOUS
10
-0.204409
20
0.312012
11
-0.164055
21
0.312012
0
LINE
8
BLACK
6
CONTINUOUS
10
-0.164055
20
0.312012
11
-0.161795
21
0.311562
0
LINE
8
BLACK
6
CONTINUOUS
10
-0.731981
20
0.354806
11
-0.728788
21
0.352672
0
LINE
8
BLACK
6
CONTINUOUS
10
-0.728788
20
0.352672
11
-0.726655
21
0.349479
0
LINE
8
BLACK
6
CONTINUOUS
10
-0.726655
20
0.349479
11
-0.725906
21
0.345712
0
LINE
8
BLACK
6
CONTINUOUS
10
-0.725906
20
0.345712
11
-0.725906
21
0.326027
0
LINE
8
BLACK
6
CONTINUOUS
10
-0.725906
20
0.326027
11
-0.726655
21
0.322261
0
LINE
8
BLACK
6
CONTINUOUS
10
-0.726655
20
0.322261
11
-0.728788
21
0.319068
0
LINE
8
BLACK
6
CONTINUOUS
10
-0.728788
20
0.319068
11
-0.731981
21
0.316934
0
LINE
8
BLACK
6
CONTINUOUS
10
-0.731981
20
0.316934
11
-0.735748
21
0.316185
0
LINE
8
BLACK
6
CONTINUOUS
10
-0.735748
20
0.316185
11
-0.822362
21
0.316185
0
LINE
8
BLACK
6
CONTINUOUS
10
-0.822362
20
0.316185
11
-0.826129
21
0.316934
0
LINE
8
BLACK
6
CONTINUOUS
10
-0.826129
20
0.316934
11
-0.829322
21
0.319068
0
LINE
8
BLACK
6
CONTINUOUS
10
-0.829322
20
0.319068
11
-0.831456
21
0.322261
0
LINE
8
BLACK
6
CONTINUOUS
10
-0.831456
20
0.322261
11
-0.832205
21
0.326027
0
LINE
8
BLACK
6
CONTINUOUS
10
-0.832205
20
0.326027
11
-0.832205
21
0.345712
0
LINE
8
BLACK
6
CONTINUOUS
10
-0.832205
20
0.345712
11
-0.831456
21
0.349479
0
LINE
8
BLACK
6
CONTINUOUS
10
-0.831456
20
0.349479
11
-0.829322
21
0.352672
0
LINE
8
BLACK
6
CONTINUOUS
10
-0.829322
20
0.352672
11
-0.826129
21
0.354806
0
LINE
8
BLACK
6
CONTINUOUS
10
-0.826129
20
0.354806
11
-0.822362
21
0.355555
0
LINE
8
BLACK
6
CONTINUOUS
10
-0.822362
20
0.355555
11
-0.735748
21
0.355555
0
LINE
8
BLACK
6
CONTINUOUS
10
-0.735748
20
0.355555
11
-0.731981
21
0.354806
  0
ENDSEC
  0
EOF
