  0
SECTION
  2
HEADER
  9
$ANGBASE
  50
0.0
  9
$ANGDIR
  70
1
  9
$MEASUREMENT
  70
0
  0
ENDSEC
  0
SECTION
  2
TABLES
  0
TABLE
  2
LTYPE
  70
4
  0
LTYPE
  5
40F
  2
CONTINUOUS
  70
0
  3
Solid line
  72
65
  73
0
  40
0.0
  0
LTYPE
  5
410
  2
DASHDOT
 70
0
  3
Dash Dot ____ _ ____ _
 72
65
 73
4
 40
2.0
 49
1.25
 49
-0.25
 49
0.25
 49
-0.25
  0
LTYPE
  5
411
  2
DASHED
 70
0
  3
Dashed __ __ __ __ __
 72
65
 73
2
 40
0.75
 49
0.5
 49
-0.25
  0
LTYPE
  5
43B
  2
DOTTED
 70
0
  3
Dotted .  .  .  .
 72
65
 73
2
 40
0.2
 49
0.0
 49
-0.2
  0
ENDTAB
  0
TABLE
  2
STYLE
  70
4
  0
STYLE
  2
KICAD
  70
0
  40
0
  41
1
  42
1
  50
0
  71
0
  3
isocp.shx
  0
STYLE
  2
KICADB
  70
0
  40
0
  41
1
  42
1
  50
0
  71
0
  3
isocp.shx
  0
STYLE
  2
KICADI
  70
0
  40
0
  41
1
  42
1
  50
15
  71
0
  3
isocp.shx
  0
STYLE
  2
KICADBI
  70
0
  40
0
  41
1
  42
1
  50
15
  71
0
  3
isocp.shx
  0
ENDTAB
  0
TABLE
  2
LAYER
  70
1
  0
LAYER
  2
BLACK
  70
0
  62
7
  6
CONTINUOUS
  0
ENDTAB
  0
ENDSEC
  0
SECTION
  2
ENTITIES
0
LINE
8
BLACK
6
CONTINUOUS
10
-0.64668
20
-0.206408
11
-0.646969
21
-0.205712
0
LINE
8
BLACK
6
CONTINUOUS
10
-0.646969
20
-0.205712
11
-0.646969
21
0.165941
0
LINE
8
BLACK
6
CONTINUOUS
10
-0.646969
20
0.165941
11
-0.64668
21
0.166637
0
LINE
8
BLACK
6
CONTINUOUS
10
-0.64668
20
0.166637
11
-0.645984
21
0.166925
0
LINE
8
BLACK
6
CONTINUOUS
10
-0.645984
20
0.166925
11
-0.394016
21
0.166925
0
LINE
8
BLACK
6
CONTINUOUS
10
-0.394016
20
0.166925
11
-0.39332
21
0.166637
0
LINE
8
BLACK
6
CONTINUOUS
10
-0.39332
20
0.166637
11
-0.393031
21
0.165941
0
LINE
8
BLACK
6
CONTINUOUS
10
-0.393031
20
0.165941
11
-0.393031
21
-0.205712
0
LINE
8
BLACK
6
CONTINUOUS
10
-0.393031
20
-0.205712
11
-0.39332
21
-0.206408
0
LINE
8
BLACK
6
CONTINUOUS
10
-0.39332
20
-0.206408
11
-0.394016
21
-0.206697
0
LINE
8
BLACK
6
CONTINUOUS
10
-0.394016
20
-0.206697
11
-0.645984
21
-0.206697
0
LINE
8
BLACK
6
CONTINUOUS
10
-0.645984
20
-0.206697
11
-0.64668
21
-0.206408
0
LINE
8
BLACK
6
CONTINUOUS
10
-0.645
20
0.164957
11
-0.645
21
-0.204728
0
LINE
8
BLACK
6
CONTINUOUS
10
-0.645
20
-0.204728
11
-0.395
21
-0.204728
0
LINE
8
BLACK
6
CONTINUOUS
10
-0.395
20
-0.204728
11
-0.395
21
0.164957
0
LINE
8
BLACK
6
CONTINUOUS
10
-0.395
20
0.164957
11
-0.645
21
0.164957
0
LINE
8
BLACK
6
CONTINUOUS
10
-0.0077826
20
-0.168216
11
-0.00807087
21
-0.16752
0
LINE
8
BLACK
6
CONTINUOUS
10
-0.00807087
20
-0.16752
11
-0.00807087
21
-0.0509843
0
LINE
8
BLACK
6
CONTINUOUS
10
-0.00807087
20
-0.0509843
11
-0.0077826
21
-0.0502883
0
LINE
8
BLACK
6
CONTINUOUS
10
-0.0077826
20
-0.0502883
11
-0.00708661
21
-0.05
0
LINE
8
BLACK
6
CONTINUOUS
10
-0.00708661
20
-0.05
11
0.0503937
21
-0.05
0
LINE
8
BLACK
6
CONTINUOUS
10
0.0503937
20
-0.05
11
0.0510897
21
-0.0502883
0
LINE
8
BLACK
6
CONTINUOUS
10
0.0510897
20
-0.0502883
11
0.051378
21
-0.0509843
0
LINE
8
BLACK
6
CONTINUOUS
10
0.051378
20
-0.0509843
11
0.051378
21
-0.16752
0
LINE
8
BLACK
6
CONTINUOUS
10
0.051378
20
-0.16752
11
0.0510897
21
-0.168216
0
LINE
8
BLACK
6
CONTINUOUS
10
0.0510897
20
-0.168216
11
0.0503937
21
-0.168504
0
LINE
8
BLACK
6
CONTINUOUS
10
0.0503937
20
-0.168504
11
-0.00708661
21
-0.168504
0
LINE
8
BLACK
6
CONTINUOUS
10
-0.00708661
20
-0.168504
11
-0.0077826
21
-0.168216
0
LINE
8
BLACK
6
CONTINUOUS
10
-0.00610236
20
-0.0519685
11
-0.00610236
21
-0.166535
0
LINE
8
BLACK
6
CONTINUOUS
10
-0.00610236
20
-0.166535
11
0.0494094
21
-0.166535
0
LINE
8
BLACK
6
CONTINUOUS
10
0.0494094
20
-0.166535
11
0.0494094
21
-0.0519685
0
LINE
8
BLACK
6
CONTINUOUS
10
0.0494094
20
-0.0519685
11
-0.00610236
21
-0.0519685
0
LINE
8
BLACK
6
CONTINUOUS
10
0.0605639
20
-0.16796
11
0.0602756
21
-0.167264
0
LINE
8
BLACK
6
CONTINUOUS
10
0.0602756
20
-0.167264
11
0.0602756
21
-0.0507283
0
LINE
8
BLACK
6
CONTINUOUS
10
0.0602756
20
-0.0507283
11
0.0605639
21
-0.0500324
0
LINE
8
BLACK
6
CONTINUOUS
10
0.0605639
20
-0.0500324
11
0.0612598
21
-0.0497441
0
LINE
8
BLACK
6
CONTINUOUS
10
0.0612598
20
-0.0497441
11
0.11874
21
-0.0497441
0
LINE
8
BLACK
6
CONTINUOUS
10
0.11874
20
-0.0497441
11
0.119436
21
-0.0500324
0
LINE
8
BLACK
6
CONTINUOUS
10
0.119436
20
-0.0500324
11
0.119724
21
-0.0507283
0
LINE
8
BLACK
6
CONTINUOUS
10
0.119724
20
-0.0507283
11
0.119724
21
-0.167264
0
LINE
8
BLACK
6
CONTINUOUS
10
0.119724
20
-0.167264
11
0.119436
21
-0.16796
0
LINE
8
BLACK
6
CONTINUOUS
10
0.119436
20
-0.16796
11
0.11874
21
-0.168248
0
LINE
8
BLACK
6
CONTINUOUS
10
0.11874
20
-0.168248
11
0.0612598
21
-0.168248
0
LINE
8
BLACK
6
CONTINUOUS
10
0.0612598
20
-0.168248
11
0.0605639
21
-0.16796
0
LINE
8
BLACK
6
CONTINUOUS
10
0.0622441
20
-0.0517126
11
0.0622441
21
-0.16628
0
LINE
8
BLACK
6
CONTINUOUS
10
0.0622441
20
-0.16628
11
0.117756
21
-0.16628
0
LINE
8
BLACK
6
CONTINUOUS
10
0.117756
20
-0.16628
11
0.117756
21
-0.0517126
0
LINE
8
BLACK
6
CONTINUOUS
10
0.117756
20
-0.0517126
11
0.0622441
21
-0.0517126
0
LINE
8
BLACK
6
CONTINUOUS
10
0.454186
20
-0.153688
11
0.453898
21
-0.152992
0
LINE
8
BLACK
6
CONTINUOUS
10
0.453898
20
-0.152992
11
0.453898
21
-0.0270079
0
LINE
8
BLACK
6
CONTINUOUS
10
0.453898
20
-0.0270079
11
0.454186
21
-0.0263119
0
LINE
8
BLACK
6
CONTINUOUS
10
0.454186
20
-0.0263119
11
0.454882
21
-0.0260236
0
LINE
8
BLACK
6
CONTINUOUS
10
0.454882
20
-0.0260236
11
0.565118
21
-0.0260236
0
LINE
8
BLACK
6
CONTINUOUS
10
0.565118
20
-0.0260236
11
0.565814
21
-0.0263119
0
LINE
8
BLACK
6
CONTINUOUS
10
0.565814
20
-0.0263119
11
0.566102
21
-0.0270079
0
LINE
8
BLACK
6
CONTINUOUS
10
0.566102
20
-0.0270079
11
0.566102
21
-0.152992
0
LINE
8
BLACK
6
CONTINUOUS
10
0.566102
20
-0.152992
11
0.565814
21
-0.153688
0
LINE
8
BLACK
6
CONTINUOUS
10
0.565814
20
-0.153688
11
0.565118
21
-0.153976
0
LINE
8
BLACK
6
CONTINUOUS
10
0.565118
20
-0.153976
11
0.454882
21
-0.153976
0
LINE
8
BLACK
6
CONTINUOUS
10
0.454882
20
-0.153976
11
0.454186
21
-0.153688
0
LINE
8
BLACK
6
CONTINUOUS
10
0.455866
20
-0.0279921
11
0.455866
21
-0.152008
0
LINE
8
BLACK
6
CONTINUOUS
10
0.455866
20
-0.152008
11
0.564134
21
-0.152008
0
LINE
8
BLACK
6
CONTINUOUS
10
0.564134
20
-0.152008
11
0.564134
21
-0.0279921
0
LINE
8
BLACK
6
CONTINUOUS
10
0.564134
20
-0.0279921
11
0.455866
21
-0.0279921
0
LINE
8
BLACK
6
CONTINUOUS
10
0.360564
20
-0.151976
11
0.360276
21
-0.15128
0
LINE
8
BLACK
6
CONTINUOUS
10
0.360276
20
-0.15128
11
0.360276
21
-0.0347441
0
LINE
8
BLACK
6
CONTINUOUS
10
0.360276
20
-0.0347441
11
0.360564
21
-0.0340481
0
LINE
8
BLACK
6
CONTINUOUS
10
0.360564
20
-0.0340481
11
0.36126
21
-0.0337598
0
LINE
8
BLACK
6
CONTINUOUS
10
0.36126
20
-0.0337598
11
0.41874
21
-0.0337598
0
LINE
8
BLACK
6
CONTINUOUS
10
0.41874
20
-0.0337598
11
0.419436
21
-0.0340481
0
LINE
8
BLACK
6
CONTINUOUS
10
0.419436
20
-0.0340481
11
0.419724
21
-0.0347441
0
LINE
8
BLACK
6
CONTINUOUS
10
0.419724
20
-0.0347441
11
0.419724
21
-0.15128
0
LINE
8
BLACK
6
CONTINUOUS
10
0.419724
20
-0.15128
11
0.419436
21
-0.151976
0
LINE
8
BLACK
6
CONTINUOUS
10
0.419436
20
-0.151976
11
0.41874
21
-0.152264
0
LINE
8
BLACK
6
CONTINUOUS
10
0.41874
20
-0.152264
11
0.36126
21
-0.152264
0
LINE
8
BLACK
6
CONTINUOUS
10
0.36126
20
-0.152264
11
0.360564
21
-0.151976
0
LINE
8
BLACK
6
CONTINUOUS
10
0.362244
20
-0.0357283
11
0.362244
21
-0.150295
0
LINE
8
BLACK
6
CONTINUOUS
10
0.362244
20
-0.150295
11
0.417756
21
-0.150295
0
LINE
8
BLACK
6
CONTINUOUS
10
0.417756
20
-0.150295
11
0.417756
21
-0.0357283
0
LINE
8
BLACK
6
CONTINUOUS
10
0.417756
20
-0.0357283
11
0.362244
21
-0.0357283
0
LINE
8
BLACK
6
CONTINUOUS
10
-0.265578
20
-0.148141
11
-0.265866
21
-0.147445
0
LINE
8
BLACK
6
CONTINUOUS
10
-0.265866
20
-0.147445
11
-0.265866
21
-0.0592557
0
LINE
8
BLACK
6
CONTINUOUS
10
-0.265866
20
-0.0592557
11
-0.265578
21
-0.0585598
0
LINE
8
BLACK
6
CONTINUOUS
10
-0.265578
20
-0.0585598
11
-0.264882
21
-0.0582715
0
LINE
8
BLACK
6
CONTINUOUS
10
-0.264882
20
-0.0582715
11
-0.0853543
21
-0.0582715
0
LINE
8
BLACK
6
CONTINUOUS
10
-0.0853543
20
-0.0582715
11
-0.0846583
21
-0.0585598
0
LINE
8
BLACK
6
CONTINUOUS
10
-0.0846583
20
-0.0585598
11
-0.0843701
21
-0.0592557
0
LINE
8
BLACK
6
CONTINUOUS
10
-0.0843701
20
-0.0592557
11
-0.0843701
21
-0.147445
0
LINE
8
BLACK
6
CONTINUOUS
10
-0.0843701
20
-0.147445
11
-0.0846583
21
-0.148141
0
LINE
8
BLACK
6
CONTINUOUS
10
-0.0846583
20
-0.148141
11
-0.0853543
21
-0.148429
0
LINE
8
BLACK
6
CONTINUOUS
10
-0.0853543
20
-0.148429
11
-0.264882
21
-0.148429
0
LINE
8
BLACK
6
CONTINUOUS
10
-0.264882
20
-0.148429
11
-0.265578
21
-0.148141
0
LINE
8
BLACK
6
CONTINUOUS
10
-0.263898
20
-0.06024
11
-0.263898
21
-0.14646
0
LINE
8
BLACK
6
CONTINUOUS
10
-0.263898
20
-0.14646
11
-0.0863386
21
-0.14646
0
LINE
8
BLACK
6
CONTINUOUS
10
-0.0863386
20
-0.14646
11
-0.0863386
21
-0.06024
0
LINE
8
BLACK
6
CONTINUOUS
10
-0.0863386
20
-0.06024
11
-0.263898
21
-0.06024
0
LINE
8
BLACK
6
CONTINUOUS
10
0.128123
20
-0.148141
11
0.127835
21
-0.147445
0
LINE
8
BLACK
6
CONTINUOUS
10
0.127835
20
-0.147445
11
0.127835
21
-0.0592557
0
LINE
8
BLACK
6
CONTINUOUS
10
0.127835
20
-0.0592557
11
0.128123
21
-0.0585598
0
LINE
8
BLACK
6
CONTINUOUS
10
0.128123
20
-0.0585598
11
0.128819
21
-0.0582715
0
LINE
8
BLACK
6
CONTINUOUS
10
0.128819
20
-0.0582715
11
0.308346
21
-0.0582715
0
LINE
8
BLACK
6
CONTINUOUS
10
0.308346
20
-0.0582715
11
0.309042
21
-0.0585598
0
LINE
8
BLACK
6
CONTINUOUS
10
0.309042
20
-0.0585598
11
0.309331
21
-0.0592557
0
LINE
8
BLACK
6
CONTINUOUS
10
0.309331
20
-0.0592557
11
0.309331
21
-0.147445
0
LINE
8
BLACK
6
CONTINUOUS
10
0.309331
20
-0.147445
11
0.309042
21
-0.148141
0
LINE
8
BLACK
6
CONTINUOUS
10
0.309042
20
-0.148141
11
0.308346
21
-0.148429
0
LINE
8
BLACK
6
CONTINUOUS
10
0.308346
20
-0.148429
11
0.128819
21
-0.148429
0
LINE
8
BLACK
6
CONTINUOUS
10
0.128819
20
-0.148429
11
0.128123
21
-0.148141
0
LINE
8
BLACK
6
CONTINUOUS
10
0.129803
20
-0.06024
11
0.129803
21
-0.14646
0
LINE
8
BLACK
6
CONTINUOUS
10
0.129803
20
-0.14646
11
0.307362
21
-0.14646
0
LINE
8
BLACK
6
CONTINUOUS
10
0.307362
20
-0.14646
11
0.307362
21
-0.06024
0
LINE
8
BLACK
6
CONTINUOUS
10
0.307362
20
-0.06024
11
0.129803
21
-0.06024
0
LINE
8
BLACK
6
CONTINUOUS
10
0.0308001
20
-0.0358338
11
0.0305118
21
-0.0351378
0
LINE
8
BLACK
6
CONTINUOUS
10
0.0305118
20
-0.0351378
11
0.0305118
21
0.0632874
0
LINE
8
BLACK
6
CONTINUOUS
10
0.0305118
20
0.0632874
11
0.0308001
21
0.0639834
0
LINE
8
BLACK
6
CONTINUOUS
10
0.0308001
20
0.0639834
11
0.0314961
21
0.0642717
0
LINE
8
BLACK
6
CONTINUOUS
10
0.0314961
20
0.0642717
11
0.212598
21
0.0642717
0
LINE
8
BLACK
6
CONTINUOUS
10
0.212598
20
0.0642717
11
0.213294
21
0.0639834
0
LINE
8
BLACK
6
CONTINUOUS
10
0.213294
20
0.0639834
11
0.213583
21
0.0632874
0
LINE
8
BLACK
6
CONTINUOUS
10
0.213583
20
0.0632874
11
0.213583
21
-0.0351378
0
LINE
8
BLACK
6
CONTINUOUS
10
0.213583
20
-0.0351378
11
0.213294
21
-0.0358338
0
LINE
8
BLACK
6
CONTINUOUS
10
0.213294
20
-0.0358338
11
0.212598
21
-0.036122
0
LINE
8
BLACK
6
CONTINUOUS
10
0.212598
20
-0.036122
11
0.0314961
21
-0.036122
0
LINE
8
BLACK
6
CONTINUOUS
10
0.0314961
20
-0.036122
11
0.0308001
21
-0.0358338
0
LINE
8
BLACK
6
CONTINUOUS
10
0.0324803
20
0.0623031
11
0.0324803
21
-0.0341535
0
LINE
8
BLACK
6
CONTINUOUS
10
0.0324803
20
-0.0341535
11
0.211614
21
-0.0341535
0
LINE
8
BLACK
6
CONTINUOUS
10
0.211614
20
-0.0341535
11
0.211614
21
0.0623031
0
LINE
8
BLACK
6
CONTINUOUS
10
0.211614
20
0.0623031
11
0.0324803
21
0.0623031
0
LINE
8
BLACK
6
CONTINUOUS
10
0.383438
20
0.0085522
11
0.38315
21
0.00924819
0
LINE
8
BLACK
6
CONTINUOUS
10
0.38315
20
0.00924819
11
0.38315
21
0.349799
0
LINE
8
BLACK
6
CONTINUOUS
10
0.38315
20
0.349799
11
0.383438
21
0.350495
0
LINE
8
BLACK
6
CONTINUOUS
10
0.383438
20
0.350495
11
0.384134
21
0.350784
0
LINE
8
BLACK
6
CONTINUOUS
10
0.384134
20
0.350784
11
0.870354
21
0.350784
0
LINE
8
BLACK
6
CONTINUOUS
10
0.870354
20
0.350784
11
0.87105
21
0.350495
0
LINE
8
BLACK
6
CONTINUOUS
10
0.87105
20
0.350495
11
0.871339
21
0.349799
0
LINE
8
BLACK
6
CONTINUOUS
10
0.871339
20
0.349799
11
0.871339
21
0.00924819
0
LINE
8
BLACK
6
CONTINUOUS
10
0.871339
20
0.00924819
11
0.87105
21
0.0085522
0
LINE
8
BLACK
6
CONTINUOUS
10
0.87105
20
0.0085522
11
0.870354
21
0.00826394
0
LINE
8
BLACK
6
CONTINUOUS
10
0.870354
20
0.00826394
11
0.384134
21
0.00826394
0
LINE
8
BLACK
6
CONTINUOUS
10
0.384134
20
0.00826394
11
0.383438
21
0.0085522
0
LINE
8
BLACK
6
CONTINUOUS
10
0.385118
20
0.348815
11
0.385118
21
0.0102324
0
LINE
8
BLACK
6
CONTINUOUS
10
0.385118
20
0.0102324
11
0.86937
21
0.0102324
0
LINE
8
BLACK
6
CONTINUOUS
10
0.86937
20
0.0102324
11
0.86937
21
0.348815
0
LINE
8
BLACK
6
CONTINUOUS
10
0.86937
20
0.348815
11
0.385118
21
0.348815
0
LINE
8
BLACK
6
CONTINUOUS
10
-0.392428
20
0.0649733
11
-0.392717
21
0.0656693
0
LINE
8
BLACK
6
CONTINUOUS
10
-0.392717
20
0.0656693
11
-0.392717
21
0.274331
0
LINE
8
BLACK
6
CONTINUOUS
10
-0.392717
20
0.274331
11
-0.392428
21
0.275027
0
LINE
8
BLACK
6
CONTINUOUS
10
-0.392428
20
0.275027
11
-0.391732
21
0.275315
0
LINE
8
BLACK
6
CONTINUOUS
10
-0.391732
20
0.275315
11
-0.305118
21
0.275315
0
LINE
8
BLACK
6
CONTINUOUS
10
-0.305118
20
0.275315
11
-0.304422
21
0.275027
0
LINE
8
BLACK
6
CONTINUOUS
10
-0.304422
20
0.275027
11
-0.304134
21
0.274331
0
LINE
8
BLACK
6
CONTINUOUS
10
-0.304134
20
0.274331
11
-0.304134
21
0.0656693
0
LINE
8
BLACK
6
CONTINUOUS
10
-0.304134
20
0.0656693
11
-0.304422
21
0.0649733
0
LINE
8
BLACK
6
CONTINUOUS
10
-0.304422
20
0.0649733
11
-0.305118
21
0.064685
0
LINE
8
BLACK
6
CONTINUOUS
10
-0.305118
20
0.064685
11
-0.391732
21
0.064685
0
LINE
8
BLACK
6
CONTINUOUS
10
-0.391732
20
0.064685
11
-0.392428
21
0.0649733
0
LINE
8
BLACK
6
CONTINUOUS
10
-0.390748
20
0.273346
11
-0.390748
21
0.0666535
0
LINE
8
BLACK
6
CONTINUOUS
10
-0.390748
20
0.0666535
11
-0.306102
21
0.0666535
0
LINE
8
BLACK
6
CONTINUOUS
10
-0.306102
20
0.0666535
11
-0.306102
21
0.273346
0
LINE
8
BLACK
6
CONTINUOUS
10
-0.306102
20
0.273346
11
-0.390748
21
0.273346
0
LINE
8
BLACK
6
CONTINUOUS
10
-0.64668
20
0.193592
11
-0.646969
21
0.194288
0
LINE
8
BLACK
6
CONTINUOUS
10
-0.646969
20
0.194288
11
-0.646969
21
0.565941
0
LINE
8
BLACK
6
CONTINUOUS
10
-0.646969
20
0.565941
11
-0.64668
21
0.566637
0
LINE
8
BLACK
6
CONTINUOUS
10
-0.64668
20
0.566637
11
-0.645984
21
0.566925
0
LINE
8
BLACK
6
CONTINUOUS
10
-0.645984
20
0.566925
11
-0.394016
21
0.566925
0
LINE
8
BLACK
6
CONTINUOUS
10
-0.394016
20
0.566925
11
-0.39332
21
0.566637
0
LINE
8
BLACK
6
CONTINUOUS
10
-0.39332
20
0.566637
11
-0.393031
21
0.565941
0
LINE
8
BLACK
6
CONTINUOUS
10
-0.393031
20
0.565941
11
-0.393031
21
0.194288
0
LINE
8
BLACK
6
CONTINUOUS
10
-0.393031
20
0.194288
11
-0.39332
21
0.193592
0
LINE
8
BLACK
6
CONTINUOUS
10
-0.39332
20
0.193592
11
-0.394016
21
0.193303
0
LINE
8
BLACK
6
CONTINUOUS
10
-0.394016
20
0.193303
11
-0.645984
21
0.193303
0
LINE
8
BLACK
6
CONTINUOUS
10
-0.645984
20
0.193303
11
-0.64668
21
0.193592
0
LINE
8
BLACK
6
CONTINUOUS
10
-0.645
20
0.564957
11
-0.645
21
0.195272
0
LINE
8
BLACK
6
CONTINUOUS
10
-0.645
20
0.195272
11
-0.395
21
0.195272
0
LINE
8
BLACK
6
CONTINUOUS
10
-0.395
20
0.195272
11
-0.395
21
0.564957
0
LINE
8
BLACK
6
CONTINUOUS
10
-0.395
20
0.564957
11
-0.645
21
0.564957
0
LINE
8
BLACK
6
CONTINUOUS
10
0.0265678
20
0.241036
11
0.0262795
21
0.241732
0
LINE
8
BLACK
6
CONTINUOUS
10
0.0262795
20
0.241732
11
0.0262795
21
0.358268
0
LINE
8
BLACK
6
CONTINUOUS
10
0.0262795
20
0.358268
11
0.0265678
21
0.358964
0
LINE
8
BLACK
6
CONTINUOUS
10
0.0265678
20
0.358964
11
0.0272638
21
0.359252
0
LINE
8
BLACK
6
CONTINUOUS
10
0.0272638
20
0.359252
11
0.0847441
21
0.359252
0
LINE
8
BLACK
6
CONTINUOUS
10
0.0847441
20
0.359252
11
0.0854401
21
0.358964
0
LINE
8
BLACK
6
CONTINUOUS
10
0.0854401
20
0.358964
11
0.0857283
21
0.358268
0
LINE
8
BLACK
6
CONTINUOUS
10
0.0857283
20
0.358268
11
0.0857283
21
0.241732
0
LINE
8
BLACK
6
CONTINUOUS
10
0.0857283
20
0.241732
11
0.0854401
21
0.241036
0
LINE
8
BLACK
6
CONTINUOUS
10
0.0854401
20
0.241036
11
0.0847441
21
0.240748
0
LINE
8
BLACK
6
CONTINUOUS
10
0.0847441
20
0.240748
11
0.0272638
21
0.240748
0
LINE
8
BLACK
6
CONTINUOUS
10
0.0272638
20
0.240748
11
0.0265678
21
0.241036
0
LINE
8
BLACK
6
CONTINUOUS
10
0.028248
20
0.357283
11
0.028248
21
0.242717
0
LINE
8
BLACK
6
CONTINUOUS
10
0.028248
20
0.242717
11
0.0837598
21
0.242717
0
LINE
8
BLACK
6
CONTINUOUS
10
0.0837598
20
0.242717
11
0.0837598
21
0.357283
0
LINE
8
BLACK
6
CONTINUOUS
10
0.0837598
20
0.357283
11
0.028248
21
0.357283
0
LINE
8
BLACK
6
CONTINUOUS
10
-0.381798
20
0.282769
11
-0.382087
21
0.283465
0
LINE
8
BLACK
6
CONTINUOUS
10
-0.382087
20
0.283465
11
-0.382087
21
0.417323
0
LINE
8
BLACK
6
CONTINUOUS
10
-0.382087
20
0.417323
11
-0.381798
21
0.418019
0
LINE
8
BLACK
6
CONTINUOUS
10
-0.381798
20
0.418019
11
-0.381102
21
0.418307
0
LINE
8
BLACK
6
CONTINUOUS
10
-0.381102
20
0.418307
11
-0.303937
21
0.418307
0
LINE
8
BLACK
6
CONTINUOUS
10
-0.303937
20
0.418307
11
-0.303241
21
0.418019
0
LINE
8
BLACK
6
CONTINUOUS
10
-0.303241
20
0.418019
11
-0.302953
21
0.417323
0
LINE
8
BLACK
6
CONTINUOUS
10
-0.302953
20
0.417323
11
-0.302953
21
0.283465
0
LINE
8
BLACK
6
CONTINUOUS
10
-0.302953
20
0.283465
11
-0.303241
21
0.282769
0
LINE
8
BLACK
6
CONTINUOUS
10
-0.303241
20
0.282769
11
-0.303937
21
0.28248
0
LINE
8
BLACK
6
CONTINUOUS
10
-0.303937
20
0.28248
11
-0.381102
21
0.28248
0
LINE
8
BLACK
6
CONTINUOUS
10
-0.381102
20
0.28248
11
-0.381798
21
0.282769
0
LINE
8
BLACK
6
CONTINUOUS
10
-0.380118
20
0.416339
11
-0.380118
21
0.284449
0
LINE
8
BLACK
6
CONTINUOUS
10
-0.380118
20
0.284449
11
-0.304921
21
0.284449
0
LINE
8
BLACK
6
CONTINUOUS
10
-0.304921
20
0.284449
11
-0.304921
21
0.416339
0
LINE
8
BLACK
6
CONTINUOUS
10
-0.304921
20
0.416339
11
-0.380118
21
0.416339
0
LINE
8
BLACK
6
CONTINUOUS
10
0.257178
20
0.341824
11
0.25689
21
0.34252
0
LINE
8
BLACK
6
CONTINUOUS
10
0.25689
20
0.34252
11
0.25689
21
0.523622
0
LINE
8
BLACK
6
CONTINUOUS
10
0.25689
20
0.523622
11
0.257178
21
0.524318
0
LINE
8
BLACK
6
CONTINUOUS
10
0.257178
20
0.524318
11
0.257874
21
0.524606
0
LINE
8
BLACK
6
CONTINUOUS
10
0.257874
20
0.524606
11
0.356299
21
0.524606
0
LINE
8
BLACK
6
CONTINUOUS
10
0.356299
20
0.524606
11
0.356995
21
0.524318
0
LINE
8
BLACK
6
CONTINUOUS
10
0.356995
20
0.524318
11
0.357283
21
0.523622
0
LINE
8
BLACK
6
CONTINUOUS
10
0.357283
20
0.523622
11
0.357283
21
0.34252
0
LINE
8
BLACK
6
CONTINUOUS
10
0.357283
20
0.34252
11
0.356995
21
0.341824
0
LINE
8
BLACK
6
CONTINUOUS
10
0.356995
20
0.341824
11
0.356299
21
0.341535
0
LINE
8
BLACK
6
CONTINUOUS
10
0.356299
20
0.341535
11
0.257874
21
0.341535
0
LINE
8
BLACK
6
CONTINUOUS
10
0.257874
20
0.341535
11
0.257178
21
0.341824
0
LINE
8
BLACK
6
CONTINUOUS
10
0.258858
20
0.522638
11
0.258858
21
0.343504
0
LINE
8
BLACK
6
CONTINUOUS
10
0.258858
20
0.343504
11
0.355315
21
0.343504
0
LINE
8
BLACK
6
CONTINUOUS
10
0.355315
20
0.343504
11
0.355315
21
0.522638
0
LINE
8
BLACK
6
CONTINUOUS
10
0.355315
20
0.522638
11
0.258858
21
0.522638
0
LINE
8
BLACK
6
CONTINUOUS
10
0.458753
20
0.369383
11
0.458465
21
0.370079
0
LINE
8
BLACK
6
CONTINUOUS
10
0.458465
20
0.370079
11
0.458465
21
0.503937
0
LINE
8
BLACK
6
CONTINUOUS
10
0.458465
20
0.503937
11
0.458753
21
0.504633
0
LINE
8
BLACK
6
CONTINUOUS
10
0.458753
20
0.504633
11
0.459449
21
0.504921
0
LINE
8
BLACK
6
CONTINUOUS
10
0.459449
20
0.504921
11
0.536614
21
0.504921
0
LINE
8
BLACK
6
CONTINUOUS
10
0.536614
20
0.504921
11
0.53731
21
0.504633
0
LINE
8
BLACK
6
CONTINUOUS
10
0.53731
20
0.504633
11
0.537598
21
0.503937
0
LINE
8
BLACK
6
CONTINUOUS
10
0.537598
20
0.503937
11
0.537598
21
0.370079
0
LINE
8
BLACK
6
CONTINUOUS
10
0.537598
20
0.370079
11
0.53731
21
0.369383
0
LINE
8
BLACK
6
CONTINUOUS
10
0.53731
20
0.369383
11
0.536614
21
0.369094
0
LINE
8
BLACK
6
CONTINUOUS
10
0.536614
20
0.369094
11
0.459449
21
0.369094
0
LINE
8
BLACK
6
CONTINUOUS
10
0.459449
20
0.369094
11
0.458753
21
0.369383
0
LINE
8
BLACK
6
CONTINUOUS
10
0.460433
20
0.502953
11
0.460433
21
0.371063
0
LINE
8
BLACK
6
CONTINUOUS
10
0.460433
20
0.371063
11
0.53563
21
0.371063
0
LINE
8
BLACK
6
CONTINUOUS
10
0.53563
20
0.371063
11
0.53563
21
0.502953
0
LINE
8
BLACK
6
CONTINUOUS
10
0.53563
20
0.502953
11
0.460433
21
0.502953
0
LINE
8
BLACK
6
CONTINUOUS
10
0.37332
20
0.37017
11
0.373031
21
0.370866
0
LINE
8
BLACK
6
CONTINUOUS
10
0.373031
20
0.370866
11
0.373031
21
0.50315
0
LINE
8
BLACK
6
CONTINUOUS
10
0.373031
20
0.50315
11
0.37332
21
0.503846
0
LINE
8
BLACK
6
CONTINUOUS
10
0.37332
20
0.503846
11
0.374016
21
0.504134
0
LINE
8
BLACK
6
CONTINUOUS
10
0.374016
20
0.504134
11
0.448819
21
0.504134
0
LINE
8
BLACK
6
CONTINUOUS
10
0.448819
20
0.504134
11
0.449515
21
0.503846
0
LINE
8
BLACK
6
CONTINUOUS
10
0.449515
20
0.503846
11
0.449803
21
0.50315
0
LINE
8
BLACK
6
CONTINUOUS
10
0.449803
20
0.50315
11
0.449803
21
0.370866
0
LINE
8
BLACK
6
CONTINUOUS
10
0.449803
20
0.370866
11
0.449515
21
0.37017
0
LINE
8
BLACK
6
CONTINUOUS
10
0.449515
20
0.37017
11
0.448819
21
0.369882
0
LINE
8
BLACK
6
CONTINUOUS
10
0.448819
20
0.369882
11
0.374016
21
0.369882
0
LINE
8
BLACK
6
CONTINUOUS
10
0.374016
20
0.369882
11
0.37332
21
0.37017
0
LINE
8
BLACK
6
CONTINUOUS
10
0.375
20
0.502165
11
0.375
21
0.37185
0
LINE
8
BLACK
6
CONTINUOUS
10
0.375
20
0.37185
11
0.447835
21
0.37185
0
LINE
8
BLACK
6
CONTINUOUS
10
0.447835
20
0.37185
11
0.447835
21
0.502165
0
LINE
8
BLACK
6
CONTINUOUS
10
0.447835
20
0.502165
11
0.375
21
0.502165
0
LINE
8
BLACK
6
CONTINUOUS
10
0.546548
20
0.37017
11
0.54626
21
0.370866
0
LINE
8
BLACK
6
CONTINUOUS
10
0.54626
20
0.370866
11
0.54626
21
0.50315
0
LINE
8
BLACK
6
CONTINUOUS
10
0.54626
20
0.50315
11
0.546548
21
0.503846
0
LINE
8
BLACK
6
CONTINUOUS
10
0.546548
20
0.503846
11
0.547244
21
0.504134
0
LINE
8
BLACK
6
CONTINUOUS
10
0.547244
20
0.504134
11
0.622047
21
0.504134
0
LINE
8
BLACK
6
CONTINUOUS
10
0.622047
20
0.504134
11
0.622743
21
0.503846
0
LINE
8
BLACK
6
CONTINUOUS
10
0.622743
20
0.503846
11
0.623031
21
0.50315
0
LINE
8
BLACK
6
CONTINUOUS
10
0.623031
20
0.50315
11
0.623031
21
0.370866
0
LINE
8
BLACK
6
CONTINUOUS
10
0.623031
20
0.370866
11
0.622743
21
0.37017
0
LINE
8
BLACK
6
CONTINUOUS
10
0.622743
20
0.37017
11
0.622047
21
0.369882
0
LINE
8
BLACK
6
CONTINUOUS
10
0.622047
20
0.369882
11
0.547244
21
0.369882
0
LINE
8
BLACK
6
CONTINUOUS
10
0.547244
20
0.369882
11
0.546548
21
0.37017
0
LINE
8
BLACK
6
CONTINUOUS
10
0.548228
20
0.502165
11
0.548228
21
0.37185
0
LINE
8
BLACK
6
CONTINUOUS
10
0.548228
20
0.37185
11
0.621063
21
0.37185
0
LINE
8
BLACK
6
CONTINUOUS
10
0.621063
20
0.37185
11
0.621063
21
0.502165
0
LINE
8
BLACK
6
CONTINUOUS
10
0.621063
20
0.502165
11
0.548228
21
0.502165
0
LINE
8
BLACK
6
CONTINUOUS
10
0.015052
20
0.371351
11
0.0147638
21
0.372047
0
LINE
8
BLACK
6
CONTINUOUS
10
0.0147638
20
0.372047
11
0.0147638
21
0.51378
0
LINE
8
BLACK
6
CONTINUOUS
10
0.0147638
20
0.51378
11
0.015052
21
0.514476
0
LINE
8
BLACK
6
CONTINUOUS
10
0.015052
20
0.514476
11
0.015748
21
0.514764
0
LINE
8
BLACK
6
CONTINUOUS
10
0.015748
20
0.514764
11
0.165354
21
0.514764
0
LINE
8
BLACK
6
CONTINUOUS
10
0.165354
20
0.514764
11
0.16605
21
0.514476
0
LINE
8
BLACK
6
CONTINUOUS
10
0.16605
20
0.514476
11
0.166339
21
0.51378
0
LINE
8
BLACK
6
CONTINUOUS
10
0.166339
20
0.51378
11
0.166339
21
0.372047
0
LINE
8
BLACK
6
CONTINUOUS
10
0.166339
20
0.372047
11
0.16605
21
0.371351
0
LINE
8
BLACK
6
CONTINUOUS
10
0.16605
20
0.371351
11
0.165354
21
0.371063
0
LINE
8
BLACK
6
CONTINUOUS
10
0.165354
20
0.371063
11
0.015748
21
0.371063
0
LINE
8
BLACK
6
CONTINUOUS
10
0.015748
20
0.371063
11
0.015052
21
0.371351
0
LINE
8
BLACK
6
CONTINUOUS
10
0.0167323
20
0.512795
11
0.0167323
21
0.373031
0
LINE
8
BLACK
6
CONTINUOUS
10
0.0167323
20
0.373031
11
0.16437
21
0.373031
0
LINE
8
BLACK
6
CONTINUOUS
10
0.16437
20
0.373031
11
0.16437
21
0.512795
0
LINE
8
BLACK
6
CONTINUOUS
10
0.16437
20
0.512795
11
0.0167323
21
0.512795
0
LINE
8
BLACK
6
CONTINUOUS
10
0.189068
20
0.387887
11
0.18878
21
0.388583
0
LINE
8
BLACK
6
CONTINUOUS
10
0.18878
20
0.388583
11
0.18878
21
0.505118
0
LINE
8
BLACK
6
CONTINUOUS
10
0.18878
20
0.505118
11
0.189068
21
0.505814
0
LINE
8
BLACK
6
CONTINUOUS
10
0.189068
20
0.505814
11
0.189764
21
0.506102
0
LINE
8
BLACK
6
CONTINUOUS
10
0.189764
20
0.506102
11
0.247244
21
0.506102
0
LINE
8
BLACK
6
CONTINUOUS
10
0.247244
20
0.506102
11
0.24794
21
0.505814
0
LINE
8
BLACK
6
CONTINUOUS
10
0.24794
20
0.505814
11
0.248228
21
0.505118
0
LINE
8
BLACK
6
CONTINUOUS
10
0.248228
20
0.505118
11
0.248228
21
0.388583
0
LINE
8
BLACK
6
CONTINUOUS
10
0.248228
20
0.388583
11
0.24794
21
0.387887
0
LINE
8
BLACK
6
CONTINUOUS
10
0.24794
20
0.387887
11
0.247244
21
0.387598
0
LINE
8
BLACK
6
CONTINUOUS
10
0.247244
20
0.387598
11
0.189764
21
0.387598
0
LINE
8
BLACK
6
CONTINUOUS
10
0.189764
20
0.387598
11
0.189068
21
0.387887
0
LINE
8
BLACK
6
CONTINUOUS
10
0.190748
20
0.504134
11
0.190748
21
0.389567
0
LINE
8
BLACK
6
CONTINUOUS
10
0.190748
20
0.389567
11
0.24626
21
0.389567
0
LINE
8
BLACK
6
CONTINUOUS
10
0.24626
20
0.389567
11
0.24626
21
0.504134
0
LINE
8
BLACK
6
CONTINUOUS
10
0.24626
20
0.504134
11
0.190748
21
0.504134
0
LINE
8
BLACK
6
CONTINUOUS
10
-0.253846
20
0.443005
11
-0.254134
21
0.443701
0
LINE
8
BLACK
6
CONTINUOUS
10
-0.254134
20
0.443701
11
-0.254134
21
0.501181
0
LINE
8
BLACK
6
CONTINUOUS
10
-0.254134
20
0.501181
11
-0.253846
21
0.501877
0
LINE
8
BLACK
6
CONTINUOUS
10
-0.253846
20
0.501877
11
-0.25315
21
0.502165
0
LINE
8
BLACK
6
CONTINUOUS
10
-0.25315
20
0.502165
11
-0.136614
21
0.502165
0
LINE
8
BLACK
6
CONTINUOUS
10
-0.136614
20
0.502165
11
-0.135918
21
0.501877
0
LINE
8
BLACK
6
CONTINUOUS
10
-0.135918
20
0.501877
11
-0.13563
21
0.501181
0
LINE
8
BLACK
6
CONTINUOUS
10
-0.13563
20
0.501181
11
-0.13563
21
0.443701
0
LINE
8
BLACK
6
CONTINUOUS
10
-0.13563
20
0.443701
11
-0.135918
21
0.443005
0
LINE
8
BLACK
6
CONTINUOUS
10
-0.135918
20
0.443005
11
-0.136614
21
0.442717
0
LINE
8
BLACK
6
CONTINUOUS
10
-0.136614
20
0.442717
11
-0.25315
21
0.442717
0
LINE
8
BLACK
6
CONTINUOUS
10
-0.25315
20
0.442717
11
-0.253846
21
0.443005
0
LINE
8
BLACK
6
CONTINUOUS
10
-0.252165
20
0.500197
11
-0.252165
21
0.444685
0
LINE
8
BLACK
6
CONTINUOUS
10
-0.252165
20
0.444685
11
-0.137598
21
0.444685
0
LINE
8
BLACK
6
CONTINUOUS
10
-0.137598
20
0.444685
11
-0.137598
21
0.500197
0
LINE
8
BLACK
6
CONTINUOUS
10
-0.137598
20
0.500197
11
-0.252165
21
0.500197
0
LINE
8
BLACK
6
CONTINUOUS
10
-0.121956
20
0.443005
11
-0.122244
21
0.443701
0
LINE
8
BLACK
6
CONTINUOUS
10
-0.122244
20
0.443701
11
-0.122244
21
0.501181
0
LINE
8
BLACK
6
CONTINUOUS
10
-0.122244
20
0.501181
11
-0.121956
21
0.501877
0
LINE
8
BLACK
6
CONTINUOUS
10
-0.121956
20
0.501877
11
-0.12126
21
0.502165
0
LINE
8
BLACK
6
CONTINUOUS
10
-0.12126
20
0.502165
11
-0.00472441
21
0.502165
0
LINE
8
BLACK
6
CONTINUOUS
10
-0.00472441
20
0.502165
11
-0.00402843
21
0.501877
0
LINE
8
BLACK
6
CONTINUOUS
10
-0.00402843
20
0.501877
11
-0.00374016
21
0.501181
0
LINE
8
BLACK
6
CONTINUOUS
10
-0.00374016
20
0.501181
11
-0.00374016
21
0.443701
0
LINE
8
BLACK
6
CONTINUOUS
10
-0.00374016
20
0.443701
11
-0.00402843
21
0.443005
0
LINE
8
BLACK
6
CONTINUOUS
10
-0.00402843
20
0.443005
11
-0.00472441
21
0.442717
0
LINE
8
BLACK
6
CONTINUOUS
10
-0.00472441
20
0.442717
11
-0.12126
21
0.442717
0
LINE
8
BLACK
6
CONTINUOUS
10
-0.12126
20
0.442717
11
-0.121956
21
0.443005
0
LINE
8
BLACK
6
CONTINUOUS
10
-0.120276
20
0.500197
11
-0.120276
21
0.444685
0
LINE
8
BLACK
6
CONTINUOUS
10
-0.120276
20
0.444685
11
-0.00570866
21
0.444685
0
LINE
8
BLACK
6
CONTINUOUS
10
-0.00570866
20
0.444685
11
-0.00570866
21
0.500197
0
LINE
8
BLACK
6
CONTINUOUS
10
-0.00570866
20
0.500197
11
-0.120276
21
0.500197
0
LINE
8
BLACK
6
CONTINUOUS
10
-0.381798
20
0.443005
11
-0.382087
21
0.443701
0
LINE
8
BLACK
6
CONTINUOUS
10
-0.382087
20
0.443701
11
-0.382087
21
0.501181
0
LINE
8
BLACK
6
CONTINUOUS
10
-0.382087
20
0.501181
11
-0.381798
21
0.501877
0
LINE
8
BLACK
6
CONTINUOUS
10
-0.381798
20
0.501877
11
-0.381102
21
0.502165
0
LINE
8
BLACK
6
CONTINUOUS
10
-0.381102
20
0.502165
11
-0.264567
21
0.502165
0
LINE
8
BLACK
6
CONTINUOUS
10
-0.264567
20
0.502165
11
-0.263871
21
0.501877
0
LINE
8
BLACK
6
CONTINUOUS
10
-0.263871
20
0.501877
11
-0.263583
21
0.501181
0
LINE
8
BLACK
6
CONTINUOUS
10
-0.263583
20
0.501181
11
-0.263583
21
0.443701
0
LINE
8
BLACK
6
CONTINUOUS
10
-0.263583
20
0.443701
11
-0.263871
21
0.443005
0
LINE
8
BLACK
6
CONTINUOUS
10
-0.263871
20
0.443005
11
-0.264567
21
0.442717
0
LINE
8
BLACK
6
CONTINUOUS
10
-0.264567
20
0.442717
11
-0.381102
21
0.442717
0
LINE
8
BLACK
6
CONTINUOUS
10
-0.381102
20
0.442717
11
-0.381798
21
0.443005
0
LINE
8
BLACK
6
CONTINUOUS
10
-0.380118
20
0.500197
11
-0.380118
21
0.444685
0
LINE
8
BLACK
6
CONTINUOUS
10
-0.380118
20
0.444685
11
-0.265551
21
0.444685
0
LINE
8
BLACK
6
CONTINUOUS
10
-0.265551
20
0.444685
11
-0.265551
21
0.500197
0
LINE
8
BLACK
6
CONTINUOUS
10
-0.265551
20
0.500197
11
-0.380118
21
0.500197
  0
ENDSEC
  0
EOF
