  0
SECTION
  2
HEADER
  9
$ANGBASE
  50
0.0
  9
$ANGDIR
  70
1
  9
$MEASUREMENT
  70
0
  0
ENDSEC
  0
SECTION
  2
TABLES
  0
TABLE
  2
LTYPE
  70
4
  0
LTYPE
  5
40F
  2
CONTINUOUS
  70
0
  3
Solid line
  72
65
  73
0
  40
0.0
  0
LTYPE
  5
410
  2
DASHDOT
 70
0
  3
Dash Dot ____ _ ____ _
 72
65
 73
4
 40
2.0
 49
1.25
 49
-0.25
 49
0.25
 49
-0.25
  0
LTYPE
  5
411
  2
DASHED
 70
0
  3
Dashed __ __ __ __ __
 72
65
 73
2
 40
0.75
 49
0.5
 49
-0.25
  0
LTYPE
  5
43B
  2
DOTTED
 70
0
  3
Dotted .  .  .  .
 72
65
 73
2
 40
0.2
 49
0.0
 49
-0.2
  0
ENDTAB
  0
TABLE
  2
STYLE
  70
4
  0
STYLE
  2
KICAD
  70
0
  40
0
  41
1
  42
1
  50
0
  71
0
  3
isocp.shx
  0
STYLE
  2
KICADB
  70
0
  40
0
  41
1
  42
1
  50
0
  71
0
  3
isocp.shx
  0
STYLE
  2
KICADI
  70
0
  40
0
  41
1
  42
1
  50
15
  71
0
  3
isocp.shx
  0
STYLE
  2
KICADBI
  70
0
  40
0
  41
1
  42
1
  50
15
  71
0
  3
isocp.shx
  0
ENDTAB
  0
TABLE
  2
LAYER
  70
1
  0
LAYER
  2
BLACK
  70
0
  62
7
  6
CONTINUOUS
  0
ENDTAB
  0
ENDSEC
  0
SECTION
  2
ENTITIES
0
LINE
8
BLACK
6
CONTINUOUS
10
-0.312545
20
-0.268292
11
-0.311854
21
-0.27019
0
LINE
8
BLACK
6
CONTINUOUS
10
-0.311854
20
-0.27019
11
-0.311854
21
-0.30956
0
LINE
8
BLACK
6
CONTINUOUS
10
-0.311854
20
-0.30956
11
-0.312032
21
-0.31057
0
LINE
8
BLACK
6
CONTINUOUS
10
-0.312032
20
-0.31057
11
-0.313331
21
-0.312117
0
LINE
8
BLACK
6
CONTINUOUS
10
-0.313331
20
-0.312117
11
-0.31532
21
-0.312468
0
LINE
8
BLACK
6
CONTINUOUS
10
-0.31532
20
-0.312468
11
-0.317069
21
-0.311458
0
LINE
8
BLACK
6
CONTINUOUS
10
-0.317069
20
-0.311458
11
-0.31776
21
-0.30956
0
LINE
8
BLACK
6
CONTINUOUS
10
-0.31776
20
-0.30956
11
-0.31776
21
-0.294191
0
LINE
8
BLACK
6
CONTINUOUS
10
-0.31776
20
-0.294191
11
-0.335216
21
-0.311648
0
LINE
8
BLACK
6
CONTINUOUS
10
-0.335216
20
-0.311648
11
-0.336056
21
-0.312236
0
LINE
8
BLACK
6
CONTINUOUS
10
-0.336056
20
-0.312236
11
-0.338068
21
-0.312412
0
LINE
8
BLACK
6
CONTINUOUS
10
-0.338068
20
-0.312412
11
-0.339723
21
-0.311253
0
LINE
8
BLACK
6
CONTINUOUS
10
-0.339723
20
-0.311253
11
-0.340246
21
-0.309302
0
LINE
8
BLACK
6
CONTINUOUS
10
-0.340246
20
-0.309302
11
-0.339392
21
-0.307472
0
LINE
8
BLACK
6
CONTINUOUS
10
-0.339392
20
-0.307472
11
-0.32433
21
-0.29241
0
LINE
8
BLACK
6
CONTINUOUS
10
-0.32433
20
-0.29241
11
-0.339666
21
-0.271961
0
LINE
8
BLACK
6
CONTINUOUS
10
-0.339666
20
-0.271961
11
-0.34013
21
-0.271047
0
LINE
8
BLACK
6
CONTINUOUS
10
-0.34013
20
-0.271047
11
-0.340019
21
-0.26903
0
LINE
8
BLACK
6
CONTINUOUS
10
-0.340019
20
-0.26903
11
-0.338639
21
-0.267556
0
LINE
8
BLACK
6
CONTINUOUS
10
-0.338639
20
-0.267556
11
-0.336633
21
-0.267314
0
LINE
8
BLACK
6
CONTINUOUS
10
-0.336633
20
-0.267314
11
-0.334942
21
-0.268418
0
LINE
8
BLACK
6
CONTINUOUS
10
-0.334942
20
-0.268418
11
-0.320112
21
-0.288192
0
LINE
8
BLACK
6
CONTINUOUS
10
-0.320112
20
-0.288192
11
-0.31776
21
-0.28584
0
LINE
8
BLACK
6
CONTINUOUS
10
-0.31776
20
-0.28584
11
-0.31776
21
-0.27019
0
LINE
8
BLACK
6
CONTINUOUS
10
-0.31776
20
-0.27019
11
-0.317582
21
-0.26918
0
LINE
8
BLACK
6
CONTINUOUS
10
-0.317582
20
-0.26918
11
-0.316283
21
-0.267633
0
LINE
8
BLACK
6
CONTINUOUS
10
-0.316283
20
-0.267633
11
-0.314294
21
-0.267282
0
LINE
8
BLACK
6
CONTINUOUS
10
-0.314294
20
-0.267282
11
-0.312545
21
-0.268292
0
LINE
8
BLACK
6
CONTINUOUS
10
0.0925731
20
-0.261756
11
0.0932639
21
-0.263654
0
LINE
8
BLACK
6
CONTINUOUS
10
0.0932639
20
-0.263654
11
0.0932639
21
-0.303024
0
LINE
8
BLACK
6
CONTINUOUS
10
0.0932639
20
-0.303024
11
0.0930859
21
-0.304034
0
LINE
8
BLACK
6
CONTINUOUS
10
0.0930859
20
-0.304034
11
0.0917876
21
-0.305582
0
LINE
8
BLACK
6
CONTINUOUS
10
0.0917876
20
-0.305582
11
0.0897984
21
-0.305932
0
LINE
8
BLACK
6
CONTINUOUS
10
0.0897984
20
-0.305932
11
0.0880493
21
-0.304922
0
LINE
8
BLACK
6
CONTINUOUS
10
0.0880493
20
-0.304922
11
0.0873584
21
-0.303024
0
LINE
8
BLACK
6
CONTINUOUS
10
0.0873584
20
-0.303024
11
0.0873584
21
-0.287656
0
LINE
8
BLACK
6
CONTINUOUS
10
0.0873584
20
-0.287656
11
0.0699019
21
-0.305112
0
LINE
8
BLACK
6
CONTINUOUS
10
0.0699019
20
-0.305112
11
0.0690619
21
-0.3057
0
LINE
8
BLACK
6
CONTINUOUS
10
0.0690619
20
-0.3057
11
0.0670498
21
-0.305877
0
LINE
8
BLACK
6
CONTINUOUS
10
0.0670498
20
-0.305877
11
0.0653952
21
-0.304718
0
LINE
8
BLACK
6
CONTINUOUS
10
0.0653952
20
-0.304718
11
0.0648725
21
-0.302767
0
LINE
8
BLACK
6
CONTINUOUS
10
0.0648725
20
-0.302767
11
0.0657261
21
-0.300936
0
LINE
8
BLACK
6
CONTINUOUS
10
0.0657261
20
-0.300936
11
0.0807881
21
-0.285874
0
LINE
8
BLACK
6
CONTINUOUS
10
0.0807881
20
-0.285874
11
0.0654518
21
-0.265426
0
LINE
8
BLACK
6
CONTINUOUS
10
0.0654518
20
-0.265426
11
0.0649883
21
-0.264511
0
LINE
8
BLACK
6
CONTINUOUS
10
0.0649883
20
-0.264511
11
0.0650986
21
-0.262494
0
LINE
8
BLACK
6
CONTINUOUS
10
0.0650986
20
-0.262494
11
0.0664795
21
-0.26102
0
LINE
8
BLACK
6
CONTINUOUS
10
0.0664795
20
-0.26102
11
0.0684848
21
-0.260779
0
LINE
8
BLACK
6
CONTINUOUS
10
0.0684848
20
-0.260779
11
0.0701762
21
-0.261883
0
LINE
8
BLACK
6
CONTINUOUS
10
0.0701762
20
-0.261883
11
0.0850064
21
-0.281656
0
LINE
8
BLACK
6
CONTINUOUS
10
0.0850064
20
-0.281656
11
0.0873584
21
-0.279304
0
LINE
8
BLACK
6
CONTINUOUS
10
0.0873584
20
-0.279304
11
0.0873584
21
-0.263654
0
LINE
8
BLACK
6
CONTINUOUS
10
0.0873584
20
-0.263654
11
0.0875365
21
-0.262644
0
LINE
8
BLACK
6
CONTINUOUS
10
0.0875365
20
-0.262644
11
0.0888348
21
-0.261097
0
LINE
8
BLACK
6
CONTINUOUS
10
0.0888348
20
-0.261097
11
0.0908239
21
-0.260746
0
LINE
8
BLACK
6
CONTINUOUS
10
0.0908239
20
-0.260746
11
0.0925731
21
-0.261756
  0
ENDSEC
  0
EOF
