<?xml version='1.0' encoding='ASCII' standalone='yes'?>
<svg xmlns:svg="http://www.w3.org/2000/svg" xmlns="http://www.w3.org/2000/svg" xmlns:xlink="http://www.w3.org/1999/xlink" version="1.1" width="297.0022mm" height="210.0072mm" viewBox="0.0000 0.0000 297.0022 210.0072">
<title>SVG Image created as TFRPM01-B_Fab.svg date 2024/05/30 17:08:16 </title>
  <desc>Image generated by PCBNEW </desc>
<g style="fill:#000084; fill-opacity:1.0000;stroke:#000084; stroke-opacity:1.0000; stroke-linecap:round; stroke-linejoin:round;" transform="translate(0 0) scale(1 1)">
</g>
<g style="fill:#000084; fill-opacity:0.0;  stroke:#000084; stroke-width:0.0000; stroke-opacity:1;  stroke-linecap:round; stroke-linejoin:round;">
</g>
<g style="fill:#000084; fill-opacity:0.0;  stroke:#000084; stroke-width:1.1833; stroke-opacity:1;  stroke-linecap:round; stroke-linejoin:round;">
<text x="244.3142" y="127.2009" textLength="17.3734" font-size="10.5179" lengthAdjust="spacingAndGlyphs" text-anchor="middle" opacity="0">D1</text>
<g class="stroked-text"><desc>D1</desc>
<path d="M238.4918 126.8445 L238.4918 118.9561 "/>
<path d="M238.4918 118.9561 L240.3700 118.9561 "/>
<path d="M240.3700 118.9561 L241.4969 119.3317 "/>
<path d="M241.4969 119.3317 L242.2482 120.0830 "/>
<path d="M242.2482 120.0830 L242.6238 120.8343 "/>
<path d="M242.6238 120.8343 L242.9994 122.3368 "/>
<path d="M242.9994 122.3368 L242.9994 123.4638 "/>
<path d="M242.9994 123.4638 L242.6238 124.9663 "/>
<path d="M242.6238 124.9663 L242.2482 125.7176 "/>
<path d="M242.2482 125.7176 L241.4969 126.4689 "/>
<path d="M241.4969 126.4689 L240.3700 126.8445 "/>
<path d="M240.3700 126.8445 L238.4918 126.8445 "/>
<path d="M250.5122 126.8445 L246.0046 126.8445 "/>
<path d="M248.2584 126.8445 L248.2584 118.9561 "/>
<path d="M248.2584 118.9561 L247.5071 120.0830 "/>
<path d="M247.5071 120.0830 L246.7558 120.8343 "/>
<path d="M246.7558 120.8343 L246.0046 121.2099 "/>
</g></g>
<g style="fill:#000084; fill-opacity:0.0;  stroke:#000084; stroke-width:0.4733; stroke-opacity:1;  stroke-linecap:round; stroke-linejoin:round;">
<text x="184.8037" y="48.2060" textLength="9.9545" font-size="4.2072" lengthAdjust="spacingAndGlyphs" text-anchor="middle" opacity="0">R10</text>
<g class="stroked-text"><desc>R10</desc>
<path d="M182.7753 48.0635 L181.7235 46.5609 "/>
<path d="M180.9722 48.0635 L180.9722 44.9081 "/>
<path d="M180.9722 44.9081 L182.1743 44.9081 "/>
<path d="M182.1743 44.9081 L182.4748 45.0583 "/>
<path d="M182.4748 45.0583 L182.6250 45.2086 "/>
<path d="M182.6250 45.2086 L182.7753 45.5091 "/>
<path d="M182.7753 45.5091 L182.7753 45.9599 "/>
<path d="M182.7753 45.9599 L182.6250 46.2604 "/>
<path d="M182.6250 46.2604 L182.4748 46.4106 "/>
<path d="M182.4748 46.4106 L182.1743 46.5609 "/>
<path d="M182.1743 46.5609 L180.9722 46.5609 "/>
<path d="M185.7804 48.0635 L183.9773 48.0635 "/>
<path d="M184.8789 48.0635 L184.8789 44.9081 "/>
<path d="M184.8789 44.9081 L184.5784 45.3588 "/>
<path d="M184.5784 45.3588 L184.2778 45.6594 "/>
<path d="M184.2778 45.6594 L183.9773 45.8096 "/>
<path d="M187.7337 44.9081 L188.0342 44.9081 "/>
<path d="M188.0342 44.9081 L188.3348 45.0583 "/>
<path d="M188.3348 45.0583 L188.4850 45.2086 "/>
<path d="M188.4850 45.2086 L188.6353 45.5091 "/>
<path d="M188.6353 45.5091 L188.7855 46.1101 "/>
<path d="M188.7855 46.1101 L188.7855 46.8614 "/>
<path d="M188.7855 46.8614 L188.6353 47.4624 "/>
<path d="M188.6353 47.4624 L188.4850 47.7629 "/>
<path d="M188.4850 47.7629 L188.3348 47.9132 "/>
<path d="M188.3348 47.9132 L188.0342 48.0635 "/>
<path d="M188.0342 48.0635 L187.7337 48.0635 "/>
<path d="M187.7337 48.0635 L187.4332 47.9132 "/>
<path d="M187.4332 47.9132 L187.2830 47.7629 "/>
<path d="M187.2830 47.7629 L187.1327 47.4624 "/>
<path d="M187.1327 47.4624 L186.9825 46.8614 "/>
<path d="M186.9825 46.8614 L186.9825 46.1101 "/>
<path d="M186.9825 46.1101 L187.1327 45.5091 "/>
<path d="M187.1327 45.5091 L187.2830 45.2086 "/>
<path d="M187.2830 45.2086 L187.4332 45.0583 "/>
<path d="M187.4332 45.0583 L187.7337 44.9081 "/>
</g></g>
<g style="fill:#000084; fill-opacity:0.0;  stroke:#000084; stroke-width:1.1833; stroke-opacity:1;  stroke-linecap:round; stroke-linejoin:round;">
<g transform="rotate(90.000000 59.1645 105.2008)">
<text x="59.1645" y="109.1450" textLength="15.4952" font-size="10.5179" lengthAdjust="spacingAndGlyphs" text-anchor="middle" opacity="0">J1</text>
</g>
<g class="stroked-text"><desc>J1</desc>
<path d="M63.4651 102.5713 L57.8305 102.5713 "/>
<path d="M57.8305 102.5713 L56.7036 102.1957 "/>
<path d="M56.7036 102.1957 L55.9523 101.4444 "/>
<path d="M55.9523 101.4444 L55.5766 100.3175 "/>
<path d="M55.5766 100.3175 L55.5766 99.5662 "/>
<path d="M55.5766 110.4598 L55.5766 105.9521 "/>
<path d="M55.5766 108.2059 L63.4651 108.2059 "/>
<path d="M63.4651 108.2059 L62.3382 107.4546 "/>
<path d="M62.3382 107.4546 L61.5869 106.7034 "/>
<path d="M61.5869 106.7034 L61.2112 105.9521 "/>
</g></g>
<g style="fill:#000084; fill-opacity:0.0;  stroke:#000084; stroke-width:0.5916; stroke-opacity:1;  stroke-linecap:round; stroke-linejoin:round;">
<g transform="rotate(90.000000 154.0388 52.5447)">
<text x="154.0388" y="54.5168" textLength="8.8745" font-size="5.2590" lengthAdjust="spacingAndGlyphs" text-anchor="middle" opacity="0">U3</text>
</g>
<g class="stroked-text"><desc>U3</desc>
<path d="M156.1891 49.5395 L152.9962 49.5395 "/>
<path d="M152.9962 49.5395 L152.6205 49.7274 "/>
<path d="M152.6205 49.7274 L152.4327 49.9152 "/>
<path d="M152.4327 49.9152 L152.2449 50.2908 "/>
<path d="M152.2449 50.2908 L152.2449 51.0421 "/>
<path d="M152.2449 51.0421 L152.4327 51.4177 "/>
<path d="M152.4327 51.4177 L152.6205 51.6056 "/>
<path d="M152.6205 51.6056 L152.9962 51.7934 "/>
<path d="M152.9962 51.7934 L156.1891 51.7934 "/>
<path d="M156.1891 53.2960 L156.1891 55.7376 "/>
<path d="M156.1891 55.7376 L154.6866 54.4229 "/>
<path d="M154.6866 54.4229 L154.6866 54.9863 "/>
<path d="M154.6866 54.9863 L154.4987 55.3620 "/>
<path d="M154.4987 55.3620 L154.3109 55.5498 "/>
<path d="M154.3109 55.5498 L153.9353 55.7376 "/>
<path d="M153.9353 55.7376 L152.9962 55.7376 "/>
<path d="M152.9962 55.7376 L152.6205 55.5498 "/>
<path d="M152.6205 55.5498 L152.4327 55.3620 "/>
<path d="M152.4327 55.3620 L152.2449 54.9863 "/>
<path d="M152.2449 54.9863 L152.2449 53.8594 "/>
<path d="M152.2449 53.8594 L152.4327 53.4838 "/>
<path d="M152.4327 53.4838 L152.6205 53.2960 "/>
</g></g>
<g style="fill:#000084; fill-opacity:0.0;  stroke:#000084; stroke-width:0.4733; stroke-opacity:1;  stroke-linecap:round; stroke-linejoin:round;">
<text x="244.3142" y="96.7602" textLength="6.9493" font-size="4.2072" lengthAdjust="spacingAndGlyphs" text-anchor="middle" opacity="0">C3</text>
<g class="stroked-text"><desc>C3</desc>
<path d="M243.7883 96.3171 L243.6380 96.4674 "/>
<path d="M243.6380 96.4674 L243.1873 96.6176 "/>
<path d="M243.1873 96.6176 L242.8867 96.6176 "/>
<path d="M242.8867 96.6176 L242.4360 96.4674 "/>
<path d="M242.4360 96.4674 L242.1355 96.1668 "/>
<path d="M242.1355 96.1668 L241.9852 95.8663 "/>
<path d="M241.9852 95.8663 L241.8350 95.2653 "/>
<path d="M241.8350 95.2653 L241.8350 94.8145 "/>
<path d="M241.8350 94.8145 L241.9852 94.2135 "/>
<path d="M241.9852 94.2135 L242.1355 93.9130 "/>
<path d="M242.1355 93.9130 L242.4360 93.6125 "/>
<path d="M242.4360 93.6125 L242.8867 93.4622 "/>
<path d="M242.8867 93.4622 L243.1873 93.4622 "/>
<path d="M243.1873 93.4622 L243.6380 93.6125 "/>
<path d="M243.6380 93.6125 L243.7883 93.7627 "/>
<path d="M244.8401 93.4622 L246.7934 93.4622 "/>
<path d="M246.7934 93.4622 L245.7416 94.6643 "/>
<path d="M245.7416 94.6643 L246.1924 94.6643 "/>
<path d="M246.1924 94.6643 L246.4929 94.8145 "/>
<path d="M246.4929 94.8145 L246.6431 94.9648 "/>
<path d="M246.6431 94.9648 L246.7934 95.2653 "/>
<path d="M246.7934 95.2653 L246.7934 96.0166 "/>
<path d="M246.7934 96.0166 L246.6431 96.3171 "/>
<path d="M246.6431 96.3171 L246.4929 96.4674 "/>
<path d="M246.4929 96.4674 L246.1924 96.6176 "/>
<path d="M246.1924 96.6176 L245.2908 96.6176 "/>
<path d="M245.2908 96.6176 L244.9903 96.4674 "/>
<path d="M244.9903 96.4674 L244.8401 96.3171 "/>
</g><text x="236.8675" y="48.2060" textLength="6.9493" font-size="4.2072" lengthAdjust="spacingAndGlyphs" text-anchor="middle" opacity="0">C4</text>
<g class="stroked-text"><desc>C4</desc>
<path d="M236.3416 47.7629 L236.1913 47.9132 "/>
<path d="M236.1913 47.9132 L235.7406 48.0635 "/>
<path d="M235.7406 48.0635 L235.4400 48.0635 "/>
<path d="M235.4400 48.0635 L234.9893 47.9132 "/>
<path d="M234.9893 47.9132 L234.6888 47.6127 "/>
<path d="M234.6888 47.6127 L234.5385 47.3122 "/>
<path d="M234.5385 47.3122 L234.3883 46.7112 "/>
<path d="M234.3883 46.7112 L234.3883 46.2604 "/>
<path d="M234.3883 46.2604 L234.5385 45.6594 "/>
<path d="M234.5385 45.6594 L234.6888 45.3588 "/>
<path d="M234.6888 45.3588 L234.9893 45.0583 "/>
<path d="M234.9893 45.0583 L235.4400 44.9081 "/>
<path d="M235.4400 44.9081 L235.7406 44.9081 "/>
<path d="M235.7406 44.9081 L236.1913 45.0583 "/>
<path d="M236.1913 45.0583 L236.3416 45.2086 "/>
<path d="M239.0462 45.9599 L239.0462 48.0635 "/>
<path d="M238.2949 44.7578 L237.5436 47.0117 "/>
<path d="M237.5436 47.0117 L239.4970 47.0117 "/>
</g></g>
<g style="fill:#000084; fill-opacity:0.0;  stroke:#000084; stroke-width:1.1833; stroke-opacity:1;  stroke-linecap:round; stroke-linejoin:round;">
<g transform="rotate(90.000000 271.5451 67.2882)">
<text x="271.5451" y="71.2324" textLength="15.4952" font-size="10.5179" lengthAdjust="spacingAndGlyphs" text-anchor="middle" opacity="0">J2</text>
</g>
<g class="stroked-text"><desc>J2</desc>
<path d="M275.8457 64.6587 L270.2111 64.6587 "/>
<path d="M270.2111 64.6587 L269.0842 64.2831 "/>
<path d="M269.0842 64.2831 L268.3329 63.5318 "/>
<path d="M268.3329 63.5318 L267.9573 62.4049 "/>
<path d="M267.9573 62.4049 L267.9573 61.6536 "/>
<path d="M275.0944 68.0395 L275.4701 68.4151 "/>
<path d="M275.4701 68.4151 L275.8457 69.1664 "/>
<path d="M275.8457 69.1664 L275.8457 71.0446 "/>
<path d="M275.8457 71.0446 L275.4701 71.7959 "/>
<path d="M275.4701 71.7959 L275.0944 72.1715 "/>
<path d="M275.0944 72.1715 L274.3432 72.5471 "/>
<path d="M274.3432 72.5471 L273.5919 72.5471 "/>
<path d="M273.5919 72.5471 L272.4650 72.1715 "/>
<path d="M272.4650 72.1715 L267.9573 67.6638 "/>
<path d="M267.9573 67.6638 L267.9573 72.5471 "/>
</g></g>
<g style="fill:#000084; fill-opacity:0.0;  stroke:#000084; stroke-width:0.4733; stroke-opacity:1;  stroke-linecap:round; stroke-linejoin:round;">
<g transform="rotate(90.000000 158.1566 161.3034)">
<text x="158.1566" y="162.8811" textLength="6.9493" font-size="4.2072" lengthAdjust="spacingAndGlyphs" text-anchor="middle" opacity="0">R4</text>
</g>
<g class="stroked-text"><desc>R4</desc>
<path d="M156.7214 160.7775 L158.2240 159.7257 "/>
<path d="M156.7214 158.9745 L159.8768 158.9745 "/>
<path d="M159.8768 158.9745 L159.8768 160.1765 "/>
<path d="M159.8768 160.1765 L159.7266 160.4770 "/>
<path d="M159.7266 160.4770 L159.5763 160.6273 "/>
<path d="M159.5763 160.6273 L159.2758 160.7775 "/>
<path d="M159.2758 160.7775 L158.8250 160.7775 "/>
<path d="M158.8250 160.7775 L158.5245 160.6273 "/>
<path d="M158.5245 160.6273 L158.3743 160.4770 "/>
<path d="M158.3743 160.4770 L158.2240 160.1765 "/>
<path d="M158.2240 160.1765 L158.2240 158.9745 "/>
<path d="M158.8250 163.4821 L156.7214 163.4821 "/>
<path d="M160.0271 162.7309 L157.7732 161.9796 "/>
<path d="M157.7732 161.9796 L157.7732 163.9329 "/>
</g></g>
<g style="fill:#000084; fill-opacity:0.0;  stroke:#000084; stroke-width:0.6311; stroke-opacity:1;  stroke-linecap:round; stroke-linejoin:round;">
<g transform="rotate(90.000000 55.0388 53.7279)">
<text x="55.0388" y="55.7001" textLength="8.8050" font-size="5.2590" lengthAdjust="spacingAndGlyphs" text-anchor="middle" opacity="0">R1</text>
</g>
<g class="stroked-text"><desc>R1</desc>
<path d="M53.2469 53.0706 L55.1251 51.7558 "/>
<path d="M53.2469 50.8167 L57.1912 50.8167 "/>
<path d="M57.1912 50.8167 L57.1912 52.3193 "/>
<path d="M57.1912 52.3193 L57.0033 52.6949 "/>
<path d="M57.0033 52.6949 L56.8155 52.8827 "/>
<path d="M56.8155 52.8827 L56.4399 53.0706 "/>
<path d="M56.4399 53.0706 L55.8764 53.0706 "/>
<path d="M55.8764 53.0706 L55.5008 52.8827 "/>
<path d="M55.5008 52.8827 L55.3130 52.6949 "/>
<path d="M55.3130 52.6949 L55.1251 52.3193 "/>
<path d="M55.1251 52.3193 L55.1251 50.8167 "/>
<path d="M53.2469 56.8270 L53.2469 54.5731 "/>
<path d="M53.2469 55.7001 L57.1912 55.7001 "/>
<path d="M57.1912 55.7001 L56.6277 55.3244 "/>
<path d="M56.6277 55.3244 L56.2521 54.9488 "/>
<path d="M56.2521 54.9488 L56.0642 54.5731 "/>
</g><g transform="rotate(90.000000 90.0319 53.7279)">
<text x="90.0319" y="55.7001" textLength="8.8050" font-size="5.2590" lengthAdjust="spacingAndGlyphs" text-anchor="middle" opacity="0">R2</text>
</g>
<g class="stroked-text"><desc>R2</desc>
<path d="M88.2401 53.0706 L90.1183 51.7558 "/>
<path d="M88.2401 50.8167 L92.1843 50.8167 "/>
<path d="M92.1843 50.8167 L92.1843 52.3193 "/>
<path d="M92.1843 52.3193 L91.9965 52.6949 "/>
<path d="M91.9965 52.6949 L91.8087 52.8827 "/>
<path d="M91.8087 52.8827 L91.4330 53.0706 "/>
<path d="M91.4330 53.0706 L90.8696 53.0706 "/>
<path d="M90.8696 53.0706 L90.4939 52.8827 "/>
<path d="M90.4939 52.8827 L90.3061 52.6949 "/>
<path d="M90.3061 52.6949 L90.1183 52.3193 "/>
<path d="M90.1183 52.3193 L90.1183 50.8167 "/>
<path d="M91.8087 54.5731 L91.9965 54.7609 "/>
<path d="M91.9965 54.7609 L92.1843 55.1366 "/>
<path d="M92.1843 55.1366 L92.1843 56.0757 "/>
<path d="M92.1843 56.0757 L91.9965 56.4513 "/>
<path d="M91.9965 56.4513 L91.8087 56.6391 "/>
<path d="M91.8087 56.6391 L91.4330 56.8270 "/>
<path d="M91.4330 56.8270 L91.0574 56.8270 "/>
<path d="M91.0574 56.8270 L90.4939 56.6391 "/>
<path d="M90.4939 56.6391 L88.2401 54.3853 "/>
<path d="M88.2401 54.3853 L88.2401 56.8270 "/>
</g></g>
<g style="fill:#000084; fill-opacity:0.0;  stroke:#000084; stroke-width:0.4733; stroke-opacity:1;  stroke-linecap:round; stroke-linejoin:round;">
<text x="210.8356" y="48.2060" textLength="6.9493" font-size="4.2072" lengthAdjust="spacingAndGlyphs" text-anchor="middle" opacity="0">R3</text>
<g class="stroked-text"><desc>R3</desc>
<path d="M210.3097 48.0635 L209.2579 46.5609 "/>
<path d="M208.5066 48.0635 L208.5066 44.9081 "/>
<path d="M208.5066 44.9081 L209.7087 44.9081 "/>
<path d="M209.7087 44.9081 L210.0092 45.0583 "/>
<path d="M210.0092 45.0583 L210.1595 45.2086 "/>
<path d="M210.1595 45.2086 L210.3097 45.5091 "/>
<path d="M210.3097 45.5091 L210.3097 45.9599 "/>
<path d="M210.3097 45.9599 L210.1595 46.2604 "/>
<path d="M210.1595 46.2604 L210.0092 46.4106 "/>
<path d="M210.0092 46.4106 L209.7087 46.5609 "/>
<path d="M209.7087 46.5609 L208.5066 46.5609 "/>
<path d="M211.3615 44.9081 L213.3148 44.9081 "/>
<path d="M213.3148 44.9081 L212.2630 46.1101 "/>
<path d="M212.2630 46.1101 L212.7138 46.1101 "/>
<path d="M212.7138 46.1101 L213.0143 46.2604 "/>
<path d="M213.0143 46.2604 L213.1646 46.4106 "/>
<path d="M213.1646 46.4106 L213.3148 46.7112 "/>
<path d="M213.3148 46.7112 L213.3148 47.4624 "/>
<path d="M213.3148 47.4624 L213.1646 47.7629 "/>
<path d="M213.1646 47.7629 L213.0143 47.9132 "/>
<path d="M213.0143 47.9132 L212.7138 48.0635 "/>
<path d="M212.7138 48.0635 L211.8123 48.0635 "/>
<path d="M211.8123 48.0635 L211.5118 47.9132 "/>
<path d="M211.5118 47.9132 L211.3615 47.7629 "/>
</g><g transform="rotate(90.000000 92.1776 160.4199)">
<text x="92.1776" y="161.9976" textLength="6.9493" font-size="4.2072" lengthAdjust="spacingAndGlyphs" text-anchor="middle" opacity="0">C6</text>
</g>
<g class="stroked-text"><desc>C6</desc>
<path d="M91.0430 159.8940 L90.8927 159.7438 "/>
<path d="M90.8927 159.7438 L90.7425 159.2930 "/>
<path d="M90.7425 159.2930 L90.7425 158.9925 "/>
<path d="M90.7425 158.9925 L90.8927 158.5417 "/>
<path d="M90.8927 158.5417 L91.1932 158.2412 "/>
<path d="M91.1932 158.2412 L91.4938 158.0910 "/>
<path d="M91.4938 158.0910 L92.0948 157.9407 "/>
<path d="M92.0948 157.9407 L92.5455 157.9407 "/>
<path d="M92.5455 157.9407 L93.1466 158.0910 "/>
<path d="M93.1466 158.0910 L93.4471 158.2412 "/>
<path d="M93.4471 158.2412 L93.7476 158.5417 "/>
<path d="M93.7476 158.5417 L93.8979 158.9925 "/>
<path d="M93.8979 158.9925 L93.8979 159.2930 "/>
<path d="M93.8979 159.2930 L93.7476 159.7438 "/>
<path d="M93.7476 159.7438 L93.5973 159.8940 "/>
<path d="M93.8979 162.5986 L93.8979 161.9976 "/>
<path d="M93.8979 161.9976 L93.7476 161.6971 "/>
<path d="M93.7476 161.6971 L93.5973 161.5469 "/>
<path d="M93.5973 161.5469 L93.1466 161.2463 "/>
<path d="M93.1466 161.2463 L92.5455 161.0961 "/>
<path d="M92.5455 161.0961 L91.3435 161.0961 "/>
<path d="M91.3435 161.0961 L91.0430 161.2463 "/>
<path d="M91.0430 161.2463 L90.8927 161.3966 "/>
<path d="M90.8927 161.3966 L90.7425 161.6971 "/>
<path d="M90.7425 161.6971 L90.7425 162.2981 "/>
<path d="M90.7425 162.2981 L90.8927 162.5986 "/>
<path d="M90.8927 162.5986 L91.0430 162.7489 "/>
<path d="M91.0430 162.7489 L91.3435 162.8992 "/>
<path d="M91.3435 162.8992 L92.0948 162.8992 "/>
<path d="M92.0948 162.8992 L92.3953 162.7489 "/>
<path d="M92.3953 162.7489 L92.5455 162.5986 "/>
<path d="M92.5455 162.5986 L92.6958 162.2981 "/>
<path d="M92.6958 162.2981 L92.6958 161.6971 "/>
<path d="M92.6958 161.6971 L92.5455 161.3966 "/>
<path d="M92.5455 161.3966 L92.3953 161.2463 "/>
<path d="M92.3953 161.2463 L92.0948 161.0961 "/>
</g></g>
<g style="fill:#000084; fill-opacity:0.0;  stroke:#000084; stroke-width:1.1833; stroke-opacity:1;  stroke-linecap:round; stroke-linejoin:round;">
<g transform="rotate(90.000000 271.5451 142.8201)">
<text x="271.5451" y="146.7643" textLength="15.4952" font-size="10.5179" lengthAdjust="spacingAndGlyphs" text-anchor="middle" opacity="0">J3</text>
</g>
<g class="stroked-text"><desc>J3</desc>
<path d="M275.8457 140.1906 L270.2111 140.1906 "/>
<path d="M270.2111 140.1906 L269.0842 139.8149 "/>
<path d="M269.0842 139.8149 L268.3329 139.0636 "/>
<path d="M268.3329 139.0636 L267.9573 137.9367 "/>
<path d="M267.9573 137.9367 L267.9573 137.1854 "/>
<path d="M275.8457 143.1957 L275.8457 148.0790 "/>
<path d="M275.8457 148.0790 L272.8406 145.4495 "/>
<path d="M272.8406 145.4495 L272.8406 146.5764 "/>
<path d="M272.8406 146.5764 L272.4650 147.3277 "/>
<path d="M272.4650 147.3277 L272.0893 147.7034 "/>
<path d="M272.0893 147.7034 L271.3380 148.0790 "/>
<path d="M271.3380 148.0790 L269.4598 148.0790 "/>
<path d="M269.4598 148.0790 L268.7086 147.7034 "/>
<path d="M268.7086 147.7034 L268.3329 147.3277 "/>
<path d="M268.3329 147.3277 L267.9573 146.5764 "/>
<path d="M267.9573 146.5764 L267.9573 144.3226 "/>
<path d="M267.9573 144.3226 L268.3329 143.5713 "/>
<path d="M268.3329 143.5713 L268.7086 143.1957 "/>
</g></g>
<g style="fill:#000084; fill-opacity:0.0;  stroke:#000084; stroke-width:0.4733; stroke-opacity:1;  stroke-linecap:round; stroke-linejoin:round;">
<g transform="rotate(90.000000 160.3606 78.5750)">
<text x="160.3606" y="80.1527" textLength="6.9493" font-size="4.2072" lengthAdjust="spacingAndGlyphs" text-anchor="middle" opacity="0">C5</text>
</g>
<g class="stroked-text"><desc>C5</desc>
<path d="M159.2260 78.0491 L159.0757 77.8988 "/>
<path d="M159.0757 77.8988 L158.9255 77.4480 "/>
<path d="M158.9255 77.4480 L158.9255 77.1475 "/>
<path d="M158.9255 77.1475 L159.0757 76.6968 "/>
<path d="M159.0757 76.6968 L159.3762 76.3962 "/>
<path d="M159.3762 76.3962 L159.6768 76.2460 "/>
<path d="M159.6768 76.2460 L160.2778 76.0957 "/>
<path d="M160.2778 76.0957 L160.7285 76.0957 "/>
<path d="M160.7285 76.0957 L161.3296 76.2460 "/>
<path d="M161.3296 76.2460 L161.6301 76.3962 "/>
<path d="M161.6301 76.3962 L161.9306 76.6968 "/>
<path d="M161.9306 76.6968 L162.0809 77.1475 "/>
<path d="M162.0809 77.1475 L162.0809 77.4480 "/>
<path d="M162.0809 77.4480 L161.9306 77.8988 "/>
<path d="M161.9306 77.8988 L161.7803 78.0491 "/>
<path d="M162.0809 80.9039 L162.0809 79.4014 "/>
<path d="M162.0809 79.4014 L160.5783 79.2511 "/>
<path d="M160.5783 79.2511 L160.7285 79.4014 "/>
<path d="M160.7285 79.4014 L160.8788 79.7019 "/>
<path d="M160.8788 79.7019 L160.8788 80.4532 "/>
<path d="M160.8788 80.4532 L160.7285 80.7537 "/>
<path d="M160.7285 80.7537 L160.5783 80.9039 "/>
<path d="M160.5783 80.9039 L160.2778 81.0542 "/>
<path d="M160.2778 81.0542 L159.5265 81.0542 "/>
<path d="M159.5265 81.0542 L159.2260 80.9039 "/>
<path d="M159.2260 80.9039 L159.0757 80.7537 "/>
<path d="M159.0757 80.7537 L158.9255 80.4532 "/>
<path d="M158.9255 80.4532 L158.9255 79.7019 "/>
<path d="M158.9255 79.7019 L159.0757 79.4014 "/>
<path d="M159.0757 79.4014 L159.2260 79.2511 "/>
</g></g>
<g style="fill:#000084; fill-opacity:0.0;  stroke:#000084; stroke-width:1.5777; stroke-opacity:1;  stroke-linecap:round; stroke-linejoin:round;">
<g transform="rotate(180.000000 210.2519 103.2201)">
<text x="210.2519" y="107.1643" textLength="18.9323" font-size="10.5179" lengthAdjust="spacingAndGlyphs" text-anchor="middle" opacity="0">U1</text>
</g>
<g class="stroked-text"><desc>U1</desc>
<path d="M216.2621 107.5412 L216.2621 101.1553 "/>
<path d="M216.2621 101.1553 L215.8865 100.4040 "/>
<path d="M215.8865 100.4040 L215.5108 100.0284 "/>
<path d="M215.5108 100.0284 L214.7595 99.6527 "/>
<path d="M214.7595 99.6527 L213.2570 99.6527 "/>
<path d="M213.2570 99.6527 L212.5057 100.0284 "/>
<path d="M212.5057 100.0284 L212.1301 100.4040 "/>
<path d="M212.1301 100.4040 L211.7544 101.1553 "/>
<path d="M211.7544 101.1553 L211.7544 107.5412 "/>
<path d="M203.8660 99.6527 L208.3737 99.6527 "/>
<path d="M206.1198 99.6527 L206.1198 107.5412 "/>
<path d="M206.1198 107.5412 L206.8711 106.4143 "/>
<path d="M206.8711 106.4143 L207.6224 105.6630 "/>
<path d="M207.6224 105.6630 L208.3737 105.2873 "/>
</g></g>
<g style="fill:#000084; fill-opacity:0.0;  stroke:#000084; stroke-width:0.4733; stroke-opacity:1;  stroke-linecap:round; stroke-linejoin:round;">
<g transform="rotate(90.000000 128.4013 51.7558)">
<text x="128.4013" y="53.3335" textLength="6.9493" font-size="4.2072" lengthAdjust="spacingAndGlyphs" text-anchor="middle" opacity="0">C1</text>
</g>
<g class="stroked-text"><desc>C1</desc>
<path d="M127.2667 51.2299 L127.1165 51.0797 "/>
<path d="M127.1165 51.0797 L126.9662 50.6289 "/>
<path d="M126.9662 50.6289 L126.9662 50.3284 "/>
<path d="M126.9662 50.3284 L127.1165 49.8776 "/>
<path d="M127.1165 49.8776 L127.4170 49.5771 "/>
<path d="M127.4170 49.5771 L127.7175 49.4269 "/>
<path d="M127.7175 49.4269 L128.3185 49.2766 "/>
<path d="M128.3185 49.2766 L128.7693 49.2766 "/>
<path d="M128.7693 49.2766 L129.3703 49.4269 "/>
<path d="M129.3703 49.4269 L129.6708 49.5771 "/>
<path d="M129.6708 49.5771 L129.9713 49.8776 "/>
<path d="M129.9713 49.8776 L130.1216 50.3284 "/>
<path d="M130.1216 50.3284 L130.1216 50.6289 "/>
<path d="M130.1216 50.6289 L129.9713 51.0797 "/>
<path d="M129.9713 51.0797 L129.8211 51.2299 "/>
<path d="M126.9662 54.2350 L126.9662 52.4320 "/>
<path d="M126.9662 53.3335 L130.1216 53.3335 "/>
<path d="M130.1216 53.3335 L129.6708 53.0330 "/>
<path d="M129.6708 53.0330 L129.3703 52.7325 "/>
<path d="M129.3703 52.7325 L129.2201 52.4320 "/>
</g><g transform="rotate(90.000000 72.5354 53.7279)">
<text x="72.5354" y="55.3056" textLength="6.9493" font-size="4.2072" lengthAdjust="spacingAndGlyphs" text-anchor="middle" opacity="0">C2</text>
</g>
<g class="stroked-text"><desc>C2</desc>
<path d="M71.4008 53.2020 L71.2505 53.0518 "/>
<path d="M71.2505 53.0518 L71.1002 52.6010 "/>
<path d="M71.1002 52.6010 L71.1002 52.3005 "/>
<path d="M71.1002 52.3005 L71.2505 51.8497 "/>
<path d="M71.2505 51.8497 L71.5510 51.5492 "/>
<path d="M71.5510 51.5492 L71.8515 51.3990 "/>
<path d="M71.8515 51.3990 L72.4525 51.2487 "/>
<path d="M72.4525 51.2487 L72.9033 51.2487 "/>
<path d="M72.9033 51.2487 L73.5043 51.3990 "/>
<path d="M73.5043 51.3990 L73.8049 51.5492 "/>
<path d="M73.8049 51.5492 L74.1054 51.8497 "/>
<path d="M74.1054 51.8497 L74.2556 52.3005 "/>
<path d="M74.2556 52.3005 L74.2556 52.6010 "/>
<path d="M74.2556 52.6010 L74.1054 53.0518 "/>
<path d="M74.1054 53.0518 L73.9551 53.2020 "/>
<path d="M73.9551 54.4041 L74.1054 54.5543 "/>
<path d="M74.1054 54.5543 L74.2556 54.8549 "/>
<path d="M74.2556 54.8549 L74.2556 55.6061 "/>
<path d="M74.2556 55.6061 L74.1054 55.9066 "/>
<path d="M74.1054 55.9066 L73.9551 56.0569 "/>
<path d="M73.9551 56.0569 L73.6546 56.2072 "/>
<path d="M73.6546 56.2072 L73.3541 56.2072 "/>
<path d="M73.3541 56.2072 L72.9033 56.0569 "/>
<path d="M72.9033 56.0569 L71.1002 54.2538 "/>
<path d="M71.1002 54.2538 L71.1002 56.2072 "/>
</g></g>
<g style="fill:#000084; fill-opacity:0.0;  stroke:#000084; stroke-width:1.1833; stroke-opacity:1;  stroke-linecap:round; stroke-linejoin:round;">
<text x="111.4712" y="165.0284" textLength="11.5645" font-size="13.3578" lengthAdjust="spacingAndGlyphs" text-anchor="middle" opacity="0">K</text>
<g class="stroked-text"><desc>K</desc>
<path d="M108.8473 164.5923 L108.8473 154.5740 "/>
<path d="M114.5721 164.5923 L110.2785 158.8676 "/>
<path d="M114.5721 154.5740 L108.8473 160.2988 "/>
</g><text x="126.0979" y="165.4291" textLength="21.1057" font-size="13.3578" lengthAdjust="spacingAndGlyphs" text-anchor="middle" opacity="0">D2</text>
<g class="stroked-text"><desc>D2</desc>
<path d="M118.7034 164.9931 L118.7034 154.9747 "/>
<path d="M118.7034 154.9747 L121.0888 154.9747 "/>
<path d="M121.0888 154.9747 L122.5199 155.4518 "/>
<path d="M122.5199 155.4518 L123.4741 156.4059 "/>
<path d="M123.4741 156.4059 L123.9511 157.3601 "/>
<path d="M123.9511 157.3601 L124.4282 159.2683 "/>
<path d="M124.4282 159.2683 L124.4282 160.6995 "/>
<path d="M124.4282 160.6995 L123.9511 162.6078 "/>
<path d="M123.9511 162.6078 L123.4741 163.5619 "/>
<path d="M123.4741 163.5619 L122.5199 164.5160 "/>
<path d="M122.5199 164.5160 L121.0888 164.9931 "/>
<path d="M121.0888 164.9931 L118.7034 164.9931 "/>
<path d="M128.2447 155.9289 L128.7218 155.4518 "/>
<path d="M128.7218 155.4518 L129.6759 154.9747 "/>
<path d="M129.6759 154.9747 L132.0612 154.9747 "/>
<path d="M132.0612 154.9747 L133.0153 155.4518 "/>
<path d="M133.0153 155.4518 L133.4924 155.9289 "/>
<path d="M133.4924 155.9289 L133.9695 156.8830 "/>
<path d="M133.9695 156.8830 L133.9695 157.8371 "/>
<path d="M133.9695 157.8371 L133.4924 159.2683 "/>
<path d="M133.4924 159.2683 L127.7676 164.9931 "/>
<path d="M127.7676 164.9931 L133.9695 164.9931 "/>
</g></g>
<g style="fill:#000084; fill-opacity:0.0;  stroke:#000084; stroke-width:0.3155; stroke-opacity:1;  stroke-linecap:round; stroke-linejoin:round;">
<g transform="rotate(90.000000 236.5362 168.3084)">
<text x="236.5362" y="169.0972" textLength="5.8149" font-size="2.1036" lengthAdjust="spacingAndGlyphs" text-anchor="middle" opacity="0">FID3</text>
</g>
<g class="stroked-text"><desc>FID3</desc>
<path d="M236.6491 166.6180 L236.6491 166.0921 "/>
<path d="M235.8227 166.0921 L237.4004 166.0921 "/>
<path d="M237.4004 166.0921 L237.4004 166.8434 "/>
<path d="M235.8227 167.4444 L237.4004 167.4444 "/>
<path d="M235.8227 168.1957 L237.4004 168.1957 "/>
<path d="M237.4004 168.1957 L237.4004 168.5713 "/>
<path d="M237.4004 168.5713 L237.3253 168.7967 "/>
<path d="M237.3253 168.7967 L237.1750 168.9470 "/>
<path d="M237.1750 168.9470 L237.0248 169.0221 "/>
<path d="M237.0248 169.0221 L236.7242 169.0972 "/>
<path d="M236.7242 169.0972 L236.4989 169.0972 "/>
<path d="M236.4989 169.0972 L236.1983 169.0221 "/>
<path d="M236.1983 169.0221 L236.0481 168.9470 "/>
<path d="M236.0481 168.9470 L235.8978 168.7967 "/>
<path d="M235.8978 168.7967 L235.8227 168.5713 "/>
<path d="M235.8227 168.5713 L235.8227 168.1957 "/>
<path d="M237.4004 169.6231 L237.4004 170.5998 "/>
<path d="M237.4004 170.5998 L236.7994 170.0739 "/>
<path d="M236.7994 170.0739 L236.7994 170.2993 "/>
<path d="M236.7994 170.2993 L236.7242 170.4495 "/>
<path d="M236.7242 170.4495 L236.6491 170.5247 "/>
<path d="M236.6491 170.5247 L236.4989 170.5998 "/>
<path d="M236.4989 170.5998 L236.1232 170.5998 "/>
<path d="M236.1232 170.5998 L235.9730 170.5247 "/>
<path d="M235.9730 170.5247 L235.8978 170.4495 "/>
<path d="M235.8978 170.4495 L235.8227 170.2993 "/>
<path d="M235.8227 170.2993 L235.8227 169.8485 "/>
<path d="M235.8227 169.8485 L235.8978 169.6983 "/>
<path d="M235.8978 169.6983 L235.9730 169.6231 "/>
</g></g>
<g style="fill:#000084; fill-opacity:0.0;  stroke:#000084; stroke-width:0.5916; stroke-opacity:1;  stroke-linecap:round; stroke-linejoin:round;">
<text x="69.9953" y="161.2948" textLength="8.8745" font-size="5.2590" lengthAdjust="spacingAndGlyphs" text-anchor="middle" opacity="0">U2</text>
<g class="stroked-text"><desc>U2</desc>
<path d="M66.9902 157.1724 L66.9902 160.3653 "/>
<path d="M66.9902 160.3653 L67.1780 160.7409 "/>
<path d="M67.1780 160.7409 L67.3658 160.9288 "/>
<path d="M67.3658 160.9288 L67.7414 161.1166 "/>
<path d="M67.7414 161.1166 L68.4927 161.1166 "/>
<path d="M68.4927 161.1166 L68.8684 160.9288 "/>
<path d="M68.8684 160.9288 L69.0562 160.7409 "/>
<path d="M69.0562 160.7409 L69.2440 160.3653 "/>
<path d="M69.2440 160.3653 L69.2440 157.1724 "/>
<path d="M70.9344 157.5480 L71.1222 157.3602 "/>
<path d="M71.1222 157.3602 L71.4979 157.1724 "/>
<path d="M71.4979 157.1724 L72.4370 157.1724 "/>
<path d="M72.4370 157.1724 L72.8126 157.3602 "/>
<path d="M72.8126 157.3602 L73.0004 157.5480 "/>
<path d="M73.0004 157.5480 L73.1882 157.9236 "/>
<path d="M73.1882 157.9236 L73.1882 158.2993 "/>
<path d="M73.1882 158.2993 L73.0004 158.8627 "/>
<path d="M73.0004 158.8627 L70.7466 161.1166 "/>
<path d="M70.7466 161.1166 L73.1882 161.1166 "/>
</g></g>
<g style="fill:#000084; fill-opacity:0.0;  stroke:#000084; stroke-width:0.4733; stroke-opacity:1;  stroke-linecap:round; stroke-linejoin:round;">
<g transform="rotate(90.000000 174.1859 161.3034)">
<text x="174.1859" y="162.8811" textLength="6.9493" font-size="4.2072" lengthAdjust="spacingAndGlyphs" text-anchor="middle" opacity="0">R5</text>
</g>
<g class="stroked-text"><desc>R5</desc>
<path d="M172.7508 160.7775 L174.2533 159.7257 "/>
<path d="M172.7508 158.9745 L175.9061 158.9745 "/>
<path d="M175.9061 158.9745 L175.9061 160.1765 "/>
<path d="M175.9061 160.1765 L175.7559 160.4770 "/>
<path d="M175.7559 160.4770 L175.6056 160.6273 "/>
<path d="M175.6056 160.6273 L175.3051 160.7775 "/>
<path d="M175.3051 160.7775 L174.8544 160.7775 "/>
<path d="M174.8544 160.7775 L174.5538 160.6273 "/>
<path d="M174.5538 160.6273 L174.4036 160.4770 "/>
<path d="M174.4036 160.4770 L174.2533 160.1765 "/>
<path d="M174.2533 160.1765 L174.2533 158.9745 "/>
<path d="M175.9061 163.6324 L175.9061 162.1298 "/>
<path d="M175.9061 162.1298 L174.4036 161.9796 "/>
<path d="M174.4036 161.9796 L174.5538 162.1298 "/>
<path d="M174.5538 162.1298 L174.7041 162.4304 "/>
<path d="M174.7041 162.4304 L174.7041 163.1816 "/>
<path d="M174.7041 163.1816 L174.5538 163.4821 "/>
<path d="M174.5538 163.4821 L174.4036 163.6324 "/>
<path d="M174.4036 163.6324 L174.1031 163.7827 "/>
<path d="M174.1031 163.7827 L173.3518 163.7827 "/>
<path d="M173.3518 163.7827 L173.0513 163.6324 "/>
<path d="M173.0513 163.6324 L172.9010 163.4821 "/>
<path d="M172.9010 163.4821 L172.7508 163.1816 "/>
<path d="M172.7508 163.1816 L172.7508 162.4304 "/>
<path d="M172.7508 162.4304 L172.9010 162.1298 "/>
<path d="M172.9010 162.1298 L173.0513 161.9796 "/>
</g></g>
<g style="fill:#000084; fill-opacity:0.0;  stroke:#000084; stroke-width:0.3155; stroke-opacity:1;  stroke-linecap:round; stroke-linejoin:round;">
<text x="19.6039" y="54.7148" textLength="5.8149" font-size="2.1036" lengthAdjust="spacingAndGlyphs" text-anchor="middle" opacity="0">FID1</text>
<g class="stroked-text"><desc>FID1</desc>
<path d="M17.9135 53.8130 L17.3876 53.8130 "/>
<path d="M17.3876 54.6394 L17.3876 53.0617 "/>
<path d="M17.3876 53.0617 L18.1389 53.0617 "/>
<path d="M18.7399 54.6394 L18.7399 53.0617 "/>
<path d="M19.4912 54.6394 L19.4912 53.0617 "/>
<path d="M19.4912 53.0617 L19.8669 53.0617 "/>
<path d="M19.8669 53.0617 L20.0922 53.1368 "/>
<path d="M20.0922 53.1368 L20.2425 53.2871 "/>
<path d="M20.2425 53.2871 L20.3176 53.4373 "/>
<path d="M20.3176 53.4373 L20.3927 53.7378 "/>
<path d="M20.3927 53.7378 L20.3927 53.9632 "/>
<path d="M20.3927 53.9632 L20.3176 54.2637 "/>
<path d="M20.3176 54.2637 L20.2425 54.4140 "/>
<path d="M20.2425 54.4140 L20.0922 54.5642 "/>
<path d="M20.0922 54.5642 L19.8669 54.6394 "/>
<path d="M19.8669 54.6394 L19.4912 54.6394 "/>
<path d="M21.8953 54.6394 L20.9938 54.6394 "/>
<path d="M21.4445 54.6394 L21.4445 53.0617 "/>
<path d="M21.4445 53.0617 L21.2943 53.2871 "/>
<path d="M21.2943 53.2871 L21.1440 53.4373 "/>
<path d="M21.1440 53.4373 L20.9938 53.5124 "/>
</g></g>
<g style="fill:#000084; fill-opacity:0.0;  stroke:#000084; stroke-width:1.1833; stroke-opacity:1;  stroke-linecap:round; stroke-linejoin:round;">
<text x="204.9824" y="165.4291" textLength="21.1057" font-size="13.3578" lengthAdjust="spacingAndGlyphs" text-anchor="middle" opacity="0">D3</text>
<g class="stroked-text"><desc>D3</desc>
<path d="M197.5879 164.9931 L197.5879 154.9747 "/>
<path d="M197.5879 154.9747 L199.9732 154.9747 "/>
<path d="M199.9732 154.9747 L201.4044 155.4518 "/>
<path d="M201.4044 155.4518 L202.3585 156.4059 "/>
<path d="M202.3585 156.4059 L202.8356 157.3601 "/>
<path d="M202.8356 157.3601 L203.3127 159.2683 "/>
<path d="M203.3127 159.2683 L203.3127 160.6995 "/>
<path d="M203.3127 160.6995 L202.8356 162.6078 "/>
<path d="M202.8356 162.6078 L202.3585 163.5619 "/>
<path d="M202.3585 163.5619 L201.4044 164.5160 "/>
<path d="M201.4044 164.5160 L199.9732 164.9931 "/>
<path d="M199.9732 164.9931 L197.5879 164.9931 "/>
<path d="M206.6521 154.9747 L212.8539 154.9747 "/>
<path d="M212.8539 154.9747 L209.5145 158.7912 "/>
<path d="M209.5145 158.7912 L210.9457 158.7912 "/>
<path d="M210.9457 158.7912 L211.8998 159.2683 "/>
<path d="M211.8998 159.2683 L212.3769 159.7454 "/>
<path d="M212.3769 159.7454 L212.8539 160.6995 "/>
<path d="M212.8539 160.6995 L212.8539 163.0848 "/>
<path d="M212.8539 163.0848 L212.3769 164.0389 "/>
<path d="M212.3769 164.0389 L211.8998 164.5160 "/>
<path d="M211.8998 164.5160 L210.9457 164.9931 "/>
<path d="M210.9457 164.9931 L208.0833 164.9931 "/>
<path d="M208.0833 164.9931 L207.1292 164.5160 "/>
<path d="M207.1292 164.5160 L206.6521 164.0389 "/>
</g><text x="190.3556" y="165.0284" textLength="11.5645" font-size="13.3578" lengthAdjust="spacingAndGlyphs" text-anchor="middle" opacity="0">K</text>
<g class="stroked-text"><desc>K</desc>
<path d="M187.7318 164.5923 L187.7318 154.5740 "/>
<path d="M193.4565 164.5923 L189.1630 158.8676 "/>
<path d="M193.4565 154.5740 L187.7318 160.2988 "/>
</g></g>
<g style="fill:#000084; fill-opacity:0.0;  stroke:#000084; stroke-width:0.3155; stroke-opacity:1;  stroke-linecap:round; stroke-linejoin:round;">
<text x="19.6039" y="161.2088" textLength="5.8149" font-size="2.1036" lengthAdjust="spacingAndGlyphs" text-anchor="middle" opacity="0">FID2</text>
<g class="stroked-text"><desc>FID2</desc>
<path d="M17.9135 160.3070 L17.3876 160.3070 "/>
<path d="M17.3876 161.1334 L17.3876 159.5557 "/>
<path d="M17.3876 159.5557 L18.1389 159.5557 "/>
<path d="M18.7399 161.1334 L18.7399 159.5557 "/>
<path d="M19.4912 161.1334 L19.4912 159.5557 "/>
<path d="M19.4912 159.5557 L19.8669 159.5557 "/>
<path d="M19.8669 159.5557 L20.0922 159.6308 "/>
<path d="M20.0922 159.6308 L20.2425 159.7811 "/>
<path d="M20.2425 159.7811 L20.3176 159.9313 "/>
<path d="M20.3176 159.9313 L20.3927 160.2319 "/>
<path d="M20.3927 160.2319 L20.3927 160.4572 "/>
<path d="M20.3927 160.4572 L20.3176 160.7577 "/>
<path d="M20.3176 160.7577 L20.2425 160.9080 "/>
<path d="M20.2425 160.9080 L20.0922 161.0583 "/>
<path d="M20.0922 161.0583 L19.8669 161.1334 "/>
<path d="M19.8669 161.1334 L19.4912 161.1334 "/>
<path d="M20.9938 159.7060 L21.0689 159.6308 "/>
<path d="M21.0689 159.6308 L21.2192 159.5557 "/>
<path d="M21.2192 159.5557 L21.5948 159.5557 "/>
<path d="M21.5948 159.5557 L21.7451 159.6308 "/>
<path d="M21.7451 159.6308 L21.8202 159.7060 "/>
<path d="M21.8202 159.7060 L21.8953 159.8562 "/>
<path d="M21.8953 159.8562 L21.8953 160.0065 "/>
<path d="M21.8953 160.0065 L21.8202 160.2319 "/>
<path d="M21.8202 160.2319 L20.9186 161.1334 "/>
<path d="M20.9186 161.1334 L21.8953 161.1334 "/>
</g></g>
<g style="fill:#000084; fill-opacity:0.0;  stroke:#000084; stroke-width:0.7888; stroke-opacity:1;  stroke-linecap:round; stroke-linejoin:round;">
<path d="M239.1867 116.7653 L239.1867 109.6657 "/>
<path d="M239.1867 109.6657 L249.4417 109.6657 "/>
<path d="M242.7365 114.7932 L242.7365 111.6378 "/>
<path d="M242.7365 113.2155 L241.5532 113.2155 "/>
<path d="M242.7365 113.2155 L245.1030 114.7932 "/>
<path d="M245.1030 114.7932 L245.1030 111.6378 "/>
<path d="M245.1030 113.2155 L246.2863 113.2155 "/>
<path d="M245.1030 111.6378 L242.7365 113.2155 "/>
<path d="M249.4417 116.7653 L239.1867 116.7653 "/>
<path d="M249.4417 109.6657 L249.4417 116.7653 "/>
<path d="M178.4930 49.8823 L178.4930 43.3744 "/>
<path d="M178.4930 43.3744 L191.1145 43.3744 "/>
<path d="M191.1145 49.8823 L178.4930 49.8823 "/>
<path d="M191.1145 43.3744 L191.1145 49.8823 "/>
<path d="M83.5397 82.6399 L69.1828 82.6399 "/>
<path d="M83.5397 87.6885 L83.5397 82.6399 "/>
<path d="M83.5397 87.6885 L69.1828 87.6885 "/>
<path d="M83.5397 102.6765 L69.1828 102.6765 "/>
<path d="M83.5397 107.7251 L83.5397 102.6765 "/>
<path d="M83.5397 107.7251 L69.1828 107.7251 "/>
<path d="M83.5397 122.7132 L69.1828 122.7132 "/>
<path d="M83.5397 127.7618 L83.5397 122.7132 "/>
<path d="M83.5397 127.7618 L69.1828 127.7618 "/>
<path d="M69.1828 75.1458 L69.1828 130.2466 "/>
<path d="M69.1828 130.2466 L64.1736 135.2558 "/>
<path d="M64.1736 135.2558 L49.1461 135.2558 "/>
<path d="M49.1461 75.1458 L69.1828 75.1458 "/>
<path d="M49.1461 82.6399 L1.8154 82.6399 "/>
<path d="M49.1461 87.6885 L1.8154 87.6885 "/>
<path d="M49.1461 102.6765 L1.8154 102.6765 "/>
<path d="M49.1461 107.7251 L1.8154 107.7251 "/>
<path d="M49.1461 122.7132 L1.8154 122.7132 "/>
<path d="M49.1461 127.7618 L1.8154 127.7618 "/>
<path d="M49.1461 135.2558 L49.1461 75.1458 "/>
<path d="M1.8154 87.6885 L1.8154 82.6399 "/>
<path d="M1.8154 107.7251 L1.8154 102.6765 "/>
<path d="M1.8154 127.7618 L1.8154 122.7132 "/>
<path d="M160.3495 41.1064 L160.3495 60.8275 "/>
<path d="M160.3495 60.8275 L157.1942 63.9829 "/>
<path d="M157.1942 63.9829 L147.7280 63.9829 "/>
<path d="M147.7280 41.1064 L160.3495 41.1064 "/>
<path d="M147.7280 63.9829 L147.7280 41.1064 "/>
<path d="M238.0034 98.3379 L238.0034 92.0271 "/>
<path d="M238.0034 92.0271 L250.6249 92.0271 "/>
<path d="M250.6249 98.3379 L238.0034 98.3379 "/>
<path d="M250.6249 92.0271 L250.6249 98.3379 "/>
<path d="M230.5567 49.7837 L230.5567 43.4730 "/>
<path d="M230.5567 43.4730 L243.1782 43.4730 "/>
<path d="M243.1782 49.7837 L230.5567 49.7837 "/>
<path d="M243.1782 43.4730 L243.1782 49.7837 "/>
<path d="M290.8718 99.8280 L290.8718 34.7483 "/>
<path d="M258.9236 99.8280 L290.8718 99.8280 "/>
<path d="M258.9236 99.8280 L258.9236 34.7483 "/>
<path d="M258.9236 86.0232 L264.5015 82.0790 "/>
<path d="M264.5015 82.0790 L258.9236 78.1348 "/>
<path d="M258.9236 34.7483 L290.8718 34.7483 "/>
<path d="M154.9026 154.9927 L161.4105 154.9927 "/>
<path d="M161.4105 154.9927 L161.4105 167.6142 "/>
<path d="M154.9026 167.6142 L154.9026 154.9927 "/>
<path d="M161.4105 167.6142 L154.9026 167.6142 "/>
<path d="M50.1085 45.8395 L59.9691 45.8395 "/>
<path d="M59.9691 45.8395 L59.9691 61.6164 "/>
<path d="M50.1085 61.6164 L50.1085 45.8395 "/>
<path d="M59.9691 61.6164 L50.1085 61.6164 "/>
<path d="M94.9622 61.6164 L85.1017 61.6164 "/>
<path d="M85.1017 61.6164 L85.1017 45.8395 "/>
<path d="M94.9622 45.8395 L94.9622 61.6164 "/>
<path d="M85.1017 45.8395 L94.9622 45.8395 "/>
<path d="M204.5248 49.8823 L204.5248 43.3744 "/>
<path d="M204.5248 43.3744 L217.1464 43.3744 "/>
<path d="M217.1464 49.8823 L204.5248 49.8823 "/>
<path d="M217.1464 43.3744 L217.1464 49.8823 "/>
<path d="M89.0222 154.1092 L95.3330 154.1092 "/>
<path d="M95.3330 154.1092 L95.3330 166.7307 "/>
<path d="M89.0222 166.7307 L89.0222 154.1092 "/>
<path d="M95.3330 166.7307 L89.0222 166.7307 "/>
<path d="M290.8718 175.3599 L290.8718 110.2802 "/>
<path d="M258.9236 175.3599 L290.8718 175.3599 "/>
<path d="M258.9236 175.3599 L258.9236 110.2802 "/>
<path d="M258.9236 161.5551 L264.5015 157.6109 "/>
<path d="M264.5015 157.6109 L258.9236 153.6667 "/>
<path d="M258.9236 110.2802 L290.8718 110.2802 "/>
<path d="M157.2052 72.2642 L163.5160 72.2642 "/>
<path d="M163.5160 72.2642 L163.5160 84.8857 "/>
<path d="M157.2052 84.8857 L157.2052 72.2642 "/>
<path d="M163.5160 84.8857 L157.2052 84.8857 "/>
</g>
<g style="fill:#000084; fill-opacity:0.0;  stroke:#000084; stroke-width:1.1833; stroke-opacity:1;  stroke-linecap:round; stroke-linejoin:round;">
<path d="M169.0268 129.5603 L169.0268 68.8193 "/>
<path d="M169.0268 129.5603 L229.7679 129.5603 "/>
<path d="M169.0268 124.4328 L229.7679 124.4328 "/>
<path d="M169.0268 68.8193 L229.7679 68.8193 "/>
<path d="M229.7679 129.5603 L229.7679 68.8193 "/>
<circle cx="179.3607" cy="119.2265" r="1.0018"/> 
</g>
<g style="fill:#000084; fill-opacity:0.0;  stroke:#000084; stroke-width:0.7888; stroke-opacity:1;  stroke-linecap:round; stroke-linejoin:round;">
<path d="M131.5567 58.0666 L125.2460 58.0666 "/>
<path d="M125.2460 58.0666 L125.2460 45.4451 "/>
<path d="M131.5567 45.4451 L131.5567 58.0666 "/>
<path d="M125.2460 45.4451 L131.5567 45.4451 "/>
<path d="M75.6907 60.0387 L69.3800 60.0387 "/>
<path d="M69.3800 60.0387 L69.3800 47.4172 "/>
<path d="M75.6907 47.4172 L75.6907 60.0387 "/>
<path d="M69.3800 47.4172 L75.6907 47.4172 "/>
</g>
<g style="fill:#000084; fill-opacity:0.0;  stroke:#000084; stroke-width:1.1833; stroke-opacity:1;  stroke-linecap:round; stroke-linejoin:round;">
<path d="M145.9342 149.1994 L145.9342 171.6405 "/>
<path d="M145.5335 171.6405 L106.4620 171.6405 "/>
<path d="M106.8627 149.1994 L145.9342 149.1994 "/>
<path d="M106.2616 171.6405 L106.2616 149.1994 "/>
</g>
<g style="fill:#000084; fill-opacity:0.0;  stroke:#000084; stroke-width:0.7888; stroke-opacity:1;  stroke-linecap:round; stroke-linejoin:round;">
<circle cx="236.5362" cy="168.3084" r="5.9163"/> 
<path d="M74.7284 153.9980 L61.3180 153.9980 "/>
<path d="M78.6726 157.9422 L74.7284 153.9980 "/>
<path d="M61.3180 164.6474 L61.3180 153.9980 "/>
<path d="M78.6726 164.6474 L78.6726 157.9422 "/>
<path d="M78.6726 164.6474 L61.3180 164.6474 "/>
<path d="M177.4399 167.6142 L170.9319 167.6142 "/>
<path d="M170.9319 167.6142 L170.9319 154.9927 "/>
<path d="M177.4399 154.9927 L177.4399 167.6142 "/>
<path d="M170.9319 154.9927 L177.4399 154.9927 "/>
<circle cx="19.6039" cy="53.9259" r="5.9163"/> 
</g>
<g style="fill:#000084; fill-opacity:0.0;  stroke:#000084; stroke-width:1.1833; stroke-opacity:1;  stroke-linecap:round; stroke-linejoin:round;">
<path d="M224.8187 149.1994 L224.8187 171.6405 "/>
<path d="M224.4179 171.6405 L185.3465 171.6405 "/>
<path d="M185.7472 149.1994 L224.8187 149.1994 "/>
<path d="M185.1461 171.6405 L185.1461 149.1994 "/>
</g>
<g style="fill:#000084; fill-opacity:0.0;  stroke:#000084; stroke-width:0.7888; stroke-opacity:1;  stroke-linecap:round; stroke-linejoin:round;">
<circle cx="19.6039" cy="160.4199" r="5.9163"/> 
<g>
</g>
<g>
</g>
<g>
</g>
<g>
</g>
<g>
</g>
<g>
</g>
<g>
</g>
<g>
</g>
<g>
</g>
<g>
</g>
<g>
</g>
<g>
</g>
<g>
</g>
<g>
</g>
<g>
</g>
<g>
</g>
<g>
</g>
<g>
</g>
<g>
</g>
<g>
</g>
<g>
</g>
<g>
</g>
<g>
</g>
<g>
</g>
<g>
</g>
<g>
</g>
<g>
</g>
<g>
</g>
<g>
</g>
<g>
</g>
<g>
</g>
</g> 
<svg:g><svg:g><svg:title>SVG Image created as TFRPM01-Edge_Cuts.svg date 2024/05/30 17:08:16 </svg:title>
  <svg:desc>Image generated by PCBNEW </svg:desc>
<svg:g style="fill:#C2C200; fill-opacity:1.0000;stroke:#C2C200; stroke-opacity:1.0000; stroke-linecap:round; stroke-linejoin:round;" transform="translate(0 0) scale(1 1)">
</svg:g>
<svg:g style="fill:#C2C200; fill-opacity:0.0;  stroke:#C2C200; stroke-width:0.0000; stroke-opacity:1;  stroke-linecap:round; stroke-linejoin:round;">
</svg:g>
<svg:g style="fill:#C2C200; fill-opacity:0.0;  stroke:#C2C200; stroke-width:1.1833; stroke-opacity:1;  stroke-linecap:round; stroke-linejoin:round;">
<svg:path d="M0.5927 30.0634 L0.5927 179.9438 "/>
<svg:path d="M296.4095 179.9438 L296.4095 30.0634 "/>
<svg:path d="M296.4095 179.9438 L0.5927 179.9438 "/>
<svg:path d="M296.4095 30.0634 L0.5927 30.0634 "/>
</svg:g>
<svg:g style="fill:#C2C200; fill-opacity:0.0;  stroke:#C2C200; stroke-width:0.3944; stroke-opacity:1;  stroke-linecap:round; stroke-linejoin:round;">
<svg:path d="M134.7752 154.8980 L134.7752 165.9418 "/>
<svg:path d="M130.8310 150.9538 L121.3648 150.9538 "/>
<svg:path d="M130.8310 169.8861 L121.3648 169.8861 "/>
<svg:path d="M117.4206 154.8980 L117.4206 165.9418 "/>
<svg:path d="M134.7752 154.8980 A3.9442 3.9442 0.0 0 0 130.8310 150.9538"/>
<svg:path d="M130.8310 169.8861 A3.9442 3.9442 0.0 0 0 134.7752 165.9418"/>
<svg:path d="M121.3648 150.9538 A3.9442 3.9442 0.0 0 0 117.4206 154.8980"/>
<svg:path d="M117.4206 165.9418 A3.9442 3.9442 0.0 0 0 121.3648 169.8861"/>
<svg:path d="M213.6597 154.8980 L213.6597 165.9418 "/>
<svg:path d="M209.7154 150.9538 L200.2493 150.9538 "/>
<svg:path d="M209.7154 169.8861 L200.2493 169.8861 "/>
<svg:path d="M196.3051 154.8980 L196.3051 165.9418 "/>
<svg:path d="M213.6597 154.8980 A3.9442 3.9442 0.0 0 0 209.7154 150.9538"/>
<svg:path d="M209.7154 169.8861 A3.9442 3.9442 0.0 0 0 213.6597 165.9418"/>
<svg:path d="M200.2493 150.9538 A3.9442 3.9442 0.0 0 0 196.3051 154.8980"/>
<svg:path d="M196.3051 165.9418 A3.9442 3.9442 0.0 0 0 200.2493 169.8861"/>
<svg:g>
</svg:g>
<svg:g>
</svg:g>
<svg:g>
</svg:g>
<svg:g>
</svg:g>
<svg:g>
</svg:g>
<svg:g>
</svg:g>
<svg:g>
</svg:g>
<svg:g>
</svg:g>
<svg:g>
</svg:g>
<svg:g>
</svg:g>
<svg:g>
</svg:g>
<svg:g>
</svg:g>
<svg:g>
</svg:g>
<svg:g>
</svg:g>
<svg:g>
</svg:g>
<svg:g>
</svg:g>
<svg:g>
</svg:g>
<svg:g>
</svg:g>
<svg:g>
</svg:g>
<svg:g>
</svg:g>
<svg:g>
</svg:g>
<svg:g>
</svg:g>
<svg:g>
</svg:g>
<svg:g>
</svg:g>
<svg:g>
</svg:g>
<svg:g>
</svg:g>
<svg:g>
</svg:g>
<svg:g>
</svg:g>
<svg:g>
</svg:g>
<svg:g>
</svg:g>
<svg:g>
</svg:g>
</svg:g> 
</svg:g></svg:g></svg>
