<?xml version='1.0' encoding='ASCII' standalone='yes'?>
<svg xmlns:svg="http://www.w3.org/2000/svg" xmlns="http://www.w3.org/2000/svg" xmlns:xlink="http://www.w3.org/1999/xlink" version="1.1" width="29.700220cm" height="21.000720cm" viewBox="0 0 2970022 2100072">
<title>SVG Picture created as TFRPM01-F_Fab.svg date 2023/05/27 16:22:19 </title>
  <desc>Picture generated by PCBNEW </desc>
<g style="fill:#848484; fill-opacity:1.000000;stroke:#848484; stroke-opacity:1.000000; stroke-linecap:round; stroke-linejoin:round;" transform="translate(0 0) scale(1 1)">
</g>
<g style="fill:#848484; fill-opacity:0.0;  stroke:#848484; stroke-width:0.000000; stroke-opacity:1;  stroke-linecap:round; stroke-linejoin:round;">
</g>
<g style="fill:#848484; fill-opacity:0.0;  stroke:#848484; stroke-width:11832.669323; stroke-opacity:1;  stroke-linecap:round; stroke-linejoin:round;">
<g transform="rotate(-180.000000 1100685.935458 1600191.982470)">
<text x="1100685.935458" y="1639634.213546" textLength="82986.454183" font-size="105179.256574" lengthAdjust="spacingAndGlyphs" text-anchor="middle" opacity="0.01" style="font-family:monospace">K</text>
</g>
<g class="stroked-text"><desc>K</desc>
<path d="M1080025 1564506 L1080025 1643390 "/>
<path d="M1125102 1564506 L1091294 1609582 "/>
<path d="M1125102 1643390 L1080025 1598313 "/>
</g><g transform="rotate(-180.000000 1889530.556972 1600191.982470)">
<text x="1889530.556972" y="1639634.213546" textLength="94266.932271" font-size="105179.256574" lengthAdjust="spacingAndGlyphs" text-anchor="middle" opacity="0.01" style="font-family:monospace">K</text>
</g>
<g class="stroked-text"><desc>K</desc>
<path d="M1868870 1564506 L1868870 1643390 "/>
<path d="M1913947 1564506 L1880139 1609582 "/>
<path d="M1913947 1643390 L1868870 1598313 "/>
</g><g>
</g>
<g>
</g>
<g>
</g>
<g>
</g>
<g>
</g>
<g>
</g>
<g>
</g>
<g>
</g>
<g>
</g>
<g>
</g>
<g>
</g>
<g>
</g>
<g>
</g>
<g>
</g>
<g>
</g>
<g>
</g>
<g>
</g>
<g>
</g>
<g>
</g>
<g>
</g>
<g>
</g>
<g>
</g>
<g>
</g>
<g>
</g>
<g>
</g>
<g>
</g>
<g>
</g>
<g>
</g>
<g>
</g>
<g>
</g>
<g>
</g>
</g> 
<svg:g><svg:g><svg:title>SVG Picture created as TFRPM01-Edge_Cuts.svg date 2023/05/27 16:22:19 </svg:title>
  <svg:desc>Picture generated by PCBNEW </svg:desc>
<svg:g style="fill:#C2C200; fill-opacity:1.000000;stroke:#C2C200; stroke-opacity:1.000000; stroke-linecap:round; stroke-linejoin:round;" transform="translate(0 0) scale(1 1)">
</svg:g>
<svg:g style="fill:#C2C200; fill-opacity:0.0;  stroke:#C2C200; stroke-width:0.000000; stroke-opacity:1;  stroke-linecap:round; stroke-linejoin:round;">
</svg:g>
<svg:g style="fill:#C2C200; fill-opacity:0.0;  stroke:#C2C200; stroke-width:11832.669323; stroke-opacity:1;  stroke-linecap:round; stroke-linejoin:round;">
<svg:path d="M5927 300633 L5927 1799438 "/>
<svg:path d="M2964094 1799438 L2964094 300633 "/>
<svg:path d="M2964094 1799438 L5927 1799438 "/>
<svg:path d="M2964094 300633 L5927 300633 "/>
</svg:g>
<svg:g style="fill:#C2C200; fill-opacity:0.0;  stroke:#C2C200; stroke-width:3944.223108; stroke-opacity:1;  stroke-linecap:round; stroke-linejoin:round;">
<svg:path d="M1174206 1548980 L1174206 1659418 "/>
<svg:path d="M1308309 1698860 L1213648 1698860 "/>
<svg:path d="M1308309 1509537 L1213648 1509537 "/>
<svg:path d="M1347752 1548980 L1347752 1659418 "/>
<svg:path d="M1308309.839841 1698860.667729 A39442.309960 39442.309960 0.0 0 0 1347752.070916 1659418.436653"/>
<svg:path d="M1174206.254183 1659418.436653 A39442.231076 39442.231076 0.0 0 0 1213648.485259 1698860.667729"/>
<svg:path d="M1213648.485259 1509537.958566 A39442.231076 39442.231076 0.0 0 0 1174206.254183 1548980.189641"/>
<svg:path d="M1347752.070916 1548980.189641 A39442.309960 39442.309960 0.0 0 0 1308309.839841 1509537.958566"/>
<svg:path d="M2097154 1509537 L2002493 1509537 "/>
<svg:path d="M2136596 1548980 L2136596 1659418 "/>
<svg:path d="M2097154 1698860 L2002493 1698860 "/>
<svg:path d="M1963050 1548980 L1963050 1659418 "/>
<svg:path d="M1963050.875697 1659418.436653 A39442.231076 39442.231076 0.0 0 0 2002493.106773 1698860.667729"/>
<svg:path d="M2002493.106773 1509537.958566 A39442.231076 39442.231076 0.0 0 0 1963050.875697 1548980.189641"/>
<svg:path d="M2136596.692430 1548980.189641 A39442.309960 39442.309960 0.0 0 0 2097154.461355 1509537.958566"/>
<svg:path d="M2097154.461355 1698860.667729 A39442.309960 39442.309960 0.0 0 0 2136596.692430 1659418.436653"/>
<svg:g>
</svg:g>
<svg:g>
</svg:g>
<svg:g>
</svg:g>
<svg:g>
</svg:g>
<svg:g>
</svg:g>
<svg:g>
</svg:g>
<svg:g>
</svg:g>
<svg:g>
</svg:g>
<svg:g>
</svg:g>
<svg:g>
</svg:g>
<svg:g>
</svg:g>
<svg:g>
</svg:g>
<svg:g>
</svg:g>
<svg:g>
</svg:g>
<svg:g>
</svg:g>
<svg:g>
</svg:g>
<svg:g>
</svg:g>
<svg:g>
</svg:g>
<svg:g>
</svg:g>
<svg:g>
</svg:g>
<svg:g>
</svg:g>
<svg:g>
</svg:g>
<svg:g>
</svg:g>
<svg:g>
</svg:g>
<svg:g>
</svg:g>
<svg:g>
</svg:g>
<svg:g>
</svg:g>
<svg:g>
</svg:g>
<svg:g>
</svg:g>
<svg:g>
</svg:g>
<svg:g>
</svg:g>
</svg:g> 
</svg:g></svg:g></svg>
