<?xml version='1.0' encoding='ASCII' standalone='yes'?>
<svg xmlns:svg="http://www.w3.org/2000/svg" xmlns="http://www.w3.org/2000/svg" xmlns:xlink="http://www.w3.org/1999/xlink" version="1.1" width="29.700220cm" height="21.000720cm" viewBox="0 0 2970022 2100072">
<title>SVG Picture created as TFRPM01-B_Fab.svg date 2023/05/28 00:38:18 </title>
  <desc>Picture generated by PCBNEW </desc>
<g style="fill:#000084; fill-opacity:1.000000;stroke:#000084; stroke-opacity:1.000000; stroke-linecap:round; stroke-linejoin:round;" transform="translate(0 0) scale(1 1)">
</g>
<g style="fill:#000084; fill-opacity:0.0;  stroke:#000084; stroke-width:0.000000; stroke-opacity:1;  stroke-linecap:round; stroke-linejoin:round;">
</g>
<g style="fill:#000084; fill-opacity:0.01;  stroke:#000084; stroke-width:11737.583981; stroke-opacity:1;  stroke-linecap:round; stroke-linejoin:round;">
<text x="522646.522724" y="1270225.531814" transform="scale(-1 1) translate(-1045293.045449 0)" textLength="152774.828086" font-size="104334.053748" lengthAdjust="spacingAndGlyphs" text-anchor="middle" opacity="0.01" style="font-family:monospace">D1</text>
<g class="stroked-text"><desc>D1</desc>
<path d="M580402 1266499 L580402 1188248 L561771 1188248 L550593 1191974 L543140 1199427 L539414 1206879 L535688 1221784 L535688 1232963 L539414 1247868 L543140 1255320 L550593 1262773 L561771 1266499 L580402 1266499 "/>
<path d="M461163 1266499 L505878 1266499 "/>
<path d="M483521 1266499 L483521 1188248 L490973 1199427 L498426 1206879 L505878 1210606 "/>
</g></g>
<g style="fill:#000084; fill-opacity:0.01;  stroke:#000084; stroke-width:4695.033592; stroke-opacity:1;  stroke-linecap:round; stroke-linejoin:round;">
<text x="1112968.746410" y="486624.425240" transform="scale(-1 1) translate(-2225937.492820 0)" textLength="75660.857595" font-size="41733.605849" lengthAdjust="spacingAndGlyphs" text-anchor="middle" opacity="0.01" style="font-family:monospace">R10</text>
<g class="stroked-text"><desc>R10</desc>
<path d="M1133090 485133 L1143523 470229 "/>
<path d="M1150976 485133 L1150976 453833 L1139052 453833 L1136071 455324 L1134580 456814 L1133090 459795 L1133090 464267 L1134580 467248 L1136071 468738 L1139052 470229 L1150976 470229 "/>
<path d="M1103280 485133 L1121166 485133 "/>
<path d="M1112223 485133 L1112223 453833 L1115204 458305 L1118185 461286 L1121166 462776 "/>
<path d="M1083904 453833 L1080923 453833 L1077942 455324 L1076451 456814 L1074961 459795 L1073470 465757 L1073470 473210 L1074961 479171 L1076451 482152 L1077942 483643 L1080923 485133 L1083904 485133 L1086885 483643 L1088375 482152 L1089866 479171 L1091356 473210 L1091356 465757 L1089866 459795 L1088375 456814 L1086885 455324 L1083904 453833 "/>
</g></g>
<g style="fill:#000084; fill-opacity:0.0;  stroke:#000084; stroke-width:11737.583981; stroke-opacity:1;  stroke-linecap:round; stroke-linejoin:round;">
<g transform="rotate(-90.000000 2359265.413516 1051992.232380)">
<text x="2359265.413516" y="1091117.512317" transform="scale(-1 1) translate(-4718530.827032 0)" textLength="128040.295613" font-size="104334.053748" lengthAdjust="spacingAndGlyphs" text-anchor="middle" opacity="0.01" style="font-family:monospace">J1</text>
</g>
<g class="stroked-text"><desc>J1</desc>
<path d="M2316413 1025908 L2372307 1025908 L2383485 1022182 L2390938 1014730 L2394664 1003551 L2394664 996098 "/>
<path d="M2394664 1104159 L2394664 1059444 "/>
<path d="M2394664 1081801 L2316413 1081801 L2327592 1074349 L2335044 1066897 L2338771 1059444 "/>
</g></g>
<g style="fill:#000084; fill-opacity:0.0;  stroke:#000084; stroke-width:5868.791991; stroke-opacity:1;  stroke-linecap:round; stroke-linejoin:round;">
<g transform="rotate(-90.000000 1418145.929917 529662.233171)">
<text x="1418145.929917" y="549224.873139" transform="scale(-1 1) translate(-2836291.859834 0)" textLength="62991.700698" font-size="52166.987749" lengthAdjust="spacingAndGlyphs" text-anchor="middle" opacity="0.01" style="font-family:monospace">U3</text>
</g>
<g class="stroked-text"><desc>U3</desc>
<path d="M1396720 499852 L1428392 499852 L1432119 501715 L1433982 503578 L1435845 507304 L1435845 514757 L1433982 518483 L1432119 520346 L1428392 522209 L1396720 522209 "/>
<path d="M1396720 537114 L1396720 561335 L1411624 548293 L1411624 553882 L1413488 557608 L1415351 559471 L1419077 561335 L1428392 561335 L1432119 559471 L1433982 557608 L1435845 553882 L1435845 542703 L1433982 538977 L1432119 537114 "/>
</g></g>
<g style="fill:#000084; fill-opacity:0.01;  stroke:#000084; stroke-width:4695.033592; stroke-opacity:1;  stroke-linecap:round; stroke-linejoin:round;">
<text x="522646.522724" y="968264.133316" transform="scale(-1 1) translate(-1045293.045449 0)" textLength="53480.501647" font-size="41733.605849" lengthAdjust="spacingAndGlyphs" text-anchor="middle" opacity="0.01" style="font-family:monospace">C3</text>
<g class="stroked-text"><desc>C3</desc>
<path d="M527863 963792 L529353 965283 L533825 966773 L536806 966773 L541277 965283 L544258 962302 L545749 959321 L547239 953359 L547239 948887 L545749 942925 L544258 939944 L541277 936963 L536806 935473 L533825 935473 L529353 936963 L527863 938454 "/>
<path d="M517429 935473 L498053 935473 L508486 947397 L504015 947397 L501034 948887 L499543 950378 L498053 953359 L498053 960811 L499543 963792 L501034 965283 L504015 966773 L512958 966773 L515939 965283 L517429 963792 "/>
</g><text x="596515.051245" y="486624.425240" transform="scale(-1 1) translate(-1193030.102490 0)" textLength="55006.387564" font-size="41733.605849" lengthAdjust="spacingAndGlyphs" text-anchor="middle" opacity="0.01" style="font-family:monospace">C4</text>
<g class="stroked-text"><desc>C4</desc>
<path d="M601731 482152 L603222 483643 L607693 485133 L610674 485133 L615146 483643 L618127 480662 L619617 477681 L621108 471719 L621108 467248 L619617 461286 L618127 458305 L615146 455324 L610674 453833 L607693 453833 L603222 455324 L601731 456814 "/>
<path d="M574902 464267 L574902 485133 "/>
<path d="M582355 452343 L589807 474700 L570431 474700 "/>
</g></g>
<g style="fill:#000084; fill-opacity:0.0;  stroke:#000084; stroke-width:11737.583981; stroke-opacity:1;  stroke-linecap:round; stroke-linejoin:round;">
<g transform="rotate(-90.000000 252525.590041 675912.529574)">
<text x="252525.590041" y="715037.809511" transform="scale(-1 1) translate(-505051.180082 0)" textLength="128040.295613" font-size="104334.053748" lengthAdjust="spacingAndGlyphs" text-anchor="middle" opacity="0.01" style="font-family:monospace">J2</text>
</g>
<g class="stroked-text"><desc>J2</desc>
<path d="M209674 649828 L265567 649828 L276745 646102 L284198 638650 L287924 627471 L287924 620019 "/>
<path d="M217126 683364 L213400 687091 L209674 694543 L209674 713174 L213400 720627 L217126 724353 L224578 728079 L232031 728079 L243210 724353 L287924 679638 L287924 728079 "/>
</g></g>
<g style="fill:#000084; fill-opacity:0.0;  stroke:#000084; stroke-width:4695.033592; stroke-opacity:1;  stroke-linecap:round; stroke-linejoin:round;">
<g transform="rotate(-90.000000 1377299.137663 1608510.214201)">
<text x="1377299.137663" y="1624160.326176" transform="scale(-1 1) translate(-2754598.275326 0)" textLength="45851.072059" font-size="41733.605849" lengthAdjust="spacingAndGlyphs" text-anchor="middle" opacity="0.01" style="font-family:monospace">R4</text>
</g>
<g class="stroked-text"><desc>R4</desc>
<path d="M1391458 1603293 L1376553 1592860 "/>
<path d="M1391458 1585407 L1360158 1585407 L1360158 1597331 L1361649 1600312 L1363139 1601802 L1366120 1603293 L1370591 1603293 L1373572 1601802 L1375063 1600312 L1376553 1597331 L1376553 1585407 "/>
<path d="M1370591 1630122 L1391458 1630122 "/>
<path d="M1358667 1622669 L1381025 1615217 L1381025 1634593 "/>
</g></g>
<g style="fill:#000084; fill-opacity:0.0;  stroke:#000084; stroke-width:6260.044790; stroke-opacity:1;  stroke-linecap:round; stroke-linejoin:round;">
<g transform="rotate(-90.000000 2400190.456330 541399.817152)">
<text x="2400190.456330" y="560962.457120" transform="scale(-1 1) translate(-4800380.912660 0)" textLength="70283.870373" font-size="52166.987749" lengthAdjust="spacingAndGlyphs" text-anchor="middle" opacity="0.01" style="font-family:monospace">R1</text>
</g>
<g class="stroked-text"><desc>R1</desc>
<path d="M2417889 534878 L2399258 521837 "/>
<path d="M2417889 512521 L2378764 512521 L2378764 527426 L2380627 531152 L2382490 533015 L2386217 534878 L2391806 534878 L2395532 533015 L2397395 531152 L2399258 527426 L2399258 512521 "/>
<path d="M2417889 572141 L2417889 549783 "/>
<path d="M2417889 560962 L2378764 560962 L2384354 557236 L2388080 553509 L2389943 549783 "/>
</g><g transform="rotate(-90.000000 2053070.972731 541399.817152)">
<text x="2053070.972731" y="560962.457120" transform="scale(-1 1) translate(-4106141.945462 0)" textLength="68249.355816" font-size="52166.987749" lengthAdjust="spacingAndGlyphs" text-anchor="middle" opacity="0.01" style="font-family:monospace">R2</text>
</g>
<g class="stroked-text"><desc>R2</desc>
<path d="M2070770 534878 L2052139 521837 "/>
<path d="M2070770 512521 L2031645 512521 L2031645 527426 L2033508 531152 L2035371 533015 L2039097 534878 L2044686 534878 L2048413 533015 L2050276 531152 L2052139 527426 L2052139 512521 "/>
<path d="M2035371 549783 L2033508 551646 L2031645 555373 L2031645 564688 L2033508 568414 L2035371 570277 L2039097 572141 L2042823 572141 L2048413 570277 L2070770 547920 L2070770 572141 "/>
</g></g>
<g style="fill:#000084; fill-opacity:0.01;  stroke:#000084; stroke-width:4695.033592; stroke-opacity:1;  stroke-linecap:round; stroke-linejoin:round;">
<text x="854741.898828" y="486624.425240" transform="scale(-1 1) translate(-1709483.797655 0)" textLength="52971.873008" font-size="41733.605849" lengthAdjust="spacingAndGlyphs" text-anchor="middle" opacity="0.01" style="font-family:monospace">R3</text>
<g class="stroked-text"><desc>R3</desc>
<path d="M859958 485133 L870392 470229 "/>
<path d="M877844 485133 L877844 453833 L865920 453833 L862939 455324 L861449 456814 L859958 459795 L859958 464267 L861449 467248 L862939 468738 L865920 470229 L877844 470229 "/>
<path d="M849525 453833 L830148 453833 L840582 465757 L836110 465757 L833129 467248 L831639 468738 L830148 471719 L830148 479171 L831639 482152 L833129 483643 L836110 485133 L845053 485133 L848034 483643 L849525 482152 "/>
</g><g transform="rotate(-90.000000 2031786.820445 1599746.151495)">
<text x="2031786.820445" y="1615396.263470" transform="scale(-1 1) translate(-4063573.640891 0)" textLength="55006.387564" font-size="41733.605849" lengthAdjust="spacingAndGlyphs" text-anchor="middle" opacity="0.01" style="font-family:monospace">C6</text>
</g>
<g class="stroked-text"><desc>C6</desc>
<path d="M2042965 1594529 L2044455 1593038 L2045946 1588567 L2045946 1585586 L2044455 1581115 L2041474 1578134 L2038493 1576643 L2032532 1575153 L2028060 1575153 L2022098 1576643 L2019117 1578134 L2016136 1581115 L2014646 1585586 L2014646 1588567 L2016136 1593038 L2017627 1594529 "/>
<path d="M2014646 1621358 L2014646 1615396 L2016136 1612415 L2017627 1610924 L2022098 1607943 L2028060 1606453 L2039984 1606453 L2042965 1607943 L2044455 1609434 L2045946 1612415 L2045946 1618377 L2044455 1621358 L2042965 1622848 L2039984 1624339 L2032532 1624339 L2029551 1622848 L2028060 1621358 L2026570 1618377 L2026570 1612415 L2028060 1609434 L2029551 1607943 L2032532 1606453 "/>
</g></g>
<g style="fill:#000084; fill-opacity:0.0;  stroke:#000084; stroke-width:11737.583981; stroke-opacity:1;  stroke-linecap:round; stroke-linejoin:round;">
<g transform="rotate(-90.000000 252525.590041 1425161.640364)">
<text x="252525.590041" y="1464286.920300" transform="scale(-1 1) translate(-505051.180082 0)" textLength="128040.295613" font-size="104334.053748" lengthAdjust="spacingAndGlyphs" text-anchor="middle" opacity="0.01" style="font-family:monospace">J3</text>
</g>
<g class="stroked-text"><desc>J3</desc>
<path d="M209674 1399078 L265567 1399078 L276745 1395351 L284198 1387899 L287924 1376720 L287924 1369268 "/>
<path d="M209674 1428887 L209674 1477328 L239483 1451245 L239483 1462423 L243210 1469876 L246936 1473602 L254388 1477328 L273019 1477328 L280472 1473602 L284198 1469876 L287924 1462423 L287924 1440066 L284198 1432614 L280472 1428887 "/>
</g></g>
<g style="fill:#000084; fill-opacity:0.0;  stroke:#000084; stroke-width:4695.033592; stroke-opacity:1;  stroke-linecap:round; stroke-linejoin:round;">
<g transform="rotate(-90.000000 1355435.931234 787873.430642)">
<text x="1355435.931234" y="803523.542616" transform="scale(-1 1) translate(-2710871.862469 0)" textLength="45851.072059" font-size="41733.605849" lengthAdjust="spacingAndGlyphs" text-anchor="middle" opacity="0.01" style="font-family:monospace">C5</text>
</g>
<g class="stroked-text"><desc>C5</desc>
<path d="M1366614 782656 L1368105 781166 L1369595 776694 L1369595 773713 L1368105 769242 L1365124 766261 L1362143 764770 L1356181 763280 L1351709 763280 L1345747 764770 L1342766 766261 L1339785 769242 L1338295 773713 L1338295 776694 L1339785 781166 L1341276 782656 "/>
<path d="M1338295 810975 L1338295 796071 L1353200 794580 L1351709 796071 L1350219 799052 L1350219 806504 L1351709 809485 L1353200 810975 L1356181 812466 L1363633 812466 L1366614 810975 L1368105 809485 L1369595 806504 L1369595 799052 L1368105 796071 L1366614 794580 "/>
</g></g>
<g style="fill:#000084; fill-opacity:0.0;  stroke:#000084; stroke-width:15650.111975; stroke-opacity:1;  stroke-linecap:round; stroke-linejoin:round;">
<g transform="rotate(-180.000000 860532.440258 1032343.829798)">
<text x="860532.440258" y="1071469.109735" transform="scale(-1 1) translate(-1721064.880516 0)" textLength="150397.576077" font-size="104334.053748" lengthAdjust="spacingAndGlyphs" text-anchor="middle" opacity="0.01" style="font-family:monospace">U1</text>
</g>
<g class="stroked-text"><desc>U1</desc>
<path d="M800912 1075195 L800912 1011849 L804639 1004397 L808365 1000670 L815817 996944 L830722 996944 L838175 1000670 L841901 1004397 L845627 1011849 L845627 1075195 "/>
<path d="M923878 996944 L879163 996944 "/>
<path d="M901520 996944 L901520 1075195 L894068 1064016 L886615 1056564 L879163 1052837 "/>
</g></g>
<g style="fill:#000084; fill-opacity:0.0;  stroke:#000084; stroke-width:4695.033592; stroke-opacity:1;  stroke-linecap:round; stroke-linejoin:round;">
<g transform="rotate(-90.000000 1672460.249506 521837.177184)">
<text x="1672460.249506" y="537487.289158" transform="scale(-1 1) translate(-3344920.499012 0)" textLength="40764.785667" font-size="41733.605849" lengthAdjust="spacingAndGlyphs" text-anchor="middle" opacity="0.01" style="font-family:monospace">C1</text>
</g>
<g class="stroked-text"><desc>C1</desc>
<path d="M1683638 516620 L1685129 515129 L1686619 510658 L1686619 507677 L1685129 503206 L1682148 500225 L1679167 498734 L1673205 497244 L1668733 497244 L1662772 498734 L1659791 500225 L1656810 503206 L1655319 507677 L1655319 510658 L1656810 515129 L1658300 516620 "/>
<path d="M1686619 546430 L1686619 528544 "/>
<path d="M1686619 537487 L1655319 537487 L1659791 534506 L1662772 531525 L1664262 528544 "/>
</g><g transform="rotate(-90.000000 2226630.714530 541399.817152)">
<text x="2226630.714530" y="557049.929127" transform="scale(-1 1) translate(-4453261.429061 0)" textLength="55006.387564" font-size="41733.605849" lengthAdjust="spacingAndGlyphs" text-anchor="middle" opacity="0.01" style="font-family:monospace">C2</text>
</g>
<g class="stroked-text"><desc>C2</desc>
<path d="M2237809 536183 L2239299 534692 L2240790 530221 L2240790 527240 L2239299 522768 L2236318 519787 L2233337 518297 L2227375 516806 L2222904 516806 L2216942 518297 L2213961 519787 L2210980 522768 L2209490 527240 L2209490 530221 L2210980 534692 L2212471 536183 "/>
<path d="M2212471 548106 L2210980 549597 L2209490 552578 L2209490 560030 L2210980 563011 L2212471 564502 L2215451 565992 L2218433 565992 L2222904 564502 L2240790 546616 L2240790 565992 "/>
</g></g>
<g style="fill:#000084; fill-opacity:0.01;  stroke:#000084; stroke-width:11737.583981; stroke-opacity:1;  stroke-linecap:round; stroke-linejoin:round;">
<text x="1840401.601107" y="1645460.128573" transform="scale(-1 1) translate(-3680803.202213 0)" textLength="93274.667369" font-size="132504.255302" lengthAdjust="spacingAndGlyphs" text-anchor="middle" opacity="0.01" style="font-family:monospace">K</text>
<g class="stroked-text"><desc>K</desc>
<path d="M1866429 1640727 L1866429 1541349 "/>
<path d="M1809641 1640727 L1852232 1583940 "/>
<path d="M1809641 1541349 L1866429 1598137 "/>
</g><text x="1695309.412989" y="1649435.257015" transform="scale(-1 1) translate(-3390618.825978 0)" textLength="178765.282045" font-size="132504.255302" lengthAdjust="spacingAndGlyphs" text-anchor="middle" opacity="0.01" style="font-family:monospace">D2</text>
<g class="stroked-text"><desc>D2</desc>
<path d="M1768659 1644702 L1768659 1545324 L1744998 1545324 L1730801 1550057 L1721337 1559521 L1716604 1568986 L1711872 1587915 L1711872 1602112 L1716604 1621041 L1721337 1630506 L1730801 1639970 L1744998 1644702 L1768659 1644702 "/>
<path d="M1674014 1554789 L1669281 1550057 L1659817 1545324 L1636155 1545324 L1626691 1550057 L1621958 1554789 L1617226 1564253 L1617226 1573718 L1621958 1587915 L1678746 1644702 L1617226 1644702 "/>
</g></g>
<g style="fill:#000084; fill-opacity:0.0;  stroke:#000084; stroke-width:3130.022395; stroke-opacity:1;  stroke-linecap:round; stroke-linejoin:round;">
<g transform="rotate(-90.000000 599801.574760 1677996.711369)">
<text x="599801.574760" y="1685821.767356" transform="scale(-1 1) translate(-1199603.149519 0)" textLength="36162.948492" font-size="20866.763799" lengthAdjust="spacingAndGlyphs" text-anchor="middle" opacity="0.01" style="font-family:monospace">FID3</text>
</g>
<g class="stroked-text"><desc>FID3</desc>
<path d="M598683 1661228 L598683 1656011 "/>
<path d="M606881 1656011 L591231 1656011 L591231 1663464 "/>
<path d="M606881 1669426 L591231 1669426 "/>
<path d="M606881 1676878 L591231 1676878 L591231 1680605 L591976 1682840 L593466 1684331 L594957 1685076 L597938 1685821 L600174 1685821 L603155 1685076 L604645 1684331 L606136 1682840 L606881 1680605 L606881 1676878 "/>
<path d="M591231 1691038 L591231 1700726 L597193 1695509 L597193 1697745 L597938 1699236 L598683 1699981 L600174 1700726 L603900 1700726 L605390 1699981 L606136 1699236 L606881 1697745 L606881 1693274 L606136 1691783 L605390 1691038 "/>
</g></g>
<g style="fill:#000084; fill-opacity:0.01;  stroke:#000084; stroke-width:5868.791991; stroke-opacity:1;  stroke-linecap:round; stroke-linejoin:round;">
<text x="2251827.394810" y="1608424.451587" transform="scale(-1 1) translate(-4503654.789619 0)" textLength="74181.530760" font-size="52166.987749" lengthAdjust="spacingAndGlyphs" text-anchor="middle" opacity="0.01" style="font-family:monospace">U2</text>
<g class="stroked-text"><desc>U2</desc>
<path d="M2281637 1567436 L2281637 1599108 L2279773 1602835 L2277910 1604698 L2274184 1606561 L2266732 1606561 L2263006 1604698 L2261142 1602835 L2259279 1599108 L2259279 1567436 "/>
<path d="M2242511 1571162 L2240648 1569299 L2236922 1567436 L2227606 1567436 L2223880 1569299 L2222017 1571162 L2220154 1574888 L2220154 1578614 L2222017 1584204 L2244374 1606561 L2220154 1606561 "/>
</g></g>
<g style="fill:#000084; fill-opacity:0.0;  stroke:#000084; stroke-width:4695.033592; stroke-opacity:1;  stroke-linecap:round; stroke-linejoin:round;">
<g transform="rotate(-90.000000 1218294.000000 1608510.214201)">
<text x="1218294.000000" y="1624160.326176" transform="scale(-1 1) translate(-2436588.000000 0)" textLength="53480.501647" font-size="41733.605849" lengthAdjust="spacingAndGlyphs" text-anchor="middle" opacity="0.01" style="font-family:monospace">R5</text>
</g>
<g class="stroked-text"><desc>R5</desc>
<path d="M1232453 1603293 L1217548 1592860 "/>
<path d="M1232453 1585407 L1201153 1585407 L1201153 1597331 L1202643 1600312 L1204134 1601802 L1207115 1603293 L1211586 1603293 L1214567 1601802 L1216058 1600312 L1217548 1597331 L1217548 1585407 "/>
<path d="M1201153 1631612 L1201153 1616707 L1216058 1615217 L1214567 1616707 L1213077 1619688 L1213077 1627141 L1214567 1630122 L1216058 1631612 L1219039 1633103 L1226491 1633103 L1229472 1631612 L1230963 1630122 L1232453 1627141 L1232453 1619688 L1230963 1616707 L1229472 1615217 "/>
</g></g>
<g style="fill:#000084; fill-opacity:0.01;  stroke:#000084; stroke-width:3130.022395; stroke-opacity:1;  stroke-linecap:round; stroke-linejoin:round;">
<text x="2751691.971282" y="551188.649190" transform="scale(-1 1) translate(-5503383.942564 0)" textLength="45318.263997" font-size="20866.763799" lengthAdjust="spacingAndGlyphs" text-anchor="middle" opacity="0.01" style="font-family:monospace">FID1</text>
<g class="stroked-text"><desc>FID1</desc>
<path d="M2768459 542245 L2773676 542245 "/>
<path d="M2773676 550443 L2773676 534793 L2766224 534793 "/>
<path d="M2760262 550443 L2760262 534793 "/>
<path d="M2752809 550443 L2752809 534793 L2749083 534793 L2746847 535538 L2745357 537028 L2744612 538519 L2743866 541500 L2743866 543736 L2744612 546717 L2745357 548207 L2746847 549698 L2749083 550443 L2752809 550443 "/>
<path d="M2728961 550443 L2737904 550443 "/>
<path d="M2733433 550443 L2733433 534793 L2734923 537028 L2736414 538519 L2737904 539264 "/>
</g></g>
<g style="fill:#000084; fill-opacity:0.01;  stroke:#000084; stroke-width:11737.583981; stroke-opacity:1;  stroke-linecap:round; stroke-linejoin:round;">
<text x="912803.814254" y="1649435.257015" transform="scale(-1 1) translate(-1825607.628507 0)" textLength="189955.112106" font-size="132504.255302" lengthAdjust="spacingAndGlyphs" text-anchor="middle" opacity="0.01" style="font-family:monospace">D3</text>
<g class="stroked-text"><desc>D3</desc>
<path d="M986154 1644702 L986154 1545324 L962492 1545324 L948295 1550057 L938831 1559521 L934099 1568986 L929366 1587915 L929366 1602112 L934099 1621041 L938831 1630506 L948295 1639970 L962492 1644702 L986154 1644702 "/>
<path d="M896240 1545324 L834720 1545324 L867846 1583183 L853650 1583183 L844185 1587915 L839453 1592647 L834720 1602112 L834720 1625773 L839453 1635238 L844185 1639970 L853650 1644702 L882043 1644702 L891508 1639970 L896240 1635238 "/>
</g><text x="1057896.002371" y="1645460.128573" transform="scale(-1 1) translate(-2115792.004742 0)" textLength="84119.351864" font-size="132504.255302" lengthAdjust="spacingAndGlyphs" text-anchor="middle" opacity="0.01" style="font-family:monospace">K</text>
<g class="stroked-text"><desc>K</desc>
<path d="M1083923 1640727 L1083923 1541349 "/>
<path d="M1027136 1640727 L1069726 1583940 "/>
<path d="M1027136 1541349 L1083923 1598137 "/>
</g></g>
<g style="fill:#000084; fill-opacity:0.01;  stroke:#000084; stroke-width:3130.022395; stroke-opacity:1;  stroke-linecap:round; stroke-linejoin:round;">
<text x="2751691.971282" y="1607571.207483" transform="scale(-1 1) translate(-5503383.942564 0)" textLength="36162.948492" font-size="20866.763799" lengthAdjust="spacingAndGlyphs" text-anchor="middle" opacity="0.01" style="font-family:monospace">FID2</text>
<g class="stroked-text"><desc>FID2</desc>
<path d="M2768459 1598628 L2773676 1598628 "/>
<path d="M2773676 1606825 L2773676 1591175 L2766224 1591175 "/>
<path d="M2760262 1606825 L2760262 1591175 "/>
<path d="M2752809 1606825 L2752809 1591175 L2749083 1591175 L2746847 1591921 L2745357 1593411 L2744612 1594902 L2743866 1597883 L2743866 1600118 L2744612 1603099 L2745357 1604590 L2746847 1606080 L2749083 1606825 L2752809 1606825 "/>
<path d="M2737904 1592666 L2737159 1591921 L2735669 1591175 L2731943 1591175 L2730452 1591921 L2729707 1592666 L2728961 1594156 L2728961 1595647 L2729707 1597883 L2738650 1606825 L2728961 1606825 "/>
</g></g>
<g style="fill:#000084; fill-opacity:0.0;  stroke:#000084; stroke-width:7825.055987; stroke-opacity:1;  stroke-linecap:round; stroke-linejoin:round;">
<path d="M514821 1147144 L514821 1115844 "/>
<path d="M514821 1115844 L538296 1131494 "/>
<path d="M514821 1131494 L503083 1131494 "/>
<path d="M538296 1147144 L538296 1115844 "/>
<path d="M538296 1131494 L514821 1147144 "/>
<path d="M573509 1096282 L471783 1096282 "/>
<path d="M573509 1166707 L573509 1096282 "/>
<path d="M538296 1131494 L550034 1131494 "/>
<path d="M471783 1166707 L573509 1166707 "/>
<path d="M471783 1096282 L471783 1166707 "/>
<path d="M1175569 503252 L1175569 438695 "/>
<path d="M1175569 438695 L1050368 438695 "/>
<path d="M1050368 438695 L1050368 503252 "/>
<path d="M1050368 503252 L1175569 503252 "/>
<path d="M2117471 1225708 L2259887 1225708 "/>
<path d="M2259887 1300437 L2309576 1350126 "/>
<path d="M2928146 878275 L2928146 828195 "/>
<path d="M2117471 878275 L2259887 878275 "/>
<path d="M2117471 1026952 L2259887 1026952 "/>
<path d="M2259887 753857 L2259887 1300437 "/>
<path d="M2117471 1077032 L2259887 1077032 "/>
<path d="M2928146 1275788 L2928146 1225708 "/>
<path d="M2928146 1077032 L2928146 1026952 "/>
<path d="M2117471 828195 L2259887 828195 "/>
<path d="M2117471 1275788 L2259887 1275788 "/>
<path d="M2458643 1275788 L2928146 1275788 "/>
<path d="M2458643 878275 L2928146 878275 "/>
<path d="M2458643 828195 L2928146 828195 "/>
<path d="M2458643 1026952 L2928146 1026952 "/>
<path d="M2117471 1275788 L2117471 1225708 "/>
<path d="M2117471 878275 L2117471 828195 "/>
<path d="M2458643 1225708 L2928146 1225708 "/>
<path d="M2458643 1077032 L2928146 1077032 "/>
<path d="M2309576 1350126 L2458643 1350126 "/>
<path d="M2117471 1077032 L2117471 1026952 "/>
<path d="M2458643 753857 L2259887 753857 "/>
<path d="M2458643 1350126 L2458643 753857 "/>
<path d="M1480746 416198 L1355545 416198 "/>
<path d="M1386845 643125 L1480746 643125 "/>
<path d="M1480746 643125 L1480746 416198 "/>
<path d="M1355545 416198 L1355545 611825 "/>
<path d="M1355545 611825 L1386845 643125 "/>
<path d="M460046 921313 L460046 983914 "/>
<path d="M585246 983914 L585246 921313 "/>
<path d="M585246 921313 L460046 921313 "/>
<path d="M460046 983914 L585246 983914 "/>
<path d="M659115 502274 L659115 439674 "/>
<path d="M533914 439674 L533914 502274 "/>
<path d="M659115 439674 L533914 439674 "/>
<path d="M533914 502274 L659115 502274 "/>
<path d="M60811 998696 L60811 353128 "/>
<path d="M377726 998696 L60811 998696 "/>
<path d="M377726 861757 L322394 822632 "/>
<path d="M377726 998696 L377726 353128 "/>
<path d="M377726 353128 L60811 353128 "/>
<path d="M322394 822632 L377726 783507 "/>
<path d="M1409577 1671110 L1409577 1545909 "/>
<path d="M1345020 1545909 L1345020 1671110 "/>
<path d="M1409577 1545909 L1345020 1545909 "/>
<path d="M1345020 1671110 L1409577 1671110 "/>
<path d="M2449097 619650 L2449097 463149 "/>
<path d="M2449097 463149 L2351283 463149 "/>
<path d="M2351283 463149 L2351283 619650 "/>
<path d="M2351283 619650 L2449097 619650 "/>
<path d="M2101977 619650 L2101977 463149 "/>
<path d="M2004164 463149 L2004164 619650 "/>
<path d="M2101977 463149 L2004164 463149 "/>
<path d="M2004164 619650 L2101977 619650 "/>
<path d="M792141 438695 L792141 503252 "/>
<path d="M917342 503252 L917342 438695 "/>
<path d="M792141 503252 L917342 503252 "/>
<path d="M917342 438695 L792141 438695 "/>
<path d="M2000486 1537145 L2000486 1662346 "/>
<path d="M2063087 1537145 L2000486 1537145 "/>
<path d="M2000486 1662346 L2063087 1662346 "/>
<path d="M2063087 1662346 L2063087 1537145 "/>
<path d="M377726 1747945 L60811 1747945 "/>
<path d="M322394 1571881 L377726 1532756 "/>
<path d="M377726 1747945 L377726 1102378 "/>
<path d="M377726 1102378 L60811 1102378 "/>
<path d="M60811 1747945 L60811 1102378 "/>
<path d="M377726 1611006 L322394 1571881 "/>
<path d="M1386736 725272 L1324135 725272 "/>
<path d="M1324135 850473 L1386736 850473 "/>
<path d="M1386736 850473 L1386736 725272 "/>
<path d="M1324135 725272 L1324135 850473 "/>
</g>
<g style="fill:#000084; fill-opacity:0.0;  stroke:#000084; stroke-width:11737.583981; stroke-opacity:1;  stroke-linecap:round; stroke-linejoin:round;">
<path d="M1269469 1242767 L666940 1242767 "/>
<path d="M1269469 691100 L666940 691100 "/>
<path d="M1269469 1293629 L666940 1293629 "/>
<path d="M1269469 1293629 L1269469 691100 "/>
<path d="M666940 1293629 L666940 691100 "/>
<circle cx="1166961.632723" cy="1191121.727836" r="9937.821104"/> 
</g>
<g style="fill:#000084; fill-opacity:0.0;  stroke:#000084; stroke-width:7825.055987; stroke-opacity:1;  stroke-linecap:round; stroke-linejoin:round;">
<path d="M1703760 459236 L1641160 459236 "/>
<path d="M1703760 584437 L1703760 459236 "/>
<path d="M1641160 459236 L1641160 584437 "/>
<path d="M1641160 584437 L1703760 584437 "/>
<path d="M2195330 478799 L2195330 604000 "/>
<path d="M2257930 478799 L2195330 478799 "/>
<path d="M2257930 604000 L2257930 478799 "/>
<path d="M2195330 604000 L2257930 604000 "/>
</g>
<g style="fill:#000084; fill-opacity:0.0;  stroke:#000084; stroke-width:11737.583981; stroke-opacity:1;  stroke-linecap:round; stroke-linejoin:round;">
<path d="M1498540 1488442 L1498540 1711049 "/>
<path d="M1502515 1711049 L1890090 1711049 "/>
<path d="M1886115 1488442 L1498540 1488442 "/>
<path d="M1892078 1711049 L1892078 1488442 "/>
</g>
<g style="fill:#000084; fill-opacity:0.0;  stroke:#000084; stroke-width:7825.055987; stroke-opacity:1;  stroke-linecap:round; stroke-linejoin:round;">
<circle cx="599801.574760" cy="1677996.711369" r="58687.919905"/> 
<path d="M2337903 1641680 L2337903 1536042 "/>
<path d="M2204877 1536042 L2337903 1536042 "/>
<path d="M2165751 1641680 L2165751 1575167 "/>
<path d="M2165751 1641680 L2337903 1641680 "/>
<path d="M2165751 1575167 L2204877 1536042 "/>
<path d="M1250572 1545909 L1186015 1545909 "/>
<path d="M1186015 1545909 L1186015 1671110 "/>
<path d="M1186015 1671110 L1250572 1671110 "/>
<path d="M1250572 1671110 L1250572 1545909 "/>
<circle cx="2751691.971282" cy="543363.593202" r="58687.919905"/> 
</g>
<g style="fill:#000084; fill-opacity:0.0;  stroke:#000084; stroke-width:11737.583981; stroke-opacity:1;  stroke-linecap:round; stroke-linejoin:round;">
<path d="M1103609 1488442 L716034 1488442 "/>
<path d="M1109572 1711049 L1109572 1488442 "/>
<path d="M716034 1488442 L716034 1711049 "/>
<path d="M720010 1711049 L1107585 1711049 "/>
</g>
<g style="fill:#000084; fill-opacity:0.0;  stroke:#000084; stroke-width:7825.055987; stroke-opacity:1;  stroke-linecap:round; stroke-linejoin:round;">
<circle cx="2751691.971282" cy="1599746.151495" r="58687.919905"/> 
<g>
</g>
<g>
</g>
<g>
</g>
<g>
</g>
<g>
</g>
<g>
</g>
<g>
</g>
<g>
</g>
<g>
</g>
<g>
</g>
<g>
</g>
<g>
</g>
<g>
</g>
<g>
</g>
<g>
</g>
<g>
</g>
<g>
</g>
<g>
</g>
<g>
</g>
<g>
</g>
<g>
</g>
<g>
</g>
<g>
</g>
<g>
</g>
<g>
</g>
<g>
</g>
<g>
</g>
<g>
</g>
<g>
</g>
<g>
</g>
<g>
</g>
</g> 
<svg:g><svg:g><svg:title>SVG Picture created as TFRPM01-Edge_Cuts.svg date 2023/05/28 00:38:18 </svg:title>
  <svg:desc>Picture generated by PCBNEW </svg:desc>
<svg:g style="fill:#C2C200; fill-opacity:1.000000;stroke:#C2C200; stroke-opacity:1.000000; stroke-linecap:round; stroke-linejoin:round;" transform="translate(0 0) scale(1 1)">
</svg:g>
<svg:g style="fill:#C2C200; fill-opacity:0.0;  stroke:#C2C200; stroke-width:0.000000; stroke-opacity:1;  stroke-linecap:round; stroke-linejoin:round;">
</svg:g>
<svg:g style="fill:#C2C200; fill-opacity:0.0;  stroke:#C2C200; stroke-width:11737.583981; stroke-opacity:1;  stroke-linecap:round; stroke-linejoin:round;">
<svg:path d="M2940275 306655 L2940275 1793416 "/>
<svg:path d="M5879 1793416 L5879 306655 "/>
<svg:path d="M5879 1793416 L2940275 1793416 "/>
<svg:path d="M5879 306655 L2940275 306655 "/>
</svg:g>
<svg:g style="fill:#C2C200; fill-opacity:0.0;  stroke:#C2C200; stroke-width:3912.527994; stroke-opacity:1;  stroke-linecap:round; stroke-linejoin:round;">
<svg:path d="M1781385 1544970 L1781385 1654521 "/>
<svg:path d="M1648359 1693646 L1742259 1693646 "/>
<svg:path d="M1648359 1505845 L1742259 1505845 "/>
<svg:path d="M1609233 1544970 L1609233 1654521 "/>
<svg:path d="M1609233.797128 1654521.543407 A39125.358187 39125.358187 0.0 0 0 1648359.077065 1693646.823343"/>
<svg:path d="M1742259.748913 1693646.823343 A39125.279937 39125.279937 0.0 0 0 1781385.028850 1654521.543407"/>
<svg:path d="M1781385.028850 1544970.759584 A39125.279937 39125.279937 0.0 0 0 1742259.748913 1505845.479647"/>
<svg:path d="M1648359.077065 1505845.479647 A39125.358187 39125.358187 0.0 0 0 1609233.797128 1544970.759584"/>
<svg:path d="M865853 1505845 L959754 1505845 "/>
<svg:path d="M826728 1544970 L826728 1654521 "/>
<svg:path d="M865853 1693646 L959754 1693646 "/>
<svg:path d="M998879 1544970 L998879 1654521 "/>
<svg:path d="M959754.150178 1693646.823343 A39125.279937 39125.279937 0.0 0 0 998879.430115 1654521.543407"/>
<svg:path d="M998879.430115 1544970.759584 A39125.279937 39125.279937 0.0 0 0 959754.150178 1505845.479647"/>
<svg:path d="M865853.478330 1505845.479647 A39125.358187 39125.358187 0.0 0 0 826728.198393 1544970.759584"/>
<svg:path d="M826728.198393 1654521.543407 A39125.358187 39125.358187 0.0 0 0 865853.478330 1693646.823343"/>
<svg:g>
</svg:g>
<svg:g>
</svg:g>
<svg:g>
</svg:g>
<svg:g>
</svg:g>
<svg:g>
</svg:g>
<svg:g>
</svg:g>
<svg:g>
</svg:g>
<svg:g>
</svg:g>
<svg:g>
</svg:g>
<svg:g>
</svg:g>
<svg:g>
</svg:g>
<svg:g>
</svg:g>
<svg:g>
</svg:g>
<svg:g>
</svg:g>
<svg:g>
</svg:g>
<svg:g>
</svg:g>
<svg:g>
</svg:g>
<svg:g>
</svg:g>
<svg:g>
</svg:g>
<svg:g>
</svg:g>
<svg:g>
</svg:g>
<svg:g>
</svg:g>
<svg:g>
</svg:g>
<svg:g>
</svg:g>
<svg:g>
</svg:g>
<svg:g>
</svg:g>
<svg:g>
</svg:g>
<svg:g>
</svg:g>
<svg:g>
</svg:g>
<svg:g>
</svg:g>
<svg:g>
</svg:g>
</svg:g> 
</svg:g></svg:g></svg>
