%TF.GenerationSoftware,KiCad,Pcbnew,8.0.3+1*%
%TF.CreationDate,2024-07-17T01:19:21+00:00*%
%TF.ProjectId,TFRPM01,54465250-4d30-4312-9e6b-696361645f70,rev?*%
%TF.SameCoordinates,PX7e721e0PY7e33658*%
%TF.FileFunction,Soldermask,Bot*%
%TF.FilePolarity,Negative*%
%FSLAX46Y46*%
G04 Gerber Fmt 4.6, Leading zero omitted, Abs format (unit mm)*
G04 Created by KiCad (PCBNEW 8.0.3+1) date 2024-07-17 01:19:21*
%MOMM*%
%LPD*%
G01*
G04 APERTURE LIST*
G04 Aperture macros list*
%AMRoundRect*
0 Rectangle with rounded corners*
0 $1 Rounding radius*
0 $2 $3 $4 $5 $6 $7 $8 $9 X,Y pos of 4 corners*
0 Add a 4 corners polygon primitive as box body*
4,1,4,$2,$3,$4,$5,$6,$7,$8,$9,$2,$3,0*
0 Add four circle primitives for the rounded corners*
1,1,$1+$1,$2,$3*
1,1,$1+$1,$4,$5*
1,1,$1+$1,$6,$7*
1,1,$1+$1,$8,$9*
0 Add four rect primitives between the rounded corners*
20,1,$1+$1,$2,$3,$4,$5,0*
20,1,$1+$1,$4,$5,$6,$7,0*
20,1,$1+$1,$6,$7,$8,$9,0*
20,1,$1+$1,$8,$9,$2,$3,0*%
%AMFreePoly0*
4,1,40,0.636777,0.930194,0.706366,0.874698,0.744986,0.794504,0.750000,0.750000,0.750000,-0.750000,0.730194,-0.836777,0.674698,-0.906366,0.594504,-0.944986,0.550000,-0.950000,0.000000,-0.950000,-0.022297,-0.944911,-0.071157,-0.944911,-0.127504,-0.936810,-0.264055,-0.896715,-0.315837,-0.873066,-0.435559,-0.796125,-0.478580,-0.758847,-0.571777,-0.651292,-0.602554,-0.603402,-0.661673,-0.473948,
-0.677710,-0.419330,-0.697964,-0.278464,-0.700000,-0.250000,-0.700000,0.250000,-0.697964,0.278464,-0.677710,0.419330,-0.661673,0.473948,-0.602554,0.603402,-0.571777,0.651292,-0.478580,0.758847,-0.435559,0.796125,-0.315837,0.873066,-0.264055,0.896715,-0.127504,0.936810,-0.071157,0.944911,-0.044660,0.944911,-0.044504,0.944986,0.000000,0.950000,0.550000,0.950000,0.636777,0.930194,
0.636777,0.930194,$1*%
%AMFreePoly1*
4,1,40,0.022297,0.944911,0.071157,0.944911,0.127504,0.936810,0.264055,0.896715,0.315837,0.873066,0.435559,0.796125,0.478580,0.758847,0.571777,0.651292,0.602554,0.603402,0.661673,0.473948,0.677710,0.419330,0.697964,0.278464,0.700000,0.250000,0.700000,-0.250000,0.697964,-0.278464,0.677710,-0.419330,0.661673,-0.473948,0.602554,-0.603402,0.571777,-0.651292,0.478580,-0.758847,
0.435559,-0.796125,0.315837,-0.873066,0.264055,-0.896715,0.127504,-0.936810,0.071157,-0.944911,0.044660,-0.944911,0.044504,-0.944986,0.000000,-0.950000,-0.550000,-0.950000,-0.636777,-0.930194,-0.706366,-0.874698,-0.744986,-0.794504,-0.750000,-0.750000,-0.750000,0.750000,-0.730194,0.836777,-0.674698,0.906366,-0.594504,0.944986,-0.550000,0.950000,0.000000,0.950000,0.022297,0.944911,
0.022297,0.944911,$1*%
G04 Aperture macros list end*
%ADD10RoundRect,0.200000X-0.300000X-0.350000X0.300000X-0.350000X0.300000X0.350000X-0.300000X0.350000X0*%
%ADD11C,6.400000*%
%ADD12RoundRect,0.300000X0.300000X0.375000X-0.300000X0.375000X-0.300000X-0.375000X0.300000X-0.375000X0*%
%ADD13RoundRect,0.200000X-0.850000X-0.850000X0.850000X-0.850000X0.850000X0.850000X-0.850000X0.850000X0*%
%ADD14O,2.100000X2.100000*%
%ADD15RoundRect,0.250000X-0.612500X-0.250000X0.612500X-0.250000X0.612500X0.250000X-0.612500X0.250000X0*%
%ADD16RoundRect,0.325000X0.325000X0.350000X-0.325000X0.350000X-0.325000X-0.350000X0.325000X-0.350000X0*%
%ADD17RoundRect,0.250000X0.800000X-0.250000X0.800000X0.250000X-0.800000X0.250000X-0.800000X-0.250000X0*%
%ADD18RoundRect,0.350000X1.200000X-0.350000X1.200000X0.350000X-1.200000X0.350000X-1.200000X-0.350000X0*%
%ADD19RoundRect,0.300000X-0.375000X0.300000X-0.375000X-0.300000X0.375000X-0.300000X0.375000X0.300000X0*%
%ADD20RoundRect,0.347560X-0.552440X0.364940X-0.552440X-0.364940X0.552440X-0.364940X0.552440X0.364940X0*%
%ADD21RoundRect,0.347560X0.552440X-0.364940X0.552440X0.364940X-0.552440X0.364940X-0.552440X-0.364940X0*%
%ADD22RoundRect,0.325000X-0.350000X0.325000X-0.350000X-0.325000X0.350000X-0.325000X0.350000X0.325000X0*%
%ADD23O,1.100000X3.000000*%
%ADD24RoundRect,0.325000X0.350000X-0.325000X0.350000X0.325000X-0.350000X0.325000X-0.350000X-0.325000X0*%
%ADD25RoundRect,0.200000X0.750000X0.750000X-0.750000X0.750000X-0.750000X-0.750000X0.750000X-0.750000X0*%
%ADD26RoundRect,0.200000X-0.750000X-0.750000X0.750000X-0.750000X0.750000X0.750000X-0.750000X0.750000X0*%
%ADD27C,1.500000*%
%ADD28RoundRect,0.200000X-0.200000X0.325000X-0.200000X-0.325000X0.200000X-0.325000X0.200000X0.325000X0*%
%ADD29RoundRect,0.300000X0.375000X-0.300000X0.375000X0.300000X-0.375000X0.300000X-0.375000X-0.300000X0*%
%ADD30FreePoly0,270.000000*%
%ADD31RoundRect,0.200000X-0.750000X0.500000X-0.750000X-0.500000X0.750000X-0.500000X0.750000X0.500000X0*%
%ADD32FreePoly1,270.000000*%
G04 APERTURE END LIST*
D10*
%TO.C,D1*%
X-14286000Y-1016000D03*
X-15686000Y-1016000D03*
%TD*%
D11*
%TO.C,M2*%
X0Y0D03*
%TD*%
D12*
%TO.C,R10*%
X-6617000Y7425096D03*
X-8267000Y7425096D03*
%TD*%
D13*
%TO.C,J1*%
X5715000Y-2540000D03*
D14*
X5715000Y0D03*
X5715000Y2540000D03*
%TD*%
D15*
%TO.C,U3*%
X-4679500Y5725096D03*
X-4679500Y6675096D03*
X-4679500Y7625096D03*
X-2404500Y7625096D03*
X-2404500Y5725096D03*
%TD*%
D16*
%TO.C,C3*%
X-14211000Y1270000D03*
X-15761000Y1270000D03*
%TD*%
%TO.C,C4*%
X-13267000Y7425096D03*
X-14817000Y7425096D03*
%TD*%
D17*
%TO.C,J2*%
X-16588000Y2931096D03*
X-16588000Y4181096D03*
X-16588000Y5431096D03*
X-16588000Y6681096D03*
D18*
X-19788000Y1081096D03*
X-19788000Y8531096D03*
%TD*%
D19*
%TO.C,R4*%
X-4064000Y-6287000D03*
X-4064000Y-7937000D03*
%TD*%
D20*
%TO.C,R1*%
X9008000Y7437596D03*
X9008000Y5612596D03*
%TD*%
D21*
%TO.C,R2*%
X4572000Y5612596D03*
X4572000Y7437596D03*
%TD*%
D12*
%TO.C,R3*%
X-9917000Y7425096D03*
X-11567000Y7425096D03*
%TD*%
D22*
%TO.C,C6*%
X4300000Y-6225000D03*
X4300000Y-7775000D03*
%TD*%
D17*
%TO.C,J3*%
X-16588000Y-6643904D03*
X-16588000Y-5393904D03*
X-16588000Y-4143904D03*
X-16588000Y-2893904D03*
D18*
X-19788000Y-8493904D03*
X-19788000Y-1043904D03*
%TD*%
D22*
%TO.C,C5*%
X-4343400Y4150296D03*
X-4343400Y2600296D03*
%TD*%
D23*
%TO.C,U1*%
X-7387000Y-3638000D03*
X-8657000Y-3638000D03*
X-9927000Y-3638000D03*
X-11202000Y-3638000D03*
X-11197000Y5162000D03*
X-9927000Y5162000D03*
X-8592000Y5162000D03*
X-7387000Y5162000D03*
%TD*%
D24*
%TO.C,C1*%
X-292000Y6000096D03*
X-292000Y7550096D03*
%TD*%
%TO.C,C2*%
X6790000Y5750096D03*
X6790000Y7300096D03*
%TD*%
D25*
%TO.C,D2*%
X1880000Y-7000000D03*
D26*
X-1880000Y-7000000D03*
%TD*%
D27*
%TO.C,FID3*%
X-14000000Y-8000000D03*
%TD*%
D28*
%TO.C,U2*%
X6462000Y-5910904D03*
X7112000Y-5910904D03*
X7762000Y-5910904D03*
X7762000Y-7810904D03*
X6462000Y-7810904D03*
%TD*%
D29*
%TO.C,R5*%
X-6096000Y-7937000D03*
X-6096000Y-6287000D03*
%TD*%
D27*
%TO.C,FID1*%
X13500000Y6500000D03*
%TD*%
D25*
%TO.C,D3*%
X-8120000Y-7000000D03*
D26*
X-11880000Y-7000000D03*
%TD*%
D27*
%TO.C,FID2*%
X13500000Y-7000000D03*
%TD*%
D30*
%TO.C,JP2*%
X1887500Y7725096D03*
D31*
X1887500Y6425096D03*
D32*
X1887500Y5125096D03*
%TD*%
M02*
