%TF.GenerationSoftware,KiCad,Pcbnew,6.0.11+dfsg-1~bpo11+1*%
%TF.CreationDate,2023-05-27T16:21:32+00:00*%
%TF.ProjectId,TFRPM01,54465250-4d30-4312-9e6b-696361645f70,rev?*%
%TF.SameCoordinates,PX7e721e0PY7e33658*%
%TF.FileFunction,Copper,L2,Bot*%
%TF.FilePolarity,Positive*%
%FSLAX46Y46*%
G04 Gerber Fmt 4.6, Leading zero omitted, Abs format (unit mm)*
G04 Created by KiCad (PCBNEW 6.0.11+dfsg-1~bpo11+1) date 2023-05-27 16:21:32*
%MOMM*%
%LPD*%
G01*
G04 APERTURE LIST*
G04 Aperture macros list*
%AMRoundRect*
0 Rectangle with rounded corners*
0 $1 Rounding radius*
0 $2 $3 $4 $5 $6 $7 $8 $9 X,Y pos of 4 corners*
0 Add a 4 corners polygon primitive as box body*
4,1,4,$2,$3,$4,$5,$6,$7,$8,$9,$2,$3,0*
0 Add four circle primitives for the rounded corners*
1,1,$1+$1,$2,$3*
1,1,$1+$1,$4,$5*
1,1,$1+$1,$6,$7*
1,1,$1+$1,$8,$9*
0 Add four rect primitives between the rounded corners*
20,1,$1+$1,$2,$3,$4,$5,0*
20,1,$1+$1,$4,$5,$6,$7,0*
20,1,$1+$1,$6,$7,$8,$9,0*
20,1,$1+$1,$8,$9,$2,$3,0*%
%AMFreePoly0*
4,1,22,0.550000,-0.750000,0.000000,-0.750000,0.000000,-0.745033,-0.079941,-0.743568,-0.215256,-0.701293,-0.333266,-0.622738,-0.424486,-0.514219,-0.481581,-0.384460,-0.499164,-0.250000,-0.500000,-0.250000,-0.500000,0.250000,-0.499164,0.250000,-0.499963,0.256109,-0.478152,0.396186,-0.417904,0.524511,-0.324060,0.630769,-0.204165,0.706417,-0.067858,0.745374,0.000000,0.744959,0.000000,0.750000,
0.550000,0.750000,0.550000,-0.750000,0.550000,-0.750000,$1*%
%AMFreePoly1*
4,1,20,0.000000,0.744959,0.073905,0.744508,0.209726,0.703889,0.328688,0.626782,0.421226,0.519385,0.479903,0.390333,0.500000,0.250000,0.500000,-0.250000,0.499851,-0.262216,0.476331,-0.402017,0.414519,-0.529596,0.319384,-0.634700,0.198574,-0.708877,0.061801,-0.746166,0.000000,-0.745033,0.000000,-0.750000,-0.550000,-0.750000,-0.550000,0.750000,0.000000,0.750000,0.000000,0.744959,
0.000000,0.744959,$1*%
G04 Aperture macros list end*
%TA.AperFunction,SMDPad,CuDef*%
%ADD10R,0.600000X0.700000*%
%TD*%
%TA.AperFunction,ComponentPad*%
%ADD11C,6.000000*%
%TD*%
%TA.AperFunction,SMDPad,CuDef*%
%ADD12RoundRect,0.200000X0.200000X0.275000X-0.200000X0.275000X-0.200000X-0.275000X0.200000X-0.275000X0*%
%TD*%
%TA.AperFunction,ComponentPad*%
%ADD13R,1.700000X1.700000*%
%TD*%
%TA.AperFunction,ComponentPad*%
%ADD14O,1.700000X1.700000*%
%TD*%
%TA.AperFunction,SMDPad,CuDef*%
%ADD15RoundRect,0.150000X-0.512500X-0.150000X0.512500X-0.150000X0.512500X0.150000X-0.512500X0.150000X0*%
%TD*%
%TA.AperFunction,SMDPad,CuDef*%
%ADD16RoundRect,0.225000X0.225000X0.250000X-0.225000X0.250000X-0.225000X-0.250000X0.225000X-0.250000X0*%
%TD*%
%TA.AperFunction,SMDPad,CuDef*%
%ADD17RoundRect,0.150000X0.700000X-0.150000X0.700000X0.150000X-0.700000X0.150000X-0.700000X-0.150000X0*%
%TD*%
%TA.AperFunction,SMDPad,CuDef*%
%ADD18RoundRect,0.250000X1.100000X-0.250000X1.100000X0.250000X-1.100000X0.250000X-1.100000X-0.250000X0*%
%TD*%
%TA.AperFunction,SMDPad,CuDef*%
%ADD19RoundRect,0.200000X-0.275000X0.200000X-0.275000X-0.200000X0.275000X-0.200000X0.275000X0.200000X0*%
%TD*%
%TA.AperFunction,SMDPad,CuDef*%
%ADD20RoundRect,0.250000X-0.450000X0.262500X-0.450000X-0.262500X0.450000X-0.262500X0.450000X0.262500X0*%
%TD*%
%TA.AperFunction,SMDPad,CuDef*%
%ADD21RoundRect,0.250000X0.450000X-0.262500X0.450000X0.262500X-0.450000X0.262500X-0.450000X-0.262500X0*%
%TD*%
%TA.AperFunction,SMDPad,CuDef*%
%ADD22RoundRect,0.225000X-0.250000X0.225000X-0.250000X-0.225000X0.250000X-0.225000X0.250000X0.225000X0*%
%TD*%
%TA.AperFunction,SMDPad,CuDef*%
%ADD23O,0.700000X2.600000*%
%TD*%
%TA.AperFunction,SMDPad,CuDef*%
%ADD24RoundRect,0.225000X0.250000X-0.225000X0.250000X0.225000X-0.250000X0.225000X-0.250000X-0.225000X0*%
%TD*%
%TA.AperFunction,SMDPad,CuDef*%
%ADD25R,1.500000X1.500000*%
%TD*%
%TA.AperFunction,SMDPad,CuDef*%
%ADD26C,0.500000*%
%TD*%
%TA.AperFunction,SMDPad,CuDef*%
%ADD27R,0.400000X0.650000*%
%TD*%
%TA.AperFunction,SMDPad,CuDef*%
%ADD28RoundRect,0.200000X0.275000X-0.200000X0.275000X0.200000X-0.275000X0.200000X-0.275000X-0.200000X0*%
%TD*%
%TA.AperFunction,SMDPad,CuDef*%
%ADD29FreePoly0,270.000000*%
%TD*%
%TA.AperFunction,SMDPad,CuDef*%
%ADD30R,1.500000X1.000000*%
%TD*%
%TA.AperFunction,SMDPad,CuDef*%
%ADD31FreePoly1,270.000000*%
%TD*%
%TA.AperFunction,ViaPad*%
%ADD32C,0.800000*%
%TD*%
%TA.AperFunction,Conductor*%
%ADD33C,0.400000*%
%TD*%
%TA.AperFunction,Conductor*%
%ADD34C,0.500000*%
%TD*%
G04 APERTURE END LIST*
%TO.C,JP2*%
G36*
X2187500Y6825096D02*
G01*
X1587500Y6825096D01*
X1587500Y7325096D01*
X2187500Y7325096D01*
X2187500Y6825096D01*
G37*
%TD*%
D10*
%TO.P,D1,1,K*%
%TO.N,+5V*%
X-14286000Y-1016000D03*
%TO.P,D1,2,A*%
%TO.N,GND*%
X-15686000Y-1016000D03*
%TD*%
D11*
%TO.P,M2,1*%
%TO.N,GND*%
X0Y0D03*
%TD*%
D12*
%TO.P,R10,1*%
%TO.N,+3V3*%
X-6617000Y7425096D03*
%TO.P,R10,2*%
%TO.N,/SCL*%
X-8267000Y7425096D03*
%TD*%
D13*
%TO.P,J1,1*%
%TO.N,/COUNT*%
X5715000Y-2540000D03*
D14*
%TO.P,J1,2*%
%TO.N,Net-(C2-Pad1)*%
X5715000Y0D03*
%TO.P,J1,3*%
%TO.N,GND*%
X5715000Y2540000D03*
%TD*%
D15*
%TO.P,U3,1,VIN*%
%TO.N,+5V*%
X-4679500Y5725096D03*
%TO.P,U3,2,GND*%
%TO.N,GND*%
X-4679500Y6675096D03*
%TO.P,U3,3,EN*%
%TO.N,+5V*%
X-4679500Y7625096D03*
%TO.P,U3,4,NC*%
%TO.N,unconnected-(U3-Pad4)*%
X-2404500Y7625096D03*
%TO.P,U3,5,VOUT*%
%TO.N,+3V3*%
X-2404500Y5725096D03*
%TD*%
D16*
%TO.P,C3,1*%
%TO.N,+5V*%
X-14211000Y1270000D03*
%TO.P,C3,2*%
%TO.N,GND*%
X-15761000Y1270000D03*
%TD*%
%TO.P,C4,1*%
%TO.N,+5V*%
X-13267000Y7425096D03*
%TO.P,C4,2*%
%TO.N,GND*%
X-14817000Y7425096D03*
%TD*%
D17*
%TO.P,J2,1*%
%TO.N,+5V*%
X-16588000Y2931096D03*
%TO.P,J2,2*%
%TO.N,/SCL*%
X-16588000Y4181096D03*
%TO.P,J2,3*%
%TO.N,/SDA*%
X-16588000Y5431096D03*
%TO.P,J2,4*%
%TO.N,GND*%
X-16588000Y6681096D03*
D18*
%TO.P,J2,MP*%
X-19788000Y8531096D03*
X-19788000Y1081096D03*
%TD*%
D19*
%TO.P,R4,1*%
%TO.N,Net-(R4-Pad1)*%
X-4064000Y-6287000D03*
%TO.P,R4,2*%
%TO.N,Net-(D2-Pad2)*%
X-4064000Y-7937000D03*
%TD*%
D20*
%TO.P,R1,1*%
%TO.N,Net-(JP2-Pad2)*%
X9008000Y7437596D03*
%TO.P,R1,2*%
%TO.N,/COUNT*%
X9008000Y5612596D03*
%TD*%
D21*
%TO.P,R2,1*%
%TO.N,Net-(C2-Pad1)*%
X4572000Y5612596D03*
%TO.P,R2,2*%
%TO.N,Net-(JP2-Pad2)*%
X4572000Y7437596D03*
%TD*%
D12*
%TO.P,R3,1*%
%TO.N,+3V3*%
X-9917000Y7425096D03*
%TO.P,R3,2*%
%TO.N,/SDA*%
X-11567000Y7425096D03*
%TD*%
D22*
%TO.P,C6,1*%
%TO.N,+3V3*%
X4300000Y-6225000D03*
%TO.P,C6,2*%
%TO.N,GND*%
X4300000Y-7775000D03*
%TD*%
D17*
%TO.P,J3,1*%
%TO.N,+5V*%
X-16588000Y-6643904D03*
%TO.P,J3,2*%
%TO.N,/SCL*%
X-16588000Y-5393904D03*
%TO.P,J3,3*%
%TO.N,/SDA*%
X-16588000Y-4143904D03*
%TO.P,J3,4*%
%TO.N,GND*%
X-16588000Y-2893904D03*
D18*
%TO.P,J3,MP*%
X-19788000Y-8493904D03*
X-19788000Y-1043904D03*
%TD*%
D22*
%TO.P,C5,1*%
%TO.N,+3V3*%
X-4343400Y4150296D03*
%TO.P,C5,2*%
%TO.N,GND*%
X-4343400Y2600296D03*
%TD*%
D23*
%TO.P,U1,1,OSCI*%
%TO.N,Net-(R4-Pad1)*%
X-7387000Y-3638000D03*
%TO.P,U1,2,OSCO*%
%TO.N,unconnected-(U1-Pad2)*%
X-8657000Y-3638000D03*
%TO.P,U1,3,A0*%
%TO.N,Net-(JP1-Pad2)*%
X-9927000Y-3638000D03*
%TO.P,U1,4,VSS*%
%TO.N,GND*%
X-11202000Y-3638000D03*
%TO.P,U1,5,SDA*%
%TO.N,/SDA*%
X-11197000Y5162000D03*
%TO.P,U1,6,SCL*%
%TO.N,/SCL*%
X-9927000Y5162000D03*
%TO.P,U1,7,#INT*%
%TO.N,unconnected-(U1-Pad7)*%
X-8592000Y5162000D03*
%TO.P,U1,8,VDD*%
%TO.N,+3V3*%
X-7387000Y5162000D03*
%TD*%
D24*
%TO.P,C1,1*%
%TO.N,+3V3*%
X-292000Y6000096D03*
%TO.P,C1,2*%
%TO.N,GND*%
X-292000Y7550096D03*
%TD*%
%TO.P,C2,1*%
%TO.N,Net-(C2-Pad1)*%
X6790000Y5750096D03*
%TO.P,C2,2*%
%TO.N,GND*%
X6790000Y7300096D03*
%TD*%
D25*
%TO.P,D2,1,K*%
%TO.N,GND*%
X1880000Y-7000000D03*
%TO.P,D2,2,A*%
%TO.N,Net-(D2-Pad2)*%
X-1880000Y-7000000D03*
%TD*%
D26*
%TO.P,FID3,*%
%TO.N,*%
X-14000000Y-8000000D03*
%TD*%
D27*
%TO.P,U2,1*%
%TO.N,N/C*%
X6462000Y-5910904D03*
%TO.P,U2,2*%
%TO.N,/COUNT*%
X7112000Y-5910904D03*
%TO.P,U2,3,GND*%
%TO.N,GND*%
X7762000Y-5910904D03*
%TO.P,U2,4*%
%TO.N,Net-(R4-Pad1)*%
X7762000Y-7810904D03*
%TO.P,U2,5,VCC*%
%TO.N,+3V3*%
X6462000Y-7810904D03*
%TD*%
D28*
%TO.P,R5,1*%
%TO.N,Net-(D3-Pad1)*%
X-6096000Y-7937000D03*
%TO.P,R5,2*%
%TO.N,GND*%
X-6096000Y-6287000D03*
%TD*%
D26*
%TO.P,FID1,*%
%TO.N,*%
X13500000Y6500000D03*
%TD*%
D25*
%TO.P,D3,1,K*%
%TO.N,Net-(D3-Pad1)*%
X-8120000Y-7000000D03*
%TO.P,D3,2,A*%
%TO.N,+5V*%
X-11880000Y-7000000D03*
%TD*%
D26*
%TO.P,FID2,*%
%TO.N,*%
X13500000Y-7000000D03*
%TD*%
D29*
%TO.P,JP2,1,A*%
%TO.N,+5V*%
X1887500Y7725096D03*
D30*
%TO.P,JP2,2,C*%
%TO.N,Net-(JP2-Pad2)*%
X1887500Y6425096D03*
D31*
%TO.P,JP2,3,B*%
%TO.N,+3V3*%
X1887500Y5125096D03*
%TD*%
D32*
%TO.N,GND*%
X-1270000Y8382000D03*
X11412000Y-1171304D03*
X-12192000Y3807096D03*
X-17272000Y-8382000D03*
X-12192000Y-8384904D03*
X-20320000Y3302000D03*
X-20320000Y-6350000D03*
X-20320000Y-3302000D03*
X-20320000Y-5334000D03*
X-20320000Y6350000D03*
X-20320000Y-4318000D03*
X-20320000Y5334000D03*
X-20320000Y4318000D03*
X-16256000Y8506096D03*
X6096000Y-4572000D03*
X11412000Y-5056904D03*
X11412000Y-6160904D03*
X11412000Y-3952904D03*
X11412000Y8268096D03*
X-2286000Y3807096D03*
X11412000Y-8368904D03*
X11412000Y-7264904D03*
X3812000Y3131096D03*
X3812000Y1431096D03*
X11412000Y7125096D03*
X-2540000Y-8384904D03*
X-17018000Y0D03*
X-400000Y3700000D03*
X2286000Y-8382000D03*
X-11176000Y1270000D03*
X-12700000Y-510904D03*
X-1923406Y-5419175D03*
X10312000Y-5068904D03*
X-7900000Y-5600000D03*
X-5867400Y-4041504D03*
X-4188000Y-1368904D03*
X-12700000Y1267096D03*
X-4188000Y331096D03*
X3008000Y-2374904D03*
X-8636000Y2794000D03*
X11412000Y5096000D03*
X11412000Y6112000D03*
X5842000Y4318000D03*
X-7620000Y-8384904D03*
X-17018000Y-1270000D03*
X-12522200Y8506096D03*
X3810000Y-3302000D03*
X-18642000Y6975096D03*
X-17018000Y1270000D03*
X-17526000Y8506096D03*
X-3540964Y-3032964D03*
X-5080000Y-7100000D03*
%TO.N,+3V3*%
X-7366000Y2540000D03*
X2870200Y-5336904D03*
%TO.N,+5V*%
X-14224000Y254000D03*
X-12792000Y6325096D03*
X-13716000Y-5842000D03*
X3100000Y7600000D03*
X-3403600Y6705600D03*
%TO.N,/SDA*%
X-15100000Y-2600000D03*
X-18084800Y5407296D03*
X-11688000Y2481096D03*
%TO.N,Net-(JP1-Pad2)*%
X-8534400Y-1704704D03*
%TD*%
D33*
%TO.N,Net-(D2-Pad2)*%
X-3127000Y-7000000D02*
X-4064000Y-7937000D01*
X-1880000Y-7000000D02*
X-3127000Y-7000000D01*
D34*
%TO.N,/COUNT*%
X5715000Y-2540000D02*
X8991600Y736600D01*
X8991600Y736600D02*
X8991600Y5556196D01*
D33*
X7112000Y-4066904D02*
X5715000Y-2669904D01*
X7112000Y-4066904D02*
X7112000Y-5910904D01*
%TO.N,+3V3*%
X-7387000Y4375096D02*
X-7387000Y6655096D01*
D34*
X4300000Y-6225000D02*
X3917000Y-5842000D01*
X-7387000Y2561000D02*
X-7387000Y3535000D01*
X-7387000Y3535000D02*
X-7387000Y5162000D01*
D33*
X6462000Y-7810904D02*
X5885904Y-7810904D01*
D34*
X-4305000Y4150296D02*
X-2730200Y5725096D01*
X3375296Y-5842000D02*
X2870200Y-5336904D01*
X-5499400Y4150296D02*
X-4343400Y4150296D01*
D33*
X-6617000Y7600096D02*
X-7316520Y8299616D01*
D34*
X3917000Y-5842000D02*
X3375296Y-5842000D01*
X-2730200Y5725096D02*
X-2404500Y5725096D01*
X1958000Y5125096D02*
X583000Y5125096D01*
D33*
X-7316520Y8299616D02*
X-9092480Y8299616D01*
D34*
X-6511104Y5162000D02*
X-5499400Y4150296D01*
D33*
X-7387000Y6655096D02*
X-6617000Y7425096D01*
D34*
X-4343400Y4150296D02*
X-4305000Y4150296D01*
X-7387000Y5162000D02*
X-6511104Y5162000D01*
X-2404500Y5725096D02*
X-25096Y5725096D01*
D33*
X-9092480Y8299616D02*
X-9967000Y7425096D01*
X5885904Y-7810904D02*
X4300000Y-6225000D01*
D34*
X583000Y5125096D02*
X-292000Y6000096D01*
%TO.N,+5V*%
X-3403600Y6248400D02*
X-3926904Y5725096D01*
X-13038000Y-5842000D02*
X-11880000Y-7000000D01*
X-3926904Y5725096D02*
X-4679500Y5725096D01*
X-14224000Y2560192D02*
X-14594904Y2931096D01*
X-14224000Y2560192D02*
X-14224000Y1283000D01*
X-3403600Y6705600D02*
X-3403600Y6248400D01*
X-14211000Y1270000D02*
X-14211000Y-941000D01*
X-14211000Y-941000D02*
X-14286000Y-1016000D01*
X-3403600Y6705600D02*
X-3403600Y7086600D01*
X-3942096Y7625096D02*
X-4642000Y7625096D01*
X-12792000Y6325096D02*
X-12801104Y6325096D01*
D33*
X3100000Y7600000D02*
X2012596Y7600000D01*
D34*
X-14594904Y4531296D02*
X-14594904Y2931096D01*
X-3403600Y7086600D02*
X-3942096Y7625096D01*
X-13716000Y-5842000D02*
X-13038000Y-5842000D01*
X-14517904Y-6643904D02*
X-13716000Y-5842000D01*
D33*
X-13267000Y6800096D02*
X-12792000Y6325096D01*
D34*
X-12801104Y6325096D02*
X-14594904Y4531296D01*
X-16588000Y-6643904D02*
X-14517904Y-6643904D01*
D33*
X-13267000Y7425096D02*
X-13267000Y6800096D01*
D34*
X-16588000Y2931096D02*
X-14594904Y2931096D01*
%TO.N,/SDA*%
X-15100000Y-2600000D02*
X-15079236Y-3649236D01*
X-15079236Y-3649236D02*
X-15573904Y-4143904D01*
D33*
X-11197000Y2972096D02*
X-11688000Y2481096D01*
D34*
X-15573904Y-4143904D02*
X-16588000Y-4143904D01*
D33*
X-11197000Y4375096D02*
X-11197000Y7005096D01*
D34*
X-18061000Y5431096D02*
X-18084800Y5407296D01*
X-16588000Y5431096D02*
X-18061000Y5431096D01*
D33*
X-11197000Y7005096D02*
X-11617000Y7425096D01*
X-11197000Y4375096D02*
X-11197000Y2972096D01*
D34*
%TO.N,/SCL*%
X-15299904Y-5393904D02*
X-16588000Y-5393904D01*
X-17913000Y-5201000D02*
X-17913000Y3931000D01*
X-16588000Y-5393904D02*
X-17720096Y-5393904D01*
D33*
X-8267000Y7425096D02*
X-8478496Y7213600D01*
D34*
X-17913000Y3931000D02*
X-17662904Y4181096D01*
D33*
X-8788400Y7213600D02*
X-9927000Y6075000D01*
D34*
X-13716000Y-3302000D02*
X-13716000Y-3810000D01*
X-9927000Y487000D02*
X-13716000Y-3302000D01*
X-17662904Y4181096D02*
X-16588000Y4181096D01*
X-17720096Y-5393904D02*
X-17913000Y-5201000D01*
X-13716000Y-3810000D02*
X-15299904Y-5393904D01*
X-9927000Y4375096D02*
X-9927000Y487000D01*
D33*
X-8478496Y7213600D02*
X-8788400Y7213600D01*
%TO.N,Net-(R4-Pad1)*%
X-4155304Y-6287000D02*
X-5283200Y-5159104D01*
X6858000Y-6858000D02*
X7762000Y-7762000D01*
X-4064000Y-6287000D02*
X-2301104Y-4524104D01*
X5334000Y-6134000D02*
X6058000Y-6858000D01*
X-4064000Y-6287000D02*
X-4155304Y-6287000D01*
X-7387000Y-4630104D02*
X-7387000Y-3638000D01*
X-2301104Y-4524104D02*
X4524104Y-4524104D01*
X4524104Y-4524104D02*
X5334000Y-5334000D01*
X-5283200Y-5159104D02*
X-6858000Y-5159104D01*
X5334000Y-5334000D02*
X5334000Y-6134000D01*
X-6858000Y-5159104D02*
X-7387000Y-4630104D01*
X6058000Y-6858000D02*
X6858000Y-6858000D01*
%TO.N,Net-(JP1-Pad2)*%
X-9104704Y-1704704D02*
X-8534400Y-1704704D01*
X-9927000Y-2527000D02*
X-9104704Y-1704704D01*
X-9927000Y-3638000D02*
X-9927000Y-2527000D01*
D34*
%TO.N,Net-(JP2-Pad2)*%
X3559500Y6425096D02*
X4572000Y7437596D01*
D33*
X5357202Y8222798D02*
X4572000Y7437596D01*
X8222798Y8222798D02*
X5357202Y8222798D01*
D34*
X1958000Y6425096D02*
X3559500Y6425096D01*
D33*
X9008000Y7437596D02*
X8222798Y8222798D01*
D34*
X2443000Y6347096D02*
X2443000Y6250096D01*
X2443000Y6250096D02*
X2413000Y6220096D01*
%TO.N,Net-(C2-Pad1)*%
X6604000Y5575000D02*
X6965096Y5575000D01*
X4572000Y5612596D02*
X6566404Y5612596D01*
X6965096Y5575000D02*
X7741489Y4798607D01*
X7741489Y4798607D02*
X7741489Y2026489D01*
X7741489Y2026489D02*
X5715000Y0D01*
D33*
%TO.N,Net-(D3-Pad1)*%
X-6970000Y-7000000D02*
X-8120000Y-7000000D01*
X-6096000Y-7874000D02*
X-6970000Y-7000000D01*
%TD*%
%TA.AperFunction,Conductor*%
%TO.N,GND*%
G36*
X15383066Y9007187D02*
G01*
X15408376Y8963350D01*
X15409500Y8950500D01*
X15409500Y-8900500D01*
X15392187Y-8948066D01*
X15348350Y-8973376D01*
X15335500Y-8974500D01*
X-21015500Y-8974500D01*
X-21063066Y-8957187D01*
X-21088376Y-8913350D01*
X-21089500Y-8900500D01*
X-21089500Y-7989455D01*
X-14755175Y-7989455D01*
X-14750182Y-8040374D01*
X-14740920Y-8134838D01*
X-14738745Y-8157025D01*
X-14737441Y-8160946D01*
X-14737440Y-8160949D01*
X-14703723Y-8262304D01*
X-14685598Y-8316791D01*
X-14598376Y-8460812D01*
X-14595504Y-8463786D01*
X-14541218Y-8520000D01*
X-14481414Y-8581929D01*
X-14477955Y-8584193D01*
X-14477952Y-8584195D01*
X-14343990Y-8671858D01*
X-14343987Y-8671860D01*
X-14340525Y-8674125D01*
X-14336645Y-8675568D01*
X-14186589Y-8731373D01*
X-14186587Y-8731373D01*
X-14182711Y-8732815D01*
X-14139781Y-8738543D01*
X-14019920Y-8754536D01*
X-14019916Y-8754536D01*
X-14015817Y-8755083D01*
X-14011696Y-8754708D01*
X-14011692Y-8754708D01*
X-13940113Y-8748193D01*
X-13848136Y-8739823D01*
X-13688003Y-8687793D01*
X-13667495Y-8675568D01*
X-13546930Y-8603696D01*
X-13543377Y-8601578D01*
X-13421446Y-8485465D01*
X-13328269Y-8345223D01*
X-13317469Y-8316791D01*
X-13269948Y-8191692D01*
X-13269947Y-8191686D01*
X-13268479Y-8187823D01*
X-13266283Y-8172200D01*
X-13245368Y-8023389D01*
X-13245368Y-8023383D01*
X-13245045Y-8021088D01*
X-13244907Y-8011205D01*
X-13244783Y-8002329D01*
X-13244783Y-8002322D01*
X-13244751Y-8000000D01*
X-13263519Y-7832676D01*
X-13265067Y-7828231D01*
X-13317532Y-7677572D01*
X-13317534Y-7677568D01*
X-13318892Y-7673668D01*
X-13324814Y-7664190D01*
X-13405923Y-7534388D01*
X-13405925Y-7534386D01*
X-13408116Y-7530879D01*
X-13526758Y-7411406D01*
X-13668921Y-7321187D01*
X-13697049Y-7311171D01*
X-13823636Y-7266095D01*
X-13823640Y-7266094D01*
X-13827538Y-7264706D01*
X-13831646Y-7264216D01*
X-13831651Y-7264215D01*
X-13990618Y-7245259D01*
X-13994727Y-7244769D01*
X-13998837Y-7245201D01*
X-13998838Y-7245201D01*
X-14158070Y-7261937D01*
X-14158071Y-7261937D01*
X-14162179Y-7262369D01*
X-14178987Y-7268091D01*
X-14317658Y-7315298D01*
X-14317662Y-7315300D01*
X-14321569Y-7316630D01*
X-14464978Y-7404856D01*
X-14585276Y-7522661D01*
X-14676485Y-7664190D01*
X-14690468Y-7702608D01*
X-14732657Y-7818517D01*
X-14732658Y-7818522D01*
X-14734073Y-7822409D01*
X-14734592Y-7826514D01*
X-14734592Y-7826516D01*
X-14751270Y-7958545D01*
X-14755175Y-7989455D01*
X-21089500Y-7989455D01*
X-21089500Y-6827122D01*
X-17638500Y-6827122D01*
X-17638105Y-6829805D01*
X-17629196Y-6890327D01*
X-17629195Y-6890330D01*
X-17628358Y-6896016D01*
X-17625825Y-6901176D01*
X-17625824Y-6901178D01*
X-17603316Y-6947021D01*
X-17576932Y-7000759D01*
X-17572603Y-7005080D01*
X-17572602Y-7005082D01*
X-17500610Y-7076948D01*
X-17494350Y-7083197D01*
X-17488853Y-7085884D01*
X-17395066Y-7131728D01*
X-17389518Y-7134440D01*
X-17321218Y-7144404D01*
X-15854782Y-7144404D01*
X-15848637Y-7143499D01*
X-15791577Y-7135100D01*
X-15791574Y-7135099D01*
X-15785888Y-7134262D01*
X-15780728Y-7131729D01*
X-15780726Y-7131728D01*
X-15720133Y-7101978D01*
X-15687520Y-7094404D01*
X-14549055Y-7094404D01*
X-14540358Y-7094917D01*
X-14528712Y-7096295D01*
X-14503594Y-7099268D01*
X-14498152Y-7098274D01*
X-14498149Y-7098274D01*
X-14445104Y-7088586D01*
X-14442811Y-7088204D01*
X-14389408Y-7080175D01*
X-14389407Y-7080175D01*
X-14383942Y-7079353D01*
X-14379106Y-7077030D01*
X-14378768Y-7076948D01*
X-14378504Y-7076857D01*
X-14376267Y-7076131D01*
X-14375958Y-7076036D01*
X-14375608Y-7075892D01*
X-14370331Y-7074929D01*
X-14317562Y-7047518D01*
X-14315491Y-7046483D01*
X-14266812Y-7023108D01*
X-14266811Y-7023107D01*
X-14261825Y-7020713D01*
X-14257881Y-7017067D01*
X-14256973Y-7016525D01*
X-14253862Y-7014429D01*
X-14250116Y-7012483D01*
X-14245076Y-7008179D01*
X-14207106Y-6970209D01*
X-14205011Y-6968195D01*
X-14166411Y-6932514D01*
X-14166410Y-6932513D01*
X-14162348Y-6928758D01*
X-14159569Y-6923974D01*
X-14156872Y-6920607D01*
X-14151446Y-6914549D01*
X-13697576Y-6460680D01*
X-13654910Y-6439639D01*
X-13623267Y-6435474D01*
X-13564043Y-6427677D01*
X-13564040Y-6427676D01*
X-13559238Y-6427044D01*
X-13413159Y-6366536D01*
X-13409314Y-6363586D01*
X-13409311Y-6363584D01*
X-13336602Y-6307792D01*
X-13291554Y-6292500D01*
X-13255255Y-6292500D01*
X-13207689Y-6309813D01*
X-13202929Y-6314174D01*
X-12852174Y-6664929D01*
X-12830782Y-6710805D01*
X-12830500Y-6717255D01*
X-12830500Y-7769748D01*
X-12818867Y-7828231D01*
X-12814816Y-7834293D01*
X-12814816Y-7834294D01*
X-12813151Y-7836786D01*
X-12774552Y-7894552D01*
X-12768491Y-7898602D01*
X-12724654Y-7927893D01*
X-12708231Y-7938867D01*
X-12663705Y-7947724D01*
X-12653318Y-7949790D01*
X-12653317Y-7949790D01*
X-12649748Y-7950500D01*
X-11625452Y-7950500D01*
X-11577886Y-7967813D01*
X-11553973Y-8005348D01*
X-11543752Y-8043495D01*
X-11542385Y-8046426D01*
X-11471958Y-8197461D01*
X-11469768Y-8202158D01*
X-11457136Y-8220198D01*
X-11383914Y-8324771D01*
X-11369355Y-8345564D01*
X-11245566Y-8469354D01*
X-11102161Y-8569768D01*
X-11099239Y-8571131D01*
X-11099233Y-8571134D01*
X-11029403Y-8603696D01*
X-10943499Y-8643754D01*
X-10774399Y-8689064D01*
X-10771178Y-8689346D01*
X-10771177Y-8689346D01*
X-10643206Y-8700542D01*
X-10637379Y-8701286D01*
X-10615178Y-8705021D01*
X-10615176Y-8705021D01*
X-10612354Y-8705496D01*
X-10609492Y-8705531D01*
X-10607001Y-8705561D01*
X-10600000Y-8705647D01*
X-10569276Y-8701247D01*
X-10558785Y-8700500D01*
X-9448228Y-8700500D01*
X-9435950Y-8701526D01*
X-9412354Y-8705496D01*
X-9409491Y-8705531D01*
X-9407817Y-8705551D01*
X-9400000Y-8705647D01*
X-9397174Y-8705242D01*
X-9397169Y-8705242D01*
X-9378294Y-8702539D01*
X-9374255Y-8702074D01*
X-9304377Y-8695960D01*
X-9225600Y-8689068D01*
X-9056500Y-8643757D01*
X-8959933Y-8598727D01*
X-8900765Y-8571137D01*
X-8900759Y-8571134D01*
X-8897837Y-8569771D01*
X-8754432Y-8469357D01*
X-8630642Y-8345566D01*
X-8627690Y-8341351D01*
X-8536702Y-8211404D01*
X-8530229Y-8202160D01*
X-8525347Y-8191692D01*
X-8457611Y-8046427D01*
X-8456244Y-8043496D01*
X-8450856Y-8023389D01*
X-8446021Y-8005347D01*
X-8416987Y-7963882D01*
X-8374543Y-7950500D01*
X-7350252Y-7950500D01*
X-7346683Y-7949790D01*
X-7346682Y-7949790D01*
X-7336295Y-7947724D01*
X-7291769Y-7938867D01*
X-7275345Y-7927893D01*
X-7231509Y-7898602D01*
X-7225448Y-7894552D01*
X-7186849Y-7836786D01*
X-7185184Y-7834294D01*
X-7185184Y-7834293D01*
X-7181133Y-7828231D01*
X-7169500Y-7769748D01*
X-7169500Y-7545545D01*
X-7152187Y-7497979D01*
X-7108350Y-7472669D01*
X-7058500Y-7481459D01*
X-7043174Y-7493219D01*
X-6793174Y-7743219D01*
X-6771782Y-7789095D01*
X-6771500Y-7795545D01*
X-6771499Y-7985352D01*
X-6771499Y-8168518D01*
X-6771044Y-8171390D01*
X-6771044Y-8171392D01*
X-6768935Y-8184706D01*
X-6756646Y-8262304D01*
X-6747397Y-8280456D01*
X-6701696Y-8370150D01*
X-6701694Y-8370152D01*
X-6699050Y-8375342D01*
X-6609342Y-8465050D01*
X-6604152Y-8467694D01*
X-6604150Y-8467696D01*
X-6501498Y-8520000D01*
X-6501495Y-8520001D01*
X-6496304Y-8522646D01*
X-6490552Y-8523557D01*
X-6490549Y-8523558D01*
X-6405398Y-8537044D01*
X-6402519Y-8537500D01*
X-6096000Y-8537500D01*
X-5789482Y-8537499D01*
X-5786610Y-8537044D01*
X-5786608Y-8537044D01*
X-5754910Y-8532024D01*
X-5695696Y-8522646D01*
X-5628318Y-8488315D01*
X-5587850Y-8467696D01*
X-5587848Y-8467694D01*
X-5582658Y-8465050D01*
X-5492950Y-8375342D01*
X-5490306Y-8370152D01*
X-5490304Y-8370150D01*
X-5438000Y-8267498D01*
X-5437999Y-8267495D01*
X-5435354Y-8262304D01*
X-5434443Y-8256552D01*
X-5434442Y-8256549D01*
X-5420955Y-8171392D01*
X-5420500Y-8168519D01*
X-5420501Y-7705482D01*
X-5421817Y-7697169D01*
X-5434443Y-7617450D01*
X-5435354Y-7611696D01*
X-5474601Y-7534669D01*
X-5490304Y-7503850D01*
X-5490306Y-7503848D01*
X-5492950Y-7498658D01*
X-5582658Y-7408950D01*
X-5587848Y-7406306D01*
X-5587850Y-7406304D01*
X-5690502Y-7354000D01*
X-5690505Y-7353999D01*
X-5695696Y-7351354D01*
X-5701448Y-7350443D01*
X-5701451Y-7350442D01*
X-5786608Y-7336955D01*
X-5789481Y-7336500D01*
X-6036455Y-7336500D01*
X-6084021Y-7319187D01*
X-6088781Y-7314826D01*
X-6709091Y-6694516D01*
X-6709095Y-6694513D01*
X-6731658Y-6671950D01*
X-6739267Y-6668073D01*
X-6754902Y-6660106D01*
X-6764802Y-6654039D01*
X-6781196Y-6642128D01*
X-6781201Y-6642126D01*
X-6785910Y-6638704D01*
X-6791448Y-6636905D01*
X-6791449Y-6636904D01*
X-6810722Y-6630642D01*
X-6821450Y-6626198D01*
X-6839503Y-6617000D01*
X-6844696Y-6614354D01*
X-6860456Y-6611858D01*
X-6870463Y-6610273D01*
X-6881754Y-6607562D01*
X-6901026Y-6601300D01*
X-6901029Y-6601300D01*
X-6906567Y-6599500D01*
X-7095500Y-6599500D01*
X-7143066Y-6582187D01*
X-7168376Y-6538350D01*
X-7169500Y-6525500D01*
X-7169500Y-6230252D01*
X-7181133Y-6171769D01*
X-7191522Y-6156220D01*
X-7221398Y-6111509D01*
X-7225448Y-6105448D01*
X-7291769Y-6061133D01*
X-7336295Y-6052276D01*
X-7346682Y-6050210D01*
X-7346683Y-6050210D01*
X-7350252Y-6049500D01*
X-8374542Y-6049500D01*
X-8422108Y-6032187D01*
X-8446020Y-5994653D01*
X-8455406Y-5959626D01*
X-8456244Y-5956498D01*
X-8510761Y-5839589D01*
X-8528865Y-5800765D01*
X-8528866Y-5800764D01*
X-8530231Y-5797836D01*
X-8542083Y-5780909D01*
X-8608190Y-5686501D01*
X-8630645Y-5654432D01*
X-8754434Y-5530643D01*
X-8889277Y-5436226D01*
X-8895194Y-5432083D01*
X-8897839Y-5430231D01*
X-9056502Y-5356246D01*
X-9110743Y-5341712D01*
X-9222481Y-5311772D01*
X-9225601Y-5310936D01*
X-9228822Y-5310654D01*
X-9228823Y-5310654D01*
X-9356794Y-5299458D01*
X-9362621Y-5298714D01*
X-9384822Y-5294979D01*
X-9384824Y-5294979D01*
X-9387646Y-5294504D01*
X-9390508Y-5294469D01*
X-9392999Y-5294439D01*
X-9400000Y-5294353D01*
X-9421849Y-5297482D01*
X-9430724Y-5298753D01*
X-9441215Y-5299500D01*
X-10551772Y-5299500D01*
X-10564049Y-5298474D01*
X-10584823Y-5294979D01*
X-10584822Y-5294979D01*
X-10587646Y-5294504D01*
X-10590509Y-5294469D01*
X-10591629Y-5294455D01*
X-10600000Y-5294353D01*
X-10602832Y-5294759D01*
X-10602838Y-5294759D01*
X-10621852Y-5297482D01*
X-10625889Y-5297947D01*
X-10774398Y-5310940D01*
X-10943497Y-5356249D01*
X-10946417Y-5357611D01*
X-10946418Y-5357611D01*
X-11099237Y-5428871D01*
X-11099241Y-5428873D01*
X-11102159Y-5430234D01*
X-11104804Y-5432086D01*
X-11242913Y-5528790D01*
X-11242916Y-5528793D01*
X-11245563Y-5530646D01*
X-11369352Y-5654435D01*
X-11396715Y-5693513D01*
X-11467910Y-5795188D01*
X-11469766Y-5797838D01*
X-11471129Y-5800760D01*
X-11471132Y-5800766D01*
X-11514796Y-5894404D01*
X-11543752Y-5956500D01*
X-11553975Y-5994653D01*
X-11583008Y-6036117D01*
X-11625453Y-6049500D01*
X-12162745Y-6049500D01*
X-12210311Y-6032187D01*
X-12215071Y-6027826D01*
X-12697423Y-5545474D01*
X-12703210Y-5538961D01*
X-12722703Y-5514234D01*
X-12722705Y-5514232D01*
X-12726128Y-5509890D01*
X-12740592Y-5499893D01*
X-12775056Y-5476074D01*
X-12776948Y-5474722D01*
X-12820366Y-5442652D01*
X-12820370Y-5442650D01*
X-12824816Y-5439366D01*
X-12829882Y-5437588D01*
X-12830185Y-5437403D01*
X-12830445Y-5437276D01*
X-12832506Y-5436226D01*
X-12832811Y-5436064D01*
X-12833155Y-5435920D01*
X-12837569Y-5432869D01*
X-12894268Y-5414937D01*
X-12896471Y-5414202D01*
X-12947408Y-5396315D01*
X-12947409Y-5396315D01*
X-12952631Y-5394481D01*
X-12957994Y-5394271D01*
X-12959013Y-5394013D01*
X-12962703Y-5393294D01*
X-12966730Y-5392020D01*
X-12973337Y-5391500D01*
X-13027039Y-5391500D01*
X-13029945Y-5391443D01*
X-13082470Y-5389379D01*
X-13087994Y-5389162D01*
X-13093336Y-5390578D01*
X-13097636Y-5391053D01*
X-13105754Y-5391500D01*
X-13291554Y-5391500D01*
X-13336602Y-5376208D01*
X-13409311Y-5320416D01*
X-13409314Y-5320414D01*
X-13413159Y-5317464D01*
X-13559238Y-5256956D01*
X-13564040Y-5256324D01*
X-13564043Y-5256323D01*
X-13711192Y-5236951D01*
X-13716000Y-5236318D01*
X-13720808Y-5236951D01*
X-13867957Y-5256323D01*
X-13867960Y-5256324D01*
X-13872762Y-5256956D01*
X-14018841Y-5317464D01*
X-14022685Y-5320414D01*
X-14022689Y-5320416D01*
X-14119212Y-5394481D01*
X-14144282Y-5413718D01*
X-14147237Y-5417569D01*
X-14237584Y-5535311D01*
X-14237586Y-5535315D01*
X-14240536Y-5539159D01*
X-14301044Y-5685238D01*
X-14301676Y-5690040D01*
X-14301677Y-5690043D01*
X-14306412Y-5726014D01*
X-14311745Y-5766525D01*
X-14313639Y-5780909D01*
X-14334680Y-5823576D01*
X-14682833Y-6171730D01*
X-14728709Y-6193122D01*
X-14735159Y-6193404D01*
X-15687458Y-6193404D01*
X-15719955Y-6185887D01*
X-15781322Y-6155890D01*
X-15781323Y-6155890D01*
X-15786482Y-6153368D01*
X-15854782Y-6143404D01*
X-17321218Y-6143404D01*
X-17323901Y-6143799D01*
X-17384423Y-6152708D01*
X-17384426Y-6152709D01*
X-17390112Y-6153546D01*
X-17395272Y-6156079D01*
X-17395274Y-6156080D01*
X-17427149Y-6171730D01*
X-17494855Y-6204972D01*
X-17499176Y-6209301D01*
X-17499178Y-6209302D01*
X-17572972Y-6283225D01*
X-17577293Y-6287554D01*
X-17579980Y-6293051D01*
X-17622704Y-6380456D01*
X-17628536Y-6392386D01*
X-17638500Y-6460686D01*
X-17638500Y-6827122D01*
X-21089500Y-6827122D01*
X-21089500Y-5215310D01*
X-18368364Y-5215310D01*
X-18367370Y-5220752D01*
X-18367370Y-5220755D01*
X-18357682Y-5273800D01*
X-18357300Y-5276093D01*
X-18352104Y-5310654D01*
X-18348449Y-5334962D01*
X-18346126Y-5339798D01*
X-18346044Y-5340136D01*
X-18345953Y-5340400D01*
X-18345227Y-5342637D01*
X-18345132Y-5342946D01*
X-18344988Y-5343296D01*
X-18344025Y-5348573D01*
X-18320233Y-5394374D01*
X-18316618Y-5401334D01*
X-18315583Y-5403405D01*
X-18289809Y-5457079D01*
X-18286163Y-5461023D01*
X-18285621Y-5461931D01*
X-18283525Y-5465042D01*
X-18281579Y-5468788D01*
X-18277275Y-5473828D01*
X-18239305Y-5511798D01*
X-18237291Y-5513893D01*
X-18197854Y-5556556D01*
X-18193072Y-5559334D01*
X-18189705Y-5562031D01*
X-18183646Y-5567457D01*
X-18060673Y-5690430D01*
X-18054886Y-5696943D01*
X-18036544Y-5720209D01*
X-18031968Y-5726014D01*
X-18027419Y-5729158D01*
X-18027418Y-5729159D01*
X-17983040Y-5759830D01*
X-17981148Y-5761182D01*
X-17937730Y-5793252D01*
X-17937726Y-5793254D01*
X-17933280Y-5796538D01*
X-17928214Y-5798316D01*
X-17927911Y-5798501D01*
X-17927651Y-5798628D01*
X-17925590Y-5799678D01*
X-17925285Y-5799840D01*
X-17924941Y-5799984D01*
X-17920527Y-5803035D01*
X-17881379Y-5815416D01*
X-17863828Y-5820967D01*
X-17861625Y-5821702D01*
X-17814145Y-5838375D01*
X-17805465Y-5841423D01*
X-17800102Y-5841633D01*
X-17799083Y-5841891D01*
X-17795393Y-5842610D01*
X-17791366Y-5843884D01*
X-17784759Y-5844404D01*
X-17731057Y-5844404D01*
X-17728151Y-5844461D01*
X-17675630Y-5846525D01*
X-17675629Y-5846525D01*
X-17670102Y-5846742D01*
X-17664755Y-5845324D01*
X-17660470Y-5844851D01*
X-17652349Y-5844404D01*
X-17488542Y-5844404D01*
X-17456045Y-5851921D01*
X-17394678Y-5881918D01*
X-17394677Y-5881918D01*
X-17389518Y-5884440D01*
X-17321218Y-5894404D01*
X-15854782Y-5894404D01*
X-15848637Y-5893499D01*
X-15791577Y-5885100D01*
X-15791574Y-5885099D01*
X-15785888Y-5884262D01*
X-15780728Y-5881729D01*
X-15780726Y-5881728D01*
X-15720133Y-5851978D01*
X-15687520Y-5844404D01*
X-15331055Y-5844404D01*
X-15322358Y-5844917D01*
X-15310712Y-5846295D01*
X-15285594Y-5849268D01*
X-15280152Y-5848274D01*
X-15280149Y-5848274D01*
X-15227104Y-5838586D01*
X-15224811Y-5838204D01*
X-15171408Y-5830175D01*
X-15171407Y-5830175D01*
X-15165942Y-5829353D01*
X-15161106Y-5827030D01*
X-15160768Y-5826948D01*
X-15160504Y-5826857D01*
X-15158267Y-5826131D01*
X-15157958Y-5826036D01*
X-15157608Y-5825892D01*
X-15152331Y-5824929D01*
X-15099562Y-5797518D01*
X-15097491Y-5796483D01*
X-15048812Y-5773108D01*
X-15048811Y-5773107D01*
X-15043825Y-5770713D01*
X-15039881Y-5767067D01*
X-15038973Y-5766525D01*
X-15035862Y-5764429D01*
X-15032116Y-5762483D01*
X-15027076Y-5758179D01*
X-14989106Y-5720209D01*
X-14987011Y-5718195D01*
X-14948411Y-5682514D01*
X-14948410Y-5682513D01*
X-14944348Y-5678758D01*
X-14941570Y-5673975D01*
X-14938871Y-5670606D01*
X-14933445Y-5664548D01*
X-13894681Y-4625785D01*
X-10477500Y-4625785D01*
X-10462206Y-4737432D01*
X-10402305Y-4875855D01*
X-10380025Y-4903368D01*
X-10313310Y-4985754D01*
X-10307386Y-4993070D01*
X-10303274Y-4995992D01*
X-10188553Y-5077521D01*
X-10188550Y-5077523D01*
X-10184442Y-5080442D01*
X-10042532Y-5131533D01*
X-10037503Y-5131902D01*
X-10037500Y-5131903D01*
X-9961117Y-5137512D01*
X-9892109Y-5142580D01*
X-9887165Y-5141583D01*
X-9887163Y-5141583D01*
X-9749200Y-5113764D01*
X-9749198Y-5113763D01*
X-9744257Y-5112767D01*
X-9609868Y-5044293D01*
X-9557341Y-4995992D01*
X-9502559Y-4945618D01*
X-9502556Y-4945614D01*
X-9498844Y-4942201D01*
X-9496187Y-4937915D01*
X-9496184Y-4937912D01*
X-9429930Y-4831054D01*
X-9419365Y-4814014D01*
X-9377285Y-4669175D01*
X-9376744Y-4661806D01*
X-9376599Y-4659840D01*
X-9376599Y-4659826D01*
X-9376500Y-4658485D01*
X-9376500Y-2650215D01*
X-9384445Y-2592217D01*
X-9373749Y-2542743D01*
X-9363456Y-2529849D01*
X-9314805Y-2481198D01*
X-9268929Y-2459806D01*
X-9220034Y-2472907D01*
X-9191000Y-2514371D01*
X-9191417Y-2554170D01*
X-9203335Y-2595192D01*
X-9206715Y-2606825D01*
X-9206999Y-2610694D01*
X-9207401Y-2616160D01*
X-9207401Y-2616174D01*
X-9207500Y-2617515D01*
X-9207500Y-4625785D01*
X-9192206Y-4737432D01*
X-9132305Y-4875855D01*
X-9110025Y-4903368D01*
X-9043310Y-4985754D01*
X-9037386Y-4993070D01*
X-9033274Y-4995992D01*
X-8918553Y-5077521D01*
X-8918550Y-5077523D01*
X-8914442Y-5080442D01*
X-8772532Y-5131533D01*
X-8767503Y-5131902D01*
X-8767500Y-5131903D01*
X-8691117Y-5137512D01*
X-8622109Y-5142580D01*
X-8617165Y-5141583D01*
X-8617163Y-5141583D01*
X-8479200Y-5113764D01*
X-8479198Y-5113763D01*
X-8474257Y-5112767D01*
X-8339868Y-5044293D01*
X-8287341Y-4995992D01*
X-8232559Y-4945618D01*
X-8232556Y-4945614D01*
X-8228844Y-4942201D01*
X-8226187Y-4937915D01*
X-8226184Y-4937912D01*
X-8159930Y-4831054D01*
X-8149365Y-4814014D01*
X-8107285Y-4669175D01*
X-8106744Y-4661806D01*
X-8106599Y-4659840D01*
X-8106599Y-4659826D01*
X-8106500Y-4658485D01*
X-8106500Y-2650215D01*
X-8121794Y-2538568D01*
X-8181695Y-2400145D01*
X-8238357Y-2330173D01*
X-8254837Y-2282311D01*
X-8236696Y-2235055D01*
X-8225896Y-2224895D01*
X-8109969Y-2135941D01*
X-8106118Y-2132986D01*
X-8101220Y-2126603D01*
X-8012816Y-2011393D01*
X-8012814Y-2011389D01*
X-8009864Y-2007545D01*
X-7949356Y-1861466D01*
X-7928718Y-1704704D01*
X-7933724Y-1666682D01*
X-7948723Y-1552747D01*
X-7948724Y-1552744D01*
X-7949356Y-1547942D01*
X-8009864Y-1401863D01*
X-8012814Y-1398019D01*
X-8012816Y-1398015D01*
X-8103163Y-1280273D01*
X-8106118Y-1276422D01*
X-8109969Y-1273467D01*
X-8227711Y-1183120D01*
X-8227715Y-1183118D01*
X-8231559Y-1180168D01*
X-8377638Y-1119660D01*
X-8382440Y-1119028D01*
X-8382443Y-1119027D01*
X-8529592Y-1099655D01*
X-8534400Y-1099022D01*
X-8539208Y-1099655D01*
X-8686357Y-1119027D01*
X-8686360Y-1119028D01*
X-8691162Y-1119660D01*
X-8837241Y-1180168D01*
X-8841085Y-1183118D01*
X-8841089Y-1183120D01*
X-8931562Y-1252543D01*
X-8962682Y-1276422D01*
X-8965634Y-1280270D01*
X-8967897Y-1282532D01*
X-9013774Y-1303923D01*
X-9020221Y-1304204D01*
X-9168137Y-1304204D01*
X-9173675Y-1306004D01*
X-9173678Y-1306004D01*
X-9192950Y-1312266D01*
X-9204241Y-1314977D01*
X-9214248Y-1316562D01*
X-9230008Y-1319058D01*
X-9235201Y-1321704D01*
X-9253254Y-1330902D01*
X-9263983Y-1335346D01*
X-9288794Y-1343408D01*
X-9305723Y-1355708D01*
X-9309901Y-1358743D01*
X-9319798Y-1364809D01*
X-9343046Y-1376654D01*
X-9365613Y-1399221D01*
X-10141993Y-2175600D01*
X-10160724Y-2189209D01*
X-10244132Y-2231707D01*
X-10275771Y-2260801D01*
X-10351441Y-2330382D01*
X-10351444Y-2330386D01*
X-10355156Y-2333799D01*
X-10357813Y-2338085D01*
X-10357816Y-2338088D01*
X-10393862Y-2396226D01*
X-10434635Y-2461986D01*
X-10449854Y-2514371D01*
X-10473335Y-2595192D01*
X-10476715Y-2606825D01*
X-10476999Y-2610694D01*
X-10477401Y-2616160D01*
X-10477401Y-2616174D01*
X-10477500Y-2617515D01*
X-10477500Y-4625785D01*
X-13894681Y-4625785D01*
X-13419469Y-4150573D01*
X-13412956Y-4144786D01*
X-13411807Y-4143880D01*
X-13383890Y-4121872D01*
X-13380745Y-4117322D01*
X-13350087Y-4072964D01*
X-13348736Y-4071074D01*
X-13316651Y-4027633D01*
X-13316649Y-4027629D01*
X-13313365Y-4023183D01*
X-13311587Y-4018119D01*
X-13311403Y-4017817D01*
X-13311283Y-4017571D01*
X-13310227Y-4015500D01*
X-13310068Y-4015200D01*
X-13309919Y-4014843D01*
X-13306869Y-4010431D01*
X-13305202Y-4005160D01*
X-13305198Y-4005152D01*
X-13288935Y-3953729D01*
X-13288200Y-3951524D01*
X-13270313Y-3900588D01*
X-13268480Y-3895369D01*
X-13268269Y-3890001D01*
X-13268010Y-3888975D01*
X-13267293Y-3885298D01*
X-13266020Y-3881270D01*
X-13265500Y-3874663D01*
X-13265500Y-3820986D01*
X-13265443Y-3818080D01*
X-13263378Y-3765534D01*
X-13263378Y-3765533D01*
X-13263161Y-3760006D01*
X-13264579Y-3754659D01*
X-13265053Y-3750365D01*
X-13265500Y-3742244D01*
X-13265500Y-3519255D01*
X-13248187Y-3471689D01*
X-13243826Y-3466929D01*
X-9630474Y146423D01*
X-9623961Y152210D01*
X-9599234Y171703D01*
X-9599232Y171705D01*
X-9594890Y175128D01*
X-9574223Y205030D01*
X-9561074Y224056D01*
X-9559722Y225948D01*
X-9527652Y269366D01*
X-9527650Y269370D01*
X-9524366Y273816D01*
X-9522588Y278882D01*
X-9522403Y279185D01*
X-9522276Y279445D01*
X-9521226Y281506D01*
X-9521064Y281811D01*
X-9520920Y282155D01*
X-9517869Y286569D01*
X-9499937Y343268D01*
X-9499202Y345471D01*
X-9481315Y396408D01*
X-9481315Y396409D01*
X-9479481Y401631D01*
X-9479271Y406994D01*
X-9479013Y408013D01*
X-9478294Y411703D01*
X-9477020Y415730D01*
X-9476500Y422337D01*
X-9476500Y476039D01*
X-9476443Y478945D01*
X-9474379Y531466D01*
X-9474379Y531467D01*
X-9474162Y536994D01*
X-9475580Y542341D01*
X-9476053Y546626D01*
X-9476500Y554747D01*
X-9476500Y3872757D01*
X-9465392Y3911752D01*
X-9454838Y3928774D01*
X-9419365Y3985986D01*
X-9377285Y4130825D01*
X-9376869Y4136494D01*
X-9376599Y4140160D01*
X-9376599Y4140174D01*
X-9376500Y4141515D01*
X-9376500Y6028455D01*
X-9359187Y6076021D01*
X-9354826Y6080781D01*
X-9268826Y6166781D01*
X-9222950Y6188173D01*
X-9174055Y6175072D01*
X-9145021Y6133608D01*
X-9142500Y6114455D01*
X-9142500Y4174215D01*
X-9127206Y4062568D01*
X-9067305Y3924145D01*
X-9024564Y3871364D01*
X-8978954Y3815041D01*
X-8972386Y3806930D01*
X-8955289Y3794780D01*
X-8853553Y3722479D01*
X-8853550Y3722477D01*
X-8849442Y3719558D01*
X-8844698Y3717850D01*
X-8731978Y3677268D01*
X-8707532Y3668467D01*
X-8702503Y3668098D01*
X-8702500Y3668097D01*
X-8626117Y3662488D01*
X-8557109Y3657420D01*
X-8552165Y3658417D01*
X-8552163Y3658417D01*
X-8414200Y3686236D01*
X-8414198Y3686237D01*
X-8409257Y3687233D01*
X-8274868Y3755707D01*
X-8220649Y3805564D01*
X-8167559Y3854382D01*
X-8167556Y3854386D01*
X-8163844Y3857799D01*
X-8161187Y3862085D01*
X-8161184Y3862088D01*
X-8087024Y3981698D01*
X-8084365Y3985986D01*
X-8062884Y4059922D01*
X-8032987Y4100769D01*
X-7983829Y4112843D01*
X-7938411Y4090494D01*
X-7922428Y4062472D01*
X-7922206Y4062568D01*
X-7862305Y3924145D01*
X-7853990Y3913877D01*
X-7837500Y3867309D01*
X-7837500Y2937078D01*
X-7852792Y2892030D01*
X-7887584Y2846689D01*
X-7887586Y2846685D01*
X-7890536Y2842841D01*
X-7951044Y2696762D01*
X-7951676Y2691960D01*
X-7951677Y2691957D01*
X-7959439Y2632997D01*
X-7971682Y2540000D01*
X-7971049Y2535192D01*
X-7952627Y2395263D01*
X-7951044Y2383238D01*
X-7890536Y2237159D01*
X-7887586Y2233315D01*
X-7887584Y2233311D01*
X-7842385Y2174407D01*
X-7794282Y2111718D01*
X-7790431Y2108763D01*
X-7672689Y2018416D01*
X-7672685Y2018414D01*
X-7668841Y2015464D01*
X-7522762Y1954956D01*
X-7517960Y1954324D01*
X-7517957Y1954323D01*
X-7370808Y1934951D01*
X-7366000Y1934318D01*
X-7361192Y1934951D01*
X-7214043Y1954323D01*
X-7214040Y1954324D01*
X-7209238Y1954956D01*
X-7063159Y2015464D01*
X-7059315Y2018414D01*
X-7059311Y2018416D01*
X-6941569Y2108763D01*
X-6937718Y2111718D01*
X-6889615Y2174407D01*
X-6844416Y2233311D01*
X-6844414Y2233315D01*
X-6841464Y2237159D01*
X-6780956Y2383238D01*
X-6779372Y2395263D01*
X-6760951Y2535192D01*
X-6760318Y2540000D01*
X-6772561Y2632997D01*
X-6780323Y2691957D01*
X-6780324Y2691960D01*
X-6780956Y2696762D01*
X-6825042Y2803196D01*
X4378662Y2803196D01*
X4380281Y2796648D01*
X4383911Y2794000D01*
X5447952Y2794000D01*
X5457948Y2797638D01*
X5461000Y2802925D01*
X5461000Y2807048D01*
X5969000Y2807048D01*
X5972638Y2797052D01*
X5977925Y2794000D01*
X7038411Y2794000D01*
X7048407Y2797638D01*
X7049621Y2799742D01*
X7049555Y2801578D01*
X7005694Y2976197D01*
X7003748Y2981913D01*
X6917120Y3181144D01*
X6914266Y3186468D01*
X6796265Y3368869D01*
X6792575Y3373661D01*
X6646370Y3534337D01*
X6641945Y3538464D01*
X6471460Y3673104D01*
X6466425Y3676449D01*
X6276245Y3781435D01*
X6270717Y3783919D01*
X6065954Y3856430D01*
X6060087Y3857980D01*
X5981847Y3871917D01*
X5971368Y3870088D01*
X5969000Y3867276D01*
X5969000Y2807048D01*
X5461000Y2807048D01*
X5461000Y3861965D01*
X5457362Y3871961D01*
X5453945Y3873933D01*
X5402217Y3866017D01*
X5396316Y3864612D01*
X5189834Y3797124D01*
X5184260Y3794780D01*
X4991563Y3694469D01*
X4986451Y3691250D01*
X4812728Y3560814D01*
X4808199Y3556793D01*
X4658115Y3399740D01*
X4654308Y3395038D01*
X4531895Y3215587D01*
X4528896Y3210309D01*
X4437440Y3013283D01*
X4435347Y3007594D01*
X4378662Y2803196D01*
X-6825042Y2803196D01*
X-6841464Y2842841D01*
X-6844414Y2846686D01*
X-6844416Y2846689D01*
X-6921208Y2946766D01*
X-6936500Y2991814D01*
X-6936500Y3872757D01*
X-6925392Y3911752D01*
X-6914838Y3928774D01*
X-6879365Y3985986D01*
X-6837285Y4130825D01*
X-6836869Y4136494D01*
X-6836599Y4140160D01*
X-6836599Y4140174D01*
X-6836500Y4141515D01*
X-6836500Y4637500D01*
X-6819187Y4685066D01*
X-6775350Y4710376D01*
X-6762500Y4711500D01*
X-6728359Y4711500D01*
X-6680793Y4694187D01*
X-6676033Y4689826D01*
X-5839973Y3853765D01*
X-5834186Y3847252D01*
X-5811272Y3818186D01*
X-5806723Y3815042D01*
X-5806722Y3815041D01*
X-5762364Y3784383D01*
X-5760474Y3783032D01*
X-5717033Y3750947D01*
X-5717029Y3750945D01*
X-5712583Y3747661D01*
X-5707519Y3745883D01*
X-5707217Y3745699D01*
X-5706971Y3745579D01*
X-5704900Y3744523D01*
X-5704600Y3744364D01*
X-5704243Y3744215D01*
X-5699831Y3741165D01*
X-5694560Y3739498D01*
X-5694552Y3739494D01*
X-5643129Y3723231D01*
X-5640924Y3722496D01*
X-5613658Y3712921D01*
X-5584769Y3702776D01*
X-5579401Y3702565D01*
X-5578375Y3702306D01*
X-5574698Y3701589D01*
X-5570670Y3700316D01*
X-5564063Y3699796D01*
X-5510386Y3699796D01*
X-5507480Y3699739D01*
X-5454934Y3697674D01*
X-5454933Y3697674D01*
X-5449406Y3697457D01*
X-5444059Y3698875D01*
X-5439765Y3699349D01*
X-5431644Y3699796D01*
X-4998647Y3699796D01*
X-4951081Y3682483D01*
X-4942593Y3673382D01*
X-4941928Y3672076D01*
X-4846620Y3576768D01*
X-4841430Y3574124D01*
X-4841428Y3574122D01*
X-4731720Y3518223D01*
X-4731717Y3518222D01*
X-4726526Y3515577D01*
X-4720774Y3514666D01*
X-4720771Y3514665D01*
X-4629761Y3500251D01*
X-4626888Y3499796D01*
X-4059912Y3499796D01*
X-4057039Y3500251D01*
X-3966029Y3514665D01*
X-3966026Y3514666D01*
X-3960274Y3515577D01*
X-3955083Y3518222D01*
X-3955080Y3518223D01*
X-3845372Y3574122D01*
X-3845370Y3574124D01*
X-3840180Y3576768D01*
X-3744872Y3672076D01*
X-3742228Y3677266D01*
X-3742226Y3677268D01*
X-3686327Y3786976D01*
X-3686326Y3786979D01*
X-3683681Y3792170D01*
X-3682770Y3797922D01*
X-3682769Y3797925D01*
X-3668355Y3888935D01*
X-3667900Y3891808D01*
X-3667900Y4119641D01*
X-3650587Y4167207D01*
X-3646226Y4171967D01*
X-2615270Y5202922D01*
X-2569393Y5224314D01*
X-2562944Y5224596D01*
X-1858782Y5224596D01*
X-1852637Y5225501D01*
X-1795577Y5233900D01*
X-1795574Y5233901D01*
X-1789888Y5234738D01*
X-1784728Y5237271D01*
X-1784726Y5237272D01*
X-1724133Y5267022D01*
X-1691520Y5274596D01*
X-234255Y5274596D01*
X-186689Y5257283D01*
X-181929Y5252922D01*
X242423Y4828570D01*
X248210Y4822057D01*
X271128Y4792986D01*
X320094Y4759143D01*
X321913Y4757843D01*
X369817Y4722462D01*
X374881Y4720684D01*
X375191Y4720495D01*
X375459Y4720364D01*
X377504Y4719321D01*
X377797Y4719166D01*
X378154Y4719017D01*
X382569Y4715965D01*
X387842Y4714297D01*
X387849Y4714294D01*
X439300Y4698022D01*
X441505Y4697287D01*
X487311Y4681201D01*
X497631Y4677577D01*
X502994Y4677367D01*
X504013Y4677109D01*
X507703Y4676390D01*
X511730Y4675116D01*
X518337Y4674596D01*
X572039Y4674596D01*
X574945Y4674539D01*
X627470Y4672475D01*
X632994Y4672258D01*
X638336Y4673674D01*
X642636Y4674149D01*
X650754Y4674596D01*
X1057599Y4674596D01*
X1105165Y4657283D01*
X1110399Y4652383D01*
X1111657Y4650868D01*
X1113608Y4649102D01*
X1113609Y4649101D01*
X1156494Y4610283D01*
X1217841Y4554754D01*
X1265895Y4522341D01*
X1394787Y4459894D01*
X1450004Y4442272D01*
X1492404Y4435139D01*
X1589832Y4418747D01*
X1589838Y4418746D01*
X1591242Y4418510D01*
X1622657Y4415692D01*
X1624099Y4415674D01*
X1624106Y4415674D01*
X1628725Y4415618D01*
X1634999Y4415541D01*
X1636423Y4415634D01*
X1636434Y4415634D01*
X1650381Y4416543D01*
X1666481Y4417591D01*
X1682751Y4419921D01*
X1693241Y4420668D01*
X2072236Y4420668D01*
X2084503Y4419644D01*
X2091242Y4418510D01*
X2122657Y4415692D01*
X2124099Y4415674D01*
X2124106Y4415674D01*
X2128725Y4415618D01*
X2134999Y4415541D01*
X2136423Y4415634D01*
X2136434Y4415634D01*
X2160923Y4417229D01*
X2166481Y4417591D01*
X2219424Y4425173D01*
X2305656Y4437522D01*
X2305661Y4437523D01*
X2308258Y4437895D01*
X2363890Y4454163D01*
X2371892Y4457801D01*
X2435728Y4486826D01*
X2494269Y4513443D01*
X2543098Y4544670D01*
X2610290Y4602566D01*
X2649608Y4636444D01*
X2649611Y4636447D01*
X2651599Y4638160D01*
X2689702Y4681838D01*
X2767602Y4802023D01*
X2791914Y4854641D01*
X2796146Y4868790D01*
X2832196Y4989337D01*
X2832197Y4989340D01*
X2832950Y4991859D01*
X2841517Y5049182D01*
X2842392Y5192403D01*
X2842067Y5194775D01*
X2841928Y5199064D01*
X2841928Y5675096D01*
X2840315Y5683208D01*
X2834647Y5711699D01*
X2826367Y5753327D01*
X2822316Y5759390D01*
X2819528Y5766120D01*
X2820720Y5766614D01*
X2810556Y5808154D01*
X2819929Y5833906D01*
X2819528Y5834072D01*
X2822316Y5840802D01*
X2826367Y5846865D01*
X2836201Y5896304D01*
X2837290Y5901778D01*
X2837290Y5901779D01*
X2838000Y5905348D01*
X2838000Y5908083D01*
X2859781Y5953490D01*
X2905888Y5974380D01*
X2911532Y5974596D01*
X3528349Y5974596D01*
X3537046Y5974083D01*
X3548692Y5972705D01*
X3573810Y5969732D01*
X3579258Y5970727D01*
X3579260Y5970727D01*
X3584208Y5971630D01*
X3634111Y5963143D01*
X3666882Y5924565D01*
X3671500Y5898834D01*
X3671500Y5296262D01*
X3671663Y5294541D01*
X3671663Y5294534D01*
X3672978Y5280625D01*
X3674481Y5264727D01*
X3719366Y5136912D01*
X3722650Y5132466D01*
X3722651Y5132464D01*
X3762937Y5077922D01*
X3799850Y5027946D01*
X3804299Y5024660D01*
X3874134Y4973079D01*
X3908816Y4947462D01*
X4036631Y4902577D01*
X4041114Y4902153D01*
X4041115Y4902153D01*
X4066438Y4899759D01*
X4066445Y4899759D01*
X4068166Y4899596D01*
X5075834Y4899596D01*
X5077555Y4899759D01*
X5077562Y4899759D01*
X5102885Y4902153D01*
X5102886Y4902153D01*
X5107369Y4902577D01*
X5235184Y4947462D01*
X5269867Y4973079D01*
X5339701Y5024660D01*
X5344150Y5027946D01*
X5421051Y5132061D01*
X5463237Y5160036D01*
X5480575Y5162096D01*
X6297418Y5162096D01*
X6331010Y5154032D01*
X6406874Y5115377D01*
X6412626Y5114466D01*
X6412629Y5114465D01*
X6503639Y5100051D01*
X6506512Y5099596D01*
X6772745Y5099596D01*
X6820311Y5082283D01*
X6825071Y5077922D01*
X7269315Y4633677D01*
X7290707Y4587800D01*
X7290989Y4581351D01*
X7290989Y2243744D01*
X7273676Y2196178D01*
X7269315Y2191418D01*
X7132440Y2054543D01*
X7086564Y2033151D01*
X7037669Y2046252D01*
X7008635Y2087716D01*
X7009310Y2128381D01*
X7045996Y2249127D01*
X7047277Y2255052D01*
X7049648Y2273063D01*
X7047346Y2283449D01*
X7044021Y2286000D01*
X4393158Y2286000D01*
X4383162Y2282362D01*
X4381703Y2279834D01*
X4381727Y2278827D01*
X4414033Y2135477D01*
X4415845Y2129695D01*
X4497569Y1928429D01*
X4500304Y1923016D01*
X4613802Y1737803D01*
X4617383Y1732910D01*
X4759614Y1568715D01*
X4763934Y1564484D01*
X4931079Y1425718D01*
X4936038Y1422245D01*
X5123591Y1312648D01*
X5129056Y1310030D01*
X5331987Y1232538D01*
X5337819Y1230844D01*
X5550680Y1187537D01*
X5553619Y1187187D01*
X5598801Y1164364D01*
X5618742Y1117838D01*
X5604111Y1069380D01*
X5561755Y1041663D01*
X5551564Y1040013D01*
X5517203Y1036886D01*
X5468247Y1022478D01*
X5323043Y979742D01*
X5323039Y979740D01*
X5319572Y978720D01*
X5272010Y953855D01*
X5140209Y884951D01*
X5140206Y884949D01*
X5137002Y883274D01*
X5134184Y881008D01*
X5134182Y881007D01*
X4979266Y756452D01*
X4979263Y756449D01*
X4976447Y754185D01*
X4974121Y751413D01*
X4974119Y751411D01*
X4846351Y599144D01*
X4846348Y599140D01*
X4844024Y596370D01*
X4744776Y415838D01*
X4738490Y396023D01*
X4684540Y225948D01*
X4682484Y219468D01*
X4682081Y215877D01*
X4682081Y215876D01*
X4680461Y201430D01*
X4659520Y14738D01*
X4659823Y11129D01*
X4659823Y11127D01*
X4672710Y-142340D01*
X4676759Y-190553D01*
X4733544Y-388586D01*
X4735196Y-391800D01*
X4735197Y-391803D01*
X4801825Y-521448D01*
X4827712Y-571818D01*
X4955677Y-733270D01*
X4958430Y-735613D01*
X4958433Y-735616D01*
X4989062Y-761683D01*
X5112564Y-866791D01*
X5159266Y-892892D01*
X5289239Y-965532D01*
X5289243Y-965534D01*
X5292398Y-967297D01*
X5295834Y-968414D01*
X5295840Y-968416D01*
X5406007Y-1004211D01*
X5488329Y-1030959D01*
X5552176Y-1038572D01*
X5689294Y-1054922D01*
X5689297Y-1054922D01*
X5692894Y-1055351D01*
X5761714Y-1050056D01*
X5894689Y-1039824D01*
X5894691Y-1039824D01*
X5898300Y-1039546D01*
X6096725Y-984145D01*
X6127863Y-968416D01*
X6277376Y-892892D01*
X6277379Y-892890D01*
X6280610Y-891258D01*
X6442951Y-764424D01*
X6541812Y-649892D01*
X6575201Y-611210D01*
X6575203Y-611208D01*
X6577564Y-608472D01*
X6579347Y-605333D01*
X6579350Y-605329D01*
X6652175Y-477133D01*
X6679323Y-429344D01*
X6691812Y-391803D01*
X6743208Y-237299D01*
X6744351Y-233863D01*
X6749823Y-190553D01*
X6769913Y-31519D01*
X6769913Y-31513D01*
X6770171Y-29474D01*
X6770583Y0D01*
X6750480Y205030D01*
X6727654Y280632D01*
X6718443Y311142D01*
X6721269Y361682D01*
X6736959Y384856D01*
X8038015Y1685912D01*
X8044528Y1691699D01*
X8069255Y1711192D01*
X8069257Y1711194D01*
X8073599Y1714617D01*
X8107415Y1763545D01*
X8108767Y1765437D01*
X8140837Y1808855D01*
X8140839Y1808859D01*
X8144123Y1813305D01*
X8145901Y1818371D01*
X8146086Y1818674D01*
X8146213Y1818934D01*
X8147263Y1820995D01*
X8147425Y1821300D01*
X8147569Y1821644D01*
X8150620Y1826058D01*
X8168552Y1882757D01*
X8169287Y1884960D01*
X8187174Y1935897D01*
X8187174Y1935898D01*
X8189008Y1941120D01*
X8189218Y1946483D01*
X8189476Y1947502D01*
X8190195Y1951192D01*
X8191469Y1955219D01*
X8191989Y1961826D01*
X8191989Y2015528D01*
X8192046Y2018434D01*
X8194110Y2070955D01*
X8194110Y2070956D01*
X8194327Y2076483D01*
X8192909Y2081830D01*
X8192436Y2086115D01*
X8191989Y2094236D01*
X8191989Y4767456D01*
X8192502Y4776153D01*
X8196203Y4807426D01*
X8196853Y4812917D01*
X8195148Y4822252D01*
X8186170Y4871416D01*
X8185789Y4873707D01*
X8180010Y4912140D01*
X8190057Y4961751D01*
X8229644Y4993298D01*
X8280246Y4992018D01*
X8297152Y4982667D01*
X8313280Y4970755D01*
X8344816Y4947462D01*
X8472631Y4902577D01*
X8477115Y4902153D01*
X8481527Y4901185D01*
X8481071Y4899108D01*
X8519773Y4880746D01*
X8540860Y4834728D01*
X8541100Y4828770D01*
X8541100Y953855D01*
X8523787Y906289D01*
X8519426Y901529D01*
X6150071Y-1467826D01*
X6104195Y-1489218D01*
X6097745Y-1489500D01*
X4845252Y-1489500D01*
X4841683Y-1490210D01*
X4841682Y-1490210D01*
X4831295Y-1492276D01*
X4786769Y-1501133D01*
X4780707Y-1505184D01*
X4780706Y-1505184D01*
X4726509Y-1541398D01*
X4720448Y-1545448D01*
X4676133Y-1611769D01*
X4664500Y-1670252D01*
X4664500Y-3409748D01*
X4676133Y-3468231D01*
X4720448Y-3534552D01*
X4786769Y-3578867D01*
X4831295Y-3587724D01*
X4841682Y-3589790D01*
X4841683Y-3589790D01*
X4845252Y-3590500D01*
X6038551Y-3590500D01*
X6086117Y-3607813D01*
X6090877Y-3612174D01*
X6689826Y-4211122D01*
X6711218Y-4256998D01*
X6711500Y-4263448D01*
X6711500Y-5311404D01*
X6694187Y-5358970D01*
X6650350Y-5384280D01*
X6637500Y-5385404D01*
X6242252Y-5385404D01*
X6238683Y-5386114D01*
X6238682Y-5386114D01*
X6228295Y-5388180D01*
X6183769Y-5397037D01*
X6177707Y-5401088D01*
X6177706Y-5401088D01*
X6123548Y-5437276D01*
X6117448Y-5441352D01*
X6113398Y-5447413D01*
X6078332Y-5499893D01*
X6073133Y-5507673D01*
X6066870Y-5539159D01*
X6062321Y-5562031D01*
X6061500Y-5566156D01*
X6061500Y-6116455D01*
X6044187Y-6164021D01*
X6000350Y-6189331D01*
X5950500Y-6180541D01*
X5935174Y-6168781D01*
X5756174Y-5989781D01*
X5734782Y-5943905D01*
X5734500Y-5937455D01*
X5734500Y-5270567D01*
X5732700Y-5265026D01*
X5726438Y-5245754D01*
X5723727Y-5234463D01*
X5720557Y-5214449D01*
X5719646Y-5208696D01*
X5716896Y-5203299D01*
X5707802Y-5185450D01*
X5703358Y-5174722D01*
X5697096Y-5155449D01*
X5697095Y-5155448D01*
X5695296Y-5149910D01*
X5691874Y-5145201D01*
X5691872Y-5145196D01*
X5679961Y-5128802D01*
X5673894Y-5118902D01*
X5664694Y-5100847D01*
X5664694Y-5100846D01*
X5662050Y-5095658D01*
X5639487Y-5073095D01*
X5639484Y-5073091D01*
X4785013Y-4218620D01*
X4785009Y-4218617D01*
X4762446Y-4196054D01*
X4757257Y-4193410D01*
X4739202Y-4184210D01*
X4729302Y-4178143D01*
X4712908Y-4166232D01*
X4712903Y-4166230D01*
X4708194Y-4162808D01*
X4702656Y-4161009D01*
X4702655Y-4161008D01*
X4683382Y-4154746D01*
X4672654Y-4150302D01*
X4654601Y-4141104D01*
X4649408Y-4138458D01*
X4633648Y-4135962D01*
X4623641Y-4134377D01*
X4612350Y-4131666D01*
X4593078Y-4125404D01*
X4593075Y-4125404D01*
X4587537Y-4123604D01*
X-2332623Y-4123604D01*
X-2332627Y-4123605D01*
X-2364537Y-4123605D01*
X-2370076Y-4125405D01*
X-2370078Y-4125405D01*
X-2379710Y-4128535D01*
X-2389347Y-4131666D01*
X-2400631Y-4134375D01*
X-2426408Y-4138458D01*
X-2431601Y-4141104D01*
X-2449656Y-4150303D01*
X-2460384Y-4154747D01*
X-2485194Y-4162808D01*
X-2502123Y-4175108D01*
X-2506301Y-4178143D01*
X-2516198Y-4184209D01*
X-2539446Y-4196054D01*
X-2562013Y-4218621D01*
X-4008219Y-5664826D01*
X-4054095Y-5686218D01*
X-4060544Y-5686500D01*
X-4109649Y-5686500D01*
X-4158758Y-5686501D01*
X-4206324Y-5669189D01*
X-4211084Y-5664827D01*
X-5022291Y-4853620D01*
X-5022295Y-4853617D01*
X-5044858Y-4831054D01*
X-5050047Y-4828410D01*
X-5068102Y-4819210D01*
X-5078002Y-4813143D01*
X-5094396Y-4801232D01*
X-5094401Y-4801230D01*
X-5099110Y-4797808D01*
X-5104648Y-4796009D01*
X-5104649Y-4796008D01*
X-5123922Y-4789746D01*
X-5134650Y-4785302D01*
X-5152703Y-4776104D01*
X-5157896Y-4773458D01*
X-5173656Y-4770962D01*
X-5183663Y-4769377D01*
X-5194954Y-4766666D01*
X-5214226Y-4760404D01*
X-5214229Y-4760404D01*
X-5219767Y-4758604D01*
X-6661455Y-4758604D01*
X-6709021Y-4741291D01*
X-6713781Y-4736930D01*
X-6814826Y-4635885D01*
X-6836218Y-4590009D01*
X-6836500Y-4583559D01*
X-6836500Y-2650215D01*
X-6851794Y-2538568D01*
X-6911695Y-2400145D01*
X-6968357Y-2330173D01*
X-7003440Y-2286849D01*
X-7003442Y-2286847D01*
X-7006614Y-2282930D01*
X-7047301Y-2254015D01*
X-7125447Y-2198479D01*
X-7125450Y-2198477D01*
X-7129558Y-2195558D01*
X-7148309Y-2188807D01*
X-7266721Y-2146176D01*
X-7271468Y-2144467D01*
X-7276497Y-2144098D01*
X-7276500Y-2144097D01*
X-7352883Y-2138488D01*
X-7421891Y-2133420D01*
X-7426835Y-2134417D01*
X-7426837Y-2134417D01*
X-7564800Y-2162236D01*
X-7564802Y-2162237D01*
X-7569743Y-2163233D01*
X-7704132Y-2231707D01*
X-7735771Y-2260801D01*
X-7811441Y-2330382D01*
X-7811444Y-2330386D01*
X-7815156Y-2333799D01*
X-7817813Y-2338085D01*
X-7817816Y-2338088D01*
X-7853862Y-2396226D01*
X-7894635Y-2461986D01*
X-7909854Y-2514371D01*
X-7933335Y-2595192D01*
X-7936715Y-2606825D01*
X-7936999Y-2610694D01*
X-7937401Y-2616160D01*
X-7937401Y-2616174D01*
X-7937500Y-2617515D01*
X-7937500Y-4625785D01*
X-7922206Y-4737432D01*
X-7862305Y-4875855D01*
X-7840025Y-4903368D01*
X-7773310Y-4985754D01*
X-7767386Y-4993070D01*
X-7763274Y-4995992D01*
X-7648553Y-5077521D01*
X-7648550Y-5077523D01*
X-7644442Y-5080442D01*
X-7502532Y-5131533D01*
X-7497502Y-5131902D01*
X-7497499Y-5131903D01*
X-7484137Y-5132884D01*
X-7475403Y-5133525D01*
X-7428497Y-5155000D01*
X-7118909Y-5464588D01*
X-7118905Y-5464591D01*
X-7096342Y-5487154D01*
X-7091154Y-5489798D01*
X-7091153Y-5489798D01*
X-7073098Y-5498998D01*
X-7063198Y-5505065D01*
X-7046804Y-5516976D01*
X-7046799Y-5516978D01*
X-7042090Y-5520400D01*
X-7036552Y-5522199D01*
X-7036551Y-5522200D01*
X-7017278Y-5528462D01*
X-7006550Y-5532906D01*
X-6994277Y-5539159D01*
X-6983304Y-5544750D01*
X-6967544Y-5547246D01*
X-6957537Y-5548831D01*
X-6946246Y-5551542D01*
X-6926974Y-5557804D01*
X-6926971Y-5557804D01*
X-6921433Y-5559604D01*
X-5479745Y-5559604D01*
X-5432179Y-5576917D01*
X-5427419Y-5581278D01*
X-4761174Y-6247523D01*
X-4739782Y-6293399D01*
X-4739500Y-6299849D01*
X-4739499Y-6407751D01*
X-4739499Y-6518518D01*
X-4724646Y-6612304D01*
X-4699979Y-6660716D01*
X-4669696Y-6720150D01*
X-4669694Y-6720152D01*
X-4667050Y-6725342D01*
X-4577342Y-6815050D01*
X-4572152Y-6817694D01*
X-4572150Y-6817696D01*
X-4469498Y-6870000D01*
X-4469495Y-6870001D01*
X-4464304Y-6872646D01*
X-4458552Y-6873557D01*
X-4458549Y-6873558D01*
X-4373392Y-6887045D01*
X-4370519Y-6887500D01*
X-4367610Y-6887500D01*
X-4011773Y-6887499D01*
X-3759544Y-6887499D01*
X-3711978Y-6904812D01*
X-3686668Y-6948649D01*
X-3695458Y-6998499D01*
X-3707218Y-7013825D01*
X-4008219Y-7314826D01*
X-4054095Y-7336218D01*
X-4060545Y-7336500D01*
X-4340993Y-7336501D01*
X-4370518Y-7336501D01*
X-4373390Y-7336956D01*
X-4373392Y-7336956D01*
X-4401142Y-7341351D01*
X-4464304Y-7351354D01*
X-4520823Y-7380152D01*
X-4572150Y-7406304D01*
X-4572152Y-7406306D01*
X-4577342Y-7408950D01*
X-4667050Y-7498658D01*
X-4669694Y-7503848D01*
X-4669696Y-7503850D01*
X-4718038Y-7598727D01*
X-4724646Y-7611696D01*
X-4725557Y-7617448D01*
X-4725558Y-7617451D01*
X-4737982Y-7695897D01*
X-4739500Y-7705481D01*
X-4739499Y-8168518D01*
X-4739044Y-8171390D01*
X-4739044Y-8171392D01*
X-4736935Y-8184706D01*
X-4724646Y-8262304D01*
X-4715397Y-8280456D01*
X-4669696Y-8370150D01*
X-4669694Y-8370152D01*
X-4667050Y-8375342D01*
X-4577342Y-8465050D01*
X-4572152Y-8467694D01*
X-4572150Y-8467696D01*
X-4469498Y-8520000D01*
X-4469495Y-8520001D01*
X-4464304Y-8522646D01*
X-4458552Y-8523557D01*
X-4458549Y-8523558D01*
X-4373398Y-8537044D01*
X-4370519Y-8537500D01*
X-4064000Y-8537500D01*
X-3757482Y-8537499D01*
X-3754610Y-8537044D01*
X-3754608Y-8537044D01*
X-3722910Y-8532024D01*
X-3663696Y-8522646D01*
X-3596318Y-8488315D01*
X-3555850Y-8467696D01*
X-3555848Y-8467694D01*
X-3550658Y-8465050D01*
X-3460950Y-8375342D01*
X-3458306Y-8370152D01*
X-3458304Y-8370150D01*
X-3406000Y-8267498D01*
X-3405999Y-8267495D01*
X-3403354Y-8262304D01*
X-3402443Y-8256552D01*
X-3402442Y-8256549D01*
X-3388955Y-8171392D01*
X-3388500Y-8168519D01*
X-3388501Y-7858545D01*
X-3371188Y-7810979D01*
X-3366827Y-7806219D01*
X-2982782Y-7422174D01*
X-2936906Y-7400782D01*
X-2930456Y-7400500D01*
X-2904500Y-7400500D01*
X-2856934Y-7417813D01*
X-2831624Y-7461650D01*
X-2830500Y-7474500D01*
X-2830500Y-7769748D01*
X-2818867Y-7828231D01*
X-2814816Y-7834293D01*
X-2814816Y-7834294D01*
X-2813151Y-7836786D01*
X-2774552Y-7894552D01*
X-2768491Y-7898602D01*
X-2724654Y-7927893D01*
X-2708231Y-7938867D01*
X-2663705Y-7947724D01*
X-2653318Y-7949790D01*
X-2653317Y-7949790D01*
X-2649748Y-7950500D01*
X-1625452Y-7950500D01*
X-1577886Y-7967813D01*
X-1553973Y-8005348D01*
X-1543752Y-8043495D01*
X-1542385Y-8046426D01*
X-1471958Y-8197461D01*
X-1469768Y-8202158D01*
X-1457136Y-8220198D01*
X-1383914Y-8324771D01*
X-1369355Y-8345564D01*
X-1245566Y-8469354D01*
X-1102161Y-8569768D01*
X-1099239Y-8571131D01*
X-1099233Y-8571134D01*
X-1029403Y-8603696D01*
X-943499Y-8643754D01*
X-774399Y-8689064D01*
X-771178Y-8689346D01*
X-771177Y-8689346D01*
X-643206Y-8700542D01*
X-637379Y-8701286D01*
X-615178Y-8705021D01*
X-615176Y-8705021D01*
X-612354Y-8705496D01*
X-609492Y-8705531D01*
X-607001Y-8705561D01*
X-600000Y-8705647D01*
X-569276Y-8701247D01*
X-558785Y-8700500D01*
X551772Y-8700500D01*
X564050Y-8701526D01*
X587646Y-8705496D01*
X590509Y-8705531D01*
X592183Y-8705551D01*
X600000Y-8705647D01*
X602826Y-8705242D01*
X602831Y-8705242D01*
X621706Y-8702539D01*
X625745Y-8702074D01*
X695623Y-8695960D01*
X774400Y-8689068D01*
X943500Y-8643757D01*
X1040067Y-8598727D01*
X1099235Y-8571137D01*
X1099241Y-8571134D01*
X1102163Y-8569771D01*
X1245568Y-8469357D01*
X1369358Y-8345566D01*
X1372310Y-8341351D01*
X1463298Y-8211404D01*
X1469771Y-8202160D01*
X1474653Y-8191692D01*
X1542389Y-8046427D01*
X1543756Y-8043496D01*
X1589065Y-7874396D01*
X1600542Y-7743210D01*
X1601285Y-7737383D01*
X1605021Y-7715171D01*
X1605496Y-7712350D01*
X1605647Y-7699996D01*
X1601247Y-7669273D01*
X1600500Y-7658782D01*
X1600500Y-6348225D01*
X1601524Y-6335959D01*
X1605496Y-6312350D01*
X1605647Y-6299996D01*
X1605242Y-6297165D01*
X1602539Y-6278290D01*
X1602074Y-6274251D01*
X1593874Y-6180541D01*
X1589067Y-6125598D01*
X1543756Y-5956498D01*
X1489239Y-5839589D01*
X1471135Y-5800765D01*
X1471134Y-5800764D01*
X1469769Y-5797836D01*
X1457917Y-5780909D01*
X1391810Y-5686501D01*
X1369355Y-5654432D01*
X1245566Y-5530643D01*
X1110723Y-5436226D01*
X1104806Y-5432083D01*
X1102161Y-5430231D01*
X943498Y-5356246D01*
X889257Y-5341712D01*
X777519Y-5311772D01*
X774399Y-5310936D01*
X771178Y-5310654D01*
X771177Y-5310654D01*
X643206Y-5299458D01*
X637379Y-5298714D01*
X615178Y-5294979D01*
X615176Y-5294979D01*
X612354Y-5294504D01*
X609492Y-5294469D01*
X607001Y-5294439D01*
X600000Y-5294353D01*
X578151Y-5297482D01*
X569276Y-5298753D01*
X558785Y-5299500D01*
X-551772Y-5299500D01*
X-564049Y-5298474D01*
X-584823Y-5294979D01*
X-584822Y-5294979D01*
X-587646Y-5294504D01*
X-590509Y-5294469D01*
X-591629Y-5294455D01*
X-600000Y-5294353D01*
X-602832Y-5294759D01*
X-602838Y-5294759D01*
X-621852Y-5297482D01*
X-625889Y-5297947D01*
X-774398Y-5310940D01*
X-943497Y-5356249D01*
X-946417Y-5357611D01*
X-946418Y-5357611D01*
X-1099237Y-5428871D01*
X-1099241Y-5428873D01*
X-1102159Y-5430234D01*
X-1104804Y-5432086D01*
X-1242913Y-5528790D01*
X-1242916Y-5528793D01*
X-1245563Y-5530646D01*
X-1369352Y-5654435D01*
X-1396715Y-5693513D01*
X-1467910Y-5795188D01*
X-1469766Y-5797838D01*
X-1471129Y-5800760D01*
X-1471132Y-5800766D01*
X-1514796Y-5894404D01*
X-1543752Y-5956500D01*
X-1553975Y-5994653D01*
X-1583008Y-6036117D01*
X-1625453Y-6049500D01*
X-2649748Y-6049500D01*
X-2653317Y-6050210D01*
X-2653318Y-6050210D01*
X-2663705Y-6052276D01*
X-2708231Y-6061133D01*
X-2774552Y-6105448D01*
X-2778602Y-6111509D01*
X-2808477Y-6156220D01*
X-2818867Y-6171769D01*
X-2830500Y-6230252D01*
X-2830500Y-6525500D01*
X-2847813Y-6573066D01*
X-2891650Y-6598376D01*
X-2904500Y-6599500D01*
X-3190433Y-6599500D01*
X-3195971Y-6601300D01*
X-3195974Y-6601300D01*
X-3215246Y-6607562D01*
X-3226537Y-6610273D01*
X-3236544Y-6611858D01*
X-3252304Y-6614354D01*
X-3257497Y-6617000D01*
X-3275550Y-6626198D01*
X-3286278Y-6630642D01*
X-3292485Y-6632659D01*
X-3297921Y-6634425D01*
X-3348509Y-6632659D01*
X-3386126Y-6598788D01*
X-3393877Y-6552472D01*
X-3388955Y-6521394D01*
X-3388955Y-6521390D01*
X-3388500Y-6518519D01*
X-3388501Y-6208546D01*
X-3371188Y-6160980D01*
X-3366827Y-6156220D01*
X-2156886Y-4946278D01*
X-2111010Y-4924886D01*
X-2104560Y-4924604D01*
X2281419Y-4924604D01*
X2328985Y-4941917D01*
X2354295Y-4985754D01*
X2345811Y-5033871D01*
X2345664Y-5034063D01*
X2285156Y-5180142D01*
X2284524Y-5184944D01*
X2284523Y-5184947D01*
X2267077Y-5317464D01*
X2264518Y-5336904D01*
X2265151Y-5341712D01*
X2284299Y-5487154D01*
X2285156Y-5493666D01*
X2345664Y-5639745D01*
X2348614Y-5643589D01*
X2348616Y-5643593D01*
X2427795Y-5746780D01*
X2441918Y-5765186D01*
X2445769Y-5768141D01*
X2563511Y-5858488D01*
X2563515Y-5858490D01*
X2567359Y-5861440D01*
X2713438Y-5921948D01*
X2718240Y-5922580D01*
X2718243Y-5922581D01*
X2775309Y-5930093D01*
X2809111Y-5934543D01*
X2851777Y-5955584D01*
X3034719Y-6138526D01*
X3040506Y-6145039D01*
X3063424Y-6174110D01*
X3112375Y-6207942D01*
X3114218Y-6209259D01*
X3162113Y-6244635D01*
X3167177Y-6246413D01*
X3167479Y-6246597D01*
X3167725Y-6246717D01*
X3169796Y-6247773D01*
X3170096Y-6247932D01*
X3170453Y-6248081D01*
X3174865Y-6251131D01*
X3180136Y-6252798D01*
X3180144Y-6252802D01*
X3231567Y-6269065D01*
X3233772Y-6269800D01*
X3257949Y-6278290D01*
X3289927Y-6289520D01*
X3295295Y-6289731D01*
X3296321Y-6289990D01*
X3299998Y-6290707D01*
X3304026Y-6291980D01*
X3310633Y-6292500D01*
X3364310Y-6292500D01*
X3367216Y-6292557D01*
X3419762Y-6294622D01*
X3419763Y-6294622D01*
X3425290Y-6294839D01*
X3430637Y-6293421D01*
X3434931Y-6292947D01*
X3443052Y-6292500D01*
X3550500Y-6292500D01*
X3598066Y-6309813D01*
X3623376Y-6353650D01*
X3624500Y-6366500D01*
X3624500Y-6483488D01*
X3624955Y-6486361D01*
X3639369Y-6577371D01*
X3639370Y-6577374D01*
X3640281Y-6583126D01*
X3642926Y-6588317D01*
X3642927Y-6588320D01*
X3698826Y-6698028D01*
X3698828Y-6698030D01*
X3701472Y-6703220D01*
X3796780Y-6798528D01*
X3801970Y-6801172D01*
X3801972Y-6801174D01*
X3911680Y-6857073D01*
X3911683Y-6857074D01*
X3916874Y-6859719D01*
X3922626Y-6860630D01*
X3922629Y-6860631D01*
X4013639Y-6875045D01*
X4016512Y-6875500D01*
X4353455Y-6875500D01*
X4401021Y-6892813D01*
X4405781Y-6897174D01*
X5624995Y-8116388D01*
X5624999Y-8116391D01*
X5647562Y-8138954D01*
X5652750Y-8141598D01*
X5652751Y-8141598D01*
X5670806Y-8150798D01*
X5680706Y-8156865D01*
X5697100Y-8168776D01*
X5697105Y-8168778D01*
X5701814Y-8172200D01*
X5707352Y-8173999D01*
X5707353Y-8174000D01*
X5726626Y-8180262D01*
X5737354Y-8184706D01*
X5755203Y-8193800D01*
X5760600Y-8196550D01*
X5776360Y-8199046D01*
X5786367Y-8200631D01*
X5797658Y-8203342D01*
X5816930Y-8209604D01*
X5816933Y-8209604D01*
X5822471Y-8211404D01*
X6031755Y-8211404D01*
X6079321Y-8228717D01*
X6093280Y-8244286D01*
X6117448Y-8280456D01*
X6183769Y-8324771D01*
X6228295Y-8333628D01*
X6238682Y-8335694D01*
X6238683Y-8335694D01*
X6242252Y-8336404D01*
X6681748Y-8336404D01*
X6685317Y-8335694D01*
X6685318Y-8335694D01*
X6695705Y-8333628D01*
X6740231Y-8324771D01*
X6806552Y-8280456D01*
X6810602Y-8274395D01*
X6846816Y-8220198D01*
X6846816Y-8220197D01*
X6850867Y-8214135D01*
X6862500Y-8155652D01*
X6862500Y-7848247D01*
X6863411Y-7836671D01*
X6866581Y-7816656D01*
X6867492Y-7810904D01*
X6863411Y-7785137D01*
X6862500Y-7773561D01*
X6862500Y-7607545D01*
X6879813Y-7559979D01*
X6923650Y-7534669D01*
X6973500Y-7543459D01*
X6988826Y-7555219D01*
X7339826Y-7906219D01*
X7361218Y-7952095D01*
X7361500Y-7958545D01*
X7361500Y-8155652D01*
X7373133Y-8214135D01*
X7377184Y-8220197D01*
X7377184Y-8220198D01*
X7413398Y-8274395D01*
X7417448Y-8280456D01*
X7483769Y-8324771D01*
X7528295Y-8333628D01*
X7538682Y-8335694D01*
X7538683Y-8335694D01*
X7542252Y-8336404D01*
X7981748Y-8336404D01*
X7985317Y-8335694D01*
X7985318Y-8335694D01*
X7995705Y-8333628D01*
X8040231Y-8324771D01*
X8106552Y-8280456D01*
X8110602Y-8274395D01*
X8146816Y-8220198D01*
X8146816Y-8220197D01*
X8150867Y-8214135D01*
X8162500Y-8155652D01*
X8162500Y-7466156D01*
X8160734Y-7457275D01*
X8152289Y-7414824D01*
X8150867Y-7407673D01*
X8111445Y-7348674D01*
X8110602Y-7347413D01*
X8106552Y-7341352D01*
X8098869Y-7336218D01*
X8046294Y-7301088D01*
X8046293Y-7301088D01*
X8040231Y-7297037D01*
X7995705Y-7288180D01*
X7985318Y-7286114D01*
X7985317Y-7286114D01*
X7981748Y-7285404D01*
X7882449Y-7285404D01*
X7834883Y-7268091D01*
X7830123Y-7263730D01*
X7555848Y-6989455D01*
X12744825Y-6989455D01*
X12747409Y-7015810D01*
X12760018Y-7144404D01*
X12761255Y-7157025D01*
X12762559Y-7160946D01*
X12762560Y-7160949D01*
X12796298Y-7262369D01*
X12814402Y-7316791D01*
X12901624Y-7460812D01*
X13018586Y-7581929D01*
X13022045Y-7584193D01*
X13022048Y-7584195D01*
X13156010Y-7671858D01*
X13156013Y-7671860D01*
X13159475Y-7674125D01*
X13163355Y-7675568D01*
X13313411Y-7731373D01*
X13313413Y-7731373D01*
X13317289Y-7732815D01*
X13360219Y-7738543D01*
X13480080Y-7754536D01*
X13480084Y-7754536D01*
X13484183Y-7755083D01*
X13488304Y-7754708D01*
X13488308Y-7754708D01*
X13559887Y-7748193D01*
X13651864Y-7739823D01*
X13811997Y-7687793D01*
X13832505Y-7675568D01*
X13953070Y-7603696D01*
X13956623Y-7601578D01*
X14078554Y-7485465D01*
X14171731Y-7345223D01*
X14174740Y-7337302D01*
X14230052Y-7191692D01*
X14230053Y-7191686D01*
X14231521Y-7187823D01*
X14236428Y-7152909D01*
X14254632Y-7023389D01*
X14254632Y-7023383D01*
X14254955Y-7021088D01*
X14255135Y-7008179D01*
X14255217Y-7002329D01*
X14255217Y-7002322D01*
X14255249Y-7000000D01*
X14236481Y-6832676D01*
X14234336Y-6826516D01*
X14182468Y-6677572D01*
X14182466Y-6677568D01*
X14181108Y-6673668D01*
X14170982Y-6657463D01*
X14094077Y-6534388D01*
X14094075Y-6534386D01*
X14091884Y-6530879D01*
X13973242Y-6411406D01*
X13831079Y-6321187D01*
X13798222Y-6309487D01*
X13676364Y-6266095D01*
X13676360Y-6266094D01*
X13672462Y-6264706D01*
X13668354Y-6264216D01*
X13668349Y-6264215D01*
X13509382Y-6245259D01*
X13505273Y-6244769D01*
X13501163Y-6245201D01*
X13501162Y-6245201D01*
X13341930Y-6261937D01*
X13341929Y-6261937D01*
X13337821Y-6262369D01*
X13291054Y-6278290D01*
X13182342Y-6315298D01*
X13182338Y-6315300D01*
X13178431Y-6316630D01*
X13035022Y-6404856D01*
X13000232Y-6438925D01*
X12918954Y-6518519D01*
X12914724Y-6522661D01*
X12823515Y-6664190D01*
X12815357Y-6686603D01*
X12767343Y-6818517D01*
X12767342Y-6818522D01*
X12765927Y-6822409D01*
X12765408Y-6826514D01*
X12765408Y-6826516D01*
X12747386Y-6969185D01*
X12744825Y-6989455D01*
X7555848Y-6989455D01*
X7129123Y-6562730D01*
X7107731Y-6516854D01*
X7120832Y-6467959D01*
X7162296Y-6438925D01*
X7181449Y-6436404D01*
X7331748Y-6436404D01*
X7335317Y-6435694D01*
X7335318Y-6435694D01*
X7345705Y-6433628D01*
X7390231Y-6424771D01*
X7405835Y-6414345D01*
X7450491Y-6384506D01*
X7456552Y-6380456D01*
X7472579Y-6356470D01*
X7496816Y-6320198D01*
X7496816Y-6320197D01*
X7500867Y-6314135D01*
X7512500Y-6255652D01*
X7512500Y-4035385D01*
X7512499Y-4035379D01*
X7512499Y-4003471D01*
X7504438Y-3978661D01*
X7501728Y-3967374D01*
X7498557Y-3947353D01*
X7497646Y-3941600D01*
X7494841Y-3936095D01*
X7485801Y-3918352D01*
X7481357Y-3907624D01*
X7477375Y-3895369D01*
X7473296Y-3882814D01*
X7457961Y-3861707D01*
X7451895Y-3851809D01*
X7451564Y-3851160D01*
X7440050Y-3828562D01*
X6787174Y-3175686D01*
X6765782Y-3129810D01*
X6765500Y-3123360D01*
X6765500Y-2157255D01*
X6782813Y-2109689D01*
X6787174Y-2104929D01*
X9288126Y396023D01*
X9294639Y401810D01*
X9319366Y421303D01*
X9319368Y421305D01*
X9323710Y424728D01*
X9357526Y473656D01*
X9358878Y475548D01*
X9390948Y518966D01*
X9390950Y518970D01*
X9394234Y523416D01*
X9396012Y528482D01*
X9396197Y528785D01*
X9396324Y529045D01*
X9397374Y531106D01*
X9397536Y531411D01*
X9397680Y531755D01*
X9400731Y536169D01*
X9418663Y592868D01*
X9419398Y595071D01*
X9437285Y646008D01*
X9437285Y646009D01*
X9439119Y651231D01*
X9439329Y656594D01*
X9439587Y657613D01*
X9440306Y661303D01*
X9441580Y665330D01*
X9442100Y671937D01*
X9442100Y725639D01*
X9442157Y728545D01*
X9444221Y781066D01*
X9444221Y781067D01*
X9444438Y786594D01*
X9443020Y791941D01*
X9442547Y796226D01*
X9442100Y804347D01*
X9442100Y4825797D01*
X9459413Y4873363D01*
X9503250Y4898673D01*
X9511551Y4899596D01*
X9511834Y4899596D01*
X9513556Y4899759D01*
X9513561Y4899759D01*
X9538885Y4902153D01*
X9538886Y4902153D01*
X9543369Y4902577D01*
X9671184Y4947462D01*
X9705867Y4973079D01*
X9775701Y5024660D01*
X9780150Y5027946D01*
X9817063Y5077922D01*
X9857349Y5132464D01*
X9857350Y5132466D01*
X9860634Y5136912D01*
X9905519Y5264727D01*
X9907022Y5280625D01*
X9908337Y5294534D01*
X9908337Y5294541D01*
X9908500Y5296262D01*
X9908500Y5928930D01*
X9908286Y5931201D01*
X9905943Y5955981D01*
X9905943Y5955982D01*
X9905519Y5960465D01*
X9860634Y6088280D01*
X9850156Y6102467D01*
X9783436Y6192797D01*
X9780150Y6197246D01*
X9744969Y6223231D01*
X9675632Y6274445D01*
X9675630Y6274446D01*
X9671184Y6277730D01*
X9543369Y6322615D01*
X9538886Y6323039D01*
X9538885Y6323039D01*
X9513562Y6325433D01*
X9513555Y6325433D01*
X9511834Y6325596D01*
X8504166Y6325596D01*
X8502445Y6325433D01*
X8502438Y6325433D01*
X8477115Y6323039D01*
X8477114Y6323039D01*
X8472631Y6322615D01*
X8344816Y6277730D01*
X8340370Y6274446D01*
X8340368Y6274445D01*
X8271031Y6223231D01*
X8235850Y6197246D01*
X8232564Y6192797D01*
X8165845Y6102467D01*
X8155366Y6088280D01*
X8110481Y5960465D01*
X8110057Y5955982D01*
X8110057Y5955981D01*
X8107715Y5931201D01*
X8107500Y5928930D01*
X8107500Y5296262D01*
X8107663Y5294541D01*
X8107663Y5294534D01*
X8108743Y5283116D01*
X8110481Y5264727D01*
X8111974Y5260476D01*
X8112665Y5257328D01*
X8105950Y5207157D01*
X8068557Y5173039D01*
X8017981Y5170940D01*
X7988059Y5189141D01*
X7487174Y5690025D01*
X7465782Y5735901D01*
X7465500Y5742351D01*
X7465500Y6008584D01*
X7464804Y6012978D01*
X7450631Y6102467D01*
X7450630Y6102470D01*
X7449719Y6108222D01*
X7447073Y6113416D01*
X7391174Y6223124D01*
X7391172Y6223126D01*
X7388528Y6228316D01*
X7293220Y6323624D01*
X7288030Y6326268D01*
X7288028Y6326270D01*
X7178320Y6382169D01*
X7178317Y6382170D01*
X7173126Y6384815D01*
X7167374Y6385726D01*
X7167371Y6385727D01*
X7076361Y6400141D01*
X7073488Y6400596D01*
X6506512Y6400596D01*
X6503639Y6400141D01*
X6412629Y6385727D01*
X6412626Y6385726D01*
X6406874Y6384815D01*
X6401683Y6382170D01*
X6401680Y6382169D01*
X6291972Y6326270D01*
X6291970Y6326268D01*
X6286780Y6323624D01*
X6191472Y6228316D01*
X6188828Y6223126D01*
X6188826Y6223124D01*
X6130281Y6108222D01*
X6129006Y6108872D01*
X6102026Y6074340D01*
X6062813Y6063096D01*
X5480575Y6063096D01*
X5433009Y6080409D01*
X5421051Y6093131D01*
X5372658Y6158649D01*
X5344150Y6197246D01*
X5308969Y6223231D01*
X5239632Y6274445D01*
X5239630Y6274446D01*
X5235184Y6277730D01*
X5107369Y6322615D01*
X5102886Y6323039D01*
X5102885Y6323039D01*
X5077562Y6325433D01*
X5077555Y6325433D01*
X5075834Y6325596D01*
X4275755Y6325596D01*
X4228189Y6342909D01*
X4202879Y6386746D01*
X4211669Y6436596D01*
X4223429Y6451922D01*
X4282052Y6510545D01*
X12744825Y6510545D01*
X12750573Y6451922D01*
X12759251Y6363416D01*
X12761255Y6342975D01*
X12762559Y6339054D01*
X12762560Y6339051D01*
X12812136Y6190022D01*
X12814402Y6183209D01*
X12901624Y6039188D01*
X12904496Y6036214D01*
X13008100Y5928930D01*
X13018586Y5918071D01*
X13022045Y5915807D01*
X13022048Y5915805D01*
X13156010Y5828142D01*
X13156013Y5828140D01*
X13159475Y5825875D01*
X13163355Y5824432D01*
X13313411Y5768627D01*
X13313413Y5768627D01*
X13317289Y5767185D01*
X13360219Y5761457D01*
X13480080Y5745464D01*
X13480084Y5745464D01*
X13484183Y5744917D01*
X13488304Y5745292D01*
X13488308Y5745292D01*
X13559887Y5751807D01*
X13651864Y5760177D01*
X13811997Y5812207D01*
X13832505Y5824432D01*
X13953070Y5896304D01*
X13956623Y5898422D01*
X13966524Y5907850D01*
X14048485Y5985901D01*
X14078554Y6014535D01*
X14171731Y6154777D01*
X14179440Y6175072D01*
X14230052Y6308308D01*
X14230053Y6308314D01*
X14231521Y6312177D01*
X14233502Y6326270D01*
X14254632Y6476611D01*
X14254632Y6476617D01*
X14254955Y6478912D01*
X14255249Y6500000D01*
X14240025Y6635727D01*
X14236942Y6663216D01*
X14236942Y6663218D01*
X14236481Y6667324D01*
X14234336Y6673484D01*
X14182468Y6822428D01*
X14182466Y6822432D01*
X14181108Y6826332D01*
X14150325Y6875596D01*
X14094077Y6965612D01*
X14094075Y6965614D01*
X14091884Y6969121D01*
X13973242Y7088594D01*
X13957006Y7098898D01*
X13925996Y7118577D01*
X13831079Y7178813D01*
X13788735Y7193891D01*
X13676364Y7233905D01*
X13676360Y7233906D01*
X13672462Y7235294D01*
X13668354Y7235784D01*
X13668349Y7235785D01*
X13509382Y7254741D01*
X13505273Y7255231D01*
X13501163Y7254799D01*
X13501162Y7254799D01*
X13341930Y7238063D01*
X13341929Y7238063D01*
X13337821Y7237631D01*
X13289478Y7221174D01*
X13182342Y7184702D01*
X13182338Y7184700D01*
X13178431Y7183370D01*
X13035022Y7095144D01*
X12989021Y7050096D01*
X12933960Y6996176D01*
X12914724Y6977339D01*
X12823515Y6835810D01*
X12808549Y6794691D01*
X12767343Y6681483D01*
X12767342Y6681478D01*
X12765927Y6677591D01*
X12765408Y6673486D01*
X12765408Y6673484D01*
X12748444Y6539191D01*
X12744825Y6510545D01*
X4282052Y6510545D01*
X4474429Y6702922D01*
X4520305Y6724314D01*
X4526755Y6724596D01*
X5075834Y6724596D01*
X5077555Y6724759D01*
X5077562Y6724759D01*
X5102885Y6727153D01*
X5102886Y6727153D01*
X5107369Y6727577D01*
X5235184Y6772462D01*
X5245932Y6780400D01*
X5325653Y6839284D01*
X5344150Y6852946D01*
X5384544Y6907635D01*
X5421349Y6957464D01*
X5421350Y6957466D01*
X5424634Y6961912D01*
X5469519Y7089727D01*
X5470997Y7105362D01*
X5472337Y7119534D01*
X5472337Y7119541D01*
X5472500Y7121262D01*
X5472500Y7741052D01*
X5489813Y7788618D01*
X5494174Y7793378D01*
X5501420Y7800624D01*
X5547296Y7822016D01*
X5553746Y7822298D01*
X8026253Y7822298D01*
X8073819Y7804985D01*
X8078579Y7800624D01*
X8085826Y7793377D01*
X8107218Y7747501D01*
X8107500Y7741052D01*
X8107500Y7121262D01*
X8107663Y7119541D01*
X8107663Y7119534D01*
X8109003Y7105362D01*
X8110481Y7089727D01*
X8155366Y6961912D01*
X8158650Y6957466D01*
X8158651Y6957464D01*
X8195456Y6907635D01*
X8235850Y6852946D01*
X8254347Y6839284D01*
X8334069Y6780400D01*
X8344816Y6772462D01*
X8472631Y6727577D01*
X8477114Y6727153D01*
X8477115Y6727153D01*
X8502438Y6724759D01*
X8502445Y6724759D01*
X8504166Y6724596D01*
X9511834Y6724596D01*
X9513555Y6724759D01*
X9513562Y6724759D01*
X9538885Y6727153D01*
X9538886Y6727153D01*
X9543369Y6727577D01*
X9671184Y6772462D01*
X9681932Y6780400D01*
X9761653Y6839284D01*
X9780150Y6852946D01*
X9820544Y6907635D01*
X9857349Y6957464D01*
X9857350Y6957466D01*
X9860634Y6961912D01*
X9905519Y7089727D01*
X9906997Y7105362D01*
X9908337Y7119534D01*
X9908337Y7119541D01*
X9908500Y7121262D01*
X9908500Y7753930D01*
X9905519Y7785465D01*
X9860634Y7913280D01*
X9854473Y7921622D01*
X9783436Y8017797D01*
X9780150Y8022246D01*
X9729444Y8059698D01*
X9675632Y8099445D01*
X9675630Y8099446D01*
X9671184Y8102730D01*
X9543369Y8147615D01*
X9538886Y8148039D01*
X9538885Y8148039D01*
X9513562Y8150433D01*
X9513555Y8150433D01*
X9511834Y8150596D01*
X8892045Y8150596D01*
X8844479Y8167909D01*
X8839719Y8172270D01*
X8483707Y8528282D01*
X8483703Y8528285D01*
X8461140Y8550848D01*
X8455951Y8553492D01*
X8437896Y8562692D01*
X8427996Y8568759D01*
X8411602Y8580670D01*
X8411597Y8580672D01*
X8406888Y8584094D01*
X8401350Y8585893D01*
X8401349Y8585894D01*
X8382076Y8592156D01*
X8371348Y8596600D01*
X8353295Y8605798D01*
X8348102Y8608444D01*
X8332342Y8610940D01*
X8322335Y8612525D01*
X8311044Y8615236D01*
X8291772Y8621498D01*
X8291769Y8621498D01*
X8286231Y8623298D01*
X5325683Y8623298D01*
X5325679Y8623297D01*
X5293769Y8623297D01*
X5288230Y8621497D01*
X5288228Y8621497D01*
X5278596Y8618367D01*
X5268959Y8615236D01*
X5257675Y8612527D01*
X5231898Y8608444D01*
X5226705Y8605798D01*
X5208650Y8596599D01*
X5197922Y8592155D01*
X5173112Y8584094D01*
X5156183Y8571794D01*
X5152005Y8568759D01*
X5142108Y8562693D01*
X5118860Y8550848D01*
X4740282Y8172270D01*
X4694406Y8150878D01*
X4687956Y8150596D01*
X4068166Y8150596D01*
X4066445Y8150433D01*
X4066438Y8150433D01*
X4041115Y8148039D01*
X4041114Y8148039D01*
X4036631Y8147615D01*
X3908816Y8102730D01*
X3904370Y8099446D01*
X3904368Y8099445D01*
X3850556Y8059698D01*
X3799850Y8022246D01*
X3769714Y7981446D01*
X3727323Y7924053D01*
X3685136Y7896078D01*
X3634838Y7901764D01*
X3609091Y7922970D01*
X3531237Y8024431D01*
X3528282Y8028282D01*
X3481697Y8064028D01*
X3406689Y8121584D01*
X3406685Y8121586D01*
X3402841Y8124536D01*
X3256762Y8185044D01*
X3251960Y8185676D01*
X3251957Y8185677D01*
X3104808Y8205049D01*
X3100000Y8205682D01*
X3095192Y8205049D01*
X2948043Y8185677D01*
X2948040Y8185676D01*
X2943238Y8185044D01*
X2797159Y8124536D01*
X2796782Y8125447D01*
X2751568Y8117474D01*
X2707730Y8142784D01*
X2701835Y8150862D01*
X2696483Y8159344D01*
X2696481Y8159347D01*
X2695075Y8161575D01*
X2657508Y8205716D01*
X2550157Y8300524D01*
X2547960Y8301967D01*
X2547955Y8301971D01*
X2503919Y8330896D01*
X2501715Y8332344D01*
X2372070Y8393213D01*
X2316639Y8410160D01*
X2258387Y8419230D01*
X2177719Y8431790D01*
X2177712Y8431791D01*
X2175121Y8432194D01*
X2153666Y8432456D01*
X2119807Y8432870D01*
X2119803Y8432870D01*
X2117165Y8432902D01*
X2114553Y8432560D01*
X2114546Y8432560D01*
X2096112Y8430149D01*
X2086517Y8429524D01*
X1697995Y8429524D01*
X1686613Y8430405D01*
X1681655Y8431177D01*
X1677717Y8431790D01*
X1677714Y8431790D01*
X1675121Y8432194D01*
X1653666Y8432456D01*
X1619807Y8432870D01*
X1619803Y8432870D01*
X1617165Y8432902D01*
X1614552Y8432560D01*
X1614546Y8432560D01*
X1512353Y8419197D01*
X1475151Y8414332D01*
X1472621Y8413626D01*
X1472618Y8413625D01*
X1421855Y8399452D01*
X1419323Y8398745D01*
X1288230Y8341062D01*
X1239024Y8310434D01*
X1237013Y8308744D01*
X1237008Y8308740D01*
X1131403Y8219970D01*
X1129389Y8218277D01*
X1090755Y8175067D01*
X1089296Y8172875D01*
X1089292Y8172870D01*
X1041183Y8100596D01*
X1011392Y8055842D01*
X986439Y8003527D01*
X985655Y8001017D01*
X985654Y8001015D01*
X961319Y7923124D01*
X943729Y7866821D01*
X943307Y7864217D01*
X943307Y7864216D01*
X936518Y7822298D01*
X934462Y7809606D01*
X933324Y7747501D01*
X932493Y7702169D01*
X931837Y7666407D01*
X932162Y7663801D01*
X932505Y7661045D01*
X933072Y7651898D01*
X933072Y7175096D01*
X948633Y7096865D01*
X952684Y7090802D01*
X955472Y7084072D01*
X954280Y7083578D01*
X964444Y7042038D01*
X955071Y7016286D01*
X955472Y7016120D01*
X952684Y7009390D01*
X948633Y7003327D01*
X937000Y6944844D01*
X937000Y5905348D01*
X937710Y5901779D01*
X937710Y5901778D01*
X938799Y5896304D01*
X948633Y5846865D01*
X952684Y5840802D01*
X955472Y5834072D01*
X954280Y5833578D01*
X964444Y5792038D01*
X955071Y5766286D01*
X955472Y5766120D01*
X952684Y5759390D01*
X948633Y5753327D01*
X940353Y5711699D01*
X934686Y5683208D01*
X933072Y5675096D01*
X933072Y5649596D01*
X915759Y5602030D01*
X871922Y5576720D01*
X859072Y5575596D01*
X800255Y5575596D01*
X752689Y5592909D01*
X747929Y5597270D01*
X405174Y5940025D01*
X383782Y5985901D01*
X383500Y5992351D01*
X383500Y6258584D01*
X382511Y6264827D01*
X368631Y6352467D01*
X368630Y6352470D01*
X367719Y6358222D01*
X364264Y6365003D01*
X309174Y6473124D01*
X309172Y6473126D01*
X306528Y6478316D01*
X211220Y6573624D01*
X206030Y6576268D01*
X206028Y6576270D01*
X96320Y6632169D01*
X96317Y6632170D01*
X91126Y6634815D01*
X85374Y6635726D01*
X85371Y6635727D01*
X-5639Y6650141D01*
X-8512Y6650596D01*
X-575488Y6650596D01*
X-578361Y6650141D01*
X-669371Y6635727D01*
X-669374Y6635726D01*
X-675126Y6634815D01*
X-680317Y6632170D01*
X-680320Y6632169D01*
X-790028Y6576270D01*
X-790030Y6576268D01*
X-795220Y6573624D01*
X-890528Y6478316D01*
X-893172Y6473126D01*
X-893174Y6473124D01*
X-948264Y6365003D01*
X-951719Y6358222D01*
X-952630Y6352470D01*
X-952631Y6352467D01*
X-966511Y6264827D01*
X-967500Y6258584D01*
X-967500Y6249596D01*
X-984813Y6202030D01*
X-1028650Y6176720D01*
X-1041500Y6175596D01*
X-1691458Y6175596D01*
X-1723955Y6183113D01*
X-1785322Y6213110D01*
X-1785323Y6213110D01*
X-1790482Y6215632D01*
X-1858782Y6225596D01*
X-2864949Y6225596D01*
X-2912515Y6242909D01*
X-2937825Y6286746D01*
X-2929035Y6336596D01*
X-2923657Y6344644D01*
X-2882016Y6398911D01*
X-2882014Y6398914D01*
X-2879064Y6402759D01*
X-2818556Y6548838D01*
X-2816855Y6561754D01*
X-2798551Y6700792D01*
X-2797918Y6705600D01*
X-2801008Y6729070D01*
X-2817923Y6857557D01*
X-2817924Y6857560D01*
X-2818556Y6862362D01*
X-2879064Y7008441D01*
X-2882018Y7012291D01*
X-2882770Y7013593D01*
X-2891562Y7063443D01*
X-2866255Y7107281D01*
X-2818686Y7124596D01*
X-1858782Y7124596D01*
X-1847567Y7126247D01*
X-1795577Y7133900D01*
X-1795574Y7133901D01*
X-1789888Y7134738D01*
X-1784728Y7137271D01*
X-1784726Y7137272D01*
X-1729522Y7164376D01*
X-1685145Y7186164D01*
X-1680824Y7190493D01*
X-1680822Y7190494D01*
X-1607028Y7264417D01*
X-1607027Y7264419D01*
X-1602707Y7268746D01*
X-1567394Y7340989D01*
X-1553988Y7368414D01*
X-1553988Y7368415D01*
X-1551464Y7373578D01*
X-1541500Y7441878D01*
X-1541500Y7808314D01*
X-1544015Y7825400D01*
X-1550804Y7871519D01*
X-1550805Y7871522D01*
X-1551642Y7877208D01*
X-1560906Y7896078D01*
X-1592463Y7960351D01*
X-1603068Y7981951D01*
X-1607397Y7986272D01*
X-1607398Y7986274D01*
X-1681321Y8060068D01*
X-1681323Y8060069D01*
X-1685650Y8064389D01*
X-1702479Y8072615D01*
X-1785318Y8113108D01*
X-1785319Y8113108D01*
X-1790482Y8115632D01*
X-1858782Y8125596D01*
X-2950218Y8125596D01*
X-2952901Y8125201D01*
X-3013423Y8116292D01*
X-3013426Y8116291D01*
X-3019112Y8115454D01*
X-3024272Y8112921D01*
X-3024274Y8112920D01*
X-3050301Y8100141D01*
X-3123855Y8064028D01*
X-3128176Y8059699D01*
X-3128178Y8059698D01*
X-3201972Y7985775D01*
X-3206293Y7981446D01*
X-3208980Y7975949D01*
X-3254722Y7882370D01*
X-3257536Y7876614D01*
X-3267500Y7808314D01*
X-3267500Y7766255D01*
X-3284813Y7718689D01*
X-3328650Y7693379D01*
X-3378500Y7702169D01*
X-3393826Y7713929D01*
X-3601519Y7921622D01*
X-3607306Y7928135D01*
X-3626799Y7952862D01*
X-3626801Y7952864D01*
X-3630224Y7957206D01*
X-3665296Y7981446D01*
X-3679152Y7991022D01*
X-3681044Y7992374D01*
X-3724462Y8024444D01*
X-3724466Y8024446D01*
X-3728912Y8027730D01*
X-3733978Y8029508D01*
X-3734281Y8029693D01*
X-3734541Y8029820D01*
X-3736602Y8030870D01*
X-3736907Y8031032D01*
X-3737251Y8031176D01*
X-3741665Y8034227D01*
X-3798364Y8052159D01*
X-3800567Y8052894D01*
X-3851504Y8070781D01*
X-3851505Y8070781D01*
X-3856727Y8072615D01*
X-3862090Y8072825D01*
X-3863109Y8073083D01*
X-3866799Y8073802D01*
X-3870826Y8075076D01*
X-3877433Y8075596D01*
X-3931134Y8075596D01*
X-3934040Y8075653D01*
X-3936679Y8075757D01*
X-3972453Y8077163D01*
X-4002043Y8084623D01*
X-4060322Y8113110D01*
X-4060323Y8113110D01*
X-4065482Y8115632D01*
X-4133782Y8125596D01*
X-5225218Y8125596D01*
X-5227901Y8125201D01*
X-5288423Y8116292D01*
X-5288426Y8116291D01*
X-5294112Y8115454D01*
X-5299272Y8112921D01*
X-5299274Y8112920D01*
X-5325301Y8100141D01*
X-5398855Y8064028D01*
X-5403176Y8059699D01*
X-5403178Y8059698D01*
X-5476972Y7985775D01*
X-5481293Y7981446D01*
X-5483980Y7975949D01*
X-5529722Y7882370D01*
X-5532536Y7876614D01*
X-5542500Y7808314D01*
X-5542500Y7441878D01*
X-5542105Y7439195D01*
X-5533196Y7378673D01*
X-5533195Y7378670D01*
X-5532358Y7372984D01*
X-5480932Y7268241D01*
X-5476603Y7263920D01*
X-5476602Y7263918D01*
X-5402679Y7190124D01*
X-5398350Y7185803D01*
X-5392853Y7183116D01*
X-5299066Y7137272D01*
X-5293518Y7134560D01*
X-5225218Y7124596D01*
X-4133782Y7124596D01*
X-4122568Y7126247D01*
X-4072989Y7116047D01*
X-4059465Y7105362D01*
X-3973177Y7019074D01*
X-3951785Y6973198D01*
X-3957136Y6938429D01*
X-3988644Y6862362D01*
X-3989276Y6857560D01*
X-3989277Y6857557D01*
X-4006192Y6729070D01*
X-4009282Y6705600D01*
X-4008649Y6700792D01*
X-3990344Y6561754D01*
X-3988644Y6548838D01*
X-3934817Y6418888D01*
X-3932609Y6368319D01*
X-3950858Y6338245D01*
X-4046194Y6242909D01*
X-4092070Y6221517D01*
X-4109201Y6222010D01*
X-4133782Y6225596D01*
X-5225218Y6225596D01*
X-5227901Y6225201D01*
X-5288423Y6216292D01*
X-5288426Y6216291D01*
X-5294112Y6215454D01*
X-5299272Y6212921D01*
X-5299274Y6212920D01*
X-5339489Y6193175D01*
X-5398855Y6164028D01*
X-5403176Y6159699D01*
X-5403178Y6159698D01*
X-5470031Y6092728D01*
X-5481293Y6081446D01*
X-5483980Y6075949D01*
X-5527996Y5985901D01*
X-5532536Y5976614D01*
X-5542500Y5908314D01*
X-5542500Y5541878D01*
X-5542105Y5539195D01*
X-5533196Y5478673D01*
X-5533195Y5478670D01*
X-5532358Y5472984D01*
X-5480932Y5368241D01*
X-5476603Y5363920D01*
X-5476602Y5363918D01*
X-5402679Y5290124D01*
X-5398350Y5285803D01*
X-5392853Y5283116D01*
X-5299066Y5237272D01*
X-5293518Y5234560D01*
X-5225218Y5224596D01*
X-4133782Y5224596D01*
X-4127637Y5225501D01*
X-4070577Y5233900D01*
X-4070574Y5233901D01*
X-4064888Y5234738D01*
X-4057942Y5238148D01*
X-4056359Y5238319D01*
X-4054234Y5238979D01*
X-4054104Y5238562D01*
X-4007615Y5243572D01*
X-3965576Y5215377D01*
X-3951495Y5166756D01*
X-3973002Y5119397D01*
X-4269929Y4822470D01*
X-4315805Y4801078D01*
X-4322255Y4800796D01*
X-4626888Y4800796D01*
X-4629761Y4800341D01*
X-4720771Y4785927D01*
X-4720774Y4785926D01*
X-4726526Y4785015D01*
X-4731717Y4782370D01*
X-4731720Y4782369D01*
X-4841428Y4726470D01*
X-4841430Y4726468D01*
X-4846620Y4723824D01*
X-4941928Y4628516D01*
X-4942322Y4628910D01*
X-4980747Y4602993D01*
X-4998647Y4600796D01*
X-5282144Y4600796D01*
X-5329710Y4618109D01*
X-5334470Y4622470D01*
X-6170528Y5458527D01*
X-6176315Y5465040D01*
X-6195807Y5489766D01*
X-6195809Y5489768D01*
X-6199232Y5494110D01*
X-6248160Y5527926D01*
X-6250052Y5529278D01*
X-6293470Y5561348D01*
X-6293474Y5561350D01*
X-6297920Y5564634D01*
X-6302986Y5566412D01*
X-6303289Y5566597D01*
X-6303549Y5566724D01*
X-6305610Y5567774D01*
X-6305915Y5567936D01*
X-6306259Y5568080D01*
X-6310673Y5571131D01*
X-6367372Y5589063D01*
X-6369575Y5589798D01*
X-6420512Y5607685D01*
X-6420513Y5607685D01*
X-6425735Y5609519D01*
X-6431098Y5609729D01*
X-6432117Y5609987D01*
X-6435807Y5610706D01*
X-6439834Y5611980D01*
X-6446441Y5612500D01*
X-6500143Y5612500D01*
X-6503049Y5612557D01*
X-6555574Y5614621D01*
X-6561098Y5614838D01*
X-6566440Y5613422D01*
X-6570740Y5612947D01*
X-6578858Y5612500D01*
X-6762500Y5612500D01*
X-6810066Y5629813D01*
X-6835376Y5673650D01*
X-6836500Y5686500D01*
X-6836500Y6149785D01*
X-6851794Y6261432D01*
X-6911695Y6399855D01*
X-6914869Y6403774D01*
X-6914871Y6403778D01*
X-6943213Y6438778D01*
X-6959693Y6486639D01*
X-6938030Y6537673D01*
X-6747781Y6727922D01*
X-6701905Y6749314D01*
X-6695455Y6749596D01*
X-6415007Y6749597D01*
X-6385482Y6749597D01*
X-6382610Y6750052D01*
X-6382608Y6750052D01*
X-6342949Y6756333D01*
X-6291696Y6764450D01*
X-6232345Y6794691D01*
X-6183850Y6819400D01*
X-6183848Y6819402D01*
X-6178658Y6822046D01*
X-6088950Y6911754D01*
X-6086306Y6916944D01*
X-6086304Y6916946D01*
X-6034000Y7019598D01*
X-6033999Y7019601D01*
X-6031354Y7024792D01*
X-6030443Y7030544D01*
X-6030442Y7030547D01*
X-6016955Y7115704D01*
X-6016500Y7118577D01*
X-6016501Y7731614D01*
X-6017995Y7741051D01*
X-6024617Y7782858D01*
X-6031354Y7825400D01*
X-6068914Y7899116D01*
X-6086304Y7933246D01*
X-6086306Y7933248D01*
X-6088950Y7938438D01*
X-6178658Y8028146D01*
X-6183848Y8030790D01*
X-6183850Y8030792D01*
X-6286502Y8083096D01*
X-6286505Y8083097D01*
X-6291696Y8085742D01*
X-6297448Y8086653D01*
X-6297451Y8086654D01*
X-6382608Y8100141D01*
X-6385481Y8100596D01*
X-6520455Y8100596D01*
X-6568021Y8117909D01*
X-6572781Y8122270D01*
X-7055611Y8605100D01*
X-7055615Y8605103D01*
X-7078178Y8627666D01*
X-7083367Y8630310D01*
X-7101422Y8639510D01*
X-7111322Y8645577D01*
X-7127716Y8657488D01*
X-7127721Y8657490D01*
X-7132430Y8660912D01*
X-7137968Y8662711D01*
X-7137969Y8662712D01*
X-7157242Y8668974D01*
X-7167970Y8673418D01*
X-7186023Y8682616D01*
X-7191216Y8685262D01*
X-7206976Y8687758D01*
X-7216983Y8689343D01*
X-7228274Y8692054D01*
X-7247546Y8698316D01*
X-7247549Y8698316D01*
X-7253087Y8700116D01*
X-9155913Y8700116D01*
X-9161451Y8698316D01*
X-9161454Y8698316D01*
X-9180726Y8692054D01*
X-9192017Y8689343D01*
X-9202024Y8687758D01*
X-9217784Y8685262D01*
X-9222977Y8682616D01*
X-9241030Y8673418D01*
X-9251758Y8668974D01*
X-9271031Y8662712D01*
X-9271032Y8662711D01*
X-9276570Y8660912D01*
X-9281279Y8657490D01*
X-9281284Y8657488D01*
X-9297678Y8645577D01*
X-9307578Y8639510D01*
X-9325633Y8630310D01*
X-9330822Y8627666D01*
X-9353385Y8605103D01*
X-9353389Y8605100D01*
X-9836219Y8122270D01*
X-9882095Y8100878D01*
X-9888545Y8100596D01*
X-10123327Y8100595D01*
X-10148518Y8100595D01*
X-10151390Y8100140D01*
X-10151392Y8100140D01*
X-10183090Y8095120D01*
X-10242304Y8085742D01*
X-10284211Y8064389D01*
X-10350150Y8030792D01*
X-10350152Y8030790D01*
X-10355342Y8028146D01*
X-10445050Y7938438D01*
X-10447694Y7933248D01*
X-10447696Y7933246D01*
X-10495308Y7839802D01*
X-10502646Y7825400D01*
X-10503557Y7819648D01*
X-10503558Y7819645D01*
X-10517045Y7734488D01*
X-10517500Y7731615D01*
X-10517499Y7118578D01*
X-10502646Y7024792D01*
X-10483184Y6986596D01*
X-10447696Y6916946D01*
X-10447694Y6916944D01*
X-10445050Y6911754D01*
X-10355342Y6822046D01*
X-10350152Y6819402D01*
X-10350150Y6819400D01*
X-10247498Y6767096D01*
X-10247495Y6767095D01*
X-10242304Y6764450D01*
X-10236552Y6763539D01*
X-10236549Y6763538D01*
X-10174955Y6753783D01*
X-10130683Y6729242D01*
X-10112542Y6681986D01*
X-10129022Y6634124D01*
X-10152935Y6614760D01*
X-10165242Y6608489D01*
X-10233669Y6573624D01*
X-10244132Y6568293D01*
X-10265289Y6548838D01*
X-10351441Y6469618D01*
X-10351444Y6469614D01*
X-10355156Y6466201D01*
X-10357813Y6461915D01*
X-10357816Y6461912D01*
X-10399162Y6395226D01*
X-10434635Y6338014D01*
X-10439785Y6320288D01*
X-10475532Y6197246D01*
X-10476715Y6193175D01*
X-10476999Y6189306D01*
X-10477401Y6183840D01*
X-10477401Y6183826D01*
X-10477500Y6182485D01*
X-10477500Y4174215D01*
X-10462206Y4062568D01*
X-10402305Y3924145D01*
X-10393990Y3913877D01*
X-10377500Y3867309D01*
X-10377500Y704255D01*
X-10394813Y656689D01*
X-10399174Y651929D01*
X-14012526Y-2961423D01*
X-14019039Y-2967210D01*
X-14043766Y-2986703D01*
X-14043768Y-2986705D01*
X-14048110Y-2990128D01*
X-14051254Y-2994677D01*
X-14051255Y-2994678D01*
X-14081926Y-3039056D01*
X-14083278Y-3040948D01*
X-14115348Y-3084366D01*
X-14115350Y-3084370D01*
X-14118634Y-3088816D01*
X-14120412Y-3093882D01*
X-14120597Y-3094185D01*
X-14120724Y-3094445D01*
X-14121774Y-3096506D01*
X-14121936Y-3096811D01*
X-14122080Y-3097155D01*
X-14125131Y-3101569D01*
X-14126800Y-3106847D01*
X-14143063Y-3158268D01*
X-14143798Y-3160471D01*
X-14161685Y-3211408D01*
X-14163519Y-3216631D01*
X-14163729Y-3221994D01*
X-14163987Y-3223013D01*
X-14164706Y-3226703D01*
X-14165980Y-3230730D01*
X-14166500Y-3237337D01*
X-14166500Y-3291039D01*
X-14166557Y-3293944D01*
X-14168838Y-3351994D01*
X-14167422Y-3357336D01*
X-14166947Y-3361636D01*
X-14166500Y-3369754D01*
X-14166500Y-3592744D01*
X-14183813Y-3640310D01*
X-14188174Y-3645070D01*
X-15464833Y-4921730D01*
X-15510709Y-4943122D01*
X-15517159Y-4943404D01*
X-15687458Y-4943404D01*
X-15719955Y-4935887D01*
X-15781322Y-4905890D01*
X-15781323Y-4905890D01*
X-15786482Y-4903368D01*
X-15854782Y-4893404D01*
X-17321218Y-4893404D01*
X-17323899Y-4893799D01*
X-17323903Y-4893799D01*
X-17377723Y-4901722D01*
X-17427303Y-4891521D01*
X-17458727Y-4851838D01*
X-17462500Y-4828511D01*
X-17462500Y-4709372D01*
X-17445187Y-4661806D01*
X-17401350Y-4636496D01*
X-17377818Y-4636147D01*
X-17323926Y-4644009D01*
X-17321218Y-4644404D01*
X-15854782Y-4644404D01*
X-15848637Y-4643499D01*
X-15791577Y-4635100D01*
X-15791574Y-4635099D01*
X-15785888Y-4634262D01*
X-15780728Y-4631729D01*
X-15780726Y-4631728D01*
X-15720133Y-4601978D01*
X-15687520Y-4594404D01*
X-15605055Y-4594404D01*
X-15596358Y-4594917D01*
X-15584712Y-4596295D01*
X-15559594Y-4599268D01*
X-15554152Y-4598274D01*
X-15554149Y-4598274D01*
X-15501104Y-4588586D01*
X-15498811Y-4588204D01*
X-15445408Y-4580175D01*
X-15445407Y-4580175D01*
X-15439942Y-4579353D01*
X-15435106Y-4577030D01*
X-15434768Y-4576948D01*
X-15434504Y-4576857D01*
X-15432267Y-4576131D01*
X-15431958Y-4576036D01*
X-15431608Y-4575892D01*
X-15426331Y-4574929D01*
X-15373562Y-4547518D01*
X-15371491Y-4546483D01*
X-15322812Y-4523108D01*
X-15322811Y-4523107D01*
X-15317825Y-4520713D01*
X-15313881Y-4517067D01*
X-15312973Y-4516525D01*
X-15309862Y-4514429D01*
X-15306116Y-4512483D01*
X-15301076Y-4508179D01*
X-15263106Y-4470209D01*
X-15261011Y-4468195D01*
X-15222408Y-4432511D01*
X-15218348Y-4428758D01*
X-15215570Y-4423976D01*
X-15212873Y-4420609D01*
X-15207447Y-4414550D01*
X-14779058Y-3986161D01*
X-14773686Y-3981292D01*
X-14745294Y-3957984D01*
X-14745293Y-3957983D01*
X-14741020Y-3954475D01*
X-14711044Y-3909214D01*
X-14708872Y-3906110D01*
X-14695608Y-3888152D01*
X-14676602Y-3862420D01*
X-14674768Y-3857197D01*
X-14672182Y-3852313D01*
X-14671983Y-3852418D01*
X-14671405Y-3851255D01*
X-14671609Y-3851160D01*
X-14669274Y-3846144D01*
X-14666219Y-3841532D01*
X-14650877Y-3789458D01*
X-14649714Y-3785854D01*
X-14633551Y-3739828D01*
X-14633551Y-3739827D01*
X-14631717Y-3734605D01*
X-14631500Y-3729074D01*
X-14630464Y-3723643D01*
X-14630241Y-3723686D01*
X-14629609Y-3719838D01*
X-14629852Y-3719796D01*
X-14629127Y-3715636D01*
X-14627934Y-3711588D01*
X-14627545Y-3704972D01*
X-14628509Y-3656243D01*
X-14628466Y-3651877D01*
X-14628198Y-3645070D01*
X-14626398Y-3599242D01*
X-14627816Y-3593895D01*
X-14628160Y-3590779D01*
X-14630075Y-3577141D01*
X-14639055Y-3123360D01*
X-14641197Y-3015107D01*
X-14625919Y-2968595D01*
X-14620415Y-2961423D01*
X-14575464Y-2902841D01*
X-14514956Y-2756762D01*
X-14494318Y-2600000D01*
X-14501856Y-2542743D01*
X-14514323Y-2448043D01*
X-14514324Y-2448040D01*
X-14514956Y-2443238D01*
X-14575464Y-2297159D01*
X-14578414Y-2293315D01*
X-14578416Y-2293311D01*
X-14668763Y-2175569D01*
X-14671718Y-2171718D01*
X-14684075Y-2162236D01*
X-14793311Y-2078416D01*
X-14793315Y-2078414D01*
X-14797159Y-2075464D01*
X-14943238Y-2014956D01*
X-14948040Y-2014324D01*
X-14948043Y-2014323D01*
X-15095192Y-1994951D01*
X-15100000Y-1994318D01*
X-15104808Y-1994951D01*
X-15251957Y-2014323D01*
X-15251960Y-2014324D01*
X-15256762Y-2014956D01*
X-15402841Y-2075464D01*
X-15406685Y-2078414D01*
X-15406689Y-2078416D01*
X-15515925Y-2162236D01*
X-15528282Y-2171718D01*
X-15531237Y-2175569D01*
X-15621584Y-2293311D01*
X-15621586Y-2293315D01*
X-15624536Y-2297159D01*
X-15685044Y-2443238D01*
X-15685676Y-2448040D01*
X-15685677Y-2448043D01*
X-15698144Y-2542743D01*
X-15705682Y-2600000D01*
X-15685044Y-2756762D01*
X-15624536Y-2902841D01*
X-15621586Y-2906686D01*
X-15621584Y-2906689D01*
X-15557276Y-2990497D01*
X-15541998Y-3034081D01*
X-15534067Y-3434835D01*
X-15550436Y-3482733D01*
X-15555727Y-3488624D01*
X-15705216Y-3638113D01*
X-15751092Y-3659505D01*
X-15779397Y-3656486D01*
X-15781318Y-3655892D01*
X-15786482Y-3653368D01*
X-15854782Y-3643404D01*
X-17321218Y-3643404D01*
X-17323899Y-3643799D01*
X-17323903Y-3643799D01*
X-17377723Y-3651722D01*
X-17427303Y-3641521D01*
X-17458727Y-3601838D01*
X-17462500Y-3578511D01*
X-17462500Y2365628D01*
X-17445187Y2413194D01*
X-17401350Y2438504D01*
X-17377818Y2438853D01*
X-17323926Y2430991D01*
X-17321218Y2430596D01*
X-15854782Y2430596D01*
X-15848637Y2431501D01*
X-15791577Y2439900D01*
X-15791574Y2439901D01*
X-15785888Y2440738D01*
X-15780728Y2443271D01*
X-15780726Y2443272D01*
X-15720133Y2473022D01*
X-15687520Y2480596D01*
X-14812159Y2480596D01*
X-14764593Y2463283D01*
X-14759833Y2458922D01*
X-14696174Y2395263D01*
X-14674782Y2349387D01*
X-14674500Y2342937D01*
X-14674500Y1913900D01*
X-14691813Y1866334D01*
X-14696174Y1861574D01*
X-14784528Y1773220D01*
X-14787172Y1768030D01*
X-14787174Y1768028D01*
X-14827443Y1688995D01*
X-14845719Y1653126D01*
X-14846630Y1647374D01*
X-14846631Y1647371D01*
X-14859088Y1568715D01*
X-14861500Y1553488D01*
X-14861500Y986512D01*
X-14861045Y983639D01*
X-14846631Y892629D01*
X-14846630Y892626D01*
X-14845719Y886874D01*
X-14843074Y881683D01*
X-14843073Y881680D01*
X-14787174Y771972D01*
X-14787172Y771970D01*
X-14784528Y766780D01*
X-14718901Y701153D01*
X-14697509Y655277D01*
X-14712518Y603781D01*
X-14748536Y556841D01*
X-14809044Y410762D01*
X-14809676Y405960D01*
X-14809677Y405957D01*
X-14817930Y343268D01*
X-14829682Y254000D01*
X-14829049Y249192D01*
X-14815519Y146423D01*
X-14809044Y97238D01*
X-14748536Y-48841D01*
X-14745586Y-52686D01*
X-14745584Y-52689D01*
X-14676792Y-142340D01*
X-14661500Y-187388D01*
X-14661500Y-435755D01*
X-14678813Y-483321D01*
X-14694382Y-497280D01*
X-14730552Y-521448D01*
X-14774867Y-587769D01*
X-14786500Y-646252D01*
X-14786500Y-1385748D01*
X-14774867Y-1444231D01*
X-14730552Y-1510552D01*
X-14724491Y-1514602D01*
X-14678327Y-1545448D01*
X-14664231Y-1554867D01*
X-14619705Y-1563724D01*
X-14609318Y-1565790D01*
X-14609317Y-1565790D01*
X-14605748Y-1566500D01*
X-13966252Y-1566500D01*
X-13962683Y-1565790D01*
X-13962682Y-1565790D01*
X-13952295Y-1563724D01*
X-13907769Y-1554867D01*
X-13893672Y-1545448D01*
X-13847509Y-1514602D01*
X-13841448Y-1510552D01*
X-13797133Y-1444231D01*
X-13785500Y-1385748D01*
X-13785500Y-1101687D01*
X-13781320Y-1077168D01*
X-13765314Y-1031589D01*
X-13765314Y-1031588D01*
X-13763481Y-1026369D01*
X-13763271Y-1021006D01*
X-13763013Y-1019987D01*
X-13762294Y-1016297D01*
X-13761020Y-1012270D01*
X-13760500Y-1005663D01*
X-13760500Y-951961D01*
X-13760443Y-949055D01*
X-13758379Y-896530D01*
X-13758162Y-891006D01*
X-13759578Y-885664D01*
X-13760053Y-881364D01*
X-13760500Y-873246D01*
X-13760500Y-153504D01*
X-13745208Y-108456D01*
X-13702416Y-52689D01*
X-13702414Y-52686D01*
X-13699464Y-48841D01*
X-13638956Y97238D01*
X-13632480Y146423D01*
X-13618951Y249192D01*
X-13618318Y254000D01*
X-13630070Y343268D01*
X-13638323Y405957D01*
X-13638324Y405960D01*
X-13638956Y410762D01*
X-13699464Y556841D01*
X-13724193Y589069D01*
X-13739414Y637345D01*
X-13717810Y686442D01*
X-13637472Y766780D01*
X-13634828Y771970D01*
X-13634826Y771972D01*
X-13578927Y881680D01*
X-13578926Y881683D01*
X-13576281Y886874D01*
X-13575370Y892626D01*
X-13575369Y892629D01*
X-13560955Y983639D01*
X-13560500Y986512D01*
X-13560500Y1553488D01*
X-13562912Y1568715D01*
X-13575369Y1647371D01*
X-13575370Y1647374D01*
X-13576281Y1653126D01*
X-13594557Y1688995D01*
X-13634826Y1768028D01*
X-13634828Y1768030D01*
X-13637472Y1773220D01*
X-13732780Y1868528D01*
X-13737972Y1871174D01*
X-13742679Y1874593D01*
X-13740904Y1877037D01*
X-13767654Y1905795D01*
X-13773500Y1934623D01*
X-13773500Y2481096D01*
X-12293682Y2481096D01*
X-12293049Y2476288D01*
X-12276342Y2349387D01*
X-12273044Y2324334D01*
X-12212536Y2178255D01*
X-12209586Y2174411D01*
X-12209584Y2174407D01*
X-12134444Y2076483D01*
X-12116282Y2052814D01*
X-12112431Y2049859D01*
X-11994689Y1959512D01*
X-11994685Y1959510D01*
X-11990841Y1956560D01*
X-11844762Y1896052D01*
X-11839960Y1895420D01*
X-11839957Y1895419D01*
X-11692808Y1876047D01*
X-11688000Y1875414D01*
X-11683192Y1876047D01*
X-11536043Y1895419D01*
X-11536040Y1895420D01*
X-11531238Y1896052D01*
X-11385159Y1956560D01*
X-11381315Y1959510D01*
X-11381311Y1959512D01*
X-11263569Y2049859D01*
X-11259718Y2052814D01*
X-11241556Y2076483D01*
X-11166416Y2174407D01*
X-11166414Y2174411D01*
X-11163464Y2178255D01*
X-11102956Y2324334D01*
X-11099657Y2349387D01*
X-11082951Y2476288D01*
X-11082318Y2481096D01*
X-11082951Y2485904D01*
X-11082951Y2489100D01*
X-11065638Y2536666D01*
X-11061277Y2541426D01*
X-10891516Y2711187D01*
X-10891513Y2711191D01*
X-10868950Y2733754D01*
X-10866308Y2738940D01*
X-10866304Y2738945D01*
X-10857103Y2757003D01*
X-10851041Y2766898D01*
X-10835704Y2788007D01*
X-10827643Y2812816D01*
X-10823199Y2823544D01*
X-10814000Y2841599D01*
X-10811354Y2846792D01*
X-10807273Y2872559D01*
X-10804562Y2883850D01*
X-10798300Y2903122D01*
X-10798300Y2903125D01*
X-10796500Y2908663D01*
X-10796500Y3799884D01*
X-10779187Y3847450D01*
X-10772591Y3854353D01*
X-10772561Y3854381D01*
X-10772560Y3854382D01*
X-10768844Y3857799D01*
X-10766187Y3862085D01*
X-10766184Y3862088D01*
X-10692024Y3981698D01*
X-10689365Y3985986D01*
X-10647285Y4130825D01*
X-10646869Y4136494D01*
X-10646599Y4140160D01*
X-10646599Y4140174D01*
X-10646500Y4141515D01*
X-10646500Y6149785D01*
X-10661794Y6261432D01*
X-10721695Y6399855D01*
X-10780009Y6471867D01*
X-10796500Y6518436D01*
X-10796500Y7068529D01*
X-10798753Y7075464D01*
X-10804562Y7093342D01*
X-10807273Y7104633D01*
X-10810443Y7124647D01*
X-10811354Y7130400D01*
X-10818547Y7144517D01*
X-10823199Y7153648D01*
X-10827643Y7164376D01*
X-10833815Y7183370D01*
X-10835704Y7189185D01*
X-10851041Y7210294D01*
X-10857103Y7220189D01*
X-10866304Y7238247D01*
X-10866308Y7238252D01*
X-10868950Y7243438D01*
X-10891513Y7266001D01*
X-10891516Y7266005D01*
X-10944826Y7319315D01*
X-10966218Y7365191D01*
X-10966500Y7371641D01*
X-10966501Y7728705D01*
X-10966501Y7731614D01*
X-10967995Y7741051D01*
X-10974617Y7782858D01*
X-10981354Y7825400D01*
X-11018914Y7899116D01*
X-11036304Y7933246D01*
X-11036306Y7933248D01*
X-11038950Y7938438D01*
X-11128658Y8028146D01*
X-11133848Y8030790D01*
X-11133850Y8030792D01*
X-11236502Y8083096D01*
X-11236505Y8083097D01*
X-11241696Y8085742D01*
X-11247448Y8086653D01*
X-11247451Y8086654D01*
X-11332608Y8100141D01*
X-11335481Y8100596D01*
X-11338390Y8100596D01*
X-11566999Y8100595D01*
X-11798518Y8100595D01*
X-11801390Y8100140D01*
X-11801392Y8100140D01*
X-11833090Y8095120D01*
X-11892304Y8085742D01*
X-11934211Y8064389D01*
X-12000150Y8030792D01*
X-12000152Y8030790D01*
X-12005342Y8028146D01*
X-12095050Y7938438D01*
X-12097694Y7933248D01*
X-12097696Y7933246D01*
X-12145308Y7839802D01*
X-12152646Y7825400D01*
X-12153557Y7819648D01*
X-12153558Y7819645D01*
X-12167045Y7734488D01*
X-12167500Y7731615D01*
X-12167499Y7118578D01*
X-12152646Y7024792D01*
X-12133184Y6986596D01*
X-12097696Y6916946D01*
X-12097694Y6916944D01*
X-12095050Y6911754D01*
X-12005342Y6822046D01*
X-12000152Y6819402D01*
X-12000150Y6819400D01*
X-11897498Y6767096D01*
X-11897495Y6767095D01*
X-11892304Y6764450D01*
X-11886552Y6763539D01*
X-11886549Y6763538D01*
X-11801398Y6750052D01*
X-11798519Y6749596D01*
X-11671500Y6749596D01*
X-11623934Y6732283D01*
X-11598624Y6688446D01*
X-11597500Y6675596D01*
X-11597500Y6524116D01*
X-11614813Y6476550D01*
X-11621409Y6469647D01*
X-11625156Y6466201D01*
X-11627813Y6461915D01*
X-11627816Y6461912D01*
X-11669162Y6395226D01*
X-11704635Y6338014D01*
X-11709785Y6320288D01*
X-11745532Y6197246D01*
X-11746715Y6193175D01*
X-11746999Y6189306D01*
X-11747401Y6183840D01*
X-11747401Y6183826D01*
X-11747500Y6182485D01*
X-11747500Y4174215D01*
X-11732206Y4062568D01*
X-11672305Y3924145D01*
X-11615811Y3854381D01*
X-11613991Y3852134D01*
X-11597500Y3805564D01*
X-11597500Y3168641D01*
X-11614813Y3121075D01*
X-11619174Y3116315D01*
X-11627670Y3107819D01*
X-11673546Y3086427D01*
X-11679996Y3086145D01*
X-11683192Y3086145D01*
X-11688000Y3086778D01*
X-11692808Y3086145D01*
X-11839957Y3066773D01*
X-11839960Y3066772D01*
X-11844762Y3066140D01*
X-11990841Y3005632D01*
X-11994685Y3002682D01*
X-11994689Y3002680D01*
X-12109624Y2914487D01*
X-12116282Y2909378D01*
X-12119237Y2905527D01*
X-12209584Y2787785D01*
X-12209586Y2787781D01*
X-12212536Y2783937D01*
X-12273044Y2637858D01*
X-12273676Y2633056D01*
X-12273677Y2633053D01*
X-12285927Y2540000D01*
X-12293682Y2481096D01*
X-13773500Y2481096D01*
X-13773500Y2529042D01*
X-13772987Y2537739D01*
X-13769287Y2569005D01*
X-13768636Y2574503D01*
X-13779319Y2632997D01*
X-13779701Y2635290D01*
X-13787729Y2688688D01*
X-13787729Y2688689D01*
X-13788551Y2694154D01*
X-13790876Y2698996D01*
X-13790961Y2699345D01*
X-13791047Y2699596D01*
X-13791770Y2701823D01*
X-13791866Y2702135D01*
X-13792011Y2702489D01*
X-13792975Y2707766D01*
X-13820392Y2760547D01*
X-13821427Y2762618D01*
X-13823485Y2766904D01*
X-13847191Y2816271D01*
X-13850834Y2820212D01*
X-13851375Y2821119D01*
X-13853475Y2824236D01*
X-13855421Y2827981D01*
X-13859725Y2833020D01*
X-13897695Y2870990D01*
X-13899709Y2873085D01*
X-13935393Y2911688D01*
X-13939146Y2915748D01*
X-13943928Y2918526D01*
X-13947295Y2921223D01*
X-13953354Y2926649D01*
X-14122730Y3096025D01*
X-14144122Y3141901D01*
X-14144404Y3148351D01*
X-14144404Y4314041D01*
X-14127091Y4361607D01*
X-14122730Y4366367D01*
X-12784061Y5705036D01*
X-12741393Y5726077D01*
X-12705971Y5730740D01*
X-12640044Y5739419D01*
X-12640042Y5739420D01*
X-12635238Y5740052D01*
X-12489159Y5800560D01*
X-12485315Y5803510D01*
X-12485311Y5803512D01*
X-12367569Y5893859D01*
X-12363718Y5896814D01*
X-12347407Y5918071D01*
X-12270416Y6018407D01*
X-12270414Y6018411D01*
X-12267464Y6022255D01*
X-12206956Y6168334D01*
X-12204997Y6183209D01*
X-12186951Y6320288D01*
X-12186318Y6325096D01*
X-12196676Y6403774D01*
X-12206323Y6477053D01*
X-12206324Y6477056D01*
X-12206956Y6481858D01*
X-12267464Y6627937D01*
X-12270414Y6631781D01*
X-12270416Y6631785D01*
X-12360763Y6749527D01*
X-12363718Y6753378D01*
X-12381596Y6767096D01*
X-12485311Y6846680D01*
X-12485315Y6846682D01*
X-12489159Y6849632D01*
X-12493634Y6851486D01*
X-12493640Y6851489D01*
X-12614302Y6901468D01*
X-12651623Y6935665D01*
X-12658230Y6985851D01*
X-12651921Y7003424D01*
X-12632281Y7041970D01*
X-12631370Y7047722D01*
X-12631369Y7047725D01*
X-12616955Y7138735D01*
X-12616500Y7141608D01*
X-12616500Y7708584D01*
X-12619687Y7728706D01*
X-12631369Y7802467D01*
X-12631370Y7802470D01*
X-12632281Y7808222D01*
X-12638101Y7819645D01*
X-12690826Y7923124D01*
X-12690828Y7923126D01*
X-12693472Y7928316D01*
X-12788780Y8023624D01*
X-12793970Y8026268D01*
X-12793972Y8026270D01*
X-12903680Y8082169D01*
X-12903683Y8082170D01*
X-12908874Y8084815D01*
X-12914626Y8085726D01*
X-12914629Y8085727D01*
X-13005639Y8100141D01*
X-13008512Y8100596D01*
X-13525488Y8100596D01*
X-13528361Y8100141D01*
X-13619371Y8085727D01*
X-13619374Y8085726D01*
X-13625126Y8084815D01*
X-13630317Y8082170D01*
X-13630320Y8082169D01*
X-13740028Y8026270D01*
X-13740030Y8026268D01*
X-13745220Y8023624D01*
X-13840528Y7928316D01*
X-13843172Y7923126D01*
X-13843174Y7923124D01*
X-13895899Y7819645D01*
X-13901719Y7808222D01*
X-13902630Y7802470D01*
X-13902631Y7802467D01*
X-13914313Y7728706D01*
X-13917500Y7708584D01*
X-13917500Y7141608D01*
X-13917045Y7138735D01*
X-13902631Y7047725D01*
X-13902630Y7047722D01*
X-13901719Y7041970D01*
X-13899074Y7036779D01*
X-13899073Y7036776D01*
X-13843174Y6927068D01*
X-13843172Y6927066D01*
X-13840528Y6921876D01*
X-13745220Y6826568D01*
X-13740034Y6823926D01*
X-13740029Y6823922D01*
X-13707905Y6807554D01*
X-13673383Y6770534D01*
X-13668833Y6748172D01*
X-13668411Y6748239D01*
X-13667500Y6742487D01*
X-13667500Y6736663D01*
X-13665700Y6731125D01*
X-13665700Y6731122D01*
X-13659438Y6711850D01*
X-13656727Y6700559D01*
X-13652646Y6674792D01*
X-13650000Y6669599D01*
X-13640802Y6651546D01*
X-13636358Y6640818D01*
X-13630717Y6623458D01*
X-13628296Y6616006D01*
X-13624874Y6611297D01*
X-13624872Y6611292D01*
X-13612961Y6594898D01*
X-13606894Y6584998D01*
X-13601098Y6573624D01*
X-13595050Y6561754D01*
X-13572487Y6539191D01*
X-13572484Y6539187D01*
X-13450626Y6417329D01*
X-13429234Y6371453D01*
X-13442335Y6322558D01*
X-13450626Y6312677D01*
X-14891430Y4871873D01*
X-14897943Y4866086D01*
X-14922670Y4846593D01*
X-14922672Y4846591D01*
X-14927014Y4843168D01*
X-14930158Y4838619D01*
X-14930159Y4838618D01*
X-14960830Y4794240D01*
X-14962182Y4792348D01*
X-14994252Y4748930D01*
X-14994254Y4748926D01*
X-14997538Y4744480D01*
X-14999316Y4739414D01*
X-14999501Y4739111D01*
X-14999628Y4738851D01*
X-15000678Y4736790D01*
X-15000840Y4736485D01*
X-15000984Y4736141D01*
X-15004035Y4731727D01*
X-15014695Y4698022D01*
X-15021967Y4675028D01*
X-15022702Y4672825D01*
X-15040589Y4621888D01*
X-15042423Y4616665D01*
X-15042633Y4611302D01*
X-15042891Y4610283D01*
X-15043610Y4606593D01*
X-15044884Y4602566D01*
X-15045404Y4595959D01*
X-15045404Y4542257D01*
X-15045461Y4539352D01*
X-15047742Y4481302D01*
X-15046326Y4475960D01*
X-15045851Y4471660D01*
X-15045404Y4463542D01*
X-15045404Y3455596D01*
X-15062717Y3408030D01*
X-15106554Y3382720D01*
X-15119404Y3381596D01*
X-15687458Y3381596D01*
X-15719955Y3389113D01*
X-15781322Y3419110D01*
X-15781323Y3419110D01*
X-15786482Y3421632D01*
X-15854782Y3431596D01*
X-17321218Y3431596D01*
X-17323899Y3431201D01*
X-17323903Y3431201D01*
X-17377723Y3423278D01*
X-17427303Y3433479D01*
X-17458727Y3473162D01*
X-17462500Y3496489D01*
X-17462500Y3615628D01*
X-17445187Y3663194D01*
X-17401350Y3688504D01*
X-17377818Y3688853D01*
X-17334153Y3682483D01*
X-17321218Y3680596D01*
X-15854782Y3680596D01*
X-15848637Y3681501D01*
X-15791577Y3689900D01*
X-15791574Y3689901D01*
X-15785888Y3690738D01*
X-15780728Y3693271D01*
X-15780726Y3693272D01*
X-15713591Y3726234D01*
X-15681145Y3742164D01*
X-15676824Y3746493D01*
X-15676822Y3746494D01*
X-15603028Y3820417D01*
X-15603027Y3820419D01*
X-15598707Y3824746D01*
X-15584221Y3854382D01*
X-15549988Y3924414D01*
X-15549988Y3924415D01*
X-15547464Y3929578D01*
X-15537500Y3997878D01*
X-15537500Y4364314D01*
X-15545041Y4415541D01*
X-15546804Y4427519D01*
X-15546805Y4427522D01*
X-15547642Y4433208D01*
X-15550305Y4438633D01*
X-15596372Y4532459D01*
X-15599068Y4537951D01*
X-15603397Y4542272D01*
X-15603398Y4542274D01*
X-15677321Y4616068D01*
X-15677323Y4616069D01*
X-15681650Y4620389D01*
X-15704577Y4631596D01*
X-15781318Y4669108D01*
X-15781319Y4669108D01*
X-15786482Y4671632D01*
X-15854782Y4681596D01*
X-17321218Y4681596D01*
X-17323901Y4681201D01*
X-17384423Y4672292D01*
X-17384426Y4672291D01*
X-17390112Y4671454D01*
X-17395272Y4668921D01*
X-17395274Y4668920D01*
X-17430169Y4651787D01*
X-17453893Y4640139D01*
X-17455867Y4639170D01*
X-17488480Y4631596D01*
X-17631754Y4631596D01*
X-17640451Y4632109D01*
X-17653701Y4633677D01*
X-17677215Y4636460D01*
X-17682657Y4635466D01*
X-17682659Y4635466D01*
X-17705478Y4631298D01*
X-17735724Y4625774D01*
X-17738004Y4625394D01*
X-17796866Y4616545D01*
X-17801706Y4614220D01*
X-17802051Y4614136D01*
X-17802314Y4614046D01*
X-17804534Y4613325D01*
X-17804852Y4613227D01*
X-17805200Y4613085D01*
X-17810477Y4612121D01*
X-17857297Y4587800D01*
X-17863244Y4584711D01*
X-17865324Y4583672D01*
X-17913999Y4560299D01*
X-17914003Y4560297D01*
X-17918983Y4557905D01*
X-17922924Y4554262D01*
X-17923831Y4553721D01*
X-17926948Y4551621D01*
X-17930693Y4549675D01*
X-17935732Y4545371D01*
X-17973702Y4507401D01*
X-17975797Y4505387D01*
X-18018460Y4465950D01*
X-18021238Y4461168D01*
X-18023935Y4457801D01*
X-18029361Y4451742D01*
X-18209526Y4271577D01*
X-18216039Y4265790D01*
X-18240766Y4246297D01*
X-18240768Y4246295D01*
X-18245110Y4242872D01*
X-18248254Y4238323D01*
X-18248255Y4238322D01*
X-18278926Y4193944D01*
X-18280278Y4192052D01*
X-18312348Y4148634D01*
X-18312350Y4148630D01*
X-18315634Y4144184D01*
X-18317412Y4139118D01*
X-18317597Y4138815D01*
X-18317724Y4138555D01*
X-18318774Y4136494D01*
X-18318936Y4136189D01*
X-18319080Y4135845D01*
X-18322131Y4131431D01*
X-18323800Y4126153D01*
X-18340063Y4074732D01*
X-18340798Y4072529D01*
X-18345922Y4057937D01*
X-18360519Y4016369D01*
X-18360729Y4011006D01*
X-18360987Y4009987D01*
X-18361706Y4006297D01*
X-18362980Y4002270D01*
X-18363500Y3995663D01*
X-18363500Y3941961D01*
X-18363557Y3939056D01*
X-18365838Y3881006D01*
X-18364422Y3875664D01*
X-18363947Y3871364D01*
X-18363500Y3863246D01*
X-18363500Y-5169849D01*
X-18364013Y-5178546D01*
X-18368364Y-5215310D01*
X-21089500Y-5215310D01*
X-21089500Y5407296D01*
X-18690482Y5407296D01*
X-18689849Y5402488D01*
X-18670738Y5257328D01*
X-18669844Y5250534D01*
X-18609336Y5104455D01*
X-18606386Y5100611D01*
X-18606384Y5100607D01*
X-18523172Y4992164D01*
X-18513082Y4979014D01*
X-18509231Y4976059D01*
X-18391489Y4885712D01*
X-18391485Y4885710D01*
X-18387641Y4882760D01*
X-18241562Y4822252D01*
X-18236760Y4821620D01*
X-18236757Y4821619D01*
X-18089608Y4802247D01*
X-18084800Y4801614D01*
X-18079992Y4802247D01*
X-17932843Y4821619D01*
X-17932840Y4821620D01*
X-17928038Y4822252D01*
X-17781959Y4882760D01*
X-17778115Y4885710D01*
X-17778111Y4885712D01*
X-17674385Y4965304D01*
X-17629337Y4980596D01*
X-17488542Y4980596D01*
X-17456045Y4973079D01*
X-17394678Y4943082D01*
X-17394677Y4943082D01*
X-17389518Y4940560D01*
X-17321218Y4930596D01*
X-15854782Y4930596D01*
X-15848637Y4931501D01*
X-15791577Y4939900D01*
X-15791574Y4939901D01*
X-15785888Y4940738D01*
X-15780728Y4943271D01*
X-15780726Y4943272D01*
X-15720017Y4973079D01*
X-15681145Y4992164D01*
X-15676824Y4996493D01*
X-15676822Y4996494D01*
X-15603028Y5070417D01*
X-15603027Y5070419D01*
X-15598707Y5074746D01*
X-15584185Y5104455D01*
X-15549988Y5174414D01*
X-15549988Y5174415D01*
X-15547464Y5179578D01*
X-15537500Y5247878D01*
X-15537500Y5614314D01*
X-15545912Y5671456D01*
X-15546804Y5677519D01*
X-15546805Y5677522D01*
X-15547642Y5683208D01*
X-15568689Y5726077D01*
X-15576680Y5742351D01*
X-15599068Y5787951D01*
X-15603397Y5792272D01*
X-15603398Y5792274D01*
X-15677321Y5866068D01*
X-15677323Y5866069D01*
X-15681650Y5870389D01*
X-15720072Y5889170D01*
X-15781318Y5919108D01*
X-15781319Y5919108D01*
X-15786482Y5921632D01*
X-15854782Y5931596D01*
X-17321218Y5931596D01*
X-17323901Y5931201D01*
X-17384423Y5922292D01*
X-17384426Y5922291D01*
X-17390112Y5921454D01*
X-17395272Y5918921D01*
X-17395274Y5918920D01*
X-17430188Y5901778D01*
X-17440147Y5896888D01*
X-17455867Y5889170D01*
X-17488480Y5881596D01*
X-17691371Y5881596D01*
X-17736419Y5896888D01*
X-17778111Y5928880D01*
X-17778115Y5928882D01*
X-17781959Y5931832D01*
X-17928038Y5992340D01*
X-17932840Y5992972D01*
X-17932843Y5992973D01*
X-18079992Y6012345D01*
X-18084800Y6012978D01*
X-18089608Y6012345D01*
X-18236757Y5992973D01*
X-18236760Y5992972D01*
X-18241562Y5992340D01*
X-18387641Y5931832D01*
X-18391485Y5928882D01*
X-18391489Y5928880D01*
X-18509231Y5838533D01*
X-18513082Y5835578D01*
X-18516037Y5831727D01*
X-18606384Y5713985D01*
X-18606386Y5713981D01*
X-18609336Y5710137D01*
X-18669844Y5564058D01*
X-18670476Y5559256D01*
X-18670477Y5559253D01*
X-18683737Y5458527D01*
X-18690482Y5407296D01*
X-21089500Y5407296D01*
X-21089500Y8950500D01*
X-21072187Y8998066D01*
X-21028350Y9023376D01*
X-21015500Y9024500D01*
X15335500Y9024500D01*
X15383066Y9007187D01*
G37*
%TD.AperFunction*%
%TD*%
M02*
