%TF.GenerationSoftware,KiCad,Pcbnew,6.0.11+dfsg-1~bpo11+1*%
%TF.CreationDate,2023-06-16T00:39:59+00:00*%
%TF.ProjectId,TFRPM01,54465250-4d30-4312-9e6b-696361645f70,rev?*%
%TF.SameCoordinates,PX7e721e0PY7e33658*%
%TF.FileFunction,Legend,Top*%
%TF.FilePolarity,Positive*%
%FSLAX46Y46*%
G04 Gerber Fmt 4.6, Leading zero omitted, Abs format (unit mm)*
G04 Created by KiCad (PCBNEW 6.0.11+dfsg-1~bpo11+1) date 2023-06-16 00:39:59*
%MOMM*%
%LPD*%
G01*
G04 APERTURE LIST*
%ADD10C,0.150000*%
%ADD11C,0.100000*%
%ADD12C,0.120000*%
G04 APERTURE END LIST*
D10*
X10369000Y-3050904D02*
X10369000Y-2161904D01*
X11131000Y-2161904D02*
X11131000Y-3050904D01*
X9734000Y-3050904D02*
X10369000Y-3050904D01*
X11131000Y-3050904D02*
X11893000Y-3050904D01*
X10369000Y-2161904D02*
X11131000Y-2161904D01*
X7773023Y-95761D02*
X8763500Y-95761D01*
X8268261Y-590999D02*
X8268261Y399477D01*
X10001595Y709001D02*
X9382547Y709001D01*
X9320642Y89954D01*
X9382547Y151858D01*
X9506357Y213763D01*
X9815880Y213763D01*
X9939690Y151858D01*
X10001595Y89954D01*
X10063500Y-33856D01*
X10063500Y-343380D01*
X10001595Y-467189D01*
X9939690Y-529094D01*
X9815880Y-590999D01*
X9506357Y-590999D01*
X9382547Y-529094D01*
X9320642Y-467189D01*
X10434928Y709001D02*
X10868261Y-590999D01*
X11301595Y709001D01*
D11*
X3399304Y-5957684D02*
X3970733Y-5957684D01*
X3685019Y-6957684D02*
X3685019Y-5957684D01*
X4637400Y-6433875D02*
X4304066Y-6433875D01*
X4304066Y-6957684D02*
X4304066Y-5957684D01*
X4780257Y-5957684D01*
X5732638Y-6957684D02*
X5399304Y-6481494D01*
X5161209Y-6957684D02*
X5161209Y-5957684D01*
X5542161Y-5957684D01*
X5637400Y-6005304D01*
X5685019Y-6052923D01*
X5732638Y-6148161D01*
X5732638Y-6291018D01*
X5685019Y-6386256D01*
X5637400Y-6433875D01*
X5542161Y-6481494D01*
X5161209Y-6481494D01*
X6161209Y-6957684D02*
X6161209Y-5957684D01*
X6542161Y-5957684D01*
X6637400Y-6005304D01*
X6685019Y-6052923D01*
X6732638Y-6148161D01*
X6732638Y-6291018D01*
X6685019Y-6386256D01*
X6637400Y-6433875D01*
X6542161Y-6481494D01*
X6161209Y-6481494D01*
X7161209Y-6957684D02*
X7161209Y-5957684D01*
X7494542Y-6671970D01*
X7827876Y-5957684D01*
X7827876Y-6957684D01*
X8494542Y-5957684D02*
X8589780Y-5957684D01*
X8685019Y-6005304D01*
X8732638Y-6052923D01*
X8780257Y-6148161D01*
X8827876Y-6338637D01*
X8827876Y-6576732D01*
X8780257Y-6767208D01*
X8732638Y-6862446D01*
X8685019Y-6910065D01*
X8589780Y-6957684D01*
X8494542Y-6957684D01*
X8399304Y-6910065D01*
X8351685Y-6862446D01*
X8304066Y-6767208D01*
X8256447Y-6576732D01*
X8256447Y-6338637D01*
X8304066Y-6148161D01*
X8351685Y-6052923D01*
X8399304Y-6005304D01*
X8494542Y-5957684D01*
X9780257Y-6957684D02*
X9208828Y-6957684D01*
X9494542Y-6957684D02*
X9494542Y-5957684D01*
X9399304Y-6100542D01*
X9304066Y-6195780D01*
X9208828Y-6243399D01*
X10208828Y-6957684D02*
X10208828Y-5957684D01*
X10446923Y-5957684D01*
X10589780Y-6005304D01*
X10685019Y-6100542D01*
X10732638Y-6195780D01*
X10780257Y-6386256D01*
X10780257Y-6529113D01*
X10732638Y-6719589D01*
X10685019Y-6814827D01*
X10589780Y-6910065D01*
X10446923Y-6957684D01*
X10208828Y-6957684D01*
D10*
X8453976Y3187096D02*
X8330166Y3249001D01*
X8144452Y3249001D01*
X7958738Y3187096D01*
X7834928Y3063287D01*
X7773023Y2939477D01*
X7711119Y2691858D01*
X7711119Y2506144D01*
X7773023Y2258525D01*
X7834928Y2134716D01*
X7958738Y2010906D01*
X8144452Y1949001D01*
X8268261Y1949001D01*
X8453976Y2010906D01*
X8515880Y2072811D01*
X8515880Y2506144D01*
X8268261Y2506144D01*
X9073023Y1949001D02*
X9073023Y3249001D01*
X9815880Y1949001D01*
X9815880Y3249001D01*
X10434928Y1949001D02*
X10434928Y3249001D01*
X10744452Y3249001D01*
X10930166Y3187096D01*
X11053976Y3063287D01*
X11115880Y2939477D01*
X11177785Y2691858D01*
X11177785Y2506144D01*
X11115880Y2258525D01*
X11053976Y2134716D01*
X10930166Y2010906D01*
X10744452Y1949001D01*
X10434928Y1949001D01*
D11*
X5524714Y-7830923D02*
X5572333Y-7783304D01*
X5667571Y-7735684D01*
X5905666Y-7735684D01*
X6000904Y-7783304D01*
X6048523Y-7830923D01*
X6096142Y-7926161D01*
X6096142Y-8021399D01*
X6048523Y-8164256D01*
X5477095Y-8735684D01*
X6096142Y-8735684D01*
X6715190Y-7735684D02*
X6810428Y-7735684D01*
X6905666Y-7783304D01*
X6953285Y-7830923D01*
X7000904Y-7926161D01*
X7048523Y-8116637D01*
X7048523Y-8354732D01*
X7000904Y-8545208D01*
X6953285Y-8640446D01*
X6905666Y-8688065D01*
X6810428Y-8735684D01*
X6715190Y-8735684D01*
X6619952Y-8688065D01*
X6572333Y-8640446D01*
X6524714Y-8545208D01*
X6477095Y-8354732D01*
X6477095Y-8116637D01*
X6524714Y-7926161D01*
X6572333Y-7830923D01*
X6619952Y-7783304D01*
X6715190Y-7735684D01*
X7429476Y-7830923D02*
X7477095Y-7783304D01*
X7572333Y-7735684D01*
X7810428Y-7735684D01*
X7905666Y-7783304D01*
X7953285Y-7830923D01*
X8000904Y-7926161D01*
X8000904Y-8021399D01*
X7953285Y-8164256D01*
X7381857Y-8735684D01*
X8000904Y-8735684D01*
X8334238Y-7735684D02*
X8953285Y-7735684D01*
X8619952Y-8116637D01*
X8762809Y-8116637D01*
X8858047Y-8164256D01*
X8905666Y-8211875D01*
X8953285Y-8307113D01*
X8953285Y-8545208D01*
X8905666Y-8640446D01*
X8858047Y-8688065D01*
X8762809Y-8735684D01*
X8477095Y-8735684D01*
X8381857Y-8688065D01*
X8334238Y-8640446D01*
D10*
X7773023Y-3130999D02*
X7773023Y-1830999D01*
X8392071Y-3130999D02*
X8392071Y-1830999D01*
X9134928Y-3130999D01*
X9134928Y-1830999D01*
X-20654096Y1269048D02*
X-19354096Y1269048D01*
X-19477905Y711905D02*
X-19416000Y650000D01*
X-19354096Y526191D01*
X-19354096Y216667D01*
X-19416000Y92858D01*
X-19477905Y30953D01*
X-19601715Y-30952D01*
X-19725524Y-30952D01*
X-19911239Y30953D01*
X-20654096Y773810D01*
X-20654096Y-30952D01*
X-20530286Y-1330952D02*
X-20592191Y-1269047D01*
X-20654096Y-1083333D01*
X-20654096Y-959523D01*
X-20592191Y-773809D01*
X-20468381Y-650000D01*
X-20344572Y-588095D01*
X-20096953Y-526190D01*
X-19911239Y-526190D01*
X-19663620Y-588095D01*
X-19539810Y-650000D01*
X-19416000Y-773809D01*
X-19354096Y-959523D01*
X-19354096Y-1083333D01*
X-19416000Y-1269047D01*
X-19477905Y-1330952D01*
X-7440548Y-7688095D02*
X-7440548Y-6388095D01*
X-6945310Y-6388095D01*
X-6821500Y-6450000D01*
X-6759596Y-6511904D01*
X-6697691Y-6635714D01*
X-6697691Y-6821428D01*
X-6759596Y-6945238D01*
X-6821500Y-7007142D01*
X-6945310Y-7069047D01*
X-7440548Y-7069047D01*
X-6140548Y-6388095D02*
X-6140548Y-7440476D01*
X-6078643Y-7564285D01*
X-6016739Y-7626190D01*
X-5892929Y-7688095D01*
X-5645310Y-7688095D01*
X-5521500Y-7626190D01*
X-5459596Y-7564285D01*
X-5397691Y-7440476D01*
X-5397691Y-6388095D01*
X-4159596Y-7688095D02*
X-4778643Y-7688095D01*
X-4778643Y-6388095D01*
X-3788167Y-7626190D02*
X-3602453Y-7688095D01*
X-3292929Y-7688095D01*
X-3169120Y-7626190D01*
X-3107215Y-7564285D01*
X-3045310Y-7440476D01*
X-3045310Y-7316666D01*
X-3107215Y-7192857D01*
X-3169120Y-7130952D01*
X-3292929Y-7069047D01*
X-3540548Y-7007142D01*
X-3664358Y-6945238D01*
X-3726262Y-6883333D01*
X-3788167Y-6759523D01*
X-3788167Y-6635714D01*
X-3726262Y-6511904D01*
X-3664358Y-6450000D01*
X-3540548Y-6388095D01*
X-3231024Y-6388095D01*
X-3045310Y-6450000D01*
X-2488167Y-7007142D02*
X-2054834Y-7007142D01*
X-1869120Y-7688095D02*
X-2488167Y-7688095D01*
X-2488167Y-6388095D01*
X-1869120Y-6388095D01*
D11*
X-12077248Y-2325484D02*
X-11982010Y-2325484D01*
X-11886772Y-2373104D01*
X-11839153Y-2420723D01*
X-11791534Y-2515961D01*
X-11743915Y-2706437D01*
X-11743915Y-2944532D01*
X-11791534Y-3135008D01*
X-11839153Y-3230246D01*
X-11886772Y-3277865D01*
X-11982010Y-3325484D01*
X-12077248Y-3325484D01*
X-12172486Y-3277865D01*
X-12220105Y-3230246D01*
X-12267724Y-3135008D01*
X-12315343Y-2944532D01*
X-12315343Y-2706437D01*
X-12267724Y-2515961D01*
X-12220105Y-2420723D01*
X-12172486Y-2373104D01*
X-12077248Y-2325484D01*
X-11410581Y-3325484D02*
X-10886772Y-2658818D01*
X-11410581Y-2658818D02*
X-10886772Y-3325484D01*
X-10029629Y-2325484D02*
X-10505820Y-2325484D01*
X-10553439Y-2801675D01*
X-10505820Y-2754056D01*
X-10410581Y-2706437D01*
X-10172486Y-2706437D01*
X-10077248Y-2754056D01*
X-10029629Y-2801675D01*
X-9982010Y-2896913D01*
X-9982010Y-3135008D01*
X-10029629Y-3230246D01*
X-10077248Y-3277865D01*
X-10172486Y-3325484D01*
X-10410581Y-3325484D01*
X-10505820Y-3277865D01*
X-10553439Y-3230246D01*
X-9362962Y-2325484D02*
X-9267724Y-2325484D01*
X-9172486Y-2373104D01*
X-9124867Y-2420723D01*
X-9077248Y-2515961D01*
X-9029629Y-2706437D01*
X-9029629Y-2944532D01*
X-9077248Y-3135008D01*
X-9124867Y-3230246D01*
X-9172486Y-3277865D01*
X-9267724Y-3325484D01*
X-9362962Y-3325484D01*
X-9458200Y-3277865D01*
X-9505820Y-3230246D01*
X-9553439Y-3135008D01*
X-9601058Y-2944532D01*
X-9601058Y-2706437D01*
X-9553439Y-2515961D01*
X-9505820Y-2420723D01*
X-9458200Y-2373104D01*
X-9362962Y-2325484D01*
X-7648677Y-2325484D02*
X-7553439Y-2325484D01*
X-7458200Y-2373104D01*
X-7410581Y-2420723D01*
X-7362962Y-2515961D01*
X-7315343Y-2706437D01*
X-7315343Y-2944532D01*
X-7362962Y-3135008D01*
X-7410581Y-3230246D01*
X-7458200Y-3277865D01*
X-7553439Y-3325484D01*
X-7648677Y-3325484D01*
X-7743915Y-3277865D01*
X-7791534Y-3230246D01*
X-7839153Y-3135008D01*
X-7886772Y-2944532D01*
X-7886772Y-2706437D01*
X-7839153Y-2515961D01*
X-7791534Y-2420723D01*
X-7743915Y-2373104D01*
X-7648677Y-2325484D01*
X-6982010Y-3325484D02*
X-6458200Y-2658818D01*
X-6982010Y-2658818D02*
X-6458200Y-3325484D01*
X-5601058Y-2325484D02*
X-6077248Y-2325484D01*
X-6124867Y-2801675D01*
X-6077248Y-2754056D01*
X-5982010Y-2706437D01*
X-5743915Y-2706437D01*
X-5648677Y-2754056D01*
X-5601058Y-2801675D01*
X-5553439Y-2896913D01*
X-5553439Y-3135008D01*
X-5601058Y-3230246D01*
X-5648677Y-3277865D01*
X-5743915Y-3325484D01*
X-5982010Y-3325484D01*
X-6077248Y-3277865D01*
X-6124867Y-3230246D01*
X-4601058Y-3325484D02*
X-5172486Y-3325484D01*
X-4886772Y-3325484D02*
X-4886772Y-2325484D01*
X-4982010Y-2468342D01*
X-5077248Y-2563580D01*
X-5172486Y-2611199D01*
D10*
X-15473691Y-7688095D02*
X-15473691Y-6388095D01*
X-14978453Y-6388095D01*
X-14854643Y-6450000D01*
X-14792739Y-6511904D01*
X-14730834Y-6635714D01*
X-14730834Y-6821428D01*
X-14792739Y-6945238D01*
X-14854643Y-7007142D01*
X-14978453Y-7069047D01*
X-15473691Y-7069047D01*
X-14297500Y-6388095D02*
X-13987977Y-7688095D01*
X-13740358Y-6759523D01*
X-13492739Y-7688095D01*
X-13183215Y-6388095D01*
X-11945120Y-7688095D02*
X-12378453Y-7069047D01*
X-12687977Y-7688095D02*
X-12687977Y-6388095D01*
X-12192739Y-6388095D01*
X-12068929Y-6450000D01*
X-12007024Y-6511904D01*
X-11945120Y-6635714D01*
X-11945120Y-6821428D01*
X-12007024Y-6945238D01*
X-12068929Y-7007142D01*
X-12192739Y-7069047D01*
X-12687977Y-7069047D01*
D11*
%TO.C,JP1*%
X-9175667Y1730592D02*
X-9175667Y1159163D01*
X-9213762Y1044877D01*
X-9289953Y968687D01*
X-9404239Y930592D01*
X-9480429Y930592D01*
X-8794715Y930592D02*
X-8794715Y1730592D01*
X-8489953Y1730592D01*
X-8413762Y1692496D01*
X-8375667Y1654401D01*
X-8337572Y1578211D01*
X-8337572Y1463925D01*
X-8375667Y1387735D01*
X-8413762Y1349639D01*
X-8489953Y1311544D01*
X-8794715Y1311544D01*
X-7575667Y930592D02*
X-8032810Y930592D01*
X-7804239Y930592D02*
X-7804239Y1730592D01*
X-7880429Y1616306D01*
X-7956620Y1540116D01*
X-8032810Y1502020D01*
D12*
X-10009000Y-1807704D02*
X-9409000Y-1807704D01*
X-9709000Y-1507704D02*
X-10009000Y-1807704D01*
X-7109000Y-1307704D02*
X-9909000Y-1307704D01*
X-9909000Y692296D02*
X-7109000Y692296D01*
X-6459000Y-7704D02*
X-6459000Y-607704D01*
X-10559000Y-607704D02*
X-10559000Y-7704D01*
X-9709000Y-1507704D02*
X-9409000Y-1807704D01*
X-7159000Y-1307704D02*
G75*
G03*
X-6459000Y-607704I0J700000D01*
G01*
X-6459000Y-7704D02*
G75*
G03*
X-7159000Y692296I-700000J0D01*
G01*
X-9859000Y692296D02*
G75*
G03*
X-10559000Y-7704I-1J-699999D01*
G01*
X-10559000Y-607704D02*
G75*
G03*
X-9859000Y-1307704I699999J-1D01*
G01*
%TO.C,G1*%
G36*
X-16166883Y5717741D02*
G01*
X-16664922Y5717741D01*
X-16664922Y4278961D01*
X-16985881Y4278961D01*
X-16985881Y5717741D01*
X-17483920Y5717741D01*
X-17483920Y6027632D01*
X-16166883Y6027632D01*
X-16166883Y5717741D01*
G37*
G36*
X-5898363Y3857812D02*
G01*
X-5851361Y3855997D01*
X-5822280Y3852747D01*
X-5809026Y3847888D01*
X-5807667Y3845093D01*
X-5809541Y3832333D01*
X-5814966Y3799460D01*
X-5823653Y3748163D01*
X-5835308Y3680127D01*
X-5849640Y3597041D01*
X-5866357Y3500589D01*
X-5885167Y3392460D01*
X-5905778Y3274341D01*
X-5927898Y3147917D01*
X-5951236Y3014876D01*
X-5957079Y2981618D01*
X-5980662Y2847291D01*
X-6003100Y2719223D01*
X-6024100Y2599095D01*
X-6043372Y2488587D01*
X-6060624Y2389380D01*
X-6075564Y2303155D01*
X-6087901Y2231591D01*
X-6097342Y2176370D01*
X-6103597Y2139171D01*
X-6106374Y2121676D01*
X-6106491Y2120583D01*
X-6117153Y2116241D01*
X-6147552Y2112880D01*
X-6195304Y2110659D01*
X-6258026Y2109739D01*
X-6268353Y2109723D01*
X-6430216Y2109723D01*
X-6424470Y2140159D01*
X-6421682Y2155703D01*
X-6415382Y2191311D01*
X-6405876Y2245244D01*
X-6393471Y2315761D01*
X-6378470Y2401123D01*
X-6361181Y2499590D01*
X-6341908Y2609424D01*
X-6320957Y2728883D01*
X-6298634Y2856229D01*
X-6275243Y2989722D01*
X-6270908Y3014470D01*
X-6123092Y3858346D01*
X-5965379Y3858370D01*
X-5898363Y3857812D01*
G37*
G36*
X-2623349Y8207636D02*
G01*
X-2575666Y8206807D01*
X-2540715Y8205565D01*
X-2522401Y8204021D01*
X-2520608Y8203332D01*
X-2522476Y8191553D01*
X-2527845Y8159991D01*
X-2536360Y8110657D01*
X-2547667Y8045564D01*
X-2561412Y7966726D01*
X-2577241Y7876154D01*
X-2594800Y7775862D01*
X-2613735Y7667863D01*
X-2633692Y7554169D01*
X-2654316Y7436793D01*
X-2675253Y7317747D01*
X-2696151Y7199045D01*
X-2716653Y7082700D01*
X-2736406Y6970723D01*
X-2755057Y6865128D01*
X-2772251Y6767928D01*
X-2787634Y6681135D01*
X-2800851Y6606762D01*
X-2811549Y6546822D01*
X-2819374Y6503328D01*
X-2823971Y6478291D01*
X-2825000Y6473100D01*
X-2828111Y6463366D01*
X-2834363Y6456570D01*
X-2847254Y6452183D01*
X-2870279Y6449680D01*
X-2906934Y6448532D01*
X-2960716Y6448212D01*
X-2990153Y6448198D01*
X-3052528Y6448399D01*
X-3095982Y6449270D01*
X-3123730Y6451213D01*
X-3138984Y6454630D01*
X-3144958Y6459924D01*
X-3144865Y6467498D01*
X-3144849Y6467566D01*
X-3142254Y6481352D01*
X-3136159Y6515211D01*
X-3126868Y6567413D01*
X-3114687Y6636226D01*
X-3099921Y6719918D01*
X-3082874Y6816759D01*
X-3063853Y6925017D01*
X-3043161Y7042960D01*
X-3021105Y7168856D01*
X-2997988Y7300975D01*
X-2996154Y7311466D01*
X-2972893Y7444503D01*
X-2950625Y7571829D01*
X-2929664Y7691669D01*
X-2910318Y7802244D01*
X-2892901Y7901777D01*
X-2877722Y7988491D01*
X-2865093Y8060609D01*
X-2855324Y8116352D01*
X-2848728Y8153944D01*
X-2845614Y8171607D01*
X-2845550Y8171967D01*
X-2839103Y8207937D01*
X-2679856Y8207937D01*
X-2623349Y8207636D01*
G37*
G36*
X-3795431Y8177501D02*
G01*
X-3798031Y8161973D01*
X-3804155Y8126376D01*
X-3813499Y8072444D01*
X-3825762Y8001909D01*
X-3840642Y7916505D01*
X-3857835Y7817966D01*
X-3877041Y7708024D01*
X-3897956Y7588413D01*
X-3920278Y7460865D01*
X-3943706Y7327115D01*
X-3948866Y7297671D01*
X-4097732Y6448278D01*
X-4255445Y6448238D01*
X-4320134Y6448658D01*
X-4365475Y6450129D01*
X-4394239Y6452906D01*
X-4409201Y6457246D01*
X-4413157Y6462849D01*
X-4411281Y6476116D01*
X-4405889Y6509141D01*
X-4397339Y6559895D01*
X-4385987Y6626346D01*
X-4372189Y6706464D01*
X-4356303Y6798220D01*
X-4338685Y6899584D01*
X-4319692Y7008524D01*
X-4299679Y7123010D01*
X-4279005Y7241014D01*
X-4258025Y7360504D01*
X-4237097Y7479449D01*
X-4216576Y7595821D01*
X-4196820Y7707589D01*
X-4178185Y7812722D01*
X-4161027Y7909190D01*
X-4145704Y7994963D01*
X-4132572Y8068011D01*
X-4121987Y8126304D01*
X-4114307Y8167812D01*
X-4109888Y8190504D01*
X-4109035Y8194102D01*
X-4100173Y8200026D01*
X-4077103Y8204158D01*
X-4037525Y8206693D01*
X-3979139Y8207829D01*
X-3947412Y8207937D01*
X-3790863Y8207937D01*
X-3795431Y8177501D01*
G37*
G36*
X-4549570Y3833492D02*
G01*
X-4552401Y3818813D01*
X-4558729Y3784069D01*
X-4568244Y3730999D01*
X-4580641Y3661346D01*
X-4595610Y3576848D01*
X-4612845Y3479247D01*
X-4632038Y3370284D01*
X-4652880Y3251697D01*
X-4675064Y3125229D01*
X-4698282Y2992620D01*
X-4700748Y2978525D01*
X-4724036Y2845542D01*
X-4746316Y2718645D01*
X-4767283Y2599558D01*
X-4786629Y2490007D01*
X-4804047Y2391717D01*
X-4819233Y2306414D01*
X-4831878Y2235823D01*
X-4841677Y2181670D01*
X-4848323Y2145680D01*
X-4851509Y2129579D01*
X-4851636Y2129091D01*
X-4855976Y2121435D01*
X-4866002Y2116090D01*
X-4885145Y2112650D01*
X-4916834Y2110713D01*
X-4964500Y2109875D01*
X-5016048Y2109723D01*
X-5078301Y2109925D01*
X-5121639Y2110800D01*
X-5149280Y2112753D01*
X-5164442Y2116187D01*
X-5170343Y2121508D01*
X-5170209Y2129091D01*
X-5167616Y2142877D01*
X-5161524Y2176737D01*
X-5152240Y2228940D01*
X-5140067Y2297754D01*
X-5125310Y2381448D01*
X-5108275Y2478291D01*
X-5089267Y2586550D01*
X-5068590Y2704495D01*
X-5046548Y2830394D01*
X-5023448Y2962515D01*
X-5021618Y2972991D01*
X-4998392Y3105861D01*
X-4976165Y3232895D01*
X-4955246Y3352330D01*
X-4935943Y3462405D01*
X-4918568Y3561357D01*
X-4903430Y3647424D01*
X-4890838Y3718844D01*
X-4881101Y3773856D01*
X-4874531Y3810696D01*
X-4871436Y3827603D01*
X-4871365Y3827959D01*
X-4865168Y3858394D01*
X-4543568Y3858394D01*
X-4549570Y3833492D01*
G37*
G36*
X-5049382Y8183035D02*
G01*
X-5052181Y8168343D01*
X-5058474Y8133591D01*
X-5067952Y8080527D01*
X-5080307Y8010897D01*
X-5095231Y7926449D01*
X-5112416Y7828928D01*
X-5131554Y7720082D01*
X-5152336Y7601658D01*
X-5174454Y7475402D01*
X-5197600Y7343061D01*
X-5199253Y7333601D01*
X-5222481Y7200732D01*
X-5244710Y7073698D01*
X-5265630Y6954263D01*
X-5284932Y6844189D01*
X-5302306Y6745237D01*
X-5317443Y6659170D01*
X-5330033Y6587749D01*
X-5339765Y6532738D01*
X-5346331Y6495897D01*
X-5349421Y6478989D01*
X-5349492Y6478634D01*
X-5355657Y6448198D01*
X-5677256Y6448198D01*
X-5671256Y6473100D01*
X-5668407Y6487858D01*
X-5662072Y6522642D01*
X-5652564Y6575674D01*
X-5640198Y6645174D01*
X-5625289Y6729363D01*
X-5608152Y6826461D01*
X-5589100Y6934690D01*
X-5568449Y7052270D01*
X-5546513Y7177421D01*
X-5525966Y7294865D01*
X-5502963Y7426351D01*
X-5480828Y7552650D01*
X-5459893Y7671884D01*
X-5440490Y7782178D01*
X-5422950Y7881652D01*
X-5407603Y7968430D01*
X-5394783Y8040634D01*
X-5384820Y8096387D01*
X-5378045Y8133812D01*
X-5375037Y8149832D01*
X-5363396Y8207937D01*
X-5043585Y8207937D01*
X-5049382Y8183035D01*
G37*
G36*
X-11735551Y5465954D02*
G01*
X-11363644Y4904277D01*
X-11363608Y5465954D01*
X-11363571Y6027632D01*
X-11042613Y6027632D01*
X-11042613Y4278961D01*
X-11304644Y4278961D01*
X-12105072Y5479789D01*
X-12105096Y4278961D01*
X-12426055Y4278961D01*
X-12426055Y6027632D01*
X-12107458Y6027632D01*
X-11735551Y5465954D01*
G37*
G36*
X-4346966Y6025503D02*
G01*
X-4328414Y6025178D01*
X-4174203Y6022098D01*
X-4292642Y5346978D01*
X-4313782Y5226424D01*
X-4333929Y5111433D01*
X-4352731Y5004014D01*
X-4369839Y4906176D01*
X-4384901Y4819929D01*
X-4397566Y4747282D01*
X-4407484Y4690245D01*
X-4414303Y4650828D01*
X-4417672Y4631039D01*
X-4417783Y4630355D01*
X-4424486Y4588852D01*
X-4125532Y4588852D01*
X-4035952Y4588744D01*
X-3966101Y4588324D01*
X-3913573Y4587447D01*
X-3875962Y4585967D01*
X-3850863Y4583739D01*
X-3835871Y4580617D01*
X-3828579Y4576456D01*
X-3826582Y4571111D01*
X-3826578Y4570788D01*
X-3828429Y4553366D01*
X-3833477Y4519033D01*
X-3840965Y4472654D01*
X-3850133Y4419099D01*
X-3850706Y4415843D01*
X-3874835Y4278961D01*
X-4337678Y4278961D01*
X-4436460Y4279025D01*
X-4528018Y4279207D01*
X-4610064Y4279494D01*
X-4680309Y4279873D01*
X-4736463Y4280329D01*
X-4776238Y4280849D01*
X-4797344Y4281419D01*
X-4800182Y4281728D01*
X-4797292Y4300431D01*
X-4790948Y4338195D01*
X-4781505Y4393020D01*
X-4769323Y4462909D01*
X-4754758Y4545864D01*
X-4738168Y4639886D01*
X-4719910Y4742978D01*
X-4700342Y4853142D01*
X-4679822Y4968380D01*
X-4658706Y5086693D01*
X-4637354Y5206083D01*
X-4616121Y5324554D01*
X-4595365Y5440105D01*
X-4575445Y5550741D01*
X-4556717Y5654461D01*
X-4539539Y5749270D01*
X-4524269Y5833167D01*
X-4511263Y5904156D01*
X-4500881Y5960238D01*
X-4493478Y5999416D01*
X-4489413Y6019691D01*
X-4488769Y6022114D01*
X-4476056Y6024127D01*
X-4445397Y6025415D01*
X-4400973Y6025901D01*
X-4346966Y6025503D01*
G37*
G36*
X-5124737Y6027435D02*
G01*
X-5027165Y6026949D01*
X-4938839Y6026177D01*
X-4861928Y6025153D01*
X-4798600Y6023912D01*
X-4751024Y6022489D01*
X-4721368Y6020918D01*
X-4711768Y6019331D01*
X-4713448Y6005902D01*
X-4718200Y5974950D01*
X-4725341Y5930766D01*
X-4734187Y5877640D01*
X-4736403Y5864534D01*
X-4761251Y5718037D01*
X-5120627Y5715122D01*
X-5480002Y5712207D01*
X-5510489Y5546194D01*
X-5521176Y5486950D01*
X-5530300Y5434394D01*
X-5537136Y5392854D01*
X-5540959Y5366662D01*
X-5541510Y5360813D01*
X-5540302Y5354835D01*
X-5534624Y5350226D01*
X-5521957Y5346809D01*
X-5499782Y5344409D01*
X-5465577Y5342849D01*
X-5416823Y5341952D01*
X-5351000Y5341543D01*
X-5265588Y5341444D01*
X-5264612Y5341444D01*
X-5179122Y5341356D01*
X-5113294Y5340973D01*
X-5064653Y5340119D01*
X-5030727Y5338619D01*
X-5009042Y5336294D01*
X-4997124Y5332971D01*
X-4992500Y5328471D01*
X-4992696Y5322620D01*
X-4992849Y5322076D01*
X-4996535Y5305422D01*
X-5002882Y5272902D01*
X-5010944Y5229766D01*
X-5019779Y5181265D01*
X-5028441Y5132649D01*
X-5035987Y5089169D01*
X-5041472Y5056076D01*
X-5043952Y5038618D01*
X-5044007Y5037607D01*
X-5054583Y5035959D01*
X-5084345Y5034481D01*
X-5130344Y5033236D01*
X-5189633Y5032288D01*
X-5259261Y5031702D01*
X-5323462Y5031536D01*
X-5602918Y5031518D01*
X-5645490Y4785283D01*
X-5659536Y4704115D01*
X-5673935Y4621050D01*
X-5687701Y4541752D01*
X-5699853Y4471882D01*
X-5709408Y4417104D01*
X-5710824Y4409004D01*
X-5733587Y4278961D01*
X-5893660Y4278961D01*
X-5956039Y4279049D01*
X-5999545Y4279661D01*
X-6027442Y4281320D01*
X-6042992Y4284549D01*
X-6049457Y4289871D01*
X-6050100Y4297808D01*
X-6049083Y4303863D01*
X-6046474Y4318497D01*
X-6040347Y4353216D01*
X-6031006Y4406301D01*
X-6018752Y4476033D01*
X-6003886Y4560693D01*
X-5986710Y4658563D01*
X-5967526Y4767924D01*
X-5946635Y4887057D01*
X-5924340Y5014244D01*
X-5900941Y5147765D01*
X-5895614Y5178167D01*
X-5746796Y6027570D01*
X-5229388Y6027601D01*
X-5124737Y6027435D01*
G37*
G36*
X-2421481Y6026962D02*
G01*
X-2373482Y6025604D01*
X-2343444Y6023030D01*
X-2329291Y6019078D01*
X-2328080Y6014697D01*
X-2336210Y6003708D01*
X-2356628Y5976893D01*
X-2388053Y5935914D01*
X-2429204Y5882434D01*
X-2478800Y5818115D01*
X-2535560Y5744618D01*
X-2598202Y5663608D01*
X-2665445Y5576745D01*
X-2697689Y5535126D01*
X-2766555Y5446222D01*
X-2831361Y5362486D01*
X-2890832Y5285569D01*
X-2943697Y5217122D01*
X-2988681Y5158793D01*
X-3024512Y5112234D01*
X-3049916Y5079095D01*
X-3063621Y5061025D01*
X-3065654Y5058214D01*
X-3068579Y5046072D01*
X-3074819Y5015173D01*
X-3083820Y4968551D01*
X-3095030Y4909243D01*
X-3107893Y4840284D01*
X-3121856Y4764712D01*
X-3136364Y4685561D01*
X-3150865Y4605869D01*
X-3164804Y4528670D01*
X-3177626Y4457001D01*
X-3188779Y4393898D01*
X-3197707Y4342397D01*
X-3203858Y4305534D01*
X-3206676Y4286345D01*
X-3206796Y4284686D01*
X-3217215Y4282663D01*
X-3245880Y4280954D01*
X-3288902Y4279697D01*
X-3342393Y4279031D01*
X-3367486Y4278961D01*
X-3528176Y4278961D01*
X-3522387Y4303863D01*
X-3518311Y4324180D01*
X-3511300Y4362141D01*
X-3501895Y4414591D01*
X-3490638Y4478373D01*
X-3478072Y4550331D01*
X-3464738Y4627310D01*
X-3451177Y4706154D01*
X-3437932Y4783707D01*
X-3425545Y4856812D01*
X-3414557Y4922314D01*
X-3405511Y4977056D01*
X-3398947Y5017884D01*
X-3395409Y5041640D01*
X-3394944Y5046124D01*
X-3399125Y5059473D01*
X-3411096Y5091076D01*
X-3429992Y5138811D01*
X-3454953Y5200559D01*
X-3485114Y5274197D01*
X-3519615Y5357606D01*
X-3557593Y5448664D01*
X-3589995Y5525821D01*
X-3630300Y5621651D01*
X-3668035Y5711640D01*
X-3702309Y5793645D01*
X-3732234Y5865527D01*
X-3756919Y5925142D01*
X-3775474Y5970351D01*
X-3787009Y5999011D01*
X-3790578Y6008559D01*
X-3791277Y6016041D01*
X-3786377Y6021239D01*
X-3772758Y6024469D01*
X-3747297Y6026051D01*
X-3706872Y6026299D01*
X-3648362Y6025533D01*
X-3627229Y6025161D01*
X-3458348Y6022098D01*
X-3320090Y5681771D01*
X-3286854Y5600492D01*
X-3256046Y5526166D01*
X-3228687Y5461183D01*
X-3205802Y5407932D01*
X-3188412Y5368801D01*
X-3177541Y5346179D01*
X-3174379Y5341444D01*
X-3166355Y5350036D01*
X-3146675Y5374529D01*
X-3116807Y5412998D01*
X-3078219Y5463520D01*
X-3032379Y5524171D01*
X-2980754Y5593025D01*
X-2924813Y5668159D01*
X-2912939Y5684171D01*
X-2658952Y6026897D01*
X-2489519Y6027264D01*
X-2421481Y6026962D01*
G37*
G36*
X-3336106Y3856853D02*
G01*
X-3308285Y3855365D01*
X-3292594Y3852121D01*
X-3285702Y3846779D01*
X-3284268Y3839779D01*
X-3286147Y3826064D01*
X-3291587Y3792255D01*
X-3300295Y3740056D01*
X-3311978Y3671170D01*
X-3326344Y3587300D01*
X-3343099Y3490148D01*
X-3361951Y3381420D01*
X-3382605Y3262816D01*
X-3404770Y3136042D01*
X-3428152Y3002800D01*
X-3433680Y2971365D01*
X-3457263Y2837255D01*
X-3479700Y2709506D01*
X-3500700Y2589788D01*
X-3519972Y2479771D01*
X-3537223Y2381123D01*
X-3552163Y2295514D01*
X-3564500Y2224614D01*
X-3573942Y2170092D01*
X-3580198Y2133617D01*
X-3582975Y2116860D01*
X-3583092Y2115949D01*
X-3593510Y2113748D01*
X-3622172Y2111888D01*
X-3665187Y2110522D01*
X-3718662Y2109799D01*
X-3743571Y2109723D01*
X-3800255Y2110262D01*
X-3848075Y2111743D01*
X-3883159Y2113967D01*
X-3901634Y2116731D01*
X-3903508Y2118024D01*
X-3901546Y2129972D01*
X-3896028Y2162058D01*
X-3887244Y2212620D01*
X-3875487Y2279999D01*
X-3861045Y2362534D01*
X-3844212Y2458563D01*
X-3825276Y2566426D01*
X-3804530Y2684463D01*
X-3782265Y2811013D01*
X-3758771Y2944415D01*
X-3750809Y2989593D01*
X-3598653Y3852861D01*
X-3441461Y3855931D01*
X-3379387Y3856928D01*
X-3336106Y3856853D01*
G37*
G36*
X-10265118Y6024707D02*
G01*
X-10149695Y6023405D01*
X-10053719Y6021956D01*
X-9974501Y6019981D01*
X-9909355Y6017103D01*
X-9855593Y6012942D01*
X-9810527Y6007119D01*
X-9771471Y5999256D01*
X-9735735Y5988975D01*
X-9700634Y5975896D01*
X-9663479Y5959641D01*
X-9621583Y5939832D01*
X-9604580Y5931640D01*
X-9550777Y5904026D01*
X-9507229Y5876811D01*
X-9466400Y5844547D01*
X-9420753Y5801784D01*
X-9409360Y5790470D01*
X-9363545Y5742734D01*
X-9329423Y5701457D01*
X-9301539Y5659099D01*
X-9274440Y5608119D01*
X-9268165Y5595251D01*
X-9237658Y5529530D01*
X-9214845Y5472712D01*
X-9198644Y5419479D01*
X-9187974Y5364514D01*
X-9181755Y5302499D01*
X-9178905Y5228117D01*
X-9178324Y5153296D01*
X-9179214Y5064259D01*
X-9182607Y4992046D01*
X-9189583Y4931390D01*
X-9201224Y4877025D01*
X-9218612Y4823686D01*
X-9242827Y4766107D01*
X-9269244Y4710595D01*
X-9334413Y4602539D01*
X-9416591Y4507644D01*
X-9513862Y4427591D01*
X-9624308Y4364061D01*
X-9699017Y4333550D01*
X-9740944Y4319611D01*
X-9781078Y4308232D01*
X-9822236Y4299160D01*
X-9867240Y4292143D01*
X-9918909Y4286926D01*
X-9980062Y4283258D01*
X-10053520Y4280886D01*
X-10142102Y4279555D01*
X-10248628Y4279014D01*
X-10307595Y4278961D01*
X-10688451Y4278961D01*
X-10688451Y4564876D01*
X-10367493Y4564876D01*
X-9874987Y4572250D01*
X-9800827Y4607383D01*
X-9715830Y4658846D01*
X-9646433Y4725426D01*
X-9592518Y4807351D01*
X-9553969Y4904849D01*
X-9530671Y5018147D01*
X-9522508Y5147473D01*
X-9522494Y5153296D01*
X-9530021Y5283305D01*
X-9552676Y5397276D01*
X-9590578Y5495437D01*
X-9643841Y5578016D01*
X-9712582Y5645240D01*
X-9796917Y5697337D01*
X-9800827Y5699209D01*
X-9874987Y5734342D01*
X-10121240Y5737870D01*
X-10367493Y5741397D01*
X-10367493Y4564876D01*
X-10688451Y4564876D01*
X-10688451Y6029258D01*
X-10265118Y6024707D01*
G37*
G36*
X-7132008Y6027632D02*
G01*
X-7028175Y6027534D01*
X-6943735Y6027152D01*
X-6875946Y6026357D01*
X-6822068Y6025017D01*
X-6779357Y6023001D01*
X-6745073Y6020179D01*
X-6716474Y6016420D01*
X-6690818Y6011592D01*
X-6665364Y6005566D01*
X-6664405Y6005322D01*
X-6555893Y5968899D01*
X-6465192Y5919360D01*
X-6392135Y5856492D01*
X-6336558Y5780083D01*
X-6298296Y5689918D01*
X-6277183Y5585785D01*
X-6272504Y5499106D01*
X-6280532Y5387681D01*
X-6305106Y5290228D01*
X-6346961Y5205227D01*
X-6406833Y5131161D01*
X-6479999Y5070290D01*
X-6515565Y5044561D01*
X-6542980Y5023166D01*
X-6558027Y5009462D01*
X-6559641Y5006847D01*
X-6554752Y4995747D01*
X-6540740Y4967802D01*
X-6519001Y4925646D01*
X-6490933Y4871908D01*
X-6457931Y4809222D01*
X-6421393Y4740219D01*
X-6382715Y4667530D01*
X-6343293Y4593787D01*
X-6304523Y4521623D01*
X-6267803Y4453668D01*
X-6234529Y4392554D01*
X-6210098Y4348133D01*
X-6171812Y4278961D01*
X-6352202Y4279194D01*
X-6532591Y4279428D01*
X-6700393Y4602920D01*
X-6868194Y4926412D01*
X-7029652Y4929474D01*
X-7191109Y4932537D01*
X-7191109Y4278961D01*
X-7512068Y4278961D01*
X-7512068Y5195335D01*
X-7191109Y5195335D01*
X-7005728Y5199217D01*
X-6937191Y5200799D01*
X-6886492Y5202662D01*
X-6849340Y5205439D01*
X-6821441Y5209765D01*
X-6798501Y5216273D01*
X-6776228Y5225595D01*
X-6754422Y5236303D01*
X-6690931Y5276880D01*
X-6646605Y5326041D01*
X-6619287Y5386425D01*
X-6613824Y5408363D01*
X-6605370Y5491229D01*
X-6615184Y5566807D01*
X-6642272Y5632703D01*
X-6685642Y5686523D01*
X-6744299Y5725874D01*
X-6745845Y5726601D01*
X-6770381Y5737462D01*
X-6793167Y5745402D01*
X-6818416Y5750978D01*
X-6850345Y5754746D01*
X-6893167Y5757264D01*
X-6951099Y5759088D01*
X-7000194Y5760193D01*
X-7191109Y5764201D01*
X-7191109Y5195335D01*
X-7512068Y5195335D01*
X-7512068Y6027632D01*
X-7132008Y6027632D01*
G37*
G36*
X-15668844Y5341444D02*
G01*
X-14860913Y5341444D01*
X-14860913Y6027632D01*
X-14539955Y6027632D01*
X-14539955Y4278961D01*
X-14860913Y4278961D01*
X-14860913Y5031553D01*
X-15668844Y5031553D01*
X-15668844Y4278961D01*
X-15989802Y4278961D01*
X-15989802Y6027632D01*
X-15668844Y6027632D01*
X-15668844Y5341444D01*
G37*
G36*
X-7788756Y5717741D02*
G01*
X-8585619Y5717741D01*
X-8585619Y5341444D01*
X-7976905Y5341444D01*
X-7976905Y5031553D01*
X-8585619Y5031553D01*
X-8585619Y4588852D01*
X-7766621Y4588852D01*
X-7766621Y4278961D01*
X-8917645Y4278961D01*
X-8917645Y6027632D01*
X-7788756Y6027632D01*
X-7788756Y5717741D01*
G37*
G36*
X-13884501Y5449353D02*
G01*
X-13883648Y5321210D01*
X-13882825Y5213202D01*
X-13881945Y5123330D01*
X-13880920Y5049593D01*
X-13879664Y4989992D01*
X-13878091Y4942527D01*
X-13876114Y4905199D01*
X-13873646Y4876008D01*
X-13870601Y4852954D01*
X-13866891Y4834037D01*
X-13862431Y4817257D01*
X-13857134Y4800616D01*
X-13856280Y4798063D01*
X-13818334Y4714171D01*
X-13766590Y4647583D01*
X-13701067Y4598309D01*
X-13621786Y4566361D01*
X-13528765Y4551748D01*
X-13422025Y4554482D01*
X-13414405Y4555283D01*
X-13326569Y4573246D01*
X-13253204Y4606691D01*
X-13193669Y4656330D01*
X-13147322Y4722874D01*
X-13113523Y4807035D01*
X-13091630Y4909524D01*
X-13090953Y4914300D01*
X-13088130Y4946331D01*
X-13085613Y4998458D01*
X-13083444Y5068644D01*
X-13081663Y5154851D01*
X-13080309Y5255041D01*
X-13079425Y5367178D01*
X-13079050Y5489224D01*
X-13079040Y5513792D01*
X-13079040Y6027632D01*
X-12758081Y6027632D01*
X-12758081Y5486123D01*
X-12758227Y5347206D01*
X-12758756Y5228296D01*
X-12759807Y5127264D01*
X-12761515Y5041982D01*
X-12764018Y4970325D01*
X-12767454Y4910163D01*
X-12771959Y4859369D01*
X-12777671Y4815816D01*
X-12784728Y4777376D01*
X-12793265Y4741921D01*
X-12803421Y4707325D01*
X-12809521Y4688566D01*
X-12857390Y4575112D01*
X-12919826Y4478294D01*
X-12997047Y4397891D01*
X-13089270Y4333687D01*
X-13196712Y4285464D01*
X-13217384Y4278560D01*
X-13277978Y4264438D01*
X-13353767Y4254523D01*
X-13438180Y4248978D01*
X-13524648Y4247968D01*
X-13606602Y4251654D01*
X-13677474Y4260202D01*
X-13706788Y4266372D01*
X-13821766Y4305450D01*
X-13921941Y4360699D01*
X-14007644Y4432451D01*
X-14079206Y4521034D01*
X-14136961Y4626778D01*
X-14176209Y4732911D01*
X-14181657Y4751401D01*
X-14186270Y4769339D01*
X-14190132Y4788695D01*
X-14193326Y4811441D01*
X-14195935Y4839547D01*
X-14198041Y4874984D01*
X-14199728Y4919724D01*
X-14201080Y4975737D01*
X-14202178Y5044995D01*
X-14203106Y5129467D01*
X-14203948Y5231125D01*
X-14204786Y5351941D01*
X-14205239Y5421684D01*
X-14209140Y6027632D01*
X-13888231Y6027632D01*
X-13884501Y5449353D01*
G37*
%TD*%
M02*
