%TF.GenerationSoftware,KiCad,Pcbnew,8.0.3+1*%
%TF.CreationDate,2024-07-19T01:18:54+00:00*%
%TF.ProjectId,TFRPM01,54465250-4d30-4312-9e6b-696361645f70,rev?*%
%TF.SameCoordinates,PX7e721e0PY7e33658*%
%TF.FileFunction,Legend,Bot*%
%TF.FilePolarity,Positive*%
%FSLAX46Y46*%
G04 Gerber Fmt 4.6, Leading zero omitted, Abs format (unit mm)*
G04 Created by KiCad (PCBNEW 8.0.3+1) date 2024-07-19 01:18:54*
%MOMM*%
%LPD*%
G01*
G04 APERTURE LIST*
%ADD10C,0.150000*%
%ADD11C,0.100000*%
%ADD12C,0.120000*%
G04 APERTURE END LIST*
D10*
X12833000Y-1874904D02*
X12833000Y-974904D01*
X6428711Y-6474904D02*
G75*
G02*
X6287289Y-6474904I-70711J0D01*
G01*
X6287289Y-6474904D02*
G75*
G02*
X6428711Y-6474904I70711J0D01*
G01*
X13462000Y-1874904D02*
X12833000Y-1874904D01*
X12083000Y-1874904D02*
X11433000Y-1874904D01*
X12833000Y-974904D02*
X12083000Y-974904D01*
X12083000Y-974904D02*
X12083000Y-1874904D01*
X14931808Y-1929723D02*
X14931808Y-929723D01*
X14455618Y-1929723D02*
X14455618Y-929723D01*
X14455618Y-929723D02*
X13884190Y-1929723D01*
X13884190Y-1929723D02*
X13884190Y-929723D01*
X14519904Y4122658D02*
X14615142Y4170277D01*
X14615142Y4170277D02*
X14757999Y4170277D01*
X14757999Y4170277D02*
X14900856Y4122658D01*
X14900856Y4122658D02*
X14996094Y4027420D01*
X14996094Y4027420D02*
X15043713Y3932182D01*
X15043713Y3932182D02*
X15091332Y3741706D01*
X15091332Y3741706D02*
X15091332Y3598849D01*
X15091332Y3598849D02*
X15043713Y3408373D01*
X15043713Y3408373D02*
X14996094Y3313135D01*
X14996094Y3313135D02*
X14900856Y3217896D01*
X14900856Y3217896D02*
X14757999Y3170277D01*
X14757999Y3170277D02*
X14662761Y3170277D01*
X14662761Y3170277D02*
X14519904Y3217896D01*
X14519904Y3217896D02*
X14472285Y3265516D01*
X14472285Y3265516D02*
X14472285Y3598849D01*
X14472285Y3598849D02*
X14662761Y3598849D01*
X14043713Y3170277D02*
X14043713Y4170277D01*
X14043713Y4170277D02*
X13472285Y3170277D01*
X13472285Y3170277D02*
X13472285Y4170277D01*
X12996094Y3170277D02*
X12996094Y4170277D01*
X12996094Y4170277D02*
X12757999Y4170277D01*
X12757999Y4170277D02*
X12615142Y4122658D01*
X12615142Y4122658D02*
X12519904Y4027420D01*
X12519904Y4027420D02*
X12472285Y3932182D01*
X12472285Y3932182D02*
X12424666Y3741706D01*
X12424666Y3741706D02*
X12424666Y3598849D01*
X12424666Y3598849D02*
X12472285Y3408373D01*
X12472285Y3408373D02*
X12519904Y3313135D01*
X12519904Y3313135D02*
X12615142Y3217896D01*
X12615142Y3217896D02*
X12757999Y3170277D01*
X12757999Y3170277D02*
X12996094Y3170277D01*
X14448476Y1670277D02*
X14924666Y1670277D01*
X14924666Y1670277D02*
X14972285Y1194087D01*
X14972285Y1194087D02*
X14924666Y1241706D01*
X14924666Y1241706D02*
X14829428Y1289325D01*
X14829428Y1289325D02*
X14591333Y1289325D01*
X14591333Y1289325D02*
X14496095Y1241706D01*
X14496095Y1241706D02*
X14448476Y1194087D01*
X14448476Y1194087D02*
X14400857Y1098849D01*
X14400857Y1098849D02*
X14400857Y860754D01*
X14400857Y860754D02*
X14448476Y765516D01*
X14448476Y765516D02*
X14496095Y717896D01*
X14496095Y717896D02*
X14591333Y670277D01*
X14591333Y670277D02*
X14829428Y670277D01*
X14829428Y670277D02*
X14924666Y717896D01*
X14924666Y717896D02*
X14972285Y765516D01*
X14115142Y1670277D02*
X13781809Y670277D01*
X13781809Y670277D02*
X13448476Y1670277D01*
D11*
X-13709525Y-2664895D02*
X-13709525Y-1864895D01*
X-13709525Y-1864895D02*
X-13900001Y-1864895D01*
X-13900001Y-1864895D02*
X-14014287Y-1902990D01*
X-14014287Y-1902990D02*
X-14090477Y-1979180D01*
X-14090477Y-1979180D02*
X-14128572Y-2055371D01*
X-14128572Y-2055371D02*
X-14166668Y-2207752D01*
X-14166668Y-2207752D02*
X-14166668Y-2322038D01*
X-14166668Y-2322038D02*
X-14128572Y-2474419D01*
X-14128572Y-2474419D02*
X-14090477Y-2550609D01*
X-14090477Y-2550609D02*
X-14014287Y-2626800D01*
X-14014287Y-2626800D02*
X-13900001Y-2664895D01*
X-13900001Y-2664895D02*
X-13709525Y-2664895D01*
X-14928572Y-2664895D02*
X-14471429Y-2664895D01*
X-14700001Y-2664895D02*
X-14700001Y-1864895D01*
X-14700001Y-1864895D02*
X-14623810Y-1979180D01*
X-14623810Y-1979180D02*
X-14547620Y-2055371D01*
X-14547620Y-2055371D02*
X-14471429Y-2093466D01*
X-6927715Y8235105D02*
X-6661048Y8616058D01*
X-6470572Y8235105D02*
X-6470572Y9035105D01*
X-6470572Y9035105D02*
X-6775334Y9035105D01*
X-6775334Y9035105D02*
X-6851524Y8997010D01*
X-6851524Y8997010D02*
X-6889619Y8958915D01*
X-6889619Y8958915D02*
X-6927715Y8882724D01*
X-6927715Y8882724D02*
X-6927715Y8768439D01*
X-6927715Y8768439D02*
X-6889619Y8692248D01*
X-6889619Y8692248D02*
X-6851524Y8654153D01*
X-6851524Y8654153D02*
X-6775334Y8616058D01*
X-6775334Y8616058D02*
X-6470572Y8616058D01*
X-7689619Y8235105D02*
X-7232476Y8235105D01*
X-7461048Y8235105D02*
X-7461048Y9035105D01*
X-7461048Y9035105D02*
X-7384857Y8920820D01*
X-7384857Y8920820D02*
X-7308667Y8844629D01*
X-7308667Y8844629D02*
X-7232476Y8806534D01*
X-8184858Y9035105D02*
X-8261048Y9035105D01*
X-8261048Y9035105D02*
X-8337239Y8997010D01*
X-8337239Y8997010D02*
X-8375334Y8958915D01*
X-8375334Y8958915D02*
X-8413429Y8882724D01*
X-8413429Y8882724D02*
X-8451524Y8730343D01*
X-8451524Y8730343D02*
X-8451524Y8539867D01*
X-8451524Y8539867D02*
X-8413429Y8387486D01*
X-8413429Y8387486D02*
X-8375334Y8311296D01*
X-8375334Y8311296D02*
X-8337239Y8273200D01*
X-8337239Y8273200D02*
X-8261048Y8235105D01*
X-8261048Y8235105D02*
X-8184858Y8235105D01*
X-8184858Y8235105D02*
X-8108667Y8273200D01*
X-8108667Y8273200D02*
X-8070572Y8311296D01*
X-8070572Y8311296D02*
X-8032477Y8387486D01*
X-8032477Y8387486D02*
X-7994381Y8539867D01*
X-7994381Y8539867D02*
X-7994381Y8730343D01*
X-7994381Y8730343D02*
X-8032477Y8882724D01*
X-8032477Y8882724D02*
X-8070572Y8958915D01*
X-8070572Y8958915D02*
X-8108667Y8997010D01*
X-8108667Y8997010D02*
X-8184858Y9035105D01*
X9258266Y-4241399D02*
X9258266Y-4812827D01*
X9258266Y-4812827D02*
X9296361Y-4927113D01*
X9296361Y-4927113D02*
X9372552Y-5003304D01*
X9372552Y-5003304D02*
X9486837Y-5041399D01*
X9486837Y-5041399D02*
X9563028Y-5041399D01*
X8458266Y-5041399D02*
X8915409Y-5041399D01*
X8686837Y-5041399D02*
X8686837Y-4241399D01*
X8686837Y-4241399D02*
X8763028Y-4355684D01*
X8763028Y-4355684D02*
X8839218Y-4431875D01*
X8839218Y-4431875D02*
X8915409Y-4469970D01*
X-1727277Y4778505D02*
X-1727277Y4130886D01*
X-1727277Y4130886D02*
X-1765372Y4054696D01*
X-1765372Y4054696D02*
X-1803467Y4016600D01*
X-1803467Y4016600D02*
X-1879658Y3978505D01*
X-1879658Y3978505D02*
X-2032039Y3978505D01*
X-2032039Y3978505D02*
X-2108229Y4016600D01*
X-2108229Y4016600D02*
X-2146324Y4054696D01*
X-2146324Y4054696D02*
X-2184420Y4130886D01*
X-2184420Y4130886D02*
X-2184420Y4778505D01*
X-2489181Y4778505D02*
X-2984419Y4778505D01*
X-2984419Y4778505D02*
X-2717753Y4473743D01*
X-2717753Y4473743D02*
X-2832038Y4473743D01*
X-2832038Y4473743D02*
X-2908229Y4435648D01*
X-2908229Y4435648D02*
X-2946324Y4397553D01*
X-2946324Y4397553D02*
X-2984419Y4321362D01*
X-2984419Y4321362D02*
X-2984419Y4130886D01*
X-2984419Y4130886D02*
X-2946324Y4054696D01*
X-2946324Y4054696D02*
X-2908229Y4016600D01*
X-2908229Y4016600D02*
X-2832038Y3978505D01*
X-2832038Y3978505D02*
X-2603467Y3978505D01*
X-2603467Y3978505D02*
X-2527276Y4016600D01*
X-2527276Y4016600D02*
X-2489181Y4054696D01*
X-14066668Y2211296D02*
X-14028572Y2173200D01*
X-14028572Y2173200D02*
X-13914287Y2135105D01*
X-13914287Y2135105D02*
X-13838096Y2135105D01*
X-13838096Y2135105D02*
X-13723810Y2173200D01*
X-13723810Y2173200D02*
X-13647620Y2249391D01*
X-13647620Y2249391D02*
X-13609525Y2325581D01*
X-13609525Y2325581D02*
X-13571429Y2477962D01*
X-13571429Y2477962D02*
X-13571429Y2592248D01*
X-13571429Y2592248D02*
X-13609525Y2744629D01*
X-13609525Y2744629D02*
X-13647620Y2820820D01*
X-13647620Y2820820D02*
X-13723810Y2897010D01*
X-13723810Y2897010D02*
X-13838096Y2935105D01*
X-13838096Y2935105D02*
X-13914287Y2935105D01*
X-13914287Y2935105D02*
X-14028572Y2897010D01*
X-14028572Y2897010D02*
X-14066668Y2858915D01*
X-14333334Y2935105D02*
X-14828572Y2935105D01*
X-14828572Y2935105D02*
X-14561906Y2630343D01*
X-14561906Y2630343D02*
X-14676191Y2630343D01*
X-14676191Y2630343D02*
X-14752382Y2592248D01*
X-14752382Y2592248D02*
X-14790477Y2554153D01*
X-14790477Y2554153D02*
X-14828572Y2477962D01*
X-14828572Y2477962D02*
X-14828572Y2287486D01*
X-14828572Y2287486D02*
X-14790477Y2211296D01*
X-14790477Y2211296D02*
X-14752382Y2173200D01*
X-14752382Y2173200D02*
X-14676191Y2135105D01*
X-14676191Y2135105D02*
X-14447620Y2135105D01*
X-14447620Y2135105D02*
X-14371429Y2173200D01*
X-14371429Y2173200D02*
X-14333334Y2211296D01*
X-13908668Y8311296D02*
X-13870572Y8273200D01*
X-13870572Y8273200D02*
X-13756287Y8235105D01*
X-13756287Y8235105D02*
X-13680096Y8235105D01*
X-13680096Y8235105D02*
X-13565810Y8273200D01*
X-13565810Y8273200D02*
X-13489620Y8349391D01*
X-13489620Y8349391D02*
X-13451525Y8425581D01*
X-13451525Y8425581D02*
X-13413429Y8577962D01*
X-13413429Y8577962D02*
X-13413429Y8692248D01*
X-13413429Y8692248D02*
X-13451525Y8844629D01*
X-13451525Y8844629D02*
X-13489620Y8920820D01*
X-13489620Y8920820D02*
X-13565810Y8997010D01*
X-13565810Y8997010D02*
X-13680096Y9035105D01*
X-13680096Y9035105D02*
X-13756287Y9035105D01*
X-13756287Y9035105D02*
X-13870572Y8997010D01*
X-13870572Y8997010D02*
X-13908668Y8958915D01*
X-14594382Y8768439D02*
X-14594382Y8235105D01*
X-14403906Y9073200D02*
X-14213429Y8501772D01*
X-14213429Y8501772D02*
X-14708668Y8501772D01*
X-19414781Y4064230D02*
X-18700496Y4064230D01*
X-18700496Y4064230D02*
X-18557639Y4111849D01*
X-18557639Y4111849D02*
X-18462400Y4207087D01*
X-18462400Y4207087D02*
X-18414781Y4349944D01*
X-18414781Y4349944D02*
X-18414781Y4445182D01*
X-19319543Y3635658D02*
X-19367162Y3588039D01*
X-19367162Y3588039D02*
X-19414781Y3492801D01*
X-19414781Y3492801D02*
X-19414781Y3254706D01*
X-19414781Y3254706D02*
X-19367162Y3159468D01*
X-19367162Y3159468D02*
X-19319543Y3111849D01*
X-19319543Y3111849D02*
X-19224305Y3064230D01*
X-19224305Y3064230D02*
X-19129067Y3064230D01*
X-19129067Y3064230D02*
X-18986210Y3111849D01*
X-18986210Y3111849D02*
X-18414781Y3683277D01*
X-18414781Y3683277D02*
X-18414781Y3064230D01*
X-3866668Y-5464895D02*
X-3600001Y-5083942D01*
X-3409525Y-5464895D02*
X-3409525Y-4664895D01*
X-3409525Y-4664895D02*
X-3714287Y-4664895D01*
X-3714287Y-4664895D02*
X-3790477Y-4702990D01*
X-3790477Y-4702990D02*
X-3828572Y-4741085D01*
X-3828572Y-4741085D02*
X-3866668Y-4817276D01*
X-3866668Y-4817276D02*
X-3866668Y-4931561D01*
X-3866668Y-4931561D02*
X-3828572Y-5007752D01*
X-3828572Y-5007752D02*
X-3790477Y-5045847D01*
X-3790477Y-5045847D02*
X-3714287Y-5083942D01*
X-3714287Y-5083942D02*
X-3409525Y-5083942D01*
X-4552382Y-4931561D02*
X-4552382Y-5464895D01*
X-4361906Y-4626800D02*
X-4171429Y-5198228D01*
X-4171429Y-5198228D02*
X-4666668Y-5198228D01*
X10855095Y6505829D02*
X10474142Y6772496D01*
X10855095Y6962972D02*
X10055095Y6962972D01*
X10055095Y6962972D02*
X10055095Y6658210D01*
X10055095Y6658210D02*
X10093190Y6582020D01*
X10093190Y6582020D02*
X10131285Y6543925D01*
X10131285Y6543925D02*
X10207476Y6505829D01*
X10207476Y6505829D02*
X10321761Y6505829D01*
X10321761Y6505829D02*
X10397952Y6543925D01*
X10397952Y6543925D02*
X10436047Y6582020D01*
X10436047Y6582020D02*
X10474142Y6658210D01*
X10474142Y6658210D02*
X10474142Y6962972D01*
X10855095Y5743925D02*
X10855095Y6201068D01*
X10855095Y5972496D02*
X10055095Y5972496D01*
X10055095Y5972496D02*
X10169380Y6048687D01*
X10169380Y6048687D02*
X10245571Y6124877D01*
X10245571Y6124877D02*
X10283666Y6201068D01*
X4633332Y3935105D02*
X4899999Y4316058D01*
X5090475Y3935105D02*
X5090475Y4735105D01*
X5090475Y4735105D02*
X4785713Y4735105D01*
X4785713Y4735105D02*
X4709523Y4697010D01*
X4709523Y4697010D02*
X4671428Y4658915D01*
X4671428Y4658915D02*
X4633332Y4582724D01*
X4633332Y4582724D02*
X4633332Y4468439D01*
X4633332Y4468439D02*
X4671428Y4392248D01*
X4671428Y4392248D02*
X4709523Y4354153D01*
X4709523Y4354153D02*
X4785713Y4316058D01*
X4785713Y4316058D02*
X5090475Y4316058D01*
X4328571Y4658915D02*
X4290475Y4697010D01*
X4290475Y4697010D02*
X4214285Y4735105D01*
X4214285Y4735105D02*
X4023809Y4735105D01*
X4023809Y4735105D02*
X3947618Y4697010D01*
X3947618Y4697010D02*
X3909523Y4658915D01*
X3909523Y4658915D02*
X3871428Y4582724D01*
X3871428Y4582724D02*
X3871428Y4506534D01*
X3871428Y4506534D02*
X3909523Y4392248D01*
X3909523Y4392248D02*
X4366666Y3935105D01*
X4366666Y3935105D02*
X3871428Y3935105D01*
X-10608668Y8235105D02*
X-10342001Y8616058D01*
X-10151525Y8235105D02*
X-10151525Y9035105D01*
X-10151525Y9035105D02*
X-10456287Y9035105D01*
X-10456287Y9035105D02*
X-10532477Y8997010D01*
X-10532477Y8997010D02*
X-10570572Y8958915D01*
X-10570572Y8958915D02*
X-10608668Y8882724D01*
X-10608668Y8882724D02*
X-10608668Y8768439D01*
X-10608668Y8768439D02*
X-10570572Y8692248D01*
X-10570572Y8692248D02*
X-10532477Y8654153D01*
X-10532477Y8654153D02*
X-10456287Y8616058D01*
X-10456287Y8616058D02*
X-10151525Y8616058D01*
X-10875334Y9035105D02*
X-11370572Y9035105D01*
X-11370572Y9035105D02*
X-11103906Y8730343D01*
X-11103906Y8730343D02*
X-11218191Y8730343D01*
X-11218191Y8730343D02*
X-11294382Y8692248D01*
X-11294382Y8692248D02*
X-11332477Y8654153D01*
X-11332477Y8654153D02*
X-11370572Y8577962D01*
X-11370572Y8577962D02*
X-11370572Y8387486D01*
X-11370572Y8387486D02*
X-11332477Y8311296D01*
X-11332477Y8311296D02*
X-11294382Y8273200D01*
X-11294382Y8273200D02*
X-11218191Y8235105D01*
X-11218191Y8235105D02*
X-10989620Y8235105D01*
X-10989620Y8235105D02*
X-10913429Y8273200D01*
X-10913429Y8273200D02*
X-10875334Y8311296D01*
X4433332Y-5288704D02*
X4471428Y-5326800D01*
X4471428Y-5326800D02*
X4585713Y-5364895D01*
X4585713Y-5364895D02*
X4661904Y-5364895D01*
X4661904Y-5364895D02*
X4776190Y-5326800D01*
X4776190Y-5326800D02*
X4852380Y-5250609D01*
X4852380Y-5250609D02*
X4890475Y-5174419D01*
X4890475Y-5174419D02*
X4928571Y-5022038D01*
X4928571Y-5022038D02*
X4928571Y-4907752D01*
X4928571Y-4907752D02*
X4890475Y-4755371D01*
X4890475Y-4755371D02*
X4852380Y-4679180D01*
X4852380Y-4679180D02*
X4776190Y-4602990D01*
X4776190Y-4602990D02*
X4661904Y-4564895D01*
X4661904Y-4564895D02*
X4585713Y-4564895D01*
X4585713Y-4564895D02*
X4471428Y-4602990D01*
X4471428Y-4602990D02*
X4433332Y-4641085D01*
X3747618Y-4564895D02*
X3899999Y-4564895D01*
X3899999Y-4564895D02*
X3976190Y-4602990D01*
X3976190Y-4602990D02*
X4014285Y-4641085D01*
X4014285Y-4641085D02*
X4090475Y-4755371D01*
X4090475Y-4755371D02*
X4128571Y-4907752D01*
X4128571Y-4907752D02*
X4128571Y-5212514D01*
X4128571Y-5212514D02*
X4090475Y-5288704D01*
X4090475Y-5288704D02*
X4052380Y-5326800D01*
X4052380Y-5326800D02*
X3976190Y-5364895D01*
X3976190Y-5364895D02*
X3823809Y-5364895D01*
X3823809Y-5364895D02*
X3747618Y-5326800D01*
X3747618Y-5326800D02*
X3709523Y-5288704D01*
X3709523Y-5288704D02*
X3671428Y-5212514D01*
X3671428Y-5212514D02*
X3671428Y-5022038D01*
X3671428Y-5022038D02*
X3709523Y-4945847D01*
X3709523Y-4945847D02*
X3747618Y-4907752D01*
X3747618Y-4907752D02*
X3823809Y-4869657D01*
X3823809Y-4869657D02*
X3976190Y-4869657D01*
X3976190Y-4869657D02*
X4052380Y-4907752D01*
X4052380Y-4907752D02*
X4090475Y-4945847D01*
X4090475Y-4945847D02*
X4128571Y-5022038D01*
X-19541781Y-4292370D02*
X-18827496Y-4292370D01*
X-18827496Y-4292370D02*
X-18684639Y-4244751D01*
X-18684639Y-4244751D02*
X-18589400Y-4149513D01*
X-18589400Y-4149513D02*
X-18541781Y-4006656D01*
X-18541781Y-4006656D02*
X-18541781Y-3911418D01*
X-19541781Y-4673323D02*
X-19541781Y-5292370D01*
X-19541781Y-5292370D02*
X-19160829Y-4959037D01*
X-19160829Y-4959037D02*
X-19160829Y-5101894D01*
X-19160829Y-5101894D02*
X-19113210Y-5197132D01*
X-19113210Y-5197132D02*
X-19065591Y-5244751D01*
X-19065591Y-5244751D02*
X-18970353Y-5292370D01*
X-18970353Y-5292370D02*
X-18732258Y-5292370D01*
X-18732258Y-5292370D02*
X-18637020Y-5244751D01*
X-18637020Y-5244751D02*
X-18589400Y-5197132D01*
X-18589400Y-5197132D02*
X-18541781Y-5101894D01*
X-18541781Y-5101894D02*
X-18541781Y-4816180D01*
X-18541781Y-4816180D02*
X-18589400Y-4720942D01*
X-18589400Y-4720942D02*
X-18637020Y-4673323D01*
X-4190568Y1041496D02*
X-4152472Y1003400D01*
X-4152472Y1003400D02*
X-4038187Y965305D01*
X-4038187Y965305D02*
X-3961996Y965305D01*
X-3961996Y965305D02*
X-3847710Y1003400D01*
X-3847710Y1003400D02*
X-3771520Y1079591D01*
X-3771520Y1079591D02*
X-3733425Y1155781D01*
X-3733425Y1155781D02*
X-3695329Y1308162D01*
X-3695329Y1308162D02*
X-3695329Y1422448D01*
X-3695329Y1422448D02*
X-3733425Y1574829D01*
X-3733425Y1574829D02*
X-3771520Y1651020D01*
X-3771520Y1651020D02*
X-3847710Y1727210D01*
X-3847710Y1727210D02*
X-3961996Y1765305D01*
X-3961996Y1765305D02*
X-4038187Y1765305D01*
X-4038187Y1765305D02*
X-4152472Y1727210D01*
X-4152472Y1727210D02*
X-4190568Y1689115D01*
X-4914377Y1765305D02*
X-4533425Y1765305D01*
X-4533425Y1765305D02*
X-4495329Y1384353D01*
X-4495329Y1384353D02*
X-4533425Y1422448D01*
X-4533425Y1422448D02*
X-4609615Y1460543D01*
X-4609615Y1460543D02*
X-4800091Y1460543D01*
X-4800091Y1460543D02*
X-4876282Y1422448D01*
X-4876282Y1422448D02*
X-4914377Y1384353D01*
X-4914377Y1384353D02*
X-4952472Y1308162D01*
X-4952472Y1308162D02*
X-4952472Y1117686D01*
X-4952472Y1117686D02*
X-4914377Y1041496D01*
X-4914377Y1041496D02*
X-4876282Y1003400D01*
X-4876282Y1003400D02*
X-4800091Y965305D01*
X-4800091Y965305D02*
X-4609615Y965305D01*
X-4609615Y965305D02*
X-4533425Y1003400D01*
X-4533425Y1003400D02*
X-4495329Y1041496D01*
X-12014286Y-3323157D02*
X-12014286Y-4051728D01*
X-12014286Y-4051728D02*
X-12057143Y-4137442D01*
X-12057143Y-4137442D02*
X-12100000Y-4180300D01*
X-12100000Y-4180300D02*
X-12185715Y-4223157D01*
X-12185715Y-4223157D02*
X-12357143Y-4223157D01*
X-12357143Y-4223157D02*
X-12442858Y-4180300D01*
X-12442858Y-4180300D02*
X-12485715Y-4137442D01*
X-12485715Y-4137442D02*
X-12528572Y-4051728D01*
X-12528572Y-4051728D02*
X-12528572Y-3323157D01*
X-13428572Y-4223157D02*
X-12914286Y-4223157D01*
X-13171429Y-4223157D02*
X-13171429Y-3323157D01*
X-13171429Y-3323157D02*
X-13085715Y-3451728D01*
X-13085715Y-3451728D02*
X-13000000Y-3537442D01*
X-13000000Y-3537442D02*
X-12914286Y-3580300D01*
X-266668Y4411296D02*
X-228572Y4373200D01*
X-228572Y4373200D02*
X-114287Y4335105D01*
X-114287Y4335105D02*
X-38096Y4335105D01*
X-38096Y4335105D02*
X76190Y4373200D01*
X76190Y4373200D02*
X152380Y4449391D01*
X152380Y4449391D02*
X190475Y4525581D01*
X190475Y4525581D02*
X228571Y4677962D01*
X228571Y4677962D02*
X228571Y4792248D01*
X228571Y4792248D02*
X190475Y4944629D01*
X190475Y4944629D02*
X152380Y5020820D01*
X152380Y5020820D02*
X76190Y5097010D01*
X76190Y5097010D02*
X-38096Y5135105D01*
X-38096Y5135105D02*
X-114287Y5135105D01*
X-114287Y5135105D02*
X-228572Y5097010D01*
X-228572Y5097010D02*
X-266668Y5058915D01*
X-1028572Y4335105D02*
X-571429Y4335105D01*
X-800001Y4335105D02*
X-800001Y5135105D01*
X-800001Y5135105D02*
X-723810Y5020820D01*
X-723810Y5020820D02*
X-647620Y4944629D01*
X-647620Y4944629D02*
X-571429Y4906534D01*
X7143732Y4204192D02*
X7181828Y4166096D01*
X7181828Y4166096D02*
X7296113Y4128001D01*
X7296113Y4128001D02*
X7372304Y4128001D01*
X7372304Y4128001D02*
X7486590Y4166096D01*
X7486590Y4166096D02*
X7562780Y4242287D01*
X7562780Y4242287D02*
X7600875Y4318477D01*
X7600875Y4318477D02*
X7638971Y4470858D01*
X7638971Y4470858D02*
X7638971Y4585144D01*
X7638971Y4585144D02*
X7600875Y4737525D01*
X7600875Y4737525D02*
X7562780Y4813716D01*
X7562780Y4813716D02*
X7486590Y4889906D01*
X7486590Y4889906D02*
X7372304Y4928001D01*
X7372304Y4928001D02*
X7296113Y4928001D01*
X7296113Y4928001D02*
X7181828Y4889906D01*
X7181828Y4889906D02*
X7143732Y4851811D01*
X6838971Y4851811D02*
X6800875Y4889906D01*
X6800875Y4889906D02*
X6724685Y4928001D01*
X6724685Y4928001D02*
X6534209Y4928001D01*
X6534209Y4928001D02*
X6458018Y4889906D01*
X6458018Y4889906D02*
X6419923Y4851811D01*
X6419923Y4851811D02*
X6381828Y4775620D01*
X6381828Y4775620D02*
X6381828Y4699430D01*
X6381828Y4699430D02*
X6419923Y4585144D01*
X6419923Y4585144D02*
X6877066Y4128001D01*
X6877066Y4128001D02*
X6381828Y4128001D01*
X2393875Y-5574799D02*
X2393875Y-4774799D01*
X2393875Y-4774799D02*
X2203399Y-4774799D01*
X2203399Y-4774799D02*
X2089113Y-4812894D01*
X2089113Y-4812894D02*
X2012923Y-4889084D01*
X2012923Y-4889084D02*
X1974828Y-4965275D01*
X1974828Y-4965275D02*
X1936732Y-5117656D01*
X1936732Y-5117656D02*
X1936732Y-5231942D01*
X1936732Y-5231942D02*
X1974828Y-5384323D01*
X1974828Y-5384323D02*
X2012923Y-5460513D01*
X2012923Y-5460513D02*
X2089113Y-5536704D01*
X2089113Y-5536704D02*
X2203399Y-5574799D01*
X2203399Y-5574799D02*
X2393875Y-5574799D01*
X1631971Y-4850989D02*
X1593875Y-4812894D01*
X1593875Y-4812894D02*
X1517685Y-4774799D01*
X1517685Y-4774799D02*
X1327209Y-4774799D01*
X1327209Y-4774799D02*
X1251018Y-4812894D01*
X1251018Y-4812894D02*
X1212923Y-4850989D01*
X1212923Y-4850989D02*
X1174828Y-4927180D01*
X1174828Y-4927180D02*
X1174828Y-5003370D01*
X1174828Y-5003370D02*
X1212923Y-5117656D01*
X1212923Y-5117656D02*
X1670066Y-5574799D01*
X1670066Y-5574799D02*
X1174828Y-5574799D01*
X7717523Y-4339799D02*
X7717523Y-4987418D01*
X7717523Y-4987418D02*
X7679428Y-5063608D01*
X7679428Y-5063608D02*
X7641333Y-5101704D01*
X7641333Y-5101704D02*
X7565142Y-5139799D01*
X7565142Y-5139799D02*
X7412761Y-5139799D01*
X7412761Y-5139799D02*
X7336571Y-5101704D01*
X7336571Y-5101704D02*
X7298476Y-5063608D01*
X7298476Y-5063608D02*
X7260380Y-4987418D01*
X7260380Y-4987418D02*
X7260380Y-4339799D01*
X6917524Y-4415989D02*
X6879428Y-4377894D01*
X6879428Y-4377894D02*
X6803238Y-4339799D01*
X6803238Y-4339799D02*
X6612762Y-4339799D01*
X6612762Y-4339799D02*
X6536571Y-4377894D01*
X6536571Y-4377894D02*
X6498476Y-4415989D01*
X6498476Y-4415989D02*
X6460381Y-4492180D01*
X6460381Y-4492180D02*
X6460381Y-4568370D01*
X6460381Y-4568370D02*
X6498476Y-4682656D01*
X6498476Y-4682656D02*
X6955619Y-5139799D01*
X6955619Y-5139799D02*
X6460381Y-5139799D01*
X-5966668Y-5464895D02*
X-5700001Y-5083942D01*
X-5509525Y-5464895D02*
X-5509525Y-4664895D01*
X-5509525Y-4664895D02*
X-5814287Y-4664895D01*
X-5814287Y-4664895D02*
X-5890477Y-4702990D01*
X-5890477Y-4702990D02*
X-5928572Y-4741085D01*
X-5928572Y-4741085D02*
X-5966668Y-4817276D01*
X-5966668Y-4817276D02*
X-5966668Y-4931561D01*
X-5966668Y-4931561D02*
X-5928572Y-5007752D01*
X-5928572Y-5007752D02*
X-5890477Y-5045847D01*
X-5890477Y-5045847D02*
X-5814287Y-5083942D01*
X-5814287Y-5083942D02*
X-5509525Y-5083942D01*
X-6690477Y-4664895D02*
X-6309525Y-4664895D01*
X-6309525Y-4664895D02*
X-6271429Y-5045847D01*
X-6271429Y-5045847D02*
X-6309525Y-5007752D01*
X-6309525Y-5007752D02*
X-6385715Y-4969657D01*
X-6385715Y-4969657D02*
X-6576191Y-4969657D01*
X-6576191Y-4969657D02*
X-6652382Y-5007752D01*
X-6652382Y-5007752D02*
X-6690477Y-5045847D01*
X-6690477Y-5045847D02*
X-6728572Y-5122038D01*
X-6728572Y-5122038D02*
X-6728572Y-5312514D01*
X-6728572Y-5312514D02*
X-6690477Y-5388704D01*
X-6690477Y-5388704D02*
X-6652382Y-5426800D01*
X-6652382Y-5426800D02*
X-6576191Y-5464895D01*
X-6576191Y-5464895D02*
X-6385715Y-5464895D01*
X-6385715Y-5464895D02*
X-6309525Y-5426800D01*
X-6309525Y-5426800D02*
X-6271429Y-5388704D01*
X-11982525Y-5727199D02*
X-11982525Y-4927199D01*
X-11982525Y-4927199D02*
X-12173001Y-4927199D01*
X-12173001Y-4927199D02*
X-12287287Y-4965294D01*
X-12287287Y-4965294D02*
X-12363477Y-5041484D01*
X-12363477Y-5041484D02*
X-12401572Y-5117675D01*
X-12401572Y-5117675D02*
X-12439668Y-5270056D01*
X-12439668Y-5270056D02*
X-12439668Y-5384342D01*
X-12439668Y-5384342D02*
X-12401572Y-5536723D01*
X-12401572Y-5536723D02*
X-12363477Y-5612913D01*
X-12363477Y-5612913D02*
X-12287287Y-5689104D01*
X-12287287Y-5689104D02*
X-12173001Y-5727199D01*
X-12173001Y-5727199D02*
X-11982525Y-5727199D01*
X-12706334Y-4927199D02*
X-13201572Y-4927199D01*
X-13201572Y-4927199D02*
X-12934906Y-5231961D01*
X-12934906Y-5231961D02*
X-13049191Y-5231961D01*
X-13049191Y-5231961D02*
X-13125382Y-5270056D01*
X-13125382Y-5270056D02*
X-13163477Y-5308151D01*
X-13163477Y-5308151D02*
X-13201572Y-5384342D01*
X-13201572Y-5384342D02*
X-13201572Y-5574818D01*
X-13201572Y-5574818D02*
X-13163477Y-5651008D01*
X-13163477Y-5651008D02*
X-13125382Y-5689104D01*
X-13125382Y-5689104D02*
X-13049191Y-5727199D01*
X-13049191Y-5727199D02*
X-12820620Y-5727199D01*
X-12820620Y-5727199D02*
X-12744429Y-5689104D01*
X-12744429Y-5689104D02*
X-12706334Y-5651008D01*
X2749466Y4039001D02*
X2749466Y3467573D01*
X2749466Y3467573D02*
X2787561Y3353287D01*
X2787561Y3353287D02*
X2863752Y3277096D01*
X2863752Y3277096D02*
X2978037Y3239001D01*
X2978037Y3239001D02*
X3054228Y3239001D01*
X2368513Y3239001D02*
X2368513Y4039001D01*
X2368513Y4039001D02*
X2063751Y4039001D01*
X2063751Y4039001D02*
X1987561Y4000906D01*
X1987561Y4000906D02*
X1949466Y3962811D01*
X1949466Y3962811D02*
X1911370Y3886620D01*
X1911370Y3886620D02*
X1911370Y3772335D01*
X1911370Y3772335D02*
X1949466Y3696144D01*
X1949466Y3696144D02*
X1987561Y3658049D01*
X1987561Y3658049D02*
X2063751Y3619954D01*
X2063751Y3619954D02*
X2368513Y3619954D01*
X1606609Y3962811D02*
X1568513Y4000906D01*
X1568513Y4000906D02*
X1492323Y4039001D01*
X1492323Y4039001D02*
X1301847Y4039001D01*
X1301847Y4039001D02*
X1225656Y4000906D01*
X1225656Y4000906D02*
X1187561Y3962811D01*
X1187561Y3962811D02*
X1149466Y3886620D01*
X1149466Y3886620D02*
X1149466Y3810430D01*
X1149466Y3810430D02*
X1187561Y3696144D01*
X1187561Y3696144D02*
X1644704Y3239001D01*
X1644704Y3239001D02*
X1149466Y3239001D01*
D12*
%TO.C,D1*%
X-13836000Y-416000D02*
X-13836000Y-1616000D01*
X-15686000Y-1616000D02*
X-13836000Y-1616000D01*
X-15686000Y-416000D02*
X-13836000Y-416000D01*
%TO.C,R10*%
X-7204742Y6902596D02*
X-7679258Y6902596D01*
X-7204742Y7947596D02*
X-7679258Y7947596D01*
%TO.C,J1*%
X4445000Y-2540000D02*
X4445000Y-3810000D01*
X4445000Y-3810000D02*
X5715000Y-3810000D01*
X6757929Y2920000D02*
X7155000Y2920000D01*
X6757929Y2160000D02*
X7155000Y2160000D01*
X6757929Y380000D02*
X7155000Y380000D01*
X6757929Y-380000D02*
X7155000Y-380000D01*
X6825000Y-2160000D02*
X7155000Y-2160000D01*
X6825000Y-2920000D02*
X7155000Y-2920000D01*
X7155000Y3870000D02*
X9815000Y3870000D01*
X7155000Y1270000D02*
X9815000Y1270000D01*
X7155000Y-1270000D02*
X9815000Y-1270000D01*
X7155000Y-3870000D02*
X7155000Y3870000D01*
X9815000Y3870000D02*
X9815000Y-3870000D01*
X9815000Y2160000D02*
X15815000Y2160000D01*
X9815000Y-380000D02*
X15815000Y-380000D01*
X9815000Y-2260000D02*
X15815000Y-2260000D01*
X9815000Y-2380000D02*
X15815000Y-2380000D01*
X9815000Y-2500000D02*
X15815000Y-2500000D01*
X9815000Y-2620000D02*
X15815000Y-2620000D01*
X9815000Y-2740000D02*
X15815000Y-2740000D01*
X9815000Y-2860000D02*
X15815000Y-2860000D01*
X9815000Y-2920000D02*
X15815000Y-2920000D01*
X9815000Y-3870000D02*
X7155000Y-3870000D01*
X15815000Y2920000D02*
X9815000Y2920000D01*
X15815000Y2160000D02*
X15815000Y2920000D01*
X15815000Y380000D02*
X9815000Y380000D01*
X15815000Y-380000D02*
X15815000Y380000D01*
X15815000Y-2160000D02*
X9815000Y-2160000D01*
X15815000Y-2920000D02*
X15815000Y-2160000D01*
%TO.C,U3*%
X-3542000Y8235096D02*
X-4342000Y8235096D01*
X-3542000Y8235096D02*
X-2742000Y8235096D01*
X-3542000Y5115096D02*
X-5342000Y5115096D01*
X-3542000Y5115096D02*
X-2742000Y5115096D01*
%TO.C,C3*%
X-14845420Y760000D02*
X-15126580Y760000D01*
X-14845420Y1780000D02*
X-15126580Y1780000D01*
%TO.C,C4*%
X-13901420Y6915096D02*
X-14182580Y6915096D01*
X-13901420Y7935096D02*
X-14182580Y7935096D01*
%TO.C,J2*%
X-18178000Y571096D02*
X-16728000Y571096D01*
X-16728000Y571096D02*
X-16728000Y2371096D01*
X-20998000Y1841096D02*
X-20998000Y7771096D01*
X-16728000Y2371096D02*
X-15738000Y2371096D01*
X-18178000Y9041096D02*
X-16728000Y9041096D01*
X-16728000Y9041096D02*
X-16728000Y7241096D01*
%TO.C,R4*%
X-3541500Y-6874742D02*
X-3541500Y-7349258D01*
X-4586500Y-6874742D02*
X-4586500Y-7349258D01*
%TO.C,R1*%
X9743000Y6752160D02*
X9743000Y6298032D01*
X8273000Y6752160D02*
X8273000Y6298032D01*
%TO.C,R2*%
X3837000Y6298032D02*
X3837000Y6752160D01*
X5307000Y6298032D02*
X5307000Y6752160D01*
%TO.C,R3*%
X-10504742Y6902596D02*
X-10979258Y6902596D01*
X-10504742Y7947596D02*
X-10979258Y7947596D01*
%TO.C,C6*%
X4810000Y-6859420D02*
X4810000Y-7140580D01*
X3790000Y-6859420D02*
X3790000Y-7140580D01*
%TO.C,J3*%
X-18178000Y-9003904D02*
X-16728000Y-9003904D01*
X-16728000Y-9003904D02*
X-16728000Y-7203904D01*
X-20998000Y-7733904D02*
X-20998000Y-1803904D01*
X-16728000Y-7203904D02*
X-15738000Y-7203904D01*
X-18178000Y-533904D02*
X-16728000Y-533904D01*
X-16728000Y-533904D02*
X-16728000Y-2333904D01*
%TO.C,C5*%
X-3833400Y3515876D02*
X-3833400Y3234716D01*
X-4853400Y3515876D02*
X-4853400Y3234716D01*
D10*
%TO.C,U1*%
X-5442000Y-3088000D02*
X-5442000Y4612000D01*
X-5442000Y-3088000D02*
X-6752000Y-3088000D01*
X-5442000Y-2438000D02*
X-6752000Y-2438000D01*
X-5442000Y4612000D02*
X-6752000Y4612000D01*
X-11832000Y-3088000D02*
X-13142000Y-3088000D01*
X-11832000Y-2438000D02*
X-13142000Y-2438000D01*
X-11832000Y4612000D02*
X-13142000Y4612000D01*
X-13142000Y-3088000D02*
X-13142000Y4612000D01*
X-6625000Y-1778000D02*
G75*
G02*
X-6879000Y-1778000I-127000J0D01*
G01*
X-6879000Y-1778000D02*
G75*
G02*
X-6625000Y-1778000I127000J0D01*
G01*
D12*
%TO.C,C1*%
X-802000Y6634516D02*
X-802000Y6915676D01*
X218000Y6634516D02*
X218000Y6915676D01*
%TO.C,C2*%
X6280000Y6384516D02*
X6280000Y6665676D01*
X7300000Y6384516D02*
X7300000Y6665676D01*
%TO.C,U2*%
X8272000Y-6160904D02*
X8272000Y-7560904D01*
X5952000Y-7560904D02*
X5952000Y-5660904D01*
%TO.C,R5*%
X-6618500Y-7349258D02*
X-6618500Y-6874742D01*
X-5573500Y-7349258D02*
X-5573500Y-6874742D01*
%TO.C,JP2*%
X2187500Y8475096D02*
X1587500Y8475096D01*
X3387500Y7925096D02*
X3387500Y7325096D01*
X887500Y7825096D02*
X887500Y5025096D01*
X3087500Y7625096D02*
X3387500Y7925096D01*
X3087500Y7625096D02*
X3387500Y7325096D01*
X2887500Y5025096D02*
X2887500Y7825096D01*
X1587500Y4375096D02*
X2187500Y4375096D01*
X2187500Y8475096D02*
G75*
G02*
X2887500Y7775096I1J-699999D01*
G01*
X887500Y7775096D02*
G75*
G02*
X1587500Y8475096I699999J1D01*
G01*
X2887500Y5075096D02*
G75*
G02*
X2187500Y4375096I-700000J0D01*
G01*
X1587500Y4375096D02*
G75*
G02*
X887500Y5075096I0J700000D01*
G01*
%TD*%
M02*
