%TF.GenerationSoftware,KiCad,Pcbnew,6.0.11+dfsg-1~bpo11+1*%
%TF.CreationDate,2023-06-14T10:21:33+00:00*%
%TF.ProjectId,TFRPM01,54465250-4d30-4312-9e6b-696361645f70,rev?*%
%TF.SameCoordinates,PX7e721e0PY7e33658*%
%TF.FileFunction,Copper,L1,Top*%
%TF.FilePolarity,Positive*%
%FSLAX46Y46*%
G04 Gerber Fmt 4.6, Leading zero omitted, Abs format (unit mm)*
G04 Created by KiCad (PCBNEW 6.0.11+dfsg-1~bpo11+1) date 2023-06-14 10:21:33*
%MOMM*%
%LPD*%
G01*
G04 APERTURE LIST*
G04 Aperture macros list*
%AMFreePoly0*
4,1,22,0.550000,-0.750000,0.000000,-0.750000,0.000000,-0.745033,-0.079941,-0.743568,-0.215256,-0.701293,-0.333266,-0.622738,-0.424486,-0.514219,-0.481581,-0.384460,-0.499164,-0.250000,-0.500000,-0.250000,-0.500000,0.250000,-0.499164,0.250000,-0.499963,0.256109,-0.478152,0.396186,-0.417904,0.524511,-0.324060,0.630769,-0.204165,0.706417,-0.067858,0.745374,0.000000,0.744959,0.000000,0.750000,
0.550000,0.750000,0.550000,-0.750000,0.550000,-0.750000,$1*%
%AMFreePoly1*
4,1,20,0.000000,0.744959,0.073905,0.744508,0.209726,0.703889,0.328688,0.626782,0.421226,0.519385,0.479903,0.390333,0.500000,0.250000,0.500000,-0.250000,0.499851,-0.262216,0.476331,-0.402017,0.414519,-0.529596,0.319384,-0.634700,0.198574,-0.708877,0.061801,-0.746166,0.000000,-0.745033,0.000000,-0.750000,-0.550000,-0.750000,-0.550000,0.750000,0.000000,0.750000,0.000000,0.744959,
0.000000,0.744959,$1*%
G04 Aperture macros list end*
%ADD10C,0.300000*%
%TA.AperFunction,NonConductor*%
%ADD11C,0.300000*%
%TD*%
%TA.AperFunction,SMDPad,CuDef*%
%ADD12FreePoly0,0.000000*%
%TD*%
%TA.AperFunction,SMDPad,CuDef*%
%ADD13R,1.000000X1.500000*%
%TD*%
%TA.AperFunction,SMDPad,CuDef*%
%ADD14FreePoly1,0.000000*%
%TD*%
%TA.AperFunction,ComponentPad*%
%ADD15C,6.000000*%
%TD*%
%TA.AperFunction,ComponentPad*%
%ADD16R,1.700000X1.700000*%
%TD*%
%TA.AperFunction,ComponentPad*%
%ADD17O,1.700000X1.700000*%
%TD*%
%TA.AperFunction,ViaPad*%
%ADD18C,0.800000*%
%TD*%
%TA.AperFunction,Conductor*%
%ADD19C,0.500000*%
%TD*%
%TA.AperFunction,Conductor*%
%ADD20C,0.400000*%
%TD*%
G04 APERTURE END LIST*
D10*
D11*
X13148571Y-7467189D02*
X13148571Y-6610046D01*
X14648571Y-7038618D02*
X13148571Y-7038618D01*
X14648571Y-6110046D02*
X13148571Y-6110046D01*
X14648571Y-5467189D02*
X13862857Y-5467189D01*
X13720000Y-5538618D01*
X13648571Y-5681475D01*
X13648571Y-5895761D01*
X13720000Y-6038618D01*
X13791428Y-6110046D01*
X13648571Y-4110046D02*
X14648571Y-4110046D01*
X13648571Y-4752904D02*
X14434285Y-4752904D01*
X14577142Y-4681475D01*
X14648571Y-4538618D01*
X14648571Y-4324332D01*
X14577142Y-4181475D01*
X14505714Y-4110046D01*
X13648571Y-3395761D02*
X14648571Y-3395761D01*
X13791428Y-3395761D02*
X13720000Y-3324332D01*
X13648571Y-3181475D01*
X13648571Y-2967189D01*
X13720000Y-2824332D01*
X13862857Y-2752904D01*
X14648571Y-2752904D01*
X14648571Y-1395761D02*
X13148571Y-1395761D01*
X14577142Y-1395761D02*
X14648571Y-1538618D01*
X14648571Y-1824332D01*
X14577142Y-1967189D01*
X14505714Y-2038618D01*
X14362857Y-2110046D01*
X13934285Y-2110046D01*
X13791428Y-2038618D01*
X13720000Y-1967189D01*
X13648571Y-1824332D01*
X13648571Y-1538618D01*
X13720000Y-1395761D01*
X14577142Y-110046D02*
X14648571Y-252904D01*
X14648571Y-538618D01*
X14577142Y-681475D01*
X14434285Y-752904D01*
X13862857Y-752904D01*
X13720000Y-681475D01*
X13648571Y-538618D01*
X13648571Y-252904D01*
X13720000Y-110046D01*
X13862857Y-38618D01*
X14005714Y-38618D01*
X14148571Y-752904D01*
X14648571Y604239D02*
X13648571Y604239D01*
X13934285Y604239D02*
X13791428Y675668D01*
X13720000Y747096D01*
X13648571Y889954D01*
X13648571Y1032811D01*
X13862857Y2032811D02*
X13862857Y1532811D01*
X14648571Y1532811D02*
X13148571Y1532811D01*
X13148571Y2247096D01*
X14648571Y3032811D02*
X14577142Y2889954D01*
X14434285Y2818525D01*
X13148571Y2818525D01*
X13648571Y3461382D02*
X14648571Y3818525D01*
X13648571Y4175668D02*
X14648571Y3818525D01*
X15005714Y3675668D01*
X15077142Y3604239D01*
X15148571Y3461382D01*
X14505714Y4747096D02*
X14577142Y4818525D01*
X14648571Y4747096D01*
X14577142Y4675668D01*
X14505714Y4747096D01*
X14648571Y4747096D01*
X14577142Y6104239D02*
X14648571Y5961382D01*
X14648571Y5675668D01*
X14577142Y5532811D01*
X14505714Y5461382D01*
X14362857Y5389954D01*
X13934285Y5389954D01*
X13791428Y5461382D01*
X13720000Y5532811D01*
X13648571Y5675668D01*
X13648571Y5961382D01*
X13720000Y6104239D01*
X13648571Y6604239D02*
X13648571Y7389954D01*
X14648571Y6604239D01*
X14648571Y7389954D01*
%TO.C,JP1*%
G36*
X-8909000Y-607704D02*
G01*
X-9409000Y-607704D01*
X-9409000Y-7704D01*
X-8909000Y-7704D01*
X-8909000Y-607704D01*
G37*
%TD*%
D12*
%TO.P,JP1,1,A*%
%TO.N,GND*%
X-9809000Y-307704D03*
D13*
%TO.P,JP1,2,C*%
%TO.N,Net-(JP1-Pad2)*%
X-8509000Y-307704D03*
D14*
%TO.P,JP1,3,B*%
%TO.N,+3V3*%
X-7209000Y-307704D03*
%TD*%
D15*
%TO.P,M2,1*%
%TO.N,GND*%
X0Y0D03*
%TD*%
D16*
%TO.P,J1,1*%
%TO.N,/COUNT*%
X5715000Y-2540000D03*
D17*
%TO.P,J1,2*%
%TO.N,Net-(C2-Pad1)*%
X5715000Y0D03*
%TO.P,J1,3*%
%TO.N,GND*%
X5715000Y2540000D03*
%TD*%
D18*
%TO.N,GND*%
X-1270000Y8382000D03*
X11412000Y-1171304D03*
X-12192000Y3807096D03*
X-17272000Y-8382000D03*
X-12192000Y-8384904D03*
X-20320000Y3302000D03*
X-20320000Y-6350000D03*
X-20320000Y-3302000D03*
X-20320000Y-5334000D03*
X-20320000Y6350000D03*
X-20320000Y-4318000D03*
X-20320000Y5334000D03*
X-20320000Y4318000D03*
X-16256000Y8506096D03*
X6096000Y-4572000D03*
X11412000Y-5056904D03*
X11412000Y-6160904D03*
X11412000Y-3952904D03*
X11412000Y8268096D03*
X-2286000Y3807096D03*
X11412000Y-8368904D03*
X11412000Y-7264904D03*
X3812000Y3131096D03*
X3812000Y1431096D03*
X11412000Y7125096D03*
X-2540000Y-8384904D03*
X-17018000Y0D03*
X-400000Y3700000D03*
X2286000Y-8382000D03*
X-11176000Y1270000D03*
X-12700000Y-510904D03*
X-1923406Y-5419175D03*
X10312000Y-5068904D03*
X-7900000Y-5600000D03*
X-5867400Y-4041504D03*
X-4188000Y-1368904D03*
X-12700000Y1267096D03*
X-4188000Y331096D03*
X3008000Y-2374904D03*
X-8636000Y2794000D03*
X11412000Y5096000D03*
X11412000Y6112000D03*
X5842000Y4318000D03*
X-7620000Y-8384904D03*
X-17018000Y-1270000D03*
X-12522200Y8506096D03*
X3810000Y-3302000D03*
X-18642000Y6975096D03*
X-17018000Y1270000D03*
X-17526000Y8506096D03*
X-3540964Y-3032964D03*
X-5080000Y-7100000D03*
%TO.N,+3V3*%
X-7366000Y2540000D03*
X2870200Y-5336904D03*
%TO.N,+5V*%
X-14224000Y254000D03*
X-12792000Y6325096D03*
X-13716000Y-5842000D03*
X3100000Y7600000D03*
X-3403600Y6705600D03*
%TO.N,/SDA*%
X-15100000Y-2600000D03*
X-18084800Y5407296D03*
X-11688000Y2481096D03*
%TO.N,Net-(JP1-Pad2)*%
X-8534400Y-1704704D03*
%TD*%
D19*
%TO.N,+3V3*%
X-7366000Y-536304D02*
X-3334872Y-4567432D01*
X-3334872Y-4567432D02*
X2100728Y-4567432D01*
X-7366000Y2540000D02*
X-7366000Y-536304D01*
X2100728Y-4567432D02*
X2870200Y-5336904D01*
%TO.N,+5V*%
X-12417096Y6700000D02*
X-3409200Y6700000D01*
X-13628489Y-341511D02*
X-14224000Y254000D01*
X-3409200Y6700000D02*
X-3403600Y6705600D01*
X-13716000Y-5842000D02*
X-13628489Y-5754489D01*
X752504Y6705600D02*
X2205600Y6705600D01*
X752504Y6705600D02*
X-3403600Y6705600D01*
X2205600Y6705600D02*
X3100000Y7600000D01*
X-12792000Y6325096D02*
X-12417096Y6700000D01*
X-13628489Y-5754489D02*
X-13628489Y-341511D01*
D20*
%TO.N,/SDA*%
X-15595600Y926496D02*
X-14041000Y2481096D01*
X-15100000Y-2600000D02*
X-15595600Y-2104400D01*
X-16967200Y5407296D02*
X-18084800Y5407296D01*
X-15595600Y-2104400D02*
X-15595600Y926496D01*
X-14041000Y2481096D02*
X-11688000Y2481096D01*
X-14041000Y2481096D02*
X-16967200Y5407296D01*
%TO.N,Net-(JP1-Pad2)*%
X-8509000Y-307704D02*
X-8509000Y-1679304D01*
X-8509000Y-1679304D02*
X-8534400Y-1704704D01*
%TD*%
%TA.AperFunction,Conductor*%
%TO.N,GND*%
G36*
X15383066Y9007187D02*
G01*
X15408376Y8963350D01*
X15409500Y8950500D01*
X15409500Y8028739D01*
X15392187Y7981173D01*
X15348350Y7955863D01*
X15335500Y7954739D01*
X12337000Y7954739D01*
X12337000Y-7960547D01*
X15335500Y-7960547D01*
X15383066Y-7977860D01*
X15408376Y-8021697D01*
X15409500Y-8034547D01*
X15409500Y-8900500D01*
X15392187Y-8948066D01*
X15348350Y-8973376D01*
X15335500Y-8974500D01*
X-21015500Y-8974500D01*
X-21063066Y-8957187D01*
X-21088376Y-8913350D01*
X-21089500Y-8900500D01*
X-21089500Y-7699996D01*
X-11605647Y-7699996D01*
X-11605241Y-7702828D01*
X-11605241Y-7702834D01*
X-11602518Y-7721848D01*
X-11602053Y-7725881D01*
X-11589061Y-7874395D01*
X-11543752Y-8043495D01*
X-11469768Y-8202158D01*
X-11369355Y-8345564D01*
X-11245566Y-8469354D01*
X-11102161Y-8569768D01*
X-11099239Y-8571131D01*
X-11099233Y-8571134D01*
X-10967953Y-8632351D01*
X-10943499Y-8643754D01*
X-10774399Y-8689064D01*
X-10771178Y-8689346D01*
X-10771177Y-8689346D01*
X-10643206Y-8700542D01*
X-10637379Y-8701286D01*
X-10615178Y-8705021D01*
X-10615176Y-8705021D01*
X-10612354Y-8705496D01*
X-10609492Y-8705531D01*
X-10607001Y-8705561D01*
X-10600000Y-8705647D01*
X-10569276Y-8701247D01*
X-10558785Y-8700500D01*
X-9448228Y-8700500D01*
X-9435950Y-8701526D01*
X-9412354Y-8705496D01*
X-9409491Y-8705531D01*
X-9407817Y-8705551D01*
X-9400000Y-8705647D01*
X-9397174Y-8705242D01*
X-9397169Y-8705242D01*
X-9378294Y-8702539D01*
X-9374255Y-8702074D01*
X-9304377Y-8695960D01*
X-9225600Y-8689068D01*
X-9056500Y-8643757D01*
X-9011221Y-8622643D01*
X-8900765Y-8571137D01*
X-8900759Y-8571134D01*
X-8897837Y-8569771D01*
X-8754432Y-8469357D01*
X-8630642Y-8345566D01*
X-8530229Y-8202160D01*
X-8456244Y-8043496D01*
X-8410935Y-7874396D01*
X-8399458Y-7743210D01*
X-8398715Y-7737383D01*
X-8394979Y-7715171D01*
X-8394504Y-7712350D01*
X-8394353Y-7699996D01*
X-1605647Y-7699996D01*
X-1605241Y-7702828D01*
X-1605241Y-7702834D01*
X-1602518Y-7721848D01*
X-1602053Y-7725881D01*
X-1589061Y-7874395D01*
X-1543752Y-8043495D01*
X-1469768Y-8202158D01*
X-1369355Y-8345564D01*
X-1245566Y-8469354D01*
X-1102161Y-8569768D01*
X-1099239Y-8571131D01*
X-1099233Y-8571134D01*
X-967953Y-8632351D01*
X-943499Y-8643754D01*
X-774399Y-8689064D01*
X-771178Y-8689346D01*
X-771177Y-8689346D01*
X-643206Y-8700542D01*
X-637379Y-8701286D01*
X-615178Y-8705021D01*
X-615176Y-8705021D01*
X-612354Y-8705496D01*
X-609492Y-8705531D01*
X-607001Y-8705561D01*
X-600000Y-8705647D01*
X-569276Y-8701247D01*
X-558785Y-8700500D01*
X551772Y-8700500D01*
X564050Y-8701526D01*
X587646Y-8705496D01*
X590509Y-8705531D01*
X592183Y-8705551D01*
X600000Y-8705647D01*
X602826Y-8705242D01*
X602831Y-8705242D01*
X621706Y-8702539D01*
X625745Y-8702074D01*
X695623Y-8695960D01*
X774400Y-8689068D01*
X943500Y-8643757D01*
X988779Y-8622643D01*
X1099235Y-8571137D01*
X1099241Y-8571134D01*
X1102163Y-8569771D01*
X1245568Y-8469357D01*
X1369358Y-8345566D01*
X1469771Y-8202160D01*
X1543756Y-8043496D01*
X1589065Y-7874396D01*
X1600542Y-7743210D01*
X1601285Y-7737383D01*
X1605021Y-7715171D01*
X1605496Y-7712350D01*
X1605647Y-7699996D01*
X1601247Y-7669273D01*
X1600500Y-7658782D01*
X1600500Y-6348225D01*
X1601524Y-6335959D01*
X1605496Y-6312350D01*
X1605647Y-6299996D01*
X1605242Y-6297165D01*
X1602539Y-6278290D01*
X1602074Y-6274251D01*
X1591087Y-6148689D01*
X1589067Y-6125598D01*
X1543756Y-5956498D01*
X1492606Y-5846808D01*
X1471135Y-5800765D01*
X1471134Y-5800764D01*
X1469769Y-5797836D01*
X1369355Y-5654432D01*
X1245566Y-5530643D01*
X1102161Y-5430231D01*
X943498Y-5356246D01*
X940069Y-5355327D01*
X777519Y-5311772D01*
X774399Y-5310936D01*
X771178Y-5310654D01*
X771177Y-5310654D01*
X643206Y-5299458D01*
X637379Y-5298714D01*
X615178Y-5294979D01*
X615176Y-5294979D01*
X612354Y-5294504D01*
X609492Y-5294469D01*
X607001Y-5294439D01*
X600000Y-5294353D01*
X578151Y-5297482D01*
X569276Y-5298753D01*
X558785Y-5299500D01*
X-551772Y-5299500D01*
X-564049Y-5298474D01*
X-584823Y-5294979D01*
X-584822Y-5294979D01*
X-587646Y-5294504D01*
X-590509Y-5294469D01*
X-591629Y-5294455D01*
X-600000Y-5294353D01*
X-602832Y-5294759D01*
X-602838Y-5294759D01*
X-621852Y-5297482D01*
X-625889Y-5297947D01*
X-774398Y-5310940D01*
X-943497Y-5356249D01*
X-946417Y-5357611D01*
X-946418Y-5357611D01*
X-1099237Y-5428871D01*
X-1099241Y-5428873D01*
X-1102159Y-5430234D01*
X-1104804Y-5432086D01*
X-1242913Y-5528790D01*
X-1242916Y-5528793D01*
X-1245563Y-5530646D01*
X-1369352Y-5654435D01*
X-1444206Y-5761335D01*
X-1467910Y-5795188D01*
X-1469766Y-5797838D01*
X-1471129Y-5800760D01*
X-1471132Y-5800766D01*
X-1522950Y-5911890D01*
X-1543752Y-5956500D01*
X-1589063Y-6125598D01*
X-1591083Y-6148689D01*
X-1600542Y-6256790D01*
X-1601286Y-6262617D01*
X-1603243Y-6274251D01*
X-1605496Y-6287642D01*
X-1605647Y-6299996D01*
X-1605242Y-6302824D01*
X-1601247Y-6330722D01*
X-1600500Y-6341212D01*
X-1600500Y-7651768D01*
X-1601526Y-7664046D01*
X-1605496Y-7687642D01*
X-1605647Y-7699996D01*
X-8394353Y-7699996D01*
X-8398753Y-7669273D01*
X-8399500Y-7658782D01*
X-8399500Y-6348225D01*
X-8398476Y-6335959D01*
X-8394504Y-6312350D01*
X-8394353Y-6299996D01*
X-8394758Y-6297165D01*
X-8397461Y-6278290D01*
X-8397926Y-6274251D01*
X-8408913Y-6148689D01*
X-8410933Y-6125598D01*
X-8456244Y-5956498D01*
X-8507394Y-5846808D01*
X-8528865Y-5800765D01*
X-8528866Y-5800764D01*
X-8530231Y-5797836D01*
X-8630645Y-5654432D01*
X-8754434Y-5530643D01*
X-8897839Y-5430231D01*
X-9056502Y-5356246D01*
X-9059931Y-5355327D01*
X-9222481Y-5311772D01*
X-9225601Y-5310936D01*
X-9228822Y-5310654D01*
X-9228823Y-5310654D01*
X-9356794Y-5299458D01*
X-9362621Y-5298714D01*
X-9384822Y-5294979D01*
X-9384824Y-5294979D01*
X-9387646Y-5294504D01*
X-9390508Y-5294469D01*
X-9392999Y-5294439D01*
X-9400000Y-5294353D01*
X-9421849Y-5297482D01*
X-9430724Y-5298753D01*
X-9441215Y-5299500D01*
X-10551772Y-5299500D01*
X-10564049Y-5298474D01*
X-10584823Y-5294979D01*
X-10584822Y-5294979D01*
X-10587646Y-5294504D01*
X-10590509Y-5294469D01*
X-10591629Y-5294455D01*
X-10600000Y-5294353D01*
X-10602832Y-5294759D01*
X-10602838Y-5294759D01*
X-10621852Y-5297482D01*
X-10625889Y-5297947D01*
X-10774398Y-5310940D01*
X-10943497Y-5356249D01*
X-10946417Y-5357611D01*
X-10946418Y-5357611D01*
X-11099237Y-5428871D01*
X-11099241Y-5428873D01*
X-11102159Y-5430234D01*
X-11104804Y-5432086D01*
X-11242913Y-5528790D01*
X-11242916Y-5528793D01*
X-11245563Y-5530646D01*
X-11369352Y-5654435D01*
X-11444206Y-5761335D01*
X-11467910Y-5795188D01*
X-11469766Y-5797838D01*
X-11471129Y-5800760D01*
X-11471132Y-5800766D01*
X-11522950Y-5911890D01*
X-11543752Y-5956500D01*
X-11589063Y-6125598D01*
X-11591083Y-6148689D01*
X-11600542Y-6256790D01*
X-11601286Y-6262617D01*
X-11603243Y-6274251D01*
X-11605496Y-6287642D01*
X-11605647Y-6299996D01*
X-11605242Y-6302824D01*
X-11601247Y-6330722D01*
X-11600500Y-6341212D01*
X-11600500Y-7651768D01*
X-11601526Y-7664046D01*
X-11605496Y-7687642D01*
X-11605647Y-7699996D01*
X-21089500Y-7699996D01*
X-21089500Y5407296D01*
X-18690482Y5407296D01*
X-18669844Y5250534D01*
X-18609336Y5104455D01*
X-18606386Y5100611D01*
X-18606384Y5100607D01*
X-18534400Y5006796D01*
X-18513082Y4979014D01*
X-18509232Y4976060D01*
X-18509231Y4976059D01*
X-18391489Y4885712D01*
X-18391485Y4885710D01*
X-18387641Y4882760D01*
X-18241562Y4822252D01*
X-18236760Y4821620D01*
X-18236757Y4821619D01*
X-18089608Y4802247D01*
X-18084800Y4801614D01*
X-18079992Y4802247D01*
X-17932843Y4821619D01*
X-17932840Y4821620D01*
X-17928038Y4822252D01*
X-17781959Y4882760D01*
X-17778115Y4885710D01*
X-17778111Y4885712D01*
X-17660368Y4976060D01*
X-17656518Y4979014D01*
X-17653566Y4982862D01*
X-17651303Y4985124D01*
X-17605426Y5006515D01*
X-17598979Y5006796D01*
X-17163745Y5006796D01*
X-17116179Y4989483D01*
X-17111419Y4985122D01*
X-14659719Y2533422D01*
X-14638327Y2487546D01*
X-14651428Y2438651D01*
X-14659719Y2428770D01*
X-15901084Y1187405D01*
X-15901087Y1187401D01*
X-15923650Y1164838D01*
X-15926294Y1159650D01*
X-15926294Y1159649D01*
X-15935494Y1141594D01*
X-15941561Y1131694D01*
X-15953472Y1115300D01*
X-15953474Y1115295D01*
X-15956896Y1110586D01*
X-15958695Y1105048D01*
X-15958696Y1105047D01*
X-15964958Y1085774D01*
X-15969402Y1075046D01*
X-15978496Y1057197D01*
X-15981246Y1051800D01*
X-15982157Y1046047D01*
X-15985327Y1026033D01*
X-15988038Y1014742D01*
X-15994300Y995470D01*
X-15996100Y989929D01*
X-15996100Y-2167833D01*
X-15994300Y-2173371D01*
X-15994300Y-2173374D01*
X-15988038Y-2192646D01*
X-15985327Y-2203937D01*
X-15981246Y-2229704D01*
X-15978600Y-2234897D01*
X-15969402Y-2252950D01*
X-15964958Y-2263678D01*
X-15956896Y-2288490D01*
X-15953474Y-2293199D01*
X-15953472Y-2293204D01*
X-15941561Y-2309598D01*
X-15935494Y-2319498D01*
X-15926294Y-2337553D01*
X-15923650Y-2342742D01*
X-15901087Y-2365305D01*
X-15901084Y-2365309D01*
X-15726723Y-2539669D01*
X-15705331Y-2585545D01*
X-15705049Y-2591995D01*
X-15705049Y-2595192D01*
X-15705682Y-2600000D01*
X-15685044Y-2756762D01*
X-15624536Y-2902841D01*
X-15621586Y-2906685D01*
X-15621584Y-2906689D01*
X-15531237Y-3024431D01*
X-15528282Y-3028282D01*
X-15524431Y-3031237D01*
X-15406689Y-3121584D01*
X-15406685Y-3121586D01*
X-15402841Y-3124536D01*
X-15256762Y-3185044D01*
X-15251960Y-3185676D01*
X-15251957Y-3185677D01*
X-15104808Y-3205049D01*
X-15100000Y-3205682D01*
X-15095192Y-3205049D01*
X-14948043Y-3185677D01*
X-14948040Y-3185676D01*
X-14943238Y-3185044D01*
X-14797159Y-3124536D01*
X-14793315Y-3121586D01*
X-14793311Y-3121584D01*
X-14675569Y-3031237D01*
X-14671718Y-3028282D01*
X-14668763Y-3024431D01*
X-14578416Y-2906689D01*
X-14578414Y-2906685D01*
X-14575464Y-2902841D01*
X-14514956Y-2756762D01*
X-14494318Y-2600000D01*
X-14514956Y-2443238D01*
X-14575464Y-2297159D01*
X-14578414Y-2293315D01*
X-14578416Y-2293311D01*
X-14668763Y-2175569D01*
X-14671718Y-2171718D01*
X-14684371Y-2162009D01*
X-14793311Y-2078416D01*
X-14793315Y-2078414D01*
X-14797159Y-2075464D01*
X-14943238Y-2014956D01*
X-14948040Y-2014324D01*
X-14948043Y-2014323D01*
X-15095192Y-1994951D01*
X-15100000Y-1994318D01*
X-15104808Y-1994951D01*
X-15108006Y-1994951D01*
X-15155572Y-1977638D01*
X-15160317Y-1973291D01*
X-15173429Y-1960179D01*
X-15194819Y-1914303D01*
X-15195100Y-1907856D01*
X-15195100Y254000D01*
X-14829682Y254000D01*
X-14829049Y249192D01*
X-14811126Y113054D01*
X-14809044Y97238D01*
X-14748536Y-48841D01*
X-14745586Y-52685D01*
X-14745584Y-52689D01*
X-14655237Y-170431D01*
X-14652282Y-174282D01*
X-14648431Y-177237D01*
X-14530689Y-267584D01*
X-14530685Y-267586D01*
X-14526841Y-270536D01*
X-14380762Y-331044D01*
X-14375960Y-331676D01*
X-14375957Y-331677D01*
X-14318891Y-339189D01*
X-14285089Y-343639D01*
X-14242423Y-364680D01*
X-14100663Y-506440D01*
X-14079271Y-552316D01*
X-14078989Y-558766D01*
X-14078989Y-5327125D01*
X-14096302Y-5374691D01*
X-14107939Y-5385831D01*
X-14144282Y-5413718D01*
X-14147237Y-5417569D01*
X-14237584Y-5535311D01*
X-14237586Y-5535315D01*
X-14240536Y-5539159D01*
X-14301044Y-5685238D01*
X-14301676Y-5690040D01*
X-14301677Y-5690043D01*
X-14320235Y-5831005D01*
X-14321682Y-5842000D01*
X-14321049Y-5846808D01*
X-14306196Y-5959626D01*
X-14301044Y-5998762D01*
X-14240536Y-6144841D01*
X-14237586Y-6148685D01*
X-14237584Y-6148689D01*
X-14154635Y-6256790D01*
X-14144282Y-6270282D01*
X-14140431Y-6273237D01*
X-14022689Y-6363584D01*
X-14022685Y-6363586D01*
X-14018841Y-6366536D01*
X-13872762Y-6427044D01*
X-13867960Y-6427676D01*
X-13867957Y-6427677D01*
X-13720808Y-6447049D01*
X-13716000Y-6447682D01*
X-13711192Y-6447049D01*
X-13564043Y-6427677D01*
X-13564040Y-6427676D01*
X-13559238Y-6427044D01*
X-13413159Y-6366536D01*
X-13409315Y-6363586D01*
X-13409311Y-6363584D01*
X-13291569Y-6273237D01*
X-13287718Y-6270282D01*
X-13277365Y-6256790D01*
X-13194416Y-6148689D01*
X-13194414Y-6148685D01*
X-13191464Y-6144841D01*
X-13130956Y-5998762D01*
X-13125803Y-5959626D01*
X-13110951Y-5846808D01*
X-13110318Y-5842000D01*
X-13111765Y-5831005D01*
X-13130323Y-5690043D01*
X-13130324Y-5690040D01*
X-13130956Y-5685238D01*
X-13142617Y-5657085D01*
X-13172356Y-5585288D01*
X-13177989Y-5556970D01*
X-13177989Y-653267D01*
X-9609545Y-653267D01*
X-9603073Y-666745D01*
X-9597639Y-682306D01*
X-9594312Y-696889D01*
X-9589118Y-703407D01*
X-9585148Y-708389D01*
X-9576315Y-722469D01*
X-9569948Y-735728D01*
X-9563445Y-740929D01*
X-9563443Y-740931D01*
X-9558273Y-745065D01*
X-9546619Y-756740D01*
X-9537305Y-768428D01*
X-9524062Y-774815D01*
X-9509994Y-783674D01*
X-9498508Y-792860D01*
X-9483931Y-796212D01*
X-9468373Y-801677D01*
X-9454913Y-808169D01*
X-9431959Y-808189D01*
X-9431844Y-808189D01*
X-9431781Y-808204D01*
X-9414892Y-808204D01*
X-9363704Y-808249D01*
X-9363437Y-808249D01*
X-9363355Y-808210D01*
X-9363303Y-808204D01*
X-9283500Y-808204D01*
X-9235934Y-825517D01*
X-9210624Y-869354D01*
X-9209500Y-882204D01*
X-9209500Y-1077452D01*
X-9197867Y-1135935D01*
X-9153552Y-1202256D01*
X-9147491Y-1206306D01*
X-9095682Y-1240924D01*
X-9087231Y-1246571D01*
X-9076015Y-1248802D01*
X-9032741Y-1275064D01*
X-9016472Y-1322997D01*
X-9031746Y-1366428D01*
X-9055984Y-1398015D01*
X-9055986Y-1398019D01*
X-9058936Y-1401863D01*
X-9119444Y-1547942D01*
X-9120076Y-1552744D01*
X-9120077Y-1552747D01*
X-9135076Y-1666682D01*
X-9140082Y-1704704D01*
X-9119444Y-1861466D01*
X-9058936Y-2007545D01*
X-9055986Y-2011389D01*
X-9055984Y-2011393D01*
X-9006820Y-2075464D01*
X-8962682Y-2132986D01*
X-8958831Y-2135941D01*
X-8841089Y-2226288D01*
X-8841085Y-2226290D01*
X-8837241Y-2229240D01*
X-8691162Y-2289748D01*
X-8686360Y-2290380D01*
X-8686357Y-2290381D01*
X-8539208Y-2309753D01*
X-8534400Y-2310386D01*
X-8529592Y-2309753D01*
X-8382443Y-2290381D01*
X-8382440Y-2290380D01*
X-8377638Y-2289748D01*
X-8231559Y-2229240D01*
X-8227715Y-2226290D01*
X-8227711Y-2226288D01*
X-8109969Y-2135941D01*
X-8106118Y-2132986D01*
X-8061980Y-2075464D01*
X-8012816Y-2011393D01*
X-8012814Y-2011389D01*
X-8009864Y-2007545D01*
X-7949356Y-1861466D01*
X-7928718Y-1704704D01*
X-7933724Y-1666682D01*
X-7948723Y-1552747D01*
X-7948724Y-1552744D01*
X-7949356Y-1547942D01*
X-8009864Y-1401863D01*
X-8015519Y-1394494D01*
X-8030328Y-1375193D01*
X-8045549Y-1326917D01*
X-8026177Y-1280151D01*
X-7986055Y-1257568D01*
X-7937921Y-1247994D01*
X-7937919Y-1247993D01*
X-7930769Y-1246571D01*
X-7924706Y-1242520D01*
X-7917976Y-1239732D01*
X-7917482Y-1240924D01*
X-7875942Y-1230760D01*
X-7850190Y-1240133D01*
X-7850024Y-1239732D01*
X-7843294Y-1242520D01*
X-7837231Y-1246571D01*
X-7776998Y-1258552D01*
X-7762570Y-1261422D01*
X-7762569Y-1261422D01*
X-7759000Y-1262132D01*
X-7307927Y-1262132D01*
X-7260361Y-1279445D01*
X-7255601Y-1283806D01*
X-3675449Y-4863958D01*
X-3669662Y-4870471D01*
X-3646744Y-4899542D01*
X-3597778Y-4933385D01*
X-3595959Y-4934685D01*
X-3548055Y-4970066D01*
X-3542991Y-4971844D01*
X-3542681Y-4972033D01*
X-3542413Y-4972164D01*
X-3540368Y-4973207D01*
X-3540075Y-4973362D01*
X-3539718Y-4973511D01*
X-3535303Y-4976563D01*
X-3530030Y-4978231D01*
X-3530023Y-4978234D01*
X-3478572Y-4994506D01*
X-3476367Y-4995241D01*
X-3425461Y-5013118D01*
X-3420241Y-5014951D01*
X-3414878Y-5015161D01*
X-3413859Y-5015419D01*
X-3410169Y-5016138D01*
X-3406142Y-5017412D01*
X-3399535Y-5017932D01*
X-3345833Y-5017932D01*
X-3342927Y-5017989D01*
X-3290402Y-5020053D01*
X-3284878Y-5020270D01*
X-3279536Y-5018854D01*
X-3275236Y-5018379D01*
X-3267118Y-5017932D01*
X1883473Y-5017932D01*
X1931039Y-5035245D01*
X1935799Y-5039606D01*
X2251520Y-5355327D01*
X2272561Y-5397993D01*
X2285156Y-5493666D01*
X2345664Y-5639745D01*
X2348614Y-5643589D01*
X2348616Y-5643593D01*
X2438963Y-5761335D01*
X2441918Y-5765186D01*
X2445769Y-5768141D01*
X2563511Y-5858488D01*
X2563515Y-5858490D01*
X2567359Y-5861440D01*
X2713438Y-5921948D01*
X2718240Y-5922580D01*
X2718243Y-5922581D01*
X2865392Y-5941953D01*
X2870200Y-5942586D01*
X2875008Y-5941953D01*
X3022157Y-5922581D01*
X3022160Y-5922580D01*
X3026962Y-5921948D01*
X3173041Y-5861440D01*
X3176885Y-5858490D01*
X3176889Y-5858488D01*
X3294631Y-5768141D01*
X3298482Y-5765186D01*
X3301437Y-5761335D01*
X3391784Y-5643593D01*
X3391786Y-5643589D01*
X3394736Y-5639745D01*
X3455244Y-5493666D01*
X3463596Y-5430231D01*
X3475249Y-5341712D01*
X3475882Y-5336904D01*
X3470952Y-5299458D01*
X3455877Y-5184947D01*
X3455876Y-5184944D01*
X3455244Y-5180142D01*
X3394736Y-5034063D01*
X3391786Y-5030219D01*
X3391784Y-5030215D01*
X3301437Y-4912473D01*
X3298482Y-4908622D01*
X3248763Y-4870471D01*
X3176889Y-4815320D01*
X3176885Y-4815318D01*
X3173041Y-4812368D01*
X3026962Y-4751860D01*
X3022160Y-4751228D01*
X3022157Y-4751227D01*
X2965091Y-4743715D01*
X2931289Y-4739265D01*
X2888623Y-4718224D01*
X2441305Y-4270906D01*
X2435518Y-4264393D01*
X2416025Y-4239666D01*
X2416023Y-4239664D01*
X2412600Y-4235322D01*
X2363672Y-4201506D01*
X2361780Y-4200154D01*
X2318362Y-4168084D01*
X2318358Y-4168082D01*
X2313912Y-4164798D01*
X2308846Y-4163020D01*
X2308543Y-4162835D01*
X2308283Y-4162708D01*
X2306222Y-4161658D01*
X2305917Y-4161496D01*
X2305573Y-4161352D01*
X2301159Y-4158301D01*
X2244460Y-4140369D01*
X2242257Y-4139634D01*
X2191320Y-4121747D01*
X2191319Y-4121747D01*
X2186097Y-4119913D01*
X2180734Y-4119703D01*
X2179715Y-4119445D01*
X2176025Y-4118726D01*
X2171998Y-4117452D01*
X2165391Y-4116932D01*
X2111689Y-4116932D01*
X2108783Y-4116875D01*
X2056258Y-4114811D01*
X2050734Y-4114594D01*
X2045392Y-4116010D01*
X2041092Y-4116485D01*
X2032974Y-4116932D01*
X-3117617Y-4116932D01*
X-3165183Y-4099619D01*
X-3169943Y-4095258D01*
X-3855453Y-3409748D01*
X4664500Y-3409748D01*
X4676133Y-3468231D01*
X4720448Y-3534552D01*
X4786769Y-3578867D01*
X4831295Y-3587724D01*
X4841682Y-3589790D01*
X4841683Y-3589790D01*
X4845252Y-3590500D01*
X6584748Y-3590500D01*
X6588317Y-3589790D01*
X6588318Y-3589790D01*
X6598705Y-3587724D01*
X6643231Y-3578867D01*
X6709552Y-3534552D01*
X6753867Y-3468231D01*
X6765500Y-3409748D01*
X6765500Y-1670252D01*
X6753867Y-1611769D01*
X6709552Y-1545448D01*
X6643231Y-1501133D01*
X6598705Y-1492276D01*
X6588318Y-1490210D01*
X6588317Y-1490210D01*
X6584748Y-1489500D01*
X4845252Y-1489500D01*
X4841683Y-1490210D01*
X4841682Y-1490210D01*
X4831295Y-1492276D01*
X4786769Y-1501133D01*
X4720448Y-1545448D01*
X4676133Y-1611769D01*
X4664500Y-1670252D01*
X4664500Y-3409748D01*
X-3855453Y-3409748D01*
X-6498309Y-766892D01*
X-6519701Y-721016D01*
X-6518957Y-702288D01*
X-6502414Y-603962D01*
X-6499596Y-572547D01*
X-6499445Y-560205D01*
X-6501495Y-528723D01*
X-6503825Y-512453D01*
X-6504572Y-501963D01*
X-6504572Y-122968D01*
X-6503548Y-110701D01*
X-6502414Y-103962D01*
X-6499596Y-72547D01*
X-6499445Y-60205D01*
X-6499890Y-53361D01*
X-6501403Y-30137D01*
X-6501495Y-28723D01*
X-6516161Y73686D01*
X-6521426Y110452D01*
X-6521427Y110457D01*
X-6521799Y113054D01*
X-6538067Y168686D01*
X-6597347Y299065D01*
X-6628574Y347894D01*
X-6687118Y415838D01*
X-6720348Y454404D01*
X-6720351Y454407D01*
X-6722064Y456395D01*
X-6765742Y494498D01*
X-6881749Y569690D01*
X-6912248Y610090D01*
X-6915500Y631787D01*
X-6915500Y2115554D01*
X-6900208Y2160602D01*
X-6844416Y2233311D01*
X-6844414Y2233314D01*
X-6841464Y2237159D01*
X-6823787Y2279834D01*
X4381703Y2279834D01*
X4381727Y2278827D01*
X4414033Y2135477D01*
X4415845Y2129695D01*
X4497569Y1928429D01*
X4500304Y1923016D01*
X4613802Y1737803D01*
X4617383Y1732910D01*
X4759614Y1568715D01*
X4763934Y1564484D01*
X4931079Y1425718D01*
X4936038Y1422245D01*
X5123591Y1312648D01*
X5129056Y1310030D01*
X5331987Y1232538D01*
X5337819Y1230844D01*
X5550680Y1187537D01*
X5553619Y1187187D01*
X5598801Y1164364D01*
X5618742Y1117838D01*
X5604111Y1069380D01*
X5561755Y1041663D01*
X5551564Y1040013D01*
X5517203Y1036886D01*
X5480328Y1026033D01*
X5323043Y979742D01*
X5323039Y979740D01*
X5319572Y978720D01*
X5223633Y928564D01*
X5140209Y884951D01*
X5140206Y884949D01*
X5137002Y883274D01*
X5134184Y881008D01*
X5134182Y881007D01*
X4979266Y756452D01*
X4979263Y756449D01*
X4976447Y754185D01*
X4974121Y751413D01*
X4974119Y751411D01*
X4846351Y599144D01*
X4846348Y599140D01*
X4844024Y596370D01*
X4744776Y415838D01*
X4743682Y412389D01*
X4704917Y290185D01*
X4682484Y219468D01*
X4682081Y215877D01*
X4682081Y215876D01*
X4680461Y201430D01*
X4659520Y14738D01*
X4659823Y11129D01*
X4659823Y11127D01*
X4675069Y-170431D01*
X4676759Y-190553D01*
X4733544Y-388586D01*
X4735196Y-391800D01*
X4735197Y-391803D01*
X4804840Y-527314D01*
X4827712Y-571818D01*
X4955677Y-733270D01*
X4958430Y-735613D01*
X4958433Y-735616D01*
X5001242Y-772049D01*
X5112564Y-866791D01*
X5159266Y-892892D01*
X5289239Y-965532D01*
X5289243Y-965534D01*
X5292398Y-967297D01*
X5295834Y-968414D01*
X5295840Y-968416D01*
X5420256Y-1008841D01*
X5488329Y-1030959D01*
X5552176Y-1038572D01*
X5689294Y-1054922D01*
X5689297Y-1054922D01*
X5692894Y-1055351D01*
X5761714Y-1050056D01*
X5894689Y-1039824D01*
X5894691Y-1039824D01*
X5898300Y-1039546D01*
X6096725Y-984145D01*
X6127863Y-968416D01*
X6277376Y-892892D01*
X6277379Y-892890D01*
X6280610Y-891258D01*
X6442951Y-764424D01*
X6459661Y-745065D01*
X6575201Y-611210D01*
X6575203Y-611208D01*
X6577564Y-608472D01*
X6579347Y-605333D01*
X6579350Y-605329D01*
X6632110Y-512453D01*
X6679323Y-429344D01*
X6691812Y-391803D01*
X6743208Y-237299D01*
X6744351Y-233863D01*
X6747676Y-207549D01*
X6769913Y-31519D01*
X6769913Y-31513D01*
X6770171Y-29474D01*
X6770583Y0D01*
X6769099Y15141D01*
X6750833Y201430D01*
X6750480Y205030D01*
X6690935Y402251D01*
X6594218Y584151D01*
X6464011Y743800D01*
X6305275Y875118D01*
X6294384Y881007D01*
X6127238Y971382D01*
X6124055Y973103D01*
X6120605Y974171D01*
X6120600Y974173D01*
X5989541Y1014742D01*
X5927254Y1034023D01*
X5887929Y1038156D01*
X5855262Y1041590D01*
X5809766Y1063781D01*
X5789177Y1110023D01*
X5803130Y1158681D01*
X5845095Y1186987D01*
X5853595Y1188585D01*
X5995303Y1206737D01*
X6001214Y1207994D01*
X6209296Y1270421D01*
X6214925Y1272628D01*
X6410010Y1368199D01*
X6415208Y1371298D01*
X6592073Y1497453D01*
X6596680Y1501346D01*
X6750560Y1654691D01*
X6754489Y1659308D01*
X6881250Y1835715D01*
X6884367Y1840903D01*
X6980616Y2035646D01*
X6982849Y2041286D01*
X7045996Y2249127D01*
X7047277Y2255052D01*
X7049648Y2273063D01*
X7047346Y2283449D01*
X7044021Y2286000D01*
X4393158Y2286000D01*
X4383162Y2282362D01*
X4381703Y2279834D01*
X-6823787Y2279834D01*
X-6780956Y2383238D01*
X-6774961Y2428770D01*
X-6760951Y2535192D01*
X-6760318Y2540000D01*
X-6761765Y2550995D01*
X-6780323Y2691957D01*
X-6780324Y2691960D01*
X-6780956Y2696762D01*
X-6825042Y2803196D01*
X4378662Y2803196D01*
X4380281Y2796648D01*
X4383911Y2794000D01*
X5447952Y2794000D01*
X5457948Y2797638D01*
X5461000Y2802925D01*
X5461000Y2807048D01*
X5969000Y2807048D01*
X5972638Y2797052D01*
X5977925Y2794000D01*
X7038411Y2794000D01*
X7048407Y2797638D01*
X7049621Y2799742D01*
X7049555Y2801578D01*
X7005694Y2976197D01*
X7003748Y2981913D01*
X6917120Y3181144D01*
X6914266Y3186468D01*
X6796265Y3368869D01*
X6792575Y3373661D01*
X6646370Y3534337D01*
X6641945Y3538464D01*
X6471460Y3673104D01*
X6466425Y3676449D01*
X6276245Y3781435D01*
X6270717Y3783919D01*
X6065954Y3856430D01*
X6060087Y3857980D01*
X5981847Y3871917D01*
X5971368Y3870088D01*
X5969000Y3867276D01*
X5969000Y2807048D01*
X5461000Y2807048D01*
X5461000Y3861965D01*
X5457362Y3871961D01*
X5453945Y3873933D01*
X5402217Y3866017D01*
X5396316Y3864612D01*
X5189834Y3797124D01*
X5184260Y3794780D01*
X4991563Y3694469D01*
X4986451Y3691250D01*
X4812728Y3560814D01*
X4808199Y3556793D01*
X4658115Y3399740D01*
X4654308Y3395038D01*
X4531895Y3215587D01*
X4528896Y3210309D01*
X4437440Y3013283D01*
X4435347Y3007594D01*
X4378662Y2803196D01*
X-6825042Y2803196D01*
X-6841464Y2842841D01*
X-6844414Y2846685D01*
X-6844416Y2846689D01*
X-6934763Y2964431D01*
X-6937718Y2968282D01*
X-6982546Y3002680D01*
X-7059311Y3061584D01*
X-7059315Y3061586D01*
X-7063159Y3064536D01*
X-7209238Y3125044D01*
X-7214040Y3125676D01*
X-7214043Y3125677D01*
X-7361192Y3145049D01*
X-7366000Y3145682D01*
X-7370808Y3145049D01*
X-7517957Y3125677D01*
X-7517960Y3125676D01*
X-7522762Y3125044D01*
X-7668841Y3064536D01*
X-7672685Y3061586D01*
X-7672689Y3061584D01*
X-7749454Y3002680D01*
X-7794282Y2968282D01*
X-7797237Y2964431D01*
X-7887584Y2846689D01*
X-7887586Y2846685D01*
X-7890536Y2842841D01*
X-7951044Y2696762D01*
X-7951676Y2691960D01*
X-7951677Y2691957D01*
X-7970235Y2550995D01*
X-7971682Y2540000D01*
X-7971049Y2535192D01*
X-7957038Y2428770D01*
X-7951044Y2383238D01*
X-7890536Y2237159D01*
X-7887586Y2233314D01*
X-7887584Y2233311D01*
X-7831792Y2160602D01*
X-7816500Y2115554D01*
X-7816500Y693041D01*
X-7833813Y645475D01*
X-7877650Y620165D01*
X-7918819Y624674D01*
X-7924709Y627114D01*
X-7930769Y631163D01*
X-7951502Y635287D01*
X-7985682Y642086D01*
X-7985683Y642086D01*
X-7989252Y642796D01*
X-9028748Y642796D01*
X-9032317Y642086D01*
X-9032318Y642086D01*
X-9042705Y640020D01*
X-9087231Y631163D01*
X-9093293Y627112D01*
X-9093294Y627112D01*
X-9134001Y599912D01*
X-9153552Y586848D01*
X-9157602Y580787D01*
X-9173602Y556841D01*
X-9197867Y520527D01*
X-9209500Y462044D01*
X-9209500Y266796D01*
X-9226813Y219230D01*
X-9270650Y193920D01*
X-9283500Y192796D01*
X-9403108Y192796D01*
X-9446230Y192834D01*
X-9446231Y192834D01*
X-9454563Y192841D01*
X-9468041Y186369D01*
X-9483602Y180935D01*
X-9498185Y177608D01*
X-9504703Y172414D01*
X-9509685Y168444D01*
X-9523765Y159611D01*
X-9537024Y153244D01*
X-9542225Y146741D01*
X-9542227Y146739D01*
X-9546361Y141569D01*
X-9558036Y129915D01*
X-9569724Y120601D01*
X-9576110Y107360D01*
X-9584970Y93290D01*
X-9594156Y81804D01*
X-9597508Y67227D01*
X-9602973Y51669D01*
X-9609465Y38209D01*
X-9609485Y15141D01*
X-9609500Y15077D01*
X-9609500Y-1812D01*
X-9609544Y-52689D01*
X-9609545Y-53267D01*
X-9609506Y-53349D01*
X-9609500Y-53399D01*
X-9609500Y-601812D01*
X-9609545Y-653267D01*
X-13177989Y-653267D01*
X-13177989Y-372662D01*
X-13177476Y-363965D01*
X-13173775Y-332692D01*
X-13173125Y-327201D01*
X-13174118Y-321762D01*
X-13183808Y-268702D01*
X-13184189Y-266411D01*
X-13192217Y-213020D01*
X-13192218Y-213017D01*
X-13193040Y-207549D01*
X-13195363Y-202710D01*
X-13195451Y-202353D01*
X-13195547Y-202071D01*
X-13196265Y-199861D01*
X-13196355Y-199568D01*
X-13196499Y-199217D01*
X-13197463Y-193938D01*
X-13224913Y-141093D01*
X-13225894Y-139131D01*
X-13251680Y-85432D01*
X-13255324Y-81491D01*
X-13255863Y-80588D01*
X-13257961Y-77474D01*
X-13259909Y-73723D01*
X-13262648Y-70516D01*
X-13262651Y-70512D01*
X-13263279Y-69778D01*
X-13264214Y-68683D01*
X-13302184Y-30713D01*
X-13304198Y-28618D01*
X-13339882Y9985D01*
X-13343635Y14045D01*
X-13348417Y16823D01*
X-13351784Y19520D01*
X-13357843Y24946D01*
X-13605320Y272423D01*
X-13626361Y315090D01*
X-13638323Y405957D01*
X-13638324Y405960D01*
X-13638956Y410762D01*
X-13699464Y556841D01*
X-13702414Y560685D01*
X-13702416Y560689D01*
X-13792763Y678431D01*
X-13795718Y682282D01*
X-13809739Y693041D01*
X-13917311Y775584D01*
X-13917315Y775586D01*
X-13921159Y778536D01*
X-14067238Y839044D01*
X-14072040Y839676D01*
X-14072043Y839677D01*
X-14219192Y859049D01*
X-14224000Y859682D01*
X-14228808Y859049D01*
X-14375957Y839677D01*
X-14375960Y839676D01*
X-14380762Y839044D01*
X-14526841Y778536D01*
X-14530685Y775586D01*
X-14530689Y775584D01*
X-14638261Y693041D01*
X-14652282Y682282D01*
X-14655237Y678431D01*
X-14745584Y560689D01*
X-14745586Y560685D01*
X-14748536Y556841D01*
X-14809044Y410762D01*
X-14809676Y405960D01*
X-14809677Y405957D01*
X-14823459Y301271D01*
X-14829682Y254000D01*
X-15195100Y254000D01*
X-15195100Y729951D01*
X-15177787Y777517D01*
X-15173426Y782277D01*
X-13896782Y2058922D01*
X-13850906Y2080314D01*
X-13844456Y2080596D01*
X-12173821Y2080596D01*
X-12126255Y2063283D01*
X-12121497Y2058924D01*
X-12119234Y2056662D01*
X-12116282Y2052814D01*
X-12112432Y2049860D01*
X-11994689Y1959512D01*
X-11994685Y1959510D01*
X-11990841Y1956560D01*
X-11844762Y1896052D01*
X-11839960Y1895420D01*
X-11839957Y1895419D01*
X-11692808Y1876047D01*
X-11688000Y1875414D01*
X-11683192Y1876047D01*
X-11536043Y1895419D01*
X-11536040Y1895420D01*
X-11531238Y1896052D01*
X-11385159Y1956560D01*
X-11381315Y1959510D01*
X-11381311Y1959512D01*
X-11263569Y2049859D01*
X-11263568Y2049860D01*
X-11259718Y2052814D01*
X-11251685Y2063283D01*
X-11166416Y2174407D01*
X-11166414Y2174411D01*
X-11163464Y2178255D01*
X-11102956Y2324334D01*
X-11095790Y2378760D01*
X-11082951Y2476288D01*
X-11082318Y2481096D01*
X-11102956Y2637858D01*
X-11163464Y2783937D01*
X-11166414Y2787781D01*
X-11166416Y2787785D01*
X-11256763Y2905527D01*
X-11259718Y2909378D01*
X-11263569Y2912333D01*
X-11381311Y3002680D01*
X-11381315Y3002682D01*
X-11385159Y3005632D01*
X-11531238Y3066140D01*
X-11536040Y3066772D01*
X-11536043Y3066773D01*
X-11683192Y3086145D01*
X-11688000Y3086778D01*
X-11692808Y3086145D01*
X-11839957Y3066773D01*
X-11839960Y3066772D01*
X-11844762Y3066140D01*
X-11990841Y3005632D01*
X-11994685Y3002682D01*
X-11994689Y3002680D01*
X-12085162Y2933257D01*
X-12116282Y2909378D01*
X-12119234Y2905530D01*
X-12121497Y2903268D01*
X-12167374Y2881877D01*
X-12173821Y2881596D01*
X-13844455Y2881596D01*
X-13892021Y2898909D01*
X-13896781Y2903270D01*
X-16706291Y5712780D01*
X-16706295Y5712783D01*
X-16728858Y5735346D01*
X-16734047Y5737990D01*
X-16752102Y5747190D01*
X-16762002Y5753257D01*
X-16778396Y5765168D01*
X-16778401Y5765170D01*
X-16783110Y5768592D01*
X-16788648Y5770391D01*
X-16788649Y5770392D01*
X-16807922Y5776654D01*
X-16818650Y5781098D01*
X-16836703Y5790296D01*
X-16841896Y5792942D01*
X-16857656Y5795438D01*
X-16867663Y5797023D01*
X-16878954Y5799734D01*
X-16898226Y5805996D01*
X-16898229Y5805996D01*
X-16903767Y5807796D01*
X-17598979Y5807796D01*
X-17646545Y5825109D01*
X-17651303Y5829468D01*
X-17653566Y5831730D01*
X-17656518Y5835578D01*
X-17732471Y5893859D01*
X-17778111Y5928880D01*
X-17778115Y5928882D01*
X-17781959Y5931832D01*
X-17928038Y5992340D01*
X-17932840Y5992972D01*
X-17932843Y5992973D01*
X-18079992Y6012345D01*
X-18084800Y6012978D01*
X-18089608Y6012345D01*
X-18236757Y5992973D01*
X-18236760Y5992972D01*
X-18241562Y5992340D01*
X-18387641Y5931832D01*
X-18391485Y5928882D01*
X-18391489Y5928880D01*
X-18437129Y5893859D01*
X-18513082Y5835578D01*
X-18516037Y5831727D01*
X-18606384Y5713985D01*
X-18606386Y5713981D01*
X-18609336Y5710137D01*
X-18669844Y5564058D01*
X-18690482Y5407296D01*
X-21089500Y5407296D01*
X-21089500Y6325096D01*
X-13397682Y6325096D01*
X-13397049Y6320288D01*
X-13385716Y6234208D01*
X-13377044Y6168334D01*
X-13316536Y6022255D01*
X-13313586Y6018411D01*
X-13313584Y6018407D01*
X-13248576Y5933687D01*
X-13220282Y5896814D01*
X-13216431Y5893859D01*
X-13098689Y5803512D01*
X-13098685Y5803510D01*
X-13094841Y5800560D01*
X-12948762Y5740052D01*
X-12943960Y5739420D01*
X-12943957Y5739419D01*
X-12796808Y5720047D01*
X-12792000Y5719414D01*
X-12787192Y5720047D01*
X-12640043Y5739419D01*
X-12640040Y5739420D01*
X-12635238Y5740052D01*
X-12489159Y5800560D01*
X-12485315Y5803510D01*
X-12485311Y5803512D01*
X-12367569Y5893859D01*
X-12363718Y5896814D01*
X-12335424Y5933687D01*
X-12270416Y6018407D01*
X-12270414Y6018411D01*
X-12267464Y6022255D01*
X-12206956Y6168334D01*
X-12204741Y6185159D01*
X-12181368Y6230058D01*
X-12131374Y6249500D01*
X-3820748Y6249500D01*
X-3775700Y6234208D01*
X-3710289Y6184016D01*
X-3710286Y6184014D01*
X-3706441Y6181064D01*
X-3560362Y6120556D01*
X-3555560Y6119924D01*
X-3555557Y6119923D01*
X-3408408Y6100551D01*
X-3403600Y6099918D01*
X-3398792Y6100551D01*
X-3251643Y6119923D01*
X-3251640Y6119924D01*
X-3246838Y6120556D01*
X-3100759Y6181064D01*
X-3096914Y6184014D01*
X-3096911Y6184016D01*
X-3024202Y6239808D01*
X-2979154Y6255100D01*
X2174449Y6255100D01*
X2183146Y6254587D01*
X2194792Y6253209D01*
X2219910Y6250236D01*
X2225352Y6251230D01*
X2225355Y6251230D01*
X2278400Y6260918D01*
X2280693Y6261300D01*
X2334096Y6269329D01*
X2334097Y6269329D01*
X2339562Y6270151D01*
X2344398Y6272474D01*
X2344736Y6272556D01*
X2345000Y6272647D01*
X2347237Y6273373D01*
X2347546Y6273468D01*
X2347896Y6273612D01*
X2353173Y6274575D01*
X2405942Y6301986D01*
X2408013Y6303021D01*
X2456692Y6326396D01*
X2456693Y6326397D01*
X2461679Y6328791D01*
X2465623Y6332437D01*
X2466531Y6332979D01*
X2469642Y6335075D01*
X2473388Y6337021D01*
X2478428Y6341325D01*
X2516398Y6379295D01*
X2518493Y6381309D01*
X2557096Y6416993D01*
X2561156Y6420746D01*
X2563934Y6425528D01*
X2566631Y6428895D01*
X2572057Y6434954D01*
X3118423Y6981320D01*
X3161089Y7002361D01*
X3194891Y7006811D01*
X3251957Y7014323D01*
X3251960Y7014324D01*
X3256762Y7014956D01*
X3402841Y7075464D01*
X3406685Y7078414D01*
X3406689Y7078416D01*
X3524431Y7168763D01*
X3528282Y7171718D01*
X3532929Y7177774D01*
X3621584Y7293311D01*
X3621586Y7293315D01*
X3624536Y7297159D01*
X3685044Y7443238D01*
X3705682Y7600000D01*
X3685044Y7756762D01*
X3624536Y7902841D01*
X3621586Y7906685D01*
X3621584Y7906689D01*
X3531237Y8024431D01*
X3528282Y8028282D01*
X3524431Y8031237D01*
X3406689Y8121584D01*
X3406685Y8121586D01*
X3402841Y8124536D01*
X3256762Y8185044D01*
X3251960Y8185676D01*
X3251957Y8185677D01*
X3104808Y8205049D01*
X3100000Y8205682D01*
X3095192Y8205049D01*
X2948043Y8185677D01*
X2948040Y8185676D01*
X2943238Y8185044D01*
X2797159Y8124536D01*
X2793315Y8121586D01*
X2793311Y8121584D01*
X2675569Y8031237D01*
X2671718Y8028282D01*
X2668763Y8024431D01*
X2578416Y7906689D01*
X2578414Y7906685D01*
X2575464Y7902841D01*
X2514956Y7756762D01*
X2514324Y7751960D01*
X2514323Y7751957D01*
X2502361Y7661091D01*
X2481320Y7618424D01*
X2040671Y7177774D01*
X1994795Y7156382D01*
X1988345Y7156100D01*
X-2979154Y7156100D01*
X-3024202Y7171392D01*
X-3096911Y7227184D01*
X-3096914Y7227186D01*
X-3100759Y7230136D01*
X-3246838Y7290644D01*
X-3251640Y7291276D01*
X-3251643Y7291277D01*
X-3398792Y7310649D01*
X-3403600Y7311282D01*
X-3408408Y7310649D01*
X-3555557Y7291277D01*
X-3555560Y7291276D01*
X-3560362Y7290644D01*
X-3706441Y7230136D01*
X-3710286Y7227186D01*
X-3710289Y7227184D01*
X-3790296Y7165792D01*
X-3835344Y7150500D01*
X-12385946Y7150500D01*
X-12394643Y7151013D01*
X-12406289Y7152391D01*
X-12431407Y7155364D01*
X-12436849Y7154370D01*
X-12436851Y7154370D01*
X-12474618Y7147472D01*
X-12489916Y7144678D01*
X-12492196Y7144298D01*
X-12551058Y7135449D01*
X-12555898Y7133124D01*
X-12556243Y7133040D01*
X-12556506Y7132950D01*
X-12558726Y7132229D01*
X-12559044Y7132131D01*
X-12559392Y7131989D01*
X-12564669Y7131025D01*
X-12569578Y7128475D01*
X-12617436Y7103615D01*
X-12619516Y7102576D01*
X-12668191Y7079203D01*
X-12668195Y7079201D01*
X-12673175Y7076809D01*
X-12677116Y7073166D01*
X-12678023Y7072625D01*
X-12681140Y7070525D01*
X-12684885Y7068579D01*
X-12689924Y7064275D01*
X-12727894Y7026305D01*
X-12729989Y7024291D01*
X-12772652Y6984854D01*
X-12775430Y6980072D01*
X-12778127Y6976705D01*
X-12783553Y6970646D01*
X-12810423Y6943776D01*
X-12853089Y6922735D01*
X-12886891Y6918285D01*
X-12943957Y6910773D01*
X-12943960Y6910772D01*
X-12948762Y6910140D01*
X-13094841Y6849632D01*
X-13098685Y6846682D01*
X-13098689Y6846680D01*
X-13216431Y6756333D01*
X-13220282Y6753378D01*
X-13223237Y6749527D01*
X-13313584Y6631785D01*
X-13313586Y6631781D01*
X-13316536Y6627937D01*
X-13377044Y6481858D01*
X-13377676Y6477056D01*
X-13377677Y6477053D01*
X-13390412Y6380319D01*
X-13397682Y6325096D01*
X-21089500Y6325096D01*
X-21089500Y8950500D01*
X-21072187Y8998066D01*
X-21028350Y9023376D01*
X-21015500Y9024500D01*
X15335500Y9024500D01*
X15383066Y9007187D01*
G37*
%TD.AperFunction*%
%TD*%
M02*
